<svg width="200" height="200" viewBox="0 0 200 200" fill="none" xmlns="http://www.w3.org/2000/svg">
<g clip-path="url(#clip0_18_1250)">
<path d="M89.1164 97.1695C89.1326 97.1688 89.1488 97.1714 89.164 97.1772C89.1791 97.1831 89.193 97.1919 89.2047 97.2033C89.2164 97.2146 89.2257 97.2283 89.2321 97.2434C89.2385 97.2585 89.2417 97.2748 89.2417 97.2912L89.2392 121.063C89.2392 121.137 89.2776 121.175 89.3543 121.175L101.473 121.157C101.547 121.157 101.583 121.12 101.583 121.045V64.3848C101.583 64.3512 101.57 64.319 101.546 64.2952C101.522 64.2714 101.489 64.258 101.456 64.258C94.7966 64.2276 88.141 64.3654 81.4889 64.6714C81.3132 64.6797 81.1433 64.7359 80.9977 64.8337C77.8669 66.9411 74.9689 69.9056 73.5978 73.4204C72.3777 76.5548 72.3419 79.0654 72.2498 83.0468C72.0503 91.5853 72.2524 100.56 72.2115 111.221C72.1961 115.211 72.2055 117.979 72.2396 119.524C72.255 120.163 72.0887 121.078 72.191 121.867C72.2029 121.96 72.2558 122.003 72.3496 121.996C76.038 121.751 79.7299 121.552 83.4252 121.398C83.5752 121.393 83.8915 121.408 84.3741 121.443C84.4645 121.45 84.5097 121.409 84.5097 121.319V97.4789C84.5097 97.396 84.5523 97.3529 84.6376 97.3495L89.1164 97.1695ZM116.547 111.287C116.53 111.286 116.513 111.279 116.502 111.266C116.49 111.253 116.483 111.236 116.483 111.219V74.7695C116.483 74.6748 116.53 74.63 116.624 74.6351L121.095 74.8583C121.175 74.8616 121.215 74.9031 121.215 74.9825V79.3976C121.215 79.46 121.231 79.5214 121.263 79.5756C121.294 79.6299 121.34 79.6752 121.394 79.707L133.419 86.7036C133.433 86.7116 133.448 86.7159 133.465 86.7159C133.481 86.7159 133.497 86.7117 133.511 86.7038C133.525 86.6958 133.536 86.6843 133.544 86.6705C133.552 86.6567 133.557 86.641 133.557 86.625V65.843C133.557 65.6486 133.46 65.5446 133.265 65.5311C126.032 65.0137 118.808 64.6156 111.597 64.4051C110.579 64.3747 109.726 64.4643 109.037 64.6739C105.773 65.6629 104.141 68.0603 104.141 71.8659C104.138 86.0198 104.154 100.173 104.19 114.325C104.2 118.672 107.502 121.078 111.6 121.233L119.877 121.547C121.722 121.621 124.126 121.819 126.252 121.87C127.665 121.903 128.765 121.787 129.551 121.52C132.639 120.472 133.562 118.025 133.562 114.979C133.562 109.576 133.559 104.164 133.554 98.7418C133.554 98.6234 133.5 98.5888 133.391 98.6378L121.399 104.065C121.344 104.09 121.298 104.13 121.265 104.18C121.232 104.23 121.215 104.289 121.215 104.349V111.353C121.215 111.429 121.176 111.466 121.097 111.465L116.547 111.287ZM164.584 96.4011C164.556 96.3832 164.534 96.3578 164.52 96.3278C164.507 96.2977 164.502 96.2645 164.507 96.232C164.513 96.1995 164.527 96.1692 164.549 96.1447C164.571 96.1203 164.6 96.1028 164.632 96.0942C167.755 95.265 167.781 92.6783 167.814 90.0587C167.898 83.3148 167.921 76.565 167.883 69.8092C167.883 69.7162 167.836 69.663 167.743 69.6494L155.843 67.8996C155.739 67.8844 155.687 67.9292 155.687 68.0341L155.616 88.3495C155.616 88.4492 155.571 88.5228 155.48 88.5701L154.357 89.166C154.277 89.21 154.191 89.2261 154.099 89.2142L151.439 88.882C151.369 88.8736 151.334 88.8347 151.334 88.7654V67.4559C151.334 67.3477 151.279 67.2876 151.17 67.2758L134.943 65.6249C134.921 65.6224 134.899 65.6257 134.879 65.6345C134.859 65.6432 134.842 65.6571 134.829 65.6747C134.817 65.6922 134.809 65.7129 134.807 65.7344C134.805 65.756 134.809 65.7777 134.818 65.7974C136.129 68.5125 137.435 71.2234 138.736 73.9301C138.907 74.2868 138.992 74.6622 138.992 75.0561C138.991 90.9497 138.991 106.844 138.995 122.739C138.995 122.815 139.032 122.858 139.107 122.866L151.106 124.157C151.135 124.16 151.164 124.157 151.192 124.148C151.219 124.139 151.245 124.124 151.266 124.104C151.288 124.085 151.305 124.061 151.316 124.035C151.328 124.009 151.334 123.98 151.334 123.952V100.337C151.334 100.229 151.388 100.18 151.495 100.192C152.126 100.255 152.758 100.323 153.39 100.398C154.365 100.514 155.102 101.194 155.836 101.777C155.904 101.83 155.938 101.899 155.938 101.985C155.938 105.725 155.939 109.464 155.941 113.202C155.941 117.997 155.762 124.241 153.367 128.466C152.273 130.4 150.62 131.435 148.935 132.683C148.924 132.691 148.916 132.701 148.91 132.712C148.904 132.723 148.901 132.736 148.9 132.748C148.9 132.761 148.902 132.774 148.907 132.785C148.912 132.797 148.92 132.807 148.93 132.815L152.081 135.574C152.167 135.649 152.272 135.7 152.384 135.722C152.496 135.744 152.612 135.737 152.72 135.701C161.762 132.711 167.541 125.95 168.142 116.364C168.259 114.484 168.266 110.051 168.162 103.066C168.119 100.175 167.072 97.9937 164.584 96.4011ZM65.9242 92.6327C68.3926 90.7713 69.229 89.8584 69.2418 86.4475C69.2571 81.8017 69.2367 77.1558 69.1804 72.51C69.1651 71.1423 69.0295 70.138 68.7737 69.4973C67.771 66.9892 64.8704 65.6655 62.2563 65.9064C53.6584 66.6993 45.0154 67.7441 36.3272 69.0408C36.1942 69.0611 36.1592 69.1296 36.2223 69.2462C37.52 71.6452 38.8407 74.0764 40.1844 76.5396C40.3584 76.8574 40.4453 77.1964 40.4453 77.5565C40.4522 93.5312 40.453 109.455 40.4479 125.329C40.4479 125.491 40.5272 125.552 40.6858 125.511C43.6393 124.732 46.6004 124.012 49.5692 123.353C50.4816 123.15 51.4143 123.035 52.3676 123.008C55.0328 122.932 57.6981 122.871 60.3634 122.826C64.0365 122.762 67.9219 121.745 69.2264 117.916C69.4839 117.157 69.6127 115.862 69.6127 114.031C69.6093 108.961 69.6093 103.89 69.6127 98.8178C69.6127 95.9801 68.6714 93.964 65.9447 92.795C65.8441 92.751 65.8373 92.6969 65.9242 92.6327ZM187.267 120.036L183.105 119.171C183.027 119.156 182.988 119.108 182.988 119.027V112.038C182.988 111.892 182.928 111.777 182.808 111.693L170.925 103.291C170.911 103.281 170.894 103.275 170.877 103.274C170.859 103.273 170.842 103.276 170.826 103.284C170.811 103.292 170.798 103.305 170.788 103.32C170.779 103.335 170.774 103.352 170.774 103.37C170.772 108.406 170.773 113.456 170.776 118.52C170.776 120.589 170.906 122.018 171.165 122.808C171.935 125.171 174.667 127.674 177.035 128.116C182.929 129.213 188.21 130.294 192.879 131.359C196.695 132.229 199.739 130.139 199.742 126.262C199.747 122.05 199.744 117.838 199.734 113.625C199.726 109.984 198.128 107.437 195.951 104.668C191.705 99.2752 187.425 93.9083 183.11 88.5676C183.061 88.5067 183.036 88.4374 183.036 88.3596L183.087 82.7374C183.087 82.7138 183.092 82.6905 183.103 82.6692C183.113 82.6478 183.127 82.6289 183.146 82.6139C183.164 82.5989 183.186 82.5881 183.209 82.5822C183.232 82.5764 183.256 82.5757 183.279 82.5802L187.451 83.4272C187.54 83.4458 187.585 83.4991 187.587 83.587L187.658 88.0959C187.66 88.1753 187.692 88.2387 187.755 88.2861L199.619 97.2075C199.63 97.2162 199.644 97.2216 199.658 97.2231C199.673 97.2246 199.687 97.2222 199.7 97.2161C199.713 97.21 199.724 97.2005 199.731 97.1886C199.738 97.1768 199.742 97.1631 199.742 97.1492V76.3038C199.742 76.2425 199.721 76.1831 199.683 76.1352C199.645 76.0873 199.591 76.0538 199.532 76.04C192.842 74.4897 186.164 73.0561 179.499 71.7391C177.522 71.3485 176.14 71.2116 175.352 71.3282C172.771 71.7086 170.769 73.9048 170.771 76.5573C170.776 80.0164 170.776 83.4779 170.771 86.942C170.769 89.2852 171.462 91.3089 172.871 93.0562C177.721 99.0731 182.542 105.116 187.333 111.186C187.378 111.241 187.4 111.305 187.4 111.376V119.93C187.4 120.019 187.356 120.055 187.267 120.036ZM4.34362 83.6174C4.41353 83.7493 4.44849 83.9953 4.44849 84.3554C4.44678 100.284 4.44678 116.214 4.44849 132.145C4.44849 132.233 4.49112 132.263 4.57638 132.234C7.55374 131.191 10.5464 130.193 13.5545 129.242C15.2171 128.714 17.1176 128.767 18.8518 128.63C20.569 128.497 21.9375 128.265 22.9572 127.936C27.5767 126.442 31.0835 122.907 32.3676 118.213C32.7172 116.933 32.8928 115.749 32.8945 114.66C32.9116 104.051 32.9124 93.4433 32.8971 82.8363C32.8954 81.4568 32.851 80.4424 32.7641 79.7932C31.9532 73.7729 27.28 70.5218 21.1923 71.6351C14.5435 72.8523 7.93742 74.2657 1.37393 75.8752C1.13349 75.9335 0.685868 75.9868 0.355904 76.0755C0.255294 76.1026 0.230568 76.1617 0.281725 76.253C1.66638 78.696 3.02035 81.1508 4.34362 83.6174Z" stroke="#EEE7D6" stroke-width="1.3352"/>
<path d="M39.8771 95.567C39.8953 95.5461 39.9043 95.519 39.9022 95.4915C39.9002 95.464 39.8872 95.4385 39.8661 95.4205L36.7207 92.7382C36.7103 92.7293 36.6982 92.7224 36.6851 92.7181C36.672 92.7139 36.6582 92.7122 36.6444 92.7132C36.6306 92.7142 36.6172 92.7179 36.6049 92.724C36.5926 92.7302 36.5816 92.7387 36.5726 92.7491L33.417 96.3867C33.3989 96.4075 33.3898 96.4347 33.3919 96.4622C33.394 96.4897 33.4069 96.5152 33.428 96.5332L36.5734 99.2155C36.5945 99.2335 36.6219 99.2424 36.6496 99.2404C36.6773 99.2383 36.7031 99.2255 36.7212 99.2046L39.8771 95.567Z" stroke="#D68C97" stroke-width="1.3352"/>
<path d="M83.5962 96.177L90.2517 95.9994C90.3455 95.9961 90.3924 96.0409 90.3924 96.1339V119.903C90.3924 119.976 90.4291 120.012 90.5024 120.012L100.243 119.979C100.369 119.979 100.432 119.917 100.432 119.792V65.5124C100.432 65.4801 100.419 65.4491 100.397 65.4263C100.374 65.4035 100.344 65.3906 100.312 65.3906C94.1167 65.3889 87.9249 65.5343 81.7366 65.8268C81.6496 65.8319 81.5703 65.8589 81.4987 65.908C77.0225 69.0094 74.0988 72.9173 73.5693 78.3544C73.398 80.1245 73.3238 83.4339 73.3212 85.6224C73.3161 97.2978 73.3161 108.949 73.3212 120.575C73.3212 120.598 73.3259 120.621 73.335 120.643C73.3441 120.664 73.3575 120.683 73.3743 120.699C73.3911 120.715 73.4109 120.727 73.4325 120.735C73.4542 120.743 73.4773 120.747 73.5003 120.745L83.2048 120.238C83.3498 120.231 83.4222 120.155 83.4222 120.01V96.3545C83.4222 96.2395 83.4802 96.1803 83.5962 96.177ZM122.363 73.9165L122.384 78.8032C122.384 78.8928 122.424 78.9605 122.504 79.0061L132.231 84.6562C132.305 84.6984 132.341 84.6782 132.341 84.5953V66.7372C132.341 66.6561 132.301 66.613 132.221 66.6079C125.683 66.1649 119.173 65.8243 112.689 65.5859C111.056 65.5267 109.887 65.6146 109.182 65.8496C106.996 66.5851 105.346 68.4464 105.348 70.8505C105.353 85.2141 105.356 99.5777 105.356 113.941C105.356 117.649 107.701 119.916 111.451 120.04C115.801 120.184 120.15 120.381 124.496 120.631C127.32 120.793 130.63 120.963 131.983 117.831C132.22 117.285 132.339 116.463 132.339 115.364C132.346 110.444 132.346 105.523 132.339 100.6C132.339 100.497 132.291 100.466 132.196 100.508L122.537 104.875C122.45 104.914 122.406 104.982 122.404 105.078L122.35 112.577C122.349 112.656 122.308 112.694 122.228 112.691L115.488 112.389C115.463 112.388 115.439 112.377 115.422 112.359C115.405 112.341 115.396 112.318 115.396 112.293V73.5665C115.396 73.4752 115.442 73.4313 115.534 73.4346L122.197 73.744C122.306 73.7491 122.361 73.8066 122.363 73.9165Z" stroke="#C5746D" stroke-width="1.3352"/>
<path d="M79.3094 95.4677C79.2926 95.4593 79.2793 95.4457 79.2714 95.429C79.2636 95.4122 79.2617 95.3932 79.2661 95.375C79.2705 95.3567 79.2809 95.3403 79.2956 95.3282C79.3104 95.316 79.3287 95.3089 79.3478 95.3079L91.1984 94.8971C91.2263 94.8961 91.2542 94.9007 91.2804 94.9107C91.3065 94.9206 91.3304 94.9357 91.3507 94.9551C91.371 94.9745 91.3872 94.9977 91.3983 95.0235C91.4095 95.0492 91.4154 95.077 91.4158 95.105L91.4183 118.814C91.4183 118.918 91.4712 118.971 91.5769 118.971H99.3298C99.3508 118.971 99.371 118.962 99.3859 118.948C99.4008 118.933 99.4091 118.913 99.4091 118.892V66.5985C99.4091 66.4683 99.3435 66.405 99.2122 66.4083L82.1051 66.8039C82.0182 66.8056 81.9406 66.8318 81.8724 66.8826C76.7925 70.4836 74.4469 74.6856 74.4622 80.9951C74.4878 90.6181 74.4759 100.24 74.4264 109.862C74.4111 112.502 74.5108 116.138 74.4571 119.326C74.4537 119.525 74.5526 119.62 74.7538 119.61L82.1614 119.255C82.2569 119.25 82.3089 119.2 82.3174 119.105C82.3669 118.427 82.3916 117.748 82.3916 117.066C82.4002 110.447 82.4027 103.817 82.3993 97.1744C82.3993 97.0848 82.3592 97.0197 82.2791 96.9791L79.3094 95.4677ZM111.247 72.3779C111.233 72.3703 111.222 72.3581 111.216 72.3433C111.21 72.3286 111.209 72.3121 111.214 72.2966C111.218 72.2811 111.228 72.2675 111.242 72.2579C111.255 72.2482 111.271 72.2432 111.288 72.2435L123.307 72.7127C123.404 72.7161 123.453 72.7659 123.453 72.8623V78.2588C123.453 78.3433 123.491 78.4076 123.566 78.4515L131.219 82.8945C131.235 82.9037 131.254 82.9085 131.273 82.9084C131.292 82.9082 131.311 82.9032 131.328 82.8937C131.344 82.8843 131.358 82.8707 131.367 82.8544C131.377 82.8381 131.382 82.8196 131.382 82.8007V67.798C131.382 67.6915 131.33 67.6332 131.224 67.623C123.896 66.8648 117.143 66.9688 111.843 66.5884C108.822 66.3703 106.441 68.0263 106.441 71.1886C106.444 85.5555 106.444 99.9242 106.441 114.294C106.441 118.045 109.446 119.042 112.646 119.085C116.956 119.146 121.796 119.554 126.932 119.663C129.679 119.719 131.398 118.015 131.395 115.233C131.39 110.883 131.384 106.535 131.377 102.188C131.377 102.173 131.374 102.159 131.366 102.146C131.359 102.133 131.349 102.122 131.337 102.114C131.324 102.106 131.31 102.101 131.295 102.1C131.28 102.098 131.266 102.101 131.252 102.107L123.53 105.591C123.506 105.602 123.486 105.619 123.472 105.641C123.458 105.662 123.451 105.687 123.45 105.713L123.456 113.663C123.456 113.68 123.453 113.696 123.446 113.712C123.44 113.727 123.43 113.741 123.418 113.753C123.406 113.764 123.391 113.773 123.375 113.779C123.359 113.785 123.342 113.788 123.325 113.787L114.57 113.412C114.499 113.409 114.433 113.38 114.384 113.329C114.336 113.278 114.309 113.211 114.309 113.141V74.285C114.309 74.1954 114.27 74.1286 114.194 74.0846L111.247 72.3779Z" stroke="#651B26" stroke-width="1.3352"/>
<path d="M162.218 96.0178C162.206 96.0087 162.197 95.9966 162.191 95.9829C162.185 95.9691 162.183 95.9541 162.185 95.9392C162.187 95.9244 162.192 95.9103 162.201 95.8983C162.21 95.8863 162.222 95.8768 162.236 95.8707C165.134 94.5749 166.656 94.4227 166.666 90.6949C166.682 84.0575 166.687 77.4184 166.682 70.7776C166.682 70.6964 166.641 70.65 166.559 70.6381L156.842 69.2053C156.751 69.1918 156.706 69.2307 156.706 69.322V89.1708C156.706 89.257 156.668 89.3221 156.591 89.366L154.798 90.3931C154.716 90.4404 154.628 90.4582 154.534 90.4464L150.299 89.9062C150.251 89.9006 150.208 89.878 150.176 89.8425C150.145 89.807 150.127 89.7611 150.127 89.7135L150.117 68.5434C150.117 68.4048 150.048 68.3279 149.91 68.3127L136.834 66.9534C136.715 66.9399 136.68 66.9881 136.729 67.0979C137.769 69.338 138.843 71.5671 139.949 73.7852C140.118 74.1233 140.203 74.4818 140.203 74.8605C140.209 90.4683 140.21 106.08 140.205 121.694C140.205 121.775 140.246 121.82 140.328 121.829L150.004 122.873C150.074 122.882 150.109 122.851 150.109 122.782L150.15 99.1218C150.152 98.9274 150.25 98.842 150.444 98.8657L154.343 99.3653C154.43 99.3771 154.509 99.4084 154.58 99.4591L157.039 101.232C157.11 101.282 157.147 101.353 157.149 101.442C157.162 105.435 157.161 109.429 157.146 113.422C157.123 118.42 156.834 124.101 154.606 128.688C153.734 130.486 152.486 131.744 150.846 132.807C150.764 132.861 150.759 132.92 150.831 132.984L152.416 134.389C152.486 134.45 152.565 134.465 152.652 134.435C161.083 131.434 165.827 125.687 166.886 117.193C167.023 116.097 167.086 114.409 167.076 112.129C167.062 109.25 167.058 106.37 167.063 103.491C167.07 99.2562 165.26 98.3103 162.218 96.0178ZM63.6253 92.8327C65.912 91.1463 68.0453 90.4666 68.0606 87.1446C68.0828 82.3652 68.0853 77.5858 68.0683 72.8063C68.0632 71.5959 67.9728 70.7362 67.7971 70.2273C66.9889 67.879 64.3159 66.8951 61.9345 67.1081C53.9864 67.8198 46.0638 68.7649 38.1668 69.9433C38.073 69.9568 38.0483 70.0058 38.0926 70.0904L41.4588 76.3085C41.5108 76.4033 41.5381 76.5097 41.5381 76.6179V123.974C41.5381 124.053 41.5764 124.083 41.6532 124.063C44.1258 123.449 46.601 122.851 49.0787 122.267C49.9824 122.054 50.8931 121.929 51.8105 121.892C54.9021 121.769 57.9954 121.694 61.0904 121.669C63.8964 121.646 67.0426 120.469 68.0734 117.748C68.3206 117.096 68.452 115.993 68.4673 114.439C68.515 109.315 68.5099 104.19 68.452 99.066C68.4366 97.8268 68.3096 96.9206 68.0708 96.3475C67.3214 94.5419 65.27 93.8293 63.6432 93.0305C63.5289 92.9747 63.5229 92.9087 63.6253 92.8327Z" stroke="#C5746D" stroke-width="1.3352"/>
<path d="M82.3788 82.8608C82.3916 84.3595 82.2663 86.4238 82.4172 88.2218C82.424 88.2877 82.4598 88.3198 82.5246 88.3181L91.2827 88.062C91.302 88.0613 91.3202 88.0533 91.3336 88.0396C91.3469 88.0259 91.3544 88.0075 91.3544 87.9885L91.3646 72.3011C91.3646 72.2048 91.316 72.1583 91.2188 72.1616C86.7297 72.3214 82.0923 71.5277 82.3507 77.936C82.4197 79.6706 82.3635 81.215 82.3788 82.8608ZM146.397 97.6631C146.037 97.4247 146.072 97.3292 146.502 97.3765C149.111 97.6639 151.668 97.9699 154.173 98.2945C155.268 98.4365 157.122 100.103 158.069 100.782C158.137 100.833 158.171 100.9 158.171 100.983C158.186 106.585 158.429 112.377 158.038 117.956C157.682 123.028 156.956 129.55 152.539 132.93C152.503 132.957 152.478 132.997 152.469 133.04C152.46 133.084 152.467 133.13 152.489 133.169C152.511 133.208 152.547 133.237 152.589 133.252C152.632 133.267 152.678 133.266 152.72 133.25C160.455 130.31 164.827 124.934 165.834 117.121C165.974 116.033 166.043 114.346 166.041 112.062C166.036 108.855 166.014 105.647 165.975 102.438C165.955 100.77 165.279 99.4475 163.949 98.472C162.698 97.554 161.425 96.6538 160.13 95.7713C160.115 95.7607 160.103 95.7463 160.095 95.7295C160.088 95.7128 160.084 95.6944 160.086 95.6761C160.088 95.6578 160.095 95.6402 160.106 95.6253C160.117 95.6104 160.131 95.5987 160.148 95.5912C161.454 95.0113 162.755 94.4247 164.051 93.8313C165.062 93.3672 165.576 92.6977 165.584 91.6275C165.606 88.6841 165.607 82.0307 165.586 71.6671C165.584 71.5792 165.54 71.5285 165.453 71.515L157.941 70.4093C157.923 70.4064 157.905 70.4073 157.888 70.4121C157.871 70.4168 157.855 70.4253 157.841 70.4369C157.828 70.4484 157.817 70.4628 157.809 70.4791C157.802 70.4954 157.798 70.5131 157.797 70.531L157.79 89.7661C157.79 89.876 157.741 89.9597 157.644 90.0172L155.096 91.4855C155.023 91.5278 154.945 91.5438 154.861 91.5337L149.188 90.8186C149.084 90.805 149.032 90.7467 149.032 90.6436L149.034 69.3949C149.034 69.3087 148.992 69.2614 148.906 69.2529L138.493 68.1675C138.479 68.1663 138.465 68.1688 138.452 68.1747C138.439 68.1806 138.428 68.1898 138.419 68.2013C138.411 68.2129 138.406 68.2264 138.405 68.2405C138.403 68.2545 138.406 68.2687 138.411 68.2817C139.245 70.0788 140.099 71.8497 140.972 73.5945C141.141 73.9326 141.226 74.2893 141.228 74.6646C141.231 90.0324 141.233 105.372 141.233 120.684C141.233 120.738 141.253 120.79 141.289 120.829C141.325 120.869 141.374 120.894 141.427 120.9L148.906 121.696C148.923 121.698 148.94 121.696 148.956 121.691C148.972 121.686 148.987 121.677 148.999 121.666C149.011 121.655 149.021 121.641 149.028 121.626C149.034 121.61 149.037 121.594 149.037 121.577C149.03 114.395 149.029 107.209 149.034 100.019C149.034 99.6715 149.198 99.5397 148.814 99.281C147.914 98.6741 147.108 98.1348 146.397 97.6631ZM61.5271 93.2125C61.5112 93.2044 61.4977 93.1924 61.4878 93.1777C61.4779 93.163 61.472 93.1461 61.4707 93.1287C61.4694 93.1112 61.4728 93.0939 61.4804 93.0783C61.4881 93.0628 61.4997 93.0496 61.5143 93.04C62.7813 92.193 64.0347 91.3376 65.2744 90.4737C66.9805 89.2843 67.0444 88.3054 67.0495 86.193C67.0649 81.581 67.0589 76.9689 67.0316 72.3569C67.0188 70.0746 65.9292 68.728 63.7882 68.2639C63.1965 68.1354 62.7071 68.0881 62.32 68.1219C55.216 68.7525 48.135 69.5758 41.077 70.5919C40.7035 70.6443 40.3249 70.6688 39.9413 70.6654C39.9119 70.6649 39.883 70.6721 39.8574 70.6862C39.8318 70.7003 39.8103 70.721 39.7951 70.746C39.7798 70.7711 39.7714 70.7998 39.7706 70.8292C39.7697 70.8587 39.7766 70.8879 39.7903 70.914C40.6174 72.4626 41.4547 74.0146 42.3022 75.57C42.4761 75.8895 42.5631 76.2301 42.5631 76.5919C42.5597 82.3384 42.5597 88.0865 42.5631 93.8363C42.5631 93.931 42.5989 94.0105 42.6705 94.0747L43.5837 94.8786C43.6553 94.9412 43.6587 95.0079 43.5939 95.0789L42.6705 96.0857C42.5972 96.1669 42.5605 96.2615 42.5605 96.3697V122.693C42.5604 122.706 42.5634 122.718 42.5691 122.729C42.5748 122.741 42.5831 122.751 42.5935 122.759C42.6039 122.767 42.6159 122.772 42.6288 122.775C42.6417 122.777 42.6551 122.777 42.6679 122.774C45.5839 122.039 48.7787 121.011 51.7791 120.857C54.9065 120.693 58.0356 120.614 61.1664 120.621C63.9954 120.626 67.4281 119.175 67.4332 115.864C67.44 110.359 67.4392 104.853 67.4307 99.3469C67.4281 97.4171 67.1493 95.8828 65.392 95.0663C64.0824 94.4543 62.7941 93.8363 61.5271 93.2125Z" stroke="#651B26" stroke-width="1.3352"/>
<path d="M50.3192 76.7653C50.3908 76.7957 50.4266 76.8498 50.4266 76.9276V90.713C50.4266 90.8127 50.4761 90.8575 50.575 90.8474L56.1869 90.2286C56.2722 90.2185 56.3481 90.1872 56.4146 90.1348L59.021 88.0528C59.0893 87.997 59.1234 87.9251 59.1234 87.8372V74.2167C59.1234 74.1389 59.0841 74.1034 59.0057 74.1102C56.5118 74.346 47.503 75.2716 47.4339 75.3807C47.3862 75.4585 47.4049 75.5159 47.4902 75.5531L50.3192 76.7653ZM50.4266 116.017C50.4265 116.029 50.4291 116.041 50.4341 116.052C50.4391 116.063 50.4464 116.073 50.4556 116.081C50.4648 116.09 50.4756 116.096 50.4874 116.099C50.4991 116.103 50.5116 116.104 50.5238 116.103L59.4303 115.129C59.4511 115.127 59.4703 115.117 59.4844 115.101C59.4985 115.086 59.5066 115.066 59.507 115.045V98.828C59.5068 98.8121 59.5021 98.7966 59.4936 98.7832C59.485 98.7697 59.4728 98.7589 59.4584 98.7519L56.0974 97.1061C56.0823 97.099 56.0654 97.0963 56.0488 97.0985L50.5034 97.7122C50.4825 97.7146 50.4633 97.7244 50.4492 97.7398C50.4351 97.7552 50.4271 97.7751 50.4266 97.7959V116.017Z" stroke="#651B26" stroke-width="1.3352"/>
<path d="M188.429 121.45L181.929 120.106C181.868 120.094 181.837 120.057 181.837 119.994V112.516C181.837 112.409 181.793 112.326 181.707 112.265L172.079 105.446C172.065 105.435 172.048 105.429 172.03 105.428C172.013 105.426 171.995 105.43 171.98 105.437C171.964 105.445 171.951 105.457 171.942 105.472C171.932 105.487 171.928 105.504 171.928 105.522C171.921 110.217 171.922 114.906 171.93 119.589C171.934 120.848 172.002 121.729 172.135 122.231C172.905 125.114 175.598 126.649 178.351 127.181C182.91 128.062 187.46 128.998 191.999 129.989C193.394 130.293 194.431 130.397 195.11 130.3C197.926 129.902 198.591 127.671 198.588 125.12C198.585 121.114 198.589 117.106 198.601 113.094C198.609 110.652 197.45 108.37 195.972 106.473C191.4 100.605 186.763 94.7829 182.06 89.0077C181.996 88.9283 181.965 88.8387 181.965 88.7389V81.3137C181.965 81.1835 182.03 81.1319 182.159 81.159L188.692 82.5132C188.769 82.5284 188.807 82.5757 188.807 82.6552V87.6358C188.807 87.6602 188.813 87.6844 188.824 87.7064C188.835 87.7284 188.851 87.7477 188.871 87.7626L198.484 94.9875C198.555 95.0399 198.591 95.0221 198.591 94.9342V77.1345C198.591 77.0398 198.544 76.9823 198.45 76.962C191.737 75.4151 184.999 73.9823 178.238 72.6636C174.501 71.9332 171.889 73.5968 171.912 77.5478C171.933 80.7076 171.935 83.8699 171.918 87.0348C171.907 89.0965 172.483 90.8336 173.706 92.3526C178.673 98.5268 183.612 104.73 188.523 110.961C188.585 111.041 188.615 111.13 188.615 111.23V121.298C188.615 121.425 188.553 121.475 188.429 121.45ZM5.49769 82.9265C5.52326 82.9739 5.53605 83.0238 5.53605 83.0762V130.572C5.53605 130.658 5.57783 130.688 5.66139 130.661C8.15787 129.817 10.6603 128.985 13.1687 128.165C16.2203 127.166 19.7271 127.767 22.6942 126.836C28.2678 125.087 31.6953 120.174 31.7133 114.339C31.7457 103.556 31.7576 92.7736 31.7491 81.9908C31.7439 75.6078 27.5209 71.6289 21.0751 72.8183C14.7538 73.9848 8.46993 75.3272 2.22362 76.8454C2.14006 76.8656 2.1196 76.9138 2.16223 76.9899L5.49769 82.9265ZM83.354 87.1514C83.354 87.2106 83.3838 87.2393 83.4435 87.2376L90.1989 87.0272C90.2858 87.0255 90.3293 86.9807 90.3293 86.8928V73.3914C90.3293 73.3103 90.2884 73.2697 90.2065 73.2697C87.0194 73.2266 83.3591 72.8411 83.3591 77.1268C83.3591 80.3069 83.3574 83.6484 83.354 87.1514Z" stroke="#C5746D" stroke-width="1.3352"/>
<path d="M178.071 79.4017C178.458 79.4287 179.016 79.5107 179.744 79.6477C183.062 80.2766 186.377 80.9554 189.689 81.684C189.71 81.6881 189.73 81.6994 189.744 81.7161C189.758 81.7327 189.765 81.7537 189.766 81.7753V87.0627C189.766 87.1257 189.78 87.1879 189.809 87.2442C189.837 87.3005 189.879 87.3496 189.929 87.3874L197.401 93.0019C197.417 93.0136 197.436 93.0207 197.455 93.0224C197.475 93.0242 197.495 93.0205 197.512 93.0119C197.53 93.0033 197.545 92.9899 197.556 92.9734C197.566 92.9569 197.572 92.9378 197.572 92.9182L197.565 77.9486C197.565 77.8488 197.516 77.788 197.419 77.766C191.133 76.3222 184.828 74.9858 178.503 73.7567C176.296 73.3306 174.224 73.4498 173.293 75.6409C173.051 76.2089 172.932 77.1295 172.937 78.4025C172.949 81.498 172.954 84.5936 172.95 87.6891C172.948 89.8193 174.129 91.4017 175.403 92.9842C180.164 98.8912 184.882 104.832 189.556 110.807C189.611 110.876 189.638 110.955 189.638 111.043V122.606C189.638 122.624 189.634 122.641 189.626 122.657C189.619 122.673 189.608 122.687 189.594 122.698C189.58 122.709 189.564 122.717 189.547 122.722C189.53 122.726 189.512 122.727 189.495 122.723L180.905 120.953C180.801 120.931 180.749 120.868 180.749 120.763V112.879C180.749 112.789 180.713 112.718 180.639 112.666L173.147 107.358C173.128 107.344 173.105 107.336 173.082 107.335C173.059 107.333 173.035 107.338 173.014 107.349C172.993 107.359 172.976 107.376 172.964 107.396C172.951 107.416 172.945 107.439 172.945 107.462C172.94 111.962 172.958 116.448 172.999 120.92C173.032 124.42 176.012 125.688 178.936 126.253C182.162 126.877 186.821 127.843 192.912 129.152C195.093 129.622 196.527 129.032 197.214 127.382C197.458 126.797 197.578 125.868 197.575 124.595C197.565 120.49 197.561 116.386 197.565 112.283C197.567 110.152 195.81 107.7 194.411 105.925C189.991 100.319 185.528 94.7424 181.023 89.1955C180.968 89.1295 180.941 89.0535 180.941 88.9672V81.859C180.941 81.7525 180.898 81.6663 180.811 81.6003L178.038 79.4879C177.954 79.422 177.965 79.3932 178.071 79.4017ZM29.72 97.2243C29.5989 97.1245 29.5955 97.0197 29.7098 96.9098C30.2469 96.3925 30.6613 95.9918 30.6639 95.1828C30.6758 90.6418 30.6775 86.1033 30.669 81.5674C30.6562 75.7499 26.2822 72.8919 20.7726 73.924C15.1402 74.9807 9.52736 76.1624 3.93416 77.4693C3.81991 77.4963 3.79092 77.5606 3.84719 77.662C4.65036 79.1261 5.46973 80.5953 6.3053 82.0695C6.47412 82.367 6.55853 82.6874 6.55853 83.0306V129.228C6.55878 129.237 6.56132 129.247 6.56594 129.255C6.57056 129.264 6.57713 129.271 6.58512 129.276C6.5931 129.282 6.60227 129.285 6.61187 129.287C6.62148 129.288 6.63125 129.287 6.64038 129.284C8.89812 128.509 11.1635 127.756 13.4366 127.024C15.4906 126.362 18.0792 126.469 20.2431 126.286C25.1696 125.87 29.1931 122.229 30.3032 117.666C30.5505 116.652 30.6724 114.972 30.669 112.625C30.6639 107.805 30.6639 102.98 30.669 98.1499C30.669 98.0535 30.6315 97.9749 30.5564 97.914L29.72 97.2243Z" stroke="#651B26" stroke-width="1.3352"/>
<path d="M89.134 85.8136L89.1084 74.5844C89.1084 74.5672 89.105 74.5502 89.0983 74.5343C89.0915 74.5185 89.0817 74.5041 89.0693 74.4921C89.0569 74.48 89.0422 74.4706 89.0261 74.4642C89.01 74.4579 88.9928 74.4548 88.9754 74.4551C87.0954 74.4982 84.5529 74.1204 84.5298 76.8186C84.5043 79.8499 84.4991 82.8939 84.5145 85.9505C84.5145 86.0215 84.5503 86.0553 84.6219 86.052L89.0496 85.8998C89.1059 85.8981 89.134 85.8694 89.134 85.8136Z" stroke="#EEE7D6" stroke-width="1.3352"/>
<path d="M14.2736 82.6186C14.299 82.6275 14.321 82.644 14.3366 82.6658C14.3522 82.6876 14.3606 82.7136 14.3606 82.7403V121.872C14.3608 121.882 14.3631 121.891 14.3673 121.9C14.3715 121.909 14.3775 121.916 14.3849 121.922C14.3922 121.928 14.4008 121.932 14.4099 121.934C14.419 121.936 14.4284 121.936 14.4373 121.933C18.755 121.061 22.996 120.896 22.996 115.36L22.9908 84.8705C22.9908 82.7023 22.886 80.6254 20.5967 80.0725C19.9146 79.9085 18.7064 79.9956 16.9722 80.3337C15.1254 80.6938 13.2846 81.0734 11.4497 81.4724C11.4305 81.4757 11.413 81.4854 11.4 81.4999C11.387 81.5143 11.3793 81.5327 11.3781 81.5521C11.3769 81.5714 11.3823 81.5905 11.3935 81.6065C11.4046 81.6224 11.4208 81.6341 11.4395 81.6397L14.2736 82.6186Z" stroke="#651B26" stroke-width="1.3352"/>
<path d="M52.0019 75.8496C51.8364 75.8682 51.6975 75.9113 51.5849 75.979C51.5355 76.0077 51.5107 76.05 51.5107 76.1058L51.5133 89.5564C51.5133 89.6494 51.5593 89.6908 51.6514 89.6807C52.8894 89.5454 54.1291 89.4076 55.3706 89.2673C56.3732 89.1532 57.289 88.2402 57.9975 87.5834C58.0657 87.5192 58.0998 87.4406 58.0998 87.3476V75.416C58.0998 75.3264 58.0555 75.285 57.9668 75.2917C55.9648 75.4287 53.9765 75.6146 52.0019 75.8496Z" stroke="#C5746D" stroke-width="1.3352"/>
<path d="M56.8385 76.5246L52.861 76.9506C52.7297 76.9641 52.6641 77.0368 52.6641 77.1687V88.2863C52.6641 88.3776 52.7101 88.4173 52.8022 88.4055C54.4392 88.1924 55.6926 88.3421 56.8615 86.9955C56.9127 86.9363 56.9383 86.8678 56.9383 86.7901L56.969 76.6412C56.969 76.555 56.9255 76.5161 56.8385 76.5246Z" stroke="#EEE7D6" stroke-width="1.3352"/>
<path d="M15.3966 120.604C15.3951 120.614 15.3962 120.625 15.3998 120.635C15.4034 120.645 15.4093 120.654 15.417 120.661C15.4248 120.668 15.4342 120.673 15.4444 120.676C15.4547 120.679 15.4655 120.679 15.4759 120.677C17.8035 120.238 21.7682 119.967 21.8884 116.503C21.9294 115.342 21.9515 113.961 21.9549 112.362C21.9805 101.814 21.9618 92.4733 21.8987 84.3397C21.8901 83.234 21.7554 82.4665 21.4945 82.037C20.4356 80.2948 17.228 81.2915 15.5526 81.6592C15.4656 81.6778 15.4205 81.731 15.417 81.8189C15.4017 82.2416 15.3932 82.6643 15.3915 83.0869C15.3863 95.3812 15.3838 107.675 15.3838 119.97C15.4281 119.988 15.4324 120.2 15.3966 120.604Z" stroke="#C5746D" stroke-width="1.3352"/>
<path d="M20.7547 116.129C20.7547 105.402 20.9158 94.6399 20.7521 83.918C20.7137 81.4505 18.2633 82.2113 16.657 82.6145C16.5751 82.6348 16.5342 82.6863 16.5342 82.7692V119.147C16.5343 119.164 16.538 119.18 16.545 119.194C16.5519 119.209 16.562 119.222 16.5744 119.233C16.5869 119.243 16.6014 119.25 16.617 119.255C16.6326 119.259 16.6488 119.259 16.6646 119.256C18.6777 118.894 20.7547 118.767 20.7547 116.129Z" stroke="#EEE7D6" stroke-width="1.3352"/>
<path d="M55.322 98.2316C54.153 98.3128 52.7718 98.4117 51.6335 98.6602C51.5517 98.6771 51.5107 98.727 51.5107 98.8098L51.5133 114.771C51.5133 114.874 51.5653 114.92 51.6693 114.908L58.3709 114.193C58.446 114.186 58.4835 114.145 58.4835 114.071V99.6264C58.4835 99.5317 58.4409 99.4641 58.3556 99.4235C57.5447 99.0228 56.2147 98.1707 55.322 98.2316Z" stroke="#C5746D" stroke-width="1.3352"/>
<path d="M55.5244 99.4347C55.1458 99.2724 53.3016 99.6046 52.8258 99.6858C52.7184 99.7044 52.6647 99.7678 52.6647 99.876L52.6621 113.456C52.6621 113.573 52.7209 113.625 52.8386 113.613L57.297 113.149C57.3244 113.147 57.3498 113.134 57.3683 113.113C57.3867 113.092 57.3969 113.065 57.3967 113.037V100.459C57.3967 100.378 57.3601 100.318 57.2867 100.279C56.7052 99.9681 56.1178 99.6866 55.5244 99.4347Z" stroke="#EEE7D6" stroke-width="1.3352"/>
<path d="M89.1161 97.1695L84.6373 97.3495C84.552 97.3529 84.5094 97.396 84.5094 97.4789V121.319C84.5094 121.409 84.4642 121.45 84.3738 121.443C83.8912 121.408 83.5749 121.393 83.4249 121.398C79.7296 121.552 76.0377 121.751 72.3493 121.996C72.2555 122.003 72.2026 121.96 72.1907 121.867C72.0884 121.078 72.2547 120.163 72.2393 119.524C72.2052 117.979 72.1958 115.211 72.2112 111.221C72.2521 100.56 72.05 91.5853 72.2495 83.0468C72.3416 79.0654 72.3774 76.5548 73.5975 73.4204C74.9686 69.9056 77.8666 66.9411 80.9974 64.8337C81.143 64.7359 81.3129 64.6797 81.4886 64.6714C88.1407 64.3654 94.7963 64.2276 101.455 64.258C101.489 64.258 101.522 64.2714 101.546 64.2952C101.57 64.319 101.583 64.3512 101.583 64.3848V121.045C101.583 121.12 101.546 121.157 101.473 121.157L89.354 121.175C89.2773 121.175 89.2389 121.137 89.2389 121.063L89.2414 97.2912C89.2414 97.2748 89.2382 97.2585 89.2318 97.2434C89.2254 97.2283 89.2161 97.2146 89.2044 97.2033C89.1927 97.1919 89.1788 97.1831 89.1637 97.1772C89.1485 97.1714 89.1323 97.1688 89.1161 97.1695ZM83.5962 96.1779L90.2518 96.0004C90.3456 95.997 90.3925 96.0418 90.3925 96.1348V119.904C90.3925 119.977 90.4291 120.013 90.5025 120.013L100.243 119.98C100.369 119.98 100.432 119.918 100.432 119.793V65.5133C100.432 65.481 100.419 65.4501 100.397 65.4273C100.374 65.4044 100.344 65.3916 100.312 65.3916C94.1167 65.3899 87.925 65.5353 81.7367 65.8278C81.6497 65.8329 81.5704 65.8599 81.4988 65.9089C77.0225 69.0104 74.0989 72.9183 73.5694 78.3553C73.398 80.1254 73.3238 83.4348 73.3213 85.6233C73.3162 97.2988 73.3162 108.95 73.3213 120.576C73.3213 120.599 73.326 120.622 73.3351 120.644C73.3442 120.665 73.3576 120.684 73.3743 120.7C73.3911 120.716 73.4109 120.728 73.4326 120.736C73.4543 120.744 73.4773 120.748 73.5003 120.746L83.2049 120.239C83.3498 120.232 83.4223 120.156 83.4223 120.011V96.3554C83.4223 96.2405 83.4803 96.1813 83.5962 96.1779ZM116.547 111.287L121.097 111.465C121.176 111.466 121.215 111.429 121.215 111.353V104.349C121.215 104.289 121.232 104.23 121.265 104.18C121.297 104.13 121.344 104.09 121.399 104.065L133.39 98.6378C133.499 98.5888 133.554 98.6234 133.554 98.7418C133.559 104.164 133.562 109.576 133.562 114.979C133.562 118.025 132.638 120.472 129.551 121.52C128.765 121.787 127.665 121.903 126.251 121.87C124.126 121.819 121.721 121.621 119.877 121.547L111.6 121.233C107.502 121.078 104.2 118.672 104.19 114.325C104.154 100.173 104.138 86.0198 104.141 71.8659C104.141 68.0603 105.773 65.6629 109.037 64.6739C109.726 64.4643 110.579 64.3747 111.597 64.4051C118.808 64.6156 126.031 65.0137 133.265 65.5311C133.459 65.5446 133.556 65.6486 133.556 65.843V86.625C133.556 86.641 133.552 86.6567 133.544 86.6705C133.536 86.6843 133.524 86.6958 133.51 86.7038C133.496 86.7117 133.48 86.7159 133.464 86.7159C133.448 86.7159 133.432 86.7116 133.418 86.7036L121.394 79.707C121.339 79.6752 121.294 79.6299 121.263 79.5756C121.231 79.5214 121.215 79.46 121.215 79.3976V74.9825C121.215 74.9031 121.175 74.8616 121.095 74.8583L116.623 74.6351C116.53 74.63 116.483 74.6748 116.483 74.7695V111.219C116.483 111.236 116.489 111.253 116.501 111.266C116.513 111.279 116.529 111.286 116.547 111.287ZM122.363 73.9174L122.384 78.8042C122.384 78.8938 122.424 78.9614 122.504 79.0071L132.232 84.6571C132.305 84.6994 132.341 84.6791 132.341 84.5963V66.7382C132.341 66.657 132.301 66.6139 132.221 66.6089C125.683 66.1659 119.173 65.8252 112.689 65.5869C111.056 65.5277 109.887 65.6156 109.183 65.8506C106.996 66.586 105.346 68.4474 105.348 70.8515C105.353 85.215 105.356 99.5786 105.356 113.942C105.356 117.65 107.702 119.917 111.451 120.041C115.801 120.185 120.15 120.382 124.497 120.632C127.32 120.794 130.63 120.964 131.983 117.832C132.22 117.286 132.339 116.464 132.339 115.365C132.346 110.445 132.346 105.524 132.339 100.601C132.339 100.497 132.291 100.467 132.196 100.509L122.537 104.876C122.45 104.915 122.406 104.983 122.404 105.079L122.35 112.578C122.349 112.657 122.308 112.695 122.228 112.692L115.488 112.39C115.463 112.389 115.439 112.378 115.422 112.36C115.405 112.342 115.396 112.319 115.396 112.294V73.5675C115.396 73.4762 115.442 73.4322 115.534 73.4356L122.197 73.745C122.306 73.7501 122.362 73.8075 122.363 73.9174Z" fill="#DCCFAC"/>
<path d="M83.4222 96.3545V120.01C83.4222 120.155 83.3498 120.231 83.2048 120.238L73.5003 120.745C73.4773 120.747 73.4542 120.743 73.4325 120.735C73.4109 120.727 73.3911 120.715 73.3743 120.699C73.3575 120.683 73.3441 120.664 73.335 120.643C73.3259 120.621 73.3212 120.598 73.3212 120.575C73.3161 108.949 73.3161 97.2978 73.3212 85.6224C73.3238 83.4339 73.398 80.1245 73.5693 78.3544C74.0988 72.9173 77.0225 69.0094 81.4987 65.908C81.5703 65.8589 81.6496 65.8319 81.7366 65.8268C87.9249 65.5343 94.1167 65.3889 100.312 65.3906C100.328 65.3906 100.343 65.3938 100.358 65.3999C100.372 65.406 100.386 65.415 100.397 65.4263C100.408 65.4376 100.417 65.451 100.423 65.4658C100.429 65.4806 100.432 65.4964 100.432 65.5124V119.792C100.432 119.917 100.369 119.979 100.243 119.979L90.5024 120.012C90.4291 120.012 90.3924 119.976 90.3924 119.903V96.1339C90.3924 96.0409 90.3455 95.9961 90.2517 95.9994L83.5962 96.177C83.4802 96.1803 83.4222 96.2395 83.4222 96.3545ZM79.3092 95.4669C79.2924 95.4586 79.279 95.445 79.2712 95.4282C79.2634 95.4114 79.2615 95.3924 79.2659 95.3742C79.2703 95.356 79.2806 95.3395 79.2954 95.3274C79.3102 95.3152 79.3285 95.3081 79.3476 95.3071L91.1981 94.8963C91.2261 94.8953 91.254 94.8999 91.2802 94.9099C91.3063 94.9198 91.3302 94.935 91.3505 94.9543C91.3708 94.9737 91.3869 94.997 91.3981 95.0227C91.4093 95.0485 91.4152 95.0762 91.4156 95.1043L91.4181 118.813C91.4181 118.918 91.471 118.97 91.5767 118.97H99.3296C99.3506 118.97 99.3708 118.962 99.3857 118.947C99.4005 118.932 99.4089 118.912 99.4089 118.891V66.5977C99.4089 66.4676 99.3432 66.4042 99.2119 66.4076L82.1049 66.8032C82.018 66.8048 81.9404 66.8311 81.8722 66.8818C76.7922 70.4828 74.4467 74.6849 74.462 80.9943C74.4876 90.6173 74.4757 100.24 74.4262 109.861C74.4109 112.501 74.5106 116.137 74.4569 119.325C74.4535 119.525 74.5524 119.619 74.7536 119.609L82.1612 119.254C82.2567 119.249 82.3087 119.199 82.3172 119.104C82.3667 118.426 82.3914 117.747 82.3914 117.066C82.3999 110.447 82.4025 103.816 82.3991 97.1736C82.3991 97.084 82.359 97.0189 82.2789 96.9783L79.3092 95.4669ZM122.197 73.744L115.534 73.4346C115.442 73.4313 115.396 73.4752 115.396 73.5665V112.293C115.396 112.318 115.405 112.341 115.422 112.359C115.439 112.377 115.463 112.388 115.488 112.389L122.228 112.691C122.308 112.694 122.349 112.656 122.35 112.577L122.404 105.078C122.406 104.982 122.45 104.914 122.537 104.875L132.196 100.508C132.291 100.466 132.339 100.497 132.339 100.6C132.346 105.523 132.346 110.444 132.339 115.364C132.339 116.463 132.22 117.285 131.983 117.831C130.63 120.963 127.32 120.793 124.496 120.631C120.15 120.381 115.801 120.184 111.451 120.04C107.701 119.916 105.356 117.649 105.356 113.941C105.356 99.5777 105.353 85.2141 105.348 70.8505C105.346 68.4464 106.996 66.5851 109.182 65.8496C109.887 65.6146 111.056 65.5267 112.689 65.5859C119.173 65.8243 125.683 66.1649 132.221 66.6079C132.301 66.613 132.341 66.6561 132.341 66.7372V84.5953C132.341 84.6782 132.305 84.6984 132.231 84.6562L122.504 79.0061C122.424 78.9605 122.384 78.8928 122.384 78.8032L122.363 73.9165C122.361 73.8066 122.306 73.7491 122.197 73.744ZM111.247 72.3772C111.232 72.3695 111.221 72.3573 111.215 72.3425C111.209 72.3278 111.209 72.3114 111.213 72.2959C111.218 72.2804 111.228 72.2667 111.241 72.2571C111.255 72.2474 111.271 72.2424 111.288 72.2428L123.307 72.7119C123.404 72.7153 123.453 72.7652 123.453 72.8615V78.258C123.453 78.3425 123.49 78.4068 123.565 78.4507L131.219 82.8937C131.235 82.9029 131.254 82.9077 131.273 82.9076C131.292 82.9075 131.311 82.9024 131.327 82.893C131.344 82.8835 131.358 82.8699 131.367 82.8536C131.377 82.8373 131.382 82.8188 131.382 82.7999V67.7972C131.382 67.6907 131.329 67.6324 131.224 67.6223C123.895 66.864 117.143 66.968 111.843 66.5876C108.822 66.3695 106.44 68.0255 106.44 71.1878C106.444 85.5547 106.444 99.9234 106.44 114.294C106.44 118.044 109.446 119.041 112.646 119.084C116.956 119.145 121.795 119.553 126.932 119.662C129.679 119.718 131.398 118.014 131.395 115.232C131.39 110.882 131.384 106.534 131.377 102.187C131.377 102.172 131.373 102.158 131.366 102.145C131.359 102.132 131.349 102.121 131.337 102.113C131.324 102.105 131.31 102.1 131.295 102.099C131.28 102.098 131.265 102.1 131.252 102.106L123.53 105.59C123.506 105.601 123.486 105.618 123.472 105.64C123.458 105.661 123.45 105.686 123.45 105.712L123.455 113.662C123.456 113.679 123.453 113.695 123.446 113.711C123.44 113.726 123.43 113.74 123.418 113.752C123.406 113.763 123.391 113.773 123.375 113.779C123.359 113.784 123.342 113.787 123.325 113.787L114.569 113.411C114.499 113.409 114.433 113.379 114.384 113.328C114.336 113.278 114.308 113.21 114.308 113.14V74.2842C114.308 74.1946 114.27 74.1278 114.193 74.0838L111.247 72.3772Z" fill="#AD192E"/>
<path d="M164.583 96.4C167.072 97.9926 168.118 100.174 168.162 103.064C168.266 110.05 168.259 114.483 168.141 116.363C167.54 125.949 161.762 132.71 152.72 135.7C152.612 135.736 152.496 135.743 152.383 135.721C152.271 135.699 152.167 135.648 152.08 135.573L148.929 132.814C148.919 132.806 148.912 132.795 148.907 132.784C148.902 132.773 148.899 132.76 148.9 132.747C148.9 132.735 148.904 132.722 148.91 132.711C148.916 132.7 148.924 132.69 148.934 132.682C150.62 131.434 152.272 130.399 153.367 128.464C155.761 124.24 155.94 117.996 155.94 113.201C155.939 109.463 155.938 105.724 155.938 101.984C155.938 101.898 155.904 101.829 155.835 101.776C155.101 101.193 154.365 100.513 153.39 100.397C152.757 100.322 152.126 100.254 151.495 100.191C151.387 100.179 151.333 100.228 151.333 100.336V123.95C151.334 123.979 151.328 124.008 151.316 124.034C151.304 124.06 151.287 124.084 151.266 124.103C151.244 124.123 151.219 124.137 151.191 124.146C151.164 124.156 151.135 124.159 151.106 124.156L139.107 122.865C139.032 122.857 138.994 122.814 138.994 122.738C138.991 106.843 138.99 90.9486 138.992 75.055C138.992 74.6611 138.907 74.2858 138.736 73.9291C137.435 71.2224 136.129 68.5114 134.817 65.7963C134.808 65.7767 134.804 65.755 134.806 65.7334C134.808 65.7118 134.816 65.6912 134.829 65.6736C134.842 65.656 134.859 65.6422 134.879 65.6334C134.899 65.6247 134.921 65.6214 134.943 65.6239L151.17 67.2747C151.279 67.2866 151.333 67.3466 151.333 67.4548V88.7643C151.333 88.8336 151.368 88.8725 151.438 88.881L154.099 89.2132C154.191 89.225 154.277 89.2089 154.357 89.165L155.48 88.569C155.57 88.5217 155.615 88.4482 155.615 88.3484L155.687 68.033C155.687 67.9282 155.739 67.8834 155.843 67.8986L167.742 69.6484C167.836 69.6619 167.883 69.7152 167.883 69.8082C167.92 76.5639 167.897 83.3137 167.814 90.0576C167.781 92.6773 167.755 95.2639 164.632 96.0932C164.6 96.1017 164.571 96.1192 164.549 96.1437C164.527 96.1681 164.512 96.1985 164.507 96.2309C164.502 96.2634 164.506 96.2967 164.52 96.3267C164.533 96.3567 164.555 96.3822 164.583 96.4ZM162.217 96.0171C162.205 96.008 162.196 95.9959 162.19 95.9822C162.184 95.9684 162.182 95.9533 162.184 95.9385C162.186 95.9237 162.191 95.9096 162.2 95.8976C162.209 95.8856 162.221 95.8761 162.235 95.87C165.133 94.5742 166.655 94.422 166.665 90.6942C166.681 84.0568 166.686 77.4177 166.681 70.7769C166.681 70.6957 166.64 70.6492 166.558 70.6374L156.841 69.2046C156.75 69.1911 156.705 69.23 156.705 69.3213V89.1701C156.705 89.2563 156.667 89.3214 156.59 89.3653L154.797 90.3924C154.715 90.4397 154.627 90.4575 154.533 90.4456L150.298 89.9055C150.25 89.8999 150.207 89.8773 150.175 89.8418C150.144 89.8063 150.126 89.7604 150.126 89.7128L150.116 68.5427C150.116 68.4041 150.047 68.3272 149.909 68.312L136.833 66.9527C136.714 66.9392 136.679 66.9873 136.728 67.0972C137.768 69.3373 138.842 71.5664 139.948 73.7845C140.117 74.1226 140.202 74.481 140.202 74.8597C140.208 90.4676 140.209 106.079 140.204 121.693C140.204 121.775 140.245 121.819 140.327 121.828L150.003 122.873C150.073 122.881 150.108 122.851 150.108 122.781L150.149 99.1211C150.151 98.9267 150.249 98.8413 150.443 98.865L154.342 99.3645C154.429 99.3764 154.508 99.4077 154.579 99.4584L157.038 101.231C157.109 101.282 157.146 101.352 157.148 101.441C157.161 105.435 157.16 109.428 157.145 113.421C157.122 118.42 156.833 124.1 154.605 128.688C153.733 130.486 152.485 131.743 150.845 132.806C150.763 132.86 150.758 132.919 150.83 132.984L152.415 134.388C152.485 134.449 152.564 134.465 152.651 134.434C161.082 131.433 165.826 125.686 166.885 117.192C167.022 116.097 167.085 114.409 167.075 112.128C167.061 109.249 167.057 106.37 167.062 103.491C167.069 99.2555 165.259 98.3096 162.217 96.0171ZM65.9443 92.7939C68.6709 93.963 69.6122 95.9791 69.6122 98.8168C69.6088 103.889 69.6088 108.96 69.6122 114.03C69.6122 115.861 69.4835 117.156 69.226 117.915C67.9215 121.744 64.0361 122.761 60.363 122.825C57.6977 122.87 55.0324 122.931 52.3671 123.007C51.4139 123.034 50.4811 123.149 49.5688 123.352C46.6 124.011 43.6388 124.731 40.6853 125.51C40.5267 125.551 40.4475 125.49 40.4475 125.328C40.4526 109.454 40.4517 93.5302 40.4449 77.5555C40.4449 77.1954 40.3579 76.8564 40.184 76.5385C38.8403 74.0753 37.5195 71.6442 36.2219 69.2452C36.1588 69.1285 36.1937 69.0601 36.3267 69.0398C45.0149 67.7431 53.658 66.6982 62.2558 65.9053C64.87 65.6644 67.7706 66.9882 68.7733 69.4962C69.029 70.137 69.1646 71.1412 69.18 72.5089C69.2362 77.1548 69.2567 81.8006 69.2413 86.4465C69.2286 89.8573 68.3921 90.7702 65.9238 92.6316C65.8368 92.6959 65.8437 92.75 65.9443 92.7939ZM63.6243 92.832C65.911 91.1456 68.0443 90.4659 68.0596 87.1438C68.0818 82.3644 68.0843 77.585 68.0673 72.8056C68.0622 71.5951 67.9718 70.7355 67.7962 70.2266C66.9879 67.8783 64.3149 66.8944 61.9335 67.1074C53.9854 67.8191 46.0628 68.7642 38.1658 69.9426C38.072 69.9561 38.0473 70.0051 38.0917 70.0896L41.4578 76.3078C41.5098 76.4026 41.5371 76.509 41.5371 76.6172V123.973C41.5371 124.053 41.5755 124.082 41.6522 124.062C44.1248 123.448 46.6 122.85 49.0777 122.267C49.9815 122.054 50.8921 121.928 51.8095 121.891C54.9011 121.768 57.9944 121.694 61.0894 121.668C63.8954 121.645 67.0416 120.469 68.0724 117.748C68.3197 117.095 68.451 115.992 68.4663 114.438C68.5141 109.314 68.5089 104.19 68.451 99.0653C68.4356 97.8261 68.3086 96.9199 68.0698 96.3468C67.3204 94.5412 65.269 93.8286 63.6422 93.0298C63.5279 92.974 63.522 92.908 63.6243 92.832Z" fill="#DCCFAC"/>
<path d="M79.3094 95.4677L82.2791 96.9791C82.3592 97.0197 82.3993 97.0848 82.3993 97.1744C82.4027 103.817 82.4002 110.447 82.3916 117.066C82.3916 117.748 82.3669 118.427 82.3174 119.105C82.3089 119.2 82.2569 119.25 82.1614 119.255L74.7538 119.61C74.5526 119.62 74.4537 119.525 74.4571 119.326C74.5108 116.138 74.4111 112.502 74.4264 109.862C74.4759 100.24 74.4878 90.6181 74.4622 80.9951C74.4469 74.6856 76.7925 70.4836 81.8724 66.8826C81.9406 66.8318 82.0182 66.8056 82.1051 66.8039L99.2122 66.4083C99.3435 66.405 99.4091 66.4683 99.4091 66.5985V118.892C99.4091 118.913 99.4008 118.933 99.3859 118.948C99.371 118.962 99.3508 118.971 99.3298 118.971H91.5769C91.4712 118.971 91.4183 118.918 91.4183 118.814L91.4158 95.105C91.4154 95.077 91.4095 95.0492 91.3983 95.0235C91.3872 94.9977 91.371 94.9745 91.3507 94.9551C91.3304 94.9357 91.3065 94.9206 91.2804 94.9107C91.2542 94.9007 91.2263 94.8961 91.1984 94.8971L79.3478 95.3079C79.3287 95.3089 79.3104 95.316 79.2956 95.3281C79.2809 95.3403 79.2705 95.3567 79.2661 95.375C79.2617 95.3932 79.2636 95.4122 79.2714 95.429C79.2793 95.4457 79.2926 95.4593 79.3094 95.4677ZM82.3788 82.8615C82.3916 84.3603 82.2663 86.4245 82.4172 88.2225C82.424 88.2884 82.4598 88.3206 82.5246 88.3189L91.2828 88.0627C91.302 88.0621 91.3202 88.054 91.3336 88.0403C91.3469 88.0266 91.3544 88.0083 91.3544 87.9892L91.3646 72.3019C91.3646 72.2055 91.316 72.159 91.2188 72.1624C86.7298 72.3221 82.0924 71.5284 82.3507 77.9367C82.4198 79.6713 82.3635 81.2157 82.3788 82.8615ZM111.247 72.3779L114.194 74.0846C114.27 74.1286 114.309 74.1954 114.309 74.285V113.141C114.309 113.211 114.336 113.278 114.384 113.329C114.433 113.38 114.499 113.409 114.57 113.412L123.325 113.787C123.342 113.788 123.359 113.785 123.375 113.779C123.391 113.773 123.406 113.764 123.418 113.753C123.43 113.741 123.44 113.727 123.446 113.712C123.453 113.696 123.456 113.68 123.456 113.663L123.45 105.713C123.451 105.687 123.458 105.662 123.472 105.641C123.486 105.619 123.506 105.602 123.53 105.591L131.252 102.107C131.266 102.101 131.28 102.098 131.295 102.1C131.31 102.101 131.324 102.106 131.337 102.114C131.349 102.122 131.359 102.133 131.366 102.146C131.374 102.159 131.377 102.173 131.377 102.188C131.384 106.535 131.39 110.883 131.395 115.233C131.398 118.015 129.679 119.719 126.932 119.663C121.796 119.554 116.956 119.146 112.646 119.085C109.446 119.042 106.441 118.045 106.441 114.294C106.444 99.9242 106.444 85.5555 106.441 71.1886C106.441 68.0263 108.822 66.3703 111.843 66.5884C117.143 66.9688 123.896 66.8648 131.224 67.623C131.33 67.6332 131.382 67.6915 131.382 67.798V82.8007C131.382 82.8196 131.377 82.8381 131.367 82.8544C131.358 82.8707 131.344 82.8843 131.328 82.8937C131.311 82.9032 131.292 82.9082 131.273 82.9084C131.254 82.9085 131.235 82.9037 131.219 82.8945L123.566 78.4515C123.491 78.4076 123.453 78.3433 123.453 78.2588V72.8623C123.453 72.7659 123.404 72.7161 123.307 72.7127L111.288 72.2435C111.271 72.2432 111.255 72.2482 111.242 72.2579C111.228 72.2675 111.218 72.2811 111.214 72.2966C111.209 72.3121 111.21 72.3286 111.216 72.3433C111.222 72.3581 111.233 72.3703 111.247 72.3779Z" fill="#1D1D1D"/>
<path d="M162.218 96.0178C165.26 98.3103 167.07 99.2562 167.063 103.491C167.058 106.37 167.062 109.25 167.076 112.129C167.086 114.409 167.023 116.097 166.886 117.193C165.827 125.687 161.083 131.434 152.652 134.435C152.565 134.465 152.486 134.45 152.416 134.389L150.831 132.984C150.759 132.92 150.764 132.861 150.846 132.807C152.486 131.744 153.734 130.486 154.606 128.688C156.834 124.101 157.123 118.42 157.146 113.422C157.161 109.429 157.162 105.435 157.149 101.442C157.147 101.353 157.11 101.282 157.039 101.232L154.58 99.4591C154.509 99.4084 154.43 99.3771 154.343 99.3653L150.444 98.8657C150.25 98.842 150.152 98.9274 150.15 99.1218L150.109 122.782C150.109 122.851 150.074 122.882 150.004 122.873L140.328 121.829C140.246 121.82 140.205 121.775 140.205 121.694C140.21 106.08 140.209 90.4683 140.203 74.8605C140.203 74.4818 140.118 74.1233 139.949 73.7852C138.843 71.5671 137.769 69.338 136.729 67.0979C136.68 66.9881 136.715 66.9399 136.834 66.9534L149.91 68.3127C150.048 68.3279 150.117 68.4048 150.117 68.5434L150.127 89.7135C150.127 89.7611 150.145 89.807 150.176 89.8425C150.208 89.878 150.251 89.9006 150.299 89.9062L154.534 90.4464C154.628 90.4582 154.716 90.4404 154.798 90.3931L156.591 89.366C156.668 89.3221 156.706 89.257 156.706 89.1708V69.322C156.706 69.2307 156.751 69.1918 156.842 69.2053L166.559 70.6381C166.641 70.65 166.682 70.6964 166.682 70.7776C166.687 77.4184 166.682 84.0575 166.666 90.6949C166.656 94.4227 165.134 94.5749 162.236 95.8707C162.222 95.8768 162.21 95.8863 162.201 95.8983C162.192 95.9103 162.187 95.9244 162.185 95.9392C162.183 95.9541 162.185 95.9691 162.191 95.9829C162.197 95.9966 162.206 96.0087 162.218 96.0178ZM146.398 97.6636C146.038 97.4253 146.073 97.3297 146.503 97.3771C149.112 97.6645 151.669 97.9705 154.174 98.2951C155.268 98.4371 157.123 100.103 158.069 100.783C158.138 100.834 158.172 100.9 158.172 100.983C158.187 106.585 158.43 112.377 158.039 117.956C157.683 123.028 156.957 129.551 152.539 132.931C152.503 132.958 152.479 132.997 152.469 133.041C152.46 133.085 152.467 133.13 152.49 133.169C152.512 133.208 152.547 133.238 152.59 133.253C152.632 133.268 152.679 133.267 152.721 133.25C160.456 130.31 164.827 124.934 165.835 117.122C165.975 116.033 166.044 114.347 166.042 112.063C166.037 108.856 166.015 105.648 165.976 102.439C165.955 100.77 165.28 99.4481 163.95 98.4726C162.698 97.5546 161.425 96.6543 160.131 95.7718C160.116 95.7612 160.104 95.7468 160.096 95.7301C160.088 95.7134 160.085 95.6949 160.087 95.6766C160.089 95.6583 160.096 95.6408 160.106 95.6259C160.117 95.611 160.132 95.5992 160.149 95.5918C161.455 95.0119 162.756 94.4252 164.052 93.8318C165.063 93.3678 165.577 92.6983 165.584 91.6281C165.607 88.6847 165.607 82.0313 165.587 71.6677C165.585 71.5798 165.541 71.5291 165.454 71.5156L157.941 70.4099C157.924 70.4069 157.906 70.4079 157.889 70.4126C157.872 70.4174 157.856 70.4259 157.842 70.4374C157.829 70.449 157.818 70.4634 157.81 70.4797C157.802 70.4959 157.798 70.5136 157.798 70.5316L157.791 89.7667C157.791 89.8766 157.742 89.9603 157.645 90.0178L155.097 91.4861C155.024 91.5284 154.945 91.5444 154.862 91.5343L149.188 90.8191C149.084 90.8056 149.032 90.7473 149.032 90.6442L149.035 69.3955C149.035 69.3093 148.992 69.2619 148.907 69.2535L138.494 68.1681C138.48 68.1669 138.465 68.1693 138.453 68.1753C138.44 68.1812 138.428 68.1904 138.42 68.2019C138.412 68.2135 138.407 68.2269 138.405 68.241C138.404 68.2551 138.406 68.2693 138.412 68.2822C139.246 70.0794 140.099 71.8503 140.973 73.595C141.141 73.9332 141.227 74.2899 141.228 74.6652C141.232 90.033 141.233 105.373 141.233 120.685C141.234 120.739 141.254 120.79 141.29 120.83C141.325 120.87 141.375 120.895 141.428 120.9L148.907 121.697C148.924 121.699 148.941 121.697 148.957 121.692C148.973 121.686 148.987 121.678 149 121.667C149.012 121.655 149.022 121.641 149.028 121.626C149.035 121.611 149.038 121.594 149.038 121.578C149.031 114.396 149.03 107.21 149.035 100.02C149.035 99.6721 149.199 99.5402 148.815 99.2816C147.915 98.6746 147.109 98.1353 146.398 97.6636ZM63.6432 93.0305C65.27 93.8293 67.3214 94.5419 68.0708 96.3475C68.3096 96.9206 68.4366 97.8268 68.452 99.066C68.5099 104.19 68.515 109.315 68.4673 114.439C68.452 115.993 68.3206 117.096 68.0734 117.748C67.0426 120.469 63.8964 121.646 61.0904 121.669C57.9954 121.694 54.9021 121.769 51.8105 121.892C50.8931 121.929 49.9824 122.054 49.0787 122.267C46.601 122.851 44.1258 123.449 41.6532 124.063C41.5764 124.083 41.5381 124.053 41.5381 123.974V76.6179C41.5381 76.5097 41.5108 76.4033 41.4588 76.3085L38.0926 70.0904C38.0483 70.0058 38.073 69.9568 38.1668 69.9433C46.0638 68.7649 53.9864 67.8198 61.9345 67.1081C64.3159 66.8951 66.9889 67.879 67.7971 70.2273C67.9728 70.7362 68.0632 71.5959 68.0683 72.8063C68.0853 77.5858 68.0828 82.3652 68.0606 87.1446C68.0453 90.4666 65.912 91.1463 63.6253 92.8327C63.5229 92.9087 63.5289 92.9747 63.6432 93.0305ZM61.5278 93.2131C61.5119 93.205 61.4984 93.193 61.4885 93.1783C61.4786 93.1636 61.4727 93.1467 61.4714 93.1292C61.4701 93.1118 61.4735 93.0944 61.4811 93.0789C61.4888 93.0633 61.5005 93.0501 61.515 93.0406C62.782 92.1936 64.0354 91.3382 65.2751 90.4742C66.9812 89.2849 67.0451 88.306 67.0502 86.1936C67.0656 81.5815 67.0596 76.9695 67.0323 72.3575C67.0196 70.0751 65.9299 68.7286 63.789 68.2645C63.1972 68.136 62.7078 68.0887 62.3207 68.1225C55.2167 68.7531 48.1357 69.5764 41.0777 70.5925C40.7042 70.6449 40.3257 70.6694 39.942 70.666C39.9127 70.6655 39.8838 70.6727 39.8581 70.6868C39.8325 70.7009 39.811 70.7215 39.7958 70.7466C39.7806 70.7717 39.7721 70.8003 39.7713 70.8298C39.7705 70.8592 39.7773 70.8884 39.7911 70.9145C40.6181 72.4631 41.4554 74.0151 42.3029 75.5705C42.4768 75.89 42.5638 76.2307 42.5638 76.5925C42.5604 82.3389 42.5604 88.0871 42.5638 93.8369C42.5638 93.9316 42.5996 94.011 42.6712 94.0753L43.5844 94.8792C43.656 94.9417 43.6594 95.0085 43.5946 95.0795L42.6712 96.0863C42.5979 96.1674 42.5612 96.2621 42.5612 96.3703V122.693C42.5611 122.706 42.5641 122.719 42.5698 122.73C42.5755 122.742 42.5839 122.752 42.5942 122.759C42.6046 122.767 42.6167 122.773 42.6295 122.775C42.6425 122.778 42.6558 122.778 42.6687 122.775C45.5846 122.039 48.7794 121.012 51.7798 120.857C54.9072 120.693 58.0363 120.615 61.1671 120.622C63.9961 120.627 67.4288 119.176 67.4339 115.864C67.4407 110.359 67.4399 104.854 67.4314 99.3475C67.4288 97.4177 67.15 95.8834 65.3927 95.0668C64.0831 94.4548 62.7948 93.8369 61.5278 93.2131Z" fill="#AD192E"/>
<path d="M61.5271 93.2125C62.7941 93.8363 64.0824 94.4543 65.392 95.0663C67.1493 95.8828 67.4281 97.4171 67.4307 99.3469C67.4392 104.853 67.44 110.359 67.4332 115.864C67.4281 119.175 63.9954 120.626 61.1664 120.621C58.0356 120.614 54.9065 120.693 51.7791 120.857C48.7787 121.011 45.5839 122.039 42.6679 122.774C42.6551 122.777 42.6417 122.777 42.6288 122.775C42.6159 122.772 42.6039 122.767 42.5935 122.759C42.5831 122.751 42.5748 122.741 42.5691 122.729C42.5634 122.718 42.5604 122.706 42.5605 122.693V96.3697C42.5605 96.2615 42.5972 96.1669 42.6705 96.0857L43.5939 95.0789C43.6587 95.0079 43.6553 94.9412 43.5837 94.8786L42.6705 94.0747C42.5989 94.0105 42.5631 93.931 42.5631 93.8363C42.5597 88.0865 42.5597 82.3384 42.5631 76.5919C42.5631 76.2301 42.4761 75.8895 42.3022 75.57C41.4547 74.0146 40.6174 72.4626 39.7903 70.914C39.7766 70.8879 39.7697 70.8587 39.7706 70.8292C39.7714 70.7998 39.7798 70.7711 39.7951 70.746C39.8103 70.721 39.8318 70.7003 39.8574 70.6862C39.883 70.6721 39.9119 70.6649 39.9413 70.6654C40.3249 70.6688 40.7035 70.6443 41.077 70.5919C48.135 69.5758 55.216 68.7525 62.32 68.1219C62.7071 68.0881 63.1965 68.1354 63.7882 68.2639C65.9292 68.728 67.0188 70.0746 67.0316 72.3569C67.0589 76.9689 67.0649 81.581 67.0495 86.193C67.0444 88.3054 66.9805 89.2843 65.2744 90.4737C64.0347 91.3376 62.7813 92.193 61.5143 93.04C61.4997 93.0496 61.4881 93.0628 61.4804 93.0783C61.4728 93.0939 61.4694 93.1112 61.4707 93.1287C61.472 93.1461 61.4779 93.163 61.4878 93.1777C61.4977 93.1924 61.5112 93.2044 61.5271 93.2125ZM50.3185 76.7644C50.3901 76.7948 50.426 76.8489 50.426 76.9267V90.7121C50.426 90.8118 50.4754 90.8566 50.5743 90.8465L56.1863 90.2277C56.2715 90.2175 56.3474 90.1863 56.4139 90.1339L59.0204 88.0519C59.0886 87.9961 59.1227 87.9242 59.1227 87.8363V74.2158C59.1227 74.138 59.0835 74.1025 59.005 74.1093C56.5111 74.3451 47.5023 75.2707 47.4333 75.3798C47.3855 75.4575 47.4043 75.515 47.4895 75.5522L50.3185 76.7644ZM50.426 116.016C50.4259 116.028 50.4284 116.04 50.4334 116.051C50.4384 116.062 50.4457 116.072 50.4549 116.081C50.4641 116.089 50.475 116.095 50.4867 116.098C50.4985 116.102 50.5109 116.103 50.5232 116.102L59.4296 115.128C59.4505 115.126 59.4697 115.116 59.4838 115.1C59.4979 115.085 59.5059 115.065 59.5064 115.044V98.8271C59.5061 98.8112 59.5015 98.7957 59.4929 98.7822C59.4843 98.7688 59.4722 98.758 59.4578 98.751L56.0967 97.1052C56.0816 97.098 56.0647 97.0954 56.0481 97.0976L50.5027 97.7113C50.4819 97.7137 50.4626 97.7235 50.4485 97.7389C50.4345 97.7542 50.4264 97.7742 50.426 97.7949V116.016ZM146.397 97.6631C147.108 98.1348 147.914 98.6741 148.814 99.281C149.198 99.5397 149.034 99.6715 149.034 100.019C149.029 107.209 149.03 114.395 149.037 121.577C149.037 121.594 149.034 121.61 149.028 121.626C149.021 121.641 149.011 121.655 148.999 121.666C148.987 121.677 148.972 121.686 148.956 121.691C148.94 121.696 148.923 121.698 148.906 121.696L141.427 120.9C141.374 120.894 141.325 120.869 141.289 120.829C141.253 120.79 141.233 120.738 141.233 120.684C141.233 105.372 141.231 90.0324 141.228 74.6646C141.226 74.2893 141.141 73.9326 140.972 73.5945C140.099 71.8497 139.245 70.0788 138.411 68.2817C138.406 68.2687 138.403 68.2545 138.405 68.2405C138.406 68.2264 138.411 68.2129 138.419 68.2013C138.428 68.1898 138.439 68.1806 138.452 68.1747C138.465 68.1688 138.479 68.1663 138.493 68.1675L148.906 69.2529C148.992 69.2614 149.034 69.3087 149.034 69.3949L149.032 90.6436C149.032 90.7467 149.084 90.805 149.188 90.8186L154.861 91.5337C154.945 91.5438 155.023 91.5278 155.096 91.4855L157.644 90.0172C157.741 89.9597 157.79 89.876 157.79 89.7661L157.798 70.531C157.798 70.5131 157.802 70.4954 157.809 70.4791C157.817 70.4628 157.828 70.4484 157.841 70.4369C157.855 70.4253 157.871 70.4168 157.888 70.4121C157.905 70.4073 157.923 70.4064 157.941 70.4093L165.453 71.515C165.54 71.5285 165.584 71.5792 165.586 71.6671C165.607 82.0307 165.606 88.6841 165.584 91.6275C165.576 92.6977 165.062 93.3672 164.051 93.8313C162.755 94.4247 161.454 95.0113 160.148 95.5912C160.131 95.5987 160.117 95.6104 160.106 95.6253C160.095 95.6402 160.088 95.6578 160.086 95.6761C160.084 95.6944 160.088 95.7128 160.095 95.7295C160.103 95.7463 160.115 95.7607 160.13 95.7713C161.425 96.6538 162.698 97.554 163.949 98.472C165.279 99.4475 165.955 100.77 165.975 102.438C166.014 105.647 166.036 108.855 166.041 112.062C166.043 114.346 165.974 116.033 165.834 117.121C164.827 124.934 160.455 130.31 152.72 133.25C152.678 133.266 152.632 133.267 152.589 133.252C152.547 133.237 152.511 133.208 152.489 133.169C152.467 133.13 152.46 133.084 152.469 133.04C152.478 132.996 152.503 132.957 152.539 132.93C156.956 129.55 157.682 123.028 158.038 117.956C158.429 112.377 158.186 106.585 158.171 100.983C158.171 100.9 158.137 100.833 158.069 100.782C157.122 100.103 155.268 98.4365 154.173 98.2945C151.668 97.9699 149.111 97.6639 146.502 97.3765C146.072 97.3292 146.037 97.4247 146.397 97.6631Z" fill="#1D1D1D"/>
<path d="M187.4 119.929V111.375C187.4 111.304 187.378 111.241 187.333 111.185C182.542 105.115 177.721 99.0722 172.871 93.0553C171.462 91.308 170.769 89.2843 170.771 86.9411C170.776 83.477 170.776 80.0155 170.771 76.5565C170.769 73.9039 172.771 71.7077 175.352 71.3274C176.14 71.2107 177.522 71.3476 179.499 71.7382C186.164 73.0552 192.842 74.4888 199.532 76.0391C199.591 76.0529 199.645 76.0864 199.683 76.1343C199.721 76.1822 199.742 76.2416 199.742 76.3029V97.1483C199.742 97.1622 199.738 97.1759 199.731 97.1878C199.724 97.1996 199.713 97.2091 199.7 97.2152C199.687 97.2213 199.673 97.2237 199.658 97.2222C199.644 97.2207 199.63 97.2153 199.619 97.2066L187.755 88.2852C187.692 88.2379 187.66 88.1745 187.658 88.095L187.587 83.5861C187.585 83.4982 187.54 83.4449 187.451 83.4263L183.279 82.5793C183.256 82.5748 183.232 82.5755 183.209 82.5813C183.186 82.5872 183.164 82.598 183.146 82.613C183.127 82.6281 183.113 82.6469 183.103 82.6683C183.092 82.6896 183.087 82.713 183.087 82.7365L183.036 88.3587C183.036 88.4365 183.061 88.5058 183.11 88.5667C187.425 93.9074 191.705 99.2743 195.951 104.667C198.128 107.437 199.726 109.983 199.734 113.624C199.744 117.837 199.747 122.05 199.742 126.261C199.739 130.138 196.695 132.228 192.879 131.358C188.21 130.293 182.929 129.212 177.035 128.115C174.667 127.673 171.935 125.17 171.165 122.807C170.906 122.017 170.776 120.588 170.776 118.519C170.773 113.455 170.772 108.405 170.774 103.369C170.774 103.351 170.779 103.334 170.788 103.319C170.798 103.304 170.811 103.292 170.826 103.283C170.842 103.275 170.859 103.272 170.877 103.273C170.894 103.274 170.911 103.28 170.925 103.29L182.808 111.692C182.928 111.776 182.988 111.891 182.988 112.037V119.026C182.988 119.107 183.027 119.155 183.105 119.17L187.267 120.035C187.356 120.054 187.4 120.018 187.4 119.929ZM188.428 121.45L181.929 120.106C181.867 120.094 181.836 120.057 181.836 119.995V112.516C181.836 112.41 181.793 112.326 181.706 112.265L172.078 105.446C172.064 105.436 172.047 105.429 172.03 105.428C172.012 105.426 171.995 105.43 171.979 105.438C171.963 105.446 171.95 105.458 171.941 105.473C171.932 105.487 171.927 105.505 171.927 105.522C171.921 110.217 171.921 114.906 171.93 119.589C171.933 120.848 172.001 121.729 172.135 122.231C172.904 125.115 175.598 126.649 178.35 127.181C182.91 128.062 187.46 128.998 191.999 129.989C193.394 130.293 194.431 130.397 195.109 130.301C197.925 129.903 198.591 127.671 198.588 125.12C198.585 121.115 198.589 117.106 198.601 113.094C198.608 110.652 197.45 108.37 195.971 106.473C191.4 100.605 186.762 94.7831 182.059 89.0079C181.996 88.9285 181.964 88.8389 181.964 88.7391V81.3139C181.964 81.1837 182.029 81.1321 182.159 81.1592L188.692 82.5134C188.768 82.5286 188.807 82.5759 188.807 82.6554V87.636C188.807 87.6604 188.812 87.6846 188.823 87.7066C188.835 87.7286 188.851 87.7479 188.871 87.7628L198.483 94.9877C198.555 95.0401 198.591 95.0223 198.591 94.9344V77.1347C198.591 77.04 198.544 76.9825 198.45 76.9622C191.736 75.4153 184.999 73.9825 178.238 72.6638C174.501 71.9334 171.889 73.597 171.912 77.548C171.932 80.7078 171.934 83.8701 171.917 87.035C171.907 89.0967 172.482 90.8338 173.705 92.3528C178.672 98.527 183.612 104.73 188.523 110.962C188.584 111.041 188.615 111.131 188.615 111.23V121.298C188.615 121.425 188.553 121.476 188.428 121.45ZM4.34362 83.6165C3.02035 81.1499 1.66638 78.6951 0.281725 76.2522C0.230568 76.1609 0.255294 76.1017 0.355904 76.0746C0.685868 75.9859 1.13349 75.9326 1.37393 75.8743C7.93742 74.2648 14.5435 72.8515 21.1923 71.6342C27.28 70.5209 31.9532 73.772 32.7641 79.7923C32.851 80.4415 32.8954 81.4559 32.8971 82.8355C32.9124 93.4424 32.9116 104.05 32.8945 114.659C32.8928 115.748 32.7172 116.932 32.3676 118.212C31.0835 122.906 27.5767 126.441 22.9572 127.935C21.9375 128.264 20.569 128.496 18.8518 128.629C17.1176 128.766 15.2171 128.713 13.5545 129.241C10.5464 130.192 7.55374 131.19 4.57638 132.233C4.49112 132.262 4.44849 132.232 4.44849 132.144C4.44678 116.214 4.44678 100.284 4.44849 84.3545C4.44849 83.9944 4.41353 83.7484 4.34362 83.6165ZM5.49721 82.9267C5.52279 82.9741 5.53558 83.024 5.53558 83.0764V130.572C5.53558 130.658 5.57736 130.688 5.66092 130.661C8.1574 129.817 10.6598 128.985 13.1683 128.165C16.2198 127.166 19.7266 127.767 22.6937 126.837C28.2673 125.087 31.6949 120.175 31.7128 114.339C31.7452 103.557 31.7571 92.7738 31.7486 81.991C31.7435 75.608 27.5204 71.6291 21.0746 72.8185C14.7533 73.985 8.46945 75.3274 2.22315 76.8456C2.13959 76.8658 2.11913 76.914 2.16176 76.9901L5.49721 82.9267Z" fill="#DCCFAC"/>
<path d="M82.3795 82.8614C82.3641 81.2156 82.4204 79.6712 82.3513 77.9366C82.093 71.5283 86.7304 72.322 91.2194 72.1623C91.3166 72.1589 91.3652 72.2054 91.3652 72.3018L91.355 87.9891C91.355 88.0082 91.3476 88.0265 91.3342 88.0402C91.3208 88.0539 91.3026 88.062 91.2834 88.0626L82.5253 88.3188C82.4605 88.3205 82.4247 88.2883 82.4178 88.2224C82.2669 86.4244 82.3923 84.3602 82.3795 82.8614ZM83.354 87.1522C83.354 87.2114 83.3838 87.2401 83.4435 87.2384L90.1989 87.028C90.2858 87.0263 90.3293 86.9815 90.3293 86.8936V73.3922C90.3293 73.3111 90.2884 73.2705 90.2065 73.2705C87.0194 73.2274 83.3591 72.8419 83.3591 77.1277C83.3591 80.3077 83.3574 83.6492 83.354 87.1522ZM188.615 121.299V111.231C188.615 111.131 188.585 111.042 188.523 110.962C183.612 104.731 178.673 98.5276 173.706 92.3534C172.483 90.8344 171.907 89.0973 171.918 87.0356C171.935 83.8707 171.933 80.7084 171.912 77.5486C171.889 73.5976 174.501 71.934 178.238 72.6644C184.999 73.9831 191.737 75.4159 198.45 76.9628C198.544 76.9831 198.591 77.0406 198.591 77.1353V94.935C198.591 95.0229 198.555 95.0407 198.484 94.9883L188.871 87.7634C188.851 87.7485 188.835 87.7292 188.824 87.7072C188.813 87.6852 188.807 87.661 188.807 87.6366V82.656C188.807 82.5765 188.769 82.5292 188.692 82.514L182.159 81.1598C182.03 81.1327 181.965 81.1843 181.965 81.3145V88.7397C181.965 88.8395 181.996 88.9291 182.06 89.0085C186.763 94.7837 191.4 100.605 195.972 106.474C197.45 108.37 198.609 110.653 198.601 113.095C198.589 117.107 198.585 121.115 198.588 125.12C198.591 127.671 197.926 129.903 195.11 130.301C194.431 130.398 193.394 130.294 191.999 129.989C187.46 128.999 182.91 128.063 178.351 127.182C175.598 126.65 172.905 125.115 172.135 122.232C172.002 121.73 171.934 120.849 171.93 119.589C171.922 114.906 171.921 110.217 171.928 105.523C171.928 105.505 171.932 105.488 171.942 105.473C171.951 105.458 171.964 105.446 171.98 105.438C171.995 105.43 172.013 105.427 172.03 105.428C172.048 105.43 172.065 105.436 172.079 105.447L181.707 112.266C181.793 112.327 181.837 112.41 181.837 112.517V119.995C181.837 120.058 181.868 120.095 181.929 120.107L188.429 121.451C188.553 121.476 188.615 121.425 188.615 121.299ZM178.072 79.4024C178.459 79.4294 179.016 79.5114 179.745 79.6484C183.063 80.2773 186.378 80.9561 189.69 81.6847C189.711 81.6888 189.73 81.7002 189.744 81.7168C189.758 81.7334 189.766 81.7544 189.766 81.776V87.0635C189.766 87.1265 189.781 87.1886 189.81 87.2449C189.838 87.3013 189.879 87.3503 189.93 87.3881L197.402 93.0026C197.417 93.0143 197.436 93.0214 197.456 93.0231C197.476 93.0249 197.495 93.0213 197.513 93.0126C197.531 93.004 197.546 92.9907 197.556 92.9741C197.567 92.9576 197.573 92.9385 197.573 92.919L197.565 77.9493C197.565 77.8496 197.517 77.7887 197.419 77.7667C191.134 76.3229 184.829 74.9865 178.504 73.7574C176.297 73.3314 174.225 73.4505 173.294 75.6416C173.052 76.2096 172.933 77.1302 172.938 78.4032C172.95 81.4988 172.954 84.5943 172.951 87.6898C172.948 89.82 174.13 91.4025 175.404 92.9849C180.165 98.8919 184.883 104.833 189.557 110.807C189.611 110.877 189.638 110.955 189.638 111.043V122.607C189.638 122.625 189.634 122.642 189.627 122.658C189.619 122.674 189.608 122.688 189.595 122.699C189.581 122.71 189.565 122.718 189.548 122.722C189.531 122.727 189.513 122.727 189.495 122.724L180.906 120.954C180.802 120.932 180.75 120.868 180.75 120.764V112.879C180.75 112.79 180.713 112.719 180.64 112.666L173.148 107.359C173.129 107.345 173.106 107.337 173.083 107.335C173.059 107.334 173.036 107.339 173.015 107.349C172.994 107.36 172.976 107.376 172.964 107.396C172.952 107.416 172.946 107.439 172.946 107.463C172.941 111.963 172.959 116.449 173 120.921C173.033 124.42 176.013 125.688 178.936 126.254C182.163 126.878 186.821 127.844 192.913 129.152C195.094 129.622 196.528 129.032 197.215 127.382C197.459 126.797 197.579 125.868 197.576 124.595C197.565 120.491 197.562 116.387 197.565 112.283C197.568 110.153 195.811 107.701 194.411 105.926C189.991 100.32 185.529 94.7431 181.024 89.1962C180.969 89.1303 180.942 89.0542 180.942 88.968V81.8597C180.942 81.7532 180.898 81.667 180.811 81.6011L178.039 79.4886C177.955 79.4227 177.966 79.3939 178.072 79.4024ZM5.49769 82.9273L2.16223 76.9907C2.1196 76.9146 2.14006 76.8665 2.22362 76.8462C8.46993 75.328 14.7538 73.9856 21.0751 72.8191C27.5209 71.6297 31.7439 75.6086 31.7491 81.9916C31.7576 92.7744 31.7457 103.557 31.7133 114.34C31.6953 120.175 28.2678 125.087 22.6942 126.837C19.7271 127.768 16.2203 127.167 13.1687 128.166C10.6603 128.986 8.15787 129.818 5.66139 130.661C5.57783 130.688 5.53605 130.659 5.53605 130.573V83.077C5.53605 83.0246 5.52326 82.9747 5.49769 82.9273ZM29.7207 97.225C29.5996 97.1252 29.5962 97.0204 29.7104 96.9105C30.2476 96.3932 30.662 95.9925 30.6645 95.1836C30.6765 90.6425 30.6782 86.104 30.6696 81.5681C30.6569 75.7506 26.2829 72.8926 20.7733 73.9248C15.1408 74.9814 9.52803 76.1632 3.93483 77.47C3.82058 77.4971 3.79159 77.5613 3.84786 77.6627C4.65103 79.1268 5.4704 80.596 6.30597 82.0702C6.47479 82.3678 6.5592 82.6881 6.5592 83.0313V129.229C6.55945 129.238 6.56199 129.248 6.56661 129.256C6.57123 129.264 6.57781 129.272 6.58579 129.277C6.59377 129.283 6.60294 129.286 6.61255 129.287C6.62215 129.289 6.63192 129.288 6.64105 129.284C8.89879 128.51 11.1642 127.757 13.4373 127.025C15.4913 126.363 18.0798 126.469 20.2438 126.287C25.1702 125.871 29.1938 122.229 30.3039 117.667C30.5511 116.653 30.6731 114.972 30.6696 112.626C30.6645 107.806 30.6645 102.981 30.6696 98.1506C30.6696 98.0542 30.6321 97.9756 30.5571 97.9148L29.7207 97.225Z" fill="#AD192E"/>
<path d="M83.3535 87.1513C83.3569 83.6483 83.3586 80.3068 83.3586 77.1267C83.3586 72.841 87.0189 73.2264 90.206 73.2695C90.2879 73.2695 90.3288 73.3101 90.3288 73.3913V86.8926C90.3288 86.9805 90.2853 87.0253 90.1984 87.027L83.443 87.2375C83.3834 87.2392 83.3535 87.2104 83.3535 87.1513ZM89.1343 85.8123L89.1087 74.5831C89.1087 74.5659 89.1053 74.5489 89.0985 74.5331C89.0918 74.5172 89.082 74.5028 89.0696 74.4908C89.0572 74.4787 89.0425 74.4693 89.0264 74.4629C89.0103 74.4566 88.993 74.4535 88.9757 74.4538C87.0957 74.4969 84.5531 74.1191 84.5301 76.8173C84.5045 79.8486 84.4994 82.8926 84.5148 85.9492C84.5148 86.0202 84.5506 86.054 84.6222 86.0507L89.0499 85.8985C89.1062 85.8968 89.1343 85.8681 89.1343 85.8123Z" fill="#DCCFAC"/>
<path d="M178.038 79.4879L180.811 81.6003C180.898 81.6663 180.941 81.7525 180.941 81.859V88.9672C180.941 89.0535 180.968 89.1295 181.023 89.1955C185.528 94.7424 189.991 100.319 194.411 105.925C195.81 107.7 197.567 110.152 197.565 112.283C197.561 116.386 197.565 120.49 197.575 124.595C197.578 125.868 197.458 126.797 197.214 127.382C196.527 129.032 195.093 129.622 192.912 129.152C186.821 127.843 182.162 126.877 178.936 126.253C176.012 125.688 173.032 124.42 172.999 120.92C172.958 116.448 172.94 111.962 172.945 107.462C172.945 107.439 172.951 107.416 172.964 107.396C172.976 107.376 172.993 107.359 173.014 107.349C173.035 107.338 173.059 107.333 173.082 107.335C173.105 107.336 173.128 107.344 173.147 107.358L180.639 112.666C180.713 112.718 180.749 112.789 180.749 112.879V120.763C180.749 120.868 180.801 120.931 180.905 120.953L189.495 122.723C189.512 122.727 189.53 122.726 189.547 122.722C189.564 122.717 189.58 122.709 189.594 122.698C189.608 122.687 189.619 122.673 189.626 122.657C189.634 122.641 189.638 122.624 189.638 122.606V111.043C189.638 110.955 189.611 110.876 189.556 110.807C184.882 104.832 180.164 98.8912 175.403 92.9842C174.129 91.4017 172.948 89.8193 172.95 87.6891C172.954 84.5936 172.949 81.498 172.937 78.4025C172.932 77.1295 173.051 76.2089 173.293 75.6409C174.224 73.4498 176.296 73.3306 178.503 73.7567C184.828 74.9858 191.133 76.3222 197.419 77.766C197.516 77.788 197.565 77.8488 197.565 77.9486L197.572 92.9182C197.572 92.9378 197.566 92.9569 197.556 92.9734C197.545 92.9899 197.53 93.0033 197.512 93.0119C197.495 93.0205 197.475 93.0242 197.455 93.0224C197.436 93.0207 197.417 93.0136 197.401 93.0019L189.929 87.3874C189.879 87.3496 189.837 87.3005 189.809 87.2442C189.78 87.1879 189.766 87.1257 189.766 87.0627V81.7753C189.765 81.7537 189.758 81.7327 189.744 81.7161C189.73 81.6994 189.71 81.6881 189.689 81.684C186.377 80.9554 183.062 80.2766 179.744 79.6477C179.016 79.5107 178.458 79.4287 178.071 79.4017C177.965 79.3932 177.954 79.422 178.038 79.4879ZM29.72 97.2243L30.5564 97.914C30.6315 97.9749 30.669 98.0535 30.669 98.1499C30.6639 102.98 30.6639 107.805 30.669 112.625C30.6724 114.972 30.5505 116.652 30.3032 117.666C29.1931 122.229 25.1696 125.87 20.2431 126.286C18.0792 126.469 15.4906 126.362 13.4366 127.024C11.1635 127.756 8.89812 128.509 6.64038 129.284C6.63125 129.287 6.62148 129.288 6.61187 129.287C6.60227 129.285 6.5931 129.282 6.58512 129.276C6.57713 129.271 6.57056 129.264 6.56594 129.255C6.56132 129.247 6.55878 129.237 6.55853 129.228V83.0306C6.55853 82.6874 6.47412 82.367 6.3053 82.0695C5.46973 80.5953 4.65036 79.1261 3.84719 77.662C3.79092 77.5606 3.81991 77.4963 3.93416 77.4693C9.52736 76.1624 15.1402 74.9807 20.7726 73.924C26.2822 72.8919 30.6562 75.7499 30.669 81.5674C30.6775 86.1033 30.6758 90.6418 30.6639 95.1828C30.6613 95.9918 30.2469 96.3925 29.7098 96.9098C29.5955 97.0197 29.5989 97.1245 29.72 97.2243ZM14.2731 82.6172C14.2985 82.6261 14.3204 82.6426 14.336 82.6644C14.3516 82.6862 14.36 82.7123 14.36 82.739V121.871C14.3602 121.881 14.3625 121.89 14.3667 121.899C14.3709 121.907 14.3769 121.915 14.3843 121.921C14.3917 121.926 14.4002 121.93 14.4093 121.932C14.4184 121.934 14.4278 121.934 14.4368 121.932C18.7544 121.06 22.9954 120.895 22.9954 115.359L22.9903 84.8692C22.9903 82.7009 22.8854 80.624 20.5961 80.0712C19.914 79.9072 18.7058 79.9942 16.9716 80.3324C15.1248 80.6925 13.284 81.072 11.4492 81.471C11.4299 81.4744 11.4124 81.4841 11.3994 81.4985C11.3864 81.513 11.3787 81.5314 11.3775 81.5507C11.3763 81.57 11.3817 81.5892 11.3929 81.6051C11.404 81.621 11.4203 81.6327 11.4389 81.6384L14.2731 82.6172Z" fill="#1D1D1D"/>
<path d="M50.3192 76.7653L47.4902 75.5531C47.4049 75.5159 47.3862 75.4585 47.4339 75.3807C47.503 75.2716 56.5118 74.346 59.0057 74.1102C59.0841 74.1034 59.1234 74.1389 59.1234 74.2167V87.8372C59.1234 87.9251 59.0893 87.997 59.021 88.0528L56.4146 90.1348C56.3481 90.1872 56.2722 90.2185 56.1869 90.2286L50.575 90.8474C50.4761 90.8575 50.4266 90.8127 50.4266 90.713V76.9276C50.4266 76.8498 50.3908 76.7957 50.3192 76.7653ZM52.0023 75.8498C51.8369 75.8684 51.6979 75.9115 51.5853 75.9792C51.5359 76.0079 51.5112 76.0502 51.5112 76.106L51.5137 89.5566C51.5137 89.6496 51.5597 89.691 51.6518 89.6809C52.8898 89.5456 54.1296 89.4078 55.371 89.2675C56.3737 89.1534 57.2894 88.2404 57.9979 87.5836C58.0661 87.5194 58.1002 87.4408 58.1002 87.3478V75.4162C58.1002 75.3266 58.0559 75.2852 57.9672 75.2919C55.9653 75.4289 53.9769 75.6148 52.0023 75.8498Z" fill="#AD192E"/>
<path d="M52.0019 75.8496C53.9765 75.6146 55.9648 75.4287 57.9668 75.2917C58.0555 75.285 58.0998 75.3264 58.0998 75.416V87.3476C58.0998 87.4406 58.0657 87.5192 57.9975 87.5834C57.289 88.2402 56.3732 89.1532 55.3706 89.2673C54.1291 89.4076 52.8894 89.5454 51.6514 89.6807C51.5593 89.6908 51.5133 89.6494 51.5133 89.5564L51.5107 76.1058C51.5107 76.05 51.5355 76.0077 51.5849 75.979C51.6975 75.9113 51.8364 75.8682 52.0019 75.8496ZM56.8388 76.5242L52.8613 76.9502C52.73 76.9638 52.6643 77.0365 52.6643 77.1683V88.2859C52.6643 88.3772 52.7104 88.4169 52.8025 88.4051C54.4395 88.1921 55.6929 88.3417 56.8618 86.9951C56.913 86.9359 56.9385 86.8675 56.9385 86.7897L56.9692 76.6408C56.9692 76.5546 56.9257 76.5157 56.8388 76.5242Z" fill="#DCCFAC"/>
<path d="M14.2736 82.6186L11.4395 81.6397C11.4208 81.6341 11.4046 81.6224 11.3935 81.6065C11.3823 81.5905 11.3769 81.5714 11.3781 81.5521C11.3793 81.5327 11.387 81.5143 11.4 81.4999C11.413 81.4854 11.4305 81.4757 11.4497 81.4724C13.2846 81.0734 15.1254 80.6938 16.9722 80.3337C18.7064 79.9956 19.9146 79.9085 20.5967 80.0725C22.886 80.6254 22.9908 82.7023 22.9908 84.8705L22.996 115.36C22.996 120.896 18.755 121.061 14.4373 121.933C14.4284 121.936 14.419 121.936 14.4099 121.934C14.4008 121.932 14.3922 121.928 14.3849 121.922C14.3775 121.916 14.3715 121.909 14.3673 121.9C14.3631 121.891 14.3608 121.882 14.3606 121.872V82.7403C14.3606 82.7136 14.3522 82.6876 14.3366 82.6658C14.321 82.644 14.299 82.6275 14.2736 82.6186ZM15.3965 120.604C15.3951 120.615 15.3962 120.626 15.3998 120.635C15.4033 120.645 15.4092 120.654 15.417 120.662C15.4248 120.669 15.4342 120.674 15.4444 120.677C15.4546 120.68 15.4654 120.68 15.4758 120.678C17.8035 120.239 21.7682 119.968 21.8884 116.504C21.9293 115.342 21.9515 113.962 21.9549 112.363C21.9805 101.815 21.9617 92.4741 21.8986 84.3405C21.8901 83.2348 21.7554 82.4673 21.4945 82.0379C20.4355 80.2957 17.228 81.2923 15.5526 81.66C15.4656 81.6786 15.4204 81.7319 15.417 81.8198C15.4016 82.2424 15.3931 82.6651 15.3914 83.0878C15.3863 95.382 15.3837 107.676 15.3837 119.97C15.4281 119.989 15.4323 120.2 15.3965 120.604Z" fill="#AD192E"/>
<path d="M15.3966 120.604C15.4324 120.2 15.4281 119.988 15.3838 119.97C15.3838 107.675 15.3863 95.3812 15.3915 83.0869C15.3932 82.6643 15.4017 82.2416 15.417 81.8189C15.4205 81.731 15.4656 81.6778 15.5526 81.6592C17.228 81.2915 20.4356 80.2948 21.4945 82.037C21.7554 82.4665 21.8901 83.234 21.8987 84.3397C21.9618 92.4733 21.9805 101.814 21.9549 112.362C21.9515 113.961 21.9294 115.342 21.8884 116.503C21.7682 119.967 17.8035 120.238 15.4759 120.677C15.4655 120.679 15.4547 120.679 15.4444 120.676C15.4342 120.673 15.4248 120.668 15.417 120.661C15.4093 120.654 15.4034 120.645 15.3998 120.635C15.3962 120.625 15.3951 120.614 15.3966 120.604ZM20.7553 116.13C20.7553 105.403 20.9165 94.6407 20.7527 83.9187C20.7144 81.4512 18.2639 82.212 16.6576 82.6152C16.5758 82.6355 16.5348 82.6871 16.5348 82.7699V119.148C16.535 119.164 16.5387 119.18 16.5456 119.195C16.5526 119.21 16.5626 119.223 16.5751 119.233C16.5875 119.244 16.602 119.251 16.6176 119.255C16.6332 119.259 16.6495 119.26 16.6653 119.257C18.6783 118.894 20.7553 118.768 20.7553 116.13Z" fill="#DCCFAC"/>
<path d="M39.8655 95.42L36.7201 92.7377C36.6762 92.7003 36.61 92.7052 36.5722 92.7487L33.4164 96.3863C33.3786 96.4298 33.3836 96.4955 33.4275 96.5329L36.5729 99.2152C36.6168 99.2526 36.6831 99.2477 36.7208 99.2042L39.8766 95.5666C39.9144 95.5231 39.9094 95.4574 39.8655 95.42Z" fill="#AD192E"/>
<path d="M50.4258 116.017V97.7958C50.4263 97.775 50.4343 97.7551 50.4484 97.7397C50.4625 97.7243 50.4817 97.7145 50.5025 97.7121L56.048 97.0984C56.0646 97.0962 56.0814 97.0989 56.0966 97.106L59.4576 98.7518C59.472 98.7588 59.4841 98.7696 59.4927 98.7831C59.5013 98.7965 59.506 98.812 59.5062 98.8279V115.045C59.5057 115.066 59.4977 115.086 59.4836 115.101C59.4695 115.117 59.4503 115.126 59.4295 115.129L50.523 116.103C50.5107 116.104 50.4983 116.103 50.4866 116.099C50.4748 116.096 50.464 116.09 50.4548 116.081C50.4456 116.073 50.4382 116.063 50.4332 116.052C50.4282 116.041 50.4257 116.029 50.4258 116.017ZM55.3215 98.232C54.1526 98.3131 52.7713 98.412 51.6331 98.6605C51.5512 98.6774 51.5103 98.7273 51.5103 98.8101L51.5129 114.771C51.5129 114.874 51.5649 114.92 51.6689 114.908L58.3705 114.193C58.4455 114.186 58.4831 114.146 58.4831 114.071V99.6267C58.4831 99.532 58.4404 99.4644 58.3552 99.4238C57.5443 99.0232 56.2142 98.1711 55.3215 98.232Z" fill="#AD192E"/>
<path d="M51.6335 98.6602C52.7718 98.4117 54.153 98.3128 55.322 98.2316C56.2147 98.1707 57.5447 99.0228 58.3556 99.4235C58.4409 99.4641 58.4835 99.5317 58.4835 99.6264V114.071C58.4835 114.145 58.446 114.186 58.3709 114.193L51.6693 114.908C51.5653 114.92 51.5133 114.874 51.5133 114.771L51.5107 98.8098C51.5107 98.727 51.5517 98.6771 51.6335 98.6602ZM55.524 99.4336C55.1455 99.2713 53.3012 99.6036 52.8255 99.6847C52.7181 99.7033 52.6643 99.7667 52.6643 99.8749L52.6618 113.455C52.6618 113.572 52.7206 113.624 52.8383 113.612L57.2966 113.148C57.324 113.145 57.3495 113.133 57.368 113.112C57.3864 113.091 57.3966 113.064 57.3964 113.036V100.458C57.3964 100.377 57.3597 100.317 57.2864 100.278C56.7049 99.967 56.1175 99.6855 55.524 99.4336Z" fill="#DCCFAC"/>
</g>
<defs>
<clipPath id="clip0_18_1250">
<rect width="200" height="200" fill="white"/>
</clipPath>
</defs>
</svg>
