<svg width="200" height="200" viewBox="0 0 200 200" fill="none" xmlns="http://www.w3.org/2000/svg">
<g clip-path="url(#clip0_18_1241)">
<mask id="mask0_18_1241" style="mask-type:luminance" maskUnits="userSpaceOnUse" x="0" y="14" width="222" height="172">
<path d="M0 14V185.55H205.455C205.418 185.196 205.425 184.747 205.38 184.484C205.322 184.13 205.178 182.968 205.046 181.703C204.774 180.546 204.335 179.399 204.425 178.224C204.509 177.12 204.754 175.837 205.178 174.597C204.557 172.962 203.739 170.391 206.129 172.298C206.061 172.121 205.998 171.952 206.135 171.904C206.299 171.848 206.463 171.8 206.629 171.752C206.983 171.272 207.384 170.843 207.836 170.481C207.849 170.262 207.869 170.043 207.897 169.825C207.952 169.4 208.091 168.971 208.333 168.617C208.879 167.824 209.52 167.096 210.222 166.442C210.424 166.255 210.719 166.215 210.982 166.147C212.269 165.818 212.128 165.874 213.195 165.929L213.256 165.937L213.584 165.371C214.016 164.636 214.581 163.974 215.2 163.388C215.604 163.004 216.043 162.345 216.558 162.302C216.634 162.297 216.71 162.302 216.785 162.322C219.507 163.09 220.044 163.787 221.153 165.164L221.281 165.449L221.395 165.692V14H0Z" fill="white"/>
</mask>
<g mask="url(#mask0_18_1241)">
<path d="M73.2278 159.788L99.6264 115.429C100.316 118.155 101.701 123.581 101.911 124.415C100.555 126.752 80.1399 162.092 80.1399 162.092C80.1399 162.092 110.26 137.187 111.643 136.048C112.15 136.651 133.962 163.13 133.962 163.13C133.962 163.13 123.705 128.853 123.011 126.517C123.536 125.683 126.959 120.211 129.125 116.733L138.463 159.872L119.805 185.55H200L161.671 14L108.328 14.0328L0 185.55H85.4842L73.2278 159.788ZM100.573 113.846L117.399 85.5781H122.38L128.499 113.846H100.573Z" fill="#E3D4AD"/>
<path d="M116.311 20.7493H156.031L191.21 178.787H134.06L146.829 161.498L128.499 79.4643L113.347 79.4516L64.4552 159.937L73.5762 178.716H16.9519L11.3955 182.162H79.6804L68.8756 159.869L115.245 82.4855H125.346L142.856 160.642L127.126 182.172H195.643L158.987 17.2834L114.018 17.248L116.311 20.7493Z" fill="black"/>
<path d="M57.2306 149.937L63.1505 146.195L52.6209 121.121L86.1638 100.093L74.637 79.4068L107.082 63.7397L96.6076 45.2787L121.587 34.1713L112.464 20.75L110.346 17.6504L6.17285 182.104L57.2306 149.937Z" fill="black"/>
<path d="M105.645 124.93L92.8535 147.051C92.8535 147.051 109.72 133.104 112.113 131.131L125.679 147.587L119.222 126.001L124.642 117.344H103.714C103.714 117.344 105.287 123.548 105.645 124.93Z" fill="#A71930"/>
<path d="M64.4554 159.938L113.347 79.4523L128.499 79.465L146.829 161.499L134.061 178.788H191.21L156.031 20.75H116.311L126.101 35.7906L101.424 46.898L112.05 65.3136L79.6276 80.8442L90.4778 100.972L56.9224 122.136L67.2576 147.506L16.9521 178.717H73.5764L64.4554 159.938Z" fill="#A71930"/>
</g>
</g>
<defs>
<clipPath id="clip0_18_1241">
<rect width="200" height="200" fill="white"/>
</clipPath>
</defs>
</svg>
