<svg width="200" height="200" viewBox="0 0 200 200" fill="none" xmlns="http://www.w3.org/2000/svg">
<g clip-path="url(#clip0_18_1240)">
<path d="M128.913 125.575C110.113 129.037 99.8053 128.842 83.8678 133.28C70.1926 161.613 55.5536 186.206 34.6359 186.487C7.01755 186.866 -3.08566 164.75 0.800429 151.545C3.66829 141.816 6.24875 142.108 6.24875 147.534C6.24875 150.471 13.9983 167.394 33.476 166.432C43.2333 165.968 51.2272 156.457 59.4961 142.107C53.7353 144.569 48.0248 147.147 42.368 149.839C37.8414 151.996 37.4976 151.252 38.3587 147.534C38.9931 144.802 45.6516 128.709 71.0477 120.101C90.1753 81.8153 115.022 29.6451 165.915 3.18875C168.471 1.85875 177.832 -4.93273 170.803 6.62704C147.292 45.2512 140.266 79.023 141.391 105.578C160.118 98.7863 170.265 88.8498 171.95 74.2065C172.622 68.4641 174.202 68.3789 177.399 71.9269C181.14 76.0728 189.103 108.345 143.27 122.184C148.97 152.762 165.615 169.892 174.531 168.454C183.776 166.929 190.872 157.004 189.439 142.959C188.602 134.79 191.685 137.838 194.588 140.68C203.21 148.97 202.479 175.672 185.43 183.061C160.821 193.693 137.528 168.455 128.913 125.575ZM127.521 57.6036C113.835 69.673 102.961 92.4378 92.1912 115.529C92.417 115.493 92.612 115.493 92.8307 115.467C105.689 114.078 116.794 112.346 126.557 110.018C124.837 94.0928 124.97 76.3897 127.522 57.6026L127.521 57.6036Z" fill="#13274F"/>
</g>
<defs>
<clipPath id="clip0_18_1240">
<rect width="200" height="200" fill="white"/>
</clipPath>
</defs>
</svg>
