<svg width="200" height="200" viewBox="0 0 200 200" fill="none" xmlns="http://www.w3.org/2000/svg">
<path d="M27.475 64.1974C20.0649 64.3679 15.6445 68.2945 13.2326 71.5717C9.9299 76.0452 8.90692 81.212 9.6003 84.0072L9.96407 85.4741L11.4721 86.0156C12.3893 86.3127 13.3714 86.0849 14.0979 85.4136C16.2916 83.644 17.6188 83.1598 17.9385 83.1246L18.2637 83.1026C14.5102 88.1615 12.236 94.4673 10.0401 100.589C7.74393 107.003 5.5756 113.058 2.08886 116.289L1.00635 117.308L1.26871 118.789C1.55973 120.456 1.77579 124.024 1.62146 127.615C1.59941 128.866 2.16382 129.88 3.11295 130.392C4.06207 130.903 5.18206 130.801 6.09481 130.119C11.9803 125.725 15.9554 113.706 19.4608 103.104C20.9182 98.7163 22.3115 94.5289 23.5969 91.6434C23.429 92.4239 23.432 93.2314 23.6057 94.0106C24.4292 97.1404 27.045 98.7746 30.1349 98.1594C30.1349 98.1594 30.4249 98.0274 30.7644 97.8689C31.7124 99.3204 32.2261 101.415 32.2261 103.72C32.2261 105.513 31.9174 107.43 31.2847 109.228C30.4612 111.561 27.8707 116.979 21.5608 116.838C20.195 116.797 18.7752 116.2 18.4985 116.051C16.8891 115.107 15.424 115.795 14.7659 116.848C14.0847 117.934 14.1442 119.591 15.5706 120.678C15.424 120.548 15.6522 120.757 15.6522 120.757C17.0246 121.987 20.2512 124.895 26.6504 124.644C31.9968 124.416 37.0048 120.645 39.7331 114.999C39.7265 115.067 39.7056 115.148 39.7056 115.22C39.7056 116.051 40.1024 116.666 40.2964 116.905C41.0008 117.833 42.4791 118.499 44.3266 117.355C45.3573 116.712 46.7419 115.795 48.2422 114.429C50.7776 112.096 53.2778 108.9 56.1064 104.346C57.1903 102.57 58.1848 100.741 59.0861 98.8659C59.3903 98.8736 59.7133 98.8549 60.033 98.8384C59.3275 100.904 58.5889 103.402 58.5889 105.775C58.5889 108.421 59.5149 110.863 62.4471 112.183C65.7388 113.674 71.0973 112.434 76.1714 106.993C77.3642 108.57 79.0122 109.599 81.0791 109.799C83.1251 109.866 85.3077 108.864 86.9646 107.693C88.1838 108.569 89.8571 109.411 92.085 109.173C95.3513 108.826 98.5999 106.304 102.017 101.439L104.027 98.3718C106.039 95.2134 109.049 90.5254 111.402 88.0669C111.23 88.5225 111.033 89.0342 110.646 89.6758C108.671 93.0047 106.801 96.4427 106.801 99.4074C106.801 100.106 106.904 100.772 107.134 101.405C107.657 102.862 108.799 103.949 110.338 104.461C116.642 106.55 123.311 101.149 128.408 90.0411C129.051 89.8651 129.682 89.6428 130.304 89.3808C129.58 90.9512 129.11 92.4303 129.11 93.7278C129.11 95.9122 130.007 97.6829 131.237 98.867C134.381 101.905 139.902 101.735 144.006 98.7636C145.767 99.765 147.831 100.381 150.028 100.403C154.774 100.483 158.958 98.3157 161.504 94.4684C164.015 90.6717 164.469 85.7713 162.713 81.3726H162.712C162.086 79.8132 160.291 75.3057 163.061 71.465C164.124 70.1785 163.63 68.7908 163.452 68.4023C163.276 68.016 162.542 66.7362 160.719 66.7703H160.616L160.509 66.7758C154.875 67.3326 151.748 73.9124 148.449 80.8774C148.108 81.5883 147.7 82.3576 147.306 83.1026C147.155 83.074 147.001 83.0178 146.85 83.0002C146.303 82.9452 145.792 83.0057 145.274 83.0575C145.255 82.9661 145.261 82.8869 145.233 82.79C145.118 82.4599 144.849 82.198 144.619 81.9306C145.072 81.8161 145.636 81.6687 145.636 81.6687C147.189 81.2604 147.751 79.6713 147.925 78.989C148.036 78.5334 148.096 78.0778 148.096 77.6277C148.096 76.5987 147.798 75.5918 147.226 74.7268C146.314 73.3435 144.809 72.4213 143.081 72.1935C139.782 71.7555 136.196 74.5221 134.725 78.3012C133.646 79.5323 132.334 80.5377 130.864 81.2593C130.527 78.5675 128.857 76.6273 126.392 76.1893C123.718 75.7172 120.98 77.1853 119.871 79.6779C119.825 79.7747 119.808 79.8771 119.765 79.9915C119.229 79.0693 118.5 78.3012 117.533 77.9193C110.439 75.0801 105.039 83.644 100.275 91.19C98.375 94.2054 96.576 97.0556 94.8574 98.9925C94.7185 99.1631 94.6436 99.1862 94.53 99.2995C94.5697 98.8043 94.6921 98.2012 95.0404 97.4441C95.0779 97.3583 101.548 82.0329 101.548 82.0329L92.6086 82.9265C92.6086 82.9265 92.5006 83.1829 92.4389 83.3645C91.6231 82.9606 90.739 82.6129 89.705 82.483C81.7273 81.4695 76.8163 88.5434 74.8717 95.5083C74.7527 95.8781 74.0637 97.2625 73.4199 98.4059C70.8294 103.009 68.6115 104.284 67.7395 104.369C67.6529 104.081 67.6087 103.782 67.6084 103.481C67.6084 101.038 68.811 96.0773 70.1438 92.7813C70.3499 92.2124 70.4326 91.7062 70.4326 91.2682C70.4326 90.1072 69.8483 89.4029 69.5309 89.1068C68.8408 88.4685 67.6293 88.0482 66.2701 88.7371C64.8878 89.5563 63.3849 90.1531 61.8166 90.5055C61.8364 90.2887 61.8971 90.0378 61.8971 89.8221C61.8971 89.2081 61.8177 88.6446 61.6402 88.1604C60.7881 85.8791 59.0861 84.3769 56.9684 84.0358C54.842 83.7001 52.6626 84.6102 51.2715 86.4029C50.371 87.5706 49.8858 89.0044 49.8924 90.478C49.8924 91.4112 50.0798 92.372 50.4447 93.3283C50.7952 94.2274 51.417 95.077 52.1467 95.8671C51.3137 97.5981 50.4221 99.3004 49.4735 100.971C46.754 105.762 44.2506 109.187 40.8278 112.796C40.6856 112.944 40.5853 113.092 40.4772 113.239C40.5654 112.983 40.6624 112.733 40.7517 112.483C41.4737 110.321 41.8155 108.141 41.8155 105.989C41.8155 101.499 40.2193 97.2097 37.3124 93.6914C41.7879 90.1534 44.5107 85.0317 44.5107 79.6658C44.5107 78.5961 44.384 77.5429 44.18 76.4678C44.8326 76.2686 45.4863 76.0463 46.1918 75.8295C48.6831 75.1912 48.4781 72.9561 48.4494 72.7107C48.412 72.4554 48.0614 70.2522 45.4069 70.2863C44.0951 70.3084 42.8263 70.3942 41.5741 70.5141C38.9416 66.9563 34.3933 64.1787 27.475 64.1974ZM26.829 72.7877C27.1244 72.78 27.4287 72.7822 27.7439 72.7954C28.3414 72.8285 29.2795 73.0166 30.2793 73.4392C26.523 75.1283 23.1509 77.5641 20.3692 80.5979L20.3527 80.2732C20.3207 79.6702 20.2369 76.5063 22.1197 74.5309C23.1813 73.4249 24.7643 72.8439 26.829 72.7877ZM174.274 75.2836L171.809 79.1177C170.444 81.2175 170.273 83.2611 170.159 84.6091C170.159 84.6091 170.102 85.144 170.08 85.3718C169.966 85.4928 169.777 85.6799 169.777 85.6799L168.613 86.9488L168.483 87.1194C166.823 89.185 166.546 90.938 166.546 95.1485L166.524 95.5469L166.259 95.877C164.867 97.6752 164.816 99.8311 164.778 101.412C164.778 101.412 164.715 102.695 164.711 102.717C160.677 103.304 80.8994 114.782 79.1081 115.039C73.9932 115.721 71.6275 119.773 72.0045 123.215C72.6549 129.172 76.8637 130.948 80.5886 130.625C82.9454 130.431 140.909 121.791 161.496 118.719C161.333 119.539 161.209 120.397 161.209 121.314C161.209 122.441 161.404 123.641 161.823 124.876C161.468 125.676 161.231 126.523 161.121 127.392C161.053 127.943 161.024 128.472 161.024 128.951C161.024 132.262 162.432 134.096 163.708 135.073C165.732 136.632 168.445 136.752 171.706 135.603C175.096 136.235 178.825 135.882 182.188 134.602C185.343 135.2 188.563 133.339 190.153 132.377C190.153 132.377 190.192 132.348 190.201 132.348H190.35L192.561 132.291L192.925 132.217C194.377 131.938 197.087 131.43 198.313 128.695C198.641 127.961 198.807 127.165 198.801 126.362C198.801 124.471 197.914 122.884 197.546 122.235C197.555 122.098 197.566 121.99 197.566 121.839C197.566 121.309 197.528 120.65 197.358 119.903C196.913 117.832 195.799 116.319 194.99 115.22L194.348 114.287L194.062 113.581C193.951 113.272 193.815 112.909 193.64 112.516C195.391 111.071 196.104 109.472 196.385 108.39C196.682 107.258 196.674 106.068 196.363 104.94C196.052 103.812 195.449 102.786 194.614 101.965C192.915 100.287 190.395 99.513 187.553 99.7177C187.467 96.0355 185.762 93.9468 184.806 92.8661C184.797 92.6834 184.797 92.4908 184.797 92.4908C184.781 90.3394 184.754 86.3501 181.548 83.1411C180.855 82.4412 180.773 82.2365 180.493 81.5355C180.493 81.5355 180.166 80.763 180.069 80.5517C179.895 80.1192 179.424 79.1188 177.898 77.9809L174.274 75.2836ZM142.394 79.2608C142.474 80.0575 142.831 80.643 143.047 80.8873C143.047 80.8873 143.208 81.059 143.296 81.1503C142.743 81.004 142.165 80.9005 141.437 81.1415C141.415 81.1382 141.381 81.125 141.343 81.1162C141.343 81.0821 141.329 81.0535 141.329 81.0194C141.329 80.4273 141.657 79.8187 142.054 79.4952C142.192 79.3752 142.283 79.3246 142.395 79.2608H142.394ZM34.8486 80.2556C34.8277 81.6797 34.4683 84.7753 32.0354 87.7862L32.0034 87.8193C31.9152 87.9337 31.8017 88.0284 31.6937 88.1208C29.5132 87.0456 27.2159 87.1645 25.4918 88.5423C25.321 88.6842 25.1611 88.8372 25.0101 88.9957C25.0443 88.9506 25.0784 88.8889 25.1027 88.8427L25.6219 88.1208C27.2776 85.8285 29.2189 83.1455 34.8486 80.2556ZM155.6 82.6635C155.697 83.1917 155.822 83.6979 155.822 84.3252C155.822 84.564 155.809 84.8094 155.794 85.0714C155.586 89.4931 152.982 90.9733 150.583 91.4509C152.213 88.9638 153.605 86.3622 154.842 84.0523C155.092 83.5978 155.347 83.1191 155.6 82.6635ZM119.756 86.9378C119.822 87.0852 119.85 87.2448 119.922 87.3813C120.238 87.9623 120.737 88.3563 121.189 88.7822C119.216 92.3621 117.32 94.6764 116.152 95.4225C116.554 93.9479 117.687 91.5752 118.39 90.1127L119.337 88.1208C119.542 87.6828 119.611 87.3472 119.756 86.9378ZM139.222 89.6175C139.156 90.0334 138.964 90.4384 138.964 90.8357C138.964 91.7062 139.129 92.5546 139.4 93.391C138.81 93.5968 138.252 93.687 137.964 93.4361C137.779 93.2711 137.694 93.0157 137.694 92.6746C137.694 92.2234 137.865 91.6324 138.204 90.9887C138.443 90.511 138.803 90.0565 139.222 89.6175ZM87.8817 90.2887C88.0471 90.2887 88.0724 90.3295 88.089 90.3515C88.1827 90.489 88.2687 90.7961 88.2687 91.2968C88.2687 91.9901 88.0923 93.0554 87.5235 94.5465C85.4841 99.8564 84.0588 100.812 83.6685 100.971C83.5693 101.028 83.4723 101.067 83.1989 100.949C83.0589 100.885 82.6599 99.8795 83.0887 97.7225C83.9155 93.6188 86.5809 90.2887 87.8817 90.2887Z" fill="#13274F"/>
<path d="M27.4867 66.9075C15.2837 67.1683 11.2138 79.6027 12.142 83.33C12.1574 83.3982 12.2522 83.4951 12.3514 83.3993C14.6289 81.5505 16.5382 80.5359 17.732 80.439C17.5468 77.1497 18.6878 69.6785 27.8593 70.1011C29.9229 70.1913 33.4395 71.3281 35.6177 74.3501C30.5326 75.773 25.0891 78.6078 20.7315 84.2071C12.885 94.2798 11.4497 111.249 3.85449 118.311C4.20725 120.347 4.40346 124.177 4.24693 127.728C4.23811 128.114 4.44646 128.007 4.5611 127.923C13.1253 121.512 18.098 93.9046 23.0145 87.2048C25.2214 84.2005 27.446 80.4104 36.7322 76.3981C37.0519 77.2003 37.3032 78.084 37.4311 79.0799C37.6571 80.9123 37.3319 85.4584 34.0502 89.5158C33.3006 90.4777 32.0064 91.2854 31.625 91.2117C31.1466 90.8188 31.2061 90.9498 30.6737 90.58C27.8296 89.0613 25.6778 91.2975 26.1595 93.3917C26.5299 94.7861 27.6808 95.8898 29.643 95.508C30.2426 95.3891 31.2557 94.4845 31.4519 94.6496C38.2578 100.272 34.8251 119.83 21.5109 119.539C19.4903 119.483 17.5612 118.624 17.2338 118.419C16.9086 118.225 16.9031 118.328 17.1158 118.475C18.1928 119.422 20.7679 122.176 26.5508 121.942C37.3319 121.479 45.0505 103.492 33.3303 93.2894C40.8153 89.2363 43.4466 80.9563 40.9443 74.7308C42.3332 74.2466 43.8038 73.7349 45.4452 73.2287C45.8211 73.1373 46.1099 72.9899 45.4452 72.9899C43.7251 73.0218 42.0082 73.1512 40.3027 73.3772C38.2005 69.6037 33.9532 66.8855 27.4867 66.9075ZM160.761 69.4793C156.661 69.8667 154.006 75.3174 150.805 82.0733C150.093 83.5549 149.332 85.0124 148.523 86.4433C147.385 85.4826 143.657 84.732 142.102 88.4572C141.198 90.6163 141.59 92.6742 142.8 94.3085C142.48 94.6221 142.159 94.9357 141.843 95.1855C138.054 98.2416 133.09 95.0601 135.897 89.6941C137.271 87.0706 140.659 85.0116 141.962 84.4998C142.592 84.2357 143.27 83.3663 142.241 83.7185C141.001 84.1576 139.231 83.4632 138.867 82.1778C138.341 80.3169 139.175 78.4153 140.406 77.3907C143.522 74.7903 145.338 77.3049 145.01 78.7905C144.836 79.3419 145.228 78.9336 145.385 78.3019C145.835 76.5323 144.476 75.1028 142.758 74.875C140.468 74.5845 137.656 77.0099 136.855 79.9625C134.201 83.0582 130.533 84.7661 127.622 85.0611C128.088 83.6668 128.372 82.4375 128.317 81.7827C127.982 77.8452 123.448 78.1368 122.265 80.8055C121.107 83.3883 121.471 87.2742 124.741 87.7529C122.287 92.8349 118.131 99.2133 114.993 98.5024C111.26 97.655 114.762 91.73 116.98 86.9506C118.736 83.1594 118.002 80.997 116.589 80.4401C109.251 77.5041 102.926 93.9101 96.8016 100.818C92.8916 105.223 90.5182 100.92 92.6744 96.2827L97.3627 85.1678L94.4591 85.4584L93.5188 87.8761C93.1396 86.9022 91.6426 85.4517 89.3916 85.1689C83.0388 84.3546 79.0251 90.4325 77.398 96.2585C77.1775 97.0553 76.0355 99.1495 75.6971 99.7581C72.368 105.676 68.7523 107.987 66.3194 106.804C63.1611 105.285 66.5564 94.6309 67.7271 91.7344C67.9376 91.16 67.8208 90.9663 67.4438 91.16C64.6956 92.8052 61.2022 93.7659 58.4408 93.6295C59.1419 91.6882 59.5156 89.9935 59.1871 89.123C57.3848 84.2698 50.9448 87.3138 52.8905 92.321C53.3072 93.4138 54.1791 94.4449 55.4094 95.1723C54.2826 97.6098 53.0591 100.002 51.7418 102.342C48.6067 107.862 45.8961 111.322 42.7103 114.691C41.9243 115.527 42.611 115.261 42.9781 115.032C44.2334 114.271 45.4122 113.391 46.4979 112.404C48.8945 110.196 51.3042 107.061 53.8947 102.878C54.8946 101.279 56.3398 98.586 57.4884 95.9812C58.6653 96.2359 59.8812 96.255 61.0655 96.0373C61.8118 95.9075 63.2195 95.2813 63.7873 95.0139C63.9383 94.9511 63.9846 95.1514 63.9846 95.1514C63.7013 97.8531 58.216 107.316 63.5084 109.705C66.4638 111.042 72.0406 109.064 76.9185 101.916C77.2657 104.75 78.6602 106.844 81.3279 107.099C83.3077 107.162 86.1033 105.364 86.9499 104.203C88.5428 105.654 92.5146 110.337 99.8926 99.856C101.669 97.3348 106.223 89.4927 109.731 85.9316C113.417 82.1976 116.216 85.509 112.89 91.0862C110.476 95.1492 107.478 100.664 111.149 101.882C117.203 103.89 123.064 95.8557 126.585 87.7176C130.56 87.1025 135.347 83.4434 136.65 82.1118C136.747 83.0384 137.259 84.3127 138.116 84.7342C136.432 85.9921 134.651 87.3523 133.653 88.6553C127.565 97.2831 137.259 101.26 143.159 96.2002C143.421 95.9845 143.666 95.7347 143.913 95.5014C145.458 96.822 147.653 97.6693 150.078 97.6979C158.259 97.8322 163.27 89.8779 160.286 82.3946V82.3968C159.65 80.8033 157.241 75.0159 160.952 69.8546C161.169 69.5982 161.153 69.4628 160.762 69.4804L160.761 69.4793ZM156.641 76.3243C156.472 78.0411 158.768 80.6327 158.419 85.2713C158.104 92.1911 152.979 93.9486 150.268 94.3029C148.535 94.5241 146.905 94.2743 145.616 93.7109C150.841 87.5988 154.067 78.5154 156.641 76.3243ZM174.812 77.9233L173.361 80.1771C172.262 81.8675 172.125 83.5523 172.025 84.7816L171.87 85.9998C171.786 86.3464 171.61 86.5456 171.062 87.0695L170.07 88.1567L169.922 88.3438C168.753 89.8075 168.415 90.8771 168.415 95.1503C168.415 96.078 168.321 96.3168 168.321 96.3322C168.309 96.3388 168.068 96.6514 168.068 96.6514L167.725 97.0784C166.716 98.3648 166.682 100.014 166.645 101.461L166.556 103.019C166.457 103.719 166.319 104.157 166.179 104.447C164.353 104.715 80.1351 116.836 79.347 116.944C74.9409 117.542 73.6445 120.972 73.8672 123.009C74.4735 128.615 78.6646 128.858 80.4372 128.712C82.848 128.502 147.901 118.81 164.073 116.391C163.597 117.808 163.07 119.464 163.07 121.308C163.07 122.492 163.287 123.733 163.88 125.024C163.44 125.849 163.093 126.669 162.976 127.63C162.925 128.103 162.892 128.529 162.892 128.933C162.892 131.465 163.903 132.825 164.829 133.532C167.065 135.256 170.084 134.3 171.686 133.64C174.955 134.328 178.583 133.907 181.852 132.587C184.506 133.561 187.599 131.694 189.212 130.709L189.577 130.499C189.751 130.39 189.891 130.385 190.506 130.43L192.214 130.391L192.597 130.312C193.951 130.067 195.803 129.719 196.618 127.892C196.849 127.375 196.946 126.864 196.946 126.362C196.945 125.162 196.406 124.029 195.93 123.193H195.931L195.791 122.947C195.791 122.947 195.731 122.862 195.657 122.806C195.66 122.772 195.66 122.715 195.66 122.715C195.678 122.482 195.708 122.18 195.708 121.838C195.708 121.411 195.67 120.906 195.543 120.314C195.186 118.663 194.256 117.405 193.503 116.381L192.732 115.248L192.315 114.265C192.081 113.621 191.788 112.812 191.155 111.914C193.511 110.582 194.316 108.932 194.586 107.892C194.797 107.092 194.791 106.25 194.569 105.453C194.346 104.656 193.916 103.932 193.322 103.356C191.819 101.864 189.416 101.313 186.677 101.768C186.555 101.591 186.434 101.426 186.314 101.261C186.314 101.261 185.821 100.532 185.708 100.356C185.719 100.236 185.727 100.094 185.727 99.9737C185.727 96.7482 184.239 95.0634 183.331 94.0399C183.331 94.0399 183.072 93.7318 182.98 93.6129C182.97 93.362 182.931 92.5081 182.931 92.5081C182.92 90.5052 182.892 87.1707 180.252 84.524C179.281 83.5446 179.087 83.0659 178.773 82.2703L178.343 81.2468C178.237 81.03 177.986 80.4842 176.883 79.5961L174.814 77.9233H174.812ZM125.424 80.5425C125.539 80.5535 125.658 80.581 125.779 80.6272C126.991 81.0938 126.992 82.3957 125.926 85.082C125.493 85.0426 125.067 84.9452 124.66 84.7926C122.733 83.998 123.695 80.3818 125.424 80.5425ZM145.202 87.3281C146.061 87.3457 146.842 88.0643 147.178 88.6784C146.215 90.1926 145.214 91.6112 144.185 92.8338C142.995 91.8159 142.501 90.4204 143.227 88.9359H143.228C143.819 87.7232 144.534 87.3138 145.202 87.3281ZM87.8902 87.5867C90.2272 87.5867 92.0924 90.0166 89.9748 95.5432C87.7491 101.336 85.2732 104.807 82.1712 103.43C77.3881 101.295 82.5438 87.5867 87.8902 87.5867ZM55.9142 88.3317C56.6782 88.3405 57.3561 88.8864 57.3175 90.1926C57.3032 90.6416 56.9008 91.7696 56.2769 93.2256C55.4281 92.9141 54.7391 92.4354 54.3169 91.7344C53.1341 89.7921 54.641 88.3163 55.9142 88.3317Z" fill="#CE1141"/>
<path d="M194.144 124.252C193.525 123.591 193.554 123.216 193.608 122.545C193.646 122.089 193.691 121.52 193.529 120.769C193.275 119.568 192.553 118.595 191.861 117.662L190.946 116.29L190.384 115.004C190.089 114.184 189.789 113.337 188.812 112.336C188.729 112.244 188.654 112.165 188.578 112.074L187.748 111.037C190.421 110.258 192.185 108.926 192.596 107.35C192.828 106.451 192.57 105.546 191.892 104.874C190.921 103.914 188.783 103.253 185.677 104.146C185.671 104.14 185.667 104.133 185.664 104.125C185.661 104.117 185.659 104.109 185.659 104.101C185.411 103.589 185.046 103.06 184.667 102.53C184.621 102.474 184.578 102.415 184.539 102.354C184.328 102.046 184.04 101.603 183.835 101.255C183.719 101.005 183.629 100.789 183.641 100.612C183.843 97.7729 182.663 96.4304 181.805 95.4619C181.42 95.0239 181.089 94.6597 180.995 94.2668C180.885 93.8519 180.875 93.2257 180.87 92.5203C180.859 90.6429 180.839 88.07 178.82 86.033C177.535 84.7652 177.222 83.9729 176.869 83.0738L176.487 82.1747C176.354 81.8335 175.82 81.412 175.594 81.247L175.281 81.0137L175.066 81.3493C174.262 82.5951 174.157 83.8474 174.062 84.9512L173.864 86.515C173.622 87.4834 173.065 88.0282 172.473 88.6092L171.668 89.4676L171.501 89.6789C170.76 90.6121 170.461 91.1469 170.461 95.1472C170.461 97.0136 170.158 97.3713 169.626 98.0195L169.318 98.4024C168.751 99.1309 168.723 100.285 168.697 101.498L168.583 103.336C168.55 103.569 168.509 103.792 168.472 103.985L168.258 104.85C168.252 104.85 168.252 104.861 168.252 104.861H168.246C168.009 105.624 167.709 106.05 167.357 106.358C167.317 106.38 167.285 106.41 167.247 106.426C167.015 106.467 164.669 106.802 160.874 107.348L160.239 107.428C160.228 107.428 160.228 107.439 160.219 107.439C157.836 107.781 154.928 108.201 151.674 108.674C151.667 108.674 151.665 108.669 151.665 108.669L149.957 108.913C129.613 111.851 109.267 114.782 88.92 117.705C88.887 117.705 88.8627 117.687 88.8318 117.687L86.96 117.99L79.6073 119.042C76.653 119.44 75.7656 121.54 75.899 122.769C76.0093 123.793 76.351 126.935 80.2533 126.605C80.6645 126.565 82.9982 126.24 86.6315 125.723C86.6514 125.723 86.6635 125.729 86.6834 125.729L88.6268 125.427C101.221 123.6 125.417 120.009 143.686 117.289L143.854 117.278L144.837 117.129C152.333 115.997 158.74 115.047 162.794 114.444C162.82 114.444 162.856 114.45 162.885 114.444L165.709 114.012C165.718 114.012 165.718 114.006 165.725 114.006C166.174 113.937 166.544 113.88 166.821 113.841C166.727 114.757 166.439 115.742 166.094 116.794C165.62 118.194 165.119 119.69 165.119 121.284C165.119 122.468 165.433 123.69 166.203 124.959C166.172 125.04 166.101 125.21 166.101 125.21C165.406 126.343 165.109 127.065 165.007 127.902C164.96 128.272 164.941 128.624 164.941 128.949C164.941 130.302 165.31 131.271 166.054 131.833C167.138 132.669 168.953 132.533 171.436 131.447C174.774 132.327 178.7 131.884 182.02 130.297C183.79 131.503 186.615 129.823 188.163 128.891L188.547 128.664C189.3 128.213 189.99 128.271 190.656 128.328L191.819 128.317L192.213 128.237C193.331 128.032 194.373 127.833 194.748 127.002C195.036 126.355 194.842 125.489 194.144 124.248V124.252ZM86.4276 124.963C82.8648 125.485 80.5873 125.804 80.1938 125.833C77.3718 126.079 76.814 124.286 76.6398 122.686C76.6308 122.633 76.6271 122.58 76.6288 122.526C76.6288 121.77 77.1557 120.149 79.701 119.812L85.743 118.943C86.2413 119.312 86.6635 120.234 86.8542 121.389C87.0824 122.823 86.9126 124.229 86.4276 124.963ZM140.592 116.979C123.842 119.476 107.089 121.95 90.3321 124.399C90.7764 123.313 90.7797 121.85 90.6 120.769C90.4347 119.773 90.1183 118.953 89.6994 118.378L139.936 111.141C140.308 112.729 140.639 114.503 140.592 116.979ZM144.083 113.924C143.969 112.813 143.775 111.711 143.504 110.628L146.795 110.155L144.083 113.924ZM146.949 116.028L149.156 112.927C149.247 113.745 149.296 114.662 149.276 115.68C148.518 115.794 147.744 115.908 146.95 116.027L146.949 116.028ZM152.85 115.145C152.861 114.133 152.816 113.234 152.724 112.403L155.252 114.793C154.474 114.907 153.671 115.026 152.85 115.145ZM157.292 111.591C156.919 111.249 155.378 109.831 154.52 109.045L159.514 108.323C158.776 109.414 158.036 110.503 157.292 111.591ZM162.466 113.723C161.603 113.843 160.641 113.991 159.593 114.15L162.283 110.554C162.415 111.453 162.486 112.484 162.466 113.723ZM191.377 105.438C191.607 105.653 191.775 105.927 191.862 106.229C191.95 106.532 191.953 106.852 191.873 107.157C191.529 108.477 189.825 109.655 187.325 110.349C187.109 110.06 186.909 109.656 186.741 109.235C186.663 109.067 186.598 108.894 186.547 108.716C186.544 108.7 186.527 108.688 186.518 108.677C186.393 108.324 186.28 107.967 186.18 107.607C186.086 107.198 186.016 106.783 185.97 106.366C185.944 106.035 185.944 105.716 185.944 105.461L185.901 105.199V105.045L185.898 105.012V104.977C185.898 104.948 185.887 104.92 185.884 104.885C188.679 104.084 190.554 104.619 191.377 105.438ZM185.276 106.918C185.307 107.166 185.355 107.411 185.419 107.652C185.419 107.652 185.42 107.659 185.427 107.67V107.692L185.429 107.714C185.484 107.954 185.555 108.204 185.628 108.461C185.172 108.457 184.721 108.364 184.3 108.187C184.623 107.772 184.954 107.35 185.276 106.918ZM184.341 103.413C183.5 104.612 182.577 105.753 181.579 106.827C180.738 106.372 179.356 105.302 178.441 104.425C178.755 104.38 179.071 104.329 179.376 104.288L184.341 103.413ZM182.992 111.123C182.547 111.123 182.134 111.112 181.768 111.072C181.877 110.963 181.985 110.862 182.096 110.748C182.387 110.896 182.684 111.021 182.992 111.123ZM171.697 108.175C171.631 107.47 171.469 106.827 171.221 106.342C171.166 106.211 171.086 106.121 171.021 106.012C172.117 105.659 173.233 105.367 174.361 105.136C175.827 106.627 177.924 108.277 179.162 109.102C178.798 109.392 178.423 109.677 178.038 109.95L177.083 109.631C175.544 109.091 173.473 108.39 171.697 108.175ZM174.028 112.108C172.904 112.545 171.713 112.893 170.419 113.12C170.816 112.46 171.109 111.817 171.318 111.191C171.979 111.294 172.621 111.544 173.247 111.801C173.5 111.909 173.757 112.011 174.028 112.108ZM169.443 101.522C169.468 100.43 169.487 99.4061 169.903 98.8756L170.189 98.5235C170.858 97.7146 171.203 97.2029 171.203 95.1494C171.203 91.2625 171.494 90.8982 172.078 90.1807L172.255 89.954L172.99 89.1617C173.596 88.5652 174.297 87.8884 174.585 86.6988L174.806 85.0315C174.887 84.0851 175.033 83.1299 175.52 82.1802C175.66 82.3166 175.773 82.4245 175.799 82.4938C175.808 82.5103 176.167 83.3632 176.167 83.3632C176.545 84.303 176.897 85.1966 178.287 86.5953C180.095 88.3935 180.111 90.6869 180.122 92.5258C180.132 93.2874 180.132 93.9477 180.265 94.466C180.413 95.0349 180.819 95.4894 181.249 95.9792C181.993 96.821 182.91 97.8632 182.91 99.9794C182.91 100.161 182.91 100.355 182.892 100.548C182.898 100.578 182.898 100.612 182.898 100.647L179.428 101.238C180.296 99.1332 179.687 96.5162 178.797 94.7686C178.775 94.7243 178.745 94.6849 178.707 94.6529C178.67 94.6208 178.626 94.5968 178.579 94.5824C178.532 94.5679 178.482 94.5633 178.433 94.5689C178.384 94.5744 178.336 94.59 178.293 94.6146C178.111 94.7059 178.045 94.9447 178.139 95.1318C179.005 96.8452 179.604 99.4787 178.513 101.392L177.891 101.5C174.961 101.933 171.955 102.388 169.34 103.253L169.45 101.523L169.443 101.522ZM166.646 113.092C166.481 113.12 166.277 113.153 166.035 113.182C166.074 110.86 165.757 109.182 165.355 107.486L166.991 107.248C167.016 107.254 167.033 107.276 167.068 107.276C167.509 107.276 167.801 107.458 167.98 107.846C168.502 108.996 167.858 111.499 166.646 113.092ZM194.067 126.68C193.851 127.147 192.995 127.319 192.083 127.484L191.681 127.563H190.715C190.003 127.5 189.131 127.431 188.173 127.996L187.779 128.223C186.436 129.043 183.632 130.738 182.287 129.588L182.102 129.423L181.885 129.537C180.671 130.135 176.327 132.002 171.5 130.671L171.374 130.641L171.257 130.693C169.003 131.705 167.358 131.881 166.495 131.221C165.8 130.687 165.553 129.611 165.746 127.996C165.829 127.29 166.097 126.653 166.724 125.634L167.033 124.792L166.913 124.724C165.143 121.987 165.976 119.482 166.794 117.059C172.043 116.825 175.714 115.67 178.752 113.592C181.883 114.39 185.95 114.264 188.646 113.303C189.208 114.007 189.452 114.629 189.682 115.266L190.292 116.684L191.268 118.123C191.91 118.994 192.567 119.904 192.798 120.94C192.872 121.276 192.892 121.572 192.892 121.839C192.892 122.073 192.875 122.283 192.861 122.489C192.848 122.67 192.83 122.841 192.83 123.028C192.83 123.558 192.952 124.093 193.56 124.712C193.925 125.396 194.126 125.954 194.126 126.351C194.126 126.481 194.11 126.583 194.068 126.682L194.067 126.68Z" fill="#13274F"/>
<path d="M174.285 95.3699C174.368 95.568 174.292 95.7969 174.098 95.8816C173.334 96.258 172.695 97.1571 172.505 98.1299C172.316 99.0752 172.558 99.9787 173.179 100.708C173.247 100.785 173.282 100.884 173.278 100.985C173.275 101.087 173.232 101.183 173.159 101.254C173.123 101.288 173.08 101.313 173.033 101.33C172.986 101.347 172.937 101.354 172.887 101.352C172.837 101.349 172.789 101.337 172.744 101.315C172.699 101.294 172.659 101.264 172.626 101.227C172.239 100.789 171.96 100.267 171.811 99.7028C171.662 99.1383 171.647 98.5469 171.768 97.9758C172.005 96.7642 172.799 95.6648 173.783 95.1883C173.828 95.1673 173.877 95.1554 173.926 95.1531C173.976 95.1509 174.025 95.1584 174.072 95.1753C174.118 95.1922 174.161 95.218 174.198 95.2514C174.234 95.2848 174.264 95.3251 174.285 95.3699ZM186.212 114.558C186.419 114.569 186.578 114.74 186.565 114.956C186.539 115.434 187.143 115.925 187.838 116.48C189.068 117.476 190.745 118.843 190.043 121.341C189.981 121.55 189.776 121.671 189.58 121.609C189.484 121.578 189.404 121.512 189.356 121.424C189.308 121.336 189.296 121.232 189.323 121.136C189.888 119.133 188.61 118.085 187.379 117.096C186.552 116.419 185.775 115.793 185.819 114.911C185.832 114.705 186.005 114.535 186.214 114.558H186.212ZM190.12 122.946C190.007 123.452 189.839 123.567 189.71 123.606L188.932 123.59L188.092 123.55C187.561 123.607 187.034 123.834 186.636 124.164L185.322 125.212L185.022 125.336C184.473 125.468 183.928 125.416 183.361 125.206C183.315 125.188 183.266 125.18 183.217 125.182C183.167 125.183 183.119 125.195 183.074 125.215C183.03 125.236 182.99 125.265 182.957 125.302C182.924 125.338 182.898 125.381 182.882 125.427C182.846 125.523 182.849 125.628 182.891 125.721C182.933 125.814 183.01 125.886 183.105 125.923C183.809 126.19 184.494 126.242 185.183 126.082L185.778 125.815L187.095 124.774C187.389 124.524 187.793 124.359 188.17 124.318L188.823 124.352L189.925 124.341C190.62 124.131 190.792 123.373 190.843 123.124C190.868 123.027 190.852 122.923 190.801 122.837C190.75 122.75 190.666 122.688 190.569 122.662C190.472 122.641 190.37 122.659 190.286 122.713C190.202 122.766 190.143 122.851 190.121 122.948L190.12 122.946ZM179.492 116.04C180.305 117.361 180.367 119.056 179.66 120.695C179.511 121.042 179.662 121.395 180.207 121.988C180.207 121.988 180.401 122.158 180.372 122.33C180.335 122.5 180.33 122.643 180.156 122.66C180.033 122.671 179.833 122.676 179.679 122.522C179.317 122.14 178.568 121.333 178.975 120.387C179.58 118.976 179.543 117.555 178.859 116.456C178.806 116.37 178.788 116.267 178.81 116.169C178.832 116.07 178.891 115.984 178.975 115.928C179.017 115.901 179.063 115.883 179.111 115.875C179.159 115.866 179.209 115.867 179.257 115.877C179.305 115.888 179.35 115.907 179.39 115.935C179.431 115.963 179.465 115.999 179.491 116.04H179.492ZM171.711 117.241C172.435 117.975 172.193 119.057 171.574 119.761L170.648 120.548C169.826 121.162 169.328 121.582 169.547 122.364C169.561 122.411 169.566 122.46 169.561 122.509C169.556 122.558 169.541 122.605 169.517 122.648C169.493 122.691 169.461 122.728 169.422 122.759C169.383 122.789 169.339 122.811 169.291 122.824C169.244 122.839 169.194 122.844 169.145 122.839C169.096 122.834 169.048 122.82 169.005 122.796C168.961 122.772 168.923 122.739 168.893 122.7C168.863 122.661 168.841 122.616 168.828 122.568C168.458 121.236 169.43 120.513 170.205 119.933L171.029 119.239C171.237 118.999 171.675 118.276 171.185 117.781C171.15 117.746 171.122 117.705 171.103 117.659C171.084 117.613 171.074 117.564 171.074 117.514C171.074 117.465 171.084 117.416 171.103 117.37C171.122 117.324 171.15 117.282 171.185 117.248C171.328 117.093 171.567 117.093 171.711 117.241ZM169.916 126.106C170.249 127.007 171.168 127.524 172.002 127.291L173.068 126.801L174.185 126.306C174.627 126.152 175.028 126.289 175.38 126.415C175.665 126.499 175.912 126.596 176.115 126.516L176.422 126.419L176.406 126.43C176.422 126.419 176.918 126.236 177.052 126.362C177.411 126.703 176.883 126.936 177.041 126.84L176.451 127.221L176.368 127.238C175.916 127.408 175.51 127.266 175.148 127.141C174.863 127.044 174.616 126.965 174.399 127.033L173.421 127.489L172.195 128.034C170.99 128.37 169.684 127.636 169.219 126.384C169.183 126.289 169.185 126.184 169.225 126.09C169.265 125.997 169.34 125.923 169.434 125.883C169.527 125.85 169.63 125.856 169.72 125.897C169.81 125.939 169.88 126.014 169.915 126.106H169.916ZM176.729 86.9325C176.918 87.0183 176.999 87.2461 176.918 87.4387C176.562 88.2696 176.591 89.3855 176.992 90.3748C177.3 91.1209 177.781 91.6734 178.306 91.877C178.4 91.9142 178.475 91.9857 178.517 92.0768C178.559 92.1679 178.565 92.2717 178.532 92.3667C178.516 92.4134 178.491 92.4564 178.458 92.4933C178.425 92.5301 178.385 92.56 178.341 92.5812C178.296 92.6025 178.247 92.6146 178.198 92.6168C178.149 92.6191 178.099 92.6115 178.053 92.5945C177.318 92.3105 176.699 91.6337 176.302 90.6708C175.827 89.4988 175.801 88.1397 176.231 87.1317C176.317 86.9336 176.539 86.8477 176.727 86.9336L176.729 86.9325Z" fill="#13274F"/>
<path d="M178.821 102.119C178.824 102.113 178.829 102.113 178.838 102.113C180.177 101.879 182.695 101.452 183.065 101.391C183.073 101.413 183.102 101.441 183.11 101.47C183.292 101.879 183.564 102.295 183.878 102.727L179.269 103.523C178.386 103.66 177.502 103.791 176.621 103.945C175.345 104.139 174.648 104.269 174.392 104.349C173.055 104.627 171.75 104.946 170.527 105.373C170.141 104.982 169.642 104.721 169.1 104.627C169.136 104.457 169.179 104.28 169.217 104.098C171.843 103.181 174.961 102.709 177.997 102.255C177.997 102.255 178.324 102.197 178.82 102.118L178.821 102.119ZM188.076 112.652C185.695 113.409 182.404 113.54 179.619 112.977C179.702 112.926 179.782 112.851 179.859 112.778C179.972 112.698 180.068 112.624 180.178 112.539C180.506 112.271 180.84 111.993 181.101 111.736C182.58 112.055 185.541 111.828 187.001 111.304C187.297 111.742 187.64 112.17 188.029 112.608C188.05 112.624 188.068 112.646 188.076 112.652ZM160.996 108.107C161.255 108.077 161.551 108.043 161.765 108.008C161.82 108.242 161.951 108.777 162.041 109.159C162.061 109.283 162.084 109.408 162.11 109.533L158.537 114.296C158.289 114.331 156.487 114.593 156.197 114.643C155.961 114.423 152.806 111.44 152.56 111.2C152.449 110.596 152.324 109.994 152.186 109.396C152.634 109.339 153.346 109.219 153.569 109.186L157.114 112.453C157.195 112.521 157.299 112.555 157.405 112.548C157.51 112.529 157.604 112.47 157.667 112.383C157.667 112.383 160.379 108.394 160.533 108.172L160.996 108.107ZM151.419 109.488L151.782 111.178C151.972 112.243 152.109 113.387 152.109 114.769C152.109 114.923 152.109 115.088 152.104 115.247C151.696 115.31 150.567 115.48 150.028 115.571C150.028 115.441 150.037 115.31 150.037 115.185C150.037 113.961 149.929 112.914 149.775 111.941H149.779C149.759 111.787 149.716 111.53 149.659 111.229C149.616 111.031 149.581 110.831 149.538 110.631C149.47 110.318 149.407 110.022 149.351 109.784C149.53 109.754 149.797 109.721 150.074 109.681L151.419 109.488ZM140.682 111.053L142.758 110.75C143.096 112.162 143.402 113.711 143.432 115.719V116.555C143.019 116.602 141.877 116.761 141.34 116.835C141.346 116.703 141.346 116.561 141.346 116.442C141.346 114.199 141.035 112.543 140.682 111.053ZM144.185 116.442C144.192 116.095 144.192 115.753 144.18 115.435V115.071C144.319 114.884 147.651 110.256 147.831 110.006C147.996 109.984 148.298 109.949 148.6 109.909C148.686 110.331 148.937 111.548 148.999 111.838C148.793 112.128 146.098 115.936 145.924 116.168C145.787 116.198 145.309 116.271 144.841 116.345C144.624 116.367 144.408 116.408 144.185 116.442ZM163.213 113.603C163.216 113.487 163.224 113.364 163.224 113.249C163.224 111.792 163.082 110.631 162.888 109.618C162.894 109.604 162.897 109.588 162.897 109.573C162.897 109.557 162.894 109.542 162.888 109.528C162.787 108.984 162.665 108.445 162.524 107.91C163.048 107.843 164.167 107.672 164.61 107.615C164.992 109.185 165.305 110.745 165.305 112.839C165.305 112.981 165.297 113.146 165.294 113.293C164.721 113.385 164.022 113.482 163.214 113.602L163.213 113.603ZM182.917 109.864C182.958 109.813 183.001 109.755 183.053 109.705C183.335 109.386 183.686 108.976 183.845 108.795C184.484 109.103 185.188 109.249 185.897 109.222C185.986 109.437 186.085 109.665 186.184 109.898C186.272 110.075 186.361 110.252 186.46 110.411C186.469 110.44 186.483 110.467 186.501 110.491C186.51 110.519 186.518 110.537 186.523 110.553C185.4 110.751 183.962 110.713 182.678 110.132C182.713 110.092 182.799 109.984 182.915 109.865L182.917 109.864ZM175.145 111.627C174.62 111.537 174.085 111.325 173.517 111.092C172.891 110.831 172.235 110.597 171.526 110.473C171.654 109.95 171.708 109.437 171.717 108.954C173.392 109.175 175.365 109.841 176.84 110.358L177.223 110.484C176.581 110.894 175.9 111.271 175.182 111.612C175.175 111.612 175.157 111.628 175.146 111.628L175.145 111.627ZM179.767 108.583C178.721 107.912 176.769 106.388 175.27 104.952C175.661 104.878 176.062 104.809 176.447 104.747C176.774 104.69 177.128 104.639 177.535 104.577C178.331 105.442 179.907 106.711 181.018 107.371L179.988 108.389L179.817 108.537C179.806 108.555 179.785 108.567 179.767 108.583ZM168.854 105.396C169.382 105.454 169.855 105.698 170.216 106.154L170.237 106.176C170.354 106.324 170.458 106.489 170.554 106.676C170.822 107.229 170.969 107.918 170.975 108.714C170.977 108.736 170.977 108.759 170.977 108.776C170.974 109.095 170.946 109.412 170.894 109.727C170.892 109.772 170.883 109.813 170.874 109.858C170.687 110.922 170.229 112.088 169.427 113.244C169.265 113.26 169.105 113.295 168.934 113.3C168.908 113.3 168.886 113.306 168.854 113.306C168.458 113.346 168.039 113.364 167.626 113.375L167.624 112.942H167.612C168.352 111.741 168.906 110.187 168.906 108.878C168.906 108.372 168.826 107.899 168.652 107.518C168.515 107.216 168.297 106.958 168.022 106.772C168.363 106.414 168.637 105.971 168.853 105.396H168.854Z" fill="#EAAA00"/>
<path d="M167.291 115.463C167.417 115.032 167.514 114.605 167.57 114.167C167.573 114.161 167.575 114.155 167.575 114.149C168.1 114.149 169.103 114.109 169.734 113.984C169.759 113.978 169.767 113.962 169.787 113.951C171.687 113.712 173.54 113.186 175.282 112.392C175.801 112.243 177.429 111.355 178.31 110.69L178.316 110.673C178.895 110.27 179.455 109.841 179.994 109.386C180.016 109.37 180.052 109.359 180.068 109.353L180.49 108.955L180.524 108.927C182.251 107.362 183.642 105.66 184.773 104.102C184.895 104.272 185.012 104.487 185.084 104.699C185.121 104.807 185.152 104.919 185.158 105.024V105.795C185.141 105.818 185.125 105.847 185.125 105.847C180.421 112.351 176.262 115.755 167.074 116.25C167.145 116.01 167.225 115.744 167.291 115.463ZM88.7592 118.474C89.2553 118.856 89.6797 119.755 89.8649 120.904C89.935 121.325 89.9704 121.752 89.9707 122.179C89.9707 123.17 89.7624 124.017 89.4085 124.529L87.2512 124.859C87.5443 124.155 87.6971 123.401 87.701 122.639C87.701 122.155 87.6624 121.677 87.5907 121.261C87.4199 120.186 87.0384 119.413 86.5732 118.826C87.3063 118.707 88.5002 118.519 88.7592 118.474Z" fill="#EAAA00"/>
</svg>
