<svg width="200" height="200" viewBox="0 0 200 200" fill="none" xmlns="http://www.w3.org/2000/svg">
<g clip-path="url(#clip0_18_1286)">
<path d="M188.667 70.1952C188.448 67.9633 187.047 64.5457 184.175 59.1337C183.73 58.2967 183.382 57.6375 183.179 57.219C182.647 56.0806 182.547 54.7297 182.898 53.4161L183.628 50.6819L180.87 51.3611L173.374 53.2119L173.031 53.6104C171.718 55.1125 170.226 57.8799 168.027 62.8543C166.824 65.577 164.804 69.5326 163.187 72.7169L163.143 72.8024C159.167 80.6124 156.553 83.57 153.522 83.7003C152.401 83.7493 151.62 83.4977 150.682 82.1302C155.628 79.8244 158.617 76.8643 160.292 74.6864C163.303 70.7748 164.482 65.9365 163.366 62.0664C162.213 58.0244 158.104 55.555 154.217 56.563C150.353 57.5619 146.752 60.5618 144.076 65.009C142.955 66.8698 139.42 73.3736 139.833 80.6647C137.447 84.0997 134.177 88.023 131.942 89.422C130.13 90.5529 129.212 90.4981 129.068 90.4242C128.662 90.21 128.314 89.9435 128.157 88.8774C127.888 86.99 128.294 84.328 129.056 80.6962C134.544 76.4417 138.872 71.7446 141.922 66.7311C144.852 61.9086 146.627 56.764 147.188 51.4391C147.536 48.1776 146.677 45.587 144.7 43.9447C143.087 42.5996 140.271 42.935 138.876 43.4606C131.287 46.3293 123.997 60.2903 121.255 69.2852C120.274 72.4885 119.575 75.114 118.879 78.1804C118.067 78.8106 117.238 79.42 116.52 79.9083C116.212 76.7946 115.422 74.7785 114.606 72.9726C112.898 69.149 110.266 67.7823 108.161 67.0076C104.723 65.758 100.739 66.4388 97.2249 68.8858C94.1874 70.9973 92.5432 74.2878 92.7265 77.7943C90.0374 81.3015 87.8657 86.9502 87.484 91.5551C87.2382 94.5642 87.2807 97.1382 87.6174 99.2206C85.914 102.152 82.6424 106.044 80.6249 106.328C79.7615 106.457 79.3299 106.302 79.2532 106.2C78.8707 105.722 78.9724 104.885 79.1207 104.274C80.3182 99.3576 85.7882 83.3748 89.0074 75.0343L90.2107 71.9032L88.4024 72.4188C89.5507 71.3601 90.4649 69.9743 90.924 68.4349C91.4982 66.4911 91.2424 64.6013 90.2307 63.2529C89.3515 62.0855 88.0199 61.4387 86.4707 61.4387C83.3732 61.4387 80.1624 64.0973 79.1607 67.4908C78.5882 69.4313 78.8399 71.3211 79.8557 72.6695C80.4632 73.4774 81.2874 74.0338 82.2582 74.2961C80.8365 74.7437 79.4615 75.1779 79.0474 75.2983L78.2682 75.53L77.9632 76.2814C76.3149 80.3799 74.0607 86.9809 71.8815 93.3636C70.4224 97.6314 69.044 101.666 67.9807 104.557C66.024 107.873 62.594 110.886 60.8715 111.89C60.239 112.26 59.7973 112.272 59.7132 112.233C59.6523 112.185 59.4182 111.789 59.4223 110.754C59.4573 103.312 66.149 91.962 70.934 87.0988C72.254 85.7603 72.0107 83.7402 70.9615 82.689C70.0923 81.8196 68.5082 80.0386 68.014 79.2149C67.6257 78.569 67.0357 78.1546 66.3465 78.0375C65.5532 77.903 64.6965 78.1795 63.9307 78.8197C61.4832 80.8532 58.5048 81.3281 54.2723 80.3724C51.3273 79.7048 49.7315 80.3865 49.099 82.5927C48.9257 83.1938 48.794 84.1769 48.6573 85.2123C48.579 85.7944 48.509 86.3366 48.439 86.6936C48.2282 87.8453 46.9873 89.2178 45.2007 90.3894C45.2982 72.2544 39.0598 66.0926 33.654 64.1588C28.8923 62.45 24.0698 62.8876 20.0873 65.3752C15.8723 68.0098 13.0323 72.5948 12.5481 77.4638C5.64811 84.4592 1.03894 94.7286 0.185605 105.07C-0.625229 114.96 1.23061 123.196 5.55644 128.879C8.14645 132.276 12.3998 134.576 16.6556 134.876C21.5465 135.227 26.1556 133.545 30.349 129.883C35.4881 125.396 38.8298 119.035 40.734 114.478C43.029 108.974 44.494 103.124 44.9057 97.8597C48.269 96.5304 52.1473 93.6509 53.9715 90.6318C54.8973 90.8925 55.8698 90.9532 56.8565 90.9042C50.7707 98.9176 47.374 109.888 47.6707 115.061C47.7573 116.599 48.0265 121.272 52.1648 122.846C54.5007 123.728 58.009 123.169 60.5107 121.514C62.0123 120.513 65.3548 118.073 68.3598 114.376C69.9748 117.302 72.9574 117.302 74.1215 117.302C79.264 117.302 85.9865 112.534 90.3657 106.053C91.934 108.171 94.2057 109.448 96.8949 109.654C102.651 110.082 108.014 106.237 110.565 102.48C113.249 98.5182 115.244 94.4895 116.186 87.9117C116.507 87.7116 116.928 87.4467 117.392 87.1395C117.103 89.4553 116.982 92.0176 117.123 93.7131C117.295 95.7565 118.232 97.736 119.677 99.1542C121.064 100.506 122.943 101.206 124.978 101.126C130.502 100.908 138.252 94.4895 142.49 88.2721C144.482 90.7921 147.213 92.1081 150.756 92.2734C156.248 92.5283 161.244 89.1912 166.033 82.0604C166.772 80.9669 167.482 79.7389 168.177 78.4444C168.407 79.9954 169.127 81.5016 170.162 82.5412C171.447 83.8199 174.022 85.1783 177.045 84.7988C182.068 84.1603 186.042 80.9453 187.702 76.3645C189.342 77.7635 189.318 79.0912 189.318 79.161C189.217 82.1709 186.052 84.4543 183.677 85.9139C181.115 87.494 177.704 88.7511 175.877 89.4303C169.076 91.9446 122.252 108.6 80.9349 123.288C50.794 134.011 24.759 143.267 18.3198 145.594L16.2431 146.34L17.5265 148.139L18.4073 149.369L18.874 150.022L19.6865 150.061C32.3131 150.731 38.1981 152.225 43.899 156.187L45.0773 157L46.069 155.969C52.4732 149.306 62.3173 144.705 71.8349 140.252L75.214 138.672C78.9032 136.921 127.743 116.749 156.907 105.068C171.092 99.3892 182.302 94.9013 184.42 93.9265C190.247 91.2487 196.201 87.4442 196.201 79.528C196.202 75.3855 193.539 72.1082 188.667 70.1952ZM26.1931 73.6626C27.5173 72.7775 29.039 72.6563 30.5931 73.3006C33.6931 74.5867 35.0873 82.4349 34.0931 92.6071C31.3123 92.5349 29.1673 91.6108 27.1131 89.6255C24.6265 87.2258 23.0815 83.7601 23.0815 80.58C23.0815 77.5859 24.2731 74.9355 26.1931 73.6626ZM29.4681 113.353C27.2998 118.557 24.769 122.313 22.3356 123.932C20.6423 125.064 19.6306 125.282 17.8356 124.905C11.814 123.644 10.9115 112.107 11.7648 105.137C12.304 100.691 14.0265 96.1883 16.5615 92.4868C20.7898 97.4828 26.1881 99.6972 33.2806 99.3585C32.629 103.833 31.1523 109.305 29.4681 113.353ZM100.902 77.9537C100.961 76.2075 101.818 74.5303 103.045 73.7913C103.868 73.2989 104.891 73.3413 105.711 73.9217C107.105 74.8965 107.804 78.6503 106.734 83.4188C104.746 83.7402 103.433 82.7571 102.312 81.6112C101.357 80.6373 100.857 79.3378 100.902 77.9537ZM99.9041 101.022C99.4799 101.29 98.9407 101.352 98.7082 101.3C96.4249 100.822 95.9641 95.6013 96.6399 92.0708L96.779 91.3351C96.9874 90.2158 97.2049 89.0717 97.5265 88.0055C99.9507 89.4121 102.757 90.2416 105.342 90.3097C104.09 95.3148 101.891 99.7188 99.9041 101.022ZM139.742 51.4682C140.027 51.1958 140.253 51.0182 140.425 50.9019C140.479 51.42 140.437 52.291 140.108 53.3323C138.604 58.139 135.452 64.3954 131.722 69.1249C134.172 61.7235 138.077 53.0616 139.742 51.4682ZM155.18 65.0588C155.879 64.6055 156.492 64.4926 156.691 64.5258C157.007 64.8272 157.066 65.5554 156.863 66.6879C156.211 70.3505 154.234 72.7966 150.047 74.9272C150.937 69.8058 154.071 65.7771 155.18 65.0588ZM172.372 69.7535C173.437 67.4551 174.52 65.1062 175.555 63.2786C176.222 65.1568 177.172 67.1197 178 68.6574C175.219 68.9265 173.242 69.8365 171.891 70.7947C171.984 70.5846 172.094 70.3571 172.094 70.3571L172.372 69.7535ZM178.355 77.874C177.777 78.4867 177.198 78.8446 175.929 78.8446C175.156 78.8446 174.57 78.4793 174.312 77.8424C174.078 77.2587 174.129 76.3479 174.969 75.5424C175.855 74.7013 177.465 74.287 179.57 74.3393C179.578 75.7841 179.172 76.9905 178.355 77.874Z" fill="black"/>
<path d="M14.1741 78.2062C6.72662 85.5022 2.61494 96.0207 1.85744 105.202C1.07828 114.675 2.82244 122.522 6.89412 127.87C9.29079 131.015 13.185 132.957 16.775 133.211C21.2025 133.522 25.4 131.981 29.2458 128.622C37.5175 121.407 42.785 107.071 43.3025 96.6517C47.0333 95.5366 52.1017 91.693 53.1617 88.4457C55.2825 89.8564 58.3158 89.0875 61.0975 88.5677C53.3617 96.2639 49.0408 109.654 49.3458 114.964C49.485 117.392 50.0467 120.249 52.7642 121.284C54.6292 121.992 57.5783 121.447 59.5808 120.121C62.5667 118.135 66.3717 114.788 69.0242 110.6C69.4834 115.453 72.3075 115.625 74.1242 115.625C78.925 115.625 86.3467 110.3 90.4542 102.68C91.6984 106.092 94.1534 107.77 97.0226 107.981C102.042 108.363 106.837 104.991 109.181 101.546C112.002 97.384 113.818 93.3678 114.634 86.9146C114.634 86.9146 117.716 85.0322 119.845 83.3633C119.103 85.4997 118.56 90.8287 118.798 93.5687C118.947 95.3298 119.763 96.8966 120.853 97.9594C121.892 98.9774 123.298 99.5163 124.915 99.4557C130.31 99.244 138.903 91.7885 142.467 85.0879C144.47 89.1431 147.463 90.4492 150.838 90.6053C155.791 90.837 160.24 87.6843 164.646 81.1355C166.79 77.9363 168.795 73.4949 170.568 69.6556C172.54 65.3993 174.485 61.0767 176.368 59.289C176.329 62.2475 179.688 68.5404 180.9 70.2866C172.916 69.771 169.951 74.4515 169.787 77.0122C169.673 78.7401 170.439 80.4505 171.353 81.3572C172.338 82.3403 174.431 83.4438 176.833 83.1416C181.502 82.5479 185.733 79.2109 186.673 73.7183C190.256 75.5027 191.041 77.9845 190.994 79.2233C190.866 83.0295 187.268 85.6782 184.568 87.3347C181.858 89.002 178.35 90.3006 176.463 90.9972C169.65 93.5173 122.823 110.168 81.5059 124.865C51.5933 135.498 25.3341 144.839 18.8966 147.167L19.7775 148.396C33.2291 149.112 39.1542 150.848 44.8617 154.814C52.2775 147.103 64.1667 142.048 74.4984 137.159C78.4417 135.295 127.541 115.032 156.287 103.519C170.451 97.8474 181.643 93.3661 183.721 92.4088C189.338 89.8281 194.534 86.4828 194.534 79.528C194.534 75.0285 190.647 72.5517 186.964 71.3569C187.513 69.0411 184.143 62.6327 182.693 59.9118C182.24 59.0557 181.881 58.3798 181.667 57.9248C180.948 56.3995 180.827 54.6675 181.28 52.9836L174.299 54.7115C172.83 56.3912 171.049 60.1551 169.564 63.5237C168.333 66.3144 166.326 70.2509 164.647 73.5556C160.843 81.0226 157.83 85.1833 153.596 85.366C151.026 85.4789 149.698 84.0915 148.299 81.334C153.167 79.4118 156.706 76.5995 158.972 73.6668C161.858 69.9113 162.648 65.6119 161.761 62.5256C160.906 59.5331 157.8 57.3585 154.643 58.1723C151.175 59.0748 147.933 61.8539 145.519 65.8668C143.277 69.5933 141.058 75.4412 141.55 81.1239C139.679 83.8797 135.803 88.982 132.839 90.8345C131.136 91.9006 129.386 92.471 128.288 91.8948C127.319 91.3867 126.718 90.6062 126.503 89.1083C126.178 86.8647 126.648 83.9536 127.542 79.7514C139.135 70.9376 144.495 61.0186 145.526 51.2607C145.764 49.0446 145.424 46.7122 143.635 45.2259C142.639 44.3989 140.475 44.6439 139.479 45.0217C132.565 47.6339 125.545 60.9928 122.865 69.7677C121.737 73.4518 121.042 76.1918 120.393 79.1162C120.393 79.1162 116.369 82.3387 114.978 82.6675C114.963 78.2502 114.073 75.8638 113.088 73.6452C111.643 70.4302 109.493 69.2728 107.588 68.5761C104.521 67.4569 101.068 68.2457 98.1926 70.2501C96.0851 71.7197 93.9859 74.5021 94.4584 78.3166C91.8075 81.4635 89.5301 87.216 89.1617 91.6897C88.9317 94.4705 88.9292 97.2512 89.3809 99.5105C87.9942 102.085 84.0525 107.523 80.8734 107.978C79.6917 108.15 78.545 107.995 77.9417 107.232C77.3025 106.421 77.1525 105.293 77.4942 103.876C78.7225 98.8296 84.2325 82.763 87.445 74.4307C86.5267 74.6973 80.5367 76.6045 79.5284 76.8984C76.7609 83.7585 72.1475 98.128 69.5092 105.27C67.455 108.827 63.7734 112.136 61.7225 113.327C60.0175 114.323 57.7342 114.401 57.7517 110.739C57.7833 102.596 64.8084 90.9366 69.7442 85.9256C70.4242 85.2348 70.1784 84.2617 69.7792 83.8689C69.0075 83.1042 67.2242 81.133 66.5817 80.0719C66.4859 79.9158 66.3259 79.7273 66.0717 79.6825C65.775 79.6335 65.3884 79.7821 65.0134 80.101C62.16 82.4674 58.6325 83.0685 53.9058 81.9982C51.195 81.3855 50.9542 82.2299 50.72 83.0453C50.49 83.8449 50.2825 85.978 50.0967 86.9901C49.6025 89.6563 46.2508 91.9969 43.46 93.2075C44.0708 77.7869 40.3233 68.3154 33.0908 65.729C28.8641 64.2128 24.5866 64.53 20.985 66.7851C17.1875 69.1648 14.4316 73.4991 14.1741 78.2062ZM83.615 72.8041C85.9725 72.8041 88.525 70.6362 89.3159 67.9609C90.105 65.2848 88.8351 63.1135 86.4759 63.1135C84.1159 63.1135 81.5659 65.2856 80.7725 67.9609C79.9842 70.6362 81.26 72.8041 83.615 72.8041ZM138.583 50.261C141.903 47.0908 142.734 50.5624 141.711 53.8297C139.406 61.188 133.996 70.5482 128.348 74.9812C129.844 67.7616 135.898 52.8258 138.583 50.261ZM16.5391 89.7194C21.0566 96.122 26.8458 98.4626 35.1958 97.5285C34.7308 102.471 33.0258 109.172 31.0183 113.995C29.3975 117.89 26.7366 123.013 23.27 125.325C21.1566 126.734 19.68 127.003 17.4908 126.54C10.2875 125.029 9.12162 112.937 10.0958 104.934C10.7558 99.4964 13.0883 93.9498 16.5391 89.7194ZM35.6017 94.2438C31.2891 94.536 28.3908 93.1868 25.9458 90.8262C23.1475 88.121 21.405 84.1961 21.405 80.5801C21.405 77.0363 22.8816 73.8487 25.2625 72.2702C27.0533 71.0787 29.1725 70.8985 31.2391 71.7563C36.2716 73.8487 36.66 85.2589 35.6017 94.2438ZM107.461 88.493C106.387 94.1732 103.824 100.457 100.82 102.415C100.06 102.91 99.0742 103.085 98.3667 102.937C94.5892 102.143 94.2501 95.6578 94.9959 91.7561C95.3909 89.6878 95.7267 87.4127 96.7401 85.4607C100.09 88.0803 104.432 89.0535 107.461 88.493ZM108.125 84.7898C104.735 85.8916 102.578 84.2758 101.112 82.7796C99.8401 81.476 99.1676 79.7456 99.2284 77.9023C99.3009 75.5749 100.457 73.397 102.176 72.3641C103.515 71.5562 105.253 71.5512 106.679 72.5534C109.137 74.2846 109.52 79.5762 108.125 84.7898ZM148.129 77.6283C148.129 70.9401 152.333 64.9111 154.266 63.6573C155.383 62.93 156.883 62.5073 157.73 63.2098C158.641 63.9612 158.836 65.1893 158.515 66.9794C157.618 71.9979 154.477 75.0518 148.129 77.6283ZM181.118 72.7693C181.602 75.77 180.727 77.7744 179.578 79.0099C178.618 80.0453 177.55 80.5128 175.929 80.5128C172.668 80.5128 171.297 76.7332 173.813 74.3394C175.313 72.9029 177.914 72.4263 181.118 72.7693Z" fill="#DF4601"/>
<path d="M194.203 64.1515H192.922V67.6198H192.055V64.1515H190.782V63.3984H194.203M200 67.6198H199.137V64.2628H199.118L197.891 67.6198H197.047L195.859 64.2628H195.84V67.6198H194.977V63.3993H196.477L197.462 66.1568H197.485L198.512 63.3993H200V67.6198Z" fill="black"/>
</g>
<defs>
<clipPath id="clip0_18_1286">
<rect width="200" height="200" fill="white"/>
</clipPath>
</defs>
</svg>
