<svg width="200" height="200" viewBox="0 0 200 200" fill="none" xmlns="http://www.w3.org/2000/svg">
<path d="M83.9544 194.922C67.6982 194.729 51.9561 190.745 37.8524 181.396C21.1465 170.313 11.4121 154.667 8.26363 134.909C7.6211 130.925 7.23558 126.941 7.33196 122.926C7.36408 121.801 6.94643 121.512 5.9505 121.737C4.60118 121.994 3.1876 122.09 1.83828 122.444C0.48895 122.797 0.328316 122.187 0.199809 121.094C-0.539107 114.476 0.810218 108.211 3.60525 102.236C6.52879 96.0354 10.8659 90.8951 16.1668 86.5901C17.5161 85.4978 17.6125 84.6625 16.97 83.1526C13.8858 75.8277 12.2152 68.1815 12.408 60.1819C12.665 49.2588 16.713 39.8778 24.2306 32.0388C27.3148 28.8262 30.5596 25.8062 34.2863 23.3325C34.961 22.8827 35.3786 22.2723 35.7642 21.5012C40.5189 11.7989 48.39 6.75504 59.1203 6.04825C63.9072 5.72699 68.2122 7.01206 72.0996 9.83922C73.0634 10.546 74.2199 10.546 75.3444 10.546C89.2874 10.8351 101.239 15.8791 110.877 25.9347C112.772 27.9266 114.411 28.4085 117.045 28.0551C128.032 26.6094 138.859 24.2963 149.686 22.0153C159.324 19.9913 168.93 17.903 178.825 17.5175C182.616 17.3569 186.278 17.7103 189.78 19.3487C195.338 21.9831 198.037 26.6094 199.45 32.3601C200.992 38.7533 199.193 44.247 195.274 49.1624C190.198 55.5235 183.612 60.0213 176.576 63.8765C165.396 70.0448 153.38 74.0285 141.012 76.9521C139.791 77.2412 139.373 77.6589 139.726 78.8797C140.144 80.3575 140.594 81.8675 140.787 83.4096C141.012 84.9517 141.783 85.1765 143.164 85.048C150.264 84.4055 157.396 84.534 164.432 85.7227C171.757 86.9435 178.857 88.9033 184.961 93.4331C186.632 94.6861 188.109 96.1639 189.105 98.0594C190.712 101.047 190.069 103.778 187.274 105.77C185.989 106.701 184.543 107.183 183.033 107.569C177.925 108.918 173.074 110.814 168.705 113.834C162.151 118.364 158.553 124.95 156.047 132.274C154.344 137.222 152.995 142.298 151.903 147.438C148.112 165.237 137.735 177.927 121.8 186.247C110.138 192.352 97.5761 194.825 83.9544 194.922Z" fill="#DF4601"/>
<path d="M32.8084 88.5172C29.2423 90.7018 25.8047 93.0471 22.7527 95.9385C19.0581 99.4403 16.006 103.36 14.1106 108.147C13.6929 109.175 13.7572 109.625 15.0101 109.496C16.6486 109.335 18.3192 109.303 19.9576 109.143C21.1142 109.014 21.2106 109.464 20.9214 110.428C18.0943 120.644 18.9296 130.828 21.7567 140.82C27.0577 159.517 39.6192 171.661 57.4817 178.44C72.8383 184.255 88.5805 184.833 104.451 180.464C114.7 177.637 123.759 172.657 130.891 164.561C131.181 164.24 131.663 163.983 131.502 163.308C130.795 163.726 130.153 164.079 129.51 164.465C118.169 170.858 106.154 174.456 92.9818 173.493C80.9022 172.625 70.2039 168.352 61.2084 160.16C53.241 152.867 48.9681 143.872 49.7392 132.916C50.2211 126.138 52.984 120.419 58.9274 116.66C63.7143 113.672 68.7904 113.705 74.0913 114.99C81.4162 116.725 88.8054 117.945 96.3552 116.885C102.491 116.05 107.246 113.223 109.656 107.215C109.977 106.444 110.298 106.38 111.101 106.508C114.924 107.151 118.78 107.054 122.249 105.32C132.209 100.436 142.714 99.0548 153.637 99.8901C155.982 100.083 158.328 100.243 160.834 100.982C159.87 101.561 159.131 102.01 158.424 102.46C150.585 107.151 144.449 113.705 138.73 120.676C132.112 128.804 124.145 134.876 113.896 137.735C102.716 140.884 91.6325 141.109 80.6451 137.029C76.6614 135.551 72.9026 133.591 70.2039 130.121C67.9872 127.326 68.5655 124.628 71.6497 122.925C72.5492 122.443 73.513 122.122 74.5089 121.897C75.4406 121.704 76.3723 121.479 77.2076 120.933C77.7216 120.612 78.2999 120.226 78.1071 119.584C77.9465 119.006 77.2718 119.006 76.7257 119.006C72.3564 119.102 68.0836 119.68 64.1962 121.865C60.341 124.049 58.2528 127.294 58.317 131.824C58.3813 137.125 60.6623 141.655 63.2003 146.088C63.2646 146.185 63.2967 146.281 63.3931 146.345C64.132 146.988 65.0637 147.052 65.7704 146.667C66.3809 146.313 65.7383 145.607 65.5777 145.125C64.9673 143.454 64.389 141.783 64.0356 140.081C63.618 137.992 63.1682 135.872 64.1962 133.784C64.6139 132.916 64.9994 132.627 65.8347 133.43C66.7985 134.362 67.8587 135.197 68.951 135.936C82.1551 144.996 96.6443 146.827 111.905 142.908C125.044 139.535 135.453 131.888 143.614 121.222C149.782 113.191 157.011 106.54 166.07 101.978C167.516 101.239 168.994 100.597 170.729 99.7937C170.215 99.6331 170.054 99.5367 169.861 99.5046C165.91 98.5729 161.894 97.8982 157.846 97.4485C149.364 96.5489 140.883 96.1955 132.466 98.1553C131.213 98.4444 130.795 98.2195 130.699 96.8702C130.185 88.6778 129.446 80.5498 125.815 72.9678C125.077 71.4579 125.623 70.3335 127.1 69.4982C128.321 68.8235 129.639 68.3737 130.988 68.0203C138.024 66.2212 145.059 64.2936 151.935 61.9484C162.247 58.4144 172.174 54.0773 180.977 47.5234C184.029 45.2424 186.503 42.4474 187.884 38.8492C189.426 34.8333 187.531 30.8496 183.515 29.6288C181.812 29.1148 180.045 28.9863 178.278 29.0505C170.279 29.3718 162.504 31.2994 154.73 32.9379C145.059 34.9619 135.453 37.3392 125.623 38.7528C120.129 39.556 114.571 40.0058 109.142 41.2908C108.017 41.5478 107.567 41.2908 107.021 40.327C103.68 34.3514 98.8289 29.9501 92.757 26.898C86.9099 23.9424 80.6451 22.8822 74.1234 22.6894C70.6216 22.593 67.2483 21.8541 64.4532 19.4125C63.6822 18.7057 62.5899 18.4166 61.4976 18.2559C56.3252 17.5491 50.0283 20.6012 47.426 25.1632C47.1369 25.6772 46.8799 26.2234 46.7514 26.7695C46.2695 28.8578 45.0487 30.3999 43.3781 31.6849C41.322 33.227 39.2658 34.7691 37.3061 36.4076C32.2301 40.584 28.0215 45.4031 25.9653 51.8284C23.9735 58.0289 24.1984 64.2936 25.6762 70.5262C26.7685 75.1525 28.2142 79.6824 30.6559 83.8267C31.0735 85.4973 32.2301 86.8788 32.8084 88.5172Z" fill="#DD4602"/>
<path d="M30.6882 83.7955C28.2466 79.6511 26.8008 75.1212 25.7085 70.495C24.2307 64.2624 24.0058 57.9976 25.9977 51.7972C28.0538 45.3718 32.2624 40.5528 37.3384 36.3763C39.3303 34.7378 41.3543 33.1958 43.4104 31.6537C45.1131 30.4007 46.3018 28.8265 46.7837 26.7383C46.9122 26.1921 47.1692 25.6138 47.4584 25.1319C50.0285 20.5699 56.3575 17.5179 61.5299 18.2247C62.6222 18.3853 63.7145 18.6744 64.4856 19.3812C67.2806 21.855 70.6539 22.5618 74.1557 22.6582C80.6453 22.8509 86.9101 23.9111 92.7893 26.8668C98.8934 29.9188 103.745 34.3202 107.054 40.2958C107.6 41.2596 108.049 41.5487 109.174 41.2596C114.603 39.9745 120.161 39.5247 125.655 38.7216C135.454 37.308 145.06 34.9306 154.762 32.9066C162.569 31.2682 170.311 29.3727 178.311 29.0193C180.078 28.955 181.845 29.0514 183.547 29.5976C187.563 30.8505 189.459 34.8021 187.917 38.8179C186.535 42.4162 184.061 45.2112 181.009 47.4922C172.207 54.0461 162.28 58.4153 151.967 61.9171C145.092 64.2624 138.056 66.1579 131.02 67.9891C129.671 68.3425 128.354 68.7601 127.133 69.4669C125.655 70.3022 125.109 71.4266 125.848 72.9366C129.478 80.4864 130.217 88.6466 130.731 96.8389C130.827 98.1883 131.245 98.4132 132.498 98.124C140.915 96.1643 149.397 96.5177 157.878 97.4172C161.926 97.8349 165.942 98.5417 169.894 99.4733C170.086 99.5055 170.247 99.6018 170.761 99.7625C169.026 100.566 167.548 101.24 166.103 101.947C157.011 106.477 149.782 113.159 143.646 121.191C135.454 131.857 125.045 139.503 111.937 142.877C96.6766 146.796 82.2196 144.965 68.9833 135.905C67.891 135.166 66.8308 134.299 65.867 133.399C65.0317 132.596 64.6462 132.885 64.2286 133.753C63.2005 135.841 63.6503 137.929 64.0679 140.049C64.4213 141.784 64.9996 143.455 65.61 145.093C65.8028 145.575 66.4453 146.282 65.8028 146.635C65.096 147.021 64.1322 146.957 63.4254 146.314C63.3611 146.25 63.2969 146.154 63.2326 146.057C60.6946 141.624 58.4136 137.094 58.3493 131.793C58.3172 127.295 60.3733 124.018 64.2286 121.834C68.1159 119.649 72.3888 119.071 76.758 118.974C77.3042 118.974 77.9467 118.974 78.1395 119.553C78.3322 120.227 77.7539 120.581 77.2399 120.902C76.4046 121.448 75.4729 121.641 74.5413 121.866C73.5453 122.091 72.5815 122.38 71.682 122.894C68.5657 124.596 68.0195 127.295 70.2363 130.09C72.9349 133.56 76.6937 135.52 80.6775 136.997C91.6648 141.078 102.749 140.853 113.929 137.704C124.177 134.845 132.145 128.741 138.763 120.645C144.481 113.673 150.585 107.087 158.456 102.429C159.195 101.979 159.902 101.562 160.866 100.951C158.36 100.212 156.015 100.052 153.67 99.8589C142.746 99.0236 132.241 100.405 122.282 105.288C118.78 106.991 114.925 107.12 111.134 106.477C110.363 106.348 110.009 106.413 109.688 107.184C107.278 113.191 102.524 115.987 96.3875 116.854C88.8377 117.882 81.4485 116.693 74.1236 114.958C68.8227 113.705 63.7145 113.641 58.9598 116.629C52.9842 120.388 50.2213 126.074 49.7715 132.885C49.0005 143.84 53.2733 152.836 61.2729 160.129C70.2684 168.353 80.9666 172.594 93.0463 173.461C106.186 174.425 118.234 170.827 129.574 164.434C130.217 164.08 130.86 163.695 131.566 163.277C131.727 163.952 131.245 164.209 130.956 164.53C123.856 172.658 114.796 177.606 104.516 180.433C88.677 184.802 72.9028 184.224 57.5462 178.409C39.7158 171.63 27.1542 159.486 21.8212 140.788C18.994 130.797 18.1587 120.613 20.9859 110.396C21.2429 109.433 21.1465 108.983 20.0221 109.111C18.3836 109.272 16.713 109.304 15.0746 109.465C13.8216 109.593 13.7574 109.144 14.175 108.115C16.0705 103.361 19.1225 99.4091 22.8171 95.9073C25.8692 93.0159 29.3067 90.6706 32.8728 88.486C33.0656 88.4217 33.2905 88.3896 33.4832 88.2932C39.3945 85.1769 45.3059 82.0606 51.2172 78.9443C51.4421 78.8158 51.6991 78.7194 51.5706 78.2054C44.7597 80.8077 37.8525 82.7674 30.6882 83.7955ZM168.833 36.5048C168.801 36.4084 168.737 36.3121 168.705 36.2478C166.938 36.6333 165.171 37.051 163.404 37.4044C150.071 40.1994 136.707 43.0587 123.181 44.7935C113.479 46.0465 104.194 48.3596 95.3915 52.6646C89.1911 55.7166 83.2797 59.2506 77.8182 63.5235C77.1114 64.0696 76.244 64.7121 76.501 65.7081C76.7259 66.6719 77.7218 66.9289 78.6535 67.1538C82.9906 68.214 87.4241 68.728 91.8255 68.985C109.72 70.1094 125.816 64.7443 140.562 54.9456C148.272 49.8053 155.918 44.6329 163.757 39.7175C165.46 38.6894 167.131 37.5971 168.833 36.5048ZM107.503 97.6742C107.792 98.4774 108.403 99.0236 108.917 99.5697C111.262 101.947 113.929 103.778 117.463 102.911C120.997 102.043 122.603 99.1521 123.278 95.8751C124.916 88.229 123.117 81.3538 118.33 75.2497C117.238 73.8362 115.856 72.7438 114.25 71.9407C110.748 70.1737 107.246 71.0411 105.094 74.2859C102.684 77.9163 102.556 81.9321 102.973 86.2692C105.126 83.5385 107.278 83.3136 109.849 85.3697C111.937 87.0403 113.19 89.257 113.607 91.8914C114.378 96.6783 112.162 98.7665 107.503 97.6742ZM81.1915 94.4294C83.1834 91.281 85.5929 90.7991 88.5485 92.9195C91.5042 95.0398 93.0463 98.0598 93.3033 101.626C93.5603 105.481 90.9259 107.505 87.2635 106.381C86.8779 106.252 86.4924 106.156 86.0426 106.381C86.9743 107.537 87.9381 108.565 89.0947 109.465C94.4277 113.609 99.8893 111.939 101.785 105.481C103.52 99.5697 102.202 93.9475 99.4716 88.6145C97.7689 85.2733 95.4558 82.414 91.954 80.7755C88.2915 79.0407 84.7576 80.1009 82.7336 83.6348C80.8381 86.9439 80.6453 90.5742 81.1915 94.4294ZM88.7092 36.0872C87.7775 34.0632 86.9422 31.9749 85.3037 30.3365C83.4404 28.4731 81.3521 28.0233 79.1996 29.0514C77.2078 29.9831 76.1476 32.0713 76.4367 34.513C76.501 35.1555 76.5652 35.7659 76.3404 36.4084C75.4729 38.9465 75.3123 41.5487 75.8263 44.1831C76.4046 47.1709 77.4648 49.966 79.6494 52.1827C82.7978 55.3633 87.0386 54.6886 89.0304 50.7049C89.3838 49.9981 89.6408 49.227 89.8657 48.456C90.6689 45.2754 90.444 42.0949 89.673 38.9465C89.5123 38.2718 89.3196 37.6614 89.8979 37.0188C90.3798 36.4727 91.3757 35.6695 90.6368 35.027C89.6087 34.0953 89.6087 35.8302 88.7092 36.0872ZM151.324 54.6565C153.702 54.4637 155.79 53.4999 157.91 52.6646C164.753 49.9017 171.468 46.8175 177.475 42.4161C179.114 41.2275 180.752 40.0066 181.748 38.1433C182.134 37.4044 182.455 36.5369 181.877 35.8944C181.299 35.2197 180.624 35.9908 179.981 36.1836C179.628 36.3121 179.307 36.5048 178.985 36.6976C172.271 40.3922 166.006 44.7614 159.613 48.97C156.818 50.8655 154.087 52.761 151.324 54.6565ZM63.2005 25.2926C58.7027 21.2767 52.6308 23.1722 51.4421 28.7944C51.3136 29.3727 51.2815 29.7903 52.0846 29.5012C55.7471 28.1197 59.4417 26.7061 63.2005 25.2926ZM95.4879 40.1673C96.1947 40.9383 97.7368 41.2596 96.0341 42.4804C95.3915 42.9302 95.2952 43.8297 95.8735 44.4723C96.4517 45.1148 97.2228 45.0184 97.9296 44.5686C99.311 43.6691 99.5359 41.8057 98.3472 40.5207C97.7689 39.9103 96.9658 39.4605 96.4839 38.7858C95.7449 37.7256 95.263 38.4324 94.749 38.9143C94.2992 39.3641 94.3956 40.0066 94.3314 40.5849C94.0743 42.8659 94.4277 45.3076 92.8214 47.3316C92.6286 47.5564 92.5323 48.0062 92.9499 48.3275C93.3676 48.199 93.6888 47.9098 93.9137 47.5564C95.4879 45.4039 94.8133 42.7374 95.4879 40.1673ZM92.7571 36.5369C92.2752 37.565 91.7933 38.4003 92.4359 39.2356C92.6929 39.5569 93.1427 39.2356 93.3676 38.9143C94.1707 37.9184 93.3354 37.3401 92.7571 36.5369Z" fill="#231F20"/>
<path d="M30.688 83.7953C37.8523 82.7673 44.7595 80.8075 51.5061 78.2695C51.6347 78.7514 51.3776 78.8799 51.1528 79.0084C45.2414 82.1247 39.3301 85.241 33.4188 88.3573C33.226 88.4537 33.0011 88.4858 32.8084 88.5501C32.2301 86.8795 31.0735 85.4981 30.688 83.7953Z" fill="#FEFEFE"/>
<path d="M168.833 36.5051C167.163 37.5652 165.46 38.6576 163.789 39.7177C155.918 44.601 148.272 49.8056 140.594 54.9458C125.848 64.7445 109.752 70.1418 91.8575 68.9852C87.4561 68.6961 83.0226 68.2142 78.6855 67.154C77.786 66.9291 76.79 66.6721 76.533 65.7083C76.276 64.7124 77.1434 64.0698 77.8502 63.5237C83.3118 59.2508 89.2231 55.7169 95.4236 52.6648C104.194 48.3598 113.479 46.0146 123.213 44.7938C136.739 43.0589 150.071 40.1996 163.436 37.4046C165.203 37.0512 166.97 36.6336 168.737 36.248C168.737 36.3444 168.769 36.4408 168.833 36.5051Z" fill="#DF4601"/>
<path d="M107.503 97.6734C112.129 98.7657 114.346 96.6775 113.607 91.8906C113.19 89.2562 111.937 87.0394 109.848 85.3688C107.278 83.3127 105.126 83.5376 102.973 86.2684C102.556 81.9313 102.684 77.9154 105.094 74.2851C107.246 71.0403 110.748 70.1729 114.25 71.9398C115.856 72.743 117.238 73.8674 118.33 75.2489C123.117 81.353 124.916 88.2602 123.277 95.8743C122.571 99.1512 120.996 102.011 117.462 102.91C113.961 103.777 111.262 101.946 108.917 99.5689C108.403 99.0227 107.792 98.4766 107.503 97.6734Z" fill="#FEFEFE"/>
<path d="M81.1915 94.4293C80.6453 90.5741 80.8381 86.9437 82.7336 83.6025C84.7576 80.0686 88.2915 79.0084 91.954 80.7433C95.4558 82.4138 97.7689 85.241 99.4716 88.5822C102.202 93.9152 103.52 99.5374 101.785 105.449C99.8893 111.938 94.4277 113.577 89.0947 109.432C87.9702 108.533 86.9743 107.505 86.0426 106.348C86.4924 106.091 86.8458 106.22 87.2635 106.348C90.9259 107.473 93.5603 105.481 93.3033 101.594C93.0784 97.9953 91.5363 95.0075 88.5485 92.8872C85.5929 90.8311 83.1834 91.2808 81.1915 94.4293Z" fill="#FEFEFE"/>
<path d="M88.709 36.0875C89.6085 35.8626 89.5764 34.1277 90.6044 34.9952C91.3434 35.6377 90.3474 36.4409 89.8655 36.987C89.2873 37.6296 89.48 38.24 89.6406 38.9146C90.4117 42.0631 90.6366 45.2436 89.8334 48.4242C89.6406 49.1952 89.3836 49.9662 88.9981 50.673C87.0062 54.6568 82.7334 55.3636 79.6171 52.1509C77.4325 49.9341 76.3723 47.1391 75.794 44.1513C75.3121 41.549 75.4406 38.9146 76.308 36.3766C76.5329 35.7341 76.4687 35.1237 76.4044 34.4811C76.1153 32.0395 77.2076 29.9513 79.1673 29.0196C81.3198 27.9915 83.4081 28.4413 85.2714 30.3047C86.942 31.9431 87.7773 34.0635 88.709 36.0875ZM78.8461 41.9988C78.8139 45.0187 79.8099 47.6852 81.7053 49.9662C83.6329 52.3115 86.0746 51.8296 87.0384 48.9703C87.199 48.5205 87.2633 48.0386 87.3597 47.5567C87.713 45.1472 87.3596 42.7698 86.942 40.3925C86.7492 39.3644 86.3316 39.2359 85.3999 39.6535C83.9542 40.2961 82.4121 40.3603 80.87 39.8784C78.9424 39.268 78.9424 39.2359 78.8782 41.3241C78.846 41.5812 78.8461 41.806 78.8461 41.9988ZM81.4804 30.9151C80.1311 31.0436 79.3922 31.8467 79.2316 33.1639C78.846 36.0875 82.2515 39.011 85.1108 38.2721C85.8818 38.0793 86.2673 37.7581 85.9461 36.9549C85.3035 35.2201 84.6289 33.4531 83.408 32.0074C82.894 31.397 82.3157 30.9793 81.4804 30.9151Z" fill="#DF4601"/>
<path d="M151.324 54.6558C154.087 52.7603 156.818 50.8327 159.613 49.0015C165.974 44.7608 172.271 40.3915 178.985 36.7291C179.307 36.5363 179.628 36.3435 179.981 36.215C180.592 36.0223 181.266 35.2512 181.877 35.9259C182.455 36.6006 182.134 37.4359 181.748 38.1748C180.752 40.0381 179.114 41.2268 177.475 42.4476C171.468 46.8169 164.785 49.9011 157.91 52.6961C155.79 53.4993 153.702 54.4631 151.324 54.6558Z" fill="#DF4601"/>
<path d="M63.2002 25.2914C59.4414 26.705 55.7468 28.1185 52.0843 29.5C51.2812 29.7891 51.3133 29.3715 51.4418 28.7932C52.5984 23.171 58.7025 21.2755 63.2002 25.2914Z" fill="#DF4601"/>
<path d="M95.4877 40.1674C94.813 42.7376 95.4877 45.4041 93.9456 47.5887C93.6886 47.9421 93.3994 48.2312 92.9818 48.3598C92.5641 48.0385 92.6605 47.5887 92.8533 47.3638C94.4596 45.3398 94.0741 42.9303 94.3632 40.6172C94.4275 40.0389 94.299 39.3964 94.7809 38.9466C95.2949 38.4647 95.7768 37.7579 96.5157 38.8181C96.9976 39.4928 97.8008 39.9425 98.3791 40.5529C99.5678 41.838 99.3429 43.7014 97.9615 44.6009C97.2547 45.0507 96.5157 45.1471 95.9053 44.5045C95.2949 43.862 95.4234 42.9625 96.066 42.5127C97.7687 41.2597 96.1945 40.9385 95.4877 40.1674ZM97.8972 43.0588C97.8651 42.7697 97.8972 42.3199 97.4795 42.3842C96.837 42.4484 96.3872 42.8339 96.2909 43.4765C96.2266 43.8941 96.5479 44.2154 96.9655 44.1833C97.5117 44.0869 97.8651 43.7014 97.8972 43.0588Z" fill="#DF4601"/>
<path d="M92.7574 36.5371C93.3357 37.3724 94.171 37.9507 93.3999 38.9145C93.1429 39.2036 92.7253 39.5249 92.4682 39.2358C91.7936 38.3683 92.2755 37.533 92.7574 36.5371Z" fill="#DF4601"/>
<path d="M78.846 41.9988C78.846 41.7739 78.846 41.5811 78.846 41.3562C78.9102 39.268 78.9102 39.3001 80.8378 39.9105C82.3799 40.3924 83.922 40.3282 85.3677 39.6856C86.2994 39.268 86.717 39.3965 86.9098 40.4245C87.3274 42.8019 87.713 45.1793 87.3274 47.5888C87.2632 48.0707 87.1668 48.5526 87.0062 49.0024C86.0424 51.8617 83.5686 52.3115 81.6731 49.9983C79.8098 47.6852 78.8138 45.0187 78.846 41.9988Z" fill="#231F20"/>
<path d="M81.4805 30.9141C82.3158 30.9783 82.8941 31.396 83.4081 32.0064C84.629 33.4521 85.3036 35.2191 85.9462 36.9539C86.2353 37.7571 85.8819 38.0783 85.1109 38.2711C82.2516 39.01 78.8461 36.0865 79.2317 33.1629C79.3923 31.8457 80.1312 31.0426 81.4805 30.9141Z" fill="#231F20"/>
<path d="M97.8972 43.0584C97.865 43.7009 97.5116 44.0864 96.9334 44.1507C96.5157 44.1828 96.1944 43.8615 96.2587 43.4439C96.3551 42.8013 96.837 42.4158 97.4474 42.3516C97.8972 42.3516 97.865 42.7692 97.8972 43.0584Z" fill="#030101"/>
</svg>
