<svg width="200" height="200" viewBox="0 0 200 200" fill="none" xmlns="http://www.w3.org/2000/svg">
<path d="M157.723 123.42C155.847 117.916 155.201 107.319 144.641 99.9951C155.201 92.6816 155.847 82.0852 157.723 76.5811C160.77 67.6423 162.793 62.1599 169.281 58.2919C146.159 44.8892 157.323 32.7 138.151 13.5007C121.591 -3.07662 95.5624 -4.38764 77.5136 9.56763C72.5246 3.95713 65.2687 0.429967 57.1927 0.429967C42.1724 0.429967 30 12.6213 30 27.6503C30 30.9063 30.5603 34.0268 31.6148 36.9235C34.2021 31.5431 39.3643 27.8742 45.2977 27.8742C53.8278 27.8742 60.7464 35.4546 60.7464 44.8133V75.7782C60.7464 79.0216 59.6605 93.4487 41.1298 100.002C59.6601 106.555 60.7464 120.978 60.7464 124.23V155.195C60.7464 164.544 53.8278 172.135 45.2977 172.135C39.3643 172.135 34.2018 168.466 31.6148 163.076C30.5603 165.969 30 169.096 30 172.343C30 187.384 42.1724 199.579 57.1927 199.579C65.2696 199.579 72.5246 196.046 77.5136 190.438C95.5624 204.386 121.591 203.075 138.15 186.502C157.322 167.303 146.157 155.111 169.28 141.703C162.792 137.851 160.768 132.36 157.722 123.424" fill="#0D2B56"/>
<path fill-rule="evenodd" clip-rule="evenodd" d="M133.829 182.171C141.49 174.496 143.555 168.442 145.739 162.024V162.026C148.079 155.136 150.505 148.063 159.322 141.056C155.768 136.63 153.945 131.285 151.944 125.4C151.52 124.157 151.177 122.815 150.815 121.4L150.788 121.296C149.715 117.05 145.469 105.873 136.316 100.001C145.469 94.1255 149.715 82.9521 150.788 78.7032C151.16 77.2501 151.509 75.8853 151.944 74.6024C153.945 68.7212 155.768 63.3754 159.322 58.9374C150.505 51.9424 148.078 44.8667 145.739 37.9796L145.739 37.9785C143.555 31.5679 141.49 25.5069 133.829 17.8355C118.258 2.24217 92.4284 2.75682 76.8596 18.3492C73.5173 11.0899 65.6856 6.54469 57.1933 6.54469C46.8938 6.54469 38.2913 13.9831 36.4688 23.7764C39.16 22.4777 42.1566 21.7528 45.2979 21.7528C57.184 21.7528 66.8567 32.0946 66.8567 44.8126V75.7775C66.8567 81.1548 64.8012 92.0737 54.2125 100.001C64.8012 107.931 66.8567 118.846 66.8567 124.23V155.195C66.8567 167.906 57.1836 178.248 45.2979 178.248C42.1566 178.248 39.16 177.526 36.4688 176.227C38.2919 186.024 46.8941 193.456 57.1933 193.456C65.6859 193.456 73.5168 188.907 76.8596 181.651C92.4273 197.244 118.258 197.764 133.829 182.171ZM89.7965 38.8692C93.0858 34.5069 98.8741 31.6049 105.446 31.6049C115.66 31.6049 123.978 38.6204 123.978 47.2474C123.978 51.8206 121.637 55.9377 117.914 58.806C121.637 61.6708 123.978 65.7945 123.978 70.3744C123.978 78.9919 115.661 86.021 105.446 86.021C98.874 86.021 93.0858 83.1123 89.7965 78.7468V38.8692ZM89.7965 121.255C93.0858 116.889 98.8741 113.985 105.446 113.985C115.66 113.985 123.978 121.013 123.978 129.637C123.978 134.21 121.637 138.331 117.914 141.196C121.637 144.058 123.978 148.187 123.978 152.754C123.978 161.385 115.661 168.407 105.446 168.407C98.874 168.407 93.0858 165.504 89.7965 161.132V121.255Z" fill="#BD3039"/>
<path fill-rule="evenodd" clip-rule="evenodd" d="M83.6885 37.0191C87.8271 30.1568 96.0127 25.4844 105.446 25.4844C119.06 25.4844 130.087 35.2281 130.087 47.2494C130.087 51.4979 128.708 55.4606 126.319 58.808C128.708 62.1581 130.087 66.1275 130.087 70.3763C130.087 82.3922 119.06 92.1403 105.446 92.1403C96.0135 92.1403 87.8276 87.4643 83.6885 80.6055V37.0191ZM83.6885 119.409C87.8271 112.547 96.0127 107.865 105.446 107.865C119.06 107.865 130.087 117.617 130.087 129.639C130.087 133.887 128.708 137.84 126.319 141.197C128.708 144.544 130.087 148.513 130.087 152.756C130.087 164.781 119.06 174.529 105.446 174.529C96.0135 174.529 87.8276 169.849 83.6885 162.99V119.409ZM89.7962 38.8701C93.0855 34.5078 98.8739 31.6058 105.446 31.6058C115.66 31.6058 123.978 38.6214 123.978 47.2484C123.978 51.8216 121.637 55.9387 117.913 58.807C121.637 61.6717 123.978 65.7955 123.978 70.3754C123.978 78.9928 115.66 86.022 105.446 86.022C98.8737 86.022 93.0855 83.1132 89.7962 78.7477V38.8701ZM89.7962 121.256C93.0855 116.89 98.8739 113.986 105.446 113.986C115.66 113.986 123.978 121.014 123.978 129.638C123.978 134.211 121.637 138.332 117.913 141.197C121.637 144.059 123.978 148.188 123.978 152.755C123.978 161.386 115.66 168.407 105.446 168.407C98.8737 168.407 93.0855 165.505 89.7962 161.133V121.256Z" fill="#0D2B56"/>
<path d="M105.65 31.6055C99.0776 31.6055 93.2893 34.5075 90 38.8698V78.7474C93.2893 83.1129 99.0775 86.0216 105.65 86.0216C115.864 86.0216 124.181 78.9925 124.181 70.375C124.181 65.7951 121.841 61.6714 118.117 58.8066C121.841 55.9383 124.181 51.8212 124.181 47.248C124.181 38.621 115.864 31.6055 105.65 31.6055ZM105.65 113.986C99.0776 113.986 93.2893 116.89 90 121.255V161.133C93.2893 165.505 99.0775 168.407 105.65 168.407C115.864 168.407 124.181 161.386 124.181 152.755C124.181 148.188 121.841 144.058 118.117 141.196C121.841 138.331 124.181 134.211 124.181 129.638C124.181 121.014 115.864 113.986 105.65 113.986Z" fill="white"/>
</svg>
