<svg width="200" height="200" viewBox="0 0 200 200" fill="none" xmlns="http://www.w3.org/2000/svg">
<path d="M180.056 117.545C172.981 112.531 164.457 111.417 156.212 110.302C140.446 108.241 128.022 106.625 126.24 80.831C123.621 43.3372 122.73 34.7019 113.259 27.8494C112.925 25.231 111.031 10.2446 111.031 10.2446C110.418 5.17483 105.738 1.55358 100.669 2.22212L71.8663 5.84336C69.4151 6.12192 67.2424 7.40329 65.6825 9.35319C64.6797 10.6903 64.0112 12.1945 63.844 13.8101C59.8329 13.5873 55.9332 15.9829 54.5404 19.9384C54.5404 19.9384 49.5822 33.9219 48.6351 36.5404C42.897 39.1031 38.273 47.237 33.1477 63.6162L30.2507 73.0871C24.624 91.6948 20.1114 106.403 11.6992 115.484C4.45685 123.227 0.557129 131.696 0.557129 139.439C0.557129 141.779 0.891391 144.064 1.61562 146.181C3.78833 152.643 10.2507 161.056 28.9694 164.454C39.2201 166.237 51.1421 173.591 62.6184 180.722C70.5293 185.624 78.9972 190.861 86.6295 194.037C91.5321 196.098 99.9443 199.719 123.398 193.814C124.624 193.535 127.187 192.477 128.022 188.41C128.189 187.574 128.301 186.571 128.301 185.513C128.301 177.602 122.786 163.841 107.855 151.083C118.496 152.142 130.474 154.704 139.276 157.769C153.872 162.894 181.281 166.404 197.047 154.983C198.329 154.147 199.777 152.253 199.889 148.799C199.889 141.612 193.872 127.294 180.056 117.545Z" fill="white"/>
<path d="M178.05 120.387C159.164 106.96 125.794 124.231 122.73 81.0544C120 41.8335 118.997 35.8167 109.972 29.7998L107.521 10.6351C107.131 7.51522 104.234 5.23105 101.114 5.67675L72.3118 9.29799C69.5263 9.63226 67.465 11.9164 67.2979 14.5906C68.3006 14.9806 70.1391 15.5934 72.3675 16.3733L72.1446 14.5349C72.0889 14.0335 72.4232 13.5878 72.9246 13.5321C73.426 13.4764 73.8717 13.8106 73.9274 14.312L74.2616 17.0419C75.4873 17.4876 76.8243 17.9333 78.1614 18.4347L77.6043 14.1449C77.5485 13.4764 77.9942 12.9192 78.607 12.8635C79.2199 12.8078 79.8327 13.2535 79.8884 13.8663L80.5569 19.3261C81.7268 19.716 82.841 20.1617 83.9552 20.5517L83.1196 13.7549C83.0082 12.9749 83.5653 12.2507 84.3452 12.195C85.1251 12.0836 85.8494 12.6407 85.9608 13.4206L86.9636 21.6102C88.0778 22.0002 89.1363 22.3902 90.0277 22.7245L88.802 13.0864C88.6906 12.3064 89.2477 11.5822 90.0277 11.5265C90.8076 11.415 91.5318 11.9721 91.5875 12.7521L92.9803 23.8387C93.3703 24.0058 93.6488 24.0615 93.6488 24.0615C94.7073 24.4515 95.6544 25.0086 96.4343 25.6772L94.763 12.1393C94.7073 11.5265 95.153 10.9136 95.7658 10.8579C96.3786 10.8022 96.9914 11.2479 97.0471 11.8607L99.2756 29.8555C99.6098 30.8026 99.777 31.8054 99.777 32.8082C99.777 33.811 99.6098 34.8696 99.2199 35.9281C99.2199 35.9281 94.2059 50.0788 93.2588 52.6415C94.3731 54.87 94.8745 57.1541 94.8745 59.5497C94.8745 66.6251 90.6962 74.2576 86.8522 81.2772C85.2366 84.2299 83.6767 87.0712 82.5068 89.6897C76.6015 104.119 73.7602 113.033 73.7602 119.105C73.7602 122.337 74.5402 124.732 76.1558 126.793C76.2115 122.949 76.9357 119.997 77.3257 118.548C81.114 119.774 92.3675 123.284 97.9942 124.509C97.9942 124.509 97.5485 136.097 98.9413 144.398C99.6098 144.9 100.167 145.401 100.557 145.735C101.281 146.237 102.005 146.738 102.73 147.295C115.432 148.02 130.529 151.195 140.278 154.594C155.432 159.886 181.003 162.393 194.93 152.198C198.997 149.691 194.039 131.752 178.05 120.387ZM104.345 31.9726C103.844 32.0283 103.398 31.694 103.342 31.1926L100.835 11.025C100.78 10.5236 101.114 10.078 101.615 10.0222C102.117 9.96653 102.562 10.3008 102.618 10.8022L105.125 30.9698C105.181 31.4154 104.847 31.9168 104.345 31.9726ZM191.309 148.521C186.462 151.752 179.944 153.368 173.036 153.869C171.532 153.925 170.585 153.368 170.25 152.198L165.237 138.604C164.735 137.49 164.679 136.432 166.239 135.652C166.239 135.652 176.49 131.195 177.66 130.582C178.83 129.969 180.223 128.855 181.615 130.248C188.468 137.49 191.309 145.401 191.309 148.465C191.365 148.41 191.309 148.465 191.309 148.521Z" fill="#C62033"/>
<path d="M99.0528 148.744C97.66 147.63 89.5263 140.61 77.9943 132.81C66.4622 125.011 69.1363 113.367 79.4985 88.074C84.5681 76.6532 96.1558 62.391 89.582 52.7529L96.0444 34.5353C97.1029 31.5269 95.543 28.2399 92.5347 27.1814L65.1809 17.4876C62.1726 16.429 58.8857 17.989 57.8272 20.9974L51.4205 39.2708C46.4065 40.385 41.8383 47.7389 36.5458 64.6195C29.3592 87.684 24.7352 106.57 14.3174 117.824C-0.557247 133.813 -2.22855 155.262 29.582 161C47.855 164.176 69.4149 183.062 87.6879 190.695C92.089 192.533 99.2199 196.266 122.563 190.416C127.632 189.413 125.682 167.24 99.0528 148.744ZM27.7436 155.429C17.8272 153.145 11.6433 149.078 9.74916 143.451C7.85501 137.713 10.362 130.192 16.4901 122.894C23.4539 125.568 29.3035 128.799 33.6489 131.752C30.5848 138.27 28.4678 146.46 27.7436 155.429ZM91.0862 31.3597C91.5319 31.5269 91.8104 32.0283 91.6433 32.5297L84.7909 51.6387C84.6238 52.0844 84.1224 52.3629 83.621 52.1958C83.1753 52.0287 82.8968 51.5273 83.0639 51.0259L89.9163 31.9168C90.0834 31.4154 90.5848 31.1926 91.0862 31.3597ZM85.6266 29.4098C86.2394 29.6327 86.5737 30.3012 86.3508 30.914L79.6656 49.5217C79.4427 50.1345 78.7742 50.4688 78.1614 50.2459C77.5486 50.0231 77.27 49.3545 77.4372 48.7417L84.1224 30.0784C84.3453 29.5212 85.0138 29.187 85.6266 29.4098ZM80.167 27.4599C80.8912 27.7385 81.2812 28.5184 81.0026 29.2984L74.4845 47.4603C74.206 48.1846 73.426 48.5746 72.6461 48.3517C71.9219 48.0732 71.5319 47.2932 71.8104 46.5132L78.2728 28.3513C78.6071 27.5713 79.4427 27.1814 80.167 27.4599ZM56.4344 42.4463C55.9887 42.2792 55.7102 41.7778 55.8773 41.2764L62.674 22.1673C62.8411 21.7216 63.3425 21.4431 63.8439 21.6102C64.2895 21.7773 64.5681 22.2788 64.401 22.7802L57.5486 41.8892C57.3815 42.3906 56.8801 42.6134 56.4344 42.4463ZM61.894 44.3962C61.2812 44.1734 60.9469 43.5048 61.1698 42.892L67.7993 24.2844C68.0221 23.6715 68.6907 23.3373 69.3035 23.5601C69.9163 23.783 70.1948 24.4515 70.0277 25.0643L63.3425 43.7277C63.1196 44.2848 62.4511 44.6191 61.894 44.3962ZM67.2979 46.3461C66.5737 46.0676 66.1837 45.2876 66.4622 44.5076L72.9246 26.3457C73.2032 25.6214 73.9831 25.2315 74.7631 25.51C75.4873 25.7886 75.8773 26.5685 75.5987 27.3485L69.1363 45.5104C68.8578 46.2347 68.0779 46.6247 67.2979 46.3461ZM119.721 185.848C111.086 187.909 105.069 188.522 100.668 188.466C99.1085 188.689 97.8271 187.909 97.5486 186.07L95.933 171.864C95.9887 170.416 96.4344 169.19 98.2171 169.134C102.451 169.19 107.521 168.744 109.081 168.243C111.42 167.463 112.033 167.741 112.312 168.131C118.05 175.82 119.777 182.394 119.777 185.458C119.777 185.625 119.721 185.736 119.721 185.848Z" fill="#C62033"/>
<path d="M171.42 164.12H172.256V166.515H172.813V164.12H173.705V163.674H171.42V164.12Z" fill="#C62033"/>
<path d="M175.822 165.679L175.042 163.674H174.262V166.515H174.763V164.287H174.819L175.654 166.515H176.044L176.88 164.287V166.515H177.381V163.674H176.602L175.822 165.679Z" fill="#C62033"/>
</svg>
