<svg width="200" height="200" viewBox="0 0 200 200" fill="none" xmlns="http://www.w3.org/2000/svg">
<path d="M154.362 180.157L143.196 162.552L163.32 137.439L170 142.798L169.98 128.506L160.969 120.449L136.05 151.239L132.536 145.701C135.578 143.44 139.496 140.534 139.921 140.317C140.652 139.958 142.445 138.89 143.344 138.89C144.148 138.89 142.082 135.304 136.134 135.317L136.108 103.676L139.519 99.9358C139.519 99.9358 135.377 100.579 133.408 99.9868C132.99 99.8588 132.283 99.5246 131.421 99.0743C132.637 97.1705 133.601 95.1192 134.289 92.9708C138.328 80.2591 135.467 68.0238 125.985 61.0197C119.145 55.9711 91.2214 41.8976 91.2214 41.8976C91.2214 41.8976 74.3015 33.6847 72.4716 31.8856C71.1752 30.601 68.5084 28.5839 68.5012 22.247C68.5012 18.4569 72.7485 14.2805 74.5725 13.4178C77.4971 12.043 78.4641 11.403 84.3921 11.2987C87.7381 11.2608 90.8501 12.0454 91.2715 12.0833C94.9661 12.4685 103.698 15.3341 108.203 21.3747C109.944 23.0837 110.28 28.1086 110.28 28.1086L117.311 32.5683L132.591 12.7114L124.307 7.18515C121.969 9.67748 117.467 9.84458 115.652 8.97114C113.862 8.08229 98.41 2.50625 96.2219 1.81295C92.0773 0.48916 83.0671 -0.473166 78.2181 0.245023C73.3525 0.965583 65.3784 2.4304 59.1389 9.01144C51.8452 16.7219 51.7616 22.8775 51.7664 26.1804C51.7784 31.3737 53.1392 38.2368 58.9837 44.019C67.4233 52.3979 80.2439 57.603 83.1446 59.1851C88.2538 61.9974 104.393 70.3763 106.737 71.7001C116.641 77.4195 120.415 83.4981 119.353 91.1837C119.307 91.5558 119.171 91.9184 119.1 92.2764C114.757 89.7449 108.655 85.9406 106.207 83.5111C106.207 83.5111 104.712 85.079 103.76 86.0035L96.5621 91.3875C97.4371 87.9186 97.5207 81.9657 97.3834 81.3637C97.196 80.6704 96.66 74.9379 91.6105 71.3778C88.1798 68.9482 80.5232 64.4092 73.941 61.1975C71.1238 59.8227 61.9477 54.3356 57.5536 50.6972C57.5536 50.6972 49.9878 43.7073 48.8155 39.4148C46.557 34.506 46.452 22.8751 47.6302 21.7184C47.6302 21.7184 44.7557 24.9574 42.7813 31.3831C41.8108 34.5178 41.1626 38.6184 41.1626 41.3939C41.1626 46.0325 41.9862 54.1697 47.1121 61.0434C49.3837 64.0773 52.9434 67.5344 56.7096 69.9769C61.2816 72.9836 65.9132 74.7447 66.226 74.9782C67.4818 75.8623 79.3653 80.8375 80.4516 81.3637C81.5319 81.9029 89.1634 85.8103 89.4618 85.9146C91.8051 86.7619 94.7691 89.9085 95.6632 92.0571L83.3655 101.235C83.3655 101.235 83.8967 102.211 83.9027 103.727V104.897C82.2398 104.345 80.5387 103.869 78.8616 103.586C70.7586 102.235 65.8261 102.313 59.4182 103.882C52.2988 105.642 44.8357 108.508 37.8118 115.461C29.9046 123.353 30.0001 128.647 30.0001 128.647L37.9144 123.996C44.5277 120.281 53.261 118.059 59.4158 118.059C74.2836 118.047 81.8697 122.302 83.9134 124.652C83.9253 131.952 83.9337 138.466 83.9337 138.774C83.9337 141.575 83.0802 141.948 82.4594 142.463C82.2123 142.68 81.9939 142.705 81.1392 143.284C81.1392 143.284 82.2255 143.683 82.5036 143.953C83.2151 144.479 111.248 161.251 111.248 161.251L122.109 153.346L127.476 161.832L112.602 180.207L102.33 170.928L102.352 188.254L114.062 198.97L134.702 173.19L151.691 200L165.354 189.087L165.342 171.917L154.363 180.154L154.362 180.157ZM106.458 99.6941C108.115 101.107 110.123 102.418 112.128 103.574C112.078 103.619 112.026 103.663 111.973 103.705C111.973 103.705 104.743 109.832 100.128 110.566V104.321C100.218 104.243 106.458 99.6941 106.458 99.6941ZM111.171 144.903C111.171 144.8 100.109 138.118 100.109 138.118C100.136 138.118 100.136 130.742 100.136 122.863V121.362C104.861 120.449 116.039 115.14 121.955 109.345C122.003 110.219 122.015 114.524 122.015 119.473C122.015 122.684 122.003 126.089 122.003 129.033L115.237 118.367L104.771 125.768L104.783 138.968L110.578 135.164L114.867 141.924C113.635 142.916 112.402 143.909 111.171 144.903Z" fill="black"/>
</svg>
