<svg width="200" height="200" viewBox="0 0 200 200" fill="none" xmlns="http://www.w3.org/2000/svg">
<path d="M99.9995 3.57275C74.4252 3.57275 49.8983 13.7321 31.8145 31.8159C13.7307 49.8997 3.57129 74.4266 3.57129 100.001C3.57129 125.575 13.7307 150.102 31.8145 168.186C49.8983 186.27 74.4252 196.429 99.9995 196.429C117.348 196.462 134.385 191.814 149.313 182.975C164.241 174.136 176.508 161.434 184.821 146.206L150.446 125.671C144.661 136.944 135.253 145.945 123.735 151.225C112.216 156.506 99.2565 157.759 86.9396 154.783C74.6228 151.808 63.6646 144.776 55.827 134.82C47.9894 124.864 43.728 112.561 43.728 99.8894C43.728 87.2182 47.9894 74.9153 55.827 64.9588C63.6646 55.0024 74.6228 47.9711 86.9396 44.9955C99.2565 42.02 112.216 43.2731 123.735 48.5535C135.253 53.8339 144.661 62.8345 150.446 74.1082L184.821 53.5726C176.478 38.3868 164.199 25.7292 149.273 16.9307C134.347 8.13219 117.326 3.51782 99.9995 3.57275Z" fill="#CC3433"/>
<path fill-rule="evenodd" clip-rule="evenodd" d="M99.9948 0.572751C117.858 0.516963 135.407 5.27486 150.796 14.3463C166.187 23.4185 178.848 36.4699 187.45 52.1282L188.843 54.6641L149.237 78.3247L147.777 75.4778C142.299 64.803 133.391 56.2804 122.484 51.2806C111.578 46.2808 99.3067 45.0942 87.6441 47.9116C75.9816 50.7291 65.6055 57.3869 58.1843 66.8144C50.7631 76.242 46.728 87.8914 46.728 99.8894C46.728 111.887 50.7631 123.537 58.1843 132.964C65.6055 142.392 75.9816 149.05 87.6441 151.867C99.3067 154.685 111.578 153.498 122.484 148.498C133.391 143.498 142.299 134.976 147.777 124.301L149.237 121.454L188.837 145.111L187.454 147.644C178.882 163.345 166.234 176.443 150.841 185.557C135.449 194.671 117.882 199.463 99.9938 199.429C73.6259 199.428 48.3382 188.952 29.6931 170.307C11.0467 151.661 0.571289 126.371 0.571289 100.001C0.571289 73.631 11.0467 48.341 29.6931 29.6946C48.3384 11.0493 73.6265 0.574016 99.9948 0.572751ZM147.749 19.5151C133.288 10.9903 116.796 6.51951 100.009 6.57274L99.9995 6.57275C75.2208 6.57275 51.457 16.4161 33.9358 33.9373C16.4146 51.4584 6.57129 75.2223 6.57129 100.001C6.57129 124.78 16.4146 148.544 33.9358 166.065C51.457 183.586 75.2208 193.429 99.9995 193.429H100.005C116.814 193.461 133.32 188.958 147.784 180.394C161.42 172.32 172.764 160.92 180.766 147.279L151.58 129.843C145.423 140.404 136.145 148.836 124.985 153.952C112.854 159.513 99.2063 160.833 86.2352 157.699C73.264 154.566 61.7236 147.161 53.4697 136.676C45.2158 126.19 40.728 113.234 40.728 99.8894C40.728 86.5451 45.2158 73.5886 53.4697 63.1032C61.7236 52.6179 73.264 45.213 86.2352 42.0794C99.2063 38.9458 112.854 40.2655 124.985 45.8264C136.145 50.9424 145.423 59.3745 151.58 69.9359L180.76 52.504C172.732 38.906 161.38 27.5498 147.749 19.5151Z" fill="white"/>
</svg>
