<svg width="200" height="200" viewBox="0 0 200 200" fill="none" xmlns="http://www.w3.org/2000/svg">
<g clip-path="url(#clip0_18_1239)">
<path d="M0 99.9996C0 44.7736 44.7706 0 99.9897 0C155.229 0 200 44.7736 200 99.9996C200 155.226 155.229 199.999 99.9906 199.999C44.7715 199.999 0 155.226 0 99.9996Z" fill="white"/>
<path d="M6.44775 99.6059C6.44775 47.965 48.3155 6.08984 99.9639 6.08984C151.607 6.08984 193.489 47.965 193.489 99.6059C193.489 151.247 151.607 193.131 99.9639 193.131C48.3155 193.131 6.44775 151.247 6.44775 99.6059ZM99.9639 168.695C138.108 168.695 169.039 137.759 169.039 99.6059C169.039 61.4622 138.109 30.5334 99.963 30.5334C61.8125 30.5334 30.8856 61.4614 30.8856 99.6059C30.8873 137.759 61.8133 168.695 99.9639 168.695Z" fill="#0E3386"/>
<path d="M130.376 119.139C123.943 129.126 112.73 135.748 99.9638 135.748C80.0036 135.748 63.835 119.57 63.835 99.6068C63.835 79.6698 80.0036 63.4745 99.9638 63.4745C113.115 63.4745 124.634 70.5164 130.962 81.0329L148.745 63.6852C137.703 48.7238 119.974 39.0293 99.9638 39.0293C66.5143 39.0293 39.3843 66.1726 39.3843 99.606C39.3843 133.057 66.5143 160.172 99.9638 160.172C119.763 160.172 137.336 150.689 148.384 136.021L130.376 119.139Z" fill="#CC3433"/>
<path d="M89.2722 105.616V83.6484H100.156V105.88C100.156 113.864 98.2718 115.73 91.9378 115.73H80.6201C75.4019 115.73 73.7158 112.354 73.7158 105.295V83.6484H84.5934V105.615C84.5934 108.606 89.2722 108.607 89.2722 105.616ZM104.097 115.73V83.6484H121.277C127.747 83.6484 130.523 85.1674 130.523 92.6759C130.523 96.6173 129.773 98.6655 127.519 99.8C130.523 101.482 130.523 104.674 130.523 107.489C130.523 114.605 127.376 115.73 121.277 115.73H104.097Z" fill="#CC3433"/>
<path d="M120.152 92.3891C120.115 91.0816 118.881 91.1733 115.524 91.1733V95.6729C117.399 95.6729 120.153 95.8647 120.153 94.1727V92.3891H120.152ZM120.073 105.458C119.502 103.921 119.183 104.105 115.524 104.105V108.604C117.866 108.604 120.074 108.796 120.074 107.106C120.074 106.693 120.186 105.778 120.074 105.458H120.073Z" fill="white"/>
<path d="M152.229 115.73C158.086 115.73 161.119 114.139 161.119 108.962C161.119 108.331 161.087 102.424 161.087 101.783C161.119 98.0241 158.417 95.5821 154.639 95.5821H146.802C144.675 95.5821 145.151 92.4824 145.151 91.5491C145.151 90.0507 149.581 89.5831 149.581 92.0252V93.5151H161.119C161.119 86.0263 159.752 83.6484 152.229 83.6484C150.491 83.6767 144.086 83.6767 142.09 83.6767C137.272 83.6767 134.638 85.5605 134.455 91.1758C134.28 96.8014 134.455 94.3593 134.455 96.4349C134.455 98.4839 134.138 103.084 140.449 103.084H148.409C150.664 103.084 150.216 105.708 150.216 105.708V107.381C150.216 109.274 146.411 109.357 145.552 107.801C144.985 106.778 145.287 105.15 145.287 105.15H134.455C134.455 107.381 133.237 115.731 139.777 115.731H152.227L152.229 115.73Z" fill="#CC3433"/>
</g>
<defs>
<clipPath id="clip0_18_1239">
<rect width="200" height="200" fill="white"/>
</clipPath>
</defs>
</svg>
