<svg width="200" height="200" viewBox="0 0 200 200" fill="none" xmlns="http://www.w3.org/2000/svg">
<g clip-path="url(#clip0_18_1225)">
<path d="M50.8763 16.6963C45.7073 22.2016 40.7213 33.124 40.0008 40.5172C39.7721 42.873 39.6543 45.0847 39.6543 47.1386C39.6543 54.5547 41.173 60.2395 44.4894 65.779C48.6383 72.692 55.2048 78.3871 63.4981 82.2398C71.3145 85.8695 82.5662 90.9173 83.918 91.4537C84.3754 91.6446 84.962 91.934 85.6047 92.2473C83.0202 94.0999 81.4993 95.2069 80.2756 96.1012C73.3135 94.5036 64.5582 95.7318 62.5203 96.2236C54.2408 98.1791 46.6451 101.909 41.1467 106.722C35.5386 111.637 31.3233 117.266 29.8996 121.799C28.3134 126.846 28.8269 130.421 31.424 132.442C35.2481 135.425 40.1907 132.376 41.8043 131.36C45.1321 129.261 51.2617 125.418 58.9924 124.259C65.7029 123.264 74.7167 124.19 78.8702 126.882V134.219C77.8581 135.123 76.8026 136.106 76.8026 136.106C75.7642 137.133 75.2015 138.563 75.2015 140.048C75.2015 140.731 75.3228 141.434 75.5744 142.104C76.2662 143.991 77.8524 144.785 77.8524 144.785C91.2095 152.916 91.2094 152.916 100.198 158.409C100.065 158.455 99.8092 158.467 99.7086 158.521C98.5192 159.036 95.7712 160.755 95.7712 165.545V185.101L107.39 196.202C109.963 198.781 112.461 199.217 114.107 199.106C116.135 198.98 117.977 197.988 119.284 196.312C119.284 196.312 127.024 186.375 131.826 180.231C135.371 185.726 140.968 194.392 140.968 194.392C140.913 194.281 141.103 194.684 141.103 194.684C141.75 196.079 143.102 198.984 146.279 199.798C147.685 200.167 149.909 200.212 152.494 198.323C155.966 195.8 164.044 189.491 165.436 188.117L165.688 187.849C166.654 186.911 168.105 185.47 168.105 183.114V164.44C168.105 162.431 167.03 159.896 164.56 158.891C162.757 158.176 160.691 158.176 158.24 160.197C157.134 161.08 155.264 162.431 152.533 164.508C150.941 161.973 150.097 160.622 148.896 158.712C151.249 155.753 156.833 148.706 159.971 144.763C160.368 145.076 161.183 145.735 161.183 145.735L161.32 145.824C164.61 148.013 167.113 147.197 168.319 146.517C171.574 144.674 171.641 140.575 171.585 139.347L171.591 123.691L161.718 113.449C160.289 111.852 158.278 111.014 156.229 111.182C154.136 111.35 152.198 112.545 151.053 114.354C150.521 115.125 145.827 121.021 140.955 127.085V106.592C141.554 105.978 142.179 105.353 142.179 105.353C143.068 104.571 145.067 102.103 145.067 99.2003C145.067 98.5062 144.96 97.7914 144.687 97.0652C144.117 95.558 142.743 93.8266 139.724 93.1119C140.506 90.0707 140.935 86.9494 141.001 83.8099C141.007 83.5744 141.013 83.3411 141.013 83.0952C141.013 76.2486 139.432 70.4746 136.304 65.9185C132.608 60.5128 129.732 58.6934 125.769 56.1695L124.746 55.5211C120.128 52.5729 95.8776 39.8425 94.8495 39.2707C94.766 39.2387 85.5521 34.6827 85.5521 34.6827C79.4717 31.611 79.0474 29.4565 79.0474 28.2946V28.0819C79.1869 27.3797 80.8406 24.8227 84.3136 24.8227C87.8645 24.8227 90.3666 24.9222 95.0519 26.5083C102.467 28.999 102.684 32.0147 102.684 33.1297C102.678 33.4098 102.444 36.5376 102.444 36.5376L117.882 47.0791L141.025 17.3882L122.236 4.82593L119.743 7.30408C118.913 8.15262 118.394 8.62149 118.085 8.8342C117.638 8.76962 117.192 8.69872 116.747 8.62149L112.596 7.04449C106.077 4.40052 95.1537 0 85.2262 0C67.8586 0 58.7328 8.25326 50.8763 16.6963Z" fill="white"/>
<path d="M53.4512 19.0793C48.7739 24.0482 44.0989 34.2661 43.4505 40.9332C43.2451 43.0084 43.1371 45.092 43.1269 47.1772C43.1269 53.9896 44.4877 59.1597 47.4702 64.1526C51.2726 70.4961 57.3542 75.7337 65.0311 79.2959C73.1894 83.0926 84.129 87.9941 85.3298 88.4744C87.5632 89.3892 90.9562 91.2327 91.8516 92.1933C90.6897 93.0418 81.7332 99.542 81.1637 99.9434C75.2788 98.0336 66.0226 99.1063 63.3969 99.7089C55.6297 101.562 48.5486 105.027 43.4448 109.492C38.3421 113.949 34.4276 119.13 33.1868 123.051C32.0661 126.603 32.1942 128.937 33.5562 130.009C34.8736 131.025 37.0075 130.589 40.0666 128.714C43.3339 126.636 50.1302 122.37 58.5836 121.109C64.8539 120.194 71.1401 120.908 75.8712 122.081C75.8712 122.081 79.5123 123.197 82.393 125.14V135.972C81.9013 136.418 79.3282 138.762 79.3282 138.762C78.8971 139.176 78.7358 139.746 78.7358 140.295C78.7358 140.617 78.793 140.919 78.8925 141.187C79.1269 141.812 79.7468 142.136 79.7468 142.136L111.598 161.535C111.598 161.535 119.159 155.771 120.484 154.767C121.002 155.627 121.661 156.722 122.018 157.335C121.325 158.174 113.167 168.147 112.156 169.375L105.043 163.021C103.273 161.391 101.887 161.626 101.229 161.915C100.023 162.462 99.3364 163.882 99.3364 165.846V183.995L109.967 194.157C111.665 195.832 113.128 196.112 114.073 196.055C115.121 195.989 116.088 195.464 116.779 194.57C116.779 194.57 129.075 178.778 132.286 174.669L144.069 192.884L144.426 193.587C144.952 194.737 145.749 196.435 147.369 196.849C148.385 197.116 149.524 196.803 150.731 195.922C154.196 193.409 162.167 187.166 163.288 186.038L163.562 185.768C164.343 184.987 164.963 184.373 164.963 183.435V164.74C164.963 163.857 164.467 162.741 163.495 162.339C162.855 162.048 161.798 161.992 160.474 163.276C160.542 163.21 154.058 168.114 151.865 169.765L144.957 158.775C145.684 157.883 158.661 141.489 159.655 140.249C160.65 141.042 163.429 143.219 163.429 143.219C164.835 144.145 165.987 144.336 166.913 143.8C168.556 142.885 168.468 140.092 168.457 139.769V125.273L159.426 115.925C158.701 115.11 157.762 114.719 156.773 114.786C155.741 114.875 154.764 115.489 154.2 116.382C153.72 117.143 146.74 125.874 141.838 131.973C140.557 130.957 138.75 130.22 137.778 129.896V105.405C138.102 105.071 140.162 102.972 140.162 102.972C140.509 102.67 141.893 101.073 141.893 99.4093C141.898 99.0848 141.84 98.7624 141.721 98.4602C141.202 97.065 139.583 96.3605 136.925 96.3605C136.879 96.3605 136.042 96.4406 135.244 96.5172C137.204 92.0618 137.773 87.293 137.817 83.9206C137.817 83.6965 137.824 83.4746 137.824 83.2619C137.824 77.1094 136.445 71.9598 133.714 67.9722C130.403 63.1371 128.046 61.6401 124.153 59.1837L123.105 58.5033C118.605 55.6329 94.443 42.9357 93.4103 42.3993C93.3932 42.3879 84.1747 37.8204 84.1747 37.8204C76.9152 34.1449 75.7545 30.9509 75.7545 28.2943C75.7545 28.1708 75.7545 28.0588 75.7659 27.9364C75.8323 25.7476 78.976 21.4694 84.448 21.4694C88.2447 21.4694 91.1152 21.5929 96.2922 23.3243C103.01 25.5795 106.27 28.841 106.27 33.3078C106.263 33.3307 106.152 34.9043 106.152 34.9043L117.354 42.5548L136.296 18.2182L122.859 9.22962L122.341 9.74423C119.453 12.6467 119.337 12.6123 116.253 11.9971C115.439 11.8313 113.708 11.1508 111.496 10.2337C105.198 7.69721 94.6443 3.43164 85.3469 3.43164C69.3207 3.43164 61.1178 10.8261 53.4512 19.0793ZM81.8921 101.61L93.9409 92.8543V92.4197C93.8014 90.3979 88.0332 87.7173 85.9999 86.8356C84.8449 86.3439 73.7487 81.3979 65.7744 77.7006C58.4212 74.2836 52.6118 69.269 48.9889 63.2503C46.3529 58.8269 44.0486 53.0987 45.2151 41.1151C45.812 34.8711 50.3566 24.9676 54.7526 20.2869C62.1344 12.3333 70.0343 5.20877 85.3458 5.20877C94.3023 5.20877 104.649 9.38515 110.842 11.8873C113.209 12.8479 114.936 13.5615 115.913 13.7399C119.301 14.4112 120.201 14.2888 123.066 11.5065C124.061 12.1778 132.424 17.7619 133.731 18.6448C132.664 20.0056 117.9 38.9583 116.962 40.1533C115.839 39.3722 108.709 34.5154 107.994 34.0123C108.017 33.7104 108.033 33.3856 108.033 33.3856C108.033 28.0588 104.276 24.1385 96.8434 21.6375C91.4262 19.8272 88.2939 19.6934 84.4412 19.6934C77.7741 19.6934 74.0883 25.0088 73.9888 27.8563C73.8093 32.4696 76.7128 36.0444 83.3742 39.3928L92.6052 43.9832C92.834 44.0952 117.71 57.1721 122.15 59.9979L123.202 60.6681C127.025 63.1131 129.153 64.4305 132.259 68.9762C134.86 72.7958 136.144 77.8219 136.037 83.8966C135.987 87.4486 135.429 92.6073 133.068 97.1084L132.313 98.5494L137.01 98.1262C138.691 98.1262 139.83 98.4807 140.058 99.064C140.349 99.8553 139.365 101.319 138.997 101.643L135.932 104.758L135.999 105.048V131.202L136.641 131.383C138.048 131.817 140.544 132.824 141.23 133.761L141.917 134.711L142.633 133.784C143.902 132.231 154.98 118.46 155.7 117.322C155.968 116.899 156.444 116.597 156.917 116.575C157.348 116.52 157.745 116.72 158.106 117.112C158.106 117.112 165.439 124.717 166.683 126.001V140.026C166.683 140.886 166.483 142.016 166.031 142.271C165.757 142.428 165.166 142.237 164.462 141.768L159.376 137.771L142.796 158.653L151.39 172.369L161.619 164.618C162.262 164.004 162.642 163.903 162.809 163.97C163.022 164.048 163.194 164.451 163.194 164.741V183.435C163.194 183.637 162.792 184.05 162.311 184.508L162.044 184.777C161.044 185.783 153.316 191.858 149.693 194.481C148.933 195.042 148.296 195.253 147.804 195.142C147 194.941 146.436 193.724 146.035 192.841L145.566 191.927L132.426 171.611L115.384 193.48C115.116 193.825 114.652 194.239 113.966 194.294C113.128 194.351 112.19 193.859 111.224 192.91C111.224 192.91 101.636 183.741 101.106 183.239V165.849C101.106 164.431 101.535 163.739 101.944 163.551C102.39 163.36 103.11 163.65 103.854 164.354C103.87 164.365 112.362 171.936 112.362 171.936L124.178 157.484L120.979 152.157C120.979 152.157 112.347 158.735 111.487 159.394C110.487 158.813 80.6239 140.588 80.5644 140.565C80.5257 140.481 80.5062 140.389 80.5073 140.297C80.5073 140.183 80.5301 140.061 80.585 140.005L84.1644 136.755L84.1702 136.364V124.149L83.7585 123.891C81.3501 122.339 79.4014 121.211 75.9283 120.34C70.0617 118.842 63.1476 118.586 58.3343 119.368C49.5172 120.775 42.4933 125.086 39.1312 127.208C35.8926 129.218 34.877 128.782 34.6415 128.591C34.1497 128.214 33.9096 126.672 34.8816 123.589C35.9989 120.026 39.8242 115.001 44.6135 110.823C49.5115 106.546 56.3238 103.219 63.8063 101.443C66.7488 100.751 75.8906 99.8565 81.0665 101.722L81.5125 101.89L81.8933 101.611L81.8921 101.61Z" fill="black"/>
<path d="M164.995 139.618V126.318L156.688 118.857L133.677 147.424L130.448 142.275C133.248 140.186 136.855 137.483 137.257 137.294C137.927 136.959 139.586 135.954 140.411 135.954C141.166 135.954 139.256 132.638 133.773 132.638V103.243L136.927 99.7367C136.927 99.7367 133.091 100.351 131.282 99.8144C130.896 99.6806 130.241 99.3799 129.46 98.9659C130.586 97.1894 131.477 95.2753 132.114 93.2708C135.887 81.3661 133.419 70.3763 124.474 63.5971C118.2 58.8523 92.4231 45.8086 92.4231 45.8086C92.4231 45.8086 76.8269 38.1695 75.1458 36.4724C73.9393 35.2773 71.4886 33.4122 71.4886 27.5044C71.4886 23.9867 75.4088 20.1225 77.1002 19.3278C79.7933 18.0447 80.6682 17.4408 86.1528 17.3528C89.2462 17.3185 92.1109 18.0549 92.502 18.0995C95.8984 18.4575 103.965 21.1152 108.109 26.7336C109.712 28.3186 110.024 32.997 110.024 32.997L116.497 37.1414L130.615 18.7034L122.976 13.5572C120.815 15.9016 116.673 16.0457 114.997 15.22C113.339 14.3818 99.0902 9.18873 97.0683 8.5529C93.2488 7.32354 84.9463 6.41897 80.4612 7.08911C75.9783 7.73752 68.6182 9.11097 62.85 15.22C56.1257 22.3674 56.0434 28.0853 56.0434 31.1673C56.0434 35.9795 57.2899 42.3344 62.6933 47.7378C70.4605 55.5119 82.2875 60.3928 84.9452 61.844C89.6648 64.4685 104.552 72.262 106.702 73.5028C115.843 78.8205 119.327 84.4698 118.328 91.6172C118.284 91.9637 118.167 92.2988 118.094 92.6236C114.092 90.2884 108.462 86.7375 106.194 84.4698C106.194 84.4698 104.838 85.9222 103.966 86.7913L97.3336 91.7739C98.1147 88.5467 98.2028 83.0289 98.0655 82.4823C97.9032 81.8121 97.4 76.4967 92.7547 73.1906C89.5984 70.9343 82.5425 66.7019 76.4769 63.7217C73.8753 62.4363 65.4047 57.3097 61.3667 53.9372C61.3667 53.9372 54.3829 47.4382 53.3102 43.4505C51.2334 38.8842 51.1488 28.0853 52.2215 27.0012C52.2215 27.0012 49.5684 29.9951 47.7501 35.9806C46.8501 38.8968 46.252 42.7049 46.252 45.2837C46.252 49.595 47.0067 57.1541 51.7252 63.5536C53.8122 66.3668 57.0886 69.5723 60.5514 71.8618C64.7895 74.6407 69.0505 76.284 69.3295 76.4967C70.496 77.3338 81.463 81.9574 82.4522 82.4594C83.4505 82.9511 88.4812 85.3069 89.5481 85.8673C93.3277 87.8983 95.2718 89.1837 96.4725 92.42L85.103 100.92C85.103 100.92 85.6062 101.824 85.6062 103.242V104.328C84.0761 103.814 82.5116 103.368 80.9598 103.098C73.4888 101.824 68.9373 101.891 63.0238 103.365C56.4596 104.985 49.5684 107.631 43.0911 114.108C35.7836 121.436 35.8614 126.317 35.8614 126.317L43.1723 122.017C49.2813 118.577 57.3276 116.534 63.0227 116.534C76.5993 116.534 83.6461 120.442 85.6062 122.631V135.797C85.6062 138.41 84.824 138.745 84.2373 139.237C84.02 139.428 83.8199 139.45 83.0365 139.986C83.0365 139.986 84.0315 140.355 84.2773 140.612C84.9475 141.104 110.802 156.727 110.802 156.727L120.813 149.379L125.76 157.252L112.012 174.326L102.554 165.695V181.799L113.34 191.771L132.404 167.839L148.062 192.767L160.681 182.637V166.702L150.547 174.329L140.272 157.957L158.849 134.639L164.997 139.619L164.995 139.618ZM100.474 103.747L106.371 99.4245C107.972 100.743 109.856 101.971 111.737 103.054C111.608 103.155 111.52 103.244 111.52 103.244C111.52 103.244 104.715 109.051 100.473 109.665V103.748L100.474 103.747ZM110.801 141.606L100.474 135.298V119.662C104.797 118.892 115.355 113.865 120.818 108.405C120.889 109.423 120.862 119.875 120.839 126.954L114.507 116.848L104.848 123.728V136.013L110.192 132.472L114.19 138.848L110.801 141.606Z" fill="black"/>
</g>
<defs>
<clipPath id="clip0_18_1225">
<rect width="200" height="200" fill="white"/>
</clipPath>
</defs>
</svg>
