<svg width="200" height="200" viewBox="0 0 200 200" fill="none" xmlns="http://www.w3.org/2000/svg">
<g clip-path="url(#clip0_18_1266)">
<path d="M114.787 57.7348C140.868 57.7348 160.551 69.7823 167.161 80.2372H200C199.401 79.0453 197.929 75.0586 197.929 75.0586H166.568C159.957 64.6036 139.368 52.5547 113.282 52.5547C68.9251 52.5547 51.5215 82.057 51.5215 96.187C51.5215 104.371 53.9022 111.567 57.9535 117.699C55.3049 112.713 54.6783 105.202 54.6783 100.344C54.6783 86.2125 71.4242 57.7355 114.785 57.7355L114.787 57.7348Z" fill="black"/>
<path d="M112.117 166.182C66.7705 166.182 48.9437 146.718 27.9475 124.405C19.3338 115.253 13.9501 106.99 0 96.6953L2.86903 103.325C16.2783 114.303 21.8159 122.233 30.426 131.382C51.4266 153.697 68.9485 171.262 114.301 171.262C153.996 171.262 184.732 151.633 199.177 127.475L197.01 122.392C182.554 146.549 151.829 166.18 112.117 166.18V166.182Z" fill="black"/>
<path d="M113.284 52.5537C139.37 52.5537 159.958 64.6027 166.567 75.0576H197.929C183.39 46.3179 145.846 29 108.303 29C71.4262 29 43.2486 50.2816 27.0805 69.4496C11.4007 88.029 4.19628 93.9865 1.4397 95.8573C0.429097 96.5466 0 96.6983 0 96.6983C13.9494 106.992 19.3338 115.256 27.9475 124.405C48.9437 146.719 66.7705 166.182 112.117 166.182C151.829 166.182 182.554 146.553 197.009 122.395H166C151.485 133.421 133.717 142.318 111.127 142.318C90.2643 142.318 68.4721 133.608 57.9562 117.697C53.9042 111.567 51.5227 104.37 51.5227 96.186C51.5227 82.056 68.9271 52.5545 113.283 52.5545L113.284 52.5537Z" fill="#C6011F"/>
</g>
<defs>
<clipPath id="clip0_18_1266">
<rect width="200" height="200" fill="white"/>
</clipPath>
</defs>
</svg>
