<svg width="200" height="200" viewBox="0 0 200 200" fill="none" xmlns="http://www.w3.org/2000/svg">
<path d="M171.14 86.8048C172.205 85.3542 173.166 83.937 174.063 82.4925C174.838 84.6269 175.434 86.885 175.838 89.2198C174.318 88.6334 172.706 87.806 171.14 86.8048ZM133.337 91.6422C132.66 91.9641 131.941 92.2993 131.157 92.658L132.721 85.7029C133.479 84.8513 134.24 84.092 135.241 83.1857L135.362 83.2097L133.337 91.6422ZM100.348 95.857L98.075 97.3163L99.638 90.3131C100.396 89.4649 101.156 88.7056 102.155 87.8026L102.274 87.8246L100.348 95.857ZM63.9801 101.284C63.3051 101.606 62.5848 101.939 61.7968 102.299L63.3619 95.3448C64.1208 94.4926 64.8817 93.7339 65.882 92.829L66.0017 92.8516L63.9801 101.284ZM200 97.0438L198.721 96.1068C193.716 92.4403 190.366 90.5068 184.838 88.1305C184.693 87.3879 184.512 86.5036 184.512 86.5036C182.607 78.9341 180.426 74.207 178.668 70.3995C178.473 69.9794 178.285 69.5727 178.105 69.1773L178.002 68.9529L177.317 69.2895C174.859 70.4936 172.319 71.7399 169.883 73.2386L169.688 73.358L169.801 73.555C170.384 74.5896 170.908 75.5586 171.401 76.513C169.937 79.1644 167.571 82.4777 164.935 85.5892C165.161 85.0115 165.383 84.4378 165.6 83.8742C165.929 83.0226 166.24 82.2172 166.564 81.4017C166.768 80.806 166.972 80.2263 167.172 79.6646C167.36 79.1297 167.543 78.6107 167.715 78.1065L167.746 78.0137L167.7 77.9236C166.79 76.1625 163.402 72.6909 162.219 71.6598L162.11 71.5636L161.974 71.6164C160.461 72.1994 157.986 73.5125 155.303 75.1507L155.144 73.7863L147.928 74.7854L144.638 89.1685L142.181 90.4301L145.627 75.104L132.447 76.9313L132.39 76.9828C129.758 79.4325 126.979 82.0619 124.471 84.9203L124.433 84.9636L122.673 92.3201L120.283 93.5036L123.703 78.1414L115.138 79.3295L111.778 93.7079L109.195 95.0243L115.633 66.0117L106.884 67.2239L103.871 80.9217L99.3572 81.5475L99.3024 81.599C97.6906 83.1124 96.2046 84.6144 95.0873 85.7578C94.8783 85.9789 94.674 86.1953 94.4745 86.405L94.2472 86.6447C92.6469 85.3077 91.2523 83.8284 89.8752 82.0011L89.7277 81.8074L85.9232 84.754L85.98 83.4023L78.5704 84.4288L75.2799 98.8118L72.8193 100.073L76.2674 84.7473L63.0878 86.5726L63.031 86.6254C60.2883 89.1766 57.6207 91.7038 55.1121 94.5616L55.073 94.607L53.1792 102.537C52.4865 102.868 51.7824 103.194 51.0851 103.514L54.588 87.7514L45.779 88.9716L42.3411 103.563C41.501 104.013 40.6252 104.473 39.7303 104.934C40.5879 100.978 41.8818 95.8252 43.5815 89.6088L43.6755 89.2628L34.857 90.4863L34.5405 91.617C32.4336 99.1418 30.4438 106.247 30.04 110.15L30.0323 110.223L30.0695 110.287C31.2748 112.441 32.7797 114.278 34.4226 115.602L34.5559 115.711L34.7014 115.619C37.1715 114.074 39.5313 112.319 41.8113 110.622L42.3612 110.214C43.2432 112.032 44.069 113.184 44.8144 113.63L44.9267 113.699L45.045 113.642C47.9378 112.237 50.922 110.593 54.1591 108.62C55.3123 110.417 56.5169 111.724 57.6538 112.406L57.7884 112.487L57.9196 112.394C59.8594 111.017 62.1753 109.261 64.3112 107.55C65.1607 109.254 65.9649 110.303 66.7015 110.671L66.8233 110.732L73.5159 106.526L72.8511 109.43L81.98 108.165L82.0069 107.991C82.7286 103.251 83.6809 98.4981 84.8855 92.8313C85.3678 92.3698 85.846 91.9136 86.3208 91.4648C87.3522 92.2275 88.6367 93.0536 90.3945 93.6253L88.4148 101.735L88.4472 101.807C89.271 103.701 90.8178 106.201 92.6893 107.538L92.8274 107.637L100.503 102.322C101.366 104.082 102.169 105.179 102.893 105.587L103.009 105.653L103.127 105.589C105.733 104.194 108.547 102.533 111.493 100.651C112.02 101.952 112.737 103.134 113.577 104.079L113.707 104.226L114.856 103.56L123.293 98.6196C124.514 100.604 125.797 102.032 127.013 102.762L127.149 102.844L127.277 102.753C129.217 101.374 131.533 99.6187 133.672 97.909C134.52 99.6127 135.323 100.66 136.059 101.028L136.181 101.089L142.874 96.8825L142.209 99.789L151.268 98.5334L154.691 82.9409C155.802 81.8476 156.872 80.8798 158.043 79.9114L158.236 80.1599C156.909 83.6408 155.497 87.9518 154.148 92.6342L154.122 92.7237L154.166 92.8085C155.246 94.8695 158.072 97.4107 160.216 98.2469L160.343 98.295L160.448 98.2149C162.991 96.3074 165.928 93.3575 168.776 89.8639C168.705 91.0073 168.646 92.7958 168.732 95.0505L168.739 95.2248L168.909 95.2716C171.124 95.8653 175.055 96.1171 177.747 96.1518L177.827 96.1539L177.892 96.1072C179.037 95.2877 180.164 94.3728 181.111 93.566C183.138 94.7802 185.091 96.2882 186.578 97.5358C174.674 99.0311 161.201 100.796 145.433 102.923C118.469 106.599 63.3856 114.571 30.7983 120.007L28.082 120.406L30.4527 121.538C37.681 124.973 44.5962 127.926 52.2134 130.829L52.2891 130.858L52.3656 130.838C82.8182 122.261 125.301 113.876 168.922 107.831C173.592 107.184 185.222 105.602 192.281 104.9L192.351 104.894L192.406 104.851C194.767 102.979 198.256 99.5695 199.686 97.4764L199.777 97.3401L200 97.0438Z" fill="#0C2950"/>
<path d="M17.4408 92.9034L17.3873 93.0269C16.3037 95.5795 15.6551 98.1975 15.2107 100.192L15.1572 100.438L15.4068 100.476C17.5313 100.809 19.1032 101.104 20.5999 101.448L19.8992 103.962C17.3399 105.895 14.5526 107.849 12.4065 109.208L11.7646 109.053C11.1322 106.063 10.5695 103.035 10.0892 100.047C13.1856 93.3983 16.0379 87.885 18.8042 83.2007L33.4225 81.893L33.409 81.6619C33.2806 79.864 32.6772 76.5347 31.6654 72.03L31.6188 71.8203L31.403 71.8477C25.0736 72.5984 19.5545 73.3064 13.1878 74.3102L13.0755 74.3253L13.0174 74.4235C8.39712 82.2876 3.8594 91.8153 0.0291481 100.099L0 100.162L0.00961004 100.23C1.02144 107.35 2.2362 113.307 3.72015 118.439L3.75599 118.561L3.87774 118.599C6.40735 119.413 9.44829 120.275 12.7983 120.518L12.9201 120.525L13.3178 120.061C14.2403 118.98 15.1954 117.863 16.2072 116.73C16.3715 116.54 16.5285 116.355 16.6841 116.173L11.587 134L12.0672 133.77C15.3401 132.202 20.2877 129.834 23.3334 127.831L23.4126 127.779L32.2736 90.8458L17.4408 92.9034Z" fill="#0C2950"/>
<path d="M119.616 76.9013C118.536 75.9216 117.457 74.8323 116.583 73.8345L116.076 73.2568L117.17 68.36L117.981 68.0795C118.169 68.014 122.622 66.4766 124.919 65.8395L127.947 65L124.041 74.507L120.726 77.9071L119.616 76.9013Z" fill="#0C2950"/>
<path d="M134.699 92.723C132.962 93.5652 131.181 94.3673 129.475 95.1266C129.305 94.8541 129.157 94.6043 129.065 94.4234L131.178 85.0432C132.376 83.6594 133.5 82.6136 134.765 81.5022L137.274 81.9924L134.699 92.723ZM101.767 96.8223L96.5835 100.15L95.9978 99.1905L98.1256 89.6501C99.3255 88.2697 100.446 87.2238 101.711 86.1145L104.22 86.6027L101.767 96.8223ZM65.4072 102.355C63.6702 103.199 61.8901 104.001 60.1856 104.761C60.0138 104.488 59.8643 104.236 59.7751 104.057L61.8867 94.6751C63.0865 93.2933 64.2086 92.2475 65.4741 91.1348L67.9827 91.6243L65.4072 102.355ZM183.371 89.2835C183.29 88.8507 183.19 88.3324 183.156 88.0954C181.172 79.8326 178.921 74.9225 177.178 70.9867C175.304 71.8002 173.516 72.7846 171.676 73.8385C172.194 74.8069 172.665 75.7139 173.101 76.5861C170.942 80.7309 166.539 86.3896 162.56 90.2412L161.843 89.5747C163.114 85.8353 164.652 81.752 165.949 78.1943C165.004 76.7898 163.022 74.6693 161.726 73.4365C159.895 74.2673 157.023 75.8481 153.637 78.0721L153.516 75.6177L148.999 76.2435L145.794 90.3207L140.225 93.1905L140.011 92.6609L143.511 77.0042L133.138 78.4421C130.669 80.7495 128.205 83.1185 125.899 85.7104L124.045 93.4002L118.393 96.2092L118.155 95.5667L121.61 80.0403L116.423 80.7576L113.13 94.7933L107.219 97.7994L107.035 97.3847L113.548 67.9199L108.178 68.6646L105.212 82.3431L100.084 83.0523C97.9097 85.0479 96.1552 87.0335 94.4001 88.7866C92.4934 87.3507 90.912 85.8053 89.4626 84.0341L84.2384 88.0853L84.4061 85.2256L79.8927 85.852L76.7023 99.8491L70.9356 102.824L70.7219 102.294L74.218 86.6381L63.8487 88.074C61.3772 90.3835 58.9153 92.7517 56.6075 95.343L54.6129 103.612C52.9024 104.447 51.1459 105.255 49.3278 106.009L49.0816 105.415L52.5635 89.6388L47.1337 90.3901L43.8012 104.588C41.9669 105.603 40.0805 106.574 38.2158 107.503L37.7714 106.778C38.6182 102.467 40.0224 96.9172 41.5807 91.1602L36.1515 91.9129C34.1745 99.0049 32.2394 105.967 31.7437 109.907C32.5654 111.329 33.5563 112.604 34.7731 113.725C37.601 111.891 40.2949 109.827 43.0646 107.726C43.4556 108.717 44.2956 110.687 45.1993 111.788C48.5561 110.12 51.7701 108.294 54.7462 106.44C55.8047 108.387 56.8544 109.707 57.8338 110.53C60.0617 108.917 62.6684 106.924 64.9627 105.005C65.3894 106.056 66.1551 107.769 66.9755 108.77L75.9482 103.157L74.9512 107.543L80.6239 106.757C81.3976 101.839 82.421 96.9278 83.4829 91.985C84.4061 91.0994 85.3287 90.2218 86.2431 89.3877C88.1714 90.8817 89.8691 91.9623 90.8099 92.2007L92.8336 90.3641L90.0896 101.575C90.7924 103.013 91.7555 104.539 92.91 105.668L101.169 99.9085C101.588 100.949 102.372 102.725 103.213 103.75C106.317 102.03 109.449 100.123 112.376 98.1674C112.682 99.3589 113.425 101.162 114.061 102.216L123.838 96.4329C124.964 98.5855 126.084 100.023 127.123 100.896C129.353 99.2834 131.959 97.2918 134.256 95.3731C134.681 96.4223 135.448 98.1373 136.268 99.1378L145.034 93.6533L144.057 97.9356L149.733 97.1489L152.931 82.4232C154.372 80.9786 156.016 79.4446 158.249 77.6928L159.98 79.904C158.59 83.4323 157.161 87.7541 155.791 92.5019C156.754 94.0266 158.534 95.6228 160.083 96.4523C165.307 92.2715 171.195 84.5918 174.219 78.9243C175.945 82.7338 176.9 85.9976 177.569 90.3962L176.977 91.2063C174.689 90.4776 172.008 89.2414 170.273 88.0373C170.164 89.9721 170.123 91.8053 170.239 93.9385C171.781 94.2778 174.68 94.5516 177.241 94.6271C178.53 93.7027 179.799 92.6589 180.918 91.6658C184.278 93.501 187.792 96.4249 190.002 98.512C190.048 98.5648 190.093 98.6175 190.14 98.6703C138.201 105.098 74.9363 114.332 33.6476 121.129C39.8438 124.016 45.9885 126.545 52.6379 129.123C83.6303 120.468 126.418 112.112 168.632 106.263C175.466 105.316 185.233 104.024 191.551 103.393C193.515 101.892 196.24 99.1812 197.663 97.386C192.533 93.6259 189.292 91.7833 183.371 89.2835Z" fill="#E51636"/>
<path d="M31.6895 80.4685C31.5956 79.3746 31.0375 76.3164 30.3983 73.5762C24.8251 74.2267 19.8085 74.8605 14.0857 75.7768C9.73265 83.2662 5.35928 92.3571 1.64062 100.373C2.50636 106.463 3.62575 112.149 5.04274 117.301C7.32615 118.031 9.65352 118.63 12.242 118.886C13.5717 117.288 15.0766 115.603 16.52 113.928C17.7915 112.468 19.0645 111.041 20.1913 109.711L14.0952 131.048C16.89 129.677 19.8491 128.161 22.0242 126.814L30.1927 92.7264L18.591 94.3347C17.9505 95.9616 17.4926 97.5611 17.0969 99.1526C18.9231 99.4505 20.7121 99.8111 22.5558 100.293L21.2897 104.89C19.0009 106.639 15.5825 109.124 12.712 110.884L10.4043 110.345C9.6941 107.054 9.02112 103.534 8.43064 99.7917C11.2119 93.8698 14.3955 87.447 17.8402 81.7034L31.6895 80.4685Z" fill="#E51636"/>
<path d="M120.659 75.7791L122.722 73.662L125.334 67.3066C123.058 67.9371 118.491 69.5166 118.491 69.5166L117.748 72.8379C118.588 73.7949 119.631 74.8488 120.659 75.7791Z" fill="#E51636"/>
</svg>
