<svg width="200" height="200" viewBox="0 0 200 200" fill="none" xmlns="http://www.w3.org/2000/svg">
<g clip-path="url(#clip0_18_1228)">
<path d="M119.937 126.393V153.133C113.016 155.532 106.016 157.584 98.6155 159.291C91.7215 157.185 85.0677 154.919 78.6524 152.413C78.6266 117.568 79.0256 82.6975 79.6648 47.8541C86.2388 45.1076 93.452 42.3353 99.6537 40.2832C106.335 42.3628 112.563 44.6014 118.952 47.0274C119.218 53.3454 119.085 62.7295 118.925 78.5125C125.286 79.7121 138.862 78.6723 154.007 76.6193C154.699 71.4477 155.551 66.2752 156.403 61.1303C159.49 42.5218 162.417 24.2605 165 7.2246C151.585 5.14496 136.972 3.9453 129.758 4.98512L126.99 12.4237C118.233 8.0513 109.29 3.89202 99.6545 0C77.4804 8.61074 57.1715 17.915 36.5426 28.6054C40.5091 48.0672 42.0526 63.3964 42.0526 89.0696C42.0526 126.446 39.4701 155.052 34.999 173.82C55.9737 183.818 76.2826 192.429 98.2955 200C119.111 192.775 139.926 184.831 163.641 173.474C161.592 160.224 157.28 137.643 154.005 123.513C142.96 123.807 131.62 124.846 119.936 126.392" fill="white"/>
<path d="M125.765 131.565V157.318C116.982 160.518 107.985 163.291 98.2431 165.343C89.5661 162.677 80.9947 159.771 72.7699 156.385C72.6901 118.955 73.1165 81.3917 73.8347 43.9616C82.0063 40.3901 91.748 36.6837 99.4409 34.0713C108.278 36.7103 116.236 39.67 124.434 42.8693C124.994 49.0541 124.914 57.878 124.7 73.1805C130.717 73.3412 139.154 72.6477 148.763 71.4481C152.037 51.1329 155.311 30.9784 158.212 12.1835C148.923 10.9838 139.98 10.2912 133.777 10.451L130.051 20.5553C120.175 15.4628 110.248 10.7707 99.5473 6.31836C79.7703 14.0766 61.5378 22.341 42.9587 31.8051C46.3924 49.5603 47.7763 65.0493 47.7763 88.9901C47.7763 123.781 45.5404 151.347 41.5747 170.461C60.3134 179.233 78.546 186.83 98.1633 193.709C118.286 186.645 138.063 179.073 156.802 170.115C155.763 162.197 152.33 143.429 149.243 129.459C141.603 129.833 133.857 130.525 125.765 131.565Z" fill="#CE0E2D"/>
</g>
<defs>
<clipPath id="clip0_18_1228">
<rect width="200" height="200" fill="white"/>
</clipPath>
</defs>
</svg>
