<svg width="200" height="200" viewBox="0 0 200 200" fill="none" xmlns="http://www.w3.org/2000/svg">
<path d="M89.3502 175.066L108.133 184.67L118.772 180.174C124.962 182.269 131.6 183.422 138.52 183.422C172.461 183.422 200 155.907 200 121.942C200 104.266 192.539 88.3072 180.582 77.1034L181.217 63.1692C181.217 63.1692 181.217 56.9082 176.627 55.6607L65.5537 16L52.208 18.495C52.208 18.495 51.7843 27.6746 58.469 34.7829L14.2184 18.9187L0.0253222 21.4136C0.0253222 21.4136 -1.22217 36.4541 13.7948 45.21C13.7948 45.21 11.6999 58.1557 25.893 66.5115C25.893 66.5115 24.2219 78.6098 35.92 85.2944C35.92 85.2944 33.8252 94.8977 47.6182 104.077L64.7299 154.589L83.0892 163.768L92.2688 160.85L89.3502 175.066Z" fill="#00385D"/>
<path d="M97.2825 151.693L93.5165 173.395L107.286 180.08L121.055 119.117L97.7062 109.514L95.2112 118.27L103.143 125.378L101.049 136.653C101.049 136.653 100.225 139.572 96.8824 139.995L81.0181 143.338L68.4962 107.843L91.8689 73.1958L126.092 86.5651L126.516 74.4668C126.516 74.4668 127.34 71.1244 123.174 69.4533L86.4317 56.084L51.3608 104.924L67.6488 152.093L83.0894 160.026L97.2825 151.693Z" fill="#E50022"/>
<path d="M131.318 114.316L123.809 116.411L101.26 106.808L107.945 104.713L131.318 114.316Z" fill="white"/>
<path d="M81.6298 106.385L72.4502 109.303L83.7247 139.361L92.0805 137.29L81.6298 106.385Z" fill="white"/>
<path d="M138.002 44.5983L131.317 46.6931L58.6807 20.3782L66.1891 18.707L138.002 44.5983Z" fill="white"/>
<path d="M142.992 46.2695L136.308 47.9407L167.613 59.6388C167.613 59.6388 169.284 59.6388 170.955 62.1338L177.428 59.8271C177.428 59.8271 177.428 58.156 172.414 56.9085L142.992 46.2695Z" fill="white"/>
<path d="M128.799 48.7637L122.538 57.5196L83.7011 43.7502C83.7011 43.7502 78.2639 39.1604 77.8638 30.3809L128.799 48.7637Z" fill="white"/>
<path d="M74.9453 29.1573C74.9453 29.1573 75.3689 36.2656 78.2876 41.6793L66.1893 37.5131C66.1893 37.5131 56.586 30.4048 55.7622 22.4727L74.9453 29.1573Z" fill="white"/>
<path d="M129.223 69.2426C129.223 69.2426 127.975 66.7476 122.962 65.4766L91.2334 53.7784L98.3417 51.6836L132.989 64.2056C132.989 64.2056 135.908 65.0294 136.331 66.7005L129.223 69.2426Z" fill="white"/>
<path d="M92.9044 50.0349L85.3959 52.1062L6.47461 23.72L15.2541 22.0488L92.9044 50.0349Z" fill="white"/>
<path d="M83.3014 54.2005L73.698 67.1461L46.1356 56.2953C46.1356 56.2953 27.7764 50.458 27.7764 34.5938L83.3014 54.2005Z" fill="white"/>
<path d="M24.4337 33.3228L3.1323 25.3906C3.1323 25.3906 2.30849 40.4311 31.0949 50.4345C31.1184 50.4345 25.4694 45.2327 24.4337 33.3228Z" fill="white"/>
<path d="M72.0265 70.0663L64.9181 79.6696L51.1487 74.6561C51.1487 74.6561 37.3792 69.219 36.9556 56.2969L72.0265 70.0663Z" fill="white"/>
<path d="M33.6132 55.0494C33.6132 55.0494 32.7894 61.734 38.6267 69.2425C38.6267 69.2425 18.1726 64.6527 16.5015 47.1173C16.5015 47.0937 28.4114 53.1664 33.6132 55.0494Z" fill="white"/>
<path d="M62.847 82.5866L56.586 90.9424C56.586 90.9424 46.1589 86.3526 45.3115 75.0781L62.847 82.5866Z" fill="white"/>
<path d="M42.6049 74.4428C42.6049 74.4428 41.3574 80.2801 47.6184 87.8121C47.6184 87.8121 29.6593 82.7986 28.8354 68.6055L42.6049 74.4428Z" fill="white"/>
<path d="M49.0778 101.371L54.9151 94.2626C54.9151 94.2626 42.8168 89.2491 39.0508 87.1543C39.0508 87.1778 39.2626 96.5693 49.0778 101.371Z" fill="white"/>
<path d="M168.883 68.3943C169.707 63.8044 166.388 62.557 166.388 62.557L131.741 49.6113L125.692 58.5791L132.377 60.674C132.377 60.674 150.736 58.5791 167.871 67.7823L168.883 68.3943Z" fill="#E50022"/>
<path d="M137.579 64.0869C137.296 63.9221 138.214 64.0869 138.52 64.0869C170.484 64.0869 196.375 90.0017 196.375 121.942C196.375 153.882 170.461 179.797 138.52 179.797C132.259 179.797 126.21 178.809 120.561 176.949L136.119 112.857L108.157 101.582L94.7875 105.748L91.4451 119.118L99.3773 126.626L98.1298 134.558C98.1298 134.558 97.7061 136.653 95.2111 136.653L84.3604 104.924L100.648 80.2807L127.34 91.155L139.438 86.5652L140.262 68.206C140.285 68.1824 139.862 65.405 137.579 64.0869Z" fill="white"/>
<path d="M182.865 150.422C184.536 151.246 183.288 154.588 183.288 154.588H184.112C185.36 153.34 184.536 150.422 184.536 150.422C185.36 150.422 188.702 145.832 188.702 145.832H187.031C186.207 147.927 182.865 150.422 182.865 150.422Z" fill="#E50022"/>
<path d="M183.5 146.045H182.252C182.252 146.045 181.429 149.387 178.91 150.635C178.91 150.635 180.793 152.518 179.546 155.013L180.581 155.225C180.581 155.225 181.829 151.058 180.158 150.635C180.158 150.635 183.076 148.964 183.5 146.045Z" fill="#E50022"/>
<path d="M177.263 146.375C177.263 146.375 176.51 150.141 174.25 151.647C174.25 151.647 176.886 153.53 175.568 155.978L176.698 155.602C176.698 155.602 176.98 151.93 175.662 151.553C175.662 151.553 178.298 148.729 178.487 146.469L177.263 146.375Z" fill="#E50022"/>
<path d="M173.12 147.691H171.802C171.614 151.081 169.731 153.152 169.731 153.152C171.426 153.717 171.802 157.295 171.802 157.295H172.744C173.309 155.412 171.049 152.964 171.049 152.964C171.802 152.399 173.12 147.691 173.12 147.691Z" fill="#E50022"/>
<path d="M166.341 155.036C166.341 155.036 168.601 150.14 167.659 149.387L166.341 149.763C166.341 149.763 166.153 154.659 164.835 155.601C164.835 155.601 168.789 157.672 167.659 159.367L168.978 158.802C168.978 158.802 168.507 156.636 166.341 155.036Z" fill="#E50022"/>
<path d="M161.351 157.766C161.351 157.766 163.234 153.624 162.575 151.646L161.069 152.4C161.069 152.4 160.88 157.484 159.939 158.237C159.939 158.237 163.893 159.743 163.517 161.626L164.552 161.156C164.552 161.156 163.799 158.331 161.351 157.766Z" fill="#E50022"/>
<path d="M156.644 160.214C156.644 160.214 158.527 156.071 157.868 154.094L156.361 154.847C156.361 154.847 156.173 159.931 155.231 160.684C155.231 160.684 159.186 162.191 158.809 164.074L159.845 163.603C159.845 163.603 159.092 160.778 156.644 160.214Z" fill="#E50022"/>
<path d="M152.219 162.569C152.972 161.063 152.407 156.92 152.407 156.92L150.901 157.673C151.843 159.744 150.524 163.134 150.524 163.134C152.125 163.605 154.761 166.241 154.761 166.241L156.173 165.582C155.609 163.887 152.219 162.569 152.219 162.569Z" fill="#E50022"/>
<path d="M147.417 164.545C147.417 164.545 147.794 159.649 147.229 159.461L146.005 160.12C146.005 160.12 146.946 162.568 145.816 165.204C145.816 165.204 149.771 166.522 150.524 168.593L151.465 168.029C151.465 168.029 149.3 164.922 147.417 164.545Z" fill="#E50022"/>
<path d="M142.521 166.993C142.521 166.993 143.463 162.474 142.521 161.344L141.297 162.003C141.297 162.003 142.427 165.957 140.921 167.464C140.921 167.464 144.687 168.405 145.817 170.665L147.229 170.006C147.229 170.006 144.593 166.804 142.521 166.993Z" fill="#E50022"/>
<path d="M138.567 168.688C138.567 168.688 138.944 163.792 138.379 163.604L137.155 164.263C137.155 164.263 138.097 166.71 136.967 169.347C136.967 169.347 140.921 170.665 141.674 172.736L142.616 172.171C142.616 172.171 140.45 169.064 138.567 168.688Z" fill="#E50022"/>
<path d="M134.142 170.666C134.895 168.783 133.577 165.205 133.577 165.205L132.447 165.958C133.765 166.711 132.824 171.042 132.824 171.042C134.142 171.419 137.343 174.243 137.343 174.243L138.473 173.867C137.908 171.796 134.142 170.666 134.142 170.666Z" fill="#E50022"/>
<path d="M129.999 171.794C130.188 170.287 129.623 166.521 129.623 166.521L128.305 167.275C129.434 167.84 128.87 172.17 128.87 172.17C129.999 172.359 133.2 175.183 133.2 175.183L134.142 174.807C133.2 173.3 129.999 171.794 129.999 171.794Z" fill="#E50022"/>
<path d="M125.857 172.736C126.61 171.607 125.48 167.652 125.48 167.652L124.162 168.406C125.48 169.535 124.539 173.113 124.539 173.113C125.857 173.113 128.87 176.126 128.87 176.126L129.999 175.749C129.246 174.055 125.857 172.736 125.857 172.736Z" fill="#E50022"/>
<path d="M187.243 97.4171C187.243 97.4171 187.054 102.501 187.996 103.443L188.937 102.878C188.937 102.878 187.713 99.2059 187.996 96.2873C187.996 96.2873 185.925 96.4756 184.795 94.4043L184.042 95.1575C184.042 95.1575 185.36 97.982 187.243 97.4171Z" fill="#E50022"/>
<path d="M184.607 101.371C184.607 101.371 184.042 106.644 184.418 107.397L185.548 106.644C185.548 106.644 185.266 101.842 185.548 100.053C185.548 100.053 182.535 99.8651 181.782 97.6055L181.029 98.547C181.029 98.547 183.477 101.183 184.607 101.371Z" fill="#E50022"/>
<path d="M180.84 104.384C180.84 104.384 179.522 108.715 180.275 110.033L181.593 109.468C181.593 109.468 181.123 106.549 182.158 103.442C182.158 103.442 178.957 102.501 178.204 100.053L177.074 100.806C177.074 100.806 179.334 103.819 180.84 104.384Z" fill="#E50022"/>
<path d="M175.191 111.728L176.509 111.539C176.133 109.28 178.016 105.514 178.016 105.514C174.721 105.043 174.062 101.371 174.062 101.371L172.555 101.936C172.743 104.384 176.321 106.267 176.321 106.267C175.38 108.338 175.191 111.728 175.191 111.728Z" fill="#E50022"/>
<path d="M169.26 102.312H167.471C167.283 105.137 171.049 107.397 171.049 107.397C169.166 108.338 169.166 112.481 169.166 112.481H170.861C170.484 110.409 173.12 106.832 173.12 106.832C169.825 106.549 169.26 102.312 169.26 102.312Z" fill="#E50022"/>
<path d="M162.575 112.669H164.458C164.27 110.598 167.283 107.585 167.283 107.585C164.741 106.173 163.893 102.312 163.893 102.312H162.763C161.822 103.631 165.588 107.585 165.588 107.585C164.27 108.15 162.575 112.669 162.575 112.669Z" fill="#E50022"/>
<path d="M156.455 112.198H158.15C158.15 112.198 159.657 108.432 161.445 107.585C161.445 107.585 158.621 104.949 158.809 101.748L156.926 101.371C156.926 101.371 157.868 106.079 159.374 107.397C159.374 107.397 156.267 110.504 156.455 112.198Z" fill="#E50022"/>
<path d="M149.583 111.162L151.466 111.35C151.466 111.35 152.501 107.678 155.42 106.831C155.42 106.831 152.595 103.065 153.16 100.617L151.277 100.24C151.277 100.24 152.219 105.513 153.349 106.454C153.349 106.454 149.959 109.279 149.583 111.162Z" fill="#E50022"/>
<path d="M149.206 105.701C149.206 105.701 146.382 102.688 147.135 98.9223L145.064 98.3574C145.064 98.3574 145.629 104.383 147.135 105.136C147.135 105.136 143.369 107.584 143.181 109.655L144.97 109.938C144.97 109.938 146.099 106.737 149.206 105.701Z" fill="#E50022"/>
<path d="M137.155 107.395L138.849 107.96C138.849 107.96 141.203 104.288 142.992 104.194C142.992 104.194 140.732 99.6749 141.297 97.0387L139.603 96.6621C139.603 96.6621 139.791 101.558 141.109 103.253C141.109 103.253 137.908 105.136 137.155 107.395Z" fill="#E50022"/>
<path d="M131.129 105.325L132.918 105.984C132.918 105.984 134.99 102.406 137.343 102.124C137.343 102.124 135.46 98.7344 135.837 95.1567L134.331 94.5918C134.331 94.5918 134.142 100.052 135.272 101.182C135.272 101.182 132.259 102.877 131.129 105.325Z" fill="#E50022"/>
<path d="M125.292 103.254L126.798 104.007C126.798 104.007 128.776 100.335 131.318 99.8644C131.318 99.8644 129.435 95.5335 130.188 93.2739L128.493 92.709C128.493 92.709 128.87 98.358 129.623 99.1112C129.623 99.1112 126.045 100.994 125.292 103.254Z" fill="#E50022"/>
<path d="M124.539 91.5797L122.844 91.2031C122.844 91.2031 122.844 96.2872 123.786 97.2287C123.786 97.2287 120.396 99.1117 119.643 101.56L121.149 101.936C121.149 101.936 122.938 98.2644 125.669 97.9819C125.669 97.9819 123.786 92.7095 124.539 91.5797Z" fill="#E50022"/>
<path d="M118.89 90.0731L117.195 89.8848C117.195 89.8848 116.63 94.2157 117.948 95.5338C117.948 95.5338 113.994 98.5466 113.994 100.241L115.595 100.524C115.595 100.524 117.666 96.3811 120.02 96.0987C120.02 96.0987 118.137 93.4625 118.89 90.0731Z" fill="#E50022"/>
<path d="M113.429 88.9434H111.546C111.546 88.9434 110.981 93.2743 112.299 94.2158C112.299 94.2158 108.345 97.0403 107.78 99.1116L109.475 99.2999C109.475 99.2999 112.017 95.4397 114.182 94.7807C114.182 94.7807 112.488 90.4498 113.429 88.9434Z" fill="#E50022"/>
<path d="M108.157 88.7547L106.462 88.5664C106.462 88.5664 105.897 92.5207 106.838 93.6505C106.838 93.6505 103.449 96.2867 102.696 98.7346L104.108 98.8288C104.108 98.8288 106.179 94.4979 108.533 94.0271C108.533 94.0271 106.838 90.826 108.157 88.7547Z" fill="#E50022"/>
<path d="M103.261 88.5664H101.754C101.754 88.5664 101.001 92.709 101.754 93.8388C101.754 93.8388 98.5534 96.2867 98.1768 98.358H99.4007C99.4007 98.358 101.095 94.6862 103.261 93.8388C103.261 93.8388 101.943 90.4494 103.261 88.5664Z" fill="#E50022"/>
<path d="M98.7419 89.1309H97.2355C97.2355 89.1309 96.4823 93.0852 97.4238 94.215C97.4238 94.215 94.7876 96.6629 94.2227 98.7342H95.4466C95.4466 98.7342 96.953 95.0623 98.7419 94.0267C98.7419 94.0267 97.2355 91.0139 98.7419 89.1309Z" fill="#E50022"/>
</svg>
