<svg width="200" height="200" viewBox="0 0 200 200" fill="none" xmlns="http://www.w3.org/2000/svg">
<path d="M56.7864 12.7402C56.7864 12.7402 23.7631 25.7019 23.7315 67.8383C23.6889 111.007 55.5684 119.162 55.5684 119.162C55.5684 119.162 39.1577 98.5266 39.2046 65.4044C39.2668 29.7423 56.7864 12.7402 56.7864 12.7402Z" fill="#C4CED4"/>
<path d="M169.075 185.978C162.243 179.258 149.782 143.93 139.483 141.609C143.257 139.707 167.012 134.164 167.121 108.444C167.012 80.64 141.296 71.6324 115.579 71.6324C110.108 71.6324 100.145 72.0378 90.0175 72.6378C77.1627 73.4444 70.5694 74.0444 60.776 74.851V84.3099C74.5913 84.3099 77.4857 87.5241 77.4857 102.616V120.607C58.4491 116.583 45.9566 95.3743 45.9566 65.5668C45.9566 34.0064 60.764 11.813 82.3917 11.813C90.5305 11.813 97.6859 15.0742 103.382 20.9758C109.081 26.8785 113.144 35.4337 114.937 45.815H122.578L121.123 3.25681H115.097C114.448 5.29396 113.638 6.11253 112.164 6.11253C108.102 6.11253 98.5077 0 81.0973 0C62.232 0 46.1214 6.92674 34.9005 19.1442C23.5125 31.5605 17 48.4642 17 68.8237C17 82.8717 21.0656 98.7557 30.3449 111.378C39.6122 124.004 54.5865 133.166 76.378 133.166C76.7512 133.166 77.1092 133.136 77.4868 133.128V172.831C77.4868 187.514 74.2726 190.533 60.7771 190.533V199.992H121.689V190.533C109.145 190.533 104.488 188.721 104.488 173.836V146.877H113.004C113.004 146.877 144.401 200 145.257 200C147.479 199.992 182.751 199.977 182.751 199.977V190.568C182.751 190.567 175.666 191.732 169.075 185.978ZM23.7308 67.8379C23.7625 25.7004 56.7847 12.7398 56.7847 12.7398C56.7847 12.7398 39.2662 29.7408 39.2073 65.4062C39.156 98.524 55.5666 119.164 55.5666 119.164C55.5666 119.164 23.6915 111.007 23.7308 67.8379ZM97.9435 190.501H84.066V82.6771L97.9435 81.7143V190.501ZM158.928 108.99C158.998 130.171 133.122 135.504 133.122 135.504C133.122 135.504 142.681 129.738 142.685 109.227C142.696 88.5164 133.542 82.6608 133.542 82.6608C133.542 82.6608 158.859 84.9482 158.928 108.99ZM104.488 137.016V130.373C105.094 130.35 105.718 130.314 106.312 130.314C108.273 130.314 110.055 130.314 111.518 130.723C113.144 130.925 114.778 131.33 116.237 131.942L116.731 130.516C121.443 116.675 125.349 101.606 126.648 89.9962H119.004C115.117 100.429 110.261 108.241 104.488 113.457V81.2903H112.362C127.948 81.2903 136.153 91.7503 136.153 107.641C136.153 128.367 127.8 137.417 104.488 137.016ZM146.008 190.56C146.008 190.56 128.126 158.544 119.909 147.075C119.909 147.075 125.943 146.12 128.885 145.271C131.569 144.507 133.523 143.733 133.523 143.733C140.534 147.266 150.548 162.939 155.901 175.752C161.667 187.315 165.795 190.607 165.795 190.607L146.008 190.56Z" fill="#333366"/>
<path d="M84.0674 190.504H97.9438V81.7129L84.0674 82.6757V190.504ZM142.688 109.225C142.68 129.737 133.125 135.506 133.125 135.506C133.125 135.506 158.997 130.168 158.93 108.987C158.856 84.9457 133.541 82.6593 133.541 82.6593C133.541 82.6593 142.699 88.5194 142.688 109.225ZM155.902 175.753C150.548 162.935 140.533 147.267 133.523 143.733C133.523 143.733 131.571 144.505 128.886 145.272C125.944 146.121 119.91 147.075 119.91 147.075C128.127 158.544 146.008 190.56 146.008 190.56L165.796 190.607C165.796 190.607 161.668 187.316 155.902 175.753Z" fill="#C4CED4"/>
</svg>
