<svg width="200" height="200" viewBox="0 0 200 200" fill="none" xmlns="http://www.w3.org/2000/svg">
<path fill-rule="evenodd" clip-rule="evenodd" d="M35.5733 107.143C36.7625 88.6901 45.6911 89.8816 57.0016 85.7143L57.5967 76.1905C43.3104 75.5965 36.1673 84.5239 36.1673 84.5239C30.8108 68.4522 49.8573 66.0715 58.7859 62.4994C58.7859 49.9997 67.1194 42.8566 74.2614 35.7134C54.6186 30.9521 39.1431 19.6416 32 0C58.7859 26.7859 103.428 28.5703 135.572 10.7141C142.715 23.2138 156.407 31.5473 167.12 40.4759C163.548 42.2614 159.979 48.8105 159.979 50.596V141.667C163.549 145.237 165.336 151.787 168.908 153.571C151.049 157.143 130.216 167.859 121.288 183.928C103.429 173.215 84.9767 160.716 63.5484 167.859C51.0488 173.215 36.7625 187.5 33.1915 200C28.4301 170.835 51.6439 148.215 74.8588 148.215C80.2154 144.643 85.573 139.286 85.573 126.192H73.6685C71.883 138.692 62.9532 146.429 47.4766 151.786C50.4536 142.857 57.0016 141.071 58.7859 133.93V101.786C58.7871 100.001 44.5019 101.191 35.5733 107.143ZM117.12 154.763C108.788 149.406 97.4775 147.023 88.5488 147.023C99.263 138.095 105.216 121.43 103.429 108.929C114.144 105.357 125.454 105.357 137.953 108.334V141.072C129.025 141.072 124.265 151.193 117.12 154.763ZM103.429 99.4043V78.5723C114.144 80.3578 124.857 82.1433 135.573 78.5723V98.2151C124.265 96.4296 110.573 97.6188 103.429 99.4043ZM138.55 45.2395L137.955 67.8582C127.239 71.4303 112.956 73.811 102.837 67.8582C102.837 58.9295 101.646 47.025 108.789 39.883C114.146 39.883 121.289 39.2879 126.645 35.7157C129.505 37.8608 138.55 45.2395 138.55 45.2395ZM89.7403 51.7864L78.431 50.596C80.1812 47.0956 86.7645 39.8819 86.7645 39.8819C86.7645 39.8819 95.6226 38.6551 99.2653 40.4759C92.1198 44.0481 91.5258 47.6202 89.7403 51.7864ZM85.573 116.666H75.4552V58.3343L85.573 58.9295V116.666Z" fill="#182D55"/>
</svg>
