<svg width="200" height="200" viewBox="0 0 200 200" fill="none" xmlns="http://www.w3.org/2000/svg">
<g clip-path="url(#clip0_18_1238)">
<path d="M99.7951 8.38672C49.2049 8.38672 8.19434 49.4031 8.19434 100.01C8.19434 150.598 49.2049 191.621 99.7951 191.621C150.384 191.621 191.404 150.598 191.404 100.01C191.404 94.4704 190.913 89.04 189.962 83.7775C182.309 40.9236 144.852 8.38672 99.7951 8.38672Z" fill="#002D62"/>
<path d="M99.795 0C44.6813 0 0 44.7736 0 100.011C0 155.218 44.6804 200 99.795 200C154.916 200 199.597 155.218 199.597 100.01C199.597 44.7736 154.916 0 99.795 0ZM99.795 195.38C47.1233 195.38 4.40451 152.683 4.40451 100.011C4.40451 47.3167 47.1241 4.61094 99.795 4.61094C152.473 4.61094 195.189 47.3167 195.189 100.009C195.189 152.682 152.473 195.379 99.795 195.379" fill="#002D62"/>
<path d="M99.795 4.61133C47.1147 4.61133 4.40967 47.3171 4.40967 100C4.40967 152.683 47.1147 195.378 99.795 195.378C152.473 195.378 195.179 152.683 195.179 100C195.179 47.3171 152.473 4.61133 99.795 4.61133ZM191.404 100V100.009C191.404 150.596 150.384 191.622 99.7967 191.622C49.2048 191.622 8.18997 150.599 8.18997 100.001C8.18997 49.4029 49.2039 8.38656 99.795 8.38656C144.854 8.38656 182.309 40.9243 189.962 83.7773C190.925 89.1311 191.407 94.5603 191.403 100" fill="#EB6E1F"/>
<path d="M132.7 157.955L126.881 160.885L125.875 163.98L132.498 177.115L135.583 178.117L141.403 175.187L142.414 172.11L135.786 158.974L132.7 157.955ZM138.855 173.011L135.333 174.784L134.694 174.573L129.214 163.733L129.425 163.082L132.953 161.299L133.595 161.51L139.075 172.367L138.855 173.011ZM82.3338 170.054L84.6071 170.42L85.6637 168.298L87.5372 168.611L85.5122 181.628L84.1422 182.03L83.762 184.419L89.4021 185.301L89.7685 182.903L88.5801 182.124L90.6008 169.078L92.476 169.363L92.8382 171.687L95.1329 172.056L95.9429 166.772L83.1524 164.789M64.0042 159.085L61.0356 165L62.0546 168.088L66.6269 170.357L66.8367 171.018L65.0274 174.628L64.3793 174.838L60.4662 172.873L60.6409 170.972L58.5602 169.915L56.3657 174.297L64.1267 178.202L67.2126 177.173L70.1794 171.247L69.1554 168.179L64.5916 165.883L64.3776 165.241L66.1928 161.612L66.835 161.41L70.7531 163.366L70.5699 165.277L72.6454 166.325L74.8408 161.953L67.0662 158.065M154.504 150.919L150.861 154.519H150.176L147.334 151.625L147.342 150.937L150.471 147.877L152.211 148.668L153.874 147.024L150.441 143.552L144.259 149.634L144.237 152.894L148.876 157.599L152.128 157.627L155.765 154.053H156.436L159.285 156.919V157.599L156.166 160.676L154.416 159.895L152.749 161.522L156.175 165.011L162.366 158.913L162.389 155.652L157.746 150.969M117.759 180.663L115.476 175.904L117.079 173.682L116.056 167.14L113.438 165.239L103.569 166.801L103.945 169.198L105.324 169.592L107.391 182.674L106.201 183.474L106.582 185.871L112.204 184.972L111.832 182.583L110.459 182.198L109.665 177.182L112.448 176.75L114.635 181.306L113.641 181.995L114.027 184.382L119.654 183.492L119.277 181.103L117.76 180.662L117.759 180.663ZM113.437 173.452L109.174 174.105L108.394 169.173L112.647 168.501L113.194 168.905L113.827 172.902L113.437 173.453V173.452ZM50.8721 145.214L37.5429 154.941L36.2072 154.464L34.5067 156.191L38.585 160.196L40.2752 158.46L39.7752 157.128L41.4739 155.897L45.0059 159.368L43.8029 161.086L42.4706 160.618L40.7812 162.345L44.8501 166.331L46.5489 164.604L46.0488 163.281L55.5274 149.769L50.8721 145.212V145.214ZM44.0101 154.05L50.5724 149.247L51.4817 150.146L46.8066 156.816L44.0101 154.05ZM41.1486 62.9985L43.064 64.4867L46.5634 59.9854L44.6497 58.5066L43.3765 59.1573L39.3667 56.0432L42.3062 52.2585L46.3117 55.3821L45.9812 56.7795L47.9052 58.2677L51.4055 53.7655L49.4961 52.2773L48.2091 52.9401L37.751 44.8099L38.0764 43.4142L36.161 41.9243L32.6675 46.4171L34.5769 47.9053L35.8502 47.2545L39.8642 50.3576L36.9247 54.1525L32.9107 51.0272L33.2412 49.6418L31.3301 48.1433L27.8169 52.6455L29.7409 54.1337L31.0132 53.4898L41.4765 61.6105M140.366 47.1055L143.568 46.5173L151.94 34.4287L151.367 31.24L146.006 27.5195L142.814 28.1087L134.432 40.199L135.021 43.404L140.366 47.1055ZM144.642 30.9292L145.298 30.8093L148.555 33.051L148.666 33.7214L141.748 43.7156L141.082 43.8355L137.835 41.5835L137.72 40.9242L144.642 30.9292ZM59.1528 47.1706L64.5086 43.4408L65.072 40.2726L56.6851 28.1652L53.4887 27.5846L48.1458 31.2871L47.555 34.4835L55.9547 46.5824L59.1528 47.1706ZM50.9637 33.1152L54.202 30.8649L54.881 30.9848L61.7994 40.9602L61.6838 41.6401L58.4412 43.8835L57.7751 43.7807L50.8395 33.8053L50.9637 33.1152ZM69.7445 22.6064L73.9195 35.9554L76.7896 37.4427L83.0094 35.5118L84.5078 32.628L80.331 19.2789L81.3876 18.3251L80.6573 16.0012L75.2227 17.7L75.9531 20.023L77.3685 20.1986L81.1702 32.3231L80.8482 32.9311L77.0962 34.0956L76.4797 33.8028L72.6865 21.6782L73.7525 20.7311L73.0128 18.3979L67.5842 20.1052L68.3094 22.4111M117.594 33.2993L116.878 35.6052L122.312 37.2954L123.034 34.9715L121.976 34.016L125.903 21.4401L127.709 22.0095L127.732 24.3617L129.936 25.0501L131.53 19.9425L119.166 16.0954L117.582 21.1935L119.782 21.8734L121.135 19.9442L122.946 20.5154L119.025 33.1092M105.284 31.1218V24.5175L102.993 22.2125H97.8814L97.4071 21.7415V17.6914L97.8814 17.2145H102.259L102.948 18.9972H105.285V14.1191H96.6013L94.3006 16.4053V23.0293L96.6022 25.307H101.71L102.192 25.795V29.8554L101.71 30.3323H97.3317L96.6527 28.5411H94.3015V33.4191H102.997M168.324 48.2178L166.423 49.7248L166.743 51.112L159.615 56.6605L166.27 45.572L163.235 41.6949L161.32 43.183L161.651 44.5702L151.196 52.7183L149.929 52.0658L148.005 53.5643L151.519 58.0648L153.439 56.5663L153.096 55.1621L160.226 49.6135L153.584 60.702L155.812 63.5576L168.646 53.5437L169.913 54.2142L171.837 52.7072" fill="white"/>
<path d="M132.056 81.1869H153.652C145.982 59.2222 125.264 43.4046 100.792 42.9824L110.011 71.3759H132.057V81.186L132.056 81.1869ZM67.5403 132.876V123.075L75.279 120.301L75.2798 104.593L45.3799 82.8574C43.6348 88.4069 42.7489 94.1908 42.7529 100.008C42.7529 118.628 51.6818 135.145 65.493 145.561L69.603 132.876H67.5403ZM67.5403 71.3767H89.5817L98.8136 42.9833C74.3371 43.3943 53.6186 59.2222 45.939 81.1869H67.5403V71.3767ZM104.016 125.49L99.7949 122.414L95.5702 125.49V132.876H85.4186L66.7269 146.453C76.041 153.123 87.459 157.045 99.7949 157.045C112.133 157.045 123.545 153.115 132.873 146.453L114.176 132.876H104.016V125.49ZM154.218 82.8848L124.337 104.611V120.301L132.057 123.076V132.877H129.989L134.115 145.563C147.917 135.146 156.85 118.621 156.85 100.01C156.85 94.0281 155.921 88.2878 154.218 82.8848Z" fill="#002D62"/>
<path d="M99.7951 161.181C66.0018 161.181 38.5952 133.806 38.5952 100.01C38.5952 66.2046 66.0018 38.8027 99.7959 38.8027C133.597 38.8027 160.994 66.2046 160.994 100.01C160.994 133.804 133.597 161.18 99.7968 161.18" fill="#002D62"/>
<path d="M99.7915 38.8016C65.9914 38.8016 38.5942 66.2036 38.5942 100.009C38.5942 133.803 65.9914 161.189 99.7915 161.189C133.6 161.189 160.987 133.803 160.987 100.009C160.987 66.2044 133.6 38.8008 99.7915 38.8008M134.115 145.563L129.99 132.878H114.177L132.879 146.455C123.546 153.124 112.133 157.047 99.7915 157.047C87.4634 157.047 76.0411 153.124 66.7218 146.455L85.4247 132.878H75.5907L64.719 147.925L65.4862 145.563C51.6802 135.146 42.753 118.63 42.753 100.01C42.753 94.0284 43.6692 88.2795 45.3791 82.868L75.2791 104.611V100.826L52.4474 84.2183L43.0407 81.1872H45.9391C53.6196 59.2216 74.3372 43.3946 98.8137 42.981L99.7924 39.9413V95.8463H111.757V83.952L104.018 81.1863V71.377H110.017L100.785 42.9836C125.265 43.4049 145.98 59.2233 153.646 81.1872H156.562L147.165 84.2269H124.337V104.594L154.22 82.886C155.966 88.4264 156.852 94.202 156.846 100.011C156.846 118.621 147.916 135.147 134.115 145.564" fill="#EB6E1F"/>
<path d="M111.756 120.302V108.406H93.2641L87.8398 115.921V120.302L95.5649 123.076V125.491L99.7947 122.415L104.016 125.492V123.077" fill="#EB6E1F"/>
<path d="M124.335 83.9521V84.2278H147.164L156.56 81.1881H132.062M95.5702 71.378V81.1881L87.8401 83.9521V95.8395H99.7958V39.9414L98.8145 42.9828L89.5817 71.3763M87.8401 115.92L93.2601 108.415H87.8401M73.4826 120.936L75.279 120.303L73.4826 120.928M65.4913 145.564L64.7156 147.925L75.5967 132.878H69.6116M67.5403 81.1881H43.0347L52.4362 84.2193L75.2773 100.828V83.9513" fill="#F4911E"/>
<path d="M67.5405 123.075V132.876L70.0236 130.368H93.0736V124.811L95.5722 123.075L87.842 120.301L85.3435 122.046V105.905H114.257L111.757 108.406V120.301L104.025 123.075V132.876L106.522 130.368H129.565V124.811L132.058 123.075L124.333 120.301L121.831 122.046V82.1869L129.565 79.4127V73.8727L132.058 71.3759H104.023V81.186L106.52 79.4135L114.255 82.1861L111.755 83.95V95.8374H87.8403L85.3418 98.3359V82.1869L93.0719 79.4127V73.8727L95.5704 71.375H67.5405V81.1851L70.0236 79.4127L77.7675 82.1852L75.2792 83.9491V120.299" fill="white"/>
<path d="M132.056 81.1871V71.377L129.563 73.8832V79.4146L121.829 82.1872V122.046L124.336 120.301V83.9511M132.056 123.075L129.563 124.812V130.369H106.52L104.017 132.878H132.057M87.8401 108.414H111.755L114.255 105.905H85.3416V122.054L87.8401 120.301V115.919M95.5702 125.491V123.076L93.0768 124.812V130.369H70.0234L67.5352 132.878H95.5702M77.7672 82.1872L70.0242 79.4129L67.5446 81.1871L75.2799 83.9511M106.52 79.4138L104.017 81.1862L111.752 83.9519L114.256 82.188M95.5702 81.1871V71.377L93.0768 73.8832V79.4146L85.3416 82.1872V98.3362L87.8401 95.8479V83.9502" fill="#E7E9EA"/>
</g>
<defs>
<clipPath id="clip0_18_1238">
<rect width="200" height="200" fill="white"/>
</clipPath>
</defs>
</svg>
