<svg width="200" height="200" viewBox="0 0 200 200" fill="none" xmlns="http://www.w3.org/2000/svg">
<path d="M56.7788 77.5863L43.1573 72.7041H0L56.7788 113.98M92.5552 55.4085V72.7032L78.9226 77.5863V98.5253H121.061V77.5863L107.429 72.7041V55.4085H117.989L99.9919 0L82.0064 55.4085M156.831 72.7041L143.21 77.5863V113.98L200 72.7041M125.321 163.796L161.802 190.316L153.182 163.796M46.799 163.796L38.1919 190.316L74.6683 163.796M107.428 146.536L121.06 141.641V120.679H78.9226V141.642L92.5552 146.537V150.806L99.9927 145.382L107.429 150.806" fill="#EB6E1F"/>
<path d="M156.831 72.7041L143.21 77.5863V78.0766H183.448L200 72.7041M92.5552 55.4085V72.7032L78.9226 77.5863V98.5253H99.991V0L82.0056 55.4085M78.9217 120.679V133.915L88.4843 120.679M46.799 163.796L38.1919 190.316L57.3486 163.796M56.7788 77.5863L43.1573 72.7041H0L56.7788 113.98" fill="#F4911E"/>
<path d="M56.7788 107.32L16.5519 78.0757L0 72.7031L56.7788 113.979" fill="#EB6E1F"/>
<path d="M156.831 72.7038V55.4082H107.428V72.7038L121.06 77.586V98.525H78.9225V77.586L92.5551 72.7038V55.4082H43.1572V72.7038L56.7795 77.586V141.642L43.1581 146.537V163.796H92.5559V146.536L78.9233 141.641V120.679H121.062V141.642L107.429 146.537V163.796H156.831V146.536L143.211 141.641V77.5851" fill="white"/>
<path d="M152.435 59.824V69.5996L138.808 74.4826V144.733L143.21 141.641V77.5988L156.831 72.7038V55.4082M152.435 159.392H111.828L107.428 163.796H156.831V146.536L152.435 149.627M78.9216 120.679H121.062L125.456 116.286H74.5259V144.733L78.9216 141.641M88.1534 159.392H47.5401L43.1572 163.796H92.5551V146.536L88.1534 149.627M61.1795 74.4826L47.5401 69.5996L43.1572 72.7029L56.7787 77.586M125.456 74.4826L111.828 69.5996L107.427 72.7029L121.059 77.586M78.9216 77.586L92.5542 72.7038V55.4211L88.1534 59.824V69.5996L74.5259 74.4826V102.94L78.9216 98.525" fill="#E7E9EA"/>
</svg>
