<svg width="200" height="200" viewBox="0 0 200 200" fill="none" xmlns="http://www.w3.org/2000/svg">
<path d="M20.7709 25.9462C20.7709 11.8576 12.1942 7.3296 4.50826 7.43493L2 7.3296V0.0292599H52.0978L52.1066 7.46566C44.9247 8.06548 37.5874 12.8978 37.5874 25.9462V69.8316L41.0597 67.681C48.2783 56.4218 67.2236 26.5621 71.1647 17.9392C76.0172 7.37349 68.6008 7.37349 61.4877 7.37349V0H105.895V7.37349H102.77C97.9381 7.37349 91.9619 7.37349 83.9815 18.2552C73.7785 32.2049 53.5146 66.0073 53.5146 66.0073C84.5485 68.5822 96.2224 115.705 104.193 122.099C99.6361 88.435 122.145 46.4574 155.164 48.0857C158.859 48.251 163.409 47.7375 173.946 50.9444C184.488 54.1483 185.452 48.3988 186.861 41.9733H194.743V97.4354H187.925C187.361 87.8308 183.058 56.0619 155.25 55.0963C126.982 54.1498 121.663 90.3603 121.279 115.072C119.863 206.395 177.37 203.52 187.904 174.023C189.443 169.763 188.772 168.544 187.044 167.612C174.512 160.897 189.041 142.932 197.091 158.641C200.783 165.851 194.175 200 159.707 200C106.194 200 90.5334 117.282 70.608 90.3603C55.0852 69.3956 42.4237 78.8319 37.6607 83.9627L37.4512 98.3673L37.5786 124.028C37.5786 138.131 46.1466 142.659 53.8486 142.569L56.3584 142.657V149.928H2V142.657L4.50973 142.569C12.1957 142.657 20.7724 138.127 20.7724 124.025L20.7709 25.9462Z" fill="#004687"/>
</svg>
