<svg width="200" height="200" viewBox="0 0 200 200" fill="none" xmlns="http://www.w3.org/2000/svg">
<path d="M152.424 43.0025C149.311 43.1034 146.354 46.1999 146.409 51.5912C146.409 51.5912 146.391 81.6275 146.412 84.5391C146.429 87.4586 146.41 88.4941 146.498 89.1378C146.553 89.5577 146.645 89.9377 146.73 90.3204C146.1 90.9063 145.463 91.491 144.795 92.0499C140.027 96.0395 139.237 94.6359 138.801 91.0392L138.816 68.5347L131.1 70.4944C131.1 70.4944 131.049 71.2135 131.063 72.1686C130.044 71.2135 128.056 70.9884 126.547 71.029C117.429 71.2525 110.47 86.3621 112.941 97.9079C111.346 99.7198 109.085 101.786 106.542 104.045L106.57 77.3572L98.7457 79.5198L98.6744 99.7144C98.6642 100.07 98.6507 100.84 98.6405 101.911C97.6077 105.748 94.5165 107.831 92.8874 107.591C91.231 107.347 90.754 104.527 90.7914 103.213L90.7975 81.6425L83.3689 83.5163C83.5496 92.1357 80.1118 95.8487 76.2092 97.2475C74.9515 92.3672 72.021 88.4881 67.3616 87.7463C65.0644 87.3839 63.1087 87.9875 61.7044 89.1255C51.4384 92.4378 49.456 109.224 53.8152 116.207C56.3783 120.454 59.7112 121.379 61.5312 121.555C72.2402 122.588 77.4361 111.411 76.8738 101.606C79.5699 100.739 81.8087 99.1815 83.1276 97.1766L82.9823 103.566C83.0061 107.837 83.5683 114.089 88.4694 114.102C92.1947 114.108 95.7807 111.406 98.77 108.026C98.7666 109.019 98.7577 110.059 98.7577 111.126C93.6417 116.027 88.8297 121.482 86.8528 127.192C86.7267 127.558 86.6153 127.939 86.5096 128.325C77.8797 130.645 70.6204 132.516 66.1926 133.501C39.301 139.496 31.6107 146.855 30.3702 156C39.75 145.562 50.7565 149.619 53.8686 151.478C54.6185 149.863 58.5149 144.287 67.956 140.687C73.6786 138.502 79.6595 136.355 85.7469 134.245C85.7265 141.987 89.2554 150.001 96.6719 148.744C102.388 147.779 106.596 143.991 106.521 128.906L106.524 128.061C138.451 117.795 170.295 109.027 192.394 101.437C203.853 97.4953 201.444 83.922 191.288 79.9552C191.956 77.1103 191.846 73.9632 190.994 70.8778C188.076 60.3449 190.263 56.7014 192.268 54.9165C168.631 51.8344 168.551 87.3886 157.612 91.1004C155.762 91.7269 153.968 90.1553 153.795 87.798C169.122 69.6041 166.486 44.3106 153.046 43.0229C152.838 43.0029 152.632 42.9957 152.424 43.0025ZM155.738 49.3274C157.076 49.4275 158.829 51.1291 159.813 54.5925C162.028 62.4092 159.785 72.677 153.933 81.6896C153.943 72.9957 153.964 54.2053 153.933 51.9267C153.909 50.1398 154.698 49.2495 155.738 49.3274ZM183.273 60.0235C180.396 62.7905 183.218 70.6721 183.579 77.1307C183.59 77.3407 183.581 77.5419 183.589 77.7451C181.315 77.4064 178.88 77.3853 175.597 77.785C172.966 78.1 171.08 78.995 169.822 80.1533C172.982 72.3061 177.847 60.9039 183.273 60.0235ZM30.5439 72.0744C29.7871 72.0665 29.0154 72.0861 28.2346 72.1388C2.35608 73.8296 -5.11269 97.0086 3.29191 99.0335C9.68933 100.561 12.9228 94.551 13.4409 90.2296C11.8356 91.7164 8.24345 92.8177 8.88429 87.7138C9.48757 82.8537 17.7402 76.6084 28.2208 75.8228C35.5384 75.3046 41.4903 81.5988 41.8415 88.7889C42.1414 95.1155 38.0667 100.956 32.119 103.405C29.5492 102.707 26.5978 102.757 23.0736 103.712C22.8861 90.4493 24.4156 83.0398 28.4341 78.7559C26.1062 79.5416 23.5583 80.9478 21.4043 83.4405C13.8071 92.4865 16.4138 118.73 14.5631 127.549C13.7247 132.301 8.47197 134.812 6.02478 130.602C0.639551 138.521 9.67647 145.157 16.7828 141.394C20.1571 139.612 25.0441 134.881 24.134 123.43C23.6262 117.029 23.2855 111.471 23.1355 106.617C25.3031 106.12 28.8723 106.237 31.473 111.056C34.4212 116.516 41.7155 140.599 59.0947 131.976C63.0858 129.998 64.2015 127.138 64.7674 124.232C64.9855 123.142 64.326 123.078 63.5864 123.897C59.3772 127.799 51.1184 128.627 45.7708 118.202C43.0067 112.81 40.2993 108.524 36.9386 105.872C45.5173 102.776 51.3746 95.4989 50.9178 87.76C50.3906 78.9616 41.8951 72.2078 30.5434 72.0814L30.5439 72.0744ZM127.331 74.8053C129.291 74.6559 131.063 75.9103 131.458 77.5791C131.489 82.9608 131.346 87.9548 131.356 89.6176C131.387 94.0171 128.122 99.3527 124.601 99.1494C119.438 98.8548 119.124 85.5422 122.979 78.1666C124.168 75.8892 125.807 74.9217 127.331 74.8053ZM180.8 81.078C181.165 81.0603 181.532 81.0603 181.9 81.082H181.95C182.325 81.0957 182.707 81.1411 183.106 81.1987C183.12 81.2027 183.133 81.2026 183.146 81.2046C183.19 81.2105 183.244 81.2223 183.291 81.2292C182.702 83.9216 181.18 85.9457 178.157 86.5587C171.446 87.9202 171.686 82.1654 176.843 81.5117C177.869 81.3829 178.734 81.2584 179.535 81.1738C179.563 81.1738 179.589 81.1679 179.613 81.1679C180.001 81.1272 180.373 81.0953 180.744 81.0817C180.761 81.0817 180.779 81.078 180.8 81.078ZM189.95 83.5078C190.322 83.6737 190.713 83.8498 191.122 84.0361C199.138 87.7007 197.246 96.4122 191.227 98.2004C175.181 102.966 138.427 113.542 106.53 122.35L106.542 108.702C109.347 106.24 112.171 103.893 114.676 101.668C115.61 104.293 125.273 109.457 131.391 98.3072C134.213 107.004 144.115 96.6122 146.409 94.8545C146.978 94.421 147.512 93.9653 148.05 93.5182C151.271 98.1953 158.357 96.9507 162.41 93.0728C164.523 91.0508 166.625 87.6345 168.036 84.5084C168.373 87.8445 172.126 91.0029 178.877 90.2713C184.361 89.6719 187.984 87.0605 189.95 83.5078ZM66.2199 92.0412C66.5742 92.053 66.9461 92.1278 67.3236 92.2716C69.2425 92.9998 70.6532 95.2182 71.4815 97.9851C68.697 97.9547 66.3381 97.2317 65.6666 96.8456C62.1326 94.8393 63.74 91.9585 66.2199 92.0412ZM60.81 97.764C61.4678 98.6209 62.3498 99.4206 63.5429 100.105C66.3923 101.73 69.4245 102.416 72.2636 102.372C72.6863 108.278 70.7749 114.532 65.8737 114.545C58.5185 114.563 58.6253 102.048 60.81 97.764ZM98.7434 116.088C98.7332 119.119 98.7282 122.067 98.7248 124.495C96.2537 125.173 93.82 125.833 91.4478 126.477C91.4921 126.378 91.5213 126.277 91.5622 126.179C93.1062 122.697 95.6964 119.322 98.7434 116.088ZM98.7187 130.608C98.7084 140.064 98.3173 142.884 95.6861 143.571C92.3527 144.438 90.3111 139.022 90.2668 133.44C93.0786 132.482 95.8932 131.539 98.7187 130.608Z" fill="#004687"/>
</svg>
