<svg width="200" height="200" viewBox="0 0 200 200" fill="none" xmlns="http://www.w3.org/2000/svg">
<path d="M165 9.85179C165 4.44638 160.633 0.087184 155.218 0.087184C149.803 0.087184 145.436 4.44638 145.436 9.85179C145.436 13.3391 147.357 16.4778 150.152 18.1343V21.0113C150.152 28.2476 144.301 34.0889 137.051 34.0889C129.89 34.0889 124.038 28.2476 124.038 21.0113V18.1343C126.833 16.3906 128.754 13.3391 128.754 9.85179C128.754 4.44638 124.387 0.087184 118.972 0.087184C113.557 0.087184 109.19 4.44638 109.19 9.85179C109.19 13.3391 111.024 16.3906 113.732 18.0471V21.0113C113.732 28.2476 107.88 34.0889 100.631 34.0889C93.4692 34.0889 87.6175 28.1604 87.6175 20.9242V18.1343C90.4997 16.3906 92.4211 13.3391 92.4211 9.7646C92.4211 4.3592 88.0542 0 82.6391 0C77.2241 0 72.8571 4.3592 72.8571 9.7646C72.8571 13.1648 74.6913 16.2162 77.3114 17.9599H77.2241V21.0113C77.2241 28.2476 71.3724 34.0889 64.1232 34.0889C56.9614 34.0889 51.0223 28.1604 51.0223 20.9242V17.9599C53.7299 16.2162 55.564 13.1648 55.564 9.7646C55.564 4.3592 51.197 0 45.782 0C40.367 0 36 4.3592 36 9.7646C36 13.1648 37.7468 16.129 40.367 17.8727V55.449H40.4543V164.952L100.456 200L160.458 164.952V55.6234H160.546V18.1343C163.166 16.3906 165 13.3391 165 9.85179Z" fill="white"/>
<path d="M43.3364 55.623V163.295L100.369 196.6L157.314 163.295V55.623H43.3364Z" fill="#004687"/>
<path d="M155.218 16.565C158.974 16.565 161.943 13.5136 161.943 9.85184C161.943 6.19011 158.886 3.13867 155.218 3.13867C151.463 3.13867 148.493 6.19011 148.493 9.85184C148.493 13.5136 151.463 16.565 155.218 16.565ZM154.519 21.0114H153.122C153.122 29.9041 145.873 37.1404 136.964 37.1404C128.056 37.1404 120.894 29.9041 120.894 21.0114H116.614C116.614 29.9041 109.365 37.1404 100.457 37.1404C91.5479 37.1404 84.3861 29.9041 84.3861 21.0114H80.1065C80.1065 29.9041 72.8573 37.1404 63.9487 37.1404C55.0401 37.1404 47.8783 29.9041 47.8783 21.0114L43.2493 20.9242V52.572H157.314V21.0114H153.035M45.6948 16.565C49.4504 16.565 52.42 13.5136 52.42 9.85184C52.42 6.19011 49.3631 3.13867 45.6948 3.13867C41.9393 3.13867 38.9697 6.19011 38.9697 9.85184C38.9697 13.5136 41.9393 16.565 45.6948 16.565ZM82.4646 16.565C86.2202 16.565 89.1898 13.5136 89.1898 9.85184C89.1898 6.19011 86.1329 3.13867 82.4646 3.13867C78.7091 3.13867 75.7395 6.19011 75.7395 9.85184C75.7395 13.5136 78.7091 16.565 82.4646 16.565ZM118.885 16.565C122.641 16.565 125.61 13.5136 125.61 9.85184C125.61 6.19011 122.553 3.13867 118.885 3.13867C115.13 3.13867 112.073 6.19011 112.073 9.85184C112.073 13.5136 115.13 16.565 118.885 16.565Z" fill="#C09A5B"/>
<path d="M147.532 142.634C147.532 142.546 147.445 142.546 147.445 142.459C143.515 135.833 136.615 143.593 142.641 146.47C142.641 146.47 142.729 146.47 142.729 146.557C143.165 146.818 143.427 147.08 143.427 147.69C143.427 148.126 143.34 148.562 143.078 149.347C140.021 157.106 128.754 160.593 120.37 153.532C114.78 148.824 110.588 139.495 110.85 123.54C111.024 112.729 113.645 96.9491 127.27 97.385C132.597 97.5594 136.091 99.8262 138.449 102.79C142.03 107.324 142.903 113.34 143.078 115.868H146.397V91.6309H142.554C141.855 94.4208 141.418 96.9491 136.265 95.5542C131.2 94.1592 128.929 94.3336 127.182 94.2464C111.461 93.5489 100.718 111.247 102.378 125.807C102.378 126.069 102.378 126.33 102.465 126.679C100.02 124.935 96.7881 115.955 90.9364 109.329C88.3162 106.365 85.172 103.924 81.2418 102.79C80.1937 102.442 79.0583 102.267 77.8355 102.18C77.8355 102.18 87.6175 87.4461 92.5958 81.3432C96.4388 76.5481 99.321 76.5481 101.679 76.5481H103.164V73.3223H81.6784V76.5481C82.4645 76.5481 83.2506 76.5481 83.9493 76.6353C85.7834 76.8096 87.1808 77.2455 87.0935 78.9892C87.0061 79.5995 86.8315 80.297 86.3948 81.1688C84.5606 84.7434 76.2634 96.6876 72.4205 102.093C72.2458 102.355 71.9838 102.703 71.8091 102.878L70.1497 103.837V84.6562C70.1497 78.9892 73.7306 76.8096 77.1368 76.5481V73.3223H52.9438V76.5481H54.1666C54.516 76.5481 54.8653 76.5481 55.2147 76.6353C57.3981 76.8096 59.5816 77.8558 60.8917 79.9482C61.5904 81.1688 62.1145 82.6509 62.1145 84.6562V127.551C62.1145 133.741 57.9222 135.659 54.2539 135.659H53.0312V138.885H79.4076V135.659H78.1849C76.7001 135.659 75.128 135.31 73.8179 134.525C71.8091 133.392 70.3243 131.212 70.3243 127.551L70.237 116.391L70.3243 110.114C72.5952 107.934 78.4469 104.011 85.696 112.293C85.8707 112.555 86.0454 112.729 86.3074 112.991C93.2072 121.448 99.0589 142.285 111.374 153.532C116.265 157.978 122.116 160.942 129.54 160.942C146.135 160.681 149.366 145.772 147.532 142.634Z" fill="white"/>
</svg>
