<svg width="200" height="200" viewBox="0 0 200 200" fill="none" xmlns="http://www.w3.org/2000/svg">
<g clip-path="url(#clip0_18_1244)">
<path d="M182.581 84.8344C177.004 93.2818 161.646 99.1995 116.989 115.452C117.375 112.621 118.105 107.519 118.662 104.088C119.649 102.33 120.85 100.443 122.137 98.5562L122.48 98.0418C123.446 96.6412 124.506 95.3087 125.655 94.0539C126.684 95.7692 128.272 98.0846 131.575 97.999C142.643 97.6986 147.49 76.9869 149.206 68.8823C150.093 69.0833 150.999 69.1839 151.909 69.1823C151.136 71.7981 144.959 85.8204 153.152 88.179C161.303 90.5804 166.322 68.0246 167.781 63.1362C172.757 68.8823 171.513 74.9288 168.982 76.172C167.695 76.8153 166.237 74.8427 164.778 76.2148C162.633 78.2734 164.049 81.6613 167.009 82.1758C171.255 82.8618 174.044 79.9888 176.833 77.0297C177.733 76.1293 181.037 74.1134 183.053 75.5716C186.141 77.673 183.911 82.8186 182.581 84.8344ZM109.396 101.858C104.892 102.716 106.351 85.1344 113.043 84.3195C114.33 84.1911 115.659 85.7348 115.402 88.3079C115.176 90.702 114.731 93.0704 114.072 95.3832C113.214 98.0418 111.799 101.43 109.396 101.858H109.396ZM135.607 74.4572C138.953 76.1293 133.119 83.1618 130.459 86.0348C130.888 79.5599 134.106 73.6851 135.607 74.4572H135.607ZM111.584 117.253C111.584 117.253 110.04 117.939 109.311 118.196C110.34 116.695 112.185 113.222 112.571 112.579C112.4 113.737 111.584 117.253 111.584 117.253V117.253ZM104.077 138.179C101.117 138.693 102.618 131.189 104.935 127.587C107.938 126.429 110.469 125.229 110.469 125.229C108.924 132.647 107.595 137.536 104.077 138.179ZM92.4944 97.6558C92.4516 98.4279 91.5936 105.117 91.3791 105.846C90.5643 109.234 88.8478 111.678 86.446 111.549C82.328 111.421 84.1725 94.0539 90.0493 94.6539C90.4169 94.6633 90.7782 94.7521 91.1084 94.9142C91.4385 95.0762 91.7297 95.3078 91.962 95.5929C92.1942 95.8781 92.3621 96.21 92.454 96.5661C92.5459 96.9222 92.5597 97.2939 92.4944 97.6558ZM65.5977 121.584C62.2512 120.898 62.3801 111.935 64.6964 107.99C66.1979 110.734 70.1874 111.035 72.5898 110.692C72.7615 114.594 69.7584 122.399 65.5977 121.584ZM72.4609 106.489C71.7611 106.669 71.0354 106.728 70.3158 106.661C68.6431 106.489 67.3993 105.675 67.2704 104.989C66.4552 101.172 72.2896 101.73 72.4613 106.489H72.4609ZM188.115 75.4004C186.142 69.7827 178.635 70.8976 176.747 72.6558C176.747 65.2799 173.015 63.2651 169.111 58.7195C168.253 55.546 170.784 54.4739 171.127 51.7725C171.814 46.2409 163.148 47.8274 165.594 59.1479C164.564 64.4223 158.987 80.5888 156.07 81.0176C154.397 81.232 154.268 78.5306 155.169 75.3144C156.027 72.0981 160.66 66.2665 157.786 63.3074C156.113 61.592 153.024 64.1651 150.236 62.6213C150.236 62.6213 150.322 60.306 149.592 59.4483C149.222 59.0973 148.73 58.9017 148.22 58.9017C147.709 58.9017 147.218 59.0973 146.847 59.4483C144.745 61.0776 144.659 65.5372 145.775 67.7674C144.917 73.299 144.23 75.5288 141.528 82.9474C138.783 90.6232 132.219 94.2683 130.717 89.5939C143.844 76.9869 140.927 72.1413 138.868 70.426C135.479 67.6385 125.012 72.6558 124.497 88.5646C124.51 89.3266 124.582 90.0865 124.711 90.8376C123.682 92.0809 121.88 94.3111 119.564 97.4841C120.636 90.4516 122.138 80.2027 122.652 76.4293C120.966 77.483 119.084 78.1834 117.119 78.4879L116.732 81.1032C113.944 76.9009 100.903 80.846 101.375 101.429C100.732 107.776 97.3424 108.462 97.214 106.961C96.7849 99.4567 101.461 77.2869 103.048 69.2679C101.365 70.2045 99.5136 70.8018 97.6002 71.026C97.6002 71.026 93.5674 91.4381 93.4818 91.4381C92.7913 90.8271 91.9532 90.4068 91.0504 90.2188C90.1476 90.0307 89.2113 90.0815 88.3342 90.366C83.4438 91.5241 79.6256 98.4279 79.3683 102.802C78.5292 103.663 77.5591 104.387 76.4941 104.946C75.8939 102.33 74.6925 99.9283 71.99 99.1134C63.1097 96.412 55.8171 109.577 58.1766 121.97C58.8786 124.287 60.3648 126.288 62.3806 127.63C68.6436 130.718 76.7942 122.27 76.8803 109.105C77.8085 108.471 78.5968 107.654 79.1966 106.704C78.6391 110.692 79.8829 118.153 84.3875 118.797C89.235 119.526 91.9374 113.736 92.6666 111.292C92.9533 112.085 93.4781 112.77 94.1692 113.254C94.8603 113.738 95.684 113.996 96.5276 113.994C100.689 113.822 101.975 108.547 102.748 106.275C106.394 112.107 112.314 106.747 113.644 103.316L113.172 106.146C109.826 110.177 103.605 120.169 103.605 120.169C92.0231 124.371 69.5016 132.69 60.2356 146.584C64.8864 145.696 69.6756 145.843 74.2635 147.012C75.765 142.939 84.9449 134.748 98.4577 130.246C95.1545 136.935 95.798 146.798 101.461 146.713C111.241 146.498 114.459 129.688 115.832 123.299C124.54 119.569 140.069 113.565 156.328 106.618C171.385 100.143 193.005 89.2939 188.115 75.4004ZM11.3315 146.97C10.688 145.383 15.0204 141.61 18.8815 141.438C17.38 144.011 11.9318 148.556 11.3315 146.97ZM3.18084 110.134C2.49452 116.438 3.65266 120.683 8.54297 122.699C12.1463 124.199 16.3074 121.026 17.4656 119.225C18.6674 117.409 19.431 115.34 19.6962 113.179C19.6962 113.179 12.8759 119.74 8.92917 113.737C6.65524 110.263 7.85665 99.9716 21.241 92.6813C34.6249 85.4348 41.2741 91.352 41.2741 91.352C49.3392 95.8976 49.6821 109.406 47.323 119.868C45.5214 127.673 41.832 135.864 33.424 137.407C30.2925 137.965 29.0911 137.621 26.217 137.536C28.2877 132.75 29.5211 127.644 29.8635 122.441C31.8797 97.8274 34.5393 95.4693 36.9845 91.7809C18.7959 101.044 24.0291 132.476 20.4686 137.665C7.12752 139.637 4.08166 150.529 6.74132 152.244C8.75747 153.531 17.809 151.086 23.9863 141.095C28.4476 141.009 42.7328 144.954 51.4409 129.088C57.3181 118.367 59.2059 99.6283 49.7254 90.366C36.1265 76.9865 5.32541 90.6655 3.18084 110.134Z" fill="#005A9C"/>
<path d="M135.858 32.2981C139.155 30.2975 141.622 27.1772 142.807 23.5079C144.005 19.8213 143.807 15.8232 142.249 12.2734C138.949 14.2818 136.486 17.4134 135.311 21.0924C134.137 24.7715 134.331 28.7506 135.858 32.2981Z" fill="white"/>
<path d="M122.602 33.8409C124.189 34.3888 125.857 34.6643 127.535 34.6558C129.61 34.6513 131.665 34.2436 133.584 33.4553C131.757 29.3101 131.512 24.6395 132.895 20.3259C134.278 16.0123 137.193 12.3542 141.09 10.0428C139.649 7.74946 137.65 5.8585 135.279 4.54635C132.909 3.2342 130.245 2.54362 127.536 2.53906C125.405 2.53948 123.293 2.94694 121.315 3.73953C123.13 7.8567 123.36 12.4991 121.959 16.7749C120.604 21.0684 117.719 24.7152 113.852 27.0233C115.858 30.27 118.963 32.6893 122.602 33.8409Z" fill="white"/>
<path d="M119.557 16.0045C120.735 12.3654 120.567 8.42459 119.085 4.89844C115.828 6.90333 113.394 10.0053 112.222 13.6454C111.05 17.2855 111.217 21.2242 112.694 24.7519C115.963 22.7604 118.401 19.6532 119.557 16.0045Z" fill="white"/>
<path d="M140.336 35.1707C140.172 35.1393 140.003 35.1412 139.841 35.1764C139.678 35.2116 139.524 35.2792 139.387 35.3753C139.251 35.4714 139.136 35.594 139.048 35.7357C138.961 35.8774 138.902 36.0353 138.877 36.2L134.03 62.5707C133.963 62.9003 134.029 63.2431 134.214 63.5243C134.399 63.8055 134.687 64.0022 135.017 64.0716H135.274C135.568 64.0688 135.852 63.965 136.079 63.7775C136.305 63.5901 136.46 63.3305 136.518 63.0423L141.365 36.6716C141.423 36.3366 141.348 35.9921 141.156 35.7117C140.963 35.4313 140.669 35.2371 140.336 35.1707ZM129.784 41.1739C129.454 41.1069 129.111 41.1729 128.83 41.3577C128.549 41.5424 128.352 41.8308 128.282 42.16L122.363 68.5311C122.302 68.8602 122.37 69.2001 122.554 69.4797C122.738 69.7594 123.023 69.9571 123.349 70.0316C123.435 70.0316 123.521 70.0749 123.607 70.0749C123.901 70.0719 124.185 69.9681 124.411 69.7807C124.638 69.5932 124.793 69.3337 124.851 69.0456L130.728 42.7176C130.767 42.5543 130.774 42.3848 130.748 42.2187C130.722 42.0526 130.664 41.8933 130.576 41.7499C130.488 41.6065 130.373 41.4817 130.237 41.3828C130.101 41.2839 129.947 41.2132 129.784 41.1739ZM123.822 126.676C123.487 126.624 123.146 126.701 122.866 126.892C122.587 127.084 122.392 127.374 122.32 127.705L117.602 152.189C117.573 152.352 117.578 152.519 117.614 152.681C117.65 152.843 117.718 152.996 117.814 153.131C117.909 153.267 118.031 153.382 118.171 153.47C118.311 153.559 118.468 153.619 118.631 153.647C118.712 153.682 118.8 153.697 118.888 153.69C119.181 153.675 119.46 153.561 119.678 153.366C119.897 153.171 120.042 152.907 120.089 152.618L124.851 128.176C124.909 127.841 124.834 127.497 124.641 127.217C124.449 126.936 124.155 126.742 123.822 126.676ZM105.291 150.86C104.956 150.798 104.611 150.865 104.324 151.048C104.037 151.231 103.831 151.516 103.747 151.846L100.015 168.612C99.9752 168.775 99.9682 168.944 99.9941 169.111C100.02 169.277 100.079 169.436 100.166 169.579C100.254 169.723 100.369 169.848 100.505 169.946C100.641 170.045 100.795 170.116 100.958 170.156H101.259C101.542 170.155 101.816 170.056 102.035 169.876C102.254 169.696 102.404 169.447 102.46 169.169L106.235 152.36C106.274 152.199 106.28 152.033 106.254 151.869C106.227 151.706 106.168 151.55 106.08 151.41C105.992 151.27 105.877 151.149 105.741 151.055C105.606 150.96 105.453 150.894 105.291 150.86ZM120.947 40.4018C120.623 40.3138 120.278 40.3537 119.982 40.5134C119.687 40.673 119.464 40.9402 119.361 41.2595L109.366 73.5907C109.309 73.748 109.285 73.9154 109.296 74.0824C109.306 74.2495 109.351 74.4125 109.427 74.5614C109.504 74.7103 109.61 74.8418 109.74 74.9478C109.87 75.0537 110.02 75.1318 110.181 75.1772C110.297 75.2461 110.432 75.2762 110.567 75.2632C110.837 75.2597 111.098 75.1706 111.314 75.0087C111.53 74.8469 111.689 74.6207 111.768 74.3628L121.763 42.0316C121.864 41.7073 121.835 41.3564 121.683 41.0526C121.531 40.7488 121.268 40.5155 120.947 40.4018ZM90.5786 138.682C90.26 138.581 89.9145 138.61 89.6172 138.763C89.32 138.915 89.0951 139.179 88.9914 139.497L86.5895 147.258C86.4885 147.582 86.5169 147.933 86.6688 148.236C86.8207 148.54 87.0842 148.773 87.4043 148.887C87.5332 148.887 87.6616 148.93 87.7905 148.93C88.0618 148.933 88.3264 148.846 88.5435 148.683C88.7605 148.52 88.9179 148.291 88.9914 148.03L91.3938 140.268C91.4945 139.95 91.4654 139.605 91.3127 139.307C91.1601 139.01 90.8962 138.785 90.5786 138.682ZM85.9023 153.818C85.7418 153.768 85.5728 153.75 85.4053 153.766C85.2379 153.782 85.0754 153.832 84.9274 153.912C84.7794 153.992 84.6489 154.1 84.5438 154.232C84.4386 154.363 84.3609 154.514 84.3151 154.676L70.8028 198.327C70.7019 198.645 70.7309 198.991 70.8836 199.288C71.0363 199.585 71.3002 199.81 71.618 199.914C71.7414 199.963 71.8718 199.992 72.0042 200C72.2772 199.989 72.5409 199.897 72.7623 199.737C72.9836 199.577 73.1527 199.355 73.2484 199.099L86.717 155.405C86.8177 155.086 86.7885 154.741 86.636 154.444C86.4834 154.147 86.2197 153.922 85.9023 153.819V153.818ZM103.146 60.5981C103.305 60.6808 103.481 60.725 103.66 60.7269C103.908 60.7262 104.15 60.6526 104.356 60.5153C104.562 60.378 104.723 60.1831 104.819 59.9549L114.255 38.4293C114.386 38.1233 114.39 37.7783 114.269 37.4688C114.147 37.1594 113.908 36.9102 113.604 36.7752C113.3 36.6401 112.955 36.63 112.643 36.747C112.332 36.8639 112.079 37.0987 111.939 37.4004L102.502 58.926C102.378 59.2344 102.376 59.5783 102.495 59.8885C102.615 60.1987 102.847 60.4522 103.146 60.5981ZM63.7256 150.731C63.5738 150.662 63.4097 150.624 63.2429 150.618C63.0761 150.613 62.9099 150.642 62.7542 150.701C62.5984 150.761 62.4561 150.852 62.3357 150.967C62.2153 151.083 62.1191 151.221 62.0528 151.374L55.2324 166.939C55.1612 167.091 55.1214 167.255 55.1154 167.423C55.1094 167.59 55.1373 167.757 55.1974 167.913C55.2575 168.069 55.3486 168.211 55.4652 168.331C55.5818 168.452 55.7215 168.547 55.876 168.612C56.035 168.694 56.2113 168.738 56.3906 168.74C56.6369 168.734 56.8764 168.658 57.0814 168.522C57.2864 168.385 57.4486 168.193 57.5492 167.968L64.3691 152.403C64.4403 152.252 64.4801 152.087 64.4861 151.92C64.4922 151.753 64.4643 151.586 64.4042 151.43C64.344 151.274 64.2529 151.131 64.1363 151.011C64.0197 150.891 63.88 150.796 63.7256 150.731ZM107.736 26.08C107.445 25.9161 107.102 25.8738 106.78 25.9623C106.459 26.0507 106.185 26.2628 106.02 26.5521L92.8511 50.2218C92.6847 50.5184 92.6409 50.8683 92.729 51.1968C92.8172 51.5252 93.0303 51.8061 93.3229 51.9795C93.5272 52.0631 93.7457 52.1067 93.9664 52.1079C94.1874 52.1119 94.4051 52.0538 94.5946 51.9401C94.7842 51.8265 94.938 51.6619 95.0385 51.4651L108.207 27.7953C108.371 27.5051 108.414 27.1619 108.325 26.8407C108.237 26.5194 108.025 26.2456 107.736 26.08ZM71.7897 93.1437L91.2207 58.4116C91.3772 58.1154 91.4109 57.7695 91.3147 57.4486C91.2184 57.1277 90.9998 56.8575 90.7061 56.6963C90.4157 56.5325 90.0724 56.4902 89.751 56.5786C89.4296 56.6669 89.1562 56.8788 88.9905 57.1679L69.5595 91.9432C69.4771 92.0888 69.425 92.2495 69.4063 92.4157C69.3876 92.5819 69.4028 92.7502 69.4508 92.9104C69.4989 93.0706 69.5789 93.2195 69.686 93.3479C69.7932 93.4764 69.9252 93.5819 70.0741 93.6581C70.2503 93.7791 70.4609 93.8395 70.6744 93.8302C70.9048 93.8262 71.1299 93.7603 71.3261 93.6396C71.5223 93.5188 71.6824 93.3475 71.7897 93.1437ZM41.8927 144.513C41.5896 144.357 41.2378 144.323 40.9103 144.419C40.5828 144.515 40.3048 144.733 40.1339 145.028L30.0541 163.166C29.8976 163.462 29.8638 163.808 29.9601 164.129C30.0564 164.45 30.2749 164.72 30.5687 164.881C30.7579 164.965 30.9622 165.008 31.1689 165.01C31.3968 165.02 31.6228 164.964 31.8204 164.851C32.0179 164.737 32.1789 164.569 32.2843 164.366L42.3645 146.229C42.5285 145.939 42.5709 145.595 42.4825 145.274C42.3941 144.952 42.1821 144.679 41.8927 144.513ZM121.977 16.7753C123.378 12.4995 123.149 7.85714 121.334 3.73997C123.311 2.94742 125.422 2.53996 127.553 2.53951C130.263 2.54401 132.927 3.23456 135.297 4.54671C137.667 5.85887 139.666 7.74985 141.107 10.0432C137.211 12.3547 134.296 16.0126 132.913 20.3261C131.53 24.6396 131.775 29.3101 133.601 33.4553C131.682 34.2436 129.628 34.6515 127.553 34.6562C125.875 34.6648 124.207 34.3893 122.62 33.8414C118.981 32.6897 115.876 30.2704 113.87 27.0237C117.737 24.7157 120.622 21.0689 121.977 16.7753ZM112.24 13.6451C113.417 10.0078 115.85 6.90734 119.103 4.89764C120.586 8.42359 120.754 12.3647 119.575 16.0037C118.419 19.6524 115.981 22.7596 112.712 24.7511C111.246 21.2213 111.078 17.2864 112.24 13.6451ZM142.824 23.5074C141.639 27.1769 139.172 30.2974 135.875 32.2981C134.348 28.7505 134.154 24.7713 135.328 21.0921C136.503 17.413 138.966 14.2813 142.266 12.273C143.824 15.8228 144.022 19.821 142.824 23.5074ZM144.068 10.086C142.669 7.36793 140.622 5.03655 138.107 3.29833C135.592 1.56012 132.687 0.468728 129.649 0.120813C126.611 -0.227101 123.534 0.179199 120.691 1.30373C117.848 2.42826 115.326 4.23632 113.349 6.56778C111.372 8.89923 110 11.6821 109.356 14.67C108.711 17.6579 108.814 20.7585 109.654 23.6973C110.495 26.6361 112.047 29.3224 114.174 31.5182C116.301 33.714 118.937 35.3517 121.848 36.286C124.172 37.0376 126.621 37.323 129.055 37.1259C131.489 36.9288 133.86 36.253 136.032 35.1374C138.204 34.0219 140.135 32.4884 141.712 30.6251C143.29 28.7618 144.484 26.6053 145.226 24.2795C145.987 21.9556 146.277 19.5032 146.078 17.066C145.879 14.6288 145.195 12.2558 144.067 10.086H144.068Z" fill="#EF3E42"/>
<path d="M193.403 87.4978H192.582V86.7732H193.273C193.575 86.7732 193.964 86.7732 193.964 87.1141C193.964 87.4127 193.748 87.4978 193.403 87.4978ZM194.568 87.1569C194.568 86.3467 194.094 86.2188 193.403 86.2188H191.935V89.2462H192.582V88.0522H193.1L193.791 89.2462H194.482L193.748 88.0522C193.864 88.0569 193.981 88.0363 194.088 87.9917C194.196 87.9471 194.292 87.8798 194.37 87.7943C194.448 87.7089 194.507 87.6075 194.541 87.4974C194.575 87.3872 194.584 87.271 194.568 87.1569Z" fill="#005A9C"/>
<path d="M193.13 90.0401C192.538 90.0254 191.976 89.7787 191.562 89.3527C191.149 88.9267 190.918 88.3551 190.918 87.7599C190.918 87.1647 191.149 86.5931 191.562 86.1671C191.976 85.7411 192.538 85.4944 193.13 85.4797C193.431 85.4754 193.729 85.5311 194.008 85.6438C194.287 85.7565 194.541 85.9237 194.755 86.1359C194.969 86.3481 195.139 86.6009 195.255 86.8797C195.371 87.1585 195.431 87.4577 195.431 87.7599C195.431 88.0621 195.371 88.3613 195.255 88.6401C195.139 88.9189 194.969 89.1717 194.755 89.3839C194.541 89.5961 194.287 89.7633 194.008 89.876C193.729 89.9887 193.431 90.0445 193.13 90.0401ZM193.13 84.8341C192.561 84.8383 192.005 85.0117 191.533 85.3325C191.061 85.6532 190.695 86.107 190.479 86.6368C190.263 87.1666 190.207 87.7488 190.319 88.3101C190.431 88.8715 190.706 89.387 191.109 89.7918C191.512 90.1967 192.025 90.4728 192.583 90.5855C193.141 90.6983 193.72 90.6425 194.248 90.4254C194.775 90.2082 195.226 89.8393 195.545 89.365C195.864 88.8907 196.037 88.3322 196.041 87.7597C196.044 87.3746 195.971 86.9927 195.826 86.6363C195.681 86.2799 195.466 85.9561 195.195 85.6837C194.925 85.4114 194.602 85.1961 194.248 85.0502C193.893 84.9043 193.513 84.8308 193.13 84.8341Z" fill="#005A9C"/>
</g>
<defs>
<clipPath id="clip0_18_1244">
<rect width="200" height="200" fill="white"/>
</clipPath>
</defs>
</svg>
