<svg width="200" height="200" viewBox="0 0 200 200" fill="none" xmlns="http://www.w3.org/2000/svg">
<g clip-path="url(#clip0_18_1275)">
<path d="M134.042 103.896C135.679 103.896 137.172 103.116 137.818 102.724C137.757 102.724 133.015 102.722 133.015 102.722V103.896H134.042ZM138.704 119.811C139.08 119.769 139.453 119.682 139.81 119.569L138.026 118.398C137.561 118.093 135.902 117.098 134.047 117.096L133.015 117.097V119.811H138.704ZM116.796 133L118.273 130.86C118.571 130.427 119.546 128.866 119.546 126.944V114.754C119.546 113.885 118.654 112.924 117.89 112.365L116.39 111.268L117.887 110.166C118.652 109.602 119.546 108.638 119.546 107.772V95.6007C119.546 93.6787 118.571 92.1153 118.272 91.6818L116.798 89.5435L143.076 89.5275L143.915 105.057L141.717 103.794C141.486 103.661 140.933 103.368 140.158 103.123V119.448C141.193 119.065 142.042 118.505 142.352 118.288L144.772 116.589L143.334 133H116.796Z" fill="white"/>
<path d="M138.776 121.178H131.64V115.73L134.047 115.729C136.251 115.731 138.146 116.837 138.783 117.256V103.735C138.146 104.151 136.249 105.263 134.042 105.263H131.64V101.355H137.635C139.987 101.355 141.781 102.25 142.406 102.609L141.772 90.8957L119.406 90.9087C119.833 91.5272 120.921 93.3314 120.921 95.5996V107.771C120.921 109.5 119.248 110.864 118.705 111.264C119.248 111.661 120.921 113.027 120.921 114.753V126.943C120.921 129.209 119.833 131.015 119.406 131.633H142.074L143.145 119.404C142.495 119.86 140.713 120.987 138.776 121.178Z" fill="white"/>
<path d="M138.776 121.178H131.64V115.73L134.047 115.729C136.251 115.731 138.146 116.838 138.783 117.256V103.735C138.146 104.151 136.249 105.263 134.042 105.263H131.64V101.355H137.635C139.987 101.355 141.781 102.25 142.406 102.609L141.772 90.8957L119.406 90.9087C119.833 91.5272 120.921 93.3314 120.921 95.5996V107.771C120.921 109.5 119.248 110.864 118.705 111.264C119.248 111.661 120.921 113.027 120.921 114.753V126.943C120.921 129.209 119.833 131.015 119.406 131.633H142.074L143.145 119.404C142.495 119.86 140.713 120.987 138.776 121.178Z" fill="#002B5C"/>
<path d="M129.576 123.228V113.679H134.042C134.994 113.679 135.909 113.867 136.721 114.21V106.78C135.909 107.123 134.991 107.312 134.042 107.312H129.576V99.3033H137.635C138.551 99.3033 139.418 99.4539 140.184 99.7207L139.817 92.9449H122.458C122.804 93.7507 122.992 94.6597 122.992 95.5993V107.761C122.992 109.089 122.438 110.322 121.476 111.271C122.429 112.225 122.992 113.469 122.992 114.771V126.927C122.992 127.868 122.804 128.777 122.461 129.582H140.215L140.821 122.642C140.052 122.994 139.186 123.228 138.284 123.228H129.576Z" fill="#CE152D"/>
<path d="M137.253 96.1222H126.281L129.576 99.3025H137.636C138.551 99.3025 139.418 99.4531 140.184 99.7207L137.253 96.1222Z" fill="#910020"/>
<path d="M136.72 114.211L133.823 110.495H126.281L129.575 113.68H134.042C134.993 113.68 135.908 113.868 136.72 114.211Z" fill="#910020"/>
<path d="M122.992 126.928C122.992 127.868 122.805 128.777 122.462 129.582H140.215L137.778 126.402H126.281V96.1222L122.459 92.9457C122.805 93.7507 122.992 94.6597 122.992 95.5993V107.762C122.992 109.089 122.438 110.322 121.475 111.271C122.429 112.226 122.992 113.469 122.992 114.772V126.928Z" fill="#910020"/>
<path d="M100.652 119.801V112.743C99.9978 113.31 99.3679 114.106 99.3679 114.835V119.801H100.652ZM95.9849 133C90.5286 133 86.0882 128.72 86.0882 123.459V114.826C86.0882 113.958 85.1953 112.995 84.4309 112.435L82.9282 111.334L84.4317 110.234C85.1961 109.674 86.0882 108.713 86.0882 107.844V99.0906C86.0882 93.8286 90.5286 89.5474 95.9849 89.5474H111.605L113.551 106.006L110.977 104.064C110.477 103.687 109.106 102.805 107.161 102.75L99.3679 102.75V106.606H117.197L115.749 108.739C115.451 109.179 114.474 110.763 114.474 112.657L114.465 133H95.9849Z" fill="white"/>
<path d="M100.508 107.973C100.918 108.581 101.978 110.335 102.027 112.495V121.168H98.8352C98.3776 121.168 97.9985 120.794 97.9931 120.334V114.835C97.9931 113.108 99.665 111.743 100.209 111.345C99.665 110.948 97.9931 109.581 97.9931 107.855V102.225C97.9931 101.76 98.3707 101.383 98.8383 101.383H107.2C109.535 101.449 111.182 102.502 111.809 102.974C111.583 101.067 110.492 91.8498 110.382 90.914H95.9851C91.2871 90.914 87.4642 94.5829 87.4642 99.0903V107.844C87.4642 109.571 85.7915 110.936 85.2471 111.335C85.7915 111.734 87.4642 113.098 87.4642 114.825V123.459C87.4642 127.965 91.2871 131.633 95.9851 131.633H113.09L113.099 112.656C113.099 110.41 114.188 108.594 114.61 107.973H100.508Z" fill="white"/>
<path d="M100.508 107.973C100.918 108.581 101.978 110.335 102.027 112.495V121.168H98.8352C98.3776 121.168 97.9985 120.794 97.9931 120.334V114.835C97.9931 113.108 99.665 111.743 100.209 111.345C99.665 110.948 97.9931 109.581 97.9931 107.855V102.225C97.9931 101.76 98.3707 101.383 98.8383 101.383H107.2C109.535 101.449 111.182 102.502 111.809 102.974C111.583 101.067 110.492 91.8498 110.382 90.914H95.9851C91.2871 90.914 87.4642 94.5829 87.4642 99.0903V107.844C87.4642 109.571 85.7915 110.936 85.2471 111.335C85.7915 111.734 87.4642 113.098 87.4642 114.825V123.459C87.4642 127.965 91.2871 131.633 95.9851 131.633H113.09L113.099 112.656C113.099 110.41 114.188 108.594 114.61 107.973H100.508Z" fill="#002B5C"/>
<path d="M104.09 112.678V123.218H97.8758C96.8015 123.218 95.9309 122.351 95.9309 121.285V114.843C95.9309 113.539 96.4915 112.295 97.4444 111.343C96.4815 110.394 95.9309 109.162 95.9309 107.835V101.266C95.9309 100.199 96.8015 99.3323 97.8758 99.3323H107.177C107.94 99.3323 108.682 99.4928 109.356 99.7826L108.548 92.9648H95.9855C92.4226 92.9648 89.5264 95.7124 89.5264 99.09V107.835C89.5264 109.161 88.975 110.393 88.0137 111.343C88.9665 112.295 89.5264 113.541 89.5264 114.843V123.458C89.5264 126.834 92.4226 129.582 95.9855 129.582H111.026V112.678C111.026 111.732 111.216 110.82 111.558 110.015H103.557C103.903 110.821 104.09 111.732 104.09 112.678Z" fill="#CE152D"/>
<path d="M103.557 110.015C103.903 110.821 104.09 111.733 104.09 112.678V123.217L107.559 126.402V113.044L103.557 110.015Z" fill="#910020"/>
<path d="M107.56 126.402H96.6002C94.4562 126.402 92.7228 124.748 92.7228 122.698V99.8499C92.7228 98.84 93.1419 97.9249 93.8317 97.2552L91.4392 94.7415C90.2595 95.8515 89.5266 97.3905 89.5266 99.0892V107.834C89.5266 109.16 88.9745 110.392 88.0132 111.343C88.966 112.295 89.5266 113.54 89.5266 114.843V123.458C89.5266 126.834 92.4228 129.582 95.985 129.582H111.025L107.56 126.402Z" fill="#910020"/>
<path d="M106.122 96.1431H96.6004C95.5152 96.1431 94.537 96.5705 93.8311 97.2562L96.5081 99.8945C96.8572 99.5482 97.3409 99.3334 97.8754 99.3334H107.178C107.941 99.3334 108.683 99.4939 109.356 99.7829L106.122 96.1431Z" fill="#910020"/>
<path d="M176.646 133L174.701 116.653L177.262 118.547C177.748 118.906 179.083 119.75 180.989 119.834L186.739 119.832L186.737 117.855L186.068 117.16C185.338 116.563 184.218 116.473 183.608 116.473C183.401 116.473 183.233 116.483 183.124 116.493L181.573 116.631L181.626 115.085C181.672 113.769 181.476 112.543 181.148 112.056L177.457 108.223C175.937 106.487 175.124 104.321 175.124 102.078V99.0608C175.124 93.8117 179.551 89.5412 184.994 89.5412H198.059L200 105.972L197.421 104.013C196.899 103.617 195.466 102.695 193.426 102.695H190C190.059 102.758 190.103 102.805 190.127 102.83C190.786 103.383 191.925 103.475 192.542 103.475C192.752 103.475 192.923 103.464 193.033 103.454L194.592 103.318L194.528 104.872C194.474 106.218 194.7 107.548 195.054 107.964C195.101 108.011 197.657 110.676 197.657 110.676C199.177 112.404 199.989 114.57 199.989 116.819L199.999 123.48C199.999 128.73 195.573 133 190.131 133H176.646Z" fill="white"/>
<path d="M198.614 116.818C198.614 114.899 197.918 113.051 196.662 111.619C196.662 111.619 194.01 108.854 194.004 108.848C193.111 107.798 193.128 105.469 193.155 104.816C192.55 104.87 190.493 104.949 189.149 103.793L189.144 103.787L189.139 103.782C189.139 103.782 187.884 102.446 187.878 102.437C187.704 102.221 187.668 101.95 187.782 101.716C187.894 101.48 188.142 101.328 188.41 101.328H193.426C195.877 101.328 197.61 102.437 198.256 102.927L196.835 90.9087H184.994C180.309 90.9087 176.499 94.5653 176.499 99.0605V102.077C176.499 103.994 177.195 105.842 178.45 107.278L182.191 111.163L182.198 111.167L182.203 111.174C183.038 112.253 183.023 114.497 183 115.132C183.602 115.078 185.663 115 187.012 116.164L188.112 117.307L188.114 120.356C188.114 120.823 187.735 121.199 187.269 121.199H180.928C178.657 121.1 177.056 120.098 176.442 119.643L177.868 131.633H190.132C194.813 131.633 198.624 127.975 198.624 123.482L198.614 116.818Z" fill="white"/>
<path d="M198.614 116.818C198.614 114.899 197.918 113.051 196.662 111.619C196.662 111.619 194.01 108.854 194.004 108.848C193.111 107.798 193.128 105.469 193.155 104.816C192.55 104.87 190.493 104.949 189.149 103.793L189.144 103.787L189.139 103.782C189.139 103.782 187.884 102.446 187.878 102.437C187.704 102.221 187.668 101.95 187.782 101.716C187.894 101.48 188.142 101.328 188.41 101.328H193.426C195.877 101.328 197.61 102.437 198.256 102.927L196.835 90.9087H184.994C180.309 90.9087 176.499 94.5653 176.499 99.0605V102.077C176.499 103.994 177.195 105.842 178.45 107.278L182.191 111.163L182.198 111.167L182.203 111.174C183.038 112.253 183.023 114.497 183 115.132C183.602 115.078 185.663 115 187.012 116.164L188.111 117.307L188.114 120.356C188.114 120.823 187.735 121.199 187.269 121.199H180.928C178.657 121.1 177.056 120.098 176.442 119.643L177.868 131.633H190.132C194.813 131.633 198.624 127.975 198.624 123.482L198.614 116.818Z" fill="#002B5C"/>
<path d="M196.551 116.821C196.551 115.395 196.024 114.011 195.103 112.961C195.103 112.961 192.506 110.257 192.514 110.265C191.602 109.332 191.136 108.053 191.154 106.709C189.829 106.678 188.589 106.167 187.659 105.209C187.659 105.209 185.437 102.89 185.45 102.904C185.026 102.475 184.905 101.988 184.933 101.6V101.225C184.933 100.161 185.802 99.2944 186.87 99.2944H193.641C194.399 99.2944 195.134 99.4534 195.804 99.7409L195 92.9575H184.994C181.447 92.9575 178.561 95.6944 178.561 99.0597V102.076C178.561 103.498 179.09 104.884 180.011 105.936C180.011 105.936 183.381 109.429 183.374 109.424C184.289 110.36 184.75 111.607 184.736 112.937C186.005 112.916 187.124 113.31 187.881 114.098L189.716 116.004C190.017 116.357 190.183 116.8 190.183 117.252L190.188 121.318C190.188 122.383 189.318 123.249 188.25 123.249H181.059C180.294 123.249 179.562 123.096 178.897 122.815L179.7 129.58H190.132C193.676 129.58 196.561 126.845 196.561 123.482C196.561 123.484 196.551 116.824 196.551 116.821Z" fill="#CE152D"/>
<path d="M192.715 96.1219H185.605C184.459 96.1219 183.432 96.5951 182.724 97.3519L185.353 100.025C185.707 99.5789 186.256 99.2938 186.871 99.2938H193.641C194.399 99.2938 195.134 99.4528 195.804 99.7402L192.715 96.1219Z" fill="#910020"/>
<path d="M192.319 125.268C191.616 125.977 190.617 126.418 189.513 126.418L181.994 126.431L178.897 122.815L179.701 129.58H190.132C191.968 129.58 193.626 128.848 194.799 127.672L192.319 125.268Z" fill="#910020"/>
<path d="M193.37 116.926C193.37 115.992 193.015 115.145 192.419 114.498L182.691 104.403C182.099 103.758 181.743 102.906 181.743 101.972V99.817C181.743 98.8729 182.114 98.0052 182.725 97.3531L180.222 94.9739C179.19 96.0565 178.561 97.4899 178.561 99.061V102.078C178.561 103.5 179.089 104.885 180.011 105.937C180.011 105.937 183.381 109.43 183.374 109.425C184.289 110.36 184.75 111.608 184.736 112.938C186.005 112.918 187.123 113.311 187.88 114.099L189.717 116.005C190.017 116.358 190.183 116.801 190.183 117.253L190.188 121.319C190.188 121.829 189.988 122.29 189.666 122.637L192.319 125.27C192.977 124.608 193.381 123.712 193.381 122.728L193.37 116.926Z" fill="#910020"/>
<path d="M146.652 130.861C146.951 130.426 147.928 128.857 147.928 126.942V114.753C147.928 113.886 147.035 112.923 146.271 112.362L144.772 111.263L146.271 110.163C147.035 109.601 147.928 108.638 147.928 107.772V95.5976C147.928 93.6787 146.952 92.1146 146.653 91.6818L145.175 89.5412H164.124L162.663 91.6773C162.278 92.2384 161.384 93.7452 161.384 95.5976V107.772C161.384 108.638 162.279 109.601 163.044 110.161L164.549 111.263L163.043 112.364C162.278 112.923 161.384 113.884 161.384 114.753V119.836H166.642C168.396 119.836 170.218 118.65 170.734 118.286L173.157 116.58L171.714 132.998L145.18 133L146.652 130.861Z" fill="white"/>
<path d="M166.642 121.204H160.01V114.753C160.01 113.026 161.684 111.66 162.229 111.263C161.684 110.864 160.01 109.499 160.01 107.771V95.5981C160.01 93.3314 161.102 91.5272 161.526 90.9087H147.787C148.214 91.5272 149.303 93.3314 149.303 95.5981V107.771C149.303 109.499 147.63 110.864 147.087 111.263C147.63 111.66 149.303 113.026 149.303 114.753V126.942C149.303 129.208 148.214 131.012 147.787 131.633L170.454 131.632L171.528 119.402C170.821 119.9 168.766 121.204 166.642 121.204Z" fill="white"/>
<path d="M166.642 121.204H160.01V114.753C160.01 113.026 161.684 111.66 162.229 111.263C161.684 110.864 160.01 109.499 160.01 107.771V95.5981C160.01 93.3314 161.102 91.5272 161.526 90.9087H147.787C148.214 91.5272 149.303 93.3314 149.303 95.5981V107.771C149.303 109.499 147.63 110.864 147.087 111.263C147.63 111.66 149.303 113.026 149.303 114.753V126.942C149.303 129.208 148.214 131.012 147.787 131.633L170.454 131.632L171.528 119.402C170.821 119.9 168.766 121.204 166.642 121.204Z" fill="#002B5C"/>
<path d="M157.947 123.253V114.759C157.947 113.46 158.508 112.221 159.459 111.27C158.499 110.322 157.947 109.093 157.947 107.77V95.5965C157.947 94.6631 158.136 93.761 158.476 92.9582H150.837C151.177 93.761 151.367 94.6631 151.367 95.5965V107.77C151.367 109.093 150.814 110.322 149.855 111.27C150.805 112.221 151.367 113.46 151.367 114.759V126.941C151.367 127.877 151.18 128.779 150.84 129.58H168.563L169.171 122.67C168.402 123.02 167.54 123.253 166.642 123.253H157.947Z" fill="#CE152D"/>
<path d="M150.84 129.58H168.563L166.239 126.418H154.658V96.1202L150.836 92.9582C151.178 93.761 151.366 94.6631 151.366 95.5965V107.77C151.366 109.093 150.814 110.322 149.855 111.27C150.805 112.221 151.366 113.459 151.366 114.759V126.94C151.366 127.877 151.179 128.779 150.84 129.58Z" fill="#910020"/>
<path d="M64.7452 98.6793V95.5961C64.7452 93.6818 63.7701 92.113 63.4709 91.678L63.3194 91.4571L63.1656 91.6795C63.0387 91.863 62.6011 92.5335 62.2751 93.4677C62.2174 93.665 62.2528 93.8844 62.2674 93.9585L64.7452 98.6793ZM62.4565 126.925C62.4565 128.84 63.4332 130.408 63.7324 130.843L64.1753 131.489L64.6145 130.846C64.779 130.606 65.1943 129.952 65.5065 129.054C65.5673 128.846 65.5304 128.639 65.5081 128.549L62.4565 122.595V126.925ZM46.2976 132.982H46.2629L47.7226 130.844C48.0217 130.409 48.9976 128.84 48.9976 126.925V114.751C48.9976 113.885 48.1048 112.922 47.3396 112.36L45.8423 111.261L47.3396 110.162C48.104 109.599 48.9976 108.635 48.9976 107.77V95.5961C48.9976 93.6787 48.0217 92.113 47.7233 91.6795L46.2506 89.5397H80.9503L79.4784 91.6795C79.1792 92.113 78.2041 93.6779 78.2041 95.5961V107.77C78.2041 108.635 79.0977 109.599 79.8621 110.162L81.3541 111.261L79.8621 112.359C79.097 112.922 78.2041 113.886 78.2041 114.751V126.925C78.2041 128.84 79.1792 130.409 79.4784 130.844L80.9473 132.982H63.1541L46.2853 133L46.2976 132.982Z" fill="white"/>
<path d="M76.8295 114.75C76.8295 113.023 78.5029 111.657 79.0443 111.259C78.5029 110.861 76.8295 109.496 76.8295 107.769V95.5942C76.8295 93.329 77.9177 91.524 78.343 90.9055H64.6064C65.0309 91.524 66.1207 93.329 66.1207 95.5942V104.253L60.9966 94.4903C60.9966 94.4903 60.7336 93.8374 60.9758 93.0171C61.3265 92.0164 61.7864 91.261 62.0317 90.9055H48.8581C49.2834 91.524 50.3731 93.329 50.3731 95.5942V107.769C50.3731 109.496 48.6989 110.861 48.1567 111.259C48.6989 111.657 50.3731 113.023 50.3731 114.75V126.923C50.3731 129.19 49.2834 130.994 48.8581 131.614H48.8673C48.8658 131.618 48.8612 131.625 48.8581 131.629L62.5977 131.614C62.1709 130.994 61.0819 129.19 61.0819 126.923V116.9L66.7851 128.028C66.7851 128.028 67.0489 128.681 66.8066 129.499C66.4575 130.501 65.9976 131.256 65.7523 131.614H78.343C77.9177 130.994 76.8295 129.19 76.8295 126.923V114.75Z" fill="white"/>
<path d="M76.829 114.75C76.829 113.023 78.5032 111.657 79.0438 111.259C78.5032 110.861 76.829 109.496 76.829 107.769V95.5942C76.829 93.329 77.9172 91.524 78.3432 90.9055H64.6067C65.0312 91.524 66.1202 93.329 66.1202 95.5942V104.253L60.9961 94.4903C60.9961 94.4903 60.7331 93.8374 60.9753 93.0171C61.326 92.0164 61.7859 91.261 62.0312 90.9055H48.8576C49.2837 91.524 50.3726 93.329 50.3726 95.5942V107.769C50.3726 109.496 48.6984 110.861 48.1562 111.259C48.6984 111.657 50.3726 113.023 50.3726 114.75V126.923C50.3726 129.19 49.2837 130.994 48.8576 131.614H48.8668C48.8653 131.618 48.8607 131.625 48.8576 131.629L62.5972 131.614C62.1712 130.994 61.0814 129.19 61.0814 126.923V116.9L66.7846 128.028C66.7846 128.028 67.0484 128.681 66.8062 129.499C66.4578 130.501 65.9971 131.256 65.7518 131.614H78.3432C77.9172 130.994 76.829 129.19 76.829 126.923V114.75Z" fill="#002B5C"/>
<path d="M68.8023 129.564H75.2914C74.9546 128.764 74.7685 127.867 74.7685 126.938L74.767 114.756C74.767 113.458 75.3253 112.219 76.2758 111.268C75.3168 110.319 74.767 109.091 74.767 107.769V95.5946C74.767 94.6611 74.9531 93.7567 75.2945 92.9563H67.6549C67.9971 93.7567 68.1825 94.6611 68.1825 95.5946V112.614C68.1825 112.615 59.0271 95.064 59.0363 95.0877C58.7333 94.3607 58.7679 93.6176 58.9817 92.9563H51.9074C52.248 93.7567 52.4357 94.6611 52.4357 95.5946V107.769C52.4357 109.091 51.8851 110.319 50.9253 111.268C51.8766 112.219 52.4357 113.458 52.4357 114.756V126.925C52.4357 127.859 52.248 128.76 51.9074 129.564H51.9143C51.9127 129.567 51.912 129.573 51.9097 129.578L51.9174 129.564H59.5447C59.207 128.764 59.0202 127.867 59.0202 126.938V108.255C59.0386 108.299 68.7539 127.454 68.7454 127.431C69.0484 128.158 69.0153 128.902 68.8023 129.564Z" fill="#CE152D"/>
<path d="M68.1823 112.617L71.4746 119.748V96.1212L67.6548 92.9577C67.9962 93.7581 68.1823 94.6625 68.1823 95.596V112.617Z" fill="#910020"/>
<path d="M71.4746 126.401C71.4746 126.401 59.0316 101.552 59.0186 101.523L59.0201 108.255C59.0386 108.3 68.7538 127.454 68.7453 127.432C69.0483 128.158 69.0153 128.901 68.8015 129.565L75.2852 129.57L71.4746 126.401Z" fill="#910020"/>
<path d="M51.9173 129.564H59.5308L55.7256 126.4V96.1199L51.9074 92.9564C52.248 93.7568 52.4364 94.6612 52.4364 95.5947V107.769C52.4364 109.091 51.8851 110.319 50.9253 111.268C51.8758 112.219 52.4364 113.458 52.4364 114.758V126.925C52.4364 128.413 51.9173 129.564 51.9173 129.564Z" fill="#910020"/>
<path d="M21.7722 112.709L23.4402 107.044L25.0844 112.714L21.7722 112.709ZM27.6076 132.971L46.7997 133C45.0309 131.803 43.4675 129.704 42.7715 127.298L37.4375 108.986C36.8607 107.018 37.8066 105.037 39.3216 103.71C37.1745 103.052 35.2757 101.578 34.6866 99.5317L31.6881 89.2851C35.9609 87.8655 38.7525 85.3525 38.7617 82.4345C38.7664 78.6135 34.0199 75.476 27.4062 74.5739L24.9037 66.0015L22.0921 66L19.5674 74.5655C12.939 75.4477 8.17947 78.5661 8.17101 82.3878C8.17101 85.309 10.9572 87.8288 15.2315 89.2546L12.2131 99.5019C11.6148 101.537 9.71216 103.019 7.57347 103.665C9.06925 105 10.0252 106.972 9.433 108.941L4.03898 127.243C3.32455 129.645 1.7634 131.739 0 132.93L19.1898 132.961C17.6263 131.762 16.7765 129.663 17.4848 127.26L17.9455 125.67L28.8719 125.678L29.338 127.279C30.037 129.678 29.1719 131.775 27.6076 132.971Z" fill="white"/>
<path d="M20.013 114.014L23.4445 102.382L26.8344 114.021L20.013 114.014ZM43.5778 131.697C42.6612 130.506 41.936 129.119 41.5099 127.67L36.2128 109.472C35.3668 106.59 36.9334 104.531 37.1402 104.21C35.2884 103.213 33.9364 101.688 33.4227 99.8933L30.1866 88.8279C34.7685 87.6185 37.8931 85.2119 37.9001 82.4306C37.9001 78.9063 32.889 75.9599 26.2576 75.3047L23.9205 67.3027L23.0753 67.2981L20.7205 75.2932C14.0738 75.9377 9.05195 78.8703 9.04426 82.3901C9.04272 85.1736 12.1619 87.5856 16.7292 88.8096L13.4739 99.8589C12.9502 101.659 11.5975 103.171 9.74409 104.17C9.94711 104.491 11.5098 106.554 10.6546 109.436L5.30136 127.617C4.86993 129.068 4.14165 130.449 3.22266 131.635L16.5093 131.656C15.4442 129.305 16.014 127.587 16.4939 125.973L16.9561 124.364L29.8482 124.379L30.3304 125.99C30.8034 127.612 31.3563 129.327 30.2827 131.677L43.5778 131.697Z" fill="#002E61"/>
<path d="M17.2575 116.064L23.4605 95.0569L29.5805 116.078L17.2575 116.064ZM40.0448 129.637C39.7626 129.018 39.5065 128.398 39.3273 127.753L34.2486 110.407C33.4588 107.694 33.8964 106.521 34.4785 104.887C32.9443 103.72 31.9353 102.197 31.4362 100.489L23.4944 73.2013L15.4479 100.466C14.9488 102.177 13.9391 103.697 12.401 104.859C12.9755 106.493 13.4169 107.667 12.6094 110.374L7.47918 127.706C7.29461 128.347 7.05467 128.978 6.75244 129.585L14.0129 129.597C13.8499 128.51 14.0129 127.063 14.3251 126.041L15.4172 122.311L31.4085 122.331L32.5021 126.067C32.7882 127.092 32.9627 128.534 32.7882 129.624L40.0448 129.637Z" fill="#CE152D"/>
<path d="M23.4741 84.3033L23.4949 73.202L15.4477 100.467C14.9486 102.177 13.9388 103.699 12.4015 104.859C12.9752 106.494 13.4166 107.668 12.6084 110.374L7.4789 127.707C7.29433 128.348 7.05439 128.979 6.75293 129.586L14.0126 129.598L10.7535 127.393L23.4741 84.3033Z" fill="#910020"/>
<path d="M23.4609 95.0568L29.5809 116.078L33.663 119.205L23.4748 84.3026L23.4609 95.0568Z" fill="#910020"/>
<path d="M40.0446 129.637L35.9987 127.221L33.6624 119.205L13.1768 119.181L15.417 122.311L31.4083 122.331L32.5011 126.067C32.7887 127.092 32.9625 128.534 32.7887 129.624L40.0446 129.637Z" fill="#910020"/>
<path d="M25.6349 80.582L25.3004 79.4085C24.6974 79.3841 24.1076 79.3527 23.4847 79.3558C22.8571 79.3527 22.2504 79.3841 21.6574 79.407L21.3145 80.5759C22.0112 80.5369 22.7249 80.5163 23.4778 80.5163C24.2168 80.5163 24.9397 80.5461 25.6349 80.582Z" fill="#910020"/>
<path d="M19.3501 87.2609L19.9384 85.2533C16.2316 84.8045 13.5869 83.6868 13.5915 82.3948C13.5938 80.7122 18.0143 79.3483 23.4844 79.3544C28.9315 79.3674 33.3619 80.7389 33.3558 82.4246C33.3558 83.7212 30.7103 84.8275 27.0012 85.2632L27.5795 87.2754C32.3699 86.5713 35.7959 84.673 35.8036 82.4269C35.8036 79.5853 30.2842 77.2704 23.4844 77.2582C16.6638 77.2452 11.1522 79.5509 11.146 82.3902C11.1429 84.6379 14.5613 86.5453 19.3501 87.2609Z" fill="#C5CED4"/>
</g>
<defs>
<clipPath id="clip0_18_1275">
<rect width="200" height="200" fill="white"/>
</clipPath>
</defs>
</svg>
