<svg width="200" height="200" viewBox="0 0 200 200" fill="none" xmlns="http://www.w3.org/2000/svg">
<path d="M149.108 110.543V131.021L140.024 131.032C139.605 129.255 120.309 48.7052 120.309 48.7052H91.3844C91.3844 48.7052 72.1245 129.256 71.706 131.033H64.846V19.386H79.9758V0L30.7766 0.127114V19.386H45.0285V131.983H30V151.548H66.7897C66.1792 154.085 60.4883 177.822 60.1205 179.422H45.1687V200L96.2479 199.898V179.422H81.8666C82.4135 176.896 87.8767 153.183 88.2305 151.548H123.473C125.621 160.835 127.75 170.126 129.862 179.422H115.47V199.898L166.549 200L166.536 179.422H151.597C151.231 177.822 145.538 154.085 144.942 151.548H169.675V110.543H149.108ZM92.9225 131.032C93.5298 128.47 104.38 81.2097 105.853 74.7011C107.352 81.2097 118.187 128.469 118.773 131.033H92.9215L92.9225 131.032Z" fill="#005A9C"/>
</svg>
