<svg width="200" height="200" viewBox="0 0 200 200" fill="none" xmlns="http://www.w3.org/2000/svg">
<path d="M112.003 200H169.029C163.754 196.413 159.106 190.144 157.03 182.995L141.091 128.306C139.36 122.422 142.169 116.541 146.659 112.556C140.296 110.611 134.66 106.181 132.866 100.1L123.95 69.4906C136.641 65.2599 144.918 57.7364 144.918 49.007C144.918 37.605 130.786 28.2637 111.141 25.5932L103.688 0H95.3298L87.8721 25.5932C68.2182 28.2637 54.0717 37.605 54.0717 49.007C54.0717 57.7364 62.3604 65.2589 75.0647 69.4906L66.1355 100.1C64.3831 106.181 58.7199 110.61 52.3593 112.556C56.8329 116.541 59.6529 122.422 57.9405 128.306L41.9912 182.995C39.8875 190.145 35.2593 196.413 30 199.999H87.0211C82.3562 196.411 79.8117 190.141 81.8986 182.993L83.2976 178.212H115.726L117.117 182.993C119.21 190.142 116.658 196.411 112.005 199.997L112.003 200ZM94.6008 139.494L99.5193 122.584L104.431 139.494H94.6008Z" fill="white"/>
<path d="M159.428 196.12C156.719 192.556 154.545 188.42 153.279 184.084L137.452 129.781C134.932 121.156 139.581 115.038 140.19 114.055C134.686 111.078 130.658 106.543 129.135 101.186L119.49 68.1296C133.086 64.5076 142.347 57.3132 142.347 49.0053C142.347 38.4938 127.445 29.7161 107.732 27.771L100.772 3.87891H98.2506L91.2926 27.7721C71.5556 29.7171 56.655 38.496 56.655 49.0064C56.655 57.3142 65.9345 64.5087 79.5223 68.1306L69.8863 101.188C68.3295 106.544 64.3272 111.079 58.8102 114.057C59.4308 115.04 64.0863 121.158 61.5661 129.781L45.7325 184.084C44.4661 188.421 42.2982 192.558 39.5718 196.12H79.0543C75.8598 189.076 77.5417 183.956 78.9701 179.128L80.3722 174.323H118.639L120.059 179.128C121.458 183.957 123.13 189.077 119.945 196.12H159.426H159.428ZM89.3667 143.397L99.5171 108.652L109.636 143.397H89.3667Z" fill="#003263"/>
<path d="M109.999 57.5033L104.929 40.055L105.925 43.535C103.85 43.4298 101.704 43.3478 99.5191 43.3478V54.6668L129.924 158.867L136.923 182.775L148.935 189.969C148.091 188.14 147.347 186.276 146.777 184.355L131.635 132.558C129.248 124.473 130.556 120.969 132.288 116.093C127.744 112.613 124.706 108.066 123.235 102.946L111.75 63.5024L111.733 63.5129L109.999 57.5033ZM103.083 33.6901L99.5169 21.4922V33.6207C100.72 33.6207 101.892 33.6427 103.083 33.6901ZM61.9131 183.408L71.6259 189.968C71.121 186.701 71.5975 182.411 72.541 179.353L75.7492 168.198L69.0773 158.868L61.9141 183.407L61.9131 183.408Z" fill="#BA0021"/>
<path d="M81.1813 149.528L99.5184 86.7618V54.668L69.0776 158.868H129.926L117.803 149.529" fill="#BA0021"/>
<path d="M99.5171 86.7619L117.802 149.528L129.924 158.866L99.5181 54.666" fill="#862633"/>
<path d="M148.935 189.968L136.923 182.773L129.926 158.867H69.0764L99.5172 54.6668V43.3457C101.705 43.3457 103.851 43.4267 105.925 43.5318L104.929 40.0518C104.659 40.0518 104.378 40.0413 104.109 40.0161C102.58 39.939 101.049 39.897 99.5182 39.8899C97.6743 39.8899 95.8577 39.9604 94.0906 40.0539L89.0038 57.5023H89.0217L87.2704 63.5129H87.2525L75.7473 102.946C74.281 108.066 71.2874 112.613 66.7308 116.095C68.4432 120.969 69.7496 124.474 67.3756 132.559L52.2362 184.356C51.6633 186.284 50.9315 188.161 50.0483 189.968H71.6272L61.9133 183.408L69.0764 158.867L75.7484 168.196H123.237L126.513 179.351C127.391 182.407 127.88 186.7 127.391 189.966H148.935V189.968ZM99.5172 21.4922L95.9619 33.6911C97.1474 33.6437 98.3338 33.6203 99.5203 33.6207V21.4922H99.5172Z" fill="#862633"/>
<path d="M89.0199 57.5034H89.002C77.987 56.2028 70.1664 52.8742 70.1664 49.0084C70.1664 44.5538 80.4673 40.8498 94.0898 40.054C95.8973 39.9508 97.7071 39.8961 99.5174 39.89C101.048 39.8978 102.579 39.9413 104.108 40.0203C104.378 40.0445 104.659 40.0561 104.928 40.0561C118.535 40.8404 128.863 44.5454 128.863 49.0094C128.863 52.8753 121.012 56.2049 110.009 57.5044H109.998L111.734 63.5161L111.749 63.5056C125.932 61.3965 136.125 55.715 136.125 49.0105C136.125 41.0307 121.604 34.4565 103.08 33.6943C100.707 33.5993 98.331 33.5993 95.9579 33.6943C77.3822 34.4565 62.896 41.0296 62.896 49.0105C62.896 55.714 73.0653 61.3955 87.2465 63.5171H87.2644L89.0189 57.5076V57.5044L89.0199 57.5034Z" fill="#C4CED4"/>
</svg>
