<svg width="200" height="200" viewBox="0 0 200 200" fill="none" xmlns="http://www.w3.org/2000/svg">
<path d="M79.8975 96.8878C79.0686 97.7974 78.2796 98.7427 77.533 99.721C76.5004 100.973 74.9597 103.462 74.0943 105.175C74.0943 105.175 73.8143 105.727 73.7761 105.807C72.5458 108.362 71.5957 111.041 70.9423 113.8C70.7623 115.713 70.789 117.639 71.0221 119.546C71.5084 115.027 72.8419 110.641 74.9529 106.616C75.053 106.424 75.1591 106.237 75.2634 106.048C76.0416 104.64 76.9227 103.291 77.8995 102.012C78.6538 101.032 79.4566 100.091 80.3048 99.1909L80.3116 99.1832C80.3956 98.8015 80.4872 98.4189 80.5822 98.0372C80.8037 97.1372 81.065 96.2474 81.3662 95.3711L81.3653 95.3719C80.8622 95.8639 80.3727 96.3695 79.8975 96.8878Z" fill="white"/>
<path d="M142.961 42.0379L142.821 42.0336C142.213 42.015 141.605 42.0056 140.997 42.0057C137.62 42.0057 134.826 42.283 133.461 42.4493L133.083 42.4951L132.736 42.3365C128.258 40.2175 123.59 39.5075 123.59 39.5075L123.311 38.9307C119.092 30.1858 111.667 17.1571 100.247 4.73751C99.0003 3.48291 98.2749 2.79411 97.4926 2.11719C97.1467 3.1747 96.8265 4.24045 96.5322 5.31349C95.6447 8.29857 95.0161 12.1981 95.1391 18.8248C95.1917 21.6759 94.7793 29.2459 91.4238 35.2474C89.4139 38.8424 86.2356 41.8114 81.1637 45.2452L81.1179 45.2749C80.7285 45.5158 79.1716 46.4905 78.7805 46.7195C76.3828 48.1319 73.1163 50.0897 70.5405 52.0136C62.5398 57.9889 56.9376 64.9558 53.2486 72.2866C45.4821 74.358 37.4152 77.2736 29.4688 81.3029L29.4984 81.2969C49.6487 74.7432 70.7653 73.956 86.4732 74.6414C90.7578 72.161 95.2536 70.1099 99.6833 68.482C93.4685 67.6049 83.0294 67.2495 70.6525 68.8587C68.9921 69.075 67.2978 69.3252 65.5738 69.6153C62.4252 70.1413 59.2971 70.7809 56.1952 71.5333L56.0798 71.563C57.9692 68.1382 60.2257 64.9292 62.8096 61.9927C66.4994 57.7675 71.0097 53.9061 76.4634 50.5122L76.4676 50.5079C77.9436 49.5418 79.4415 48.6096 80.9601 47.712C82.8962 46.549 86.1228 44.8067 90.0222 40.656C90.6644 39.9739 91.2525 39.2428 91.781 38.4692C93.8036 35.4994 94.1371 34.4899 94.4272 33.9589C96.9471 28.116 97.2661 22.5691 97.2483 17.5863L97.2466 16.7601C97.2449 15.9364 97.2449 15.1204 97.2627 14.3044C97.3212 11.5839 97.5758 8.85674 98.6032 5.81737C99.2625 6.53416 99.909 7.2535 100.541 7.97453C103.073 10.8587 105.394 13.7716 107.513 16.6431C109.325 19.0993 111.057 21.6132 112.708 24.1808C112.935 24.5346 113.147 24.879 113.368 25.2293C113.698 25.7468 114.001 26.2269 114.17 26.5009C117.113 31.2634 119.784 36.1881 122.172 41.2515C123.136 41.428 124.013 41.6112 124.825 41.7978C129.332 42.8327 131.6 43.9635 132.759 44.5428L132.761 44.5437C132.761 44.5437 137.381 43.8176 143.106 44.0271L144.741 43.7327L150.31 42.7301L183.614 36.7217L190.953 34.8428L192.712 33.1268L142.961 42.0379ZM50.1968 88.7796C50.408 87.4469 50.6651 86.1185 50.9773 84.7995C51.4457 82.8309 52.0267 80.8908 52.7175 78.9888L52.6963 78.9896C51.914 79.0202 51.1445 79.0541 50.3928 79.0914C44.4665 96.448 48.0486 114.74 55.2696 126.239C47.2824 112.107 48.9606 95.7227 50.1968 88.7796Z" fill="#00A3E0"/>
<path d="M183.713 36.7139C183.714 36.7139 150.169 48.991 142.79 51.7802C135.412 54.5693 135.587 61.5107 135.587 61.5107L136.148 61.4768L150.001 60.6362C151.799 60.5171 153.602 60.5016 155.402 60.5895C155.429 60.5912 155.46 60.5912 155.487 60.5921C155.839 60.6116 156.163 60.6404 156.493 60.6676C156.657 60.6811 156.836 60.6896 156.996 60.7057C158.338 60.8364 159.471 61.0306 160.434 61.2503C160.498 61.2647 160.571 61.2783 160.634 61.2927C163.641 62.0053 164.819 62.9621 164.819 62.9621L138.799 65.7462L130.58 73.7361L130.542 73.7734H130.507C112.496 73.6453 77.8931 84.9859 71.6851 109.644C71.3949 110.751 71.1778 111.875 71.0352 113.01C71.0293 113.053 70.9843 113.336 70.9385 113.821L70.9444 113.799C71.5978 111.041 72.5479 108.361 73.7782 105.807C73.8562 105.647 73.936 105.49 74.0174 105.332L73.9513 105.463L74.0972 105.175C74.9617 103.461 76.5025 100.973 77.5359 99.7205C78.2811 98.741 79.0701 97.7957 79.9005 96.8872C80.3765 96.369 80.8659 95.8633 81.3682 95.3705L81.3691 95.3697C87.1927 89.6243 94.5741 85.7248 99.6596 83.3682C105.096 80.8489 110.984 78.8486 116.625 77.5296C121.497 76.3895 126.185 75.7558 130.228 75.7558H130.235L131.345 75.7643L140.197 67.1119L169.116 64.0013C166.407 61.9739 161.277 59.1941 153.385 59.0372C152.34 59.0185 151.232 59.0685 149.89 59.1525L138.093 59.8727L138.734 57.9777C139.477 55.7823 141.257 53.967 143.494 53.1213C150.499 50.4738 186.231 37.3332 189.712 36.0531L190.953 34.8418L183.614 36.7207L183.713 36.7139Z" fill="#41748D"/>
<path d="M102.186 160.99C101.959 159.463 101.732 158.148 101.51 156.994C101.182 157.037 100.817 157.126 100.43 157.254L100.439 157.308L100.543 157.975C100.728 159.162 101.142 161.811 101.673 165.395L102.446 162.801C102.362 162.197 102.275 161.593 102.186 160.99Z" fill="#00A3E0"/>
<path d="M74.0156 105.332L73.9452 105.471L73.896 105.569L73.9495 105.463L74.0156 105.332Z" fill="#FFF100"/>
<path d="M111.538 176.663C111.572 177.687 111.641 178.709 111.744 179.728C111.88 181.025 112.072 182.316 112.319 183.597C112.966 186.931 113.86 189.457 114.467 190.934C114.819 191.831 115.432 192.969 115.432 192.969L115.442 192.987C116.864 194.411 118.432 195.681 120.087 196.901L120.167 196.924L117.433 191.997L116.682 190.591C116.558 190.347 113.822 184.874 113.395 176.558C112.827 176.625 112.267 176.672 111.727 176.672C111.664 176.67 111.602 176.664 111.538 176.663ZM142.585 118.294L142.586 118.295L142.586 118.296L142.035 118.515L142.004 118.529L141.738 118.633L141.685 118.655C141.623 118.681 141.504 118.731 141.336 118.807L141.047 118.94C139.82 119.519 137.084 120.947 133.856 123.512C133.41 123.868 132.97 124.233 132.538 124.606C130.084 126.804 126.917 130.343 126.647 130.635C121.374 136.319 115.076 144.35 115.002 144.452C114.557 145.069 114.384 145.476 114.27 146.023C114.24 146.193 114.218 146.364 114.204 146.537C114.188 146.822 114.161 147.281 114.111 147.806H115.884C115.952 147.177 115.997 146.555 116.03 145.989L116.034 145.916C116.1 145.55 116.194 145.404 116.568 144.921C117.469 143.756 119.641 141.034 121.518 138.729C124.605 135.257 127.228 132.23 129.675 129.513C135.706 122.818 142.161 119.779 142.219 119.755L146.74 117.802L147.445 117.567L147.437 117.565C146.005 117.701 144.106 117.885 142.632 118.284C142.616 118.286 142.6 118.29 142.585 118.294ZM135.237 54.1348C126.931 56.8942 125.625 62.1213 125.625 62.1213L131.915 61.737C132.626 55.6379 135.237 54.1348 135.237 54.1348Z" fill="#41748D"/>
<path d="M101.972 17.5742C101.979 17.9805 101.978 18.3911 101.989 18.5463C102.804 30.2144 98.6813 38.7565 95.084 43.6053C100.557 41.27 107.458 39.3495 115.369 39.2977C112.833 34.3421 108.247 26.0782 101.972 17.5742ZM79.802 117.091C83.0778 134.671 95.6558 140.492 96.6544 140.883C101.075 142.753 104.264 141.35 105.059 140.772C106.239 140.037 107.508 139.036 108.693 137.988L115.827 131.686L121.214 127.007L122.219 126.136C122.97 125.484 123.738 124.851 124.521 124.238C125.863 123.183 127.265 122.206 128.718 121.311C128.936 121.178 129.151 121.049 129.364 120.925C132.979 118.815 135.844 117.997 137.892 117.744C140.928 117.341 142.58 118.29 142.584 118.293L142.633 118.281C144.106 117.882 146.005 117.698 147.437 117.561L147.179 117.465C146.483 117.209 145.786 116.956 145.088 116.705C143.032 116.004 141.013 115.618 139.402 115.618C133.807 115.618 127.497 118.629 120.647 124.568C117.934 126.921 109.382 134.891 109.296 134.971L108.913 135.327C107.238 136.89 104.12 139.801 101.184 139.818C99.2455 139.818 96.0257 138.966 93.533 137.094C86.4613 131.784 82.3965 124.297 80.5639 112.814C80.1125 110.218 79.5475 107.121 79.578 103.676C79.5101 104.267 79.4491 104.891 79.399 105.551C79.1097 108.714 79.0571 112.752 79.802 117.091Z" fill="#00A3E0"/>
<path d="M161.653 106.693L161.672 106.67L161.681 106.641C161.905 105.954 161.934 105.478 161.962 105.02C161.972 104.857 162.14 103.238 162.14 103.238L161.701 104.453C161.329 105.479 160.876 106.048 160.316 106.19C160.227 106.215 160.136 106.228 160.043 106.23L159.864 106.233L159.891 106.409C159.906 106.501 160.215 108.664 157.929 110.118L157.863 110.16L157.858 110.238C157.835 110.591 157.793 110.976 157.728 111.45L157.683 111.775L157.962 111.603C158.371 111.352 158.752 111.078 159.094 110.79C160.36 109.724 161.038 108.505 161.06 107.258C161.172 107.175 161.401 106.988 161.653 106.693ZM160.008 112.926L160.051 112.897L160.067 112.847C160.377 111.874 160.633 110.945 160.883 110.004L161.291 108.535L160.674 109.854C160.23 110.731 159.28 112.255 158.248 112.623L158.145 112.659V112.769C158.145 112.8 158.136 113.548 157.42 114.127C157.325 114.204 157.24 114.264 157.152 114.317L157.099 114.348L157.082 114.407C156.929 114.937 156.761 115.462 156.578 115.981L156.44 116.375L156.802 116.166C157.675 115.661 159.14 114.638 159.288 113.392C159.412 113.321 159.682 113.158 160.008 112.926ZM158.033 118.362L158.055 118.31C158.395 117.502 158.871 116.097 159.231 115.078C158.833 115.784 157.894 116.829 156.033 117.549L155.972 117.572L155.946 117.633C155.699 118.228 155.457 118.77 155.207 119.292L155.042 119.637L155.401 119.504C155.551 119.448 156.901 118.943 157.983 118.388L158.033 118.362ZM147.83 131.435L147.872 131.43L147.906 131.403C148.811 130.701 149.687 129.961 150.531 129.188L150.896 128.853L150.406 128.921C149.86 128.996 149.34 129.036 148.858 129.039L148.794 129.04L148.749 129.087C148.006 129.853 147.23 130.586 146.423 131.286L146.078 131.585L146.534 131.557C146.934 131.531 147.37 131.49 147.83 131.435ZM152.277 127.472L152.308 127.439C153.102 126.6 153.835 125.734 154.488 124.864L154.803 124.443L154.309 124.626C153.491 124.929 152.69 125.158 151.931 125.309L151.869 125.322L151.834 125.373C151.283 126.158 150.694 126.914 150.068 127.641L149.803 127.949L150.206 127.894C150.89 127.798 151.567 127.661 152.234 127.483L152.277 127.472ZM145.621 132.633C145.354 132.633 145.105 132.625 144.878 132.609L144.819 132.605L144.772 132.641L144.713 132.687L144.66 132.728C142.365 134.506 138.496 136.888 135.535 138.414C136.531 138.012 141.519 135.937 145.855 132.913L146.266 132.626L145.764 132.631L145.621 132.633ZM155.888 122.795L155.91 122.756C156.411 121.925 156.853 121.06 157.234 120.168L157.417 119.735L157.013 119.974L157.012 119.975L153.93 121.753L153.832 121.809C153.832 121.809 153.789 121.927 153.743 122.041C153.497 122.616 153.214 123.174 152.897 123.713L152.699 124.056L153.077 123.939C154.029 123.639 154.956 123.263 155.848 122.815L155.888 122.795ZM85.309 104.212C85.1648 101.446 84.7949 99.7721 84.7915 99.7569L84.7508 99.5864L84.587 99.6483L82.8146 100.314L82.6865 100.363L82.7188 100.496C82.7213 100.508 83.0505 102.356 83.1311 104.827L83.1413 105.114L83.143 105.165L83.1752 105.206L83.3466 105.418C83.3653 105.441 85.1538 107.676 86.0582 110.825L86.1049 110.988L88.2132 110.176L88.1742 110.04C87.3258 107.092 85.8011 104.878 85.309 104.212ZM88.55 104.173C88.5679 104.188 90.4039 105.774 91.2744 108.736L91.3227 108.9L93.398 108.06L93.3581 107.925C92.5453 105.165 91.0325 103.415 90.3733 102.751C90.3326 101.093 89.9228 99.1317 89.5834 97.7702L89.5402 97.5946L89.373 97.665L87.5888 98.4132L87.4666 98.4641L87.4988 98.593C87.8374 99.9672 88.2344 101.912 88.203 103.376L88.1937 103.796L88.192 103.87L88.2488 103.918L88.55 104.173ZM96.3811 106.722L96.4277 106.892L98.4699 106.041L98.4317 105.909C97.624 103.102 96.0357 101.383 95.3332 100.731C95.441 98.1477 94.5756 95.96 94.3991 95.5443L94.338 95.401L94.1947 95.4629L92.3222 96.3146L92.3824 96.4486C92.3926 96.4706 93.3785 98.7008 93.1358 101.187L93.0883 101.705L93.0807 101.792L93.1502 101.844L93.5473 102.141C93.5668 102.155 95.5428 103.68 96.3811 106.722ZM101.713 104.574L101.761 104.741L103.656 103.952L103.787 103.898L103.745 103.763C102.928 101.12 101.417 99.5338 100.546 98.7975C100.809 95.9099 99.6365 93.4151 99.5856 93.3091L99.5186 93.1691L99.3794 93.2353L97.6893 94.0403L97.5502 94.1065L97.6155 94.2456C97.6266 94.2694 98.7219 96.6428 98.3079 99.0977L98.2043 99.7094L98.1874 99.8103L98.2739 99.8654L98.7974 100.199C98.8186 100.213 100.837 101.546 101.713 104.574ZM106.755 102.455L106.789 102.606L108.849 101.837L108.816 101.705C108.134 98.9943 106.643 97.4122 105.766 96.681C106.326 93.7205 105.167 91.0442 105.117 90.9305L105.055 90.7889L104.913 90.8517L103.2 91.6066L103.059 91.6685L103.12 91.8102C103.131 91.8357 104.204 94.3584 103.49 96.8278L103.286 97.5293L103.253 97.6455L103.358 97.7066L103.989 98.0739C104.009 98.0866 106.05 99.3208 106.755 102.455ZM111.774 100.473L111.8 100.625L113.882 99.8841L113.855 99.7543C113.291 97.0424 111.85 95.496 110.985 94.7843C111.842 91.739 110.695 88.8913 110.646 88.77L110.586 88.6266L110.443 88.6852L108.711 89.3969L108.568 89.4554L108.626 89.5988C108.638 89.6251 109.699 92.2793 108.679 94.7911L108.355 95.5698L108.301 95.7004L108.425 95.7666L109.173 96.1627C109.256 96.2077 111.229 97.3257 111.774 100.473ZM116.796 98.5548L116.815 98.7084L116.968 98.6889C116.968 98.6889 118.292 98.2859 118.806 98.1104L118.929 98.0679L118.909 97.939C118.472 95.183 117.066 93.6484 116.206 92.946C117.358 89.8219 116.221 86.7969 116.172 86.668L116.116 86.5238L115.971 86.5797L114.224 87.2516L114.079 87.3067L114.135 87.4509C114.146 87.4789 115.192 90.2926 113.875 92.8341L113.43 93.6917L113.356 93.8334L113.501 93.9021L114.373 94.3186C114.393 94.3304 116.398 95.3526 116.796 98.5548ZM121.821 96.9151L121.837 97.1094L122.022 97.0509C122.632 96.8583 123.239 96.6717 123.843 96.4918L123.968 96.4545L123.953 96.3247C123.621 93.5644 122.263 92.0231 121.42 91.3148C122.818 88.2424 121.832 85.1453 121.714 84.7984L121.666 84.6576L119.738 85.2938L119.594 85.3455L119.645 85.4906C119.656 85.5203 120.676 88.524 119.074 91.0798L118.503 91.9731L118.408 92.1224L118.568 92.197L119.53 92.6441C119.609 92.6839 121.565 93.6815 121.821 96.9151ZM126.814 95.4697L126.832 95.6512L127.008 95.6054C127.624 95.4442 128.239 95.2907 128.835 95.1482L128.97 95.1159L128.953 94.9785C128.627 92.3641 127.362 90.7202 126.578 89.9313C128.09 87.2109 127.604 84.4209 127.322 83.3376L127.284 83.1926L127.138 83.2257C126.553 83.3571 125.939 83.5039 125.313 83.6608L125.16 83.699L125.201 83.8508C125.403 84.6007 125.933 87.2236 124.271 89.4961L123.688 90.2926L123.591 90.4241L123.728 90.5132L124.554 91.0527C124.574 91.0654 126.517 92.3879 126.814 95.4697ZM131.749 94.4534C131.749 94.4534 133.233 94.2473 133.809 94.1574L133.939 94.137V94.0047C133.945 91.3012 132.885 89.7124 131.952 88.8379C133.661 86.12 133.243 83.1697 133.071 82.3214L133.043 82.1806L132.9 82.1984C132.306 82.273 131.679 82.3638 131.037 82.4673L130.873 82.4936L130.911 82.6548C130.988 82.9907 131.606 86.0029 129.602 88.3611L128.808 89.2959L128.677 89.4503L128.861 89.536L129.972 90.0551C129.99 90.0636 131.882 91.0171 131.755 94.2982L131.749 94.4534ZM137.075 93.8486L137.262 93.8342C137.893 93.7867 138.526 93.7545 139.143 93.74L139.283 93.7366L139.294 93.5975C139.508 90.8992 138.489 89.1127 137.806 88.239C139.502 86.0521 139.411 83.4581 139.202 82.0941L139.183 81.966L139.053 81.9626C138.418 81.9448 137.782 81.9448 137.147 81.9626L136.962 81.9668L136.999 82.1475C137.157 82.9305 137.52 85.6263 135.574 87.4603L134.767 88.2084L134.632 88.3331L134.778 88.4451L135.651 89.1144C135.722 89.1712 137.437 90.5768 137.096 93.6628L137.075 93.8486ZM144.608 82.7337L144.592 82.6285L144.489 82.6056C143.824 82.46 143.154 82.3397 142.481 82.2451L142.246 82.212L142.31 82.4402C142.515 83.1714 143.023 85.6814 140.958 87.2753L140.194 87.8649L140.068 87.9624L140.169 88.0854L140.78 88.8311C140.796 88.8497 142.336 90.7872 142.001 93.6382L141.983 93.7986L142.143 93.8113C142.768 93.8596 143.39 93.9309 143.991 94.0251L144.149 94.0497L144.168 93.8902C144.469 91.3369 143.62 89.3392 143.043 88.3196C144.922 86.3151 144.765 83.7524 144.608 82.7337ZM145.606 94.3398L145.774 94.3813C146.394 94.5357 146.993 94.7181 147.553 94.9225L147.699 94.976L147.752 94.8292C148.448 92.8841 148.463 90.7609 147.796 88.8056C148.492 87.9302 149.361 86.539 149.216 84.4378L149.205 84.3013L149.202 84.2555L149.194 84.1639L149.109 84.1265C148.469 83.8466 147.799 83.5921 147.12 83.3716L146.879 83.2935L146.919 83.5438C146.978 83.9153 147.019 84.2775 147.042 84.6194C147.117 85.7773 146.614 87.059 145.817 87.7359L145.26 88.2161L145.168 88.295L145.222 88.4027L145.549 89.0584C145.597 89.1534 146.695 91.4056 145.666 94.1777L145.606 94.3398ZM149.148 95.6079L149.285 95.6783C149.841 95.9634 150.376 96.284 150.877 96.6318L151.021 96.7319L151.102 96.5767C152.049 94.7698 152.365 92.6983 152 90.6913C152.787 90.1086 153.355 89.2788 153.614 88.3348C153.71 87.9904 153.768 87.6172 153.788 87.2261L153.791 87.1498L153.733 87.1006C153.087 86.5516 152.407 86.0439 151.698 85.5805L151.37 85.3659L151.463 85.7476C151.652 86.5195 151.667 87.1947 151.51 87.7555C151.332 88.3891 150.918 88.8718 150.245 89.2306L149.545 89.6081L149.43 89.67L149.472 89.7939L149.725 90.5454C149.758 90.6413 150.501 92.9376 149.218 95.4714L149.148 95.6079ZM156.207 89.5886L156.073 89.4333L155.86 89.1865L155.804 89.5071C155.778 89.6505 155.742 89.7913 155.696 89.9287C155.45 90.6464 154.911 91.1816 154.048 91.5668L153.382 91.8645L153.262 91.9179L153.296 92.0452L153.482 92.7501C153.488 92.7722 154.055 95.1024 152.301 97.5887L152.223 97.6998L152.322 97.7923C152.731 98.1706 153.132 98.5913 153.511 99.0435L153.636 99.1919L153.753 99.0375C155.58 96.6335 155.684 94.277 155.569 93.0368C156.979 91.8314 157.038 91.2342 157.077 90.8372L157.086 90.7617L157.092 90.7015L157.057 90.6523C156.794 90.2825 156.51 89.927 156.207 89.5886ZM158.558 92.8833L158.439 92.6899L158.2 92.2988L158.153 92.7552C158.009 94.1557 157.864 94.7673 156.665 95.2814L155.736 95.585L155.792 95.7369C155.792 95.7369 156.029 96.2374 156.079 96.4995C156.129 96.7624 156.704 98.3258 154.592 100.277L154.496 100.365L154.567 100.474C154.849 100.909 155.115 101.368 155.359 101.838L155.449 102.011L155.597 101.883C157.93 99.8892 158.126 97.8236 158.013 96.7082C158.787 96.2331 159.216 95.44 159.32 94.288L159.325 94.2439L159.304 94.204C158.986 93.5806 158.851 93.3626 158.558 92.8833Z" fill="#EF3340"/>
<path d="M160.38 96.4196L160.213 96.054L159.968 95.5137L159.917 96.1041C159.838 97.0287 159.584 98.1662 158.829 98.3325L158.186 98.4742L158.058 98.5021L158.064 98.6328L158.097 99.291C158.097 99.3089 158.143 101.262 156.122 103.263L156.049 103.335L156.087 103.431C156.286 103.924 156.475 104.459 156.65 105.02L156.72 105.246L156.899 105.092C159.179 103.121 159.774 101.029 159.922 99.9077C160.398 99.6346 160.918 98.9288 160.918 97.7548V97.7268L160.907 97.7005C160.753 97.2651 160.577 96.8376 160.38 96.4196ZM160.143 102.246L159.459 102.237L159.454 102.358L159.428 103.024C159.39 103.297 159.309 104.902 157.143 106.431L157.057 106.491L157.082 106.593C157.203 107.099 157.305 107.58 157.393 108.06L157.434 108.282L157.627 108.164C160.024 106.696 160.79 104.817 161.035 103.778C161.256 103.667 161.553 103.383 161.764 102.951C162.045 102.372 162.259 101.363 161.68 99.8407L161.455 99.2503L161.381 99.8781C161.261 100.891 161.032 101.617 160.718 101.978C160.583 102.133 160.319 102.243 160.143 102.246Z" fill="#EF3340"/>
<path d="M102.447 162.803L103.856 158.084C103.839 157.735 103.637 157.434 103.28 157.232C102.886 157.009 102.283 156.896 101.51 156.995C101.732 158.149 101.959 159.465 102.186 160.991C102.271 161.566 102.358 162.174 102.447 162.803ZM71.683 109.645C77.8918 84.9868 112.493 73.6462 130.505 73.7743H130.54L130.578 73.737L138.796 65.7471L164.817 62.963C164.816 62.9622 163.637 62.0062 160.632 61.2936C160.569 61.2792 160.495 61.2656 160.431 61.2512C159.298 60.9969 158.15 60.815 156.994 60.7066C156.834 60.6914 156.655 60.682 156.491 60.6685C156.161 60.6413 155.837 60.6116 155.485 60.593C155.458 60.5913 155.427 60.5913 155.399 60.5904C153.6 60.5025 151.797 60.518 149.999 60.6371L136.146 61.4777L135.585 61.5116C135.585 61.5116 135.409 54.5702 142.788 51.7811C150.167 48.9919 183.706 36.7165 183.712 36.7148L150.306 42.7291L144.737 43.7318L143.102 44.0261C137.378 43.8166 132.757 44.5427 132.757 44.5427C131.6 43.9634 129.331 42.8318 124.822 41.7969C124.01 41.6102 123.134 41.427 122.169 41.2506C119.781 36.1871 117.11 31.2624 114.167 26.4999C113.909 26.0817 113.634 25.6525 113.366 25.2283C113.145 24.878 112.932 24.5336 112.705 24.1799C111.055 21.6121 109.322 19.0982 107.51 16.6421C105.309 13.6558 102.983 10.7637 100.538 7.97357C99.9052 7.25254 99.2595 6.5332 98.6003 5.81641C97.572 8.85578 97.3183 11.5821 97.2598 14.3034C97.242 15.1194 97.242 15.9355 97.2437 16.7592L97.2454 17.5854C97.2632 22.5682 96.9442 28.115 94.4243 33.958C94.1342 34.489 93.8016 35.4993 91.7781 38.4682C91.2496 39.2418 90.6615 39.973 90.0193 40.6551C86.1199 44.8065 82.8933 46.5481 80.9572 47.711C79.4385 48.6086 77.9407 49.5408 76.4647 50.507L76.4605 50.5112L76.3875 50.5587L76.3722 50.5689C71.0025 53.9213 66.5016 57.7801 62.8067 61.9926C60.2228 64.9291 57.9662 68.1381 56.0769 71.5629L56.1923 71.5332C59.4308 70.746 62.4894 70.1335 65.5709 69.6152C66.9977 67.6902 68.5654 65.8735 70.261 64.1803C71.6598 62.8381 73.1367 61.5796 74.6839 60.4114C84.3831 53.09 97.9139 49.1463 112.522 48.6917C112.853 48.6815 113.188 48.6772 113.521 48.6704C96.352 50.8539 80.8944 57.4416 70.6496 68.8577C83.0265 67.2477 93.4656 67.604 99.6804 68.4811C95.2507 70.1089 90.7557 72.16 86.4703 74.6404C83.8415 76.1565 81.3123 77.839 78.898 79.6775C73.852 79.2022 68.7891 78.9286 63.7213 78.8572C59.2789 87.4061 57.129 97.8026 58.0758 110.145C57.193 106.712 56.667 103.197 56.5062 99.6561C56.1813 92.3278 57.4386 85.3295 60.241 78.8343C57.6092 78.8402 55.0961 78.8979 52.7146 78.9895C52.0242 80.8916 51.4432 82.8317 50.9744 84.8002C50.6639 86.1165 50.4035 87.4442 50.1939 88.7803C48.9577 95.7234 47.2795 112.108 55.2667 126.239C56.5454 128.496 58.0385 130.624 59.7252 132.595C60.1748 132.303 60.633 132.025 61.103 131.756L61.1047 131.755C62.8007 130.812 64.6042 130.077 66.4761 129.566C68.2494 129.092 68.6481 129.044 68.6642 129.042L69.1979 128.982C71.103 128.525 73.0549 128.292 75.0139 128.288C78.3924 128.294 79.8508 128.482 79.8508 128.482C78.4916 129.593 77.8044 130.122 76.497 131.321C73.8583 133.608 71.8272 136.817 70.4324 141.1C71.9741 142.026 73.5572 142.881 75.1768 143.662C74.8884 142.659 74.9211 141.591 75.2703 140.607C75.6195 139.623 76.2676 138.773 77.124 138.176C77.1579 138.147 77.1901 138.114 77.2241 138.085C77.4828 137.719 77.7849 137.381 78.137 137.086C79.0755 136.302 80.2594 135.872 81.4824 135.871C82.8664 135.873 84.1933 136.423 85.172 137.402C86.1507 138.38 86.7012 139.707 86.7028 141.091C86.7022 142.095 86.4116 143.078 85.8658 143.92C85.3201 144.763 84.5424 145.431 83.6263 145.842C83.5398 145.912 83.4499 145.978 83.3582 146.042C83.0967 146.276 82.8115 146.482 82.5073 146.657C86.3871 147.965 90.7608 149.035 95.6563 149.692C95.7106 149.659 95.7623 149.621 95.8166 149.588C96.5632 149.137 97.3251 148.747 98.0819 148.43C101.637 146.938 105.182 146.89 108.064 148.296C108.414 148.467 108.759 148.663 109.089 148.88C109.885 148.197 110.871 147.808 111.821 147.806H114.109C114.158 147.281 114.185 146.822 114.201 146.536C114.215 146.364 114.237 146.192 114.267 146.023C114.381 145.476 114.554 145.068 115 144.452C115.073 144.349 121.371 136.318 126.644 130.634C126.914 130.343 130.081 126.804 132.536 124.606C133.009 124.181 133.459 123.802 133.854 123.511C137.082 120.947 139.817 119.518 141.044 118.94C141.153 118.889 141.248 118.844 141.333 118.807C141.501 118.73 141.62 118.68 141.683 118.654L141.735 118.633L142.032 118.515L142.584 118.295L142.583 118.294L142.582 118.294C142.578 118.291 140.926 117.342 137.89 117.745C135.841 117.998 132.977 118.817 129.362 120.926C129.149 121.05 128.933 121.179 128.716 121.312C127.263 122.207 125.862 123.185 124.519 124.239C123.736 124.852 122.968 125.485 122.216 126.137L121.212 127.008C120.24 127.851 116.411 131.177 115.825 131.687L108.691 137.989C107.505 139.036 106.236 140.038 105.057 140.773C104.262 141.35 101.073 142.754 96.6523 140.884C95.6537 140.494 83.0757 134.672 79.7999 117.092C79.055 112.753 79.1076 108.715 79.3952 105.553C79.4453 104.893 79.5064 104.27 79.5742 103.679C79.7957 101.736 80.0892 100.185 80.3039 99.1903C79.4559 100.09 78.6531 101.032 77.8986 102.012C76.9223 103.291 76.0412 104.64 75.2625 106.048C75.1581 106.237 75.0521 106.424 74.952 106.615C72.8402 110.64 71.5066 115.027 71.0212 119.546C70.7276 116.941 70.8337 114.891 70.9346 113.821C70.9805 113.336 71.0254 113.053 71.0314 113.01C71.1722 111.91 71.3835 110.788 71.683 109.645ZM135.237 54.135C135.237 54.135 132.626 55.6382 131.915 61.7373L125.625 62.1216C125.626 62.1216 126.932 56.8945 135.237 54.135ZM95.0844 43.6054C98.6818 38.7566 102.804 30.2145 101.99 18.5465C101.979 18.3912 101.98 17.9807 101.973 17.5744C108.248 26.0783 112.834 34.3422 115.37 39.2978C107.458 39.3496 100.557 41.2709 95.0844 43.6054ZM115.432 192.968C115.432 192.968 114.819 191.831 114.467 190.933C113.86 189.456 112.966 186.93 112.319 183.596C111.873 181.31 111.612 178.991 111.538 176.663C109.72 176.625 108.087 176.061 106.766 175.293C105.822 174.75 104.985 174.038 104.296 173.194L104.077 173.33C105.806 182.544 108.811 191.955 115.442 192.987L115.432 192.968Z" fill="black"/>
<path d="M178.841 175.315C176.436 175.299 174.253 174.67 172.528 173.496C172.082 173.194 171.664 172.851 171.28 172.472C168.342 174.355 165.045 175.35 161.732 175.35C158.42 175.35 155.673 174.111 153.996 171.864C152.228 169.492 151.835 166.234 152.891 162.689L154.15 158.654C154.55 157.462 154.53 156.549 154.098 156.145C153.623 155.702 152.572 155.69 151.54 156.116C151.052 156.318 150.537 156.642 150.05 157.053C150.014 157.083 149.984 157.12 149.948 157.151C150.043 157.106 150.122 157.072 150.173 157.05C150.996 156.701 151.775 156.71 152.16 157.071C152.542 157.429 152.595 158.226 152.301 159.201L151.237 162.694C150.062 166.637 150.525 170.288 152.539 172.973C153.109 173.733 153.796 174.55 155.352 175.436C156.787 176.253 158.485 176.668 160.4 176.668C163.322 176.668 166.58 175.711 170.089 173.824C172.051 175.74 174.818 176.846 177.725 176.867H183.977L185.619 175.313H178.841V175.315ZM133.692 174.191L138.535 158.27C138.86 157.222 138.804 156.371 138.389 155.992C137.963 155.604 137.098 155.596 136.185 155.974C135.674 156.191 135.194 156.473 134.757 156.814C134.663 156.886 134.574 156.962 134.485 157.037C135.294 156.72 136.046 156.718 136.425 157.073C136.806 157.431 136.859 158.228 136.565 159.204L131.545 175.795H141.737L143.713 174.182L133.692 174.191ZM118.523 174.189C114.298 175.66 110.571 175.599 107.745 174.011C106.949 173.564 106.228 172.995 105.61 172.323C105.383 172.49 105.152 172.652 104.918 172.809C104.708 172.95 104.504 173.066 104.296 173.194C104.985 174.039 105.822 174.75 106.766 175.294C108.088 176.063 109.72 176.626 111.538 176.663C111.602 176.665 111.664 176.67 111.728 176.67C112.268 176.67 112.828 176.623 113.396 176.556C114.573 176.414 115.734 176.158 116.861 175.794H126.028L128.158 174.18L118.523 174.189ZM83.6292 145.842C83.5952 145.857 83.5647 145.878 83.5299 145.893C82.7359 146.229 81.8709 146.364 81.0121 146.285C80.1533 146.206 79.3273 145.916 78.6079 145.441C77.8885 144.965 77.298 144.319 76.889 143.56C76.48 142.801 76.2653 141.952 76.2639 141.09C76.2639 139.999 76.6093 138.956 77.2269 138.084C77.1921 138.113 77.1599 138.145 77.1268 138.176C76.4654 138.639 75.9254 139.255 75.5526 139.971C75.1798 140.687 74.9852 141.483 74.9854 142.29C74.9854 142.766 75.0558 143.225 75.1796 143.662C75.4781 144.715 76.1119 145.642 76.985 146.302C77.858 146.963 78.9226 147.32 80.0174 147.321C81.2515 147.321 82.4422 146.866 83.3611 146.042C83.4527 145.978 83.5426 145.912 83.6292 145.842ZM181.104 146.305C179.72 146.304 178.393 145.754 177.414 144.775C176.435 143.797 175.884 142.47 175.883 141.086C175.883 139.977 176.239 138.917 176.877 138.035C176.823 138.08 176.772 138.129 176.719 138.176C176.057 138.639 175.517 139.255 175.144 139.971C174.771 140.687 174.577 141.483 174.577 142.29C174.577 142.951 174.707 143.605 174.959 144.215C175.212 144.826 175.583 145.38 176.05 145.847C176.517 146.314 177.072 146.685 177.682 146.938C178.292 147.191 178.946 147.321 179.607 147.321H179.609C180.843 147.321 182.034 146.866 182.953 146.042C183.031 145.987 183.109 145.929 183.183 145.869C183.171 145.874 183.16 145.883 183.148 145.888C182.502 146.164 181.806 146.306 181.104 146.305Z" fill="#EF3340"/>
<path d="M169.574 162.17L172.978 150.901C173.014 150.782 173.057 150.665 173.104 150.549L173.135 150.48C173.187 150.363 173.224 150.285 173.264 150.209L173.311 150.123C173.367 150.025 173.408 149.956 173.452 149.888L173.503 149.809C173.92 149.194 174.477 148.687 175.128 148.33C173.817 148.564 172.911 149.15 172.279 149.831C171.35 150.725 171.021 151.89 170.807 152.601L167.402 163.87C167.174 164.614 166.717 165.358 166.087 166.054C166.113 166.04 166.14 166.029 166.166 166.015C167.83 165.074 169.136 163.601 169.574 162.17ZM121.717 162.4L125.234 150.9C125.269 150.787 125.309 150.673 125.359 150.552L125.391 150.48C125.431 150.39 125.472 150.301 125.517 150.214L125.567 150.124C125.622 150.027 125.663 149.958 125.706 149.89L125.779 149.781C125.991 149.476 126.24 149.196 126.518 148.949C126.214 149.073 125.924 149.226 125.65 149.408C124.267 150.228 123.349 151.664 123.066 152.595L119.481 164.097C119.162 165.05 118.574 165.994 117.824 166.811C117.898 166.774 117.973 166.745 118.047 166.705C119.724 165.801 121.131 164.151 121.717 162.4ZM103.435 173.704C101.153 174.94 98.7577 175.6 96.4881 175.6C94.5511 175.6 92.7864 175.136 91.244 174.222C90.2353 173.627 89.3503 172.845 88.6367 171.916C88.3661 172.095 88.0802 172.271 87.7857 172.443C87.5329 172.589 87.2767 172.729 87.0171 172.863C87.744 173.869 88.6699 174.715 89.7371 175.349C91.2703 176.256 93.0214 176.717 94.944 176.717H94.9465C97.6997 176.717 100.378 175.819 102.917 174.068C103.026 173.993 103.136 173.926 103.245 173.847L103.435 173.704ZM79.4754 174.789L79.427 174.788C75.8195 174.765 72.7235 173.354 70.9333 170.919C69.2509 168.63 68.8352 165.697 69.7651 162.66L73.359 150.9C73.3912 150.792 73.4328 150.676 73.4854 150.549L73.5151 150.484C73.5677 150.364 73.6059 150.286 73.6466 150.209L73.6941 150.123C73.74 150.041 73.7875 149.96 73.8384 149.882L73.8935 149.798C74.0971 149.496 74.339 149.222 74.6121 148.982C73.7807 149.356 73.0322 149.892 72.4105 150.559C71.7444 151.231 71.3491 151.969 71.1573 152.602L68.1352 162.489C67.0883 165.914 67.582 169.24 69.5046 171.854C71.618 174.729 75.5429 176.234 78.3274 176.234C80.468 176.234 82.226 175.846 83.8813 174.966C84.8968 174.48 85.8708 173.816 86.8567 172.947C84.4845 174.151 81.9341 174.789 79.4754 174.789ZM85.1157 164.961C85.6529 164.575 86.1418 164.126 86.5716 163.623C86.8482 160.953 87.8587 158.225 89.4953 155.729C90.9493 153.505 92.8297 151.591 95.028 150.098C94.098 150.623 93.2141 151.225 92.3859 151.9C89.9408 153.764 88.21 156.028 86.9322 158.33C85.691 160.563 84.8943 162.966 84.6075 165.302C84.7798 165.195 84.9494 165.082 85.1157 164.961ZM101.509 156.995C102.283 156.896 102.885 157.009 103.28 157.232C103.636 157.434 103.84 157.735 103.856 158.084L102.447 162.803L101.673 165.397L101.611 165.604C101.78 165.471 101.949 165.339 102.113 165.191C102.88 164.502 103.549 163.711 104.1 162.84L105.62 157.853C105.518 156.708 105.028 156.035 104.122 155.795C103.894 155.736 103.659 155.708 103.423 155.709C102.464 155.709 101.327 156.139 100.22 156.92C100.048 157.041 99.881 157.167 99.7181 157.3C99.5408 157.442 99.3864 157.575 99.215 157.732C99.1878 157.758 99.1632 157.788 99.1361 157.813C99.5959 157.572 100.027 157.388 100.429 157.256C100.78 157.135 101.142 157.048 101.509 156.995Z" fill="#EF3340"/>
<path d="M186.324 141.086C186.323 139.702 185.773 138.375 184.794 137.396C183.815 136.417 182.488 135.867 181.104 135.865C179.881 135.866 178.697 136.297 177.759 137.081C177.427 137.361 177.131 137.681 176.877 138.034C176.232 138.921 175.884 139.989 175.883 141.086C175.884 141.948 176.099 142.796 176.508 143.555C176.917 144.314 177.507 144.96 178.226 145.436C178.946 145.911 179.772 146.201 180.63 146.28C181.489 146.359 182.354 146.224 183.148 145.888C183.161 145.883 183.172 145.874 183.183 145.869C184.116 145.464 184.91 144.796 185.468 143.946C186.026 143.096 186.324 142.102 186.324 141.086ZM181.104 144.698C179.111 144.698 177.49 143.077 177.49 141.085C177.49 139.092 179.111 137.471 181.104 137.471C183.096 137.471 184.717 139.092 184.717 141.085C184.717 143.077 183.096 144.698 181.104 144.698ZM107.243 158.043C107.17 156.062 106.183 154.677 104.533 154.241C104.171 154.146 103.799 154.1 103.425 154.101C100.442 154.101 96.8402 156.871 95.0823 160.723C94.1295 162.81 93.9191 164.905 94.5062 166.471C94.854 167.4 95.4674 168.086 96.2802 168.454C98.7135 169.558 102.551 167.755 105.017 164.349C105.209 164.083 105.392 163.808 105.577 163.509L107.243 158.043ZM96.9437 166.991C96.522 166.799 96.2081 166.435 96.0104 165.907C95.5786 164.756 95.7788 163.067 96.5441 161.39C97.1363 160.09 98.0569 158.826 99.1369 157.811C99.1641 157.786 99.1887 157.756 99.2158 157.73C99.3872 157.573 99.5416 157.44 99.7189 157.298C99.8903 157.159 100.059 157.031 100.22 156.918C101.328 156.137 102.465 155.707 103.424 155.707C103.673 155.707 103.908 155.736 104.123 155.793C105.028 156.032 105.519 156.706 105.621 157.851L104.101 162.838C103.549 163.708 102.88 164.499 102.114 165.189C101.949 165.337 101.781 165.469 101.612 165.602C99.9259 166.927 98.0687 167.501 96.9437 166.991Z" fill="#00A3E0"/>
<path d="M111.823 147.805C110.875 147.807 109.888 148.197 109.092 148.879C108.763 148.663 108.421 148.468 108.067 148.296C105.185 146.889 101.64 146.937 98.0848 148.43C97.328 148.747 96.5661 149.137 95.8195 149.588C95.7652 149.621 95.7135 149.658 95.6592 149.691C95.4462 149.823 95.2358 149.958 95.0279 150.098C92.8297 151.591 90.9493 153.504 89.4953 155.728C87.8587 158.224 86.8482 160.952 86.5716 163.622C86.0055 164.278 85.3433 164.845 84.6075 165.302C83.4494 166.022 82.1886 166.429 81.0738 166.429C80.3042 166.429 79.7222 166.216 79.4363 165.828C79.1631 165.46 79.1249 164.891 79.3285 164.226L84.3156 147.807L77.4416 147.808C76.4422 147.809 75.4139 148.248 74.6113 148.979C74.3379 149.22 74.0965 149.495 73.8926 149.796L73.8375 149.88C73.7866 149.958 73.7391 150.039 73.6933 150.121L73.6457 150.207C73.5988 150.297 73.555 150.389 73.5142 150.482L73.4845 150.547C73.4319 150.674 73.3912 150.79 73.3581 150.897L69.7642 162.658C68.8351 165.696 69.25 168.628 70.9325 170.917C72.7227 173.353 75.8186 174.763 79.4261 174.786L79.4745 174.787C81.9324 174.787 84.4836 174.149 86.8558 172.944C86.8753 172.934 86.8957 172.925 86.9152 172.916C86.95 172.898 86.9805 172.88 87.0153 172.862C87.5719 172.576 88.1124 172.26 88.635 171.915C89.3488 172.843 90.2338 173.626 91.2422 174.221C92.7847 175.135 94.5494 175.599 96.4864 175.599C98.7568 175.598 101.152 174.94 103.433 173.702L103.242 173.846C103.134 173.925 103.023 173.992 102.914 174.067C103.987 181.63 105.625 186.628 108.208 190.226C110.511 193.433 113.016 194.561 113.496 194.754C113.521 194.766 114.12 195.053 114.947 195.332C116.944 196.006 119.071 196.616 120.086 196.9C118.431 195.68 116.863 194.409 115.44 192.986C108.809 191.955 105.804 182.544 104.076 173.329C104.149 173.286 104.222 173.238 104.294 173.194C104.502 173.065 104.707 172.949 104.916 172.808C105.163 172.642 105.391 172.483 105.608 172.322C106.227 172.994 106.947 173.563 107.743 174.01C110.569 175.598 114.297 175.659 118.522 174.188L128.156 174.179L132.577 159.696C132.807 158.833 133.528 157.838 134.484 157.035C134.573 156.96 134.662 156.884 134.756 156.812C135.193 156.471 135.674 156.189 136.185 155.973C137.097 155.595 137.962 155.603 138.388 155.99C138.804 156.37 138.859 157.22 138.535 158.268L133.691 174.189L143.713 174.178L148.03 160.002L148.044 159.954C148.295 159.014 149.006 157.977 149.948 157.149C149.983 157.118 150.014 157.081 150.05 157.051C150.537 156.64 151.052 156.316 151.54 156.114C152.572 155.689 153.623 155.7 154.098 156.143C154.53 156.547 154.55 157.46 154.15 158.652L152.891 162.688C151.836 166.232 152.228 169.49 153.996 171.862C155.673 174.11 158.42 175.348 161.732 175.348C165.045 175.348 168.342 174.354 171.28 172.47C171.663 172.847 172.082 173.191 172.528 173.495C174.253 174.669 176.436 175.297 178.841 175.313H185.621L188.172 166.954H180.529C179.759 166.954 179.178 166.741 178.89 166.353C178.617 165.985 178.579 165.416 178.783 164.75L183.934 147.794L177.062 147.802C176.405 147.803 175.738 147.993 175.128 148.329C174.477 148.687 173.92 149.193 173.502 149.807L173.451 149.886C173.407 149.955 173.366 150.024 173.31 150.122L173.264 150.208C173.223 150.284 173.187 150.362 173.134 150.479L173.103 150.548C173.052 150.672 173.011 150.786 172.977 150.9L169.573 162.168C169.135 163.6 167.829 165.073 166.166 166.014C166.139 166.028 166.112 166.038 166.087 166.053C165.035 166.632 163.923 166.954 162.945 166.954C162.75 166.954 162.401 166.924 162.25 166.721C162.024 166.416 162.053 165.647 162.325 164.764L163.632 160.494C165.203 155.314 164.162 150.939 160.848 148.793C158.945 147.559 156.532 147.218 153.868 147.806C151.813 148.26 149.636 149.293 147.563 150.799C146.489 149.391 144.891 148.35 143.041 147.856C140.86 147.275 138.39 147.431 136.039 148.293L136.186 147.805L129.317 147.805C128.329 147.806 127.315 148.234 126.518 148.948C126.239 149.195 125.991 149.474 125.778 149.78L125.706 149.889C125.658 149.965 125.611 150.043 125.567 150.123L125.517 150.213C125.472 150.3 125.43 150.389 125.391 150.478L125.359 150.551C125.312 150.665 125.27 150.781 125.234 150.898L121.717 162.398C121.131 164.15 119.724 165.8 118.047 166.703C117.973 166.743 117.898 166.772 117.824 166.809C117.117 167.155 116.412 167.346 115.772 167.346C115.018 167.346 114.432 167.086 114.079 166.596C113.562 165.878 113.508 164.743 113.933 163.475L118.696 147.805H114.112L111.823 147.805ZM116.528 149.407L112.415 162.973C111.824 164.736 111.956 166.398 112.775 167.535C113.433 168.449 114.497 168.952 115.771 168.952C118.767 168.952 122.112 166.239 123.228 162.905L126.769 151.367C127.095 150.29 128.239 149.413 129.318 149.411L134.022 149.406L133.361 151.574C136.201 149.415 139.767 148.598 142.748 149.442C144.847 150.036 146.383 151.374 147.091 153.217C151.707 149.261 156.75 148.052 159.974 150.14C162.652 151.875 163.445 155.571 162.094 160.027L160.788 164.293C160.341 165.751 160.4 166.92 160.958 167.675C161.38 168.246 162.085 168.56 162.944 168.56C166.328 168.56 170.144 165.792 171.109 162.637L174.514 151.363C174.841 150.286 175.984 149.409 177.063 149.408H181.765L177.246 164.282C176.89 165.445 177.015 166.521 177.599 167.309C178.196 168.116 179.236 168.56 180.528 168.56H185.969L184.431 173.707H178.849C175.676 173.686 173.029 172.452 171.56 170.316C169.482 171.896 166.116 173.741 161.732 173.741C158.939 173.741 156.65 172.732 155.284 170.901C153.826 168.945 153.522 166.191 154.429 163.146L155.673 159.156C156.289 157.319 156.118 155.833 155.193 154.968C154.244 154.083 152.569 153.95 150.925 154.629C148.924 155.456 147.016 157.567 146.49 159.539L142.521 172.573L135.86 172.579L140.072 158.735C140.598 157.032 140.385 155.635 139.47 154.802C138.559 153.972 137.102 153.854 135.571 154.487C133.479 155.351 131.526 157.411 131.028 159.278L130.938 159.618L130.923 159.58L126.966 172.573L120.304 172.58L120.609 171.58C117.185 173.235 114.003 173.915 111.392 173.548C108.968 173.207 107.07 171.99 105.897 170.027C102.98 172.621 99.5899 174.001 96.5195 174.001C94.9074 174.001 93.3837 173.621 92.0618 172.837C90.7688 172.071 89.7668 170.981 89.083 169.596C86.2831 171.878 82.7935 173.179 79.4745 173.18H79.3939C76.3276 173.16 73.7153 171.989 72.228 169.966C70.8536 168.096 70.5244 165.668 71.3007 163.128L74.8938 151.369C75.2196 150.293 76.3633 149.415 77.4425 149.414H82.1445L77.7903 163.756C77.4348 164.92 77.5604 165.995 78.1433 166.783C78.7406 167.59 79.7808 168.034 81.0729 168.034C83.5648 168.034 86.4639 166.473 88.1344 164.234C88.3143 161.669 89.2493 159.033 90.8384 156.609C92.8186 153.589 95.6125 151.21 98.7067 149.91C101.827 148.599 104.901 148.538 107.362 149.74C108.097 150.097 108.771 150.57 109.358 151.14C109.767 150.16 110.817 149.414 111.823 149.412L116.528 149.407ZM76.2649 141.09C76.266 141.952 76.4806 142.801 76.8895 143.56C77.2984 144.319 77.889 144.965 78.6085 145.441C79.3279 145.917 80.154 146.207 81.0129 146.286C81.8718 146.364 82.7368 146.229 83.5308 145.893C83.5656 145.878 83.5953 145.857 83.6301 145.842C84.5461 145.43 85.3238 144.763 85.8696 143.92C86.4153 143.077 86.706 142.095 86.7065 141.091C86.7049 139.707 86.1544 138.38 85.1758 137.402C84.1971 136.423 82.8702 135.873 81.4861 135.871C80.2632 135.872 79.0795 136.302 78.1407 137.086C77.7946 137.378 77.4874 137.714 77.2278 138.084C76.6029 138.962 76.2664 140.012 76.2649 141.09ZM81.4853 137.477C82.4433 137.478 83.3617 137.859 84.0391 138.536C84.7165 139.214 85.0976 140.132 85.0987 141.09C85.0987 143.082 83.4774 144.703 81.4853 144.703C79.4931 144.703 77.8709 143.082 77.8709 141.09C77.8723 140.132 78.2535 139.214 78.9311 138.536C79.6086 137.859 80.5272 137.478 81.4853 137.477Z" fill="#00A3E0"/>
<path d="M184.717 141.086C184.716 140.128 184.335 139.21 183.657 138.533C182.98 137.855 182.062 137.474 181.104 137.473C179.111 137.473 177.489 139.094 177.489 141.086C177.489 143.079 179.111 144.7 181.104 144.7C182.062 144.699 182.98 144.317 183.657 143.64C184.335 142.963 184.716 142.044 184.717 141.086ZM81.4849 144.704C82.443 144.703 83.3614 144.322 84.0388 143.644C84.7162 142.967 85.0972 142.048 85.0984 141.091C85.0984 139.099 83.477 137.478 81.4849 137.478C79.4928 137.478 77.8706 139.099 77.8706 141.091C77.8717 142.049 78.2529 142.967 78.9304 143.645C79.608 144.322 80.5267 144.703 81.4849 144.704ZM111.825 149.412C110.818 149.414 109.768 150.16 109.359 151.14C108.772 150.57 108.099 150.097 107.363 149.74C104.902 148.539 101.828 148.599 98.7081 149.91C95.6138 151.21 92.8199 153.589 90.8397 156.609C89.2506 159.033 88.3156 161.669 88.1358 164.234C86.4652 166.473 83.5661 168.034 81.0743 168.034C79.7821 168.034 78.7419 167.59 78.1446 166.783C77.5609 165.994 77.4353 164.919 77.7917 163.756L82.1458 149.414H77.4438C76.3646 149.416 75.2209 150.293 74.8951 151.369L71.302 163.128C70.5249 165.668 70.8549 168.096 72.2294 169.966C73.7167 171.989 76.3281 173.16 79.3952 173.18H79.4758C82.7949 173.18 86.2845 171.878 89.0843 169.596C89.7681 170.981 90.7693 172.071 92.0631 172.837C93.3859 173.621 94.9088 174.001 96.5208 174.001C99.5913 174.001 102.982 172.621 105.899 170.027C107.071 171.991 108.968 173.207 111.394 173.548C114.004 173.915 117.187 173.235 120.61 171.58L120.306 172.58L126.968 172.573L130.925 159.58L130.939 159.618L131.029 159.278C131.527 157.411 133.48 155.351 135.572 154.487C137.103 153.854 138.561 153.972 139.472 154.802C140.386 155.635 140.599 157.031 140.073 158.735L135.861 172.579L142.523 172.573L146.492 159.539C147.018 157.567 148.925 155.456 150.927 154.629C152.571 153.95 154.246 154.083 155.194 154.968C156.12 155.833 156.29 157.319 155.674 159.156L154.431 163.146C153.524 166.192 153.826 168.945 155.285 170.901C156.651 172.732 158.941 173.741 161.733 173.741C166.118 173.741 169.483 171.896 171.561 170.316C173.03 172.452 175.678 173.686 178.85 173.707H184.432L185.97 168.56H180.529C179.238 168.56 178.197 168.116 177.6 167.309C177.017 166.521 176.891 165.445 177.247 164.282L181.766 149.408H177.064C175.986 149.409 174.842 150.286 174.515 151.363L171.11 162.637C170.145 165.792 166.33 168.56 162.945 168.56C162.087 168.56 161.381 168.246 160.959 167.675C160.401 166.92 160.342 165.751 160.79 164.293L162.095 160.027C163.446 155.571 162.654 151.875 159.975 150.14C156.752 148.052 151.708 149.261 147.092 153.217C146.385 151.373 144.848 150.036 142.749 149.442C139.769 148.597 136.203 149.415 133.362 151.574L134.023 149.406L129.319 149.411C128.24 149.413 127.097 150.29 126.771 151.367L123.229 162.905C122.114 166.239 118.768 168.952 115.773 168.952C114.498 168.952 113.434 168.448 112.776 167.535C111.957 166.398 111.826 164.736 112.416 162.973L116.529 149.407L111.825 149.412ZM105.576 163.509C105.392 163.808 105.209 164.084 105.016 164.349C102.551 167.755 98.7132 169.558 96.2799 168.454C95.4671 168.085 94.8536 167.4 94.5058 166.471C93.9195 164.905 94.1291 162.81 95.0819 160.723C96.8398 156.872 100.442 154.101 103.424 154.101C103.805 154.101 104.177 154.146 104.533 154.241C106.182 154.677 107.169 156.062 107.242 158.042L105.576 163.509Z" fill="black"/>
<path d="M45.4818 150.59L45.6939 150.304C47.5757 147.762 50.1516 144.282 52.5917 141.109L52.6358 141.055C57.0273 135.833 59.8245 133.268 63.3506 131.25C65.186 130.226 67.1552 129.462 69.2014 128.98L68.6677 129.041C68.6516 129.042 68.2529 129.091 66.4796 129.565C64.6077 130.076 62.8042 130.811 61.1082 131.753L61.1065 131.754C60.6365 132.023 60.1783 132.301 59.7287 132.593C56.6387 134.594 53.9093 137.23 49.9352 141.951C49.9115 141.979 49.8886 142.009 49.8657 142.038L45.033 148.459L45.4818 150.59ZM25.4741 176.12C23.5609 177.722 20.4785 178.894 16.5774 179.449C14.6566 179.722 12.5949 179.923 11.1712 179.928C12.393 178.971 13.9006 177.655 15.2208 176.103C16.1829 175.05 17.3707 173.373 18.2225 170.906C18.8436 169.107 27.54 140.942 28.5293 137.736L28.5675 137.613C28.693 137.193 28.7982 136.807 28.889 136.435C28.9527 136.174 29.0036 135.939 29.0485 135.717C29.3387 134.264 29.3039 133.587 29.3039 133.54C29.3226 132.496 29.1715 131.578 28.9085 130.843C28.8474 130.674 28.7728 130.478 28.6761 130.325L28.6302 130.25L28.6294 130.251L28.6277 130.246L27.0827 131.795L27.126 131.871C27.2168 132.028 27.2795 132.229 27.3296 132.404C27.6571 133.541 27.5824 135.028 27.0861 136.893L16.5817 170.661C14.7804 176.272 7.48054 180.782 7.40672 180.827L6.84082 181.172L7.5009 181.235C7.52041 181.237 8.60641 181.337 10.2625 181.337C11.6998 181.337 13.5672 181.261 15.5406 180.981C21.1963 180.176 25.0236 178.13 26.986 174.859C27.249 174.434 27.7572 173.577 28.1076 172.955C27.6707 173.656 27.1743 174.318 26.6246 174.934C26.3929 175.192 26.0264 175.62 25.4741 176.12ZM48.3996 175.904L55.2498 153.803L52.4101 157.615L51.9706 159.031L51.9698 159.032L46.2954 177.317L46.2089 177.593H60.0952L61.7157 175.977L61.6495 175.935L61.6249 175.966L61.3466 175.931L61.3746 175.903L48.3996 175.904ZM35.2658 152.079L34.2952 155.248L38.5586 175.393L39.9661 174.323L35.2658 152.079Z" fill="#EF3340"/>
<path d="M76.4995 131.321C77.807 130.121 78.4942 129.593 79.8534 128.481C79.8534 128.481 78.3958 128.293 75.0165 128.287C73.5436 128.287 71.4921 128.43 69.2005 128.981C67.1542 129.462 65.185 130.226 63.3497 131.251C59.8236 133.268 57.0263 135.833 52.6348 141.055L52.5907 141.11C50.1506 144.281 47.5739 147.763 45.693 150.304L45.4809 150.591L45.032 148.461L41.1971 130.243L28.6259 130.247L28.6276 130.252L28.6285 130.251L28.6743 130.326C28.771 130.478 28.8457 130.674 28.9067 130.844C29.1706 131.578 29.3208 132.496 29.3021 133.54C29.3021 133.587 29.3369 134.265 29.0467 135.717C28.9984 135.958 28.9458 136.197 28.8872 136.436C28.7965 136.807 28.6912 137.193 28.5657 137.614L28.5275 137.737C27.5382 140.943 18.841 169.109 18.2208 170.907C17.3689 173.375 16.1811 175.052 15.219 176.104C13.8988 177.655 12.3912 178.972 11.1694 179.928C12.5931 179.923 14.6556 179.722 16.5756 179.449C20.4759 178.894 23.5591 177.722 25.4723 176.121C26.0246 175.62 26.3911 175.193 26.6228 174.935C27.1718 174.319 27.6679 173.657 28.1058 172.956C29.6975 170.44 30.4882 167.736 30.7894 166.7L34.2943 155.249L35.264 152.08L39.9644 174.324L52.4083 157.615L55.248 153.803L48.3978 175.904L61.3728 175.903H61.7139C61.4594 175.041 61.2922 174.435 61.1497 173.773C60.9817 172.8 60.9936 172.42 61.1158 171.504C61.193 170.925 61.3593 170.293 61.6002 169.465L70.3128 141.456C70.3509 141.334 70.3951 141.222 70.4341 141.1C71.8298 136.817 73.8618 133.607 76.4995 131.321ZM68.7746 140.975L60.0612 168.987C59.7939 169.905 59.609 170.612 59.519 171.29C59.3671 172.431 59.3934 173.341 59.6022 174.155L59.6378 174.292H50.5859L50.63 174.149L59.5716 145.301L40.8052 170.497L35.5517 145.635L29.2453 166.239C28.8864 167.473 27.7936 171.231 25.4256 173.856C24.6858 174.678 22.4349 177.177 16.0513 177.843L15.7391 177.875L15.9622 177.654C17.0966 176.53 18.6738 174.538 19.7462 171.428C20.3987 169.538 30.0106 138.398 30.1081 138.084C30.4738 136.855 30.6808 135.919 30.8234 134.855C30.9727 133.73 30.9455 132.793 30.7394 131.99L30.7037 131.852L39.8897 131.85L44.629 154.41C44.629 154.41 51.4504 145.222 53.8617 142.089C58.1174 137.029 60.8095 134.558 64.1531 132.646C68.2197 130.373 72.3057 129.896 75.0182 129.896C75.142 129.896 75.2651 129.898 75.3872 129.901L75.6757 129.908L75.456 130.095C72.45 132.652 70.2653 136.21 68.7746 140.975Z" fill="#00A3E0"/>
<path d="M75.3859 129.901C75.2629 129.897 75.1399 129.896 75.0169 129.896C72.3053 129.896 68.2192 130.373 64.1519 132.646C60.8082 134.559 58.1161 137.029 53.8604 142.089C51.4483 145.222 44.6277 154.41 44.6277 154.41L39.8884 131.85L30.7024 131.853L30.7381 131.99C30.9442 132.793 30.9714 133.731 30.8221 134.856C30.6795 135.919 30.4725 136.854 30.1068 138.084C30.0101 138.398 20.3974 169.537 19.7449 171.428C18.6717 174.539 17.0944 176.53 15.9609 177.654L15.7378 177.875L16.05 177.843C22.4336 177.176 24.6845 174.678 25.4243 173.857C27.7923 171.231 28.8851 167.474 29.244 166.239L35.5504 145.635L40.8039 170.498L59.5703 145.301L50.6287 174.149L50.5846 174.293H59.6365L59.6009 174.155C59.3913 173.341 59.365 172.431 59.5177 171.29C59.6077 170.612 59.7926 169.905 60.0599 168.987L68.7733 140.975C70.2631 136.21 72.4487 132.652 75.453 130.097L75.6727 129.91L75.3859 129.901Z" fill="black"/>
<path d="M56.5101 99.6538C56.6705 103.195 57.1964 106.71 58.0796 110.143C57.1336 97.8004 59.2836 87.4047 63.7251 78.855C62.5458 78.8371 61.3834 78.8287 60.2448 78.8312C57.4425 85.3273 56.1851 92.3256 56.5101 99.6538ZM113.524 48.6699C113.19 48.6767 112.856 48.6809 112.525 48.6911C97.9169 49.1458 84.3861 53.0894 74.6869 60.4109C73.1397 61.5791 71.6628 62.8376 70.264 64.1798C68.5684 65.873 67.0007 67.6896 65.5738 69.6147C67.2987 69.3246 68.9922 69.0743 70.6526 68.858C80.8974 57.4411 96.3549 50.8534 113.524 48.6699Z" fill="#EF3340"/>
<path d="M52.7181 78.9879C56.385 78.8453 60.0553 78.8012 63.7248 78.8564C68.5074 78.9285 73.6039 79.1728 78.9015 79.6767C81.3157 77.8381 83.845 76.1557 86.4738 74.6396C70.7659 73.9542 49.6484 74.7405 29.499 81.2952C30.0149 81.1959 38.1496 79.7021 50.3934 79.0905C51.168 79.0523 51.9426 79.0175 52.7181 78.9879Z" fill="#41748D"/>
<path d="M189.96 175.972H189.952L189.579 174.805H189.01V176.59H189.338V175.168H189.347L189.797 176.589H190.111L190.578 175.168H190.586V176.589H190.914V174.805H190.349L189.96 175.972ZM187.418 175.124H187.902V176.59H188.23V175.124H188.717V174.805H187.418V175.124Z" fill="black"/>
</svg>
