<svg width="200" height="200" viewBox="0 0 200 200" fill="none" xmlns="http://www.w3.org/2000/svg">
<path d="M192.984 54.1576C194.14 53.2418 195.434 52.2757 196.633 51.3975L200 48.9385L195.854 48.3489C192.93 47.9559 189.986 47.7256 187.036 47.6588C181.722 47.6588 173.588 48.3049 164.888 51.3724C159.555 52.8403 154.593 54.8665 150.039 57.4133C149.041 57.9841 148.054 58.5738 147.15 59.1446C143.526 61.29 140.573 63.2723 137.829 65.3988L136.811 66.1829L134.525 63.6988C133.187 62.231 128.036 57.407 118.15 56.8738L111.416 56.51L117.741 54.1702C128.476 50.1994 147.376 43.2615 149.87 42.3456L159.675 32.886L107.911 42.1512C105.367 42.1072 102.817 42.2076 100.286 42.4648L99.9215 42.5024L99.5886 42.3582C97.7456 41.5679 95.8345 40.9464 93.879 40.5014L93.232 40.3571L92.9368 39.7612C87.7102 29.2544 81.0471 19.524 73.1384 10.849C71.9393 9.61174 70.6616 8.45302 69.3131 7.38005L67.6172 6L66.7065 8.00108C66.1045 9.49089 65.6009 11.0185 65.199 12.5741C64.3384 15.4534 63.9113 19.5434 63.8736 25.1138C63.9302 27.1086 63.8108 32.3277 61.6124 36.8066L61.0848 37.7224C60.9417 37.9853 60.7888 38.2427 60.6262 38.494C60.2871 38.9958 59.9227 39.4538 59.5961 39.8364L59.1502 40.3696C57.6238 42.0759 55.6578 43.7069 52.9506 45.5323L51.1793 46.6112C48.9872 47.9035 46.1104 49.6035 43.8491 51.316C36.99 56.2277 32.2163 61.8358 28.3534 69.5139L28.077 70.0534L27.4991 70.2165C22.4365 71.7031 14.7546 75.1156 5.48978 79.9772C10.9105 79.5193 18.2469 79.0237 22.8699 79.0174L24.6286 79.03L24.2141 80.73C23.1651 85.1268 22.7005 89.6424 22.8322 94.1604L22.9139 95.5718C23.9377 111.53 32.4362 122.941 37.4109 128.329L37.9574 128.919L37.7187 129.691C34.1307 141.292 30.5085 152.882 26.8522 164.462C23.3284 175.126 16.1553 180.489 6.2184 187.91L0 192.746L5.00612 192.841C8.95072 192.916 13.0398 192.991 17.1037 192.671L17.556 192.634C23.5859 192.163 39.5967 190.921 50.3188 179.843C50.7647 179.404 51.1919 178.958 51.6001 178.507C52.6177 177.371 53.6038 176.117 54.6277 174.643C57.5379 170.937 59.9261 166.851 61.7254 162.498L63.8171 157.586L65.0231 168.539C67.4288 190.087 77.441 192.056 81.7123 192.897L86.3038 193.907L84.3881 190.563C82.7487 187.709 79.6018 178.645 79.4259 171.494C79.3317 167.35 79.3003 163.205 79.3317 159.061C79.3442 156.89 79.3442 155.027 79.3191 153.553L79.3694 150.523L80.9899 147.443L87.4407 178.105L93.7408 169.7L93.7533 169.706L126.654 125.481L108.759 182.39L145.328 182.358L150.284 177.415L149.876 176.393C149.273 174.862 149.166 174.53 148.971 173.959C148.262 172.052 148.123 169.75 148.525 166.701C148.733 165.095 149.191 163.351 149.863 161.062L173.889 83.7786C178.066 70.4423 184.31 60.7505 192.984 54.1576ZM133.444 69.0622C128.802 73.24 124.129 78.3776 118.753 85.2465L118.388 85.7232L106.316 102.133L104.463 104.643L98.7406 77.3488L106.9 69.3759L136.654 66.1829L133.444 69.0622Z" fill="white"/>
<path d="M79.7088 145.235C79.313 146.321 77.6736 148.673 77.592 148.817C77.2662 149.311 77.0519 149.87 76.9639 150.454L79.3256 152.939C79.3193 152.719 79.357 151.853 79.357 151.778V151.213C79.3444 150.862 79.3696 150.718 79.7213 150.04C79.7595 149.973 79.8014 149.908 79.8469 149.846C80.4562 148.93 81.0404 148.064 81.4298 147.23L80.2364 142.199C80.1837 143.229 80.0066 144.248 79.7088 145.235Z" fill="white"/>
<path d="M114.06 61.0699L101.624 61.8227C101.624 61.8227 101.473 55.8382 107.842 53.4357C114.205 51.0331 143.149 40.4506 143.149 40.4506L114.67 45.5757H114.663L108.112 46.755C103.175 46.5793 99.1928 47.2004 99.1928 47.2004C96.845 46.0469 94.3486 45.2236 91.7747 44.7539C91.2094 44.6284 90.6378 44.503 90.0725 44.4026C86.7246 37.2891 80.1545 25.1571 69.7277 13.8281C66.8886 22.2088 70.8897 27.8294 65.356 39.3717C64.7592 40.7768 63.9364 42.0691 62.9188 43.2045C58.0886 48.5051 55.394 49.1387 50.4632 52.4759C42.5614 57.4253 36.8267 63.6355 33.058 70.4856C35.7652 69.8332 38.4975 69.275 41.2487 68.817C42.4672 67.1798 43.7926 65.599 45.2749 64.1248C46.4746 62.9769 47.7434 61.8917 49.0876 60.8754C57.4542 54.5648 69.1247 51.1711 81.7311 50.7822L82.5979 50.7634C67.8056 52.639 54.5334 58.3474 45.6958 68.1584C56.3675 66.7783 65.3246 67.092 70.6699 67.851C66.9137 69.2248 63.1261 70.9624 59.4893 73.045L59.2946 73.1454L58.4906 73.6221L56.9266 74.5819C55.6703 75.3786 54.4455 76.2254 53.2583 77.1224L53.2018 77.1664C53.0568 77.2716 52.9144 77.3803 52.7747 77.4926C48.4224 77.0839 44.0557 76.8474 39.6847 76.7837C35.8406 84.1545 33.9499 93.0934 34.7602 103.745C34.0017 100.786 33.5471 97.7569 33.4034 94.7056C33.1094 88.5537 34.2311 82.4164 36.6822 76.7649C34.3896 76.7712 32.2163 76.8213 30.1435 76.9029C24.013 93.8211 28.3848 113.192 40.4133 126.83L43.6481 116.385C39.7537 87.0338 79.0616 72.2672 97.2708 72.4114L104.394 65.4924L126.843 63.0898C126.843 63.071 123.633 60.474 114.06 61.0699ZM72.6484 24.7996C72.6359 24.6616 72.6359 24.3103 72.6296 23.959C76.9774 29.8874 80.8442 36.1531 84.1933 42.6964C78.1633 42.7591 72.2088 44.02 66.675 46.41C69.7779 42.2447 73.3519 34.9116 72.6484 24.7996ZM98.4642 62.0171L93.0372 62.3496C93.0372 62.3496 94.1679 57.8456 101.328 55.4681C101.328 55.4619 99.0735 56.7604 98.4642 62.0171Z" fill="black"/>
<path d="M137.483 108.112L131.271 116.455L111.071 180.697L144.631 180.671L148.299 177.014H116.133L137.483 108.112ZM107.691 109.247C112.892 102.222 120.015 92.5988 126.648 83.9672L126.698 83.9045C138.645 69.6962 146.258 62.7269 155.774 57.2757C158.801 55.592 161.968 54.1732 165.24 53.0352C160.623 54.3086 155.761 56.1528 150.887 58.8753C149.895 59.4399 148.934 60.0233 147.979 60.6255C139.11 65.8822 131.497 71.7223 120.084 86.2882L103.577 108.689L104.576 113.444L107.691 109.247ZM92.8613 168.05L93.0811 167.749L93.257 167.517L93.3952 167.329L92.855 168.05H92.8613ZM84.3188 140.625C83.8038 141.377 83.6782 141.754 83.6279 142.18L83.6153 142.325C83.5274 143.843 83.295 145.762 82.7988 147.105C82.7817 147.154 82.7607 147.203 82.736 147.249L88.3325 174.097L91.3287 170.114L84.9218 139.759C84.6769 140.092 84.4696 140.405 84.3188 140.625ZM42.4169 182.233C33.6672 186.33 24.5468 186.831 20.5646 187.114C18.9628 187.22 17.3611 187.283 15.7594 187.289C21.7391 182.622 26.4689 178.062 29.6221 171.601C30.5328 169.838 31.3934 167.868 32.1534 165.673C33.284 162.386 44.5588 125.99 52.5924 100.001C51.7696 100.942 50.9782 101.92 50.2684 102.949C48.2521 105.872 46.0537 109.021 44.8791 112.415C44.7975 112.641 44.7346 112.886 44.6593 113.118C44.3264 114.19 43.9997 115.269 43.6543 116.361C42.5865 119.83 41.4873 123.361 40.4195 126.805L39.8981 128.487L39.873 128.461C33.9749 147.425 29.1258 162.944 28.4538 164.995C24.4715 177.09 15.7469 182.854 4.74219 191.141C8.67422 191.21 12.914 191.298 16.9717 190.978C22.5997 190.533 38.5539 189.56 49.1378 178.62C49.5461 178.212 49.9418 177.798 50.3375 177.366C51.443 176.136 52.4291 174.831 53.365 173.495C52.9756 173.978 52.6113 174.486 52.1904 174.95C49.419 177.969 46.1034 180.44 42.4169 182.233ZM78.1381 125.174C79.1117 124.378 80.1795 123.543 81.3164 122.709L77.7298 105.722L75.5565 112.81L78.1381 125.174ZM83.2008 136.98C82.7423 137.62 82.3465 138.197 82.0325 138.649L83.2008 136.98Z" fill="#EF3340"/>
<path d="M79.1183 188.756C79.0155 188.735 78.9146 188.706 78.8168 188.668C77.4412 188.179 71.7944 185.256 69.4767 169.717C69.1259 167.408 68.816 165.093 68.5471 162.773L68.4528 161.945C67.9315 157.184 67.8812 154.794 67.6111 152.636C67.4541 151.394 67.1652 148.766 65.4944 145.692C65.5086 145.658 65.5191 145.622 65.5258 145.585L65.5195 145.579L75.5506 112.803L77.7239 105.721L81.3105 122.708C80.1673 123.548 79.112 124.383 78.1322 125.179C75.8584 127.036 74.0996 128.636 73.2454 129.326C71.8196 130.467 70.8146 131.126 69.841 131.484L68.8737 134.645C70.7832 134.194 72.6173 133.033 74.8094 131.019C77.0392 128.974 77.8621 128.441 80.7452 125.945C82.2966 124.602 83.735 123.498 85.0603 122.595L78.3771 90.9665L59.7345 151.902C58.7609 155.252 55.7962 165.439 49.4396 172.49C47.4987 174.642 41.9775 180.77 26.4629 182.866C29.3649 179.622 33.0394 174.41 35.6398 166.882C36.896 163.231 49.961 121.014 58.0009 95.0063C56.0474 96.4992 54.2322 98.1741 52.5928 100.006C44.5591 125.995 33.2843 162.391 32.1537 165.678C31.3937 167.873 30.5269 169.843 29.6224 171.599C26.4692 178.06 21.7395 182.621 15.7598 187.288C17.3489 187.275 18.9443 187.225 20.5649 187.112C24.5409 186.83 33.6675 186.322 42.4172 182.232C46.1037 180.438 49.4193 177.968 52.1908 174.949C52.6116 174.485 52.9759 173.983 53.3654 173.494C59.4456 165.96 62.3161 156.256 63.2897 152.925L63.497 152.216L64.3324 149.475C64.6904 150.522 64.9102 151.651 65.0233 152.95C65.0233 152.95 65.7079 159.354 66.7129 168.344C69.1438 190.111 78.9362 190.512 82.9122 191.403C82.9122 191.409 81.0718 190.65 79.1183 188.756ZM187.017 49.3516C181.345 49.3516 173.569 50.1043 165.24 53.0338C162.131 54.1253 158.959 55.4928 155.774 57.2743C146.258 62.7193 138.645 69.6885 126.698 83.9031L126.648 83.9658C120.253 92.3348 113.933 100.762 107.692 109.246L104.576 113.449L103.577 108.694L96.5612 75.2778C95.3166 75.2976 94.0735 75.3772 92.8365 75.5161L102.629 122.168L105.072 118.944C106.209 117.445 108.169 114.798 110.656 111.441C116.875 102.986 123.175 94.586 129.55 86.2492C141.17 72.4298 148.513 65.6864 157.589 60.4924C168.067 54.6334 178.6 53.1844 185.924 53.0589C178.286 60.1223 172.646 69.7011 168.745 82.178L144.726 159.467C143.972 162.058 143.45 164.053 143.193 165.991C142.816 168.802 142.822 171.192 143.224 173.324H121.14L147.383 88.6267L93.2448 161.337L87.8304 135.693C86.6809 137.205 85.6319 138.71 84.9159 139.745L91.3227 170.1L131.265 116.441L137.477 108.104L116.133 177.007H148.3C147.64 175.319 147.552 175.031 147.376 174.516C146.572 172.358 146.409 169.805 146.849 166.468C147.081 164.762 147.558 162.911 148.256 160.521L172.275 83.2633C176.552 69.5819 182.978 59.6267 191.91 52.8268C193.11 51.8796 194.41 50.9073 195.635 50.0165C195.641 50.029 191.232 49.4017 187.017 49.3516Z" fill="#00A3E0"/>
<path d="M81.2159 139.946C81.3365 139.697 81.4772 139.457 81.6368 139.231L82.0325 138.648L83.2008 136.979L84.0739 135.775C85.0726 134.413 86.1216 133.077 87.2082 131.785L88.9921 129.74L89.1679 129.533C89.6893 128.937 90.1981 128.354 90.7068 127.795L91.0146 127.45C91.9401 126.407 92.8974 125.393 93.8851 124.408L94.0422 124.245H94.0547C95.8323 122.501 97.4529 121.215 98.8724 120.738C98.7719 120.707 98.6589 120.719 98.5521 120.701C97.7795 120.676 95.7444 120.964 92.1955 123.756C90.3488 125.343 88.075 127.557 85.3113 130.662C82.2146 134.156 80.7762 136.565 79.7084 137.945C78.9107 138.968 78.6658 139.538 78.5087 140.498C78.4773 140.674 78.4082 143.453 77.8869 144.877C77.4849 145.962 75.8518 148.314 75.7701 148.459C75.0038 149.732 75.0918 150.353 75.1169 151.056C75.142 151.764 75.0038 161.149 75.2676 171.593C75.5314 182.038 79.118 188.75 79.118 188.75L79.1117 188.744C81.0652 190.644 82.9056 191.397 82.9056 191.397C81.0338 188.135 77.8995 178.738 77.7173 171.531C77.5226 164.003 77.6859 157.429 77.6168 153.565C77.6105 152.718 77.5917 151.871 77.5666 151.024L77.5603 150.805C77.5477 150.453 77.5477 150.347 77.8995 149.675C77.9371 149.613 77.9686 149.556 78.0251 149.481C78.9296 148.114 79.8215 146.715 80.1858 145.724C80.6883 144.381 80.8516 142.468 80.9396 140.943L80.9521 140.799C81.0085 140.512 81.097 140.232 81.2159 139.965V139.946Z" fill="#41748D"/>
<path d="M40.4194 126.811C28.3909 113.18 24.0191 93.803 30.1496 76.8848C29.1132 76.9287 28.0705 76.9789 27.0341 77.0353C25.1992 82.6044 24.3532 88.451 24.5342 94.3111C24.5342 94.3613 24.5154 94.4052 24.5154 94.4554L24.5279 94.6122C24.5342 94.6937 24.5154 94.7753 24.5216 94.8568L24.6033 95.572C25.4764 109.128 32.3857 120.921 39.8729 128.467L39.898 128.493L40.4194 126.811Z" fill="#00A3E0"/>
<path d="M143.061 40.4581L114.67 45.5706L143.149 40.4518C143.149 40.4518 114.211 51.0281 107.842 53.4369C101.479 55.8394 101.624 61.8176 101.624 61.8176L114.06 61.0648C123.633 60.4626 126.843 63.0659 126.843 63.0659L104.394 65.4622L97.2708 72.3813C79.0615 72.237 39.76 87.0036 43.6481 116.355L44.6468 113.105L44.8666 112.403L44.9357 112.183L45.903 109.053C46.148 108.3 46.3804 107.56 46.6003 106.908C47.2347 104.675 48.0763 102.535 49.1316 100.516C54.0121 91.1249 63.9238 85.0276 71.1095 81.6966C78.1759 78.4284 86.1153 76.1952 92.83 75.4989C94.1176 75.3609 95.3738 75.2794 96.5484 75.2606L96.9944 75.2417L98.4202 75.2543L106.115 67.7455L133.268 64.8286C132.238 63.7057 127.107 58.7187 116.987 58.518C115.95 58.5065 114.913 58.5421 113.878 58.6246L105.424 59.139C105.709 58.3468 106.162 57.6258 106.753 57.0258C107.344 56.4258 108.059 55.9611 108.847 55.6638C115.122 53.2926 148.651 40.9787 148.94 40.8721L151.628 38.25L143.061 40.4581Z" fill="#41748D"/>
<path d="M33.4097 94.6937C33.5416 97.7612 34.0064 100.785 34.7601 103.733C33.9436 93.0816 35.8405 84.1489 39.6783 76.7781C38.6818 76.7603 37.6851 76.752 36.6885 76.753C34.2373 82.4045 33.1157 88.5419 33.4097 94.6937ZM82.5978 50.7578L81.731 50.7766C69.1309 51.1718 57.4541 54.5655 49.0876 60.8761C47.7541 61.8838 46.481 62.9688 45.2749 64.1255C43.818 65.5876 42.4722 67.156 41.2486 68.8177C42.7561 68.5668 44.2447 68.341 45.6957 68.1528C54.5271 58.3418 67.7993 52.6334 82.5978 50.7578Z" fill="#EF3340"/>
<path d="M72.6294 23.959C72.6357 24.3103 72.6357 24.6616 72.6482 24.7996C73.3517 34.9116 69.784 42.2447 66.6748 46.41C72.211 44.0207 78.1687 42.7582 84.1994 42.6964C80.8444 36.1551 76.9756 29.8897 72.6294 23.959Z" fill="#00A3E0"/>
<path d="M93.0373 62.3502L98.4643 62.0177C99.0736 56.761 101.329 55.4688 101.329 55.4688C94.1617 57.8462 93.0373 62.3502 93.0373 62.3502ZM36.6886 76.753C42.059 76.7341 47.4295 76.9851 52.781 77.4869L53.2082 77.1607L53.2647 77.1168C54.4518 76.2198 55.6767 75.3729 56.9329 74.5762C57.448 74.2438 57.9756 73.9301 58.4969 73.6165L59.3009 73.1397C45.7461 72.5438 27.5117 73.2213 10.1128 78.8732C10.5462 78.7917 17.1038 77.5935 27.0407 77.0352C30.2503 76.8471 33.4726 76.753 36.6886 76.753Z" fill="#41748D"/>
<path d="M59.2948 73.1391L59.4895 73.0388C63.0652 71 66.8051 69.2626 70.67 67.8447C65.331 67.0857 56.3677 66.7721 45.7022 68.1521C41.4507 68.7159 37.2306 69.4948 33.0581 70.4857C36.8331 63.6356 42.5616 57.4316 50.4697 52.4759C55.4004 49.1387 58.095 48.5052 62.919 43.2108C64.169 41.837 64.7343 40.6702 65.3561 39.3717C70.8961 27.8294 66.8887 22.2088 69.7278 13.8344C80.1609 25.1571 86.7311 37.2891 90.0727 44.4089C90.6443 44.5093 91.2096 44.6285 91.7749 44.7602C93.9168 45.1491 96.4732 45.858 99.193 47.2066C99.193 47.2066 103.175 46.5794 108.119 46.7613L114.67 45.5819L143.067 40.4695L151.647 38.2739L154.468 35.5577L107.905 43.8882C105.151 43.8087 102.394 43.9303 99.6578 44.2521C97.4146 43.2233 95.0574 42.4632 92.6354 41.9875C92.4407 41.9499 92.2585 41.8809 92.0701 41.837C88.5149 34.4851 82.1081 23.0933 71.9765 12.0968C70.8097 10.8863 69.5655 9.75273 68.2518 8.70312C67.6613 9.98908 66.8196 13.0879 66.8196 13.0879C65.9026 16.1491 65.6011 20.6281 65.576 25.0317C65.6513 28.0992 65.287 33.1865 63.1074 37.609C62.9567 37.9038 62.7808 38.1861 62.6112 38.4747C62.4165 38.8071 62.2218 39.1521 62.0082 39.4783C61.6439 39.999 61.2545 40.5008 60.8462 40.9839C60.6955 41.1595 60.5573 41.354 60.394 41.5233C58.7294 43.3801 56.5687 45.1303 53.7987 46.9996L53.2208 47.376C51.2108 48.5804 47.574 50.6191 44.8166 52.7206C37.4864 57.9648 32.9137 63.8614 29.2706 71.4768C22.9831 73.2332 16.482 75.6295 10.0752 78.8726L10.1003 78.8664C27.5056 73.2207 45.7336 72.5432 59.2948 73.1391Z" fill="#00A3E0"/>
<path d="M83.6093 142.318L83.6219 142.174C83.6721 141.747 83.7978 141.371 84.3128 140.618L84.9158 139.746C85.6319 138.705 86.6871 137.206 87.8303 135.694L93.2447 161.338L147.382 88.6276L121.14 173.319H143.224C142.822 171.186 142.81 168.803 143.193 165.986C143.45 164.048 143.972 162.053 144.726 159.462L168.757 82.1664C172.658 69.6832 178.299 60.1107 185.937 53.041C178.606 53.1665 168.079 54.6218 157.602 60.4745C148.526 65.6685 141.177 72.4182 129.563 86.2313C123.186 94.5695 116.888 102.967 110.669 111.424C108.181 114.78 106.222 117.427 105.085 118.926L102.641 122.15L92.849 75.4983C86.1344 76.1946 78.1949 78.4278 71.1286 81.696C63.9429 85.0269 54.0311 91.1243 49.1443 100.515C48.0837 102.553 47.2355 104.695 46.613 106.907L45.9158 109.052L44.9485 112.183L44.8731 112.402C46.054 109.009 48.2461 105.859 50.2624 102.936C50.9722 101.907 51.7636 100.929 52.5864 99.9942C54.2258 98.1437 56.0662 96.4876 58.0008 94.9947C49.9672 121.002 36.896 163.22 35.6397 166.87C33.0393 174.398 29.3648 179.611 26.4629 182.854C41.9775 180.759 47.4987 174.624 49.4396 172.472C55.7961 165.415 58.7609 155.228 59.7345 151.884C59.8161 151.583 78.3771 90.9423 78.3771 90.9423L85.0603 122.571C83.5598 123.605 82.1191 124.724 80.7451 125.92C77.862 128.417 77.0392 128.957 74.8094 130.995C72.6172 133.009 70.7831 134.169 68.8736 134.627L65.5257 145.574L65.4943 145.674C67.1651 148.748 67.4541 151.382 67.6111 152.625C67.8749 154.789 67.9252 157.179 68.4528 161.934L68.547 162.762L68.7731 164.618L68.9427 165.929C69.0935 167.084 69.2693 168.326 69.4703 169.706C71.7944 185.244 77.4412 188.167 78.8168 188.656C79.0115 188.725 79.112 188.744 79.1183 188.751H79.1246C79.1246 188.751 75.5443 182.038 75.2742 171.594C75.0104 161.149 75.1485 151.765 75.1234 151.056C75.0983 150.347 75.0104 149.733 75.7767 148.459C75.8583 148.315 77.4977 145.963 77.8934 144.877C78.4211 143.46 78.4902 140.681 78.5153 140.499C78.6723 139.539 78.911 138.968 79.715 137.946C80.7828 136.566 82.2212 134.157 85.3178 130.669C88.0753 127.558 90.3554 125.343 92.202 123.756C95.7509 120.965 97.786 120.676 98.5586 120.701C98.6654 120.72 98.7722 120.714 98.879 120.739C97.4594 121.216 95.8389 122.502 94.0613 124.246H94.0487L93.8917 124.409C93.5148 124.779 93.1254 125.18 92.7359 125.594L92.3465 126.008C91.7938 126.598 91.2536 127.194 90.7134 127.796L89.1745 129.534L88.9986 129.741L87.2148 131.786C86.1218 133.078 85.0729 134.408 84.0804 135.782L83.2073 136.986C82.7488 137.626 82.3531 138.203 82.039 138.655L81.6433 139.232C81.4838 139.458 81.343 139.697 81.2225 139.947L81.2288 139.978L81.9951 143.642L82.7425 147.242L82.8053 147.098C83.2953 145.756 83.5214 143.842 83.6093 142.318Z" fill="black"/>
</svg>
