<svg width="200" height="200" viewBox="0 0 200 200" fill="none" xmlns="http://www.w3.org/2000/svg">
<g clip-path="url(#clip0_18_1261)">
<path d="M99.9998 4.62891C47.4535 4.62891 4.62939 47.453 4.62939 99.9993C4.62939 152.546 47.4535 195.37 99.9998 195.37C152.546 195.37 195.37 152.546 195.37 99.9993C195.37 47.453 152.546 4.62891 99.9998 4.62891Z" fill="#12284B"/>
<path d="M100 0C44.9074 0 0 44.9074 0 100C0 155.093 44.9074 200 100 200C155.093 200 200 155.093 200 100C200 44.9074 155.093 0 100 0ZM4.62963 100C4.62963 47.4537 47.4537 4.62963 100 4.62963C152.546 4.62963 195.37 47.4537 195.37 100C195.37 152.546 152.546 195.37 100 195.37C47.4537 195.37 4.62963 152.546 4.62963 100Z" fill="#FFC52F"/>
<path d="M100 190.972C49.7686 190.972 9.02783 150.231 9.02783 99.9996C9.02783 49.7681 49.7686 9.02734 100 9.02734C150.232 9.02734 190.972 49.7681 190.972 99.9996C190.972 150.231 150.232 190.972 100 190.972ZM100 11.3422C51.1575 11.3422 11.3426 51.157 11.3426 99.9996C11.3426 148.842 51.1575 188.657 100 188.657C148.843 188.657 188.657 148.842 188.657 99.9996C188.657 51.157 148.843 11.3422 100 11.3422Z" fill="#003EA0"/>
<path d="M144.908 80.0927V93.5187C144.908 104.63 143.056 111.343 134.259 130.093C125 149.537 113.658 155.324 100 155.324C90.9723 155.324 82.639 152.315 75.926 146.991L74.3057 145.602L74.0742 145.371C72.2223 143.75 70.602 141.898 68.9816 139.815L68.5186 139.352C68.5186 139.121 68.2872 139.121 68.2872 138.889C67.3612 137.732 66.6668 136.574 65.9723 135.417C65.9723 135.185 65.7409 135.185 65.7409 134.954C63.426 131.019 62.0372 126.852 60.8797 123.611C60.4168 122.685 60.1853 121.759 59.9538 120.833C57.4075 114.121 52.3149 101.389 50.0001 94.9076C47.4538 87.9631 46.9909 83.3335 48.6112 78.7038C50.2316 73.8427 54.1668 70.139 59.4909 65.7409C64.8149 61.3427 69.2131 57.8705 75.4631 53.4724C79.3983 50.6946 83.5649 49.0742 87.5001 49.0742C89.1205 49.0742 90.7409 49.3057 92.3612 49.7687C92.5927 49.7687 92.8242 50.0001 93.2872 50.2316C94.676 50.6946 95.8334 51.389 96.7594 52.315L96.9909 52.0835C99.7686 50.4631 103.009 49.5372 106.25 49.5372C108.796 49.5372 111.343 50.0001 113.426 51.1576C113.889 51.389 114.12 51.6205 114.583 51.6205C114.815 51.6205 114.815 51.852 115.046 51.852C116.667 52.7779 118.287 53.9353 119.445 55.0927C121.296 54.3983 123.148 54.1668 125 54.1668C127.778 54.1668 130.093 54.8613 132.408 56.2501L132.87 56.4816C133.796 57.1761 134.491 57.4076 135.185 58.102C141.667 62.7316 144.908 67.3613 144.908 80.0927Z" fill="#FFC52F"/>
<path d="M133.102 61.8055C132.176 61.111 131.713 60.8796 130.324 59.9536C127.546 58.1018 124.074 57.6388 118.982 59.9536C118.75 59.9536 118.519 60.1851 118.056 60.1851C116.898 57.8703 115.046 56.4814 113.426 55.5555C112.732 55.0925 112.5 55.0925 111.806 54.861C108.333 53.2407 103.472 53.0092 99.0742 55.787C98.1483 56.2499 96.9909 56.9444 95.8335 57.6388C94.6761 55.787 93.2872 54.861 91.6668 54.1666C91.2038 53.9351 90.9724 53.9351 90.7409 53.9351C87.5001 52.7777 82.4075 53.4722 77.5464 56.9444C71.7594 61.111 67.3612 64.5833 61.8057 69.2129C51.6205 77.5462 49.3057 82.4073 53.4724 93.7499C55.7872 99.9999 60.6483 112.5 63.4261 119.676C65.0464 123.843 66.6668 129.167 69.6761 134.259C69.9075 134.722 70.139 135.185 70.602 135.648C70.602 135.88 70.8335 135.88 70.8335 136.111C72.2224 138.194 73.8427 140.278 75.6946 142.13L76.1575 142.593L76.389 142.824C82.639 148.38 90.7409 151.852 99.7687 151.852C116.435 151.852 130.093 138.194 130.093 121.528C130.093 105.555 117.13 92.5925 101.158 92.5925C92.5927 92.5925 83.7964 97.6851 78.7038 105.555C76.6205 100.231 71.7594 88.6573 68.2872 80.0925C66.4353 75.4629 66.8983 73.1481 69.6761 70.3703C71.065 68.9814 72.9168 67.5925 75.0001 66.2036C77.0835 64.8148 79.3983 65.7407 79.3983 68.287V96.7592C84.0279 92.1296 89.815 88.8888 96.9909 87.7314V64.1203C97.4538 63.8888 97.9168 63.4259 98.3798 63.1944C100.232 62.037 101.621 63.4259 101.621 65.0462V87.037H102.083C108.333 87.037 114.121 88.6573 118.982 91.6666V66.8981C119.445 66.6666 119.908 66.4351 120.139 66.4351C121.991 65.7407 123.38 66.8981 123.38 68.5185C123.38 70.1388 123.148 94.6759 123.148 94.6759C130.093 100.231 134.491 108.796 135.185 118.055C138.426 111.111 140.741 104.63 140.741 93.5185V80.0925C140.972 68.9814 138.426 65.5092 133.102 61.8055ZM101.158 103.935C110.88 103.935 118.519 111.805 118.519 121.296C118.519 131.018 110.648 138.657 101.158 138.657C91.4353 138.657 83.7964 130.787 83.7964 121.296C83.7964 111.805 91.6668 103.935 101.158 103.935Z" fill="#12284B"/>
<path d="M87.9627 121.295C87.9627 118.055 89.1201 115.277 90.972 112.962C94.6757 117.823 94.6757 124.768 90.972 129.629C89.1201 127.545 87.9627 124.536 87.9627 121.295ZM93.2868 131.943C98.1479 125.693 98.1479 116.897 93.2868 110.879C95.6016 109.258 98.1479 108.332 101.157 108.332C104.166 108.332 106.944 109.258 109.028 110.879C104.166 117.129 104.166 125.925 109.028 131.943C106.713 133.564 104.166 134.721 101.157 134.721C98.1479 134.721 95.3701 133.564 93.2868 131.943ZM111.574 129.86C107.87 124.999 107.87 118.055 111.574 113.193C113.426 115.508 114.583 118.286 114.583 121.527C114.352 124.536 113.426 127.545 111.574 129.86ZM36.1109 72.2212H31.0183L38.1942 75.462L36.8053 78.4712L34.722 77.5453L35.1849 76.8508L25.6942 72.4527L25.4627 73.1471L23.3794 72.2212L24.5368 69.4434L25.6942 69.9064H33.1016L28.2405 64.3508L27.3146 63.6564L28.472 60.8786L30.5553 61.8045L30.3238 62.499L39.5831 66.6657L40.0461 65.9712L42.1294 66.8971L40.7405 69.9064L33.5646 66.6657L37.0368 70.6008L36.1109 72.2212ZM39.5831 45.6008L41.4349 47.2212L40.972 47.6842L48.6109 54.3971L49.3053 53.9342L50.9257 55.3231L48.1479 58.5638L46.5275 56.9434L46.9905 56.249L39.3516 49.536L38.6572 50.2305L37.0368 48.8416L39.5831 45.6008ZM61.5738 42.1286L63.6572 40.7397L65.509 43.286L58.5646 48.1471L57.1757 46.2953L57.8701 45.8323L52.0831 37.2675L51.3887 37.7305L49.9998 35.8786L53.472 33.5638L54.8609 35.4157L54.1664 35.8786L59.9535 44.4434L62.0368 42.8231L61.5738 42.1286ZM81.9442 20.6008L82.6387 22.6842L81.9442 22.9157L83.3331 34.4897L83.5646 35.6471L81.2498 36.3416L81.0183 35.4157L76.8516 28.7027L77.5461 36.3416L77.7775 37.499L75.4627 38.1934L75.2312 37.2675L69.4442 27.0823L68.7498 27.3138L68.0553 24.999L70.8331 24.0731L71.2961 25.2305L74.9998 31.9434L74.3053 24.3045L76.3887 23.6101L80.3238 30.0916L79.3979 22.6842L79.1664 21.5268L81.9442 20.6008ZM105.092 31.4805H105.787V33.7953H102.546V29.8601H98.8424V33.7953H95.6016V31.4805H96.2961L96.5275 23.6101L98.8424 18.9805H103.241L105.324 23.6101L105.092 31.4805ZM102.546 24.0731L101.389 21.2953H99.9998L98.6109 24.0731V27.5453H102.546V24.0731ZM129.629 24.3045L128.935 26.3879L128.009 26.1564L125.231 35.1842L122.916 37.7305L117.592 36.1101L117.129 32.6379L119.907 23.6101L119.213 23.3786L119.907 21.0638L122.916 22.2212L119.676 32.8694L119.907 34.2582L121.991 34.9527L122.916 34.0268L126.389 23.1471L129.629 24.3045ZM148.148 34.7212L150 35.8786L148.842 37.7305L148.148 37.2675L143.287 40.2768L142.361 45.8323L143.055 46.2953L141.666 48.1471L139.815 46.9897L140.972 40.0453L140.046 39.3508L136.574 44.6749L133.796 42.8231L134.953 40.7397L135.648 41.2027L141.435 32.8694L140.972 32.4064L142.129 30.5545L144.907 32.4064L141.435 37.499L142.361 38.1934L148.148 34.7212ZM161.805 52.0823L162.5 51.6194L160.879 49.7675L157.639 52.0823L160.185 55.0916L158.333 56.4805L156.018 53.7027L152.778 56.249L154.398 58.1008L155.092 57.6379L156.713 59.4897L154.166 61.5731L149.074 55.0916L150.694 53.4712L151.157 54.1657L159.259 47.6842L158.796 46.9897L160.416 45.6008L165.741 52.0823L163.426 54.1657L161.805 52.0823ZM172.453 70.6008L173.379 70.3694L172.222 68.0546L168.518 69.6749L170.139 73.1471L168.055 74.0731L166.435 70.6008L162.731 72.2212L163.889 74.536L164.583 74.0731L165.509 76.3879L162.731 77.5453L159.491 69.9064L161.574 68.9805L161.805 69.9064L171.296 65.7397L170.833 65.0453L173.148 64.1194L176.389 71.7583L173.611 72.9157L172.453 70.6008ZM37.9627 153.008L32.8701 146.527L34.722 145.138L35.1849 145.832L43.2868 139.582L42.8238 138.888L44.6757 137.499L49.7683 143.98L48.6109 146.295L46.0646 148.147L43.9812 148.61L43.0553 150.462L40.509 152.545L37.9627 153.008ZM41.6664 148.379L42.1294 147.684L40.0461 145.138L36.8053 147.684L38.6572 150.23L39.5831 149.999L41.6664 148.379ZM44.9072 141.434L41.6664 143.98L43.7498 146.527L44.4442 146.295L46.5275 144.675L46.9905 143.98L44.9072 141.434ZM58.1016 167.592L58.7961 168.055L57.4072 169.906L55.5553 168.518L56.7127 162.499L55.5553 161.573L52.3146 166.203L49.5368 164.351L50.9257 162.499L51.6201 162.962L57.4072 154.397L56.7127 153.934L58.1016 152.082L64.5831 156.712L63.8887 159.953L62.0368 162.499L59.259 164.119L58.7961 163.888L58.1016 167.592ZM56.7127 159.721L59.259 161.573L59.9535 161.11L61.8053 158.564L62.0368 157.638L59.4905 155.786L56.7127 159.721ZM80.0924 166.897L80.3238 166.203L78.009 165.508L76.6201 169.212L80.3238 170.369L79.6294 172.453L75.9257 171.295L74.7683 175.23L77.0831 175.925L77.5461 175.23L79.8609 175.925L78.9349 178.934L70.8331 176.388L71.5275 174.073L72.4535 174.305L75.6942 164.582L74.7683 164.351L75.4627 162.268L83.5646 164.814L82.4072 167.823L80.0924 166.897ZM107.87 166.666V168.98H107.176L105.092 180.323V181.48H102.546V180.323L100.694 172.916L99.0738 180.555V181.712H96.5275V180.555L94.2127 169.212H93.2868V166.897H96.2961V167.823L97.9164 175.23L99.5368 167.823H101.62L103.472 175.23L104.861 167.823V166.666H107.87ZM124.305 165.508L124.074 164.814L121.759 165.508L122.916 169.443L126.62 168.055L127.315 170.369L123.611 171.527L125 175.23L127.315 174.536L127.083 173.61L129.629 172.916L130.555 175.693L122.685 178.471L121.991 176.388L122.685 176.156L119.213 166.434L118.518 166.666L117.824 164.582L125.694 161.805L126.62 164.582L124.305 165.508ZM149.768 162.036L150.463 161.573L151.852 163.425L150 164.814L144.676 161.805L143.287 162.73L146.528 167.36L143.75 168.98L142.361 167.129L143.055 166.666L137.037 158.332L136.342 158.795L134.953 156.943L141.435 152.314L144.444 153.934L146.296 156.48L146.991 159.721L146.528 159.953L149.768 162.036ZM141.666 160.647L144.213 158.795L143.981 158.101L142.129 155.555L141.666 155.092L139.12 156.943L141.666 160.647ZM166.898 146.758L162.963 151.851L160.416 151.388L159.259 150.462L160.648 148.379L161.342 148.842L162.268 149.073L163.889 146.758L163.657 146.064L162.037 144.906L155.324 147.453L152.315 145.138L151.157 142.823L155.092 137.73L157.407 138.425L158.796 139.351L157.176 141.203L156.481 140.74L155.787 140.508L153.935 142.823L154.398 143.518L155.787 144.675L162.731 142.36L165.741 144.443L166.898 146.758Z" fill="white"/>
</g>
<defs>
<clipPath id="clip0_18_1261">
<rect width="200" height="200" fill="white"/>
</clipPath>
</defs>
</svg>
