<svg width="200" height="200" viewBox="0 0 200 200" fill="none" xmlns="http://www.w3.org/2000/svg">
<path d="M191.224 58.2696V83.4958C191.224 104.55 187.78 117.305 171.249 152.266C153.841 189.071 132.377 200 106.689 200C89.8023 200 73.9207 194.437 61.0927 184.163L60.9773 184.206L58.1161 181.643L57.586 181.176C53.9441 177.924 50.8428 174.422 48.1691 170.824C47.9437 170.53 47.7235 170.231 47.5086 169.929C47.4701 169.88 47.427 169.827 47.4037 169.775C47.2383 169.558 47.0845 169.337 46.9261 169.12C45.3951 166.961 43.9848 164.719 42.7017 162.405C42.5539 162.161 42.414 161.911 42.2823 161.658C38.0579 154.047 35.2689 146.476 32.9284 140.137C32.2585 138.325 31.6282 136.615 31.0072 135.026C26.1608 122.574 16.7765 98.2437 12.2341 85.9807C7.51346 73.2494 6.79115 64.2135 9.81205 55.7601C13.0485 46.7138 20.2891 39.4743 30.1649 31.3973C40.0559 23.3004 48.5431 16.5806 60.2725 8.11319C67.6191 2.8077 75.5016 0 83.0626 0C86.2664 0 89.2908 0.514938 92.0647 1.52734C92.561 1.71025 93.1097 1.90714 93.8286 2.17742C96.3765 3.14089 98.6401 4.45037 100.591 6.06392C100.794 5.94859 100.988 5.83209 101.174 5.72141C106.563 2.5712 112.614 0.90988 118.669 0.90988C123.457 0.90988 128.149 1.94558 132.243 3.90048C133.129 4.32455 133.644 4.58435 134.233 4.9024L135.264 5.43714C138.481 7.08448 141.252 9.19433 143.486 11.6467C147.07 10.4467 150.548 9.83975 153.867 9.83975C158.919 9.83975 163.645 11.2226 167.912 13.9395L168.929 14.5849C170.879 15.828 171.863 16.4489 173.38 17.5091C184.953 25.5197 191.225 34.3879 191.225 58.2696" fill="#FFC52F"/>
<path d="M169.106 23.6854C167.477 22.5588 166.528 21.9705 163.875 20.2754C158.716 16.9854 151.876 15.9019 142.545 20.0727C141.929 20.3476 141.35 20.6027 140.783 20.8579C138.707 16.6044 135.028 13.7536 131.842 12.1249C130.538 11.455 130.176 11.2383 129 10.6791C122.666 7.6489 113.508 7.21085 104.96 12.2065C103.24 13.2084 100.99 14.5423 99.0541 15.684C97.0793 12.3125 94.0352 10.2842 91.1785 9.20536C90.4947 8.95022 89.9692 8.75683 89.4893 8.58324C83.1783 6.28116 73.9491 7.50443 64.672 14.1951C53.6276 22.1767 45.5203 28.5307 34.9232 37.2054C15.5397 53.0683 11.4213 62.1823 19.2782 83.3716C23.5934 95.023 32.7551 118.805 38.0059 132.301C41.0163 140.037 44.1619 150.071 49.8425 159.757H49.846C50.3689 160.652 50.9103 161.535 51.47 162.407C51.6191 162.638 51.7776 162.864 51.9279 163.09C54.5096 167.006 57.5736 170.797 61.2632 174.313C61.5568 174.593 61.855 174.882 62.1544 175.157C62.3082 175.296 62.4433 175.441 62.5971 175.576L62.6111 175.561C74.1762 186.09 89.4939 192.492 106.691 192.492C138.236 192.492 163.808 166.914 163.808 135.379V135.316C163.808 105.206 139.401 80.7993 109.291 80.7993C92.9342 80.7993 76.4981 90.2546 66.8063 105.168C60.2938 89.2186 53.7674 73.2749 47.227 57.337C43.6527 48.6378 44.4717 44.2305 49.9334 39.1685C52.7224 36.5821 56.1138 33.9946 59.8803 31.4421C63.7283 28.8359 68.0704 30.3726 68.0704 35.4591V89.3342C76.8546 80.4661 87.631 74.6911 101.431 72.1432L101.219 27.6698C102.202 27.0628 103.121 26.4989 103.811 26.0993C107.332 24.057 109.851 26.3207 109.851 29.6014V71.0073C110.068 71.0073 110.29 70.998 110.506 70.998C121.725 70.9905 132.743 73.977 142.423 79.6494V33.2327C143.304 32.8762 144.133 32.5442 144.774 32.2891C148.301 30.8875 150.684 33.0743 150.684 36.2629C150.684 39.4516 150.44 85.471 150.44 85.471C163.396 96.1589 171.806 111.891 173.131 129.628C179.311 116.472 183.714 104.218 183.714 83.4963V58.2701C183.711 37.2648 178.948 30.4973 169.106 23.6854ZM108.795 103.178C126.978 103.178 141.718 117.923 141.718 136.102C141.718 154.281 126.977 169.025 108.795 169.025C90.6158 169.025 75.876 154.281 75.876 136.102C75.876 117.923 90.6147 103.178 108.795 103.178Z" fill="#12284B"/>
<path d="M83.8281 136.102C83.8281 130.129 85.9333 124.643 89.44 120.337C96.4197 129.643 96.4197 142.557 89.44 151.863C85.8057 147.415 83.8228 141.846 83.8281 136.102ZM93.8042 156.068C102.99 144.392 102.99 127.808 93.8089 116.132C98.1237 112.872 103.385 111.11 108.793 111.113C114.203 111.11 119.466 112.872 123.784 116.132C114.597 127.808 114.597 144.392 123.784 156.068C119.467 159.328 114.203 161.091 108.793 161.087C103.384 161.09 98.1208 159.328 93.8042 156.068ZM128.149 151.862C121.17 142.556 121.17 129.642 128.149 120.336C131.785 124.785 133.769 130.355 133.766 136.101C133.766 142.074 131.656 147.556 128.149 151.862Z" fill="white"/>
</svg>
