<svg width="200" height="200" viewBox="0 0 200 200" fill="none" xmlns="http://www.w3.org/2000/svg">
<g clip-path="url(#clip0_18_1235)">
<path d="M98.6722 0.0197492C99.2943 0.0197492 99.9608 -0.0246865 100.583 0.0197492C101.605 6.37405 103.293 12.7284 106.715 18.2828C108.492 21.2156 110.848 23.7484 113.469 25.9702C117.913 29.6584 123.378 31.8801 128.933 33.3021C131.021 33.8353 133.11 34.2352 135.243 34.5907C135.243 35.2128 135.287 35.8793 135.243 36.5014C128.888 37.5235 122.445 39.212 116.891 42.6336C111.958 45.6552 107.915 50.0543 105.338 55.2089C102.849 60.1857 101.516 65.6068 100.583 71.0724H98.6722C97.6502 64.8959 96.0505 58.6304 92.8067 53.2093C89.474 47.5659 84.2306 43.0779 78.2318 40.4562C73.7438 38.4566 68.9003 37.3013 64.0568 36.5014C63.879 35.9238 64.0123 35.2128 64.0123 34.5907C70.0556 33.6131 76.1433 32.0134 81.4756 28.9474C84.7638 27.0811 87.6521 24.5038 90.0961 21.6155C92.8955 18.2384 94.8507 14.2836 96.2282 10.1066C97.3835 6.81841 98.139 3.4413 98.6722 0.0197492Z" fill="#FA0026"/>
<path d="M44.0605 82.1363C44.5493 78.4481 44.8604 74.7599 45.1714 71.0273C53.3032 71.0718 61.4349 71.0273 69.5222 71.0273C71.1219 77.826 73.3437 84.4914 75.9654 90.9345C78.3205 96.7112 81.1199 102.31 83.8749 107.909C88.985 118.262 94.2284 128.572 99.5607 138.836C99.6051 138.836 99.694 138.836 99.7385 138.836C105.204 128.394 110.536 117.863 115.735 107.287C121.512 95.6892 127.022 83.7804 129.955 71.1162C132.177 71.0273 134.398 71.1162 136.665 71.0718C142.53 71.0718 148.44 71.0718 154.305 71.0718L154.394 71.1607C155.061 82.4473 156.972 93.6451 159.371 104.665C160.926 111.819 162.704 118.973 164.437 126.083C166.392 133.993 168.347 141.858 170.391 149.767C172.124 156.522 173.813 163.276 175.723 169.986C177.723 177.051 179.989 183.983 182.7 190.826C183.9 193.892 185.188 196.914 186.477 199.98C174.213 199.98 161.993 199.98 149.729 199.98C149.64 192.203 148.84 184.427 147.462 176.784C146.174 169.497 144.441 162.343 142.797 155.144C140.353 144.613 137.82 134.082 135.331 123.55C135.243 123.284 135.287 122.973 135.065 122.795C128.088 136.303 121.068 149.812 114.136 163.365C109.114 173.096 104.138 182.872 99.1164 192.648C98.4054 192.648 97.65 192.648 96.939 192.648C90.1404 179.406 83.3861 166.164 76.543 152.922C71.3885 142.924 66.1895 132.926 60.9905 122.884C60.9461 122.973 60.8572 123.195 60.8128 123.328C57.7023 136.481 54.5029 149.634 51.5257 162.787C49.4373 171.852 47.571 181.006 46.8156 190.293C46.5489 193.492 46.3712 196.736 46.3712 199.98C35.2623 200.024 24.1089 199.98 13 199.98C15.8439 193.359 18.4656 186.693 20.6874 179.85C24.2422 169.097 26.8639 158.121 29.7078 147.146C33.0405 133.993 36.3287 120.84 39.3948 107.642C41.1722 99.1551 42.9052 90.7124 44.0605 82.1363Z" fill="#091F40"/>
</g>
<defs>
<clipPath id="clip0_18_1235">
<rect width="200" height="200" fill="white"/>
</clipPath>
</defs>
</svg>
