<svg width="200" height="200" viewBox="0 0 200 200" fill="none" xmlns="http://www.w3.org/2000/svg">
<path d="M123.222 43C127.063 43 129.759 45.6379 129.759 49.3725C129.759 53.4546 126.565 56.6906 122.275 56.6906C118.483 56.6906 115.789 54.2013 115.789 50.4176C115.789 46.3846 118.833 43 123.222 43ZM49.4391 91.7362C50.735 85.365 50.735 82.3279 50.2366 78.096L62.8585 75.657C61.9601 79.4407 61.0629 83.8704 59.9652 89.3464C57.9198 99.5026 56.6731 105.127 55.9741 109.209C55.3747 112.297 55.3255 114.038 56.2239 115.184C56.9721 116.18 58.2693 116.478 59.516 116.18C61.9601 115.632 64.6049 112.545 66.6995 107.168L67.2988 104.481C68.0471 101.045 69.3442 95.2215 70.8407 87.5055C71.8881 82.2776 72.2376 78.1463 71.6887 73.9144L84.2601 71.5246C83.4627 74.86 82.5138 79.7391 81.5662 84.5176L77.5258 103.983C76.9769 106.969 76.9265 108.662 77.7757 109.757C78.5227 110.704 79.7201 110.952 80.9176 110.654C83.662 109.907 85.657 106.522 87.1535 102.887C89.5484 97.1128 91.3944 89.048 92.3421 84.0706C93.5395 77.7975 93.6884 74.1133 93.1408 69.7831L105.064 67.4928C104.765 70.0312 104.365 73.0179 103.966 75.4581C104.664 78.3956 109.154 78.0456 111.948 74.7605C114.343 72.0231 114.791 68.1891 114.193 65.701L126.315 63.3615C125.668 66.7461 124.869 70.5789 123.521 77.1L119.631 96.2163C118.882 99.801 119.132 101.245 119.78 102.091C120.329 102.788 121.277 103.285 122.773 102.938C124.769 102.538 126.914 100.797 129.009 97.561L133.6 76.3042C135.046 69.7328 135.395 65.8496 134.946 61.668L143.876 59.9253C143.975 61.1203 144.026 62.5141 143.975 64.0075C146.919 59.7768 150.162 57.4864 153.704 56.8392C156.946 56.2423 160.438 56.9387 162.833 59.5275C165.328 62.1666 166.176 66.347 164.978 72.421C164.08 77.0509 162.035 83.373 161.237 87.8039C160.888 89.8941 160.938 90.9896 161.486 91.6859C161.985 92.3343 162.783 92.4829 163.631 92.2349C165.277 91.7363 167.123 89.845 169.568 85.5639C174.408 77.0018 178.997 63.461 179.097 53.1549L191.668 50.716C190.92 52.6576 190.77 54.4002 190.77 55.5952C190.77 64.904 200 71.177 200 81.9791C200 94.0757 188.326 99.9005 177.051 97.0133L178.847 87.9525C184.485 90.3927 190.221 87.8531 190.221 81.6807C190.221 76.9011 186.63 72.3719 183.885 66.3973C181.84 73.2181 178.648 81.2828 175.356 87.3557C171.912 93.6778 167.723 99.0052 162.035 100.349C158.493 101.195 154.902 100.349 152.756 97.7599C150.961 95.5691 150.211 92.284 151.409 86.6581C152.507 81.4314 154.452 75.2591 155.201 71.2261C155.65 68.5378 155.45 67.1943 154.702 66.347C154.103 65.701 153.206 65.4517 152.108 65.701C149.264 66.2978 146.071 70.1319 143.526 76.7021L137.841 103.187L128.061 105.526C125.766 107.765 123.172 109.26 120.479 109.857C116.488 110.753 112.796 109.608 110.701 106.721C109.204 104.63 108.455 101.544 109.553 96.3157L112.796 80.7842C109.852 84.2192 105.562 85.6131 102.12 84.816C100.374 92.9312 98.5779 99.1047 96.2335 104.232C92.7408 111.798 87.9522 117.225 81.7163 118.966C77.0262 120.311 72.8357 119.116 70.1417 116.428C67.0995 121.456 63.208 123.995 59.3166 124.941C55.1753 125.936 50.7855 124.692 48.0915 121.555C45.3483 118.319 45.0985 113.839 45.9464 109.061C46.6947 104.63 48.3413 96.9629 49.4391 91.7362ZM43.7017 148.139C64.6541 135.494 98.669 125.599 135.495 116.777C148.689 113.616 162.693 110.294 175.055 107.269L173.959 112.843C124.969 125.438 89.9484 138.332 66.2515 157C59.5664 153.615 51.2347 150.23 43.7017 148.139ZM31.6791 54.0515C39.5616 54.0515 53.3798 55.3962 60.6137 55.3962C67.3985 55.3962 74.5328 54.2013 79.97 49.7212L76.6274 58.2834C73.3341 61.7675 67.049 63.6096 59.0668 64.4066C55.0264 64.8045 48.7413 65.0538 42.9534 65.3019C41.7055 70.9277 40.5585 76.5032 39.361 82.7762C37.6651 91.4378 35.5705 101.842 33.4747 112.993C31.5794 123.149 31.1807 127.579 31.3296 133.154C26.2407 135.295 19.9051 138.133 14.5172 141.12C18.4086 131.412 20.3051 123.497 22.5991 111.848C24.9448 100 27.0899 89.3968 28.7353 80.8346C29.7334 75.8056 30.5321 71.5245 31.4797 65.8496L30.8311 65.8999C18.3089 66.8455 11.6743 71.0775 8.58157 82.6263L0 73.4661C4.93997 58.2834 17.5607 54.0515 31.6791 54.0515Z" fill="#E31E34"/>
</svg>
