<svg width="200" height="200" viewBox="0 0 200 200" fill="none" xmlns="http://www.w3.org/2000/svg">
<path d="M109.102 166.465C104.331 166.465 99.6862 166.214 95.2919 165.711C94.7897 176.516 92.1532 186.944 88.3867 198.001H128.562C124.796 186.944 122.159 176.642 121.657 165.837C117.514 166.213 113.371 166.465 109.102 166.465Z" fill="#091F40"/>
<path d="M121.532 143.975C117.514 144.477 113.246 144.854 108.851 144.854C104.206 144.854 99.6862 144.603 95.5431 143.975C82.1094 142.09 71.1866 137.567 63.6536 131.536C55.6185 125.129 50.4709 116.711 50.4709 107.413C50.4709 98.1159 55.4929 89.6979 63.6536 83.2902C71.3121 77.2595 82.2349 72.6107 95.6687 70.8518V48.9902C70.1822 51.6287 51.4753 62.0569 33.2707 80.2748C25.7377 87.8133 17.0748 97.8646 6.77979 107.539C17.0748 117.088 25.7377 127.265 33.2707 134.803C51.3498 152.895 70.0566 163.324 95.4176 166.088C99.8118 166.59 104.457 166.842 109.228 166.842C113.497 166.842 117.765 166.59 121.783 166.213C159.699 162.695 186.315 143.347 193.472 119.224L164.846 119.098C157.69 131.536 142.499 141.211 121.532 143.975Z" fill="#E31E34"/>
<path d="M121.532 70.4748C142.499 73.2389 157.816 82.9133 164.721 95.7287L193.346 95.603C186.064 71.3543 159.448 52.0056 121.406 48.6133C121.532 55.7748 121.532 63.062 121.532 70.4748Z" fill="#E31E34"/>
<path d="M144.884 175.887L143.88 178.777H143.754L141.996 173.751H139.234V181.541H140.866V175.385L143.001 181.541H144.507L144.884 180.536L146.767 175.385H146.893V181.541H148.399V173.751H145.637L144.884 175.887ZM131.701 175.133H133.961V181.541H135.593V175.133H137.853V173.751H131.701V175.133ZM95.5432 70.6C95.5432 95.1 95.6687 120.354 95.5432 143.974C99.6863 144.603 104.206 144.854 108.851 144.854C113.246 144.854 117.514 144.603 121.532 143.974V41.7026C121.532 34.0385 121.657 28.1333 121.657 22.8564C146.014 24.1128 168.864 31.9026 189.203 45.4718L184.055 13.3077C162.838 5.76923 135.593 2 108.349 2C81.3561 2 54.1119 5.76923 32.8941 13.3077L27.7466 45.7231C48.0856 32.1538 71.0611 24.3641 95.2921 23.1077C95.4176 28.259 95.4176 34.2897 95.4176 41.9538C95.4176 51.2513 95.4176 60.6744 95.5432 70.3487V70.6Z" fill="#091F40"/>
</svg>
