<svg width="200" height="200" viewBox="0 0 200 200" fill="none" xmlns="http://www.w3.org/2000/svg">
<g clip-path="url(#clip0_18_1278)">
<path d="M118.965 58.4411L117.774 55.6631L116.28 58.1711L113.248 58.4111L115.142 60.6131L114.384 63.5642L117.134 62.3391L119.69 64.0422L119.497 61.0131L121.823 59.2141L118.965 58.4411ZM106.868 58.1401L105.698 56.5231L105.11 58.3571L103.185 58.9621L104.73 60.1021L104.667 62.1111L106.26 60.9271L108.155 61.6441L107.591 59.7141L108.826 58.2251L106.868 58.1401ZM141.128 75.6102L139.894 73.8412L139.231 75.7832L137.162 76.3692L138.886 77.6182L138.765 79.7883L140.543 78.5932L142.467 79.3742L141.918 77.3452L143.187 75.6292L141.128 75.6102ZM45.178 147.605C45.2569 147.539 45.3407 147.475 45.4196 147.408C45.4076 147.386 45.3757 147.333 45.3727 147.322C45.2768 147.288 44.9325 147.15 44.5292 146.997C44.7378 147.204 44.9624 147.399 45.178 147.605ZM134.315 61.8841L131.205 63.3141L128.108 61.5141L128.473 64.9092L125.768 67.2442L129.234 67.9062L130.576 71.2592L132.409 68.2082L135.851 68.0262L133.609 65.3652L134.315 61.8841ZM113.896 86.2643C110.225 84.5293 106.291 84.8953 105.112 86.6443C104.819 87.0793 104.462 87.6413 104.388 87.8693C104.312 88.1193 104.225 88.3703 104.149 88.6193C104.223 88.3893 104.311 88.1313 104.386 87.9013C104.453 87.6733 104.809 87.1113 105.103 86.6763C106.283 84.9193 110.216 84.5603 113.887 86.2963C117.57 88.0323 120.19 92.1213 119.163 94.8023L119.172 94.7923C120.212 92.1123 117.588 88.0103 113.896 86.2643ZM51.2364 122.527C53.8668 125.446 61.8058 116.211 60.1827 113.597C58.0364 110.894 48.8935 119.913 51.2364 122.527ZM43.6208 105.351C38.4219 110.517 29.9298 111.545 25.7801 107.044C20.6471 101.497 27.0239 91.8423 32.2807 82.6603C37.6632 73.2632 41.7361 64.9752 35.4002 63.7272C31.3154 62.9242 26.7015 68.1972 24.5353 72.1912C22.425 76.0752 19.8465 81.8033 20.4724 90.7453C20.4724 104.807 24.2987 117.958 30.8602 129.363L43.6208 105.351ZM46.0665 148.439C46.0445 148.398 46.0235 148.366 46.0026 148.332C45.9926 148.342 45.9826 148.344 45.9796 148.353C46.0046 148.385 46.0355 148.408 46.0665 148.439ZM152.867 110.492C151.459 108.519 145.98 113.012 145.677 115.744C150.054 115.571 153.995 112.067 152.867 110.492ZM125.573 116.724C129.418 116.224 133.274 113.012 132.626 111.545C131.722 109.484 126.405 113.196 125.573 116.724ZM153.509 31.002C153.108 31.448 152.674 31.958 152.229 32.49C153.356 32.881 155.579 33.659 156.694 34.041C155.661 32.9983 154.599 31.9848 153.509 31.002ZM165.843 113.532C164.935 114.402 163.929 115.183 162.985 115.834C162.963 118.775 159.933 118.893 159.778 118.74C159.257 119.307 159.658 121.779 162.266 121.909C166.602 122.127 166.536 116.409 165.962 114.291C165.89 114.042 165.868 113.783 165.843 113.532ZM113.117 112.588C112.565 111.352 109.291 111.817 107.299 112.61L105.273 115.765L104.462 117.057C108.914 117.416 114.069 114.705 113.117 112.588Z" fill="white"/>
<path d="M100.184 0C50.456 0 10 40.5273 10 90.3426C10 124.969 29.2472 155.967 60.2258 171.333L59.7936 172.166C58.3611 174.98 55.3624 180.837 54.451 181.265L52.753 181.793C51.9184 181.995 51.0609 182.204 50.2943 182.79C49.4797 183.421 48.2249 185.806 48.2249 187.038L48.161 187.457C48.0941 187.826 47.9973 188.34 47.9973 188.969C47.9973 190.971 48.9836 194.134 54.994 197.461L56.2079 198.105C64.3775 201.956 67.2355 198.931 68.3086 197.793L68.6121 197.498C69.6084 196.78 70.8093 194.358 70.8412 193.33L70.8422 193.208C70.8422 192.297 70.5178 191.514 70.2043 190.753L69.6423 189.062C69.6401 189.036 69.6391 189.009 69.6393 188.982C69.6393 187.84 72.7818 181.785 74.3101 178.84C74.3101 178.84 74.9809 177.545 75.1876 177.14C83.3137 179.489 91.7291 180.682 100.187 180.683C149.914 180.683 190.37 140.156 190.37 90.3405C190.367 40.5272 149.911 0 100.184 0ZM100.194 176.348C90.952 176.35 81.7708 174.855 73.0054 171.921C70.0486 177.727 67.4082 183.103 65.8909 186.625C64.8268 189.091 64.5702 190.214 65.6313 191.457C65.837 191.697 66.1624 192.298 66.2173 192.516C66.4429 193.362 65.4786 194.466 64.9705 194.795C63.9203 195.482 61.6563 195.656 57.5945 193.794C53.5316 191.929 52.5134 189.665 52.4485 188.406C52.4165 187.8 52.74 186.373 53.5535 186.055C53.7602 185.975 54.441 185.881 54.7554 185.911C56.3816 186.04 57.278 184.978 58.6436 182.661C60.5832 179.371 63.2994 174.559 66.1734 169.327C35.6919 156.152 14.3404 125.815 14.2555 90.4546C14.2555 90.5076 14.2445 90.5515 14.2445 90.6035L14.2535 90.2565L14.2555 90.4546C14.4172 82.4785 18.9762 76.0085 21.395 71.7874C24.3738 66.6034 33.7753 55.6863 42.4291 62.9994C53.27 72.1584 23.8207 100.328 31.3385 105.534C35.1289 108.151 41.7563 104.636 45.8391 100.806L58.4929 77.2145L65.6623 77.0105L34.7466 135.483C37.1873 138.949 39.8923 142.222 42.8374 145.27C42.8613 145.272 42.8843 145.259 42.9152 145.262L45.904 146.412C46.0082 146.455 46.096 146.53 46.1545 146.627L46.2294 146.738C46.9991 146.03 47.7138 145.261 48.4515 144.514C48.4425 144.511 48.4196 144.48 48.4186 144.479C46.8949 144.032 45.3716 143.585 43.8486 143.136C43.7834 143.117 43.7226 143.086 43.6697 143.043C43.6167 143.001 43.5728 142.948 43.5404 142.888C43.5079 142.829 43.4877 142.763 43.4808 142.696C43.4739 142.628 43.4805 142.56 43.5002 142.495C43.519 142.43 43.5505 142.369 43.5929 142.316C43.6353 142.263 43.6878 142.219 43.7474 142.186C43.8069 142.154 43.8722 142.134 43.9397 142.127C44.0071 142.12 44.0752 142.126 44.1401 142.146L48.8518 143.525C48.9476 143.555 49.0265 143.61 49.0914 143.677L49.1872 143.785C49.8162 143.137 50.4336 142.478 51.039 141.808C51.0115 141.775 50.9825 141.743 50.9521 141.713L45.7962 140.139C45.7309 140.12 45.67 140.089 45.6171 140.046C45.5642 140.003 45.5203 139.951 45.488 139.891C45.4557 139.831 45.4357 139.765 45.4292 139.698C45.4226 139.63 45.4296 139.562 45.4498 139.497C45.4696 139.432 45.5021 139.371 45.5454 139.318C45.5887 139.265 45.642 139.222 45.7022 139.189C45.7623 139.157 45.8282 139.137 45.8961 139.131C45.9639 139.124 46.0324 139.131 46.0976 139.151L51.3834 140.758C51.4702 140.788 51.5471 140.834 51.611 140.907L51.7098 141.008C52.6641 139.91 53.6154 138.803 54.5039 137.642C54.4699 137.589 54.407 137.512 54.3951 137.49C53.9638 137.447 49.1093 136.938 49.1093 136.938C48.9823 136.925 48.8643 136.866 48.7783 136.772C48.6924 136.677 48.6446 136.554 48.6442 136.426L48.6452 136.372C48.652 136.304 48.6723 136.237 48.7048 136.177C48.7373 136.117 48.7814 136.063 48.8346 136.02C48.8877 135.977 48.9489 135.945 49.0146 135.925C49.0802 135.906 49.1491 135.899 49.2172 135.907L54.7315 136.483C54.8045 136.491 54.8749 136.515 54.9384 136.552C55.0018 136.589 55.0568 136.639 55.0998 136.699L55.1328 136.752C55.8904 135.724 56.6471 134.702 57.3519 133.638C55.9553 133.475 52.2089 133.031 52.2089 133.031C52.0728 133.014 51.9488 132.945 51.8637 132.837C51.7787 132.729 51.7395 132.592 51.7547 132.456C51.772 132.32 51.8417 132.196 51.949 132.111C52.0563 132.026 52.1926 131.986 52.3287 132.001L57.9808 132.664C58.5867 131.719 59.1407 130.733 59.7038 129.756L55.3284 129.345C55.2606 129.339 55.1945 129.32 55.1341 129.288C55.0738 129.257 55.0203 129.214 54.9769 129.161C54.9334 129.109 54.9009 129.048 54.8812 128.982C54.8616 128.917 54.8551 128.849 54.8623 128.781C54.8757 128.644 54.9423 128.519 55.0478 128.431C55.1532 128.344 55.2889 128.302 55.4253 128.314L60.2887 128.769C60.3536 128.651 60.4285 128.543 60.4854 128.432C60.5043 128.412 60.4944 128.388 60.5143 128.368C60.5163 128.359 60.5273 128.367 60.5283 128.358C60.5932 128.238 60.6691 128.13 60.7339 128.011C60.7664 127.951 60.8104 127.898 60.8633 127.855C60.9163 127.812 60.9771 127.78 61.0424 127.761C61.1077 127.742 61.1762 127.736 61.2438 127.743C61.3115 127.75 61.377 127.771 61.4367 127.804C61.6863 127.935 61.7831 128.251 61.6443 128.5C61.6224 128.552 61.5904 128.595 61.5675 128.639L65.6084 132.364C65.659 132.41 65.7 132.466 65.729 132.528C65.7579 132.59 65.7743 132.657 65.7772 132.725C65.7801 132.794 65.7694 132.862 65.7457 132.926C65.7221 132.991 65.6859 133.05 65.6393 133.1C65.5454 133.201 65.4158 133.26 65.2783 133.266C65.1409 133.272 65.0066 133.223 64.9046 133.131L61.0264 129.551C60.3322 130.807 59.5991 132.042 58.8283 133.253L62.4449 137.841C62.4875 137.894 62.5192 137.955 62.5379 138.021C62.5567 138.086 62.5623 138.155 62.5543 138.222C62.5463 138.29 62.5249 138.355 62.4914 138.415C62.4579 138.474 62.4129 138.526 62.3591 138.568C62.2513 138.652 62.1145 138.691 61.9785 138.675C61.8425 138.659 61.7184 138.589 61.6334 138.482C61.6334 138.482 59.1936 135.38 58.2403 134.174C57.4527 135.366 56.6192 136.507 55.7727 137.645L58.7834 141.887C58.8571 141.999 58.8843 142.136 58.8593 142.268C58.8343 142.4 58.759 142.517 58.6494 142.595C58.5398 142.672 58.4043 142.704 58.2718 142.683C58.1392 142.663 58.0198 142.591 57.9388 142.484C57.9388 142.484 56.1839 140.01 55.1348 138.536C54.2773 139.653 53.3469 140.707 52.4255 141.77L55.5151 145.047C55.562 145.096 55.5987 145.154 55.6231 145.218C55.6476 145.281 55.6593 145.349 55.6577 145.417C55.656 145.485 55.641 145.552 55.6134 145.614C55.5859 145.677 55.5464 145.733 55.4971 145.78C55.4479 145.827 55.3899 145.864 55.3265 145.888C55.2631 145.913 55.1955 145.924 55.1276 145.923C55.0596 145.921 54.9927 145.906 54.9305 145.878C54.8684 145.851 54.8123 145.811 54.7654 145.762C54.7654 145.762 52.8707 143.754 51.7537 142.562C51.1395 143.243 50.5115 143.911 49.87 144.566L52.5433 147.595C52.5879 147.646 52.622 147.705 52.6437 147.77C52.6653 147.834 52.674 147.902 52.6692 147.97C52.6645 148.037 52.6464 148.103 52.6161 148.164C52.5857 148.225 52.5437 148.279 52.4924 148.323C52.4422 148.369 52.3833 148.404 52.3193 148.426C52.2553 148.449 52.1875 148.458 52.1198 148.454C52.0521 148.45 51.9859 148.432 51.9251 148.402C51.8643 148.372 51.8101 148.33 51.7657 148.279L49.1343 145.295C48.3736 146.065 47.6369 146.858 46.8363 147.595C46.8164 147.615 46.8054 147.626 46.7844 147.638L48.4525 150.309C48.5154 150.406 48.5154 150.514 48.5054 150.621C54.7455 155.973 61.7631 160.388 69.2929 163.641C73.776 155.397 78.1753 147.074 80.3934 142.561C81.5744 140.152 85.3447 132.753 89.6672 123.616C87.5209 125.265 83.1007 127.424 81.9657 125.665C79.6138 121.998 86.8082 116.182 85.4516 114.555C84.629 113.578 81.2499 116.127 78.4888 119.308C78.4888 119.308 76.9595 122.25 74.8691 125.96L69.9528 126.004C69.6573 125.775 76.2018 116.173 74.934 115.055C73.1252 113.472 62.5318 130.627 57.5495 126.99C57.1283 126.677 56.0102 125.406 57.5056 122.196C55.2755 125.146 49.859 127.533 47.575 125.549C42.6876 121.304 55.9693 107.049 61.3289 111.986C61.7502 112.375 61.8949 112.753 61.8699 113.048L62.5867 111.909L67.4302 111.865C65.23 117.801 60.6691 123.172 61.839 124.018C63.8754 125.491 75.5949 107.501 79.5809 111.419C80.8167 112.636 80.7308 114.231 80.4064 115.099C83.2334 112.148 89.2 109.305 91.1286 111.311C93.4775 113.751 86.339 120.945 87.9102 121.946C88.5511 122.358 90.1413 121.392 90.9878 120.816C94.3659 113.58 97.9306 105.538 100.814 98.0616C100.67 97.9966 94.5206 95.2956 88.7029 93.0256C81.9218 90.3706 74.915 83.0115 76.636 74.3735C78.6615 64.1964 91.6177 63.9914 97.4345 63.5464C99.0906 63.4244 100.154 63.9664 97.4345 64.2394C94.3669 64.5524 92.7228 64.6964 89.734 66.0834C96.9783 65.8464 110.041 68.3944 120.711 73.7355C128.522 77.6515 137.026 83.9975 141.91 88.9905C144.39 91.5286 145.278 91.9716 143.405 88.4145C143.047 87.7405 142.645 87.0915 141.8 86.0035C140.609 84.4535 138.898 81.9365 142.484 85.3105C146.166 88.7615 150.846 97.5716 148.549 108.391C148.549 108.391 148.507 108.977 148.44 109.271C148.376 109.356 146.219 110.236 145.42 110.8C146.534 108.465 147.444 105.514 147.432 102.237C147.085 96.8686 146.165 95.1736 140.922 90.1056C136.342 85.6795 127.036 78.8995 120.074 75.4045C104.021 67.3414 79.8544 63.0994 78.2412 75.9795C77.2749 83.7465 84.6759 89.4545 88.8206 91.0626C91.9971 92.3086 98.0085 94.2856 101.46 96.1296L100.919 97.7896C101.65 95.8987 102.351 93.9961 103.021 92.0826C103.239 91.4406 103.423 90.8346 103.629 90.2066C103.433 90.7906 103.236 91.3666 103.022 91.9756C97.2039 88.0885 93.7829 83.9025 95.3642 80.8845C98.299 75.2765 107.462 76.2205 117.036 80.9295C126.603 85.6375 133.079 92.7876 130.372 97.9316C128.768 100.981 123.286 100.918 116.593 98.6816C116.582 98.7016 116.572 98.7126 116.56 98.7326C106.974 112.082 92.4053 136.258 86.9369 145.817C84.4992 150.089 80.1768 158.078 75.9732 166.16C83.6767 168.687 91.7984 170.035 100.075 169.968C123.211 169.766 144.018 160.321 158.619 144.905L155.422 147.098C155.366 147.137 155.302 147.164 155.236 147.179C155.169 147.193 155.1 147.194 155.033 147.182C154.966 147.17 154.902 147.144 154.845 147.107C154.787 147.07 154.738 147.022 154.699 146.966C154.623 146.851 154.595 146.711 154.621 146.576C154.646 146.44 154.723 146.32 154.836 146.241L158.218 143.927C157.473 143.418 156.754 142.872 156.064 142.291L151.275 145.491C151.219 145.529 151.156 145.556 151.089 145.569C151.023 145.583 150.954 145.583 150.887 145.57C150.821 145.557 150.758 145.53 150.701 145.492C150.645 145.454 150.597 145.406 150.559 145.349C150.521 145.293 150.494 145.23 150.48 145.163C150.467 145.096 150.466 145.028 150.48 144.961C150.493 144.894 150.519 144.831 150.557 144.775C150.595 144.718 150.644 144.67 150.701 144.633C150.701 144.633 154.534 142.072 155.262 141.597C154.855 141.241 154.454 140.879 154.059 140.509C153.991 140.52 153.922 140.517 153.855 140.501C153.788 140.484 153.726 140.454 153.671 140.413C153.53 140.314 153.485 140.153 153.486 139.989C153.443 140.074 153.409 140.161 153.322 140.208L148.264 143.202C148.207 143.237 148.142 143.26 148.076 143.27C148.009 143.281 147.941 143.277 147.875 143.261C147.81 143.245 147.748 143.216 147.694 143.175C147.64 143.135 147.594 143.084 147.56 143.026C147.489 142.908 147.468 142.766 147.501 142.633C147.534 142.499 147.618 142.384 147.735 142.312L152.793 139.318L152.815 139.317C152.326 138.828 151.828 138.32 151.331 137.8L145.458 140.468C145.332 140.525 145.189 140.529 145.06 140.481C144.931 140.432 144.826 140.334 144.768 140.209C144.713 140.084 144.71 139.942 144.758 139.814C144.806 139.686 144.903 139.582 145.027 139.525C145.027 139.525 149.381 137.55 150.612 137.029C149.931 136.302 149.26 135.564 148.601 134.817C148.541 134.889 148.462 134.941 148.373 134.968L142.859 136.582C142.793 136.601 142.725 136.607 142.657 136.599C142.59 136.591 142.524 136.57 142.465 136.537C142.405 136.504 142.353 136.459 142.311 136.406C142.269 136.353 142.237 136.291 142.219 136.226C142.2 136.161 142.193 136.093 142.2 136.026C142.207 135.958 142.228 135.893 142.26 135.834C142.292 135.774 142.336 135.722 142.388 135.679C142.441 135.637 142.501 135.605 142.566 135.586L147.907 134.024C147.199 133.204 146.502 132.376 145.816 131.539L139.054 131.767C138.986 131.77 138.918 131.759 138.854 131.735C138.79 131.711 138.732 131.675 138.681 131.629C138.631 131.583 138.591 131.527 138.562 131.465C138.534 131.403 138.518 131.336 138.515 131.267C138.512 131.199 138.523 131.131 138.547 131.067C138.57 131.003 138.606 130.944 138.652 130.894C138.699 130.843 138.755 130.803 138.816 130.774C138.878 130.746 138.945 130.729 139.014 130.727L145.003 130.53C144.001 129.276 143.03 127.999 142.089 126.699L137.054 127.612C136.98 127.626 136.903 127.623 136.83 127.604C136.756 127.584 136.688 127.549 136.63 127.5C136.572 127.451 136.526 127.39 136.494 127.322C136.462 127.253 136.446 127.178 136.447 127.102C136.448 126.98 136.491 126.861 136.57 126.768C136.649 126.675 136.758 126.612 136.878 126.592C136.878 126.592 140.323 125.963 141.439 125.765C140.913 125.012 140.419 124.237 139.958 123.443C139.901 123.323 139.892 123.186 139.933 123.06C139.973 122.934 140.06 122.828 140.175 122.763C140.291 122.699 140.426 122.681 140.555 122.713C140.683 122.745 140.794 122.825 140.866 122.936C141.192 123.532 141.688 124.302 142.286 125.181C142.803 124.67 143.497 123.975 143.497 123.975C143.544 123.926 143.601 123.887 143.663 123.861C143.726 123.835 143.793 123.821 143.861 123.821C143.928 123.821 143.995 123.835 144.058 123.861C144.12 123.887 144.177 123.926 144.224 123.975C144.273 124.022 144.311 124.079 144.338 124.141C144.364 124.204 144.378 124.271 144.378 124.339C144.378 124.407 144.364 124.474 144.338 124.536C144.311 124.599 144.273 124.655 144.224 124.703L142.891 126.047C143.733 127.222 144.603 128.376 145.501 129.509L148.533 126.068C148.577 126.016 148.631 125.974 148.692 125.944C148.753 125.914 148.819 125.896 148.887 125.892C148.955 125.888 149.023 125.897 149.087 125.92C149.151 125.943 149.209 125.978 149.26 126.024C149.311 126.068 149.353 126.123 149.383 126.183C149.413 126.244 149.43 126.311 149.434 126.379C149.439 126.446 149.429 126.514 149.407 126.578C149.384 126.642 149.349 126.701 149.303 126.752L146.153 130.332C146.922 131.287 147.734 132.264 148.58 133.242C149.618 132.014 151.513 129.759 151.513 129.759C151.601 129.655 151.727 129.59 151.863 129.579C151.999 129.567 152.134 129.608 152.239 129.695C152.344 129.784 152.41 129.912 152.422 130.05C152.434 130.187 152.391 130.324 152.303 130.431L149.27 134.043C149.957 134.826 150.658 135.598 151.372 136.357C152.27 135.247 154.264 132.763 154.264 132.763C154.306 132.709 154.359 132.665 154.418 132.632C154.478 132.599 154.543 132.579 154.611 132.572C154.679 132.565 154.747 132.571 154.812 132.591C154.878 132.611 154.938 132.643 154.99 132.687C155.043 132.729 155.087 132.782 155.119 132.842C155.152 132.902 155.172 132.967 155.179 133.035C155.186 133.102 155.18 133.17 155.16 133.235C155.141 133.301 155.109 133.361 155.066 133.414C155.066 133.414 153.042 135.931 152.066 137.104C152.701 137.77 153.351 138.422 154.015 139.059L157.233 134.629C157.313 134.517 157.435 134.442 157.571 134.42C157.706 134.398 157.845 134.43 157.957 134.511C158.186 134.675 158.239 135.001 158.068 135.237L154.772 139.784C155.165 140.162 155.563 140.511 155.954 140.849L158.631 137.593C158.72 137.487 158.847 137.421 158.984 137.408C159.122 137.395 159.258 137.438 159.365 137.526C159.582 137.71 159.614 138.036 159.432 138.254C159.432 138.254 157.7 140.359 156.735 141.52C157.491 142.156 158.283 142.747 159.108 143.289L160.636 140.228C160.666 140.166 160.708 140.111 160.76 140.066C160.812 140.02 160.872 139.986 160.937 139.964C161.003 139.942 161.072 139.933 161.14 139.938C161.209 139.943 161.276 139.961 161.337 139.992C161.459 140.054 161.551 140.162 161.594 140.292C161.637 140.422 161.627 140.564 161.566 140.687L160.374 143.073C167.129 135.471 172.317 126.606 175.638 116.988C175.638 116.988 182.017 111.332 184.432 107.526C184.432 107.526 184.063 109.219 183.717 110.606C174.597 148.329 140.661 176.348 100.194 176.348ZM66.0296 124.449C66.0751 124.399 66.1301 124.358 66.1913 124.329C66.2525 124.3 66.3188 124.284 66.3865 124.28C66.4541 124.277 66.5216 124.287 66.5853 124.31C66.6489 124.334 66.7074 124.369 66.7574 124.415L69.1721 126.606C69.2221 126.651 69.2626 126.706 69.2914 126.768C69.3202 126.829 69.3366 126.895 69.3397 126.963C69.3429 127.03 69.3327 127.098 69.3098 127.162C69.2868 127.225 69.2516 127.284 69.2061 127.334C69.161 127.385 69.1062 127.426 69.0449 127.455C68.9837 127.484 68.9172 127.501 68.8494 127.504C68.7816 127.507 68.7138 127.497 68.6501 127.474C68.5864 127.45 68.528 127.414 68.4783 127.368L66.0636 125.186C66.0127 125.14 65.9715 125.084 65.9422 125.022C65.913 124.96 65.8963 124.893 65.8931 124.824C65.89 124.756 65.9004 124.687 65.9238 124.623C65.9473 124.558 65.9832 124.499 66.0296 124.449ZM69.9298 120.032C69.9662 119.974 70.0137 119.924 70.0695 119.885C70.1254 119.846 70.1885 119.819 70.255 119.805C70.3216 119.79 70.3904 119.79 70.4573 119.802C70.5242 119.815 70.5878 119.841 70.6445 119.879L71.7835 120.608C71.8988 120.682 71.9802 120.799 72.0103 120.933C72.0404 121.067 72.0167 121.207 71.9443 121.324C71.8699 121.439 71.7534 121.52 71.6197 121.551C71.4861 121.581 71.346 121.557 71.2295 121.485L70.0825 120.748C70.0251 120.711 69.9755 120.664 69.9366 120.608C69.8978 120.552 69.8704 120.488 69.8562 120.422C69.842 120.355 69.8412 120.286 69.8538 120.219C69.8664 120.152 69.8923 120.089 69.9298 120.032ZM67.7736 117.839C67.8257 117.882 67.8689 117.935 67.9005 117.995C67.9321 118.055 67.9517 118.121 67.958 118.188C67.9643 118.256 67.9572 118.324 67.9372 118.389C67.9172 118.453 67.8847 118.514 67.8415 118.566C67.7544 118.671 67.6297 118.738 67.4941 118.752C67.3584 118.766 67.2227 118.727 67.1157 118.642L65.849 117.602C65.7438 117.514 65.6776 117.388 65.6649 117.252C65.6522 117.115 65.694 116.979 65.7811 116.874C65.8237 116.821 65.8763 116.777 65.9359 116.745C65.9955 116.712 66.0609 116.692 66.1284 116.685C66.1958 116.678 66.264 116.684 66.3289 116.704C66.3939 116.723 66.4543 116.756 66.5068 116.799L67.7736 117.839ZM100.781 56.8353C106.011 53.2103 118.661 50.0883 129.972 56.2053C138.312 60.7004 144.336 68.1204 146.066 78.9395L139.742 82.5635C133.765 75.7715 128.367 71.7444 124.229 69.6724C120.092 67.6004 110.44 63.4554 101.245 62.9904L100.781 56.8353ZM128.064 110.091C127.577 110.266 126.362 110.917 125.42 111.513C123.525 109.353 116.854 104.722 113.29 103.484C113.236 103.464 114.19 102.205 114.19 102.205C117.871 103.702 126.624 108.791 128.008 110.059L128.064 110.091ZM135.765 122.776C135.758 122.708 135.764 122.639 135.783 122.574C135.803 122.508 135.835 122.447 135.878 122.395C135.922 122.342 135.975 122.298 136.036 122.267C136.096 122.235 136.162 122.216 136.23 122.211L138.527 121.975C138.664 121.963 138.799 122.006 138.904 122.093C139.01 122.18 139.077 122.305 139.091 122.441C139.099 122.509 139.093 122.577 139.073 122.643C139.054 122.708 139.022 122.769 138.978 122.822C138.935 122.875 138.881 122.918 138.821 122.95C138.76 122.981 138.694 123 138.626 123.006L136.329 123.235C136.262 123.242 136.194 123.236 136.13 123.216C136.065 123.197 136.005 123.165 135.952 123.122C135.9 123.08 135.856 123.027 135.824 122.968C135.792 122.908 135.772 122.843 135.765 122.776ZM155.372 128.168V127.356H159.023V128.168H157.659V131.891H156.736V128.168H155.372ZM164.266 128.288L162.962 131.891H162.066L160.798 128.288H160.777V131.891H159.855V127.356H161.457L162.508 130.318H162.53L163.625 127.356H165.217V131.891H164.287V128.288H164.266ZM171.141 119.369C170.933 120.097 170.632 120.814 170.135 121.487C168.23 124.068 164.979 124.415 162.273 123.959C160.548 123.658 158.611 122.508 157.81 121.214C157.513 120.724 157.28 120.199 157.116 119.651C150.291 123.762 141.821 124.882 139.751 120.854C139.486 120.337 139.32 119.774 139.263 119.196C131.681 124.652 121.696 126.356 119.574 121.702C119.326 121.151 119.19 120.557 119.172 119.953L118.975 120.779C114.101 125.207 108.859 126.866 107.135 125.542C104.255 123.339 106.877 120.475 105.415 119.238C105.014 118.902 104.343 118.816 103.249 118.9L105.273 115.764L107.212 112.641C107.235 112.63 107.268 112.62 107.299 112.609L108.913 110.101C111.955 108.539 116.916 107.703 117.751 110.547C118.912 114.528 113.367 117.969 109.521 118.607C112.446 119.141 109.553 122.406 112.552 122.797C113.853 122.97 117.589 120.311 119.657 117.566C122.4 111.123 135.905 105.457 137.792 110.296C139.426 114.464 131.692 118.197 125.324 118.26C125.054 118.261 125.149 118.187 125.119 118.261C124.565 119.878 125.355 121.647 128.336 121.624C131.229 121.594 135.485 120.41 139.58 116.915C141.951 110.534 155.834 105.154 157.105 109.647C158.221 113.585 151.331 116.949 145.493 117.404C145.232 117.426 145.319 117.338 145.296 117.405C144.735 119.022 145.525 120.8 148.514 120.768C150.962 120.746 153.608 119.747 156.908 117.914C157.137 114.745 160.723 113.001 162.41 114.55C163.611 113.695 164.872 112.641 165.855 111.49C165.918 110.942 165.995 110.396 166.085 109.852C166.659 106.349 171.185 102.704 172.788 103.852C173.882 104.635 173.278 107.239 170.319 109.79C169.766 110.332 169.399 110.419 170.201 112.077C170.591 112.879 171.088 114.193 171.325 115.681C176.58 111.805 179.461 105.372 179.972 90.5485L179.927 90.4846C179.927 68.9454 171.424 49.4043 157.614 35.0052C157.494 35.2112 157.263 35.3312 157.028 35.2532L151.516 33.3422C150.918 34.0792 150.323 34.8192 149.771 35.5142C151.06 36.1322 153.972 37.5202 153.972 37.5202C154.034 37.5494 154.089 37.5906 154.135 37.6414C154.18 37.6922 154.215 37.7516 154.238 37.8162C154.26 37.8807 154.269 37.949 154.265 38.0172C154.261 38.0854 154.243 38.152 154.213 38.2132C154.153 38.3351 154.047 38.4285 153.919 38.4736C153.792 38.5186 153.651 38.5117 153.528 38.4542C153.528 38.4542 150.411 36.9682 149.122 36.3382C148.711 36.8592 148.341 37.3362 148.06 37.6962C157.721 44.6933 164.46 55.6073 165.705 67.8604C165.695 67.9884 151.155 76.2675 147.169 78.5355C147.003 77.4542 146.78 76.3824 146.501 75.3245L162.466 64.9934C162.618 63.8334 161.676 59.8724 161.348 59.2224L144.896 70.6274C143.805 68.1451 142.399 65.8136 140.714 63.6904L156.672 49.6513C154.366 46.0253 152.014 43.5303 149.056 40.9472L135.385 58.3854C132.479 56.1014 129.199 54.3428 125.69 53.1883L133.404 33.0932C129.667 31.8872 125.42 31.4222 121.165 31.8242L117.862 51.7143C117.211 51.6793 116.561 51.6153 115.899 51.6153C113.735 51.6153 111.63 51.8413 109.585 52.2543L109.963 34.1872C108.209 34.8172 105.936 35.9122 104.269 37.2362L104.591 53.7493C103.27 54.2423 101.986 54.8264 100.746 55.4973C100.455 50.8973 99.6197 37.3982 99.7165 37.3252C106.743 32.3347 115.148 29.6605 123.761 29.6742C132.386 29.6742 140.465 32.4532 147.214 37.1052C147.506 36.7272 147.865 36.2602 148.264 35.7592L144.183 31.6712C144.089 31.5737 144.035 31.4429 144.035 31.3067C144.035 31.1705 144.089 31.0397 144.183 30.9422C144.232 30.8938 144.289 30.8554 144.352 30.8292C144.415 30.8031 144.483 30.7896 144.551 30.7896C144.619 30.7896 144.687 30.8031 144.75 30.8292C144.813 30.8554 144.87 30.8938 144.918 30.9422C144.918 30.9422 148.006 34.0352 148.894 34.9482C149.445 34.2532 150.042 33.5052 150.647 32.7752L147.581 28.3812C147.539 28.3257 147.508 28.2623 147.491 28.1946C147.474 28.127 147.47 28.0565 147.481 27.9875C147.491 27.9185 147.516 27.8523 147.552 27.7929C147.589 27.7336 147.638 27.6823 147.695 27.6421C147.752 27.602 147.816 27.5738 147.884 27.5593C147.953 27.5448 148.023 27.5443 148.091 27.5577C148.16 27.5712 148.225 27.5983 148.283 27.6376C148.34 27.6769 148.389 27.7274 148.427 27.7862C148.427 27.7862 150.618 30.9312 151.331 31.9422C151.788 31.3948 152.254 30.8547 152.728 30.3222C138.646 17.9121 120.189 10.3791 99.9651 10.3791C77.816 10.3791 57.7771 19.3981 43.2956 33.9702C43.5541 34.1772 43.8037 34.3932 44.0532 34.6092L49.9119 32.4392C49.9753 32.4156 50.0427 32.4048 50.1103 32.4073C50.1778 32.4098 50.2443 32.4257 50.3057 32.4539C50.3672 32.4821 50.4225 32.5222 50.4685 32.5718C50.5145 32.6215 50.5502 32.6797 50.5738 32.7432C50.5973 32.8067 50.6081 32.8742 50.6056 32.9419C50.6031 33.0096 50.5873 33.0761 50.5591 33.1377C50.5309 33.1992 50.4909 33.2546 50.4414 33.3007C50.3918 33.3468 50.3337 33.3826 50.2703 33.4062L44.9616 35.3792C45.8181 36.1292 46.6427 36.9102 47.4642 37.7012L52.8927 35.6602C53.0217 35.6118 53.1645 35.6165 53.29 35.6733C53.4155 35.7301 53.5135 35.8343 53.5625 35.9632C53.5866 36.0267 53.5979 36.0943 53.5957 36.1622C53.5935 36.23 53.5779 36.2967 53.5498 36.3585C53.5216 36.4203 53.4815 36.4758 53.4318 36.522C53.3821 36.5681 53.3237 36.6039 53.2601 36.6272L48.2988 38.4922C48.7011 38.8932 49.0894 39.3152 49.4807 39.7182L54.992 37.9502C55.1193 37.92 55.2534 37.9391 55.3673 38.0036C55.4812 38.0681 55.5665 38.1734 55.6063 38.2983C55.646 38.4232 55.6372 38.5585 55.5816 38.6771C55.526 38.7958 55.4278 38.8891 55.3065 38.9382L50.2713 40.5602C50.8663 41.1913 51.4522 41.8303 52.0242 42.4813L58.97 41.3953C59.0374 41.3844 59.1063 41.3871 59.1727 41.403C59.2391 41.4189 59.3017 41.4478 59.3569 41.4881C59.4121 41.5283 59.4588 41.5791 59.4943 41.6375C59.5299 41.6958 59.5535 41.7607 59.564 41.8283C59.5839 41.9645 59.5499 42.1031 59.4691 42.2145C59.3883 42.3259 59.2672 42.4012 59.1318 42.4243L52.8039 43.4123C53.3789 44.0963 53.9628 44.7803 54.5149 45.4843L61.3848 44.4983C61.4519 44.4872 61.5204 44.4898 61.5865 44.5059C61.6525 44.5219 61.7147 44.5511 61.7693 44.5917C61.8238 44.6322 61.8697 44.6834 61.9041 44.7421C61.9386 44.8008 61.9609 44.8658 61.9698 44.9333C61.9805 45.001 61.9778 45.0701 61.9617 45.1367C61.9456 45.2033 61.9165 45.2661 61.876 45.3213C61.8355 45.3766 61.7845 45.4232 61.7259 45.4586C61.6673 45.4939 61.6022 45.5173 61.5345 45.5273L55.2206 46.4283C56.2279 47.7472 57.1888 49.1011 58.1016 50.4873L66.0197 49.7943C66.157 49.7837 66.2929 49.8278 66.3981 49.9169C66.5033 50.0059 66.5692 50.1329 66.5817 50.2703C66.5874 50.338 66.5796 50.4062 66.5588 50.4709C66.538 50.5356 66.5046 50.5955 66.4605 50.6472C66.4163 50.6988 66.3624 50.7411 66.3018 50.7717C66.2412 50.8023 66.1752 50.8205 66.1075 50.8253L58.7614 51.4653C59.662 52.8732 60.518 54.3092 61.3279 55.7713L69.0404 55.5533C69.1082 55.5509 69.1758 55.562 69.2393 55.586C69.3027 55.6099 69.3609 55.6462 69.4103 55.6928C69.4596 55.7394 69.4993 55.7954 69.527 55.8574C69.5546 55.9195 69.5698 55.9864 69.5714 56.0543V56.0663C69.5714 56.3473 69.3458 56.5763 69.0643 56.5863C69.0643 56.5863 63.7037 56.7383 61.85 56.7923C62.56 58.131 63.2278 59.4917 63.8525 60.8724L71.1527 61.3074C71.4352 61.3274 71.6518 61.5674 71.6398 61.8594C71.6296 61.996 71.566 62.123 71.4628 62.2128C71.3596 62.3027 71.2252 62.3482 71.0888 62.3394C71.0888 62.3394 66.2033 62.0464 64.3296 61.9364C65.0673 63.6384 65.7711 65.3544 66.387 67.1104L74.1544 67.7534C74.4369 67.7754 74.6525 68.0334 74.6226 68.3164C74.6177 68.3839 74.5994 68.4497 74.5687 68.51C74.5381 68.5703 74.4957 68.6238 74.444 68.6674C74.3924 68.711 74.3326 68.7439 74.2681 68.7639C74.2036 68.784 74.1357 68.791 74.0685 68.7844L66.7344 68.1754C67.3125 69.9213 67.8266 71.6879 68.2757 73.4715L75.509 75.3685C75.6399 75.4053 75.7514 75.4915 75.8201 75.609C75.8888 75.7265 75.9093 75.8661 75.8774 75.9985C75.8602 76.0649 75.8301 76.1272 75.7886 76.1818C75.7472 76.2365 75.6954 76.2823 75.6361 76.3166C75.5768 76.351 75.5113 76.3731 75.4434 76.3819C75.3755 76.3906 75.3065 76.3857 75.2405 76.3675L68.5772 74.6215C69.0243 76.5163 69.4003 78.4273 69.7042 80.3505C69.765 80.4586 69.7838 80.5853 69.7571 80.7065L69.7581 80.7405L76.4633 83.0945C76.5927 83.1408 76.6989 83.236 76.7592 83.3597C76.8194 83.4834 76.829 83.6258 76.7858 83.7565C76.7633 83.8207 76.7283 83.8799 76.683 83.9306C76.6376 83.9812 76.5827 84.0224 76.5214 84.0518C76.4601 84.0812 76.3936 84.0981 76.3257 84.1017C76.2578 84.1052 76.1899 84.0953 76.1259 84.0725L69.9208 81.9015C70.2562 84.3325 70.4738 86.7855 70.5717 89.2685L77.762 92.3196C77.8241 92.3459 77.8804 92.3842 77.9277 92.4323C77.9751 92.4804 78.0124 92.5374 78.0377 92.6C78.063 92.6626 78.0758 92.7296 78.0752 92.7971C78.0747 92.8646 78.0609 92.9314 78.0346 92.9936C78.0093 93.0568 77.9717 93.1143 77.9239 93.1627C77.8762 93.2111 77.8193 93.2495 77.7565 93.2756C77.6937 93.3017 77.6264 93.3149 77.5584 93.3146C77.4905 93.3142 77.4232 93.3003 77.3607 93.2736L70.6036 90.3996C70.6236 91.0486 70.6585 91.6896 70.6585 92.3316C70.6585 94.0446 70.5946 95.6946 70.4938 97.3226L77.1781 100.033C77.2409 100.058 77.2982 100.096 77.3465 100.143C77.3948 100.191 77.4332 100.247 77.4595 100.31C77.4859 100.373 77.4996 100.44 77.5 100.508C77.5003 100.576 77.4873 100.643 77.4616 100.706C77.4361 100.768 77.3986 100.826 77.351 100.874C77.3035 100.922 77.2469 100.961 77.1845 100.987C77.1221 101.014 77.0551 101.027 76.9874 101.028C76.9196 101.028 76.8525 101.015 76.7898 100.99L70.397 98.4066C70.2187 100.614 69.9372 102.812 69.5535 104.993L76.3785 107.859C76.647 107.968 76.7678 108.272 76.659 108.541C76.6045 108.667 76.5024 108.767 76.3749 108.818C76.2474 108.869 76.1048 108.868 75.9782 108.815C75.9782 108.815 70.7564 106.622 69.3788 106.038C69.1124 107.4 68.8128 108.756 68.4803 110.104L71.7965 112.894C71.8912 112.985 71.9479 113.108 71.9552 113.239C71.9624 113.37 71.9197 113.499 71.8356 113.6C71.7515 113.701 71.6323 113.766 71.5022 113.782C71.3721 113.798 71.2407 113.764 71.1347 113.687L67.5719 110.692C67.549 110.672 67.55 110.638 67.529 110.615C67.4874 110.565 67.4577 110.506 67.4422 110.443C67.4191 110.384 67.4109 110.32 67.4182 110.257C67.4182 110.225 67.3962 110.202 67.4062 110.17C67.7426 108.825 68.0231 107.521 68.2747 106.221C66.5288 106.936 62.4679 108.587 62.4679 108.587C62.3413 108.638 62.1996 108.637 62.0738 108.584C61.9479 108.531 61.8481 108.43 61.7961 108.304C61.7452 108.177 61.7463 108.035 61.7992 107.909C61.852 107.782 61.9524 107.682 62.0786 107.63L68.5013 105.014C68.8906 102.867 69.1522 100.742 69.3348 98.6026C67.8934 99.5676 64.2867 101.978 64.2867 101.978C64.1713 102.053 64.0312 102.08 63.8961 102.054C63.7609 102.027 63.6414 101.949 63.563 101.836C63.489 101.719 63.4631 101.578 63.4909 101.443C63.5186 101.308 63.5978 101.188 63.7117 101.111L69.4546 97.2786C69.5624 95.6626 69.6263 94.0246 69.6263 92.3326C69.6263 91.7356 69.5854 91.1486 69.5734 90.5506L64.2009 94.8146C64.1475 94.8567 64.0864 94.8878 64.021 94.9062C63.9557 94.9247 63.8873 94.93 63.8199 94.922C63.7524 94.914 63.6872 94.8927 63.628 94.8594C63.5688 94.8262 63.5166 94.7815 63.4746 94.7281C63.4326 94.6746 63.4015 94.6134 63.3831 94.5479C63.3647 94.4824 63.3594 94.414 63.3674 94.3464C63.3754 94.2789 63.3966 94.2135 63.4299 94.1542C63.4631 94.0949 63.5076 94.0427 63.561 94.0006L69.5395 89.2575C69.4337 86.7456 69.2058 84.2403 68.8567 81.7505L64.2438 86.3705C64.1955 86.4184 64.1384 86.4563 64.0755 86.482C64.0126 86.5077 63.9454 86.5208 63.8774 86.5205C63.8096 86.5202 63.7424 86.5064 63.6798 86.4801C63.6172 86.4538 63.5603 86.4154 63.5126 86.367C63.4648 86.3187 63.427 86.2614 63.4013 86.1985C63.3756 86.1355 63.3625 86.0681 63.3629 86.0001C63.3632 85.932 63.3769 85.8647 63.4032 85.802C63.4295 85.7393 63.4678 85.6824 63.5161 85.6345L68.673 80.4695C68.3639 78.5277 67.9803 76.5986 67.523 74.6865L65.9658 76.2385C65.9175 76.2863 65.8603 76.3242 65.7975 76.3499C65.7346 76.3757 65.6673 76.3887 65.5994 76.3884C65.5315 76.3881 65.4644 76.3744 65.4017 76.348C65.3391 76.3217 65.2823 76.2833 65.2345 76.235C65.1868 76.1866 65.1489 76.1294 65.1233 76.0664C65.0976 76.0034 65.0845 75.936 65.0849 75.868C65.0852 75.8 65.0989 75.7327 65.1252 75.67C65.1514 75.6072 65.1898 75.5503 65.238 75.5025L67.2196 73.5174C66.7775 71.8046 66.2788 70.107 65.7242 68.4274L60.9156 73.2454C60.8674 73.2938 60.8101 73.3322 60.7471 73.3584C60.6841 73.3846 60.6165 73.398 60.5483 73.398C60.48 73.398 60.4125 73.3846 60.3494 73.3584C60.2864 73.3322 60.2291 73.2938 60.1809 73.2454C60.1322 73.1973 60.0936 73.1399 60.0672 73.0766C60.0408 73.0134 60.0272 72.9455 60.0272 72.8769C60.0272 72.8084 60.0408 72.7405 60.0672 72.6773C60.0936 72.614 60.1322 72.5566 60.1809 72.5084L65.3588 67.3294C64.7393 65.5945 64.0564 63.883 63.3114 62.1984L58.7285 66.6904C58.6293 66.7858 58.4966 66.8383 58.3591 66.8364C58.2216 66.8345 58.0903 66.7785 57.9938 66.6804C57.9467 66.6319 57.9096 66.5746 57.8846 66.5118C57.8597 66.4489 57.8474 66.3818 57.8484 66.3141C57.8494 66.2465 57.8637 66.1797 57.8906 66.1177C57.9174 66.0556 57.9562 65.9994 58.0047 65.9524L62.8592 61.1904C62.2428 59.8323 61.5846 58.4937 60.8857 57.1763C59.8006 58.3244 56.5533 61.7234 56.5533 61.7234C56.4594 61.8226 56.33 61.8805 56.1936 61.8842C56.0571 61.888 55.9247 61.8373 55.8256 61.7434C55.7263 61.648 55.6685 61.5172 55.6648 61.3795C55.6611 61.2417 55.7116 61.108 55.8056 61.0074L60.3856 56.2093C59.5785 54.7584 58.7259 53.3333 57.829 51.9363L53.8011 56.3083C53.7065 56.4038 53.5786 56.4587 53.4443 56.4615C53.31 56.4643 53.1799 56.4148 53.0814 56.3234C52.9829 56.2319 52.9237 56.1058 52.9162 55.9714C52.9088 55.8371 52.9537 55.7051 53.0414 55.6033L57.1792 51.1123C57.2001 51.0913 57.2331 51.0993 57.2541 51.0793C56.536 49.9919 55.7887 48.9242 55.013 47.8773L51.6689 52.9073C51.5909 53.0189 51.4728 53.096 51.3393 53.1223C51.2059 53.1486 51.0675 53.1221 50.9531 53.0483C50.8967 53.0108 50.8482 52.9625 50.8104 52.9061C50.7727 52.8498 50.7465 52.7865 50.7333 52.7199C50.7201 52.6533 50.7203 52.5848 50.7337 52.5183C50.747 52.4518 50.7735 52.3886 50.8114 52.3323L54.3551 46.9953C54.2244 46.8213 54.0966 46.6473 53.9648 46.4743C53.9111 46.4426 53.8642 46.4004 53.827 46.3502C53.7898 46.3001 53.763 46.243 53.7482 46.1823C53.305 45.6183 52.8488 45.0753 52.3926 44.5223L49.5136 49.9783C49.4496 50.099 49.3405 50.1894 49.2103 50.2301C49.08 50.2707 48.939 50.2582 48.8179 50.1953C48.7567 50.1642 48.7025 50.121 48.6583 50.0684C48.6142 50.0158 48.5811 49.9548 48.561 49.8891C48.5408 49.8234 48.5341 49.7544 48.5412 49.686C48.5483 49.6177 48.5691 49.5514 48.6022 49.4913L51.6689 43.6733C51.6249 43.6203 51.582 43.5653 51.5371 43.5123C51.3644 43.4483 51.2147 43.3363 51.1897 43.1413C51.1817 43.1313 51.1927 43.1213 51.1917 43.1093C50.8523 42.7183 50.4979 42.3273 50.1415 41.9373L47.9214 47.3963C47.8968 47.4598 47.8596 47.5176 47.8122 47.5664C47.7648 47.6152 47.7081 47.654 47.6454 47.6804C47.5827 47.7068 47.5154 47.7203 47.4474 47.7201C47.3794 47.7199 47.3121 47.706 47.2496 47.6793C47.1869 47.6537 47.1299 47.616 47.0818 47.5683C47.0336 47.5207 46.9954 47.4639 46.9691 47.4014C46.9429 47.3389 46.9292 47.2719 46.9289 47.2041C46.9285 47.1363 46.9415 47.0691 46.9671 47.0063L49.3699 41.1123C48.6768 40.3717 47.9696 39.6446 47.2486 38.9312L44.9317 44.4123C44.8785 44.5389 44.7772 44.6392 44.6502 44.691C44.5232 44.7429 44.3808 44.7421 44.2544 44.6888C44.1279 44.6355 44.0279 44.534 43.9761 44.4068C43.9243 44.2795 43.9251 44.1369 43.9784 44.0103L46.447 38.1732C45.7002 37.4512 44.9374 36.746 44.159 36.0582L42.3083 41.7223C42.2891 41.7897 42.2566 41.8525 42.2126 41.907C42.1686 41.9614 42.1141 42.0065 42.0523 42.0393C41.9905 42.0721 41.9227 42.0921 41.853 42.0981C41.7833 42.104 41.7131 42.0958 41.6467 42.0739C41.5802 42.0519 41.5189 42.0168 41.4663 41.9705C41.4138 41.9243 41.3711 41.8678 41.3409 41.8046C41.3107 41.7415 41.2935 41.6728 41.2904 41.6028C41.2874 41.5328 41.2984 41.4629 41.323 41.3973L43.3045 35.3322C43.058 35.1342 42.8174 34.9192 42.5698 34.7212C34.1097 43.4563 27.6101 54.1043 23.8078 65.9744L15.4684 74.8265C22.6388 34.5272 57.7891 3.93002 100.076 3.93002C147.54 3.93002 186.015 42.4803 186.015 90.0285L186.069 90.1705C186.111 92.3936 185.776 98.7866 184.583 101.271C180.414 109.874 173.838 117.069 171.141 119.369Z" fill="white"/>
<path d="M107.299 112.609C107.268 112.62 107.236 112.63 107.213 112.641L105.273 115.764L107.299 112.609Z" fill="#E4002B"/>
<path d="M104.387 87.8696C104.461 87.6416 104.819 87.0796 105.111 86.6446C106.29 84.8956 110.225 84.5296 113.896 86.2646C117.588 88.0106 120.212 92.1117 119.17 94.7937L119.161 94.8037L119.16 94.8257C118.967 95.3147 118.586 95.9747 118.445 96.1617C117.851 96.9517 117.233 97.7897 116.593 98.6797C123.286 100.915 128.768 100.979 130.372 97.9297C133.078 92.7857 126.602 85.6356 117.036 80.9276C107.462 76.2186 98.2991 75.2746 95.3642 80.8826C93.782 83.9016 97.204 88.0876 103.022 91.9737C103.236 91.3647 103.433 90.7886 103.629 90.2046C103.802 89.6736 103.985 89.1406 104.148 88.6206C104.225 88.3706 104.312 88.1196 104.387 87.8696ZM113.29 103.484C116.855 104.722 123.525 109.353 125.42 111.513C126.362 110.917 127.576 110.266 128.064 110.091L128.009 110.06C126.625 108.792 117.872 103.703 114.191 102.206C114.19 102.206 113.236 103.464 113.29 103.484Z" fill="#003087"/>
<path d="M186.07 90.1702L186.016 90.0282C186.016 42.4799 147.54 3.92969 100.077 3.92969C57.7899 3.92969 22.6396 34.5279 15.4702 74.8271L23.8096 65.9751C27.6119 54.104 34.1115 43.4569 42.5716 34.7219C42.8192 34.9199 43.0588 35.1339 43.3064 35.3329L41.3248 41.3979C41.3003 41.4635 41.2892 41.5334 41.2922 41.6034C41.2953 41.6735 41.3125 41.7421 41.3427 41.8053C41.3729 41.8685 41.4156 41.9249 41.4682 41.9712C41.5207 42.0175 41.582 42.0526 41.6485 42.0745C41.7149 42.0964 41.7851 42.1047 41.8548 42.0987C41.9245 42.0928 41.9923 42.0728 42.0541 42.04C42.1159 42.0071 42.1704 41.9621 42.2144 41.9076C42.2584 41.8531 42.291 41.7903 42.3101 41.7229L44.1609 36.0589C44.9392 36.7467 45.7021 37.4518 46.4488 38.1739L43.9802 44.0109C43.927 44.1376 43.9261 44.2802 43.9779 44.4074C44.0297 44.5347 44.1298 44.6361 44.2562 44.6894C44.3826 44.7427 44.525 44.7436 44.652 44.6917C44.779 44.6399 44.8803 44.5396 44.9335 44.4129L47.2504 38.9319C47.9714 39.6452 48.6786 40.3724 49.3717 41.1129L46.9689 47.007C46.9433 47.0697 46.9303 47.1369 46.9307 47.2047C46.931 47.2725 46.9447 47.3396 46.9709 47.4021C46.9972 47.4646 47.0355 47.5213 47.0836 47.569C47.1317 47.6167 47.1887 47.6544 47.2514 47.68C47.3139 47.7069 47.3812 47.7209 47.4492 47.7211C47.5173 47.7214 47.5847 47.7079 47.6474 47.6815C47.7101 47.6551 47.7668 47.6162 47.8142 47.5674C47.8616 47.5185 47.8987 47.4605 47.9232 47.3969L50.1433 41.9379C50.4997 42.3279 50.8551 42.7179 51.1935 43.1099C51.1935 43.1219 51.1835 43.1319 51.1915 43.1419C51.2165 43.3369 51.3652 43.4489 51.5389 43.5129L51.6707 43.6739L48.604 49.492C48.5681 49.5522 48.5448 49.6191 48.5354 49.6886C48.5261 49.7581 48.5309 49.8288 48.5496 49.8964C48.5684 49.964 48.6006 50.0271 48.6445 50.0818C48.6883 50.1366 48.7427 50.1818 48.8045 50.2148C48.8663 50.2478 48.9341 50.2679 49.0039 50.2739C49.0737 50.2799 49.144 50.2716 49.2104 50.2495C49.2769 50.2275 49.3382 50.1921 49.3907 50.1456C49.4431 50.0991 49.4855 50.0424 49.5154 49.979L52.3944 44.5229C52.8506 45.0759 53.3068 45.6189 53.75 46.1829C53.7648 46.2436 53.7916 46.3007 53.8288 46.3509C53.866 46.401 53.9129 46.4432 53.9666 46.4749C54.0984 46.6489 54.2262 46.8229 54.357 46.9959L50.8132 52.333C50.7753 52.3892 50.7489 52.4524 50.7355 52.519C50.7221 52.5855 50.722 52.654 50.7351 52.7206C50.7483 52.7871 50.7745 52.8504 50.8122 52.9068C50.85 52.9632 50.8985 53.0115 50.9549 53.049C51.0694 53.1225 51.2077 53.1488 51.3411 53.1226C51.4744 53.0963 51.5925 53.0194 51.6707 52.908L55.0178 47.875C55.794 48.9215 56.5413 49.9893 57.2589 51.077C57.2369 51.097 57.2049 51.089 57.184 51.11L53.0433 55.601C52.9968 55.6512 52.9607 55.7102 52.9371 55.7746C52.9135 55.8389 52.9029 55.9072 52.9058 55.9757C52.9088 56.0441 52.9253 56.1113 52.9544 56.1733C52.9835 56.2354 53.0245 56.291 53.0752 56.337C53.1758 56.4296 53.309 56.4783 53.4455 56.4725C53.5819 56.4667 53.7105 56.4068 53.8029 56.306L57.8309 51.934C58.7276 53.3311 59.5802 54.7561 60.3874 56.207L55.8074 61.005C55.7135 61.1057 55.6629 61.2394 55.6666 61.3771C55.6703 61.5149 55.7281 61.6456 55.8274 61.741C55.9266 61.835 56.0589 61.8856 56.1954 61.8819C56.3318 61.8781 56.4612 61.8203 56.5551 61.721C56.5551 61.721 59.8024 58.322 60.8875 57.174C61.5857 58.4917 62.2438 59.8304 62.861 61.188L58.0065 65.9501C57.9088 66.0452 57.8527 66.1753 57.8506 66.3118C57.8486 66.4483 57.9007 66.5801 57.9956 66.6781C58.0921 66.7761 58.2234 66.8322 58.3609 66.8341C58.4984 66.8359 58.6311 66.7835 58.7303 66.6881C58.7303 66.6881 62.2201 63.269 63.3132 62.196C64.0585 63.8806 64.7414 65.5921 65.3606 67.3271L60.1827 72.5061C60.134 72.5543 60.0954 72.6117 60.069 72.6749C60.0426 72.7382 60.029 72.806 60.029 72.8746C60.029 72.9432 60.0426 73.011 60.069 73.0743C60.0954 73.1375 60.134 73.1949 60.1827 73.2431C60.2309 73.2915 60.2882 73.3299 60.3512 73.356C60.4143 73.3822 60.4818 73.3957 60.5501 73.3957C60.6183 73.3957 60.6859 73.3822 60.7489 73.356C60.812 73.3299 60.8692 73.2915 60.9174 73.2431L65.726 68.4251C66.2805 70.1047 66.7792 71.8023 67.2214 73.5151L65.2398 75.5001C65.1916 75.548 65.1532 75.6049 65.127 75.6676C65.1007 75.7303 65.087 75.7976 65.0867 75.8656C65.0863 75.9337 65.0994 76.0011 65.1251 76.064C65.1508 76.127 65.1886 76.1843 65.2364 76.2326C65.2841 76.281 65.341 76.3194 65.4036 76.3457C65.4662 76.372 65.5333 76.3858 65.6012 76.3861C65.6691 76.3864 65.7364 76.3733 65.7993 76.3476C65.8621 76.3219 65.9193 76.284 65.9676 76.2361L67.5248 74.6841C67.9815 76.5964 68.3651 78.5255 68.6748 80.4672L63.5179 85.6322C63.4696 85.68 63.4313 85.737 63.405 85.7997C63.3787 85.8624 63.365 85.9297 63.3647 85.9977C63.3644 86.0657 63.3774 86.1331 63.4031 86.1961C63.4288 86.2591 63.4666 86.3164 63.5144 86.3647C63.5622 86.413 63.619 86.4514 63.6816 86.4778C63.7442 86.5041 63.8114 86.5178 63.8793 86.5181C63.9472 86.5185 64.0145 86.5054 64.0773 86.4797C64.1402 86.4539 64.1973 86.4161 64.2456 86.3682L68.8585 81.7482C69.2059 84.2222 69.4345 86.7272 69.5413 89.2552L63.5608 94.0012C63.5047 94.0423 63.4574 94.0943 63.4218 94.1541C63.3862 94.2139 63.3629 94.2802 63.3535 94.3492C63.3441 94.4182 63.3486 94.4884 63.3669 94.5556C63.3851 94.6227 63.4167 94.6856 63.4598 94.7402C63.5028 94.7949 63.5564 94.8403 63.6173 94.8738C63.6783 94.9072 63.7454 94.928 63.8145 94.935C63.8837 94.9419 63.9535 94.9347 64.0199 94.914C64.0862 94.8932 64.1477 94.8593 64.2007 94.8142L69.5732 90.5502C69.5852 91.1472 69.6261 91.7342 69.6261 92.3322C69.6261 94.0242 69.5623 95.6622 69.4544 97.2783L63.7115 101.11C63.5976 101.188 63.5184 101.307 63.4907 101.443C63.4629 101.578 63.4888 101.719 63.5628 101.835C63.6413 101.949 63.7607 102.027 63.8959 102.053C64.031 102.08 64.1712 102.053 64.2865 101.977C64.2865 101.977 67.8932 99.5683 69.3347 98.6023C69.1576 100.751 68.8794 102.891 68.5011 105.013L62.0784 107.629C61.9521 107.682 61.8515 107.782 61.7986 107.908C61.7457 108.034 61.7447 108.176 61.7959 108.303C61.8479 108.43 61.9477 108.531 62.0736 108.584C62.1994 108.637 62.3411 108.638 62.4677 108.586C62.4677 108.586 66.5286 106.935 68.2745 106.22C68.0208 107.544 67.7312 108.861 67.406 110.169C67.3961 110.201 67.418 110.225 67.418 110.256C67.4107 110.319 67.4189 110.383 67.442 110.442C67.4576 110.506 67.4873 110.564 67.5288 110.614C67.5498 110.637 67.5488 110.67 67.5718 110.691L71.1345 113.686C71.2405 113.764 71.3719 113.798 71.502 113.782C71.6321 113.765 71.7513 113.7 71.8354 113.6C71.9195 113.499 71.9622 113.37 71.955 113.239C71.9477 113.108 71.891 112.984 71.7963 112.893L68.4802 110.103C68.8122 108.755 69.1117 107.4 69.3786 106.037C70.7552 106.621 75.978 108.814 75.978 108.814C76.1046 108.868 76.2472 108.869 76.3747 108.818C76.5022 108.766 76.6043 108.667 76.6588 108.54C76.6853 108.477 76.6991 108.409 76.6993 108.341C76.6995 108.272 76.6862 108.204 76.6602 108.141C76.6341 108.077 76.5958 108.02 76.5474 107.971C76.499 107.923 76.4416 107.884 76.3783 107.858L69.5533 104.992C69.937 102.811 70.2185 100.614 70.3968 98.4063L76.7896 100.989C76.8523 101.015 76.9194 101.028 76.9872 101.028C77.055 101.027 77.122 101.014 77.1844 100.987C77.2469 100.961 77.3035 100.922 77.351 100.874C77.3986 100.826 77.4361 100.768 77.4614 100.705C77.4872 100.642 77.5004 100.575 77.5001 100.507C77.4998 100.439 77.4861 100.372 77.4598 100.31C77.4334 100.247 77.3949 100.19 77.3465 100.143C77.2981 100.095 77.2408 100.058 77.1779 100.032L70.4936 97.3223C70.5944 95.6942 70.6583 94.0442 70.6583 92.3312C70.6583 91.6892 70.6244 91.0492 70.6034 90.3992L77.3606 93.2732C77.4231 93.2997 77.4903 93.3134 77.5581 93.3136C77.626 93.3138 77.6933 93.3005 77.756 93.2745C77.8187 93.2484 77.8756 93.2101 77.9234 93.1619C77.9712 93.1136 78.0089 93.0563 78.0344 92.9932C78.0608 92.9311 78.0748 92.8643 78.0754 92.7967C78.076 92.7292 78.0633 92.6621 78.0379 92.5995C78.0126 92.5369 77.9752 92.4799 77.9278 92.4318C77.8804 92.3837 77.824 92.3454 77.7619 92.3192L70.5715 89.2682C70.4748 86.8033 70.2576 84.3447 69.9206 81.9012L76.1257 84.0722C76.1897 84.0952 76.2577 84.1054 76.3256 84.1019C76.3936 84.0985 76.4602 84.0816 76.5215 84.0522C76.5829 84.0228 76.6379 83.9815 76.6832 83.9307C76.7285 83.8799 76.7633 83.8206 76.7856 83.7562C76.8288 83.6255 76.8192 83.4831 76.759 83.3594C76.6987 83.2357 76.5926 83.1405 76.4631 83.0942L69.7579 80.7402L69.7569 80.7062C69.7847 80.5851 69.7658 80.4579 69.704 80.3502C69.4001 78.427 69.0242 76.516 68.577 74.6211L75.2403 76.3671C75.3063 76.3852 75.3752 76.39 75.4431 76.3812C75.511 76.3724 75.5764 76.3502 75.6357 76.3159C75.6949 76.2816 75.7468 76.2358 75.7882 76.1813C75.8297 76.1267 75.8599 76.0645 75.8772 75.9981C75.9091 75.8658 75.8886 75.7262 75.8199 75.6087C75.7512 75.4912 75.6397 75.4049 75.5088 75.3681L68.2755 73.4711C67.8267 71.6874 67.3126 69.9209 66.7342 68.1751L74.0683 68.7841C74.1355 68.7905 74.2033 68.7835 74.2678 68.7633C74.3322 68.7432 74.392 68.7103 74.4436 68.6667C74.4952 68.6232 74.5376 68.5697 74.5683 68.5095C74.599 68.4493 74.6174 68.3835 74.6224 68.3161C74.6288 68.2483 74.6218 68.1798 74.6017 68.1148C74.5816 68.0497 74.5489 67.9892 74.5054 67.9369C74.4618 67.8845 74.4084 67.8413 74.3481 67.8098C74.2879 67.7783 74.2219 67.759 74.1542 67.7531L66.3868 67.1101C65.7709 65.3541 65.0681 63.6381 64.3294 61.936C66.2032 62.046 71.0886 62.339 71.0886 62.339C71.225 62.3479 71.3594 62.3024 71.4626 62.2125C71.5658 62.1226 71.6294 61.9956 71.6396 61.859C71.647 61.7214 71.6001 61.5863 71.5089 61.4831C71.4178 61.3798 71.2897 61.3166 71.1525 61.307L63.8523 60.872C63.2276 59.4913 62.5598 58.1307 61.8498 56.792C63.7025 56.738 69.0641 56.586 69.0641 56.586C69.1994 56.5819 69.3278 56.5254 69.4223 56.4284C69.5169 56.3315 69.5703 56.2016 69.5712 56.066V56.054C69.5696 55.9861 69.5545 55.9191 69.5268 55.8571C69.4991 55.795 69.4595 55.7391 69.4101 55.6925C69.3607 55.6459 69.3026 55.6096 69.2391 55.5856C69.1756 55.5617 69.108 55.5506 69.0402 55.553L61.3277 55.771C60.5174 54.3091 59.6615 52.8731 58.7612 51.465L66.1073 50.825C66.175 50.82 66.2409 50.8017 66.3015 50.7711C66.362 50.7405 66.4159 50.6982 66.46 50.6465C66.5041 50.5949 66.5375 50.5351 66.5584 50.4704C66.5792 50.4058 66.5871 50.3377 66.5815 50.27C66.5688 50.1327 66.5028 50.0059 66.3977 49.9168C66.2925 49.8278 66.1567 49.7837 66.0195 49.794L58.1014 50.487C57.1884 49.1009 56.2275 47.7471 55.2204 46.4279L61.5344 45.5269C61.6019 45.5167 61.6668 45.4932 61.7253 45.4578C61.7838 45.4223 61.8347 45.3757 61.8751 45.3205C61.9156 45.2653 61.9447 45.2027 61.9609 45.1362C61.9771 45.0696 61.9801 45.0006 61.9696 44.9329C61.9606 44.8655 61.9382 44.8005 61.9037 44.7419C61.8692 44.6833 61.8233 44.6322 61.7688 44.5917C61.7143 44.5511 61.6522 44.5219 61.5862 44.5058C61.5202 44.4897 61.4517 44.487 61.3846 44.4979L54.5147 45.4839C53.9616 44.7799 53.3787 44.0959 52.8037 43.4119L59.1316 42.4239C59.2671 42.4008 59.3881 42.3255 59.4689 42.2141C59.5497 42.1028 59.5838 41.9641 59.5638 41.8279C59.5532 41.7604 59.5295 41.6956 59.4939 41.6373C59.4583 41.579 59.4116 41.5283 59.3564 41.4881C59.3013 41.4479 59.2387 41.4189 59.1724 41.4029C59.1061 41.387 59.0372 41.3842 58.9699 41.3949L52.024 42.4809C51.4507 41.8306 50.8663 41.1902 50.2711 40.5599L55.3063 38.9439C55.4276 38.8947 55.5259 38.8015 55.5814 38.6828C55.637 38.5641 55.6458 38.4288 55.6061 38.3039C55.5663 38.179 55.481 38.0738 55.3671 38.0093C55.2532 37.9447 55.1192 37.9257 54.9918 37.9559L49.4805 39.7239C49.0892 39.3199 48.7009 38.8989 48.2986 38.4979L53.2599 36.6329C53.3235 36.6095 53.3819 36.5737 53.4316 36.5276C53.4813 36.4815 53.5214 36.4259 53.5496 36.3642C53.5777 36.3024 53.5933 36.2357 53.5955 36.1678C53.5977 36.1 53.5864 36.0323 53.5623 35.9689C53.5383 35.9049 53.5019 35.8463 53.4552 35.7964C53.4085 35.7465 53.3524 35.7063 53.2902 35.6782C53.228 35.65 53.1608 35.6345 53.0926 35.6324C53.0243 35.6302 52.9564 35.6416 52.8925 35.6659L47.4641 37.7069C46.6482 36.9132 45.8138 36.139 44.9614 35.3849L50.2711 33.4119C50.3345 33.3883 50.3926 33.3524 50.4422 33.3064C50.4917 33.2603 50.5317 33.2049 50.5599 33.1433C50.5881 33.0818 50.6039 33.0152 50.6064 32.9476C50.6089 32.8799 50.5981 32.8124 50.5746 32.7489C50.5511 32.6854 50.5153 32.6271 50.4693 32.5775C50.4233 32.5279 50.368 32.4878 50.3065 32.4595C50.2451 32.4313 50.1787 32.4155 50.1111 32.413C50.0435 32.4105 49.9761 32.4213 49.9128 32.4449L44.054 34.6149C43.8045 34.3989 43.5539 34.1829 43.2964 33.9759C57.7779 19.4038 77.8168 10.3847 99.9659 10.3847C120.19 10.3847 138.648 17.9178 152.729 30.3278C152.254 30.8596 151.788 31.3997 151.332 31.9479C150.619 30.9359 148.428 27.7918 148.428 27.7918C148.39 27.7331 148.341 27.6825 148.283 27.6433C148.226 27.604 148.161 27.5768 148.092 27.5634C148.024 27.5499 147.953 27.5505 147.885 27.565C147.817 27.5795 147.752 27.6077 147.695 27.6478C147.638 27.688 147.59 27.7392 147.553 27.7986C147.517 27.8579 147.492 27.9241 147.482 27.9932C147.471 28.0622 147.474 28.1327 147.492 28.2003C147.509 28.268 147.54 28.3314 147.582 28.3868L150.648 32.7809C150.043 33.5109 149.446 34.2579 148.895 34.9539C148.007 34.0409 144.919 30.9479 144.919 30.9479C144.871 30.8995 144.814 30.8611 144.75 30.8349C144.687 30.8087 144.62 30.7952 144.552 30.7952C144.483 30.7952 144.416 30.8087 144.353 30.8349C144.29 30.8611 144.232 30.8995 144.184 30.9479C144.089 31.0453 144.036 31.1762 144.036 31.3124C144.036 31.4486 144.089 31.5794 144.184 31.6769L148.265 35.7649C147.867 36.2659 147.506 36.7329 147.215 37.1109C140.467 32.4589 132.387 29.6798 123.762 29.6798C115.148 29.6662 106.744 32.3404 99.7173 37.3309C99.6205 37.4049 100.455 50.903 100.747 55.503C101.986 54.8321 103.271 54.248 104.592 53.755L104.269 37.2419C105.937 35.9179 108.21 34.8229 109.963 34.1929L109.586 52.26C111.664 51.8371 113.779 51.6231 115.9 51.621C116.562 51.621 117.212 51.685 117.862 51.72L121.166 31.8299C125.421 31.4279 129.669 31.8929 133.405 33.0989L125.691 53.194C129.199 54.3484 132.48 56.1071 135.386 58.391L149.057 40.9529C152.015 43.5359 154.366 46.0309 156.672 49.657L140.714 63.696C142.4 65.8193 143.805 68.1507 144.897 70.6331L161.349 59.228C161.677 59.878 162.619 63.8381 162.467 64.9991L146.502 75.3261C146.781 76.384 147.004 77.4558 147.17 78.5371C151.156 76.2701 165.696 67.9901 165.705 67.8621C164.461 55.609 157.721 44.6949 148.06 37.6979C148.342 37.3379 148.711 36.8609 149.123 36.3399C150.411 36.9699 153.529 38.4559 153.529 38.4559C153.608 38.4925 153.694 38.5088 153.781 38.5032C153.868 38.4976 153.951 38.4703 154.025 38.4239C154.098 38.3774 154.159 38.3132 154.201 38.2372C154.243 38.1613 154.266 38.0759 154.267 37.9889C154.267 37.8912 154.24 37.7954 154.188 37.7127C154.136 37.63 154.061 37.5638 153.973 37.5219C153.973 37.5219 151.061 36.1339 149.771 35.5159C150.323 34.8209 150.918 34.0809 151.516 33.3439L157.029 35.2549C157.264 35.3319 157.495 35.2129 157.615 35.0069C171.423 49.406 179.928 68.9471 179.928 90.4862L179.972 90.5502C179.461 105.373 176.58 111.806 171.326 115.682C171.123 114.434 170.744 113.22 170.202 112.078C169.4 110.42 169.766 110.332 170.319 109.791C173.279 107.24 173.883 104.636 172.789 103.853C171.186 102.706 166.66 106.351 166.086 109.853C165.996 110.397 165.92 110.944 165.856 111.491C164.873 112.642 163.612 113.695 162.411 114.551C160.724 113.002 157.138 114.747 156.909 117.915C153.608 119.748 150.961 120.748 148.515 120.769C145.526 120.801 144.736 119.023 145.297 117.406C145.319 117.34 145.232 117.427 145.494 117.405C151.332 116.95 158.222 113.586 157.106 109.648C155.835 105.155 141.952 110.535 139.58 116.916C135.486 120.411 131.23 121.594 128.337 121.625C125.355 121.648 124.566 119.879 125.12 118.262C125.15 118.188 125.054 118.262 125.324 118.261C131.694 118.197 139.428 114.465 137.792 110.297C135.906 105.458 122.4 111.124 119.657 117.567C117.59 120.313 113.855 122.971 112.553 122.798C109.554 122.407 112.447 119.142 109.522 118.608C113.366 117.97 118.912 114.529 117.752 110.548C116.917 107.704 111.957 108.54 108.914 110.102L107.3 112.61C109.293 111.816 112.566 111.352 113.118 112.588C114.07 114.705 108.915 117.416 104.463 117.058L105.274 115.766L103.25 118.902C104.344 118.818 105.015 118.905 105.415 119.24C106.878 120.476 104.255 123.341 107.136 125.544C108.859 126.867 114.102 125.209 118.976 120.781L119.173 119.955C119.19 120.559 119.327 121.154 119.574 121.704C121.698 126.358 131.682 124.654 139.264 119.198C139.32 119.751 139.471 120.304 139.752 120.856C141.82 124.884 150.292 123.764 157.117 119.653C157.268 120.154 157.481 120.674 157.81 121.216C158.612 122.509 160.549 123.66 162.274 123.961C164.98 124.418 168.232 124.07 170.136 121.489C170.634 120.816 170.934 120.099 171.142 119.371C173.839 117.071 180.415 109.876 184.583 101.272C185.776 98.7873 186.112 92.3932 186.07 90.1702ZM152.229 32.4899C152.674 31.9579 153.108 31.4479 153.509 31.0019C154.599 31.985 155.661 32.9984 156.694 34.0409C155.579 33.6589 153.355 32.8799 152.229 32.4899ZM152.867 110.492C153.994 112.067 150.054 115.571 145.677 115.744C145.981 113.012 151.46 108.519 152.867 110.492ZM132.626 111.545C133.274 113.012 129.418 116.224 125.573 116.724C126.405 113.196 131.722 109.484 132.626 111.545ZM162.268 121.907C159.659 121.777 159.258 119.306 159.779 118.739C159.933 118.892 162.964 118.774 162.986 115.833C163.998 115.142 164.953 114.373 165.844 113.531C165.869 113.782 165.891 114.041 165.964 114.29C166.537 116.408 166.603 122.125 162.268 121.907Z" fill="#E4002B"/>
<path d="M184.433 107.522C182.018 111.328 175.639 116.984 175.639 116.984C172.318 126.602 167.13 135.467 160.375 143.069L161.567 140.683C161.628 140.56 161.638 140.418 161.595 140.288C161.553 140.158 161.46 140.05 161.338 139.988C161.277 139.957 161.21 139.939 161.141 139.934C161.073 139.929 161.004 139.938 160.939 139.96C160.874 139.982 160.813 140.017 160.761 140.062C160.71 140.107 160.667 140.162 160.637 140.224L159.109 143.285C158.284 142.743 157.492 142.152 156.737 141.516C157.701 140.355 159.433 138.25 159.433 138.25C159.52 138.144 159.562 138.008 159.549 137.872C159.537 137.736 159.471 137.61 159.366 137.522C159.26 137.434 159.123 137.391 158.985 137.404C158.848 137.417 158.721 137.483 158.632 137.589L155.955 140.845C155.565 140.507 155.166 140.158 154.773 139.78L158.069 135.233C158.11 135.178 158.139 135.116 158.155 135.049C158.171 134.983 158.174 134.914 158.164 134.847C158.154 134.779 158.13 134.715 158.095 134.656C158.06 134.598 158.013 134.547 157.958 134.507C157.847 134.426 157.708 134.394 157.572 134.416C157.436 134.438 157.314 134.513 157.234 134.625L154.016 139.055C153.352 138.418 152.701 137.766 152.067 137.1C153.043 135.926 155.067 133.41 155.067 133.41C155.11 133.357 155.142 133.297 155.162 133.231C155.181 133.166 155.187 133.098 155.18 133.031C155.173 132.963 155.153 132.898 155.12 132.838C155.088 132.778 155.044 132.726 154.992 132.683C154.939 132.639 154.879 132.606 154.814 132.587C154.748 132.567 154.68 132.56 154.612 132.567C154.544 132.574 154.479 132.595 154.419 132.628C154.36 132.661 154.307 132.705 154.265 132.759C154.265 132.759 152.271 135.244 151.373 136.353C150.659 135.594 149.958 134.822 149.271 134.039L152.304 130.427C152.392 130.32 152.434 130.183 152.422 130.046C152.41 129.908 152.345 129.781 152.24 129.691C152.135 129.605 152 129.563 151.864 129.575C151.728 129.587 151.603 129.652 151.514 129.755C151.514 129.755 149.619 132.011 148.581 133.238C147.755 132.282 146.946 131.312 146.154 130.328L149.305 126.748C149.35 126.698 149.386 126.639 149.408 126.575C149.431 126.51 149.44 126.442 149.436 126.374C149.432 126.307 149.415 126.24 149.384 126.179C149.354 126.118 149.312 126.064 149.261 126.02C149.21 125.974 149.152 125.939 149.088 125.916C149.024 125.893 148.956 125.884 148.888 125.888C148.82 125.892 148.754 125.91 148.693 125.94C148.632 125.97 148.578 126.012 148.534 126.064L145.502 129.505C144.605 128.372 143.734 127.218 142.892 126.043L144.225 124.699C144.274 124.651 144.313 124.595 144.339 124.532C144.365 124.47 144.379 124.403 144.379 124.335C144.379 124.267 144.365 124.2 144.339 124.137C144.313 124.075 144.274 124.018 144.225 123.971C144.178 123.922 144.122 123.883 144.059 123.857C143.997 123.831 143.929 123.817 143.862 123.817C143.794 123.817 143.727 123.831 143.664 123.857C143.602 123.883 143.545 123.922 143.498 123.971C143.498 123.971 142.804 124.666 142.287 125.177C141.689 124.298 141.193 123.527 140.867 122.932C140.795 122.821 140.684 122.741 140.556 122.709C140.428 122.677 140.292 122.695 140.176 122.759C140.061 122.824 139.974 122.93 139.934 123.056C139.893 123.182 139.902 123.319 139.959 123.439C140.302 124.048 140.811 124.85 141.44 125.761C140.324 125.959 136.879 126.588 136.879 126.588C136.812 126.6 136.747 126.625 136.69 126.662C136.632 126.699 136.582 126.747 136.543 126.803C136.504 126.859 136.476 126.923 136.461 126.99C136.447 127.057 136.446 127.126 136.458 127.194C136.47 127.26 136.495 127.324 136.532 127.381C136.568 127.437 136.615 127.486 136.671 127.525C136.726 127.563 136.789 127.59 136.855 127.605C136.921 127.619 136.989 127.62 137.055 127.608L142.09 126.695C143.031 127.995 144.002 129.272 145.004 130.526L139.015 130.723C138.946 130.726 138.879 130.742 138.818 130.77C138.756 130.799 138.7 130.839 138.654 130.89C138.607 130.94 138.571 130.999 138.548 131.063C138.524 131.127 138.513 131.195 138.516 131.263C138.519 131.332 138.535 131.399 138.563 131.461C138.592 131.523 138.632 131.579 138.682 131.625C138.733 131.671 138.791 131.707 138.855 131.731C138.919 131.755 138.987 131.766 139.056 131.763L145.817 131.535C146.487 132.359 147.191 133.185 147.908 134.02L142.567 135.582C142.503 135.601 142.442 135.633 142.389 135.675C142.337 135.718 142.293 135.77 142.261 135.83C142.229 135.889 142.208 135.954 142.201 136.022C142.194 136.089 142.201 136.157 142.22 136.222C142.297 136.502 142.588 136.656 142.86 136.578L148.374 134.964C148.463 134.937 148.542 134.885 148.602 134.813C149.261 135.561 149.931 136.298 150.613 137.025C149.382 137.546 145.028 139.521 145.028 139.521C144.904 139.578 144.808 139.682 144.759 139.81C144.711 139.938 144.715 140.08 144.77 140.205C144.888 140.465 145.2 140.584 145.459 140.464L151.332 137.796C151.829 138.316 152.326 138.824 152.816 139.313L152.794 139.314L147.736 142.308C147.619 142.379 147.534 142.495 147.501 142.629C147.468 142.762 147.49 142.904 147.561 143.022C147.595 143.08 147.641 143.131 147.695 143.171C147.749 143.212 147.811 143.241 147.876 143.257C147.942 143.273 148.01 143.277 148.077 143.267C148.144 143.256 148.208 143.233 148.265 143.198L153.323 140.204C153.41 140.157 153.443 140.071 153.487 139.985C153.486 140.148 153.531 140.31 153.672 140.409C153.727 140.45 153.79 140.48 153.856 140.496C153.923 140.513 153.992 140.516 154.06 140.505C154.469 140.886 154.864 141.245 155.263 141.593C154.536 142.068 150.702 144.629 150.702 144.629C150.645 144.666 150.597 144.714 150.559 144.771C150.521 144.827 150.495 144.891 150.481 144.957C150.468 145.024 150.468 145.092 150.482 145.159C150.496 145.226 150.522 145.289 150.56 145.345C150.598 145.402 150.646 145.451 150.702 145.488C150.759 145.526 150.822 145.553 150.889 145.566C150.955 145.579 151.024 145.579 151.09 145.565C151.157 145.552 151.22 145.525 151.276 145.487L156.065 142.287C156.755 142.868 157.474 143.414 158.219 143.923L154.837 146.237C154.724 146.316 154.647 146.436 154.622 146.572C154.596 146.707 154.624 146.847 154.7 146.962C154.739 147.018 154.788 147.066 154.846 147.103C154.903 147.14 154.967 147.166 155.034 147.178C155.101 147.19 155.17 147.189 155.237 147.175C155.304 147.16 155.367 147.133 155.423 147.094L158.62 144.901C144.019 160.317 123.212 169.762 100.076 169.964C91.7995 170.032 83.6777 168.684 75.9743 166.156C80.1779 158.074 84.5003 150.085 86.938 145.813C92.4064 136.253 106.975 112.077 116.561 98.7286C116.573 98.7086 116.583 98.6976 116.594 98.6776C117.234 97.7876 117.851 96.9496 118.446 96.1596C118.587 95.9726 118.968 95.3126 119.161 94.8236L119.162 94.8016C120.19 92.1206 117.569 88.0316 113.887 86.2956C110.215 84.5596 106.281 84.9186 105.102 86.6756C104.809 87.1106 104.452 87.6726 104.385 87.9006C104.312 88.1296 104.224 88.3886 104.148 88.6186C103.985 89.1386 103.802 89.6716 103.629 90.2026C103.422 90.8316 103.238 91.4376 103.021 92.0786C102.351 93.9922 101.651 95.8947 100.919 97.7856C100.887 97.8736 100.846 97.9616 100.813 98.0566C97.9297 105.533 94.365 113.575 90.9869 120.811C90.1414 121.387 88.5502 122.353 87.9093 121.941C86.3381 120.941 93.4765 113.746 91.1277 111.306C89.1991 109.3 83.2325 112.143 80.4055 115.094C80.7299 114.226 80.8158 112.631 79.5799 111.414C75.5939 107.496 63.8745 125.486 61.8381 124.013C60.6681 123.167 65.2291 117.796 67.4293 111.86L62.5858 111.904L61.869 113.043C61.894 112.748 61.7492 112.37 61.328 111.981C55.9684 107.044 42.6867 121.299 47.5741 125.544C49.8581 127.528 55.2746 125.141 57.5047 122.191C56.0093 125.401 57.1274 126.672 57.5486 126.985C62.5299 130.622 73.1243 113.467 74.9331 115.05C76.2019 116.168 69.6564 125.771 69.9518 125.999L74.8682 125.955C76.9575 122.244 78.4879 119.303 78.4879 119.303C81.249 116.122 84.6291 113.574 85.4506 114.55C86.8063 116.177 79.6129 121.993 81.9648 125.66C83.1008 127.419 87.52 125.26 89.6662 123.611C85.3438 132.748 81.5734 140.148 80.3925 142.556C78.1734 147.069 73.7751 155.392 69.292 163.636C61.7622 160.383 54.7445 155.968 48.5045 150.616C48.5135 150.51 48.5145 150.401 48.4516 150.304L46.7835 147.633C46.8045 147.621 46.8155 147.61 46.8354 147.59C47.637 146.853 48.3737 146.06 49.1334 145.29L51.7648 148.274C51.8092 148.325 51.8634 148.367 51.9242 148.397C51.985 148.427 52.0512 148.445 52.1189 148.449C52.1866 148.453 52.2544 148.444 52.3184 148.421C52.3824 148.399 52.4412 148.364 52.4915 148.318C52.5426 148.273 52.5844 148.219 52.6146 148.159C52.6448 148.098 52.6627 148.032 52.6675 147.964C52.6722 147.897 52.6636 147.829 52.6421 147.765C52.6207 147.7 52.5868 147.641 52.5424 147.59L49.8691 144.561C50.507 143.9 51.1459 143.24 51.7528 142.557C52.8698 143.749 54.7645 145.757 54.7645 145.757C54.8591 145.857 54.9894 145.914 55.1266 145.918C55.2639 145.921 55.3968 145.87 55.4962 145.775C55.5956 145.68 55.6534 145.55 55.6567 145.412C55.6601 145.275 55.6088 145.142 55.5142 145.042L52.4246 141.765C53.346 140.702 54.2764 139.648 55.1339 138.531C56.182 140.005 57.9379 142.479 57.9379 142.479C58.017 142.591 58.1372 142.667 58.2723 142.691C58.4074 142.714 58.5462 142.683 58.6582 142.603C58.7702 142.524 58.8462 142.404 58.8695 142.268C58.8928 142.133 58.8615 141.994 58.7824 141.882L55.7717 137.64C56.6182 136.502 57.4518 135.361 58.2394 134.169C59.1937 135.375 61.6324 138.477 61.6324 138.477C61.7177 138.584 61.8417 138.653 61.9776 138.669C62.1136 138.686 62.2503 138.647 62.3582 138.563C62.4121 138.521 62.4572 138.469 62.4908 138.41C62.5243 138.351 62.5458 138.285 62.5538 138.217C62.5618 138.15 62.5562 138.081 62.5373 138.016C62.5185 137.95 62.4868 137.889 62.444 137.836L58.8274 133.248C59.5982 132.037 60.3313 130.802 61.0255 129.546L64.9037 133.126C65.0057 133.218 65.1399 133.267 65.2774 133.261C65.4149 133.255 65.5445 133.196 65.6384 133.095C65.685 133.045 65.7211 132.986 65.7448 132.921C65.7685 132.857 65.7792 132.789 65.7763 132.72C65.7734 132.652 65.757 132.585 65.728 132.523C65.6991 132.461 65.6581 132.405 65.6075 132.359L61.5666 128.634C61.5895 128.59 61.6215 128.547 61.6434 128.495C61.6763 128.436 61.697 128.371 61.7044 128.303C61.7117 128.236 61.7056 128.168 61.6862 128.103C61.6668 128.038 61.6347 127.978 61.5917 127.925C61.5487 127.873 61.4957 127.83 61.4358 127.799C61.3152 127.733 61.1734 127.718 61.0416 127.757C60.9098 127.795 60.7988 127.885 60.733 128.006C60.6681 128.125 60.5923 128.234 60.5274 128.353C60.5254 128.362 60.5154 128.354 60.5134 128.363C60.4934 128.383 60.5034 128.407 60.4845 128.427C60.4266 128.538 60.3517 128.646 60.2878 128.764L55.4243 128.309C55.288 128.297 55.1523 128.339 55.0469 128.426C54.9414 128.514 54.8747 128.639 54.8613 128.776C54.854 128.844 54.8604 128.912 54.88 128.978C54.8997 129.043 54.9322 129.104 54.9756 129.156C55.0191 129.209 55.0726 129.252 55.133 129.284C55.1935 129.315 55.2596 129.334 55.3275 129.34L59.7028 129.751C59.1398 130.728 58.5858 131.714 57.9799 132.659L52.3278 131.996C52.1917 131.981 52.0554 132.021 51.9481 132.106C51.8408 132.191 51.771 132.315 51.7538 132.451L51.7528 132.515C51.7528 132.767 51.9474 132.994 52.208 133.026C52.208 133.026 55.9554 133.47 57.351 133.633C56.6462 134.697 55.8895 135.719 55.1319 136.747L55.0989 136.694C55.0559 136.634 55.0009 136.584 54.9374 136.547C54.874 136.51 54.8036 136.486 54.7306 136.478L49.2162 135.902C49.1482 135.895 49.0793 135.901 49.0136 135.92C48.948 135.94 48.8868 135.972 48.8336 136.015C48.7805 136.058 48.7364 136.112 48.7039 136.172C48.6714 136.232 48.6511 136.299 48.6442 136.367L48.6432 136.421C48.6432 136.682 48.8389 136.901 49.1084 136.933C49.1084 136.933 53.9629 137.442 54.3942 137.485C54.4061 137.507 54.469 137.584 54.503 137.637C53.6145 138.798 52.6632 139.905 51.7089 141.003L51.61 140.902C51.5485 140.833 51.47 140.782 51.3824 140.753L46.0967 139.146C46.0191 139.122 45.9371 139.117 45.8572 139.131C45.7773 139.145 45.7017 139.178 45.6366 139.226C45.5715 139.274 45.5186 139.337 45.4822 139.41C45.4458 139.483 45.4268 139.563 45.4269 139.644C45.4269 139.755 45.4629 139.862 45.5293 139.951C45.5958 140.039 45.6891 140.103 45.7952 140.134L50.9512 141.708C50.9612 141.718 51.0151 141.772 51.038 141.803C50.4324 142.473 49.8151 143.132 49.1863 143.78L49.0905 143.672C49.0244 143.602 48.9421 143.55 48.8509 143.52L44.1392 142.141C44.062 142.117 43.9803 142.112 43.9007 142.126C43.8212 142.14 43.7462 142.173 43.6817 142.222C43.6172 142.27 43.5652 142.334 43.5298 142.406C43.4945 142.479 43.4768 142.559 43.4783 142.64C43.4783 142.859 43.6211 143.065 43.8477 143.131C43.8477 143.131 48.1471 144.397 48.4176 144.474C48.4186 144.475 48.4416 144.506 48.4506 144.509C47.7139 145.256 46.9991 146.026 46.2285 146.733L46.1536 146.622C46.0951 146.525 46.0073 146.45 45.9031 146.407L42.9143 145.257C42.8834 145.254 42.8604 145.267 42.8364 145.265C39.8912 142.217 37.1861 138.945 34.7456 135.478L65.6614 77.0055L58.492 77.2095L45.8392 100.806C41.7563 104.636 35.129 108.151 31.3386 105.534C23.8208 100.328 53.2701 72.1585 42.4292 62.9994C33.7753 55.6864 24.3738 66.6034 21.3951 71.7875C18.9763 76.0085 14.4173 82.4775 14.2556 90.4536C14.3405 125.813 35.692 156.151 66.1735 169.326C63.2995 174.559 60.5833 179.37 58.6437 182.66C57.2781 184.976 56.3817 186.038 54.7555 185.91C54.4411 185.881 53.7603 185.974 53.5536 186.054C52.7401 186.372 52.4166 187.799 52.4486 188.405C52.5125 189.664 53.5317 191.928 57.5945 193.793C61.6564 195.655 63.9194 195.482 64.9706 194.794C65.4787 194.466 66.443 193.362 66.2174 192.515C66.1625 192.297 65.8371 191.696 65.6314 191.456C64.5703 190.213 64.8268 189.091 65.891 186.624C67.4083 183.102 70.0487 177.726 73.0055 171.92C81.7708 174.854 90.9521 176.349 100.194 176.347C140.661 176.347 174.596 148.328 183.718 110.6C184.065 109.214 184.433 107.522 184.433 107.522ZM51.2367 122.526C48.8938 119.913 58.0368 110.894 60.183 113.597C61.8061 116.211 53.8671 125.445 51.2367 122.526ZM24.5346 72.1915C26.7008 68.1975 31.3147 62.9254 35.3995 63.7274C41.7364 64.9744 37.6625 73.2635 32.28 82.6605C27.0242 91.8426 20.6474 101.498 25.7794 107.045C29.9291 111.545 38.4212 110.518 43.6201 105.352L30.8595 129.363C24.298 117.96 20.4717 104.808 20.4717 90.7456C19.8458 81.8035 22.4243 76.0755 24.5346 72.1915ZM46.0668 148.438C46.0358 148.407 46.0039 148.384 45.9789 148.353C45.9819 148.344 45.9919 148.341 46.0019 148.332C46.0259 148.366 46.0475 148.401 46.0668 148.438ZM45.373 147.321C45.376 147.333 45.4079 147.385 45.4199 147.407C45.341 147.474 45.2572 147.538 45.1783 147.604C44.9627 147.398 44.7381 147.203 44.5295 146.996C44.9328 147.149 45.2772 147.287 45.373 147.321ZM106.119 87.9136L106.78 87.7736C101.614 103.388 91.2784 125.132 89.1671 128.04C100.226 106.967 105.567 89.9526 106.119 87.9136ZM93.9238 126.066C95.3622 123.256 112.617 94.2386 115.368 90.0926C115.49 89.4216 114.688 88.9656 114.688 88.9656C111.958 93.6766 81.7701 145.184 80.7619 147.137C82.0706 144.737 90.7813 127.116 94.0096 120.878C97.4007 114.333 108.404 87.3596 108.655 86.1646C111.71 86.0676 115.057 87.4456 116.855 89.9096C116.886 89.8446 116.171 91.0286 116.171 91.0286C115.478 92.0896 104.059 110.571 103.03 112.415C101.981 114.291 75.583 159.356 75.583 159.356C82.1045 146.659 92.4933 128.874 93.9238 126.066ZM72.0422 164.181C72.5633 163.274 72.1081 164.174 72.0432 164.378C72.0112 164.468 70.7095 166.862 69.1732 169.693C70.1496 167.866 71.1059 166.029 72.0422 164.181ZM56.6173 186.367C57.5696 186.119 59.3804 183.813 59.4782 183.617C59.5761 183.416 59.8376 183.212 59.7078 183.646C59.5122 184.651 58.8184 185.621 58.2444 186.259C57.906 186.641 57.6914 186.894 57.4198 186.96C56.738 187.125 56.4885 186.87 56.4226 186.671C56.4136 186.336 56.4795 186.401 56.6173 186.367ZM60.8438 188.023C60.5381 189.149 60.2625 190.283 60.0173 191.423C59.8566 192.146 59.4772 192.298 59.0749 192.146C58.8264 192.058 58.5688 191.879 58.3602 191.705C58.2324 191.603 58.0687 191.575 57.874 191.473C57.8191 191.45 57.7563 191.542 57.6994 191.5C57.5945 191.435 57.4937 191.233 57.3859 191.184C57.2232 191.118 56.9856 190.966 56.8119 190.879C56.6622 190.801 56.5324 190.611 56.4106 190.559C56.3138 190.516 56.217 190.604 56.1101 190.553C55.8486 190.415 55.6649 190.22 55.4583 190.104C55.3008 190.021 55.1494 189.927 55.0051 189.823C54.8324 189.683 54.8643 189.561 54.9282 189.467C55.0161 189.329 55.3175 189.257 55.4483 189.237C55.591 189.215 56.0992 189.404 56.6722 189.677C57.1284 189.902 57.6265 190.192 58.0158 190.314C58.3402 190.408 58.7305 190.32 58.9052 190.146C59.035 190.017 58.9601 189.845 58.9711 189.67C58.9901 189.446 59.1857 189.206 59.066 189.039C58.9142 188.829 58.7635 188.773 58.6127 188.678C58.4291 188.569 58.2444 188.454 58.0607 188.382C57.7263 188.253 57.5935 187.718 57.9858 187.651C57.9858 187.651 58.3432 187.515 58.5698 187.298C58.6986 187.175 58.6447 187.028 58.7964 186.868C58.8623 186.788 59.045 186.716 59.0909 186.632C59.1338 186.567 59.046 186.507 59.1089 186.437C59.1748 186.378 59.1338 186.285 59.2406 186.177C59.3275 186.087 59.5551 185.973 59.6429 185.85C59.7298 185.743 59.8166 185.634 59.9125 185.519C61.7233 183.172 64.733 177.907 67.3205 173.148C66.1296 175.382 65.0485 177.443 64.5723 178.479C63.574 180.657 61.9918 184.433 61.2142 186.565C61.1792 186.675 61.2681 186.785 61.2341 186.891C61.0944 187.265 60.9643 187.643 60.8438 188.023ZM68.4046 175.955C68.3916 176.013 68.4245 176.095 68.3926 176.143C68.2099 176.403 68.2279 176.651 68.133 176.946C68.1221 176.977 68.0252 176.998 68.0262 177.018C68.0472 177.302 67.7118 177.49 67.6549 177.744C67.5371 178.205 67.3324 178.562 67.1587 179.016C67.1468 179.051 67.0519 179.061 67.0499 179.089C67.027 179.275 66.8333 179.341 66.7794 179.493C66.7674 179.535 66.7904 179.6 66.7684 179.615C66.6506 179.696 66.6067 179.81 66.5209 179.904C66.4879 179.94 66.5298 180.029 66.5079 180.087C66.465 180.209 66.3572 180.303 66.3342 180.427C66.2302 180.96 66.063 181.479 65.8361 181.973C65.7822 182.096 65.6943 182.261 65.7392 182.423C65.5875 182.422 65.7832 182.64 65.6095 182.624C65.6095 182.76 65.6424 182.901 65.5975 183.015C65.4577 183.37 65.4228 183.717 65.3379 184.087C65.325 184.151 65.2311 184.217 65.2391 184.289C65.2511 184.571 64.9376 184.807 64.9366 185.091C64.9366 185.337 64.7859 185.496 64.6861 185.749C64.6222 185.894 64.5014 186.025 64.3956 186.176C64.2439 186.393 63.9933 186.609 63.8655 186.842C63.8316 186.914 64.0053 187.044 63.9184 187.086C63.8655 187.108 63.8206 187.115 63.7907 187.167C63.7028 187.348 63.8975 187.608 63.6679 187.696C63.5191 188.192 62.9861 188.621 62.8343 189.107C62.7814 189.272 62.997 189.475 62.9312 189.621C62.7585 189.988 62.7475 190.256 62.6197 190.632C62.6067 190.685 62.5528 190.734 62.4999 190.691C62.446 190.648 62.434 190.581 62.4221 190.508C62.4111 190.453 62.2733 190.451 62.2933 190.301C62.3482 189.802 62.6616 189.6 62.7814 189.135C62.9441 188.515 63.05 187.963 63.1598 187.376C63.1917 187.219 63.2556 187.081 63.2686 186.908C63.2776 186.857 63.2356 186.821 63.2446 186.764C63.2676 186.582 63.4303 186.437 63.3854 186.24C63.6679 185.887 63.592 185.402 63.8855 185.026C63.9294 184.962 64.0782 184.845 64.1121 184.773C64.3287 184.367 64.2738 183.962 64.5234 183.551C64.5463 183.506 64.5773 183.528 64.5992 183.471C64.6422 183.379 64.8807 183.211 64.9117 183.11C64.9337 183.023 64.8059 182.923 64.8698 182.828C64.8917 182.793 64.8688 182.741 64.8807 182.703C64.9546 182.51 65.1073 182.372 65.1712 182.177C65.2391 181.945 65.324 181.7 65.4867 181.518C65.5286 181.475 65.5825 181.423 65.5845 181.36C65.5935 181.295 65.5296 181.228 65.7243 181.163C65.7113 180.901 65.9529 180.752 66.0168 180.504C66.0397 180.391 66.1795 180.274 66.2234 180.15C66.2773 180.004 66.3422 179.86 66.3831 179.694C66.3941 179.642 66.439 179.602 66.5039 179.623C66.5039 179.556 66.4829 179.483 66.5139 179.428C66.7195 179.036 67.0439 178.741 67.1657 178.291C67.1757 178.256 67.2616 178.253 67.2825 178.213C67.3055 178.161 67.2626 178.073 67.2955 178.031C67.5421 177.736 67.598 177.407 67.8016 177.076C67.8256 177.031 67.7916 176.946 67.8146 176.888C67.8795 176.721 67.9883 176.577 68.0622 176.412C68.0841 176.359 68.0432 176.279 68.0751 176.226C68.151 176.106 68.2359 175.992 68.3117 175.87C68.4535 175.643 68.6042 175.334 68.7559 175.024C68.6811 175.275 68.7899 175.637 68.6391 175.869C68.6322 175.89 68.4235 175.899 68.4046 175.955ZM69.5416 173.777L69.4637 173.929V174.026C69.4118 173.99 69.4437 174.103 69.3988 174.06C69.4118 174.125 69.3898 174.19 69.3569 174.22C69.281 174.294 69.272 174.342 69.2381 174.43C69.2371 174.437 69.269 174.467 69.2491 174.48C69.1842 174.534 69.2032 174.625 69.1413 174.697C69.0654 174.799 68.8458 174.869 68.7809 174.988C68.9336 174.677 69.0864 174.372 69.2581 174.155C69.3798 173.983 69.269 174.098 69.3459 173.931C69.3998 173.809 69.7133 172.941 69.7682 172.811C71.2076 169.433 95.9402 125.564 110.052 102.637C113.334 97.5286 117.094 91.4406 117.431 90.8986C117.634 91.0696 118.014 91.6776 117.98 92.1906C117.94 92.6546 111.209 102.702 110.779 103.345C95.3842 126.814 71.3584 170.37 69.5416 173.777ZM14.2446 90.6036C14.2446 90.5516 14.2556 90.5066 14.2556 90.4536L14.2536 90.2576L14.2446 90.6036Z" fill="#E4002B"/>
<path d="M65.7809 116.873C65.7377 116.925 65.7051 116.985 65.6851 117.05C65.6651 117.115 65.658 117.183 65.6643 117.251C65.6706 117.318 65.6902 117.384 65.7218 117.444C65.7535 117.504 65.7966 117.557 65.8488 117.601L67.1156 118.641C67.2225 118.726 67.3583 118.765 67.4939 118.751C67.6295 118.737 67.7542 118.67 67.8413 118.565C67.8847 118.513 67.9173 118.452 67.9374 118.388C67.9574 118.323 67.9645 118.255 67.9582 118.187C67.9519 118.12 67.9323 118.054 67.9006 117.994C67.8689 117.934 67.8257 117.881 67.7734 117.838L66.5066 116.798C66.4541 116.755 66.3937 116.723 66.3287 116.703C66.2638 116.684 66.1957 116.677 66.1282 116.684C66.0608 116.691 65.9954 116.712 65.9358 116.744C65.8762 116.776 65.8236 116.82 65.7809 116.873ZM71.2294 121.483C71.3457 121.555 71.4859 121.579 71.6197 121.549C71.7534 121.519 71.8699 121.437 71.9441 121.322C72.0168 121.205 72.0406 121.065 72.0105 120.931C71.9805 120.797 71.8988 120.68 71.7834 120.606L70.6444 119.877C70.5876 119.839 70.5239 119.813 70.4571 119.801C70.3902 119.788 70.3215 119.789 70.255 119.803C70.1884 119.817 70.1254 119.845 70.0695 119.884C70.0137 119.923 69.9661 119.972 69.9296 120.03C69.8923 120.087 69.8666 120.15 69.854 120.217C69.8415 120.284 69.8423 120.353 69.8565 120.419C69.8707 120.486 69.898 120.549 69.9368 120.605C69.9756 120.661 70.0251 120.708 70.0824 120.745L71.2294 121.483ZM69.2059 127.333C69.2514 127.283 69.2867 127.224 69.3096 127.161C69.3326 127.097 69.3427 127.029 69.3396 126.962C69.3364 126.894 69.32 126.828 69.2912 126.767C69.2625 126.705 69.222 126.65 69.172 126.605L66.7572 124.414C66.6553 124.322 66.521 124.274 66.3838 124.281C66.2467 124.288 66.118 124.349 66.026 124.451C65.934 124.553 65.8862 124.688 65.8933 124.825C65.9003 124.963 65.9615 125.092 66.0634 125.184L68.4782 127.366C68.5277 127.412 68.586 127.449 68.6497 127.472C68.7134 127.496 68.7812 127.506 68.849 127.503C68.9168 127.5 68.9834 127.484 69.0447 127.454C69.106 127.425 69.1608 127.384 69.2059 127.333ZM138.626 123.005C138.694 122.999 138.76 122.98 138.821 122.949C138.881 122.917 138.935 122.874 138.978 122.821C139.021 122.768 139.054 122.707 139.073 122.642C139.093 122.576 139.099 122.508 139.091 122.44C139.076 122.304 139.009 122.179 138.904 122.092C138.798 122.005 138.663 121.963 138.527 121.974L136.23 122.21C136.162 122.215 136.096 122.234 136.036 122.266C135.975 122.298 135.922 122.341 135.878 122.394C135.835 122.446 135.803 122.507 135.783 122.573C135.764 122.638 135.757 122.707 135.765 122.775C135.795 123.058 136.047 123.265 136.329 123.233L138.626 123.005Z" fill="#E4002B"/>
<path d="M124.229 69.6722C128.367 71.7442 133.764 75.7712 139.742 82.5632L146.066 78.9392C144.336 68.1202 138.311 60.7001 129.971 56.2051C118.66 50.0881 106.011 53.2101 100.78 56.8351L101.244 62.9901C110.44 63.4551 120.092 67.6002 124.229 69.6722ZM108.156 61.6431L106.26 60.9261L104.668 62.1101L104.732 60.1011L103.186 58.9621L105.111 58.3561L105.699 56.5231L106.869 58.1391L108.827 58.2241L107.593 59.7131L108.156 61.6431ZM119.69 64.0411L117.133 62.3391L114.383 63.5641L115.141 60.6131L113.247 58.4121L116.279 58.1711L117.773 55.6641L118.963 58.4421L121.823 59.2151L119.496 61.0141L119.69 64.0411ZM132.409 68.2072L130.575 71.2582L129.234 67.9052L125.767 67.2432L128.473 64.9071L128.109 61.5121L131.205 63.3121L134.315 61.8821L133.61 65.3631L135.852 68.0242L132.409 68.2072ZM142.467 79.3732L140.543 78.5922L138.765 79.7872L138.886 77.6172L137.162 76.3692L139.231 75.7832L139.894 73.8412L141.128 75.6102L143.187 75.6302L141.918 77.3462L142.467 79.3732ZM101.459 96.1263C98.0064 94.2823 91.996 92.3053 88.8195 91.0593C84.6738 89.4523 77.2728 83.7443 78.2401 75.9762C79.8533 63.0961 104.019 67.3372 120.073 75.4012C127.034 78.8952 136.341 85.6763 140.921 90.1023C146.164 95.1703 147.084 96.8653 147.431 102.233C147.443 105.51 146.533 108.461 145.419 110.796C146.218 110.232 148.375 109.351 148.439 109.267C148.506 108.973 148.548 108.387 148.548 108.387C150.845 97.5673 146.164 88.7583 142.483 85.3073C138.897 81.9332 140.608 84.4513 141.799 86.0003C142.644 87.0883 143.046 87.7363 143.404 88.4113C145.276 91.9683 144.389 91.5243 141.909 88.9873C137.025 83.9933 128.521 77.6482 120.71 73.7322C110.04 68.3912 96.9772 65.8441 89.7329 66.0801C92.7217 64.6931 94.3658 64.5491 97.4334 64.2361C100.153 63.9631 99.0895 63.4211 97.4334 63.5431C91.6166 63.9881 78.6604 64.1931 76.6349 74.3702C74.9139 83.0073 81.9206 90.3663 88.7017 93.0223C94.5205 95.2923 100.67 97.9933 100.812 98.0583C100.845 97.9623 100.886 97.8753 100.919 97.7873L101.459 96.1263Z" fill="#003087"/>
<path d="M57.4188 186.96C57.6903 186.893 57.906 186.64 58.2434 186.259C58.8164 185.62 59.5101 184.65 59.7068 183.646C59.8366 183.212 59.575 183.416 59.4772 183.617C59.3794 183.814 57.5696 186.12 56.6162 186.367C56.4785 186.401 56.4126 186.336 56.4206 186.671C56.4875 186.87 56.738 187.125 57.4188 186.96Z" fill="white"/>
<path d="M64.5702 178.481C65.0463 177.446 66.1274 175.383 67.3184 173.149C64.7299 177.91 61.7212 183.175 59.9104 185.521L59.6408 185.852C59.554 185.975 59.3264 186.089 59.2385 186.179C59.1307 186.288 59.1727 186.38 59.1068 186.439C59.0439 186.51 59.1317 186.569 59.0888 186.634C59.0429 186.718 58.8592 186.79 58.7943 186.87C58.6426 187.03 58.6965 187.177 58.5677 187.3C58.3411 187.517 57.9837 187.653 57.9837 187.653C57.5914 187.72 57.7242 188.255 58.0586 188.384C58.2423 188.456 58.427 188.572 58.6106 188.68C58.7614 188.774 58.9131 188.831 59.0638 189.041C59.1826 189.208 58.988 189.448 58.969 189.672C58.958 189.847 59.0329 190.019 58.9031 190.148C58.7284 190.322 58.3381 190.41 58.0137 190.316C57.6244 190.194 57.1262 189.904 56.67 189.679C56.097 189.406 55.5889 189.218 55.4462 189.239C55.3154 189.259 55.014 189.331 54.9261 189.469C54.8622 189.563 54.8303 189.685 55.003 189.825C55.0788 189.89 55.3174 190.032 55.4562 190.106C55.6628 190.221 55.8475 190.417 56.108 190.555C56.2158 190.605 56.3117 190.517 56.4085 190.561C56.5313 190.613 56.6601 190.803 56.8098 190.881C56.9835 190.968 57.2211 191.12 57.3838 191.186C57.4916 191.235 57.5924 191.437 57.6972 191.502C57.7541 191.544 57.817 191.452 57.8719 191.475C58.0666 191.577 58.2303 191.605 58.3581 191.707C58.5667 191.881 58.8253 192.06 59.0728 192.148C59.4741 192.3 59.8545 192.148 60.0152 191.425C60.2667 190.259 60.5892 188.928 60.8417 188.025C60.8956 187.835 61.0354 187.436 61.23 186.894C61.264 186.788 61.1751 186.678 61.2101 186.568C61.9907 184.435 63.5729 180.659 64.5702 178.481ZM116.172 91.029C116.172 91.029 116.887 89.844 116.855 89.91C115.058 87.446 111.709 86.068 108.656 86.165C108.405 87.36 97.4015 114.333 94.0105 120.878C90.7822 127.115 82.0715 144.737 80.7628 147.137C81.771 145.184 111.959 93.677 114.689 88.966C114.689 88.966 115.491 89.422 115.369 90.093C112.618 94.239 95.3631 123.256 93.9246 126.066C92.4932 128.875 82.1054 146.66 75.5838 159.356C75.5838 159.356 101.983 114.291 103.031 112.415C104.06 110.57 115.479 92.09 116.172 91.029ZM68.3166 175.871C68.2407 175.993 68.1559 176.107 68.08 176.228C68.0481 176.281 68.09 176.361 68.067 176.414C67.9922 176.579 67.8844 176.723 67.8195 176.89C67.7975 176.948 67.8315 177.034 67.8065 177.078C67.6029 177.409 67.547 177.737 67.3004 178.033C67.2674 178.075 67.3104 178.163 67.2874 178.215C67.2664 178.256 67.1806 178.258 67.1706 178.293C67.0488 178.742 66.7244 179.038 66.5188 179.43C66.4878 179.485 66.5088 179.559 66.5088 179.625C66.4439 179.603 66.399 179.644 66.388 179.696C66.3471 179.861 66.2822 180.006 66.2283 180.152C66.1843 180.275 66.0446 180.392 66.0216 180.506C65.9567 180.755 65.7162 180.904 65.7291 181.165C65.5345 181.23 65.5984 181.297 65.5894 181.362C65.5874 181.424 65.5335 181.476 65.4916 181.52C65.3288 181.701 65.244 181.947 65.1761 182.179C65.1122 182.374 64.9585 182.513 64.8856 182.705C64.8736 182.743 64.8966 182.795 64.8746 182.83C64.8108 182.925 64.9385 183.025 64.9166 183.112C64.8856 183.213 64.647 183.381 64.6041 183.473C64.5812 183.53 64.5512 183.508 64.5283 183.553C64.2787 183.964 64.3336 184.369 64.117 184.775C64.083 184.848 63.9343 184.965 63.8904 185.028C63.5969 185.404 63.6728 185.889 63.3902 186.242C63.4352 186.439 63.2715 186.584 63.2495 186.766C63.2405 186.823 63.2824 186.858 63.2735 186.91C63.2605 187.084 63.1966 187.221 63.1646 187.378C63.0609 187.969 62.9347 188.555 62.7863 189.137C62.6665 189.602 62.3531 189.804 62.2982 190.303C62.2782 190.454 62.417 190.455 62.4269 190.51C62.4389 190.583 62.4509 190.65 62.5048 190.693C62.5577 190.735 62.6116 190.686 62.6246 190.634C62.7524 190.258 62.7633 189.991 62.936 189.623C63.0019 189.477 62.7853 189.274 62.8392 189.109C62.9919 188.623 63.524 188.195 63.6727 187.698C63.9023 187.61 63.7067 187.349 63.7955 187.169C63.8255 187.117 63.8714 187.11 63.9233 187.088C64.0112 187.046 63.8365 186.916 63.8704 186.844C63.9972 186.611 64.2477 186.395 64.4005 186.178C64.5063 186.027 64.6271 185.896 64.691 185.751C64.7908 185.498 64.9415 185.339 64.9415 185.093C64.9425 184.809 65.256 184.574 65.244 184.291C65.236 184.219 65.3298 184.152 65.3428 184.089C65.4277 183.719 65.4626 183.371 65.6024 183.017C65.6463 182.903 65.6143 182.763 65.6143 182.626C65.788 182.642 65.5924 182.424 65.7441 182.425C65.6992 182.263 65.787 182.098 65.8409 181.975C66.0586 181.498 66.2323 180.983 66.3391 180.429C66.361 180.304 66.4688 180.211 66.5128 180.089C66.5347 180.03 66.4928 179.942 66.5257 179.906C66.6116 179.812 66.6555 179.697 66.7733 179.617C66.7953 179.602 66.7723 179.537 66.7843 179.495C66.8382 179.343 67.0319 179.277 67.0548 179.091C67.0558 179.062 67.1516 179.053 67.1636 179.018C67.3383 178.564 67.542 178.207 67.6598 177.746C67.7167 177.492 68.0521 177.304 68.0311 177.02C68.0311 177 68.1279 176.979 68.1379 176.948C68.2337 176.653 68.2148 176.405 68.3975 176.145C68.4304 176.097 68.3965 176.015 68.4094 175.957C68.4284 175.902 68.637 175.891 68.648 175.871C68.7988 175.639 68.6909 175.277 68.7648 175.026C68.6081 175.335 68.4583 175.644 68.3166 175.871ZM110.778 103.344C111.208 102.702 117.938 92.655 117.978 92.19C118.012 91.677 117.633 91.069 117.429 90.898C117.093 91.44 113.333 97.528 110.051 102.636C95.9391 125.564 71.2075 169.432 69.7671 172.81C69.7122 172.94 69.3987 173.808 69.3448 173.93C69.2689 174.097 69.3787 173.982 69.2569 174.154C69.0862 174.371 68.9325 174.676 68.7798 174.987C68.8447 174.869 69.0643 174.799 69.1402 174.697C69.202 174.624 69.1831 174.533 69.248 174.479C69.2679 174.466 69.236 174.436 69.237 174.429C69.2709 174.341 69.2799 174.293 69.3558 174.219C69.3887 174.189 69.4107 174.124 69.3977 174.059C69.4426 174.102 69.4107 173.989 69.4626 174.025V173.928L69.5405 173.776C71.3583 170.37 95.3841 126.814 110.778 103.344Z" fill="white"/>
<path d="M106.78 87.7734L106.119 87.9134C105.568 89.9525 100.226 106.967 89.1672 128.04C91.2785 125.132 101.614 103.389 106.78 87.7734ZM72.0433 164.379C72.1082 164.175 72.5634 163.275 72.0423 164.182C71.641 164.987 70.5579 167.09 69.1733 169.694C70.7096 166.863 72.0114 164.469 72.0433 164.379Z" fill="white"/>
</g>
<defs>
<clipPath id="clip0_18_1278">
<rect width="200" height="200" fill="white"/>
</clipPath>
</defs>
</svg>
