<svg width="200" height="200" viewBox="0 0 200 200" fill="none" xmlns="http://www.w3.org/2000/svg">
<path d="M189.729 170.374C186.916 173.748 170.283 190.129 155.904 199.999C153.523 165.601 136.994 143.455 109.956 124.608L109.949 124.645C109.105 142.977 109.011 159.08 109.665 170.374C110.231 180.106 114.89 186.024 122.497 192.243C112.62 194.508 83.7267 194.08 73.8685 190.97C74.9925 190.127 87.1975 183.365 88.2451 161.32C88.9869 145.519 89.0807 133.81 88.5284 114.471L87.3768 109.51C74.2007 99.7913 62.7202 89.8322 47.9218 73.8159C61.4576 109.675 44.2634 154.27 42.2967 170.65C41.6221 176.152 39.8877 187.295 40.44 198.727C36.2232 196.183 19.1666 185.043 11 174.315C34.821 133.534 52.0224 93.4332 14.6583 57.0099C21.7203 46.4334 32.143 36.9774 40.44 32.8855C49.1935 58.1426 68.3687 78.1863 82.1869 86.9485C71.6052 47.7038 58.0642 34.8631 49.4758 30.4794C55.109 17.2489 73.7248 3.53876 83.5962 0C79.0758 14.6795 78.6987 24.2856 83.1621 39.9488C87.6826 55.7497 94.7241 74.9486 102.62 89.3414C106.852 82.0006 121.795 50.9661 125.736 37.3927C129.692 23.858 129.692 11.7091 127.995 2.97039C136.589 7.32751 155.06 24.6907 159.284 33.1508C150.27 35.1406 146.033 39.761 140.689 48.9773C135.186 58.4334 121.231 94.1526 113.481 109.538C121.653 116.589 135.899 125.477 147.17 139.025C134.768 90.174 147.455 53.0814 163.806 41.9131C171.413 44.1681 181.145 50.3997 188.185 57.715C161.687 68.8701 163.392 102.764 163.239 105.294C162.04 124.709 169.861 159.233 184.553 167.655C187.733 169.482 188.061 169.594 189.733 170.375C186.92 173.749 170.287 190.13 155.908 200" fill="#132448"/>
</svg>
