<svg width="200" height="200" viewBox="0 0 200 200" fill="none" xmlns="http://www.w3.org/2000/svg">
<path d="M99.7585 198.534C154.248 198.534 198.425 154.356 198.425 99.8671C198.425 45.3778 154.248 1.20312 99.7585 1.20312C45.2651 1.20312 1.0918 45.3791 1.0918 99.8671C1.0918 154.356 45.2651 198.534 99.7585 198.534Z" fill="white"/>
<path d="M99.7585 7.30078C48.7078 7.30078 7.18115 48.8314 7.18115 99.8781C7.18115 150.925 48.7091 192.451 99.7585 192.451C150.801 192.451 192.334 150.925 192.334 99.8781C192.334 48.8314 150.8 7.30078 99.7585 7.30078Z" fill="#FF5910"/>
<path d="M179.095 136.451C178.879 136.918 178.66 137.385 178.44 137.85C177.192 140.421 175.819 142.93 174.324 145.366C173.066 147.423 171.721 149.426 170.295 151.37C167.726 154.89 164.896 158.211 161.828 161.306C153.185 170.047 142.801 176.873 131.348 181.339C132.448 180.794 133.06 180.473 134.747 178.649L133.563 178.35C132.096 179.818 130.529 181.215 127.78 182.313L129.431 182.059C128.156 182.521 126.873 182.954 125.571 183.358L127.229 181.762L125.867 181.229C125.211 182.207 124.196 183.215 122.139 184.339C114.835 186.276 107.311 187.255 99.7548 187.251C75.4135 187.251 53.3735 177.243 37.5148 161.135C31.0388 154.564 25.6416 147.011 21.5228 138.755C21.3015 138.315 21.0828 137.873 20.8695 137.427C18.1574 131.754 16.0704 125.803 14.6455 119.679C14.5388 119.214 14.4388 118.745 14.3388 118.274C14.3028 118.122 14.2668 117.97 14.2361 117.815C13.0026 111.916 12.3815 105.905 12.3828 99.8779C12.3828 88.1992 14.6895 77.0552 18.8628 66.8686C18.5895 68.1792 18.6535 69.2939 18.9708 70.5686C17.5041 72.0352 16.4775 73.7126 15.8575 76.0632L17.0548 76.7966C17.4361 74.8792 18.9708 72.3992 20.2548 70.9366C19.3388 67.8219 20.7188 66.0579 21.2681 63.8592L20.2761 63.6059C26.1413 50.8269 34.9871 39.6418 46.0708 30.9899C45.5295 31.9472 44.9015 33.1632 44.6135 34.1126L45.8975 33.2912C45.8975 33.2912 47.3908 30.8072 48.8308 28.9246C51.6419 26.9013 54.5701 25.0461 57.6002 23.3686L55.2081 24.7486C52.8468 27.5339 52.5335 29.3219 51.6708 31.3659L54.4335 30.6672C54.9268 28.9166 56.2508 25.3206 58.7402 22.7499C71.3597 16.0092 85.4491 12.4902 99.7562 12.5059C133.037 12.5059 162.029 31.2126 176.775 58.6619C176.899 59.5272 177.277 61.7206 176.652 62.0326C176.865 63.7552 175.889 65.6779 175.225 66.8139L175.959 69.2859C177.097 67.9126 177.955 65.4112 177.833 64.0286C178.629 63.4406 178.26 62.3366 178.253 61.5406C178.924 62.9045 179.559 64.2859 180.156 65.6832C180.06 66.1832 179.743 67.6072 179.147 68.3459C179.484 69.9446 178.747 71.5752 178.068 72.7672L178.981 75.0579C179.393 74.7832 180.577 71.7166 180.557 70.0246C180.997 69.4432 181.113 68.8126 181.214 68.2739C181.746 69.6497 182.246 71.0381 182.712 72.4379C182.629 73.1352 182.406 74.4766 181.86 74.9912C182.2 76.5246 181.46 77.6206 180.997 78.6312L181.824 80.9206C181.824 80.9206 183.197 77.8539 183.163 76.7499C183.389 76.2379 183.6 75.9366 183.675 75.5366C184.152 77.1857 184.583 78.8482 184.965 80.5219C184.659 81.9539 183.848 83.3072 183.199 84.7672L183.379 86.1432C183.379 86.1432 184.476 84.7726 185.452 82.8166C185.66 83.8539 185.845 84.8992 186.013 85.9472C185.836 86.4779 185.057 88.7486 184.573 89.0726L184.752 90.0792C184.752 90.0792 185.723 88.7766 186.299 87.8579C186.843 91.7872 187.128 95.8006 187.128 99.8792C187.13 105.607 186.569 111.321 185.452 116.939C184.115 123.673 181.981 130.222 179.095 136.451Z" fill="white"/>
<path d="M98.6296 15.4863L98.0896 19.7717L96.9056 21.0517V29.9783L93.9856 32.173V38.589L92.0882 39.869V52.8823H83.8216V42.729H71.7336V52.6197L69.1709 53.717V71.6703H60.3736V56.6463L59.4576 55.7357V47.8583H58.5456L56.3856 39.5703C56.4602 39.1757 56.5109 38.673 56.5109 38.1143C56.5109 36.865 56.2722 36.377 55.9882 36.377C55.7042 36.377 55.4736 36.865 55.4736 38.1143C55.4736 38.7317 55.5296 39.289 55.6202 39.6957L53.4176 47.8583H52.5016V55.7357L51.5816 56.6463V72.989H41.8749V71.913C41.3229 74.109 39.8762 77.7783 40.5922 80.793L40.3589 80.641L41.1362 81.1983C39.1229 81.749 35.8242 84.493 35.0922 86.509L33.2642 85.0437C34.1736 82.317 36.4976 81.7157 39.2176 79.9157L38.5749 79.509C38.4642 76.8343 38.4762 73.8557 39.9402 70.7423L41.8749 71.913L41.8762 60.9077C41.8762 59.257 39.4896 59.2143 39.4896 59.2143V56.269L37.4722 55.717L37.2909 54.4503L36.7469 54.2637L36.1936 54.4503L36.0122 55.717L33.9949 56.269V59.2117C33.9949 59.2117 31.6136 59.0717 31.6136 61.0877V76.833L27.7682 79.365V88.7063L26.3029 89.533V96.6743L24.9296 97.501V110.778H22.1789V97.5917H21.5389L19.8896 83.237L19.0682 83.2103L17.3216 97.5903H16.3162V108.121H14.2069C14.2069 108.121 12.8962 109.233 12.9629 109.788C13.2669 112.504 13.6922 115.181 14.2376 117.817C14.2682 117.972 14.3042 118.124 14.3416 118.274C14.4402 118.745 14.5402 119.218 14.6482 119.684C16.073 125.808 18.1609 131.759 20.8749 137.43C22.7749 136.141 24.6762 134.373 24.6989 134.353L24.9149 134.154H30.1389L30.3456 134.324C46.5536 147.857 76.6362 153.622 95.6176 154.537L94.2656 153.918C96.0962 152.638 98.4776 149.821 98.6602 149.088L100.026 150.738C99.1856 152.082 97.8162 153.628 96.6069 154.584C97.7357 154.629 98.8652 154.658 99.9949 154.67C121.255 154.861 154.243 146.146 169.467 132.868L169.67 132.686H175.21L175.896 133.377L179.098 136.453C181.984 130.224 184.117 123.673 185.454 116.94L184.578 114.905H180.546V106.109H176.146V111.242H172.487V64.3423H162.224V88.1583H154.534V60.3103L153.138 59.1143V55.813L150.131 54.4517V50.4383H145.123V54.4517L142.115 55.8117V59.1143L140.728 60.3103V65.8117H133.279V49.6903H127.052V41.9943H123.026V37.9677H113.866V41.9943H110.564V54.8183H105.599V39.869L103.698 38.5903V32.1743L100.778 29.9783V21.0517L99.6882 19.7717L99.2389 15.4863H98.6296ZM170.186 134.156C168.43 135.66 166.444 137.106 164.287 138.489V157.281H165.575C167.234 155.381 168.811 153.41 170.302 151.374V134.156H170.186ZM174.328 134.156V145.369C175.823 142.934 177.196 140.426 178.443 137.854L174.856 134.406L174.606 134.156H174.328ZM29.4749 135.621V151.729C30.8395 153.575 32.2762 155.367 33.7816 157.1L35.6962 157.105V139.908C33.5362 138.573 31.5042 137.152 29.6509 135.622H29.4736L29.4749 135.621ZM25.4429 135.66C24.9256 136.126 23.2669 137.606 21.5269 138.757C22.7231 141.158 24.0298 143.503 25.4429 145.784V135.66ZM162.823 139.406C161.031 140.488 159.197 141.5 157.326 142.438V157.273L162.823 157.278V139.406ZM37.1602 140.793V157.109L42.6562 157.117V143.682C40.7855 142.794 38.952 141.831 37.1602 140.793ZM155.86 143.165C154.052 144.034 152.219 144.852 150.364 145.618V157.264L155.86 157.273V143.165ZM44.1269 144.365V157.117L49.6176 157.122V146.669C47.7642 145.957 45.9327 145.189 44.1256 144.366L44.1269 144.365ZM148.9 146.216C147.084 146.939 145.251 147.621 143.403 148.26V157.256L148.899 157.264L148.9 146.216ZM51.0829 147.218V157.125L56.5829 157.134V149.089C54.7343 148.511 52.9004 147.888 51.0829 147.218ZM141.934 148.765C140.126 149.373 138.292 149.944 136.442 150.48V157.242L141.935 157.25L141.934 148.765ZM58.0469 149.542V157.134L63.5402 157.142V151.076C61.6988 150.602 59.8673 150.091 58.0469 149.542ZM134.978 150.9C133.152 151.41 131.318 151.886 129.482 152.329V157.234L134.978 157.242V150.9ZM65.0096 151.448V157.148L70.5056 157.156V152.701C68.6658 152.318 66.8334 151.9 65.0096 151.448ZM128.018 152.674C126.178 153.098 124.343 153.486 122.522 153.837V157.221L128.018 157.229V152.674ZM71.9656 153.008V157.156L77.4656 157.165V154.014C75.6522 153.716 73.8189 153.381 71.9656 153.008ZM121.051 154.11C113.512 155.476 106.246 156.194 99.9829 156.137C94.1616 156.086 86.8149 155.494 78.9296 154.252V157.165L121.05 157.225L121.051 154.11ZM37.5189 161.14C53.3762 177.249 75.4189 187.254 99.7576 187.254C107.492 187.254 114.994 186.237 122.139 184.342C124.196 183.217 125.21 182.21 125.868 181.232L127.228 181.764L125.57 183.357C126.868 182.957 128.156 182.525 129.432 182.061L127.782 182.316C130.528 181.216 132.098 179.82 133.563 178.354L134.747 178.652C133.063 180.478 132.452 180.792 131.351 181.34C142.803 176.872 153.187 170.047 161.831 161.308L109.155 161.234L109.715 161.818C108.434 163.834 105.436 166.653 103.422 167.752L101.955 166.472C103.939 165.556 106.311 163.008 107.586 161.23L37.5189 161.14Z" fill="#002D72"/>
<path d="M110.605 110.885C111.832 110.154 112.82 110.325 113.132 110.68C113.221 110.782 113.265 110.917 113.265 111.078C113.265 111.404 113.077 111.828 112.715 112.276C111.232 114.137 108.317 115.292 106.36 115.662C107.12 114.068 108.644 112.05 110.605 110.885ZM114.195 113.458C114.891 112.592 115.163 111.774 115.163 111.078C115.163 110.406 114.909 109.842 114.559 109.436C113.511 108.229 111.487 108.156 109.637 109.256C106.739 110.976 104.504 114.325 104.012 116.57L103.777 117.646L104.88 117.716C107.176 117.862 111.943 116.276 114.195 113.458ZM150.768 81.9435L138.075 82.0502C138.075 82.0502 133.816 91.0755 133.363 92.0315L124.3 92.1849L119.789 101.377L129.017 101.017C127.981 103.277 123.368 113.288 123.368 113.288C121.097 117.668 114.84 125.922 107.517 125.529C106.277 125.462 105.667 124.733 105.313 123.516C114.369 122.432 118.471 118.898 120.049 116.785C121.659 114.625 122.476 112.385 122.476 110.314C122.487 108.782 122.004 107.286 121.097 106.05C118.644 102.698 113.512 101.656 108.331 103.456C99.9786 106.357 93.6066 115.14 93.6066 123.301C93.6066 123.736 93.6479 124.168 93.6866 124.601C93.2812 124.924 92.8106 125.217 92.5532 125.193C92.5346 125.189 92.4959 125.188 92.4266 125.082C89.0106 119.416 105.347 89.6062 111.496 78.3822L112.265 76.9795H97.4706L97.1906 77.2595C92.2546 82.2209 86.1266 92.4142 81.1999 100.602C81.1999 100.602 80.0159 102.538 78.8692 104.418L80.0986 99.4515C81.8879 91.8715 84.1172 82.4382 86.3412 78.2849L87.0906 76.8809L85.4946 76.8929L73.3159 76.9835L73.0359 77.3209C70.1692 80.7742 66.7092 88.7742 63.0506 97.2462C58.0279 108.856 51.1599 124.756 46.9892 123.556C46.8012 123.501 46.6546 123.406 46.5572 123.128C45.9332 121.377 48.1012 116.408 50.4426 113.042L52.1332 110.609L41.8292 114.309L41.6706 114.486C38.2399 118.266 35.1586 125.349 36.1652 130.202C36.6412 132.486 37.9772 134.181 40.0252 135.108C42.7719 136.349 45.6319 136.41 48.5239 135.288C56.1426 132.334 62.1639 121.994 65.3959 115.282C63.7959 122.821 61.2612 130.798 59.4466 133.648L58.5186 135.105H70.2292L70.5146 134.732C71.9519 132.852 74.0879 129.325 76.5599 125.241C78.2741 122.406 80.0226 119.593 81.8052 116.801C80.8546 119.518 80.2052 122.294 80.2052 124.884C80.2052 127.065 80.5639 129.078 81.3132 130.705C82.5159 133.305 84.6266 134.886 87.4159 135.27C91.6226 135.746 95.1932 133.124 96.7946 131.549C97.4719 132.268 98.1319 132.989 99.0506 133.562L99.0772 133.578C102.472 135.565 111.996 136.302 119.064 129.436C120.033 131.949 122.104 133.805 124.904 134.449C128.421 135.257 132.484 133.977 135.561 131.344C137.273 132.533 139.204 133.717 141.151 134.065C152.071 136.012 157.467 127.574 158.249 123.426C158.533 121.914 158.652 120.546 158.652 119.289C158.652 116.137 157.917 113.729 157.287 111.68C156.833 110.192 156.457 108.973 156.457 107.8C156.457 106.744 156.764 105.725 157.585 104.592L158.239 103.698L152.577 100.789C155.24 100.749 159.133 100.686 159.133 100.686L162.853 91.6195L146.032 91.8795C147.011 89.8329 150.768 81.9435 150.768 81.9435ZM149.671 100.833C147.727 102.249 144.317 106.286 137.18 115.318C135.255 117.758 133.2 120.349 131.876 121.902C132.016 121.508 132.165 121.098 132.412 120.617C132.412 120.617 141.629 101.036 141.665 100.956L149.671 100.833ZM142.737 120.266C144.417 117.642 145.883 115.804 147.276 114.125L147.361 115.006C147.541 116.456 147.716 117.846 147.716 119.414C147.716 120.192 147.672 121.014 147.567 121.908C147.425 123.09 146.588 124.844 145.316 125.756C144.938 126.036 144.504 126.231 144.044 126.328C143.584 126.425 143.108 126.421 142.649 126.316C142.343 126.252 141.967 125.958 141.817 125.452C141.769 125.295 141.745 125.132 141.745 124.968C141.745 124.144 142.281 123.152 143.264 122.168L143.911 121.517L142.737 120.266ZM140.004 125.994C140.327 127.094 141.215 127.949 142.257 128.17C142.974 128.329 143.716 128.334 144.435 128.183C145.153 128.032 145.831 127.73 146.424 127.297C148.233 125.994 149.259 123.704 149.447 122.128C149.793 119.21 149.511 116.957 149.245 114.774L148.703 109.446L147.252 111.166L145.988 112.704C144.384 114.634 142.724 116.628 140.725 119.864L140.339 120.48L141.375 121.586C140.319 122.908 139.857 124.102 139.857 124.962C139.857 125.377 139.92 125.725 140.004 125.994Z" fill="white"/>
<path d="M89.132 17.5352L85.9293 17.9938C85.2893 19.2765 83.548 21.1978 82.724 21.8392C83.5906 22.2045 84.28 23.0285 84.0973 28.9858L86.98 28.8045C86.7973 22.2058 85.5626 22.2058 85.104 22.2058C86.1106 21.5658 89.132 17.5352 89.132 17.5352ZM94.9053 17.8112C94.4453 18.9098 91.0573 21.0152 90.2333 21.6578C90.3906 21.7872 90.9226 21.9552 91.3746 22.3232C92.1893 22.9805 93.3386 24.8805 93.2586 29.0298L95.816 29.2098C95.68 24.4485 94.4906 22.9245 94.0226 22.5432C93.6853 22.1698 92.956 22.1112 92.6146 22.0205C94.5506 21.2538 97.5573 18.0845 97.5573 18.0845L94.9053 17.8112ZM80.3386 17.9018L77.5946 18.1752C77.3146 19.6405 76.492 21.4738 75.668 22.1152C76.5826 23.7658 76.584 26.1445 75.1186 29.1672L77.8666 28.9858C79.3333 25.3218 78.9653 23.4858 78.144 22.2058C79.1493 21.5645 80.3386 17.9018 80.3386 17.9018ZM73.0146 18.8138L69.9893 19.6432C69.6253 21.2925 68.888 22.3898 68.0666 23.0312C68.9413 23.3245 68.5133 24.3858 67.9546 25.7712C67.4613 26.9978 66.8306 27.9312 66.14 29.3525L68.888 29.1658C70.724 26.0498 72.096 23.0285 70.724 22.6645C71.7306 22.0218 73.0146 18.8138 73.0146 18.8138ZM106.623 18.9085C104.703 21.1085 102.959 21.9312 102.137 22.5738C103.6 23.3072 104.793 25.7792 104.428 29.5338L107.361 30.2645C107.176 25.5018 106.076 23.6685 104.704 23.3045C105.711 22.6618 109.648 19.1818 109.648 19.1818L106.623 18.9085ZM66.0066 20.4818L63.2626 20.9965C62.7786 22.3298 62.0653 23.3765 61.1573 24.0378C61.3933 25.4672 60.8986 26.7458 58.816 29.9018L61.396 29.5685C63.9093 26.3338 63.688 24.8125 63.66 23.7018C64.744 23.0405 66.0066 20.4818 66.0066 20.4818ZM114.504 20.5592C113.407 21.8432 111.299 22.8458 110.477 23.4845C111.387 25.1365 113.772 27.7925 113.407 31.5485L115.969 31.9152C115.236 25.8698 114.143 24.9552 112.768 24.5872C113.775 23.9458 117.528 21.0138 117.528 21.0138L114.504 20.5592ZM123.112 22.7552C122.471 24.0378 120.823 24.6792 119.996 25.3218C120.915 26.9698 122.565 29.7192 122.2 33.4752L125.04 34.2965C124.488 28.8018 123.847 26.4205 122.472 26.0565C123.479 25.4138 125.955 23.2125 125.955 23.2125L123.112 22.7552ZM131.175 25.5938C130.533 26.8765 128.883 27.5192 128.059 28.1605C128.979 29.8085 130.443 31.8245 130.077 35.5792L132.821 36.6765C132.271 30.9965 131.725 29.5352 130.355 29.1672C132.001 28.2512 134.017 26.3272 134.017 26.3272L131.175 25.5938ZM139.781 28.8045C139.141 30.0845 137.492 30.3578 136.671 30.9992C137.584 32.6472 139.235 35.1205 138.871 38.8765L141.8 40.3405C141.615 35.7618 140.517 32.6472 139.143 32.2818C140.973 31.4578 142.535 29.7152 142.535 29.7152L139.781 28.8045ZM147.02 32.2818C146.377 33.1978 144.735 33.8405 143.908 34.4818C144.824 36.1298 146.564 38.2365 146.199 41.9912L149.124 43.6378C148.944 38.8752 147.845 35.8538 146.471 35.4885C147.845 34.8472 149.496 33.1978 149.496 33.1978L147.02 32.2818ZM153.889 36.3085C153.249 37.5925 152.427 37.5045 151.6 38.1458C152.517 39.7938 154.255 43.1805 153.889 46.9392L156.452 48.7658C156.084 42.9045 155.445 39.7018 154.071 39.3338C155.077 38.6925 156.084 37.5925 156.084 37.5925L153.889 36.3098V36.3085ZM161.223 40.9845C160.945 41.9912 159.84 42.3578 159.019 42.9978C159.935 44.6472 160.667 48.3085 160.303 52.0645L162.864 53.9005C163.051 48.2205 162.221 45.9298 161.309 44.1912C162.316 43.5498 162.864 42.6312 162.864 42.6312L161.223 40.9845ZM167.721 46.5672C167.444 47.5765 166.625 47.9445 165.799 48.5858C166.255 50.6018 167.172 53.5312 166.624 56.4618L168.633 58.5672C169.095 55.2698 168.82 51.7898 168.269 50.0498C168.912 49.5912 169.553 48.5858 169.553 48.5858L167.721 46.5672ZM172.759 52.9805C172.759 53.3698 172.803 55.8938 172.072 56.2605C172.288 57.9818 171.769 59.9058 171.109 61.0432L172.851 63.1512C173.713 61.4098 174.113 58.7232 173.987 57.3405C174.203 56.6178 174.433 56.7138 174.496 55.9138L172.759 52.9805ZM23.7346 64.1538C22.268 67.2672 22.632 70.1992 23.1853 72.3978C21.7173 73.8645 20.552 74.7485 19.6333 77.4965L21.0866 78.4125C21.268 76.3992 22.82 74.4165 24.6506 72.9512C23.7346 69.8378 25.0333 66.8752 25.584 64.6765L23.7346 64.1538ZM28.3146 65.4418C27.3293 68.7712 27.216 71.8472 27.7653 74.0485C26.2973 75.5152 24.2186 76.5672 23.3026 79.3152L25.116 80.2445C25.8493 78.2312 27.7666 75.5152 29.78 74.9645C28.86 71.8485 29.8813 68.4525 30.432 66.2538L28.3146 65.4418ZM34.0786 67.7058C32.9773 70.8192 33.4453 73.1885 33.8106 76.8525L34.1386 77.0125C32.6626 78.4525 29.7733 79.1978 28.8626 81.9218L30.6946 83.3912C31.4253 81.3752 34.5453 78.8098 36.5586 78.2618L36.0106 77.9512C35.0906 74.8365 35.644 70.9885 36.192 68.7912L34.0786 67.7058ZM39.9373 70.7392C38.4746 73.8552 38.4613 76.8272 38.572 79.5018L39.216 79.9125C36.496 81.7125 34.1693 82.3098 33.2626 85.0365L35.0946 86.5058C35.828 84.4898 39.1226 81.7418 41.1386 81.1912L40.352 80.6378L40.5906 80.7845C39.8706 77.7712 41.32 74.1085 41.8733 71.9098L39.9373 70.7392ZM46.268 75.1338C44.9853 78.1032 43.3373 83.2085 44.388 83.8538L44.92 84.5138C42.5253 85.4272 38.2 86.5232 37.6866 88.6578L39.42 90.2218C39.76 88.8005 42.9653 87.2352 46.4493 86.3205L45.8493 85.5765C45.76 82.5685 47.4733 78.7885 48.196 76.7965L46.2666 75.1352L46.268 75.1338ZM84.076 78.8018C81.9746 78.8192 75.0626 78.8698 74.268 78.8752C71.6053 82.2658 68.3 89.8818 64.788 98.0032C57.2053 115.547 51.8346 126.93 46.468 125.38C45.652 125.146 45.064 124.587 44.7746 123.768C44.6243 123.325 44.5521 122.858 44.5613 122.39C44.5613 119.964 46.0866 116.696 47.444 114.31C45.404 115.04 43.264 115.812 42.9546 115.926C40.264 118.966 37.864 124.174 37.864 128.167C37.864 128.748 37.912 129.3 38.02 129.818C38.3773 131.532 39.2906 132.698 40.8026 133.383C43.104 134.423 45.4026 134.471 47.8333 133.526C56.46 130.179 63.316 115.562 65.208 111.16C66.24 108.768 66.628 107.867 67.6146 108.158C68.1613 108.315 68.3413 108.668 68.3413 109.264C68.3413 109.678 68.2546 110.211 68.1466 110.884C68.1466 110.884 68.004 111.77 68.004 111.787C66.804 118.858 64.172 128.467 61.8293 133.215H69.2693C70.644 131.338 72.6373 128.072 74.9426 124.262C77.636 119.812 80.6906 114.766 83.4213 110.928C85.9733 107.33 86.3013 106.871 87.2106 107.419C88.112 107.964 87.86 108.456 85.8573 112.406C82.3013 117.955 81.0653 125.651 83.0306 129.919C83.964 131.932 85.5293 133.104 87.6546 133.398C91.7013 133.854 95.2813 130.575 96.016 129.668L96.772 128.735L97.5026 129.69C98.18 130.575 98.9946 131.292 100.048 131.954C102.701 133.496 111.664 134.47 118.165 127.74L118.269 127.598L119.38 126.938L119.92 126.691L120.327 127.723C120.327 127.723 120.531 128.232 120.624 128.423C121.653 131.228 123.752 132.244 125.325 132.606C128.476 133.328 132.232 132.131 134.909 129.552L135.476 129.007L136.116 129.46C137.775 130.639 139.712 131.887 141.481 132.204C151.971 134.074 155.963 125.346 156.388 123.083C156.655 121.69 156.761 120.436 156.761 119.29C156.761 116.432 156.088 114.238 155.477 112.242C155.001 110.687 154.557 109.242 154.557 107.775C154.557 106.703 154.916 105.598 155.547 104.447C154.167 103.734 151.565 102.402 151.079 102.152C149.412 102.915 142.715 111.376 138.669 116.499C131.573 125.483 131.493 125.444 130.528 124.971L129.728 124.038C129.32 122.812 130.177 120.835 130.723 119.764C130.723 119.764 139.957 100.148 139.944 100.186L140.393 99.0845L157.863 98.8178C158.179 98.0338 159.363 95.1498 160.015 93.5618C157.609 93.6018 143.012 93.8258 143.012 93.8258C143.012 93.8258 146.783 85.9018 147.756 83.8658C145.676 83.8858 140.183 83.9325 139.287 83.9392C138.828 84.9018 134.572 93.9085 134.572 93.9085L125.495 94.0632C125.143 94.7712 123.716 97.6845 122.889 99.3605L132.032 99.0072L125.075 114.122C122.409 119.27 115.688 127.868 107.415 127.426C105.695 127.332 103.559 126.471 103.133 122.892L103.021 121.924L103.989 121.839C113.239 121.026 117.069 117.612 118.533 115.655C120.859 112.539 121.235 109.446 119.571 107.174C117.615 104.496 113.347 103.727 108.957 105.25C100.891 108.05 94.6506 117.243 95.6013 124.919L95.6586 125.376L95.3346 125.7C95.08 125.955 93.7453 127.218 92.3653 127.079C91.7426 127.015 91.2173 126.688 90.8266 126.094C90.36 125.323 90.14 124.28 90.14 123.004C90.14 114.891 99.0266 97.2885 109.079 78.8792H98.3026C93.5653 83.7658 87.6226 93.6112 82.824 101.586C82.824 101.586 78.6373 108.432 78.5173 108.62C77.4746 110.203 77.1226 110.734 76.296 110.358C75.8826 110.172 75.716 109.923 75.716 109.498C75.716 109.052 75.9 108.415 76.1653 107.458L78.2533 99.0245C79.9973 91.6325 81.9693 83.5112 84.076 78.8018ZM51.496 79.4285C49.8453 84.1898 49.0173 86.6912 49.5653 89.0725L50.0786 89.6298C48.5826 90.1832 44.4493 91.3392 42.816 93.8858L44.2506 95.8485C45.5333 94.0178 49.3826 92.0032 51.9453 91.6352L51.392 91.0218C51.052 87.5538 52.6853 83.3792 53.4146 81.3778L51.496 79.4285ZM58.7386 87.3925C56.7386 90.2792 54.6973 94.0165 54.88 96.2152L55.3853 96.7725C51.6573 97.5885 49.6613 97.4885 47.1053 99.4992L48.744 101.892C50.024 100.062 54.6973 99.1432 57.26 98.7778L56.7066 98.1725C56.5573 95.2525 58.752 91.6098 60.3893 89.7898L58.7386 87.3925ZM56.8933 104.642C55.6093 105.007 53.5946 105.559 51.764 106.474L51.3666 106.674L52.1746 108.595C53.372 107.779 55.0813 107.182 56.708 106.928L56.8933 104.642ZM112.4 108.487C113.268 108.519 114.036 108.839 114.56 109.442C114.912 109.848 115.16 110.412 115.16 111.084C115.16 111.782 114.889 112.596 114.193 113.466C111.943 116.283 107.177 117.871 104.881 117.722L103.78 117.652L104.013 116.576C104.505 114.331 106.74 110.98 109.639 109.26C110.564 108.711 111.533 108.455 112.4 108.487ZM148.7 109.451L149.244 114.779C149.511 116.96 149.793 119.215 149.447 122.132C149.26 123.71 148.231 125.999 146.423 127.3C145.831 127.735 145.153 128.038 144.435 128.189C143.716 128.34 142.974 128.336 142.257 128.178C141.215 127.956 140.325 127.1 140.001 126C139.903 125.665 139.853 125.317 139.855 124.967C139.855 124.107 140.315 122.914 141.372 121.594C141.1 121.306 140.335 120.487 140.335 120.487L140.724 119.868C142.724 116.634 144.383 114.639 145.987 112.708L147.248 111.171L148.7 109.451ZM79.056 131.151C78.504 132.619 77.9546 133.347 78.3226 134.815L79.1986 135.908C77.0226 135.548 75.5613 135.639 73.3786 135.822L71.9093 137.75C73.376 137.75 78.5013 137.562 80.336 138.112L79.2986 136.038L79.7866 136.647C79.7866 136.647 79.7853 134.447 80.336 133.164L79.056 131.151ZM86.8466 137.282C85.1266 139.171 83.0706 141.848 83.092 143.068L83.7226 143.846C82.2026 143.498 77.6133 143.756 74.1786 144.118L75.5093 146.231C77.336 146.048 83.9493 145.95 85.78 146.318L85.0533 145.423C84.7106 144.447 84.9586 143.191 85.8186 142.044C86.712 140.855 88.312 139.144 89.8986 137.36C88.712 137.656 86.8466 137.282 86.8466 137.282ZM93.544 142.126C92.8093 143.227 87.5653 148.302 88.48 150.499L89.7733 150.936C89.7733 150.936 90.9706 151.658 89.6813 150.936C88.3653 150.2 81.688 149.836 78.2093 150.203L79.9426 152.683C81.7733 152.499 89.5133 152.219 91.3493 152.587C91.248 152.499 89.8466 151.187 90.2293 150.57C90.8773 149.524 91.7626 147.751 95.0613 144.399L93.544 142.126ZM98.656 149.035C98.4733 149.768 96.088 152.586 94.2573 153.866L95.6186 154.484C95.948 154.5 96.2773 154.518 96.604 154.531C97.8146 153.575 99.1813 152.023 100.021 150.682L98.656 149.035ZM107.588 161.182C106.313 162.956 103.936 165.499 101.953 166.414L103.417 167.698C105.433 166.596 108.431 163.782 109.713 161.77L109.152 161.182H107.588ZM99.2053 162.936C95.176 163.483 90.3826 163.667 88.1866 163.299L89.8626 165.226C93.3426 165.408 97.3733 165.043 100.307 164.31L99.2053 162.936ZM113.248 164.988C112.532 166.142 109.437 170.158 107.056 171.258L108.703 172.355C110.719 171.258 113.249 168.583 114.532 166.47L113.248 164.988ZM103.328 167.788C102.044 168.339 100.488 168.796 92.6413 168.712L94.4946 170.544C100.357 170.363 101.951 169.987 104.883 169.258L103.328 167.788ZM117.689 169.206C116.777 170.851 114.225 173.389 111.844 174.486L113.308 175.402C115.324 174.304 117.876 172.5 119.159 170.484L117.689 169.206ZM108.516 172.355C105.585 173.362 100.572 174.102 97.6413 173.734L100.021 175.384C103.317 175.567 107.417 174.371 110.348 173.638L108.516 172.355ZM122.072 172.515C121.159 174.163 118.8 175.942 116.419 177.039L117.309 177.54C116.576 178.46 115.471 180.079 109.507 181.343L111.64 182.064C117.315 180.967 119.353 178.229 118.071 178.046L117.643 177.726L118.069 177.964C120.087 176.866 122.256 175.544 123.54 173.531L122.072 172.515ZM126.215 175.004C124.388 177.203 123.383 178.192 120.637 179.291L121.696 179.745L121.553 179.696C120.607 180.947 119.051 182.363 114.74 183.343L117.236 183.884C120.377 183.516 123.748 180.43 122.649 180.064L122.149 179.895C124.136 178.811 125.501 178.099 127.499 175.735L126.215 175.004ZM112.851 175.207C110.469 177.223 107.725 178.054 104.061 178.422L106.183 179.696C110.027 179.511 114.956 176.766 114.039 175.847L112.851 175.207ZM129.984 176.91C128.701 178.558 127.603 179.663 125.223 180.763L126.497 181.305C128.513 180.207 129.065 179.658 131.267 177.278L129.984 176.91Z" fill="#FF5910"/>
<path d="M112.215 110.367C111.775 110.373 111.221 110.511 110.608 110.877C108.648 112.039 107.123 114.061 106.36 115.657C108.32 115.286 111.231 114.127 112.716 112.269C113.076 111.818 113.265 111.394 113.265 111.067C113.271 110.923 113.224 110.781 113.132 110.67C112.976 110.493 112.653 110.363 112.215 110.367ZM147.275 114.118C145.884 115.794 144.416 117.634 142.737 120.258C143.009 120.551 143.909 121.506 143.909 121.506L143.265 122.159C142.283 123.146 141.744 124.135 141.744 124.959C141.744 125.127 141.771 125.293 141.817 125.447C141.967 125.954 142.344 126.247 142.652 126.307C143.11 126.412 143.586 126.417 144.046 126.321C144.506 126.225 144.94 126.03 145.317 125.75C146.589 124.837 147.424 123.083 147.564 121.899C147.669 121.009 147.716 120.186 147.716 119.406C147.716 117.838 147.539 116.449 147.356 114.999C147.356 114.999 147.311 114.469 147.275 114.118Z" fill="#002D72"/>
</svg>
