<svg width="200" height="200" viewBox="0 0 200 200" fill="none" xmlns="http://www.w3.org/2000/svg">
<g clip-path="url(#clip0_18_1257)">
<path d="M161.167 116.85C161.167 116.85 159.15 124.105 155.015 124.448C153.326 124.582 151.904 123.49 151.516 122.983V99.2341C157.858 98.5598 169.749 93.3985 169.749 78.5992C169.749 66.1061 160.813 58.0025 151.516 55.0202V24.9882C151.904 24.4809 153.326 23.5267 155.015 23.5225C159.056 23.5225 161.167 31.1206 161.167 31.1206L164.915 26.2452C169.534 20.2315 168.982 11.2533 163.631 5.35246C159.013 0.268376 150.189 -2.6545 138.893 3.36768C127.606 -2.6545 118.783 0.268376 114.173 5.35246C108.814 11.2533 108.263 20.2306 112.881 26.2452L116.629 31.1206C116.629 31.1206 118.611 23.5225 122.781 23.5225C124.478 23.5267 125.891 24.4809 126.27 24.9882V59.9109C121.307 62.7651 116.741 66.3385 112.622 70.6075C107.823 64.7999 77.7005 28.364 74.1583 24.0772C74.7781 23.7719 75.5459 23.5267 76.3903 23.5225C80.8704 23.5199 82.5514 31.1206 82.5514 31.1206L86.2909 26.2452C90.9096 20.2315 90.3492 11.2533 84.9985 5.35246C80.3806 0.268376 71.5573 -2.6545 60.2699 3.36768C48.9816 -2.6545 40.1583 0.267528 35.5489 5.35246C30.1811 11.2533 29.6293 20.2306 34.2471 26.2452L37.996 31.1206C37.996 31.1206 39.8743 23.5225 44.1478 23.5225C45.8449 23.5225 47.2759 24.4809 47.6458 24.9882V55.2051C38.4356 58.3519 30 66.3529 30 78.5992C30 92.9617 41.1922 98.2374 47.6466 99.1526V122.984C47.2759 123.491 45.8458 124.47 44.1486 124.449C40.3309 124.385 37.9969 116.851 37.9969 116.851L34.248 121.729C29.6301 127.746 30.1811 136.723 35.5498 142.62C40.1591 147.704 48.9824 150.627 60.2699 144.61C71.5573 150.627 80.3806 147.704 84.9985 142.62C85.8776 141.649 86.5927 140.57 87.2134 139.453V170.142C87.2134 173.971 84.6116 177.083 82.7333 177.216C79.1919 177.466 77.5721 170.405 77.5721 170.405L73.8233 175.286C69.3347 181.126 69.7054 189.366 74.694 194.862C79.2523 199.886 88.17 202.654 99.8366 196.357C111.503 202.654 120.429 199.886 124.988 194.862C129.985 189.366 130.347 181.126 125.859 175.286L122.11 170.404C122.11 170.404 121.042 177.092 117.182 177.07C114.933 177.048 112.469 173.377 112.469 170.141V140.338C112.978 141.137 113.529 141.911 114.175 142.62C118.785 147.704 127.608 150.627 138.895 144.61C150.191 150.627 159.014 147.704 163.633 142.62C168.984 136.723 169.536 127.738 164.917 121.729L161.167 116.85ZM139.16 139.675L138.893 139.512L138.635 139.675C130.164 144.91 122.264 144.892 117.482 139.628C115.385 137.315 114.219 134.31 114.207 131.192C114.207 129.004 114.897 126.894 116.102 125.068C118.817 129.241 122.875 129.068 124.573 128.729C127.804 128.089 130.51 125.872 130.725 123.68C130.612 123.319 112.949 101.659 112.949 101.659L112.449 101.051L112.113 101.76C109.701 106.82 108.236 111.681 107.986 115.454V170.141C107.986 175.656 112.173 180.413 116.085 181.397C118.721 182.054 121.005 180.925 122.599 178.544C123.822 180.361 124.52 182.424 124.52 184.522C124.52 187.152 123.564 189.787 121.668 191.867C116.972 197.041 108.908 196.873 100.102 191.428L99.8349 191.265L99.5765 191.428C90.7701 196.873 82.6976 197.04 78.01 191.866C76.1755 189.858 75.1585 187.239 75.1582 184.522C75.1582 182.424 75.8469 180.361 77.0713 178.548C78.726 181.042 81.1033 182.227 83.8259 181.544C87.6862 180.573 91.6842 176.042 91.6842 170.142V114.69C90.5644 104.126 81.2581 87.3678 69.2037 79.1675L68.4198 78.639V123.444C68.4538 125.588 70.9961 127.866 74.1931 128.639C77.8289 129.525 81.009 128.063 83.025 124.987C84.274 126.826 84.9636 128.966 84.9636 131.192C84.9636 134.179 83.8523 137.24 81.6807 139.624C76.9072 144.893 68.9971 144.91 60.5275 139.676L60.269 139.513L60.0105 139.676C51.5409 144.911 43.6393 144.893 38.8573 139.625C36.6942 137.239 35.5744 134.18 35.5744 131.192C35.5744 128.97 36.2725 126.826 37.5215 124.987C39.5291 128.064 42.7091 129.525 46.3449 128.639C49.5419 127.866 52.0834 125.588 52.1183 123.452V75.0656L51.4117 75.4117C47.9561 77.086 45.5176 80.6136 44.8892 84.847C44.7872 85.5298 44.7344 86.2194 44.7336 86.9098C44.7336 89.8785 45.8628 92.5248 47.6288 94.6089C44.3119 93.949 34.4716 90.9625 34.4716 78.6C34.4716 67.4548 43.1402 60.5589 51.7305 58.67L52.1183 58.5852V24.5318C52.0842 22.3859 49.5419 20.1026 46.3449 19.3273C42.7091 18.4486 39.5291 19.9049 37.5215 22.989C36.2725 21.1484 35.5744 19.0025 35.5744 16.7827C35.5744 13.7911 36.6942 10.7351 38.8573 8.34489C43.6393 3.08014 51.5409 3.06063 60.0105 8.29485L60.269 8.4577L60.5275 8.29485C68.9886 3.06318 76.9072 3.08014 81.6807 8.34574C83.7826 10.6567 84.9521 13.6623 84.9636 16.7827C84.9636 19.0025 84.2749 21.1467 83.025 22.9864C81.1901 20.1755 78.4156 18.6869 75.1242 19.1483C71.8923 19.6021 68.9809 21.7099 68.4895 23.9449C68.6017 24.3664 112.088 76.969 112.088 76.969L112.476 77.4312L112.855 76.9715C117.939 70.884 123.858 66.0535 130.476 62.6133L130.751 62.4741V24.5327C130.717 22.3868 128.175 20.1034 124.978 19.3282C121.342 18.4494 118.162 19.9058 116.154 22.9898C114.905 21.1458 114.207 19.0016 114.207 16.7776C114.207 13.792 115.318 10.7326 117.482 8.34659C122.264 3.08099 130.165 3.06403 138.635 8.29569L138.893 8.45855L139.16 8.29569C147.621 3.06403 155.531 3.08099 160.305 8.34319C162.476 10.7326 163.588 13.7903 163.588 16.781C163.588 19.0033 162.899 21.1475 161.649 22.9898C159.642 19.9109 156.463 18.4503 152.835 19.3273C149.63 20.1009 147.088 22.3825 147.054 24.5225V58.4783L147.45 58.558C156.032 60.2129 165.269 67.1901 165.269 78.5975C165.269 90.9574 155.455 93.9447 152.129 94.6063C153.904 92.5181 155.024 89.8921 155.024 86.9369C155.024 86.1032 154.946 85.2541 154.792 84.3991C154.008 80.0844 151.371 76.6229 147.735 75.1352L147.054 74.8561V123.449C147.088 125.585 149.631 127.872 152.835 128.645C156.463 129.522 159.643 128.061 161.649 124.984C162.899 126.822 163.588 128.968 163.588 131.189C163.588 134.181 162.477 137.24 160.305 139.625C155.531 144.892 147.622 144.909 139.16 139.675ZM86.2909 121.728L82.5514 116.851C82.5514 116.851 79.941 124.195 76.3903 124.448C74.7016 124.564 73.2706 123.49 72.9007 122.983V88.1176C81.1722 96.6123 86.4541 108.384 87.2126 114.963V123.171C86.9277 122.682 86.6437 122.183 86.2909 121.728ZM112.467 122.381V115.686C112.579 113.988 113.035 111.938 113.751 109.72C117.964 114.877 123.013 121.075 125.236 123.792C124.581 124.143 123.729 124.462 122.772 124.448C119.17 124.384 116.629 116.85 116.629 116.85L112.881 121.728C112.717 121.939 112.605 122.167 112.467 122.381Z" fill="white"/>
<path d="M163.588 131.192C163.588 128.969 162.899 126.825 161.649 124.986C159.642 128.064 156.463 129.524 152.835 128.648C149.63 127.874 147.088 125.588 147.054 123.452V74.8588L147.735 75.1387C151.371 76.6247 154.008 80.0862 154.792 84.4018C154.947 85.2568 155.024 86.1067 155.024 86.9396C155.024 89.8939 153.904 92.5207 152.129 94.609C155.455 93.9474 165.269 90.9601 165.269 78.6002C165.269 67.1919 156.032 60.2147 147.451 58.5607L147.054 58.481V24.5243C147.088 22.3844 149.631 20.1019 152.835 19.3292C156.463 18.4521 159.643 19.911 161.649 22.9908C162.899 21.1502 163.588 19.0043 163.588 16.7829C163.588 13.7921 162.477 10.7352 160.305 8.34503C155.532 3.08283 147.621 3.06501 139.16 8.29753L138.893 8.46038L138.635 8.29753C130.164 3.06586 122.264 3.08283 117.482 8.34842C115.319 10.7344 114.207 13.7938 114.207 16.7795C114.207 19.0034 114.905 21.1477 116.154 22.9917C118.162 19.9076 121.342 18.4513 124.978 19.33C128.175 20.1053 130.716 22.3877 130.751 24.5345V62.476L130.476 62.6151C123.858 66.0554 117.939 70.8858 112.855 76.9733L112.476 77.4331L112.088 76.9708C112.088 76.9708 68.6018 24.3691 68.4896 23.9467C68.9802 21.7117 71.8924 19.604 75.1243 19.1502C78.4157 18.6888 81.1901 20.1773 83.025 22.9883C84.2741 21.1485 84.9637 19.0043 84.9637 16.7846C84.9637 13.7955 83.8524 10.7369 81.6808 8.34673C76.9073 3.08198 68.9887 3.06502 60.5276 8.29668L60.2691 8.45954L60.0106 8.29668C51.541 3.06332 43.6394 3.08198 38.8574 8.34588C36.6943 10.7352 35.5745 13.793 35.5745 16.7837C35.5745 19.0034 36.2726 21.1477 37.5216 22.99C39.5291 19.9059 42.7092 18.4496 46.3449 19.3283C49.542 20.1036 52.0835 22.386 52.1183 24.5328V58.5828L51.7306 58.6684C43.1403 60.5582 34.4717 67.4532 34.4717 78.5993C34.4717 90.9618 44.3119 93.9483 47.6289 94.6082C45.8628 92.5241 44.7337 89.8761 44.7337 86.9091C44.7337 86.2305 44.7855 85.5401 44.8893 84.8463C45.5176 80.6138 47.9562 77.0853 51.4117 75.4109L52.1183 75.0649V123.452C52.0843 125.588 49.542 127.865 46.3449 128.639C42.7092 129.525 39.5291 128.064 37.5216 124.987C36.2726 126.826 35.5745 128.971 35.5745 131.192C35.5745 134.179 36.6943 137.24 38.8574 139.624C43.6394 144.893 51.541 144.91 60.0106 139.676L60.2691 139.513L60.5276 139.676C68.9972 144.911 76.9073 144.893 81.6808 139.625C83.7831 137.316 84.9528 134.312 84.9637 131.192C84.9637 128.966 84.2749 126.826 83.025 124.987C81.009 128.064 77.829 129.525 74.1932 128.639C70.9962 127.866 68.4547 125.588 68.4198 123.444V78.6383L69.2038 79.1668C81.2582 87.3671 90.5636 104.126 91.6843 114.689V170.142C91.6843 176.042 87.6863 180.572 83.826 181.543C81.1034 182.227 78.7252 181.04 77.0714 178.547C75.8479 180.362 75.1583 182.423 75.1583 184.521C75.1583 187.151 76.1148 189.786 78.0101 191.866C82.6977 197.04 90.7702 196.872 99.5765 191.427L99.835 191.264L100.102 191.427C108.908 196.872 116.972 197.04 121.668 191.866C123.503 189.857 124.52 187.238 124.52 184.521C124.52 182.423 123.822 180.361 122.599 178.543C121.004 180.924 118.721 182.055 116.085 181.396C112.173 180.412 107.986 175.655 107.986 170.141V115.453C108.236 111.68 109.701 106.82 112.113 101.759L112.449 101.05L112.949 101.658C112.949 101.658 130.612 123.318 130.725 123.679C130.51 125.871 127.804 128.088 124.573 128.728C122.876 129.069 118.817 129.24 116.103 125.067C114.896 126.893 114.207 129.003 114.207 131.191C114.207 134.182 115.319 137.242 117.482 139.627C122.264 144.892 130.165 144.909 138.635 139.674L138.893 139.512L139.16 139.674C147.621 144.91 155.532 144.892 160.305 139.627C162.408 137.317 163.578 134.312 163.588 131.192ZM99.8529 100.043L99.4133 98.9034C91.2277 77.3703 78.1827 67.1215 68.6962 62.3131L68.4207 62.1757V47.0931L103.756 90.396L103.938 90.6539L99.8529 100.043ZM130.751 99.5438L121.075 87.848L121.342 87.5317C124.056 84.3857 126.96 81.7105 129.959 79.5841L130.751 79.0268V99.5438Z" fill="#FF5910"/>
<path d="M68.4199 47.0918V62.1744L68.6954 62.3118C78.1819 67.1185 91.2277 77.369 99.4125 98.9029L99.8521 100.041L103.936 90.6534L103.755 90.3955L68.4199 47.0918ZM121.342 87.5303L121.075 87.8467L130.751 99.5433V79.0255L129.959 79.5819C126.96 81.7109 124.056 84.3852 121.342 87.5303Z" fill="white"/>
</g>
<defs>
<clipPath id="clip0_18_1257">
<rect width="200" height="200" fill="white"/>
</clipPath>
</defs>
</svg>
