<svg width="200" height="200" viewBox="0 0 200 200" fill="none" xmlns="http://www.w3.org/2000/svg">
<g clip-path="url(#clip0_18_1269)">
<path d="M99.9233 199.279C154.709 199.279 199.125 154.864 199.125 100.079C199.125 45.2902 154.709 0.875 99.9233 0.875C45.1377 0.875 0.72168 45.291 0.72168 100.079C0.72168 154.863 45.1377 199.279 99.9233 199.279Z" fill="white"/>
<path d="M99.9248 4.7168C47.3448 4.7168 4.56641 47.4952 4.56641 100.077C4.56641 152.654 47.344 195.435 99.9248 195.435C152.506 195.435 195.282 152.654 195.282 100.077C195.282 47.4936 152.506 4.7168 99.9248 4.7168ZM99.9248 46.0672C129.709 46.0672 153.934 70.2976 153.934 100.08C153.934 129.862 129.709 154.092 99.9248 154.092C70.1408 154.092 45.912 129.862 45.912 100.08C45.912 70.2984 70.1416 46.0672 99.9248 46.0672ZM96.5992 58.284C95.5962 58.2891 94.5968 58.4051 93.6192 58.6296C82.812 61.1512 83.7712 69.7592 83.7824 69.8464L84.1544 72.8128L85.9144 70.3992C87.7104 67.9376 89.912 68.4112 90.8264 69.0032C91.5112 69.4288 92.0096 69.7328 92.0096 70.5192C92.0096 70.864 91.9136 71.2984 91.6976 71.876L90.4752 75.0856C89.2928 74.8832 88.1 74.7928 86.88 74.9992C84.0448 75.4832 82.0016 76.6856 80.8112 78.5784C78.9984 81.4672 79.9384 84.8344 79.976 84.9776L80.608 87.1616L82.0392 85.4C83.5992 83.4776 84.9992 83.9456 85.6992 84.3968C86.2664 84.7648 86.5736 84.9664 86.1448 86.5832C86.1512 86.5568 76.2112 119.844 74.8624 124.363C66.728 127.36 65.776 132.862 65.776 135.134C65.776 135.765 65.844 136.139 65.8472 136.166L66.2216 138.125L67.7688 136.85C67.8048 136.822 71.396 133.914 77.3336 133.326C78.62 133.199 80.4584 133.668 82.24 134.116C84 134.572 85.8216 135.028 87.3536 134.988C89.5088 134.934 91.2792 134.21 92.472 132.914C93.6832 131.599 94.2584 129.774 94.1352 127.641L94.0952 126.992L87.3408 123.216L87.0528 124.861C87.0152 125.07 86.912 125.442 86.644 125.594C86.548 125.65 86.4128 125.666 86.264 125.674C86.8136 123.778 89.3184 115.031 89.712 113.657H103.938C104.317 115.127 106.509 123.724 106.509 123.724C108.775 132.967 115.838 136.019 121.821 134.933C128.063 133.821 132.399 127.405 133.126 118.2L133.228 116.92H131.942C131.321 116.92 131.037 117.29 130.521 117.962C129.33 119.512 127.221 121.005 125.654 120.719C124.662 120.538 123.897 119.585 123.378 117.886C123.396 117.945 112.45 72.6056 112.45 72.6056C111.726 67.7448 109.21 63.5848 105.394 60.9912C102.765 59.208 99.632 58.2648 96.5984 58.2864L96.5992 58.284ZM119.905 75.0048C118.847 75.0832 117.885 75.5152 117.286 76.2176C116.318 77.3552 116.074 78.944 116.685 80.1736C117.178 81.1656 118.142 81.7224 119.263 81.6608C119.295 81.6608 119.385 81.6584 119.457 81.6584C119.434 81.7344 119.402 81.8312 119.402 81.8312C118.889 83.1088 118.676 83.2096 118.103 83.4704L117.116 83.9152L117.509 84.9072L118.69 86.6192L119.287 86.4864C120.18 86.2808 121.751 85.2992 122.277 84.852C124.08 83.2976 125.315 80.372 124.034 77.3272C123.515 76.0992 122.405 75.268 120.983 75.0496C120.627 74.9941 120.265 74.9791 119.905 75.0048ZM132.862 77.0656C128.057 77.0656 124.702 80.344 124.702 85.0336C124.702 90.0424 128.078 90.996 131.051 91.8432C132.101 92.1408 133.703 92.5992 133.703 93.372C133.703 94.5544 132.148 94.5896 131.967 94.5896C130.606 94.5896 129.21 93.9504 127.71 92.6336L126.851 91.8824L123.599 98.0096L124.256 98.4672C126.608 100.122 129.418 101.03 132.163 101.03C134.723 101.03 137.055 100.252 138.717 98.8336C140.379 97.4256 141.213 95.2896 141.213 92.4792C141.213 88.0952 137.885 86.6032 135.378 85.8656L133.985 85.4472C133.328 85.2312 132.204 84.8728 132.204 84.3056C132.204 83.7792 133.044 83.4552 133.65 83.4552C134.695 83.4552 135.767 83.8752 136.692 84.6408L137.55 85.3584L140.648 79.3416L139.896 78.9144C137.912 77.7912 135.151 77.064 132.861 77.064L132.862 77.0656ZM97.6128 87.4552C98.7632 92.4824 100.594 100.471 101.037 102.405H93.2848C93.868 100.393 96.1712 92.4264 97.6128 87.4552Z" fill="#EFB21E"/>
<path d="M99.9246 7.53054C48.8958 7.53054 7.38379 49.0473 7.38379 100.076C7.38379 151.106 48.8982 192.619 99.9246 192.619C150.953 192.619 192.467 151.106 192.467 100.076C192.467 49.0441 150.963 7.52734 99.931 7.52734L99.9246 7.53054ZM99.9246 43.4241C131.167 43.4241 156.581 68.8401 156.581 100.084C156.581 131.324 131.169 156.742 99.9246 156.742C68.6822 156.742 43.2638 131.324 43.2638 100.084C43.2638 68.8425 68.6798 43.4241 99.9246 43.4241Z" fill="#003831"/>
<path d="M97.9631 16.3621L93.5462 16.4805L94.0798 36.7949L103.124 36.5565L103.025 32.7837L98.4007 32.9037L97.9631 16.3621ZM81.7167 18.0405L77.4071 19.3525L76.5326 29.1109L76.4727 29.1237L73.8326 20.4389L69.6071 21.7221L75.5167 41.1653L79.7407 39.8829L76.7295 29.9805L76.7894 29.9597L83.683 38.6837L88.1342 37.3301L80.4991 28.2157L81.7167 18.0405ZM117.799 18.2917L107.816 36.7357L112.073 37.8061L113.681 34.6805L118.022 35.7717L117.993 39.2917L122.567 40.4405L122.313 19.4261L117.799 18.2917ZM118.595 23.8845L118.648 23.8981L118.397 27.0005L118.163 32.5301L115.145 31.7709L117.385 26.7469L118.595 23.8845ZM138.371 25.4685L127.605 42.7013L131.354 45.0421L136.293 37.1349L136.714 36.4101L137.62 34.5637L137.698 34.5477L135.826 47.8389L139.377 50.0509L150.141 32.8197L146.397 30.4789L141.557 38.2261C140.997 39.1237 140.513 40.0581 140.228 41.0229L140.149 41.0357L141.965 27.7141L138.371 25.4677V25.4685ZM54.5966 29.4717L50.7374 32.0749L57.7998 51.8237L61.4398 49.3701L60.1902 46.0845L63.9006 43.5837L66.5006 45.9565L70.4095 43.3197L54.5966 29.4717ZM55.479 35.1829L57.6158 37.4501L61.5798 41.3117L58.999 43.0509L56.7566 38.0293L55.431 35.2133L55.4814 35.1829H55.479ZM160.012 41.5317L144.448 54.5917L146.98 57.6133C151.458 62.9493 156.262 62.1325 160.697 58.4093C169.391 51.1181 162.658 44.6901 162.168 44.0973L160.013 41.5317H160.012ZM39.7814 44.2397C37.559 44.3237 35.7646 45.3933 34.5158 46.9213C32.0182 49.9701 31.7558 54.8093 37.6606 59.6357C43.5606 64.4645 48.2526 63.2429 50.747 60.1909C53.2438 57.1357 53.5102 52.2997 47.6046 47.4709C44.6534 45.0581 42.0038 44.1565 39.7814 44.2397ZM160.085 47.2357V47.2381C162.427 50.0309 159.862 53.3469 157.881 55.0061C155.941 56.6333 152.215 58.4837 150.049 55.6557L160.086 47.2357H160.085ZM39.1118 48.4413C41.0782 48.3749 43.5758 50.2621 44.6238 51.1197C45.8718 52.1413 49.7278 55.5629 47.8702 57.8333C46.0118 60.1061 41.895 57.0085 40.6438 55.9869C39.2462 54.8429 35.5358 51.5445 37.3942 49.2717C37.859 48.7037 38.4566 48.4637 39.1118 48.4413ZM154.856 133.067C153.633 133.704 152.624 134.56 151.824 135.733C149.685 138.866 150.827 142.125 153.471 143.933C155.921 145.602 158.05 145.158 160.781 143.933C162.149 143.361 163.409 142.57 164.698 143.451C165.813 144.21 165.888 145.625 165.082 146.8C164.35 147.88 163.422 148.47 162.305 148.96L165.465 151.115C166.591 150.663 167.747 149.589 168.45 148.562C170.794 145.13 169.832 141.714 166.848 139.678C162.31 136.577 158.362 142.026 155.605 140.142C154.575 139.445 154.439 138.31 155.207 137.183C155.893 136.18 157.005 135.607 158.084 135.269L154.856 133.067ZM46.9646 135.518L27.4438 143.189L30.0094 146.748L33.2566 145.397L35.8726 149.031L33.5806 151.706L36.3326 155.527L49.6862 139.299L46.9662 135.518H46.9646ZM43.9694 140.309L44.0038 140.359L41.8038 142.561L38.0678 146.643L36.2534 144.113L41.1998 141.721L43.9694 140.309ZM146.269 143.897C145.554 144.205 144.906 144.597 144.334 145.111C139.823 149.097 140.501 155.404 143.841 159.179C147.377 163.177 153.482 164.757 158.256 160.533C158.782 160.076 159.221 159.529 159.552 158.917L157.038 156.069C156.723 156.561 156.388 157.035 155.965 157.412C153.082 159.965 149.349 158.298 147.35 156.037C145.278 153.697 144.417 150.175 147.326 147.598C147.751 147.233 148.217 146.92 148.714 146.664L146.269 143.896L146.269 143.897ZM54.2542 144.876L51.8062 147.743L54.4462 149.994L43.6998 162.581L47.0622 165.45L57.8046 152.861L60.4678 155.133L62.9126 152.265L54.2542 144.876ZM132.988 155.095L129.126 157.249L139.037 175.012L142.893 172.86L132.989 155.094L132.988 155.095ZM67.3167 155.213L58.8878 173.705L62.9038 175.536L66.4727 167.712L70.547 169.569L66.9806 177.393L70.9967 179.225L79.4286 160.737L75.4062 158.905L72.1126 166.139L68.0391 164.28L71.3374 157.048L67.3158 155.213H67.3167ZM128.621 156.745L129.828 158.905C129.569 158.438 128.625 156.751 128.623 156.745H128.621ZM123.52 159.316L112.631 162.63L113.73 166.238L117.048 165.233L121.865 181.058L126.091 179.775L121.269 163.941L124.617 162.923L123.52 159.315V159.316ZM85.715 162.266V162.282H85.7094L85.6918 162.416C85.435 163.918 82.4446 182.335 82.4446 182.335C82.4566 182.35 91.3806 183.796 91.3806 183.796L91.3839 183.788L91.3918 183.738C91.4558 183.432 91.999 180.062 91.999 180.062H91.9774C91.8494 180.027 87.427 179.308 87.427 179.308C87.435 179.308 90.079 162.99 90.079 162.99L90.0839 162.977L85.7142 162.265L85.715 162.266ZM107.554 163.397L98.6727 163.856L99.7287 184.15L108.667 183.686L108.47 179.919L103.938 180.155L103.702 175.575L107.641 175.373L107.449 171.604L103.506 171.81L103.278 167.396L107.75 167.165L107.554 163.397ZM91.9806 180.073H91.9838L91.9782 180.105L91.9806 180.073Z" fill="white"/>
<path d="M96.6535 60.6544C95.8055 60.6584 94.9671 60.7504 94.1583 60.94C89.1047 62.1184 87.2343 64.7432 86.5359 66.796C88.6559 65.74 90.8879 66.2104 92.2959 67.124C93.1991 67.6784 95.3079 68.98 93.9143 72.708L91.9695 77.8264L90.9223 77.524C89.7371 77.1875 88.491 77.1238 87.2775 77.3376C85.1415 77.7024 83.6487 78.5384 82.8319 79.8256C82.3191 80.6336 82.1631 81.508 82.1199 82.284C83.8959 81.2856 85.6967 81.5672 86.9863 82.404C87.9007 82.996 88.7023 83.7816 88.7023 85.3888C88.7023 85.9088 88.6167 86.5152 88.4247 87.2264L76.7943 126.169L76.2151 126.361C70.2695 128.355 68.6695 131.639 68.2695 133.738C70.0807 132.706 73.0023 131.374 77.0975 130.962C78.7983 130.796 80.8479 131.318 82.8271 131.818C84.4319 132.224 86.0887 132.643 87.2935 132.615C88.8111 132.574 89.9679 132.137 90.7239 131.308C91.5135 130.453 91.7239 129.339 91.7495 128.396C91.0751 128.02 89.8743 127.35 88.7855 126.74C88.5231 127.119 88.2015 127.437 87.8071 127.658C87.1623 128.026 86.0311 128.326 84.3487 127.671L83.3407 127.276L87.9279 111.284H104.855L105.77 111.26L108.81 123.155C110.847 131.438 116.868 133.421 121.402 132.605C125.717 131.829 128.818 127.635 130.115 121.561C128.627 122.631 126.882 123.353 125.227 123.048C123.896 122.808 122.102 121.834 121.094 118.507C121.094 118.507 110.145 73.1616 110.125 73.0568C109.296 67.5456 106.37 64.5176 104.058 62.9504C101.838 61.4408 99.1991 60.6424 96.6535 60.6544ZM120.102 76.812C119.502 76.8456 118.946 77.0584 118.666 77.392C118.088 78.076 118.07 78.8912 118.307 79.364C118.474 79.7112 118.766 79.8728 119.267 79.8456C119.813 79.8136 120.636 79.7656 121.11 80.4248C121.301 80.6928 121.37 80.9904 121.37 81.2936C121.37 81.7288 121.222 82.1704 121.082 82.5144C120.767 83.2904 120.477 83.712 120.178 84.0808C120.538 83.8648 120.912 83.6328 121.096 83.4744C121.965 82.7248 122.755 81.4488 122.755 79.9144C122.755 79.3184 122.64 78.6888 122.366 78.032C121.995 77.1592 121.167 76.9072 120.706 76.8376C120.506 76.8078 120.303 76.7992 120.102 76.812ZM97.8783 77.9968L104.018 104.778H90.1295L96.6063 82.3936L97.8783 77.9968ZM132.865 78.88C129.066 78.88 126.516 81.3512 126.516 85.0312C126.516 88.3392 127.968 89.0864 131.722 90.1512C133.057 90.5288 135.527 91.2272 135.527 93.372C135.527 95.152 134.066 96.3992 131.967 96.3992C130.453 96.3992 128.962 95.7192 127.447 94.6152C126.986 95.4792 126.437 96.5224 126.002 97.3384C127.907 98.4992 130.039 99.2192 132.164 99.2192C134.294 99.2192 136.21 98.592 137.551 97.4536C138.771 96.4072 139.402 94.7312 139.402 92.4792C139.402 89.9992 138.047 88.5408 134.857 87.6024C134.857 87.6024 133.462 87.1808 133.436 87.1744C132.375 86.8304 130.396 86.192 130.396 84.3072C130.396 82.6392 132.047 81.6448 133.637 81.6448C134.763 81.6448 135.862 82.0656 136.894 82.6848C137.31 81.8816 137.766 80.996 138.182 80.1712C136.546 79.4128 134.589 78.88 132.865 78.88Z" fill="#003831"/>
</g>
<defs>
<clipPath id="clip0_18_1269">
<rect width="200" height="200" fill="white"/>
</clipPath>
</defs>
</svg>
