<svg width="200" height="200" viewBox="0 0 200 200" fill="none" xmlns="http://www.w3.org/2000/svg">
<g clip-path="url(#clip0_18_1274)">
<path d="M162.059 137.53C141.412 160.099 134.717 151.292 131.151 140.605L97.3915 39.3622C94.2785 30.0032 88.4986 22.1053 78.6838 18.9983C63.7137 15.126 47.4753 22.1653 41.9468 46.3407C47.3686 38.6048 57.249 32.025 66.3585 37.4509C74.214 42.1201 74.2551 47.3209 71.0947 56.608L68.7108 63.6276C59.2692 53.7063 39.2355 55.7092 36.9125 78.0752C43.1115 72.4661 65.5291 72.9763 58.828 92.6657L58.8067 92.7163L38.7279 151.783C21.9717 151.957 5.15529 160.405 0 181.372C4.68878 173.924 39.0284 159.22 70.1657 181.8L89.785 157.738C88.4298 156.389 77.7191 154.192 69.6842 162.05C65.45 158.463 59.9927 155.674 53.9993 153.915L64.3462 123.437H102.54L115.997 163.807C121.342 179.808 133.626 188.89 141.359 176.803C141.359 176.803 162.645 144.925 165.172 141.227C167.703 137.528 162.645 136.946 162.058 137.528M69.8589 107.255L83.6327 66.7552L97.1456 107.255H69.8589ZM126.452 76.5627H129.925L138.144 65.8548V54.4013H125.972V66.8057H130.036M182.313 82.5296C172.534 80.5883 164.376 78.6162 166.841 71.4947C168.922 65.4978 183.417 66.0791 188.419 73.6192L196.015 65.8753C187.203 53.6968 165.686 52.092 156.975 64.3432C144.998 81.1696 158.637 90.2735 174.119 94.1355C180.426 95.7198 188.543 99.3481 184.522 105.54C181.122 110.771 168.017 108.308 158.131 99.3481L151.431 108.441C157.436 115.409 180.884 130.01 195.554 112.241C207.73 97.4882 192.076 84.4606 182.313 82.5296Z" fill="#003831"/>
</g>
<defs>
<clipPath id="clip0_18_1274">
<rect width="200" height="200" fill="white"/>
</clipPath>
</defs>
</svg>
