<svg width="200" height="200" viewBox="0 0 200 200" fill="none" xmlns="http://www.w3.org/2000/svg">
<g clip-path="url(#clip0_18_1256)">
<path d="M144.238 7.43628C113.587 -6.64715 68.7631 -0.0968507 46.3493 21.7654C32.0462 35.8017 25.0009 52.5122 27.4947 66.4631C28.8806 74.1801 33.0825 79.9583 39.3372 82.7554C46.7096 86.0684 53.2344 86.2279 58.7051 83.2826C69.8099 77.2945 72.6193 60.7687 72.7275 60.0706L72.9129 58.9527L71.7726 58.9641C69.0494 59.0373 65.6585 58.4727 65.0265 55.455C64.9501 55.0713 64.9109 54.6812 64.9094 54.2899C64.9094 48.9169 71.6115 40.3774 80.7131 36.0466V154.527C70.9202 164.944 65.5219 175.605 65.5219 184.255C65.5219 186.242 65.8114 188.107 66.3816 189.836C68.0978 195.063 72.4656 198.548 78.6837 199.628C86.9996 201.076 96.5965 198.241 103.723 192.242C110.567 186.476 114.327 178.721 114.327 170.391V110.751C144.076 99.9427 170.821 87.2441 172.943 52.5846C173.016 51.4676 173.047 50.3757 173.047 49.2839C173.049 30.8094 162.924 16.0369 144.238 7.43628ZM119.463 80.3024C119.463 80.3024 116.567 80.8288 115.138 81.0997V30.0959C116.267 30.0105 118.548 29.8632 118.548 29.8632C134.475 28.7949 143.446 35.8383 145.188 50.8557C145.298 51.8361 145.354 52.8165 145.354 53.7871C145.354 67.0375 135.486 77.2937 119.462 80.3L119.463 80.3024Z" fill="#E81828"/>
</g>
<defs>
<clipPath id="clip0_18_1256">
<rect width="200" height="200" fill="white"/>
</clipPath>
</defs>
</svg>
