<svg width="200" height="200" viewBox="0 0 200 200" fill="none" xmlns="http://www.w3.org/2000/svg">
<g clip-path="url(#clip0_18_1253)">
<path d="M102.572 189.895H115.371V183.322C118.484 180.295 120.424 177.006 120.3 173.765C120.165 170.255 118.051 167.755 116.754 166.544H170.978L171.411 164.986C171.529 164.562 174.265 153.397 160.168 139.214C156.536 135.495 154.028 131.602 152.298 127.278C155.239 129.959 158.957 131.43 163.022 131.43C164.233 131.43 166.826 131.253 169.94 129.959C172.447 128.918 174.61 127.451 176.6 125.548C176.6 125.548 177.384 126.288 178.329 127.254C181.028 130.011 183.431 131.419 187.755 131.319C194.674 131.159 200.001 125.773 200.001 119.201C200.001 117.537 199.909 116.201 198.684 113.354C196.709 108.764 192.741 104.32 186.804 100.296C184.957 99.0445 184.417 97.9339 184.166 97.529C183.787 96.9168 183.172 96.664 182.566 96.664C182.22 96.664 181.827 96.7961 181.528 97.0107L177.205 100.124C176.446 100.67 175.998 101.593 176.167 102.545C176.689 105.486 176.413 108.628 175.129 111.624C172.521 117.71 167.952 121.137 162.763 121.137H162.157C167.173 118.629 169.692 115.262 170.891 112.748C172.374 109.64 172.362 107.126 172.362 106.867C172.362 97.0938 163.022 97.0071 162.633 97.0071C156.45 97.0071 151.174 100.64 148.406 106.002C148.32 102.457 148.32 98.8234 148.32 95.0179V90.694C148.493 70.1096 132.927 60.9417 127.046 60.9417H124.364V57.9145C127.046 57.3091 128.516 55.6662 129.207 54.0232L146.244 54.1957L151.26 69.4179H177.724V46.0658H174.351V21.5896L166.74 14.3252H128.429L120.992 10H96.8635L89.4259 14.3252H51.1148L43.5043 21.5896V46.2392H40.1324V66.5382C40.1324 66.5382 39.7018 66.2995 39.5266 66.2178C35.9832 64.5694 31.6574 63.7093 27.1601 63.7093C18.9447 63.7093 11.2674 66.4978 6.57816 71.0613C1.66832 75.8385 -0.692883 81.6134 0.177537 86.456C0.690803 89.3107 2.2424 91.496 4.58818 92.5103C6.91172 93.5152 9.59649 93.792 11.68 92.5961C15.1648 90.5951 16.4255 86.6779 16.8684 82.91C16.8684 82.91 15.9177 82.9962 15.3119 82.9962C14.8798 82.9962 14.2127 82.9173 14.1882 82.477C14.126 81.3547 15.399 79.4503 17.3876 78.0665V115.256C14.1882 118.715 11.9926 122.98 12.6316 126.37C13.2375 129.587 15.1113 131.046 18.3393 131.343C21.6984 131.653 24.4054 130.407 26.468 128.662C28.9023 126.602 30.2728 123.819 30.2728 120.792V101.418C36.4129 99.1693 42.3806 96.4884 45.9263 91.6449V125.894C45.9263 128.921 48.4345 131.43 51.4615 131.43C54.4885 131.43 56.9958 128.921 56.9958 125.894V108.77C56.9958 107.732 57.8608 106.781 58.9849 106.781C60.109 106.781 60.9739 107.645 60.9739 108.77V121.051C60.9739 124.338 62.5305 127.191 64.8659 129.094C63.2231 132.64 60.9149 135.954 57.7741 139.126C43.7053 153.338 46.3924 164.372 46.5317 164.901L46.9642 166.544H101.188C99.891 167.755 97.7753 170.169 97.6418 173.679C97.5152 177.007 99.4585 180.295 102.572 183.235V189.895ZM88.6477 54.109C89.3397 55.6657 90.8101 57.3958 93.4908 58.0012V61.0284H90.8105C84.93 61.0284 69.5361 70.1958 69.5361 90.7798V100.467C67.6337 97.8722 64.6058 96.1425 61.1468 96.1425C59.6765 96.1425 58.2932 96.4012 56.9958 97.0071V79.1907C56.9958 76.1635 54.4885 73.656 51.4615 73.656C50.2507 73.656 49.1262 74.0885 48.175 74.6939C47.31 72.7047 46.013 70.9746 44.3697 69.4179H66.5954L71.6109 54.2819L88.6477 54.109ZM30.6195 75.3856L31.7436 75.2994C35.7962 74.9894 38.2659 77.2605 38.5323 81.7849C38.7864 86.1024 35.666 89.2431 30.8782 89.9157L30.6195 89.952V75.3856ZM162.157 106.954C163.777 106.845 162.564 109.36 162.33 109.808C161.113 112.139 158.265 113.353 156.622 113.872C156.622 110.24 158.954 107.169 162.157 106.954ZM184.555 110.326C190.177 113.526 190.092 118.456 190.09 118.543C190.006 121.484 187.347 122.042 185.507 121.051C183.844 120.157 183.042 118.95 181.874 117.505C182.912 115.343 183.864 112.921 184.555 110.326Z" fill="white"/>
<path d="M113.036 166.371V164.295H169.075C169.075 164.295 171.732 154.113 158.351 140.597C154.522 136.729 151.865 132.64 150.049 128.23C148.32 130.218 145.552 131.429 142.612 131.429C139.412 131.429 136.472 129.959 134.483 127.538C132.061 130.046 128.602 131.429 124.797 131.429C120.732 131.429 117.187 129.786 114.765 126.845C112.343 129.873 108.884 131.429 104.733 131.429C100.755 131.429 97.2958 129.873 94.8747 127.105C93.923 128.443 92.6649 129.534 91.2055 130.286C89.7461 131.038 88.1278 131.43 86.4859 131.429C83.6319 131.429 80.9512 130.218 78.9617 128.23C77.0592 130.305 74.3781 131.429 71.4383 131.429C69.795 131.429 68.2384 130.997 66.8547 130.305C65.1252 133.938 62.7037 137.397 59.5038 140.597C46.0128 154.089 48.6939 164.295 48.6939 164.295H102.477L101.874 162.479L98.9391 158.673L96.2584 147.603L92.9719 142.759V131.862H95.0476V141.977L98.3337 146.821L101.015 157.494L103.609 161.3L104.733 164.381V166.457C102.03 168.549 99.8041 170.944 99.8041 173.852C99.8041 176.49 101.188 178.998 103.782 181.592L104.647 182.457V187.906H113.122V182.371L113.987 181.506C116.668 178.911 117.965 176.403 117.965 173.765C117.965 170.579 115.556 168.172 113.036 166.371ZM101.534 115.948C101.534 118.543 103.609 120.618 106.203 120.618C108.712 120.618 110.614 118.629 110.614 115.948V91.1259C109.922 102.715 104.474 110.154 101.534 113.353V115.948ZM122.03 84.1207C121.944 83.6015 121.77 83.3423 121.511 83.3423C121.338 83.3423 121.165 83.6015 121.165 84.034V96.9207C122.548 91.1259 122.03 84.6394 122.03 84.1207ZM102.399 84.1207C102.352 83.6618 102.179 83.3423 101.92 83.3423C101.747 83.3423 101.534 83.6015 101.534 84.034V96.9207C102.917 91.1259 102.451 84.644 102.399 84.1207ZM88.8208 120.878C90.0316 120.878 91.0695 119.84 91.0695 118.629V91.0397L85.8805 94.8452L88.6479 103.494L81.297 98.1316L73.9461 103.494L76.7134 94.8452L71.6112 91.2126L71.4383 118.716C71.4306 119.926 72.4762 120.964 73.6865 120.964C74.8973 120.964 75.9352 119.926 75.9352 118.716V105.916C75.9352 103.061 78.27 100.726 81.2103 100.726C84.0648 100.726 86.3993 103.061 86.3993 105.916V118.716C86.3993 119.853 87.5238 120.878 88.8208 120.878ZM146.331 91.6451L142.093 94.7585L144.861 103.408L137.51 98.0453L130.159 103.408L132.926 94.7585L130.156 92.6831C129.118 103.408 123.846 110.327 120.992 113.44V114.997C120.992 118.11 123.5 120.619 126.613 120.619C129.726 120.619 132.234 118.11 132.234 114.997V105.829C132.234 102.975 134.569 100.64 137.423 100.64C140.277 100.64 142.698 102.975 142.698 105.829V118.629C142.698 119.84 143.736 120.878 144.947 120.878C145.985 120.878 146.936 120.186 147.109 119.149C146.676 117.505 146.417 115.862 146.417 114.218C146.417 113.44 146.504 112.662 146.59 111.883C146.158 105.483 146.331 91.6451 146.331 91.6451H146.331ZM70.1413 52.0338L90.3779 51.8604C90.3779 51.8604 90.6374 55.9256 95.7397 55.9256V63.0175H90.897C86.3997 63.0175 72.3899 70.8877 71.7845 89.3963H78.5301L81.297 80.7477L84.0644 89.3963H91.1031V83.1694C91.1031 77.8934 95.4275 73.5691 100.703 73.5691C105.632 73.5691 109.672 77.4645 110.392 83.0827C110.537 84.211 110.648 86.4558 110.648 86.4558V83.2561C110.648 77.9801 114.852 73.6558 120.127 73.6558C125.056 73.6558 129.387 77.5462 130.067 83.1694C130.338 85.4164 130.499 87.4937 130.413 89.5692H134.739L137.507 80.9206L140.274 89.5692H146.241C145.636 70.9744 131.626 63.1904 127.129 63.1904H122.116V56.0985C127.218 56.0985 127.478 52.0338 127.478 52.0338L147.714 52.2062L152.73 67.4285H175.475V48.4011H172.102V22.4544L165.789 16.4005H127.737L120.3 12.0762H97.3821L89.9449 16.4005H51.8933L45.5807 22.4549V48.2282H42.2075V67.2555H65.1252L70.1413 52.0338Z" fill="#002D72"/>
<path d="M78.3566 94.2394L76.5405 99.8611L81.2969 96.4016L86.1399 99.8611L84.2373 94.2394L89.0802 90.7799H83.113L81.2969 85.1582L79.4808 90.7799H73.5137L78.3566 94.2394ZM129.726 90.7799L134.569 94.2394L132.753 99.8611L137.509 96.4016L142.266 99.8611L140.45 94.2394L145.293 90.7799H139.326L137.509 85.1582L135.693 90.7799H129.726Z" fill="#002D72"/>
<path d="M39.0944 67.3412C35.7216 65.7845 31.5701 64.9199 27.2466 64.9199C19.5499 64.9199 11.9394 67.6008 7.52874 71.9251C2.9452 76.4228 0.696538 81.7851 1.47483 86.1956C1.90732 88.6174 3.20478 90.347 5.10718 91.212C6.31796 91.7308 7.18294 91.9904 8.47994 91.9904C9.43114 91.9904 10.2961 91.8175 11.0744 91.385C14.3609 89.5686 15.3121 84.7256 15.4851 84.1201H15.3988C13.5822 84.1201 12.9813 83.2642 12.9337 82.4336C12.808 80.2311 15.3117 77.2874 18.2524 75.9903L18.7711 75.7307V115.775L18.6849 115.861C15.5717 119.148 13.8418 122.608 13.8418 125.289C13.8418 125.894 13.928 126.5 14.1014 127.018C14.6201 128.575 15.9175 129.613 17.8199 129.959C18.2524 130.045 18.6849 130.045 19.2041 130.045C21.4523 130.045 23.8738 129.181 25.6896 127.624C27.852 125.808 28.9761 123.386 28.9761 120.791V100.553L29.2357 100.467C38.8348 97.0068 47.6161 92.9544 48.1748 81.2228C48.4811 74.7862 44.9758 70.1088 39.0944 67.3412ZM31.2243 91.1254C30.7905 91.2034 29.4086 91.385 29.4086 91.385V74.0011C29.4086 74.0011 31.5706 73.8281 31.9164 73.8281C36.6728 73.8281 39.7397 76.2263 40.0025 81.5255C40.2593 86.7085 36.5848 90.1655 31.2243 91.1254ZM106.204 121.828C102.917 121.828 100.236 119.148 100.236 115.861V112.834L100.323 112.748C103.609 109.201 111.175 99.2502 109.057 83.1689C108.408 78.2332 104.993 74.7794 100.755 74.7794C96.1718 74.7794 92.4532 78.4983 92.4532 83.0822V118.455C92.4532 120.445 90.8104 122.002 88.9075 122.002C86.9185 122.002 84.9607 120.359 84.9607 118.456V105.655C84.9628 105.144 84.8636 104.637 84.6687 104.164C84.4739 103.69 84.1873 103.26 83.8254 102.899C83.4636 102.537 83.0337 102.25 82.5606 102.055C82.0875 101.861 81.5804 101.761 81.0688 101.764C80.5571 101.762 80.0502 101.861 79.5771 102.056C79.104 102.25 78.6742 102.537 78.3124 102.899C77.9506 103.261 77.6641 103.691 77.4692 104.164C77.2744 104.637 77.1752 105.144 77.1773 105.655V118.456C77.1773 120.445 75.5345 122.002 73.6316 122.002C71.6426 122.002 70.1037 120.358 70.086 118.456V106.175C70.086 101.244 66.0211 97.1793 61.0918 97.1793C59.3623 97.1793 57.6323 97.6985 56.1624 98.6498L55.6433 98.9961V79.1037C55.6433 76.7686 53.7409 74.9523 51.4922 74.9523C50.4548 74.9523 49.5031 75.3848 48.7248 75.9903C49.1847 77.5339 49.4178 79.136 49.4169 80.7467V81.8713C49.244 84.8985 48.4657 87.4065 47.3411 89.5686V125.894C47.3411 128.229 49.244 130.045 51.4922 130.045C53.8275 130.045 55.6433 128.142 55.6433 125.894V108.769C55.6431 108.337 55.7281 107.91 55.8932 107.511C56.0583 107.112 56.3004 106.75 56.6056 106.445C56.9109 106.14 57.2732 105.898 57.672 105.733C58.0708 105.568 58.4982 105.483 58.9298 105.483C60.746 105.483 62.1292 106.866 62.2159 108.683V121.137C62.3021 125.98 66.2807 130.132 71.2101 130.132C74.0641 130.132 77.0598 128.834 78.7888 126.499L79.0484 126.153L79.308 126.499C81.0375 128.834 83.6319 130.132 86.486 130.132C89.8587 130.132 92.9374 128.212 94.4423 125.202L94.7014 124.683L95.0477 125.202C97.2169 128.456 100.755 130.132 104.733 130.132C108.971 130.132 112.457 128.53 114.506 125.115L114.765 124.683L115.025 125.115C117.073 128.53 120.732 130.132 124.797 130.132C128.775 130.132 132.04 128.558 134.31 125.721L134.656 125.288L134.915 125.721C136.571 128.481 139.412 130.045 142.612 130.045C146.244 130.045 149.547 128.022 151.087 124.942L151.347 124.424L151.693 124.856C154.411 128.255 158.525 130.045 162.892 130.045C163.973 130.045 166.388 129.856 169.248 128.661C173.22 127.002 176.513 124.077 179.02 119.926C181.01 116.812 182.814 113.064 183.69 108.683L183.777 108.25L184.123 108.423C187.894 110.309 189.723 112.843 190.522 114.737C191.367 116.735 191.387 118.283 191.387 118.369C191.387 122.002 188.32 122.954 186.026 122.434C184.121 122.002 182.566 120.186 181.182 118.629C181.182 118.629 179.626 121.569 177.204 124.424C177.204 124.424 177.742 125.012 179.107 126.499C181.633 129.25 184.296 130.223 187.409 130.045C190.35 129.877 193.118 128.75 195.279 126.759C197.529 124.685 198.738 121.944 198.738 119.061C198.738 118.802 199.823 110.559 186.112 101.418C183.996 100.006 183.276 98.5554 183.128 98.2608C183.016 98.0353 182.826 97.9581 182.653 97.9581C182.567 97.9581 182.406 97.9731 182.307 98.0443L177.983 101.158C177.632 101.411 177.403 101.854 177.464 102.282C177.922 105.492 177.637 108.683 176.34 111.969C172.189 121.31 165.443 122.348 162.762 122.348C161.551 122.348 160.445 121.967 159.303 121.396L158.611 121.051L159.303 120.791C162.762 119.493 167.346 116.985 169.68 112.056C171.065 109.115 170.978 106.78 170.978 106.78C170.978 98.4769 163.454 98.2177 162.589 98.2177C154.374 98.2177 147.714 105.31 147.714 114.131C147.714 115.775 147.974 117.418 148.406 119.061C148.147 120.877 146.677 122.175 144.861 122.175C142.872 122.175 141.315 120.532 141.315 118.629V105.828C141.317 105.317 141.218 104.81 141.023 104.337C140.828 103.863 140.541 103.434 140.18 103.072C139.818 102.71 139.388 102.423 138.915 102.229C138.442 102.034 137.935 101.934 137.423 101.937C136.912 101.934 136.405 102.034 135.932 102.229C135.458 102.423 135.029 102.71 134.667 103.072C134.305 103.434 134.019 103.863 133.824 104.337C133.629 104.81 133.53 105.317 133.532 105.828V114.996C133.532 118.802 130.419 121.915 126.613 121.915C122.808 121.915 119.694 118.802 119.694 114.996V112.921C122.981 109.374 130.633 99.3365 128.516 83.2551C127.866 78.3195 124.451 74.8656 120.214 74.8656C115.63 74.8656 111.911 78.585 111.911 83.1689V116.034C111.911 119.321 109.317 121.828 106.203 121.828H106.204ZM119.781 83.8605C119.781 82.7363 120.559 81.8713 121.511 81.8713C122.116 81.8713 123.064 82.1314 123.327 83.7743C123.41 84.2935 124.316 95.3848 120.473 102.11L119.781 103.32V83.8605ZM100.237 83.8605C100.237 82.7363 101.015 81.8713 101.966 81.8713C102.571 81.8713 103.52 82.1314 103.782 83.7743C103.865 84.2935 104.771 95.3848 100.928 102.11L100.237 103.32V83.8605ZM155.325 114.391C154.997 109.805 158.006 105.915 162.07 105.569C163.022 105.483 163.713 105.828 164.146 106.52C164.665 107.385 164.492 108.683 163.54 110.326C161.725 113.699 156.882 115.169 155.498 115.429C155.498 115.429 155.344 114.65 155.325 114.391Z" fill="#E81828"/>
</g>
<defs>
<clipPath id="clip0_18_1253">
<rect width="200" height="200" fill="white"/>
</clipPath>
</defs>
</svg>
