<svg width="200" height="200" viewBox="0 0 200 200" fill="none" xmlns="http://www.w3.org/2000/svg">
<path d="M136.083 1.03281C129.155 7.80904 122.367 9.38338 111.625 9.38338L39.8586 9.28252L30.0903 33.7431C35.9935 36.2927 39.8586 41.8998 39.8586 48.627V160.684C39.8586 167.411 35.9935 173.016 30.0903 175.561L39.8586 199.272H67.2636L77.038 175.561C71.1348 173.114 67.2636 167.305 67.2636 160.684V116.506L111.625 116.528C122.368 116.528 129.153 119.179 136.083 125.956C140.607 112.02 154.195 101.63 170.893 97.4859C164.563 86.5909 162.078 76.9203 162.078 66.8253C162.078 56.7311 163.489 45.7616 169.82 34.8719C153.122 30.7207 140.252 14.9624 136.083 1.0293V1.03281ZM67.4011 32.9037H124.2C133.198 32.9037 138.833 38.5819 138.833 46.1063V79.9787C138.833 87.8811 134.375 92.1919 124.2 92.1919H67.4011V32.9037Z" fill="#FDB827"/>
</svg>
