<svg width="200" height="200" viewBox="0 0 200 200" fill="none" xmlns="http://www.w3.org/2000/svg">
<g clip-path="url(#clip0_18_1247)">
<path d="M88.0653 89.0414V109.176C88.0653 109.176 113.621 110.825 121.446 106.08C120.045 110.527 120.487 125.072 121.446 127.494C111.557 122.415 88.0653 124.439 88.0653 124.439V144.7H125.928L133.992 135.308V100.59L124.647 89.7287C119.092 89.1131 99.2321 89.0414 88.0674 89.0414H88.0653ZM29.4861 17.0216C37.3472 13.2715 45.715 5.33559 48.6828 0C56.2606 3.58418 125.93 3.05533 133.984 0C138.842 7.11055 144.063 11.0865 151.421 13.4942C150.733 20.3178 150.944 22.733 153.166 28.2035H133.984L125.93 19.1981H57.6141L48.6657 27.0848V63.3623L57.5863 72.0101L68.8814 72.4811C68.8814 59.0116 69.0203 56.4358 59.1226 53.8034C62.4176 47.196 63.0804 46.4209 63.9475 38.1809C72.4201 41.0286 159.963 39.4763 163.769 37.2924C163.16 45.8781 168.003 62.1879 171.258 68.2739H152.073C151.098 61.5959 146.888 56.4358 140.19 55.1812H88.0653V72.4811C88.0653 72.4811 128.624 73.5859 133.983 71.7467C136.648 78.6807 146.239 88.8487 153.165 91.6642C150.84 105.815 151.273 130.013 153.165 144.691C145.619 148.443 137.914 156.146 133.985 163.914C124.446 161.283 88.0653 162.578 88.0653 162.578V173.449C89.9426 180.865 93.9218 182.65 100.903 183.258C100.903 183.258 95.2956 193.818 95.0679 200.001H62.2914C62.1471 193.97 56.4477 183.258 56.4477 183.258C62.7501 182.962 67.9224 179.235 68.8814 173.452V162.579C68.8814 162.579 57.3778 162.148 48.6818 163.915C46.0507 158.004 36.4566 147.414 29.4861 144.693C31.0961 140.446 30.3488 113.92 28 108.328H48.6828L48.6668 135.31L56.7278 144.702H68.8835V89.0478C68.8835 89.0478 58.2438 88.52 48.685 89.2491C45.9374 83.8964 37.731 75.2742 29.4871 71.2029C32.0637 61.4042 32.2882 26.2722 29.4871 17.0227L29.4861 17.0216Z" fill="#FD5A1E"/>
</g>
<defs>
<clipPath id="clip0_18_1247">
<rect width="200" height="200" fill="white"/>
</clipPath>
</defs>
</svg>
