<svg width="200" height="200" viewBox="0 0 200 200" fill="none" xmlns="http://www.w3.org/2000/svg">
<path d="M146.616 42.5646L65.7133 42.5708C65.7133 42.5708 70.5492 49.5254 70.5492 62.7417V72.9721H53.425C49.315 72.9721 45.9837 69.6404 45.9837 65.5308V23.9333C45.9837 19.8408 49.3325 16.4921 53.425 16.4921L108.949 16.4929C113.22 16.55 116.029 20.7917 115.445 25.0233C114.88 29.1208 112.741 31.5746 112.741 31.5746L134.772 31.575V22.0358C134.772 9.86583 124.907 0 112.736 0H47.0354C34.8654 0 25 9.86583 25 22.0358V67.8325C25 80.0025 34.8654 89.8679 47.0354 89.8679H107.657C111.766 89.8679 115.098 93.1996 115.098 97.3092V136.987C115.098 141.077 111.752 144.423 107.662 144.423H91.53V97.7958H70.5492V144.423H52.2333C48.1262 144.423 44.7975 141.094 44.7975 136.987V133.026C44.7975 119.846 48.34 116.8 48.34 116.8L26.3088 116.8V139.284C26.3088 151.452 36.1733 161.317 48.3412 161.317H70.5487V179.829C70.5487 193.045 65.7129 200 65.7129 200L146.626 200C162.497 200 175.363 187.134 175.363 171.263V71.3092C175.363 55.4329 162.492 42.5633 146.616 42.5646ZM154.382 171.664C154.382 177.931 149.301 183.012 143.034 183.012H91.53V161.316H114.05C126.217 161.316 136.082 151.452 136.082 139.284V95.0079C136.082 82.8379 126.216 72.9721 114.046 72.9721H91.53V59.5521H143.036C149.302 59.5521 154.382 64.6321 154.382 70.8988L154.382 171.664Z" fill="#FFC427"/>
</svg>
