<svg width="200" height="200" viewBox="0 0 200 200" fill="none" xmlns="http://www.w3.org/2000/svg">
<g clip-path="url(#clip0_18_1248)">
<path d="M82.191 72.0971C82.2013 85.7973 82.191 99.5002 82.1961 113.201C83.8577 113.132 85.5245 113.083 87.1833 112.95C89.268 112.746 90.9963 110.786 90.9142 108.698C90.9142 98.2291 90.9091 87.76 90.9142 77.2883C90.8963 76.2955 91.0245 75.2619 90.6398 74.3149C90.0706 72.8219 88.5038 71.7807 86.8936 71.8572C85.3244 71.9133 83.7552 71.9822 82.191 72.0971ZM71.7832 65.7982C77.2397 65.298 82.7114 64.9738 88.1886 64.7672C91.0578 64.6344 93.9476 65.719 96.0245 67.692C98.2398 69.7516 99.54 72.7454 99.5195 75.7672C99.5092 86.8259 99.5297 97.8872 99.5092 108.949C99.4144 114.668 94.3655 119.637 88.6782 119.941C83.0397 120.168 77.4088 120.525 71.7857 120.975C73.396 118.006 73.714 114.568 73.6037 111.253C73.6037 98.6579 73.6062 86.0654 73.6037 73.4702C73.614 70.8209 73.1242 68.1182 71.7832 65.7982Z" fill="#3E3430"/>
<path d="M117.345 72.0603C117.317 79.204 117.368 86.3503 117.32 93.4938C118.54 93.6521 119.771 93.6698 120.997 93.7669C121.968 93.8281 123.004 93.9252 123.904 93.4709C125.217 92.8838 126.068 91.4879 126.05 90.0638C126.066 85.6331 126.058 81.1999 126.053 76.7691C126.097 74.5666 124.258 72.5122 122.043 72.3461C120.479 72.2262 118.912 72.147 117.345 72.0603ZM106.93 64.6156C112.581 64.7688 118.23 64.9958 123.866 65.4477C129.707 66.1086 134.486 71.4938 134.62 77.3103C134.643 81.8149 134.627 86.3195 134.625 90.8243C134.63 93.6596 133.427 96.508 131.256 98.3711C132.799 100.495 133.943 102.983 134.02 105.642C134.063 108.358 134.025 111.076 134.038 113.794C134.033 116.522 134.556 119.289 135.845 121.719C132.879 121.489 129.922 121.145 126.961 120.876C126.002 119.468 125.44 117.788 125.448 116.081C125.44 112.429 125.458 108.774 125.443 105.122C125.45 102.996 123.663 101.036 121.535 100.842C120.15 100.711 118.758 100.683 117.373 100.566C117.297 104.545 117.358 108.529 117.34 112.51C117.325 115.208 117.897 117.916 119.143 120.323C115.066 120.101 110.989 119.909 106.909 119.84C108.186 117.528 108.732 114.879 108.73 112.255C108.737 99.1521 108.73 86.0464 108.735 72.9434C108.804 70.0747 108.276 67.1704 106.93 64.6156Z" fill="#3E3430"/>
<path d="M142.535 67.3907C149.884 68.3758 157.192 69.6468 164.466 71.0787C165.002 74.0876 165.464 77.1094 165.895 80.1338C164.056 78.623 161.848 77.5561 159.499 77.1222C157.284 76.7215 155.076 76.2825 152.846 75.9686C152.861 81.6627 152.843 87.3541 152.856 93.0455C156.405 93.6989 160.148 94.4721 163.671 93.2497C163.661 96.7692 163.682 100.289 163.661 103.808C162.248 102.846 160.766 101.96 159.135 101.412C157.13 100.656 154.987 100.449 152.899 100.023C152.784 105.715 152.889 111.411 152.848 117.103C154.966 117.491 157.094 117.838 159.21 118.246C161.43 118.708 163.774 118.647 165.912 117.85C165.459 120.658 164.969 123.46 164.518 126.268C157.241 124.816 149.928 123.511 142.563 122.59C143.73 120.349 144.335 117.845 144.322 115.321C144.333 101.966 144.33 88.6123 144.325 75.2591C144.33 72.5435 143.73 69.8356 142.535 67.3907Z" fill="#3E3430"/>
<path d="M48.8185 75.6739C46.6081 76.1743 44.939 78.3589 45.0288 80.615C45.0288 87.0415 45.0313 93.468 45.0288 99.8969C48.2159 99.4222 51.3852 98.8455 54.5801 98.4294C54.6263 92.1535 54.5775 85.8752 54.6033 79.5992C54.598 78.8413 54.616 78.0476 54.2877 77.3456C53.7903 76.1665 52.5569 75.3473 51.275 75.3447C50.4468 75.3549 49.6262 75.508 48.8185 75.6739ZM51.5621 68.2114C54.1032 67.752 56.8442 68.1985 58.9777 69.6838C61.6392 71.4704 63.1674 74.6582 63.1521 77.823C63.1623 89.9843 63.1494 102.148 63.1597 114.309C63.1674 116.862 63.6827 119.447 64.9675 121.675C60.8956 122.114 56.834 122.642 52.7852 123.247C53.9725 120.876 54.5673 118.237 54.5929 115.593C54.6082 112.204 54.5904 108.815 54.6006 105.428C51.4057 105.846 48.2288 106.395 45.0466 106.908C45.0184 110.305 45.0261 113.704 45.039 117.104C45.0518 119.577 45.6211 122.043 46.8108 124.222C42.7748 124.802 38.7876 125.679 34.7773 126.404C35.9388 123.906 36.544 121.165 36.5337 118.411C36.5389 106.413 36.5389 94.4148 36.5337 82.4169C36.444 77.0904 39.8748 71.9783 44.6902 69.7528C46.8389 68.7269 49.2569 68.64 51.5621 68.2114Z" fill="#3E3430"/>
<path d="M12.5997 81.6074C12.6178 89.4503 12.6126 97.2957 12.5997 105.139C14.1024 104.799 15.5793 104.353 17.0665 103.952C18.9049 103.459 20.3691 101.933 20.9204 100.139C21.1743 99.2661 21.1204 98.3473 21.123 97.4489C21.1128 92.7758 21.128 88.1001 21.1178 83.4246C21.1383 82.3448 20.6794 81.2016 19.7178 80.6325C18.8691 80.0913 17.7972 80.1194 16.8639 80.4053C15.4434 80.8059 14.0075 81.1607 12.5997 81.6074ZM18.6537 72.8993C20.8281 72.3505 23.2307 72.5011 25.2153 73.5933C28.0308 75.0737 29.5794 78.2843 29.5462 81.3853C29.5539 86.3213 29.5437 91.2547 29.5513 96.1907C29.7026 102.316 25.3821 108.071 19.7153 110.223C17.3767 111.004 14.946 111.481 12.5997 112.244C12.6229 116.246 12.5971 120.248 12.6126 124.25C12.6254 126.715 13.0844 129.234 14.3793 131.37C10.4074 132.465 6.45605 133.632 2.53295 134.893C3.66366 132.264 4.29712 129.428 4.27398 126.565C4.28175 112.688 4.27911 98.8144 4.27663 84.9405C4.28688 82.3934 3.88947 79.7647 2.51758 77.5671C7.85605 75.8776 13.2357 74.3156 18.6537 72.8993Z" fill="#3E3430"/>
<path d="M175.82 74.1737C177.446 72.8822 179.692 72.6168 181.671 73.0992C183.425 73.5509 185.171 74.0333 186.915 74.5233C188.689 75.0441 190.561 75.409 192.125 76.4502C195.648 78.7089 198.082 82.772 197.982 86.9908C197.977 89.2368 197.984 91.4828 197.977 93.7263C195.1 92.8636 192.236 91.9626 189.354 91.1153C190.487 89.3747 190.553 87.2205 190.584 85.2146C190.628 83.987 189.969 82.7951 188.956 82.1111C187.941 81.5011 186.728 81.3761 185.62 81.006C184.674 80.7814 183.63 80.248 182.692 80.766C181.902 81.1641 181.687 82.106 181.728 82.9176C181.741 87.5881 181.715 92.2587 181.741 96.9267C181.689 97.7331 182.284 98.4606 183.066 98.6315C185.715 99.3538 188.361 100.089 190.997 100.86C195.336 101.955 198.597 106.288 198.464 110.734C198.456 115.583 198.459 120.43 198.461 125.279C198.487 126.854 198.484 128.51 197.728 129.942C196.984 131.461 195.51 132.586 193.846 132.915C192.389 133.25 190.879 133 189.472 132.573C187.177 131.902 184.869 131.272 182.561 130.649C177.515 129.355 173.589 124.376 173.812 119.146C173.817 116.9 173.815 114.657 173.815 112.411C176.746 113.059 179.643 113.835 182.551 114.578C181.387 116.285 181.338 118.437 181.289 120.425C181.228 121.443 181.661 122.451 182.4 123.153C183.4 124.133 184.892 124.197 186.156 124.631C187.125 124.85 188.169 125.412 189.151 124.95C189.884 124.6 190.182 123.75 190.143 122.985C190.141 118.301 190.154 113.616 190.138 108.932C190.161 108.197 189.664 107.477 188.951 107.273C186.151 106.452 183.328 105.706 180.507 104.959C176.397 103.95 173.192 99.9307 173.315 95.6914C173.325 90.319 173.302 84.9466 173.328 79.5742C173.338 77.5349 174.163 75.4345 175.82 74.1737Z" fill="#3E3430"/>
<path d="M106.93 64.6164C108.276 67.1712 108.804 70.0755 108.735 72.9442C108.73 86.0473 108.737 99.1529 108.73 112.256C108.732 114.88 108.186 117.529 106.909 119.841C110.988 119.91 115.066 120.101 119.143 120.324C117.896 117.917 117.325 115.209 117.34 112.511C117.358 108.53 117.296 104.546 117.373 100.567C118.758 100.684 120.15 100.712 121.535 100.843C123.663 101.036 125.45 102.997 125.443 105.122C125.458 108.775 125.44 112.429 125.448 116.082C125.44 117.789 126.001 119.469 126.961 120.877C129.922 121.145 132.879 121.49 135.845 121.72C134.556 119.29 134.032 116.523 134.037 113.795C134.025 111.077 134.063 108.359 134.02 105.643C133.943 102.984 132.799 100.495 131.255 98.3718C133.427 96.5088 134.63 93.6606 134.625 90.8251C134.627 86.3203 134.643 81.8157 134.62 77.3111C134.486 71.4946 129.707 66.1094 123.866 65.4484C118.23 64.9966 112.581 64.7695 106.93 64.6164ZM104.312 63.0007C108.73 63.0621 113.147 63.2127 117.561 63.4499C118.03 63.4754 118.501 63.5011 118.976 63.5317C121.535 63.7716 124.186 63.6133 126.637 64.5015C130.881 65.9613 134.24 69.5651 135.589 73.8043C136.056 75.2616 136.23 76.7981 136.22 78.3243C136.217 82.4001 136.22 86.4786 136.22 90.557C136.222 92.0042 136.043 93.4589 135.584 94.8346C135.079 96.2715 134.263 97.573 133.291 98.737C134.522 100.687 135.335 102.889 135.589 105.184C135.676 107.8 135.599 110.424 135.625 113.045C135.579 115.704 135.738 118.496 136.948 120.916C137.186 121.868 137.681 122.725 138.135 123.588C137.745 123.547 137.358 123.509 136.971 123.468C136.507 123.417 136.045 123.366 135.586 123.315C132.696 122.978 129.799 122.72 126.901 122.47C126.268 122.495 125.894 121.939 125.55 121.5C124.442 120.027 123.843 118.19 123.876 116.347C123.871 112.692 123.884 109.038 123.876 105.385C123.909 104.49 123.599 103.563 122.868 103.002C121.783 102.113 120.273 102.399 118.976 102.262C118.983 105.937 118.971 109.612 118.981 113.285C119.02 116.406 120.165 119.4 121.725 122.069C120.809 122.018 119.891 121.962 118.976 121.906C118.507 121.878 118.04 121.847 117.573 121.824C113.16 121.579 108.74 121.431 104.319 121.373C106.147 118.511 107.227 115.155 107.147 111.748C107.142 98.645 107.15 85.5445 107.145 72.4415C107.165 69.1006 106.101 65.8107 104.312 63.0007Z" fill="#FEC324"/>
<path d="M71.7826 65.7969C73.1237 68.1169 73.6134 70.8196 73.6031 73.4689C73.6058 86.0641 73.6031 98.6566 73.6031 111.252C73.7134 114.567 73.3955 118.005 71.7852 120.973C77.4084 120.524 83.0393 120.167 88.6778 119.94C94.3649 119.636 99.4138 114.667 99.5086 108.947C99.5291 97.8859 99.5086 86.8246 99.5189 75.7659C99.5394 72.7441 98.2394 69.7503 96.0241 67.6906C93.947 65.7178 91.0572 64.6331 88.188 64.7657C82.711 64.9726 77.2391 65.2967 71.7826 65.7969ZM82.811 63.4284C84.8623 63.3443 86.9111 63.1962 88.9649 63.1835C93.2701 63.2217 97.36 65.7791 99.4523 69.4925C100.055 70.5338 100.434 71.6797 100.829 72.8078C101.211 74.8828 101.091 76.996 101.106 79.0939V104.846C101.086 107.099 101.224 109.373 100.819 111.607C100.396 112.704 100.019 113.83 99.4369 114.861C97.3214 118.5 93.4316 121.047 89.224 121.473C87.0905 121.657 84.9443 121.665 82.8085 121.803C82.3546 121.828 81.9008 121.854 81.4495 121.882C77.3596 122.089 73.2826 122.471 69.2031 122.793C70.9749 119.863 72.057 116.479 72.0185 113.038C72.0134 99.851 72.0236 86.6612 72.0134 73.474C72.0416 70.2531 70.9622 67.1139 69.216 64.4263C73.2904 64.0819 77.3647 63.7296 81.4469 63.5101C81.9008 63.482 82.3546 63.454 82.811 63.4284Z" fill="#FEC324"/>
<path d="M142.535 67.3891C143.73 69.834 144.33 72.542 144.325 75.2576C144.33 88.6108 144.333 101.964 144.323 115.32C144.335 117.844 143.73 120.347 142.564 122.588C149.928 123.51 157.241 124.814 164.518 126.266C164.969 123.459 165.459 120.656 165.913 117.849C163.774 118.645 161.431 118.706 159.21 118.244C157.095 117.836 154.966 117.489 152.848 117.101C152.889 111.41 152.784 105.713 152.9 100.022C154.987 100.448 157.13 100.655 159.136 101.41C160.766 101.959 162.248 102.844 163.661 103.807C163.682 100.287 163.661 96.7677 163.672 93.2482C160.148 94.4705 156.405 93.6974 152.856 93.044C152.843 87.3525 152.861 81.6611 152.846 75.967C155.076 76.281 157.284 76.72 159.5 77.1206C161.848 77.5545 164.056 78.6214 165.895 80.1322C165.464 77.1078 165.002 74.086 164.466 71.0771C157.192 69.6453 149.884 68.3742 142.535 67.3891ZM139.951 65.503C144.558 66.0491 149.146 66.751 153.72 67.5141C154.141 67.5856 154.571 67.657 154.997 67.731C158.625 68.3819 162.256 69.0327 165.854 69.8291C166.515 74.2596 167.248 78.6775 167.897 83.1056C166.133 81.6764 164.202 80.4359 162.107 79.5453C159.859 78.5678 157.387 78.3534 155.002 77.8991C154.805 77.8685 154.61 77.8379 154.415 77.8073C154.435 82.4497 154.415 87.0922 154.428 91.7321C154.569 91.7576 154.856 91.8086 155 91.8341C158.395 92.5819 162 92.3649 165.21 90.9971C165.238 96.2189 165.228 101.443 165.218 106.665C164.031 105.836 162.913 104.899 161.625 104.22C159.582 103.049 157.31 102.321 154.984 101.977C154.848 101.949 154.582 101.892 154.448 101.864C154.387 106.507 154.451 111.147 154.415 115.789C154.561 115.817 154.851 115.874 154.997 115.901C157.589 116.315 160.174 117.07 162.825 116.838C164.561 116.749 166.233 116.251 167.895 115.787C167.215 119.893 166.515 124 165.851 128.111C162.238 127.409 158.63 126.667 155 126.059C154.571 125.985 154.146 125.916 153.723 125.845C149.148 125.041 144.548 124.403 139.948 123.793C142.051 120.822 142.933 117.145 142.758 113.541C142.753 101.624 142.758 89.7082 142.756 77.792C142.751 75.9109 142.828 74.012 142.471 72.154C142.064 69.8009 141.138 67.5703 139.951 65.503Z" fill="#FEC324"/>
<path d="M51.5619 68.2115C49.2567 68.6401 46.8387 68.727 44.6901 69.7531C39.8746 71.9786 36.4438 77.0906 36.5334 82.417C36.5387 94.415 36.5387 106.413 36.5334 118.411C36.5438 121.165 35.9386 123.906 34.777 126.404C38.7874 125.68 42.7746 124.802 46.8106 124.222C45.6209 122.043 45.0516 119.577 45.0389 117.104C45.026 113.705 45.0182 110.305 45.0465 106.908C48.2285 106.395 51.4056 105.846 54.6005 105.428C54.5902 108.815 54.6081 112.204 54.5927 115.593C54.5671 118.238 53.9723 120.876 52.785 123.247C56.8338 122.643 60.8954 122.114 64.9673 121.675C63.6825 119.447 63.1672 116.862 63.1595 114.31C63.1492 102.148 63.1621 89.9844 63.1519 77.8231C63.1672 74.6583 61.639 71.4707 58.9773 69.6841C56.844 68.1987 54.1031 67.7521 51.5619 68.2115ZM46.6952 67.4535C49.8541 66.966 53.0902 65.9911 56.2903 66.7236C59.2466 67.377 61.8466 69.36 63.3005 71.9991C64.003 73.1373 64.2031 74.4772 64.7134 75.692C64.8339 77.5858 64.7775 79.4822 64.7878 81.3758C64.7929 92.3477 64.78 103.317 64.7929 114.289C64.7365 117.39 65.8441 120.404 67.5365 122.972C66.5852 123.076 65.6365 123.189 64.6878 123.293C64.2262 123.342 63.7672 123.388 63.3083 123.441C58.9363 123.939 54.5748 124.536 50.2259 125.218C51.7851 122.42 52.9004 119.322 53.0029 116.101C53.0697 113.148 52.9902 110.193 53.0439 107.242C50.9209 107.505 48.8081 107.865 46.6977 108.222C46.7106 111.275 46.6875 114.325 46.7055 117.377C46.7157 120.236 47.7977 122.99 49.3875 125.338C48.49 125.493 47.5927 125.647 46.6952 125.794C46.2259 125.869 45.7593 125.948 45.2926 126.029C40.9233 126.78 36.5694 127.635 32.2334 128.559C33.1514 126.655 34.0642 124.725 34.5028 122.645C35.1258 120.164 34.9412 117.592 34.9643 115.063C34.9668 104.259 34.9617 93.4554 34.9668 82.6518C34.9258 76.2458 39.2977 70.1256 45.2951 67.8796C45.7517 67.7087 46.2182 67.5659 46.6952 67.4535Z" fill="#FEC324"/>
<path d="M18.6541 72.9009C13.2361 74.3172 7.85645 75.8794 2.51798 77.5689C3.88987 79.7663 4.28728 82.3951 4.27703 84.9422C4.27951 98.816 4.28215 112.69 4.27438 126.566C4.29753 129.43 3.66406 132.265 2.53335 134.894C6.45646 133.633 10.4078 132.467 14.3797 131.372C13.0848 129.236 12.6258 126.717 12.613 124.251C12.5975 120.249 12.6233 116.248 12.6001 112.246C14.9464 111.483 17.3771 111.005 19.7157 110.224C25.3825 108.073 29.703 102.318 29.5517 96.1923C29.5439 91.2564 29.5542 86.3229 29.5466 81.387C29.5798 78.2861 28.0312 75.0753 25.2157 73.5951C23.231 72.5027 20.8285 72.3521 18.6541 72.9009ZM18.8465 71.2751C21.6746 70.5809 24.8312 71.0199 27.1979 72.763C27.6568 73.0998 28.0849 73.4776 28.4825 73.886C30.2414 75.8614 31.1337 78.503 31.1159 81.1292C31.1183 86.3127 31.1388 91.4988 31.1056 96.6849C31.0851 99.6149 29.9055 102.353 28.4952 104.867C28.0107 105.383 27.626 105.977 27.185 106.526C25.6798 108.254 23.913 109.773 21.8797 110.85C19.4823 112.167 16.7438 112.593 14.1514 113.369C14.1565 116.916 14.1309 120.464 14.1643 124.011C14.1926 126.964 15.1464 129.889 16.9106 132.27C14.7463 132.845 12.5873 133.437 10.4411 134.072C10.0129 134.195 9.58475 134.317 9.15908 134.442C6.09245 135.336 3.04614 136.305 0.00247953 137.275C1.61539 134.118 2.73073 130.642 2.73602 127.074C2.74098 113.118 2.74098 99.1657 2.73602 85.2127C2.75123 82.2138 1.85889 79.1843 0 76.8006C3.04102 75.8206 6.0898 74.866 9.15396 73.9574C9.58227 73.8299 10.0129 73.7048 10.4437 73.5822C13.2386 72.786 16.0334 71.9948 18.8465 71.2751Z" fill="#FEC324"/>
<path d="M175.82 74.1738C174.164 75.4347 173.338 77.535 173.328 79.5743C173.302 84.9467 173.325 90.3191 173.315 95.6915C173.192 99.9309 176.397 103.951 180.508 104.959C183.328 105.707 186.151 106.452 188.951 107.273C189.664 107.478 190.162 108.197 190.138 108.933C190.154 113.616 190.141 118.302 190.144 122.985C190.182 123.751 189.885 124.6 189.151 124.95C188.169 125.412 187.126 124.851 186.156 124.631C184.892 124.197 183.4 124.134 182.4 123.153C181.661 122.451 181.228 121.443 181.29 120.425C181.338 118.437 181.387 116.285 182.551 114.578C179.643 113.835 176.746 113.059 173.815 112.411C173.815 114.657 173.818 116.901 173.813 119.146C173.59 124.376 177.515 129.355 182.561 130.649C184.869 131.272 187.177 131.902 189.472 132.574C190.88 133 192.39 133.25 193.846 132.916C195.51 132.586 196.985 131.461 197.728 129.942C198.485 128.51 198.487 126.854 198.462 125.279C198.459 120.43 198.457 115.584 198.464 110.734C198.598 106.288 195.336 101.955 190.998 100.86C188.362 100.089 185.715 99.354 183.067 98.6317C182.285 98.4607 181.69 97.7333 181.741 96.9269C181.715 92.2589 181.741 87.5882 181.728 82.9178C181.687 82.1061 181.903 81.1643 182.692 80.7661C183.631 80.2481 184.674 80.7816 185.621 81.0062C186.728 81.3762 187.941 81.5013 188.956 82.1112C189.969 82.7952 190.628 83.9871 190.585 85.2148C190.554 87.2207 190.487 89.3748 189.354 91.1155C192.236 91.9627 195.1 92.8637 197.977 93.7264C197.985 91.4829 197.977 89.2369 197.982 86.991C198.082 82.7722 195.649 78.709 192.126 76.4504C190.562 75.4092 188.69 75.0442 186.915 74.5235C185.172 74.0335 183.426 73.551 181.672 73.0994C179.692 72.6169 177.446 72.8823 175.82 74.1738ZM173.136 74.5004C174.823 71.8591 178.261 70.7233 181.264 71.4328C184.159 72.1398 187.026 72.9692 189.887 73.7962C190.362 73.9468 190.828 74.1279 191.28 74.3474C195.78 76.5856 199.054 81.2332 199.475 86.2407C199.546 89.4258 199.487 92.6136 199.5 95.8012C196.762 94.9565 194.039 94.0734 191.287 93.2721C190.82 93.1342 190.354 92.999 189.89 92.8637C188.905 92.5728 187.918 92.2895 186.928 92.0316C188.667 89.8393 189.333 86.9528 188.969 84.2066C188.792 83.3721 187.838 83.2062 187.149 83.0019C186.046 82.757 184.987 82.2924 183.856 82.1955C183.251 82.2567 183.308 82.9739 183.282 83.4155C183.305 87.9864 183.254 92.56 183.31 97.1309C185.515 97.7104 187.708 98.3279 189.897 98.9635C190.356 99.0962 190.818 99.2238 191.28 99.3617C196.446 100.867 200.221 106.153 199.99 111.5C199.974 116.778 199.993 122.053 199.982 127.331C199.98 129.57 199.1 131.9 197.28 133.288C195.605 134.605 193.349 134.939 191.287 134.598C190.816 134.518 190.354 134.398 189.897 134.281C187.38 133.528 184.841 132.849 182.308 132.157C178.179 131.024 174.82 127.788 173.159 123.906C172.561 122.393 172.228 120.772 172.256 119.144C172.266 116.247 172.249 113.35 172.266 110.454C172.49 110.502 172.931 110.599 173.154 110.648C177.09 111.576 181.008 112.585 184.918 113.626C183.246 115.902 182.482 118.812 182.944 121.602C183.228 122.385 184.162 122.48 184.856 122.702C185.956 122.947 187.015 123.416 188.151 123.48C188.623 123.235 188.6 122.674 188.613 122.219C188.605 117.732 188.6 113.243 188.613 108.756C185.869 107.957 183.108 107.228 180.349 106.498C177.269 105.691 174.659 103.496 173.131 100.742C172.441 99.5453 172.051 98.2055 171.782 96.8604C171.726 90.6178 171.726 84.3751 171.779 78.1349C172.033 76.8639 172.397 75.5828 173.136 74.5004Z" fill="#FEC324"/>
<path d="M83.829 73.553C83.7238 75.3906 83.8058 77.2333 83.7828 79.0735C83.7853 89.8974 83.7751 100.721 83.7853 111.545C85.1314 111.402 86.5599 111.637 87.8445 111.155C88.7803 110.716 89.3828 109.7 89.3265 108.671C89.3238 97.7838 89.3238 86.8961 89.3265 76.0083C89.4136 74.8572 88.6034 73.696 87.4469 73.4867C86.2443 73.354 85.0341 73.5581 83.829 73.553ZM82.1904 72.0957C83.7546 71.9809 85.3239 71.9119 86.8931 71.8558C88.5034 71.7793 90.07 72.8205 90.6393 74.3135C91.0239 75.2605 90.8957 76.2941 90.9136 77.2869C90.9085 87.7586 90.9136 98.2278 90.9136 108.697C90.9958 110.785 89.2675 112.745 87.1829 112.949C85.5239 113.082 83.8571 113.13 82.1956 113.199C82.1904 99.4988 82.2007 85.796 82.1904 72.0957Z" fill="#FEC324"/>
<path d="M118.973 73.7297C118.986 79.8347 118.973 85.942 118.981 92.0494C120.083 92.1031 121.186 92.241 122.291 92.2307C123.543 92.2232 124.558 91.0364 124.468 89.8112C124.473 85.4724 124.468 81.1337 124.471 76.7976C124.53 75.6948 123.889 74.5949 122.871 74.1457C121.627 73.7067 120.268 73.8752 118.973 73.7297ZM117.345 72.0605C118.912 72.1474 120.478 72.2265 122.042 72.3465C124.258 72.5123 126.096 74.5668 126.053 76.7694C126.058 81.2 126.065 85.6332 126.05 90.0639C126.068 91.488 125.217 92.8841 123.904 93.471C123.004 93.9253 121.968 93.8284 120.996 93.7672C119.771 93.6701 118.54 93.6524 117.319 93.4941C117.368 86.3504 117.317 79.2041 117.345 72.0605Z" fill="#FEC324"/>
<path d="M46.7084 79.8284C46.6852 85.8976 46.716 91.9667 46.693 98.0359C48.8033 97.7552 50.8905 97.339 53.0033 97.0814C53.0623 91.2496 53.006 85.4178 53.0314 79.5859C53.0648 78.7768 52.9187 77.8529 52.2034 77.3578C51.3443 76.6738 50.1904 77.0133 49.2135 77.1689C47.9135 77.3527 46.6955 78.4706 46.7084 79.8284ZM48.8187 75.6734C49.6264 75.5074 50.4468 75.3544 51.275 75.3442C52.5572 75.3467 53.7905 76.1659 54.2879 77.3452C54.6161 78.0469 54.5982 78.8407 54.6033 79.5987C54.5777 85.8746 54.6263 92.1531 54.5804 98.429C51.3853 98.8449 48.2162 99.4218 45.0288 99.8965C45.0313 93.4674 45.0288 87.041 45.0288 80.6144C44.9391 78.3582 46.6084 76.1736 48.8187 75.6734Z" fill="#FEC324"/>
<path d="M14.1459 82.7348C14.1459 89.5312 14.1588 96.3252 14.1408 103.122C15.1536 102.918 16.1511 102.647 17.1383 102.346C18.5896 101.95 19.628 100.483 19.5665 98.9949C19.5536 93.893 19.5819 88.7911 19.5536 83.6893C19.6024 82.6862 18.7049 81.7395 17.6767 81.839C16.4715 82.0073 15.3229 82.4387 14.1459 82.7348ZM12.5996 81.6093C14.0074 81.1626 15.4434 80.8078 16.8639 80.4072C17.7972 80.1212 18.8691 80.0932 19.7178 80.6342C20.6792 81.2034 21.1383 82.3468 21.1178 83.4265C21.128 88.102 21.1127 92.7778 21.1229 97.4509C21.1203 98.3491 21.1742 99.2679 20.9202 100.141C20.3691 101.935 18.905 103.461 17.0664 103.954C15.5793 104.355 14.1023 104.801 12.5996 105.141C12.6125 97.2977 12.6176 89.4523 12.5996 81.6093Z" fill="#FEC324"/>
</g>
<defs>
<clipPath id="clip0_18_1248">
<rect width="200" height="200" fill="white"/>
</clipPath>
</defs>
</svg>
