<svg width="200" height="200" viewBox="0 0 200 200" fill="none" xmlns="http://www.w3.org/2000/svg">
<path d="M107.021 72.4443C108.546 72.8547 110.031 73.4049 111.432 74.0771L115.183 71.689C112.159 70.0696 109.036 68.3004 106.061 66.3926C106.394 68.5078 106.731 70.6208 107.02 72.4455L107.021 72.4443ZM90.1905 120.407H90.205L90.1916 120.394V120.408L90.1905 120.407ZM88.316 119.474L88.3216 119.488C88.3149 119.474 88.3071 119.474 88.3071 119.474H88.316Z" fill="#005C5C"/>
<path d="M147.361 100.741C145.766 101.015 144.048 101.318 142.23 101.62L142.008 101.661C146.336 109.511 148.933 119.213 148.933 131.303C148.933 167.629 125.294 193.359 97.9472 193.359C80.4235 193.359 73.5673 186.457 69.3208 185.14L50.4024 191.973V132.36C54.9288 132.882 58.7822 136.997 60.9055 141.238C69.3064 158.009 78.8289 172.24 96.8878 172.24C107.509 172.24 114.542 162.455 114.542 148.539C114.542 140.799 111.08 134.652 105.962 129.409C105.915 129.697 105.873 129.985 105.825 130.274C105.42 132.784 105.037 135.158 104.755 136.846C107.75 141.114 109.308 145.368 109.308 149.485C109.308 154.658 107.969 166.666 95.5563 166.666C78.5735 166.666 68.9632 145.231 64.8622 136.078C61.6884 128.997 52.7722 124.414 47.5573 123.837L44.8443 123.535V200C44.8443 200 67.0187 192.055 68.6667 191.45C69.2164 191.698 69.7939 191.931 69.7939 191.931C76.3836 194.744 86.3369 198.971 96.89 198.971C125.232 198.971 154.558 173.858 154.558 131.823C154.558 120.199 152.115 109.784 147.362 100.74L147.361 100.741ZM124.869 77.0558C124.477 77.9342 124.052 78.8671 123.584 79.8687C123.584 79.8687 123.281 80.5408 122.826 81.5291C122.778 81.6256 122.737 81.721 122.689 81.8308C127.45 84.7946 131.851 88.3352 135.645 92.6311L135.887 92.6721C138.305 93.0825 140.758 93.4929 143.148 93.92C138.464 87.3735 132.343 81.7199 124.869 77.0558ZM122.444 9.23516C116.28 4.62534 106.43 0 95.5563 0C74.8922 0 44.3091 18.965 44.3091 59.6969C44.3091 73.4875 47.3119 84.8645 53.665 94.4568C55.3141 94.1828 57.072 93.8667 58.9288 93.565C59.162 93.524 59.3952 93.4829 59.6339 93.443C53.6783 85.1396 49.8871 74.1874 49.8871 58.3658C49.8871 27.8741 74.3147 5.10673 95.9549 5.10673C104.85 5.10673 115.688 11.0354 121.53 15.6729C124.972 14.506 137.563 9.33387 137.563 9.33387V63.5402C133.791 62.6063 129.615 59.82 127.685 56.5124C119.458 42.46 114.283 26.6207 100.468 26.6207C89.8472 26.6207 84.8056 34.2375 84.8056 44.8447C84.8056 52.2431 88.6645 58.8284 94.8667 64.6061C94.8955 64.4553 94.9166 64.29 94.9511 64.1403C95.3086 61.8609 95.6507 59.7479 95.8928 58.225C92.3836 54.4371 90.0882 50.1833 90.0882 45.3805C90.0882 41.4561 91.0077 32.3297 99.5407 32.3297C108.847 32.3297 113.511 41.0424 115.463 46.2279C117.318 51.1561 121.673 59.1434 127.767 64.605L131.132 62.6706L129.622 65.9782C132.837 68.4207 136.47 70.2187 140.51 70.6169L143.189 70.8642V1.56396C143.187 1.56396 124.495 8.4809 122.441 9.23516H122.444Z" fill="#005C5C"/>
<path d="M88.103 75.5997H88.0952H88.1107M110.353 120.325H110.36H110.346M118.295 148.702C118.295 166.954 108.258 176.313 97.5289 176.313C66.3739 176.313 59.4499 142.17 54.2695 138.931V186.483C58.6393 185.534 68.4561 180.389 68.4561 180.389C72.7837 180.389 81.0824 189.761 96.656 189.761C120.196 189.761 145.107 166.708 145.107 132.139C145.107 119.309 142.112 109.813 137.42 102.388C134.149 102.909 129.258 103.691 125.26 104.323C124.543 106.924 123.424 109.396 121.943 111.652C122.328 112.517 122.583 113.079 122.583 113.079C123.236 114.521 130.956 133.252 130.956 133.252C130.956 133.252 118.144 125.211 111.311 120.929C109.953 121.581 108.539 122.109 107.086 122.508C106.949 123.317 106.813 124.209 106.667 125.129C113.563 130.891 118.297 137.945 118.297 148.703L118.295 148.702ZM120.301 112.35H120.294H120.301ZM75.1124 104.241C75.0405 104.239 74.9691 104.229 74.8992 104.213C74.988 104.281 75.0768 104.35 75.1657 104.432C75.1546 104.363 75.1257 104.31 75.1102 104.24L75.1124 104.241ZM77.4 80.9106C72.0419 69.0122 70.2895 62.509 70.2895 62.509C70.2895 62.509 82.2007 69.863 88.9814 74.0624C90.4731 73.3541 92.0269 72.7845 93.6232 72.3609C93.7676 71.4824 93.9253 70.5218 94.0841 69.5213C86.3617 63.687 80.9081 56.5105 80.9081 44.956C80.9081 31.0423 89.3845 22.6301 98.7337 22.6301C121.226 22.6301 123.966 50.4188 133.687 57.4455V14.9578C130.011 16.4264 121.926 19.9936 121.926 19.9936C119.844 19.9936 117.077 17.3604 112.934 14.4776C108.769 11.8288 103.228 9.19336 95.9653 9.19336C76.063 9.19336 53.5332 29.1189 53.5332 58.6368C53.5332 73.8694 57.5421 84.6286 63.561 92.8078C66.6648 92.3142 71.2123 91.5732 75.0324 90.9687C75.7542 88.1957 76.9203 85.6024 78.4527 83.2842C77.8375 81.911 77.3978 80.9106 77.3978 80.9106H77.4ZM125.336 90.8867C126.105 91.0253 126.924 91.1617 127.74 91.2993C126.746 90.4343 125.724 89.6012 124.677 88.8014C124.925 89.4891 125.142 90.1879 125.336 90.8867Z" fill="#C4CED4"/>
<path d="M83.6373 78.7415C83.2875 79.0587 82.9433 79.3737 82.6079 79.7032C82.971 79.346 83.3408 79.0044 83.7262 78.6738C83.6929 78.6871 83.6651 78.716 83.6373 78.7415Z" fill="#C4CED4"/>
<path d="M93.3243 85.8788C93.1022 86.0297 92.9245 86.1395 92.8968 86.1395C92.8968 86.1395 92.4082 86.043 92.2105 85.8788H92.196H92.2027C92.1706 85.8543 92.1466 85.8207 92.1339 85.7823C92.1339 85.7823 92.9867 85.1923 93.4731 84.8761C93.7063 83.2989 93.9839 81.4742 94.2971 79.4699C94.608 77.4512 94.9567 75.2439 95.3143 72.9512C94.688 73.0876 94.0706 73.2251 93.4598 73.3893C92.2494 73.7332 91.0833 74.158 89.9551 74.6649C89.3221 74.9533 88.7058 75.2561 88.1083 75.5988H88.0939C87.7496 75.7907 87.4142 75.9826 87.0833 76.1889C87.0633 76.2 87.0422 76.2155 87.0211 76.2288C86.7135 76.4207 86.417 76.6126 86.1216 76.8189C86.0794 76.8467 86.0328 76.8744 85.9839 76.901C85.7167 77.0908 85.4513 77.2831 85.1877 77.4778C85.1255 77.5333 85.0656 77.5743 85.01 77.6153C84.6991 77.8483 84.397 78.0956 84.095 78.343C84.2105 78.4539 84.4104 78.6314 84.437 78.7267C84.437 78.7267 83.9706 80.4016 83.7707 80.4682C83.7707 80.4682 83.593 80.3051 83.462 80.1687C83.2554 80.2219 82.1372 80.5658 81.663 80.6756C81.3876 80.9773 81.1188 81.2934 80.8657 81.5962C80.8512 81.6073 80.8457 81.6229 80.8323 81.6362C80.5847 81.939 80.3371 82.2551 80.1039 82.5845C79.6762 83.1391 79.2796 83.7167 78.9156 84.3149C78.6269 84.7663 78.367 85.2333 78.1116 85.7125C78.0705 85.7823 78.0306 85.8644 77.9895 85.9343C77.7341 86.4268 77.4942 86.9215 77.2676 87.4151C77.2676 87.4428 77.261 87.4428 77.261 87.4561C77.0278 87.9774 76.8201 88.5132 76.6224 89.0478C76.6169 89.0755 76.6091 89.0889 76.6091 89.0889C76.406 89.6485 76.2245 90.2157 76.065 90.7892V90.8026C75.9017 91.406 75.7507 92.0116 75.6274 92.6416C78.6369 92.1613 81.5064 91.7099 84.0206 91.3239C88.3759 90.6517 91.6741 90.1703 92.7602 90.0749C92.7735 89.923 92.7935 89.7311 92.8213 89.4981C92.9179 88.7173 93.09 87.4683 93.3232 85.8766L93.3243 85.8788ZM83.0056 81.9124C83.0056 81.9124 82.4836 81.5951 82.5103 81.3755C82.5103 81.3755 84.5025 80.7577 84.6047 80.7721L85.0311 81.0328L85.4642 79.4411L85.4975 79.2902L85.6352 79.3723C85.6352 79.3723 86.135 79.6607 86.1905 79.7971C86.1905 79.7971 85.7163 81.5541 85.532 81.6217C85.532 81.6217 85.2488 81.4576 85.0844 81.3201C84.9623 81.3489 83.1077 81.9124 83.0056 81.9124ZM84.5159 82.6666C84.5159 82.6666 86.4537 81.939 86.5569 81.9534L87.0234 82.1863L87.2932 80.5802L87.3187 80.4138L87.4709 80.497C87.4709 80.497 88.0039 80.7577 88.0739 80.8808C88.0739 80.8808 87.7785 82.6522 87.5997 82.7487C87.5997 82.7487 87.2843 82.5978 87.1055 82.4603C87.0167 82.5013 85.1766 83.1735 85.0789 83.1735C85.0789 83.1735 84.5014 82.8851 84.517 82.6666H84.5159ZM86.8257 83.8468C86.8257 83.8468 88.7135 83.0504 88.8101 83.0504L89.3176 83.2567L89.4487 81.6506L89.4553 81.4864L89.6064 81.5552C89.6064 81.5552 90.1838 81.7881 90.2593 81.899C90.2593 81.899 90.115 83.6815 89.9429 83.7913C89.9429 83.7913 89.6064 83.6538 89.4209 83.5307C89.3798 83.5418 87.5386 84.326 87.4442 84.326C87.4442 84.326 86.8246 84.0786 86.8246 83.8457L86.8257 83.8468ZM89.9429 85.342C89.9429 85.342 89.4831 85.22 89.3043 85.0403H89.2977C89.271 85.0126 89.2355 84.9715 89.231 84.9294C89.231 84.9294 90.9467 83.9422 91.0367 83.9289L91.5997 84.0797L91.4143 82.5013L91.3943 82.3106L91.5719 82.366C91.5719 82.366 92.2116 82.5302 92.3004 82.64C92.3004 82.64 92.5003 84.4236 92.3482 84.5478C92.3482 84.5478 91.9595 84.4369 91.7452 84.3559C91.7097 84.3692 90.0406 85.3298 89.944 85.3431L89.9429 85.342Z" fill="white"/>
<path d="M83.3901 79.8293L83.7266 78.6758C83.3423 79.0052 82.9714 79.348 82.6083 79.7051C82.8682 79.623 83.068 79.5831 83.1025 79.5942L83.3912 79.8271L83.3901 79.8293ZM75.6832 102.568C76.297 105.513 77.4425 108.321 79.0636 110.856C79.4412 111.446 79.8321 112.023 80.2585 112.572C80.5394 112.941 80.8359 113.311 81.138 113.654C81.1713 113.71 81.2002 113.736 81.2268 113.776C81.5433 114.135 81.8654 114.491 82.1963 114.834C82.1463 114.67 82.1119 114.533 82.1186 114.491C82.1186 114.491 82.545 114.136 82.7293 114.176C82.7293 114.176 83.2579 115.589 83.2246 115.726L83.1624 115.782C83.3401 115.959 83.5267 116.126 83.7199 116.29L84.826 116.715L84.6616 116.852C84.6616 116.852 84.5994 116.892 84.5239 116.961C84.8049 117.194 85.1014 117.413 85.4034 117.633C85.4512 117.674 85.4923 117.702 85.5411 117.729C85.801 117.922 86.0631 118.101 86.3373 118.293L86.4195 118.334C86.7082 118.539 87.0081 118.718 87.3046 118.911C87.3201 118.911 87.3268 118.924 87.349 118.924C87.6555 119.101 87.9798 119.294 88.3018 119.473C88.3018 119.473 88.3162 119.473 88.324 119.486C88.9348 119.816 89.5522 120.104 90.1897 120.393L90.2052 120.407C91.2424 120.846 92.3151 121.244 93.4201 121.546C94.0309 121.724 94.6494 121.876 95.2746 121.999C94.9248 119.789 94.5883 117.662 94.2863 115.698C94.1008 114.478 93.922 113.325 93.7566 112.256C93.5922 112.283 93.4123 112.324 93.3512 112.311C93.3512 112.311 92.2041 111.364 91.902 110.952L91.8543 110.923L91.8687 110.91C91.84 110.88 91.8227 110.841 91.8199 110.799C91.8199 110.799 92.2263 110.69 92.4462 110.663C92.4873 110.388 92.6794 109.193 92.7616 109.11C92.7616 109.11 93.037 109.043 93.278 109.014C93.1247 107.972 93.0003 107.093 92.9115 106.393L92.8915 106.408L92.9059 106.38C92.8525 105.969 92.8044 105.558 92.7616 105.146C91.6844 105.049 88.434 104.569 84.1397 103.911C81.61 103.512 78.7182 103.06 75.6821 102.566L75.6832 102.568ZM84.8049 114.425L84.5028 114.685L86.3906 115.412L86.2352 115.534C86.2352 115.534 85.8487 115.878 85.7243 115.906C85.7243 115.906 84.2541 115.344 83.8698 115.055H83.8632C83.8221 115.014 83.7943 114.986 83.7876 114.959C83.7876 114.959 84.0097 114.781 84.1585 114.67C84.063 114.382 83.6699 113.313 83.6921 113.189C83.6921 113.189 84.1252 112.832 84.3096 112.888C84.3096 112.888 84.8315 114.288 84.8049 114.425ZM89.7443 111.583C89.7777 111.35 89.9853 110.101 90.0597 110.019C90.0597 110.019 90.6783 109.772 90.8504 109.908C90.8504 109.908 90.6028 111.433 90.5284 111.515L90.1153 111.665L91.8543 112.819L91.6344 112.9C91.6344 112.9 91.0503 113.133 90.9392 113.12C90.9392 113.12 89.6622 112.282 89.3113 111.899L89.2702 111.871H89.2835C89.248 111.83 89.2213 111.789 89.2213 111.76C89.2213 111.762 89.5245 111.638 89.7432 111.582L89.7443 111.583ZM87.7721 110.925C87.7721 110.925 88.3362 110.636 88.5161 110.747C88.5161 110.747 88.5561 112.241 88.4939 112.351L88.1297 112.543L89.9431 113.585L89.7377 113.682C89.7377 113.682 89.2013 113.943 89.0847 113.929C89.0847 113.929 87.7666 113.175 87.3945 112.831L87.339 112.803L87.3546 112.79C87.3124 112.749 87.2857 112.708 87.2857 112.679C87.2857 112.679 87.5522 112.557 87.7521 112.474C87.7455 112.23 87.7121 111.034 87.7721 110.925ZM86.5017 111.706C86.5017 111.706 86.666 113.187 86.6127 113.31L86.2752 113.502L88.1297 114.434L87.9387 114.545C87.9387 114.545 87.4501 114.833 87.3279 114.844C87.3279 114.844 85.9176 114.132 85.5544 113.802L85.5278 113.791H85.5411C85.4989 113.749 85.4723 113.721 85.4723 113.693C85.4723 113.693 85.7055 113.556 85.8832 113.473C85.8632 113.213 85.7321 112.031 85.7876 111.923C85.7854 111.923 86.3207 111.608 86.5006 111.704L86.5017 111.706Z" fill="white"/>
<path d="M92.7671 110.815L93.6466 111.543C93.5722 111.036 93.5022 110.542 93.4356 110.075C93.3801 110.377 93.3179 110.637 93.2824 110.678L92.7671 110.817V110.815ZM107.922 105.147C107.9 105.311 107.88 105.546 107.847 105.819C107.699 106.956 107.538 108.091 107.366 109.224C107.53 109.127 107.641 109.058 107.668 109.045C107.668 109.045 108.156 109.141 108.347 109.305L108.354 109.319C108.396 109.346 108.423 109.374 108.43 109.415C108.43 109.415 107.708 109.909 107.221 110.238C106.98 111.83 106.693 113.682 106.377 115.729C106.066 117.676 105.738 119.762 105.387 121.945H105.393C106.018 121.812 106.637 121.652 107.248 121.464H107.255C108.321 121.163 109.342 120.777 110.345 120.325H110.352C110.99 120.037 111.618 119.735 112.22 119.405C112.569 119.199 112.915 119.007 113.258 118.788C113.269 118.788 113.285 118.774 113.306 118.76C113.608 118.568 113.917 118.376 114.219 118.17L114.35 118.088C114.624 117.897 114.899 117.704 115.16 117.5C115.222 117.458 115.277 117.417 115.332 117.376C115.643 117.143 115.951 116.896 116.254 116.648C116.199 116.597 116.152 116.537 116.116 116.471C116.116 116.471 116.576 114.796 116.776 114.727C116.776 114.727 116.967 114.891 117.091 115.029C117.25 114.988 117.854 114.796 118.363 114.658C118.699 114.301 119.015 113.945 119.324 113.588C119.348 113.542 119.382 113.5 119.421 113.466C119.721 113.094 120.01 112.723 120.293 112.353H120.3C120.712 111.791 121.105 111.213 121.477 110.623C122.06 109.677 122.587 108.689 123.048 107.673C123.048 107.661 123.055 107.661 123.055 107.661C123.277 107.167 123.473 106.672 123.659 106.178C123.673 106.137 123.687 106.096 123.701 106.068C123.892 105.561 124.071 105.025 124.223 104.49C124.401 103.888 124.552 103.27 124.689 102.652C121.75 103.105 118.959 103.544 116.508 103.928C112.277 104.575 109.07 105.04 107.924 105.15L107.922 105.147ZM109.166 112.874L108.988 112.834C108.988 112.834 108.347 112.656 108.259 112.56C108.259 112.56 108.053 110.776 108.203 110.652C108.203 110.652 108.609 110.763 108.816 110.844C108.864 110.816 110.518 109.857 110.608 109.842C110.608 109.842 111.075 109.964 111.255 110.158H111.269H111.261C111.295 110.186 111.323 110.227 111.323 110.269C111.323 110.269 109.619 111.256 109.521 111.27L108.958 111.106L109.164 112.875L109.166 112.874ZM111.753 112.147L111.247 111.941L111.102 113.71L110.95 113.641C110.95 113.641 110.373 113.408 110.291 113.284C110.291 113.284 110.442 111.515 110.606 111.405C110.606 111.405 110.95 111.543 111.142 111.666C111.19 111.639 113.025 110.856 113.114 110.856C113.114 110.856 113.724 111.118 113.724 111.337C113.724 111.337 111.843 112.147 111.753 112.147ZM114.008 113.245L113.533 113.012L113.245 114.769L113.094 114.699C113.094 114.699 112.549 114.439 112.483 114.3C112.483 114.3 112.777 112.531 112.956 112.448C112.956 112.448 113.271 112.6 113.45 112.723C113.554 112.695 115.388 112.024 115.478 112.024C115.478 112.024 115.861 112.215 115.992 112.407H116.006H116C116.026 112.462 116.048 112.489 116.048 112.529C116.048 112.529 114.104 113.244 114.006 113.244L114.008 113.245ZM118.054 113.822C118.054 113.822 116.046 114.439 115.951 114.41L115.531 114.164L115.057 115.905L114.92 115.824C114.92 115.824 114.426 115.536 114.365 115.398C114.365 115.398 114.846 113.641 115.018 113.573C115.018 113.573 115.299 113.74 115.465 113.876C115.609 113.835 117.457 113.273 117.552 113.286C117.552 113.288 118.081 113.602 118.054 113.822Z" fill="white"/>
<path d="M116.983 116.014C117.135 115.877 117.285 115.726 117.436 115.588L117.161 115.369L116.983 116.014ZM106.335 79.442C106.521 80.6765 106.699 81.8434 106.864 82.9271C107.008 82.8993 107.152 82.8716 107.2 82.886C107.2 82.886 108.341 83.8178 108.655 84.2304L108.711 84.2703L108.691 84.2836C108.724 84.3247 108.746 84.3657 108.738 84.3945C108.738 84.3945 108.333 84.5032 108.112 84.531C108.064 84.8061 107.879 86.0007 107.804 86.0838C107.804 86.0838 107.562 86.1393 107.336 86.1648C107.487 87.2219 107.617 88.1004 107.706 88.7858C107.775 89.3482 107.83 89.7874 107.859 90.0614C108.965 90.1723 112.165 90.6249 116.404 91.2837C118.897 91.6675 121.749 92.1068 124.744 92.5737C124.688 92.2587 124.606 91.9437 124.53 91.6276C124.46 91.3228 124.38 91.0205 124.289 90.7214C123.663 88.4942 122.729 86.3652 121.515 84.3956C121.143 83.8038 120.749 83.2265 120.333 82.6653C120.054 82.2784 119.758 81.9032 119.448 81.5406C119.409 81.4821 119.365 81.4272 119.317 81.3764C119.001 80.9926 118.678 80.6222 118.335 80.2783C118.405 80.4846 118.446 80.6488 118.438 80.6887C118.438 80.6887 118.013 81.0603 117.821 81.0059C117.821 81.0059 117.299 79.6084 117.326 79.4564L117.437 79.3743C117.292 79.2357 117.148 79.097 117.004 78.9617L115.747 78.4814L115.899 78.3439C115.899 78.3439 115.994 78.2629 116.099 78.1808C115.81 77.9479 115.521 77.715 115.218 77.4953C115.185 77.4676 115.144 77.4399 115.107 77.4133C114.837 77.2123 114.563 77.0163 114.285 76.8254C114.27 76.8254 114.252 76.811 114.236 76.7966C113.62 76.376 112.985 75.9823 112.334 75.6164C111.73 75.2828 111.111 74.9756 110.48 74.6957C108.831 73.9472 107.105 73.3818 105.333 73.0098C105.687 75.2725 106.022 77.4421 106.34 79.4453L106.335 79.442ZM110.819 83.6126C110.786 83.8344 110.573 85.0956 110.504 85.1765C110.504 85.1765 109.878 85.425 109.713 85.2874C109.713 85.2874 109.954 83.7789 110.03 83.668L110.435 83.5172L108.697 82.378L108.924 82.2948C108.924 82.2948 109.508 82.0619 109.618 82.0752C109.618 82.0752 110.888 82.9127 111.239 83.2842L111.286 83.3109L111.275 83.3253C111.308 83.3663 111.336 83.4074 111.336 83.4362C111.336 83.4362 111.033 83.5471 110.818 83.6137L110.819 83.6126ZM112.785 84.2725C112.785 84.2725 112.221 84.5609 112.041 84.45C112.041 84.45 112.001 82.9559 112.063 82.8461L112.427 82.6553L110.621 81.6127L110.82 81.5162C110.82 81.5162 111.356 81.2566 111.472 81.2566C111.472 81.2566 112.805 82.0253 113.176 82.3825L113.224 82.3969L113.21 82.4102C113.244 82.4512 113.27 82.4923 113.27 82.5211C113.27 82.5211 113.004 82.6431 112.804 82.7119C112.81 83.0003 112.846 84.1649 112.784 84.2759L112.785 84.2725ZM114.77 83.2709C114.77 83.2709 114.234 83.5726 114.055 83.4906C114.055 83.4906 113.883 82.0087 113.944 81.8855L114.282 81.6937L112.427 80.7619L112.621 80.6377C112.621 80.6377 113.107 80.3637 113.225 80.3493C113.225 80.3493 114.654 81.0625 115.013 81.3919H115.026L115.019 81.4053C115.06 81.433 115.094 81.474 115.094 81.5018C115.094 81.5018 114.855 81.6382 114.668 81.7203C114.695 81.9942 114.818 83.1611 114.77 83.2709ZM116.686 80.143H116.693C116.721 80.162 116.746 80.1844 116.768 80.2096C116.768 80.2096 116.555 80.4159 116.398 80.5268C116.494 80.8007 116.894 81.8855 116.865 82.0087C116.865 82.0087 116.44 82.3658 116.249 82.3104C116.249 82.3104 115.72 80.9106 115.747 80.773L116.058 80.5124L114.167 79.7847L114.32 79.6483C114.32 79.6483 114.711 79.3189 114.835 79.2911C114.833 79.2911 116.31 79.8546 116.686 80.143Z" fill="white"/>
<path d="M107.797 84.3831L106.98 83.7109C107.042 84.1358 107.102 84.5484 107.165 84.9455C107.207 84.7258 107.247 84.5462 107.276 84.5206L107.798 84.3831H107.797Z" fill="white"/>
<path d="M116.778 114.723C116.578 114.793 116.117 116.467 116.117 116.467C116.132 116.508 116.186 116.578 116.255 116.644C116.308 116.589 116.364 116.549 116.426 116.494C116.5 116.439 116.577 116.357 116.652 116.303C116.676 116.276 116.704 116.252 116.735 116.234C116.818 116.152 116.901 116.083 116.982 116.014L117.16 115.369L117.435 115.588C117.524 115.506 117.613 115.411 117.704 115.328C117.815 115.217 117.931 115.108 118.041 114.998C118.152 114.887 118.252 114.765 118.363 114.654C117.854 114.793 117.252 114.985 117.092 115.026C116.992 114.92 116.886 114.819 116.776 114.724L116.778 114.723Z" fill="#D50032"/>
<path d="M115.018 113.573C114.846 113.641 114.365 115.397 114.365 115.397C114.427 115.535 114.92 115.823 114.92 115.823L115.058 115.906L115.533 114.165L115.953 114.411C116.048 114.439 118.055 113.821 118.055 113.821C118.081 113.601 117.552 113.285 117.552 113.285C117.456 113.272 115.609 113.834 115.464 113.875C115.298 113.738 115.018 113.573 115.018 113.573ZM116.001 112.406H116.006H115.992C115.861 112.214 115.476 112.022 115.476 112.022C115.388 112.022 113.553 112.694 113.449 112.721C113.271 112.599 112.955 112.448 112.955 112.448C112.777 112.53 112.48 114.3 112.48 114.3C112.549 114.438 113.091 114.7 113.091 114.7L113.243 114.766L113.532 113.01L114.006 113.243C114.102 113.243 116.046 112.53 116.046 112.53C116.048 112.488 116.026 112.461 116.001 112.406ZM113.113 110.855C113.024 110.855 111.192 111.637 111.143 111.665C110.971 111.566 110.792 111.479 110.607 111.404C110.443 111.515 110.29 113.284 110.29 113.284C110.374 113.406 110.95 113.641 110.95 113.641L111.101 113.71L111.245 111.94L111.753 112.146C111.842 112.146 113.725 111.336 113.725 111.336C113.727 111.115 113.113 110.855 113.113 110.855ZM111.322 110.265C111.322 110.224 111.294 110.183 111.26 110.154H111.268H111.253C111.076 109.963 110.607 109.839 110.607 109.839C110.518 109.852 108.863 110.813 108.815 110.841C108.608 110.757 108.204 110.648 108.204 110.648C108.052 110.77 108.257 112.555 108.257 112.555C108.346 112.652 108.986 112.829 108.986 112.829L109.163 112.87L108.958 111.1L109.521 111.264C109.621 111.253 111.323 110.264 111.323 110.264L111.322 110.265ZM108.354 109.318L108.347 109.304C108.156 109.14 107.667 109.044 107.667 109.044C107.641 109.055 107.53 109.125 107.365 109.221C107.324 109.551 107.27 109.88 107.221 110.236C107.71 109.907 108.431 109.413 108.431 109.413C108.423 109.372 108.396 109.345 108.354 109.318ZM92.4437 110.664C92.2326 110.699 92.0236 110.744 91.8173 110.801C91.8173 110.828 91.8318 110.87 91.8662 110.912L91.8518 110.923L91.8995 110.952C92.2016 111.362 93.3487 112.309 93.3487 112.309C93.4109 112.323 93.5897 112.282 93.754 112.254C93.7207 112.006 93.6796 111.773 93.643 111.541L92.7657 110.814L93.2799 110.677C93.3154 110.637 93.3765 110.377 93.432 110.074C93.3765 109.717 93.3209 109.361 93.2743 109.017C93.0333 109.045 92.7579 109.114 92.7579 109.114C92.678 109.197 92.4847 110.389 92.4437 110.667V110.664ZM89.271 111.871L89.3109 111.899C89.6607 112.283 90.9389 113.119 90.9389 113.119C91.05 113.133 91.6341 112.9 91.6341 112.9L91.854 112.818L90.1149 111.665L90.5258 111.515C90.6036 111.433 90.8501 109.91 90.8501 109.91C90.6791 109.773 90.0594 110.021 90.0594 110.021C89.985 110.102 89.7785 111.352 89.744 111.585C89.5242 111.638 89.2221 111.762 89.2221 111.762C89.2221 111.79 89.2488 111.831 89.2843 111.873H89.2699L89.271 111.871ZM87.2854 112.681C87.2854 112.709 87.312 112.75 87.3542 112.792L87.3398 112.803L87.3953 112.832C87.7674 113.176 89.0855 113.93 89.0855 113.93C89.2021 113.943 89.7385 113.682 89.7385 113.682L89.9439 113.587L88.1305 112.544L88.4947 112.353C88.5569 112.244 88.5169 110.749 88.5169 110.749C88.337 110.638 87.7729 110.926 87.7729 110.926C87.7129 111.037 87.7463 112.23 87.7529 112.479C87.553 112.559 87.2865 112.683 87.2865 112.683L87.2854 112.681ZM85.7862 111.925C85.7307 112.036 85.8617 113.215 85.8828 113.476C85.7029 113.558 85.4697 113.696 85.4697 113.696C85.4697 113.723 85.4964 113.751 85.5386 113.792H85.5241L85.5508 113.806C85.9173 114.135 87.3243 114.848 87.3243 114.848C87.4464 114.835 87.935 114.546 87.935 114.546L88.1272 114.436L86.2726 113.504L86.6091 113.312C86.6646 113.19 86.4981 111.707 86.4981 111.707C86.3226 111.609 85.7862 111.925 85.7862 111.925ZM83.6918 113.188C83.6696 113.31 84.0627 114.381 84.1582 114.67C84.0083 114.781 83.7884 114.958 83.7884 114.958C83.7951 114.987 83.824 115.013 83.864 115.056H83.8717C84.256 115.344 85.7263 115.906 85.7263 115.906C85.8484 115.879 86.2371 115.536 86.2371 115.536L86.3926 115.414L84.5047 114.686L84.8068 114.426C84.8334 114.287 84.3115 112.887 84.3115 112.887C84.1249 112.832 83.6918 113.188 83.6918 113.188ZM82.7301 114.176C82.5458 114.135 82.1194 114.492 82.1194 114.492C82.1127 114.534 82.146 114.672 82.1971 114.836C82.458 115.119 82.733 115.389 83.0211 115.645C83.0744 115.7 83.1155 115.74 83.1632 115.781L83.2254 115.726C83.2587 115.589 82.7301 114.176 82.7301 114.176ZM84.8256 116.715L83.7196 116.29C83.8084 116.372 83.905 116.454 83.995 116.523C84.0905 116.605 84.1727 116.687 84.2693 116.77C84.2915 116.784 84.3115 116.798 84.3315 116.811C84.3948 116.867 84.4559 116.908 84.5258 116.962C84.6013 116.894 84.6635 116.851 84.6635 116.851L84.8256 116.715ZM83.774 80.472C83.9739 80.4033 84.4403 78.7306 84.4403 78.7306C84.4137 78.633 84.2138 78.4555 84.096 78.3457C83.9739 78.4566 83.8429 78.5653 83.7263 78.6751L83.3898 79.8287L83.101 79.5958C83.0677 79.5813 82.8678 79.6224 82.6069 79.7045C82.5014 79.801 82.3992 79.9108 82.2959 80.0206C82.1793 80.1315 82.0694 80.2402 81.9595 80.3644C81.8628 80.4731 81.7596 80.5696 81.6641 80.6794C82.1394 80.5685 83.2576 80.2269 83.4631 80.1714C83.5963 80.3068 83.774 80.472 83.774 80.472Z" fill="#D50032"/>
<path d="M85.533 81.6259C85.7174 81.5561 86.1916 79.8002 86.1916 79.8002C86.136 79.6627 85.6363 79.3754 85.6363 79.3754L85.4986 79.2944L85.4653 79.4453L85.0322 81.037L84.6058 80.7763C84.5025 80.763 82.5103 81.3797 82.5103 81.3797C82.4836 81.5993 83.0055 81.9155 83.0055 81.9155C83.1055 81.9155 84.96 81.3531 85.0855 81.3254C85.2487 81.4618 85.5297 81.6248 85.5297 81.6248L85.533 81.6259ZM87.5997 82.7507C87.7773 82.6542 88.0739 80.8839 88.0739 80.8839C88.005 80.7619 87.4709 80.5012 87.4709 80.5012L87.3176 80.4191L87.291 80.5855L87.0222 82.1905L86.5558 81.9576C86.4514 81.9443 84.5147 82.6708 84.5147 82.6708C84.5003 82.8904 85.0777 83.1788 85.0777 83.1788C85.1743 83.1788 87.0144 82.5067 87.1055 82.4656C87.2854 82.602 87.5997 82.754 87.5997 82.754V82.7507ZM89.9428 83.7933C90.1149 83.6824 90.2593 81.8999 90.2593 81.8999C90.1838 81.789 89.6063 81.5561 89.6063 81.5561L89.4553 81.4895L89.4486 81.6526L89.3176 83.2587L88.8101 83.0524C88.7135 83.0524 86.8245 83.8488 86.8245 83.8488C86.8245 84.0817 87.442 84.3291 87.442 84.3291C87.5375 84.3291 89.3787 83.5471 89.4187 83.5327C89.6074 83.6547 89.9428 83.7933 89.9428 83.7933ZM92.2993 82.6409C92.2105 82.5299 91.5719 82.3669 91.5719 82.3669L91.3942 82.3114L91.4131 82.5033L91.5975 84.0828L91.0344 83.932C90.9434 83.9453 89.2265 84.9336 89.2265 84.9336C89.2321 84.9757 89.2676 85.0168 89.2932 85.0445H89.3021C89.4797 85.222 89.9406 85.3462 89.9406 85.3462C90.0372 85.3329 91.7063 84.3723 91.7418 84.359C91.9528 84.44 92.3459 84.5498 92.3459 84.5498C92.4981 84.4278 92.2982 82.642 92.2982 82.642L92.2993 82.6409ZM92.2027 85.8797H92.1971H92.2116C92.4115 86.0439 92.8978 86.1404 92.8978 86.1404C92.9256 86.1404 93.1044 86.0295 93.3243 85.8797C93.372 85.5503 93.4198 85.2209 93.4742 84.8781C92.9878 85.1942 92.1349 85.7843 92.1349 85.7843C92.1405 85.8098 92.1683 85.8509 92.2016 85.8786L92.2027 85.8797ZM108.113 84.5343C108.335 84.5065 108.739 84.3967 108.739 84.3967C108.747 84.369 108.726 84.328 108.692 84.2858L108.712 84.2747L108.657 84.2326C108.343 83.8222 107.202 82.8882 107.202 82.8882C107.154 82.8749 107.009 82.9015 106.866 82.9293C106.907 83.1899 106.941 83.4506 106.982 83.7112L107.8 84.3834L107.278 84.5209C107.25 84.5487 107.209 84.7262 107.167 84.9458C107.23 85.3706 107.291 85.7832 107.34 86.1659C107.494 86.1463 107.648 86.1193 107.8 86.0849C107.881 86.0028 108.065 84.8093 108.113 84.5343ZM111.287 83.3119L111.239 83.2853C110.889 82.9148 109.617 82.0763 109.617 82.0763C109.509 82.0652 108.925 82.2981 108.925 82.2981L108.698 82.3791L110.436 83.5171L110.029 83.668C109.954 83.7789 109.713 85.2874 109.713 85.2874C109.876 85.4249 110.501 85.1765 110.501 85.1765C110.571 85.0955 110.784 83.8344 110.818 83.6125C111.032 83.546 111.334 83.4351 111.334 83.4351C111.334 83.4073 111.307 83.3663 111.272 83.3241L111.283 83.313L111.287 83.3119ZM113.211 82.4079L113.222 82.3946L113.176 82.3813C112.805 82.0264 111.472 81.2566 111.472 81.2566C111.355 81.2566 110.819 81.5172 110.819 81.5172L110.619 81.6149L112.427 82.6575L112.063 82.8494C112.001 82.9603 112.041 84.4555 112.041 84.4555C112.22 84.5664 112.785 84.278 112.785 84.278C112.847 84.1671 112.811 83.0002 112.805 82.7141C113.005 82.6442 113.271 82.5211 113.271 82.5211C113.271 82.4933 113.245 82.4523 113.211 82.4102V82.4079ZM115.092 81.5017C115.092 81.474 115.059 81.433 115.018 81.4052L115.024 81.3941H115.011C114.654 81.0636 113.223 80.3515 113.223 80.3515C113.108 80.3626 112.62 80.6399 112.62 80.6399L112.427 80.7619L114.282 81.6936L113.946 81.8866C113.884 82.0086 114.057 83.4916 114.057 83.4916C114.235 83.5748 114.771 83.2731 114.771 83.2731C114.82 83.1622 114.697 81.9975 114.671 81.7225C114.857 81.6415 115.096 81.5039 115.096 81.5039L115.092 81.5017ZM114.317 79.6494L114.165 79.7869L116.053 80.5145L115.744 80.7752C115.716 80.9127 116.244 82.3125 116.244 82.3125C116.436 82.368 116.862 82.0097 116.862 82.0097C116.89 81.8877 116.491 80.8007 116.396 80.5278C116.551 80.4191 116.766 80.2284 116.766 80.2284C116.766 80.2284 116.73 80.1729 116.69 80.1452H116.684C116.306 79.8568 114.829 79.2944 114.829 79.2944C114.707 79.3199 114.317 79.6494 114.317 79.6494ZM117.822 81.0081C118.014 81.0636 118.438 80.692 118.438 80.692C118.445 80.651 118.405 80.4857 118.336 80.2816C118.205 80.143 118.081 80.0065 117.952 79.869C117.835 79.747 117.711 79.6361 117.588 79.5251C117.54 79.4713 117.489 79.4213 117.434 79.3754L117.323 79.4586C117.298 79.6094 117.82 81.0092 117.82 81.0092L117.822 81.0081ZM115.745 78.4825L117.003 78.9628C116.892 78.8652 116.777 78.7698 116.667 78.6744C116.598 78.6189 116.536 78.5635 116.474 78.4947C116.405 78.4392 116.343 78.3838 116.274 78.3305C116.212 78.2895 116.157 78.234 116.096 78.1797C115.993 78.2618 115.896 78.3438 115.896 78.3438L115.745 78.4825Z" fill="#D50032"/>
<path d="M92.9115 106.393C92.9115 106.393 92.9115 106.382 92.9048 106.366C92.9048 106.366 92.8982 106.394 92.8904 106.408L92.9104 106.394L92.9115 106.393ZM77.4001 80.9105C77.4001 80.9105 77.8398 81.9121 78.4573 83.2841C78.8348 82.694 79.2346 82.145 79.6599 81.5959C76.1696 73.856 72.666 66.075 72.7904 66.0339C72.7904 66.0339 80.0419 70.5484 87.188 75.0229C87.7721 74.679 88.3629 74.364 88.9814 74.0623C82.2007 69.8629 70.2896 62.5078 70.2896 62.5078C70.2896 62.5078 72.0408 69.0121 77.3967 80.9094L77.4001 80.9105ZM127.658 129.037C127.658 129.037 120.48 124.564 113.15 119.966C112.553 120.31 111.933 120.625 111.309 120.927C118.144 125.208 130.956 133.25 130.956 133.25C130.956 133.25 123.235 114.518 122.583 113.077C122.583 113.077 122.327 112.515 121.943 111.65C121.566 112.237 121.168 112.801 120.748 113.336C124.327 121.296 127.797 128.982 127.659 129.036L127.658 129.037Z" fill="#0C2C56"/>
<path d="M83.019 78.0304C84.3048 76.8922 85.7014 75.8852 87.1878 75.0245C80.0439 70.5511 72.7891 66.0355 72.7891 66.0355L83.019 78.0304ZM117.3 77.9616C118.582 79.0838 119.75 80.3296 120.787 81.6807C124.292 74.0772 128.05 66.2962 128.03 66.0078L117.3 77.9616ZM83.3699 117.237C82.069 116.127 80.8772 114.895 79.8107 113.559C76.3082 121.326 72.8479 129.01 72.9767 129.066L83.371 117.236L83.3699 117.237ZM117.347 116.949C116.051 118.092 114.645 119.103 113.149 119.968C117.982 122.997 122.818 126.021 127.658 129.039L117.347 116.949Z" fill="#C4CED4"/>
<path d="M107.687 90.0519C107.481 90.2438 106.801 90.9171 105.955 91.7822C103.845 93.923 100.598 97.2561 100.303 97.6133C100.109 97.8606 99.4165 98.6005 98.5015 99.5477C99.4154 98.6005 100.109 97.8595 100.303 97.6133C100.577 97.2838 103.84 93.923 105.955 91.7822C106.81 90.9171 107.481 90.2449 107.687 90.0519Z" fill="white"/>
<path d="M100.296 97.6261C100.327 97.6515 100.357 97.6789 100.385 97.7082C100.365 97.6793 100.337 97.6527 100.323 97.625L100.296 97.6261Z" fill="white"/>
<path d="M107.688 90.0516C107.736 90.0516 107.799 90.0649 107.859 90.0649C107.831 89.7909 107.775 89.3517 107.707 88.7893C107.618 88.1016 107.488 87.2254 107.338 86.1672C107.29 85.7834 107.227 85.3708 107.166 84.9471C107.104 84.5478 107.044 84.1374 106.98 83.7115C106.939 83.4508 106.905 83.1901 106.864 82.9295C106.701 81.8458 106.522 80.6778 106.336 79.4444C106.02 77.4412 105.683 75.2738 105.334 73.0077C105.278 72.6783 105.231 72.3489 105.176 72.0061C103.073 58.6814 100.484 43.0506 100.305 43.1194V97.6141C100.601 97.2558 103.848 93.9205 105.958 91.7797C106.525 91.1941 107.103 90.618 107.69 90.0516H107.688Z" fill="#C4CED4"/>
<path d="M75.6274 92.6447C75.7518 92.0125 75.9017 91.4102 76.0661 90.8057V90.7924C76.2216 90.23 76.4015 89.6532 76.6014 89.1042C76.6014 89.1042 76.6158 89.0764 76.6236 89.0487C76.8212 88.5141 77.0278 87.9783 77.261 87.457C77.261 87.4437 77.2677 87.4437 77.2677 87.416C77.4942 86.9224 77.7341 86.4288 77.9895 85.9341C78.0306 85.8653 78.0716 85.7832 78.1116 85.7145C78.367 85.2342 78.6269 84.7672 78.9167 84.3147C79.2799 83.7113 79.6852 83.1345 80.105 82.5843C80.3382 82.256 80.5847 81.941 80.8323 81.6382C80.8468 81.6271 80.8523 81.6116 80.8657 81.5983C81.1211 81.2966 81.3876 80.9804 81.663 80.6776C81.7585 80.5689 81.8629 80.4724 81.9584 80.3626C82.0694 80.2406 82.1783 80.1297 82.2949 80.0188C82.3935 79.9097 82.4965 79.8046 82.6036 79.7037C82.9401 79.3743 83.2832 79.0582 83.633 78.7432C83.6608 78.7155 83.6885 78.6877 83.7219 78.6744C83.8385 78.5635 83.9695 78.4548 84.0928 78.345C84.3926 78.0987 84.6969 77.8525 85.0056 77.6185C85.0611 77.5774 85.1222 77.5364 85.1833 77.4809C85.4442 77.2901 85.7119 77.0982 85.9806 76.9041C86.0274 76.8788 86.0734 76.8518 86.1183 76.8232C86.4137 76.618 86.7091 76.4239 87.0178 76.2331C87.04 76.2198 87.06 76.2053 87.08 76.192C87.4109 75.9857 87.7463 75.7927 88.0905 75.6019H88.1039C88.7013 75.2581 89.3199 74.9564 89.9506 74.6702C91.0852 74.1582 92.2563 73.7311 93.4543 73.3924C94.065 73.2283 94.6836 73.0907 95.3088 72.9532C94.9534 75.2448 94.6025 77.4543 94.2927 79.4719C94.0095 81.2731 93.7348 83.0755 93.4687 84.8792C93.4132 85.2231 93.3665 85.5514 93.3188 85.8809C93.0856 87.4725 92.9134 88.7204 92.8168 89.5035C92.7902 89.7364 92.7691 89.9272 92.7546 90.0803C92.7968 90.0658 92.8435 90.0658 92.8857 90.0658C94.7735 91.8073 99.7219 96.8874 100.298 97.6139V43.1192C100.167 43.0914 97.5842 58.6668 95.4676 71.9649C94.8435 72.0758 94.2238 72.2122 93.6219 72.3642C92.0084 72.789 90.457 73.3647 88.9801 74.0646C88.3604 74.3663 87.7696 74.6824 87.1855 75.0252C85.6988 75.8855 84.3023 76.8925 83.0167 78.0311L72.7868 66.0362C72.6646 66.0773 76.166 73.8583 79.6563 81.5983C79.2299 82.1473 78.8323 82.6964 78.4537 83.2864C76.8987 85.6429 75.7431 88.2392 75.0333 90.9709C74.8823 91.561 74.7535 92.18 74.6358 92.7956C74.9667 92.7401 75.2965 92.7002 75.6274 92.6447Z" fill="#005C5C"/>
<path d="M100.296 97.6266L100.303 97.6133C100.109 97.8606 99.4164 98.6005 98.5013 99.5477C98.3714 99.6853 98.2414 99.8217 98.1015 99.9581C97.7328 100.343 97.3464 100.741 96.9422 101.153C96.2137 101.894 95.4574 102.661 94.7656 103.349C94.1505 103.963 93.5248 104.567 92.8889 105.16C92.8478 105.16 92.8 105.16 92.7578 105.147C92.7856 105.421 92.8333 105.846 92.9022 106.367L92.9088 106.381C92.9977 107.095 93.1198 107.973 93.2731 109.016C93.3208 109.36 93.3753 109.715 93.4308 110.073C93.4996 110.539 93.5685 111.033 93.6418 111.541C93.6784 111.774 93.7195 112.007 93.7528 112.255C93.9194 113.325 94.0971 114.477 94.2814 115.699C94.5835 117.662 94.92 119.788 95.2698 121.999C95.3275 122.327 95.3753 122.657 95.4297 122.986C97.5452 136.339 100.169 152.134 100.3 152.107L100.296 97.6266Z" fill="#C4CED4"/>
<path d="M113.149 119.966C114.645 119.101 116.051 118.09 117.347 116.947L127.657 129.037C127.794 128.982 124.325 121.297 120.746 113.338C121.166 112.803 121.563 112.24 121.942 111.652C123.423 109.396 124.542 106.923 125.259 104.322C125.417 103.719 125.57 103.102 125.692 102.483L124.689 102.647C124.552 103.265 124.401 103.882 124.223 104.486C124.07 105.022 123.89 105.557 123.701 106.065C123.685 106.093 123.672 106.134 123.657 106.176C123.472 106.668 123.273 107.163 123.055 107.643C123.055 107.643 123.048 107.657 123.048 107.671C122.588 108.687 122.06 109.675 121.476 110.621C121.104 111.212 120.713 111.789 120.301 112.352H120.294C120.011 112.722 119.723 113.093 119.422 113.463C119.385 113.499 119.352 113.54 119.326 113.585C119.015 113.943 118.7 114.3 118.365 114.657C118.254 114.768 118.151 114.89 118.043 115.001C117.932 115.109 117.815 115.219 117.705 115.329C117.617 115.411 117.528 115.506 117.437 115.59C117.286 115.726 117.137 115.878 116.984 116.014C116.903 116.083 116.819 116.152 116.736 116.234C116.706 116.254 116.679 116.277 116.655 116.304C116.579 116.359 116.503 116.441 116.428 116.496C116.366 116.551 116.312 116.592 116.256 116.647C115.954 116.894 115.645 117.14 115.335 117.374C115.279 117.415 115.223 117.456 115.162 117.496C114.903 117.703 114.626 117.896 114.352 118.087C114.311 118.116 114.263 118.143 114.221 118.171C113.919 118.377 113.61 118.57 113.308 118.761C113.286 118.774 113.272 118.788 113.26 118.788C112.916 119.008 112.572 119.199 112.222 119.406C111.612 119.734 110.991 120.04 110.361 120.325H110.344C109.341 120.777 108.318 121.162 107.253 121.464H107.247C106.636 121.656 106.017 121.808 105.392 121.944H105.386C105.735 119.762 106.065 117.676 106.374 115.727C106.692 113.683 106.98 111.829 107.22 110.237C107.268 109.882 107.322 109.552 107.364 109.223C107.583 107.753 107.749 106.587 107.844 105.818C107.878 105.545 107.9 105.311 107.92 105.146C107.844 105.146 107.782 105.16 107.72 105.16C105.892 103.472 101.201 98.6554 100.383 97.7082C100.356 97.678 100.326 97.6502 100.294 97.625L100.301 152.105C100.431 152.133 103.082 136.296 105.226 122.945C105.851 122.806 106.469 122.67 107.08 122.504C108.544 122.105 109.959 121.573 111.305 120.926C111.932 120.626 112.552 120.309 113.149 119.966Z" fill="#005C5C"/>
<path d="M100.303 97.6125C99.7255 96.8849 94.7793 91.8081 92.8904 90.0645C92.8482 90.0645 92.8015 90.0645 92.7571 90.0778C91.6733 90.1743 88.3762 90.6545 84.0197 91.3267C81.5055 91.7105 78.6338 92.1642 75.6266 92.6444C75.2956 92.6999 74.9669 92.7409 74.6382 92.7953C61.5766 94.895 46.4094 97.4339 46.4783 97.6125H100.302H100.303Z" fill="#C4CED4"/>
<path d="M142.228 101.62C144.047 101.318 145.765 101.017 147.359 100.742C158.006 98.8483 163.605 97.4751 163.605 97.4751C163.605 97.4751 153.947 95.7725 143.148 93.9201C140.758 93.4953 138.304 93.0827 135.887 92.6712C135.807 92.656 135.727 92.642 135.646 92.629C131.854 88.3342 127.451 84.7937 122.691 81.8288C122.739 81.7179 122.78 81.6225 122.828 81.5271C123.283 80.5399 123.585 79.8666 123.585 79.8666C124.052 78.865 124.476 77.9322 124.869 77.0537C128.729 68.5861 129.622 65.9795 129.622 65.9795L131.134 62.6719L115.183 71.6874L111.432 74.0755C112.049 74.3772 112.648 74.6933 113.231 75.0361C120.389 70.4662 127.87 65.7743 128.028 66.0072C128.051 66.2956 124.292 74.0766 120.788 81.6801C121.214 82.2281 121.612 82.7893 121.984 83.3661C123.093 85.0653 123.997 86.8897 124.677 88.8012C125.724 89.6016 126.747 90.4346 127.742 91.2991C126.923 91.1615 126.106 91.0251 125.337 90.8887C125.488 91.5054 125.625 92.1221 125.736 92.741C137.619 94.6333 151.4 96.9116 154.312 97.474C154.669 97.5549 154.869 97.596 154.869 97.596C154.896 97.7335 139.062 100.369 125.694 102.482C125.572 103.1 125.419 103.717 125.261 104.321C129.259 103.689 134.149 102.908 137.421 102.385C142.113 109.809 145.106 119.306 145.106 132.137C145.106 166.707 120.197 189.76 96.6546 189.76C81.0832 189.76 72.7834 180.387 68.4558 180.387C68.4558 180.387 58.639 185.534 54.2703 186.481V138.931C59.4519 142.17 66.3747 176.314 97.5297 176.314C108.26 176.314 118.296 166.955 118.296 148.703C118.296 137.944 113.565 130.89 106.667 125.127C106.811 124.207 106.948 123.315 107.087 122.505C106.476 122.669 105.858 122.807 105.232 122.944C103.089 136.297 100.437 152.134 100.308 152.105C100.177 152.134 97.5541 136.338 95.4375 122.985C94.8112 122.875 94.1938 122.737 93.5885 122.573C93.7607 123.657 93.9528 124.851 94.146 126.072L96.2815 139.372C98.5358 153.026 100.301 161.451 100.301 161.451C100.301 161.451 102.087 153.025 104.355 139.384L104.76 136.844C105.041 135.158 105.426 132.784 105.831 130.272C105.878 129.983 105.919 129.695 105.967 129.407C111.087 134.649 114.548 140.798 114.548 148.537C114.548 162.452 107.513 172.237 96.8934 172.237C78.8334 172.237 69.3109 158.006 60.9111 141.235C58.7878 136.996 54.9344 132.878 50.4058 132.357V191.971L69.3253 185.138C73.5718 186.455 80.4269 193.357 97.9517 193.357C125.299 193.357 148.938 167.626 148.938 131.301C148.938 119.211 146.339 109.509 142.013 101.659C142.086 101.643 142.162 101.63 142.231 101.617L142.228 101.62Z" fill="#0C2C56"/>
<path d="M67.954 103.09C68.2283 103.143 68.4959 103.185 68.7713 103.226C71.4087 105.463 74.2316 107.494 77.1522 109.429C76.3184 107.837 75.6522 106.163 75.1644 104.434C75.0756 104.352 74.9868 104.283 74.8979 104.214C74.9668 104.228 75.0423 104.242 75.1089 104.242C74.9424 103.634 74.7986 103.02 74.678 102.401C61.6297 100.302 46.4559 97.7354 46.477 97.6123C46.4081 97.4348 61.5753 94.8948 74.6358 92.7951C74.7524 92.1773 74.8824 91.5605 75.0356 90.9705C71.2155 91.5739 66.6658 92.3148 63.5609 92.8095C57.5442 84.6325 53.5353 73.8733 53.5353 58.6396C53.5353 29.1218 76.0639 9.19618 95.9674 9.19618C103.228 9.19618 108.771 11.8294 112.936 14.4793C117.078 17.361 119.845 19.9964 121.927 19.9964C121.927 19.9964 130.012 16.4281 133.688 14.9607V57.4462C123.967 50.4194 121.228 22.6307 98.7347 22.6307C89.3843 22.6307 80.909 31.0429 80.909 44.9588C80.909 56.5133 86.3616 63.6898 94.0851 69.5219C93.9263 70.5236 93.7686 71.4852 93.6253 72.3615C94.2306 72.2117 94.8491 72.0731 95.4732 71.9644C97.5887 58.6652 100.171 43.0898 100.304 43.1176C100.482 43.0488 103.069 58.6796 105.173 72.0043C105.797 72.1263 106.415 72.265 107.019 72.4436L106.058 66.3918C105.206 61.0677 104.367 55.8101 104.367 55.8101C102.107 42.1004 100.203 34.9661 100.203 34.9661C100.203 34.9661 98.5282 42.198 96.275 55.8256C96.275 55.8256 96.1306 56.7573 95.8907 58.227C95.6509 59.7499 95.3077 61.8652 94.9502 64.1413C94.9168 64.2921 94.8946 64.4574 94.8669 64.6071C88.6636 58.8304 84.8036 52.244 84.8036 44.8468C84.8036 34.2385 89.8452 26.6227 100.466 26.6227C114.281 26.6227 119.453 42.4598 127.684 56.5122C129.614 59.8176 133.79 62.6039 137.562 63.5378V9.33372C137.562 9.33372 124.969 14.5059 121.529 15.6728C115.688 11.0341 104.849 5.10547 95.954 5.10547C74.3127 5.10658 49.8818 27.8728 49.8818 58.3668C49.8818 74.1883 53.673 85.1394 59.6286 93.4417L58.9212 93.5638C57.0667 93.8666 55.3065 94.1827 53.6574 94.4566C43.0589 96.2824 37 97.477 37 97.477C37 97.477 45.3454 99.3427 59.4287 101.703C59.6142 101.744 59.7996 101.772 59.9917 101.8L67.954 103.09ZM87.3943 120.049C80.1828 124.633 73.0378 129.176 72.9757 129.067C72.8446 129.011 76.3071 121.325 79.8108 113.558C79.3829 113.022 78.9776 112.468 78.5959 111.898C78.0739 113.066 77.7097 113.889 77.7097 113.889C77.4987 114.354 77.2899 114.809 77.0845 115.261C71.9651 126.582 68.6969 133.128 68.6969 133.128C68.6969 133.128 73.4365 131.028 86.4338 122.779C86.4338 122.779 87.1145 122.341 88.0884 121.723C88.4393 121.503 88.8258 121.27 89.2322 121.01C88.6059 120.718 87.9934 120.399 87.3966 120.051L87.3943 120.049Z" fill="#0C2C56"/>
<path d="M95.4323 122.987C95.3768 122.656 95.3301 122.327 95.2735 121.998C94.6483 121.876 94.0297 121.724 93.419 121.545C92.3129 121.243 91.2424 120.846 90.2041 120.406H90.1896V120.393C89.5511 120.104 88.9348 119.816 88.3218 119.487L88.3151 119.474H88.2996C87.9775 119.297 87.6533 119.104 87.3445 118.925C87.3246 118.925 87.3179 118.912 87.3035 118.912C87.007 118.72 86.706 118.541 86.4173 118.335L86.334 118.294C86.0597 118.102 85.7976 117.923 85.5378 117.732C85.4889 117.704 85.4427 117.672 85.4001 117.636C85.098 117.417 84.8004 117.197 84.5206 116.964C84.4517 116.909 84.3895 116.868 84.3273 116.813L84.2651 116.772C84.1696 116.69 84.0875 116.608 83.9908 116.525C83.8962 116.451 83.8047 116.373 83.7166 116.292C83.5242 116.13 83.3382 115.96 83.1591 115.784C83.1113 115.743 83.0702 115.702 83.0147 115.646C82.8637 115.509 82.7149 115.372 82.5616 115.221C82.4331 115.099 82.3097 114.971 82.1918 114.838C81.8609 114.496 81.5389 114.139 81.2224 113.782C81.1957 113.741 81.1669 113.713 81.1335 113.66C80.8315 113.316 80.5361 112.945 80.254 112.575C79.8298 112.021 79.4308 111.449 79.058 110.859C77.7821 108.864 76.7986 106.696 76.1374 104.422C75.9613 103.811 75.8084 103.193 75.6788 102.57C78.7149 103.064 81.6088 103.517 84.1341 103.914C88.4284 104.573 91.6777 105.053 92.756 105.149C92.7982 105.162 92.8448 105.162 92.887 105.162C93.523 104.569 94.1487 103.965 94.7638 103.351C95.8877 102.232 97.0002 101.103 98.1008 99.9612C98.2385 99.8236 98.3696 99.6872 98.5006 99.5508C99.4134 98.6024 100.107 97.8615 100.3 97.6152H46.4805C46.4583 97.7372 61.6343 100.305 74.6804 102.405C74.8026 103.037 74.947 103.655 75.1135 104.246C75.1269 104.313 75.1546 104.368 75.1668 104.437C75.6555 106.178 76.3295 107.853 77.1546 109.431C74.234 107.496 71.41 105.465 68.7726 103.229C68.4972 103.188 68.2285 103.147 67.9553 103.091L59.993 101.8C59.8038 101.775 59.6157 101.743 59.4289 101.704C64.1352 106.725 69.9942 111.198 77.0836 115.261C77.289 114.809 77.4944 114.355 77.7088 113.889C77.7088 113.889 78.073 113.066 78.5949 111.899C78.9792 112.476 79.3856 113.025 79.8109 113.56C80.878 114.895 82.0697 116.127 83.3701 117.237L72.9758 129.066C73.038 129.177 80.183 124.634 87.3956 120.051C87.9931 120.395 88.6116 120.723 89.2302 121.011C88.8248 121.272 88.4395 121.505 88.0886 121.725C90.2652 123.167 92.2863 124.62 94.1408 126.076C93.9476 124.856 93.7554 123.66 93.5833 122.577C94.1896 122.741 94.8071 122.878 95.4323 122.987Z" fill="#005C5C"/>
<path d="M100.323 97.6257C100.337 97.6535 100.365 97.6812 100.385 97.7078C101.202 98.654 105.893 103.47 107.722 105.158C107.784 105.158 107.844 105.145 107.922 105.145C109.069 105.034 112.275 104.568 116.508 103.925C118.96 103.54 121.75 103.101 124.69 102.647C125.019 102.592 125.357 102.536 125.693 102.483C139.061 100.37 154.895 97.7356 154.868 97.6113L100.323 97.6257Z" fill="#C4CED4"/>
<path d="M105.173 72.006C105.229 72.3499 105.275 72.6782 105.331 73.0076C105.956 73.1452 106.575 73.296 107.185 73.4735C108.318 73.804 109.418 74.2166 110.476 74.6958C111.109 74.9698 111.726 75.2859 112.33 75.6164C112.983 75.9858 113.616 76.3707 114.234 76.7955C114.247 76.8088 114.267 76.8232 114.28 76.8232C114.556 77.0151 114.83 77.207 115.104 77.4133C115.14 77.4411 115.18 77.4688 115.215 77.4954C115.515 77.715 115.804 77.948 116.093 78.1809C116.156 78.2364 116.21 78.2918 116.273 78.3318C116.341 78.3872 116.404 78.4427 116.473 78.4959C116.535 78.5647 116.595 78.6179 116.666 78.6734C116.777 78.771 116.892 78.8664 117.002 78.9618L117.435 79.3744C117.483 79.4154 117.539 79.4709 117.586 79.5252C117.708 79.6362 117.833 79.7449 117.949 79.8691C118.079 80.0055 118.203 80.142 118.334 80.2795C118.678 80.6233 119 80.9927 119.315 81.3776C119.358 81.4186 119.399 81.4741 119.446 81.5418C119.757 81.8989 120.052 82.2827 120.333 82.6676C120.752 83.2288 121.143 83.8056 121.514 84.3957C122.729 86.3651 123.663 88.4942 124.288 90.7215C124.377 91.0243 124.461 91.326 124.529 91.6288C124.605 91.9449 124.688 92.261 124.743 92.576C121.748 92.1102 118.897 91.6698 116.404 91.286C112.165 90.6261 108.963 90.1735 107.858 90.0637C107.796 90.0637 107.736 90.0504 107.687 90.0504C107.481 90.2423 106.808 90.9156 105.955 91.7807C103.839 93.9215 100.577 97.2823 100.303 97.6118L100.296 97.6251H100.323L154.868 97.6118C154.868 97.6118 154.668 97.5563 154.31 97.4742C151.399 96.9108 137.617 94.6325 125.734 92.738C125.62 92.1165 125.487 91.4987 125.334 90.8856C125.142 90.1868 124.923 89.488 124.676 88.8003C123.996 86.8888 123.092 85.0644 121.983 83.3653C121.609 82.7859 121.209 82.2234 120.786 81.6793C119.748 80.3275 118.579 79.0814 117.296 77.9591L128.027 66.0064C127.868 65.7734 120.387 70.4653 113.23 75.0352C112.642 74.6931 112.042 74.373 111.431 74.0758C110.013 73.3983 108.537 72.8518 107.02 72.443C106.41 72.269 105.793 72.1224 105.17 72.0038L105.173 72.006Z" fill="#005C5C"/>
</svg>
