<svg width="200" height="200" viewBox="0 0 200 200" fill="none" xmlns="http://www.w3.org/2000/svg">
<g clip-path="url(#clip0_18_1270)">
<path d="M100.004 200C155.23 200 199.999 155.236 199.999 100.003C199.999 44.7787 155.231 0 100.004 0C44.777 0 0 44.7787 0 100.003C0 155.236 44.777 200 100.004 200Z" fill="white"/>
<path d="M99.9998 181.599C55.0225 181.599 18.4252 145.006 18.4252 100.004C18.4252 55.0097 55.0208 18.4007 99.9998 18.4007C144.975 18.4007 181.574 55.0088 181.574 100.004C181.574 145.005 144.975 181.599 99.9998 181.599ZM99.9998 15.752C53.5267 15.752 15.7104 53.5396 15.7104 100.004C15.7104 146.468 53.5267 184.262 99.9998 184.262C146.473 184.262 184.285 146.467 184.285 100.004C184.285 53.5396 146.473 15.752 99.9998 15.752Z" fill="#005C5C"/>
<path d="M6.19482 100.003C6.19482 151.693 48.275 193.759 100.001 193.759C151.726 193.759 193.802 151.694 193.802 100.003C193.802 48.3059 151.725 6.25586 100.001 6.25586C48.2776 6.25586 6.19482 48.3059 6.19482 100.003ZM10.9461 100.003C10.9461 50.8686 50.8927 10.9051 99.9997 10.9051C149.107 10.9051 189.058 50.8686 189.058 100.003C189.058 149.137 149.107 189.108 99.9997 189.108C50.8927 189.108 10.9461 149.139 10.9461 100.003Z" fill="#C4CED4"/>
<path d="M87.2826 74.1649C83.1794 71.6666 68.3701 63.8125 68.3701 63.8125L81.0415 78.355C82.931 76.6932 85.0291 75.2846 87.2826 74.1649ZM118.77 78.1607C120.65 79.775 122.315 81.6235 123.724 83.661C125.769 78.6937 131.139 65.317 131.664 63.8486L118.769 78.1607H118.77ZM76.2472 116.216C74.2381 121.097 69.1919 133.667 68.4896 135.775L81.2074 121.759C79.3239 120.131 77.657 118.268 76.2472 116.216ZM68.4148 136.093C68.4148 136.093 68.5223 136.007 68.7277 135.855C68.6285 135.904 68.5276 135.95 68.4251 135.991C68.4148 136.043 68.4036 136.085 68.4148 136.093ZM112.986 125.669C117.09 128.202 131.426 136.351 131.426 136.351L119.184 121.443C117.311 123.114 115.227 124.535 112.986 125.669Z" fill="#C4CED4"/>
<path d="M81.8875 81.0627C82.1076 81.0051 82.6294 79.1482 82.6294 79.1482C82.595 79.0476 82.344 78.8172 82.2253 78.7012C82.0921 78.8095 81.9657 78.9247 81.8368 79.0399L81.4757 80.3638L81.1491 80.0973C81.1095 80.0887 80.8508 80.1549 80.5335 80.2486C80.1742 80.5942 79.8355 80.9467 79.502 81.3146C79.9799 81.2063 81.3072 80.8031 81.5419 80.73C81.6846 80.8899 81.8858 81.0619 81.8858 81.0619L81.8875 81.0627Z" fill="#D50032"/>
<path d="M83.8318 82.3455C84.0295 82.2595 84.5479 80.3226 84.5479 80.3226C84.4946 80.179 83.9547 79.8627 83.9547 79.8627L83.7974 79.7767L83.7579 79.934L83.273 81.6981L82.8157 81.417C82.6971 81.4084 80.4946 82.079 80.4946 82.079C80.4602 82.3171 81.0448 82.6618 81.0448 82.6618C81.1531 82.6704 83.108 82.0798 83.3452 81.9999C83.5198 82.1666 83.8335 82.3472 83.8335 82.3472L83.8318 82.3455ZM83.3238 84.0657C83.4321 84.0657 85.4076 83.3384 85.5675 83.2808C85.7652 83.4184 86.109 83.5834 86.109 83.5834C86.3042 83.4888 86.6394 81.5322 86.6394 81.5322C86.5681 81.3946 85.9603 81.0998 85.9603 81.0998L85.797 81.0284L85.7652 81.2089L85.4729 82.9644L84.9571 82.7125C84.8496 82.7057 82.7005 83.5052 82.7005 83.5052C82.6902 83.7425 83.3238 84.0657 83.3238 84.0657ZM85.307 84.9297C85.472 85.1446 85.9363 85.3398 85.9363 85.3398C86.0368 85.3398 87.9668 84.5119 88.1172 84.4543C88.3218 84.5918 88.6966 84.7354 88.6966 84.7354C88.8875 84.634 89.0491 82.6618 89.0491 82.6618C88.9631 82.5329 88.333 82.2732 88.333 82.2732L88.161 82.2088L88.1456 82.3824L87.9977 84.1448L87.4432 83.9299C87.3341 83.9299 85.2537 84.8153 85.2537 84.8153C85.2554 84.8583 85.2769 84.8927 85.3053 84.9297H85.307ZM87.9169 86.0086C87.9238 86.0516 87.9513 86.0886 87.9857 86.1247H87.9882C88.1722 86.3189 88.7052 86.4634 88.7052 86.4634C88.8023 86.4488 90.5707 85.4257 90.6884 85.3544C90.9291 85.4618 91.359 85.5848 91.359 85.5848C91.5266 85.4412 91.3074 83.476 91.3074 83.476C91.2102 83.353 90.4976 83.1725 90.4976 83.1725L90.3067 83.1149L90.3205 83.3238L90.5268 85.0655L89.9079 84.8919C89.8021 84.9134 87.9169 86.0069 87.9169 86.0069V86.0086ZM108.703 85.8865C108.736 85.743 108.746 85.62 108.761 85.5633C109.006 85.5272 109.449 85.4051 109.449 85.4051C109.459 85.3836 109.438 85.3406 109.397 85.283L109.416 85.2761L109.382 85.2547C109.22 85.0311 108.789 84.6357 108.414 84.3047C108.519 84.8583 108.612 85.3913 108.703 85.8865ZM110.881 84.6271C110.795 84.7285 110.525 86.398 110.525 86.398C110.704 86.5425 111.395 86.2777 111.395 86.2777C111.478 86.1831 111.708 84.7732 111.747 84.5411C111.98 84.4766 112.313 84.3468 112.313 84.3468C112.313 84.3245 112.285 84.2746 112.242 84.2247L112.259 84.2161L112.206 84.1886C111.824 83.7777 110.42 82.8492 110.42 82.8492C110.287 82.8355 109.646 83.0874 109.646 83.0874L109.409 83.1819L111.338 84.4474L110.88 84.6262L110.881 84.6271ZM113.119 83.7055C113.045 83.8215 113.098 85.4765 113.098 85.4765C113.292 85.5925 113.918 85.2615 113.918 85.2615C113.983 85.1609 113.944 83.8362 113.933 83.555C114.159 83.4777 114.461 83.3332 114.461 83.3332C114.461 83.3049 114.433 83.2688 114.387 83.2172L114.398 83.2103L114.355 83.1811C113.951 82.7916 112.464 81.9431 112.464 81.9431C112.338 81.9345 111.748 82.2234 111.748 82.2234L111.522 82.3386L113.52 83.4906L113.122 83.7055H113.119ZM115.2 82.6403C115.128 82.7693 115.318 84.4044 115.318 84.4044C115.516 84.5041 116.103 84.1585 116.103 84.1585C116.163 84.0502 116.023 82.7254 115.992 82.4667C116.198 82.3661 116.471 82.2071 116.471 82.2071C116.471 82.1787 116.439 82.1426 116.385 82.0996L116.396 82.0841L116.363 82.0755C115.961 81.717 114.409 80.9459 114.409 80.9459C114.276 80.9459 113.732 81.264 113.732 81.264L113.52 81.3929L115.571 82.422L115.199 82.6386L115.2 82.6403ZM117.197 81.4093C117.154 81.5537 117.738 83.1089 117.738 83.1089C117.947 83.1665 118.422 82.7633 118.422 82.7633C118.448 82.6343 118.012 81.4308 117.9 81.1299C118.077 81.0138 118.318 80.8058 118.318 80.8058C118.282 80.5822 116.177 79.7758 116.177 79.7758C116.035 79.7982 115.61 80.1713 115.61 80.1713L115.448 80.3089L117.532 81.123L117.197 81.4093ZM119.473 81.668C119.686 81.7179 120.157 81.3293 120.157 81.3293C120.171 81.2717 120.108 81.0482 120.02 80.7825C119.714 80.4584 119.401 80.149 119.077 79.8455L118.933 79.9762C118.89 80.1137 119.473 81.668 119.473 81.668ZM117.188 78.8749L118.65 79.4363C118.303 79.1268 117.953 78.8173 117.597 78.5293C117.468 78.6239 117.348 78.7382 117.348 78.7382L117.187 78.8758L117.188 78.8749ZM118.303 118.939C118.077 119.003 117.566 120.854 117.566 120.854C117.587 120.934 117.738 121.091 117.86 121.213C118.05 121.055 118.23 120.89 118.415 120.731L118.718 119.643L119.041 119.901C119.063 119.91 119.192 119.88 119.379 119.837C119.741 119.478 120.089 119.124 120.431 118.751C119.844 118.916 118.847 119.212 118.643 119.269C118.5 119.11 118.302 118.937 118.302 118.937L118.303 118.939Z" fill="#D50032"/>
<path d="M119.148 117.353C119.041 117.332 117.098 117.915 116.853 118.001C116.676 117.836 116.353 117.658 116.353 117.658C116.155 117.743 115.632 119.686 115.632 119.686C115.701 119.824 116.244 120.14 116.244 120.14L116.396 120.226L116.915 118.319L117.383 118.586C117.491 118.6 119.704 117.931 119.704 117.931C119.729 117.693 119.149 117.355 119.149 117.355L119.148 117.353ZM116.87 115.949C116.762 115.935 114.743 116.677 114.618 116.72C114.443 116.607 114.262 116.506 114.074 116.417C113.883 116.518 113.558 118.469 113.558 118.469C113.63 118.607 114.224 118.894 114.224 118.894L114.39 118.971L114.71 117.035L115.228 117.287C115.34 117.302 117.478 116.505 117.478 116.505C117.5 116.266 116.87 115.949 116.87 115.949ZM114.876 115.071H114.884L114.876 115.064C114.714 114.855 114.261 114.668 114.261 114.668C114.149 114.668 112.191 115.511 112.076 115.545C111.861 115.416 111.483 115.265 111.483 115.265C111.294 115.366 111.133 117.345 111.133 117.345C111.219 117.468 111.855 117.735 111.855 117.735L112.032 117.8L112.19 115.849L112.74 116.081C112.85 116.081 114.933 115.187 114.933 115.187C114.934 115.152 114.909 115.108 114.877 115.072L114.876 115.071ZM112.281 113.991C112.271 113.949 112.247 113.911 112.213 113.883H112.206C112.018 113.683 111.489 113.546 111.489 113.546C111.392 113.56 109.589 114.597 109.506 114.655C109.275 114.539 108.829 114.424 108.829 114.424C108.655 114.562 108.898 116.539 108.898 116.539C108.991 116.648 109.7 116.828 109.7 116.828L109.893 116.886L109.659 114.934L110.285 115.108C110.395 115.093 112.281 113.991 112.281 113.991ZM108.996 112.954C108.961 112.926 108.937 112.904 108.899 112.883C108.884 112.996 108.864 113.109 108.84 113.222C108.98 113.129 109.074 113.064 109.074 113.064C109.069 113.042 109.059 113.02 109.045 113.002C109.031 112.983 109.014 112.967 108.994 112.955L108.996 112.954ZM89.3208 115.387C89.3999 115.287 89.6664 113.61 89.6664 113.61C89.4825 113.467 88.7879 113.725 88.7879 113.725C88.7131 113.826 88.4896 115.223 88.4526 115.467C88.2597 115.524 88.0693 115.589 87.8818 115.661C87.8818 115.682 87.9781 115.819 87.9781 115.819C88.3666 116.23 89.7661 117.157 89.7661 117.157C89.8882 117.166 90.5398 116.92 90.5398 116.92L90.7771 116.819L88.8601 115.56L89.32 115.388L89.3208 115.387ZM87.078 116.295C87.1425 116.18 87.0952 114.533 87.0952 114.533C86.8915 114.416 86.2759 114.747 86.2759 114.747C86.2123 114.842 86.2416 116.18 86.2519 116.453C86.0284 116.539 85.7335 116.668 85.7335 116.668C85.7335 116.697 85.8401 116.82 85.8401 116.82C86.2441 117.21 87.7193 118.067 87.7193 118.067C87.8483 118.067 88.4466 117.778 88.4466 117.778L88.6735 117.671L86.6619 116.519L87.078 116.295ZM84.9908 117.353C85.0595 117.231 84.8756 115.589 84.8756 115.589C84.6778 115.495 84.083 115.849 84.083 115.849C84.0254 115.949 84.1689 117.274 84.199 117.548C83.9927 117.643 83.7236 117.799 83.7236 117.799C83.7435 117.837 83.769 117.871 83.7993 117.901V117.909L83.8096 117.916C84.2024 118.26 85.7868 119.068 85.7868 119.068C85.9157 119.054 86.4556 118.729 86.4556 118.729L86.6645 118.607L84.6168 117.578L84.9916 117.354L84.9908 117.353ZM82.9963 118.598C83.035 118.46 82.4522 116.899 82.4522 116.899C82.2399 116.841 81.7731 117.243 81.7731 117.243C81.7387 117.366 82.1823 118.576 82.2906 118.871C82.1135 118.987 81.8797 119.202 81.8797 119.202C81.908 119.417 84.0142 120.224 84.0142 120.224C84.1543 120.202 84.5816 119.821 84.5816 119.821L84.7406 119.699L82.6568 118.893L82.9972 118.596L82.9963 118.598ZM80.7174 118.339C80.5025 118.282 80.0331 118.685 80.0331 118.685C80.0185 118.749 80.1225 119.073 80.2412 119.426C80.5119 119.701 80.7776 119.959 81.0552 120.225L81.259 120.045C81.302 119.894 80.7157 118.339 80.7157 118.339H80.7174ZM83.0101 121.132L81.3364 120.492C81.7249 120.838 82.1272 121.182 82.5399 121.521C82.6946 121.406 82.8451 121.276 82.8451 121.276L83.0101 121.132ZM91.3935 114.445C91.1562 114.488 90.7453 114.596 90.7453 114.596C90.735 114.632 90.7565 114.668 90.7926 114.725L90.778 114.734L90.8106 114.761C90.9516 114.942 91.2791 115.244 91.6032 115.539C91.5345 115.157 91.4623 114.797 91.3935 114.445Z" fill="#D50032"/>
<path d="M182.028 99.9961C181.982 99.9854 181.935 99.9782 181.887 99.9746C181.942 99.9884 181.973 100.003 181.989 100.003C182.002 100.003 182.016 100.001 182.029 99.9961H182.028Z" fill="#C4CED4"/>
<path d="M150.598 104.265C150.529 105.05 150.443 105.827 150.346 106.619C150.339 106.635 150.339 106.656 150.336 106.679C150.233 107.448 150.11 108.204 149.98 108.968C149.98 108.989 149.969 109.011 149.969 109.04C149.83 109.797 149.675 110.551 149.502 111.301C149.502 111.315 149.498 111.335 149.491 111.344C147.213 121.279 142.014 130.111 134.842 136.885C134.834 136.885 134.833 136.894 134.833 136.894C134.287 137.409 133.73 137.914 133.164 138.407C133.149 138.413 133.138 138.428 133.128 138.435C132.555 138.916 131.991 139.399 131.403 139.853C131.389 139.867 131.371 139.867 131.36 139.881C122.737 146.69 112.128 150.502 101.144 150.739C100.499 153.64 100.066 155.455 100.012 155.439C99.9547 155.454 99.5222 153.64 98.8749 150.739C87.8812 150.501 77.264 146.689 68.6288 139.881C68.6219 139.867 68.615 139.867 68.603 139.853C68.0141 139.393 67.4373 138.918 66.8733 138.428C66.8622 138.419 66.851 138.413 66.8407 138.406C66.2714 137.911 65.7119 137.405 65.1626 136.887C57.9785 130.113 52.7698 121.265 50.4986 111.316C50.49 111.301 50.49 111.301 50.4874 111.287C50.3155 110.531 50.1642 109.783 50.0266 109.013C50.0241 108.99 50.0241 108.97 50.0138 108.955C49.8788 108.188 49.7624 107.417 49.6647 106.644C49.6561 106.636 49.6561 106.615 49.6527 106.599C49.5535 105.814 49.4704 105.027 49.4034 104.238V104.231C33.9554 102.223 19.814 100.322 18.4274 100.019C18.4446 145.015 55.0333 181.601 100.002 181.601C144.953 181.601 181.523 145.049 181.573 100.083C178.974 100.521 165.355 102.344 150.6 104.265H150.598ZM49.406 95.6831C49.4704 94.8991 49.5573 94.121 49.6621 93.3507C49.6656 93.3224 49.6656 93.2932 49.6733 93.2717C49.7705 92.5083 49.8882 91.7526 50.0223 91.0038C50.0327 90.9677 50.0361 90.9316 50.0438 90.9032C50.1762 90.1553 50.3275 89.4056 50.4969 88.6792C50.5003 88.65 50.5106 88.6207 50.5184 88.5932C50.6906 87.8498 50.8792 87.1103 51.084 86.3752C51.084 86.3752 51.0875 86.3606 51.0943 86.346C53.6131 77.3321 58.5596 69.3413 65.1841 63.1L65.1927 63.0914C65.7319 62.577 66.2851 62.0776 66.8518 61.5938C66.8708 61.5723 66.8862 61.5654 66.9069 61.5439C67.4622 61.0625 68.033 60.6009 68.6133 60.1469C68.6279 60.1254 68.6494 60.1126 68.6631 60.104C69.2498 59.6387 69.8474 59.1875 70.4555 58.7508C70.4641 58.7439 70.4667 58.7439 70.4727 58.7302C78.5157 52.9849 88.2934 49.5074 98.8629 49.2701H98.8715C99.5222 46.3403 99.9547 44.5186 100.011 44.5186C100.085 44.4971 100.532 46.3257 101.194 49.2701C112.562 49.5452 123.014 53.5462 131.358 60.128C131.375 60.1349 131.391 60.1487 131.401 60.1555C131.989 60.6086 132.553 61.084 133.118 61.574C133.136 61.5826 133.151 61.5955 133.168 61.6101C133.734 62.1002 134.281 62.5962 134.821 63.1077C134.828 63.1077 134.832 63.1223 134.839 63.1223C141.549 69.4428 146.412 77.4711 148.906 86.346C148.906 86.3598 148.915 86.3675 148.915 86.3804C149.118 87.1154 149.306 87.8505 149.479 88.5915C149.479 88.6199 149.49 88.6491 149.501 88.6775C149.664 89.4125 149.816 90.1536 149.953 90.9024C149.957 90.9307 149.967 90.9668 149.975 91.0029C150.105 91.7509 150.227 92.5005 150.325 93.2708C150.328 93.2923 150.335 93.3138 150.338 93.3499C150.435 94.1202 150.522 94.8973 150.588 95.6754V95.6822C165.374 97.6045 179.004 99.4408 181.57 99.9162C181.516 54.957 144.943 18.4004 99.9994 18.4004C55.0427 18.4004 18.4575 54.9716 18.4248 99.9454C19.814 99.6059 33.964 97.6982 49.4017 95.6814H49.4051L49.406 95.6831Z" fill="#0C2C56"/>
<path d="M132.064 146.899L133.276 149.002L130.215 150.773L132.581 154.877L135.645 153.092L136.857 155.216L133.799 156.995L137.057 162.623L140.115 160.838L141.339 162.954L135.536 166.31L126.258 150.277L132.064 146.9V146.899ZM159.711 118.619L158.531 121.551L156.012 120.492C155.63 120.34 155.378 120.326 155.216 120.492C155.173 120.542 154.557 122.197 154.525 122.277C154.385 122.616 154.601 122.796 155.075 122.989L157.737 124.069C158.29 124.292 158.527 124.306 159.108 123.859L161.274 121.39C162.4 120.49 163.488 120.101 164.603 120.561L168.185 121.995C171.029 123.153 171.446 123.694 170.355 126.487C170.323 126.588 169.696 128.28 169.659 128.387C168.457 131.346 167.759 131.562 164.862 130.382L162.169 129.273L163.375 126.315L166.459 127.589C166.946 127.777 167.252 127.754 167.403 127.395C167.436 127.301 168.026 125.638 168.001 125.559C167.958 125.371 167.749 125.228 167.403 125.083L163.76 123.622C163.213 123.398 162.447 124.961 161.838 125.422L159.979 126.869C158.903 127.711 157.959 127.611 156.747 127.114L154.297 126.121C151.374 124.948 151.049 124.299 152.245 121.333C152.29 121.225 152.909 119.533 152.947 119.433C154.104 116.682 154.839 116.625 157.615 117.739L159.711 118.619ZM94.9859 156.416L92.8196 174.824L89.6663 174.449L91.8327 156.049L94.9859 156.416ZM47.7933 121.701L40.7201 127.569L40.7845 127.698L49.6433 125.72L51.3781 129.412L34.5684 137.231L33.3734 134.674L43.348 130.152L43.1099 129.635L32.3444 132.463L31.6533 130.952L40.5954 124.192L40.5206 124.011L30.6329 128.748L29.4268 126.18L46.2365 118.348L47.7942 121.701L47.7933 121.701ZM77.6905 152.176C80.4044 153.414 80.4689 154.385 79.2413 157.035L78.2338 159.224C77.5289 160.742 77.0165 161.535 75.5877 161.528C76.4517 162.428 76.3357 163.328 75.6952 164.718L73.0561 170.448L70.202 169.124L73.0758 162.889C73.2306 162.537 73.2521 162.299 73.1334 162.104C73.0217 161.946 71.268 161.09 70.9525 160.981L67.727 167.971L64.8438 166.638L72.6065 149.807L77.6905 152.176ZM72.1113 158.475C72.3417 158.612 74.0799 159.425 74.2312 159.446C74.5519 159.482 74.7384 159.281 74.9654 158.77L76.4629 155.545C76.7586 154.89 76.8927 154.601 76.5531 154.341C76.4328 154.248 74.7135 153.428 74.4814 153.335L72.1113 158.475ZM109.718 155.703L114.355 164.205L114.488 164.184L112.64 155.128L115.329 154.581L118.946 172.774L116.187 173.321L111.478 164.574L111.349 164.61L113.271 173.903L110.56 174.445L106.944 156.266L109.719 155.704L109.718 155.703ZM143.024 136.567C144.986 134.299 146.256 134.177 148.469 136.077L150.292 137.669C151.562 138.755 152.177 139.475 151.774 140.842C152.885 140.266 153.711 140.627 154.869 141.627L159.636 145.738L157.577 148.128L152.386 143.629C152.105 143.391 151.868 143.298 151.659 143.363C151.464 143.427 150.206 144.788 150.011 145.069L155.829 150.094L153.755 152.499L139.736 140.375L143.024 136.566L143.024 136.567ZM147.919 143.262C148.114 143.068 149.327 141.708 149.402 141.564C149.521 141.282 149.38 141.038 148.959 140.678L146.267 138.345C145.724 137.876 145.485 137.668 145.126 137.919C145.006 138.007 143.797 139.361 143.639 139.555L147.919 143.262ZM104.622 25.2244L104.607 27.6865L102.12 27.6951L102.051 43.7713L98.8733 43.7481L98.9455 27.6857L96.3751 27.6943L96.3854 25.2381L104.621 25.2227L104.622 25.2244ZM39.1056 67.3973L37.8162 70.2558L35.263 69.0892C34.8641 68.9173 34.6337 68.9018 34.4635 69.0608C34.4171 69.1124 33.7551 70.6599 33.7225 70.7389C33.5712 71.0622 33.7826 71.2634 34.2408 71.4731L36.8697 72.6595C37.4095 72.883 37.8127 72.4936 38.3999 72.0551L40.6693 69.6936C41.8299 68.8365 42.7394 68.9946 43.838 69.4915L47.354 71.082C50.1505 72.3371 50.5434 72.883 49.3484 75.64C49.3055 75.7475 48.6538 77.325 48.6005 77.4325C47.2896 80.3468 46.5846 80.536 43.7297 79.2464L40.6805 77.9139L41.9924 74.991L45.4379 76.5118C45.9176 76.7267 46.2227 76.7121 46.3852 76.3596C46.4179 76.265 47.0557 74.6961 47.036 74.6093C46.993 74.4373 46.7987 74.2783 46.46 74.1193L42.8787 72.5151C42.3345 72.2778 41.7009 73.2931 41.0777 73.7393L39.1607 75.1062C38.0397 75.9143 36.9462 76.1868 35.7513 75.6538L33.3382 74.568C30.4669 73.2871 30.1747 72.6165 31.4779 69.7082C31.5235 69.6076 32.1897 68.0086 32.2258 67.9226C33.4921 65.2146 34.2305 65.1656 36.9659 66.4044L39.1056 67.3991V67.3973ZM51.336 43.2014L53.0166 44.9577L50.4032 47.413L53.6785 50.8173L56.2919 48.3629L57.9871 50.1193L55.3703 52.5814L59.8767 57.2667L62.4969 54.8055L64.1887 56.5704L59.2904 61.2282L46.4402 47.8755L51.336 43.2031V43.2014ZM75.7253 29.1918L84.6589 45.6059L81.8005 46.7433L79.9393 43.2228L77.3122 44.2889L78.3696 48.111L75.5198 49.2484L70.7101 31.1141L75.7253 29.1918ZM76.6709 41.8912L78.7307 41.0487L74.8141 33.5032L74.3928 33.7267L76.6709 41.8912ZM131.402 31.942L130.502 34.2313L128.255 33.3166L122.352 48.2692L119.398 47.0949L125.293 32.15L122.963 31.2362L123.866 28.9391L131.402 31.9394V31.942ZM151.375 45.3979L140.622 57.3622L143.207 59.7521L141.578 61.5661L136.617 57.0527L149.022 43.2718L151.376 45.3979H151.375ZM169.191 70.4793L167.032 71.5668L165.395 68.4204L161.176 70.5292L162.803 73.6756L160.623 74.764L158.986 71.6261L153.167 74.5336L154.791 77.6655L152.613 78.7676L149.565 72.7781L166.147 64.4993L169.193 70.481L169.191 70.4793Z" fill="white"/>
<path d="M100.011 44.5195C99.9532 44.5195 99.5208 46.3421 98.8701 49.271H98.8632C88.6633 49.4932 78.7683 52.7905 70.4739 58.7311C70.467 58.7448 70.4636 58.7448 70.4567 58.7526C69.8481 59.1894 69.2502 59.6409 68.6634 60.1066C68.6441 60.1174 68.6272 60.1321 68.6136 60.1496C68.033 60.6003 67.4643 61.0662 66.908 61.5466C66.8857 61.568 66.8719 61.5749 66.8539 61.5964C66.2868 62.0798 65.7335 62.5792 65.1947 63.094L65.1844 63.1026C58.5651 69.3439 53.6152 77.3348 51.0946 86.3486L51.086 86.3701C50.8797 87.112 50.6932 87.8522 50.5187 88.5941C50.5118 88.6225 50.5015 88.6517 50.498 88.6801C50.328 89.4177 50.1772 90.1595 50.0459 90.905C50.0373 90.9333 50.0347 90.9694 50.0235 91.0056C49.8911 91.7535 49.7725 92.51 49.6745 93.2734C49.6659 93.2949 49.6659 93.3233 49.6633 93.3525C49.5576 94.1228 49.4716 94.8999 49.4054 95.6848H49.4028C50.3141 95.5628 51.2356 95.4476 52.1572 95.3324C53.3641 82.8067 59.3998 71.6754 68.3737 63.8213C68.2938 64.0947 74.1549 78.5134 76.2912 83.6836C74.3851 86.4484 72.9783 89.5259 72.1347 92.7765C72.5156 92.7266 72.8972 92.6759 73.2643 92.6252C74.4234 88.4166 76.5608 84.5416 79.502 81.316C79.8373 80.9489 80.1751 80.5964 80.5336 80.25C80.9548 79.8339 81.3907 79.4307 81.8377 79.0412C81.9666 78.9252 82.093 78.8091 82.2262 78.7017C85.5895 75.8724 89.5803 73.8881 93.866 72.9142C92.1957 81.1217 90.785 88.4428 90.5821 90.5448C90.6371 90.5379 90.7025 90.5379 90.7454 90.531C93.1061 92.712 99.2861 99.0763 100.013 99.9841L100.011 44.5212V44.5195ZM94.0861 71.819C91.6988 72.3305 89.4138 73.1085 87.2827 74.1659C85.0292 75.2856 82.9311 76.6941 81.0416 78.3561L68.3712 63.8136C76.4304 56.7589 86.8469 52.3453 98.2829 51.9352C96.8395 58.5541 95.44 65.1824 94.0844 71.8198L94.0861 71.819Z" fill="#005C5C"/>
<path d="M49.402 104.237C49.4665 105.037 49.5542 105.813 49.6513 106.598C49.6539 106.612 49.6539 106.634 49.6616 106.641C49.7579 107.426 49.8765 108.182 50.0098 108.953C50.0201 108.966 50.0201 108.988 50.0235 109.01C50.1611 109.78 50.3124 110.528 50.4852 111.285C50.4886 111.299 50.4886 111.299 50.4964 111.313C52.7676 121.263 57.9754 130.111 65.1604 136.885C65.7106 137.404 66.265 137.909 66.8384 138.405L66.8711 138.426C67.4385 138.916 68.0119 139.397 68.6016 139.851C68.6136 139.865 68.6205 139.865 68.6274 139.88C77.2638 146.686 87.8809 150.497 98.8744 150.735C98.6982 149.929 98.5047 149.029 98.2873 148.064C86.7936 147.66 76.3118 143.183 68.2422 136.056C68.2457 136.07 68.3067 136.042 68.4262 135.991C68.5019 135.963 68.6102 135.912 68.7288 135.854C71.227 134.616 82.7498 128.252 87.1444 125.725C89.3485 126.817 91.6813 127.628 94.0878 128.137C94.0122 127.771 93.9434 127.411 93.8678 127.044C89.715 126.106 85.8372 124.215 82.5409 121.521C82.1335 121.185 81.7323 120.842 81.3374 120.492C81.2411 120.406 81.1509 120.312 81.0572 120.226C80.7803 119.959 80.5138 119.701 80.243 119.426C76.9201 116.05 74.5177 111.879 73.2652 107.31C82.0733 108.433 88.8792 109.269 90.5856 109.413C90.6406 109.42 90.7059 109.435 90.7489 109.435C93.1095 107.254 99.2896 100.889 100.016 99.9824L18.3091 99.9962C18.3091 99.9962 18.3589 100.011 18.4277 100.018C19.8135 100.321 33.9557 102.222 49.4046 104.23V104.239L49.402 104.237ZM72.1262 107.174C72.9644 110.404 74.3593 113.464 76.2482 116.216C77.6574 118.269 79.3245 120.133 81.2084 121.761L68.489 135.776L68.2379 136.057C59.3233 128.195 53.3298 117.087 52.1486 104.59C59.0173 105.489 66.002 106.397 72.1262 107.174Z" fill="#005C5C"/>
<path d="M100.021 100.004H99.9994C99.9994 100.004 100.011 99.9895 100.021 99.9826L100.032 99.9603C100.857 98.9527 106.909 92.689 109.243 90.5295C109.301 90.5295 109.372 90.5381 109.45 90.5381C109.243 88.4421 107.851 81.121 106.195 72.9213C106.119 72.5602 106.047 72.2009 105.968 71.8338C104.558 64.8075 102.97 57.3136 101.79 51.9431C101.58 50.9786 101.377 50.0862 101.195 49.2712C100.533 46.3268 100.086 44.4982 100.011 44.5197L100.014 99.9826C99.2868 100.89 93.1067 107.254 90.7452 109.435C90.7022 109.435 90.6386 109.42 90.5845 109.413C90.7856 111.501 92.1963 118.83 93.8684 127.044C93.9423 127.411 94.0111 127.771 94.0876 128.138C95.5198 135.173 97.1136 142.703 98.2879 148.066C98.5028 149.031 98.6988 149.931 98.875 150.738C99.5232 153.639 99.9547 155.454 100.012 155.439L100.021 100.006V100.004Z" fill="#C4CED4"/>
<path d="M100.015 99.9816C99.288 99.0746 93.1079 92.7103 90.7464 90.5293C90.7034 90.5379 90.6398 90.5379 90.5856 90.5439C88.8835 90.6952 82.0725 91.524 73.2653 92.6244C72.8982 92.6742 72.5174 92.7258 72.1348 92.7757C66.0167 93.5459 59.0294 94.4314 52.1581 95.3315C51.2366 95.4476 50.315 95.5636 49.4038 95.684C33.9661 97.7008 19.817 99.6093 18.4269 99.9481C18.3513 99.961 18.3048 99.9824 18.3083 99.9971L100.016 99.9833L100.015 99.9816ZM100.032 100.003C100.821 100.968 106.932 107.259 109.287 109.434C109.33 109.434 109.384 109.425 109.438 109.419C111.119 109.268 117.925 108.433 126.766 107.324C127.137 107.267 127.519 107.224 127.897 107.181C134.016 106.403 140.985 105.512 147.853 104.611L150.598 104.267C165.353 102.344 178.973 100.523 181.572 100.083C181.737 100.055 181.859 100.033 181.935 100.012L100.032 100.003Z" fill="#C4CED4"/>
<path d="M150.586 95.6784C150.519 94.9017 150.436 94.1264 150.339 93.3529C150.335 93.3186 150.328 93.2954 150.325 93.2739C150.226 92.5154 150.109 91.7592 149.976 91.006C149.967 90.9699 149.959 90.9338 149.954 90.9054C149.817 90.1575 149.666 89.4164 149.501 88.6823C149.49 88.653 149.479 88.6238 149.479 88.5963C149.308 87.8551 149.119 87.1178 148.914 86.3852C148.914 86.3714 148.906 86.3637 148.906 86.3491C146.413 77.4742 141.55 69.4458 134.84 63.1254C134.831 63.1254 134.829 63.1108 134.823 63.1108C134.282 62.5995 133.731 62.0999 133.169 61.6123C133.15 61.5977 133.134 61.584 133.117 61.5762C132.559 61.0875 131.986 60.6145 131.401 60.1577C131.39 60.1491 131.375 60.1362 131.358 60.1294C122.748 53.3323 112.16 49.5212 101.193 49.2715C101.378 50.0865 101.58 50.9788 101.788 51.9451C113.201 52.3612 123.608 56.7895 131.652 63.8432C131.639 63.8364 117.348 71.5615 112.813 74.2111C110.644 73.1243 108.343 72.3255 105.967 71.8349C106.047 72.202 106.119 72.5622 106.194 72.9224C110.45 73.8939 114.334 75.8454 117.598 78.5302C117.955 78.8182 118.303 79.1277 118.649 79.4371C118.795 79.5678 118.937 79.7122 119.077 79.8498C119.401 80.1507 119.713 80.4602 120.02 80.7851C123.217 84.1101 125.534 88.1806 126.76 92.6274C118.002 91.527 111.224 90.7051 109.45 90.54C109.374 90.54 109.302 90.5314 109.244 90.5314C106.912 92.6927 100.858 98.9564 100.033 99.9622L100.022 99.9855C100.012 99.9923 100.005 100.007 100.005 100.007H100.022L100.012 155.44C100.066 155.455 100.497 153.641 101.142 150.74C112.127 150.504 122.736 146.693 131.359 139.884C131.37 139.869 131.388 139.869 131.402 139.855C131.99 139.4 132.554 138.918 133.127 138.437C133.138 138.428 133.149 138.414 133.164 138.408C133.73 137.916 134.286 137.411 134.83 136.895C134.83 136.895 134.833 136.888 134.841 136.888C142.014 130.113 147.211 121.28 149.489 111.346C149.498 111.338 149.501 111.317 149.501 111.302C149.673 110.554 149.828 109.804 149.969 109.041C149.969 109.013 149.981 108.991 149.981 108.969C150.11 108.206 150.233 107.45 150.337 106.68C150.34 106.658 150.34 106.637 150.348 106.621C150.446 105.83 150.533 105.052 150.601 104.268L147.854 104.613C145.574 128.421 125.9 147.202 101.738 148.067C102.907 142.704 104.495 135.173 105.927 128.139C108.38 127.631 110.754 126.801 112.989 125.67C115.23 124.536 117.313 123.115 119.187 121.443L131.429 136.352C131.602 136.288 125.991 121.154 123.918 116.029C125.74 113.329 127.087 110.336 127.898 107.181C127.52 107.224 127.14 107.267 126.769 107.325C125.6 111.585 123.427 115.503 120.433 118.752C120.092 119.126 119.743 119.479 119.382 119.838C119.066 120.141 118.742 120.45 118.418 120.731C118.234 120.889 118.053 121.055 117.863 121.212C114.484 124.067 110.469 126.07 106.155 127.052C107.824 118.831 109.235 111.487 109.44 109.421C109.386 109.428 109.332 109.435 109.289 109.435C106.934 107.26 100.822 100.967 100.034 100.004L181.936 100.013H182.022C182.022 100.013 182.008 100.013 181.989 100.004C181.974 100.004 181.941 99.9898 181.888 99.976C181.782 99.9546 181.676 99.9354 181.57 99.9184C179.005 99.443 165.374 97.6076 150.588 95.6844V95.6784H150.586ZM127.896 92.7761C127.052 89.5168 125.639 86.4319 123.724 83.6634C122.314 81.6254 120.65 79.7763 118.77 78.1614L131.498 64.0152L131.652 63.8432C140.607 71.6896 146.637 82.8123 147.846 95.3251C141.198 94.4625 134.548 93.6129 127.896 92.7761Z" fill="#005C5C"/>
<path d="M51.3471 148.426L52.8979 149.989L58.2467 143.379L57.9287 143.061L51.3471 148.426ZM62.5545 142.494L51.0832 157.238L48.9057 155.071L51.3815 151.953L49.4017 149.965L46.3104 152.45L44.1406 150.297L58.8442 138.648L62.5553 142.495L62.5545 142.494Z" fill="white"/>
</g>
<defs>
<clipPath id="clip0_18_1270">
<rect width="200" height="200" fill="white"/>
</clipPath>
</defs>
</svg>
