<svg width="200" height="200" viewBox="0 0 200 200" fill="none" xmlns="http://www.w3.org/2000/svg">
<path d="M48.9853 4.58789C48.0011 4.58789 47.1395 5.46999 47.1395 6.47944V14.2976C47.1395 15.3061 48.0011 16.1891 48.9844 16.1891H50.7074C54.767 16.1891 58.0886 19.5939 58.0886 23.7553V30.5649C58.0886 30.8168 57.8423 31.0687 57.597 31.0687C39.3885 33.9688 25.3641 50.1097 25.3641 69.4035C25.3641 88.8229 39.3885 103.955 57.4733 106.603C57.7196 106.603 57.9659 106.856 57.9659 107.108V137.371C53.1675 135.353 48.4927 133.21 43.9406 130.813C42.3411 129.931 40.7426 128.922 39.1431 128.04C38.7742 127.787 38.4033 127.787 38.0344 127.787C37.4191 127.787 36.9275 127.913 36.5585 128.418C34.959 130.31 32.9906 132.453 30.5296 135.353C29.0537 136.992 27.5769 138.758 25.7321 140.775C25.3632 141.154 25.2414 141.658 25.2414 142.036C25.1178 143.046 26.1011 143.928 27.5769 143.802C30.038 143.55 32.13 143.55 33.8531 143.424C38.6505 143.677 40.3727 145.063 46.5243 148.089C49.2306 149.477 53.1666 151.242 57.7187 153.26V174.193C57.7187 180.246 50.4602 179.111 47.6302 179.363C47.015 179.489 46.7706 180.119 46.7706 180.624V193.486C46.7706 194.495 47.6321 195.377 48.6154 195.377H143.591C155.648 195.377 165.12 191.342 172.995 183.398C173.609 182.894 173.733 181.759 172.995 181.002L164.259 171.292C164.083 171.112 163.872 170.969 163.64 170.872C163.408 170.775 163.158 170.724 162.906 170.724C162.654 170.724 162.405 170.775 162.173 170.872C161.94 170.969 161.73 171.112 161.553 171.292C155.401 177.598 148.267 179.489 143.592 179.489H81.8325C77.6493 179.489 73.9587 179.111 73.9587 174.697V158.684C83.3092 161.332 91.0594 162.972 99.9173 163.854C134.61 167.637 166.719 156.666 166.719 125.645C166.719 109.127 148.143 91.8503 120.831 91.3465C120.586 91.3465 120.34 91.0937 120.34 90.8408V78.9877C120.34 78.7358 120.586 78.4839 120.831 78.4839C127.721 78.4839 133.626 80.3755 133.626 80.3755C136.087 81.384 135.718 78.3575 135.718 77.349L135.594 68.0177C135.594 67.3865 134.857 67.0082 134.488 67.0082H91.182C90.6904 67.0082 90.0751 67.3865 90.0751 68.1431V77.4754C90.0751 78.6094 89.9506 81.1321 92.1653 80.501C92.1653 80.501 96.8401 78.4839 104.96 78.6094C105.206 78.6094 105.452 78.8623 105.452 79.1151V90.9682C105.452 91.2201 105.206 91.472 104.96 91.472H74.4504C74.205 91.472 73.9587 91.2192 73.9587 90.9682V46.2011C73.9587 45.9483 74.205 45.6964 74.4513 45.6964C90.6904 45.4436 120.216 47.7144 143.591 56.0372C144.452 56.2891 145.314 56.0372 145.806 55.2806C147.774 51.8758 150.357 47.588 154.171 40.9048C155.033 39.2661 153.679 38.0047 151.711 38.5085C141.5 41.2831 141.129 40.2746 132.148 38.0047C121.937 35.3565 98.0706 30.1857 74.3268 30.5649C74.0805 30.5649 73.7115 30.3121 73.7115 30.0592V23.7563C73.7115 19.5948 77.0331 16.19 81.0936 16.19H82.8157C83.799 16.19 84.6606 15.307 84.6606 14.2985V6.47944C84.6606 5.47093 83.799 4.58789 82.8157 4.58789H48.9853ZM57.6213 46.174C57.8816 46.2096 58.0895 46.4221 58.0895 46.7049V90.7144C57.9659 91.0927 57.7196 91.3456 57.3497 91.3456C46.5243 89.5795 39.7584 80.1217 39.7584 68.5205C39.7584 57.8023 47.2622 48.7229 57.3507 46.2011C57.4378 46.1714 57.5303 46.1615 57.6213 46.174ZM74.4513 106.477H105.085C105.33 106.477 105.576 106.727 105.576 106.979V119.34C105.576 119.97 105.455 120.475 105.208 121.105L103.486 125.393C103.117 126.149 103.732 127.158 104.593 127.158H121.448C122.31 127.158 122.924 126.275 122.555 125.393L120.71 121.231C120.47 120.629 120.344 119.988 120.34 119.34V107.108C120.34 106.855 120.587 106.477 120.833 106.603C131.905 106.73 151.712 111.143 151.712 127.031C151.712 148.217 116.035 155.657 73.837 143.299C73.837 143.299 73.7134 143.299 73.7134 143.172V106.982H73.9606C73.9606 106.729 74.205 106.477 74.4513 106.477Z" fill="#C41E3A"/>
</svg>
