<svg width="200" height="200" viewBox="0 0 200 200" fill="none" xmlns="http://www.w3.org/2000/svg">
<path d="M41.2198 179.904C34.8558 181.053 28.2785 182.236 22.6545 179.447C18.6411 177.459 15.4158 171.985 15.3131 166.991C15.2098 162.173 15.9337 157.374 17.4531 152.802C17.9158 153.297 18.4811 153.577 19.0438 153.782C20.2998 154.239 22.1118 154.219 23.6225 153.706C25.9625 152.92 28.2371 152.148 30.4625 151.39C30.3345 151.52 30.2105 151.639 30.0838 151.78C25.3398 157.123 23.3638 163.438 24.5638 169.269C23.8785 169.686 22.9278 170.208 21.9131 170.692C21.9131 170.692 19.2945 171.943 19.1678 172.01L18.4585 172.437V173.267C18.4558 174.101 18.4558 174.101 21.6238 176.008C21.6345 176.018 22.9411 176.872 23.6598 178.373L24.5038 180.143L26.4611 180.094C28.2505 180.051 29.6705 179.078 30.5518 178.301C33.5785 179.629 36.7785 179.317 39.5825 177.421C41.9558 178.838 44.4198 179.116 45.6945 179.154C44.1878 179.375 42.6865 179.643 41.2198 179.905M152.774 146.92H144.766L144.7 147.177C143.575 147.008 142.429 147.035 141.313 147.254C136.874 148.09 133.476 150.782 131.129 155.266C131.392 152.929 131.124 151.111 130.021 149.7C128.742 148.064 126.942 147.152 124.812 147.058C123.999 147.03 123.187 147.111 122.396 147.299L122.454 147.045H110.533L110.541 147.022H108.95C110.044 146.488 110.966 145.658 111.611 144.625C112.256 143.592 112.6 142.399 112.601 141.18C112.599 139.455 111.914 137.801 110.697 136.582C109.48 135.362 107.83 134.676 106.109 134.674C104.811 134.676 103.543 135.067 102.469 135.798C101.395 136.529 100.564 137.565 100.082 138.773L101.882 131.711L87.9145 137.23L85.6291 147.254C80.7811 146.553 77.5065 149.105 75.4425 151.656C75.8105 150.984 76.3891 149.919 76.3398 149.998L77.7571 147.721L63.9878 147.715L64.3731 146.248H53.2798C53.2798 146.248 51.2038 154.602 50.2558 157.567C50.7385 155.423 52.6958 147.031 52.6958 147.031H43.1465C63.5265 139.959 77.9091 134.591 86.0105 131.024C89.7971 129.358 108.83 122.423 115.202 120.121C120.924 118.07 126.667 116.078 132.429 114.144C136.81 120.83 148.033 137.842 154.762 146.944C154.344 146.922 153.732 146.922 152.776 146.922M107.58 104.003L108.429 104.371L102.164 110.417C99.6585 110.417 98.8038 112.92 98.8038 112.92L94.3211 114.175C94.1171 113.97 93.0305 113.877 93.0305 113.877L98.6438 108.991C103.246 107.567 107.58 104.003 107.58 104.003ZM112.997 106.074L118.413 107.905L110.897 109.806C110.897 109.806 110.288 109.397 109.477 109.332L112.997 106.074ZM194.036 168.01C192.594 167.286 191.019 166.866 189.409 166.775C189.261 164.679 188.582 162.643 187.998 160.936C187.75 160.197 187.509 159.498 187.358 158.916C186.626 156.152 186.43 155.027 187.084 153.233C188.478 149.412 183.624 147.218 181.705 146.348L181.113 146.08C180.548 145.821 180.222 145.945 179.362 146.279C178.665 146.55 177.862 147.094 176.802 148.067C177.684 146.618 178.249 144.796 178.397 142.865C178.965 142.451 179.494 141.799 179.922 140.937C181.372 138.046 181.433 133.235 177.281 128.405C175.597 126.444 163.77 116.178 153.366 107.243L153.326 107.21C156.984 106.028 162.582 104.221 162.536 104.233C163.321 104.022 164.584 103.437 165.744 104.487C166.77 105.486 168.78 105.85 170.517 104.624C173.532 102.5 171.861 97.8284 171.244 96.0859C170.16 93.0259 168.628 91.8728 167.533 91.4438C166.474 91.0269 165.348 91.0029 164.38 91.5213C162.872 92.3257 162.505 93.6219 162.332 94.6789C162.138 95.8253 160.31 96.0953 157.058 96.9144C157.058 96.9144 145.912 99.9637 145.12 100.188L145.061 100.139L142.362 97.8404C141.838 96.9692 140.802 95.4138 139.584 94.4196C139.37 90.9254 136.664 86.767 134.445 85.0686C134.329 82.6367 132.384 79.1171 130.31 77.8329C121 61.3718 112.685 50.8075 104.902 45.5561L104.646 45.3824C103.252 44.4457 103.133 44.3134 103.081 43.5838C102.601 37.0978 100.868 30.8762 98.6678 27.5437C99.5385 26.1433 100.853 23.6512 101.76 20.1944L102.744 16.4663L101.617 17.2119C101.901 16.2725 102.188 15.1487 102.464 13.7885L102.49 13.6067C102.573 12.4883 101.818 12.07 101.584 11.9658C101.488 11.9217 101.396 11.9017 101.302 11.8803C101.402 10.3897 101.169 8.89569 100.62 7.5068L99.7598 5.2793L98.1665 7.05516C94.9065 10.6911 89.9491 12.5858 85.5745 14.2601C84.5718 14.6436 83.6251 15.0084 82.7265 15.3786C75.5905 18.3343 71.1771 21.4985 67.0171 30.4433L66.6918 30.7199C64.8011 32.3114 60.8638 35.6266 58.6345 42.1955L58.2651 43.2845L59.2318 43.9086C61.5265 45.3784 64.0118 46.4167 67.1465 47.5164C55.3785 73.8803 77.7811 89.5223 96.5265 99.1031C95.4425 101.103 94.5718 102.978 94.3411 105.183L85.9411 114.054C85.1358 114.267 83.6091 114.769 82.7211 115.715C82.4185 116.036 82.1371 116.474 81.8771 117.01C81.6438 117.062 81.4398 117.104 81.2625 117.14C76.0118 118.195 67.6225 120.118 45.3558 126.317C42.1371 123.356 36.7785 121.458 31.5051 121.458C23.1531 121.458 17.7585 125.956 12.2305 132.709C4.24782 142.455 -4.76952 169.139 7.17848 183.263C9.22115 185.678 16.9038 193.471 30.0718 192.462C33.5945 192.192 36.2345 191.607 38.5611 191.095C43.1571 190.078 45.2571 189.614 49.8358 192.697L51.6625 193.932L53.3931 192.56C56.0025 190.495 60.4305 191.189 63.9971 192.018L70.9078 193.634L67.2838 187.521C62.4505 179.366 55.5985 178.196 48.6905 178.799C52.5798 177.713 55.1625 174.249 57.0451 170.147C56.7945 172.849 57.2585 175.722 59.8078 177.536C63.9145 180.461 69.0611 179.177 72.8678 176.816C74.6678 178.357 77.0838 179.257 79.3105 179.158C81.2438 179.122 82.9051 178.739 84.4598 177.981C85.4742 178.707 86.6617 179.152 87.9025 179.271C89.9892 179.471 92.2251 178.796 94.5558 177.269C95.7705 178.485 97.3611 179.153 99.1718 179.161C100.054 179.158 100.933 179.046 101.788 178.827L101.697 179.161H114.266L115.956 172.968C116.105 174.19 116.472 175.362 117.18 176.387C117.965 177.52 119.484 178.918 122.28 179.15C125.276 179.399 128.865 178.271 131.762 176.232C134.91 179.337 138.882 179.844 143.602 177.722C144.536 178.528 146.144 179.476 148.562 179.144C150.221 179.034 151.89 178.326 153.628 177.011C154.325 177.715 155.159 178.268 156.077 178.638C156.995 179.008 157.979 179.186 158.968 179.162C162.366 179.109 165.222 177.073 167.466 174.976C169.938 177.511 173.685 180.094 179.44 179.12C180.29 178.966 181.132 178.772 181.964 178.537C183.868 178.028 184.11 177.962 185.629 179.249L190.12 183.062L190.586 177.302C190.674 177.014 191.3 175.266 194.346 173.254L198.726 170.359L194.037 168.012L194.036 168.01Z" fill="white"/>
<path d="M111.133 141.188C111.133 138.41 108.879 136.149 106.106 136.149C103.334 136.149 101.08 138.41 101.08 141.187C101.082 142.522 101.612 143.803 102.554 144.747C103.496 145.691 104.774 146.223 106.106 146.224C107.439 146.223 108.717 145.692 109.66 144.748C110.602 143.803 111.132 142.524 111.133 141.188ZM193.379 169.332C191.698 168.497 189.826 168.123 187.955 168.247C188.136 165.929 187.312 163.495 186.608 161.42C186.349 160.654 186.104 159.933 185.936 159.298C185.212 156.555 184.872 155.021 185.705 152.737C186.631 150.198 182.819 148.475 181.192 147.734L180.499 147.424C180.294 147.5 180.091 147.577 179.888 147.657C177.765 148.48 173.429 153.651 165.656 163.538C164.744 164.701 163.82 165.876 163.078 166.804C163.559 164.612 165.116 157.517 165.865 154.112C168.861 154.386 171.169 152.485 171.729 149.622C174.217 150.237 176.975 146.573 176.975 141.912C178.284 142.001 182.024 136.185 176.169 129.37C174.384 127.295 160.153 115.005 150.412 106.657L150.378 106.624L162.152 102.822C162.88 102.626 164.218 102.312 164.873 102.368C165.3 102.403 166.209 103.024 166.653 103.513C167.081 103.933 168.265 104.458 169.652 103.446C171.529 102.076 170.669 98.8762 169.858 96.5846C168.961 94.0484 167.844 92.954 167.036 92.636C166.374 92.3768 165.609 92.3019 164.874 92.6827C163.188 93.5566 163.968 95.3913 163.042 96.0901C163.042 96.0901 162.774 96.9079 157.526 98.1894L145.469 101.624L144.762 101.824L144.705 101.774C142.559 99.9439 141.227 98.8134 141.227 98.8134C140.38 97.3609 139.184 95.7801 138.117 95.1869C138.36 91.6338 134.76 86.6964 132.921 85.8399C133.425 84.2792 131.316 79.8535 129.24 78.9315C122.61 67.1646 113.621 53.2183 104.08 46.779C102.556 45.7515 101.733 45.2878 101.616 43.6963C101.081 36.4299 99.0252 30.1603 96.8852 27.5867C97.6718 26.4736 99.2918 23.8078 100.34 19.8271C100.34 19.8271 99.1212 20.6342 98.1892 20.9322C98.6892 20.3576 99.9225 18.9506 101.024 13.5027C101.073 12.8453 100.516 14.0773 99.1932 14.8403C99.4105 13.8849 100.533 11.3487 99.2532 8.04688C94.9812 12.8065 88.1425 14.7281 83.2798 16.7418C75.8972 19.7991 72.0372 22.9873 68.2012 31.3602C66.8438 32.5869 62.3838 35.707 60.0145 42.6741C62.3758 44.1881 64.9425 45.2236 68.5838 46.4704C68.5838 46.4704 68.6118 47.6409 68.6332 47.7732C57.5665 72.0032 75.8118 87.1026 98.5398 98.4834C97.0758 101.121 95.8745 103.22 95.7425 105.834L86.7025 115.388C86.7025 115.388 84.6412 115.812 83.7838 116.727C83.4065 117.131 83.1025 117.799 82.9132 118.29C82.3812 118.411 81.9198 118.511 81.5452 118.584C76.0385 119.693 67.1758 121.765 44.9238 127.962C44.8478 127.885 44.7772 127.796 44.6985 127.719C41.7958 124.815 36.6158 122.934 31.4998 122.934C23.7212 122.934 18.6212 127.216 13.3572 133.645C5.63716 143.074 -3.14684 168.799 8.2905 182.317C10.2185 184.597 17.4812 191.958 29.9518 191.003C33.3732 190.738 35.9585 190.169 38.2385 189.665C42.9518 188.623 45.5465 188.05 50.6465 191.484L51.5892 192.119L52.4798 191.412C55.5772 188.959 60.4398 189.685 64.3225 190.594L67.8865 191.425L66.0172 188.276C59.9465 178.035 50.5585 179.724 41.4785 181.361C34.8838 182.547 28.0638 183.775 22.0052 180.773C17.4718 178.527 13.9638 172.615 13.8478 167.028C13.7358 161.523 14.9785 155.41 16.8838 150.152C18.3825 152.084 20.2878 153.127 22.0105 152.672C22.2335 152.61 22.4511 152.531 22.6612 152.434C22.8287 152.412 22.9938 152.375 23.1545 152.323C54.0265 141.9 74.9758 134.281 85.4172 129.687C89.2425 128.006 108.321 121.052 114.702 118.749C120.356 116.707 126.768 114.502 133.033 112.395C136.8 118.161 151.66 140.775 158.116 148.948C156.842 156.464 154.63 165.413 150.876 167.727C150.717 167.827 150.524 167.952 150.356 168.056C151.172 163.669 153.865 152.072 154.289 150.331L154.756 148.397L145.902 148.394L145.752 148.978C144.603 148.519 143.182 148.404 141.581 148.704C134.728 149.997 130.568 156.326 129.221 167.519C129.196 167.719 129.173 167.925 129.149 168.088C127.812 169.629 126.761 169.925 126.445 169.806C126.332 169.766 126.312 169.514 126.318 169.369C126.362 168.046 127.084 165.552 127.784 163.142C129.554 157.009 130.59 152.819 128.868 150.611C127.861 149.322 126.436 148.606 124.746 148.533C123.264 148.468 121.741 148.908 120.356 149.602L120.606 148.52H111.421L111.162 149.765C110.12 154.84 107.074 165.586 104.986 168.04C104.573 168.524 103.76 168.824 103.195 168.904C103.769 166.128 106.373 156.507 108.054 150.48L108.606 148.499H99.2932L99.0198 149.717C98.9892 149.851 95.9518 163.364 93.5838 167.504C92.8998 168.695 92.2638 169.023 92.0238 168.947C91.8638 168.899 91.7118 168.645 91.7345 168.319C91.9665 165.154 97.0572 144.712 98.9958 137.099L99.7505 134.139L89.1705 138.322L86.7345 149.014C86.3876 148.898 86.0318 148.81 85.6705 148.751C78.8638 147.602 75.5478 153.824 74.3012 156.166C72.7012 159.162 71.0905 164.095 70.9412 168.016C69.9545 169.181 68.7518 170.068 68.3452 170.015C68.0052 169.971 67.9172 169.849 67.8385 169.695C66.5505 167.157 70.5878 157.528 73.8665 151.5L75.1198 149.188L62.0865 149.192L62.4705 147.725H54.4438L54.1665 148.933C52.5292 155.978 49.5972 165.212 47.0198 168.84C46.7105 169.274 46.4425 169.504 46.2598 169.615C46.4198 167.948 48.4718 158.638 50.3985 150.427L50.8505 148.505H41.6772L41.2878 149.999C38.3145 148.9 34.4212 149.115 31.1812 152.765C26.4545 158.089 24.6772 164.301 26.2238 169.936C25.5372 170.454 24.0238 171.324 22.5425 172.027L19.9265 173.275L22.4105 174.773C22.4185 174.781 24.0638 175.815 24.9825 177.745L25.4185 178.658L26.4252 178.632C28.1065 178.591 29.4212 177.43 30.2732 176.536C33.3518 178.281 36.7238 177.952 39.5398 175.638C42.0825 177.527 45.0732 177.695 46.0318 177.695C53.8998 177.695 56.9118 167.255 59.1065 159.628C59.3998 158.613 59.6798 157.645 59.9505 156.77H62.9638C62.7772 157.224 62.5852 157.692 62.3852 158.173C61.5078 160.283 60.5158 162.676 59.7492 165.005C58.8998 167.602 56.9038 173.676 60.6532 176.343C64.3478 178.973 69.3665 177.575 73.0332 174.951C74.7758 176.939 77.3305 177.78 79.2798 177.694C81.3252 177.655 83.0265 177.193 84.6145 176.232C85.6012 177.152 86.7478 177.685 88.0412 177.812C90.4585 178.047 92.8812 176.776 94.8252 175.288C95.8025 176.823 97.3052 177.687 99.1745 177.694C100.721 177.703 102.356 177.263 103.948 176.461L103.61 177.694H113.148L116.234 166.372C118.021 159.162 119.808 158.325 120.152 158.228C120.212 158.211 120.275 158.206 120.337 158.214C120.398 158.222 120.458 158.243 120.512 158.275C120.505 158.745 120.112 159.949 119.758 161.03C119.438 162.009 119.041 163.225 118.633 164.682L118.513 165.099C117.716 167.928 116.379 172.662 118.382 175.555C118.987 176.429 120.172 177.506 122.398 177.69C125.452 177.945 129.252 176.522 131.932 174.257C135.755 178.953 140.345 177.782 143.896 175.961C144.877 177.05 146.2 177.992 148.462 177.682C150.451 177.55 152.271 176.346 153.808 174.97C155.029 176.755 156.821 177.726 158.941 177.695C162.384 177.646 165.261 175.174 167.525 172.873C170.29 176.096 173.731 178.599 179.191 177.674C179.997 177.53 180.795 177.347 181.584 177.126C183.624 176.577 184.468 176.349 186.573 178.132L188.887 180.097L189.135 177.071C189.132 177.086 189.504 174.696 193.537 172.03L195.794 170.541L193.381 169.331L193.379 169.332ZM103.138 111.397C102.06 111.608 101.536 111.762 100.802 112.442C100.286 112.917 99.9372 113.586 99.7492 114.083C97.7145 114.613 95.6145 115.152 93.5758 115.673C93.1118 115.397 92.2212 115.035 90.8425 115.133C90.7132 115.124 90.3492 115.058 90.3772 114.675C90.4038 114.34 97.9878 107.459 97.9878 107.459C100.108 107.025 107.876 102.501 107.876 102.501L110.252 103.474L110.076 103.866L109.737 104.467L103.587 111.013C103.454 111.16 103.328 111.361 103.14 111.397M110.256 111.317C109.722 110.92 109.153 110.689 108.629 110.698C106.659 110.731 107.328 110.011 107.777 109.502L113.05 104.566C113.05 104.566 117.208 106.298 122.2 108.053C118.221 109.149 114.239 110.236 110.256 111.315M35.3892 169.225C35.3692 169.225 35.3412 169.225 35.2692 169.134C35.1652 169.002 34.3078 167.731 35.4252 163.268C36.2492 159.976 37.4612 157.768 38.8318 157.055C39.0958 156.917 39.4678 156.774 39.9945 156.795C39.2878 162.923 37.3452 169.225 35.3892 169.225ZM83.9732 163.263C83.5785 164.838 83.1732 166.47 82.8078 168.145C82.7572 168.389 82.1278 168.888 81.2532 168.971C80.9385 169.005 80.3705 168.979 80.2465 168.689C79.4598 166.868 80.5438 160.998 83.0918 157.967C83.8412 157.075 84.5825 156.618 85.2998 156.592C85.3292 157.835 84.5532 160.931 83.9732 163.263ZM139.156 169.276C139.136 169.276 139.105 169.276 139.036 169.182C138.932 169.054 138.076 167.781 139.193 163.316C140.037 159.954 141.156 157.891 142.524 157.186C142.986 156.948 143.513 156.882 144.094 156.953C143.29 163.13 141.233 169.277 139.157 169.277M179.328 169.574C178.968 169.927 178.275 170.162 177.536 170.178C176.62 170.198 175.769 169.903 175.215 169.365C172.379 166.7 172.379 166.7 173.745 164.921C174.628 163.775 175.4 162.706 176.152 161.67C176.811 160.755 177.439 159.901 178.06 159.095C178.277 160.686 178.732 162.164 179.16 163.55C180.044 166.404 180.485 168.104 179.328 169.574Z" fill="#14264B"/>
<path d="M80.5426 37.5468C80.2963 37.9439 79.9467 38.2661 79.5313 38.4789C79.116 38.6918 78.6506 38.7871 78.1852 38.7548C77.848 38.736 77.518 38.6502 77.2142 38.5024C76.9104 38.3546 76.6389 38.1477 76.4157 37.8938C76.1924 37.6398 76.0218 37.3439 75.9137 37.0233C75.8057 36.7027 75.7623 36.3637 75.7862 36.0261C75.81 35.6885 75.9007 35.359 76.0528 35.0569C76.2049 34.7547 76.4155 34.4859 76.6722 34.2661C76.929 34.0462 77.2268 33.8798 77.5484 33.7763C77.8699 33.6729 78.2088 33.6347 78.5452 33.6637C79.4719 33.7305 80.2519 34.2864 80.6412 35.0654C78.8879 34.8757 78.5052 36.5741 78.5052 36.5741C77.3692 35.179 78.8359 34.3746 78.8359 34.3746C77.8599 34.245 76.9332 34.992 76.8532 36.1131C76.8344 36.3802 76.8682 36.6484 76.9528 36.9024C77.0375 37.1563 77.1712 37.3911 77.3464 37.5933C77.5216 37.7954 77.7349 37.961 77.974 38.0805C78.2131 38.2 78.4734 38.2711 78.7399 38.2898C79.4972 38.3432 80.1479 38.096 80.5426 37.5468Z" fill="white"/>
<path d="M98.1628 11.2676C94.4361 15.1828 88.5295 16.4602 83.4775 18.5902C76.0748 21.7143 72.2295 26.5368 70.3135 31.1962C71.0321 32.4282 75.5255 32.5418 76.1988 32.1409C77.3455 31.4568 78.9001 31.1134 80.1415 31.8323C81.0481 32.3574 81.5388 32.8812 81.9521 33.1578C83.0495 33.6268 84.5815 34.0143 85.7175 33.7457C80.7175 38.7713 80.1415 45.3683 80.6108 46.4841C74.7281 46.4841 68.8255 54.4654 67.7495 56.6181C61.4588 80.363 97.3695 96.0117 100.933 97.674C98.8601 100.995 97.1068 103.652 97.2615 104.887C97.3855 105.873 97.9415 105.9 99.0868 105.667C101.711 104.184 106.34 102.061 107.973 100.163C108.964 99.0142 107.937 97.3426 107.452 96.7987C106.931 96.2094 107.231 95.6937 108.431 96.4286C109.569 97.3934 109.775 97.9292 110.135 98.775C110.648 99.999 109.179 101.303 109.179 101.303C113.22 103.134 127.037 108.582 131.316 109.43L126.679 101.904C118.255 98.5345 106.408 93.4461 99.6868 90.1028C89.2668 84.9129 72.0188 74.1081 80.6188 57.5548C83.1308 53.339 84.0855 53.2548 84.4415 54.2409C84.4655 54.3412 84.3908 54.6244 84.2855 54.6792C84.1255 54.8422 82.9921 55.9353 81.9361 58.1815C73.8535 73.2355 90.5788 84.0257 100.441 88.8187C114.72 95.7538 127.937 101.096 136.641 104.024C137.975 104.471 139.188 104.928 140.135 105.198C142.775 105.976 139.375 96.8094 136.041 95.8674C118.38 90.6654 101.379 82.9072 96.6708 78.2491C93.8455 77.9124 86.3041 75.61 85.0775 65.3718C85.0281 65.0952 85.0415 64.8573 85.3868 64.7785C85.7068 64.7063 85.8375 64.9402 85.8655 65.0818C88.0255 74.3754 94.3441 76.8527 97.0148 76.9169C98.4921 76.9516 100.819 75.4764 100.209 75.1196C95.6255 72.4538 93.0495 67.0862 92.8681 66.5303C92.7495 66.1682 92.8841 66.0693 93.1108 65.9477C93.3228 65.8368 93.5681 65.925 93.7988 66.2818C94.9815 68.1204 99.3321 75.304 105.775 75.5005C107.479 75.5526 109.353 75.4924 109.733 73.9638C109.733 73.9638 104.284 71.4463 101.611 67.018C101.517 66.8764 101.441 66.6065 101.785 66.3967C102.136 66.1856 102.407 66.5477 102.567 66.6973C107.769 72.0463 111.947 74.219 114.473 73.9504C115.495 73.8849 116.209 73.1527 116.247 72.6369C116.383 70.694 114.421 69.5048 113.905 69.1533C113.831 69.1039 113.791 68.9275 113.876 68.8139C113.953 68.703 114.152 68.6456 114.413 68.7725C115.433 69.2589 117.429 70.6967 117.264 72.9629C117.233 73.3652 117.181 73.6324 116.879 73.9638C119.831 75.5192 124.855 77.5209 127.189 78.2464C120.028 66.2136 112.112 53.5635 101.796 47.2618C101.519 48.1597 102.381 50.2042 101.353 49.7098C100.64 49.3677 100.017 46.3892 99.9908 45.0463C99.8561 38.1005 97.9561 32.308 95.4228 28.9754C94.0215 30.0751 91.4775 30.6323 91.4881 30.6484C96.5628 26.1372 97.2148 22.9717 97.2148 22.9717C95.7348 24.1182 92.1815 25.6989 90.3321 26.021C90.3321 26.021 96.1228 22.6309 98.4468 16.5831C98.4468 16.531 94.7521 20.2164 89.3481 21.4403C89.3455 21.4323 98.3281 17.3301 98.1628 11.2676ZM110.913 74.3941C110.812 75.0488 110.615 75.6715 109.585 76.1365C118.997 81.7434 129.045 84.802 131.249 85.4407C131.703 85.1147 130.553 80.8067 127.4 79.6869C122.695 78.0099 118.775 76.3463 115.993 74.5958C115.012 75.1383 113.555 75.4577 110.913 74.3941ZM101.624 75.8425C101.515 76.6363 99.4388 77.8095 98.5041 77.9738C105.272 83.741 129.111 92.6364 135.921 94.2358C137.015 94.4924 135.428 89.579 132.428 87.5653C130.236 86.0848 116.461 82.8925 107.733 76.5948C106.261 76.8354 104.428 76.8928 101.624 75.8425ZM142.228 101.632C142.508 102.244 142.655 103.035 142.788 103.77C143.988 109.462 139.695 106.309 128.733 102.611C137.521 116.519 150.908 137.058 158.481 146.663C158.908 143.83 159.215 141.345 159.401 139.728L159.561 138.352L161.148 137.737L140.508 111.211H142.348C142.348 111.211 154.108 126.443 162.641 137.156L168.548 134.84C159.895 125.665 145.495 110.76 145.495 110.76L147.375 110.809C147.361 110.658 175.268 139.701 175.268 139.701C176.801 141.425 179.401 135.586 175.215 130.916C172.895 127.203 142.228 101.632 142.228 101.632ZM31.5015 124.495C24.8215 124.495 20.0975 127.88 14.5641 134.64C6.60279 144.365 -1.06787 168.845 9.48413 181.312C13.0175 185.494 20.1588 190.184 29.8348 189.449C40.4148 188.634 43.2881 184.652 51.5148 190.184C55.3881 187.124 61.2935 188.287 64.6788 189.075C55.0028 172.746 36.4881 189.69 21.3161 182.18C16.0588 179.575 12.4148 173.04 12.2908 167.067C12.1641 161.028 13.6161 154.306 15.8268 148.561C15.3441 147.665 14.9441 146.663 14.6601 145.594C13.4935 141.158 14.9615 136.713 17.5588 135.711C17.7001 135.644 17.8521 135.586 18.0175 135.543C20.6441 134.781 23.1521 134.132 25.5615 133.444C26.3481 132.73 27.2018 132.095 28.1108 131.546C31.1455 129.769 36.9468 129.694 40.3348 132.168C38.7615 134.021 37.4055 136.544 39.6321 138.619C41.3721 140.303 44.2375 139.608 45.4161 137.609C47.2308 134.514 45.7495 131.034 43.6001 128.824C41.0175 126.239 36.2455 124.495 31.5015 124.495ZM169.741 136.107L168.061 143.884C169.808 145.968 170.981 147.304 171.261 147.425C173.955 148.627 175.888 143.282 174.848 141.759C174.501 141.238 172.515 139.073 169.741 136.107ZM97.4788 136.713L90.5001 139.474L87.6855 151.834C87.6855 151.834 87.6601 150.672 85.4041 150.284C80.4428 149.456 77.6908 153.104 75.6695 156.899C74.1588 159.731 72.4788 164.849 72.4788 168.591C72.4788 168.591 70.0335 171.811 68.1375 171.571C61.6281 170.715 72.4895 150.752 72.4895 150.752H60.0548L60.4428 149.282H55.6748C54.3575 154.961 51.3415 165.437 48.2815 169.753C46.6228 172.092 44.7388 171.437 44.6855 169.82C44.6308 168.163 48.8748 150.07 48.8748 150.07H42.8748L42.3068 152.249C40.6241 151.166 36.2348 149.416 32.3388 153.812C27.2441 159.544 26.3961 165.638 27.9241 170.221C28.1361 171.089 23.2028 173.441 23.2028 173.441C23.2028 173.441 25.2308 174.657 26.3801 177.076C28.2708 177.022 29.8641 174.417 30.0681 174.55C32.9801 176.755 36.5455 176.728 39.5028 173.548C41.3055 175.446 43.9988 176.14 46.0255 176.14C54.1095 176.14 56.5428 161.883 58.8095 155.215H65.2428C64.3028 157.794 62.4508 161.763 61.2215 165.504C59.9321 169.419 59.1481 173.361 61.5468 175.071C65.2295 177.69 70.4308 175.299 73.3588 172.693C74.5881 175.071 77.1508 176.221 79.2055 176.14C81.4708 176.1 83.1788 175.512 84.8588 174.176C87.9921 178.506 92.7748 175.205 95.4095 172.746C95.8681 174.564 97.0055 176.127 99.1748 176.14C101.741 176.154 104.455 174.724 106.573 172.693L105.643 176.14H111.948L114.721 165.972C117.776 153.638 121.552 156.912 121.852 157.406C122.551 158.489 121.396 160.56 120.128 165.103C119.247 168.27 116.899 175.673 122.521 176.14C125.741 176.408 129.961 174.417 132.135 171.878C135.341 177.049 139.195 176.902 144.275 173.976C145.381 175.406 146.208 176.421 148.261 176.14C150.621 176.034 152.955 173.708 154.235 172.372C154.955 174.43 156.448 176.181 158.915 176.14C162.341 176.087 165.381 172.88 167.621 170.528C170.635 174.443 173.688 177.022 178.928 176.14C182.595 175.512 184.021 173.936 187.568 176.942C187.568 176.942 187.821 173.936 192.675 170.729C190.008 169.392 187.315 169.74 185.808 170.208C187.501 167.094 185.235 162.751 184.421 159.705C183.701 156.952 183.221 155.001 184.235 152.208C184.688 150.966 181.048 149.389 180.448 149.122C177.341 150.324 164.035 168.524 162.648 169.686C162.008 170.234 160.488 171.116 161.408 167.107C161.408 167.107 168.088 136.746 168.048 136.713L160.995 139.474C160.195 146.182 158.101 165.103 151.688 169.058C151.101 169.419 149.155 170.862 148.581 169.727C148.261 169.112 152.728 150.164 152.768 149.964H147.101L146.661 151.687C145.728 149.964 143.368 149.964 141.861 150.244C131.119 152.262 130.948 168.257 130.588 168.804C127.475 172.653 124.672 171.677 124.755 169.312C124.897 165.237 129.799 154.36 127.633 151.58C125.249 148.52 120.339 150.712 117.88 153.358L118.637 150.084H112.685C111.829 154.226 108.728 166.052 106.164 169.058C104.813 170.635 101.376 171.103 101.525 169.419C101.696 167.468 106.549 150.057 106.549 150.057H100.533C100.533 150.057 97.4428 163.887 94.9268 168.283C92.7735 172.052 90.0121 170.395 90.1721 168.203C90.4695 164.208 97.4788 136.713 97.4788 136.713ZM106.101 137.71C105.182 137.711 104.301 138.078 103.651 138.729C103.001 139.38 102.635 140.263 102.633 141.184C102.633 143.109 104.185 144.659 106.101 144.659C107.021 144.659 107.903 144.293 108.553 143.641C109.203 142.99 109.568 142.106 109.568 141.184C109.568 140.263 109.203 139.379 108.553 138.728C107.903 138.076 107.021 137.71 106.101 137.71ZM167.608 146.048L166.235 152.382C168.488 152.315 170.755 150.351 169.635 148.667L167.608 146.048ZM179.768 154.841C178.168 161.295 183.861 166.466 180.488 170.622C179.141 172.025 175.941 172.225 174.128 170.488C170.448 167.027 170.515 166.533 172.501 163.967C175.355 160.253 177.208 157.139 179.768 154.841ZM85.1668 155.015C85.4841 155.001 85.8095 155.028 86.1401 155.108C87.9841 155.562 85.7361 161.923 84.3201 168.47C83.8815 170.515 79.7495 171.49 78.8068 169.299C77.3281 165.878 80.4095 155.268 85.1668 155.015ZM40.0881 155.228C40.5815 155.255 41.1081 155.375 41.6695 155.589C41.6695 155.589 40.3801 170.782 35.3775 170.782C33.8095 170.782 32.4548 168.671 33.9068 162.885C34.8188 159.224 36.6375 155.055 40.0881 155.228ZM144.061 155.362C144.595 155.402 145.168 155.536 145.795 155.776C145.795 155.776 144.275 170.836 139.141 170.836C137.581 170.836 136.221 168.724 137.675 162.938C138.581 159.277 140.315 155.055 144.061 155.362Z" fill="#B72126"/>
<path d="M68.7958 33.4688C63.9331 36.4579 61.7465 42.0006 61.7465 42.0006C66.0251 41.084 66.6958 39.8546 69.9518 40.1366C71.1131 40.2381 71.6625 40.7686 72.5865 41.4514C71.1718 41.1307 70.0798 41.0599 68.8891 41.0318C67.2345 40.9931 63.9611 42.1583 62.2985 42.324C62.2985 42.324 67.7518 44.6771 69.4278 44.9256C69.4278 44.9256 72.9478 46.3127 73.9651 41.8456C74.5171 39.4217 72.6918 35.9141 70.3451 36.8949C70.3211 36.9055 70.7651 34.3413 68.7958 33.4688ZM166.174 93.6328C166.058 93.6264 165.942 93.6344 165.828 93.6568C164.694 93.8693 164.654 95.1628 164.654 95.1628C164.654 95.1628 164.841 96.3133 163.548 97.2794C162.908 97.7684 160.961 98.6263 157.828 99.249L145.774 102.684L149.441 105.771L161.814 101.773C161.814 101.773 166.388 100.628 166.388 98.4686C166.388 95.1441 168.121 101.471 167.414 102.726C167.414 102.726 168.001 103.288 169.014 102.554C170.014 101.819 169.828 99.7995 168.828 96.956C167.934 94.4639 167.001 93.6782 166.174 93.6328ZM124.149 108.723L111.532 112.178L111.233 112.277C112.653 114.025 113.384 116.837 111.477 118.701C112.634 118.284 114.154 117.729 114.154 117.729C120.186 115.567 126.239 113.467 132.313 111.43L132.389 111.409L132.149 111.041C129.689 110.492 126.864 109.632 124.149 108.723ZM108.474 113.103C107.994 113.222 107.59 113.301 107.353 113.298C106.593 113.495 96.9385 116.004 94.7958 116.563C97.0345 118.527 97.4091 122.544 94.7665 124.839C100.185 122.815 106.334 120.57 109.704 119.345L110.384 119.097C111.158 117.678 111.117 114.855 109.686 113.684C109.366 113.422 108.912 113.237 108.474 113.103ZM91.0425 117.575C90.9567 117.579 90.8709 117.581 90.7851 117.581C89.8171 117.827 89.0291 118.022 89.0291 118.022C85.4505 118.914 82.9531 119.504 81.6105 119.774C74.3105 121.243 63.2318 124.076 45.7305 128.95C47.5891 131.464 48.7238 135.045 46.7558 138.405C46.3263 139.125 45.7409 139.739 45.0427 140.201C44.3446 140.664 43.5516 140.963 42.7225 141.077C41.1705 141.291 39.6505 140.81 38.5718 139.768C37.3345 138.619 35.8011 136.251 38.0398 132.658C37.1438 132.273 36.1465 132.044 35.1265 131.929L18.1705 136.776C18.0851 136.803 17.9998 136.821 17.9158 136.844C15.7411 137.63 14.7598 141.518 15.7331 145.22C16.7345 149.028 19.2945 151.941 21.6158 151.326C23.9318 150.711 24.8318 146.89 23.8291 143.095C23.4451 141.625 23.1305 140.636 22.3865 139.581C22.3865 139.581 23.9758 140.904 24.7251 144.151C25.3651 146.93 25.2651 149.161 24.4878 150.671C54.3065 140.583 74.5998 133.187 84.7985 128.701C85.9958 128.173 88.7105 127.112 92.8651 125.551L93.6025 125.278C94.5531 123.623 94.7398 119.652 92.7718 118.26C92.3118 117.931 91.6185 117.713 91.0425 117.575Z" fill="#FEE60E"/>
</svg>
