<svg width="200" height="200" viewBox="0 0 200 200" fill="none" xmlns="http://www.w3.org/2000/svg">
<path d="M51.2019 19.1456H20.69L20.5465 19.1992C9.68772 23.4859 5.98004 38.428 5.24226 41.9994C5.24226 42.0262 5.22885 42.0664 5.22885 42.0798L0.493642 41.8306L0 45.7959L8.69909 46.2513L9.05189 44.5366C9.6354 41.6859 13.0802 27.2824 22.9758 23.214H51.1992V19.1456H51.2019ZM128.877 62.9322V181.104H141.392H132.951V66.868C134.745 66.8278 138.124 66.7247 138.124 66.7247C138.359 66.7247 149.92 66.2022 157.642 73.5138C162.22 77.8448 164.597 84.1102 164.742 92.1559C164.756 91.7379 164.762 91.3052 164.762 90.8605C164.762 61.034 136.099 62.6562 136.099 62.6562C134.586 62.6562 131.318 62.6562 129.596 62.8277L128.877 62.9322ZM137.287 119.473V127.203L139.165 127.361C142.613 127.625 172.518 130.672 173.107 153.528C173.127 153.083 173.141 152.638 173.141 152.18C173.141 126.591 140.135 123.504 137.293 123.268V119.475H137.285L137.287 119.473ZM98.4386 133.589C98.4386 133.589 80.9492 130.423 78.1268 129.899V23.2019H106.391C115.633 27.0198 119.705 43.6096 120.733 48.6198L121.082 50.3345L129.778 49.8763L124.848 8H121.206L125.673 45.9111L125.208 45.9245L124.317 45.9914L120.91 46.1736C120.199 42.7442 116.124 23.5154 105.173 19.1724L105.034 19.1322H74.2569V129.573C74.2569 129.573 93.3251 133.04 94.5887 133.262V139.33H31.027L31.0136 143.427H98.4386V133.589ZM106.048 65.2605C106.048 65.2605 86.1284 61.9918 84.8675 61.8069V55.6849H84.8541V65.5739C84.8541 65.5739 103.147 68.5706 106.035 69.0408L106.048 65.2605ZM190.916 129.743C184.327 123.291 175.575 120.66 169.15 119.562C178.201 115.101 191.583 105.434 191.583 87.2234C191.583 65.6905 177.06 55.6836 145.883 55.6836H144.18C172.934 55.7479 187.521 64.3174 187.521 85.1952C187.521 111.269 158.506 118.779 158.506 118.779V118.793C158.506 118.793 195.931 117.927 195.931 151.236C195.931 176.576 179.655 188.872 151.765 188.872H84.8675V183.102H84.8406L84.8541 184.83V192.966H153.792C183.585 192.966 200 178.877 200 153.249C200 143.542 196.948 135.601 190.916 129.739" fill="#8FBCE6"/>
<path d="M84.8677 188.888H151.768C179.656 188.888 195.934 176.577 195.934 151.237C195.934 117.929 158.509 118.805 158.509 118.805V118.778C158.509 118.778 187.524 111.271 187.524 85.198C187.524 64.3187 172.937 55.7492 144.182 55.697C144.066 55.6836 143.968 55.6836 143.869 55.6836H84.869V61.807C86.1326 61.9905 106.05 65.2605 106.05 65.2605V179.101H106.037C105.5 179.208 86.1004 182.581 84.869 182.778V188.885L84.8677 188.888ZM164.763 90.8618C164.763 91.3066 164.757 91.7393 164.744 92.1573C163.818 116.556 137.298 119.264 137.298 119.264V123.267C140.135 123.503 173.141 126.589 173.141 152.179C173.141 152.637 173.128 153.082 173.107 153.526C172.571 167.381 163.557 181.104 142.054 181.104H128.877V62.9309L129.599 62.8264C131.321 62.6563 134.589 62.6563 136.102 62.6563C136.102 62.6563 164.765 61.0353 164.765 90.8618" fill="#041E42"/>
<path d="M31.0268 133.262V139.33H94.5858V133.262C93.3249 133.04 74.2633 129.573 74.2633 129.573V19.1322H105.033L105.18 19.1724C116.124 23.5154 120.198 42.759 120.911 46.1736L124.324 45.9901L125.209 45.9231L125.675 45.9097L121.206 8.0134V8L4.53376 8.05358L0.490723 41.8293L5.22593 42.0905C5.22593 42.0637 5.23934 42.0235 5.23934 41.9967C5.97712 38.4266 9.68614 23.4859 20.553 19.1965L20.6898 19.1429H51.2017V129.57C51.2017 129.57 32.4889 133.037 31.0268 133.259" fill="#041E42"/>
</svg>
