<svg width="200" height="200" viewBox="0 0 200 200" fill="none" xmlns="http://www.w3.org/2000/svg">
<path d="M108.046 79.7624C107.449 78.7162 107.002 78.0441 106.926 77.8206C106.032 77.6708 103.197 77.0732 101.183 76.6999V78.4174C101.109 78.4174 105.734 79.3146 108.046 79.7624ZM119.755 127.114H89.3999V129.279H135.27C136.837 128.607 138.477 127.935 140.118 127.113H119.756L119.755 127.114ZM127.437 77.372C129.079 80.509 132.734 87.5296 134.897 91.6375C135.27 91.0399 135.642 90.3678 136.015 89.6957C133.927 85.5878 131.54 80.8078 130.346 78.4927C131.911 78.1102 133.477 77.7366 135.046 77.372V71.3223H132.882V76.2521C132.808 76.2521 129.228 76.9987 127.437 77.372ZM139.372 76.6999V78.4174C139.372 78.4174 140.714 78.6417 142.132 78.9405C142.429 78.3429 142.728 77.8206 143.026 77.372C142.057 77.223 140.565 76.9234 139.372 76.6999Z" fill="#8FBCE6"/>
<path d="M146.83 127.115L148.994 129.655L147.576 131.074C145.04 133.688 120.203 150.866 92.904 147.504C80.896 146.011 70.2304 140.783 61.1304 132.045C70.6776 142.053 81.94 147.953 94.7688 149.521C122.291 152.957 146.681 135.63 149.441 132.867L150.858 131.447L148.994 129.281H152.574V122.186C152.574 122.186 151.678 122.036 150.41 121.887V127.191H146.83V127.115ZM154.662 80.2868C150.933 86.5608 141.46 102.394 141.013 103.216V118.601C141.534 118.676 142.281 118.826 143.176 118.9V104.337C143.549 103.738 149.292 94.0292 153.618 86.8596C153.618 84.4692 153.99 82.3031 154.662 80.2868H154.662ZM178.977 111.058C177.113 109.564 174.726 108.518 172.19 107.398L168.311 105.606C164.731 103.814 161.897 102.021 159.734 100.153C162.121 102.917 165.626 105.381 170.474 107.772L174.353 109.564C176.516 110.535 178.604 111.431 180.32 112.626C179.955 112.038 179.502 111.509 178.977 111.058ZM166.819 117.63C165.402 115.689 164.433 113.074 163.91 109.713L163.612 107.847H161.822C162.568 112.477 164.209 115.763 166.819 117.63ZM187.629 89.6225C187.629 89.7723 187.704 89.8468 187.704 89.9958L188.077 91.7886H196.206L195.461 73.565L194.043 73.0427L193.372 72.8184L194.044 89.6225H187.629ZM176.516 76.6275C173.159 76.6275 169.654 78.196 169.654 81.1832C169.654 83.0497 170.326 84.2449 172.115 85.5146C171.742 84.8425 171.518 84.0959 171.518 83.125C171.518 80.137 175.098 78.5693 178.381 78.5693C182.632 78.5693 185.69 80.3613 187.554 88.9512L187.33 87.7552C185.839 80.2868 182.334 76.6275 176.516 76.6275Z" fill="#8FBCE6"/>
<path d="M194.64 99.4787C196.505 102.317 197.475 105.678 197.475 109.861C197.475 121.287 188.748 128.458 174.577 128.458C168.087 128.458 162.345 127.262 157.049 124.798V125.918L158.243 126.516C163.836 129.28 169.654 130.623 176.292 130.623C190.389 130.623 199.191 123.528 199.191 112.026C199.191 106.723 197.699 102.616 194.64 99.4787ZM116.623 119.345C114.087 112.773 104.092 87.3793 99.7665 76.4006L98.9457 74.4588V74.3843L97.753 71.3962H95.7385C99.3937 80.6575 113.639 117.03 114.311 118.673C114.759 118.748 115.728 119.047 116.623 119.346L116.623 119.345ZM79.4041 114.64H92.6066C92.3082 113.819 92.0841 113.072 91.8601 112.475H77.6145C77.0921 113.819 76.3465 115.985 75.6753 117.778C76.7937 118.972 77.9874 120.242 79.3298 121.511C78.7329 120.914 78.1361 120.242 77.6145 119.644C78.2113 117.852 79.0313 115.686 79.4041 114.64ZM80.6721 103.811H83.5809C83.8049 103.288 83.9546 102.84 83.9546 102.84H83.6562C84.4017 100.749 85.2225 98.6576 86.2665 95.7449C85.8937 94.5497 85.4457 93.28 84.9986 91.9358C83.1338 97.0891 80.6721 103.811 80.6721 103.811ZM69.1858 82.3013L65.7553 82.6746C64.0393 85.5128 61.7273 88.0522 58.8186 89.9187L60.5337 92.3091C64.4873 89.8442 67.3961 86.3339 69.1858 82.3013ZM34.8762 60.7916C35.3242 60.7916 35.6969 60.7163 36.1441 60.7163C39.9482 60.7163 42.9314 61.5382 45.1689 63.2557C42.9314 60.1187 39.2026 58.6255 33.981 58.6255C33.6082 58.6255 33.1609 58.6255 32.7129 58.7V67.0648L34.8762 68.409V60.7908V60.7916ZM37.1138 95.9684L36.6658 95.1473L36.5922 95.072C35.3022 94.6149 34.0091 94.1669 32.7129 93.7278V116.807C33.2353 116.88 33.981 117.03 34.8762 117.179V95.8194C35.3242 95.9684 36.5169 96.3417 37.5617 96.7158L37.2633 96.1927L37.1138 95.9684ZM2.95375 127.188V129.353H45.4674V120.839C45.4674 120.839 44.573 120.69 43.305 120.466V127.113H2.95215V127.188H2.95375ZM67.4705 79.1635L70.1553 79.6121C70.8273 77.446 71.1249 75.1309 71.1249 72.6668C71.1249 65.6461 68.6641 60.9406 64.9345 57.8789C67.3961 60.8661 68.9625 64.974 68.9625 70.5006C69.0369 73.5624 68.4401 76.4743 67.4705 79.1635ZM33.5338 85.214L34.8762 84.6164V70.5006L32.7129 68.26V86.3339H34.8762V84.9152L33.5338 85.214ZM66.4265 105.976C66.4265 105.902 61.653 98.9564 61.653 98.9564C61.653 98.9564 59.5649 95.8939 58.0729 93.7278C58.1474 93.6533 58.4457 93.5788 58.4457 93.5788C58.7441 93.429 59.0425 93.28 59.341 93.0557L56.8793 91.1139C56.6553 91.1884 56.5065 91.3382 56.2825 91.4127C56.2825 91.4127 56.0585 91.5625 55.9097 91.5625C57.4017 93.7278 59.4897 96.7903 59.4897 96.7903L64.2633 103.811C64.3377 103.885 64.6361 104.333 64.6361 104.333L66.8737 107.246L67.0233 106.798C66.9481 106.724 66.8737 106.574 66.7993 106.499C66.8737 106.499 66.5009 105.976 66.4265 105.976ZM11.2321 60.1187C9.51695 59.8199 5.48895 58.9988 2.95375 58.551V61.0151C2.95375 61.0151 7.87615 61.986 11.2321 62.5836V60.1187Z" fill="#8FBCE6"/>
<path d="M197.4 109.786C197.4 105.679 196.431 102.243 194.566 99.4047C193.89 98.3417 193.061 97.3851 192.104 96.5664C188.524 93.2059 184.347 91.4131 180.619 89.7701L178.381 88.7992L178.007 88.6494C175.247 87.3797 173.309 86.4088 172.041 85.5132C170.251 84.318 169.579 83.0483 169.579 81.181C169.579 78.193 173.159 76.6253 176.441 76.6253C182.259 76.6253 185.765 80.2846 187.257 87.7538L187.48 88.9482L187.629 89.5458H194.043L193.447 72.7417L193.372 71.3222L191.955 70.7999C186.063 68.7091 181.363 67.8119 176.739 67.8119C173.159 67.8119 169.952 68.2605 167.118 69.1569H137.209V76.252C137.209 76.252 138.179 76.401 139.372 76.7006C140.565 76.9241 142.057 77.2229 143.027 77.4464C142.803 77.895 142.504 78.4173 142.131 79.0149C140.416 82.0029 137.955 86.3343 135.941 89.7701C135.568 90.4422 135.195 91.1143 134.822 91.7119C132.659 87.604 129.004 80.5834 127.363 77.4464L132.734 76.3265V69.3059H98.8713V76.401L99.6921 76.5508C100.065 76.6253 100.512 76.6998 101.035 76.7751C103.048 77.1484 105.883 77.7452 106.778 77.895C106.927 78.1193 107.299 78.7914 107.896 79.8368C111.402 85.7367 121.322 102.467 121.77 103.288V118.749C120.725 118.973 118.786 119.346 117.146 119.645L116.474 119.42C115.504 119.122 114.61 118.898 114.162 118.748C113.49 117.031 99.2441 80.7332 95.5897 71.472C95.0673 70.1278 94.7689 69.3059 94.7689 69.3059H82.3881L77.6145 81.032L79.6281 81.4053L77.3905 81.6296L67.0977 106.799L66.9481 107.247L64.7105 104.334C64.7105 104.334 64.4121 103.885 64.3377 103.811C64.2633 103.738 59.5641 96.7907 59.5641 96.7907C59.5641 96.7907 57.4761 93.7282 55.9841 91.5629C56.0585 91.5629 56.3569 91.4131 56.3569 91.4131C56.5809 91.3386 56.7305 91.1888 56.9537 91.1143L55.0145 89.6203C54.3433 89.9191 53.6721 90.2179 53.0753 90.4422L52.7025 90.6665C56.4321 96.1186 59.6385 100.973 62.5481 105.156C64.1145 107.246 65.8297 109.487 67.5449 111.728L84.0289 71.472H93.4265L112.67 120.541L117.219 121.885L124.156 120.541V102.616L108.27 75.8787L101.183 74.4592V71.4712H130.645V74.4592L124.157 75.8787L134.822 96.3421L146.532 75.8787L139.447 74.4592V71.4712H167.491C170.176 70.6501 173.234 70.1278 176.739 70.1278C181.587 70.1278 186.212 71.1732 191.21 72.9652L191.806 87.3797H189.494C187.779 78.7161 183.303 74.4592 176.516 74.4592C171.519 74.4592 167.416 77.1484 167.416 81.2555C167.416 86.3343 171.37 88.0526 177.486 90.89C181.513 92.7573 186.585 94.5501 190.687 98.2839C193.82 101.122 195.237 104.931 195.237 109.861C195.237 119.719 188.003 126.217 174.577 126.217C168.163 126.217 162.419 125.022 157.123 122.333L156.751 107.994H159.659C161.076 117.254 165.999 121.96 173.979 121.96C179.648 121.96 183.005 118.973 183.005 114.79C183.005 112.624 182.035 110.682 180.395 109.412C177.336 106.948 173.309 105.679 169.355 103.736C160.331 99.2556 155.855 94.6246 155.855 87.0064C155.855 82.0029 157.646 77.895 161.002 75.0568L154.811 75.9532L138.85 102.691V120.616L148.322 122.11V125.098H89.5481V122.11L96.9321 120.616L93.4265 110.458H76.0481L73.0641 118.449C73.2137 118.599 73.2881 118.748 73.4377 118.898C87.6089 134.432 106.703 146.831 144.295 127.786L146.01 129.802C141.386 134.432 83.9537 172.149 49.2713 113.446L47.7049 110.981L47.4809 112.4L47.2569 110.01C44.2745 105.006 41.7385 99.7035 39.1281 95.1477C39.1281 95.1477 38.9785 94.7744 38.5313 94.027C38.3817 93.7282 38.2329 93.4294 38.0833 93.2059L32.8625 91.4876V88.6494H35.3985C38.3073 88.6494 40.6945 88.2016 42.7081 87.3797C42.7081 87.3797 43.6025 87.0817 44.6473 86.4088C45.1803 86.0298 45.6793 85.6049 46.1385 85.1391L47.7049 98.0604L50.0921 83.7204L54.7905 87.1562L51.7329 82.2264L63.9649 80.9567L51.7329 78.2683L53.5225 73.6381L49.9425 76.0277C50.0177 75.2058 50.0177 74.3847 50.0177 73.7126V72.6672C49.7193 61.9864 44.3489 56.3853 33.9809 56.3853C32.8625 56.3853 31.7433 56.4598 30.5505 56.6096V65.5712L32.7881 66.9908V58.6259C33.2361 58.6259 33.6081 58.5514 34.0561 58.5514C39.2769 58.5514 43.0065 60.1191 45.2441 63.1816C46.8105 65.3477 47.7049 68.2605 47.8545 71.9198L48.8985 73.8616C45.0945 77.3719 44.4985 81.6296 44.4985 84.1682L43.9009 84.2435C41.9617 85.6622 39.1281 86.4088 35.4729 86.4088H32.7129V68.335L30.4753 66.0198V118.675L41.0673 120.541V124.872H3.02733V120.541L13.3953 118.675V58.2518L3.02733 56.3108V52.0531H39.1281C57.9233 52.0531 66.7993 57.3562 66.7993 70.5756C66.7993 73.4883 66.2769 76.252 65.2329 78.8659L67.4705 79.2392C68.5145 76.5508 69.0369 73.6381 69.0369 70.6501C69.0369 65.0489 67.4705 61.0155 65.0089 58.0283C59.1921 50.8587 48.1529 49.8125 39.1281 49.8125H0.790527V58.1036C0.790527 58.1036 1.68573 58.2526 2.95373 58.4761C5.48973 58.9247 9.51693 59.7458 11.2321 60.0446V116.733C8.77133 117.181 0.864927 118.599 0.864927 118.599V127.039H43.3793V118.599C43.3793 118.599 38.3073 117.703 34.9505 117.105C34.0561 116.956 33.3105 116.806 32.7881 116.732V93.6537C33.4593 93.878 35.6969 94.6246 36.6665 94.9979L36.7409 95.0724C36.7409 95.1477 37.1889 95.8943 37.1889 95.8943L37.3377 96.1186L37.6361 96.6409L40.6201 102.168C42.7081 106.201 44.9457 110.309 47.4817 114.267C51.5833 121.213 56.2081 127.113 61.2049 131.968C70.3793 140.781 81.0449 145.934 92.9793 147.428C120.278 150.864 145.04 133.611 147.651 130.997L149.068 129.578L146.905 127.039H150.56V120.018C150.56 120.018 146.234 119.346 143.251 118.898C142.43 118.748 141.61 118.674 141.087 118.599V103.214C141.535 102.392 150.933 86.4841 154.662 80.2846C153.916 82.3017 153.543 84.467 153.543 86.9319V87.0064C153.543 92.384 155.407 96.5664 159.659 100.227C161.897 102.168 164.657 103.96 168.237 105.679L172.115 107.471C174.651 108.591 177.038 109.637 178.903 111.131C179.499 111.579 179.872 112.102 180.245 112.698C180.619 113.371 180.767 114.043 180.767 114.79C180.767 117.853 178.157 119.719 173.906 119.719C171.071 119.719 168.684 119.047 166.819 117.628C164.209 115.761 162.568 112.475 161.823 107.844C161.823 107.769 161.823 107.695 161.748 107.545L161.45 105.679H154.363L154.886 123.603L156.079 124.2L156.975 124.649C162.271 127.113 168.013 128.308 174.503 128.308C188.674 128.383 197.4 121.288 197.4 109.786ZM100.587 133.985C91.5617 131.819 84.6257 126.74 79.2553 121.586C77.9129 120.317 76.7193 119.047 75.6001 117.853C76.2721 116.06 77.0177 113.968 77.5401 112.549H91.7857C92.0097 113.147 92.2337 113.894 92.5313 114.716C92.9793 115.985 93.5009 117.479 93.9489 118.824C91.7857 119.271 87.3105 120.168 87.3105 120.168V127.188H140.118C138.477 127.935 136.836 128.682 135.27 129.354C121.993 134.806 110.582 136.301 100.587 133.985Z" fill="white"/>
<path d="M85.2223 85.2132L78.6583 102.913L77.4647 106.05L92.0087 105.975L85.2223 85.2124V85.2132ZM86.3407 95.7441C87.3847 98.9556 88.2799 101.719 88.9511 103.81H80.6719C80.6719 103.81 83.2079 97.0883 85.0727 91.935C85.5207 93.2792 85.8935 94.5489 86.3407 95.7441ZM65.7551 82.5977L62.9951 82.8965C61.5783 84.9136 59.7879 86.6311 57.5503 88.1251L58.8183 89.9171C61.7271 87.9753 64.0391 85.5112 65.7543 82.5985L65.7551 82.5977Z" fill="white"/>
<path d="M51.4342 86.7076L47.7046 110.831L49.271 113.295C84.0286 171.999 141.385 134.283 146.009 129.652L144.294 127.635C106.628 146.755 87.5342 134.357 73.4374 118.747C73.2878 118.598 73.2134 118.449 73.0646 118.299L76.0478 110.308H93.4262L96.9318 120.466L89.5478 121.959V124.947H148.247V121.959L138.775 120.466V102.541L154.737 75.8026L160.927 74.907C157.571 77.8197 155.781 81.8523 155.781 86.8566C155.781 94.4748 160.181 99.105 169.281 103.586C173.309 105.603 177.261 106.798 180.32 109.263C182.035 110.607 182.93 112.474 182.93 114.639C182.93 118.823 179.573 121.809 173.905 121.809C165.849 121.809 161.001 117.104 159.585 107.843H156.676L157.049 122.183C162.345 124.797 168.087 126.067 174.501 126.067C187.927 126.067 195.162 119.569 195.162 109.71C195.162 104.781 193.745 100.972 190.613 98.1341C186.51 94.325 181.438 92.6067 177.41 90.7402C171.22 87.902 167.341 86.1845 167.341 81.1057C167.341 76.9978 171.444 74.3094 176.441 74.3094C183.229 74.3094 187.778 78.6408 189.419 87.2299H191.731L191.209 72.9644C186.137 71.1724 181.513 70.127 176.739 70.127C173.233 70.127 170.176 70.5748 167.491 71.4712H139.446V74.4592L146.532 75.8771L134.821 96.3413L124.156 75.8779L130.645 74.4584V71.4704H101.184V74.4584L108.27 75.8779L124.157 102.615V120.54L117.221 121.884L112.67 120.54L93.427 71.4712H84.0294L67.4702 111.653C65.755 109.412 64.039 107.246 62.4726 105.08C59.5638 100.898 56.3566 96.0425 52.6278 90.5904L53.0006 90.3661C53.5974 90.1426 54.2686 89.8438 54.9398 89.545L51.4342 86.7076ZM92.0094 105.976L77.4654 106.051L78.6582 102.914L85.2222 85.2136L92.0094 105.976Z" fill="#092C5C"/>
<path d="M62.9951 82.8984L54.4175 83.7203L57.5503 88.0526C59.7135 86.6331 61.5783 84.9155 62.9951 82.8984Z" fill="#092C5C"/>
<path d="M59.4152 63.8534L54.716 77.0727L65.2328 78.8655C66.2768 76.3261 66.7992 73.4879 66.7992 70.5752C66.7992 57.3559 57.9232 52.0527 39.1272 52.0527H3.02881V56.3104L13.3968 58.2523V118.673L3.02881 120.54V124.872H41.068V120.541L30.476 118.674V66.0195L29.432 64.8988L30.476 65.5717V56.6076C31.6696 56.5331 32.8632 56.3833 33.908 56.3833C44.2752 56.3833 49.6448 61.9853 49.9432 72.666V73.7114L59.4152 63.8526V63.8534Z" fill="#092C5C"/>
<path d="M44.7218 86.4082C43.6778 87.1556 42.7826 87.4544 42.7826 87.4544C40.769 88.2755 38.3074 88.7241 35.473 88.7241H32.937V91.5623L38.1578 93.2798C38.3074 93.5041 38.4562 93.8021 38.6058 94.1009C39.0538 94.7738 39.2026 95.2216 39.2026 95.2216C41.7386 99.7028 44.2746 105.005 47.2578 110.009L44.7218 86.4082Z" fill="#092C5C"/>
<path d="M67.4705 79.1645L65.2329 78.7912L54.7161 77.0729L59.4161 63.8535L50.0921 73.6378C50.0921 74.3099 50.0921 75.1311 50.0177 75.953L53.5977 73.5625L51.7329 78.2681L63.9649 80.9565L51.7329 82.2262L54.7905 87.0807L50.0921 83.6457L47.7049 97.9849L46.1385 85.0644C45.6913 85.5875 45.1689 86.0353 44.6473 86.3341L47.2577 110.01L47.4817 112.176L47.7057 110.756L51.4345 86.6329L55.0145 89.4711L56.9537 90.9651L59.4153 92.9069L63.3681 96.0431L60.6081 92.1595L58.8929 89.7699L57.6249 87.9771L54.4177 83.7202L62.9209 82.8983L65.6809 82.6003L69.1113 82.2262L77.3905 81.4051L79.6281 81.1808L77.6145 80.8075L70.0065 79.5378L67.4705 79.1645ZM29.4321 64.8989L30.4761 66.0196L32.7137 68.3347L34.8769 70.5753L44.4985 80.5087L34.8769 84.6166L33.5345 85.2142L34.8769 85.0644L43.9017 84.3178L44.4985 84.2433C44.4985 81.7039 45.0953 77.5215 48.8993 73.9366L47.8553 71.994L45.0209 66.8407L46.9601 76.102L34.8769 68.4092L32.7137 67.065L30.4761 65.6463L29.4321 64.8989Z" fill="#F5D130"/>
</svg>
