<svg width="200" height="200" viewBox="0 0 200 200" fill="none" xmlns="http://www.w3.org/2000/svg">
<g clip-path="url(#clip0_18_1271)">
<path d="M100.003 0C44.862 0 0 44.862 0 100.002C0 155.143 44.862 200 100.003 200C155.14 200 200 155.143 200 100.002C200 44.862 155.14 0 100.003 0ZM100.003 196.612C46.644 196.612 3.391 153.356 3.391 100.002C3.391 46.649 46.644 3.39 100.003 3.39C153.359 3.39 196.61 46.649 196.61 100.002C196.609 153.356 153.358 196.612 100.003 196.612Z" fill="white"/>
<path d="M75.2378 158.124C76.4308 158.638 77.6368 159.094 78.8538 159.532C78.136 159.129 77.491 158.609 76.9458 157.992C76.3458 158.119 75.8058 158.158 75.2378 158.124Z" fill="white"/>
<path d="M192.164 98.2759H163.403C163.275 93.8849 162.645 89.5149 161.614 85.2219C161.127 84.4919 160.656 83.9939 160.186 83.6559L160.614 82.6889L161.085 83.2169C160.901 82.5449 160.759 81.8629 160.552 81.1959C159.905 79.8329 159.124 78.8899 158.314 78.0129L158.566 77.1519C158.942 77.5239 159.204 77.8089 159.424 78.0689C156.373 69.8209 151.611 62.0649 144.981 55.4369C131.05 41.5019 112.228 35.4429 94.0361 37.2399C94.1061 37.2339 94.1761 37.2229 94.2461 37.2169C94.8901 37.6659 95.7901 38.3949 95.7901 38.3949L95.0541 38.5049C94.8471 38.1569 93.4141 37.5849 92.9281 37.4009C92.1591 37.4909 91.3931 37.6149 90.6261 37.7329C91.4264 38.1782 92.1849 38.695 92.8921 39.2769L91.8971 39.3669C90.8671 38.8619 89.9111 38.2579 88.8861 37.9849C87.6731 38.2059 86.4771 38.5059 85.2771 38.7979C85.5321 38.8689 85.7451 38.9999 86.0891 39.1619C86.8841 39.1799 89.0691 40.2549 89.0691 40.2549L87.3871 40.7909C86.6741 40.4269 85.8941 39.8619 84.7711 40.0599C84.4061 39.6479 83.4471 39.4479 82.9491 39.3669C81.9311 39.6549 80.9321 40.0129 79.9261 40.3549C80.3031 40.4349 80.7321 40.5429 81.1421 40.8679C82.3651 40.8919 84.5531 41.8429 84.7411 42.1529L83.0481 42.7499C82.2051 42.2139 81.0481 41.6339 79.8731 41.8339C79.3361 41.3709 78.2921 41.1099 77.9771 41.0359C76.9471 41.4239 75.9301 41.8439 74.9171 42.2879C75.4951 42.3079 76.3031 42.0649 76.7041 42.6649C77.7251 42.6129 79.5021 43.3029 80.4731 44.1779L78.6681 44.6399C77.8481 44.1219 76.4881 43.3549 75.2271 43.4759C75.0221 43.0039 73.3901 43.2199 72.7711 43.2849C66.5711 46.2849 60.7391 50.2919 55.5941 55.4359C43.6821 67.3429 37.5771 82.8229 37.1571 98.4259L7.82713 98.3949C7.81813 98.9319 7.78613 99.4639 7.78613 100.004C7.78613 99.9939 7.79313 99.9959 7.79413 99.9859C7.79113 100.143 7.78613 100.289 7.78613 100.455C7.78613 100.872 7.81113 101.28 7.81813 101.696H37.1501C37.3721 110.734 39.5671 119.71 43.6281 128.002C45.4071 129.751 47.8111 130.781 49.0181 131.162L49.4511 133.188C48.0341 132.516 46.7561 132.221 44.8841 130.519C45.7768 132.16 46.7431 133.76 47.7801 135.314C49.0741 136.368 50.6831 137.427 50.6831 137.427L51.2471 138.379C50.6621 138.171 49.9411 137.773 49.3161 137.399C51.2081 139.983 53.2531 142.49 55.5891 144.826C60.5251 149.76 66.0891 153.664 72.0051 156.625L72.1491 156.142C73.7241 156.606 74.9651 157.658 77.2471 157.076C78.2731 158.053 80.0191 159.226 81.4071 159.569L80.9351 160.263C102.769 167.267 127.647 162.156 144.978 144.822C156.96 132.842 163.072 117.247 163.422 101.547H192.183C192.189 101.131 192.215 100.722 192.215 100.306C192.215 100.203 192.208 100.102 192.207 99.9989C192.2 99.4229 192.176 98.8509 192.164 98.2759ZM157.519 79.6299C159.171 81.2989 159.56 81.7019 160.299 83.2109L159.863 84.1109C159.137 82.3589 158.363 81.5409 157.211 80.5509L157.519 79.6299ZM152.245 88.2129C153.669 89.2009 154.907 91.0979 155.641 92.5959L154.944 93.6399C154.205 91.8769 152.441 89.9569 151.277 89.2439L152.245 88.2129ZM138.427 101.291C139.416 101.967 140.557 103.082 142.261 105.576L143.572 104.731C143.91 107.238 143.985 109.982 143.7 112.344L142.289 113.439C142.643 111.963 142.385 108.898 142.221 105.67L141.053 106.635C139.098 103.724 137.719 102.349 137.206 102.2L138.427 101.291ZM138.56 116.361L136.736 117.528C136.608 115.017 137.329 110.16 137.329 110.16C135.739 110.752 132.341 106.828 131.589 106.261L133.256 105.245C135.508 107.718 136.727 108.41 137.442 108.91C137.893 109.225 138.984 108.1 138.914 108.169C138.586 109.47 138.499 115.04 138.56 116.361ZM131.279 114.563C130.4 114.535 126.101 111.118 124.788 109.765L127.055 108.528C127.055 108.528 129.805 111.788 130.631 112.496C131.464 113.204 132.395 113.428 133.129 113.17L133.2 113.295C133.082 115.273 133.028 118.953 134.213 120.187L132.158 121.046C131.057 118.837 131.417 117.344 131.403 114.469L131.279 114.563ZM131.289 62.8299L135.849 67.0929V94.2509H127.622L122.587 89.4829H131.29L131.289 62.8299ZM129.591 64.4209V87.7849H124.175L124.183 86.7829C124.183 77.9839 117.786 72.9419 106.63 72.9419L105.866 72.9409L104.97 72.9349V91.7909C104.97 94.7739 107.717 96.7589 109.589 97.8049C107.693 98.6899 104.97 100.451 104.97 103.655V124.078C104.97 126.737 106.665 128.086 110.014 128.086H113.541V137.183H83.4571V128.086H87.1861C90.2201 128.086 92.0281 126.518 92.0281 123.89V103.655C92.0281 100.418 89.6951 98.7099 87.9961 97.8369C89.6811 96.8739 92.0281 95.0289 92.0281 91.7909V72.8999H90.1941C78.6841 72.8999 73.5551 77.3419 73.5551 87.3029L73.6981 86.8299C73.6981 86.8299 73.6571 87.3079 73.6131 87.7849H66.3571V64.4209H129.591ZM114.026 97.9289L111.897 97.0939C111.843 97.0729 106.668 95.0109 106.668 91.7909V74.6499C112.482 74.6669 116.743 76.1109 119.387 78.7529C117.757 77.5199 115.46 76.6769 112.277 76.4049L111.459 76.3539V93.7039C111.459 95.4829 112.699 96.8989 114.026 97.9289ZM70.7321 44.8549C71.3141 44.9269 71.2421 45.0909 71.7481 45.2679C72.7581 45.2189 74.6921 45.5859 75.9281 46.2559L74.3511 47.4529C73.5511 46.9539 72.1681 46.5179 70.9171 46.6239C70.6741 46.0859 68.8401 46.0499 68.5651 46.0339L70.7321 44.8549ZM65.2821 48.2379C65.2821 48.2379 66.0001 48.7279 66.3101 49.2049C67.5901 48.8699 70.1161 48.7479 72.4981 49.1659L70.9141 50.5709C68.8051 50.0969 66.6461 50.6819 65.1741 50.9569C64.7351 50.3409 64.4921 49.7329 63.7731 49.5079L65.2821 48.2379ZM60.7861 52.9079C60.7861 52.9079 61.4291 53.3419 61.8681 54.0859C63.1471 53.4649 64.8351 52.9419 68.9441 53.2369L67.5461 55.0379C64.8351 54.6699 62.1551 55.0999 60.9371 55.7039C60.4881 55.0989 60.2571 54.2829 59.5371 54.0599L60.7861 52.9079ZM50.8331 67.2909C50.8331 67.2909 52.0581 68.4599 52.6021 69.8219C52.9001 68.8299 55.1951 68.1139 58.5171 68.1139L57.3881 70.1889C54.6561 69.8239 52.8231 70.9559 51.6021 71.5589C51.1601 70.9609 51.0121 69.7509 50.0971 69.2529L50.8331 67.2909ZM45.6491 79.1189C45.6491 79.1189 47.1721 80.9759 47.6101 81.7199C47.9281 80.7219 49.6721 80.3299 53.6601 80.0909L52.9801 82.1169C50.2671 81.7549 48.2301 82.8689 47.0201 83.4919C46.5691 82.8689 46.1581 81.6629 45.2401 81.1559L45.6491 79.1189ZM40.5071 112.019C40.5071 112.019 43.1251 112.981 43.5691 113.74C44.5261 113.173 45.8671 112.966 48.4751 114.136L48.5351 116.123C46.3841 114.972 44.6521 114.912 43.4371 115.536C42.9861 114.923 41.6931 114.269 40.6311 114.018L40.5071 112.019ZM40.5121 105.405C40.5121 105.405 43.2611 107.757 43.6691 108.516C43.8201 107.903 43.7541 107.472 48.5291 107.705L48.5081 109.636C44.4581 108.782 43.8251 109.272 43.2601 110.218C42.8471 109.582 41.4471 108.171 40.5521 107.635L40.5121 105.405ZM40.9681 117.354C40.9681 117.354 43.2561 118.39 43.6861 119.134C43.9941 118.152 46.1481 119.229 48.3491 120.642L48.4001 122.642C47.3951 122.09 46.7431 121.627 45.8661 121.221C44.8811 120.785 44.1191 120.439 43.8861 121.065C43.4421 120.444 42.6661 119.882 41.4801 119.574L40.9681 117.354ZM44.4161 126.099C43.9651 125.427 43.2251 124.881 42.2661 124.488L41.9871 122.474C41.9871 122.474 43.7951 123.467 44.2391 124.277C45.0491 124.277 46.1581 124.17 48.4371 126.075L48.6011 127.967C46.3701 126.371 45.4561 125.971 44.4161 126.099ZM48.9581 102.406C45.9541 102.28 44.5561 103.109 44.0721 103.693C43.8001 104.027 43.6691 104.396 43.5691 104.509C43.1231 103.901 41.6461 101.426 40.8451 101.07L40.9841 99.0409C40.9841 99.0409 43.2721 101.322 43.8051 102.737C43.8801 102.478 43.9871 102.016 44.2621 101.775C44.5541 101.434 45.6671 100.587 49.1291 100.546L48.9581 102.406ZM49.7401 95.4719C47.0111 95.2459 45.0161 96.2299 44.4881 97.2789C44.0211 96.7049 43.3601 95.3839 41.7561 94.0039L42.0741 91.8989C42.0741 91.8989 44.4831 94.3969 44.9601 95.1379C45.3861 94.2089 46.8421 93.6759 50.0791 93.4909L49.7401 95.4719ZM51.2531 88.4109C48.5551 88.0259 46.6421 89.7269 45.4201 90.3499C44.9791 89.7219 44.3041 88.1679 43.4041 87.3289L43.8301 85.1569C43.8301 85.1569 45.7071 87.7579 46.1411 88.5059C47.1021 87.3289 47.7311 86.8899 51.6781 86.5949L51.2531 88.4109ZM54.7411 76.4779C52.0201 76.1039 50.5221 77.1139 49.2991 77.7369C48.8581 77.1139 48.4371 75.9039 47.5321 75.3959L48.1371 73.3589C48.1371 73.3589 49.4811 74.8779 50.0971 76.0959C50.4071 75.1159 51.4791 74.7699 55.6111 74.5159L54.7411 76.4779ZM59.8341 64.9929C57.1311 64.6009 55.5561 65.7959 54.3361 66.4269C53.8851 65.8109 53.4761 64.6009 52.8231 64.1059L53.5611 62.3369C53.5611 62.3369 54.7051 63.5709 55.1361 64.6009C55.4441 63.6039 57.6671 62.9009 61.1171 62.9009L59.8341 64.9929ZM57.2031 60.9429C56.7671 60.3279 56.8541 59.7399 55.9461 59.2429L56.9341 57.6859C56.9341 57.6859 57.7081 58.4429 58.1341 59.1889C58.4451 58.2039 60.7871 57.8299 65.0411 57.7349L63.6511 59.5359C60.9291 59.1579 58.4291 60.3279 57.2031 60.9429ZM69.5241 93.9659L64.7431 89.4819H75.2311L75.2431 87.4039C75.2531 78.2779 79.5821 74.5969 90.1951 74.5969H90.3321V76.0659C80.4201 77.0539 79.5061 82.9459 79.5061 92.2899L79.4961 93.9649L69.5241 93.9659ZM81.7601 137.642V138.636C81.5351 138.536 81.3111 138.434 81.1111 138.339L81.7601 137.642ZM81.9881 157.702C80.0241 156.971 79.2751 156.26 78.3871 154.999C76.7741 155.345 74.6431 155.519 72.4321 154.376L72.8681 153.037C74.4381 153.504 76.5511 154.524 78.8321 153.945C79.7811 155.358 80.6011 156.43 82.6911 156.684L81.9881 157.702ZM83.4091 155.108C81.4361 154.372 80.5411 153.082 79.7181 151.726C78.0971 152.064 75.8781 151.895 73.4881 151.076L74.1461 149.566C75.7281 150.03 78.1471 150.869 80.4431 150.289C80.9761 152.282 82.4991 153.151 84.1331 153.821L83.4091 155.108ZM85.4611 151.146C83.1631 149.799 82.9341 148.824 82.0411 147.189L81.9171 147.415C79.4631 147.69 77.5411 147.582 75.3361 146.897L76.1471 145.464C77.7241 145.925 80.4971 146.433 82.7791 145.846L83.0221 145.464C83.3691 146.946 85.1301 149.278 86.5771 149.862L85.4611 151.146ZM87.8411 148.345C85.8821 147.604 85.1031 145.75 84.2961 143.961L84.1791 144.129C82.2401 144.129 80.0861 144.041 77.8751 142.883L78.7781 141.526C80.3491 141.986 82.9531 143.13 85.1501 142.711L85.2771 142.529C85.6261 144.013 87.5141 146.476 88.9551 147.053L87.8411 148.345ZM90.5851 144.947C90.1051 144.812 89.7171 144.388 89.3801 143.839H87.1061L81.8631 138.881H115.241V126.497L116.465 127.637C115.872 125.896 116.082 124.425 116.064 121.938L115.561 122.23C114.413 122.102 112.898 121.064 111.458 119.798V125.98C111.464 126.121 111.458 126.256 111.452 126.387H110.013C107.236 126.387 106.667 125.462 106.667 124.076V103.653C106.667 100.19 111.763 98.7149 111.817 98.7009L114.163 98.0389C115.115 98.7435 116.148 99.3323 117.239 99.7929C117.239 99.7929 111.458 101.394 111.458 105.569V117.146L111.594 117.089C112.703 118.593 115.097 120.799 117.312 121.164L117.862 120.838C117.739 122.823 117.693 126.49 118.878 127.732L117.287 128.399L119.282 130.256V143.836H91.6721L90.5851 144.947ZM123.654 118.213L123.15 118.508C121.47 118.313 118.987 116.177 117.115 114.223L119.182 113.364C120.293 114.876 122.685 117.082 124.905 117.439L125.449 117.119C125.331 119.095 125.28 122.774 126.47 124.01L124.405 124.868C123.3 122.637 123.676 121.148 123.654 118.213ZM147.603 109.303L146.151 110.459C146.473 108.99 146.49 105.837 146.257 103.031L145.472 103.863C144.746 102.105 142.325 99.8569 141.146 99.1569L142.326 98.1109C143.637 99.0169 145.364 100.985 146.209 102.455L147.233 101.706C147.683 103.848 147.836 106.774 147.603 109.303ZM148.804 100.573C148.08 98.8109 145.657 96.5639 144.484 95.8669L145.659 94.8209C147.085 95.8029 149.034 98.0549 149.772 99.5449L148.804 100.573ZM151.589 106.1L150.207 107.39C150.492 101.706 150.21 100.56 149.845 99.6189L150.94 98.5289C151.399 100.673 151.63 101.837 151.589 106.1ZM148.095 92.3429L149.209 91.4449C150.688 92.4449 152.568 94.3449 153.307 95.8459L152.455 97.0209C151.728 95.2539 148.906 92.8839 148.095 92.3429ZM155.262 102.23L153.985 103.912C154.339 101.791 153.939 98.1289 153.297 95.9779L154.282 94.6919C154.725 96.8339 155.477 99.8289 155.262 102.23ZM157.575 99.3949C157.415 96.7159 156.882 94.7099 155.492 92.9269L155.99 92.0749C156.682 91.4369 158.527 95.0879 158.557 97.8869L157.575 99.3949ZM159.847 95.5079C159.095 91.1529 157.943 90.3129 157.304 89.7589L156.924 90.3809C156.185 88.6209 154.972 86.8779 153.808 86.1569L154.578 85.1289C155.996 86.1139 156.896 87.7269 157.638 89.2169L157.434 89.5489L157.704 89.2169C157.863 88.2939 159.792 89.8529 160.428 93.9919L159.847 95.5079ZM161.442 91.7959C160.847 88.6209 159.862 87.4669 158.992 86.7459L159.034 86.6279L158.671 87.3999C157.948 85.3759 157.263 84.6119 155.714 83.2299L156.286 82.3169C157.939 83.8279 158.418 84.8389 159.151 86.3079L159.282 85.9489C159.587 85.1609 161.718 87.7029 161.893 89.9929L161.442 91.7959Z" fill="white"/>
<path d="M134.449 26.8789C133.574 27.6989 130.794 30.2949 130.291 30.7669L133.81 32.4289C133.884 31.7769 134.31 28.0689 134.449 26.8789Z" fill="#C0111F"/>
<path d="M37.1572 98.4252C37.5772 82.8222 43.6822 67.3422 55.5902 55.4342C60.7352 50.2902 66.5672 46.2832 72.7672 43.2832C72.6712 43.2932 72.5972 43.3002 72.5582 43.3002L74.7892 42.2872C74.8262 42.2932 74.8732 42.2852 74.9132 42.2872C75.922 41.8429 76.9423 41.4255 77.9732 41.0352C77.9454 41.0274 77.9174 41.0207 77.8892 41.0152C78.5332 40.7732 79.1772 40.5452 79.8252 40.3272C79.8562 40.3332 79.8922 40.3462 79.9232 40.3532C80.9292 40.0112 81.9282 39.6542 82.9462 39.3652L82.9062 39.3582C83.6522 39.144 84.402 38.9433 85.1552 38.7562C85.1992 38.7632 85.2332 38.7862 85.2742 38.7972C86.4742 38.5052 87.6712 38.2042 88.8832 37.9842C88.8732 37.9802 88.8632 37.9742 88.8532 37.9722C89.4092 37.8722 89.9632 37.7622 90.5252 37.6742C90.5612 37.6932 90.5882 37.7122 90.6242 37.7332C91.3902 37.6152 92.1562 37.4912 92.9262 37.4012L92.8522 37.3722C93.2442 37.3262 93.6402 37.2812 94.0342 37.2412C112.226 35.4442 131.048 41.5032 144.979 55.4382C151.609 62.0662 156.372 69.8222 159.422 78.0702C159.484 78.1432 159.562 78.2262 159.615 78.2942C159.995 79.3362 160.353 80.3852 160.68 81.4512C160.639 81.3592 160.593 81.2862 160.55 81.1972C160.758 81.8642 160.899 82.5462 161.083 83.2182L161.228 83.3802C161.41 84.0472 161.584 84.7212 161.741 85.3932C161.697 85.3242 161.656 85.2882 161.613 85.2232C162.644 89.5162 163.274 93.8872 163.402 98.2772H192.163C192.175 98.8522 192.198 99.4242 192.207 99.9992C192.207 100.002 192.215 100.002 192.215 100.004C192.215 49.1542 150.849 7.78516 100.001 7.78516C49.6912 7.78516 8.69217 48.2872 7.82617 98.3941V98.3952L37.1572 98.4252ZM174.081 69.2442L176.343 76.2052H183.668L177.738 80.5112L180.003 87.4722L174.081 83.1682L168.157 87.4722L170.419 80.5112L164.495 76.2052H171.819L174.081 69.2442ZM151.332 47.4232L151.481 47.2442L153.107 47.9542L152.881 48.2652C152.209 49.1932 151.609 50.7452 152.579 52.8402C153.446 54.4302 154.528 54.9922 155.282 55.1822C156.082 55.3842 156.903 55.2662 157.541 54.8532C158.041 54.5372 158.423 53.6702 158.452 52.8162C158.452 52.8162 158.351 50.9242 158.351 50.5442C158.351 50.5032 158.351 50.4802 158.354 50.4802C157.988 49.8082 157.62 49.1369 157.251 48.4662L157.425 48.3022C157.425 48.3022 158.318 47.4462 158.369 47.4792C158.374 47.4382 158.405 47.1102 158.405 47.1432L158.446 46.4912C158.533 45.5602 158.826 44.6882 159.269 44.0392C159.631 43.5112 160.228 43.1852 160.659 43.0052C163.439 41.8112 166.299 43.9342 167.581 46.5422C168.13 47.6732 168.974 49.8122 168.45 51.4532L168.347 51.7662L166.8 51.1632L166.875 50.8942C167.185 49.7822 167.052 48.8302 166.383 47.3852C165.595 45.6802 163.767 45.6342 162.964 45.9902C162.3 46.2772 161.944 47.1712 161.944 48.5032L161.947 48.8552C161.947 48.9112 161.944 48.9602 161.937 48.9652C161.963 49.0122 162.979 50.7422 162.979 50.7422C162.979 50.7422 162.081 51.6552 161.925 51.8192C161.94 52.0222 161.992 52.6172 161.992 52.6452L161.964 54.1472C161.961 54.4572 161.833 55.4402 161.351 56.2602C161.108 56.6902 160.556 57.3122 159.92 57.6452C158.602 58.3582 157.194 58.5122 155.852 58.0912C154.118 57.5502 152.589 56.0572 151.432 53.7752C150.117 51.1782 150.404 48.5652 151.332 47.4232ZM122.71 34.1102C122.71 34.1102 124.203 33.1792 124.161 33.2102C124.161 33.2102 128.198 29.5812 128.393 29.4032C128.39 29.1652 128.381 27.3412 128.381 27.3412L128.642 27.3002C128.642 27.3002 130.671 26.9872 130.679 27.0302C130.697 27.0172 136.062 22.0572 136.062 22.0572L136.216 21.9172L138.411 22.9682L138.398 23.1732C138.398 23.1732 138.072 30.2672 138.001 30.2722C138.517 30.9242 139.032 31.5772 139.545 32.2312L139.332 32.4242C139.332 32.4242 137.819 33.7802 137.77 33.7402C137.757 33.8202 137.021 39.1722 137.003 39.1722L137.442 41.5032L131.861 38.8872C131.861 38.8872 133.164 37.7792 133.324 37.6462C133.346 37.4352 133.585 35.2972 133.626 34.9382C133.27 34.7682 128.84 32.6782 128.489 32.5142L126.527 34.4762C126.517 34.6862 126.471 36.3972 126.471 36.3972L122.234 34.4092L122.71 34.1102ZM91.5372 31.1092C91.5372 31.1092 93.0452 29.6832 93.0532 29.6832C93.0532 29.6802 97.0022 24.4642 97.3052 24.0612L96.1612 22.9562C96.1612 22.9562 96.7612 21.9842 96.9082 21.7382C96.3842 20.9462 93.3352 16.3042 93.3352 16.2992L91.5862 14.2992L97.0742 14.2832L97.1052 14.5582C97.1052 14.5582 97.2232 15.6172 97.2232 15.8152C97.2232 15.8352 97.2232 15.8462 97.2172 15.8462C97.2282 15.8612 99.6622 19.5932 100.069 20.2162L103.285 15.9482C103.178 15.6922 102.757 14.7122 102.757 14.7122L102.575 14.2842L107.866 14.3002L106.163 16.2672L102.197 21.5832L103.187 22.6932L102.441 23.8752C102.99 24.6912 106.265 29.5482 106.265 29.5582L108.409 31.6612L102.528 31.6692L102.497 31.3942C102.497 31.3942 102.376 30.3402 102.376 30.1452C102.376 30.1272 102.376 30.1172 102.379 30.1152L99.3092 25.5422C98.8682 26.1112 96.0162 29.7992 95.8572 30.0012C95.9082 30.2292 96.2212 31.5912 96.2212 31.5912L90.9642 31.6502L91.5372 31.1092ZM66.9362 20.5152L67.2082 20.3692L68.9442 23.7292L68.4522 23.7392C68.4522 23.7392 66.1292 23.7852 66.1262 23.7562C66.1162 23.7602 62.2942 25.7422 61.8122 25.9932C62.0502 26.4442 63.6812 29.5912 63.9152 30.0402C64.5642 29.7042 66.7902 28.5452 66.7952 28.5572C66.8012 28.5552 68.2122 27.0492 68.2122 27.0492L69.7862 30.2102L69.3612 30.2682C69.3612 30.2682 67.8432 30.4682 67.8432 30.4502C67.8332 30.4522 65.3812 31.7372 64.9302 31.9732C65.1662 32.4372 67.2692 36.5482 67.5152 37.0262C68.2272 36.6492 71.6212 34.8542 71.6382 34.8772C71.6382 34.8712 73.4082 32.4972 73.4082 32.4972L75.0192 35.7292L64.3712 41.3202L64.3762 40.8072C64.3762 40.8072 64.3872 39.2992 64.4182 39.2952L62.0432 34.4872C61.8152 34.4202 59.8712 33.8592 59.8712 33.8592C59.8712 33.8592 60.5712 32.0352 60.6582 31.8122C60.3452 31.2042 58.3242 27.2962 58.3242 27.2132L56.4312 26.0362L66.9362 20.5152ZM39.2352 39.8812L39.4222 39.6502L42.3632 41.9512L41.8972 42.1592C41.8972 42.1592 39.7322 43.1282 39.7172 43.1032C39.7122 43.1132 38.3522 44.7572 38.0442 45.1342C38.4392 45.4682 41.2452 47.8292 41.4252 47.9792C41.6452 47.9582 43.4612 47.7682 43.4612 47.7682L43.5122 48.0492C43.5122 48.0492 43.7822 49.5532 43.7822 49.8232C43.7822 49.8462 43.7792 49.8592 43.7742 49.8592C43.8402 49.9152 47.8772 53.3212 47.8772 53.3752C47.8852 53.3782 50.0802 53.7162 50.0802 53.7162L46.2672 58.2792L46.0622 57.8382C46.0622 57.8382 45.3852 56.3762 45.3852 56.3142L41.2762 52.8572C41.0632 52.8682 39.2042 52.9522 39.2042 52.9522C39.2042 52.9522 38.9942 51.1032 38.9652 50.8852L35.5752 48.0942C35.1362 48.6202 33.8382 50.1622 33.8202 50.1492L33.1332 52.8782L30.2982 50.5442L39.2352 39.8812ZM23.0512 76.2042L25.3112 69.2432L27.5762 76.2042H34.8952L28.9762 80.5052L31.2382 87.4712L25.3112 83.1672L19.3942 87.4712L21.6542 80.5052L15.7322 76.2042H23.0512Z" fill="#C0111F"/>
<path d="M41.6972 152.73C42.0102 152.184 43.5692 149.478 44.1392 148.486C43.0572 148.873 40.0722 149.937 39.4412 150.16L41.6972 152.73ZM33.2082 123.159C33.3002 122.92 33.3462 122.661 33.3462 122.384C33.3462 122.043 33.2772 121.674 33.1342 121.282C33.1342 121.282 32.8232 120.415 32.6852 120.041C32.2022 120.205 28.3042 121.516 27.8042 121.685C27.9782 122.157 28.3382 123.122 28.3382 123.122C28.5462 123.681 28.9202 124.119 29.4232 124.389H29.4262C30.0852 124.748 30.9312 124.796 31.7322 124.512C32.4642 124.234 32.9772 123.77 33.2082 123.159ZM155.082 146.293C154.518 146.37 153.979 146.701 153.492 147.278C153.492 147.278 152.887 147.978 152.635 148.275L156.454 151.743C156.78 151.353 157.436 150.571 157.436 150.568C157.813 150.126 158.009 149.604 158.009 149.047V148.998C157.996 148.246 157.621 147.482 156.972 146.923C156.38 146.413 155.728 146.195 155.082 146.293Z" fill="#003278"/>
<path d="M100.003 3.39062C46.6441 3.39062 3.39111 46.6496 3.39111 100.003C3.39111 153.357 46.6441 196.613 100.003 196.613C153.359 196.613 196.61 153.357 196.61 100.003C196.609 46.6496 153.358 3.39062 100.003 3.39062ZM23.3131 132.183C23.2741 132.24 21.8711 134.383 21.8711 134.383L20.2861 129.869C20.2861 129.869 25.7181 123.876 25.9491 123.618C25.8721 123.39 25.6231 122.695 25.5821 122.574C24.4821 122.982 20.5121 124.459 20.4911 124.441L18.9271 126.082L16.9311 120.514L17.3931 120.542C17.3931 120.542 18.9981 120.632 19.0041 120.65C19.0141 120.648 23.7281 118.927 23.9491 118.844L24.9261 116.682L25.2051 116.797C25.2051 116.797 26.9801 117.541 26.9801 117.616C27.0101 117.603 29.9551 116.544 29.9551 116.544C29.9551 116.544 31.4241 116.013 31.4481 116.026L32.6791 114.842L33.0201 114.513L35.2361 120.548C36.0231 122.692 36.1361 124.901 35.5361 126.457C35.1001 127.587 34.3411 128.36 33.2401 128.767C31.5881 129.362 29.6371 128.626 28.2391 127.018C27.9091 127.369 23.4061 132.085 23.3131 132.183ZM49.6631 146.396C49.6631 146.396 46.6831 152.533 46.6311 152.523C46.6341 152.53 46.9851 154.9 46.9851 154.9L46.7541 154.987C46.7541 154.987 45.0361 155.661 45.0151 155.607C44.9991 155.628 43.2321 158.567 43.2321 158.567C43.2321 158.567 42.1111 160.439 42.1061 160.39L41.5421 162.942L37.1921 157.969L39.1561 157.374C39.2461 157.21 40.2411 155.469 40.4081 155.176C40.1691 154.902 37.1051 151.421 36.8581 151.142L34.4521 152.099C34.3661 152.291 33.5861 153.943 33.5861 153.943L30.2471 150.109L31.0261 149.978C32.0111 149.829 32.4631 149.765 32.7091 149.755C32.6956 149.748 32.6819 149.742 32.6681 149.737C32.6681 149.737 37.8901 147.983 38.1331 147.9C38.2311 147.698 39.0081 146.051 39.0081 146.051L39.2541 146.11C39.2541 146.11 41.2061 146.59 41.2091 146.633L47.7591 144.346L48.0421 144.248L49.7501 146.213L49.6631 146.396ZM78.4751 166.081C78.4751 166.081 77.2001 167.086 77.1701 167.078C77.1621 167.09 76.3541 168.752 76.3541 168.752C76.3541 168.752 75.1231 171.276 75.0541 171.276L75.5591 173.34L75.3311 173.448C75.3311 173.448 73.6871 174.207 73.6541 174.154C73.6411 174.184 70.4021 180.812 70.4021 180.812L68.4021 179.801L65.9921 165.859C64.8911 168.072 61.8471 174.192 61.8061 174.192C61.8111 174.198 62.1031 176.652 62.1031 176.652L57.2401 174.238L57.6451 173.94C57.6451 173.94 58.9811 172.961 59.0021 172.986C59.0121 172.97 59.8761 171.224 59.8761 171.224C59.8761 171.224 61.3631 168.218 61.4311 168.229L60.8311 165.977L62.8831 165.193C62.9781 164.992 63.6931 163.533 63.6931 163.533C63.6931 163.533 64.8321 161.207 64.8581 161.248L64.7271 159.25L64.6911 158.724L68.9591 160.812C68.9591 160.812 70.7821 170.863 71.0701 172.44L72.1361 170.257C72.1361 170.257 74.3261 165.787 74.3621 165.813L74.1521 163.4L78.8531 165.783L78.4751 166.081ZM75.2381 158.126C75.8108 158.161 76.3856 158.116 76.9461 157.994C77.4912 158.61 78.1362 159.131 78.8541 159.534C77.6346 159.101 76.4287 158.632 75.2381 158.126ZM109.466 177.801C109.466 177.801 108.648 179.258 108.607 179.258L108.579 185.295L107.923 185.623C106.797 186.183 105.835 186.663 102.535 186.631C97.8341 186.59 93.7101 183.341 92.9791 179.057L91.6221 177.273L91.8021 177.083C91.8021 177.083 93.0221 175.814 93.0361 175.842C93.0441 175.826 93.2521 175.057 93.2561 175.038C94.5571 171.243 98.4521 168.62 102.733 168.66C104.959 168.68 106.206 169.022 107.657 170.007L107.859 170.146L107.762 173.362L107.241 172.716L106.99 172.406C106.276 171.552 104.769 171.059 102.742 171.016C99.9311 170.949 98.2751 173.206 97.6641 175.307L97.5771 175.827C97.7411 176.024 98.9511 177.461 98.9511 177.461L98.7511 177.658C98.7511 177.658 97.4431 178.963 97.4171 178.981C97.8331 181.607 99.5821 184.27 102.554 184.295C103.764 184.305 104.159 183.985 104.504 183.88L104.514 180.892C104.514 180.892 104.522 179.361 104.552 179.361C104.544 179.341 103.485 177.301 103.485 177.301L109.722 177.346L109.466 177.801ZM130.948 180.691L130.989 180.181C130.989 180.181 131.122 178.516 131.148 178.511C131.143 178.496 129.276 173.917 129.186 173.694L127.024 172.899C127.024 172.899 127.876 171.08 127.973 170.865C127.819 170.496 126.036 166.338 126.036 166.259L124.107 164.849L135.074 160.084L135.489 159.905L136.964 163.398C136.964 163.398 134.086 163.242 133.923 163.229C133.789 163.291 130.204 164.834 129.778 165.016C129.978 165.485 131.363 168.697 131.563 169.169C131.579 169.164 131.615 169.148 131.615 169.148C131.615 169.148 134.323 167.973 134.328 167.983C134.331 167.983 135.96 166.473 135.96 166.473L137.453 170.071L137.022 170.094C137.022 170.094 135.325 170.192 135.319 170.179L132.516 171.386C132.721 171.884 134.535 176.213 134.658 176.508C135.053 176.333 136.064 175.892 136.064 175.892C136.064 175.892 138.664 174.751 138.674 174.779C138.685 174.771 140.731 172.409 140.731 172.409L142.175 175.802L130.948 180.691ZM167.248 154.298L159.046 152.41C158.903 152.574 158.467 153.067 158.315 153.244C159.21 154.001 162.452 156.755 162.452 156.78L164.63 157.342L160.77 161.817L160.565 161.399C160.565 161.399 159.88 159.994 159.88 159.942L155.874 156.5L153.512 156.708L153.479 156.41C153.479 156.41 153.312 154.967 153.312 154.561C153.312 154.497 153.317 154.461 153.327 154.461C153.291 154.428 149.803 151.386 149.803 151.338V151.335C149.793 151.335 147.656 150.702 147.656 150.702L151.816 145.8C153.29 144.062 155.155 142.876 156.804 142.635C157.999 142.458 159.045 142.745 159.937 143.512C160.824 144.279 161.289 145.451 161.289 146.746C161.289 147.39 161.111 148.07 160.871 148.742L167.783 150.512L170.391 150.696L167.248 154.298ZM182.073 127.92C181.119 130.928 178.88 132.456 177.598 132.582L177.278 132.613L176.668 131.056L176.703 130.665L177.083 130.605C178.167 130.428 179.616 129.779 180.358 127.711C180.709 126.487 180.658 125.371 180.204 124.486C179.839 123.776 179.232 123.247 178.349 122.996C177.826 122.87 177.008 123.193 176.425 123.744C176.425 123.744 174.907 125.457 174.881 125.45C174.881 125.458 174.245 127.707 174.245 127.707L174.009 127.705C174.009 127.705 172.716 127.684 172.701 127.628C172.675 127.649 172.478 127.81 172.491 127.797L172.014 128.236C171.291 128.833 170.46 129.254 169.667 129.416C169.019 129.541 168.347 129.334 167.896 129.164C165.026 128.033 164.474 124.447 165.408 121.647C166.101 119.567 167.121 118.084 168.286 117.477L168.691 117.264L169.361 118.774L169.348 119.105L169.107 119.241C168.156 119.774 167.609 120.515 167.091 121.962C166.46 123.708 167.771 124.891 168.54 125.191C168.906 125.301 169.696 125.298 170.889 124.036C170.889 124.036 171.051 123.86 171.079 123.857L171.599 121.785C171.599 121.785 172.923 121.769 173.143 121.764C173.266 121.615 173.607 121.202 173.635 121.176L174.697 120.133C175.02 119.835 175.794 119.274 176.667 119.035L176.669 119.033C177.192 118.902 178.023 118.855 178.714 119.069C180.273 119.533 181.481 120.569 182.114 121.99C182.819 123.578 182.806 125.63 182.073 127.92ZM192.184 101.546H163.423C163.073 117.246 156.961 132.841 144.979 144.821C127.648 162.154 102.771 167.266 80.9361 160.262L81.4081 159.568C80.0201 159.225 78.2741 158.052 77.2481 157.075C74.9651 157.657 73.7241 156.605 72.1501 156.141L72.0061 156.624C66.0901 153.663 60.5261 149.76 55.5901 144.825C53.2541 142.488 51.2081 139.981 49.3171 137.398C49.9431 137.772 50.6641 138.17 51.2481 138.378L50.6841 137.426C50.6841 137.426 49.0761 136.367 47.7811 135.313C46.7441 133.759 45.7778 132.159 44.8851 130.518C46.7571 132.22 48.0361 132.515 49.4521 133.187L49.0191 131.161C47.8121 130.781 45.4081 129.75 43.6291 128.001C39.5681 119.709 37.3731 110.733 37.1511 101.695H7.81811C7.81211 101.279 7.78611 100.87 7.78611 100.454C7.78611 100.288 7.79211 100.141 7.79411 99.9846C7.79211 99.9946 7.78611 99.9926 7.78611 100.003C7.78611 99.4626 7.81811 98.9306 7.82711 98.3926C8.69311 48.2856 49.6921 7.78463 100.003 7.78463C150.85 7.78463 192.217 49.1536 192.217 100.004C192.217 100.001 192.209 100.001 192.209 99.9986C192.21 100.102 192.217 100.203 192.217 100.306C192.216 100.721 192.191 101.131 192.184 101.546Z" fill="#003278"/>
<path d="M33.2409 128.768C34.3419 128.361 35.1009 127.588 35.5369 126.458C36.1369 124.901 36.0239 122.693 35.2369 120.549L33.0209 114.514L32.6799 114.843L31.4489 116.027C31.4259 116.015 29.9559 116.545 29.9559 116.545C29.9559 116.545 27.0109 117.604 26.9809 117.617C26.9809 117.542 25.2059 116.798 25.2059 116.798L24.9269 116.683L23.9499 118.845C23.7289 118.928 19.0149 120.649 19.0049 120.651C18.9989 120.633 17.3939 120.543 17.3939 120.543L16.9319 120.515L18.9279 126.083L20.4919 124.442C20.5129 124.46 24.4819 122.982 25.5829 122.575C25.6239 122.696 25.8729 123.391 25.9499 123.619C25.7189 123.876 20.2869 129.87 20.2869 129.87L21.8719 134.384C21.8719 134.384 23.2749 132.24 23.3139 132.184C23.4059 132.086 27.9099 127.37 28.2409 127.021C29.6379 128.627 31.5889 129.363 33.2409 128.768ZM29.4249 124.388H29.4219C28.9162 124.114 28.5297 123.663 28.3369 123.121L27.8029 121.684C28.3029 121.515 32.2009 120.205 32.6839 120.04C32.8219 120.414 33.1329 121.281 33.1329 121.281C33.2759 121.673 33.3449 122.043 33.3449 122.383C33.3449 122.66 33.2989 122.919 33.2069 123.158C32.9759 123.768 32.4629 124.232 31.7299 124.509C30.9299 124.795 30.0839 124.747 29.4249 124.388ZM47.7589 144.346C47.7589 144.346 41.2289 146.628 41.2089 146.633C41.2059 146.589 39.2539 146.11 39.2539 146.11L39.0079 146.051C39.0079 146.051 38.2309 147.698 38.1329 147.9L32.6679 149.737L32.7089 149.755C32.4629 149.765 32.0109 149.829 31.0259 149.978L30.2469 150.109L33.5859 153.943C33.5859 153.943 34.3659 152.291 34.4519 152.099L36.8579 151.142C37.1049 151.421 40.1689 154.902 40.4079 155.176C40.2409 155.469 39.2459 157.21 39.1559 157.374L37.1919 157.969L41.5419 162.942L42.1059 160.39C42.1119 160.439 43.2319 158.567 43.2319 158.567C43.2319 158.567 44.9989 155.628 45.0149 155.607C45.0349 155.661 46.7539 154.987 46.7539 154.987L46.9849 154.9C46.9849 154.9 46.6339 152.53 46.6309 152.523C46.6829 152.533 49.6629 146.396 49.6629 146.396L49.7509 146.214L48.0429 144.249L47.7589 144.346ZM41.6969 152.73L39.4399 150.16C40.0709 149.938 43.0559 148.873 44.1379 148.486C43.5689 149.478 42.0089 152.184 41.6969 152.73ZM74.3609 165.812C74.3249 165.786 72.1349 170.256 72.1349 170.256L71.0689 172.439C70.7809 170.861 68.9579 160.811 68.9579 160.811L64.6899 158.723L64.7259 159.249L64.8569 161.247C64.8309 161.206 63.6919 163.532 63.6919 163.532C63.6919 163.532 62.9769 164.991 62.8819 165.192L60.8299 165.976L61.4299 168.228C61.3629 168.217 59.8749 171.223 59.8749 171.223C59.8749 171.223 59.0109 172.969 59.0009 172.985C58.9799 172.959 57.6439 173.939 57.6439 173.939L57.2389 174.237L62.1019 176.651C62.1019 176.651 61.8099 174.197 61.8049 174.191C61.8459 174.191 64.8899 168.071 65.9909 165.858L68.4009 179.8L70.4009 180.811C70.4009 180.811 73.6399 174.183 73.6529 174.153C73.6859 174.207 75.3299 173.447 75.3299 173.447L75.5579 173.339L75.0529 171.275C75.1219 171.275 76.3529 168.751 76.3529 168.751C76.3529 168.751 77.1609 167.089 77.1689 167.077C77.1999 167.084 78.4739 166.08 78.4739 166.08L78.8509 165.782L74.1499 163.399L74.3609 165.812ZM104.552 179.36C104.521 179.36 104.514 180.891 104.514 180.891L104.504 183.879C104.16 183.984 103.765 184.304 102.554 184.294C99.5819 184.269 97.8319 181.607 97.4169 178.98C97.4429 178.962 98.7509 177.657 98.7509 177.657L98.9509 177.46C98.9509 177.46 97.7409 176.023 97.5769 175.826L97.6639 175.306C98.2749 173.205 99.9309 170.948 102.742 171.015C104.768 171.059 106.276 171.551 106.99 172.405C106.987 172.399 107.241 172.715 107.241 172.715L107.762 173.361L107.859 170.145L107.657 170.006C106.206 169.021 104.959 168.68 102.733 168.659C98.4519 168.618 94.5569 171.241 93.2559 175.037C93.2509 175.055 93.0429 175.825 93.0359 175.841C93.0229 175.813 91.8019 177.082 91.8019 177.082L91.6219 177.272L92.9789 179.056C93.7099 183.339 97.8339 186.589 102.535 186.63C105.836 186.662 106.797 186.182 107.923 185.622L108.579 185.294L108.607 179.257C108.648 179.257 109.466 177.8 109.466 177.8L109.722 177.346L103.485 177.301C103.486 177.3 104.545 179.34 104.552 179.36ZM138.673 174.779C138.663 174.751 136.063 175.892 136.063 175.892C136.063 175.892 135.052 176.333 134.657 176.508C134.534 176.213 132.72 171.884 132.515 171.386L135.318 170.179C135.323 170.191 137.021 170.094 137.021 170.094L137.452 170.071L135.959 166.473C135.959 166.473 134.33 167.983 134.327 167.983C134.322 167.973 131.614 169.148 131.614 169.148L131.562 169.169C131.362 168.697 129.978 165.486 129.777 165.016C130.203 164.834 133.788 163.29 133.922 163.229C134.086 163.242 136.963 163.398 136.963 163.398L135.488 159.905L135.073 160.084L124.106 164.849L126.035 166.259C126.035 166.339 127.818 170.496 127.972 170.865C127.874 171.081 127.023 172.899 127.023 172.899L129.185 173.694C129.275 173.917 131.142 178.496 131.147 178.511C131.121 178.515 130.988 180.181 130.988 180.181L130.947 180.691L142.172 175.803L140.728 172.41C140.73 172.409 138.683 174.771 138.673 174.779ZM160.873 148.742C161.114 148.07 161.291 147.39 161.291 146.746C161.291 145.451 160.826 144.279 159.939 143.512C159.046 142.745 158 142.458 156.806 142.635C155.156 142.876 153.292 144.062 151.818 145.8L147.658 150.702C147.658 150.702 149.794 151.335 149.805 151.335V151.338C149.805 151.386 153.293 154.428 153.329 154.461C153.319 154.461 153.314 154.497 153.314 154.561C153.314 154.967 153.481 156.41 153.481 156.41L153.514 156.708L155.876 156.5L159.882 159.942C159.882 159.994 160.567 161.399 160.567 161.399L160.772 161.817L164.632 157.342L162.454 156.78C162.454 156.754 159.212 154 158.317 153.244C158.468 153.067 158.904 152.574 159.048 152.41C159.387 152.487 167.25 154.298 167.25 154.298L170.395 150.697L167.787 150.513L160.873 148.742ZM158.009 149.047C158.009 149.604 157.813 150.126 157.436 150.568C157.436 150.571 156.78 151.353 156.454 151.743L152.635 148.275C152.886 147.978 153.492 147.278 153.492 147.278C153.979 146.701 154.518 146.37 155.082 146.293C155.729 146.195 156.38 146.414 156.972 146.924C157.621 147.483 157.996 148.247 158.009 148.999V149.047ZM178.713 119.068C178.023 118.855 177.192 118.901 176.668 119.032L176.666 119.034C175.794 119.273 175.019 119.834 174.696 120.132L173.634 121.175C173.468 121.369 173.304 121.565 173.142 121.763C172.627 121.771 172.113 121.778 171.598 121.784C171.598 121.784 171.098 123.769 171.078 123.856C171.05 123.859 170.888 124.035 170.888 124.035C169.695 125.297 168.905 125.3 168.539 125.19C167.77 124.89 166.459 123.707 167.09 121.961C167.608 120.515 168.155 119.773 169.106 119.24L169.347 119.104L169.36 118.773L168.69 117.263L168.285 117.476C167.12 118.084 166.1 119.567 165.407 121.646C164.473 124.447 165.025 128.032 167.895 129.163C168.346 129.332 169.018 129.54 169.666 129.415C170.459 129.253 171.289 128.832 172.013 128.235L172.49 127.796C172.477 127.809 172.675 127.648 172.7 127.627C172.715 127.683 174.008 127.704 174.008 127.704L174.244 127.706C174.244 127.706 174.88 125.457 174.88 125.449C174.906 125.457 176.424 123.743 176.424 123.743C177.006 123.192 177.825 122.869 178.348 122.995C179.23 123.246 179.838 123.775 180.203 124.485C180.656 125.37 180.708 126.486 180.357 127.71C179.615 129.778 178.166 130.428 177.082 130.604L176.702 130.664L176.667 131.055L177.277 132.612L177.597 132.581C178.879 132.455 181.119 130.927 182.072 127.919C182.805 125.629 182.818 123.577 182.113 121.989C181.48 120.569 180.273 119.533 178.713 119.068ZM33.8199 50.1472C33.8379 50.1602 35.1359 48.6192 35.5749 48.0922C35.9769 48.4242 38.7979 50.7442 38.9649 50.8832C38.9929 51.1012 39.2039 52.9502 39.2039 52.9502C39.2039 52.9502 41.0629 52.8662 41.2759 52.8552L45.3849 56.3122C45.3849 56.3742 46.0619 57.8362 46.0619 57.8362L46.2669 58.2772L50.0799 53.7142C50.0799 53.7142 47.8839 53.3762 47.8769 53.3732C47.8769 53.3192 43.8399 49.9132 43.7739 49.8572C43.7789 49.8572 43.7819 49.8442 43.7819 49.8212C43.7819 49.5512 43.5119 48.0472 43.5119 48.0472L43.4609 47.7662C43.4609 47.7662 41.6459 47.9562 41.4249 47.9772C41.2449 47.8282 38.4399 45.4662 38.0439 45.1322C38.3519 44.7552 39.7109 43.1112 39.7169 43.1012C39.7319 43.1272 41.8969 42.1572 41.8969 42.1572L42.3629 41.9492L39.4219 39.6482L39.2349 39.8792L30.2989 50.5402L33.1339 52.8742L33.8199 50.1472ZM60.6549 31.8122C60.5679 32.0352 59.8679 33.8592 59.8679 33.8592C59.8679 33.8592 61.8119 34.4202 62.0399 34.4872L64.4149 39.2952C64.3839 39.2982 64.3729 40.8072 64.3729 40.8072L64.3679 41.3202L75.0159 35.7292L73.4049 32.4972C73.4049 32.4972 71.6349 34.8722 71.6349 34.8772C71.6169 34.8542 68.2239 36.6492 67.5119 37.0262C67.2659 36.5482 65.1629 32.4382 64.9269 31.9732C65.3779 31.7372 67.8299 30.4522 67.8399 30.4502C67.8399 30.4682 69.3579 30.2682 69.3579 30.2682L69.7829 30.2102L68.2089 27.0492C68.2089 27.0492 66.7979 28.5552 66.7919 28.5572C66.7869 28.5442 64.5609 29.7042 63.9119 30.0402C63.6779 29.5912 62.0469 26.4442 61.8089 25.9932C62.2909 25.7422 66.1129 23.7592 66.1229 23.7562C66.1259 23.7862 68.4489 23.7392 68.4489 23.7392L68.9409 23.7292L67.2049 20.3692L66.9329 20.5152L56.4259 26.0362L58.3189 27.2132C58.3209 27.2962 60.3419 31.2052 60.6549 31.8122ZM126.527 34.4772L128.489 32.5152C128.841 32.6792 133.27 34.7692 133.626 34.9392C133.585 35.2982 133.346 37.4362 133.324 37.6472C133.164 37.7802 131.861 38.8882 131.861 38.8882L137.442 41.5042L137.003 39.1732C137.021 39.1732 137.756 33.8212 137.77 33.7412C137.818 33.7822 139.332 32.4252 139.332 32.4252L139.545 32.2322C139.545 32.2322 138.008 30.2782 138.001 30.2732C138.073 30.2682 138.398 23.1742 138.398 23.1742L138.411 22.9692L136.216 21.9182L136.062 22.0582C136.062 22.0582 130.696 27.0182 130.679 27.0312C130.671 26.9872 128.642 27.3012 128.642 27.3012L128.381 27.3422L128.393 29.4042C128.198 29.5822 124.161 33.2112 124.161 33.2112C124.202 33.1802 122.71 34.1112 122.71 34.1112L122.233 34.4112L126.47 36.3992C126.47 36.3982 126.517 34.6882 126.527 34.4772ZM134.449 26.8782C134.31 28.0682 133.884 31.7762 133.81 32.4282C132.637 31.8735 131.464 31.3195 130.291 30.7662C130.794 30.2942 133.574 27.6982 134.449 26.8782ZM155.852 58.0952C157.193 58.5162 158.601 58.3622 159.92 57.6492C160.556 57.3162 161.107 56.6932 161.351 56.2642C161.833 55.4442 161.961 54.4612 161.964 54.1512L161.992 52.6492C161.992 52.6202 161.94 52.0262 161.925 51.8232C162.082 51.6592 162.979 50.7462 162.979 50.7462L161.937 48.9692C161.945 48.9642 161.947 48.9152 161.947 48.8592L161.944 48.5072C161.944 47.1752 162.3 46.2812 162.964 45.9942C163.768 45.6382 165.596 45.6842 166.383 47.3892C167.052 48.8342 167.186 49.7852 166.875 50.8982L166.8 51.1672L168.347 51.7702L168.45 51.4572C168.973 49.8162 168.13 47.6772 167.581 46.5462C166.299 43.9382 163.439 41.8142 160.659 43.0092C160.228 43.1892 159.631 43.5152 159.269 44.0432C158.825 44.6922 158.533 45.5642 158.446 46.4952L158.405 47.1472C158.405 47.1142 158.374 47.4422 158.369 47.4832C158.318 47.4502 157.425 48.3062 157.425 48.3062L157.251 48.4702C157.251 48.4702 158.351 50.4732 158.354 50.4842C158.351 50.4842 158.351 50.5072 158.351 50.5482C158.351 50.9282 158.452 52.8202 158.452 52.8202C158.424 53.6742 158.041 54.5412 157.541 54.8572C156.903 55.2692 156.082 55.3882 155.282 55.1862C154.528 54.9962 153.446 54.4342 152.579 52.8442C151.609 50.7492 152.209 49.1972 152.881 48.2692L153.107 47.9582L151.481 47.2482L151.332 47.4272C150.404 48.5682 150.117 51.1822 151.432 53.7822C152.589 56.0612 154.118 57.5542 155.852 58.0952ZM95.8579 30.0012C96.0169 29.7992 98.8689 26.1112 99.3099 25.5422L102.38 30.1152C102.377 30.1182 102.377 30.1272 102.377 30.1452C102.377 30.3402 102.498 31.3942 102.498 31.3942L102.529 31.6692L108.41 31.6612L106.266 29.5582C106.266 29.5482 102.991 24.6912 102.442 23.8752C102.596 23.6292 103.188 22.6932 103.188 22.6932L102.198 21.5832C102.475 21.2092 106.164 16.2672 106.164 16.2672L107.867 14.3002L102.576 14.2842L102.758 14.7122C102.758 14.7122 103.178 15.6922 103.286 15.9482L100.07 20.2162C99.6619 19.5932 97.2279 15.8612 97.2179 15.8462C97.2239 15.8462 97.2239 15.8352 97.2239 15.8152C97.2239 15.6172 97.1059 14.5582 97.1059 14.5582L97.0749 14.2832L91.5869 14.2992L93.3359 16.2992C93.3359 16.3042 96.3849 20.9462 96.9089 21.7382C96.7629 21.9842 96.1619 22.9562 96.1619 22.9562L97.3059 24.0612C97.0029 24.4642 93.0539 29.6802 93.0539 29.6832C93.0459 29.6832 91.5379 31.1092 91.5379 31.1092L90.9659 31.6512L96.2229 31.5922C96.2219 31.5922 95.9089 30.2292 95.8579 30.0012ZM170.419 80.5112L168.157 87.4722L174.081 83.1682L180.003 87.4722L177.738 80.5112L183.668 76.2042H176.343L174.081 69.2442L171.819 76.2042H164.495L170.419 80.5112ZM19.3939 87.4722L25.3109 83.1682L31.2379 87.4722L28.9759 80.5062L34.8949 76.2042H27.5759L25.3109 69.2442L23.0509 76.2042H15.7319L21.6539 80.5062L19.3939 87.4722Z" fill="white"/>
<path d="M92.9269 37.4008C93.4129 37.5858 94.8459 38.1578 95.0529 38.5048L95.7889 38.3948C95.7889 38.3948 94.8889 37.6658 94.2449 37.2168C94.1739 37.2228 94.1049 37.2338 94.0349 37.2398C93.6399 37.2798 93.2449 37.3248 92.8529 37.3708L92.9269 37.4008ZM88.8539 37.9708C88.8639 37.9728 88.8749 37.9798 88.8839 37.9828C89.9089 38.2558 90.8649 38.8598 91.8949 39.3648L92.8899 39.2748C92.8899 39.2748 91.9639 38.4788 90.6239 37.7308C90.5879 37.7098 90.5609 37.6908 90.5249 37.6718C89.9639 37.7608 89.4099 37.8708 88.8539 37.9708ZM82.9059 39.3588L82.9459 39.3658C83.4439 39.4458 84.4039 39.6468 84.7679 40.0588C85.8909 39.8608 86.6709 40.4258 87.3839 40.7898L89.0659 40.2538C89.0659 40.2538 86.8809 39.1788 86.0859 39.1608C85.7419 38.9988 85.5289 38.8688 85.2739 38.7968C85.2319 38.7868 85.1979 38.7628 85.1549 38.7558C84.3989 38.9428 83.6549 39.1458 82.9059 39.3588ZM77.8899 41.0158C77.9049 41.0178 77.9519 41.0308 77.9739 41.0358C78.2889 41.1098 79.3329 41.3708 79.8699 41.8338C81.0439 41.6338 82.2009 42.2138 83.0449 42.7498L84.7379 42.1528C84.5509 41.8428 82.3629 40.8908 81.1389 40.8678C80.7289 40.5438 80.3009 40.4358 79.9229 40.3548C79.8919 40.3478 79.8569 40.3348 79.8249 40.3288C79.1779 40.5458 78.5329 40.7738 77.8899 41.0158ZM72.5579 43.3008C72.5959 43.3008 72.6709 43.2938 72.7669 43.2838C73.3859 43.2188 75.0179 43.0028 75.2229 43.4748C76.4849 43.3548 77.8439 44.1208 78.6639 44.6388L80.4689 44.1768C79.4969 43.3028 77.7199 42.6128 76.6999 42.6638C76.2999 42.0628 75.4909 42.3068 74.9129 42.2868C74.8729 42.2848 74.8259 42.2928 74.7889 42.2868L72.5579 43.3008ZM74.3509 47.4528L75.9279 46.2558C74.6919 45.5858 72.7579 45.2188 71.7479 45.2678C71.2419 45.0898 71.3139 44.9268 70.7319 44.8548L68.5649 46.0348C68.8389 46.0498 70.6729 46.0858 70.9169 46.6248C72.1679 46.5178 73.5499 46.9538 74.3509 47.4528ZM65.1739 50.9568C66.6459 50.6818 68.8049 50.0978 70.9139 50.5708L72.4979 49.1658C70.1159 48.7478 67.5899 48.8688 66.3099 49.2048C65.9999 48.7278 65.2819 48.2378 65.2819 48.2378L63.7739 49.5078C64.4919 49.7328 64.7349 50.3398 65.1739 50.9568ZM60.9379 55.7028C62.1559 55.0978 64.8359 54.6688 67.5469 55.0368L68.9449 53.2358C64.8359 52.9418 63.1479 53.4638 61.8689 54.0848C61.4299 53.3408 60.7869 52.9068 60.7869 52.9068L59.5379 54.0578C60.2579 54.2828 60.4889 55.0978 60.9379 55.7028ZM65.0409 57.7348C60.7869 57.8298 58.4449 58.2038 58.1339 59.1888C57.7079 58.4418 56.9339 57.6858 56.9339 57.6858L55.9459 59.2428C56.8539 59.7408 56.7669 60.3278 57.2029 60.9428C58.4289 60.3278 60.9289 59.1578 63.6509 59.5348L65.0409 57.7348ZM55.1359 64.5998C54.7049 63.5698 53.5609 62.3358 53.5609 62.3358L52.8229 64.1048C53.4769 64.5998 53.8849 65.8108 54.3359 66.4258C55.5559 65.7948 57.1309 64.5998 59.8339 64.9918L61.1159 62.8988C57.6669 62.8998 55.4439 63.6028 55.1359 64.5998ZM51.6019 71.5588C52.8229 70.9558 54.6559 69.8248 57.3879 70.1888L58.5169 68.1138C55.1949 68.1138 52.8999 68.8288 52.6019 69.8218C52.0589 68.4598 50.8329 67.2908 50.8329 67.2908L50.0969 69.2518C51.0119 69.7498 51.1599 70.9608 51.6019 71.5588ZM50.0959 76.0948C49.4799 74.8768 48.1359 73.3578 48.1359 73.3578L47.5309 75.3948C48.4359 75.9028 48.8569 77.1128 49.2979 77.7358C50.5209 77.1128 52.0189 76.1028 54.7399 76.4768L55.6089 74.5148C51.4779 74.7688 50.4059 75.1158 50.0959 76.0948ZM47.0209 83.4918C48.2309 82.8688 50.2679 81.7558 52.9809 82.1168L53.6609 80.0908C49.6729 80.3298 47.9289 80.7218 47.6109 81.7198C47.1719 80.9758 45.6499 79.1188 45.6499 79.1188L45.2419 81.1558C46.1589 81.6628 46.5699 82.8688 47.0209 83.4918ZM46.1409 88.5058C45.7069 87.7578 43.8299 85.1568 43.8299 85.1568L43.4039 87.3288C44.3039 88.1678 44.9789 89.7218 45.4199 90.3498C46.6409 89.7268 48.5539 88.0268 51.2529 88.4108L51.6789 86.5948C47.7309 86.8898 47.1029 87.3288 46.1409 88.5058ZM44.9589 95.1378C44.4819 94.3968 42.0729 91.8988 42.0729 91.8988L41.7549 94.0038C43.3579 95.3838 44.0189 96.7048 44.4869 97.2788C45.0159 96.2298 47.0099 95.2448 49.7389 95.4718L50.0769 93.4908C46.8419 93.6768 45.3849 94.2098 44.9589 95.1378ZM43.8049 102.738C43.2719 101.323 40.9839 99.0418 40.9839 99.0418L40.8449 101.071C41.6459 101.427 43.1229 103.902 43.5689 104.51C43.6689 104.397 43.7999 104.028 44.0719 103.694C44.5559 103.11 45.9539 102.281 48.9579 102.407L49.1289 100.547C45.6669 100.588 44.5539 101.434 44.2619 101.776C43.9869 102.016 43.8799 102.478 43.8049 102.738ZM48.5339 116.122L48.4739 114.135C45.8659 112.965 44.5249 113.173 43.5679 113.739C43.1239 112.98 40.5059 112.018 40.5059 112.018L40.6289 114.016C41.6909 114.267 42.9839 114.921 43.4349 115.534C44.6519 114.911 46.3829 114.971 48.5339 116.122ZM43.2609 110.219C43.8259 109.273 44.4589 108.782 48.5089 109.637L48.5299 107.706C43.7549 107.473 43.8209 107.904 43.6699 108.517C43.2619 107.757 40.5129 105.406 40.5129 105.406L40.5539 107.637C41.4479 108.172 42.8479 109.583 43.2609 110.219ZM43.8869 121.065C44.1199 120.439 44.8819 120.785 45.8669 121.221C46.7439 121.627 47.3959 122.09 48.4009 122.642L48.3499 120.642C46.1489 119.228 43.9949 118.151 43.6869 119.134C43.2569 118.39 40.9689 117.354 40.9689 117.354L41.4819 119.574C42.6669 119.882 43.4429 120.444 43.8869 121.065ZM44.2379 124.278C43.7939 123.468 41.9859 122.475 41.9859 122.475L42.2649 124.489C43.2239 124.882 43.9629 125.428 44.4149 126.1C45.4559 125.972 46.3689 126.372 48.5999 127.969L48.4359 126.077C46.1569 124.171 45.0489 124.278 44.2379 124.278ZM137.442 108.91C136.727 108.41 135.507 107.718 133.256 105.245L131.589 106.261C132.341 106.828 135.739 110.752 137.329 110.16C137.329 110.16 136.608 115.017 136.736 117.528L138.56 116.361C138.498 115.04 138.586 109.469 138.914 108.17C138.984 108.1 137.893 109.226 137.442 108.91ZM141.053 106.636L142.221 105.671C142.385 108.899 142.643 111.964 142.289 113.44L143.7 112.345C143.985 109.983 143.91 107.239 143.572 104.732L142.261 105.577C140.557 103.083 139.416 101.967 138.427 101.292L137.207 102.202C137.719 102.35 139.098 103.725 141.053 106.636ZM78.8309 153.944C76.5499 154.523 74.4369 153.503 72.8669 153.036L72.4309 154.375C74.6419 155.519 76.7729 155.345 78.3859 154.998C79.2739 156.259 80.0219 156.97 81.9869 157.701L82.6899 156.682C80.6009 156.429 79.7799 155.357 78.8309 153.944ZM80.4449 150.289C78.1489 150.868 75.7299 150.03 74.1479 149.566L73.4899 151.076C75.8799 151.894 78.0979 152.064 79.7199 151.726C80.5429 153.082 81.4379 154.372 83.4109 155.108L84.1359 153.821C82.5009 153.152 80.9769 152.282 80.4449 150.289ZM83.0219 145.463L82.7789 145.845C80.4959 146.432 77.7239 145.924 76.1469 145.463L75.3359 146.896C77.5409 147.581 79.4629 147.689 81.9169 147.414L82.0409 147.188C82.9339 148.823 83.1629 149.798 85.4609 151.145L86.5769 149.86C85.1299 149.277 83.3679 146.945 83.0219 145.463Z" fill="#003278"/>
<path d="M85.276 142.528L85.149 142.71C82.952 143.129 80.348 141.985 78.777 141.525L77.874 142.882C80.085 144.04 82.239 144.128 84.178 144.128L84.295 143.96C85.103 145.749 85.881 147.603 87.84 148.344L88.953 147.051C87.512 146.475 85.625 144.012 85.276 142.528ZM81.76 137.641L81.111 138.337C81.311 138.433 81.535 138.534 81.76 138.634V137.641ZM119.284 130.258L117.289 128.401L118.88 127.734C117.695 126.493 117.741 122.825 117.864 120.84L117.314 121.166C115.099 120.801 112.705 118.595 111.596 117.091L111.46 117.148V105.571C111.46 101.396 117.241 99.795 117.241 99.795C117.241 99.795 115.67 99.172 114.165 98.041L111.819 98.703C111.765 98.718 106.669 100.193 106.669 103.655V124.078C106.669 125.464 107.239 126.389 110.015 126.389H111.454C111.462 126.254 111.464 126.118 111.46 125.982V119.8C112.901 121.066 114.416 122.104 115.563 122.232L116.066 121.94C116.084 124.427 115.873 125.898 116.467 127.639L115.243 126.499V138.883H81.864L87.107 143.841H89.381C89.717 144.39 90.106 144.814 90.586 144.949L91.673 143.841H119.284V130.258Z" fill="#003278"/>
<path d="M125.449 117.116L124.905 117.436C122.685 117.078 120.292 114.873 119.182 113.361L117.115 114.22C118.987 116.174 121.47 118.31 123.15 118.505L123.654 118.21C123.676 121.145 123.3 122.634 124.406 124.865L126.471 124.007C125.28 122.771 125.331 119.093 125.449 117.116ZM132.159 121.045L134.214 120.186C133.029 118.952 133.083 115.272 133.201 113.294L133.13 113.169C132.396 113.426 131.465 113.203 130.632 112.495C129.806 111.787 127.056 108.527 127.056 108.527L124.789 109.764C126.102 111.118 130.401 114.534 131.28 114.562L131.405 114.468C131.417 117.342 131.057 118.835 132.159 121.045ZM146.208 102.453C145.363 100.982 143.636 99.0151 142.325 98.1091L141.145 99.1551C142.325 99.8551 144.746 102.103 145.471 103.861L146.256 103.029C146.489 105.835 146.473 108.988 146.15 110.457L147.602 109.301C147.835 106.772 147.682 103.845 147.23 101.704L146.208 102.453ZM149.845 99.6171C150.209 100.558 150.492 101.705 150.207 107.388L151.589 106.098C151.631 101.835 151.4 100.671 150.94 98.5271L149.845 99.6171ZM153.297 95.9761C153.938 98.1271 154.338 101.789 153.985 103.91L155.262 102.228C155.477 99.8281 154.726 96.8321 154.282 94.6901L153.297 95.9761ZM155.99 92.0741L155.492 92.9261C156.882 94.7091 157.415 96.7151 157.575 99.3941L158.557 97.8871C158.527 95.0871 156.682 91.4351 155.99 92.0741ZM157.703 89.2151L157.433 89.5471L157.637 89.2151C156.895 87.7241 155.995 86.1121 154.577 85.1271L153.807 86.1551C154.972 86.8761 156.184 88.6201 156.923 90.3791L157.303 89.7571C157.942 90.3111 159.094 91.1511 159.846 95.5061L160.426 93.9901C159.791 89.8511 157.862 88.2911 157.703 89.2151ZM159.283 85.9471L159.152 86.3061C158.419 84.8371 157.94 83.8261 156.287 82.3151L155.715 83.2281C157.264 84.6101 157.949 85.3751 158.672 87.3981L159.035 86.6261L158.993 86.7441C159.863 87.4651 160.848 88.6191 161.443 91.7941L161.894 89.9901C161.719 87.7011 159.588 85.1601 159.283 85.9471ZM145.659 94.8181L144.484 95.8641C145.657 96.5611 148.08 98.8091 148.804 100.57L149.773 99.5421C149.034 98.0521 147.085 95.8001 145.659 94.8181ZM149.209 91.4431L148.095 92.3411C148.906 92.8821 151.727 95.2521 152.455 97.0191L153.307 95.8441C152.568 94.3431 150.688 92.4431 149.209 91.4431ZM154.944 93.6391L155.641 92.5951C154.908 91.0971 153.669 89.1991 152.245 88.2121L151.276 89.2441C152.44 89.9561 154.205 91.8761 154.944 93.6391ZM159.863 84.1081L160.299 83.2081C159.56 81.6991 159.171 81.2971 157.519 79.6271L157.211 80.5471C158.362 81.5381 159.136 82.3571 159.863 84.1081ZM161.23 83.3771L161.085 83.2151L160.614 82.6871L160.186 83.6541C160.657 83.9921 161.127 84.4901 161.614 85.2201C161.658 85.2861 161.699 85.3211 161.742 85.3901C161.584 84.7159 161.414 84.0448 161.23 83.3771ZM159.616 78.2911C159.562 78.2231 159.485 78.1401 159.423 78.0671C159.203 77.8081 158.941 77.5221 158.565 77.1501L158.313 78.0111C159.123 78.8891 159.904 79.8311 160.551 81.1941C160.594 81.2831 160.64 81.3551 160.681 81.4481C160.354 80.3866 159.999 79.3339 159.616 78.2911ZM127.622 94.2491H135.849V67.0911L131.289 62.8281V89.4811H122.586L127.622 94.2491ZM112.277 76.4031C115.46 76.6751 117.757 77.5181 119.387 78.7511C116.744 76.1081 112.483 74.6641 106.668 74.6481V91.7891C106.668 95.0091 111.844 97.0711 111.897 97.0921L114.026 97.9271C112.699 96.8971 111.459 95.4811 111.459 93.7031V76.3531L112.277 76.4031ZM79.5052 92.2891C79.5052 82.9451 80.4192 77.0541 90.3312 76.0651V74.5961H90.1942C79.5822 74.5961 75.2522 78.2771 75.2422 87.4031L75.2302 89.4811H64.7432L69.5242 93.9651H79.4962L79.5052 92.2891Z" fill="#003278"/>
<path d="M66.3579 87.7849H73.6139C73.6579 87.3079 73.6989 86.8299 73.6989 86.8299L73.5559 87.3029C73.5559 77.3419 78.6859 72.8999 90.1949 72.8999H92.0289V91.7909C92.0289 95.0289 89.6819 96.8739 87.9969 97.8369C89.6959 98.7099 92.0289 100.418 92.0289 103.655V123.89C92.0289 126.518 90.2209 128.086 87.1869 128.086H83.4579V137.183H113.542V128.086H110.015C106.666 128.086 104.971 126.737 104.971 124.078V103.655C104.971 100.451 107.695 98.6899 109.59 97.8049C107.718 96.7589 104.971 94.7739 104.971 91.7909V72.9359L105.867 72.9419L106.631 72.9429C117.787 72.9429 124.184 77.9849 124.184 86.7839L124.176 87.7859H129.592V64.4219H66.3589L66.3579 87.7849Z" fill="#C0111F"/>
</g>
<defs>
<clipPath id="clip0_18_1271">
<rect width="200" height="200" fill="white"/>
</clipPath>
</defs>
</svg>
