<svg width="200" height="200" viewBox="0 0 200 200" fill="none" xmlns="http://www.w3.org/2000/svg">
<path d="M39.1869 61.3098L39.157 66.9918H16.8076L25.0414 77.4254H49.0125L49.0261 73.3044C49.0261 50.5023 51.1929 36.0215 75.0276 33.437V30.4076C49.2986 30.4677 39.2142 39.0522 39.1869 61.3098ZM116.33 101.251V151.407C116.33 154.004 116.919 156.545 123.956 156.545H127.497V105.942C127.497 95.6806 141.693 91.7643 141.693 91.7643C141.693 91.7643 138.201 90.3997 134.683 87.8753L128.542 89.5946C128.426 89.6397 116.33 93.1698 116.33 101.251ZM176.772 5.75391V66.9918H160.173L169.039 78.1131H187.377V16.9639M116.33 72.0722C116.33 78.2728 125.331 83.1661 128.793 84.5171L132.172 85.8502C129.587 83.4527 127.495 80.396 127.495 76.7799V34.0961L129.496 34.2271C135.537 34.2271 141.243 36.2794 145.999 39.7672C139.635 33.8409 129.639 30.6819 116.332 30.5537V72.0735L116.33 72.0722ZM59.116 188.433V188.518L67.8377 199.999H146.709V173.579L137.358 162.643V188.433" fill="#CC3433"/>
<path d="M17.3598 61.6401H33.9637C33.9637 61.4668 33.9773 61.3399 33.9773 61.2225C33.9773 60.8213 33.9432 60.6494 33.8492 61.0233C33.8492 36.1089 46.6319 25.0013 75.2909 25.0013H80.3931V72.0736C80.3931 79.752 75.1982 84.3002 71.02 86.8833C75.2173 89.2672 80.3917 93.5288 80.3917 101.252V150.991C80.3917 157.722 75.6043 161.914 67.8952 161.914H59.337V183.069H131.995V161.914H123.955C113.219 161.914 110.968 156.217 110.968 151.41V101.251C110.968 93.5547 116.997 89.1799 121.72 86.7973C117.06 84.0273 110.968 79.2185 110.968 72.0736V27.6977L112.969 25.1145H115.651C143.405 25.1145 159.341 37.73 159.341 59.7583L159.313 61.6387H171.404V5.38281H17.3584V61.6414L17.3598 61.6401Z" fill="white"/>
<path d="M176.772 5.75441V0H12V66.9924H39.1572L39.1885 61.3089C39.2158 39.05 49.3002 30.4668 75.0292 30.4095V72.0713C75.0292 80.6408 64.3588 84.4589 64.2361 84.4589L56.3021 87.2426L64.3642 89.5965C64.8167 89.7248 75.0279 92.7964 75.0279 101.25V150.989C75.0279 152.353 75.0278 156.529 67.8965 156.529H53.9868V188.433H137.357V156.529H123.957C116.919 156.529 116.331 154.004 116.331 151.406V101.251C116.331 93.1703 128.428 89.6388 128.541 89.5979L134.683 87.8744L136.239 87.4159L132.175 85.8371L128.796 84.5176C125.332 83.1666 116.332 78.2746 116.332 72.0727V30.5555C129.632 30.6865 139.643 33.8441 146.007 39.7705C151.227 44.6215 153.977 51.323 153.977 59.7342L153.905 66.9937H176.772V5.75441ZM171.403 61.6405H159.315L159.342 59.7601C159.342 37.7318 143.405 25.1163 115.652 25.1163H112.967L110.971 27.7008V72.0727C110.971 79.2189 117.062 84.0263 121.72 86.7964C116.998 89.1803 110.971 93.5565 110.971 101.25V151.406C110.971 156.214 113.219 161.911 123.958 161.911H131.998V183.066H59.337V161.911H67.8951C75.6043 161.911 80.3917 157.721 80.3917 150.989V101.251C80.3917 93.5278 75.2186 89.2649 71.0186 86.8824C75.1955 84.3033 80.3903 79.7525 80.3903 72.074V24.999H75.2895C46.6306 24.999 33.8478 36.1093 33.8478 61.0237C33.9405 60.6485 33.9759 60.819 33.9759 61.2216C33.9759 61.3376 33.9623 61.4672 33.9623 61.6391H17.3584V5.38324H171.403V61.6405Z" fill="#003278"/>
</svg>
