<svg width="200" height="200" viewBox="0 0 200 200" fill="none" xmlns="http://www.w3.org/2000/svg">
<path d="M60.9759 76.1059C60.9759 76.1059 59.8131 73.182 61.3046 70.1877C61.8882 69.0075 63.0005 67.9303 64.4817 67.0481C75.4694 59.6808 98.7415 67.232 98.7415 67.232C93.2172 66.7286 88.6721 66.8214 84.8531 67.3436C91.3411 69.3553 98.2858 72.104 102.99 73.2335C108.771 74.6491 112.614 75.3681 118.37 75.7074L118.185 73.45L121.39 73.9929L129.918 75.4394L131.174 72.2595L132.563 68.7403L135.269 71.3653C135.33 71.4168 139.518 75.5107 141.727 77.6443C141.342 73.6227 140.348 63.3855 140.338 63.2713L139.938 59.1268L143.787 60.6961L147.98 62.3797L154.288 52.0678L156.421 48.5693L158.579 52.0678L163.662 60.3877C165.43 53.1656 166.702 45.5131 170.417 41.9733C166.697 42.1064 164.073 43.1638 160.015 46.0147C162.32 39.7786 165.722 35.1402 170.336 29.8576C165.861 30.5362 161.588 31.8281 157.396 34.2074C158.995 30.391 159.104 25.6719 159.104 25.6719C139.459 48.4997 84.684 48.2034 70.5021 52.8589C61.1965 55.9168 56.4249 60.9933 53.1096 66.0011C52.792 71.1823 56.5493 76.1059 60.9759 76.1059Z" fill="#134A8E"/>
<path d="M130.783 116.239L134.615 111.632L136.686 109.12L128.655 102.175C124.288 108.864 120.035 116.095 118.005 121.697L126.84 121.646C122.3 127.277 113.546 136.603 107.663 146.893C101.774 132.438 87.9931 113.819 63.0964 103.601C55.8763 100.637 49.0707 96.7067 49.9572 90.9929C37.4822 89.2079 23.8453 87.7717 8.38376 87.2581C7.19943 87.2383 6.1138 87.228 5.13458 87.2169C4.22745 87.1868 3.99659 87.5759 4.9801 88.3352C9.22481 91.4223 23.599 96.9936 41.2481 100.277C49.7409 101.857 53.6252 104.175 59.7082 108.442C72.9727 117.736 91.0534 142.603 102.076 175.012C122.976 134.377 147.248 116.136 149.17 114.741L136.737 115.746L130.781 116.24L130.783 116.239ZM4.5776 86.1809C13.4283 85.8219 25.8552 85.3804 47.5593 86.1096C49.3942 86.1285 51.1982 86.1801 52.9575 86.211C54.0534 84.7542 56.041 83.4623 59.8292 83.4623H60.9569C68.0028 83.5654 69.3107 90.8065 76.802 90.8065C84.265 90.8065 85.5815 83.6255 92.5776 83.4709C92.7664 83.4709 92.981 83.4623 93.1612 83.4623H119.01L118.659 79.1632H92.7776C85.603 79.1632 84.3328 71.8277 76.7934 71.8277C69.3665 71.8277 68.0294 79.0919 61.1268 79.1435C53.6492 78.6916 50.6875 72.4349 50.1031 67.1094C46.8333 68.5052 45.1512 70.1355 42.6967 74.024C15.9755 78.4468 6.83212 82.7245 4.43428 85.3924C4.0807 85.8648 4.23003 86.0899 4.57846 86.1827L4.5776 86.1809ZM73.9322 75.1639C73.4086 77.2872 73.7004 79.0928 73.824 80.0359H71.3146C71.258 78.1479 72.3754 76.1989 73.9322 75.1639Z" fill="#1D2D5C"/>
<path d="M73.9322 75.1641C72.3745 76.2 71.2571 78.1481 71.3146 80.0361H73.824C73.7022 79.093 73.4095 77.2874 73.9322 75.1641Z" fill="white"/>
<path d="M199.997 88.5409L195.862 87.115L193.603 86.3333L194.401 76.6803L194.662 73.4489L191.465 73.9917L182.921 75.4382L181.675 72.2584L180.287 68.7392L177.57 71.365C177.519 71.4166 173.332 75.5104 171.113 77.6441C171.518 73.6224 172.502 63.3853 172.507 63.271L172.912 59.1274L169.067 60.6967L167.33 61.3942C167.504 60.5739 167.673 59.7536 167.833 58.953C168.853 53.8645 171.405 44.9605 176.233 38.1575C176.233 38.1575 173.152 37.4188 168.423 38.7931C167.085 39.1848 168.32 38.8146 168.275 38.8258C169.842 35.0807 176.837 25.48 176.837 25.48C176.837 25.48 166.93 25.3057 163.2 27.5622C165.518 19.9183 163.587 14 163.587 14L155.888 22.9246C142.626 38.343 110.288 42.5915 88.8932 45.4123C80.2424 46.5616 73.4007 47.4635 69.1886 48.8499C58.9948 52.1827 53.6602 57.8973 50.4882 62.3597L48.4586 63.2212C44.5692 64.8738 42.3593 66.9963 40.1871 70.1462C18.1655 73.8998 5.44422 77.9627 1.29906 82.5384L1.02186 82.8769C0.0915586 84.1481 -0.213964 85.6462 0.1482 87.0119C0.0168943 88.2024 0.257193 89.9865 2.35809 91.6486L2.5057 91.7603C7.5331 95.4023 22.5492 101.097 40.4815 104.442C48.5272 105.93 51.9815 107.129 57.1119 111.778C82.6179 134.901 95.1478 169.626 100.832 186.542L107.213 174.796C128.527 137.352 149.406 120.046 149.651 119.811L154.071 115.789L154.188 116.014L156.419 120.312L158.659 116.005L159.493 114.393L176.108 115.747L182.072 116.24L178.24 111.633L176.163 109.121L196.683 91.4124L200 88.5391L199.997 88.5409ZM70.5017 52.8595C84.6836 48.2039 139.459 48.5003 159.097 25.6733C159.097 25.6733 158.989 30.3925 157.389 34.2088C161.583 31.8295 165.857 30.5359 170.331 29.8599C165.718 35.1425 162.316 39.7809 160.009 46.017C164.068 43.1653 166.692 42.1087 170.412 41.9747C166.696 45.5137 165.426 53.167 163.658 60.3892L158.574 52.0693L156.416 48.5707L154.284 52.0693L147.976 62.3803L143.783 60.6967L139.933 59.1282L140.333 63.2727C140.341 63.3861 141.337 73.6232 141.721 77.6458C139.512 75.5121 135.325 71.4183 135.264 71.3667L132.557 68.7409L131.169 72.2592L129.913 75.4391L121.384 73.9926L118.18 73.4497L118.364 75.7062C112.608 75.3669 108.765 74.6497 102.985 73.2324C98.2794 72.1037 91.3356 69.3551 84.8475 67.3442C88.6666 66.8203 93.2117 66.7283 98.7368 67.2326C98.7368 67.2326 75.4647 59.6805 64.4771 67.047C62.9949 67.9283 61.8827 69.0055 61.2991 70.1848C59.8084 73.1809 60.9713 76.1031 60.9713 76.1031C56.5429 76.1031 52.7865 71.1812 53.1049 65.9991C56.4228 60.9913 61.1936 55.9148 70.5008 52.8569L70.5017 52.8595ZM4.4341 85.391C6.83108 82.7231 15.9745 78.4455 42.6957 74.0244C45.1502 70.1358 46.8323 68.5047 50.102 67.1097C50.6856 72.4336 53.6465 78.6911 61.1249 79.1438C68.0283 79.0923 69.3654 71.828 76.7915 71.828C84.3283 71.828 85.5993 79.1636 92.7748 79.1636H118.655L119.009 83.461H93.1593C92.9791 83.461 92.7645 83.4713 92.5757 83.4713C85.5796 83.6259 84.2622 90.8068 76.8001 90.8068C69.3079 90.8068 68.0017 83.564 60.955 83.461H59.8281C56.04 83.461 54.0524 84.7528 52.9556 86.2096C51.198 86.1804 49.394 86.1289 47.5575 86.1083C25.8533 85.3782 13.4264 85.8205 4.57657 86.1796C4.22899 86.0894 4.0788 85.8635 4.43324 85.3919L4.4341 85.391ZM102.078 175.01C91.055 142.603 72.9742 117.736 59.7106 108.44C53.6276 104.174 49.7425 101.856 41.2505 100.276C23.6005 96.9931 9.22549 91.4227 4.9825 88.3364C3.99813 87.5762 4.22899 87.1854 5.13698 87.2172C6.11534 87.2258 7.20183 87.237 8.3853 87.2576C23.8477 87.7712 37.4846 89.2074 49.9587 90.9924C49.0731 96.7062 55.8787 100.636 63.0996 103.6C87.9963 113.818 101.777 132.437 107.667 146.892C113.549 136.602 122.302 127.278 126.842 121.645L118.007 121.697C120.037 116.096 124.291 108.864 128.657 102.175L136.688 109.12L134.617 111.632L130.784 116.239L136.74 115.746L149.173 114.741C147.251 116.137 122.978 134.377 102.078 175.01ZM172.648 108.822L176.302 113.233L158.031 111.746L157.258 113.244L156.428 114.844L156.418 114.855L156.003 114.025L155.793 113.624L154.815 111.747L145.042 112.548L145.031 112.538L137.831 113.132L136.544 113.235L140.21 108.824L117.806 89.4943L121.911 88.0787L120.967 76.4759L131.506 78.2909L133.519 73.1826C133.519 73.1826 140.315 79.8095 141.216 80.6728C141.799 81.2259 142.451 81.5438 143.014 81.5438C143.89 81.5438 144.547 80.7432 144.367 78.8148C144.352 78.6404 144.321 78.3536 144.29 77.9945C143.946 74.496 142.845 63.0571 142.839 63.0271L149.01 65.5095L156.416 53.3938H156.427L163.836 65.5095L166.67 64.3705L170.007 63.0279C170.002 63.058 168.896 74.4968 168.557 77.9954C168.526 78.3544 168.496 78.6413 168.479 78.8157C168.301 80.7441 168.951 81.5446 169.839 81.5446C170.392 81.5446 171.043 81.2156 171.632 80.6728C172.533 79.8095 179.335 73.1826 179.335 73.1826L181.339 78.2909L191.891 76.4759L190.933 88.0787L195.042 89.4935L172.646 108.82L172.648 108.822Z" fill="white"/>
<path d="M191.892 76.4757L181.34 78.2907L179.335 73.1825C179.335 73.1825 172.534 79.8094 171.633 80.6726C171.042 81.2138 170.391 81.5436 169.839 81.5436C168.952 81.5436 168.3 80.7431 168.48 78.8147C168.495 78.6403 168.526 78.3534 168.557 77.9944C169.038 73.005 169.522 68.0159 170.007 63.027L166.669 64.3704L163.837 65.5102L156.426 53.3945H156.417L149.011 65.5102L142.841 63.0278C142.846 63.0579 143.948 74.4967 144.291 77.9953C144.321 78.3543 144.353 78.6412 144.368 78.8156C144.547 80.7439 143.891 81.5445 143.015 81.5445C142.451 81.5445 141.8 81.2267 141.216 80.6726C140.315 79.8094 133.518 73.1825 133.518 73.1825L131.505 78.2907L120.966 76.4757L121.91 88.0786L117.806 89.4933L140.205 108.82L136.54 113.232L137.828 113.129L145.028 112.534L154.812 111.744L155.79 113.621L156 114.02L156.427 114.841L157.257 113.24L158.029 111.742L176.299 113.23L172.645 108.819L195.042 89.4908L190.931 88.076L191.891 76.4749L191.892 76.4757Z" fill="#E8291C"/>
</svg>
