<svg width="200" height="200" viewBox="0 0 200 200" fill="none" xmlns="http://www.w3.org/2000/svg">
<path d="M17.74 127.338L18.955 129.649L20.1701 127.338L29.7691 128.068L27.4605 125.27L38.0316 116.147L35.4799 115.295L35.966 109.7L30.8627 110.551L29.7691 107.753L28.9186 108.605C28.9186 108.605 26.853 110.551 26.0024 111.403L25.3949 112.011L26.2454 103.253L22.4787 104.712L18.8335 98.752L15.1883 104.712L11.7861 103.374L11.9077 104.712C11.9077 104.712 12.0292 106.05 12.1507 107.389L12.6367 112.011L12.0292 111.403C11.1786 110.551 9.113 108.605 9.113 108.605L8.26246 107.753L7.16889 110.551L2.06561 109.7L2.55163 115.295L0 116.147L10.5711 125.27L8.26246 128.068L17.74 127.338Z" fill="white"/>
<path d="M27.825 127.215L26.1239 125.269L36.209 116.51L34.3864 115.902L34.7509 110.672L30.0121 111.523L29.1616 109.212C29.1616 109.212 26.1239 112.253 25.7594 112.618C25.5164 112.861 25.1519 112.983 24.9089 112.983C24.5443 112.983 24.1798 112.618 24.3013 111.766C24.4228 110.915 25.0304 104.711 25.0304 104.711L22.2357 105.806L18.955 100.332L15.5529 105.806L12.7582 104.711C12.7582 104.711 13.3657 111.037 13.4872 111.766C13.6087 112.618 13.2442 112.983 12.8797 112.983C12.6367 112.983 12.2722 112.861 12.0292 112.618C11.6646 112.253 8.50547 109.212 8.50547 109.212L7.65492 111.523L2.91615 110.672L3.40219 115.902L1.57959 116.51L11.6646 125.269L9.96354 127.215L18.226 126.485L18.955 127.945L19.6841 126.485L27.825 127.215Z" fill="#ED174F"/>
<path d="M80.802 122.957C81.774 124.052 83.3536 124.539 85.0547 124.539C88.2139 124.539 90.5225 122.592 90.5225 120.038V103.373H90.401H87.3633C88.2139 103.981 88.4569 104.833 88.4569 106.049C88.4569 106.049 88.4569 115.051 88.4569 119.795C88.4569 121.376 86.8773 122.592 85.0547 122.592C83.2321 122.592 81.6525 121.376 81.6525 119.795V106.049C81.6525 104.833 82.017 103.981 82.8676 103.373H79.5869V120.038C79.5869 121.133 79.9514 122.106 80.802 122.957Z" fill="#134A8E"/>
<path d="M95.018 103.373H91.9803H91.8588V120.403C91.8588 123.322 88.8211 125.755 85.1759 125.755C83.9609 125.755 82.7458 125.512 81.6523 125.025C81.6523 125.025 81.6523 125.025 81.5307 125.025C79.5866 124.052 78.3716 122.228 78.3716 120.525C78.3716 120.525 78.3716 120.403 78.3716 119.916V103.373H75.2124C76.0629 103.981 76.306 104.711 76.306 106.049V120.16C76.306 124.904 79.5866 127.701 84.9329 127.701C90.2792 127.701 93.8029 124.66 93.8029 120.16V106.049C93.9244 104.833 94.289 103.981 95.018 103.373Z" fill="#134A8E"/>
<path d="M180.194 103.373H176.914L169.866 118.213V127.458H173.268C172.418 126.85 171.932 126.12 171.81 124.904V118.822L178.007 105.684C178.007 105.684 178.007 105.563 178.129 105.563C178.372 104.954 178.736 104.346 180.194 103.373Z" fill="#134A8E"/>
<path d="M175.456 103.373H171.446C171.81 103.616 172.053 103.981 172.175 104.103V104.225C172.296 104.589 172.296 104.954 171.81 106.171L169.137 112.253L166.464 106.171C166.1 105.319 166.221 104.589 166.221 104.468C166.343 103.981 166.586 103.738 166.95 103.495H162.819L169.137 116.754L175.456 103.373Z" fill="#134A8E"/>
<path d="M161.482 103.373H158.323C159.295 103.981 159.66 104.468 160.267 105.441L166.586 118.7V124.417C166.586 125.998 165.857 126.85 165.128 127.337H168.651V118.092L161.482 103.373Z" fill="#134A8E"/>
<path d="M135.358 103.373V119.795C135.358 119.916 135.601 122.349 133.9 123.931C132.685 125.147 130.984 125.755 129.161 125.755C127.217 125.755 125.152 124.904 123.937 123.566C123.451 122.957 123.208 122.714 122.722 121.863L121.021 123.566C123.451 127.458 127.46 127.701 128.675 127.701C128.918 127.701 129.04 127.701 129.04 127.701C130.984 127.701 132.685 127.215 134.143 126.363C135.966 125.147 137.059 123.322 137.302 121.133C137.302 121.011 137.302 120.403 137.302 120.281V106.049C137.302 104.833 138.153 103.86 138.639 103.373H135.358Z" fill="#134A8E"/>
<path d="M129.162 124.66C131.592 124.66 134.143 123.201 134.143 120.403V103.373H130.863C131.47 103.981 132.078 104.954 132.078 106.049V120.16C132.078 121.619 130.62 122.592 129.283 122.592H129.162C128.068 122.592 127.217 122.106 126.974 121.984C126.002 121.376 125.638 119.916 125.516 119.186L123.572 121.133C124.058 121.984 125.03 123.079 125.03 123.079C125.759 123.687 126.974 124.66 129.162 124.66Z" fill="#134A8E"/>
<path d="M48.3598 106.658H44.3501V114.078H48.3598C51.1545 114.078 53.0986 112.619 53.0986 110.551C53.0986 108.361 51.033 106.658 48.3598 106.658ZM48.3598 112.497H46.4157V108.604H48.3598C49.8179 108.604 50.9115 109.334 50.9115 110.551C50.9115 112.132 49.3319 112.497 48.3598 112.497Z" fill="#134A8E"/>
<path d="M54.0706 119.917C54.0706 116.024 50.4254 115.416 48.2383 115.416H44.3501V124.174H48.2383C50.4254 124.174 54.0706 123.566 54.0706 119.917ZM46.4157 122.106V116.997H48.2383C50.6684 116.997 51.519 117.97 51.762 118.7C51.8835 119.065 51.8835 119.673 51.762 120.038C51.3975 121.133 50.9115 121.985 48.3598 121.985H48.2383H46.4157V122.106Z" fill="#134A8E"/>
<path d="M55.1638 114.809L54.9208 114.687L55.1638 114.566C55.1638 114.566 56.6219 113.349 56.6219 110.673C56.6219 106.659 53.0982 103.496 48.481 103.496H39.9755C40.7045 104.104 41.1906 105.077 41.1906 106.172V124.54C41.1906 126 40.7046 126.973 39.854 127.581H48.3595C55.7714 127.581 57.7155 122.716 57.7155 120.161C57.594 117.85 56.7434 116.025 55.1638 114.809ZM48.238 125.392H43.1347V105.321H48.3595C51.7617 105.321 54.3133 107.632 54.3133 110.551C54.3133 112.254 53.3412 113.592 51.5186 114.566C53.8273 115.295 55.2853 117.363 55.2853 119.918C55.4069 123.324 52.7337 125.392 48.238 125.392Z" fill="#134A8E"/>
<path d="M62.2112 103.373H59.052C59.781 103.981 60.1456 104.833 60.1456 106.049V124.417C60.1456 125.755 59.6596 126.607 58.6875 127.337H73.2683L73.6328 125.39H62.2112V103.373Z" fill="#134A8E"/>
<path d="M70.2307 122.229C69.5016 122.229 67.193 122.229 65.7349 122.229H65.4919V121.986C65.4919 119.918 65.4919 108.118 65.4919 106.294V106.172C65.4919 106.051 65.6134 104.348 66.5855 103.496H63.4263V124.175H73.7543L74.3619 120.891C73.7543 121.377 72.4178 122.107 70.5952 122.107H70.2307V122.229Z" fill="#134A8E"/>
<path d="M109.842 122.106C109.842 122.106 109.599 122.106 108.262 122.106C106.44 122.106 103.767 122.106 103.767 122.106H103.524V117.119H108.019C109.356 117.119 110.206 117.727 110.571 118.092V115.416H101.458V124.174H112.758L113.366 121.012C112.637 121.498 111.786 122.106 109.842 122.106Z" fill="#134A8E"/>
<path d="M101.458 114.2H110.693V111.524C110.206 112.01 109.477 112.497 108.141 112.497H103.524V108.604H109.113C111.057 108.604 112.151 109.213 112.758 109.578L112.272 106.658H101.58V114.2H101.458Z" fill="#134A8E"/>
<path d="M100.121 105.319H111.908L111.543 103.373H96.8408C97.6913 104.103 98.1773 105.076 98.1773 106.049C98.1773 115.294 98.1773 119.916 98.1773 122.228C98.1773 124.539 98.1773 124.539 98.1773 124.539C98.1773 125.147 97.9343 126.485 96.7192 127.337H112.272L112.637 125.39H100.243V105.319H100.121Z" fill="#134A8E"/>
<path d="M146.173 118.822H154.678L150.304 109.334L146.173 118.822ZM148.724 117.241L150.304 113.47L151.884 117.241H148.724Z" fill="#134A8E"/>
<path d="M160.632 124.175L150.304 101.914L140.097 124.175C139.247 125.756 138.396 126.851 137.545 127.459H140.826L150.304 106.172L159.66 127.337H162.819C161.968 126.607 161.239 125.513 160.632 124.175Z" fill="#134A8E"/>
<path d="M145.565 120.16L142.284 127.459H146.172C145.565 126.729 145.443 125.756 145.808 124.661L147.023 121.863H153.584L154.921 124.783C155.407 125.999 155.285 126.85 154.556 127.459H158.323L155.042 120.16H145.565Z" fill="#134A8E"/>
<path d="M195.869 120.525C195.869 114.808 191.252 113.348 189.064 112.74H188.943C186.634 112.01 185.905 111.524 185.784 110.551C185.784 110.307 185.784 110.186 185.784 110.064C185.905 108.848 186.877 108.239 188.457 108.239C188.821 108.239 191.252 108.483 191.616 111.281L193.317 109.334C192.831 108.361 191.373 106.415 188.214 106.293C185.419 106.172 183.597 107.875 183.597 110.551C183.597 113.105 185.662 113.835 187.485 114.443H187.606L188.457 114.808C188.578 114.93 188.821 114.93 188.943 114.93C190.644 115.538 192.224 116.146 193.196 117.849C193.196 117.849 193.803 119.066 193.803 120.525C193.803 121.985 193.317 123.201 192.345 124.053C191.13 125.269 189.429 125.878 187.606 125.878C185.662 125.878 183.84 125.148 182.503 123.688C182.017 123.08 181.774 122.837 181.288 121.985L179.708 123.688C182.139 127.459 186.148 127.824 187.242 127.824C187.363 127.824 187.363 127.824 187.363 127.824H187.606C189.429 127.824 191.252 127.337 192.588 126.486C194.654 125.148 195.869 122.958 195.869 120.525Z" fill="#134A8E"/>
<path d="M187.485 124.662H187.728C190.401 124.662 192.466 122.959 192.466 120.648C192.466 118.823 191.859 117.607 190.401 116.877C189.186 116.269 187.485 115.661 187.485 115.661C184.568 114.687 182.381 113.593 182.26 110.43C182.26 108.97 182.746 107.632 183.718 106.659C184.811 105.564 186.513 104.956 188.335 104.956C189.307 104.956 192.466 105.321 194.167 108.24L195.504 106.659L195.383 106.537L195.14 106.294C193.681 104.469 190.887 103.01 188.214 103.01C186.27 103.01 184.568 103.496 183.232 104.348C181.409 105.564 180.316 107.267 180.073 109.457C180.073 109.822 180.073 110.065 179.951 110.43C179.951 115.296 183.353 116.39 186.148 117.364L186.391 117.485C188.821 118.337 190.158 119.066 190.158 120.526C190.158 121.499 189.064 122.594 187.485 122.594C186.391 122.594 185.54 122.229 185.297 121.986C184.325 121.378 183.961 119.918 183.839 119.188L181.895 121.134C182.26 121.864 183.11 122.716 183.11 122.837C184.447 124.054 185.784 124.662 187.485 124.662Z" fill="#134A8E"/>
<path d="M196.476 105.442H196.841V103.982H197.448V103.617H195.99V103.982H196.476V105.442Z" fill="#134A8E"/>
<path d="M199.028 105.442L199.636 103.982V105.442H200V103.617H199.271L198.907 104.834L198.421 103.617H197.813V105.442H198.177V103.982L198.664 105.442H199.028Z" fill="#134A8E"/>
<path d="M128.763 83.2593L114.303 70.4869V91.7742C114.303 92.6257 114.182 93.5988 113.574 94.4503H119.65C119.164 93.7205 119.164 92.9906 119.164 91.7742V91.6526V81.4346L133.623 94.207V72.7981C133.623 72.0682 133.744 71.2167 134.109 70.3652H128.277C128.641 70.9734 128.763 71.7033 128.763 72.6764V83.2593Z" fill="#134A8E"/>
<path d="M19.6499 70.3658L18.7993 75.4747C19.8929 74.8665 20.7434 74.7449 21.9585 74.6232H25.7252V91.6531C25.7252 92.8695 25.4822 93.721 24.8747 94.3292H31.5575C30.95 93.5994 30.5855 92.6262 30.5855 91.6531V74.6232H34.7167C35.8103 74.6232 36.9038 74.9882 37.8759 75.4747L36.9038 70.2441H19.6499V70.3658Z" fill="#134A8E"/>
<path d="M137.754 70.3652L136.782 75.4742C137.876 74.866 138.726 74.7443 139.941 74.6227H143.708V91.6526C143.708 92.7473 143.465 93.5988 142.858 94.3287H149.662C149.054 93.5988 148.69 92.6257 148.69 91.6526V74.6227H152.821C153.915 74.6227 155.008 74.9876 155.98 75.4742L155.008 70.3652H137.754Z" fill="#134A8E"/>
<path d="M84.291 92.2608L79.0662 84.719L79.5523 84.3541C81.8609 82.8943 82.5899 81.0697 82.7114 80.7048C82.9544 79.8533 83.1975 79.0018 83.076 78.0287C83.076 76.8123 82.8329 75.5958 82.3469 74.6227L82.2254 74.5011C81.7394 73.6496 81.3749 73.163 80.7673 72.5548C79.9168 71.7033 78.5802 71.0951 77.1221 70.7302C76.7576 70.6085 75.421 70.3652 74.0845 70.3652H66.1865C66.7941 71.2167 67.1586 71.9466 67.1586 72.7981V91.7742C67.1586 91.7742 67.1586 92.3824 67.0371 92.869C66.9156 93.3556 66.551 93.9638 66.1865 94.3287H72.7479C72.0188 93.5988 72.0188 92.6257 71.8973 91.6526V82.6511L79.9168 94.3287H86.2351C85.6276 93.8421 85.0201 93.1123 84.291 92.2608ZM77.9727 79.4884C77.8512 79.7317 77.0006 81.313 74.3275 81.313H72.0188V75.1093H74.206C76.3931 75.1093 77.4866 75.7175 78.0942 77.0555C78.4587 78.0287 78.0942 79.1234 77.9727 79.4884Z" fill="#134A8E"/>
<path d="M51.4844 70C44.8016 70 39.3338 75.2306 38.9692 81.7993C38.9692 82.0425 38.9692 82.1642 38.9692 82.4075C38.9692 82.5291 38.9692 82.5291 38.9692 82.6508C38.9692 83.5022 39.0907 84.4754 39.3338 85.3269C39.3338 85.3269 39.3338 85.3269 39.3338 85.4485C39.3338 85.6918 39.4553 85.8134 39.4553 86.0567V86.1784C39.4553 86.3 39.5768 86.5433 39.5768 86.6649V86.7866C39.5768 86.9082 39.6983 87.0299 39.6983 87.2731C39.8198 87.5164 39.9413 87.7597 40.0628 88.1246C42.1284 92.1388 46.3811 94.9366 51.2414 94.9366C58.2888 94.8149 63.8781 89.2194 63.8781 82.4075C63.8781 75.4739 58.2888 70 51.4844 70ZM51.4844 89.9493C47.3532 89.9493 43.8295 86.4217 43.8295 82.2858C43.8295 78.15 47.3532 74.6224 51.4844 74.6224C55.6157 74.6224 59.1393 78.15 59.1393 82.2858C59.0178 86.5433 55.4941 89.9493 51.4844 89.9493Z" fill="#134A8E"/>
<path d="M98.629 70C91.9461 70 86.4783 75.2306 86.1138 81.7993C86.1138 82.0425 86.1138 82.1642 86.1138 82.4075C86.1138 82.5291 86.1138 82.5291 86.1138 82.6508C86.1138 83.5022 86.2353 84.4754 86.4783 85.3269C86.4783 85.3269 86.4783 85.3269 86.4783 85.4485C86.4783 85.6918 86.5998 85.8134 86.5998 86.0567V86.1784C86.5998 86.3 86.7213 86.5433 86.7213 86.6649V86.7866C86.8428 86.9082 86.8428 87.0299 86.9643 87.2731C87.0858 87.5164 87.2073 87.7597 87.3288 88.1246C89.3944 92.1388 93.6472 94.9366 98.5075 94.9366C105.433 94.9366 111.023 89.3411 111.023 82.5291C111.144 75.4739 105.555 70 98.629 70ZM98.629 89.9493C94.4977 89.9493 90.974 86.4217 90.974 82.2858C90.974 78.15 94.4977 74.6224 98.629 74.6224C102.76 74.6224 106.284 78.15 106.284 82.2858C106.284 86.5433 102.76 89.9493 98.629 89.9493Z" fill="#134A8E"/>
<path d="M169.346 70C162.663 70 157.195 75.2306 156.831 81.7993C156.831 82.0425 156.831 82.1642 156.831 82.4075C156.831 82.5291 156.831 82.5291 156.831 82.6508C156.831 83.5022 156.952 84.4754 157.195 85.3269C157.195 85.3269 157.195 85.3269 157.195 85.4485C157.195 85.6918 157.317 85.8134 157.317 86.0567V86.1784C157.317 86.3 157.438 86.5433 157.438 86.6649C157.438 86.6649 157.438 86.7866 157.56 86.7866C157.56 86.9082 157.681 87.0299 157.681 87.2731C157.803 87.5164 157.924 87.7597 158.046 88.1246C160.111 92.1388 164.364 94.9366 169.224 94.9366C176.15 94.9366 181.739 89.3411 181.739 82.5291C181.861 75.4739 176.272 70 169.346 70ZM169.346 89.9493C165.215 89.9493 161.691 86.4217 161.691 82.2858C161.691 78.15 165.215 74.6224 169.346 74.6224C173.477 74.6224 177.001 78.15 177.001 82.2858C176.879 86.5433 173.477 89.9493 169.346 89.9493Z" fill="#134A8E"/>
</svg>
