<svg width="200" height="200" viewBox="0 0 200 200" fill="none" xmlns="http://www.w3.org/2000/svg">
<g clip-path="url(#clip0_18_1254)">
<path d="M200 100C200 113.132 197.413 126.136 192.388 138.268C187.362 150.401 179.997 161.425 170.711 170.711C161.425 179.997 150.401 187.362 138.268 192.388C126.136 197.413 113.132 200 100 200C86.8678 200 73.8642 197.413 61.7317 192.388C49.5991 187.362 38.5752 179.997 29.2893 170.711C20.0035 161.425 12.6375 150.401 7.61205 138.268C2.58658 126.136 -1.95685e-07 113.132 0 100C-1.95685e-07 86.8678 2.58658 73.8642 7.61205 61.7317C12.6375 49.5991 20.0035 38.5752 29.2893 29.2893C38.5752 20.0035 49.5991 12.6375 61.7317 7.61205C73.8642 2.58658 86.8678 0 100 0C113.132 0 126.136 2.58658 138.268 7.61205C150.401 12.6375 161.425 20.0035 170.711 29.2893C179.997 38.5752 187.362 49.5991 192.388 61.7317C197.413 73.8642 200 86.8678 200 100Z" fill="white"/>
<path d="M195.784 100.003C195.784 125.409 185.692 149.774 167.728 167.738C149.765 185.703 125.4 195.795 99.9958 195.795C74.5912 195.795 50.2271 185.703 32.2633 167.738C14.2995 149.774 4.20752 125.409 4.20752 100.003C4.20752 74.5974 14.2995 50.2323 32.2633 32.2678C50.2271 14.3033 74.5912 4.21094 99.9958 4.21094C125.4 4.21094 149.765 14.3033 167.728 32.2678C185.692 50.2323 195.784 74.5974 195.784 100.003Z" fill="#AB0003" stroke="black" stroke-width="0.201859"/>
<path d="M190.376 100.208C190.376 124.232 180.832 147.272 163.845 164.26C146.857 181.248 123.817 190.791 99.7923 190.791C75.768 190.791 52.7276 181.248 35.7399 164.26C18.7521 147.272 9.2085 124.232 9.2085 100.208C9.2085 76.184 18.7521 53.1438 35.7399 36.1562C52.7276 19.1685 75.768 9.625 99.7923 9.625C123.817 9.625 146.857 19.1685 163.845 36.1562C180.832 53.1438 190.376 76.184 190.376 100.208Z" fill="#14264B" stroke="black" stroke-width="0.199295"/>
<path d="M163.406 99.9868C163.406 116.803 156.726 132.931 144.835 144.822C132.944 156.713 116.816 163.393 99.9999 163.393C83.1834 163.393 67.0557 156.713 55.1646 144.822C43.2736 132.931 36.5933 116.803 36.5933 99.9868C36.5933 83.1703 43.2736 67.0425 55.1646 55.1515C67.0557 43.2604 83.1834 36.5801 99.9999 36.5801C116.816 36.5801 132.944 43.2604 144.835 55.1515C156.726 67.0425 163.406 83.1703 163.406 99.9868Z" stroke="#AB0003" stroke-width="8.64908"/>
<path d="M158.333 99.9993C158.333 115.47 152.187 130.308 141.248 141.247C130.308 152.187 115.471 158.333 99.9998 158.333C84.5288 158.333 69.6915 152.187 58.7519 141.247C47.8123 130.308 41.6665 115.47 41.6665 99.9993C41.6665 84.5284 47.8123 69.6911 58.7519 58.7514C69.6915 47.8118 84.5288 41.666 99.9998 41.666C115.471 41.666 130.308 47.8118 141.248 58.7514C152.187 69.6911 158.333 84.5284 158.333 99.9993Z" fill="white"/>
<path d="M27.0259 114.88L22.4397 111.548L17.8791 114.919L19.6196 109.505L15.0188 106.193L20.681 106.18L22.3979 100.761L24.1565 106.167L29.8185 106.133L25.2433 109.486L27.0259 114.88Z" fill="#AB0003"/>
<path d="M181.981 114.98L177.395 111.648L172.835 115.019L174.575 109.605L169.974 106.293L175.637 106.28L177.353 100.86L179.112 106.267L184.774 106.232L180.199 109.585L181.981 114.98Z" fill="#AB0003"/>
<path d="M33.9116 76.752L26.4036 68.8399L37.2791 68.8719L37.5485 68.2412L24.7975 56.7333L23.5261 59.6983L30.656 65.9421L20.5127 65.987L20.2494 66.5953L27.2606 73.9118L17.7863 73.1722L16.4585 76.2877L33.6614 77.3731L33.9116 76.768V76.752ZM51.4869 38.7706C52.1475 38.7706 52.882 38.6752 53.8024 38.4748L54.9281 38.2362C55.5151 38.1152 56.0699 37.9977 56.5478 37.9977C57.186 37.9977 57.6125 38.2109 57.9685 38.7021C58.2027 39.0178 58.2892 39.3646 58.2315 39.7287C58.1449 40.2788 57.728 40.8519 57.0609 41.3361C55.9224 42.1618 54.6876 42.2774 53.4721 41.6662L53.1193 41.4926L51.7049 44.2053L52.077 44.3827C52.991 44.8294 53.9403 45.0561 54.8993 45.0561C56.2687 45.0561 57.5869 44.6033 58.8152 43.7065C61.5317 41.7341 62.1795 39.0784 60.5022 36.781C59.5144 35.432 58.2989 34.8005 56.676 34.8005C56.0186 34.8005 55.2681 34.8979 54.2514 35.1147L53.1193 35.3548C52.4298 35.5005 51.8813 35.5991 51.4387 35.5991C50.8454 35.5991 50.499 35.4297 50.1623 34.9661C49.6588 34.2729 49.8255 33.5172 50.6081 32.9485C51.3971 32.3738 52.1315 32.3117 53.0968 32.7241L53.4817 32.8893L54.5337 30.1151L54.1809 29.9646C52.3368 29.1782 50.5439 29.4017 48.8602 30.6287C47.7986 31.402 47.093 32.4455 46.8814 33.5723C46.6697 34.7026 46.9551 35.8777 47.6831 36.8809C48.6228 38.1703 49.8352 38.7706 51.4869 38.7706ZM71.6503 36.0234L69.973 31.6777L76.0473 29.3434L77.7247 33.6898L80.7073 32.5406L74.9441 17.5884L71.955 18.7376L74.989 26.6106L68.9146 28.9477L65.8838 21.0725L62.8947 22.2188L68.6612 37.1697L71.6503 36.0234ZM91.3006 30.7049L89.0011 14.8514L85.8324 15.3086L88.1319 31.1618L91.3006 30.7049ZM102.596 20.775L111.025 31.0853L111.775 31.1401L113.029 14.9465L109.995 14.7143L109.27 24.0897L100.836 13.7822L100.091 13.7246L98.831 29.9172L101.868 30.1526L102.596 20.775ZM125.823 35.3862C127.118 35.8834 128.331 36.1274 129.524 36.1274C130.463 36.1274 131.384 35.9728 132.34 35.6551L132.516 35.5959L134.738 29.8394L128.116 27.2923L127.057 30.0229L130.871 31.4868L130.255 33.0664C129.235 33.245 128.151 33.0952 126.894 32.612C123.953 31.4817 122.731 28.7552 123.857 25.8315C124.687 23.6792 126.47 22.3436 128.504 22.3436C129.1 22.3436 129.7 22.4589 130.293 22.6846C132.323 23.4669 132.904 24.5799 133.324 25.6554L133.472 26.0342L136.313 24.8633L136.179 24.5018C135.361 22.3206 133.85 20.8701 131.422 19.9377C130.443 19.5559 129.401 19.3594 128.35 19.3581C124.947 19.3581 122.051 21.3863 120.791 24.6519C119.107 29.0207 121.268 33.6337 125.823 35.3862ZM142.311 44.515L150.03 33.9357L153.69 36.5965L155.418 34.2335L145.511 27.0265L143.789 29.3896L147.448 32.0523L139.726 42.6316L142.311 44.515ZM152.541 50.5695C152.323 52.7085 152.974 54.8474 154.376 56.5924C155.986 58.6001 158.33 59.756 160.813 59.756C162.663 59.756 164.45 59.1156 165.963 57.9052C167.734 56.49 168.827 54.5176 169.052 52.3466C169.264 50.2109 168.613 48.072 167.214 46.3302C165.604 44.3187 163.257 43.1647 160.777 43.1647C158.924 43.1647 157.144 43.8057 155.627 45.0138C153.856 46.4294 152.76 48.405 152.541 50.5695ZM157.679 47.5789C158.725 46.7432 159.912 46.3045 161.111 46.3045C162.577 46.3045 163.921 46.9737 164.892 48.1841C166.695 50.4351 166.281 53.4449 163.908 55.3405C162.865 56.1762 161.679 56.618 160.479 56.618C159.014 56.618 157.673 55.9456 156.698 54.7321C154.896 52.4875 155.306 49.4745 157.679 47.5789ZM163.702 71.2222L172.461 67.7641L166.945 79.6946L166.878 79.8483L167.144 80.5495L182.288 74.5746L181.162 71.7505L172.403 75.2054L177.987 63.1244L177.721 62.4232L162.577 68.3948L163.702 71.2222ZM42.8916 140.887L34.9764 145.991L38.0809 133.049L37.6768 132.412L24.0104 141.233L25.6637 143.785L33.578 138.681L30.4629 151.63L30.884 152.251L44.5433 143.436L42.8916 140.887ZM60.3386 161.613L64.3348 163.733L58.1995 175.305L61.0218 176.797L67.1635 165.228L71.166 167.345L72.5387 164.761L61.7113 159.029L60.3386 161.613ZM74.3219 182.167L77.3976 183.057L81.8619 167.668L78.7863 166.778L74.3219 182.167ZM96.6245 169.702C91.9485 169.487 88.1993 172.926 87.9876 177.53C87.7791 182.132 91.2461 185.9 95.8772 186.108H96.2878C100.775 186.108 104.312 182.737 104.511 178.267C104.719 173.669 101.256 169.903 96.6245 169.692M96.0119 183.131C93.1287 182.999 91.1371 180.707 91.275 177.671C91.4097 174.716 93.4494 172.654 96.23 172.654H96.4898C97.8946 172.718 99.1454 173.304 100.002 174.303C100.858 175.299 101.291 176.653 101.224 178.12C101.086 181.161 98.9337 183.252 96.0119 183.127M120.662 166.929L123 176.041L111.836 169.087L111.695 168.997L110.961 169.183L115.008 184.917L117.955 184.158L115.614 175.049L126.782 182.007L126.923 182.096L127.654 181.907L123.61 166.176L120.662 166.929ZM157.535 159.836L148.282 150.557L146.012 152.811L157.333 164.165L164.369 157.172L162.301 155.101L157.535 159.836ZM172.253 138.146C171.409 137.631 170.598 137.378 169.777 137.378C168.452 137.378 167.243 138.012 165.838 138.969L164.883 139.622C163.92 140.276 163.302 140.628 162.772 140.628C162.522 140.628 162.272 140.548 161.999 140.378C161.265 139.93 161.133 139.171 161.643 138.348C162.141 137.541 162.785 137.195 163.786 137.195H164.283L164.2 134.227H163.722C161.765 134.227 160.226 135.111 159.145 136.853C158.459 137.973 158.205 139.206 158.433 140.327C158.664 141.457 159.373 142.437 160.431 143.084C161.21 143.564 161.977 143.798 162.785 143.798C163.953 143.798 165.126 143.333 166.701 142.248L167.65 141.598C168.436 141.067 169.116 140.605 169.774 140.605C170.062 140.605 170.348 140.695 170.643 140.874C170.976 141.079 171.188 141.371 171.275 141.723C171.403 142.27 171.236 142.956 170.8 143.66C170.059 144.861 168.975 145.424 167.606 145.322L167.211 145.29L166.935 148.332L167.346 148.364H167.808C170.098 148.364 172.054 147.227 173.321 145.171C174.27 143.638 174.604 142.13 174.292 140.801C174.029 139.709 173.327 138.787 172.253 138.127M37.5838 159.875L40.0437 162.023L42.6094 160.768L47.0417 164.633L46.1213 167.339L48.6678 169.558L54.1424 152.616L53.6581 152.203L37.5838 159.875ZM48.2188 161.159L48.0456 161.671L45.4381 159.385L45.9192 159.151L49.4952 157.4L48.2188 161.159ZM134.722 160.307L137.003 177.95L139.812 176.288L139.418 173.461L144.479 170.464L146.769 172.18L149.677 170.464L135.268 159.974L134.722 160.307ZM141.547 168.264L141.98 168.591L138.988 170.348L138.914 169.817L138.363 165.878L141.547 168.264ZM43.1001 58.9139L41.7627 56.3875L45.4927 51.8503L48.2284 52.6796L50.374 50.0732L33.2381 45.1397L32.8404 45.6344L41.0283 61.437L43.1001 58.9139ZM38.1739 49.625L41.984 50.7809L42.5004 50.941L40.2906 53.6146L38.1739 49.625Z" fill="white"/>
<path d="M132.325 58.9253C124.117 52.3461 116.675 60.5711 116.675 65.2753C124.875 67.0294 132.212 75.2503 128.933 96.6086C126.25 114.075 115.958 124.95 109.496 125.167C114.854 117.804 118.462 109.504 120.417 101.396C126.304 77.1419 116.887 69.3253 109.437 68.9669C100.383 68.5003 91.3041 80.8544 88.7791 95.4336C86.7749 106.984 87.0374 118.784 94.0458 127.434C87.8333 135.267 72.9333 137.696 75.5458 118.792C77.7374 102.984 85.5791 85.5378 89.9333 76.9711L90.0624 76.7419C92.3874 71.9544 94.2416 68.5669 95.0291 67.2128L93.2749 67.1711C76.3333 67.4628 62.8208 71.3878 56.5499 79.9878C50.6541 88.0419 50.4833 96.5294 55.3458 101.538L56.0624 102.263C57.4916 103.688 59.3541 104.429 61.2166 104.429C62.9041 104.429 64.5958 103.809 65.8791 102.521C67.1708 101.246 67.8083 99.5253 67.8083 97.8336C67.8083 95.9669 67.0583 94.1044 65.6374 92.6753C64.8624 91.9294 63.9999 91.3586 63.0791 90.9919L63.1208 90.9419L63.5583 90.0378C64.7041 88.0419 66.6999 86.2169 69.2833 84.9253C71.3291 83.9044 73.7124 83.1961 76.3041 82.9378L75.9083 83.7919C72.3124 90.4795 67.0583 103.192 65.3874 109.804C60.2249 130.529 68.5874 142.659 77.6291 144.359C88.5208 146.396 96.8666 141.109 101.287 134.284C106.55 137.634 120.458 139.554 130.917 120.904C142.946 99.4336 143.387 67.7711 132.337 58.9044M101.554 120.275C99.4958 115.246 98.5499 109.325 98.5499 103.696C98.5499 96.9044 99.9083 90.5919 102.25 86.8794C103.779 84.4336 105.629 83.2544 107.687 83.3919C108.425 83.4336 109.258 83.6878 109.858 85.1086C110.337 86.2586 110.55 87.7878 110.55 89.5586C110.55 98.4128 105.262 113.517 101.554 120.275Z" fill="#14264B"/>
<path d="M131.096 60.4629C128.471 58.3629 125.759 57.8838 123.246 59.1046C121.134 60.1213 119.538 62.1421 118.921 63.8671C123.988 65.5796 131.692 70.8296 131.692 86.9879C131.692 89.9379 131.429 93.2213 130.854 96.9171C128.338 113.392 119.179 124.592 111.846 126.746C109.679 127.384 107.721 127.205 106.117 126.325C113.379 117.375 116.863 107.755 118.513 100.921C119.8 95.6129 120.321 91.2546 120.321 87.6879C120.321 81.3213 118.7 77.4505 116.984 75.1463C114.375 71.6713 111.079 71.0046 109.329 70.9129C101.634 70.5379 93.1127 81.9296 90.721 95.7671C90.0293 99.7671 89.6627 103.463 89.6627 106.842C89.6627 115.525 91.9585 122.267 96.5377 127.275C93.146 132.605 86.2377 136.246 80.7668 135C78.3502 134.455 73.2877 132.196 73.2877 122.896C73.2877 121.575 73.3877 120.134 73.6085 118.534C75.6002 104.271 82.1293 88.4796 86.7418 78.9421L86.8543 78.7379C88.8585 74.5421 90.5793 71.2296 91.7293 69.2088H91.421C74.946 69.7629 63.4543 73.8755 58.1252 81.1546C58.1252 81.1546 53.6793 86.8504 53.8335 92.6296C53.921 95.9879 55.1002 98.9505 57.6627 101.025L57.996 101.288C59.996 102.855 62.771 102.821 64.4627 101.109C66.3168 99.2421 66.196 96.1171 64.2127 94.1213C63.1793 93.0879 61.8585 92.5504 60.5585 92.5338H60.5168C61.6877 85.9213 69.296 80.8088 78.496 80.8088L79.7085 80.8504L79.5377 81.1838L77.6252 84.7588C74.2168 91.0879 68.9543 103.621 67.2877 110.3C64.6752 120.763 65.4335 129.95 69.4085 136.159C71.6127 139.605 74.6627 141.83 77.9668 142.455C85.2543 143.821 90.571 141.5 93.7543 139.317C96.4043 137.496 99.0002 134.65 100.821 131.638C102.992 133.046 106.646 134.555 109.713 134.513C114.917 134.438 122.529 131.85 129.184 119.975C134.734 110.071 138.067 97.3838 138.296 85.1754C138.538 73.5046 135.838 64.2796 131.096 60.4671M107.792 81.4629C119.417 82.1879 106.313 118.5 101.254 124.309C92.9418 109.267 96.046 80.7213 107.792 81.4629Z" fill="#AB0003"/>
</g>
<defs>
<clipPath id="clip0_18_1254">
<rect width="200" height="200" fill="white"/>
</clipPath>
</defs>
</svg>
