<svg width="24" height="24" viewBox="0 0 24 24" fill="none" xmlns="http://www.w3.org/2000/svg">
<path d="M16.5 17H20C21.1046 17 22 16.1046 22 15V7.2111C22 6.4214 21.7703 5.64404 21.2161 5.08146C19.9196 3.76537 16.9666 1.5 12 1.5C7.03338 1.5 4.08042 3.76536 2.78393 5.08146C2.22974 5.64404 2 6.4214 2 7.2111V15C2 16.1046 2.89543 17 4 17H7.5M15.5 22L17 12H7L8.5 22L12 18.5L15.5 22ZM15.5 22L7.50001 13.9996M10.5 12.0001L15.8132 17.3132M8 9V7.5C8 6.94772 8.44772 6.5 9 6.5H15C15.5523 6.5 16 6.94772 16 7.5V9M19 12H5" stroke="black" stroke-width="1.5" stroke-linecap="round" stroke-linejoin="round"/>
</svg>
