<svg width="24" height="24" viewBox="0 0 24 24" fill="none" xmlns="http://www.w3.org/2000/svg">
<path d="M4 10H7M8.52443 18.7135C8.08509 20.089 7.5 20.7855 7.5 20.7855H3.5C3.5 20.7855 2 19 2 15.5C2 13.5319 2.79047 11.722 3.48244 10.5146C3.99678 9.61709 3.89878 8.41349 3.62497 7.41598C3.54886 7.13868 3.5 6.83156 3.5 6.5C3.5 5 4.24975 3.99997 5.50005 4C6.75032 4.00003 7.5 5 7.5 6.5C7.5 6.83156 7.45114 7.13868 7.37503 7.41598C7.10122 8.41349 7.00322 9.61709 7.51756 10.5146C7.8147 11.033 8.13 11.6626 8.39308 12.3681M20 10H17M15.4756 18.7135C15.9149 20.089 16.5 20.7855 16.5 20.7855H20.5C20.5 20.7855 22 19 22 15.5C22 13.5319 21.2095 11.722 20.5176 10.5146C20.0032 9.61709 20.1012 8.41349 20.375 7.41598C20.4511 7.13868 20.5 6.83156 20.5 6.5C20.5 5 19.7503 3.99997 18.5 4C17.2497 4.00003 16.5 5 16.5 6.5C16.5 6.83156 16.5489 7.13868 16.625 7.41598C16.8988 8.41349 16.9968 9.61709 16.4824 10.5146C16.1853 11.033 15.87 11.6626 15.6069 12.3681M10.5 8.5H13.5M10 4.5C10 3 10.7497 1.99997 12 2C13.2503 2.00003 14 3 14 4.5C14 4.93595 13.9155 5.32966 13.7957 5.66886C13.49 6.53419 13.3291 7.55147 13.7481 8.36797C14.6367 10.0994 16 13.1406 16 15.5C16 19 14 21.7855 14 21.7855H10C10 21.7855 8 19 8 15.5C8 13.1406 9.36334 10.0994 10.2519 8.36797C10.6709 7.55147 10.51 6.53419 10.2043 5.66886C10.0845 5.32966 10 4.93595 10 4.5Z" stroke="black" stroke-width="1.5" stroke-linecap="round" stroke-linejoin="round"/>
</svg>
