<svg width="24" height="24" viewBox="0 0 24 24" fill="none" xmlns="http://www.w3.org/2000/svg">
<path d="M3.40218 10.3007L14.8337 16.9007M17.9997 13.6171C15.5247 17.9039 10.8891 19.0381 7.20629 16.9118C3.52344 14.7855 2.18789 10.2039 4.66289 5.91708C7.13789 1.63025 11.7734 0.496076 15.4563 2.62237C19.1391 4.74866 20.4747 9.33025 17.9997 13.6171ZM6.29128 16.2966L8.08468 17.3502L5.88523 22.4999L3.02734 20.8499L6.29128 16.2966ZM20.9997 19.9999C20.9997 21.1045 20.1043 21.9999 18.9997 21.9999C17.8951 21.9999 16.9997 21.1045 16.9997 19.9999C16.9997 18.8954 17.8951 17.9999 18.9997 17.9999C20.1043 17.9999 20.9997 18.8954 20.9997 19.9999Z" stroke="black" stroke-width="1.5" stroke-linejoin="round"/>
</svg>
