<svg width="24" height="24" viewBox="0 0 24 24" fill="none" xmlns="http://www.w3.org/2000/svg">
<g clip-path="url(#clip0_15068_336)">
<path d="M11.9999 12.0004C13.8006 12.0004 15.4902 12.4763 16.9496 13.3093M11.9999 12.0004C11.0996 13.5598 9.84274 14.785 8.39173 15.6325M11.9999 12.0004C11.0996 10.441 10.667 8.73988 10.6587 7.05954M16.9496 13.3093C16.7626 13.7116 16.5562 14.1091 16.3301 14.5006C16.1041 14.8921 15.8631 15.2694 15.6083 15.6325C13.5652 18.5436 10.6324 20.5323 7.39873 21.441M16.9496 13.3093C18.6583 14.2845 20.0516 15.7491 20.9386 17.5122M8.39173 15.6325C8.13687 15.2693 7.89585 14.8919 7.66982 14.5004C5.63194 10.9707 5.19167 6.957 6.12464 3.29666M8.39173 15.6325C6.69264 16.6248 4.72738 17.0992 2.75678 16.9858M10.6587 7.05954C10.6498 5.28516 11.114 3.53393 11.9999 1.99713C12.0961 1.83032 12.1972 1.66605 12.3032 1.50454M10.6587 7.05954C11.1005 7.02039 11.5479 7.00039 12 7.00039C16.0754 7.00039 19.7711 8.62565 22.4745 11.2634M6.12464 3.29666C3.33427 5.184 1.5 8.37791 1.5 12.0002C1.5 13.8046 1.9551 15.5026 2.75678 16.9858M6.12464 3.29666C7.80137 2.16256 9.82334 1.50024 12 1.50024C12.1014 1.50024 12.2025 1.50168 12.3032 1.50454M12.3032 1.50454C17.7159 1.65803 22.1033 5.90786 22.4745 11.2634M22.4745 11.2634C22.4914 11.5068 22.5 11.7525 22.5 12.0002C22.5 14.0219 21.9287 15.9101 20.9386 17.5122M20.9386 17.5122C19.0888 20.5056 15.7773 22.5002 12 22.5002C10.3496 22.5002 8.78818 22.1195 7.39873 21.441M7.39873 21.441C5.42504 20.4773 3.79838 18.9128 2.75678 16.9858" stroke="black" stroke-width="1.5" stroke-linecap="round"/>
</g>
<defs>
<clipPath id="clip0_15068_336">
<rect width="24" height="24" fill="white"/>
</clipPath>
</defs>
</svg>
