<svg width="509" height="99" viewBox="0 0 509 99" fill="none" xmlns="http://www.w3.org/2000/svg">
<path d="M63.9197 77.1262H89.4478L85.0149 98.0685H59.4868L63.9197 77.1262Z" fill="white"/>
<path d="M4.43291 77.1262H29.961L25.5281 98.0685H0L4.43291 77.1262Z" fill="white"/>
<path d="M20.4329 4H45.961L41.5281 24.9423H16L20.4329 4Z" fill="#D67300"/>
<path d="M50.2114 0H75.7396L54.784 99H29.2559L50.2114 0Z" fill="white"/>
<path d="M120.679 88.1697L130.745 33.8928H115.004L118.431 15.2284H173.149L169.723 33.8928H154.089L144.023 88.1697H120.679Z" fill="white"/>
<path d="M163.785 88.1697L177.705 13.083H200.299L195.588 38.1834C198.051 36.4672 201.156 35.609 204.69 35.609H210.686C220.002 35.609 225.142 42.2595 223.108 53.4153L216.683 88.1697H194.089L199.871 56.7405C200.299 54.2734 199.443 53.0935 197.194 53.0935H196.444C193.874 53.0935 192.697 54.2734 192.268 56.7405L186.379 88.1697H163.785Z" fill="white"/>
<path d="M240.732 88.5987C228.846 88.5987 221.993 81.5191 224.028 70.4707L227.133 53.7371C229.168 42.6886 237.627 35.609 250.584 35.609H262.042C273.821 35.609 280.781 42.6886 278.746 53.7371L276.926 63.8201H247.157L246.087 69.6125C245.658 71.7579 247.05 73.0451 249.299 73.0451H250.584C253.047 73.0451 254.332 71.7579 254.867 69.6125L255.188 68.2181H276.069L275.641 70.4707C273.499 81.5191 264.719 88.5987 252.19 88.5987H240.732ZM248.549 56.2042H257.33L257.973 52.6644C258.401 50.6263 257.33 49.3391 254.974 49.3391H253.689C250.905 49.3391 249.62 50.6263 249.299 52.6644L248.549 56.2042Z" fill="white"/>
<path d="M295.708 88.1697L309.2 15.2284H348.07C359.421 15.2284 365.632 22.2007 363.597 33.4637L361.241 45.7993C359.1 57.1696 351.176 63.3911 339.183 63.3911H323.656L319.051 88.1697H295.708ZM326.761 46.6575H333.829C336.613 46.6575 338.54 45.0485 338.969 42.4741L340.146 36.4672C340.575 33.8928 339.183 32.2838 336.399 32.2838H329.331L326.761 46.6575Z" fill="white"/>
<path d="M357.25 88.1697L366.887 36.0381H389.374L379.737 88.1697H357.25ZM368.922 23.1661C368.922 16.5156 374.276 10.4014 382.521 10.4014C388.732 10.4014 392.587 13.9412 392.587 19.7336C392.587 26.2768 387.447 32.7128 379.416 32.7128C373.098 32.7128 368.922 28.9585 368.922 23.1661Z" fill="white"/>
<path d="M404.395 88.5987C392.616 88.5987 385.656 81.5191 387.69 70.4707L390.796 53.7371C392.723 42.6886 401.611 35.609 414.247 35.609H427.096C438.982 35.609 445.835 42.6886 443.801 53.7371L442.623 60.0658H421.528L422.278 55.8824C422.706 53.6298 421.528 52.4499 419.279 52.4499H416.174C413.604 52.4499 412.212 53.6298 411.784 55.8824L409.428 68.3253C409.107 70.5779 410.177 71.7579 412.533 71.7579H415.639C418.101 71.7579 419.601 70.5779 419.922 68.3253L420.564 64.7855H441.659L440.588 70.4707C438.554 81.5191 429.773 88.5987 417.245 88.5987H404.395Z" fill="white"/>
<path d="M441.539 88.1697L455.459 13.083H478.053L471.629 47.9447L482.979 36.0381H509L489.083 53.9516L502.04 88.1697H479.338L472.378 69.0762L466.703 74.1177L464.133 88.1697H441.539Z" fill="white"/>
</svg>
