<svg width="200" height="200" viewBox="0 0 200 200" fill="none" xmlns="http://www.w3.org/2000/svg">
<g clip-path="url(#clip0_18_260)">
<path d="M100 200C44.8803 200 0 155.12 0 100C0 44.8803 44.8803 0 100 0C155.12 0 200 44.8803 200 100C200 155.12 155.12 200 100 200Z" fill="#C8102E"/>
<path d="M100 195.412C47.407 195.412 4.58789 152.593 4.58789 100C4.58789 47.407 47.407 4.58789 100 4.58789C152.593 4.58789 195.412 47.407 195.412 100C195.412 152.593 152.593 195.412 100 195.412Z" fill="white"/>
<path d="M100 190.758C82.05 190.758 64.5028 185.435 49.5778 175.463C34.6527 165.49 23.02 151.316 16.1508 134.732C9.28151 118.148 7.4842 99.8995 10.9861 82.2942C14.488 64.6889 23.1319 48.5174 35.8246 35.8246C48.5174 23.1319 64.6889 14.488 82.2942 10.9861C99.8995 7.4842 118.148 9.28151 134.732 16.1508C151.316 23.02 165.49 34.6527 175.463 49.5778C185.435 64.5028 190.758 82.05 190.758 100C190.739 124.065 181.17 147.138 164.154 164.154C147.138 181.17 124.065 190.739 100 190.758Z" fill="#C8102E"/>
<path d="M162.035 100.001C162.035 112.271 158.396 124.264 151.58 134.466C144.763 144.667 135.075 152.619 123.74 157.314C112.404 162.009 99.9311 163.238 87.8976 160.844C75.8641 158.45 64.8106 152.542 56.1349 143.866C47.4592 135.191 41.551 124.137 39.1573 112.104C36.7637 100.07 37.9922 87.5971 42.6875 76.2618C47.3827 64.9264 55.3338 55.238 65.5354 48.4215C75.7369 41.6051 87.7306 37.9668 99.9999 37.9668C108.147 37.9644 116.215 39.5673 123.742 42.6839C131.27 45.8006 138.11 50.3699 143.87 56.1309C149.631 61.8918 154.201 68.7314 157.317 76.2589C160.434 83.7864 162.037 91.8542 162.035 100.001Z" fill="white"/>
<path d="M99.9998 42.4865C90.9921 42.4631 82.1048 44.5569 74.0549 48.5992C66.005 52.6415 59.0178 58.519 53.6567 65.7578C55.186 66.2232 58.1115 67.0211 61.702 68.0849C67.3536 69.7472 86.17 75.2658 89.694 76.3961C99.9333 79.7206 102.659 80.9839 105.518 84.0424C108.377 87.1674 112.766 90.6913 117.088 93.6833C121.409 96.6753 123.471 99.9333 123.471 105.12C123.471 110.306 119.481 114.694 117.021 116.157C117.021 116.157 117.885 113.697 116.689 112.566C115.492 111.436 111.702 109.375 102.061 110.04C92.4201 110.771 79.4546 115.425 70.678 120.146C70.678 120.146 74.8669 113.564 81.1169 110.572C81.1169 110.572 75.9307 110.572 47.0078 123.205C51.1424 132.789 57.7947 141.075 66.2586 147.184C74.7226 153.293 84.6824 156.997 95.0814 157.902C105.48 158.807 115.93 156.88 125.322 152.326C134.715 147.771 142.699 140.759 148.427 132.033C154.156 123.308 157.415 113.194 157.86 102.765C158.304 92.336 155.917 81.9815 150.952 72.7999C145.986 63.6183 138.628 55.9523 129.657 50.6152C120.686 45.2782 110.438 42.4693 99.9998 42.4865ZM99.9998 145.412C94.0007 145.422 88.0607 144.227 82.5326 141.897C77.0044 139.567 72.0008 136.15 67.819 131.848C91.1568 119.814 105.718 122.939 105.718 125.266C105.718 127.659 102.128 133.244 102.128 133.244C121.143 130.585 135.04 119.082 135.04 103.657C135.04 88.1647 120.545 80.7179 116.888 78.4573C112.965 75.9972 114.827 72.6727 101.862 67.819C93.9493 64.8269 82.9121 61.9014 78.5903 60.8376C84.6189 57.5558 91.318 55.6957 98.1755 55.3994C105.033 55.1032 111.868 56.3787 118.157 59.1284C124.446 61.8781 130.023 66.0293 134.462 71.2646C138.901 76.5 142.085 82.6809 143.769 89.335C145.454 95.989 145.595 102.94 144.181 109.657C142.768 116.374 139.837 122.679 135.614 128.09C131.391 133.501 125.986 137.874 119.814 140.877C113.641 143.879 106.864 145.43 99.9998 145.412Z" fill="#C8102E"/>
<path d="M99.5344 85.3057C97.2158 85.3921 94.9111 84.9128 92.819 83.9094C89.4281 82.2472 84.2419 78.4573 79.7871 82.5797C79.7871 82.5797 83.577 82.1142 83.2446 83.1116C82.9121 84.1089 82.5797 89.8935 87.6993 92.0876C92.952 94.2818 98.936 92.6196 99.5344 85.3057Z" fill="#C8102E"/>
<path d="M32.0477 146.209L32.6461 147.007L40.9573 140.624L40.3589 139.826L42.2206 138.363L44.8802 141.821C46.8749 144.414 46.6754 146.342 44.6807 147.871C43.2844 148.935 42.0211 149.002 40.7578 148.337C41.2898 150.065 40.8243 151.196 39.1621 152.459C36.968 154.121 34.7738 153.456 32.9121 151.129L30.186 147.605L32.0477 146.209ZM34.9068 149.932C35.6382 150.863 36.6355 151.063 37.8323 150.132C39.0291 149.201 39.0291 148.27 38.2312 147.339L37.6993 146.674L34.3749 149.268L34.9068 149.932ZM39.8935 145.81C40.6249 146.741 41.5557 146.807 42.6195 146.01C43.6834 145.212 43.8164 144.281 43.0185 143.283L42.6195 142.752L39.4281 145.212L39.8935 145.81Z" fill="white"/>
<path d="M41.9551 158.177L42.5535 158.709L53.4578 151.062L55.6519 152.991L49.5349 164.826L50.0668 165.291L48.5376 167.02L44.8142 163.762L46.2769 162.1L47.2078 162.898L48.0056 161.435L45.8115 159.507L44.4817 160.504L45.4126 161.302L43.9498 162.964L40.3594 159.839L41.9551 158.177ZM49.136 159.706L51.6626 155.251L47.5402 158.31L49.136 159.706Z" fill="white"/>
<path d="M56.3827 170.878L55.8508 171.875L54.1221 170.878L56.6487 166.49L58.5769 167.62C57.646 169.415 57.8455 170.479 58.9093 171.078C59.9066 171.676 60.638 171.476 61.1699 170.546C62.4332 168.351 57.5795 165.027 59.9066 161.171C61.1699 158.976 63.3641 158.578 65.1593 159.641C66.2231 160.24 66.8215 161.038 66.6886 162.035L67.2205 161.038L68.9492 162.035L66.5556 166.224L64.5609 165.094C65.2923 163.631 65.2923 162.7 64.3614 162.168C64.2022 162.043 64.0172 161.955 63.8198 161.911C63.6224 161.866 63.4176 161.866 63.2202 161.911C63.0229 161.955 62.8379 162.043 62.6788 162.168C62.5196 162.293 62.3903 162.452 62.3003 162.633C61.1035 164.695 65.8242 168.086 63.5636 171.942C62.1673 174.336 59.9731 174.535 57.9785 173.405C57.0476 172.74 56.3162 171.942 56.3827 170.878Z" fill="white"/>
<path d="M69.8802 176.529L70.8111 176.861L74.0691 166.888L73.1382 166.555L73.8031 164.361L78.2579 165.758L77.593 167.952L76.7286 167.686L75.2659 172.34L79.2552 168.484L78.7233 168.284L79.3882 166.09L83.4441 167.42L82.7127 169.68L81.7818 169.348L78.5903 172.274L79.0558 179.521L79.8536 179.72L79.1222 181.915L74.8004 180.518L75.4653 178.391L76.2632 178.657L75.9308 174.268L74.0691 176.063L73.5371 177.792L74.335 177.992L73.6701 180.119L69.2153 178.723L69.8802 176.529Z" fill="white"/>
<path d="M88.0984 181.317L89.0957 181.45L90.0266 171.011L89.0292 170.944L89.2287 168.551L98.3378 169.349L97.8723 174.136L95.2792 173.936L95.4787 171.343L92.8856 171.077L92.5532 175.133L94.8803 175.399L94.6808 177.726L92.3537 177.527L91.9548 181.782L94.6144 182.048L94.8138 179.123L97.4734 179.389L97.0745 184.442L87.8989 183.644L88.0984 181.317Z" fill="white"/>
<path d="M108.178 181.714L109.441 181.515L108.045 171.01L106.449 171.209L106.782 173.802L104.588 174.135L103.923 169.347L114.362 167.951L115.027 172.738L112.832 173.004L112.5 170.411L110.904 170.611L112.301 181.183L113.564 180.983L113.83 183.244L108.444 183.975L108.178 181.714Z" fill="white"/>
<path d="M124.667 178.459L125.598 178.127L121.875 168.353L120.944 168.685L120.08 166.491L124.202 164.962C127.26 163.765 129.056 164.563 129.92 166.89C130.518 168.486 130.252 169.749 129.255 170.747C131.05 170.68 132.048 171.544 132.779 173.473C133.776 176.066 132.447 177.994 129.654 179.058L125.465 180.653L124.667 178.459ZM126.529 170.813C127.659 170.414 127.992 169.483 127.526 168.286C127.061 167.023 126.263 166.691 125.066 167.09L124.468 167.289L125.864 171.013L126.529 170.813ZM128.989 176.797C130.119 176.398 130.585 175.467 130.053 174.071C129.521 172.675 128.657 172.409 127.46 172.874L126.662 173.207L128.191 177.13L128.989 176.797Z" fill="white"/>
<path d="M138.298 172.805L138.963 172.406L134.907 159.773L137.433 158.244L146.941 167.553L147.54 167.154L148.737 169.082L144.548 171.675L143.351 169.813L144.415 169.148L143.284 167.952L140.758 169.481L141.29 171.077L142.354 170.412L143.55 172.273L139.495 174.733L138.298 172.805ZM141.822 166.356L138.298 162.632L139.96 167.486L141.822 166.356Z" fill="white"/>
<path d="M152.659 163.098L153.391 162.433L146.21 154.787L145.479 155.452L143.883 153.723L147.54 150.332L149.135 152.061L148.338 152.792L155.518 160.505L157.314 158.843L155.319 156.781L157.247 154.92L160.705 158.643L154.189 164.76L152.659 163.098Z" fill="white"/>
<path d="M163.298 152.393L163.83 151.596L155.452 145.412L154.854 146.143L152.992 144.747L155.918 140.758L157.846 142.154L157.181 143.085L165.692 149.335L167.088 147.407L164.761 145.678L166.357 143.55L170.412 146.609L165.093 153.79L163.298 152.393Z" fill="white"/>
<path d="M30.5185 81.6503L30.7845 80.8524L19.6143 73.6051L20.6116 70.8125L33.843 72.0758L34.1089 71.4109L36.2366 72.1423L34.6409 76.7965L32.5132 76.0652L32.9121 74.9348L31.2499 74.7354L30.2526 77.5279L31.6488 78.3923L32.0478 77.1955L34.1754 77.9269L32.6462 82.3817L30.5185 81.6503ZM29.2552 74.4029L24.202 73.738L28.5238 76.3976L29.2552 74.4029Z" fill="white"/>
<path d="M36.968 65.757L37.6329 64.6932L28.5239 59.2411L27.6595 60.6373L29.9201 61.9671L28.7898 63.8953L24.6675 61.4352L30.0531 52.3262L34.1755 54.7863L33.0451 56.7145L30.7845 55.3847L29.9866 56.781L39.0957 62.2331L39.7606 61.1028L41.7552 62.2996L38.9627 66.9538L36.968 65.757Z" fill="white"/>
<path d="M44.4146 54.5878L45.0794 53.8564L37.4332 46.7421L36.7683 47.407L35.0396 45.8112L38.4305 42.1543L40.1592 43.8165L39.4278 44.6144L47.1406 51.7953L48.8029 50.0665L46.6752 48.0719L48.4704 46.1437L52.1938 49.6011L46.1433 56.1171L44.4146 54.5878Z" fill="white"/>
<path d="M54.2557 44.6159L54.9206 44.1504L50.0669 31.7834L52.4605 30.0547L62.5004 38.7648L63.0988 38.3659L64.4286 40.2276L60.4392 43.0866L59.1759 41.2914L60.1733 40.56L58.9765 39.4297L56.5828 41.0919L57.2477 42.6212L58.2451 41.8898L59.5084 43.685L55.652 46.4111L54.2557 44.6159ZM57.4472 37.9669L53.7238 34.443L55.7185 39.1637L57.4472 37.9669Z" fill="white"/>
<path d="M67.8855 35.7037L68.7498 35.3713L64.8269 25.6638L63.8961 25.9963L63.0317 23.8021L66.6222 22.3393L73.1381 28.7888L70.811 23.2037L70.0131 23.5362L69.0823 21.342L73.2711 19.6133L74.2019 21.8074L73.2711 22.2064L78.1248 33.975L75.7312 34.9723L68.7498 28.2569L71.2764 34.3074L72.0743 33.975L72.9386 36.1026L68.7498 37.8314L67.8855 35.7037Z" fill="white"/>
<path d="M84.7736 29.9179L86.0369 29.7185L84.1752 19.2131L82.5794 19.4791L83.0448 22.0722L80.8507 22.4711L79.9863 17.7504L90.4252 15.8887L91.223 20.6094L89.0289 21.0084L88.5635 18.4153L86.9677 18.6812L88.8294 29.1865L90.0927 28.9871L90.4917 31.1812L85.1725 32.1786L84.7736 29.9179Z" fill="white"/>
<path d="M96.0103 28.2582H96.8082L100.199 15.4258L103.125 15.4923L106.05 28.4577H106.782L106.715 30.7183L101.795 30.6518L101.861 28.4577H103.058L102.792 26.7955L99.8667 26.729L99.4678 28.3247H100.731L100.665 30.5189L95.9438 30.4524L96.0103 28.2582ZM102.46 24.8008L101.529 19.7476L100.332 24.7343L102.46 24.8008Z" fill="white"/>
<path d="M117.753 30.3863L118.684 30.6523L122.075 20.7453L121.144 20.4794L121.942 18.2188L126.596 19.8145L125.798 21.9422L124.867 21.6097L123.604 25.2666L126.662 26.3305L127.926 22.6735L126.928 22.3411L127.66 20.1469L132.314 21.7427L131.583 24.0033L130.585 23.6709L127.261 33.5778L128.192 33.9102L127.46 36.0379L122.806 34.4422L123.537 32.381L124.535 32.7134L125.865 28.7241L122.806 27.6602L121.41 31.6496L122.407 31.982L121.676 34.1097L117.021 32.514L117.753 30.3863Z" fill="white"/>
<path d="M133.111 36.2357L133.776 36.6347L143.284 27.3262L145.811 28.8554L141.689 41.4884L142.287 41.8873L141.09 43.8155L136.901 41.2224L138.098 39.3607L139.162 40.0256L139.76 38.4964L137.234 36.9671L136.037 38.1639L137.101 38.8288L135.904 40.6905L131.848 38.1639L133.111 36.2357ZM140.425 36.5682L142.22 31.781L138.63 35.4379L140.425 36.5682Z" fill="white"/>
<path d="M152.992 36.9658L152.327 36.3009L153.99 34.6387L157.314 37.8967L155.718 39.5589L155.053 38.894L150.998 44.4126L158.511 39.0935L160.24 40.8222L155.053 48.4685L160.506 44.2796L159.907 43.6812L161.503 42.019L164.628 45.144L162.966 46.8062L162.301 46.1413L151.729 53.7211L149.867 51.8594L155.253 43.9472L147.407 49.4658L145.545 47.6041L152.992 36.9658Z" fill="white"/>
<path d="M157.713 57.2469L158.245 58.0448L167.088 52.4597L166.556 51.6618L168.551 50.332L171.077 54.3214L169.083 55.5182L168.617 54.7868L164.495 57.4464L170.013 57.0475L169.747 56.5155L171.676 55.3187L173.936 58.9092L171.942 60.1725L171.41 59.3081L167.088 59.5076L162.899 65.3586L163.298 66.09L161.37 67.2868L158.91 63.4304L160.771 62.2336L161.237 62.965L163.83 59.3081L161.237 59.5741L159.708 60.5049L160.173 61.2363L158.311 62.4331L155.785 58.4437L157.713 57.2469Z" fill="white"/>
<path d="M164.96 72.6063L163.896 73.0053L163.165 71.1436L167.886 69.3484L168.684 71.4095C166.822 72.2074 166.357 73.2048 166.755 74.3351C167.154 75.3989 167.886 75.7314 168.817 75.3324C171.21 74.4016 169.482 68.8165 173.67 67.2207C175.997 66.2899 177.992 67.3537 178.724 69.2819C179.122 70.4122 179.189 71.4095 178.458 72.0744L179.521 71.6755L180.253 73.5372L175.732 75.2659L174.934 73.1383C176.396 72.4734 176.995 71.742 176.596 70.6782C176.549 70.4856 176.461 70.3055 176.338 70.1504C176.214 69.9954 176.058 69.8692 175.881 69.7806C175.704 69.6919 175.509 69.6431 175.311 69.6373C175.113 69.6316 174.916 69.6691 174.734 69.7473C172.54 70.6117 174.069 76.1968 169.947 77.7925C167.354 78.7899 165.492 77.5266 164.694 75.3989C164.362 74.4681 164.295 73.3377 164.96 72.6063Z" fill="white"/>
</g>
<defs>
<clipPath id="clip0_18_260">
<rect width="200" height="200" fill="white"/>
</clipPath>
</defs>
</svg>
