<svg width="200" height="200" viewBox="0 0 200 200" fill="none" xmlns="http://www.w3.org/2000/svg">
<g clip-path="url(#clip0_2_832)">
<path d="M190.998 94.3378C190.998 70.1809 181.583 47.467 164.489 30.3753C150.077 15.9693 131.905 7.0752 111.848 4.58485C111.556 4.36302 111.255 4.15239 110.946 3.95344C102.093 -1.74378 94.333 2.07946 90.1722 4.13885L89.2648 4.57981C83.0638 5.35149 76.953 6.76948 71.0378 8.8089C70.747 8.49319 70.4462 8.17753 70.1404 7.87191C65.0623 2.79093 58.3149 0 51.1313 0C36.308 0 24.2469 12.0559 24.2469 26.8727C24.2469 31.7182 25.4951 36.3281 27.8912 40.4068C16.3314 55.9402 10 74.9461 10 94.3378C10 118.5 19.4143 141.219 36.5085 158.305C43.9527 165.746 52.4698 171.749 61.8541 176.179C61.859 177.832 62.0194 179.366 62.3302 180.739C61.9543 181.335 61.6284 182.016 61.3928 182.803C59.1671 186.882 61.2525 191.386 67.8495 196.402C71.8649 199.474 74.988 200 77.5697 200C78.2665 200 78.9281 199.96 79.5548 199.925L80.4922 199.875C85.0239 199.689 88.7235 196.603 91.5207 193.346L95.892 192.689C97.6766 192.424 99.8874 191.988 102.775 190.77C107.166 188.921 108.956 186.416 109.638 184.341C120.175 183.304 130.261 180.473 139.735 175.903C140.001 177.361 140.277 179.396 140.502 182.021C140.808 185.604 141.43 188.059 143.024 193.185C144.377 197.545 146.648 199.549 149.821 199.163C151.275 198.983 154.689 197.915 155.015 191.607C155.1 189.898 155.326 185.354 155.13 181.896C154.854 177.191 155.065 173.969 155.301 173.187C155.772 171.689 156.188 169.058 154.699 166.794C158.163 164.198 161.441 161.352 164.489 158.305C181.583 141.214 190.998 118.5 190.998 94.3378" fill="#FEFEFE"/>
<path d="M184.988 94.0617C184.988 71.4185 176.167 50.1311 160.155 34.1192C146.327 20.2876 128.563 11.8313 109.389 9.78345C108.945 9.34123 108.446 8.93345 107.881 8.571C101.094 4.20512 95.4282 7.44737 91.5009 9.35574C91.2182 9.49347 90.8884 9.65655 90.5169 9.84687C83.1244 10.6914 76.0201 12.4947 69.3254 15.1225C68.5254 13.9245 67.6094 12.8082 66.5906 11.7897C62.4948 7.69381 57.0488 5.4375 51.2548 5.4375C39.2953 5.4375 29.5668 15.1678 29.5668 27.1273C29.5668 32.1384 31.2577 36.8903 34.3658 40.7324C22.5368 55.3088 15.438 73.8688 15.438 94.0617C15.438 116.707 24.2567 137.996 40.2667 154.008C48.0869 161.826 57.172 167.926 67.051 172.125C66.5 176.605 67.2267 179.645 68.0459 180.892C66.7991 181.941 66.2753 182.595 66.0777 183.773C64.1132 186.461 68.8959 189.868 70.8604 191.374C74.8983 194.469 77.0205 193.931 80.1649 193.801C84.0469 193.638 87.6987 189.08 89.7992 186.133C93.991 185.544 94.7776 186.198 94.9081 186.722C96.2184 186.526 98.0524 186.198 100.543 185.149C106.204 182.766 104.604 179.844 104.017 179.319C103.863 179.184 103.74 178.994 103.62 178.766C117.06 178.237 129.942 174.592 141.438 168.176C141.842 168.629 142.262 169.148 142.674 169.753C143.919 171.589 144.573 177.55 144.836 180.629C145.098 183.708 145.622 185.808 147.128 190.653C148.634 195.503 149.225 191.965 149.292 190.653C149.357 189.344 149.618 184.627 149.423 181.218C149.225 177.811 149.16 172.897 149.816 170.801C150.472 168.706 149.292 168.18 148.964 167.789C148.634 167.393 148.964 167.263 148.111 164.577C148.063 164.429 148.025 164.271 147.994 164.111C152.306 161.154 156.38 157.785 160.155 154.008C176.167 137.996 184.988 116.707 184.988 94.0617Z" fill="white"/>
<path d="M184.988 94.0617C184.988 71.4185 176.167 50.1311 160.155 34.1192C146.327 20.2876 128.563 11.8313 109.389 9.78345C108.945 9.34123 108.446 8.93345 107.881 8.571C101.094 4.20512 95.4282 7.44737 91.5009 9.35574C91.2182 9.49347 90.8884 9.65655 90.5169 9.84687C83.1244 10.6914 76.0201 12.4947 69.3254 15.1225C68.5254 13.9245 67.6094 12.8082 66.5906 11.7897C62.4948 7.69381 57.0488 5.4375 51.2548 5.4375C39.2953 5.4375 29.5668 15.1678 29.5668 27.1273C29.5668 32.1384 31.2577 36.8903 34.3658 40.7324C22.5368 55.3088 15.438 73.8688 15.438 94.0617C15.438 116.707 24.2567 137.996 40.2667 154.008C48.0869 161.826 57.172 167.926 67.051 172.125C66.5 176.605 67.2267 179.645 68.0459 180.892C66.7991 181.941 66.2753 182.595 66.0777 183.773C64.1132 186.461 68.8959 189.868 70.8604 191.374C74.8983 194.469 77.0205 193.931 80.1649 193.801C84.0469 193.638 87.6987 189.08 89.7992 186.133C93.991 185.544 94.7776 186.198 94.9081 186.722C96.2184 186.526 98.0524 186.198 100.543 185.149C106.204 182.766 104.604 179.844 104.017 179.319C103.863 179.184 103.74 178.994 103.62 178.766C117.06 178.237 129.942 174.592 141.438 168.176C141.842 168.629 142.262 169.148 142.674 169.753C143.919 171.589 144.573 177.55 144.836 180.629C145.098 183.708 145.622 185.808 147.128 190.653C148.634 195.503 149.225 191.965 149.292 190.653C149.357 189.344 149.618 184.627 149.423 181.218C149.225 177.811 149.16 172.897 149.816 170.801C150.472 168.706 149.292 168.18 148.964 167.789C148.634 167.393 148.964 167.263 148.111 164.577C148.063 164.429 148.025 164.271 147.994 164.111C152.306 161.154 156.38 157.785 160.155 154.008C176.167 137.996 184.988 116.707 184.988 94.0617Z" fill="#061922"/>
<path d="M80.1638 173.16C83.3118 173.028 87.6994 172.047 89.6984 171.194C89.9612 171.261 90.3871 171.522 91.0431 171.783C91.3023 169.688 89.9612 165.331 89.2073 163.33C88.707 162.005 88.2232 161.105 87.6341 159.729C85.8653 159.399 83.6706 158.451 82.0975 157.795C82.0975 159.04 82.3277 162.284 82.5905 164.445C81.9362 164.512 81.0174 164.577 79.901 164.577C80.0333 166.935 80.2979 171.194 80.1638 173.16ZM139.463 166.215C138.872 165.624 140.183 163.789 140.773 160.383C141.361 156.976 141.426 151.275 138.938 148.063C137.725 146.501 137.138 145.517 136.933 144.814C129.173 150.459 120.282 154.207 110.829 155.814C110.716 156.014 110.604 156.188 110.502 156.32C109.125 158.091 106.439 160.646 104.471 161.694C102.506 162.741 100.214 163.529 98.9687 163.923C98.7078 166.018 98.367 170.697 98.9053 172.307C99.1029 172.897 101.524 174.34 102.376 175.913C102.465 176.074 102.544 176.234 102.622 176.393C115.992 176.007 128.575 172.422 139.626 166.371C139.57 166.319 139.51 166.261 139.463 166.215L139.463 166.215ZM158.455 35.8178C145.539 22.9014 129.085 14.8076 111.281 12.4316C112.707 15.2534 112.928 18.4957 113.057 20.5617C115.612 19.4471 117.577 18.8563 118.626 17.1545C119.675 15.4492 121.116 15.7772 122.033 17.0223C122.952 18.2655 122.952 19.8404 120.527 21.3465C118.102 22.8543 116.335 23.5756 115.81 23.8384C115.284 24.0975 115.744 24.5579 116.335 25.5402C116.922 26.5224 118.423 28.9509 118.693 34.058C118.695 34.107 118.699 34.1577 118.699 34.2067C128.331 37.1716 137.159 42.46 144.486 49.7872C156.317 61.6161 162.832 77.347 162.832 94.0766C162.832 103.684 160.677 112.961 156.609 121.361C157.15 121.64 157.886 123.543 158.136 126.049C158.267 127.36 158.2 128.802 157.81 129.718C157.417 130.636 154.323 135.276 152.763 136.664C152.174 137.19 150.795 137.125 150.208 136.273C149.618 135.419 149.553 135.878 149.093 136.334C148.634 136.795 147.061 139.087 146.672 139.678C146.277 140.269 144.966 140.856 145.816 143.216C146.672 145.577 147.65 147.344 147.326 148.655C146.996 149.967 146.866 150.36 148.634 151.868C150.407 153.372 150.34 155.206 149.553 156.386C149.06 157.125 148.286 159.095 147.986 161.127C168.912 146.175 182.583 121.684 182.583 94.0621C182.583 72.0605 174.012 51.3747 158.455 35.8178ZM63.8493 154.878C63.6191 152.658 63.282 148.647 64.8334 145.785C61.6727 143.61 58.6824 141.137 55.9095 138.364C44.0805 126.531 37.5653 110.806 37.5653 94.0762C37.5653 76.1615 45.1263 59.9811 57.2217 48.5562C57.3358 48.3134 57.4808 48.0814 57.6585 47.8567C55.6105 48.4874 53.4593 48.8154 51.2537 48.8154C45.4833 48.8154 40.0572 46.5736 35.9668 42.5085C24.2248 57.0814 17.8418 75.0813 17.8418 94.0617C17.8418 116.063 26.4086 136.749 41.9674 152.306C49.4251 159.764 58.0644 165.612 67.4594 169.682C67.8219 167.928 68.3655 166.009 69.1576 163.923C69.8789 162.02 68.7643 157.632 66.9284 155.338C65.9462 155.073 64.7029 154.945 63.8493 154.878L63.8493 154.878ZM85.691 12.9637C80.5154 13.8778 75.4402 15.2901 70.5364 17.181C72.1059 20.2202 72.9431 23.6075 72.9431 27.127C72.9431 31.7919 71.4788 36.2321 68.7694 39.922C73.302 37.2815 78.1934 35.19 83.3513 33.7474C83.6866 33.4194 84.0218 33.104 84.3589 32.8141C82.4578 29.6661 79.9024 24.6224 82.1316 17.8063C82.7587 15.8871 84.1396 14.2723 85.691 12.9637Z" fill="#008348"/>
<path d="M118.627 37.7922C120.461 38.7092 122.512 40.7046 121.704 44.4089C121.378 45.9168 120.118 47.3667 120.004 47.9502C119.807 48.9307 117.742 50.6017 117.086 51.9119C116.436 53.2114 116.334 54.3187 116.524 54.8787C116.526 54.886 116.53 54.8896 116.532 54.8932C117.577 55.8773 119.937 57.1876 121.246 57.6443C122.271 58.0031 122.199 58.2804 121.769 58.9564C122.492 59.0217 122.862 59.4657 123.542 60.2667C124.259 61.1203 126.161 60.5947 127.34 60.0039C128.52 59.4149 130.026 59.2174 131.208 60.66C132.386 62.1008 134.157 64.7884 135.006 67.2786C135.86 69.7669 136.777 71.7985 137.04 72.1899C137.301 72.585 136.121 79.7926 135.791 82.676C135.465 85.5576 135.202 86.8027 135.137 87.2612C135.072 87.7197 136.973 85.6247 137.04 88.113C137.089 90.0993 138.017 96.4678 139.09 101.185C139.362 102.385 139.642 103.476 139.922 104.362C140.71 104.495 141.36 106.068 141.821 108.491C142.279 110.916 143.262 112.423 143.329 113.601C143.394 114.779 143.722 114.977 144.113 115.173C144.507 115.372 144.376 115.961 143.198 117.335C143.459 117.532 143.852 117.927 144.113 118.185C144.443 117.859 145.358 116.815 145.358 116.815C145.358 116.815 148.963 118.254 149.75 118.515C150.536 118.777 151.471 116.836 153.811 117.859C154.453 118.139 155.161 119.026 155.665 119.901C159.333 112.05 161.39 103.3 161.39 94.0755C161.39 77.732 155.024 62.3654 143.466 50.8083C136.413 43.7565 127.944 38.6422 118.699 35.7207C118.672 36.6214 118.627 37.475 118.627 37.7922ZM137.561 140.857C136.645 140.399 136.047 141.064 135.596 137.452C135.466 136.404 134.616 135.025 133.96 134.373C133.303 133.717 133.224 132.49 133.564 131.422C134.088 129.784 134.222 128.28 134.157 126.969C134.088 125.657 134.351 124.021 136.185 123.231C135.531 122.513 135.203 121.594 135.007 120.875C132.321 119.988 131.785 119.912 131.239 118.613C130.324 116.431 129.759 113.245 129.487 111.509C129.353 110.651 129.262 109.859 129.242 109.145C128.381 107.518 126.471 103.902 124.992 101.186C124.541 100.338 124.08 99.4967 123.608 98.661C122.295 96.3684 123.608 93.3546 124.26 91.5857C124.916 89.8169 125.442 88.2438 124.851 86.475C124.26 84.7062 124.26 84.3111 124.131 83.5916C124.001 82.8703 123.408 81.9533 122.625 84.4452C121.837 86.9335 120.331 90.6035 119.477 94.4039C118.995 96.5624 118.658 98.9111 118.77 101.186C118.856 102.918 119.202 104.604 119.936 106.131C121.639 109.669 123.671 112.946 123.408 114.912C123.147 116.877 122.718 116.946 122.689 117.27C122.361 121.07 120.722 128.345 119.871 130.44C119.019 132.535 115.679 140.136 114.957 143.347C114.406 145.807 112.891 151.073 111.595 154.196C121.4 152.342 130.389 148.145 137.948 142.204C138.17 141.653 138.13 141.142 137.561 140.857V140.857ZM64.7422 54.8783C65.4653 55.8207 66.4131 56.6852 67.6492 57.3195C70.8606 58.956 71.5166 60.1359 71.5166 62.9522C71.5166 65.7686 72.0404 71.5371 72.9592 72.5195C73.5464 71.9305 74.2043 71.0768 74.333 70.8159C75.25 72.5195 77.0986 75.6729 80.0327 77.6302C80.2303 77.7625 80.1414 78.4838 80.6235 78.6124C81.6058 78.8752 87.9616 79.8575 88.1591 81.1697C89.4713 79.8575 91.5663 76.5826 91.9596 75.4663C92.3511 74.3553 94.6454 70.8159 96.349 68.8513C96.349 68.063 96.349 67.6044 96.4161 67.4087C95.9557 67.802 95.2363 68.7842 94.1869 69.2428C93.1376 69.7012 89.4713 71.2744 86.8489 72.5847C85.9318 73.0432 84.2935 73.5688 83.6374 68.7842C82.9814 64.0015 83.6374 61.5114 84.0959 60.3987C84.5544 59.2841 85.4062 58.3 87.0464 58.7603C88.6829 59.2188 91.3017 60.2011 92.0248 60.2011C92.1553 59.6774 92.6156 58.6933 90.8468 58.4976C89.5873 58.3562 86.3034 57.421 84.4439 54.8783C83.6918 53.8598 83.1699 52.5694 83.1137 50.9619C79.3803 51.5527 70.7953 52.6673 68.8961 53.124C66.9967 53.5844 65.3856 53.9722 64.7694 49.6516C64.5066 47.8176 64.0481 45.2622 65.3584 46.1792C66.4059 45.3927 67.8576 44.4684 70.4021 44.8707C70.8678 44.9432 71.4495 45.3329 71.6327 45.6971C71.7722 46.3333 71.5003 47.3717 71.1886 48.3413C70.625 50.0975 69.5195 51.3552 73.0898 50.536C76.8267 49.6788 81.5732 48.9648 82.8183 48.702C82.9814 47.4261 84.0307 45.4579 85.2758 44.0171C86.5245 42.5691 86.7184 41.3965 86.7836 40.938C86.8489 40.4795 86.4175 40.378 85.8013 40.938C85.08 41.5922 82.9162 42.9043 80.8845 42.3788C80.0998 42.1776 79.1175 40.6752 78.5937 39.8252C79.0233 38.9245 80.1088 37.3695 81.4463 35.8019C74.4689 38.0383 67.9391 41.5306 62.1343 46.1611C62.0962 46.8878 62.1923 48.5769 62.6707 50.4382C62.9915 51.6869 63.5878 53.3778 64.7422 54.8783H64.7422ZM69.2898 144.395C71.9739 143.348 74.0925 143.396 76.1694 146.166C76.7584 146.95 77.2169 149.247 82.2624 147.213C79.5766 144.004 77.9654 140.2 76.4974 135.091C74.1758 127.028 68.9292 117.857 70.8611 113.667C69.7484 112.616 68.438 108.556 67.0607 109.015C66.1364 109.323 64.8352 109.341 65.8809 106.262C66.3539 104.877 67.1314 103.201 68.6011 101.186C70.3954 98.7301 73.2298 95.7742 77.8059 92.2402C78.201 91.9121 78.2663 91.653 78.0035 91.3884C77.545 90.9317 77.0864 90.4079 76.6279 90.1451C76.1694 89.8823 75.7091 90.0129 75.3158 90.4079C74.9225 90.8012 74.2683 91.2597 73.875 91.5207C73.4818 91.7817 70.3374 88.7025 68.699 86.4752C67.0607 84.2478 65.3589 83.5284 64.8352 83.2656C65.4894 82.5443 66.9683 80.9802 66.4065 81.1687C65.4242 81.4949 63.7025 81.7142 61.95 79.8566C59.7879 77.5658 60.6414 76.3842 60.1812 76.058C59.7226 75.7299 57.363 76.2537 55.596 73.5026C53.8253 70.7497 53.1167 69.5518 54.5448 67.6035C55.2679 66.6213 55.5289 66.1628 55.3332 64.9177C55.1357 63.6726 55.3332 62.8879 56.9716 61.3148C58.6098 59.7435 59.5922 58.3009 60.3116 58.4314C60.8843 58.5365 59.2279 56.4541 58.2256 54.8774C57.9629 54.457 57.7472 54.0782 57.6239 53.7792C57.3666 53.1449 56.9552 52.0539 56.861 50.8795C45.3473 62.4294 39.0078 77.7652 39.0078 94.076C39.0078 110.418 45.3727 125.784 56.9299 137.342C59.6106 140.023 62.5323 142.452 65.6579 144.598C67.0009 143.141 68.5975 143.705 69.2898 144.395Z" fill="white"/>
<path d="M34.4708 15.1714C39.8425 16.5469 43.8695 20.8892 45.6347 23.3122C46.0877 23.9303 46.5535 23.8378 46.7493 23.3793C47.1661 22.4061 47.9291 19.2508 47.9291 16.826C47.9291 11.3238 48.683 9.14539 50.0604 6.5918C43.6321 6.94341 37.9921 10.2491 34.4708 15.1713V15.1714ZM31.2275 32.0299C41.3166 32.9469 44.4555 27.3106 45.1116 26.4569C45.7641 25.607 44.9793 25.0815 44.6513 24.6229C42.9078 22.1799 39.0023 17.8593 33.6288 16.4838C31.7458 19.5901 30.6421 23.222 30.6421 27.1221C30.6421 28.8148 30.8414 30.4568 31.2275 32.0299Z" fill="#A73832"/>
<path d="M71.2624 31.6353C67.0035 29.8647 61.9507 31.5012 58.3478 34.6474C54.7431 37.7918 52.9109 40.2076 51.6658 47.678C51.5118 47.6816 51.3577 47.6816 51.2055 47.6816C45.8664 47.6816 41.0203 45.65 37.363 42.3117C43.5249 40.7386 48.7172 37.9241 54.5456 32.4201C60.3794 26.9161 63.261 20.495 64.0476 17.4812C64.8341 14.4673 63.7178 16.2361 63.1305 17.6098C62.2171 19.7393 59.1978 25.4735 53.2371 31.0427C47.2728 36.6138 42.6894 39.3613 36.4677 41.4581C34.389 39.325 32.7887 36.737 31.792 33.8627C33.8888 33.9932 40.4947 33.232 43.8004 30.519C48.1481 26.9541 48.6501 22.7224 49.2391 16.6928C49.8281 10.6668 50.7144 8.87267 52.1552 6.58008C63.0689 7.07663 71.7662 16.0821 71.7662 27.1209C71.7662 28.6722 71.5886 30.1819 71.2624 31.6353Z" fill="#A73832"/>
<path d="M70.6936 33.6955C69.7095 32.32 66.2064 31.6585 60.6407 35.1364C60.1169 35.4662 59.7545 35.6946 60.3797 36.3162C61.5577 37.4978 63.3302 39.7288 64.5753 42.7427C67.3571 40.3576 69.4957 37.2441 70.6936 33.6956V33.6955ZM62.932 44.0137C61.754 41.1303 60.7718 39.0352 59.659 37.5945C59.0572 36.817 58.9377 36.4817 57.8231 37.4639C54.7259 40.1969 53.5315 44.3399 52.8755 47.6147C56.5944 47.3157 60.0359 46.0289 62.932 44.0137Z" fill="#A73832"/>
<path d="M57.2993 67.015C56.4475 66.7522 55.7914 67.7327 55.3982 68.521C55.0049 69.3094 54.5446 70.1594 55.7914 71.9282C57.0365 73.6989 57.8103 74.7518 59.9851 74.6141C61.0345 74.5488 61.9497 73.7623 62.2777 73.3055C62.6057 72.8452 62.671 73.6318 62.1472 74.4183C61.6235 75.2031 61.2302 77.0389 62.2125 78.284C63.1966 79.5291 65.2264 80.5766 67.9122 79.0053C70.5981 77.434 71.7144 75.5329 72.1711 74.6793C72.6297 73.8293 72.6297 73.4361 72.1711 72.9123C71.7144 72.3867 70.2066 69.893 69.8786 64.9834C69.6828 62.033 70.2066 60.1355 68.3707 59.0861C66.5367 58.0368 62.3393 55.5576 61.8192 50.6987C61.6234 48.8646 61.754 46.0483 59.9199 47.5544C58.084 49.0622 58.084 50.1097 57.8883 51.2225C57.6907 52.3389 58.6096 53.8431 59.3961 54.8924C60.1809 55.9418 61.0979 58.2343 61.8192 58.8233C62.5405 59.4142 62.999 59.8727 63.5898 59.9379C64.177 60.0032 66.5367 60.0032 67.1257 60.2007C67.7165 60.3983 68.0445 61.1195 66.6019 61.1195C65.1611 61.1195 62.9338 61.5092 61.9497 61.6415C60.9692 61.772 60.0522 61.8372 59.5918 63.8036C59.1333 65.7681 58.4773 68.0625 58.412 68.7838C58.3468 69.5034 57.9535 69.8966 57.9535 70.2899C57.9535 70.6832 58.7401 72.5843 60.5089 70.6832C62.2777 68.7838 62.999 66.8845 63.327 65.9657C63.6532 65.0487 64.0484 65.1791 63.7185 66.6217C63.3923 68.0625 63.2944 71.6672 63.9813 72.9123C64.7225 74.2498 66.2159 75.6272 68.1097 74.6793C68.503 74.4836 69.1572 74.1555 69.6829 74.2208C70.2066 74.286 69.5831 75.2031 69.1247 75.5981C68.6661 75.9914 67.1601 77.6587 64.5069 75.2701C63.849 74.6793 62.941 73.369 62.7362 71.7325C62.671 71.2069 61.9497 71.0112 61.6235 71.4697C61.2954 71.9282 59.5266 73.5665 58.2815 72.3867C57.0365 71.2069 56.52 70.5545 57.2341 68.0625C57.3627 67.604 57.6182 67.1129 57.2993 67.015Z" fill="#FAB383"/>
<path d="M58.6097 63.3429C58.327 64.1893 58.0841 65.3075 57.9537 65.7026C57.8214 66.0958 57.2341 66.9476 56.7086 65.8348C56.1867 64.7203 56.212 63.8413 57.0366 63.0167C57.2994 62.7539 57.6909 62.2301 57.9537 62.4911C58.2164 62.7539 58.6749 63.1472 58.6097 63.3429ZM61.5574 60.3297C61.0174 60.5998 59.8647 60.598 59.4606 61.5077C59.1978 62.0986 58.1503 61.4462 58.6741 60.723C59.1978 60.0017 59.5929 60.067 59.9191 59.8713C60.2472 59.6755 60.3795 59.0847 61.0337 59.4127C61.688 59.7407 61.8184 60.1993 61.5574 60.3297ZM104.735 27.8965C102.901 28.0923 101.198 29.2086 99.4942 30.3866C97.7888 31.5647 91.6323 36.7425 90.1897 37.7899C91.6957 38.5765 92.089 40.1496 91.5653 42.7702C91.4475 43.352 91.5653 43.5568 91.9604 43.1635C92.3518 42.7702 94.1859 40.8056 94.1224 39.2326C94.0554 37.6595 93.3359 36.7425 93.2036 36.5449C93.0731 36.3492 93.7292 35.5626 94.4505 37.2009C95.17 38.8393 94.9724 41.1319 92.8121 43.6872C90.65 46.2426 88.9447 46.1756 88.0276 46.6359C87.1106 47.0944 86.1953 47.8139 87.0471 49.1912C87.8971 50.5686 89.5355 50.0431 90.1897 49.5845C90.8458 49.1242 91.7628 48.6004 93.8596 48.798C95.9547 48.9937 96.6543 47.6616 95.2352 46.2426C94.7767 45.7841 93.5969 44.7348 95.0376 44.7348C95.8913 44.7348 96.9388 46.6359 97.5278 47.1596C98.1186 47.6834 99.4289 47.8792 101.198 48.0114C102.967 48.1419 105.719 48.7962 105.719 50.5016C105.719 51.5491 105.154 51.8553 104.407 51.0271C104.114 50.6973 103.693 51.2156 103.36 51.5491C102.245 52.6655 99.3945 55.6776 97.3647 56.2013C95.3349 56.725 94.5791 56.136 91.8933 54.6953C89.2074 53.2545 86.7173 51.8119 85.9978 51.3533C85.2765 50.8949 83.7686 49.8455 84.49 51.9442C85.2113 54.0392 86.9801 56.2013 90.5177 57.3829C94.0554 58.5591 94.5791 58.9542 95.3657 59.3475C96.1522 59.7407 95.6955 60.134 94.6462 60.0017C93.7346 59.8894 92.7451 59.0847 93.5334 60.8553C94.3164 62.6242 95.498 64.5216 99.1027 64.065C102.704 63.6064 102.811 62.8435 105.063 59.0847C105.455 58.4286 105.852 58.889 105.589 60.5925C107.356 59.7407 108.338 59.478 109.386 59.2152C110.437 58.9542 113.161 58.0281 114.959 54.6953C115.874 52.9917 116.369 52.4063 116.202 50.6339C116.138 49.9724 117.119 48.6675 118.103 47.7487C119.085 46.8334 121.769 43.3592 120.397 40.8691C119.018 38.379 116.726 39.6258 115.613 41.4599C114.498 43.2958 113.253 45.3256 113.188 48.47C112.401 48.2089 111.599 48.4971 111.223 49.1242C111.026 49.454 108.143 49.0608 107.158 49.3217C106.178 49.5845 105.852 48.9937 106.897 47.6182C107.947 46.2426 111.638 41.2569 111.419 37.5272C111.354 36.4144 111.503 36.2078 111.68 35.3669C111.91 34.285 112.012 34.2687 110.665 33.531C109.79 33.0526 109.737 31.6879 109.585 30.6476C109.42 29.5349 109.208 29.5294 107.947 29.7958C107.013 29.9934 105.455 29.0745 104.735 27.8965" fill="#FAB383"/>
<path d="M97.0704 48.4069C96.7115 49.226 95.7202 50.0108 93.4331 49.7498C92.2877 49.6193 91.1677 49.6048 90.9773 50.5037C90.8468 51.1271 90.3249 51.0909 89.6018 51.0619C88.846 51.0293 88.0287 50.8317 87.9943 51.0945C87.9616 51.3555 91.2075 53.2874 92.2877 53.7786C93.3696 54.2715 94.9445 55.4423 96.2186 55.3191C97.9222 55.1559 99.4065 54.3132 101.92 51.6491C102.957 50.5527 103.787 49.98 102.805 49.5196C102.136 49.2097 101.46 49.1264 100.577 49.1264C99.691 49.1264 97.7899 48.9958 97.0704 48.4068V48.4069ZM84.8495 48.4404C83.9651 48.406 83.8673 47.7517 84.4563 46.7695C85.0453 45.7854 85.6053 44.8701 86.39 44.2793C86.5205 44.7052 86.7833 45.229 87.1766 45.4573C86.6528 46.0155 85.9605 46.7132 86.091 48.0906L84.8495 48.4404Z" fill="#FAB383"/>
<path d="M104.796 44.37C103.67 44.37 101.999 44.0039 100.803 43.1866C99.5927 42.3602 99.1885 41.9614 99.4024 40.7381C99.5329 39.9824 99.6 39.5746 99.6471 39.2956C99.6797 39.0926 99.7032 38.9585 99.7304 38.8062C99.8319 38.2299 99.7993 37.8511 99.6271 37.6481C99.5365 37.5376 99.406 37.4814 99.2538 37.4814C99.0037 37.4814 98.672 37.6409 98.2461 37.9671C97.5539 37.4488 96.8996 36.867 96.4139 36.4375C96.0369 36.1022 95.7651 35.8612 95.5947 35.7488C95.4588 35.6582 95.2939 35.5132 95.2757 35.3356C95.2613 35.1997 95.3337 35.0547 95.4878 34.8988C95.582 34.8046 95.7053 34.7847 95.872 34.7847L95.9481 34.7865H96.026C96.1438 34.7865 96.3631 34.7865 96.5063 34.6198C96.6477 34.4585 96.6821 34.1866 96.6187 33.7389C96.6205 33.7136 96.6694 33.6647 96.9649 33.6647C97.0446 33.6647 97.1279 33.6665 97.2077 33.6701C97.2947 33.6737 97.3762 33.6774 97.4487 33.6774C97.6191 33.6774 97.7242 33.6592 97.8021 33.6211C97.9489 33.5487 97.987 33.4055 98.0123 33.3022C98.0504 33.1572 98.0667 33.0974 98.2914 33.0974C98.4183 33.0974 98.5887 33.1246 98.7971 33.1771C98.8326 33.1864 98.8691 33.1913 98.9058 33.1916C99.1197 33.1916 99.223 33.0231 99.2973 32.8999L99.3372 32.8382C99.4205 32.7096 99.5003 32.6407 99.6833 32.6407C99.7268 32.6407 99.7739 32.6443 99.8265 32.6534C100.004 32.6824 100.162 32.7223 100.301 32.7549C100.492 32.802 100.655 32.8419 100.8 32.8419C101.186 32.8419 101.307 32.5519 101.363 32.3308C101.481 31.8886 101.572 31.7545 101.751 31.7545C101.909 31.7545 102.144 31.8505 102.451 32.0408C102.719 32.2075 102.945 32.2873 103.145 32.2873C103.446 32.2873 103.66 32.0988 103.727 31.7654C103.728 31.7581 103.734 31.7363 103.817 31.7363C104.011 31.7363 104.357 31.8669 104.714 32.0771L104.892 32.1768C105.506 32.5265 106.784 33.2533 108.241 34.955C108.575 35.3428 108.671 35.6401 108.645 35.7072C108.64 35.7053 108.631 35.7053 108.623 35.7053C108.598 35.7053 108.565 35.7108 108.533 35.7162C108.31 35.7506 107.976 35.8014 107.908 36.3614C107.868 36.6695 107.772 36.8507 107.725 36.8797C107.725 36.8706 107.677 36.8344 107.609 36.6985C107.52 36.5227 107.402 36.3433 107.203 36.3433C107.168 36.3435 107.134 36.3483 107.101 36.3577C107.088 36.3324 107.061 36.2871 107.027 36.1928C106.996 36.1058 106.898 35.843 106.653 35.843C106.537 35.843 106.441 35.9101 106.373 35.9572C106.359 35.9652 106.346 35.9743 106.335 35.9844C106.296 35.8865 106.193 35.6455 105.959 35.6455C105.898 35.6455 105.847 35.66 105.807 35.6727C105.791 35.6782 105.775 35.6825 105.758 35.6854C105.758 35.68 105.74 35.6564 105.713 35.5948C105.668 35.4897 105.572 35.4299 105.445 35.4299C105.354 35.4299 105.254 35.4607 105.149 35.4933C105.037 35.5277 104.943 35.5549 104.874 35.5549C104.816 35.5549 104.801 35.5386 104.789 35.515C104.698 35.3483 104.564 35.3229 104.491 35.3229C104.375 35.3229 104.268 35.3809 104.165 35.4353C104.084 35.477 103.993 35.5277 103.93 35.5277C103.913 35.5277 103.877 35.5277 103.826 35.4588C103.79 35.4135 103.683 35.274 103.525 35.274C103.37 35.274 103.275 35.4009 103.199 35.5024L103.168 35.5459C103.092 35.6455 103.04 35.6836 102.982 35.6836C102.956 35.6836 102.929 35.6763 102.898 35.6637C102.811 35.6328 102.737 35.6183 102.668 35.6183C102.442 35.6183 102.34 35.7833 102.284 35.8721C102.23 35.9591 102.221 35.9627 102.201 35.9627C102.186 35.9627 102.15 35.9591 102.085 35.9319C102.005 35.8956 101.931 35.8775 101.86 35.8775C101.597 35.8775 101.487 36.1058 101.414 36.2563C101.338 36.4121 101.305 36.4538 101.256 36.4538C101.24 36.4537 101.225 36.4512 101.209 36.4466C101.101 36.4176 101.017 36.4049 100.943 36.4049C100.571 36.4049 100.522 36.7184 100.468 37.0519C100.459 37.1098 100.45 37.1697 100.437 37.2349C100.345 37.7659 100.107 39.9588 100.144 40.5225C100.176 41.048 100.861 41.048 101.12 41.048C101.606 41.048 102.269 40.9592 103.092 40.8451C104.705 40.6203 107.672 39.725 109.203 38.4474C109.595 38.1211 109.899 38.0849 110.012 38.0849C110.108 38.0849 110.153 38.1084 110.162 38.1175C110.175 38.1954 109.99 38.6123 109.604 38.9367C109.568 38.9711 109.522 39.0074 109.475 39.0509C108.997 39.4713 107.879 40.459 105.62 40.8976C103.46 41.3181 101.465 41.6968 100.794 41.6968C100.707 41.6968 100.664 41.6896 100.646 41.686C100.606 41.6769 100.571 41.6715 100.537 41.6715C100.426 41.6715 100.339 41.7277 100.305 41.8201C100.261 41.9415 100.328 42.0847 100.492 42.2224C100.707 42.4037 101.01 42.5106 101.3 42.5106C101.389 42.5106 101.476 42.5015 101.561 42.4816C101.637 42.4834 101.874 42.7045 102.047 42.8658C102.512 43.3026 103.217 43.9604 104.147 43.9604C105.316 43.9604 107.007 42.7027 107.494 42.3185C107.719 42.1427 108.232 41.8799 108.526 41.7965C108.477 41.8581 108.402 41.9433 108.285 42.0611L108.199 42.1463C107.123 43.2246 106.01 44.3392 104.928 44.3682C104.885 44.37 104.841 44.37 104.796 44.37ZM118.627 42.9027C117.868 43.4392 117.447 43.6241 117.382 44.5393C117.317 45.4563 117.136 47.0221 116.791 47.1617C116.345 47.3429 116.407 46.3118 116.269 46.638C116.072 47.0965 115.514 46.8989 115.352 46.4748C115.278 46.29 113.649 46.3081 114.959 44.4088C116.144 42.6889 117.054 41.7882 117.906 41.3949C118.758 41.0016 120.2 41.7882 118.627 42.9027Z" fill="#061922"/>
<path d="M150.698 120.777C150.396 120.007 150.928 118.711 152.567 119.628C154.207 120.547 155.45 121.335 154.272 124.936C153.089 128.539 152.24 130.636 151.78 132.144C151.323 133.652 149.553 135.551 150.142 132.995C150.734 130.44 151.044 127.352 150.796 125.788C150.341 122.906 151.265 123.077 150.963 121.759C150.869 121.353 150.811 121.052 150.698 120.777ZM156.893 123.888C157.364 125.304 157.875 128.539 157.088 129.849C156.302 131.161 153.877 134.764 152.962 135.683C152.043 136.6 151.323 136.207 151.911 135.222C152.501 134.24 153.288 132.93 153.288 132.471C153.288 132.013 153.225 131.489 154.009 129.981C154.794 128.475 156.171 123.428 156.302 123.036C156.432 122.643 156.76 123.495 156.893 123.888ZM139.985 136.01C139.594 134.832 139.396 133.127 138.742 132.144C139.266 130.702 140.993 126.829 143.918 125.658C144.244 125.526 144.444 125.198 144.311 124.937C144.177 124.674 144.705 124.48 144.966 125.397C145.23 126.31 145.687 128.933 145.687 128.933C145.817 129.524 145.556 129.982 145.426 130.769C145.294 131.555 144.966 133.324 145.163 134.239C145.359 135.156 145.687 135.814 147.519 135.421C148.44 135.222 148.375 134.962 148.634 134.174C148.897 133.389 149.618 131.16 149.881 129.915C150.142 128.67 149.915 125.625 149.652 124.839C149.388 124.052 149.75 121.397 149.553 120.873C149.357 120.35 149.225 119.567 147.588 119.041C145.95 118.516 145.491 118.383 144.377 119.498C143.262 120.614 142.872 121.071 142.347 121.595C141.821 122.119 140.511 121.658 141.624 120.614C142.74 119.567 143.789 118.516 144.112 118.186L143.789 117.334H143.197C141.426 119.106 139.068 120.154 137.495 120.48C136.904 120.603 135.792 120.676 136.578 121.725C136.776 121.99 136.841 122.709 137.301 122.448C137.758 122.184 138.478 121.006 139.134 121.53C139.791 122.051 139.005 123.3 138.217 123.889C137.434 124.48 136.578 125.067 135.991 125.397C135.4 125.723 135.072 126.049 135.137 127.099C135.203 128.146 135.268 130.049 134.677 131.49C134.088 132.931 134.418 133.324 134.94 134.306C135.465 135.29 136.317 136.14 136.578 137.713C136.841 139.285 136.973 139.678 138.021 139.548C139.068 139.417 139.463 138.957 139.857 138.302L139.985 136.01H139.985Z" fill="#FAB383"/>
<path d="M140.379 139.022C139.922 139.81 139.134 141.053 139.134 142.168C139.134 143.282 138.021 144.462 138.151 144.986C138.284 145.508 139.726 146.885 140.576 148.328C141.426 149.769 142.539 151.929 142.539 155.534C142.539 159.14 141.361 164.052 141.232 164.708C141.098 165.362 140.774 165.887 141.756 166.804C142.74 167.723 144.311 169.425 144.902 173.289C145.491 177.156 145.884 179.188 146.147 179.384C146.41 179.581 146.343 179.908 146.343 180.629C146.343 181.348 146.995 185.479 147.458 186.263C147.914 187.052 147.849 181.809 147.782 180.301C147.717 178.795 147.849 171.589 148.112 170.541C148.375 169.49 148.636 168.31 147.717 167C146.803 165.69 145.23 163.395 146.41 159.599C147.59 155.795 149.487 155.863 148.897 154.356C148.308 152.848 147.26 151.8 146.475 150.95C145.689 150.097 146.312 148.067 146.278 147.213C146.212 145.638 144.966 145.379 144.835 143.609C144.705 141.84 144.572 140.399 145.884 138.63C147.195 136.863 145.426 136.927 144.835 135.812C144.244 134.699 143.931 133.21 144.444 130.899C144.705 129.717 144.572 129.393 144.244 129.26C143.918 129.13 142.539 128.867 142.539 128.867L140.511 132.93C140.841 133.715 140.969 134.897 140.969 135.682L140.379 139.022V139.022Z" fill="#A73832"/>
<path d="M121.444 59.2823C119.83 61.4335 117.318 66.8832 116.136 70.2885C114.958 73.6975 112.27 81.8221 114.173 87.1938C116.071 92.5655 119.808 89.1601 120.656 87.1285C121.51 85.0987 122.822 81.6245 123.215 80.7075C123.606 79.7905 123.804 79.2649 124.523 81.427C125.245 83.5909 126.292 88.7669 126.292 89.2254C126.292 89.6839 125.569 90.996 124.786 93.0258C124 95.0556 123.541 96.4982 124.326 97.7451C125.112 98.9883 128.193 104.295 129.176 106.589C129.765 107.965 130.288 108.226 131.862 107.832C133.435 107.441 137.235 106.129 138.348 105.605C139.462 105.081 138.937 104.162 138.609 103.052C138.112 101.355 136.122 91.9094 136.122 90.6662C136.122 89.4211 136.454 87.79 134.808 89.6187C134.223 90.2747 133.435 89.6187 133.63 88.6998C133.828 87.7828 135.791 75.0059 135.925 73.4347C134.808 71.0098 131.533 63.3437 130.618 61.9681C129.699 60.5926 129.373 60.5273 127.996 61.2486C126.62 61.9681 123.547 63.0736 122.427 60.4621C122.231 60.0018 121.905 58.9542 122.689 58.8238L122.099 58.6262C122.099 58.6262 121.638 59.0195 121.444 59.2823H121.444ZM138.608 106.391C137.39 107.091 133.238 108.879 131.535 109.144C129.786 109.414 130.224 109.865 130.552 111.177C130.877 112.484 131.861 116.415 132.385 117.792C132.91 119.17 133.63 119.144 135.007 119.105C137.104 119.039 140.642 118.12 143.197 115.761C142.474 114.909 141.213 110.826 140.839 109.077C140.444 107.245 140.444 105.344 138.608 106.391ZM101.065 68.5854C100.934 68.85 100.476 69.6348 99.4299 69.6348C98.3824 69.6348 97.5288 69.3067 96.8727 70.2238C96.2185 71.1408 92.6156 75.5321 91.8272 78.2161C92.6156 79.8545 93.6649 82.8031 94.4496 84.8999C97.005 82.7396 105.162 74.7782 106.701 73.2377C107.294 72.6487 107.357 72.1249 106.505 71.5359C105.653 70.9433 102.507 68.9787 101.983 68.6525C101.46 68.3227 101.197 68.3227 101.065 68.5854ZM80.4274 80.1177C79.9236 82.1367 78.9214 85.687 77.283 88.4399C77.9373 89.4874 78.461 90.4062 79.2476 90.7325C81.0816 89.4222 84.5541 86.209 85.5363 85.031C86.5204 83.8529 87.7654 82.0823 87.7654 81.6908C87.7654 81.2958 87.307 81.1671 86.718 81.2958C86.1271 81.428 83.7023 80.4584 81.3444 79.9872C80.6902 79.855 80.4926 79.855 80.4274 80.1178V80.1177ZM78.9877 78.1523C78.2664 78.0091 75.7763 75.3342 74.9226 73.8934C74.0727 72.4507 73.9386 72.5831 73.6142 73.6306C73.2861 74.6781 72.0411 76.9725 71.1893 78.0871C70.3375 79.1998 68.1102 82.0832 67.5193 82.7393C66.9285 83.3935 67.5193 83.6563 68.0449 84.1801C68.5687 84.7038 71.2545 87.9787 71.8435 88.7C72.4344 89.4213 73.0904 90.7334 74.6599 89.2908C76.2348 87.8482 78.1341 85.2276 78.9877 82.5418C79.8377 79.854 79.9011 78.4459 80.6224 78.609L80.655 78.0526L80.4593 77.7264L80.066 77.3984C80.1639 77.6267 80.1639 77.8243 80.0026 78.0871C79.8377 78.348 79.3139 78.2157 78.9877 78.1523V78.1523ZM119.085 17.8734C117.32 19.9575 113.775 21.8024 107.816 23.3103C101.854 24.8181 96.1521 29.0118 93.7291 31.0416C91.3024 33.0732 85.1931 38.0753 82.2626 39.2967C81.4778 39.6248 79.805 40.7357 81.9345 41.0003C83.5076 41.1979 84.6204 40.2808 88.0275 37.7907C91.4365 35.3006 94.0807 33.5046 96.6777 30.9764C99.1026 28.6168 103.492 26.3894 108.208 25.0791C112.927 23.767 119.123 21.7082 120.919 19.7709C121.769 18.8556 121.838 18.3953 121.052 17.6087C120.265 16.824 119.807 17.0216 119.085 17.8734H119.085ZM89.0102 38.4787C88.4973 38.7614 88.2906 39.0677 87.6981 40.9688C87.1109 42.8681 87.1761 43.9809 87.6672 44.4412C88.0243 44.7729 88.5498 44.8018 88.8144 44.8018C89.0102 44.8018 89.2077 44.8689 89.1769 44.3107C89.1407 43.7543 89.1044 41.3784 90.8787 40.3145C91.2067 40.117 90.8352 38.7433 89.6662 38.9372C89.273 39.0043 89.6662 38.118 89.0102 38.4787ZM68.7641 45.9811C69.6829 45.9811 70.2719 45.9811 70.2066 47.0286C70.1414 48.078 69.6829 49.5188 69.6176 50.5029C69.5506 51.4851 69.5506 51.8766 70.1414 51.8766C70.7286 51.8766 69.2896 52.4674 68.5013 52.5997C67.7165 52.7302 66.5059 53.1815 65.8806 49.8468C65.6849 48.7975 65.7502 47.161 65.6197 46.7677C66.4715 46.3744 67.6422 45.9811 68.764 45.9811H68.7641ZM86.1811 48.7792C86.424 50.1003 86.7846 50.075 86.5201 50.2725C86.2573 50.47 85.9836 49.7723 84.9143 49.9463C83.8994 50.1094 75.6443 51.3871 75.0553 51.4541C73.2213 51.648 73.1216 51.3526 74.8251 50.9938C76.5287 50.6332 82.7613 49.4969 84.6207 49.1235L86.1811 48.7792ZM76.2346 148.981C77.0864 149.504 79.1162 150.095 82.5904 148.653C86.0628 147.21 89.9285 148.192 90.5175 150.682C91.1083 153.174 91.1282 156.384 90.059 157.761C89.1419 158.939 88.2901 158.809 87.2426 158.483C85.3433 157.886 80.952 155.862 79.707 155.271C78.4619 154.68 76.3651 154.026 74.8572 154.026C74.2682 152.781 74.3335 150.617 74.7267 149.832C75.12 149.046 75.12 148.259 75.4462 148.457C75.7761 148.653 76.2346 148.981 76.2346 148.981H76.2346ZM89.9942 160.577C90.846 160.577 92.3883 160.935 92.8758 162.479C93.2673 163.723 95.8245 164.049 96.9391 163.984C98.0518 163.922 97.8561 164.509 97.7891 165.165C97.7256 165.82 97.5281 167.788 97.5281 168.572C97.5281 169.359 97.7256 172.108 97.8561 172.634C97.9866 173.158 97.5281 173.42 96.9391 173.681C96.3501 173.944 94.1862 174.598 92.8124 173.616C92.0875 173.1 91.2375 172.373 92.0893 172.306C92.9411 172.242 91.0436 164.837 90.518 163.527C89.9942 162.215 88.4846 160.577 89.9942 160.577ZM67.4536 145.115C67.807 145.231 67.9791 145.575 68.2401 146.032C68.5029 146.491 68.5917 146.888 68.1749 147.342C67.4536 148.129 66.6018 151.732 66.7341 154.289C66.2756 154.157 65.2933 153.961 64.7695 154.091C64.572 152.649 64.7024 148.129 65.3585 146.686C66.0146 145.247 66.667 144.852 67.4536 145.115ZM67.5844 185.082C69.2173 186.919 72.3018 189.736 74.5945 190.718C76.8889 191.7 78.3967 192.028 80.4265 191.833C82.0703 191.673 81.7368 192.356 80.4265 192.554C79.1162 192.75 76.1023 192.75 74.1395 191.7C72.1714 190.651 69.0542 188.714 67.0607 185.87C66.6021 185.212 67.0607 184.495 67.5844 185.082ZM101.72 180.496C100.39 181.101 97.9217 182.332 95.5639 182.921C95.8248 184.101 95.8919 184.625 95.8919 184.951C97.3309 184.951 100.109 183.945 102.376 182.528C102.902 182.198 103.098 181.808 102.902 181.348C102.703 180.889 102.442 180.168 101.72 180.496ZM86.1944 175.123C85.8664 174.797 87.7312 174.405 88.1245 174.405C88.5848 174.699 89.4203 175.436 89.732 175.748C89.9295 175.942 89.8317 176.073 89.6324 176.207C89.4384 176.335 88.2912 176.633 87.7656 176.665C87.1766 176.141 86.3575 175.288 86.1944 175.123ZM89.6667 147.867C89.1412 147.472 89.2083 147.278 89.4711 146.883C89.732 146.49 89.9948 146.229 90.2558 146.097C90.5168 145.966 90.9119 145.901 91.3685 146.555C91.827 147.211 94.3172 151.342 94.8409 152.452C95.3665 153.567 96.0226 152.846 95.7598 152.191C95.4988 151.535 94.9732 150.423 94.7757 150.095C95.4988 147.867 96.2183 144.46 96.2183 142.233C96.2183 140.002 95.6946 137.778 95.2995 136.99C97.0701 137.055 100.934 136.99 102.442 136.531C103.951 136.071 102.703 135.942 102.114 136.007C101.525 136.071 97.2876 136.056 94.1867 135.679C88.815 135.023 83.5375 132.002 81.8702 129.913C81.6056 129.586 80.0325 129.715 81.3446 130.766C82.6567 131.814 85.9987 134.944 90.9119 135.812C92.0246 136.007 93.7916 136.334 94.0562 140.397C94.3172 144.46 93.9257 147.079 93.9257 147.472C93.9257 147.867 93.6648 147.998 93.3349 147.537C93.0069 147.079 91.8941 145.575 91.3015 145.248C90.7143 144.919 90.3228 144.984 89.7973 145.377C89.2735 145.77 88.4852 146.555 88.1589 146.948L89.6667 147.867V147.867ZM79.1167 160.676C78.6256 160.676 75.6769 160.906 75.0553 160.676C74.4319 160.447 74.0295 159.731 74.4663 159.431C74.9883 159.07 76.005 159.53 77.0199 159.53C78.0366 159.53 79.1167 159.269 79.3795 159.431C79.6405 159.596 80.003 159.53 80.003 160.775L79.1167 160.676ZM71.9746 178.661C71.1228 178.139 70.1369 175.71 69.943 170.864C69.8795 169.226 70.5356 166.473 71.0575 165.166C71.5813 163.854 70.7295 164.378 70.5356 164.836C70.3362 165.295 69.682 167.131 69.4844 168.504C69.2905 169.882 68.9607 171.912 69.4844 174.86C70.01 177.809 70.2728 178.726 70.4015 179.252L71.9746 178.661H71.9746Z" fill="white"/>
<path d="M101.951 22.1978C102.837 22.2957 103.819 22.2304 104.049 21.6088C104.278 20.9872 104.08 20.5921 103.787 20.4616C103.491 20.3311 103.361 20.3637 103.491 19.7729C103.622 19.1839 104.049 19.251 104.017 18.3321C103.982 17.4151 103.295 17.3825 102.672 17.5818C102.05 17.7757 101.82 18.0694 101.229 18.8559C100.642 19.6424 100.903 18.3321 101.001 18.102C101.093 17.8899 101.329 16.3802 100.521 16.1084C100.066 16.3367 99.6164 16.5633 99.1851 16.7862C99.0437 17.0744 98.9332 17.4115 98.8063 17.7431C98.4783 18.5949 98.0796 17.9552 97.7896 17.5456C97.7896 17.5438 97.786 17.5419 97.7842 17.5401C96.9106 18.0241 96.1458 18.4771 95.5641 18.8559C95.5006 18.8976 95.4318 18.9447 95.3684 18.9864C95.4463 19.5028 96.0679 20.1571 96.4159 20.3963C96.8418 20.6918 96.5771 21.2481 96.0552 21.2481C95.5297 21.2481 94.8754 20.8893 94.2193 21.6722C93.5633 22.4605 93.9892 23.2145 94.6144 23.2145C95.2361 23.2145 95.7598 23.4429 95.99 24.1623C96.2183 24.8836 96.4158 25.1809 97.2676 25.2769C98.1176 25.3748 98.6088 24.7205 98.8389 24.3273C99.0691 23.934 99.3645 23.3776 99.7234 23.5099C100.258 23.7039 100.191 24.2657 100.028 24.8637C100.644 24.5013 101.273 24.1605 101.943 23.8343C101.836 23.2797 101.507 22.7687 101.264 22.5258C100.968 22.2304 101.065 22.0999 101.951 22.1978ZM109.257 12.6973C108.955 12.7679 108.632 12.8531 108.31 12.9456C108.465 13.694 108.768 14.6564 108.603 14.7941C108.406 14.9572 107.652 15.0896 107.063 15.2508C106.474 15.4157 105.064 16.7278 105.785 17.6757C106.505 18.6272 106.735 19.1836 106.867 19.6765C106.996 20.1676 108.175 20.7566 108.993 19.7726C109.814 18.7921 110.435 17.7101 110.635 18.397C110.8 18.9751 110.754 20.3724 110.64 21.1227C110.811 21.0883 110.983 21.0521 111.157 21.0176C111.485 17.3513 110.571 14.7289 109.257 12.6973ZM91.2706 30.2896C90.8138 29.9308 90.6816 29.3726 91.2361 29.2095C91.7961 29.0446 92.55 28.914 93.9255 28.325C95.2993 27.7342 94.5798 26.7194 93.96 26.4566C93.3366 26.1938 93.2677 25.6066 93.3366 24.9813C93.4018 24.3597 93.2369 23.4445 92.0244 23.903C90.8138 24.3597 91.2361 25.5395 90.8791 25.9328C90.5166 26.3261 90.3227 26.1938 90.3861 25.6066C90.4532 25.0158 89.9294 24.6225 89.634 24.4902C89.402 24.3905 88.9 24.2709 88.4705 24.2365C87.2164 25.3673 86.0692 26.5508 85.1993 27.7252C85.395 28.1293 85.8535 28.5788 86.0945 28.6513C86.4244 28.7509 86.9155 28.9811 86.8793 29.6354C86.8521 30.1881 85.6052 30.2262 84.7861 30.2461C85.3642 31.8119 85.9532 32.9229 86.7742 33.811C86.9572 33.7584 87.2019 33.675 87.5371 33.5337C88.552 33.1078 88.8783 31.5673 89.0432 31.1088C89.2081 30.6503 89.634 30.7481 89.9294 31.3389C90.136 31.7522 90.2103 32.1327 90.2393 32.5042C90.8174 31.9261 91.3774 31.3861 91.9284 30.8768C91.7616 30.7119 91.5569 30.5162 91.2705 30.2896H91.2706ZM108.666 69.4375C108.862 69.4049 108.338 67.0815 108.768 66.9818C109.192 66.8839 109.386 68.2595 110.305 68.0946C111.223 67.9314 111.452 67.0162 111.321 65.9995C111.191 64.9828 111.78 65.541 112.24 64.8197C112.695 64.1002 111.713 63.1179 110.598 63.8048C109.485 64.4917 109.683 63.5747 110.274 63.2158C110.865 62.8533 110.437 61.5449 109.192 61.9689C108.291 62.2789 107.836 61.6953 107.405 61.4488C107.071 61.5774 106.743 61.717 106.413 61.8638C106.341 62.1175 106.399 62.4256 106.473 62.7555C106.568 63.1759 106.767 64.2633 106.08 63.8048C105.48 63.4061 104.67 63.1813 104.442 63.9353C104.212 64.6892 104.67 64.7562 104.605 65.213C104.538 65.6715 103.36 65.7693 103.916 66.719C104.473 67.6687 105.294 67.1467 105.852 66.786C106.408 66.4254 106.932 66.8513 106.736 67.3424C106.58 67.7248 106.272 69.0152 106.25 69.8652C106.511 70.0373 106.785 70.2222 107.071 70.4252C107.399 70.0954 108.017 69.5498 108.666 69.4375ZM90.8138 67.1794C91.3032 67.0488 92.2546 68.0619 93.1064 67.4729C93.96 66.8839 92.7458 66.2949 92.9107 65.802C93.0738 65.3109 93.4671 64.3612 92.8763 63.9027C92.2873 63.4442 91.6638 63.8701 91.044 64.5587C90.4187 65.2456 90.6489 63.9334 90.9769 63.3789C91.4028 62.6576 90.9769 62.1646 90.2556 62.0342C89.5343 61.9037 89.306 62.9186 88.8148 62.4601C88.0337 61.7333 86.8159 62.0342 87.1112 63.0509C87.4067 64.0676 87.7311 64.3938 87.1112 64.5243C86.4896 64.6548 85.8988 63.0183 85.1793 64.3304C84.4562 65.637 85.6034 66.0321 85.5055 67.0162C85.4077 67.9985 85.801 69.046 86.39 69.1439C86.9808 69.2436 87.6006 68.5875 87.9286 68.196C88.2584 67.8028 89.0432 67.5074 88.9453 68.2595C88.8765 68.7796 88.842 69.8598 88.8221 70.4814C90.0291 69.8942 91.3213 69.2816 92.0244 69.046C92.0537 69.0358 92.0827 69.0249 92.1114 69.0134C91.7834 68.8811 91.3176 68.6637 90.8791 68.3574C90.223 67.8988 90.3227 67.3116 90.8138 67.1794ZM76.2995 97.0241C77.8074 96.5655 77.8726 97.7453 77.675 98.7276C77.4793 99.7099 77.4793 101.807 77.5446 102.854L80.0329 102.988C79.9024 102.331 80.0329 100.429 80.0999 99.3184C80.1634 98.2021 81.2797 96.4985 81.673 98.2021C82.0663 99.9074 83.7681 99.9727 84.9479 99.2514C86.1277 98.5301 86.9813 96.9588 88.2246 94.7296C89.4714 92.5023 87.8331 91.9115 86.849 92.0438C85.8667 92.1743 84.8827 92.3048 87.1118 90.4725C89.1833 88.7653 85.6964 87.9081 84.0943 87.5873C81.4538 90.3602 78.2079 93.5009 75.3172 95.9747C74.9475 96.2901 74.6032 96.5927 74.2733 96.8863C74.6195 97.0856 75.2991 97.3267 76.2995 97.0241ZM73.6783 113.536C74.9234 113.141 75.7099 115.828 77.544 114.255C79.3799 112.684 78.0678 111.374 78.0044 110.064C77.9373 108.75 79.4452 108.228 78.9884 106.591C78.2871 104.094 75.9709 106.459 74.5301 107.834C73.0893 109.21 73.0241 108.095 74.4667 105.872C75.9075 103.642 73.5479 102.921 72.1071 103.512C70.8258 104.034 69.6496 103.523 68.8975 102.85C68.3429 103.737 67.9369 104.556 67.5201 105.411C66.2751 107.967 67.1268 108.03 68.0457 108.03C68.9609 108.03 70.9272 111.898 71.1882 112.615C71.2806 112.873 71.953 113.855 72.8447 115.111C72.7921 114.491 72.9117 113.777 73.6783 113.536ZM109.519 87.7192C108.339 87.4583 106.808 87.2607 106.636 89.6856C106.571 90.6027 107.486 91.3258 108.339 91.6519C109.191 91.9782 109.059 92.5672 108.142 92.2409C107.227 91.9111 106.505 91.7172 105.853 93.6165C105.193 95.5158 106.375 95.7804 106.966 95.9109C107.555 96.0414 108.011 96.1719 107.881 96.9603C107.749 97.7468 107.357 100.038 108.863 100.235C110.371 100.431 111.68 98.5967 112.14 97.6797C112.6 96.7627 113.12 95.8438 113.254 96.8932C113.385 97.9425 113.187 98.4645 112.665 99.6443C112.14 100.824 112.14 101.35 112.926 101.284C113.713 101.216 115.023 101.284 115.417 100.364C115.81 99.4485 116.401 97.6797 116.466 96.4347C116.504 95.6554 117.187 95.5684 117.693 95.6137C117.841 94.3539 118.022 93.0982 118.235 91.8477C115.663 92.2319 113.474 89.0912 112.713 86.3727C111.837 87.3242 110.551 87.9494 109.519 87.7192ZM97.2676 87.2616C96.8073 88.0464 95.4988 90.2755 96.086 90.9969C96.6769 91.7163 97.3311 90.2755 97.8566 90.8011C98.3822 91.3249 99.5602 91.912 99.5602 91.5206C99.5602 91.1273 99.6908 90.3408 99.8883 89.2932C100.086 88.2439 100.543 87.6549 101.001 88.5067C101.46 89.3567 102.114 90.078 103.752 89.6847C105.39 89.2932 105.195 87.5879 104.867 86.3446C104.537 85.0995 105.72 84.5087 106.309 84.1825C106.898 83.8545 108.406 82.6747 107.293 81.6271C106.179 80.5778 105.195 82.0856 104.212 82.2796C103.228 82.4789 103.622 81.6271 105.653 80.0541C107.408 78.6966 105.94 77.3392 104.872 76.8698C102.05 79.7079 97.0538 84.3148 95.9556 85.3623C95.5623 85.7393 95.2233 86.1797 94.9062 86.7107C97.5431 85.4837 97.7008 86.5168 97.2676 87.2616ZM113.516 113.601C114.367 114.39 116.401 115.502 117.84 114.19C119.284 112.88 117.512 111.437 117.318 110.392C117.119 109.341 118.365 108.685 117.709 106.985C116.571 104.018 114.893 107.574 113.907 108.556C112.927 109.538 113.09 107.869 113.974 106.985C114.435 106.524 116.466 105.279 115.284 103.904C114.105 102.528 112.403 103.313 111.551 103.904C110.697 104.494 110.043 105.214 108.733 104.821C107.423 104.427 106.308 104.297 105.523 106.198C104.735 108.095 106.243 107.574 107.486 108.947C108.733 110.323 107.948 110.392 106.966 110.064C105.98 109.736 105.523 108.491 104.081 108.684C102.638 108.882 102.638 111.178 103.098 111.767C103.559 112.356 104.472 112.684 103.818 113.797C103.166 114.912 104.146 116.222 105.324 116.746C106.506 117.269 108.271 115.173 108.93 114.321C109.585 113.469 110.237 113.667 110.107 114.321C109.998 114.884 109.69 116.367 109.646 117.605C110.645 117.286 111.633 116.99 112.581 116.731C112.579 116.043 112.43 114.935 112.14 113.866C111.747 112.423 112.666 112.815 113.516 113.601ZM96.4809 120.613C94.9079 121.07 94.6451 120.349 93.5975 119.957C92.5501 119.566 92.4812 120.479 93.2024 121.594C93.9256 122.708 94.7103 123.756 93.8585 123.756C93.0067 123.756 92.3525 123.888 92.2202 124.544C92.0896 125.197 90.7142 124.414 90.3861 123.036C90.0599 121.657 89.7318 119.04 89.0106 120.349C88.291 121.657 87.635 123.823 85.8009 122.841C83.9651 121.858 85.2101 120.546 84.2931 119.627C83.3761 118.71 82.5243 117.532 83.4413 115.894C84.3601 114.256 85.1449 115.631 85.9967 115.631C86.8485 115.631 86.9808 114.845 86.1942 114.256C85.4077 113.667 84.4236 110.849 88.0283 111.046C89.4165 111.122 90.9117 110.653 92.0897 109.801C93.2677 108.947 96.3505 109.406 95.1054 111.572C93.8585 113.732 94.2536 114.19 94.9731 113.404C95.6944 112.616 96.6115 111.178 97.987 111.572C99.3643 111.963 98.7735 113.011 97.9217 114.19C97.0699 115.37 97.5937 116.157 98.2479 116.614C98.904 117.074 100.111 119.551 96.4809 120.613ZM103.166 105.148C101.984 105.214 100.541 104.886 100.541 104.886C100.411 106.131 99.2021 107.914 97.9879 109.735C97.8556 109.933 97.1361 109.933 96.8062 109.668C96.4818 109.407 95.5648 108.947 96.2825 108.161C97.0056 107.378 98.1836 105.737 97.9879 105.018C97.7903 104.297 97.2684 103.642 96.4818 104.625C95.6953 105.607 94.4502 107.639 93.0747 107.706C91.6955 107.769 90.3236 106.524 90.976 105.279C91.6321 104.036 91.8278 103.38 90.9108 102.263C89.9937 101.151 90.3363 99.726 92.2881 98.8579C92.8771 98.5969 93.9247 98.8579 94.646 99.4469C95.3655 100.038 95.7606 99.4469 94.7765 98.8579C93.7923 98.2689 93.0076 97.5476 92.8771 96.2373C92.7521 94.9922 93.5332 93.6838 95.2368 94.4032C96.9386 95.1228 97.9879 94.5338 98.7092 93.9447C99.4287 93.3539 102.502 92.6181 102.051 95.3221C101.721 97.2848 100.808 97.3519 100.541 98.3994C100.282 99.4469 101.065 98.7927 101.526 98.0079C101.984 97.2196 103.033 94.0027 105.194 96.433C105.719 97.0239 105.523 98.0079 104.866 99.1207C104.211 100.235 104.735 100.89 105.128 101.479C105.523 102.069 106.435 104.965 103.166 105.148Z" fill="#008348"/>
<path d="M157.213 53.04L159.213 51.6209L163.55 58.0619L166.104 56.2514L161.638 49.9409L163.579 48.569L168.331 55.2311L170.888 53.4188L163.831 43.5271L152.222 51.7551L158.624 60.8583L161.18 59.0478L157.213 53.04ZM165.604 75.4073L169.4 73.6511L166.785 67.9695L175.678 64.2651L174.063 60.7057L161.502 66.1698L165.604 75.4073ZM167.865 81.4149L168.261 84.9181L176.691 83.9268L177.021 87.5804L180.795 87.3013L179.745 75.0482L175.968 75.3273L176.295 80.4236L167.865 81.4149ZM168.29 93.3649L168.343 97.5405L180.735 97.5025L180.685 93.3287L168.29 93.3649ZM174.111 103.442C172.034 103.044 169.575 103.386 167.853 104.691C166.307 105.865 165.588 107.043 165.178 109.182C164.921 110.538 165.129 112.317 165.579 113.876L168.854 112.778C168.538 112.024 168.406 110.878 168.747 109.718C169.41 107.478 171.23 106.469 173.452 106.797C175.809 107.143 177.152 109.305 176.726 111.879C176.562 112.904 176.05 113.793 174.883 114.49L176.911 116.933C178.562 115.922 179.813 113.93 180.081 112.531C180.536 110.173 179.974 108.546 178.881 106.632C177.817 104.765 176.018 103.807 174.111 103.442H174.111ZM171.839 120.755C170.108 120.311 167.75 122.212 166.614 123.305C165.958 123.936 163.669 126.243 162.612 125.886C161.666 125.569 161.954 124.124 162.275 123.18C162.739 121.803 163.451 120.645 164.559 119.9L162.507 118.99C161.51 119.824 160.399 121.168 159.943 122.522C159.415 124.084 159.198 125.913 159.421 127.076C159.707 128.575 160.231 129.53 161.925 129.376C163.23 129.255 166.507 127.127 168.397 125.342C169.356 124.44 170.173 124.342 170.599 124.579C171.291 124.961 171.248 126.141 171 126.881C170.666 127.868 170.191 129.378 169.405 129.936L172.205 131.816C173.348 130.667 173.941 128.939 174.276 127.325C175.09 123.425 172.977 121.049 171.839 120.755ZM156.276 38.4997C156.034 36.5805 154.973 34.3731 153.895 33.4398C152.228 31.9917 150.254 31.6039 148.155 31.8757C146.026 32.1549 144.045 33.5213 142.927 35.1107C141.709 36.8379 141.009 39.2211 141.493 41.3288C141.925 43.219 142.704 44.3608 144.485 45.6131C145.615 46.4087 147.322 46.9488 148.928 47.1789L149.274 43.7428C148.456 43.7211 147.356 43.3695 146.443 42.5811C144.672 41.0533 144.589 38.6393 145.712 37.0934C147.112 35.1633 149.553 34.7501 151.724 36.1963C152.59 36.769 152.933 37.6969 153.087 39.0525L156.276 38.4998V38.4997ZM29.524 109.895C29.6129 108.958 29.5603 107.246 30.5752 107.032C31.5538 106.825 32.199 107.775 32.4056 108.75C32.7065 110.173 33.107 111.28 32.5343 112.487L35.173 112.21C35.6062 110.986 35.4721 109.35 35.1767 107.954C34.8341 106.338 34.3194 105.203 33.1306 104.148C31.987 103.134 31.1261 102.869 29.4588 103.221C28.4421 103.436 26.628 105.254 26.5645 108.909C26.5537 109.604 26.3887 110.928 25.7653 110.959C24.9715 111.001 24.3861 110.057 24.2266 109.294C24.0092 108.273 24.3027 106.039 24.6924 105.158L21.9304 105.145C21.5299 106.715 21.3759 108.915 21.7166 110.53C22.4687 114.087 24.6253 115.251 26.376 115.059C28.2482 114.852 29.2304 112.898 29.524 109.895ZM23.9985 94.8853L33.7832 94.7639L33.7361 91.6902L23.9514 91.8116L23.9115 87.6415L20.7798 87.6759L20.9048 99.3527L24.0365 99.3183L23.9985 94.8853ZM41.6695 64.1723L34.1157 59.8155L34.1356 59.7793L44.1397 59.6125L46.5265 55.9281L34.1991 48.8202L32.336 51.7181L40.747 57.001L29.2768 57.3272L27.6765 60.4226L39.8064 67.4635L41.6695 64.1723ZM29.4347 71.3225C31.6113 71.3225 33.3801 73.0877 33.3801 75.2661C33.3801 77.4445 31.6113 79.2115 29.4347 79.2115C27.2544 79.2115 25.4893 77.4445 25.4893 75.2661C25.4893 73.0877 27.2544 71.3225 29.4347 71.3225ZM29.4347 82.8398C33.6176 82.8398 37.0083 79.4489 37.0083 75.2661C37.0083 71.0851 33.6176 67.6924 29.4347 67.6924C25.25 67.6924 21.8611 71.0851 21.8611 75.266C21.8611 79.4489 25.25 82.8398 29.4347 82.8398ZM34.3158 129.041C32.1374 129.041 30.3704 127.273 30.3704 125.094C30.3704 122.916 32.1374 121.151 34.3158 121.151C36.4924 121.151 38.2594 122.916 38.2594 125.094C38.2594 127.272 36.4924 129.041 34.3158 129.041V129.041ZM41.8895 125.094C41.8895 120.911 38.4986 117.522 34.3158 117.522C30.1312 117.522 26.7421 120.911 26.7421 125.094C26.7421 129.279 30.1312 132.67 34.3158 132.67C38.4987 132.67 41.8895 129.279 41.8895 125.094ZM48.54 142.754L48.279 142.441C47.4435 141.438 44.6217 138.452 45.7871 137.355C46.8509 136.355 49.5331 139.76 50.2925 140.668L50.6169 141.063L48.54 142.754V142.754ZM43.8877 146.955C42.8874 145.757 39.9042 143.412 41.1783 142.212C42.3926 141.07 45.3848 144.719 45.7563 145.164L43.8877 146.955ZM43.4274 133.745C42.2657 134.776 41.7039 137.225 42.8004 138.883C41.606 138.301 39.1974 138.102 38.092 139.062C35.3662 141.429 38.6719 144.849 41.3867 147.56L45.1709 151.297L55.2274 142.979L51.1551 138.243C49.727 136.449 45.7798 131.665 43.4274 133.745H43.4274Z" fill="white"/>
<path d="M88.1917 172.896C88.6175 172.7 89.2084 172.437 89.4711 172.635C89.7321 172.831 91.3016 173.945 92.2875 174.799C93.2679 175.649 93.596 175.912 92.8112 176.37C92.0247 176.827 91.3016 177.287 91.4357 176.892C91.5662 176.502 91.7619 175.912 91.2363 175.388C90.7144 174.862 89.4276 173.869 88.8785 173.421C88.5197 173.126 88.1917 172.896 88.1917 172.896V172.896ZM84.4891 173.979C84.1611 174.274 84.0958 174.765 84.4891 175.157C84.8824 175.55 87.0771 177.384 87.4377 177.747C87.7984 178.106 88.3221 178.24 88.9111 178.106C89.5019 177.973 88.2243 178.827 87.7313 178.925C87.2438 179.021 86.6856 179.021 86.1619 178.531C85.6345 178.04 82.6876 175.255 82.0986 174.698C81.5078 174.142 82.2617 174.142 82.7855 174.079C83.3111 174.013 83.7678 174.044 84.4891 173.979ZM98.8062 17.7426C98.9294 17.4236 99.0346 17.0738 99.1705 16.7929C98.7095 17.0332 98.2516 17.279 97.7968 17.5306C98.0867 17.9401 98.48 18.5889 98.8062 17.7426ZM110.634 18.3966C110.437 17.7098 109.813 18.7917 108.994 19.7722C108.177 20.7563 106.995 20.1673 106.866 19.6761C106.736 19.1832 106.506 18.6268 105.784 17.6754C105.063 16.7275 106.473 15.4154 107.062 15.2505C107.651 15.0892 108.407 14.9569 108.603 14.7938C108.769 14.656 108.472 13.6901 108.313 12.9434C105.957 13.6158 103.084 14.8463 100.549 16.0968C101.321 16.3922 101.092 17.891 101.002 18.1012C100.902 18.3314 100.641 19.6417 101.23 18.8552C101.821 18.0686 102.051 17.775 102.671 17.5811C103.294 17.3818 103.981 17.4144 104.017 18.3314C104.048 19.2503 103.622 19.1832 103.492 19.7722C103.359 20.363 103.492 20.3304 103.787 20.4609C104.081 20.5914 104.277 20.9865 104.048 21.6081C103.818 22.2297 102.836 22.2949 101.95 22.1971C101.065 22.0992 100.967 22.2297 101.264 22.5251C101.502 22.7661 101.824 23.2899 101.94 23.8372C104.072 22.806 106.651 21.9434 110.645 21.1224C110.754 20.3666 110.795 18.9675 110.634 18.3966H110.634ZM89.9288 31.3386C89.6333 30.7478 89.2074 30.6499 89.0443 31.1084C88.8776 31.5669 88.5514 33.1074 87.5365 33.5315C87.2864 33.639 87.0298 33.7304 86.7681 33.8051C87.1197 34.1857 87.5112 34.5265 87.9624 34.8436C88.7634 33.9973 89.5137 33.2252 90.2333 32.5057C90.2061 32.1415 90.1299 31.7427 89.9288 31.3386ZM99.7221 23.5089C99.3633 23.3783 99.0679 23.9347 98.8377 24.3262C98.6094 24.7195 98.1183 25.3755 97.2683 25.2777C96.4147 25.1798 96.2171 24.8844 95.9888 24.1631C95.7586 23.4436 95.2349 23.2134 94.6132 23.2134C93.9898 23.2134 93.5639 22.4595 94.22 21.673C94.876 20.8882 95.5303 21.2471 96.054 21.2471C96.576 21.2471 96.8406 20.6907 96.4147 20.3953C96.0758 20.1615 95.4813 19.4927 95.378 18.9781C93.5095 20.2068 90.8309 22.1079 88.4948 24.2138C88.9171 24.2501 89.4101 24.3915 89.633 24.4911C89.9284 24.6216 90.4522 25.0149 90.3869 25.6057C90.3216 26.1929 90.5174 26.327 90.878 25.9319C91.2369 25.5404 90.8128 24.3588 92.0234 23.9021C93.2377 23.4436 93.4027 24.3588 93.3356 24.9804C93.2667 25.6057 93.3356 26.1929 93.959 26.4557C94.5788 26.7184 95.3001 27.7333 93.9246 28.3242C92.549 28.9132 91.7951 29.0455 91.2369 29.2104C90.6805 29.3717 90.8128 29.9299 91.2695 30.2887C91.5504 30.5098 91.7516 30.7237 91.9147 30.8886C93.6473 29.2792 95.2856 27.9635 97.136 26.7184C98.1491 26.0388 99.0733 25.4244 100.036 24.859C100.193 24.27 100.25 23.6991 99.7221 23.5089ZM86.8791 29.6341C86.9154 28.9798 86.4243 28.7497 86.0944 28.6518C85.8552 28.5775 85.4058 28.1136 85.2082 27.7149C84.882 28.1517 84.5938 28.5848 84.3582 29.0125C84.5014 29.4529 84.6446 29.8607 84.7841 30.2448C85.6051 30.2249 86.852 30.1832 86.8792 29.6341H86.8791ZM114.565 60.2003C112.419 60.0644 109.866 60.4993 107.426 61.4399C107.852 61.6936 108.307 62.2718 109.191 61.9691C110.436 61.5432 110.864 62.8536 110.273 63.216C109.682 63.5748 109.485 64.49 110.6 63.8032C111.712 63.1163 112.695 64.0986 112.24 64.8199C111.779 65.5394 111.19 64.983 111.321 65.9979C111.451 67.0146 111.223 67.9316 110.304 68.0947C109.387 68.2597 109.191 66.8841 108.767 66.982C108.338 67.0799 108.863 69.4051 108.666 69.4377C108.026 69.5464 107.415 70.101 107.085 70.4345C107.113 70.4525 107.134 70.4689 107.158 70.487C110.766 73.0768 111.68 71.6668 112.205 70.4218C112.729 69.1767 113.894 65.4868 114.235 63.5422C114.434 62.4276 114.695 61.2496 114.565 60.2003ZM106.735 67.3425C106.931 66.8513 106.407 66.4254 105.852 66.7842C105.293 67.1467 104.472 67.6687 103.915 66.719C103.361 65.7676 104.537 65.6715 104.604 65.213C104.669 64.7545 104.211 64.6892 104.441 63.9353C104.669 63.1814 105.481 63.4061 106.081 63.803C106.768 64.2634 106.567 63.176 106.472 62.7555C106.4 62.4365 106.349 62.1139 106.407 61.8656C105.702 62.1864 105.004 62.547 104.343 62.9512C100.976 65.0118 100.87 66.7516 101.655 67.4077C102.36 67.9931 103.801 68.2686 106.249 69.867C106.275 69.017 106.583 67.7212 106.735 67.3425H106.735ZM96.0224 65.3752C94.6286 64.6811 93.2676 63.1478 92.3524 61.379C92.3524 61.379 92.4176 61.118 92.0243 61.118C91.6329 61.118 90.1885 60.9858 87.7654 60.134C85.3405 59.284 85.0143 59.8078 84.6881 60.8553C84.3583 61.9028 84.0955 63.8039 84.0302 66.9501C83.965 70.0944 85.3405 72.059 86.1941 71.731C86.6073 71.5697 87.6784 71.0387 88.8256 70.4805C88.8419 69.8552 88.8763 68.7733 88.9452 68.2586C89.0431 67.5064 88.2583 67.8019 87.9285 68.1952C87.6005 68.5866 86.9807 69.2426 86.3898 69.143C85.8008 69.0451 85.4076 67.9976 85.5054 67.0153C85.6033 66.0313 84.4561 65.638 85.1792 64.3295C85.8988 63.0174 86.4895 64.6557 87.1112 64.5234C87.731 64.3929 87.4066 64.0667 87.1112 63.05C86.8157 62.0333 88.0336 61.7324 88.8147 62.4592C89.3059 62.9195 89.5342 61.9028 90.2555 62.0333C90.9768 62.1656 91.4027 62.6567 90.9768 63.378C90.6488 63.9344 90.4186 65.2447 91.0439 64.5578C91.6637 63.8691 92.2871 63.4433 92.8761 63.9036C93.4669 64.3603 93.0737 65.3099 92.9105 65.8011C92.7456 66.294 93.9599 66.8849 93.1063 67.472C92.2545 68.061 91.303 67.0479 90.8137 67.1784C90.3226 67.3108 90.2229 67.8998 90.8789 68.3582C91.3067 68.6573 91.7543 68.8911 92.0841 69.0234C93.4488 68.5594 95.0455 67.6642 95.5638 67.3415L96.4156 67.4086C96.4808 66.294 96.4156 65.5727 96.0223 65.3752H96.0224ZM91.1729 79.7914C90.6491 78.6116 90.4661 79.5178 89.0108 81.823C88.275 82.9883 86.4156 85.1487 84.0886 87.5899C85.7015 87.9161 89.1757 88.7697 87.1115 90.4732C84.8824 92.3055 85.8664 92.175 86.8487 92.0427C87.8328 91.9104 89.4711 92.5012 88.2243 94.7304C86.981 96.9595 86.1274 98.529 84.9476 99.2521C83.7678 99.9716 82.066 99.9063 81.6727 98.2028C81.2795 96.4992 80.1631 98.2028 80.0997 99.3173C80.0326 100.43 79.9021 102.331 80.0326 102.987L77.5443 102.855C77.479 101.806 77.479 99.7088 77.6748 98.7265C77.8723 97.7461 77.8071 96.5644 76.2992 97.0229C75.3151 97.3238 74.641 97.0701 74.2912 96.8689C71.3625 99.475 69.8818 101.275 68.8887 102.862C69.6408 103.529 70.8333 104.031 72.1055 103.511C73.5463 102.92 75.9078 103.642 74.4652 105.871C73.0226 108.094 73.0896 109.209 74.5286 107.833C75.9712 106.458 78.2874 104.093 78.9869 106.59C79.4436 108.227 77.9376 108.75 78.0028 110.063C78.068 111.373 79.3801 112.683 77.5443 114.256C75.7102 115.828 74.9237 113.14 73.6786 113.535C72.9283 113.774 72.7761 114.465 72.8177 115.077C74.4489 117.384 76.823 120.647 77.6748 122.049C78.9869 124.215 78.9869 126.837 79.5088 126.442C80.0326 126.047 81.2795 124.867 81.6727 124.543C82.066 124.215 82.4575 123.822 82.2617 123.1C82.066 122.381 81.3121 118.515 81.5422 115.828C81.8032 112.748 83.244 109.374 84.2934 107.442C85.301 105.583 88.3548 99.6436 89.0761 98.0705C89.7974 96.4992 91.1077 94.6651 91.4357 93.2225C91.7619 91.7799 93.007 88.4398 93.5326 86.8668C93.402 85.5564 92.5557 82.905 91.1729 79.7915V79.7914ZM101.001 65.1787C100.607 66.2281 100.086 67.5383 99.8227 68.1944C99.56 68.8505 98.353 68.5949 98.4454 68.1274C98.6429 67.1451 97.242 67.7957 97.3979 67.0146C97.5284 66.3586 97.2674 65.3092 97.9869 65.3092C98.7082 65.3092 100.086 65.1787 101.001 65.1787Z" fill="#BB9753"/>
<path d="M98.8066 17.7426C98.9298 17.4236 99.0349 17.0739 99.1708 16.793C98.7099 17.0332 98.2519 17.2791 97.7971 17.5306C98.0871 17.9402 98.4804 18.589 98.8066 17.7426ZM103.166 105.148C101.984 105.213 100.541 104.885 100.541 104.885C100.411 106.13 99.2022 107.914 97.9879 109.735C97.8556 109.932 97.1361 109.932 96.8063 109.668C96.4819 109.407 95.5649 108.947 96.2826 108.16C97.0057 107.377 98.1837 105.737 97.9879 105.018C97.7904 104.296 97.2684 103.642 96.4819 104.624C95.6954 105.607 94.4503 107.638 93.0748 107.705C91.6956 107.769 90.3236 106.524 90.9761 105.278C91.6321 104.035 91.8279 103.379 90.9109 102.263C89.9938 101.15 90.3363 99.7255 92.2882 98.8574C92.8772 98.5964 93.9247 98.8574 94.646 99.4464C95.3656 100.037 95.7606 99.4464 94.7766 98.8574C93.7924 98.2684 93.0077 97.5471 92.8772 96.2368C92.7522 94.9917 93.5332 93.6833 95.2368 94.4027C96.9386 95.1223 97.9879 94.5332 98.7093 93.9442C99.4287 93.3534 102.502 92.6176 102.051 95.3216C101.721 97.2843 100.808 97.3514 100.541 98.3989C100.282 99.4464 101.065 98.7922 101.526 98.0074C101.984 97.2191 103.033 94.0022 105.194 96.4325C105.719 97.0234 105.524 98.0074 104.866 99.1202C104.211 100.235 104.735 100.889 105.128 101.478C105.524 102.069 106.435 104.965 103.166 105.148ZM96.4819 120.612C94.907 121.069 94.646 120.35 93.5967 119.956C92.5492 119.565 92.4821 120.478 93.2034 121.593C93.9247 122.708 94.7112 123.757 93.8595 123.757C93.0077 123.757 92.3517 123.887 92.2211 124.543C92.0907 125.198 90.7151 124.413 90.3871 123.036C90.0591 121.656 89.7328 119.039 89.0097 120.35C88.2902 121.656 87.6342 123.822 85.8001 122.84C83.966 121.858 85.2111 120.545 84.2922 119.627C83.377 118.71 82.5252 117.532 83.4423 115.893C84.3593 114.255 85.1458 115.63 85.9976 115.63C86.8494 115.63 86.9799 114.846 86.1952 114.255C85.4068 113.666 84.4246 110.849 88.0274 111.045C89.4175 111.121 90.9109 110.652 92.0907 109.8C93.2687 108.947 96.3496 109.407 95.1046 111.571C93.8595 113.731 94.2528 114.19 94.9722 113.405C95.6954 112.615 96.6106 111.178 97.9879 111.571C99.3635 111.962 98.7745 113.01 97.9227 114.19C97.0709 115.371 97.5947 116.156 98.2489 116.613C98.9049 117.073 100.11 119.55 96.4819 120.612ZM119.741 108.881C118.038 106.067 117.71 104.952 117.447 102.069C117.282 100.249 117.43 97.8842 117.693 95.6115C117.189 95.5717 116.504 95.6678 116.466 96.4325C116.401 97.6794 115.81 99.4464 115.417 100.363C115.024 101.284 113.713 101.215 112.927 101.284C112.14 101.349 112.14 100.824 112.666 99.644C113.188 98.4642 113.385 97.9404 113.253 96.8929C113.121 95.8435 112.601 96.7624 112.14 97.6794C111.68 98.5964 110.372 100.429 108.864 100.235C107.358 100.037 107.749 97.7465 107.881 96.9581C108.012 96.1716 107.555 96.0411 106.966 95.9087C106.375 95.7801 105.194 95.5155 105.852 93.6162C106.506 91.7151 107.227 91.9108 108.142 92.2389C109.059 92.5668 109.192 91.9778 108.338 91.6516C107.486 91.3254 106.571 90.6023 106.636 89.6853C106.808 87.2586 108.338 87.4579 109.52 87.7189C110.545 87.9455 111.839 87.3293 112.718 86.3905C112.7 86.3307 112.679 86.2709 112.666 86.2093C110.917 79.5418 114.235 71.3374 115.152 69.0448C116.071 66.7522 119.609 60.2985 120.821 58.3648C120.167 58.0368 118.431 57.1542 117.479 56.6612C116.532 56.1719 116.006 55.9417 115.743 56.3024C115.48 56.6612 115.152 56.857 114.696 57.513C113.775 58.8269 114.565 58.6276 114.826 58.6276C115.089 58.6276 116.202 60.0684 116.401 60.3983C116.597 60.7245 116.401 60.9854 115.941 62.0329C115.339 63.4049 114.958 66.5565 114.435 68.4558C112.847 74.2099 110.372 73.6318 109.257 72.9123C108.142 72.1892 107.816 73.3056 106.702 74.8768C106.435 75.2502 105.768 75.966 104.887 76.8523C105.955 77.3289 107.399 78.7027 105.654 80.0528C103.622 81.6259 103.227 82.4777 104.211 82.2802C105.194 82.0844 106.178 80.5766 107.292 81.6259C108.407 82.6752 106.899 83.8532 106.308 84.1813C105.719 84.5093 104.538 85.0983 104.866 86.3434C105.194 87.5866 105.391 89.292 103.751 89.6853C102.115 90.0785 101.46 89.3572 101.002 88.5055C100.541 87.6537 100.085 88.2427 99.8873 89.292C99.6915 90.3395 99.5611 91.1261 99.5611 91.5194C99.5611 91.9108 98.3812 91.3254 97.8556 90.7999C97.3319 90.2743 96.6776 91.7151 96.085 90.9956C95.4996 90.2743 96.8063 88.0451 97.2685 87.2604C97.6998 86.5192 97.5185 85.4916 94.9142 86.6968C94.0715 88.1085 93.4028 90.1547 92.3517 93.3534C90.9109 97.7465 87.6468 103.725 86.2912 105.902C82.7627 111.574 82.1319 116.943 82.6576 120.284C83.1777 123.608 83.638 123.362 84.3593 123.362C85.0806 123.362 86.8494 125.589 88.0274 126.968C89.2073 128.344 89.6676 127.753 90.2566 127.293C92.1504 125.821 95.9545 123.362 101.328 120.808C103.621 119.719 106.673 118.557 109.65 117.604C109.695 116.37 109.998 114.882 110.107 114.322C110.237 113.666 109.585 113.468 108.931 114.322C108.271 115.172 106.506 117.269 105.324 116.745C104.146 116.221 103.166 114.911 103.818 113.796C104.472 112.684 103.559 112.356 103.099 111.767C102.638 111.178 102.638 108.881 104.081 108.684C105.524 108.49 105.98 109.735 106.966 110.063C107.948 110.391 108.733 110.322 107.486 108.947C106.243 107.573 104.735 108.095 105.524 106.197C106.308 104.296 107.423 104.429 108.733 104.82C110.043 105.213 110.698 104.494 111.551 103.903C112.403 103.312 114.105 102.527 115.285 103.903C116.466 105.278 114.435 106.524 113.974 106.984C113.09 107.868 112.927 109.537 113.907 108.555C114.893 107.573 116.57 104.017 117.71 106.984C118.366 108.684 117.119 109.34 117.318 110.391C117.512 111.437 119.284 112.879 117.84 114.19C116.401 115.502 114.368 114.389 113.516 113.601C112.666 112.814 111.747 112.423 112.14 113.865C112.428 114.925 112.575 116.042 112.579 116.731C115.446 115.937 117.943 115.455 119.214 115.567C121.086 115.734 122.492 116.287 122.427 114.583C122.362 112.879 121.445 111.699 119.741 108.881ZM80.9136 161.165C80.6254 161.165 80.0002 161.064 80.0002 160.797L79.2444 160.714C79.7011 160.806 80.118 161.33 79.6359 161.658C79.1121 162.024 77.4412 162.222 75.6759 162.119C73.9071 162.024 73.4758 161.064 73.445 160.368C73.4233 159.907 73.4758 159.505 73.4758 158.842C73.4758 158.182 73.3181 157.584 73.7096 157.32C74.0992 157.057 74.0032 157.715 74.2623 157.715C75.3805 157.715 79.2444 158.081 80.1632 158.215C81.0857 158.343 81.0205 157.796 80.8157 157.182C80.7541 156.982 80.4949 157.057 80.3971 157.32C80.2956 157.584 79.4438 157.486 79.4438 157.486C79.4438 157.486 77.7402 157.32 76.6328 157.251C75.5147 157.182 74.6556 157.057 73.9742 156.923C73.2819 156.785 72.4265 156.823 72.4989 157.155C72.5533 157.486 72.7563 161.624 72.7944 162.222C72.8234 162.816 72.8578 163.052 73.1514 163.052C73.9071 163.052 78.9907 163.117 80.1632 163.117C81.3449 163.117 81.2833 162.983 81.3104 162.323C81.3449 161.658 81.2162 161.165 80.9135 161.165" fill="#BB9753"/>
</g>
<defs>
<clipPath id="clip0_2_832">
<rect width="200" height="200" fill="white"/>
</clipPath>
</defs>
</svg>
