<svg width="200" height="200" viewBox="0 0 200 200" fill="none" xmlns="http://www.w3.org/2000/svg">
<path d="M48.937 180.819C48.5934 180.532 47.9636 180.074 47.0475 179.788C48.1354 179.216 48.8797 178.299 49.2805 177.154C49.5668 176.238 49.5668 175.093 49.5668 174.692V169.367C49.5096 167.936 49.3378 166.275 48.2499 165.016C47.2765 163.928 45.7878 163.355 43.7838 163.355H36.6267C36.3404 163.355 36.0541 163.584 36.0541 163.928V199.084C36.0541 199.37 36.2831 199.656 36.6267 199.656H43.9556C44.6999 199.656 47.0475 199.656 48.937 198.053C50.5975 196.507 50.8265 194.675 50.8837 192.614V186.602C50.8265 184.598 50.8265 182.365 48.937 180.819ZM39.6613 181.62H41.5508C44.0701 181.735 46.1886 181.964 46.9902 184.14C47.2193 184.884 47.2765 185.628 47.2765 186.373V191.354C47.2765 193.702 47.1048 194.847 46.1886 195.591C45.6161 195.992 44.9862 196.221 43.2685 196.278H39.6613V181.62ZM46.0741 174.291C46.0741 175.379 46.0169 177.441 43.6693 178.128C43.0395 178.299 42.7532 178.357 41.4363 178.414H39.604V166.447H42.2951C43.7838 166.504 45.3298 166.562 45.8451 167.879C45.9023 168.222 46.0169 168.795 46.0741 169.768V174.291ZM62.9078 182.078C63.2513 182.021 63.4231 181.907 63.6521 181.792C65.5416 181.048 66.8586 179.674 67.3739 177.784C67.6029 176.983 67.6029 175.666 67.6029 175.437V169.654C67.5456 168.623 67.4884 166.218 65.4844 164.615C63.8239 163.355 62.0489 163.298 60.1594 163.241H53.3458C53.0595 163.241 52.8305 163.47 52.8305 163.813V198.969C52.8305 199.256 53.0595 199.542 53.3458 199.542H55.8079C56.0942 199.542 56.3232 199.313 56.3232 198.969V182.365H59.2433L65.5416 199.141C65.5989 199.37 65.8279 199.485 66.0569 199.485H68.6335C68.9198 199.485 69.2061 199.256 69.2061 198.912C69.2061 198.798 69.1488 198.683 69.0916 198.626L62.9078 182.078ZM63.9384 170.57V176.066C63.9384 176.811 63.9384 178.357 62.1634 178.929C61.8199 179.044 61.1901 179.216 60.274 179.216H56.3232V166.447H60.3885C61.1901 166.447 61.9344 166.504 62.6788 166.848C63.8239 167.535 63.8812 169.081 63.9384 170.57ZM82.318 164.214C81.0584 163.298 79.4552 162.84 77.5084 162.84H77.3367C73.9012 162.84 71.2101 164.558 70.2367 167.421C69.7787 168.737 69.7214 170.283 69.6642 171.142V191.411C69.7214 193.358 69.7787 195.591 71.3246 197.595C73.0996 199.714 76.0197 199.943 77.2221 199.943C81.5164 199.943 83.2914 197.652 83.864 196.622C84.8374 195.076 84.9519 193.53 85.0091 191.755V172.345C85.0664 169.539 85.0664 166.275 82.318 164.214ZM73.2141 171.028C73.2141 169.024 73.7867 167.592 74.9891 166.791C75.6762 166.333 76.4778 166.104 77.3939 166.104C78.5391 166.104 79.2834 166.447 79.5124 166.619C80.3713 167.077 80.7148 167.707 80.8866 167.993C81.5737 169.253 81.6882 170.913 81.6882 173.662V190.782C81.631 192.671 81.5737 194.675 79.9132 195.877C79.2834 196.393 78.4245 196.622 77.5084 196.622C74.5883 196.622 73.7294 194.503 73.6722 194.274C73.3859 193.473 73.3286 192.442 73.3286 190.438L73.2141 171.028ZM99.7815 164.214C98.5219 163.298 96.9187 162.84 94.9719 162.84H94.8001C91.3647 162.84 88.6736 164.558 87.7002 167.421C87.2422 168.737 87.1849 170.283 87.1277 171.142V191.469C87.1849 193.415 87.2422 195.648 88.7881 197.652C90.5631 199.771 93.4832 200 94.6856 200C98.9799 200 100.755 197.71 101.327 196.679C102.301 195.133 102.415 193.587 102.473 191.812V172.402C102.53 169.539 102.53 166.275 99.7815 164.214ZM90.6776 171.028C90.6776 168.967 91.2502 167.592 92.4526 166.791C93.1397 166.333 93.9413 166.161 94.8574 166.161C96.0598 166.161 96.8042 166.562 96.9759 166.676C97.8348 167.134 98.1783 167.764 98.3501 168.05C99.0372 169.31 99.1517 170.971 99.1517 173.719V190.839C99.0945 192.728 99.0372 194.732 97.3767 195.935C96.7469 196.45 95.888 196.679 94.9719 196.679C92.0518 196.679 91.1929 194.561 91.0784 194.332C90.7921 193.53 90.7349 192.499 90.7349 190.495L90.6776 171.028ZM112.092 177.612L119.478 163.813C119.593 163.642 119.593 163.413 119.478 163.298C119.364 163.126 119.192 163.012 119.02 163.012H116.272C116.043 163.012 115.871 163.126 115.756 163.298L108.027 178.471V163.527C108.027 163.241 107.798 162.954 107.454 162.954H104.992C104.706 162.954 104.419 163.184 104.419 163.527V198.683C104.419 198.969 104.648 199.256 104.992 199.256H107.397C107.683 199.256 107.969 199.027 107.969 198.683V185.457L109.916 181.792L115.928 198.855C115.985 199.084 116.214 199.198 116.443 199.198H119.077C119.364 199.198 119.65 198.969 119.65 198.626C119.65 198.511 119.593 198.397 119.535 198.34L112.092 177.612ZM133.22 196.221H124.574V163.813C124.574 163.527 124.345 163.241 124.001 163.241H121.597C121.31 163.241 121.024 163.47 121.024 163.813V198.969C121.024 199.256 121.253 199.485 121.597 199.485H133.22C133.506 199.485 133.792 199.256 133.792 198.969V196.736C133.735 196.45 133.506 196.221 133.22 196.221ZM146.332 163.241H143.641C143.412 163.241 143.183 163.413 143.125 163.584L138.087 178.586L132.991 163.584C132.934 163.355 132.705 163.241 132.476 163.241H129.899C129.727 163.241 129.555 163.298 129.441 163.47C129.326 163.642 129.326 163.813 129.384 163.985L136.255 183.51V198.969C136.255 199.256 136.484 199.542 136.827 199.542H139.232C139.518 199.542 139.804 199.313 139.804 198.969V183.51L146.962 163.985C147.019 163.813 147.019 163.642 146.904 163.47C146.675 163.298 146.504 163.241 146.332 163.241ZM162.478 163.241H160.074C159.902 163.241 159.787 163.298 159.673 163.413C159.558 163.527 159.501 163.642 159.501 163.813L159.673 189.465C159.673 190.152 159.73 190.782 159.73 191.526V192.728L152.458 163.642C152.401 163.413 152.172 163.241 151.943 163.241H148.336C148.05 163.241 147.763 163.47 147.763 163.813V198.969C147.763 199.256 147.992 199.542 148.336 199.542H150.683C150.855 199.542 150.97 199.485 151.084 199.37C151.199 199.256 151.256 199.141 151.256 198.969L151.084 174.005V170.684L158.127 199.141C158.184 199.37 158.413 199.542 158.642 199.542H162.364C162.65 199.542 162.936 199.313 162.936 198.969V163.813C163.051 163.47 162.822 163.241 162.478 163.241ZM175.075 20.8989V16.4329L173.3 15.5167C172.04 14.8869 142.095 0 100.526 0H98.5791C57.0103 0 27.0647 14.8869 25.805 15.5167L24.03 16.4329V20.7844C23.6865 38.477 25.8623 83.424 53.3458 118.351C75.6189 146.693 96.5179 153.278 98.8654 153.908L99.7815 154.194L100.698 153.965C101.614 153.736 122.914 147.495 145.816 118.408C173.243 83.4812 175.419 38.5342 175.075 20.8989Z" fill="black"/>
<path d="M143.755 116.861C170.666 82.6786 172.785 38.6477 172.441 21.2987V18.0923L171.868 17.806C170.666 17.1762 141.293 2.63281 100.468 2.63281H98.5217C57.6972 2.63281 28.3814 17.2334 27.1218 17.806L26.5492 18.0923V21.1269C26.2056 38.5332 28.3242 82.6214 55.2351 116.804C76.9929 144.459 97.1475 150.815 99.3806 151.445L99.6669 151.502L99.9531 151.445C100.927 151.216 121.425 145.204 143.755 116.861ZM99.7814 149.441C98.0636 148.983 78.1953 142.856 56.8383 115.659C28.6677 79.873 28.5532 33.0365 28.7822 21.9858V19.581C28.7822 19.581 28.8395 19.581 28.8967 19.5237V19.4092L29.5266 19.1229C31.0153 18.4358 34.3362 17.0044 39.2031 15.2294C51.2271 10.8206 72.6986 4.69408 98.7507 4.69408H100.64C126.463 4.69408 147.935 10.8206 159.959 15.2294C164.826 17.0044 168.204 18.4358 169.693 19.1229L170.322 19.4092V19.5237C170.38 19.581 170.437 19.581 170.437 19.581V21.9858C170.666 33.0365 170.551 79.873 142.381 115.659C120.909 142.856 101.385 148.983 99.7814 149.441ZM66.4576 14.2561C64.5681 14.6569 63.652 14.8286 61.8197 15.2294C61.4762 15.2867 61.1899 15.6302 61.1899 15.9738L61.5907 50.2137C61.5907 52.504 61.648 54.5653 61.7625 56.4547C57.1246 44.6025 52.315 32.3494 47.3909 19.9818C47.2191 19.581 46.8183 19.4092 46.4175 19.5237C43.6691 20.4399 42.3522 20.8979 39.6611 21.9285C39.3748 22.0431 39.1458 22.3293 39.1458 22.6729V69.7385C39.1458 70.0247 39.2603 70.2538 39.4894 70.3683C39.6039 70.4828 39.7756 70.4828 39.9474 70.4828C40.0619 70.4828 40.1192 70.4828 40.2337 70.4255C41.8942 69.7957 42.753 69.5094 44.4707 68.8796C44.8143 68.7651 44.9861 68.4788 44.9861 68.1352L44.8143 34.7542C44.8143 31.8341 44.757 30.1736 44.6998 28.1123C49.5094 40.4227 54.2045 52.4467 58.7278 63.9555C58.8423 64.299 59.2431 64.528 59.644 64.4135C62.5068 63.7264 63.9383 63.3829 66.8011 62.8103C67.1447 62.7531 67.431 62.4095 67.431 62.066V15.0004C67.431 14.7714 67.3164 14.5423 67.1447 14.3706C66.9156 14.2561 66.6866 14.1988 66.4576 14.2561ZM97.6628 10.8779C89.5323 10.9924 81.3445 11.7367 73.2712 13.0537C72.8704 13.1109 72.5841 13.4545 72.5841 13.798V60.8636C72.5841 61.0926 72.6986 61.3216 72.8704 61.4361C72.9849 61.5507 73.214 61.6079 73.3857 61.6079H73.5002C81.459 60.3482 89.5323 59.6039 97.5483 59.4894C97.9491 59.4894 98.2927 59.1458 98.2927 58.6878V55.7677C98.2927 55.5386 98.2354 55.3669 98.0636 55.1951C97.8919 55.0233 97.7201 54.9661 97.4911 54.9661C89.9904 55.0806 85.9251 55.3669 78.7679 56.3402V37.7316C84.7227 36.93 87.8718 36.701 94.1129 36.4719C94.5137 36.4719 94.8572 36.1284 94.8572 35.6703V32.8074C94.8572 32.5784 94.7427 32.4066 94.6282 32.2349C94.4564 32.0631 94.2847 32.0058 94.0556 32.0058C87.9291 32.2349 84.6654 32.5212 78.8252 33.2655V16.7181C86.1541 15.7448 89.9904 15.5157 97.6056 15.4012C98.0064 15.4012 98.3499 15.0577 98.3499 14.5996V11.6795C98.3499 11.4504 98.2927 11.2787 98.1209 11.1069C98.0637 10.9351 97.8346 10.8779 97.6628 10.8779ZM131.502 13.569C121.94 11.794 112.149 10.8779 102.472 10.7634C102.243 10.7634 102.072 10.8206 101.9 10.9924C101.728 11.1642 101.671 11.3359 101.671 11.565V14.5423C101.671 14.9431 102.014 15.3439 102.472 15.3439C106.996 15.4012 109.343 15.5157 113.695 15.8593V59.2604C113.695 59.6612 113.981 60.0047 114.439 60.062C116.329 60.2337 117.245 60.291 119.192 60.52H119.249C119.421 60.52 119.65 60.4628 119.764 60.291C119.936 60.1192 120.05 59.9474 120.05 59.7184V16.4318C124.345 16.8899 126.75 17.2907 131.273 18.0923C131.502 18.1496 131.731 18.0923 131.903 17.9205C132.075 17.7488 132.189 17.577 132.189 17.2907V14.3133C132.132 13.9698 131.846 13.6262 131.502 13.569ZM151.657 41.6823C141.637 31.3188 140.491 29.6583 140.491 25.364C140.491 21.1269 142.324 20.5544 144.156 20.5544C145.072 20.5544 146.274 20.7261 147.591 21.1269C154.806 23.2455 154.806 27.1962 154.806 30.1164V34.2961C154.806 34.6397 155.035 34.926 155.321 35.0405C157.096 35.6131 157.955 35.9566 159.787 36.6437C160.016 36.7582 160.302 36.701 160.531 36.5292C160.76 36.3574 160.875 36.1284 160.875 35.8993V32.4066C160.875 27.9978 160.875 20.5544 147.935 16.8326C138.888 14.2561 134.25 17.0044 134.25 24.8487C134.25 31.376 138.258 35.2695 144.9 41.7396L146.217 43.0565C154.061 50.7863 155.665 53.3056 155.665 58.1725C155.665 59.9474 155.378 61.1498 154.863 61.8942C154.29 62.6958 153.432 63.0393 152.057 63.0393C151.027 63.0393 149.71 62.8103 148.107 62.3523C144.671 61.3789 142.152 60.0047 140.663 58.3442C138.831 56.283 138.831 54.5653 138.831 51.1298V47.4081C138.831 47.0645 138.602 46.721 138.201 46.6637C136.254 46.2057 135.338 46.0339 133.506 45.6904C133.277 45.6331 133.048 45.6904 132.876 45.8621C132.704 46.0339 132.59 46.2629 132.59 46.492V53.0766C132.59 59.2604 137.686 64.0127 147.248 66.7611C149.939 67.5627 152.286 67.9062 154.233 67.9062C161.734 67.9062 161.734 61.8369 161.734 59.2604C161.791 52.4467 158.298 48.5532 151.657 41.6823ZM128.868 97.5083C129.383 96.9357 129.841 96.3631 130.128 95.7333C132.59 90.9809 130.414 85.656 129.441 83.8238C122.57 72.4868 109.572 65.7877 96.0596 67.1046C110.088 67.849 123.658 80.3883 128.868 97.5083ZM83.0622 83.5947C86.4404 85.0262 90.8492 87.3737 95.5443 89.893C102.931 93.8438 110.603 97.9663 115.756 99.2832C120.394 100.428 124.173 100.314 126.807 98.997C126.807 98.9397 126.807 98.8825 126.75 98.8252C126.692 98.6534 126.692 98.4244 126.635 98.2526C124.402 88.8052 112.55 68.1352 92.1089 68.1352C91.25 68.1352 90.3912 68.1925 89.475 68.2498C81.5735 70.5401 75.0462 75.4069 70.6374 81.7052C71.3817 81.4762 72.3551 81.2472 73.672 81.2472C76.3059 81.3044 79.3977 82.106 83.0622 83.5947ZM77.9663 112.109C86.2686 114.857 90.9065 115.716 96.9185 115.716C99.1515 115.716 101.671 115.602 104.82 115.315C113.695 114.571 123.028 111.651 128.067 109.189C128.067 106.784 127.837 104.265 127.379 101.803C125.891 102.719 124.23 103.119 122.112 103.119C120.05 103.119 117.531 102.719 113.409 101.745C108.599 100.6 101.671 96.4776 95.5443 92.8704C92.2234 90.8664 89.017 88.9769 86.4404 87.7173C76.4776 82.7931 70.8091 83.4802 69.3204 83.8238C65.7705 89.7213 63.9955 96.7067 64.4536 103.864C65.1979 104.78 68.6334 109.017 77.9663 112.109ZM130.471 107.872C130.586 107.815 130.643 107.757 130.7 107.7C133.62 105.639 134.422 102.318 134.537 101.803C134.537 98.997 134.193 96.1914 133.449 93.3857C133.449 93.2712 133.391 93.1567 133.334 93.0422C133.048 95.6188 131.788 98.0236 129.555 100.199C130.185 102.719 130.471 105.295 130.471 107.872ZM131.33 109.761C131.216 109.876 131.101 109.933 130.987 110.048C130.815 110.162 130.586 110.334 130.414 110.448C130.242 112.681 129.841 114.857 129.212 116.976C130.3 116.575 130.7 117.033 130.815 117.319C130.815 117.377 130.815 117.377 130.872 117.434C132.704 113.884 133.907 109.99 134.365 105.982C133.735 107.299 132.819 108.731 131.33 109.761ZM129.956 118.464C129.899 118.35 129.899 118.293 129.841 118.293C129.727 118.293 129.498 118.35 128.983 118.636C128.868 118.694 128.811 118.751 128.696 118.808C128.639 118.865 128.525 118.923 128.467 118.98C127.608 121.27 126.463 123.503 125.089 125.45C127.036 123.389 128.696 121.156 130.071 118.694H130.013L129.956 118.464ZM94.0556 133.237C98.0637 132.779 101.385 131.748 105.106 129.859C105.679 129.572 106.194 129.286 106.71 129L108.084 128.313C111.29 126.652 114.726 124.82 118.848 122.587C120.337 121.785 121.768 120.984 123.2 120.182L124.86 119.266C125.49 118.923 126.12 118.579 126.692 118.235C126.75 118.178 126.807 118.178 126.921 118.121C127.437 116.174 127.78 114.056 127.952 111.823C123.887 113.884 117.76 115.659 108.771 117.491C97.2621 119.781 85.9823 118.751 75.9623 114.514C69.2059 111.651 65.9995 107.7 64.6826 105.582C64.8544 107.128 65.1407 108.673 65.5415 110.219C67.7745 118.98 73.1567 126.137 80.1993 130.775L80.1421 130.718L81.1155 131.29C81.9171 131.748 82.8904 132.149 84.0928 132.493C86.2686 133.122 88.4444 133.466 90.7347 133.466C91.7653 133.409 92.9105 133.351 94.0556 133.237ZM125.948 120.812C125.49 121.156 125.032 121.442 124.517 121.785C123.2 122.702 121.883 123.503 120.566 124.305C119.936 124.706 119.249 125.106 118.619 125.507C113.924 128.427 108.313 131.634 102.301 133.466C100.526 134.038 98.9225 134.382 97.3766 134.668C95.9451 134.897 94.571 135.012 93.1968 135.012H92.9105C91.1355 135.012 89.4178 134.84 87.7573 134.554C94.0556 136.787 101.041 137.245 108.026 135.527C112.034 134.554 115.699 132.893 118.905 130.775C121.997 128.37 124.517 124.877 126.12 120.698C126.063 120.698 126.005 120.755 125.948 120.812ZM113.351 108.845C113.351 106.269 113.351 102.49 110.317 99.5695C110.66 98.997 110.947 98.3671 111.118 97.6801C111.634 96.1341 111.691 94.4736 111.634 93.3857V86.2286C111.576 83.5947 111.176 80.8464 109 78.4416C107.053 76.2658 104.19 75.1206 100.64 75.1206H91.1355C90.1049 75.1206 89.0742 75.5214 88.3299 76.2658C87.5856 77.0101 87.1847 78.0408 87.1847 79.0714L87.2993 125.221C87.2993 126.595 87.9864 127.855 89.1888 128.599C89.8186 129 90.5629 129.229 91.3645 129.229H101.041C104.534 129.229 107.454 128.198 109.744 126.251H109.801C113.008 123.389 113.351 120.01 113.409 116.747V116.689L113.351 108.845Z" fill="white"/>
<path d="M110.889 109.133C110.889 106.556 110.889 103.407 108.198 101.174C107.626 100.716 106.939 100.315 106.194 99.9714C107.454 99.1126 108.313 97.9674 108.771 96.536C109.172 95.2191 109.172 93.6731 109.172 93.0433V85.7143C109.114 83.7103 108.885 81.3628 107.225 79.5305C105.794 77.9273 103.561 77.0685 100.755 77.1257H90.7921C90.5058 77.1257 90.2195 77.2403 89.9905 77.4693C89.7615 77.6983 89.647 77.9846 89.647 78.2709L89.7042 126.424C89.7042 126.825 89.9333 127.169 90.2195 127.398C90.3913 127.512 90.6204 127.569 90.8494 127.569H100.984C102.072 127.569 105.335 127.569 108.084 125.222C110.489 122.989 110.775 120.412 110.832 117.492L110.889 109.133ZM103.847 121.386C103.16 121.901 102.244 122.187 100.068 122.245H95.9453C95.6017 122.245 95.4872 122.016 95.4872 121.729C95.4872 118.924 95.43 103.464 95.43 103.35C95.43 103.235 95.4872 103.006 95.7735 103.006H97.663C99.667 103.121 101.786 103.235 103.16 104.151C103.961 104.609 104.477 105.296 104.82 106.212C105.106 107.129 105.164 108.159 105.164 109.133V115.946C105.221 118.981 105.049 120.47 103.847 121.386ZM100.526 97.4521C99.7243 97.6811 99.3235 97.7384 97.5485 97.7957H95.7735C95.4872 97.7957 95.3727 97.6811 95.3727 97.4521V82.6224C95.3727 82.3934 95.4872 82.2216 95.7163 82.2216H98.6936C100.011 82.2789 101.442 82.3362 102.415 82.9087C102.873 83.195 103.102 83.4813 103.274 83.9394C103.389 84.3974 103.503 85.1418 103.618 86.4587V92.6425C103.503 94.0739 103.446 96.536 100.526 97.4521Z" fill="black"/>
</svg>
