<svg width="199" height="200" viewBox="0 0 199 200" fill="none" xmlns="http://www.w3.org/2000/svg">
<path d="M180.845 76.9093C180.147 64.8397 174.76 53.9671 171.568 47.4834L171.169 46.7852L169.773 43.9922L170.072 47.0844C170.371 51.3736 171.369 66.1365 166.98 74.6151C161.494 85.8867 145.434 84.7895 140.147 84.4903H139.848C131.17 83.8918 102.941 82.8943 94.2628 82.8943C82.8914 82.994 70.323 83.8918 60.1487 84.6898C55.1612 85.0888 50.872 85.388 47.9793 85.4878C47.68 85.4878 47.3808 85.5875 46.882 85.5875C32.7177 86.8843 23.7403 82.6948 20.2491 73.1189C18.1543 67.2337 18.1543 55.5631 18.1543 49.9772V45.9872L17.0571 47.9822C11.964 57.0441 8.80532 67.0637 7.78044 77.4081C6.78295 95.363 16.1594 101.847 23.2415 105.039C30.7227 108.53 38.3036 109.029 40.7974 109.228H40.8971C41.4583 109.311 42.0258 109.344 42.5928 109.328C43.429 109.299 44.2657 109.366 45.0866 109.527C43.6901 109.827 41.8946 110.126 40.3984 110.325C38.7026 110.724 37.1066 110.924 36.3086 111.123C34.6129 111.522 27.431 113.118 23.6405 114.515C20.4486 115.612 16.8576 117.308 16.7578 117.308L16.1594 117.607L16.6581 118.205C16.6581 118.205 17.8551 119.801 19.0521 121.098C21.4711 123.274 24.3173 124.921 27.4089 125.934C30.5004 126.948 33.7694 127.305 37.0069 126.983C43.6901 126.185 47.3808 124.49 48.7773 123.791C49.4971 126.333 50.363 128.831 51.3707 131.273C54.3632 138.754 61.3456 153.217 63.9391 158.205C66.0338 162.295 68.1286 165.886 69.5251 168.279L70.0238 169.177C69.6002 170.476 68.7584 171.599 67.6298 172.369C67.4303 172.569 67.3306 172.768 67.1311 172.868L67.0313 173.068V173.367C66.9316 174.663 66.6323 187.332 75.111 196.508L75.2107 196.608H75.3105C79.5997 198.304 85.0859 200 94.0633 200C103.14 200 110.821 197.805 113.514 196.508L113.614 196.409L113.714 196.309C119.599 189.327 122.392 178.653 122.392 174.863V174.663L122.193 174.464L121.794 174.065C120.398 172.83 119.422 171.192 119.001 169.377C119.799 168.18 121.195 165.187 122.392 162.793C122.812 161.726 123.312 160.693 123.888 159.701C126.382 154.714 133.664 138.953 136.656 131.572C138.452 126.784 139.449 124.49 139.948 123.492C141.245 124.19 144.736 125.786 151.319 126.485C159.798 127.283 167.878 121.697 170.172 118.505C170.571 118.006 171.169 117.308 171.269 117.208L171.768 116.61L171.07 116.31C170.97 116.31 170.77 116.211 169.374 115.712L164.686 114.216L159.997 112.62C158.701 112.221 152.915 110.924 148.825 110.026L145.634 109.328L146.631 109.128C156.406 107.034 182.341 102.545 180.845 76.9093Z" fill="black"/>
<path d="M17.1572 50.9746C16.858 57.6578 16.9577 64.9395 18.454 71.3234C17.0988 69.884 15.667 68.5188 14.1648 67.2337C12.7683 68.7299 11.5713 70.3259 10.1748 71.7224C11.6105 64.5377 13.957 57.5655 17.1572 50.9746Z" fill="#CE1141"/>
<path d="M17.1572 50.9746C16.858 57.6578 16.9577 64.9395 18.454 71.3234C17.0988 69.884 15.667 68.5188 14.1648 67.2337C12.7683 68.7299 11.5713 70.3259 10.1748 71.7224C11.6105 64.5377 13.957 57.5655 17.1572 50.9746Z" stroke="#CE1141" stroke-width="0.24"/>
<path d="M178.251 68.7304L178.65 70.5259L175.159 68.0322C173.563 68.7304 172.067 69.7279 170.571 70.4262C171.659 63.8691 171.993 57.2092 171.568 50.5762C174.661 56.2618 176.356 62.4463 178.251 68.7304Z" fill="#CE1141"/>
<path d="M178.251 68.7304L178.65 70.5259L175.159 68.0322C173.563 68.7304 172.067 69.7279 170.571 70.4262C171.659 63.8691 171.993 57.2092 171.568 50.5762C174.661 56.2618 176.356 62.4463 178.251 68.7304Z" stroke="#CE1141" stroke-width="0.24"/>
<path d="M94.4619 131.971C98.0528 137.557 104.736 139.153 110.92 137.557C113.196 137.048 115.405 136.278 117.504 135.262C115.357 141.346 114.31 147.764 114.412 154.215C114.43 159.809 115.339 165.365 117.105 170.673C116.207 170.474 115.409 169.775 114.412 169.377C102.143 163.192 84.886 163.392 72.8163 169.776C73.4148 167.88 74.0133 165.686 74.5121 163.691C76.3075 154.414 75.0108 144.739 71.8188 136.26C78.3025 138.953 87.7787 139.552 93.0654 133.567C93.4803 132.992 93.9478 132.458 94.4619 131.971Z" fill="#CE1141"/>
<path d="M94.4619 131.971C98.0528 137.557 104.736 139.153 110.92 137.557C113.196 137.048 115.405 136.278 117.504 135.262C115.357 141.346 114.31 147.764 114.412 154.215C114.43 159.809 115.339 165.365 117.105 170.673C116.207 170.474 115.409 169.775 114.412 169.377C102.143 163.192 84.886 163.392 72.8163 169.776C73.4148 167.88 74.0133 165.686 74.5121 163.691C76.3075 154.414 75.0108 144.739 71.8188 136.26C78.3025 138.953 87.7787 139.552 93.0654 133.567C93.4803 132.992 93.9478 132.458 94.4619 131.971Z" stroke="#CE1141" stroke-width="0.24"/>
<path d="M67.1309 136.559C66.8316 139.152 65.9339 142.145 63.1409 143.142C60.8467 143.741 58.8517 142.444 57.3555 140.848C56.6608 140.089 56.179 139.16 55.959 138.155C59.4502 140.449 64.0386 138.653 67.0311 136.459L67.1309 136.559Z" fill="#CE1141"/>
<path d="M67.1309 136.559C66.8316 139.152 65.9339 142.145 63.1409 143.142C60.8467 143.741 58.8517 142.444 57.3555 140.848C56.6608 140.089 56.179 139.16 55.959 138.155C59.4502 140.449 64.0386 138.653 67.0311 136.459L67.1309 136.559Z" stroke="#CE1141" stroke-width="0.24"/>
<path d="M132.866 136.859C132.068 139.253 129.973 141.647 127.579 142.146C126.682 142.285 125.764 142.15 124.946 141.758C124.127 141.367 123.446 140.737 122.991 139.952C122.363 139.071 121.984 138.037 121.894 136.959C124.986 139.453 129.873 138.854 132.866 136.859Z" fill="#CE1141"/>
<path d="M132.866 136.859C132.068 139.253 129.973 141.647 127.579 142.146C126.682 142.285 125.764 142.15 124.946 141.758C124.127 141.367 123.446 140.737 122.991 139.952C122.363 139.071 121.984 138.037 121.894 136.959C124.986 139.453 129.873 138.854 132.866 136.859Z" stroke="#CE1141" stroke-width="0.24"/>
<path d="M126.082 143.641C127.4 143.771 128.73 143.601 129.973 143.142C126.481 151.82 122.292 160.199 118.003 168.578C116.507 164.389 116.906 159.9 117.105 155.212C117.771 149.754 118.974 144.374 120.696 139.152C121.893 141.147 123.788 143.242 126.082 143.641Z" fill="#CE1141"/>
<path d="M126.082 143.641C127.4 143.771 128.73 143.601 129.973 143.142C126.481 151.82 122.292 160.199 118.003 168.578C116.507 164.389 116.906 159.9 117.105 155.212C117.771 149.754 118.974 144.374 120.696 139.152C121.893 141.147 123.788 143.242 126.082 143.641Z" stroke="#CE1141" stroke-width="0.24"/>
<path d="M71.5202 168.479V168.579C66.2335 160.599 62.2436 152.12 58.4531 143.641C60.1489 144.539 63.0416 145.138 64.8371 143.941C66.4477 142.681 67.6034 140.929 68.1288 138.953C72.418 147.532 73.4155 158.703 71.5202 168.479Z" fill="#CE1141"/>
<path d="M71.5202 168.479V168.579C66.2335 160.599 62.2436 152.12 58.4531 143.641C60.1489 144.539 63.0416 145.138 64.8371 143.941C66.4477 142.681 67.6034 140.929 68.1288 138.953C72.418 147.532 73.4155 158.703 71.5202 168.479Z" stroke="#CE1141" stroke-width="0.24"/>
<path d="M120.697 175.263C120.001 182.563 117.115 189.482 112.418 195.113C101.545 199.402 86.8819 199.801 76.0093 195.213C70.6228 189.428 68.6279 181.946 68.3286 173.966C79.8995 165.588 97.9541 163.692 111.221 169.677C114.512 171.273 117.804 172.869 120.697 175.263Z" fill="#CE1141"/>
<path d="M120.697 175.263C120.001 182.563 117.115 189.482 112.418 195.113C101.545 199.402 86.8819 199.801 76.0093 195.213C70.6228 189.428 68.6279 181.946 68.3286 173.966C79.8995 165.588 97.9541 163.692 111.221 169.677C114.512 171.273 117.804 172.869 120.697 175.263Z" stroke="#CE1141" stroke-width="0.24"/>
<path d="M165.483 115.213C155.641 111.707 145.305 109.788 134.86 109.528C133.962 98.4556 132.666 91.5729 130.471 85.2887C125.384 84.9895 102.841 84.0918 94.0628 84.0918C85.3846 84.0918 63.1406 85.4882 58.1531 85.7875C55.312 93.6042 53.4687 101.748 52.667 110.027C41.5724 110.883 30.639 113.197 20.1488 116.909C18.7523 117.408 18.1538 117.907 18.1538 117.807C20.0376 120.201 22.4273 122.149 25.152 123.511C27.8766 124.873 30.8687 125.616 33.9141 125.687C36.9066 125.787 42.5923 125.188 46.1833 123.592C47.1808 123.193 49.1757 122.296 49.1757 122.296C49.5652 122.965 49.8989 123.666 50.1732 124.39C51.1707 127.183 52.4674 131.273 53.3652 132.969C54.6619 135.662 56.7567 137.657 60.1481 137.757C61.255 137.695 62.3355 137.395 63.3165 136.879C64.2976 136.363 65.156 135.641 65.8338 134.764C57.0559 134.265 53.3652 129.577 52.7667 122.495C50.672 122.196 50.0735 121.996 49.874 120.799C49.7451 120.172 49.7589 119.523 49.9143 118.902C50.0696 118.28 50.3627 117.702 50.7717 117.208C51.7692 115.812 53.4649 114.515 57.6544 115.812C60.0388 116.739 62.2355 118.091 64.1381 119.802C65.9336 121.498 71.2203 126.984 74.4122 128.779C77.8037 130.774 84.2874 132.669 88.4768 128.48C91.1423 125.96 92.8964 122.628 93.4643 119.004C86.8534 118.824 80.2587 118.258 73.714 117.308C71.9185 117.009 72.7165 115.313 74.113 115.712C74.113 115.712 85.5841 117.208 93.7635 117.308C93.7635 116.311 93.7635 114.715 93.8633 112.819C86.9687 112.674 80.0971 111.974 73.315 110.725C71.8188 110.326 72.118 108.63 73.5145 109.029C80.2475 110.131 87.0445 110.797 93.8633 111.024C93.8633 109.627 93.963 107.533 93.963 105.638C87.2115 105.537 80.4766 104.937 73.8137 103.842C72.118 103.543 72.517 102.047 73.8137 102.246C80.4946 103.158 87.2218 103.691 93.963 103.842V99.3533C93.963 97.6576 95.4593 97.5579 95.4593 99.2536V103.742C101.811 103.588 108.144 102.988 114.412 101.947C116.407 101.548 116.207 103.244 115.309 103.343C108.76 104.606 102.124 105.373 95.4593 105.638V111.024C101.544 110.824 108.726 110.625 114.811 109.228C117.105 108.73 117.304 110.525 115.409 110.824C108.846 111.943 102.214 112.61 95.559 112.819C95.559 114.316 95.559 116.211 95.6588 117.308C102.57 117.097 109.463 116.497 116.307 115.513C117.903 115.213 118.202 116.909 116.506 117.208C114.811 117.408 103.339 118.904 95.958 119.104C96.756 121.597 96.8557 125.188 100.447 128.281C103.838 131.273 109.723 130.974 113.813 128.58C117.005 126.685 122.092 121.198 123.888 119.503C125.384 118.206 128.975 114.914 133.763 115.014C138.451 115.114 138.551 117.508 138.85 118.206C139.05 119.004 139.249 120.301 138.152 120.999C137.354 121.498 136.556 121.298 135.758 121.697C135.159 125.587 133.962 129.976 130.87 132.271C127.578 134.764 122.491 135.063 122.491 135.063C122.491 135.063 123.189 135.861 123.389 136.061C124.72 137.01 126.353 137.436 127.977 137.258C130.095 136.898 132.047 135.887 133.563 134.365C135.159 132.271 136.656 127.981 137.753 125.188C138.152 124.191 139.149 122.296 139.449 121.498C140.446 121.897 140.845 122.196 142.641 122.894C146.306 124.272 150.197 124.948 154.112 124.889C158.999 124.789 164.585 121.797 167.877 118.705C168.376 118.206 169.573 116.809 169.573 116.809C169.573 116.809 166.381 115.513 165.483 115.213Z" fill="#CE1141"/>
<path d="M165.483 115.213C155.641 111.707 145.305 109.788 134.86 109.528C133.962 98.4556 132.666 91.5729 130.471 85.2887C125.384 84.9895 102.841 84.0918 94.0628 84.0918C85.3846 84.0918 63.1406 85.4882 58.1531 85.7875C55.312 93.6042 53.4687 101.748 52.667 110.027C41.5724 110.883 30.639 113.197 20.1488 116.909C18.7523 117.408 18.1538 117.907 18.1538 117.807C20.0376 120.201 22.4273 122.149 25.152 123.511C27.8766 124.873 30.8687 125.616 33.9141 125.687C36.9066 125.787 42.5923 125.188 46.1833 123.592C47.1808 123.193 49.1757 122.296 49.1757 122.296C49.5652 122.965 49.8989 123.666 50.1732 124.39C51.1707 127.183 52.4674 131.273 53.3652 132.969C54.6619 135.662 56.7567 137.657 60.1481 137.757C61.255 137.695 62.3355 137.395 63.3165 136.879C64.2976 136.363 65.156 135.641 65.8338 134.764C57.0559 134.265 53.3652 129.577 52.7667 122.495C50.672 122.196 50.0735 121.996 49.874 120.799C49.7451 120.172 49.7589 119.523 49.9143 118.902C50.0696 118.28 50.3627 117.702 50.7717 117.208C51.7692 115.812 53.4649 114.515 57.6544 115.812C60.0388 116.739 62.2355 118.091 64.1381 119.802C65.9336 121.498 71.2203 126.984 74.4122 128.779C77.8037 130.774 84.2874 132.669 88.4768 128.48C91.1423 125.96 92.8964 122.628 93.4643 119.004C86.8534 118.824 80.2587 118.258 73.714 117.308C71.9185 117.009 72.7165 115.313 74.113 115.712C74.113 115.712 85.5841 117.208 93.7635 117.308C93.7635 116.311 93.7635 114.715 93.8633 112.819C86.9687 112.674 80.0971 111.974 73.315 110.725C71.8188 110.326 72.118 108.63 73.5145 109.029C80.2475 110.131 87.0445 110.797 93.8633 111.024C93.8633 109.627 93.963 107.533 93.963 105.638C87.2115 105.537 80.4766 104.937 73.8137 103.842C72.118 103.543 72.517 102.047 73.8137 102.246C80.4946 103.158 87.2218 103.691 93.963 103.842V99.3533C93.963 97.6576 95.4593 97.5579 95.4593 99.2536V103.742C101.811 103.588 108.144 102.988 114.412 101.947C116.407 101.548 116.207 103.244 115.309 103.343C108.76 104.606 102.124 105.373 95.4593 105.638V111.024C101.544 110.824 108.726 110.625 114.811 109.228C117.105 108.73 117.304 110.525 115.409 110.824C108.846 111.943 102.214 112.61 95.559 112.819C95.559 114.316 95.559 116.211 95.6588 117.308C102.57 117.097 109.463 116.497 116.307 115.513C117.903 115.213 118.202 116.909 116.506 117.208C114.811 117.408 103.339 118.904 95.958 119.104C96.756 121.597 96.8557 125.188 100.447 128.281C103.838 131.273 109.723 130.974 113.813 128.58C117.005 126.685 122.092 121.198 123.888 119.503C125.384 118.206 128.975 114.914 133.763 115.014C138.451 115.114 138.551 117.508 138.85 118.206C139.05 119.004 139.249 120.301 138.152 120.999C137.354 121.498 136.556 121.298 135.758 121.697C135.159 125.587 133.962 129.976 130.87 132.271C127.578 134.764 122.491 135.063 122.491 135.063C122.491 135.063 123.189 135.861 123.389 136.061C124.72 137.01 126.353 137.436 127.977 137.258C130.095 136.898 132.047 135.887 133.563 134.365C135.159 132.271 136.656 127.981 137.753 125.188C138.152 124.191 139.149 122.296 139.449 121.498C140.446 121.897 140.845 122.196 142.641 122.894C146.306 124.272 150.197 124.948 154.112 124.889C158.999 124.789 164.585 121.797 167.877 118.705C168.376 118.206 169.573 116.809 169.573 116.809C169.573 116.809 166.381 115.513 165.483 115.213Z" stroke="#CE1141" stroke-width="0.24"/>
<path d="M112.916 176.457C113.814 178.153 113.116 180.048 112.118 181.544C111.231 182.649 110.043 183.472 108.697 183.915C107.352 184.357 105.907 184.4 104.537 184.038C102.814 183.49 101.334 182.362 100.348 180.846C99.9488 182.242 100.946 183.24 100.847 184.537C100.805 184.601 100.749 184.655 100.684 184.695C100.619 184.736 100.547 184.762 100.471 184.771C100.395 184.781 100.318 184.774 100.245 184.75C100.172 184.727 100.105 184.688 100.049 184.636C98.4526 182.542 97.8541 179.35 99.2506 177.056C100.946 173.864 104.238 172.567 107.729 172.866C108.816 173.013 109.852 173.415 110.754 174.039C111.655 174.663 112.396 175.492 112.916 176.457Z" fill="black"/>
<path d="M112.916 176.457C113.814 178.153 113.116 180.048 112.118 181.544C111.231 182.649 110.043 183.472 108.697 183.915C107.352 184.357 105.907 184.4 104.537 184.038C102.814 183.49 101.334 182.362 100.348 180.846C99.9488 182.242 100.946 183.24 100.847 184.537C100.805 184.601 100.749 184.655 100.684 184.695C100.619 184.736 100.547 184.762 100.471 184.771C100.395 184.781 100.318 184.774 100.245 184.75C100.172 184.727 100.105 184.688 100.049 184.636C98.4526 182.542 97.8541 179.35 99.2506 177.056C100.946 173.864 104.238 172.567 107.729 172.866C108.816 173.013 109.852 173.415 110.754 174.039C111.655 174.663 112.396 175.492 112.916 176.457Z" stroke="#CE1141" stroke-width="0.24"/>
<path d="M88.8766 177.555C90.2731 179.849 89.5749 182.842 88.2781 185.036C88.0786 185.336 87.7794 185.635 87.3804 185.336C86.7819 184.637 87.5799 184.039 87.6796 183.341C87.8615 182.76 87.8958 182.143 87.7794 181.545C86.9357 182.783 85.7532 183.752 84.3735 184.336C82.9937 184.919 81.475 185.093 79.999 184.837C78.8866 184.57 77.854 184.041 76.9867 183.295C76.1194 182.549 75.4423 181.607 75.0115 180.548C74.805 179.864 74.7516 179.143 74.855 178.436C74.9584 177.729 75.2162 177.054 75.61 176.458C77.7047 173.665 81.4952 173.067 84.5874 174.064C86.3965 174.663 87.9228 175.905 88.8766 177.555Z" fill="black"/>
<path d="M88.8766 177.555C90.2731 179.849 89.5749 182.842 88.2781 185.036C88.0786 185.336 87.7794 185.635 87.3804 185.336C86.7819 184.637 87.5799 184.039 87.6796 183.341C87.8615 182.76 87.8958 182.143 87.7794 181.545C86.9357 182.783 85.7532 183.752 84.3735 184.336C82.9937 184.919 81.475 185.093 79.999 184.837C78.8866 184.57 77.854 184.041 76.9867 183.295C76.1194 182.549 75.4423 181.607 75.0115 180.548C74.805 179.864 74.7516 179.143 74.855 178.436C74.9584 177.729 75.2162 177.054 75.61 176.458C77.7047 173.665 81.4952 173.067 84.5874 174.064C86.3965 174.663 87.9228 175.905 88.8766 177.555Z" stroke="#CE1141" stroke-width="0.24"/>
<path d="M112.717 192.618C112.517 193.117 112.417 193.117 112.018 193.615C110.921 193.316 109.724 192.917 108.527 192.518C98.5522 188.628 85.8841 189.725 76.5077 193.615C76.2003 193.404 75.986 193.083 75.9092 192.718C86.7818 187.83 101.744 187.231 112.717 192.618Z" fill="black"/>
<path d="M112.717 192.618C112.517 193.117 112.417 193.117 112.018 193.615C110.921 193.316 109.724 192.917 108.527 192.518C98.5522 188.628 85.8841 189.725 76.5077 193.615C76.2003 193.404 75.986 193.083 75.9092 192.718C86.7818 187.83 101.744 187.231 112.717 192.618Z" stroke="#CE1141" stroke-width="0.24"/>
<path d="M114.512 139.651C112.916 147.531 107.929 156.608 99.5498 158.902C92.9664 160.598 85.585 159.202 81.0963 153.715C77.9996 149.757 76.1584 144.963 75.8096 139.95C76.1159 139.789 76.4623 139.72 76.8071 139.75C77.5053 147.232 81.3955 155.411 88.8767 157.705C92.1937 158.759 95.7495 158.8 99.0898 157.822C102.43 156.845 105.403 154.894 107.629 152.219C110.522 148.383 112.532 143.955 113.515 139.252C113.7 139.242 113.885 139.273 114.057 139.342C114.23 139.41 114.385 139.516 114.512 139.651Z" fill="black"/>
<path d="M114.512 139.651C112.916 147.531 107.929 156.608 99.5498 158.902C92.9664 160.598 85.585 159.202 81.0963 153.715C77.9996 149.757 76.1584 144.963 75.8096 139.95C76.1159 139.789 76.4623 139.72 76.8071 139.75C77.5053 147.232 81.3955 155.411 88.8767 157.705C92.1937 158.759 95.7495 158.8 99.0898 157.822C102.43 156.845 105.403 154.894 107.629 152.219C110.522 148.383 112.532 143.955 113.515 139.252C113.7 139.242 113.885 139.273 114.057 139.342C114.23 139.41 114.385 139.516 114.512 139.651Z" stroke="#CE1141" stroke-width="0.24"/>
<path d="M16.4586 1.99689C14.8666 0.666831 12.8469 -0.0418393 10.7729 0.00191117C8.47866 0.101635 0 2.99434 0 15.5627C0 28.2309 7.68067 32.3205 12.2691 32.3205C16.8576 32.3205 21.5458 28.8293 23.042 22.6449C23.2415 21.7471 23.1418 21.6474 22.244 21.2484L19.2515 20.0514C18.5533 19.8519 18.4536 19.8519 18.0546 21.0489C17.7553 21.9466 16.4586 25.5376 13.3664 25.5376C10.2741 25.5376 8.97741 21.0489 8.97741 16.261C8.97741 11.5728 9.7754 7.08405 13.5659 7.08405C17.3563 7.08405 18.1543 11.074 18.4536 12.5702C18.5533 13.2685 18.6531 13.2685 19.3513 13.2685H22.1443C22.7428 13.2685 22.7428 13.2685 22.7428 11.9717V1.59785C22.7428 0.999359 22.643 0.999359 21.446 0.999359H18.9523C18.4536 0.999359 18.4536 1.09911 18.1543 1.79735C17.8551 2.19638 17.2566 2.79485 16.4586 1.99689Z" fill="black"/>
<path d="M130.272 7.08469L136.058 25.3387C136.357 26.1367 136.357 26.2365 136.856 26.2365H137.654C138.651 26.2365 138.651 26.2365 138.651 27.0345V30.5257C138.651 31.7227 138.551 31.7227 137.953 31.7227H126.482C125.484 31.7227 125.484 31.6229 125.484 30.9247V27.3337C125.484 26.2365 125.584 26.2365 126.382 26.2365H127.479C128.078 26.2365 128.078 26.037 127.878 25.3387L126.981 22.5458C126.681 22.047 126.582 22.047 125.883 22.047H118.901L120.397 17.8576H124.686C125.385 17.8576 125.484 17.7578 125.285 17.2591L122.691 9.17941C122.592 8.68067 122.392 8.68067 122.292 9.07967L119.699 17.2591C119.499 17.8576 119.499 17.8576 120.497 17.8576L119.001 22.047C118.203 22.047 118.203 22.047 118.003 22.5458L117.105 25.3387C116.906 26.1367 116.906 26.2365 117.405 26.2365H118.502C119.4 26.2365 119.4 26.3362 119.4 27.3337V30.9247C119.4 31.6229 119.3 31.7227 118.402 31.7227H110.522C109.824 31.7227 109.824 31.6229 109.824 30.5257V27.0345C109.824 26.3362 109.923 26.2365 110.721 26.2365H111.519C111.611 26.2507 111.705 26.2465 111.795 26.224C111.885 26.2014 111.97 26.1611 112.045 26.1053C112.119 26.0496 112.181 25.9795 112.228 25.8992C112.275 25.819 112.305 25.7302 112.317 25.638L118.203 7.18443C118.402 6.68569 118.402 6.58594 117.504 6.58594H116.407C115.509 6.58594 115.509 6.48619 115.509 5.78795V2.09724C115.509 1 115.509 1 116.806 1H132.068C132.965 1 132.965 1.09975 132.965 2.09724V5.58845C132.965 6.38644 132.965 6.38644 131.868 6.38644H130.671C130.073 6.28667 130.073 6.48616 130.272 7.08469Z" fill="black"/>
<path d="M157.902 20.9499H159.897C160.795 20.9499 160.795 21.0497 160.795 21.5484C160.795 23.3439 159.498 25.5384 156.207 25.5384C153.114 25.5384 151.818 21.0497 151.818 16.2617C151.818 11.5735 152.616 7.08482 156.406 7.08482C157.519 7.05198 158.61 7.39981 159.499 8.07084C160.388 8.74188 161.021 9.69598 161.294 10.7755C161.394 11.4738 161.394 11.4738 162.192 11.4738H164.985C165.583 11.4738 165.583 11.4738 165.583 10.0773V1.59863C165.583 1.00014 165.483 1.00014 164.286 1.00014H161.793C161.294 1.00014 161.294 1.00014 160.895 1.79813C160.795 2.19712 160.097 2.79562 159.299 1.99767C157.698 0.682547 155.684 -0.0241198 153.613 0.00268878C151.319 0.102438 142.84 2.99516 142.84 15.5635C142.84 28.2317 150.421 32.3214 155.109 32.3214C162.092 32.3214 167.478 27.0347 167.478 17.0598C167.478 16.0623 167.379 15.9625 165.982 15.9625H157.703C156.905 15.9625 156.805 16.0623 156.805 16.96V20.2517C156.805 20.9499 156.905 20.9499 157.902 20.9499Z" fill="black"/>
<path d="M184.735 0.800781C177.154 0.800781 171.069 7.98271 171.069 16.6609C171.069 25.4388 177.154 32.4212 184.735 32.4212C192.216 32.4212 198.301 25.4388 198.301 16.6609C198.301 7.98271 192.216 0.800781 184.735 0.800781L184.635 6.48647C187.428 6.48647 189.722 11.0749 189.722 16.6609C189.722 22.2468 187.528 26.8353 184.635 26.8353C181.842 26.8353 179.548 22.2468 179.548 16.6609C179.548 11.0749 181.842 6.48647 184.635 6.48647L184.735 0.800781Z" fill="black"/>
<path d="M31.6208 25.5382V7.28418C31.6208 6.58594 31.5211 6.48619 30.8228 6.48619H29.9251C29.0273 6.48619 29.0273 6.38644 29.0273 5.78795V1.79799C29.0273 1.09975 29.1271 1 30.1246 1H40.8975C41.6955 1 41.7952 1 41.7952 1.79799V5.4887C41.7952 6.28669 41.6955 6.28669 40.8975 6.28669H40.299C39.8002 6.28669 39.7005 6.28669 39.8002 6.98494V12.2716C39.8002 13.5684 39.8002 13.6681 40.8975 13.6681H46.6829C47.7802 13.6681 47.7801 13.5684 47.7801 12.2716V6.98494C47.7801 6.28669 47.6804 6.28669 47.2814 6.28669H46.6829C45.7852 6.28669 45.6854 6.28669 45.6854 5.4887V1.79799C45.6854 1 45.8849 1 46.6829 1H57.3561C58.553 1 58.553 1 58.553 1.79799V5.78795C58.553 6.48619 58.4533 6.48619 57.5555 6.48619H56.6578C55.9596 6.48619 55.9596 6.58594 55.9596 7.28418V25.5382C55.9596 26.2365 56.0593 26.2365 56.8573 26.2365H57.7551C58.553 26.2365 58.553 26.2365 58.553 27.3337V30.9247C58.553 31.5232 58.553 31.7227 57.5555 31.7227H46.1842C45.4859 31.7227 45.4859 31.7227 45.4859 30.5257V27.0345C45.3862 26.2365 45.4859 26.2365 46.3837 26.2365H46.9822C47.6804 26.2365 47.6804 26.1367 47.6804 25.4385V19.7528C47.6804 18.4561 47.5807 18.3563 46.6829 18.3563H40.8975C39.9997 18.3563 39.9 18.4561 39.9 19.7528V25.4385C39.9 26.2365 39.9 26.2365 40.5982 26.2365H41.1967C42.0945 26.2365 42.0945 26.2365 42.0945 27.0345V30.5257C42.0945 31.7227 42.0945 31.7227 41.3962 31.7227H29.9251C29.0273 31.7227 29.0273 31.7227 29.0273 30.9247V27.3337C29.0273 26.2365 29.1271 26.2365 29.7256 26.2365H30.7231C31.6208 26.2365 31.6208 26.2365 31.6208 25.5382Z" fill="black"/>
<path d="M66.5327 7.08469C66.5327 6.38644 66.5327 6.38644 66.034 6.38644H65.0365C64.039 6.38644 64.039 6.28669 64.039 5.58845V1.79799C64.039 1 64.1387 1 64.9367 1H75.6098C76.8068 1 76.8068 1 76.8068 1.79799V5.78795C76.8068 6.48619 76.7071 6.48619 75.8093 6.48619H75.3106C74.6124 6.48619 74.6124 6.58594 74.6124 7.28418V25.5382C74.6124 26.2365 74.7121 26.2365 75.5101 26.2365H76.3081C77.0063 26.2365 77.0063 26.2365 77.0063 27.3337V30.9247C77.0063 31.5232 77.0063 31.7227 76.1086 31.7227H64.7372C64.039 31.7227 64.039 31.7227 64.039 30.5257V27.0345C63.9392 26.2365 64.039 26.2365 64.9367 26.2365H65.8344C66.5327 26.2365 66.5327 26.2365 66.5327 25.4385V7.08469Z" fill="black"/>
<path d="M97.754 1.99767C96.1536 0.682547 94.1396 -0.0241198 92.0683 0.00268878C89.7741 0.102438 81.2954 2.99516 81.2954 15.5635C81.2954 28.2317 88.8763 32.3214 93.5645 32.3214C98.153 32.3214 102.841 28.8301 104.337 22.6457C104.537 21.748 104.437 21.6482 103.539 21.2492L100.547 20.0522C99.8487 19.8527 99.749 19.8527 99.35 21.0497C99.0507 21.9475 97.754 25.5384 94.6618 25.5384C91.5695 25.5384 90.2728 21.0497 90.2728 16.2618C90.2728 11.5736 91.0708 7.08487 94.8613 7.08487C98.6517 7.08487 99.4497 11.0748 99.749 12.5711C99.8487 13.2693 99.9485 13.2693 100.647 13.2693H103.44C104.038 13.2693 104.038 13.2693 104.038 11.9726V1.59867C104.038 1.00018 103.938 1.00018 102.741 1.00018H100.248C99.749 1.00018 99.749 1.09993 99.4497 1.79817C99.1505 2.19716 98.552 2.79563 97.754 1.99767Z" fill="black"/>
<path d="M29.8244 46.1885V64.3428C29.8244 64.9413 29.7247 64.9413 29.1262 64.9413H28.1287C27.3307 64.9413 27.231 65.1408 27.231 65.9388V69.7292C27.231 70.4275 27.4305 70.4275 28.2284 70.4275H44.8865L39.2008 64.642C38.1036 64.642 38.0038 64.642 38.0038 63.4451V58.2581C38.0038 57.2606 38.1036 57.1609 39.2008 57.1609V52.4727C38.0038 52.4727 38.0038 52.3729 38.0038 51.3754V46.0887C38.0038 44.9915 38.1036 44.9915 39.1011 44.9915C40.1983 44.9915 44.5873 45.0912 44.5873 48.8817C44.5873 52.6722 40.5973 52.4727 39.2008 52.4727V57.2606C40.3978 57.2606 44.5873 57.3604 44.5873 61.1508C44.5873 64.9413 40.5973 64.8415 39.2008 64.8415L44.8865 70.627C49.076 70.627 52.1682 66.8365 52.1682 62.5473C52.1682 58.2581 49.475 56.5624 47.2805 54.9664C48.8765 53.7694 51.5697 51.9739 51.5697 47.6847C51.5697 42.8968 46.8815 39.9043 43.9888 39.9043H28.6274C27.3307 39.9043 27.231 39.9043 27.231 40.9018V44.792C27.231 45.3905 27.3307 45.4902 28.2284 45.4902H29.2259C29.8244 45.2907 29.8244 45.3905 29.8244 46.1885Z" fill="black"/>
<path d="M80.7966 45.8876V61.5481C80.7966 65.5381 78.7019 71.4233 70.8217 71.4233C62.8418 71.4233 59.0513 65.5381 59.0513 61.5481V45.8876C59.0513 45.1893 58.9516 45.1893 58.3531 45.1893H57.4554C56.5576 45.1893 56.5576 45.1893 56.5576 44.3913V40.9001C56.5576 39.7031 56.6574 39.7031 57.6549 39.7031H68.328C69.126 39.7031 69.3255 39.7031 69.3255 40.7006V44.1918C69.3255 44.9898 69.2257 44.9898 68.1285 44.9898H67.2308C66.732 44.9898 66.6323 45.0896 66.6323 45.6881V60.9497C66.6645 62.1647 67.1751 63.3179 68.053 64.1584C68.9309 64.999 70.1052 65.459 71.3205 65.4384C71.9253 65.4804 72.5323 65.3939 73.1013 65.1846C73.6704 64.9753 74.1887 64.6478 74.6221 64.2238C75.0555 63.7998 75.3943 63.2888 75.6161 62.7245C75.8379 62.1602 75.9377 61.5553 75.9089 60.9497V45.8876C75.9089 44.9898 75.8092 44.9898 75.1109 44.9898H74.3129C73.4152 44.9898 73.3154 44.9898 73.3154 44.1918V40.7006C73.3154 39.8029 73.3154 39.7031 74.2132 39.7031H82.0934C83.4898 39.7031 83.4898 39.7031 83.4898 40.7006V44.3913C83.4898 45.1893 83.4898 45.1893 82.4923 45.1893H81.4949C80.7966 45.289 80.7966 45.289 80.7966 45.8876Z" fill="black"/>
<path d="M118.003 64.9395H116.906C116.208 64.9395 116.108 65.139 116.108 66.1365V69.7274C116.108 70.4257 116.208 70.4257 117.006 70.4257H136.656C137.554 70.4257 137.654 70.4257 137.654 69.3285V60.4508C137.654 59.6528 137.554 59.6528 136.656 59.6528H133.863C132.966 59.6528 132.866 59.6528 132.866 60.75V63.8422C132.866 65.0392 132.766 65.139 131.968 65.139H127.579C126.282 65.139 126.183 64.9395 126.183 64.1415V46.3862C126.183 45.1892 126.183 45.1892 126.881 45.1892H127.978C128.876 45.1892 128.876 45.0894 128.876 44.3912V40.9C128.876 39.9025 128.876 39.8027 127.878 39.8027H117.405C116.008 39.8027 116.008 39.9025 116.008 40.9V44.4909C116.008 45.2889 116.108 45.3887 117.006 45.3887H117.904C118.602 45.3887 118.602 45.3887 118.602 46.4859V64.1415C118.702 64.9395 118.602 64.9395 118.003 64.9395Z" fill="black"/>
<path d="M163.588 61.9464C163.588 68.43 157.404 71.223 154.811 71.223C152.753 71.1696 150.765 70.4718 149.125 69.228C148.327 68.43 147.429 69.3278 147.13 69.7268C146.731 70.425 146.631 70.5248 146.332 70.5248H145.035C143.738 70.5248 143.838 70.5248 143.838 69.8265V61.3479C143.838 59.9514 143.838 59.9514 144.337 59.9514H146.332C147.03 59.9514 147.03 60.0511 147.23 60.6496C147.602 61.8468 148.342 62.8961 149.345 63.6483C150.348 64.4005 151.562 64.8172 152.816 64.8391C154.312 64.8391 155.509 64.4401 155.509 63.1433C155.509 60.2506 153.813 59.5524 150.821 57.9564C147.828 56.4601 143.339 54.6646 143.339 48.0812C143.331 45.7466 144.214 43.4968 145.808 41.7912C147.403 40.0857 149.588 39.0531 151.918 38.9043C153.887 38.9427 155.785 39.6458 157.304 40.8993C157.46 41.0229 157.642 41.1092 157.836 41.1512C158.031 41.1933 158.232 41.1901 158.425 41.1419C158.618 41.0937 158.797 41.0017 158.948 40.8732C159.1 40.7446 159.22 40.5829 159.299 40.4005C159.798 39.6025 159.798 39.6025 160.197 39.6025H161.494C162.691 39.6025 162.79 39.6025 162.79 40.3008V48.7794C162.79 50.0762 162.79 50.1759 162.192 50.1759H160.297C159.499 50.1759 159.499 50.0762 159.299 49.4777C158.856 48.2668 158.057 47.2184 157.006 46.4706C155.956 45.7228 154.703 45.3106 153.414 45.2882C153.146 45.2636 152.876 45.2983 152.622 45.3899C152.369 45.4815 152.139 45.6276 151.949 45.818C151.758 46.0084 151.612 46.2384 151.521 46.4916C151.429 46.7448 151.394 47.0151 151.419 47.2832C151.419 49.0787 153.414 50.6747 156.806 52.3704C160.197 53.9664 163.588 56.4601 163.588 61.9464Z" fill="black"/>
<path d="M90.6716 64.9395H89.5744C88.8761 64.9395 88.7764 65.139 88.7764 66.1365V69.7274C88.7764 70.4257 88.8761 70.4257 89.7739 70.4257H109.424C110.222 70.4257 110.322 70.4257 110.322 69.3285V60.4508C110.322 59.6528 110.222 59.6528 109.424 59.6528H106.532C105.634 59.6528 105.534 59.6528 105.534 60.75V63.8422C105.534 65.0392 105.434 65.139 104.636 65.139H100.247C98.9508 65.139 98.9508 64.9395 98.9508 64.1415V46.3862C98.9508 45.1892 98.9508 45.1892 99.5493 45.1892H100.646C101.544 45.1892 101.544 45.0894 101.544 44.3912V40.9C101.544 39.9025 101.544 39.8027 100.547 39.8027H90.0731C88.7764 39.8027 88.7764 39.9025 88.7764 40.9V44.4909C88.7764 45.2889 88.7764 45.3887 89.6741 45.3887H90.5718C91.2701 45.3887 91.2701 45.3887 91.2701 46.4859V64.1415C91.3698 64.9395 91.2701 64.9395 90.6716 64.9395Z" fill="black"/>
<path d="M20.1494 76.4084C24.4386 84.6875 33.1168 87.3807 41.9945 86.882C46.8822 86.882 51.6701 86.3832 56.5578 86.084V86.3832C54.0813 93.3302 52.3427 100.518 51.3709 107.829C38.603 108.328 25.5359 107.231 16.1595 98.7521C9.6758 92.2684 8.07982 83.291 9.4763 74.4134C10.9725 72.6179 12.6683 71.1217 14.1645 69.3262C16.2592 71.6204 19.6507 73.4159 20.1494 76.4084Z" fill="white"/>
<path d="M179.049 72.7206C179.348 74.0173 179.348 75.2143 179.548 76.6108C180.146 86.3862 175.857 95.4633 167.478 100.451C158.301 106.037 147.728 107.832 136.456 108.231C136.257 107.234 136.157 105.837 135.958 104.74C135.171 98.2629 133.87 91.8588 132.067 85.5882C144.137 85.3887 158.8 88.5807 166.78 77.5085C167.778 75.9125 168.875 74.6158 169.772 72.9201C171.568 72.1221 173.264 70.9251 175.059 70.0273C176.555 70.7256 177.553 71.9226 179.049 72.7206Z" fill="white"/>
<path d="M133.265 122.494C133.365 126.285 132.068 130.175 128.677 131.97C127.075 132.79 125.285 133.168 123.49 133.067C123.44 132.703 123.44 132.334 123.49 131.97C126.183 131.97 128.876 130.973 130.372 128.778C131.3 127.028 131.78 125.074 131.769 123.093C132.212 122.775 132.725 122.57 133.265 122.494Z" fill="white"/>
<path d="M65.2362 132.669C64.6818 132.826 64.0947 132.826 63.5404 132.669C62.3271 132.671 61.1266 132.421 60.0144 131.937C58.9022 131.452 57.9024 130.742 57.0778 129.852C56.2533 128.962 55.622 127.911 55.2235 126.765C54.825 125.619 54.6681 124.403 54.7625 123.193C55.3101 122.993 55.9107 122.993 56.4582 123.193C56.4582 126.684 57.8547 131.273 65.0367 131.273C65.5354 132.071 65.0367 132.17 65.2362 132.669Z" fill="white"/>
</svg>
