<svg width="200" height="200" viewBox="0 0 200 200" fill="none" xmlns="http://www.w3.org/2000/svg">
<path d="M96.3131 196.321C95.6604 195.965 80.1161 186.947 64.6311 168.732C50.2734 151.883 33.1865 123.464 33.1865 84.1286C33.1865 83.0013 33.1865 81.6961 33.1865 80.1535C33.1865 79.5009 33.1865 78.0177 33.1865 78.0177V75.2292C33.2459 67.0417 33.5425 51.0228 34.1951 40.4028C34.3138 38.2076 34.4918 36.3091 34.6104 34.8258L34.9664 31.3847L37.6956 29.2489C40.3061 27.2317 43.6285 25.1551 47.7222 23.0786C50.5701 21.5954 53.8332 20.1121 57.3929 18.5696C75.7257 9.84813 97.8556 2.19463 98.0336 2.07597L100.169 1.30469L102.305 2.01664C102.543 2.07597 127.283 10.6194 146.15 19.8748C150.837 21.9513 154.871 24.0872 158.134 26.0451C159.855 27.113 161.338 28.1216 162.643 29.1302L165.373 31.2661L165.729 34.7072C165.788 35.4191 165.847 36.2497 165.966 37.199C166.737 47.3443 167.152 65.8551 167.212 75.1699V78.4923V80.1535C167.212 81.6368 167.212 82.942 167.212 84.1286C167.212 123.464 150.125 151.824 135.767 168.732C120.223 187.006 104.738 195.965 104.085 196.321L100.11 198.575L96.3131 196.321Z" fill="#B4975A"/>
<path d="M100.229 2.66983L100.882 2.90714L101.949 3.26312C102.187 3.32245 126.986 11.8659 145.675 21.062C150.362 23.1385 154.337 25.215 157.541 27.1729C159.202 28.1815 160.686 29.1901 161.991 30.1987L163.593 31.4446L164.305 31.9786L164.423 32.8685L164.601 34.8857C164.661 35.5977 164.72 36.369 164.839 37.3182C165.61 47.4042 166.025 65.915 166.085 75.1704C166.085 76.1197 166.085 77.069 166.085 77.8403V78.4929C166.085 78.9675 166.085 79.4421 166.085 79.8575V80.0948C166.085 81.578 166.085 82.9426 166.085 84.0698C166.085 123.049 149.176 151.112 134.937 167.843C119.57 185.879 104.263 194.779 103.611 195.135L101.297 196.44L100.288 197.033L99.2796 196.44L96.9658 195.135C96.3131 194.779 81.0061 185.879 65.6398 167.843C51.4601 151.112 34.4918 123.049 34.4918 84.0698C34.4918 82.9426 34.4918 81.6373 34.4918 80.0948V79.8575C34.4918 79.3828 34.4918 78.9082 34.4918 78.4335V77.8996V77.7809C34.4918 76.9503 34.4918 76.0604 34.4918 75.1111C34.5512 66.9236 34.8478 50.9047 35.5004 40.344C35.6191 38.1488 35.7971 36.3096 35.9157 34.8264L36.0937 32.8092L36.2124 31.9192L36.9243 31.3853L38.5262 30.1394C41.0774 28.1815 44.3405 26.1643 48.3749 24.0878C51.1634 22.6045 54.4265 21.1213 57.9863 19.638C76.2598 10.9759 98.3303 3.26312 98.5677 3.20379L99.6356 2.84782L100.229 2.66983ZM100.229 0L99.3983 0.296647L98.7456 0.533966L97.6777 0.889942C97.4997 0.949271 75.1918 8.72143 56.859 17.4429C53.2993 18.9261 50.0362 20.4687 47.1883 21.9519C43.0946 24.0878 39.6535 26.2236 36.9837 28.2408L35.3818 29.4867L34.6698 30.0207L33.8392 30.6733L33.7206 31.7413L33.6019 32.6312L33.4239 34.6484C33.2459 36.191 33.1273 38.0895 33.0086 40.2847C32.356 50.964 32.0593 67.0423 32 75.1704C32 76.1197 32 77.069 32 77.8996V78.0182V78.4929C32 78.9675 32 79.5015 32 79.9761V80.2134C32 81.6967 32 83.0612 32 84.1292C32 123.821 49.2649 152.477 63.7413 169.504C79.4042 187.896 95.0672 196.974 95.7198 197.389L98.0337 198.694L99.0423 199.288L100.288 200L101.534 199.288L102.543 198.694L104.857 197.389C105.509 197.033 121.172 187.956 136.835 169.504C151.312 152.477 168.576 123.821 168.576 84.1292C168.576 83.0019 168.576 81.6373 168.576 80.0948V79.9168V79.7388C168.576 79.3235 168.576 78.9082 168.576 78.4929V77.8403C168.576 77.0096 168.576 76.1197 168.576 75.1704C168.517 65.8557 168.102 47.2856 167.33 37.1402C167.271 36.1316 167.153 35.3604 167.093 34.6484L166.915 32.6312L166.797 31.7413L166.678 30.6733L165.847 30.0207L165.135 29.4867L163.533 28.2408C162.169 27.1729 160.626 26.105 158.906 25.037C155.583 23.0198 151.49 20.884 146.743 18.7481C128.173 9.61137 103.848 1.24592 102.839 0.889942L101.771 0.533966L101.119 0.296647L100.229 0Z" fill="#72253D"/>
<path d="M163.949 78.5524C163.949 79.0271 163.949 79.4424 163.949 79.917V80.2137C163.949 81.6969 163.949 83.0615 163.949 84.1887C163.949 122.516 147.277 150.163 133.275 166.597C118.146 184.396 103.136 193.118 102.483 193.474L100.17 194.779L97.8557 193.474C97.2031 193.118 82.1927 184.396 67.0637 166.597C53.1213 150.163 36.4497 122.516 36.4497 84.1887C36.4497 83.0615 36.4497 81.6969 36.4497 80.2137V79.9763C36.4497 79.5017 36.4497 79.0271 36.4497 78.5524V78.0185V77.9591C36.4497 77.1878 36.4497 76.2386 36.4497 75.2893C36.509 67.1612 36.8057 51.2015 37.4583 40.6409C37.577 38.505 37.755 36.6658 37.8736 35.1826L38.0516 33.1654L39.6535 31.9195C42.086 30.0209 45.2898 28.0631 49.1462 26.0459C51.9347 24.6219 55.1385 23.1387 58.6389 21.5961C76.7344 12.9934 98.805 5.28054 99.0423 5.22121L100.11 4.86523L101.178 5.22121C101.415 5.28054 126.037 13.7647 144.667 22.9607C149.235 25.0373 153.21 27.0545 156.355 29.0123C157.956 29.9616 159.38 30.9702 160.626 31.9195L162.228 33.1654L162.406 35.1826C162.465 35.8945 162.525 36.7252 162.643 37.6151C163.415 47.6418 163.83 66.0932 163.889 75.3486C163.889 76.2979 163.889 77.1879 163.889 78.0185L163.949 78.5524Z" fill="black"/>
<path d="M134.142 104.531V99.5887L132.936 98.3671C117.417 83.6044 84.1794 102.986 72.9005 112.326L67.328 120.996L74.2562 119.278C63.6078 132.606 67.4147 141.362 67.864 142.269C68.9832 145.421 71.5448 147.944 75.6906 149.599C78.8434 150.86 82.4138 151.01 85.4799 150.868C98.7134 150.253 114.359 142.001 124.463 133.197L124.7 132.992L126.741 122.872L122.8 125.055C114.773 128.594 106.562 131.698 98.2011 134.355C91.0208 136.594 87.7262 136.956 85.3774 136.413L85.07 136.35C84.8558 136.279 84.6669 136.148 84.5268 135.971C84.3867 135.795 84.3015 135.581 84.2818 135.356C84.1715 130.864 91.8956 121.169 95.7893 117.031C99.4149 113.138 105.113 108.866 109.937 106.832C113.169 105.476 115.249 104.933 116.243 105.035C115.883 106.121 115.435 107.176 114.903 108.188C114.903 108.188 111.151 115.589 109.906 118.032C109.883 118.08 109.875 118.134 109.885 118.186C109.895 118.239 109.921 118.287 109.959 118.323C109.997 118.36 110.047 118.384 110.099 118.391C110.152 118.398 110.206 118.388 110.252 118.363L134.142 104.531Z" fill="#B4975A"/>
<path d="M103.498 103.806C99.0443 106.171 93.9448 110.9 92.3448 112.579C79.3319 126.443 70.2126 144.965 98.7133 136.09C107.153 133.41 115.441 130.274 123.541 126.695C84.6127 159.578 47.8677 145.808 84.0295 111.255C80.7349 112.003 77.4166 112.721 74.1614 113.619C85.7556 104.035 117.496 86.1747 131.675 99.6683L116.495 108.953C122.997 96.2082 111.285 99.2033 103.466 103.806" fill="#72253D"/>
<path d="M129.567 37.8588L127.767 36.0586H123.644V48.3697H127.883L129.567 46.6856V37.8588ZM127.534 46.1049L127.302 46.3372H125.734V38.1492H125.966H127.244L127.476 38.3814V46.1049H127.534Z" fill="white"/>
<path d="M88.7619 38.1199V36.0293H85.9163H84L84.1161 36.8423V48.3985H88.7619V46.3079H86.2067V42.5913H88.2392V40.7911H86.2067V38.1199H88.7619Z" fill="white"/>
<path d="M101.965 48.3985V46.3079H99.3523V42.5913H101.443V40.7911H99.3523V38.1199H101.965V36.0293H99.12H97.2036L97.3198 36.8423V48.3985H101.965Z" fill="white"/>
<path d="M103.087 41.7203V48.3985H107.849L108.255 46.3079H105.177V41.7203V40.9073V36.8423L105.294 36.0293H102.971L103.087 36.8423V40.9073V41.7203Z" fill="white"/>
<path d="M78.1161 41.7203V48.3985H82.878L83.2845 46.3079H80.2067V41.7203V40.9073V36.8423L80.3229 36.0293H78L78.1161 36.8423V40.9073V41.7203Z" fill="white"/>
<path d="M111.366 45.9307H112.353H113.34L113.631 48.3697H115.663L113.863 36.0586H110.495L110.611 36.8135L108.927 48.3697H110.959L111.366 45.9307ZM112.295 38.2072L112.992 43.8401H111.54L112.295 38.2072Z" fill="white"/>
<path d="M91.7273 36.0293H89.6367L91.1466 46.8306L92.308 48.3985H94.5147L96.3149 36.0293H94.2824L93.0048 46.1918L91.7273 36.0293Z" fill="white"/>
<path d="M118.541 41.7203V41.6622L120.457 48.3985H122.373V36.0293H120.283L120.341 42.301L118.366 36.0293H116.334L116.45 36.8423V48.3985H118.541V41.7203Z" fill="white"/>
<path d="M76.8071 39.1071V37.8295L75.0069 36.0293H72.8002L71 37.8295V46.5983L72.8002 48.3985H75.0069L76.8071 46.5983V43.2882L74.7166 45.3788V46.0756L74.4843 46.3079H73.3229L73.0325 46.0756V38.3521L73.3229 38.0618H74.4843L74.7166 38.3521V41.1976L76.8071 39.1071Z" fill="white"/>
<path d="M54.7275 57.1304V59.8902L50.5515 64.1276V58.2573L49.9573 57.6632H47.2666L46.6724 58.2573V74.979L47.2666 75.5732H49.9573L50.5515 74.979V72.277L54.7275 68.101V76.1256L51.0115 79.8416H46.2072L42.2876 75.922V57.1304L46.0215 53.3965H50.9936L54.7275 57.1304Z" fill="white"/>
<path fill-rule="evenodd" clip-rule="evenodd" d="M59.232 53.2949H66.3541L70.3459 79.8012H66.0026L65.313 74.5322H61.0318L60.3499 79.8012H56.0386L59.5834 55.0507L59.232 53.2949ZM61.5814 70.2852H64.7571L63.1603 58.0847L61.5814 70.2852Z" fill="white"/>
<path fill-rule="evenodd" clip-rule="evenodd" d="M86.1642 53.2949H93.2862L97.2781 79.8012H92.9348L92.2451 74.5322H87.9639L87.2821 79.8012H82.9707L86.5155 55.0507L86.1642 53.2949ZM88.5136 70.2852H91.6893L90.0924 58.0847L88.5136 70.2852Z" fill="white"/>
<path d="M72.5063 76.4082L69.1924 53.293H73.6784L76.5478 75.0349L79.2556 53.293H83.6607L79.7809 79.8037H75.0121L72.5063 76.4082Z" fill="white"/>
<path d="M103.134 53.2422H98.3242L98.8852 54.8853V79.7357H108.905L109.867 75.4871H103.134V53.2422Z" fill="white"/>
<path d="M115.981 53.2285H111.356L111.806 54.948V79.7524H115.981V53.2285Z" fill="white"/>
<path fill-rule="evenodd" clip-rule="evenodd" d="M117.926 53.2285H118.476H122.551H128.282V57.5176H122.551V63.3457H127.17V67.0801H122.551V75.4473H128.282V79.7363H122.551V79.7524H118.376V54.948L117.926 53.2285Z" fill="white"/>
<path fill-rule="evenodd" clip-rule="evenodd" d="M134.782 53.2285H130.276L130.727 54.948V79.7524H134.902V69.1772L136.156 68.3003L139.087 72.5692V79.5686H143.273V70.6923L139.585 65.9028L143.177 63.3921V56.7767L139.629 53.2285H134.902H134.782ZM139.039 61.8528L134.902 64.7982V57.4267H138.414L139.039 58.0521V61.8528Z" fill="white"/>
<path d="M149.518 53.1387L145.665 56.9922V63.5267L154.118 70.2385V74.7336L153.502 75.3493H150.628L150.013 74.7336V70.8953L145.665 68.2476V75.493L149.561 79.5878H154.497L158.329 75.8625V68.1039L149.935 61.449V57.9356L150.626 57.2451H153.272L153.962 57.9356V61.298L158.329 63.9847V56.9922L154.476 53.1387H149.518Z" fill="white"/>
</svg>
