<svg width="200" height="200" viewBox="0 0 200 200" fill="none" xmlns="http://www.w3.org/2000/svg">
<path d="M189.654 102.655C190.772 99.9535 194.964 89.6134 194.964 89.6134L177.265 99.3945C177.172 99.4877 171.955 102.282 164.503 105.543C168.616 95.3096 172.069 84.824 174.843 74.15C181.084 50.3959 184.438 24.2199 184.531 23.102L185.928 12.5757C185.928 12.5757 152.579 21.7979 149.412 22.6362C137.582 8.38379 119.324 0 100.227 0C80.9446 0 62.6865 8.47694 50.8561 22.8225C47.5957 21.891 14.2469 12.5757 14.2469 12.5757L15.6442 23.102C15.6442 23.4746 19.184 50.3027 25.7047 74.4294C28.6106 84.7396 32.0938 94.8783 36.1379 104.797C28.2198 101.351 21.5128 98.2767 21.3265 98.1835L4.93153 90.3586C4.93153 90.3586 8.84397 100.233 9.96181 102.934C9.68235 102.934 4 100.699 4 100.699L9.49604 115.417V115.324C9.86865 116.442 12.1975 122.683 29.8966 170.284L32.4117 176.805C32.4117 176.805 36.3242 175.501 37.5352 175.128C38.4667 177.736 41.075 184.63 41.075 184.63L48.2478 180.997C53.6507 178.202 65.388 173.451 74.7965 171.961C86.068 187.331 94.8244 195.342 95.2902 195.622L100.134 200L104.885 195.622C105.351 195.249 114.2 186.959 125.192 172.054C133.653 173.297 141.824 176.042 149.319 180.158L156.306 183.978L159.38 176.712C159.58 176.073 159.829 175.45 160.125 174.849C160.684 174.942 164.037 176.153 164.037 176.153L166.646 169.632C167.111 168.328 178.476 141.965 189.375 116.441L196.641 99.4876C196.734 99.4876 189.654 102.655 189.654 102.655Z" fill="white"/>
<path d="M178.662 102.003C172.323 105.34 165.791 108.295 159.1 110.853C164.373 98.7218 168.702 86.2021 172.048 73.4049C178.289 49.6508 181.643 23.009 181.736 22.7295L182.481 16.4883L176.426 18.165C176.426 18.165 101.811 38.7519 99.668 39.404C97.5255 38.8451 17.6932 16.5814 17.6932 16.5814L18.5316 22.8227C18.5316 23.1022 21.9782 49.6508 28.499 73.6844C32.5046 88.2163 37.0691 99.4878 41.5404 110.107C30.8278 105.915 20.2083 100.885 20.1152 100.792L10.4272 96.2274L14.3397 106.102C23.8413 129.856 28.6853 142.897 34.8334 159.478L42.6583 180.624L46.8502 178.482C53.1846 175.315 66.1329 170.191 76.1934 168.887C87.6513 184.909 96.7803 193.107 97.2461 193.479L100.041 196.088L102.835 193.479C103.301 193.107 112.523 184.35 123.795 168.887C135.532 170.098 145.593 174.849 150.716 177.643L154.908 179.879L156.678 175.594C161.335 164.322 184.344 107.685 184.624 107.126L189.095 96.1343L178.662 102.003Z" fill="black"/>
<path d="M187.046 104.705C186.86 104.798 168.416 112.623 153.325 116.349C159.194 102.842 164.317 90.6385 169.161 72.6599C175.402 49.0922 178.663 22.6367 178.756 22.3572L178.942 20.4941L177.172 20.9599C177.172 20.9599 100.228 42.1988 99.5755 42.3851C99.0166 42.1988 21.1405 20.4941 21.1405 20.4941L21.3268 22.3572C21.42 22.6367 24.8666 49.0922 31.2942 72.8463C35.5793 88.496 40.5164 100.326 45.3604 111.691C45.3604 111.691 46.1987 113.741 46.944 115.51C33.9025 112.25 16.2034 106.009 16.0171 105.916L13.502 105.077L14.4335 107.499C22.1652 128.086 26.1708 139.078 30.3627 150.815L38.8396 174.29L39.9575 173.917C52.1821 170.303 64.6721 167.655 77.3119 165.999C88.5835 182.208 99.0166 191.337 99.1098 191.43L99.9482 192.082L100.787 191.43C108.768 183.68 116.004 175.197 122.398 166.093C132.365 166.745 151.089 171.03 158.169 173.731L159.287 174.197L159.753 173.079C164.41 161.901 188.444 106.847 188.63 106.381L189.841 103.494L187.046 104.705Z" fill="white"/>
<path d="M149.133 119.887L150.157 117.652C156.678 102.654 161.801 90.8235 166.739 72.0065C171.955 52.1649 175.216 30.2739 176.054 23.9395C172.607 24.871 99.9477 44.8989 99.9477 44.8989L99.5751 44.9921C99.5751 44.9921 27.5677 24.9641 24.0278 24.0326C24.9594 30.4602 28.2197 52.3512 33.7158 72.3791C37.9077 87.8426 42.8448 99.4867 47.5956 110.851L51.0423 119.142L78.5225 163.483L78.9882 164.135C88.3967 177.922 97.2463 186.492 99.9477 188.914C102.556 186.492 111.126 177.922 120.814 164.321L121.187 163.762L149.133 119.887Z" fill="#C4CED4"/>
<path d="M47.7821 92.9661C47.0368 91.9414 43.8696 86.9111 43.8696 78.5273V77.7821C41.6577 71.787 40.5224 65.4483 40.5161 59.0583C40.5161 43.5017 47.2231 29.4355 58.0289 19.1887C69.4965 8.53113 84.572 2.60742 100.227 2.60742C115.883 2.60742 130.958 8.53113 142.426 19.1887C147.951 24.2607 152.368 30.4211 155.398 37.2824C158.428 44.1438 160.005 51.5578 160.032 59.0583C160.044 64.6959 159.131 70.2973 157.33 75.6395C157.38 85.9284 154.399 96.0042 148.76 104.61C148.422 104.933 148.047 105.214 147.642 105.449H147.549C147.456 105.542 147.456 105.542 147.456 105.728C147.456 105.728 147.27 106.38 147.083 106.939L147.27 106.846L146.99 107.218C141.69 114.372 134.778 120.175 126.815 124.157C118.852 128.138 110.062 130.186 101.159 130.134C76.287 130.227 55.2343 114.578 47.7821 92.9661Z" fill="black"/>
<path d="M180.898 109.641C180.525 109.734 142.892 125.943 99.6685 125.757C61.662 125.57 18.532 109.362 18.1594 109.175L9.12354 105.729L12.3839 114.392C12.3839 114.672 12.3839 114.672 32.7845 169.352L34.2749 173.265L38.2805 172.054C58.1278 165.864 78.7856 162.662 99.5753 162.552C125.938 162.552 148.947 167.955 158.448 171.216L162.454 172.52L164.037 168.607C164.689 167.117 178.01 136.004 186.86 115.324L191.238 105.17L180.898 109.641Z" fill="#007DC5"/>
<path d="M181.271 114.859L177.452 116.257C177.452 116.257 168.975 119.424 168.882 119.424C166.744 120.056 164.75 121.101 163.013 122.498C162.09 123.323 161.276 124.262 160.591 125.293C160.696 125.057 160.759 124.805 160.777 124.547L161.988 121.38L158.728 122.312L150.996 124.361C150.251 124.547 144.941 125.572 143.358 125.945L141.588 126.224L132.552 127.808C132.086 127.808 128.639 128.46 126.776 130.23C126.405 130.673 126.063 131.139 125.752 131.627L126.311 128.553L123.982 128.832L116.716 129.484L116.436 131.347C116.243 131.107 116.024 130.889 115.784 130.695C114.387 129.671 112.058 129.671 111.406 129.764L100.693 130.043L92.0302 129.95C90.198 130.021 88.4361 130.673 86.9999 131.813C86.7205 132.093 86.5341 132.465 86.2547 132.745V131.068L86.1615 129.578C86.1615 129.578 77.4051 128.739 77.1257 128.739L66.5062 127.435L66.972 129.764L67.0651 130.416C64.6431 127.621 60.917 126.69 60.7307 126.597C60.6375 126.597 49.8318 124.175 49.8318 124.175L50.577 126.969L51.0428 129.019C50.7736 128.468 50.4622 127.938 50.1112 127.435C48.6155 125.322 46.4994 123.727 44.0563 122.871C41.3548 121.939 35.9519 120.635 35.7656 120.635L32.6916 119.89C29.897 118.679 23.6557 116.722 21.6063 115.977L18.1597 114.859L19.4638 118.306L37.3492 166.559C37.3492 166.559 44.4289 164.603 44.8015 164.51C44.8015 164.51 52.1606 162.74 52.7195 162.647C52.999 162.554 60.4512 161.25 60.4512 161.25V161.157C62.5006 160.877 66.5994 160.225 66.972 160.225C67.3446 160.132 70.8844 159.573 72.9338 159.387L80.386 158.641C81.1313 158.548 83.5532 158.362 84.8574 157.244C85.3214 156.936 85.7047 156.52 85.9752 156.033L86.0684 158.083L94.9179 157.803C95.2906 157.71 97.6194 157.524 99.1098 156.033C99.3187 155.836 99.5061 155.618 99.6687 155.381L99.5756 157.71C99.5756 157.71 106.376 157.896 106.748 157.896L114.76 158.082L120.535 158.548L127.894 159.387C129.694 159.528 131.498 159.174 133.111 158.362C133.297 158.176 133.483 158.083 133.67 157.896L133.111 160.039L140.563 161.343V161.25C140.842 161.343 146.059 162.274 147.27 162.461L148.015 162.74C148.202 162.74 151.928 163.672 154.722 163.299C158.169 162.926 161.709 160.132 163.292 156.499L170.745 139.452C170.838 139.079 181.271 114.859 181.271 114.859Z" fill="white"/>
<path d="M115.039 156.405L119.696 156.778L124.168 130.602L118.206 131.16L115.039 156.405Z" fill="black"/>
<path d="M134.415 132.557L132.179 141.873L137.954 141.779L141.867 128.086L132.831 129.576C132.831 129.576 129.571 130.135 128.08 131.626C126.031 133.675 125.565 137.401 125.565 137.401L121.932 156.963L127.708 157.616C129.177 157.753 130.656 157.496 131.993 156.87C133.39 156.218 134.228 154.635 134.694 153.237C135.16 151.84 136.557 146.251 136.557 146.251H131.247L130.036 151.84C129.879 152.611 129.561 153.341 129.105 153.983C128.804 154.319 128.428 154.579 128.006 154.741C127.585 154.903 127.132 154.962 126.683 154.914L130.502 137.494C130.839 136.224 131.34 135.002 131.993 133.861C132.255 133.459 132.615 133.129 133.038 132.901C133.461 132.673 133.934 132.555 134.415 132.557Z" fill="black"/>
<path d="M144.475 142.338L149.412 126.502L144.289 127.62L135.346 158.547L139.352 159.106L143.544 145.971L144.755 145.878C144.755 145.878 145.593 146.157 145.593 146.903C145.557 147.478 145.432 148.043 145.22 148.579L141.681 159.478L146.338 160.41L150.251 149.045C150.58 148.151 150.738 147.203 150.716 146.25C150.627 145.346 150.306 144.48 149.785 143.735C149.785 143.735 150.716 143.735 152.021 142.431C153.325 141.22 153.325 140.196 153.604 139.264C153.977 138.332 159.193 124.08 159.193 124.08L152.393 125.757L148.481 138.519C148.3 139.312 147.985 140.068 147.549 140.754C146.897 141.686 146.431 142.059 146.059 142.059C145.547 142.228 145.014 142.322 144.475 142.338Z" fill="black"/>
<path d="M167.857 126.687L163.479 138.424L169.441 138.145L178.011 118.023L169.441 121.097C167.522 121.715 165.726 122.66 164.131 123.892C162.354 125.696 160.876 127.771 159.753 130.04C159.287 131.158 157.331 135.536 157.051 136.934C156.679 138.331 153.791 146.063 153.791 146.063H160.591L157.703 153.794C157.43 154.942 156.923 156.02 156.213 156.961C155.534 157.799 154.574 158.362 153.511 158.545L157.331 148.671H153.139L148.574 160.967C150.517 161.486 152.527 161.706 154.536 161.619C157.237 161.34 160.312 159.197 161.709 155.844C163.199 152.583 168.043 141.312 168.043 141.312L159.939 141.778L162.454 134.605C162.454 134.605 164.131 130.413 165.342 129.016C166.035 128.096 166.887 127.308 167.857 126.687Z" fill="black"/>
<path d="M21.0469 117.652L38.4665 164.415L43.59 162.925L30.6417 125.105C30.6417 125.105 32.5979 125.291 34.2746 128.272C35.5232 130.505 36.4931 132.882 37.1624 135.351C37.6282 137.215 45.8256 162.459 45.8256 162.459L51.0422 161.248L41.0748 127.992C41.0748 127.992 42.2858 127.992 43.59 130.228C44.3553 131.524 44.9799 132.898 45.453 134.327L53.0916 160.875L58.1219 159.851L51.6943 135.258C51.6943 135.258 50.2038 130.88 48.6202 128.644C47.3813 126.761 45.5435 125.349 43.4037 124.639C40.8885 123.8 35.2993 122.31 35.2993 122.31L36.1377 124.825C35.0743 123.664 33.851 122.66 32.5047 121.844C31.1074 121.006 21.0469 117.652 21.0469 117.652Z" fill="black"/>
<path d="M61.8482 143.27L59.0536 131.16C60.0076 131.399 60.8977 131.844 61.6619 132.464C62.6866 133.395 62.966 136.004 62.966 136.004L64.3633 143.27H61.8482ZM67.6237 158.174L72.0019 157.615L68.2758 138.146C68.2758 138.146 67.4374 133.861 66.3196 132.091C64.3633 129.203 60.2646 128.086 60.2646 128.086L52.2534 126.502L60.5441 159.292L65.4812 158.547L62.4071 146.25H65.2949L67.6237 158.174Z" fill="black"/>
<path d="M68.7412 129.484L74.3304 157.43L80.1991 156.778C80.1991 156.778 82.9937 156.685 83.7389 156.033C84.2072 155.664 84.5909 155.198 84.8641 154.668C85.1372 154.137 85.2936 153.555 85.3225 152.959L84.6704 131.161L78.8949 130.602L80.9443 151.189C80.9443 151.189 81.1306 153.052 80.1991 153.984C79.9965 154.224 79.7368 154.41 79.4438 154.524C79.1509 154.637 78.834 154.676 78.5223 154.636L75.5414 130.23L68.7412 129.484Z" fill="black"/>
<path d="M87.7445 156.217L94.731 155.937C95.8923 155.825 96.9942 155.371 97.8982 154.633C98.6378 153.757 99.1213 152.693 99.2955 151.559L99.3887 147.647H94.6378L94.731 151.559C94.7919 152.229 94.5917 152.897 94.1721 153.422C93.7063 153.888 92.1227 153.888 92.1227 153.888V145.97H99.3887L99.575 143.641H92.0296V136.748C92.0026 136.473 92.039 136.196 92.1358 135.938C92.2327 135.679 92.3876 135.447 92.5885 135.257C93.2262 134.856 93.9843 134.692 94.731 134.792V141.871H99.7613L100.413 131.718L92.0296 131.531C90.6733 131.602 89.372 132.09 88.3034 132.929C86.5335 134.512 86.813 138.145 86.813 138.145L87.7445 156.217Z" fill="black"/>
<path d="M110.009 135.445L109.636 141.593C109.632 142.024 109.502 142.445 109.263 142.804C109.077 143.062 108.818 143.257 108.518 143.363L106.841 143.27L107.307 134.234L108.518 134.141C108.88 134.132 109.236 134.229 109.543 134.42C110.009 134.607 110.009 135.445 110.009 135.445ZM114.666 132.464C113.735 131.532 111.499 131.626 111.499 131.626L102.37 131.905L101.438 155.939L106.003 156.032L106.562 146.158C106.562 146.158 108.052 145.692 108.798 146.716C109.078 147.126 109.209 147.619 109.17 148.114L108.611 156.032L113.083 156.311L113.921 148.3C114.075 147.491 114.011 146.655 113.735 145.878C113.439 145.312 112.94 144.879 112.337 144.667C112.337 144.667 112.989 144.667 113.921 143.642C114.555 142.882 114.916 141.931 114.946 140.941L115.505 135.352C115.411 135.352 115.691 133.489 114.666 132.464Z" fill="black"/>
<path d="M110.753 166.837L116.436 165.44L110.66 164.881C110.381 164.881 104.978 164.415 102.276 164.415C101.904 163.297 99.575 156.311 99.575 156.311L98.6435 159.012C98.5504 159.198 97.3394 162.552 96.6873 164.415C93.5201 164.415 89.3282 164.787 89.235 164.787L83.0869 165.44L89.0487 166.744C90.9118 167.116 94.6379 168.42 94.9174 170.004C94.4516 171.867 93.2406 175.128 93.2406 175.128L92.0296 178.108C92.0296 178.108 98.5504 173.544 99.4819 172.985C100.413 173.544 106.748 178.015 106.748 178.015C106.748 178.015 104.14 170.47 103.953 169.818C104.605 168.886 107.866 167.489 110.753 166.837Z" fill="black"/>
<path d="M102.37 169.724C102.835 168.141 105.537 166.93 107.679 166.185C105.537 165.998 102.835 165.812 101.438 165.812H101.159C101.159 165.812 100.041 162.738 99.4819 161.154C99.0161 162.552 98.2709 164.601 97.9914 165.532L97.8983 165.905H97.5257C96.0352 165.905 93.8927 165.998 92.3091 166.091C94.1721 166.93 96.4078 168.141 96.6873 169.911V170.19C96.4078 171.215 95.8489 172.985 95.3831 174.196C96.8736 173.078 99.575 171.215 99.575 171.215C99.575 171.215 102.463 173.171 103.953 174.196C103.301 172.612 102.37 170.004 102.37 170.004V169.724Z" fill="white"/>
<path d="M43.5903 59.1522C43.5903 29.7158 69.0212 5.77539 100.227 5.77539C131.434 5.77539 156.865 29.7158 156.865 59.1522C156.865 88.4955 131.527 112.436 100.227 112.436C69.0212 112.436 43.5903 88.4955 43.5903 59.1522Z" fill="white"/>
<path d="M66.0399 27.4799L68.3687 25.5237C69.9523 24.3127 70.4181 22.6359 69.5797 21.6113C68.4619 20.214 66.692 20.6797 64.8289 22.077L62.9658 23.6606L66.0399 27.4799ZM65.8536 23.288L65.9467 23.1949C66.692 22.6359 67.2509 22.5428 67.7166 23.1017C68.0893 23.5675 67.8098 24.2196 67.1577 24.6853L67.0646 24.8717L65.8536 23.288Z" fill="black"/>
<path d="M80.1062 17.8869L81.7829 17.1417L82.2487 17.6075L84.6707 16.5828L80.5719 13.043L78.0568 13.9745L77.7773 19.3774L80.1993 18.4459L80.1062 17.8869ZM80.013 16.5828L79.9199 15.0923V14.9992C80.0467 15.2075 80.2036 15.3958 80.3856 15.5581L80.9446 16.2102L80.013 16.5828Z" fill="black"/>
<path d="M91.9365 10.0607L94.3585 9.78125L94.7311 13.0416L96.7805 12.8553L96.9668 14.4389L92.4954 14.9047L91.9365 10.0607Z" fill="black"/>
<path d="M105.816 9.78125L108.331 10.1539L107.772 13.4142L109.822 13.6937L109.542 15.2773L105.164 14.6252L105.816 9.78125Z" fill="black"/>
<path d="M119.79 17.6989L121.466 18.4442L121.373 19.0962L123.795 20.2141L123.516 14.718L121.001 13.6934L116.902 17.2332L119.324 18.351L119.79 17.6989ZM120.628 16.8606L121.653 15.6496V15.7427C121.653 16.0222 121.56 16.1153 121.56 16.3948L121.466 17.2332L120.628 16.8606Z" fill="black"/>
<path d="M131.899 23.2881L131.992 23.4745C132.182 23.9608 132.467 24.4043 132.831 24.7786C133.017 24.9649 133.39 25.1512 133.483 24.9649C133.576 24.7786 133.39 24.4992 133.296 24.406L132.924 24.0334C132.272 23.2882 131.899 22.5429 132.365 21.8909C133.11 21.0525 134.694 21.4251 135.812 22.3566C136.353 22.8479 136.823 23.4123 137.209 24.0334L135.905 24.5923C135.706 24.1391 135.383 23.7516 134.973 23.4745C134.88 23.2881 134.507 23.1018 134.414 23.2881C134.321 23.4744 134.507 23.6607 134.694 23.8471L134.973 24.2197C135.718 24.9649 135.998 25.8033 135.439 26.4553C134.694 27.2937 133.203 26.828 132.085 25.8964C131.384 25.3811 130.811 24.7119 130.409 23.9402L131.899 23.2881Z" fill="black"/>
<path d="M147.736 45.4594C147.363 45.1799 146.618 44.7142 146.618 44.7142C146.466 44.6215 146.338 44.4937 146.245 44.3416C146.172 43.8938 146.047 43.4561 145.872 43.0374C140.952 36.7193 134.724 31.5397 127.614 27.8534C126.843 27.5197 126.027 27.3 125.192 27.2013C125.02 27.1977 124.854 27.1315 124.727 27.015C124.12 26.4023 123.389 25.926 122.584 25.6177C115.752 22.8358 108.443 21.412 101.066 21.4258C98.7915 21.4387 96.5203 21.5942 94.2656 21.8916L97.2465 17.886C85.5092 17.5134 77.0322 26.7356 77.0322 26.7356C74.2231 28.022 71.5142 29.5166 68.9279 31.2069C67.1832 31.7888 65.5784 32.7268 64.2154 33.9616C62.8523 35.1963 61.7608 36.7009 61.0099 38.3797C59.4263 39.5907 56.3522 43.6895 56.3522 43.6895C55.6319 44.1674 54.947 44.6966 54.3028 45.2731C51.5913 48.198 49.724 51.8038 48.9 55.7062C48.8646 55.743 48.8379 55.7871 48.8218 55.8354C48.8057 55.8838 48.8005 55.9351 48.8068 55.9857C48.7136 56.2652 48.7136 56.6378 48.6205 57.0104C48.5273 57.7556 48.341 58.4076 48.2479 59.1529L48.341 59.0597C48.3459 59.1612 48.3127 59.2609 48.2479 59.3392C47.8331 60.4967 47.4909 61.6789 47.2232 62.879C47.13 63.3448 45.4533 68.1888 45.4533 68.1888C41.2614 82.907 46.8506 91.7565 47.7821 93.1538C55.2344 114.765 76.287 130.229 100.973 130.229C109.877 130.291 118.67 128.247 126.635 124.265C134.6 120.282 141.511 114.474 146.804 107.313C147.005 106.871 147.131 106.399 147.177 105.916C147.186 105.823 147.216 105.732 147.265 105.652C147.313 105.572 147.378 105.503 147.456 105.45C148.201 105.077 148.481 104.798 148.481 104.705C154.12 96.0988 157.101 86.023 157.051 75.7342C157.184 64.9173 153.927 54.3303 147.736 45.4594Z" fill="black"/>
<path d="M77.5908 34.8399C77.684 34.6535 77.8703 34.5604 77.9634 34.4672L78.2429 34.1878H78.3361C78.3386 32.4901 78.5577 30.7997 78.9881 29.1575C84.1115 22.0779 92.4953 20.2148 92.4953 20.2148C93.52 19.8422 92.868 20.3079 92.868 20.3079C87.5582 26.2698 88.1171 31.1137 88.1171 31.1137L93.2406 49.4649C93.2406 49.4649 89.1418 47.9745 85.9746 41.64C84.4842 54.4952 96.6872 64.9283 96.6872 64.9283C97.153 65.3941 96.3146 64.8352 96.3146 64.8352C93.3337 63.3447 89.7939 60.0844 88.8624 59.246C89.0487 60.2707 95.0105 89.8934 95.1036 90.0797C95.1368 90.2745 95.1996 90.463 95.2899 90.6386L97.2462 85.6084L99.0161 100.606C91.1912 107.779 82.9937 104.984 82.5279 104.798C82.6297 104.948 82.723 105.103 82.8074 105.264C82.8074 105.264 89.5144 118.305 116.808 117.001C116.808 117.001 117.46 117.001 117.367 117.094C117.296 117.101 117.229 117.134 117.181 117.187C116.757 117.325 116.32 117.419 115.877 117.467C82.9937 126.223 65.9467 98.2772 65.2014 97.0662C64.1522 95.572 63.2476 93.9812 62.5 92.3154C62.5 92.2222 62.5 92.0359 62.5932 92.2222C62.5932 92.2222 66.0398 95.7621 76.0072 96.6936H76.1004C68.4618 88.3098 65.2014 82.1616 64.7357 81.2301C64.7357 81.2301 63.8041 79.8328 62.6863 75.9204C62.6863 75.9204 62.7795 75.734 62.7795 75.9204C63.1521 76.6656 65.7604 80.3917 68.8344 81.2301C66.2261 77.0382 64.5494 70.4243 64.3631 69.4928C67.9029 74.4299 74.2373 74.8025 74.2373 74.8025C74.2376 74.7902 74.2353 74.778 74.2307 74.7666C74.2262 74.7552 74.2193 74.7448 74.2106 74.7361C74.2019 74.7274 74.1915 74.7205 74.1801 74.7159C74.1687 74.7114 74.1565 74.7091 74.1442 74.7094V74.8025C63.8041 64.4626 66.0398 53.2842 70.2317 45.1799C72.1786 41.3996 74.6568 37.9176 77.5908 34.8399Z" fill="white"/>
<path d="M108.518 102.933L101.718 110.012L110.102 103.585L105.723 88.6803L107.68 70.7949L104.326 87.842L108.518 102.933Z" fill="#C4CED4"/>
<path d="M106.841 66.6048C106.981 66.5816 107.111 66.5166 107.214 66.4185C107.926 66.0472 108.559 65.541 109.077 64.928C109.991 63.979 110.703 62.8534 111.167 61.6201C111.632 60.3868 111.84 59.0717 111.778 57.7552C111.751 55.8559 111.437 53.9716 110.847 52.166C110.754 54.6812 110.009 63.9034 106.841 66.6048Z" fill="#C4CED4"/>
<path d="M110.008 36.1438C112.337 32.604 116.249 32.3245 117.926 32.3245C116.664 31.9036 115.344 31.6836 114.014 31.6724C112.65 31.6436 111.292 31.8646 110.008 32.3245C109.263 32.604 108.797 32.7903 108.611 32.8834C109.144 33.9401 109.611 35.029 110.008 36.1438Z" fill="#C4CED4"/>
<path d="M106.935 43.6899C106.947 43.6897 106.959 43.6919 106.97 43.6965C106.982 43.7011 106.992 43.7079 107.001 43.7166C107.01 43.7253 107.017 43.7357 107.021 43.7471C107.026 43.7586 107.028 43.7708 107.028 43.7831V44.8078C107.028 52.4463 105.071 60.8301 104.233 63.811C106.716 58.1767 107.986 52.0828 107.959 45.9256C107.965 43.6781 107.778 41.4341 107.4 39.2186C107.311 38.5603 107.187 37.9073 107.028 37.2624C106.282 43.0379 104.047 45.6462 104.047 45.6462L103.954 45.7394C103.86 45.7394 103.86 45.7394 103.767 45.6462C101.669 41.9031 98.9249 38.5603 95.663 35.7719C94.3549 34.6157 92.9169 33.6154 91.3779 32.791C98.2713 47.6955 100.321 59.1534 100.88 62.9727V61.6685C100.752 57.0357 100.223 52.4228 99.296 47.8818C98.5507 43.8762 97.7124 40.9885 97.7124 40.9885V40.8022H97.8987C100.973 43.2242 103.208 50.0244 103.488 51.3286C104.339 50.0527 105.027 48.6759 105.537 47.2298C106.096 45.4599 106.655 43.7831 106.655 43.7831L106.935 43.6899Z" fill="#C4CED4"/>
<path d="M48.8998 74.7087C48.8998 81.7883 50.1107 89.1474 56.2589 98.649C62.1275 110.852 72.747 117.373 77.7773 119.888C79.454 120.633 80.4787 121.099 80.4787 121.099C87.3409 124.391 94.8517 126.11 102.463 126.129C112.786 126.042 122.857 122.933 131.434 117.187C132.924 116.162 133.762 115.51 133.762 115.51L134.414 114.858C134.414 114.951 134.228 115.044 134.135 115.044L133.576 115.417C122.677 121.751 112.71 123.707 104.512 123.707C91.6571 123.707 83.4596 118.956 83.4596 118.956C56.2589 104.797 55.8862 80.2047 55.8862 80.2047C55.886 80.1923 55.8882 80.1801 55.8928 80.1687C55.8974 80.1573 55.9042 80.1469 55.913 80.1382C55.9217 80.1295 55.932 80.1226 55.9434 80.1181C55.9549 80.1135 55.9671 80.1112 55.9794 80.1115H56.1657C59.6124 86.9117 63.8974 89.1474 65.7605 89.8926C65.9674 90.0084 66.186 90.102 66.4126 90.1721C58.4945 80.2978 56.2589 71.914 56.2589 65.6727C56.2589 57.289 60.2645 52.6313 60.2645 52.6313L60.3576 52.5381C60.3699 52.5379 60.3821 52.5401 60.3936 52.5447C60.405 52.5493 60.4154 52.5562 60.4241 52.5649C60.4328 52.5736 60.4396 52.584 60.4442 52.5954C60.4488 52.6068 60.451 52.619 60.4508 52.6313C59.9643 55.1801 59.7148 57.7684 59.7055 60.3631C59.6681 63.1666 60.0447 65.9602 60.8234 68.6537C61.0631 69.3828 61.343 70.098 61.6617 70.7962C61.4044 68.8819 61.2799 66.9521 61.2891 65.0207C61.2757 52.9805 66.0319 41.4251 74.5169 32.8828C72.747 33.628 70.6976 35.4911 69.0209 37.261C67.1578 39.1241 65.6673 40.9871 65.6673 40.9871H65.5742C65.481 40.9871 65.481 40.9871 65.481 40.8939C65.6317 39.4106 66.1089 37.9791 66.8783 36.702C65.4398 38.1608 64.2726 39.8642 63.4317 41.7323C62.8649 42.8699 62.3974 44.0542 62.0344 45.2721V45.3653C59.6593 48.1178 57.6837 51.191 56.1657 54.4944C55.4906 55.9066 54.9299 57.3707 54.489 58.8726C54.3958 59.2452 54.3026 59.4315 54.3026 59.5246C54.3026 59.5246 54.3026 59.6178 54.1163 59.6178C53.93 59.6178 54.0232 59.5246 54.0232 59.4315V59.3383C54.028 59.1486 54.0593 58.9604 54.1163 58.7794C54.1163 55.2396 55.6068 51.4203 56.1657 49.9299C52.067 54.3081 51.0423 60.363 51.0423 65.1138C51.0334 67.8117 51.3462 70.5011 51.9738 73.125C52.0849 76.1586 52.4275 79.1794 52.9985 82.1609C53.6506 84.9555 54.1163 87.0048 54.1163 87.0048C54.2471 87.3028 54.341 87.6156 54.3958 87.9364V88.0295H54.3026C54.1163 88.0295 54.1163 87.9364 54.0232 87.8432C53.93 87.8432 53.93 87.7501 53.8369 87.5638L53.6506 87.1911C50.6697 82.7198 49.2724 75.4538 48.9929 73.6839C48.9158 74.0197 48.8845 74.3644 48.8998 74.7087Z" fill="#C4CED4"/>
<path d="M140.47 43.4081C140.47 43.4081 127.242 25.709 102.37 25.709H101.811C101.739 25.7103 101.668 25.7278 101.604 25.76C101.539 25.7922 101.483 25.8385 101.438 25.8953C101.438 26.0816 101.625 26.1748 101.811 26.2679C103.817 27.8467 105.687 29.5917 107.4 31.4845V31.5777L107.493 31.4845C108.004 31.2515 108.534 31.0644 109.077 30.9256C110.476 30.5588 111.916 30.371 113.362 30.3666C116.162 30.3684 118.917 31.0731 121.373 32.416C120.069 33.0681 113.921 36.1421 112.524 39.7751L112.617 39.8683C112.617 39.8683 118.858 45.4575 131.713 45.4575C133.958 45.4784 136.2 45.3227 138.42 44.9917C138.8 44.9831 139.176 44.9204 139.538 44.8054C140.097 44.6191 140.749 44.4328 140.749 43.7807C140.64 43.6696 140.546 43.5443 140.47 43.4081Z" fill="#007DC5"/>
<path d="M113.734 68.189C113.641 68.0959 113.548 68.0959 113.548 68.189C113.455 68.189 113.455 68.2822 113.548 68.2822C113.686 68.4261 113.81 68.5819 113.921 68.7479C114.666 69.7726 116.063 72.1946 116.063 76.4796C115.974 80.4971 114.987 84.4437 113.175 88.0306C113.156 86.6523 113 85.2793 112.71 83.9319C112.244 81.5099 111.405 78.9948 109.449 78.4359H109.263L108.145 88.9622L112.337 104.612L104.046 111.319C103.953 111.319 103.953 111.319 103.953 111.412C103.953 111.424 103.955 111.437 103.96 111.448C103.964 111.459 103.971 111.47 103.98 111.479C103.989 111.487 103.999 111.494 104.01 111.499C104.022 111.503 104.034 111.506 104.046 111.505C106.904 112.249 109.851 112.594 112.803 112.53C116.34 112.512 119.867 112.138 123.329 111.412C123.625 111.325 123.897 111.17 124.124 110.96C124.35 110.75 124.524 110.49 124.633 110.201C125.277 106.793 125.589 103.33 125.565 99.8611C125.658 90.6389 123.702 77.5043 113.734 68.189Z" fill="#007DC5"/>
<path d="M127.428 110.201C127.241 110.108 127.241 109.921 127.241 109.642V109.176C127.536 108.043 127.754 106.892 127.894 105.73C128.351 102.865 128.57 99.9671 128.546 97.0663C128.546 87.6578 126.31 74.5232 115.784 64.3695C115.733 64.3188 115.668 64.2861 115.597 64.2763L115.318 63.9969C115.328 63.9262 115.36 63.8608 115.411 63.8105H115.597C115.757 63.8115 115.915 63.8431 116.063 63.9037C117.863 64.5021 119.492 65.5245 120.814 66.8846C120.721 66.4188 120.534 65.3942 120.255 64.09C119.578 61.8481 118.471 59.7597 116.995 57.9419L116.715 57.6624C116.622 57.4761 116.529 57.4761 116.529 57.2898V57.1035H116.715C116.808 57.1035 116.901 57.1967 117.181 57.383C117.833 57.6624 144.289 70.4244 145.22 96.1347V96.6005C145.244 97.0752 145.175 97.55 145.015 97.9977C144.855 98.4453 144.608 98.8569 144.289 99.2088C144.009 99.4882 137.768 107.313 128.452 110.201C128.285 110.309 128.093 110.373 127.894 110.387C127.8 110.387 127.521 110.387 127.428 110.201Z" fill="#007DC5"/>
<path d="M147.27 91.3842C146.711 70.1453 126.59 55.7065 116.529 49.7447C114.737 48.6234 112.869 47.6274 110.94 46.7638L110.474 46.5775H111.126C112.326 46.5826 113.512 46.8427 114.604 47.3406C115.696 47.8384 116.67 48.5627 117.461 49.4653C117.431 48.5476 117.274 47.6385 116.995 46.7638L116.809 46.4844L117.088 46.5775C119.976 47.6954 123.609 48.068 127.242 48.068C130.422 48.0386 133.597 47.7896 136.743 47.3228C139.258 47.0433 140.935 46.6707 140.935 46.6707H141.308C142.798 46.6707 143.264 47.5091 143.264 47.6022C146.711 51.4215 150.903 60.1779 151.648 70.7042C151.741 72.0084 151.741 73.3125 151.741 74.5235C151.741 82.4415 150.064 88.5897 148.853 91.1048C148.387 92.0363 148.015 92.5021 147.642 92.5021C147.363 92.4089 147.27 92.0363 147.27 91.3842Z" fill="#007DC5"/>
<path d="M89.2352 22.7299L89.3283 22.6367C89.0489 22.7299 83.5528 24.4066 81.9692 32.6041C81.9692 32.6041 81.9692 32.7905 82.0624 32.6041C82.5282 31.8589 84.2049 29.2506 85.7885 29.9958V29.8095C85.8817 29.1574 86.4406 26.2697 89.2352 22.7299Z" fill="black"/>
<path d="M85.1366 97.3449C83.9256 95.0161 76.3802 78.528 76.3802 78.528C74.0513 79.3664 71.1636 77.4102 71.1636 77.4102C74.8897 87.1912 83.6461 95.7613 85.0434 97.3449C85.2297 97.6244 85.2297 97.5313 85.2297 97.5313C85.1366 97.5313 85.1366 97.3449 85.1366 97.3449Z" fill="black"/>
<path d="M77.5912 43.874C70.791 59.3375 86.0681 65.765 86.3476 65.8582L85.5092 62.2252L85.0434 60.269C84.6884 60.0745 84.3137 59.9184 83.9256 59.8032C83.8324 59.8032 83.7393 59.71 83.6461 59.6169C83.4734 59.6134 83.3079 59.5472 83.1804 59.4306C76.4733 55.8908 77.1254 47.4139 77.5912 44.6193V44.3398C77.6544 44.1603 77.686 43.9712 77.6843 43.7809C77.6843 43.5946 77.6843 43.7809 77.5912 43.874Z" fill="black"/>
<path d="M87.6515 87.471L86.5337 68.002L93.1476 89.7067C93.1476 89.7067 91.005 84.5832 87.6515 87.471Z" fill="#C4CED4"/>
<path d="M93.1478 49.4645L88.1175 31.1133V31.4859L89.5148 43.13C89.5785 43.277 89.6103 43.4357 89.608 43.5958C89.608 44.2479 89.2354 45.0863 86.0681 41.8259C85.975 41.6396 85.8818 41.6396 85.8818 41.6396C89.049 48.0672 93.1478 49.4645 93.1478 49.4645Z" fill="#C4CED4"/>
<path d="M81.1306 52.8187C80.7062 51.9812 80.4829 51.0562 80.4785 50.1173C80.4961 49.2757 80.6969 48.448 81.0669 47.6919C81.4369 46.9358 81.9673 46.2694 82.6211 45.7391L82.7142 45.6459C82.5932 44.0957 82.5932 42.5385 82.7142 40.9883C81.0375 43.4103 77.4976 49.2789 81.7827 53.8434C81.6895 53.7503 81.5964 53.6571 81.5964 53.564C81.4285 53.3237 81.2731 53.0749 81.1306 52.8187Z" fill="#C4CED4"/>
<path d="M85.6025 55.1481C84.0216 52.2361 83.0397 49.0371 82.7148 45.7396V45.6465C82.0527 46.19 81.5178 46.8721 81.1477 47.6446C80.7775 48.4171 80.5811 49.2613 80.5723 50.1178C80.6062 51.0131 80.7953 51.8956 81.1312 52.7261C81.3258 52.9818 81.4827 53.2642 81.597 53.5645C81.6901 53.5645 81.7833 53.7509 81.7833 53.844L82.0627 54.1234C83.1011 55.1671 84.5033 55.7681 85.9752 55.8002C85.8121 55.6074 85.6859 55.3864 85.6025 55.1481Z" fill="black"/>
<path d="M91.6571 89.9867C91.6571 89.9867 88.3967 89.1483 88.6762 95.8553C88.6955 95.6574 88.7592 95.4663 88.8625 95.2964C89.794 93.0608 90.7255 92.2223 91.5639 92.1292C92.216 92.1292 92.7749 92.7813 93.1475 93.6196C93.5586 94.6198 93.901 95.6469 94.1722 96.6937C94.4383 97.5758 94.6254 98.4798 94.7311 99.3951C94.8166 99.981 94.8478 100.573 94.8243 101.165V101.258C94.9174 100.513 96.3147 91.2908 91.6571 89.9867Z" fill="#C4CED4"/>
<path d="M94.8243 101.259C94.7311 100.42 94.7311 99.8612 94.638 99.3954C94.5448 98.6502 94.3585 97.7187 94.1722 96.7872C93.9128 95.6948 93.5381 94.6331 93.0544 93.62C92.6818 92.7816 92.1228 92.2227 91.4708 92.2227C90.6324 92.2227 89.794 93.1542 88.7693 95.2967C88.7509 95.5242 88.6876 95.7459 88.583 95.9488L90.2598 99.3954C90.2598 99.3954 91.1913 89.987 94.8243 101.259Z" fill="black"/>
</svg>
