<svg width="200" height="200" viewBox="0 0 200 200" fill="none" xmlns="http://www.w3.org/2000/svg">
<g clip-path="url(#clip0_18_280)">
<path fill-rule="evenodd" clip-rule="evenodd" d="M100 0C155.236 0 200 44.7635 200 100C200 155.236 155.236 200 100 200C44.7635 200 0 155.236 0 100C0 44.7635 44.7635 0 100 0Z" fill="#FFCC04"/>
<path fill-rule="evenodd" clip-rule="evenodd" d="M100 5.20312C152.365 5.20312 194.798 47.6356 194.798 100C194.798 152.365 152.365 194.798 100 194.798C47.6356 194.798 5.20312 152.365 5.20312 100C5.20312 47.6356 47.6356 5.20312 100 5.20312Z" fill="#911E30"/>
<path fill-rule="evenodd" clip-rule="evenodd" d="M100 10.2031C149.595 10.2031 189.798 50.4058 189.798 100C189.798 149.595 149.595 189.798 100 189.798C50.4058 189.798 10.2031 149.595 10.2031 100C10.2031 50.4058 50.4058 10.2031 100 10.2031Z" fill="#082041"/>
<path fill-rule="evenodd" clip-rule="evenodd" d="M99.9999 34.3242C136.284 34.3242 165.676 63.7161 165.676 99.9999C165.676 136.284 136.284 165.676 99.9999 165.676C63.7161 165.676 34.3242 136.284 34.3242 99.9999C34.3242 63.7161 63.7161 34.3242 99.9999 34.3242Z" fill="#911E30"/>
<path fill-rule="evenodd" clip-rule="evenodd" d="M99.9995 39.1211C133.614 39.1211 160.878 66.3846 160.878 99.9995C160.878 133.614 133.614 160.878 99.9995 160.878C66.3846 160.878 39.1211 133.614 39.1211 99.9995C39.1211 66.3846 66.3846 39.1211 99.9995 39.1211Z" fill="#082041"/>
<path fill-rule="evenodd" clip-rule="evenodd" d="M46.9594 113.783C43.1756 102.736 46.385 83.6819 54.7634 70.7089C62.5337 58.7832 78.0405 47.7697 90.3378 46.2832C66.2837 60.1346 49.4594 86.8913 46.9594 113.783Z" fill="#FFCC04"/>
<path fill-rule="evenodd" clip-rule="evenodd" d="M100.034 87.2627L87.7369 71.7559L77.8721 74.2221L100.034 47.0938L103.717 55.7424L106.352 52.364L124.696 74.7965L112.264 71.6208L100.034 87.2627Z" fill="white"/>
<path fill-rule="evenodd" clip-rule="evenodd" d="M100.033 87.2627L112.263 71.6208L124.695 74.7965L106.351 52.364V61.891L100.033 47.0938V87.2627Z" fill="#FFCC04"/>
<path fill-rule="evenodd" clip-rule="evenodd" d="M81.9932 133.278C82.3986 128.954 84.2905 125.102 87.1621 122.163C88.8513 123.751 90.6418 124.967 92.5337 125.845C94.4932 126.758 96.5202 127.264 98.581 127.433V133.278H81.9932ZM113.581 122.163C116.419 125.102 118.311 128.954 118.716 133.244H102.128V127.332C104.054 127.163 105.912 126.724 107.703 125.981C109.763 125.17 111.723 123.92 113.581 122.163ZM102.128 116.69C105.338 116.994 108.311 118.143 110.811 119.866C109.392 121.149 107.872 122.095 106.317 122.737C104.966 123.278 103.581 123.616 102.095 123.785V116.69H102.128ZM89.8986 119.832C92.3986 118.109 95.3715 116.96 98.581 116.656V123.818C97.0269 123.649 95.5067 123.278 94.0202 122.602C92.5675 121.927 91.2161 121.048 89.8986 119.832Z" fill="white"/>
<path fill-rule="evenodd" clip-rule="evenodd" d="M98.581 153.412C95.3715 153.108 92.3648 151.959 89.8648 150.203C91.1823 148.986 92.5675 148.074 94.0202 147.399C95.5067 146.723 97.0269 146.317 98.581 146.182V153.412ZM87.1283 147.905C84.2905 144.966 82.3986 141.115 81.9932 136.824H98.581V142.601C96.554 142.77 94.4932 143.277 92.5337 144.189C90.6418 145.067 88.8175 146.284 87.1283 147.905ZM118.716 136.824C118.311 141.115 116.419 144.966 113.615 147.872C111.757 146.115 109.797 144.831 107.703 143.986C105.912 143.243 104.054 142.804 102.128 142.635V136.824H118.716ZM110.878 150.203C108.345 151.959 105.372 153.108 102.128 153.412V146.216C103.581 146.385 105 146.723 106.351 147.263C107.939 147.939 109.426 148.885 110.878 150.203Z" fill="#FFCC04"/>
<path fill-rule="evenodd" clip-rule="evenodd" d="M149.121 126.114C149.662 128.58 146.925 133.141 144.189 133.851L141.081 130.168L140.777 129.729L65.7092 82.5669L64.9998 83.6817L57.2971 79.3236L52.5336 74.5601L51.1484 73.6817L55.6079 66.8574L56.8579 67.702L63.1755 69.9317L70.4052 75.1682L69.6282 76.4182L143.919 124.763L144.392 124.797L149.121 126.114Z" fill="#FFCC04"/>
<path fill-rule="evenodd" clip-rule="evenodd" d="M103.041 106.014L100.338 104.291L106.487 100.439L109.324 102.264L103.041 106.014Z" fill="#082041"/>
<path fill-rule="evenodd" clip-rule="evenodd" d="M153.682 113.783C157.466 102.736 154.256 83.6819 145.878 70.7089C138.108 58.7832 122.601 47.7697 110.304 46.2832C134.392 60.1346 151.216 86.8913 153.682 113.783Z" fill="#FFCC04"/>
<path fill-rule="evenodd" clip-rule="evenodd" d="M51.5542 126.116C51.0136 128.582 53.7501 133.143 56.4866 133.852L59.5947 130.17L59.8988 129.73L134.933 82.602L135.642 83.7169L143.345 79.3588L148.142 74.5953L149.527 73.7169L145.068 66.8926L143.784 67.7372L137.466 69.9669L130.237 75.2034L131.014 76.4534L56.7569 124.798L56.2839 124.832L51.5542 126.116Z" fill="#FFCC04"/>
<path fill-rule="evenodd" clip-rule="evenodd" d="M15.0334 97.094L19.4253 94.4588L14.0537 85.9453L22.9051 93.1075L27.7024 90.844L25.2024 95.1345L31.3172 100.912L23.378 97.9723L20.7767 102.398L20.4051 97.4656L15.0334 97.094Z" fill="#FFCC04"/>
<path fill-rule="evenodd" clip-rule="evenodd" d="M184.966 97.094L180.575 94.4588L185.946 85.9453L177.095 93.1075L172.297 90.844L174.797 95.1345L168.683 100.912L176.622 97.9723L179.223 102.398L179.595 97.4656L184.966 97.094Z" fill="#FFCC04"/>
<path fill-rule="evenodd" clip-rule="evenodd" d="M114.594 30.8112L109.797 30.0004L110.236 15.2031L113.513 15.7774L113.31 23.5477C113.378 23.6153 113.479 23.6491 113.614 23.6153L115.946 16.2166L119.527 16.8247L114.594 30.8112ZM81.1821 31.9937L84.8307 31.2166L83.8172 26.3856L84.0875 26.2504L86.9253 30.8112L90.3037 30.1018L87.2969 15.7437L83.6145 16.5207L84.6618 21.5207L84.3577 21.622L81.6213 16.9261L77.3645 17.8045L77.8713 20.3045L78.6821 20.1356L81.1821 31.9937ZM154.392 54.4599L156.689 57.3653L160.777 54.1558C160.979 54.3923 161.148 54.6288 161.351 54.8991L158.277 59.3923L160.506 62.2301L163.716 57.1626C164.087 57.3991 164.459 57.6018 164.831 57.7369L171.115 52.8045C170.912 52.6693 170.709 52.4666 170.506 52.1626C170.135 51.0139 169.527 49.9666 168.783 49.0545L165.878 45.372L154.392 54.4599ZM164.155 53.5815C163.446 53.818 162.77 53.0747 163.142 52.2977L165.777 50.2369C166.621 50.0342 167.196 50.8788 166.79 51.5207L164.155 53.5815ZM40.6077 57.568L33.5469 52.4666C33.1077 51.6896 33.7496 50.9464 34.4929 51.1491L41.5537 56.2504C41.9929 56.8923 41.4523 57.7369 40.6077 57.568ZM34.628 46.6558C34.5267 46.9599 34.4591 47.0274 34.2902 47.2639C33.2429 47.9396 32.3307 48.8518 31.6213 49.8653L28.8848 53.6828L40.8104 62.2639L43.1753 58.9869C44.4253 57.2639 45.1348 55.7099 45.2023 54.2234L34.628 46.6558ZM138.75 37.7031L140.709 34.4937L143.142 35.9802L144.966 34.0883L142.027 32.2977L143.716 29.4937L147.432 31.7572L148.75 29.6288L140.878 24.8315L139.56 26.9599L140.27 27.3991L133.952 37.8045L141.115 42.1626L142.432 39.9666L138.75 37.7031ZM60.5064 38.7842L58.4456 35.6423L60.8442 34.0545L59.8983 31.5883L57.0267 33.4801L55.2023 30.7437L58.851 28.345L57.4658 26.2504L49.7631 31.3518L51.1483 33.4464L51.8577 32.9734L58.5807 43.1085L65.574 38.4801L64.155 36.3518L60.5064 38.7842Z" fill="white"/>
<path fill-rule="evenodd" clip-rule="evenodd" d="M129.29 179.663L137.128 176.42L136.148 174.055L132.094 175.744L130.675 172.264L133.344 171.183L132.905 168.582L129.696 169.9L128.446 166.859L132.533 165.17L131.587 162.839L122.939 166.454L123.885 168.785L124.662 168.481L129.29 179.663ZM143.851 158.21L145.946 156.386L153.885 165.541L156.824 162.974L148.885 153.819L150.979 151.994L149.324 150.069L142.162 156.251L143.851 158.21ZM26.5537 142.839L28.6821 145.947L32.7699 143.177L33.0064 143.379L29.8983 147.737L31.8578 150.609L43.9861 142.366L41.8578 139.224L37.6348 142.096L37.4321 141.859L40.7091 137.535L38.2091 133.852L36.1145 135.271L36.5875 135.981L26.5537 142.839ZM169.189 144.427L167.398 143.312L165.371 146.555L168.581 148.548C169.865 147.94 171.216 146.521 172.027 145.204C172.837 143.886 173.479 142.231 173.446 140.744L167.939 137.298C167.432 136.994 166.385 136.96 165.642 138.177L163.817 141.082L161.25 139.494C160.777 138.751 161.351 137.974 162.128 138.143L163.716 139.123L165.709 135.913L161.993 133.582C161.925 133.819 161.824 134.055 161.621 134.359C160.608 135.069 159.729 136.082 159.088 137.129C158.277 138.447 157.567 140.237 157.601 141.656L162.432 144.663C163.344 145.237 164.256 145.069 165.033 143.785L166.824 140.947L170.101 143.008C170.54 143.582 170.033 144.494 169.189 144.427ZM103.581 182.062L103.074 172.67C103.412 171.859 104.493 171.859 104.797 172.569L104.898 174.494L108.682 174.291L108.446 169.9C108.175 170.001 107.871 170.035 107.567 170.035C106.385 169.629 104.966 169.494 103.75 169.562C102.196 169.629 100.304 170.102 99.1551 170.947L99.8307 183.886C101.081 184.596 103.006 184.866 104.56 184.798C106.115 184.731 107.939 184.258 109.155 183.413L108.75 175.44L104.358 175.677L103.885 177.974L105.135 178.143L105.337 181.96C105.067 182.704 103.986 182.839 103.581 182.062ZM75.5064 178.65L78.1415 169.629C78.7159 168.987 79.7294 169.359 79.797 170.102L79.2564 171.96L82.8713 173.041L84.1213 168.819C83.8172 168.819 83.547 168.751 83.2429 168.65C82.2632 167.873 80.9794 167.264 79.797 166.927C78.3105 166.487 76.3848 166.285 74.9997 166.69L71.351 179.123C72.297 180.204 74.0199 181.116 75.5064 181.555C76.9929 181.994 78.8848 182.197 80.3037 181.758L82.5672 174.089L78.3442 172.839L77.128 174.866L78.2429 175.44L77.1618 179.123C76.6888 179.731 75.6415 179.494 75.5064 178.65ZM50.2024 165.541L57.7361 155.846L54.1551 153.041L52.601 155.069L53.2091 155.541L46.2497 164.427C46.7226 165.778 47.9726 167.231 49.1888 168.177C50.4051 169.123 52.0943 170.001 53.5807 170.102L62.0605 159.19L59.0875 156.893L51.5537 166.589C50.9118 166.994 50.0334 166.386 50.2024 165.541Z" fill="white"/>
</g>
<defs>
<clipPath id="clip0_18_280">
<rect width="200" height="200" fill="white"/>
</clipPath>
</defs>
</svg>
