<svg width="200" height="200" viewBox="0 0 200 200" fill="none" xmlns="http://www.w3.org/2000/svg">
<g clip-path="url(#clip0_18_277)">
<path d="M102.126 8.01945L96.0732 0H93.6378H92.9073H91.9336V0.763551L92.9073 1.45795V13.2267H96.0732V5.27715L102.161 13.2267H105.292V0H102.126V8.01945Z" fill="#1D428A"/>
<path d="M79.9669 15.2394L89.046 13.6431L88.5941 10.9347L82.7842 11.9417L82.3323 9.40756L87.0631 8.57414L86.8545 7.39351L86.5766 5.86641L81.8451 6.69983L81.4279 4.30401L86.7152 3.40144L86.9592 0.554688L78.3666 2.08251L77.6708 2.18624L76.731 2.35984L76.8703 3.12411L77.914 3.64419L79.9669 15.2394Z" fill="#1D428A"/>
<path d="M64.8683 20.1699L69.5299 18.4688C73.8436 16.9066 75.5135 13.3655 74.1915 9.72035C72.8696 6.07515 69.3212 4.44349 64.9727 6.00572L60.8677 7.49852L60.3459 7.67212L59.3022 8.05399L59.5806 8.78303L60.9025 9.16491L64.8683 20.1699ZM64.4161 9.16489L66.0859 8.57472C67.7905 7.94983 70.0865 8.19284 71.0606 10.9007C72.0347 13.5739 70.4344 15.2402 68.7298 15.8651L67.06 16.4553L64.4161 9.16489Z" fill="#1D428A"/>
<path d="M52.9012 26.7324L61.1112 21.976L60.3107 19.0947L54.3276 22.5314L49.1788 13.6094L47.022 14.8246L46.2915 15.2762L45.561 15.6926L45.9436 16.3524L46.9874 16.4561L52.9012 26.7324Z" fill="#1D428A"/>
<path d="M44.8304 23.7451C42.3605 20.8984 38.1859 20.4124 34.9159 23.2591C31.6458 26.1058 31.5414 30.2718 34.0114 33.1185C36.4813 35.9652 40.6559 36.486 43.926 33.6392C47.2308 30.7925 47.3352 26.5918 44.8304 23.7451ZM36.6204 30.8967C35.0898 29.1261 35.0898 26.939 36.8292 25.4462C38.5338 23.9534 40.7602 24.2311 42.2909 26.0017C43.8216 27.7375 43.8216 29.994 42.0822 31.4868C40.3428 32.9796 38.1163 32.6325 36.6204 30.8967Z" fill="#1D428A"/>
<path d="M31.4022 34.9586L28.7931 38.2913L28.0973 39.1592L26.9841 40.5826L29.0714 42.2143L31.1587 39.5759C31.4613 40.1939 31.5796 40.8857 31.4994 41.5689C31.4192 42.252 31.144 42.8978 30.7064 43.4294C29.2801 45.2346 27.0537 45.3387 25.2447 43.9154C23.4009 42.492 22.9835 40.3049 24.4098 38.4996C24.6265 38.2313 24.8714 37.9869 25.1403 37.7706C25.5119 37.4811 25.9377 37.2686 26.3927 37.1457L27.4711 35.7571L28.8278 34.0213L28.8974 33.9518C28.8278 33.9518 28.7583 33.9171 28.6887 33.9171C27.526 33.7601 26.3424 33.9043 25.2518 34.336C24.1612 34.7677 23.2004 35.4723 22.4617 36.3819C22.3489 36.5021 22.2443 36.6297 22.1486 36.7638C19.4699 40.166 20.1657 44.2972 23.1574 46.6232C26.1492 48.9492 30.3238 48.6368 33.0025 45.2346C33.1068 45.1304 33.1764 44.9916 33.2808 44.8874C34.0875 43.8285 34.5639 42.556 34.6505 41.2286C34.7371 39.9012 34.4301 38.5778 33.7678 37.4234C33.653 37.2076 33.5252 36.9989 33.3851 36.7985C32.9766 36.2628 32.5099 35.7738 31.9936 35.3405C31.7501 35.2016 31.5761 35.0627 31.4022 34.9586Z" fill="#1D428A"/>
<path d="M121.294 9.99796L122.442 11.0741C123.416 11.9768 123.903 12.4281 123.695 13.1224C123.556 13.6779 122.86 13.9556 121.886 13.6779C120.528 13.1932 119.375 12.263 118.616 11.0394L117.642 14.3722C118.701 15.36 119.993 16.0646 121.399 16.4204C123.938 17.1495 126.408 16.2468 127.139 13.782C127.695 11.8379 126.652 10.5187 125.225 9.19946L123.903 7.91496C123.277 7.32479 123.138 6.9429 123.277 6.49159C123.416 5.93613 124.077 5.72783 124.912 5.93613C126.171 6.35249 127.275 7.1391 128.078 8.19269L128.948 5.17239C127.974 4.29009 126.806 3.648 125.539 3.29772C122.79 2.49924 120.564 3.71431 119.972 5.832C119.451 7.32479 119.903 8.71346 121.294 9.99796Z" fill="#1D428A"/>
<path d="M132.287 20.3432L135.349 21.7666L139.767 12.2546L143.559 14.0252L144.707 11.5257L134.097 6.5957L132.948 9.09525L136.74 10.8313L132.287 20.3432Z" fill="#1D428A"/>
<path d="M140.846 22.8091L140.045 23.9894L142.341 25.517L143.315 24.4408L144.777 23.7117L146.829 25.0657L148.882 26.4196L148.742 28.0513L148.116 29.3358L150.412 30.898L151.212 29.7176L154.239 17.5323L152.673 16.4561L151.421 15.6229L151.073 15.3799L150.03 14.6855L149.577 15.3452L149.925 16.2478L140.846 22.8091ZM150.76 19.2333L149.543 23.7811L148.255 22.9132L146.968 22.0453L150.76 19.2333Z" fill="#1D428A"/>
<path d="M158.274 23.9202L161.335 26.8015L154.169 34.4737L156.639 36.7651L163.805 29.0929L166.867 31.905L168.745 29.9263L160.152 21.9414L158.274 23.9202Z" fill="#1D428A"/>
<path d="M167.945 41.2435L170.903 45.0281L173.059 43.3612L170.102 39.5773L172.016 38.0848L175.32 42.3196L177.93 41.2089L172.503 34.2656L172.538 34.231L171.494 32.9121L170.903 33.3976L170.937 34.6827L161.684 41.9379L167.354 49.1938L169.511 47.4923L165.893 42.8404L167.945 41.2435Z" fill="#1D428A"/>
<path d="M178.208 96.4072C178.208 112.117 173.539 127.474 164.793 140.537C156.047 153.599 143.616 163.78 129.072 169.792C114.528 175.803 98.5243 177.376 83.0844 174.312C67.6445 171.247 53.462 163.682 42.3304 152.573C31.1989 141.465 23.6182 127.311 20.547 111.903C17.4758 96.4953 19.0521 80.5245 25.0764 66.0104C31.1008 51.4964 41.3027 39.091 54.392 30.363C67.4813 21.6351 82.8702 16.9766 98.6126 16.9766C119.722 16.9781 139.966 25.3471 154.893 40.2429C169.82 55.1387 178.206 75.3414 178.208 96.4072Z" fill="#1D428A"/>
<path d="M150.655 44.4362C143.822 37.6118 135.708 32.1976 126.778 28.5031C117.847 24.8086 108.274 22.9061 98.6068 22.9043C88.9392 22.9025 79.366 24.8014 70.4339 28.4925C61.5019 32.1837 53.3861 37.5947 46.55 44.4167C39.714 51.2386 34.2917 59.3376 30.593 68.2512C26.8942 77.1648 24.9913 86.7183 24.9932 96.3659C24.995 106.014 26.9014 115.566 30.6036 124.479C34.3057 133.391 39.7311 141.488 46.5697 148.307C53.4031 155.132 61.5169 160.546 70.4475 164.24C79.3782 167.935 88.9507 169.837 98.6183 169.839C108.286 169.841 117.859 167.942 126.791 164.251C135.723 160.56 143.839 155.149 150.675 148.327C157.511 141.505 162.933 133.406 166.632 124.492C170.331 115.579 172.234 106.025 172.232 96.3774C172.23 86.7298 170.324 77.177 166.621 68.2648C162.919 59.3526 157.494 51.2556 150.655 44.4362ZM49.3875 47.2483C60.9109 35.7768 76.0964 28.6951 92.307 27.2332C108.518 25.7713 124.729 30.0213 138.127 39.2454C151.524 48.4694 161.262 62.0847 165.647 77.727C170.033 93.3693 168.791 110.05 162.135 124.874C153.682 122.027 145.368 118.833 137.227 115.223C136.149 114.737 135.07 114.285 134.027 113.799L130.861 112.306L129.261 111.543L127.695 110.779L124.564 109.217C123.521 108.696 122.477 108.14 121.468 107.585L119.903 106.752C119.381 106.474 118.894 106.196 118.372 105.919L115.311 104.218L112.284 102.447C104.184 97.7371 96.4302 92.4585 89.0805 86.6511C85.4278 83.735 81.8446 80.7147 78.4702 77.4861C76.7656 75.8891 75.1305 74.2227 73.5303 72.5216C73.1476 72.1051 72.7302 71.6885 72.3475 71.2371C71.9648 70.8206 71.5822 70.3692 71.1995 69.9179C70.8168 69.4666 70.4342 69.05 70.0863 68.5987C70.0863 68.564 70.0515 68.564 70.0515 68.5293C69.9123 63.426 69.8428 60.371 69.8428 60.371L66.364 59.5378V64.1898H63.407V59.2948L59.6848 60.1974L59.7195 61.9679L57.9801 62.9053C58.0149 64.3633 58.0497 66.2727 58.0845 68.5293C56.6582 70.9941 41.2471 97.5867 29.6975 105.78C29.2673 102.639 29.0465 99.4726 29.0365 96.3023C28.997 87.1872 30.776 78.1554 34.27 69.7335C37.764 61.3115 42.903 53.6679 49.3875 47.2483ZM140.845 130.463L133.679 130.706L127.834 115.604L128.982 116.16L132.183 117.757C133.261 118.278 134.34 118.764 135.418 119.284C135.731 119.423 136.044 119.562 136.323 119.701L140.845 130.463ZM139.106 120.985C141.993 122.305 144.915 123.554 147.838 124.77L150.238 130.116L143.037 130.359L139.106 120.985ZM131.452 130.775L124.112 131.018L116.494 109.425C116.981 109.703 117.468 109.98 117.955 110.258L119.52 111.126C120.564 111.716 121.607 112.272 122.651 112.862L125.051 114.146L131.452 130.775ZM121.99 131.088L115.45 131.296L105.918 102.898C107.379 103.836 108.84 104.773 110.336 105.676L113.397 107.55L113.815 107.793L121.99 131.088ZM113.258 131.4L106.405 131.643L95.0989 95.4344C97.708 97.3785 100.387 99.2531 103.065 101.093L113.258 131.4ZM104.248 131.713L97.6385 131.921L84.1755 86.6859C85.1148 87.5191 86.0888 88.3175 87.0629 89.116C88.7675 90.5394 90.4721 91.8933 92.2463 93.2472L104.248 131.713ZM95.5164 131.991L88.2109 132.234L72.1388 74.9865C73.5303 76.5487 74.9915 78.0415 76.4873 79.5343C78.0528 81.0966 79.653 82.5894 81.2533 84.0822L95.5164 131.991ZM86.0888 132.303L79.7574 132.511L70.9213 98.906C70.643 90.2269 70.3994 82.2422 70.2255 75.785L86.0888 132.303ZM77.6353 132.581L72.1736 132.754C71.8257 124.77 71.5127 116.368 71.2344 108.21L77.6353 132.581ZM154.865 137.406C154.378 138.031 153.925 138.691 153.404 139.316L72.4519 137.719L72.4171 136.955L154.865 137.406ZM152.464 130.081L150.621 125.915C153.682 127.165 156.778 128.345 159.874 129.456C159.805 129.56 159.735 129.699 159.665 129.803L152.464 130.081ZM66.3293 79.2566V83.5267H63.094V87.4843H66.3293V91.7544H63.094V95.7121H66.3293V103.732H63.094V107.689H66.3293V115.952H63.094V119.909H66.3293V132.893L63.3375 132.997V72.5563H66.2945V75.2295H63.0592V79.1871H66.3293V79.2566ZM35.0896 124.908L44.1693 94.3929C48.5916 88.4665 52.5905 82.2369 56.1364 75.7503L39.8556 133.726C38.0504 130.909 36.4573 127.961 35.0896 124.908ZM33.8025 121.923C32.1927 117.848 30.9811 113.628 30.1845 109.321C34.0332 106.164 37.5531 102.629 40.6905 98.7671L33.8025 121.923ZM58.0497 76.5487C58.0497 82.6935 57.9453 90.0881 57.8062 97.9686L48.4482 133.553L41.9776 133.761L58.0497 76.5487ZM57.5975 106.891C57.3539 115.709 57.0408 124.804 56.5886 133.275L50.6051 133.483L57.5975 106.891ZM45.1781 140.982L56.1364 141.364C55.9276 144.731 55.6841 147.925 55.4058 150.911C53.2898 149.23 51.2689 147.434 49.3527 145.53C47.8916 144.072 46.5001 142.544 45.1781 140.982ZM98.6125 165.873C90.0749 165.894 81.6068 164.34 73.6347 161.291C73.3216 156.535 73.0085 150.841 72.6955 144.627L66.3293 142.475V157.993C65.3204 157.472 64.3115 156.917 63.3375 156.327V141.607L66.3293 141.711V141.815H69.5645L75.4437 142.023L148.742 144.627C148.464 144.94 148.151 145.217 147.872 145.53C141.415 152 133.737 157.129 125.282 160.621C116.827 164.112 107.763 165.898 98.6125 165.873Z" fill="#FDB927"/>
<path d="M122.303 181.011L121.503 176.914L117.085 177.782L112.075 178.755L107.658 179.623L108.457 183.684L112.841 182.851L115.102 194.376L110.719 195.244L111.484 199.306L115.937 198.473L120.946 197.501L125.329 196.633L124.53 192.537L120.146 193.405L117.885 181.879L122.303 181.011Z" fill="#1D428A"/>
<path d="M147.873 176.15C150.308 181.358 148.394 187.433 142.446 190.175C136.497 192.953 130.618 190.488 128.183 185.281C125.747 180.073 127.661 174.032 133.61 171.255C139.558 168.513 145.437 170.943 147.873 176.15ZM143.176 178.337C141.68 175.143 138.584 173.789 135.453 175.248C132.288 176.706 131.383 179.934 132.879 183.128C134.375 186.287 137.436 187.711 140.602 186.253C143.733 184.794 144.672 181.496 143.176 178.337Z" fill="#1D428A"/>
<path d="M162.414 159.66C159.909 156.744 155.978 156.952 153.021 159.486L147.455 164.243L146.585 164.972L145.542 165.874L146.307 166.742L148.011 166.603L159.665 180.247L163.527 176.949L158.761 171.394L159.874 170.457L168.467 172.748L173.128 168.79L163.179 166.464C163.721 165.377 163.937 164.157 163.801 162.95C163.666 161.743 163.184 160.6 162.414 159.66ZM157.891 166.777L156.082 168.304L153.125 164.867L155.004 163.271C156.082 162.368 157.439 162.16 158.413 163.305C159.422 164.416 159.039 165.77 157.891 166.777Z" fill="#1D428A"/>
<path d="M181.234 158.895C179.983 160.702 178.28 162.15 176.294 163.096L172.085 159.937C174.242 159.539 176.196 158.411 177.616 156.743C178.555 155.493 178.486 154.382 177.825 153.861C176.955 153.202 176.051 153.618 174.242 154.521L172.085 155.528C169.476 156.778 167.249 156.673 165.371 155.25C162.692 153.237 162.205 149.453 164.814 145.981C166 144.371 167.549 143.062 169.337 142.162L173.163 145.044C171.257 145.639 169.557 146.758 168.258 148.272C167.493 149.279 167.458 150.32 168.154 150.841C168.71 151.258 169.337 151.258 170.519 150.702L173.059 149.487C175.703 148.203 178.173 147.439 180.608 149.279C183.739 151.709 183.634 155.736 181.234 158.895Z" fill="#1D428A"/>
<path d="M102.822 186.045C102.961 182.192 99.9001 179.727 96.0038 179.588L88.6635 179.345L87.5503 179.31L86.1588 179.275L86.124 180.456L87.4808 181.497L86.8546 199.411L91.9336 199.584L92.1771 192.259L93.6383 192.294L98.439 199.793L104.562 200.001L98.7869 191.6C99.9225 191.158 100.907 190.399 101.622 189.414C102.338 188.429 102.754 187.26 102.822 186.045ZM94.6819 188.232L92.3163 188.163L92.4902 183.65L94.9602 183.719C96.3865 183.754 97.4997 184.517 97.4649 186.045C97.3953 187.538 96.2126 188.267 94.6819 188.232Z" fill="#1D428A"/>
<path d="M80.2099 184.239C81.2883 180.559 78.9576 177.365 75.2353 176.289L68.2081 174.206L67.1297 173.894L65.8077 173.512L65.4598 174.623L66.5035 175.977L61.3896 193.161L66.26 194.584L68.3472 187.572L69.7736 187.988L72.5218 196.424L78.401 198.16L74.9222 188.579C76.131 188.447 77.2752 187.966 78.2144 187.196C79.1536 186.425 79.8471 185.397 80.2099 184.239ZM71.7913 184.343L69.53 183.684L70.8172 179.344L73.1828 180.038C74.5395 180.455 75.444 181.462 75.0266 182.92C74.5743 184.343 73.2524 184.76 71.7913 184.343Z" fill="#1D428A"/>
<path d="M56.2757 168.131L54.5015 167.089L53.8057 166.673L52.3446 165.805L51.7532 166.811L52.2402 167.922L39.0556 178.754L37.9424 180.629L41.5603 182.746L42.9171 181.01L45.0739 179.761L48.2744 181.635L51.4749 183.51L51.4053 185.975L50.5704 187.988L54.1884 190.106L55.3016 188.231L58.7804 169.485L56.2757 168.131ZM50.2921 178.268L48.2744 177.087L53.7361 172.435L52.3098 179.448L50.2921 178.268Z" fill="#1D428A"/>
<path d="M44.2387 160.353L42.9863 158.999L42.1172 159.797L42.2912 161.221L31.4372 165.908L38.4641 154.069L36.2726 151.674L23.923 157.715L30.5327 145.46L26.741 141.294L26.2538 140.773L25.384 141.537L25.6272 143.481L17 160.423L20.4785 164.207L28.7585 160.77L24.6188 168.685L28.0626 172.469L47.9965 164.485L44.2387 160.353Z" fill="#1D428A"/>
</g>
<defs>
<clipPath id="clip0_18_277">
<rect width="166" height="200" fill="white" transform="translate(17)"/>
</clipPath>
</defs>
</svg>
