<svg width="200" height="200" viewBox="0 0 200 200" fill="none" xmlns="http://www.w3.org/2000/svg">
<g clip-path="url(#clip0_18_274)">
<g clip-path="url(#clip1_18_274)">
<path d="M169.325 68.9257C157.73 41.2877 130.368 21.8398 98.5888 21.8398C66.8097 21.8398 39.4477 41.2877 27.8526 68.9257C8.22071 73.9257 -4.01855 80.981 -4.01855 88.803L-3.98788 122.208C-3.98788 115.183 5.88942 109.294 22.1471 104.447C25.1532 143.987 58.3127 175.214 98.5888 175.214C138.865 175.214 172.024 143.987 175.061 104.447C191.319 109.294 201.196 115.183 201.196 122.208L201.227 88.803C201.227 80.981 188.988 73.9257 169.325 68.9257Z" fill="#9EA2A2"/>
<path d="M201.135 121.256C201.135 121.134 201.104 121.011 201.073 120.888C201.043 120.766 201.012 120.612 200.981 120.49C200.951 120.398 200.951 120.336 200.92 120.244C200.889 120.091 200.828 119.907 200.767 119.753C200.767 119.692 200.736 119.661 200.705 119.6C200.644 119.416 200.552 119.201 200.46 119.017C200.46 118.987 200.46 118.987 200.429 118.956C199.386 116.625 197.178 114.416 193.957 112.33C188.865 115.704 181.104 118.894 171.717 121.441C170.46 125.428 168.895 129.293 167.024 133.005C165.153 136.686 163.006 140.214 160.583 143.526C184.785 138.618 200.583 130.888 201.165 122.177C201.165 121.962 201.165 121.747 201.135 121.502C201.165 121.471 201.135 121.348 201.135 121.256Z" fill="#707271"/>
<path d="M-3.92636 121.256C-3.92636 121.134 -3.89569 121.011 -3.86501 120.888C-3.83434 120.766 -3.80366 120.612 -3.77298 120.49C-3.74231 120.398 -3.74231 120.336 -3.71164 120.244C-3.68096 120.091 -3.61961 119.907 -3.55826 119.753C-3.55826 119.692 -3.52758 119.661 -3.49691 119.6C-3.43556 119.416 -3.34354 119.201 -3.25151 119.017C-3.25151 118.987 -3.25151 118.987 -3.22084 118.956C-2.17789 116.625 0.030699 114.416 3.25156 112.33C8.34358 115.704 16.1043 118.894 25.4908 121.441C26.7485 125.428 28.3129 129.293 30.1841 133.005C32.0552 136.686 34.2025 140.214 36.6258 143.526C12.4233 138.618 -3.37421 130.888 -3.95703 122.177C-3.95703 121.962 -3.95703 121.747 -3.92636 121.502C-3.95703 121.471 -3.95703 121.348 -3.92636 121.256Z" fill="#707271"/>
<path d="M98.589 171.227C138.74 171.227 171.288 138.678 171.288 98.5275C171.288 58.3768 138.74 25.8281 98.589 25.8281C58.4383 25.8281 25.8896 58.3768 25.8896 98.5275C25.8896 138.678 58.4383 171.227 98.589 171.227Z" fill="#373A36"/>
<path d="M191.472 80.7975C186.656 77.73 179.356 74.8772 170.368 72.4539C168.957 72.0858 167.546 71.7177 166.074 71.3803C155.276 44.6932 129.141 25.8281 98.589 25.8281C68.0368 25.8281 41.9018 44.6932 31.135 71.3803C29.6626 71.7177 28.2209 72.0858 26.8405 72.4539C17.8528 74.8465 10.5522 77.73 5.73621 80.7975C2.73007 82.6993 -0.858887 85.6134 -0.858887 88.8036V111.687C4.57056 107.301 13.3436 103.466 25.2147 100.276C25.4601 100.215 25.6749 100.153 25.9203 100.092C26.7485 139.509 58.9877 171.227 98.589 171.227C138.19 171.227 170.429 139.54 171.258 100.092C171.503 100.153 171.748 100.215 171.963 100.276C183.834 103.435 192.607 107.27 198.037 111.687V88.8036C198.037 85.6441 194.448 82.6993 191.472 80.7975ZM144.693 52.8527C144.939 52.3005 145.675 52.1778 146.104 52.6073C150.951 57.6073 154.969 63.3741 158.067 69.6932C157.454 69.5705 156.84 69.4478 156.227 69.3557C152.27 64.9079 147.853 60.8895 143.006 57.3925C143.436 55.7975 143.988 54.2944 144.693 52.8527ZM127.822 39.233C132.301 41.4416 136.472 44.141 140.307 47.2392C141.135 47.914 141.38 49.049 140.89 49.9999C140.123 51.4723 139.479 53.006 138.957 54.6318C135.46 52.4232 131.779 50.4907 127.945 48.8343C127.423 46.0735 126.81 43.3435 126.104 40.6748C125.828 39.6625 126.871 38.7729 127.822 39.233ZM108.221 33.1594C111.534 33.6502 114.785 34.3864 117.945 35.3373C119.141 35.7054 120.031 36.6257 120.399 37.7913C121.319 40.7668 122.117 43.7729 122.791 46.8404C118.957 45.5214 115.031 44.4478 110.951 43.7116C110.429 42.0244 109.816 40.3373 109.049 38.7116C108.436 37.4232 107.761 36.1655 107.025 34.9692C106.472 34.1103 107.209 33.006 108.221 33.1594ZM164.693 98.5275C164.693 110.276 161.626 121.288 156.258 130.828C155.951 131.38 155.061 131.074 155.215 130.429V130.399C157.761 118.926 157.209 107.27 153.712 96.3803C153.405 95.4294 153.067 94.4478 152.73 93.4968C152.577 93.0674 152.178 92.7606 151.718 92.6686L148.742 92.1778C148.006 92.0551 147.423 92.7913 147.699 93.4662C147.975 94.141 148.252 94.8465 148.497 95.5214C152.423 106.258 153.19 117.914 150.644 129.356C150.491 130.031 150.337 130.675 150.184 131.319C147.485 141.748 140.092 150.245 130.215 154.57C121.902 158.221 112.761 160.276 103.129 160.307C98.9571 160.337 94.908 159.969 90.9509 159.264C89.3252 158.988 88.773 156.902 90.0307 155.859C92.3313 153.896 94.5706 151.871 96.7178 149.693C98.2515 148.159 99.7546 146.564 101.196 144.969C101.81 144.294 102.117 143.374 102.086 142.454L101.963 138.497C101.933 137.883 101.196 137.638 100.828 138.098C95.7975 144.294 90.092 149.908 83.8037 154.847C82.2393 156.104 80.092 156.38 78.2209 155.644C69.2945 152.147 61.319 146.779 54.6933 140.061C53.3742 138.712 52.7607 136.779 53.1595 134.908C54.9387 126.871 58.1595 119.172 62.6994 112.27C63.0982 111.687 62.8221 110.859 62.1166 110.644C61.2883 110.399 60.4601 110.092 59.6933 109.816C59.2331 109.632 58.7423 109.816 58.4663 110.215C54.6933 116.104 51.7791 122.485 49.8466 129.172C49.3865 130.767 47.2699 131.104 46.3497 129.724C40.2454 120.429 36.3497 109.54 35.3988 97.822C35.2454 96.0122 35.1841 94.1717 35.1841 92.3312C35.1841 92.1165 35.1841 91.9324 35.1841 91.7177C35.2761 83.1901 38.4356 74.9999 44.0491 68.6809C45 67.6379 45.9816 66.6257 47.0552 65.6748C56.8098 57.0858 68.8037 51.0122 82.0552 48.4048C82.454 46.8097 82.8834 45.1533 83.4049 43.4355C70.3681 45.6134 58.4356 50.9508 48.3436 58.6195C47.3926 59.3251 46.1963 58.1287 46.9325 57.2085C59.2025 41.9631 78.1288 32.2392 99.2945 32.4539C101.503 34.8772 103.344 37.6379 104.755 40.6748C105.092 41.4109 105.399 42.1778 105.706 42.9447C102.699 42.6073 99.6319 42.4232 96.5337 42.4232C95.092 42.4232 93.6503 42.4539 92.2086 42.5459C92.638 44.0183 93.0061 45.5521 93.3742 47.1471C94.4172 47.1165 95.4908 47.0858 96.5337 47.0858C100.123 47.0858 103.65 47.3312 107.117 47.822C107.393 49.2024 107.607 50.5827 107.699 51.9631C107.73 52.3619 108.006 52.6686 108.374 52.7913C109.877 53.1901 111.227 53.7116 112.454 54.3251C112.454 52.4539 112.301 50.5827 112.025 48.7116C116.043 49.5705 119.969 50.7361 123.742 52.2085C124.356 55.9815 124.785 59.8159 125 63.6809C125.031 64.2944 125.491 64.8159 126.104 64.9079L128.896 65.368C129.356 65.4294 129.755 65.0919 129.724 64.6318C129.571 61.1962 129.264 57.7913 128.804 54.3864C131.902 55.8588 134.877 57.5459 137.73 59.4171C137.362 61.4416 137.209 63.4968 137.209 65.4907C137.209 65.9508 137.454 66.3803 137.791 66.6257C137.945 66.7484 138.16 66.8404 138.374 66.8711L141.196 67.3312C141.442 67.3619 141.656 67.2698 141.779 67.0858C141.871 66.9938 141.902 66.8404 141.902 66.687C141.84 65.276 141.871 63.8343 142.025 62.4232C144.294 64.1717 146.472 66.0429 148.558 68.006C154.877 74.0797 160.153 81.2576 164.049 89.233C164.448 92.3005 164.693 95.368 164.693 98.5275Z" fill="#061922"/>
<path d="M113.712 94.3556L113.834 83.8955C113.834 78.9875 108.712 78.1593 104.969 78.2206C107.485 77.3924 110.522 75.9507 112.73 73.5887C115.031 71.4415 116.687 68.466 116.411 64.2329C115.92 57.147 107.055 53.6194 92.362 55.0304C92.1166 55.0611 91.8712 55.0918 91.6565 55.0918C90.951 49.8464 89.8773 44.785 88.2516 40.0918L87.5154 40.828C85.5522 46.9016 84.3866 51.7176 83.7117 56.1961C74.9387 57.6992 68.8037 59.7237 68.8037 59.7237L68.0675 60.4599C68.0675 60.4599 75.1534 59.8157 83.2516 59.9384C82.362 69.1409 83.2823 77.8525 83.2516 94.3556C70.1841 93.9875 58.7117 96.1654 55.9203 99.6623C55.0001 100.429 54.5093 101.257 54.5399 102.147C54.6933 106.135 66.5645 109.816 83.2516 111.227L83.9571 133.895L84.6933 133.159L85.8589 117.791C85.8589 117.546 85.8896 117.331 85.951 117.147C86.2884 117.208 86.6258 117.638 86.6258 118.435L87.1473 138.681L87.8835 137.945L89.1412 121.472C89.1412 121.104 89.1718 120.797 89.2332 120.552C89.6013 120.613 89.908 121.135 89.8774 122.055L90.4602 143.159L91.1964 142.423L92.2086 111.687C94.1412 111.748 96.0737 111.779 98.0675 111.779C100.184 111.779 102.27 111.748 104.295 111.687L105.307 143.711L106.043 142.975L106.902 126.196C106.902 125.859 106.933 125.583 106.994 125.337C107.331 125.429 107.638 125.889 107.638 126.779L108.497 150.276L109.233 149.54L110.123 129.233C110.123 128.957 110.184 128.711 110.245 128.497C110.675 128.497 111.074 128.988 111.104 129.969L111.841 156.902L112.577 156.165L113.62 111.073C127.883 109.816 138.712 106.963 141.411 103.65C142.301 102.914 142.791 102.116 142.791 101.349C142.454 97.0243 129.264 93.6194 113.712 94.3556ZM83.0982 106.441C71.6565 105.337 63.9264 103.006 63.9264 100.092C63.9264 99.8771 63.9878 99.6623 64.1105 99.4783C66.7792 97.6071 75.0001 96.4108 83.2209 95.1532C83.2209 98.374 83.1596 101.902 83.0675 105.767L83.0982 106.441ZM106.38 67.055C106.81 70.3065 105.89 72.7298 104.233 74.5703C101.258 77.2697 96.5645 78.4967 92.7608 79.0795C92.8221 72.9752 92.7301 66.6255 92.2086 60.4292C99.5399 61.1961 105.859 63.0673 106.38 67.055ZM104.233 107.055C102.454 107.116 100.614 107.147 98.7424 107.147C96.5338 107.147 94.3866 107.116 92.3007 107.024L92.3927 104.417C92.2086 97.8219 92.6074 89.5397 92.7301 80.6746C98.0982 81.2881 104.54 82.8219 104.448 86.5949L104.233 107.055ZM132.699 101.963C130.031 104.049 122.945 105.675 113.589 106.534L113.712 95.2759C124.417 96.6562 133.098 98.2513 133.098 100.797C133.098 101.196 132.976 101.595 132.699 101.963Z" fill="#9EA2A2"/>
<path d="M142.669 101.41C142.454 97.0237 129.264 93.6188 113.712 94.355L113.834 83.8949C113.804 77.4225 104.969 78.0667 101.963 78.4348C105.46 77.7906 117.117 74.8765 116.38 64.2017C115.89 57.1158 107.025 53.5882 92.3313 54.9992C92.0859 55.0299 91.8405 55.0605 91.6258 55.0605C90.9203 49.8151 89.8467 44.7538 88.2209 40.0605C86.1657 46.4102 85 51.4102 84.3252 56.0728C75.2148 57.6066 68.7731 59.6925 68.7731 59.6925C68.7731 59.6925 75.8589 59.0483 83.9571 59.171C83.0369 68.4961 83.9878 77.3612 83.9571 94.355C68.497 93.8029 55.0921 96.809 55.2454 101.38C55.3988 105.367 67.27 109.048 83.9571 110.459L84.6626 133.128L85.8283 117.76C85.8589 115.858 87.3313 116.042 87.3313 117.668L87.8528 137.913L89.1105 121.441C89.0798 119.202 90.6442 119.324 90.5829 121.318L91.1657 142.423L92.178 110.95C94.3252 111.042 96.5031 111.073 98.7424 111.073C100.859 111.073 102.945 111.042 104.969 110.981L105.982 143.005L106.841 126.226C106.841 124.079 108.313 124.202 108.282 126.103L109.141 149.6L110.031 129.294C110.092 127.3 111.687 127.392 111.718 129.294L112.454 156.226L113.528 110.521V110.49C130.399 109.079 142.669 105.429 142.669 101.41ZM107.117 66.3489C108.313 75.2139 99.2639 78.128 92.7608 79.079C92.8221 72.6986 92.7301 66.0728 92.1473 59.6004C99.816 60.3673 106.564 62.2078 107.117 66.3489ZM63.9264 100.091C63.9264 97.3918 73.9264 95.9501 83.9571 94.447C83.9571 97.6679 83.8958 101.196 83.8037 105.061L83.8651 106.533C71.9939 105.429 63.9264 103.067 63.9264 100.091ZM92.3007 107.024L92.3927 104.416C92.178 97.6066 92.6381 89.0176 92.7608 79.8765C98.2209 80.4286 105.307 81.9317 105.184 85.8581L104.969 107.024C102.945 107.085 100.89 107.116 98.7424 107.116C96.5338 107.146 94.3865 107.116 92.3007 107.024ZM113.589 106.533L113.742 94.4777C124.785 95.8888 133.865 97.4839 133.865 100.091C133.834 103.097 125.583 105.459 113.589 106.533Z" fill="#C21F32"/>
<path d="M21.8712 78.9253C20.4908 79.3854 19.1105 79.8455 17.7608 80.3363C16.8712 80.6431 16.1657 81.6554 16.1657 82.5449C16.1657 87.2689 16.1657 91.9928 16.1657 96.686C16.1657 97.5756 16.8712 98.0664 17.7608 97.7597C19.1411 97.2689 20.4908 96.8087 21.8712 96.3486C22.7608 96.0419 23.4663 95.0909 23.4663 94.2014C23.4663 89.4774 23.4663 84.7535 23.4663 80.0603C23.4663 79.14 22.7608 78.6185 21.8712 78.9253ZM20.8282 93.9866C20.1534 94.2014 19.4786 94.4468 18.8037 94.6922C18.8037 90.7044 18.8037 86.686 18.8037 82.6983C19.4786 82.4529 20.1534 82.2382 20.8282 81.9928C20.8282 85.9805 20.8282 89.9989 20.8282 93.9866ZM63.2209 69.0173C61.8098 69.232 60.3681 69.4468 58.9571 69.6922C58.0368 69.8455 57.3006 70.7044 57.3006 71.594C57.3006 76.3179 57.3006 81.0419 57.3006 85.7351C57.3006 86.6247 58.0368 87.2382 58.9571 87.0848C60.3681 86.8394 61.7792 86.6247 63.2209 86.41C64.1411 86.2873 64.8773 85.4284 64.8773 84.5388C64.8773 79.8149 64.8773 75.0909 64.8773 70.3977C64.8773 69.5388 64.1411 68.8946 63.2209 69.0173ZM62.1473 83.8946C61.4417 83.9866 60.7669 84.1093 60.0614 84.232C60.0614 80.2443 60.0614 76.2259 60.0614 72.2382C60.7669 72.1155 61.4417 72.0234 62.1473 71.9007C62.1473 75.8885 62.1473 79.9069 62.1473 83.8946ZM31.2884 75.9805C32.1779 75.7351 33.0675 75.459 33.9571 75.2136C33.9571 80.459 33.9571 85.7351 33.9571 91.0112C33.9571 91.9008 33.2209 92.8517 32.3313 93.0971C30.9509 93.4958 29.5706 93.8946 28.1595 94.3241C27.27 94.6001 26.5644 94.0787 26.5644 93.1891C26.5644 87.9437 26.5644 82.6676 26.5644 77.3916C27.454 77.1155 28.3436 76.8394 29.2332 76.5633C29.2332 81.4713 29.2332 86.3793 29.2332 91.2873C29.908 91.0725 30.5828 90.8885 31.2577 90.6738C31.2884 85.7965 31.2884 80.8885 31.2884 75.9805ZM10.4601 83.0664C11.319 82.729 12.2086 82.3915 13.0675 82.0541C13.0675 87.8517 13.0675 93.6799 13.0675 99.4774C12.1779 99.8149 11.319 100.152 10.4601 100.49C10.4601 98.0357 10.4601 95.5817 10.4601 93.1277C9.84665 93.3731 9.23315 93.6185 8.65033 93.8333C8.65033 96.2873 8.65033 98.7412 8.65033 101.195C7.79143 101.533 6.90186 101.901 6.04297 102.269C6.04297 96.4713 6.04297 90.6431 6.04297 84.8455C6.90186 84.4774 7.79143 84.14 8.65033 83.7719C8.65033 86.2259 8.65033 88.6799 8.65033 91.1339C9.26383 90.8885 9.84665 90.6431 10.4601 90.4284C10.4601 87.9744 10.4601 85.5204 10.4601 83.0664ZM47.2086 71.9621C49.6933 71.41 52.1779 70.9192 54.6933 70.459C54.6933 71.3486 54.6933 72.2688 54.6933 73.1584C53.8957 73.3118 53.0982 73.4652 52.3006 73.6185C52.3006 78.5265 52.3006 83.4345 52.3006 88.3425C51.3804 88.5265 50.4908 88.7106 49.5706 88.8946C49.5706 83.9866 49.5706 79.0787 49.5706 74.1707C48.773 74.3241 47.9755 74.5081 47.2086 74.6615C47.2086 73.7412 47.2086 72.8517 47.2086 71.9621ZM75.2761 67.5449C75.2761 73.3425 75.2761 79.1707 75.2761 84.9682C74.3559 85.0603 73.4356 85.1523 72.5154 85.2443C72.5154 84.232 72.5154 83.2198 72.5154 82.2075C71.8712 80.3977 71.227 78.5879 70.6135 76.7781C70.6135 79.6615 70.6135 82.5756 70.6135 85.459C69.6933 85.5511 68.773 85.6738 67.8528 85.7965C67.8528 79.9989 67.8528 74.1707 67.8528 68.3731C68.7424 68.2504 69.6319 68.1584 70.5522 68.0357C71.1963 69.9069 71.8712 71.7474 72.5154 73.6185C72.5154 71.686 72.5154 69.7535 72.5154 67.821C73.4663 67.729 74.3559 67.6369 75.2761 67.5449ZM44.6012 74.1707C44.6012 74.8455 44.6012 75.5204 44.6012 76.1952C43.7117 76.41 42.7914 76.6247 41.9019 76.8394C41.9019 76.5327 41.9019 76.1952 41.9019 75.8885C41.227 76.0419 40.5215 76.2259 39.8466 76.3793C39.8466 77.5756 39.8466 78.7719 39.8466 79.9682C41.135 80.5817 42.454 81.1952 43.7424 81.8394C44.3865 82.1462 44.6012 82.6983 44.6012 83.4652C44.6012 85.0909 44.6012 86.7167 44.6012 88.3118C44.6012 89.2014 43.8651 90.1216 42.9755 90.3363C41.5644 90.6738 40.1841 91.0112 38.773 91.3793C37.8835 91.594 37.1473 91.0725 37.1473 90.1523C37.1473 89.4774 37.1473 88.8026 37.1473 88.1277C38.0368 87.8823 38.9571 87.6676 39.8466 87.4222C39.8466 87.729 39.8466 88.0664 39.8466 88.3731C40.5215 88.1891 41.227 88.0357 41.9019 87.8823C41.9019 86.686 41.9019 85.4897 41.9019 84.2934C40.6135 83.6799 39.2945 83.0664 38.0062 82.4529C37.362 82.1462 37.1473 81.594 37.1473 80.8578C37.1473 79.232 37.1473 77.6063 37.1473 76.0112C37.1473 75.1216 37.8835 74.1707 38.773 73.956C40.1534 73.5879 41.5644 73.2504 42.9755 72.913C43.8651 72.6983 44.6012 73.2811 44.6012 74.1707ZM138.773 69.7842C137.362 69.5388 135.951 69.3241 134.509 69.1093C133.589 68.9866 132.853 69.6001 132.853 70.4897C132.853 75.2136 132.853 79.9376 132.853 84.6308C132.853 85.5204 133.589 86.3793 134.509 86.502C135.92 86.7167 137.331 86.9314 138.773 87.1768C139.693 87.3302 140.429 86.7167 140.429 85.8271C140.429 81.1032 140.429 76.3793 140.429 71.686C140.399 70.7965 139.663 69.9376 138.773 69.7842ZM137.669 84.3241C136.963 84.2014 136.288 84.1093 135.583 83.9866C135.583 79.9989 135.583 75.9805 135.583 71.9928C136.288 72.0848 136.963 72.2075 137.669 72.3302C137.669 76.3179 137.669 80.3057 137.669 84.3241ZM174.387 78.6185C176.81 79.4161 179.233 80.275 181.656 81.1339C181.656 82.0235 181.656 82.9437 181.656 83.8333C180.89 83.5572 180.123 83.2811 179.356 83.005C179.356 87.913 179.356 92.821 179.356 97.729C178.466 97.4222 177.607 97.1155 176.718 96.8087C176.718 91.9008 176.718 86.9928 176.718 82.0848C175.951 81.8087 175.184 81.5633 174.417 81.3179C174.387 80.4284 174.387 79.5081 174.387 78.6185ZM188.528 87.4529C188.528 87.1462 188.528 86.8087 188.528 86.502C187.853 86.2259 187.209 85.9805 186.534 85.7044C186.534 86.9007 186.534 88.0971 186.534 89.2934C187.791 90.7351 189.049 92.1462 190.307 93.6185C190.92 94.3241 191.135 95.0296 191.135 95.7658C191.135 97.3916 191.135 99.0173 191.135 100.612C191.135 101.502 190.429 101.962 189.571 101.594C188.221 101.042 186.871 100.52 185.521 99.9989C184.663 99.6615 183.926 98.6492 183.926 97.7597C183.926 97.0848 183.926 96.41 183.926 95.7351C184.816 96.0725 185.675 96.41 186.534 96.7474C186.534 97.0541 186.534 97.3916 186.534 97.6983C187.209 97.9437 187.853 98.2198 188.528 98.4958C188.528 97.2995 188.528 96.1032 188.528 94.9069C187.27 93.4652 186.012 92.0234 184.755 90.6124C184.141 89.9069 183.926 89.232 183.926 88.4958C183.926 86.8701 183.926 85.2443 183.926 83.6492C183.926 82.7596 184.632 82.2689 185.521 82.6063C186.871 83.1277 188.221 83.6799 189.571 84.2014C190.429 84.5388 191.135 85.5817 191.135 86.4713C191.135 87.1461 191.135 87.821 191.135 88.4958C190.276 88.1277 189.417 87.7903 188.528 87.4529ZM161.779 74.8455C160.859 77.4836 159.908 80.1523 158.988 82.821C159.908 85.9805 160.859 89.1093 161.779 92.2689C160.828 92.0235 159.908 91.7781 158.957 91.5327C158.221 89.0173 157.485 86.5327 156.718 84.0173C156.718 86.3179 156.718 88.6492 156.718 90.9498C155.828 90.7351 154.908 90.5204 154.018 90.3057C154.018 84.5081 154.018 78.6799 154.018 72.8823C154.908 73.0971 155.828 73.3118 156.718 73.5265C156.718 75.8271 156.718 78.1584 156.718 80.459C157.454 78.3425 158.19 76.1952 158.957 74.0787C159.908 74.3241 160.859 74.5695 161.779 74.8455ZM150.982 73.8026C150.982 74.5081 150.982 75.183 150.982 75.8885C150.092 75.6738 149.172 75.4897 148.282 75.3057C148.282 74.9682 148.282 74.6308 148.282 74.2934C147.577 74.14 146.902 74.0173 146.227 73.8639C146.227 77.8517 146.227 81.8701 146.227 85.8578C146.933 86.0112 147.607 86.1339 148.282 86.2873C148.282 85.9805 148.282 85.6738 148.282 85.3977C149.202 85.5817 150.092 85.7965 150.982 85.9805C150.982 86.6247 150.982 87.2995 150.982 87.9437C150.982 88.8333 150.245 89.4161 149.356 89.232C147.945 88.9253 146.534 88.6492 145.123 88.3731C144.233 88.1891 143.466 87.3302 143.466 86.41C143.466 81.686 143.466 76.9621 143.466 72.2689C143.466 71.3793 144.202 70.7658 145.123 70.9498C146.534 71.2259 147.945 71.502 149.356 71.8087C150.245 71.9928 150.982 72.913 150.982 73.8026ZM129.509 76.8394C129.509 74.5695 129.509 72.2995 129.509 70.0296C129.509 69.14 128.773 68.3118 127.853 68.1891C125.89 67.9437 123.896 67.729 121.933 67.5449C121.933 73.3425 121.933 79.1707 121.933 84.9682C122.853 85.0603 123.773 85.1523 124.693 85.2443C124.693 82.7903 124.693 80.3363 124.693 77.8823C125.061 77.913 125.429 77.9744 125.798 78.005C126.196 80.4897 126.595 83.005 126.994 85.4897C127.914 85.6124 128.834 85.7044 129.785 85.8271C129.387 83.2811 128.957 80.7351 128.558 78.1584C129.11 78.005 129.509 77.5142 129.509 76.8394ZM126.779 75.4284C126.074 75.3363 125.399 75.275 124.693 75.183C124.693 73.6492 124.693 72.0848 124.693 70.5511C125.399 70.6431 126.074 70.7044 126.779 70.7965C126.779 72.3302 126.779 73.8946 126.779 75.4284ZM164.816 75.6738C167.239 76.3793 169.663 77.0848 172.086 77.8823C172.086 78.7719 172.086 79.6922 172.086 80.5817C170.552 80.0909 169.018 79.6308 167.485 79.1707C167.485 80.7044 167.485 82.2688 167.485 83.8026C168.62 84.14 169.755 84.4774 170.89 84.8455C170.89 85.7351 170.89 86.6554 170.89 87.5449C169.755 87.1768 168.62 86.8394 167.485 86.502C167.485 88.0357 167.485 89.6001 167.485 91.1339C169.018 91.594 170.552 92.0541 172.086 92.5449C172.086 93.4345 172.086 94.3547 172.086 95.2443C169.663 94.4774 167.239 93.7412 164.816 93.0357C164.816 87.2688 164.816 81.4713 164.816 75.6738Z" fill="white"/>
</g>
</g>
<defs>
<clipPath id="clip0_18_274">
<rect width="200" height="200" fill="white"/>
</clipPath>
<clipPath id="clip1_18_274">
<rect width="200" height="200" fill="white"/>
</clipPath>
</defs>
</svg>
