<svg width="200" height="200" viewBox="0 0 200 200" fill="none" xmlns="http://www.w3.org/2000/svg">
<g clip-path="url(#clip0_18_259)">
<path d="M200 99.9727C200.005 119.753 194.144 139.091 183.158 155.54C172.172 171.989 156.555 184.811 138.281 192.383C120.007 199.955 99.8983 201.938 80.4977 198.08C61.0971 194.222 43.2763 184.698 29.2894 170.711C15.3025 156.724 5.77784 138.903 1.92019 119.502C-1.93747 100.102 0.0451648 79.9928 7.61731 61.7191C15.1894 43.4454 28.0109 27.8278 44.46 16.8417C60.9091 5.85562 80.2468 -0.0053857 100.027 3.71349e-06C126.541 0.0010557 151.969 10.5342 170.718 29.2825C189.466 48.0308 199.999 73.4586 200 99.9727Z" fill="#BEC0C2"/>
<path d="M194.276 99.9718C194.265 124.953 184.332 148.908 166.662 166.567C148.991 184.226 125.03 194.143 100.048 194.137C75.0665 194.132 51.1099 184.204 33.4471 166.537C15.7843 148.87 5.86182 124.912 5.86182 99.93C5.86182 74.9482 15.7843 50.9894 33.4471 33.3227C51.1099 15.656 75.0665 5.7282 100.048 5.72266C125.03 5.71711 148.991 15.6343 166.662 33.2932C184.332 50.952 194.265 74.9064 194.276 99.8881C194.276 99.916 194.276 99.9439 194.276 99.9718Z" fill="#002D62"/>
<path d="M100.027 10.1387C82.2573 10.1279 64.8835 15.3874 50.1032 25.2519C35.3229 35.1164 23.8002 49.1427 16.9926 65.5567C10.1849 81.9708 8.3981 100.035 11.8582 117.465C15.3183 134.894 23.8698 150.906 36.4311 163.475C48.9924 176.044 64.9992 184.605 82.4267 188.076C99.8542 191.547 117.92 189.771 134.338 182.973C150.756 176.176 164.789 164.661 174.663 149.887C184.536 135.113 189.806 117.742 189.806 99.9724C189.812 76.1546 180.357 53.3097 163.521 36.4628C146.684 19.616 123.845 10.147 100.027 10.1387Z" fill="#FDBB30"/>
<path d="M161.515 99.9724C161.515 134.641 133.933 162.769 100.027 162.769C66.0125 162.769 38.5391 134.641 38.5391 99.9724C38.5391 65.3035 66.0125 37.2305 100.027 37.2305C133.987 37.2305 161.515 65.3035 161.515 99.9724Z" fill="#002D62"/>
<path d="M157.591 99.9737C157.591 132.408 131.862 158.682 100.027 158.682C68.2475 158.682 42.4639 132.408 42.4639 99.9737C42.4639 67.5398 68.1929 41.2656 100.027 41.2656C131.862 41.2656 157.591 67.5398 157.591 99.9737Z" fill="white"/>
<path d="M36.9037 82.4208L36.3044 84.7102L17.9346 80.1853L18.5338 77.8418L36.9037 82.4208Z" fill="#002D62"/>
<path d="M39.4657 54.1845L47.3703 60.2352L46.0075 62.0336L31.0166 50.5321L31.7803 49.4967L42.6277 52.3313L34.4512 46.0621L35.8141 44.2637L50.8042 55.7111L50.0953 56.8006L39.4657 54.1845Z" fill="#002D62"/>
<path d="M58.8169 25.13L62.5236 23.2221C64.1044 22.4044 66.0668 22.459 67.1025 24.4213C69.4465 29.1093 70.5367 31.1262 72.9352 35.705C73.1261 36.0885 73.2352 36.5076 73.2556 36.9355C73.2759 37.3635 73.2069 37.7909 73.0531 38.1908C72.8993 38.5907 72.664 38.9542 72.3622 39.2582C72.0604 39.5623 71.6986 39.8002 71.2998 39.9569L67.4296 41.9193L58.8169 25.13ZM68.6834 38.9757L69.6645 38.4306C70.0518 38.2774 70.3624 37.9765 70.5278 37.5943C70.6933 37.2121 70.7002 36.7798 70.5469 36.3925C70.5277 36.344 70.5061 36.2966 70.4822 36.2502C68.5198 32.4344 67.1025 29.7089 65.1401 25.8386C64.9704 25.483 64.6664 25.2093 64.295 25.0778C63.9235 24.9463 63.515 24.9677 63.1594 25.1374C63.1286 25.1521 63.0984 25.1678 63.0687 25.1845L61.924 25.7842L68.6834 38.9757Z" fill="#002D62"/>
<path d="M97.6289 33.1963L95.2846 33.36L94.1943 14.4449L96.7023 14.2812L97.6289 33.1963Z" fill="#002D62"/>
<path d="M125.211 38.2121L126.029 34.5599L122.867 33.3607L120.96 36.5768L118.725 35.7046L128.809 19.2969L131.153 20.169L127.555 39.0843L125.211 38.2121ZM127.828 25.2931L127.719 25.2386L123.849 31.6163L126.411 32.543L127.828 25.2931Z" fill="#002D62"/>
<path d="M153.338 45.5703L146.035 52.4387L144.453 50.8033L158.245 37.8301L159.063 38.7019L154.538 49.0589L162.115 41.9179L163.641 43.5534L149.85 56.5266L148.978 55.6L153.338 45.5703Z" fill="#002D62"/>
<path d="M162.769 80.7848L166.094 79.0949L165.004 75.8788L161.297 76.4784L160.534 74.189L179.667 71.627L180.485 73.9709L163.587 83.1832L162.769 80.7848ZM174.489 74.7341L174.38 74.5705L167.021 75.6063L167.893 78.1683L174.489 74.7341Z" fill="#002D62"/>
<path d="M24.7478 139.439L23.603 137.259L40.3378 128.592L43.1179 133.879C43.663 134.97 43.3905 135.787 42.5728 136.223C39.5747 137.75 38.0484 138.567 35.0503 140.148C34.8604 140.258 34.649 140.325 34.4306 140.346C34.2123 140.366 33.992 140.339 33.785 140.267C33.578 140.194 33.3891 140.078 33.2311 139.926C33.0732 139.774 32.95 139.589 32.8699 139.385L31.18 136.114L24.7478 139.439ZM32.9789 135.133L34.3416 137.695L41.0465 134.152L39.6837 131.59L32.9789 135.133Z" fill="#002D62"/>
<path d="M49.7136 169.529L51.567 166.258L48.8414 164.132L46.0614 166.585L44.208 165.113L58.7079 152.467L60.6703 154.048L51.676 171.055L49.7136 169.529ZM56.2004 157.972L56.0914 157.809L50.5312 162.715L52.6571 164.405L56.2004 157.972Z" fill="#002D62"/>
<path d="M83.2925 177.978L85.691 178.577L84.4918 183.429C84.4508 183.622 84.3722 183.806 84.2603 183.969C84.1484 184.132 84.0056 184.271 83.8398 184.379C83.6741 184.487 83.4888 184.561 83.2944 184.597C83.1 184.633 82.9004 184.631 82.707 184.59C82.684 184.585 82.6612 184.579 82.6384 184.573C80.9486 184.192 79.8038 183.865 78.0595 183.429C77.8626 183.385 77.6764 183.302 77.5114 183.186C77.3464 183.07 77.2059 182.922 77.098 182.752C76.99 182.582 76.9166 182.392 76.8821 182.193C76.8475 181.994 76.8525 181.79 76.8966 181.594C76.9021 181.569 76.9081 181.545 76.9148 181.521C78.3866 175.525 79.2042 172.2 80.676 166.203C80.7587 165.813 80.9932 165.471 81.3279 165.253C81.6626 165.036 82.0701 164.96 82.4607 165.042C82.4837 165.047 82.5066 165.053 82.5293 165.059C84.2192 165.44 85.4184 165.822 87.1628 166.203C87.5586 166.309 87.8963 166.567 88.1017 166.921C88.3071 167.276 88.3633 167.697 88.258 168.093L88.253 168.111L87.3263 171.927L84.9278 171.382L85.7455 168.002L82.9109 167.348L79.4223 181.739L82.2568 182.393L83.2925 177.978Z" fill="#002D62"/>
<path d="M118.125 184.465L112.02 185.61L108.749 166.967L114.745 165.877L115.072 167.894L111.42 168.493L112.51 174.599L115.944 173.999L116.271 176.016L112.892 176.615L114.091 183.102L117.688 182.503L118.125 184.465Z" fill="#002D62"/>
<path d="M145.98 172.582L143.908 173.89L133.279 158.245L138.457 154.702C138.623 154.559 138.82 154.455 139.032 154.398C139.244 154.342 139.466 154.334 139.681 154.376C139.896 154.418 140.099 154.509 140.274 154.641C140.45 154.773 140.593 154.943 140.692 155.138C142.164 157.264 143.145 158.682 144.617 160.862C144.753 161.031 144.851 161.227 144.903 161.438C144.955 161.649 144.96 161.868 144.919 162.081C144.877 162.294 144.79 162.495 144.662 162.67C144.535 162.846 144.371 162.992 144.181 163.097L143.908 163.315L150.831 169.257L148.596 170.783L140.801 163.915L140.747 163.042L142.382 161.952L138.948 156.937L136.386 158.682L145.98 172.582Z" fill="#002D62"/>
<path d="M165.222 144.017L168.983 146.415L170.073 144.671L166.421 142.327L159.389 142.709C158.953 142.762 158.511 142.666 158.135 142.436C156.773 141.564 156.173 141.128 154.647 140.256C154.483 140.151 154.341 140.016 154.229 139.857C154.118 139.698 154.039 139.518 153.996 139.329C153.954 139.139 153.95 138.943 153.983 138.751C154.017 138.56 154.088 138.377 154.192 138.213L154.211 138.184C154.919 136.93 155.574 136.004 156.337 134.805C156.437 134.625 156.575 134.469 156.741 134.347C156.907 134.225 157.098 134.141 157.3 134.1C157.501 134.058 157.71 134.061 157.91 134.107C158.111 134.154 158.299 134.243 158.463 134.368L161.788 136.494L160.479 138.511L157.59 136.658L156.5 138.457L159.335 140.201L166.04 139.765C166.63 139.689 167.229 139.824 167.729 140.147C169.474 141.291 170.073 141.618 171.927 142.763C172.27 142.969 172.519 143.301 172.621 143.688C172.723 144.075 172.669 144.486 172.472 144.835C171.709 146.088 171.109 147.015 170.291 148.214C170.189 148.392 170.051 148.547 169.884 148.667C169.718 148.787 169.528 148.871 169.327 148.912C169.126 148.954 168.918 148.952 168.718 148.906C168.518 148.861 168.329 148.774 168.166 148.65L164.023 145.979L165.222 144.017Z" fill="#002D62"/>
<path d="M81.657 64.3219L66.0669 134.968H96.92C96.92 134.968 100.354 120.904 100.627 119.65H113.982C124.012 119.705 132.188 116.325 137.694 109.838C147.779 98.8817 146.034 82.9101 138.457 73.7523C135.79 70.5191 132.433 67.9249 128.631 66.1609C124.829 64.3968 120.68 63.5076 116.489 63.5587H81.8205L81.657 64.3219Z" fill="#BEC0C2"/>
<path d="M98.3919 116.871L94.6852 132.188H69.5557L84.0555 66.4482H116.435C120.222 66.391 123.974 67.1898 127.41 68.7849C130.845 70.3801 133.876 72.7304 136.277 75.6605C143.472 84.3277 144.181 98.7731 135.568 108.094C130.281 114.254 122.486 117.034 113.982 116.925L98.3919 116.871Z" fill="#002D62"/>
<path d="M80.6758 81.4929H94.8486C96.4839 81.4929 98.2282 82.8012 97.5196 84.9271C97.0278 86.2859 96.6807 87.6928 96.4839 89.1245C96.3749 90.1602 97.5741 90.8688 98.2282 90.8688H127.173C127.719 90.8688 127.991 90.7053 127.991 90.4327C128.003 89.8108 127.948 89.1895 127.828 88.5793C127.719 87.9797 127.664 87.8162 127.119 87.8162C123.521 87.8162 122.049 86.1809 118.234 83.7824C114.472 81.3294 108.912 79.9121 104.115 79.9121H80.8938L80.6758 81.4929Z" fill="#FDBB30"/>
<path d="M98.2285 100.191C97.7214 99.0436 97.3023 97.8591 96.9748 96.648C96.6477 95.1762 95.3394 93.9769 93.1045 93.9769H77.896L78.3321 92.2871L127.664 92.3416C128.1 92.3416 128.046 92.5597 127.991 93.1048C127.991 93.6499 127.828 94.6311 127.773 95.2307C127.719 95.8848 127.228 95.7213 126.792 95.7213C125.235 95.6802 123.699 96.0972 122.377 96.9205C120.36 98.5013 115.945 101.227 113.546 101.936C110.875 102.699 101.118 105.751 98.2285 100.191Z" fill="#FDBB30"/>
<path d="M75.2251 106.406H100.954C101.987 106.368 103.004 106.675 103.843 107.278C106.235 109.105 108.955 110.456 111.856 111.257C113.165 111.693 115.509 111.148 117.58 110.004C122.704 107.06 126.029 101.554 127.174 97.9566C127.446 97.03 126.901 97.0845 126.247 97.139C124.067 97.3025 121.777 99.2649 118.779 101.227C115.727 103.081 109.676 104.934 103.843 104.934H75.6067L75.2251 106.406Z" fill="#FDBB30"/>
<path d="M113.055 71.9002C113.834 71.751 114.638 71.7884 115.399 72.0092C120.36 73.9716 124.939 79.0411 126.901 84.4377C127.283 85.5279 127.392 86.1275 126.901 86.182C124.666 86.4546 123.685 85.3098 120.959 83.5655C118.382 81.8022 115.552 80.442 112.565 79.5317C109.24 78.496 103.243 78.2779 102.535 78.2779C101.772 78.2779 101.826 77.9509 102.153 77.6238C105.103 74.6273 108.914 72.6263 113.055 71.9002Z" fill="#FDBB30"/>
<path d="M136.495 90.4334C136.486 90.5607 136.432 90.6806 136.342 90.7709C136.252 90.8611 136.132 90.9155 136.004 90.924H130.335C129.627 90.924 129.627 90.597 129.627 90.1609C129.51 89.5869 129.456 89.0022 129.463 88.4166C129.463 87.9805 129.245 87.4354 129.899 87.1628C131.454 86.3681 132.742 85.1366 133.606 83.6196C133.769 83.1835 134.151 82.4749 134.533 83.0745C135.95 85.2004 136.386 87.8169 136.495 90.4334Z" fill="#FDBB30"/>
<path d="M134.478 100.573C134.424 100.791 133.988 100.954 133.933 100.573C133.127 98.6513 131.656 97.0841 129.79 96.1574C129.409 95.9393 129.409 95.6668 129.409 95.2307C129.463 94.8491 129.627 93.5409 129.681 93.0503C129.681 92.6142 129.899 92.2871 130.226 92.2871H136.114C136.277 92.2871 136.55 92.5052 136.55 92.6142C136.464 95.3887 135.756 98.1085 134.478 100.573Z" fill="#FDBB30"/>
<path d="M119.215 111.584C118.779 111.693 117.852 111.529 119.27 110.712C123.522 108.204 127.392 102.426 128.373 99.0462C128.809 97.738 128.809 97.6835 129.354 97.847C130.373 98.306 131.242 99.0428 131.862 99.9729C132.625 101.063 133.006 103.244 132.516 103.789C130.92 105.898 128.924 107.673 126.642 109.01C124.359 110.348 121.836 111.222 119.215 111.584Z" fill="#FDBB30"/>
<path d="M130.062 85.2557C129.081 85.8008 128.863 85.6372 128.645 84.9286C126.792 78.4418 121.286 73.5904 119.051 72.1186C118.67 71.9005 118.724 71.6825 119.051 71.737C124.393 72.5001 129.681 75.3892 132.297 79.3685C133.878 81.658 131.044 84.7106 130.062 85.2557Z" fill="#FDBB30"/>
</g>
<defs>
<clipPath id="clip0_18_259">
<rect width="200" height="200" fill="white"/>
</clipPath>
</defs>
</svg>
