<svg width="200" height="200" viewBox="0 0 200 200" fill="none" xmlns="http://www.w3.org/2000/svg">
<g clip-path="url(#clip0_17_1028)">
<path d="M0 100C0 44.7714 44.7715 0 100 0C155.229 0 200 44.7715 200 100C200 155.229 155.229 200 100 200C44.7714 200 0 155.229 0 100Z" fill="white"/>
<path d="M168.726 152.824C157.832 138.695 151.644 121.899 150.799 104.167H186.626C185.779 121.914 179.601 138.714 168.726 152.824H168.726ZM104.167 186.624V161.781H95.832V186.624C73.2646 185.55 52.3361 175.873 36.7952 159.32C49.4952 143.461 56.6605 124.41 57.5381 104.167V95.832C56.6605 75.5891 49.4953 56.5381 36.7952 40.6789C52.3361 24.1259 73.2646 14.4463 95.832 13.3749V37.9953H104.167V13.3748C126.734 14.4463 147.665 24.1259 163.205 40.679C150.503 56.5381 143.34 75.5892 142.463 95.832V104.167C143.34 124.41 150.503 143.461 163.205 159.32C147.665 175.873 126.734 185.55 104.167 186.624ZM31.2748 152.824C20.3973 138.714 14.2198 121.914 13.3749 104.167H49.2014C48.3565 121.899 42.1667 138.697 31.2749 152.824H31.2748ZM31.2749 47.1749C42.1687 61.3034 48.3565 78.1013 49.2014 95.832H13.3749C14.2198 78.0851 20.3973 61.2871 31.2748 47.1749H31.2749ZM168.726 47.1749C179.601 61.2851 185.779 78.083 186.626 95.832H150.799C151.644 78.1014 157.832 61.3034 168.726 47.1749H168.726ZM99.9993 4.92383C47.5749 4.92383 4.92383 47.5749 4.92383 99.9993C4.92383 152.426 47.5749 195.075 99.9993 195.075C152.426 195.075 195.075 152.426 195.075 99.9993C195.075 47.5749 152.426 4.92383 99.9993 4.92383Z" fill="#061922"/>
<path d="M79.6572 60.3398V139.66H122.037V128.754H91V60.3398H79.6572Z" fill="#C8102E"/>
<path d="M136.444 86.9155V54.2319C136.444 49.3339 134.472 47.3359 129.638 47.3359H71.9519C67.1805 47.3359 65.2314 49.3339 65.2314 54.2319V146.093C65.2314 150.989 67.1805 152.987 71.9519 152.987H129.638C134.472 152.987 136.444 150.989 136.444 146.093V113.373H125.013V142.956H76.5764V57.3665H125.013V86.9155H136.444Z" fill="#1D428A"/>
<path fill-rule="evenodd" clip-rule="evenodd" d="M122.037 60.3379L122.019 125.685H110.964L111.043 105.313H105.437L105.26 125.685H94.2329L94.5003 60.3379H122.037ZM105.441 94.4473H110.965V71.2432H105.441V94.4473Z" fill="#C8102E"/>
</g>
<defs>
<clipPath id="clip0_17_1028">
<rect width="200" height="200" fill="white"/>
</clipPath>
</defs>
</svg>
