<svg width="200" height="200" viewBox="0 0 200 200" fill="none" xmlns="http://www.w3.org/2000/svg">
<g clip-path="url(#clip0_18_270)">
<path d="M2.88194 89.914C1.94023 90.7683 1.19526 91.8144 0.697896 92.9808C0.200532 94.1472 -0.0375127 95.4064 1.79377e-05 96.6726V146.466C-0.0467453 147.741 0.185997 149.012 0.682155 150.189C1.17831 151.367 1.92605 152.423 2.87368 153.286C3.8213 154.148 4.94621 154.796 6.17063 155.184C7.39505 155.572 8.68977 155.692 9.9653 155.535C14.4445 155.155 18.9584 154.81 23.4375 154.5V145.086C18.9584 145.328 14.4445 145.569 9.9653 145.845V97.2933C14.4445 97.5691 18.9584 97.8105 23.4375 98.0519V88.6381C18.9584 88.3278 14.4445 87.9829 9.9653 87.6036C8.68567 87.4347 7.38413 87.5546 6.15769 87.9547C4.93125 88.3547 3.8115 89.0244 2.88194 89.914Z" fill="#061922"/>
<path d="M35.4863 89.3974C32.153 89.1905 28.8197 88.9836 25.4863 88.7422V154.363C32.778 153.846 40.0697 153.42 47.3613 153.087V144.087C43.403 144.225 39.4447 144.363 35.4863 144.535V89.3974Z" fill="#061922"/>
<path d="M49.3403 152.982C52.7431 152.809 56.1459 152.672 59.5487 152.568V90.5681L49.3403 90.1543V152.982Z" fill="#061922"/>
<path d="M78.4375 91.0869C72.8125 90.9835 67.1875 90.8111 61.5625 90.6387V152.501C64.8958 152.397 68.2639 152.294 71.5972 152.19V125.949C73.8889 125.949 76.1458 125.949 78.4028 125.915C80.9953 125.969 83.5172 125.073 85.4861 123.397C86.4247 122.663 87.1817 121.724 87.6992 120.655C88.2168 119.585 88.4812 118.412 88.4722 117.225V99.9145C88.4662 98.7352 88.195 97.572 87.6784 96.5101C87.1617 95.4481 86.4127 94.5142 85.4861 93.7766C83.5524 92.0451 81.0412 91.0868 78.4375 91.0869ZM78.4375 117.225C76.1458 117.225 73.8889 117.225 71.6319 117.19V99.7076C73.9236 99.7421 76.1806 99.7766 78.4375 99.8111V117.225Z" fill="#061922"/>
<path d="M167.083 123.5C168.037 122.687 168.799 121.676 169.315 120.537C169.831 119.399 170.089 118.162 170.069 116.914V98.3276C170.098 97.1128 169.844 95.9079 169.326 94.8072C168.808 93.7064 168.04 92.7397 167.083 91.9827C166.131 91.1364 165.014 90.4919 163.802 90.0888C162.59 89.6856 161.308 89.5322 160.035 89.6379C154.41 89.9482 148.819 90.2241 143.194 90.431V152.638C146.528 152.776 149.896 152.914 153.229 153.086V126.328C156.007 135.259 158.785 144.328 161.562 153.534C164.896 153.707 168.229 153.914 171.597 154.155C168.68 144.5 165.764 135.052 162.847 125.741C164.432 125.374 165.892 124.601 167.083 123.5ZM153.229 99.0172C155.486 98.9482 157.778 98.8448 160.035 98.7758V117.017C157.778 117.052 155.486 117.052 153.229 117.052V99.0172Z" fill="#061922"/>
<path d="M107.396 91.2924C101.771 91.3268 96.146 91.3268 90.521 91.2924V151.879C93.8891 151.844 97.2224 151.844 100.59 151.844V125.913H107.431C110.019 125.98 112.541 125.096 114.514 123.43C115.453 122.696 116.21 121.757 116.727 120.688C117.245 119.618 117.509 118.445 117.5 117.258V99.8786C117.504 98.7073 117.237 97.5507 116.72 96.4984C116.202 95.446 115.447 94.526 114.514 93.8096C112.554 92.0956 110.006 91.1945 107.396 91.2924ZM107.396 117.223H100.556V99.9475C102.847 99.9475 105.104 99.9475 107.396 99.913V117.223Z" fill="#061922"/>
<path d="M119.479 151.983C126.805 152.121 134.097 152.328 141.423 152.604V143.742C137.465 143.639 133.507 143.535 129.548 143.466V125.949C131.805 125.949 135.868 125.983 138.16 125.983V117.156C135.903 117.156 131.84 117.19 129.548 117.19V99.6731C133.507 99.6041 137.465 99.5007 141.423 99.3972V90.5352C134.132 90.811 126.817 91.0179 119.479 91.1558V151.983Z" fill="#061922"/>
<path d="M200 106.638V96.6721C200.016 95.4052 199.762 94.1492 199.255 92.9864C198.749 91.8235 198.001 90.7799 197.06 89.9239C196.12 89.0679 195.008 88.4187 193.797 88.0188C192.586 87.6189 191.304 87.4772 190.035 87.6032C187.222 87.8445 184.41 88.0514 181.597 88.2583C178.887 88.4206 176.34 89.6047 174.479 91.5687C173.561 92.4341 172.832 93.4774 172.336 94.634C171.841 95.7906 171.589 97.0359 171.597 98.2928V116.914C171.577 118.157 171.824 119.39 172.321 120.532C172.818 121.673 173.554 122.697 174.479 123.534C176.394 125.352 178.948 126.355 181.597 126.327L190.035 126.431V145.845C187.222 145.672 184.41 145.534 181.597 145.362V135.845L171.597 135.534V144.845C171.59 146.112 171.841 147.367 172.337 148.535C172.832 149.702 173.561 150.758 174.479 151.638C176.369 153.547 178.906 154.69 181.597 154.845C184.41 155.051 187.222 155.293 190.035 155.5C191.297 155.648 192.577 155.524 193.788 155.138C194.998 154.751 196.11 154.11 197.049 153.258C198.019 152.408 198.787 151.355 199.298 150.174C199.808 148.993 200.048 147.715 200 146.431V126.5C200.028 125.193 199.78 123.895 199.272 122.689C198.763 121.483 198.006 120.397 197.049 119.5C196.151 118.555 195.062 117.811 193.852 117.318C192.643 116.824 191.342 116.593 190.035 116.638C187.222 116.672 184.41 116.707 181.597 116.741V97.7066C184.41 97.5687 187.222 97.3963 190.035 97.2239V106.948C193.368 106.879 196.701 106.741 200 106.638Z" fill="#061922"/>
<path d="M10.5556 88.6726C14.514 89.0174 18.6459 89.3277 22.8126 89.6381V89.2243C18.5417 88.914 14.2015 88.5691 9.96534 88.2243C9.65373 88.1956 9.34074 88.1841 9.02784 88.1898C7.98698 88.1647 6.95134 88.3437 5.98019 88.7164C5.00903 89.0892 4.12142 89.6485 3.36812 90.3623C2.49427 91.1559 1.80308 92.1274 1.34168 93.2104C0.880279 94.2935 0.659537 95.4626 0.69451 96.6381V146.431C0.640052 148.358 1.25288 150.244 2.43062 151.776C1.54949 150.346 1.10335 148.693 1.1459 147.017V97.2588C1.10551 96.0641 1.32676 94.875 1.79436 93.7736C2.26197 92.6722 2.96477 91.6847 3.85423 90.8794C4.62131 90.1528 5.52537 89.5837 6.51451 89.205C7.50364 88.8263 8.55837 88.6453 9.61812 88.6726C9.93038 88.6553 10.2434 88.6553 10.5556 88.6726Z" fill="#BEC0C2"/>
<path d="M34.8265 90.4303V90.0166C31.9446 89.8442 29.0279 89.6717 26.146 89.4648V153.672L26.5974 153.637V89.9131H26.6668C29.3057 90.0855 32.0488 90.2579 34.8265 90.4303Z" fill="#BEC0C2"/>
<path d="M58.8889 91.6036V91.1899C55.9722 91.0864 52.9861 90.9485 50 90.8105V152.293L50.4514 152.259V91.2588H50.5208C53.2639 91.3967 56.0764 91.5002 58.8889 91.6036Z" fill="#BEC0C2"/>
<path d="M79.0277 92.1895C80.9333 92.1909 82.7995 92.7289 84.4096 93.7412C82.6838 92.4607 80.5917 91.7601 78.4374 91.7412C73.0555 91.6378 67.6041 91.4999 62.2568 91.293V151.81H62.7082V91.7757H62.7777C68.1596 91.9481 73.6457 92.0861 79.0277 92.1895Z" fill="#BEC0C2"/>
<path d="M161.319 90.7413C163.012 90.6986 164.679 91.1546 166.111 92.0517C164.569 90.8821 162.669 90.2735 160.729 90.3275C160.509 90.3227 160.288 90.3342 160.069 90.362C154.757 90.6724 149.305 90.9137 143.854 91.1206V152.052L144.305 152.086V91.5344H144.375C149.861 91.3275 155.347 91.0517 160.66 90.7413L161.319 90.7413Z" fill="#BEC0C2"/>
<path d="M100.625 92.4318C103.09 92.4318 105.59 92.4318 108.021 92.3974H108.125C110.032 92.3592 111.911 92.8615 113.542 93.8456C111.813 92.5571 109.695 91.8886 107.535 91.9491H107.431C104.965 91.9491 102.465 91.9836 100.035 91.9836C97.1529 91.9836 94.1667 91.9836 91.2153 91.9491V151.19H91.6667V92.3974H91.7362C94.6875 92.3974 97.6737 92.4318 100.625 92.4318Z" fill="#BEC0C2"/>
<path d="M140.764 91.2246C133.959 91.466 127.014 91.6729 120.174 91.8108V151.363H120.625V92.2246H120.695C127.327 92.0867 134.097 91.9143 140.799 91.6729V91.2246H140.764Z" fill="#BEC0C2"/>
<path d="M190.66 88.6728C190.96 88.6441 191.261 88.6326 191.563 88.6383C193.103 88.608 194.621 89.0147 195.938 89.8107C194.521 88.717 192.766 88.1444 190.972 88.19C190.682 88.1843 190.393 88.1958 190.104 88.2245C187.292 88.4659 184.479 88.6728 181.667 88.8797C179.129 89.0394 176.747 90.1484 175 91.9831C174.142 92.7909 173.459 93.7642 172.994 94.8434C172.528 95.9226 172.289 97.0849 172.292 98.259V116.88C172.243 118.731 172.858 120.54 174.028 121.983C173.161 120.636 172.715 119.064 172.743 117.466V98.8452C172.738 97.6523 172.979 96.4711 173.451 95.374C173.922 94.277 174.615 93.2873 175.486 92.4659C177.265 90.6114 179.683 89.491 182.257 89.328C185.035 89.1556 187.847 88.9142 190.66 88.6728Z" fill="#BEC0C2"/>
<path d="M0 166.328C66.4106 158.121 133.589 158.121 200 166.328V162.88C133.554 155.259 66.4458 155.259 0 162.88L0 166.328Z" fill="#1D428A"/>
<path d="M24.1318 175.501C73.877 162.604 126.123 162.604 175.868 175.501V172.259C126.079 159.708 73.921 159.708 24.1318 172.259C24.1318 173.328 24.1318 174.432 24.1318 175.501Z" fill="#C8102E"/>
<path d="M80.1389 81.5345C53.3429 80.888 26.5964 78.9085 0 75.6035L0 79.0518C28.2639 82.2932 56.7361 84.1552 85.2431 84.638C83.4546 83.7519 81.7468 82.7135 80.1389 81.5345Z" fill="#1D428A"/>
<path d="M119.861 81.5345C118.253 82.7135 116.545 83.7519 114.757 84.638C143.264 84.1552 171.736 82.2932 200 79.0518V75.6035C173.403 78.9085 146.657 80.888 119.861 81.5345Z" fill="#1D428A"/>
<path d="M73.4721 74.9144C56.8172 73.4483 40.3138 70.6109 24.1318 66.4316V69.673C41.2441 73.9561 58.6906 76.7938 76.2846 78.1558C75.2837 77.1312 74.3446 76.0489 73.4721 74.9144Z" fill="#C8102E"/>
<path d="M126.528 74.9131C125.655 76.0685 124.704 77.163 123.681 78.189C141.275 76.8325 158.722 73.9947 175.833 69.7062V66.4648C159.66 70.622 143.169 73.4476 126.528 74.9131Z" fill="#C8102E"/>
<path d="M69.1665 55.1207C69.1665 49.0645 70.9748 43.1443 74.3629 38.1088C77.7509 33.0732 82.5664 29.1485 88.2004 26.8309C93.8345 24.5133 100.034 23.9069 106.015 25.0884C111.996 26.2699 117.49 29.1862 121.802 33.4686C126.114 37.751 129.051 43.2071 130.241 49.1469C131.43 55.0867 130.82 61.2435 128.486 66.8387C126.152 72.4339 122.2 77.2163 117.13 80.5809C112.059 83.9455 106.098 85.7414 99.9998 85.7414C95.9506 85.7418 91.941 84.9501 88.1999 83.4114C84.4589 81.8727 81.0597 79.6172 78.1964 76.7737C75.3332 73.9303 73.0621 70.5545 71.5127 66.8392C69.9633 63.124 69.1661 59.142 69.1665 55.1207Z" fill="white"/>
<path d="M99.9999 24.5C93.9016 24.5 87.9403 26.2959 82.8698 29.6605C77.7993 33.0252 73.8473 37.8075 71.5136 43.4027C69.1799 48.9979 68.5693 55.1547 69.759 61.0945C70.9487 67.0343 73.8853 72.4904 78.1974 76.7728C82.5095 81.0552 88.0035 83.9715 93.9846 85.153C99.9657 86.3345 106.165 85.7281 111.799 83.4105C117.433 81.0929 122.249 77.1682 125.637 72.1326C129.025 67.0971 130.833 61.1769 130.833 55.1207C130.828 47.0011 127.578 39.2155 121.797 33.4741C116.015 27.7327 108.176 24.505 99.9999 24.5ZM122.292 38.1207C125.801 42.6217 127.826 48.089 128.09 53.7759H116.458C116.751 48.089 118.786 42.6267 122.292 38.1207ZM77.7429 38.1207C81.2528 42.6217 83.2779 48.089 83.5415 53.7759H71.9096C72.1799 48.0845 74.2176 42.6158 77.7429 38.1207ZM77.743 72.1207C74.2331 67.6197 72.208 62.1524 71.9443 56.4655H83.5763C83.2737 62.1503 81.2395 67.6097 77.743 72.1207ZM101.354 83.0172V75.0172H98.6457V83.0172C91.3537 82.6925 84.4825 79.5344 79.5138 74.2241C83.6232 69.1777 85.9853 62.9503 86.2499 56.4655V53.7759C85.9853 47.2911 83.6232 41.0637 79.5138 36.0172C84.4868 30.7129 91.3555 27.5561 98.6457 27.2241V35.1552H101.354V27.2241C108.646 27.5489 115.517 30.707 120.486 36.0172C116.377 41.0636 114.014 47.2911 113.75 53.7759V56.4655C114.014 62.9503 116.377 69.1777 120.486 74.2242C115.517 79.5344 108.646 82.6924 101.354 83.0172ZM122.292 72.1207C118.767 67.6276 116.74 62.1556 116.493 56.4655H128.125C127.844 62.1548 125.808 67.6205 122.292 72.1207Z" fill="#061922"/>
<path d="M93.1597 42.293V67.8448H106.875V64.3275H96.8058V42.293H93.1597Z" fill="#C8102E"/>
<path d="M111.563 50.8452V40.328C111.563 38.7418 110.938 38.1211 109.34 38.1211H90.625C89.0625 38.1211 88.4375 38.7763 88.4375 40.328V69.9142C88.4375 71.5004 89.0625 72.1211 90.625 72.1211H109.34C110.903 72.1211 111.563 71.4659 111.563 69.9142V59.3625H107.847V68.8797H92.1528V41.328H107.847V50.8453L111.563 50.8452Z" fill="#1D428A"/>
<path d="M106.875 63.3275V42.293H97.9513L97.8472 63.3275H101.424L101.493 56.7757H103.299L103.264 63.3275H106.875ZM103.299 53.293H101.493V45.8102H103.299V53.293Z" fill="#C8102E"/>
</g>
<defs>
<clipPath id="clip0_18_270">
<rect width="200" height="151" fill="white" transform="translate(0 24.5)"/>
</clipPath>
</defs>
</svg>
