<svg width="200" height="200" viewBox="0 0 200 200" fill="none" xmlns="http://www.w3.org/2000/svg">
<path fill-rule="evenodd" clip-rule="evenodd" d="M90.5745 43.6398C88.5988 41.0968 86.3133 40.1044 86.2033 35.5866C86.1203 32.2643 92.4185 20.5934 98.1217 18.152C102.9 16.1046 113.735 17.0022 121.797 17.0022H147.4C161.662 17.0022 193.034 14.8849 191.112 23.8165C190.194 28.0736 188.616 31.8722 186.931 34.6722C185.664 36.7772 182.738 42.4857 180.496 43.0203C170.985 45.2876 155.3 38.9287 152.395 51.0735C166.827 61.8401 176.398 88.1307 168.717 112.949C168.831 113.477 172.234 109.506 173.01 108.915C177.488 105.742 200.01 104.385 200 114.147C199.995 120.404 194.607 126.74 191.112 132.225C183.888 143.557 177.998 154.268 169.88 166.916C167.34 170.87 161.335 181.759 157.391 182.403C150.349 183.55 128.441 183.022 116.177 183.022H33.7493C19.2139 183.022 1.25271 185.113 0.0287813 175.589C-0.617528 170.563 9.79523 155.751 13.7543 153.588C18.9991 150.72 27.3024 154.488 33.7493 152.668C37.9787 151.472 41.3233 144.024 44.365 139.039C47.8407 133.338 53.1242 125.772 53.1242 123.785C53.1242 121.234 50.2455 114.641 50.0875 108.337C49.2507 75.1223 67.6989 53.658 90.5745 43.6398Z" fill="#552583"/>
<path fill-rule="evenodd" clip-rule="evenodd" d="M142.404 140.122C149.559 132.972 158.121 126.752 161.138 115.86C160.123 115.086 159.111 114.515 158.277 113.898C155.413 123.655 147.505 133.257 142.404 140.122ZM161.138 102.488H164.885C164.982 106.922 163.421 109.71 162.387 113.019C161.033 112.245 160.045 111.548 159.265 111.161C160.357 107.831 160.67 106.257 161.138 102.488Z" fill="#FDB927"/>
<path fill-rule="evenodd" clip-rule="evenodd" d="M106.186 55.4085C107.435 52.8922 114.226 42.5934 114.753 37.487C114.084 33.2479 102.344 35.4719 95.5694 34.9657C96.9744 31.4037 98.563 28.0232 101.189 25.6736H181.119C182.825 27.3047 177.632 32.4321 176.124 34.9657C170.219 35.0165 161.216 34.9391 158.667 35.094C148.492 37.0565 144.399 46.8572 139.777 55.3311C128.744 55.3311 117.219 55.4085 106.186 55.4085ZM194.656 113.872C192.345 110.053 183.772 111.733 177.373 111.781C165.755 123.593 156.766 133.05 144.277 143.478C122.526 160.72 114.079 157.726 81.832 157.622C83.6979 154.521 85.4738 150.293 87.2448 148.95C100.253 153.802 118.094 153.4 128.771 147.505C139.601 141.523 152.613 123.774 155.596 112.904C134.333 123.82 120.533 146.871 88.701 145.233C89.2617 144.18 89.5009 142.953 90.5743 142.859C92.916 142.651 97.3821 142.578 99.9411 142.135C121.655 138.373 134.213 120.921 150.522 111.162C153.125 110.286 154.127 109.785 156.766 109.923C157.235 108.258 158.328 105.935 158.015 102.489C143.86 102.078 126.715 102.876 114.877 102.515C115.857 101.56 116.311 100.025 117.114 99.8827C120.287 99.3146 129.746 99.3921 135.535 99.3921H158.64V90.0999C150.383 89.4073 144.602 86.7578 139.32 83.4405C136.686 81.7853 132.725 78.4066 131.32 76.7421C131.788 75.9678 132.529 75.3093 133.037 74.5349C138.891 79.4523 145.736 86.7944 158.64 87.0025C156.991 72.9428 150.946 63.2468 144.902 53.5507C149.351 45.1097 153.02 40.8774 159.628 38.8115C162.96 38.3469 171.39 39.0964 178.622 38.6826C180.288 33.4685 185.908 29.5193 185.491 23.8151C185.464 21.0015 172.912 21.8793 165.458 21.8793C150.998 21.8793 136.347 21.9567 121.797 21.9567C113.981 21.9567 101.758 21.3862 99.9411 21.9567C96.2575 23.1139 89.5958 36.0597 91.1988 37.4437C93.1552 40.7665 111.674 37.238 111.181 39.3021C110.169 41.1896 109.291 43.211 108.059 44.8774C94.8237 46.4075 85.2128 51.5349 77.4608 58.5059H137.408C135.622 62.1051 133.852 65.7173 131.164 68.4176H98.0678C99.6214 66.0369 101.1 63.5782 102.439 60.9838H74.3386C70.8017 63.8755 67.6744 67.1767 65.5962 71.5149C86.6203 71.9288 109.308 70.6898 129.29 72.1344C127.168 75.1934 125.948 79.1451 123.046 81.4266H90.5743C90.2596 78.639 95.8185 75.7621 93.0722 74.6123H63.0984C61.5123 77.7872 60.1029 81.1416 58.7272 84.524H121.797C119.151 88.2991 117.209 92.7754 114.304 96.2941H81.2075C81.7196 93.3664 87.1492 89.1534 84.9543 87.6214C75.7948 87.6214 67.316 87.6486 58.159 87.6486C57.6856 89.2531 56.4074 94.6636 56.2294 99.3921H112.43C101.366 120.008 86.9762 137.33 77.4608 159.481C78.0853 160.205 78.588 160.761 79.6464 160.824C93.3844 161.65 110.188 162.089 118.675 160.72C126.505 159.457 138.63 152.551 149.066 144.51C155.691 139.404 161.206 133.932 166.133 129.127C172.378 123.036 177.998 115.731 177.998 115.731C177.998 115.731 187.989 115.653 191.111 115.499C179.33 135.817 166.628 155.224 153.644 174.349C105.561 173.935 55.8123 175.174 8.77096 173.729C12.0393 169.952 14.4223 165.296 17.5133 161.34C23.46 161.509 32.01 161.547 35.3664 161.202C42.4252 160.468 46.3256 152.224 50.6093 145.233C59.3954 130.891 70.0673 114.828 77.4608 101.87C70.1747 101.87 63.4912 101.879 56.2044 101.879C56.4542 110.097 57.5732 116.848 59.9761 122.932C52.5095 132.955 44.1306 154.371 34.825 157.354C32.1486 157.661 21.0552 157.7 15.6399 157.623C12.6007 161.974 3.60235 171.747 5.64869 176.207C6.74398 179.249 16.9232 178.066 22.5089 178.066H155.517C166.516 163.041 176.89 146.065 186.74 130.366C190.945 123.663 196.266 117.828 194.656 113.872" fill="#FDB927"/>
<path fill-rule="evenodd" clip-rule="evenodd" d="M165.301 87.5181C166.34 90.1509 165.77 95.4165 165.509 99.3917H161.762V89.48C162.855 89.1703 164.365 88.2411 165.301 87.5175M153.644 61.6035C157.081 64.6284 163.728 75.7357 164.833 85.1945C163.74 85.8672 162.804 86.3318 161.606 86.6416C159.22 77.8574 157.449 68.9796 153.644 61.6035Z" fill="#FDB927"/>
</svg>
