<svg width="200" height="200" viewBox="0 0 200 200" fill="none" xmlns="http://www.w3.org/2000/svg">
<g clip-path="url(#clip0_18_278)">
<path d="M50.3357 189.444C50.3319 188.331 49.888 187.264 49.1008 186.477C48.3137 185.69 47.2472 185.246 46.134 185.242H38.2861V200H41.7239V195.382H44.9186C45.4074 195.399 45.8709 195.603 46.2135 195.952C46.556 196.301 46.7513 196.768 46.7591 197.257V199.966H50.1968V197.257C50.1967 196.103 49.8186 194.981 49.1204 194.062C49.9041 193.267 50.341 192.193 50.3357 191.076L50.3357 189.444ZM46.134 188.68C46.336 188.682 46.5293 188.763 46.6722 188.906C46.8151 189.049 46.8962 189.242 46.8979 189.444V191.111C46.8991 191.225 46.8774 191.338 46.8341 191.444C46.7909 191.55 46.727 191.646 46.6462 191.727C46.5653 191.808 46.4692 191.872 46.3633 191.915C46.2575 191.958 46.1441 191.98 46.0298 191.979H41.7239V188.715H46.134L46.134 188.68Z" fill="#12173F"/>
<path d="M127.703 200.001H115.48V185.242H118.918V196.563H127.703V200.001Z" fill="#12173F"/>
<path d="M161.734 188.68V185.242H149.511V200.001H161.734V196.563H152.949V194.167H160.519V190.729H152.949V188.68H161.734Z" fill="#12173F"/>
<path d="M84.4355 200.001H71.1709L78.7758 188.68H72.0044V185.242H85.2347L77.6297 196.563H84.4355V200.001Z" fill="#12173F"/>
<path d="M105.758 200.001H92.4922L100.097 188.68H93.3257V185.242H106.556L98.951 196.563H105.758V200.001Z" fill="#12173F"/>
<path d="M139.718 185.242H136.28V200H139.718V185.242Z" fill="#12173F"/>
<path d="M62.9065 185.242H59.4688V200H62.9065V185.242Z" fill="#12173F"/>
<path d="M62.9065 185.242H59.4688V200H62.9065V185.242Z" fill="#12173F"/>
<path d="M117.876 152.912H105.306V179.928H111.521V171.247H117.876C119.882 171.242 121.805 170.443 123.224 169.025C124.642 167.606 125.441 165.683 125.446 163.677V160.482C125.441 158.476 124.642 156.553 123.224 155.135C121.805 153.716 119.882 152.917 117.876 152.912ZM119.23 163.677C119.23 164.036 119.087 164.38 118.833 164.634C118.579 164.888 118.235 165.031 117.876 165.031H111.521V159.128H117.876C118.235 159.128 118.579 159.271 118.833 159.525C119.087 159.779 119.23 160.123 119.23 160.482V163.677Z" fill="#12173F"/>
<path d="M108.674 179.928H108.153V155.76H117.876C119.128 155.761 120.329 156.259 121.214 157.144C122.1 158.03 122.598 159.23 122.599 160.482V163.677C122.598 164.929 122.1 166.13 121.214 167.015C120.329 167.9 119.128 168.398 117.876 168.4H108.674L108.674 179.928ZM108.674 167.879H117.876C118.428 167.88 118.975 167.772 119.486 167.561C119.996 167.35 120.459 167.041 120.85 166.65C121.24 166.26 121.55 165.796 121.76 165.286C121.971 164.776 122.079 164.229 122.078 163.677V160.482C122.079 159.93 121.971 159.383 121.76 158.873C121.55 158.363 121.24 157.899 120.85 157.509C120.459 157.119 119.996 156.809 119.486 156.598C118.975 156.388 118.428 156.28 117.876 156.281H108.674V167.879Z" fill="#5D76A9"/>
<path d="M69.8163 159.128V152.912H49.3291V179.928H69.7819V173.747H55.5441V169.545H67.5939V163.329H55.5441V159.128H69.8163Z" fill="#12173F"/>
<path d="M69.8164 156.281V155.76H52.1758V177.08H69.782V176.595H52.6967V166.698H67.594V166.177H52.6967V156.281H69.8164Z" fill="#5D76A9"/>
<path d="M94.4371 152.947H73.0117V179.929H79.2275V159.163H84.4016V179.963H90.6173V159.163H94.4371C94.7961 159.164 95.1404 159.306 95.3942 159.56C95.6481 159.814 95.7909 160.158 95.7914 160.517V179.929H102.007V160.517C102.002 158.511 101.203 156.588 99.7848 155.17C98.3661 153.751 96.4434 152.952 94.4371 152.947Z" fill="#12173F"/>
<path d="M94.4373 155.795H75.8594V179.929H76.3802V156.316H87.2492V179.964H87.7701V156.316H94.4373C94.9893 156.315 95.5362 156.423 96.0464 156.634C96.5567 156.844 97.0203 157.154 97.4106 157.544C97.801 157.935 98.1105 158.398 98.3212 158.908C98.532 159.419 98.64 159.965 98.639 160.518V179.929H99.1599V160.518C99.1586 159.265 98.6606 158.065 97.7752 157.18C96.8899 156.294 95.6894 155.796 94.4373 155.795Z" fill="#5D76A9"/>
<path d="M38.4254 152.947H17V179.929H23.2158V159.163H28.3898V179.963H34.6056V159.163H38.4254C38.7844 159.164 39.1286 159.306 39.3825 159.56C39.6364 159.814 39.7792 160.158 39.7796 160.517V179.929H45.9954V160.517C45.9908 158.511 45.1917 156.588 43.773 155.17C42.3544 153.751 40.4316 152.952 38.4254 152.947Z" fill="#12173F"/>
<path d="M38.4256 155.795H19.8477V179.929H20.3685V156.316H31.2375V179.964H31.7584V156.316H38.4256C38.9776 156.315 39.5245 156.423 40.0347 156.634C40.5449 156.844 41.0085 157.154 41.3989 157.544C41.7893 157.935 42.0987 158.398 42.3095 158.908C42.5203 159.419 42.6283 159.965 42.6273 160.518V179.929H43.1482V160.518C43.1469 159.265 42.6489 158.065 41.7635 157.18C40.8781 156.294 39.6777 155.796 38.4256 155.795Z" fill="#5D76A9"/>
<path d="M158.713 152.912H152.497V179.928H158.713V152.912Z" fill="#12173F"/>
<path d="M155.866 152.912H155.345V179.928H155.866V152.912Z" fill="#5D76A9"/>
<path d="M142.288 152.912V163.329H134.545V152.912H128.363V179.928H134.545V169.545H142.288V179.928H148.469V152.912H142.288Z" fill="#12173F"/>
<path d="M145.102 152.912V166.177H131.698V152.912H131.211V179.928H131.698V166.698H145.102V179.928H145.622V152.912H145.102Z" fill="#5D76A9"/>
<path d="M29.0496 200H21.2017C20.0886 199.996 19.0221 199.553 18.2349 198.765C17.4478 197.978 17.0038 196.912 17 195.799V189.444C17.0038 188.331 17.4478 187.264 18.2349 186.477C19.0221 185.69 20.0886 185.246 21.2017 185.242H24.8479C25.9611 185.246 27.0275 185.69 27.8147 186.477C28.6018 187.264 29.0458 188.331 29.0496 189.444V190.138H25.6118V189.444C25.6101 189.242 25.529 189.049 25.3861 188.906C25.2432 188.763 25.0499 188.682 24.8479 188.68H21.2017C20.9997 188.682 20.8064 188.763 20.6635 188.906C20.5206 189.049 20.4396 189.242 20.4378 189.444V195.799C20.4396 196.001 20.5206 196.194 20.6635 196.337C20.8064 196.48 20.9997 196.561 21.2017 196.563H25.6118V195.208H23.563V191.77H29.0496L29.0496 200Z" fill="#12173F"/>
<path d="M29.0496 200H21.2017C20.0886 199.996 19.0221 199.553 18.2349 198.765C17.4478 197.978 17.0038 196.912 17 195.799V189.444C17.0038 188.331 17.4478 187.264 18.2349 186.477C19.0221 185.69 20.0886 185.246 21.2017 185.242H24.8479C25.9611 185.246 27.0275 185.69 27.8147 186.477C28.6018 187.264 29.0458 188.331 29.0496 189.444V190.138H25.6118V189.444C25.6101 189.242 25.529 189.049 25.3861 188.906C25.2432 188.763 25.0499 188.682 24.8479 188.68H21.2017C20.9997 188.682 20.8064 188.763 20.6635 188.906C20.5206 189.049 20.4396 189.242 20.4378 189.444V195.799C20.4396 196.001 20.5206 196.194 20.6635 196.337C20.8064 196.48 20.9997 196.561 21.2017 196.563H25.6118V195.208H23.563V191.77H29.0496L29.0496 200Z" fill="#12173F"/>
<path d="M178.507 200H174.826C173.713 199.997 172.646 199.553 171.859 198.765C171.072 197.978 170.628 196.912 170.624 195.799V195.278H174.062V195.799C174.064 196.001 174.145 196.194 174.288 196.337C174.43 196.48 174.624 196.561 174.826 196.563H178.507C178.709 196.561 178.902 196.48 179.045 196.337C179.188 196.194 179.269 196.001 179.271 195.799V195.174L172.881 193.472C172.237 193.271 171.675 192.869 171.275 192.326C170.875 191.782 170.659 191.126 170.659 190.451V189.548C170.659 188.983 170.77 188.423 170.986 187.9C171.203 187.378 171.52 186.903 171.92 186.503C172.32 186.103 172.794 185.786 173.317 185.57C173.839 185.353 174.399 185.242 174.965 185.242H178.541C179.655 185.246 180.721 185.69 181.508 186.477C182.295 187.264 182.739 188.331 182.743 189.444V190.138H179.305V189.444C179.304 189.242 179.222 189.049 179.08 188.906C178.937 188.763 178.743 188.682 178.541 188.68H174.965C174.85 188.679 174.737 188.701 174.631 188.744C174.525 188.787 174.429 188.851 174.348 188.932C174.267 189.013 174.204 189.109 174.16 189.215C174.117 189.32 174.095 189.434 174.097 189.548V190.243L180.486 191.944C181.13 192.145 181.693 192.547 182.092 193.09C182.492 193.634 182.708 194.291 182.708 194.965V195.799C182.709 196.351 182.601 196.898 182.391 197.408C182.18 197.918 181.87 198.382 181.48 198.772C181.09 199.162 180.626 199.472 180.116 199.683C179.605 199.893 179.059 200.001 178.507 200Z" fill="#12173F"/>
<path d="M175.173 179.893H162.429V171.316H168.645V173.712H175.173C175.36 173.715 175.546 173.679 175.72 173.608C175.894 173.537 176.052 173.433 176.184 173.3C176.317 173.167 176.422 173.01 176.492 172.836C176.563 172.662 176.599 172.476 176.597 172.289V171.039L166.457 167.913C165.292 167.563 164.272 166.847 163.546 165.872C162.821 164.896 162.429 163.712 162.429 162.496V160.552C162.429 158.526 163.234 156.582 164.666 155.15C166.099 153.717 168.042 152.912 170.068 152.912H182.812V161.836H176.597V159.128H170.068C169.881 159.126 169.695 159.161 169.521 159.232C169.347 159.303 169.189 159.408 169.057 159.54C168.924 159.673 168.819 159.831 168.749 160.004C168.678 160.178 168.642 160.364 168.645 160.552V162.114L178.75 165.205C179.928 165.558 180.961 166.283 181.693 167.272C182.426 168.261 182.818 169.461 182.812 170.691V172.254C182.806 174.278 182 176.218 180.568 177.649C179.137 179.081 177.197 179.888 175.173 179.893Z" fill="#12173F"/>
<path d="M175.173 177.046H165.276V171.281H165.797V176.525H175.173C175.734 176.525 176.29 176.415 176.808 176.201C177.326 175.986 177.797 175.672 178.194 175.275C178.591 174.878 178.905 174.407 179.12 173.889C179.334 173.37 179.445 172.815 179.444 172.254V170.691C179.441 170.178 179.274 169.679 178.968 169.267C178.662 168.855 178.233 168.551 177.743 168.399L167.29 165.17C166.708 164.996 166.197 164.638 165.834 164.15C165.471 163.662 165.276 163.069 165.276 162.461V160.517C165.279 159.247 165.785 158.029 166.683 157.131C167.581 156.233 168.798 155.727 170.068 155.725H179.965V161.801H179.409V156.245H170.034C169.473 156.245 168.917 156.355 168.399 156.57C167.88 156.784 167.409 157.099 167.013 157.496C166.616 157.892 166.301 158.363 166.087 158.882C165.872 159.4 165.762 159.956 165.762 160.517V162.461C165.76 162.958 165.917 163.442 166.211 163.842C166.505 164.242 166.92 164.537 167.395 164.684L177.847 167.913C178.44 168.097 178.959 168.465 179.328 168.965C179.697 169.465 179.896 170.07 179.896 170.691V172.254C179.908 172.881 179.795 173.504 179.563 174.086C179.331 174.668 178.984 175.199 178.544 175.645C178.104 176.092 177.579 176.446 177 176.686C176.421 176.927 175.8 177.049 175.173 177.046Z" fill="#5D76A9"/>
<path d="M165.484 33.2154C167.246 30.0231 168.188 26.4438 168.228 22.7979C168.147 19.082 167.167 15.4411 165.371 12.1872C163.574 8.9334 161.016 6.16375 157.914 4.11577C149.511 -1.57914 136.94 -2.37782 128.016 8.28278C118.517 7.06404 108.865 8.27062 99.9581 11.79C91.0525 8.26742 81.3989 7.06073 71.9002 8.28278C62.9759 -2.37782 50.3706 -1.57914 42.0019 4.11578C38.8951 6.15827 36.3324 8.9267 34.5355 12.1817C32.7385 15.4368 31.7614 19.0805 31.6885 22.7979C31.7445 26.4415 32.686 30.0168 34.4318 33.2154C27.6952 42.9037 23.042 54.4324 23.042 66.1348C23.042 80.2332 29.0842 87.5254 31.3413 90.6507L33.147 88.845C39.5364 105.096 50.4401 113.847 63.6356 121.799C63.6356 121.799 63.9134 120.202 64.1912 118.743C78.3938 131.036 85.1652 128.015 99.9234 144.718C114.647 128.084 121.592 130.932 135.655 118.743C135.933 120.167 136.211 121.799 136.211 121.799C142.08 118.257 158.643 109.368 166.7 88.845L168.505 90.6507C169.894 88.7408 176.805 81.0318 176.805 66.1348C176.874 54.4324 172.221 42.9384 165.484 33.2154Z" fill="#707271"/>
<path d="M161.421 33.4242C174.964 12.6239 144.232 -9.00982 129.37 11.9294C119.422 10.3018 109.216 11.5549 99.9579 15.5408C90.6993 11.5549 80.4935 10.3018 70.5457 11.9294C55.6486 -9.00982 24.9516 12.6239 38.4944 33.4242C23.0765 54.6065 24.6044 75.511 31.7577 85.3382L34.7094 82.3866C34.7094 82.3866 38.9111 102.805 61.1352 116.244L61.9339 111.833C75.6155 126.453 88.1166 126.105 99.9231 139.475C111.73 126.14 124.231 126.453 137.912 111.833L138.711 116.244C160.935 102.84 165.137 82.3866 165.137 82.3866L168.088 85.3382C175.346 75.4763 176.874 54.6413 161.421 33.4242Z" fill="#12173F"/>
<path d="M100.098 111.173C100.098 111.173 89.437 111.347 87.8396 112.319C87.8396 112.319 85.9992 115.479 100.098 115.444C113.501 115.375 111.522 112.944 111.626 112.562C107.864 111.58 103.986 111.112 100.098 111.173Z" fill="#5D76A9"/>
<path d="M90.8598 98.7755C90.8598 98.7755 92.5266 93.9488 94.2976 95.4767C96.7631 97.5949 99.9578 101.901 99.9578 102.352V108.082L96.0686 108.29C92.8901 108.707 89.737 109.299 86.6233 110.061C76.6919 85.4758 82.2132 66.8979 84.8523 60.2307C75.0251 62.3489 73.4277 50.5424 73.4277 50.5424C74.9103 50.4784 76.3803 50.8399 77.6642 51.5841C80.5654 53.0788 83.3107 54.8585 85.8593 56.8971C86.5885 57.4527 87.2483 58.0083 87.8733 58.5291C94.5752 64.1546 99.9924 63.0087 99.9924 63.0087V87.0732C99.9578 87.1079 80.4423 85.58 90.8598 98.7755Z" fill="#5D76A9"/>
<path d="M109.16 98.7765C121.592 86.1713 101.312 86.9005 100.027 87.1088C102.111 87.213 117.807 87.3172 109.16 98.7765Z" fill="#5D76A9"/>
<path d="M117.39 60.6484C128.572 90.7551 114.404 110.132 114.3 110.236C123.085 87.1784 117.46 68.0449 113.605 60.9262C112.162 61.0494 110.711 61.0726 109.265 60.9957C110.985 59.9288 112.621 58.7331 114.161 57.419C114.3 57.2801 114.439 57.1759 114.612 57.0023C117.068 54.744 119.9 52.9341 122.981 51.6546C124.355 51.1215 125.79 50.76 127.252 50.5781C127.252 50.5781 126.21 60.5095 117.39 60.6484Z" fill="#5D76A9"/>
<path d="M135.1 21.6859C135.1 21.6859 139.649 10.2961 153.643 13.0394C153.643 13.0394 140.795 4.60116 131.87 19.8455C131.87 19.8455 119.057 13.838 99.9578 22.1026C99.9578 22.1026 82.005 15.7826 68.358 19.3593C68.358 19.3593 60.406 5.53873 49.1898 11.2336C37.9736 16.9285 43.8421 30.0546 45.7867 33.4924C45.7867 33.4924 27.2088 52.4176 34.1885 75.7876L37.9388 71.1344C37.9388 71.1344 43.2865 96.6226 57.0376 104.644L57.8711 98.3936C57.8711 98.3936 72.2473 115.721 89.1237 123.083C90.721 123.847 99.6801 128.292 99.9579 130.48V118.361C99.9579 118.361 88.2555 119.333 85.1303 113.916C83.0121 110.235 69.5387 86.2051 76.2059 61.0294C76.2059 61.0294 69.7123 60.0571 68.497 49.1187C65.091 47.6247 61.3728 46.9811 57.6627 47.2436C57.6627 47.2436 68.3928 43.8752 78.4631 47.7644C88.5333 51.6537 91.2419 61.585 98.048 57.2097L99.9232 29.256L101.972 57.2097C108.778 61.585 111.487 51.6884 121.557 47.7644C131.627 43.8752 142.392 47.2436 142.392 47.2436C138.964 45.0809 135.159 43.5846 131.176 42.8335C125.411 41.6876 116.938 45.3684 116.938 45.3684C116.938 45.3684 118.119 37.4511 121.974 33.2146C125.307 29.5685 132.808 28.7698 135.1 21.6859ZM48.2175 31.3047C47.8008 27.485 52.6276 23.7347 52.6276 23.7347C50.6483 21.6859 47.1757 23.4569 47.1757 23.4569C50.301 17.3105 57.3502 20.3316 57.3502 20.3316C54.6764 17.0675 49.0509 17.2758 49.0509 17.2758C56.0307 10.3308 64.4688 20.922 64.4688 20.922C56.9682 22.6235 48.2175 31.3047 48.2175 31.3047Z" fill="#5D76A9"/>
<path d="M85.8596 56.9321C84.7831 56.5848 83.0121 57.696 82.0051 59.6406C78.6714 58.6683 77.5255 55.0569 77.6644 51.6191C80.5657 53.1138 83.3109 54.8935 85.8596 56.9321Z" fill="#FFBB22"/>
<path d="M118.64 59.6411C117.599 57.5923 115.689 56.4811 114.612 57.002C117.068 54.7437 119.9 52.9337 122.981 51.6543C123.12 55.0921 121.974 58.7035 118.64 59.6411Z" fill="#FFBB22"/>
</g>
<defs>
<clipPath id="clip0_18_278">
<rect width="165.812" height="200" fill="white" transform="translate(17)"/>
</clipPath>
</defs>
</svg>
