<svg width="200" height="200" viewBox="0 0 200 200" fill="none" xmlns="http://www.w3.org/2000/svg">
<g clip-path="url(#clip0_18_254)">
<path d="M66.5107 174.545L71.4547 154.477H63.3014L58.3574 174.545H66.5107Z" fill="black"/>
<path d="M84.2919 159.342L84.8124 167.595H80.5623L84.8124 174.545H92.2717L91.1442 154.477H78.9143C78.9143 154.477 68.8528 174.545 68.9395 174.545H76.7458L84.2919 159.342Z" fill="black"/>
<path d="M65.4701 193.136L63.7354 199.999H71.3682L76.3122 179.844H68.6794L66.8579 187.663H61.1333L62.9548 179.844H55.3219L50.3779 199.999H58.0108L59.6588 193.136H65.4701Z" fill="black"/>
<path d="M83.6849 195.395L84.2053 192.701H93.6596L94.8739 188.271H85.4196L86.0268 185.317H95.4811L96.9556 179.844H79.7817L74.751 199.999H91.9249L93.1392 195.395H83.6849Z" fill="black"/>
<path d="M132.778 174.545L137.722 154.477H129.569L124.625 174.545H132.778Z" fill="black"/>
<path d="M146.223 170.025C147.35 171.502 148.564 174.456 143.534 176.715C137.636 179.408 143.534 186.184 135.554 186.184H132.258L128.875 199.998H120.722L124.018 186.184H118.467L120.202 179.842H134.426C142.753 179.842 136.855 174.022 141.192 173.24C144.141 172.719 145.962 172.197 146.223 170.025Z" fill="black"/>
<path d="M44.3065 164.815L43.0055 154.477H32.944L28 174.545H35.4594L38.1482 164.033H38.2349L39.7095 174.545H44.0463L50.1179 164.033H50.2046L47.776 174.545H54.8017L59.7457 154.477H50.1179L44.3065 164.815Z" fill="black"/>
<path d="M110.66 164.815L109.359 154.477H99.2975L94.3535 174.545H101.813L104.502 164.033H104.588L106.063 174.545H110.4L116.471 164.033H116.558L114.13 174.545H121.155L126.186 154.477H116.471L110.747 164.815H110.66Z" fill="black"/>
<path d="M109.445 184.796L109.966 193.049H105.716L109.966 199.999H117.425L116.297 179.844H104.068C104.068 179.844 94.0061 199.999 94.0928 199.999H101.899L109.445 184.796Z" fill="black"/>
<path d="M46.5615 56.7403C46.9951 51.7884 64.6895 45.2727 93.4861 44.2301C89.8717 46.9378 87.4714 50.9657 86.8074 55.4372L86.5471 57.5222C86.3829 58.8785 86.0925 60.2164 85.6798 61.5186C84.5522 64.3855 81.4297 66.818 78.1337 68.5555C66.5977 67.1655 56.8831 64.6461 51.2453 61.6054C48.1227 60.0416 46.388 58.2172 46.5615 56.7403ZM156.717 55.2634C157.845 56.4798 157.758 57.2616 157.758 57.5223C157.671 58.9123 155.937 60.6498 152.988 62.1267C146.829 65.3412 136.247 67.7737 123.757 69.0769C124.345 68.7228 124.953 68.4037 125.579 68.1212L125.752 68.0343C129.395 66.5574 133.472 64.9068 133.645 58.9123C133.732 57.9567 133.732 55.0897 134.252 54.0472C134.946 52.6572 136.681 50.659 138.156 50.0509L135.64 49.6165H135.293C136.062 49.0457 136.686 48.3017 137.115 47.4446C147.35 49.6165 154.202 52.4834 156.717 55.2634ZM169.207 47.7921C163.916 41.7976 151.947 37.0194 136.681 34.1525C136.681 32.415 137.809 31.6331 139.717 30.2431C140.837 29.4698 141.909 28.6284 142.926 27.7236C147.87 22.9454 142.059 15.8216 141.885 15.4741L138.676 11.5646L139.457 16.6035C139.977 19.9916 138.763 21.2079 134.946 23.8142C134.523 24.14 134.118 24.488 133.732 24.8567C134.008 22.1821 133.832 19.4801 133.212 16.8641C132.518 13.7365 130.956 12.4334 130.956 12.4334L130.523 17.0378C130.523 17.1247 130.176 20.6867 125.405 25.0305C125.808 24.5595 126.185 24.0665 126.533 23.5536C128.875 20.0785 128.181 16.256 127.4 11.7384L127.227 10.7827C126.446 6.17828 127.66 3.22452 128.441 2.70322C129.222 1.74758 130.783 0.183805 130.783 0.183805C130.783 0.183805 130.002 -0.163701 127.66 0.0969283C124.711 0.531311 119.681 2.35572 119.767 6.43887C119.935 8.13891 120.344 9.80631 120.982 11.3908C121.502 13.0415 122.023 14.6053 121.502 15.3003C121.155 15.9084 120.114 16.4297 118.38 16.7772C111.267 18.0803 105.889 21.2948 103.201 25.9861C102.275 27.541 101.629 29.2465 101.292 31.0249C83.8583 31.1118 67.2916 33.2837 54.5413 37.1931C40.1429 41.6238 32.2499 47.7052 31.6427 54.7422C31.2958 58.4779 33.0305 63.7773 42.2246 68.903H42.1379L44.74 70.2062L46.1278 70.8143C50.9026 72.9138 55.87 74.5432 60.9598 75.6794C59.003 76.7815 57.1708 78.0923 55.4954 79.5889C50.7276 83.5202 46.9707 88.5395 44.5397 94.2255C42.1087 99.9116 41.0745 106.099 41.524 112.268C41.9734 118.437 43.8934 124.408 47.1227 129.68C50.3521 134.953 54.7967 139.373 60.0837 142.569C65.3707 145.765 71.346 147.645 77.5082 148.051C83.6705 148.457 89.84 147.376 95.4993 144.901C101.159 142.425 106.142 138.626 110.033 133.822C113.924 129.018 116.607 123.35 117.859 117.293C120.982 107.997 120.635 98.0067 120.461 94.1841C120.114 85.5834 124.364 80.8051 127.053 78.7201C139.196 77.1563 150.039 74.4631 158.018 70.9012L159.319 70.2931L162.095 68.9899L162.008 68.903C168.513 65.2542 172.156 61.0842 172.503 56.5666C172.85 53.439 171.723 50.4853 169.207 47.7921Z" fill="black"/>
<path d="M42.918 112.168C44.0956 118.317 47.5697 123.785 52.6325 127.458C54.3681 128.696 56.2651 129.69 58.2704 130.412C57.0561 128.327 55.5816 126.155 54.107 123.983C51.3315 119.9 48.4691 115.643 46.6477 111.126C44.7899 106.529 44.2492 101.505 45.0864 96.6172C43.5809 100.736 42.8173 105.089 42.8312 109.475C42.8312 110.43 42.918 111.299 42.918 112.168Z" fill="#98002E"/>
<path d="M49.163 110.17C50.8977 114.427 53.6733 118.51 56.3621 122.419C58.397 125.361 60.2788 128.405 62 131.541C63.7199 131.893 65.457 132.154 67.2042 132.323C65.2548 129.485 63.6531 126.422 62.4337 123.201C57.056 109.822 57.7499 93.3156 64.4286 83.7591C67.7635 79.0823 72.1644 75.27 77.2657 72.639C81.776 70.2064 84.6383 69.4245 87.5874 67.687C90.7099 65.8626 92.3579 62.735 90.2762 55.6981C89.8002 54.0935 89.6238 52.4148 89.7558 50.7461C88.9278 52.2521 88.3977 53.904 88.1945 55.6112C87.9449 57.7874 87.5096 59.9382 86.8935 62.04C84.1179 69.3377 70.6737 73.334 68.939 73.9421C64.355 75.2742 60.1004 77.5529 56.4489 80.6316C52.3894 84.2359 49.519 88.9904 48.2179 94.2653C46.9168 99.5402 47.2464 105.086 49.163 110.17Z" fill="#98002E"/>
<path d="M105.369 44.2338C105.455 44.6682 105.542 45.1026 105.629 45.5369C105.976 48.1432 105.195 50.2282 102.159 50.6626C98.9501 51.1839 97.8225 48.4038 97.5623 46.145C97.5623 45.2763 97.649 44.6681 97.649 44.2338H96.0878C94.729 45.0283 93.4758 45.9915 92.3581 47.1007C91.7509 48.4907 90.9703 50.402 92.1846 54.8327C94.2663 62.7385 93.3122 67.5167 87.0671 70.2098C79.0006 73.6849 73.7964 75.7699 66.9442 84.4576C63.6482 88.5408 61.8267 95.4909 61.5665 102.354C61.3748 109.124 62.5551 115.862 65.036 122.162C66.4726 125.805 68.3672 129.25 70.6739 132.413C72.8617 132.295 75.0368 132.004 77.1791 131.545C74.7593 128.721 73.3276 125.182 73.1025 121.467C72.3219 108.609 79.1741 103.223 89.756 94.7959L94.5265 90.7996C113.435 74.7274 107.884 58.3946 109.966 44.4075C108.438 44.2629 106.903 44.2049 105.369 44.2338Z" fill="#98002E"/>
<path d="M112.916 44.4922C112.388 47.3634 112.04 50.265 111.875 53.1798C111.094 65.3425 111.528 79.1558 96.0886 92.7955L91.4916 96.5312C81.1699 104.784 75.2718 109.997 75.7055 121.204C75.7478 122.987 76.1456 124.743 76.8755 126.369C77.6054 127.995 78.6526 129.459 79.9556 130.674C82.9105 129.801 85.7609 128.607 88.4558 127.112C101.813 119.467 110.227 108.086 113.436 93.4905C115.431 84.2816 115.431 76.8102 115.344 70.7289C115.344 67.6883 115.778 61.7807 115.778 61.7807C116.212 58.045 116.732 52.6586 121.156 45.7954C121.329 45.5348 121.416 45.361 121.589 45.1004C118.9 44.8397 115.951 44.6659 112.916 44.4922Z" fill="#98002E"/>
<path d="M117.425 83.5881C116.992 85.8469 116.905 88.2794 116.645 90.7119C116.471 91.5807 116.298 92.5363 116.211 93.4051C116.195 93.6733 116.136 93.9372 116.038 94.187C112.742 109.564 103.981 121.466 89.843 129.459C87.5185 130.801 85.0805 131.934 82.5571 132.847C86.7205 135.54 91.491 136.409 94.787 135.888C107.451 134.063 113.609 125.81 116.558 116.949C119.594 107.913 119.247 98.2702 119.073 94.2739C118.64 80.8949 128.875 75.9429 128.875 75.9429C120.982 75.5085 118.293 78.9836 117.425 83.5881Z" fill="#98002E"/>
<path d="M109.012 132.845C105.243 135.946 100.669 137.905 95.8275 138.492C92.9927 138.884 90.1077 138.693 87.3488 137.932C84.5899 137.17 82.015 135.853 79.7812 134.061C79.6078 133.974 79.6078 133.887 79.4343 133.8C77.2711 134.373 75.0673 134.78 72.8423 135.017C77.873 140.49 84.6385 143.617 93.5724 144.139H93.6591C99.7473 141.785 105.104 137.859 109.185 132.758C109.098 132.758 109.098 132.845 109.012 132.845Z" fill="#98002E"/>
<path d="M62.0007 142.052C62.0018 139.153 61.3182 136.295 60.0057 133.711C56.8312 132.797 53.7962 131.452 50.9851 129.715C49.3682 128.55 47.8847 127.21 46.5615 125.719C49.8915 132.636 55.2872 138.343 62.0007 142.052Z" fill="#98002E"/>
<path d="M87.7611 145.873C83.0313 144.937 78.5618 142.981 74.6638 140.139C72.7162 138.665 70.9413 136.974 69.3728 135.1C67.333 135.118 65.2973 134.914 63.3013 134.492C64.4688 137.321 64.9159 140.396 64.6023 143.44C69.4468 145.655 74.7163 146.782 80.0415 146.742C82.6345 146.744 85.221 146.482 87.7611 145.96C87.8478 145.873 87.7611 145.873 87.7611 145.873Z" fill="#98002E"/>
<path d="M131.042 54.3087C130.175 57.1756 127.313 56.8281 126.445 55.2643C125.144 52.8318 125.665 50.9205 127.052 49.6173C128.353 48.3142 130.609 47.6192 132.777 46.5767H132.864C130.348 46.1423 127.66 45.7948 124.884 45.4473C124.797 45.5341 124.797 45.5341 124.71 45.5341C124.501 45.8403 124.269 46.1307 124.017 46.4029C120.807 51.0264 118.89 56.4255 118.465 62.0407L118.379 63.2569C118.101 65.7661 118.014 68.2928 118.118 70.8152V72.0315C118.032 73.074 118.032 74.1165 118.032 75.0721C118.118 74.6378 118.118 74.5509 118.118 74.7246C119.333 70.6414 121.675 68.2089 124.971 66.8189C128.614 65.4289 132.083 64.1257 132.257 58.9131C132.343 56.7412 132.517 54.5693 132.95 53.5268C133.454 52.3866 134.345 51.4629 135.466 50.9205C133.731 50.8336 131.823 51.5286 131.042 54.3087Z" fill="#98002E"/>
<path d="M135.293 33.803C135.553 30.328 138.849 29.7198 142.058 26.766C146.135 22.8566 140.757 16.4277 140.757 16.4277C141.451 20.7716 139.456 22.4222 135.813 25.0285C135.228 25.4023 134.732 25.8988 134.357 26.4838C133.983 27.0688 133.74 27.7283 133.645 28.4167C133.596 30.1357 133.422 31.8488 133.125 33.5424C133.852 33.5864 134.576 33.6734 135.293 33.803Z" fill="#F9A01B"/>
<path d="M135.293 33.803C135.553 30.328 138.849 29.7198 142.058 26.766C146.135 22.8566 140.757 16.4277 140.757 16.4277C141.451 20.7716 139.456 22.4222 135.813 25.0285C135.228 25.4023 134.732 25.8988 134.357 26.4838C133.983 27.0688 133.74 27.7283 133.645 28.4167C133.596 30.1357 133.422 31.8488 133.125 33.5424C133.852 33.5864 134.576 33.6734 135.293 33.803Z" stroke="#F9A01B" stroke-width="0.12"/>
<path d="M124.104 27.8128C123.169 28.5183 122.271 29.2722 121.415 30.0715C120.808 30.6797 120.201 31.2009 119.68 31.8091C123.236 32.0697 126.706 32.5041 130.089 32.9385C132.17 29.029 133.211 24.6852 131.91 17.127C131.91 17.127 131.65 22.2527 124.104 27.8128Z" fill="#F9A01B"/>
<path d="M124.104 27.8128C123.169 28.5183 122.271 29.2722 121.415 30.0715C120.808 30.6797 120.201 31.2009 119.68 31.8091C123.236 32.0697 126.706 32.5041 130.089 32.9385C132.17 29.029 133.211 24.6852 131.91 17.127C131.91 17.127 131.65 22.2527 124.104 27.8128Z" stroke="#F9A01B" stroke-width="0.12"/>
<path d="M104.154 31.0224C108.231 31.1093 112.221 31.1961 116.211 31.5436C116.304 31.3825 116.421 31.2362 116.558 31.1093C119.16 28.3292 123.236 25.8967 125.405 22.7691C127.573 19.6416 126.706 15.7321 125.839 11.0408C124.451 2.96127 127.92 1.48438 127.92 1.48438C127.92 1.48438 121.068 2.44002 121.242 6.34946C121.415 11.6489 126.879 16.6009 118.639 18.1647C109.619 19.8153 103.981 24.6804 102.767 31.1093C103.226 31.0397 103.69 31.0106 104.154 31.0224Z" fill="#F9A01B"/>
<path d="M104.154 31.0224C108.231 31.1093 112.221 31.1961 116.211 31.5436C116.304 31.3825 116.421 31.2362 116.558 31.1093C119.16 28.3292 123.236 25.8967 125.405 22.7691C127.573 19.6416 126.706 15.7321 125.839 11.0408C124.451 2.96127 127.92 1.48438 127.92 1.48438C127.92 1.48438 121.068 2.44002 121.242 6.34946C121.415 11.6489 126.879 16.6009 118.639 18.1647C109.619 19.8153 103.981 24.6804 102.767 31.1093C103.226 31.0397 103.69 31.0106 104.154 31.0224Z" stroke="#F9A01B" stroke-width="0.12"/>
<path d="M104.155 33.1086C66.3377 32.7611 34.8522 42.4913 33.8114 54.9146C33.3777 59.8666 37.8013 64.471 45.6943 68.2936C51.5493 70.9571 57.6899 72.9393 63.9958 74.2012C65.4703 73.5931 66.8581 73.0718 68.5061 72.5505C70.5778 71.9333 72.6061 71.1788 74.5777 70.2918C63.9958 68.8149 55.4956 66.3823 50.2047 63.5154C46.3015 61.4304 44.2198 59.0847 44.48 56.5653C45.1739 48.2251 71.6287 41.7963 103.461 42.0569C135.38 42.4044 160.621 49.4414 159.84 57.6947C159.667 60.0403 157.498 62.1254 153.942 64.0367C147.263 67.5986 135.554 70.2049 121.242 71.508C120.753 72.2272 120.318 72.9822 119.941 73.7668C126.446 71.3342 133.992 74.9831 133.992 74.9831C134.291 75.1072 134.581 75.2524 134.86 75.4175C144.314 73.6799 152.467 71.2474 158.539 68.3805C165.738 64.9923 170.162 60.7353 170.509 56.3046C171.55 43.8813 141.886 33.543 104.155 33.1086Z" fill="white"/>
</g>
<defs>
<clipPath id="clip0_18_254">
<rect width="200" height="200" fill="white"/>
</clipPath>
</defs>
</svg>
