<svg width="200" height="200" viewBox="0 0 200 200" fill="none" xmlns="http://www.w3.org/2000/svg">
<path d="M99.706 200C55.2045 200 19 163.785 19 119.268C19 97.5087 27.5625 77.0889 43.11 61.772C43.2339 61.6508 43.3686 61.5446 43.5102 61.4534C38.1475 53.3715 35.1464 43.9186 37.4289 32.4683C41.6278 11.38 58.667 5.02176 59.3898 4.7617C59.6674 4.66232 59.9532 4.61467 60.2336 4.61467C61.1306 4.61467 61.9867 5.1021 62.4318 5.93126C62.7108 6.45407 62.7856 7.03815 62.6795 7.58411C68.2558 2.89508 73.5626 0.839203 75.7975 0.121704C76.0493 0.0400085 76.3051 0.00326538 76.5583 0.00326538C77.5124 0.00326538 78.4121 0.553299 78.8258 1.46278C79.3499 2.61189 78.9293 3.9734 77.8472 4.62692C72.7691 7.69847 68.3415 11.862 64.9919 16.6585C69.0057 15.73 71.7061 15.6333 72.652 15.6333C72.9841 15.6333 73.1556 15.6442 73.1556 15.6442C74.3847 15.7191 75.3823 16.6844 75.4899 17.9111C75.6001 19.1392 74.8025 20.2624 73.6075 20.5538C73.5422 20.5688 66.8756 22.257 59.5136 27.5397C58.1253 31.7821 57.4217 36.2056 57.4217 40.7027C57.4217 49.2407 60.1533 58.0047 64.9171 64.7482C66.0154 66.3031 67.1016 67.6686 68.2381 68.9131C67.8189 60.1109 70.4063 46.5013 86.1988 40.1635C86.5009 40.041 86.8153 39.9838 87.1243 39.9838C88.0416 39.9838 88.9195 40.493 89.3524 41.3589C89.9349 42.5189 89.5293 43.9294 88.4227 44.6048L88.3043 44.6756C85.9157 46.2304 83.8972 48.2305 82.3442 50.5491C84.002 50.0521 85.4325 49.8819 86.4029 49.7676L86.5908 49.7444C86.6915 49.7322 86.7908 49.7267 86.8888 49.7267C87.9328 49.7267 88.8787 50.3816 89.2353 51.3851C89.6259 52.4824 89.2026 53.7037 88.2172 54.3259C88.2172 54.3259 88.0689 54.4212 88.0321 54.4416C82.9744 57.3593 80.161 60.7536 79.6711 64.5317C79.1389 68.6244 81.3806 72.4883 83.0152 74.694C87.2495 69.7599 90.0057 61.3907 90.7788 58.2266C91.0523 57.1006 92.0622 56.3259 93.1974 56.3259C93.2927 56.3259 93.3893 56.3314 93.4886 56.3436C94.7381 56.4893 95.6827 57.5445 95.6895 58.8025C95.7521 69.1418 92.9878 76.2175 90.1404 80.7513C94.3815 82.8807 98.5219 83.0046 99.4216 83.0046C99.5223 83.0046 99.6679 83.0005 99.6992 83.0005C99.7332 83.0005 99.77 83.0019 99.8067 83.0033C99.8067 83.0033 99.8884 83.0046 99.9905 83.0046C100.89 83.0046 105.031 82.8807 109.27 80.7513C106.424 76.2175 103.659 69.1418 103.723 58.8025C103.729 57.5445 104.674 56.4893 105.923 56.3436C106.021 56.3314 106.119 56.3259 106.215 56.3259C107.35 56.3259 108.358 57.1006 108.633 58.2266C109.406 61.3907 112.163 69.7613 116.397 74.694C118.031 72.4897 120.273 68.6244 119.741 64.5317C119.251 60.7536 116.436 57.3593 111.379 54.4416C111.343 54.4212 111.227 54.3477 111.227 54.3477C110.243 53.7255 109.804 52.4933 110.193 51.3959C110.551 50.3911 111.486 49.7267 112.527 49.7267C112.625 49.7267 112.722 49.7322 112.823 49.7444L113.009 49.7676C113.98 49.8819 115.409 50.0521 117.068 50.5491C115.515 48.2305 113.498 46.2304 111.108 44.6756L110.989 44.6048C109.883 43.9294 109.479 42.5189 110.06 41.3589C110.493 40.493 111.369 39.9838 112.286 39.9838C112.597 39.9838 112.911 40.041 113.213 40.1635C129.006 46.5013 131.593 60.1109 131.174 68.9131C132.312 67.67 133.395 66.3031 134.495 64.7482C139.259 58.0047 141.99 49.2407 141.99 40.7027C141.99 36.2056 141.287 31.7821 139.898 27.5397C132.487 22.2203 125.873 20.5701 125.805 20.5538C124.608 20.2624 123.812 19.1392 123.921 17.9111C124.03 16.6844 125.027 15.7191 126.258 15.6442C126.258 15.6442 126.427 15.6333 126.759 15.6333C127.706 15.6333 130.405 15.73 134.42 16.6585C131.071 11.862 126.643 7.69847 121.565 4.62692C120.483 3.9734 120.062 2.61189 120.586 1.46278C121 0.553299 121.9 0.00326538 122.854 0.00326538C123.106 0.00326538 123.361 0.0400085 123.615 0.121704C125.851 0.839203 131.156 2.89508 136.733 7.58411C136.626 7.03815 136.701 6.45407 136.98 5.93126C137.424 5.1021 138.281 4.61467 139.178 4.61467C139.459 4.61467 139.743 4.66232 140.021 4.7617C140.744 5.02176 157.783 11.38 161.983 32.4683C164.266 43.9186 161.264 53.3715 155.901 61.4534C156.043 61.5446 156.177 61.6508 156.301 61.772C171.85 77.0889 180.412 97.5087 180.412 119.268C180.412 163.785 144.208 200 99.706 200Z" fill="#EEE1C6"/>
<path d="M51.3726 57.9068C51.3726 57.9068 47.8107 41.7634 50.458 32.2111C49.753 32.9722 49.037 33.7564 48.3756 34.6128C41.9241 42.9643 51.3726 57.9068 51.3726 57.9068ZM148.039 57.9068C148.039 57.9068 157.487 42.9643 151.036 34.6128C150.374 33.7564 149.658 32.9722 148.953 32.2111C151.6 41.7634 148.039 57.9068 148.039 57.9068ZM39.8702 32.9545C43.8446 13.003 60.2346 7.105 60.2346 7.105C54.2336 11.5394 48.1074 19.8773 45.5772 31.5862C48.0407 28.5269 50.326 26.2314 53.01 24.4015C59.6547 10.084 70.9938 4.2758 76.5579 2.49223C69.3401 6.85585 63.3051 13.3502 59.6384 20.8317C67.9818 17.8513 73.0177 18.1291 73.0177 18.1291C73.0177 18.1291 65.5577 19.944 57.4063 25.9904C55.8056 30.5991 54.9305 35.5468 54.9305 40.7001C54.9305 49.765 57.85 59.0586 62.8818 66.1834C65.7129 70.1916 68.4473 72.9637 71.8513 75.4865C70.7257 72.6546 66.441 50.7752 87.1252 42.4728L86.9796 42.5627C82.0933 45.7281 78.4933 50.6595 77.0302 56.4622C80.8085 52.8447 84.7937 52.4676 86.887 52.2157C86.8557 52.2361 86.8217 52.2593 86.7877 52.2811C67.5871 63.3569 82.8542 78.362 82.8542 78.362C88.9096 73.2877 92.4388 61.9232 93.1983 58.8163C93.2705 70.8234 89.2798 78.0135 86.5658 81.5275C92.756 85.7754 99.6974 85.4895 99.7002 85.4895H99.7056H99.7124C99.7138 85.4895 106.655 85.7754 112.845 81.5275C110.131 78.0135 106.141 70.8234 106.214 58.8163C106.972 61.9232 110.502 73.2877 116.557 78.362C116.557 78.362 131.824 63.3569 112.624 52.2811C112.589 52.2593 112.557 52.2361 112.526 52.2157C114.619 52.4676 118.604 52.8447 122.381 56.4622C120.918 50.6595 117.318 45.7281 112.432 42.5627L112.286 42.4728C132.97 50.7752 128.686 72.6546 127.56 75.4865C130.964 72.9637 133.698 70.1916 136.529 66.1834C141.561 59.0586 144.481 49.765 144.481 40.7001C144.481 35.5468 143.607 30.5991 142.005 25.9904C133.853 19.944 126.393 18.1291 126.393 18.1291C126.393 18.1291 131.429 17.8513 139.774 20.8317C136.106 13.3502 130.07 6.85585 122.853 2.49223C128.417 4.2758 139.756 10.084 146.401 24.4015C149.087 26.2314 151.37 28.5269 153.834 31.5862C151.304 19.8773 145.178 11.5394 139.178 7.105C139.178 7.105 155.567 13.003 159.541 32.9545C164.166 56.175 145.627 70.675 130.677 83.0973L142.091 78.441C142.862 78.1129 143.399 78.8576 143.257 79.748L142.922 82.5677C142.739 84.1185 141.599 91.9757 137.287 94.357C136.354 94.873 134.748 95.4611 130.015 95.8124L121.447 96.3625L122.87 101.182L114.46 114.658L118.767 110.118L127.56 141.402L103.434 161.257L110.962 127.098L99.7056 140.795L88.4496 127.098L95.9776 161.257L71.8513 141.402L80.6438 110.118L84.9516 114.658L76.5415 101.182L77.9639 96.3625L69.3973 95.8124C64.6635 95.4611 63.0574 94.873 62.1251 94.357C57.8132 91.9757 56.674 84.1185 56.4889 82.5677L56.1541 79.748C56.0125 78.8576 56.5474 78.1129 57.3205 78.441L68.7344 83.0973C53.7845 70.675 35.2453 56.175 39.8702 32.9545ZM50.5329 69.3734C37.864 82.049 29.7235 99.9705 29.7235 119.266C29.7235 123.725 30.1481 128.086 30.9484 132.316L52.0518 126.615C55.5389 149.629 75.4486 167.323 99.413 167.323C123.467 167.323 143.434 149.494 146.811 126.356L168.463 132.313C169.263 128.086 169.688 123.725 169.688 119.266C169.688 99.9705 161.678 82.29 149.009 69.6144L150.861 67.6116C164.223 80.81 172.432 99.0433 172.432 119.266C172.432 159.381 139.807 192.016 99.7056 192.016C59.6058 192.016 26.9809 159.381 26.9809 119.266C26.9809 99.0433 35.2739 80.7242 48.6355 67.5258L50.5329 69.3734ZM154.553 63.5461L152.812 65.636C166.619 79.3178 175.177 98.2904 175.177 119.266C175.177 160.96 141.387 194.761 99.7056 194.761C58.0242 194.761 24.2356 160.96 24.2356 119.266C24.2356 98.2904 32.7913 79.3151 46.598 65.6347L44.8586 63.5461C30.4448 77.7466 21.4917 97.4789 21.4917 119.266C21.4917 162.408 56.5774 197.506 99.7056 197.506C142.834 197.506 177.921 162.408 177.921 119.266C177.921 97.4789 168.968 77.7466 154.553 63.5461Z" fill="#00471B"/>
<path d="M94.1019 170.872L89.7084 176.97L91.6752 187.677L88.9571 187.199L87.4803 179.424L86.1996 186.715L83.604 186.259L86.5385 169.543L89.134 169.999L88.3201 174.638L91.3648 170.392L94.1019 170.872ZM129.152 178.409L126.904 174.232L129.819 172.675L132.065 176.852L129.152 178.409ZM123.715 168.307L126.629 166.737L128.553 170.319L125.642 171.886L123.715 168.307ZM130.771 171.095L131.051 169.433L128.477 164.676L126.037 163.987L120.184 167.146L128.212 181.982L134.066 178.823L134.795 176.354L132.303 171.746L130.771 171.095ZM104.201 185.233L104.245 187.926L96.0932 188.062L95.8142 171.178L103.966 171.044L104.011 173.738L98.4723 173.829L98.539 177.902L104.077 177.81L104.122 180.483L98.5839 180.574L98.6629 185.325L104.201 185.233ZM116.592 183.278L117.112 185.922L109.112 187.495L105.859 170.924L113.859 169.353L114.378 171.997L108.944 173.064L109.727 177.06L115.162 175.993L115.678 178.615L110.243 179.684L111.159 184.346L116.592 183.278ZM135.87 156.446L146.744 169.361L145.342 170.541L141.643 173.661L140.131 174.934L129.335 161.952L131.35 160.252L140.49 171.109L143.009 168.985L133.871 158.13L135.87 156.446ZM166.477 135.632L164.03 143.8L162.222 143.258L159.5 142.443L160.25 139.937L162.2 140.522L163.146 137.364L158.637 136.014L156.899 141.664L155.087 141.121L147.859 138.953L148.396 137.159L150.307 130.785L152.141 131.335L154.817 132.137L154.065 134.644L152.135 134.065L151.191 137.221L155.09 138.391L156.808 132.734L158.615 133.276L164.669 135.09L166.477 135.632ZM151.527 146.081L162.313 147.509L161.022 149.949L153.171 148.956L159.711 152.422L158.476 154.752L143.486 146.806L144.72 144.477L148.881 146.682L145.78 142.475L147.083 140.018L151.527 146.081ZM154.308 157.69L155.783 158.868L151.634 164.067L150.467 165.532L138.78 156.203L137.27 155.001L142.587 148.337L144.095 149.539L146.616 151.551L144.986 153.595L143.079 152.074L141.023 154.65L149.992 161.809L152.047 159.233L150.124 157.697L151.754 155.653L154.308 157.69ZM84.731 169.106L78.6701 184.867L76.9593 184.208L72.4432 182.472L70.5976 181.761L76.7551 166.039L79.2159 166.985L74.1228 180.23L77.1961 181.413L82.2906 168.167L84.731 169.106ZM45.2504 156.677L48.487 161.199L46.2807 162.779L41.5088 156.115L55.3019 146.234L56.8358 148.377L45.2504 156.677ZM51.7631 139.417L35.7175 144.933L34.8614 142.439L44.9292 138.98L40.2825 138.833L43.8594 135.862L33.7916 139.322L32.9341 136.829L48.9797 131.315L49.8359 133.808L46.2603 136.779L50.907 136.924L51.7631 139.417ZM54.1341 143.958L39.0861 151.799L37.8693 149.461L52.9146 141.62L54.1341 143.958ZM66.9118 159.697L53.9381 170.731L52.1497 168.966L55.2774 164.243L50.6117 167.447L48.8232 165.681L59.69 152.563L61.4322 154.284L57.0427 159.817L63.0001 155.833L63.6017 156.425L59.6954 162.436L65.1547 157.96L66.9118 159.697ZM69.4707 169.586L66.6941 167.811L68.9194 164.326L71.7083 166.082L69.4707 169.586ZM74.836 166.042L75.3151 165.29L75.3614 165.219L68.1654 160.647L68.13 160.702L59.0449 174.932L61.2498 176.34L65.2432 170.082L68.0198 171.857L64.025 178.114L66.2299 179.522L73.9105 167.49L74.836 166.042Z" fill="white"/>
<path d="M91.8726 95.8309C90.6476 95.2686 88.3419 94.2108 86.0445 93.1556C85.5858 92.9446 85.0563 93.2305 84.9747 93.7301C84.8113 94.7227 84.8358 96.2789 86.1942 97.3272C88.7543 99.3069 90.9253 98.204 92.0903 97.0617C92.4714 96.6887 92.3557 96.0529 91.8726 95.8309Z" fill="white"/>
<path d="M60.2339 82.5179C60.2339 82.5179 61.0682 89.5228 64.0054 91.1457C65.9885 92.2417 70.8339 92.1369 75.0668 92.4609C70.3793 90.6433 63.476 85.682 60.2352 82.5179H60.2339Z" fill="white"/>
<path d="M94.8149 124.405L97.1641 127.594H102.248L104.597 124.405H94.8149Z" fill="white"/>
<path d="M139.177 82.5179C135.936 85.682 129.033 90.6433 124.347 92.4609C128.578 92.1355 133.424 92.2417 135.408 91.1471C138.345 89.5228 139.178 82.5179 139.178 82.5179H139.177Z" fill="white"/>
<path d="M104.576 105.91L102.318 98.5086L99.7052 99.7775L97.0933 98.5086L94.8366 105.91C94.8366 105.91 94.0867 108.848 90.8459 110.919L89.4658 117.002L92.8603 121.582H96.4631L93.1271 116.677L93.6525 113.644C95.1673 115.261 97.3178 116.274 99.7052 116.28C102.095 116.274 104.244 115.261 105.761 113.644L106.286 116.677L102.949 121.582H106.553L109.946 117.002L108.567 110.919C105.326 108.848 104.576 105.91 104.576 105.91Z" fill="white"/>
<path d="M113.368 93.1553C111.071 94.2105 108.764 95.2684 107.541 95.8307C107.056 96.0526 106.942 96.6898 107.322 97.0615C108.487 98.2038 110.658 99.3066 113.218 97.3283C114.576 96.2786 114.601 94.7224 114.437 93.7285C114.356 93.2302 113.828 92.9443 113.368 93.1553Z" fill="white"/>
</svg>
