<svg width="200" height="200" viewBox="0 0 200 200" fill="none" xmlns="http://www.w3.org/2000/svg">
<g clip-path="url(#clip0_18_279)">
<path d="M99.972 200C155.185 200 199.944 155.228 199.944 100C199.944 44.7715 155.185 0 99.972 0C44.759 0 0 44.7715 0 100C0 155.228 44.759 200 99.972 200Z" fill="#9EA2A2"/>
<path d="M100.477 196.327C153.743 196.327 196.924 153.138 196.924 99.8608C196.924 46.584 153.743 3.39453 100.477 3.39453C47.2104 3.39453 4.0293 46.584 4.0293 99.8608C4.0293 153.138 47.2104 196.327 100.477 196.327Z" fill="#0C2340"/>
<path d="M100.72 36.0752C95.8251 36.0465 90.9948 36.5855 86.3132 37.644C85.8823 39.0362 85.2983 41.7503 86.2767 44.2186C86.8664 45.7061 88.0097 46.9122 89.6202 47.8499C94.0379 46.0512 98.834 44.2122 103.461 42.6644C109.303 40.5317 114.494 39.3575 118.527 38.7352C118.419 38.7051 118.317 38.666 118.209 38.6358C115.339 37.8008 112.461 37.176 109.584 36.7515C106.617 36.3153 103.657 36.0925 100.72 36.0752ZM81.8596 38.8229C72.7277 41.5925 64.2995 46.3719 57.2396 52.809C57.5484 52.809 57.8953 52.8192 58.2211 52.8265C64.2721 52.4681 72.8841 52.7154 77.8061 52.9141C79.8833 51.9805 82.4114 50.8695 85.2162 49.6801C83.9951 48.5461 83.0662 47.2197 82.4642 45.6866C81.5111 43.2534 81.5484 40.782 81.8596 38.8229ZM127.293 42.0408L127.29 42.1152C127.114 42.1106 113.681 41.8027 97.0535 49.8657C96.7606 50.0357 96.4734 50.2192 96.1903 50.412C101.399 51.9369 105.701 52.2488 108.792 52.4598C109.519 52.5103 110.166 52.5544 110.727 52.6074L111.189 52.6468C113.196 52.8171 116.004 53.1363 119.31 53.7277C121.769 50.7152 124.739 48.8386 126.738 48.3947C129.096 49.2777 130.3 50.6549 131.158 52.619C134.425 53.9891 136.612 56.4006 138.052 59.2827C145.611 62.5745 153.21 67.4477 159.018 74.6655C152.932 60.5924 141.847 48.7829 127.293 42.0408ZM92.6551 53.5365C91.2801 55.0566 90.149 56.6616 89.2985 58.0106C91.0247 59.8069 94.3229 63.2592 95.9577 65.0978C98.7804 66.7963 101.611 68.6373 104.418 70.6046C108.888 65.5719 112.859 61.4889 116.776 57.3897C114.874 57.1184 112.903 56.8922 110.848 56.7163L110.338 56.6739C109.81 56.621 109.197 56.5816 108.513 56.5337C104.993 56.2958 99.398 55.8615 92.6551 53.5365ZM57.0994 56.9165C55.456 56.9137 54.062 56.9748 53.005 57.048C47.7067 62.8781 43.435 69.774 40.5352 77.521C47.0301 70.78 56.8005 63.6115 67.6531 65.7336C68.5109 64.2103 69.3796 62.6853 70.1698 61.3004C66.7802 59.0781 64.6632 57.4677 58.8227 56.9432C58.2226 56.9263 57.6471 56.9175 57.0994 56.9165ZM139.789 64.3178C141.728 73.005 139.527 82.8744 139.527 82.8744C139.527 82.8744 144.251 85.6085 145.398 90.8221C145.403 90.8249 146.028 91.0904 146.524 91.8577C147.844 93.4764 149.528 97.2111 146.821 104.554C146.821 104.554 145.214 101.126 141.815 104.817C141.522 105.226 141.239 105.63 140.96 106.029C147.435 114.939 152.367 124.238 154.878 133.315C157.759 128.594 160.082 123.425 161.703 117.859C163.957 110.112 164.663 102.284 164.031 94.6951C162.387 87.1167 157.033 73.1558 139.789 64.3178ZM80.432 65.8034C78.6839 66.6392 76.7677 67.6122 74.9209 68.6809C80.1213 72.0925 83.9917 77.8616 86.9364 84.6378C91.0714 83.2024 93.9258 83.1727 93.9258 83.1727C96.7029 79.6405 99.267 76.5423 101.673 73.743C98.8939 71.7993 96.0966 69.9814 93.3065 68.3107C90.246 67.2092 82.9384 66.1472 80.432 65.8034ZM63.2413 69.4391C51.8633 69.8184 41.8081 81.6911 37.7491 87.1926C34.9117 101 36.7949 114.84 42.397 126.898C45.407 124.076 48.3024 121.156 51.0575 118.247C50.8416 109.082 52.0713 100.246 54.753 91.8017C57.003 84.7227 60.0308 78.7401 63.2542 73.7537C63.7438 72.7875 64.5619 71.2737 65.5329 69.5206C64.764 69.4385 63.9998 69.4138 63.2413 69.4391ZM71.072 71.1467C70.0986 71.8521 69.2184 72.5752 68.4779 73.3027C61.0396 83.7664 55.7434 97.4309 55.2312 113.742C63.1761 104.995 69.7147 96.8897 74.1748 92.5969C77.2655 89.6268 80.389 87.5942 83.2165 86.202C80.2587 79.3812 76.3528 73.8091 71.072 71.1467ZM138.49 109.773C134.323 116.544 132.276 122.913 132.043 134.087C131.915 140.208 134.931 144.923 137.171 152.201C142.72 148.293 147.669 143.494 151.773 137.93C149.929 128.791 145.126 119.127 138.49 109.773Z" fill="#236192"/>
<path d="M126.559 51.1837C125.331 51.1483 123.752 52.248 121.818 55.7731C125.947 51.3506 129.581 54.2 129.581 54.2C129.139 53.1502 128.138 51.2291 126.559 51.1837ZM87.8696 52.0572L79.0076 56.505C79.0076 56.505 72.6647 55.9819 69.3301 55.8842C72.371 57.8458 75.0107 60.0998 75.0107 60.0998L71.0888 66.6056L79.4527 62.0571C79.4527 62.0571 84.7311 62.946 89.5378 63.9268C86.7909 60.788 83.4496 58.4668 83.4496 58.4668L87.8696 52.0572ZM91.4366 90.3361C86.6067 92.7499 79.3425 99.9902 79.3425 99.9902C82.8445 97.6075 90.1222 96.5328 90.1222 96.5328C90.2729 93.5473 91.4366 90.3361 91.4366 90.3361Z" fill="#78BE20"/>
<path d="M100.262 27.9884C64.5313 27.9884 33.9068 54.7212 29.0195 90.1657C26.9903 104.884 29.4853 119.531 36.0804 132.498C36.9056 131.811 37.7272 131.108 38.5403 130.396C32.4893 118.164 30.2237 104.411 32.1307 90.5935C36.8017 56.6914 66.0916 31.1291 100.262 31.1291C103.411 31.1291 106.602 31.3479 109.748 31.7821C127.941 34.2903 144.085 43.7527 155.204 58.4307C166.325 73.1058 171.07 91.209 168.561 109.401C165.793 129.476 154.394 146.624 138.464 157.275C138.679 158.344 138.87 159.468 139.028 160.649C156.298 149.581 168.709 131.308 171.672 109.831C174.293 90.8074 169.332 71.8787 157.704 56.5342C146.077 41.1888 129.199 31.2944 110.176 28.6732C106.889 28.2194 103.554 27.9884 100.262 27.9884ZM131.715 57.8333C131.858 58.2821 131.696 59.86 131.569 61.1023C131.569 61.1023 131.557 61.0833 131.55 61.076C128.667 61.5998 122.311 60.8812 120.25 59.7994C112.436 68.181 103.917 79.8415 97.5045 90.5529C94.725 96.2152 91.9987 102.861 91.3185 108.26C91.3185 108.26 90.4329 105.818 90.2244 102.562C86.6752 103.932 74.6163 109.858 72.0343 128.033C72.0343 128.033 79.7013 120.125 88.1753 117.041C88.1753 117.041 82.8071 131.099 93.0525 156.009C93.0525 156.009 97.1991 140.733 105.872 136.881C111.125 162.965 126.523 163.392 131.014 181.141C131.014 181.141 135.718 171.947 130.055 156.321C130.055 156.321 132.01 156.864 133.663 158.815C133.663 158.815 133.406 154.246 129.134 144.383C126.349 139.103 125.476 131.981 125.476 131.981C122.975 134.246 122.337 141.9 122.337 141.9C114.693 121.161 136.39 100.61 140.349 97.5778C142.283 96.0951 143.473 96.0724 144.193 96.4268C144.938 94.8839 144.871 93.8941 143.976 93.2498C143.976 93.2498 143.597 92.9921 143.514 92.9489C141.211 91.7196 137.085 95.3006 134.391 96.7833C131.698 98.2659 127.774 101.426 125.857 97.074C123.941 92.7215 128.348 85.9129 129.874 81.6303C133.243 72.1576 133.366 66.5831 132.654 63.5664C135.767 67.0807 136.745 73.8188 136.745 73.8188C136.745 73.8188 137.902 61.1667 131.716 57.8349L131.715 57.8333ZM64.2639 130.079C64.2639 130.079 49.8001 140.678 35.009 141.526C35.009 141.526 49.6467 144.975 55.8354 142.446C55.2407 142.058 54.5759 141.496 53.9161 140.655C53.9161 140.655 59.8945 136.806 64.2311 130.156C64.2395 130.132 64.2542 130.104 64.2639 130.079Z" fill="#9EA2A2"/>
<path d="M107.9 10.1256L107.548 12.7782L110.925 13.2266L109.671 22.6938L112.392 23.0561L113.647 13.5861L117.024 14.0345L117.374 11.3834L107.9 10.1256ZM84.4469 11.208L84.0555 11.2737L80.6404 24.3773L83.6158 23.8632L85.316 17.4333L89.0554 22.9254L92.0527 22.4084L84.4469 11.208ZM125.125 13.4077L121.648 25.1316L124.279 25.9116L127.755 14.1906L125.125 13.4077ZM72.1192 14.0534L63.2616 17.6379L64.2636 20.1168L67.4202 18.8401L71.0047 27.692L73.5493 26.6652L69.9662 17.809L73.1228 16.5324L72.1192 14.0534ZM136.997 17.3837L131.28 28.3317L133.699 29.5966L136.333 24.5514L137.58 29.2241L137.896 29.3906L142.437 27.7372L139.802 32.7824L142.242 34.0576L147.958 23.1087L147.589 22.9159L139.536 25.8563L137.367 17.6312L137.351 17.5713L136.997 17.3837ZM54.8162 23.0541C51.3468 23.0541 48.5352 25.8657 48.5352 29.3351C48.5352 32.8046 51.3467 35.6147 54.8162 35.6147C58.2857 35.6147 61.0986 32.8046 61.0986 29.3351C61.0986 25.8657 58.2857 23.0541 54.8162 23.0541ZM54.8162 25.9083C56.7102 25.9083 58.2429 27.441 58.2429 29.335C58.2429 31.2266 56.7102 32.7633 54.8162 32.7633C52.9222 32.7633 51.3894 31.2266 51.3894 29.335C51.3894 27.441 52.9222 25.9083 54.8162 25.9083ZM156.144 29.1745L154.353 31.2355L153.132 32.6406L153.034 32.7531L151.342 34.7002L149.891 36.3741L148.098 38.4337L150.159 40.2245L151.947 41.7771C152.73 42.4573 153.648 42.8338 154.604 42.8639C155.736 42.899 156.815 42.4251 157.562 41.5624C158.217 40.8097 158.53 39.8579 158.465 38.8821C159.155 38.6963 159.789 38.3034 160.291 37.7267C161.061 36.8412 161.375 35.7509 161.174 34.6651C161.011 33.782 160.524 32.9816 159.727 32.29L158.205 30.9651L156.144 29.1745ZM156.412 33.0247L157.937 34.3496C158.578 34.9061 158.673 35.4258 158.229 35.9373C157.685 36.5646 157.003 36.2037 156.526 35.7899L155.093 34.5453L156.412 33.0247ZM40.1836 34.5132L39.9425 34.5179C38.5756 34.5587 37.2865 35.229 36.1126 36.5088C35.3721 37.3186 34.92 38.2749 34.8345 39.2053C34.7318 40.2945 35.134 41.2863 35.9942 42.0741C37.3261 43.2936 38.8918 43.3757 40.7809 42.3224L42.0955 41.595C42.7773 41.2113 43.2184 41.0658 43.5824 41.4022C44.0191 41.7981 43.9137 42.36 43.2742 43.0704C43.2696 43.0778 43.2635 43.086 43.2553 43.0909C42.4081 44.0146 41.4496 44.0841 40.8028 44.0563L40.5691 44.0461L40.2711 47.0946L40.5296 47.1077C41.5454 47.1623 43.5348 46.943 45.4215 44.8787C45.4394 44.8583 45.4562 44.8397 45.4741 44.8218C46.4321 43.7555 46.9432 42.7001 46.9961 41.6842C47.0516 40.6277 46.6127 39.6693 45.6946 38.8286C44.3326 37.5823 42.8498 37.5568 40.74 38.738L39.2676 39.5604C38.7259 39.8667 38.4122 39.879 38.1107 39.6013C37.7572 39.2771 37.8226 38.7786 38.2845 38.2663C38.2874 38.2635 38.2874 38.2616 38.2892 38.2588C38.8187 37.6821 39.4003 37.3853 40.1253 37.3283L40.3693 37.3109L40.1836 34.5132ZM153.412 36.4925L155.094 37.9546C155.787 38.5542 155.95 39.2689 155.511 39.7732C155.072 40.275 154.364 40.2546 153.746 39.7177L151.958 38.162L153.412 36.4925ZM169.265 41.8502L159.677 49.4401L164.835 55.9576L166.975 54.2632L163.521 49.8987L165.127 48.6293L168.101 52.3863L170.242 50.6934L167.267 46.9365L168.847 45.6847L172.3 50.0493L174.424 48.368L169.265 41.8502ZM27.8792 45.9621L23.2693 52.8755L33.4413 59.6589L38.0527 52.7454L35.7828 51.2292L32.6934 55.8611L30.9902 54.7276L33.6501 50.7384L31.3788 49.2237L28.7203 53.2114L27.0419 52.0939L30.1298 47.4621L27.8792 45.9621ZM179.333 56.3444L168.367 61.7489L169.578 64.2116L174.654 61.7109L171.186 67.4734L172.632 70.405C172.632 70.405 175.141 66.1818 175.319 65.9032C176.368 67.0126 178.09 67.1624 179.616 66.4129C181.903 65.2838 182.624 63.0182 181.353 60.4416L179.333 56.3444ZM178.132 59.9976L178.906 61.5707C179.461 62.6974 179.2 63.478 178.204 63.9691C177.195 64.4661 176.401 64.2047 175.846 63.0781L175.071 61.505L178.132 59.9976ZM18.4425 61.7489L17.3966 64.3095L23.3037 66.7225L14.6915 70.6504L14.5249 71.0623L25.9384 75.7277L26.9725 73.1978L21.0378 70.7746L29.6895 66.8307L29.856 66.4158L18.4425 61.7489ZM186.209 71.3357L175.274 78.5982L175.377 79.0218L182.738 80.7323L176.96 85.5847L177.062 86.0112L190.105 87.4865L189.425 84.6718L183.148 83.9312L188.311 79.6018L188.212 79.1869L181.632 77.6401L186.889 74.1593L186.209 71.3357ZM11.8145 81.3048L11.3894 84.0349L17.6923 85.0194L10.2165 90.8271L10.1493 91.2697L22.3312 93.1759L22.7548 90.4736L16.4227 89.4833L23.9292 83.6537L23.9993 83.2111L11.8145 81.3048ZM139.935 86.9752C140.537 87.9064 140.558 89.1922 140.487 90.0149C141.295 89.8162 141.899 89.7862 142.348 89.8163C142.215 89.4457 141.963 88.89 141.512 88.341C140.87 87.5606 139.935 86.9752 139.935 86.9752ZM133.554 88.2066C134.226 90.1959 134.084 92.2095 133.921 93.3264C134.862 92.6788 135.717 92.1445 136.496 91.708C136.354 91.3699 136.135 90.8849 135.804 90.2984C135.182 89.1816 133.554 88.2066 133.554 88.2066ZM184.467 94.1823C180.997 94.1823 178.186 96.9952 178.186 100.465C178.186 103.934 180.997 106.743 184.467 106.743C187.936 106.743 190.749 103.934 190.749 100.465C190.749 96.9952 187.936 94.1823 184.467 94.1823ZM184.467 97.038C186.361 97.038 187.895 98.5707 187.895 100.465C187.895 102.356 186.361 103.892 184.467 103.892C182.573 103.892 181.04 102.356 181.04 100.465C181.04 98.5707 182.573 97.038 184.467 97.038ZM22.1781 100.639L9.95508 100.931L10.0208 103.675L22.242 103.383L22.1781 100.639ZM22.723 110.707L10.6401 113.26L10.7277 113.669L18.1174 118.013L13.1495 124.919L13.113 124.969L13.1963 125.36L25.2791 122.809L24.7153 120.137L19.1486 121.313L21.9633 117.381L21.8873 117.03L17.7229 114.576L23.2925 113.4L22.723 110.707ZM177.477 113.184L175.625 121.123L178.334 121.756L179.564 116.49L188.76 118.635L189.386 115.961L177.477 113.184ZM186.325 128.469L172.798 129.081L172.651 129.45L182.023 139.224L183.144 136.421L178.559 131.602L185.194 131.294L186.325 128.469ZM168.155 138.804L163.712 145.828L166.017 147.286L168.993 142.582L170.723 143.675L168.162 147.727L170.467 149.186L173.032 145.136L174.735 146.212L171.76 150.917L174.045 152.363L178.488 145.339L168.155 138.804ZM161.963 151.823C161.745 151.823 159.785 151.839 158.447 152.489C157.745 152.83 157.134 153.264 156.635 153.766C155.995 154.408 155.544 155.162 155.33 155.966C154.977 157.31 155.366 158.717 156.344 159.642C157.284 160.528 158.604 160.809 159.879 160.393C160.3 160.255 160.792 160.014 161.361 159.733C162.031 159.404 163.042 158.885 163.509 158.858C164.634 158.792 164.607 160.413 163.167 161.117C162.632 161.376 161.717 161.643 161.24 161.703L161.585 164.455C161.773 164.432 163.438 164.208 164.622 163.478C166.646 162.228 167.041 160.633 167.093 159.793C167.146 159 166.815 157.83 165.96 157.007C165.237 156.312 164.263 155.991 163.219 156.098C162.261 156.199 161.133 156.755 160.137 157.244C159.701 157.457 159.252 157.678 159.015 157.756C158.708 157.857 158.448 157.813 158.247 157.625C158.059 157.447 157.899 157.105 158.012 156.675C158.183 156.036 158.797 155.403 159.658 154.984C160.235 154.703 161.376 154.597 161.959 154.597L161.963 151.823Z" fill="white"/>
</g>
<defs>
<clipPath id="clip0_18_279">
<rect width="200" height="200" fill="white"/>
</clipPath>
</defs>
</svg>
