<svg width="200" height="200" viewBox="0 0 200 200" fill="none" xmlns="http://www.w3.org/2000/svg">
<g clip-path="url(#clip0_18_263)">
<path d="M199.999 99.9999C199.999 155.228 155.228 200 99.9999 200C44.7714 200 0 155.227 0 99.999C0 44.7714 44.7714 0 99.9999 0C155.228 0 200 44.7714 200 99.999" fill="#BEC0C2"/>
<path d="M195.08 100.001C195.08 152.352 152.641 194.79 100.289 194.79C47.9372 194.79 5.49854 152.352 5.49854 100.001C5.49854 47.6496 47.9372 5.21094 100.289 5.21094C152.641 5.21094 195.08 47.6496 195.08 100.001Z" fill="#006BB6"/>
<path d="M185.334 100.272C185.334 147.304 147.209 185.431 100.177 185.431C53.1455 185.431 15.0176 147.304 15.0176 100.272C15.0176 53.2413 53.1446 15.1152 100.177 15.1152C147.209 15.1152 185.334 53.2413 185.334 100.272Z" fill="#E85B28"/>
<path d="M49.1318 44.1394L92.1855 97.0333V178.437H107.235V96.9612L150.362 43.9943L137.338 34.4434L99.5666 81.3304L62.1557 34.5145L49.1318 44.1394Z" fill="black"/>
<path d="M134.443 84.0815L118.161 100.362V169.972H132.995V135.963L140.739 126.267H154.488C154.488 126.267 151.05 137.084 144.428 143.705V162.663C144.428 162.663 156.078 154.848 164.254 142.547C172.431 130.247 175.543 116.861 176.122 112.157L153.98 110.71L175.688 83.7193C175.688 83.7193 172.503 70.0439 170.117 67.655L134.515 107.019L134.443 84.0815ZM30.246 65.7744C30.246 65.7744 22.2144 82.9957 22.2144 94.5733C22.2144 106.151 24.5293 124.096 29.3043 132.199C34.0803 140.304 45.1524 158.249 55.426 163.097V142.475C55.426 142.475 48.263 135.167 46.1643 128.582C44.0665 121.997 40.9549 115.63 40.9549 104.559L66.7864 133.285V170.405H81.1142V102.243L66.7864 83.8644V109.48L30.246 65.7744Z" fill="black"/>
</g>
<defs>
<clipPath id="clip0_18_263">
<rect width="200" height="200" fill="white"/>
</clipPath>
</defs>
</svg>
