<svg width="200" height="200" viewBox="0 0 200 200" fill="none" xmlns="http://www.w3.org/2000/svg">
<path d="M37.6406 153.699H42.8763C44.4661 153.699 47.0777 153.699 47.0777 156.583C47.0777 159.453 44.4661 159.453 42.8763 159.453H39.476V163.101H37.6406V153.699ZM43.2769 157.878C44.3257 157.878 45.2423 157.787 45.2423 156.571C45.2423 155.369 44.3257 155.279 43.2769 155.279H39.476V157.878H43.2769Z" fill="#012B5F"/>
<path d="M54.8574 153.699H63.287V155.279H56.6928V157.463H62.3683V159.04H56.6928V161.524H63.4419V163.099H54.8574V153.699Z" fill="#012B5F"/>
<path d="M71.3657 153.699H73.2011V161.47H80.0142V163.099H71.3657V153.699Z" fill="#012B5F"/>
<path d="M87.9893 153.699H89.8247V163.099H87.9893V153.699Z" fill="#012B5F"/>
<path d="M108.498 159.753C108.316 160.8 107.567 163.335 103.25 163.335C102.554 163.407 101.851 163.327 101.189 163.101C100.527 162.874 99.9227 162.506 99.4172 162.023C98.9117 161.539 98.5174 160.952 98.2616 160.301C98.0057 159.65 97.8945 158.951 97.9356 158.252C97.9356 155.511 99.6533 153.469 103.39 153.469C107.594 153.469 108.213 156.198 108.355 156.702H106.52C106.25 156.146 105.814 155.688 105.272 155.391C104.73 155.094 104.109 154.974 103.495 155.046C103.033 155.002 102.566 155.054 102.124 155.198C101.683 155.343 101.276 155.578 100.93 155.888C100.583 156.198 100.305 156.576 100.112 156.998C99.9187 157.421 99.8153 157.879 99.808 158.344C99.8007 158.809 99.8897 159.27 100.069 159.698C100.249 160.127 100.516 160.514 100.852 160.834C101.189 161.155 101.588 161.402 102.025 161.561C102.461 161.719 102.926 161.786 103.39 161.756C104.08 161.831 104.775 161.675 105.367 161.313C105.959 160.95 106.414 160.402 106.66 159.753H108.498Z" fill="#012B5F"/>
<path d="M120.18 153.701H122.276L126.838 163.101H124.9L123.917 160.944H118.499L117.504 163.101H115.551L120.18 153.701ZM123.192 159.364L121.227 155.173L119.263 159.364H123.192Z" fill="#012B5F"/>
<path d="M134.502 153.699H136.441L142.725 160.487V153.699H144.482V163.099H142.801L136.259 156.065V163.099H134.502V153.699Z" fill="#012B5F"/>
<path d="M160.472 156.559C160.174 155.717 159.412 154.992 157.174 154.992C155.934 154.992 154.678 155.304 154.678 156.171C154.678 156.572 154.912 156.997 156.786 157.23L159.01 157.565C161.118 157.889 162.359 158.707 162.359 160.282C162.359 162.507 160.238 163.335 157.73 163.335C153.696 163.335 152.713 161.343 152.494 160.631L154.266 160.075C154.602 160.761 155.3 161.756 157.784 161.756C159.282 161.756 160.523 161.265 160.523 160.451C160.523 159.844 159.825 159.442 158.479 159.274L156.231 158.963C154.059 158.665 152.843 157.72 152.843 156.287C152.843 153.469 156.501 153.469 157.226 153.469C161.273 153.469 161.973 155.343 162.204 155.99L160.472 156.559Z" fill="#012B5F"/>
<path d="M93.7885 134.79V129.221C93.8033 128.523 93.6629 127.83 93.3776 127.192C93.1179 126.634 92.7311 126.144 92.2483 125.761C91.7445 125.371 91.1674 125.086 90.5512 124.923C89.1719 124.557 87.7209 124.557 86.3416 124.923C85.7213 125.087 85.1396 125.372 84.6301 125.761C84.1389 126.139 83.7459 126.63 83.4843 127.192C83.1989 127.83 83.0586 128.523 83.0734 129.221V134.796C82.791 134.838 82.5331 134.98 82.3466 135.196C82.1602 135.412 82.0576 135.688 82.0576 135.974C82.0576 136.259 82.1602 136.535 82.3466 136.751C82.5331 136.968 82.791 137.11 83.0734 137.151V143.393C83.0582 144.093 83.1985 144.787 83.4843 145.426C83.7478 145.991 84.1403 146.486 84.6301 146.871C85.1362 147.27 85.7187 147.561 86.3416 147.726C87.7206 148.095 89.1723 148.095 90.5512 147.726C91.1701 147.562 91.748 147.271 92.2483 146.871C92.7297 146.482 93.116 145.988 93.3776 145.426C93.6633 144.787 93.8037 144.093 93.7885 143.393V137.16C94.0819 137.13 94.3537 136.992 94.5513 136.773C94.749 136.554 94.8584 136.27 94.8584 135.975C94.8584 135.68 94.749 135.395 94.5513 135.176C94.3537 134.957 94.0819 134.82 93.7885 134.79ZM90.7969 143.273C90.8087 143.625 90.7358 143.975 90.5843 144.293C90.4527 144.554 90.2652 144.783 90.0351 144.964C89.8119 145.138 89.5575 145.267 89.2857 145.346C89.0132 145.428 88.73 145.47 88.4454 145.47C88.1561 145.469 87.8683 145.427 87.5907 145.346C87.314 145.27 87.055 145.14 86.8288 144.964C86.5965 144.785 86.4086 144.556 86.2797 144.293C86.1264 143.975 86.0528 143.625 86.065 143.273V129.349C86.0528 128.995 86.1265 128.643 86.2797 128.323C86.4103 128.062 86.598 127.834 86.8288 127.654C87.056 127.48 87.3146 127.35 87.5907 127.273C87.8684 127.192 88.1562 127.151 88.4454 127.151C88.7299 127.15 89.0131 127.191 89.2857 127.273C89.5568 127.353 89.8109 127.482 90.0351 127.654C90.2637 127.836 90.451 128.064 90.5843 128.323C90.7358 128.644 90.8087 128.995 90.7969 129.349V143.273Z" fill="#012B5F"/>
<path d="M37.0539 139.913C37.0539 139.973 37.0395 139.981 37.0085 139.946C36.9796 139.898 36.9528 139.859 36.9342 139.822C36.8516 139.555 36.6878 139.026 36.4428 138.234C36.1992 137.439 35.9198 136.517 35.6046 135.468C35.2867 134.421 34.9509 133.322 34.5971 132.171C34.2399 131.021 33.9089 129.962 33.6041 128.995C33.2985 128.027 33.0425 127.224 32.8402 126.569C32.6379 125.917 32.5367 125.571 32.5367 125.531C32.4884 125.351 32.3929 125.187 32.26 125.056C32.1045 124.933 31.9086 124.873 31.7109 124.887H28.261V125.896C28.2489 126.184 28.3011 126.47 28.4138 126.735C28.4992 126.927 28.6244 127.1 28.7813 127.24C28.9301 127.386 29.1062 127.5 29.2995 127.577V134.801C29.0252 134.852 28.7774 134.997 28.599 135.211C28.4206 135.425 28.3229 135.696 28.3229 135.974C28.3229 136.253 28.4206 136.523 28.599 136.738C28.7774 136.952 29.0252 137.097 29.2995 137.148V147.75H31.9855V133.195C31.9855 133.073 31.9978 133.023 32.0144 133.042C32.0414 133.068 32.0632 133.098 32.0784 133.133C32.0784 133.151 32.1795 133.486 32.3819 134.126C32.5862 134.768 32.8402 135.565 33.1457 136.525C33.4513 137.481 33.7823 138.518 34.1388 139.636C34.4939 140.757 34.8297 141.811 35.1463 142.799C35.4622 143.782 35.7306 144.632 35.9535 145.332C36.1786 146.034 36.3107 146.433 36.352 146.538C36.4348 146.831 36.5418 147.117 36.672 147.393C36.722 147.498 36.8026 147.587 36.9035 147.647C37.0043 147.706 37.1208 147.734 37.2377 147.727H39.0091C39.1134 147.733 39.2178 147.715 39.3134 147.672C39.409 147.63 39.4929 147.565 39.5583 147.483C39.6779 147.326 39.7424 147.134 39.742 146.936V137.119C39.9911 137.049 40.2104 136.899 40.3665 136.692C40.5226 136.485 40.6071 136.233 40.6071 135.974C40.6071 135.716 40.5226 135.464 40.3665 135.257C40.2104 135.05 39.9911 134.9 39.742 134.83V127.79C39.7486 127.652 39.7845 127.518 39.8473 127.395C39.9028 127.305 39.9701 127.222 40.0476 127.15C40.234 127.001 40.3981 126.827 40.5348 126.631C40.7057 126.378 40.7911 126.077 40.7784 125.772V124.887L37.0539 124.916V139.913Z" fill="#012B5F"/>
<path d="M155.433 139.914C155.433 139.974 155.416 139.983 155.385 139.948C155.354 139.9 155.332 139.861 155.311 139.824C155.226 139.557 155.065 139.029 154.822 138.236C154.578 137.441 154.297 136.519 153.979 135.47C153.664 134.423 153.331 133.322 152.972 132.172C152.619 131.022 152.289 129.964 151.983 128.997C151.675 128.029 151.421 127.226 151.217 126.571C151.015 125.919 150.911 125.572 150.911 125.533C150.865 125.353 150.771 125.189 150.639 125.058C150.482 124.935 150.286 124.875 150.088 124.889H146.64V125.898C146.628 126.185 146.68 126.472 146.793 126.736C146.877 126.929 147.001 127.101 147.156 127.242C147.307 127.387 147.484 127.501 147.678 127.579V134.803C147.404 134.853 147.156 134.999 146.978 135.213C146.8 135.427 146.702 135.697 146.702 135.976C146.702 136.255 146.8 136.525 146.978 136.74C147.156 136.954 147.404 137.099 147.678 137.15V147.752H150.364V133.196C150.364 133.075 150.373 133.025 150.393 133.044C150.42 133.07 150.441 133.1 150.455 133.134C150.455 133.153 150.558 133.488 150.761 134.128C150.963 134.77 151.217 135.567 151.523 136.527C151.83 137.482 152.158 138.519 152.518 139.638C152.873 140.759 153.208 141.813 153.523 142.801C153.839 143.783 154.107 144.634 154.332 145.334C154.557 146.036 154.688 146.434 154.731 146.54C154.814 146.833 154.921 147.119 155.051 147.394C155.101 147.501 155.181 147.589 155.282 147.649C155.383 147.708 155.5 147.736 155.617 147.729H157.388C157.492 147.735 157.597 147.716 157.692 147.674C157.788 147.632 157.872 147.567 157.937 147.485C158.055 147.327 158.119 147.135 158.119 146.938V137.119C158.368 137.049 158.588 136.899 158.745 136.693C158.901 136.486 158.986 136.234 158.986 135.975C158.986 135.716 158.901 135.464 158.745 135.258C158.588 135.051 158.368 134.902 158.119 134.832V127.791C158.125 127.654 158.161 127.519 158.224 127.397C158.28 127.307 158.347 127.224 158.424 127.151C158.611 127.003 158.775 126.828 158.912 126.633C159.083 126.381 159.169 126.079 159.155 125.774V124.889L155.433 124.918V139.914Z" fill="#012B5F"/>
<path d="M169.723 136.524C169.238 136.094 168.721 135.703 168.174 135.355C168.201 135.257 168.216 135.156 168.218 135.054C168.217 134.737 168.091 134.432 167.866 134.208C167.642 133.984 167.338 133.857 167.02 133.857C166.743 133.858 166.475 133.956 166.262 134.135C166.165 134.069 166.062 134.005 165.967 133.941C165.457 133.612 164.977 133.239 164.532 132.826C164.36 132.685 164.218 132.509 164.118 132.309C164.018 132.11 163.961 131.891 163.95 131.668V128.644C163.949 128.426 164.026 128.215 164.167 128.049C164.319 127.867 164.506 127.717 164.716 127.607C164.937 127.485 165.173 127.394 165.418 127.335C165.647 127.274 165.883 127.242 166.12 127.24C166.351 127.242 166.581 127.267 166.808 127.314C167.051 127.365 167.286 127.447 167.507 127.56C167.717 127.667 167.9 127.818 168.044 128.004C168.186 128.186 168.261 128.412 168.257 128.644V129.775C168.252 130.004 168.295 130.232 168.386 130.443C168.476 130.653 168.61 130.843 168.779 130.997C169.124 131.321 169.584 131.496 170.057 131.484H171.432V129.222C171.447 128.524 171.313 127.831 171.038 127.19C170.785 126.631 170.403 126.141 169.923 125.759C169.42 125.374 168.85 125.083 168.242 124.903C167.563 124.705 166.859 124.607 166.151 124.614C165.45 124.608 164.752 124.695 164.074 124.874C163.474 125.033 162.912 125.313 162.424 125.697C161.949 126.082 161.573 126.575 161.326 127.134C161.047 127.794 160.912 128.506 160.932 129.222V131.394C160.908 132.16 161.103 132.916 161.493 133.576C161.874 134.177 162.354 134.71 162.914 135.149C163.485 135.595 164.088 135.999 164.718 136.357C164.647 136.51 164.61 136.677 164.609 136.846C164.608 137.092 164.683 137.332 164.824 137.534C164.965 137.735 165.164 137.888 165.395 137.972C165.626 138.056 165.878 138.066 166.115 138.002C166.352 137.937 166.564 137.801 166.721 137.612C167.212 137.951 167.653 138.359 168.028 138.824C168.41 139.317 168.61 139.928 168.593 140.552V143.789C168.596 144.047 168.515 144.299 168.362 144.508C168.202 144.728 168.001 144.914 167.77 145.057C167.521 145.21 167.255 145.334 166.977 145.424C166.711 145.514 166.432 145.56 166.151 145.561C165.872 145.559 165.595 145.517 165.327 145.437C165.053 145.362 164.79 145.249 164.547 145.102C164.323 144.966 164.127 144.789 163.967 144.582C163.816 144.379 163.736 144.133 163.74 143.88V142.569C163.751 142.369 163.721 142.169 163.65 141.981C163.579 141.794 163.47 141.623 163.329 141.481C162.978 141.203 162.536 141.067 162.09 141.099H160.624V143.393C160.608 144.096 160.76 144.792 161.068 145.424C161.349 145.988 161.757 146.478 162.259 146.857C162.785 147.247 163.381 147.533 164.014 147.699C165.416 148.063 166.886 148.063 168.288 147.699C168.925 147.532 169.525 147.246 170.057 146.857C170.569 146.479 170.988 145.989 171.281 145.424C171.597 144.795 171.754 144.097 171.738 143.393V140.397C171.752 139.636 171.552 138.886 171.16 138.233C170.768 137.596 170.284 137.019 169.723 136.524Z" fill="#012B5F"/>
<path d="M70.8534 136.308C70.7316 137.365 70.6098 138.406 70.488 139.421C70.3641 140.443 70.2526 141.345 70.1515 142.14C70.0482 142.933 69.9657 143.573 69.9079 144.065C69.8928 144.312 69.852 144.558 69.786 144.797C69.5383 143.313 69.3215 141.979 69.1274 140.798C68.9355 139.617 68.7214 138.3 68.4854 136.845C68.2521 135.389 68.014 133.954 67.771 132.538C67.5274 131.122 67.2962 129.813 67.0835 128.601C66.8688 127.389 66.6809 126.426 66.5199 125.713C66.4766 125.488 66.2907 125.308 65.9522 125.166C65.6296 125.026 65.2817 124.954 64.9302 124.955C64.6029 124.958 64.2782 125.013 63.9681 125.118C63.8272 125.15 63.6974 125.219 63.5927 125.319C63.488 125.418 63.4123 125.545 63.3735 125.684C63.2084 126.355 63.0225 127.296 62.8078 128.508C62.5952 129.72 62.3667 131.032 62.1224 132.445C61.8788 133.861 61.6393 135.301 61.4039 136.764C61.1707 138.234 60.9566 139.562 60.7619 140.749C60.5698 141.942 60.351 143.292 60.1053 144.797C60.0339 144.559 59.9883 144.313 59.9691 144.065C59.8968 143.573 59.8163 142.933 59.7234 142.14C59.6325 141.345 59.5252 140.443 59.4034 139.421C59.2816 138.406 59.1577 137.365 59.0359 136.308C58.753 133.822 57.7621 124.885 57.7621 124.885L54.0293 124.887V125.806C54.0186 126.105 54.0931 126.401 54.244 126.66C54.3588 126.855 54.5154 127.022 54.7024 127.15C54.8054 127.23 54.8977 127.323 54.977 127.426C55.0649 127.542 55.1269 127.676 55.1586 127.819C55.4559 130.364 55.7243 132.709 55.9762 134.869C55.735 134.968 55.5327 135.143 55.4003 135.367C55.268 135.592 55.2128 135.854 55.2432 136.113C55.2737 136.371 55.388 136.613 55.5689 136.801C55.7497 136.989 55.987 137.112 56.2446 137.152L56.2591 137.287C56.3994 138.486 56.5371 139.657 56.672 140.798C56.802 141.936 56.9231 142.959 57.0353 143.868C57.1489 144.773 57.2397 145.512 57.312 146.077C57.3842 146.649 57.4173 146.953 57.4173 146.994C57.441 147.167 57.5101 147.33 57.6175 147.467C57.671 147.542 57.7422 147.602 57.8247 147.642C57.9073 147.683 57.9985 147.702 58.0903 147.698H61.5423C61.6364 147.704 61.7307 147.691 61.8196 147.659C61.9086 147.628 61.9905 147.58 62.0605 147.516C62.2094 147.347 62.3231 147.15 62.3949 146.936L64.9921 132.063L67.5274 146.936C67.5984 147.15 67.7122 147.348 67.8619 147.516C67.9321 147.58 68.0143 147.629 68.1036 147.66C68.193 147.691 68.2877 147.704 68.3821 147.698H71.8011C71.8929 147.702 71.9842 147.683 72.0668 147.643C72.1494 147.602 72.2205 147.542 72.2738 147.467C72.3799 147.329 72.4482 147.166 72.472 146.994C72.472 146.953 72.5071 146.649 72.5794 146.077C72.6516 145.512 72.7425 144.773 72.856 143.868C72.9634 142.96 73.0873 141.936 73.2215 140.798C73.3536 139.655 73.4905 138.484 73.6323 137.287L73.6468 137.152C73.9031 137.111 74.1389 136.986 74.3185 136.799C74.498 136.611 74.6115 136.37 74.6419 136.112C74.6722 135.854 74.6177 135.593 74.4866 135.369C74.3554 135.145 74.1549 134.969 73.9152 134.869C74.1629 132.709 74.4354 130.366 74.7327 127.819C74.7634 127.675 74.8262 127.541 74.9165 127.426C74.9944 127.322 75.0861 127.229 75.189 127.15C75.4062 127.001 75.5818 126.8 75.6993 126.565C75.8167 126.33 75.872 126.068 75.86 125.806V124.887L72.1417 124.899C72.1417 124.899 71.1383 133.822 70.8534 136.308Z" fill="#012B5F"/>
<path d="M143.873 135.975C143.872 135.691 143.771 135.417 143.587 135.201C143.403 134.985 143.148 134.842 142.867 134.796C142.725 133.991 142.58 133.184 142.442 132.401C142.248 131.301 142.075 130.309 141.924 129.424C141.771 128.539 141.644 127.811 141.542 127.24C141.441 126.67 141.389 126.344 141.389 126.264C141.349 125.895 141.175 125.554 140.902 125.303C140.751 125.162 140.574 125.052 140.38 124.98C140.186 124.909 139.979 124.877 139.773 124.886H135.679V125.593C135.679 126.466 135.933 127.007 136.442 127.211C136.492 127.232 136.534 127.268 136.562 127.315C136.589 127.361 136.601 127.415 136.595 127.469C136.594 127.617 136.584 127.765 136.564 127.911C136.564 127.932 136.521 128.186 136.428 128.675C136.335 129.166 136.213 129.806 136.061 130.599C135.91 131.392 135.742 132.293 135.557 133.302C135.468 133.787 135.377 134.282 135.284 134.78C135.01 134.784 134.745 134.883 134.535 135.06C134.324 135.237 134.182 135.481 134.13 135.751C134.079 136.021 134.123 136.301 134.254 136.542C134.384 136.784 134.595 136.973 134.849 137.078C134.269 140.177 132.885 147.727 132.885 147.727H135.792C135.792 147.727 136.637 142.578 136.657 142.479C136.696 142.07 136.88 141.867 137.206 141.867H140.687C140.848 141.862 141.007 141.903 141.146 141.985C141.217 142.047 141.275 142.123 141.317 142.207C141.359 142.292 141.383 142.384 141.389 142.479C141.389 142.578 142.073 147.727 142.073 147.727L145.151 147.749C145.151 147.749 143.887 140.573 143.26 137.012C143.445 136.909 143.599 136.759 143.707 136.577C143.815 136.394 143.872 136.187 143.873 135.975ZM140.778 139.181C140.737 139.23 140.686 139.268 140.628 139.294C140.57 139.319 140.507 139.331 140.444 139.328H137.572C137.514 139.329 137.457 139.318 137.404 139.294C137.351 139.271 137.304 139.236 137.266 139.192C137.225 139.145 137.196 139.089 137.18 139.028C137.165 138.967 137.164 138.904 137.177 138.843C137.177 138.824 137.202 138.649 137.252 138.323C137.303 137.998 137.367 137.581 137.452 137.071C137.531 136.564 137.623 135.988 137.725 135.348C137.826 134.703 137.939 134.051 138.061 133.376L138.976 128.064H139.04L139.954 133.376C140.076 134.051 140.188 134.703 140.293 135.348C140.392 135.988 140.483 136.564 140.565 137.071C140.646 137.581 140.718 137.998 140.778 138.323C140.84 138.649 140.869 138.824 140.869 138.843C140.88 138.903 140.877 138.964 140.862 139.022C140.846 139.081 140.817 139.135 140.778 139.181Z" fill="#012B5F"/>
<path d="M107.131 145.376C107.03 145.314 106.945 145.258 106.873 145.208C106.801 145.159 106.766 145.031 106.766 144.826V139.605C106.776 138.91 106.662 138.219 106.429 137.563C106.234 136.991 105.874 136.49 105.393 136.124C105.168 135.903 105.149 135.699 105.331 135.515C105.77 135.154 106.124 134.7 106.367 134.186C106.636 133.63 106.773 133.019 106.766 132.402V129.988C106.772 129.291 106.68 128.597 106.491 127.926C106.321 127.335 106.024 126.788 105.62 126.324C105.204 125.861 104.687 125.502 104.109 125.273C103.398 124.997 102.64 124.866 101.879 124.887H95.5923V125.773C95.5692 126.114 95.649 126.455 95.8215 126.751C95.9416 126.946 96.1021 127.112 96.2922 127.238C96.3788 127.286 96.4525 127.354 96.5069 127.437C96.5741 127.552 96.6063 127.685 96.5998 127.819V134.807C96.3314 134.863 96.0904 135.01 95.9175 135.223C95.7446 135.436 95.6501 135.701 95.6501 135.976C95.6501 136.25 95.7446 136.516 95.9175 136.729C96.0904 136.941 96.3314 137.088 96.5998 137.144V147.725L99.5893 147.742V137.683C99.5893 137.398 99.7235 137.254 99.9877 137.254H101.879C102.147 137.23 102.416 137.272 102.664 137.377C102.912 137.481 103.131 137.644 103.301 137.852C103.623 138.344 103.778 138.926 103.743 139.512V146.23C103.724 146.437 103.752 146.645 103.824 146.839C103.896 147.033 104.011 147.208 104.161 147.352C104.31 147.495 104.49 147.604 104.687 147.668C104.884 147.733 105.092 147.752 105.298 147.725H107.833V146.536C107.861 146.256 107.779 145.977 107.604 145.758C107.461 145.613 107.302 145.485 107.131 145.376ZM103.743 132.402C103.772 133.003 103.618 133.599 103.301 134.111C103.138 134.33 102.922 134.504 102.673 134.616C102.424 134.728 102.151 134.775 101.879 134.751H99.9568C99.867 134.748 99.7808 134.715 99.7111 134.658C99.6725 134.631 99.6411 134.595 99.6199 134.553C99.5986 134.511 99.5881 134.464 99.5893 134.417V127.878C99.5893 127.598 99.7524 127.457 100.077 127.457H101.879C102.149 127.435 102.421 127.48 102.669 127.589C102.918 127.697 103.135 127.867 103.301 128.081C103.62 128.586 103.774 129.177 103.743 129.774V132.402Z" fill="#012B5F"/>
<path d="M116.687 138.773C116.527 138.861 116.397 138.996 116.315 139.16C116.233 139.324 116.203 139.508 116.228 139.689C116.228 139.809 116.255 144.975 116.185 145.086C116.151 145.14 116.104 145.184 116.048 145.214C115.992 145.243 115.928 145.257 115.865 145.253H113.177C113.114 145.258 113.051 145.242 112.996 145.21C112.941 145.178 112.898 145.129 112.871 145.072C112.808 144.938 112.777 144.791 112.781 144.642L112.75 127.851C112.737 127.695 112.764 127.539 112.826 127.395C112.884 127.305 112.962 127.231 113.055 127.178C113.243 127.031 113.407 126.857 113.542 126.66C113.715 126.409 113.801 126.109 113.788 125.805V124.889H108.689V125.805C108.677 126.109 108.763 126.409 108.934 126.66C109.07 126.856 109.233 127.03 109.419 127.178C109.515 127.234 109.598 127.307 109.665 127.395C109.74 127.535 109.772 127.694 109.756 127.851V134.801C109.485 134.855 109.241 135.001 109.065 135.215C108.89 135.429 108.794 135.697 108.794 135.973C108.794 136.25 108.89 136.518 109.065 136.732C109.241 136.946 109.485 137.092 109.756 137.146V147.727H118.427C118.611 147.72 118.785 147.644 118.916 147.516C118.998 147.444 119.061 147.354 119.104 147.254C119.146 147.153 119.165 147.045 119.16 146.936V138.562H117.878C117.471 138.55 117.065 138.622 116.687 138.773Z" fill="#012B5F"/>
<path d="M51.8275 124.913C51.7785 124.9 51.7277 124.893 51.6768 124.893H51.621L51.619 124.889H41.9383V125.774C41.9219 126.099 41.9798 126.423 42.1075 126.722C42.2063 126.933 42.3728 127.104 42.5803 127.209C42.6864 127.273 42.7795 127.357 42.8549 127.455C42.9442 127.578 42.988 127.728 42.9788 127.88V134.801C42.7071 134.854 42.4625 135 42.2867 135.214C42.1108 135.428 42.0147 135.696 42.0147 135.973C42.0147 136.25 42.1108 136.518 42.2867 136.732C42.4625 136.946 42.7071 137.092 42.9788 137.146V147.727H51.6768C51.7522 147.728 51.8268 147.712 51.8956 147.681C52.0026 147.647 52.1011 147.591 52.1847 147.516C52.2594 147.445 52.3183 147.359 52.3575 147.264C52.3966 147.169 52.4151 147.066 52.4118 146.963V140.501H51.1276C50.7197 140.49 50.3138 140.561 49.9343 140.711C49.7744 140.801 49.6452 140.936 49.5634 141.1C49.4817 141.264 49.4512 141.449 49.476 141.63C49.476 141.752 49.5049 144.975 49.4347 145.086C49.4009 145.14 49.3531 145.184 49.2965 145.214C49.2398 145.243 49.1763 145.257 49.1126 145.253H46.3378C46.0921 145.253 45.9703 145.111 45.9703 144.828V137.714C45.9703 137.427 46.121 137.288 46.4266 137.288H50.0933C50.3947 137.288 50.5516 137.146 50.5516 136.855V135.15C50.5565 135.081 50.5435 135.012 50.5138 134.951C50.4841 134.889 50.4388 134.836 50.3823 134.796C50.2862 134.732 50.1739 134.695 50.0582 134.691H46.4266C46.121 134.691 45.9703 134.549 45.9703 134.264V127.88C45.9701 127.82 45.982 127.761 46.0054 127.706C46.0289 127.651 46.0633 127.601 46.1066 127.56C46.1435 127.519 46.1883 127.486 46.2383 127.463C46.2884 127.44 46.3426 127.427 46.3977 127.426H49.3191C49.3654 127.45 49.4051 127.486 49.4347 127.529C49.5049 127.641 49.476 130.864 49.476 130.987C49.4512 131.169 49.4817 131.353 49.5635 131.517C49.6452 131.68 49.7745 131.815 49.9343 131.904C50.3132 132.056 50.7193 132.13 51.1276 132.119H52.4118V125.562C52.4087 125.474 52.3881 125.388 52.3512 125.309C52.3143 125.229 52.2619 125.158 52.197 125.099C52.0956 125.001 51.9667 124.936 51.8275 124.913Z" fill="#012B5F"/>
<path d="M130.315 124.913C130.265 124.899 130.214 124.892 130.162 124.893H130.107V124.889H120.424V125.774C120.408 126.099 120.466 126.423 120.593 126.722C120.692 126.933 120.858 127.104 121.066 127.209C121.172 127.273 121.265 127.357 121.34 127.455C121.43 127.578 121.474 127.728 121.464 127.88V134.801C121.193 134.854 120.948 135 120.772 135.214C120.596 135.428 120.5 135.696 120.5 135.973C120.5 136.25 120.596 136.518 120.772 136.732C120.948 136.946 121.193 137.092 121.464 137.146V147.727H130.162C130.238 147.728 130.314 147.712 130.383 147.681C130.49 147.647 130.587 147.591 130.67 147.516C130.745 147.446 130.805 147.36 130.844 147.264C130.883 147.169 130.901 147.066 130.897 146.963V140.501H129.613C129.206 140.49 128.801 140.561 128.422 140.711C128.262 140.8 128.132 140.936 128.05 141.1C127.969 141.264 127.938 141.449 127.964 141.63C127.964 141.752 127.992 144.975 127.92 145.086C127.886 145.14 127.839 145.184 127.783 145.213C127.727 145.243 127.664 145.256 127.6 145.253H124.821C124.578 145.253 124.456 145.111 124.456 144.828V137.714C124.456 137.427 124.609 137.288 124.912 137.288H128.579C128.882 137.288 129.035 137.146 129.035 136.855V135.15C129.041 135.081 129.028 135.012 128.998 134.95C128.969 134.888 128.923 134.835 128.866 134.796C128.771 134.732 128.66 134.695 128.546 134.691H124.912C124.609 134.691 124.456 134.549 124.456 134.264V127.88C124.456 127.82 124.468 127.761 124.491 127.706C124.514 127.651 124.549 127.601 124.592 127.56C124.629 127.52 124.674 127.487 124.724 127.464C124.774 127.441 124.828 127.428 124.883 127.426H127.805C127.851 127.45 127.891 127.485 127.92 127.529C127.992 127.641 127.964 130.864 127.964 130.987C127.938 131.169 127.969 131.353 128.05 131.517C128.132 131.68 128.262 131.815 128.422 131.904C128.8 132.056 129.206 132.13 129.613 132.119H130.897V125.562C130.895 125.474 130.874 125.388 130.838 125.309C130.801 125.229 130.749 125.158 130.685 125.099C130.583 125.002 130.454 124.937 130.315 124.913Z" fill="#012B5F"/>
<path d="M93.7885 134.79V129.221C93.8033 128.523 93.6629 127.83 93.3776 127.192C93.1179 126.634 92.7311 126.144 92.2483 125.761C91.7445 125.371 91.1674 125.086 90.5512 124.923C89.1719 124.557 87.7209 124.557 86.3416 124.923C85.7213 125.087 85.1396 125.372 84.6301 125.761C84.1389 126.139 83.7459 126.63 83.4843 127.192C83.1989 127.83 83.0586 128.523 83.0734 129.221V134.796C82.791 134.838 82.5331 134.98 82.3466 135.196C82.1602 135.412 82.0576 135.688 82.0576 135.974C82.0576 136.259 82.1602 136.535 82.3466 136.751C82.5331 136.968 82.791 137.11 83.0734 137.151V143.393C83.0582 144.093 83.1985 144.787 83.4843 145.426C83.7478 145.991 84.1403 146.486 84.6301 146.871C85.1362 147.27 85.7187 147.561 86.3416 147.726C87.7206 148.095 89.1723 148.095 90.5512 147.726C91.1701 147.562 91.748 147.271 92.2483 146.871C92.7297 146.482 93.116 145.988 93.3776 145.426C93.6633 144.787 93.8037 144.093 93.7885 143.393V137.16C94.0819 137.13 94.3537 136.992 94.5513 136.773C94.749 136.554 94.8584 136.27 94.8584 135.975C94.8584 135.68 94.749 135.395 94.5513 135.176C94.3537 134.957 94.0819 134.82 93.7885 134.79ZM90.7969 143.273C90.8087 143.625 90.7358 143.975 90.5843 144.293C90.4527 144.554 90.2652 144.783 90.0351 144.964C89.8119 145.138 89.5575 145.267 89.2857 145.346C89.0132 145.428 88.73 145.47 88.4454 145.47C88.1561 145.469 87.8683 145.427 87.5907 145.346C87.314 145.27 87.055 145.14 86.8288 144.964C86.5965 144.785 86.4086 144.556 86.2797 144.293C86.1264 143.975 86.0528 143.625 86.065 143.273V129.349C86.0528 128.995 86.1265 128.643 86.2797 128.323C86.4103 128.062 86.598 127.834 86.8288 127.654C87.056 127.48 87.3146 127.35 87.5907 127.273C87.8684 127.192 88.1562 127.151 88.4454 127.151C88.7299 127.15 89.0131 127.191 89.2857 127.273C89.5568 127.353 89.8109 127.482 90.0351 127.654C90.2637 127.836 90.451 128.064 90.5843 128.323C90.7358 128.644 90.8087 128.995 90.7969 129.349V143.273Z" fill="#012B5F"/>
<path d="M37.0539 139.913C37.0539 139.973 37.0395 139.981 37.0085 139.946C36.9796 139.898 36.9528 139.859 36.9342 139.822C36.8516 139.555 36.6878 139.026 36.4428 138.234C36.1992 137.439 35.9198 136.517 35.6046 135.468C35.2867 134.421 34.9509 133.322 34.5971 132.171C34.2399 131.021 33.9089 129.962 33.6041 128.995C33.2985 128.027 33.0425 127.224 32.8402 126.569C32.6379 125.917 32.5367 125.571 32.5367 125.531C32.4884 125.351 32.3929 125.187 32.26 125.056C32.1045 124.933 31.9086 124.873 31.7109 124.887H28.261V125.896C28.2489 126.184 28.3011 126.47 28.4138 126.735C28.4992 126.927 28.6244 127.1 28.7813 127.24C28.9301 127.386 29.1062 127.5 29.2995 127.577V134.801C29.0252 134.852 28.7774 134.997 28.599 135.211C28.4206 135.425 28.3229 135.696 28.3229 135.974C28.3229 136.253 28.4206 136.523 28.599 136.738C28.7774 136.952 29.0252 137.097 29.2995 137.148V147.75H31.9855V133.195C31.9855 133.073 31.9978 133.023 32.0144 133.042C32.0414 133.068 32.0632 133.098 32.0784 133.133C32.0784 133.151 32.1795 133.486 32.3819 134.126C32.5862 134.768 32.8402 135.565 33.1457 136.525C33.4513 137.481 33.7823 138.518 34.1388 139.636C34.4939 140.757 34.8297 141.811 35.1463 142.799C35.4622 143.782 35.7306 144.632 35.9535 145.332C36.1786 146.034 36.3107 146.433 36.352 146.538C36.4348 146.831 36.5418 147.117 36.672 147.393C36.722 147.498 36.8026 147.587 36.9035 147.647C37.0043 147.706 37.1208 147.734 37.2377 147.727H39.0091C39.1134 147.733 39.2178 147.715 39.3134 147.672C39.409 147.63 39.4929 147.565 39.5583 147.483C39.6779 147.326 39.7424 147.134 39.742 146.936V137.119C39.9911 137.049 40.2104 136.899 40.3665 136.692C40.5226 136.485 40.6071 136.233 40.6071 135.974C40.6071 135.716 40.5226 135.464 40.3665 135.257C40.2104 135.05 39.9911 134.9 39.742 134.83V127.79C39.7486 127.652 39.7845 127.518 39.8473 127.395C39.9028 127.305 39.9701 127.222 40.0476 127.15C40.234 127.001 40.3981 126.827 40.5348 126.631C40.7057 126.378 40.7911 126.077 40.7784 125.772V124.887L37.0539 124.916V139.913Z" fill="#012B5F"/>
<path d="M155.433 139.914C155.433 139.974 155.416 139.983 155.385 139.948C155.354 139.9 155.332 139.861 155.311 139.824C155.226 139.557 155.065 139.029 154.822 138.236C154.578 137.441 154.297 136.519 153.979 135.47C153.664 134.423 153.331 133.322 152.972 132.172C152.619 131.022 152.289 129.964 151.983 128.997C151.675 128.029 151.421 127.226 151.217 126.571C151.015 125.919 150.911 125.572 150.911 125.533C150.865 125.353 150.771 125.189 150.639 125.058C150.482 124.935 150.286 124.875 150.088 124.889H146.64V125.898C146.628 126.185 146.68 126.472 146.793 126.736C146.877 126.929 147.001 127.101 147.156 127.242C147.307 127.387 147.484 127.501 147.678 127.579V134.803C147.404 134.853 147.156 134.999 146.978 135.213C146.8 135.427 146.702 135.697 146.702 135.976C146.702 136.255 146.8 136.525 146.978 136.74C147.156 136.954 147.404 137.099 147.678 137.15V147.752H150.364V133.196C150.364 133.075 150.373 133.025 150.393 133.044C150.42 133.07 150.441 133.1 150.455 133.134C150.455 133.153 150.558 133.488 150.761 134.128C150.963 134.77 151.217 135.567 151.523 136.527C151.83 137.482 152.158 138.519 152.518 139.638C152.873 140.759 153.208 141.813 153.523 142.801C153.839 143.783 154.107 144.634 154.332 145.334C154.557 146.036 154.688 146.434 154.731 146.54C154.814 146.833 154.921 147.119 155.051 147.394C155.101 147.501 155.181 147.589 155.282 147.649C155.383 147.708 155.5 147.736 155.617 147.729H157.388C157.492 147.735 157.597 147.716 157.692 147.674C157.788 147.632 157.872 147.567 157.937 147.485C158.055 147.327 158.119 147.135 158.119 146.938V137.119C158.368 137.049 158.588 136.899 158.745 136.693C158.901 136.486 158.986 136.234 158.986 135.975C158.986 135.716 158.901 135.464 158.745 135.258C158.588 135.051 158.368 134.902 158.119 134.832V127.791C158.125 127.654 158.161 127.519 158.224 127.397C158.28 127.307 158.347 127.224 158.424 127.151C158.611 127.003 158.775 126.828 158.912 126.633C159.083 126.381 159.169 126.079 159.155 125.774V124.889L155.433 124.918V139.914Z" fill="#012B5F"/>
<path d="M169.723 136.524C169.238 136.094 168.721 135.703 168.174 135.355C168.201 135.257 168.216 135.156 168.218 135.054C168.217 134.737 168.091 134.432 167.866 134.208C167.642 133.984 167.338 133.857 167.02 133.857C166.743 133.858 166.475 133.956 166.262 134.135C166.165 134.069 166.062 134.005 165.967 133.941C165.457 133.612 164.977 133.239 164.532 132.826C164.36 132.685 164.218 132.509 164.118 132.309C164.018 132.11 163.961 131.891 163.95 131.668V128.644C163.949 128.426 164.026 128.215 164.167 128.049C164.319 127.867 164.506 127.717 164.716 127.607C164.937 127.485 165.173 127.394 165.418 127.335C165.647 127.274 165.883 127.242 166.12 127.24C166.351 127.242 166.581 127.267 166.808 127.314C167.051 127.365 167.286 127.447 167.507 127.56C167.717 127.667 167.9 127.818 168.044 128.004C168.186 128.186 168.261 128.412 168.257 128.644V129.775C168.252 130.004 168.295 130.232 168.386 130.443C168.476 130.653 168.61 130.843 168.779 130.997C169.124 131.321 169.584 131.496 170.057 131.484H171.432V129.222C171.447 128.524 171.313 127.831 171.038 127.19C170.785 126.631 170.403 126.141 169.923 125.759C169.42 125.374 168.85 125.083 168.242 124.903C167.563 124.705 166.859 124.607 166.151 124.614C165.45 124.608 164.752 124.695 164.074 124.874C163.474 125.033 162.912 125.313 162.424 125.697C161.949 126.082 161.573 126.575 161.326 127.134C161.047 127.794 160.912 128.506 160.932 129.222V131.394C160.908 132.16 161.103 132.916 161.493 133.576C161.874 134.177 162.354 134.71 162.914 135.149C163.485 135.595 164.088 135.999 164.718 136.357C164.647 136.51 164.61 136.677 164.609 136.846C164.608 137.092 164.683 137.332 164.824 137.534C164.965 137.735 165.164 137.888 165.395 137.972C165.626 138.056 165.878 138.066 166.115 138.002C166.352 137.937 166.564 137.801 166.721 137.612C167.212 137.951 167.653 138.359 168.028 138.824C168.41 139.317 168.61 139.928 168.593 140.552V143.789C168.596 144.047 168.515 144.299 168.362 144.508C168.202 144.728 168.001 144.914 167.77 145.057C167.521 145.21 167.255 145.334 166.977 145.424C166.711 145.514 166.432 145.56 166.151 145.561C165.872 145.559 165.595 145.517 165.327 145.437C165.053 145.362 164.79 145.249 164.547 145.102C164.323 144.966 164.127 144.789 163.967 144.582C163.816 144.379 163.736 144.133 163.74 143.88V142.569C163.751 142.369 163.721 142.169 163.65 141.981C163.579 141.794 163.47 141.623 163.329 141.481C162.978 141.203 162.536 141.067 162.09 141.099H160.624V143.393C160.608 144.096 160.76 144.792 161.068 145.424C161.349 145.988 161.757 146.478 162.259 146.857C162.785 147.247 163.381 147.533 164.014 147.699C165.416 148.063 166.886 148.063 168.288 147.699C168.925 147.532 169.525 147.246 170.057 146.857C170.569 146.479 170.988 145.989 171.281 145.424C171.597 144.795 171.754 144.097 171.738 143.393V140.397C171.752 139.636 171.552 138.886 171.16 138.233C170.768 137.596 170.284 137.019 169.723 136.524Z" fill="#012B5F"/>
<path d="M70.8534 136.308C70.7316 137.365 70.6098 138.406 70.488 139.421C70.3641 140.443 70.2526 141.345 70.1515 142.14C70.0482 142.933 69.9657 143.573 69.9079 144.065C69.8928 144.312 69.852 144.558 69.786 144.797C69.5383 143.313 69.3215 141.979 69.1274 140.798C68.9355 139.617 68.7214 138.3 68.4854 136.845C68.2521 135.389 68.014 133.954 67.771 132.538C67.5274 131.122 67.2962 129.813 67.0835 128.601C66.8688 127.389 66.6809 126.426 66.5199 125.713C66.4766 125.488 66.2907 125.308 65.9522 125.166C65.6296 125.026 65.2817 124.954 64.9302 124.955C64.6029 124.958 64.2782 125.013 63.9681 125.118C63.8272 125.15 63.6974 125.219 63.5927 125.319C63.488 125.418 63.4123 125.545 63.3735 125.684C63.2084 126.355 63.0225 127.296 62.8078 128.508C62.5952 129.72 62.3667 131.032 62.1224 132.445C61.8788 133.861 61.6393 135.301 61.4039 136.764C61.1707 138.234 60.9566 139.562 60.7619 140.749C60.5698 141.942 60.351 143.292 60.1053 144.797C60.0339 144.559 59.9883 144.313 59.9691 144.065C59.8968 143.573 59.8163 142.933 59.7234 142.14C59.6325 141.345 59.5252 140.443 59.4034 139.421C59.2816 138.406 59.1577 137.365 59.0359 136.308C58.753 133.822 57.7621 124.885 57.7621 124.885L54.0293 124.887V125.806C54.0186 126.105 54.0931 126.401 54.244 126.66C54.3588 126.855 54.5154 127.022 54.7024 127.15C54.8054 127.23 54.8977 127.323 54.977 127.426C55.0649 127.542 55.1269 127.676 55.1586 127.819C55.4559 130.364 55.7243 132.709 55.9762 134.869C55.735 134.968 55.5327 135.143 55.4003 135.367C55.268 135.592 55.2128 135.854 55.2432 136.113C55.2737 136.371 55.388 136.613 55.5689 136.801C55.7497 136.989 55.987 137.112 56.2446 137.152L56.2591 137.287C56.3994 138.486 56.5371 139.657 56.672 140.798C56.802 141.936 56.9231 142.959 57.0353 143.868C57.1489 144.773 57.2397 145.512 57.312 146.077C57.3842 146.649 57.4173 146.953 57.4173 146.994C57.441 147.167 57.5101 147.33 57.6175 147.467C57.671 147.542 57.7422 147.602 57.8247 147.642C57.9073 147.683 57.9985 147.702 58.0903 147.698H61.5423C61.6364 147.704 61.7307 147.691 61.8196 147.659C61.9086 147.628 61.9905 147.58 62.0605 147.516C62.2094 147.347 62.3231 147.15 62.3949 146.936L64.9921 132.063L67.5274 146.936C67.5984 147.15 67.7122 147.348 67.8619 147.516C67.9321 147.58 68.0143 147.629 68.1036 147.66C68.193 147.691 68.2877 147.704 68.3821 147.698H71.8011C71.8929 147.702 71.9842 147.683 72.0668 147.643C72.1494 147.602 72.2205 147.542 72.2738 147.467C72.3799 147.329 72.4482 147.166 72.472 146.994C72.472 146.953 72.5071 146.649 72.5794 146.077C72.6516 145.512 72.7425 144.773 72.856 143.868C72.9634 142.96 73.0873 141.936 73.2215 140.798C73.3536 139.655 73.4905 138.484 73.6323 137.287L73.6468 137.152C73.9031 137.111 74.1389 136.986 74.3185 136.799C74.498 136.611 74.6115 136.37 74.6419 136.112C74.6722 135.854 74.6177 135.593 74.4866 135.369C74.3554 135.145 74.1549 134.969 73.9152 134.869C74.1629 132.709 74.4354 130.366 74.7327 127.819C74.7634 127.675 74.8262 127.541 74.9165 127.426C74.9944 127.322 75.0861 127.229 75.189 127.15C75.4062 127.001 75.5818 126.8 75.6993 126.565C75.8167 126.33 75.872 126.068 75.86 125.806V124.887L72.1417 124.899C72.1417 124.899 71.1383 133.822 70.8534 136.308Z" fill="#012B5F"/>
<path d="M143.873 135.975C143.872 135.691 143.771 135.417 143.587 135.201C143.403 134.985 143.148 134.842 142.867 134.796C142.725 133.991 142.58 133.184 142.442 132.401C142.248 131.301 142.075 130.309 141.924 129.424C141.771 128.539 141.644 127.811 141.542 127.24C141.441 126.67 141.389 126.344 141.389 126.264C141.349 125.895 141.175 125.554 140.902 125.303C140.751 125.162 140.574 125.052 140.38 124.98C140.186 124.909 139.979 124.877 139.773 124.886H135.679V125.593C135.679 126.466 135.933 127.007 136.442 127.211C136.492 127.232 136.534 127.268 136.562 127.315C136.589 127.361 136.601 127.415 136.595 127.469C136.594 127.617 136.584 127.765 136.564 127.911C136.564 127.932 136.521 128.186 136.428 128.675C136.335 129.166 136.213 129.806 136.061 130.599C135.91 131.392 135.742 132.293 135.557 133.302C135.468 133.787 135.377 134.282 135.284 134.78C135.01 134.784 134.745 134.883 134.535 135.06C134.324 135.237 134.182 135.481 134.13 135.751C134.079 136.021 134.123 136.301 134.254 136.542C134.384 136.784 134.595 136.973 134.849 137.078C134.269 140.177 132.885 147.727 132.885 147.727H135.792C135.792 147.727 136.637 142.578 136.657 142.479C136.696 142.07 136.88 141.867 137.206 141.867H140.687C140.848 141.862 141.007 141.903 141.146 141.985C141.217 142.047 141.275 142.123 141.317 142.207C141.359 142.292 141.383 142.384 141.389 142.479C141.389 142.578 142.073 147.727 142.073 147.727L145.151 147.749C145.151 147.749 143.887 140.573 143.26 137.012C143.445 136.909 143.599 136.759 143.707 136.577C143.815 136.394 143.872 136.187 143.873 135.975ZM140.778 139.181C140.737 139.23 140.686 139.268 140.628 139.294C140.57 139.319 140.507 139.331 140.444 139.328H137.572C137.514 139.329 137.457 139.318 137.404 139.294C137.351 139.271 137.304 139.236 137.266 139.192C137.225 139.145 137.196 139.089 137.18 139.028C137.165 138.967 137.164 138.904 137.177 138.843C137.177 138.824 137.202 138.649 137.252 138.323C137.303 137.998 137.367 137.581 137.452 137.071C137.531 136.564 137.623 135.988 137.725 135.348C137.826 134.703 137.939 134.051 138.061 133.376L138.976 128.064H139.04L139.954 133.376C140.076 134.051 140.188 134.703 140.293 135.348C140.392 135.988 140.483 136.564 140.565 137.071C140.646 137.581 140.718 137.998 140.778 138.323C140.84 138.649 140.869 138.824 140.869 138.843C140.88 138.903 140.877 138.964 140.862 139.022C140.846 139.081 140.817 139.135 140.778 139.181Z" fill="#012B5F"/>
<path d="M107.131 145.376C107.03 145.314 106.945 145.258 106.873 145.208C106.801 145.159 106.766 145.031 106.766 144.826V139.605C106.776 138.91 106.662 138.219 106.429 137.563C106.234 136.991 105.874 136.49 105.393 136.124C105.168 135.903 105.149 135.699 105.331 135.515C105.77 135.154 106.124 134.7 106.367 134.186C106.636 133.63 106.773 133.019 106.766 132.402V129.988C106.772 129.291 106.68 128.597 106.491 127.926C106.321 127.335 106.024 126.788 105.62 126.324C105.204 125.861 104.687 125.502 104.109 125.273C103.398 124.997 102.64 124.866 101.879 124.887H95.5923V125.773C95.5692 126.114 95.649 126.455 95.8215 126.751C95.9416 126.946 96.1021 127.112 96.2922 127.238C96.3788 127.286 96.4525 127.354 96.5069 127.437C96.5741 127.552 96.6063 127.685 96.5998 127.819V134.807C96.3314 134.863 96.0904 135.01 95.9175 135.223C95.7446 135.436 95.6501 135.701 95.6501 135.976C95.6501 136.25 95.7446 136.516 95.9175 136.729C96.0904 136.941 96.3314 137.088 96.5998 137.144V147.725L99.5893 147.742V137.683C99.5893 137.398 99.7235 137.254 99.9877 137.254H101.879C102.147 137.23 102.416 137.272 102.664 137.377C102.912 137.481 103.131 137.644 103.301 137.852C103.623 138.344 103.778 138.926 103.743 139.512V146.23C103.724 146.437 103.752 146.645 103.824 146.839C103.896 147.033 104.011 147.208 104.161 147.352C104.31 147.495 104.49 147.604 104.687 147.668C104.884 147.733 105.092 147.752 105.298 147.725H107.833V146.536C107.861 146.256 107.779 145.977 107.604 145.758C107.461 145.613 107.302 145.485 107.131 145.376ZM103.743 132.402C103.772 133.003 103.618 133.599 103.301 134.111C103.138 134.33 102.922 134.504 102.673 134.616C102.424 134.728 102.151 134.775 101.879 134.751H99.9568C99.867 134.748 99.7808 134.715 99.7111 134.658C99.6725 134.631 99.6411 134.595 99.6199 134.553C99.5986 134.511 99.5881 134.464 99.5893 134.417V127.878C99.5893 127.598 99.7524 127.457 100.077 127.457H101.879C102.149 127.435 102.421 127.48 102.669 127.589C102.918 127.697 103.135 127.867 103.301 128.081C103.62 128.586 103.774 129.177 103.743 129.774V132.402Z" fill="#012B5F"/>
<path d="M116.687 138.773C116.527 138.861 116.397 138.996 116.315 139.16C116.233 139.324 116.203 139.508 116.228 139.689C116.228 139.809 116.255 144.975 116.185 145.086C116.151 145.14 116.104 145.184 116.048 145.214C115.992 145.243 115.928 145.257 115.865 145.253H113.177C113.114 145.258 113.051 145.242 112.996 145.21C112.941 145.178 112.898 145.129 112.871 145.072C112.808 144.938 112.777 144.791 112.781 144.642L112.75 127.851C112.737 127.695 112.764 127.539 112.826 127.395C112.884 127.305 112.962 127.231 113.055 127.178C113.243 127.031 113.407 126.857 113.542 126.66C113.715 126.409 113.801 126.109 113.788 125.805V124.889H108.689V125.805C108.677 126.109 108.763 126.409 108.934 126.66C109.07 126.856 109.233 127.03 109.419 127.178C109.515 127.234 109.598 127.307 109.665 127.395C109.74 127.535 109.772 127.694 109.756 127.851V134.801C109.485 134.855 109.241 135.001 109.065 135.215C108.89 135.429 108.794 135.697 108.794 135.973C108.794 136.25 108.89 136.518 109.065 136.732C109.241 136.946 109.485 137.092 109.756 137.146V147.727H118.427C118.611 147.72 118.785 147.644 118.916 147.516C118.998 147.444 119.061 147.354 119.104 147.254C119.146 147.153 119.165 147.045 119.16 146.936V138.562H117.878C117.471 138.55 117.065 138.622 116.687 138.773Z" fill="#012B5F"/>
<path d="M51.8275 124.913C51.7785 124.9 51.7277 124.893 51.6768 124.893H51.621L51.619 124.889H41.9383V125.774C41.9219 126.099 41.9798 126.423 42.1075 126.722C42.2063 126.933 42.3728 127.104 42.5803 127.209C42.6864 127.273 42.7795 127.357 42.8549 127.455C42.9442 127.578 42.988 127.728 42.9788 127.88V134.801C42.7071 134.854 42.4625 135 42.2867 135.214C42.1108 135.428 42.0147 135.696 42.0147 135.973C42.0147 136.25 42.1108 136.518 42.2867 136.732C42.4625 136.946 42.7071 137.092 42.9788 137.146V147.727H51.6768C51.7522 147.728 51.8268 147.712 51.8956 147.681C52.0026 147.647 52.1011 147.591 52.1847 147.516C52.2594 147.445 52.3183 147.359 52.3575 147.264C52.3966 147.169 52.4151 147.066 52.4118 146.963V140.501H51.1276C50.7197 140.49 50.3138 140.561 49.9343 140.711C49.7744 140.801 49.6452 140.936 49.5634 141.1C49.4817 141.264 49.4512 141.449 49.476 141.63C49.476 141.752 49.5049 144.975 49.4347 145.086C49.4009 145.14 49.3531 145.184 49.2965 145.214C49.2398 145.243 49.1763 145.257 49.1126 145.253H46.3378C46.0921 145.253 45.9703 145.111 45.9703 144.828V137.714C45.9703 137.427 46.121 137.288 46.4266 137.288H50.0933C50.3947 137.288 50.5516 137.146 50.5516 136.855V135.15C50.5565 135.081 50.5435 135.012 50.5138 134.951C50.4841 134.889 50.4388 134.836 50.3823 134.796C50.2862 134.732 50.1739 134.695 50.0582 134.691H46.4266C46.121 134.691 45.9703 134.549 45.9703 134.264V127.88C45.9701 127.82 45.982 127.761 46.0054 127.706C46.0289 127.651 46.0633 127.601 46.1066 127.56C46.1435 127.519 46.1883 127.486 46.2383 127.463C46.2884 127.44 46.3426 127.427 46.3977 127.426H49.3191C49.3654 127.45 49.4051 127.486 49.4347 127.529C49.5049 127.641 49.476 130.864 49.476 130.987C49.4512 131.169 49.4817 131.353 49.5635 131.517C49.6452 131.68 49.7745 131.815 49.9343 131.904C50.3132 132.056 50.7193 132.13 51.1276 132.119H52.4118V125.562C52.4087 125.474 52.3881 125.388 52.3512 125.309C52.3143 125.229 52.2619 125.158 52.197 125.099C52.0956 125.001 51.9667 124.936 51.8275 124.913Z" fill="#012B5F"/>
<path d="M130.315 124.913C130.265 124.899 130.214 124.892 130.162 124.893H130.107V124.889H120.424V125.774C120.408 126.099 120.466 126.423 120.593 126.722C120.692 126.933 120.858 127.104 121.066 127.209C121.172 127.273 121.265 127.357 121.34 127.455C121.43 127.578 121.474 127.728 121.464 127.88V134.801C121.193 134.854 120.948 135 120.772 135.214C120.596 135.428 120.5 135.696 120.5 135.973C120.5 136.25 120.596 136.518 120.772 136.732C120.948 136.946 121.193 137.092 121.464 137.146V147.727H130.162C130.238 147.728 130.314 147.712 130.383 147.681C130.49 147.647 130.587 147.591 130.67 147.516C130.745 147.446 130.805 147.36 130.844 147.264C130.883 147.169 130.901 147.066 130.897 146.963V140.501H129.613C129.206 140.49 128.801 140.561 128.422 140.711C128.262 140.8 128.132 140.936 128.05 141.1C127.969 141.264 127.938 141.449 127.964 141.63C127.964 141.752 127.992 144.975 127.92 145.086C127.886 145.14 127.839 145.184 127.783 145.213C127.727 145.243 127.664 145.256 127.6 145.253H124.821C124.578 145.253 124.456 145.111 124.456 144.828V137.714C124.456 137.427 124.609 137.288 124.912 137.288H128.579C128.882 137.288 129.035 137.146 129.035 136.855V135.15C129.041 135.081 129.028 135.012 128.998 134.95C128.969 134.888 128.923 134.835 128.866 134.796C128.771 134.732 128.66 134.695 128.546 134.691H124.912C124.609 134.691 124.456 134.549 124.456 134.264V127.88C124.456 127.82 124.468 127.761 124.491 127.706C124.514 127.651 124.549 127.601 124.592 127.56C124.629 127.52 124.674 127.487 124.724 127.464C124.774 127.441 124.828 127.428 124.883 127.426H127.805C127.851 127.45 127.891 127.485 127.92 127.529C127.992 127.641 127.964 130.864 127.964 130.987C127.938 131.169 127.969 131.353 128.05 131.517C128.132 131.68 128.262 131.815 128.422 131.904C128.8 132.056 129.206 132.13 129.613 132.119H130.897V125.562C130.895 125.474 130.874 125.388 130.838 125.309C130.801 125.229 130.749 125.158 130.685 125.099C130.583 125.002 130.454 124.937 130.315 124.913Z" fill="#012B5F"/>
<path d="M111.263 41.0199C110.037 43.3239 111.769 45.8943 112.504 46.999C114.76 50.0788 116.051 53.7593 116.212 57.5736C116.232 60.0343 115.634 62.4605 114.472 64.6294C113.309 66.7982 111.62 68.6401 109.56 69.9858C111.596 66.9765 112.633 63.4022 112.523 59.7703C112.523 49.0181 106.079 45.1285 106.079 45.1285C106.079 45.1285 105.924 45.7726 105.532 45.7726C104.138 45.2893 102.791 44.6813 101.506 43.9559C101 43.6834 100.296 43.2724 100.051 43.1301C100.051 43.1301 98.9999 43.6834 98.4962 43.9559C97.2119 44.682 95.8644 45.2901 94.4703 45.7726C94.078 45.7726 93.9211 45.1285 93.9211 45.1285C93.9211 45.1285 87.4797 49.0181 87.4797 59.7703C87.3694 63.4022 88.4061 66.9764 90.4423 69.9858C88.3822 68.6399 86.6933 66.798 85.5306 64.6293C84.3679 62.4605 83.7688 60.0343 83.7883 57.5736C83.9511 53.7593 85.2423 50.0791 87.4983 46.9991C88.2353 45.8945 89.9654 43.3242 88.7391 41.02C88.2818 40.3232 87.6304 39.7755 86.8655 39.4446C86.1005 39.1137 85.2554 39.014 84.4345 39.1578C66.8238 39.453 28.7265 47.1373 2.7915 62.2478C4.08945 64.3456 5.92513 66.0578 8.10806 67.2068C10.291 68.3558 12.7416 68.8997 15.2057 68.7821C13.9339 69.4036 12.6649 70.0408 11.3986 70.6939C12.8303 72.7014 14.7948 74.2685 17.0702 75.2181C19.3457 76.1678 21.8414 76.4621 24.2753 76.0679C22.762 76.7844 21.2549 77.518 19.7539 78.2687C21.437 80.302 23.5781 81.9073 26.0016 82.9531C28.425 83.9989 31.0619 84.4553 33.6959 84.2849C31.4868 85.3997 30.1531 86.1099 30.1614 86.1079C32.4122 88.0412 35.0668 89.4471 37.9309 90.2226C40.7949 90.9981 43.7961 91.1236 46.715 90.59C45.6104 91.3952 44.4956 92.2479 43.1763 93.1687C48.2247 95.7021 53.9079 96.6909 59.5153 96.0116C58.3756 96.8766 57.238 97.7458 56.1005 98.6294C56.0798 98.5097 69.6233 102.335 79.2586 98.0906C79.6158 97.9337 79.9585 97.7541 80.3012 97.5765C81.4849 101.893 84.0537 105.702 87.6128 108.417C91.1719 111.132 95.5242 112.602 100 112.602C104.477 112.603 108.829 111.133 112.389 108.418C115.948 105.704 118.517 101.895 119.701 97.5786C120.046 97.7541 120.385 97.9337 120.742 98.0906C130.377 102.335 143.919 98.5097 143.902 98.6294C142.767 97.7458 141.627 96.8766 140.485 96.0116C146.092 96.6918 151.775 95.7029 156.822 93.1687C155.509 92.2479 154.394 91.3952 153.287 90.59C156.206 91.1239 159.206 90.9984 162.07 90.2229C164.933 89.4474 167.587 88.0414 169.837 86.1079C169.845 86.1099 168.514 85.3997 166.307 84.2849C168.941 84.4549 171.577 83.9984 174.001 82.9526C176.424 81.9069 178.565 80.3017 180.249 78.2687C178.748 77.5151 177.239 76.7815 175.723 76.0679C178.157 76.4623 180.653 76.1681 182.929 75.2184C185.205 74.2688 187.17 72.7016 188.602 70.6939C187.338 70.0414 186.071 69.4041 184.799 68.7821C187.263 68.8992 189.713 68.355 191.895 67.206C194.078 66.057 195.913 64.3451 197.211 62.2478C171.274 47.1373 133.177 39.453 115.57 39.1578C113.446 39.1206 112.005 39.6387 111.263 41.0199Z" fill="#012B5F"/>
<path d="M115.603 37.038L115.368 37.0359C114.19 36.9084 113 37.1222 111.94 37.6519C110.881 38.1815 109.996 39.0047 109.391 40.0233C109.01 40.7575 108.782 41.5612 108.721 42.3859C108.66 43.2106 108.767 44.0392 109.036 44.8214C108.664 44.4208 108.252 44.0603 107.805 43.7457C106.816 43.0204 105.771 42.3736 104.681 41.8112C104.681 41.8112 104.904 43.2007 104.392 43.0355C104.099 42.9328 103.81 42.8142 103.529 42.6804C102.094 41.9991 100.018 40.748 100.018 40.748C100.018 40.748 97.9076 41.9991 96.4748 42.6804C96.1929 42.8139 95.9041 42.9324 95.6097 43.0355C95.0998 43.2006 95.3207 41.8112 95.3207 41.8112C94.2314 42.3739 93.1877 43.0207 92.1991 43.7457C91.7514 44.0598 91.3383 44.4203 90.9665 44.8214C91.2355 44.0393 91.3427 43.2107 91.2817 42.3859C91.2206 41.5611 90.9926 40.7573 90.6114 40.0233C90.0065 39.0047 89.1214 38.1815 88.0617 37.6519C87.002 37.1222 85.8123 36.9084 84.6345 37.0359L84.4012 37.038C66.7327 37.3353 28.237 44.9679 1.72804 60.415L0 61.4844C0.833963 63.4516 2.06717 65.2242 3.62159 66.6901C5.176 68.156 7.01778 69.2833 9.03038 70.0007L8.15501 70.4219C8.15501 70.4219 11.7845 76.3141 17.4311 77.5364L16.3534 77.9844C19.0853 82.0075 23.2819 84.803 28.047 85.7739L26.9074 86.3314C30.656 90.0533 35.5894 92.3454 40.8514 92.81L39.6271 93.7431C43.8513 96.2807 48.5755 97.8719 53.4741 98.407L52.1466 99.5879C52.1466 99.5879 66.774 104.937 79.0251 100.48C80.7011 104.676 83.5939 108.274 87.3316 110.812C91.0693 113.351 95.4809 114.713 99.999 114.723H100.003C104.521 114.713 108.933 113.351 112.671 110.812C116.409 108.274 119.303 104.676 120.979 100.48C133.226 104.937 147.855 99.5879 147.855 99.5879L146.53 98.407C151.428 97.8714 156.153 96.2802 160.377 93.7431L159.149 92.81C164.41 92.347 169.344 90.0546 173.091 86.3314L171.955 85.7739C176.72 84.8038 180.917 82.0081 183.649 77.9844L182.571 77.5364C188.213 76.3141 191.847 70.4219 191.847 70.4219L190.974 70.0007C192.986 69.2832 194.827 68.1558 196.381 66.6899C197.934 65.2239 199.167 63.4514 200 61.4844L198.274 60.415C171.765 44.9679 133.271 37.3353 115.603 37.038ZM184.799 68.7826C186.07 69.4041 187.338 70.0414 188.602 70.6944C187.17 72.7021 185.205 74.2692 182.929 75.2189C180.653 76.1686 178.157 76.4628 175.723 76.0685C177.238 76.7848 178.747 77.5184 180.248 78.2693C178.565 80.3023 176.424 81.9074 174.001 82.9531C171.577 83.9989 168.94 84.4554 166.306 84.2854C168.513 85.4003 169.845 86.1105 169.837 86.1084C167.587 88.0419 164.933 89.4479 162.07 90.2234C159.206 90.999 156.205 91.1244 153.287 90.5906C154.394 91.3957 155.509 92.2505 156.822 93.1713C151.774 95.7031 146.091 96.6912 140.485 96.0121C141.627 96.8771 142.766 97.7463 143.902 98.6299C143.918 98.5123 130.377 102.336 120.742 98.0911C120.384 97.9342 120.046 97.7546 119.701 97.5791C118.517 101.896 115.948 105.704 112.388 108.419C108.829 111.133 104.477 112.603 100 112.603C95.524 112.603 91.1717 111.132 87.6126 108.417C84.0535 105.703 81.4847 101.894 80.301 97.577C79.9583 97.7546 79.6156 97.9342 79.2584 98.0911C69.6231 102.336 56.0796 98.5123 56.1023 98.6299C57.2378 97.7463 58.3754 96.8771 59.515 96.0121C53.9079 96.6903 48.2252 95.7023 43.1761 93.1713C44.4954 92.2505 45.6102 91.3957 46.7148 90.5906C43.7959 91.1241 40.7947 90.9986 37.9306 90.2231C35.0666 89.4476 32.412 88.0418 30.1611 86.1084C30.1529 86.1105 31.4866 85.4003 33.6957 84.2854C31.0617 84.4558 28.4248 83.9994 26.0013 82.9536C23.5778 81.9079 21.4368 80.3025 19.7537 78.2693C21.2567 77.5157 22.7638 76.7821 24.2751 76.0685C21.8412 76.4623 19.3456 76.1677 17.0702 75.2181C14.7948 74.2685 12.8303 72.7016 11.3984 70.6944C12.664 70.042 13.933 69.4047 15.2055 68.7826C12.7414 68.9003 10.2908 68.3564 8.10783 67.2074C5.9249 66.0584 4.08922 64.3461 2.79128 62.2483C28.7263 47.1378 66.8256 39.4535 84.4343 39.1583C85.2552 39.0145 86.1003 39.1142 86.8653 39.4451C87.6302 39.7761 88.2815 40.3237 88.7389 41.0205C89.9652 43.3245 88.2351 45.8949 87.4981 46.9995C85.2421 50.0795 83.951 53.7598 83.788 57.5741C83.7686 60.0348 84.3677 62.461 85.5304 64.6298C86.693 66.7985 88.382 68.6404 90.4421 69.9863C88.4058 66.977 87.3692 63.4027 87.4795 59.7708C87.4795 49.0186 93.9209 45.129 93.9209 45.129C93.9209 45.129 94.0778 45.7731 94.4701 45.7731C95.8642 45.2905 97.2117 44.6824 98.496 43.9563C98.9997 43.6838 100.051 43.1305 100.051 43.1305C100.298 43.2729 101 43.6838 101.506 43.9563C102.791 44.6817 104.138 45.2897 105.532 45.7731C105.924 45.7731 106.079 45.129 106.079 45.129C106.079 45.129 112.523 49.0186 112.523 59.7708C112.633 63.4027 111.596 66.977 109.56 69.9863C111.62 68.641 113.31 66.7991 114.472 64.6302C115.634 62.4613 116.233 60.0348 116.212 57.5741C116.051 53.7598 114.76 50.0793 112.504 46.9995C111.769 45.8949 110.037 43.3245 111.263 41.0205C112.004 39.6393 113.445 39.1211 115.57 39.1583C133.176 39.4535 171.274 47.1379 197.211 62.2483C195.913 64.3456 194.077 66.0576 191.895 67.2065C189.712 68.3555 187.262 68.8997 184.799 68.7826Z" fill="#B6975B"/>
<path d="M71.9491 53.2227C58.5909 55.1681 45.4419 58.3481 32.6709 62.7217C35.9763 68.6036 44.9447 66.1344 44.9447 66.1344C61.7709 61.3735 69.2797 59.759 71.689 59.2925C71.5961 57.2655 71.6831 55.2343 71.9491 53.2227Z" fill="#B6975B"/>
<path d="M72.0956 62.8906C61.4709 64.9977 51.0248 67.9223 40.8506 71.6383C40.8506 71.6383 45.2729 76.6757 54.0431 74.1859C61.4219 72.0946 70.8817 69.0762 73.7039 68.1719C72.9608 66.4813 72.4209 64.7084 72.0956 62.8906Z" fill="#B6975B"/>
<path d="M75.1776 70.9531C72.1799 71.9214 57.1953 76.7752 50.8716 79.2052C50.8716 79.2052 54.5011 84.0713 64.9766 79.9463C72.2728 77.0725 76.2946 75.394 78.066 74.6384C76.9778 73.5136 76.0098 72.2785 75.1776 70.9531Z" fill="#B6975B"/>
<path d="M80.3813 76.7559C77.7635 77.8934 68.0394 82.1423 62.4155 84.8489C62.4155 84.8489 69.4928 88.3277 78.3973 82.8277L83.9324 79.1941C82.6894 78.4713 81.5024 77.6563 80.3813 76.7559Z" fill="#B6975B"/>
<path d="M128.052 53.2227C141.411 55.1683 154.56 58.3482 167.332 62.7217C164.027 68.6036 155.058 66.1344 155.058 66.1344C138.23 61.3735 130.723 59.759 128.314 59.2925C128.406 57.2654 128.318 55.2342 128.052 53.2227Z" fill="#B6975B"/>
<path d="M127.907 62.8906C138.532 64.9977 148.978 67.9223 159.152 71.6383C159.152 71.6383 154.728 76.6757 145.958 74.1859C138.581 72.0946 129.121 69.0762 126.299 68.1719C127.04 66.4806 127.58 64.708 127.907 62.8906Z" fill="#B6975B"/>
<path d="M124.825 70.9531C127.821 71.9214 142.807 76.7752 149.129 79.2052C149.129 79.2052 145.502 84.0713 135.026 79.9463C127.728 77.0725 123.708 75.394 121.935 74.6384C123.023 73.5136 123.992 72.2785 124.825 70.9531Z" fill="#B6975B"/>
<path d="M119.621 76.7559C122.237 77.8934 131.961 82.1423 137.585 84.8489C137.585 84.8489 130.51 88.3277 121.603 82.8277L116.07 79.1941C117.313 78.4708 118.5 77.6558 119.621 76.7559Z" fill="#B6975B"/>
<path d="M71.9491 53.2227C58.5909 55.1681 45.4419 58.3481 32.6709 62.7217C35.9763 68.6036 44.9447 66.1344 44.9447 66.1344C61.7709 61.3735 69.2797 59.759 71.689 59.2925C71.5961 57.2655 71.6831 55.2343 71.9491 53.2227Z" fill="#B6975B"/>
<path d="M72.0956 62.8906C61.4709 64.9977 51.0248 67.9223 40.8506 71.6383C40.8506 71.6383 45.2729 76.6757 54.0431 74.1859C61.4219 72.0946 70.8817 69.0762 73.7039 68.1719C72.9608 66.4813 72.4209 64.7084 72.0956 62.8906Z" fill="#B6975B"/>
<path d="M75.1776 70.9531C72.1799 71.9214 57.1953 76.7752 50.8716 79.2052C50.8716 79.2052 54.5011 84.0713 64.9766 79.9463C72.2728 77.0725 76.2946 75.394 78.066 74.6384C76.9778 73.5136 76.0098 72.2785 75.1776 70.9531Z" fill="#B6975B"/>
<path d="M80.3813 76.7559C77.7635 77.8934 68.0394 82.1423 62.4155 84.8489C62.4155 84.8489 69.4928 88.3277 78.3973 82.8277L83.9324 79.1941C82.6894 78.4713 81.5024 77.6563 80.3813 76.7559Z" fill="#B6975B"/>
<path d="M128.052 53.2227C141.411 55.1683 154.56 58.3482 167.332 62.7217C164.027 68.6036 155.058 66.1344 155.058 66.1344C138.23 61.3735 130.723 59.759 128.314 59.2925C128.406 57.2654 128.318 55.2342 128.052 53.2227Z" fill="#B6975B"/>
<path d="M127.907 62.8906C138.532 64.9977 148.978 67.9223 159.152 71.6383C159.152 71.6383 154.728 76.6757 145.958 74.1859C138.581 72.0946 129.121 69.0762 126.299 68.1719C127.04 66.4806 127.58 64.708 127.907 62.8906Z" fill="#B6975B"/>
<path d="M124.825 70.9531C127.821 71.9214 142.807 76.7752 149.129 79.2052C149.129 79.2052 145.502 84.0713 135.026 79.9463C127.728 77.0725 123.708 75.394 121.935 74.6384C123.023 73.5136 123.992 72.2785 124.825 70.9531Z" fill="#B6975B"/>
<path d="M119.621 76.7559C122.237 77.8934 131.961 82.1423 137.585 84.8489C137.585 84.8489 130.51 88.3277 121.603 82.8277L116.07 79.1941C117.313 78.4708 118.5 77.6558 119.621 76.7559Z" fill="#B6975B"/>
<path d="M73.8677 89.0188C75.7754 89.6549 77.8245 89.7358 79.7764 89.2521C80.0262 87.4576 80.5143 85.7044 81.2278 84.0391C78.6327 85.7196 75.7402 87.6355 73.8677 89.0188Z" fill="#B6975B"/>
<path d="M126.133 89.0186C124.261 87.6353 121.372 85.7194 118.777 84.041C119.491 85.7063 119.979 87.4595 120.229 89.254C122.179 89.7365 124.227 89.6548 126.133 89.0186Z" fill="#B6975B"/>
<path d="M85.5669 44.5964C86.9398 42.633 86.2503 41.8464 81.0476 42.3377C56.6796 44.8014 32.928 51.4966 10.8608 62.1224C11.9033 62.652 13.0515 62.9404 14.2205 62.9661C15.3895 62.9918 16.5493 62.7543 17.614 62.271C18.9869 61.7797 21.3447 60.799 21.3447 60.799C54.9309 47.2452 79.431 46.2315 79.431 46.2315C72.5375 63.132 81.2293 72.0963 87.3961 76.0685C87.6748 75.8496 87.9576 75.6349 88.2488 75.4305C72.362 61.598 84.5222 46.087 85.5669 44.5964Z" fill="white"/>
<path d="M118.954 42.3377C113.749 41.8464 113.061 42.633 114.434 44.5965C115.481 46.085 127.639 61.5981 111.754 75.4286C112.045 75.633 112.328 75.8477 112.607 76.0665C118.774 72.0943 127.466 63.1321 120.57 46.2296C120.57 46.2296 145.074 47.2453 178.656 60.7971C178.656 60.7971 181.014 61.7798 182.389 62.2712C183.454 62.7534 184.613 62.9902 185.782 62.9641C186.95 62.938 188.098 62.6497 189.14 62.1205C167.073 51.4958 143.321 44.8012 118.954 42.3377Z" fill="white"/>
<path d="M105.475 104.051C104.503 104.308 103.513 104.493 102.514 104.604C102.193 105.189 101.907 105.791 101.655 106.409L101.267 107.402V109.6C103.503 109.442 105.687 108.852 107.698 107.864C106.571 106.862 105.792 105.526 105.475 104.051Z" fill="#B6975B"/>
<path d="M97.4929 104.602C96.4931 104.491 95.5028 104.306 94.5303 104.049C94.2143 105.525 93.4344 106.861 92.3047 107.862C94.3164 108.85 96.5001 109.441 98.7358 109.6V107.387L98.3456 106.396C98.0964 105.782 97.8117 105.183 97.4929 104.602Z" fill="#B6975B"/>
<path d="M96.5591 64.5583L96.5901 64.5067C96.8385 64.0307 96.9154 63.4837 96.8078 62.9577C96.7003 62.4316 96.4149 61.9587 95.9996 61.6184C95.9996 61.6184 92.6261 62.3265 92.5415 57.8526C92.5524 57.3542 92.4175 56.8633 92.1534 56.4405C92.1534 56.4405 93.0184 55.6539 94.8971 57.0681C96.78 58.4782 97.804 62.4814 98.826 61.542C99.8314 60.6088 99.4701 55.3937 99.9966 55.1976C100.515 55.3937 100.158 60.6088 101.167 61.542C102.189 62.4814 103.205 58.4782 105.094 57.0681C106.971 55.6539 107.838 56.4405 107.838 56.4405C107.576 56.8646 107.439 57.3541 107.443 57.8526C107.367 62.3265 103.994 61.6184 103.994 61.6184C103.579 61.9571 103.294 62.4291 103.187 62.9541C103.081 63.4791 103.159 64.0248 103.409 64.4984C103.418 64.5177 103.429 64.5357 103.442 64.5521C105.571 62.2667 107.229 61.3562 108.147 61.7216C108.156 61.703 108.164 61.6865 108.17 61.6679C108.938 60.257 109.277 58.6526 109.147 57.0516C109.171 54.2482 108.172 51.5321 106.337 49.4127C106.337 49.4127 106.294 50.3562 104.704 49.2992C103.322 48.3293 101.674 47.8094 99.9853 47.8105C98.2968 47.8117 96.6497 48.3337 95.2688 49.3054C93.7327 50.3478 93.6584 49.4126 93.6584 49.4126C91.8281 51.5346 90.831 54.2492 90.8527 57.0515C90.7526 58.6072 91.0667 60.1616 91.7631 61.5563C91.7859 61.6141 91.8086 61.6699 91.8333 61.7277C92.7479 61.3437 94.414 62.2543 96.5591 64.5583Z" fill="white"/>
<path d="M94.9843 60.103C94.8472 60.0653 94.7307 59.9748 94.6603 59.8513C94.5898 59.7279 94.5712 59.5816 94.6085 59.4444C94.6384 59.3349 94.7065 59.2397 94.8005 59.176C94.5973 58.9454 94.3696 58.7378 94.1213 58.5566C94.1213 58.5566 93.6464 60.7533 95.6098 60.52C95.5513 60.3562 95.4795 60.1974 95.3951 60.0452C95.2711 60.1179 95.1235 60.1387 94.9843 60.103Z" fill="#C8102E"/>
<path d="M105.88 58.5566C105.632 58.7376 105.404 58.9445 105.2 59.1739C105.29 59.2419 105.357 59.3355 105.392 59.4423C105.421 59.5455 105.418 59.6548 105.384 59.7563C105.35 59.8577 105.286 59.9466 105.201 60.0115C105.116 60.0764 105.013 60.1143 104.906 60.1203C104.8 60.1263 104.693 60.1001 104.602 60.0452C104.52 60.197 104.45 60.3551 104.393 60.518C106.354 60.7533 105.88 58.5566 105.88 58.5566Z" fill="#C8102E"/>
<path d="M97.2709 85.8576C95.8257 78.2538 94.684 72.6299 93.7652 68.5504C93.0612 65.433 94.9358 66.68 95.9454 68.6288L97.2709 85.8576Z" fill="#C8102E"/>
<path d="M102.733 85.8576C104.18 78.2538 105.32 72.6299 106.239 68.5504C106.938 65.433 105.068 66.68 104.058 68.6288L102.733 85.8576Z" fill="#C8102E"/>
<path d="M100.921 88.677C101.545 76.9298 102.48 68.6115 102.48 67.5731C102.48 67.1099 102.415 66.6491 102.286 66.2043L101.603 68.4381L101.392 64.4907C100.99 63.9899 100.518 63.5485 99.9923 63.1797H99.9551C99.4447 63.5477 98.9912 63.9887 98.609 64.4886L98.4026 68.4381L97.7151 66.2022C97.586 66.6477 97.5206 67.1092 97.521 67.5731C97.521 68.6115 98.4521 76.9296 99.0777 88.677C99.7012 100.424 98.2457 102.607 98.2457 102.607C98.9197 103.689 99.5059 104.823 99.9985 105.999C100.493 104.823 101.082 103.688 101.757 102.607C101.757 102.607 100.3 100.424 100.921 88.677Z" fill="#C8102E"/>
<path d="M114.908 94.0878C115.951 92.4781 116.722 90.7069 117.187 88.8459C116.603 85.814 115.226 82.9909 113.196 80.6641C113.559 83.0418 113.332 85.4723 112.534 87.7414L112.525 87.7641C113.789 89.67 114.599 91.8404 114.893 94.1085L114.908 94.0878Z" fill="white"/>
<path d="M87.4682 87.7414C86.6694 85.4725 86.4417 83.0418 86.8055 80.6641C84.7793 82.9863 83.4038 85.8035 82.8188 88.8294C83.2821 90.7092 84.0492 92.5007 85.0899 94.1332L85.1022 94.1498C85.3899 91.8658 86.2026 89.6794 87.4765 87.762L87.4682 87.7414Z" fill="white"/>
<path d="M110.581 85.3711C110.937 83.9639 110.979 82.4954 110.702 81.0704C110.426 79.6454 109.838 78.299 108.981 77.1273C108.16 76.646 107.301 76.2324 106.413 75.8906C105.998 77.8478 105.568 79.9 105.147 81.9336L105.143 81.9604C107.179 82.7001 109.032 83.8705 110.575 85.3917L110.581 85.3711Z" fill="white"/>
<path d="M94.8733 81.9275C94.4501 79.8961 94.0186 77.8418 93.6015 75.8887C92.7091 76.2294 91.8466 76.6437 91.0229 77.1274C90.166 78.2991 89.5784 79.6455 89.3018 81.0705C89.0252 82.4955 89.0666 83.964 89.4229 85.3712L89.427 85.3918C90.9748 83.8655 92.835 82.6928 94.8795 81.9543L94.8733 81.9275Z" fill="white"/>
<path d="M117.228 95.2188C116.544 96.3208 115.754 97.3538 114.87 98.3032L114.85 98.3218C114.535 100.445 113.766 102.475 112.595 104.274L112.641 104.231C115.024 101.744 116.62 98.6091 117.228 95.2188Z" fill="white"/>
<path d="M85.1329 98.2991C84.2477 97.3512 83.4567 96.3196 82.771 95.2188C83.3801 98.6111 84.9783 101.748 87.3646 104.235C87.377 104.247 87.3915 104.257 87.4039 104.272C86.2326 102.472 85.4636 100.44 85.1494 98.3156L85.1329 98.2991Z" fill="white"/>
<path d="M107.963 100.333C110.779 98.9013 113.17 96.7547 114.894 94.1081C114.6 91.84 113.79 89.6696 112.526 87.7637C111.959 89.4731 111.298 91.15 110.546 92.7867C109.354 95.1762 108.485 97.7138 107.963 100.333Z" fill="#B6975B"/>
<path d="M92.0478 100.393C91.5305 97.7526 90.6597 95.1943 89.4589 92.7869C88.7063 91.1493 88.044 89.4717 87.4748 87.7617C86.2018 89.6803 85.3892 91.8671 85.1006 94.1515C86.8091 96.8221 89.2101 98.9791 92.0478 100.393Z" fill="#B6975B"/>
<path d="M103.193 101.713L103.305 101.936C103.986 101.802 104.66 101.63 105.322 101.419C105.687 98.0498 106.673 94.7768 108.229 91.7655C109.217 89.7226 110.003 87.5881 110.576 85.3922C109.034 83.8698 107.18 82.6992 105.142 81.9609C103.891 88.0101 102.747 93.8032 102.475 95.8162C102.406 97.807 102.649 99.7964 103.193 101.713Z" fill="#B6975B"/>
<path d="M94.6836 101.449C95.3436 101.654 96.015 101.821 96.6945 101.948L96.8142 101.711C97.3675 99.7225 97.6098 97.6604 97.5327 95.5978C97.2106 93.3949 96.0937 87.7917 94.8798 81.9531C92.8352 82.6916 90.9751 83.8643 89.4272 85.3906C89.9989 87.5873 90.7844 89.7226 91.7726 91.766C93.3371 94.7843 94.3243 98.0681 94.6836 101.449Z" fill="#B6975B"/>
<path d="M107.908 103.201C107.923 103.314 107.933 103.432 107.949 103.546C108.247 104.748 108.972 105.801 109.989 106.508C110.928 105.85 111.801 105.102 112.595 104.274C113.765 102.475 114.534 100.445 114.849 98.3223C112.91 100.425 110.544 102.089 107.908 103.201Z" fill="#B6975B"/>
<path d="M92.0549 103.548C92.0735 103.432 92.0817 103.315 92.0962 103.201C89.458 102.087 87.0891 100.421 85.1489 98.3145C85.4637 100.439 86.2327 102.47 87.4034 104.271C88.1991 105.1 89.0738 105.849 90.0151 106.509C91.0326 105.803 91.7578 104.75 92.0549 103.548Z" fill="#B6975B"/>
</svg>
