<svg width="200" height="200" viewBox="0 0 200 200" fill="none" xmlns="http://www.w3.org/2000/svg">
<g clip-path="url(#clip0_18_281)">
<path d="M32.4088 85.2749L38.0535 82.5499L14.1119 33.4015L19.7567 30.5791L17.0316 25.0316L0 33.3041L2.72506 38.9489L8.36983 36.1265L32.4088 85.2749ZM44.9635 79.1436L50.9976 77.1971L42.5304 51.2117L48.5645 49.2652L57.0316 75.2506L63.0657 73.3041L44.2822 15.2993L38.2482 17.2457L46.7153 43.2311L40.6813 45.1776L32.1168 19.1922L26.0827 21.1387L44.9635 79.1436ZM76.691 9.16788L70.4623 10.1411L79.0268 64.0584L72.7981 65.0316L64.2336 11.1144L58.0049 12.0876L66.1801 63.3771C66.5672 65.8551 67.9229 68.0777 69.9489 69.5561C71.9748 71.0345 74.505 71.6475 76.983 71.2604C79.4609 70.8732 81.6836 69.5175 83.1619 67.4916C84.6403 65.4656 85.2534 62.9354 84.8662 60.4574L76.691 9.16788ZM90.0243 68.9246L96.3504 69.022L96.6423 51.4064C96.837 46.0536 96.4477 35.1533 96.1557 30.0925H96.3504C98.0049 43.7178 101.022 56.3699 102.968 69.2166L109.002 69.3139L110.073 8.38929L103.747 8.19465L103.455 25.9075C103.26 31.2603 103.65 42.0633 103.942 47.2214H103.747C102.092 33.5961 99.0754 20.944 97.129 8.09732L91.0949 8L90.0243 68.9246ZM113.674 69.3139L126.131 71.2604C126.944 71.4009 127.776 71.3785 128.579 71.1946C129.383 71.0106 130.142 70.6686 130.812 70.1886C131.482 69.7086 132.05 69.1002 132.483 68.3986C132.916 67.6971 133.205 66.9165 133.333 66.1022L140.925 18.4136C141.17 16.7524 140.759 15.0607 139.778 13.6979C138.796 12.335 137.323 11.4083 135.669 11.1144L123.114 9.16788L113.674 69.3139ZM128.467 16.4672L134.696 17.4404L127.105 65.129L120.876 64.1557L128.467 16.4672ZM172.847 21.3333L160.876 17.4404C160.085 17.1621 159.245 17.0478 158.408 17.1044C157.571 17.1611 156.754 17.3875 156.008 17.7699C155.261 18.1524 154.6 18.6828 154.065 19.3289C153.53 19.9749 153.132 20.7232 152.895 21.528L138.005 67.3674C137.727 68.1588 137.612 68.9985 137.669 69.8354C137.726 70.6724 137.952 71.4891 138.334 72.2357C138.717 72.9823 139.247 73.6433 139.893 74.1784C140.539 74.7134 141.288 75.1114 142.092 75.3479L154.063 79.2409L156.01 73.2068L143.942 69.3139L150.462 49.3625L159.416 52.2822L161.363 46.3455L152.409 43.4258L158.929 23.4745L170.9 27.3674L172.847 21.3333ZM156.788 80.5061L183.552 25.6156L194.939 31.163C195.695 31.5179 196.372 32.0208 196.93 32.642C197.488 33.2632 197.916 33.99 198.189 34.7795C198.461 35.569 198.572 36.4051 198.515 37.2383C198.459 38.0714 198.235 38.8848 197.859 39.6302L188.029 59.8735C186.764 62.5012 184.526 63.5718 182.092 62.4039L175.28 89.4599L169.635 86.7348L176.35 59.4842L174.501 58.6083L162.53 83.2312L156.788 80.5061ZM186.472 34.1801L177.226 53.0608L182.968 55.8832L192.214 36.9051L186.472 34.1801Z" fill="#002D62"/>
<path d="M11.1924 192.234C23.469 181.402 36.62 171.604 50.5111 162.94C53.2362 161.577 55.9612 160.215 58.6863 158.852C59.7569 158.365 61.9953 157.295 64.7204 155.932C66.6668 158.073 68.516 160.117 70.5598 162.064C49.8299 171.699 29.9758 181.82 11.1924 192.234ZM159.027 118.365C172.524 115.343 186.215 113.262 200 112.137C185.304 116.614 170.316 121.577 155.231 127.125C156.594 124.302 157.762 121.382 159.027 118.365Z" fill="#007AC1"/>
<path d="M0.973145 151.259C15.2668 142.291 30.2726 134.512 45.8393 127.999C46.3259 129.07 46.9099 130.14 47.4938 131.211C46.6179 132.963 45.742 134.812 44.8661 136.564C29.7809 141.235 15.0851 146.101 0.973145 151.259ZM164.769 101.138C176.48 100.661 188.209 100.824 199.903 101.624C187.737 103.376 175.377 105.323 162.822 107.658C163.504 105.517 164.185 103.376 164.769 101.138Z" fill="#F05133"/>
<path d="M100.438 81.7715C123.309 81.7715 141.216 87.1243 161.557 97.2459C151.63 134.521 133.43 159.728 100.438 180.068C88.0777 172.38 77.4694 163.815 68.7103 154.083C72.6032 152.234 76.9828 150.093 80.8757 148.341C82.5302 148.438 83.9901 148.535 85.4499 148.535C85.4582 150.349 84.7601 152.094 83.5035 153.402C84.1847 154.18 84.7687 154.862 85.4499 155.543C87.2018 153.986 88.2723 151.747 88.3696 148.535C92.2323 148.532 96.083 148.108 99.8538 147.27C99.7565 153.207 98.8806 157.489 97.2261 159.241C97.2132 159.241 97.2004 159.243 97.1885 159.248C97.1766 159.253 97.1657 159.26 97.1567 159.269C97.1476 159.278 97.1404 159.289 97.1356 159.301C97.1308 159.313 97.1285 159.326 97.1288 159.338C96.7665 159.724 96.3761 160.081 95.9609 160.409C97.6154 160.117 99.2699 159.728 100.73 159.338C102.774 155.153 102.774 147.854 102.774 146.589C106.569 145.616 109.878 144.642 112.895 143.669C112.993 147.076 114.452 150.287 117.08 151.552C118.248 150.677 119.319 149.801 120.486 148.925C119.805 149.022 115.718 149.314 115.815 142.696C124.574 139.29 130.316 135.397 135.377 129.363C136.719 126.325 137.762 123.163 138.491 119.922C132.457 129.46 127.007 135.007 116.107 139.387C116.507 137.041 117.092 134.73 117.859 132.477C121.07 131.115 124.379 129.557 126.326 128.682L131.095 123.718C132.36 119.144 133.43 114.57 134.598 109.898L130.9 111.066L135.28 106.492C136.253 102.891 137.129 99.2898 138.005 95.6888C135.864 95.9808 133.625 96.3701 131.484 96.6621C131.873 94.8129 132.068 93.0611 132.263 91.3093C131.192 91.1146 130.121 90.7253 129.051 90.628C128.81 92.8576 128.42 95.0685 127.883 97.246L127.591 97.3433C125.429 97.6672 123.385 98.5382 121.654 99.8737L122.238 98.1219C118.735 98.7059 115.231 99.3872 111.727 100.068L108.224 103.767L108.321 103.377L109.489 100.458C106.083 101.236 102.579 101.917 99.0752 102.696C98.394 98.0245 97.6154 93.8396 97.0314 90.4333L94.1117 90.7253C94.6957 94.2289 95.4743 98.5111 96.2528 103.28L93.8198 103.864L90.7054 107.173C88.5643 104.837 84.0874 106.297 81.265 106.978C78.248 107.757 75.2309 108.633 72.2139 109.411C71.3218 109.613 70.4439 109.873 69.5862 110.19C67.2491 106.95 65.1667 103.533 63.3575 99.971L63.0655 99.2897C62.1896 99.679 61.3137 99.971 60.3404 100.458L60.7297 101.236C62.4613 104.749 64.4454 108.132 66.6665 111.358C63.3029 112.821 60.2853 114.977 57.81 117.684C57.81 117.684 53.5278 122.063 53.0412 122.647C51.982 123.89 51.0374 125.225 50.2188 126.638C45.605 117.253 42.0157 107.399 39.5132 97.2459C59.6592 87.1243 77.5667 81.7715 100.438 81.7715ZM102.676 138.316C104.817 137.441 106.861 136.467 109.002 135.591L109.975 134.521C110.458 134.602 110.947 134.634 111.435 134.618C112.433 134.46 113.411 134.199 114.355 133.84C113.724 136.038 113.268 138.284 112.993 140.555C110.073 141.626 106.666 142.696 102.871 143.669C102.774 141.82 102.774 140.166 102.676 138.316ZM88.0777 144.935L90.1215 143.961L95.1823 139.874L96.3502 136.857C97.0314 138.317 97.4207 138.9 98.1993 140.36L99.8538 139.582V144.253C96.0282 145.166 92.108 145.624 88.175 145.616L88.0777 144.935Z" fill="white"/>
<path d="M112.798 89.4605C117.578 89.4234 122.356 89.6834 127.104 90.2391C130.688 90.9524 134.229 91.8622 137.713 92.9642C139.092 97.7733 139.78 102.754 139.757 107.757C139.752 111.882 139.296 115.995 138.394 120.02C132.36 129.558 126.813 135.008 116.01 139.388C116.409 137.041 116.995 134.731 117.761 132.478C120.973 131.115 124.185 129.558 126.229 128.779L130.997 123.816C132.165 119.144 133.333 114.57 134.501 109.996L130.803 111.164L135.182 106.59C136.058 102.989 137.032 99.3876 137.907 95.7866C135.766 96.0786 133.528 96.4679 131.387 96.7598C131.679 94.9107 131.971 93.1589 132.165 91.407C131.095 91.1151 130.024 90.8231 128.954 90.6284C128.713 92.8902 128.323 95.1336 127.786 97.3438L127.494 97.4411C125.278 97.6759 123.18 98.5558 121.46 99.9715L122.141 98.2197C118.54 98.8036 115.134 99.4849 111.533 100.166L108.126 103.767L108.224 103.475L109.392 100.555C105.888 101.334 102.482 102.015 98.978 102.794C98.2967 98.025 97.5181 93.8401 96.9342 90.4338C102.195 89.7584 107.494 89.4332 112.798 89.4605ZM135.28 129.461C131.904 137.023 126.844 143.714 120.486 149.023C119.805 149.12 115.62 149.412 115.718 142.794C124.477 139.388 130.219 135.397 135.28 129.461ZM116.983 151.65C112.057 155.168 106.558 157.802 100.73 159.436C102.676 155.251 102.774 147.952 102.774 146.687C106.472 145.714 109.781 144.74 112.895 143.767C112.993 147.173 114.355 150.482 116.983 151.65ZM95.9609 160.507C94.3064 160.799 92.5546 160.993 90.9001 161.188C89.051 159.339 87.2018 157.392 85.45 155.543C87.2018 153.986 88.2724 151.748 88.3697 148.536C92.2323 148.532 96.0831 148.108 99.8539 147.271C99.7566 153.207 98.8806 157.49 97.2261 159.241C97.2133 159.241 97.2005 159.244 97.1886 159.248C97.1767 159.253 97.1658 159.26 97.1567 159.269C97.1476 159.278 97.1405 159.289 97.1357 159.301C97.1309 159.313 97.1286 159.326 97.1288 159.339C96.6422 159.825 96.2529 160.215 95.9609 160.507ZM83.5035 153.402C82.2383 151.942 80.9731 150.385 79.8052 148.828L80.8758 148.341C82.5303 148.439 83.9901 148.536 85.45 148.536C85.4134 150.341 84.7216 152.07 83.5035 153.402ZM60.3405 115.057C58.6626 110.885 57.2008 106.629 55.9609 102.307C57.3235 101.626 58.686 101.042 60.1459 100.458L60.4378 101.237C62.2028 104.751 64.2194 108.134 66.4719 111.358C64.2581 112.284 62.1922 113.53 60.3405 115.057ZM62.7736 99.2902C72.7579 95.1504 83.22 92.2733 93.9171 90.7257C94.5011 94.2294 95.2797 98.5116 95.9609 103.28L93.5279 103.864L90.5108 107.173C88.2724 104.838 83.7955 106.297 81.0704 106.979C78.0534 107.757 75.0364 108.633 72.0193 109.412C71.1272 109.613 70.2494 109.873 69.3916 110.19C67.0861 106.948 65.0361 103.532 63.2602 99.9715L62.7736 99.2902ZM102.676 138.317C104.817 137.441 106.861 136.468 109.002 135.592L109.976 134.521C110.458 134.602 110.947 134.635 111.435 134.619C112.43 134.449 113.408 134.188 114.355 133.84C113.677 136.027 113.221 138.277 112.993 140.555C109.976 141.626 106.667 142.697 102.774 143.67C102.774 141.821 102.774 140.166 102.676 138.317ZM88.0777 144.935L90.1215 143.962L95.1824 139.874L96.3502 136.857C97.0315 138.317 97.4208 138.901 98.1994 140.361L99.8539 139.68V144.351C96.02 145.216 92.1052 145.673 88.1751 145.714L88.0777 144.935Z" fill="#F05133"/>
<path d="M101.509 173.839C91.8684 167.367 83.1584 159.606 75.6206 150.774L79.8055 148.827C81.0707 150.384 82.3359 151.942 83.6011 153.401C84.1983 154.16 84.8487 154.876 85.5476 155.543C91.1104 161.688 97.2723 167.263 103.942 172.185C103.161 172.78 102.349 173.332 101.509 173.839ZM55.5719 119.63C52.7265 113.36 50.3518 106.886 48.4673 100.263C65.0945 92.3329 83.1926 87.9575 101.606 87.416C110.174 87.4888 118.715 88.4015 127.105 90.1411C122.352 89.6365 117.577 89.3766 112.798 89.3625C107.462 89.3383 102.131 89.6634 96.8371 90.3357C95.8639 90.433 94.8907 90.6277 93.9174 90.725C83.224 92.239 72.7618 95.0835 62.7739 99.1922C61.8979 99.5815 60.9247 99.9708 60.0488 100.36C58.6863 100.944 57.3237 101.625 55.9612 102.307C57.1394 106.636 58.5692 110.893 60.2434 115.056C59.3675 115.835 58.3943 116.71 57.5184 117.586L55.5719 119.63Z" fill="#FDBB30"/>
<path d="M34.5497 95.0069C56.4475 83.8146 75.6202 77.5859 100.535 77.5859C125.353 77.5859 144.623 83.8146 166.52 95.0069C156.302 135.98 136.837 163.231 100.438 185.031C86.7151 176.759 74.7443 167.124 64.8173 155.931C62.0923 157.294 59.8538 158.365 58.6859 158.948C55.2796 160.7 51.8733 162.355 48.4669 164.107C44.574 166.053 40.2918 169.07 35.8149 167.902C30.9487 165.761 34.1604 159.824 35.6202 156.515C39.4158 148.048 43.4061 139.581 47.4937 131.211C42.3858 121.655 38.5262 111.483 36.0095 100.944L34.5497 95.0069ZM100.438 81.7708C77.5667 81.7708 59.6592 87.1236 39.3185 97.2453C41.761 107.372 45.3188 117.197 49.9268 126.54C50.7798 125.126 51.7569 123.79 52.8465 122.549C53.3331 122.063 57.518 117.586 57.518 117.586C60.0364 114.885 63.0843 112.731 66.4718 111.26C64.1984 108.049 62.1809 104.665 60.4377 101.138L60.1458 100.36C61.0217 99.9704 61.8976 99.5811 62.8708 99.1918L63.1628 99.873C64.9383 103.464 66.9881 106.913 69.2942 110.189C70.1701 109.897 71.046 109.605 72.0193 109.313C75.0363 108.535 77.956 107.756 81.0704 106.978C83.7954 106.199 88.2723 104.739 90.4134 107.075L93.5278 103.766L95.9609 103.279C95.1823 98.4132 94.501 94.1309 93.8197 90.7246C94.793 90.6273 95.7662 90.4326 96.7395 90.3353C97.3234 93.7417 98.102 98.0239 98.7833 102.598C102.287 101.917 105.693 101.138 109.197 100.457L108.029 103.377L107.932 103.669L111.435 99.9704C114.939 99.3864 118.345 98.7052 121.946 98.0239L121.362 99.873C123.074 98.4876 125.123 97.5809 127.299 97.2453H127.591C128.157 95.0364 128.579 92.7933 128.856 90.53C129.927 90.7246 130.997 91.0166 131.971 91.2112C131.861 93.0142 131.601 94.8047 131.192 96.564C133.43 96.2721 135.572 95.9801 137.81 95.5908C136.837 99.1918 135.961 102.89 135.085 106.491L130.705 111.065L134.404 109.897C133.138 114.472 131.971 119.046 130.9 123.717L126.131 128.681C124.087 129.557 120.778 131.114 117.664 132.379C116.909 134.636 116.323 136.945 115.912 139.289C126.715 134.909 132.263 129.362 138.297 119.922C137.52 123.161 136.445 126.321 135.085 129.362C130.024 135.299 124.379 139.289 115.523 142.598C115.426 149.313 119.708 149.021 120.292 148.827C119.208 149.81 118.035 150.69 116.788 151.455C114.16 150.287 112.798 146.978 112.701 143.571C109.684 144.642 106.374 145.518 102.579 146.491C102.482 147.756 102.482 155.055 100.535 159.24C98.965 159.679 97.3733 160.037 95.7662 160.311C96.1472 159.979 96.5049 159.621 96.8368 159.24L96.9341 159.143C98.6859 157.391 99.4645 153.109 99.6592 147.172C95.8821 147.984 92.0372 148.441 88.175 148.535C88.0777 151.747 87.0071 153.985 85.2553 155.445C84.574 154.763 83.9901 154.082 83.3088 153.401C84.4792 152.047 85.134 150.324 85.1579 148.535C83.7954 148.438 82.2382 148.34 80.6811 148.243C76.7881 150.092 72.3112 152.233 68.4183 153.985C77.7262 164.127 88.4441 172.879 100.243 179.97C133.236 159.63 151.338 134.52 161.265 97.148C141.216 87.1236 123.309 81.7708 100.438 81.7708ZM102.676 138.316C102.774 140.165 102.774 141.819 102.774 143.571C106.666 142.598 109.975 141.625 112.993 140.554C113.229 138.245 113.685 135.964 114.355 133.742C113.408 134.09 112.43 134.35 111.435 134.52C110.954 134.619 110.457 134.619 109.975 134.52L109.002 135.493C106.861 136.467 104.817 137.44 102.676 138.316ZM88.0777 144.934L88.175 145.615C92.108 145.623 96.0282 145.166 99.8538 144.253V139.581L98.1993 140.36C97.4207 138.9 97.1288 138.316 96.3502 136.856L95.1823 139.873L90.1215 143.961L88.0777 144.934Z" fill="#002D62"/>
<path d="M72.3116 111.066C67.1534 112.526 62.5792 114.667 58.8809 118.755C56.8695 121.195 55.1695 123.875 53.8201 126.735C49.7325 135.202 45.7422 143.669 41.9466 152.137C40.9734 154.375 37.9563 159.728 41.168 161.188C44.769 162.064 49.2459 159.047 52.3602 157.489C55.7665 155.738 59.2702 153.986 62.6765 152.331C68.5159 149.412 73.7714 145.908 77.3724 140.263C78.6783 137.799 79.8479 135.265 80.876 132.672C83.1145 127.125 85.3529 121.674 87.6887 116.224C88.5646 114.083 90.1218 111.553 89.6352 109.314C88.6619 106.297 83.5038 108.146 81.3627 108.73C78.3456 109.509 75.3286 110.287 72.3116 111.066ZM65.7909 142.502C63.0658 143.767 60.4381 144.935 57.713 146.2C61.606 137.149 65.6936 128.098 69.9758 119.047C72.3116 118.365 74.7447 117.489 77.1777 116.808C73.1875 125.373 69.3919 133.937 65.7909 142.502ZM112.409 101.626C108.613 106.589 104.915 111.553 101.217 116.516C102.969 112.039 104.72 107.465 106.472 102.891C102.579 103.669 98.5889 104.545 94.7933 105.421C93.7228 107.757 92.7495 110.093 91.7763 112.526C92.5741 112.254 93.3863 112.026 94.2094 111.845C91.1923 119.241 88.1753 126.638 85.2556 134.132C83.9904 137.149 82.8225 140.263 81.6546 143.28C85.5476 141.431 89.5378 139.582 93.4308 137.83C95.1826 132.867 96.9344 128 98.7836 123.037C100.438 126.443 102.093 129.752 103.747 133.061C106.278 131.991 108.808 130.823 111.338 129.752C109.781 126.249 108.224 122.745 106.667 119.241C109.489 114.959 112.312 110.677 115.134 106.492C115.913 106.297 116.788 106.2 117.567 106.005C118.248 104.156 118.832 102.307 119.416 100.458C117.08 100.847 114.745 101.236 112.409 101.626ZM127.591 99.0953C125.487 99.3779 123.518 100.294 121.947 101.723C120.767 103.11 119.903 104.737 119.416 106.492C117.762 111.747 116.107 117.003 114.355 122.258C113.674 124.302 112.604 128.098 115.913 127.903C117.062 127.661 118.175 127.268 119.222 126.735C122.628 125.275 126.034 123.913 129.441 122.55C130.219 119.241 131.095 115.932 131.971 112.623C130.219 113.11 128.467 113.694 126.618 114.278C126.132 115.835 125.742 117.295 125.353 118.852C124.088 119.241 122.823 119.728 121.655 120.117C123.212 114.764 124.672 109.509 126.326 104.156C127.397 103.864 128.467 103.669 129.538 103.378C129.336 104.333 129.076 105.276 128.759 106.2C130.414 105.811 131.971 105.421 133.625 105.032C134.209 102.696 134.793 100.263 135.377 97.8301C132.847 98.2194 130.219 98.706 127.591 99.0953Z" fill="white"/>
<path d="M141.801 94.1308C143.358 94.7148 144.915 95.2014 146.472 95.7853C150.17 97.2452 153.479 98.6077 156.302 99.9702C148.082 128.678 130.293 153.712 105.888 170.919L103.942 172.282C99.9337 169.291 96.0994 166.074 92.4575 162.647L95.8638 162.16C110.182 159.732 122.958 151.736 131.4 139.92C139.843 128.104 143.267 113.427 140.925 99.0944C140.827 98.7051 140.73 98.3158 140.633 97.9265L140.535 97.5372L140.438 97.4399L140.049 96.0773L139.951 95.8826L139.854 95.4933L139.757 95.396V95.2014C139.653 94.6343 139.49 94.0798 139.27 93.5469C140.123 93.6982 140.968 93.8931 141.801 94.1308Z" fill="#007AC1"/>
</g>
<defs>
<clipPath id="clip0_18_281">
<rect width="200" height="184.234" fill="white" transform="translate(0 8)"/>
</clipPath>
</defs>
</svg>
