<svg width="200" height="200" viewBox="0 0 200 200" fill="none" xmlns="http://www.w3.org/2000/svg">
<path d="M173.359 70.1929C174.832 69.5447 176.557 68.8014 178.146 68.1367L183.283 65.9855L166.443 60.5229L162.395 41.5957L152.211 56.8275L134.946 52.4301L140.747 59.9696C119.005 57.2073 94.8567 59.2471 73.1679 65.7047L74.5998 61.2042L70.8942 62.2695C41.3609 70.738 15.5125 93.7363 3.43014 122.288L0.000976562 130.397L6.67351 124.658C21.108 112.259 36.0047 99.4591 57.6275 92.605L51.6028 106.619L56.8558 103.741C61.6013 101.14 66.9575 99.1411 72.6727 97.7621L80.3892 100.413C92.4716 104.554 102.957 108.142 113.257 114.732C113.178 125.971 117.738 137.119 125.871 145.489C133.856 153.701 144.276 158.206 155.244 158.206H155.57C180.75 158.016 195.597 139.473 199.141 121.19C202.327 104.752 197.272 82.0967 173.359 70.1929" fill="#FEFEFE"/>
<path d="M77.8399 97.3581C92.1506 95.1615 106.432 95.8056 118.936 101.087L120.458 97.7338C100.23 91.2183 74.8028 91.5528 55.8622 101.929L61.2555 89.385C37.4497 95.8221 21.4307 109.258 5.3291 123.094C17.069 95.3432 42.5955 72.5306 71.4644 64.252L69.9954 68.8558C95.2743 60.602 123.021 59.0371 145.486 62.749L140.224 55.8991L153.111 59.1857L161.401 46.7988L164.678 62.1173L177.35 66.2298C177.35 66.2298 168.119 70.0986 168.561 70.2803C216.556 90.0622 201.193 155.791 155.554 156.142C132.471 156.332 114.562 135.46 115.341 113.626C103.606 105.897 91.8287 102.177 77.8399 97.3581" fill="#C4CDD3"/>
<path d="M163.814 70.2988C166.455 69.1469 171.386 66.9956 171.386 66.9956L171.753 66.8346L171.37 66.7066C171.37 66.7066 163.438 64.0971 161.734 63.5439C161.478 61.7477 160.224 53.1182 160.224 53.1182L160.166 52.7012L157.282 57.3958C157.282 57.3958 155.627 60.059 154.736 61.5124C152.858 61.0334 144.663 58.9441 144.663 58.9441L144.23 58.8368L144.502 59.1878C144.51 59.196 147.84 63.486 149.858 66.0955C141.609 64.3035 132.094 63.3002 121.183 63.3002C117.601 63.3002 113.871 63.4076 109.992 63.6306C95.1161 64.4811 80.4877 67.2558 66.4493 72.3303L68.0546 67.553L67.7698 67.6398C45.8004 74.5062 21.7759 95.1139 11.1543 115.49L11.3937 115.672C26.41 101.58 46.7329 90.3243 64.9514 86.2284L60.1647 97.389L60.5361 97.2115C69.0119 93.1155 80.141 91.3029 91.3734 91.3029C102.862 91.3029 114.457 93.2022 123.42 96.4682L119.982 103.962C111.812 100.213 99.9937 97.6863 90.189 97.6863C88.4436 97.6863 86.7599 97.7647 85.1713 97.934L85.1465 98.2354C96.7254 101.506 108.717 105.201 118.22 112.823C118.163 113.63 118.134 114.438 118.134 115.247C118.138 135.305 135.444 153.46 155.751 153.465C155.887 153.465 156.027 153.46 156.163 153.46C178.546 153.196 195.13 132.663 195.134 111.254C195.138 95.4856 186.118 79.2339 163.814 70.2988Z" fill="#120C0D"/>
<path d="M151.605 107.041C143.339 107.041 135.07 104.01 126.763 100.955C124.576 105.588 123.462 110.443 123.462 115.382C123.462 118.008 123.776 120.663 124.415 123.313C125.1 123.33 125.789 123.338 126.478 123.338C142.514 123.338 159.532 118.879 173.277 110.724C171.692 107.776 169.728 105.022 167.69 102.371C162.338 105.757 156.973 107.041 151.605 107.041Z" fill="#C4CDD3"/>
<path d="M125.901 126.454H125.36C130.374 139.432 141.874 148.032 155.9 148.226C160.39 137.161 165.371 125.071 176.756 119.418C176.162 117.424 175.431 115.483 174.626 113.572C159.965 122.144 142.848 126.454 125.901 126.454ZM160.561 85.7281C155.576 83.8247 152.399 83.2342 152.102 83.1805C150.707 83.3704 148.813 83.5563 147.282 83.8618C155.758 87.2393 162.014 91.3353 168.303 98.3504C171.534 95.7945 174.373 92.9001 176.341 89.345C170.576 83.7338 159.719 76.8591 132.641 74.7285C144.076 77.4495 154.59 81.1202 160.702 85.4597L160.561 85.7281ZM84.6416 81.9695C86.3211 81.9323 88.1327 81.9117 90.0515 81.9117C109.289 81.9199 138.979 84.1827 150.492 97.8619L150.298 98.0931C146.316 95.8717 138.348 92.1928 133.38 92.1969C133.219 92.1969 133.062 92.2011 132.909 92.2093C131.201 94.0963 129.691 96.1855 128.337 98.3491C136.033 101.186 143.824 104.006 151.544 104.002C156.393 104.002 161.213 102.895 165.987 99.9842C152.642 85.4337 130.058 79.0875 108.753 79.0875C100.293 79.0875 92.0322 80.0867 84.6416 81.9695V81.9695ZM175.676 109.203C179.398 106.667 182.612 104.021 185.53 100.618C183.694 97.1253 180.52 93.2028 178.243 91.1837C176.121 94.9246 173.406 98.013 170.105 100.73C172.049 103.323 174.104 106.349 175.676 109.203" fill="#C4CDD3"/>
<path d="M159.163 148.092C165.922 147.266 172.137 144.958 177.361 140.519C178.166 137.526 178.508 134.429 178.508 131.324C178.508 128.359 178.194 125.382 177.662 122.488C167.466 127.389 163.232 138.153 159.163 148.092H159.163ZM181.518 133.318C181.518 134.342 181.493 135.366 181.444 136.39C185.409 131.022 187.534 126.361 188.71 119.502C185.818 119.758 182.95 120.246 180.222 121.15C181.114 125.192 181.518 129.238 181.518 133.318ZM177.08 112.041C177.971 114.089 178.768 116.166 179.461 118.293C182.638 117.256 185.708 116.724 189.022 116.521C189.026 116.286 189.026 116.055 189.026 115.819C189.026 111.43 188.378 108.053 186.951 103.854C183.909 106.967 180.699 109.618 177.08 112.041Z" fill="#C4CDD3"/>
<path d="M189.022 116.523C185.708 116.726 182.642 117.258 179.461 118.295C178.767 116.164 177.975 114.091 177.08 112.043C180.699 109.616 183.913 106.965 186.95 103.852C188.378 108.055 189.026 111.432 189.026 115.821C189.026 116.053 189.026 116.288 189.022 116.523Z" fill="#C4CDD3"/>
<path d="M189.022 116.523C185.708 116.725 182.642 117.258 179.46 118.294C178.767 116.164 177.975 114.091 177.079 112.043C180.698 109.615 183.913 106.965 186.95 103.851C188.378 108.055 189.026 111.432 189.026 115.821C189.026 116.052 189.026 116.288 189.022 116.523ZM178.241 91.1836C180.519 93.2027 183.697 97.1294 185.533 100.618C182.611 104.021 179.397 106.671 175.675 109.202C174.103 106.349 172.048 103.323 170.104 100.73C173.405 98.0129 176.12 94.9245 178.241 91.1836" fill="#C4CDD3"/>
<path d="M178.241 91.1841C180.519 93.2032 183.696 97.1299 185.533 100.619C182.611 104.021 179.397 106.672 175.674 109.203C174.102 106.35 172.047 103.323 170.104 100.73C173.405 98.0134 176.12 94.925 178.241 91.1841L178.241 91.1841ZM132.64 74.7285C159.718 76.8632 170.575 83.738 176.343 89.3451C174.371 92.9001 171.532 95.7946 168.305 98.3504C162.016 91.3394 155.756 87.2393 147.285 83.8618C148.811 83.5604 150.705 83.3705 152.1 83.1805C152.397 83.2342 155.575 83.8247 160.56 85.7281L160.704 85.4597C154.588 81.1201 144.074 77.4537 132.64 74.7285Z" fill="#C4CDD3"/>
<path d="M132.64 74.7285C159.718 76.8632 170.575 83.738 176.344 89.3451C174.371 92.9001 171.532 95.7946 168.305 98.3504C162.017 91.3394 155.757 87.2393 147.285 83.8618C148.812 83.5604 150.706 83.3705 152.101 83.1805C152.398 83.2342 155.575 83.8247 160.56 85.7281L160.704 85.4597C154.589 81.1201 144.075 77.4537 132.64 74.7285ZM126.478 123.341C125.789 123.341 125.1 123.332 124.415 123.316C123.776 120.661 123.462 118.01 123.462 115.384C123.462 110.442 124.576 105.586 126.767 100.957C135.07 104.009 143.339 107.043 151.605 107.043C156.973 107.043 162.338 105.759 167.69 102.369C169.728 105.024 171.692 107.778 173.277 110.727C159.532 118.881 142.514 123.341 126.478 123.341Z" fill="#C4CDD3"/>
<path d="M126.478 123.338C125.789 123.338 125.1 123.33 124.415 123.313C123.776 120.659 123.462 118.008 123.462 115.382C123.462 110.439 124.576 105.584 126.767 100.955C135.07 104.006 143.339 107.041 151.605 107.041C156.973 107.041 162.338 105.757 167.69 102.367C169.728 105.022 171.692 107.776 173.277 110.724C159.532 118.879 142.514 123.338 126.478 123.338Z" fill="#C4CDD3"/>
<path d="M155.901 148.225C141.875 148.031 130.374 139.43 125.36 126.453H125.901C142.848 126.453 159.965 122.142 174.627 113.57C175.431 115.486 176.162 117.423 176.756 119.417C165.371 125.069 160.39 137.159 155.901 148.225Z" fill="#C4CDD3"/>
<path d="M155.901 148.225C141.875 148.031 130.374 139.43 125.36 126.453H125.901C142.848 126.453 159.965 122.142 174.627 113.57C175.431 115.486 176.162 117.423 176.756 119.417C165.371 125.069 160.39 137.159 155.901 148.225ZM181.444 136.39C181.493 135.362 181.518 134.338 181.518 133.318C181.518 129.239 181.113 125.188 180.222 121.146C182.95 120.242 185.818 119.759 188.71 119.499C187.534 126.361 185.409 131.023 181.444 136.39Z" fill="#C4CDD3"/>
<path d="M181.444 136.391C181.494 135.363 181.518 134.339 181.518 133.319C181.518 129.24 181.114 125.189 180.223 121.147C182.95 120.242 185.818 119.759 188.711 119.499C187.535 126.362 185.41 131.023 181.444 136.391ZM165.986 99.9825C161.211 102.893 156.396 104.004 151.543 104.004C143.822 104.004 136.032 101.188 128.336 98.3474C129.689 96.1838 131.199 94.0987 132.908 92.2076C133.06 92.2034 133.217 92.1952 133.378 92.1952C138.346 92.1911 146.315 95.8741 150.297 98.0955L150.491 97.8601C138.982 84.1809 109.288 81.9182 90.05 81.91C88.1353 81.91 86.3196 81.9347 84.6401 81.9677C92.0348 80.0891 100.292 79.0898 108.755 79.0898C130.06 79.0857 152.645 85.432 165.986 99.9825" fill="#C4CDD3"/>
<path d="M165.986 99.9825C161.211 102.893 156.396 104.004 151.543 104.004C143.822 104.004 136.032 101.188 128.336 98.3474C129.689 96.1838 131.199 94.0987 132.908 92.2076C133.06 92.2034 133.217 92.1952 133.378 92.1952C138.346 92.1911 146.315 95.8741 150.297 98.0955L150.491 97.8601C138.982 84.1809 109.288 81.9182 90.05 81.91C88.1353 81.91 86.3196 81.9347 84.6401 81.9677C92.0348 80.0891 100.292 79.0898 108.755 79.0898C130.06 79.0857 152.645 85.432 165.986 99.9825H165.986ZM177.361 140.517C172.137 144.956 165.922 147.268 159.163 148.09C163.232 138.151 167.465 127.391 177.662 122.486C178.194 125.381 178.508 128.358 178.508 131.322C178.508 134.427 178.165 137.524 177.361 140.517" fill="#C4CDD3"/>
<path d="M177.361 140.517C172.137 144.956 165.922 147.268 159.163 148.09C163.232 138.151 167.466 127.391 177.662 122.486C178.194 125.38 178.508 128.357 178.508 131.322C178.508 134.427 178.166 137.524 177.361 140.517V140.517ZM150.608 73.1959L156.497 71.1356L160.966 76.2101L160.446 69.5872L166.149 67.0975L159.943 65.0619L158.981 58.4473L155.667 63.819L149.383 62.2129L153.551 67.5723L150.608 73.1959Z" fill="#C4CDD3"/>
<path d="M119.237 77.9686L123.327 75.9495L126.735 78.9801L126.071 74.4713L130.008 72.1797L125.514 71.4117L124.544 66.9648L122.435 71.0071L117.892 70.5447L121.082 73.8025L119.237 77.9686ZM73.2534 87.0193L75.948 85.6897L78.1846 87.684L77.7472 84.7194L80.3345 83.2082L77.3799 82.7004L76.7403 79.777L75.3497 82.4237L72.3662 82.1306L74.4625 84.2735L73.2534 87.0193Z" fill="#FEFEFE"/>
<path d="M175.063 127.711L175.059 127.162L171.263 133.524L172.352 127.921L172.084 127.793C166.521 134.544 164.396 139.396 162.667 145.374L162.585 145.659L162.865 145.564C169.109 143.397 172.331 140.89 173.652 139.842L173.681 139.817L173.697 139.784C174.626 137.769 175.063 133.685 175.067 128.681C175.067 128.359 175.063 128.037 175.063 127.711ZM162.37 112.977C156.296 114.212 149.207 114.939 142.712 114.939C141.734 114.939 140.772 114.922 139.832 114.889L153.767 110.764L153.73 110.463C144.528 110.029 137.426 109.856 128.434 105.64L128.306 105.578L128.236 105.702C126.899 108.105 126.136 111.47 126.136 114.881C126.136 116.817 126.383 118.77 126.912 120.562L126.945 120.67L127.052 120.674C127.06 120.674 127.378 120.682 127.968 120.682C131.987 120.682 148.497 120.24 162.47 113.266L162.37 112.977ZM165.444 124.287C158.416 129.51 153.126 133.734 142.765 135.687C152.359 130.7 158.796 127.268 164.846 121.137L164.66 120.897C153.931 127.149 139.959 129.824 130.1 130.196L129.832 130.204L129.977 130.431C138.094 143.281 148.36 144.433 151.699 144.433H151.719C152.412 144.433 152.8 144.387 152.809 144.387L152.879 144.375L152.916 144.317C157.273 137.426 160.042 130.79 165.65 124.514L165.444 124.287H165.444Z" fill="#0077C0"/>
<path d="M158.249 81.4689C157.741 81.2005 157.221 80.9487 156.681 80.7051C164.979 83.17 170.575 86.3742 173.702 88.8102C173.22 89.5245 172.683 90.2141 172.134 90.883C168.293 86.8985 163.601 83.6532 158.249 81.4689H158.249ZM183.812 127.965L183.783 127.424C184.233 125.191 184.485 122.949 184.563 120.735C185.149 120.579 185.752 120.459 186.354 120.347C185.711 123.093 184.91 125.591 183.812 127.965ZM187.279 113.398C186.197 113.543 185.195 113.7 184.204 113.914C183.982 112.308 183.66 110.719 183.251 109.154C184.328 108.249 185.36 107.329 186.404 106.346C187.002 108.654 187.254 110.822 187.279 113.398ZM183.577 99.7644C182.657 100.755 181.766 101.635 180.862 102.456C179.855 100.293 178.679 98.216 177.317 96.2548C178.027 95.4001 178.712 94.5165 179.356 93.5915C181.089 95.5115 182.595 97.7577 183.577 99.7644Z" fill="#FEFEFE"/>
</svg>
