<svg width="200" height="200" viewBox="0 0 200 200" fill="none" xmlns="http://www.w3.org/2000/svg">
<g clip-path="url(#clip0_18_255)">
<path d="M80.7527 129.818C91.4264 128.156 102.188 128.681 111.549 132.618L112.686 130.08C97.5506 125.268 78.3905 125.443 64.3047 133.23L68.3292 123.869C50.394 128.681 38.4955 138.829 26.3345 149.153C35.1709 128.331 54.331 111.27 75.9408 104.971L74.8909 108.471C93.8761 102.259 114.698 101.034 131.496 103.834L127.559 98.6718L137.271 101.209L143.482 91.8477L145.932 103.396L155.468 106.458C155.468 106.458 148.557 109.345 148.819 109.52C184.865 124.306 173.316 173.65 139.108 173.825C121.785 174 108.312 158.339 108.924 141.979C100 136.205 91.2514 133.405 80.7527 129.818Z" fill="#C2CCD2"/>
<path d="M73.9283 64.1109V64.0234C74.0552 62.7045 74.6812 61.484 75.678 60.6113C76.6681 59.9612 77.8188 59.5978 79.0026 59.5614C79.0026 59.5614 80.0525 59.4739 81.0149 59.4739L84.1645 59.2115V81.5212L81.4523 81.6962C79.79 81.7837 78.8277 81.8712 76.9904 81.9586L73.9283 82.2211V64.1109ZM58.7926 63.4984C58.6857 59.8705 59.898 56.3269 62.2047 53.5247C64.7285 50.9308 68.1287 49.3711 71.741 49.1502C79.0901 48.5378 86.5267 48.1004 93.8758 47.9254L99.3001 47.8379V110.393L99.2126 115.729L93.7883 115.642C92.8259 115.642 85.5643 115.904 84.252 115.904H84.077L78.3027 116.517V116.342L74.6282 116.517C74.1032 116.517 65.3543 117.392 65.0044 117.479L58.7926 118.529V63.4984Z" fill="#C2CCD2"/>
<path d="M193.001 130.254C193.001 130.254 185.739 127.979 184.689 127.716C184.602 127.716 184.602 127.716 184.602 127.629C181.277 126.667 178.303 125.879 176.203 125.267L172.353 124.304C168.812 123.7 165.617 121.815 163.374 119.008C161.132 116.202 160 112.669 160.192 109.081V68.3988C160.192 64.4618 161.417 60.7873 164.304 58.5126C166.181 57.0704 168.501 56.3278 170.866 56.4128C172.16 56.4336 173.45 56.5801 174.716 56.8503C175.241 57.0252 176.64 57.3752 178.915 57.9876C181.102 58.6 183.902 59.4749 186.702 60.2623C192.301 61.8371 197.813 63.4119 197.813 63.4119L199.913 64.0244V91.6709L182.24 86.1591L181.977 84.4093C181.977 84.4093 181.452 81.1722 180.927 78.1976V109.169L181.015 109.344C181.015 109.344 180.927 109.431 181.54 109.606C181.54 109.606 182.677 109.869 183.377 110.044C183.902 108.031 184.427 105.844 184.427 105.844L185.127 102.782L199.913 107.156L200 132.178L193.001 130.254Z" fill="#C2CCD2"/>
<path d="M0.0874891 71.9875C0.146847 69.1795 1.30981 66.5078 3.32459 64.5509C4.84979 62.9954 6.70294 61.7998 8.74891 61.0514C16.8854 58.4267 28.434 56.6769 28.9589 56.5894L32.021 56.152C33.3564 55.3815 34.8023 54.8209 36.308 54.4897C40.245 53.7023 52.406 51.4276 52.9309 51.3401L59.2301 50.1152V113.72L59.1426 118.444L54.4182 118.969C54.0683 118.969 45.2319 120.544 44.7944 120.631L38.2327 122.119V111.795L19.9475 116.17V126.581L15.923 127.543C15.8355 127.543 14.5232 127.981 13.1234 128.418C11.636 128.855 9.97376 129.38 8.74891 129.73C8.2357 129.851 7.73705 130.027 7.26159 130.255L0 132.88V71.9875H0.0874891Z" fill="#C2CCD2"/>
<path d="M153.98 120.455H153.805C153.718 120.455 153.63 120.368 153.543 120.368C153.157 120.313 152.777 120.225 152.406 120.105C151.346 119.995 150.294 119.819 149.256 119.58C147.069 119.231 144.707 118.793 144.532 118.793L142.344 118.618L139.807 118.356V50.7266L145.581 51.164C146.194 51.2515 147.419 51.4265 149.256 51.7764C151.006 52.0389 153.105 52.3889 154.505 52.6513C155.213 52.7158 155.915 52.8328 156.605 53.0013L160.63 54.0511V121.855L153.98 120.455Z" fill="#C2CCD2"/>
<path d="M133.421 117.393C132.808 117.305 129.134 116.955 125.372 116.606C121.697 116.343 117.76 116.081 115.136 115.906L112.423 115.818C108.486 115.643 105.074 114.418 102.625 111.969C100.175 109.431 99.0376 106.019 99.0376 102.082V59.7376C99.0376 56.413 100 53.2634 102.362 51.0762C105.249 48.364 108.749 48.1016 110.936 48.1016H113.298C113.998 48.1016 114.961 48.1891 116.36 48.2765H117.935L117.848 48.364C119.423 48.4515 121.26 48.6265 123.797 48.8015C132.021 49.4139 134.208 49.6764 135.433 49.9388C135.826 50.0035 136.209 50.1212 136.57 50.2888L139.633 51.7761V73.8234L122.135 71.5486L121.697 69.5364C121.697 69.5364 121.26 67.3492 120.822 65.3369H120.035L120.122 73.2984V75.0482H121.347C122.109 75.0401 122.87 75.0986 123.622 75.2232C124.672 75.3107 125.984 75.3982 127.297 75.4857C130.009 75.7481 132.983 76.0981 134.471 76.2731C134.823 76.2549 135.176 76.2843 135.521 76.3605L139.72 77.3229L139.633 118.618L133.421 117.393Z" fill="#C2CCD2"/>
<path d="M78.0406 77.8488C78.7362 77.7471 79.4375 77.6887 80.1404 77.6738V63.5006C79.8797 63.5444 79.6168 63.5736 79.3529 63.5881C78.7405 63.5881 78.3906 63.6756 78.3031 63.8506C78.1281 63.9381 78.1281 63.9381 78.0406 64.288V77.8488ZM60.5428 63.5006C60.4553 56.414 64.8298 51.4271 72.0039 50.9022C79.2655 50.2898 86.702 49.8523 94.0511 49.6773L97.6382 49.5898V113.982L93.9636 113.894C93.0013 113.894 84.6898 114.157 84.0774 114.332L80.1404 114.682V90.9722C79.4375 90.987 78.7362 91.0455 78.0406 91.1472V111.357L77.9531 114.769L74.6285 114.857C73.9286 114.857 65.4422 115.732 64.8298 115.907L60.6303 116.519L60.5428 63.5006Z" fill="black"/>
<path d="M193.613 128.593C193.613 128.593 187.227 126.58 185.477 126.143C185.302 126.055 185.214 126.055 185.127 125.968C181.54 124.918 178.303 124.043 176.116 123.518L172.704 122.643C165.792 121.068 161.855 116.082 161.942 109.082V68.4875C161.942 64.7255 162.992 61.8383 165.354 59.9136C166.917 58.7415 168.826 58.1256 170.779 58.1638C171.957 58.1853 173.131 58.3319 174.278 58.6012C175.416 58.8637 197.288 65.1629 197.288 65.1629L198.163 65.3379V89.3099L183.727 84.848L183.64 84.148C183.64 84.148 182.502 77.1489 182.065 74.1743C181.19 73.9118 180.49 73.7368 180.053 73.6493L179.615 73.4743L179.178 73.2994V109.17C179.169 109.509 179.26 109.844 179.44 110.132C179.602 110.426 179.828 110.681 180.1 110.878C180.372 111.074 180.685 111.208 181.015 111.27C181.015 111.27 182.94 111.795 184.69 112.232C185.214 109.87 186.002 106.283 186.002 106.283L186.352 105.058L198.163 108.645V129.992L193.613 128.593Z" fill="black"/>
<path d="M1.8374 71.9874C2.01238 66.8255 6.38684 63.6759 9.27398 62.7135C17.2355 60.1763 28.6966 58.4266 29.309 58.3391L32.7211 57.7267C33.9785 57.0082 35.3344 56.4776 36.7456 56.1519C40.6826 55.3644 52.7561 53.0897 53.3685 52.9148L57.568 52.2148V113.632L57.4805 116.782L54.3309 117.219C53.6309 117.219 45.1445 118.707 44.5321 118.882L40.0701 119.844V70.1501H39.9826C38.7578 70.5001 38.4953 70.7625 38.2329 72.1624V109.958L20.91 114.07V74.4371C20.8345 74.4942 20.7423 74.525 20.6476 74.5246C20.0091 74.6412 19.4085 74.9114 18.8978 75.312C18.7049 75.447 18.5536 75.6332 18.4608 75.8496C18.3681 76.066 18.3376 76.304 18.3728 76.5368V122.294L18.2854 125.093L15.5732 125.706C14.9608 125.881 7.34922 128.243 6.82428 128.418L1.92489 130.255V71.9874H1.8374Z" fill="black"/>
<path d="M154.331 118.707C153.718 118.532 145.232 117.132 144.619 117.044L142.432 116.869L141.382 116.782V52.6523L145.319 53.0023C146.282 53.0898 155.118 54.5771 156.08 54.8396L158.793 55.5395V119.669L154.331 118.707Z" fill="black"/>
<path d="M118.373 99.9848C118.407 100.252 118.466 100.516 118.548 100.772C118.635 100.86 118.81 101.035 119.685 101.122C119.979 101.129 120.271 101.159 120.56 101.21V89.1361C120.037 89.0797 119.511 89.0505 118.985 89.0486L118.373 88.9611V99.9848ZM133.683 115.645C132.021 115.295 120.56 114.42 115.311 114.158L112.511 113.983C108.924 113.896 105.949 112.758 103.937 110.658C101.925 108.646 100.875 105.584 100.875 102.084V59.7398C100.875 56.6777 101.75 54.1405 103.587 52.3032C105.949 50.116 109.011 49.8535 111.024 49.8535H113.298C114.786 49.8535 117.585 50.116 123.622 50.5534C131.934 51.1659 134.121 51.4283 135.171 51.6033C135.409 51.6762 135.643 51.7639 135.871 51.8658L137.97 52.9156V71.9008L123.622 69.976L123.447 69.1886C123.447 69.1886 122.747 65.7765 122.31 63.6768H121.522C121.435 63.6768 119.248 63.5018 119.248 63.5018H118.898C118.718 63.4802 118.536 63.5106 118.373 63.5893V76.9751L121.347 76.8876H121.435C122.135 76.8876 125.284 77.1501 128.434 77.4126C131.671 77.675 134.558 78.025 135.258 78.1125L138.058 78.7249L137.97 116.52L133.683 115.645Z" fill="black"/>
<path d="M82.0644 61.4878V79.5106C80.5771 79.5981 77.6899 79.7731 76.0277 79.8605V64.1125C76.2026 63.0626 76.5526 61.8378 79.1773 61.6628C79.1773 61.6628 80.7521 61.4878 82.0644 61.4878ZM94.0504 52.214V51.6016C86.7013 51.7765 79.4397 52.1265 72.1781 52.7389C65.9664 53.3513 62.4668 57.1134 62.5543 63.4126V114.156L64.3916 113.806C65.004 113.719 73.9279 112.844 74.4529 112.756H75.9402V89.1344C77.4275 89.0469 80.3146 88.7844 81.9769 88.6969V112.406L83.8142 112.231C84.2516 112.144 92.5631 111.794 93.7879 111.794H93.8754L94.9253 111.882H95.5377V51.6016H93.8754L94.0504 52.214Z" fill="white"/>
<path d="M196.238 110.044L187.839 107.595L187.752 108.207C187.752 108.207 186.702 112.756 186.264 114.769C182.94 113.806 181.452 113.369 180.665 113.194C180.064 113.065 179.496 112.812 178.999 112.45C178.501 112.089 178.085 111.627 177.778 111.094C177.479 110.493 177.3 109.839 177.253 109.169V73.0363C177.275 72.5791 177.395 72.1318 177.603 71.724C177.778 71.4615 178.04 71.374 178.565 71.374C178.949 71.3959 179.33 71.4545 179.703 71.549H179.878C179.965 71.549 181.365 71.9864 183.815 72.6864C184.165 74.7861 185.477 82.9226 185.477 82.9226V83.36L196.151 86.5971V66.9121L195.713 66.7371C195.713 66.7371 174.891 60.7878 173.753 60.6129C172.754 60.345 171.726 60.1981 170.691 60.1754C169.183 60.1263 167.703 60.5888 166.492 61.4878C164.654 62.8876 163.78 65.3373 163.78 68.4869V109.082C163.692 115.206 166.929 119.231 172.966 120.718H173.316C174.016 120.893 179.79 122.468 185.564 124.042L194.051 126.667L196.063 127.28L196.238 110.044Z" fill="white"/>
<path d="M37.096 58.1632C34.9429 58.6091 32.9666 59.6732 31.4092 61.2253V59.913L29.5719 60.1755C29.047 60.263 17.5859 62.1002 9.88685 64.5499C7.43715 65.4248 3.93759 68.137 3.8501 71.9865V127.542L6.03732 126.667C6.47477 126.492 14.5238 124.043 15.0487 123.868L15.8361 123.693L16.2735 123.605V76.5359C16.2735 74.1737 18.4608 73.1239 19.9481 72.5989C20.8716 72.3756 21.8061 72.2004 22.7477 72.074V111.619L36.1336 108.469V71.9865C36.4835 69.7993 37.4459 68.7495 39.4582 68.2245C39.8081 68.137 40.9455 67.962 41.9953 67.787V117.481L44.0076 116.956C44.445 116.868 53.4564 115.294 54.0688 115.294L54.9437 115.206H55.5562V54.5762L53.6314 54.9261C53.6314 54.9261 41.033 57.2883 37.096 58.1632Z" fill="white"/>
<path d="M145.145 54.925L144.007 54.8375L143.395 54.75V114.943L143.92 115.03L144.882 115.117C145.32 115.205 154.331 116.605 154.856 116.78L156.868 117.217V56.9372L155.643 56.5873C154.856 56.4123 145.932 54.925 145.145 54.925Z" fill="white"/>
<path d="M121.435 78.724H121.347L120.385 78.8114H119.86V87.2104H120.385C120.385 87.2104 121.61 87.2979 122.485 87.3854V103.396C121.173 103.221 119.51 103.133 119.51 103.133C118.977 103.145 118.45 103.023 117.976 102.779C117.502 102.534 117.097 102.175 116.798 101.734C116.518 101.192 116.368 100.593 116.361 99.9838V63.5884C116.329 63.0568 116.484 62.5309 116.798 62.1011C117.072 61.864 117.393 61.6869 117.739 61.5815C118.086 61.476 118.451 61.4443 118.81 61.4886H119.51C119.773 61.4886 121.26 61.5761 123.885 61.8386C124.235 63.4134 125.197 67.7878 125.197 67.7878L125.285 68.1378L136.046 69.5376V54.0521L135.083 53.6146C134.646 53.4396 134.208 53.2647 123.447 52.4773C117.061 51.9523 114.348 51.7773 113.124 51.7773H110.936C109.187 51.7773 106.737 52.0398 104.987 53.7021C103.5 55.1019 102.8 57.1142 102.8 59.7389V102.084C102.8 108.208 106.299 111.882 112.511 112.057H112.861C114.436 112.057 131.671 113.282 134.033 113.72L135.958 114.07L136.046 80.2113L134.733 79.9488C133.858 79.7739 122.66 78.724 121.435 78.724Z" fill="white"/>
<path d="M194.576 111.27L188.977 109.608L187.315 116.87C183.728 115.732 180.053 114.77 180.053 114.77C179.237 114.576 178.472 114.21 177.808 113.697C177.144 113.185 176.597 112.536 176.203 111.795C175.764 110.989 175.524 110.089 175.504 109.171V73.0378C175.495 72.2252 175.739 71.43 176.203 70.763C176.728 70.0631 177.866 69.2757 180.053 69.9756C181.797 70.3844 183.52 70.8808 185.215 71.463L186.877 82.0491L194.489 84.4113V68.1384C194.489 68.1384 174.366 62.3641 173.491 62.1016C168.154 60.7893 165.442 62.9765 165.442 68.4883V109.083C165.442 114.595 168.154 117.832 173.491 119.145C173.491 119.057 180.228 120.894 186.002 122.557L194.576 125.094V111.27ZM29.8342 67.8759V61.8392C29.8342 61.8392 18.1106 63.6764 10.4116 66.2136C8.39935 66.826 5.51221 69.1007 5.51221 72.0754V125.269C6.12463 125.006 14.0861 122.557 14.6986 122.382V76.6248C14.6986 73.3877 17.3232 71.8129 19.598 71.113C20.8228 70.763 24.4973 70.2381 24.4973 70.2381V109.608L34.6461 107.159V71.9004C34.996 69.1007 36.4833 67.2635 39.1955 66.6511C41.8202 66.2136 43.7449 65.9511 43.7449 65.9511V115.382C44.2699 115.208 53.3687 113.72 53.9812 113.633V56.5023C53.9812 56.5023 41.3827 58.8645 37.4457 59.6519C35.509 60.1225 33.7539 61.1536 32.4001 62.6164C31.0463 64.0791 30.1538 65.9086 29.8342 67.8759ZM144.97 113.545C145.67 113.545 154.506 115.033 155.119 115.208V58.2521C154.506 58.0771 145.582 56.5898 144.97 56.5898V113.545ZM64.1299 63.5014V112.233C64.8298 112.145 73.7537 111.27 74.4536 111.27V87.6484C77.5157 87.386 80.5779 87.211 83.64 87.036V110.658C84.3399 110.571 93.4388 110.221 94.0512 110.221V53.1777C86.7896 53.3527 79.528 53.7902 72.2664 54.4026C66.9296 54.9275 64.1299 58.0771 64.1299 63.5014ZM74.4536 64.1139C74.5411 62.9765 75.1535 60.3518 79.0031 60.0894C80.5779 59.9144 82.0652 59.8269 83.64 59.7394V81.0868C80.5779 81.2617 77.4283 81.5242 74.3661 81.6992V64.1139H74.4536ZM121.435 85.7237C122.048 85.7237 124.147 85.8987 124.147 85.8987V105.059C122.573 104.971 120.998 104.796 119.423 104.709C117.148 104.534 116.011 103.484 115.486 102.522C115.056 101.747 114.844 100.87 114.874 99.9844V73.3002C114.874 68.2259 114.786 64.4638 114.786 64.1139V63.5889C114.78 62.6682 115.089 61.773 115.661 61.0518C116.448 60.1769 117.761 59.7394 119.511 59.9144C119.511 59.8269 122.135 60.0894 125.285 60.3518L126.685 66.7385L134.471 67.7884V55.19C133.859 54.9275 112.774 53.2652 112.774 53.5277H112.424C110.674 53.4402 107.962 53.3527 106.212 54.9275C105.075 55.9774 104.55 57.6397 104.55 59.8269V102.084C104.55 107.508 107.262 110.221 112.774 110.483C112.774 110.308 131.759 111.62 134.471 112.145C134.471 111.533 134.559 82.2241 134.559 81.6117C133.859 81.5242 122.223 80.3868 121.61 80.3868V85.7237H121.435Z" fill="#0B77BD"/>
<path d="M29.8342 67.8766V61.8399C29.8342 61.8399 18.1106 63.6772 10.4116 66.2143C8.39935 66.8268 5.51221 69.1015 5.51221 72.0761V125.269C6.12463 125.007 14.0861 122.557 14.6986 122.382V76.6255C14.6986 73.4759 17.3232 71.8137 19.598 71.1137C20.8228 70.7638 24.4973 70.2388 24.4973 70.2388V109.609L34.6461 107.159V71.9011C34.717 70.6462 35.202 69.4502 36.0252 68.5003C36.8484 67.5504 37.9634 66.9003 39.1955 66.6518C41.8202 66.2143 43.7449 65.9519 43.7449 65.9519V115.383C44.2699 115.208 53.3687 113.721 53.9812 113.633V56.5031C53.9812 56.5031 41.3827 58.8653 37.4457 59.6527C35.509 60.1232 33.7539 61.1544 32.4001 62.6171C31.0463 64.0799 30.1538 65.9093 29.8342 67.8766ZM144.97 113.546C145.67 113.546 154.506 115.033 155.119 115.208V58.1654C154.506 57.9904 145.582 56.5905 144.97 56.5031V113.546ZM121.435 85.7244C122.048 85.7244 124.147 85.8994 124.147 85.8994V105.06C122.573 104.972 120.998 104.797 119.423 104.71C117.148 104.535 116.011 103.485 115.486 102.522C115.041 101.75 114.8 100.877 114.786 99.9851V73.301C114.786 68.2266 114.699 64.4646 114.699 64.1146V63.5897C114.693 62.6689 115.001 61.7738 115.573 61.0525C116.361 60.1776 117.673 59.7402 119.423 59.9151C119.423 59.8276 122.048 60.0901 125.197 60.3526L126.597 66.7393L134.384 67.7892V55.1907C133.684 54.9283 112.686 53.266 112.686 53.5284H112.249C110.674 53.4409 107.874 53.3534 106.125 54.9283C104.987 55.9781 104.462 57.6404 104.462 59.8276V102.085C104.462 107.422 107.175 110.221 112.686 110.484C112.686 110.309 131.671 111.621 134.384 112.146V81.6124C133.771 81.5249 122.135 80.3876 121.435 80.3876V85.7244Z" fill="#0B77BD"/>
<path d="M65.2669 45.04C65.2638 45.0954 65.2459 45.1489 65.2152 45.1951C65.1844 45.2412 65.1418 45.2783 65.0919 45.3024C65.0044 45.4774 64.7419 45.5649 64.392 45.6524C63.9436 45.6711 63.5008 45.7597 63.0796 45.9149H62.9047C62.7297 45.9149 62.7297 45.8273 62.7297 45.8273C62.7299 45.8158 62.7278 45.8043 62.7235 45.7936C62.7192 45.7828 62.7128 45.7731 62.7046 45.7649C62.6964 45.7567 62.6867 45.7503 62.676 45.746C62.6652 45.7417 62.6538 45.7396 62.6422 45.7398V35.7661C62.6422 35.7661 62.6422 35.6786 62.8172 35.5037C63.0058 35.3134 63.2517 35.1905 63.5171 35.1537C63.867 35.1537 64.3045 34.9787 64.6544 34.9787C64.7419 34.9787 64.8294 34.8912 64.9169 34.8912C65.0123 34.8867 65.1059 34.9179 65.1794 34.9787C65.1909 34.9785 65.2024 34.9806 65.2132 34.9849C65.2239 34.9892 65.2336 34.9956 65.2418 35.0038C65.25 35.012 65.2564 35.0217 65.2607 35.0324C65.265 35.0432 65.2671 35.0547 65.2669 35.0662V45.04ZM68.7664 32.7915C68.5163 32.4352 68.1417 32.1854 67.7166 32.0916C67.4168 31.9495 67.0848 31.8892 66.7542 31.9166C66.3121 31.9318 65.8725 31.9904 65.4419 32.0916C64.392 32.2666 63.2546 32.529 62.2048 32.6165C61.4606 32.7413 60.7477 33.0086 60.105 33.4039C59.7219 33.6557 59.3944 33.9832 59.1426 34.3663C58.8654 34.8772 58.7154 35.4474 58.7052 36.0286V46.6148C58.6737 47.1463 58.8284 47.6722 59.1426 48.1021C59.3928 48.4584 59.7674 48.7081 60.1925 48.802H60.9799C61.5048 48.802 61.9423 48.7145 62.3797 48.7145C63.5171 48.452 64.567 48.2771 65.7043 48.1021C66.4246 47.935 67.1276 47.7007 67.8041 47.4022C68.1673 47.1268 68.4911 46.803 68.7664 46.4398C69.0715 45.9727 69.2243 45.4225 69.2039 44.865V34.2788C69.2324 34.0143 69.2084 33.7468 69.1334 33.4916C69.0583 33.2363 68.9336 32.9984 68.7664 32.7915Z" fill="black"/>
<path d="M118.635 30.6935C118.404 30.3164 118.07 30.0129 117.673 29.8187C116.983 29.5078 116.241 29.3298 115.486 29.2937C113.298 29.1187 111.111 29.0312 109.011 29.0312H108.312V45.0418H108.924C109.886 45.1292 110.849 45.1292 111.811 45.2167H112.424V31.7434C112.861 31.7434 113.298 31.8309 113.736 31.8309C115.311 32.0059 115.048 32.5308 115.136 32.6183V45.3042H115.661C116.623 45.3917 117.498 45.4792 118.46 45.5667L119.073 45.6542V32.1809C119.109 31.9161 119.089 31.6466 119.014 31.3902C118.938 31.1337 118.809 30.8963 118.635 30.6935Z" fill="black"/>
<path d="M127.909 43.7268C127.707 43.7687 127.502 43.7979 127.296 43.8143C127.145 43.8371 126.99 43.8062 126.859 43.7268C126.359 43.7169 125.861 43.6583 125.372 43.5518V32.9656C125.809 32.9656 126.247 33.0531 126.684 33.0531C127.053 33.1025 127.409 33.2213 127.734 33.4031C127.996 33.578 128.084 33.6655 128.084 34.103V43.2893C127.996 43.6393 127.996 43.6393 127.909 43.7268ZM131.671 32.1782C131.388 31.7912 131.031 31.4641 130.621 31.2158C129.976 30.8575 129.258 30.6482 128.521 30.6034C127.646 30.4284 123.184 29.9035 122.047 29.816L121.347 29.7285V45.914H121.872C124.059 46.1765 126.247 46.4389 128.346 46.7014C128.662 46.7701 128.986 46.7995 129.309 46.7889C129.694 46.7874 130.078 46.7284 130.446 46.6139C130.881 46.4875 131.274 46.2456 131.583 45.914C131.924 45.4598 132.109 44.9071 132.108 44.3392V33.753C132.098 33.1995 131.947 32.6577 131.671 32.1782Z" fill="black"/>
<path d="M77.9529 36.6402C77.9537 36.8297 77.8922 37.0141 77.7779 37.1652C77.4174 37.3555 77.0356 37.5023 76.6405 37.6026C76.2267 37.6116 75.8155 37.6704 75.4157 37.7776V33.2282C75.8867 33.213 76.3553 33.1544 76.8155 33.0532H77.4279C77.7779 33.0532 77.9529 33.0532 77.9529 33.1407C78.0404 33.2282 77.9529 33.1407 78.0404 33.3156V36.0278C77.9791 36.2261 77.9496 36.4328 77.9529 36.6402ZM82.0649 45.3017V39.9648C82.0721 39.6702 82.0035 39.3787 81.8656 39.1182C81.7277 38.8577 81.5252 38.6371 81.2775 38.4775C81.19 38.4775 81.19 38.39 81.015 38.39C81.3006 38.2144 81.5381 37.9705 81.7061 37.6804C81.8741 37.3902 81.9673 37.0628 81.9774 36.7277V32.6157C81.9777 32.0478 81.7934 31.4951 81.4524 31.0409C81.1771 30.7115 80.8126 30.4684 80.4026 30.341C79.9742 30.228 79.5333 30.1692 79.0902 30.166C78.796 30.1558 78.5017 30.1853 78.2153 30.2535C76.1156 30.516 73.9284 30.7785 71.8286 31.0409L71.3037 31.1284V47.2264L72.0036 47.1389C72.9302 46.9739 73.8646 46.8571 74.8033 46.789L75.3282 46.7015V40.4023C75.7988 40.3818 76.2669 40.3233 76.728 40.2273H77.253C77.4722 40.2026 77.6923 40.2655 77.8654 40.4023C77.9529 40.4023 77.9529 40.4898 77.9529 40.7523V46.3515L78.7403 46.264C79.6152 46.1765 80.5776 46.0891 81.4524 46.0016L82.0649 45.9141V45.3017Z" fill="black"/>
<path d="M93.2635 41.7164V39.6167H92.6511L90.2014 39.7917L89.239 42.6788H88.1891V29.293H87.4892C86.6143 29.3805 85.5645 29.468 84.6896 29.5554H84.0771V45.7409L84.7771 45.6534C87.4017 45.4785 90.1139 45.3035 92.7386 45.216H93.2635V41.7164Z" fill="black"/>
<path d="M102.012 36.2918H99.2998V32.0923C99.2998 32.0048 99.2998 31.9173 99.4747 31.7424C99.8539 31.5517 100.276 31.4613 100.7 31.4799H102.012V36.2918ZM105.511 28.8552H98.9498C98.2045 28.8214 97.4601 28.9405 96.7626 29.2052C96.3635 29.3949 96.0065 29.6626 95.7127 29.9926C95.3582 30.4731 95.1735 31.0579 95.1878 31.6549V45.0407H95.8877C96.7626 45.0407 97.725 44.9532 98.6873 44.9532H99.2998V38.9165H102.012V44.8657H102.624C103.499 44.8657 104.549 44.8657 105.424 44.9532H106.124V28.8552H105.511Z" fill="black"/>
<path d="M140.507 45.7427V45.8302C140.434 45.891 140.34 45.9223 140.245 45.9177C140.197 45.9236 140.149 45.9188 140.104 45.9036C140.058 45.8885 140.017 45.8634 139.982 45.8302C139.553 45.7232 139.113 45.6646 138.67 45.6552C138.32 45.5677 138.058 45.3927 138.058 45.2178C138.008 45.1724 137.977 45.11 137.97 45.0428V34.9815H138.583C138.933 35.069 139.37 35.1565 139.72 35.244C139.974 35.2613 140.217 35.3526 140.42 35.5065C140.469 35.5483 140.504 35.6045 140.52 35.6673C140.536 35.7301 140.531 35.7963 140.507 35.8564V45.7427ZM144.094 34.4566C143.868 34.0539 143.535 33.7211 143.132 33.4942C142.494 33.0711 141.782 32.7741 141.032 32.6193C139.982 32.4444 138.845 32.1819 137.795 32.0069C137.391 31.9373 136.981 31.908 136.57 31.9194C136.247 31.9009 135.923 31.9304 135.608 32.0069C135.18 32.1027 134.786 32.3146 134.471 32.6193C134.128 33.1059 133.945 33.6866 133.946 34.2816V44.8678C133.925 45.4253 134.078 45.9755 134.383 46.4426C134.635 46.8257 134.962 47.1532 135.345 47.405C136.012 47.7298 136.718 47.9651 137.445 48.1049C138.583 48.2799 139.632 48.4549 140.682 48.7173C141.143 48.8133 141.612 48.8719 142.082 48.8923C142.348 48.9066 142.614 48.877 142.87 48.8048C143.311 48.7458 143.715 48.528 144.007 48.1924C144.333 47.7352 144.488 47.1776 144.444 46.6176V36.0314C144.454 35.4861 144.335 34.9463 144.094 34.4566Z" fill="black"/>
<path d="M77.253 122.028L79.2653 121.065L81.0151 122.553L80.6651 120.366L82.5899 119.228L80.4027 118.791L79.8777 116.604L78.8279 118.616L76.6406 118.353L78.2154 120.016L77.253 122.028Z" fill="white"/>
<path d="M145.233 109.522C147.245 108.647 150.919 107.072 150.919 107.072L151.182 106.985L150.919 106.897C150.919 106.897 144.97 104.885 143.745 104.535C143.483 103.135 142.608 96.6609 142.608 96.6609L142.521 96.3984L140.333 99.898C140.333 99.898 139.108 101.91 138.409 102.96C137.009 102.523 130.884 101.035 130.884 101.035L130.535 100.86L130.797 101.21C130.797 101.21 133.247 104.36 134.734 106.372C127.689 104.88 120.5 104.176 113.299 104.272C110.587 104.272 107.787 104.36 104.813 104.535C93.681 105.181 82.6955 107.389 72.1793 111.097L73.4041 107.422L73.1417 107.51C56.6937 112.671 38.671 128.157 30.7095 143.38L30.8845 143.468C42.0831 132.969 57.3936 124.482 71.0419 121.42L67.4549 129.732L67.7174 129.644C74.0166 126.582 82.4155 125.27 90.8145 125.27C99.4759 125.27 108.137 126.67 114.874 129.119L112.337 134.719C106.213 131.919 97.3762 130.082 89.9396 130.082C88.6273 130.082 87.4024 130.082 86.1776 130.169V130.432C94.9265 132.881 103.85 135.681 111.024 141.368C110.952 141.977 110.922 142.591 110.937 143.205C110.937 158.166 123.885 171.814 139.196 171.814H139.546C156.256 171.639 168.767 156.241 168.767 140.143C168.68 128.419 161.943 116.258 145.233 109.522Z" fill="black"/>
<path d="M136.045 137.081C129.921 137.081 123.622 134.806 117.41 132.531C115.794 135.919 114.957 139.626 114.961 143.38C114.934 145.385 115.169 147.385 115.66 149.329H117.235C129.554 149.297 141.65 146.04 152.318 139.88C151.051 137.695 149.649 135.591 148.119 133.581C144.52 135.895 140.324 137.111 136.045 137.081Z" fill="#C2CCD2"/>
<path d="M116.798 151.602H116.361C120.123 161.401 128.784 167.788 139.283 167.963C142.695 159.651 146.37 150.64 154.944 146.353C154.506 144.953 153.981 143.466 153.369 141.979C142.243 148.362 129.625 151.683 116.798 151.602Z" fill="#C2CCD2"/>
<path d="M142.782 121.16C140.761 120.285 138.648 119.64 136.483 119.235C135.433 119.41 133.946 119.497 132.808 119.672C139.195 122.209 143.919 125.272 148.556 130.608C150.99 128.779 153.041 126.491 154.593 123.872C150.306 119.672 142.17 114.51 121.785 112.936C130.359 114.948 138.233 117.747 142.87 120.985L142.782 121.16Z" fill="#C2CCD2"/>
<path d="M85.8271 118.269H89.8516C104.287 118.269 126.51 119.932 135.171 130.168L134.996 130.343C132.021 128.768 126.072 125.968 122.31 125.968H122.048C120.738 127.369 119.566 128.893 118.548 130.518C124.322 132.705 130.184 134.805 135.958 134.805C139.784 134.863 143.546 133.831 146.807 131.83C136.746 120.894 119.86 116.082 103.85 116.082C97.7785 116.12 91.7314 116.854 85.8271 118.269Z" fill="#C2CCD2"/>
<path d="M154.068 138.743C156.84 136.946 159.344 134.767 161.505 132.269C160.089 129.633 158.223 127.264 155.993 125.27C154.419 127.998 152.34 130.403 149.869 132.356C151.478 134.34 152.885 136.479 154.068 138.743Z" fill="#C2CCD2"/>
<path d="M141.732 167.875C146.746 167.379 151.498 165.399 155.38 162.188C155.977 159.933 156.272 157.609 156.255 155.277C156.268 153.074 156.063 150.876 155.643 148.715C147.944 152.389 144.794 160.438 141.732 167.875Z" fill="#C2CCD2"/>
<path d="M158.443 156.765V159.039C161.314 155.349 163.183 150.979 163.867 146.354C161.699 146.571 159.559 147.011 157.48 147.666C158.146 150.652 158.469 153.705 158.443 156.765Z" fill="#C2CCD2"/>
<path d="M155.206 140.841C155.818 142.328 156.43 143.903 157.043 145.478C159.349 144.78 161.726 144.34 164.129 144.166V143.641C164.176 140.593 163.641 137.564 162.555 134.717C160.331 137.015 157.867 139.068 155.206 140.841Z" fill="#C2CCD2"/>
<path d="M164.13 144.166C161.697 144.34 159.292 144.78 156.955 145.478C156.434 143.898 155.821 142.349 155.118 140.841C157.804 139.064 160.296 137.012 162.555 134.717C163.551 137.589 164.082 140.601 164.13 143.641V144.166Z" fill="#C2CCD2"/>
<path d="M155.993 125.18C158.204 127.226 160.066 129.62 161.505 132.266C159.318 134.713 156.818 136.861 154.069 138.653C152.831 136.469 151.458 134.365 149.957 132.354C152.401 130.362 154.449 127.929 155.993 125.18Z" fill="#C2CCD2"/>
<path d="M121.872 112.846C142.17 114.421 150.306 119.67 154.68 123.782C153.126 126.399 151.075 128.687 148.644 130.519C144.36 125.669 138.953 121.944 132.896 119.67C134.078 119.416 135.277 119.24 136.483 119.145C138.652 119.642 140.786 120.286 142.869 121.07L142.957 120.895C138.32 117.658 130.446 114.858 121.872 112.846Z" fill="#C2CCD2"/>
<path d="M117.235 149.329H115.66C115.169 147.355 114.934 145.326 114.961 143.292C114.957 139.567 115.795 135.888 117.41 132.531C123.622 134.806 129.834 137.081 136.045 137.081C140.318 137.069 144.502 135.856 148.119 133.581C149.726 135.504 151.133 137.585 152.318 139.793C141.657 145.979 129.561 149.267 117.235 149.329Z" fill="#C2CCD2"/>
<path d="M139.283 167.963C128.784 167.788 120.123 161.401 116.361 151.602H116.798C129.623 151.672 142.239 148.352 153.369 141.979C153.985 143.402 154.511 144.863 154.944 146.353C146.37 150.64 142.608 159.651 139.283 167.963Z" fill="#C2CCD2"/>
<path d="M158.443 159.039V156.765C158.469 153.705 158.146 150.652 157.48 147.666C159.557 147.003 161.698 146.563 163.867 146.354C163.216 150.988 161.344 155.367 158.443 159.039Z" fill="#C2CCD2"/>
<path d="M146.807 131.832C143.578 133.831 139.844 134.863 136.046 134.806C130.184 134.806 124.322 132.707 118.636 130.519C119.623 128.896 120.766 127.373 122.048 125.97H122.398C126.072 125.97 132.109 128.682 135.084 130.344L135.258 130.169C126.597 119.933 104.375 118.271 89.9391 118.271H85.8271C91.757 116.842 97.838 116.137 103.937 116.171C119.86 116.171 136.833 120.895 146.807 131.832Z" fill="#C2CCD2"/>
<path d="M155.38 162.188C151.498 165.399 146.746 167.379 141.732 167.875C144.794 160.438 147.944 152.389 155.555 148.715C156.004 150.874 156.239 153.072 156.255 155.277C156.272 157.609 155.977 159.933 155.38 162.188Z" fill="#C2CCD2"/>
<path d="M135.258 111.707L139.72 110.22L143.045 113.982L142.695 108.995L146.982 107.158L142.257 105.583L141.557 100.684L139.108 104.708L134.383 103.483L137.533 107.508L135.258 111.707Z" fill="#C2CCD2"/>
<path d="M111.811 115.296L114.873 113.721L117.41 116.083L116.885 112.671L119.86 110.921L116.448 110.396L115.748 106.984L114.173 110.046L110.761 109.697L113.123 112.146L111.811 115.296Z" fill="white"/>
<path d="M77.253 122.028L79.2653 121.065L80.9276 122.553L80.6651 120.366L82.5899 119.228L80.3152 118.791L79.8777 116.604L78.8279 118.616L76.6406 118.353L78.1279 120.016L77.253 122.028Z" fill="white"/>
<path d="M153.631 152.565V152.215L150.831 156.939L151.619 152.74L151.444 152.652C147.244 157.727 145.669 161.314 144.357 165.776V166.038L144.532 165.951C147.465 164.987 150.215 163.538 152.668 161.664C153.368 160.176 153.631 157.114 153.631 153.352V152.565Z" fill="#0B77BD"/>
<path d="M144.182 141.541C139.309 142.486 134.36 142.984 129.396 143.028C128.695 143.044 127.994 143.015 127.296 142.941L137.708 139.791V139.616C130.796 139.266 125.459 139.178 118.722 136.029L118.635 135.941L118.548 136.029C117.495 138.18 116.956 140.546 116.973 142.941C116.955 144.392 117.162 145.838 117.585 147.227H118.373C121.347 147.227 133.771 146.965 144.182 141.716V141.541Z" fill="#0B77BD"/>
<path d="M146.457 150.027C141.207 153.964 137.183 157.114 129.484 158.513C136.658 154.839 141.47 152.214 146.019 147.577L145.844 147.402C137.795 152.127 127.297 154.139 119.948 154.401H119.685L119.86 154.576C125.897 164.2 133.596 165.075 136.133 165.075H137.008V164.988C140.332 159.826 142.432 154.839 146.632 150.115L146.457 150.027Z" fill="#0B77BD"/>
<path fill-rule="evenodd" clip-rule="evenodd" d="M141.032 117.919C140.69 117.674 140.304 117.496 139.895 117.395C146.107 119.232 150.306 121.594 152.668 123.431C152.309 123.965 151.898 124.463 151.444 124.919C148.468 121.923 144.93 119.545 141.032 117.919ZM160.192 152.828V152.39C160.568 150.754 160.774 149.082 160.805 147.403C161.25 147.224 161.725 147.135 162.205 147.141C161.719 149.097 161.045 151.001 160.192 152.828ZM162.817 141.891C162.051 141.952 161.291 142.069 160.542 142.241C160.373 141.027 160.11 139.828 159.755 138.654C160.622 138.049 161.415 137.344 162.117 136.555C162.619 138.288 162.855 140.087 162.817 141.891ZM160.105 131.655C159.318 132.355 158.705 133.055 158.005 133.667C157.303 132.03 156.423 130.475 155.381 129.031C155.906 128.331 156.43 127.718 156.868 127.018C158.14 128.42 159.228 129.978 160.105 131.655Z" fill="white"/>
</g>
<defs>
<clipPath id="clip0_18_255">
<rect width="200" height="200" fill="white"/>
</clipPath>
</defs>
</svg>
