<svg width="200" height="200" viewBox="0 0 200 200" fill="none" xmlns="http://www.w3.org/2000/svg">
<path d="M2.12198 120.474C13.4438 174.51 66.4505 209.154 120.536 197.868C146.59 192.642 169.409 177.082 183.774 154.744C198.127 132.484 203.228 105.509 197.994 79.5513C186.662 25.5413 133.707 -9.10623 79.6296 2.10769C53.6387 7.5284 30.869 23.0466 16.3324 45.2463C1.79576 67.4461 -3.31611 94.5077 2.12205 120.474" fill="#006BB6"/>
<path d="M134.105 22.1184C134.456 26.0206 132.603 29.8228 128.698 33.4248C109.922 19.667 92.0469 12.9133 74.5226 12.8132C70.8511 12.815 67.1851 13.0993 63.5573 13.6636C69.1471 11.3169 74.948 9.50774 80.8814 8.26068C96.2952 5.02215 112.278 5.72769 127.346 10.3118C130.6 13.4636 133.755 17.5659 134.105 22.1184H134.105ZM114.528 183.609C134.255 165.499 143.418 126.727 148.876 103.564L149.727 99.9621C152.531 88.1555 157.488 79.3506 162.845 74.0976C182.623 104.815 179.969 136.533 174.962 156.444C157.206 179.927 129.464 193.741 100.008 193.765C105.295 191.067 110.181 187.649 114.528 183.609ZM150.378 52.0353C158.389 45.3315 164.798 40.2286 169.354 36.8768C179.277 47.7163 186.5 60.7434 190.433 74.8981C186.728 69.9454 182.022 65.2427 176.915 64.1921C172.509 63.2916 168.002 64.5423 163.746 67.544C159.711 62.0271 155.24 56.841 150.378 52.0353ZM8.08032 95.8099C17.193 71.3962 50.5893 61.3905 63.1568 57.6384L63.7076 57.4883C69.2802 56.0368 74.9303 54.901 80.6311 54.0864C96.8035 51.3349 116.781 47.9329 128.848 38.9279C134.1 42.9392 139.131 47.2312 143.919 51.7851C116.631 74.9481 74.4224 113.87 29.41 161.647C18.8064 149.555 11.5259 134.92 8.28064 119.173C6.94625 112.89 6.27498 106.485 6.27784 100.062C7.32932 97.5609 8.08032 95.8099 8.08032 95.8099Z" fill="white"/>
<path d="M147.223 48.983C142.446 44.4205 137.432 40.1121 132.202 36.0757C136.759 31.6232 138.862 26.8205 138.411 21.7177C138.1 18.669 137.033 15.746 135.307 13.2129C146.88 17.9606 157.409 24.9291 166.3 33.7244C161.593 37.2264 155.134 42.3793 147.223 48.983ZM125.193 36.2259C113.877 44.0302 95.1509 47.232 79.8797 49.7835C74.0146 50.647 68.1986 51.8159 62.4555 53.2854L61.9047 53.4355C49.838 57.0376 19.4958 66.0926 6.97852 87.9549C8.80778 73.9336 13.7889 60.5076 21.5486 48.6828C28.2189 38.4419 36.7431 29.5346 46.6835 22.4181C68.9144 13.0628 93.849 13.7131 125.192 36.2258L125.193 36.2259ZM176.013 68.444C182.572 69.7947 189.582 80.8009 192.937 87.1045C195.86 107.563 191.86 128.411 181.571 146.338C182.072 143.186 182.472 139.834 182.772 136.332C184.633 113.384 178.802 90.4696 166.199 71.1955C169.604 68.7941 173.009 67.8436 176.013 68.4439V68.444ZM147.073 54.8362C151.944 59.6054 156.384 64.7951 160.341 70.3449C153.932 76.4484 148.475 86.554 145.521 98.9611L144.67 102.613C139.312 125.326 130.35 163.297 111.624 180.457C105.368 186.382 97.8034 190.752 89.5431 193.214C74.9541 191.565 60.9582 186.509 48.6864 178.456C42.7407 174.56 37.2491 170.012 32.3136 164.898C77.7768 116.571 120.136 77.6991 147.073 54.8362Z" fill="white"/>
<path d="M125.944 127.829L128.497 127.128C130.05 126.728 131.051 126.228 131.051 123.977C131.051 122.125 130.55 118.774 128.297 118.774C125.944 118.774 125.944 122.776 125.944 124.927V127.829H125.944ZM95.4515 126.428C95.4515 118.423 95.1511 111.52 89.7436 111.52C85.3375 111.52 84.5364 118.423 84.5364 126.428C84.5364 134.432 84.286 141.386 89.7436 141.386C94.3 141.336 95.4515 134.432 95.4515 126.428Z" fill="white"/>
<path d="M125.944 127.829L128.497 127.129C130.049 126.728 131.051 126.228 131.051 123.977C131.051 122.126 130.55 118.774 128.297 118.774C125.944 118.774 125.944 122.776 125.944 124.927V127.829H125.944ZM83.8853 108.068H83.9855C86.5891 104.016 91.546 102.065 96.4028 102.065C107.418 102.065 114.177 111.57 114.177 124.327C114.177 139.436 103.913 148.441 91.2456 148.441C71.7685 148.441 64.6587 132.732 64.6587 114.522C64.6587 93.5598 73.7714 76.25 96.4528 76.25C105.315 76.25 112.575 81.9532 112.575 90.6581C112.61 91.7841 112.411 92.9051 111.991 93.9505C111.571 94.996 110.939 95.9433 110.135 96.7327C109.331 97.5222 108.372 98.1368 107.318 98.5378C106.265 98.9388 105.139 99.1176 104.013 99.0628C97.9049 99.0628 95.9521 93.9599 95.0509 89.4575C94.7004 87.5564 95.4014 83.354 92.247 83.354C85.6379 83.354 84.5864 96.2612 84.2859 101.014L83.8854 108.068L83.8853 108.068Z" fill="white"/>
<path d="M95.4515 126.426C95.4515 118.421 95.1511 111.518 89.7436 111.518C85.3375 111.518 84.5364 118.421 84.5364 126.426C84.5364 134.43 84.2861 141.384 89.7436 141.384C94.3 141.334 95.4515 134.43 95.4515 126.426ZM158.589 112.168C157.638 112.169 156.698 112.375 155.834 112.772C154.97 113.169 154.202 113.748 153.582 114.469C153.432 114.169 153.332 113.869 153.182 113.619L152.13 111.568L137.159 115.97V124.175H139.913C140.164 124.175 140.314 124.225 140.364 124.175C140.719 125.306 140.838 126.498 140.714 127.677V137.182L137.961 137.582V146.587H158.689V137.582L155.986 137.182V134.38C156.049 132.212 156.3 130.052 156.737 127.927C157.611 128.2 158.524 128.335 159.44 128.327C163.146 128.327 165.749 124.975 165.749 120.222C165.799 115.42 162.895 112.168 158.589 112.168Z" fill="white"/>
<path d="M184.575 121.723C184.425 121.305 184.34 120.866 184.325 120.422C184.325 117.971 183.323 112.267 174.261 112.267C169.254 112.267 159.39 116.12 159.39 125.075C159.306 127.777 160.154 130.427 161.793 132.579C160.76 133.24 159.92 134.161 159.357 135.251C158.795 136.34 158.53 137.558 158.589 138.782C158.589 141.984 160.191 147.387 171.056 147.387C180.369 147.387 185.676 142.585 185.676 134.18C185.727 126.175 185.026 123.524 184.575 121.723ZM75.0229 73.5956C74.744 73.2702 74.3986 73.0081 74.0101 72.8269C73.6215 72.6457 73.1986 72.5496 72.7699 72.545C71.418 72.545 70.3164 73.3955 69.0146 74.7963C66.7891 77.1203 64.1042 78.9564 61.1304 80.188C58.1567 81.4196 54.959 82.0197 51.7407 81.9503C42.7281 81.9503 33.2149 77.7979 25.6544 70.594C25.3645 70.3065 25.0207 70.079 24.6426 69.9245C24.2646 69.77 23.8598 69.6914 23.4513 69.6934C19.7462 69.6934 18.7949 75.5968 18.7949 75.6968V105.363L21.1482 105.714C29.033 107.071 37.1139 106.782 44.8811 104.863C37.2706 111.667 20.1468 130.177 20.3971 147.787C20.4471 151.039 22.4499 151.389 23.3012 151.389C24.1471 151.376 24.9548 151.035 25.5542 150.439C25.7045 150.339 25.8547 150.189 26.0049 150.089C29.2543 148.061 33.0429 147.067 36.8699 147.237C40.3333 147.188 43.7663 147.888 46.9339 149.288C47.5022 149.601 48.1376 149.773 48.7864 149.789C49.1994 149.791 49.6085 149.708 49.9877 149.544C50.3669 149.38 50.708 149.14 50.9895 148.838C51.3442 148.393 51.5956 147.875 51.7255 147.321C51.8553 146.768 51.8605 146.192 51.7405 145.636C50.4889 132.829 53.2927 118.871 58.7502 110.817L59.5514 109.616C64.2078 102.762 73.8712 88.454 75.6737 76.6474C75.8026 76.1226 75.811 75.5755 75.6983 75.047C75.5856 74.5185 75.3547 74.0223 75.0229 73.5956ZM143.969 130.278L143.819 128.026C143.74 126.608 143.522 125.2 143.168 123.824L143.067 121.222L142.567 121.973C140.641 116.074 135.108 112.105 128.898 112.167C119.284 112.167 112.575 119.772 112.575 130.628C112.575 138.982 117.482 147.387 128.347 147.387C134.434 147.471 140.117 144.356 143.318 139.183L143.718 138.482L143.418 130.428L143.969 130.278H143.969ZM132.303 135.48C131.837 135.467 131.384 135.324 130.995 135.068C130.606 134.812 130.296 134.452 130.099 134.03L135.407 132.579C134.586 133.752 133.528 134.74 132.302 135.48H132.303Z" fill="white"/>
<path d="M108.169 104.014C107.619 103.264 107.018 102.363 106.517 101.613C111.783 100.699 115.566 96.0432 115.38 90.7065C115.38 80.901 107.268 73.5469 96.5033 73.5469C74.8732 73.5469 61.9053 88.9055 61.9053 114.57C61.9053 137.883 72.6201 151.241 91.246 151.241C106.367 151.241 116.932 140.184 116.932 124.375C116.982 116.471 111.674 108.967 108.169 104.014Z" fill="white"/>
<path d="M132.353 138.284C128.998 138.284 126.996 135.232 126.695 132.13L141.115 128.228C140.715 121.174 136.609 114.971 128.948 114.971C120.787 114.971 115.379 121.324 115.379 130.68C115.379 137.984 119.585 144.637 128.398 144.637C133.508 144.746 138.292 142.137 140.965 137.784L138.111 134.382C136.759 136.583 135.107 138.284 132.353 138.284ZM125.994 124.976C125.994 122.825 125.994 118.823 128.347 118.823C130.55 118.823 131.101 122.175 131.101 124.026C131.15 124.402 131.121 124.784 131.018 125.148C130.914 125.513 130.738 125.853 130.499 126.148C130.261 126.442 129.965 126.685 129.629 126.862C129.294 127.039 128.926 127.147 128.548 127.178L125.994 127.878V124.976Z" fill="#006BB6"/>
<path d="M156.035 143.839H140.814V139.987L143.568 139.587V127.68C143.568 123.428 143.017 121.377 139.963 121.377V118.025L150.778 114.873C151.905 117.342 152.518 120.014 152.58 122.728H152.681C153.782 119.476 155.134 114.923 158.639 114.923C161.743 114.923 163.095 117.324 163.095 120.226C163.095 123.178 161.793 125.579 159.54 125.579C158.294 125.498 157.073 125.193 155.935 124.679C153.982 124.028 153.331 132.583 153.331 134.384V139.587L156.035 139.987V143.839H156.035H156.035Z" fill="#006BB6"/>
<path d="M181.62 120.472C181.62 122.824 179.568 124.024 177.415 124.024C174.851 123.882 172.76 121.92 172.458 119.372C171.356 119.372 170.555 119.922 170.555 121.823C170.555 126.226 183.022 123.074 183.022 134.23C183.022 142.585 176.964 144.686 171.156 144.686C167.601 144.686 161.442 144.236 161.442 138.833C161.442 136.381 162.794 134.53 165.248 134.53C169.003 134.53 169.654 137.982 170.305 140.434C170.391 140.687 170.564 140.901 170.793 141.038C171.022 141.176 171.293 141.227 171.556 141.184C173.559 141.184 175.011 140.384 175.011 139.033C175.011 134.03 162.244 135.981 162.244 125.075C162.244 118.171 170.405 115.069 174.36 115.069C178.817 115.069 181.62 116.57 181.62 120.472ZM96.5023 102.112C91.6456 102.112 86.6887 104.063 84.0851 108.115H83.9849L84.4857 101.112C84.7861 96.3588 85.8376 83.4516 92.4467 83.4516C95.6011 83.4516 94.9001 87.6539 95.2506 89.5551C96.1018 94.0076 98.0545 99.1605 104.213 99.1605C105.338 99.2113 106.462 99.0298 107.513 98.6273C108.565 98.2249 109.523 97.6102 110.326 96.8215C111.13 96.0328 111.762 95.0872 112.183 94.0435C112.604 92.9999 112.806 91.8807 112.775 90.7558C112.775 82.0509 105.515 76.3477 96.6526 76.3477C73.9711 76.3477 64.8584 93.6574 64.8584 114.619C64.8584 132.829 71.9183 148.538 91.4453 148.538C104.113 148.538 114.377 139.533 114.377 124.425C114.277 111.617 107.518 102.112 96.5024 102.112L96.5023 102.112ZM89.7429 141.384C84.3355 141.384 84.5358 134.43 84.5358 126.426C84.5358 118.421 85.2868 111.517 89.7429 111.517C95.2005 111.517 95.4508 118.421 95.4508 126.426C95.5009 134.43 94.3494 141.384 89.7429 141.384Z" fill="#006BB6"/>
<path d="M21.5488 75.9487V102.964C36.6698 105.215 54.745 103.714 67.5627 85.0538C68.1135 84.2533 68.4139 84.8036 68.0634 85.504C64.5084 92.7581 56.0467 99.4619 48.7366 105.215C41.7269 110.718 22.9007 130.429 23.1511 147.789C23.1511 149.14 23.2011 148.74 24.4028 147.889C30.1107 143.637 41.2762 143.537 48.1358 146.788C49.0871 147.239 49.1872 147.089 49.037 145.888C47.7352 132.43 50.7394 117.772 56.4974 109.217C60.4528 103.314 71.1677 88.1054 73.0203 76.1987C73.2206 74.948 72.5696 75.1481 71.0175 76.7991C58.9007 89.6063 37.0203 89.2561 22.8507 75.7485C21.9995 74.7979 21.5989 75.1981 21.5488 75.9485" fill="#ED174C"/>
<path d="M47.7972 85.6667C62.1206 85.6667 73.732 74.0649 73.732 59.7533C73.732 45.4417 62.1206 33.8398 47.7972 33.8398C33.4737 33.8398 21.8623 45.4417 21.8623 59.7533C21.8623 74.0649 33.4737 85.6667 47.7972 85.6667Z" fill="white"/>
<path d="M47.7853 34.7754L48.6364 37.5271H51.591L49.1872 39.2279L50.0383 41.9297L47.7853 40.2787L45.4326 41.9298L46.3335 39.2279L43.9297 37.5271H46.8843L47.7853 34.7754ZM65.0093 44.8308L65.9102 47.5327H68.8649L66.461 49.2833L67.3122 51.9852L65.0093 50.3342L62.7065 51.9852L63.6074 49.2833L61.2049 47.5327H64.1582L65.0093 44.8308ZM57.5999 37.0763L58.5008 39.7782H61.4541L59.0516 41.5288L59.9027 44.2307L57.6497 42.5797L55.3455 44.2307L56.198 41.5289L53.7942 39.7782H56.7487L57.5999 37.0763ZM67.8629 54.2861L68.7154 57.0378H71.6686L69.2661 58.7884L70.1671 61.4903L67.8629 59.8393L65.5602 61.4903L66.4112 58.7884L64.0586 57.0378H66.962L67.8629 54.2861ZM66.6119 64.3416L67.5128 67.0933H70.4176L68.0636 68.8438L68.9147 71.5458L66.6119 69.8449L64.3091 71.5458L65.1602 68.7941L62.8061 67.0933H65.7608L66.6119 64.3416ZM61.0541 72.3464L61.9052 75.0981H64.8598L62.5058 76.8486L63.357 79.5505L61.104 77.8996L58.7513 79.5506L59.6522 76.8486L57.2484 75.0981H60.203L61.0541 72.3464ZM52.3424 76.8486L53.2433 79.6003H56.1468L53.7443 81.3509L54.6452 84.0528L52.3424 82.4018L50.0383 84.0529L50.8894 81.3509L48.5368 79.6003H51.4402L52.3424 76.8486ZM30.2111 43.9306L29.3102 46.6823H26.4067L28.7593 48.3831L27.9082 51.0849L30.1612 49.434L32.514 51.085L31.613 48.3832L34.0168 46.6823H31.0622L30.2111 43.9306ZM37.4212 37.0763L36.5203 39.7782H33.6155L35.9695 41.5288L35.1184 44.2307L37.4212 42.5797L39.7241 44.2307L38.8729 41.5289L41.2269 39.7782H38.3221L37.4212 37.0763ZM26.8066 53.0859L25.9556 55.8375H23.001L25.4048 57.5384L24.5537 60.29L26.8067 58.5893L29.1095 60.29L28.2584 57.5384L30.6622 55.8375H27.7574L26.8066 53.0859ZM27.7575 63.0915L26.8565 65.8432H23.9032L26.3057 67.5938L25.4546 70.2956L27.7076 68.6447L30.0104 70.2957L29.1593 67.5939L31.5133 65.8432H28.6085L27.7575 63.0915ZM33.2654 71.2955L32.4142 74.0472H29.4597L31.8635 75.7977L30.9625 78.4997L33.2654 76.7988L35.6194 78.4997L34.7171 75.7978L37.0711 74.0472H34.1663L33.2654 71.2955ZM41.9771 76.4988L41.126 79.2505H38.1727L40.5752 81.0011L39.7241 83.7029L41.9771 82.052L44.3311 83.703L43.4301 80.9513L45.8326 79.2505H42.8793L41.9771 76.4988Z" fill="#006BB6"/>
</svg>
