<svg width="200" height="200" viewBox="0 0 200 200" fill="none" xmlns="http://www.w3.org/2000/svg">
<g clip-path="url(#clip0_2_680)">
<path d="M200 100C200 155.228 155.228 200 100 200C44.7715 200 0 155.229 0 100C0 44.7715 44.7715 1.72654e-06 100 1.72654e-06C126.523 -0.00492382 151.961 10.5292 170.716 29.2839C189.471 48.0386 200.005 73.4769 200 100" fill="white"/>
<path d="M196.319 100.001C196.319 138.959 172.852 174.08 136.86 188.989C100.868 203.897 59.439 195.656 31.8919 168.109C4.3447 140.562 -3.89599 99.1333 11.0124 63.1412C25.9208 27.1491 61.0424 3.68164 99.9999 3.68164C153.195 3.68255 196.318 46.8057 196.319 100.001" fill="#006BB6"/>
<path d="M18.5413 116.424L20.5202 122.709H27.1873L21.8052 126.632L23.7496 132.813L18.5413 129.029L13.2638 132.813L15.2428 126.632L9.82617 122.709H16.4923L18.5413 116.424ZM181.492 116.424L183.472 122.709H190.173L184.756 126.632L186.736 132.813L181.492 129.029L176.249 132.813L178.229 126.632L172.812 122.709H179.444L181.492 116.424ZM41.9438 150.105L43.9236 156.354H50.5898L45.1732 160.313L47.1521 166.494L41.9438 162.709L36.6664 166.494L38.6453 160.313L33.2287 156.354H39.8958L41.9438 150.105ZM160.278 150.105L162.257 156.354H168.923L163.541 160.313L165.521 166.494L160.278 162.709L154.999 166.494L157.014 160.313L151.597 156.354H158.229L160.278 150.105ZM78.4368 172.014L80.3821 178.299H87.0828L81.6662 182.223L83.6451 188.403L78.4368 184.619L73.1593 188.403L75.1382 182.222L69.7216 178.299H76.3887L78.4368 172.014ZM122.777 172.014L124.756 178.299H131.423L126.007 182.223L127.986 188.403L122.777 184.619L117.5 188.403L119.479 182.222L114.062 178.299H120.729L122.777 172.014Z" fill="white"/>
<path d="M172.222 100.453C172.222 140.34 139.887 172.675 100 172.675C60.1128 172.675 27.7778 140.34 27.7778 100.453C27.7778 60.5655 60.1128 28.2305 100 28.2305C119.155 28.2275 137.527 35.8357 151.072 49.3807C164.617 62.9256 172.225 81.2972 172.222 100.453" fill="white"/>
<path d="M32.0834 114.653C39.9348 152.156 76.6939 176.201 114.201 168.368C132.269 164.741 148.094 153.941 158.056 138.437C168.009 122.988 171.547 104.266 167.917 86.25C160.058 48.7641 123.335 24.7169 85.8334 32.5C67.8092 36.2622 52.0189 47.0327 41.938 62.4405C31.8571 77.8483 28.3122 96.6305 32.0834 114.653" fill="#006BB6"/>
<path d="M123.611 46.3882C123.854 49.0965 122.57 51.7355 119.861 54.2354C106.84 44.6868 94.4445 39.9993 82.2917 39.9299C79.7456 39.9311 77.2034 40.1285 74.6875 40.5201C78.564 38.8914 82.5868 37.6357 86.7014 36.7702C97.3906 34.5225 108.474 35.0122 118.924 38.1938C121.181 40.3813 123.368 43.2285 123.611 46.3882H123.611ZM110.035 158.472C123.715 145.902 130.069 118.992 133.854 102.916L134.444 100.416C136.389 92.2215 139.826 86.1104 143.542 82.4646C157.257 103.784 155.417 125.798 151.944 139.617C139.631 155.916 120.392 165.503 99.9653 165.52C103.632 163.648 107.02 161.275 110.035 158.472ZM134.896 67.1521C140.451 62.4993 144.896 58.9577 148.056 56.6313C154.937 64.1545 159.946 73.196 162.674 83.0202C160.104 79.5827 156.84 76.3188 153.299 75.5896C150.243 74.9646 147.118 75.8327 144.167 77.916C141.368 74.087 138.268 70.4876 134.896 67.1521ZM36.2153 97.534C42.5348 80.5896 65.6945 73.6451 74.4098 71.041L74.7918 70.9368C78.6562 69.9294 82.5745 69.1411 86.5278 68.5757C97.7431 66.666 111.597 64.3048 119.965 58.0549C123.607 60.8389 127.096 63.8178 130.417 66.9785C111.493 83.0548 82.2223 110.069 51.007 143.228C43.6537 134.836 38.6048 124.678 36.3542 113.749C35.4289 109.389 34.9634 104.943 34.9653 100.485C35.6945 98.7493 36.2153 97.534 36.2153 97.534Z" fill="white"/>
<path d="M132.708 65.0353C129.395 61.8687 125.918 58.8785 122.291 56.077C125.451 52.9868 126.909 49.6534 126.597 46.1118C126.381 43.9958 125.641 41.9671 124.444 40.209C132.47 43.5041 139.772 48.3407 145.937 54.4451C142.673 56.8757 138.194 60.452 132.708 65.0353ZM117.43 56.1812C109.583 61.5978 96.597 63.8201 86.0067 65.5909C81.9394 66.1903 77.9061 67.0015 73.9234 68.0215L73.5414 68.1256C65.1734 70.6257 44.1317 76.9103 35.4512 92.084C36.7197 82.3524 40.174 73.034 45.5553 64.827C50.181 57.7193 56.0923 51.5371 62.9858 46.5979C78.4025 40.1048 95.6941 40.5562 117.43 56.1812L117.43 56.1812ZM152.673 78.5423C157.222 79.4798 162.083 87.1187 164.41 91.4937C166.437 105.693 163.663 120.162 156.528 132.605C156.875 130.417 157.153 128.091 157.361 125.66C158.651 109.733 154.608 93.8293 145.868 80.452C148.229 78.7854 150.59 78.1256 152.673 78.5423V78.5423ZM132.604 69.0978C135.982 72.4079 139.061 76.0098 141.805 79.8617C137.361 84.0978 133.576 91.1117 131.528 99.7228L130.937 102.258C127.222 118.021 121.007 144.376 108.021 156.285C103.682 160.398 98.4365 163.431 92.7081 165.14C82.5909 163.995 72.885 160.486 64.3748 154.896C60.2516 152.192 56.4433 149.036 53.0206 145.487C84.5484 111.945 113.923 84.9659 132.604 69.0978Z" fill="white"/>
<path d="M117.951 119.757L119.722 119.271C120.799 118.993 121.493 118.646 121.493 117.083C121.493 115.799 121.146 113.472 119.583 113.472C117.951 113.472 117.951 116.25 117.951 117.743V119.757H117.951ZM96.8055 118.785C96.8055 113.229 96.5972 108.438 92.8472 108.438C89.7916 108.438 89.2361 113.229 89.2361 118.785C89.2361 124.34 89.0624 129.167 92.8472 129.167C96.0069 129.132 96.8055 124.34 96.8055 118.785Z" fill="white"/>
<path d="M117.951 119.758L119.722 119.272C120.798 118.994 121.493 118.647 121.493 117.084C121.493 115.799 121.146 113.473 119.583 113.473C117.951 113.473 117.951 116.251 117.951 117.744V119.758H117.951ZM88.7845 106.042H88.8539C90.6595 103.23 94.097 101.876 97.4651 101.876C105.104 101.876 109.791 108.473 109.791 117.327C109.791 127.813 102.673 134.063 93.8887 134.063C80.3817 134.063 75.4512 123.16 75.4512 110.522C75.4512 95.9729 81.7706 83.959 97.4998 83.959C103.646 83.959 108.68 87.9173 108.68 93.959C108.705 94.7405 108.567 95.5185 108.275 96.2441C107.984 96.9697 107.546 97.6272 106.988 98.1751C106.43 98.723 105.765 99.1496 105.035 99.4279C104.304 99.7062 103.524 99.8303 102.743 99.7923C98.5067 99.7923 97.1525 96.2506 96.5276 93.1257C96.2845 91.8062 96.7706 88.8895 94.5831 88.8895C89.9998 88.8895 89.2706 97.8478 89.0623 101.146L88.7845 106.042L88.7845 106.042Z" fill="white"/>
<path d="M96.8055 118.784C96.8055 113.228 96.5972 108.437 92.8472 108.437C89.7916 108.437 89.2361 113.228 89.2361 118.784C89.2361 124.339 89.0625 129.166 92.8472 129.166C96.0069 129.131 96.8055 124.339 96.8055 118.784ZM14.8958 84.5131C17.4652 84.8255 18.5069 86.6311 18.125 89.9644L17.8472 92.395L19.2361 92.5686C21.0069 92.777 21.6667 92.7422 21.875 91.3187L23.5069 91.5269L22.7431 98.1241L21.1111 97.9158C21.25 96.4575 20.5903 96.2838 18.8194 96.0756L13.6806 95.4853C11.9097 95.2769 11.25 95.3117 11.0416 96.7352L9.40967 96.527L10.2778 89.3047C10.6944 85.763 12.2569 84.2005 14.8958 84.5131ZM16.2847 91.5269C16.5278 89.3394 15.9027 88.1589 14.3403 87.9853C12.9861 87.8117 12.0139 88.6797 11.8055 90.3117C11.6667 91.4575 12.0833 91.7005 13.3333 91.8395L16.1806 92.1867C16.2153 91.9783 16.2499 91.77 16.2847 91.5269ZM24.5486 77.2214C25.0694 75.8672 24.5139 75.52 22.8819 74.8256L18.125 72.8464C16.493 72.1519 15.8333 72.0131 15.243 73.3325L13.7152 72.7075L16.2847 66.5964L17.7778 67.2214C17.2569 68.5755 17.8124 68.9227 19.4444 69.6172L20.6597 70.138L22.5694 65.5547L21.3541 65.0339C19.7222 64.3394 19.0625 64.2006 18.4722 65.52L16.9792 64.895L19.5486 58.7839L21.0764 59.4089C20.5556 60.763 21.1111 61.1103 22.743 61.8047L27.5 63.7839C29.1319 64.4783 29.7917 64.6172 30.3819 63.2978L31.9097 63.9228L29.3402 70.0339L27.8472 69.4089C28.368 68.0547 27.8125 67.7075 26.1805 67.013L24.0972 66.145L22.1875 70.7283L24.2708 71.5964C25.9028 72.2908 26.5625 72.4297 27.1528 71.1103L28.6458 71.7353L26.0764 77.8464L24.5486 77.2214ZM30.9375 44.7561C30.1041 45.9367 30.5555 46.4228 31.9792 47.4991L36.1111 50.5894C37.5347 51.6658 38.125 51.9436 39.0277 50.8325L40.3472 51.8047L36.3889 57.0824L35.0694 56.1102C35.9028 54.9297 35.4514 54.4436 33.9931 53.3672L29.8611 50.2769C28.4375 49.2006 27.8472 48.888 26.9444 50.0339L25.625 49.0617L29.5833 43.7839L30.9375 44.7561ZM45.868 45.52L44.8264 44.27C45.9028 43.2978 45.5555 42.7422 44.4097 41.388L41.0764 37.4298C39.9305 36.0756 39.4444 35.6242 38.2986 36.527L37.2569 35.277L42.3264 31.0409L43.368 32.2909C42.2916 33.2631 42.6041 33.8186 43.75 35.2075L47.4653 39.6172C48.3334 40.6242 48.7153 40.7978 49.757 39.9297C51.1459 38.7491 51.7361 36.6658 51.2501 34.0269L52.7084 33.7144L54.2014 38.5756L45.868 45.52ZM61.5972 33.4019L60.9028 31.9089C62.1527 31.1449 62.0833 30.3116 62.0486 28.8533L61.7014 18.6103L64.4792 17.3603L72.118 24.8256C72.9861 25.6589 73.4722 26.0756 74.5833 25.6936L75.2778 27.1867L69.2361 29.9298L68.5764 28.4714C68.6286 28.4628 68.677 28.4386 68.7153 28.402C69.5486 28.02 69.8611 27.6728 69.6181 27.152C69.5346 26.9692 69.4167 26.8041 69.2708 26.6659L67.8819 25.277L63.993 27.0478L64.2361 28.9575C64.2502 29.1008 64.2853 29.2412 64.3402 29.3742C64.618 29.9645 65.1736 29.9992 66.1111 29.5825L66.7708 31.0408L61.5972 33.4019H61.5972ZM66.5277 24.0616L63.6806 21.0061L63.9236 25.2769L66.5277 24.0616ZM82.0139 23.5061C83.4375 23.263 83.4722 22.6033 83.2292 20.8325L82.5 15.7283C82.257 13.9575 82.0486 13.3325 80.5903 13.5061L80.3472 11.8741L87.0139 10.9367C92.1528 10.2075 95.2084 12.2214 95.8333 16.4575C96.4236 20.7283 94.0625 23.4714 88.9236 24.2353L82.257 25.1727L82.0139 23.5061ZM86.8055 21.145C86.9791 22.4644 87.2222 22.8117 88.6111 22.6033C91.25 22.2213 92.7084 20.138 92.2222 16.9436C91.7708 13.7491 89.8264 12.1519 87.1528 12.5339C85.7639 12.7422 85.6597 13.1242 85.8334 14.4436L86.8055 21.145ZM105.312 21.5617C106.736 21.7353 106.979 21.1103 107.222 19.3394L107.951 14.2353C108.194 12.4644 108.194 11.8047 106.771 11.5617L107.014 9.92969L118.021 11.527L119.236 15.7978L117.917 16.2492C116.84 14.0269 115.312 12.7422 113.264 12.4644C111.944 12.2561 111.701 12.638 111.528 13.9227L111.25 15.8325L111.875 15.9366C113.264 16.145 113.681 15.763 113.993 14.1311L115.382 14.3394L114.514 20.3117L113.125 20.1034C113.16 18.5409 112.708 17.7422 111.632 17.6034L111.007 17.4991L110.556 20.5894C110.382 21.8741 110.486 22.2908 111.84 22.4644C113.785 22.7422 116.076 21.8047 117.882 19.6519L119.028 20.52L116.354 24.7908L105.069 23.1242L105.312 21.5617ZM126.076 27.4297L126.736 25.9367C128.09 26.4922 128.437 25.9367 129.167 24.27L131.25 19.5478C131.979 17.9158 132.153 17.2908 130.833 16.6658L131.493 15.1728L137.535 17.8117L136.875 19.3047C135.521 18.7491 135.174 19.3047 134.444 20.9367L132.118 26.2144C131.597 27.4298 131.632 27.8464 132.882 28.4019C134.549 29.1311 136.701 28.7491 138.819 27.1172L139.757 28.263L136.076 31.77L126.076 27.4297ZM160.069 37.2561C158.437 39.27 156.354 39.2005 153.715 37.0825L151.806 35.5547L150.937 36.6311C149.826 38.02 149.479 38.6103 150.59 39.5477L149.549 40.8325L144.41 36.6658L145.451 35.3811C146.597 36.2491 147.118 35.8325 148.229 34.4436L151.458 30.4158C152.569 29.0269 152.882 28.4367 151.806 27.4992L152.847 26.2144L158.507 30.7978C161.25 32.9853 161.736 35.1728 160.069 37.2561ZM153.368 34.652C155.069 36.0408 156.424 36.1103 157.396 34.895C158.264 33.8186 158.055 32.5686 156.771 31.527C155.868 30.7978 155.451 31.0061 154.653 31.9783L152.847 34.2006C153.056 34.3742 153.229 34.513 153.368 34.6519V34.652ZM161.076 49.3047C161.944 50.4853 162.535 50.2075 163.993 49.1658L168.229 46.2144C169.687 45.2075 170.174 44.7214 169.375 43.5061L170.729 42.5686L174.514 47.9853L173.194 48.9228C172.326 47.7423 171.736 48.02 170.278 49.0617L169.201 49.8257L172.049 53.8881L173.125 53.1242C174.583 52.1172 175.069 51.6311 174.271 50.4159L175.59 49.4784L179.375 54.895L178.021 55.8326C177.153 54.652 176.562 54.9298 175.104 55.9714L170.868 58.9228C169.41 59.9298 168.924 60.4159 169.722 61.6311L168.368 62.5686L164.583 57.152L165.903 56.2145C166.771 57.395 167.361 57.1173 168.819 56.0756L170.66 54.7909L167.812 50.7283L165.972 52.013C164.514 53.02 164.028 53.5061 164.826 54.7213L163.507 55.6589L159.722 50.2422L161.076 49.3047ZM185.139 72.0478C184.583 70.6936 183.924 70.8324 182.257 71.4575L177.431 73.2978C175.764 73.9228 175.208 74.27 175.66 75.6589L174.132 76.2491L171.771 70.0686L173.299 69.4783C173.854 70.8325 174.514 70.6589 176.181 70.0339L181.007 68.1936C182.674 67.5686 183.264 67.2214 182.778 65.8672L184.306 65.277L186.667 71.4575L185.139 72.0478ZM176.493 83.5061L178.125 83.2978C178.472 84.7214 179.305 84.895 180.694 85.277L190.59 87.9506L190.972 90.9714L181.597 96.0756C180.521 96.6658 180 96.9783 180.035 98.1936L178.403 98.402L177.535 91.8395L179.132 91.6312V91.7701C179.236 92.6728 179.514 93.0895 180.069 93.02C180.276 92.9819 180.475 92.9116 180.66 92.8117L182.396 91.8742L181.84 87.6381L179.931 87.2909C179.782 87.2621 179.63 87.2504 179.479 87.2562C178.854 87.3256 178.646 87.8811 178.75 88.8881L177.153 89.0964L176.493 83.5061ZM183.993 90.9367L187.743 89.0964L183.611 88.0894L183.993 90.9367H183.993ZM140.59 108.888C139.931 108.888 139.279 109.031 138.68 109.307C138.08 109.583 137.548 109.985 137.118 110.485C137.014 110.277 136.944 110.069 136.84 109.895L136.111 108.471L125.729 111.527V117.221H127.639C127.812 117.221 127.917 117.256 127.951 117.221C128.197 118.006 128.28 118.834 128.194 119.652V126.249L126.285 126.527V132.777H140.66V126.527L138.785 126.249V124.305C138.829 122.799 139.003 121.301 139.306 119.825C139.912 120.015 140.545 120.109 141.181 120.103C143.75 120.103 145.556 117.777 145.556 114.478C145.59 111.145 143.576 108.888 140.59 108.888L140.59 108.888Z" fill="white"/>
<path d="M158.611 115.521C158.507 115.231 158.449 114.927 158.438 114.619C158.438 112.917 157.743 108.959 151.458 108.959C147.986 108.959 141.146 111.632 141.146 117.848C141.088 119.724 141.676 121.562 142.813 123.056C142.096 123.515 141.514 124.154 141.123 124.91C140.733 125.666 140.549 126.512 140.59 127.362C140.59 129.584 141.702 133.334 149.236 133.334C155.695 133.334 159.375 130.001 159.375 124.167C159.41 118.612 158.924 116.771 158.611 115.521ZM82.639 82.1185C82.4456 81.8927 82.2061 81.7108 81.9366 81.585C81.6671 81.4592 81.3739 81.3925 81.0766 81.3893C80.139 81.3893 79.3751 81.9797 78.4724 82.9518C76.929 84.5648 75.0671 85.8392 73.0049 86.694C70.9426 87.5488 68.7251 87.9653 66.4932 87.9171C60.2432 87.9171 53.646 85.0351 48.4029 80.0352C48.2018 79.8357 47.9634 79.6778 47.7013 79.5706C47.4391 79.4633 47.1584 79.4088 46.8751 79.4102C44.3057 79.4102 43.646 83.5074 43.646 83.5768V104.167L45.278 104.41C50.7459 105.352 56.3498 105.151 61.7363 103.82C56.4585 108.542 44.5835 121.389 44.7571 133.612C44.7918 135.869 46.1807 136.112 46.771 136.112C47.3576 136.102 47.9177 135.866 48.3335 135.452C48.4376 135.382 48.5418 135.278 48.646 135.209C50.8993 133.802 53.5267 133.112 56.1807 133.23C58.5824 133.196 60.9632 133.682 63.1598 134.653C63.5539 134.871 63.9946 134.99 64.4445 135C64.7309 135.002 65.0146 134.944 65.2776 134.831C65.5405 134.717 65.7771 134.55 65.9723 134.341C66.2183 134.032 66.3926 133.673 66.4827 133.288C66.5728 132.904 66.5763 132.504 66.4931 132.119C65.6251 123.23 67.5696 113.542 71.3542 107.952L71.9098 107.119C75.139 102.362 81.8403 92.4311 83.0904 84.2366C83.1797 83.8724 83.1855 83.4927 83.1074 83.1259C83.0292 82.7591 82.8691 82.4147 82.639 82.1185ZM130.452 121.459L130.347 119.896C130.293 118.912 130.141 117.935 129.896 116.98L129.827 115.174L129.479 115.695C128.144 111.601 124.307 108.846 120 108.889C113.334 108.889 108.681 114.167 108.681 121.702C108.681 127.5 112.084 133.334 119.618 133.334C123.839 133.392 127.781 131.23 130 127.639L130.278 127.153L130.07 121.563L130.452 121.459H130.452ZM122.361 125.07C122.038 125.061 121.724 124.961 121.454 124.784C121.184 124.606 120.97 124.356 120.834 124.063L124.514 123.056C123.945 123.87 123.211 124.556 122.361 125.07H122.361Z" fill="white"/>
<path d="M105.625 103.23C105.243 102.709 104.827 102.084 104.479 101.563C108.131 100.929 110.755 97.6976 110.625 93.9937C110.625 87.1882 105 82.084 97.535 82.084C82.535 82.084 73.542 92.7437 73.542 110.556C73.542 126.737 80.9725 136.008 93.8892 136.008C104.375 136.008 111.702 128.334 111.702 117.362C111.736 111.876 108.056 106.667 105.625 103.23Z" fill="white"/>
<path d="M122.396 127.015C120.069 127.015 118.681 124.896 118.472 122.744L128.472 120.035C128.194 115.14 125.347 110.834 120.035 110.834C114.375 110.834 110.625 115.244 110.625 121.737C110.625 126.806 113.542 131.424 119.653 131.424C123.197 131.499 126.514 129.689 128.368 126.667L126.389 124.306C125.451 125.834 124.306 127.015 122.396 127.015ZM117.986 117.778C117.986 116.285 117.986 113.508 119.618 113.508C121.146 113.508 121.528 115.834 121.528 117.119C121.561 117.38 121.542 117.645 121.47 117.898C121.398 118.151 121.276 118.387 121.11 118.591C120.945 118.796 120.74 118.965 120.507 119.087C120.274 119.21 120.019 119.285 119.757 119.306L117.986 119.792V117.778Z" fill="#006BB6"/>
<path d="M138.82 130.87H128.264V128.196L130.174 127.918V119.655C130.174 116.703 129.792 115.28 127.674 115.28V112.953L135.174 110.766C135.955 112.479 136.381 114.334 136.424 116.217H136.493C137.257 113.96 138.195 110.8 140.625 110.8C142.778 110.8 143.715 112.467 143.715 114.481C143.715 116.53 142.813 118.196 141.25 118.196C140.386 118.14 139.539 117.928 138.75 117.571C137.396 117.12 136.945 123.057 136.945 124.307V127.918L138.82 128.196V130.87H138.82H138.82Z" fill="#006BB6"/>
<path d="M156.563 114.652C156.563 116.284 155.139 117.118 153.646 117.118C151.868 117.019 150.418 115.657 150.208 113.888C149.444 113.888 148.889 114.27 148.889 115.59C148.889 118.645 157.535 116.458 157.535 124.201C157.535 130 153.333 131.458 149.306 131.458C146.84 131.458 142.569 131.145 142.569 127.395C142.569 125.694 143.507 124.409 145.208 124.409C147.813 124.409 148.264 126.805 148.715 128.506C148.775 128.682 148.895 128.831 149.054 128.926C149.213 129.021 149.4 129.057 149.583 129.027C150.972 129.027 151.979 128.472 151.979 127.534C151.979 124.062 143.125 125.416 143.125 117.847C143.125 113.055 148.785 110.902 151.528 110.902C154.618 110.902 156.563 111.944 156.563 114.652ZM97.5348 101.909C94.1667 101.909 90.7292 103.263 88.9237 106.076H88.8542L89.2015 101.215C89.4098 97.9162 90.139 88.9579 94.7223 88.9579C96.9098 88.9579 96.4237 91.8745 96.6667 93.194C97.257 96.2843 98.6112 99.8607 102.882 99.8607C103.662 99.8959 104.441 99.77 105.171 99.4906C105.9 99.2113 106.564 98.7847 107.121 98.2373C107.678 97.6899 108.117 97.0336 108.409 96.3092C108.701 95.5849 108.841 94.8081 108.82 94.0274C108.82 87.9857 103.785 84.0273 97.639 84.0273C81.9098 84.0273 75.5903 96.0412 75.5903 110.59C75.5903 123.229 80.4862 134.132 94.0278 134.132C102.813 134.132 109.931 127.882 109.931 117.395C109.861 108.506 105.174 101.909 97.5348 101.909L97.5348 101.909ZM92.8473 129.166C89.0973 129.166 89.2362 124.34 89.2362 118.784C89.2362 113.229 89.757 108.437 92.8473 108.437C96.632 108.437 96.8056 113.229 96.8056 118.784C96.8403 124.34 96.0417 129.166 92.8473 129.166Z" fill="#006BB6"/>
<path d="M45.5557 83.7502V102.5C56.0418 104.063 68.5765 103.021 77.4654 90.0696C77.8474 89.514 78.0557 89.896 77.8126 90.3821C75.3473 95.4169 69.4793 100.07 64.4098 104.063C59.5487 107.882 46.4932 121.563 46.6668 133.611C46.6668 134.549 46.7015 134.271 47.5348 133.681C51.4932 130.729 59.2362 130.66 63.9932 132.917C64.6529 133.229 64.7223 133.125 64.6182 132.292C63.7154 122.952 65.7987 112.778 69.7918 106.84C72.5348 102.743 79.9654 92.1876 81.2501 83.9237C81.389 83.0557 80.9376 83.1946 79.8612 84.3404C71.4584 93.2293 56.2849 92.9862 46.4585 83.6112C45.8682 82.9515 45.5904 83.2292 45.5557 83.7501" fill="#ED174C"/>
<path d="M63.7578 90.4941C73.6908 90.4941 81.7431 82.4418 81.7431 72.5088C81.7431 62.5757 73.6908 54.5234 63.7578 54.5234C53.8248 54.5234 45.7725 62.5757 45.7725 72.5088C45.7725 82.4418 53.8248 90.4941 63.7578 90.4941Z" fill="white"/>
<path d="M63.7499 55.1738L64.3401 57.0836H66.3891L64.7221 58.2641L65.3123 60.1393L63.7499 58.9934L62.1184 60.1394L62.7432 58.2641L61.0762 57.0836H63.1251L63.7499 55.1738ZM75.6945 62.1528L76.3192 64.0281H78.3682L76.7012 65.2431L77.2915 67.1183L75.6945 65.9725L74.0975 67.1184L74.7223 65.2431L73.0562 64.0281H75.1043L75.6945 62.1528ZM70.5562 56.7708L71.1809 58.646H73.229L71.5629 59.861L72.1531 61.7363L70.5907 60.5904L68.9928 61.7363L69.584 59.8611L67.917 58.646H69.9659L70.5562 56.7708ZM77.6734 68.7153L78.2646 70.6252H80.3126L78.6465 71.8402L79.2713 73.7154L77.6734 72.5695L76.0765 73.7154L76.6667 71.8402L75.0352 70.6252H77.0486L77.6734 68.7153ZM76.8058 75.6944L77.4306 77.6042H79.445L77.8126 78.8192L78.4028 80.6944L76.8058 79.514L75.2089 80.6944L75.7991 78.7846L74.1666 77.6042H76.2156L76.8058 75.6944ZM72.9516 81.2501L73.5418 83.1599H75.5908L73.9583 84.3749L74.5486 86.2502L72.9862 85.1043L71.3546 86.2502L71.9794 84.3749L70.3124 83.1599H72.3614L72.9516 81.2501ZM66.9102 84.3749L67.535 86.2847H69.5485L67.8824 87.4997L68.5072 89.375L66.9102 88.2291L65.3123 89.3751L65.9025 87.4997L64.2711 86.2847H66.2845L66.9102 84.3749ZM51.5626 61.528L50.9378 63.4379H48.9243L50.5558 64.6183L49.9656 66.4935L51.528 65.3477L53.1596 66.4936L52.5348 64.6184L54.2018 63.4379H52.1528L51.5626 61.528ZM56.5627 56.7708L55.9379 58.646H53.9235L55.5559 59.861L54.9657 61.7363L56.5627 60.5904L58.1596 61.7363L57.5694 59.8611L59.2018 58.646H57.1874L56.5627 56.7708ZM49.2016 67.8823L48.6115 69.7921H46.5625L48.2295 70.9726L47.6393 72.8824L49.2017 71.702L50.7987 72.8824L50.2084 70.9726L51.8754 69.7921H49.861L49.2016 67.8823ZM49.8611 74.8268L49.2362 76.7366H47.1882L48.8543 77.9516L48.264 79.8268L49.8265 78.6809L51.4234 79.8268L50.8332 77.9516L52.4657 76.7366H50.4512L49.8611 74.8268ZM53.6807 80.5207L53.0904 82.4305H51.0415L52.7085 83.6455L52.0837 85.5208L53.6807 84.3403L55.3131 85.5208L54.6874 83.6456L56.3199 82.4305H54.3054L53.6807 80.5207ZM59.722 84.1321L59.1318 86.0419H57.0838L58.7499 87.2569L58.1596 89.1321L59.722 87.9863L61.3545 89.1322L60.7297 87.2224L62.3958 86.0419H60.3477L59.722 84.1321Z" fill="#006BB6"/>
</g>
<defs>
<clipPath id="clip0_2_680">
<rect width="200" height="200" fill="white"/>
</clipPath>
</defs>
</svg>
