<svg width="200" height="200" viewBox="0 0 200 200" fill="none" xmlns="http://www.w3.org/2000/svg">
<g clip-path="url(#clip0_18_276)">
<path d="M198.652 0.549346C198.491 0.37062 198.293 0.228988 198.072 0.134249C197.851 0.0395105 197.612 -0.00607415 197.372 0.000648923H73.8476C59.1271 0.000648923 50.0753 6.40211 46.9666 18.8392L2.07356 197.897C2.00316 198.146 1.99129 198.407 2.03888 198.661C2.08647 198.915 2.19223 199.154 2.34786 199.36C2.49688 199.559 2.69013 199.721 2.91232 199.832C3.1345 199.943 3.3795 200.001 3.62791 200.001H138.216C145.896 200.001 153.576 193.782 155.313 186.283L198.926 2.01254C198.997 1.76403 199.009 1.50259 198.961 1.24872C198.913 0.994852 198.808 0.755467 198.652 0.549346Z" fill="#63727A"/>
<path d="M3.62793 198.354H138.216C145.164 198.354 152.205 192.684 153.759 185.917L197.372 1.55469H73.8476C62.4186 1.64614 51.9954 5.39556 48.521 19.2959L3.62793 198.354Z" fill="black"/>
<path d="M31.3316 125.56H148.09C153.942 125.56 159.702 120.896 161.073 115.135L185.577 9.05338H78.6018C65.5271 9.05338 59.6754 13.1686 57.0239 24.0511L31.3316 125.56ZM148.09 127.023H29.5029L55.561 23.6853C58.944 10.3337 67.1729 7.68164 78.6018 7.68164H187.406L162.445 115.501C160.982 121.811 154.582 127.023 148.09 127.023Z" fill="#63727A"/>
<path d="M48.8872 184.91L52.1788 189.391H76.7739L86.74 149.885H76.6825L68.0879 183.813H59.1276L67.7222 149.885H55.0131L54.1903 150.525L56.7503 154L48.8872 184.91Z" fill="white"/>
<path d="M49.7098 163.695L52.087 154.184L48.7955 149.703H28.6805L23.1946 154.184L19.8116 167.444L36.8179 174.577L34.5321 183.814H25.6632L26.669 179.516L17.8001 175.4L15.4229 184.911L18.623 189.392H38.8294L44.3153 184.911L47.6983 171.56L30.692 164.426L32.9778 155.282H41.8467L40.7495 159.671L49.7098 163.695Z" fill="white"/>
<path d="M119.198 154.184L115.906 149.703H91.4026L81.4365 189.209H91.494L99.9972 155.282H108.958L100.454 189.209H113.072L113.895 188.478L111.426 185.094L119.198 154.184Z" fill="white"/>
<path d="M150.376 163.695L152.754 154.184L149.462 149.703H129.347L123.861 154.184L120.478 167.444L137.484 174.577L135.199 183.814H126.238L127.335 179.516L118.467 175.4L116.089 184.911L119.289 189.392H139.496L144.982 184.911L148.365 171.56L131.358 164.426L133.644 155.282H142.513L141.416 159.671L150.376 163.695Z" fill="white"/>
<path d="M17.8001 175.4L21.4574 180.887L20.6345 184.088L22.4631 186.557H36.7265L39.5609 184.362L44.3153 184.911L38.8294 189.392H18.623L15.4229 184.911L17.8001 175.4Z" fill="#BEC0C2"/>
<path d="M34.5321 183.813L39.5608 184.362L42.3952 173.114L25.206 165.889L28.0404 154.732L23.1945 154.184L19.8115 167.444L36.8178 174.577L34.5321 183.813Z" fill="#BEC0C2"/>
<path d="M44.9554 152.445H31.0578L28.0405 154.732L32.9778 155.28H41.8467L40.7496 159.67L46.0526 158.024L46.8755 155.006L44.9554 152.445Z" fill="#BEC0C2"/>
<path d="M118.467 175.4L122.124 180.887L121.301 184.088L123.13 186.557H137.393L140.227 184.362L144.982 184.911L139.496 189.392H119.289L116.089 184.911L118.467 175.4Z" fill="#BEC0C2"/>
<path d="M135.199 183.813L140.227 184.362L143.062 173.114L125.873 165.889L128.707 154.732L123.861 154.184L120.478 167.444L137.484 174.577L135.199 183.813Z" fill="#BEC0C2"/>
<path d="M145.622 152.445H131.633L128.707 154.732L133.644 155.28H142.513L141.416 159.67L146.719 158.024L147.451 155.006L145.622 152.445Z" fill="#BEC0C2"/>
<path d="M54.1903 150.525L62.0534 152.446L54.0988 184.087L55.9275 186.556H72.3852L76.7739 189.391H52.1788L48.8872 184.91L56.7503 154L54.1903 150.525Z" fill="#BEC0C2"/>
<path d="M76.6825 149.885L80.9798 152.445L72.3852 186.556L68.0879 183.813L76.6825 149.885Z" fill="#BEC0C2"/>
<path d="M95.7913 152.447L91.4026 149.703L81.4365 189.209H91.494L87.1053 186.557L95.7913 152.447Z" fill="#BEC0C2"/>
<path d="M106.032 186.556L113.986 155.006L112.158 152.445H95.7915L99.9974 155.28H108.958L100.455 189.208H113.072L113.895 188.476L106.032 186.556Z" fill="#BEC0C2"/>
<path d="M33.3431 137.814L30.6916 138.546L31.5145 135.071H33.9831L33.3431 137.814ZM28.5887 133.059L28.3144 133.242L29.1372 134.339L26.5771 144.764H30.143L30.3259 144.49L29.503 143.484L30.143 140.74L35.6289 139.003L36.7261 134.43L35.6289 133.059L28.5887 133.059Z" fill="white"/>
<path d="M57.6646 133.059H55.013L54.0073 137.265L51.4472 137.905L52.6358 133.059H49.1614L48.8871 133.241L49.71 134.339L47.1499 144.764H49.8014L50.8986 140.1L53.4587 139.551L52.1787 144.764H55.6531L55.9274 144.49L55.1045 143.484L57.6646 133.059Z" fill="white"/>
<path d="M73.2989 142.844H70.8302L72.7503 134.979H75.219L73.2989 142.844ZM72.1103 133.059L70.3731 134.43L68.1787 143.301L69.2759 144.764H74.0303L75.7676 143.301L77.9619 134.43L76.8647 133.059H72.1103Z" fill="white"/>
<path d="M118.375 134.43L117.278 133.059H110.969L108.135 144.764H110.786L113.164 134.979H115.632L113.255 144.764H116.729L117.004 144.49L116.181 143.484L118.375 134.43Z" fill="white"/>
<path d="M134.65 133.059H131.084L130.81 133.241L131.724 134.339L129.164 144.764H132.638L132.913 144.49L132.09 143.484L134.65 133.059Z" fill="white"/>
<path d="M153.393 143.575L152.022 139.003L156.685 133.059H154.125L151.473 136.625L150.559 133.059H147.085L146.81 133.241L148.182 134.339L149.553 139.094L145.165 144.764H147.633L150.193 141.289L151.108 144.764H154.582L154.856 144.49L153.393 143.575Z" fill="white"/>
<path d="M94.603 142.844H91.5857L92.3172 139.826H94.7858L95.243 137.905H92.7743L93.5058 134.979H96.3402L97.0716 135.985L97.3459 135.802L97.986 133.059H90.4886L90.2143 133.241L91.0371 134.339L88.4771 144.764H95.3344L95.9745 142.021L95.7916 141.838L94.603 142.844Z" fill="white"/>
<path d="M34.5322 123.64L101.186 87.1512L55.9273 123.64L110.878 92.0895L109.964 98.4909L119.107 93.3698L139.77 112.94L150.742 79.8352L166.651 78.8293L158.605 58.8019L172.96 47.5536L154.308 40.2376L159.062 20.2102L143.245 27.4347L135.016 10.2422L122.307 22.8622L99.4488 12.6199L96.3402 33.0131L75.9509 37.4941L88.0199 44.7186L75.8594 50.8458L86.1912 51.7602L43.7668 84.6821L86.4655 62.0026L40.7496 96.8448L89.3913 71.5133L37.3666 110.562L94.6944 80.0181L34.5322 123.64Z" fill="#F9A01B"/>
<path d="M156.502 59.0768C156.222 65.6291 154.008 71.9515 150.137 77.2454C146.267 82.5393 140.915 86.5672 134.757 88.8204C128.599 91.0736 121.912 91.451 115.539 89.9049C109.167 88.3588 103.396 84.9585 98.9551 80.1336C94.5139 75.3087 91.6021 69.2756 90.5872 62.7964C89.5724 56.3171 90.5002 49.6824 93.2533 43.7302C96.0064 37.7781 100.461 32.7755 106.056 29.3544C111.65 25.9333 118.132 24.2471 124.684 24.5089C133.486 24.873 141.784 28.7195 147.751 35.2021C153.718 41.6848 156.866 50.2727 156.502 59.0768Z" fill="#E56020"/>
<path d="M127.427 86.3274C121.028 86.0727 114.839 83.9705 109.608 80.2747C104.378 76.5789 100.329 71.4475 97.9502 65.5002C95.5717 59.5529 94.9656 53.0441 96.205 46.7598C97.4443 40.4755 100.476 34.6844 104.934 30.0859C99.1162 33.9792 94.6761 39.6112 92.2481 46.1782C89.82 52.7451 89.5279 59.9114 91.4135 66.6542C93.2991 73.397 97.266 79.3718 102.748 83.7259C108.23 88.0799 114.947 90.5907 121.941 90.8998C126.617 91.0839 131.279 90.2836 135.626 88.5508C139.974 86.8179 143.908 84.191 147.176 80.8404C141.359 84.7565 134.43 86.6816 127.427 86.3274Z" fill="#B95915"/>
<path d="M156.502 58.0698C156.564 56.9109 156.534 55.7488 156.411 54.5947C154.383 53.1337 152.029 52.1918 149.553 51.8512C149.005 51.8512 148.547 51.7598 147.999 51.7598C147.696 49.558 147.206 47.3858 146.536 45.2669C146.866 45.3387 147.204 45.3694 147.542 45.3583C149.919 45.5412 152.205 45.8156 154.49 46.1814C154.18 45.3051 153.814 44.4498 153.393 43.6208C150.925 43.255 148.273 42.9806 145.622 42.7977C144.802 40.6397 143.792 38.5587 142.604 36.5792C144.247 36.2834 145.771 35.5216 146.993 34.3844C146.353 33.7442 145.713 33.1956 145.073 32.5554C143.952 33.5498 142.542 34.1588 141.05 34.2929C140.776 33.9271 140.501 33.5613 140.319 33.287C138.102 30.4264 135.485 27.9007 132.547 25.7881C129.991 25.0294 127.348 24.5992 124.684 24.5078H124.318C129.47 26.592 134.002 29.9606 137.484 34.2929C133.603 33.7514 129.778 32.8639 126.055 31.6409C124.867 31.2751 123.769 31.0007 122.672 30.6349C117.571 29.1402 112.254 28.5218 106.946 28.8059C104.069 30.456 101.45 32.5205 99.1742 34.9331C103.38 33.1955 111.792 30.2691 122.032 33.1041C123.129 33.3784 124.227 33.6528 125.415 34.0186C129.895 35.3903 135.015 36.8535 139.404 36.8535C140.583 38.6933 141.623 40.6191 142.513 42.6148C141.662 42.5403 140.807 42.5098 139.953 42.5234C118.558 42.1576 100.363 48.4676 90.2139 58.7099C90.2411 60.707 90.4554 62.6971 90.8539 64.6541C93.6883 60.5389 97.9856 56.7895 103.471 53.6802C113.712 47.9189 127.427 44.901 141.964 45.0839C142.513 45.0839 142.97 45.1754 143.519 45.1754C144.249 47.2895 144.8 49.4615 145.164 51.6683C135.747 52.1256 129.712 57.8869 122.672 64.1969C116.455 69.7753 108.775 75.3537 97.6198 78.7374C98.6836 80.0146 99.8453 81.2071 101.094 82.3039C111.609 78.0972 118.558 71.5128 124.501 66.2088C131.267 60.1731 137.027 54.4118 145.439 54.1374C145.713 56.5072 145.713 58.9007 145.439 61.2705C144.342 74.2563 136.753 85.3218 126.512 90.8087C129.097 90.5523 131.643 90 134.101 89.1626C134.924 88.431 135.747 87.6994 136.478 86.9678C143.322 80.1763 147.507 71.157 148.273 61.5448C148.547 59.1139 148.547 56.6598 148.273 54.2289C148.73 54.3203 149.187 54.3203 149.553 54.4118C152.203 54.8517 154.639 56.1346 156.502 58.0698Z" fill="black"/>
</g>
<defs>
<clipPath id="clip0_18_276">
<rect width="197" height="200" fill="white" transform="translate(2)"/>
</clipPath>
</defs>
</svg>
