<svg width="200" height="200" viewBox="0 0 200 200" fill="none" xmlns="http://www.w3.org/2000/svg">
<g clip-path="url(#clip0_18_272)">
<path d="M132.878 37.8084C131.613 35.8783 130.137 34.0962 128.477 32.4955C127.776 31.781 127.034 31.1086 126.255 30.4817L142.235 14.5H95.7915L77.8466 32.4955L77.8039 32.5383C76.1861 34.178 74.7136 35.9557 73.4031 37.8513C72.1153 39.7845 71.0137 41.836 70.1132 43.9783C68.2522 48.3986 67.2933 53.1481 67.2933 57.9462C67.2933 62.7444 68.2522 67.4939 70.1132 71.9142C71.0048 74.0471 72.1069 76.0854 73.4031 77.9984C74.6677 79.9285 76.1438 81.7106 77.8039 83.3113C78.4927 84.0511 79.2353 84.7385 80.0256 85.3679L64.0889 101.35H110.532L128.519 83.2685C131.784 80.0214 134.383 76.1639 136.167 71.9142C138.029 67.4939 138.987 62.7444 138.987 57.9463C138.987 53.1481 138.029 48.3986 136.167 43.9783C135.301 41.8062 134.198 39.737 132.878 37.8084Z" fill="black"/>
<path d="M126.426 34.5957C125.742 33.8673 124.973 33.1817 124.247 32.5391L104.764 52.1627C105.761 52.4485 106.671 52.9786 107.413 53.7052C108.522 54.8454 109.143 56.3754 109.143 57.9684C109.143 59.5615 108.522 61.0914 107.413 62.2316L71.2666 98.4797H75.5392L109.506 64.3739C111.191 62.684 112.145 60.3969 112.161 58.0074C112.177 55.6179 111.254 53.3181 109.592 51.6057L111.685 49.5062C112.793 50.621 113.672 51.9437 114.27 53.3989C114.869 54.854 115.175 56.4132 115.173 57.9872C115.17 59.5613 114.859 61.1194 114.256 62.5727C113.653 64.026 112.77 65.3459 111.659 66.4572L111.643 66.4734L79.7691 98.4797H83.9989L113.779 68.6157C116.577 65.7935 118.15 61.978 118.158 57.9986C118.166 54.0192 116.608 50.1974 113.822 47.3639L115.915 45.2644C119.281 48.6451 121.169 53.228 121.165 58.005C121.161 62.782 119.265 67.3617 115.894 70.7367L115.872 70.758L88.2288 98.4797H92.4587L118.009 72.8575C121.944 68.9186 124.159 63.5742 124.167 57.9986C124.175 52.4231 121.975 47.0724 118.051 43.1221L120.188 40.9797C124.67 45.505 127.179 51.6291 127.163 58.0075C127.147 64.3858 124.607 70.4972 120.102 74.9998L96.6886 98.4796H100.961L122.239 77.0992C127.298 72.042 130.147 65.1764 130.159 58.0127C130.171 50.8489 127.344 43.974 122.301 38.9001L122.281 38.8802L124.418 36.7379C127.196 39.534 129.397 42.8515 130.896 46.501C132.396 50.1505 133.163 54.0604 133.155 58.0075C133.147 61.9545 132.364 65.8613 130.85 69.5046C129.336 73.148 127.121 76.4567 124.332 79.2415L105.191 98.4797H109.421L126.468 81.3839C132.63 75.1632 136.085 66.7489 136.076 57.981C136.068 49.213 132.599 40.8051 126.426 34.5957Z" fill="white"/>
<path d="M79.983 81.2981C80.6678 82.0132 81.3955 82.6857 82.1621 83.3119L101.645 63.7739C100.64 63.5079 99.7247 62.9751 98.9961 62.2314C97.8686 61.1021 97.2346 59.5699 97.2336 57.9719C97.2327 56.3739 97.8647 54.8409 98.9909 53.7102L98.9961 53.705L135.142 17.4141H130.912L96.8598 51.5627C95.1712 53.2531 94.2188 55.5453 94.2108 57.9379C94.2028 60.3306 95.1398 62.6291 96.8171 64.3309L94.6807 66.4304C92.4483 64.1878 91.1957 61.1477 91.1984 57.9789C91.2012 54.8101 92.459 51.7722 94.6953 49.5335C94.7188 49.51 94.7425 49.4865 94.7662 49.4632L126.682 17.4141H122.453L92.6299 47.3208C89.8228 50.138 88.2424 53.9553 88.2344 57.9379C88.2264 61.9205 89.7914 65.7442 92.5872 68.5727L90.4508 70.6721C87.1007 67.2777 85.225 62.6924 85.233 57.9165C85.241 53.1406 87.132 48.5617 90.4936 45.1785L118.223 17.4141H113.993L88.4 43.0791C84.465 47.018 82.2502 52.3623 82.2422 57.9379C82.2342 63.5135 84.4336 68.8642 88.3573 72.8145L86.221 74.9568C81.7424 70.4322 79.2326 64.3132 79.2406 57.938C79.2486 51.5627 81.7737 45.4501 86.2637 40.9368L109.72 17.4141H105.49L84.1702 38.8373C79.111 43.8973 76.2605 50.7636 76.2445 57.9291C76.2285 65.0945 79.0482 71.9736 84.0847 77.0563L81.9911 79.1986C76.3763 73.5586 73.2257 65.9127 73.2323 57.9431C73.239 49.9735 76.4023 42.333 82.0266 36.7023L82.0339 36.695L101.261 17.4141H97.0307L79.8976 34.5955C73.7332 40.7999 70.279 49.2059 70.295 57.9642C70.3109 66.7226 73.7961 75.1163 79.983 81.2981Z" fill="#E03A3E"/>
<path d="M44.948 174.274H42.6836V171.961H49.7756V174.274H47.4687V185.5H44.948V174.274Z" fill="black"/>
<path d="M53.0227 171.961H58.6198L60.2861 173.632V178.345L58.8761 179.673L60.3715 185.458H57.8507L56.4408 179.93H55.5008V185.5H52.98V171.961H53.0227ZM57.2098 178.045L57.7226 177.445V174.489L57.2098 173.889H55.5435V178.045L57.2098 178.045Z" fill="black"/>
<path d="M65.3704 171.961H69.0021L71.053 185.5H68.5749L68.2331 182.373H66.054L65.6695 185.5H63.2769L65.3704 171.961ZM66.2677 180.273H67.8912L67.0795 173.546L66.2677 180.273Z" fill="black"/>
<path d="M73.9155 183.572H75.4113V173.889H73.9155V171.961H79.4269V173.889H77.9744V183.572H79.4269V185.5H73.9155V183.572Z" fill="black"/>
<path d="M82.9312 171.961H85.4943V183.272H88.3576V185.5H82.9312V171.961Z" fill="black"/>
<path d="M97.0308 171.961H102.542L104.166 173.632V177.231L102.841 178.559L104.166 179.888V183.829L102.542 185.458H97.0308V171.961ZM101.004 177.617L101.645 176.974V174.575L101.09 174.06H99.5516V177.659H101.004V177.617ZM101.09 183.487L101.645 182.972V180.187L101.004 179.588H99.5089V183.444H101.09L101.09 183.487Z" fill="black"/>
<path d="M107.926 171.961H110.404V183.272H113.352V185.5H107.926V171.961Z" fill="black"/>
<path d="M118.137 171.961H121.812L123.863 185.5H121.384L121 182.373H118.864L118.479 185.5H116.086L118.137 171.961ZM119.12 180.273H120.744L119.889 173.546L119.12 180.273Z" fill="black"/>
<path d="M126.725 183.658L130.186 174.274H126.811V171.961H132.92V173.76L129.502 183.187H132.92V185.5H126.725V183.658Z" fill="black"/>
<path d="M136.423 171.961H142.362V174.188H138.987V177.488H142.064V179.716H138.987V183.272H142.406V185.5H136.423V171.961Z" fill="black"/>
<path d="M146.08 171.961H151.677L153.343 173.632V178.345L152.019 179.673L153.472 185.5H150.951L149.584 179.973H148.601V185.5H146.08V171.961ZM150.267 178.045L150.78 177.445V174.489L150.267 173.889H148.601V178.045L150.267 178.045Z" fill="black"/>
<path d="M156.676 183.872V181.43H159.154V182.844L159.753 183.444H160.649L161.162 182.844V180.273L160.735 179.845H158.086L156.719 178.387V173.632L158.343 171.961H162.06L163.683 173.632V176.031H161.162V174.617L160.649 174.06H159.795L159.197 174.617V177.145L159.667 177.53H162.316L163.683 178.945V183.872L162.06 185.5H158.299L156.676 183.872Z" fill="black"/>
<path d="M27.2591 120.074C27.2591 112.233 23.0293 109.619 14.7832 109.619H0L6.45161 116.089V163.349H14.4414V139.783H14.8687C22.9438 139.783 27.131 137.298 27.3446 129.843V120.074H27.2591ZM14.4414 116.089H16.2358C18.0731 116.089 19.2694 116.689 19.2694 118.745V130.4C19.2694 132.371 18.7139 133.356 15.894 133.356H14.5268V116.089H14.4414Z" fill="black"/>
<path d="M38.667 119.345C38.667 116.646 39.5215 116.046 41.1451 116.046C42.726 116.046 43.5377 116.646 43.5377 119.345V153.58C43.5377 156.322 42.6832 156.879 41.1451 156.879C39.5215 156.879 38.667 156.322 38.667 153.58V119.345ZM41.0596 163.306C46.0158 163.306 51.4848 161.292 51.4848 154.308V118.66C51.4848 111.633 45.9731 109.619 41.0596 109.619C36.1889 109.619 30.6772 111.633 30.6772 118.66V154.308C30.6772 161.292 36.1889 163.306 41.0596 163.306Z" fill="black"/>
<path d="M136.381 119.088H136.851L138.389 139.74H134.587L136.381 119.088ZM133.818 146.167H139.073L140.782 163.306H148.814L142.747 109.619H130.741L124.674 163.306H131.895L133.818 146.167Z" fill="black"/>
<path d="M192.053 152.894C192.053 156.365 191.07 156.879 189.019 156.879H187.097V116.089H189.019C191.027 116.089 192.053 116.646 192.053 120.074V152.894ZM200 153.58V121.788C200 112.318 196.667 109.619 188.763 109.619H179.107V163.306H190.429C196.71 163.306 200 158.678 200 153.58Z" fill="black"/>
<path d="M62.8496 116.046H64.7723C66.5668 116.046 67.8058 116.646 67.8058 118.703V129.8C67.8058 131.771 67.2077 133.27 64.3878 133.27H62.8496L62.8496 116.046ZM62.9778 139.697C66.695 139.526 67.8913 140.811 67.8913 144.025V163.306H75.6247C75.6247 163.306 75.7956 157.521 75.6247 142.011C75.582 137.169 72.5484 136.441 72.5484 136.441C76.0519 134.941 75.6247 133.185 75.6247 129.2L75.582 118.788C75.582 111.847 71.8221 109.619 65.4132 109.619H54.8599V163.306H62.9351V139.697L62.9778 139.697Z" fill="black"/>
<path d="M121.298 156.879H111.13V109.619H103.097V163.306H121.298V156.879Z" fill="black"/>
<path d="M84.8535 116.089V163.306H92.8431V116.089H99.7221V109.619H73.4888L79.9827 116.089H84.8535Z" fill="black"/>
<path d="M159.453 133.527L168.469 163.306H175.732V109.619H168.511V139.741L159.453 109.619H152.232V163.306H159.453V133.527Z" fill="black"/>
</g>
<defs>
<clipPath id="clip0_18_272">
<rect width="200" height="171" fill="white" transform="translate(0 14.5)"/>
</clipPath>
</defs>
</svg>
