<svg width="200" height="200" viewBox="0 0 200 200" fill="none" xmlns="http://www.w3.org/2000/svg">
<g clip-path="url(#clip0_18_271)">
<path d="M76.1704 112.591H80.5339L79.2206 115.887L76.1704 112.591ZM70.9596 127.38L64.012 137.647L75.4079 133.929L80.0255 145L83.4994 133.084L96.3356 136.38L88.0323 126.788L97.9879 118.549L89.0914 119.098L94.98 112.507H106.461L119.593 89.3094V74.0137H110.273L105.825 81.9151L104.978 87.8728L98.2844 99.7461H92.1416L98.1573 89.1405V74.0559H88.4983L84.1772 81.9151L83.4147 87.9151L72.9084 106.633L74.5182 110.774L72.4848 108.577L73.332 119.859L61.0889 120.408L70.9596 127.38Z" fill="white"/>
<path d="M21.2243 99.7465C17.4539 100.718 13.5988 101.775 9.87079 102.789C9.44715 102.916 9.0659 103.085 8.6846 103.169V93.7043C9.27769 93.5352 9.78606 93.3662 10.3792 93.2395C13.4717 92.3099 16.5643 91.5071 19.6568 90.7043C20.1652 90.5352 20.7583 90.4507 21.2667 90.2817V95.4367C24.1898 94.6761 27.0705 94.0001 29.9513 93.3663V87.0705C28.9346 85.5916 27.9602 84.0705 26.9011 82.4648C26.1809 82.6339 25.4183 82.8451 24.6981 83.0141H24.571C18.3859 84.493 12.2432 86.1409 6.14277 88.0001C5.91286 88.0571 5.68653 88.1277 5.46494 88.2113C4.69075 88.4122 3.92722 88.6519 3.1773 88.9296C2.1182 91.0846 1.10146 93.2395 0.127091 95.3099V108.028C1.65219 109.085 3.17729 110.141 4.74475 111.239C6.01566 110.859 7.24422 110.437 8.51514 110.099C12.4126 108.916 16.3101 107.901 20.1652 106.887C20.5889 106.803 21.0125 106.676 21.4361 106.592V116.437C20.9278 116.563 20.3347 116.69 19.8263 116.859C16.6066 117.662 13.387 118.507 10.2097 119.479C9.65896 119.606 9.10823 119.775 8.5575 119.944V114.789C5.71912 115.634 2.83837 116.521 0 117.409V123.747C1.01673 125.183 1.9911 126.62 3.00784 128.056C3.72802 127.845 4.49057 127.592 5.25312 127.38C5.50146 127.29 5.75641 127.22 6.01568 127.169C12.2008 125.268 18.4283 123.578 24.7405 122.099C25.5454 121.887 26.2656 121.718 27.0705 121.549C28.1296 119.521 29.104 117.451 30.1631 115.465V102.366C28.638 101.183 27.0705 99.9156 25.5454 98.7325C23.978 99.0705 22.58 99.4508 21.2243 99.7465Z" fill="black"/>
<path d="M200 110.605C198.475 108.577 196.95 106.506 195.425 104.478C194.069 104.056 192.671 103.633 191.315 103.211C187.545 102.112 183.775 101.056 179.962 100.126C179.538 100.042 179.157 99.9149 178.733 99.8303V90.281C179.284 90.4501 179.835 90.5346 180.385 90.7036C183.478 91.5064 186.613 92.3092 189.706 93.2388C190.214 93.3655 190.807 93.5345 191.315 93.7036V98.8163C194.196 99.6613 197.034 100.549 199.873 101.436V95.1402C198.898 93.0698 197.882 90.9993 196.907 88.9289C196.145 88.7177 195.425 88.4641 194.662 88.2529C194.62 88.2529 194.62 88.2529 194.577 88.2106C188.477 86.3092 182.334 84.6191 176.149 83.1824C175.929 83.1063 175.702 83.0498 175.471 83.0134C174.666 82.8022 173.904 82.6331 173.099 82.4219C172.04 83.9853 170.981 85.5909 169.964 87.1543V99.8726C171.531 101.774 173.056 103.675 174.624 105.577C175.895 105.915 177.208 106.211 178.437 106.506C182.334 107.52 186.232 108.577 190.129 109.675C190.553 109.76 190.934 109.929 191.315 110.013V119.859C190.807 119.732 190.214 119.563 189.705 119.394C186.486 118.464 183.266 117.619 180.089 116.774C179.538 116.647 178.987 116.52 178.437 116.351V111.197C175.556 110.436 172.675 109.76 169.794 109.126V115.464C170.769 117.45 171.786 119.478 172.845 121.464C173.565 121.591 174.37 121.802 175.09 121.971C175.344 122.013 175.556 122.098 175.81 122.14C182.122 123.661 188.392 125.309 194.577 127.253C195.382 127.464 196.102 127.718 196.823 127.929C197.839 126.492 199.83 123.492 199.83 123.492C200 123.661 200 114.957 200 110.605Z" fill="black"/>
<path d="M60.7923 84.7456V95.7738C60.0721 95.9005 59.479 95.9428 58.7588 96.0273C54.9885 96.5343 51.2181 97.0836 47.49 97.6752V84.6188C51.2604 83.985 54.9885 83.478 58.7588 83.0132C59.479 82.8864 60.0721 82.8442 60.7923 82.7597V84.7456ZM63.8849 76.2104C63.5883 76.2526 63.4188 76.2526 63.1223 76.2949C54.9461 77.2244 46.8122 78.4921 38.7207 80.0132V119.098C41.6014 118.506 44.5669 117.999 47.49 117.534V103.886C52.7008 103.084 57.9539 102.323 63.1223 101.689C63.4189 101.647 63.5883 101.647 63.8849 101.605C64.6474 101.478 65.4523 101.436 66.2149 101.351C67.3163 99.2808 68.4602 97.2948 69.604 95.2667V81.2385C68.5025 79.4639 67.4011 77.6047 66.2149 75.8301C65.4523 75.9991 64.6474 76.0836 63.8849 76.2104Z" fill="black"/>
<path d="M150.35 95.7331C146.537 95.1415 142.682 94.5922 138.869 94.1697V82.6345C142.766 83.0993 146.579 83.6486 150.477 84.2824C151.112 84.3669 151.79 84.4936 152.425 84.5781V96.1133C151.748 95.9443 151.027 95.8598 150.35 95.7331ZM158.06 100.127C159.119 99.7049 160.136 99.3669 161.195 98.9444V85.4232C159.331 83.2683 157.509 81.1133 155.645 78.9584C147.172 77.5218 138.657 76.3387 130.1 75.5781V114.663C133.023 114.916 135.988 115.212 138.911 115.592V100.296C141.157 100.55 143.444 100.888 145.69 101.184C146.41 101.268 147.215 101.395 147.935 101.48C149.46 101.691 150.943 101.987 152.468 102.156V117.451C152.637 117.451 152.764 117.536 152.934 117.536C155.73 118.001 158.441 118.465 161.237 118.973V102.367C160.136 101.649 159.119 100.93 158.06 100.127Z" fill="black"/>
<path d="M36.9415 65.9429C35.6706 66.1542 34.4844 66.4077 33.2558 66.6612C33.1094 66.6839 32.9669 66.7265 32.8322 66.788V63.6612C33.0016 63.6189 33.2134 63.6189 33.3405 63.5767C34.3573 63.3654 35.374 63.1964 36.3907 62.9851C36.5602 62.9429 36.772 62.9429 36.9415 62.9006V64.5485C37.8735 64.4218 38.8055 64.2105 39.7798 64.0415V62.0133C39.4409 61.464 39.1444 60.9992 38.7631 60.4922C38.526 60.5411 38.285 60.5694 38.0429 60.5767H38.0006C35.9671 60.957 33.976 61.3373 31.9849 61.7598C31.9152 61.778 31.8444 61.7921 31.7731 61.802C31.5189 61.8443 31.2647 61.8866 31.0529 61.9288C30.7563 62.6471 30.375 63.2387 30.0361 63.957V68.0978C30.5869 68.4781 31.0529 68.8584 31.5612 69.2809L32.8321 69.0274C34.1031 68.7739 35.374 68.5626 36.6025 68.2668C36.772 68.2668 36.8991 68.2246 37.0262 68.2246V71.3936C36.8991 71.4359 36.6873 71.4359 36.5178 71.4781C35.4587 71.6894 34.3996 71.9006 33.3405 72.0697C33.2134 72.1119 33.0016 72.1119 32.8321 72.1542V70.5063C31.9001 70.7175 30.9258 70.8443 30.0361 71.0556V73.126C30.375 73.633 30.6716 74.0978 31.0529 74.6049C31.307 74.5626 31.5189 74.5204 31.7731 74.4781C31.9001 74.4781 31.9425 74.4359 32.0272 74.4359C34.1031 74.0133 36.0942 73.6331 38.1276 73.2528C38.3818 73.2105 38.6784 73.1682 38.8902 73.126C39.1867 72.4922 39.568 71.8584 39.8646 71.1823V66.9147C39.3562 66.4922 38.8902 66.0697 38.3395 65.6894C37.8735 65.7739 37.4075 65.8161 36.9415 65.9429Z" fill="black"/>
<path d="M47.1088 66.705C47.6595 64.6346 48.1679 62.5219 48.6339 60.367C49.1846 62.3106 49.6506 64.2966 50.159 66.2402C49.1846 66.4092 48.1255 66.5782 47.1088 66.705ZM46.6851 59.1416C45.5413 63.536 44.3975 67.9304 43.1689 72.3247C44.0586 72.1557 44.9482 71.9867 45.8802 71.9022C46.1344 70.8881 46.3463 69.9163 46.6004 68.9867C47.9561 68.7754 49.3117 68.5642 50.7521 68.3529C51.0063 69.2402 51.2181 70.1698 51.4723 71.0571C52.4043 70.8881 53.421 70.8036 54.353 70.6346C53.2092 66.5782 52.0654 62.5219 50.8368 58.5078C49.4388 58.7191 48.0832 58.9304 46.6851 59.1416Z" fill="black"/>
<path d="M65.1133 65.1417C63.6729 62.4798 62.1478 59.86 60.6651 57.1981C59.6907 57.2826 58.674 57.4093 57.6572 57.5361V70.2122C58.5045 70.1276 59.3518 70.0009 60.199 69.9164V61.4234C61.6818 64.0854 63.1222 66.7896 64.6049 69.4516C65.6216 69.3248 66.596 69.2403 67.6551 69.1136V56.4375C66.8078 56.5643 65.9605 56.6065 65.1133 56.7333L65.1133 65.1417Z" fill="black"/>
<path d="M80.7455 63.1965C81.2539 61.1684 81.7622 59.0557 82.313 57.0275C82.8214 59.0134 83.2873 61.0416 83.8381 63.0698C82.779 63.112 81.7623 63.1542 80.7455 63.1965ZM80.3219 55.5486C79.1357 59.8585 77.9495 64.1684 76.8057 68.436C77.6953 68.3937 78.5849 68.3515 79.517 68.267C79.7711 67.3374 79.983 66.3655 80.2371 65.3937C81.6352 65.3092 83.0332 65.267 84.3888 65.1824C84.6853 66.1543 84.8972 67.0839 85.1513 68.0134C86.1257 67.9712 87.1001 67.9289 88.0745 67.9289C86.9306 63.7458 85.7021 59.605 84.5583 55.4219C83.0755 55.4219 81.6775 55.4641 80.3219 55.5486Z" fill="black"/>
<path d="M99.6401 63.4084C98.1574 60.5775 96.6323 57.831 95.1496 55.0423C94.1752 55.0423 93.1584 55.0845 92.1841 55.0845V67.7606C93.0314 67.7606 93.8363 67.7183 94.6835 67.7183V59.1831C96.1663 62.0141 97.649 64.7605 99.0894 67.5915H102.14V55H99.6401L99.6401 63.4084Z" fill="black"/>
<path d="M106.291 57.3241C107.477 57.3241 108.621 57.4087 109.765 57.4509V67.803C110.697 67.8875 111.671 67.8875 112.603 67.9298V57.5354C113.747 57.6199 114.933 57.6622 116.077 57.7044V55.465C112.815 55.296 109.553 55.2115 106.291 55.127V57.3241Z" fill="black"/>
<path d="M142.004 65.9859C140.521 62.9859 139.081 60.0282 137.556 57.0282C136.539 56.9014 135.565 56.8169 134.548 56.7324V69.4085C135.395 69.493 136.242 69.5352 137.09 69.662V61.169C138.53 64.169 140.013 67.1268 141.496 70.169C142.47 70.2958 143.487 70.4225 144.461 70.5493V57.8732C143.656 57.7465 142.809 57.662 141.962 57.5352V65.9859H142.004Z" fill="black"/>
<path d="M148.613 60.3655C149.375 60.4923 150.053 60.5768 150.773 60.7035V69.45C150.053 69.3233 149.375 69.2388 148.613 69.112V71.0557C150.985 71.3937 153.358 71.7317 155.73 72.1543V70.2106C154.967 70.1261 154.29 69.9993 153.569 69.8726V61.1261C154.29 61.2106 154.967 61.3374 155.73 61.4641V59.5205C153.358 59.1824 150.985 58.8022 148.613 58.4219V60.3655Z" fill="black"/>
<path d="M127.558 58.9716V66.6617C127.303 66.6617 127.092 66.6195 126.837 66.6195C125.821 66.4927 124.846 66.4505 123.83 66.4082C123.575 66.4082 123.364 66.366 123.109 66.366V57.9152C123.364 57.9152 123.575 57.9575 123.83 57.9575C124.846 58.042 125.821 58.1265 126.837 58.1688C127.092 58.1688 127.303 58.211 127.558 58.211V58.9716ZM129.295 56.2251C129.04 56.2251 128.786 56.1829 128.532 56.1829C126.456 56.0138 124.465 55.8871 122.432 55.7181H122.177C121.881 55.7181 121.627 55.6758 121.372 55.6758C120.991 56.2251 120.652 56.8589 120.271 57.4504V66.366C120.652 66.9575 120.991 67.6758 121.372 68.2674C121.627 68.2674 121.881 68.3519 122.177 68.3519H122.432C124.465 68.4786 126.456 68.6054 128.532 68.8167C128.786 68.8167 129.04 68.8589 129.294 68.8589C129.676 68.2674 130.057 67.6758 130.396 67.0843V58.1688C130.057 57.535 129.676 56.9012 129.295 56.2251Z" fill="black"/>
<path d="M167.126 64.4216V72.1117C166.871 72.0695 166.66 71.985 166.363 71.9427C165.389 71.7314 164.372 71.6047 163.398 71.3934C163.148 71.317 162.893 71.2605 162.635 71.2244V62.7737C162.884 62.8501 163.139 62.9066 163.398 62.9427C164.372 63.154 165.389 63.323 166.363 63.5343C166.66 63.5765 166.871 63.6188 167.126 63.661V64.4216ZM169.879 63.999C169.54 63.323 169.159 62.5624 168.863 61.8864C168.566 61.8441 168.312 61.8018 168.058 61.7596C166.067 61.3371 164.075 60.9568 162 60.5765C161.915 60.5765 161.83 60.5342 161.745 60.5342C161.487 60.4981 161.232 60.4416 160.983 60.3652C160.6 60.9092 160.246 61.4734 159.924 62.0554V70.9709C160.305 71.6469 160.644 72.323 160.983 72.9991C161.237 73.0413 161.491 73.1258 161.745 73.1681C161.831 73.1748 161.916 73.189 162 73.2103C164.033 73.5906 166.067 73.9286 168.058 74.3512C168.32 74.4319 168.59 74.4885 168.863 74.5202C169.201 73.9286 169.583 73.4216 169.879 72.83V63.999Z" fill="black"/>
<path d="M84.8128 88.4648L74.4758 106.803L76.2128 111.07H82.6099L79.6866 118.465L74.2216 112.549L74.8573 121.254L65.3252 121.676L72.9086 126.958L67.5281 134.944L76.2128 132.155L79.7712 140.732L82.5253 131.352L92.184 133.803L85.914 126.62L93.5821 120.282L85.6603 120.789L94.2598 111.07H105.571L118.068 88.972V75.5352H111.036L106.969 82.6759L106.291 88.4648L99.0471 101.352H89.5576L96.6324 88.8871V75.5776H89.3033L85.406 82.6759L84.8128 88.4648Z" fill="black"/>
<path d="M115.442 77.5215H112.138L109.596 81.9578H113.027L115.442 77.5215Z" fill="#C4CED4"/>
<path d="M94.0479 77.5215H90.5315L88.0322 81.9578H91.7604L94.0479 77.5215Z" fill="#C4CED4"/>
<path d="M87.397 105.831L80.0253 122.606L76.7211 119.057L77.06 123.536L72.1035 123.747L76.0434 126.536L73.2893 130.676L77.7803 129.198L79.6444 133.634L81.0419 128.775L86.0835 130.085L82.8214 126.324L86.8038 123.028L81.2116 123.409H80.8302L92.4381 105.916H102.521L111.46 89.9863H107.986L100.487 103.127H82.44L89.9808 89.9863H86.465L77.3563 105.916H87.397V105.831Z" fill="#C4CED4"/>
<path d="M90.8282 83.7754H87.566L87.1426 87.6201H90.4893L90.8282 83.7754Z" fill="#C4CED4"/>
<path d="M112.307 83.7754H109.087L108.664 87.6201H111.968L112.307 83.7754Z" fill="#C4CED4"/>
<path d="M78.458 127.591C78.8418 127.6 79.2137 127.457 79.4918 127.193C79.7698 126.929 79.9313 126.565 79.9407 126.182C79.9413 126.159 79.9413 126.135 79.9407 126.112C79.9419 125.919 79.905 125.727 79.8321 125.549C79.7591 125.37 79.6516 125.207 79.5157 125.07C79.3797 124.932 79.2179 124.823 79.0396 124.748C78.8613 124.673 78.67 124.634 78.4765 124.633C78.4703 124.633 78.4641 124.633 78.458 124.633C78.0721 124.644 77.7059 124.805 77.437 125.081C77.168 125.357 77.0176 125.727 77.0176 126.112C77.0176 126.497 77.168 126.866 77.437 127.143C77.7059 127.419 78.0721 127.579 78.458 127.591Z" fill="black"/>
</g>
<defs>
<clipPath id="clip0_18_271">
<rect width="200" height="90" fill="white" transform="translate(0 55)"/>
</clipPath>
</defs>
</svg>
