<svg width="200" height="200" viewBox="0 0 200 200" fill="none" xmlns="http://www.w3.org/2000/svg">
<g clip-path="url(#clip0_18_257)">
<path d="M200 100C200 126.522 189.464 151.957 170.711 170.711C151.957 189.464 126.522 200 100 200C73.4784 200 48.043 189.464 29.2893 170.711C10.5357 151.957 0 126.522 0 100C0 73.4783 10.5357 48.043 29.2893 29.2893C48.043 10.5357 73.4784 0 100 0C126.522 0 151.957 10.5357 170.711 29.2893C189.464 48.043 200 73.4783 200 100Z" fill="white"/>
<path d="M194.743 100C194.743 125.129 184.761 149.228 166.993 166.996C149.224 184.764 125.125 194.747 99.9969 194.747C74.8686 194.747 50.7695 184.764 33.0011 166.996C15.2327 149.228 5.25049 125.129 5.25049 100C5.25049 74.872 15.2327 50.7729 33.0011 33.0045C50.7695 15.2361 74.8686 5.25391 99.9969 5.25391C125.125 5.25391 149.224 15.2361 166.993 33.0045C184.761 50.7729 194.743 74.872 194.743 100Z" fill="black"/>
<path d="M96.7866 13.2295L93.4702 16.5508V34.8542L96.7866 38.1738H106.029L109.313 34.8542V16.5508L105.995 13.2295H96.7866ZM98.7128 31.7213V19.643L99.7099 18.6475H103.072L104.069 19.643V31.7213L103.072 32.7169H99.7099L98.7128 31.7213Z" fill="white"/>
<path d="M155.987 63.7422L154.42 68.1679L158.412 76.5043L162.821 78.0293L179.327 70.1379L180.889 65.7041L176.918 57.4034L172.494 55.8443L155.987 63.7422ZM162.056 71.481L160.606 68.4456L161.071 67.1187L171.97 61.907L173.298 62.3731L174.747 65.4102L174.282 66.737L163.385 71.9455L162.056 71.481Z" fill="white"/>
<path d="M42.0173 44.2809L42.04 45.6841L50.7061 54.1066L52.1061 54.0855L54.4545 51.6689L54.4383 50.2657L45.777 41.8481L44.3706 41.8675L42.0173 44.2809ZM60.3353 48.6936L60.4295 53.3596L53.99 59.9858L49.2932 60.0508L36.169 47.292L36.104 42.6L42.5273 36.003L47.2111 35.9348L60.3353 48.6936Z" fill="white"/>
<path d="M143.29 23.7951L133.571 46.7207L129.584 45.0187L128.532 28.7518L122.851 42.1651L118.498 40.3299L128.221 17.4092L133.61 19.6927L133.677 33.9652L138.799 21.8852L143.29 23.7951Z" fill="white"/>
<path d="M69.0337 31.2891L72.9656 29.5774C72.9981 29.566 73.4853 28.2781 73.4853 28.2781L72.1292 25.1647L70.8218 24.645L66.8915 26.3552L69.0337 31.2891ZM79.2005 29.0171L78.0928 32.8937L85.0488 39.7539L80.2025 41.8619L73.7517 35.6725L71.3984 36.7185L74.6823 44.2672L70.2404 46.1934L60.3237 23.3116L70.9891 18.6716L75.4959 20.4971L79.2005 29.0171Z" fill="white"/>
<path d="M162.792 46.1135L159.552 42.9287L145.819 56.8926L142.098 53.2319L155.827 39.2696L152.582 36.0816L156.346 32.2552L166.552 42.2888L162.792 46.1135Z" fill="white"/>
<path d="M29.8472 60.3319L27.9973 64.4766L45.8736 72.4784L43.7347 77.2402L25.86 69.2481L24.0102 73.3928L19.1104 71.2019L24.9571 58.141L29.8472 60.3319Z" fill="white"/>
<path d="M166.469 123.951L164.005 128.634L162.277 127.727L161.79 128.645L160.234 131.607L160.66 132.933L163.107 134.227L162.797 134.055L164.137 133.654L167.067 128.083L171.663 126.706L179.15 130.638L180.54 135.123L176.243 143.306C176.243 143.306 171.724 144.681 171.697 144.67L167.947 142.693L170.389 138.053L172.283 139.049L174.316 135.179L173.901 133.834L171.929 132.798L170.566 133.207L167.693 138.679L163.052 140.085L163.036 140.116L155.549 136.181L154.087 131.612L158.384 123.433L162.941 122.121L166.469 123.951Z" fill="white"/>
<path d="M35.4185 131.124L37.395 134.93C37.4112 134.962 38.7348 135.355 38.7348 135.355L41.7475 133.785L42.1682 132.448L40.1868 128.644L35.4185 131.124ZM38.3922 141.111L34.4489 140.278L28.0922 147.693L25.6561 143.008L31.3761 136.138L30.1694 133.859L22.8708 137.661L20.6328 133.372L42.7723 121.879L48.1383 132.2L46.6328 136.823L38.3922 141.111Z" fill="white"/>
<path d="M72.8816 166.78L76.4043 168.242C76.4368 168.258 77.6889 167.708 77.6889 167.708L78.9898 164.572L78.4685 163.275L74.941 161.815L72.8816 166.78ZM71.0269 171.24L67.4328 179.838L63.103 178.043L72.677 155.007L83.2092 159.387L84.9583 163.906L81.4698 172.296L77.9926 174.145L71.0269 171.24Z" fill="white"/>
<path d="M108.825 166.947L104.284 167.003L104.5 186.581L99.2786 186.633L99.0561 167.058L94.5152 167.102L94.46 161.742L108.77 161.581L108.825 166.947Z" fill="white"/>
<path d="M123.061 163.348L122.485 164.628L126.771 175.923L128.051 176.5L131.201 175.303L131.778 174.025L127.492 162.731L126.212 162.151L123.061 163.348ZM137.797 175.098L135.903 179.363L127.265 182.641L122.983 180.714L116.489 163.603L118.415 159.322L127.021 156.056L131.3 157.982L137.797 175.098Z" fill="white"/>
<path d="M146.988 156.085L150.256 153.307C150.284 153.28 150.371 151.912 150.371 151.912L148.174 149.323L146.772 149.21L143.505 151.984L146.988 156.085ZM156.059 150.965L156.126 154.992L164.769 159.542L160.744 162.966L152.77 158.914L150.821 160.595L156.153 166.864L152.465 169.998L136.339 150.977L145.194 143.446L150.045 143.886L156.059 150.965Z" fill="white"/>
<path d="M50.5743 159.592L53.9914 152.686L47.3683 156.641L50.5743 159.592ZM50.4362 171.42L46.5368 167.832L48.3477 164.155L43.0093 159.246L39.4932 161.351L35.5889 157.758L58.1328 144.247L62.0322 147.835L50.4362 171.42Z" fill="white"/>
<path d="M119.429 150.029C119.519 150.135 119.579 150.262 119.629 150.262C119.905 150.245 120.465 150.156 120.465 150.156L121.024 149.919L122.591 149.304C122.591 149.304 126.507 147.441 126.523 147.426C126.535 147.413 127.21 147.064 127.21 147.064L127.564 146.906L127.985 146.619L128.683 146.187L129.508 145.732L130.57 145.037L132.42 143.739L133.323 143.025L134.624 142.083L135.81 141.203L136.364 140.793L137.15 140.062L137.963 139.257L139.271 137.859L140.792 136.39L142.555 134.364L143.518 133.068L143.86 132.603L144.892 131.323L146.912 128.423L147.477 127.473L148.84 124.801L149.603 123.344L150.91 120.692L151.619 119.081L152.388 116.604C152.388 116.604 153.296 113.343 153.79 111.631C153.845 111.438 153.868 111.261 153.74 111.089C153.463 110.694 153.259 110.196 152.993 109.752C152.859 109.517 152.66 109.288 152.533 109.096C152.405 108.911 152.062 108.476 151.929 108.321C151.786 108.154 151.614 108.011 151.437 107.878C151.016 107.482 150.644 107.085 150.29 106.826C150.124 106.736 149.968 106.614 149.819 106.499C148.718 105.651 147.604 104.971 146.347 104.428C145.827 104.201 145.285 104.006 144.736 103.821C144.354 103.694 143.745 103.542 143.345 103.478C143.113 103.436 142.931 103.431 142.753 103.548C142.582 103.664 142.576 103.931 142.543 104.19C142.472 104.87 142.444 105.621 142.387 106.303C142.327 107.011 142.272 107.717 142.217 108.425C142.166 109.065 142.134 109.71 142.049 110.345C141.95 111.183 141.84 112.026 141.679 112.861C141.38 114.418 141.047 115.968 140.726 117.53C140.633 117.951 140.572 118.399 140.406 118.798C140.117 119.451 139.919 120.138 139.785 120.835C139.496 122.308 138.954 123.698 138.457 125.1C138.041 126.24 137.637 127.398 136.989 128.436C136.938 128.505 136.917 128.588 136.89 128.66C136.584 129.378 136.29 130.1 135.964 130.815C135.759 131.279 135.461 131.697 135.267 132.16C135.017 132.749 134.691 133.279 134.353 133.81C133.804 134.651 133.234 135.471 132.769 136.355C132.436 136.972 132.066 137.553 131.655 138.12C131.545 138.268 131.451 138.417 131.356 138.563C131.03 139.038 130.726 139.53 130.371 139.981C129.69 140.853 128.982 141.706 128.256 142.547C127.808 143.077 127.309 143.567 126.833 144.071C126.401 144.525 125.969 144.985 125.533 145.441C125.438 145.539 125.321 145.617 125.222 145.705C124.961 145.924 124.685 146.132 124.446 146.375C123.881 146.937 123.306 147.476 122.642 147.92C122.353 148.11 122.065 148.301 121.799 148.517C121.107 149.122 120.316 149.575 119.429 150.029Z" fill="#CE1141"/>
<path d="M154.437 108.115C154.464 108.115 154.476 108.065 154.481 108.002C154.499 107.868 154.52 107.633 154.52 107.633L154.901 104.222L155.129 101.028L155.14 97.8656L155.135 97.3703L154.758 93.7795C154.758 93.7795 154.315 90.5459 153.982 88.8812C153.86 88.2852 153.501 87.988 153.014 87.7557C152.858 87.6794 152.681 87.5949 152.509 87.543C152.155 87.4325 151.768 87.2653 151.413 87.1678C150.604 86.9697 149.834 86.7017 149.016 86.562C148.046 86.3964 147.067 86.2924 146.086 86.208C145.283 86.1349 144.475 86.1024 143.666 86.0943C143.024 86.0829 142.636 86.0748 141.993 86.0748C141.646 86.0748 141.28 86.0862 141.124 86.2957C140.97 86.5133 141.08 86.8998 141.136 87.2782C141.257 88.0643 141.395 88.4557 141.524 89.2353C141.91 91.5398 142.326 93.8444 142.409 96.1896C142.453 97.2404 142.514 98.2944 142.558 99.3436C142.576 99.644 142.57 99.8389 142.576 100.139C142.581 100.321 142.62 100.519 142.703 100.651C142.797 100.795 142.942 100.82 143.119 100.87C143.317 100.935 143.505 100.956 143.711 101.002C143.909 101.052 144.286 101.13 144.541 101.208C145.472 101.508 146.467 101.845 147.37 102.212C148.018 102.467 148.611 102.842 149.232 103.162C149.31 103.206 149.37 103.251 149.441 103.298C149.797 103.569 150.162 103.837 150.516 104.105C151.364 104.726 152.238 105.33 152.892 106.183C153.014 106.347 153.157 106.498 153.306 106.637C153.568 106.858 153.993 107.667 154.304 108.032C154.359 108.096 154.409 108.115 154.437 108.115Z" fill="#CE1141"/>
<path d="M130.415 69.8248C130.737 69.8004 131.024 69.7955 131.268 69.7647C131.451 69.7436 131.622 69.7371 131.711 69.5471C131.783 69.357 131.64 69.1508 131.601 69.0615C131.528 68.9055 130.914 67.8174 130.914 67.8174L130.316 66.8836L127.791 63.2375L127.264 62.6171L126.772 61.9577L125.946 61.0434L123.902 58.7989L123.022 57.9365L119.855 55.0018L117.252 52.9976L116.316 52.5039L113.271 50.6411L111.134 49.4848L110.718 49.3158L108.985 48.6792L106.405 47.7161L106.2 47.6707L105.375 47.4628L105.152 47.4303L104.428 47.2435L102.888 46.9593L102.158 46.9333L100.789 46.6783L99.1498 46.5728L98.5798 46.5029L97.5501 46.4883L95.8334 46.537L94.1379 46.7287L92.8208 46.7547L91.6579 46.8878L90.4675 47.1266L89.5645 47.4027L88.0963 47.6869L87.765 47.682L86.3975 48.1692L85.5887 48.3966L85.095 48.6938L83.8997 49.0203L83.3231 49.3516L82.6037 49.626L80.8318 50.3699L78.5776 51.2485L77.8418 51.6026L76.2584 52.4568L74.8893 53.3549L73.6111 54.0159L73.1401 54.2855L71.7385 55.0294L71.5177 55.1755L69.9228 56.4261L68.6057 57.321L68.3442 57.4882L66.85 58.6673L66.3011 59.1221C66.3011 59.1221 65.4988 59.8107 65.4761 59.9065L66.0413 59.7392C66.0413 59.7392 67.0709 59.3624 67.0872 59.3689C67.1099 59.3738 67.2869 59.3819 67.2869 59.3819L68.7762 58.781H68.9873L70.6098 58.1411C70.6098 58.1411 71.4624 57.8618 71.4624 57.8829C71.4624 57.9024 72.32 57.5613 72.32 57.5613L73.5283 57.1342L76.4468 56.0119L76.7115 56.0038L78.2073 55.4809L79.3863 54.9936L79.5585 55.1187C79.5585 55.1187 81.829 55.1755 81.8452 55.1755C81.8501 55.1755 83.3069 55.286 83.3069 55.286L83.3507 55.3168L86.292 55.5426L86.3244 55.5247L90.396 55.7326L90.4122 55.8333L91.8577 57.0725L91.9616 57.066L93.4298 58.487L93.5678 58.4221L95.5898 58.4806L95.6889 58.4075L100.772 58.7063L100.8 58.8216L103.065 60.1339L103.165 60.1128L107.168 62.0633L107.196 62.2777L109.461 61.3925L112.789 62.5132L113.354 63.434L114.567 63.5136L115.74 64.8372L115.868 64.847L116.81 65.9237L116.82 65.9919H116.96L119.578 66.5896L120.547 68.0805L122.972 68.9656C122.972 68.9656 125.57 69.6266 126.904 69.7955C128.089 69.9466 129.496 69.8816 130.415 69.8248Z" fill="#CE1141"/>
<path d="M153.035 85.2139C152.957 84.8273 152.681 84.038 152.681 84.038L152.532 83.619L152.394 83.1091L151.967 81.8277L151.569 80.707L150.321 77.9347L149.758 76.5705L149.043 74.9951L148.196 73.5968L147.996 73.1973L147.426 72.0507L146.899 71.1899L146.679 70.8959L143.046 65.9766C143.046 65.9766 142.691 65.5576 142.514 65.3529C142.437 65.2441 142.402 65.1629 142.292 65.1629C142.282 65.1629 142.271 65.1646 142.264 65.1646C142.264 65.1646 141.147 66.9965 140.681 67.5162C140.216 68.0278 139.281 68.8853 139.281 68.8853C139.281 68.8853 138.488 69.5317 138.355 69.6292C138.229 69.7396 137.624 70.1294 137.624 70.1294L136.794 70.6052C136.794 70.6052 136.168 70.8976 136.064 70.9333C135.963 70.9739 135.848 71.0226 135.781 71.1022C135.719 71.185 135.698 71.2467 135.726 71.388C135.747 71.4985 135.786 71.604 135.83 71.6999C136.163 72.4031 136.473 73.1226 136.838 73.8063C137.386 74.8246 137.741 75.9225 138.194 76.9798C138.35 77.3289 138.505 77.683 138.622 78.0435C138.932 78.9806 139.219 79.9194 139.518 80.8597C139.651 81.2771 139.789 81.6929 139.906 82.1119C140.028 82.5341 140.127 82.9564 140.237 83.3803C140.311 83.6596 140.499 83.7863 140.782 83.7847C141.053 83.7814 141.329 83.7668 141.6 83.7554C142.57 83.7295 143.544 83.6953 144.519 83.6807C144.796 83.6759 146.745 83.8578 146.745 83.8578C146.745 83.8578 147.442 83.9243 147.775 83.9812C148.517 84.1192 149.248 84.2816 149.984 84.4392C150.604 84.5659 151.241 84.7786 151.817 85.0417C152.1 85.1668 152.399 85.2528 152.709 85.3405C152.808 85.3682 152.957 85.386 152.98 85.3795C153.008 85.3682 153.047 85.2577 153.035 85.2139Z" fill="#CE1141"/>
<path d="M140.327 63.516C140.3 63.3748 140.04 62.9834 140.04 62.9834L139.856 62.652L139.33 62.0479L138.976 61.533L138.312 60.885C138.312 60.885 138.167 60.7567 138.089 60.6999C136.933 59.7595 134.619 57.8854 134.612 57.8789C134.612 57.8707 133.971 57.3673 133.971 57.3673L132.769 56.3149L126.748 52.7062L122.009 50.4568C122.009 50.4568 119.484 49.4677 119.484 49.4758C119.484 49.4791 118.571 49.1478 118.56 49.1527C118.542 49.1592 115.458 48.0873 115.458 48.0873L113.265 47.5318L111.144 47.0722L110.813 47.0413L110.625 47.2281L110.701 47.3223C110.701 47.3223 110.917 47.4295 111.018 47.4717C111.677 47.73 112.346 47.9736 112.999 48.2367C113.431 48.4072 113.842 48.6394 114.285 48.7694C114.594 48.8587 114.883 48.9691 115.148 49.1267C116.156 49.7113 117.165 50.2944 118.16 50.8969C118.758 51.251 119.318 51.6749 119.827 52.1523C120.215 52.5096 120.626 52.8572 121.095 53.1138C121.306 53.2307 121.483 53.4191 121.672 53.5767C121.771 53.6611 121.876 53.7488 121.982 53.8365C122.575 54.3205 123.211 54.7411 123.737 55.3079C124.291 55.9088 124.882 56.4854 125.47 57.0538C126.029 57.6028 126.594 58.1355 127.07 58.7559C127.463 59.2691 127.874 59.7693 128.322 60.2273C129.198 61.0913 129.862 62.1145 130.653 63.0402C130.753 63.1506 130.813 63.2952 130.896 63.4186C131.406 64.2306 131.866 65.0719 132.486 65.8158C132.918 66.329 133.306 66.8698 133.599 67.4886C133.766 67.854 134.019 68.1885 134.253 68.5263C134.386 68.7245 134.612 68.8187 134.729 68.8122C134.844 68.8008 135.067 68.7017 135.067 68.7017L135.492 68.5345C135.492 68.5345 136.058 68.2795 136.246 68.1967C136.439 68.1073 136.811 67.8962 136.949 67.7744C137.087 67.6493 137.648 67.2612 137.969 66.9689C138.284 66.6781 138.932 65.9213 138.932 65.9213L139.392 65.2993L140.201 63.9643C140.201 63.9643 140.355 63.6606 140.327 63.516Z" fill="#CE1141"/>
<path d="M137.818 83.5579C137.492 82.551 137.237 81.6074 136.883 80.6151C136.589 79.8128 136.362 78.9797 135.986 78.1968C135.764 77.734 135.637 77.2192 135.465 76.7336C135.371 76.4867 135.249 76.2561 135.166 76.0108C134.728 74.7489 134.125 73.7257 133.521 72.5369C133.489 72.4752 133.461 72.4151 133.406 72.3144C133.344 72.204 133.294 72.0984 133.144 72.0156C132.995 71.9279 132.873 71.9864 132.602 72.0237C132.082 72.0838 131.439 72.152 131.168 72.152C130.931 72.152 129.911 72.2283 129.108 72.2966L128.92 72.2397H127.934L125.337 71.9052C124.39 71.7622 122.214 71.2133 122.214 71.2133L120.619 70.6692L118.659 69.9936L118.503 70.0797L115.453 69.8361L115.352 69.8929L113.636 68.5807L113.431 68.5677L112.362 67.6013L112.319 67.4097L111.128 67.2278L111.011 67.2749L110.032 66.9403L109.92 66.838L107.672 67.0004L105.634 66.1721L98.574 66.5441L98.4636 66.4726L97.1286 66.5733L96.9905 66.6772L93.5134 66.9403L93.4127 66.8526L88.4576 69.7159L88.4024 69.9286L88.1685 70.13L88.0532 70.0472L85.5667 69.815L85.4271 69.875L81.0258 69.9043L80.9251 69.8556L79.6681 69.815L79.2929 69.5925L74.6675 73.1671L74.6513 73.2531L73.0353 74.528L71.2245 73.6722L71.114 73.7257L70.4433 73.5211C70.4433 73.5211 67.1204 74.3689 67.148 74.3949C67.1821 74.4176 64.0411 73.9011 64.0411 73.9011L63.8251 73.7257L63.234 74.3332L61.9867 74.9243L61.9591 75.0331L59.4726 76.9268L55.9467 79.4701L51.9807 82.4211L50.1926 83.7204L50.1033 84.4853L49.3513 86.2263L49.0232 87.727L48.5263 90.7559L48.2323 92.0681L48.1219 93.6403L47.6899 96.9144L47.5063 104.078L47.7012 104.502L47.8279 106.477C47.8279 106.477 47.8604 106.82 47.9384 106.836H47.9449L56.7263 97.7508L59.6123 96.5912L62.037 96.4678L63.4987 94.7852L63.6384 94.4702L63.8154 94.553L67.7684 94.108L67.9406 93.9813H69.4136L69.641 94.0706L70.1103 93.4437L71.8822 92.3507L73.7824 91.0482L79.1045 91.1197L79.1419 91.235L81.2304 91.425L82.8578 91.1051L85.8428 88.0567L85.9046 88.0599L88.2741 85.8073L91.8406 85.3461L91.9786 85.2535L92.1345 85.4029L93.9827 86.2799L94.1224 86.1581L95.7611 85.9632L95.8391 85.869L97.3787 85.6108L97.5168 85.5247L99.1879 86.9555L99.2821 86.8451L102.722 86.7818L103.009 86.5658L105.767 86.6989L105.917 86.759L106.344 86.6502L106.42 86.5268L107.516 86.0298L107.649 86.0444L108.918 85.4679L109.023 85.3591L110.379 84.8458L110.48 84.6883L114.24 83.2494L114.272 83.1925L114.932 82.9879L115.076 82.8401L115.265 83.0415L116.354 83.5774L116.692 83.5904L117.917 84.2725L118 84.1556L118.37 83.9802L118.415 83.9932L119.024 83.7122L119.052 83.6684L119.927 83.4556L122.175 84.0419L122.651 83.938L123.067 84.2108L124.717 84.4561L126.334 85.0862C126.334 85.0862 127.27 85.0148 127.275 85.0148C127.291 85.0148 127.58 85.2194 127.58 85.2194L127.812 85.0813C127.812 85.0813 130.996 84.6834 132.597 84.5568C133.631 84.4739 134.663 84.3602 135.704 84.2579C136.285 84.2011 136.872 84.1475 137.453 84.0793C137.768 84.0403 137.929 83.9201 137.818 83.5579Z" fill="#CE1141"/>
<path d="M140.144 99.8745C140.144 99.6553 140.101 99.5123 140.089 99.2963C140.05 98.6808 140.028 98.0685 139.995 97.4514C139.984 97.25 139.956 97.0454 139.94 96.8391C139.89 96.0758 139.878 95.3076 139.802 94.5475C139.701 93.5779 139.563 92.6165 139.414 91.6583C139.303 90.9144 139.159 90.1755 139.025 89.4349C138.887 88.6586 138.761 87.9489 138.593 87.1791C138.421 86.3962 138.256 86.2907 137.453 86.3849C137.387 86.3995 137.315 86.4076 137.249 86.4206C136.955 86.4807 136.539 86.5213 136.24 86.5603C134.679 86.7649 133.206 86.851 131.644 87.0345L127.17 88.5904L120.691 88.4231L119.988 88.1925V88.3062L118.078 89.7159L117.812 89.7386L116.305 91.1418L116.217 91.3351L112.347 91.8532L108.808 94.5816L108.442 94.5719L106.554 95.6844L105.811 95.7672L105.069 96.3892L104.876 96.2414L101.27 95.9962L100.65 96.6994L100.661 96.8131L97.5448 100.217L97.5058 100.414L97.384 100.44L93.4082 104.977L92.3169 104.992L92.2275 105.102L88.9664 105.664L88.7114 105.653C88.7114 105.653 88.6448 105.799 88.6286 105.811C88.6123 105.822 83.2512 108.796 83.2512 108.796L80.8427 108.51L80.3327 108.69L77.9242 108.547L75.5433 111.121L74.1206 111.415L73.3118 111.376L72.4706 111.735L71.9655 111.678L71.9882 111.781L69.0259 114.076L68.7433 114.134L64.113 117.728L64.152 117.944L61.2952 124.871L61.4122 125.161L56.6877 125.594L55.1318 126.929L54.9873 127.435L57.0921 130.35L58.6431 132.731L59.983 134.44L62.1641 136.809C62.1641 136.809 62.1755 136.977 62.2258 136.988C62.2648 137.004 62.5133 137.016 62.5247 137.032C62.536 137.037 63.8321 137.469 63.8369 137.48C63.8483 137.485 65.4432 137.979 65.4432 137.979C65.4432 137.979 65.4643 138.062 65.4821 138.062C65.4935 138.062 65.6429 138.034 65.6429 138.034L68.3113 139.07L68.511 139.06L68.6605 139.236H68.8976C68.9154 139.241 69.5293 139.653 69.5293 139.653L70.6435 139.041L70.6987 139.047L71.2021 138.723L75.2494 139.744L78.2182 138.227L84.8136 137.571L87.5161 133.227C87.9416 132.798 88.7114 132.017 88.7114 132.017L88.817 132.009C88.817 132.009 89.7411 131.156 89.7589 131.14C89.7752 131.117 89.7589 131.018 89.7589 131.018L91.4642 129.473L92.2551 128.642C92.2551 128.642 92.4273 128.536 92.4549 128.536C92.4776 128.531 93.3693 127.585 93.3693 127.585L94.1001 126.829L94.2934 126.787L94.105 126.115L94.8699 123.326L96.343 122.886L96.403 122.828L96.8399 122.729L96.8513 122.485L98.8294 119.268L99.0178 119.19L99.8315 117.603L101.176 116.841L101.36 116.624L101.624 116.656C101.624 116.656 102.412 116.197 102.433 116.201H102.527L103.979 115.563L104.101 115.391L108.946 113.164L109.233 113.137L109.289 112.87L109.477 112.731L109.976 111.038L111.51 110.379L113.276 110.163L114.888 109.051L117.186 109.145L117.407 109.336L117.524 109.195L120.724 107.759L120.712 107.345L121.477 105.88L123.049 105.461L123.127 105.357L125.287 104.903L126.112 103.923L126.223 103.901C126.223 103.901 126.717 103.413 126.726 103.405C126.749 103.402 128.216 103.607 128.216 103.607L128.289 103.662L129.102 103.776L129.601 103.834C129.601 103.834 131.777 102.812 132.69 102.467C133.073 102.319 133.45 102.223 133.809 102.093C134.308 101.914 134.811 101.737 135.321 101.568C135.576 101.482 135.824 101.417 136.075 101.343L137.093 101.159L138.272 100.958L138.987 100.916C138.987 100.916 139.336 100.87 139.469 100.851C139.602 100.829 139.802 100.829 139.956 100.688C140.11 100.55 140.106 100.402 140.122 100.274C140.14 100.139 140.144 100.069 140.144 99.8745Z" fill="#CE1141"/>
<path d="M140.089 104.114C140.094 103.945 140.121 103.658 139.983 103.505C139.845 103.353 139.668 103.33 139.551 103.336C139.436 103.336 138.876 103.408 138.876 103.408L137.94 103.552C137.835 103.569 137.731 103.585 137.63 103.613C137.065 103.749 136.506 103.863 135.952 104.017C135.332 104.194 134.7 104.355 134.125 104.615C133.505 104.892 132.807 105.108 132.193 105.404C131.97 105.506 129.895 106.526 128.941 106.997L127.73 108.287L127.684 108.564L127.519 108.498L126.76 108.542L126.728 108.6L124.246 109.422L124.28 109.7L124.019 109.948L124.014 110.106L122.862 112.136L122.702 112.144L122.674 112.36C122.674 112.36 122.435 112.741 122.175 113.178L116.97 116.524L116.853 116.516L116.067 117.175L115.513 119.368L115.01 119.86L112.977 127.378L113.248 128.222L110.237 129.668H109.754L109.178 132.287L109.079 132.375L108.337 134.751L108.376 134.873L108.072 136.927L107.96 137.069L108.06 137.254L105.174 141.845L104.954 141.913L104.244 143.024L104.228 143.245C104.228 143.245 101.757 146.729 101.757 146.717C101.753 146.706 99.1507 148.262 99.1507 148.262L99.2937 148.484C99.2937 148.505 99.1556 149.537 99.1556 149.537L99.383 149.926L99.0111 150.04L97.1336 151.153L96.9241 151.109L94.1599 152.743L93.8335 153.259C93.8335 153.308 94.9086 153.423 94.9086 153.423L96.7081 153.568L97.9262 153.628L99.3489 153.651L100.008 153.678L101.077 153.709L102.141 153.678L106.011 153.214L108.315 152.809L110.053 152.335L111.942 151.784L114.339 150.838L114.511 150.727L115.198 150.35C115.198 150.35 117.131 149.321 118.005 148.665C119.505 147.531 121.017 146.412 122.38 145.114C122.851 144.674 123.311 144.226 123.77 143.771C124.207 143.339 124.639 142.902 125.076 142.464C125.154 142.387 125.255 142.31 125.287 142.215C125.437 141.861 125.719 141.623 125.979 141.356C126.151 141.163 126.344 140.983 126.484 140.765C126.788 140.299 127.22 139.956 127.608 139.571C127.912 139.264 128.201 138.928 128.444 138.571C128.904 137.921 129.329 137.254 129.766 136.591C130.343 135.709 130.98 134.853 131.473 133.931C132.004 132.94 132.531 131.943 133.089 130.973C133.565 130.144 134.052 129.302 134.419 128.422C135.017 126.97 135.647 125.531 136.207 124.055C136.805 122.491 137.281 120.893 137.702 119.278C138.03 118.072 138.212 116.837 138.655 115.665C138.71 115.514 138.733 115.345 138.761 115.186C138.926 114.202 139.098 113.217 139.253 112.232C139.397 111.296 139.53 110.364 139.662 109.43C139.756 108.79 139.857 108.16 139.912 107.517C139.983 106.632 140.027 105.742 140.066 104.853C140.066 104.754 140.078 104.566 140.078 104.566C140.078 104.566 140.084 104.283 140.089 104.114Z" fill="#CE1141"/>
</g>
<defs>
<clipPath id="clip0_18_257">
<rect width="200" height="200" fill="white"/>
</clipPath>
</defs>
</svg>
