<svg width="200" height="200" viewBox="0 0 200 200" fill="none" xmlns="http://www.w3.org/2000/svg">
<path d="M200 2H108.079L72.0611 78.7238C70.9016 76.8242 69.6188 75.048 68.1632 73.3704C68.1632 73.3704 56.5683 81.2649 55.6802 96.585H77.6612L102.307 43.9637H180.461L200 2Z" fill="black"/>
<path d="M65.2274 70.3108C58.8132 64.3654 50.4007 60.5415 41.1001 60.0234V96.5844H51.2642C51.9056 79.4881 65.2274 70.3108 65.2274 70.3108Z" fill="black"/>
<path d="M26.5944 96.5857H36.8078V60C27.4579 60.4687 18.9714 64.2433 12.5078 70.1887C12.5325 70.1887 25.7063 79.7114 26.5944 96.5857Z" fill="black"/>
<path d="M9.54754 73.2461C4.04612 79.5616 0.542973 87.6534 0.0249023 96.5593H22.376C21.2658 81.9299 9.54754 73.2461 9.54754 73.2461Z" fill="black"/>
<path d="M22.3757 101.025L0 100.951C0.493401 109.906 3.99654 118.048 9.52263 124.363C9.5473 124.363 21.9317 115.235 22.3757 101.025Z" fill="black"/>
<path d="M12.4829 127.372C18.9465 133.343 27.4576 137.142 36.8322 137.61V100.803H26.6188C25.7061 118.787 12.4829 127.372 12.4829 127.372Z" fill="black"/>
<path d="M51.2399 100.803H41.2485V137.586C50.5491 137.018 58.9616 133.17 65.3512 127.2C65.3512 127.175 52.7941 119.009 51.2399 100.803Z" fill="black"/>
<path d="M77.6119 100.901L55.6802 100.803C56.3463 116.567 68.2372 124.165 68.2372 124.165C73.6893 117.85 77.1431 109.783 77.6119 100.901Z" fill="black"/>
<path d="M179.301 166.525H191.143L179.252 190.603V196.918L198.519 196.968V190.553H186.53L198.519 166.377V160.086H179.301V166.525Z" fill="black"/>
<path d="M156.876 166.525H168.718L156.827 190.603V196.918L176.094 196.968V190.553H164.105L176.094 166.377V160.086H156.876V166.525Z" fill="black"/>
<path d="M138.177 160.086L128.975 196.968H135.488L137.388 188.753H146.491L148.662 197.017H155.076L145.923 160.086H138.177ZM139.016 182.19L142.001 170.003L144.986 182.19H139.016Z" fill="black"/>
<path d="M54.718 160.186L45.5161 197.067H52.029L53.9286 188.852H63.0318L65.2028 197.117H71.617L62.4644 160.186H54.718ZM55.5568 182.315L58.5419 170.128L61.527 182.315H55.5568Z" fill="black"/>
<path d="M120.785 160.036V191.022H112.002V181.919H105.539V188.999C105.539 196.844 113.088 197.263 113.088 197.263H120.217C127.15 196.425 127.248 189.813 127.248 189.813L127.199 160.012H120.785V160.036Z" fill="black"/>
<path d="M18.2065 160.234V191.22H9.424V160.308H2.96045V189.246C2.96045 197.091 10.5095 197.511 10.5095 197.511H17.6391C24.5714 196.672 24.6701 190.06 24.6701 190.06L24.6207 160.259H18.2065V160.234Z" fill="black"/>
<path d="M48.1068 160.186H27.5566V166.748H34.6123L34.5629 197.067H41.0758V166.797H48.1068V160.186Z" fill="black"/>
<path d="M89.3799 175.234H81.0168V160.234H74.6025L74.6519 197.067H81.0661V181.673H89.4292V197.017H95.8928V160.234H89.3799V175.234Z" fill="black"/>
</svg>
