<svg width="200" height="200" viewBox="0 0 200 200" fill="none" xmlns="http://www.w3.org/2000/svg">
<g clip-path="url(#clip0_18_266)">
<path d="M100 200C155.228 200 200 155.229 200 100C200 44.7716 155.228 0 100 0C44.7715 0 0 44.7716 0 100C0 155.229 44.7715 200 100 200Z" fill="#C4CED4"/>
<path d="M99.5935 195.591C152.568 195.591 195.512 152.575 195.512 99.5113C195.512 46.448 152.568 3.43164 99.5935 3.43164C46.6193 3.43164 3.67529 46.448 3.67529 99.5113C3.67529 152.575 46.6193 195.591 99.5935 195.591Z" fill="#E31837"/>
<path d="M195.801 94.9666L3.49394 94.9844C3.4046 96.6284 3.35547 98.2814 3.35547 99.9477C3.35547 108.713 4.64642 117.29 7.03177 125.492C29.6792 125.487 169.202 125.479 192.231 125.465C194.63 117.196 195.921 108.543 195.921 99.7064C195.921 98.1205 195.876 96.5391 195.796 94.9666" fill="white"/>
<path d="M87.3034 195.909C91.2031 196.391 95.1742 196.646 99.2034 196.65H99.2615H99.3151H99.3329C108.093 196.65 116.575 195.475 124.643 193.295C149.908 186.04 171.465 168.121 184.062 145.123H15.2114C29.9077 171.767 56.7575 191.566 87.3034 195.909Z" fill="#002B5C"/>
<path d="M158.626 68.0511C154.503 60.4521 148.96 53.7416 142.349 48.2735C141.107 47.246 139.82 46.281 138.507 45.3473C127.568 37.5473 114.207 32.9369 99.7518 32.9101H99.6356C63.7968 32.9151 34.5116 61.0368 32.6583 96.4364C32.6002 97.5756 32.5689 98.7281 32.5645 99.8852V100.001C32.5689 109.253 34.4406 118.071 37.831 126.091C38.2509 127.092 38.702 128.083 39.1711 129.062C42.9322 136.875 48.1675 143.849 54.5106 149.621C56.0963 151.068 57.7536 152.435 59.4689 153.722C70.6501 162.094 84.5235 167.056 99.5642 167.074H99.5999H99.6401H99.6535C107.752 167.069 115.511 165.636 122.694 163.004C148.352 153.614 166.676 128.99 166.706 100.072V100.036V100.031V99.9864C166.706 90.739 164.83 81.9243 161.444 73.9058C160.596 71.9 159.657 69.9478 158.626 68.0491" fill="#C4CED4"/>
<path d="M101.645 9.22852C101.645 9.22852 102.955 10.1847 102.82 11.3864L101.145 26.3523L104.567 26.7351C105.234 26.8114 105.743 26.8185 106.013 26.3587C106.013 26.3587 106.433 22.5886 106.91 18.3666L110.372 25.9814C110.881 27.2323 109.769 27.322 109.769 27.322L110.785 27.461V27.4555L114.192 27.8383C114.867 27.9145 115.367 27.9169 115.637 27.461L117.48 11.0298L112.683 10.4849L111.373 10.3531C111.373 10.3531 112.588 11.222 112.461 12.4196L111.746 18.7859L107.672 10.2197C107.561 10.0052 107.378 9.8742 107.101 9.84323C106.505 9.78049 103.058 9.38259 103.058 9.38259L101.645 9.22852ZM99.1355 9.43183C98.6511 9.44057 96.7769 9.58035 94.8075 9.64785C94.331 9.74554 93.4575 9.76301 93.6481 11.7414L94.4422 26.7216L99.2705 26.4635L99.6278 26.3658C99.6278 26.3658 99.3022 25.8154 99.1911 24.8862C99.1911 24.8862 98.4287 11.3061 98.4287 10.6803C98.4287 10.06 99.1355 9.43183 99.1355 9.43183ZM88.9945 9.82893L82.8798 11.1076C82.8798 11.1076 84.4045 11.5944 84.6586 12.7826L84.6745 12.8302L85.556 17.0609L82.1968 17.7662C81.2121 17.9719 81.0056 18.9527 81.0056 18.9527L79.5683 11.7914L73.7894 12.9922C73.7894 12.9922 74.9806 13.549 75.2347 14.7371L75.2625 14.7848L78.3056 29.4791L81.6806 28.781C82.3477 28.6476 82.8242 28.4895 82.9433 27.9717L81.7124 22.0724L86.3898 21.0955L87.7239 27.5246L91.0989 26.8328C91.766 26.6946 92.2425 26.5374 92.3616 26.0235L88.9945 9.82893ZM123.412 12.9565C123.11 12.974 122.856 13.0248 122.626 13.1098C121.72 13.4497 120.95 14.5513 120.299 16.4184L117.869 23.4408C117.575 24.2667 117.392 24.9577 117.329 25.5208C117.186 26.6152 117.448 27.461 118.075 28.0551C118.703 28.6499 119.862 29.248 121.585 29.842L124.587 30.8816C126.755 31.6322 128.288 31.8339 129.177 31.49C130.082 31.1453 130.861 30.0525 131.512 28.1814C131.512 28.1814 132.671 24.8862 132.838 24.3898C133.116 23.4829 132.433 22.9079 132.052 22.7784L126.422 20.8159C125.762 20.588 125.342 21.0899 125.111 21.514C124.881 21.9429 124.047 24.3477 124.047 24.3477L123.753 25.1022C123.753 25.1022 124.397 24.4764 125.238 24.7671L127.303 25.4866C126.993 26.2419 126.644 26.6692 126.287 26.7851C125.961 26.8963 125.278 26.7621 124.23 26.4C124.23 26.4 123.507 26.1196 123.309 26.0029C122.808 25.6772 122.586 25.2643 122.657 24.7329C122.689 24.4288 122.8 24.0118 122.991 23.4622L124.341 19.5738C124.706 18.5326 125.072 17.9489 125.453 17.8281C125.834 17.7122 126.541 17.8329 127.589 18.199L132.703 19.9645C133.632 20.2862 133.807 21.4942 133.807 21.4942L134.164 20.4744L135.07 17.8504C135.332 16.8497 134.696 16.3128 133.839 16.0134L127.192 13.7102C125.58 13.1503 124.325 12.9017 123.412 12.9565ZM69.8252 14.2264C69.6068 14.2145 69.3852 14.2447 69.1764 14.3321L63.3697 16.7536C61.2748 17.6248 60.0074 18.4865 59.5651 19.3443C59.1228 20.1925 59.2879 21.5466 60.0471 23.3788L60.7174 24.9418C60.8198 25.1793 60.9421 25.3977 61.0803 25.5986C61.6115 26.3666 62.3493 26.8812 63.3141 27.1402C64.4577 27.4348 65.764 27.268 67.2427 26.6517L69.5035 25.7098C70.3795 25.3484 71.0163 25.4414 71.3959 25.9957C71.4992 26.1426 71.55 26.3094 71.55 26.4841C71.55 26.4841 71.8065 27.2768 70.0062 28.0273L65.4495 29.9326C64.4315 30.2765 62.9512 29.3115 62.9512 29.3115C62.9512 29.3115 63.8883 31.5345 64.4648 32.9061C64.8 33.7058 65.8212 34.2252 66.6566 33.8766L67.1109 33.6876L70.2516 32.3835L72.5188 31.4336C74.6185 30.5584 75.8819 29.7054 76.3235 28.8437C76.7706 27.986 76.576 26.7462 75.8216 24.9283C75.8216 24.9283 75.2363 23.5726 75.0394 23.1969C73.9403 21.0883 71.6405 20.3712 69.3082 21.3401L66.6844 22.4353C65.737 22.8284 65.0723 22.753 64.7023 22.2121C64.6888 22.1939 64.5855 21.9739 64.576 21.9469C64.4601 21.5537 64.1631 20.866 65.5615 20.2854L70.3072 18.311C71.33 17.8861 72.8817 18.9035 72.8817 18.9035C72.8817 18.9035 71.9447 16.6686 71.3681 15.3018C71.1172 14.7022 70.4811 14.263 69.8252 14.2264ZM137.857 17.8702C137.484 17.8631 137.23 18.1577 137.118 18.3245C136.975 18.562 135.506 21.1511 135.506 21.1511L134.855 22.3035C134.855 22.3035 135.84 21.3441 136.968 21.9961L139.493 23.4622L133.037 34.6446L137.587 37.2837C137.587 37.2837 137.603 36.5427 138.016 35.6977C138.016 35.6977 141.589 29.4751 143.678 25.8694L145.623 27.0004C146.743 27.6484 146.703 29.4092 146.703 29.4092L147.76 27.5531L149.515 24.4955L142.376 20.3696C142.376 20.3696 142.344 20.3497 142.312 20.3275L138.262 17.9902C138.119 17.906 137.976 17.8726 137.857 17.8702ZM49.0263 24.8584L46.1785 26.8471C45.6068 27.2537 45.3574 27.6381 45.4114 28.237L50.2135 42.8598C50.5216 43.7755 49.4035 45.4283 49.4035 45.4283L54.4088 41.9242C54.8599 41.6121 54.96 41.0832 54.7995 40.5781L54.0936 38.5115L57.9125 35.8454L59.392 36.781C60.2449 37.4862 59.6358 38.2749 59.6358 38.2749L65.1295 34.4278L49.0263 24.8584ZM151.984 27.7263C151.016 27.7533 149.928 28.5451 148.705 30.1001L144.115 35.9431C143.575 36.6309 143.186 37.2273 142.939 37.7364C142.455 38.7284 142.399 39.6067 142.804 40.3747C143.201 41.1435 144.115 42.0878 145.536 43.2085L148.03 45.1773C149.84 46.5981 151.23 47.2867 152.175 47.2509C153.144 47.22 154.24 46.4329 155.463 44.8779L160.061 39.0349C160.593 38.3559 160.99 37.7571 161.236 37.248C161.728 36.26 161.752 35.3554 161.315 34.5469C160.958 33.8234 160.045 32.8862 158.591 31.7473L156.098 29.7785C154.319 28.3759 152.945 27.6953 151.984 27.7263ZM40.7515 29.765L40.2488 30.3654L37.5687 33.4088C37.5552 33.4263 37.5567 33.4358 37.5345 33.458C37.1724 33.8694 36.9087 34.2229 36.9405 34.6033L43.766 45.1352L34.1484 39.9356C32.9246 39.4447 33.4368 38.1073 33.4368 38.1073L32.4736 39.1961L30.4986 41.4294C30.4898 41.4477 30.4795 41.4628 30.4573 41.4858C29.957 42.0481 29.7108 42.6184 29.9745 43.2307L36.8786 52.939L27.2323 47.9832C25.9816 47.3399 26.5264 45.9532 26.5264 45.9532L25.5012 47.0977L23.2323 49.6804C23.2236 49.6939 23.2173 49.705 23.1903 49.736C22.6725 50.3213 22.5367 51.1695 23.037 51.5849C23.1132 51.6477 23.0727 51.627 23.0727 51.627L38.0428 58.643L41.5607 54.6569C42.0388 54.116 42.1754 53.8261 41.9514 53.2543L39.118 47.9768L44.9246 50.8391L48.6657 46.587C49.1303 46.0604 49.201 45.3194 49.0088 44.7524L41.0445 31.4265C40.5307 30.5235 40.7515 29.765 40.7515 29.765ZM51.6612 31.9506L53.9641 33.4644L52.5824 34.4699L51.6612 31.9506ZM153.11 33.1094C153.476 33.1292 154.063 33.4437 154.818 34.0084C155.286 34.3857 155.66 34.7049 155.787 34.8685C156.16 35.3196 156.215 35.7954 155.985 36.2782C155.85 36.5459 155.604 36.8977 155.231 37.3314L152.69 40.5638C151.999 41.4485 151.443 41.8726 150.982 41.8543C150.68 41.8583 150.117 41.5335 149.37 40.9688C148.917 40.6043 148.544 40.2858 148.425 40.1373C148.052 39.6687 147.988 39.2057 148.227 38.7276C148.362 38.4504 148.608 38.0986 148.957 37.6387L151.498 34.4C152.181 33.5327 152.721 33.1094 153.11 33.1094ZM99.7374 34.6072C82.4254 34.6081 65.8228 41.4865 53.5817 53.7294C41.3406 65.9724 34.4636 82.577 34.4636 99.8907C34.4636 117.204 41.3406 133.809 53.5817 146.052C65.8228 158.295 82.4254 165.173 99.7374 165.174C108.31 165.174 116.798 163.485 124.718 160.205C132.638 156.924 139.834 152.115 145.895 146.053C151.957 139.991 156.765 132.794 160.045 124.874C163.326 116.953 165.014 108.464 165.014 99.8907C165.014 82.5764 158.137 65.9713 145.895 53.7283C133.653 41.4853 117.05 34.6072 99.7374 34.6072ZM165.268 38.0231C165.268 38.0231 165.507 39.6179 164.562 40.3684L152.69 49.6447L154.818 52.3672C155.223 52.8938 155.58 53.2599 156.096 53.1352C156.096 53.1352 159.09 50.7971 162.433 48.1786L159.424 55.9824C158.884 57.2245 158.042 56.4851 158.042 56.4851L158.645 57.3087L158.653 57.3032L160.766 60.0114C161.187 60.5427 161.536 60.8993 162.044 60.7794L175.068 50.5874L172.098 46.7824L171.28 45.7571C171.28 45.7571 171.51 47.2374 170.557 47.9832L165.515 51.928L168.779 43.0131C168.858 42.7899 168.818 42.5715 168.651 42.3571C168.286 41.8837 166.15 39.1398 166.15 39.1398L165.268 38.0231ZM21.4607 64.6186L19.2069 71.5631H11.9058L17.8172 75.8486L15.5556 82.7915L21.4607 78.5012L27.365 82.7915L25.1112 75.8486L31.0227 71.5631H23.7215L21.4607 64.6186ZM177.824 65.5398L175.576 72.4843H168.262L174.179 76.7778L171.923 83.7207L177.824 79.432L183.732 83.7207L181.477 76.7778L187.385 72.4843H180.079L177.824 65.5398ZM149.283 154.014C149.124 153.99 148.957 153.99 148.79 154.014C148.576 154.046 148.362 154.125 148.179 154.26L143.001 157.834C141.135 159.121 140.071 160.225 139.817 161.154C139.555 162.075 140.015 163.362 141.127 164.998L142.104 166.388C142.255 166.594 142.414 166.785 142.596 166.952C143.271 167.595 144.105 167.944 145.106 168C146.281 168.048 147.52 167.619 148.838 166.713L150.863 165.323C151.641 164.783 152.277 164.744 152.769 165.204C152.904 165.331 152.983 165.474 153.023 165.649C153.023 165.649 153.436 166.372 151.832 167.476L147.766 170.287C146.845 170.835 145.193 170.192 145.193 170.192C145.193 170.192 146.575 172.185 147.425 173.4C147.909 174.115 149.021 174.417 149.767 173.901L150.172 173.623L152.968 171.685L154.993 170.287C156.867 169.001 157.923 167.905 158.177 166.967C158.431 166.03 157.994 164.863 156.875 163.243C156.875 163.243 156.017 162.035 155.747 161.71C154.238 159.883 151.84 159.645 149.759 161.074L147.417 162.695C146.575 163.274 145.908 163.346 145.431 162.893C145.407 162.877 145.272 162.679 145.265 162.655C145.066 162.29 144.629 161.694 145.876 160.836L150.109 157.913C151.022 157.286 152.745 157.953 152.745 157.953L150.522 154.753C150.244 154.348 149.775 154.077 149.283 154.014ZM47.2141 154.292C46.8758 154.308 46.5756 154.451 46.412 154.729C46.3636 154.816 46.3771 154.776 46.3771 154.776L41.0382 170.176L45.5329 173.011C46.1404 173.4 46.4533 173.48 46.9846 173.17L51.7374 169.533L49.8323 175.727L54.6201 178.753C55.2149 179.127 55.959 179.079 56.491 178.801L67.6024 168.333C68.4156 167.674 69.2002 167.777 69.2002 167.777L68.5236 167.38L65.0962 165.212C65.0779 165.196 65.0604 165.196 65.0342 165.18C64.5697 164.887 64.1821 164.688 63.8121 164.783L56.2734 172.122L59.0314 163.251C59.2061 162.393 60.5808 162.369 60.5808 162.369L59.3666 161.591L56.8325 159.994C56.8142 159.986 56.8063 159.986 56.7841 159.97C56.1408 159.565 55.5381 159.407 54.9758 159.764L47.2284 166.952L50.628 158.303C51.0656 156.968 52.5268 157.278 52.5268 157.278L51.2347 156.452L48.3251 154.618C48.3116 154.618 48.2925 154.61 48.2615 154.586C47.9288 154.371 47.5524 154.276 47.2141 154.292ZM135.711 163.862C135.116 163.902 134.361 164.116 133.448 164.513L122.068 169.437C122.068 169.437 123.641 169.723 124.204 170.716L129.477 182.891C129.708 183.749 129.39 184.678 129.239 184.877L140.325 180.119C141.834 179.468 142.707 178.753 142.954 178.007C143.2 177.244 142.93 175.95 142.152 174.147L138.856 166.952C138.507 166.157 138.34 165.863 138.094 165.387C137.593 164.434 136.91 163.973 136.259 163.878C136.092 163.854 135.91 163.846 135.711 163.862ZM71.2832 168.119C70.8242 168.087 70.2572 168.27 69.8252 169.692L64.9111 183.86L69.4821 185.448L69.8395 185.488C69.8395 185.488 69.7529 184.861 69.9991 183.955C69.9991 183.955 74.4247 171.097 74.6614 170.525C74.898 169.946 75.7859 169.628 75.7859 169.628C75.3388 169.453 73.556 168.873 71.7017 168.19C71.581 168.167 71.4364 168.135 71.2832 168.119ZM134.075 168.77C134.186 168.762 134.29 168.778 134.385 168.818C134.584 168.897 134.758 169.056 134.917 169.31C135.124 169.636 137.943 175.926 137.903 176.26C137.871 176.601 137.697 176.847 137.387 176.974L133.027 178.872L130.47 172.987C130.311 172.598 129.922 171.709 129.477 170.7L133.742 168.85C133.861 168.802 133.972 168.778 134.075 168.77ZM78.2175 170.494C77.4432 170.557 77.1073 171.161 76.881 171.891L76.3783 174.163H76.3918L76.1623 175.1C76.1623 175.1 77.0938 174.393 78.1166 174.552L83.9264 175.823L74.2008 184.019L73.6084 186.767L86.285 189.555C87.095 189.737 87.6588 189.761 87.9447 188.943L88.8579 184.75C88.8579 184.75 87.9129 185.671 86.8647 185.496L80.7182 184.138L90.6685 176.53L91.3912 173.289C91.3912 173.289 78.7567 170.517 78.574 170.502C78.447 170.486 78.3279 170.486 78.2175 170.494ZM119.265 170.613C118.788 170.613 118.225 170.668 117.573 170.788L105.487 173.059C105.487 173.059 107.012 173.631 107.274 174.782L109.958 189.539L113.325 188.911C113.992 188.792 114.476 188.649 114.603 188.133L113.698 183.137L116.049 182.669L120.123 187.617L126.15 186.497C126.15 186.497 125.11 186.243 124.53 185.687L120.861 181.628C121.711 181.43 122.402 180.961 122.656 180.54C123.069 179.849 123.085 178.531 122.727 176.593C122.727 176.593 122.036 173.202 121.901 172.67C121.639 171.653 121.068 171.034 120.44 170.803C120.138 170.676 119.749 170.613 119.265 170.613ZM96.6562 173.138C95.9574 173.146 95.5444 173.313 95.2427 173.837L90.7956 188.562C90.5176 189.491 88.6594 190.214 88.6594 190.214H94.7583C95.3062 190.214 95.7033 189.84 95.8621 189.332L96.4656 187.235H101.119L101.802 188.856C102.104 189.92 101.143 190.214 101.143 190.214H107.853L100.134 173.138H96.6562ZM117.248 175.076C117.558 175.124 117.796 175.37 117.939 175.799C118.066 176.148 118.248 177.387 118.137 177.713C118.034 178.031 117.812 178.221 117.47 178.285L114.683 178.841C114.048 178.96 113.587 179.619 113.206 180.413L112.38 175.95L116.898 175.076C117.025 175.06 117.137 175.052 117.248 175.076ZM98.4271 180.564L99.3959 183.145H97.6886L98.4271 180.564Z" fill="white"/>
<path d="M99.692 40.0387C95.3456 40.0347 91.1208 40.5058 87.0376 41.3858C90.0439 42.9405 93.0451 45.7932 94.9525 50.9977L99.6777 44.0383L104.41 50.9977C106.308 45.811 109.302 42.9544 112.304 41.3998C108.239 40.5197 104.02 40.0431 99.692 40.0387ZM80.7909 43.0891C63.2626 48.9324 49.3614 62.695 43.3311 80.1406C51.3582 68.0826 67.0545 54.3797 91.0509 51.6685C88.9381 46.6025 84.6504 44.2149 80.7909 43.0891ZM118.509 43.103C114.667 44.2377 110.404 46.6241 108.304 51.6678C132.113 54.3571 147.761 67.8685 155.842 79.854C149.763 62.5563 135.93 48.9196 118.509 43.103Z" fill="#E31837"/>
<path d="M120.141 58.6388C117.995 58.6852 116.986 59.3927 116.986 59.3927L110.041 63.2807L110.397 64.5722L111.912 70.0726C111.912 70.0726 114.763 77.9985 121.544 84.7802C134.351 97.4408 150.701 115.967 149.043 132.902C155.27 123.677 158.963 112.609 159.177 100.695C158.141 94.6864 156.213 89.3895 153.81 84.7663C149.343 76.1889 140.709 68.095 130.1 61.8357C125.569 59.2067 122.287 58.5925 120.141 58.6388ZM79.2126 58.6458C77.0663 58.6005 73.7891 59.2068 69.2592 61.8358C58.6498 68.0902 50.0166 76.1871 45.5497 84.7734C43.0795 89.5312 41.1126 94.9987 40.0986 101.226C40.4158 113.006 44.1306 123.935 50.3309 133.056C48.562 116.08 64.9676 97.4806 77.8096 84.7803C84.5949 78.0033 87.4484 70.0727 87.4484 70.0727L88.963 64.5652L89.319 63.2808L82.3743 59.3927C82.3743 59.3927 81.359 58.6911 79.2126 58.6458ZM99.6771 71.1962C98.9892 71.6876 77.0039 87.5131 67.3196 103.18C54.2493 124.323 55.9468 136.516 59.3279 143.477C67.7526 151.223 78.4137 156.573 90.2332 158.449L95.3283 86.2245L99.5719 81.9595L99.6278 81.9036H99.6348L99.6836 81.9595L103.934 86.2245L109.064 158.394L108.994 158.429C120.903 156.548 131.642 151.152 140.102 143.316C143.43 136.329 145.006 124.163 132.034 103.179C122.349 87.5114 100.369 71.6869 99.6763 71.1955L99.6771 71.1962Z" fill="#002B5C"/>
<path d="M99.672 48.6648L98.974 50.0748L97.5921 52.8949H97.5851L97.5292 53.0135L97.4734 53.1322L96.7265 54.6538L96.6637 54.7865L96.6498 54.8075L94.7932 54.9262C92.1622 55.0915 89.551 55.4542 86.9691 55.8965C85.8234 56.0926 84.6677 56.2613 83.5352 56.5107L87.1855 58.4791L90.8358 60.4476L91.9666 61.0549L93.0973 61.6621L92.4133 64.1402L92.3714 64.2798L92.0643 65.4245L90.0263 72.8097L94.6607 69.3963L97.7945 67.0788L98.7228 66.3947L99.6441 65.7107V65.6757L99.672 65.6967L99.6999 65.6757V65.7107L100.628 66.3947L101.556 67.0788L109.318 72.8096L107.287 65.4244L107.112 64.7822L106.938 64.14L106.254 61.662L106.987 61.2711L108.508 60.4475L113.443 57.7949L115.816 56.5105C114.681 56.2603 113.523 56.0928 112.375 55.8962C109.788 55.4539 107.193 55.0912 104.558 54.9259L102.694 54.8073L102.659 54.7305L102.617 54.6538L101.87 53.1322L101.828 53.0414L99.672 48.6648ZM99.6859 81.9677L99.7347 163.707L108.99 158.43L109.059 158.395L103.929 86.2257L99.6859 81.9677Z" fill="#C4CED4"/>
</g>
<defs>
<clipPath id="clip0_18_266">
<rect width="200" height="200" fill="white"/>
</clipPath>
</defs>
</svg>
