<svg width="201" height="201" viewBox="0 0 201 201" fill="none" xmlns="http://www.w3.org/2000/svg">
<g clip-path="url(#clip0_15016_302270)">
<path d="M103.961 85.4181L104.201 83.4189L118.675 83.4989V115.646C118.675 122.363 118.115 127.721 124.353 131.08C127.312 132.839 133.709 133.079 137.548 130.84C143.385 127.401 143.145 121.164 143.145 115.806V83.5789L157.619 95.0943V118.525C157.619 127.721 156.9 136.518 147.144 142.035C139.947 146.194 120.834 146.194 113.717 141.956C103.561 135.958 104.121 125.882 104.121 117.325V105.01L103.961 85.4181Z" fill="black"/>
<path d="M97.1652 83.5008V95.576H90.3679H79.8121C75.8137 95.576 71.7354 95.1761 70.0561 98.2149C69.1764 99.8942 69.1764 102.053 70.0561 103.733C71.8154 106.612 75.8137 106.372 78.5327 106.372H88.1288C96.1256 106.372 101.643 107.731 106.122 115.728C109.24 121.086 108.921 131.002 105.562 136.919C101.244 144.516 93.8865 144.596 86.6094 144.596H70.296H67.9769H64.5383L59.9801 132.521H81.8113C84.4503 132.521 90.6078 132.921 92.607 129.482C93.5666 127.803 93.5666 125.644 92.607 123.885C90.7678 120.846 86.7694 121.246 84.0505 121.246H74.2944C67.577 121.246 61.1796 119.886 56.8613 112.129C53.7426 106.532 53.6626 97.0953 56.8613 91.4976C61.8194 82.7811 72.5351 83.5008 77.9729 83.5008H97.1652Z" fill="black"/>
<path d="M25.3526 120.284L33.6693 97.2534L41.826 120.284H25.3526ZM60.6185 130.76L43.4254 83.4189H23.0335L0.5625 144.435H16.1563L25.0327 121.244L25.4326 120.364L39.7468 133.399H46.1443L50.7024 144.515H65.9763L60.6185 130.76Z" fill="black"/>
<path d="M104.922 68.9449C108.36 65.2664 113.478 64.0669 118.436 65.1864C130.512 67.9054 144.186 77.9014 144.186 77.9014C153.142 73.903 158.9 77.7414 158.9 77.7414C158.9 77.7414 163.938 60.5483 171.135 57.7494C172.335 57.2696 175.134 57.7494 176.333 58.1493C179.692 54.8706 200.484 55.9102 200.564 59.3488C200.564 60.7882 198.804 61.348 197.685 61.9078C197.685 61.9078 170.655 71.0241 162.659 80.5403C162.659 80.5403 163.218 81.5799 163.618 82.0597C166.897 82.0597 169.696 83.3392 172.255 85.0985C173.934 84.3788 175.773 83.5791 177.693 83.5791C178.252 84.2188 178.492 88.1373 178.492 88.1373C180.172 86.6179 184.97 86.218 185.13 86.378C185.609 87.0177 185.21 87.8974 185.05 88.6171C184.65 90.0565 184.09 91.4959 184.33 93.0953C183.37 95.0945 183.77 100.292 183.93 100.692C183.69 100.612 180.811 96.6938 182.971 89.4168C182.811 89.1768 182.651 88.857 182.411 88.777C181.931 88.777 179.452 89.0169 178.652 89.7366C178.972 91.0161 179.292 91.6559 179.852 92.5355C180.252 96.1341 180.412 99.6527 182.971 102.372V102.452C180.811 101.572 178.492 99.4128 177.773 93.4951C177.773 93.4152 176.893 91.5759 176.493 91.0161C176.013 91.0961 175.613 91.416 175.374 91.8958C174.254 94.1349 176.413 96.294 174.494 99.2528C173.854 100.132 172.975 100.612 172.095 101.092C171.935 101.492 171.935 101.972 171.855 102.372C171.615 104.051 170.176 105.33 168.976 106.53L168.336 107.49C168.176 110.288 170.576 113.727 171.055 114.287C170.416 115.166 171.135 115.646 171.375 116.286C171.375 116.446 171.295 116.606 171.135 116.686C170.735 116.766 170.655 116.686 170.416 117.086C169.696 118.845 170.975 122.683 171.135 123.323C169.696 122.364 168.896 120.764 168.336 119.325C168.176 118.925 168.256 118.445 167.777 118.285C167.537 118.285 166.897 118.685 166.897 118.685C166.977 117.645 167.457 116.446 167.457 115.326C165.857 113.567 166.657 110.848 165.937 108.769C165.378 107.569 163.858 108.289 162.819 108.049C162.899 107.01 162.579 105.89 161.459 105.41C160.899 105.09 160.18 105.011 159.54 104.931C158.98 106.37 158.82 108.209 158.98 109.809C159.06 110.528 159.22 111.248 159.06 111.888C158.42 112.607 157.781 113.327 157.621 114.207C157.461 115.406 160.34 117.965 161.859 119.725C162.019 119.965 161.939 120.284 161.859 120.524C161.859 120.604 161.699 120.684 161.699 120.764C162.019 120.844 162.419 120.764 162.739 120.684C163.378 120.524 164.338 120.045 164.898 120.764C164.738 121.084 164.418 121.644 164.738 121.884C166.257 122.923 168.496 127.881 167.937 129.401C166.817 127.641 162.419 123.723 160.58 124.283C160.26 124.763 159.62 124.763 159.14 124.603C158.66 124.363 158.18 124.123 157.621 123.803C157.061 121.084 155.542 118.845 154.102 116.526C152.823 114.687 151.463 112.767 149.544 111.408C148.744 109.409 149.624 108.289 149.544 106.61C149.464 104.371 149.784 102.052 148.904 100.132C148.744 99.8926 148.424 99.4927 148.104 99.4128C147.465 99.4128 147.145 100.132 146.985 100.612C146.425 102.292 145.306 108.129 145.306 108.129C147.385 111.728 149.784 115.806 153.462 118.205C154.022 118.365 153.942 118.925 154.022 119.405C154.582 121.724 155.861 120.604 156.661 122.763C156.181 123.083 156.021 124.683 156.101 125.242C157.461 132.28 154.182 136.118 154.182 136.118C154.262 133.159 154.822 124.603 149.944 123.083C149.944 123.083 146.185 115.486 142.507 112.288C141.867 112.847 141.547 113.087 141.547 114.447C141.547 114.447 144.186 120.764 143.786 122.444C143.786 122.444 143.306 123.003 142.987 123.483C142.027 124.843 142.747 126.762 142.267 128.361C141.227 128.201 140.587 128.921 139.868 130.041C139.068 131.24 137.629 131.8 136.349 132.12C136.029 132.12 135.629 132.2 135.39 132.04C136.989 129.801 138.828 127.801 139.148 125.003C139.148 124.203 138.268 123.723 138.268 122.923C138.108 121.884 138.268 120.924 138.588 119.965C138.508 115.406 133.31 108.929 133.31 108.929C133.31 108.929 130.991 111.968 130.671 113.327C129.712 116.686 130.112 121.324 130.272 121.964C130.831 126.522 137.229 126.362 137.149 126.362C137.149 126.362 134.03 128.521 128.112 125.562L123.634 123.003C122.915 122.603 122.355 121.804 121.475 121.804C120.116 120.684 120.276 118.925 119.316 117.565C119.076 117.246 118.676 117.246 118.276 117.166C116.757 114.847 116.197 112.208 115.398 109.569C114.918 109.169 114.358 109.169 113.798 108.929C112.519 105.49 113.478 101.492 114.198 98.1333C114.118 97.6535 113.638 97.3336 113.238 97.0937C113.878 93.9749 115.797 91.336 117.397 88.6171C117.717 87.6575 116.917 87.3376 116.917 87.2576C118.996 83.6591 123.394 82.4595 123.394 82.4595C109.8 83.9789 102.923 87.1777 91.807 91.8958C90.9274 92.2956 89.6479 92.2956 89.328 91.0161C86.5291 78.701 100.603 68.9449 104.922 68.9449Z" fill="black"/>
<path d="M162.019 100.692C163.299 100.852 164.738 99.1728 163.938 99.0929C159.86 98.773 162.739 89.8965 157.941 89.2568C156.901 89.1768 150.904 99.6526 162.019 100.692Z" fill="#6A666E"/>
<mask id="mask0_15016_302270" style="mask-type:luminance" maskUnits="userSpaceOnUse" x="155" y="89" width="10" height="12">
<path fill-rule="evenodd" clip-rule="evenodd" d="M162.019 100.691C163.298 100.851 164.738 99.1719 163.938 99.0919C159.86 98.7721 162.738 89.8956 157.94 89.2559C156.821 89.2559 150.983 99.7317 162.019 100.691Z" fill="white"/>
</mask>
<g mask="url(#mask0_15016_302270)">
<path d="M159.86 88.8574C159.86 88.8574 160.1 90.0569 160.34 90.3768C157.621 91.5763 157.301 94.6951 157.221 95.9746C157.221 96.0545 155.222 92.7759 159.86 88.8574Z" fill="#DCE0E2"/>
</g>
<path d="M105.08 69.9846C126.511 69.3448 146.823 81.34 152.341 86.2981V86.378C151.941 86.378 151.621 86.6979 151.142 86.538C123.073 73.983 93.0049 90.5364 93.0049 90.5364C92.2052 90.6963 91.2456 91.7359 90.5259 90.6963C87.8069 80.7003 100.202 70.1445 105.08 69.9846Z" fill="#DCE0E2"/>
<path d="M108.998 66.8656C114.036 64.5465 119.794 65.986 124.432 67.9852C124.432 67.9852 140.186 74.1427 152.021 84.9384C144.104 78.7009 134.988 74.9424 125.712 71.9836C119.554 70.1443 113.077 69.1047 106.439 68.9448C106.759 67.9852 108.199 67.3454 108.998 66.8656Z" fill="#A3A5AE"/>
<mask id="mask1_15016_302270" style="mask-type:luminance" maskUnits="userSpaceOnUse" x="106" y="65" width="47" height="20">
<path fill-rule="evenodd" clip-rule="evenodd" d="M109 66.863C108.201 67.2628 106.761 67.9026 106.441 68.8622C113.159 69.0221 119.556 70.0617 125.714 71.901C135.07 74.8598 144.106 78.6183 152.023 84.8558C140.108 74.0601 124.434 67.9026 124.434 67.9026C121.475 66.6231 118.117 65.5835 114.758 65.5835C112.839 65.6635 110.84 65.9833 109 66.863Z" fill="white"/>
</mask>
<g mask="url(#mask1_15016_302270)">
<path d="M113.317 66.2238L122.434 68.9427C124.993 69.8223 120.434 68.8627 120.434 68.8627C108.839 65.3441 109.399 67.8231 109.399 67.8231C111.478 67.5832 111.878 67.9031 113.717 68.3029C118.675 69.3425 124.273 70.1422 129.071 71.9015C132.75 73.261 134.109 74.9403 137.708 76.7796C139.867 77.8191 154.021 86.2158 154.021 86.2158C153.461 85.656 144.105 76.7796 128.751 70.622C119.715 66.9435 119.635 67.0235 119.475 67.2634C118.355 68.3829 116.836 66.1438 113.317 66.2238Z" fill="#DCE0E2"/>
</g>
<path d="M114.118 102.372C117.556 107.57 129.871 109.649 131.311 109.489C131.231 110.369 129.711 112.688 129.232 112.768C122.914 113.248 114.837 109.249 114.278 108.05C113.958 106.53 113.718 104.051 114.118 102.372Z" fill="#E7B721"/>
<mask id="mask2_15016_302270" style="mask-type:luminance" maskUnits="userSpaceOnUse" x="113" y="102" width="19" height="11">
<path fill-rule="evenodd" clip-rule="evenodd" d="M114.278 108.128C114.837 109.248 122.994 113.326 129.232 112.847C129.711 112.847 131.231 110.447 131.311 109.568C129.871 109.728 117.556 107.569 114.118 102.451C113.718 104.05 113.958 106.529 114.278 108.128Z" fill="white"/>
</mask>
<g mask="url(#mask2_15016_302270)">
<path d="M140.267 93.5731C139.947 93.4131 140.027 92.4535 139.707 92.3735C139.067 93.8929 138.347 96.292 136.828 96.8517C135.469 97.4115 131.79 93.733 130.91 95.0125C130.111 96.212 132.91 99.9705 131.55 100.45C130.111 101.01 126.752 100.05 126.752 101.65C126.752 102.849 128.911 104.289 128.911 105.488C128.911 107.168 125.473 106.128 123.953 106.768C124.353 107.487 127.152 110.206 127.152 111.086C127.152 112.126 124.433 112.446 124.433 113.405C124.433 115.004 127.552 114.765 127.552 116.444C127.552 117.324 126.272 117.404 126.272 118.283C126.272 119.323 127.472 119.403 128.111 120.202L126.832 121.562C127.472 123.081 128.511 122.122 129.471 124.681C129.631 124.281 130.431 123.961 130.431 123.481C130.431 122.042 129.551 121.322 129.551 119.803C129.551 115.004 130.271 111.886 133.309 108.047C134.509 106.528 134.429 105.008 136.028 103.889C137.628 102.689 138.507 101.97 139.707 100.37C140.826 98.9309 142.826 98.611 142.826 96.6918C142.826 95.0924 141.706 94.3727 140.267 93.5731Z" fill="#D4AC2A"/>
</g>
<mask id="mask3_15016_302270" style="mask-type:luminance" maskUnits="userSpaceOnUse" x="113" y="102" width="19" height="11">
<path fill-rule="evenodd" clip-rule="evenodd" d="M114.278 108.128C114.837 109.248 122.994 113.326 129.232 112.847C129.711 112.847 131.231 110.447 131.311 109.568C129.871 109.728 117.556 107.569 114.118 102.451C113.718 104.05 113.958 106.529 114.278 108.128Z" fill="white"/>
</mask>
<g mask="url(#mask3_15016_302270)">
<path d="M139.708 91.6524C136.669 93.8915 133.95 93.0119 130.512 94.6113C128.672 95.4909 129.392 97.8899 127.713 99.0895C127.153 99.4893 126.513 99.3294 125.874 99.7292C124.194 100.689 125.074 102.688 124.034 104.367C123.315 105.567 122.195 106.207 122.195 107.646C122.195 108.526 122.755 108.926 122.755 109.805C122.755 111.005 121.395 111.485 121.395 112.684C121.395 114.203 123.714 114.283 123.714 115.803C123.714 116.203 123.475 116.443 123.475 116.842C123.475 118.202 125.074 118.362 125.794 119.481C126.833 121.081 126.913 122.36 128.033 123.88C127.713 123.88 127.553 123.96 127.313 123.96C126.353 123.96 126.353 122.76 125.794 122.04C124.514 120.281 123.475 119.481 122.515 117.562C122.035 116.682 122.435 115.883 121.955 115.003C121.235 113.564 119.156 111.005 119.156 109.325C119.156 107.806 121.075 108.926 121.075 107.406C121.075 106.686 120.996 106.367 120.996 105.647C120.996 104.287 122.275 103.888 122.675 102.608C123.155 101.329 122.995 100.529 122.995 99.1694C122.995 97.73 124.514 97.4901 124.994 96.2106C125.474 95.0911 125.314 94.2114 125.954 93.0919C126.593 92.0523 127.793 92.2922 128.912 91.8124C130.272 91.2526 130.592 90.0531 131.951 89.4933C134.03 88.5337 135.47 88.5337 137.709 88.5337C139.148 88.5337 139.628 90.373 139.708 91.6524Z" fill="#FFCB05"/>
</g>
<path d="M116.517 92.2168C116.517 92.2168 117.236 98.4543 131.311 104.452C131.311 104.852 130.991 105.172 131.231 105.491C131.71 106.131 131.95 106.851 132.43 107.491C132.43 107.651 132.27 107.891 132.19 108.05C131.151 108.45 117.076 105.651 114.357 97.0948C114.597 95.6554 116.357 92.3767 116.517 92.2168Z" fill="#E7B721"/>
<mask id="mask4_15016_302270" style="mask-type:luminance" maskUnits="userSpaceOnUse" x="114" y="92" width="19" height="17">
<path fill-rule="evenodd" clip-rule="evenodd" d="M114.436 97.0924C117.154 105.649 131.229 108.448 132.268 108.048C132.348 107.888 132.508 107.648 132.508 107.488C132.029 106.848 131.789 106.129 131.309 105.489C131.069 105.089 131.389 104.769 131.389 104.449C117.314 98.4519 116.515 92.2144 116.515 92.2144C116.355 92.3743 114.595 95.653 114.436 97.0924Z" fill="white"/>
</mask>
<g mask="url(#mask4_15016_302270)">
<path d="M140.267 93.7347C139.947 93.5747 140.027 92.6151 139.707 92.5352C139.067 94.0545 138.347 96.4536 136.828 97.0134C135.469 97.5731 131.79 93.8946 130.91 95.1741C130.111 96.3736 132.91 100.132 131.55 100.612C130.111 101.172 126.752 100.212 126.752 101.811C126.752 103.011 128.911 104.45 128.911 105.65C128.911 107.329 125.473 106.29 123.953 106.929C124.353 107.649 127.152 110.368 127.152 111.248C127.152 112.287 124.513 112.607 124.513 113.567C124.513 115.166 127.632 114.926 127.632 116.606C127.632 117.485 126.352 117.565 126.352 118.445C126.352 119.484 127.552 119.564 128.191 120.364L126.912 121.723C127.552 123.243 128.591 122.283 129.551 124.842C129.711 124.442 130.51 124.123 130.51 123.643C130.51 122.203 129.631 121.484 129.631 119.964C129.631 115.166 130.351 112.047 133.389 108.209C134.589 106.689 134.509 105.17 136.108 104.051C137.708 102.851 138.587 102.131 139.787 100.532C140.906 99.0925 142.906 98.7727 142.906 96.8534C142.826 95.334 141.706 94.6143 140.267 93.7347Z" fill="#D4AC2A"/>
</g>
<mask id="mask5_15016_302270" style="mask-type:luminance" maskUnits="userSpaceOnUse" x="114" y="92" width="19" height="17">
<path fill-rule="evenodd" clip-rule="evenodd" d="M114.436 97.0924C117.154 105.649 131.229 108.448 132.268 108.048C132.348 107.888 132.508 107.648 132.508 107.488C132.029 106.848 131.789 106.129 131.309 105.489C131.069 105.089 131.389 104.769 131.389 104.449C117.314 98.4519 116.515 92.2144 116.515 92.2144C116.355 92.3743 114.595 95.653 114.436 97.0924Z" fill="white"/>
</mask>
<g mask="url(#mask5_15016_302270)">
<path d="M139.707 91.8154C136.669 94.0545 133.95 93.1749 130.511 94.7742C128.672 95.6539 129.392 98.0529 127.712 99.2524C127.152 99.6523 126.513 99.4924 125.873 99.8922C124.194 100.852 125.633 102.371 124.593 104.051C123.874 105.25 122.274 106.29 122.274 107.729C122.274 108.609 122.834 109.009 122.834 109.888C122.834 111.088 121.475 111.568 121.475 112.767C121.475 114.286 123.794 114.366 123.794 115.886C123.794 116.286 123.554 116.526 123.554 116.925C123.554 118.285 125.153 118.445 125.873 119.564C126.913 121.164 126.992 122.443 128.112 123.963C127.792 123.963 127.632 124.043 127.392 124.043C126.433 124.043 126.433 122.843 125.873 122.123C124.593 120.364 123.554 119.564 122.594 117.645C122.114 116.765 122.514 115.966 122.034 115.086C121.315 113.647 120.115 112.927 120.115 111.248C120.115 109.728 121.155 109.009 121.155 107.489C121.155 106.769 121.075 106.45 121.075 105.73C121.075 104.37 120.755 103.251 121.155 101.971C121.635 100.692 123.074 100.612 123.074 99.3324C123.074 97.893 124.593 97.6531 125.073 96.2936C125.553 95.1741 125.393 94.2944 126.033 93.1749C126.673 92.1353 127.872 92.3752 128.992 91.8954C130.351 91.3356 130.671 90.1361 132.03 89.5763C134.11 88.6167 135.549 88.6167 137.788 88.6167C139.148 88.7766 139.627 90.6159 139.707 91.8154Z" fill="#FFCB05"/>
</g>
<path d="M116.916 112.368C122.354 115.087 129.391 114.527 129.391 114.527C129.311 115.327 129.471 116.367 129.151 117.086C122.834 118.846 118.675 116.686 118.675 116.686C117.956 115.487 117.316 113.648 116.916 112.368Z" fill="#E7B721"/>
<mask id="mask6_15016_302270" style="mask-type:luminance" maskUnits="userSpaceOnUse" x="116" y="112" width="14" height="6">
<path fill-rule="evenodd" clip-rule="evenodd" d="M118.675 116.69C118.675 116.69 122.834 118.849 129.151 117.09C129.391 116.37 129.311 115.331 129.391 114.531C129.391 114.531 122.434 115.091 116.916 112.372C117.316 113.652 117.956 115.491 118.675 116.69Z" fill="white"/>
</mask>
<g mask="url(#mask6_15016_302270)">
<path d="M140.267 93.7381C139.947 93.5782 140.027 92.6185 139.707 92.5386C139.067 94.058 138.347 96.457 136.828 97.0168C135.469 97.5766 131.79 93.898 130.91 95.1775C130.111 96.377 132.91 100.136 131.55 100.615C130.111 101.175 126.752 100.216 126.752 101.815C126.752 103.014 128.911 104.454 128.911 105.653C128.911 107.333 125.473 106.293 123.953 106.933C124.353 107.653 127.152 110.371 127.152 111.251C127.152 112.291 124.513 112.611 124.513 113.57C124.513 115.17 127.632 114.93 127.632 116.609C127.632 117.489 126.352 117.569 126.352 118.448C126.352 119.488 127.552 119.568 128.191 120.367L126.912 121.727C127.552 123.246 128.591 122.287 129.551 124.846C129.711 124.446 130.51 124.126 130.51 123.646C130.51 122.207 129.631 121.487 129.631 119.968C129.631 115.17 130.351 112.051 133.389 108.212C134.589 106.693 134.509 105.174 136.108 104.054C137.708 102.854 138.587 102.135 139.787 100.535C140.906 99.096 142.906 98.7761 142.906 96.8568C142.826 95.3375 141.706 94.6177 140.267 93.7381Z" fill="#D4AC2A"/>
</g>
<mask id="mask7_15016_302270" style="mask-type:luminance" maskUnits="userSpaceOnUse" x="116" y="112" width="14" height="6">
<path fill-rule="evenodd" clip-rule="evenodd" d="M118.675 116.69C118.675 116.69 122.834 118.849 129.151 117.09C129.391 116.37 129.311 115.331 129.391 114.531C129.391 114.531 122.434 115.091 116.916 112.372C117.316 113.652 117.956 115.491 118.675 116.69Z" fill="white"/>
</mask>
<g mask="url(#mask7_15016_302270)">
<path d="M139.707 91.8188C136.669 94.0579 133.95 93.1783 130.511 94.7777C128.672 95.6573 129.392 98.0563 127.712 99.2559C127.152 99.6557 126.513 99.4958 125.873 99.8956C124.194 100.855 125.073 102.854 124.034 104.534C123.314 105.733 122.194 106.373 122.194 107.812C122.194 108.692 122.754 109.092 122.754 109.972C122.754 111.171 121.395 111.651 121.395 112.85C121.395 114.37 123.714 114.45 123.714 115.969C123.714 116.369 123.474 116.609 123.474 117.009C123.474 118.368 125.073 118.528 125.793 119.648C126.833 121.247 126.913 122.527 128.032 124.046C127.712 124.046 127.552 124.126 127.312 124.126C126.353 124.126 126.353 122.926 125.793 122.207C124.513 120.447 123.474 119.648 122.514 117.728C122.034 116.849 121.555 117.249 121.155 116.369C120.435 114.93 120.115 113.01 120.115 111.331C120.115 109.812 121.155 109.092 121.155 107.573C121.155 106.853 121.075 106.533 121.075 105.813C121.075 104.454 122.354 104.054 122.754 102.774C123.234 101.495 123.074 100.695 123.074 99.3358C123.074 97.8964 124.593 97.6565 125.073 96.297C125.553 95.1775 125.393 94.2978 126.033 93.1783C126.673 92.1387 127.872 92.3786 128.992 91.8988C130.351 91.339 130.671 90.1395 132.03 89.5797C134.11 88.6201 135.549 88.6201 137.788 88.6201C139.148 88.7801 139.627 90.6193 139.707 91.8188Z" fill="#FFCB05"/>
</g>
<path d="M120.914 85.1797C122.273 84.7798 123.633 84.6999 125.152 84.7798C124.752 90.5375 132.029 98.9342 135.468 100.534C135.468 100.534 133.389 102.293 132.269 102.773C131.15 103.332 119.874 96.6951 117.955 87.9785C118.675 86.779 119.714 85.8194 120.914 85.1797Z" fill="#E7B721"/>
<mask id="mask8_15016_302270" style="mask-type:luminance" maskUnits="userSpaceOnUse" x="118" y="84" width="18" height="19">
<path fill-rule="evenodd" clip-rule="evenodd" d="M120.916 85.1777C119.716 85.8174 118.597 86.777 118.037 87.9766C119.956 96.6931 131.232 103.25 132.351 102.771C133.471 102.291 135.55 100.532 135.55 100.532C132.111 99.0121 124.754 90.5355 125.234 84.7778H124.275C123.075 84.7778 122.036 84.8578 120.916 85.1777Z" fill="white"/>
</mask>
<g mask="url(#mask8_15016_302270)">
<path d="M140.267 93.7352C139.947 93.5752 140.027 92.6156 139.707 92.5356C139.067 94.055 138.347 96.4541 136.828 97.0139C135.469 97.5736 131.79 93.8951 130.91 95.1746C130.111 96.3741 132.91 100.133 131.55 100.612C130.111 101.172 126.752 100.213 126.752 101.812C126.752 103.011 128.911 104.451 128.911 105.65C128.911 107.33 125.473 106.29 123.953 106.93C124.353 107.65 127.152 110.369 127.152 111.248C127.152 112.288 124.513 112.608 124.513 113.567C124.513 115.167 127.632 114.927 127.632 116.606C127.632 117.486 126.352 117.566 126.352 118.445C126.352 119.485 127.552 119.565 128.191 120.365L126.912 121.724C127.552 123.243 128.591 122.284 129.551 124.843C129.711 124.443 130.51 124.123 130.51 123.643C130.51 122.204 129.631 121.484 129.631 119.965C129.631 115.167 130.351 112.048 133.389 108.209C134.589 106.69 134.509 105.171 136.108 104.051C137.708 102.852 138.587 102.132 139.787 100.532C140.906 99.093 142.906 98.7732 142.906 96.8539C142.826 95.3345 141.706 94.6148 140.267 93.7352Z" fill="#D4AC2A"/>
</g>
<mask id="mask9_15016_302270" style="mask-type:luminance" maskUnits="userSpaceOnUse" x="118" y="84" width="18" height="19">
<path fill-rule="evenodd" clip-rule="evenodd" d="M120.916 85.1777C119.716 85.8174 118.597 86.777 118.037 87.9766C119.956 96.6931 131.232 103.25 132.351 102.771C133.471 102.291 135.55 100.532 135.55 100.532C132.111 99.0121 124.754 90.5355 125.234 84.7778H124.275C123.075 84.7778 122.036 84.8578 120.916 85.1777Z" fill="white"/>
</mask>
<g mask="url(#mask9_15016_302270)">
<path d="M139.709 91.8159C136.67 94.055 133.952 93.1754 130.513 94.7747C128.674 95.6544 129.393 98.0534 127.714 99.2529C127.154 99.6528 126.515 99.4928 125.875 99.8927C124.195 100.852 125.075 102.851 124.036 104.531C123.316 105.73 122.196 106.37 122.196 107.81C122.196 108.689 122.756 109.089 122.756 109.969C122.756 111.168 121.397 111.648 121.397 112.847C121.397 114.367 123.716 114.447 123.716 115.966C123.716 116.366 123.476 116.606 123.476 117.006C123.476 118.365 125.075 118.525 125.795 119.645C126.834 121.244 126.914 122.524 128.034 124.043C127.714 124.043 127.554 124.123 127.314 124.123C126.355 124.123 126.355 122.923 125.795 122.204C124.515 120.444 123.476 119.645 122.516 117.726C122.036 116.846 122.436 116.046 121.956 115.167C121.237 113.727 120.037 113.007 120.037 111.328C120.037 109.809 121.077 109.089 121.077 107.57C121.077 106.85 120.997 106.53 120.997 105.81C120.997 104.451 122.276 104.051 122.676 102.772C123.156 101.492 122.996 100.692 122.996 99.3329C122.996 97.8935 123.316 97.3337 123.876 95.9742C124.355 94.8547 124.036 93.8151 124.755 92.7755C125.395 91.7359 127.874 92.3757 129.073 91.8959C130.433 91.3361 130.753 90.1366 132.112 89.5768C134.191 88.6172 135.631 88.6172 137.87 88.6172C139.149 88.7771 139.629 90.6164 139.709 91.8159Z" fill="#FFCB05"/>
</g>
<path d="M120.434 119.005C124.992 119.965 128.99 118.365 128.99 118.365C129.15 118.445 129.15 119.645 128.99 119.885C127.631 121.244 123.312 121.884 121.873 121.324C121.233 120.924 120.594 119.805 120.434 119.005Z" fill="#E7B721"/>
<mask id="mask10_15016_302270" style="mask-type:luminance" maskUnits="userSpaceOnUse" x="120" y="118" width="10" height="4">
<path fill-rule="evenodd" clip-rule="evenodd" d="M120.434 119.007C120.594 119.807 121.313 121.006 121.873 121.406C123.312 121.886 127.631 121.326 128.99 119.967C129.15 119.647 129.23 118.447 128.99 118.447C128.99 118.367 124.912 119.967 120.434 119.007Z" fill="white"/>
</mask>
<g mask="url(#mask10_15016_302270)">
<path d="M140.265 93.7371C139.945 93.5772 140.025 92.6176 139.705 92.5376C139.065 94.057 138.345 96.456 136.826 97.0158C135.467 97.5756 131.788 93.8971 130.908 95.1765C130.109 96.3761 132.908 100.135 131.548 100.614C130.109 101.174 126.75 100.215 126.75 101.814C126.75 103.013 128.909 104.453 128.909 105.652C128.909 107.332 125.471 106.292 123.951 106.932C124.351 107.652 127.15 110.37 127.15 111.25C127.15 112.29 124.511 112.61 124.511 113.569C124.511 115.169 127.63 114.929 127.63 116.608C127.63 117.488 126.35 117.568 126.35 118.447C126.35 119.487 127.55 119.567 128.189 120.366L126.91 121.726C127.55 123.245 128.589 122.286 129.549 124.845C129.709 124.445 130.509 124.125 130.509 123.645C130.509 122.206 129.629 121.486 129.629 119.967C129.629 115.169 130.349 112.05 133.387 108.211C134.587 106.692 134.507 105.173 136.106 104.053C137.706 102.853 138.585 102.134 139.785 100.534C140.904 99.095 142.904 98.7751 142.904 96.8559C142.824 95.3365 141.704 94.6168 140.265 93.7371Z" fill="#D4AC2A"/>
</g>
<mask id="mask11_15016_302270" style="mask-type:luminance" maskUnits="userSpaceOnUse" x="120" y="118" width="10" height="4">
<path fill-rule="evenodd" clip-rule="evenodd" d="M120.434 119.007C120.594 119.807 121.313 121.006 121.873 121.406C123.312 121.886 127.631 121.326 128.99 119.967C129.15 119.647 129.23 118.447 128.99 118.447C128.99 118.367 124.912 119.967 120.434 119.007Z" fill="white"/>
</mask>
<g mask="url(#mask11_15016_302270)">
<path d="M139.705 91.8159C136.667 94.055 133.948 93.1754 130.509 94.7747C128.67 95.6544 129.389 98.0534 127.71 99.2529C127.15 99.6528 126.511 99.4928 125.871 99.8927C124.192 100.852 125.071 102.851 124.032 104.531C123.312 105.73 122.192 106.37 122.192 107.81C122.192 108.689 122.752 109.089 122.752 109.969C122.752 111.168 121.393 111.648 121.393 112.847C121.393 114.367 123.712 114.447 123.712 115.966C123.712 116.366 123.472 116.606 123.472 117.006C123.472 118.365 125.071 118.525 125.791 119.645C126.83 121.244 126.91 122.524 128.03 124.043C127.71 124.043 127.55 124.123 127.31 124.123C126.351 124.123 125.071 122.204 124.511 121.484C123.232 119.725 123.472 119.645 122.512 117.726C122.032 116.846 122.432 116.046 121.952 115.167C121.233 113.727 120.033 113.007 120.033 111.328C120.033 109.809 121.073 109.089 121.073 107.57C121.073 106.85 120.993 106.53 120.993 105.81C120.993 104.451 122.272 104.051 122.672 102.772C123.152 101.492 122.992 100.692 122.992 99.3329C122.992 97.8935 124.511 97.6536 124.991 96.2941C125.471 95.1746 125.311 94.2949 125.951 93.1754C126.591 92.1358 127.79 92.3757 128.91 91.8959C130.269 91.3361 130.589 90.1366 131.948 89.5768C134.028 88.6172 135.467 88.6172 137.706 88.6172C139.146 88.7771 139.625 90.6164 139.705 91.8159Z" fill="#FFCB05"/>
</g>
<path d="M128.992 121.325C129.232 121.325 129.392 121.725 129.392 121.965C129.472 122.205 129.552 122.525 129.392 122.845C128.592 123.644 127.392 124.364 126.193 124.284C125.633 123.964 124.993 123.484 124.434 123.084C126.113 122.845 127.952 122.445 128.992 121.325Z" fill="#E7B721"/>
<mask id="mask12_15016_302270" style="mask-type:luminance" maskUnits="userSpaceOnUse" x="124" y="121" width="6" height="4">
<path fill-rule="evenodd" clip-rule="evenodd" d="M128.992 121.322C127.952 122.521 126.033 122.921 124.514 122.921C124.993 123.321 125.713 123.801 126.273 124.121C127.472 124.281 128.672 123.481 129.472 122.681C129.632 122.441 129.472 122.121 129.472 121.882C129.392 121.642 129.312 121.322 128.992 121.322Z" fill="white"/>
</mask>
<g mask="url(#mask12_15016_302270)">
<path d="M140.267 93.7342C139.947 93.5743 140.027 92.6146 139.707 92.5347C139.067 94.0541 138.347 96.4531 136.828 97.0129C135.469 97.5727 131.79 93.8941 130.91 95.1736C130.111 96.3731 132.91 100.132 131.55 100.611C130.111 101.171 126.752 100.212 126.752 101.811C126.752 103.01 128.911 104.45 128.911 105.649C128.911 107.329 125.473 106.289 123.953 106.929C124.353 107.649 127.152 110.368 127.152 111.247C127.152 112.287 124.513 112.607 124.513 113.566C124.513 115.166 127.632 114.926 127.632 116.605C127.632 117.485 126.352 117.565 126.352 118.444C126.352 119.484 127.552 119.564 128.191 120.364L126.912 121.723C127.552 123.242 128.591 122.283 129.551 124.842C129.711 124.442 130.51 124.122 130.51 123.642C130.51 122.203 129.631 121.483 129.631 119.964C129.631 115.166 130.351 112.047 133.389 108.208C134.589 106.689 134.509 105.17 136.108 104.05C137.708 102.851 138.587 102.131 139.787 100.531C140.906 99.092 142.906 98.7722 142.906 96.8529C142.826 95.3335 141.706 94.6138 140.267 93.7342Z" fill="#E7B721"/>
</g>
<mask id="mask13_15016_302270" style="mask-type:luminance" maskUnits="userSpaceOnUse" x="124" y="121" width="6" height="4">
<path fill-rule="evenodd" clip-rule="evenodd" d="M128.992 121.322C127.952 122.521 126.033 122.921 124.514 122.921C124.993 123.321 125.713 123.801 126.273 124.121C127.472 124.281 128.672 123.481 129.472 122.681C129.632 122.441 129.472 122.121 129.472 121.882C129.392 121.642 129.312 121.322 128.992 121.322Z" fill="white"/>
</mask>
<g mask="url(#mask13_15016_302270)">
<path d="M139.707 91.8149C136.669 94.054 133.95 93.1744 130.511 94.7737C128.672 95.6534 129.391 98.0524 127.712 99.252C127.152 99.6518 126.513 99.4919 125.873 99.8917C124.193 100.851 125.073 102.851 124.034 104.53C123.314 105.729 122.194 106.369 122.194 107.809C122.194 108.688 122.754 109.088 122.754 109.968C122.754 111.167 121.395 111.647 121.395 112.847C121.395 114.366 123.714 114.446 123.714 115.965C123.714 116.365 123.474 116.605 123.474 117.005C123.474 118.364 125.073 118.524 125.793 119.644C126.832 121.243 126.912 122.523 128.032 124.042C127.712 124.042 127.552 124.122 127.312 124.122C126.353 124.122 126.353 122.922 125.793 122.203C124.513 120.443 123.474 119.644 122.514 117.725C122.034 116.845 122.434 116.045 121.954 115.166C121.235 113.726 120.035 113.006 120.035 111.327C120.035 109.808 121.075 109.088 121.075 107.569C121.075 106.849 120.995 106.529 120.995 105.809C120.995 104.45 122.274 104.05 122.674 102.771C123.154 101.491 122.994 100.691 122.994 99.3319C122.994 97.8925 124.513 97.6526 124.993 96.2931C125.473 95.1736 125.313 94.2939 125.953 93.1744C126.593 92.1348 127.792 92.3747 128.912 91.8949C130.271 91.3351 130.591 90.1356 131.95 89.5758C134.03 88.6162 135.469 88.6162 137.708 88.6162C139.148 88.7761 139.627 90.6154 139.707 91.8149Z" fill="#FFCB05"/>
</g>
<path d="M136.987 84.7808C136.668 90.5385 140.746 95.2566 141.306 95.5765C141.306 96.0563 138.107 98.6952 136.668 99.6548C135.628 99.7348 135.388 98.5353 134.668 97.8955C131.39 94.137 129.63 89.6588 129.39 84.7008C129.231 84.5409 134.189 84.5409 136.987 84.7808Z" fill="#E7B721"/>
<mask id="mask14_15016_302270" style="mask-type:luminance" maskUnits="userSpaceOnUse" x="129" y="84" width="13" height="16">
<path fill-rule="evenodd" clip-rule="evenodd" d="M129.311 84.7001C129.551 89.7381 131.311 94.1363 134.589 97.8948C135.389 98.5346 135.549 99.6541 136.588 99.6541C138.028 98.7745 141.147 96.1355 141.227 95.5757C140.747 95.1759 136.668 90.4578 136.908 84.7801C135.309 84.6201 133.07 84.6201 131.47 84.6201C130.191 84.6201 129.231 84.6201 129.311 84.7001Z" fill="white"/>
</mask>
<g mask="url(#mask14_15016_302270)">
<path d="M140.267 93.7361C139.947 93.5762 140.027 92.6166 139.707 92.5366C139.067 94.056 138.347 96.4551 136.828 97.0148C135.469 97.5746 131.79 93.8961 130.91 95.1756C130.111 96.3751 132.91 100.134 131.55 100.613C130.111 101.173 126.752 100.214 126.752 101.813C126.752 103.012 128.911 104.452 128.911 105.651C128.911 107.331 125.473 106.291 123.953 106.931C124.353 107.651 127.152 110.369 127.152 111.249C127.152 112.289 124.513 112.609 124.513 113.568C124.513 115.168 127.632 114.928 127.632 116.607C127.632 117.487 126.352 117.567 126.352 118.446C126.352 119.486 127.552 119.566 128.191 120.365L126.912 121.725C127.552 123.244 128.591 122.285 129.551 124.844C129.711 124.444 130.51 124.124 130.51 123.644C130.51 122.205 129.631 121.485 129.631 119.966C129.631 115.168 130.351 112.049 133.389 108.21C134.589 106.691 134.509 105.172 136.108 104.052C137.708 102.852 138.587 102.133 139.787 100.533C140.906 99.094 142.906 98.7741 142.906 96.8549C142.826 95.3355 141.706 94.6158 140.267 93.7361Z" fill="#D4AC2A"/>
</g>
<mask id="mask15_15016_302270" style="mask-type:luminance" maskUnits="userSpaceOnUse" x="129" y="84" width="13" height="16">
<path fill-rule="evenodd" clip-rule="evenodd" d="M129.311 84.7001C129.551 89.7381 131.311 94.1363 134.589 97.8948C135.389 98.5346 135.549 99.6541 136.588 99.6541C138.028 98.7745 141.147 96.1355 141.227 95.5757C140.747 95.1759 136.668 90.4578 136.908 84.7801C135.309 84.6201 133.07 84.6201 131.47 84.6201C130.191 84.6201 129.231 84.6201 129.311 84.7001Z" fill="white"/>
</mask>
<g mask="url(#mask15_15016_302270)">
<path d="M138.908 90.3763C136.029 95.4143 133.95 93.2552 130.591 94.8545C128.752 95.7342 129.471 98.1332 127.792 99.3327C127.232 99.7326 126.593 99.5727 125.953 99.9725C124.274 100.932 125.153 102.931 124.114 104.611C123.394 105.81 122.274 106.45 122.274 107.889C122.274 108.769 122.834 109.169 122.834 110.048C122.834 111.248 121.475 111.728 121.475 112.927C121.475 114.447 123.794 114.527 123.794 116.046C123.794 116.446 123.554 116.686 123.554 117.086C123.554 118.445 125.153 118.605 125.873 119.725C126.913 121.324 126.992 122.603 128.112 124.123C127.792 124.123 127.632 124.203 127.392 124.203C126.433 124.203 126.433 123.003 125.873 122.284C124.593 120.524 123.554 119.725 122.594 117.805C122.114 116.926 122.514 116.126 122.034 115.246C121.315 113.807 120.115 113.087 120.115 111.408C120.115 109.889 121.155 109.169 121.155 107.649C121.155 106.93 121.075 106.61 121.075 105.89C121.075 104.531 122.354 104.131 122.754 102.851C123.234 101.572 123.074 100.772 123.074 99.4127C123.074 97.9733 124.593 97.7334 125.073 96.4539C125.553 95.3343 125.393 94.4547 126.033 93.3351C126.673 92.2956 127.872 92.5355 128.992 92.0557C130.351 91.4959 131.471 87.8174 132.75 87.2576C134.829 86.298 136.189 87.6574 137.788 86.0581C138.828 85.1784 138.828 89.0968 138.908 90.3763Z" fill="#FFCB05"/>
</g>
<path d="M136.908 105.971C139.547 104.211 140.187 101.173 142.106 98.9336H142.186L142.586 99.7333C143.226 100.453 140.027 105.891 139.387 107.33C139.307 107.73 140.027 109.249 139.147 109.809C138.348 108.61 137.628 107.25 136.908 106.051V105.971Z" fill="white"/>
<path d="M140.827 85.0192C141.387 84.8593 148.984 86.2987 152.102 87.1784C152.662 87.0984 153.382 87.2583 153.782 86.6986C153.702 86.3787 153.462 86.0588 153.542 85.659C150.903 83.18 148.024 80.7809 145.145 78.7018C145.305 78.3819 145.705 78.3019 146.025 78.142C149.863 76.7825 154.981 76.5426 158.58 78.6218C160.979 79.9812 161.859 82.1404 161.859 82.1404C153.222 84.5394 154.661 90.8569 155.061 92.2163C155.061 92.2163 153.542 96.3747 155.941 98.9337C155.941 99.3335 154.741 100.933 153.302 99.6534C152.902 98.6938 152.422 97.0144 149.783 98.3739C149.224 98.6938 148.664 97.8141 148.104 97.5742C148.264 97.0144 148.104 95.3351 145.945 95.4151C145.865 93.4159 142.986 94.5354 142.986 94.5354C140.267 90.8569 140.827 85.0192 140.827 85.0192Z" fill="#E7B721"/>
<mask id="mask16_15016_302270" style="mask-type:luminance" maskUnits="userSpaceOnUse" x="140" y="77" width="22" height="24">
<path fill-rule="evenodd" clip-rule="evenodd" d="M146.025 78.065C145.705 78.2249 145.305 78.3049 145.146 78.6248C148.104 80.7039 150.903 83.103 153.542 85.582C153.462 85.9818 153.702 86.2217 153.782 86.6216C153.462 87.1813 152.742 87.0214 152.103 87.1014C148.984 86.2217 141.307 84.7823 140.827 84.9422C140.827 84.9422 140.267 90.7799 142.826 94.4584C142.826 94.4584 145.705 93.4188 145.785 95.3381C147.944 95.1781 148.104 96.9374 147.944 97.4972C148.504 97.7371 149.064 98.6168 149.624 98.2969C152.263 96.9374 152.663 98.6967 153.142 99.5764C154.582 100.856 155.861 99.1765 155.781 98.8567C153.462 96.2977 154.902 92.1393 154.902 92.1393C154.582 90.7799 153.062 84.4624 161.699 82.0634C161.699 82.0634 160.899 79.9042 158.42 78.5448C156.581 77.5052 154.342 77.0254 152.023 77.0254C150.024 77.0254 147.864 77.4252 146.025 78.065Z" fill="white"/>
</mask>
<g mask="url(#mask16_15016_302270)">
<path d="M141.228 92.4609L141.628 92.5409L143.787 91.8212C144.587 91.9811 144.667 92.381 145.466 92.381L147.146 91.7412L148.105 91.9811C148.185 93.3406 149.065 93.9803 150.424 93.9803C152.264 93.9803 153.143 92.7008 155.063 92.6209L155.303 93.0207L155.063 93.9003L156.982 99.2582C155.942 100.298 155.223 101.177 153.783 101.177C152.184 101.177 151.544 99.8979 150.025 99.3382C148.505 98.7784 146.906 99.2582 146.026 97.8188C144.587 95.5797 140.988 95.8995 140.988 93.1806C141.148 93.0207 141.228 92.6209 141.228 92.4609Z" fill="#D4AC2A"/>
</g>
<path d="M153.621 101.094C154.9 101.014 156.18 101.334 157.14 102.054C156.9 104.773 156.42 107.332 155.14 109.571H155.06L154.421 108.291C153.861 106.132 153.381 103.813 153.541 101.334C153.541 101.254 153.541 101.174 153.621 101.094Z" fill="black"/>
<path d="M159.62 83.6617C161.139 82.9419 164.098 82.6221 165.777 83.4218C166.497 83.7416 168.816 85.0211 168.816 85.0211C168.656 84.5413 167.776 83.8216 167.456 83.5017C168.096 83.4218 170.495 84.8612 171.375 85.5009C170.335 86.3006 169.216 86.8604 168.256 87.9C167.137 88.9395 166.257 90.6988 164.658 91.2586C164.258 91.7384 164.418 92.5381 164.578 93.0179C164.977 93.4178 165.297 93.9775 165.937 93.8176C166.337 93.6577 166.177 93.1778 166.337 92.858C168.256 89.6593 172.414 87.74 172.974 87.6601C173.614 88.3798 173.774 89.4194 173.854 90.379C173.854 90.6189 173.774 90.6988 173.614 90.7788C173.054 90.6189 172.814 91.0187 172.574 91.4186C172.574 92.778 173.454 92.778 174.014 92.698C174.734 94.9371 173.294 98.2958 171.775 98.9355C171.295 99.0155 170.815 98.7756 170.575 98.3758C170.415 97.3362 171.215 96.3766 171.215 96.3766C170.335 97.0163 166.577 99.9751 163.538 97.9759C162.179 96.4565 162.019 93.9775 161.379 91.8984C160.899 90.0591 160.579 88.0599 159.06 86.7804C158.74 86.5405 158.42 86.3806 158.02 86.5405C157.54 86.7004 157.38 87.1802 157.141 87.5001C157.141 87.5001 155.861 90.219 155.701 90.1391C155.381 89.6593 155.541 88.8596 155.621 88.2998C155.861 86.3006 157.78 84.6213 159.62 83.6617Z" fill="#E7B721"/>
<mask id="mask17_15016_302270" style="mask-type:luminance" maskUnits="userSpaceOnUse" x="155" y="83" width="20" height="17">
<path fill-rule="evenodd" clip-rule="evenodd" d="M159.619 83.6628C157.7 84.5425 155.861 86.3018 155.541 88.3809C155.461 88.9407 155.381 89.6604 155.621 90.2202C155.861 90.3002 157.06 87.5813 157.06 87.5813C157.3 87.1814 157.46 86.7016 157.94 86.6216C158.34 86.4617 158.74 86.6216 158.98 86.8615C160.579 88.141 160.899 90.1402 161.299 91.9795C161.858 93.9787 162.018 96.4577 163.458 98.0571C166.497 100.056 170.255 97.0975 171.135 96.4577C171.135 96.4577 170.255 97.4973 170.495 98.4569C170.735 98.8567 171.215 99.0966 171.694 99.0167C173.214 98.3769 174.653 95.0183 173.934 92.7792C173.374 92.8591 172.494 92.8591 172.494 91.4997C172.734 91.0998 172.974 90.62 173.534 90.8599C173.694 90.78 173.854 90.7 173.774 90.4601C173.694 89.5005 173.534 88.3809 172.894 87.7412C172.334 87.8212 168.176 89.7404 166.257 92.9391C166.097 93.259 166.177 93.6588 165.857 93.8987C165.217 94.0587 164.897 93.4989 164.497 93.099C164.337 92.5393 164.097 91.8196 164.577 91.3398C166.097 90.78 166.976 89.0207 168.176 87.9811C169.135 86.9415 170.255 86.3817 171.295 85.5821C170.335 84.9423 167.936 83.5029 167.376 83.5829C167.776 83.9027 168.576 84.6224 168.736 85.1022C168.736 85.1022 166.337 83.9027 165.697 83.5029C164.977 83.183 164.097 83.0231 163.138 83.0231C161.938 82.9431 160.499 83.263 159.619 83.6628Z" fill="white"/>
</mask>
<g mask="url(#mask17_15016_302270)">
<path d="M158.498 85.4193C162.017 84.7795 161.137 91.4969 167.055 90.3773C168.254 90.1374 169.694 88.698 169.214 87.4985C168.174 84.6196 164.975 83.8999 162.896 83.8999C161.457 83.8999 158.898 84.8595 158.498 85.4193Z" fill="#FFCB05"/>
</g>
<path d="M165.776 99.4932C166.736 99.4932 167.776 99.2533 169.055 98.6135C169.935 98.2137 171.374 100.053 171.374 100.053C170.575 107.09 164.577 107.17 163.297 107.01C163.217 106.85 163.297 106.61 163.297 106.45C163.297 104.851 162.338 103.252 160.738 102.692C159.779 102.132 158.579 101.492 158.02 100.373C158.179 100.453 163.537 103.891 165.776 99.4932Z" fill="#E7B721"/>
<mask id="mask18_15016_302270" style="mask-type:luminance" maskUnits="userSpaceOnUse" x="158" y="98" width="14" height="10">
<path fill-rule="evenodd" clip-rule="evenodd" d="M169.135 98.6928C167.776 99.3325 166.816 99.5724 165.857 99.5724C163.618 103.891 158.18 100.452 158.18 100.452C158.819 101.572 159.939 102.131 160.899 102.771C162.418 103.331 163.378 104.93 163.458 106.53C163.458 106.69 163.378 106.929 163.458 107.089C164.737 107.169 170.735 107.089 171.534 100.132C171.534 100.132 170.415 98.6128 169.455 98.6128C169.295 98.6128 169.215 98.6128 169.135 98.6928Z" fill="white"/>
</mask>
<g mask="url(#mask18_15016_302270)">
<path d="M166.337 99.1742C166.977 100.454 167.137 101.333 167.137 102.853C167.137 103.892 165.617 105.572 165.777 105.492C170.576 104.292 170.815 101.013 171.375 98.4545L171.295 97.7348C170.975 97.7348 170.815 97.6548 170.576 97.6548C168.896 97.5749 167.377 97.9747 166.337 99.1742Z" fill="#FFCB05"/>
</g>
<mask id="mask19_15016_302270" style="mask-type:luminance" maskUnits="userSpaceOnUse" x="165" y="98" width="7" height="8">
<path fill-rule="evenodd" clip-rule="evenodd" d="M169.134 98.6928C168.095 99.1726 167.295 99.4125 166.495 99.4924C167.055 100.612 167.135 101.492 167.135 102.851C167.135 103.891 165.616 105.57 165.775 105.49C169.854 104.53 170.654 101.971 171.133 99.6524C170.733 99.1726 170.014 98.6128 169.454 98.6128C169.294 98.6128 169.214 98.6128 169.134 98.6928Z" fill="white"/>
</mask>
<g mask="url(#mask19_15016_302270)">
<path d="M168.973 98.377C169.133 99.0967 169.373 99.9763 169.373 100.616C169.373 102.135 169.053 103.815 168.014 104.774C168.094 104.774 170.013 103.335 170.333 102.615C170.813 101.496 171.212 100.536 171.212 99.2566C171.212 98.7768 170.653 98.6969 170.173 98.6969C170.013 98.6169 169.213 98.297 168.973 98.377Z" fill="#FFEA00"/>
</g>
<path d="M158.738 102.053C160.098 102.852 161.617 103.492 162.577 104.852V104.932C161.617 104.292 160.418 104.532 159.458 103.892C159.058 103.412 159.058 102.692 158.738 102.133V102.053Z" fill="#D4AC2A"/>
<path d="M178.253 58.0708C184.41 55.9116 198.245 57.1112 199.205 59.3503C199.125 59.8301 198.725 60.3099 198.245 60.5498C196.566 61.4294 171.136 69.3463 161.939 79.982L160.5 78.7025C161.779 75.8237 174.095 59.5102 178.253 58.0708Z" fill="#A3A5AE"/>
<path d="M175.373 87.2578L175.853 89.337C175.453 89.6569 175.133 89.9767 174.653 90.2166C174.573 89.337 174.093 87.8976 173.773 87.4177L175.373 87.2578Z" fill="white"/>
<path d="M157.94 93.5768C158.1 93.1769 158.42 92.937 158.82 93.097C159.14 93.1769 159.3 93.5768 159.22 93.9766C159.06 94.3765 158.74 94.6164 158.34 94.4564C158.02 94.3765 157.86 93.8967 157.94 93.5768Z" fill="#A3A5AE"/>
<path d="M157.94 94.9344C158.02 94.6945 158.179 94.6146 158.339 94.6945C158.499 94.7745 158.579 94.9344 158.499 95.1743C158.419 95.4142 158.259 95.4942 158.1 95.4942C157.94 95.3343 157.86 95.1743 157.94 94.9344Z" fill="white"/>
<path d="M165.216 91.4969C165.057 91.6568 164.977 91.6568 164.977 91.8167C164.977 92.3765 165.136 93.0162 165.696 93.0162C165.936 93.0162 165.936 92.6964 166.016 92.4565C166.256 92.0566 166.496 91.8167 166.736 91.4169V91.3369H166.496C166.176 91.3369 166.096 91.7368 165.776 91.7368C165.456 91.7368 165.376 91.6568 165.216 91.4969Z" fill="#6A666E"/>
<path d="M176.811 84.3008C176.971 84.3008 175.692 85.1005 175.612 86.3C175.612 86.8598 172.813 85.5003 168.095 89.9785C167.775 90.2984 167.135 90.7782 166.735 90.5383C166.416 90.3783 167.295 89.9785 167.455 89.6586C167.775 89.0189 171.294 85.1005 175.692 84.3807C176.092 84.3807 176.412 84.3008 176.811 84.3008Z" fill="#6A666E"/>
<mask id="mask20_15016_302270" style="mask-type:luminance" maskUnits="userSpaceOnUse" x="166" y="84" width="11" height="7">
<path fill-rule="evenodd" clip-rule="evenodd" d="M175.694 84.4553C171.296 85.0951 167.777 89.0935 167.457 89.7332C167.297 90.0531 166.418 90.4529 166.737 90.6129C167.217 90.8528 167.777 90.373 168.097 90.0531C172.815 85.5749 175.614 86.9344 175.614 86.3746C175.694 85.0951 176.973 84.2954 176.813 84.2954C176.414 84.2954 176.094 84.3754 175.694 84.4553Z" fill="white"/>
</mask>
<g mask="url(#mask20_15016_302270)">
<path d="M169.936 87.0156C170.095 87.0156 173.614 85.4162 173.774 85.4162C174.414 85.4162 175.373 84.8564 176.013 84.8564C176.173 84.8564 176.413 85.0164 176.573 85.0963C176.893 84.4566 176.653 84.7765 176.973 84.2167C176.893 84.2167 176.813 84.1367 176.733 84.1367C175.453 84.1367 170.735 85.7361 169.936 87.0156Z" fill="#DCE0E2"/>
</g>
<path d="M165.937 85.5791C165.137 85.739 164.818 85.899 164.977 86.3788C165.057 86.9386 166.257 87.7382 166.897 87.7382C167.377 87.6583 167.776 86.9386 167.696 86.5387C167.536 85.9789 166.497 85.739 165.937 85.5791Z" fill="#FFEA00"/>
<path d="M177.611 84.9385C176.812 85.8181 176.092 85.7382 176.092 86.9377C176.092 89.1768 177.371 91.2559 178.251 93.3351C178.411 92.6154 179.211 92.7753 178.971 92.2955C177.611 89.6566 177.611 85.1784 177.611 84.9385Z" fill="#6A666E"/>
<path fill-rule="evenodd" clip-rule="evenodd" d="M172.094 99.8121C173.693 99.8121 174.973 97.573 174.333 95.9736C173.853 97.8129 173.213 98.6925 172.094 99.8121Z" fill="#6A666E"/>
<path d="M160.097 78.3834C160.736 76.5441 171.852 61.2702 175.53 58.7113C175.77 58.5513 172.412 57.9915 171.772 58.1515C165.215 60.1507 159.377 77.5037 159.377 77.9835C159.377 78.0635 159.857 78.3034 160.097 78.3834Z" fill="#6A666E"/>
<path d="M161.215 123.486C161.775 123.326 161.775 123.086 162.015 122.607C162.094 122.367 162.174 122.047 162.414 122.047C163.534 122.047 164.094 122.607 164.973 123.326C166.013 124.286 167.053 126.925 167.132 127.805C166.333 126.685 163.614 123.726 161.215 123.486Z" fill="#C0C1C8"/>
<path d="M196.242 59.9937L198.161 58.9541L181.048 64.8717L180.968 64.4719C183.607 61.9129 188.565 61.593 191.764 59.7538L185.046 60.9533C182.807 61.3531 181.528 63.3523 180.088 64.3919C179.289 64.9517 179.369 65.1116 178.729 65.7514C177.609 66.8709 175.45 67.9905 174.011 68.7102C174.091 68.2304 177.369 64.7118 177.529 64.232C175.85 64.8717 173.451 67.9105 171.932 68.9501C169.053 70.9493 167.613 72.2288 165.054 74.6278C164.175 75.4275 163.855 75.8274 163.375 76.9469C163.135 77.5067 161.616 78.4663 161.856 79.106C162.096 79.5059 164.015 75.8274 166.894 74.148C170.092 72.3088 175.37 68.0705 178.649 66.3112C185.926 62.6326 188.645 63.8322 196.242 59.9937Z" fill="#C0C1C8"/>
<path d="M166.572 72.0676C170.011 68.629 172.97 66.3899 175.369 63.0312C177.528 60.0724 182.966 59.9924 186.164 58.553L188.723 57.6733C188.563 57.6733 183.845 58.3931 182.806 57.9932C180.887 57.3535 177.768 61.7517 177.608 59.1128C177.608 58.7129 174.729 62.7913 173.21 64.3907C171.05 66.7897 168.811 69.7485 166.572 72.0676Z" fill="#C0C1C8"/>
<path d="M169.932 115.171C169.932 115.411 170.492 115.891 170.492 116.131C169.773 115.891 168.493 115.331 167.693 115.171C167.693 115.091 169.852 114.612 169.932 115.171Z" fill="#C0C1C8"/>
<path d="M147.301 79.1051C150.819 79.8248 152.259 83.2635 157.217 82.8636C158.656 82.7037 159.936 81.7441 159.376 80.8644C158.096 78.6253 154.818 77.9856 152.339 77.9856C150.739 77.9056 147.861 78.7053 147.301 79.1051Z" fill="#FFCB05"/>
<path d="M133.706 87.9795C132.667 88.6192 131.707 89.5789 131.707 90.8583C131.707 91.5781 132.827 91.1782 133.546 91.1782C134.266 91.1782 134.906 91.8979 135.625 91.8979C135.945 91.8979 136.665 91.658 136.985 91.658C136.105 91.3382 134.826 91.0982 134.826 90.1386C134.826 89.4189 134.506 89.0191 134.906 88.4593L133.706 87.9795Z" fill="#FFEA00"/>
<path d="M129.789 123.964C129.549 124.284 128.99 124.524 128.59 124.764C129.949 126.123 130.669 126.123 132.588 126.523C130.989 126.044 130.509 125.404 129.789 123.964Z" fill="#DCE0E2"/>
<path d="M164.016 120.928C164.176 121.088 163.616 121.008 163.936 121.808C163.616 121.488 163.136 121.568 162.496 121.648C162.416 121.408 163.536 120.609 164.016 120.928Z" fill="#C0C1C8"/>
<path d="M126.75 93.4192C126.43 95.0186 125.551 95.7383 125.551 97.3376C125.551 97.8974 126.031 98.1373 126.51 98.1373C127.31 98.1373 127.55 97.2577 128.11 96.538C127.63 95.8183 127.39 95.5783 127.39 94.6187C127.39 94.059 127.15 93.8191 127.31 93.2593L126.75 93.4192Z" fill="#FFEA00"/>
<path d="M160.256 76.7039L165.374 67.5075C165.454 67.8274 165.534 67.8274 165.694 68.0673C166.893 67.0277 166.733 65.1085 167.773 63.829C169.612 61.43 171.291 60.7902 173.531 58.791C173.131 60.7902 171.211 60.9502 169.772 62.2296C168.013 63.749 167.453 65.1885 166.573 67.3476C165.854 69.1069 165.214 68.3872 164.494 70.0665C163.375 72.7854 161.695 74.5447 160.256 76.7039Z" fill="#A3A5AE"/>
<path d="M165.854 98.1369C166.973 98.057 168.253 97.3373 167.613 97.3373C165.054 97.3373 165.614 95.8179 164.494 95.8179C164.254 95.8179 163.775 95.8179 163.615 96.2977C163.615 96.2977 163.135 98.2969 165.854 98.1369Z" fill="#FFCB05"/>
<path d="M156.339 79.4229C154.98 79.3429 154.66 79.8227 154.74 80.2226C154.82 80.7024 157.139 81.8219 157.699 81.8219C158.179 81.742 158.738 81.4221 158.578 81.0222C158.578 80.5424 157.379 79.5028 156.339 79.4229Z" fill="#FFEA00"/>
<path d="M122.271 102.213C122.031 102.613 121.871 102.933 121.871 103.413C121.871 103.653 122.031 103.813 122.111 104.053C122.591 103.733 122.911 103.493 123.311 103.093C122.831 102.853 122.591 102.613 122.271 102.213Z" fill="#FFEA00"/>
<path d="M148.341 84.141C141.944 79.9027 139.705 80.3825 132.108 79.5028L127.71 79.8227H120.512C109.157 79.8227 102.36 86.62 91.2441 89.4189C93.7231 80.4624 103.399 83.0214 110.197 79.6628C108.197 79.2629 106.758 79.103 105.079 77.9834C106.598 77.7435 107.478 77.9834 108.997 77.9834C111.156 77.9834 111.556 75.1845 113.715 75.1845H118.753C123.631 75.1845 126.11 76.3841 130.988 77.5836C123.551 74.6248 118.193 72.3057 110.436 72.3057C108.597 72.3057 108.277 72.7855 106.438 72.7855C104.359 72.7855 105.319 71.2661 103.159 71.2661C113.715 71.2661 118.193 72.1458 128.429 75.1845C132.748 76.3841 135.307 77.4237 139.385 79.1829C143.863 81.0222 144.023 80.7023 148.341 84.141Z" fill="white"/>
<path d="M103.639 80.1447L109.956 79.1051C111.236 79.2651 115.234 78.2255 115.714 78.1455C113.555 78.2255 111.236 78.3854 109.157 78.4654C106.518 78.5453 105.238 79.505 102.599 79.9048H98.041C98.041 79.9048 94.9223 79.5849 94.9223 79.9048C94.9223 80.2247 93.9627 80.7045 94.2026 80.8644C94.6824 81.1043 102.119 80.1447 103.639 80.1447Z" fill="#C0C1C8"/>
<path d="M99.8809 73.4263H105.399C113.795 73.4263 118.353 75.6654 126.59 76.8649C132.188 77.6646 135.067 79.3439 140.505 81.1832C144.023 82.3027 146.342 82.4627 149.301 84.6218L149.701 84.9417L149.301 85.0216C140.824 80.7833 135.467 80.1436 126.19 78.0644C123.072 77.3447 121.232 77.1848 118.194 76.3851C115.954 75.7453 114.835 74.7058 112.516 74.7058H104.039C102.28 74.6258 101.16 74.6258 99.8809 73.4263Z" fill="#C0C1C8"/>
<path d="M155.379 124.207C155.539 123.088 155.939 122.768 155.939 122.768C155.379 121.968 155.059 121.968 153.859 121.488C154.339 122.528 154.339 123.168 155.379 124.207Z" fill="#A3A5AE"/>
<path d="M136.826 131.244C141.304 129.484 141.464 124.206 141.464 123.886C141.464 123.886 140.505 123.167 139.465 123.806C140.185 126.206 138.585 129.324 136.826 131.244Z" fill="#6A666E"/>
<path d="M142.103 108.691C141.624 108.691 140.584 108.691 140.584 109.251C140.584 110.531 142.183 110.851 143.063 111.81C144.502 113.489 145.462 114.289 146.742 116.128C147.701 117.568 150.02 122.926 150.74 122.286C153.139 120.047 152.979 120.127 152.979 120.127C150.58 119.007 148.661 115.089 147.381 113.25C145.782 110.931 144.742 108.691 142.103 108.691Z" fill="#6A666E"/>
<path d="M151.54 118.448C152.02 119.008 153.459 119.088 152.98 120.128C152.74 120.847 150.82 122.047 150.58 122.287C150.261 122.047 150.66 120.528 150.58 120.208C150.261 118.688 149.541 118.208 148.741 116.849C148.421 116.289 148.101 115.01 148.021 114.29C148.021 114.29 150.341 117.169 151.54 118.448Z" fill="#A3A5AE"/>
<path d="M140.346 107.733C142.985 106.853 142.985 107.813 144.344 107.733C144.344 107.733 145.384 101.975 146.663 98.5365C146.823 98.1367 146.903 97.4969 146.903 97.0971C146.903 97.0971 146.743 96.2174 145.624 96.8572C144.984 97.0971 140.985 105.654 140.346 107.733Z" fill="#6A666E"/>
<path d="M144.342 107.733C144.662 106.854 145.941 100.296 146.741 98.2173C146.261 98.2973 145.621 100.856 145.541 101.336C145.222 102.695 144.742 103.335 144.422 104.695C144.182 105.734 144.182 107.014 143.062 107.014H142.103C141.863 107.094 141.703 107.094 141.543 107.174C141.463 107.254 141.303 107.414 141.383 107.414C143.142 107.334 143.622 107.733 144.342 107.733Z" fill="#A3A5AE"/>
<path d="M139.705 122.367C140.744 122.367 141.464 122.447 142.504 122.447C144.103 120.528 135.786 105.974 135.386 105.734C134.267 104.934 131.788 104.934 132.188 105.574C136.266 112.371 138.665 115.01 139.385 120.368C139.465 121.008 139.225 121.168 139.225 121.807C139.305 122.127 139.385 122.367 139.705 122.367Z" fill="#6A666E"/>
<mask id="mask21_15016_302270" style="mask-type:luminance" maskUnits="userSpaceOnUse" x="132" y="105" width="11" height="18">
<path fill-rule="evenodd" clip-rule="evenodd" d="M132.19 105.573C136.268 112.37 138.667 115.009 139.387 120.367C139.467 121.006 139.227 121.166 139.227 121.806C139.227 122.046 139.387 122.366 139.627 122.366C140.666 122.366 141.386 122.446 142.425 122.446C144.025 120.527 135.708 105.972 135.308 105.733C134.749 105.333 133.789 105.093 132.989 105.093C132.509 105.093 132.03 105.253 132.19 105.573Z" fill="white"/>
</mask>
<g mask="url(#mask21_15016_302270)">
<path fill-rule="evenodd" clip-rule="evenodd" d="M139.387 122.526H142.026C142.506 122.526 142.826 122.046 142.826 121.566C142.826 120.526 142.266 120.047 142.186 119.007C141.946 116.928 139.307 111.89 138.107 110.21C138.107 110.29 139.787 115.248 139.947 115.888C140.426 117.727 140.906 119.247 140.906 121.166C140.906 122.046 140.347 122.685 139.387 122.526Z" fill="#A3A5AE"/>
</g>
<path d="M136.747 105.012C139.546 102.773 140.426 97.7351 144.424 95.416C144.184 95.2561 143.864 94.7762 143.704 95.0161C142.745 95.9758 132.029 104.372 132.429 104.212C134.908 103.413 135.947 105.652 136.747 105.012Z" fill="#6A666E"/>
<path d="M152.422 100.375C152.022 99.7348 151.382 99.335 150.582 99.335C149.783 99.335 149.623 100.295 149.623 101.014V102.134C149.623 102.534 149.943 104.693 149.943 105.572C150.103 108.291 149.463 109.251 149.463 110.291C149.463 110.451 149.543 110.61 149.623 110.77C150.423 110.53 150.582 109.811 151.382 109.571C152.102 109.331 153.541 109.331 153.301 108.691C151.862 105.093 152.102 101.894 152.102 101.894C152.102 101.414 152.102 100.694 152.422 100.375Z" fill="#6A666E"/>
<mask id="mask22_15016_302270" style="mask-type:luminance" maskUnits="userSpaceOnUse" x="149" y="99" width="5" height="12">
<path fill-rule="evenodd" clip-rule="evenodd" d="M149.623 101.012V102.132C149.623 102.532 149.943 104.691 149.943 105.57C150.103 108.289 149.463 109.249 149.463 110.289C149.463 110.448 149.543 110.608 149.623 110.768C150.423 110.528 150.582 109.809 151.382 109.569C152.102 109.329 153.541 109.329 153.301 108.689C151.862 105.091 152.102 101.892 152.102 101.892C152.182 101.412 152.182 100.772 152.502 100.452C152.102 99.8127 151.462 99.4129 150.662 99.4129C149.783 99.3329 149.623 100.293 149.623 101.012Z" fill="white"/>
</mask>
<g mask="url(#mask22_15016_302270)">
<path d="M151.864 102.451C151.544 102.851 151.544 104.53 151.544 105.01C151.544 105.97 151.944 106.45 151.944 107.409C151.944 107.969 151.864 108.369 151.464 108.849C151.144 109.248 150.664 109.328 150.664 109.808C150.664 109.888 150.744 110.048 150.904 110.048C151.384 110.048 151.624 109.888 152.024 109.728C152.743 109.568 153.463 109.248 153.463 108.529C153.463 107.649 152.903 107.249 152.663 106.37C152.503 105.41 152.103 103.411 151.864 102.451Z" fill="#A3A5AE"/>
</g>
<path d="M158.1 117.645C158.34 118.285 161.058 120.204 159.619 123.083C159.619 123.163 161.618 121.404 161.138 120.044C160.978 119.804 158.579 117.965 158.1 117.645Z" fill="white"/>
<path d="M152.821 110.29C151.381 109.81 150.821 111.17 150.262 111.809C153.54 114.608 156.819 119.566 157.139 121.086C157.379 122.125 158.179 124.364 159.058 123.645C160.258 122.685 160.498 121.885 160.418 120.366C160.338 119.486 157.699 117.407 155.939 115.328C154.74 113.649 153.7 110.53 152.821 110.29Z" fill="#6A666E"/>
<mask id="mask23_15016_302270" style="mask-type:luminance" maskUnits="userSpaceOnUse" x="150" y="110" width="11" height="14">
<path fill-rule="evenodd" clip-rule="evenodd" d="M150.262 111.732C153.54 114.531 156.819 119.489 157.139 121.008C157.379 122.048 158.179 124.287 159.058 123.567C160.258 122.607 160.498 121.808 160.418 120.368C160.338 119.489 157.699 117.41 155.939 115.33C154.58 113.651 153.54 110.532 152.661 110.292C152.421 110.212 152.261 110.212 152.101 110.212C151.221 110.212 150.742 111.172 150.262 111.732Z" fill="white"/>
</mask>
<g mask="url(#mask23_15016_302270)">
<path d="M157.62 116.607C158.58 117.567 159.459 118.606 160.499 119.406C160.819 119.726 160.819 120.606 160.899 121.005C161.379 123.724 158.58 123.964 158.5 123.964C158.66 123.484 158.58 121.485 158.58 120.926C158.58 119.326 156.101 117.167 156.341 115.408C156.501 115.408 157.62 116.607 157.62 116.607Z" fill="#A3A5AE"/>
</g>
<path d="M152.262 124.203C155.461 126.202 154.661 133.239 154.581 133.719C156.421 128.681 155.141 123.643 152.982 122.443C152.182 122.043 152.022 123.963 152.262 124.203Z" fill="#6A666E"/>
<path fill-rule="evenodd" clip-rule="evenodd" d="M104.121 86.8599H118.355V118.927H104.121V86.8599Z" fill="black"/>
</g>
<defs>
<clipPath id="clip0_15016_302270">
<rect width="200" height="200" fill="white" transform="translate(0.5625 0.613281)"/>
</clipPath>
</defs>
</svg>
