<svg width="201" height="201" viewBox="0 0 201 201" fill="none" xmlns="http://www.w3.org/2000/svg">
<path d="M59.5571 21.8984H58.2361L57.8741 23.1688L33.1409 109.959H23.7109H21.9609V111.709V126.758V128.508H23.7109H59.6921H61.4421V126.758V111.709V109.959H59.6921H54.115L56.4749 101.649H79.7161L81.9435 109.959H75.2822H73.5322V111.709V126.758V128.508H75.2822H111.912V160.848H103.613H101.863V162.598V177.648V179.398H103.613H139.786H141.536V177.648V162.598V160.848H139.786H131.488V128.51H148.83V132.78V134.53H150.58H163.642H165.392V132.78V105.688V103.938H163.642H150.581H148.831V105.688V109.961H131.49V86.5963H160.886V94.8785V96.6285H162.636H177.711H179.461V94.8785V69.7972V68.0472H177.711H103.613H101.863V69.7972V84.8463V86.5963H103.613H111.911V109.957H103.058L77.364 23.1517L76.993 21.8984H75.6859H59.5587H59.5571ZM60.2176 83.4984L66.8159 59.032L74.3823 83.4984H60.2176Z" fill="#003594" stroke="white" stroke-width="3.5"/>
</svg>
