<svg width="201" height="201" viewBox="0 0 201 201" fill="none" xmlns="http://www.w3.org/2000/svg">
<path d="M101.298 70.5145L121.264 100.684H81.3326L101.298 70.5145ZM168.479 129.77L114.679 50.0307H57.5344L43.801 70.4216H74.8515L34.8563 129.77H22.0186L8.28516 150.161H75.3589L88.793 129.77H62.0842L68.747 119.701H123.962L128.951 112.3L140.512 129.77H125.971L112.238 150.161H178.375L191.81 129.77H168.479Z" fill="#C7B784"/>
<path d="M74.4533 104.382L99.3746 66.7231H103.227L128.149 104.382H74.4533ZM166.516 133.468L112.827 53.8939L112.715 53.7284H59.5055L50.7534 66.7231H81.8069L36.8266 133.468H23.9896L15.2383 146.463H73.3696L81.9307 133.468H55.2041L66.7624 116.003H121.998L128.982 105.64L147.397 133.468H127.942L119.191 146.463H176.386L184.947 133.468H166.516Z" fill="#011E41"/>
</svg>
