<svg width="200" height="200" viewBox="0 0 200 200" fill="none" xmlns="http://www.w3.org/2000/svg">
<path d="M136.296 101.316L116.601 103.716C126.415 88.0155 131.783 73.4981 147.606 57.5778C143.244 71.4852 139.69 87.262 136.296 101.316ZM175.032 155.124C161.622 162.047 151.543 160.597 150.472 152.238C149.263 142.888 149.929 129.733 150.37 124.717C150.534 122.88 151.09 116.946 151.444 115.154C156.024 114.199 162.144 111.962 162.144 119.922C164.458 118.743 168.702 115.261 169.431 111.565C173.47 92.462 153.449 97.4723 153.449 97.4723C158.333 74.9049 163.583 50.871 174.763 31.0392L163.618 25.699C156.076 31.4726 148.478 37.3182 142.14 38.2636C136.355 39.6597 100.983 42.4362 103.47 26.2437C99.5185 26.5601 97.2965 31.209 97.32 35.2214C98.5969 52.6946 121.306 49.2305 135.134 50.941C120.863 68.8082 108.322 87.3108 96.9895 106.469C88.0077 108.187 86.825 97.0458 88.3533 93.979C88.3533 93.979 82.4274 95.6425 80.1292 102.131C77.3547 108.949 80.4963 120.483 90.1633 121.127C80.5943 137.962 69.1192 165.545 45.6402 160.034C37.7832 158.413 28.61 145.11 33.3585 137.198C36.2717 133.147 31.9527 130.306 26.9972 136.314C14.8137 149.759 26.5676 176.612 52.0926 174.997C79.5372 175.593 98.0551 141.484 108.048 121.219L134.071 117.128L132.425 138.362C129.143 191.168 167.15 170.786 167.15 170.786C172.434 168.388 177.967 162.607 177.831 155.87C177.546 153.601 176.29 154.482 175.031 155.124" fill="#B30838"/>
<path fill-rule="evenodd" clip-rule="evenodd" d="M155.054 151.652L155.053 151.647C153.911 142.806 154.539 130.055 154.972 125.125C155.084 123.87 155.339 121.17 155.585 118.977C155.681 118.959 155.775 118.941 155.869 118.924C156.594 118.794 157.099 118.747 157.44 118.743C157.484 118.994 157.525 119.375 157.525 119.923V127.463L164.242 124.039C165.89 123.199 167.932 121.719 169.691 119.912C171.39 118.168 173.333 115.604 173.957 112.494C175.098 107.076 174.717 102.513 172.616 98.9566C170.485 95.3468 167.098 93.6372 164.086 92.8773C162.443 92.4628 160.801 92.298 159.31 92.2666C163.855 71.5516 168.987 50.6927 178.788 33.3092L181.212 29.0081L163.06 20.3103L160.738 22.088C156.949 24.9883 153.361 27.7347 149.957 29.8903C146.468 32.0994 143.65 33.3693 141.459 33.6961L141.256 33.7263L141.057 33.7744C138.746 34.3322 129.02 35.3584 120.276 34.2669C115.878 33.7178 112.347 32.6998 110.175 31.2822C109.147 30.6115 108.595 29.9618 108.307 29.3909C108.042 28.8643 107.856 28.1217 108.037 26.9465L108.924 21.1744L103.102 21.6403C99.2184 21.9512 96.5244 24.3982 94.969 26.9296C93.4278 29.4381 92.6848 32.4665 92.7011 35.2498L92.702 35.4048L92.7133 35.5594C93.1151 41.0575 95.2854 45.2972 98.8207 48.3206C102.198 51.2087 106.465 52.6831 110.604 53.5212C114.768 54.3643 119.256 54.6471 123.359 54.8363C124.186 54.8744 124.992 54.9087 125.779 54.9422C125.895 54.9471 126.01 54.952 126.124 54.9569C114.453 70.1591 103.961 85.8013 94.34 101.889C94.2358 101.848 94.1578 101.804 94.0994 101.767C93.7781 101.564 93.3595 101.121 92.9966 100.247C92.6347 99.3764 92.4379 98.3251 92.4135 97.3517C92.3904 96.4303 92.5268 95.9958 92.5154 95.9919C92.5132 95.9912 92.5058 96.0059 92.491 96.0356L97.1347 86.7173L87.1053 89.5328L88.3539 93.9803C87.8193 95.0531 87.6164 97.1139 87.963 99.2667C88.6073 103.268 91.1501 107.588 96.9901 106.47C107.414 88.8488 118.86 71.7819 131.734 55.2539C132.857 53.8126 133.99 52.3754 135.135 50.9423C133.407 50.7286 131.541 50.5957 129.595 50.4926C128.386 50.4285 127.145 50.376 125.888 50.3227C112.984 49.7761 98.3387 49.1557 97.3205 35.2228C97.3091 33.2671 97.8311 31.1602 98.8268 29.4775C99.874 27.7078 101.445 26.4072 103.471 26.2451C103.217 27.8997 103.358 29.3563 103.822 30.6365C107.904 41.8846 136.947 39.5184 142.141 38.265C148.431 37.3267 155.961 31.562 163.448 25.8313L163.619 25.7004L174.763 31.0405C174.008 32.3802 173.28 33.7391 172.577 35.1154C163.624 52.6462 158.784 73.0046 154.512 92.5794C154.155 94.217 153.801 95.8491 153.45 97.4737C153.45 97.4737 155.577 96.9415 158.304 96.8853C163.945 96.7692 172.154 98.6894 169.431 111.567C169.072 113.391 167.856 115.163 166.438 116.631C164.983 118.138 163.316 119.326 162.144 119.923C162.144 117.655 161.648 116.215 160.831 115.337C159.057 113.429 155.772 114.178 152.796 114.856C152.336 114.961 151.883 115.064 151.444 115.155C151.091 116.947 150.535 122.881 150.371 124.718C149.929 129.735 149.264 142.889 150.472 152.239C151.495 160.216 160.719 161.902 173.214 156.023C173.256 156.003 173.299 155.983 173.342 155.962C173.899 155.699 174.462 155.42 175.031 155.126C175.032 155.126 175.032 155.125 175.033 155.125C175.138 155.072 175.242 155.016 175.346 154.962C176.493 154.358 177.57 153.792 177.831 155.872C177.853 156.928 177.735 157.96 177.5 158.96C177.492 158.994 177.484 159.028 177.476 159.062C176.18 164.394 171.578 168.778 167.151 170.787C167.151 170.787 129.143 191.17 132.425 138.364L134.071 117.13L108.048 121.22C98.0556 141.486 79.5378 175.594 52.0931 174.999C26.5682 176.614 14.8143 149.76 26.9977 136.315C31.9533 130.307 36.2722 133.148 33.3591 137.2C28.6106 145.112 37.7838 158.414 45.6408 160.035C66.4037 164.909 77.7794 143.902 86.7509 127.335C87.0919 126.705 87.4295 126.081 87.764 125.466C88.5805 123.964 89.3786 122.51 90.1639 121.129C88.433 121.013 86.9113 120.549 85.5954 119.825C79.5615 116.505 77.852 107.73 80.1298 102.132C80.8725 100.035 81.9942 98.4423 83.1722 97.2465C85.6393 94.7424 88.3539 93.9803 88.3539 93.9803C87.1053 89.5328 87.1033 89.5333 87.1013 89.5339L87.0883 89.5376L87.069 89.5431L87.0235 89.5564C86.9902 89.5663 86.951 89.5782 86.9062 89.5922C86.8166 89.6203 86.7042 89.657 86.5716 89.7033C86.3069 89.7958 85.959 89.9274 85.549 90.1057C84.7332 90.4607 83.6465 91.0118 82.4707 91.8274C80.1256 93.4542 77.3632 96.1841 75.8106 100.491C73.9588 105.132 74.1617 110.961 76.2399 115.776C77.6356 119.01 80.0018 122.02 83.3664 123.876C83.0857 124.393 82.8043 124.912 82.522 125.433C78.6623 132.555 74.6303 139.996 69.5852 145.986C63.1525 153.624 56.0418 157.732 46.6965 155.538L46.6354 155.523L46.5739 155.511C44.4116 155.065 41.0741 152.541 38.7451 148.618C36.4363 144.73 36.2631 141.486 37.2554 139.689C38.3228 138.133 39.0958 136.174 38.8885 134.057C38.6499 131.621 37.1087 129.481 34.6506 128.624C32.4392 127.852 30.2052 128.349 28.4667 129.197C26.6964 130.061 25.0251 131.466 23.5029 133.293C15.8403 141.826 16.0612 154.112 21.3781 163.568C26.7958 173.204 37.6863 180.468 52.1894 179.621C67.8999 179.88 80.5359 170.252 90.1395 158.919C99.1767 148.254 106.16 135.345 111.125 125.413L129.014 122.601L127.817 138.042L127.815 138.077C126.968 151.703 128.719 161.356 132.44 167.972C136.298 174.831 142.021 177.978 147.803 178.935C153.356 179.854 158.795 178.745 162.628 177.56C164.585 176.955 166.224 176.298 167.383 175.788C167.965 175.533 168.431 175.312 168.762 175.149C168.927 175.068 169.059 175.001 169.155 174.952C169.165 174.946 169.175 174.942 169.184 174.937C172.445 173.432 175.695 170.951 178.16 167.805C180.664 164.609 182.545 160.47 182.45 155.778L182.445 155.536L182.415 155.296C182.304 154.418 182.028 153.059 181.087 151.858C179.898 150.342 178.196 149.738 176.643 149.79C175.428 149.83 174.447 150.264 174.032 150.454C173.704 150.605 173.238 150.85 173.03 150.96C172.982 150.984 172.948 151.002 172.932 151.01L174.871 154.812L172.914 151.021C166.61 154.275 161.72 155.208 158.699 154.829C157.255 154.649 156.448 154.201 156.007 153.794C155.602 153.42 155.202 152.808 155.054 151.652ZM177.888 158.85C177.885 158.852 177.881 158.853 177.878 158.854C177.944 158.83 177.951 158.821 177.888 158.85ZM116.602 103.717C117.656 102.03 118.659 100.357 119.629 98.6944C121.2 96.0032 122.684 93.3394 124.161 90.6893C128.841 82.2899 133.444 74.0289 140.465 65.4733C142.599 62.8731 144.956 60.2458 147.606 57.5791C146.581 60.8461 145.601 64.2163 144.658 67.6431C142.253 76.3725 140.084 85.4691 138.01 94.1632C137.433 96.5847 136.863 98.975 136.297 101.317L116.602 103.717ZM132.555 97.1196L125.372 97.9947C126.434 96.1296 127.455 94.2962 128.464 92.4856C131.299 87.3956 134.033 82.4866 137.284 77.5642C135.967 82.8144 134.716 88.0626 133.505 93.1396C133.186 94.4792 132.869 95.8069 132.555 97.1196Z" fill="white"/>
</svg>
