<svg width="201" height="201" viewBox="0 0 201 201" fill="none" xmlns="http://www.w3.org/2000/svg">
<path d="M101.691 8.27926C101.216 8.27529 100.746 8.27758 100.285 8.28527C96.5913 8.28527 92.4677 8.53126 87.5432 9.26993C85.0809 9.76238 85.0189 12.656 85.5113 14.6874C86.0038 16.4109 90.1901 14.9334 90.0054 16.2876L32.2022 164.269L29.8626 166.608C28.0159 167.47 26.9087 165.131 25.3698 165.192C23.8924 166.054 22.9683 167.839 23.3992 169.87C25.923 173.994 29.3712 177.196 32.6954 180.766C35.9579 183.967 39.1582 187.413 43.5903 189.014C49.9306 185.32 40.6358 181.873 43.2212 177.01L65.9354 123.211H134.448L157.162 177.01C159.809 181.873 150.452 185.32 156.793 189.014C161.225 187.413 164.487 183.967 167.688 180.766C171.012 177.196 174.459 173.994 176.983 169.87C177.537 167.777 176.675 165.993 175.136 165.131C173.597 165.069 172.551 167.408 170.643 166.546L168.303 164.208L110.564 16.2878C110.318 14.9336 114.565 16.4112 115.057 14.6876C115.611 12.6563 115.55 9.82418 113.026 9.27017C108.718 8.62383 105.021 8.30725 101.69 8.27949L101.691 8.27926ZM54.3312 29.5796C54.0461 29.6034 53.7114 29.6834 53.3189 29.8296C45.5013 33.3384 39.6522 38.8169 32.9426 45.2187C31.0959 47.127 29.7424 49.7746 30.6042 52.7292C31.7122 55.4992 36.2676 48.8502 37.3138 50.2044V143.647L49.7476 111.699V43.3101L51.1639 38.4469C52.5796 36.2309 55.2879 36.4158 55.8419 33.7689C55.8957 31.9914 56.3269 29.4124 54.3306 29.579L54.3312 29.5796ZM146.321 29.6421C144.365 29.4755 144.789 32.0534 144.789 33.8308C145.22 36.4162 147.99 36.2315 149.406 38.4475L150.821 43.3107V111.7L163.317 143.647V50.205C164.302 48.7892 168.919 55.4996 170.027 52.7911C170.889 49.8364 169.534 47.1888 167.687 45.2806C160.916 38.8788 155.13 33.4003 147.312 29.8916C146.928 29.7454 146.6 29.6665 146.321 29.6427L146.321 29.6421ZM100.284 33.6469L130.815 110.408H69.6907L100.284 33.6469ZM97.6374 57.6538C97.699 57.5923 95.2978 57.7154 94.99 58.8849C94.5591 60.7932 96.5294 60.6691 96.4063 61.5924L79.791 104.373C79.237 105.85 77.4511 107.39 75.666 107.267C75.112 107.267 74.9273 108.928 75.666 109.605H89.6399C90.5632 109.544 90.5632 108.559 90.5632 107.636C90.8095 105.789 87.7927 107.451 88.2236 106.219L91.1163 99.079H109.461L112.353 106.219C112.784 107.451 109.769 105.789 110.015 107.636C110.015 108.559 109.953 109.544 110.938 109.605H124.85C125.589 108.99 125.404 107.267 124.85 107.267C123.065 107.39 121.28 105.85 120.726 104.373L104.106 61.5912C103.983 60.6679 105.952 60.792 105.521 58.8837C105.275 57.7141 102.812 57.6526 102.812 57.6526H97.6426L97.6374 57.6538ZM100.284 75.3814L106.993 91.94H93.5124L100.284 75.3814ZM72.707 125.919C71.3528 126.227 71.5983 127.828 71.9676 128.628C72.5216 128.936 73.1374 128.998 73.753 129.367C74.6763 130.475 65.9359 150.788 65.9359 150.788C65.0742 153.681 65.0116 150.296 63.4111 152.081C62.6725 152.819 62.6732 153.681 63.2272 154.235C65.9357 157.128 68.2741 161.438 72.3369 162.977C75.1685 161.561 72.1522 159.591 72.3369 157.806L80.7707 137.062H81.325L100.284 173.009L119.244 137.062H119.798L128.23 157.806C128.415 159.591 125.399 161.622 128.23 162.977C132.355 161.376 134.633 157.128 137.341 154.235C137.895 153.681 137.895 152.819 137.156 152.081C135.556 150.295 135.495 153.681 134.571 150.788C134.571 150.788 125.83 130.475 126.753 129.367C127.369 129.059 127.984 128.997 128.538 128.628C128.908 127.828 129.155 126.227 127.8 125.919H115.981L100.223 154.913L84.4641 125.919H72.707ZM57.0717 149.003L49.9312 167.655C49.9312 167.655 68.0897 192.277 100.284 192.277C132.478 192.277 150.637 167.655 150.637 167.655L143.497 149.065C143.497 149.065 130.631 175.965 100.284 175.965C69.8748 175.965 57.0717 149.003 57.0717 149.003Z" fill="#660000"/>
</svg>
