<svg width="201" height="201" viewBox="0 0 201 201" fill="none" xmlns="http://www.w3.org/2000/svg">
<path d="M103.054 96.1523H98.84L100.947 90.7279L103.054 96.1523ZM168.623 146.228C166.202 140.041 162.184 129.773 157.589 118.032C147.231 91.549 138.374 68.91 133.081 55.3853H139.237V9.53247H62.8745V55.3853H69.0049C64.0708 67.9932 56.055 88.4812 46.7186 112.347C41.213 126.421 36.2649 139.074 33.4663 146.227H20.6172V191.883H90.3475V146.227H83.7464C83.9649 145.49 84.1975 144.717 84.444 143.898C84.5841 143.425 84.727 142.946 84.8699 142.472H117.214C117.36 142.946 117.503 143.428 117.646 143.901C117.892 144.719 118.122 145.495 118.343 146.227H111.644V191.883H181.458V146.227L168.623 146.228Z" fill="white"/>
<path d="M106.445 98.4772H95.4511L100.948 84.3306L106.445 98.4772ZM167.041 148.553C164.71 142.604 160.4 131.582 155.408 118.828C144.503 90.9358 134.852 66.2798 129.684 53.0683H136.918V11.853H65.1955V53.0683H72.4046C67.6705 65.1754 59.1212 87.0156 49.0235 112.833C43.1003 127.985 37.7432 141.657 35.0507 148.552H22.9414V189.568H88.032V148.552H80.6295C81.089 147.027 81.6158 145.268 82.2238 143.242C82.5264 142.219 82.8458 141.157 83.1484 140.157H118.948C119.247 141.157 119.564 142.219 119.869 143.239C120.477 145.268 121.007 147.025 121.464 148.552H113.966V189.568H179.143V148.552H167.045L167.041 148.553Z" fill="#FFCC00"/>
<path d="M100.953 70.2343L113.909 103.577H87.9974L100.954 70.2343H100.953ZM163.56 153.651C161.855 149.319 156.611 135.905 150.692 120.775C139.637 92.5088 126.297 58.4125 122.206 47.9674H131.817V16.9624H70.3022V47.9674H79.8846C76.0919 57.6479 64.3387 87.6889 53.7639 114.728C46.6804 132.828 40.4129 148.847 38.5332 153.651H28.043V184.466H82.9255V153.651H73.755C74.4975 151.216 75.6602 147.353 77.3302 141.771C78.0923 139.225 78.8741 136.619 79.3476 135.053H122.737C123.222 136.641 123.995 139.239 124.758 141.769C126.427 147.353 127.593 151.217 128.333 153.652H119.067V184.467H174.036V153.652H163.555L163.56 153.651Z" fill="white"/>
<path d="M171.725 182.138H121.398V155.971H131.512C131.053 154.822 124.673 133.256 124.457 132.724H77.6523C77.4366 133.256 71.0595 154.823 70.5973 155.971H80.6168V182.138H30.374V155.971H40.1274C40.3536 155.403 82.8052 46.8665 83.2984 45.6333H72.6345V19.2703H129.509V45.6333H118.817C119.313 46.8689 161.761 155.403 161.988 155.971H171.728V182.138H171.725ZM84.6121 105.893H117.307L100.962 63.8246L84.6164 105.894L84.6121 105.893Z" fill="#222222"/>
<path d="M138.559 122.433C138.559 122.433 137.646 124.257 137.08 124.941C137.08 124.941 137.646 126.308 138.5 125.796C139.358 125.28 139.187 123.627 138.559 122.433ZM127.428 121.666C127.789 121.231 128.848 119.889 129.115 118.771C129.44 117.421 129.35 116.306 128.941 116.042C128.532 115.776 127.59 116.6 127.442 119.856C127.414 120.5 127.411 121.102 127.428 121.666ZM122.354 121.666C122.715 121.231 123.774 119.889 124.043 118.771C124.365 117.421 124.276 116.306 123.869 116.042C123.455 115.776 122.516 116.6 122.37 119.856C122.34 120.5 122.337 121.102 122.354 121.666ZM107.495 117.558C106.612 117.166 106.251 117.894 105.861 120.41C105.472 122.929 106.016 124.095 106.455 123.988C106.898 123.887 107.285 123.134 107.262 122.201C107.237 121.268 107.495 117.558 107.495 117.558ZM81.2723 119.088C80.8464 118.881 80.216 119.088 80.216 120.321V123.086C80.216 123.747 81.3508 125.675 81.4881 123.397C81.6646 120.494 81.6226 119.267 81.2723 119.088ZM140.61 118.726C140.61 119.64 140.554 122.775 140.554 124.257C140.554 125.742 140.212 127.334 139.013 127.334C137.819 127.334 136.735 126.364 136.735 126.364C136.735 126.364 134.855 126.933 133.942 126.196C133.031 125.454 132.804 124.367 133.087 122.433L133.37 120.494L132.804 120.323C132.804 120.323 132.003 125.28 129.565 126.65C128.971 126.984 126.973 127.351 126.004 124.692C125.662 125.182 125.177 125.821 124.774 126.14C124.289 126.524 122.384 127.076 121.26 125.14C119.759 126.726 118.293 126.022 117.848 124.86C117.357 123.571 117.506 121.783 117.545 120.646C117.584 119.502 116.368 120.225 116.329 120.833C116.293 121.441 116.178 122.996 115.951 125.014C115.794 126.378 115.494 126.801 114.923 126.459C114.567 126.247 114.315 125.899 114.163 125.232C113.74 125.644 113.068 126.126 112.297 126.064C111.656 126.017 111.261 125.582 111.006 124.986C109.381 125.865 108.013 125.129 108.013 125.129C108.013 125.129 106.276 126.978 105.262 125.86C105.012 125.583 104.757 125.098 104.567 124.4C104.331 124.865 103.805 125.781 103.029 126.196C101.967 126.768 101.165 126.233 100.521 124.635C100.403 124.338 100.322 123.943 100.266 123.492C98.6325 125.686 96.8954 125.512 96.4162 124.257C95.9231 122.963 96.0744 121.175 96.1136 120.035C96.15 118.9 94.934 119.617 94.8948 120.225C94.8583 120.833 94.7435 122.397 94.5165 124.409C94.3624 125.767 94.0626 126.196 93.491 125.851C93.1268 125.639 92.8746 125.277 92.7233 124.596C92.2414 125.098 91.3307 125.891 90.3418 125.966C89.6693 126.014 89.193 125.462 88.9156 124.722C88.4141 125.26 87.68 125.919 87.1169 125.905C85.8421 125.857 85.3573 124.361 85.3573 123.439V120.887C85.1527 121.15 84.8249 121.503 84.4803 121.64C84.0964 121.783 83.6874 121.901 83.1606 121.811V123.305C83.1606 125.591 82.2388 126.516 80.6558 125.767C79.7928 125.361 79.3306 124.588 79.0811 123.851C78.899 124.574 78.3751 126.12 77.2291 126.12C75.7357 126.12 75.0773 124.229 75.0773 121.943V116.359C75.0773 115.616 74.6822 114.913 74.0209 115.924C73.3597 116.936 73.228 117.457 73.228 118.211V123.876C73.228 124.888 72.6144 125.591 71.603 125.591C70.5915 125.591 70.373 125.022 70.373 123.305V117.244C70.373 116.451 69.8854 115.134 69.2746 116.538C68.6582 117.947 68.35 119.135 68.35 120.144V124.056C68.35 124.717 68.2632 125.686 67.2517 125.686C66.2402 125.686 65.7135 125.196 65.7135 123.173V117.415C65.7135 115.353 65.9797 114.297 65.6266 114.12C65.2736 113.949 64.6572 114.344 62.1972 116.718L61.3174 115.748C61.3174 115.748 64.8365 112.761 66.1085 111.747C67.3834 110.736 69.3167 110.87 69.5801 112.672C69.5801 112.672 70.5971 111.29 71.5582 111.178C73.0543 111.005 73.2281 113.989 73.2281 113.989C73.2281 113.989 74.2703 112.641 75.1193 111.528C76.2625 110.032 77.6214 110.433 77.6214 112.45C77.6214 114.476 77.316 119.968 77.2291 121.724C77.1479 123.324 78.0473 124.409 78.8738 123.036C78.8262 122.742 78.8094 122.484 78.8094 122.296V118.034C78.8094 114.557 81.0845 114.367 81.8886 114.781C82.9842 115.353 83.1607 116.586 83.1607 117.987C83.1607 119.926 83.8387 120.251 84.3459 119.878C84.7773 119.564 85.122 119.189 85.3573 118.903V116.143C85.3573 114.955 86.2791 114.955 86.677 115.353C87.1169 115.796 86.9852 116.233 86.9852 117.02V122.296C86.9852 124.098 87.5568 124.319 87.9967 124.098C88.2488 123.969 88.4842 123.557 88.6411 123.224C88.5823 121.677 88.7139 117.527 88.9605 116.493C89.2295 115.395 89.8487 115.21 90.2774 115.518C90.7593 115.871 90.6304 116.622 90.5884 117.284C90.5435 117.95 90.325 119.178 90.1485 121.33C89.972 123.484 90.2549 124.414 91.0731 124.274C91.5634 124.19 92.2667 123.176 92.5777 122.694C92.5861 120.951 92.8495 118.511 92.998 116.998C93.1885 115.059 93.973 115.093 94.4774 115.362C94.9706 115.633 94.9341 116.88 94.9341 116.88C94.9341 116.88 95.9232 115.667 96.7973 115.095C97.6715 114.529 97.9377 115.174 97.9012 116.124C97.862 117.071 97.7864 119.699 97.7864 121.442C97.7864 123.193 98.2038 123.383 98.8875 122.887C99.4815 122.459 100.045 121.29 100.182 120.988C100.213 119.536 100.322 118.004 100.356 116.9C99.7336 116.908 99.1312 116.928 98.7727 116.956C97.9377 117.037 98.2039 116.311 98.8119 116.275C99.3302 116.241 99.8037 116.048 100.381 115.992C100.443 114.078 100.633 112.366 100.633 111.145C100.633 109.817 101.409 110.086 101.888 110.313C102.536 110.615 102.46 110.954 102.306 112.137C102.239 112.663 102.101 114.188 101.97 115.953C102.477 115.936 102.631 115.953 103.219 116.124C104.13 116.39 103.219 116.88 102.496 116.88C102.351 116.88 102.141 116.88 101.905 116.883C101.771 118.8 101.659 120.843 101.659 122.168C101.659 124.981 102.687 124.942 103.258 124.331C103.83 123.726 104.054 122.776 104.054 122.776L104.371 123.429C104.208 122.294 104.2 120.812 104.511 118.954C105.158 115.09 106.769 115.141 107.262 115.323C107.755 115.505 108.221 116.074 108.481 116.466C108.742 116.853 109.367 117.138 109.367 117.138C109.675 117.27 109.521 117.559 109.389 118.307C109.26 119.06 109.103 120.75 108.974 122.072C108.845 123.398 109.283 124.07 109.753 124.017C110.045 123.986 110.412 123.768 110.653 123.599C110.518 122.411 110.557 120.282 110.557 118.514C110.557 116.516 111.104 115.995 111.908 116.133C112.404 116.203 112.558 116.984 112.426 117.845C112.297 118.696 112.194 120.178 112.138 122.409C112.09 124.639 112.894 124.771 113.284 124.488C113.561 124.283 113.861 123.913 114.012 123.714V123.689C113.973 121.938 114.27 119.231 114.43 117.609C114.62 115.668 115.407 115.701 115.912 115.973C116.408 116.239 116.368 117.491 116.368 117.491C116.368 117.491 117.358 116.275 118.229 115.701C119.103 115.135 119.369 115.782 119.33 116.729C119.296 117.685 119.215 120.307 119.215 122.05C119.215 123.798 119.577 124.575 120.257 124.084C120.412 123.969 120.56 123.812 120.703 123.628C120.529 122.891 120.417 121.988 120.417 120.856C120.417 116.805 122.222 114.073 124.16 114.987C126.071 115.886 126.363 120.649 122.471 123.176C122.645 124.44 123.006 125.255 123.6 125.345C124.455 125.466 125.108 124.591 125.707 123.558C125.559 122.818 125.469 121.938 125.469 120.857C125.469 116.805 127.296 114.073 129.235 114.987C131.143 115.886 131.224 120.568 127.542 123.177C127.719 124.44 128.075 125.345 128.674 125.345C129.383 125.345 130.695 124.314 131.493 121.409C132.289 118.5 132.404 116.847 132.404 116.39C132.404 115.934 132.745 115.878 133.258 116.276C133.771 116.671 134.343 116.956 134.738 116.956C135.141 116.956 135.424 117.304 135.197 118.382C134.97 119.47 134.455 122.322 134.401 123.46C134.343 124.6 135.197 125.796 136.45 123.86C137.705 121.919 138.218 118.158 138.615 116.903C139.013 115.651 139.358 115.651 139.7 115.934C140.042 116.219 139.7 116.561 140.042 116.785C140.386 117.015 140.61 117.816 140.61 118.726ZM110.71 112.566C110.71 111.891 111.222 111.344 111.856 111.344C112.486 111.344 112.996 111.891 112.996 112.566C112.996 113.238 112.486 113.787 111.856 113.787C111.222 113.787 110.71 113.238 110.71 112.566Z" fill="white"/>
</svg>
