<svg width="201" height="200" viewBox="0 0 201 200" fill="none" xmlns="http://www.w3.org/2000/svg">
<path d="M150.957 23.4599V72.901L145.949 72.8768L165.907 126.19L183.018 126.213V175.693H18.0938V126.279L35.0843 126.298L55.2183 72.833L50.103 72.8462L50.1231 23.4414L150.958 23.4576L150.957 23.4599Z" fill="white"/>
<path d="M100.558 41.7909H132.41V54.5307H119.178L153.967 144.2H164.257V157.392H121.136V144.558H109.032V169.724H177.089V132.197L161.807 132.224L137.308 66.9101H145.002V29.4062H100.554H56.1073V66.9101H63.8033L39.3024 132.141L24.0195 132.198V169.725H92.084V144.558H79.9758V157.393H36.8546V144.201H47.1443L81.9335 54.531H68.7032V41.7912H100.555L100.558 41.7909Z" fill="#00205C"/>
<path d="M100.524 41.9062L135.847 133.505C135.847 133.505 140.373 144.653 147.723 144.653H122.003C122.003 144.653 123.295 144.841 124.583 142.695C125.32 141.47 124.698 139.631 124.698 139.631L116.744 119.183H100.522H84.3669L76.4023 139.631C76.4023 139.631 75.7948 141.47 76.5295 142.695C77.8112 144.841 79.0989 144.653 79.0989 144.653H53.3809C60.7276 144.653 65.2591 133.505 65.2591 133.505L100.527 41.9062M100.498 109.473H112.942L100.742 77.3403L88.1115 109.473H100.498Z" fill="#C10230"/>
</svg>
