<svg width="201" height="201" viewBox="0 0 201 201" fill="none" xmlns="http://www.w3.org/2000/svg">
<path d="M150.202 34.2948C122.402 46.1872 114.645 66.7054 114.628 66.7489L114.308 67.592L115.089 67.1344C117.318 65.816 121.38 63.6059 124.164 62.4624C120.918 69.3746 116.177 82.6922 114.261 92.142C114.096 92.9828 113.812 93.6758 113.664 94.3456C113.575 94.7748 113.492 95.0474 113.321 95.3755C113.12 95.7634 112.753 96.0773 112.322 96.4197C111.973 96.7153 110.075 97.6435 110.075 97.6435C110.063 97.6522 109.643 97.8723 109.188 98.0893C108.958 98.1999 108.721 98.3111 108.526 98.3915C108.514 98.3969 108.502 98.4013 108.491 98.4056L108.39 96.6803C107.746 80.4559 107.533 70.2757 107.533 62.661C107.533 54.5173 107.775 49.3091 108.006 42.7621C109.803 44.2261 115.278 48.762 115.284 48.7644L115.869 49.2516L115.804 48.4919C114.71 35.9792 111.021 24.0062 108.514 17.1817C107.692 14.9415 106.859 12.9786 106.06 11.2812C103.347 5.52069 100.982 0.98941 100.869 0.772476L100.586 0.234436L100.314 0.772476C100.195 0.989471 97.8363 5.52069 95.1225 11.2812C94.3184 12.9786 93.4907 14.9416 92.6629 17.1817C90.156 24.0065 86.4667 35.9792 85.3728 48.4919L85.3078 49.2445L85.8931 48.7644C85.8993 48.759 91.374 44.2261 93.1713 42.7621C93.4019 49.3095 93.6502 54.5173 93.6502 62.6611C93.6502 70.2757 93.4315 80.456 92.7929 96.6825L92.6865 98.4053C92.113 98.1718 91.1138 97.6503 91.1138 97.6503C91.1015 97.6503 89.21 96.715 88.8553 96.4195C88.4237 96.0771 88.063 95.7632 87.8502 95.3753C87.6846 95.0472 87.6019 94.7746 87.5132 94.3453C87.3654 93.6755 87.0816 92.9825 86.916 92.1418C85.0004 82.6914 80.2646 69.3738 77.0127 62.4622C79.7975 63.6057 83.8594 65.8157 86.0943 67.1342L86.8688 67.5942L86.5495 66.7487C86.5318 66.7049 78.7805 46.1869 50.9749 34.2946L50.0762 33.9162L50.5787 34.7475C50.5849 34.7635 54.002 40.4613 57.8569 47.9394C61.7119 55.4157 65.9984 64.6557 67.7306 71.6609C69.3329 78.1687 74.2875 99.2464 74.2816 117.103C74.2816 118.9 74.2343 120.662 74.122 122.376L74.7251 122.542C74.7251 122.535 75.6711 120.707 76.8595 118.574C77.8705 116.764 79.0648 114.727 79.9931 113.441L85.8937 159.979L86.5263 159.961L88.7493 125.121L100.278 200.234H100.905L112.423 125.117L114.652 159.96L115.284 159.978L121.185 113.44C122.113 114.726 123.313 116.763 124.319 118.573C125.513 120.705 126.453 122.534 126.453 122.541L127.056 122.375C126.944 120.661 126.896 118.899 126.896 117.1C126.896 99.2453 131.845 78.1675 133.447 71.6597C135.18 64.6547 139.472 55.4137 143.327 47.9382C147.188 40.4602 150.593 34.7626 150.599 34.7463L151.108 33.9103L150.202 34.2948Z" fill="#7D2248"/>
<path d="M100.584 6.01459L100.508 6.15489C98.338 9.93288 96.7112 14.526 95.4105 17.7218C94.5 19.9596 93.7501 22.1405 93.0938 24.3641C91.5448 29.6184 90.5104 35.1427 89.0855 42.4223L89.0202 42.7667L89.2689 42.5244C89.5409 42.2542 89.818 42 90.09 41.7511C91.2429 40.6975 92.3717 39.8069 93.4064 39.0678C94.1514 38.5268 94.8556 38.0741 95.4823 37.6951C96.6706 36.9744 97.5983 36.5338 98.0476 36.3653C97.7225 36.7029 96.5705 37.8704 95.8315 38.6277L95.8012 38.6612V38.7043V38.7091C95.8012 41.0995 95.8258 44.2739 95.8554 47.9438C95.95 59.0274 96.08 77.1479 95.5301 90.7806C95.4237 93.3513 95.2991 95.7621 95.1395 97.9331C95.0863 98.6745 95.0323 99.3957 94.9673 100.079C94.9259 100.629 94.8136 101.023 94.4411 101.45C94.4116 101.485 94.3937 101.523 94.3582 101.556C93.9562 101.983 93.4903 102.072 93.1592 102.072H93.1289C92.7919 102.062 92.5207 101.97 92.3492 101.887L90.3084 100.955L86.0227 98.9982C85.8571 98.9059 85.4302 98.6676 85.1346 98.268C84.8744 97.9239 84.7042 97.6327 84.6037 97.1614C84.4618 96.4922 84.2959 95.6814 84.1126 94.7508C82.4571 86.61 79.1159 70.1193 74.1317 60.922C73.9011 60.4974 73.2515 59.3816 72.9263 58.8365C72.9263 58.8365 74.5169 59.2871 75.3386 59.5874C77.6623 60.4347 80.0331 61.5872 81.7417 62.3936L80.1872 60.5393L80.1633 60.5234C73.5651 51.3958 68.4919 46.7198 59.8954 42.1603C58.9258 41.6477 57.9323 41.1348 56.874 40.6216L56.5137 40.4494L56.7321 40.7763C70.7741 62.2208 74.4454 85.9717 77.2362 109.187L77.3191 109.866L80.441 107.148L94.6419 114.393L94.6722 122.393H100.584H106.509L106.538 114.393L120.741 107.148L123.863 109.866L123.939 109.187C126.73 85.9717 130.408 62.2208 144.45 40.7763L144.662 40.4494L144.308 40.6216C143.25 41.1348 142.256 41.6476 141.286 42.1603C132.69 46.7193 127.61 51.3954 121.012 60.5234L120.995 60.5393L119.434 62.3936C121.148 61.5871 123.519 60.4347 125.843 59.5874C126.665 59.2871 128.249 58.8365 128.249 58.8365C127.918 59.3816 127.274 60.4975 127.044 60.922C122.059 70.1188 118.719 86.6092 117.069 94.7508C116.88 95.6814 116.719 96.4922 116.572 97.1614C116.477 97.6327 116.306 97.9239 116.045 98.268C115.744 98.6676 115.325 98.906 115.159 98.9982L110.867 100.955L108.826 101.887C108.655 101.97 108.383 102.063 108.046 102.072H108.016C107.697 102.072 107.224 101.983 106.822 101.556C106.78 101.523 106.764 101.485 106.734 101.45C106.362 101.023 106.248 100.629 106.213 100.079C106.148 99.3957 106.089 98.6745 106.036 97.9331C105.882 95.7621 105.758 93.3513 105.651 90.7806C105.102 77.1479 105.232 59.0274 105.326 47.9438C105.356 44.274 105.38 41.0995 105.374 38.7091V38.7043V38.6612L105.344 38.6277C104.605 37.8704 103.459 36.7029 103.128 36.3653C103.583 36.5338 104.505 36.9743 105.693 37.6951C106.32 38.0741 107.023 38.5268 107.774 39.0678C108.808 39.8069 109.932 40.6975 111.085 41.7511C111.357 42 111.635 42.2542 111.913 42.5244L112.155 42.7667L112.09 42.4223C110.665 35.143 109.63 29.6191 108.081 24.3641C107.425 22.1404 106.675 19.9596 105.758 17.7218C104.463 14.5256 102.831 9.93245 100.667 6.15489L100.584 6.01459ZM94.642 124.078V128.155H106.538V124.078H100.59H94.642ZM95.9254 129.743V132.732H100.584H105.256V129.743H95.9254ZM94.6484 134.319L94.6723 134.488L95.0629 138.362H100.584H106.119L106.509 134.488L106.527 134.319H106.496H100.584H94.6484ZM95.2877 139.952L100.584 187.762L105.894 139.952H100.584H95.2877Z" fill="#FFC72C"/>
</svg>
