<svg width="201" height="201" viewBox="0 0 201 201" fill="none" xmlns="http://www.w3.org/2000/svg">
<g clip-path="url(#clip0_15016_302137)">
<path d="M105.527 234.478C103.128 234.293 95.3763 218.606 95.3763 218.606C90.7624 220.636 88.5478 227.833 88.5478 227.833C88.5478 227.833 78.5817 223.958 78.9508 211.777C77.1053 212.146 75.2597 215.468 74.7061 218.975C69.3539 217.314 68.062 206.425 70.4613 202.734C65.8474 192.768 62.5254 182.433 56.9887 172.651C48.4991 165.638 36.503 170.806 28.5671 175.42C26.1678 177.265 23.0304 179.295 21.923 182.248C20.8157 181.695 19.8929 180.956 19.5238 178.188C19.7084 161.578 7.71222 161.947 -2.43835 145.522C-3.36114 144.045 -3.73024 142.753 -5.02213 140.354C-7.2368 141.646 -9.63603 148.105 -9.63603 148.105C-21.8167 139.8 -23.2932 125.959 -19.4175 118.945C-22.7395 120.606 -24.5851 124.667 -27.3534 127.435C-31.0445 123.559 -31.2291 121.345 -31.5982 117.838C-31.0445 99.0134 -6.68314 83.1417 7.52767 76.8668C29.8589 66.9008 37.0566 68.008 40.1941 68.7463C48.13 70.9609 51.8211 80.0041 59.0188 83.6953C64.3709 87.5709 72.6759 87.3863 78.2126 83.8798C79.1354 83.3261 80.0582 82.9569 80.981 82.2187C64.0018 82.5878 51.2674 72.2529 38.7176 62.1023C1.43732 62.1023 -33.4438 94.7686 -33.4438 94.7686C-34.182 87.5709 -33.4438 70.961 -23.8468 60.2567C-25.877 59.1494 -33.6283 63.5786 -38.6113 69.2998C-33.8129 53.6125 -29.7526 39.4019 -8.5287 25.1911C-4.83757 20.9463 -5.94491 13.3794 -7.60592 10.9801C-13.8808 -2.49245 -16.2801 -18.7333 -12.0353 -33.4978C-9.45148 -46.9704 2.54467 -72.6237 3.28289 -72.9928C4.94389 -72.0701 16.5709 -57.3055 31.7045 -52.3224C41.8551 -49.0004 52.1902 -44.3866 58.8342 -34.4206C66.0319 -35.5279 69.1694 -42.541 73.5987 -46.7857C80.2427 -43.0946 85.4103 -37.9271 93.5308 -41.0645C100.359 -43.8329 101.282 -49.185 105.342 -53.2452C109.218 -49.185 110.325 -44.0175 117.154 -41.0645C125.274 -37.9271 130.442 -43.0946 137.086 -46.7857C141.515 -42.541 144.468 -35.5279 151.85 -34.4206C158.494 -44.3866 168.83 -48.8159 178.98 -52.3224C194.114 -57.3055 205.741 -72.0701 207.402 -72.9928C208.14 -72.6237 220.136 -46.9704 222.72 -33.4978C226.965 -18.7333 224.566 -2.49245 218.291 10.9801C216.814 13.3794 215.707 20.7617 219.213 25.1911C240.437 39.4019 244.498 53.6125 249.296 69.2998C244.313 63.7631 236.562 59.3339 234.532 60.4413C244.128 71.1455 244.867 87.7554 244.128 94.9531C244.128 94.9531 209.247 62.1022 171.967 62.2868C159.602 72.4374 146.683 82.7726 129.704 82.4035C130.442 83.1417 131.549 83.5106 132.472 84.0643C138.009 87.5708 146.314 87.7554 151.666 83.8798C158.864 80.1886 162.555 71.1454 170.491 68.9308C173.628 68.1926 180.826 67.0853 203.342 77.0513C217.552 83.3262 241.729 99.0134 242.283 117.838C241.729 121.529 241.729 123.559 238.038 127.435C235.27 124.851 233.424 120.606 230.102 119.13C233.978 126.328 232.501 139.985 220.321 148.29C220.321 148.29 217.737 141.83 215.707 140.539C214.415 142.938 214.046 144.23 213.123 145.706C202.788 162.132 190.976 161.762 191.161 178.372C190.792 181.325 189.869 181.879 188.762 182.433C187.839 179.48 184.517 177.265 182.118 175.604C174.182 170.99 162.37 165.823 153.696 172.836C148.159 182.433 144.837 192.952 140.223 202.918C142.623 206.61 141.146 217.498 135.979 219.159C135.425 215.653 133.579 212.331 131.734 211.962C132.103 224.327 122.137 228.018 122.137 228.018C122.137 228.018 119.922 220.82 115.308 218.975C115.493 218.606 107.926 234.293 105.527 234.478Z" fill="black"/>
<path d="M4.33283 -55.4971C-1.13003 -43.8331 -4.37821 -31.1357 -4.37821 -17.4047C-4.08292 -4.26432 4.33283 6.3661 1.82287 19.9494C5.95692 18.1777 9.5004 17.5871 13.4868 17.8824C19.0973 5.48023 8.31924 -7.51251 1.52758 -16.5188C1.23229 -17.1094 7.28573 -12.8277 9.94333 -13.8612C-1.27767 -24.6393 1.67522 -36.7462 4.77576 -42.5043C5.07105 -39.9944 5.66163 -38.6656 7.28572 -37.0415C15.1109 -28.7734 26.0366 -24.344 29.7277 -13.7136C30.3183 -31.431 11.5674 -41.4708 4.33283 -55.4971ZM205.277 -53.5777C198.043 -39.5514 179.292 -29.5116 179.882 -11.7942C183.574 -22.4246 194.499 -26.854 202.472 -35.2697C204.096 -36.7462 204.687 -38.2226 204.982 -40.5849C208.083 -34.9744 211.036 -22.7199 199.815 -11.9419C202.472 -10.9083 208.673 -15.19 208.23 -14.5995C201.291 -5.59313 190.513 7.39961 196.123 19.8018C200.257 19.6541 203.801 20.2447 207.787 21.8688C205.277 8.28548 213.693 -2.1973 213.988 -15.4853C213.988 -29.3639 210.74 -41.9137 205.277 -53.5777ZM179.144 -41.9137C170.581 -36.3032 149.468 -30.8404 157.883 5.62788C158.326 7.10432 151.535 3.7085 147.991 6.21846C155.669 11.829 162.313 19.5065 166.742 27.4793C172.057 23.9358 178.849 20.9829 184.607 19.8018C170.729 4.59436 166.004 -16.6665 173.386 -32.0215C175.01 -35.4174 176.93 -38.8132 179.144 -41.9137ZM29.8754 -41.6185C32.0901 -38.5179 34.0094 -35.2697 35.6335 -31.8739C43.0158 -16.5188 38.2911 4.74201 24.4125 19.9494C30.3183 21.1306 36.9623 24.0835 42.2775 27.6269C46.7069 19.8018 53.3509 11.9766 61.0284 6.3661C57.485 3.85614 50.8409 7.25197 51.1362 5.77552C59.6996 -30.5451 38.4388 -36.008 29.8754 -41.6185ZM105.47 -28.0351C105.47 -28.0351 96.4632 -11.3513 75.9406 -23.1629C73.1353 -19.6194 69.4442 -15.9283 64.8672 -14.5995C65.9007 -9.1366 65.9007 -9.1366 65.3101 -2.34494C68.5583 -4.11668 70.4777 -6.77429 73.1353 -9.57954C76.3835 -8.84132 76.6788 -3.08317 80.6652 -3.67375C85.0945 -7.06958 89.2286 -11.3513 94.5438 -12.6801C96.4632 -10.0225 91.148 -8.69367 92.4768 -5.29784C95.4297 -3.08317 98.5302 -1.45907 101.335 1.19853C102.074 1.93676 101.778 3.11791 100.893 3.56085C68.4107 -2.04966 48.4786 34.7139 45.821 39.8815C34.7477 33.3851 22.9361 26.5934 8.61453 30.2846C-2.31118 33.2375 -11.7605 40.915 -19.438 50.2166C-16.7804 49.3307 -12.794 50.3643 -8.51227 53.9077C-15.4516 60.5518 -18.4045 66.7528 -20.6191 74.4303C-13.0893 70.001 1.97051 56.713 37.8482 56.713C36.0765 53.0219 34.1571 49.9213 34.3047 46.6731C35.3382 45.7873 34.8953 46.0826 36.8147 44.9014C41.9823 53.7601 50.398 62.0282 59.552 66.7528C66.196 69.1151 72.3971 72.6586 79.927 72.6586C88.9333 71.7727 95.1344 79.155 100.893 85.5037C100.745 86.9801 102.369 88.6042 100.154 89.1948C96.9061 88.1613 93.3626 87.866 89.9668 87.1278C82.8799 93.6242 74.6117 98.6441 64.5719 96.7247C54.3844 94.3624 44.7875 89.7854 37.7006 80.9267C36.3717 82.2555 35.1906 83.732 34.0094 85.0608C29.1372 91.2619 23.8219 97.6106 22.7884 104.993C28.2513 103.959 39.7676 104.107 45.6734 110.751C43.6063 111.489 34.7477 117.838 32.8283 126.549C36.667 124.63 40.8011 122.415 53.4985 118.281C54.0891 118.576 54.8274 119.167 54.5321 119.757C52.3174 125.22 47.1498 130.683 50.6933 137.327C54.3844 144.266 69.7395 146.629 71.6589 148.4C74.907 155.783 76.9741 162.131 79.927 169.366C80.5175 171.138 82.7322 172.614 84.2087 173.5C91.4433 175.272 98.6778 176.01 105.765 176.01C112.999 176.01 120.529 175.272 127.616 173.352C128.945 172.614 131.307 170.99 131.898 169.218C134.851 161.984 136.918 155.487 140.166 148.105C142.085 146.333 157.44 143.971 161.132 137.032C164.527 130.535 159.508 124.925 157.145 119.462C156.85 118.871 157.736 118.281 158.179 117.986C170.876 122.12 175.01 124.482 178.849 126.254C176.782 117.543 168.219 111.194 166.004 110.456C171.762 103.812 183.278 103.664 188.741 104.698C187.708 97.1676 182.245 90.9666 177.52 84.7655C176.339 83.4367 175.158 81.9602 173.829 80.6314C166.742 89.4901 157.145 94.0671 146.958 96.4294C136.918 98.3488 128.65 93.3289 121.563 86.8325C118.167 87.5707 114.623 87.866 111.375 88.8995C109.308 88.309 110.932 86.8325 110.785 85.2084C116.395 79.0073 122.596 71.4775 131.603 72.3633C139.28 72.3633 145.334 68.8199 152.125 66.4575C161.132 61.8805 169.547 53.4648 174.863 44.6061C176.782 45.7873 176.339 45.3443 177.373 46.3778C177.52 49.626 175.601 52.7266 173.829 56.4177C209.854 56.4177 224.619 69.5581 232.149 74.1351C229.934 66.6052 226.981 60.2564 219.894 53.6124C224.176 50.2166 228.162 49.0354 230.82 49.9213C223.142 40.472 213.693 32.7945 202.767 29.9893C188.298 26.4458 176.634 33.0898 165.561 39.5862C162.608 34.7139 142.676 -2.1973 110.194 3.56085C109.308 2.97027 109.013 1.78911 109.751 1.19853C112.556 -1.45907 115.657 -3.08317 118.61 -5.29784C119.939 -8.69367 114.623 -10.0225 116.543 -12.6801C121.858 -11.3513 125.992 -7.06958 130.421 -3.67375C134.408 -3.08317 134.703 -8.98896 137.951 -9.57954C140.609 -6.77429 142.528 -4.11668 145.777 -2.34494C145.334 -9.28425 145.186 -9.43189 146.219 -14.5995C141.642 -15.9283 137.951 -19.6194 135.146 -23.1629C114.476 -11.3513 105.47 -28.0351 105.47 -28.0351ZM61.4714 156.373C66.0483 169.218 71.8065 181.473 76.6788 194.318C78.8935 199.928 82.4369 200.519 86.2757 204.801C87.7521 206.572 89.2286 208.639 89.3762 210.707C91.4433 208.787 102.221 208.935 105.617 215.579C109.013 208.935 119.643 208.787 121.71 210.707C121.71 208.639 123.335 206.572 124.811 204.801C128.65 200.519 132.193 199.928 134.408 194.318C139.133 181.473 145.038 169.218 149.615 156.373C147.696 156.373 145.481 156.816 144.743 159.031C142.381 164.937 130.274 193.432 126.14 199.338C126.14 199.338 122.596 206.868 105.765 206.868C88.9333 206.868 85.3898 199.338 85.3898 199.338C81.2558 193.284 69.0012 164.937 66.7866 159.031C65.6054 156.816 63.5384 156.373 61.4714 156.373Z" fill="#CC092F"/>
<path d="M81.9941 181.325C83.9135 185.164 85.8329 189.003 87.8999 192.546L92.034 185.016C92.7722 185.902 95.4298 187.969 97.4968 189.593C98.0874 188.855 100.007 186.936 101.188 185.459C102.664 186.788 104.731 187.969 105.47 188.707C106.208 187.969 108.275 186.788 109.751 185.459C110.933 186.788 113 188.707 113.442 189.593C115.51 187.969 118.167 185.902 118.905 185.016L123.039 192.546C124.959 189.003 127.026 185.164 128.798 181.325C119.791 183.688 114.919 183.688 105.322 183.54C95.8727 183.688 91.0005 183.835 81.9941 181.325ZM108.423 196.533C107.684 197.271 106.798 197.714 105.47 199.781C103.993 197.714 103.107 197.566 102.517 196.68C100.597 198.895 100.745 198.895 99.1209 200.371C97.2016 198.895 96.7586 198.6 94.8392 197.123L92.034 199.928C96.9063 203.915 101.926 203.029 105.47 203.767C109.013 203.029 114.181 203.767 118.905 199.928L116.1 196.976C114.181 198.452 113.738 198.747 111.966 200.371C110.194 198.6 110.342 198.452 108.423 196.533Z" fill="#FEFEFE" stroke="white" stroke-width="0.435995" stroke-miterlimit="5.9058"/>
<path d="M86.8665 41.801C89.0811 46.2304 88.9335 50.955 88.9335 50.955C78.8937 40.7675 47.4453 46.6733 47.4453 46.6733C55.5658 50.2168 77.7125 46.9686 91.4435 72.2159C98.8257 67.3436 98.5304 47.1162 86.8665 41.801ZM123.63 41.9487C111.966 47.2639 111.671 67.4912 119.053 72.3635C132.784 46.9686 154.783 50.3644 163.051 46.8209C163.051 46.8209 131.603 40.9152 121.563 51.1026C121.711 51.1026 121.415 46.378 123.63 41.9487ZM96.1681 97.7584C87.3094 97.7584 81.4036 106.469 76.8266 113.409C76.236 114.295 76.679 115.476 77.8601 115.328C83.323 111.637 88.4906 106.469 95.1346 105.584C99.2686 104.845 102.664 106.027 105.47 108.684C108.127 106.027 111.671 104.698 115.805 105.584C122.449 106.617 127.469 111.637 132.932 115.328C134.26 115.476 134.556 114.295 133.965 113.409C128.798 105.436 121.858 95.3961 110.637 98.349C109.013 98.6443 107.389 99.8254 105.47 101.154C103.403 99.8254 101.779 98.6443 100.154 98.349C98.8257 97.9061 97.4969 97.7584 96.1681 97.7584ZM97.2016 117.395C89.2288 117.395 83.9136 125.073 79.7795 131.421C79.3366 132.16 79.6319 133.341 80.6654 133.193C85.6853 129.797 90.2623 125.22 96.1681 124.334C99.8592 123.596 102.96 124.777 105.47 127.14C107.832 124.777 110.933 123.596 114.624 124.334C120.677 125.22 125.106 129.797 130.126 133.193C131.308 133.341 131.455 132.16 131.012 131.421C126.288 124.187 120.087 115.18 110.047 117.838C108.57 117.986 107.241 119.019 105.322 120.348C103.403 119.019 102.074 118.133 100.597 117.838C99.4163 117.543 98.2351 117.395 97.2016 117.395ZM105.47 139.099C103.846 139.099 101.926 139.69 100.154 140.575C96.1681 142.938 92.6246 140.723 88.4906 141.461C85.833 142.642 83.0277 144.709 81.6989 147.367C78.8937 155.34 84.3565 160.95 87.7523 166.709C91.0005 170.252 96.0205 169.514 100.302 168.333C101.926 166.561 103.698 165.97 105.617 165.97C107.537 165.97 109.308 166.709 110.933 168.333C115.214 169.514 120.234 170.252 123.482 166.709C126.731 160.803 132.193 155.192 129.388 147.367C128.059 144.709 125.106 142.642 122.597 141.461C118.462 140.723 114.771 142.938 110.933 140.575C109.013 139.542 107.094 139.099 105.47 139.099Z" fill="black" stroke="black" stroke-width="0.435995" stroke-miterlimit="5.9058"/>
</g>
<path d="M131.776 92.5097L135.124 92.5105L135.12 104.572L131.776 92.5097ZM66.949 92.4991L70.2999 92.4979L66.9537 104.543L66.949 92.4991ZM131.724 67.6768L131.729 47.3881L70.3366 47.3798L70.3157 67.678L1.6798 67.6504L1.66797 132.927L42.1058 132.938H59.057L53.4182 153.221L148.631 153.238L143 132.952L159.952 132.955L200.394 132.96L200.406 67.6875L131.723 67.676" fill="white"/>
<path d="M79.6465 56.7041L79.6422 71.153L87.4271 71.1537C85.0908 79.5625 72.9009 124.431 67.5469 142.457L67.1064 143.942L92.056 143.948L92.0585 129.5L86.3698 129.498L91.4882 111.595L110.54 111.598L115.652 129.502L109.964 129.501L109.961 143.95L134.884 143.956L124.381 106.094C121.855 96.997 119.331 87.8994 117.435 81.0729L115.144 72.8249C114.956 72.142 114.803 71.5958 114.679 71.1589H122.399L122.402 56.7119L79.6479 56.7039L79.6465 56.7041ZM10.2551 76.2754L10.2508 104.133L26.4452 104.135L26.4328 116.715L17.8852 116.717V112.671H10.247L10.2451 124.352L34.0616 124.357L34.0659 96.4959H17.887L17.8919 83.9145L26.4519 83.9157V87.9599H34.068V76.2794L10.2553 76.2757L10.2551 76.2754ZM42.6054 76.2779V83.9199L50.6909 83.9205L50.6854 124.359H58.3217L58.329 83.9205L66.4177 83.923V76.2855L42.6054 76.2779ZM135.618 76.297V83.9333L143.704 83.9346L143.697 124.373L151.337 124.376L151.343 83.9377L159.432 83.9352L159.434 76.2976L135.619 76.2958L135.618 76.297ZM167.972 76.3013L167.962 124.38L191.779 124.382V116.745L175.602 116.743L175.605 104.161L191.782 104.163L191.784 96.5244L175.606 96.5189L175.608 83.9412L191.787 83.9455V76.3048L167.972 76.3017L167.972 76.3013ZM101.022 76.6143L107.568 101.195L94.464 101.192L101.022 76.6143Z" fill="#CC092F"/>
<path d="M72.7198 49.7747L72.7166 69.9937L3.96555 69.9832L3.95508 130.643L40.3527 130.653L40.3595 91.1067L44.4018 91.1079L44.3938 130.654L62.1446 130.653L56.5244 150.873L98.9851 150.878L98.9919 122.573L96.183 122.571L96.9692 118.529H105.059C105.059 118.529 105.993 122.575 105.957 122.575C105.957 122.575 103.084 122.562 103.035 122.573L103.03 150.88L145.494 150.887C145.513 150.889 143.086 142.118 139.905 130.666L157.629 130.671L157.633 91.1286L161.682 91.128L161.676 130.674L198.067 130.678L198.076 70.0181L129.331 70.0051L129.334 49.7874L72.7183 49.7769L72.7198 49.7747ZM76.7614 53.8176L125.288 53.828L125.287 70.0026V74.0474L119.218 74.0467L139.425 146.839L107.078 146.833L107.08 126.614H111.35C111.461 126.617 108.205 114.483 108.205 114.483L93.8275 114.482C93.8867 114.835 90.9046 126.612 90.9046 126.612L94.9482 126.611L94.9438 146.833L63.0131 146.823L83.0479 74.0377H76.758L76.7629 53.8168L76.7614 53.8176ZM8.01036 74.0278L36.319 74.0345L36.3165 90.2043L24.1849 90.2037V86.163L20.1394 86.1593V94.248L36.3139 94.2498L36.3103 126.603L8.00163 126.597L8.00409 110.421L20.135 110.423V114.467H24.1799V106.381L8.00409 106.378L8.01025 74.0273L8.01036 74.0278ZM40.3638 74.0345L68.6718 74.0382L68.6693 86.1698H60.5812L60.5751 126.605L48.4422 126.604L48.4484 86.1654L40.3616 86.1641L40.3635 74.0344L40.3638 74.0345ZM133.374 74.0475L161.684 74.053L161.682 86.1846L153.591 86.1827L153.584 126.625L141.452 126.623L141.462 86.184L133.372 86.1814L133.374 74.0486L133.374 74.0475ZM165.727 74.0542L194.034 74.0598L194.033 86.1908L177.857 86.1882V94.275L194.033 94.2769L194.03 106.41L177.855 106.405L177.854 114.495L194.027 114.499L194.026 126.631L165.719 126.625L165.727 74.0533L165.727 74.0542ZM72.7141 78.0808L76.7564 78.082L64.6169 121.754L64.6212 90.2095L72.7115 90.212L72.714 78.0798L72.7141 78.0808ZM125.285 78.09L129.269 78.0919L129.267 90.2228L137.417 90.226L137.409 121.682C131.785 101.426 125.286 78.0887 125.286 78.0887L125.285 78.09ZM101.021 86.3986L97.8742 98.3065L103.941 98.3077L101.021 86.3986Z" fill="black"/>
<defs>
<clipPath id="clip0_15016_302137">
<rect width="200" height="200" fill="white" transform="translate(0.84375 0.621094)"/>
</clipPath>
</defs>
</svg>
