<svg width="200" height="200" viewBox="0 0 200 200" fill="none" xmlns="http://www.w3.org/2000/svg">
<path fill-rule="evenodd" clip-rule="evenodd" d="M44.8314 136.799C43.3713 135.742 42.547 134.495 42.1089 133.157C42.5472 134.493 43.3715 135.74 44.8305 136.796C48.4392 139.405 55.4707 135.729 63.6148 131.472L63.6234 131.468L63.7632 131.395L63.7634 131.395C67.6989 129.343 71.7331 127.239 74.3287 126.573L81.4744 130.89C84.4102 133.784 85.5193 133.958 85.8835 134.012C86.3837 134.09 87.143 134.105 88.0202 134.121C88.533 134.129 89.3341 134.145 89.7545 134.183C89.8778 134.273 90.0137 134.38 90.1605 134.496L90.1645 134.499L90.1646 134.499L90.1646 134.499C92.4092 136.247 96.5816 139.496 100.103 139.496C103.495 139.496 105.42 137.878 106.957 135.899C106.957 135.899 112.432 136.459 112.437 136.461C115.889 136.803 118.963 134.953 120.452 131.633C121.043 130.312 121.578 130.06 123.16 129.315L123.388 129.208L123.394 129.205C125.003 128.463 129.811 126.247 131.087 120.384L131.106 120.355C131.226 120.169 131.377 119.936 131.554 119.681C132.899 119.922 134.008 119.909 134.655 119.9H134.872C136.54 119.9 137.489 119.512 138.013 119.155C138.867 118.808 141.373 118.26 143.631 118.244C146.293 119.02 149.361 118.356 150.266 118.126L153.899 117.2L153.972 117.18L154.042 117.157C157.393 115.995 161.538 115.846 164.358 116.792C164.697 116.906 166.232 117.712 167.615 118.438C168.712 119.014 169.713 119.54 169.95 119.632C171.402 120.194 172.66 120.68 174.012 120.565C175.276 120.515 176.407 119.942 177.458 118.808C178.067 118.162 179.879 116.223 179.229 114.11C181.808 114.11 183.281 112.53 184.887 110.809C185.475 110.177 186.081 109.527 186.766 108.929C188.202 107.674 189.629 106.913 190.866 106.254C193.058 105.085 194.655 104.234 194.655 101.515C194.655 101.156 194.609 100.826 194.525 100.524C194.609 100.827 194.656 101.158 194.656 101.518C194.656 104.237 193.059 105.088 190.867 106.256C189.63 106.916 188.203 107.677 186.767 108.932C186.082 109.53 185.476 110.18 184.888 110.811L184.888 110.811C184.067 111.691 183.281 112.534 182.365 113.148C181.488 113.735 180.491 114.113 179.23 114.113C179.433 114.774 179.396 115.417 179.23 116.01C178.865 117.312 177.878 118.367 177.459 118.81C176.408 119.945 175.277 120.518 174.012 120.568C172.661 120.682 171.403 120.197 169.951 119.635C169.714 119.543 168.713 119.017 167.616 118.441L167.615 118.441C166.232 117.714 164.698 116.908 164.359 116.795C161.539 115.849 157.394 115.998 154.043 117.16L153.973 117.183L153.9 117.203L150.267 118.129C149.362 118.359 146.294 119.022 143.632 118.247C141.374 118.263 138.868 118.81 138.014 119.158C137.49 119.515 136.541 119.903 134.873 119.903H134.656C134.009 119.912 132.9 119.925 131.555 119.684C131.378 119.939 131.227 120.172 131.107 120.358L131.106 120.358L131.088 120.387C129.812 126.25 125.004 128.466 123.395 129.208L123.389 129.211L123.161 129.318C121.579 130.063 121.044 130.315 120.453 131.636C118.964 134.956 115.89 136.806 112.438 136.463C112.432 136.462 106.958 135.902 106.958 135.902C105.421 137.881 103.496 139.499 100.104 139.499C96.5825 139.499 92.41 136.25 90.1654 134.502L90.1614 134.499C90.0146 134.383 89.8787 134.276 89.7555 134.185C89.335 134.147 88.534 134.132 88.0211 134.124C87.144 134.108 86.3846 134.093 85.8844 134.015C85.5202 133.961 84.4111 133.787 81.4753 130.893L74.3297 126.576C71.7341 127.242 67.7 129.346 63.7644 131.398L63.7642 131.398L63.764 131.398L63.6244 131.471L63.6157 131.475C55.4717 135.732 48.4402 139.407 44.8314 136.799ZM40.6587 116.662C41.1115 117.402 41.4453 118.141 41.6863 118.877C41.4453 118.142 41.1119 117.404 40.6596 116.665C38.3942 114.409 37.31 112.418 36.8018 110.915C37.3104 112.418 38.3947 114.408 40.6587 116.662ZM36.3909 109.002L36.391 109.004C35.1598 107.585 34.5567 106.362 34.2242 105.345C34.5569 106.361 35.1602 107.584 36.3909 109.002ZM33.6273 102.822C33.6421 102.84 33.6571 102.874 33.6721 102.92C33.6574 102.875 33.6427 102.842 33.6282 102.825C33.2783 102.385 32.0414 101.905 30.947 101.481L30.9316 101.475C29.518 100.933 27.9523 100.324 26.6384 99.3255C25.8356 99.688 24.9875 99.9508 24.123 100.123C19.4872 102.916 15.223 101.915 12.6043 99.9145C12.1676 99.5812 11.6219 99.3379 11.0829 99.1635C10.6035 99.0084 10.1292 98.9077 9.74151 98.8466C9.44909 98.8005 9.2059 98.7768 9.04683 98.7692L5.45675 98.6025C5.45665 98.6025 5.45732 98.6015 5.45874 98.5997L9.04588 98.7663C9.65298 98.7953 11.4851 99.0581 12.6033 99.9116C15.2221 101.912 19.4863 102.913 24.1221 100.12C24.9865 99.9479 25.8347 99.6851 26.6374 99.3227C27.9513 100.321 29.5171 100.93 30.9306 101.472L30.946 101.478C32.0404 101.902 33.2773 102.382 33.6273 102.822ZM63.1734 74.3045L63.1714 74.3047L62.1976 73.4267L62.1994 73.4263L63.1734 74.3045ZM67.6787 72.3963L67.6766 72.3965L66.73 71.5818L66.7319 71.5814L67.6787 72.3963ZM72.4992 70.5079L72.4973 70.5082L71.6049 69.6844L71.6067 69.6841L72.4992 70.5079ZM77.2618 68.7301L77.2598 68.7303L76.1718 67.7417L76.1736 67.7413L77.2618 68.7301ZM82.086 66.7041L82.0843 66.7043L80.8655 65.4764L80.8671 65.4761L82.086 66.7041ZM86.7888 64.7649L86.7872 64.765L85.7296 63.6062L85.7311 63.606L86.7888 64.7649ZM91.7979 63.0524L91.7965 63.0524L90.6734 61.6272L90.6747 61.6271L91.7979 63.0524ZM96.9356 61.5791L96.9347 61.579L95.8764 59.8748L95.8772 59.8748L96.9356 61.5791ZM102.211 60.5678L102.211 60.5677L101.369 58.6878L101.37 58.6878L102.211 60.5678ZM190.412 97.762L190.411 97.7621V95.2177L190.413 95.2157V97.762H190.412ZM65.5609 135.742C61.6648 137.778 57.6207 139.893 54.068 141.131C50.7866 142.276 45.9765 143.404 42.0884 140.593L42.0867 140.592C36.0589 136.23 36.8549 129.626 37.2474 126.369L37.2475 126.368C37.2632 126.238 37.2783 126.113 37.2923 125.994L37.2924 125.992C37.656 122.894 37.7508 121.172 36.8922 119.51C33.826 116.307 32.4747 113.317 31.9616 110.961C30.524 109.021 29.8742 107.3 29.5269 105.952L29.3446 105.881L29.2475 105.844L29.1431 105.804L29.143 105.804L29.1429 105.804L29.1428 105.804L29.1428 105.804L29.1427 105.804C28.3312 105.493 27.2337 105.073 26.0784 104.474C25.9985 104.495 25.9186 104.515 25.8388 104.535C19.7015 107.882 13.7077 106.608 9.83533 103.691L9.8172 103.683C9.73835 103.649 9.61456 103.606 9.45039 103.563C9.28973 103.521 9.12912 103.489 8.99289 103.469C8.89399 103.453 8.83286 103.448 8.816 103.446L8.81122 103.446L5.2395 103.28L5.24315 103.201C2.36171 101.997 0.793059 98.2251 1.0125 97.1288C1.12945 96.8143 1.33878 96.3741 1.41328 96.2416C1.52024 96.0584 1.61878 95.9201 1.63732 95.8941L1.63917 95.8915C1.69507 95.8128 1.7423 95.7517 1.75268 95.7383L1.75275 95.7382L1.75373 95.7369C1.783 95.6991 1.80749 95.6686 1.81427 95.6602L1.81441 95.66L1.81478 95.6595C1.83348 95.6363 1.85133 95.6145 1.86162 95.602C1.88543 95.5729 1.91562 95.5364 1.94787 95.4975C2.01394 95.4177 2.10632 95.3065 2.21442 95.1766C2.43141 94.9158 2.72024 94.5694 3.00808 94.2243L3.80043 93.2747L4.16039 92.8436C5.86507 90.8024 7.87088 89.696 9.83338 89.1984C11.1944 87.984 13.7478 86.3542 17.6422 86.3542C18.7187 86.3542 19.7372 86.464 20.6869 86.6465C22.8495 82.9926 26.7856 80.5332 31.3753 80.5332C33.2578 80.5332 35.0715 80.9602 36.7052 81.7361C42.7464 74.936 48.9687 72.9422 53.7006 71.4339C54.0368 71.3287 54.6561 71.1839 55.0668 71.0878L55.0768 71.0855L55.0846 71.0837C55.6939 70.9411 56.5038 70.7577 57.3824 70.5699C57.799 70.4809 58.2513 70.3865 58.7188 70.2928C59.3443 69.5986 60.1748 69.0942 61.1176 68.8707L61.1196 68.8703L61.1328 68.8672L61.1667 68.8592L61.2875 68.8311C61.3905 68.8072 61.5373 68.7736 61.7193 68.7327C62.0824 68.6511 62.5897 68.5399 63.1708 68.4202L63.3012 68.3934C63.9282 67.7192 64.7519 67.2317 65.6836 67.0181L65.6855 67.0176L65.7307 67.0074L65.8468 66.9812C65.9459 66.959 66.0877 66.9276 66.265 66.889C66.6191 66.812 67.1175 66.706 67.7024 66.5885C67.8542 66.5579 68.0131 66.5264 68.1778 66.4942C68.8244 65.7996 69.6791 65.3046 70.6426 65.1022L70.6445 65.1018L70.6475 65.1012L70.6569 65.0992L70.689 65.0925L70.8039 65.0689C70.9022 65.0487 71.0427 65.0202 71.2182 64.9853C71.5595 64.9174 72.0359 64.8249 72.5929 64.7226C73.2542 63.939 74.1672 63.3789 75.2074 63.1599L75.209 63.1596L75.2582 63.1493L75.3901 63.1219C75.5033 63.0985 75.6655 63.0652 75.8663 63.0247C76.1736 62.9626 76.5731 62.8831 77.0264 62.7959C77.7323 61.7851 78.822 61.0762 80.0743 60.8615L80.0753 60.8614L80.0766 60.8612L80.08 60.8606L80.0904 60.8588L80.125 60.8529L80.2469 60.8326C80.3507 60.8155 80.4985 60.7915 80.6829 60.7624C81.0511 60.7044 81.5687 60.6259 82.1755 60.5422L82.1909 60.5401C82.903 59.7185 83.8923 59.1554 85.0025 58.9809L85.0209 58.978L85.0592 58.9721L85.1019 58.9656L85.1923 58.952C85.305 58.9351 85.4649 58.9117 85.6632 58.884C86.0079 58.8357 86.4726 58.7737 87.0111 58.7098C87.8149 57.7008 89.0139 57.0528 90.336 56.9572L90.3371 56.9572L90.3387 56.957L90.3548 56.9559L90.3949 56.9531C90.4285 56.9508 90.4756 56.9476 90.5352 56.9438C90.6542 56.9361 90.8231 56.9256 91.0321 56.9139C91.363 56.8954 91.7981 56.8737 92.298 56.855C93.2196 55.7627 94.6037 55.1386 96.0615 55.1962L96.0645 55.1964L96.081 55.197L96.1199 55.1987L96.133 55.1993L96.2527 55.2049C96.3648 55.2103 96.5233 55.2185 96.7207 55.2302C97.0711 55.2508 97.5474 55.2823 98.1076 55.3283C99.1953 54.272 100.741 53.7986 102.254 54.09L102.256 54.0904L102.27 54.0931L102.306 54.1L102.433 54.1251C102.542 54.1467 102.698 54.1778 102.892 54.2174C103.22 54.2844 103.658 54.3762 104.164 54.4869C105.255 53.7709 106.614 53.5327 107.911 53.8697L107.912 53.87L107.914 53.8704L107.917 53.8713L107.929 53.8743L107.967 53.8843L108.101 53.9198C108.214 53.9502 108.375 53.9937 108.574 54.0487C108.813 54.1144 109.107 54.1971 109.44 54.2936C110.704 53.4726 112.302 53.3026 113.727 53.872L113.729 53.8725L113.73 53.8731L113.746 53.8795L113.786 53.8955C113.819 53.909 113.866 53.928 113.925 53.9521C114.043 54.0004 114.211 54.0694 114.417 54.1558C114.828 54.3282 115.399 54.5725 116.044 54.8626L116.053 54.8667C117.273 54.4266 118.642 54.5071 119.822 55.1281L119.824 55.1289L119.826 55.1299L119.845 55.1402L119.893 55.1657C119.933 55.187 119.989 55.2171 120.06 55.2554C120.202 55.332 120.404 55.4417 120.654 55.5806C120.717 55.616 120.784 55.6533 120.854 55.6925C121.374 54.7505 122.213 53.9946 123.259 53.5881C125.027 52.9004 127.036 53.3481 128.345 54.7214L128.345 54.7222L128.346 54.7229L128.36 54.7369L128.412 54.7905C129.011 53.5271 130.158 52.5713 131.567 52.2387C133.449 51.7946 135.411 52.553 136.504 54.1478L138.091 56.4617C139.078 57.8033 140.081 58.9308 141.115 59.9659C141.69 60.0944 142.245 60.3323 142.746 60.6766L142.749 60.6782L143.225 61.0061L143.855 61.4396C144.527 61.4896 145.189 61.6845 145.795 62.0235L145.49 62.5678C145.795 62.0237 145.796 62.0243 145.797 62.0245L145.799 62.0257L145.804 62.0284L145.816 62.0353L145.851 62.0552C145.879 62.0712 145.917 62.0926 145.963 62.1194C146.055 62.173 146.184 62.2481 146.345 62.3448C146.668 62.5381 147.125 62.8176 147.693 63.1826C148.828 63.9123 150.416 64.9864 152.284 66.3995C156.012 69.2182 160.911 73.4256 165.579 78.9838L165.581 78.9855C168.158 82.0565 169.787 83.9519 173.487 85.896C175.429 86.8466 178.231 88.4052 180.655 89.8275C181.892 90.5536 183.072 91.2689 184.032 91.8794C184.278 92.0355 184.54 92.204 184.804 92.3784C184.966 92.3859 185.133 92.3972 185.307 92.4131C186.158 92.4915 187.295 92.6974 188.48 93.2236C189.048 93.1403 189.698 93.083 190.411 93.083V94.3921L190.413 94.3935V93.0827C192.064 93.0827 194.086 93.5734 195.821 94.7848C197.728 96.1156 199.338 98.3959 199.338 101.518C199.338 103.355 198.897 105.1 197.839 106.637C196.85 108.073 195.568 108.956 194.617 109.528C193.824 110.005 193.194 110.337 192.64 110.629C191.631 111.161 190.875 111.56 189.848 112.458C189.409 112.841 188.985 113.284 188.431 113.877L188.296 114.022L188.296 114.022L188.296 114.022C187.81 114.543 187.181 115.219 186.502 115.833C185.701 116.557 184.732 117.287 183.557 117.841C183.37 118.371 183.15 118.841 182.937 119.237C182.189 120.622 181.23 121.637 180.886 122.001L180.877 122.011C179.195 123.819 177 125.104 174.302 125.242C171.882 125.418 169.75 124.584 168.494 124.092L168.488 124.09L168.316 124.023L168.261 124.002L168.256 123.999C167.96 123.885 167.644 123.727 167.504 123.657L167.504 123.657L167.494 123.652C167.286 123.549 167.04 123.423 166.782 123.289C166.384 123.082 165.909 122.833 165.43 122.582L165.007 122.359C164.378 122.029 163.773 121.714 163.294 121.47C163.053 121.347 162.867 121.255 162.737 121.194L162.728 121.189C161.043 120.68 158.076 120.717 155.577 121.583C155.559 121.59 155.54 121.596 155.522 121.602L155.451 121.626C155.373 121.652 155.295 121.675 155.216 121.697L155.144 121.717C155.115 121.725 155.086 121.733 155.057 121.74L151.421 122.667C150.493 122.903 146.826 123.769 143.121 122.947C142.468 122.983 141.769 123.071 141.124 123.187C140.573 123.286 140.187 123.382 139.974 123.439C138.62 124.172 136.925 124.585 134.873 124.585H134.689L134.625 124.586C132.073 130.369 126.956 132.724 125.423 133.429L125.375 133.451L125.35 133.463L125.155 133.554L125.151 133.556C124.95 133.651 124.792 133.725 124.651 133.793L124.604 133.816C122.293 138.696 117.462 141.667 111.976 141.123L111.923 141.117L111.891 141.114L108.824 140.799C106.828 142.661 104.072 144.181 100.104 144.181C97.0648 144.181 94.2492 142.842 92.2897 141.696C90.6577 140.742 89.1722 139.648 88.0773 138.808L87.9515 138.806L87.934 138.805L87.7749 138.802C87.0527 138.79 86.007 138.771 85.1782 138.644C83.4806 138.387 81.5967 137.501 78.5956 134.623L73.774 131.71C73.1249 131.975 72.3648 132.313 71.4953 132.726C69.7669 133.548 67.8641 134.54 65.8876 135.571L65.8874 135.571L65.5609 135.742ZM29.1519 104.128C29.1501 104.12 29.1504 104.122 29.1527 104.132L29.1519 104.128Z" fill="white"/>
<path d="M190.414 97.7691C188.792 97.7691 187.694 98.2258 187.694 98.2258C185.948 96.6455 183.375 97.1185 183.375 97.1185C182.241 96.1037 174.941 91.816 171.375 90.078C166.781 87.6768 164.66 85.1741 161.996 81.999C153.221 71.5512 143.51 66.1127 143.51 66.1127L143.435 66.8467C143.12 66.6165 140.097 64.5397 140.097 64.5397L139.976 65.3226C138.086 63.6299 136.163 61.7544 134.274 59.1755L132.645 56.7997C132.073 60.937 131.902 63.8057 131.902 63.8057C128.109 61.265 124.958 57.9559 124.958 57.9559C124.958 57.9559 124.905 60.6779 125.429 64.2371C122.033 61.5858 117.644 59.2753 117.644 59.2753L117.854 61.0512C115.723 59.7138 111.993 58.2241 111.993 58.2241L112.54 60.2991C110.32 59.3368 106.736 58.4053 106.736 58.4053L107.343 60.1215C104.864 59.364 101.371 58.6917 101.371 58.6917L102.214 60.5746C99.2222 60.011 95.8786 59.8787 95.8786 59.8787L96.9388 61.5859C94.3872 61.363 90.6757 61.6312 90.6757 61.6312L91.8011 63.0592C89.2005 63.0649 85.7319 63.6102 85.7319 63.6102L86.792 64.7718C84.0917 64.9276 80.8677 65.4803 80.8677 65.4803L82.0892 66.7109C79.9362 66.9537 76.174 67.7457 76.174 67.7457L77.265 68.7369C74.7224 69.0341 71.6072 69.6884 71.6072 69.6884L72.5024 70.5148C69.8619 70.8681 66.7323 71.5858 66.7323 71.5858L67.6819 72.4031C65.4872 72.6514 62.1998 73.4306 62.1998 73.4306L63.1766 74.3114C60.8424 74.5161 55.3586 75.8209 55.1248 75.8988C49.9056 77.5625 43.5718 79.5813 37.5392 88.2549C36.084 86.3738 33.815 85.2193 31.3776 85.2193C27.2402 85.2193 23.8894 88.4487 23.6122 92.6278C22.1497 91.8376 20.0711 91.0403 17.6445 91.0403C14.2465 91.0403 12.6372 92.9793 12.4651 93.1987C12.4651 93.1987 12.3509 93.3437 12.1824 93.5612C10.7453 93.6373 9.14329 94.1882 7.75692 95.8482C7.75692 95.8482 5.45356 98.6064 5.45899 98.6064L9.04908 98.7732C9.65618 98.8022 11.4883 99.0649 12.6065 99.9185C15.2253 101.919 19.4895 102.92 24.1253 100.127C24.9897 99.9547 25.8379 99.6919 26.6406 99.3295C27.9545 100.328 29.5203 100.937 30.9338 101.479C32.032 101.905 33.2789 102.387 33.6305 102.829C33.6975 102.909 33.7682 103.327 33.8225 103.63C34.04 104.857 34.3608 106.665 36.3941 109.009C36.5064 110.433 37.2241 113.246 40.6619 116.669C42.7079 120.012 42.3219 123.329 41.945 126.542C41.5318 130.074 41.0642 134.075 44.8337 136.803C48.4437 139.412 55.4789 135.733 63.6266 131.475C67.6062 129.4 71.7056 127.254 74.3319 126.58L81.4776 130.897C84.4134 133.791 85.5225 133.965 85.8867 134.019C86.3869 134.097 87.1462 134.112 88.0234 134.128C88.5362 134.135 89.3373 134.151 89.7577 134.189C89.881 134.28 90.0169 134.387 90.1637 134.503C92.4072 136.25 96.5826 139.503 100.106 139.503C103.499 139.503 105.423 137.885 106.96 135.906C106.96 135.906 112.435 136.466 112.44 136.467C115.892 136.81 118.966 134.96 120.456 131.64C121.046 130.319 121.581 130.067 123.163 129.322L123.392 129.215C124.995 128.475 129.812 126.261 131.09 120.391C131.213 120.201 131.371 119.956 131.557 119.688C132.902 119.929 134.011 119.916 134.658 119.907H134.876C136.543 119.907 137.493 119.519 138.016 119.162C138.87 118.814 141.376 118.267 143.634 118.251C146.296 119.026 149.365 118.363 150.269 118.133L153.902 117.207L153.975 117.187L154.046 117.163C157.396 116.002 161.541 115.853 164.361 116.799C164.97 117.002 169.417 119.431 169.953 119.639C171.405 120.201 172.663 120.686 174.015 120.572C175.28 120.522 176.41 119.949 177.462 118.814C178.07 118.169 179.883 116.23 179.232 114.117C182.757 114.117 184.216 111.167 186.769 108.936C190.749 105.458 194.658 105.775 194.658 101.522C194.658 98.809 192.034 97.7688 190.415 97.7688" fill="black"/>
<path d="M133.404 59.8152C133.404 59.8152 133.209 61.2088 133.146 63.2765L133.894 63.6341C134.666 64.002 135.412 64.41 136.084 64.7978V63.6148L137.272 64.2719C135.982 62.9993 134.678 61.5604 133.404 59.8152ZM126.265 60.7793C126.265 60.7878 127.002 75.2269 134.399 78.8507C135.575 79.4252 137.123 79.171 137.123 79.171C137.123 79.171 135.923 80.6092 133.822 79.5599C132.323 78.8133 131.083 77.7369 130.048 76.4592C128.018 74.6995 123.224 70.8632 117.764 68.7227C118.088 69.6542 118.384 70.5033 118.384 70.5033C118.384 70.5033 113.282 68.3806 112.577 68.1341C112.941 68.9369 113.261 69.642 113.261 69.642L107.015 67.3191L107.018 67.3221H107.015C107.006 67.3182 107.612 68.1909 107.916 68.6258C108.016 68.7726 108.085 68.8687 108.085 68.8687C108.085 68.8687 108.064 68.864 108.026 68.8568C107.468 68.7517 102.967 67.9091 102.258 67.8257C102.9 68.6067 103.483 69.3172 103.483 69.3172C103.483 69.3172 98.1241 68.7566 97.3339 68.7167C98.1458 69.5667 98.9163 70.3781 98.9163 70.3781C98.9163 70.3781 93.6711 70.0866 87.4043 71.3824L89.4784 73.1808C89.4784 73.1808 81.8528 74.0324 75.1551 76.6257C75.1551 76.6257 80.3939 73.618 86.5375 72.3404L84.3232 70.3721C84.3232 70.3721 84.3485 70.3663 84.3992 70.3572C85.1603 70.2085 91.3737 69.0203 95.7083 68.7285C95.7083 68.7285 94.9354 67.881 94.1289 66.9912C94.8792 67.0039 95.3843 67.024 95.3969 67.024L100.089 67.2266C100.089 67.2266 99.5052 66.48 98.8583 65.6591C99.5759 65.7243 99.9953 65.7838 100.003 65.7857L104.601 66.4578C104.601 66.4578 104.121 65.684 103.583 64.8232C104.292 64.9663 104.705 65.0746 104.713 65.0765L109.051 66.188C109.051 66.188 108.715 65.4404 108.33 64.5833C109.012 64.8225 109.43 64.9858 109.439 64.9915L113.86 66.7602C113.86 66.7602 113.538 65.8527 113.188 64.856C113.826 65.1441 114.227 65.3434 114.237 65.3492L118.498 67.4784C118.498 67.4784 118.133 66.0832 117.805 64.8291C120.906 66.4457 122.9 68.1701 122.933 68.1846L122.202 65.957C122.202 65.957 124.566 67.5535 126.574 69.4854C126.32 68.6427 126.107 67.8017 125.927 66.9718C125.407 66.4843 125.037 66.1949 124.884 66.0807C124.834 66.0427 124.805 66.0241 124.805 66.0241C124.805 66.0241 122.38 64.0403 119.83 62.5851L120.06 64.5161C120.06 64.5161 117.662 62.8145 114.678 61.4318L115.201 63.4209C115.201 63.4209 112.398 62.0184 109.592 61.1576L110.243 62.9903C110.243 62.9903 110.199 62.9749 110.121 62.9441C109.567 62.7284 107.18 61.8285 104.456 61.2142L104.458 61.2186H104.456L105.252 62.9858C105.252 62.9858 102.756 62.3421 99.2947 62.0069L100.317 63.6518C100.317 63.6518 97.812 63.2823 94.2926 63.3493L95.4892 64.8662C95.4892 64.8662 91.9362 64.7143 89.4009 64.9988L90.7031 66.4337C90.7031 66.4337 87.9853 66.3526 84.6671 66.7839L86.0379 68.1682C86.0379 68.1682 85.8747 68.1701 85.5775 68.1845C84.6841 68.2262 82.5811 68.3701 80.0331 68.8431L80.0346 68.8447L80.0331 68.8476L81.4739 70.1514C81.4739 70.1514 79.2351 70.1661 75.4602 70.8294L76.6776 71.9559C76.6776 71.9559 73.8089 72.0107 70.6682 72.6323L72.0391 73.8125C72.0391 73.8125 68.9098 73.9178 66.0283 74.4904L67.4528 75.7689C67.4311 75.7727 67.403 75.7734 67.3813 75.7734C67.3577 75.7136 67.344 75.6795 67.344 75.6795C62.5524 75.8716 58.3274 76.7306 57.1327 77.1293C51.136 79.1192 43.5028 80.6431 36.517 93.2958C35.2322 95.6209 32.8496 95.7776 30.6478 93.9872C30.3596 93.7534 30.1546 93.4069 30.1546 93.0082C30.1546 92.8397 30.188 92.6794 30.2514 92.5344C30.304 92.4057 30.387 92.2947 30.4794 92.1932C30.4921 92.1787 30.4995 92.1597 30.5122 92.147C30.5974 92.0618 30.7044 91.999 30.8132 91.9428C30.844 91.9265 30.867 91.8977 30.8996 91.8832C31.0464 91.8216 31.2061 91.7879 31.3764 91.7879C32.0469 91.7879 32.5938 92.3359 32.5938 93.0082C32.5938 93.3054 32.4883 93.5755 32.3107 93.7875C32.9123 94.0846 33.4976 94.1903 34.0123 94.087C34.17 94.0562 34.3221 94.0057 34.4653 93.935C34.8984 93.7248 35.2674 93.3393 35.5664 92.7847C35.9832 92.0109 36.4106 91.2658 36.8419 90.5482C35.9032 88.466 33.8121 87.0079 31.3765 87.0079C28.0637 87.0079 25.4685 89.6955 25.3761 93.0083C25.3308 94.6918 25.9811 96.2317 27.0703 97.3517C29.3283 99.626 33.6598 100.013 35.0227 101.723C36.0122 102.965 34.9345 104.908 38.1712 108.324C38.1712 108.324 37.7013 111.307 42.0705 115.566C47.1194 123.514 40.1461 131.123 45.8746 135.362C51.7172 139.682 71.967 119.755 82.4042 125.213L82.0779 123.562C82.6632 121.052 86.7874 118.554 85.9772 115.799L87.7638 115.062L87.1141 112.202L88.9618 111.314L88.5729 110.04L90.8511 109.237C90.8511 109.237 87.0575 105.429 74.4787 112.122C63.9492 117.732 59.2521 116.45 59.2521 116.45C58.2499 116.046 57.5942 115.246 56.7533 114.738C56.5739 114.416 56.3849 113.994 56.3197 113.563L58.516 113.966C58.516 113.966 53.4532 111.13 56.0827 106.475C56.0827 106.475 55.5875 112.543 63.7948 114.692C67.4338 113.681 69.6313 111.645 69.6313 111.645L68.335 111.375C70.5477 109.811 70.8695 108.896 70.8695 108.896L69.4674 108.735C69.8154 108.452 70.1102 108.163 70.3585 107.869C71.1033 106.985 71.4268 106.058 71.4686 105.141C71.6317 101.485 67.3025 97.9924 67.2771 97.9707C70.8363 99.1939 73.2147 101.814 73.2998 105.27C73.3143 105.901 73.2552 106.556 73.1121 107.237C72.8964 108.257 72.4965 109.334 71.8858 110.454C71.8858 110.454 71.5358 111.077 71.2078 111.628C72.335 111.143 73.4795 110.634 74.5977 110.116C78.7332 98.9396 63.2954 95.09 65.385 90.8094C65.385 90.8094 67.0332 92.6709 69.0683 94.1932C71.2792 95.8496 74.525 98.1324 76.3843 101.11C76.9225 101.974 77.6575 103.956 81.3326 103.418C81.3326 103.418 80.807 98.4326 83.7718 95.8248C83.7718 95.8248 81.1227 102.622 84.4826 106.396C85.7022 106.168 87.298 106.029 88.8275 106.39C91.7234 107.079 93.2519 108.428 92.344 110.135C99.4914 115.142 109.74 113.949 113.258 117.579C113.258 117.579 103.8 126.006 89.2703 126.94C88.8372 126.966 88.5083 126.883 88.2347 126.726C88.3652 126.961 88.5869 127.188 89.0364 127.565C90.0621 128.429 90.6345 128.733 92.1803 129.241C94.4909 129.993 96.5796 133.5 99.7601 133.875C101.045 134.029 101.971 133.712 103.642 131.553C106.708 127.603 108.9 127.11 108.9 127.11C107.157 128.587 106.212 130.147 105.221 131.546C105.063 131.774 104.911 132.005 104.761 132.223C102.909 134.97 102.071 136.083 99.7601 136.083C97.9588 136.083 94.1672 133.27 92.7392 132.206C91.8149 131.521 91.4304 131.237 90.9973 131.063C90.2416 130.759 89.2182 130.728 87.6179 130.706C87.5037 130.702 87.3824 130.697 87.2573 130.695C86.8804 130.688 86.4862 130.679 86.256 130.661C86.2216 130.639 86.1702 130.597 86.1249 130.561C85.864 130.364 85.4702 130.001 85.1549 129.707C84.7199 129.303 84.2292 128.849 83.6529 128.374L80.4854 126.462C79.427 126.232 78.2026 126.064 77.0047 126.109L82.5833 129.488C82.5833 129.488 82.6252 129.528 82.6995 129.6C83.2178 130.106 85.3433 132.137 86.1624 132.264C87.0975 132.406 90.1902 132.279 90.549 132.55C92.2 133.79 96.8032 137.727 100.11 137.727C105.933 137.727 106.078 131.972 111.468 127.517C116.112 123.684 121.283 124.263 125.614 116.341C121.545 111.966 122.103 104.994 122.103 104.994C124.108 119.238 134.685 118.017 134.685 118.017L134.684 118.131H134.879C136.617 118.131 137.105 117.628 137.105 117.628C137.235 117.564 137.399 117.497 137.589 117.428C138.921 116.957 141.594 116.449 143.908 116.476C145.304 116.945 146.938 116.88 148.158 116.719C148.962 116.614 149.59 116.471 149.833 116.407L153.472 115.485C154.323 115.19 155.25 114.947 156.216 114.765C159.114 114.224 162.36 114.249 164.941 115.116C166.729 115.714 170.646 117.857 172.776 118.569C173.268 118.734 173.664 118.821 173.916 118.797C174.666 118.778 175.392 118.446 176.169 117.605C177.646 116.023 178.081 114.728 176.783 113.003C176.783 113.003 176.925 114.728 174.767 114.728C172.241 114.728 166.693 111.165 163.261 108.907C161.541 108.374 159.494 109.1 157.602 108.245C155.598 107.341 154.315 105.155 152.455 104.644C152.198 104.618 151.959 104.605 151.758 104.605C149.743 104.605 147.443 104.031 147.443 101.872C147.443 99.9331 151.77 99.1989 156.344 99.7027C156.288 99.2043 156.211 98.7045 156.107 98.2007C152.816 97.8854 149.672 98.1895 147.997 99.0992C146.634 99.8385 146.384 100.827 146.366 101.398C146.279 101.027 146.252 100.63 146.296 100.217C146.352 99.6658 146.669 98.6435 148.163 98.0219C149.893 97.3024 152.943 97.4275 156.1 98.1724C155.764 96.5359 155.168 94.9367 154.163 93.7261C153.836 93.3347 153.826 92.7719 154.137 92.3732C154.449 91.9745 154.992 91.8414 155.449 92.0588C155.606 92.1331 158.584 93.6022 160.576 98.7834C162.084 95.7551 164.479 94.3168 164.591 94.2552L166.727 92.9931L166.277 95.4368C165.934 97.3088 165.878 97.7779 165.841 98.3632C165.835 98.4465 165.831 98.533 165.825 98.6254C165.798 99.1346 165.757 99.8294 165.597 101.321C165.546 101.756 165.419 102.261 165.18 102.732C168.873 105.082 174.595 109.324 175.452 110.213C176.38 111.179 177.38 112.343 179.043 112.343C181.528 112.343 183.827 109.11 185.404 107.767C186.506 106.828 187.553 106.185 188.499 105.676C187.154 106.026 185.46 106.617 183.981 107.378C185.016 108.025 179.829 111.548 178.946 110.552C178.084 109.58 181.88 106.116 189.7 105.061C191.617 104.111 192.884 103.519 192.884 101.488C192.884 100.839 192.29 99.5537 190.262 99.5537C186.317 99.5537 181.055 104.715 181.055 104.715C182.298 100.962 185.501 99.0098 185.501 99.0098H185.498L185.501 99.0083C182.901 98.1167 179.562 100.771 178.054 102.154C177.55 102.616 177.251 102.934 177.251 102.934C177.8 99.5438 180.803 97.4229 180.803 97.4229C179.299 96.3029 171.691 92.2568 170.558 91.6624C168.278 90.4682 166.569 89.2529 165.118 87.9627C164.701 87.593 164.307 87.2186 163.929 86.8362C159.554 82.4505 156.973 77.1398 145 69.2316H144.998L144.888 70.3119C144.888 70.3119 143.486 69.0158 141.438 67.6149L141.224 69.0155C141.224 69.0155 141.136 68.9342 140.975 68.7965C140.489 68.3833 139.337 67.4535 137.882 66.6434V66.6463V67.5001C140.549 69.2942 143.175 71.5502 143.119 73.5183C143.119 73.5183 141.586 70.3962 133.136 65.8406C130.066 64.186 126.277 60.7789 126.277 60.7789L126.265 60.7793ZM131.411 66.6455C134.037 68.5557 139.796 72.8354 141.524 77.368C141.524 77.368 140.446 76.434 138.894 76.1477L139.186 77.5498C139.186 77.5498 138.033 76.6141 136.81 76.3623L136.667 77.6228C136.667 77.6228 135.515 76.975 134.542 75.3893C133.581 73.8086 134.405 72.4445 134.405 72.4445C132.968 71.0744 133.399 69.6701 133.399 69.6701C131.996 68.1587 131.42 66.6468 131.42 66.6468L131.411 66.6455ZM150.268 75.6095C154.708 77.5976 157.256 80.905 159.71 84.1234C156.479 83.9513 152.976 80.956 151.923 79.5878C153.009 79.8234 153.975 80.1883 154.865 80.6323C153.167 79.0792 151.556 77.2949 150.268 75.6095ZM106.105 78.4615C106.105 78.4615 110.673 78.7496 115.583 81.8304C115.583 81.8304 115.502 80.1745 115.209 79.0545C118.117 81.124 119.4 83.4173 119.4 83.4173C119.4 83.4173 119.428 82.6179 119.497 81.516C121.681 83.8901 123.125 87.4327 123.639 88.8082C123.639 88.8082 122.44 89.967 121.652 92.5928C121.65 92.5976 121.646 92.6048 121.646 92.6048V92.5973C121.263 93.8822 120.975 95.5098 120.975 97.5323C120.975 97.5323 119.093 94.044 120.835 89.6623C120.605 88.9138 120.336 88.1055 120.033 87.3244C119.664 88.3646 119.333 89.0752 119.333 89.0752C119.333 89.0752 118.178 86.6095 116.632 84.0851C116.61 85.2395 116.313 86.0102 116.313 86.0102C116.313 86.0102 113.581 82.8183 108.396 81.0931L108.72 82.1093C108.72 82.1093 104.602 80.601 98.3297 81.5416C98.3297 81.5416 102.703 79.8063 107.219 80.138L106.105 78.4615ZM56.1214 79.0396C56.1214 79.0396 49.1329 81.5403 46.6539 85.6359L46.4408 84.5571C46.4408 84.5571 44.605 86.7164 43.7424 89.1956L43.0972 88.1154H43.0957V88.1169C43.0939 88.1207 42.23 89.7379 42.23 92.2145L41.1541 91.1401C41.1541 91.1401 40.7233 94.5865 41.479 96.9587L39.752 94.5866C39.752 94.5866 39.3204 96.856 40.3987 98.9002C40.3987 98.9002 38.8692 101.203 40.7339 103.519C40.6959 104.516 40.6667 105.372 41.7487 107.152L43.1389 108.736L42.9213 110.132C42.9431 110.38 43.12 111.487 44.4412 113.176C47.8174 116.503 48.5789 119.193 48.5789 119.193L46.748 118.306C48.6381 121.331 48.469 124.377 48.469 124.377L47.2531 123.021C48.2227 125.616 47.4945 128.696 47.4945 128.696L46.8612 127.732C46.8612 127.732 46.6869 128.853 46.6869 130.101C46.6869 131.347 47.119 132.67 47.8312 132.67C50.5333 132.67 59.4669 127.966 59.4669 127.966L58.7547 127.831C61.0761 125.942 63.7075 125.852 63.7075 125.852L62.7142 125.584C64.9378 124.25 67.0715 123.995 67.9993 123.951C68.3092 123.936 68.4851 123.945 68.4851 123.945L66.7373 123.233C69.4919 121.885 72.6467 122.291 72.6467 122.291L70.9794 121.37C74.3864 120.345 76.9888 121.181 76.9888 121.181L75.5837 119.892C79.6376 120.541 80.5589 122.966 80.5589 122.966C71.5338 120.328 55.0607 134.314 47.7079 134.314C46.6296 134.314 46.3613 133.83 45.8394 133.091C44.299 130.914 45.6368 127.076 45.6368 123.294C45.6368 119.514 45.013 116.761 43.1246 114.483C42.2457 113.626 41.5904 112.836 41.1012 112.129C39.6314 110.01 39.662 108.648 39.6692 108.517L39.7735 107.824L39.2654 107.283C37.4767 105.395 37.3852 104.242 37.1913 103.146C37.0644 102.424 36.7887 101.516 36.2034 100.782C35.2955 99.6406 33.7524 99.0442 32.1177 98.4118C30.6298 97.8373 29.0886 97.2453 28.1408 96.2885C27.3018 95.4222 26.8506 94.2674 26.8833 93.0477C26.9086 92.1271 27.1862 91.278 27.6447 90.5713C27.4145 91.0479 27.2945 91.5905 27.2945 92.1686C27.2945 93.1834 27.7669 94.1492 28.5878 94.8179C30.4798 96.3529 32.5705 96.9968 34.4824 96.6253C36.2131 96.2882 37.0499 95.4533 37.8365 94.0252C43.9727 82.9106 50.4287 80.856 56.1214 79.0396ZM149.988 84.0312C150.223 84.3048 150.462 84.5819 150.696 84.8537C149.57 84.6018 148.509 84.463 147.927 84.3977C148.681 84.1621 149.364 84.0475 149.988 84.0312ZM147.766 85.1055L148.595 85.2694C148.598 86.0324 148.705 87.799 149.55 89.0585C148.305 88.185 147.766 86.3215 147.766 85.1055ZM31.3792 88.5256C32.9685 88.5256 34.4291 89.3774 35.2265 90.7293C35.047 91.0338 34.8688 91.3477 34.693 91.6576C34.4429 90.9907 34.0374 90.3827 33.4846 89.8934C32.3991 88.9257 30.9742 88.6016 29.6314 88.8862C30.1678 88.6542 30.7594 88.5256 31.3792 88.5256ZM17.6425 92.8243C15.6744 92.8243 14.5346 93.6565 14.0888 94.0715C13.9402 94.2092 13.8683 94.301 13.8683 94.301C13.8683 94.301 16.852 94.7316 18.541 95.8461C18.541 95.8461 16.5267 96.2797 15.3777 95.9191C14.2287 95.5585 11.3135 94.3741 9.12256 96.9964C9.12256 96.9964 9.50733 97.011 10.0837 97.1052C11.0441 97.2592 12.5412 97.6302 13.6866 98.5073C14.8337 99.3808 16.333 100.018 18.0673 100.067C18.4134 100.077 18.768 100.063 19.1341 100.023C19.8626 99.9429 20.627 99.7569 21.4153 99.4415C21.4153 99.4415 17.1828 99.3848 14.5895 97.5C13.0038 96.3511 11.4977 96.6016 11.4977 96.6016C11.4977 96.6016 13.3996 95.7762 15.558 97.1752C17.5787 98.4909 21.7874 99.2382 25.2506 97.9769C25.0657 97.7413 24.8954 97.4987 24.7395 97.2468C24.2738 96.4911 23.9436 95.6623 23.7606 94.7942C22.5808 94.0077 20.3536 92.8243 17.6425 92.8243ZM21.7013 96.2663C22.251 96.2368 22.6715 96.2682 22.8278 96.4033C22.9728 96.793 23.1289 97.1381 23.2793 97.4389C22.4403 97.6364 21.5815 97.7135 20.7388 97.7026C20.1788 97.6931 19.6263 97.6453 19.0953 97.5655C18.2998 97.4441 17.5502 97.2543 16.896 97.0187C17.2385 96.9915 20.0523 96.3546 21.7013 96.2663ZM126.424 96.3229C126.424 96.3229 126.406 96.3947 126.381 96.527C126.319 96.8568 126.215 97.5467 126.211 98.3567C126.209 99.8138 126.549 101.649 128.115 102.432C128.115 102.436 128.11 102.475 128.107 102.55C128.089 103.077 128.16 105.243 130.396 106.017C130.396 106.017 130.479 108.078 133.014 108.924C133.014 108.924 134.086 111.108 137 110.916C137 110.916 138.633 113.05 142.841 112.653C142.841 112.653 142.004 111.503 141.893 110.608C141.893 110.608 143.709 112.692 148.749 112.761C151.262 112.619 154.438 111.19 158.586 111.008C164.94 110.737 167.781 113.661 167.781 113.661C167.234 113.432 166.6 113.204 165.904 112.972C162.267 111.751 157.218 111.901 153.046 113.349L149.589 114.222C149.589 114.222 146.402 115.033 144.611 114.228C144.611 114.228 140.686 114.005 136.009 115.872C136.009 115.872 135.564 115.928 134.861 115.93C132.753 115.94 128.328 115.478 126.669 111.628C126.669 111.628 129.692 113.142 131.151 112.005C131.151 112.005 126.401 109.463 126.563 105.033C125.816 103.72 123.524 100.513 126.424 96.3229ZM87.0035 109.622C86.9346 109.886 86.9328 110.172 87.0035 110.453L86.406 110.742C85.7264 111.068 85.3613 111.822 85.5299 112.561L85.8741 114.083L85.3585 114.296C84.5883 114.613 84.1842 115.461 84.4198 116.258C83.8816 115.82 83.7197 115.361 83.7269 114.962C83.7396 114.297 84.2246 113.792 84.2246 113.792V113.789C83.9546 113.34 83.8596 112.917 83.8342 112.57C83.8289 112.5 83.8208 112.429 83.8208 112.368C83.8208 111.993 83.9027 111.754 83.9027 111.754V111.752C83.9027 111.752 81.1464 112.44 75.8657 115.051C63.9317 120.952 58.9104 118.034 58.9104 118.034C63.5424 119.022 69.3269 116.318 74.925 113.701C76.016 113.192 77.1149 112.678 78.1986 112.198C81.4497 110.752 84.5751 109.585 87.0035 109.622ZM128.632 118.57C127.232 123.512 123.627 125.364 122.226 126.006L121.964 126.126C120.148 126.983 118.71 127.66 117.607 130.129C116.708 132.131 115.044 133.16 113.034 132.961C113.035 132.961 110.41 132.693 109.069 132.557C108.832 132.851 108.596 133.158 108.366 133.484L107.88 134.213L112.612 134.694C115.316 134.964 117.639 133.554 118.823 130.914C119.685 128.991 120.701 128.509 122.396 127.712C123.706 127.094 128.356 125.251 129.403 119.733C129.403 119.733 129.556 119.471 129.827 119.064C129.404 118.917 129.008 118.752 128.632 118.57Z" fill="#9D2235"/>
<path d="M152.601 84.0186C147.413 77.5923 142.391 78.9407 142.391 78.9407C145.258 79.3176 147.242 81.0029 149.026 82.9439C148.62 82.9149 148.246 82.9041 147.928 82.8987C146.875 82.2716 145.325 81.4706 143.794 81.1027C143.794 81.1027 145.595 82.1791 146.731 83.6959C146.726 84.9953 146.938 90.1783 150.693 91.0174C150.961 91.0772 151.247 91.1153 151.552 91.128C151.858 91.1406 152.183 91.128 152.529 91.0881C152.668 91.0843 152.81 91.0786 152.955 91.0664C152.048 90.6786 151.838 90.3378 151.838 90.3378C153.62 90.6949 155.122 89.7706 155.802 89.2541C157.291 89.9229 159.04 90.1621 161.242 89.68C161.242 89.68 157.514 90.1131 152.601 84.0186Z" fill="black"/>
<path d="M150.431 85.5482C150.097 85.5575 149.739 85.6042 149.357 85.6958C149.357 85.6958 149.573 91.6938 154.751 88.8322C154.751 88.8322 154.728 88.7646 154.681 88.6505C154.462 88.5109 154.247 88.3585 154.039 88.199C153.787 88.7916 153.205 89.2062 152.522 89.2062C151.609 89.2062 150.868 88.4701 150.868 87.5568C150.868 86.9116 151.24 86.3535 151.778 86.0816C151.639 85.9312 151.502 85.7801 151.366 85.6242C151.077 85.568 150.766 85.539 150.431 85.5482ZM152.29 86.6271C151.875 86.7249 151.565 87.0983 151.565 87.5405C151.565 87.9953 151.885 88.3751 152.315 88.4658C152.168 88.299 152.081 88.0815 152.081 87.8459C152.081 87.4617 152.316 87.1312 152.647 86.9861C152.526 86.8684 152.407 86.7467 152.29 86.6271ZM154.975 93.0267C157.446 95.9934 157.784 101.028 157.488 104.794C157.419 105.711 157.767 107.12 159.083 107.015C160.909 106.858 161.045 105.42 160.833 104.084C159.418 95.128 154.975 93.0267 154.975 93.0267ZM165.153 95.2246C165.153 95.2246 162.632 96.7085 161.298 99.8854C160.776 101.13 160.714 102.597 162.483 103.084C163.755 103.434 164.358 102.112 164.456 101.197C164.858 97.4435 164.49 98.8417 165.153 95.2246ZM152.643 100.271C152.165 100.956 150.999 101.988 150.684 102.396C150.51 102.619 150.782 103.501 151.873 103.68C152.126 103.722 152.335 103.717 152.508 103.679C152.77 103.623 152.926 103.489 153.045 103.344C153.158 103.204 153.233 103.056 153.257 102.941C153.337 102.552 153.373 102.21 153.373 101.915C153.373 101.322 153.23 100.908 153.013 100.618C152.906 100.473 152.779 100.36 152.643 100.271ZM155.225 100.916C154.749 101.605 153.586 102.632 153.268 103.038C153.094 103.268 153.369 104.148 154.457 104.327C155.47 104.497 155.774 103.898 155.839 103.587C156.164 102.026 155.771 101.273 155.225 100.916ZM165.733 104.88C165.08 105.454 163.689 106.216 163.268 106.547C163.174 106.621 163.122 106.823 163.15 107.064C163.19 107.412 163.408 107.846 163.973 108.101C164.524 108.344 164.911 108.239 165.165 108.052C165.091 108.413 165.199 108.969 165.794 109.353C166.434 109.766 166.912 109.574 167.182 109.343C167.126 109.701 167.244 110.23 167.822 110.602C168.628 111.125 169.182 110.676 169.383 110.406C170.389 109.06 170.403 108.212 170.09 107.68C169.43 108.1 168.159 108.582 167.562 108.87C167.963 108.279 168.161 107.793 168.223 107.392C168.282 106.993 168.208 106.678 168.065 106.43C167.747 106.632 167.29 106.847 166.835 107.048C166.324 107.276 165.816 107.484 165.506 107.636C166.26 106.185 166.128 105.355 165.733 104.88ZM91.3979 111.555L91.6065 112.698L89.8662 113.555C93.3838 115.401 97.8064 115.735 104.538 116.1C100.452 115.297 96.2316 114.629 91.3979 111.555Z" fill="white"/>
</svg>
