<svg width="201" height="201" viewBox="0 0 201 201" fill="none" xmlns="http://www.w3.org/2000/svg">
<path d="M107.691 24.5037C106.731 26.6914 106.795 29.8749 108.091 31.8973C111.308 36.3427 116.379 37.3035 121.056 38.7292C127.787 40.5219 134.981 41.2166 141.581 43.3708C147.515 45.8931 151.958 51.9604 154.082 57.7643C154.578 57.1004 154.645 56.0724 155.108 55.3105C156.568 51.9604 159.92 49.9043 163.234 49.1733C161.242 52.1593 159.92 56.4366 161.641 59.9856C165.721 59.4898 171.026 58.791 173.746 62.4703V62.6047C172.252 63.1019 170.561 63.6999 169.832 65.3232C169.368 67.0151 170.197 68.5403 171.091 69.8666C175.206 74.5431 180.343 79.6818 178.585 86.4788L178.653 86.5795C181.305 83.5277 184.653 81.5712 188.865 81.9703C186.811 87.8038 184.458 93.6077 184.62 100.273C184.822 100.969 184.822 101.699 185.185 102.33C187.472 101.169 190.657 101.202 193.242 101.699C191.685 103.886 189.099 105.777 187.972 108.23C187.273 115.625 192.182 123.585 187.573 130.349V130.648C189.364 133.399 190.69 137.279 189.099 140.529C187.538 139.203 185.947 137.214 183.824 137.91C182.731 138.573 182.402 139.798 181.538 140.696C178.356 145.339 173.679 149.98 167.676 149.616C166.85 149.548 166.087 150.013 165.288 149.846C165.721 152.765 165.687 156.282 164.427 158.901C163.598 161.352 161.973 163.972 159.42 165.035C158.822 164.503 159.853 164.14 159.952 163.608C160.449 162.084 160.017 160.359 159.023 159.165C158.659 158.901 158.358 158.567 157.895 158.598C157.232 161.885 154.71 165.3 151.463 166.392C150.465 166.625 149.439 166.857 148.578 167.422C148.411 168.549 148.411 169.808 149.308 170.604C148.71 171.168 147.948 170.604 147.383 170.373C147.284 171.898 146.888 173.621 145.559 174.584H145.227C145.162 173.92 145.526 173.256 145.162 172.693C144.399 173.887 142.841 174.352 141.581 174.916C140.949 174.119 143.106 173.357 141.648 172.759C139.327 173.92 134.75 172.297 134.65 176.342C134.684 176.607 134.551 176.969 134.817 177.139C133.623 177.171 132.494 176.275 131.567 175.314C131.367 175.612 131.269 175.777 130.904 175.544C130.173 175.116 129.278 174.553 128.914 173.721C128.78 174.217 129.147 174.717 129.245 175.214C128.019 175.279 127.089 174.086 126.127 173.158C122.846 174.782 118.036 173.521 115.882 177.203C115.717 177.27 115.585 177.436 115.385 177.369C114.69 176.109 115.651 174.782 116.113 173.621C113.693 174.319 111.072 174.319 108.39 173.955C103.581 172.297 97.9098 169.542 92.6367 172.129C91.0121 172.828 89.7193 174.287 88.0275 174.748C90.1507 171.168 90.6157 166.658 94.0625 163.84C90.9798 163.443 87.8958 162.979 85.4057 161.154C81.5288 157.573 76.1576 157.573 71.2191 156.511C64.6842 156.91 58.5497 158.203 52.2164 159.065C52.1828 158.07 53.1113 157.273 53.708 156.445L56.3607 153.66C49.0329 154.919 41.7024 154.157 35.5034 150.643C33.4461 149.647 31.5903 148.223 29.6995 146.895C33.4138 147.461 37.757 147.361 41.2388 145.936C45.9152 144.276 50.3592 140.164 53.1799 135.821C49.2009 136.949 45.2191 138.539 41.5371 140.595C41.7696 138.706 42.3662 136.749 42.7304 134.791C44.4236 129.421 47.1072 124.347 51.8871 120.302C44.5567 117.682 36.2318 114.895 32.0861 107.105C34.2107 108.332 36.5637 109.227 38.9839 109.494C32.9851 102.961 31.0259 94.7029 30.5623 85.8499C30.0986 84.9549 30.2626 83.7938 29.3689 83.0655C27.2148 81.0081 24.4264 80.5109 21.5775 80.1118C16.635 79.7812 11.9263 80.4787 7.88281 82.4325C16.072 69.6677 29.5006 60.2181 44.722 61.1776L46.3144 61.5753C45.9152 54.1494 50.1267 47.5823 56.1967 43.6046H56.495C56.7611 48.5108 59.3789 53.5851 64.0553 55.543C64.617 55.6733 65.1142 55.9072 65.645 56.0066C65.5133 55.2742 64.9489 54.5136 64.7178 53.7194C62.3634 47.3847 63.8228 40.155 68.0343 35.148C68.299 35.8441 68.5302 36.7055 68.7627 37.4688C72.1773 45.7278 81.9266 43.4716 87.8622 48.0472C88.3272 45.4268 87.498 42.3441 88.8902 40.0233C90.8804 36.6732 93.7991 33.3258 97.0821 30.9352C96.2529 35.4141 96.9813 40.3875 99.2362 44.1676L99.9659 44.8637L100.032 44.7966C97.0821 41.0178 98.6718 35.4477 100.827 31.8315C102.52 29.1452 104.739 26.0262 107.691 24.5037Z" fill="black"/>
<path d="M104.573 31.733C102.851 33.6251 101.36 35.6118 100.993 38.0339C100.496 41.6815 102.684 44.8625 105.371 47.1868C110.777 52.3244 118.367 52.0933 123.905 56.902C130.172 61.1151 131.299 68.1416 131.234 75.2046C131.201 79.3178 129.775 82.8332 129.41 86.8141C129.112 89.4651 129.279 92.1495 129.576 94.7028C130.871 97.356 133.753 99.2448 136.406 100.107C135.742 99.3792 135.046 98.6482 134.649 97.7871C134.881 97.6215 135.18 97.4559 135.446 97.6215C137.04 99.0148 139.026 99.4426 140.784 100.34C138.562 98.2848 137.57 95.6993 137.204 92.8462C137.304 88.0074 136.476 82.4677 140.385 79.1855C145.694 76.2012 151.991 72.0558 153.052 65.5561C153.58 61.6085 151.658 58.5264 150.4 55.2088C147.384 48.479 140.384 45.6602 134.085 43.9015C125.893 41.3149 115.848 43.1715 108.39 38.7283C105.77 37.3017 104.209 34.8152 104.572 31.7319L104.573 31.733ZM94.2946 37.5383C93.4013 38.1661 92.6036 39.0283 92.0758 40.0248C90.7803 43.5736 90.4148 47.6501 92.0758 51.1634C92.1403 51.53 92.3391 52.0933 91.907 52.3578C88.6259 50.8323 85.175 49.639 81.7263 48.4457C77.7809 46.9546 72.9066 47.5168 69.8889 44.0025C69.1902 43.5058 68.1001 43.2726 67.9657 42.2416C67.1046 44.9948 67.8012 47.7845 68.5312 50.3711C69.7911 56.4021 76.4543 57.7975 80.9297 60.2196C86.9994 63.0039 92.0758 69.436 92.9691 76.0013C94.1291 84.0577 90.6148 90.8562 90.7137 98.6826C90.6148 104.75 94.9569 110.555 100.53 112.742C100.463 112.975 100.658 113.27 100.362 113.403C95.8513 112.145 92.0069 108.631 89.6203 104.488C85.3417 98.0859 85.9383 89.3641 86.4995 81.5721C86.4027 74.9069 83.7495 68.9748 78.6431 64.3628C74.2999 60.4496 69.159 59.9874 63.1237 60.2196C61.0026 60.4174 58.4483 60.7152 56.7594 59.4219C54.1707 58.1974 54.5695 55.6087 54.6674 53.22C54.7351 52.7233 55.1974 52.2599 55.1651 51.8632C52.3797 53.2554 49.6931 55.7076 49.032 58.7919C48.6998 62.0418 48.932 65.2261 49.4287 68.5071C50.3919 73.3491 52.6441 77.6267 55.1651 81.8044C57.6194 88.4718 62.097 94.6383 67.5658 99.7135C72.0089 105.316 82.2563 108.727 80.0675 117.286C78.8409 119.97 77.3842 122.656 75.1287 124.845C74.1988 125.608 73.3022 126.603 72.2756 126.77C73.3022 125.276 74.3644 123.784 74.7955 122.061C75.4932 119.771 75.0954 116.921 73.3022 115.13C68.6956 111.25 63.8859 106.938 60.8048 101.934C55.865 94.9016 55.4984 85.9487 51.2563 78.6222C48.8675 72.6514 42.9322 66.4849 35.9024 66.8494C29.8994 67.016 24.6596 70.4325 21.1797 75.339C23.2029 74.0801 25.6562 73.8114 28.1761 73.7469C32.3193 74.2124 36.5668 77.1301 38.1246 81.1765C40.2155 89.764 38.9846 99.7458 46.5465 106.079C48.3031 107.737 50.293 108.865 52.384 109.725C51.9841 110.357 51.1885 110.555 50.4596 110.688C47.7064 110.29 44.6555 110.623 42.1678 109.498C47.1754 114.5 53.6117 116.656 60.0103 118.645L61.2047 118.246C61.4036 118.415 61.4692 118.611 61.4359 118.878C56.0983 122.989 51.7841 128.595 49.7297 134.097C52.6807 132.01 55.7972 130.417 59.2793 129.62C59.4793 129.819 59.6782 129.988 59.6104 130.252C56.7927 133.734 57.0905 138.476 54.7684 142.122C53.0785 145.205 49.9941 147.561 46.2476 146.964C50.8241 151.34 58.1828 152.135 64.1514 150.147C69.9567 147.692 75.5609 144.777 82.0606 143.946C88.0615 143.02 94.1656 146.632 99.4688 143.318C103.614 140.796 105.039 136.286 104.974 131.61L105.14 131.447C105.238 131.545 105.239 131.645 105.305 131.779L105.037 128.594C104.84 122.46 108.655 118.016 108.391 111.88C105.405 112.774 101.556 112.511 99.4011 110.29C99.2356 110.688 99.4344 111.318 98.9378 111.482C97.7778 109.824 96.9145 107.934 96.6168 105.845C96.4501 106.046 96.0857 106.043 95.8889 105.912C95.5568 104.785 96.4856 103.691 96.5501 102.661C96.2168 102.728 95.9868 102.563 95.8212 102.332C96.6178 100.807 97.6466 99.1793 99.2377 98.1848C102.553 97.3914 105.172 100.107 106.962 102.661L106.794 102.796C104.706 101.337 102.52 99.8103 99.8 100.108C98.8711 100.275 98.1756 100.872 97.6456 101.7L97.9778 102L96.9468 104.718L97.3456 104.489C97.4467 104.586 97.5789 104.717 97.6456 104.883C97.5123 106.21 97.9777 107.538 98.6722 108.53V108.3C98.7722 108.134 98.8045 107.869 99.0711 107.97C99.9666 108.963 101.128 109.69 102.353 110.057C105.103 110.688 107.59 109.359 110.143 109.261C110.71 110.885 110.775 113.009 110.376 114.731C108.784 118.778 108.354 123.751 107.922 127.795C109.347 122.324 112.963 117.75 114.192 112.213C114.357 110.853 114.291 108.832 113.958 107.27C112.833 102.962 109.084 99.7135 106.496 95.9649C102.685 89.3974 107.46 82.8321 109.746 77.0301C110.18 76.1002 110.211 75.009 110.61 74.1479C112.764 78.9544 110.975 84.6898 110.61 89.7651C109.879 95.036 113.361 99.2814 117.538 101.868C121.881 100.671 126.063 98.8836 131.001 99.3792L129.08 97.2227C126.526 92.8139 125.996 87.343 126.791 82.0376C128.018 73.1836 127.587 63.3662 119.927 57.7652C112.701 51.1322 101.091 53.651 95.6524 44.0036C95.0913 41.8793 94.1635 39.8582 94.2946 37.5383ZM160.749 51.8622C158.492 52.7555 157.163 55.1787 156.536 57.3008C156.234 60.8162 155.273 64.0629 154.709 67.4804C153.917 72.4203 149.604 75.8368 146.289 79.7155C143.204 83.1621 141.646 87.243 141.015 91.6529C141.28 95.5993 142.607 99.4125 145.958 101.7C145.757 100.075 146.486 98.6493 147.547 97.4882C150.069 95.7305 152.987 95.0016 155.341 92.8451C155.542 93.2439 155.341 93.7094 155.341 94.1405C154.35 96.9249 151.26 97.5226 148.809 98.187C148.046 98.4536 147.15 98.8148 147.086 99.777C146.521 100.906 147.815 101.999 146.919 102.895C144.533 102.498 142.743 99.978 141.416 98.3504L142.542 101.202L142.212 101.536C140.352 101.305 138.794 100.341 137.135 99.6125C137.535 100.008 137.932 100.406 138.063 100.906C137.833 101.004 137.635 101.335 137.27 101.202C133.856 100.638 131.101 98.1537 128.683 95.5015C129.344 97.1582 131.168 98.3493 132.43 99.7759C132.462 100.075 132.396 100.341 132.095 100.406C126.426 99.3792 121.848 102.464 116.512 102.961L121.684 103.361C120.822 104.52 119.298 104.552 118.503 105.845C116.414 110.154 115.449 115 114.588 119.842C114.423 122.163 112.598 124.185 113.725 126.67C115.549 129.755 117.343 132.803 118.899 135.987C122.049 141.359 122.812 148.325 121.917 154.46C119.398 161.721 111.24 161.49 105.14 162.087C105.04 161.887 105.305 161.854 105.371 161.686C111.174 160.295 119.066 159.068 120.49 151.905C121.155 144.943 118.667 139.008 114.918 133.77C116.079 138.443 117.406 143.847 115.947 148.823C115.151 151.972 111.736 154.295 108.619 154.626C100.33 155.221 92.8025 152.468 85.6395 149.618C86.8005 149.715 87.997 150.149 89.1226 150.547C95.9868 152.303 104.442 154.493 110.711 149.849C114.885 146.236 115.184 140.963 114.288 135.689C113.991 131.712 111.072 128.461 111.275 124.683L110.078 126.837C106.133 132.01 111.307 138.044 108.72 143.65C106.099 150.181 98.339 146.436 93.4314 146.335C83.9484 145.772 74.7955 147.464 66.9369 151.607C73.9343 150.116 81.1296 151.509 86.7328 155.021C91.1415 158.439 95.6524 161.587 101.059 162.482C102.022 162.781 103.148 162.585 104.011 162.983C104.109 163.181 103.909 163.314 103.78 163.446C100.329 163.678 97.1779 165.733 95.188 168.319C95.8857 167.855 96.6823 167.456 97.5778 167.424C104.805 165.634 109.978 171.801 117.239 169.745C118.069 169.745 118.996 168.355 119.628 169.347C118.931 170.213 118.238 171.204 118.035 172.197C120.49 169.713 124.434 170.576 127.252 169.019C127.452 167.524 125.63 168.619 125.1 168.052L125.197 167.824C124.9 167.856 124.568 168.089 124.468 168.223C124.303 168.253 124.102 168.52 123.904 168.319C124.765 166.893 126.721 165.966 127.252 164.41L127.488 164.871C126.89 167.258 127.983 169.413 129.707 170.94C129.673 170.177 129.11 169.149 129.873 168.552C130.734 169.149 130.702 170.509 131.799 171.105C131.863 170.342 131.564 169.346 132.359 168.951C132.824 169.213 132.36 169.579 132.493 169.977C132.858 171.105 133.788 172.498 135.046 172.762C135.046 172.234 135.346 171.802 135.445 171.336C136.674 169.515 138.826 169.213 140.946 169.248C142.572 169.382 143.371 167.689 144.129 166.629L144.363 166.862C144.563 167.426 144 167.688 143.968 168.153C142.475 168.418 143.834 169.979 143.404 170.374C144 170.011 144.629 169.546 145.092 169.019C145.425 168.785 144.994 168.252 145.493 168.052C146.386 168.153 146.255 169.249 146.521 169.911C147.05 168.819 147.647 167.225 146.817 166.064C147.547 165.137 147.877 166.662 148.51 166.73C147.314 164.34 150.167 162.451 148.51 160.196C148.84 159.532 149.636 159.599 150.099 159.068C150.367 158.638 150.568 158.075 150.399 157.577C149.901 156.814 149.005 155.886 148.277 155.819C148.375 156.482 148.375 156.981 148.277 157.642L149.073 158.043C149.239 158.207 149.205 158.439 148.974 158.601C145.325 158.175 141.415 158.272 137.932 159.169C136.936 159.763 135.545 159.666 134.352 159.566C133.356 158.77 132.591 157.776 131.962 156.779C128.879 152.57 129.11 146.368 130.205 141.33C131.165 136.72 130.57 131.415 133.556 127.634C134.616 127.37 135.476 128.097 136.405 128.361C136.441 126.174 137.167 124.25 138.463 122.691L138.627 122.957C137.434 124.881 136.902 127.735 137.833 129.956C137.966 128.565 137.834 127.106 138.562 125.977C138.762 125.876 138.762 126.142 138.86 126.209C138.827 130.153 139.06 134.366 142.608 136.488C144 136.521 145.393 137.118 146.686 136.785C146.154 136.622 145.363 136.585 145.226 135.921C145.327 135.623 145.656 135.891 145.789 135.69C149.769 137.68 154.744 136.32 157.959 133.699V133.437C157.594 133.237 157.299 133.667 156.864 133.536C156.434 132.31 158.556 132.706 158.69 131.381C159.851 131.415 158.69 133.038 159.817 133.302C159.65 133.438 159.419 133.336 159.254 133.37C159.186 133.569 159.351 133.699 159.418 133.833C161.011 134.297 162.104 136.487 164.029 135.69C164.493 135.061 165.091 134.497 165.058 133.699C164.759 133.833 164.292 133.769 164.195 133.437L164.726 132.805C165.919 132.739 165.323 131.247 165.786 130.518C165.389 130.75 164.857 130.818 164.426 130.652C164.757 129.989 166.017 130.089 166.017 129.059C166.216 128.992 166.38 128.863 166.583 129.059C167.113 128.497 167.378 127.799 167.378 127.004C167.08 125.446 167.043 123.519 165.22 122.792C164.195 124.384 162.436 124.848 161.144 126.142C161.275 126.739 161.012 127.201 160.68 127.634C160.313 128.296 159.288 127.865 159.153 128.265C158.791 128.863 157.991 128.461 157.497 128.361C156.932 128.031 156.268 127.468 156.302 126.772C156.169 126.936 155.971 127.037 155.74 127.004C153.916 125.647 151.726 124.814 149.537 124.151C149.138 123.919 148.51 123.52 148.674 122.957C151.295 120.803 154.612 121.996 157.894 121.897C158.491 121.996 158.722 122.527 159.254 121.897C161.043 122.028 162.933 121.334 164.493 121.829C163.3 120.006 161.409 118.481 159.651 117.289C158.821 116.326 156.401 116.755 156.932 114.899C154.611 114.202 151.691 114.47 149.47 115.234C148.875 115.001 148.079 116.725 147.948 115.3C147.183 115.267 146.619 115.431 146.12 115.001C146.322 114.535 146.786 114.073 147.219 113.872C147.483 113.971 147.349 114.236 147.383 114.436C150.2 114.436 152.986 113.373 155.74 114.104V113.872C155.939 113.374 155.341 113.375 155.042 113.407C154.149 112.449 155.673 111.949 156.069 111.154C156.267 109.628 155.073 108.301 153.982 107.338C151.956 104.952 149.703 102.862 147.614 100.408V100.11C148.113 98.8858 149.538 99.1158 150.499 98.9847C150.07 99.6157 149.173 99.7146 148.51 100.11C149.967 102.266 152.189 103.927 154.148 105.582C155.638 107.174 158.556 108.667 157.726 111.321C157.661 112.349 156.767 112.645 155.906 112.843C156.864 113.01 155.939 114.436 157.033 114.34C157.396 114.602 157.758 114.967 157.726 115.463C161.54 116.063 164.126 119.908 166.98 122.462C168.04 124.218 168.274 126.54 167.907 128.662C166.05 130.418 166.38 133.038 165.387 135.127C164.792 136.389 163.498 136.883 162.272 137.118L161.805 139.339C161.575 140.104 160.944 140.798 160.909 141.561C162.171 143.351 162.768 145.672 164.825 146.833C169.896 147.328 174.474 145.272 177.791 141.392C180.411 139.172 181.935 133.604 186.213 135.197C187.107 135.592 187.704 136.52 188.068 137.351C188.535 135.226 188.069 133.14 186.312 131.78C185.914 131.416 184.651 131.945 185.019 130.982C186.907 128.431 187.271 125.146 187.504 121.997C187.739 115.797 182.499 107.739 188.93 103.129C187.208 102.963 185.683 103.991 184.09 104.089C182.001 98.0214 180.873 89.3329 185.517 84.0931C183.427 84.5586 181.638 85.7853 180.113 87.5429V87.7741C177.36 92.1517 176.763 97.457 172.683 101.305C172.553 101.469 172.252 101.835 172.053 101.47C173.944 94.2082 176.296 86.2841 173.414 78.8566C172.552 76.6334 170.494 74.9079 168.968 72.9546C167.276 70.4013 164.89 67.7481 166.085 64.3639C166.881 62.7728 168.506 62.3105 169.999 61.9096C169.565 61.6118 169.035 61.5139 168.572 61.3495C166.414 61.6107 164.526 61.0474 162.736 62.1428C162.106 62.2772 161.742 63.2018 161.012 62.8717C159.62 59.423 158.822 55.312 160.748 51.8654L160.749 51.8622ZM154.568 137.701C154.492 137.701 154.406 137.716 154.31 137.745C154.278 138.478 153.387 138.871 153.453 139.667C154.479 141.758 155.341 143.946 156.767 145.871C157.562 147.327 158.324 148.854 158.69 150.413C156.599 147.494 152.656 145.237 151.86 141.722L151.992 146.17C152.257 147.959 153.786 149.252 154.779 150.711C157.499 154.358 154.118 158.071 152.158 161.056C151.958 161.156 151.529 161.253 151.362 160.989C152.258 160.06 152.457 158.867 152.555 157.64C152.291 155.685 152.39 153.164 150.1 152.466C148.809 152.169 147.085 150.709 146.122 152.697C145.725 153.229 145.725 153.926 146.52 154.06C146.487 153.497 146.487 152.734 146.818 152.235C147.25 152.434 147.483 152.898 147.715 153.262C147.616 155.783 151.261 155.619 151.197 158.205C151.261 159.167 150.3 159.896 149.54 160.361C149.572 161.323 149.838 162.15 149.605 163.212C150.866 163.144 151.892 162.513 152.953 162.018C155.806 160.326 157.267 157.342 157.498 154.226C157.993 154.295 158.027 154.823 158.224 155.188C160.513 156.215 161.276 158.767 161.242 160.989C163.366 158.866 164.03 156.016 164.03 153.098C164.03 149.153 160.613 146.632 159.022 143.318C158.059 143.781 157.397 145.04 156.236 144.674C156.338 144.276 156.632 143.979 156.863 143.647C158.39 142.554 157.162 140.629 158.224 139.334L157.894 139.667C157.265 139.369 157.562 138.476 157.267 137.911H157.033C156.568 138.111 156.6 138.641 156.37 139.008C154.968 140.623 155.726 137.692 154.568 137.701ZM143.238 138.378L140.719 145.868C141.214 147.064 140.518 149.418 142.212 149.449C141.348 148.224 141.481 146.268 141.813 144.842C142.246 142.652 144.1 140.762 143.405 138.378H143.238Z" fill="#EEB310"/>
<path d="M123.903 49.8081L123.739 50.2026C130.602 54.8468 139.819 61.1477 140.055 70.2652H140.218C143.203 67.2153 143.469 62.1077 141.745 58.3934C138.463 51.2648 130.902 50.1381 123.903 49.8081ZM96.781 56.5691L96.6143 56.9034L97.6432 58.7933C101.222 63.8654 103.874 69.2718 104.172 75.6726H104.64C106.596 72.5873 108.188 69.0708 107.292 65.092C104.838 60.8155 99.9287 60.02 96.781 56.5691ZM167.377 84.989C166.515 89.5977 163.728 93.4098 162.271 97.7863C161.406 101.236 163.828 103.724 165.119 106.478H165.517C166.78 102.964 167.774 99.3796 168.24 95.5674C168.47 92.152 168.605 88.1733 167.509 84.9901L167.377 84.989ZM105.831 100.509L105.767 100.809L107.825 103.195H108.087C107.985 102.002 106.758 101.337 105.831 100.509ZM100.361 101.074C99.8642 101.273 99.3643 101.535 98.9999 101.999C98.2699 103.258 98.6677 105.049 99.0676 106.313H100.824C100.361 106.577 99.6642 106.444 99.2331 106.709C99.1998 107.175 99.7298 106.941 99.9642 107.108L99.7287 107.339C100.692 108.136 102.053 107.208 103.214 107.507C102.45 107.971 101.455 107.935 100.594 108.135L100.659 108.368C101.887 108.665 103.213 107.97 104.503 108.234C103.711 108.6 102.746 108.567 101.952 108.866V109.097C103.742 108.996 105.664 108.666 107.523 108.467C107.621 107.935 106.926 108.2 106.727 107.901C106.894 107.141 105.998 107.57 105.767 107.108C105.933 106.908 106.228 107.007 106.399 106.875C105.801 105.845 104.505 105.683 103.611 104.954C105.101 104.919 106.363 105.98 107.985 105.846V105.517C105.632 103.592 103.214 101.768 100.361 101.074ZM129.826 101.414C129.158 101.402 128.488 101.453 127.816 101.603V101.869C132.193 102.365 136.336 103.459 140.054 105.517C138.462 105.55 136.868 105.05 135.144 105.118L135.046 105.517C137.897 106.344 140.75 107.471 143.402 108.931C144.497 109.526 145.458 110.422 146.588 110.921C147.182 110.222 146.486 109.43 146.588 108.632C146.385 108.433 146.054 108.136 146.185 107.903C146.817 107.97 147.417 108.101 148.013 108.231C148.973 108.135 149.869 110.028 150.665 108.467C151.526 108.73 152.222 108.102 152.884 107.57C152.951 106.677 151.691 106.844 151.13 106.478C151.394 106.344 151.691 106.378 151.923 106.145C151.559 105.118 150.398 104.687 149.702 103.858C149.172 103.76 149.437 104.423 149.137 104.654C144.561 104.157 140.186 103.195 135.774 102.334C133.81 102.06 131.827 101.45 129.826 101.414ZM108.153 102.334C108.284 102.863 108.684 103.393 109.016 103.693C109.184 103.591 109.082 103.425 109.114 103.293C108.982 102.797 108.616 102.467 108.153 102.334ZM109.513 103.293C109.48 103.558 109.48 103.958 109.812 103.927C109.976 103.857 109.878 103.694 109.91 103.592C109.878 103.459 109.711 103.227 109.513 103.293ZM177.557 103.459C176.097 106.046 173.479 107.901 171.587 110.357C168.47 114.303 170.492 120.072 170.459 124.683C170.559 126.473 169.735 127.998 169.666 129.622C172.25 127.934 174.471 125.844 176.429 123.357C179.711 119.543 178.95 113.639 177.854 109.164C177.526 107.373 177.16 105.25 177.557 103.459ZM124.865 106.476C122.511 107.77 120.552 110.125 118.73 112.212C118.599 112.081 118.664 111.88 118.664 111.717C118.498 111.319 118.664 110.723 118.331 110.455C117.437 115.431 116.975 120.605 115.945 125.577C115.35 128.432 116.476 130.948 118.034 133.14C121.948 137.715 125.063 142.687 124.534 149.121C124.764 149.02 124.764 148.721 124.867 148.493C124.932 145.374 125.495 142.456 125.828 139.404C126.489 143.649 125.429 147.76 124.799 151.74C124.335 155.122 124.233 158.602 122.71 161.556C120.552 165.039 116.277 166.065 112.198 165.268C109.646 164.274 106.295 164.475 103.445 164.806C103.512 165.007 103.343 165.268 103.611 165.369L103.71 165.268C108.816 164.208 112.96 167.191 118.034 166.729C121.914 166.167 123.604 161.856 124.467 158.769C127.02 153.963 126.125 147.728 126.789 142.126C127.189 142.922 126.923 144.08 127.321 144.844C127.285 140.598 127.783 136.818 127.486 132.576C126.591 130.854 124.731 129.756 123.902 128.031C123.705 127.666 123.67 127.104 123.339 126.936C123.14 128.663 124.002 130.419 124.136 132.11C121.449 129.725 119.956 126.474 120.651 122.794C120.488 122.762 120.358 122.826 120.257 122.861C119.461 124.12 119.16 125.577 118.961 127.068C118.267 124.187 119.46 121.301 120.421 118.714C119.923 118.68 119.46 119.178 119.062 118.88C120.057 117.387 120.921 115.797 121.682 114.201L120.089 114.107V113.708C121.616 111.252 123.538 108.995 124.865 106.476ZM130.011 108.861C128.894 108.915 127.682 109.413 126.623 109.498C126.16 109.66 125.562 109.826 125.33 110.222C127.684 110.058 129.275 112.447 130.502 114.104C130.104 114.369 129.472 114.303 129.009 114.201C128.712 114.338 128.082 114.203 128.116 114.669C129.574 114.769 130.969 115.031 132.194 115.627C131.297 116.061 130.236 116.028 129.405 116.591C130.701 116.624 131.862 116.129 133.156 116.427C131.399 117.485 129.509 118.214 127.486 118.581V118.713C131.034 118.779 133.854 116.988 136.801 115.627C139.423 114.799 142.34 114.636 145.225 114.501L145.956 113.941C146.254 113.309 146.785 112.61 146.817 111.948H146.588C146.321 112.411 145.923 112.978 145.391 113.309C142.936 113.806 140.915 112.348 138.959 111.155C138.76 112.148 139.853 112.511 140.318 113.142C137.965 112.71 136.042 110.722 133.855 109.659L133.683 109.828C134.016 110.259 134.58 110.454 134.978 110.921L134.88 111.022C134.748 111.022 134.682 110.855 134.58 110.754C133.586 110.557 132.726 109.991 131.861 109.428C131.314 108.956 130.68 108.829 130.011 108.861ZM152.091 108.866C151.623 109.264 152.255 109.761 152.156 110.126C151.328 110.755 151.359 109.132 150.497 109.562C150.894 110.224 150.398 111.02 150.333 111.485C150.698 111.651 150.993 112.049 151.526 111.881C152.254 110.156 153.317 112.511 154.477 112.212C154.575 111.549 153.944 111.12 153.514 110.754C153.315 110.422 153.55 110.06 153.748 109.828C153.282 109.229 152.653 109.165 152.091 108.866ZM105.931 109.029C105.136 109.164 104.108 108.965 103.545 109.498C104.341 109.562 105.3 109.429 105.931 109.029ZM148.177 109.43C148.542 110.325 148.874 111.449 148.51 112.448C148.475 112.878 147.779 112.909 148.109 113.406L148.51 113.309C149.106 112.68 150.068 111.948 149.701 110.921C149.303 110.324 148.972 109.596 148.177 109.43ZM154.146 115.064C153.282 116.69 151.295 115.53 150.266 116.658C152.389 116.527 154.644 116.291 156.764 115.927C155.936 115.297 154.872 115.962 154.146 115.064ZM104.341 115.131L104.105 115.463C103.342 118.48 101.689 121.166 101.62 124.45C100.658 127.997 100.561 131.978 98.0398 134.795C95.0566 137.482 91.0424 137.715 86.998 137.812C81.9238 138.113 78.0117 141.263 73.8664 143.782C73.7664 144.013 73.9975 143.947 74.0975 144.047C77.213 142.653 80.3317 141.196 83.7138 140.467C88.4225 138.909 94.7566 140.7 99.0687 137.98C101.024 136.72 101.553 134.63 101.721 132.508C101.721 127.303 102.086 122.064 103.545 117.387C103.81 116.624 104.206 115.764 104.341 115.131ZM143.799 115.53C143.335 115.83 143.236 116.326 143.104 116.725C142.671 116.427 143.236 115.994 142.936 115.629H142.705C142.307 116.428 141.246 116.292 140.848 116.99C142.539 116.691 143.369 118.349 144.694 118.879C144.129 117.752 145.291 117.155 145.556 116.427C144.961 116.327 144.296 116.527 143.798 116.891C143.402 116.428 144.294 116.129 144.294 115.697C144.127 115.629 144 115.496 143.799 115.53ZM146.587 118.713C146.254 118.779 146.22 119.011 145.955 119.209C144.927 120.305 146.784 120.337 147.148 121.035C146.287 121.07 145.457 120.337 144.429 120.704C144.264 121.301 144.728 121.896 144.762 122.392C143.533 121.995 142.106 122.132 140.782 121.997C140.318 122.462 140.915 122.891 141.015 123.356C140.814 123.589 140.484 123.486 140.217 123.589C139.954 123.685 139.52 123.92 139.589 124.284C140.484 124.284 141.278 124.284 142.14 124.615C143.138 124.351 142.243 123.323 142.373 122.793L146.022 123.188C146.185 122.691 145.424 122.759 145.325 122.392L145.556 122.064C146.785 121.633 147.712 122.495 148.737 122.558V122.064C147.876 120.971 146.485 120.173 146.587 118.713ZM137.77 119.852C136.868 119.846 136.053 120.648 135.211 120.969C132.69 120.668 130.501 122.063 129.075 124.152C128.711 124.45 128.114 124.583 127.982 125.013C130.403 124.284 131.694 120.57 134.88 121.5C136.472 122.991 136.768 120.041 138.163 119.908C138.03 119.871 137.899 119.852 137.77 119.852ZM134.345 122.73C132.053 122.791 130.475 125.187 128.212 125.476C129.904 125.544 131.994 125.211 133.684 124.549L133.854 123.818C134.15 123.155 134.88 123.19 135.376 122.861C135.016 122.761 134.673 122.721 134.345 122.731V122.73ZM136.801 123.255C136.635 123.39 136.371 123.322 136.175 123.421C135.376 123.753 135.078 124.583 134.814 125.245C133.487 125.414 132.558 126.374 131.564 127.335C131.893 127.303 132.193 127.067 132.492 126.936C133.587 126.472 134.781 127.003 135.677 127.335C135.642 125.776 136.404 124.485 136.801 123.255ZM140.941 126.203C140.877 126.229 140.822 126.365 140.782 126.672C142.041 128.761 144.427 129.424 146.52 130.186C147.645 130.319 148.907 131.278 149.932 130.585C151.16 131.148 152.688 130.817 154.244 130.917C153.551 130.618 152.454 130.816 151.691 130.417C151.028 130.617 150.001 130.351 149.304 130.65C146.587 129.921 143.935 129.127 141.743 127.168C141.42 127.021 141.133 126.125 140.941 126.203ZM158.752 128.761C158.455 129.192 158.721 129.855 158.522 130.352C158.421 130.716 158.025 130.749 157.725 130.816C157.959 131.612 158.686 130.618 159.084 131.049C159.118 130.352 159.45 129.223 158.752 128.761ZM131.065 129.225C128.809 131.515 129.773 135.128 129.308 138.146C129.308 138.411 128.81 138.741 129.308 138.942L128.911 143.25C128.711 144.942 128.246 146.998 128.844 148.556L129.01 148.422C129.406 144.478 129.741 140.136 130.272 136.088L130.6 135.756L130.369 135.526L130.6 132.907C130.767 131.68 131.265 130.418 131.065 129.224V129.225ZM140.382 129.391C140.58 130.386 141.508 131.315 142.04 132.242C142.604 132.607 142.77 133.834 143.635 133.535C146.651 134.098 149.767 134.431 152.784 134.165C152.852 133.998 152.719 133.833 152.654 133.768C148.641 133.735 144.462 133.933 141.809 130.816C141.345 130.351 141.209 129.291 140.382 129.391ZM162.995 133.037C162.833 133.273 163.097 133.537 163.395 133.439V133.204C163.395 132.973 163.13 133.072 162.995 133.037ZM154.754 133.349C154.344 133.376 153.971 133.709 153.747 133.933L154.54 133.999C154.775 133.834 155.306 133.903 155.174 133.439C155.033 133.364 154.891 133.339 154.754 133.349ZM128.808 149.283C128.628 149.321 128.504 149.47 128.38 149.619C128.844 151.21 128.115 152.835 128.38 154.458C128.778 154.492 128.679 154.03 128.911 153.831C129.807 155.023 130.235 156.451 131.296 157.478C130.6 154.957 128.975 152.799 128.911 150.015L129.158 149.757C128.759 149.757 129.224 149.428 128.993 149.294C128.917 149.277 128.851 149.277 128.79 149.29L128.808 149.283ZM145.861 159.307C142.346 159.188 139.009 160.713 135.674 161.558H134.577C133.552 161.258 132.256 160.56 132.026 159.399C131.494 159.364 131.762 160.062 131.464 160.195C131.164 160.162 131.131 160.494 131.163 160.76C131.495 161.887 132.521 162.984 133.681 163.281C133.252 163.281 132.556 163.345 132.026 163.215V163.378C132.987 163.51 134.247 164.507 135.044 163.446C134.681 163.281 134.148 163.479 133.784 163.281C134.348 163.281 134.843 163.048 135.375 162.883C137.367 161.325 139.719 160.727 142.208 160.363C143.101 160.462 144.095 160.362 144.759 161.058C145.221 162.053 144.925 163.281 144.293 164.075C144.36 164.24 144.529 164.144 144.691 164.174C145.722 163.409 146.119 162.154 145.954 160.89C146.384 161.058 146.482 161.686 146.914 161.686C147.114 161.188 146.883 160.527 146.815 160.098C147.115 159.865 147.909 160.327 147.875 159.697L147.379 159.464C146.869 159.374 146.363 159.324 145.861 159.307ZM127.019 159.464C126.987 161.09 125.329 161.787 124.401 162.883C125.129 163.281 125.626 162.385 126.221 162.349C125.661 164.54 123.24 164.937 121.846 166.462C121.713 166.961 121.051 167.457 121.516 167.989C122.244 166.365 124.003 166.265 125.331 165.601C127.881 164.671 126.987 161.786 127.418 159.697C127.283 159.631 127.219 159.399 127.019 159.464ZM133.478 164.394C133.41 164.387 133.347 164.39 133.288 164.407C133.055 164.473 132.656 164.54 132.656 164.871C133.188 165.136 133.751 164.837 134.083 164.57C133.91 164.522 133.68 164.416 133.478 164.394ZM142.935 165.667C141.609 167.259 139.388 166.43 137.763 166.064C136.403 166.993 135.042 168.418 135.042 169.978H135.21C135.74 168.915 136.9 168.12 137.996 167.823C139.754 167.129 142.37 167.823 143.233 165.667H142.935Z" fill="black"/>
<path d="M128.494 110.069C128.294 110.078 128.092 110.097 127.887 110.126C129.778 110.955 130.475 113.012 132.034 114.34C134.586 116.591 137.241 113.843 139.992 113.942C138.766 113.843 137.606 113.508 136.477 113.078C133.835 112.05 131.483 109.946 128.494 110.069ZM132.851 134.001C132.465 134.017 132.099 134.117 131.867 134.332C132.497 134.132 133.261 134.001 133.958 134.166C133.643 134.05 133.236 133.984 132.851 134.001ZM132.68 134.71C132.307 134.714 131.965 134.847 131.7 135.294C131.668 136.721 130.774 138.313 131.57 139.67C131.768 139.506 131.97 139.04 132.365 139.107C133.029 139.506 132.035 139.937 132.101 140.467C132.068 140.897 131.834 141.725 132.597 141.725C132.399 142.126 132.332 142.558 132.034 142.922C131.734 145.409 131.337 148.027 131.171 150.416C131.337 150.416 131.603 150.182 131.7 150.481C131.47 151.146 131.304 151.839 131.005 152.469C131.503 152.436 131.769 151.709 132.365 151.839C132.499 152.008 132.696 152.107 132.761 152.306C132.297 152.87 132.401 153.63 132.265 154.297L132.761 153.597C133.095 153.466 133.66 153.431 133.792 153.832C133.36 154.393 133.56 155.289 133.625 155.987C133.492 154.892 135.183 154.595 134.587 153.5L134.09 154.229C133.725 153.999 134.156 153.7 134.022 153.334C133.592 153.368 133.226 153.266 132.828 153.2C132.861 152.968 132.962 152.702 133.226 152.638C136.342 153.2 135.615 149.318 137.54 148.091C138.402 147.761 139.131 148.292 139.824 148.558C138.132 144.172 142.565 139.964 140.238 136.046C140.008 136.628 139.583 137.014 139.022 137.121L138.965 137.131V137.352C137.405 137.715 136.342 136.452 135.049 135.989C134.849 135.825 134.69 135.591 134.654 135.359C136.017 135.897 137.23 136.86 138.753 137.089L138.824 136.904C136.992 136.665 135.534 135.526 133.859 134.898C133.46 134.832 133.054 134.706 132.68 134.71ZM137.724 134.726C137.321 134.708 136.941 134.737 136.641 134.796C137.34 135.295 138.168 135.427 138.862 135.825L138.566 136.155C138.692 136.19 138.826 136.211 138.961 136.237C138.994 135.841 138.979 135.383 138.945 134.941C138.553 134.812 138.128 134.746 137.724 134.726ZM135.945 137.116C136.906 137.217 137.738 137.715 138.633 137.98V138.145C137.574 138.177 136.709 137.746 135.945 137.116ZM137.225 138.389C137.537 138.424 137.944 138.754 138.234 138.775L137.771 139.174C137.935 141.495 137.504 143.749 137.207 145.939C136.843 145.11 137.207 144.184 137.207 143.321C137.042 141.694 138.102 140.069 136.806 138.775C136.882 138.453 137.036 138.368 137.225 138.389ZM137.059 146.122C137.136 146.135 137.191 146.226 137.141 146.437V146.668C136.976 146.734 136.906 146.567 136.806 146.502C136.725 146.295 136.928 146.102 137.059 146.122ZM137.934 148.822C136.642 149.388 136.843 150.847 136.343 151.907C135.021 152.573 135.414 154.16 135.217 155.253C135.516 155.42 135.916 155.587 136.246 155.421C137.375 154.494 137.77 153.101 137.934 151.678H138.17C138.965 152.606 139.228 153.927 139.196 155.253C141.119 155.289 143.408 155.754 144.768 154.227C145.098 152.87 146.028 151.542 147.319 150.815C147.387 150.051 146.989 149.421 146.423 148.955C145.993 148.822 145.762 149.188 145.497 149.455C145.594 149.621 145.928 149.717 145.794 150.017C145.528 150.281 145.198 150.447 144.834 150.479C142.447 150.15 140.126 149.619 137.934 148.822ZM138.408 149.66C138.658 149.66 138.949 149.735 139.131 149.752C140.424 150.182 141.585 150.913 143.009 150.947C141.419 151.643 139.261 151.177 137.934 150.017C137.952 149.735 138.16 149.66 138.408 149.66Z" fill="#E31837"/>
<path d="M100.501 98.7952C100.287 98.7909 100.055 98.7974 99.8015 98.8167C98.5738 99.1145 97.8127 100.176 97.1816 101.204C97.9449 100.608 98.9135 99.6123 99.8736 99.4822C100.992 99.079 102.234 99.6553 103.174 99.6359C102.594 99.4037 101.998 98.8307 100.501 98.7952ZM124.543 102.147C123.762 102.144 123.043 102.245 122.256 102.245L121.752 102.319C121.242 102.383 121.229 102.35 120.571 102.489L120.154 102.556C119.995 102.622 118.945 102.833 118.747 102.938C118.971 103.095 120.45 102.978 120.672 103.042C121.564 103.076 122.495 103.248 123.186 103.273C123.949 103.337 126.739 104.053 126.739 104.148C126.549 104.723 124.121 108.591 124.49 108.072C124.776 107.977 125.633 107.077 127.61 105.915C128.215 105.405 129.105 105.308 129.806 104.895C132.257 104.42 134.707 104.447 137.063 104.925C138.057 105.047 138.583 105.167 139.343 105.34C138.927 105.01 138.684 105.062 138.556 104.967C137.183 104.389 135.389 103.615 133.954 103.392C133.224 103.138 132.924 103.305 132.225 103.049C131.845 103.084 131.492 102.86 131.174 102.795C130.95 102.922 130.108 102.591 128.704 102.418C128.286 102.356 127.769 102.383 127.385 102.319C126.751 102.286 126.018 102.191 125.347 102.191C125.068 102.159 124.803 102.147 124.543 102.147ZM157.319 115.946C157.23 115.935 157.134 115.953 156.989 116.007C156.408 116.007 156.47 116.197 156.382 116.343C156.502 116.431 157.419 116.68 157.508 116.769C160.13 117.715 160.709 118.567 161.898 119.3C163.637 120.461 163.758 121.616 164.703 121.829C164.91 121.859 162.632 118.691 160.623 117.595C160.029 117.33 159.555 116.857 158.874 116.647C157.759 116.281 157.582 115.982 157.319 115.946ZM137.512 119.826C136.739 119.887 135.451 120.164 135.124 120.432C134.833 120.166 131.62 119.583 129.923 122.741C129.723 123.25 128.89 124.249 128.519 124.543C129.312 124.199 129.93 123.15 130.018 123.179C130.076 123.033 130.56 122.449 131.223 122C132.917 121.009 133.085 120.884 135.417 121.04C136.37 120.326 137.475 119.824 138.058 119.848C137.969 119.81 137.77 119.806 137.512 119.826ZM155.109 122.624C153.287 122.688 151.23 122.391 149.772 123.188L150.267 123.419C152.025 123.651 153.453 124.746 154.946 125.574H155.275C154.118 124.547 152.755 124.049 151.53 123.188C152.69 122.89 153.919 122.788 155.109 122.624ZM134.627 129.147C134.59 129.132 134.544 129.133 134.486 129.158C134.354 129.556 134.178 130.36 134.508 130.526C134.842 130.261 134.686 129.819 134.818 129.456C134.767 129.381 134.736 129.193 134.627 129.147ZM136.243 130.019V132.24C136.675 131.809 136.937 131.312 137.039 130.747C136.937 130.416 136.64 130.019 136.243 130.019ZM137.57 131.845V134.064C138 133.633 138.265 133.138 138.363 132.574C138.265 132.24 137.968 131.845 137.57 131.845ZM138.881 133.189C138.881 133.189 139.403 135.883 138.988 136.952C139.792 136.795 140.107 136.075 140.207 135.511C140.107 135.179 139.279 133.189 138.881 133.189ZM160.35 135.986C159.821 136.186 159.221 136.783 159.026 137.349C159.52 139.271 158.857 141.461 158.061 143.249C160.35 141.859 161.443 139.304 161.476 136.621C161.147 136.285 160.814 136.021 160.35 135.986ZM157.96 135.989C157.428 136.685 157.928 137.546 158.129 138.207C158.326 137.578 158.525 136.486 157.96 135.989ZM155.907 136.154C155.045 136.621 155.972 137.943 155.907 138.207C156.236 137.781 156.237 137.217 156.237 136.621L155.907 136.154ZM153.684 136.716L152.792 137.115C152.857 137.677 153.187 138.078 153.287 138.606C153.519 138.009 153.785 137.28 153.684 136.716ZM148.014 137.745C147.914 138.312 148.281 138.64 148.413 139.104C148.777 138.74 148.941 138.312 148.976 137.813L148.014 137.745ZM150.966 137.745L150.102 137.912C150.102 138.275 150.402 138.506 150.402 138.873C150.601 138.476 150.866 138.143 150.966 137.745ZM146.421 137.895C145.659 137.923 144.815 138.053 143.971 137.976C144.203 140.197 144.898 142.554 144.298 144.843C146.091 142.886 147.018 140.562 147.152 137.912C146.92 137.887 146.675 137.885 146.421 137.895ZM130.837 151.11C130.505 151.11 130.639 151.641 130.604 151.606L130.837 151.11ZM131.8 152.798C131.303 153.133 131.204 153.761 131.401 154.293H131.568L131.8 152.798ZM138.232 153.498C137.867 154.391 137.402 155.252 136.805 156.049C136.539 156.879 134.95 157.672 136.078 158.6C136.739 158.47 137.37 158.27 137.931 157.871C138.629 156.681 138.63 154.789 138.232 153.498ZM147.221 153.827C147.12 155.187 146.622 156.379 145.892 157.474C146.42 157.542 147.184 157.742 147.615 157.311C147.846 156.117 147.617 154.888 147.221 153.827ZM132.895 154.39C132.462 154.821 132.66 155.453 132.826 155.983C132.826 155.52 132.96 154.821 132.895 154.39ZM144.698 155.318C144.5 155.318 144.432 155.585 144.534 155.652H144.599C144.732 155.585 144.665 155.418 144.698 155.318ZM134.487 155.419C134.354 156.117 133.724 157.11 134.42 157.706C135.049 157.11 134.585 156.117 134.487 155.419ZM145.726 155.717C145.694 155.983 145.429 156.216 145.625 156.448C145.727 156.448 145.825 156.48 145.892 156.38C146.058 156.148 145.892 155.818 145.726 155.717ZM143.505 156.282C143.008 156.479 143.042 157.21 142.611 157.576C142.94 157.542 143.304 157.608 143.572 157.474C143.538 157.078 143.64 156.646 143.505 156.282ZM144.766 156.284L144.431 157.239C144.599 157.443 144.833 157.51 145.096 157.474C144.998 157.077 144.996 156.582 144.766 156.284ZM142.144 156.448C141.65 156.745 141.318 157.24 141.25 157.809H141.418C141.981 157.608 142.246 157.044 142.144 156.448ZM140.158 156.681C139.628 156.812 139.491 157.41 139.031 157.706C139.259 157.775 139.427 157.94 139.66 157.871C140.222 157.706 140.158 157.178 140.158 156.681ZM143.153 160.948C141.783 160.926 138.373 161.18 135.94 163.572C136.236 163.937 135.594 164.822 136.357 164.987C137.318 164.161 138.445 163.529 139.671 163.198C142.206 162.444 142.468 162.926 143.255 163.165C143.454 163.33 144.039 163.556 144.204 163.788C144.334 163.788 143.825 162.228 143.591 162.096C145.644 161.353 143.715 161.08 143.153 160.948Z" fill="white"/>
</svg>
