<svg width="201" height="201" viewBox="0 0 201 201" fill="none" xmlns="http://www.w3.org/2000/svg">
<path d="M186.008 6.42183H36.9759L32.1755 1.61852H25.2629L24.8574 2.02505C24.1216 1.75761 23.3379 1.61852 22.5277 1.61852C20.6957 1.61852 18.9734 2.33269 17.6783 3.62883C15.7414 5.5627 15.2066 8.38026 16.0784 10.8059L15.6699 11.2134V18.1427L20.4644 22.9342L20.4747 22.9215V84.2878C20.4747 98.8419 22.921 112.936 27.4352 126.025L20.2846 133.175L22.7681 135.153C24.4256 136.474 26.143 137.723 27.9231 138.888C27.9292 138.894 27.9368 138.9 27.9446 138.903C28.6284 139.351 29.322 139.79 30.0225 140.213C30.042 140.223 30.0607 140.235 30.0784 140.248C30.769 140.663 31.4665 141.069 32.171 141.462C32.2004 141.476 32.2259 141.491 32.2523 141.506C32.9498 141.894 33.6522 142.269 34.3664 142.632C34.3968 142.647 34.4281 142.662 34.4585 142.676C34.5026 142.703 34.5526 142.726 34.5977 142.75C48.556 169.694 71.938 190.47 100.564 199.074L102.957 199.795L103.137 199.752L103.429 199.828L105.916 199.077C127.589 192.559 146.258 179.067 160.106 161.203H172.336H175.251V145.925L171.951 142.621C180.944 125.21 186.008 105.225 186.005 84.2875V6.4222L186.008 6.42183Z" fill="#2C2A29"/>
<path d="M22.5335 4.53703C21.5251 4.53703 20.5167 4.92056 19.7457 5.68859C18.2076 7.22863 18.2076 9.72419 19.7457 11.2642L18.5908 12.4205V16.9294L20.4654 18.8023L22.9461 16.3216L40.7911 34.1665C37.5483 37.8491 34.6602 41.7964 32.1491 45.9556L35.3415 49.1481C39.2592 42.4451 44.2022 36.3116 50.0648 30.969C54.5174 26.9122 59.3733 23.4229 64.53 20.541L61.3215 17.3341C56.6965 20.0096 52.3094 23.1538 48.2271 26.7401L30.3773 8.89029L32.8516 6.41758L30.9691 4.53662H26.4763L25.3215 5.69145L25.3198 5.68825C24.5498 4.92018 23.5418 4.53703 22.5335 4.53703ZM34.9531 9.33856L39.5355 13.9194H178.505V84.2837C178.505 103.147 174.149 121.181 166.374 137.041L169.785 140.451C178.304 123.642 183.089 104.415 183.089 84.2838V9.33848H34.948L34.9531 9.33856ZM23.3974 20.9024V84.283C23.3974 98.0088 25.6236 111.315 29.7392 123.72L33.3795 120.08C29.8696 108.771 27.9845 96.7082 27.9845 84.2852V25.4881L23.3973 20.9041L23.3974 20.9024ZM104.391 23.5095C90.7743 23.2715 78.0394 27.2145 67.414 34.1554L84.594 51.3362C89.4473 48.9409 94.7559 47.4875 100.259 47.1025C101.499 47.0153 102.749 46.983 103.981 47.0065C113.865 47.178 123.409 50.8352 130.854 57.3068C131.79 58.1229 132.71 58.9918 133.577 59.8931C141.414 68.0067 145.622 78.6724 145.425 89.921C145.314 96.2115 143.817 102.311 141.093 107.835L158.275 125.016C164.806 115.019 168.695 103.126 168.921 90.3313C169.553 54.1165 140.606 24.1394 104.391 23.508L104.391 23.5095ZM67.7547 23.7699C62.4817 26.6026 57.5256 30.0944 53.011 34.2078C47.1893 39.5103 42.3307 45.6497 38.5473 52.3615L40.697 54.5079C43.876 48.7035 47.8878 43.342 52.649 38.5891V38.5923L76.5302 62.4751L82.1058 56.9042L62.3667 37.1643L58.535 33.3318C62.1079 30.4849 65.9183 28.0104 69.9138 25.9296L67.7547 23.7699ZM103.225 33.3733C103.556 33.3733 103.886 33.3788 104.218 33.3829C105.169 33.4016 106.114 33.4446 107.056 33.5093L106.01 44.1666C105.354 44.1265 104.688 44.0995 104.03 44.0867C103.761 44.0857 103.494 44.0803 103.227 44.0803C102.343 44.0803 101.452 44.1077 100.572 44.1586L99.5316 33.498C100.755 33.4206 101.993 33.3733 103.223 33.3733L103.225 33.3733ZM96.1715 33.8244L97.2064 44.4834C95.4018 44.7244 93.6162 45.0742 91.8675 45.5278L88.7843 35.2701C91.1992 34.6235 93.6652 34.1416 96.1673 33.8242L96.1715 33.8244ZM110.417 33.842C112.912 34.1653 115.376 34.6604 117.788 35.3118L114.704 45.5654C112.953 45.104 111.173 44.7503 109.371 44.5034L110.417 33.842ZM85.5527 36.2411L88.6332 46.5013C87.4733 46.8971 86.3337 47.34 85.212 47.8288L77.1956 39.8141C79.878 38.3964 82.6735 37.2012 85.5527 36.2411ZM121.025 36.2923C123.4 37.0898 125.718 38.0498 127.965 39.1617L122.958 48.6243C121.326 47.8317 119.65 47.1405 117.938 46.5498L121.025 36.2923ZM130.949 40.7515C133.115 41.9918 135.207 43.3834 137.197 44.9117L130.453 53.227C129.006 52.1297 127.496 51.1269 125.935 50.2168L130.949 40.7515ZM52.6488 46.7687V49.7389L70.9556 68.049L72.4415 66.5647L52.65 46.7683L52.6488 46.7687ZM139.814 47.0502C141.041 48.119 142.239 49.2548 143.371 50.4314C143.976 51.0545 144.56 51.6919 145.13 52.3395L136.903 59.1947C136.5 58.746 136.093 58.3006 135.67 57.8656C134.837 57.0005 133.959 56.163 133.063 55.3705L139.814 47.0502ZM103.241 52.6914C97.3641 52.6914 91.8067 54.0808 86.89 56.5524C86.6764 56.6582 86.4648 56.7709 86.2502 56.8835L81.3831 61.749L42.5772 100.553H50.8352L65.126 86.264H69.8747H85.041H85.0426H89.166L89.1677 86.2705L89.1453 86.3361C88.8475 87.3237 88.4331 88.2638 87.9217 89.1416C85.3373 93.5775 80.2149 96.483 74.5374 96.483H61.0991L37.4881 120.097L30.7865 126.797C39.1042 133.183 49.2677 137.355 60.4655 138.334C62.128 138.48 63.8165 138.553 65.483 138.553C79.6256 138.553 93.218 133.283 103.761 123.71C108.839 130.615 117.024 135.108 126.234 135.108C128.583 135.108 130.863 134.814 133.043 134.265L120.26 121.474C131.847 115.356 139.742 103.196 139.742 89.1839C139.742 69.0288 123.404 52.6907 103.251 52.6907L103.241 52.6914ZM147.29 54.9402C148.838 56.9211 150.244 58.9912 151.499 61.1397L142.095 66.2802C141.179 64.7343 140.165 63.2355 139.056 61.7954L147.29 54.9402ZM153.112 64.108C154.241 66.3407 155.215 68.6475 156.027 71.0095L145.807 74.2324C145.211 72.5297 144.509 70.8663 143.706 69.2469L153.112 64.108ZM157.03 74.2355C157.695 76.6318 158.197 79.0802 158.532 81.5657L147.886 82.7509C147.631 80.9582 147.271 79.196 146.808 77.46L157.03 74.2355ZM158.891 84.9264C159.021 86.6535 159.073 88.4041 159.039 90.1597C159.027 90.9072 158.998 91.6532 158.955 92.3958L148.28 91.5C148.309 90.9916 148.328 90.4816 148.336 89.9742C148.36 88.6761 148.324 87.39 148.238 86.1115L158.891 84.9264ZM147.986 94.8655L158.659 95.7613C158.364 98.2447 157.911 100.698 157.294 103.098L146.996 100.155C147.431 98.4199 147.76 96.6544 147.986 94.8655ZM146.055 103.4L156.354 106.343C155.367 109.408 154.116 112.379 152.61 115.227L144.595 107.215C145.138 105.966 145.627 104.694 146.055 103.4ZM138.121 112.92C136.832 114.813 135.377 116.61 133.775 118.291C133.54 118.538 133.303 118.776 133.066 119.012L170.233 156.175H162.058L130.978 125.1V128.074L161.185 158.279H172.335V158.278V158.276V156.176V155.359V147.131L138.262 113.06L138.121 112.921L138.121 112.92ZM26.732 130.849L24.6559 132.926C34.3904 140.671 46.4194 145.744 59.7128 146.908C75.6472 148.302 90.7701 143.847 102.957 135.335C109.276 140.572 117.39 143.717 126.234 143.717C131.055 143.717 135.65 142.78 139.863 141.084L137.597 138.82C134.047 140.099 130.222 140.8 126.234 140.8C117.305 140.8 109.18 137.293 103.157 131.589C92.3018 139.786 79.1295 144.242 65.4824 144.242C63.6543 144.242 61.8001 144.16 59.9691 143.999C47.3865 142.898 35.9864 138.133 26.7327 130.848L26.732 130.849ZM103.238 141.12L98.5998 155.392L83.5973 155.396L95.7336 164.212L95.7368 164.215L91.0968 178.486L103.238 169.663L115.384 178.489L110.746 164.212H110.742L122.877 155.392H107.88L103.238 141.12ZM38.9985 144.777C52.7587 169.391 74.7474 188.263 101.401 196.275L103.05 196.771L103.166 196.746L103.36 196.792L105.073 196.275C126.243 189.912 144.472 176.694 157.975 159.196L154.709 155.933C141.747 172.922 124.18 185.746 103.752 191.888L103.259 192.037L103.221 192.026L103.203 192.032L102.72 191.885C78.9241 184.733 59.0056 168.508 45.7319 147.191C45.4223 147.096 45.1134 147.002 44.8058 146.904C44.7588 146.888 44.7133 146.875 44.6682 146.861C44.3116 146.746 43.9589 146.634 43.6062 146.514C43.5895 146.51 43.5684 146.504 43.5518 146.496C43.1717 146.369 42.7924 146.237 42.4162 146.101C42.3937 146.094 42.3715 146.083 42.349 146.077C41.9885 145.949 41.6254 145.816 41.2678 145.682C41.2462 145.673 41.2241 145.664 41.2054 145.655C40.8253 145.511 40.4463 145.368 40.073 145.217C40.0658 145.217 40.0613 145.213 40.0555 145.209C39.7018 145.068 39.3493 144.923 38.9985 144.777Z" fill="#D3BC8D"/>
</svg>
