<svg width="200" height="200" viewBox="0 0 200 200" fill="none" xmlns="http://www.w3.org/2000/svg">
<path d="M147.075 67.0072V74.8626L143.163 67.0072H147.075ZM53.2782 67.0072H57.1899L53.2782 74.8626V67.0072ZM100.031 150.686C76.8634 150.686 69.2951 147.475 61.1287 142.934C60.4436 142.559 59.8381 142.177 59.2724 141.803H83.5156V116.324H68.7691L75.3099 104.692H126.545L133.173 116.666H116.595V141.802H140.783C140.217 142.176 139.612 142.558 138.926 142.933C130.76 147.474 123.192 150.685 100.032 150.685M100.845 59.3835L111.927 78.8707H89.6119L100.846 59.3835H100.845ZM190.049 66.992V41.5136H134.273V52.2291L116.468 20.6563H83.6444L65.7825 52.3244V41.5136H10.0063V66.992H21.24C21.24 66.992 21.2318 98.0866 21.224 116.665H10.5403V141.801H21.734C22.8414 148.787 25.9724 156.38 34.5448 162.698C48.1043 172.688 64.4362 179.348 100.033 179.348C135.62 179.348 151.953 172.688 165.513 162.698C172.683 157.416 175.997 148.82 177.527 141.801H189.564V116.665H178.833V66.992H190.049Z" fill="#F26522"/>
<path d="M86.6071 25.7264L32.4751 121.745H15.6178L15.6177 136.721H78.436V121.403H60.0811L72.3421 99.6094H129.534L141.789 121.745H121.672V136.721H184.491V121.745H167.634L113.497 25.7264L86.6069 25.7271L86.6071 25.7264ZM139.35 46.5925V61.2355H151.945V83.5739L170.596 116.662H173.739V61.9121H184.97V46.5925H139.35ZM15.0835 46.594V61.9136H26.3166V116.662H29.5044L48.1062 83.6712V61.237H60.7012V46.594H15.0835ZM100.88 49.1646L120.656 83.9478H80.8181L100.88 49.1646ZM26.9025 141.8C27.9696 147.571 30.7182 153.568 37.554 158.599C50.4917 168.138 65.6444 174.266 100.031 174.266C134.414 174.266 149.565 168.138 162.509 158.599C169.341 153.568 172.085 147.571 173.159 141.8H148.396C146.821 143.731 144.585 145.589 141.39 147.368C132.199 152.472 123.524 155.753 100.031 155.753C76.5348 155.753 67.8514 152.472 58.6656 147.368C55.4705 145.589 53.2316 143.731 51.662 141.8H26.9025Z" fill="#03244D"/>
</svg>
