<svg width="201" height="201" viewBox="0 0 201 201" fill="none" xmlns="http://www.w3.org/2000/svg">
<path d="M142.393 89.558C160.699 101.182 182.41 99.1064 182.41 99.1064C182.41 99.1064 160.208 170.664 100.449 192.469C40.6868 170.664 18.4824 99.1064 18.4824 99.1064C18.4824 99.1064 40.1876 101.165 58.4946 89.5417L57.3569 87.6697L59.4231 84.3416C59.4231 84.3416 59.6024 84.0305 59.8591 83.4559C49.5105 77.7599 48.925 70.5772 49.6178 66.5555C51.015 58.8355 57.2407 53.8066 65.5659 53.5723C65.7371 51.5719 65.8247 49.5547 65.8247 47.5435C65.8247 39.2387 64.3861 31.1145 61.6686 24.0486C60.6097 21.3107 61.5144 18.1618 63.8713 16.3972C73.5461 9.16081 99.3238 9.07997 100.418 9.07997C101.509 9.07997 127.29 9.1608 136.961 16.3979C139.313 18.1523 140.222 21.2978 139.169 24.0425C136.45 31.1145 135.011 39.2387 135.011 47.5435C135.011 49.4378 135.114 51.4327 135.325 53.5716C143.716 53.7903 149.994 58.8213 151.385 66.5141C152.083 70.5738 151.495 77.7599 141.151 83.4552C141.415 84.0481 141.605 84.3708 141.608 84.3782L143.567 87.6697L142.393 89.558Z" fill="#A9AFB3"/>
<path d="M134.136 89.8323C133.815 89.4954 133.477 89.1667 133.111 88.8563L137.583 86.6108C137.583 86.6108 136.262 84.4807 135.426 80.849C140.687 78.6428 147.976 74.2544 146.761 67.1606C145.525 60.3555 139.155 56.9051 131.202 58.3525C130.674 54.7717 130.312 51.0998 130.312 47.3621C130.312 38.4915 131.855 29.7907 134.777 22.199C135.09 21.3833 134.825 20.4582 134.121 19.9345C127.111 14.6903 107.233 13.5417 100.361 13.5417C93.487 13.5417 73.6103 14.6903 66.5967 19.9345C65.8958 20.4582 65.6288 21.3833 65.9467 22.199C68.8667 29.7907 70.4105 38.4915 70.4105 47.3621C70.4105 51.0998 70.1355 54.773 69.607 58.3539C61.6561 56.9051 55.3692 60.3555 54.1378 67.162C52.9179 74.2544 60.2087 78.6428 65.4679 80.849C64.6338 84.4807 63.3113 86.6108 63.3113 86.6108L67.7854 88.8563C67.5252 89.0777 67.2793 89.312 67.0382 89.5477C56.1028 96.4085 44.3842 103.568 25.2051 103.568C38.5416 138.007 66.0411 174.863 100.392 187.347C134.739 174.863 162.238 138.007 175.575 103.568C156.576 103.568 144.918 96.6041 134.136 89.8323Z" fill="black"/>
<path d="M108.822 82.254C108.805 82.4347 108.77 82.6072 108.77 82.7919C108.77 86.6058 111.716 89.6982 115.357 89.6982C118.999 89.6982 121.951 86.6058 121.951 82.7919C121.951 80.6877 121.033 78.826 119.617 77.5592C118.266 77.9681 116.606 78.718 114.607 80.0411C112.211 81.6271 110.29 82.182 108.822 82.254Z" fill="white"/>
<path d="M100.316 78.4289C98.5265 78.4289 96.9854 84.4984 96.5446 86.8376C96.5242 86.9239 96.4603 86.9932 96.3754 87.0115C96.2912 87.0373 96.2022 87.0034 96.1479 86.9334C96.0908 86.8594 94.7569 85.1355 94.1021 83.0904L91.2154 81.9595C90.9532 82.4845 90.0899 83.7805 87.9585 83.7805C85.9256 83.7805 83.2896 82.619 80.1278 80.3321C80.0436 80.2703 80.0096 80.1602 80.0504 80.0665C80.0898 79.97 80.191 79.9082 80.2915 79.932L84.3505 80.5793C84.3193 80.1813 84.2833 79.4348 84.3553 78.7624C83.9484 78.5831 82.7048 78.0893 81.2995 78.0893C79.9037 78.0893 78.7409 78.5641 77.8395 79.5014C76.1856 81.2259 75.4446 84.4678 75.6382 89.1388C75.6395 89.2135 75.6076 89.2876 75.5438 89.329C75.4806 89.3732 75.4039 89.3833 75.3319 89.3541C75.2123 89.3052 72.6007 88.2001 71.4875 84.3856C71.1316 86.733 70.8103 92.541 75.8691 94.3369C75.9581 94.3668 76.0179 94.4503 76.0179 94.5447C76.0179 94.5447 76.0179 95.967 76.0403 97.6997C79.0485 97.6488 82.3061 96.9152 85.7273 95.5167C88.453 94.3987 90.8867 93.7032 92.9617 93.4478C93.6198 92.2809 94.4458 91.2886 95.4191 90.4973C95.4877 90.4368 95.5882 90.43 95.669 90.4762C95.7492 90.5231 95.7933 90.6127 95.7784 90.7044C95.775 90.7248 95.4517 92.8487 95.4055 93.6835L100.403 95.0827L105.38 93.6889C103.238 80.419 101.289 78.4289 100.316 78.4289Z" fill="white"/>
<path d="M95.3636 111.987C94.3889 111.987 93.3402 112.22 92.3349 112.665C92.2643 112.696 92.1841 112.69 92.1176 112.646C92.0544 112.602 92.0184 112.529 92.0218 112.453C92.0266 112.317 92.2507 109.135 100.404 109.135C107.696 109.135 107.875 108.326 108.148 107.104C108.148 107.098 108.15 107.092 108.151 107.088C107.886 107.106 107.463 107.128 106.93 107.128C105.114 107.128 102.525 106.886 100.421 105.747C99.9041 106.122 97.7782 107.475 94.1559 107.475C90.2565 107.475 89.1005 108.639 89.0903 108.65C89.0461 108.694 88.9809 108.715 88.928 108.72C88.8648 108.72 88.8084 108.696 88.7636 108.65C88.7398 108.621 88.1767 108.008 87.977 106.886C84.1388 107.377 80.3114 107.361 77.0742 106.815C78.1718 109.937 80.2822 112.665 83.3455 114.928C83.3556 114.068 83.4772 112.187 84.2848 111.085C84.329 111.026 84.3942 110.994 84.4641 110.994C84.4797 110.994 84.4947 110.994 84.5083 110.997C84.5959 111.015 84.6645 111.083 84.6815 111.167C84.6985 111.242 86.3782 118.619 90.7354 122.537C92.2113 123.865 93.8686 124.596 95.3962 124.596C98.2998 124.596 100.181 122.09 100.181 118.21C100.181 112.796 97.1628 111.987 95.3636 111.987Z" fill="white"/>
<path d="M107.053 112.383C105.385 112.167 104 112.354 102.969 112.934C102.792 113.721 102.414 115.943 103.011 118.514C103.361 117.387 104.195 115.457 105.901 114.864C109.12 113.746 109.156 113.149 109.149 113.083C109.141 113.013 109.005 112.638 107.053 112.383Z" fill="white"/>
<path d="M130.69 81.7075C130.69 81.7075 130.501 85.3169 129.67 86.9205C128.841 88.5262 128.008 90.9333 128.746 91.9365C128.746 91.9365 134.11 90.8342 130.69 81.7075Z" fill="white"/>
<path d="M76.7539 76.0054C76.7539 76.0054 80.472 73.5949 87.2737 77.5282C94.074 81.4568 96.3793 79.034 96.3793 79.034C96.3793 79.034 84.476 68.9558 76.7539 76.0054Z" fill="white"/>
<path d="M112.168 88.7324L120.324 80.6103C120.082 80.0377 119.768 79.5039 119.392 79.0277L110.691 87.5153C111.123 87.9907 111.621 88.401 112.168 88.7324Z" fill="#9BA1A6"/>
<path d="M120.943 82.6751L114.213 89.2363C114.637 89.3273 115.071 89.3735 115.518 89.3735C115.641 89.3735 115.759 89.3613 115.879 89.3545L120.849 84.3983C120.922 83.99 120.966 83.5716 120.966 83.1403C120.966 82.9848 120.951 82.8293 120.943 82.6751Z" fill="#9BA1A6"/>
<path d="M124.234 75.6812C124.234 75.6812 120.514 73.2706 113.716 77.204C106.915 81.1326 104.607 78.7098 104.607 78.7098C104.607 78.7098 116.513 68.6316 124.234 75.6812Z" fill="white"/>
<path d="M83.3148 21.5903C79.0731 22.0528 74.832 23.5539 74.832 23.5539C74.832 23.5539 79.4908 31.8458 78.2988 51.5928C80.2671 51.3992 83.217 51.1506 83.3148 50.9441V21.5903Z" fill="white"/>
<path d="M94.8893 95.5642C92.6832 95.5642 89.8046 96.2876 86.3223 97.7139C81.3884 99.7332 76.5517 100.223 72.1938 99.1518C69.627 98.2186 68.1131 96.3168 68.1131 94.0543C68.1131 93.8213 68.1287 93.5897 68.1579 93.3608C67.4033 94.2587 66.9883 95.3733 66.9883 96.5416C66.9883 97.7431 67.4413 98.9155 68.2639 99.8412C69.3241 101.094 70.9916 102.199 73.2235 103.129C75.755 104.186 79.0471 104.743 82.7482 104.743C91.4653 104.743 99.4074 101.738 99.4074 98.4373C99.4027 98.3374 99.2043 95.5642 94.8893 95.5642Z" fill="white"/>
<path d="M133.137 93.3635C133.166 93.5924 133.182 93.8227 133.182 94.0543C133.182 96.3174 131.669 98.2193 129.135 99.1416C127.597 99.522 126.024 99.7074 124.425 99.7074C121.382 99.7074 118.201 99.037 114.971 97.7146C111.492 96.2882 108.61 95.5649 106.408 95.5649C102.09 95.5649 101.894 98.3361 101.887 98.4556C101.887 100.034 103.763 101.646 107.035 102.859C110.264 104.059 114.459 104.743 118.545 104.743C122.243 104.743 125.534 104.186 128.068 103.129C130.303 102.198 131.974 101.093 133.028 99.8474C133.854 98.9168 134.305 97.7452 134.305 96.5423C134.305 95.3747 133.889 94.2621 133.137 93.3635Z" fill="white"/>
<path d="M100.406 73.3644C102.728 73.3556 114.052 73.6708 126.16 66.9662C138.037 60.2439 142.203 65.0433 142.284 65.0481C142.148 65.0399 138.561 56.3398 123.133 65.4563C116.265 69.4277 107.787 70.4974 100.402 70.4635C93.0205 70.5131 84.5397 69.4453 77.6627 65.5351C62.207 56.5959 58.6309 65.2063 58.5039 65.2016C58.5827 65.2056 62.7409 60.4511 74.634 67.045C86.7526 73.6449 99.5675 73.3671 100.406 73.3644Z" fill="#A9AFB3"/>
<path d="M120.104 58.7086L123.838 55.2215C120.4 54.9342 111.757 54.3249 100.432 54.3249H100.429H100.422C89.1001 54.3249 80.4632 54.9342 77.0182 55.2188L80.7539 58.7086L75.1917 60.1472C75.1782 60.1832 75.1646 60.2185 75.1523 60.2559C75.9464 60.6593 76.7702 61.1063 77.6396 61.6177C84.5161 65.6034 92.9975 66.6922 100.379 66.6419C107.764 66.6765 116.242 65.585 123.11 61.5383C123.986 61.0119 124.818 60.55 125.618 60.1357L120.104 58.7086Z" fill="#B0002A"/>
<path d="M92.4481 143.257C87.2576 140.965 80.3295 137.175 74.1914 131.462C77.6031 138.812 83.1564 147.672 96.2844 156.29L97.471 150.708C94.7059 148.25 93.2197 145.328 92.4481 143.257Z" fill="white"/>
<path d="M108.351 143.257C113.538 140.965 120.467 137.175 126.608 131.462C123.194 138.812 117.639 147.672 104.511 156.29L103.328 150.708C106.09 148.25 107.578 145.328 108.351 143.257Z" fill="white"/>
<path d="M104.151 130.519L100.431 136.889L96.7079 130.519C96.7079 130.519 83.4088 126.159 75.3125 114.666L75.6358 120.764C75.6358 120.764 76.2634 130.811 96.3622 139.641C97.5576 139.405 98.9704 139.267 100.487 139.267C101.973 139.267 103.352 139.399 104.53 139.624C124.597 130.8 125.223 120.764 125.223 120.764L125.548 114.666C117.45 126.159 104.151 130.519 104.151 130.519Z" fill="white"/>
<path d="M65.811 104.117C58.5081 108.576 50.5524 112.811 40.0938 114.749C41.5867 118.025 44.2893 123.383 48.423 129.592L61.4994 131.652L58.4571 142.549C65.5781 150.475 74.846 158.472 86.6386 164.613C86.6386 164.613 59.1839 132.672 65.811 104.117Z" fill="#B0002A"/>
<path d="M152.432 129.592C156.564 123.383 159.268 118.025 160.758 114.749C150.301 112.811 142.345 108.576 135.044 104.117C141.668 132.672 114.213 164.613 114.213 164.613C126.006 158.472 135.276 150.475 142.396 142.549L139.352 131.652L152.432 129.592Z" fill="#B0002A"/>
</svg>
