<svg width="201" height="200" viewBox="0 0 201 200" fill="none" xmlns="http://www.w3.org/2000/svg">
<path d="M59.882 29.4421V22.0729L71.3723 33.2737V12.1797L149.386 99.7421C149.386 99.7421 160.148 112.378 160.148 125.206C160.148 134.483 158.435 139.543 153.226 144.149C156.153 149.614 164.876 168.076 160.829 187.82L156.348 184.193C156.348 184.193 139.028 190.382 108.431 179.02C108.431 179.02 105.567 181.121 100.516 181.121H68.475C68.475 181.121 60.4069 180.882 57.0117 175.852L40.9536 149.145C40.9536 149.145 38.2393 145.235 38.2393 134.999V78.2612H50.3068C50.3068 78.2612 49.9305 76.6822 49.9305 73.9753V61.6363L50.0009 49.3948V34.6098L59.882 44.404V29.4421Z" fill="white"/>
<path d="M144.489 96.5333C153.668 106.767 160.887 121.235 155.568 135.2C154.494 137.917 152.277 140.383 149.934 142.341C156.14 154.349 160.508 167.933 158.481 182.657L124.296 155.544C122.204 154.598 119.992 153.59 117.584 154.029L125.494 160.661L151.135 181.455V181.773C135.565 184.171 120.874 180 107.263 175.387C105.429 176.59 103.529 177.412 101.311 177.664C91.7526 177.914 78.2064 177.788 67.7554 177.788C63.0735 177.158 57.8863 175.515 55.9173 170.519L41.5492 146.101C39.8366 142.434 39.2068 137.664 39.3343 133.301L39.4557 78.6501H51.6778L51.0449 72.959V37.7039L60.9576 47.5281L60.9755 25.161L72.3488 36.5357L72.3593 15.7388L144.489 96.5333Z" fill="black"/>
<path d="M73.837 19.3295V39.1235L62.6509 29.1371L62.6341 51.6125L52.5337 41.4761L52.5217 69.8133C52.5217 69.8133 52.229 77.1435 53.7922 79.9232H40.9121V136.476C40.9121 140.739 42.6877 145.069 42.6877 145.069L55.6038 166.743C57.1226 168.825 58.2011 171.546 60.7325 172.808C63.5806 174.33 67.3801 173.948 70.1635 172.685L91.8806 151.764C95.2986 149.306 99.9847 148.228 104.034 149.175C100.806 145.888 96.1216 143.935 94.0341 139.764C94.0965 137.737 93.9393 134.896 93.9393 134.896C94.0977 133.632 95.0454 133.314 96.1852 133.379L111.664 133.331C113.085 133.394 113.882 132.229 114.042 130.964C114.042 129.702 113.881 127.177 113.881 127.177L105.11 120.694L105.014 125.12C105.323 126.164 106.69 126.951 107.231 127.015H111.821V131.126C111.821 131.126 103.907 131.438 100.232 130.364C93.0179 127.141 94.0317 118.928 94.0317 111.849L81.1168 101.897V96.5152C81.1168 96.5152 117.521 125.12 118.784 126.13C120.05 127.143 121.698 127.015 121.698 127.015H152.341C152.341 127.015 154.335 127.015 155.348 123.858C156.357 120.694 151.515 107.493 146.448 101.111L73.837 19.3451V19.3295ZM123.524 143.483C121.695 143.54 119.809 143.839 117.838 144.532C115.622 145.323 112.453 146.428 112.453 146.428L112.583 149.614C116.947 149.868 121.955 149.431 125.624 151.766L150.695 171.737L155.247 175.085C155.061 163.393 152.148 153.223 146.006 144.061C138.293 147.528 131.453 143.232 123.524 143.483ZM118.658 160.868C117.141 165.347 112.203 169.462 108.028 170.979C118.473 174.896 129.484 178.309 141.136 178.561L118.658 160.877V160.868Z" fill="white"/>
<path d="M76.1558 27.0549L76.1162 72.8683C76.1162 79.3995 79.8485 82.238 79.8485 82.238L84.5981 82.262C83.0157 79.4787 81.8796 77.8147 81.8796 73.0374L103.592 90.6012L82.0655 68.5553L82.0043 58.1898L104.79 76.5094L81.8808 53.0083L81.8592 41.1743L148.605 114.742L152.401 118.53C151.771 113.855 149.745 109.752 146.892 105.962L76.157 27.0561L76.1558 27.0549ZM65.7939 37.0797L65.8154 70.0262C65.8154 80.7672 68.9923 82.2404 68.9923 82.2404L75.2212 82.2644C75.2212 82.2644 71.5117 80.1325 71.5117 73.8196L71.5573 43.0231L65.7963 37.0785L65.7939 37.0797ZM54.8261 47.8687L54.7745 71.6962C55.2124 76.7014 56.4925 80.9615 58.0077 82.2368H54.2107V118.089C54.5262 122.322 55.6623 126.236 58.4516 129.461C62.821 132.875 68.7715 138.846 74.469 134.109C74.469 134.109 59.4762 126.521 60.1624 117.012C64.4058 119.226 68.516 121.69 72.6334 124.282L73.5188 124.469C69.1494 120.677 60.1456 113.412 60.1456 113.412L60.1612 107.787C64.5929 110.252 69.1506 112.468 73.52 115.183C69.405 111.39 64.5318 107.977 60.1612 104.127V97.3016L73.2009 104.724L59.9753 93.6365L59.9837 84.5055L73.8367 95.8763L73.7587 91.1579C73.7587 91.1579 60.0376 81.9453 60.1624 74.6786L60.2896 53.4498L54.8273 47.8687H54.8261ZM43.0018 82.2368L42.9766 136.316C43.9219 139.349 44.3982 143.044 47.0556 145.384C53.2617 149.428 58.2009 156.57 66.2401 156.127C66.8088 155.75 68.0757 154.922 68.0757 154.922L53.4536 143.681C50.4784 141.345 48.1329 137.929 48.3249 134.139C54.7193 137.871 68.5196 145.512 68.5196 145.512L48.1065 129.837V124.464L54.6557 128.258C54.6557 128.258 52.2347 125.808 52.2767 123.766L48.1065 120.752V114.513L52.104 116.973V113.602L48.1065 110.717V105.271L52.1531 107.717L52.1603 104.531L48.1065 102.02V95.9507L52.104 98.2398L52.0824 94.9969L48.1065 92.5555V86.4358L52.11 88.8508L52.0848 85.8024L47.6926 82.2584L43.0018 82.232V82.2368Z" fill="black"/>
<path d="M81.8599 41.1747L81.8803 53.0099L104.792 76.511L82.0051 58.1914L82.0663 68.5569L103.591 90.6028L81.8803 73.0391C81.8803 77.8163 83.0164 79.4803 84.5989 82.2636H77.7941C75.8878 81.3159 73.9298 76.9261 73.9298 73.6065V45.3941L71.5556 43.0259L71.5112 73.8225C71.5112 80.1353 75.2207 82.2636 75.2207 82.2636L66.554 82.1401C64.812 81.0351 62.9177 77.3232 62.9177 73.8429V56.0752L60.2879 53.4526L60.1596 74.6815C60.036 81.9481 73.7607 91.1595 73.7607 91.1595L73.8363 98.7249L59.9832 87.2676L59.9724 93.6381L73.2004 104.726L60.1596 97.3056V104.128C64.5301 107.978 69.4057 111.393 73.5195 115.186C69.1514 112.471 64.5901 110.253 60.1596 107.789L60.1476 113.412C60.1476 113.412 69.1514 120.678 73.5183 124.469L72.6329 124.283C68.5167 121.695 64.4041 119.23 60.1584 117.016C59.4721 126.525 74.4685 134.112 74.4685 134.112C74.4685 134.112 69.72 137.425 65.923 136.477C62.1247 135.53 55.7926 129.842 54.6529 128.263L48.1037 124.469V129.842L68.5179 145.514C68.5179 145.514 54.7165 137.873 48.322 134.142C48.1301 137.931 50.4743 141.346 53.452 143.683L68.074 154.928C65.7934 157.27 61.1721 157.647 59.2718 156.696C57.3738 155.754 50.0952 151.645 50.0952 151.645C50.0952 151.645 56.7416 163.014 58.9598 166.176C61.1733 169.339 66.554 169.968 70.6654 164.281C74.7852 158.594 79.848 154.485 82.0651 152.275C84.2833 150.064 92.1966 148.483 92.1966 148.483C92.1966 148.483 86.1789 143.743 85.5442 142.166V136.163C86.1789 133.952 94.0946 129.842 94.0946 129.842C94.0946 129.842 89.6592 126.051 89.6592 121.315V111.521L81.1161 104.569V96.5018L115.89 123.885C115.89 123.885 143.183 123.838 146.56 123.838C149.937 123.838 152.76 122.474 152.399 118.532L148.603 114.758L81.8599 41.1891V41.1747ZM47.6934 82.266L52.1515 85.9048V82.266H47.6934ZM48.1049 86.4434V92.5631L52.1515 95.1269V88.9604L48.1049 86.4434ZM48.1049 95.9559V102.028L52.1515 104.54V98.3649L48.1049 95.9559ZM48.1049 105.28V110.726L52.1515 113.668V107.726L48.1049 105.28ZM48.1049 114.521V120.761L52.1515 123.685V117.052L48.1049 114.521Z" fill="#BA0C2F"/>
</svg>
