<svg width="201" height="201" viewBox="0 0 201 201" fill="none" xmlns="http://www.w3.org/2000/svg">
<rect x="60.5029" y="34.9565" width="57.4607" height="28.579" fill="#EBBE61"/>
<rect x="92.4268" y="100.023" width="57.4607" height="54.7266" fill="#EBBE61"/>
<path d="M42.1719 22.165L45.1718 22.1649L104.667 22.1641C104.733 22.1641 104.799 22.164 104.866 22.164C107.123 22.1635 109.452 22.163 111.687 22.7263C114.139 23.3445 116.345 24.5894 118.568 26.8174L118.57 26.8193L124.868 33.1419C127.085 35.3631 128.329 37.5522 128.949 39.9828C129.514 42.1993 129.514 44.4973 129.513 46.7146C129.513 46.78 129.513 46.8453 129.513 46.9105V53.9774C129.513 54.0438 129.513 54.1102 129.513 54.1767C129.514 56.3944 129.514 58.6933 128.948 60.9117C128.326 63.3449 127.078 65.5367 124.856 67.7629C124.856 67.7633 124.855 67.7638 124.855 67.7643L124.808 67.8111L124.868 67.8706C124.869 67.8716 124.87 67.8725 124.871 67.8735M42.1719 22.165L122.732 110.463C126.513 106.675 126.513 103.542 126.513 98.8006V98.796V81.6381V81.638C126.513 76.8971 126.513 73.766 122.744 69.9899L124.871 67.8735M42.1719 22.165V25.1649V41.0011V44.0011H45.1719H49.7762V101.711H45.1719H42.1719V104.711V120.549V123.549H45.1719H78.7576V144.313L78.7575 144.511C78.7571 146.777 78.7566 149.111 79.3189 151.353C79.9355 153.81 81.1772 156.024 83.4022 158.26L83.404 158.261L89.6802 164.558C89.6808 164.558 89.6814 164.559 89.682 164.56C91.8904 166.78 94.0542 168.036 96.4569 168.665C98.6478 169.237 100.906 169.237 103.066 169.236L103.262 169.236H133.863L134.06 169.236C136.219 169.237 138.475 169.237 140.662 168.667C143.063 168.041 145.224 166.787 147.428 164.572L153.729 158.25L153.73 158.248C155.951 156.017 157.189 153.805 157.804 151.35C158.365 149.11 158.364 146.777 158.364 144.51L158.364 144.312V101.712V101.137L162.018 101.137L165.018 101.136V98.1366V82.3016V79.3016H162.018H132.928H129.928V82.3016V98.1389V101.139H132.928H136.582V144.312C136.582 144.409 136.581 144.492 136.579 144.562L133.753 147.397C133.685 147.398 133.607 147.399 133.517 147.399H103.603C103.512 147.399 103.433 147.398 103.365 147.397L100.539 144.561C100.536 144.491 100.535 144.409 100.535 144.312V123.548H104.666L104.862 123.548C107.121 123.548 109.451 123.549 111.69 122.983C114.144 122.362 116.352 121.114 118.58 118.881L118.581 118.88L124.855 112.583M42.1719 22.165L124.855 112.583M124.871 67.8735C127.086 70.0936 128.33 72.2815 128.949 74.7109C129.514 76.9271 129.514 79.2248 129.513 81.4421C129.513 81.5075 129.513 81.5728 129.513 81.6381V98.796C129.513 98.8624 129.513 98.9288 129.513 98.9953C129.514 101.213 129.514 103.511 128.948 105.73C128.326 108.163 127.078 110.356 124.855 112.583M124.871 67.8735L124.855 112.583M116.444 28.9364L122.744 35.2612C126.513 39.0372 126.513 42.1695 126.513 46.9104V46.9105V53.9774V53.982C126.513 58.7239 126.513 61.8569 122.732 65.6447L120.575 67.8105L116.444 28.9364ZM116.444 28.9364C112.68 25.1641 109.494 25.1641 104.669 25.1641H104.667L48.1719 25.1649H45.1719V38.0011V41.0011H48.1719H49.7762L116.444 28.9364ZM45.1719 120.549H48.1719L49.7762 104.711H48.1719H45.1719V107.711V117.549V120.549ZM52.7762 44.0011V101.711V44.0011ZM107.73 46.8395C107.732 46.9104 107.733 46.9929 107.733 47.0895V53.8047C107.733 53.9009 107.732 53.983 107.73 54.0536L104.905 56.8902C104.838 56.8921 104.759 56.8932 104.667 56.8932H71.5568V44.5759V44.0011H104.667C104.759 44.0011 104.838 44.0022 104.905 44.0041L107.73 46.8395ZM104.691 57.1052C104.685 57.1114 104.681 57.1149 104.68 57.1162C104.681 57.1149 104.685 57.1113 104.692 57.1059L104.691 57.1052ZM107.731 81.5666C107.732 81.6373 107.733 81.7193 107.733 81.8155V98.6235C107.733 98.7197 107.732 98.8017 107.731 98.8723L107.308 99.2968V98.0153V82.1623V81.142L107.731 81.5666ZM105.336 79.1623H104.308H75.0956H72.0956V82.1623V98.0153V101.015H75.0956H78.7772V101.71L71.5574 101.711L71.5574 78.7283H104.668C104.76 78.7283 104.839 78.7293 104.907 78.7312L105.336 79.1623ZM104.832 101.708L100.624 101.709V101.015L104.307 101.015L105.596 101.016L104.907 101.707C104.884 101.707 104.859 101.708 104.832 101.708Z" fill="#154734" stroke="#EBBE61" stroke-width="6"/>
</svg>
