<svg width="201" height="201" viewBox="0 0 201 201" fill="none" xmlns="http://www.w3.org/2000/svg">
<path d="M21.1035 60.8391C27.345 54.7968 33.7194 48.6217 40.4921 42.1146H52.5767V17.9453H130.529C136.638 23.9212 142.813 29.9636 149.121 36.1387V42.1146H162.799C168.842 48.2897 174.818 54.332 180.661 60.308V94.8355H147.926C146.332 96.4955 144.938 97.8899 143.278 99.6162C145.735 101.807 148.324 103.999 151.511 106.787H180.661V142.709C175.349 148.22 169.904 153.864 164.393 159.641H149.254V165.019C142.813 171.195 136.439 177.37 129.6 183.943H52.7759V159.707H39.9609C33.653 153.532 27.4114 147.424 21.1699 141.381C21.1035 114.556 21.1035 87.8636 21.1035 60.8391Z" fill="#FDB913"/>
<path d="M58.6177 177.836H127.142C132.653 172.458 137.832 167.478 143.077 162.431V153.534H161.736C166.118 148.952 170.434 144.437 174.617 140.121V112.831H147.327V125.912H143.077V106.855C140.554 104.598 137.566 101.942 134.446 99.1531C137.566 96.1651 140.421 93.4427 143.21 90.7868V75.515H147.526V88.5292H174.75V62.5671C169.903 57.9192 164.989 53.1385 159.677 47.9593H143.144V39.4602C137.765 33.7499 133.051 28.6372 128.536 23.8564H58.6177V48.0257H43.0803C37.4364 53.4041 32.2573 58.384 27.2109 63.1647V137.465C32.5893 143.242 37.37 148.421 42.0843 153.468H58.7505C58.6177 161.767 58.6177 169.735 58.6177 177.836Z" fill="white"/>
<path d="M61.6057 26.7754V125.909H83.1191V111.767H118.509V153.465H61.6715V174.913H126.079C130.992 170.198 135.64 165.815 140.089 161.433V107.783C137.234 105.26 133.848 102.272 130.329 99.1511C133.848 95.6983 137.035 92.6432 140.023 89.7218V75.5137H118.577V89.7895H83.1854V48.0902H140.023V40.3879C135.442 35.4743 131.193 30.9592 127.275 26.7761H61.6064L61.6057 26.7754ZM58.5516 51.1432C53.4389 51.1432 48.459 51.1429 43.9438 51.2093C39.0967 55.9237 34.5151 60.3067 30.0664 64.6226V136.732C34.7143 141.778 38.9646 146.294 42.8821 150.544H115.589V129.03H51.5804V72.5912H58.5523V51.1436L58.5516 51.1432ZM86.0409 51.2093V72.5905H150.315V85.804H171.762V63.6924C167.579 59.642 163.263 55.5246 158.814 51.2087L86.0409 51.2093ZM150.182 115.816V129.096H143.077V150.544H160.541C164.259 146.693 167.977 142.775 171.629 138.99V115.817H150.182V115.816Z" fill="#860038"/>
<path d="M54.5684 75.582H58.5523V126.045H54.5684V75.582ZM115.589 126.045H86.1743V114.691H115.589V126.045ZM86.1079 87.0027V75.6484H115.589V87.0027H86.1079Z" fill="#FDB913"/>
</svg>
