<svg width="201" height="201" viewBox="0 0 201 201" fill="none" xmlns="http://www.w3.org/2000/svg">
<path d="M98.8517 25.9475L103.91 31.5491C69.2689 28.3503 47.4107 38.2045 47.4107 38.2045C56.4723 40.3359 63.6724 44.0725 63.6724 44.0725C26.355 60.3326 9.82178 83.7961 9.82178 83.7961H24.3653C18.1061 91.9995 14.2009 101.011 12.9834 110.295C11.1404 124.289 15.592 138.879 25.5069 150.251C38.9729 165.712 60.8868 174.961 85.588 174.961C126.045 174.961 149.411 153.605 149.411 153.605L143.781 151.738C108.429 140.082 100.339 114.777 99.3171 111.097C108.615 112.841 118.311 110.979 118.311 110.979C128.704 115.767 140.422 124.297 140.422 124.297C142.825 128.572 145.757 135.237 161.219 133.634C176.673 132.035 177.749 126.17 177.749 126.17C183.604 124.838 187.347 118.441 187.347 116.839C187.347 115.242 189.21 108.312 189.21 108.312C195.338 94.1831 179.879 89.3859 179.879 89.3859C178.016 88.59 163.838 74.1072 163.838 74.1072C165.789 62.3965 155.311 57.1676 155.311 57.1676C151.841 29.1766 120.968 29.1462 120.968 29.1462L126.303 34.7377C111.38 29.1462 98.8517 25.9475 98.8517 25.9475Z" fill="#FA4616" stroke="#FA4616" stroke-width="1.26736"/>
<path d="M109.873 32.8291C111.078 34.1544 112.277 36.6163 112.277 36.6163C85.5206 30.17 59.2347 38.1962 59.2347 38.1962C61.6054 38.81 65.2948 40.562 68.2153 42.0559L82.472 43.0744C75.5924 43.877 68.964 45.7504 62.7217 48.251C44.6626 56.0681 30.9505 67.2138 23.5583 74.0935C19.6126 77.7862 17.3902 80.2683 17.3902 80.2683L25.403 80.1334C46.5883 56.3362 77.6327 51.0467 77.6327 51.0467C77.6327 51.0467 49.8729 60.2583 31.4463 80.0339L31.6098 80.0306C26.8362 85.0132 22.9901 90.431 20.2517 96.223C19.8622 97.0442 19.3378 98.2582 19.3007 98.3662C17.6499 102.312 16.51 106.411 15.9502 110.66C11.674 143.136 42.8618 171.54 85.61 171.956C95.3663 172.051 105.053 170.645 114.064 168.114C76.712 145.095 80.6307 115.211 80.6307 115.211C80.6307 115.211 81.8768 119.347 84.9018 125.091C90.6433 135.584 103.273 153.098 128.977 162.628C130.722 161.849 136.479 159.111 142.844 154.589C102.524 140.423 96.6444 113.302 96.6444 113.302C82.4737 113.343 77.1774 106.172 76.3174 104.976C76.2466 104.87 76.1977 104.806 76.1977 104.806C68.7397 112.601 67.932 122.389 67.932 122.389C66.7348 109.888 70.0549 101.587 72.7832 97.0408C70.7985 90.146 73.8303 83.1955 73.8303 83.1955C73.8303 83.1955 73.3413 86.895 75.6682 92.1661C75.8065 92.4881 75.9751 92.8085 75.9751 92.8085C84.8934 111.692 119.143 107.424 119.143 107.424C128.06 111.392 143.413 121.974 143.413 121.974C145.041 129.293 153.633 130.731 153.633 130.731C153.633 130.731 173.334 130.537 175.093 123.328C182.006 122.01 183.874 115.882 183.874 115.882C184.061 114.061 186.683 104.135 186.683 104.135C188.919 95.6969 178.131 92.3633 178.131 92.3633C178.131 92.3633 165.657 80.818 159.418 74.7528C159.418 74.7528 164.136 66.1364 151.682 58.7863C151.682 52.8425 149.474 41.3966 130.564 34.8761C130.564 34.8761 127.304 33.8644 130.267 35.409C137.244 39.0511 147.684 46.1196 146.362 60.2077C146.362 60.2077 160.661 66.966 150.309 71.6401C163.232 82.5177 174.653 95.8504 174.653 95.8504C184.583 98.1368 182.428 102.592 182.428 102.592C182.532 104.224 181.497 107.77 181.362 110.783C181.235 113.79 177.384 119.172 178.269 114.623C179.163 110.07 178.015 108.863 178.015 108.863C178.015 108.863 178.554 111.454 175.523 115.166C172.494 118.89 173.931 114.833 173.931 114.833C179.266 99.2531 165.987 98.233 163.195 98.1655C160.394 98.1031 159.214 95.4491 159.214 95.4491C152.875 86.1767 138.012 76.4693 138.012 76.4693C142.29 75.7797 143.664 72.3533 143.664 72.3533C139.7 74.0227 133.734 74.3515 128.653 68.3284C123.546 62.2986 115.314 60.8097 115.314 60.8097C122.315 49.6404 107.598 45.0202 99.3592 44.656C91.1137 44.2935 88.9251 39.4626 88.9251 39.4626C94.6345 43.2885 98.4149 42.0475 112.628 44.1788C126.842 46.2967 121.448 58.616 121.448 58.616C128.731 59.4321 134.182 63.8718 134.182 63.8718C134.182 63.8718 140.866 70.1849 142.175 64.15C145.352 49.465 132.017 41.6243 132.017 41.6243C124.784 37.456 109.869 32.8308 109.869 32.8308L109.873 32.8291ZM97.2262 47.0555C101.821 47.8851 106.854 49.2121 110.211 52.055C111.862 53.9739 112.818 56.4526 111.967 59.2213L110.662 58.1911C109.009 56.8691 106.016 57.9348 104.065 58.5064C103.743 55.9147 102.649 53.4225 100.723 51.996C102.305 52.2843 103.538 53.1696 104.656 54.0734C104.897 54.1257 105.018 53.9132 105.163 53.7648C104.082 50.6437 100.167 48.5798 97.2262 47.0555ZM130.436 83.4771C132.827 85.2662 134.051 88.1175 133.982 91.3415C139.499 94.3665 148.444 100.385 152.365 104.789L149.334 102.496C145.19 100.472 137.7 94.9955 133.171 93.8607L132.085 95.2703C129.483 97.5619 126.615 99.3914 123.074 100.115C126.025 98.6258 128.594 95.675 130.195 92.8237C131.788 89.5356 132.017 86.1076 130.436 83.4771ZM62.6745 90.689C62.6745 90.689 49.0299 131.552 78.3931 161.301C66.1194 160.715 56.0343 155.432 56.0343 155.432C44.0151 119.164 62.6745 90.689 62.6745 90.689ZM165.395 104.354C168.478 104.733 170.481 107.18 171.037 109.257C170.218 108.025 168.925 106.733 167.125 106.283C166.442 106.163 165.335 106.315 164.922 107.005C164.131 108.377 164.77 109.729 165.298 110.765C164.232 109.284 163.124 107.716 163.38 105.627C163.573 104.802 164.594 104.578 165.395 104.354ZM141.435 114.102L148.449 114.253C148.449 114.253 153.214 116.134 159.209 121.347C159.209 121.347 166.473 122.7 172.206 122.146C172.206 122.146 165.47 125.261 155.454 123.649C150.943 118.073 141.435 114.102 141.435 114.102Z" fill="#0033A0"/>
<path d="M121.57 69.48C119.977 72.3533 120.887 75.638 122.687 77.5518C125.759 79.663 129.863 79.1689 133.89 77.1859C129.382 75.4778 124.412 73.1222 121.57 69.48Z" fill="white"/>
</svg>
