<svg width="200" height="201" viewBox="0 0 200 201" fill="none" xmlns="http://www.w3.org/2000/svg">
<g clip-path="url(#clip0_15016_302124)">
<path d="M41.386 187.526C52.8087 165.158 65.4326 141.594 75.4801 118.608L96.3722 128.897C93.1671 134.852 78.9041 139.904 72.6455 142.077L83.8044 149.963C80.8631 156.822 76.9732 163.625 73.9253 171.225L121.143 171.012C126.284 169.289 128.384 166.634 130.635 162.037C132.268 158.82 133.879 154.981 134.704 153.887C135.294 153.106 136.31 153.23 137.174 152.96C138.555 152.523 139.301 152.758 139.835 154.223C140.104 153.084 140.272 152.074 139.262 150.917L135.013 148.313L149.124 148.026C154.838 148.026 159.031 148.582 160.94 148.969C160.289 150.143 150.365 170.608 148.793 172.982C142.551 182.412 135.462 186.022 117.141 187.172C110.534 187.588 45.1973 187.56 41.3804 187.537L41.386 187.526ZM119.442 143.053L121.087 142.088L117.506 138.77L124.96 138.406C125.835 140.134 127.716 143.716 128.361 145.545C126.077 146.062 120.98 144.288 119.442 143.053ZM106.01 143.008L109.737 142.52C104.517 140.808 102.092 139.41 98.2918 135.257C101.205 135.745 105.538 137.569 107.262 137.204L97.9943 129.604C109.097 123.076 110.124 114.898 106.459 103.857C104.449 98.8948 100.363 94.6457 87.7672 85.2661C78.1407 78.0982 74.0095 74.2195 70.1364 68.3369C67.9641 65.042 63.4119 54.5848 62.772 50.0438C65.7526 53.5913 70.6304 65.609 93.2232 81.8926C102.659 90.1552 109.389 92.7484 117.068 110.194C118.493 111.137 119.869 111.715 121.435 112.024C120.357 110.733 118.724 110.486 117.36 108.426C117.36 107.472 119.088 101.612 120.385 98.9229C126.526 86.6245 139.341 78.9738 150.977 72.3503C154.939 70.7338 162.719 63.1055 170.544 60.3551C163.836 73.849 139.964 79.2545 131.774 97.4971C129.428 104.003 126.93 111.463 129.142 118.075L119.189 116.262C119.846 117.48 121.743 120.601 121.519 120.691L112.92 123.143L122.282 126.321C119.998 127.028 116.652 129.138 114.789 130.278C116.776 130.833 117.64 130.665 119.145 131.204C117.932 133.887 116.439 132.517 115.238 134.516C116.411 137.575 117.444 142.385 118.617 145.444C114.592 145.708 110.029 144.894 106.01 143.003V143.008ZM87.4866 118.687C79.8583 115.386 74.8065 108.892 70.3048 101.774C73.3022 102.437 74.3968 102.998 77.7647 104.25C67.9922 96.7562 63.8217 93.5062 58.9551 81.6681C66.8527 85.8836 75.0591 94.5166 82.6649 98.036C69.6088 89.0718 63.4961 77.2618 58.3096 62.2299C68.0483 73.1586 76.8441 81.9319 88.9123 90.1439C100.402 97.8676 104.994 105.44 104.994 111.418C103.523 121.953 95.4853 122.285 87.4866 118.687ZM160.513 101.516C156.466 101.387 153.256 101.449 147.901 101.696C151.252 96.4138 158.706 88.7463 164.734 85.1763C174.221 85.4794 183.157 85.4233 192.575 85.5917L177.336 116.441L153.525 116.251L160.519 101.505L160.513 101.516ZM6.51168 114.084L56.1654 13.2835C88.9348 13.6764 130.489 10.7126 149.719 17.0948C155.271 25.1496 143.758 41.8037 140.744 47.748C135.518 54.9104 126.391 58.1997 117.91 60.0351C123.467 61.6405 124.37 62.4151 128.322 67.1414C129.372 75.3477 118.426 93.5174 114.587 101.146L98.7016 84.1996C101.082 79.4565 105.454 74.2756 101.379 69.7009L80.2737 69.1565C75.25 64.3067 70.9054 58.6487 67.633 52.5865C82.3899 52.856 98.8307 53.5744 113.436 50.4872C116.692 48.7359 125.358 33.6591 121.294 30.8132L72.623 29.7299C69.693 33.9005 68.329 39.1824 65.1127 43.5438C63.6869 39.9963 64.3942 32.2783 64.8882 28.7588C58.1861 38.3909 62.0198 52.71 63.7599 64.4134C57.8998 56.8693 53.3869 46.2213 52.6515 37.8689C51.136 51.4527 52.5393 55.6513 57.9728 67.5118C52.2418 67.0572 47.117 58.4915 45.9832 54.2592C46.4659 62.6958 50.5691 68.7467 55.6097 76.5209C52.0004 77.3853 48.0095 74.5114 45.1075 72.6871L48.1049 79.2601C45.6351 85.6141 41.5039 91.5697 38.8096 98.2774L64.9106 98.5299C67.6442 103.492 69.6649 109.829 73.1002 114.393C70.7426 114.095 6.37136 114.477 6.50607 114.09L6.51168 114.084ZM140.115 99.2765C139.004 99.501 136.034 101.337 134.036 102.442C134.047 99.5908 137.859 92.0692 142.585 87.3542C149.86 81.0507 158.246 76.2346 166.996 72.2942C162.871 78.014 159.059 81.9095 153.031 85.631C155.894 84.9574 161.883 83.9021 163.617 84.4242C156.191 90.3235 151.768 91.6146 146.402 101.297C143.753 106.153 140.817 112.17 134.036 114.982C135.894 111.277 138.931 103.324 140.115 99.2765Z" fill="#84061C"/>
<path d="M72.617 119.804C73.532 119.788 74.7949 119.782 75.8109 119.883C75.8109 120.282 71.5337 129.032 59.8304 152.624C45.3036 181.897 43.3278 185.955 43.3278 186.511C43.3278 187.066 114.951 186.763 120.199 186.191C135.585 184.501 142.074 181.33 147.855 172.68C149.595 170.076 159.862 150.087 159.862 149.307C159.862 149.066 156.275 148.942 149.034 148.942C141.793 148.942 137.005 148.892 136.085 148.892C134.771 148.892 135.102 147.427 135.883 146.691C136.5 146.107 137.235 146.484 150.404 146.484H165.974C160.592 155.481 155.585 165.585 150.937 174.908C145.245 183.412 137.151 188.571 124.235 190.272L38.3882 190.075L72.6114 119.81L72.617 119.804ZM72.4599 171.984C72.4599 171.917 74.8342 167.022 77.7362 161.1C82.9676 150.418 82.8834 149.795 83.8321 150.025C84.3597 150.149 85.3251 150.851 86.2176 151.053C83.108 157.221 79.7569 163.076 77.4724 169.458C93.3631 168.818 118.066 169.273 124.578 166.674C128.58 161.734 130.314 157.581 133.772 151.911C134.328 152.248 134.968 152.697 135.192 153.247C135.568 154.162 135.114 154.898 132.604 160.034C130.18 165.001 129.601 165.894 127.407 168.105C125.341 170.188 124.566 170.715 122.675 171.35C120.446 172.096 120.082 172.107 96.4335 172.107C83.2483 172.107 72.4543 172.051 72.4543 171.99L72.4599 171.984ZM150.23 118.519C152.829 113.383 154.625 109.426 156.915 104.133L148.821 103.622L149.337 100.81C149.393 100.495 150.364 100.725 153.755 100.725C155.826 100.725 158.515 100.495 159.744 100.495H161.972L158.279 107.877C155.719 112.99 154.726 115.308 155.035 115.426C155.281 115.522 160.283 115.555 166.148 115.505L176.813 115.409L183.936 101.191C187.854 93.3722 191.071 86.7768 191.082 86.5354C191.099 86.193 188.27 86.0976 178.054 86.0976H164.145L167.378 83.5324L196.1 83.9422L178.531 118.497L150.23 118.513V118.519ZM54.2453 11.0389L90.5959 11.1231C126.402 11.0165 134.165 11.1905 140.783 12.3187C152.554 14.3282 156.786 21.6084 152.711 31.8412C151.364 35.2259 143.432 49.6853 142.209 51.3524C137.247 58.4193 133.66 57.959 126.868 61.2146C129.596 63.5834 132.329 66.7211 131.437 72.5924L116.674 103.571L113.975 99.7712L120.531 86.9115C123.769 80.3666 126.627 74.383 126.879 73.6253C127.603 71.4361 127.463 68.5678 126.531 66.6481C125.218 63.937 121.62 61.7535 116.775 60.7263C115.759 60.513 114.934 60.2436 114.934 60.1369C114.934 60.0303 116.304 59.6542 117.982 59.3118C127.598 57.3304 134.552 53.7773 138.869 48.63C140.418 46.7833 148.074 31.757 149.287 28.187C151.611 21.3502 150.129 18.4595 143.37 16.6464C136.618 14.8334 128.428 14.5078 89.288 14.5078H56.7937L46.5722 35.1248C40.9478 46.469 29.9405 68.7025 22.1046 84.5315L7.85846 113.316L39.9599 113.49L74.3515 113.664L76.1758 117.211L2.17236 117.088L54.2453 11.0389ZM41.0039 91.2785C43.1818 86.788 45.4383 82.1909 46.0165 81.057L47.2064 78.6602L49.2665 81.5959L42.2164 96.6615L63.7876 96.9927C64.057 97.6887 64.3826 98.7103 64.5173 99.4456C64.0402 99.4456 58.6797 99.44 50.5406 99.44H37.0411L41.0039 91.2785ZM96.9892 82.5726C98.8303 79.8895 101.104 74.5963 99.3299 72.0199L82.5916 71.5428L79.6952 67.8886L91.0674 67.9055C100.037 68.0121 100.806 68.0683 101.951 68.7362C102.625 69.1291 103.489 70.0272 103.871 70.7289C104.494 71.8796 104.522 72.2051 104.146 74.0013C103.916 75.1015 102.894 77.7341 101.873 79.8502L99.734 84.3688L96.9948 82.5669L96.9892 82.5726ZM66.437 50.937C79.3809 47.7095 102.743 51.8295 112.936 47.9508C114.985 44.7513 119.975 37.3084 119.75 32.6102L74.2561 32.8628C71.9771 36.4776 69.5467 43.2358 66.4707 46.9741C66.3247 46.9741 65.0169 44.0441 64.8878 43.1011C65.6063 41.4677 65.8701 40.9681 68.8001 34.8835L71.8705 28.5126L95.9452 28.6136C122.692 28.7259 121.85 28.6473 123.365 31.0609C124.561 32.9638 124.146 34.6028 120.66 41.709C117.23 48.6918 115.99 50.2859 112.801 51.7902C109.501 53.3507 107.879 53.4573 88.1935 53.4573H68.4465C67.5877 52.5817 67.0601 52.2224 66.4314 50.937H66.437Z" fill="#C4B264"/>
<path d="M121.07 116.239C124.572 117.384 127.732 118.462 131.229 119.607C134.474 122.34 137.718 125.08 140.962 127.813C141.024 129.211 141.092 130.614 141.153 132.012C137.971 132.22 135.871 132.427 131.611 131.821C132.184 133.539 132.756 135.256 133.329 136.974C127.794 133.337 122.254 132.264 116.719 129.913C118.499 128.638 119.947 127.707 121.726 126.432C119.184 125.416 116.972 124.058 114.429 123.042C116.91 122.15 119.661 121.532 122.142 120.64C121.76 119.242 121.446 117.637 121.064 116.239H121.07Z" fill="white"/>
<path d="M121.069 116.239L120.94 116.626C124.437 117.771 127.597 118.849 131.1 119.994L131.229 119.607L130.965 119.921C134.21 122.654 137.454 125.394 140.698 128.127L140.962 127.813L140.552 127.83C140.614 129.227 140.682 130.631 140.743 132.028L141.153 132.012L141.125 131.602C139.514 131.708 138.195 131.809 136.741 131.809C135.315 131.809 133.761 131.708 131.661 131.417L131.005 131.321L131.212 131.95C131.785 133.667 132.357 135.385 132.93 137.103L133.317 136.974L133.542 136.631C127.929 132.943 122.349 131.871 116.871 129.531L116.708 129.907L116.944 130.238C118.717 128.969 120.16 128.037 121.951 126.758L122.562 126.32L121.866 126.039C119.363 125.04 117.157 123.682 114.569 122.649L114.418 123.031L114.558 123.418C117.005 122.537 119.756 121.919 122.271 121.015L122.63 120.886L122.529 120.521C122.153 119.141 121.838 117.541 121.451 116.121L121.058 116.227L120.665 116.334C121.041 117.715 121.356 119.315 121.743 120.735L122.136 120.628L121.995 120.241C119.548 121.122 116.798 121.74 114.283 122.643L113.267 123.008L114.272 123.407C116.775 124.406 118.981 125.764 121.569 126.797L121.72 126.415L121.485 126.084C119.711 127.353 118.268 128.284 116.478 129.564L115.883 129.991L116.556 130.277C122.147 132.651 127.642 133.718 133.098 137.305L134.086 137.956L133.71 136.833C133.138 135.116 132.565 133.398 131.992 131.68L131.605 131.809L131.549 132.214C133.676 132.517 135.276 132.618 136.741 132.618C138.234 132.618 139.576 132.511 141.176 132.41L141.574 132.382L141.557 131.978C141.495 130.58 141.428 129.177 141.366 127.779V127.6L141.22 127.482C137.976 124.748 134.732 122.009 131.487 119.275L131.426 119.225L131.353 119.202C127.856 118.057 124.695 116.98 121.193 115.835L120.469 115.599L120.671 116.334L121.064 116.227L121.069 116.239Z" fill="black"/>
<path d="M88.0871 136.598C91.6963 142.239 97.3992 145.247 102.698 148.795C96.2822 152.578 91.9152 150.524 84.8539 149.749C80.3522 147.61 76.7991 145.882 73.5771 142.329C78.4157 140.42 83.2486 138.983 88.0871 136.603V136.598Z" fill="white"/>
<path d="M88.0868 136.598L87.7444 136.817C91.4322 142.57 97.2025 145.601 102.468 149.132L102.698 148.79L102.49 148.436C99.6891 150.081 97.3372 150.586 94.9404 150.591C91.943 150.591 88.8558 149.772 84.8985 149.334L84.8536 149.744L85.0277 149.373C80.5259 147.235 77.0402 145.534 73.88 142.048L73.5769 142.323L73.7284 142.705C78.5445 140.802 83.3942 139.365 88.2664 136.963L88.0868 136.598L87.9072 136.233C83.108 138.596 78.2863 140.028 73.4309 141.947L72.8809 142.166L73.2794 142.604C76.5574 146.224 80.1835 147.987 84.6796 150.12L84.7414 150.148H84.8087C88.693 150.58 91.7915 151.411 94.9404 151.417C97.4607 151.417 99.9978 150.867 102.905 149.149L103.467 148.818L102.928 148.453C97.601 144.889 91.9711 141.902 88.4348 136.373L88.2384 136.065L87.9072 136.227L88.0868 136.592V136.598Z" fill="black"/>
<path d="M138.734 132.653C141.193 133.506 141.575 135.622 141.698 137.929C142.512 137.284 142.866 136.986 143.275 135.762C142.619 134.887 142.13 133.831 141.474 132.956C140.424 132.333 139.666 132.063 138.74 132.658L138.734 132.653Z" fill="white"/>
<path d="M116.422 150.401C116.995 149.413 118.061 149.464 117.831 148.622C117.449 148.268 116.568 147.381 116.181 147.084C115.49 146.551 116.529 146.5 117.354 146.489C118.561 146.472 125.83 149.817 126.868 150.951C127.626 151.687 128.283 152.663 128.563 153.595C126.666 152.641 125.414 151.849 124.606 151.737C124.831 152.669 124.774 153.702 124.426 154.538C122.091 151.103 121.378 150.25 116.422 150.396V150.401ZM134.9 152.456C133.845 151.333 131.331 150.873 129.804 151.159C128.659 151.372 128.692 150.227 129.489 149.733C130.904 148.914 127.783 149.419 126.284 147.112C128.384 146.438 136.315 149.38 137.679 150.165C139.492 151.204 139.907 152.164 138.19 151.995C136.506 151.832 136.119 150.626 136.59 151.855C137.028 153 135.933 153.544 134.906 152.456H134.9ZM140.334 139.663C140.312 136.222 136.831 134.645 134.513 133.893C135.288 136.363 136.242 137.513 136.573 139.994C134.603 138.541 131.69 132.108 131.892 131.9C133.75 132.018 135.552 132.332 137.438 132.209C140.598 131.917 141.328 132.153 142.248 133.786C144.965 137.182 142.523 138.703 140.334 139.658V139.663ZM142.45 136.795C142.882 135.667 142.635 134.864 141.473 133.635C140.688 132.798 140.065 132.428 139.632 132.54C139.093 132.68 139.122 132.714 139.773 132.748C140.205 132.77 140.564 132.956 140.564 133.152C140.564 133.348 140.901 133.972 141.311 134.527C141.793 135.184 141.995 135.858 141.883 136.441C141.692 137.429 142.108 137.682 142.45 136.789V136.795ZM136.944 135.145C138.049 135.577 137.69 137.727 136.798 138.563C136.259 137.384 136.192 135.762 136.944 135.145ZM134.811 128.325C135.181 128.931 135.451 129.408 135.254 129.773C135.058 130.143 134.592 130.407 134.255 130.407C133.767 130.205 133.609 129.851 133.688 129.133C133.739 128.695 134.261 128.415 134.811 128.325Z" fill="#C4B264"/>
<path d="M33.488 190.972C34.2346 189.378 42.3455 172.909 51.5174 154.381L68.194 120.685L32.6517 120.511L-2.89062 120.337L24.8663 64.2338L52.6232 8.125L92.1115 8.28217C118.044 8.38882 132.807 8.57966 135.114 8.83787C146.323 10.1008 151.998 12.2731 154.832 16.3875C157.645 20.4739 157.718 25.1721 155.074 32.1492C153.721 35.7135 147.036 49.084 145.29 51.7053C142.686 55.6176 138.324 59.3616 133.8 61.5619L132.228 62.3253L133.031 63.7735C133.475 64.5706 134.013 66.2208 134.232 67.4501C134.878 71.0649 134.114 74.4889 131.168 81.191C131.038 81.4773 131.56 81.2247 132.324 80.6241C134.244 79.1142 137.471 77.1832 142.837 74.3542C155.119 67.8711 161.596 63.1504 166.412 57.1668C170.577 51.9916 172.828 46.9117 173.687 40.7485L174.142 37.4929L174.742 39.4238C176.101 43.802 176.112 48.6517 174.782 53.8663C174.119 56.4596 171.318 62.5162 169.69 64.8849C168.877 66.0693 168.747 66.4229 169.219 66.1703C169.943 65.7774 174.265 61.3542 175.798 59.4346L176.78 58.2053L176.55 59.8836C176.106 63.1504 174.108 67.7756 171.672 71.1716C170.987 72.1258 170.482 72.9678 170.555 73.0408C170.835 73.3214 174.226 71.34 176.033 69.8413C177.083 68.9712 177.992 68.3089 178.06 68.3706C178.127 68.4324 177.706 69.4203 177.128 70.5598C175.696 73.3944 173.311 76.2346 170.734 78.1712L168.579 79.7877H185.289C194.478 79.7877 202 79.8663 202 79.9617C202 80.0572 197.273 89.6949 191.497 101.376L180.995 122.61H162.539C150.353 122.61 144.083 122.492 144.083 122.257C144.083 122.06 145.666 118.743 147.597 114.887L151.111 107.87L148.742 107.887L146.374 107.904L144.443 111.086C142.164 114.836 139.121 118.288 136.702 119.854C135.097 120.893 134.535 121.561 135.265 121.561C135.86 121.561 140.379 125.978 141.344 127.51C141.934 128.437 142.332 129.559 142.332 130.267C142.332 131.03 142.646 131.838 143.202 132.495C144.403 133.926 144.931 136.037 144.454 137.491C143.988 138.9 142.304 140.539 140.294 141.549L138.779 142.307L139.003 140.797C139.127 139.966 139.082 138.888 138.902 138.406C138.588 137.564 138.543 137.609 137.78 139.371C137.342 140.387 136.814 141.212 136.601 141.212C136.388 141.212 135.344 140.28 134.277 139.141C133.2 137.99 131.504 136.66 130.472 136.138C128.316 135.06 123.388 133.124 123.388 133.348C123.388 133.432 124.348 135.15 125.526 137.165C126.7 139.18 128.193 142.048 128.838 143.536C130.584 147.555 131.504 147.791 132.891 144.58L133.738 142.621H152.408L171.077 142.61L164.358 156.21C154.743 175.682 152.845 178.814 147.816 183.591C141.226 189.85 133.194 192.449 117.241 193.487C113.89 193.706 95.6197 193.852 71.893 193.852H32.1353L33.488 190.956V190.972ZM120.553 189.002C136.921 187.223 143.881 183.737 150.129 174.206C151.554 172.028 164.077 147.617 164.077 147.01C164.077 146.909 157.864 146.825 150.269 146.825H136.461L136.085 147.645C135.737 148.408 135.826 148.515 137.415 149.188C139.475 150.058 140.558 151.619 140.558 153.729C140.558 156.182 140.233 156.491 139.38 154.83C138.526 153.157 137.752 152.697 137.752 153.853C137.752 154.274 137.213 155.155 136.556 155.812C135.215 157.153 134.339 157.428 134.928 156.328C135.484 155.29 135.361 154.016 134.62 153.095C134.249 152.64 133.873 152.343 133.778 152.444C133.682 152.539 132.245 155.385 130.584 158.764C127.962 164.086 127.289 165.163 125.538 166.836C122.074 170.142 123.332 170.002 98.2017 169.996H76.3779L80.9189 160.735C83.4167 155.643 85.4599 151.4 85.4599 151.305C85.4599 151.209 84.7078 150.934 83.7928 150.687C81.643 150.115 78.3537 148.481 76.2656 146.949C74.6434 145.759 71.9155 142.789 71.7022 141.976C71.6348 141.723 73.3973 140.954 76.187 140.011C83.4841 137.552 91.0506 133.432 94.1546 130.233L95.2885 129.065L92.6166 128.279C88.1093 126.955 81.9236 123.609 79.1227 120.988C78.3537 120.27 77.8766 120.146 75.7548 120.146H73.2851L56.2043 154.7C46.8136 173.706 39.1236 189.356 39.1236 189.479C39.1236 189.889 116.579 189.434 120.559 189.002H120.553ZM120.475 165.242C122.568 164.372 123.775 162.901 125.824 158.742L127.744 154.846L126.688 153.937L125.633 153.028L125.448 154.403C125.206 156.154 124.999 156.48 123.264 157.732C121.283 159.169 120.705 159.067 121.782 157.485C123.18 155.425 122.933 153.14 121.221 152.253C119.402 151.31 117.814 151.58 116.304 153.089C114.811 154.583 114.575 154.437 114.575 152.051C114.575 151.024 114.811 150.423 115.485 149.75L116.394 148.84L115.395 148.026C114.845 147.577 114.031 147.207 113.582 147.196C112.644 147.179 107.581 145.534 107.003 145.057C106.745 144.844 106.032 145.579 104.842 147.274C103.865 148.672 102.737 150.109 102.339 150.468C101.233 151.462 97.9716 152.079 93.7729 152.085H90.0009L86.6667 158.759C84.8312 162.424 83.3325 165.506 83.3325 165.601C83.3325 165.697 91.393 165.781 101.244 165.781C116.63 165.781 119.341 165.702 120.463 165.236L120.475 165.242ZM124.275 152.422C124.056 151.058 124.084 151.001 124.842 151.232C125.279 151.366 126.194 151.798 126.868 152.191L128.097 152.91L126.868 151.591C125.369 149.985 119.004 146.82 117.314 146.836C116.282 146.848 116.237 146.887 116.865 147.235C117.253 147.448 117.848 147.869 118.196 148.167C118.791 148.683 118.774 148.745 117.881 149.458L116.938 150.21L119.026 150.058C120.879 149.924 121.238 150.008 122.192 150.816C122.787 151.316 123.466 152.203 123.708 152.786C124.32 154.257 124.544 154.111 124.275 152.416V152.422ZM136.023 151.641L135.681 150.738L137.123 151.248C138.925 151.883 139.161 151.697 137.785 150.721C136.556 149.845 128.664 147.201 128.013 147.448C127.233 147.746 127.541 148.122 129.035 148.711C130.427 149.256 130.466 149.317 129.91 149.935C129.057 150.878 129.186 151.046 130.46 150.676C132.043 150.221 133.609 150.592 134.99 151.754C135.636 152.298 136.208 152.697 136.264 152.646C136.32 152.596 136.208 152.146 136.017 151.647L136.023 151.641ZM99.285 149.127L101.064 148.717L98.9819 148.094C94.1041 146.64 90.0234 143.845 88.1037 140.628L87.0765 138.911L84.1296 140.387C82.5074 141.201 80.0096 142.144 78.5782 142.481C76.0355 143.081 75.985 143.115 76.5856 143.772C77.6801 144.99 82.3951 147.527 85.2691 148.447C90.0009 149.963 94.6654 150.188 99.285 149.127ZM127.104 143.929C126.84 143.3 126.155 142.032 125.583 141.111L124.544 139.438L121.462 139.292C118.499 139.152 118.403 139.175 118.959 139.786C119.279 140.14 120.514 140.96 121.709 141.605L123.882 142.784L122.125 142.958L120.368 143.132L122.125 143.884C124.213 144.782 124.915 144.967 126.43 145.018L127.575 145.057L127.098 143.912L127.104 143.929ZM117.18 143.407C116.731 141.482 115.574 138.254 114.749 136.626C113.986 135.122 113.761 134.937 112.403 134.729C111.578 134.6 110.034 134.246 108.968 133.938L107.037 133.382L110.545 132.888C112.476 132.613 115.002 132.276 116.164 132.136L118.269 131.878L116.865 131.457C116.091 131.226 115.226 131.036 114.934 131.03C114.643 131.024 114.193 130.89 113.93 130.721C113.587 130.502 114.205 129.924 116.197 128.622C117.707 127.634 119.144 126.82 119.391 126.82C119.638 126.82 119.846 126.674 119.846 126.495C119.846 126.107 116.703 124.889 113.615 124.075C112.409 123.755 111.421 123.39 111.421 123.267C111.421 122.941 117.326 120.612 118.903 120.32C119.621 120.185 120.278 119.955 120.368 119.809C120.458 119.663 119.902 118.569 119.133 117.379C118.364 116.189 117.735 115.122 117.735 115.01C117.735 114.466 123.921 115.891 127.452 117.244C127.817 117.384 127.918 116.593 127.918 113.433C127.918 102.891 131.342 93.2985 137.454 86.6582C140.631 83.2061 144.976 79.9674 152.834 75.1906C156.404 73.0183 160.21 70.5654 161.293 69.7459C163.544 68.0282 166.39 64.9915 167.383 63.2515C167.99 62.1906 167.821 62.286 165.862 64.0878C162.219 67.4445 160.238 68.6681 146.171 76.2627C132.621 83.5822 124.943 91.2609 120.536 101.915C119.015 105.597 118.022 109.268 118.549 109.268C118.779 109.268 119.61 109.706 120.396 110.233C122.45 111.62 124.707 113.612 123.876 113.315C123.489 113.175 121.614 112.709 119.711 112.276L116.248 111.491L115.468 109.06C112.807 100.764 107.503 94.4941 94.7103 84.5364C78.1011 71.615 71.1633 64.5818 65.9992 55.438C65.1067 53.8607 64.377 52.7156 64.377 52.9009C64.377 54.0123 66.4651 59.8106 68.0536 63.1055C71.9211 71.1323 76.5407 76.0606 88.7717 85.2212C101.8 94.9825 104.904 97.9967 107.553 103.464C109.361 107.191 110.107 110.2 110.13 113.82C110.169 120.32 107.407 124.777 100.531 129.307L99.6723 129.874L101.962 132.164C103.225 133.427 105.628 135.352 107.312 136.447C108.99 137.541 110.365 138.49 110.365 138.551C110.365 138.72 105.302 137.76 102.322 137.03L99.7172 136.39L100.913 137.384C102.501 138.703 107.093 140.965 110.36 142.032L112.992 142.89L110.534 143.008L108.075 143.126L109.832 143.716C110.876 144.064 112.768 144.316 114.491 144.327L117.393 144.35L117.168 143.384L117.18 143.407ZM142.68 137.676C143.258 136.598 143.051 135.111 142.147 133.775C141.092 132.226 139.879 131.883 137.291 132.422C135.972 132.697 135.125 132.703 134.451 132.45C133.233 131.99 132.487 131.984 132.487 132.444C132.487 133.079 134.62 137.199 135.495 138.254C136.309 139.236 136.304 139.186 135.327 136.997C134.766 135.739 134.204 134.358 134.075 133.926C133.862 133.185 133.907 133.157 134.827 133.511C138.302 134.83 140.564 136.884 140.564 138.714C140.564 139.444 140.598 139.45 141.456 138.888C141.945 138.568 142.5 138.018 142.686 137.676H142.68ZM137.376 136.407C137.387 135.986 137.241 135.543 137.05 135.419C136.831 135.285 136.708 135.852 136.725 136.89C136.741 138.159 136.826 138.4 137.05 137.878C137.219 137.491 137.364 136.828 137.376 136.407ZM131.431 133.14C131.033 132.124 130.786 131.215 130.881 131.114C130.982 131.013 131.959 131.114 133.059 131.333C134.159 131.552 135.445 131.732 135.916 131.732C136.629 131.732 136.702 131.642 136.36 131.226C136.13 130.946 135.456 130.671 134.861 130.615C133.312 130.457 132.829 129.531 133.766 128.504C134.171 128.061 134.423 127.477 134.322 127.213C133.907 126.062 135.018 127.348 135.703 128.813C136.545 130.598 137.134 130.979 137.988 130.283C138.504 129.857 138.549 129.896 138.369 130.598C138.19 131.299 138.296 131.389 139.363 131.389C140.429 131.389 140.558 131.294 140.558 130.396C140.558 127.769 136.219 123.666 130.269 120.668C126.621 118.827 122.798 117.441 122.428 117.811C122.333 117.912 122.815 118.833 123.511 119.86L124.774 121.735L122.041 121.942C120.536 122.06 118.701 122.352 117.954 122.599L116.602 123.048L118.314 123.654C119.257 123.985 120.896 124.704 121.956 125.243C123.444 126.001 123.764 126.298 123.36 126.539C123.068 126.713 121.9 127.432 120.755 128.134L118.678 129.413L121.749 130.401C124.909 131.417 129.057 133.258 130.909 134.471C131.488 134.847 132.01 135.122 132.066 135.077C132.122 135.032 131.841 134.162 131.437 133.146L131.431 133.14ZM134.592 130.008C134.592 129.829 134.687 129.436 134.805 129.133C134.945 128.768 134.822 128.577 134.451 128.577C134.081 128.577 133.89 128.88 133.89 129.453C133.89 129.935 134.047 130.328 134.244 130.328C134.44 130.328 134.597 130.182 134.597 130.008H134.592ZM98.6339 118.737C100.526 117.822 102.456 115.942 103.394 114.101C104.017 112.883 104.112 112.198 103.983 109.818C103.86 107.477 103.641 106.624 102.709 104.884C100.239 100.259 95.9396 96.2286 87.3796 90.4976C84.0959 88.3028 80.0713 85.4345 78.4267 84.1323C74.2561 80.8093 65.6961 72.1707 62.6931 68.2584C61.3066 66.451 60.1784 65.0421 60.1784 65.1263C60.1784 65.5978 62.2665 70.3016 63.8831 73.473C67.7617 81.0675 73.4927 88.8585 79.5774 94.7972C81.4072 96.5822 82.8049 98.0416 82.6814 98.0416C81.7384 98.0416 70.3101 90.9186 64.4781 86.7031C62.6931 85.4121 61.1495 84.3568 61.0428 84.3568C60.9362 84.3568 61.52 85.2661 62.3338 86.3775C68.0705 94.2135 75.7997 102.139 81.3736 105.9C82.1257 106.405 82.5692 106.821 82.3671 106.821C81.716 106.821 75.8615 104.665 74.127 103.789C73.2121 103.324 72.4599 103.032 72.4599 103.144C72.4599 104.429 77.0122 110.357 79.9142 112.843C82.7656 115.291 86.6836 117.71 89.2825 118.625C92.3697 119.714 96.5234 119.77 98.6395 118.743L98.6339 118.737ZM186.709 101.314C191.25 92.1141 194.972 84.5308 194.972 84.4635C194.972 84.3961 188.82 84.3456 181.304 84.3456H167.636L164.016 86.8659C156.191 92.3106 154.063 94.3538 151.077 99.2933C148.428 103.672 148.22 103.301 153.339 103.301C156.084 103.301 157.763 103.436 157.763 103.655C157.763 103.851 156.18 107.169 154.249 111.025L150.735 118.041H178.447L186.709 101.314ZM73.8632 116.004C73.8632 115.846 73.3861 115.263 72.8079 114.707C70.0856 112.097 65.8196 104.631 64.3377 99.8827L63.5463 97.34H52.3425C43.5243 97.34 41.178 97.2445 41.3183 96.9021C41.4137 96.6608 43.0977 93.1413 45.0623 89.0831L48.6266 81.7018L47.1897 79.2152C45.7415 76.7117 44.0519 72.4401 44.0351 71.2446C44.0295 70.7338 44.3719 70.9022 45.6629 72.0416C48.2898 74.3542 53.858 76.7623 53.858 75.5835C53.858 75.3477 52.8533 74.068 51.624 72.7433C47.358 68.1349 45.4833 63.1953 45.1802 55.7467C45.0791 53.2377 45.1128 51.2955 45.2531 51.4302C45.3934 51.565 46.0221 52.9346 46.6396 54.4782C47.2626 56.0162 48.3067 58.1884 48.969 59.2998C50.3779 61.6742 53.8973 65.4069 55.5195 66.2377L56.659 66.8214L55.2669 64.6716C53.482 61.9155 51.9552 57.9358 51.2535 54.22C50.2207 48.7696 50.6922 40.7597 52.3649 35.2139L52.9487 33.283L53.2238 36.4432C54.105 46.5637 57.1754 54.7757 62.6033 61.5395C63.1534 62.2243 63.013 61.5675 61.9578 58.5533C58.4889 48.6293 58.6909 39.7718 62.5696 31.5991C63.8718 28.8599 66.0385 25.5145 66.3248 25.8007C66.3978 25.8737 66.235 27.1928 65.9599 28.7308C65.1011 33.5524 65.466 45.3905 66.4707 45.3905C66.6111 45.3905 68.2501 42.2303 70.108 38.3685L73.4871 31.3465L95.8779 31.3745C120.087 31.4026 120.789 31.4531 121.39 33.1651C121.665 33.9454 121.272 35.0231 118.779 40.305C115.44 47.3832 114.149 49.0166 110.803 50.3637C109.46 50.9063 102.028 51.2113 88.5078 51.2787L68.2276 51.3797L69.5523 53.9056C71.5169 57.644 74.4414 61.4048 79.1732 66.2657L83.3887 70.599L91.7017 70.7169C100.206 70.8348 101.244 70.9976 101.738 72.2774C102.064 73.1306 101.048 76.3244 99.4198 79.5688L98.0052 82.3866L98.8697 83.1051C99.3468 83.498 100.862 84.7497 102.238 85.878C106.116 89.0662 111.842 95.1901 113.896 98.3447C114.918 99.9164 115.866 101.196 116.001 101.196C116.416 101.196 128.894 75.8698 129.478 73.8378C129.781 72.7882 130.028 70.9022 130.028 69.6504C130.028 65.8054 128.423 63.4367 124.606 61.6686C123.612 61.2083 123.085 60.7985 123.377 60.7143C132.795 57.9415 137 55.511 140.732 50.6556C142.994 47.72 151.263 30.8357 152.172 27.3107C153.345 22.7528 152.761 19.9406 150.162 17.6617C144.914 13.0533 135.507 12.2955 85.5441 12.4639L55.2725 12.565L29.643 64.3067C15.5485 92.7653 4.01351 116.105 4.01351 116.172C4.01351 116.239 19.7303 116.295 38.9384 116.295C58.1465 116.295 73.8632 116.166 73.8632 116.009V116.004ZM137.168 112.748C139.666 111.092 141.378 108.841 143.943 103.829C148.95 94.0563 152.228 90.3404 159.486 86.2035C161.175 85.2437 161.855 84.6992 161.372 84.6992C159.89 84.6992 153.614 86.2035 150.078 87.4047C149.764 87.5114 150.926 86.6189 152.655 85.4177C158.133 81.6288 162.494 77.6211 165.834 73.3214C166.12 72.9509 165.239 73.4674 163.87 74.4609C162.506 75.4544 158.947 77.6828 155.972 79.406C152.997 81.1293 149.214 83.3801 147.575 84.4073C143.735 86.8154 138.998 91.5079 137.454 94.438C136.365 96.5092 134.462 101.544 134.771 101.544C134.85 101.544 135.652 101.073 136.562 100.5C138.364 99.3551 140.485 98.5468 140.811 98.8723C141.451 99.5122 138.307 108.319 136.174 111.855C135.523 112.939 135.108 113.826 135.254 113.826C135.4 113.826 136.259 113.337 137.162 112.737L137.168 112.748ZM56.1089 90.9298C54.947 89.723 53.4314 88.0895 52.7466 87.2981L51.5005 85.8611L49.6931 89.4928L47.8857 93.1245H58.2138L56.0977 90.9298H56.1089ZM95.7095 77.4134L96.5851 75.3927L94.89 75.286C93.9582 75.2299 92.3192 75.2299 91.247 75.286L89.2993 75.3927L91.8476 77.4078C93.2509 78.5135 94.497 79.4229 94.6149 79.4285C94.7328 79.4285 95.2267 78.5248 95.7095 77.4134ZM109.13 46.3335C109.894 45.9855 110.82 45.4354 111.19 45.1042C111.858 44.5036 115.99 36.5835 115.99 35.91C115.99 35.6742 109.344 35.5507 96.1585 35.5507H76.3274L73.5152 41.1638C71.9716 44.2511 70.703 46.8668 70.703 46.9734C70.703 47.0801 79.0329 47.125 89.2207 47.0632C106.116 46.9678 107.862 46.9061 109.13 46.3279V46.3335Z" fill="black"/>
</g>
<defs>
<clipPath id="clip0_15016_302124">
<rect width="200" height="200" fill="white" transform="translate(0 0.546875)"/>
</clipPath>
</defs>
</svg>
