<svg width="201" height="201" viewBox="0 0 201 201" fill="none" xmlns="http://www.w3.org/2000/svg">
<path d="M126.266 11.4565C149.115 2.52864 170.034 9.14639 170.332 9.24551L171.599 9.66905L180.56 26.5486C194.367 30.9104 198.563 39.7782 199.768 48.9854C200.447 54.1764 199.555 58.5713 198.497 61.6624C197.96 63.2305 197.38 64.4682 196.932 65.3153C196.464 66.2075 193.625 70.3319 193.625 70.3319L192.207 68.7098C192.138 68.6287 190.678 66.9614 190.519 66.8202C190.272 66.6009 189.84 66.2555 189.197 65.874C187.923 65.114 185.769 64.1767 182.504 63.8252C179.299 63.4828 176.523 63.4497 174.18 63.7381L157.985 121.754C158.787 122.034 163.122 123.833 163.837 124.052C166.195 124.779 171.783 125.936 171.783 125.936C171.783 125.936 157.132 139.793 131.658 132.088L131.61 193.625H68.5893C51.9862 193.625 41.5353 181.492 41.5353 165.775V140.4H28.8283V132.106H0.488609C0.488609 132.106 2.67251 124.377 3.9432 120.925C5.18385 117.558 7.02531 113.151 9.24827 109.922C12.2553 105.56 16.0674 101.576 19.3417 99.1552C19.3387 89.5815 19.4919 51.2715 19.5159 41.0519C18.5487 40.394 17.5333 39.631 16.587 38.7778C13.559 36.0442 9.69587 30.1534 8.5213 28.1377C7.77631 26.858 6.14513 23.121 4.83839 20.0719C3.46557 16.8727 0.00195312 8.52771 0.00195312 8.52771H81.104C92.8135 8.52771 103.664 14.7398 107.239 25.9087C113.214 17.4494 117.888 14.7309 126.266 11.4565Z" fill="#FE5000"/>
<path d="M150.847 10.1889C144.202 10.3115 136.214 11.3881 127.67 14.5267C115.392 19.0279 110.146 26.3456 104.58 36.3141V34.1536C104.58 20.4986 93.8164 12.4407 81.0986 12.4407H5.84001C5.84001 12.4407 10.7065 24.1563 11.8889 26.1942C13.0376 28.1672 16.6496 33.6009 19.197 35.9007C20.5212 37.0927 22.0784 38.1309 23.417 38.9336C23.4242 44.062 23.1887 99.3476 23.2488 101.253C20.2496 102.976 15.8517 107.223 12.4584 112.147C8.59408 117.751 5.63574 128.22 5.63574 128.22H45.4303V165.784C45.4303 179.583 54.363 189.742 68.59 189.742H127.718L127.764 127.033C128.795 127.547 129.747 127.955 130.6 128.249C151.505 135.355 164.254 127.201 164.254 127.201C164.254 127.201 160.774 126.446 158.611 125.737C156.698 125.108 153.805 123.853 153.805 123.853L171.524 60.8123C174.708 60.0962 178.529 60.0481 182.86 60.5119C190.379 61.3218 193.318 64.9026 193.318 64.9026C193.318 64.9026 197.647 58.5629 196.45 49.4308C195.34 40.9691 191.646 33.1275 178.265 29.3664L169.27 12.4287C169.27 12.4287 161.918 9.97983 150.842 10.1841L150.847 10.1889ZM36.6899 132.091L35.9353 136.544H37.084L37.4541 133.983H37.4685L38.4875 136.544H38.9489L40.0183 133.983H40.0327L40.3548 136.544H41.5107L40.8402 132.091H39.6891L38.7326 134.47L37.8266 132.091H36.6899ZM32.7102 132.096V133.072H33.6667V136.544H34.8226V133.072H35.7743V132.096H32.7102Z" fill="#4F2C1D"/>
<path fill-rule="evenodd" clip-rule="evenodd" d="M173.356 34.5873C173.356 34.5873 173.642 37.5042 169.827 41.1901C165.411 45.4587 156.735 50.2681 156.735 50.2681C156.735 50.2681 169.487 47.967 179.941 49.8475C187.665 51.2383 190.185 55.7203 190.185 55.7203C190.185 55.7203 192.327 49.2167 187.466 43.3679C182.912 37.8826 173.356 34.5873 173.356 34.5873Z" fill="#CDA077"/>
<path d="M19.043 20.8759C19.043 20.8759 21.8115 26.8887 24.8539 29.6355C27.2187 31.7672 31.852 33.8363 31.852 33.8363V106.824C31.852 106.824 27.0024 109.054 25.2817 110.765C21.1289 114.894 19.5885 119.782 19.5885 119.782H53.8773V165.786C53.8773 175.385 59.472 181.304 68.5921 181.304H119.28V128.301H73.5764C73.5764 128.301 82.187 135.85 88.8343 138.524C94.7558 140.906 104.883 141.74 104.883 141.74V168.348H72.5887C69.229 168.348 68.2653 166.906 68.2653 162.266V119.782H80.3005C86.2172 119.782 88.94 118.823 91.9777 116.103C95.0177 113.065 96.1376 109.866 96.1376 103.945V95.3558H104.083C104.083 95.3558 105.525 102.039 107.449 105.901C110.453 111.909 118.6 119.03 118.6 119.03L118.699 82.4002H96.1376V81.1289C96.1376 74.7316 94.5395 71.3671 90.2233 68.4881C94.3809 65.77 96.1376 62.5762 96.1376 57.2939V34.1535C96.1376 26.1581 90.2233 20.8759 81.1032 20.8759H19.043ZM46.2472 33.8363H75.5037C80.3053 33.8363 81.7425 35.1172 81.7425 39.2748V56.3327C81.7425 60.9708 80.625 62.0931 76.1478 62.0931H46.2496L46.2472 33.8363ZM159.241 36.6048C157.563 36.5976 155.482 36.624 153.867 36.7682C150.964 37.0302 146.487 37.9386 146.487 37.9386L156.523 42.1153L162.19 36.6553C162.19 36.6553 160.918 36.612 159.241 36.6048ZM46.2472 75.0512H75.0255C80.625 75.0512 81.7425 76.0101 81.7425 81.1289V82.4026H68.2653C59.7892 82.4026 53.875 88.4803 53.875 96.9564V106.824H46.2472V75.0512ZM74.1844 95.3558H81.7401V101.383C81.7401 105.543 80.3029 106.824 75.1841 106.824H68.2653V104.899V100.797C68.2653 96.4757 69.5462 95.3558 74.1844 95.3558Z" fill="white"/>
<path fill-rule="evenodd" clip-rule="evenodd" d="M151.663 17.3599C144.007 17.3263 135.658 18.8691 126.622 23.0122C120.857 25.651 119.669 27.8427 119.669 27.8427C119.669 27.8379 128.708 26.1364 142.956 27.0953C161.771 28.3594 170.314 33.1273 173.035 34.5909L164.693 18.9052C160.603 17.9703 156.258 17.3815 151.663 17.3599ZM145.917 38.1115C135.819 39.2699 115.807 45.386 104.58 56.4816V57.2939C104.58 61.4274 103.763 65.2148 101.761 68.5841C102.724 70.2808 103.395 72.0736 103.84 73.9577H116.634C117.764 70.9441 119.073 67.8271 120.436 65.3398C127.427 52.5884 137.979 43.2904 145.917 38.1115ZM164.256 61.9801C164.256 61.9801 149.765 63.4677 132.827 71.4127C131.029 72.2586 129.352 73.1166 127.804 73.9577V73.9721L127.778 112.133C138.532 119.592 147.116 121.981 147.116 121.981L164.261 61.9801H164.256Z" fill="#FE5000"/>
</svg>
