<svg width="201" height="200" viewBox="0 0 201 200" fill="none" xmlns="http://www.w3.org/2000/svg">
<path d="M139.875 97.9915L154.152 84.9208V47.722L137.06 29.6253H45.9727V58.9684H58.7595V140.835H45.9727V170.379H137.06L155.96 152.282V111.262L139.875 97.9915ZM120.795 141.177H90.5439V112.566H120.795V141.177ZM120.795 86.9834H90.5439V58.3721H120.795V86.9834Z" fill="#4E3629"/>
<path d="M157.587 97.5347L165.775 90.0378V43.1004L142.07 18.0013H34.0508V69.3991H47.0166V130.403H34.0508V182.002H141.727L167.584 157.245V105.782L157.587 97.5347ZM158.941 153.554L138.256 173.359H42.9923V138.45H55.6596V61.3513H42.9923V26.6443H138.344L157.132 46.5365V86.233L144.416 97.8739L158.941 109.857V153.554ZM93.5249 84.4502H117.964V60.9054H93.5249V84.4502ZM112.748 79.6814H98.7397V65.6733H112.748V79.6814ZM93.5249 138.644H117.964V115.099H93.5249V138.644ZM112.748 133.875H98.7397V120.166H112.748V133.875Z" fill="#C00404"/>
</svg>
