<svg width="201" height="201" viewBox="0 0 201 201" fill="none" xmlns="http://www.w3.org/2000/svg">
<g clip-path="url(#clip0_15016_302178)">
<path d="M188.377 50.1783L200.629 46.1953L196.409 43.2658C172.805 26.8605 139.367 17.4553 104.665 17.4553C68.7308 17.4553 34.4969 27.4309 10.7328 44.8223L0.628906 52.6496L12.5785 56.5298V80.0994L2.36681 103.294L29.8165 84.9926C38.3119 79.2724 41.262 74.5339 42.254 72.3081C48.9249 69.2141 55.9506 66.6547 63.2228 64.6195C62.1794 66.11 61.2544 67.6878 60.4629 69.3581C58.7258 70.6275 57.0554 72.1128 55.488 73.7882C51.4329 78.1105 49.4594 83.9022 49.922 90.0957C50.1995 93.7704 51.3148 97.2292 53.0109 99.8759C51.6027 100.467 49.4955 100.996 46.5608 100.924L41.7864 100.796L43.3693 105.303C43.4977 105.663 46.4992 113.747 60.0155 114.503C60.3649 124.257 64.4199 137.913 80.3623 151.28C80.9636 155.669 83.6926 168.518 95.3028 173.888L99.9745 176.046V175.671C104.122 179.608 108.963 181.648 115.65 182.574L122.84 183.56L118.847 177.501C110.788 165.274 125.374 152.79 125.996 152.266C144.513 136.781 147.221 121.471 147.371 114.527C160.933 113.818 164.043 105.867 164.171 105.512L165.862 100.954L161 101.077C157.7 101.165 155.46 100.496 154.067 99.8232C161.457 86.5378 155.161 75.0721 146.167 68.3805C145.181 66.7461 144.076 65.2043 142.878 63.7499C150.027 65.5693 156.955 67.9025 163.565 70.7395L157.274 73.3452L162.408 75.8172C172.04 80.4582 187.186 89.5602 194.848 96.1741L199.062 99.8128V72.836L188.378 66.7663V50.1766L188.377 50.1783Z" fill="#A7A8AA"/>
<path d="M185.827 68.2513V48.3209L194.954 45.3554C172.526 29.7677 140.379 20.0026 104.665 20.0026C67.805 20.0026 34.7434 30.4048 12.2424 46.8766L5.99805 51.7076L15.1308 54.6783V80.6319L8.21833 96.3224L28.3907 82.8728C39.055 75.6931 40.2264 70.4353 40.2264 70.4353C50.1403 65.7482 60.9946 62.1198 72.5117 59.7347C68.1843 63.0034 65.0494 67.0738 63.0809 71.5301C61.3695 72.707 59.622 74.1871 57.8849 76.0373C50.1758 84.2604 53.1258 96.7541 57.8849 100.511C57.8849 100.511 54.755 104.422 46.4756 104.206C46.4756 104.206 49.1379 111.782 63.5493 111.237C63.4465 111.556 63.2923 112.101 63.2872 112.604C63.1998 119.049 64.685 134.334 83.4847 149.587C83.4847 149.587 84.4869 165.258 96.6824 170.901V166.095C101.883 174.663 106.992 178.055 116.094 179.309C106.288 164.425 123.88 149.742 123.88 149.742C147.234 130.212 143.918 111.254 143.918 111.254C158.33 111.798 161.084 104.367 161.084 104.367C152.799 104.583 149.669 100.671 149.669 100.671C160.569 84.7904 148.384 73.993 143.677 70.6422C140.994 66.0012 137.365 62.1622 133.228 59.0374C146.426 61.4426 158.802 65.4719 169.959 70.8478L163.509 73.5203C173.402 78.2845 188.789 87.5818 196.509 94.2421V74.3167L185.825 68.2521L185.827 68.2513Z" fill="#003865"/>
<path d="M128.992 67.7691C128.936 67.7382 128.9 67.6765 128.91 67.6097C128.915 67.548 128.956 67.4915 129.018 67.471C130.349 66.9982 131.783 66.7566 133.278 66.7566C134.949 66.7566 136.285 67.0495 136.994 67.25C125.564 53.9848 106.405 53.4405 103.809 53.4304L106.414 56.9304C106.456 56.9818 106.461 57.0588 106.425 57.1154C106.389 57.1719 106.322 57.2028 106.255 57.1873C106.224 57.1823 103.331 56.6271 99.137 56.6271C91.2583 56.6271 80.3477 58.4876 72.762 67.2501C73.4712 67.0497 74.8075 66.7567 76.4778 66.7567C77.9734 66.7567 79.4073 66.9983 80.7384 67.4711C80.8001 67.4917 80.8464 67.5482 80.8515 67.6099C80.8566 67.6767 80.8206 67.7384 80.7641 67.7692C80.6407 67.836 68.4446 74.6303 68.8357 82.1543C69.0464 86.122 72.6953 89.627 79.6845 92.5717C79.741 92.5974 79.777 92.6488 79.7822 92.7104C79.7872 92.7515 80.1162 96.8373 77.5208 99.6743C75.866 101.483 73.3991 102.403 70.1972 102.403C61.7891 102.403 58.9623 106.119 58.2637 107.348C58.7828 107.157 59.7901 106.895 61.337 106.895C64.0918 106.895 67.3245 107.712 70.9529 109.321C70.994 109.342 71.0249 109.378 71.0403 109.424C71.0557 109.465 71.0506 109.516 71.0249 109.557C70.9889 109.624 70.0227 111.238 67.2731 111.305C67.5712 113.417 70.6497 132.942 81.3658 134.365C81.6588 133.466 83.5244 128.342 89.003 125.212C89.0699 125.171 89.1572 125.186 89.2086 125.243C89.26 125.305 89.2652 125.392 89.2136 125.454C89.1417 125.551 81.8437 135.116 88.9361 143.765C88.9721 143.811 88.9824 143.868 88.967 143.924C88.931 144.022 85.796 153.818 93.6438 160.663C93.4639 159.42 93.1298 155.848 94.7384 152.651C94.7641 152.595 94.8207 152.559 94.8824 152.559H94.9029C94.9697 152.569 95.0262 152.615 95.0417 152.682C95.0674 152.785 97.6524 162.524 104.601 168.095C103.337 165.448 98.9373 155.221 102.561 147.764C104.483 143.811 108.332 141.221 114.006 140.06C110.717 139.35 107.135 138.991 103.352 138.991C95.6942 138.991 89.7531 140.481 89.6917 140.497C89.6505 140.507 89.5991 140.496 89.5632 140.476C89.5272 140.45 89.4963 140.409 89.4912 140.368C87.9956 132.628 93.0939 129.452 93.1453 129.421C93.1864 129.396 93.243 129.391 93.2892 129.411C95.936 130.439 100.562 131.662 102.299 132.032C102.843 132.145 103.378 132.207 103.856 132.207C104.411 132.207 105.696 132.114 105.696 131.266C105.696 130.29 104.76 129.946 104.719 129.93L98.9683 129.098C98.922 129.093 93.5 128.609 93.3201 123.794C93.2738 122.452 93.6953 121.306 94.5793 120.391C95.9207 118.999 98.0021 118.5 99.3692 118.5C100.048 118.5 100.628 118.618 101.004 118.824C101.209 118.942 101.41 119.06 101.615 119.178C102.52 119.718 103.46 120.273 104.694 120.335C105.907 120.273 106.842 119.718 107.752 119.178C107.957 119.06 108.158 118.942 108.363 118.824C108.733 118.618 109.304 118.505 109.972 118.505C110.83 118.505 111.771 118.685 112.614 119.009C112.68 119.035 114.238 119.59 115.245 121.178C116.391 119.035 118.354 117.041 121.089 115.237C125.704 112.194 126.742 109.887 126.798 108.489C126.845 107.348 126.259 106.618 125.997 106.35C124.172 108.812 121.957 109.336 120.41 109.336C119.305 109.336 118.473 109.079 118.2 108.982C115.697 111.161 112.819 116.254 112.788 116.306C112.752 116.372 112.675 116.403 112.598 116.383C112.526 116.362 112.48 116.295 112.48 116.218C112.562 113.433 114.428 107.44 114.685 106.613L111.93 103.272C111.879 103.21 111.879 103.128 111.92 103.072C111.966 103.01 112.043 102.984 112.115 103.01C112.901 103.318 113.724 103.472 114.572 103.472C121.14 103.477 127.276 94.3654 127.955 93.3273C127.975 93.2913 128.006 93.2656 128.047 93.2553C129.286 92.8955 130.067 92.5769 130.072 92.5717C137.062 89.6269 140.71 86.1217 140.916 82.1544C141.312 74.6252 129.115 67.8356 128.992 67.7691Z" fill="#EF5B0C"/>
<path d="M82.0299 93.9683C81.9573 93.9884 81.9089 94.0602 81.9089 94.132C82.1912 100.206 76.6572 103.271 76.6007 103.303C76.5233 103.343 76.4935 103.44 76.5346 103.521C76.5757 103.602 76.6733 103.634 76.7499 103.593C76.7604 103.585 77.5306 103.222 78.6516 103.222C79.9669 103.222 81.9008 103.731 83.6509 106.198C85.4896 108.787 87.7638 109.327 89.3445 109.327C90.4413 109.327 91.272 109.069 91.5462 108.973C94.7317 111.932 97.0059 117.328 97.0221 117.384C97.0543 117.449 97.1108 117.481 97.1834 117.481H97.2076C97.2882 117.465 97.3447 117.392 97.3447 117.311C97.2156 112.077 95.3688 107.319 95.0704 106.602L97.8285 103.263C97.8769 103.206 97.8689 103.126 97.8285 103.061C97.7882 103.005 97.7076 102.981 97.635 103.005C96.8124 103.335 95.9414 103.497 95.0543 103.497C88.3526 103.497 82.2718 94.132 82.2154 94.0344C82.175 93.9731 82.0944 93.9481 82.0299 93.9683ZM76.879 107.376L75.5781 108.634C68.4756 115.844 79.6798 119.707 82.0783 122.844L84.0138 125.771C86.1025 112.957 75.2039 119.691 76.879 107.376Z" fill="#003865"/>
<path d="M107.981 24.0833L108.078 26.0835L108.126 50.9577L114.699 51.523L112.303 49.2819L112.19 31.2843L122.182 52.0932L128.876 52.6085L128.924 27.6351L131.231 25.7698L124.707 25.2819L124.537 42.0359L116.368 24.6553L107.981 24.0833ZM104.771 24.173L103.723 24.2392L95.255 24.7843L97.392 26.5738L91.0533 35.865L91.1985 27.0714L93.3356 24.902L82.513 25.5037L83.9566 27.5295L83.9162 50.3989L81.7872 52.5674L93.2953 51.8537L91.134 49.9577L91.0856 41.6271L96.7227 49.7368L95.0614 51.7448L106.803 51.0053L104.658 49.0424L95.3195 36.0351L102.4 26.444L104.771 24.173ZM80.6098 25.6996L76.4549 27.6004C75.6275 27.1948 74.4081 26.9125 72.5783 27.3593C66.4783 28.8601 61.5452 36.8924 61.6791 44.3545C61.6993 45.5109 61.9097 49.4989 63.7912 52.1561C64.9985 53.8424 68.2614 55.986 72.3057 54.9997C74.367 54.4956 75.6735 53.5077 76.5372 52.6239L80.3453 52.686L80.2049 43.6053L77.0961 44.3658L76.9477 45.0335C76.0791 48.8109 75.0356 51.2779 72.4759 51.8997C70.2815 52.4392 69.5259 51.1698 69.2533 46.4827C69.1864 45.3626 69.1154 44.0932 69.0896 42.8238C69.0485 40.2593 69.2235 36.5174 69.3783 35.0271C69.5581 33.3004 69.9678 32.3488 71.0114 31.2803C71.3251 30.9714 71.8952 30.5351 72.6307 30.3553C73.5098 30.1391 74.1154 30.2367 74.6654 30.669C76.0581 31.7117 76.4081 33.7472 76.7573 35.3198L76.9009 35.9521L80.7146 35.0682L80.6098 25.6996ZM131.658 25.9956L133.731 28.5029L133.763 51.4819L131.747 53.04L149.803 57.3005L150.795 57.5255L150.82 56.79L151.11 50.0376L151.142 49.2247L150.061 48.9747L149.029 48.7319L148.118 48.5166L148.013 49.1795C147.795 50.5876 147.481 51.3489 145.505 52.2432C144.223 52.8134 142.618 52.5819 141.005 52.2481L140.844 43.1811C144.336 44.0037 144.876 46.7488 144.876 46.7488L146.158 47.0513L146.118 36.6238L144.803 36.3263C144.803 36.3263 144.11 40.9263 140.787 40.14L141.021 31.119C142.763 31.5303 144.384 31.9722 145.658 33.1746C147.424 34.7883 147.473 35.5142 147.521 36.2746L147.529 36.3472L147.586 37.1077L150.699 37.8327L150.578 30.4214L131.658 25.9956ZM61.671 29.5585L52.6831 32.8472L55.0621 34.0238L55.0525 51.6682C54.9492 54.3972 54.3589 56.0618 51.2751 57.1876C47.75 58.4666 47.5686 57.1053 47.517 54.5206C47.517 54.536 47.5073 39.6779 47.5073 36.769L49.5839 33.9827L38.1234 38.1771L40.2654 39.4263L40.3081 57.1214C40.3541 59.1045 40.4299 62.0852 44.3105 62.265C46.371 62.3682 50.1291 61.0061 50.1646 60.9908C50.792 60.765 54.0089 59.5416 55.813 58.0045C59.1743 55.1472 59.2251 52.14 59.2662 49.94C59.2662 49.9351 59.3025 35.3706 59.2976 32.4771L61.671 29.5585ZM152.284 31.1472L154.341 33.9383L154.3 56.9319L152.228 58.1811L171.784 65.5513L171.671 57.1222L168.647 55.9868C168.647 55.9868 168.284 61.2481 161.526 58.6997L161.623 36.673L163.647 35.4037L152.284 31.1472ZM172.655 38.144L174.712 41.3714V73.0094L172.647 73.8263L192.203 85.3279L192.091 76.8795L189.066 75.1005C189.066 75.1005 188.712 80.2868 181.945 76.3134L181.994 45.648L184.026 44.8101L172.655 38.144ZM34.5823 40.4488C32.0855 40.2851 28.0766 42.8779 26.0766 44.1787L26.0613 44.1892C26.0097 44.2255 25.9952 44.2351 25.9952 44.2351L16.25 50.7714V50.8351L18.3524 51.5843V82.6158L16.254 86.2134L25.5976 80.1078C28.296 78.3045 33.492 74.8916 36.1129 69.8602C37.367 67.3932 37.975 65.1626 37.975 62.9884C37.9702 58.5327 35.4605 57.1964 33.0041 57.9416C33.8984 56.9037 34.8339 55.6029 35.6363 54.015C36.35 52.5916 37.0952 48.1513 37.0895 45.7206C37.0895 43.7214 36.3654 40.915 35.0597 40.5198C34.9073 40.4827 34.7484 40.4593 34.5823 40.4488ZM29.4791 45.4892C30.1315 45.5198 30.471 48.1416 30.471 50.3666C30.4661 53.065 30.0903 57.4174 29.3452 58.4658C28.9032 59.0884 26.95 60.3674 25.7274 61.1642L25.7315 47.694C27.0581 46.7585 29.0371 45.4682 29.4791 45.4892ZM29.917 62.19C30.1936 62.1537 30.4081 62.2037 30.5532 62.3569C31.175 63.0456 31.2161 65.5787 31.221 67.7327C31.2161 70.5384 30.8089 72.461 29.9766 73.6174C29.4113 74.3932 27.2887 75.7505 25.7315 76.7215L25.7274 64.5005C25.825 64.4384 25.917 64.3763 26.004 64.3142C27.704 63.1698 29.0871 62.2965 29.917 62.19ZM64.1089 76.6086C60.9485 79.6561 59.1049 83.4739 59.2484 87.5239C59.392 91.5328 61.4686 95.09 64.7783 97.736C65.1896 98.0425 65.7904 98.2602 66.5097 98.357C68.463 98.6231 70.6622 97.8651 71.4331 96.6715C71.9573 95.8602 71.613 95.0328 70.7549 94.5191C66.0831 91.7997 62.9847 87.565 62.8097 82.6723C62.7323 80.565 63.1993 78.5199 64.1089 76.6086ZM145.238 76.6086C146.149 78.5199 146.617 80.565 146.545 82.6723C146.367 87.565 143.27 91.7997 138.593 94.5191C137.738 95.0328 137.391 95.8602 137.915 96.6715C138.682 97.8651 140.891 98.6231 142.843 98.357C143.561 98.2602 144.157 98.0425 144.569 97.736C147.883 95.09 149.956 91.5328 150.101 87.5239C150.246 83.4739 148.399 79.6561 145.238 76.6086ZM125.246 100.196C124.432 101.075 123.496 101.978 122.464 102.809C122.907 103.115 123.198 103.631 123.198 104.22C123.198 105.18 122.424 105.954 121.464 105.954C120.633 105.954 119.94 105.373 119.77 104.583C119.125 104.922 118.464 105.196 117.786 105.397C118.585 106.583 119.77 107.333 121.093 107.333C123.496 107.333 125.44 104.873 125.44 101.833C125.44 101.26 125.375 100.72 125.246 100.196ZM84.488 100.204C84.359 100.712 84.2944 101.26 84.2944 101.833C84.2944 104.873 86.2461 107.325 88.6412 107.325C89.9719 107.325 91.1493 106.575 91.9477 105.397C91.2703 105.196 90.609 104.922 89.9719 104.583C89.8025 105.365 89.1009 105.954 88.2703 105.954C87.3106 105.954 86.5364 105.18 86.5364 104.22C86.5364 103.631 86.8267 103.115 87.2703 102.809C86.238 101.978 85.3025 101.075 84.488 100.204ZM99.6332 121.454C99.1896 121.454 98.8187 121.526 98.5122 121.655C98.2138 121.784 97.9719 121.962 97.7783 122.18C97.3993 122.607 97.2138 123.18 97.1493 123.728C97.1251 123.865 97.1171 124.002 97.109 124.131C97.0687 124.93 97.2219 125.591 97.2219 125.591C97.2541 125.373 97.3106 125.155 97.3751 124.954C97.5042 124.559 97.6977 124.196 97.9558 123.897C98.4154 123.389 99.0929 123.075 100.053 123.107C100.472 123.115 100.932 123.196 101.456 123.341H101.464C102.73 123.704 103.528 124.115 104.044 124.454C104.077 124.47 104.125 124.494 104.157 124.518C104.327 124.631 104.456 124.736 104.561 124.833C104.641 124.946 104.746 125.059 104.867 125.163H104.875C104.996 125.059 105.101 124.946 105.182 124.833C105.286 124.736 105.415 124.631 105.585 124.518C106.044 124.204 106.786 123.825 107.883 123.478C108.02 123.43 108.133 123.381 108.286 123.341C108.98 123.139 109.577 123.075 110.085 123.115C110.214 123.123 110.327 123.139 110.448 123.155C110.561 123.18 110.674 123.212 110.77 123.244C111.399 123.446 111.835 123.857 112.125 124.389C112.222 124.567 112.303 124.76 112.375 124.954C112.44 125.155 112.488 125.373 112.52 125.591V125.583C112.52 125.583 112.528 125.583 112.528 125.591C112.528 125.591 112.593 125.293 112.625 124.865C112.649 124.543 112.649 124.139 112.601 123.728C112.577 123.591 112.553 123.454 112.52 123.317C112.488 123.18 112.448 123.043 112.399 122.913C112.294 122.647 112.157 122.397 111.964 122.18C111.867 122.075 111.762 121.97 111.641 121.881C111.512 121.793 111.383 121.72 111.23 121.655C111.077 121.591 110.907 121.543 110.722 121.502C110.536 121.47 110.335 121.454 110.109 121.454C109.891 121.454 109.649 121.47 109.383 121.51C108.101 121.696 107.133 121.962 106.399 122.236C105.674 122.51 105.19 122.801 104.875 123.034C104.714 122.922 104.512 122.784 104.262 122.655C104.012 122.518 103.706 122.373 103.343 122.236C103.157 122.163 102.964 122.099 102.746 122.034C102.536 121.962 102.303 121.897 102.061 121.841H102.053C101.811 121.776 101.544 121.72 101.262 121.663C100.98 121.607 100.682 121.551 100.359 121.51H100.351C100.093 121.47 99.8509 121.454 99.6332 121.454ZM95.1816 132.76C94.2622 133.26 93.7703 133.801 93.488 134.373C94.9316 134.518 97.7622 134.793 98.8106 135.172C97.609 135.188 94.9074 135.543 93.1009 135.913C93.0525 136.349 93.0203 136.793 92.9477 137.252C101.843 136.002 107.343 136.002 117.375 137.155C117.335 136.784 117.198 136.309 116.98 135.784C115.222 135.47 112.988 135.188 111.932 135.172C112.77 134.865 114.762 134.631 116.27 134.478C115.899 133.93 115.464 133.405 114.948 132.978C108.52 135.583 101.617 134.647 95.1816 132.76Z" fill="white"/>
<path d="M109.143 26.1765L109.377 49.1749L110.522 49.2362L110.288 26.2951L109.143 26.1765ZM100.046 26.4717L98.8927 26.5378L90.5459 38.4814L98.5136 49.2282L99.562 49.1878L91.7959 38.3951L100.046 26.4717ZM112.336 27.2814L112.352 29.6088L122.481 49.8475L123.473 49.9451L112.336 27.2814ZM86.3523 27.3249L85.191 27.391L85.2717 50.062L86.4088 50.0306L86.3523 27.3249ZM126.183 27.5297L126.223 50.2411L127.369 50.2935L127.344 27.6483L126.183 27.5297ZM135.07 28.9176L135.191 51.6241L136.336 51.8653L136.223 29.2265L135.07 28.9176ZM141.828 30.1636C141.828 30.1636 147.328 31.6435 148.53 35.2467C148.53 35.2467 148.748 30.3483 141.828 30.1636ZM69.0588 30.7144C65.595 33.8652 63.1063 39.2967 63.1837 44.0765C63.2039 45.212 63.4313 49.1032 65.4821 51.6524C66.0934 52.408 67.362 53.0959 68.816 53.6717C67.8088 53.0653 67.1918 52.1193 66.745 51.4257C65.0854 48.7943 64.8854 44.9048 64.8596 43.7693C64.7773 39.1338 66.4273 33.737 69.0588 30.7144ZM57.3273 32.9983L56.1757 33.4394L56.2692 51.8338C56.2999 55.8685 53.2168 57.8362 53.2168 57.8362C57.3741 55.5854 57.4249 51.5878 57.4249 51.5878L57.3273 32.9983ZM155.658 34.5725L155.666 58.1879L156.811 58.5895V35.0354L155.658 34.5725ZM42.7305 38.2677L41.574 38.704L41.7265 57.5862C41.7265 57.5862 41.8248 61.5387 46.0031 61.2604C46.0031 61.2604 42.9047 61.1685 42.8732 57.129L42.7305 38.2677ZM175.956 42.2394L176.126 74.3355L177.279 74.9766L177.11 42.9483L175.956 42.2394ZM31.5611 43.079C31.3248 43.0773 31.074 43.1233 30.8095 43.2225C32.0998 42.9402 32.6442 46.0596 32.67 48.7572C32.7006 52.0266 32.0531 57.4266 30.599 59.0508C32.999 56.8459 34.2168 51.0757 34.1958 47.7967C34.1829 45.4314 33.2176 43.0935 31.5611 43.079ZM20.72 49.9669L19.5684 50.7072L19.7159 81.55L20.8788 80.7935L20.72 49.9669ZM148.494 52.429C147.446 55.3741 141.946 53.6007 141.946 53.6007C149.535 57.8201 148.494 52.429 148.494 52.429ZM32.0668 59.9975C31.8305 60.0016 31.5813 60.0508 31.3184 60.1499C32.5982 59.8572 33.1482 62.75 33.174 65.2629C33.2095 68.3008 32.5611 72.854 31.1119 74.4274C33.5119 72.2733 34.716 67.3814 34.6998 64.3338C34.6869 62.1209 33.7168 59.9677 32.0668 59.9975ZM170.761 60.3862C169.704 63.1822 164.212 60.6387 164.212 60.6387C171.615 65.804 170.761 60.3862 170.761 60.3862ZM183.107 77.8484C191.752 85.1871 190.519 78.3976 190.519 78.3976C189.325 81.4403 183.107 77.8484 183.107 77.8484Z" fill="#EF5B0C"/>
</g>
<defs>
<clipPath id="clip0_15016_302178">
<rect width="200" height="200" fill="white" transform="translate(0.628906 0.507812)"/>
</clipPath>
</defs>
</svg>
