<svg width="201" height="201" viewBox="0 0 201 201" fill="none" xmlns="http://www.w3.org/2000/svg">
<mask id="path-1-outside-1_15016_302112" maskUnits="userSpaceOnUse" x="15.6387" y="10.1989" width="177" height="172" fill="black">
<rect fill="white" x="15.6387" y="10.1989" width="177" height="172"/>
<path fill-rule="evenodd" clip-rule="evenodd" d="M135.816 93.1322C137.677 91.605 139.632 90.0007 141.724 88.4149C149.43 82.5733 158.089 79.7905 162.319 80.2911C155.067 78.5103 149.352 79.5674 139.963 86.0339C136.817 88.2003 134.04 90.5445 131.446 92.7337C125.581 97.6826 120.656 101.84 114.534 101.362C122.043 104.435 128.127 99.4422 135.816 93.1322ZM46.7732 80.2911C51.004 79.7905 59.6626 82.5733 67.3686 88.4149C69.4608 90.0009 71.416 91.6054 73.277 93.1327C80.9658 99.4425 87.0489 104.435 94.5577 101.362C88.4365 101.84 83.5102 97.6823 77.6458 92.7331C75.052 90.5441 72.2746 88.2001 69.1291 86.0339C59.7403 79.5674 54.0258 78.5103 46.7732 80.2911ZM187.444 45.0952C187.081 60.8872 176.726 69.9127 169.873 73.9437C170.204 73.9971 170.649 74.0873 171.184 74.1956C174.762 74.9205 182.333 76.454 186.27 73.1358C183.453 85.529 169.858 96.4152 156.476 96.6484C157.444 99.1137 159.346 112.003 156.555 119.919C155.28 123.535 150.705 126.503 145.736 129.726C139.829 133.559 133.365 137.752 131.224 143.827C127.957 141.915 124.015 140.88 121.388 140.407C122 131.493 124.197 122.652 127.65 115.295C128.46 113.569 129.331 111.938 130.259 110.394C130.536 110.41 130.813 110.427 131.093 110.427C138.991 110.427 145.393 103.943 145.393 95.9437C145.393 94.9693 145.298 94.0182 145.117 93.0977C127.062 101.92 119.619 124.254 118.899 142.491C122.345 142.721 130.905 144.828 133.699 149.163C136.493 153.498 133.913 160.143 131.856 163.552C129.403 167.617 125.54 170.411 123.264 170.411C123.175 170.411 123.04 170.401 122.915 170.388C119.565 167.817 115.672 165.938 111.443 164.946C112.079 163.463 113.226 161.192 114.815 159.52C118.87 155.051 124.363 155.54 125.718 160.428C126.705 159.029 127.54 153.565 124.919 151.697C122.088 149.68 114.326 151.135 109.617 164.576C107.97 164.297 106.281 164.144 104.556 164.144L104.546 164.122L104.536 164.144C102.811 164.144 101.122 164.297 99.4759 164.576C94.767 151.135 87.0042 149.68 84.1735 151.697C81.5528 153.565 82.3876 159.029 83.3743 160.428C84.7286 155.54 90.2222 155.051 94.2772 159.52C95.8655 161.192 97.0128 163.463 97.65 164.946C93.4206 165.938 89.5276 167.817 86.1774 170.388C86.0524 170.401 85.918 170.411 85.8279 170.411C83.5523 170.411 79.6884 167.617 77.2362 163.552C75.1793 160.143 72.5999 153.498 75.3936 149.163C78.1873 144.828 86.747 142.721 90.1932 142.491C89.4739 124.254 82.0308 101.92 63.9755 93.0977C63.7939 94.0182 63.6994 94.9693 63.6994 95.9437C63.6994 103.943 70.1012 110.427 77.9991 110.427C78.2796 110.427 78.5564 110.41 78.8332 110.394C79.7603 111.938 80.6322 113.569 81.4423 115.295C84.895 122.652 87.0922 131.493 87.7047 140.407C85.0774 140.88 81.1357 141.915 77.8676 143.827C75.7271 137.752 69.2626 133.558 63.3554 129.726C58.3867 126.503 53.8124 123.535 52.5371 119.919C49.7463 112.003 51.6477 99.1137 52.617 96.6484C39.2342 96.4152 25.6393 85.529 22.8217 73.1358C26.7592 76.4539 34.3287 74.9207 37.908 74.1957C38.4428 74.0874 38.8885 73.9971 39.2197 73.9437C32.3667 69.9127 22.0108 60.8872 21.6483 45.0952C21.1934 25.2931 36.9964 14.8254 51.3629 15.209C48.7807 16.4936 42.8337 20.6373 41.1727 28.6506C39.1841 38.2429 43.824 48.0262 54.2416 51.0959C57.7568 52.132 61.046 52.3275 65.2412 52.1713C62.6466 54.9802 60.7975 60.3118 60.1588 66.0045C62.8413 59.4065 67.7457 52.3529 71.5551 51.7796C75.204 51.3335 77.4491 51.0814 82.0839 50.9041C92.6628 50.5001 101.319 50.6985 104.546 54.149C107.773 50.6985 116.43 50.5001 127.008 50.9041C131.643 51.0814 133.889 51.3335 137.537 51.7796C141.347 52.3529 146.251 59.4065 148.934 66.0045C148.295 60.3118 146.446 54.9802 143.851 52.1713C148.047 52.3275 151.335 52.132 154.851 51.0959C165.268 48.0262 169.908 38.2429 167.92 28.6506C166.258 20.6373 160.312 16.4936 157.73 15.209C172.095 14.8254 187.898 25.2931 187.444 45.0952ZM104.537 166.604H104.557C110.816 166.604 116.593 168.685 121.256 172.199C120.717 173.997 118.671 176.37 114.595 176.461C112.11 176.518 109.832 176.242 107.905 176.009C106.619 175.854 105.489 175.717 104.557 175.711H104.537C103.605 175.717 102.475 175.854 101.189 176.009C99.2621 176.242 96.9845 176.518 94.4991 176.461C90.423 176.37 88.377 173.997 87.8379 172.199C92.5003 168.685 98.2787 166.604 104.537 166.604Z"/>
</mask>
<path fill-rule="evenodd" clip-rule="evenodd" d="M135.816 93.1322C137.677 91.605 139.632 90.0007 141.724 88.4149C149.43 82.5733 158.089 79.7905 162.319 80.2911C155.067 78.5103 149.352 79.5674 139.963 86.0339C136.817 88.2003 134.04 90.5445 131.446 92.7337C125.581 97.6826 120.656 101.84 114.534 101.362C122.043 104.435 128.127 99.4422 135.816 93.1322ZM46.7732 80.2911C51.004 79.7905 59.6626 82.5733 67.3686 88.4149C69.4608 90.0009 71.416 91.6054 73.277 93.1327C80.9658 99.4425 87.0489 104.435 94.5577 101.362C88.4365 101.84 83.5102 97.6823 77.6458 92.7331C75.052 90.5441 72.2746 88.2001 69.1291 86.0339C59.7403 79.5674 54.0258 78.5103 46.7732 80.2911ZM187.444 45.0952C187.081 60.8872 176.726 69.9127 169.873 73.9437C170.204 73.9971 170.649 74.0873 171.184 74.1956C174.762 74.9205 182.333 76.454 186.27 73.1358C183.453 85.529 169.858 96.4152 156.476 96.6484C157.444 99.1137 159.346 112.003 156.555 119.919C155.28 123.535 150.705 126.503 145.736 129.726C139.829 133.559 133.365 137.752 131.224 143.827C127.957 141.915 124.015 140.88 121.388 140.407C122 131.493 124.197 122.652 127.65 115.295C128.46 113.569 129.331 111.938 130.259 110.394C130.536 110.41 130.813 110.427 131.093 110.427C138.991 110.427 145.393 103.943 145.393 95.9437C145.393 94.9693 145.298 94.0182 145.117 93.0977C127.062 101.92 119.619 124.254 118.899 142.491C122.345 142.721 130.905 144.828 133.699 149.163C136.493 153.498 133.913 160.143 131.856 163.552C129.403 167.617 125.54 170.411 123.264 170.411C123.175 170.411 123.04 170.401 122.915 170.388C119.565 167.817 115.672 165.938 111.443 164.946C112.079 163.463 113.226 161.192 114.815 159.52C118.87 155.051 124.363 155.54 125.718 160.428C126.705 159.029 127.54 153.565 124.919 151.697C122.088 149.68 114.326 151.135 109.617 164.576C107.97 164.297 106.281 164.144 104.556 164.144L104.546 164.122L104.536 164.144C102.811 164.144 101.122 164.297 99.4759 164.576C94.767 151.135 87.0042 149.68 84.1735 151.697C81.5528 153.565 82.3876 159.029 83.3743 160.428C84.7286 155.54 90.2222 155.051 94.2772 159.52C95.8655 161.192 97.0128 163.463 97.65 164.946C93.4206 165.938 89.5276 167.817 86.1774 170.388C86.0524 170.401 85.918 170.411 85.8279 170.411C83.5523 170.411 79.6884 167.617 77.2362 163.552C75.1793 160.143 72.5999 153.498 75.3936 149.163C78.1873 144.828 86.747 142.721 90.1932 142.491C89.4739 124.254 82.0308 101.92 63.9755 93.0977C63.7939 94.0182 63.6994 94.9693 63.6994 95.9437C63.6994 103.943 70.1012 110.427 77.9991 110.427C78.2796 110.427 78.5564 110.41 78.8332 110.394C79.7603 111.938 80.6322 113.569 81.4423 115.295C84.895 122.652 87.0922 131.493 87.7047 140.407C85.0774 140.88 81.1357 141.915 77.8676 143.827C75.7271 137.752 69.2626 133.558 63.3554 129.726C58.3867 126.503 53.8124 123.535 52.5371 119.919C49.7463 112.003 51.6477 99.1137 52.617 96.6484C39.2342 96.4152 25.6393 85.529 22.8217 73.1358C26.7592 76.4539 34.3287 74.9207 37.908 74.1957C38.4428 74.0874 38.8885 73.9971 39.2197 73.9437C32.3667 69.9127 22.0108 60.8872 21.6483 45.0952C21.1934 25.2931 36.9964 14.8254 51.3629 15.209C48.7807 16.4936 42.8337 20.6373 41.1727 28.6506C39.1841 38.2429 43.824 48.0262 54.2416 51.0959C57.7568 52.132 61.046 52.3275 65.2412 52.1713C62.6466 54.9802 60.7975 60.3118 60.1588 66.0045C62.8413 59.4065 67.7457 52.3529 71.5551 51.7796C75.204 51.3335 77.4491 51.0814 82.0839 50.9041C92.6628 50.5001 101.319 50.6985 104.546 54.149C107.773 50.6985 116.43 50.5001 127.008 50.9041C131.643 51.0814 133.889 51.3335 137.537 51.7796C141.347 52.3529 146.251 59.4065 148.934 66.0045C148.295 60.3118 146.446 54.9802 143.851 52.1713C148.047 52.3275 151.335 52.132 154.851 51.0959C165.268 48.0262 169.908 38.2429 167.92 28.6506C166.258 20.6373 160.312 16.4936 157.73 15.209C172.095 14.8254 187.898 25.2931 187.444 45.0952ZM104.537 166.604H104.557C110.816 166.604 116.593 168.685 121.256 172.199C120.717 173.997 118.671 176.37 114.595 176.461C112.11 176.518 109.832 176.242 107.905 176.009C106.619 175.854 105.489 175.717 104.557 175.711H104.537C103.605 175.717 102.475 175.854 101.189 176.009C99.2621 176.242 96.9845 176.518 94.4991 176.461C90.423 176.37 88.377 173.997 87.8379 172.199C92.5003 168.685 98.2787 166.604 104.537 166.604Z" fill="#0064A2"/>
<path d="M141.724 88.4149L144.744 92.3995L144.744 92.3994L141.724 88.4149ZM135.816 93.1322L132.644 89.267H132.644L135.816 93.1322ZM162.319 80.2911L161.732 85.2565C164.356 85.5669 166.768 83.7824 167.239 81.1827C167.71 78.5829 166.078 76.0654 163.512 75.4353L162.319 80.2911ZM139.963 86.0339L142.799 90.152L142.8 90.1517L139.963 86.0339ZM131.446 92.7337L134.67 96.5548L131.446 92.7337ZM114.534 101.362L114.923 96.3769C112.468 96.1851 110.239 97.81 109.669 100.206C109.1 102.603 110.361 105.056 112.64 105.989L114.534 101.362ZM67.3686 88.4149L64.3481 92.3994L64.3481 92.3995L67.3686 88.4149ZM46.7732 80.2911L45.5809 75.4353C43.015 76.0654 41.3822 78.5829 41.8533 81.1827C42.3244 83.7824 44.7369 85.5669 47.3607 85.2565L46.7732 80.2911ZM73.277 93.1327L70.1051 96.9978H70.1051L73.277 93.1327ZM94.5577 101.362L96.4515 105.989C98.7309 105.056 99.9915 102.603 99.4224 100.206C98.8532 97.81 96.6238 96.1851 94.1684 96.3769L94.5577 101.362ZM77.6458 92.7331L80.8706 88.912V88.912L77.6458 92.7331ZM69.1291 86.0339L66.293 90.1517L66.2932 90.1519L69.1291 86.0339ZM169.873 73.9437L167.338 69.634C165.521 70.7028 164.569 72.7965 164.959 74.8682C165.349 76.9399 166.996 78.5447 169.077 78.8801L169.873 73.9437ZM187.444 45.0952L182.445 44.9804V44.9804L187.444 45.0952ZM171.184 74.1956L172.176 69.2951L172.176 69.2951L171.184 74.1956ZM186.27 73.1358L191.146 74.244C191.622 72.1485 190.706 69.9831 188.871 68.8653C187.035 67.7476 184.691 67.9277 183.048 69.3126L186.27 73.1358ZM156.476 96.6484L156.388 91.6492C154.75 91.6777 153.23 92.5069 152.319 93.8687C151.409 95.2304 151.223 96.9519 151.822 98.4767L156.476 96.6484ZM156.555 119.919L151.839 118.256L151.839 118.257L156.555 119.919ZM145.736 129.726L148.458 133.921H148.458L145.736 129.726ZM131.224 143.827L128.699 148.142C129.986 148.896 131.543 149.035 132.944 148.522C134.345 148.008 135.444 146.896 135.94 145.489L131.224 143.827ZM121.388 140.407L116.4 140.065C116.225 142.608 117.993 144.876 120.502 145.328L121.388 140.407ZM127.65 115.295L132.176 117.42L132.177 117.418L127.65 115.295ZM130.259 110.394L130.561 105.403C128.701 105.291 126.933 106.221 125.974 107.818L130.259 110.394ZM145.117 93.0977L150.023 92.1335C149.724 90.6094 148.733 89.311 147.342 88.6199C145.951 87.9288 144.318 87.9234 142.922 88.6053L145.117 93.0977ZM118.899 142.491L113.903 142.294C113.796 145 115.864 147.299 118.566 147.48L118.899 142.491ZM133.699 149.163L129.496 151.872L133.699 149.163ZM131.856 163.552L136.137 166.135L136.137 166.135L131.856 163.552ZM122.915 170.388L119.871 174.355C120.603 174.917 121.477 175.265 122.395 175.361L122.915 170.388ZM111.443 164.946L106.848 162.974C106.265 164.333 106.313 165.88 106.979 167.2C107.645 168.519 108.862 169.477 110.301 169.814L111.443 164.946ZM114.815 159.52L118.439 162.965C118.466 162.937 118.492 162.908 118.519 162.88L114.815 159.52ZM125.718 160.428L120.9 161.764C121.416 163.626 122.959 165.023 124.863 165.354C126.766 165.685 128.69 164.889 129.804 163.31L125.718 160.428ZM124.919 151.697L127.821 147.626L127.821 147.625L124.919 151.697ZM109.617 164.576L108.781 169.505C111.184 169.913 113.53 168.529 114.335 166.229L109.617 164.576ZM104.556 164.144L100.025 166.259C100.847 168.019 102.614 169.144 104.556 169.144V164.144ZM104.546 164.122L109.077 162.008C108.255 160.247 106.488 159.122 104.545 159.122C102.602 159.123 100.836 160.248 100.015 162.009L104.546 164.122ZM104.536 164.144V169.144C106.479 169.144 108.246 168.019 109.067 166.258L104.536 164.144ZM99.4759 164.576L94.7571 166.229C95.5628 168.529 97.9088 169.913 100.311 169.505L99.4759 164.576ZM84.1735 151.697L81.2714 147.626H81.2714L84.1735 151.697ZM83.3743 160.428L79.2886 163.31C80.4025 164.889 82.3265 165.685 84.2302 165.354C86.134 165.023 87.6767 163.625 88.1927 161.763L83.3743 160.428ZM94.2772 159.52L90.5743 162.88C90.6 162.908 90.626 162.936 90.6523 162.964L94.2772 159.52ZM97.65 164.946L98.7915 169.814C100.231 169.477 101.448 168.519 102.114 167.199C102.78 165.879 102.828 164.331 102.244 162.972L97.65 164.946ZM86.1774 170.388L86.6978 175.361C87.6158 175.265 88.4894 174.917 89.2217 174.355L86.1774 170.388ZM77.2362 163.552L81.5176 160.969L81.5173 160.969L77.2362 163.552ZM90.1932 142.491L90.5266 147.48C93.2288 147.299 95.296 145 95.1893 142.294L90.1932 142.491ZM63.9755 93.0977L66.1706 88.6053C64.7756 87.9237 63.1431 87.9288 61.7524 88.6191C60.3618 89.3094 59.3706 90.6065 59.0701 92.1297L63.9755 93.0977ZM78.8332 110.394L83.1198 107.82C82.1604 106.222 80.3922 105.291 78.532 105.403L78.8332 110.394ZM81.4423 115.295L76.9159 117.419L76.916 117.419L81.4423 115.295ZM87.7047 140.407L88.5906 145.328C91.1002 144.876 92.8677 142.608 92.6929 140.064L87.7047 140.407ZM77.8676 143.827L73.1518 145.489C73.6476 146.896 74.746 148.008 76.147 148.522C77.5479 149.035 79.105 148.896 80.3928 148.142L77.8676 143.827ZM63.3554 129.726L60.6342 133.921L63.3554 129.726ZM52.5371 119.919L47.8215 121.582L47.8217 121.582L52.5371 119.919ZM52.617 96.6484L57.2703 98.4779C57.8698 96.9531 57.6842 95.2312 56.7734 93.8692C55.8626 92.5071 54.3424 91.6777 52.7041 91.6492L52.617 96.6484ZM22.8217 73.1358L26.0436 69.3123C24.4004 67.9276 22.0561 67.7477 20.2208 68.8655C18.3855 69.9833 17.4697 72.1488 17.9461 74.2443L22.8217 73.1358ZM37.908 74.1957L36.9155 69.2952L36.9154 69.2952L37.908 74.1957ZM39.2197 73.9437L40.015 78.8801C42.0963 78.5448 43.7437 76.9401 44.1335 74.8683C44.5233 72.7966 43.5718 70.7029 41.7547 69.634L39.2197 73.9437ZM21.6483 45.0952L26.6469 44.9804L26.6469 44.9804L21.6483 45.0952ZM51.3629 15.209L53.5899 19.6857C55.6455 18.6631 56.7405 16.3721 56.2452 14.1303C55.7498 11.8885 53.7914 10.2721 51.4964 10.2108L51.3629 15.209ZM41.1727 28.6506L46.0686 29.6656L46.0687 29.6654L41.1727 28.6506ZM54.2416 51.0959L55.6552 46.2999L55.6549 46.2998L54.2416 51.0959ZM65.2412 52.1713L68.9141 55.5639C70.2848 54.08 70.6279 51.917 69.7837 50.0818C68.9395 48.2465 67.0739 47.0996 65.0551 47.1747L65.2412 52.1713ZM60.1588 66.0045L55.19 65.447C54.9116 67.9286 56.5068 70.2351 58.9269 70.8504C61.3471 71.4656 63.8502 70.2009 64.7906 67.8876L60.1588 66.0045ZM71.5551 51.7796L70.9483 46.8166C70.9025 46.8222 70.8567 46.8284 70.8111 46.8353L71.5551 51.7796ZM82.0839 50.9041L81.8931 45.9078L81.8928 45.9078L82.0839 50.9041ZM104.546 54.149L100.894 57.5641C101.839 58.5751 103.161 59.1489 104.546 59.149C105.93 59.1491 107.252 58.5754 108.197 57.5645L104.546 54.149ZM127.008 50.9041L127.199 45.9078L127.199 45.9078L127.008 50.9041ZM137.537 51.7796L138.281 46.8353C138.236 46.8284 138.19 46.8222 138.144 46.8166L137.537 51.7796ZM148.934 66.0045L144.302 67.8876C145.242 70.2009 147.745 71.4656 150.166 70.8504C152.586 70.2351 154.181 67.9286 153.903 65.447L148.934 66.0045ZM143.851 52.1713L144.037 47.1747C142.019 47.0996 140.153 48.2465 139.309 50.0818C138.465 51.917 138.808 54.08 140.178 55.5639L143.851 52.1713ZM154.851 51.0959L156.264 55.892V55.892L154.851 51.0959ZM167.92 28.6506L172.816 27.6356L172.816 27.6354L167.92 28.6506ZM157.73 15.209L157.596 10.2108C155.301 10.2721 153.343 11.8885 152.847 14.1303C152.352 16.3721 153.447 18.6631 155.503 19.6857L157.73 15.209ZM121.256 172.199L126.046 173.634C126.646 171.63 125.936 169.465 124.266 168.206L121.256 172.199ZM114.595 176.461L114.483 171.463L114.482 171.463L114.595 176.461ZM107.905 176.009L107.305 180.973L107.305 180.973L107.905 176.009ZM104.557 175.711L104.593 170.711C104.581 170.711 104.569 170.711 104.557 170.711V175.711ZM104.537 175.711V170.711C104.525 170.711 104.513 170.711 104.501 170.711L104.537 175.711ZM101.189 176.009L101.789 180.973H101.789L101.189 176.009ZM94.4991 176.461L94.6121 171.463L94.6114 171.463L94.4991 176.461ZM87.8379 172.199L84.8282 168.206C83.1577 169.466 82.4476 171.632 83.0486 173.636L87.8379 172.199ZM138.703 84.4304C136.523 86.0833 134.496 87.7476 132.644 89.267L138.988 96.9973C140.858 95.4624 142.741 93.9181 144.744 92.3995L138.703 84.4304ZM162.907 75.3257C159.63 74.938 155.523 75.8189 151.578 77.2897C147.475 78.8194 142.953 81.2088 138.703 84.4304L144.744 92.3994C148.201 89.7793 151.861 87.8565 155.072 86.6596C158.44 85.4037 160.778 85.1436 161.732 85.2565L162.907 75.3257ZM142.8 90.1517C147.249 87.087 150.448 85.5765 153.12 84.9292C155.674 84.3104 158.082 84.3991 161.127 85.1469L163.512 75.4353C159.304 74.4022 155.229 74.1291 150.765 75.2103C146.42 76.263 142.066 78.5143 137.127 81.9161L142.8 90.1517ZM134.67 96.5548C137.286 94.3477 139.885 92.1589 142.799 90.152L137.128 81.9159C133.75 84.2418 130.794 86.7413 128.221 88.9126L134.67 96.5548ZM114.145 106.347C118.541 106.69 122.325 105.322 125.613 103.398C128.786 101.54 131.828 98.954 134.67 96.5548L128.221 88.9126C125.2 91.4623 122.846 93.4298 120.56 94.7679C118.388 96.0396 116.648 96.5116 114.923 96.3769L114.145 106.347ZM132.644 89.267C128.654 92.5419 125.704 94.9245 122.932 96.2635C120.471 97.4529 118.575 97.6128 116.428 96.7342L112.64 105.989C118.002 108.184 122.903 107.384 127.283 105.268C131.353 103.301 135.289 100.032 138.988 96.9973L132.644 89.267ZM70.3891 84.4304C66.1394 81.2088 61.6175 78.8194 57.5144 77.2897C53.5695 75.8189 49.4629 74.938 46.1856 75.3257L47.3607 85.2565C48.3143 85.1436 50.6524 85.4037 54.021 86.6596C57.2314 87.8565 60.8918 89.7793 64.3481 92.3994L70.3891 84.4304ZM76.4489 89.2676C74.5973 87.748 72.5699 86.0835 70.3891 84.4304L64.3481 92.3995C66.3517 93.9183 68.2346 95.4628 70.1051 96.9978L76.4489 89.2676ZM92.6639 96.7342C90.5171 97.6128 88.6215 97.4529 86.1601 96.2637C83.3889 94.9247 80.4394 92.5423 76.4489 89.2676L70.1051 96.9978C73.8034 100.033 77.7399 103.301 81.8096 105.268C86.1892 107.384 91.0896 108.184 96.4515 105.989L92.6639 96.7342ZM74.4211 96.5542C77.2641 98.9535 80.3054 101.539 83.4792 103.397C86.7666 105.322 90.5505 106.69 94.947 106.347L94.1684 96.3769C92.4437 96.5116 90.7039 96.0396 88.5318 94.7678C86.246 93.4295 83.892 91.4619 80.8706 88.912L74.4211 96.5542ZM66.2932 90.1519C69.2071 92.1586 71.806 94.3473 74.4211 96.5542L80.8706 88.912C78.2979 86.7409 75.342 84.2416 71.965 81.916L66.2932 90.1519ZM47.9655 85.1469C51.0107 84.3991 53.4186 84.3104 55.9729 84.9292C58.6449 85.5765 61.8433 87.087 66.293 90.1517L71.9652 81.9161C67.0262 78.5143 62.6729 76.263 58.3273 75.2103C53.8639 74.1291 49.7882 74.4022 45.5809 75.4353L47.9655 85.1469ZM172.408 78.2535C180.004 73.7855 192.023 63.4524 192.442 45.2099L182.445 44.9804C182.139 58.3221 173.448 66.04 167.338 69.634L172.408 78.2535ZM172.176 69.2951C171.684 69.1954 171.122 69.0805 170.668 69.0074L169.077 78.8801C169.286 78.9136 169.615 78.9793 170.191 79.096L172.176 69.2951ZM183.048 69.3126C182.511 69.7652 181.19 70.2351 178.697 70.183C176.373 70.1344 173.999 69.6644 172.176 69.2951L170.191 79.096C171.947 79.4517 175.147 80.1109 178.488 80.1808C181.659 80.2471 186.092 79.8247 189.492 76.959L183.048 69.3126ZM156.563 101.648C164.538 101.509 172.316 98.2262 178.441 93.3702C184.556 88.5227 189.433 81.779 191.146 74.244L181.394 72.0276C180.29 76.8857 176.962 81.7818 172.229 85.534C167.507 89.2777 161.795 91.555 156.388 91.6492L156.563 101.648ZM161.27 121.582C162.997 116.686 163.177 110.693 162.918 105.966C162.784 103.529 162.524 101.265 162.225 99.4147C161.949 97.7017 161.583 95.9745 161.129 94.8201L151.822 98.4767C151.808 98.4425 151.879 98.6328 151.999 99.155C152.109 99.6291 152.231 100.254 152.353 101.008C152.596 102.515 152.818 104.43 152.933 106.513C153.169 110.826 152.904 115.237 151.839 118.256L161.27 121.582ZM148.458 133.921C150.875 132.353 153.529 130.639 155.724 128.818C157.871 127.035 160.178 124.678 161.27 121.582L151.839 118.257C151.656 118.776 151.038 119.711 149.338 121.123C147.684 122.495 145.567 123.876 143.015 125.532L148.458 133.921ZM135.94 145.489C136.608 143.593 138.058 141.707 140.354 139.704C142.662 137.692 145.444 135.876 148.458 133.921L143.015 125.532C140.122 127.409 136.719 129.606 133.782 132.167C130.834 134.738 127.981 137.986 126.508 142.165L135.94 145.489ZM120.502 145.328C122.857 145.752 126.15 146.651 128.699 148.142L133.75 139.512C129.763 137.179 125.173 136.008 122.274 135.486L120.502 145.328ZM123.124 113.171C119.381 121.145 117.049 130.6 116.4 140.065L126.376 140.749C126.95 132.387 129.013 124.16 132.176 117.42L123.124 113.171ZM125.974 107.818C124.957 109.51 124.005 111.292 123.123 113.173L132.177 117.418C132.915 115.845 133.706 114.365 134.545 112.969L125.974 107.818ZM131.093 105.427C130.988 105.427 130.861 105.421 130.561 105.403L129.958 115.385C130.211 115.4 130.638 115.427 131.093 115.427V105.427ZM140.393 95.9437C140.393 101.242 136.17 105.427 131.093 105.427V115.427C141.813 115.427 150.393 106.643 150.393 95.9437H140.393ZM140.211 94.0619C140.33 94.6678 140.393 95.296 140.393 95.9437H150.393C150.393 94.6427 150.266 93.3687 150.023 92.1335L140.211 94.0619ZM123.895 142.688C124.59 125.088 131.764 105.187 147.312 97.5901L142.922 88.6053C122.359 98.6524 114.648 123.42 113.903 142.294L123.895 142.688ZM137.902 146.454C135.592 142.871 131.445 140.788 128.303 139.607C124.97 138.355 121.489 137.653 119.233 137.502L118.566 147.48C119.756 147.559 122.278 148.026 124.785 148.968C127.483 149.982 129.012 151.12 129.496 151.872L137.902 146.454ZM136.137 166.135C137.383 164.071 138.796 161.034 139.49 157.733C140.165 154.523 140.325 150.215 137.902 146.454L129.496 151.872C129.866 152.446 130.134 153.628 129.704 155.676C129.292 157.634 128.387 159.624 127.575 160.969L136.137 166.135ZM123.264 175.411C126.084 175.411 128.722 173.88 130.557 172.458C132.597 170.877 134.591 168.699 136.137 166.135L127.575 160.969C126.669 162.471 125.504 163.722 124.431 164.554C123.898 164.967 123.459 165.221 123.164 165.354C122.823 165.508 122.88 165.411 123.264 165.411V175.411ZM122.395 175.361C122.588 175.381 122.92 175.411 123.264 175.411V165.411C123.325 165.411 123.369 165.412 123.39 165.413C123.413 165.414 123.428 165.415 123.433 165.415C123.442 165.416 123.441 165.416 123.435 165.415L122.395 175.361ZM110.301 169.814C113.825 170.641 117.072 172.207 119.871 174.355L125.959 166.422C122.058 163.427 117.519 161.236 112.584 160.078L110.301 169.814ZM111.191 156.076C108.987 158.394 107.56 161.315 106.848 162.974L116.037 166.918C116.598 165.611 117.465 163.99 118.439 162.965L111.191 156.076ZM130.536 159.092C129.343 154.786 125.988 151.848 121.703 151.483C117.718 151.144 113.899 153.089 111.112 156.161L118.519 162.88C119.786 161.483 120.741 161.437 120.855 161.447C120.89 161.45 120.82 161.445 120.747 161.381C120.678 161.322 120.792 161.373 120.9 161.764L130.536 159.092ZM122.017 155.769C121.598 155.471 121.523 155.17 121.562 155.283C121.605 155.408 121.673 155.722 121.671 156.226C121.67 156.712 121.604 157.199 121.515 157.576C121.471 157.761 121.432 157.871 121.418 157.907C121.391 157.975 121.443 157.814 121.633 157.546L129.804 163.31C130.592 162.193 131.01 160.866 131.242 159.896C131.504 158.797 131.668 157.539 131.671 156.251C131.677 154.067 131.199 150.033 127.821 147.626L122.017 155.769ZM114.335 166.229C116.445 160.208 118.989 157.594 120.611 156.586C122.386 155.483 122.756 156.295 122.017 155.769L127.821 147.625C124.251 145.081 119.324 145.612 115.333 148.093C111.189 150.668 107.497 155.503 104.898 162.923L114.335 166.229ZM104.556 169.144C105.985 169.144 107.395 169.271 108.781 169.505L110.452 159.646C108.546 159.323 106.577 159.144 104.556 159.144V169.144ZM100.015 166.237L100.025 166.259L109.087 162.029L109.077 162.008L100.015 166.237ZM109.067 166.258L109.077 166.236L100.015 162.009L100.004 162.031L109.067 166.258ZM100.311 169.505C101.698 169.271 103.107 169.144 104.536 169.144V159.144C102.515 159.144 100.547 159.323 98.6405 159.646L100.311 169.505ZM87.0756 155.769C86.3365 156.296 86.7058 155.483 88.4812 156.586C90.1036 157.595 92.6477 160.208 94.7571 166.229L104.195 162.923C101.595 155.503 97.9034 150.668 93.7595 148.093C89.7687 145.613 84.8413 145.081 81.2714 147.626L87.0756 155.769ZM87.4599 157.546C87.6494 157.814 87.7013 157.975 87.6748 157.907C87.6604 157.871 87.6219 157.761 87.5779 157.576C87.4881 157.199 87.4223 156.712 87.4211 156.226C87.4198 155.722 87.488 155.408 87.5309 155.283C87.57 155.17 87.4941 155.471 87.0757 155.769L81.2714 147.626C77.8938 150.033 77.4157 154.067 77.4211 156.251C77.4244 157.539 77.5885 158.797 77.8508 159.896C78.0821 160.866 78.5006 162.193 79.2886 163.31L87.4599 157.546ZM97.9802 156.16C95.1931 153.089 91.3741 151.144 87.3887 151.483C83.1033 151.848 79.7492 154.786 78.5558 159.093L88.1927 161.763C88.301 161.372 88.4143 161.322 88.3452 161.381C88.2719 161.445 88.202 161.45 88.2373 161.447C88.3511 161.437 89.3064 161.483 90.5743 162.88L97.9802 156.16ZM102.244 162.972C101.532 161.315 100.105 158.395 97.9022 156.076L90.6523 162.964C91.6266 163.99 92.4938 165.612 93.0561 166.92L102.244 162.972ZM89.2217 174.355C92.0206 172.207 95.2674 170.641 98.7915 169.814L96.5085 160.078C91.5738 161.236 87.0347 163.427 83.1331 166.422L89.2217 174.355ZM85.8279 175.411C86.172 175.411 86.504 175.381 86.6978 175.361L85.657 165.415C85.6517 165.416 85.6507 165.416 85.66 165.415C85.6654 165.415 85.68 165.414 85.703 165.413C85.7238 165.412 85.7674 165.411 85.8279 165.411V175.411ZM72.9548 166.135C74.5014 168.699 76.4948 170.877 78.5355 172.458C80.3704 173.88 83.008 175.411 85.8279 175.411V165.411C86.2126 165.411 86.2691 165.508 85.9282 165.354C85.633 165.221 85.1944 164.967 84.661 164.554C83.5879 163.722 82.4232 162.471 81.5176 160.969L72.9548 166.135ZM71.1908 146.454C68.7672 150.215 68.928 154.523 69.6029 157.733C70.2967 161.034 71.7095 164.071 72.9551 166.135L81.5173 160.969C80.7059 159.624 79.8006 157.634 79.389 155.676C78.9584 153.628 79.2263 152.446 79.5964 151.872L71.1908 146.454ZM89.8597 137.502C87.6034 137.653 84.1224 138.355 80.7897 139.607C77.6478 140.788 73.5002 142.871 71.1908 146.454L79.5964 151.872C80.0807 151.12 81.6098 149.982 84.3077 148.968C86.8149 148.026 89.3368 147.559 90.5266 147.48L89.8597 137.502ZM61.7805 97.5901C77.3286 105.187 84.5029 125.088 85.1971 142.688L95.1893 142.294C94.4449 123.42 86.7331 98.6524 66.1706 88.6053L61.7805 97.5901ZM68.6994 95.9437C68.6994 95.2934 68.7624 94.6665 68.8809 94.0656L59.0701 92.1297C58.8254 93.3699 58.6994 94.6452 58.6994 95.9437H68.6994ZM77.9991 105.427C72.9228 105.427 68.6994 101.242 68.6994 95.9437H58.6994C58.6994 106.643 67.2797 115.427 77.9991 115.427V105.427ZM78.532 105.403C78.2313 105.421 78.1041 105.427 77.9991 105.427V115.427C78.455 115.427 78.8815 115.4 79.1344 115.385L78.532 105.403ZM85.9687 113.171C85.0868 111.292 84.135 109.511 83.1198 107.82L74.5466 112.968C75.3856 114.365 76.1776 115.846 76.9159 117.419L85.9687 113.171ZM92.6929 140.064C92.0425 130.599 89.7109 121.145 85.9687 113.171L76.916 117.419C80.0791 124.16 82.1418 132.387 82.7164 140.75L92.6929 140.064ZM80.3928 148.142C82.942 146.651 86.2356 145.752 88.5906 145.328L86.8187 135.486C83.9191 136.008 79.3294 137.179 75.3424 139.512L80.3928 148.142ZM60.6342 133.921C63.6476 135.876 66.4304 137.691 68.7376 139.704C71.0342 141.707 72.4837 143.593 73.1518 145.489L82.5834 142.165C81.111 137.986 78.2579 134.738 75.3104 132.167C72.3734 129.606 68.9703 127.409 66.0766 125.531L60.6342 133.921ZM47.8217 121.582C48.9136 124.678 51.2206 127.035 53.3681 128.817C55.563 130.639 58.2171 132.353 60.6342 133.921L66.0766 125.531C63.5251 123.876 61.4076 122.494 59.7544 121.122C58.0537 119.711 57.4358 118.776 57.2524 118.256L47.8217 121.582ZM47.9637 94.8189C47.5096 95.9739 47.1435 97.7017 46.867 99.4146C46.5684 101.265 46.3081 103.529 46.1745 105.966C45.9155 110.693 46.0954 116.685 47.8215 121.582L57.2526 118.257C56.188 115.237 55.9232 110.826 56.1595 106.513C56.2737 104.43 56.496 102.515 56.7393 101.008C56.8609 100.254 56.9835 99.6294 57.0928 99.1554C57.2133 98.6333 57.2839 98.4432 57.2703 98.4779L47.9637 94.8189ZM17.9461 74.2443C19.6592 81.7792 24.5367 88.5227 30.6512 93.3702C36.7766 98.2262 44.554 101.509 52.5299 101.648L52.7041 91.6492C47.2972 91.555 41.5858 89.2777 36.8636 85.534C32.1306 81.7818 28.8018 76.8856 27.6973 72.0273L17.9461 74.2443ZM36.9154 69.2952C35.0921 69.6645 32.7183 70.1344 30.3948 70.183C27.9017 70.2351 26.581 69.7652 26.0436 69.3123L19.5997 76.9593C22.9999 79.8245 27.4327 80.247 30.6036 80.1808C33.944 80.111 37.1447 79.4519 38.9006 79.0962L36.9154 69.2952ZM38.4244 69.0074C37.9705 69.0805 37.4082 69.1954 36.9155 69.2952L38.9006 79.0962C39.4774 78.9794 39.8065 78.9137 40.015 78.8801L38.4244 69.0074ZM16.6496 45.2099C17.0684 63.4525 29.089 73.7856 36.6847 78.2535L41.7547 69.634C35.6444 66.0399 26.9532 58.3219 26.6469 44.9804L16.6496 45.2099ZM51.4964 10.2108C34.8499 9.7663 16.1165 22.003 16.6496 45.21L26.6469 44.9804C26.2703 28.5833 39.1429 19.8845 51.2295 20.2073L51.4964 10.2108ZM46.0687 29.6654C47.3008 23.7209 51.7631 20.5945 53.5899 19.6857L49.1359 10.7324C45.7982 12.3928 38.3666 17.5537 36.2768 27.6358L46.0687 29.6654ZM55.6549 46.2998C48.0526 44.0596 44.538 37.0489 46.0686 29.6656L36.2768 27.6356C33.8303 39.4368 39.5954 51.9927 52.8283 55.892L55.6549 46.2998ZM65.0551 47.1747C61.1307 47.3209 58.444 47.1219 55.6552 46.2999L52.828 55.8919C57.0695 57.1421 60.9612 57.3341 65.4272 57.1678L65.0551 47.1747ZM65.1276 66.5619C65.7193 61.2884 67.3827 57.2218 68.9141 55.5639L61.5683 48.7786C57.9105 52.7386 55.8757 59.3352 55.19 65.447L65.1276 66.5619ZM70.8111 46.8353C68.6036 47.1675 66.7565 48.324 65.3869 49.4395C63.9558 50.6052 62.6364 52.0633 61.4652 53.5921C59.1217 56.6513 57.0138 60.4644 55.527 64.1214L64.7906 67.8876C65.9864 64.9465 67.6719 61.9339 69.4036 59.6734C70.27 58.5425 71.0586 57.7173 71.7023 57.193C72.4074 56.6186 72.6019 56.6784 72.2992 56.724L70.8111 46.8353ZM81.8928 45.9078C77.0702 46.0922 74.6763 46.3608 70.9483 46.8166L72.1619 56.7427C75.7316 56.3062 77.8279 56.0706 82.275 55.9005L81.8928 45.9078ZM108.198 50.7339C105.251 47.5826 100.622 46.5541 96.6219 46.1115C92.3297 45.6365 87.1952 45.7053 81.8931 45.9078L82.2747 55.9005C87.5515 55.699 92.0346 55.6649 95.5221 56.0508C99.3012 56.469 100.614 57.2649 100.894 57.5641L108.198 50.7339ZM127.199 45.9078C121.897 45.7053 116.763 45.6365 112.47 46.1115C108.47 46.5541 103.841 47.5826 100.894 50.7335L108.197 57.5645C108.478 57.2649 109.791 56.4689 113.57 56.0508C117.058 55.6649 121.541 55.699 126.817 55.9005L127.199 45.9078ZM138.144 46.8166C134.416 46.3608 132.022 46.0922 127.199 45.9078L126.817 55.9005C131.265 56.0706 133.361 56.3062 136.931 56.7427L138.144 46.8166ZM153.566 64.1214C152.079 60.4644 149.971 56.6513 147.627 53.5921C146.456 52.0633 145.137 50.6052 143.706 49.4395C142.336 48.324 140.489 47.1675 138.281 46.8353L136.793 56.724C136.491 56.6784 136.685 56.6186 137.39 57.193C138.034 57.7173 138.823 58.5425 139.689 59.6734C141.421 61.9339 143.106 64.9465 144.302 67.8876L153.566 64.1214ZM140.178 55.5639C141.71 57.2218 143.373 61.2884 143.965 66.5619L153.903 65.447C153.217 59.3352 151.182 52.7386 147.524 48.7786L140.178 55.5639ZM153.438 46.2999C150.648 47.122 147.962 47.3209 144.037 47.1747L143.665 57.1678C148.131 57.3341 152.022 57.1421 156.264 55.892L153.438 46.2999ZM163.024 29.6656C164.555 37.0487 161.039 44.0596 153.438 46.2999L156.264 55.892C169.496 51.9927 175.262 39.437 172.816 27.6356L163.024 29.6656ZM155.503 19.6857C157.329 20.5943 161.791 23.7207 163.024 29.6659L172.816 27.6354C170.725 17.5538 163.295 12.393 159.957 10.7324L155.503 19.6857ZM192.442 45.21C192.975 22.0031 174.242 9.7663 157.596 10.2108L157.863 20.2073C169.949 19.8845 182.821 28.5832 182.445 44.9804L192.442 45.21ZM104.557 161.604H104.537V171.604H104.557V161.604ZM124.266 168.206C118.771 164.065 111.945 161.604 104.557 161.604V171.604C109.687 171.604 114.416 173.305 118.246 176.192L124.266 168.206ZM114.708 181.46C120.951 181.32 124.886 177.507 126.046 173.634L116.466 170.765C116.504 170.638 116.481 170.796 116.222 170.993C116.021 171.146 115.525 171.439 114.483 171.463L114.708 181.46ZM107.305 180.973C109.208 181.203 111.819 181.525 114.708 181.46L114.482 171.463C112.401 171.51 110.456 171.281 108.504 171.046L107.305 180.973ZM104.521 180.711C105.108 180.715 105.922 180.806 107.305 180.973L108.504 171.046C107.316 170.902 105.87 170.72 104.593 170.711L104.521 180.711ZM104.537 180.711H104.557V170.711H104.537V180.711ZM101.789 180.973C103.172 180.806 103.986 180.715 104.573 180.711L104.501 170.711C103.224 170.72 101.778 170.902 100.589 171.046L101.789 180.973ZM94.386 181.46C97.2759 181.525 99.886 181.203 101.789 180.973L100.59 171.046C98.6382 171.281 96.6931 171.51 94.6121 171.463L94.386 181.46ZM83.0486 173.636C84.2097 177.507 88.1428 181.32 94.3868 181.46L94.6114 171.463C93.569 171.439 93.0737 171.146 92.8726 170.993C92.6134 170.796 92.5896 170.638 92.6271 170.763L83.0486 173.636ZM104.537 161.604C97.15 161.604 90.3231 164.065 84.8282 168.206L90.8475 176.192C94.6775 173.305 99.4074 171.604 104.537 171.604V161.604Z" fill="white" mask="url(#path-1-outside-1_15016_302112)"/>
</svg>
