<svg width="201" height="201" viewBox="0 0 201 201" fill="none" xmlns="http://www.w3.org/2000/svg">
<path d="M178.094 34.1567C172.065 31.3652 170.932 30.1819 170.932 26.6946C170.932 19.4074 164.503 14.5077 158.516 14.5077C146.829 14.5077 139.009 19.5074 133.842 22.8197C132.88 23.4447 131.83 24.1114 130.959 24.6072C128.701 23.5697 125.58 22.6323 121.718 22.6323C112.073 22.6323 106.552 26.0113 102.898 28.2445C101.956 28.8195 100.536 29.6944 100.152 29.6944C99.7856 29.6944 98.3607 28.8195 97.4233 28.2445C93.7651 26.0113 88.2529 22.6323 78.595 22.6323C74.7285 22.6323 71.612 23.5697 69.3538 24.6072C68.4747 24.1114 67.4331 23.4447 66.4664 22.8197C61.2959 19.5074 53.4921 14.5077 41.801 14.5077C35.8054 14.5077 29.3891 19.4074 29.3891 26.6946C29.3891 30.1819 28.2475 31.3652 22.2186 34.1567C18.1605 36.0316 11.3691 39.1814 11.3691 46.9144C11.3691 52.4016 13.7232 56.0598 15.6023 58.9971C18.0438 62.7886 20.8145 67.1009 20.8145 79.8669V83.4459L23.3852 85.9291C23.5394 86.0708 23.8602 86.3708 24.3352 86.7416C22.5728 92.1122 19.2688 104.291 22.1603 113.178L22.5019 114.244L23.1186 115.182C25.7476 119.203 28.285 127.023 30.1391 132.744C31.814 137.91 32.7889 140.831 34.068 142.856C32.2098 149.984 33.7889 156.138 39.0095 162.159C53.0046 178.32 65.1623 186.508 75.1368 186.508C78.3242 186.508 81.2866 185.533 83.7281 183.708C85.4197 184.449 87.0488 184.824 88.5987 184.824C91.0611 184.824 93.1235 184.099 94.6192 183.358C96.3608 183.862 98.2191 184.116 100.152 184.116C102.094 184.116 103.952 183.862 105.702 183.358C107.185 184.099 109.252 184.824 111.714 184.824C113.277 184.824 114.906 184.449 116.581 183.708C119.022 185.533 122.001 186.508 125.176 186.508C135.134 186.508 147.283 178.32 161.308 162.159C166.524 156.138 168.103 149.984 166.245 142.856C167.532 140.831 168.499 137.91 170.178 132.76C172.015 127.035 174.561 119.211 177.199 115.19L177.811 114.244L178.161 113.178C181.048 104.291 177.744 92.1164 175.961 86.7416C176.444 86.3708 176.778 86.0708 176.915 85.9375L179.494 83.4459V79.8669C179.494 67.1009 182.277 62.7886 184.711 58.9971C186.598 56.0598 188.944 52.4016 188.944 46.9144C188.944 39.1814 182.148 36.0316 178.094 34.1567Z" fill="#7B7979"/>
<path d="M177.165 36.1476C171.307 33.4311 168.728 31.7145 168.728 26.6898C168.728 20.7109 163.436 16.7028 158.512 16.7028C147.47 16.7028 140.275 21.3025 135.029 24.669C133.596 25.5898 132.121 26.5356 130.992 27.0648C128.925 25.9773 125.792 24.8274 121.713 24.8274C112.689 24.8274 107.689 27.8855 104.039 30.1188C101.981 31.3729 101.056 31.8895 100.152 31.8895C99.2519 31.8895 98.327 31.3729 96.2687 30.1188C92.6189 27.8855 87.6275 24.8274 78.5946 24.8274C74.5198 24.8274 71.3866 25.9773 69.3201 27.0648C68.1951 26.5356 66.716 25.5898 65.2786 24.669C60.033 21.3025 52.8459 16.7028 41.8006 16.7028C36.8675 16.7028 31.5802 20.7109 31.5802 26.6898C31.5802 31.7145 29.0054 33.4311 23.139 36.1476C19.0975 38.0184 13.5645 40.5849 13.5645 46.9096C13.5645 51.7511 15.6269 54.9676 17.4518 57.7966C19.9266 61.6589 23.0098 66.4545 23.0098 79.8622V82.5037L24.9139 84.3453C25.1431 84.5619 25.8514 85.2036 26.9471 85.8994C25.7389 89.3159 21.2141 103.194 24.2431 112.502L24.4973 113.281L24.9556 113.981C27.7388 118.239 30.3303 126.231 32.2219 132.064C34.1009 137.851 35.0509 140.651 36.4633 142.438L36.3675 142.772C34.4468 149.413 35.8175 155.125 40.6673 160.725C50.0002 171.491 63.5412 184.324 75.1364 184.324C79.0112 184.324 81.6903 182.728 83.4152 181.107C85.2609 182.111 86.9984 182.615 88.5941 182.615C91.1023 182.615 93.1272 181.728 94.3855 180.97C96.1729 181.607 98.1103 181.916 100.152 181.916C102.206 181.916 104.139 181.607 105.922 180.97C107.181 181.728 109.201 182.615 111.714 182.615C113.31 182.615 115.051 182.111 116.905 181.107C118.613 182.728 121.301 184.324 125.171 184.324C136.754 184.324 150.312 171.491 159.645 160.725C164.503 155.117 165.861 149.413 163.94 142.772L163.845 142.438C165.27 140.655 166.203 137.851 168.082 132.08C169.961 126.239 172.561 118.248 175.348 113.981L175.815 113.281L176.065 112.494C179.094 103.203 174.577 89.3242 173.357 85.8994C174.465 85.2036 175.169 84.5619 175.39 84.3453L177.311 82.512V79.8622C177.311 66.4462 180.385 61.6589 182.86 57.7966C184.685 54.9676 186.752 51.7511 186.752 46.9096C186.752 40.5766 181.21 38.0184 177.165 36.1476Z" fill="white"/>
<path d="M176.557 37.4775C170.778 34.8068 167.265 32.7403 167.265 26.6947C167.265 21.595 162.749 18.1701 158.516 18.1701C147.904 18.1701 140.913 22.6366 135.821 25.9073C133.98 27.0864 132.213 28.2113 130.896 28.6988C129.017 27.5863 125.901 26.2947 121.718 26.2947C113.101 26.2947 108.31 29.2279 104.806 31.3653C102.677 32.6736 101.502 33.3569 100.152 33.3569C98.8188 33.3569 97.6397 32.6736 95.5107 31.3653C92.0067 29.2279 87.2194 26.2947 78.5948 26.2947C74.42 26.2947 71.3077 27.5863 69.4161 28.6988C68.0912 28.2113 66.3329 27.0864 64.4955 25.9073C59.4041 22.6366 52.4211 18.1701 41.8008 18.1701C37.5801 18.1701 33.0512 21.595 33.0512 26.6947C33.0512 32.7403 29.543 34.8068 23.76 37.4775C19.8727 39.2775 15.0312 41.5232 15.0312 46.9146C15.0312 51.3269 16.8895 54.2184 18.6852 57.0141C21.2684 61.0305 24.4766 66.0303 24.4766 79.8671V81.8878L25.9349 83.2878C26.1265 83.4711 27.1348 84.4127 28.7472 85.246L28.5514 85.796C27.9223 87.4751 22.5142 102.458 25.6391 112.049L25.8349 112.649L26.1849 113.178C29.0806 117.599 31.7013 125.694 33.622 131.61C35.7219 138.073 36.5844 140.581 38.101 142.068L37.776 143.185C35.9886 149.385 37.2218 154.501 41.7841 159.767C50.9087 170.296 64.0955 182.862 75.1366 182.862C78.8823 182.862 81.5072 181.154 83.1654 179.266C85.4695 180.712 87.2736 181.154 88.5985 181.154C91.1734 181.154 93.1649 180.079 94.2107 179.346C95.9065 180.046 97.8689 180.454 100.152 180.454C102.452 180.454 104.41 180.046 106.102 179.346C107.143 180.079 109.143 181.154 111.714 181.154C113.051 181.154 114.856 180.712 117.151 179.266C118.814 181.154 121.439 182.862 125.176 182.862C136.192 182.862 149.408 170.296 158.533 159.767C163.103 154.501 164.332 149.376 162.537 143.185L162.22 142.077C163.732 140.581 164.603 138.089 166.695 131.627C168.599 125.711 171.236 117.607 174.132 113.178L174.482 112.649L174.669 112.049C177.794 102.458 172.382 87.4709 171.765 85.796L171.561 85.2502C173.178 84.4127 174.198 83.4794 174.378 83.2961L175.84 81.8878V79.8671C175.84 66.0303 179.048 61.0305 181.627 57.0141C183.431 54.2184 185.29 51.3269 185.29 46.9146C185.29 41.5232 180.448 39.2775 176.557 37.4775Z" fill="#13294B"/>
<path d="M41.8027 22.9275C40.0195 22.9275 37.8062 24.3574 37.8062 26.6973C37.8062 42.1965 19.7871 40.8166 19.7871 46.9163C19.7871 55.1092 29.24 55.7459 29.24 79.8714C29.24 79.8714 31.2965 81.8646 34.1997 81.8646C39.8961 81.8646 46.9391 75.6416 46.9391 57.6858C46.9391 52.7394 38.7962 50.7295 38.7962 43.0565C38.7962 35.4469 47.7091 33.207 47.7091 33.207C47.7091 33.207 44.9025 42.3499 59.6752 50.3595L59.4018 50.9061C59.4018 50.9061 53.1888 49.2329 49.5657 53.256C49.5657 53.256 54.1788 81.8046 33.0031 87.461C33.0031 87.461 27.4667 102.287 30.1699 110.573C35.7163 119.053 39.6361 137.282 41.5227 138.768L47.4291 116.693C47.4291 116.693 49.319 111.923 60.0518 105.333L63.605 95.8739C65.9315 90.9075 74.4544 97.9038 82.6207 90.3375C82.6207 90.3375 82.0274 84.9678 95.7334 84.3512L93.7602 82.4879C91.5036 82.4879 83.4873 81.4513 83.4873 81.4513C83.4873 81.4513 82.7174 91.8241 72.2012 91.8241C65.3515 91.8241 61.1451 86.1611 61.1451 80.5813C61.1451 73.5417 66.4448 70.6918 66.4448 70.6918C66.4448 70.6918 63.735 68.9152 59.8818 68.3419C59.8818 68.3419 54.2088 70.2685 49.5657 81.4513L49.009 81.178C50.4756 71.5784 52.5155 63.4788 56.7786 62.1622C56.7786 62.1622 62.895 62.3322 69.998 63.4788C71.4246 63.6922 71.6779 66.062 71.6779 66.062C71.6779 66.062 77.6943 74.7049 94.2768 78.7381C97.3 79.5514 97.9133 84.4611 97.9133 84.4611H102.4C102.4 84.4611 103.003 79.5514 106.04 78.7381C122.622 74.7049 128.628 66.062 128.628 66.062C128.628 66.062 128.885 63.6922 130.328 63.4788C137.425 62.3322 143.538 62.1622 143.538 62.1622C147.808 63.4788 149.821 71.5784 151.304 81.178L150.757 81.4513C146.104 70.2685 140.425 68.3419 140.425 68.3419C136.575 68.9152 133.865 70.6918 133.865 70.6918C133.865 70.6918 139.161 73.5417 139.161 80.5813C139.161 86.1611 134.965 91.8241 128.108 91.8241C117.599 91.8241 116.819 81.4513 116.819 81.4513C116.819 81.4513 108.809 82.4879 106.546 82.4879L104.573 84.3512C118.282 84.9678 117.692 90.3375 117.692 90.3375C125.859 97.9038 134.378 90.9075 136.715 95.8739L140.255 105.333C150.997 111.923 152.887 116.693 152.887 116.693L158.784 138.768C160.68 137.282 164.6 119.053 170.15 110.573C172.846 102.287 167.307 87.461 167.307 87.461C146.131 81.8046 150.757 53.256 150.757 53.256C147.121 49.2329 140.915 50.9061 140.915 50.9061L140.641 50.3595C155.4 42.3499 152.614 33.207 152.614 33.207C152.614 33.207 161.517 35.4469 161.517 43.0565C161.517 50.7295 153.374 52.7394 153.374 57.6858C153.374 75.6416 160.417 81.8646 166.1 81.8646C169.006 81.8646 171.07 79.8714 171.07 79.8714C171.07 55.7459 180.529 55.1092 180.529 46.9163C180.529 40.8166 162.5 42.1965 162.5 26.6973C162.5 24.3574 160.304 22.9275 158.51 22.9275C143.158 22.9275 136.578 33.7003 129.782 33.7003C129.782 33.7003 126.932 31.0504 121.715 31.0504C109.186 31.0504 106.706 38.1167 100.153 38.1167C93.6135 38.1167 91.1336 31.0504 78.5909 31.0504C73.3745 31.0504 70.538 33.7003 70.538 33.7003C63.745 33.7003 57.1619 22.9275 41.8027 22.9275ZM71.0346 55.2292C77.7309 59.0724 81.5908 56.6692 84.2506 56.6692C87.0405 56.6692 88.2171 67.522 89.557 67.522C89.557 67.522 93.3435 66.992 97.62 68.0419C97.91 68.1019 97.56 68.5719 97.2633 68.6086C92.5402 69.2252 88.0838 71.6151 88.0838 71.6151C84.4673 72.695 85.6372 65.9054 82.1874 60.9656C80.0408 59.0957 73.1878 60.0757 71.0346 55.2292ZM129.275 55.2292C127.125 60.0757 120.279 59.0957 118.129 60.9656C114.679 65.9054 115.849 72.695 112.236 71.6151C112.236 71.6151 107.776 69.2252 103.05 68.6086C102.756 68.5719 102.41 68.1019 102.693 68.0419C106.973 66.992 110.753 67.522 110.753 67.522C112.089 67.522 113.276 56.6692 116.059 56.6692C118.719 56.6692 122.582 59.0724 129.275 55.2292ZM69.7313 73.2384C69.2114 73.205 68.8547 73.3084 68.8547 73.3084C68.8547 73.3084 64.2583 75.1349 64.2583 80.228C64.2583 84.0178 67.1115 88.5243 72.0812 88.5243C78.6876 88.5243 80.2075 83.0479 80.2075 80.6313L79.6675 80.0847C79.6675 83.7478 77.501 85.8844 75.2777 86.791C75.1044 86.861 74.8711 86.5777 75.0177 86.451C75.621 86.0111 76.0277 85.2844 76.0277 84.4745C76.0277 83.1112 74.9177 82.0013 73.5611 82.0013C72.1879 82.0013 71.0879 83.1112 71.0879 84.4745C71.0879 85.6777 71.9479 86.6777 73.0845 86.901C73.2645 86.9377 73.2345 87.311 73.0845 87.311C72.9712 87.321 72.8545 87.331 72.7345 87.331C70.0447 87.331 65.9615 85.4678 65.9615 80.7747C65.9615 75.1683 71.5879 73.9983 71.5879 73.9983C70.9346 73.4417 70.2546 73.2717 69.7313 73.2384ZM130.582 73.2384C130.058 73.2717 129.372 73.4483 128.715 74.005C128.715 74.005 134.351 75.1683 134.351 80.7747C134.351 85.4678 130.272 87.331 127.568 87.331C127.465 87.331 127.349 87.321 127.222 87.311C127.085 87.311 127.045 86.9377 127.222 86.8944C128.365 86.6744 129.222 85.6777 129.222 84.4745C129.222 83.1112 128.118 82.0013 126.762 82.0013C125.402 82.0013 124.282 83.1112 124.282 84.4745C124.282 85.2911 124.689 86.0177 125.295 86.4577C125.439 86.581 125.215 86.861 125.035 86.791C122.815 85.8777 120.635 83.7478 120.635 80.0847L120.096 80.6313C120.096 83.0545 121.635 88.5243 128.245 88.5243C133.215 88.5243 136.058 84.0178 136.058 80.228C136.058 75.1349 131.468 73.3084 131.468 73.3084C131.468 73.3084 131.105 73.205 130.582 73.2384ZM82.1807 94.0173C75.5544 98.2471 69.5047 97.9571 69.5047 97.9571C65.8915 107.43 59.8885 117.896 59.8885 117.896C59.8885 117.896 61.3584 126.192 66.0915 133.099L65.5649 133.529C65.5649 133.529 53.9054 122.049 55.7353 113.416C55.7353 113.416 50.7156 115.876 49.5457 119.603L42.3493 144.502C41.0761 148.898 41.7294 152.444 45.3792 156.651C49.019 160.861 64.1816 178.097 75.1344 178.097C79.3442 178.097 80.6575 174.383 80.6575 174.383C80.6575 174.383 65.8115 159.481 65.8115 152.798C65.8115 144.678 69.0214 140.605 69.0214 138.222C69.0214 136.529 67.3481 135.145 67.3481 132.389C67.3481 129.612 68.0448 124.293 75.2411 119.759C74.5811 111.833 84.4139 103.547 87.8438 105.67C87.8438 105.67 86.7005 109.373 89.0871 112.753C93.3102 112.753 102.55 107 98.1866 100.084C95.7367 99.3771 94.6834 96.1872 93.5902 94.394C93.5902 94.394 91.0703 96.2639 88.5204 96.2639C88.5204 96.2639 89.5304 98.4638 91.4436 98.4638C93.3502 98.4638 94.9768 100.06 89.1904 100.06C82.0907 100.06 82.0307 96.9472 82.1807 94.0173ZM118.129 94.0173C118.266 96.9472 118.229 100.06 111.129 100.06C105.333 100.06 106.96 98.4638 108.859 98.4638C110.783 98.4638 111.799 96.2639 111.799 96.2639C109.243 96.2639 106.716 94.394 106.716 94.394C105.63 96.1839 104.573 99.3771 102.126 100.084C97.7733 107 107 112.746 111.229 112.746C113.619 109.373 112.483 105.67 112.483 105.67C115.899 103.55 125.735 111.833 125.069 119.759C132.282 124.293 132.965 129.612 132.965 132.389C132.965 135.145 131.285 136.525 131.285 138.222C131.285 140.605 134.495 144.678 134.495 152.798C134.495 159.477 119.666 174.383 119.666 174.383C119.666 174.383 120.975 178.097 125.172 178.097C136.125 178.097 151.291 160.861 154.937 156.658C158.59 152.448 159.24 148.895 157.957 144.502L150.777 119.603C149.604 115.873 144.571 113.416 144.571 113.416C146.401 122.049 134.741 133.529 134.741 133.529L134.228 133.092C138.958 126.192 140.425 117.896 140.425 117.896C140.425 117.896 134.428 107.43 130.815 97.9571C130.815 97.9571 124.752 98.2471 118.129 94.0173ZM85.0772 109.113C85.0772 109.113 78.7742 112.33 78.7742 118.416C78.7742 123.179 80.4875 125.299 83.5073 125.299C85.8505 125.299 88.2738 123.206 88.2738 121.033C88.2738 117.21 83.9306 115.876 85.0772 109.113ZM115.246 109.113C116.366 115.876 112.043 117.21 112.043 121.033C112.043 123.206 114.462 125.299 116.799 125.299C119.839 125.299 121.539 123.176 121.539 118.416C121.539 112.33 115.246 109.113 115.246 109.113ZM97.4 118.443C96.81 118.443 95.7067 121.729 95.1801 121.729C94.2401 121.263 92.8969 119.236 92.3536 119.236C91.7636 119.236 90.207 123.899 90.207 123.899C90.207 123.899 93.9301 123.086 100.153 123.086C106.386 123.086 110.109 123.899 110.109 123.899C110.109 123.899 108.553 119.236 107.953 119.236C107.419 119.236 106.076 121.263 105.126 121.729C104.606 121.729 103.496 118.443 102.906 118.443C102.32 118.443 100.97 121.196 100.153 121.196C99.3399 121.196 97.9833 118.443 97.4 118.443ZM76.261 123.443C76.261 123.443 71.9146 127.322 71.9146 130.749C71.9146 134.175 75.1944 137.349 80.7608 137.349C87.4838 137.349 91.2569 129.659 100.153 129.659C109.066 129.659 112.843 137.349 119.556 137.349C125.122 137.349 128.395 134.175 128.395 130.749C128.395 127.322 124.032 123.443 124.032 123.443C124.032 123.443 122.985 128.019 117.249 128.019C111.993 128.019 106.916 124.393 100.153 124.393C93.4035 124.393 88.3138 128.019 83.064 128.019C77.331 128.019 76.261 123.443 76.261 123.443ZM100.147 131.119C92.7802 131.119 85.7272 144.235 73.9245 141.118C73.9245 141.118 70.428 147.091 70.428 152.874C70.428 160.267 83.774 176.403 88.5971 176.403C90.457 176.403 91.7936 175.217 91.7936 175.217C91.7936 175.217 87.2071 168.644 86.5472 165.107L87.0438 164.827C89.787 168.037 91.9102 175.707 100.147 175.707C108.403 175.707 110.523 168.037 113.279 164.827L113.746 165.107C113.096 168.644 108.519 175.217 108.519 175.217C108.519 175.217 109.856 176.403 111.716 176.403C116.539 176.403 129.878 160.267 129.878 152.874C129.878 147.091 126.395 141.118 126.395 141.118C114.579 144.235 107.526 131.119 100.147 131.119Z" fill="white"/>
<path d="M24.1094 50.9124C24.376 51.5223 24.7293 52.189 25.1493 52.8589C28.0325 57.3087 31.9123 63.3751 32.1556 78.3543C32.689 78.651 33.4123 78.9276 34.2122 78.9276C36.7788 78.9276 40.5952 76.7011 42.6285 69.5014C42.7951 68.4748 42.9285 67.5015 43.0218 66.5849C41.8052 71.968 39.0286 73.9446 36.9921 74.1612C36.3088 74.2412 35.6721 74.0679 35.1955 73.8746C34.3555 67.1749 32.8723 62.6918 31.2424 59.4286C28.7525 55.4055 26.3159 52.8256 24.1094 50.9124ZM176.205 50.9124C173.982 52.8256 171.562 55.4055 169.062 59.4286C167.449 62.6918 165.966 67.1749 165.112 73.8746C164.632 74.0679 163.996 74.2412 163.313 74.1612C161.279 73.9446 158.499 71.968 157.286 66.5849C157.383 67.5015 157.513 68.4748 157.683 69.5014C159.716 76.7011 163.539 78.9276 166.099 78.9276C166.896 78.9276 167.622 78.651 168.146 78.3543C168.406 63.3751 172.279 57.3087 175.162 52.8589C175.592 52.189 175.942 51.5223 176.205 50.9124ZM35.3122 89.8438C33.7756 94.4469 31.3257 103.88 32.8756 109.329C35.3755 113.283 37.4721 118.806 39.2553 124.062C39.8653 125.845 40.4319 127.599 40.9685 129.249C40.9885 129.309 41.0052 129.368 41.0285 129.418L44.6217 115.929L44.675 115.766L44.7384 115.616C44.875 115.249 45.8283 113.086 49.1848 109.869C41.4819 113.889 41.7252 116.999 40.9619 118.366C39.6753 115.036 37.1954 109.673 36.1954 107.896C34.8288 105.513 35.3122 89.8438 35.3122 89.8438ZM165.032 89.8438C165.032 89.8438 165.519 105.513 164.153 107.896C163.136 109.673 160.679 115.036 159.389 118.366C158.629 116.999 158.863 113.889 151.146 109.869C154.51 113.086 155.45 115.249 155.613 115.616L155.666 115.766L155.716 115.929L159.316 129.418C159.333 129.368 159.353 129.309 159.369 129.249C159.909 127.599 160.483 125.845 161.086 124.062C162.866 118.806 164.959 113.283 167.469 109.329C169.022 103.88 166.562 94.4469 165.032 89.8438ZM49.8948 126.289L44.4584 145.121C43.3351 149.004 44.0284 151.744 47.0382 155.211C55.2045 164.637 62.7775 171.17 68.7938 174.123C64.3141 169.857 59.3443 164.333 54.0479 157.674C50.2981 152.951 48.9915 148.978 49.2381 143.011L49.8948 126.289ZM150.403 126.289L151.076 143.011C151.316 148.978 150.017 152.951 146.263 157.674C140.96 164.333 135.994 169.857 131.517 174.123C137.527 171.17 145.113 164.637 153.276 155.211C156.286 151.744 156.983 149.004 155.853 145.121L150.403 126.289ZM73.1303 154.197C73.1303 157.347 75.5668 162.1 78.73 166.507C82.4865 171.09 86.0463 173.923 87.6529 174.246C86.353 172.78 85.0197 171.27 82.8098 168.48C81.6032 166.96 80.0733 164.823 79.45 163.967C78.8334 163.107 74.2536 156.491 73.1303 154.197ZM127.171 154.197C126.054 156.491 121.478 163.107 120.861 163.967C120.238 164.823 118.718 166.96 117.495 168.48C115.285 171.27 113.962 172.78 112.658 174.246C114.272 173.923 117.818 171.09 121.578 166.507C124.734 162.1 127.171 157.347 127.171 154.197ZM92.476 167.777C94.4893 170.85 96.4358 172.783 100.159 172.783C103.879 172.783 105.819 170.85 107.835 167.777C107.835 167.777 105.309 169.757 100.232 169.757C95.1525 169.757 92.476 167.777 92.476 167.777Z" fill="#C8C7C7"/>
</svg>
