<svg width="201" height="201" viewBox="0 0 201 201" fill="none" xmlns="http://www.w3.org/2000/svg">
<g clip-path="url(#clip0_15016_302103)">
<ellipse cx="100.863" cy="98.4564" rx="100" ry="66.5892" fill="white"/>
<path d="M100.862 38.9609C49.9611 38.9609 8.69531 65.6795 8.69531 98.6361C8.69531 131.594 49.9611 158.311 100.862 158.311C151.767 158.311 193.032 131.594 193.032 98.6361C193.032 65.6803 151.767 38.9609 100.862 38.9609Z" fill="#003DA5"/>
<path d="M122.286 64.7997C124.5 65.0908 132.103 66.5701 134.659 67.5789L109.103 98.4758L80.1259 64.7368C82.4334 64.1406 89.0318 63.4707 92.0087 63.3025C91.7673 60.8576 90.4434 48.5464 90.4434 48.5464C74.5124 49.0904 48.1303 55.9555 32.1123 70.046C33.25 71.4102 39.0596 78.9104 41.0293 81.2402C43.4965 78.8689 49.0424 75.1091 50.8756 74.2681L86.6387 114.826C86.6387 114.826 86.5767 132.193 86.6075 133.05C83.8626 132.809 76.1804 131.688 74.2928 131.097C73.9345 133.295 71.8646 143.353 71.5055 145.096C93.2966 150.313 117.004 148.706 132.251 144.625C130.708 137.858 129.28 133.644 128.765 130.923C125.781 131.59 117.456 132.894 115.827 133.015L115.85 114.841L149.804 73.4677C149.804 73.4677 156.909 77.2758 160.659 81.0433C162.427 78.8368 166.228 73.3996 168.982 69.8607C156.292 59.6335 140.527 53.098 124.01 50.3317C123.772 53.9588 122.579 62.2984 122.288 64.7989L122.286 64.7997Z" fill="white"/>
</g>
<defs>
<clipPath id="clip0_15016_302103">
<rect width="200" height="200" fill="white" transform="translate(0.863281 0.234375)"/>
</clipPath>
</defs>
</svg>
