<svg width="200" height="200" viewBox="0 0 200 200" fill="none" xmlns="http://www.w3.org/2000/svg">
<path d="M99.21 49.6348L97.4882 50.5881L96.289 51.2496C95.4579 51.7044 94.5076 52.8869 94.1591 54.0982C93.0557 53.8199 92.2691 53.9134 92.1598 53.9345C92.1598 53.9345 90.4123 54.2166 90.0465 54.2739C89.7524 53.7475 87.6934 50.0919 87.6934 50.0919L87.2416 55.237C87.2371 55.2544 87.2281 55.3713 87.2281 55.3713C87.2039 56.0621 87.4272 57.2952 89.2614 61.1039L89.3262 61.2381C89.3534 61.3015 89.3964 61.3498 89.4303 61.4063C89.0087 61.5708 88.2734 61.8551 87.9913 61.926C87.7304 61.8785 86.9807 61.6371 86.2325 61.3106L84.3749 60.5043L84.9496 62.4449C85.1276 63.0309 85.7129 64.7565 86.673 65.6012C85.7612 65.9149 84.2679 66.3048 83.8274 66.3229C83.6245 66.2566 83.0702 65.936 82.5928 65.5439L79.5209 63.0399L79.9885 66.9746C80.1077 68.0056 80.9056 69.9687 83.1275 70.7765C83.3666 70.8647 83.6275 70.9213 83.89 70.9778C83.442 71.508 83.0136 72.0269 82.6395 72.4817C82.6418 72.4772 82.2926 72.8935 82.2066 73.0036C81.8642 73.2864 80.0474 74.0565 79.4372 74.1734C79.1687 74.2262 78.5616 74.1696 78.2516 74.1168C78.2516 74.1168 77.4228 73.9516 76.8435 73.84C76.8481 73.8189 76.8888 73.6696 76.8888 73.6696L76.7825 73.6417C76.8111 73.4765 76.8164 73.3204 76.79 73.1567C76.7297 72.7668 76.4838 72.2298 75.6828 71.8602L75.0787 71.5714C73.5877 70.8338 72.166 70.1641 71.1086 70.1942L62.5726 70.9266L65.701 71.9485C65.0585 71.8565 64.2568 71.8354 63.09 71.944C60.7792 72.1627 59.9465 72.8037 58.9766 73.5481C58.9766 73.5481 58.0211 74.954 58.0196 74.914C57.2163 75.092 57.2774 75.0694 56.1235 74.923L52.6799 74.4871L55.4312 76.6034C56.438 77.3832 56.4802 77.4013 56.6349 77.4579C58.282 78.0628 59.9443 78.0846 61.3071 77.5054L61.3531 77.4888C62.3803 77.0521 64.9408 75.9721 66.9726 76.9171C66.9357 76.9533 66.904 76.9858 66.8799 77.0174L66.8135 77.0868C66.4779 77.4632 65.5804 78.4534 65.5231 80.1451C65.5087 80.5478 65.5374 80.9906 65.6339 81.4604C65.9183 82.8398 66.7207 84.1257 67.3821 85.0059C66.6181 85.9682 66.0691 86.8348 65.7916 87.5792C65.2463 88.9918 64.3246 91.8193 64.2153 94.9047C64.1994 95.3391 64.2771 95.8837 64.3563 96.4101L64.4491 97.1907C64.5698 99.9201 67.2509 105.449 68.1454 107.222C68.0526 107.344 67.9742 107.443 67.9229 107.557C67.7638 107.89 67.5518 108.398 67.5322 108.995C67.496 109.937 67.9372 110.791 68.8491 111.523C69.4238 111.98 70.6606 112.757 71.6411 113.356C71.586 113.553 71.5491 113.748 71.5438 113.926C71.5197 114.57 71.6102 115.113 72.1313 115.654C71.7376 116.496 70.3197 119.487 70.3197 119.487L72.0898 122.037L77.2108 123.971L77.284 123.986C77.4899 124.03 77.8677 124.104 78.2562 124.14C78.3414 124.369 78.3776 124.453 78.4289 124.615C78.3904 124.794 78.3572 124.972 78.3549 125.145C78.324 125.935 78.5955 126.776 79.0654 127.415C78.7818 127.932 78.4334 128.741 77.916 129.987L77.4333 131.149C77.4318 131.149 77.0532 132.045 77.0532 132.045L77.6611 132.792L77.9077 133.019L79.2374 134.159C79.5028 134.406 79.8068 134.612 80.1198 134.79C80.1198 134.79 80.7593 135.059 81.3574 135.287H81.8092V135.455C81.8688 135.474 81.957 135.514 82.0068 135.529C82.6018 135.699 83.1939 135.797 83.1939 135.797C83.1939 135.797 85.814 135.262 87.1006 134.02L87.1564 133.526C87.3487 131.912 87.5773 130.065 87.621 129.793L87.6738 129.18C87.6934 128.747 87.6904 127.662 87.3465 126.907L87.3337 126.877L86.8811 126.019C86.7454 125.774 86.4083 125.145 86.3049 124.908C86.3178 124.76 86.3524 124.567 86.3728 124.51C86.5681 124.053 86.6338 123.404 86.6511 122.94L86.6587 122.643C86.6587 122.643 86.4988 122.179 86.4173 121.935C87.1165 121.817 88.1806 121.647 88.1806 121.647L88.5577 121.19C89.3911 120.2 90.7351 118.618 91.0194 118.326C91.5949 117.712 92.0632 116.391 92.2933 115.662L92.3362 115.529L92.3506 115.392C92.6077 113.413 92.9117 111.146 92.9517 110.919L92.9607 110.883C92.9622 110.851 93.2933 108.681 93.5362 107.307C93.8507 107.261 94.1109 107.162 94.313 107.074C95.0302 107.222 95.7007 106.931 96.1479 106.703C97.0605 107.283 98.2657 107.935 99.256 108.222C99.9152 108.412 101.725 109.426 103.995 110.861L104.039 110.885C104.127 110.941 104.222 111.075 104.216 111.5C104.195 111.609 103.954 112.589 103.954 112.589L103.949 112.683C103.888 113.125 103.094 115.264 102.487 116.904C101.985 117.178 101.575 117.417 101.332 117.641C101.099 117.863 100.962 118.169 100.681 118.788C100.592 118.986 100.479 119.236 100.371 119.468C99.0984 119.058 98.1383 119.165 97.6269 119.292C97.0726 119.428 94.8077 120.544 94.1214 121.391C93.4366 122.237 93.0233 124.347 92.9916 125.248C92.9668 125.935 93.4472 126.976 93.6591 127.396L93.7383 127.548L93.8695 127.673C93.9932 127.785 95.0981 128.782 95.7105 129.186L95.7626 129.223L95.8199 129.248C96.3554 129.501 97.6541 130.112 98.2122 130.203C98.1828 130.197 98.4445 130.252 98.4445 130.252C98.8163 130.327 99.5351 130.487 100.28 129.964C100.276 129.967 100.945 129.546 100.945 129.546C102.151 128.795 103.263 128.101 103.639 127.795L103.963 127.537C103.963 127.537 104.875 125.314 105.02 124.962C105.685 124.376 106.675 123.486 107.015 123.066C107.497 122.472 107.664 121.526 107.887 120.034C107.886 120.052 108.03 119.218 108.07 118.991C108.148 118.703 108.613 117.986 108.896 117.555C108.904 117.545 109.437 116.694 109.437 116.694C109.599 116.416 109.736 116.092 109.861 115.761L123.697 116.612C123.697 116.612 123.687 106.988 123.686 104.05C125.464 104.203 127.601 104.393 127.601 104.393C127.602 104.393 127.694 104.4 127.694 104.4C129.877 104.613 133.527 104.966 135.248 101.381C136.111 99.5747 136.111 97.2767 136.111 95.4327V86.8725C136.111 84.9078 136.112 81.6143 133.476 79.4218L133.435 79.3924L133.395 79.363C131.233 77.7437 127.734 77.4654 127.342 77.439L108.661 76.1034C108.661 76.1034 112.814 81.2704 113.387 81.9868V110.194C113.169 110.479 112.497 111.35 111.733 112.345C111.753 112.313 111.782 112.277 111.801 112.247L112.056 111.839L112.043 111.356C112.021 110.699 111.801 109.984 111.626 109.413C111.555 109.172 111.46 108.854 111.443 108.738C111.443 108.738 111.443 108.736 111.443 108.735L111.44 108.713L111.443 108.722C111.471 107.697 110.818 106.641 110.539 106.244L110.527 106.213L110.508 106.2C108.996 104.242 108.004 102.935 107.821 102.678C107.603 102.306 106.66 99.8975 106.554 99.4902C106.391 98.8341 105.934 98.2933 105.55 97.9321C105.502 97.88 105.207 97.5037 105.207 97.5037C105.207 97.5037 104.128 96.1469 103.777 95.6883C103.845 94.9417 104.046 93.0962 104.238 91.4196L104.255 91.2589C104.255 91.2589 104.038 90.289 103.873 89.571C104.571 89.4006 105.186 88.9458 105.427 88.7505L105.682 88.537C105.682 88.537 105.911 88.0853 106.034 87.8522C106.941 87.3567 107.428 86.411 107.569 85.6892C107.576 85.6681 107.658 85.079 107.718 84.6522C108.18 84.3331 108.47 83.8686 108.597 83.5782C109.27 82.0494 109.368 81.4989 109.38 81.161L109.364 80.8111C109.296 80.4008 109.095 79.8894 109.009 79.6835L108.963 79.5568C108.963 79.5568 108.445 78.7227 108.23 78.3614C108.287 77.8584 108.511 75.9435 108.511 75.9435C108.511 75.9435 108.41 73.4199 108.395 73.1213C108.757 71.9854 109.104 71.0374 109.22 70.8443C109.673 70.0773 110.027 68.5207 110.058 67.5975L110.015 66.9082C109.857 66.1902 109.097 64.7059 108.785 64.1961C108.72 64.0762 108.533 63.543 108.27 62.6877C108.762 62.3581 109.298 61.8913 109.628 61.1997C110.168 60.082 110.732 58.7953 110.842 57.6693C110.841 57.6889 111.271 54.0982 111.271 54.0982L111.429 52.77L109.213 53.2746C108.208 53.5084 106.469 54.6548 106.124 55.8396C106.134 55.82 106.146 55.7793 106.146 55.7793C106.067 55.9656 105.686 56.5146 105.385 56.906C105.178 56.6247 105.024 56.4452 105.022 56.4437C104.13 55.3992 103.294 54.8395 102.229 54.5695C99.9242 53.9911 98.7997 53.6577 98.6051 53.5589C98.5727 53.5552 98.5531 53.5333 98.5244 53.5137C98.544 53.3319 98.5734 53.1253 98.6051 52.9171L99.1708 49.6281L99.21 49.6348ZM81.8092 135.455C81.6742 135.41 81.5173 135.349 81.3567 135.288H80.3445L74.7974 135.293L74.7092 135.29C73.7423 135.309 72.1223 135.344 71.0898 136.795C70.4909 137.611 70.4442 138.525 70.4118 139.191L70.4095 139.233L70.4238 141.466C70.4276 141.508 70.5535 142.526 70.5535 142.526L70.5815 142.64C70.6599 142.936 70.7677 143.193 70.8892 143.427C70.8175 143.384 70.5845 143.252 70.5845 143.252L70.5709 150.331L72.028 150.337C76.0773 150.35 77.3685 150.358 77.8866 150.316C77.8451 150.325 77.7659 150.341 77.7659 150.341C78.7177 150.337 80.3098 150.335 81.3582 149.099C81.8559 148.511 82.1848 147.578 82.1983 146.711C82.1983 146.704 82.2202 144.813 82.2202 144.813C82.2089 143.996 82.2014 143.441 82.0271 142.817C81.9615 142.57 81.8688 142.364 81.7707 142.163C81.7722 142.163 81.8092 142.18 81.8092 142.18V135.455ZM58.9246 78.9429L44.4923 81.3277C44.4923 81.3277 48.0943 85.1077 48.7113 85.7616V114.067C48.5461 114.334 47.8651 115.429 47.1456 116.586L41.2824 81.9899L22.7767 86.3619C22.7767 86.3619 26.1178 89.6668 26.7687 90.3117C26.4972 92.1225 22.4464 119.198 22.3483 119.855C22.3023 119.937 21.8868 120.688 21.6907 121.042C21.9946 119.289 22.009 117.357 22.009 115.474V110.157L11.9419 113.138V119.846C11.4479 120.006 10.7299 120.24 10.0421 120.465V99.8568C10.5361 99.7037 11.2571 99.4834 11.9419 99.2753V104.584L22.009 101.576V98.2911C22.009 95.269 22.009 92.8857 21.0044 91.0493C19.0314 87.4608 15.1548 88.6735 12.8409 89.3968L7.2697 91.2054C5.01691 91.9603 1.94507 92.9906 0.631262 97.4207C0.000754187 99.4306 0 101.627 0 103.563V123.324C0 125.791 0.000754142 128.86 2.37195 130.45C4.54026 131.842 7.27649 130.934 9.08882 130.334L14.283 128.657C14.2845 128.657 14.3818 128.626 14.3818 128.626C15.6285 128.236 17.1972 127.741 18.5842 126.66C18.5306 126.756 18.2259 127.308 18.2259 127.308L31.097 123.897C31.097 123.897 32.1386 116.391 32.4116 114.423C33.6025 114.148 34.9736 113.831 36.6434 113.442C37.0084 115.886 37.9632 122.29 37.9632 122.29L46.4449 120.552L66.0246 117.571L66.0849 104.926C66.0849 104.926 60.2739 108.302 59.7572 108.601C59.6034 108.63 59.2994 108.678 58.9216 108.741C58.9223 104.825 58.9231 78.9422 58.9231 78.9422L58.9246 78.9429ZM143.018 79.4346C140.93 79.3245 138.397 79.8057 137.186 83.1498C136.5 84.9327 136.501 87.0656 136.501 89.1246V108.887C136.501 111.219 136.5 114.123 138.553 116.441C140.437 118.513 143.233 118.965 144.905 119.235L150.23 120.138C150.234 120.138 150.327 120.153 150.327 120.153C152.587 120.556 157.293 121.395 158.6 115.921C159 114.202 159 112.087 159 110.041V92.8571C159 90.0055 159.001 87.5415 158.061 85.392V85.3905C156.546 81.9401 153.68 81.164 150.627 80.621L144.893 79.6571C144.361 79.5734 143.714 79.4708 143.018 79.4346ZM155.968 81.5042C155.968 81.5042 160.176 87.6305 160.668 88.3409H160.669V116.69C160.115 117.366 156.891 121.306 156.891 121.306L159.893 122.043L177.781 126.407L177.87 113.598C177.87 113.598 172.879 114.966 172.099 115.179C171.747 115.079 171.445 114.996 170.816 114.813C170.816 112.279 170.816 88.6034 170.816 86.3144C172.379 88.3673 175.081 91.9136 175.325 92.2334C175.518 92.7847 181.76 110.478 181.969 111.081V122.247C181.338 122.931 178.016 126.493 178.016 126.493L191.814 130.802V113.04C192.098 112.383 200 93.9597 200 93.9597L190.027 90.4715C190.027 90.4715 188.259 95.8339 187.115 99.2964C185.923 94.7245 184.353 88.7158 184.353 88.7158L169.403 84.4599C169.403 84.4599 169.537 84.6348 169.543 84.6424L155.969 81.5049L155.968 81.5042ZM123.679 86.5158C124.761 86.607 125.264 86.6455 125.945 86.7058V95.2803C125.109 95.2124 124.686 95.1762 123.679 95.0948V86.5158ZM146.76 89.3863C147.454 89.5062 148.234 89.6404 148.816 89.737V110.462C148.124 110.346 147.341 110.212 146.76 110.113V89.3863ZM34.5188 99.2677C34.9291 102.014 35.1765 103.67 35.3424 104.786C34.6734 104.942 34.5105 104.979 33.696 105.168C33.926 103.513 34.11 102.212 34.5188 99.2677ZM110.935 113.426C110.663 113.78 110.54 113.943 110.324 114.223C110.336 114.171 110.363 114.086 110.374 114.039C110.538 113.833 110.67 113.672 110.708 113.64C110.785 113.579 110.859 113.502 110.935 113.426ZM28.3796 135.267L30.2048 137.625C30.2048 137.625 30.778 138.365 31.1212 138.813C31.1212 139.666 31.1264 146.568 31.1272 147.157C30.9477 147.527 29.5818 150.336 29.5818 150.336H36.841C36.841 150.336 36.8417 147.649 36.8425 146.848C37.034 147.18 38.7574 150.165 38.7574 150.165C38.7574 150.165 40.431 147.168 40.6044 146.858C40.6059 147.644 40.612 150.328 40.612 150.328L47.9963 150.346C47.9963 150.346 46.5905 147.36 46.4072 146.967C46.408 146.394 46.4155 139.59 46.4178 138.684C46.7639 138.273 49.2799 135.275 49.2799 135.275L41.1919 135.281C41.1919 135.281 39.7122 137.975 38.7438 139.727C37.8056 137.975 36.3651 135.28 36.3651 135.28L28.3796 135.265V135.267ZM114.087 135.269L112.877 135.273L106.229 135.279C106.229 135.279 104.156 146.416 104.062 146.923C103.863 147.248 101.957 150.343 101.957 150.343H109.656C109.656 150.343 109.954 148.14 110.072 147.253H110.251C110.392 148.146 110.741 150.346 110.741 150.346L118.155 150.34C118.155 150.34 116.425 147.072 116.266 146.769C116.188 146.355 114.087 135.269 114.087 135.269ZM51.446 135.273L52.4853 137.381C52.4853 137.381 52.9001 138.225 53.0939 138.618C53.0924 139.242 53.0849 146.254 53.0849 146.254C53.0849 147.137 53.195 147.732 53.2078 147.798L53.2161 147.844L53.2297 147.891C53.867 150.326 56.4486 150.338 57.8604 150.334C58.0482 150.34 58.3778 150.34 59.1245 150.336C59.6584 150.334 60.0521 150.33 60.3727 150.303C60.3689 150.306 60.3342 150.329 60.3342 150.329C61.056 150.331 63.2544 150.335 64.2417 148.339C64.6361 147.584 64.6497 146.792 64.6572 146.157V138.568C64.8405 138.185 66.223 135.276 66.223 135.276C66.223 135.276 59.5513 135.288 59.1199 135.288L51.446 135.273ZM86.3924 135.276V143.654C86.3924 143.654 89.7086 141.059 90.3625 140.548V147.088C90.1717 147.468 88.7448 150.323 88.7448 150.323L97.9972 150.372C97.9972 150.372 96.6382 147.382 96.4625 146.996C96.4617 146.534 96.4572 142.63 96.4564 140.576C97.1178 141.089 100.388 143.624 100.388 143.624V135.293L86.3924 135.276ZM168.721 135.282L167.251 135.288L161.717 135.301H161.608C160.641 135.32 159.023 135.355 157.999 136.795C157.4 137.611 157.353 138.525 157.322 139.192L157.321 139.233L157.334 141.466C157.339 141.508 157.463 142.526 157.463 142.526L157.491 142.64C157.57 142.936 157.676 143.193 157.798 143.427C157.725 143.384 157.492 143.252 157.492 143.252L157.48 150.331L158.94 150.337C162.989 150.35 164.278 150.359 164.796 150.316C164.756 150.325 164.673 150.341 164.673 150.341C165.628 150.337 167.22 150.335 168.27 149.1C168.765 148.511 169.095 147.578 169.11 146.712C169.11 146.705 169.129 144.813 169.129 144.813C169.119 143.996 169.111 143.442 168.936 142.817C168.869 142.571 168.777 142.364 168.68 142.163L168.721 142.181V135.282ZM144.675 135.288L144.626 135.29C143.815 135.326 142.3 135.395 141.364 136.886C140.659 138.003 140.688 139.969 140.721 140.62L140.701 145.333L140.704 145.362C140.75 146.029 140.848 147.216 140.979 147.691C141.65 150.279 144.112 150.328 144.921 150.347H144.935L152.25 150.357L152.226 148.881L152.149 141.037H152.086C152.086 140.388 152.093 135.296 152.093 135.296L144.677 135.288H144.675ZM129.431 135.29C129.431 135.29 129.434 137.825 129.434 138.432C128.802 137.349 127.605 135.293 127.605 135.293L120.785 135.297C120.785 135.297 122.109 138.224 122.282 138.602C122.282 139.171 122.273 146.498 122.271 147.075C122.095 147.456 120.738 150.362 120.738 150.362L127.947 150.354C127.947 150.354 127.95 147.735 127.953 147.056C128.568 148.185 129.75 150.351 129.75 150.351L135.162 150.354C135.162 150.354 135.166 139.113 135.166 138.549C135.326 138.179 136.572 135.29 136.572 135.29H134.353H134.352H129.432H129.431ZM146.837 140.334H148.79C149.189 140.576 149.948 141.031 149.952 141.037C148.997 141.034 146.852 141.031 146.834 141.031C146.836 140.753 146.837 140.543 146.837 140.334Z" fill="#B38F4F"/>
<path d="M110.531 108.715C110.562 107.916 109.925 106.964 109.797 106.779C109.109 105.89 107.322 103.567 107.069 103.204C106.829 102.858 105.777 100.153 105.675 99.7202C105.55 99.2017 105.073 98.7407 104.872 98.5625C104.828 98.5125 103.112 96.3216 102.834 95.9945C102.853 95.5552 103.332 91.3147 103.332 91.3147C103.332 91.3147 102.965 89.6658 102.786 88.8796C103.187 88.7806 103.603 88.6892 103.603 88.6892C104.185 88.5657 104.749 88.116 104.865 88.0264L104.964 87.9406C104.964 87.9406 105.235 87.4145 105.373 87.1393C106.199 86.8432 106.582 86.0099 106.676 85.5121C106.683 85.4904 106.808 84.5722 106.88 84.1112C106.942 84.0612 107.007 84.0178 107.048 83.9962C107.452 83.8104 107.692 83.3683 107.78 83.1882C108.357 81.8703 108.467 81.3649 108.472 81.1321C108.472 81.0604 108.474 81.0105 108.467 80.9718C108.409 80.6334 108.21 80.1385 108.172 80.0357L108.15 79.9886C108.15 79.9886 107.468 78.8836 107.284 78.5857C107.333 78.202 107.596 75.9102 107.596 75.9102C107.596 75.9102 107.49 73.2074 107.481 72.9981C107.749 72.1345 108.224 70.7421 108.443 70.3716C108.792 69.7824 109.123 68.406 109.152 67.5698C109.158 67.3803 109.152 67.2229 109.127 67.1163C109.003 66.5432 108.278 65.1073 107.992 64.6642C107.872 64.4578 107.509 63.3529 107.182 62.2621C107.761 61.9953 108.462 61.5155 108.812 60.8009C109.314 59.7591 109.842 58.5562 109.933 57.5833L110.37 53.9895L109.454 54.196C108.708 54.3742 107.288 55.3358 107.068 56.1022C106.967 56.4209 106.06 57.7152 105.688 58.0169C105.558 58.1197 105.377 58.23 105.195 58.3261C104.855 57.6662 104.352 57.0751 104.342 57.0638C103.575 56.1673 102.904 55.711 102.036 55.4942C100.069 54.9945 98.5828 54.5797 98.2509 54.4345C97.9021 54.278 97.6702 54.0046 97.5882 53.8764C97.5901 53.8547 97.5835 53.8377 97.5882 53.8113C97.5929 53.5813 97.6495 53.1514 97.7145 52.7602L97.9464 51.4092L96.7472 52.072C96.0242 52.4689 95.0975 53.735 94.9843 54.7711C94.9608 54.9747 94.9532 55.168 94.9429 55.3575C93.4722 54.6909 92.371 54.8512 92.3116 54.8606L90.9616 55.0746L91.9751 55.9976C92.4983 56.4709 92.9763 57.2571 93.2874 57.8604C92.6595 57.9349 91.9892 58.0018 91.7121 57.9651C91.3397 57.9217 91.2454 57.8218 90.9409 57.4946L90.8542 57.4032C90.6534 57.1873 89.9595 56.0344 89.4071 55.0548L88.3691 53.2051L88.1768 55.3207C88.1721 55.3443 88.1721 55.3707 88.1721 55.3961C88.157 55.9278 88.3813 57.0968 90.1132 60.6925L90.1782 60.8254C90.2565 60.9856 90.3413 61.1591 91.367 61.6814C90.9409 61.8322 90.4535 62.017 89.8803 62.2414C89.2015 62.5016 88.2739 62.8598 88.0514 62.8843C87.7459 62.9013 86.6703 62.5346 85.8567 62.1801C85.8567 62.1801 86.6014 64.6887 87.5781 65.0875C87.8996 65.2289 88.3917 65.3242 88.8999 65.4005C88.4294 65.6937 88.0316 65.9756 87.8619 66.1066C87.4018 66.4573 84.4378 67.2898 83.7459 67.2681C83.4131 67.253 82.5712 66.7401 81.9942 66.2735L80.7319 65.2402L80.9233 66.8599C80.9384 66.9466 81.2108 69.0763 83.4489 69.8918C84.2314 70.1689 85.0855 70.2321 85.8633 70.1972C85.0827 71.0089 84.2238 72.0327 83.3706 73.0763L82.8965 73.6524C82.5335 74.0606 80.3548 74.9571 79.6157 75.1004C79.1217 75.1938 78.3364 75.0882 78.0752 75.0382L76.0936 74.647L77.4672 76.1299C77.7745 76.4636 78.919 77.3847 79.8495 77.4224C80.1314 77.429 80.6754 77.3658 81.2485 77.2725C81.1665 77.379 81.0892 77.4695 81.0242 77.5544C79.8391 77.5544 76.7017 77.7957 76.2209 78.0126C76.0295 78.1021 75.4044 78.6141 74.671 79.2419H74.6672C74.6644 79.2466 74.6578 79.2419 74.654 79.2542C74.6606 79.2419 74.6644 79.2476 74.671 79.2419C74.6663 78.9355 74.6719 78.6489 74.7049 78.4858C74.7983 78.039 76.137 76.36 76.137 76.36C76.137 76.36 74.2986 77.265 73.9017 77.6326C73.519 77.9928 72.778 79.7689 72.778 79.7689L72.9024 80.3421L72.9825 80.7135C73.0014 80.6956 72.9043 80.7823 72.8336 80.8474C72.5913 81.0604 72.3669 81.2622 72.1755 81.4366C72.0087 81.5855 71.9323 81.6497 71.938 81.6497C71.9012 81.5497 71.872 81.4432 71.8494 81.3187C71.6335 80.2516 71.9163 78.6706 72.8505 77.7429C74.0214 76.5834 75.4365 75.6284 75.4365 75.6284C75.4365 75.6284 75.8815 73.4025 75.8617 73.4412C75.8881 73.1942 75.7561 72.9274 75.2885 72.7143C74.4023 72.3109 72.2651 71.1051 71.1329 71.1437C70.0101 71.172 65.8686 71.3983 65.8686 71.3983C65.8686 71.3983 70.2665 72.3109 71.0075 72.7143C71.7438 73.1131 72.9552 74.8138 72.9552 74.8138C73.9611 74.6837 74.7153 74.4641 75.1725 74.2435C74.2977 75.0401 72.9967 75.8688 72.9967 75.8688C72.9967 75.8688 71.2432 76.4834 70.1524 77.4959C69.0664 78.5075 68.6402 81.9513 68.6402 81.9513C68.6402 81.9513 67.64 80.5599 68.3037 78.779C68.9712 77.0029 71.5147 75.3654 71.5147 75.3654C70.0732 75.5369 67.9077 77.2593 67.5957 77.6232C67.278 77.989 66.1147 79.0788 66.5625 81.2754C66.8783 82.8159 67.969 84.2743 68.5931 85.0002C67.7663 85.9656 67.0159 87.0035 66.6709 87.9161C65.9827 89.7054 65.252 92.3262 65.1596 94.9367C65.138 95.5401 65.368 96.5959 65.3934 97.1465C65.5179 99.9615 68.8401 106.559 69.2681 107.353C69.2483 107.411 68.8335 107.831 68.777 107.955C68.6176 108.285 68.4866 108.645 68.4753 109.025C68.4545 109.579 68.6846 110.165 69.4416 110.788C70.1109 111.323 71.888 112.404 72.8025 112.949C72.646 113.264 72.4932 113.64 72.4848 113.957C72.4659 114.486 72.5442 114.723 72.826 115.016L72.8638 115.049C72.8638 115.049 73.0664 115.27 73.2625 115.483C72.9543 116.135 71.4082 119.392 71.4082 119.392L72.6978 121.253L77.4709 123.057C77.4709 123.057 78.5051 123.266 78.9218 123.213C79.0962 123.696 79.3263 124.293 79.4168 124.553C79.3527 124.762 79.3055 124.969 79.2971 125.176C79.2725 125.85 79.5318 126.499 79.8683 126.925C80.0484 127.148 80.1267 127.402 80.1238 127.495C79.7345 127.928 78.9171 130.078 78.3034 131.52L78.1431 131.885L78.3939 132.199C78.4269 132.23 78.8134 132.499 79.8646 133.456C81.0392 134.525 83.1849 134.796 83.2707 134.803L83.4272 134.822L86.1791 133.806L86.2243 133.406C86.3328 132.483 86.6363 129.996 86.6891 129.639C86.7146 129.511 86.7315 129.336 86.7362 129.142C86.756 128.564 86.7042 127.763 86.4855 127.294L86.0528 126.452C85.8331 126.052 85.4296 125.305 85.3731 125.119C85.3636 125.066 85.3598 124.99 85.3636 124.903C85.3693 124.645 85.4409 124.286 85.4994 124.151C85.6625 123.793 85.6973 123.16 85.7068 122.903L85.7134 122.785C85.7134 122.785 85.3891 121.844 85.1609 121.184C86.0207 121.04 87.6828 120.768 87.6828 120.768L87.8393 120.582C88.5586 119.721 90.0151 118.004 90.3319 117.669C90.8042 117.162 91.2643 115.789 91.3934 115.373L91.416 115.32L91.4207 115.262C91.6319 113.64 91.9817 110.979 92.026 110.731C92.026 110.731 92.5275 107.447 92.7557 106.356C93.4533 106.519 93.9445 106.183 94.2528 106.056C94.9466 106.436 95.7734 105.786 96.2061 105.62C96.982 106.152 98.4131 106.995 99.5171 107.316C100.741 107.669 104.115 109.813 104.54 110.085C105.161 110.484 105.176 111.211 105.166 111.594C105.16 111.654 104.894 112.728 104.894 112.728C104.869 113.205 104.058 115.373 103.246 117.552C102.936 117.726 102.218 118.102 101.979 118.33C101.746 118.543 101.243 120.044 100.769 120.621C99.1437 119.88 98.0332 120.156 97.8578 120.206C97.3921 120.321 95.3454 121.374 94.8561 121.98C94.3744 122.571 93.9633 124.416 93.9304 125.272C93.9219 125.656 94.2386 126.452 94.4998 126.968C94.4998 126.968 95.6612 128.019 96.2325 128.388C96.2325 128.388 97.888 129.186 98.3641 129.27L98.6318 129.32C98.9458 129.391 99.3323 129.476 99.7367 129.192C99.9818 129.021 102.535 127.468 103.05 127.055L103.181 126.951C103.181 126.951 104.123 124.656 104.23 124.399C104.683 124.002 105.946 122.894 106.282 122.473C106.604 122.077 106.748 121.231 106.953 119.887L107.15 118.771C107.261 118.335 107.708 117.647 108.103 117.038L108.637 116.193C109.09 115.416 109.403 114.09 109.504 113.646C109.738 113.312 110 112.987 110.098 112.914C110.461 112.647 110.901 111.957 111.031 111.751L111.136 111.588L111.132 111.388C111.113 110.445 110.514 109.188 110.529 108.715" fill="black"/>
<path d="M82.0403 99.1556C82.424 98.7681 83.2536 98.0214 84.1077 97.9583C85.2673 97.8659 86.9096 98.013 87.4734 98.4362C88.0362 98.8614 90.0395 98.9745 90.6259 98.7275C90.6259 98.7275 91.1256 98.6125 91.3782 98.8897C91.6337 99.1659 92.584 102.581 92.584 102.581C92.584 102.581 91.6346 104.158 91.2726 104.364C91.0209 104.512 90.4468 104.512 89.9236 104.43L89.2561 104.234C89.2589 104.237 89.2749 104.249 89.2749 104.249C89.2749 104.249 89.291 104.284 89.3381 104.336C89.4559 104.491 89.7293 104.825 90.0857 105.125C90.0857 105.125 90.0838 105.125 90.0791 105.127C90.4326 105.422 90.8644 105.698 91.3056 105.75C91.3056 105.75 90.9766 108.764 90.6975 110.319C90.4213 111.865 90.1743 114.883 89.8877 115.495C89.7868 115.71 89.6652 115.95 89.5248 116.199C89.5144 116.213 89.5078 116.23 89.4974 116.248C89.2438 116.69 88.9318 117.122 88.6178 117.371C88.1144 117.749 87.0331 119.277 87.0331 119.277L82.292 119.769C82.292 119.769 80.8213 117.4 80.5819 116.725C80.3311 116.047 81.4879 112.477 81.4879 112.477C81.4879 112.477 83.7439 111.67 83.8768 111.674C84.0097 111.674 85.3993 112.668 85.3993 112.668C85.3993 112.668 84.7196 114.29 85.3097 115.203C85.3097 115.203 85.5888 113.65 86.0121 113.086C86.4307 112.523 87.4064 111.311 87.4064 111.311L88.4302 103.994C88.4302 103.994 87.4366 103.159 87.2829 102.482C87.2424 102.315 87.2603 102.071 87.3046 101.791L87.5648 100.73C87.6977 100.299 87.8222 99.9654 87.8222 99.9654C87.8222 99.9654 87.743 100.045 87.6214 100.191C87.2725 100.605 86.6041 101.552 86.5664 102.631C86.5202 103.911 86.6843 103.872 86.7276 103.836C86.6145 103.943 84.2181 106.112 81.6745 106.714C81.6745 106.714 80.9948 106.753 80.6007 106.516C80.2095 106.282 79.6363 104.48 79.5269 103.943C79.4082 103.403 79.2752 100.951 80.6073 98.5928C80.6073 98.5928 79.3723 93.3313 80.3594 90.6954C80.3594 90.6954 78.9142 93.715 78.7784 95.0037C78.6417 96.2868 79.1744 97.6 79.1744 97.6L77.7301 101.74L77.7122 102.851C77.7122 102.851 74.3164 100.908 73.5424 100.215C72.7646 99.5194 71.6927 97.6632 71.4627 96.5234C71.2704 95.5552 70.7358 92.0001 71.4033 88.2319C71.4033 88.2319 70.1447 92.1933 70.1495 95.8503C70.1495 99.5072 72.9947 104.492 72.9947 104.492C72.9947 104.492 70.1777 103.341 69.8789 103.105C69.5744 102.877 68.774 102.135 68.5289 101.548C68.2838 100.957 66.3398 96.4235 66.4256 94.0694C66.4841 92.5186 67.045 90.3871 67.8379 88.511C67.8586 88.4695 67.8803 88.4233 67.8963 88.3753C67.8963 88.3753 67.8944 88.38 67.8906 88.3828C67.9302 88.2857 67.9726 88.1914 68.0179 88.0915C68.0424 88.0415 68.0556 87.9991 68.0811 87.9557C68.1433 87.8209 68.2008 87.6927 68.2696 87.5702C68.3026 87.49 68.3413 87.4146 68.3799 87.3448C68.4129 87.276 68.4422 87.2166 68.4836 87.1497C68.5279 87.0564 68.5751 86.9677 68.626 86.8763C68.6514 86.8329 68.6788 86.7896 68.6939 86.7472C68.773 86.6199 68.8409 86.5049 68.9069 86.3917C68.9333 86.3568 68.955 86.3201 68.9748 86.2871C69.0559 86.1598 69.136 86.0401 69.2162 85.9232C70.6727 83.8378 75.5486 79.4691 77.7951 79.0204C78.801 78.8196 79.4902 78.8092 79.9408 78.8639C80.0096 78.8988 80.0021 78.9356 80.0021 78.9356C80.0021 78.9356 79.5599 79.2024 79.0556 80.7202H79.0575C78.7633 81.6233 78.4484 82.9667 78.2062 84.9568L78.3957 84.6637L78.5276 84.3375L80.7459 80.0621C80.7459 80.0621 82.9699 77.4696 83.8438 76.7399C84.7177 76.0196 88.3162 73.9654 88.3162 73.9654C88.3162 73.9654 89.3324 71.5501 90.0207 69.8786C90.5854 68.506 93.2213 64.5578 94.6646 62.6949C94.971 62.2999 95.2199 62.0001 95.3896 61.8332C95.3896 61.8332 95.7327 62.4431 96.9828 62.1735C97.0535 62.1556 97.1271 62.1481 97.2044 62.1236C97.2044 62.1236 96.6727 62.0623 96.4577 61.8804C96.2428 61.6824 95.1407 58.8428 94.6882 57.8888C94.2272 56.93 93.6776 56.2041 93.5032 56.0174C93.5032 56.0174 95.2472 57.0252 95.4716 57.2006C95.6884 57.3957 97.2845 59.8978 97.4844 60.5737C97.4844 60.5737 99.3623 60.3691 100.116 60.4879C100.868 60.602 102.127 61.4052 102.432 61.7324C102.734 62.0585 103.138 63.2247 103.138 63.2247C103.138 63.2247 103.804 61.9604 104.04 61.5258C104.279 61.0818 105.441 59.7479 105.583 59.6215C105.716 59.4877 106.494 59.0729 106.724 58.7693C106.96 58.4667 108.145 56.3719 109.009 55.9109L108.528 57.0535L108.251 58.3799C108.251 58.3799 108.134 60.4691 105.879 61.2789C105.879 61.2789 106.575 64.2428 106.719 65.1441C106.719 65.1441 107.633 66.9136 107.753 67.2728C107.873 67.6311 107.813 68.0317 107.72 68.2495C107.625 68.4711 107.256 69.9219 106.934 70.2726C106.934 70.2726 106.613 71.7763 106.275 72.5211C106.275 72.5211 106.421 74.7054 106.287 75.9065C106.153 77.1076 105.872 78.7857 105.872 78.7857C105.872 78.7857 106.887 80.1573 107.01 80.5222C107.129 80.8823 107.248 81.2886 107.104 81.5922C106.959 81.9014 106.291 83.0817 105.755 83.3278C105.755 83.3278 105.427 83.6267 105.511 83.8972C105.585 84.1678 105.779 84.9304 105.499 85.3254C105.218 85.7167 105.029 85.9298 104.102 85.6743C103.179 85.4207 102.527 86.1504 101.864 86.0834C101.196 86.0137 100.881 84.8852 100.772 84.1744C100.663 83.4541 100.348 83.5276 100.003 83.2995C99.6602 83.0648 98.9588 82.6349 98.7882 81.2519C98.7523 80.9549 98.7194 80.6589 98.692 80.3704C98.6939 80.3713 98.6873 80.3704 98.6496 79.9499C98.5713 79.0524 98.4959 78.2624 98.3319 77.8862C98.0839 77.3432 96.8556 76.8134 96.502 76.6617C96.1523 76.5184 96.1325 75.7604 96.1325 75.7604L95.3509 71.6349C95.3509 71.6349 95.251 70.6535 95.6008 69.4628C95.9628 68.2665 96.8329 63.894 96.8329 63.894L94.1376 73.1065C94.1376 73.1065 93.6983 74.2011 93.8501 74.8308C94.0028 75.4653 95.5244 81.53 95.6177 82.6047C95.7158 83.6775 96.2909 87.4796 96.2909 87.4796C96.2909 87.4796 92.8187 84.9069 92.155 84.7542C91.4942 84.5939 89.2457 85.0907 88.4406 85.3321L89.7699 86.7113C89.7699 86.7113 91.2471 90.1919 91.5139 91.4552C91.7817 92.709 91.4715 95.1988 91.4715 95.1988C91.4715 95.1988 90.2469 93.1456 89.6445 92.726C89.0336 92.3009 87.6166 91.9379 87.6166 91.9379C87.6166 91.9379 88.8356 92.7845 89.4041 94.3617C89.9698 95.9398 89.7793 97.5444 89.7793 97.5444C89.7793 97.5444 87.5686 97.0617 86.8304 96.4998L84.4236 96.546C84.4236 96.546 82.1789 97.0429 81.8235 99.3941C81.8235 99.3941 81.9046 99.2941 82.0403 99.1556Z" fill="#FFFDEE"/>
<path d="M111.111 77.3817C111.111 77.3817 114.19 81.2108 114.508 81.609V110.573C114.205 110.968 111.295 114.751 111.295 114.751L122.592 115.446C122.592 115.446 122.581 104.448 122.579 102.85C123.9 102.966 127.702 103.297 127.702 103.297C127.704 103.299 127.792 103.312 127.792 103.312C129.933 103.518 132.863 103.803 134.253 100.909C135.008 99.3281 135.009 97.165 135.009 95.4319V86.8718C135.009 84.9863 135.009 82.1279 132.765 80.265L132.733 80.2371C130.788 78.786 127.404 78.5402 127.26 78.5319L111.113 77.3817H111.111ZM57.8283 80.2348L46.7114 82.0713C46.7114 82.0713 49.4296 84.9267 49.8059 85.3211V114.38C49.5774 114.749 46.6805 119.412 46.6805 119.412L64.9343 116.628L64.9811 106.835C64.9811 106.835 60.3843 109.504 60.1331 109.65C59.937 109.68 58.771 109.874 57.8268 110.03C57.8268 108.154 57.8283 80.2348 57.8283 80.2348ZM142.736 80.5116C142.506 80.5033 142.276 80.5041 142.047 80.5177C140.517 80.6089 139.035 81.2666 138.217 83.5209C137.596 85.1356 137.597 87.1651 137.597 89.1245V108.887C137.597 111.033 137.597 113.708 139.375 115.716C140.99 117.494 143.45 117.891 145.081 118.154L150.425 119.059C150.427 119.059 150.52 119.073 150.52 119.073C152.886 119.498 156.47 120.137 157.536 115.665C157.907 114.074 157.907 112.026 157.907 110.04V92.8556C157.907 90.0168 157.906 87.7738 157.057 85.8295C155.756 82.8708 153.289 82.2101 150.436 81.7018L144.722 80.7424C144.105 80.6451 143.426 80.5365 142.736 80.5116ZM158.468 83.2086C158.468 83.2086 161.504 87.6237 161.762 88.0023V117.082C161.459 117.457 158.838 120.655 158.838 120.655L176.694 125.019L176.764 115.039C176.764 115.039 172.496 116.206 172.088 116.315C171.777 116.225 170.453 115.849 169.719 115.638C169.719 114.409 169.724 85.8106 169.724 85.8106L158.468 83.2094V83.2086ZM40.3973 83.324L24.9514 86.9766C24.9514 86.9766 27.4779 89.4745 27.932 89.9263C27.8098 90.7521 23.4468 119.917 23.4038 120.213C23.2642 120.464 20.4262 125.591 20.4262 125.591L30.1116 123.024C30.1116 123.024 31.2881 114.549 31.4314 113.527C32.2701 113.333 36.2771 112.404 37.551 112.107C37.7712 113.578 38.8753 120.984 38.8753 120.984L46.5161 119.421L40.4011 83.324H40.3973ZM122.583 85.3272C123.849 85.4282 127.03 85.6967 127.03 85.6967C127.03 85.6967 127.041 96.2049 127.041 96.4719C126.832 96.4523 123.695 96.1974 122.583 96.1039V85.3272ZM172.266 86.4155C172.266 86.4155 176.147 91.5063 176.297 91.7099C176.385 91.9528 182.97 110.621 183.065 110.891V122.678C182.694 123.081 180.001 125.966 180.001 125.966L190.718 129.31V112.813C191.273 111.508 195.749 101.074 198.167 95.4447L198.53 94.606L190.717 91.8736C190.717 91.8736 188.128 99.7187 186.99 103.161C185.999 99.3673 183.453 89.5997 183.453 89.5997L172.268 86.4132L172.266 86.4155ZM145.662 88.0936C146.524 88.2406 149.833 88.7972 149.833 88.7972C149.859 88.8078 149.91 88.8591 149.911 88.8877V111.759C149.047 111.614 145.743 111.054 145.743 111.054C145.71 111.047 145.669 110.996 145.662 110.968V88.0936ZM16.8739 89.6962C15.6295 89.6751 14.2961 90.0929 13.1708 90.4444L7.61467 92.2447C5.48406 92.9611 2.83382 93.8511 1.68216 97.7314C1.0969 99.6011 1.09766 101.613 1.09766 103.562V123.323C1.09766 125.532 1.0969 128.274 2.98164 129.542C4.69291 130.64 7.13198 129.829 8.74596 129.293L13.959 127.611C13.9597 127.611 14.0563 127.58 14.0563 127.58C16.5187 126.811 19.5838 125.852 20.5537 121.246C20.9164 119.503 20.9164 117.456 20.9164 115.475V111.622L13.0396 113.959V120.49C13.0343 120.547 12.937 120.68 12.8495 120.707C12.8405 120.71 9.90968 121.656 8.94658 121.971V99.2029C8.9511 99.1463 9.04915 99.0128 9.13513 98.9879C9.13513 98.9879 12.0961 98.0859 13.0396 97.7978V103.113L20.9157 100.76V98.291C20.9157 95.4259 20.9164 93.1685 20.0468 91.5772C19.2753 90.1759 18.1191 89.7166 16.8739 89.6962ZM34.5078 91.7303C34.7363 93.2598 36.3873 104.307 36.5833 105.626C35.6708 105.835 33.7182 106.29 32.3991 106.596C32.6811 104.569 34.3298 92.7349 34.4686 91.7393C34.4874 91.7333 34.4897 91.7318 34.5078 91.7303ZM30.1169 136.121L30.8786 137.106C30.8786 137.106 31.7663 138.254 31.9714 138.517C31.9714 138.911 31.9775 147.086 31.9775 147.352C31.8757 147.561 30.942 149.486 30.942 149.486H35.9868C35.9868 149.486 35.9905 145.871 35.9913 143.669C36.9846 145.394 38.7434 148.438 38.7434 148.438C38.7434 148.438 40.4652 145.353 41.4479 143.59C41.4524 145.835 41.4607 149.481 41.4607 149.481L46.6519 149.491C46.6519 149.491 45.6518 147.37 45.553 147.157C45.553 146.9 45.5651 138.786 45.5651 138.374C45.7868 138.11 47.449 136.128 47.449 136.128L41.6953 136.134C41.6953 136.134 39.49 140.136 38.7313 141.514C37.9914 140.129 35.8548 136.133 35.8548 136.133L30.1169 136.121ZM112.883 136.121L106.941 136.128C106.941 136.128 104.917 147.017 104.877 147.235C104.774 147.4 103.487 149.492 103.487 149.492H108.918C108.918 149.492 109.234 147.129 109.332 146.401H110.984C111.097 147.116 111.474 149.496 111.474 149.496L116.744 149.486C116.744 149.486 115.535 147.201 115.458 147.051C115.424 146.874 113.387 136.121 113.387 136.121H112.883ZM52.8219 136.124L53.2541 137.006C53.2541 137.006 53.8446 138.204 53.9502 138.417C53.9495 138.693 53.9434 146.254 53.9434 146.254C53.9434 147.074 54.0437 147.612 54.049 147.637C54.5347 149.49 56.5597 149.486 57.8999 149.486C57.8999 149.486 57.8864 149.483 57.8818 149.483C58.0085 149.487 58.3012 149.487 59.1285 149.483C59.756 149.481 60.1278 149.481 60.3684 149.459C60.3654 149.46 60.3405 149.475 60.3405 149.475C60.9944 149.475 62.7313 149.48 63.484 147.959C63.794 147.37 63.8023 146.716 63.8113 146.143V138.373C63.9094 138.165 64.8793 136.128 64.8793 136.128L59.4641 136.14C59.4641 136.14 59.4807 145.063 59.4815 146.14H58.2801C58.2801 145.067 58.274 136.134 58.274 136.134L52.8219 136.124ZM87.248 136.127V141.904C87.248 141.904 90.0332 139.727 90.316 139.503H91.2203V147.286C91.1132 147.499 90.1245 149.481 90.1245 149.481L96.6769 149.512L95.615 147.18C95.615 146.943 95.6098 140.533 95.609 139.497C96.0072 139.501 96.2848 139.501 96.4718 139.501C96.7516 139.721 99.5406 141.881 99.5406 141.881V136.143L87.2472 136.126L87.248 136.127ZM167.872 136.134L167.259 136.14C165.149 136.149 161.926 136.162 161.706 136.153L161.632 136.15C160.773 136.167 159.475 136.198 158.696 137.291C158.243 137.909 158.208 138.609 158.178 139.23C158.178 139.262 158.187 141.386 158.187 141.386C158.188 141.402 158.306 142.368 158.306 142.368L158.317 142.417C158.823 144.292 160.511 144.314 161.631 144.335C161.631 144.335 163.074 144.329 163.915 144.327C163.914 144.917 163.911 145.578 163.907 146.16C163.098 146.161 161.152 146.164 160.906 146.164C160.667 146.032 158.348 144.715 158.348 144.715L158.339 149.481L158.946 149.487C163.467 149.501 164.451 149.506 164.742 149.473C164.714 149.481 164.675 149.487 164.675 149.487C165.585 149.487 166.829 149.481 167.626 148.543C167.933 148.182 168.252 147.471 168.262 146.698C168.262 146.696 168.281 144.805 168.281 144.805C168.271 144.044 168.265 143.562 168.121 143.046C167.632 141.177 165.846 141.157 164.544 141.144C164.544 141.144 163.289 141.147 162.524 141.147C162.524 140.598 162.524 140.047 162.522 139.496C163.306 139.496 164.999 139.49 165.213 139.49C165.436 139.601 167.872 140.807 167.872 140.807V136.134H167.872ZM80.958 136.136L80.3463 136.14C78.2316 136.147 75.0036 136.154 74.7811 136.143C73.8678 136.16 72.5691 136.186 71.7817 137.292C71.3284 137.91 71.2945 138.613 71.2635 139.233C71.2635 139.265 71.2726 141.389 71.2726 141.389C71.2726 141.405 71.3918 142.371 71.3918 142.371L71.4038 142.42C71.9076 144.296 73.5978 144.316 74.7148 144.336C74.7148 144.336 76.1598 144.332 76.9992 144.33C76.9977 144.92 76.9954 145.581 76.9917 146.163C76.1839 146.164 74.2381 146.167 73.993 146.167C73.7547 146.035 71.434 144.718 71.434 144.718L71.4242 149.484L72.0306 149.489C76.5505 149.502 77.5354 149.509 77.8273 149.475C77.8009 149.484 77.7625 149.489 77.7625 149.489C78.669 149.489 79.9149 149.484 80.7083 148.546C81.0183 148.185 81.3336 147.474 81.3464 146.701C81.3464 146.699 81.3668 144.808 81.3668 144.808C81.3562 144.047 81.3494 143.565 81.2046 143.049C80.7159 141.18 78.933 141.161 77.6297 141.147C77.6297 141.147 76.3755 141.148 75.6085 141.148C75.6085 140.599 75.6062 140.049 75.6055 139.497C76.3883 139.497 78.0837 139.493 78.2987 139.493C78.5227 139.604 80.9572 140.81 80.9572 140.81V136.137V136.136H80.958ZM130.29 136.139C130.29 136.139 130.291 139.49 130.291 141.59C129.101 139.54 127.12 136.144 127.12 136.144L122.11 136.146C122.11 136.146 123.049 138.214 123.142 138.417C123.142 138.671 123.131 147.004 123.131 147.264C123.036 147.471 122.084 149.506 122.084 149.506L127.103 149.503C127.103 149.503 127.11 145.951 127.111 143.719C128.303 145.906 130.262 149.5 130.262 149.5H134.316C134.316 149.5 134.322 138.616 134.322 138.371C134.406 138.173 135.282 136.14 135.282 136.14H134.359V136.138L130.29 136.139ZM144.708 136.139C143.724 136.182 142.741 136.31 142.095 137.337H142.093C141.477 138.314 141.57 140.399 141.581 140.633C141.581 140.611 141.569 142.922 141.569 142.922L141.558 145.265C141.581 145.586 141.686 147.023 141.807 147.463C142.321 149.439 144.16 149.476 144.945 149.496H144.953L151.392 149.502L151.381 148.886L151.311 141.885C151.311 141.885 146.087 141.884 145.987 141.884C145.991 140.749 145.995 139.821 145.995 139.48C146.808 139.48 148.778 139.481 149.035 139.481C149.269 139.623 151.24 140.813 151.24 140.813L151.251 136.146L144.709 136.139H144.708ZM110.159 141.621C110.354 142.576 110.464 143.102 110.553 143.541C110.209 143.541 110.114 143.54 109.77 143.541C109.858 143.101 109.964 142.575 110.159 141.621ZM145.986 141.981C146.074 142.129 147.136 143.967 147.271 144.2V146.151H145.975C145.979 145.554 145.983 143.973 145.986 141.981Z" fill="white"/>
<path d="M96.7355 53.0242C93.8273 55.9346 100.19 56.593 101.044 56.8381C101.891 57.09 103.428 58.3624 103.621 58.9476C103.816 59.5223 103.248 61.3 103.248 61.3C103.248 61.3 104.599 59.6211 104.415 58.8254C104.23 58.029 103.248 57.3533 102.129 56.5184C101.01 55.691 97.5176 55.2083 96.9549 54.752C96.4059 54.3108 96.7355 53.0242 96.7355 53.0242ZM88.8986 55.3222C89.0766 56.3374 89.735 58.0079 90.6431 58.833C91.539 59.6573 93.8499 59.3805 93.8499 59.3805L93.5196 58.5057C93.5196 58.5057 91.6537 58.5811 91.3633 58.5705C91.0782 58.5637 90.8701 58.4838 90.5216 58.115C90.174 57.7424 88.8986 55.3222 88.8986 55.3222ZM91.9538 62.113L88.2432 63.558L87.311 63.4494C87.9362 64.1885 88.7923 64.2195 88.7923 64.2195L91.9538 62.113ZM89.5382 65.3953C89.5382 65.3953 88.2734 66.7151 87.8397 66.9142C87.3978 67.1141 84.3463 68.1435 83.4925 67.9731C82.6343 67.8019 81.6583 66.9036 81.6583 66.9036C82.2617 68.2868 83.4571 68.9098 83.4571 68.9098C83.4571 68.9098 87.3676 68.1149 87.8767 67.8434C88.3895 67.5734 89.5382 65.3953 89.5382 65.3953ZM86.1767 70.8232C85.2543 72.1393 83.129 74.4064 82.8221 74.6945C82.4487 75.0407 80.2088 75.3944 79.7034 75.5875C79.1913 75.7858 78.0555 75.5973 78.0555 75.5973C78.4696 75.9706 78.9621 76.2806 79.6054 76.2308C80.2525 76.181 82.1199 76.1071 83.0046 75.4238C83.6811 74.8989 85.4044 72.1061 86.1767 70.8232ZM73.5266 76.0701C73.2181 76.1026 72.5295 76.3643 71.0528 77.5242C69.1605 79.0032 69.5889 82.3624 69.8453 83.6415C70.1847 83.2938 70.5045 82.9808 70.7881 82.7093C70.5015 81.6995 70.1229 80.0508 70.4857 79.2981C71.0287 78.1668 73.7589 76.1146 73.7589 76.1146C73.7589 76.1146 73.7121 76.0513 73.5266 76.0701ZM73.9738 78.0605L73.4202 79.544L73.5982 80.1594C73.7536 80.0334 73.8999 79.9022 74.0523 79.7755L73.924 79.4867L73.9738 78.0605ZM113.004 78.3682L115.367 81.3058V110.862L112.955 113.996L121.743 114.537L121.732 101.922C123.755 102.075 125.774 102.251 127.792 102.45C129.927 102.655 132.345 102.927 133.49 100.537C134.16 99.1305 134.159 97.076 134.159 95.4304V86.8695C134.159 85.0406 134.159 82.5246 132.229 80.9189C130.462 79.599 127.207 79.3796 127.207 79.3796L113.003 78.3674L113.004 78.3682ZM66.8942 80.759C67.1921 82.1686 68.9652 84.3806 69.0482 84.4862C69.251 84.2592 69.4584 84.0337 69.6636 83.8278C68.8 83.4711 66.8942 80.759 66.8942 80.759ZM56.9803 81.2379L48.4443 82.646L50.6639 84.978V114.622L48.3824 118.289L64.0893 115.893L64.1263 108.32L60.4322 110.464L56.9788 111.038L56.9803 81.2379ZM142.733 81.3631C142.531 81.3548 142.331 81.3548 142.135 81.3661C140.828 81.44 139.683 81.9944 139.022 83.8112C138.454 85.291 138.452 87.2406 138.452 89.123V108.885C138.452 110.998 138.453 113.383 140.018 115.146C141.449 116.726 143.768 117.077 145.296 117.322C147.061 117.607 148.821 117.904 150.58 118.219C153.04 118.657 155.818 119.206 156.711 115.466C157.058 113.978 157.057 111.977 157.057 110.039V92.8548C157.057 90.1118 157.057 87.9487 156.281 86.1711C155.164 83.6272 153.096 83.0367 150.292 82.5389C148.396 82.1972 146.499 81.8827 144.594 81.5826C143.969 81.4838 143.34 81.3872 142.733 81.3631ZM98.8525 83.2501C98.8525 83.2501 98.8894 84.8482 98.8268 85.2284C98.7665 85.6183 99.0629 86.782 99.397 86.9902C99.7213 87.1945 101.683 87.6003 101.683 87.6003C101.683 87.6003 103.581 87.3793 103.783 87.1945C103.978 87.0098 104.155 86.2872 104.155 86.2872L101.764 86.6847C101.764 86.6847 100.517 86.4049 100.241 86.1002C99.9657 85.797 99.8216 84.4417 99.6346 84.1483C99.4528 83.8519 98.848 83.2501 98.848 83.2501H98.8525ZM39.7167 84.361L26.651 87.4495L28.8472 89.6223L24.2293 120.489L22.1462 124.254L29.3525 122.341L30.6739 112.828C33.1974 112.208 38.2626 111.068 38.2626 111.068L39.593 119.968L45.5421 118.751L39.7167 84.361ZM121.736 84.4002L127.108 84.8437C127.544 84.8777 127.9 85.2615 127.9 85.7027V96.6077C127.9 97.0443 127.544 97.3679 127.108 97.3309L121.736 96.8845V84.4002ZM160.42 84.53L162.622 87.7353V117.383C162.627 117.383 160.362 120.146 160.362 120.146L175.854 123.933L175.909 116.156L172.091 117.202L168.874 116.281L168.877 86.4841L160.42 84.53ZM145.607 87.2172L149.982 87.9563C150.415 88.0294 150.771 88.4473 150.771 88.8817V111.977C150.771 112.416 150.415 112.711 149.982 112.636L145.607 111.891C145.171 111.819 144.817 111.407 144.817 110.968V87.8695C144.817 87.4366 145.171 87.141 145.607 87.2172ZM174.503 87.9344L177.063 91.2974L183.925 110.741V123.011L181.556 125.556L189.873 128.155V112.638C189.879 112.608 197.393 95.1068 197.393 95.1068L191.26 92.9626L186.902 106.17L182.753 90.2822L174.503 87.9344ZM97.3562 88.9096C97.3562 88.9096 97.5606 90.6993 97.4882 91.455C97.4173 92.2137 97.3456 94.0834 96.9361 95.6694C96.5182 97.254 94.4012 101.547 94.4012 101.547C94.4012 101.547 97.9459 97.1748 98.1413 96.6921C98.3442 96.2102 98.8796 92.3548 98.6843 91.6315C98.4822 90.912 97.3562 88.9096 97.3562 88.9096ZM16.9807 90.5477C15.992 90.5085 14.7996 90.8252 13.4292 91.2521C11.5769 91.8351 7.88586 93.0516 7.88586 93.0516C5.73564 93.7734 3.51604 94.5532 2.50316 97.972C1.95335 99.7263 1.9541 101.675 1.9541 103.559V123.318C1.9541 125.432 1.9541 127.819 3.46249 128.831C4.84041 129.714 7.07962 128.948 8.56614 128.454C10.2797 127.884 11.9925 127.331 13.7105 126.797C16.1141 126.042 18.8458 125.239 19.7245 121.071C20.0684 119.411 20.0676 117.412 20.0676 115.472V112.763L13.896 114.591V120.487C13.896 120.921 13.5423 121.384 13.1034 121.517L8.88894 122.882C8.45226 123.016 8.1008 122.769 8.1008 122.336V99.1998C8.1008 98.7669 8.45226 98.3039 8.88894 98.1689L13.1034 96.8845C13.5423 96.751 13.896 96.9983 13.896 97.4365V101.965L20.0676 100.121V98.288C20.0676 95.5473 20.0684 93.3797 19.3036 91.9837C18.7531 90.9821 17.9687 90.5869 16.9807 90.5477ZM35.2187 90.685C35.994 95.8814 37.5476 106.274 37.5476 106.274L31.3889 107.702C31.3889 107.702 32.9365 96.5918 33.7118 91.0402C34.2126 90.9195 34.7164 90.8049 35.2187 90.685ZM97.2227 101.534C97.2227 101.534 96.4738 104.554 94.494 103.841C94.494 103.841 93.9125 104.383 92.8898 103.863L92.7578 105.302C92.7578 105.302 93.7209 105.265 94.2987 104.797C94.2987 104.797 95.402 105.24 96.3961 104.476C96.3961 104.476 98.1865 105.905 99.4626 106.11C99.4626 106.11 97.8932 105.167 96.9941 103.374C96.9941 103.374 97.1933 102.337 97.2227 101.534ZM108.116 115.074C108.116 115.074 106.249 116.816 105.686 117.4C105.131 117.983 104.878 121.254 104.878 121.254L102.271 122.843L100.9 125.605L97.0085 127.541C97.0085 127.541 97.5952 128.168 99.0531 128.488L102.073 126.518L103.172 123.811L105.866 121.698C105.866 121.698 105.962 119.083 106.192 118.287C106.418 117.492 107.806 116.135 108.116 115.074ZM82.6282 121.124C82.6282 121.124 83.4495 122.498 83.5023 122.967C83.5491 123.442 82.9714 124.628 83.0189 125.161C83.0649 125.701 84.4119 127.359 84.5099 128.503C84.5989 129.641 83.3869 133.486 83.3869 133.486C83.3869 133.486 84.8011 133.4 85.1487 133.077C85.1487 133.077 85.9701 128.824 85.7219 128.277C85.473 127.728 84.0657 125.807 84.2271 125.072C84.3908 124.336 84.746 123.747 84.574 122.871C84.4104 121.989 83.6328 121.16 83.6328 121.16L82.6282 121.124ZM112.885 136.728L107.45 136.737L105.455 147.456L104.578 148.884H108.386L108.8 145.793L111.506 145.79L111.995 148.884L115.737 148.878L114.876 147.256L112.885 136.729V136.728ZM31.3632 136.729L32.5843 138.306L32.5903 147.489L31.9198 148.87H35.3831L35.3876 141.398L38.7385 147.201L42.0547 141.256L42.0736 148.87L45.696 148.88L44.9493 147.293L44.9606 138.15L46.1477 136.74L42.0592 136.743L38.7287 142.787L35.4932 136.74L31.3632 136.729ZM53.8021 136.737L54.5623 138.278C54.5623 138.278 54.5533 145.483 54.5533 146.253C54.5533 147.023 54.649 147.52 54.649 147.52C54.9764 148.764 56.3128 148.878 57.9019 148.878C57.9019 148.88 60.3395 148.873 60.3425 148.869C60.9964 148.869 62.36 148.861 62.9407 147.689C63.1888 147.213 63.1971 146.662 63.2046 146.129V138.232L63.9159 136.74L60.0755 136.743L60.0951 146.747H57.6734L57.6673 136.743L53.8021 136.737ZM87.8586 136.741V140.653L90.1083 138.897L91.8317 138.894V147.43L91.1084 148.872L95.7324 148.9L95.0106 147.313L95.0001 138.886L96.6812 138.892L98.9332 140.641V136.75L87.8586 136.741ZM80.349 136.743C80.349 136.743 74.7416 136.763 74.7416 136.748C73.9112 136.766 72.8855 136.792 72.2784 137.643C71.9307 138.116 71.9005 138.665 71.8704 139.26C71.8704 139.26 71.8741 141.282 71.8779 141.328C71.8779 141.328 71.9895 142.255 71.9895 142.26C72.344 143.574 73.3599 143.702 74.7235 143.724C75.6866 143.727 77.6113 143.718 77.6113 143.718L77.5977 146.767L73.8328 146.773L72.0416 145.756L72.0355 148.872C72.0355 148.872 77.6897 148.896 77.729 148.88C78.5752 148.879 79.6258 148.88 80.2465 148.151C80.484 147.87 80.7292 147.279 80.7382 146.689L80.7601 144.798C80.7503 144.085 80.7442 143.654 80.6205 143.206C80.2714 141.873 79.1514 141.769 77.6226 141.752C76.7485 141.755 75.0025 141.755 75.0025 141.755L74.9995 138.887L78.4417 138.88L80.349 139.828V136.743ZM167.263 136.743C167.263 136.743 161.667 136.772 161.667 136.757C160.832 136.778 159.797 136.792 159.194 137.643C158.844 138.116 158.812 138.665 158.783 139.26C158.783 139.26 158.787 141.282 158.792 141.328C158.792 141.328 158.904 142.255 158.904 142.26C159.258 143.574 160.273 143.702 161.638 143.724C162.6 143.727 164.525 143.718 164.525 143.718L164.512 146.767L160.746 146.773L158.954 145.756L158.948 148.872C158.948 148.872 164.606 148.896 164.643 148.88C165.49 148.879 166.538 148.88 167.16 148.151C167.399 147.87 167.643 147.279 167.65 146.689L167.673 144.798C167.662 144.085 167.657 143.654 167.533 143.206C167.183 141.873 166.067 141.769 164.538 141.752C163.663 141.755 161.915 141.755 161.915 141.755L161.912 138.886L165.354 138.879L167.263 139.828V136.743ZM130.898 136.746L130.903 143.844L126.768 136.749L123.052 136.752L123.749 138.287L123.736 147.398L123.038 148.895L126.494 148.892L126.506 141.335L130.62 148.89L133.705 148.892L133.711 138.243L134.356 136.746H130.898ZM144.696 136.746C143.761 136.79 143.078 136.913 142.606 137.661C142.073 138.503 142.185 140.602 142.185 140.602C142.204 142.154 142.144 143.707 142.164 145.259C142.164 145.259 142.28 146.895 142.389 147.3C142.786 148.826 144.148 148.869 144.957 148.884C146.895 148.91 150.768 148.892 150.768 148.892L150.705 142.494L146.985 142.492L147.878 144.036V146.763L145.361 146.76L145.386 138.867L149.201 138.873L150.63 139.735L150.636 136.754C150.636 136.754 146.68 136.772 144.696 136.746ZM110.152 138.57L111.296 144.144L109.024 144.151L110.152 138.57Z" fill="#003831"/>
<path d="M100.288 63.5754L100.747 68.0599L100.07 69.5404L102.085 68.1949L100.288 63.5754ZM97.6467 63.8598C97.3978 64.4842 97.8028 67.2084 97.8028 67.2084C97.8028 67.2084 96.7077 67.1451 96.9898 68.7432C97.3186 70.6061 100.841 73.9434 100.841 73.9434L99.3067 69.8036C99.3067 69.8036 99.6823 69.7455 99.6823 67.9611C99.6823 66.1767 97.6467 63.8598 97.6467 63.8598ZM104.804 64.3787L105.535 69.2824L106.518 68.0742L104.804 64.3787ZM64.6484 72.8151C64.2381 72.8106 63.7577 72.8309 63.1724 72.886C60.8367 73.0987 60.2846 73.7556 59.1231 74.6169C59.1231 74.6169 62.925 73.4803 63.5246 73.5738C63.5246 73.5738 62.836 73.9192 62.0615 74.4962C61.2907 75.0694 59.2921 76.2791 56 75.8598C56 75.8598 56.893 76.5491 56.9518 76.5657C58.3916 77.0989 59.7883 77.1238 60.9317 76.6404C62.0788 76.1524 65.5941 74.6274 68.1539 76.5182C68.1539 76.5182 70.1615 75.0204 70.7672 74.96C70.7672 74.96 68.5551 73.6809 67.3688 73.3295C66.4735 73.0753 65.8785 72.8294 64.6484 72.8151ZM74.6603 79.2446C74.6573 79.2499 74.6505 79.2446 74.6467 79.2567C74.6535 79.2446 74.6566 79.2499 74.6633 79.2446H74.6603ZM100.274 79.7763C100.274 79.7763 99.766 80.4363 99.5684 80.6678C99.3655 80.8993 99.4508 81.2447 99.6303 81.5947C99.8082 81.9341 101.904 84.082 101.904 84.082L101.247 82.1332C101.247 82.1332 102.007 81.29 101.918 80.9951C101.836 80.6995 101.569 80.0659 101.326 79.9604C101.087 79.854 100.274 79.7763 100.274 79.7763ZM105.944 80.4679C105.854 80.48 105.766 80.5192 105.683 80.5969C105.333 80.9189 105.025 81.3277 104.962 81.827C104.899 82.3308 105.225 82.7275 105.225 82.7275L105.576 82.7335C105.604 82.7245 105.617 82.7184 105.636 82.7139C105.665 82.6905 105.708 82.6619 105.761 82.6181C106.015 82.4198 106.478 82.0216 106.521 81.7169C106.579 81.2968 106.963 81.1912 106.721 80.8842C106.59 80.7281 106.41 80.5735 106.213 80.5019C106.125 80.4717 106.033 80.4559 105.944 80.4679Z" fill="black"/>
<path d="M95.3859 61.8422C95.2155 62.0089 94.9674 62.3098 94.6612 62.7043C91.8231 67.2211 88.9277 75.3898 88.9277 75.3898C88.9277 75.3898 83.4259 78.8584 82.7102 79.3743C82.0736 79.8283 79.2054 83.5932 78.5297 84.4832C78.4376 84.6031 78.3916 84.6732 78.3916 84.6732L78.2031 84.9659C78.4452 82.9748 78.7589 81.6323 79.0531 80.7295H79.0516C77.2415 80.9143 74.5784 82.3375 73.2269 83.0819C73.1371 83.1324 73.0534 83.1882 72.9546 83.2531C72.9139 83.2833 72.8687 83.3149 72.8234 83.3519C72.7653 83.3934 72.7057 83.4364 72.6462 83.4831C72.5911 83.5261 72.5376 83.5766 72.4787 83.6196C72.4244 83.6649 72.3701 83.7033 72.3136 83.7569C72.2472 83.8135 72.1838 83.87 72.116 83.9304C72.0662 83.9771 72.0096 84.0224 71.9538 84.0721C71.8807 84.1355 71.8098 84.2049 71.7358 84.2795C71.6846 84.3248 71.634 84.3731 71.5843 84.4198C71.5051 84.496 71.4229 84.5767 71.3414 84.6566C71.2939 84.7004 71.2539 84.7456 71.2072 84.7894C71.1159 84.8746 71.0284 84.9598 70.9394 85.0534C70.8987 85.0926 70.864 85.1325 70.824 85.1725C70.7305 85.266 70.6355 85.3656 70.5412 85.4629C70.5073 85.4961 70.4779 85.5285 70.4484 85.5587C70.3436 85.665 70.2463 85.7691 70.1437 85.8792C70.1256 85.8996 70.103 85.9237 70.0789 85.9456C69.9718 86.0557 69.8624 86.1801 69.7531 86.2932C69.747 86.3 69.7448 86.3091 69.7372 86.3151C69.017 87.0852 68.3902 87.8047 68.0403 88.2127C68.032 88.2202 68.0237 88.2285 68.0184 88.2346C67.9686 88.2889 67.9264 88.3386 67.8917 88.3839C67.8751 88.4322 67.8532 88.4774 67.8321 88.5189C67.0402 90.3953 66.4799 92.5259 66.421 94.0766C66.3358 96.4312 68.2786 100.966 68.523 101.557C68.7681 102.143 69.569 102.885 69.8737 103.113C70.1732 103.349 72.9893 104.5 72.9893 104.5C72.9893 104.5 70.1445 99.5151 70.1452 95.858C70.1407 92.2009 71.3987 88.2391 71.3987 88.2391C70.7305 92.0078 71.2645 95.5631 71.4576 96.5307C71.6876 97.6703 72.76 99.5271 73.5376 100.223C74.3114 100.916 77.7076 102.858 77.7076 102.858L77.7257 101.748L79.1692 97.6077C79.1692 97.6077 78.6383 96.2946 78.774 95.0118C78.9105 93.7221 80.3548 90.703 80.3548 90.703C79.3676 93.3389 80.6022 98.6002 80.6022 98.6002C79.2703 100.958 79.403 103.41 79.5229 103.95C79.6323 104.489 80.2055 106.289 80.5961 106.524C80.9913 106.761 81.6701 106.723 81.6701 106.723C84.214 106.12 86.6094 103.951 86.7225 103.844C86.6795 103.881 86.5166 103.919 86.5626 102.64C86.6003 101.56 87.2678 100.613 87.617 100.198C87.4955 100.113 87.2919 99.9472 86.9261 99.6139C86.4653 99.1908 85.5414 99.0467 84.6092 99.0128C83.4199 98.9834 82.2343 99.138 82.0359 99.1644C81.9002 99.3024 81.8187 99.4019 81.8187 99.4019C82.1747 97.0511 84.4192 96.5541 84.4192 96.5541L86.8258 96.5088C87.5642 97.07 89.7747 97.5534 89.7747 97.5534C89.7747 97.5534 89.9655 95.9492 89.3991 94.3714C88.832 92.7937 87.6124 91.9467 87.6124 91.9467C87.6124 91.9467 89.0288 92.3102 89.6397 92.7348C90.2423 93.1549 91.4664 95.2063 91.4664 95.2063C91.4664 95.2063 91.7771 92.7182 91.5086 91.4633C91.2424 90.2007 89.7649 86.7201 89.7649 86.7201L88.43 85.3392C89.2347 85.0978 91.4837 84.6016 92.1452 84.7615C92.8089 84.9153 96.2797 87.4871 96.2797 87.4871C96.2797 87.4871 95.7042 83.6852 95.6062 82.6128C95.5134 81.538 93.9914 75.4735 93.8391 74.8393C93.6867 74.2088 94.1264 73.1144 94.1264 73.1144L96.8219 63.9019C96.8219 63.9019 95.9516 68.2732 95.5888 69.4694C95.2389 70.661 95.3399 71.6422 95.3399 71.6422L96.1205 75.7684C96.1205 75.7684 96.1409 76.5264 96.4901 76.6697C96.8446 76.8213 98.0731 77.3507 98.3213 77.8938C98.4857 78.2701 98.5596 79.0598 98.638 79.958C98.6765 80.3781 98.6825 80.3788 98.681 80.3773C98.6931 80.3276 98.7082 80.2755 98.7202 80.2288C98.7474 80.1518 98.7798 80.0772 98.8062 80.0017C98.8273 79.9452 98.8462 79.8901 98.8718 79.8381C98.9163 79.7302 98.9744 79.6322 99.028 79.5206C99.0649 79.4685 99.0913 79.4059 99.1313 79.3494C99.1992 79.2423 99.2783 79.1427 99.3628 79.0432C99.4043 78.9934 99.436 78.9474 99.4835 78.8968C99.6177 78.7588 99.7708 78.6299 99.9488 78.5228C101.175 77.7369 101.728 78.6299 102.135 79.2091L102.251 79.7498L103.462 80.9535L102.441 82.3224C102.441 82.3224 103.024 83.695 103.157 83.9892C103.289 84.278 104.464 83.8421 104.464 83.8421C104.464 83.8421 104.683 83.3179 104.729 83.1746C104.773 83.0645 105.308 82.8383 105.568 82.7312L105.218 82.7259C105.218 82.7259 104.893 82.3284 104.956 81.8254C105.018 81.3261 105.325 80.9173 105.676 80.5953C105.841 80.4384 106.03 80.4399 106.206 80.4995C106.112 80.4354 106.013 80.3713 105.95 80.3215C105.76 80.1662 104.595 81.569 104.595 81.569C104.595 81.569 104.353 80.3147 104.123 80.0033C103.891 79.7099 102.932 79.4361 102.653 79.2755C102.653 79.2755 102.327 78.4127 101.97 77.583C101.697 76.4819 101.315 75.104 100.864 73.9976C100.814 73.9576 97.4517 70.6761 97.0354 68.9301C96.6145 67.1781 97.5339 67.2626 97.828 67.2249C97.828 67.2249 97.3808 64.7413 97.6598 63.7865C97.6598 63.7865 97.8235 64.598 98.0324 65.5001C97.9065 64.8462 97.742 63.9223 97.742 63.9223C97.742 63.9223 98.7557 65.2678 99.3243 66.559C99.3243 66.4172 99.3259 66.2739 99.3183 66.1389C99.3183 66.0672 99.3206 66.0076 99.3168 65.9473C99.31 65.7746 99.3002 65.6064 99.2859 65.4382C99.2007 64.5611 98.896 63.7088 97.8982 62.8528C97.8891 62.843 97.8778 62.8325 97.8733 62.8279C97.8424 62.8091 97.8137 62.785 97.7926 62.7631C97.5535 62.5708 97.285 62.3724 96.972 62.1808C95.7223 62.4508 95.3791 61.8407 95.3791 61.8407L95.3859 61.8422ZM131.305 81.1971C132.409 82.4484 132.684 84.901 132.684 86.3023L132.561 94.8594C132.561 96.4327 132.596 98.3446 132.127 99.6546C131.628 101.051 130.89 101.007 127.912 100.803C124.935 100.6 120.189 100.105 120.189 100.105C120.189 100.105 120.105 111.408 120.105 112.776C119.277 112.726 116.898 112.575 115.056 112.457C114.822 112.76 114.582 113.077 114.367 113.357C116.117 113.463 119.938 113.698 121.007 113.763C121.006 112.394 120.994 101.128 120.994 101.128L127.856 101.727C127.855 101.727 127.947 101.735 127.947 101.735C130.343 101.969 131.98 101.987 132.825 100.225C133.427 98.9705 133.428 97.0074 133.428 95.4326V86.8725C133.428 85.0896 133.428 82.87 131.756 81.4822C131.619 81.3774 131.464 81.2839 131.305 81.1971H131.305ZM56.2462 82.0999C56.0222 82.1354 55.7039 82.1904 55.3283 82.25V111.103L56.2447 110.954C56.2447 106.033 56.2462 83.5427 56.2462 82.0999ZM120.099 82.6671L120.085 96.7788L120.998 96.8528V83.6076L127.162 84.1181C127.394 84.137 127.609 84.2117 127.802 84.3203C127.586 83.7237 127.069 83.2259 126.453 83.1769L120.099 82.6671ZM154.529 84.8957C154.611 85.042 154.69 85.1989 154.763 85.3641C155.481 87.0052 155.48 89.1011 155.48 91.7574V108.943C155.48 110.838 155.534 113.136 155.219 114.544C154.621 117.217 153.702 117.048 150.926 116.555L149.861 116.402L144.489 115.493C143.077 115.264 141.187 114.949 139.945 113.779C140.11 114.091 140.31 114.388 140.557 114.666C141.788 116.022 143.834 116.349 145.328 116.592L150.702 117.502L150.799 117.518C153.574 118.012 155.307 118.169 155.993 115.298C156.32 113.895 156.32 111.937 156.32 110.041V92.8578C156.32 90.2015 156.32 88.1018 155.606 86.4645C155.319 85.8098 154.968 85.2985 154.529 84.8957ZM39.1206 85.2555C38.9532 85.2939 38.6561 85.3641 38.2654 85.4576C39.1817 90.8554 43.4791 116.229 43.6813 117.424C42.9233 117.58 41.2045 117.936 40.0581 118.171C40.1192 118.583 40.1667 118.905 40.1961 119.099C41.1939 118.896 43.7763 118.368 44.7009 118.178C44.4792 116.872 39.3635 86.69 39.1206 85.2555ZM145.034 85.6929C144.02 85.7894 143.231 86.653 143.231 87.9057L143.241 110.053C143.241 110.688 143.634 111.266 144.192 111.544C144.122 111.363 144.081 111.169 144.081 110.971V87.8733C144.081 87.4532 144.259 87.0595 144.571 86.7993C144.884 86.5361 145.305 86.4245 145.728 86.5014L150.098 87.2413C150.257 87.2662 150.405 87.3212 150.546 87.3899C150.333 86.8498 149.843 86.423 149.258 86.3234L145.48 85.6989C145.328 85.6801 145.179 85.6786 145.034 85.6929ZM167.283 86.8717C167.283 88.5694 167.283 91.0439 167.278 115.805L168.137 116.066C168.137 111.509 168.14 88.0747 168.14 87.0686C167.97 87.0286 167.665 86.9562 167.283 86.8717ZM35.0254 89.0046L32.259 89.6479L29.6562 108.12L30.6208 107.896L33.0531 90.4413L35.1611 89.9511L35.0254 89.0046ZM181.243 90.6118C182 93.5169 185.867 108.331 185.867 108.331C185.867 108.331 186.048 107.783 186.335 106.899C185.176 102.46 182.31 91.4836 182.15 90.872C182.009 90.8305 181.682 90.7385 181.243 90.6118ZM17.5883 91.3992C17.66 91.4904 17.7279 91.59 17.7905 91.7039C18.467 92.9362 18.4662 95.0185 18.4662 97.6575V98.9479C17.8802 99.1251 15.9744 99.6938 14.6191 100.099V100.987C15.8341 100.625 18.602 99.7979 19.3313 99.5814V98.291C19.3313 95.6521 19.3305 93.5735 18.6548 92.3374C18.384 91.8456 18.0386 91.547 17.5883 91.3992ZM195.61 95.2629C188.599 111.591 188.283 111.986 188.283 111.986C188.283 111.986 188.404 124.241 188.404 125.979C187.455 125.684 185.227 124.989 183.56 124.468C183.322 124.723 183.083 124.982 182.874 125.208C184.318 125.655 187.869 126.765 189.132 127.162V112.554L189.154 112.47C189.175 112.384 189.191 112.344 196.403 95.5405C196.202 95.4718 195.927 95.376 195.61 95.2629ZM12.3542 95.496C12.2449 95.5042 12.1347 95.5254 12.0246 95.5593C12.0246 95.5593 7.81018 96.8422 7.80868 96.8422C7.06428 97.0722 6.50165 98.2224 6.50165 98.9826V121.703C6.50165 122.139 6.69096 122.529 7.01903 122.769C7.16912 122.882 7.34409 122.949 7.52887 122.986C7.4263 122.793 7.36672 122.574 7.36672 122.339V99.2036C7.36672 98.4486 7.92709 97.7035 8.66997 97.4765C8.67374 97.475 12.8905 96.1906 12.8905 96.1906C13.131 96.1189 13.3724 96.1114 13.5949 96.1544C13.5096 95.993 13.3943 95.8519 13.2472 95.7403C12.9945 95.554 12.6815 95.4703 12.3542 95.496ZM101.252 97.2736C101.126 97.26 101.007 97.3128 100.893 97.4342C100.676 97.6809 100.211 97.9916 99.7309 98.2578C99.255 98.5308 98.8085 101.336 98.8085 101.336C99.5574 102.512 102.608 104.454 103.164 105.016C103.719 105.574 104.232 106.236 104.232 106.236C102.948 105.943 100.091 104.686 100.091 104.686C101.487 105.779 103.748 108.065 104.38 108.625C105.003 109.188 106.126 109.943 106.126 109.943L106.941 110.117C106.941 110.117 107.856 111.772 108.47 111.722C109.078 111.667 109.365 111.665 109.566 111.17C109.763 110.67 109.303 109.255 109.044 108.452C108.792 107.655 107.441 106.206 106.786 105.424C106.13 104.649 104.792 101.981 104.63 101.431C104.473 100.882 104.058 100.404 103.924 100.149C103.788 99.8929 101.925 97.8166 101.649 97.518C101.51 97.3686 101.378 97.2879 101.252 97.2736ZM88.4322 104.003L87.4088 111.319L87.4073 111.321C87.4073 111.321 86.4299 112.532 86.012 113.094C85.5874 113.659 85.3091 115.211 85.3091 115.211C84.7193 114.299 85.3989 112.676 85.3989 112.676C85.3989 112.676 84.0104 111.683 83.8777 111.683C83.7449 111.679 81.4884 112.486 81.4884 112.486C81.4884 112.486 80.3314 116.055 80.5826 116.733C80.8209 117.408 82.2923 119.777 82.2923 119.777L87.0325 119.286C87.0325 119.286 88.114 117.758 88.6178 117.38C88.9308 117.131 89.243 116.698 89.4972 116.257C89.507 116.239 89.513 116.221 89.5236 116.207C89.55 116.125 89.5809 116.036 89.602 115.949C89.6261 115.876 89.6458 115.793 89.6669 115.711C89.6774 115.667 89.6925 115.619 89.7023 115.567C89.7174 115.492 89.7317 115.416 89.7491 115.332C89.7574 115.279 89.7672 115.222 89.777 115.168C89.7906 115.095 89.8056 115.015 89.8109 114.938C89.8185 114.871 89.832 114.809 89.8373 114.746C89.8471 114.672 89.8539 114.607 89.8615 114.532C89.8713 114.462 89.8713 114.389 89.8818 114.315C89.8848 114.257 89.8924 114.187 89.8946 114.125C89.9014 114.044 89.9067 113.961 89.9112 113.879C89.9165 113.823 89.9173 113.769 89.9173 113.716C89.9263 113.629 89.9301 113.539 89.9293 113.45C89.9331 113.404 89.9338 113.355 89.9338 113.314C89.9384 113.219 89.9376 113.122 89.9399 113.03C89.9384 112.995 89.9369 112.963 89.9399 112.926C89.9399 112.824 89.9406 112.725 89.9399 112.625C89.9339 112.603 89.9369 112.582 89.9369 112.56C89.9354 112.45 89.9339 112.343 89.9293 112.243C89.9308 112.233 89.9286 112.224 89.9293 112.213C89.9248 112.11 89.9188 112.014 89.9188 111.923C89.9165 111.917 89.9157 111.907 89.9127 111.897C89.9075 111.707 89.9007 111.543 89.8878 111.415C89.8924 111.407 89.8878 111.408 89.8878 111.408C89.8758 111.207 89.8637 111.088 89.8637 111.088L90.0779 105.135C90.0817 105.134 90.0854 105.134 90.0854 105.134C89.7287 104.834 89.4549 104.5 89.3365 104.344C89.2898 104.293 89.2732 104.257 89.2732 104.257C89.2732 104.257 89.2596 104.246 89.2558 104.243L88.4322 104.003ZM76.218 105.925C76.1705 107.181 74.7376 108.231 74.7376 108.231L75.359 108.571C76.6132 108.507 77.9248 106.667 77.9248 106.667C77.3086 106.746 76.218 105.925 76.218 105.925ZM86.8183 107.514C85.7601 110.09 83.0473 110.599 83.0367 110.627C83.0126 110.657 84.1582 110.404 84.5308 110.461C84.8227 110.507 85.5987 111.007 85.5987 111.007L86.1463 110.004L86.8183 107.514ZM72.9335 109.112C72.9335 109.112 76.3855 112.572 76.7633 112.944C77.1419 113.315 77.6186 113.655 77.5334 114.045C77.4459 114.435 76.9466 116.382 77.4308 116.868C77.9097 117.351 76.8682 119.671 76.068 120.961L78.1329 121.766C78.1329 121.766 79.1149 119.208 79.216 118.315C79.3193 117.43 78.9648 116.662 78.7974 116.332C78.6322 116.009 78.4934 115.261 78.6609 114.659C78.8283 114.056 78.8796 112.8 78.2529 112.385C77.6178 111.973 72.9335 109.112 72.9335 109.112ZM38.0776 109.385L29.2233 111.437C29.2233 111.437 28.0204 120.103 27.9005 120.971C27.4344 121.093 25.8083 121.526 24.2652 121.936C24.0593 122.307 23.8293 122.723 23.6144 123.112C25.4116 122.634 28.0762 121.93 28.6946 121.763C28.8153 120.899 30.019 112.231 30.019 112.231L38.2148 110.329C38.1983 110.224 38.1915 110.167 38.1915 110.167L38.0776 109.385ZM63.3907 109.591C63.1071 109.754 62.7858 109.943 62.4668 110.129C62.4592 111.766 62.4487 113.816 62.4464 114.473C61.5783 114.608 54.1789 115.732 50.4841 116.298C50.2714 116.639 50.0474 117.002 49.843 117.331C52.2708 116.96 62.3423 115.426 63.3628 115.269C63.3688 114.409 63.3839 111.182 63.3907 109.591ZM19.3418 113.743C19.105 113.813 18.8056 113.904 18.4775 113.999V114.845C18.4775 116.746 18.4775 118.709 18.1487 120.291C17.3696 123.985 15.8401 124.448 12.7268 125.439L12.631 125.47L7.47381 127.133L7.38633 127.162C6.21732 127.549 4.52114 128.111 3.41699 127.78C3.54596 127.951 3.69378 128.107 3.87026 128.228C4.91784 128.901 6.92551 128.235 8.2529 127.794L8.33812 127.767L13.4938 126.102L13.5911 126.074C15.9789 125.322 18.2332 124.618 19.0123 120.923C19.3411 119.344 19.3418 117.378 19.3418 115.475V113.743ZM175.175 117.116C174.951 117.178 174.683 117.252 174.401 117.329C174.391 118.782 174.374 120.881 174.368 121.87C173.129 121.567 165.697 119.752 162.306 118.924C162.122 119.156 161.914 119.409 161.665 119.715C163.48 120.16 173.668 122.648 175.135 123.003C175.143 121.773 175.167 118.396 175.175 117.116Z" fill="#F7EEC5"/>
<path d="M97.663 63.8597C97.8161 64.4865 98.237 66.2091 98.332 66.6118C98.4459 67.1066 98.4617 67.2717 98.4617 67.2717H98.4632C98.4632 67.2717 99.0628 67.4995 99.1231 68.5425C99.1729 69.382 98.6457 69.6459 98.6457 69.6459L100.854 73.9388L100.857 73.9433L99.323 69.8036C99.323 69.8036 99.6978 69.744 99.6978 67.9596C99.6978 66.1751 97.663 63.8597 97.663 63.8597ZM95.2534 64.4435C95.2534 64.4435 92.7487 67.9399 91.7132 70.2704C90.6761 72.6039 89.296 75.8417 89.296 75.8417C89.296 75.8417 85.2369 78.1706 83.8137 79.5968C82.389 81.02 80.1016 84.6461 80.1016 84.6461C80.1016 84.6461 83.8115 80.8073 85.712 80.1594C87.6103 79.5123 90.462 78.3463 91.152 77.4383C91.8421 76.5325 92.576 71.8278 93.3106 69.7945C94.0451 67.7672 95.2534 64.4435 95.2534 64.4435ZM106.661 69.1188C106.661 69.1188 106.427 69.4189 106.359 69.5419C106.359 69.5419 104.76 71.373 104.51 72.2622C104.255 73.159 104.424 75.4057 104.791 76.6404C104.858 76.8666 104.925 77.4443 104.925 77.4443L105.044 78.059C105.044 78.059 104.458 78.3878 104.12 78.829C103.784 79.2672 104.053 79.8238 104.053 79.8238C104.053 79.8238 104.541 79.2567 105.065 79.05C105.4 78.9112 105.59 78.9308 105.59 78.9308C105.59 78.9308 105.935 76.7821 106.016 75.546C106.095 74.3091 105.859 72.6039 105.859 72.6039C105.859 72.6039 106.025 72.1099 106.304 71.2297C106.581 70.3617 106.661 69.1188 106.661 69.1188Z" fill="#B38F4F"/>
<path d="M97.3984 68.8841C97.3984 68.8841 97.7765 69.1151 98.0565 68.9652C98.3384 68.8171 98.5505 68.4541 98.5505 68.4541C98.5505 68.4541 98.5194 69.247 98.1225 69.494C97.7284 69.7401 97.3984 68.8841 97.3984 68.8841Z" fill="#FFFDEE"/>
</svg>
