<svg width="200" height="201" viewBox="0 0 200 201" fill="none" xmlns="http://www.w3.org/2000/svg">
<path d="M65.2835 118.631L65.2882 118.621L65.2929 118.611C74.9258 98.5657 91.8844 87.9479 105.862 87.9479C108.171 87.9479 110.061 88.5269 111.457 89.2138C111.684 89.3252 111.901 89.4414 112.107 89.5604C112.898 88.6058 113.929 87.9479 115.25 87.9479H127.213C128.481 87.9479 130.011 88.1383 131.173 89.2253C132.36 90.3364 132.695 91.9341 132.695 93.5822C132.695 93.8929 132.632 94.1743 132.596 94.3227C132.551 94.5077 132.492 94.7041 132.428 94.8985C132.301 95.2892 132.124 95.7674 131.914 96.305C131.491 97.3849 130.895 98.8041 130.191 100.44C129.428 102.213 128.52 104.284 127.551 106.493C126.739 108.345 125.884 110.295 125.036 112.248C123.164 116.561 121.305 120.939 119.916 124.541C119.221 126.344 118.654 127.925 118.264 129.193C117.849 130.539 117.708 131.304 117.708 131.59C117.708 132.434 117.737 133.033 117.793 133.465C117.813 133.622 117.836 133.739 117.855 133.824C117.925 133.829 118.015 133.833 118.128 133.833C123.032 133.833 128.231 131.189 135.571 124.574C134.948 121.966 134.602 118.79 134.602 115.539C134.602 94.7109 144.492 75.3125 155.888 61.188C161.597 54.1114 167.736 48.2928 173.309 44.2246C176.094 42.1911 178.769 40.5726 181.204 39.455C183.608 38.3517 185.919 37.6711 187.938 37.6711C189.562 37.6711 190.977 37.9875 192.168 38.6369C193.371 39.2924 194.232 40.2257 194.83 41.2774C195.975 43.2939 196.151 45.7563 196.151 47.6975C196.151 51.726 194.686 57.0058 192.392 62.7999C190.075 68.6502 186.827 75.2307 183.08 81.9343C175.741 95.0604 166.406 108.801 158.181 118.642C158.728 126.952 161.293 131.99 164.56 135.273C167.977 138.708 172.377 140.448 176.842 141.787C177.237 141.9 177.664 142.017 178.092 142.134C178.697 142.299 179.304 142.465 179.826 142.621C180.772 142.904 181.744 143.239 182.609 143.707C183.491 144.185 184.34 144.841 184.953 145.802C185.574 146.775 185.854 147.904 185.854 149.155C185.854 149.638 185.724 150.106 185.603 150.457C185.469 150.848 185.281 151.277 185.049 151.728C184.584 152.634 183.899 153.718 182.975 154.908C181.123 157.293 178.264 160.164 174.163 162.932C165.94 168.479 152.781 173.572 132.813 173.572C124.411 173.572 115.078 173.08 104.4 172.516C102.486 172.415 100.529 172.312 98.5258 172.209C85.3257 171.529 70.07 170.85 51.9469 170.85C35.5742 170.85 25.3659 172.464 19.0007 174.045C15.8209 174.835 13.5762 175.623 11.9661 176.218C11.7449 176.299 11.5287 176.38 11.3194 176.458C10.7889 176.657 10.3037 176.838 9.89897 176.974C9.37502 177.151 8.69753 177.359 8.03236 177.359C7.34327 177.359 6.288 177.29 5.36887 176.706C4.26257 176.002 3.76025 174.839 3.76025 173.544C3.76025 172.586 4.17301 171.525 4.68348 170.565C5.23284 169.531 6.0388 168.351 7.10934 167.092C9.25444 164.57 12.5305 161.649 17.1494 158.878C26.4016 153.327 41.0411 148.371 62.8514 148.371C78.3587 148.371 95.1427 149.207 110.793 150.04C112.068 150.108 113.335 150.176 114.594 150.243C128.813 151.004 141.884 151.703 152.048 151.703C156.967 151.703 160.548 151.097 162.855 150.389C162.275 150.277 161.674 150.17 161.09 150.067L161.062 150.062L161.033 150.056C153.223 148.439 145.498 143.963 140.515 136.47C130.816 144.585 121.053 148.281 110.254 148.281C105.23 148.281 101.918 146.826 99.7804 144.713C98.9341 143.877 98.3132 142.976 97.8518 142.102C94.8227 144.98 89.6799 148.281 82.8425 148.281C76.1495 148.281 71.581 146.335 68.5773 143.77C66.888 142.328 65.7349 140.724 64.9848 139.241C63.2448 140.629 60.8901 142.302 58.1441 143.827C53.9083 146.18 48.5647 148.281 43.0143 148.281C32.1851 148.281 23.4328 145.593 17.3868 139.836C11.3234 134.063 8.30446 125.512 8.30446 114.481C8.30446 92.0352 22.4913 69.3591 40.4101 52.4152C49.4042 43.9104 59.4251 36.7634 69.2558 31.7334C79.06 26.7169 88.8086 23.7383 97.2293 23.7383C101.429 23.7383 105.019 24.8526 107.565 27.2832C110.126 29.7279 111.344 33.2288 111.344 37.4009C111.344 44.4598 107.318 51.5801 102.705 56.8189C100.372 59.4687 97.8088 61.7301 95.3709 63.3456C93.0101 64.9099 90.4891 66.0544 88.2948 66.0544C85.8673 66.0544 83.4704 65.5588 81.6251 64.2443C79.6808 62.8592 78.5704 60.7182 78.5704 57.9961C78.5704 54.7607 80.1351 52.2949 82.4788 50.6304C84.7468 49.0196 87.7268 48.1547 90.7982 47.8279C92.3183 47.6505 94.2304 46.8264 95.7485 45.4039C97.2373 44.0089 98.2594 42.1279 98.2594 39.8231C98.2594 38.5172 97.9466 37.9031 97.6538 37.6034C97.3695 37.3124 96.7686 36.9749 95.4132 36.9749C91.0221 36.9749 85.3432 39.5846 79.1103 44.4272C72.9498 49.2136 66.5303 55.9611 60.7043 63.7202C48.9938 79.3165 40.018 98.5387 40.018 113.573C40.018 119.132 40.7683 124.072 42.4807 127.548C43.3255 129.262 44.3707 130.553 45.6112 131.415C46.834 132.265 48.3503 132.772 50.2827 132.772C54.8728 132.772 58.0207 130.52 60.3613 127.582C62.3809 125.047 63.6857 122.157 64.719 119.868C64.916 119.432 65.1032 119.017 65.2835 118.631ZM165.96 151.199C165.96 151.199 165.958 151.198 165.953 151.195C165.957 151.198 165.959 151.199 165.96 151.199ZM91.019 130.652C91.9312 130.652 93.1245 129.946 94.3883 128.523C95.5731 127.188 96.4374 125.65 96.7413 124.932C99.327 118.387 102.025 112.231 104.073 107.662C104.715 106.229 105.3 104.938 105.793 103.848C106.084 103.207 106.343 102.635 106.564 102.144C106.867 101.471 107.098 100.95 107.253 100.587C107.263 100.562 107.273 100.539 107.283 100.517C107.27 100.502 107.255 100.487 107.238 100.472C107.139 100.386 106.751 100.126 105.71 100.126C104.175 100.126 102.305 101.013 100.226 102.927C98.1859 104.804 96.1808 107.456 94.4058 110.447C92.6373 113.428 91.1414 116.672 90.0923 119.676C89.031 122.715 88.4767 125.368 88.4767 127.202C88.4767 127.963 88.4881 128.566 88.5531 129.078C88.6177 129.587 88.7209 129.873 88.8194 130.038L88.8211 130.041C88.8982 130.17 89.1852 130.652 91.019 130.652ZM173.126 68.7651C168.722 75.4899 164.181 84.1507 161.224 93.8953C166.039 86.6755 170.607 79.0501 174.302 72.3434C176.899 67.6306 179.05 63.3966 180.546 60.0963C180.913 59.2862 181.238 58.5386 181.518 57.8589C181.394 57.9921 181.266 58.1296 181.136 58.2712C178.899 60.7138 176.054 64.2945 173.126 68.7651Z" fill="#041E42" stroke="white" stroke-width="4"/>
</svg>
