<svg width="201" height="201" viewBox="0 0 201 201" fill="none" xmlns="http://www.w3.org/2000/svg">
<g clip-path="url(#clip0_15016_302790)">
<path d="M197.974 82.6572C197.974 82.6572 199.482 82.4085 199.53 81.3738C199.643 78.9595 197.26 76.3367 197.26 76.3367C197.26 76.3367 197.662 76.1762 197.742 75.7752C197.83 75.2618 197.389 74.6202 196.531 74.3555C196.531 74.3555 195.632 71.7326 187.339 70.0161C185.181 69.7755 178.139 69.1338 178.139 69.1338C176.382 66.3426 171.986 64.7384 169.676 64.4817C165.762 64.0405 164.278 66.6153 162.706 67.8585C162.706 67.8585 159.281 65.2597 156.169 68.4601C156.354 69.1338 156.346 72.3101 159.747 70.8182C160.212 70.6177 159.602 71.4198 159.602 71.4198C159.129 72.5267 139.863 92.0096 129.251 88.0553C120.677 84.8629 124.182 78.8552 113.522 78.4141C112.84 78.6868 104.089 75.8875 99.4451 70.9787C97.4479 69.2221 96.2447 67.2168 94.7288 66.1019C92.3305 64.1849 86.2506 62.5005 81.5343 62.0193C75.6149 61.4578 71.2996 67.2971 65.5406 72.254C64.2572 73.3769 47.4614 85.2078 46.9079 85.6891C43.868 84.4859 39.9457 82.8898 38.2693 82.5689C33.8739 81.6866 27.6416 83.1785 24.5936 83.1304C23.8718 83.1224 16.5246 84.3656 12.9392 79.7054C12.6825 80.2749 12.5943 81.0129 12.5943 81.847C8.78436 80.3231 6.22568 76.9623 4.03596 73.0641C3.00126 75.8634 3.83544 79.906 4.50118 81.3578L2.43177 80.0102C2.52 83.4593 6.35401 86.3789 11.0864 87.6783L8.47154 88.5205C8.47154 88.5205 11.4794 89.4028 12.9151 89.2424C17.1823 88.705 15.915 84.9752 34.5877 86.0019C37.9806 86.7158 40.7879 87.7986 43.2263 89.122C37.8122 91.5764 36.0796 109.174 26.8315 117.436C22.821 121.013 22.5483 121.968 16.4363 125.994C16.4925 129.171 7.58122 148.774 5.89682 152.215C0.635083 154.91 3.83544 156.281 0.322266 162.794C3.60283 168.104 2.3275 165.778 3.63492 171.345L9.33781 172.323L13.4285 170.671C13.5889 168.866 11.5516 166.364 10.1158 164.294C8.92874 159.819 10.8056 156.177 10.958 155.487C12.089 150.354 18.7303 138.467 22.1954 133.181L40.435 119.345C55.2577 116.008 59.6772 112.07 64.2733 113.185C58.6746 119.738 64.0888 130.157 66.11 132.058C72.0054 137.617 65.3962 138.764 68.5885 141.419C69.6633 142.309 80.2028 146.6 80.9729 147.041L73.7861 153.338C70.5617 154.348 69.6954 154.934 67.9629 157.3C67.7062 157.653 63.8321 158.399 63.5193 160.428C63.2385 162.241 65.7571 163.516 65.8694 164.92C66.2304 169.348 67.4415 170.535 67.9789 170.15C72.5509 166.917 72.3263 176.358 76.0239 168.858L73.9465 166.139C73.4011 164.703 73.353 162.714 74.1069 159.819C74.1069 159.819 85.4245 151.493 86.6918 150.426C89.1863 151.774 91.1434 152.776 91.1434 152.776C91.4803 154.3 92.1781 155.327 93.277 155.6C93.7181 157.934 95.2983 160.805 96.5174 160.196C110.426 153.217 108.573 156.121 109.92 152.391C106.592 149.584 101.859 151.373 98.7793 151.14C97.4479 151.036 96.2929 149.76 95.3063 148.782C94.4641 147.948 91.4322 147.25 91.2717 146.351L92.4268 145.261C94.8491 145.662 101.242 141.314 100.608 137.159C109.944 124.631 109.792 123.179 115.968 120.372C119.907 122.096 140.857 129.756 140.857 129.756C145.758 134.954 152.431 138.828 160.115 143.592C160.099 145.261 160.982 146.416 162.482 146.993C162.482 146.993 164.062 151.132 166.179 150.947C167.615 150.787 169.885 149.303 172.805 148.22C174.16 147.723 181.227 146.055 181.074 143.528C180.721 142.726 179.502 142.245 177.85 141.932C169.845 141.483 166.869 142.734 166.54 142.373C160.428 135.676 157.765 132.981 148.814 126.387C147.274 123.379 145.036 120.797 141.635 121.158C140.585 120.404 139.614 118.455 127.615 113.987C141.451 106.151 145.854 102.469 145.854 102.469C145.854 102.469 161.599 86.0981 163.532 86.8682C166.26 87.959 176.711 86.2425 180.569 85.3522C180.569 85.3522 185.125 87.8868 188.847 87.6542C190.451 87.558 191.983 85.8335 193.699 85.264C195.319 84.7346 199.651 86.8441 199.651 85.0955C199.643 83.5796 198.111 82.8497 197.974 82.6572ZM99.1884 122.016C100.087 123.388 94.9614 131.264 88.0955 139.389C87.7907 139.75 85.24 139.75 83.9085 141.715C72.3584 136.55 76.2565 133.374 71.7488 117.211C79.7537 121.454 92.8759 122.842 99.1884 121.992V122.016Z" fill="#F58025"/>
<path d="M197.902 82.6571L197.493 82.4084L196.113 83.8522L197.373 84.1169C197.373 84.1169 197.661 83.8602 197.822 83.5394C197.982 83.1464 197.902 82.6651 197.902 82.6571Z" fill="white"/>
<path d="M186.986 80.6118C185.125 80.307 183.055 80.7401 182.767 81.9352C182.374 83.5635 183.97 84.9832 186.152 85.1276C189.929 85.3843 190.547 83.5234 193.025 83.4753C193.017 83.4753 188.774 80.9005 186.986 80.6118Z" fill="white"/>
<path d="M168.635 69.6392C167.785 70.4894 168.611 72.7433 169.934 72.8716C171.554 73.024 173.014 71.877 174.073 70.8824C172.341 71.5321 170.03 70.6177 168.635 69.6392Z" fill="white"/>
<path d="M6.96289 80.1786C6.96289 80.1786 7.68478 82.3362 8.79969 83.3789C9.92262 84.4217 12.4011 84.6623 12.4011 84.6623C12.4011 84.6623 10.4841 83.8602 9.44136 82.9859C8.32645 81.9432 6.96289 80.1786 6.96289 80.1786Z" fill="#231F20"/>
<path d="M23.5265 123.612C23.5265 123.612 21.7699 125.048 20.8074 125.609C19.7647 126.251 18.9706 126.331 18.3289 126.973C17.4466 127.695 17.6071 128.81 16.9654 130.895C16.4841 132.491 16.4039 133.293 16.4841 133.293C17.4466 133.534 18.2407 129.612 18.9626 128.497C19.5241 127.615 20.4786 126.981 21.6015 126.259C22.7244 125.449 23.9276 124.254 23.5265 123.612Z" fill="#231F20"/>
<path d="M8.24712 166.083C8.19097 165.955 8.13482 165.778 8.07868 165.594L8.0867 165.602C8.0867 165.602 8.88879 165.12 9.37005 165.281C9.85131 165.441 10.0919 165.682 10.0919 165.682C10.0919 165.682 9.61068 164.96 8.80858 164.88C8.35941 164.808 8.07868 164.8 7.89419 164.816C7.76586 164.182 7.68565 163.605 7.68565 163.605C7.68565 163.605 7.76586 160.565 7.36481 160.565C6.96377 160.565 6.88356 161.607 6.96377 163.123C6.96377 163.588 7.00387 164.094 7.06804 164.591C7.02793 164.583 7.00387 164.567 6.96377 164.559C5.12697 164.158 3.92383 165.12 3.92383 165.12C3.92383 165.12 4.48529 164.8 5.35958 164.8C6.29803 164.8 6.9397 165.185 7.20439 165.393C7.34075 166.027 7.53325 166.58 7.75784 166.877C7.99847 167.198 8.3193 167.679 8.55993 168.16C8.72035 168.561 9.1214 169.444 9.1214 170.478C9.1214 170.398 9.44224 169.436 9.44224 168.962C9.44224 168.241 9.20161 167.84 9.20161 167.84C8.969 167.206 8.40754 166.484 8.24712 166.083Z" fill="#231F20"/>
<path d="M199.731 84.534C199.691 84.4538 199.667 84.3816 199.667 84.3415C199.643 84.2452 199.547 84.0928 199.418 83.9324V83.9244C199.137 83.5635 198.72 83.1544 198.696 83.1303L198.68 83.1464C198.68 83.1464 198.72 83.2025 198.768 83.2827C198.76 83.2747 198.752 83.2667 198.736 83.2587C198.592 83.1063 198.207 82.7213 197.958 82.8015C197.806 82.8496 197.774 82.9539 197.766 83.0742C197.758 82.9539 197.726 82.8255 197.686 82.6812C197.798 82.7132 198.167 82.8095 198.528 82.8095C198.744 82.8095 198.953 82.7694 199.089 82.6651C199.827 82.2079 200.02 81.3096 199.659 80.0102C199.346 78.6787 197.341 76.5692 197.261 76.489V76.4008H197.253C194.205 75.0372 192.44 74.3955 190.05 74.2431L190.042 74.2752C190.499 74.4196 190.956 74.5479 191.437 74.6923C193.106 75.1816 194.991 75.735 197.236 76.6735L197.261 76.6815V76.5371C197.493 76.8098 199.298 78.9354 199.153 80.4193C199.137 80.5476 199.121 80.6679 199.113 80.7882C199.081 81.1652 199.057 81.47 198.752 81.7748C198.52 82.0074 197.966 82.1678 197.958 82.1678H197.95L197.63 82.6491L197.621 82.6651L197.605 82.6731C197.662 82.8576 197.694 83.018 197.702 83.1544C197.509 83.2266 197.309 83.2988 197.1 83.3629C197.052 83.3629 196.996 83.3549 196.948 83.3389C197.357 82.9699 197.654 82.5929 197.742 82.4245C197.758 82.3603 197.798 82.2801 197.846 82.1839C198.031 81.8149 198.335 81.1893 198.143 79.8578C198.007 78.4942 197.164 77.1226 196.924 76.7537V76.7296C196.916 76.7296 196.908 76.7216 196.9 76.7216C196.876 76.6815 196.851 76.6574 196.851 76.6494L196.827 76.6655C196.827 76.6655 196.835 76.6895 196.843 76.7056C195.801 76.4489 194.862 76.2323 194.028 76.0318C191.774 75.5024 190.282 75.1495 189.649 74.8046C189.224 74.4918 189.055 74.179 189.159 73.9223C189.328 73.5212 190.098 73.3287 190.996 73.4731C194.156 73.9464 197.357 76.481 197.389 76.5131L197.405 76.489C197.397 76.489 197.277 76.3927 197.092 76.2403C197.084 76.1441 197.028 75.3099 196.747 74.4918C196.956 74.6522 197.557 75.1415 197.621 75.4703C197.774 75.7831 197.389 76.3286 197.381 76.3366L197.373 76.3526L197.71 76.4409H197.718L197.726 76.4328C197.726 76.4248 198.127 75.8634 198.047 75.3821C197.974 74.8607 196.924 74.4918 196.723 74.4276C196.595 74.0747 196.434 73.7298 196.21 73.4571C195.704 72.8635 194.421 71.7647 193.643 71.4518C193.491 71.3877 193.33 71.3155 193.146 71.2353C192.392 70.8984 191.349 70.4412 189.167 69.9279C186.063 69.1819 180.449 69.1097 178.131 69.1177C178.082 69.0295 177.369 67.8023 176.214 66.7275C176.149 66.6794 176.085 66.6313 176.021 66.5831C175.403 66.1179 174.706 65.5885 174.136 65.4442C173.968 65.388 173.831 65.3559 173.687 65.3238C173.767 65.1634 173.783 64.9308 173.711 64.6421C173.583 64.1047 173.158 63.3747 172.54 63.0459L172.516 63.07C173.077 63.7357 172.885 64.4175 172.692 64.8586C172.532 64.2651 172.227 63.3988 171.577 62.6448C171.096 62.0834 170.775 61.8427 170.455 61.6021L170.43 61.6262C170.615 61.8588 170.663 62.0353 170.719 62.2358C170.759 62.3802 170.807 62.5406 170.904 62.7411C171.064 62.9817 170.96 63.1822 170.84 63.3828C170.759 63.5352 170.671 63.6876 170.695 63.856C170.647 63.7598 170.591 63.6555 170.543 63.5592C170.174 62.8133 169.797 62.0353 168.521 61.4337C168.305 61.3936 168.112 61.3535 167.928 61.3134C167.062 61.1369 166.492 61.0166 165.642 60.9524L165.634 60.9845C166.219 61.177 167.631 61.6903 168.104 62.2598C168.145 62.3721 168.321 62.6128 168.505 62.8774C168.658 63.094 168.882 63.4068 168.907 63.5031C167.96 62.4924 166.276 62.2197 164.599 62.0834L164.591 62.1155C165.393 62.4042 166.139 62.7972 166.588 63.1502C166.773 63.3346 166.765 63.471 166.749 63.6394C166.749 63.6635 166.749 63.6956 166.741 63.7197C166.556 63.4068 166.179 63.2865 165.393 63.2865C164.904 63.2865 164.351 63.2865 163.629 63.3667V63.3988C165.225 63.5993 165.425 64.1207 165.546 64.4415C165.562 64.4816 165.578 64.5217 165.594 64.5538C165.409 64.4816 165.273 64.3854 165.145 64.2811C164.96 64.1367 164.784 64.0084 164.503 64.0084C164.062 64.0645 163.741 64.1528 163.372 64.2571C163.204 64.3052 163.027 64.3533 162.827 64.4014V64.4335C163.3 64.4335 163.701 64.4335 164.094 64.5939C164.367 64.7543 164.447 64.9549 164.527 65.1474C164.551 65.2115 164.575 65.2677 164.607 65.3238C164.591 65.3078 164.567 65.2998 164.551 65.2837C164.343 65.1313 164.11 64.9629 163.701 64.9629C163.597 64.9789 163.5 64.987 163.412 65.003C163.019 65.0511 162.73 65.0912 162.337 65.2837L162.345 65.3158C162.41 65.3158 162.466 65.3078 162.522 65.3078C163.348 65.3078 163.508 65.6527 163.629 65.9414C163.701 66.1019 163.765 66.2462 163.942 66.2703C163.958 66.2703 164.046 66.2302 164.27 66.134C164.126 66.2623 163.99 66.3826 163.853 66.5029C163.861 66.4468 163.837 66.4147 163.781 66.3986C163.717 66.3986 163.653 66.3425 163.573 66.2783C163.452 66.1741 163.3 66.0537 163.067 66.0056C162.682 65.9254 162.153 66.142 161.776 66.3265L161.784 66.3585C162.089 66.2783 162.562 66.3505 162.811 66.5911C162.963 66.7435 163.019 66.9681 162.979 67.305C162.883 67.3932 162.803 67.4735 162.73 67.5376C162.474 67.2328 162.161 66.9441 161.76 66.7275C160.581 66.0778 159.025 66.158 157.124 66.9762C156.803 67.1366 155.576 68.2114 155.52 68.2595L155.512 68.2675V68.2755C155.512 68.2836 155.688 69.0456 155.889 69.7594C155.536 70.0482 155.223 70.3289 155.199 70.3449V70.353C155.199 70.369 155.52 71.4117 155.76 72.1978C155.921 72.6069 156.33 73.1603 156.963 73.4811C157.1 73.5373 157.268 73.5613 157.437 73.5774C145.285 83.6437 138.042 88.1033 132.098 88.0311C128.978 88.0311 126.099 86.5152 124.422 84.2693C122.826 82.1919 121.543 80.6679 119.626 79.553C117.709 78.2696 114.508 78.2696 114.188 78.2696C112.271 78.1092 111.308 77.9488 107.867 76.2724C104.803 74.7083 102.293 73.3287 100.384 71.7887C100.368 71.2914 100.352 70.9786 100.352 70.9144C100.271 70.4332 99.79 69.7915 99.3088 69.1578C98.8275 68.5162 98.6671 67.5617 97.7126 67.5617C97.4479 67.5617 97.087 67.8424 96.8624 68.0269C96.6939 67.8424 96.5255 67.6499 96.3491 67.4815C96.2688 66.8398 96.1084 65.9655 95.6272 65.4843C95.6272 65.4843 95.8678 66.3666 95.7074 66.928L95.6272 66.8478C95.4667 66.2864 95.0657 64.7704 94.5042 64.0485C94.5042 64.0485 94.5844 65.011 94.2636 65.6447C94.2636 65.6447 94.1032 63.7277 92.5872 62.1235C92.5872 62.1235 92.9883 63.8801 92.2664 64.2009C92.2664 64.2009 91.8653 60.9203 90.2692 59.4044C90.2692 59.4044 91.2317 62.2037 89.9483 62.8454C89.9483 62.8454 89.7077 61.562 89.1462 60.5273C89.1462 60.5273 89.4671 62.5245 88.7452 62.6849C88.7452 62.6849 88.8254 59.0033 86.0261 57.8884C86.0261 57.8884 87.5421 60.3669 86.2667 61.9711C86.2667 61.9711 86.1063 58.0488 83.4674 56.1318C83.4674 56.1318 85.3042 60.6075 83.8685 61.8107C83.8685 61.8107 83.708 57.6478 80.8285 56.6131C80.8285 56.6131 83.1466 59.8134 80.5879 61.8909C80.5879 61.8909 81.0692 60.0541 79.3045 58.7707C79.3045 58.7707 80.2671 61.0086 78.1816 62.2919C78.1816 62.2919 79.7778 59.1718 75.7833 57.4954C75.7833 57.4954 77.7004 58.7787 76.1042 62.3721C76.1042 62.3721 75.9438 61.0086 73.4653 60.0541C73.4653 60.0541 75.2219 62.9336 74.1872 64.1367C74.1872 64.1367 72.9038 62.4604 71.6285 62.5406C71.6285 62.5406 72.8316 63.3427 72.5108 65.1795C72.3504 65.019 72.19 64.9388 71.9493 64.8586C71.4681 64.7784 70.5858 64.618 70.273 64.8586C70.674 64.7784 71.3959 65.2597 71.7087 65.5003C71.8691 65.6607 71.9493 65.9816 71.9493 66.3024C71.8691 66.3826 71.7889 66.4628 71.7087 66.4628C71.6285 66.4628 71.4681 66.2222 71.1472 66.142C70.8264 66.0618 70.3451 66.2222 70.1045 66.3826C70.3451 66.3024 70.7462 66.3826 70.9066 66.543C70.9868 66.6232 71.067 66.7837 71.067 67.0243C67.9469 69.8236 63.6316 73.826 57.7924 78.2215C55.1535 79.8979 50.9906 82.5368 47.4774 85.3441C46.1139 84.7024 39.1597 81.5823 33.7215 82.0636C25.0028 82.7854 19.1635 84.3816 14.2066 80.6278C13.4045 79.9861 13.0836 79.3444 12.9232 79.0316C12.9232 79.0316 12.1211 79.8337 12.2815 80.8684C9.40202 80.6278 5.47977 74.7083 5.00654 73.433C4.92633 72.5507 5.00654 71.5962 5.16696 70.6337C5.16696 70.6337 3.00932 72.8715 3.00932 76.6334C3.00932 78.3097 3.49058 79.5931 3.89163 80.4754C3.49058 79.9941 3.08953 79.5129 2.68849 79.0397C2.04681 78.0771 1.09232 76.3206 0.931899 75.5987C0.931899 75.5987 0.450643 81.6785 5.40759 85.4404C7.08396 86.7237 8.68815 87.3574 9.96348 87.598C6.84334 87.9188 4.76591 87.1167 4.76591 87.1167C4.76591 87.1167 8.04648 89.7556 12.3617 89.5952C14.2788 89.515 16.0434 88.4723 17.6395 87.8386C20.8399 86.7157 27.1604 85.681 34.1145 86.7959C38.6704 87.5178 41.7104 89.0337 42.8333 89.5952C42.1114 90.3973 41.55 91.1914 41.2371 91.9133C37.9566 99.1081 35.0771 107.514 33.7215 109.591C32.9996 110.714 30.1201 113.353 28.2833 115.11C23.8878 119.353 20.0458 123.508 18.209 124.069C16.0514 124.791 15.9712 125.272 15.4097 127.27C15.4097 127.27 14.6878 130.39 13.6531 133.269C12.6104 136.069 5.25519 152.062 5.17498 152.303C4.05205 152.704 2.6163 153.426 2.05483 154.541C1.49337 155.664 1.89441 157.661 1.65378 158.623C1.41316 159.666 1.09232 160.3 0.450642 161.022C-0.110824 161.583 -0.752499 162.939 1.17253 165.104C1.65378 165.666 1.97462 166.308 2.21525 167.021C2.37567 167.663 2.6163 169.019 3.01734 171.497C3.17776 172.54 3.33818 173.013 7.41282 172.933C8.61596 172.933 8.92878 172.532 8.92878 172.532V172.452C9.16941 172.532 9.57046 172.692 9.73088 172.692C11.327 172.933 13.0917 172.692 13.3323 172.291C13.6531 171.81 13.7333 170.454 13.4125 169.331C13.0916 168.048 11.0944 165.409 10.6132 164.615C10.2923 163.973 10.2923 162.618 9.9715 160.693C9.81108 159.49 10.2923 158.134 10.6132 156.851C10.934 155.567 11.4153 154.372 11.8965 153.089C12.3778 152.287 12.859 151.332 13.1799 150.37C13.7413 148.854 20.2223 135.972 23.1018 133.173C25.099 131.176 41.181 119.818 41.181 119.818C41.181 119.818 42.2237 120.38 43.4188 120.139C48.3758 118.856 52.298 117.901 55.4182 116.939C56.1401 117.099 57.656 117.821 59.0196 120.54C59.6613 122.297 61.3376 126.62 63.1022 129.179C65.3401 132.459 67.4175 135.499 67.2651 137.336C67.1849 139.173 66.7036 140.536 67.4255 141.731C68.1474 142.934 71.821 143.809 76.1443 145.493C77.195 145.894 78.6308 146.568 80.2029 147.354L73.9867 153.017C73.1044 153.257 70.5457 154.06 69.5912 154.854C69.0297 155.335 68.5485 156.137 68.0752 157.011C66.5593 157.813 64.9551 158.134 63.9926 158.928C62.5568 160.051 62.8696 161.407 63.4311 161.968C64.3134 162.931 65.1877 164.366 65.5085 165.249C65.8294 166.131 65.8294 167.647 65.9898 168.369C66.1502 168.85 66.7117 169.965 67.0325 170.446C67.2731 170.847 67.7544 171.248 68.3158 171.489C69.0377 171.81 71.2756 172.371 71.5964 172.371C72.0777 172.452 72.2381 172.291 72.2381 172.211C72.2381 172.131 72.3183 171.89 72.3183 171.569C72.7996 171.81 73.2006 172.692 73.6819 172.933C74.0829 173.093 75.9999 173.494 75.9999 173.494C77.2833 173.895 78.4784 170.535 75.9197 167.655C74.4037 165.898 74.484 164.936 74.5561 163.813C74.6364 162.77 74.6364 160.853 75.5989 159.57C75.8395 159.41 76.1603 159.249 76.4812 159.008C77.3635 158.447 85.1999 152.046 86.6357 151.252C86.748 151.188 86.8924 151.084 87.0448 150.971C88.7131 151.894 90.1007 152.68 90.7905 153.097C90.8707 153.739 91.1114 154.3 91.4322 154.854C91.7531 155.335 92.3145 155.656 92.868 155.816C92.868 156.378 92.868 157.252 92.9482 157.974C93.1086 158.936 94.0711 161.014 95.7475 161.094C97.0308 161.094 97.3436 160.773 100.464 159.097C102.22 158.134 103.022 157.581 104.226 157.019C105.108 156.618 106.143 156.217 107.827 155.736C108.549 155.576 109.584 155.174 110.546 154.934C111.188 154.773 111.188 154.212 111.188 154.212C111.188 154.212 111.108 153.49 110.145 153.009C110.065 152.929 109.985 152.929 109.904 152.848C110.145 152.688 110.386 152.447 110.386 152.287C110.386 151.966 108.228 149.969 105.429 150.37C102.549 150.851 98.7874 151.012 98.1538 150.771C97.6725 150.611 97.3517 150.45 97.111 150.37C96.6298 150.129 96.0683 149.247 95.3545 148.613C94.7128 148.052 93.1968 147.49 92.7958 147.33C92.5872 147.17 92.3306 146.977 91.9616 146.704C92.5311 146.183 92.9963 145.75 93.277 145.493C93.5979 145.573 93.9187 145.573 94.1593 145.573C96.3972 145.573 100.48 141.098 100.801 139.975C101.122 138.852 100.961 138.298 100.961 138.298C103.76 133.582 109.199 126.379 110.883 124.382C111.043 124.222 111.204 123.981 111.364 123.74C112.086 123.42 114.083 122.617 115.68 121.743C116.241 122.144 117.115 122.625 118.559 123.027C121.278 123.829 129.676 126.227 133.438 127.502C136.077 128.384 138.716 129.419 140.793 130.302C140.793 130.302 140.873 130.382 140.954 130.462C142.157 131.505 148.549 136.943 150.394 137.978C151.99 138.86 154.87 140.697 158.471 142.934C159.273 143.416 159.273 143.496 159.907 143.977C159.907 144.378 160.067 144.86 160.228 145.261C160.629 146.303 161.351 146.777 162.145 147.097C162.145 147.097 162.947 148.774 163.268 149.335C164.704 152.536 167.19 152.536 170.31 150.538C172.147 149.335 173.751 148.942 175.026 148.541C176.069 148.22 178.708 147.498 180.625 147.097C181.588 146.857 182.783 146.536 183.184 145.974C183.104 145.333 182.301 144.611 181.507 143.977C181.427 143.897 181.347 143.897 181.267 143.817C180.946 142.854 179.903 142.301 179.27 142.06C177.513 141.338 174.714 141.82 174.714 141.82C174.313 141.659 172.877 141.338 171.353 141.499C168.233 141.82 169.035 142.221 167.19 141.98C166.468 141.9 164.311 139.742 163.99 139.341C162.626 137.905 159.907 135.098 158.07 133.341C155.832 131.344 150.073 126.62 148.389 125.264C148.068 124.542 147.587 123.748 146.632 122.786C145.678 121.823 144.635 121.19 143.753 120.949C143.031 120.789 142.157 120.869 142.157 120.869C142.157 120.869 140.641 119.425 138.475 118.23C137.192 117.508 135.194 116.473 134.232 115.992C132.868 115.27 132.315 115.03 131.513 114.556C131.088 114.308 130.791 114.051 130.59 113.81C132.227 112.864 133.847 111.893 135.435 110.907C137.994 109.319 140.52 107.666 142.911 105.846C145.975 103.512 148.614 100.728 151.26 97.953C154.517 94.5361 157.974 91.1112 162.057 88.6888C164.286 90.5337 168.321 89.5952 170.872 89.13C172.259 88.8733 173.655 88.5846 175.002 88.1675C176.462 87.7183 177.922 87.59 179.438 87.5579C181.171 88.1514 182.799 88.9616 184.507 89.6193C186.24 90.293 188.02 90.9748 189.865 90.2449C190.844 89.8599 191.429 89.0979 192.264 88.5044C193.058 87.9429 194.132 87.6221 195.103 87.7023C196.081 87.7745 198.961 89.2664 199.49 87.6943C199.731 87.1328 199.33 86.6515 199.33 86.4911C199.314 86.4029 199.258 86.2986 199.178 86.1863C199.843 85.7612 200.052 85.2158 199.731 84.534ZM197.71 83.2346C197.71 83.6196 197.549 83.8442 197.381 84.0688C197.084 83.9966 196.787 83.9244 196.595 83.8763C196.659 83.7078 196.771 83.5795 196.892 83.4993C197.196 83.4271 197.461 83.3389 197.71 83.2346ZM39.6009 87.0606C38.0849 86.5793 36.3203 86.0981 34.3231 85.7772C27.9224 84.7345 19.7651 85.9377 17.3668 86.9002C15.8509 87.5419 14.9686 88.4161 12.9713 88.6568C12.0088 88.737 11.1345 88.737 10.7335 88.6568C10.3324 88.5766 10.0116 88.4963 10.0116 88.4963C11.9286 88.4963 13.1318 87.7745 13.1318 87.7745C12.0088 87.6943 9.36993 87.2932 6.00916 84.9752C3.61089 83.2988 3.12964 81.2935 3.12964 81.0529C3.12964 81.0529 4.25257 82.5689 5.60811 82.5689C5.60811 82.5689 3.37027 79.3685 4.09215 74.0105C4.09215 74.1709 4.01194 75.2137 4.4932 76.489C5.05466 77.6921 6.32999 79.1279 6.32999 79.1279C6.32999 79.1279 5.36748 77.2911 5.12685 75.4463C5.60811 76.5692 8.00637 81.3657 12.4018 82.248C12.8029 83.0501 13.0435 84.0046 15.2814 84.9671C15.2814 84.9671 14.3991 84.3255 13.9178 83.6036C12.7147 81.7668 12.9553 80.6438 12.9553 80.6438C18.4737 85.681 25.7567 83.2827 33.5932 82.8817C36.6331 82.7213 40.3147 83.764 43.0338 84.7185C43.8359 85.2799 44.7904 86.2344 44.3172 86.9563C43.6835 87.9349 40.804 87.3814 39.6009 87.0606ZM70.2329 141.37C68.5565 140.568 68.6367 140.007 68.7169 137.127C68.7971 134.248 67.4335 131.93 65.0353 128.088C63.2787 125.288 60.7922 118.567 60.8724 118.487C61.1932 118.086 61.9953 117.685 62.5488 117.364C64.3856 116.401 66.3106 116.321 68.0672 116.963C70.0644 117.765 70.8665 119.842 71.428 121.92C71.9092 123.596 73.9064 130.237 72.3905 129.997C71.0269 129.756 69.912 128.954 69.912 128.954C69.912 128.954 71.0349 130.318 72.0696 130.791C72.7915 131.112 73.6658 131.834 73.9867 132.227C74.3877 132.628 75.7432 137.183 75.9839 137.504C77.1068 139.1 79.4249 140.304 82.4648 141.667C82.6653 141.731 82.8658 141.86 83.0583 141.988C82.9942 142.068 82.93 142.14 82.8578 142.229C81.8071 143.608 81.1093 144.868 80.6681 145.942C77.3635 144.186 71.8772 142.116 70.2329 141.37ZM94.6326 149.768C94.6326 149.768 94.3919 148.966 93.9107 148.325C94.3117 148.485 94.8732 148.726 95.3464 149.207C96.1485 150.089 96.1485 150.089 96.6298 150.49C96.9506 150.731 97.7527 151.292 98.4666 151.373C99.4291 151.533 102.782 151.212 102.782 151.212C102.782 151.212 99.8221 152.175 98.3864 151.774C97.5041 151.533 97.2634 151.373 96.8704 151.453C96.3892 151.533 97.111 152.094 98.234 152.335C99.3569 152.576 99.5173 152.576 101.835 152.094C104.073 151.613 105.437 150.971 107.594 151.453C108.236 151.613 108.958 152.014 109.431 152.415C109.191 152.335 108.87 152.255 108.469 152.175C107.907 152.094 107.747 152.977 107.747 153.538C107.747 153.939 107.827 154.34 107.747 154.581C107.667 154.741 107.266 154.902 107.105 154.982C104.627 155.624 101.988 156.578 100.704 157.46C99.4211 158.263 98.2259 159.217 97.0228 159.217C95.186 159.297 94.6245 158.174 94.6245 157.621C94.6245 156.578 96.2207 156.185 96.2207 156.185C96.341 156.129 96.4533 156.113 96.5095 156.105C96.0202 156.153 93.0845 155.447 92.3787 154.741C91.6568 154.019 91.336 149.464 91.336 149.464C91.336 149.464 91.0151 150.506 91.0151 151.782L90.9349 151.701C90.0767 151.236 89.0821 150.691 88.0474 150.129C89.0179 149.319 90.2291 148.236 91.2718 147.29L94.6326 149.768ZM137.424 118.896C139.101 119.698 140.143 120.652 140.705 121.214C140.865 121.294 141.347 121.775 141.507 121.775C141.748 121.775 143.344 121.454 144.066 121.855C144.868 122.337 145.582 122.898 146.544 123.933C147.025 124.414 147.667 125.449 147.908 126.01C148.309 126.973 148.068 127.606 148.469 127.927L148.549 128.008C148.549 127.687 148.63 127.366 148.63 127.045C150.466 128.409 155.752 132.002 157.91 134.087C160.308 136.405 163.749 139.927 164.471 140.649C164.792 141.13 165.834 142.566 167.03 142.646C167.992 142.726 169.027 142.405 170.711 142.164C171.995 142.084 173.43 142.004 174.232 142.325C173.671 142.886 173.511 143.688 173.511 143.688C173.511 143.688 173.912 143.207 174.232 142.886C174.473 142.726 174.714 142.566 174.874 142.485C175.436 142.325 176.711 142.004 178.235 142.245C178.395 142.245 178.475 142.325 178.636 142.325C179.518 142.485 180.633 142.967 180.874 143.448C180.232 143.287 179.51 143.047 179.278 143.207C178.796 143.528 178.877 143.929 178.877 144.491C178.877 144.972 179.037 145.373 178.957 145.533C178.796 146.255 176.96 146.255 176.96 146.255C175.676 146.255 172.877 146.656 171.04 147.699C169.604 148.501 168.481 150.017 166.484 149.937C164.487 149.857 164.246 149.215 163.926 148.653C163.685 148.252 163.284 147.531 163.123 147.29C163.765 147.29 164.166 147.129 164.166 147.129C163.685 147.129 161.287 146.408 160.565 144.731C159.923 143.295 160.645 140.175 160.645 140.175C160.645 140.175 160.324 140.576 159.923 141.218L154.485 136.742C154.485 136.742 152.808 137.464 151.525 137.224C148.405 136.662 144.25 132.668 141.924 130.261C142.566 130.342 144.162 130.181 144.162 130.181C144.162 130.181 132.965 127.542 126.163 121.703C123.444 119.385 126.564 117.46 129.203 117.067C130.623 116.81 134.304 117.292 137.424 118.896ZM198.688 85.3602C198.64 85.3682 198.592 85.3762 198.544 85.3762C198.167 85.4163 197.782 85.296 197.405 85.2799C196.555 85.1757 195.801 84.8067 194.926 84.8789C193.964 84.8789 193.138 85.0794 192.296 85.5366C192.296 85.5366 192.296 85.5446 192.288 85.5446C191.197 86.1943 190.387 86.9323 189.111 87.2371C187.972 87.5098 186.809 87.3253 185.694 87.0125C184.523 86.6836 183.408 86.2344 182.293 85.7612C181.267 85.3281 179.895 84.9752 179.342 83.9003C179.077 83.5715 179.037 82.7614 179.181 82.3764C179.31 82.0154 179.655 81.8309 179.983 81.6304L179.967 81.6064C179.149 82.0154 178.291 82.5047 178.291 83.5394C177.657 83.5635 176.976 83.6758 176.141 83.8201C176.109 83.8282 176.077 83.8282 176.045 83.8362C175.115 83.9725 174.184 84.1169 173.27 84.3174C172.877 84.4057 172.38 84.6463 171.979 84.6463L171.987 84.6784C174.192 84.6784 176.39 84.141 178.596 84.5901C178.628 84.6463 178.652 84.6944 178.7 84.7506C178.82 84.927 179.005 85.0554 179.205 85.1677C178.211 85.1436 177.216 85.1516 176.23 85.2639C175.291 85.3682 174.401 85.697 173.478 85.8895C171.369 86.3307 169.356 86.7317 167.182 86.5152C164.487 86.2505 160.934 84.8147 160.172 81.863H160.148C160.051 83.6677 160.99 85.665 162.474 86.6756C160.557 87.59 158.832 88.8813 157.324 90.3732C152.648 94.127 148.83 98.8594 144.25 102.734C142.453 104.258 140.456 105.549 138.483 106.824C135.604 108.685 132.66 110.458 129.652 112.102C128.08 112.96 126.484 113.778 124.864 114.532C124.053 114.781 123.211 114.829 122.73 114.252C121.848 113.209 123.291 109.134 123.291 109.134C123.291 109.134 120.653 115.455 118.094 117.773C115.214 120.331 112.656 121.214 112.174 121.294C112.495 120.572 112.976 119.698 113.458 118.575C110.017 123.051 102.501 133.293 100.183 137.208C99.782 136.405 98.9799 135.924 98.9799 135.924C99.6216 136.566 100.103 137.761 99.8622 139.044C99.5414 140.721 94.9855 144.723 93.6219 144.723C92.2584 144.803 90.5018 144.162 90.5018 144.162C90.9028 144.483 91.3841 144.723 91.9375 144.964C91.4081 145.493 88.9618 147.883 87.0046 149.512C86.6437 149.816 86.2908 150.089 85.978 150.322C85.9379 150.346 85.8978 150.378 85.8657 150.41C83.6278 152.086 73.1445 160.252 73.1445 160.252C73.1445 160.252 73.6257 160.172 74.5802 159.77C74.4198 160.172 74.1792 160.813 74.099 161.214C73.9385 161.856 73.9385 163.051 73.8583 163.853C73.8583 164.655 73.6979 165.53 74.5 166.492C75.2219 167.455 75.8636 168.168 76.3368 168.97C76.4972 169.291 76.6576 169.853 76.7378 170.334C76.4972 169.692 76.0962 169.051 75.6951 168.97C75.3743 168.89 74.6524 168.97 74.0187 170.174C73.7781 170.575 73.7781 171.056 73.3771 171.216C72.976 171.377 72.575 170.896 72.2541 170.575C72.2541 170.013 72.1659 168.979 71.7007 168.329C72.6472 167.366 71.059 165.53 71.059 164.575C70.9788 163.452 72.0215 161.375 72.0215 161.375C72.0215 161.375 70.5858 162.337 70.1847 163.292C69.7035 164.495 70.0243 165.128 70.666 165.85C71.2836 166.62 71.6766 168.192 71.7007 168.313C71.5082 168.048 71.2515 167.84 70.9066 167.775C70.0243 167.615 68.6688 169.612 67.9469 169.773C67.626 169.853 67.1448 168.97 66.9042 168.489C66.5031 167.687 66.5833 166.412 66.4229 165.69C66.1823 164.808 65.3 162.891 64.5059 162.249C63.7038 161.527 63.3028 160.653 64.4257 159.45C65.308 158.567 66.7437 158.567 67.7063 157.693C67.225 158.656 66.9042 159.53 66.9042 159.53C66.9042 159.53 69.142 156.089 70.1847 155.287C71.2274 154.485 74.8208 153.45 74.8208 153.45L79.9382 148.974C80.0184 151.132 82.4167 149.937 82.4167 149.937C82.4167 149.937 80.5799 150.258 80.8205 148.573C80.8606 148.276 80.9167 147.98 80.9809 147.683C81.0852 147.226 81.2296 146.785 81.398 146.343C81.9996 144.747 82.9701 143.271 84.1813 142.173C86.4191 140.095 86.9004 140.336 87.9431 140.095C87.9431 140.095 91.7851 136.093 95.2983 131.136C96.1806 129.933 99.4612 123.861 100.015 122.898C100.175 123.219 100.416 123.46 100.656 123.7C100.656 123.7 99.774 121.863 100.095 120.179C100.737 116.497 102.734 112.423 102.894 110.025C103.055 108.108 104.49 104.346 104.49 104.346C104.49 104.346 102.252 108.589 101.531 110.105C99.6136 113.867 98.1698 114.901 96.0924 115.302C94.015 115.703 88.1757 116.345 80.4114 114.42C80.4114 114.42 86.3309 117.059 95.932 116.497C98.0896 116.417 100.408 115.535 100.408 115.535C100.408 115.535 99.4451 118.094 99.2847 120.011C99.2045 120.572 99.2847 121.134 99.5253 121.687C99.1243 122.569 96.9667 126.885 94.7288 130.326C92.491 133.767 88.8094 138.082 88.0875 138.964C87.1891 139.1 85.4646 139.542 83.7241 141.29C81.4542 139.967 79.4168 138.932 77.7645 137.36C76.7218 136.397 75.286 132.162 74.9652 130.558C74.8048 129.836 74.9652 127.679 74.6444 125.12C74.3235 122.722 74.0027 120.957 73.7621 119.602C73.9225 119.682 74.885 120.163 75.2058 120.404C75.286 120.404 82.8017 123.524 98.4826 123.524C98.643 123.524 99.2847 120.885 99.1243 120.725C95.2021 120.885 86.9645 120.163 83.5236 119.361C78.2458 118.158 70.1687 115.76 70.1687 108.725C70.1687 99.9262 66.9683 96.3248 66.9683 96.3248C66.9683 96.3248 68.0111 99.6856 68.0111 102.966C67.1127 111.131 63.5193 113.377 56.5571 115.615C49.3624 117.933 44.0766 119.217 42.8814 119.297C41.9189 119.377 39.3602 118.655 38.5662 117.62C38.887 118.102 39.5287 118.984 40.0019 119.297C40.0019 119.297 24.4814 130.574 22.4842 132.411C20.2463 134.488 13.0435 147.771 12.2495 150.651C11.4474 153.53 9.0491 157.452 9.0491 157.452C9.0491 157.452 9.77098 156.65 10.7255 155.375C10.5651 155.856 10.3244 156.498 10.0838 157.372C9.76296 158.575 9.20149 159.931 9.36191 161.294C9.60254 162.971 9.68275 164.655 10.0838 165.297C10.7255 166.34 13.2039 168.898 13.1237 170.494C13.1237 170.494 12.4821 169.532 11.688 169.612C10.9661 169.612 10.5651 170.174 10.0918 171.048C9.69077 171.77 9.61056 172.251 9.28972 172.171C9.20951 172.171 9.04909 172.091 8.88868 172.091C8.88868 171.289 8.72826 170.093 7.68553 169.773C6.64281 169.452 5.68832 170.575 5.04664 171.136C4.80602 171.377 4.40497 171.537 4.00392 171.297C3.36225 169.7 3.52266 166.5 2.08692 164.976C0.651166 163.46 0.570957 162.417 1.36503 161.455C1.68587 161.054 1.9265 160.492 2.16712 159.698C2.48796 160.42 2.8088 161.134 2.8088 161.134C2.56817 160.492 2.48796 158.896 2.48796 158.174C2.56817 157.292 2.64838 156.017 3.29006 155.054C4.4932 153.378 6.24978 152.415 6.65083 152.175H6.73104C6.97167 151.613 12.8109 138.419 14.5675 134.336C16.4043 130.173 16.4043 126.179 18.1689 125.697C21.6901 124.655 24.9707 120.339 29.687 115.463C30.8099 114.26 31.8446 113.305 32.6467 112.423C39.8415 105.541 40.0821 103.223 40.0821 103.223C40.0821 103.223 37.9245 105.541 35.9193 107.618C37.7561 103.776 39.1998 98.7391 40.4752 95.6189C42.7932 90.1807 44.7182 88.4963 47.5978 86.2585L53.1964 82.2561C54.7925 81.2935 56.5571 80.1786 57.7523 79.2963C63.2707 75.1335 67.3533 71.2994 69.8318 68.9814C72.3103 66.6633 73.4332 65.5404 75.7513 64.1047C77.187 63.463 79.0318 63.0619 81.1895 63.1421C84.6304 63.3026 88.3842 64.0244 90.8707 64.8185C91.2718 64.9789 91.5926 65.1394 91.9135 65.2196C94.5363 66.4147 95.5068 67.6098 97.1672 69.5108C97.0388 70.5856 96.5415 74.0506 95.4347 74.4196C90.8788 75.9355 72.1579 73.7779 70.7221 72.7432C70.4254 72.5347 70.289 71.3395 70.305 70.1926L67.225 77.6681C67.241 78.9193 67.1769 80.2749 66.9603 81.7106C66.471 84.927 64.53 88.2958 63.4712 90.261C62.9338 90.2128 62.3964 90.3813 61.9953 90.7743C61.3697 91.5042 61.5221 92.6512 62.3483 93.3891C62.7333 93.726 63.2065 93.8944 63.6717 93.8944C64.145 93.8944 64.6021 93.718 64.9471 93.3731C65.1636 93.1565 65.308 92.8758 65.3561 92.571C71.2194 93.7902 85.601 96.3328 91.4482 97.2312C91.3039 97.6563 91.344 98.1135 91.5365 98.5225C90.5499 99.4129 89.4109 100.055 88.3923 100.343C87.2693 100.664 83.676 101.306 83.676 101.306L86.1544 102.669C87.0367 102.669 87.4378 102.509 87.4378 102.509C86.9565 102.83 86.3951 102.91 86.3951 102.91L87.6784 104.274C89.042 103.953 89.435 103.632 89.435 103.632C89.435 103.632 89.1142 104.033 87.6784 104.675L87.5982 106.351C87.5982 106.351 90.7986 106.11 92.3947 103.231C93.0685 101.891 93.3653 100.359 93.4695 99.7096C93.6781 99.7096 93.8866 99.6695 94.0791 99.6054C94.4882 99.461 94.809 99.1722 94.9775 98.8033C95.178 98.4343 95.2181 98.0012 95.0817 97.5921C95.0015 97.3434 94.8571 97.1189 94.6727 96.9183C96.5736 94.5682 99.5815 86.9964 100.079 83.3148C100.592 79.8016 100.536 75.2137 100.464 72.7191C102.413 74.2672 104.627 75.5425 107.282 76.8419C111.364 78.9193 112.399 78.8391 113.201 78.9995C114.717 79.2402 116.321 78.9193 118.88 80.0423C121.519 81.2454 122.241 84.2854 125.281 86.844C127.759 88.9215 130.799 89.4027 132.163 89.4027C136.245 89.3225 139.919 87.4857 145.918 83.8041C153.755 79.0076 161.439 71.2433 161.439 71.2433L160.878 70.762C160.46 71.115 160.067 71.4438 159.658 71.7887C160.292 71.2192 160.757 70.8342 160.942 70.6818C161.351 70.5856 161.383 70.6417 161.399 70.7059C161.407 70.73 161.415 70.754 161.431 70.7701L161.447 70.7861V70.762C161.447 70.4252 161.423 70.2487 161.311 70.1765C161.158 70.0722 160.813 70.2006 160.148 70.5134C159.715 70.73 158.888 70.9305 158.271 70.9305C158.174 70.9305 158.078 70.9225 157.99 70.9144C157.292 70.8503 157.156 70.4412 157.044 70.1043C157.019 70.0241 156.987 69.9439 156.955 69.8797C156.931 69.8236 156.899 69.7514 156.867 69.6712C156.699 69.2701 156.418 68.5964 156.554 68.5322C156.602 68.4841 156.651 68.436 156.691 68.3878C156.851 68.2194 156.971 68.083 157.348 67.8905C158.953 67.1927 160.364 67.0884 161.559 67.5697C163.115 68.1953 163.725 69.6311 163.733 69.6471L163.757 69.6391C163.757 69.6231 163.605 68.7247 163.019 67.8665L163.34 67.9788H163.348L163.356 67.9708C163.364 67.9547 164.407 66.527 165.594 65.8131C166.99 65.0271 168.497 64.8907 170.062 65.4121C171.329 65.8853 174.192 67.5537 174.216 67.5697L174.232 67.5537C174.224 67.5456 173.759 66.9441 172.741 66.0698C172.869 66.0858 173.013 66.1099 173.182 66.134C174.048 66.2061 175.01 66.5591 175.813 67.0884C177.136 67.8986 177.986 68.9814 178.107 69.1338C177.489 69.1338 177.12 69.1418 177.104 69.1418V69.1659C177.168 69.1739 183.906 69.8878 184.379 69.968C186.224 70.1364 188.887 70.6177 189.657 70.9225C189.897 71.0187 190.274 71.1551 190.699 71.3155C191.718 71.6925 192.985 72.1577 193.491 72.4384C194.213 72.8395 195.271 73.8982 195.729 74.3554C196.483 74.973 196.948 75.9516 197.06 76.2083C196.426 75.719 195.127 74.7484 194.309 74.3314C193.402 73.8341 191.975 73.2886 191.181 73.1282C190.924 73.1042 190.675 73.056 190.427 73.0079C189.897 72.9036 189.4 72.8074 189.023 72.9678C188.702 73.032 188.149 73.4811 188.069 74.0346C187.748 73.9464 187.002 73.7539 186.272 73.7539C186.176 73.7539 186.079 73.7538 185.991 73.7619C183.465 73.7619 181.379 73.2886 181.355 73.2806L181.347 73.3047C181.371 73.3127 183.93 74.0266 185.831 74.2672C186.914 74.3715 187.844 74.6682 188.333 74.8447C188.566 75.1254 188.975 75.4222 189.689 75.7029C191.028 76.2243 193.146 76.5772 195.985 76.7457H196.884C196.988 77.0344 197.357 77.9809 197.493 78.2536C197.493 78.3097 197.525 78.4541 197.573 78.6627C197.67 79.0637 197.814 79.6653 197.814 80.0904C197.814 80.716 197.613 81.3096 197.493 81.6064C197.317 81.9673 196.667 82.8095 195.825 83.1223C195.071 83.395 194.437 83.2587 193.763 83.1143C193.651 83.0902 193.539 83.0662 193.427 83.0421C192.697 82.8977 191.141 81.9994 190.475 81.6144C190.411 81.5823 190.363 81.5502 190.314 81.5181C190.21 81.454 190.082 81.3818 189.953 81.3016C189.408 80.9727 188.654 80.5235 188.077 80.3952C187.876 80.3551 187.692 80.2989 187.515 80.2508C187.026 80.1145 186.561 79.9941 185.919 79.9941C185.807 79.9861 185.686 79.9861 185.582 79.9861C184.267 79.9861 183.352 80.4032 182.711 81.2775C182.301 81.855 182.197 82.3443 182.374 82.7935H182.229L182.237 82.8095C182.237 82.8255 182.654 84.0207 184.243 84.7345C185.261 85.1275 186.192 85.288 186.809 85.3762C186.938 85.3842 187.066 85.3922 187.194 85.3922C188.02 85.3922 188.831 85.1837 189.528 84.9752C189.817 84.8789 190.13 84.7345 190.467 84.5741C190.956 84.3495 191.453 84.1089 191.927 84.0126C192.721 83.9003 193.346 83.9084 193.86 83.9485C194.277 84.0447 194.758 84.1249 195.199 84.1249C195.336 84.1249 195.472 84.1089 195.6 84.0928C195.921 84.133 196.25 84.1811 196.563 84.2452C197.277 84.3255 198.392 84.3255 198.408 84.3255V84.3014C198.4 84.3014 197.966 84.1811 197.501 84.0688C197.565 83.9886 197.621 83.9003 197.67 83.8041C197.646 84.0207 197.702 84.1811 198.095 84.0848C198.095 83.7961 198.023 83.4271 198.247 83.2025C198.4 83.1063 198.616 83.1704 198.752 83.2587C198.801 83.3068 198.841 83.3549 198.889 83.403C199.025 83.6276 199.202 83.9485 199.29 84.2452C199.41 84.6784 199.226 85.3602 198.688 85.3602ZM196.539 83.8683C196.515 83.8602 196.475 83.8522 196.45 83.8522C196.418 83.8442 196.362 83.8362 196.298 83.8362C196.362 83.7961 196.418 83.756 196.475 83.7159C196.483 83.7319 196.507 83.7319 196.507 83.756C196.531 83.7881 196.539 83.8282 196.539 83.8683ZM191.558 83.3309C191.469 83.2346 191.405 83.0982 191.502 82.9057C191.774 83.0501 192.023 83.1865 192.231 83.2988C192.32 83.3469 192.4 83.395 192.472 83.4351C192.183 83.403 191.887 83.371 191.558 83.3309ZM191.943 83.4512C191.878 83.4672 191.806 83.4833 191.734 83.4993C191.726 83.4833 191.71 83.4672 191.678 83.4431C191.67 83.4351 191.654 83.4191 191.646 83.4111C191.75 83.4351 191.846 83.4431 191.943 83.4512ZM188.798 84.6623C188.181 84.8548 187.403 84.9591 186.416 84.9671C186.416 84.4859 186.561 83.7239 186.793 82.9699C186.825 82.9218 186.857 82.8737 186.897 82.8336C186.938 82.8015 186.978 82.7774 187.026 82.7614C187.098 82.7694 187.162 82.7854 187.234 82.7935H187.242C187.659 82.8576 188.053 82.9218 188.429 82.9779C188.438 82.986 188.446 82.986 188.454 82.994C188.566 83.0662 188.75 83.1785 188.806 83.3469C188.734 83.7881 188.726 84.2212 188.726 84.6543H188.798V84.6623ZM183.184 83.2988C183.088 83.01 182.999 82.5608 183.128 82.1117L183.946 82.2561C184.042 82.3042 184.283 82.4325 184.331 82.7453C184.331 82.7935 184.331 82.8496 184.379 82.8656C184.227 83.4191 184.122 83.9485 184.09 84.3415L184.17 84.3495C184.202 83.9485 184.315 83.387 184.483 82.8015C184.499 82.7854 184.515 82.7694 184.531 82.7373C184.62 82.625 184.74 82.4726 184.884 82.4165C185.349 82.4967 185.799 82.5689 186.224 82.6411C186.24 82.6571 186.264 82.6651 186.296 82.6892C186.424 82.7694 186.641 82.9057 186.665 83.1143C186.456 83.8282 186.336 84.526 186.328 84.9832H186.288C185.574 84.9832 184.772 84.7425 184.299 84.5019C183.809 84.1731 183.497 83.9405 183.264 83.6276C183.2 83.5474 183.152 83.4592 183.112 83.3629C183.16 83.3389 183.192 83.3228 183.184 83.2988ZM186.954 82.2641C186.954 82.24 186.946 82.2159 186.946 82.1839L186.954 82.1438L186.922 82.1758C186.897 82.1999 186.865 82.232 186.841 82.2561C186.705 82.4004 186.553 82.5608 186.296 82.5689C185.919 82.5047 185.526 82.4405 185.125 82.3764C185.117 82.3363 185.069 82.3202 185.013 82.3042C184.988 82.3042 184.964 82.3042 184.94 82.3122C184.9 82.2962 184.852 82.2641 184.812 82.232C184.764 82.1839 184.74 82.1277 184.732 82.0555C184.916 81.5823 185.133 81.1411 185.39 80.7882C185.895 80.7882 186.4 80.8604 186.833 80.9246C187.042 80.9567 187.242 80.9887 187.411 80.9968C187.459 81.0048 187.523 81.0128 187.587 81.0288C187.355 81.3577 187.138 81.7908 186.954 82.2641ZM187.676 81.0529C188.085 81.1732 188.758 81.478 189.48 81.847C189.312 82.0635 189.175 82.2881 189.071 82.5047C189.047 82.5288 189.031 82.5528 189.007 82.5769C188.871 82.7213 188.718 82.8897 188.454 82.8897C188.413 82.8897 188.397 82.8897 188.381 82.8977C187.996 82.8416 187.595 82.7774 187.17 82.7052C187.106 82.6411 187.026 82.5448 186.978 82.4165C187.17 81.8951 187.411 81.4139 187.676 81.0529ZM184.7 81.9272L184.668 81.9112C184.483 82.1518 184.411 82.1518 184.219 82.1438C184.17 82.1438 184.122 82.1357 184.058 82.1357C183.946 82.1357 183.914 82.1357 183.898 82.1518C183.657 82.1117 183.408 82.0635 183.16 82.0234C183.256 81.7427 183.432 81.47 183.745 81.2214C184.178 80.8845 184.732 80.7802 185.301 80.7722C185.069 81.1091 184.868 81.5101 184.7 81.9272ZM188.879 83.4351C188.911 83.3469 188.967 83.2266 189.055 83.1464C189.095 83.1063 189.151 83.0983 189.199 83.0902C189.865 83.1865 190.483 83.2747 191.036 83.3389C191.004 83.3469 190.972 83.3549 190.932 83.3549C190.828 83.3549 190.82 83.3549 190.82 83.371C190.82 83.387 190.828 83.387 190.86 83.403C190.932 83.4351 191.1 83.5073 191.141 83.6918C190.86 83.8041 190.571 83.9324 190.29 84.0608C189.889 84.2452 189.48 84.4297 189.087 84.5581C188.999 84.5901 188.903 84.6142 188.814 84.6463C188.814 84.2533 188.814 83.8442 188.879 83.4351ZM189.376 83.0421C189.288 82.9619 189.127 82.8015 189.111 82.601C189.216 82.3603 189.36 82.1197 189.544 81.8791C190.194 82.2079 190.884 82.5769 191.477 82.8897C191.429 82.9378 191.389 82.994 191.349 83.0581C191.293 83.1384 191.237 83.2186 191.165 83.2827C190.627 83.2186 190.026 83.1384 189.376 83.0421Z" fill="#231F20"/>
<path d="M99.5905 70.6658C99.5103 70.2647 99.2696 69.9439 98.8686 69.3022C98.3873 68.5803 98.3071 68.0189 97.7456 67.8665C97.5852 67.8665 97.2644 68.0269 97.104 68.1071C97.1842 68.1071 97.505 68.0269 97.6654 68.1873C98.3071 68.829 97.104 74.8286 95.9891 75.2297C91.353 76.7456 71.3567 74.9891 70.0734 73.6335C69.8007 73.3367 69.6643 72.671 69.6082 71.8689L68.1163 75.7992C68.3168 77.7563 68.389 80.0102 68.0762 82.2721C67.3543 86.9884 64.6352 90.1085 65.0362 90.5898C65.3571 90.9908 93.0293 95.9478 93.3502 95.7072C94.9463 94.6644 97.8259 88.3519 98.7082 83.7078C99.43 79.5369 99.6707 71.2192 99.5905 70.6658Z" fill="white"/>
<path d="M93.6701 96.9745C93.0284 96.6537 92.2343 96.8943 91.9937 97.4558C91.8333 97.8408 91.9295 98.29 92.2103 98.6429C91.7531 99.0038 90.4537 99.9904 89.034 100.576C87.8308 101.057 84.8711 101.538 84.8711 101.538L86.1544 102.18C87.4378 102.18 89.2746 101.378 89.2746 101.378C88.8735 102.661 87.117 103.135 87.117 103.135L87.6784 103.696C89.5954 103.215 91.36 101.378 91.36 101.378C91.36 101.378 91.1996 103.776 88.0795 105.06V105.701C88.3201 105.541 90.2371 105.14 91.5205 103.303C92.5872 101.731 92.9001 99.5974 92.9482 99.1482C93.5337 99.3166 94.1834 99.076 94.4 98.5787C94.7128 98.0172 94.3919 97.2954 93.6701 96.9745Z" fill="white"/>
<path d="M91.3844 82.2241L91.1678 82.0075H90.863C90.4379 82.0075 90.1331 81.9674 89.716 81.9193L89.2107 81.8551C88.93 81.815 88.6252 81.7749 88.3204 81.7348C88.0236 81.6947 87.7268 81.6546 87.4461 81.6145L87.2215 81.5824L87.021 81.6867C86.7242 81.831 86.5157 82.1198 86.4676 82.4486C86.4114 82.7775 86.5157 83.0983 86.7563 83.331L86.9007 83.4753L87.3659 83.5876C87.5745 83.6759 87.6306 83.724 87.6226 83.6919L87.6547 83.7641C87.6948 83.8684 87.799 84.3657 87.5103 86.5634L87.2697 88.5606C86.8927 91.4883 85.6173 91.7289 84.5506 91.6086C83.949 91.5444 83.5078 91.3278 83.2111 90.9428C82.7458 90.3413 82.5934 89.3066 82.794 87.943L83.2752 84.2373C83.3394 83.5716 83.3955 83.2748 83.4437 83.1384C83.4998 83.1384 83.572 83.1304 83.6763 83.1304H84.3821L84.5987 82.9139C84.8233 82.6893 84.9436 82.2882 84.8874 81.9353C84.8393 81.6385 84.6628 81.3979 84.4062 81.2696L84.2859 81.2134L81.9999 80.9568C81.6229 80.9166 81.2379 80.8525 80.877 80.7883C80.5481 80.7322 80.2353 80.676 79.9305 80.6439L79.7139 80.6199L79.5134 80.7161C79.0081 80.9728 78.8316 81.6064 79.1043 82.1679L79.2407 82.4406L79.8262 82.6331C79.8904 82.6492 79.9546 82.6732 80.0107 82.6973C80.0187 82.8417 80.0107 83.1545 79.9145 83.8283L79.353 87.935C79.1605 89.8359 79.4172 91.1434 80.1471 92.0577C80.9251 93.0283 82.1282 93.5897 83.8126 93.7662C84.1174 93.8063 84.4062 93.8304 84.7029 93.8304C85.882 93.8304 86.9408 93.4774 87.7429 92.8037C88.7214 91.9855 89.307 90.6541 89.5155 88.7371L89.7882 86.5554C89.8925 85.6891 90.077 84.2373 90.2454 83.9726C90.2615 83.9646 90.3337 83.9405 90.478 83.9405H91.1839L91.4004 83.724C91.7534 83.363 91.7534 82.593 91.3844 82.2241Z" fill="#231F20"/>
<path d="M80.6362 83.9405C80.8768 82.1839 80.7164 82.1839 79.9945 81.9433L79.7539 81.8631C79.6736 81.7027 79.6736 81.462 79.8341 81.3818C80.4757 81.462 81.1976 81.6225 81.9115 81.7027C82.6334 81.7829 83.3472 81.8631 84.0691 81.9433C84.2295 82.0235 84.1493 82.3444 84.0691 82.4246H83.6681C82.866 82.4246 82.7056 82.5048 82.5451 84.1811L82.0639 87.8628C81.7431 90.1006 82.2243 92.1058 84.4622 92.3384C86.6198 92.5791 87.6625 91.1353 87.9833 88.6568L88.224 86.6596C88.3844 85.4565 88.5448 83.9405 88.3042 83.4593C88.224 83.2186 87.9833 83.0582 87.5823 82.8978L87.2615 82.8176C87.101 82.6572 87.1813 82.4165 87.3417 82.3363C87.9031 82.4165 88.5448 82.4967 89.0983 82.577C89.8201 82.6572 90.2212 82.7374 90.8548 82.7374C90.9351 82.8176 90.9351 83.1384 90.8548 83.2186H90.4538C90.133 83.2186 89.8121 83.2988 89.6517 83.5395C89.3309 84.0207 89.1704 85.4565 89.01 86.7398L88.7694 88.6568C88.609 90.0926 88.2079 91.4561 87.2534 92.2582C86.2909 93.0603 85.0156 93.2208 83.8927 93.0603C82.3767 92.8999 81.334 92.4187 80.6923 91.6246C80.0506 90.8225 79.8902 89.6274 80.0506 88.0232L80.6362 83.9405Z" fill="#F58025"/>
<path d="M85.6819 76.5692H85.0803C85.0643 76.5612 85.0402 76.5531 85.0161 76.5451C84.7354 76.4007 84.3424 76.4088 83.813 76.9221C82.7462 76.2644 81.7757 75.9195 80.8212 75.8553C79.0806 75.5826 77.4845 76.0639 76.2172 77.2429C74.9098 78.4541 74.1638 79.8979 73.9954 81.5021C73.7227 83.2105 74.0916 84.7666 75.0782 86.1141C75.9765 87.3814 77.5166 88.2236 79.4175 88.4963C79.6662 88.5284 79.9148 88.5445 80.1554 88.5445C81.2623 88.5445 82.3051 88.2236 83.2676 87.5819C83.9975 87.0927 84.9038 86.3628 85.0883 85.6329L85.1124 85.4564C85.1124 84.8628 84.6953 84.4056 84.1419 84.4056C83.7649 84.4056 83.5323 84.6383 83.2916 84.8789C82.3291 85.9136 81.4067 86.3708 80.5725 86.2585C79.7384 86.1302 79.1448 85.689 78.7037 84.8709C78.1743 83.8923 78.0219 82.7614 78.2304 81.3577C78.2946 80.5877 78.4711 79.954 78.7598 79.3605C79.1288 78.7669 79.4737 78.3739 79.7865 78.1654C80.1795 77.9408 80.5725 77.8686 81.0538 77.9327C81.7997 78.0691 82.3051 78.3899 82.6419 78.9514C83.1392 79.7776 83.3959 80.323 83.5323 80.8845C83.7569 81.5582 84.1659 81.7026 84.4627 81.7026C85.0723 81.7026 85.5134 81.2614 85.5134 80.6518V80.3791L85.6739 77.7723V76.5692H85.6819Z" fill="#231F20"/>
<path d="M83.916 77.8606C84.0765 77.7002 84.1567 77.62 84.3171 77.4595C84.4775 77.2991 84.6379 77.1387 84.7181 77.2189C84.7983 77.2189 84.8786 77.2991 84.9588 77.2991V77.7804L84.7983 80.3391V80.6599C84.7983 80.9005 84.6379 80.9807 84.4775 80.9807C84.3973 80.9807 84.3171 80.9005 84.2369 80.6599C84.0765 80.0182 83.7556 79.3766 83.2744 78.5825C82.7931 77.7884 82.0712 77.3793 81.1969 77.2189C80.5553 77.1387 79.9938 77.2189 79.4404 77.5398C78.9591 77.8606 78.558 78.3419 78.157 78.9755C77.8362 79.6172 77.5955 80.3391 77.5153 81.2936C77.2747 82.8897 77.5153 84.1731 78.0768 85.2158C78.6383 86.2585 79.4404 86.812 80.4751 86.9724C81.598 87.1328 82.7129 86.5713 83.8358 85.3762C83.9963 85.2158 84.0765 85.1356 84.1567 85.1356C84.3171 85.1356 84.3973 85.296 84.3973 85.4564C84.3171 85.7773 83.8358 86.3387 82.8813 86.9724C81.9188 87.6141 80.8039 87.9349 79.5206 87.7745C77.8442 87.5339 76.4806 86.812 75.6785 85.6971C74.7962 84.4939 74.4754 83.1384 74.716 81.6144C74.8764 80.0984 75.5983 78.8151 76.7132 77.7724C77.8281 76.7296 79.1917 76.3366 80.7157 76.5692C81.8306 76.6575 82.8733 77.1387 83.916 77.8606Z" fill="#F58025"/>
<path d="M140.384 122.81C140.384 122.81 139.983 123.371 139.983 124.406C139.983 125.449 140.224 125.529 140.224 125.529C140.224 125.529 139.582 125.449 139.582 124.246C139.662 123.291 140.384 122.81 140.384 122.81Z" fill="#231F20"/>
<path d="M157.172 68.5724L157.18 68.5964C157.204 68.5884 157.228 68.5884 157.252 68.5884V68.5964C157.573 68.9173 157.894 69.1418 158.415 69.1819C158.471 69.19 158.527 69.19 158.592 69.19C159.105 69.19 159.787 69.0295 160.709 68.7087C160.95 68.7809 161.158 68.8531 161.343 68.9333C162.241 69.3183 162.682 69.7996 162.69 69.7996L162.706 69.7835C161.335 67.5136 157.942 68.2676 157.172 68.5724Z" fill="#231F20"/>
<path d="M175.515 69.7113C175.515 69.7033 175.507 69.6953 175.491 69.6953H175.483C175.331 69.7595 175.194 69.8316 175.05 69.9119C174.689 70.1044 174.312 70.3049 173.566 70.4172C172.539 70.5776 171.729 70.6578 170.775 70.2568C170.286 70.0562 169.917 69.7595 169.588 69.5028C169.267 69.2541 168.97 69.0135 168.617 68.8932C168.569 68.8772 168.521 68.8611 168.473 68.8451C168.016 68.6766 167.318 68.4119 165.008 69.1338L165.016 69.1579C167.101 68.7889 167.302 68.9654 168.296 69.8397C168.32 69.8637 168.353 69.8878 168.377 69.9119C168.184 70.4894 167.935 71.6283 168.681 72.4385C168.842 72.639 169.435 73.2486 170.671 73.2486C170.751 73.2486 170.839 73.2486 170.927 73.2406C171.272 73.2406 172.179 72.7673 172.932 72.3582C173.887 71.8048 175.082 70.3691 175.098 70.353L175.082 70.337C175.074 70.345 173.879 70.8984 173.566 70.9786L173.51 70.9867C174.184 70.7541 174.641 70.5054 174.922 70.3209C175.363 70.0161 175.523 69.7595 175.515 69.7113ZM170.695 72.7272C170.63 72.7352 170.558 72.7433 170.494 72.7433C169.957 72.7433 169.419 72.4946 169.107 72.254C168.264 71.7487 168.336 70.5936 168.457 69.968C168.481 69.9921 168.505 70.0081 168.537 70.0322C169.042 70.4653 169.973 71.115 170.622 71.2754C170.63 71.5562 170.647 71.9171 170.703 72.0214C170.799 72.27 171.015 72.4385 171.248 72.5427C171.064 72.639 170.895 72.7112 170.695 72.7272ZM172.716 71.3476C172.491 71.2995 172.203 71.2514 171.978 71.2915C171.946 71.2995 171.914 71.2995 171.874 71.2995C171.826 71.2995 171.761 71.2915 171.697 71.2834C171.938 71.2754 172.171 71.2594 172.331 71.2514C172.483 71.2433 172.596 71.2353 172.62 71.2353C172.668 71.2273 172.708 71.2113 172.756 71.2032C172.748 71.2433 172.732 71.2915 172.716 71.3476Z" fill="#231F20"/>
<path d="M173.895 73.1443C172.852 74.9009 171.256 75.4623 169.893 75.5425C168.296 75.4623 167.494 74.3394 167.334 73.3849C167.735 73.9464 168.296 75.0613 170.294 75.0613C171.577 75.0613 172.852 74.3394 173.895 73.1443Z" fill="#231F20"/>
<path d="M120.869 103.135C120.869 103.135 118.15 96.0922 112.311 95.1377C112.311 95.1377 116.313 93.3812 122.072 96.5013C122.072 96.5013 116.874 95.0656 116.554 95.7794C116.385 96.1003 119.987 96.4933 120.869 103.135Z" fill="#231F20"/>
<path d="M134.704 104.578C134.864 105.541 139.099 103.062 141.185 101.619C144.145 99.5413 152.222 92.6593 152.222 92.6593C147.826 94.5763 141.506 99.4611 139.581 100.736C137.263 102.252 134.463 103.616 134.704 104.578Z" fill="#231F20"/>
<path d="M101.194 124.815L100.552 124.093C100.552 124.093 96.8702 131.85 92.3945 136.815C92.3945 136.815 93.5175 136.173 94.7928 134.737C95.8355 133.614 96.9504 131.858 97.8327 130.422" fill="#231F20"/>
<path d="M69.7589 136.413C69.7589 135.13 69.1172 133.374 69.1172 133.374C71.0342 133.855 70.7936 137.135 71.5957 138.25C72.3978 139.453 78.237 141.13 78.237 143.047C78.237 143.047 76.4002 142.084 74.395 141.29C72.478 140.488 70.2321 140.007 69.9193 139.213C69.5984 138.33 69.7589 137.528 69.7589 136.413Z" fill="#231F20"/>
<path d="M157.901 142.726H157.821L153.025 139.766H152.945C151.429 140.007 149.905 141.202 148.469 143.368C136.79 160.324 123.837 168.962 109.912 168.962C98.5545 168.962 88.7128 164.326 80.6357 155.207L80.4753 155.046L78.6385 156.482L78.815 156.658C77.3953 157.773 76.2643 158.68 75.9996 158.88C75.6788 159.121 75.3579 159.281 75.1173 159.442C74.1548 160.725 74.1548 162.642 74.0746 163.685C73.9944 164.808 73.9142 165.762 75.4381 167.527C77.9968 170.486 76.8017 173.847 75.5184 173.446C75.5184 173.446 73.6014 173.045 73.2003 172.885C72.719 172.644 72.318 171.762 71.8367 171.521C71.8367 171.842 71.7565 172.083 71.7565 172.163C71.7565 172.243 71.5961 172.403 71.1149 172.323C70.794 172.323 68.5562 171.762 67.8343 171.441C67.2728 171.2 66.7916 170.799 66.5509 170.398C66.2301 169.917 65.6686 168.802 65.5082 168.321C65.3478 167.599 65.3478 166.083 65.027 165.201C64.7061 164.318 63.8238 162.883 62.9495 161.92C62.3881 161.359 62.0672 160.003 63.511 158.88C64.4735 158.078 66.0697 157.837 67.5937 156.963C68.0749 156.081 68.5562 155.287 69.1096 154.806C70.0721 154.003 72.6308 153.209 73.5051 152.969L74.8606 151.758L74.9489 151.846L76.7055 150.25L76.6252 150.089C68.6284 138.491 64.5457 122.97 64.5457 103.937C64.5457 92.3384 66.1419 82.1839 69.262 73.8662C72.3822 65.6287 76.6974 59.0675 82.2158 54.3512C87.654 49.7151 94.536 47.3088 102.613 47.3088C113.49 47.3088 122.69 51.7043 129.884 60.4231C136.606 68.5804 141.563 76.2564 144.442 83.1384L144.523 83.379L146.52 82.0957L146.44 81.9353C146.424 81.8951 146.399 81.855 146.383 81.8149L149.078 79.938L151.765 77.8767L151.798 78.3338L154.035 76.5773L152.038 46.7393C151.637 41.622 151.156 40.3386 150.835 39.697C150.193 38.6542 148.918 38.1008 147.073 38.1008C145.397 38.1008 143.552 39.5365 141.394 42.7369C140.111 44.5737 138.755 46.3383 137.392 48.0147C123.267 40.5071 109.19 36.665 95.5948 36.665C75.759 36.665 59.0433 44.1005 46.0815 58.8189C33.0394 73.5453 26.4863 91.1353 26.4863 111.051C26.4863 131.047 33.0475 148.244 45.9211 161.92C58.8749 175.676 76.6333 182.638 98.8673 182.638C115.663 182.638 129.9 177.441 141.098 167.198C152.455 156.803 158.054 149.279 158.054 144.242L157.901 142.726Z" fill="#231F20"/>
<path d="M78.9511 156.562C87.5094 166.243 97.9045 171.12 109.904 171.12C124.542 171.12 138.138 162.161 150.217 144.563C151.42 142.806 152.615 141.844 153.578 141.844C155.254 141.844 155.896 142.566 155.896 144.242C155.896 148.557 150.458 155.76 139.662 165.602C128.865 175.524 115.109 180.481 98.8671 180.481C77.2747 180.481 59.9976 173.759 47.4368 160.404C34.9562 147.129 28.6437 130.486 28.6437 111.051C28.6437 91.6165 35.0444 74.58 47.6774 60.2626C60.2382 46.0255 76.3924 38.8307 95.6667 38.8307C109.262 38.8307 123.259 42.7529 137.336 50.3488L138.057 50.7498L138.539 50.1081C139.974 48.2713 141.579 46.1859 143.175 43.948C145.493 40.5873 146.696 40.2664 147.097 40.2664C147.819 40.2664 148.693 40.3466 149.014 40.8279C149.094 40.9883 149.575 42.031 149.896 46.9078C149.896 46.9078 151.492 71.1471 151.974 77.9408L153.811 76.5051C153.249 68.3477 151.813 46.8276 151.813 46.8276C151.412 41.7904 151.011 40.4268 150.61 39.8654C150.049 38.7424 148.854 38.2692 147.089 38.2692C145.413 38.2692 143.648 39.705 141.571 42.8251C140.135 44.8223 138.771 46.5869 137.488 48.2633C123.347 40.7477 109.27 36.8254 95.6667 36.8254C75.8309 36.8254 59.1955 44.2609 46.2336 58.9793C33.1996 73.6175 26.6465 91.1352 26.6465 111.051C26.6465 131.047 33.2076 148.084 46.001 161.84C58.8746 175.596 76.633 182.558 98.8751 182.558C115.671 182.558 129.828 177.36 141.025 167.118C152.383 156.723 157.901 149.279 157.901 144.322C157.901 143.841 157.821 143.36 157.741 142.959L153.024 139.999C151.589 140.239 150.145 141.435 148.629 143.52C136.87 160.557 123.916 169.195 109.92 169.195C98.4821 169.195 88.6404 164.559 80.4831 155.359L78.9511 156.562ZM76.4726 150.25C68.4757 138.651 64.3128 123.131 64.3128 104.017C64.3128 92.3384 65.909 82.2641 69.0292 73.8662C72.1493 65.6286 76.5448 59.0675 82.0632 54.271C87.5816 49.5547 94.4636 47.2286 102.541 47.2286C113.497 47.2286 122.778 51.7043 129.972 60.4231C136.774 68.6606 141.651 76.3366 144.611 83.1384L146.287 82.0154C143.247 75.0533 138.29 67.3772 131.488 59.1397C123.892 49.8595 114.131 45.2234 102.533 45.2234C93.9743 45.2234 86.6191 47.782 80.7798 52.739C74.9406 57.6959 70.3847 64.5779 67.1843 73.1363C63.984 81.6946 62.3076 92.0095 62.3076 103.929C62.3076 123.604 66.5507 139.606 74.9486 151.517L76.4726 150.25Z" fill="#F58025"/>
</g>
<defs>
<clipPath id="clip0_15016_302790">
<rect width="200" height="200" fill="white" transform="translate(0.210938 0.378906)"/>
</clipPath>
</defs>
</svg>
