<svg width="201" height="201" viewBox="0 0 201 201" fill="none" xmlns="http://www.w3.org/2000/svg">
<g clip-path="url(#clip0_15016_304148)">
<path d="M181.482 155.031C182.682 152.895 183.346 149.055 183.034 146.567C185.154 144.303 188.402 140.567 190.666 136.799C193.81 137.303 200.258 138.319 200.258 138.319C200.258 138.319 197.65 116.679 194.17 103.607C195.634 102.303 197.738 100.215 197.738 100.215C196.594 89.7115 192.57 76.7835 187.882 67.3275C199.986 49.8715 188.642 26.5595 169.722 20.4715C169.69 26.1515 167.074 34.2075 165.258 37.1275C164.434 35.2955 163.178 33.4395 163.178 31.3595C163.178 29.4235 164.29 27.6955 165.266 26.1115C167.402 22.6395 169.882 19.1835 173.162 16.6955C158.866 5.3355 136.506 9.5835 124.938 22.9435C104.37 20.3275 83.5138 26.0715 68.9378 41.3435C57.4498 40.8875 45.9538 41.2715 34.4578 41.2795C23.0578 41.2875 11.6578 41.2795 0.257812 41.2795L17.4658 61.0795C13.4818 69.6155 10.6738 78.7115 7.57781 87.6155C4.84181 95.4875 2.29781 104.887 6.76181 112.639C14.1218 125.407 32.4818 123.639 44.8498 123.639C42.2098 131.063 38.5458 138.663 38.9858 146.743C39.3218 152.983 42.3778 158.583 47.6658 161.967C57.2738 168.119 70.2818 166.991 81.1778 166.839C93.6898 166.663 106.21 166.743 118.722 166.743C125.61 169.831 132.338 173.271 138.938 176.927C145.026 180.303 150.874 184.151 157.274 186.943C169.234 192.175 183.666 193.407 195.586 187.383C192.618 184.623 183.066 173.287 181.482 155.031Z" fill="#C1C6C8"/>
<path d="M177.714 144.775C179.202 143.319 183.914 138.311 186.13 134.503C186.13 134.503 184.962 132.167 184.426 130.599C186.394 130.999 194.41 132.255 194.41 132.255C194.41 132.255 192.29 114.767 188.426 101.943C189.274 101.239 192.426 98.2632 192.426 98.2632C191.89 93.2312 189.026 79.9352 181.842 66.7192C193.098 55.2472 187.282 34.3992 173.538 27.7512C173.378 34.7512 169.082 43.0152 163.826 44.8152C163.202 44.3352 162.562 43.8632 161.922 43.4072C161.066 39.0152 157.682 35.1672 158.09 30.5192C158.522 25.6232 162.042 21.1832 165.242 17.7112C152.538 11.2872 134.97 17.2072 127.066 28.4712C106.522 24.3832 85.0257 30.7432 71.0097 46.5512C61.1857 45.7352 51.1937 46.3432 41.3377 46.3432C31.3617 46.3432 21.3857 46.3432 11.4017 46.3432L23.5297 60.2872C19.1617 68.2952 16.7057 77.1432 13.6497 85.7032C10.9217 93.3592 6.60968 102.559 11.3217 110.335C14.9057 116.231 21.7697 118.023 28.2337 118.487C36.1457 119.047 44.2017 118.599 52.1297 118.599C50.1777 125.071 47.2337 131.223 45.3537 137.727C43.3057 144.799 43.4577 152.743 49.8977 157.495C55.2577 161.455 62.4497 161.655 68.8417 161.655C85.7057 161.671 102.562 161.655 119.426 161.655C130.978 166.671 141.706 172.919 152.738 178.935C163.002 184.527 174.93 188.415 186.562 184.975C186.562 184.975 178.042 175.239 176.242 153.655C178.098 151.559 178.354 148.823 177.714 144.775Z" fill="#00529B"/>
<path d="M100.513 98.3519C105.753 98.3519 116.097 98.4479 115.713 105.92C115.553 108.256 114.345 111.816 112.529 116.968H94.7131L97.3131 109.648H85.6251C80.5371 121.304 77.4171 130.288 74.1931 141.424H103.801L99.8011 152.712H67.9611C62.7371 152.712 52.4971 152.616 52.9611 145.312C53.1291 142.8 54.0571 139.032 55.9611 134.256L61.4011 119.24C61.4811 119.016 61.5611 118.8 61.6491 118.592H71.3211L78.4891 98.3519H100.513ZM21.1691 91.1999C19.2571 95.9679 18.3291 99.7279 18.1691 102.248C17.6971 109.544 27.9371 109.648 33.1691 109.648H65.0011L69.0011 98.3599H39.4011C42.6171 87.2239 45.7371 78.2479 50.8331 66.5839H62.5131L59.9211 73.9119H77.7371C79.5531 68.7599 80.7691 65.1999 80.9291 62.8639C81.3051 55.3839 70.9611 55.2959 65.7211 55.2959H31.0171L35.0811 59.9679C31.6411 62.7839 30.1611 66.5919 26.6171 76.1919L21.1691 91.1999Z" fill="white"/>
<path d="M178.074 115.48C178.074 115.48 177.97 107.416 176.41 98.3518C165.034 102.608 157.642 107.232 157.642 107.232C157.642 107.232 157.586 104.488 160.13 100.672C156.338 96.6878 154.898 90.9037 154.674 89.8877C151.234 85.0558 147.93 81.7438 147.93 81.7438C155.506 83.2158 161.586 85.5518 164.818 86.9438C162.946 81.3678 158.266 77.3677 158.266 77.3677C152.834 76.5277 143.282 76.8158 143.282 76.8158C143.282 76.8158 144.89 70.9838 149.146 65.7278C144.826 68.3518 138.242 70.7518 128.818 70.2958C125.522 72.5598 122.778 74.6558 120.578 76.4638C121.674 88.2318 124.73 98.8798 124.73 98.8798C127.426 101.952 141.498 113.312 141.498 113.312C136.202 113.28 129.898 110.704 124.506 107.84C123.738 114.024 120.914 120.088 118.858 125.92H104.73C105.538 127.928 106.49 130.232 107.514 132.496H116.458C116.458 132.496 114.986 136.648 113.298 141.424C119.858 145.488 144.498 160.088 169.346 166.2C168.106 161.008 167.506 156.488 167.242 154.048C161.17 152.32 160.186 145.432 160.186 145.432C164.85 148.048 169.458 146.496 169.458 146.496C168.09 142.824 166.21 140.624 166.21 140.624C159.874 137.624 150.17 136.232 145.602 135.952L140.866 138.976C140.866 138.976 142.066 129.304 151.53 125C158.938 127.24 172.418 136.024 174.082 137.6C176.306 135.512 177.514 133.304 177.514 133.304C175.706 129.296 171.242 119.112 171.242 119.112C175.586 117.48 178.074 115.48 178.074 115.48ZM142.37 126.056C142.37 126.056 141.554 124.712 141.69 122.736C141.69 122.736 138.738 121.488 138.082 116.792C138.082 116.792 140.378 119.4 144.45 119.976C146.474 120.272 147.994 120.776 149.138 121.296C145.49 123.064 142.37 126.056 142.37 126.056ZM152.242 23.4478C146.314 25.2558 134.194 36.2798 144.002 54.8398C140.106 54.7918 136.618 52.5118 135.842 51.7838C134.362 50.3918 129.194 43.9038 133.394 35.8158C139.538 23.9838 152.242 23.4478 152.242 23.4478ZM176.698 58.4398C175.938 57.3758 175.114 56.3358 174.29 55.2958C176.986 52.6398 180.33 47.1358 176.57 39.0478C182.378 46.5678 179.234 55.1918 176.698 58.4398ZM108.314 89.8958C102.346 89.0558 96.1537 89.4158 90.1457 89.4158C87.7297 81.0158 87.9537 73.8478 87.9537 73.8478C90.9617 75.9838 93.9537 78.1518 96.9137 80.3518C100.786 83.2478 105.25 86.1118 108.314 89.8958Z" fill="#C1C6C8"/>
<path d="M171.226 119.096C175.586 117.48 178.066 115.472 178.066 115.472C178.066 115.472 177.962 107.408 176.402 98.3437C176.93 92.9997 174.962 86.1437 174.962 86.1437L173.194 88.3517C168.338 78.4877 160.218 72.2957 160.218 72.2957C149.578 72.4877 143.274 76.8077 143.274 76.8077C143.274 76.8077 144.882 70.9757 149.138 65.7197C152.682 63.5677 154.714 61.2638 155.482 60.2718C161.098 62.6878 168.354 66.2798 174.226 70.8077C178.154 76.6477 182.314 84.5597 184.642 94.2477C184.642 94.2477 182.026 96.3357 178.698 98.7997C178.698 98.7997 183.562 110.264 185.138 123.304C185.146 123.304 176.498 121.104 171.226 119.096ZM166.322 94.5117C163.178 92.1677 159.57 90.5997 157.682 89.5277C160.354 96.3278 164.258 98.3837 165.426 98.8557L164.386 95.7598L166.322 94.5117ZM161.514 134.56C159.114 132.816 155.618 131.104 154.618 130.64C153.442 131.24 151.162 132.568 151.162 132.568C155.618 133.168 161.514 134.56 161.514 134.56ZM150.274 38.4638C147.09 30.9038 152.25 23.4478 152.25 23.4478C152.25 23.4478 139.546 23.9838 133.41 35.8238C129.21 43.9118 134.378 50.3998 135.858 51.7918C137.17 53.0238 146.25 58.7677 151.962 50.4158C155.01 45.9518 150.97 40.1518 150.274 38.4638ZM176.578 39.0478C176.578 39.0478 175.65 46.0638 169.986 50.3358C172.466 52.8958 174.698 55.6238 176.706 58.4478C179.234 55.1918 182.378 46.5678 176.578 39.0478Z" fill="white"/>
</g>
<defs>
<clipPath id="clip0_15016_304148">
<rect width="200" height="200" fill="white" transform="translate(0.257812 0.773438)"/>
</clipPath>
</defs>
</svg>
