<svg width="201" height="201" viewBox="0 0 201 201" fill="none" xmlns="http://www.w3.org/2000/svg">
<g clip-path="url(#clip0_15016_302732)">
<path d="M179.201 160.171L193.505 121.74C195.179 119.978 196.548 118.162 197.572 116.3C200.797 110.737 200.663 106.118 199.837 103.021C200.665 97.8315 198.848 93.8356 197.304 91.5052C197.175 87.0966 195.486 83.0394 192.477 79.9358C192.383 79.7529 192.283 79.5661 192.176 79.3806C190.816 72.2433 186.166 67.2717 179.545 65.8152C177.107 62.8696 173.97 60.8711 170.407 60.0076C168.601 59.5687 166.873 59.3872 165.002 59.5204C164.427 59.1586 163.88 58.8019 163.36 58.4532L161.339 54.5893C161.253 54.426 152.778 38.5224 137.929 31.6476C137.361 30.4824 136.833 29.5132 136.423 28.8026C137.444 24.9309 139.02 15.6238 132.254 10.9487C130.243 9.55888 127.919 8.85478 125.342 8.85478C120.651 8.85478 116.32 11.2217 114.275 12.5371C107.468 11.5849 102.74 11.4765 100.961 11.4765C100.788 11.4765 100.624 11.483 100.466 11.4948V11.4856C100.385 11.4817 95.0472 11.3263 86.3972 12.5359C84.3543 11.2218 80.0253 8.85478 75.3346 8.85478C72.7587 8.85478 70.4322 9.55888 68.4219 10.9487C62.7893 14.8414 62.6012 22.4816 64.2471 28.3937C63.803 29.1983 63.1995 30.3466 62.5581 31.7325C47.8249 38.6491 39.4192 54.4273 39.3317 54.5919L37.3122 58.4532C36.7923 58.8019 36.245 59.1586 35.6703 59.5204C33.7997 59.3885 32.065 59.57 30.2637 60.0076C26.7042 60.8711 23.5679 62.8683 21.1304 65.8152C14.5129 67.2717 9.86267 72.242 8.49895 79.3767C8.39184 79.5622 8.29125 79.749 8.1972 79.9358C5.1876 83.0394 3.49731 87.0966 3.3693 91.5052C1.8227 93.8356 0.00700247 97.8314 0.836472 103.022C0.0161462 106.097 -0.124929 110.678 3.01399 116.142C4.12169 118.182 5.60821 120.154 7.45394 122.047L21.6163 160.171H42.0396V172.188C58.0359 162.642 78.322 156.921 100.412 156.921C122.499 156.921 142.784 162.642 158.779 172.188L158.778 160.171H179.201Z" fill="#818A8F"/>
<path d="M155.754 166.951L155.753 157.143H177.099L188.347 126.874H168.46L168.461 113.947C171.136 115.548 173.844 116.736 176.074 117.401C175.538 118.336 175.119 118.952 175.107 118.966C175.052 119.046 175.035 119.145 175.064 119.238C175.093 119.332 175.162 119.405 175.254 119.44C176.706 119.995 178.284 120.279 179.944 120.279C181.555 120.279 183.04 120.019 184.276 119.69L185.762 124.387C190.477 121.068 193.307 117.781 194.954 114.781C197.926 109.662 197.525 105.604 196.734 103.187C197.675 98.6264 196.116 94.8826 194.282 92.4726C194.415 87.4788 192.249 83.9075 189.962 81.7026C189.78 81.2794 189.556 80.8679 189.298 80.4695C188.056 72.8162 183.066 69.3572 177.863 68.5852C175.754 65.6723 172.969 63.7442 169.699 62.9526C168.486 62.6587 167.272 62.5098 166.089 62.5098C165.467 62.5098 164.871 62.5634 164.286 62.6379C161.192 60.7477 157.387 58.1418 155.57 55.7866L158.874 56.407L158.662 55.9969C158.561 55.8036 150.185 40.1155 135.678 33.9605C134.519 31.4368 133.429 29.6642 133.148 29.2253C133.55 27.9935 136.688 17.6924 130.538 13.4405C129.042 12.4073 127.295 11.8835 125.346 11.8835C120.401 11.8835 115.728 15.1779 115.012 15.7043C107.774 14.6227 102.783 14.5051 100.964 14.5051C100.563 14.5051 100.347 14.5116 100.347 14.5116C100.334 14.5116 100.117 14.5051 99.7144 14.5051C97.8974 14.5051 92.9049 14.6227 85.6669 15.7043C84.9524 15.1779 80.28 11.8835 75.3384 11.8835C73.3895 11.8835 71.643 12.4073 70.1474 13.4405C64.0001 17.6897 67.126 27.5638 67.5349 28.7629C67.2488 29.2345 66.0692 31.2304 64.8544 34.0231C50.4386 40.22 42.1205 55.8036 42.0199 55.9969L41.8056 56.407L45.1118 55.7866C43.2948 58.1418 39.4883 60.7477 36.3925 62.6379C35.8086 62.5634 35.213 62.5098 34.5899 62.5098C33.4078 62.5098 32.1916 62.6574 30.982 62.9526C27.7125 63.7442 24.9302 65.6723 22.8206 68.5852C17.6178 69.3572 12.6292 72.8135 11.3857 80.4643C11.127 80.8653 10.901 81.278 10.7195 81.7026C8.43223 83.9075 6.26385 87.4788 6.40101 92.4726C4.56572 94.8826 3.00476 98.6264 3.94917 103.189C3.16281 105.591 2.7644 109.62 5.67865 114.697C7.32061 117.72 10.1578 121.036 14.9178 124.387L16.4043 119.69C17.6426 120.019 19.1265 120.279 20.7384 120.279C22.3987 120.279 23.9766 119.995 25.4292 119.44C25.5206 119.405 25.5898 119.332 25.6186 119.238C25.6473 119.145 25.6316 119.046 25.5755 118.966C25.565 118.952 25.1483 118.342 24.6128 117.408C26.9078 116.722 29.7228 115.478 32.4895 113.792L32.4881 126.874H12.4803L23.7258 157.143H45.0726V166.951C45.0726 166.951 67.9711 153.984 100.416 153.984C132.858 153.984 155.754 166.951 155.754 166.951Z" fill="black"/>
<path d="M87.8361 31.915C87.673 32.1846 87.5748 32.4981 87.5748 32.8294C87.5748 33.5776 88.0377 34.2193 88.6961 34.5087C88.5968 34.3572 88.5247 34.1837 88.5247 33.9904C88.5247 33.4575 88.9552 33.029 89.4892 33.029C90.0211 33.029 90.4506 33.4575 90.4506 33.9904C90.4506 34.1618 90.3942 34.3165 90.3158 34.4565C90.8425 34.1963 91.2396 33.7239 91.3431 33.1377C90.1789 32.8649 88.9803 32.4219 87.8361 31.915ZM112.83 31.9558C111.688 32.4637 110.493 32.9057 109.333 33.1784C109.461 33.9225 110.053 34.4889 110.804 34.6477C110.662 34.4805 110.567 34.2736 110.567 34.0353C110.567 33.5024 110.998 33.0677 111.53 33.0677C112.059 33.0677 112.494 33.5024 112.494 34.0353C112.494 34.1116 112.466 34.1764 112.449 34.2454C112.841 33.9079 113.094 33.4198 113.094 32.8723C113.094 32.5379 112.993 32.2244 112.83 31.9558ZM94.0925 52.4075C94.0925 52.4075 93.966 55.5519 96.3559 57.877C96.3559 57.877 95.8345 55.5341 96.2974 54.0325L97.9485 55.7546L98.4522 54.3972L99.6216 55.926L100.336 54.2509L101.052 55.926L102.223 54.3972L102.728 55.7546L104.377 54.0325C104.836 55.5341 104.314 57.877 104.314 57.877C106.707 55.5519 106.581 52.4075 106.581 52.4075C106.581 52.4075 103.232 53.3386 100.336 53.3386C97.4469 53.3386 94.0925 52.4075 94.0925 52.4075ZM96.1846 67.9822C96.1846 67.9822 95.1605 69.6291 95.9014 71.3659C95.9014 71.3659 96.9871 71.9804 100.336 71.9804C103.688 71.9804 104.773 71.3659 104.773 71.3659C105.515 69.6291 104.492 67.9822 104.492 67.9822C104.492 67.9822 104.428 69.2216 103.45 70.4233L102.636 69.4024L101.88 70.2906L101.137 69.4337L100.336 70.3293L99.5401 69.4337L98.795 70.2906L98.0363 69.4024L97.2233 70.4233C96.2462 69.2216 96.1846 67.9822 96.1846 67.9822ZM33.286 74.8907C32.1333 74.8907 30.8616 76.0089 30.7571 79.1418C30.5742 84.6521 33.8283 87.8278 35.2088 88.9209C34.9109 87.0148 34.3007 82.0134 35.4136 78.5733C35.7302 77.5889 35.6059 76.6045 35.0698 75.8667C34.6256 75.2565 33.9589 74.8907 33.286 74.8907ZM167.391 74.8907C166.719 74.8907 166.053 75.2565 165.607 75.8667C165.073 76.6045 164.947 77.5899 165.262 78.5712C166.378 82.0124 165.765 87.0148 165.467 88.9209C166.846 87.8247 170.101 84.65 169.922 79.1397C169.817 76.0078 168.545 74.8907 167.391 74.8907ZM24.1213 81.0531C23.5173 81.0531 22.9708 81.3175 22.5831 81.794C21.8913 82.6436 21.722 84.1254 22.1055 85.9656C23.2466 91.4456 27.2657 93.7028 28.8792 94.4019C28.1351 92.6306 26.3179 87.855 26.5969 84.1703C26.668 83.258 26.4067 82.4335 25.8644 81.8473C25.3983 81.3446 24.7629 81.0531 24.1213 81.0531ZM176.545 81.0552C175.906 81.0552 175.269 81.3425 174.802 81.8473C174.262 82.4335 174 83.258 174.072 84.1703C174.353 87.855 172.533 92.6285 171.788 94.4019C173.403 93.7018 177.422 91.4467 178.564 85.9656C178.947 84.1264 178.776 82.6446 178.084 81.794C177.698 81.3175 177.15 81.0552 176.545 81.0552ZM100.466 85.4233C93.9995 85.4243 87.532 85.8329 81.1909 86.648L80.3622 86.7535V126.188L81.4365 126.049C93.9598 124.443 106.974 124.438 119.5 126.038L120.571 126.175V109.483L119.74 109.378C115.338 108.816 110.86 108.444 106.425 108.271L105.435 108.232V114.727L104.405 114.702C101.778 114.637 99.1618 114.637 96.5315 114.71L95.499 114.74V95.6643L96.4792 95.6392C99.1419 95.5692 101.8 95.5671 104.457 95.6392L105.435 95.6664V103.204L106.353 103.238C110.687 103.406 115.111 103.772 119.5 104.33L120.571 104.468V86.7421L119.738 86.6365C113.399 85.8256 106.933 85.4201 100.467 85.4222L100.466 85.4233ZM125.081 87.4129V126.864L125.871 126.999C130.213 127.74 134.575 128.687 138.835 129.811L140.032 130.129V120.369L141.309 120.733C143.846 121.445 146.408 122.244 148.924 123.095L149.608 123.326V133.087L150.245 133.309C154.904 134.943 159.558 136.832 164.095 138.939L164.099 108.407L167.032 100.702L166.24 100.322C153.481 94.242 140.011 89.9638 126.196 87.5937L125.088 87.4025L125.081 87.4129ZM75.852 87.4234L74.738 87.6146C70.3197 88.3775 65.9025 89.3378 61.6086 90.4748L60.9001 90.6618V119.911L60.1592 120.114C57.717 120.782 55.1902 121.547 52.6488 122.386L51.33 122.825V93.5774L50.0582 94.0215C44.8593 95.8471 39.6929 97.98 34.6978 100.362L33.8858 100.747L36.8431 107.942L36.839 138.977C49.0143 133.305 61.8699 129.283 75.063 127.013L75.853 126.874L75.852 87.4234ZM19.4177 90.5135C18.8325 90.5135 18.3278 90.7716 17.9976 91.2418C17.4343 92.0413 17.4364 93.36 18.008 94.9526C19.5985 99.3939 23.2027 100.835 24.7264 101.257C23.8433 99.7669 21.7857 95.9882 21.5976 92.8396C21.5078 91.3129 20.4314 90.5135 19.4177 90.5135ZM181.257 90.5135C180.245 90.5135 179.171 91.3118 179.079 92.8396C178.891 95.9872 176.834 99.768 175.951 101.257C177.474 100.835 181.073 99.3949 182.666 94.9526C183.236 93.36 183.243 92.0423 182.678 91.2418C182.347 90.7716 181.842 90.5135 181.257 90.5135ZM16.544 98.816C15.9724 98.816 15.4676 99.0825 15.1604 99.5465C14.639 100.33 14.7027 101.588 15.336 103.092C17.0634 107.196 20.5181 108.37 22.0041 108.69C21.0751 107.306 18.9496 103.854 18.6141 100.896C18.4511 99.4691 17.427 98.816 16.544 98.816ZM184.141 98.816C183.26 98.816 182.235 99.4691 182.072 100.896C181.737 103.852 179.613 107.301 178.686 108.69C180.171 108.365 183.627 107.183 185.35 103.092C185.985 101.588 186.047 100.33 185.528 99.5465C185.221 99.0825 184.715 98.816 184.141 98.816ZM140.041 100.883L141.319 101.245C143.88 101.967 146.442 102.763 148.934 103.608L149.618 103.838V112.758L148.298 112.326C145.836 111.516 143.304 110.75 140.778 110.054L140.041 109.848V100.883ZM15.0486 108.054C14.4947 108.054 14.0193 108.313 13.7403 108.764C13.2784 109.512 13.4006 110.672 14.083 112.038C15.8856 115.644 19.075 116.524 20.4878 116.737C19.5337 115.489 17.4145 112.491 16.939 109.82C16.7196 108.599 15.8324 108.054 15.0486 108.054ZM185.635 108.054C184.851 108.054 183.964 108.599 183.747 109.82C183.27 112.491 181.152 115.487 180.195 116.737C181.611 116.519 184.8 115.635 186.602 112.038C187.285 110.672 187.407 109.512 186.945 108.764C186.666 108.313 186.187 108.054 185.635 108.054Z" fill="white"/>
<path d="M76.3022 15.8912C75.3659 15.8629 74.4463 16.0301 73.5977 16.4899C69.076 18.9426 69.9569 26.8072 74.5821 29.659C74.5821 29.659 71.5652 24.293 76.3659 21.4234C76.3659 21.4234 75.7577 21.0336 74.021 20.6678C74.021 20.6678 79.5856 18.5643 82.4134 22.7213C82.4134 22.7213 75.0597 26.5805 86.7522 29.9401C86.7522 29.9401 85.8378 28.0027 85.8378 26.6097C85.8378 26.6097 99.0957 36.2593 100.335 27.22C101.577 36.2593 114.837 26.6097 114.837 26.6097C114.837 28.0027 113.922 29.9401 113.922 29.9401C125.614 26.5805 118.26 22.7213 118.26 22.7213C121.09 18.5643 126.652 20.6678 126.652 20.6678C124.917 21.0336 124.307 21.4234 124.307 21.4234C129.11 24.293 126.093 29.659 126.093 29.659C130.719 26.8072 131.599 18.9436 127.077 16.4899C122.551 14.0394 115.953 19.859 115.953 19.859C115.953 19.859 111.969 18.1713 100.335 18.1713C88.7032 18.1713 84.7218 19.859 84.7218 19.859C84.7218 19.859 80.362 16.0176 76.3022 15.8912ZM70.7344 31.5181C68.309 36.369 67.3131 42.3234 68.2954 48.5213C70.1064 59.9202 78.0024 68.5101 87.1702 70.1236C85.4324 67.6354 82.4259 61.9893 82.0131 52.23C81.6014 42.4979 86.5777 39.7443 89.5643 38.9637C89.8987 39.0609 90.2498 39.1518 90.6302 39.2312C90.6302 39.2312 83.59 42.8522 89.185 55.9534C89.185 55.9534 89.2968 49.5621 95.4633 51.139C99.8074 52.2478 99.5576 48.0981 99.5576 48.0981C99.5576 48.0981 99.2953 46.2651 97.1677 46.2651C95.037 46.2651 95.4424 48.2099 95.4424 48.2099C95.4424 48.2099 91.8299 48.0396 91.8299 45.5096C91.8299 42.9755 94.3943 41.3526 100.335 41.3526C106.279 41.3526 108.84 42.9755 108.84 45.5096C108.84 48.0396 105.23 48.2099 105.23 48.2099C105.23 48.2099 105.639 46.2651 103.505 46.2651C101.375 46.2651 101.113 48.0981 101.113 48.0981C101.113 48.0981 100.867 52.2478 105.211 51.139C111.38 49.5621 111.487 55.9534 111.487 55.9534C117.083 42.8511 110.044 39.2312 110.044 39.2312C116.574 37.8654 115.95 33.6865 115.95 33.6865C115.532 34.9415 112.873 37.5843 108.128 34.7639C103.376 31.9392 100.335 32.329 100.335 32.329C100.335 32.329 97.2942 31.9392 92.5446 34.7639C87.7993 37.5843 85.1408 34.9415 84.7218 33.6865C84.7218 33.6865 84.4584 35.5278 86.1848 37.1663C84.0059 37.5624 81.3548 38.6419 78.7715 41.2376C78.7715 41.2376 76.9898 37.7766 77.6743 34.882C77.6743 34.882 73.6218 37.8174 73.7179 42.7017C73.7179 42.7017 70.2715 38.7819 70.7344 31.5181ZM130.601 33.0511C130.897 43.2587 127.856 46.7772 127.856 46.7772C127.164 39.7924 123.05 35.5069 123.05 35.5069C123.146 39.482 121.205 42.3056 121.205 42.3056C119.379 40.4717 117.467 39.4998 115.686 39.0296C117.443 41.8908 118.887 46.2202 118.633 52.2311C118.219 61.9893 115.214 67.6375 113.476 70.1246C122.645 68.5132 130.54 59.9202 132.35 48.5224C133.234 42.9598 132.51 37.6 130.601 33.0511ZM62.6294 40.4518C55.9351 45.5201 52.3434 52.5383 52.3434 52.5383C54.0081 51.7368 55.9968 51.2143 55.9968 51.2143C50.615 60.7238 42.7796 65.142 42.7796 65.142C44.5404 67.7702 44.4903 72.1112 44.3387 74.2346C43.4474 72.4372 39.585 65.7471 32.0945 67.5623C28.9595 68.322 26.9029 70.5635 25.559 73.1603C22.5275 73.0652 16.0495 74.0078 15.8238 83.7796C15.8238 83.7796 10.0397 86.4987 11.3146 94.1366C11.3146 94.1366 6.90053 97.6928 8.95919 103.553C8.95919 103.553 6.31429 107.212 10.4326 113.386C10.4326 113.386 8.76482 107.211 12.3941 105.542C12.3941 105.542 9.35315 98.2163 14.2563 95.9163C14.2563 95.9163 12.5864 87.3368 18.7623 86.9167C18.7623 86.9167 17.757 80.7 21.6058 78.3383C24.8401 76.3507 27.4881 78.2328 27.4881 78.2328C27.4881 78.2328 28.3711 71.643 33.4676 71.3274C38.5651 71.0129 41.3114 76.9788 39.5464 80.6394C38.9047 81.9728 38.8316 83.6804 39.003 85.3127C40.5402 85.7777 42.556 86.8101 44.251 89.1133C44.251 89.1133 44.3481 84.4035 42.3898 80.7449C42.3898 80.7449 44.298 81.4712 46.1758 83.2655C48.5438 85.7505 49.3819 88.6169 49.3819 88.6169C51.4406 87.8227 54.1492 87.6252 57.2664 82.0042C60.3764 76.3842 64.6692 75.8648 64.6692 75.8648C61.3305 79.8065 60.3137 86.3744 60.3137 86.3744C75.4557 81.8704 93.1601 81.2455 93.1601 81.2455C88.49 79.933 87.5861 77.3853 87.5757 75.6244L87.5307 75.614C84.2139 75.0518 81.3339 74.175 81.3339 74.175L81.963 75.9902C62.1288 71.11 64.2554 48.8369 64.2554 48.8369L62.2511 50.466C60.8759 46.7103 62.6283 40.4529 62.6283 40.4529L62.6294 40.4518ZM138.043 40.4518C138.043 40.4518 139.792 46.7103 138.417 50.465L136.415 48.8369C136.415 48.8369 138.542 71.11 118.709 75.9902L119.337 74.175C119.337 74.175 116.456 75.0518 113.142 75.614L113.099 75.6244C113.086 77.3853 112.181 79.933 107.51 81.2455C107.51 81.2455 125.217 81.8704 140.357 86.3744C140.357 86.3744 139.339 79.8065 136.001 75.8648C136.001 75.8648 140.294 76.3831 143.404 82.0042C146.52 87.6252 149.23 87.8227 151.288 88.6169C151.288 88.6169 152.129 85.7505 154.496 83.2655C156.373 81.4712 158.283 80.7449 158.283 80.7449C156.322 84.4035 156.421 89.1133 156.421 89.1133C158.115 86.8101 160.132 85.7777 161.668 85.3127C161.84 83.6804 161.769 81.9728 161.126 80.6394C159.362 76.9788 162.105 71.0129 167.202 71.3274C172.298 71.643 173.186 78.2328 173.186 78.2328C173.186 78.2328 175.831 76.3507 179.067 78.3383C182.913 80.7 181.91 86.9167 181.91 86.9167C188.087 87.3368 186.416 95.9163 186.416 95.9163C191.32 98.2163 188.277 105.541 188.277 105.541C191.908 107.211 190.239 113.385 190.239 113.385C194.358 107.212 191.713 103.553 191.713 103.553C193.77 97.6917 189.356 94.1356 189.356 94.1356C190.633 86.4987 184.849 83.7796 184.849 83.7796C184.624 74.0078 178.144 73.0652 175.113 73.1603C173.767 70.5635 171.713 68.322 168.578 67.5623C161.087 65.7461 157.223 72.4372 156.334 74.2346C156.181 72.1112 156.13 67.7692 157.891 65.141C157.891 65.141 150.055 60.7227 144.676 51.2132C144.676 51.2132 146.663 51.7368 148.327 52.5383C148.327 52.5383 144.737 45.5201 138.044 40.4518H138.043ZM100.468 87.9994C94.6932 88.0014 88.9185 88.3338 83.2337 88.9952L82.9379 89.0287V123.273L83.3121 123.231C94.6409 121.948 106.315 121.944 117.626 123.222L117.999 123.265V111.76L117.703 111.724C114.615 111.368 111.471 111.103 108.363 110.938L108.01 110.92V117.417L106.328 117.347C102.383 117.194 98.404 117.197 94.6106 117.353L92.9229 117.417V93.192L94.4842 93.1324C98.4186 92.9788 102.488 92.9767 106.455 93.1282L108.01 93.192V100.738L108.33 100.754C111.381 100.908 114.507 101.164 117.625 101.513L117.999 101.554V89.0203L117.703 88.9858C112.039 88.3202 106.271 87.992 100.492 87.9931L100.468 87.9994ZM127.655 90.4771V124.697L127.93 124.748C130.967 125.302 134.034 125.96 137.044 126.703L137.462 126.808V117.028L139.501 117.568C143.412 118.6 147.312 119.798 151.098 121.123L152.188 121.505V131.267L152.409 131.347C155.14 132.33 157.968 133.453 161.055 134.782L161.524 134.982L161.526 107.93L163.779 102.017L163.496 101.886C152.159 96.6509 140.233 92.8377 128.054 90.5544L127.655 90.4771ZM73.2821 90.4959L72.884 90.569C69.8535 91.1396 66.7749 91.8178 63.7329 92.59L63.479 92.6527V121.894L62.271 122.219C58.4546 123.222 54.6341 124.393 50.9149 125.699L48.7539 126.459V97.2309L48.3003 97.4002C44.6888 98.7399 41.0522 100.253 37.4908 101.894L37.1972 102.028L39.4178 107.431L39.4137 135.01L39.8829 134.81C50.5795 130.208 61.7244 126.826 73.0062 124.762L73.2821 124.711V90.4959ZM137.462 97.5413L139.502 98.0805C143.37 99.1014 147.271 100.299 151.099 101.638L152.189 102.017V116.392L150.027 115.635C146.296 114.331 142.475 113.161 138.667 112.156L137.463 111.835V97.5413H137.462Z" fill="#4F2D7F"/>
<path d="M100.27 37.6064C94.3819 37.6064 92.6681 39.2858 92.6681 39.2858L94.3129 39.594C89.16 42.2243 87.0261 47.7628 87.6249 51.3994C87.9677 52.7705 88.4756 54.2868 89.1862 55.9514C89.1862 55.9514 89.2948 49.5633 95.4624 51.1382C99.8065 52.249 99.5588 48.0972 99.5588 48.0972C99.5588 48.0972 99.2945 46.2664 97.1668 46.2664C95.0371 46.2664 95.4436 48.2101 95.4436 48.2101C95.4436 48.2101 91.829 48.0387 91.829 45.5077C91.829 42.9736 94.3955 41.3517 100.336 41.3517C106.279 41.3517 108.841 42.9736 108.841 45.5077C108.841 48.0387 105.23 48.2101 105.23 48.2101C105.23 48.2101 105.639 46.2664 103.506 46.2664C101.376 46.2664 101.112 48.0972 101.112 48.0972C101.112 48.0972 100.866 52.249 105.212 51.1382C111.379 49.5633 111.489 55.9514 111.489 55.9514C111.841 55.1248 112.142 54.3411 112.401 53.5856C113.479 50.043 112.515 42.8043 106.226 39.594L107.872 39.2858C107.872 39.2858 106.157 37.6064 100.27 37.6064ZM91.0797 57.8168C91.0797 57.8168 92.1864 63.6541 92.1864 74.2306C92.1864 74.2306 91.7767 77.0291 100.336 77.0291C108.9 77.0291 108.486 74.2306 108.486 74.2306C108.486 63.6541 109.592 57.8168 109.592 57.8168C109.592 57.8168 106.417 61.4941 106.116 73.5566C106.116 73.5566 103.983 74.2181 100.336 74.2181C96.6935 74.2181 94.5575 73.5566 94.5575 73.5566C94.2565 61.4931 91.0797 57.8168 91.0797 57.8168ZM100.412 129.181C82.5755 129.181 65.3403 132.249 49.7614 138.029V159.706C64.45 153.12 81.8095 149.291 100.412 149.291C119.013 149.291 136.367 153.12 151.055 159.706V138.029C135.476 132.249 118.245 129.181 100.412 129.181ZM19.2275 131.569L26.9856 152.45H45.0401V140.032C39.4243 142.458 32.5941 145.848 32.5941 145.848V131.569H19.2275ZM168.224 131.569V145.848C168.224 145.847 161.391 142.459 155.778 140.033V152.451H173.83L181.588 131.57L168.224 131.569Z" fill="#818A8F"/>
<path d="M99.5893 132.939C98.1838 132.95 96.7772 132.985 95.3706 133.044C94.4333 133.084 93.6662 133.39 93.0915 133.952C92.5125 134.52 92.2199 135.202 92.2199 135.976V146.069L92.6191 146.043C93.546 145.984 94.473 145.936 95.402 145.897L95.7625 145.884V141.04C98.2956 140.943 100.864 140.92 103.411 140.974V145.822L103.778 145.831C104.706 145.855 105.634 145.884 106.562 145.929L106.953 145.947V135.86C106.953 135.176 106.613 134.517 105.942 133.907C105.278 133.305 104.554 132.991 103.796 132.978C102.398 132.943 100.995 132.929 99.5893 132.939ZM111.943 133.432V146.295L112.286 146.323C113.213 146.407 114.136 146.505 115.058 146.606L115.476 146.655V141.886C117.603 143.717 119.731 145.601 121.8 147.492L121.99 147.588C123.367 147.82 124.74 148.075 126.115 148.355L127.417 148.623L126.447 147.715C124.572 145.962 122.666 144.225 120.763 142.541C121.474 142.653 122.183 142.772 122.892 142.896C125 143.275 126.088 142.474 126.089 140.635V138.2C126.089 137.444 125.791 136.733 125.196 136.089C124.61 135.452 123.876 135.049 123.022 134.899C119.524 134.281 115.934 133.8 112.354 133.47L111.943 133.432ZM87.7588 133.58L87.345 133.623C83.6154 134.012 79.8712 134.567 76.2137 135.272L75.9096 135.331V148.204L76.3568 148.114C80.0112 147.409 83.7335 146.86 87.4234 146.477L87.7599 146.44V143.272L87.345 143.315C84.7168 143.587 82.0615 143.948 79.4427 144.385V142.711C82.051 142.272 84.7346 141.909 87.4234 141.628L87.7599 141.593V138.427L87.345 138.472C84.7158 138.743 82.0594 139.102 79.4427 139.538V137.866C82.0866 137.424 84.7701 137.059 87.4234 136.784L87.7599 136.75V133.58H87.7588ZM99.5882 136.105C100.864 136.094 102.139 136.103 103.41 136.132V137.813C100.865 137.759 98.3039 137.781 95.7615 137.877V136.195C97.0364 136.146 98.3123 136.115 99.5882 136.105ZM68.9018 136.961C68.6949 136.979 68.4807 137.016 68.257 137.075C64.6162 138.02 60.9661 139.144 57.4089 140.411L57.1602 140.501V153.403L57.6618 153.225C61.1907 151.969 64.8179 150.852 68.4462 149.909C69.906 149.529 70.8403 148.758 71.2206 147.621C71.414 147.083 71.4871 146.106 71.4547 144.64C71.4547 144.358 71.4286 144.126 71.3711 143.933C71.2698 143.58 71.0681 143.314 70.7838 143.143C71.1715 142.777 71.4547 142.199 71.4547 141.295V139.175C71.4547 138.358 71.1423 137.734 70.5205 137.318C70.0691 137.023 69.5225 136.904 68.9018 136.961ZM115.475 136.967C117.867 137.247 120.255 137.594 122.582 137.999V139.669C120.231 139.262 117.842 138.917 115.475 138.642V136.967ZM133.3 137.205C132.676 137.15 132.126 137.28 131.666 137.599C131.05 138.023 130.725 138.645 130.725 139.398V141.83C130.725 142.103 130.766 142.367 130.835 142.597C130.987 143.235 131.332 143.805 131.858 144.291C132.373 144.771 132.994 145.105 133.754 145.308C136.092 145.938 138.422 146.632 140.679 147.376V149.019C137.633 148.021 134.522 147.128 131.427 146.368L130.947 146.242V149.431L131.232 149.5C134.467 150.294 137.726 151.236 140.92 152.296C141.356 152.439 141.753 152.512 142.11 152.512C142.532 152.512 142.906 152.412 143.217 152.217C143.797 151.867 144.091 151.272 144.091 150.448V148.014C144.091 147.257 143.807 146.515 143.249 145.803C142.696 145.1 141.993 144.605 141.157 144.324C138.88 143.57 136.546 142.867 134.212 142.236V140.581C137.023 141.344 139.866 142.224 142.667 143.197L143.168 143.375V140.164L142.917 140.076C139.945 139.044 136.922 138.111 133.932 137.311C133.709 137.25 133.493 137.212 133.285 137.195L133.3 137.205ZM67.9749 140.34V141.995C65.4951 142.649 63.0216 143.376 60.6097 144.165V142.522C63.031 141.724 65.5034 140.992 67.9749 140.34ZM67.9749 145.184V146.843C65.5003 147.491 63.0268 148.219 60.6097 149.011V147.37C63.0216 146.573 65.4961 145.841 67.9749 145.184Z" fill="black"/>
</g>
<defs>
<clipPath id="clip0_15016_302732">
<rect width="200" height="200" fill="white" transform="translate(0.335938 0.773438)"/>
</clipPath>
</defs>
</svg>
