<svg width="201" height="200" viewBox="0 0 201 200" fill="none" xmlns="http://www.w3.org/2000/svg">
<path d="M106.864 37.4862L73.2947 50.0576L69.4185 58.7729H33.7152L30.7728 65.0484H66.6264L55.8236 89.3355H18.9406L14.8975 98.3076H51.8331L46.7169 109.809H20.4828L17.733 116.272H43.8423L37.6842 130.116L54.9536 143.131H127.098L160.675 128.113L175.06 96.2713L123.046 96.3868L112.921 119.65H96.2368L122.708 60.9587H139.124L127.819 83.0922L179.124 83.1785L193.997 51.4217L173.938 37.4819H106.856L106.864 37.4862ZM15.5048 147.844L8.21484 163.938H161.354L168.813 147.844H15.5048Z" fill="#FFC82E"/>
<path d="M55.2597 139.119H126.452L158.027 125.179L172.613 92.7123L122.005 92.67L112.283 115.642H93.6489L120.118 56.9493H138.487L127.22 78.9704L177.831 78.9469L192.568 47.4116L173.299 33.4712H106.216L74.6392 47.4116L37.3535 125.641L55.2597 139.119Z" fill="white"/>
<path d="M104.205 31.529L72.6284 45.4682L37.6885 122.942L56.825 137.174H124.441L156.017 123.235L170.767 90.7689L120.37 90.8827L110.272 113.697H91.637L118.108 55.0047H136.476L126.699 77.1232L175.631 77.1373L190.556 45.4682L171.288 31.529H104.205Z" fill="#6A0032"/>
<path d="M31.0527 55.4846L27.87 61.76H79.6367L82.5406 55.4846H31.0527ZM15.9483 85.7245L10.2029 94.6984H86.1403L90.0384 85.7245H15.9483ZM18.1624 106.339L14.4257 112.802H63.727L66.8087 106.339H18.1624ZM13.6589 146.81L6.30664 160.5H159.418L165.645 147.083L13.6522 146.81L13.6589 146.81Z" fill="white"/>
<path d="M33.2545 52.8442L30.4149 59.1197H81.3213L85.6359 52.8442H33.2545ZM17.0456 83.024L12.8759 92.2382H88.6058L93.9347 83.024H17.0456ZM19.0634 103.635L16.1173 110.1H66.5025L70.2392 103.635H19.0634ZM11.2121 147.84L6.3418 158.667H157.781L162.759 147.84H11.2171H11.2121Z" fill="#6A0032"/>
</svg>
