<svg width="200" height="200" viewBox="0 0 200 200" fill="none" xmlns="http://www.w3.org/2000/svg">
<path d="M104.294 108.641C104.294 108.641 103.134 118.848 104.294 126.838C104.294 126.838 102.371 127.953 108.092 129.1C113.797 130.245 119.016 130.307 119.016 130.307C119.016 130.307 114.464 120.915 116.001 112.074C116.001 112.074 122.155 110.094 123.216 107.116C124.277 104.138 126.856 103.939 126.856 103.939L127.713 98.9333L133.008 95.9033L135.147 95.4247L135.706 92.4568C135.706 92.4568 133.039 87.2279 131.834 80.8954L134.845 77.1818L134.3 73.1576C134.3 73.1576 121.658 68.993 111.921 69.4835C102.184 69.9746 93.0447 70.0606 86.8667 72.5642C86.8667 72.5642 86.0649 74.5706 86.0421 78.5542C86.0194 82.5385 88.5129 88.8147 88.5129 88.8147L101.03 93.0565C101.03 93.0565 102.537 96.7306 106.066 98.8463C109.595 100.962 104.294 108.641 104.294 108.641Z" fill="white"/>
<path d="M72.98 106.236C89.6027 99.1844 109.144 108.44 123.214 110.699C123.621 110.764 124.124 103.234 124.526 103.303C141.251 106.171 150.768 110.409 150.768 110.409L147.344 119.364L154.918 122.183L159.156 131.135C159.156 164.853 114.212 180.608 114.212 180.608C114.212 180.608 54.5296 170.066 42.8984 136.027L68.3213 138.719L72.3282 105.155" fill="black"/>
<path d="M125.171 105.865L126.635 103.736L123.214 107.118L121.629 115.077L115.686 115.278L120.262 130.983L123.848 133.8C123.848 133.8 123.105 158.513 130.76 164.855C130.76 164.855 140.869 150.966 155.723 131.998L143.187 121.418C143.187 121.418 145.252 117.15 146.804 111.771C146.804 111.771 136.047 107.296 125.171 105.865Z" fill="#A89968"/>
<path d="M145.547 122.05L143.921 126.564L148.951 126.065C148.951 126.065 142.9 147.351 128.102 161.275L132.346 167.065C132.346 167.065 155.726 151.162 155.726 131.99L152.517 124.801L145.547 122.05Z" fill="#002855"/>
<path d="M117.879 113.943C117.879 113.943 118.459 125.772 122.223 131.904C122.223 131.904 111.675 132.008 104.152 128.999L105.012 108.103L117.199 110.145L117.879 113.943Z" fill="black"/>
<path d="M134.129 36.511C134.129 36.511 129.47 25.3773 123.653 20.6959C123.653 20.6959 92.851 18.8771 73.7793 47.2246L76.3205 58.404C76.3205 58.404 121.459 47.8955 134.129 36.511Z" fill="#002855"/>
<path d="M128.686 29.4235C128.686 29.4235 128.025 25.5815 123.138 21.6893C119.866 21.9606 94.5097 21.3953 75.6861 46.7954L76.2776 52.6988L75.0234 53.7833L72.9082 46.6765C72.9082 46.6765 91.7416 17.8185 124.133 19.4621C124.133 19.4621 128.057 21.8862 131.96 30.2543L128.686 29.4235Z" fill="black"/>
<path d="M61.9861 79.6558C61.9861 79.6558 83.4753 57.1544 100.54 59.2028C117.605 61.2511 140.234 64.2153 147.914 61.5421C155.595 58.8694 161.967 51.0271 159.064 41.6573L151.091 41.4876L145.201 43.3124C145.201 43.3124 141.808 36.1483 146.031 25.1571C146.031 25.1571 129.399 23.5618 121.063 27.9045C121.063 27.9045 117.988 30.7648 120.081 36.5715C120.081 36.5715 115.153 34.8703 112.793 29.1467C112.793 29.1467 62.043 39.5888 51.2881 82.5295C51.2881 82.5295 53.557 84.1741 61.9861 79.6558Z" fill="#002855"/>
<path d="M98.9836 57.4858L105.749 76.9537L99.9444 74.7925C99.9444 74.7925 107.338 73.0884 110.913 67.5799C110.913 67.5799 97.5117 58.7732 74.8688 71.2224L74.2432 71.5349" fill="#211D1D"/>
<path d="M98.5585 65.5838V67.1925C96.7856 67.1172 92.0248 66.9968 87.86 67.6326L78.874 69.1871C78.874 69.1871 81.2987 73.5638 78.2776 81.2514C73.9828 92.1816 77.0207 99.94 71.0391 106.458C71.0391 106.458 74.9023 110.214 76.1523 105.447C76.1523 105.447 75.5129 102.9 83.2507 107.98C83.2507 107.98 82.6189 107.042 82.6225 104.541C82.6225 104.541 85.8482 112.435 97.8759 115.952C97.8759 115.952 94.5838 112.67 92.903 106.73C92.903 106.73 94.2458 108.794 96.6818 110.498C96.6818 110.498 97.2526 113.191 97.3196 108.802C102.018 118.996 107.458 117.582 107.458 117.582L106.53 113.558C108.766 120.11 115.73 122.153 115.73 122.153C115.074 121.116 114.817 119.547 114.722 118.252C115.73 122.154 121.963 122.695 121.963 122.695C120.477 121.688 120.064 120.35 120.064 120.35C127.076 124.045 131.729 122.017 131.729 122.017C128.719 121.776 127.336 120.15 127.336 120.15C135.974 122.462 139.53 117.84 139.53 117.84C133.927 118.696 129.59 114.171 129.59 114.171C130.91 114.642 132.609 114.393 132.609 114.393C127.867 111.428 126.263 107.616 125.764 105.957L127.827 105.19L128.549 99.946L126.174 99.8265L125.314 102.733L120.598 103.691C120.598 103.691 122.054 106.319 119.221 107.028C116.387 107.738 114.848 105.55 113.887 102.312C112.926 99.0742 104.66 92.9912 104.66 92.9912L101.974 85.6681C104.379 80.7835 104.675 77.3437 104.675 77.3437C104.851 80.4167 104.244 83.5906 104.244 83.5906C108.6 77.4446 110.792 67.0169 110.792 67.0169L98.5585 65.5838ZM92.0151 73.7966C94.8706 74.0732 97.3196 77.0635 97.3196 77.0635L97.1985 79.5173L96.3901 79.1219C96.1768 80.0198 95.898 81.3674 95.7428 82.8305L95.7061 84.5062V85.6749L95.6949 86.2489C95.6991 86.2881 95.7015 86.3279 95.7061 86.3669L95.6917 86.3733L95.6391 89.0056C95.6391 89.0056 94.5216 89.4968 92.6066 89.5398C90.6916 89.5822 89.7717 88.8542 89.7717 88.8542C89.4562 86.926 88.4532 85.0994 88.4532 85.0994C86.6589 82.6885 86.0425 78.5591 86.0425 78.5591C88.1248 75.1091 92.0151 73.7966 92.0151 73.7966Z" fill="black"/>
<path d="M69.1383 51.6187C69.1383 51.6187 62.8554 54.7562 55.684 54.4783C55.684 54.4783 55.9206 53.4106 55.8352 52.5041C55.8352 52.5041 55.2556 53.6866 54.1191 54.5004L48.1649 54.4983C48.1649 54.4983 48.38 54.0919 48.5413 53.4365C48.5413 53.4365 47.9444 54.071 46.5976 54.0501C46.5976 54.0501 30.1566 55.7076 18.1729 65.1708C18.1729 65.1708 19.2071 52.116 33.5885 43.293C33.5885 43.293 32.4072 43.4878 31.1566 43.8075C31.1566 43.8075 43.8849 31.3383 55.984 31.2044L53.6107 29.9449C53.6107 29.9449 79.9358 20.6738 94.0638 34.7476C94.0638 34.7476 75.46 48.164 69.1383 51.6187Z" fill="black"/>
<path d="M21.181 61.14C21.181 61.14 29.1865 54.7329 41.3629 52.9529C42.8925 52.7295 44.375 52.5992 45.8168 52.5245C46.3808 52.4959 46.9318 52.35 47.427 52.0794C48.4732 51.5093 49.4579 50.8462 50.2562 50.0825C50.2562 50.0825 50.3572 50.9256 49.9252 52.4355C51.3891 52.4388 52.8129 52.4684 54.2045 52.4827C55.2185 51.5602 56.383 50.306 57.253 48.7925C57.253 48.7925 57.6534 50.3042 57.1401 52.472C62.3875 52.3555 67.6515 51.5428 72.5405 47.5413L72.7831 47.4971C80.0446 45.5689 92.7485 35.8736 92.7485 35.8736C92.7485 35.8736 84.0744 27.3686 64.6197 29.7658C62.4544 30.0329 60.7497 30.4392 58.6105 30.9615L60.3296 31.939C52.4945 32.1786 43.1442 36.4818 36.9357 41.9616L40.9056 41.2655C40.9056 41.2655 27.2075 45.5868 21.1797 61.1394" fill="#A89968"/>
<path d="M84.408 41.6591C84.0226 41.9047 83.6318 42.1503 83.2363 42.3946C82.5121 42.8971 81.7778 43.4044 81.041 43.9105C82.1643 43.2329 83.2906 42.4849 84.408 41.6591Z" fill="#7E6957"/>
<path d="M83.2335 42.3996C79.6711 44.6026 75.7693 46.7059 72.7859 47.4982L72.5433 47.5419C72.2828 47.7552 72.0211 47.9595 71.7588 48.1549C74.6604 47.2007 77.8385 45.8449 81.0376 43.9155C81.7749 43.4094 82.5093 42.9021 83.2335 42.3996Z" fill="#563E2E"/>
<path d="M73.6658 33.722C71.348 33.722 68.8391 33.9096 66.1831 34.3739L67.9524 35.4225C67.4183 35.4057 66.8942 35.3974 66.3773 35.3974C53.6621 35.398 46.1867 40.331 46.1867 40.331L48.8994 41.0325C48.8994 41.0325 45.6831 41.7418 43.2881 42.6434C35.0179 45.7755 30.6774 49.2747 24.6572 56.717C24.6572 56.717 34.4696 50.6445 44.9154 50.283C45.3038 50.2698 45.6844 50.1976 46.0458 50.056C47.2312 49.5905 49.9399 48.344 51.6761 46.1046C51.6761 46.1046 52.3956 48.3165 51.8363 50.6051L53.4358 50.6073C53.4358 50.6073 56.127 48.5214 57.3352 45.615C57.3352 45.615 59.3882 47.2211 59.2324 50.4118H59.2897C59.8878 50.4118 65.0892 50.346 71.759 48.1531C72.0219 47.9578 72.283 47.754 72.5435 47.5407L72.7867 47.4965C75.7701 46.7042 79.6718 44.6009 83.2342 42.3979C83.6292 42.1535 84.02 41.9079 84.4054 41.6629C86.217 40.3233 88.006 38.7788 89.7244 36.9987C89.7244 36.9987 83.3565 33.722 73.6658 33.722Z" fill="#907258"/>
<path d="M115.963 71.7864C115.239 71.7876 114.461 71.823 113.621 71.8964C113.621 71.8964 118.652 72.5023 121.762 75.5507C119.216 75.0189 117.609 74.9768 117.609 74.9768C117.609 74.9768 116.585 77.8825 118.291 81.0738C119.998 84.2651 123.204 85.8696 126.754 85.5876C130.304 85.3061 131.756 79.1733 131.756 79.1733C131.489 79.032 131.223 78.897 130.959 78.7651V78.7635C130.959 78.7635 130.926 78.7481 130.92 78.746C130.84 78.7059 130.76 78.6673 130.68 78.628C130.251 78.4077 129.245 77.8431 127.139 76.4341C124.839 74.8962 122.96 71.7749 115.963 71.7864ZM128.165 94.1387C125.389 94.1379 123.669 95.2811 121.46 95.993C116.145 97.7054 114.308 94.6888 114.308 94.6888C114.308 94.6888 114.498 98.1257 120.582 99.3381L128.104 100.837C128.104 100.837 131.02 101.384 132.368 100.397C134.19 99.0607 132.749 94.9966 132.749 94.9966C130.906 94.3756 129.426 94.1391 128.165 94.1387Z" fill="black"/>
<path d="M161.003 31.4173C161.003 31.4173 158.855 38.0706 149.901 38.9471C149.901 38.9471 149.515 40.6763 147.466 40.8878C147.466 40.8878 144.301 32.871 152.861 23.1113C152.861 23.1113 132.662 22.1165 119.165 26.4119C119.165 26.4119 118.107 31.3922 118.479 33.9728C118.479 33.9728 115.302 31.9048 114.286 27.6034C114.286 27.6034 60.3546 37.5304 45.542 86.6798C45.542 86.6798 62.7732 85.2816 74.2345 77.6747C74.2345 77.6747 77.8357 68.8667 92.7773 63.4106C108.14 57.8012 121.406 60.2115 132.889 63.9041C132.889 63.9041 142.785 69.7454 153.38 61.333C163.975 52.9206 163.167 38.9362 161.003 31.4173ZM144.659 59.6002C132.452 61.2714 122.054 54.0607 107.312 56.575C107.312 56.575 109.838 54.4245 116.272 53.3186C116.272 53.3186 88.5336 46.4227 59.9608 78.958C59.9608 78.958 55.9151 81.3767 51.3781 82.4157C51.3781 82.4157 56.2144 67.43 70.8515 52.9124C85.4867 38.3947 112.051 31.5102 112.051 31.5102C112.051 31.5102 115.059 35.4974 120.58 37.2165C120.58 37.2165 119.702 34.3288 121.505 28.4427C121.505 28.4427 131.841 25.8842 143.135 27.0379C143.135 27.0379 136.454 45.0593 150.146 48.8319C150.146 48.8319 148.937 47.4044 149.2 45.2373C149.2 45.2373 153.393 45.5408 155.636 42.9422C155.636 42.9422 156.866 57.9283 144.659 59.6002Z" fill="black"/>
<path d="M80.6752 68.6419C106.244 50.8992 138.724 64.1044 138.724 64.1044L135.796 73.1621C109.328 65.4954 88.0887 71.9115 80.5969 73.1621C80.5969 73.1621 79.8518 71.4706 78.873 69.8556L80.6752 68.6419Z" fill="#A89968"/>
<path d="M65.5573 100.826L67.3772 116.763L45.5049 128.107L42.9004 136.021C42.9004 136.021 46.6342 139.591 63.0726 151.714C83.7552 166.967 113.139 179.116 113.139 179.116L123.941 172.267L132.587 167.231C126.55 148.642 124.816 129.955 124.816 129.955C124.816 129.955 111.411 130.064 111.23 129.42C109.086 121.765 112.571 106.237 112.571 106.237C79.9448 108.103 65.5573 100.826 65.5573 100.826Z" fill="black"/>
<path d="M121.144 134.122C122.748 147.558 123.443 153.924 129.066 169.286C129.066 169.286 116.381 175.975 113.538 176.616C113.538 176.616 63.1254 168.585 46.6387 136.391L48.7174 129.739L69.8833 118.561L67.6373 103.501C85.2026 110.916 108.75 108.624 108.75 108.624C108.75 108.624 106.668 117.749 107.659 130.399C107.659 130.399 95.144 131.905 81.3023 125.634C81.3023 125.634 90.1634 134.04 119.065 134.085L121.144 134.122Z" fill="#002855"/>
<path d="M146.179 120.527L143.919 126.567L148.949 126.068C148.949 126.068 143.409 148.593 129.885 161.351L128.464 158.508C128.464 158.508 139.308 147.942 145.23 129.64L139.471 130.223L143.838 119.978L146.179 120.527Z" fill="black"/>
<path d="M117.737 146.019C117.433 144.214 116.213 142.915 115.011 143.117C114.817 143.15 113.905 143.175 113.618 143.223C112.417 143.426 111.689 145.053 111.994 146.859C112.298 148.664 113.518 149.963 114.719 149.761C114.913 149.728 115.825 149.703 116.113 149.654C117.314 149.452 118.041 147.825 117.737 146.019Z" fill="#B17148"/>
<path d="M112.012 146.855C111.707 145.05 112.435 143.423 113.636 143.22C114.837 143.018 116.057 144.317 116.361 146.122C116.666 147.927 115.938 149.555 114.737 149.758C113.536 149.96 112.316 148.66 112.012 146.855Z" fill="#A89968"/>
<path d="M122.069 163.988C121.403 162.282 119.943 161.259 118.808 161.703C118.626 161.774 117.738 161.985 117.466 162.092C116.332 162.534 115.952 164.276 116.619 165.981C117.285 167.686 118.744 168.709 119.878 168.266C120.062 168.195 120.949 167.984 121.221 167.877C122.356 167.434 122.735 165.693 122.069 163.988Z" fill="#B17148"/>
<path d="M116.637 165.981C115.971 164.276 116.35 162.534 117.485 162.091C118.619 161.647 120.079 162.671 120.746 164.376C121.412 166.081 121.032 167.823 119.898 168.266C118.763 168.709 117.303 167.686 116.637 165.981Z" fill="#A89968"/>
<path d="M155.637 42.9414C155.637 42.9414 154.773 47.5359 151.075 48.3831C151.075 48.3831 152.386 48.9997 154.081 48.3831C154.081 48.3831 151.146 59.6975 137.206 56.352C126.828 53.8615 121.562 54.1564 121.562 54.1564C121.562 54.1564 124.692 52.8933 130.378 52.3053C130.378 52.3053 127.117 47.6135 115.69 46.1382C108.479 45.2067 76.811 47.0037 64.504 65.8979C61.2224 70.9355 55.9115 73.1864 54.5103 71.2247C53.5997 69.9496 49.2137 82.6458 51.1461 83.2749C52.8885 83.8437 58.4716 81.3509 59.9601 80.2168C59.9601 80.2168 71.1123 68.8784 83.5108 64.3908C95.9092 59.9029 112.028 56.9986 123.176 59.8355C134.324 62.6726 160.756 66.0725 155.662 43.0049L155.637 42.9414ZM67.6317 103.501L69.8783 118.56C69.8783 118.56 84.2577 131.091 103.43 130.52C103.43 130.52 95.2562 124.4 90.7558 118.708H99.8997L88.4329 110.489L87.9386 108.335C87.9386 108.335 77.3563 107.485 67.6326 103.501L67.6317 103.501ZM52.203 129.109C49.8501 129.139 48.7129 129.739 48.7129 129.739L46.6338 136.393C56.6074 156.477 79.4646 165.535 79.4646 165.535C79.4646 165.535 73.5551 142.451 67.6658 137.017C64.6394 134.225 57.0232 131.906 57.0232 131.906H62.9846C58.1233 129.621 54.5559 129.08 52.203 129.109ZM151.425 129.985L146.7 130.342C146.7 130.342 142.002 147.156 130.521 160.715L132.587 167.233C132.587 167.233 156.308 150.359 155.725 132.44L150.571 133.033L151.425 129.985ZM104.978 142.075C104.704 163.178 109.827 175.943 109.827 175.943L113.532 176.616L114.862 176.182C106.875 163.692 104.978 142.075 104.978 142.075Z" fill="#00254A"/>
<path d="M138.264 62.337C137.895 62.3679 137.59 62.4725 137.59 62.4725C137.59 62.4725 137.34 63.8923 137.006 64.9773C136.672 66.0624 136.714 67.1277 135.232 66.8875C133.749 66.6472 127.154 65.62 121.966 66.2497C121.966 66.2497 133.772 68.6517 134.846 69.236C135.92 69.8203 135.946 71.1644 135.372 72.0182C134.798 72.8721 130.354 70.4869 119.556 69.1515C110.831 68.073 94.2868 68.1675 81.1504 72.9924L82.8421 73.4691C82.8421 73.4691 96.5804 69.8713 112.243 70.3887C122.887 70.74 129.27 72.393 132.76 73.383L133.677 77.3611L132.499 78.8997C131.601 80.0733 130.667 80.9501 130.667 80.9501C130.667 80.9501 131.231 87.3677 134.329 92.7228L133.655 94.8321L126.41 93.2792L126.144 89.1066L124.278 93.4991L125.021 95.1398L132.974 97.2603L136.099 96.5683L136.88 92.9601C134.298 89.3589 132.867 81.4487 132.867 81.4487C134.847 78.8298 136.024 77.5137 136.024 77.5137C135.697 75.8927 135.472 74.8486 135.299 74.0683C135.559 74.1212 135.774 74.1515 135.921 74.1368C137.34 73.994 138.342 72.0729 137.674 69.1511C137.674 69.1511 139.302 65.5628 139.532 63.6425C139.675 62.4423 138.88 62.2855 138.264 62.337Z" fill="black"/>
<path d="M80.7188 69.749C80.7188 69.749 87.6995 64.8703 96.9028 62.9129C96.9028 62.9129 85.485 67.0023 81.1672 70.7798L80.7188 69.749Z" fill="black"/>
<path d="M82.3728 71.8385C82.3728 71.8385 85.8091 69.4006 92.0065 67.641C92.0065 67.641 86.2053 68.3049 81.7227 70.9674L82.3728 71.8385Z" fill="black"/>
<path d="M81.2632 68.2394L78.6005 70.014L79.8298 69.8593L80.6939 70.7331L81.0017 70.2978L81.3572 70.8654L81.9551 71.2353H81.3572L82.1018 72.6799L82.8353 72.4184C82.4403 71.7367 83.3455 71.2354 83.3455 71.2354H82.18L82.9915 70.2883C82.1824 70.6677 82.0181 70.6531 81.944 70.4685C81.8699 70.2832 82.6949 69.6171 82.6949 69.6171L81.2472 69.9487L81.944 68.9634C81.944 68.9634 81.1496 69.4395 80.5998 69.228C80.2778 68.9508 81.2632 68.2394 81.2632 68.2394ZM73.7917 72.5666C73.6405 72.5753 73.4843 72.7398 73.3214 73.1948C73.3214 73.1948 73.4227 73.9283 72.8861 74.4082C72.3495 74.888 73.9587 74.6635 74.809 75.0221C75.6586 75.3794 74.8823 73.5897 74.5124 73.2108C74.2809 72.974 74.0438 72.5528 73.7917 72.5666ZM74.2525 98.8504C69.5089 98.8865 66.0515 99.2947 65.6125 100.357C64.3111 103.505 83.4031 106.317 83.4031 106.317L106.896 101.089C106.896 101.089 86.3745 98.7581 74.2525 98.8504Z" fill="#100F0D"/>
<path d="M54.5308 90.1706C54.5308 90.1706 47.1485 91.8556 43.5244 89.784C43.5244 89.784 44.9644 94.9495 49.0383 95.124C49.0383 95.124 53.907 93.5148 54.5308 90.1706Z" fill="black"/>
<path d="M58.3297 89.4395C58.7283 89.1527 52.9772 93.3377 45.8213 91.6055C45.8213 91.6055 48.963 96.4544 55.8105 95.2145L58.3297 89.4395Z" fill="#A89968"/>
<path d="M81.1541 73.8333C81.1541 73.8333 81.4678 90.0032 65.5828 95.9864C49.697 101.968 42.523 97.2949 38.4512 93.4757C38.4512 93.4757 47.3243 95.5496 53.3128 91.0121C59.3011 86.4746 65.3292 72.7796 78.2317 73.314L81.1541 73.8333Z" fill="black"/>
<path d="M79.7277 74.6937C79.7277 74.6937 79.4325 79.1894 77.1028 83.3397C74.7737 87.4894 70.0138 94.0501 59.4275 96.4337C48.1882 98.9647 42.3193 95.1161 42.3193 95.1161C42.3193 95.1161 46.7063 96.6929 52.578 93.4466C57.6366 90.6496 60.2651 85.5463 64.9145 80.8065C69.1085 76.5319 73.2832 74.3214 79.7277 74.6937Z" fill="#A89968"/>
<path d="M82.1229 71.8634C82.1229 71.8634 82.5836 75.0165 79.694 75.3337C79.694 75.3337 76.8977 74.3658 76.6556 72.7167C76.3168 70.4085 78.4111 69.9197 79.878 69.8469C79.878 69.8469 81.6347 69.3987 82.1229 71.8634Z" fill="#A89968"/>
<path d="M80.6869 75.0616C80.6869 75.0616 79.768 75.4368 79.2738 73.9293C78.978 73.0264 78.5156 73.6341 77.4938 73.4518C76.6112 73.2947 76.6113 72.1625 76.6113 72.1625C76.6113 72.1625 76.2456 73.4508 76.9124 74.1426L77.005 74.228C76.4087 74.3559 75.8345 74.8082 75.8345 74.8082C75.8345 74.8082 76.631 74.9492 75.8443 76.1568C74.8327 77.7098 72.7324 77.9416 69.3757 80.4361C66.0189 82.9307 65.248 85.9941 65.248 85.9941C65.248 85.9941 67.046 82.2597 72.0161 79.7286C75.398 78.0061 76.9372 76.6162 77.6291 75.7707C77.7331 76.0766 77.5951 76.5893 77.0896 77.66C76.5357 78.8336 75.0138 80.6996 72.9178 82.0123C72.9178 82.0123 74.8275 81.2403 76.4867 79.691C76.4867 79.691 77.6603 78.5073 78.2188 77.0661C78.8719 75.3811 80.0335 75.6637 80.0335 75.6637C80.0335 75.6637 79.9367 75.54 79.7861 75.3775C80.0992 75.3643 80.4169 75.2749 80.6869 75.0616Z" fill="black"/>
<path d="M118.238 75.0631C118.238 75.0631 109.212 74.0814 98.8617 71.2976L97.3242 71.6704C97.3242 71.6704 108.41 75.6737 118.319 76.4977L118.238 75.0631Z" fill="black"/>
<path d="M131.756 75.8021C131.756 75.8021 130.103 78.3111 130.862 82.4172C130.862 82.4172 132.226 81.9084 133.009 82.1701C133.009 82.1701 131.942 78.5758 131.756 75.8021ZM68.7198 113.693L67.3789 116.765L71.1289 123.585L68.7198 113.693Z" fill="#100F0D"/>
<path d="M72.8608 103.689C68.2474 102.781 67.6325 101.917 67.6325 101.917C65.9637 99.9531 74.1944 100.434 74.1944 100.434C74.1944 100.434 73.8031 102.785 72.8608 103.689Z" fill="#A89968"/>
<path d="M196.094 153.354L200 136.66H171.225H172.254H170.587L169.39 137.967L168.513 136.66H43.9837L43.2338 138.384L41.0989 136.66H40.5665H40.9686H7.44018L17.3415 147.952L14.6856 160.623L6.23798 166.986H7.35833L0 172.764H32.6512L34.6134 171.683V171.727L35.4625 172.764H42.2646L44.0889 171.785L45.0951 172.764H84.9975L86.3126 171.875L87.7097 172.764H161.121L162.216 171.933L164.231 172.764H191.445L195.491 155.89L194.504 153.808H194.532L196.094 153.354ZM188.682 170.363L163.141 169.958L161.355 168.761L160.955 170.363H88.4726L86.6836 168.761L84.3127 170.363H45.551L45.7392 168.761L42.6095 170.363H36.8477L37.4147 167.183L33.4024 170.363H14.3023L13.571 170.362L7.69141 170.365L14.717 165.584H13.1467L16.9869 162.798L20.5146 147.546L13.1311 139.473H40.9823L43.9495 143.565L45.4212 139.507L166.435 139.475L168.137 143.565L171.518 139.473L172.468 139.473H196.098L193.075 152.074H189.543L192.388 154.938L188.682 170.363Z" fill="#A89968"/>
<path d="M4.84277 171.106L32.0539 171.432L35.3749 169.933L36.5794 171.468L42.3155 171.374L44.6488 170.363L45.7406 171.376H83.9896L86.2577 169.958L89.3803 171.562L159.802 171.376L162.218 169.553L165.089 171.106H189.54L193.305 155.864L191.761 153.131L194.793 152.072L197.92 138.067H171.427L169.112 140.419L167.415 138.067H44.6493L43.5451 140.419L40.5558 138.067H10.9326L18.8868 147.462L16.0324 162.255L4.84277 171.106Z" fill="#002855"/>
<path d="M49.0016 140.684C47.8908 140.684 47.1154 141.525 47.1154 142.552V142.562C47.1154 143.599 47.9055 144.421 48.9697 144.421C49.6676 144.421 50.0819 144.173 50.4541 143.775L49.9471 143.265C49.6627 143.523 49.4087 143.688 48.9952 143.688C48.3756 143.688 47.9477 143.171 47.9477 142.552V142.541C47.9477 141.922 48.3858 141.415 48.9952 141.415C49.3573 141.415 49.6425 141.57 49.9216 141.824L50.427 141.24C50.0912 140.91 49.684 140.684 49.0016 140.684ZM81.8062 140.684C80.6895 140.684 79.8786 141.525 79.8786 142.552V142.562C79.8786 143.589 80.6796 144.421 81.795 144.421C82.9118 144.421 83.7227 143.579 83.7227 142.552V142.541C83.7227 141.514 82.9217 140.684 81.8062 140.684ZM97.457 140.684C96.3402 140.684 95.5294 141.525 95.5294 142.552V142.562C95.5294 143.589 96.3297 144.421 97.4458 144.421C98.562 144.421 99.3734 143.579 99.3734 142.552V142.541C99.3734 141.514 98.5731 140.684 97.457 140.684ZM73.7485 140.693C73.0094 140.693 72.4809 141.127 72.4809 141.782V141.793C72.4809 142.51 72.9525 142.712 73.6814 142.898C74.2861 143.054 74.4085 143.155 74.4085 143.357V143.367C74.4085 143.579 74.2128 143.707 73.8871 143.707C73.4736 143.707 73.1333 143.538 72.8077 143.27L72.3373 143.831C72.7717 144.218 73.3232 144.41 73.8712 144.41C74.6515 144.41 75.2009 144.007 75.2009 143.289V143.279C75.2009 142.65 74.7867 142.386 74.053 142.195C73.4273 142.035 73.2717 141.957 73.2717 141.72V141.71C73.2717 141.535 73.4325 141.396 73.7373 141.396C74.042 141.396 74.3577 141.53 74.678 141.752L75.0909 141.154C74.724 140.859 74.2761 140.693 73.7485 140.693ZM93.0292 140.693C92.2901 140.693 91.7632 141.127 91.7632 141.782V141.793C91.7632 142.51 92.2333 142.712 92.9623 142.898C93.5669 143.054 93.6909 143.155 93.6909 143.357V143.367C93.6909 143.579 93.4952 143.707 93.1695 143.707C92.7561 143.707 92.4142 143.538 92.0885 143.27L91.6182 143.831C92.0526 144.218 92.6057 144.41 93.1535 144.41C93.9339 144.41 94.4817 144.007 94.4817 143.289V143.279C94.4817 142.65 94.0674 142.386 93.3337 142.195C92.7081 142.035 92.554 141.957 92.554 141.72V141.71C92.554 141.535 92.7148 141.396 93.0196 141.396C93.3243 141.396 93.6384 141.53 93.9587 141.752L94.3732 141.154C94.0063 140.859 93.5568 140.693 93.0292 140.693ZM153.524 140.693C152.785 140.693 152.258 141.127 152.258 141.782V141.793C152.258 142.51 152.729 142.712 153.457 142.898C154.062 143.054 154.186 143.155 154.186 143.357V143.367C154.186 143.579 153.99 143.707 153.664 143.707C153.251 143.707 152.91 143.538 152.585 143.27L152.113 143.831C152.547 144.218 153.1 144.41 153.648 144.41C154.429 144.41 154.976 144.007 154.976 143.289V143.279C154.976 142.65 154.564 142.386 153.83 142.195C153.204 142.035 153.049 141.957 153.049 141.72V141.71C153.049 141.535 153.21 141.396 153.514 141.396C153.819 141.396 154.135 141.53 154.455 141.752L154.868 141.154C154.501 140.859 154.052 140.693 153.524 140.693ZM57.2858 140.719L55.736 144.359H56.546L56.8776 143.547H58.4067L58.7383 144.359H59.5706L58.0192 140.719H57.2858ZM51.6033 140.744V144.359H52.3989V142.908H53.8673V144.359H54.6629V140.744H53.8673V142.174H52.3989V140.744H51.6033ZM60.642 140.744V144.357H61.4392V143.201H62.0642L62.8391 144.357H63.7686L62.8853 143.067C63.3454 142.897 63.6602 142.531 63.6602 141.948V141.937C63.6602 141.596 63.5522 141.312 63.3509 141.111C63.113 140.873 62.757 140.744 62.297 140.744L60.642 140.744ZM64.8942 140.744V144.359H67.4931V143.635H65.6898V140.744L64.8942 140.744ZM68.6075 140.744V144.359H71.3611V143.651H69.3984V142.892H71.1028V142.186H69.3984V141.452H71.3356V140.744H68.6075ZM76.0709 140.744V141.478H77.171V144.359H77.9682V141.478H79.0683V140.744H76.0709ZM84.9453 140.744V144.359H85.7298V142.061L87.482 144.359H88.1597V140.744H87.3736V142.97L85.6788 140.744H84.9453ZM100.538 140.744V142.809C100.538 143.873 101.133 144.415 102.104 144.415C103.076 144.415 103.691 143.878 103.691 142.784V140.744H102.895V142.815C102.895 143.388 102.6 143.683 102.115 143.683C101.629 143.683 101.334 143.378 101.334 142.79V140.744L100.538 140.744ZM104.759 140.744V141.478H105.859V144.359H106.654V141.478H107.756V140.744H104.759ZM108.88 140.744V144.359H109.676V142.908H111.144V144.359H111.94V140.744H111.144V142.174H109.676V140.744H108.88ZM113.322 140.744V144.359H116.077V143.651H114.113V142.892H115.817V142.186H114.113V141.452H116.05V140.744H113.322ZM117.3 140.744V144.357H118.096V143.201H118.721L119.496 144.357H120.425L119.542 143.067C120.002 142.897 120.317 142.531 120.317 141.948V141.937C120.317 141.596 120.209 141.312 120.008 141.111C119.77 140.873 119.414 140.744 118.954 140.744L117.3 140.744ZM121.551 140.744V144.359H122.335V142.061L124.088 144.359H124.765V140.744H123.979V142.97L122.285 140.744H121.551ZM128.415 140.744V142.809C128.415 143.873 129.01 144.415 129.982 144.415C130.953 144.415 131.567 143.878 131.567 142.784V140.744H130.771V142.815C130.771 143.388 130.478 143.683 129.992 143.683C129.506 143.683 129.21 143.378 129.21 142.79V140.744L128.415 140.744ZM132.894 140.744V144.359H133.68V142.061L135.43 144.359H136.108V140.744H135.322V142.97L133.627 140.744H132.894ZM137.527 140.744V144.359H138.323V140.744H137.527ZM139.432 140.744L140.894 144.384H141.597L143.06 140.744H142.202L141.256 143.289L140.311 140.744H139.432ZM144.133 140.744V144.359H146.888V143.651H144.923V142.892H146.629V142.186H144.923V141.452H146.862V140.744H144.133ZM148.111 140.744V144.357H148.906V143.201H149.531L150.306 144.357H151.237L150.354 143.067C150.814 142.897 151.129 142.531 151.129 141.948V141.937C151.129 141.596 151.019 141.312 150.818 141.111C150.58 140.873 150.224 140.744 149.764 140.744L148.111 140.744ZM156.22 140.744V144.359H157.015V140.744H156.22ZM158.178 140.744V141.478H159.278V144.359H160.073V141.478H161.173V140.744H158.178ZM161.928 140.744L163.318 142.933V144.359H164.114V142.917L165.502 140.744H164.598L163.72 142.195L162.857 140.744H161.928ZM81.7941 141.417C82.4353 141.417 82.8896 141.933 82.8896 142.552V142.562V142.563C82.8896 143.183 82.4453 143.688 81.8054 143.688C81.1642 143.688 80.7085 143.171 80.7085 142.552V142.541C80.7085 141.922 81.1542 141.417 81.7941 141.417ZM97.4449 141.417C98.0854 141.417 98.5403 141.933 98.5403 142.552V142.562V142.563C98.5403 143.183 98.0967 143.688 97.4561 143.688C96.815 143.688 96.3607 143.171 96.3607 142.552V142.541C96.3607 141.922 96.8044 141.417 97.4449 141.417ZM61.438 141.463H62.2273C62.6151 141.463 62.8539 141.638 62.8539 141.978V141.989C62.8539 142.294 62.631 142.5 62.2432 142.5L61.438 142.501V141.463ZM118.095 141.463H118.886C119.274 141.463 119.511 141.638 119.511 141.978V141.989C119.511 142.294 119.289 142.5 118.902 142.5L118.095 142.501V141.463ZM148.906 141.463H149.696C150.084 141.463 150.321 141.638 150.321 141.978V141.989C150.321 142.294 150.099 142.5 149.712 142.5L148.906 142.501V141.463ZM57.6415 141.674L58.1215 142.846H57.16L57.6415 141.674ZM23.5242 142.632L22.3699 142.819L24.7441 144.995L20.2207 166.793H33.8731C33.9292 166.793 34.8879 165.973 36.7509 164.33L38.5812 155.607C38.5137 155.607 37.9418 155.326 36.8656 154.763C37.2672 154.459 37.965 154.145 38.9575 153.818L40.7863 145.095C39.6182 143.452 39.0006 142.632 38.9336 142.632L23.5242 142.632ZM173.588 142.632C173.555 142.778 173.946 143.566 174.76 144.995L174.003 148.318C173.726 149.532 173.349 151.333 172.872 153.718L178.188 156.569C180.923 157.908 182.27 158.66 182.231 158.83L181.469 162.154C181.441 162.278 181.365 162.34 181.241 162.34H175.364C175.173 162.34 173.874 161.648 171.464 160.264H171.38L169.891 166.794H185.805L188.444 155.338C188.459 155.27 188.331 155.14 188.059 154.949C182.148 151.732 179.178 150.056 179.153 149.922L179.759 147.272C179.782 147.171 179.857 147.109 179.987 147.087H185.875C186.067 147.087 187.37 147.779 189.781 149.163H189.866L191.369 142.632L173.588 142.632ZM30.1093 146.615H34.7634C34.887 146.615 34.9358 146.676 34.9101 146.8L34.0172 151.068C32.9465 151.821 32.2366 152.2 31.8871 152.2H29.8926C29.3518 152.2 28.9525 152.137 28.6968 152.013C29.1814 150.011 29.5232 148.526 29.7252 147.559L29.883 146.8C29.9045 146.698 29.9803 146.638 30.1093 146.615ZM140.804 147.461L140.787 147.543C141.382 148.685 141.732 149.287 141.836 149.351C139.543 159.447 138.233 165.233 137.906 166.709L137.888 166.791H149.262L150.396 161.716C147.61 162.976 146.18 163.605 146.109 163.605H143.148C143.067 163.605 143.03 163.556 143.033 163.457L144.162 158.382C144.182 158.292 144.242 158.238 144.345 158.219H149.663L150.439 154.737H145.12C145.039 154.737 144.999 154.688 145.004 154.589L145.847 150.796C145.865 150.714 145.927 150.666 146.031 150.647H153.03L153.741 147.462L140.804 147.461ZM42.9367 147.468L42.9064 147.616C43.5804 148.75 43.898 149.407 43.8598 149.587L40.2405 166.797H44.4162C44.5692 166.797 46.099 166.141 49.0065 164.827H49.0751L48.6574 166.797H54.4259L54.4578 166.649C53.7844 165.533 53.4689 164.877 53.5107 164.678L57.1603 147.468H51.3774L51.3598 147.549L52.4089 149.439L50.5977 158.01C50.4853 158.541 50.2872 159.345 50.0046 160.426C49.9418 160.426 48.4645 161.082 45.5737 162.396H45.4924L48.6397 147.468L42.9367 147.468ZM59.5311 147.468L60.4973 149.357L56.7887 166.796H68.8531L69.891 161.951H69.8097C67.4006 163.057 66.1476 163.611 66.0485 163.611H61.9397L61.8042 163.544C62.1997 161.942 62.4811 160.754 62.646 159.98L64.6039 150.801C64.6219 150.72 64.6807 150.671 64.7841 150.653H68.7382C68.9456 150.653 69.9699 151.206 71.809 152.313H71.9573L72.9969 147.467L59.5311 147.468ZM75.3114 147.468L76.2792 149.357L72.5706 166.796H84.6339L85.6734 161.951H85.5921C83.1829 163.058 81.9285 163.611 81.8294 163.611H77.7206L77.5867 163.544C77.9822 161.942 78.263 160.754 78.4285 159.98L80.3849 150.801C80.4022 150.72 80.4632 150.671 80.5666 150.653H84.5207C84.7281 150.653 85.7508 151.207 87.5899 152.313H87.7382L88.7778 147.467L75.3114 147.468ZM91.9047 147.468C91.8677 147.639 92.2141 148.269 92.9443 149.357C92.2189 152.453 91.6875 154.779 91.3499 156.336L89.0811 166.797H94.8496L94.8815 166.648L93.8962 164.907L94.8703 160.425C94.8877 160.344 94.9487 160.296 95.0521 160.277H98.8515C98.9507 160.277 98.9895 160.326 98.9679 160.425L97.5776 166.797H103.346C103.376 166.662 103.059 166.032 102.396 164.907L106.21 147.468H102.106C101.843 147.468 100.25 148.125 97.3274 149.439H97.2604L97.6893 147.468L91.9047 147.468ZM108.641 147.468L108.609 147.616C109.273 148.75 109.584 149.407 109.545 149.587L107.218 160.198C106.859 161.835 106.35 164.03 105.693 166.784H111.461L111.495 166.636L110.53 164.813L112.91 153.987C112.938 153.861 114.462 153.151 117.482 151.856L114.191 166.784H119.945L119.978 166.635C119.315 165.52 119.005 164.863 119.049 164.665L122.851 147.467H118.679C118.525 147.467 118.305 147.544 118.019 147.697C115.406 148.858 114.037 149.438 113.91 149.438L114.345 147.467L108.641 147.468ZM125.466 147.468L125.448 147.549C126.043 148.692 126.393 149.295 126.497 149.357C124.205 159.454 122.895 165.24 122.567 166.716L122.55 166.797H133.924L135.058 161.722C132.271 162.982 130.842 163.611 130.77 163.611H127.809C127.728 163.611 127.691 163.562 127.695 163.463L128.823 158.388C128.843 158.298 128.903 158.243 129.007 158.225H134.324L135.101 154.743H129.782C129.7 154.743 129.661 154.694 129.665 154.595L130.509 150.802C130.527 150.721 130.587 150.672 130.691 150.654H137.692L138.403 147.468L125.466 147.468ZM156.201 147.468L156.182 147.549C156.773 148.692 157.12 149.295 157.223 149.357C155.589 156.358 154.353 161.718 153.513 165.434L153.205 166.797H158.974L159.007 166.648C158.351 165.532 158.044 164.876 158.089 164.678L158.792 161.574C158.806 161.511 159.456 161.204 160.744 160.655C160.869 160.655 160.993 160.885 161.115 161.344C162.116 164.953 162.668 166.77 162.77 166.797H167.322L167.341 166.716C167.059 165.582 166.335 162.981 165.168 158.914C165.209 158.735 166.197 158.28 168.131 157.551L170.425 147.468L156.201 147.468ZM161.308 151.113H165.114C165.213 151.113 165.252 151.162 165.229 151.261L164.505 154.447C164.482 154.546 164.108 154.749 163.381 155.054C161.207 156.008 160.062 156.484 159.945 156.484L161.126 151.261C161.147 151.171 161.207 151.121 161.308 151.113ZM100.737 151.935H100.819L99.8269 156.484C99.8054 156.583 99.7443 156.632 99.6452 156.632H95.8441C95.7629 156.632 95.7245 156.583 95.7277 156.484L96.2698 153.987L96.3703 153.839C99.1368 152.57 100.593 151.935 100.737 151.935ZM27.8017 157.227H31.6745C31.7982 157.227 32.5054 158.33 32.4797 158.453L31.6075 162.626C31.5819 162.75 31.508 162.812 31.3843 162.812H26.7398C26.6383 162.812 26.5899 162.75 26.5931 162.626L26.7127 162.052C26.9493 160.917 27.2369 159.369 27.5769 157.412C27.5978 157.311 27.6727 157.25 27.8017 157.227Z" fill="white"/>
<path d="M90.1343 77.1842C90.1343 77.1842 88.0419 78.3867 88.1859 79.8261C88.3305 81.2654 91.7268 85.3172 92.1433 87.0423C92.1433 87.0423 92.2115 84.9013 91.0177 82.9702C90.8443 82.6899 90.6876 82.4071 90.5521 82.1236C91.7733 83.2793 93.6755 83.5139 93.6755 83.5139C91.3649 82.0715 92.1735 79.826 92.1735 79.826C92.1735 79.826 92.7516 79.4555 93.9066 79.7399C95.5241 80.139 96.1888 79.2556 96.2408 79.2424C96.2408 79.2424 93.6872 77.7958 92.7491 77.5173C92.317 77.3887 92.0158 77.361 91.7685 77.4264L91.7845 77.3961L91.4831 77.3499H91.4816L91.4528 77.3467L90.8741 77.259C90.8687 77.2638 90.8635 77.2685 90.8581 77.2733L90.1343 77.1842ZM99.9015 78.2365L102.716 96.4527L113.89 102.31C110.979 92.7634 109.94 87.1463 109.94 87.1463L99.9015 78.2365ZM129.674 85.2933L129.675 91.4589L128.116 92.4666L126.152 88.5093L126.257 93.3706L132.982 95.2345L133.199 93.6831L129.674 85.2933ZM95.7077 86.3631L95.1417 87.9049L92.9064 88.0452L91.6819 87.3134L91.4029 87.7455L90.8432 87.3214L90.1034 87.205L90.6647 88.6065L92.6258 89.4467L95.6408 89.0035L95.7077 86.3631ZM19.7234 142.084L24.0713 145.099H21.9364L23.7588 146.601L20.3707 162.931L18.3411 164.866H20.0455L15.3643 167.365H20.4488V167.362H33.7888C33.7888 167.362 34.0694 167.202 37.0366 164.758L37.1753 164.637L39.154 155.207L37.971 154.758L39.3533 154.257L41.2985 144.981L39.221 142.084H22.9857H19.7234ZM170.56 142.084L173.312 144.428H171.431L173.813 146.314L173.382 148.205C173.103 149.429 172.721 151.25 172.249 153.618L172.167 154.023L177.866 157.081C180.332 158.288 181.222 158.803 181.542 159.017L180.905 161.792H175.35L170.956 159.288L169.114 167.362H186.171L188.91 155.474C189.019 155.006 188.571 154.691 188.304 154.503L188.249 154.469C182.294 151.229 180.315 150.088 179.701 149.702L180.168 147.655H185.737C185.924 147.721 186.646 148.06 189.427 149.656L190.149 150.094L191.994 142.084L170.56 142.084ZM22.7819 143.2H38.6221C38.7888 143.406 39.1857 143.925 40.1161 145.23L38.4004 153.403L35.7505 154.86L37.8662 155.95L37.7132 156.679H35.4013L32.0754 162.751L33.1101 157.795L31.9701 156.679H27.7225H24.5193L21.7818 161.662L25.2576 144.909L22.7819 143.2ZM174.337 143.202H190.595L189.407 148.358C186.216 146.54 186.006 146.539 185.802 146.539H179.914L179.819 146.548C179.469 146.609 179.214 146.838 179.141 147.159L178.51 149.92L178.532 150.035C178.601 150.398 178.619 150.498 187.69 155.434L187.765 155.49L187.346 157.309H184.887L182.196 161.179L182.703 158.966C182.821 158.453 182.862 158.28 178.38 156.088L173.428 153.433C173.861 151.271 174.213 149.596 174.474 148.452L175.279 144.917L175.172 144.729C174.758 144.003 174.5 143.521 174.337 143.202ZM28.1262 146.067L29.2598 146.695L29.1003 147.455C28.8996 148.422 28.0767 151.893 28.0767 151.893L27.8711 152.739H29.0749H30.1431H32.5092L34.4416 151.408L35.3791 146.925L34.6856 146.067H30.0315L28.1262 146.067ZM139.627 146.913L141.144 149.499C139.499 156.746 138.56 160.893 137.944 163.624L136.001 165.499H137.225L135.298 167.358H138.769H149.623L151.097 160.757L150.079 161.217C147.035 162.594 146.161 162.968 145.932 163.057H143.609L144.558 158.787H150.022L151.049 154.189H145.58L146.242 151.215H153.391L154.351 146.913H140.269L139.627 146.913ZM41.821 146.92L42.3392 147.911C43.0138 149.046 43.1721 149.441 43.2097 149.562L39.4677 167.364H44.329C44.4963 167.364 44.6544 167.365 48.2209 165.763L47.8829 167.364H54.7915L55.3368 167.352L53.9847 164.733L57.7635 146.919H50.8373H50.3112L51.7334 149.537L49.9636 157.904C49.8637 158.376 49.6906 159.086 49.4486 160.02C49.0172 160.198 48.1273 160.595 46.1705 161.482L49.2413 146.919H42.3965L41.821 146.92ZM58.3643 146.92L59.3815 148.694H58.2447L59.6861 150.091L56.0125 167.365H69.2154L70.5276 161.25L65.8831 163.063H62.4137C62.7298 161.768 62.9613 160.776 63.1041 160.107L64.9998 151.221H68.6L72.256 153.187L73.6001 146.92H58.992L58.3643 146.92ZM74.1446 146.92L75.6019 149.46L72.539 163.86L70.8314 165.505H72.0591L70.1298 167.364H73.6009H84.998L86.3086 161.25L81.6657 163.064H78.1947C78.5114 161.769 78.7438 160.776 78.8866 160.106L80.7824 151.221H84.381L88.037 153.188L89.3811 146.919H74.7731L74.1446 146.92ZM90.6225 146.92L92.2584 149.475C91.5803 152.368 91.078 154.572 90.7485 156.086H88.1879L89.7457 157.711H88.5403L89.9721 159.657L88.3011 167.365H95.2112L95.385 166.569L94.3996 164.828L95.2654 160.845H98.2199L96.7977 167.365H103.708L102.901 164.823L106.815 146.919H102.018C101.828 146.919 101.549 146.92 97.9457 148.522L98.2933 146.919L90.6225 146.92ZM107.525 146.92L108.895 149.557L106.586 160.088C106.233 161.7 105.721 163.913 105.063 166.665L104.899 167.352H111.824H112.412L111.033 164.743L113.325 154.318C113.592 154.168 114.369 153.785 116.615 152.809L113.408 167.352L120.964 167.365L120.371 166.36C119.699 165.23 119.553 164.841 119.521 164.726L123.459 146.92H118.593C118.345 146.92 118.056 147.011 117.688 147.206C116.122 147.902 115.17 148.314 114.591 148.558L114.952 146.92L107.525 146.92ZM124.288 146.92L125.806 149.506C123.522 159.563 122.256 165.158 121.935 166.604L121.764 167.365H134.285L135.758 160.764L134.741 161.223C131.696 162.6 130.822 162.975 130.594 163.063H128.27L129.219 158.793H134.683L135.708 154.195H130.241L130.903 151.222H138.05L139.012 146.92H124.93H124.287L124.288 146.92ZM155.135 146.92C155.623 147.866 156.36 149.243 156.531 149.503C154.931 156.354 153.705 161.676 152.882 165.321L152.419 167.365H159.331L159.94 167.359L159.401 166.375C158.735 165.245 158.592 164.857 158.561 164.742L159.199 161.93C159.364 161.845 159.714 161.681 160.45 161.362L160.49 161.502C162.553 167.028 162.433 167.074 162.541 167.346L167.68 167.365L168 167.359C167.723 166.247 166.821 162.971 165.722 159.131C166.015 158.976 166.69 158.668 168.239 158.084L168.52 157.977L171.037 146.92H155.665L155.135 146.92ZM30.29 147.183H34.1772L33.431 150.748L32.1746 151.652H29.8069C29.59 151.652 29.4164 151.641 29.2807 151.625C29.6966 149.896 30.0011 148.573 30.1864 147.683L30.29 147.183ZM141.584 148.029H152.958L152.495 150.099H145.942L145.845 150.107C145.517 150.164 145.282 150.382 145.215 150.686L144.372 154.477L144.359 154.576C144.348 154.84 144.455 155.009 144.546 155.104C144.671 155.234 144.843 155.305 145.032 155.305H149.654L149.209 157.302H142.125L139.528 161.685L142.381 149.094L141.584 148.029ZM43.6996 148.036H47.8643L44.7169 162.964H44.7153L45.9079 157.308H44.406L41.4021 163.581L41.4037 163.573L44.3182 149.712C44.3684 149.471 44.348 149.192 43.6996 148.036ZM52.1755 148.036H56.3847L54.4172 157.309H53.5196L50.2192 162.264L50.3468 160.993H50.3484L50.4568 160.577C50.7454 159.476 50.94 158.677 51.0547 158.135L52.9106 149.359L52.1755 148.036ZM60.2894 148.036H72.2188L71.471 151.524C69.0834 150.106 68.8543 150.105 68.6505 150.105H64.6964L64.6007 150.113C64.2727 150.171 64.0373 150.388 63.9709 150.695L62.5599 157.309H61.0102L58.4321 161.349L60.9991 149.275L60.2894 148.036ZM76.0697 148.036H87.999L87.2513 151.524C84.8637 150.106 84.6362 150.105 84.4324 150.105H80.4783L80.3811 150.115C80.0524 150.172 79.8176 150.39 79.7513 150.697L78.3402 157.309H76.792L74.2139 161.349L76.7809 149.275L76.0697 148.036ZM92.6674 148.036H96.9085L96.4796 150.007H97.3597L97.4681 149.959C101.062 148.342 101.865 148.072 102.044 148.036H105.427L103.482 156.929L100.169 156.886C100.222 156.807 100.262 156.716 100.284 156.614L101.424 151.387H100.649C100.467 151.387 100.311 151.388 96.0491 153.342L95.9072 153.407L95.66 153.776L95.094 156.376L95.0813 156.472C95.0715 156.735 95.1786 156.904 95.2694 157C95.3345 157.067 95.4113 157.118 95.4974 157.153L90.2248 163.753L91.8064 156.465C92.1422 154.917 92.678 152.572 93.3992 149.496L93.455 149.259L93.3195 149.056C93.0154 148.603 92.8084 148.274 92.6674 148.036ZM109.396 148.036H113.562L113.128 150.007H113.823C113.995 150.007 114.132 150.007 118.158 148.218L118.194 148.2C118.484 148.045 118.591 148.036 118.592 148.036H122.068L120.018 157.31H118.943L115.67 162.272L118.173 150.923L117.173 151.352C112.381 153.409 112.357 153.517 112.278 153.877L111.523 157.31H110.434L107.275 162.098C107.417 161.477 107.564 160.833 107.675 160.327L110.002 149.716C110.055 149.475 110.036 149.197 109.396 148.036ZM126.245 148.036H137.618L137.157 150.105H130.603L130.507 150.113C130.179 150.171 129.943 150.388 129.877 150.691L129.034 154.484L129.021 154.583C129.01 154.847 129.117 155.015 129.208 155.11C129.332 155.241 129.505 155.311 129.694 155.311H134.316L133.871 157.309H126.787L124.19 161.692L127.042 149.101L126.245 148.036ZM156.975 148.036H169.636L167.799 156.111L156.731 160.276L154.43 163.548C155.243 159.975 156.29 155.435 157.678 149.495L157.77 149.103L156.975 148.036ZM161.221 150.564L161.168 150.566C160.826 150.598 160.568 150.82 160.494 151.146L159.158 157.052H159.856C160.026 157.052 160.148 157.051 163.507 155.577C164.597 155.12 164.883 154.924 164.961 154.579L165.685 151.392C165.751 151.099 165.636 150.902 165.562 150.81C165.489 150.718 165.322 150.565 165.025 150.565L161.221 150.564ZM161.517 151.679H164.475L163.912 154.16C163.802 154.223 163.564 154.344 163.067 154.552C161.885 155.071 161.122 155.398 160.629 155.604L161.517 151.679ZM99.9723 152.803L99.2565 156.084H96.2988L96.6926 154.275C98.4003 153.492 99.3946 153.05 99.9723 152.803ZM27.9902 157.795H31.9603L31.0275 162.264H27.1516L27.1691 162.177C27.3968 161.086 27.6729 159.613 27.9902 157.795Z" fill="#E4E5E6"/>
<path d="M97.3719 80.027L97.8822 76.8046C96.2629 74.3316 91.7362 73.4561 91.7362 73.4561C87.3414 74.3285 85.847 78.1717 85.847 78.1717C85.7293 80.56 86.904 83.2284 88.1105 85.2463C89.3169 87.264 89.2421 88.7835 89.2421 88.7835C90.2955 89.488 90.936 89.7371 92.6724 89.8226C94.4094 89.908 95.9905 89.2693 95.9905 89.2693L95.6642 88.2678C95.4993 89.6452 90.6553 88.3838 90.6553 88.3838C90.6553 88.3838 91.2098 86.3778 89.1459 84.1002C87.0821 81.823 86.8187 78.3282 86.8187 78.3282C88.0107 76.2106 91.5695 74.6451 91.5695 74.6451C94.174 74.7729 97.1066 77.0931 97.1066 77.0931L96.619 78.1573L92.7759 76.6629C91.0389 76.5775 90.139 77.1857 90.139 77.1857C90.4073 77.233 90.6779 77.2928 90.9492 77.3578C89.5457 78.1125 88.077 79.5596 89.56 82.0739C91.2803 84.9892 91.8527 85.2192 92.1466 87.0447C92.1466 87.0447 93.7712 87.3464 94.4542 86.9168C95.1372 86.486 95.1456 84.7246 95.1456 84.7246C95.1456 84.7246 94.5779 86.1125 93.7694 86.3653L92.719 86.2291C92.719 86.2291 92.6216 84.1455 90.9951 82.1665C89.6465 80.5263 90.8332 78.674 91.8095 77.5902C94.7069 78.4542 97.3719 80.027 97.3719 80.027Z" fill="black"/>
</svg>
