<svg width="201" height="201" viewBox="0 0 201 201" fill="none" xmlns="http://www.w3.org/2000/svg">
<path d="M104.413 105.218C102.003 123.246 101.869 141.274 102.137 159.168C92.4986 143.014 87.5454 125.031 88.7503 105.977L85.8051 106.111C85.2249 106.156 84.8234 105.798 84.7341 105.308L79.1115 105.575C78.5314 105.62 78.1297 105.174 78.2638 104.638L82.9493 90.7156C83.0384 90.2246 83.5738 89.8232 84.1094 89.8232L87.0545 90.1353C87.2776 89.6446 87.8131 89.2877 88.3934 89.2877L91.2938 89.4215C95.9792 70.3676 106.466 52.384 121.102 36.2301C115.301 54.124 109.902 72.1518 106.733 90.1802L110.839 91.8757L150.107 89.9571C150.688 89.9123 151.223 89.5554 151.312 88.9753C153.767 74.7401 156.935 58.8544 159.925 44.7536C160.058 44.0395 159.925 43.4147 159.478 42.8347C155.774 38.3278 152.115 33.776 148.456 29.1352C148.01 28.5552 147.34 28.2428 146.537 28.2428C124.047 27.1273 101.467 26.0563 78.9301 24.9853C78.1715 24.9407 77.413 25.2084 76.7436 25.7439C71.0317 30.1617 65.3643 34.6688 59.7421 39.2205C59.0283 39.8005 58.6266 40.4698 58.4483 41.2285C50.4158 80.4529 44.3468 120.123 40.2867 160.061C40.1974 160.864 40.4205 161.534 40.956 162.069C45.1953 166.576 49.4347 171.083 53.674 175.501C54.1203 175.992 55.6374 175.858 55.6374 175.858H120.832C120.832 175.858 122.484 175.501 123.019 174.966C128.106 170.146 135.96 162.203 141.136 157.518C141.761 156.938 142.117 154.93 142.207 154.171C143.322 144.175 144.572 134.18 145.955 124.229C146.134 123.024 146.312 121.819 146.446 120.57C147.115 115.929 147.918 110.886 148.677 106.201C148.856 105.219 148.052 104.371 147.071 104.327L109.007 103.657L104.413 105.218Z" fill="#005035"/>
<path fill-rule="evenodd" clip-rule="evenodd" d="M99.4567 104.556C99.7084 102.673 101.005 101.096 102.804 100.485L107.397 98.9234C107.944 98.7378 108.518 98.6481 109.094 98.6582L147.158 99.3276C147.204 99.3284 147.251 99.3298 147.297 99.3319C150.751 99.4887 154.375 102.601 153.607 107.035C152.855 111.677 152.066 116.636 151.407 121.196C151.264 122.513 151.077 123.77 150.906 124.923L150.904 124.94C149.528 134.838 148.285 144.782 147.175 154.726L147.172 154.756C147.105 155.321 146.955 156.254 146.703 157.2C146.577 157.673 146.396 158.262 146.137 158.854C145.924 159.344 145.452 160.333 144.537 161.183C144.529 161.19 144.521 161.197 144.514 161.204C144.506 161.211 144.498 161.218 144.491 161.225C141.393 164.029 137.457 167.886 133.649 171.618C131.108 174.108 128.623 176.543 126.484 178.57C125.761 179.269 124.981 179.666 124.588 179.852C124.099 180.083 123.627 180.252 123.273 180.367C122.905 180.487 122.575 180.577 122.341 180.637C122.221 180.668 122.12 180.692 122.044 180.71C122.005 180.719 121.973 180.727 121.947 180.732L121.913 180.74L121.9 180.743L121.894 180.744L121.892 180.745L121.89 180.745C121.89 180.745 121.889 180.745 120.832 175.858C120.832 175.858 122.483 175.501 123.018 174.966C125.024 173.066 127.46 170.68 129.991 168.2C133.882 164.39 138 160.356 141.135 157.518C141.76 156.938 142.117 154.93 142.206 154.172C143.322 144.176 144.571 134.18 145.955 124.229C146.133 123.024 146.312 121.819 146.446 120.57C147.115 115.929 147.918 110.886 148.677 106.201C148.855 105.219 148.052 104.371 147.07 104.327L109.006 103.657L104.413 105.219C102.486 119.634 102.014 134.049 102.039 148.395C102.046 151.991 102.083 155.582 102.137 159.168C100.257 156.017 98.5547 152.796 97.0421 149.512C91.4836 137.442 88.4801 124.508 88.5737 110.99C88.5852 109.328 88.6436 107.657 88.7498 105.977L85.8047 106.111C85.4129 106.141 85.1027 105.988 84.915 105.735C84.8246 105.613 84.7626 105.467 84.7336 105.308L79.111 105.576C78.531 105.62 78.1292 105.174 78.2634 104.639L82.9488 90.7158C83.0379 90.2248 83.5734 89.8234 84.1089 89.8234L87.054 90.1355C87.2771 89.6448 87.8126 89.2879 88.3929 89.2879L91.2933 89.4217C95.0173 74.2775 102.406 59.8095 112.63 46.3989C115.27 42.9367 118.098 39.545 121.102 36.2302C119.753 40.3898 118.427 44.5567 117.144 48.7291C112.911 62.5056 109.165 76.3428 106.733 90.1803L110.838 91.8759L150.107 89.9572C150.687 89.9125 151.223 89.5555 151.312 88.9755C153.766 74.7402 156.934 58.8546 159.924 44.7537C160.058 44.0397 159.924 43.4148 159.478 42.8348C155.774 38.3279 152.115 33.7761 148.455 29.1354C148.009 28.5554 147.34 28.243 146.537 28.243C124.963 27.1729 103.308 26.1439 81.6865 25.1164L78.9297 24.9854C78.171 24.9408 77.4125 25.2085 76.7432 25.7441C71.0312 30.1619 65.3638 34.6689 59.7416 39.2207C59.0278 39.8007 58.6261 40.47 58.4478 41.2286C50.4153 80.4531 44.3463 120.123 40.2862 160.061C40.1969 160.864 40.4201 161.534 40.9556 162.069C45.1948 166.576 49.4342 171.083 53.6736 175.501C54.1198 175.992 55.637 175.858 55.637 175.858H120.832L121.889 180.745C121.542 180.82 121.187 180.858 120.832 180.858H55.7989C55.7285 180.862 55.6469 180.866 55.5561 180.869C55.3001 180.877 54.9272 180.881 54.5024 180.854C54.1049 180.828 53.5002 180.766 52.84 180.584C52.3068 180.437 51.0837 180.043 50.043 178.939C45.8042 174.521 41.5684 170.018 37.3525 165.536C35.72 163.863 35.0816 161.695 35.3137 159.538C39.3908 119.438 45.4846 79.6082 53.5494 40.2255C53.5591 40.1784 53.5694 40.1315 53.5804 40.0846C54.0196 38.2159 55.0434 36.5957 56.5885 35.3402L56.5954 35.3346C62.2313 30.7718 67.9196 26.2478 73.6581 21.8092C75.1226 20.6506 77.0407 19.8754 79.1882 19.9921L81.9254 20.1221C103.514 21.148 125.143 22.1758 146.691 23.2445C148.818 23.2859 150.941 24.1864 152.395 26.0564C156.031 30.6669 159.664 35.1868 163.341 39.6603C163.374 39.7013 163.407 39.7429 163.44 39.785C164.803 41.5562 165.219 43.6425 164.839 45.6746C164.834 45.6992 164.829 45.7238 164.824 45.7483C164.821 45.7625 164.818 45.7766 164.815 45.7908C161.835 59.8455 158.683 75.6511 156.244 89.7936C155.666 93.355 152.552 94.7835 150.491 94.9424C150.444 94.946 150.398 94.949 150.351 94.9513L111.082 96.8699C110.346 96.9059 109.611 96.7786 108.93 96.4973L104.824 94.8017C102.656 93.9064 101.402 91.6248 101.808 89.3149C103.408 80.2109 105.562 71.1281 108.034 62.1008C102.588 71.2858 98.5546 80.8314 96.1486 90.6157C95.5784 92.9345 93.4482 94.5264 91.0628 94.4164L89.7363 94.3552C88.8618 94.9109 87.8177 95.1937 86.7403 95.1257L84.9941 100.314C85.8406 100.358 86.64 100.614 87.3329 101.036L88.5229 100.982C89.9418 100.918 91.3212 101.46 92.3166 102.473C93.312 103.486 93.8295 104.875 93.7398 106.293C93.0958 116.477 94.3149 126.354 97.1669 135.802C97.4138 125.451 98.0586 115.016 99.4567 104.556Z" fill="white"/>
</svg>
