<svg width="200" height="201" viewBox="0 0 200 201" fill="none" xmlns="http://www.w3.org/2000/svg">
<path d="M176.386 17.6911H99.0935H98.9324H98.7713C79.7646 18.1145 56.1099 18.6358 39.9568 33.0233C28.4032 43.247 25.0384 56.7564 18.9282 81.278L18.9187 81.3159L18.9092 81.3569L9.68694 119.315L9.63007 119.571L9.57636 119.826C8.08831 127.071 7.02361 134.448 6.39174 139.364C5.0427 149.843 5.23226 151.275 5.41234 152.665C6.48652 160.775 11.3868 175.229 32.1809 181.203C42.6194 184.201 53.9235 184.201 61.3986 184.201H146.403H158.174L160.623 172.682L166.721 143.982L170.458 126.385L152.475 126.416L104.635 126.505H91.1539C94.4114 109.381 98.2941 93.5589 103.675 75.3787H105.166L101.548 91.1532H119.797H165.999H177.531L180.156 79.9282L190.535 35.5456L194.715 17.689H176.384L176.386 17.6911Z" fill="#00386B"/>
<path d="M34.7308 172.816C43.9909 175.476 54.5558 175.476 61.5473 175.476H146.544H151.248L152.228 170.873L158.334 142.171L159.832 135.132L152.638 135.141L104.798 135.236H80.8598C84.9068 111.604 89.7409 91.5307 97.3359 66.6552H116.26L114.273 75.3181L112.64 82.43H119.941H166.144H170.753L171.805 77.9437L182.187 33.5611L183.858 26.418H176.525H99.2351H99.1719H99.1056C81.5143 26.8066 59.6162 27.29 45.8617 39.5765C36.3487 47.993 33.4042 59.8247 27.5374 83.3828L27.5343 83.4018V83.4144L18.3059 121.375L18.2806 121.473L18.2585 121.58C15.9996 132.584 13.883 149.076 14.2019 151.531C15.1687 158.838 19.512 168.443 34.7308 172.816Z" fill="white"/>
<path d="M33.1992 84.8044L23.9699 122.757C21.4582 135.012 19.9795 149.096 19.9795 150.671C19.9795 150.721 19.9827 150.762 19.9827 150.784C22.4564 169.469 47.3022 169.668 61.5622 169.668H146.415H146.557L152.661 140.968L104.826 141.057H104.677H88.5962H88.4034H79.9048H79.829H74.0127C78.5526 112.835 83.8636 90.4336 93.0603 60.8469H123.428H123.576L122.275 66.5181L122.24 66.6634L119.956 76.6247H166.012H166.157L176.539 32.2422H176.393H99.2495C81.3393 32.6403 61.7417 33.2153 49.7488 43.9222C41.8347 50.9263 39.161 60.8469 33.1992 84.8044Z" fill="#E0AA0F"/>
</svg>
