<svg width="201" height="201" viewBox="0 0 201 201" fill="none" xmlns="http://www.w3.org/2000/svg">
<path d="M99.8963 192.336H41.8496L48.7689 168.685H106.816L99.8963 192.336Z" fill="#E00122"/>
<path d="M138.816 8.1464C126.3 7.8344 106.994 21.3928 104.388 35.362C103.658 39.3106 104.674 42.2733 106.752 43.9272C107.463 44.6971 108.375 45.244 109.494 45.4787C112.988 46.2168 116.988 45.0382 120.402 42.3912C122.735 40.5796 124.786 38.092 126.202 35.0709C127.14 33.0614 127.752 31.211 128.052 29.5302C128.482 27.1701 128.338 25.1537 127.777 23.5282C127.443 22.5704 126.975 21.75 126.396 21.0724C125.822 20.4014 125.133 19.8753 124.37 19.4945C123.348 18.993 122.252 18.7278 121.091 18.6742C122.596 17.9327 124.195 17.5399 125.756 17.597C127.021 17.6389 128.169 17.966 129.159 18.5195C129.172 18.5313 129.199 18.5419 129.219 18.5536C129.576 17.735 129.973 16.9512 130.414 16.1948C132.521 12.6269 135.558 9.81029 138.84 8.26372L138.815 8.14697L138.816 8.1464ZM104.674 16.0905C94.3694 17.9976 80.97 32.003 81.2531 43.5449C81.3303 46.8225 82.6888 49.0106 84.6682 49.9767C85.3895 50.4716 86.2263 50.7525 87.1791 50.7525C90.1699 50.7559 93.2444 49.1406 95.5845 46.4568C97.1797 44.625 98.4331 42.2961 99.0756 39.6476C99.5034 37.8896 99.6672 36.3152 99.6286 34.9247C99.5699 32.9722 99.1111 31.3911 98.368 30.1834C97.9352 29.4789 97.4014 28.9059 96.8058 28.4614C96.2154 28.027 95.5636 27.7178 94.8741 27.5467C93.9516 27.3152 93.0017 27.2892 92.0539 27.4419C93.156 26.5981 94.39 26.0233 95.6865 25.7985C96.7282 25.6224 97.72 25.6869 98.6325 25.9637C98.6509 25.9688 98.6672 25.9736 98.6823 25.982C98.8332 25.2691 99.0283 24.5804 99.2615 23.901C100.352 20.7407 102.328 18.0115 104.718 16.2268L104.674 16.0905ZM152.837 26.2965C144.262 26.5225 133.145 31.6369 129.356 39.16C128.021 41.7953 128.102 44.0948 129.159 45.6783C129.478 46.3727 129.98 46.9396 130.685 47.3321C132.899 48.5666 135.871 48.5443 138.731 47.3819C140.692 46.5801 142.606 45.2434 144.198 43.4033C145.265 42.1788 146.053 40.9967 146.607 39.8729C147.404 38.2977 147.723 36.8483 147.689 35.5902C147.664 34.8488 147.514 34.1702 147.259 33.5747C147.011 32.9876 146.66 32.4703 146.219 32.0493C145.637 31.4857 144.94 31.077 144.172 30.807C145.358 30.5889 146.506 30.6391 147.561 30.9931C148.408 31.2765 149.109 31.7462 149.658 32.335C149.676 32.3518 149.694 32.3607 149.694 32.3691C150.112 31.8692 150.543 31.3985 151.007 30.959C153.138 28.9125 155.73 27.5646 158.231 27.1166L158.244 26.9515C156.657 26.4524 154.815 26.2443 152.837 26.2965ZM77.8956 32.6654C70.0939 35.2301 61.2276 47.3501 62.7198 56.1222C63.1425 58.6131 64.4379 60.1383 66.0851 60.6617C66.699 60.9636 67.3828 61.0873 68.1241 60.9867C70.4524 60.668 72.6614 59.1087 74.1812 56.8089C75.2245 55.2404 75.9412 53.3278 76.1443 51.2393C76.2785 49.8488 76.2406 48.6301 76.0578 47.57C75.7961 46.0923 75.2596 44.9334 74.5534 44.0947C74.1374 43.5998 73.6603 43.2182 73.1537 42.9414C72.6438 42.6764 72.0997 42.5093 71.5445 42.4539C70.8048 42.3785 70.0615 42.4613 69.3402 42.6794C70.1068 41.9145 71.0011 41.343 71.9875 41.036C72.7725 40.7861 73.5523 40.7347 74.2886 40.8421C74.3054 40.8488 74.3224 40.8483 74.3358 40.85C74.3727 40.2948 74.4443 39.7423 74.5533 39.1988C75.0532 36.6676 76.2933 34.3749 77.9606 32.7512L77.8956 32.6654ZM110.001 53.8061C79.8186 53.8061 54.373 80.8338 48.4672 109.024C41.6569 141.537 61.5084 161.36 83.9289 160.939C107.931 160.481 119.338 134.747 121.314 129.453L121.085 129.418C112.854 143.01 100.593 147.843 95.2252 147.843C72.4635 147.843 72.2595 125.258 77.1307 107.203C83.8621 82.2374 94.4416 66.7274 109.874 66.7274C115.463 66.7274 123.512 70.6801 125.303 88.5498L125.62 88.5865C127.1 84.4349 134.476 60.5524 134.476 60.5524C127.153 56.5049 119.697 53.8061 110.001 53.8061Z" fill="black"/>
</svg>
