<svg width="200" height="201" viewBox="0 0 200 201" fill="none" xmlns="http://www.w3.org/2000/svg">
<path d="M40.9591 18.2466C31.8411 18.2466 26.2744 23.8711 20.045 32.2349C16.3864 37.1915 11.0348 40.644 5 41.9363V159.961C11.0349 161.25 16.3874 164.699 20.045 169.656C26.2739 178.02 31.8576 183.644 40.9591 183.644H159.037C168.155 183.644 173.726 178.02 179.955 169.656C183.613 164.699 188.965 161.25 195 159.961V115.368H145.191V139.869H54.581V61.784H145.191V84.3797H195V41.9363C188.965 40.644 183.614 37.1917 179.955 32.2349C173.727 23.871 168.139 18.2466 159.037 18.2466L40.9591 18.2466ZM101.853 66.6564L92.1247 91.3592H61.3452L86.1083 106.619L76.3733 131.319L101.409 116.059L126.175 131.319L116.884 106.619L141.92 91.3592H111.14L101.853 66.6564Z" fill="#002856"/>
<path d="M153.949 75.8559H186.433V48.1053C184.724 47.3837 179.395 44.7984 173.833 38.2471C172.819 37.0481 171.913 35.9458 171.075 34.9288C166.505 29.3263 164.407 26.7695 159.039 26.7695H40.959C35.5907 26.7695 33.4936 29.3265 28.9345 34.9288C28.0968 35.9459 27.1907 37.0483 26.1763 38.2471C20.5859 44.7984 15.2575 47.3837 13.5479 48.1053V153.791C15.2575 154.512 20.5859 157.098 26.148 163.655C27.1623 164.848 28.0685 165.928 28.9062 166.973C33.4653 172.57 35.5909 175.127 40.9592 175.127H159.039C164.407 175.127 166.505 172.57 171.092 166.973C171.93 165.956 172.836 164.848 173.85 163.655C179.412 157.098 184.712 154.512 186.45 153.791V123.892H153.967V148.631H46.0311V53.2585H153.949L153.949 75.8559Z" fill="#7BADD3"/>
</svg>
