<svg width="200" height="201" viewBox="0 0 200 201" fill="none" xmlns="http://www.w3.org/2000/svg">
<path d="M106.499 7.65112C106.452 7.76089 105.952 7.92459 105.912 8.04087C105.717 8.58394 106.045 9.01698 106.108 9.40721C105.897 9.44947 105.795 9.76599 105.717 9.7969C105.013 10.0351 104.105 9.61403 103.377 9.7969C102.986 9.88798 102.43 10.6882 102.016 10.7735C101.108 10.9507 100.623 10.3579 99.8637 10.9676C99.4959 11.2481 98.7055 13.7304 98.5021 14.2856C98.2908 14.1702 98.1343 14.3711 97.9152 14.2856C97.6961 14.2003 97.4066 13.6144 97.1327 13.5047C95.3486 12.7795 95.419 14.2491 94.5974 14.871C94.3 15.0903 93.7836 15.0903 93.4236 15.2609C93.4236 15.2609 93.2828 14.6813 93.228 14.4797C93.4627 14.2667 94.1122 14.0295 94.2061 13.7003C94.2609 13.4808 94.1122 13.1201 94.2061 12.9193C94.034 12.7851 93.8618 12.8035 93.8149 12.5296C93.4549 12.5296 92.9932 12.6092 92.6489 12.5296C92.4533 12.7979 91.9369 13.1876 91.8664 13.5047C91.8273 13.6388 91.9525 13.9559 91.8664 14.09C91.7178 14.2973 90.9587 14.4559 90.8883 14.6754C90.5988 15.5591 91.0839 16.2297 91.2795 16.8212H90.8883C90.6066 16.9128 90.0275 17.9379 90.1058 18.3831C90.1371 18.542 90.6301 18.8518 90.6927 18.9684C90.7631 19.1023 90.7866 19.6571 90.8883 19.7478C91.0526 19.8879 91.3421 19.7666 91.4752 19.9434C91.1309 20.6806 91.1622 21.0053 90.8883 21.895C90.7866 21.8277 90.411 21.895 90.3014 21.895C89.7928 20.8097 89.6676 21.2119 89.918 19.5538C89.7224 19.4622 89.3076 19.0107 89.1355 18.9684C88.5486 18.8096 87.7504 19.1336 87.1792 18.9684C86.9914 18.9074 86.874 18.2603 86.6001 18.1875C86.381 18.1265 85.6611 18.3409 85.8176 18.3831C85.5829 18.7979 85.2934 19.1993 85.0351 19.7478C85.0038 19.8089 84.6674 19.8879 84.6439 19.9434C84.5187 20.2604 84.683 20.8879 84.4482 21.1141C84.0883 21.4435 83.4623 21.1994 83.0867 21.5038C82.805 21.7166 82.2729 24.5469 82.6954 24.8216C83.298 25.2121 83.6501 24.8404 84.0648 24.626C84.37 24.4617 84.1978 24.248 84.2526 23.845C84.3856 23.8873 84.8395 24.0407 84.8395 24.0407C84.7299 24.626 84.6908 24.7434 84.6439 25.4077C84.4326 25.45 84.3387 25.7661 84.2526 25.7974C83.6657 25.9977 82.7189 25.644 82.1086 25.7974L81.9129 26.1871C81.5999 26.3874 81.3182 26.1996 80.9426 26.3827C81.1539 25.3396 81.2556 24.7355 81.5217 23.845C81.1617 23.6924 81.4278 23.8278 81.326 23.4553C80.3902 23.3826 79.567 23.0774 78.9879 23.845C78.2257 24.8396 78.5067 25.8451 78.9879 26.7724C78.5974 27.2411 77.9213 27.7904 77.8173 28.5283C77.7805 28.76 77.9331 29.2976 77.8173 29.5049C77.775 29.566 76.9346 29.6747 76.8431 29.699C76.782 30.0769 76.7937 30.5652 76.6466 31.0652C76.6826 31.0707 77.3485 31.192 77.4276 31.2593C77.6412 31.4361 77.6162 32.0778 77.8173 32.2359C77.3908 32.2233 75.2076 32.4245 74.6958 32.8212C74.2076 33.1874 74.9525 35.1742 74.6958 35.9418C74.5558 36.3503 73.9337 36.765 73.7193 37.1132C72.8358 38.5272 72.1895 39.5946 71.184 40.8208C71.0126 41.0211 70.5016 41.2112 70.4046 41.6017C69.795 43.9977 70.9899 43.1307 71.5752 43.3561C71.709 43.4054 72.3374 43.9852 72.5502 44.137C72.191 44.9 71.3068 46.1066 71.9649 47.2592C72.0807 47.4666 72.6238 47.5816 72.7458 47.843C72.8734 48.1302 72.4712 47.9846 72.5502 48.4299C72.7396 49.5755 74.0198 49.6005 75.0871 49.6005C74.9713 49.6428 74.3429 50.1733 74.3062 50.185C72.4219 50.7398 72.702 49.9174 71.9649 51.7469C71.0924 50.5935 70.4414 50.3188 68.6486 49.991C68.5015 50.2954 68.2879 50.3689 68.0617 50.5763C68.4154 51.4605 68.428 51.887 68.8427 52.7219C68.5312 52.9293 67.9045 53.2047 67.6721 53.5029C67.4522 53.7721 67.5202 54.2517 67.2824 54.4779C67.0813 54.661 66.7393 54.5217 66.5014 54.6735C66.2518 54.8261 65.9098 55.4044 65.7205 55.6485C65.7995 55.7823 65.7205 56.2651 65.7205 56.4295C66.7088 56.6799 66.8246 56.7886 68.0617 56.6235C67.953 56.8371 68.1478 56.9772 68.0617 57.2088L67.6721 57.4045C67.2519 58.0446 67.453 58.4288 67.2824 59.356C67.4052 59.4225 67.989 59.6417 68.0617 59.7457C68.6111 60.5008 68.8975 61.1425 69.428 61.8921C69.0438 62.148 68.0015 62.5987 67.8677 63.0628C67.7636 63.3985 67.9647 63.6974 67.8677 64.0393C68.3787 64.1732 69.2817 64.35 69.8193 64.6247C69.9343 64.6787 70.2269 65.1599 70.4046 65.2084C70.7458 65.2937 71.0322 65.1169 71.3796 65.2084C71.2645 65.6537 71.1597 66.0872 70.9899 66.7703C70.5016 66.7891 70.4414 66.3923 69.8193 66.5762C69.7027 66.606 69.4163 67.0692 69.2339 67.16C69.9781 68.5442 69.1408 68.1663 71.184 68.3306C71.3725 68.8494 71.5862 69.4465 71.7693 69.8909H71.9649C72.1167 70.7149 71.7028 71.0013 71.7693 71.8425C71.8186 72.5444 72.4352 73.9522 72.5502 74.5742C72.63 75.025 72.3984 75.5078 72.5502 75.9405C72.5753 76.0195 72.8914 76.1174 72.9399 76.3302C74.5566 75.7566 73.4282 76.6659 74.5002 75.3552C74.7146 75.4593 74.8547 75.2629 75.0871 75.3552C75.1419 75.3732 75.5441 75.91 75.6724 75.9405C76.5136 76.1299 76.6349 75.5806 77.4276 75.9405C78.2876 76.3302 77.336 76.9108 77.232 77.3068C77.1709 77.5259 77.311 77.8663 77.232 78.0861C78.671 79.1167 79.2015 79.7153 81.326 79.648C81.4356 79.3796 81.5217 78.9273 81.7173 78.6715C81.866 78.4641 82.3511 78.4524 82.4998 78.2818V80.4274C82.5468 80.6653 83.6344 81.9885 83.8692 82.379C84.3935 82.3367 84.8865 82.379 85.4264 82.379C85.489 82.2514 85.7003 81.6223 85.8176 81.598C87.5704 81.2021 88.04 83.1106 88.9398 83.354C89.4954 83.5003 89.8084 83.2452 90.3014 83.1599C90.497 83.3915 90.5909 84.0316 90.8883 84.1349C91.0996 84.203 91.4673 84.0254 91.6708 84.1349C91.7099 83.9276 92.0308 83.8251 92.062 83.7452C92.1716 83.4103 91.9603 83.1044 92.062 82.7687C91.8821 82.7319 91.0135 82.7092 90.6927 82.5746C90.3562 82.4228 90.2075 81.5018 89.918 81.404H89.5267C89.4172 81.1904 89.6285 80.8241 89.5267 80.623C89.6598 80.4102 89.9962 80.08 90.1058 79.8421C90.364 80.0737 90.9118 80.1105 91.0839 80.4274C91.1856 80.6105 91.0213 81.001 91.0839 81.2084C91.1622 81.5073 91.6943 81.7452 91.8664 81.9893C92.2342 81.9165 92.6568 82.0746 93.0324 81.9893C93.7053 81.8312 93.8696 81.0495 94.793 81.0127C95.8494 80.9642 96.8432 81.983 98.3065 81.598C99.3002 81.3296 99.0577 80.0502 99.668 79.648C100.357 79.191 101.311 79.5307 102.203 79.2568C102.422 79.1832 102.759 78.7755 102.986 78.6715C102.986 78.5009 102.908 78.0384 102.986 77.8921C103.088 77.6792 103.44 77.7567 103.573 77.5008C104.488 77.7935 105.646 78.4352 106.695 77.8921C106.945 77.7575 107.071 77.0681 107.282 76.9155C107.477 76.7567 107.837 76.831 108.064 76.7215C108.252 76.6174 108.643 76.0375 108.839 75.9405C109.301 75.6964 109.762 75.7214 110.208 75.5508C110.208 75.5508 110.459 74.6361 110.404 74.3802C110.326 74.0813 109.676 73.8184 109.622 73.5985C109.473 73.0257 109.872 73.1055 109.817 72.6235C110.091 72.4231 110.208 72.1234 110.404 71.8425C111.163 71.9466 112.032 72.1845 112.744 71.8425C113.166 71.6297 113.041 71.1969 113.331 70.8675C113.714 70.4105 114.606 70.0326 115.083 69.6969C114.997 69.063 114.802 68.423 114.888 67.9409C114.966 67.5019 115.67 67.0872 115.866 66.7703C116.116 66.3501 116.046 66.0449 116.257 65.5997C116.187 65.5504 115.694 65.2812 115.67 65.2084C115.576 64.9831 115.78 64.8312 115.67 64.6247C117.228 63.5205 117.517 62.929 115.67 61.8921C116.828 61.2888 117.83 60.673 118.988 60.137C118.894 59.8811 118.988 59.4351 118.988 59.1604C118.753 59.0516 118.417 58.6424 118.206 58.5751C117.423 58.3317 116.946 58.6001 116.453 58.1854C116.242 58.0093 116.335 57.5383 116.257 57.2088C115.819 57.3614 115.96 56.6673 115.866 56.4295C115.897 56.4295 116.954 56.5014 116.648 56.6235C117.9 56.478 120.091 56.3262 118.988 54.6735C118.886 54.5217 118.253 54.4348 118.206 54.2822C118.088 53.8988 118.55 53.3448 118.401 52.7219C118.276 52.2282 117.548 52.1311 117.423 51.9426C117.024 51.3322 116.844 51.1553 117.619 50.7719C117.525 49.4362 117.454 49.4902 118.206 48.8196C118.245 48.7765 118.73 48.8196 118.793 48.8196C118.824 48.6005 118.808 47.7037 118.988 47.4533L120.154 46.8695C119.888 46.0518 119.575 45.2646 119.763 44.7223C119.818 44.5643 120.318 44.0893 120.35 43.943C120.428 43.4907 120.084 43.655 120.154 43.3561C119.935 43.4054 119.395 43.5517 119.372 43.5517C118.886 45.1919 119.074 45.7584 118.01 44.3327C117.494 44.3937 117.556 44.5815 117.228 44.7223C117.228 44.7223 117.204 43.4969 117.228 43.162C118.793 42.8021 118.206 43.0705 118.988 41.9914C119.16 42.1135 119.364 41.9116 119.575 41.9914C119.771 42.0704 119.818 42.6683 119.958 42.7723C120.866 43.4124 122.079 42.9734 122.893 42.7723C122.799 42.3936 122.995 41.9664 122.893 41.6017C122.822 41.3756 122.173 40.9178 122.11 40.6251C122.056 40.4053 122.001 39.5523 122.306 39.6501V39.2604C122.259 39.1384 121.743 38.7362 121.719 38.6751C121.672 38.5585 121.766 38.1931 121.719 38.0898C123.167 37.4552 123.355 37.3449 124.059 35.9418L124.45 35.5521C124.513 35.1257 124.106 34.8017 124.254 34.1859C124.325 33.8447 124.974 33.4237 125.037 33.0152C125.092 32.5817 124.708 32.1068 124.841 31.4549C124.92 31.0645 125.726 30.4071 125.812 30.0902C125.929 29.663 125.741 29.1567 125.812 28.724C124.536 27.9735 124.599 28.2905 124.45 26.3827C124.763 26.1808 124.567 26.2113 124.646 25.7974H125.037C125.053 26.1871 124.998 26.7779 125.037 27.3577C125.068 27.3507 126.117 27.3217 125.812 27.1637C125.89 26.932 126.203 26.1636 126.399 25.993C126.422 25.9625 126.406 25.4437 126.399 25.4077C126.32 25.09 125.819 24.705 125.624 24.4303C125.78 24.1745 126.062 23.8826 126.203 23.651C126.344 23.4131 126.751 22.8333 126.79 22.6744C127.001 21.7479 126.414 20.9732 126.399 20.5288C126.367 19.7486 126.876 19.3464 126.79 18.3831L126.399 17.7978C125.952 15.6397 126.305 15.9746 124.254 15.4565C124.161 15.8462 123.957 16.5716 123.863 17.0169C123.488 17.1139 123.621 16.8463 123.472 17.2125C122.791 17.1812 121.923 17.0474 121.523 17.0169C121.61 15.5231 121.508 14.987 121.132 13.7003C120.569 13.5726 119.599 13.0351 118.793 13.309C118.644 13.3521 118.417 13.7904 118.206 13.8943C118.206 14.3456 118.276 14.803 118.206 15.2609H117.814C117.619 14.8518 117.814 14.6393 117.619 14.2856C117.345 13.8036 116.367 13.3822 116.257 12.7236C116.062 11.6197 116.789 11.59 116.648 10.5779C116.602 10.3039 114.935 8.08962 114.692 8.04087C113.612 7.80915 113.456 8.54137 112.939 8.82182C112.306 9.1511 111.57 9.32802 110.983 9.60284C111.304 10.8833 112.055 13.2667 109.622 12.7236C108.761 12.5286 109.003 11.938 108.643 11.1632C108.589 11.0356 108.088 10.902 108.064 10.7735C107.884 9.8768 108.534 9.09577 108.064 8.2365C107.783 7.7365 107.078 7.88852 106.499 7.65112ZM48.3566 32.43C48.2471 32.6131 47.9059 32.4848 47.7713 32.6257C47.4912 32.8995 47.7705 33.614 47.5757 33.9919C47.3926 34.3339 46.3612 34.8339 45.6241 34.5772C45.6241 34.5772 45.2587 33.5341 44.6491 33.4066C44.0818 33.2845 43.3501 33.5889 43.0888 33.6007L42.8932 35.1625L41.9182 36.3332L42.5035 36.5272C42.8814 37.1063 42.9291 37.3395 43.2828 38.0899C43.0755 37.9921 42.7171 38.1627 42.5035 38.0899C41.8329 37.8583 41.1067 35.8817 40.3563 35.5522C39.4047 35.1258 37.7662 35.1743 36.6495 34.9669C36.4492 35.2408 36.1495 35.3629 35.8686 35.5522C35.8756 35.5522 35.8686 36.107 35.8686 36.1375C36.1127 36.1986 36.18 36.625 35.8686 36.5272C35.8263 36.5155 35.7058 36.1986 35.6745 36.1375C35.1322 36.1375 34.4554 36.1555 33.9186 36.1375C33.6869 37.4185 33.1376 38.0023 32.5523 38.8693C32.3152 38.6862 32.003 38.8513 31.7714 38.6752C31.6923 38.6134 31.4005 37.9483 31.3817 37.8943C32.6932 37.5273 29.1805 37.9678 30.6007 38.0899C30.2838 38.1807 30.0592 38.0946 29.8214 38.284L28.6507 39.6502C28.3455 40.1925 28.5036 41.2356 27.8698 41.6018C27.5771 41.7661 26.7351 41.7536 26.5027 41.7959C25.5465 44.3077 25.6803 42.6433 24.1615 43.3562C23.9119 43.4665 23.796 44.1496 23.5762 44.3328C23.3758 44.4846 23.0104 44.4118 22.7968 44.5268L22.6012 44.9165C21.7482 45.4658 20.9422 45.2772 20.0643 45.3078C19.9485 45.5816 19.8765 46.149 19.6746 46.4784C19.3397 47.0027 18.6385 46.9119 18.1143 47.2593C17.4436 47.6921 15.852 50.2235 15.3833 50.3823C15.3215 50.3995 14.5593 50.1609 14.2119 50.1851C13.492 50.2282 12.2666 50.6132 11.675 50.772C11.675 51.7955 11.7603 52.4974 11.8706 53.3089C11.4199 53.1923 11.9379 53.528 11.4809 53.503L11.0897 53.1117C10.4316 52.9349 9.6814 53.5695 9.52936 53.8927C9.20579 54.5695 9.48061 55.1744 9.52936 55.8442C9.86435 55.8442 10.3768 55.7409 10.7 55.8442C10.5231 58.0759 10.7602 58.1065 8.74841 57.9899C8.69395 58.1182 8.26631 58.4844 8.1631 58.5752C8.38823 59.3436 8.33478 59.6973 8.55435 60.5268C8.4689 60.5142 7.71206 60.6723 7.38364 60.7208C7.38364 60.7208 7.46847 59.7098 5.43191 61.1121C5.71807 63.2655 4.71865 64.0074 5.04222 66.3791C4.46903 66.7086 3.81048 67.2086 3.28612 67.5498C3.35286 67.8909 3.21295 68.1789 3.28612 68.5263C3.3837 69.0146 3.99397 69.6602 4.06714 70.2823C4.13952 70.9599 4.05978 71.5382 3.87151 72.0382C3.86463 72.0508 3.48174 72.2323 3.48174 72.2323C3.26225 73.4397 3.74874 74.8795 3.87151 75.9406C4.10892 76.0196 4.37146 75.9289 4.45683 76.1362C4.54228 76.3436 4.34712 76.7082 4.45683 76.9156C4.31621 77.0807 3.7913 77.3053 3.67588 77.5009C3.04176 78.5252 3.64599 79.447 3.48174 80.6231C3.48174 80.6231 3.13282 80.7945 3.09049 80.8188V81.2084C3.03525 81.5136 2.84661 82.1655 3.09049 82.7688C3.13846 82.8908 3.5661 83.0505 3.67588 83.16V83.5497C5.69366 83.6906 5.71142 83.7086 6.79676 82.3791C6.94387 82.4284 7.35845 82.5872 7.38364 82.5747C7.29819 82.8494 7.01594 83.2203 6.99239 83.3541C6.93057 83.6413 7.18801 84.5247 7.18801 84.5247C7.27339 84.5858 7.73679 84.8064 7.77333 84.916C7.91888 85.3675 7.73029 85.9935 7.77333 86.4786C5.9864 85.6492 4.82202 85.8213 5.62605 88.0358C5.72441 88.3097 5.60938 88.4819 5.82316 88.6227C6.17686 88.8496 6.7189 88.6071 7.18801 88.8183C7.30993 88.8731 7.64492 89.5695 7.77333 89.6009C9.02941 89.8278 9.5346 88.5601 9.91912 87.8402C10.1389 87.9498 10.4551 88.2236 10.7 88.2315C10.0229 89.5852 10.2915 89.3817 10.7 90.5712C10.657 90.5946 10.7 91.1111 10.7 91.158C10.5959 90.8763 10.4864 91.6667 10.5044 91.7449C10.7548 92.903 12.3573 92.7935 13.4309 92.7231C13.3699 92.817 13.4677 93.1926 13.4309 93.3021C13.2228 93.8264 11.9442 94.3898 11.4809 94.6715C11.5967 95.0002 11.3589 95.3132 11.4809 95.6496C11.5474 95.8453 12.621 96.7608 12.8456 96.8156C13.6516 97.0112 15.0836 96.5026 15.5774 96.2287C15.7597 96.127 16.0829 95.4931 16.3583 95.454C16.9788 95.3445 17.1987 95.6966 17.723 95.8453C17.7105 95.8453 17.723 96.4008 17.723 96.4243C15.2902 96.6982 14.6524 97.3007 15.9686 99.1553C17.0117 98.8892 17.2605 99.0301 18.3083 98.7718C18.3881 99.4057 18.5665 100.673 19.0908 100.916C19.4437 101.072 20.0533 100.861 20.4555 100.916C22.5292 101.198 22.5777 102.09 23.9674 100.133C24.9675 100.243 25.5833 100.415 26.3087 100.133L26.6984 99.7422C27.3518 99.6561 28.0224 100.094 28.4551 100.133C29.0099 100.173 29.2055 99.9378 29.6257 99.9378C29.7478 99.4448 29.8448 99.0144 30.0154 98.3806C29.7048 98.1302 29.3878 98.005 29.0404 97.7937V97.4025C29.6868 97.0973 30.4184 96.6199 30.992 96.4243C31.6626 96.2052 32.7057 96.1113 33.3333 96.4243L33.7229 96.8156C34.7285 96.9642 35.2293 96.3382 35.8686 96.2287C36.3076 96.1504 37.0228 96.4008 37.4305 96.2287C38.0283 95.9705 37.9915 94.7576 38.4055 94.2802C38.839 93.7716 39.8195 93.529 40.3563 93.1065C40.1732 92.637 40.9416 93.1065 40.9416 93.1065C41.2155 94.8828 40.9173 94.5854 42.6975 94.8671C42.9902 94.3115 43.4722 93.13 44.2594 93.1065C44.6006 93.0987 44.369 93.3804 44.8447 93.3021C44.9425 93.576 44.7407 93.9985 44.8447 94.2802C44.8815 94.382 45.3322 94.6637 45.43 94.8671C45.6437 94.7811 45.9841 94.9219 46.2094 94.8671C46.819 94.695 47.1484 93.2786 47.3801 92.7231C49.5633 92.6292 49.1125 92.8326 49.9169 91.3537C50.7887 91.471 51.2394 91.4084 52.0634 91.3537C52.1056 91.1424 52.4241 91.0407 52.4546 90.9624C52.6009 90.5399 52.3083 90.0234 52.4546 89.6009C52.5696 89.2487 53.3936 88.9201 53.6253 88.6227C53.8749 88.2862 53.9109 87.715 54.2106 87.449C54.7834 86.9325 55.6793 86.909 55.9665 86.0874C56.1129 85.657 55.8812 85.1719 55.9665 84.7203C56.0033 84.4887 56.5276 83.7813 56.5518 83.5497C56.6982 82.0622 55.8366 81.9284 54.9899 81.4041C54.7333 81.7452 54.4719 82.0434 54.2106 82.3791C54.6981 82.4714 53.6253 82.7688 53.6253 82.7688C53.8076 81.7147 53.4719 81.7445 54.6003 81.0128C55.051 80.7147 55.3436 80.7444 55.7709 80.4275C55.8984 80.3242 56.008 79.9095 56.1606 79.8422C56.8249 79.5198 57.6372 79.8179 58.3078 79.4525C58.6184 79.2764 58.4533 78.6669 58.6975 78.4775C58.3923 77.9164 58.6247 77.8304 58.1122 77.5009C57.8195 77.3123 57.5088 77.2693 57.1371 77.1112C57.3445 76.9712 57.4846 76.4219 57.7225 76.3303C58.2835 76.1049 58.8493 76.3866 59.2828 76.1362C59.6662 75.9046 59.4103 75.5251 59.6725 75.1597C59.8368 74.9155 60.4965 74.7997 60.649 74.5743C60.8259 74.2934 61.5388 72.19 61.4284 71.647C61.3611 71.3363 60.7523 71.0875 60.649 70.8676C60.4354 70.4106 60.6052 70.0992 60.4519 69.5013C60.7077 69.4896 60.7398 69.1359 60.8431 69.1117C61.2586 69.0021 61.4042 69.4473 61.6225 69.5013C62.8064 69.7697 63.056 69.0741 63.5741 68.7204C63.477 67.8855 63.3495 66.8557 63.38 66.1851C62.4535 65.7156 62.0685 66.0082 62.0137 64.6248C61.9527 63.282 62.6789 63.3688 62.7947 62.8688C62.8862 62.4603 62.6053 61.7764 62.5991 61.6974C62.4527 59.9774 63.0748 59.8022 62.5991 58.1855C62.8612 58.0892 63.2994 58.1855 63.5741 58.1855C64.1594 56.9358 64.0874 57.4476 63.7697 56.0383C63.5075 55.9593 63.1546 55.9906 62.9903 55.8442C62.5576 55.4428 62.1671 54.7276 61.8197 54.2823C62.6617 53.6125 63.2571 52.9482 64.1594 52.3323C64.0561 51.9912 64.2572 51.6915 64.1594 51.3558C64.1234 51.24 63.6163 50.7775 63.5741 50.5764C63.3917 49.7289 63.4903 49.1859 63.38 48.43C63.5999 48.4362 64.4411 48.5755 64.9411 48.624C64.9411 48.624 65.1727 47.7226 65.1367 47.4534C65.1179 47.3564 64.2024 44.9595 64.1594 44.9165C63.9645 44.7342 63.3855 44.6551 63.1844 44.5268C63.4708 43.6246 64.1367 42.0032 62.9903 41.6018C62.6546 41.4789 62.3432 41.7168 62.0137 41.6018C61.8737 41.9664 61.7759 42.3014 61.6225 42.5752C60.6483 44.2764 61.4535 42.6871 60.649 42.9665C60.649 42.6128 60.7343 42.1316 60.649 41.7959C60.7093 41.7599 61.027 41.6386 61.0387 41.6018C61.124 41.3146 61.2336 41.3561 61.4284 41.2105C61.2704 40.7833 61.0935 40.3381 61.0387 40.0399C60.6913 40.2042 59.4651 40.716 59.0872 40.6252C59.0441 40.6127 58.5997 40.0642 58.5018 40.0399C58.2757 39.9789 57.9353 40.1182 57.7225 40.0399C57.5699 40.1862 57.1121 40.9554 56.9415 41.0165C56.7287 41.083 56.3554 40.9069 56.1606 41.0165C56.8437 41.0165 55.7764 38.4913 55.7709 38.4796C56.7709 38.1071 56.8132 37.9921 57.5268 37.5046C57.4353 37.1626 57.5268 36.6806 57.5268 36.3332C56.6731 36.1688 56.5025 36.0523 55.3812 36.1375C55.1308 35.6258 55.1918 35.686 54.7959 35.3566C54.1981 35.7228 54.1182 35.9677 53.234 36.3332C53.0079 38.3145 53.1307 38.2894 54.7959 38.284C54.3929 39.0939 54.4664 39.3998 54.2106 40.4312C53.7223 39.7848 53.0149 39.0524 52.259 38.6752H52.0634C51.7277 37.9976 51.9718 37.0468 51.8685 36.3332C52.2833 36.2541 52.2347 36.3332 52.4546 36.1375C52.7402 35.8691 53.4054 35.6673 53.6253 35.3566C53.716 35.2228 53.7833 34.5397 53.6253 34.7713C53.5642 34.7408 53.3435 34.0467 53.234 33.9919C52.3067 33.5099 50.8998 34.1805 50.1126 33.9919C49.5578 33.8511 49.2706 32.6069 48.7463 32.43H48.3566ZM169.129 34.9669L168.738 35.1625C168.519 35.4975 168.644 35.6868 168.542 36.1375C167.65 35.8997 167.282 35.9795 166.398 35.7479C165.209 38.3027 165.631 37.5828 162.689 37.6986L161.711 38.0899C161.562 38.1196 161.366 37.9185 161.515 37.8943C161.241 37.7722 160.811 38.0093 160.545 37.8943C160.294 37.7839 160.247 36.546 159.175 36.9177C159.152 36.924 158.706 37.6627 159.175 37.5046C159.175 37.5046 159.332 38.4608 159.371 38.6752C158.479 39.3091 158.62 39.0821 158.009 40.0399C157.43 39.8693 157.219 39.9061 156.836 39.6502C156.1 39.1557 156.491 38.7284 156.64 38.8693C156.711 38.4358 157.211 38.4553 157.031 37.6986C156.984 37.5163 156.351 37.2714 156.249 37.1133C156.085 36.8692 156.147 36.6438 156.053 36.3332C155.991 36.3457 155.365 36.1868 155.083 36.1375C155.005 37.1071 154.919 38.1071 155.083 39.2605C154.606 39.3091 153.385 39.2402 152.735 39.4546C152.454 39.5399 151.851 40.3928 151.569 40.6252C151.327 40.5157 150.842 40.6252 150.591 40.6252C150.505 40.3083 150.466 39.9601 150.396 39.4546C149.848 39.3137 149.058 38.7902 148.056 39.0649C147.931 39.0946 147.532 39.626 147.469 39.6502H147.078C145.669 41.0282 147.853 41.3389 148.643 41.7959C148.885 41.9367 149.175 42.4234 149.425 42.5752C149.097 42.7959 148.885 42.936 148.643 43.1621C147.79 42.558 146.835 41.8444 145.325 42.3812C144.996 42.4907 144.676 43.0706 144.347 43.1621C143.979 43.2599 143.549 43.0878 143.181 43.1621C142.978 42.3874 142.547 40.8506 141.616 40.8209C141.311 40.8083 141.045 41.1253 140.638 41.2105C140.591 41.4179 140.278 41.5165 140.247 41.6018C140.067 42.1198 140.09 42.9728 140.059 43.3562C138.627 43.7232 137.656 44.1371 135.958 44.3328C135.669 45.1004 135.481 45.6192 135.176 46.2843H134.785V45.8931C134.456 44.9541 133.509 45.3625 132.836 45.5034C132.586 46.9909 132.202 47.2961 131.67 48.43C130.004 47.8752 130.371 47.9057 129.127 48.43C129.127 48.7837 129.213 49.2477 129.127 49.6006L129.714 49.7954C129.706 49.7954 129.714 50.351 129.714 50.3823C128.728 50.2344 128.18 50.351 127.374 50.3823C127.304 50.8213 126.834 50.765 126.983 51.5514C126.991 51.5944 127.601 52.3143 127.57 52.3323C127.014 52.5647 126.74 53.8919 126.592 54.478C124.98 54.8857 124.221 54.8371 123.078 55.6486C123.149 56.0876 122.93 56.5939 123.078 57.0149C123.211 57.3803 124.189 57.6675 124.448 57.9899C124.753 58.3749 124.823 59.2943 125.23 59.5502C125.676 59.8319 126.099 59.4892 126.396 59.5502C126.443 59.5572 126.607 59.9117 126.787 59.9414C126.78 59.954 126.443 61.1011 126.592 61.1121C125.293 60.9673 124.909 60.9837 123.665 61.3061C123.751 60.3922 123.978 59.076 123.078 58.7708C122.859 58.6918 122.499 58.8631 122.304 58.7708C122.249 58.9782 121.936 59.0752 121.912 59.1605C121.599 60.0635 122.327 60.4282 122.108 61.3061C121.975 61.7764 119.322 63.9651 118.79 64.6248C119.017 64.8439 118.884 64.9902 118.986 65.4057C119.455 65.527 120.246 65.8916 120.739 65.9894C118.493 66.5442 117.389 67.3432 118.399 69.5013C117.718 69.9834 116.044 71.7941 116.255 73.0132C116.294 73.2816 116.967 73.5993 117.03 73.7942C117.108 74.0086 116.936 74.367 117.03 74.5743C116.607 74.8177 114.4 76.4531 114.299 76.7215C114.166 77.069 114.385 77.5205 114.299 77.8922C114.385 77.911 114.932 78.0009 115.081 78.0862C115.23 78.1715 115.159 78.598 115.277 78.6716C114.964 79.1958 114.056 79.8907 113.907 80.4275C113.688 81.239 114.275 82.7085 113.516 82.9644C113.078 83.1052 114.103 84.135 114.103 84.135V84.3307C114.244 84.3972 114.612 85.006 114.69 85.11C114.893 85.391 115.026 85.477 115.277 85.6961C114.862 86.2987 113.86 87.3159 114.299 88.6227C114.346 88.7636 114.784 88.9983 114.885 89.2096C115.433 89.1157 115.856 89.0218 116.255 89.014V90.9624C116.294 90.5399 116.263 93.0048 116.45 93.3021C116.568 93.5056 117.389 93.529 117.616 93.6934C117.749 93.7951 117.828 94.3585 118.008 94.4759C118.454 94.7497 119.346 94.9219 119.76 95.0628C119.76 95.5714 119.588 96.5339 119.76 97.0112C119.972 97.5824 120.903 97.5355 121.521 97.7937C121.717 97.5042 122.077 97.3007 122.304 97.0112C122.476 96.7765 122.554 96.4634 122.695 96.2287C122.851 96.6982 123.266 98.0754 123.665 98.3806C124.346 98.9049 125.066 98.6936 126.005 98.5762C125.919 98.7092 126.036 99.0144 126.005 99.1553C125.95 99.3665 125.199 99.9691 125.035 100.133C125.207 100.384 125.316 100.861 125.426 101.112C126.06 101.112 126.615 101.025 127.374 101.112C127.679 101.143 128.157 101.667 128.931 101.503C129.104 101.456 129.542 100.775 129.714 100.72C129.933 100.642 130.285 100.806 130.497 100.72C131.615 102.301 130.888 102.387 133.227 102.864C133.877 101.933 134.472 99.9456 136.35 100.329C136.459 100.345 136.921 101.065 137.132 101.112C137.852 101.26 138.259 100.689 139.081 100.916C139.268 100.963 139.488 101.589 139.667 101.698C139.973 101.886 140.294 101.691 140.638 101.886C140.833 101.996 140.865 102.551 141.029 102.669C141.366 102.911 143.783 103.858 144.543 103.647C144.879 103.545 145.09 102.77 145.521 102.669C146.561 102.411 147.047 103.115 148.056 102.864C148.745 102.692 149.183 101.338 149.425 100.72C152.094 101.08 151.209 100.783 152.735 99.7422C153.048 99.523 153.424 99.57 153.714 99.3509C153.886 99.2179 154.097 98.631 154.3 98.5762C155.091 98.3102 156.022 98.7718 156.836 98.5762C157.18 98.4823 157.532 97.9659 157.814 97.7937C157.751 97.4651 157.603 96.9173 157.618 96.8156C157.149 96.6043 156.656 96.2365 156.249 96.0331C156.906 96.0878 157.806 96.2913 158.197 96.2287C158.894 96.1191 160.623 94.7889 160.74 94.0846C160.834 93.4508 159.841 92.6761 160.74 92.3318C161.218 92.144 161.977 92.41 162.493 92.3318C162.955 92.2535 163.831 91.7058 164.246 91.5493C164.16 91.2911 164.246 90.845 164.246 90.5712C162.924 89.9452 162.665 89.8982 161.32 90.7668L161.124 91.158C160.435 91.2754 160.576 90.7981 160.154 90.7668C160.201 90.4694 160.357 89.8591 160.349 89.7965C161.891 89.9373 162.642 89.9373 163.471 89.014C164.943 87.355 164.113 86.8777 162.298 86.283C162.399 86.0639 162.204 85.9231 162.298 85.6961C162.376 85.477 163.002 85.1304 163.08 84.916C163.151 84.6969 162.986 84.3424 163.08 84.135H163.471C163.503 84.1538 163.471 84.8432 163.471 84.916C163.722 85.0451 163.925 85.0443 164.05 85.3057C165.099 84.959 166.86 84.2641 166.977 83.16C167.149 81.4894 165.122 81.5308 164.05 81.5981C164.512 80.4831 164.653 79.8797 164.442 78.4775C164.911 78.3069 165.122 78.3859 165.615 78.2819C165.655 78.069 165.975 77.972 166.007 77.8922C166.359 76.8554 165.96 76.9039 166.594 76.1362C166.836 75.8311 167.259 75.6174 167.564 75.3553C167.517 75.5259 167.188 76.0329 167.173 76.1362C167.079 76.7826 167.54 76.9461 167.368 77.5009C167.306 77.6958 166.554 78.1355 166.398 78.2819C166.484 78.5323 166.398 78.9767 166.398 79.2569C167.353 79.44 167.259 80.1356 168.346 79.0628C168.691 78.7091 168.542 78.4165 168.738 77.8922C168.918 78.0072 169.309 77.8069 169.52 77.8922C169.669 77.9532 169.849 78.7083 169.911 78.8672C170.678 78.4955 171.688 78.4039 172.056 77.6965C172.142 77.5197 172.65 74.9226 172.642 74.77C172.611 74.4468 172.11 74.1471 172.251 73.4029C172.251 73.4029 173.135 71.8614 173.229 71.647C172.548 71.4647 172.392 71.215 171.664 71.0617C171.766 70.9952 171.555 70.5382 171.664 70.4764C171.946 70.3058 172.345 70.3496 172.642 70.2823C172.627 70.0632 172.509 69.1054 172.642 68.7204C172.689 68.5561 173.276 68.2517 173.417 68.1351C172.963 67.1663 172.846 66.6061 172.447 65.5998C172.861 65.3987 173.229 65.4644 173.613 65.2085C173.769 65.0997 174.02 64.4964 174.2 64.4291C174.818 64.1795 175.405 64.4166 175.952 64.2351C176.312 64.1067 176.563 63.6419 177.126 63.6482C178.331 63.6599 178.582 64.8916 178.887 65.7938C179.059 65.6905 179.536 65.3987 179.661 65.4057C179.583 64.3564 179.716 63.9346 179.857 63.0629C179.896 62.8312 179.677 62.5628 179.661 62.6732V62.0879C180.334 61.5573 180.937 61.0518 181.618 60.5268C181.54 60.148 181.712 59.7216 181.618 59.3561L181.227 58.9664C181.227 58.9664 181.047 58.6127 181.031 58.5752C180.397 58.6675 179.677 58.9602 179.075 58.7708C178.981 58.7411 178.652 58.2591 178.496 58.1855C178.949 57.4429 179.075 57.1792 179.661 56.6236C179.403 55.6001 178.722 52.7095 178.887 51.747C179.004 50.9841 180.209 50.405 180.444 49.7954C181.007 48.2531 179.959 44.7162 179.075 44.3328C178.151 43.9298 177.071 44.5652 176.156 44.1371C175.858 43.9971 175.952 43.4305 175.765 43.1621C175.358 42.6065 174.544 42.7889 174.004 42.3812C173.386 41.9109 172.721 39.5164 172.056 39.2605C171.844 39.1807 171.641 39.3818 171.469 39.2605C171.117 41.2051 171.179 41.126 169.325 41.6018C169.184 41.3459 169.137 40.9116 168.933 40.6252C168.777 40.4116 168.018 40.2402 167.955 40.0399C167.728 39.3083 168.378 38.9248 168.151 38.0899C168.065 37.7972 167.392 37.4975 167.173 37.309C167.173 37.309 167.353 36.9427 167.368 36.9177C167.846 36.9545 168.479 36.7651 168.933 36.9177C169.325 37.046 169.606 37.9608 170.107 38.0899C172.58 38.7175 172.063 36.8942 171.077 36.1375C170.42 35.6258 169.849 35.4184 169.129 34.9669ZM96.9739 86.6508C96.8252 86.6664 96.6843 86.7603 96.5435 86.6743C96.4496 86.8308 95.9409 86.9716 95.7688 87.0655C95.7766 87.1672 95.7688 89.6009 95.7688 89.6009C95.6671 89.7417 95.2758 89.8356 95.1819 89.9921C95.0958 90.1173 95.088 90.8763 94.9863 90.9624C94.6889 91.205 94.5011 91.0641 94.0081 91.158C94.2507 91.2832 93.5465 91.3928 93.4213 91.3537C93.3352 91.3224 93.2335 91.025 93.03 90.9624C93.1709 89.9373 93.4213 88.7949 92.451 88.4271C92.0597 88.2706 91.9971 88.701 91.4728 88.6227C91.3085 88.5914 90.8546 88.0671 90.6903 88.0358C89.1488 87.6994 88.4836 88.7323 87.7637 89.2096C87.5681 89.0766 87.3881 89.2878 87.1768 89.2096C86.8795 89.0922 86.676 88.3567 86.4022 88.2315C85.7136 87.9028 83.9842 88.0437 83.28 88.4271C82.3488 88.9279 82.8418 91.0172 82.3018 91.9405C82.2158 92.0814 80.9559 93.0987 80.7446 93.3021C80.5169 93.0908 79.7853 92.1988 79.5724 92.1362C77.5348 91.5493 76.2859 95.0393 75.2788 91.3537C75.1693 91.338 74.5292 91.0563 74.1082 91.158L73.9141 91.5493C73.2678 91.964 72.7302 92.8091 73.7169 93.3021C73.882 93.3804 73.4431 93.5212 73.5229 93.6934C73.0964 93.8029 72.5839 94.1629 72.1566 94.0846C71.6574 93.9829 71.7176 93.1221 70.5963 93.3021C70.3216 93.3491 68.9624 94.6402 68.8403 94.6715C68.4068 94.7654 67.4983 94.5463 66.8888 94.4759L66.6947 95.0628C65.1516 95.4618 66.8215 94.2724 67.0844 94.0846C67.0288 93.7873 66.877 93.1769 66.8888 93.1065C66.1023 92.9891 65.8715 93.0282 65.1344 92.9187C65.0788 93.1691 64.9012 93.1769 64.7431 93.3021C64.9435 94.1003 64.9388 94.4367 65.1344 95.0628C64.6398 95.2897 63.981 95.1801 63.7673 95.6496C63.578 96.0331 63.6022 97.1208 63.5717 97.4025C63.175 97.2773 63.1828 97.7155 62.7923 97.5981C62.5357 97.5198 62.3893 96.7295 62.0114 96.6199C60.9926 96.3148 60.0723 96.5652 59.0848 96.4243C58.926 98.3884 58.0183 99.6561 57.1348 100.916C57.0432 100.845 56.6403 100.916 56.5495 100.916C56.1402 100.047 56.1958 100.219 55.9642 98.9596C55.6347 98.8736 55.6582 99.1083 55.5729 98.7718C55.371 98.8736 55.0009 98.6936 54.7935 98.7718C54.7012 98.7953 54.6026 99.0848 54.4023 99.1553C54.4023 99.1631 54.4211 100.071 54.5979 99.7422C54.5486 99.93 54.4023 100.525 54.4023 100.525C53.9508 100.595 53.4578 100.376 53.0376 100.525C52.7567 100.619 52.5305 101.378 52.2566 101.503C50.8294 102.121 49.5852 101.299 48.5483 100.916C48.1336 101.479 47.8417 101.589 47.5733 102.473C47.5796 102.324 47.6469 101.166 47.5733 100.916C47.5366 100.799 47.2142 100.767 47.1836 100.525C46.9035 100.626 46.481 100.423 46.2071 100.525C46.0545 100.572 45.6961 100.955 45.4277 101.112C45.2391 100.986 45.0372 100.431 44.8424 100.329C44.5615 100.18 42.5363 99.8048 42.1099 99.9378C42.0731 99.9456 41.9518 100.29 41.9158 100.329C40.7749 101.331 41.3657 101.096 41.5246 102.277L41.7202 103.06C41.7257 103.052 42.6349 103.037 42.3055 102.864C42.5309 102.864 42.8548 102.88 43.0864 102.864C43.0864 102.927 43.0559 103.631 43.0864 103.647C42.6232 103.553 42.7633 103.929 42.3055 103.842C42.1466 103.811 41.6826 103.091 41.5246 103.06C40.9212 102.935 38.8304 103.592 38.4031 103.842C38.2083 103.952 38.3476 104.289 38.2075 104.429C37.9704 104.648 37.5377 104.625 37.2325 104.821C37.1049 104.891 36.9649 105.353 36.8428 105.4C36.727 105.447 36.3616 105.345 36.2575 105.4C36.1166 105.04 35.964 105.408 35.8662 105.204C35.7872 105.048 35.8662 104.594 35.8662 104.429C35.5251 104.343 35.7575 104.351 35.6722 104.038C35.331 104.038 34.8185 104.132 34.5015 104.038C34.0688 104.641 33.586 105.454 32.9397 105.791C31.9952 106.276 29.7697 106.386 29.2337 107.16C29.0263 107.442 29.24 107.645 29.0381 107.943C28.6961 107.818 28.8855 108.154 28.8424 108.326C28.3424 108.178 28.8424 108.913 28.8424 108.913C29.355 109.07 29.4763 108.71 30.0131 108.718C30.0131 108.741 30.0068 109.297 30.0131 109.304C29.5318 109.445 29.5741 109.367 29.0381 109.5C29.3307 109.703 28.4887 109.68 28.4528 109.696L28.2571 108.718C28.1225 108.639 27.3369 108.827 27.2821 108.718C27.1178 108.397 27.2821 107.528 27.2821 107.16C25.1905 106.691 25.8611 106.824 24.9401 108.522C24.9041 108.584 24.3548 109.093 24.3548 109.109C24.1967 109.805 24.6427 110.423 24.5504 110.869C24.5019 111.073 24.0324 111.253 23.9651 111.448C23.728 111.347 23.2514 111.448 22.9885 111.448C23.0198 110.901 23.0746 110.674 23.1841 110.087C23.0135 109.954 22.8375 109.97 22.7944 109.696C22.4227 109.711 21.4297 109.891 21.4297 109.891C21.4164 109.907 20.8734 110.048 20.8429 110.087C20.569 110.345 20.7216 111.175 20.4532 111.448C20.0627 111.832 19.2943 111.683 18.8913 112.035C18.7567 112.145 18.8913 112.536 18.6972 112.622C18.4226 112.724 17.9891 112.513 17.7207 112.622C17.9218 112.521 17.3325 112.231 17.3325 112.231C17.3677 112.168 17.7207 111.644 17.7207 111.644C18.4155 111.433 19.0994 111.542 19.4782 111.065C19.5142 111.01 19.8679 110.478 19.8679 110.478C19.9344 110.181 19.6722 109.304 19.6722 109.304C17.8247 109.304 16.7574 109.523 15.7706 110.869C15.6055 111.081 15.6055 111.542 15.381 111.644C14.7831 111.91 14.1 111.558 13.6242 111.84C13.3746 111.981 12.6367 114.305 12.8433 114.962C12.8863 115.095 13.3316 115.338 13.4286 115.549C13.7823 115.549 14.2463 115.463 14.5992 115.549C14.5742 115.588 14.3613 115.924 14.4036 115.94C12.9106 116.198 12.8613 116.527 12.258 117.693C10.3126 117.693 10.0083 117.849 9.52701 119.258V119.649C9.13028 119.962 8.38048 119.743 7.96512 120.033C7.00819 120.698 7.77098 123.429 7.77098 125.111C8.61813 125.338 9.82546 125.737 10.1124 126.473C10.1914 126.684 9.98392 126.864 10.1124 127.06C9.65472 127.38 7.07533 129.665 6.99004 129.986C6.80709 130.604 7.13113 131.019 7.18567 131.551C7.4417 131.535 7.83194 131.841 8.35638 131.747C8.77173 131.661 8.86829 131.136 9.13576 130.964C9.14264 130.964 10.0032 131.269 9.72264 131.355C9.84377 131.442 10.2407 131.606 10.308 131.747C10.5278 132.185 10.3502 132.514 10.502 133.108C10.2336 133.155 10.2156 133.484 10.1124 133.695C9.89862 133.593 9.66684 133.155 9.52701 133.108C9.11244 132.967 8.58753 133.171 8.16075 133.108C7.95339 133.742 7.28372 134.908 7.38129 135.644C7.3935 135.769 7.9285 136.144 7.96512 136.23C8.25856 136.888 7.91058 136.903 7.96512 137.592C7.7155 137.467 7.80807 137.897 7.38129 137.788C7.33247 137.78 7.16071 137.443 6.99004 137.404C7.76394 137.107 5.89899 137.107 6.40465 137.209L6.21058 137.983C6.99098 138.461 8.41084 138.805 8.94169 139.548C9.23357 139.963 9.14249 140.597 9.52701 140.91C10.1366 141.419 10.8917 141.121 11.0873 142.084C11.3064 143.203 10.5325 143.523 10.6976 144.423C10.7829 144.916 11.6734 145.198 11.8683 145.597C12.0138 145.902 12.2392 146.998 12.258 147.154C12.337 148.031 12.0326 150.222 12.4536 151.255H12.6492C13.2338 151.544 13.6602 152.624 14.2095 152.812H14.5992C14.697 152.898 14.661 153.328 14.7949 153.399C15.2284 153.618 15.7088 153.344 16.1603 153.594C16.5203 153.798 18.0994 156.02 17.3325 156.717C18.3013 157.476 20.2638 157.976 20.0619 159.839C20.0557 159.839 19.5502 160.645 19.4782 160.817C19.7207 160.684 19.6292 161.114 20.0619 161.013C20.2755 160.958 20.3311 160.441 20.4532 160.23C20.6058 160.23 21.0987 160.308 21.2325 160.23C21.6418 160.621 23.2272 161.811 21.8179 162.178C21.6778 162.006 21.4282 161.466 21.2325 161.404C21.0134 161.318 20.6551 161.49 20.4532 161.404C20.3554 161.592 20.0197 161.85 19.8679 161.983C19.8679 161.983 19.8679 162.695 20.0619 162.374C20.1957 162.82 20.1488 162.695 20.2591 163.157C20.6496 162.969 20.4532 164.518 20.4532 164.518C21.6301 164.135 22.0518 164.033 23.3797 164.135C23.4111 164.064 23.537 163.743 23.5738 163.743C23.7514 163.689 24.5324 163.884 24.3548 163.939C24.6482 164.432 24.9886 164.862 25.3298 165.301C24.4338 165.567 23.3923 165.598 23.1841 166.474C23.1544 166.568 23.2334 166.967 23.1841 167.061C23.0621 167.257 22.4775 167.421 22.4032 167.64C22.2999 167.914 22.501 168.337 22.4032 168.619C22.7569 168.446 23.0574 168.603 23.3797 168.423C23.7397 168.212 24.0198 167.515 24.3548 167.249C25.0136 166.717 25.6592 166.427 26.3063 165.888C26.7571 166.545 27.2939 167.468 27.8674 168.032C28.1053 168.274 28.9105 168.509 29.0381 168.814C29.2634 169.378 28.8002 169.534 28.8424 169.98L29.2337 170.567C29.5201 171.999 29.3135 171.639 29.819 172.719C30.0326 172.633 30.373 172.774 30.5984 172.719C31.1344 172.57 31.7268 171.702 32.1603 171.349C33.6298 172.68 34.867 173.744 37.2325 172.523C37.1049 173.681 36.9774 174.824 38.0134 175.254C38.3249 175.379 38.6105 175.199 38.7928 175.45C38.9274 175.63 39.2874 176.984 39.3781 177.203C41.5918 176.874 42.1772 177.14 43.6718 177.985C43.9707 177.797 44.7688 176.921 45.2321 177.007C45.2321 177.007 45.0787 177.954 45.0364 178.181C45.1765 178.275 46.1273 178.822 46.2071 178.955C46.3659 179.261 46.1273 179.785 46.2071 180.129C46.2806 180.466 47.1406 181.084 47.1836 181.303C47.2627 181.749 46.8965 182.023 46.7924 182.469C47.3292 182.352 48.1469 181.984 48.744 182.085C49.2933 182.172 49.708 183.001 50.1102 183.251C50.4217 183.447 50.7378 183.244 51.0852 183.447C51.6158 183.752 52.5978 185.802 52.842 186.569C53.5791 186.327 54.9328 185.982 55.7685 185.982C56.0119 185.975 56.4329 186.374 56.9392 186.178V185.982C57.2561 185.818 57.2866 185.364 57.5245 185.2C57.8414 184.981 58.127 185.2 58.4995 185.012C59.0848 186.945 58.3164 186.241 60.2554 186.765C60.2977 186.694 60.5669 186.201 60.6467 186.178C60.8666 186.092 61.0184 186.288 61.232 186.178C61.3963 186.311 61.628 186.859 61.8173 186.96C62.3596 187.25 63.9324 187.273 64.5483 187.352C64.6156 187.79 64.3957 188.291 64.5483 188.713C64.8472 189.543 68.4687 190.216 69.6213 190.474C69.7066 190.81 69.5297 191.1 69.6213 191.444C69.6268 191.476 71.3225 193.174 71.3772 193.205C73.0909 193.98 73.1449 192.657 73.9141 192.422C75.4744 191.937 76.0472 192.868 76.6443 193.205C76.962 193.377 77.2601 193.228 77.6209 193.401C77.7296 193.111 77.944 193.134 78.2062 193.009C78.0536 191.914 78.1084 191.319 78.0121 190.67C78.322 190.748 78.4801 190.56 78.7915 190.474C78.9621 190.771 79.4433 191.906 79.7665 192.031C80.8698 192.446 82.3175 191.663 83.0843 191.64C84.3911 191.585 84.5633 192.07 85.2284 192.618C87.0595 191.812 87.216 192.571 89.3288 192.227C89.5244 192.188 90.3851 191.656 90.4947 191.64C91.1755 191.53 91.8328 191.906 92.2553 191.836C92.4353 191.796 92.8266 191.343 93.03 191.249C92.9439 190.904 93.1161 190.615 93.03 190.278C93.0144 190.2 91.0816 187.438 93.6169 188.126C93.703 188.15 94.0551 188.682 94.2038 188.713C94.6029 188.784 94.8063 188.486 94.9863 188.518C94.775 188.361 95.1428 187.68 95.1819 187.547C94.9628 187.43 95.0958 187.203 94.9863 187.156C94.642 186.984 94.3368 187.039 94.0081 186.96C94.0316 186.561 93.7969 186.374 93.8125 186.178C93.8673 185.482 95.0489 185.122 95.3775 184.621C95.6201 184.23 95.5106 183.666 95.7688 183.251C96.0583 182.751 98.3589 181.749 99.2744 181.89C99.3683 181.898 99.8222 182.453 99.8613 182.469C100.065 182.539 100.456 182.359 100.644 182.469C100.91 182.625 101.137 183.33 101.426 183.447C101.567 183.502 101.857 183.345 102.013 183.447C102.178 181.24 102.091 181.749 103.766 181.694C103.743 182.211 103.883 182.938 103.766 183.447C103.75 183.463 103.21 183.807 103.179 183.838C103.531 185.153 103.101 184.769 103.962 185.591C103.75 185.654 103.656 185.951 103.57 185.982C103.265 186.084 102.905 185.896 102.592 185.982C102.905 186.1 101.849 186.17 101.818 186.178C101.763 186.037 101.731 185.755 101.622 185.591C100.652 184.151 100.894 184.23 98.4997 184.23C98.3667 184.605 98.3589 185.247 98.1085 185.591C97.8894 185.873 97.2086 185.935 96.9347 186.178C96.6452 186.436 96.7548 186.366 96.5435 186.765C96.5513 186.765 96.5435 187.32 96.5435 187.352C96.6765 187.352 97.2086 187.266 97.326 187.352C97.3182 187.414 97.4668 188.025 97.5216 188.322C96.5591 188.322 97.592 189.856 97.7172 190.083C97.0756 190.584 96.5435 191.1 95.9644 191.64C96.0661 191.984 96.207 192.062 96.16 192.422C98.1867 193.612 98.5858 193.401 99.6657 191.444C99.7987 191.601 100.315 191.656 100.448 191.836C100.62 192.07 100.487 192.368 100.644 192.618C101.426 193.894 102.381 193.275 103.375 192.814C103.21 191.335 103.343 191.076 103.57 190.083C103.758 190.192 104.142 189.989 104.353 190.083C104.642 190.2 104.908 191.139 105.323 191.249C106.794 191.616 107.006 190.505 107.671 190.083C108.007 189.856 108.289 190.059 108.641 189.887C108.985 189.707 109.314 189.136 109.619 188.909C109.776 188.979 110.042 188.87 110.206 188.909C110.511 188.979 110.754 189.582 110.981 189.691C111.646 189.997 112.014 189.731 112.741 189.691C112.773 189.558 113.117 189.144 113.133 189.105C113.399 188.048 112.53 187.532 113.328 186.96C113.524 187.054 113.884 186.882 114.103 186.96C114.408 187.062 114.463 187.766 114.69 187.931C115.738 188.698 116.591 187.931 117.421 187.547C117.397 186.968 117.421 186.358 117.421 185.787C116.975 185.607 115.817 185.255 115.668 184.816C115.59 184.589 115.762 184.237 115.668 184.034C116.177 184.175 116.098 183.713 116.646 184.034C117.288 184.41 116.904 185.302 118.203 185.2C118.97 185.145 119.69 184.292 119.956 183.643C119.956 183.643 120.441 183.384 120.152 183.251C119.831 183.103 119.455 182.485 119.573 181.89C119.581 181.796 120.097 181.561 120.152 181.499C120.613 180.888 120.512 180.411 120.739 179.542C120.566 179.409 120.394 179.425 120.347 179.151C120.285 179.151 119.815 179.19 119.76 179.151V178.572C122.437 179.808 122.726 178.713 125.23 177.985C125.285 177.633 125.246 176.874 125.426 176.42C125.504 176.193 126.122 175.927 126.201 175.645C126.31 175.254 126.122 174.871 126.201 174.472C126.028 174.331 125.872 174.346 125.809 174.08C125.551 174.08 125.066 174.182 124.839 174.08C124.706 174.018 124.526 173.345 124.448 173.298C124.628 173.298 124.902 173.001 125.035 172.907C126.114 173.634 125.692 173.54 127.179 173.494C127.132 173.024 127.413 173.181 127.374 172.719C127.351 172.515 126.803 172.015 126.787 171.936C126.654 171.248 127.1 171.068 127.179 170.763C127.265 170.387 127.077 169.957 127.179 169.597C127.288 169.174 127.906 168.783 128.157 168.423C128.071 168.282 128.18 167.977 128.157 167.836C128.047 167.39 127.155 167.085 126.787 166.866C127.265 165.23 127.859 164.706 128.157 162.765C127.992 162.726 127.633 162.39 127.57 162.374C126.396 162.116 125.825 163.297 125.23 163.743C125.121 163.814 124.902 164.221 124.839 164.323C124.753 163.931 124.62 163 124.448 162.374C124.401 162.218 123.884 161.756 123.861 161.592C123.673 160.433 124.815 160.277 125.035 159.448V159.252C124.995 159.401 124.792 158.681 124.839 158.469C124.902 158.156 126.435 155.472 125.621 154.964C124.456 154.228 123.751 155.378 123.078 155.543C122.961 155.566 122.593 155.496 122.499 155.543C122.444 155.332 122.131 155.238 122.108 155.159C121.889 154.541 122.108 153.469 122.108 152.812C122.21 153.172 122.304 152.616 122.304 152.616C121.631 151.153 121.772 151.521 120.152 151.646C119.98 152.319 119.573 154.823 118.986 155.159C118.516 155.41 117.875 155.152 117.421 155.355C117.335 155.386 116.873 155.926 116.834 155.934C116.411 156.028 116.263 155.691 116.059 155.738C116.286 155.738 115.864 155.159 115.864 155.159C115.809 154.447 116.584 153.234 116.646 152.812C116.74 152.037 116.349 151.38 116.255 150.863L116.45 150.277C116.81 150.355 117.249 150.159 117.616 150.277C118.532 150.582 118.219 152.327 119.76 151.646C121.302 150.957 120.379 149.291 119.956 148.328C118.931 148.406 118.493 148.391 117.616 148.524C118 147.201 117.875 147.334 117.616 146.176C117.436 146.153 116.975 145.934 116.646 145.793C116.646 145.793 115.347 147.053 115.668 147.154C116.505 147.413 116.051 149.643 115.668 150.277C115.378 150.738 114.432 151.036 113.907 151.255C114.056 148.758 113.837 149.291 115.472 147.741C115.238 147.021 115.292 146.841 115.081 146.176C115.183 146.098 115.613 145.902 115.668 145.793C115.84 145.409 115.504 145.214 115.864 145.01C115.864 145.01 115.504 143.993 115.472 143.836C115.668 143.962 116.051 143.907 116.255 144.032C116.372 144.11 116.521 144.58 116.646 144.619C116.857 144.689 117.585 144.47 117.421 144.423C117.46 144.306 117.969 144.142 118.008 144.032C118.211 143.445 117.804 142.475 118.008 141.888C118.156 141.458 119.213 141.638 118.986 140.331C118.908 139.885 118.117 139.439 117.812 139.157C118.399 137.889 118.399 138.398 118.008 137.209C117.718 136.324 117.468 135.385 116.646 135.057C114.51 134.219 114.228 135.425 114.494 137.209C114.353 137.31 113.563 137.647 113.516 137.788V138.179H113.133C112.984 137.655 113.094 137.287 112.741 137.013L112.546 136.817C112.64 136.723 112.491 136.356 112.546 136.23H112.741C113.493 135.855 113.798 135.112 114.299 134.478C112.381 134.126 112.381 133.265 111.763 131.16C112.225 130.933 113.219 130.197 113.72 130.182C114.752 130.135 114.51 130.722 114.885 130.964C115.238 131.183 115.48 130.925 115.864 131.16C116.106 130.988 116.372 130.698 116.646 130.573C116.497 130.002 116.701 129.61 116.45 129.204C116.419 129.164 115.668 128.812 115.668 128.812C115.48 128.085 116.208 128.1 116.059 127.255C115.981 126.817 115.292 126.582 115.081 126.277C114.909 126.027 115.034 125.737 114.885 125.494C114.549 124.947 113.696 124.649 113.133 124.329C113.219 123.953 113.023 123.523 113.133 123.155C113.195 122.944 113.876 122.466 113.907 122.184C114.017 121.097 112.882 120.518 112.155 120.228C111.755 120.072 112.694 119.798 112.937 119.837L113.328 120.228C115.058 120.69 114.737 119.015 114.69 118.084C114.439 118.037 114.408 117.732 114.299 117.693C113.352 117.364 112.115 118.444 111.568 118.671L111.176 118.084C111.215 117.967 111.724 117.802 111.763 117.693C111.873 117.364 111.763 116.871 111.763 116.527C112.061 116.652 111.873 116.206 112.35 116.331C112.428 116.347 112.64 116.848 112.741 116.91C113.735 117.529 114.142 117.043 114.885 116.527C114.087 114.539 114.072 113.765 111.763 114.962C111.795 114.938 111.763 114.414 111.763 114.375C112.538 114.039 112.921 114.093 113.328 113.405C113.375 113.311 113.61 113.256 113.72 113.209C113.626 112.998 113.79 112.638 113.72 112.427C113.587 112.043 112.835 111.675 112.741 111.253C112.491 110.126 112.914 109.289 112.741 108.131C112.929 108.24 113.125 107.802 113.516 108.131C113.939 108.483 113.579 110.095 113.516 110.869C113.892 110.807 114.228 111.112 114.885 110.869C114.948 110.838 115.026 110.486 115.081 110.478C115.097 110.298 115.637 109.97 115.472 109.304C115.457 109.257 115.058 108.858 115.081 108.718C115.12 108.436 115.95 108.24 115.864 107.16C115.809 106.519 115.152 106.706 115.472 105.791C115.488 105.736 115.989 105.306 116.059 105.204C116.059 105.204 116.012 104.703 115.864 105.008C115.738 104.946 115.652 104.296 115.472 104.234C115.073 104.085 114.338 104.234 113.907 104.234V103.842H114.103C114.134 103.702 114.197 102.95 114.299 102.864C115.136 102.121 116.044 102.95 117.03 102.669C117.147 102.637 117.429 102.168 117.616 102.082C117.616 101.91 117.538 101.464 117.616 101.307C116.967 100.509 116.411 100.071 115.472 99.5465C115.472 99.3039 115.59 98.5762 115.472 98.3806C115.238 97.9972 114.854 98.2554 114.494 97.9893C114.048 97.6607 113.86 96.6043 113.72 96.0331C113.5 95.9861 113.407 95.6731 113.328 95.6496C110.895 94.8045 111.802 97.6294 112.155 98.5762C111.81 98.6858 111.795 98.584 111.568 98.7718C110.816 99.3666 110.91 99.2883 109.815 98.9596C109.956 98.7249 109.408 98.6936 109.619 98.5762C110.715 97.9111 110.261 96.6591 110.206 95.0628L110.793 94.8671C111.771 93.1378 110.973 93.2473 109.228 93.3021C109.361 95.2662 109.643 94.7106 108.062 95.0628C107.037 93.576 106.646 93.3021 104.744 93.3021C104.666 93.4664 104.509 94.0533 104.353 94.2802C104.423 94.3976 104.908 94.7889 104.94 94.8671C104.83 94.9376 104.94 95.6966 104.94 95.8453C104.392 95.947 104.165 95.8531 103.766 96.0331C103.476 94.9297 103.265 93.2473 102.788 92.3318C103.359 91.8701 103.735 91.5806 104.157 90.9624C103.993 90.6964 104.024 90.2582 103.962 89.9921C103.829 89.9608 102.96 89.8512 103.179 89.9921C102.584 90.3051 102.553 90.0391 102.201 90.5712C102.115 90.6964 101.825 91.6197 101.818 91.7449C101.591 91.6901 101.043 91.5415 101.035 91.5493C100.918 91.3928 100.8 91.0641 100.644 90.9624C100.433 91.1033 100.323 90.6259 100.253 90.5712C101.708 89.7573 101.747 90.0156 101.426 88.4271C101.176 88.388 101.145 88.075 101.035 88.0358C100.792 87.9498 100.12 88.1923 100.253 88.2315H99.8613C99.5718 88.3332 99.6031 89.0922 99.2744 89.2096C99.0631 89.2722 98.6954 89.1 98.4997 89.2096C98.2572 88.3019 97.905 86.9716 97.1304 86.6743C97.0756 86.6508 97.0286 86.6508 96.9739 86.6508ZM178.496 96.0331C178.331 96.2835 177.815 96.4948 177.713 96.8156C177.705 96.8312 177.854 97.379 177.909 97.5981C177.697 97.6372 177.596 97.958 177.517 97.9893C177.009 98.1615 176.336 98.1145 175.952 98.185C175.812 100 175.287 100.83 175.373 102.277C174.591 100.822 174.043 100.939 172.838 101.886C172.65 101.659 172.502 101.057 172.251 100.916C171.617 100.564 168.832 100.744 167.76 100.525C167.713 100.736 167.392 100.83 167.368 100.916C167.118 101.628 167.368 102.88 167.368 103.647C167.337 103.655 166.977 103.842 166.977 103.842C166.844 103.545 166.617 103.451 166.398 103.256C166.899 101.581 166.453 99.3509 164.442 100.72C164.191 100.885 164.27 101.495 164.05 101.698C163.863 101.871 163.284 101.996 163.08 102.082C163.221 102.63 163.025 102.997 163.276 103.451C163.651 104.14 165.342 104.038 165.615 104.821C165.733 105.141 165.49 105.454 165.615 105.791C165.545 105.791 165.076 105.752 165.029 105.791C164.418 105.235 164.199 104.883 163.863 104.038C163.205 103.944 162.118 104.077 161.32 103.842C161.257 103.819 160.858 103.271 160.74 103.256C160.005 103.138 159.747 103.717 158.98 103.451C158.894 103.42 158.792 103.099 158.589 103.06C159.614 102.473 159.528 102.575 159.371 101.112L158.784 100.916C158.62 101.143 158.338 101.104 158.197 101.307C158.088 101.471 158.143 102.168 158.009 102.277C157.54 102.645 156.851 102.199 156.444 102.864C156.272 103.138 155.936 104.711 155.858 105.008C152.086 103.905 153.487 106.753 151.178 106.769C151.178 106.769 150.693 106.589 150.591 106.573V106.182C150.857 106.088 151.288 106.182 151.569 106.182C151.476 106.12 151.734 105.846 151.765 105.791C151.569 105.634 151.468 105.689 151.374 105.4C150.583 105.259 149.402 104.907 148.838 105.008C148.471 105.071 147.97 105.807 147.665 105.987C146.937 106.409 146.147 106.378 145.325 106.769C145.176 106.832 144.926 107.309 144.738 107.356C144.081 107.473 143.924 106.973 143.369 107.16C143.306 107.176 143.032 107.669 142.985 107.747C142.281 108.631 142.445 109.062 142.985 110.087C142.531 110.196 142.101 110.298 141.42 110.478C141.514 110.267 141.342 109.907 141.42 109.696C141.444 109.625 141.937 109.351 142.007 109.304C141.882 108.968 142.125 108.655 142.007 108.326C141.96 108.217 141.506 107.935 141.42 107.747C141.021 107.912 140.583 107.872 140.247 107.943C140.16 108.718 139.949 110.079 139.863 110.869C139.253 110.869 139.308 110.783 138.689 110.869C138.791 111.143 138.588 111.558 138.689 111.84C138.791 112.145 139.746 112.442 140.059 112.622C140.051 112.654 139.98 113.71 139.863 113.405C139.738 113.6 139.941 113.765 139.863 113.984C139.816 114.093 139.378 114.391 139.276 114.571H138.885C138.595 113.952 138.462 113.491 138.102 113.013C137.226 111.848 137.383 112.536 135.958 112.035C135.896 112.012 135.622 111.472 135.567 111.448C135.231 111.331 134.918 111.566 134.589 111.448C134.487 111.66 134.049 111.887 134.01 112.035C133.822 112.599 134.049 113.17 133.814 113.6C133.423 114.273 132.492 114.007 131.858 114.375C131.099 114.813 130.7 116.527 130.497 117.497C128.939 116.77 129.894 116.77 128.352 117.497C128.415 117.834 128.251 117.943 128.157 118.28C128.963 118.859 128.986 118.914 129.91 119.062C129.839 119.086 129.87 119.774 129.714 119.837C129.487 119.939 128.994 119.837 128.736 119.837C128.626 120.064 128.196 120.416 128.157 120.619C127.969 121.41 128.501 122.216 128.548 122.764C128.572 123.155 128.329 123.343 128.352 123.546H127.961C127.554 123.405 127.194 122.294 126.787 122.184C126.161 121.997 126.099 122.396 125.621 122.38C125.121 124.062 124.988 123.929 126.201 124.915C125.809 125.268 126.287 127.459 126.396 128.233C126.107 127.944 125.723 127.732 125.426 127.451C125.825 127.451 124.354 127.286 124.839 127.451C124.612 127.639 124.276 127.451 124.056 127.646V128.038C123.446 129.79 124.604 130.002 125.23 131.551C125.16 131.606 125.262 132.044 125.23 132.13C125.128 132.373 124.189 132.647 124.056 132.913C123.963 133.093 124.088 133.492 124.056 133.695C124.017 133.875 123.485 134.611 123.47 134.673C123.376 135.041 123.556 135.464 123.47 135.839C123.822 136.144 124.573 136.63 124.839 137.013C125.05 137.326 124.972 137.733 125.23 137.983C125.504 138.257 125.966 138.249 126.201 138.57C126.78 139.361 127.28 141.387 127.57 142.475C127.859 142.538 128.259 142.491 128.548 142.671C128.462 142.741 128.407 143.171 128.352 143.257C128.165 143.508 127.515 143.586 127.374 143.836C127.022 144.439 127.445 145.965 127.374 146.959C127.734 147.107 127.468 146.974 127.57 147.35C128.352 147.373 128.783 147.483 129.714 147.35C129.628 147.561 129.769 147.906 129.714 148.132C129.542 148.751 128.407 149.197 129.127 150.277C129.237 150.433 129.855 150.488 129.91 150.668C130.184 151.599 129.252 152.115 130.105 152.616C130.34 152.757 131.185 152.953 131.467 153.007C131.389 153.704 131.068 154.627 131.467 155.355C131.537 155.472 132.022 155.613 132.054 155.738C132.179 156.2 131.874 156.865 132.054 157.303C132.101 157.413 132.343 157.397 132.445 157.499C132.969 157.961 133.478 157.89 134.01 158.282C134.198 158.422 134.065 158.634 134.206 158.861C134.965 160.097 136.005 159.408 136.937 158.861C136.827 160.222 136.772 160.731 136.545 161.983C136.686 162.022 137.711 162.272 137.516 162.178C138.056 161.826 138.682 161.952 138.885 161.2C138.932 160.997 138.783 160.598 138.885 160.426C138.987 160.238 139.589 160.347 139.667 160.23C139.738 160.387 139.621 160.653 139.667 160.817C139.699 160.934 140.231 161.341 140.247 161.404C140.317 161.709 139.988 162.523 140.059 162.57C139.934 162.609 139.691 162.898 139.667 162.961C139.699 162.992 139.667 163.493 139.667 163.548C140.63 163.97 140.888 164.096 142.398 163.939C142.398 164.049 142.32 164.862 142.398 164.909C142.242 165.144 141.843 165.301 141.616 165.496C141.679 165.676 141.616 166.083 141.616 166.279C141.898 166.388 141.874 166.6 142.007 166.866C143.071 166.662 143.142 166.678 143.76 166.279C143.948 166.154 144.613 165.872 144.738 165.692C145.082 165.191 144.816 164.62 145.325 164.323C145.568 164.182 146.014 164.401 146.303 164.323L146.687 163.939C147.704 163.697 147.336 164.017 148.056 164.135C147.954 164.448 148.056 164.964 148.056 165.301C147.516 165.496 146.945 165.7 146.499 165.888C146.53 166.208 146.687 167.249 146.687 167.249C146.992 167.296 147.305 167.554 147.86 167.445C148.126 167.39 148.572 166.827 148.838 166.67C150.051 165.895 150.748 166.365 152.156 165.888C152.235 165.856 152.328 165.535 152.54 165.496C152.454 165.066 152.72 164.518 152.54 164.135H152.352C151.992 164.135 151.632 163.689 151.374 163.548C151.374 163.188 151.452 162.726 151.374 162.374C151.546 162.225 151.656 161.787 151.961 161.787H152.156C152.516 162.139 152.986 163.008 153.518 163.157C153.737 163.211 154.081 163.071 154.3 163.157C154.066 163.869 154.144 164.143 153.909 164.909C154.613 165.215 155.779 165.872 156.836 165.301C157.783 164.784 157.117 164.025 157.031 163.548C156.937 163.039 157.25 162.82 157.227 162.57C158.526 162.491 159.629 162.288 160.936 161.787C160.991 161.756 161.069 161.412 161.124 161.404H161.515C161.805 160.926 161.492 160.277 161.711 159.643C161.852 159.221 162.509 159.001 162.689 158.665C162.892 158.274 162.712 158.07 162.885 157.695C163.722 157.726 165.514 157.804 166.398 157.303C166.789 157.069 167.001 156.396 167.368 156.13C167.54 155.997 167.752 156.2 167.955 156.13C169.223 155.637 168.362 154.369 167.955 153.79C168.636 153.61 169.896 153.414 170.107 152.812C170.209 152.499 169.951 151.92 170.107 151.646H170.303C171.077 151.247 171.633 150.464 172.251 149.885C172.447 149.979 172.807 149.807 173.026 149.885C173.503 150.05 173.613 151.059 174.786 150.668C174.927 150.621 175.154 150.183 175.373 150.081C175.186 149.784 175.358 149.361 175.178 149.103C175.084 148.985 174.098 148.563 174.004 148.328C173.918 148.117 174.129 147.929 174.004 147.741C175.843 147.256 176.187 147.342 175.952 145.206C176.618 144.791 177.251 144.682 177.909 144.228C178.112 144.087 178.065 143.797 178.3 143.641C178.159 142.733 177.924 141.512 178.691 141.106C180.115 140.346 180.561 141.559 181.227 141.692C182.04 141.849 182.142 141.387 182.588 141.301C182.541 140.832 182.831 140.988 182.784 140.526C182.768 140.339 182.353 139.9 182.392 139.548C182.4 139.454 182.964 139.001 182.979 138.961C183.065 138.727 182.87 138.586 182.979 138.375C182.666 138.234 182.142 137.975 181.806 137.788C182.377 136.559 182.306 136.137 181.806 134.861C182.447 135.213 183.065 135.55 183.762 135.839C183.715 135.847 184.74 135.855 184.928 135.839C185.076 135.503 185.671 133.656 185.906 133.5C186.407 133.14 187.134 133.429 187.659 133.108C188.073 132.85 187.831 132.005 187.659 132.13C187.745 131.817 187.557 131.457 187.659 131.16C187.69 131.074 188.011 130.972 188.05 130.769C189.592 130.886 189.818 130.769 190.781 130.377C190.937 128.977 190.945 128.39 190.006 127.646C189.905 127.568 189.458 127.365 189.419 127.255C189.271 126.833 189.49 126.332 189.419 125.886C189.732 125.8 189.732 126.05 189.811 125.69C190.131 125.831 190.46 125.549 190.781 125.69C191.031 125.8 190.945 126.52 191.172 126.668C192.322 127.451 193.778 126.911 194.099 125.886C194.334 125.135 193.997 125.15 193.903 124.524H193.52L193.708 122.959C193.019 123.006 192.909 122.99 192.542 122.959C192.416 122.623 192.659 122.317 192.542 121.989C192.495 121.856 192.033 121.715 191.955 121.598C191.751 121.261 191.931 120.995 191.759 120.619C191.978 120.502 192.111 120.087 192.346 120.033C192.471 120.001 192.8 120.119 192.933 120.033C193.293 119.774 193.496 118.812 193.903 118.671C194.341 118.507 195.186 118.687 195.664 118.671C195.969 117.615 196.321 116.77 196.642 115.94C196.493 115.838 196.431 115.259 196.251 115.158C195.867 114.938 195.366 114.954 195.077 114.766C193.934 114.039 196.36 113.467 196.83 113.013C197.018 112.826 196.83 112.411 197.033 112.231C196.814 112.184 194.373 111.691 194.294 111.644C194.193 111.581 193.629 110.118 193.52 109.891C194.49 109.57 194.615 109.367 195.273 108.913C194.983 108.655 195.006 108.178 194.686 107.943C194.412 107.732 194.24 107.841 193.903 107.747C193.911 107.708 193.762 107.027 193.708 106.769C194.318 106.48 194.756 106.284 195.273 105.987C195.171 105.705 195.366 105.29 195.273 105.008C195.226 104.883 194.764 104.735 194.686 104.625C194.427 104.202 194.263 103.451 194.099 103.06C193.997 103.381 193.903 102.473 193.903 102.473C194.74 101.988 194.13 100.845 193.128 100.916L192.737 101.307C192.362 101.487 192.088 101.55 191.759 101.698C191.751 101.73 191.736 102.966 191.759 102.864C191.876 103.107 192.252 103.263 192.346 103.451C192.542 103.866 192.416 104.257 192.542 104.625C192.111 104.242 191.767 104.038 191.368 103.647C191.031 103.764 190.726 103.522 190.39 103.647C190.147 103.725 189.85 104.539 189.615 104.625C189.279 104.735 188.965 104.5 188.637 104.625L188.441 104.234C188.347 104.531 188.246 103.49 188.246 103.451C188.293 103.412 188.817 103.107 188.832 103.06C188.973 102.567 188.598 102.317 188.637 102.082H188.246C187.987 102.168 187.737 103.076 187.471 103.256C187.338 103.342 187.017 103.216 186.884 103.256C186.751 103.287 186.242 103.796 186.102 103.842C184.928 104.21 183.864 104.234 182.392 104.234C182.048 104.954 182.072 104.93 181.806 105.987C181.782 105.987 181.227 105.979 181.227 105.987C181.18 105.517 181.031 104.594 181.031 103.842C181.469 103.686 181.633 103.749 182.197 103.647C182.134 102.77 182.134 101.722 181.806 100.72C182.729 100.892 182.823 101.01 183.762 100.72L183.957 100.329C184.294 100.196 184.959 100.329 185.319 100.329C185.288 100.149 185.593 99.9456 185.515 99.5465C185.366 98.7327 184.239 97.9893 183.762 97.4025C183.551 97.692 183.77 97.8876 183.566 98.185C183.41 98.3962 183.191 98.2163 182.979 98.3806C182.752 98.5449 182.58 99.1161 182.392 99.3509C182.361 99.2961 181.86 99.21 181.806 99.1553C181.641 98.9909 181.688 98.631 181.618 98.3806C181.406 98.3336 181.305 98.0128 181.227 97.9893C180.499 97.7389 180.1 98.2476 179.661 98.3806L179.466 98.185C179.536 97.0112 179.403 96.8625 179.27 96.0331C179.122 96.0331 178.621 96.1191 178.496 96.0331Z" fill="#F56600"/>
</svg>
