<svg width="201" height="201" viewBox="0 0 201 201" fill="none" xmlns="http://www.w3.org/2000/svg">
<path fill-rule="evenodd" clip-rule="evenodd" d="M12.1445 122.469C16.5451 112.115 24.57 93.9946 42.4316 85.9685C39.0666 86.228 33.3711 87.0041 30.5239 89.3346C43.9849 68.6259 54.3393 58.7893 75.8241 54.9054C74.2708 50.5049 67.0231 48.9527 64.1759 53.8698C64.4342 44.551 72.1997 37.8199 81.0019 41.9621C78.6725 36.5261 73.2364 31.09 64.952 33.6789C69.3525 27.4667 80.2247 19.9595 93.9451 26.9489C100.157 12.9701 110.77 0.285156 137.174 0.285156C163.579 0.285156 184.807 24.1006 166.945 61.6365C169.792 43.7749 150.377 40.1505 143.39 55.9421C152.708 60.0843 159.697 65.7787 162.286 69.1448C164.872 72.5098 164.872 75.6164 163.839 78.4636C173.675 86.7469 179.889 95.5491 174.71 115.739C186.101 125.317 199.303 153.275 180.405 173.466C181.701 165.959 180.146 163.629 177.557 163.111C179.629 178.126 172.124 191.845 155.556 192.622C150.377 199.352 144.941 202.977 136.917 197.282C132.774 200.388 128.116 202.2 122.937 197.023C117.761 191.845 114.654 190.034 111.289 189.257C107.924 188.481 102.23 182.527 102.23 173.726C102.23 168.031 104.041 164.925 105.853 162.335C107.182 160.439 108.96 157.935 109.736 155.605C102.23 158.193 92.9107 154.829 91.0991 146.545C91.6169 152.757 89.0291 155.863 85.9225 161.04C85.4047 135.413 60.036 114.963 37.2561 114.963C25.6056 114.961 14.9917 119.363 12.1445 122.469Z" fill="black"/>
<path fill-rule="evenodd" clip-rule="evenodd" d="M32.6924 107.352C37.8144 99.5343 50.2148 83.3592 69.8949 81.2028C63.9649 79.5857 59.9194 76.8887 47.2493 82.5513C66.3899 63.4106 116.265 38.8771 148.886 69.88C148.823 67.851 147.788 65.0026 146.237 62.9327C160.993 71.2159 159.179 78.7231 154.778 78.4648C155.037 76.3937 155.039 75.6176 154.52 74.0643C154.001 72.511 151.81 72.7499 151.931 74.0643C152.189 76.9115 151.155 79.242 148.566 78.2065C145.359 76.924 133.465 68.9616 129.67 64.4871C122.422 55.9444 102.748 53.3555 105.595 73.2882C108.702 67.5926 116.497 60.5702 122.938 66.2988C125.27 68.3699 127.292 71.1442 128.892 76.1354C133.292 89.8559 144.942 89.8559 148.308 81.5715C149.341 81.5715 151.155 81.8309 152.967 81.5715C149.86 85.7137 142.872 92.9614 136.399 88.5609C116.743 75.1931 101.711 96.8453 118.018 108.234C107.147 106.422 89.8036 114.964 87.4742 136.968C83.332 120.4 78.9315 113.152 69.0949 107.976C70.1304 110.562 71.6837 115.741 72.461 119.882C63.141 110.822 53.8222 103.832 32.6924 107.352Z" fill="#31939B"/>
<path fill-rule="evenodd" clip-rule="evenodd" d="M62.6221 104.349C69.0937 94.2544 91.8736 65.5196 122.678 80.534C113.36 81.0517 105.593 88.5589 107.405 99.1716C104.299 98.3944 97.8274 98.6538 95.498 105.903C94.7208 100.725 92.9091 92.9594 98.3452 87.7817C88.2503 89.3361 76.6009 91.1478 62.6221 104.349Z" fill="black"/>
<path fill-rule="evenodd" clip-rule="evenodd" d="M86.4368 51.024C89.0257 42.7407 88.5079 35.2335 77.6357 31.6091C85.4012 30.8319 94.7212 29.538 101.711 37.5629C100.933 19.7014 115.948 7.01758 136.138 7.01758C150.635 7.01758 167.718 19.4431 166.425 40.9279C156.847 28.5024 130.961 32.6435 126.56 51.5417C115.688 48.4351 98.8623 46.8818 86.4368 51.024ZM134.587 111.34C128.633 114.963 124.893 122.947 123.972 133.083C122.936 144.473 115.43 150.686 108.441 150.686C101.452 150.686 93.6857 145.25 93.6857 134.896C93.6857 119.623 109.476 111.598 122.937 111.598C127.078 111.598 131.48 111.598 134.587 111.34Z" fill="#C2A159"/>
<path fill-rule="evenodd" clip-rule="evenodd" d="M96.7363 137.491C97.855 144.235 103.293 147.842 108.44 147.842C114.074 147.842 120.244 142.683 121.14 132.825C121.411 129.846 121.909 127.071 122.614 124.521C120.867 125.575 117.502 127.906 114.653 129.199C115.688 135.93 113.101 143.437 106.369 143.437C101.452 143.437 97.7161 140.088 96.7363 137.491Z" fill="black"/>
<path fill-rule="evenodd" clip-rule="evenodd" d="M142.355 111.339C138.988 115.738 137.955 121.435 138.212 127.129C138.472 132.825 138.729 140.849 128.117 142.661C129.411 140.072 129.928 135.153 129.67 130.494C129.411 125.834 131.74 114.444 142.355 111.339ZM151.449 103.102C150.964 102.926 150.429 102.722 149.919 102.534C149.919 102.543 145.672 103.455 143.218 104.207C140.075 105.171 136.512 106.262 133.036 106.262C129.567 106.262 118.227 105.475 117.921 95.3228C117.816 91.9054 119.268 90.3521 120.502 89.6523C125.373 86.8882 134.94 92.3652 138.825 94.8482C143.304 97.7091 148.045 99.4388 152.227 100.966C154.767 101.892 156.959 102.692 158.679 103.603C162.606 105.682 165.491 107.951 170.45 113.067C174.742 89.2904 160.577 82.7846 156.965 80.9775L155.243 83.274C148.546 92.2036 140.904 95.0565 134.804 90.9086C125.958 84.8933 118.567 86.9564 115.512 91.4651C113.622 94.2531 114.14 102.019 119.65 105.9C127.245 111.25 142.694 108.817 153.3 103.782C152.706 103.563 152.088 103.336 151.449 103.102Z" fill="#C2A159"/>
<path fill-rule="evenodd" clip-rule="evenodd" d="M140.235 84.3837C142.154 84.4554 143.845 83.5268 144.967 81.8437C140.333 80.5647 133.034 74.8395 129.593 70.3457C130.351 71.8069 131.011 73.433 131.598 75.2663C133.703 81.8278 137.439 84.2779 140.235 84.3837Z" fill="white"/>
<path fill-rule="evenodd" clip-rule="evenodd" d="M150.895 91.1461C152.966 88.8167 155.349 85.3516 157.107 84.6745C160.472 83.3795 161.239 88.093 159.178 88.2989C156.589 88.5573 153.485 88.8167 150.895 91.1461Z" fill="black"/>
<path fill-rule="evenodd" clip-rule="evenodd" d="M121.159 92.4591C122.955 95.0856 124.34 96.161 127.607 97.2728C128.276 97.5004 129.83 98.5143 129.436 99.2983C129.121 99.9311 128.065 100.214 127.148 99.6909C124.348 98.091 122.237 97.712 120.201 95.3883C120.539 103.142 129.274 103.986 133.034 103.986C135.117 103.986 138.293 103.436 140.407 102.86C139.136 102.578 137.247 101.894 136.259 101.302C136.115 101.216 135.989 101.103 135.888 100.968C135.788 100.833 135.715 100.679 135.674 100.516C135.634 100.353 135.625 100.184 135.65 100.018C135.675 99.8513 135.732 99.6916 135.819 99.5476C136.183 98.941 136.985 98.7191 137.575 99.1083C141.112 101.448 145.144 101.252 146.042 101.021C143.277 99.8855 140.379 98.5393 137.598 96.7629C130.446 92.194 124.174 90.1787 121.62 91.6284C121.467 91.7147 121.324 91.8177 121.193 91.9357C121.113 92.0096 121.044 92.2907 121.159 92.4591Z" fill="white"/>
<path fill-rule="evenodd" clip-rule="evenodd" d="M183.511 140.59C177.557 121.951 168.757 119.363 166.943 117.291C165.131 115.221 159.695 110.56 148.565 110.56C145.718 113.408 144.164 119.104 144.682 126.869C145.2 134.635 142.611 139.812 139.505 142.661C136.399 145.508 133.291 146.543 128.89 146.543C130.702 147.062 131.997 148.614 131.997 150.425C133.55 149.39 135.88 149.39 137.951 149.648C137.433 148.354 136.915 147.577 136.915 147.577C141.059 148.873 142.869 151.72 143.645 156.639C145.199 155.86 146.234 155.861 148.306 155.861C147.528 155.345 146.751 154.566 146.751 154.566C148.047 154.307 150.376 154.566 152.187 155.084C151.669 154.05 151.154 153.013 150.118 151.979C160.991 155.603 162.542 168.029 162.025 176.829C161.249 177.346 159.956 177.865 158.919 178.9C159.437 176.052 159.177 172.947 158.141 167.769C157.104 162.591 153.225 158.969 149.599 158.451C147.533 158.156 143.645 158.451 140.538 161.557C141.316 158.969 141.055 156.379 140.538 155.344C139.728 153.723 137.173 153.531 134.843 153.013C132.514 152.495 129.925 155.344 128.889 157.673C128.631 156.639 127.66 153.596 128.631 151.979C130.184 149.39 128.631 148.873 125.784 148.873C122.937 148.873 121.64 149.908 118.793 152.755C116.072 155.478 116.722 158.191 115.17 162.333C116.464 160.78 117.499 160.004 119.311 159.486C115.428 165.698 116.982 173.206 120.605 175.794C119.311 170.1 119.569 167.251 121.383 162.591C122.159 163.886 122.934 165.18 124.23 165.439C119.83 182.525 130.184 190.291 135.104 188.996C131.221 182.784 131.739 174.757 132.515 169.84C133.291 171.134 135.104 172.946 136.915 172.946C136.655 176.312 135.88 186.665 139.504 190.03C145.157 195.277 149.669 189.996 151.066 183.45C149.648 183.49 148.721 182.839 148.305 182.005C149.345 181.707 150.038 181.062 150.544 180.228C149.863 176.006 150.466 173.025 150.893 172.17C151.411 171.134 153.225 169.84 155.036 170.1C152.965 171.91 153.483 175.794 153.483 178.9C153.483 182.005 156.589 186.925 160.731 185.631C164.874 184.336 171.604 175.018 172.637 170.1C173.675 165.181 174.451 157.156 173.673 150.166C176.002 151.719 177.816 154.308 179.887 157.931C180.663 148.354 179.37 141.882 174.969 136.188C178.075 136.707 180.922 138.519 183.511 140.59Z" fill="#31939B"/>
<path fill-rule="evenodd" clip-rule="evenodd" d="M158.92 116.775C165.908 120.139 170.568 124.541 176.006 132.566C173.156 131.271 170.309 130.235 167.98 129.717C172.38 135.931 174.97 141.625 175.745 147.838C173.156 144.472 171.604 143.438 170.051 142.143C171.345 148.097 171.862 154.568 167.462 165.44C167.203 148.356 164.356 133.861 148.047 127.13C151.412 127.13 155.812 126.87 160.213 128.165C158.66 125.058 155.812 122.211 150.118 120.398C155.812 120.398 160.213 121.176 165.39 125.576C164.097 123.247 162.543 119.881 158.92 116.775Z" fill="black"/>
<path fill-rule="evenodd" clip-rule="evenodd" d="M119.831 181.23C121.643 186.665 125.267 191.325 133.551 192.361C131.74 195.208 128.115 195.209 125.786 193.138C123.454 191.067 119.832 186.408 116.467 185.113C113.102 183.818 105.337 176.313 109.994 170.357C109.994 170.357 111.288 171.136 112.065 171.653C112.065 176.311 115.43 180.713 119.831 181.23Z" fill="#31939B"/>
</svg>
