<svg width="201" height="201" viewBox="0 0 201 201" fill="none" xmlns="http://www.w3.org/2000/svg">
<path d="M102.641 187.91C75.3485 187.91 50.5151 178.308 32.7146 160.873C16.2143 144.712 6.75 122.708 6.75 100.505C6.75 77.2681 15.9719 55.5447 32.7167 39.3351C50.1906 22.4182 74.6984 13.1023 101.724 13.1023C134.701 13.1023 167.636 26.4977 189.824 48.9356L194.859 54.0268L164.519 83.6769L159.544 78.7013C144.906 64.0631 123.291 55.3236 101.724 55.3236C86.9692 55.3236 73.6547 60.1204 64.2355 68.8295C55.2806 77.1087 50.3497 88.358 50.3497 100.505C50.3497 111.657 55.4443 122.879 64.3266 131.294C74.1239 140.575 87.7319 145.686 102.642 145.686C123.32 145.686 145.124 136.729 159.544 122.31L164.519 117.333L194.859 146.983L189.824 152.075C167.967 174.179 134.56 187.909 102.642 187.909" fill="#821019"/>
<path d="M161.546 76.6188L164.449 79.5218L190.559 54.0056L187.621 51.0354C165.979 29.1493 133.832 16.0826 101.631 16.0826C75.3797 16.0826 51.6048 25.1021 34.6857 41.481C18.5243 57.1276 9.62305 78.0944 9.62305 100.522C9.62305 121.932 18.7624 143.163 34.6981 158.771C51.9406 175.658 76.0369 184.959 102.548 184.959C133.703 184.959 166.301 171.566 187.621 150.007L190.559 147.036L164.449 121.52L161.546 124.423C146.591 139.378 123.984 148.669 102.548 148.669C86.875 148.669 72.544 143.269 62.1931 133.463C52.7212 124.489 47.2888 112.483 47.2888 100.521C47.2888 87.5376 52.5589 75.514 62.1276 66.6681C72.0973 57.4502 86.1256 52.3738 101.63 52.3738C123.965 52.3738 146.363 61.4371 161.546 76.6188ZM43.1325 100.522C43.1325 126.671 66.5296 152.822 102.544 152.822C125.941 152.822 149.339 142.5 164.479 127.36L184.666 147.087C164.25 167.732 133.053 180.807 102.545 180.807C47.7218 180.807 13.7722 140.894 13.7722 100.522C13.7722 58.0852 47.9511 20.2362 101.628 20.2362C133.054 20.2362 164.25 33.3111 184.667 53.9565L164.48 73.6836C149.34 58.5438 125.943 48.2216 101.628 48.2216C66.7609 48.2216 43.1345 71.8481 43.1345 100.522" fill="white"/>
</svg>
