<svg width="201" height="201" viewBox="0 0 201 201" fill="none" xmlns="http://www.w3.org/2000/svg">
<path d="M188.699 100.646C188.699 149.538 149.065 189.172 100.174 189.172C51.2822 189.172 11.6484 149.538 11.6484 100.646C11.6484 51.7553 51.2822 12.1211 100.174 12.1211C149.065 12.1211 188.699 51.7553 188.699 100.646Z" fill="#C8C372"/>
<path d="M185.03 100.648C185.03 147.514 147.039 185.505 100.173 185.505C53.3069 185.505 15.3159 147.514 15.3159 100.648C15.3159 53.7815 53.3069 15.7905 100.173 15.7905C147.039 15.7905 185.03 53.7815 185.03 100.648Z" fill="#1E4D2B"/>
<path d="M100.196 20.395C55.9738 20.395 19.9561 56.4216 19.9561 100.646C19.9561 144.814 55.9766 180.898 100.196 180.898C144.36 180.898 180.39 144.817 180.39 100.646C180.39 56.4244 144.363 20.395 100.196 20.395Z" fill="white"/>
<path d="M160.133 148.233C157.469 151.85 154.407 154.828 150.52 156.208C148.088 157.18 145.535 157.587 143.044 156.438C141.083 155.579 139.859 153.627 139.509 151.442C139.057 148.233 140.848 144.448 142.406 141.921C144.558 138.314 149.479 132.005 155.153 127.816C163.21 121.847 168.826 120.183 166.745 118.81C165.293 117.833 157.651 122.025 156.145 122.826C147.566 127.243 135.744 140.031 134.354 149.502C133.396 156.026 139.843 160.923 145.387 160.697C126.974 175.483 106.936 175.964 100.216 176.123L100.169 176.121L100.157 176.123C93.3801 175.963 73.3022 175.461 54.9573 160.696C60.5057 160.928 66.9609 156.029 65.9967 149.502C64.6021 140.03 52.7267 127.243 44.2127 122.825C42.7051 122.024 35.0534 117.833 33.6055 118.809C31.5208 120.183 37.1372 121.847 45.1939 127.816C50.8747 132.004 55.7418 138.313 57.8826 141.92C59.504 144.448 61.2995 148.232 60.8376 151.442C60.4872 153.626 59.2171 155.578 57.3026 156.437C54.8087 157.586 52.2661 157.18 49.7727 156.208C45.9512 154.828 42.8787 151.851 40.2135 148.235C35.1742 141.407 30.2525 133.55 27.7544 125.235C29.8947 129.995 43.4563 149.898 49.481 150.185C55.6752 150.53 43.4568 134.012 35.0534 127.13C33.026 125.466 30.707 123.511 30.2525 120.41C29.8942 118.17 31.0551 116.683 33.2598 116.571C36.6244 116.454 45.3712 120.986 45.4818 120.817C30.3076 93.5711 53.5358 79.8062 43.9211 73.838C40.5555 71.7102 33.4398 73.838 29.5522 74.411C65.301 53.3005 71.5498 74.3555 82.3291 84.0448C84.0107 85.5963 91.598 84.0448 93.0468 82.2673C94.9589 79.9734 98.7795 71.7102 94.4359 66.2631C88.4385 58.6776 64.3313 36.9051 41.5201 53.3227C47.0746 45.6765 55.4414 38.7724 65.4422 33.6461C76.7103 27.8722 89.0578 24.8603 100.196 25.1769H100.26C122.125 24.5692 146.586 36.4881 158.814 53.3213C135.955 36.907 111.907 58.6767 105.849 66.2627C101.566 71.7097 105.333 79.9729 107.243 82.2664C108.749 84.0443 116.335 85.5958 118.017 84.0443C128.794 74.355 135.052 53.3005 170.79 74.4106C166.915 73.8375 159.732 71.7097 156.433 73.8375C146.807 79.8053 169.98 93.5702 154.863 120.817C154.981 120.985 163.733 116.454 167.088 116.57C169.29 116.683 170.451 118.17 170.1 120.41C169.638 123.511 167.263 125.465 165.292 127.13C156.89 134.012 144.671 150.529 150.808 150.184C156.89 149.897 170.451 129.995 172.591 125.235C170.1 133.549 165.124 141.405 160.132 148.233L160.133 148.233Z" fill="#1E4D2B"/>
<path d="M135.668 83.5629C131.07 83.5063 132.562 89.1744 133.856 91.9157C134.774 93.7531 135.919 96.7914 138.787 96.5588C142.288 96.2726 141.763 93.4043 146.818 93.0066C146.818 93.0066 153.125 93.4683 153.019 95.4765C152.785 98.4566 149.511 99.5456 147.393 100.287C144.238 101.323 140.618 99.7786 138.041 102.702C137.244 103.674 136.605 104.88 136.89 105.968C137.177 107.061 137.302 106.6 140.793 106.882C138.841 109.296 137.697 112.968 137.64 116.182C137.532 124.844 135.346 131.551 136.204 134.539C140.397 129.486 140.334 121.864 141.027 115.778C141.425 112.62 142.571 109.122 144.127 106.833C145.903 104.135 149.29 104.016 151.521 102.358C153.645 100.807 156.967 98.1678 156.681 95.6983L156.68 95.699C156.28 92.3767 153.356 91.3421 150.778 90.5352C143.316 88.1872 140.163 91.111 137.986 91.3425C140.334 88.6508 139.761 84.1713 136.67 83.6536C136.307 83.5966 135.974 83.567 135.668 83.5633V83.5629ZM65.4583 83.5655C65.1491 83.5692 64.8121 83.5981 64.4466 83.6551C61.4024 84.1728 60.8307 88.6523 63.1213 91.344C61.0058 91.1125 57.8487 88.1887 50.3913 90.5367C47.8133 91.3436 44.8843 92.3782 44.4829 95.7005C44.1948 98.17 47.5223 100.808 49.6433 102.36C51.8266 104.018 55.2681 104.137 57.0455 106.834C58.5338 109.124 59.7372 112.621 60.1464 115.78C60.8303 121.865 60.7174 129.488 64.9639 134.542C65.7608 131.554 63.5827 124.846 63.5331 116.185C63.4639 112.971 62.263 109.298 60.376 106.884C63.8712 106.601 63.9264 107.063 64.2156 105.97C64.5544 104.882 63.8712 103.676 63.0654 102.704C60.5433 99.7808 56.9322 101.325 53.714 100.288C51.5951 99.5471 48.3302 98.4581 48.1547 95.4779C48.0407 93.4698 54.3524 93.0088 54.3524 93.0088C59.3958 93.4069 58.82 96.2752 62.3197 96.5611C65.1891 96.7936 66.3944 93.7542 67.3157 91.9168C68.6062 89.1762 70.0955 83.5089 65.4579 83.5651L65.4583 83.5655ZM124.628 94.3237C123.875 94.3085 123.113 94.4145 122.382 94.6748C119.459 95.4783 118.535 98.1693 116.808 100.576C115.155 103.1 112.397 104.881 110.103 105.801C108.664 109.123 111.139 116.988 113.489 120.598C114.806 123.296 120.251 129.833 119.109 139.756C123.409 133.505 126.846 126.85 128.282 122.834C130.81 117.444 131.955 108.893 131.726 103.1C131.384 100.289 130.698 96.7373 128.113 95.2487C127.11 94.7103 125.882 94.3493 124.628 94.3237ZM75.6785 94.3248C74.4209 94.3504 73.1915 94.7107 72.1906 95.2487C69.6097 96.7369 68.9828 100.29 68.578 103.102C68.4099 108.894 69.4927 117.445 72.0162 122.834C73.5089 126.851 76.9501 133.506 81.2473 139.757C80.0461 129.834 85.5531 123.296 86.8162 120.599C89.1702 116.988 91.639 109.124 90.2037 105.802C87.9108 104.882 85.154 103.101 83.4865 100.577C81.8232 98.1704 80.8541 95.4783 77.9291 94.6748C77.1974 94.4145 76.4331 94.3097 75.6785 94.3248ZM100.241 115.378V115.385C97.5004 115.448 96.0173 117.762 93.4704 120.428C89.0561 125.243 79.9872 137.231 86.5866 142.911C89.5101 145.435 93.3582 147.156 98.6324 145.547C99.9521 144.634 99.2041 141.938 98.5194 140.727C96.051 137.518 92.2092 138.784 91.1187 137.176C90.0826 135.629 90.7739 134.417 91.4034 133.623C92.3221 132.475 93.8104 132.759 95.0749 133.103C97.3149 133.61 98.8375 134.549 100.241 135.921V136.025C100.26 136.007 100.278 135.995 100.292 135.976C100.314 135.995 100.329 136.007 100.352 136.025V135.919C101.702 134.545 103.281 133.605 105.514 133.103C106.72 132.759 108.267 132.475 109.13 133.623C109.818 134.417 110.449 135.629 109.418 137.176C108.326 138.784 104.543 137.518 102.073 140.727C101.389 141.938 100.58 144.634 101.893 145.547C107.235 147.156 111.02 145.435 113.944 142.911C120.601 137.231 111.537 125.243 107.06 120.428C104.576 117.764 103.03 115.448 100.352 115.385V115.378C100.329 115.378 100.314 115.382 100.292 115.382L100.241 115.378ZM91.4705 147.153C91.0928 147.183 90.8325 147.443 90.8325 147.443C89.1328 151.07 98.8931 153.074 100.299 153.009C101.706 153.074 111.52 151.069 109.821 147.443C109.821 147.443 109.475 147.103 109.014 147.156C106.1 147.443 102.906 148.124 100.328 148.074C97.7507 148.124 94.5517 147.443 91.6397 147.156C91.5812 147.149 91.5245 147.149 91.4705 147.153Z" fill="white"/>
<path d="M125.377 98.5099C122.253 98.4547 117.07 105.194 118.423 110.612C119.108 110.839 119.459 110.445 121.063 107.81C122.261 105.797 125.19 106.197 126.508 105.395C128.749 103.957 128.685 100.862 126.567 98.9735C126.229 98.6643 125.824 98.5173 125.378 98.5095L125.377 98.5099ZM74.9237 98.5106C74.4771 98.5184 74.0731 98.6647 73.7358 98.9735C71.671 100.862 71.5603 103.959 73.7898 105.396C75.1666 106.198 78.0923 105.798 79.2372 107.811C80.8521 110.446 81.1928 110.84 81.8834 110.613C83.2398 105.196 78.0501 98.4555 74.924 98.511L74.9237 98.5106Z" fill="#1E4D2B"/>
</svg>
