<svg width="201" height="200" viewBox="0 0 201 200" fill="none" xmlns="http://www.w3.org/2000/svg">
<path fill-rule="evenodd" clip-rule="evenodd" d="M92.4479 30.8438L90.8609 31.3321C74.1368 36.5813 66.202 46.8355 64.3709 49.3991C63.7606 50.0094 59.2438 57.8221 57.0465 59.8974C51.7973 60.5077 38.003 64.0479 31.411 71.9827C27.6267 71.8606 21.6451 71.9827 21.6451 71.9827C19.2036 72.1048 17.1284 73.6917 16.2739 76.0111C16.1518 76.4994 15.9077 77.1098 15.9077 77.9643C15.9077 79.4292 16.396 81.2603 18.3491 83.0914C19.5699 84.3121 21.523 85.5329 23.7204 86.6316C22.8659 89.8055 22.3776 94.078 22.3776 97.9844C22.3776 99.6934 22.4996 101.28 22.6217 102.745C21.6451 103.234 20.7906 103.722 20.1802 104.088C18.7154 105.065 15.6635 107.75 13.4662 111.413C12.1234 113.732 11.513 115.563 11.2688 120.08C11.2688 120.812 11.1468 123.132 10.6585 124.108C10.0481 125.207 7.85079 128.259 6.75213 129.968L5.53139 131.799C4.67687 133.02 4.18856 134.851 3.45612 137.17L3.21196 138.025C2.96781 138.635 2.23537 140.466 1.99122 140.954C1.01463 142.419 0.648438 144.128 0.648438 145.837C0.648438 147.668 1.01463 149.5 1.38085 151.209C2.47951 155.725 6.99626 162.806 10.7805 168.543L11.2688 169.275L11.1468 169.153C12.1233 170.984 13.5883 172.083 15.2973 172.571C17.8608 173.182 19.814 171.961 20.7906 171.351L21.2789 171.107C24.3307 169.275 26.0398 166.59 27.0163 165.125C27.0163 165.125 27.1384 164.881 27.2605 164.759C27.6267 164.515 28.2371 164.026 28.2371 164.026C30.1903 162.683 31.411 161.707 32.1435 160.73C35.3174 156.946 36.7823 151.209 37.0264 148.523L37.2706 146.326C37.8809 140.588 38.003 138.269 38.003 136.926C38.003 136.438 38.003 136.071 37.8809 135.827V136.316C37.8809 135.827 38.2472 134.484 38.4913 133.63C40.2003 133.996 42.3977 134.851 43.008 135.217C45.0833 136.438 50.9428 139.245 59.7321 139.245C69.376 139.245 74.6251 137.902 76.09 137.536C78.0432 136.926 81.8275 135.705 83.2924 134.973L83.1703 135.095L83.4145 134.973C84.391 134.484 85.8559 133.874 87.1987 132.775C92.2037 132.653 96.1101 132.653 98.9178 132.653C97.2088 134.484 95.6218 136.926 94.5231 139.856C93.4245 142.908 92.8142 147.18 92.4479 152.429C92.3259 154.749 92.2038 156.458 92.2038 157.801C92.2038 160.852 92.6921 161.829 94.0349 163.05L95.988 164.881L106.975 162.928H106.731H108.318L112.102 162.806C114.421 162.561 117.839 161.585 120.403 160.12C123.21 158.411 125.652 155.359 126.262 154.627C126.873 154.016 129.558 151.941 130.535 151.331C130.657 151.331 131.634 150.72 131.634 150.72L134.807 149.011C134.807 149.011 140.667 144.739 142.864 142.419C143.597 141.687 144.573 140.466 145.55 139.367C146.038 139.978 146.649 140.71 147.259 141.321L147.625 141.809C150.067 144.617 153.119 144.861 155.072 144.128L155.56 144.006L155.926 143.762C157.513 142.908 161.175 140.832 162.64 139.856C162.885 139.734 163.739 139.612 164.105 139.489C166.425 139.489 168.622 138.147 169.721 136.926C169.599 137.048 169.965 136.682 169.965 136.682C176.679 130.456 188.642 118.981 193.769 111.413C196.211 107.872 197.676 104.943 198.53 100.426C199.751 93.8339 199.629 92.2469 198.896 86.2653L198.774 85.0445C197.676 75.2786 188.276 64.17 186.689 62.9492L186.445 62.7051C184.614 61.1181 179.731 56.9676 170.087 53.9157C165.448 52.4508 159.711 52.2067 157.147 52.2067C157.147 52.2067 157.147 52.2067 157.025 52.2067C156.537 51.5964 155.682 50.3756 155.194 49.5211C152.752 45.3706 148.48 41.098 142.742 36.8254L142.62 36.7034L142.376 36.4592C140.545 34.9943 134.808 30.7218 123.333 28.4024C107.951 25.4726 97.8192 28.8906 92.4479 30.8438Z" fill="#CFB87C"/>
<path fill-rule="evenodd" clip-rule="evenodd" d="M111.734 32.6722C102.09 32.6722 95.8645 35.3578 92.5685 36.4565C83.7792 39.2641 77.7976 43.4147 73.8913 46.9548H114.664L122.477 57.6973L120.401 71.6137H106.607L108.316 60.383H76.3327L71.2056 95.0519H81.7039L83.535 82.7224H79.2625L80.9715 71.4916H99.5268L96.1087 94.9298H103.067L104.898 82.6003H118.814L116.495 97.9817L105.508 108.358H94.0334L92.5685 118.246H119.913L126.871 71.1254H145.426L143.717 82.4783H139.445L133.707 121.542L123.087 131.796H107.584C104.41 133.383 101.48 136.069 99.893 141.074C97.9398 147.544 97.9398 158.652 97.9398 158.652C97.9398 158.652 105.02 157.554 106.119 157.31C107.095 157.065 109.903 157.31 111.734 157.065C113.565 156.821 116.251 156.089 117.96 155.112C119.669 154.014 121.622 151.816 122.477 150.84C123.331 149.741 127.238 146.933 127.97 146.445C128.702 145.957 131.266 144.98 132.12 144.37C132.975 143.759 137.736 140.219 139.323 138.51C140.91 136.801 143.84 133.261 144.694 131.918C146.159 129.721 147.746 131.552 147.868 132.284C148.478 134.238 151.042 136.923 152.018 137.9C152.995 138.998 153.727 138.754 153.727 138.754C153.727 138.754 158.977 135.824 160.075 135.092C161.174 134.238 163.615 133.993 164.348 133.993C165.08 133.993 165.935 133.383 166.301 133.017C166.667 132.651 183.636 117.269 189.739 108.236C191.692 105.306 193.035 102.987 193.646 99.3244C194.744 92.8545 194.622 91.878 193.89 85.5301C193.035 77.7174 184.978 67.9515 183.88 66.9749C182.781 65.9983 178.508 61.8478 168.987 58.9181C164.47 57.4532 158.122 57.4531 157.268 57.5752C156.413 57.6973 154.46 56.5986 153.972 56.2324C153.483 55.7441 151.896 53.6689 151.164 52.326C147.868 46.8327 141.276 42.0718 139.933 41.0952C138.712 40.1186 133.829 35.9681 122.721 33.7708C118.448 33.0384 114.908 32.6722 111.734 32.6722ZM61.3176 63.6789C56.6788 64.4113 40.6872 68.1957 34.5835 76.6188C34.2173 77.107 32.8745 77.3512 32.142 77.3512C31.5316 77.3512 22.4982 77.3512 22.1319 77.3512C21.7657 77.3512 20.6671 77.8395 22.1319 79.1823C23.4748 80.403 26.6487 82.3562 29.3343 83.3328C30.3109 83.699 30.1888 85.286 29.5785 86.1405C27.8694 89.0703 27.0149 100.179 28.3577 104.085C28.6019 104.574 28.2357 106.405 27.5032 106.649C26.4046 107.015 24.0851 108.114 23.1086 108.724C22.132 109.335 19.6905 111.532 17.9814 114.34C17.1269 115.926 16.6387 116.781 16.5166 120.443C16.3945 122.641 16.2724 125.082 15.1738 126.913C14.0751 128.744 10.4129 133.871 9.80252 134.848C9.19215 135.825 8.45968 138.876 8.09346 139.731C7.84931 140.708 6.75065 143.027 6.26235 143.881C5.40784 145.224 6.01822 148.398 6.50652 149.985C7.72725 154.868 15.54 166.099 15.7841 166.709C16.5166 168.052 17.0049 167.442 18.3477 166.587C21.3995 164.756 22.4982 161.704 23.3527 160.85C24.2072 160.117 27.2591 158.042 27.8694 157.31C30.1888 154.502 31.4096 149.863 31.5316 148.032C31.6537 146.201 32.6303 137.534 32.5082 136.435C32.3861 135.336 33.2407 131.186 34.2173 130.087C35.0718 128.988 36.9029 127.768 37.8795 127.89C40.321 128.134 44.3494 129.721 45.6922 130.453C48.3778 132.04 53.1387 133.749 59.6086 133.749C67.4213 133.749 72.4264 132.773 74.5016 132.162C76.9431 131.43 79.8728 130.453 80.7274 129.965C80.9715 129.843 82.0702 129.477 83.0468 128.866L77.5535 121.664L79.5066 108.48H64.8578L56.0685 97.9817L61.3176 63.6789Z" fill="black"/>
<path d="M164.351 100.181C162.886 102.5 160.811 102.5 160.811 102.5C156.172 102.744 155.928 98.1053 155.928 98.1053C156.172 88.0952 167.525 81.8695 171.553 79.7942C171.553 79.7942 173.018 78.9397 172.286 80.2825C168.501 86.8745 166.792 91.7574 166.304 94.0768C166.182 93.9548 165.327 98.7156 164.351 100.181Z" fill="white"/>
<path d="M164.351 100.181C162.886 102.5 160.811 102.5 160.811 102.5C156.172 102.744 155.928 98.1053 155.928 98.1053C156.172 88.0952 167.525 81.8695 171.553 79.7942C171.553 79.7942 173.018 78.9397 172.286 80.2825C168.501 86.8745 166.792 91.7574 166.304 94.0768C166.182 93.9548 165.327 98.7156 164.351 100.181Z" fill="white"/>
</svg>
