<svg width="201" height="200" viewBox="0 0 201 200" fill="none" xmlns="http://www.w3.org/2000/svg">
<path d="M162.659 61.5028C162.659 61.5028 166.039 60.6147 172.763 64.516C172.763 64.516 168.508 47.8571 159.472 42.363C159.017 42.0929 163.368 42.0107 169.753 32.2663C169.753 32.2663 162.804 29.3253 159.651 27.4858C154.511 24.4726 149.547 21.8128 146.713 21.6383C145.461 21.5616 140.096 20.2767 137.145 23.2322C136.614 23.7635 133.132 21.8173 131.712 21.8173C131.712 21.8173 132.244 20.8514 138.092 19.4509C138.609 19.3253 128.226 13.1744 116.843 16.6211C116.843 16.6211 118.021 13.7868 121.807 13.0777C121.807 13.0777 110.018 8.95851 100.403 16.7089C90.7431 8.85292 78.5012 12.5997 78.5012 12.5997C82.2769 13.31 83.4607 16.1442 83.4607 16.1442C72.0635 12.7209 61.68 18.8529 62.2113 18.983C68.06 20.3979 68.5912 21.3404 68.5912 21.3404C67.1763 21.3404 63.6896 23.2711 63.1628 22.7598C60.2018 19.7999 54.8366 21.0837 53.5851 21.1659C50.7464 21.3404 45.7914 24.0002 40.6519 27.009C37.4942 28.8585 30.5452 31.7939 30.5452 31.7939C36.9284 41.5427 41.2799 41.6205 40.8308 41.8951C31.7912 47.3903 27.5353 64.0492 27.5353 64.0492C34.2976 60.1479 37.6387 61.0315 37.6387 61.0315C20.4462 74.3193 24.8944 107.347 25.0533 104.087C25.2134 100.828 31.6889 96.9224 33.0605 96.5256C32.3702 101.451 32.2935 107.868 33.9108 116.323C38.1655 138.539 53.2861 149.409 53.2861 149.409C51.5455 143.94 51.201 138.127 52.2869 132.503C52.4414 132.764 52.5403 133.056 52.577 133.358C53.4562 143.014 56.4839 151.263 58.4256 153.914C63.9797 161.475 61.0476 159.467 72.5081 168.327L72.0246 156.628C72.4548 157.593 74.1687 162.311 74.6855 163.3C84.6155 182.353 104.753 188.293 104.753 188.293C103.039 177.071 106.806 177.226 111.722 173.232C115.179 170.529 118.138 167.244 120.464 163.522L120.516 163.421C121.483 161.996 122.419 160.524 123.747 158.878C122.854 164.189 122.052 167.569 118.218 170.466C117.59 170.948 145.954 156.772 144.663 133.609C144.548 131.479 147.658 144.598 146.992 149.91C146.992 149.91 162.113 139.041 166.367 116.829C167.984 108.384 167.908 101.976 167.212 97.0324C168.588 97.4281 175.04 101.407 175.224 104.598C175.417 107.829 179.845 74.7916 162.653 61.5028H162.659Z" fill="#183863"/>
<path d="M90.6088 21.047C90.2809 21.0337 89.9542 21.0537 89.6252 21.1082C89.6252 21.1082 91.1601 22.4008 90.6288 26.4855C90.6288 26.4855 82.5394 20.2668 75.6827 22.7576C75.6827 22.7576 79.4006 24.4104 80.6466 27.2491C80.6466 27.2491 72.7262 28.4651 66.7464 30.7681C63.5309 33.0421 56.9742 39.4743 52.8006 49.2854C53.5642 49.1509 54.3111 49.0453 55.0113 48.973C56.3151 48.843 55.9016 61.5984 52.5205 66.5522C50.1686 72.7477 48.9426 74.4227 49.425 80.0723C50.372 91.1205 59.1839 99.102 64.2544 106.035C69.3261 112.97 71.2057 125.905 73.0985 131.907C74.9925 137.909 77.8312 145.798 89.1995 148.324C97.221 150.087 103.997 149.03 112.033 148.639C124.941 148.002 126.947 138.217 128.839 132.221C130.733 126.224 132.621 113.29 137.677 106.347C142.734 99.4032 149.979 89.4844 151.103 80.3913C151.476 77.2914 150.683 71.1493 147.347 65.9921C143.869 58.7352 143.312 49.2565 145.293 49.4499C146.08 49.5321 146.944 49.6677 147.809 49.8166C143.926 40.5658 137.86 34.2781 134.48 31.6072C128.428 29.0586 119.649 27.717 119.649 27.717C120.889 24.8827 124.608 23.2255 124.608 23.2255C117.756 20.7291 109.662 26.949 109.662 26.949C109.136 22.8732 110.672 21.5739 110.672 21.5739C105.422 20.7047 100.375 29.1975 100.375 29.1975L100.151 28.6718C100.151 28.6718 95.5205 21.2538 90.6088 21.0504V21.047ZM55.3692 28.4173C54.9224 28.4028 54.45 28.4084 53.9499 28.4328H53.941C48.9816 28.6696 46.1462 33.3923 41.5391 33.918C41.5391 33.918 44.5512 37.7371 53.4375 37.9738L61.3868 30.4746C60.3265 29.4865 58.4936 28.5151 55.3692 28.4173ZM145.005 28.8863C142.029 28.9697 140.217 29.8389 139.117 30.7681L147.226 38.4384C155.832 38.1094 158.753 34.3959 158.753 34.3959C154.146 33.8646 151.312 29.1375 146.353 28.9019C145.88 28.8785 145.43 28.8741 145.005 28.8863Z" fill="#99CAEA"/>
<path d="M71.0086 34.7629C72.8103 39.4856 76.0502 42.9423 84.4008 45.1197L87.6508 51.3963L91.282 55.94L90.534 43.2991C90.534 43.2991 82.2701 40.1948 71.0086 34.7629ZM129.945 34.7629C118.682 40.1948 110.421 43.2991 110.421 43.2991L109.672 55.94L113.304 51.3963L116.554 45.1197C124.908 42.9423 128.143 39.4856 129.945 34.7629ZM73.8373 49.629C67.4863 49.7591 68.2688 49.808 61.4354 51.4985C61.4354 51.4985 58.6655 53.4058 69.2635 54.9452C69.1079 55.4532 68.999 55.98 68.999 56.5391C68.999 59.3689 71.1386 61.1929 74.4519 61.1929C77.7653 61.1929 79.9026 59.3689 79.9026 56.5391C79.9026 55.2242 79.4192 54.0349 78.6433 53.0935C80.6907 53.9093 82.3179 55.7855 81.9889 59.5668C83.9785 61.912 83.9018 63.138 84.5442 64.4429C82.9614 71.0795 78.4433 84.145 83.1871 87.6606L83.5961 87.0527C83.6295 87.2516 83.665 87.4561 83.7195 87.6851C84.6276 91.6197 94.3052 92.8268 96.426 94.3429C96.3893 94.1006 96.3393 93.8605 96.2759 93.6237C96.5149 93.8394 96.7405 94.0694 96.9572 94.3118L95.918 99.5435C93.7006 101.325 85.7246 101.828 81.2864 100.215C80.8607 100.059 80.4817 99.8936 80.1383 99.718C80.3095 99.7269 80.4873 99.7247 80.6562 99.7369C82.4491 99.8725 81.1686 97.8529 81.1686 97.8529C63.3682 96.8682 49.1857 111.889 49.1902 111.894C56.6104 105.23 66.7205 100.764 75.5056 99.8525C76.038 100.636 76.626 101.529 76.8516 101.978C77.2673 102.803 78.8512 103.706 80.9808 104.155C80.0394 105.353 76.7171 111.21 79.7893 117.144C81.4209 120.302 83.7784 123.42 83.2238 127.96C82.5669 133.348 81.5421 136.24 84.1107 139.113C86.1058 141.349 89.4236 141.109 94.0885 139.79C100.734 137.889 108.167 139.564 110.273 140.008C112.378 140.452 116.479 140.901 118.368 138.781C120.256 136.661 120.385 131.373 120.251 127.853C120.028 121.995 121.7 119.379 122.911 117.148C125.848 111.799 123.144 105.701 121.666 103.919C124.143 103.649 125.311 102.557 125.601 101.988C125.844 101.496 126.191 100.877 126.606 100.116C134.898 101.446 144.065 105.73 150.926 111.895C150.944 111.891 139.672 99.9792 124.629 98.073L124.273 97.9841C124.266 97.9974 124.256 98.0097 124.25 98.023C122.526 97.8251 120.756 97.754 118.948 97.8541C118.948 97.8541 117.669 99.8736 119.465 99.738C120.381 99.6713 121.33 99.668 122.296 99.6969C121.957 99.8725 121.584 100.046 121.173 100.216C117.536 101.718 107.43 101.332 105.237 99.5446L104.23 94.4696C104.593 94.075 104.981 93.6915 105.41 93.3348C105.308 93.6649 105.23 94.0016 105.178 94.344C107.298 92.8279 116.981 91.6209 117.884 87.6862C117.891 87.6595 117.892 87.6462 117.898 87.6206C122.359 84.0717 118.123 71.2251 116.579 64.5751C117.3 63.2191 117.155 61.9898 119.198 59.5735C118.87 55.8 120.49 53.9227 122.528 53.1046C121.758 54.0449 121.275 55.2298 121.275 56.5402C121.275 59.3701 123.416 61.1951 126.728 61.1951C130.046 61.1951 132.183 59.3701 132.183 56.5402C132.183 55.8656 132.046 55.2265 131.821 54.6307C142.126 54.3061 139.743 51.4996 139.743 51.4996C133.691 49.2422 133.692 49.7635 127.336 49.6279C112.577 49.3045 114.35 59.5379 110.714 61.0684L111.03 61.3874C110.882 61.503 110.608 61.7086 110.608 61.7086C112.109 65.2898 115.088 83.1247 115.132 83.387C112.208 83.517 109.001 85.1998 105.482 85.8422C103.647 86.1757 99.1224 86.9971 96.1281 85.8422C92.6069 84.4907 89.0946 83.1858 86.0102 83.3548C86.0714 82.9946 89.1124 65.2798 90.6663 61.7086C90.6663 61.7086 90.3684 61.4919 90.185 61.3529L90.474 61.0617C86.8316 59.5357 89.2758 49.3045 73.8406 49.6279L73.8373 49.629ZM69.3369 54.7074C69.328 54.7341 69.3202 54.7607 69.3113 54.7874L69.2591 54.7207C69.2858 54.7218 69.3102 54.7085 69.3369 54.7074ZM100.656 54.7852C96.7761 54.8008 94.3475 57.3127 94.3475 57.3127L96.4726 57.8484C100.55 55.4343 104.446 57.8484 104.446 57.8484L106.756 56.7803C104.485 55.2865 102.42 54.7785 100.656 54.7852ZM72.9648 65.521L60.5562 70.3004C59.9482 70.6627 51.8644 78.2742 54.3519 83.5904C56.2558 87.6695 60.0982 89.6424 63.964 90.5638C51.2419 93.0024 41.6687 101.621 41.6543 101.624C51.2075 94.3573 64.3908 90.5472 74.0107 92.0443C75.7935 92.3244 74.6776 90.2059 74.6776 90.2059C74.3486 90.1604 74.0229 90.1326 73.6961 90.0992C57.2062 78.6165 72.9648 65.521 72.9648 65.521ZM128.115 65.521C128.115 65.521 143.807 78.5365 127.557 89.9992C126.851 90.0448 126.14 90.107 125.426 90.2048C125.426 90.2048 124.315 92.3233 126.093 92.0432C135.717 90.5472 148.891 94.3562 158.449 101.623C158.446 101.62 149.136 93.2369 136.675 90.665C140.686 89.7914 144.753 87.8251 146.728 83.5904C149.21 78.2786 141.13 70.6627 140.522 70.3004L128.119 65.5199L128.115 65.521ZM75.5323 90.2971C75.5323 90.2971 76.2092 91.6208 75.5912 92.1377C75.3589 92.3455 76.7149 92.3044 76.7149 92.3044C76.7149 92.3044 77.0673 90.7695 76.5938 90.5327C76.2592 90.3827 75.8991 90.3026 75.5323 90.2971ZM124.581 90.2971C124.214 90.3026 123.852 90.3838 123.517 90.5327C123.049 90.7695 123.398 92.3044 123.398 92.3044C123.398 92.3044 124.754 92.3455 124.522 92.1377C123.9 91.6208 124.581 90.2971 124.581 90.2971ZM74.7376 93.7438C58.5144 93.6482 45.3077 106.123 45.29 106.123C54.6542 98.6299 67.743 94.5207 77.4018 95.79C79.1835 96.0223 78.0209 93.9361 78.0209 93.9361C76.915 93.8105 75.8202 93.7493 74.7387 93.7427L74.7376 93.7438ZM125.351 93.7438C124.267 93.7505 123.172 93.8116 122.065 93.9372C122.065 93.9372 120.905 96.0223 122.688 95.7911C132.347 94.5207 145.428 98.631 154.798 106.125C154.807 106.125 141.599 93.6482 125.351 93.7438ZM78.8601 94.0194C78.8601 94.0194 79.537 95.3388 78.919 95.8645C78.6822 96.0623 80.0394 96.0234 80.0394 96.0234C80.0394 96.0234 80.3906 94.4885 79.9171 94.2562C79.5848 94.1072 79.2246 94.0261 78.8601 94.0194ZM121.258 94.0194C120.89 94.025 120.527 94.1061 120.192 94.2562C119.724 94.4885 120.078 96.0234 120.078 96.0234C120.078 96.0234 121.438 96.0623 121.201 95.8645C120.583 95.3388 121.258 94.0194 121.258 94.0194ZM82 97.9152C82 97.9152 82.6814 99.229 82.0589 99.7647C81.8222 99.9625 83.1826 99.9236 83.1826 99.9236C83.1826 99.9236 83.535 98.3887 83.0615 98.1519C82.7269 98.003 82.3668 97.923 82 97.9152ZM118.103 97.9152C117.736 97.923 117.376 98.003 117.042 98.1519C116.568 98.3887 116.926 99.9236 116.926 99.9236C116.926 99.9236 118.279 99.9625 118.047 99.7647C117.429 99.229 118.103 97.9152 118.103 97.9152ZM100.342 103.555H100.767C100.99 105.115 104.055 105.868 106.533 106.008C111.459 106.284 110.879 106.62 116.49 105.568C116.948 106.037 117.591 106.564 118.205 107.239L118.032 114.433L119.734 114.164C119.563 115.001 119.3 115.92 118.916 116.945C117.357 121.097 116.63 124.41 116.543 126.484C115.734 127.975 114.802 129.248 114.802 129.248V135.132C114.767 135.161 114.74 135.199 114.704 135.225C113.376 136.23 111.604 135.452 110.161 135.341C109.847 135.317 109.021 135.253 108.07 135.191L110.662 125.279L105.61 129.701L107.874 135.177C104.364 134.956 97.8364 134.736 93.3094 135.892C91.3709 136.397 89.8704 136.575 88.7723 136.441C88.0298 134.462 87.1084 131.206 87.9342 128.735C87.9342 128.735 86.8083 126.615 85.9636 124.456C85.8424 122.279 85.5079 120.633 83.8884 117.718C83.2727 116.605 82.7858 115.501 82.4813 114.418L84.4608 114.551L83.7395 107.763C84.3264 107.06 85.0844 106.384 86.048 105.736C88.9457 106.121 90.3939 106.517 94.5809 106.043C97.2373 105.744 100.125 105.126 100.343 103.563L100.342 103.555ZM111.6 106.284L108.152 114.551L108.142 114.555L107.393 113.61L107.566 113.56L104.601 107.124L101.993 112.979L100.511 114.911L98.9757 112.467L99.2991 112.343L96.8005 107.461L93.4561 114.531L93.4361 114.555L93.0971 114.277L90.5184 106.611L89.248 111.103L89.2013 111.064L89.1035 111.622L88.7167 112.986L88.8468 113.061L88.2499 116.441C94.881 115.809 98.3533 119.914 100.246 120.551C102.139 121.189 104.761 113.603 114.251 116.76L113.389 112.988L113.396 112.986L113.346 112.801L113.242 112.343L113.226 112.349L111.6 106.285V106.284ZM91.0897 124.645L93.9296 134.753L95.8269 130.329L91.0897 124.645Z" fill="#183863"/>
<path d="M74.4525 53.0769C72.5408 53.0791 70.9925 54.6285 70.9902 56.5392C70.9902 59.0122 73.6411 59.2056 74.4525 59.2056C75.2639 59.2056 77.9148 59.0111 77.9148 56.5392C77.9126 54.6285 76.3643 53.0791 74.4525 53.0769ZM126.727 53.0769C124.815 53.0791 123.264 54.6285 123.262 56.5392C123.262 59.0122 125.915 59.2056 126.727 59.2056C127.538 59.2056 130.179 59.0256 130.179 56.5436C130.179 54.6352 128.636 53.0847 126.727 53.0769Z" fill="white"/>
<path d="M96.9177 19.2231C96.9177 19.2231 98.1682 29.7588 99.2685 43.5735L102.167 43.9269C102.167 43.9269 103.056 32.303 104.505 19.222L96.9177 19.2231ZM74.6403 52.5454C73.3876 52.5454 72.3629 53.5435 72.3328 54.7961C72.3028 56.0488 73.2765 57.0969 74.5269 57.158C75.7784 57.2191 76.8521 56.271 76.9433 55.0217C76.9788 53.7069 75.9552 52.6054 74.6403 52.5454ZM126.98 52.5454C125.73 52.5431 124.707 53.5379 124.675 54.7872C124.641 56.0365 125.612 57.0835 126.861 57.1469C128.109 57.2102 129.181 56.2677 129.274 55.0217C129.311 53.7102 128.29 52.6098 126.98 52.5454ZM57.2434 61.5217L47.0488 65.0273L51.5648 69.3588L57.2434 61.5217ZM143.349 62.2831L150.289 70.5114L153.543 65.7853L143.349 62.2831ZM100.7 101.925C98.585 101.925 93.2321 103.803 90.9491 104.961C90.8957 104.864 90.839 104.768 90.7557 104.694C90.0843 104.076 88.5449 104.147 86.7477 104.292C86.3186 104.326 85.9507 104.355 85.6995 104.355H85.5306L85.4061 104.472C85.1749 104.689 79.9198 109.869 87.1067 121.902L87.8958 121.666C87.8869 118.769 88.2982 115.885 89.1185 113.106C89.3596 112.271 89.6075 111.438 89.8431 110.647C90.1288 109.701 90.3722 108.859 90.5856 108.067L93.3777 115.683L96.8233 108.422L100.613 115.572L104.577 108.078L108.185 115.626L111.464 107.864C111.687 108.712 111.966 109.654 112.277 110.69C112.5 111.482 112.749 112.295 112.981 113.106C113.798 115.884 114.21 118.765 114.202 121.662L114.999 121.903C122.181 109.87 116.927 104.689 116.7 104.458L116.573 104.34H116.406C116.16 104.34 115.787 104.314 115.357 104.279C113.561 104.135 112.019 104.061 111.348 104.679C111.132 104.874 111.012 105.153 111.016 105.443C111.016 105.496 111.032 105.575 111.036 105.632C109.179 104.769 102.936 101.925 100.7 101.925ZM90.6445 120.786C83.4632 132.822 88.7172 138.002 88.944 138.213L89.0696 138.328H89.2396C89.4908 138.328 89.8576 138.357 90.2877 138.392C90.9735 138.45 91.6148 138.493 92.1895 138.493C93.1309 138.493 93.8845 138.373 94.2991 137.996C94.5147 137.802 94.6381 137.523 94.6336 137.233C94.6336 136.921 94.5692 136.515 94.4791 136.064C95.2172 136.239 98.6928 136.996 100.341 136.996C102.122 136.996 107.303 135.631 107.755 135.511C107.59 136.204 107.475 136.816 107.475 137.247C107.463 137.534 107.574 137.809 107.778 138.01C108.194 138.372 108.948 138.493 109.891 138.493C110.484 138.493 111.13 138.45 111.821 138.406C112.251 138.373 112.617 138.344 112.869 138.344H113.039L113.164 138.226C113.397 138.014 118.646 132.833 111.465 120.8L110.668 121.042C110.676 123.941 110.263 126.827 109.441 129.608C109.204 130.438 108.957 131.265 108.721 132.052C108.457 132.933 108.236 133.709 108.03 134.459L105.282 127.383L100.715 132.728L96.2853 127.506L94.069 134.421C93.8645 133.678 93.6478 132.916 93.3877 132.045C93.1509 131.249 92.9031 130.424 92.6674 129.592C91.8449 126.811 91.4326 123.928 91.4403 121.028L90.6434 120.785L90.6445 120.786Z" fill="#183863"/>
<path d="M100.68 102.804C98.4441 102.804 92.0442 105.218 90.736 106.038L93.4758 113.465L96.7647 106.512L100.598 113.756L104.607 106.184L108.103 113.543L111.028 106.603C109.382 105.835 102.752 102.804 100.68 102.804ZM88.7131 105.038C88.054 105.035 87.3193 105.095 86.8002 105.136C86.4723 105.179 86.1533 105.205 85.8977 105.214C85.2452 105.977 81.9241 110.582 87.0714 120.103C87.2148 117.651 87.6271 115.222 88.3029 112.862C88.5397 112.021 88.7853 111.19 89.0321 110.389C89.6556 108.322 90.2391 106.368 90.2391 105.446C90.2425 105.395 90.2202 105.347 90.1802 105.316C89.9557 105.108 89.3722 105.04 88.7131 105.038ZM113.45 105.053C112.774 105.053 112.164 105.117 111.933 105.329C111.893 105.36 111.873 105.409 111.876 105.459C111.876 106.386 112.471 108.358 113.099 110.463C113.336 111.246 113.581 112.056 113.808 112.877C114.483 115.239 114.895 117.667 115.04 120.119C120.211 110.559 116.875 105.987 116.218 105.229C115.962 105.229 115.643 105.196 115.291 105.167C114.798 105.113 114.093 105.053 113.45 105.053ZM90.6359 122.587C85.4731 132.114 88.7853 136.714 89.4422 137.477C89.6978 137.477 90.0091 137.51 90.3603 137.539C91.3795 137.621 93.2568 137.777 93.7403 137.361C93.7792 137.33 93.8025 137.281 93.7992 137.231C93.7992 136.314 93.2146 134.359 92.5921 132.293C92.351 131.496 92.1086 130.663 91.8663 129.828C91.1917 127.467 90.7793 125.039 90.6359 122.587ZM111.474 122.592C111.33 125.043 110.916 127.472 110.239 129.833C110.002 130.669 109.756 131.496 109.513 132.293C108.891 134.364 108.306 136.323 108.306 137.24C108.304 137.291 108.324 137.339 108.363 137.37C108.812 137.786 110.707 137.632 111.745 137.551C112.098 137.521 112.412 137.498 112.672 137.488C113.325 136.715 116.656 132.108 111.498 122.592H111.474ZM104.994 129.043L100.719 134.06L96.6424 129.229L94.7017 135.247C95.871 135.498 98.9743 136.139 100.346 136.139C101.717 136.139 105.833 135.127 107.219 134.775L104.994 129.043Z" fill="white"/>
</svg>
