<svg width="201" height="200" viewBox="0 0 201 200" fill="none" xmlns="http://www.w3.org/2000/svg">
<path d="M64.7185 170.565H78.6393C78.4774 170.403 78.4775 170.403 78.4775 170.403L78.6393 169.918C79.9342 170.403 81.8767 170.403 83.3335 170.403C83.4954 168.784 84.1429 167.328 84.1429 167.328C79.9343 166.033 78.6393 163.281 78.6393 163.281L78.963 162.795C80.9055 164.252 84.6285 164.09 84.6285 164.09C85.1141 161.015 87.3803 159.396 87.3803 159.396C82.5242 158.101 82.5242 155.673 82.5242 155.673L82.8479 155.187C86.409 156.806 87.8659 156.644 87.8659 156.644C90.1321 145.961 126.391 152.759 126.391 152.759C132.218 151.788 137.722 148.713 137.722 148.713V150.331C154.718 143.047 147.596 125.889 147.596 125.889H123.154V140.133H122.182H82.5242H81.2292V104.036L80.9055 104.684C74.4307 100.475 72.812 94.0005 73.1357 90.7631C73.4595 87.5257 73.2976 85.0977 73.2976 85.0977L71.6789 85.5833C68.4415 71.8244 76.535 62.4359 76.535 62.4359C75.7256 61.9503 67.9559 54.6662 72.9738 45.1158C78.3155 35.0799 88.1896 37.9935 88.1896 37.9935H123.154V47.5439C124.287 48.3532 125.42 49.1626 125.42 49.1626C131.247 48.8389 134.97 52.0762 134.97 52.0762C135.779 50.6194 141.121 44.954 148.082 48.0295C155.366 51.2669 155.042 58.8748 155.042 58.8748H161.679V34.918L138.531 13.0656H66.3372L43.1898 34.7561V96.1049C61.1573 91.5725 62.9379 99.1804 62.9379 99.1804C66.1753 99.0185 68.6034 97.5617 68.6034 97.5617L68.9271 98.0473C67.9559 100.152 63.7473 101.932 63.7473 101.932C63.7473 102.58 63.4235 104.036 63.4235 104.036C64.2329 104.522 64.7185 105.817 64.7185 105.817C69.8983 105.331 71.3551 104.036 71.3551 104.036L71.6789 104.522C70.5458 107.274 65.6897 108.731 65.6897 108.731C65.8516 109.702 65.0422 111.644 65.0422 111.644C65.6897 112.292 66.0134 113.749 66.0134 113.749C69.5746 114.234 71.517 113.749 71.517 113.749L71.6789 114.234C70.2221 116.015 66.0134 116.339 66.0134 116.339C65.8516 118.443 64.3947 120.547 64.3947 120.547C67.3084 121.357 70.0602 120.709 70.0602 120.709L70.2221 121.195C68.2796 122.975 64.3947 123.137 64.3947 123.137C64.071 125.727 61.6429 127.67 61.6429 127.67C65.2041 128.479 67.4703 127.831 67.4703 127.831L67.6321 128.317C65.6897 130.259 61.1573 130.421 61.1573 130.421C57.4343 138.839 45.1322 137.705 40.7617 137.058V146.608L64.7185 170.565Z" fill="#B31B1B"/>
<path d="M85.4689 41.7967C79.7711 41.7967 75.1092 46.4585 75.1092 52.1564C75.1092 56.3002 77.5696 59.7966 80.9365 61.4801C82.4905 60.3146 84.0444 59.7966 84.0444 59.7966C83.397 60.4441 82.7495 61.0916 82.2315 61.7391C81.325 63.293 77.9581 69.7678 78.9941 75.8541L82.102 74.0412C82.102 74.0412 79.5121 85.6958 84.8214 93.2066C84.8214 93.2066 85.9869 95.2785 87.9293 96.5735C86.6344 93.8541 85.5984 90.7462 85.0804 87.5088C83.7855 80.3865 84.8214 73.5232 87.4113 67.9549L85.2099 68.7319C90.6487 58.2427 101.785 59.2786 101.785 59.2786C101.008 60.4441 100.231 63.034 100.231 63.034C101.397 62.1276 104.634 61.8686 104.634 61.8686C96.8645 68.9908 104.505 77.0196 104.505 77.0196C95.0516 71.5808 99.843 65.365 99.843 65.365C99.066 65.365 97.253 66.2714 97.253 66.2714C96.994 64.4585 98.03 62.3866 98.03 62.3866C93.2387 62.775 91.5552 65.106 91.5552 65.106C92.7207 65.106 94.5336 65.365 94.5336 65.365C91.0372 70.4153 88.9653 77.0196 88.9653 84.1419C88.9653 91.0052 90.9077 97.221 94.0156 102.142L94.9221 98.6454C94.9221 98.6454 97.253 104.214 101.397 106.415C103.987 107.84 105.152 110.689 105.8 112.76C106.706 109.523 106.577 105.12 106.577 105.12C108.131 106.933 108.26 111.854 108.26 111.854C108.519 114.832 110.332 115.48 110.332 115.48C110.332 115.48 113.829 117.422 117.843 117.94C121.987 118.458 123.282 116.904 123.282 116.904C125.872 114.573 126.519 112.501 126.519 112.501C126.39 113.667 125.742 115.868 125.742 115.868C130.533 113.667 132.994 109.523 134.548 106.027C136.231 102.53 137.656 100.588 137.656 100.588L138.303 102.012C138.951 99.1634 143.483 92.9476 143.483 92.9476C144.908 91.2642 146.462 87.1203 145.944 85.0483C145.555 82.9764 146.85 79.0915 146.85 79.0915C147.368 77.2786 147.627 74.4297 146.72 73.0052C146.073 71.8398 145.167 69.3793 145.167 69.3793C144.908 68.3434 143.613 65.4945 143.613 65.4945C142.447 63.293 141.152 61.6096 139.857 60.1851C135.195 55.0053 130.145 53.9693 128.073 53.7103C130.145 56.6887 129.886 59.5376 129.886 59.5376C123.411 46.7175 108.001 47.365 108.001 47.365L108.519 48.142C99.843 48.0125 95.8286 50.9909 95.8286 50.9909L95.6991 50.7319C95.0516 45.6816 90.6487 41.7967 85.4689 41.7967ZM105.8 112.76C105.8 112.89 105.8 112.89 105.8 113.019C105.8 112.89 105.8 112.76 105.8 112.76ZM84.5624 44.3866C86.1164 44.3866 87.7998 44.9046 89.2243 46.0701C93.1092 49.3075 92.4617 52.6744 92.4617 52.6744L93.2387 52.4154C90.5192 54.2283 85.5984 57.9837 85.5984 57.9837C85.7279 57.2067 86.7639 55.3938 86.7639 55.3938C83.5265 57.0772 81.4545 58.8902 81.4545 58.8902C81.4545 58.8902 78.7351 57.4657 78.4761 52.8038C78.2171 48.142 82.102 46.0701 82.102 46.0701C81.584 45.5521 79.9006 45.1636 79.9006 45.1636C79.9006 45.1636 81.9725 44.2571 84.5624 44.3866ZM117.843 55.3938C123.023 56.0412 125.613 61.4801 127.167 64.4585C128.721 67.4369 129.627 67.5664 129.627 67.5664C133.253 67.9549 136.231 62.1276 136.231 62.1276C136.102 65.4945 134.289 67.8254 134.289 67.8254C140.246 63.1635 141.282 67.5664 141.282 67.5664C141.282 67.5664 139.469 65.4945 136.102 69.6383C132.087 74.5592 130.404 73.2642 130.404 73.2642C130.792 73.2642 131.31 72.4872 131.31 72.4872C124.965 72.7462 119.526 63.4225 119.526 63.4225C119.526 63.4225 116.936 59.6671 114.864 58.3722C112.793 57.0772 106.059 57.8542 106.059 57.8542C107.483 56.9477 110.721 56.3002 110.721 56.3002C117.713 55.0053 121.339 61.2211 121.339 61.2211L124.706 65.365C121.08 56.4297 117.843 55.3938 117.843 55.3938ZM106.965 64.07C106.965 64.07 115.641 63.1635 117.454 72.4872C117.454 72.4872 116.677 71.4513 115.641 70.4153C114.994 71.8398 113.57 72.6167 112.016 72.4872C110.073 72.2282 108.649 70.5448 108.778 68.6024C108.908 67.9549 109.167 67.3074 109.555 66.7894C108.131 66.0124 105.8 65.624 105.8 65.624C105.8 65.624 107.224 65.2355 108.778 65.365C108.131 64.847 107.613 64.4585 106.965 64.07ZM139.598 71.4513C141.152 71.5808 142.318 72.0987 142.318 72.0987C141.8 72.2282 141.411 72.3577 140.893 72.3577C141.929 72.7462 142.706 73.2642 142.706 73.2642C142.706 73.2642 142.447 73.2642 141.929 73.1347C142.188 73.3937 144.519 75.7246 143.483 78.1851C142.318 80.775 139.339 80.9045 139.339 80.9045C142.577 77.5376 141.929 73.3937 141.929 73.1347C141.541 73.1347 140.893 73.0052 140.375 73.0052C140.634 73.5232 140.634 74.1707 140.505 74.8182C140.116 76.3721 138.562 77.2786 137.008 76.8901L137.138 77.2786L137.526 80.9045C139.598 82.3289 138.433 85.1778 138.433 85.1778C140.893 90.0987 136.62 94.2426 136.62 94.2426L133.382 97.3505C133.253 96.444 134.677 94.5016 134.677 94.5016C138.174 89.8397 137.138 87.3793 137.138 87.3793C136.231 87.8973 135.325 87.7678 135.325 87.7678C134.289 87.6383 135.066 85.9548 135.066 85.9548C135.066 85.9548 135.584 84.4009 134.289 84.2714C132.994 84.1419 132.476 85.9548 132.476 85.9548C131.828 87.3793 132.994 88.6742 132.994 88.6742C131.828 88.9332 129.757 89.8397 129.757 89.8397C127.814 88.4152 127.037 87.2498 127.037 87.2498C129.109 86.7318 129.627 85.6958 129.627 85.6958C130.663 84.4009 130.016 83.4944 129.239 83.1059C128.462 82.8469 127.814 83.3649 127.555 83.6239C127.426 83.8829 127.037 84.1419 127.037 84.1419C124.836 85.9548 123.67 84.6599 123.67 84.6599L123.411 84.2714C122.505 83.3649 122.505 82.7174 122.505 82.7174C122.764 81.1635 123.67 79.998 123.67 79.998C126.131 77.2786 128.85 78.1851 131.31 79.3505C133.641 80.516 135.454 80.3865 135.454 80.3865L135.195 79.6095C134.418 77.9261 132.087 77.4081 132.087 77.4081C132.864 77.0196 134.289 77.2786 134.289 77.2786L134.03 76.5016C133.641 75.3361 132.087 75.3361 132.087 75.3361L134.289 73.6527C136.102 71.7103 138.044 71.3218 139.598 71.4513ZM125.483 72.2282C126.131 72.2282 126.908 72.4872 127.555 72.8757L130.145 74.8182L129.627 75.0772C129.627 75.0772 127.426 73.6527 125.613 73.5232C123.8 73.3937 122.505 73.6527 121.857 73.7822L121.598 73.3937C121.598 73.3937 123.541 72.0987 125.483 72.2282ZM127.167 75.2066C127.944 75.2066 128.85 75.5951 129.757 76.5016L129.368 76.7606C129.368 76.7606 126.908 75.7246 125.224 76.2426L124.965 75.8541C124.965 75.8541 125.872 75.2066 127.167 75.2066ZM116.936 75.2066C116.936 75.2066 117.325 76.8901 112.793 80.516C109.426 83.2354 108.519 84.6599 108.519 84.6599C108.908 84.4009 111.109 83.7534 111.109 83.7534C106.706 88.4152 105.929 95.667 105.8 96.962C105.67 99.5519 106.059 101.365 106.059 101.365C101.267 95.5375 103.08 89.4512 103.08 89.4512L101.008 90.7462C100.879 83.1059 107.872 79.739 107.872 79.739L106.577 79.221C108.39 78.962 109.944 78.444 111.109 77.9261C110.073 77.7966 109.944 77.5376 109.944 77.5376C114.735 76.2426 116.936 75.2066 116.936 75.2066ZM37.5554 79.48C37.5554 79.48 23.0518 88.9332 18.2605 98.2569L22.5339 97.221C22.5339 97.221 15.4116 106.933 18.5195 113.667C18.5195 113.667 19.9439 115.609 20.5914 115.998C21.2389 116.386 23.1813 118.847 23.8288 120.401L23.6993 119.365C22.9223 117.422 22.7929 115.868 22.7929 115.868C27.7137 124.156 35.613 124.415 35.613 124.415L31.5986 125.322C31.5986 125.322 31.4691 125.322 31.2101 125.451C40.1453 130.76 47.7856 129.724 47.7856 129.724C50.1165 128.947 51.7999 128.43 51.541 126.746C51.4115 126.099 51.023 124.674 50.505 124.156C53.0949 123.509 54.9079 121.825 54.6489 120.012C54.5194 119.235 54.0014 118.588 53.2244 117.94C55.5553 117.163 56.9798 115.609 56.7208 113.926C56.4618 112.76 55.4258 111.725 53.8719 111.207C55.2963 110.3 56.0733 109.135 55.8143 107.84C55.5553 106.415 54.2604 105.379 52.3179 104.861C53.6129 104.084 54.2604 102.919 54.0014 101.753C53.7424 100.07 51.6705 98.7749 49.21 98.5159C44.8072 98.9044 38.5914 100.329 29.3971 103.696C29.3971 103.696 34.7065 99.6814 37.6849 97.9979V95.926C34.1885 97.8684 33.8 98.5159 33.8 98.5159C34.577 97.48 34.9655 96.3145 37.6849 94.3721V92.6886C33.282 96.185 29.5266 99.9404 29.5266 99.9404C31.8576 95.667 34.7065 91.2641 37.6849 87.8973V86.0843C37.6849 86.0843 32.2461 89.8397 27.9727 93.8541C27.9727 93.8541 32.764 86.6023 37.5554 81.4225V79.48ZM54.2604 98.5159C54.7784 98.5159 55.1668 98.6454 55.5553 98.7749C55.1668 98.6454 54.6489 98.5159 54.2604 98.5159ZM55.5553 98.7749C55.6848 98.7749 55.6848 98.7749 55.8143 98.7749C55.6848 98.7749 55.5553 98.7749 55.5553 98.7749ZM56.9798 99.1634C57.3683 99.2929 57.6273 99.4224 57.8863 99.6814C57.6273 99.4224 57.2388 99.2929 56.9798 99.1634ZM117.195 90.4872C117.195 90.4872 120.303 90.8757 121.728 91.1347C123.023 91.5231 127.685 92.3001 129.498 90.8757C129.498 90.8757 129.368 92.1706 131.31 93.5951C131.31 93.5951 132.994 94.89 133.123 95.2785C133.123 95.2785 132.994 95.7965 130.922 98.7749C128.721 101.753 128.591 104.473 128.203 105.897C127.814 107.451 126.519 110.818 126.519 110.818C126.519 110.818 125.224 114.055 120.303 113.667C115.382 113.278 113.052 111.595 113.052 111.595C113.181 112.501 114.605 113.667 114.605 113.667C110.85 112.76 110.591 111.336 110.721 105.509C110.85 99.6814 109.296 94.5016 109.296 94.5016C108.519 94.89 107.742 97.0915 107.742 97.0915C107.742 97.0915 105.67 90.0987 117.195 90.4872ZM165.109 100.07C165.109 100.07 165.238 100.199 165.368 100.329H165.627C165.368 100.199 165.238 100.07 165.109 100.07ZM165.368 100.199C166.663 101.365 172.49 106.933 175.21 115.739C175.21 115.739 168.217 106.286 157.339 103.307C157.339 103.307 170.548 110.3 169.641 125.322C169.641 125.322 166.663 119.106 163.425 116.775C163.425 116.775 170.548 131.019 159.411 142.545C159.411 142.545 164.461 127.912 156.562 117.293C156.562 117.293 158.893 124.933 155.138 131.537C155.138 131.537 156.433 121.048 150.605 115.091C150.605 115.091 150.087 115.868 149.181 116.775V116.904C164.332 149.278 134.936 155.624 134.936 155.624L135.195 154.07C134.03 154.717 126.778 156.789 126.778 156.789C126.778 156.789 121.469 154.329 109.167 153.811C105.282 153.681 102.303 153.681 99.9725 153.94C100.102 153.94 100.231 153.94 100.49 153.94C100.62 153.94 100.879 154.07 101.008 154.07C99.843 154.329 98.548 154.976 98.03 156.142C97.512 157.178 97.771 158.861 98.807 159.509C97.3825 159.768 95.5696 160.544 95.0516 161.969C94.5336 163.264 95.3106 164.818 96.4761 165.336C95.3106 165.854 93.3682 167.019 93.7566 168.573C94.1451 170.127 96.0876 171.034 97.3825 171.422C96.4761 171.94 96.3466 172.976 96.4761 173.883C96.4761 174.53 96.994 175.178 97.512 175.566C98.9365 176.861 101.008 177.379 102.821 177.508C101.785 178.415 101.526 180.098 102.433 181.264C103.339 182.3 105.023 182.429 106.318 182.559C132.864 181.264 140.116 166.372 140.116 166.372C140.116 167.537 139.987 168.832 139.987 169.998C139.857 171.163 139.728 172.329 139.598 173.494C139.598 173.753 139.469 173.883 139.598 174.012C148.145 171.293 148.922 166.501 152.289 162.098L151.123 166.501C157.469 164.041 156.303 160.156 162.39 150.962C162.39 150.962 163.166 155.883 159.411 162.098C164.332 156.789 168.864 149.796 170.289 141.379C170.289 141.379 171.584 149.408 170.289 156.012C168.476 157.825 167.181 165.077 156.044 171.422C197.612 151.609 178.318 112.89 178.318 112.89C173.915 105.897 165.368 100.329 165.368 100.199ZM176.246 119.624C176.246 119.624 178.835 123.509 180.778 129.724C180.648 135.811 179.353 143.063 175.469 150.185C175.339 150.314 175.339 150.444 175.21 150.444L175.08 150.573C174.821 150.962 174.562 151.221 174.303 151.609C177.411 145.264 180.13 134.645 176.246 119.624ZM98.1595 154.199C97.771 154.329 97.3825 154.329 96.8645 154.458C96.6056 154.458 96.4761 154.588 96.2171 154.588C96.8645 154.458 97.512 154.329 98.1595 154.199ZM94.7926 155.106C94.5336 155.235 94.4041 155.235 94.1451 155.365C93.8861 155.494 93.6271 155.624 93.4977 155.753C93.8861 155.365 94.2746 155.235 94.7926 155.106ZM93.4977 155.624C93.3682 155.753 93.2387 155.753 93.1092 155.753C93.2387 155.753 93.3682 155.624 93.4977 155.624ZM93.1092 155.753C93.1092 155.883 93.1092 155.883 93.1092 155.753C92.9797 155.883 92.8502 155.883 92.8502 156.012C92.9797 155.883 92.9797 155.883 93.1092 155.753ZM92.8502 156.012C92.5912 156.142 92.3322 156.271 92.2027 156.401C92.3322 156.401 92.7207 156.142 92.8502 156.012ZM92.3322 156.401C92.0732 156.66 91.8142 156.919 91.8142 157.178C91.9437 156.919 92.2027 156.53 92.3322 156.401ZM88.4473 164.041C88.3178 164.3 88.3178 164.429 88.3178 164.429C88.3178 164.3 88.3178 164.17 88.4473 164.041ZM89.6128 167.926C89.7423 168.055 89.8718 168.055 89.8718 168.055C89.7423 168.055 89.6128 168.055 89.6128 167.926ZM87.2818 170.775C87.2818 170.904 87.2818 170.904 87.2818 170.904V170.775ZM90.9077 174.919C91.1667 175.048 91.2962 175.048 91.2962 175.048C91.1667 175.048 91.0372 174.919 90.9077 174.919ZM90.7782 175.825C90.6487 175.955 90.6487 176.214 90.6487 176.343C90.6487 176.214 90.6487 176.084 90.7782 175.825ZM90.5192 177.638C90.5192 177.767 90.5192 177.897 90.5192 177.897C90.5192 177.767 90.5192 177.638 90.5192 177.638ZM97.253 181.911C97.6415 181.911 97.9005 181.911 97.9005 181.911C97.771 181.911 97.512 181.911 97.253 181.911Z" fill="#89572E"/>
<path d="M105.8 112.76C105.152 110.689 103.987 107.84 101.397 106.415C97.253 104.214 94.9221 98.6454 94.9221 98.6454L94.0156 102.142C90.9077 97.221 88.9653 91.0052 88.9653 84.1419C88.9653 77.0196 91.0372 70.4153 94.5336 65.365C94.5336 65.365 92.7207 65.106 91.5552 65.106C91.5552 65.106 93.2387 62.775 98.03 62.3866C98.03 62.3866 96.994 64.4585 97.253 66.2714C97.253 66.2714 99.066 65.365 99.843 65.365C99.843 65.365 95.0516 71.5808 104.505 77.0196C104.505 77.0196 96.8645 68.9908 104.634 61.8686C104.634 61.8686 101.397 62.1276 100.231 63.034C100.231 63.034 101.008 60.4441 101.785 59.2786C101.785 59.2786 90.6487 58.2427 85.2099 68.7319L87.4113 67.9549C84.8214 73.5232 83.7855 80.3865 85.0804 87.5088C85.5984 90.7462 86.6344 93.8541 87.9293 96.5735C85.9869 95.2785 84.8214 93.2066 84.8214 93.2066C79.5121 85.6958 82.102 74.0412 82.102 74.0412L78.9941 75.8541C77.9581 69.7678 81.325 63.293 82.2315 61.7391C82.7495 61.0916 83.397 60.4441 84.0444 59.7966C84.0444 59.7966 82.4905 60.3146 80.9365 61.4801C77.5696 59.7966 75.1092 56.3002 75.1092 52.1564C75.1092 46.4585 79.7711 41.7967 85.4689 41.7967C90.6487 41.7967 95.0516 45.6816 95.6991 50.7319L95.8286 50.9909C95.8286 50.9909 99.843 48.0125 108.519 48.142L108.001 47.365C108.001 47.365 123.411 46.7175 129.886 59.5376C129.886 59.5376 130.145 56.6887 128.073 53.7103C130.145 53.9693 135.195 55.0053 139.857 60.1851C141.152 61.6096 142.447 63.293 143.613 65.4945C143.613 65.4945 144.908 68.3434 145.167 69.3793C145.167 69.3793 146.073 71.8398 146.72 73.0052C147.627 74.4297 147.368 77.2786 146.85 79.0915C146.85 79.0915 145.555 82.9764 145.944 85.0483C146.462 87.1203 144.908 91.2642 143.483 92.9476C143.483 92.9476 138.951 99.1634 138.303 102.012L137.656 100.588C137.656 100.588 136.231 102.53 134.548 106.027C132.994 109.523 130.533 113.667 125.742 115.868C125.742 115.868 126.39 113.667 126.519 112.501C126.519 112.501 125.872 114.573 123.282 116.904C123.282 116.904 121.987 118.458 117.843 117.94C113.829 117.422 110.332 115.48 110.332 115.48C110.332 115.48 108.519 114.832 108.26 111.854C108.26 111.854 108.131 106.933 106.577 105.12C106.577 105.12 106.706 109.523 105.8 112.76ZM105.8 112.76C105.8 112.89 105.8 112.89 105.8 113.019C105.8 112.89 105.8 112.76 105.8 112.76ZM141.929 73.1347C142.447 73.2642 142.706 73.2642 142.706 73.2642C142.706 73.2642 141.929 72.7462 140.893 72.3577C141.411 72.3577 141.8 72.2282 142.318 72.0988C142.318 72.0988 141.152 71.5808 139.598 71.4513C138.044 71.3218 136.102 71.7103 134.289 73.6527L132.087 75.3361C132.087 75.3361 133.641 75.3361 134.03 76.5016L134.289 77.2786C134.289 77.2786 132.864 77.0196 132.087 77.4081C132.087 77.4081 134.418 77.9261 135.195 79.6095L135.454 80.3865C135.454 80.3865 133.641 80.516 131.31 79.3505C128.85 78.1851 126.131 77.2786 123.67 79.998C123.67 79.998 122.764 81.1635 122.505 82.7174C122.505 82.7174 122.505 83.3649 123.411 84.2714L123.67 84.6599C123.67 84.6599 124.836 85.9548 127.037 84.1419C127.037 84.1419 127.426 83.8829 127.555 83.6239C127.814 83.3649 128.462 82.8469 129.239 83.1059C130.016 83.4944 130.663 84.4009 129.627 85.6958C129.627 85.6958 129.109 86.7318 127.037 87.2498C127.037 87.2498 127.814 88.4152 129.757 89.8397C129.757 89.8397 131.828 88.9332 132.994 88.6742C132.994 88.6742 131.828 87.3793 132.476 85.9548C132.476 85.9548 132.994 84.1419 134.289 84.2714C135.584 84.4009 135.066 85.9548 135.066 85.9548C135.066 85.9548 134.289 87.6383 135.325 87.7678C135.325 87.7678 136.231 87.8973 137.138 87.3793C137.138 87.3793 138.174 89.8397 134.677 94.5016C134.677 94.5016 133.253 96.444 133.382 97.3505L136.62 94.2426C136.62 94.2426 140.893 90.0987 138.433 85.1778C138.433 85.1778 139.598 82.3289 137.526 80.9045L137.138 77.2786L137.008 76.8901C138.562 77.2786 140.116 76.3721 140.505 74.8182C140.634 74.1707 140.634 73.5232 140.375 73.0052C140.893 73.0052 141.541 73.1347 141.929 73.1347ZM141.929 73.1347C142.188 73.3937 144.519 75.7246 143.483 78.1851C142.318 80.775 139.339 80.9045 139.339 80.9045C142.577 77.5376 141.929 73.3937 141.929 73.1347ZM49.3395 98.5159C51.1525 98.3864 52.7064 98.3864 53.8719 98.5159C54.0014 98.5159 54.1309 98.5159 54.2604 98.5159M54.2604 98.5159C54.7784 98.5159 55.1668 98.6454 55.5553 98.7749M54.2604 98.5159C54.6489 98.5159 55.1668 98.6454 55.5553 98.7749M55.5553 98.7749C55.6848 98.7749 55.6848 98.7749 55.8143 98.7749M55.5553 98.7749C55.5553 98.7749 55.6848 98.7749 55.8143 98.7749M55.8143 98.7749C56.2028 98.9044 56.5913 99.0339 56.9798 99.1634M56.9798 99.1634C57.3683 99.2929 57.6273 99.4224 57.8863 99.6814M56.9798 99.1634C57.2388 99.2929 57.6273 99.4224 57.8863 99.6814M57.8863 99.6814C58.1453 99.8109 58.2747 99.9404 58.4042 100.199M58.5337 100.199C58.6632 100.329 58.6632 100.329 58.7927 100.458C58.9222 100.588 59.0517 100.847 59.0517 100.976M44.8072 133.609C44.9367 133.609 45.4546 133.609 46.1021 133.609M93.1092 155.753C93.2387 155.753 93.3682 155.753 93.4977 155.624C93.3682 155.624 93.2387 155.753 93.1092 155.753ZM93.1092 155.753C93.1092 155.883 93.1092 155.883 93.1092 155.753ZM93.1092 155.753C92.9797 155.883 92.8502 155.883 92.8502 156.012M93.1092 155.753C92.9797 155.883 92.9797 155.883 92.8502 156.012M92.8502 156.012C92.5912 156.142 92.3322 156.271 92.2027 156.401C92.3322 156.401 92.7207 156.142 92.8502 156.012ZM96.6056 184.113C96.6056 184.242 96.6056 184.242 96.6056 184.242M84.5624 44.3866C86.1164 44.3866 87.7998 44.9046 89.2243 46.0701C93.1092 49.3075 92.4617 52.6744 92.4617 52.6744L93.2387 52.4154C90.5192 54.2283 85.5984 57.9837 85.5984 57.9837C85.7279 57.2067 86.7639 55.3938 86.7639 55.3938C83.5265 57.0772 81.4545 58.8902 81.4545 58.8902C81.4545 58.8902 78.7351 57.4657 78.4761 52.8038C78.2171 48.142 82.102 46.0701 82.102 46.0701C81.584 45.5521 79.9006 45.1636 79.9006 45.1636C79.9006 45.1636 81.9725 44.2571 84.5624 44.3866ZM117.843 55.3938C123.023 56.0412 125.613 61.4801 127.167 64.4585C128.721 67.4369 129.627 67.5664 129.627 67.5664C133.253 67.9549 136.231 62.1276 136.231 62.1276C136.102 65.4945 134.289 67.8254 134.289 67.8254C140.246 63.1635 141.282 67.5664 141.282 67.5664C141.282 67.5664 139.469 65.4945 136.102 69.6383C132.087 74.5592 130.404 73.2642 130.404 73.2642C130.792 73.2642 131.31 72.4872 131.31 72.4872C124.965 72.7462 119.526 63.4225 119.526 63.4225C119.526 63.4225 116.936 59.6671 114.864 58.3722C112.793 57.0772 106.059 57.8542 106.059 57.8542C107.483 56.9477 110.721 56.3002 110.721 56.3002C117.713 55.0053 121.339 61.2211 121.339 61.2211L124.706 65.365C121.08 56.4297 117.843 55.3938 117.843 55.3938ZM106.965 64.07C106.965 64.07 115.641 63.1635 117.454 72.4872C117.454 72.4872 116.677 71.4513 115.641 70.4153C114.994 71.8398 113.57 72.6167 112.016 72.4872C110.073 72.2282 108.649 70.5448 108.778 68.6024C108.908 67.9549 109.167 67.3074 109.555 66.7894C108.131 66.0124 105.8 65.624 105.8 65.624C105.8 65.624 107.224 65.2355 108.778 65.365C108.131 64.847 107.613 64.4585 106.965 64.07ZM125.483 72.2282C126.131 72.2282 126.908 72.4872 127.555 72.8757L130.145 74.8182L129.627 75.0772C129.627 75.0772 127.426 73.6527 125.613 73.5232C123.8 73.3937 122.505 73.6527 121.857 73.7822L121.598 73.3937C121.598 73.3937 123.541 72.0987 125.483 72.2282ZM127.167 75.2067C127.944 75.2067 128.85 75.5951 129.757 76.5016L129.368 76.7606C129.368 76.7606 126.908 75.7246 125.224 76.2426L124.965 75.8541C124.965 75.8541 125.872 75.2067 127.167 75.2067ZM116.936 75.2067C116.936 75.2067 117.325 76.8901 112.793 80.516C109.426 83.2354 108.519 84.6599 108.519 84.6599C108.908 84.4009 111.109 83.7534 111.109 83.7534C106.706 88.4152 105.929 95.667 105.8 96.962C105.67 99.5519 106.059 101.365 106.059 101.365C101.267 95.5375 103.08 89.4512 103.08 89.4512L101.008 90.7462C100.879 83.1059 107.872 79.739 107.872 79.739L106.577 79.221C108.39 78.962 109.944 78.444 111.109 77.9261C110.073 77.7966 109.944 77.5376 109.944 77.5376C114.735 76.2426 116.936 75.2067 116.936 75.2067ZM37.5554 79.48C37.5554 79.48 23.0518 88.9332 18.2605 98.2569L22.5339 97.221C22.5339 97.221 15.4116 106.933 18.5195 113.667C18.5195 113.667 19.9439 115.609 20.5914 115.998C21.2389 116.386 23.1813 118.847 23.8288 120.401L23.6993 119.365C22.9223 117.422 22.7929 115.868 22.7929 115.868C27.7137 124.156 35.613 124.415 35.613 124.415L31.5986 125.322C31.5986 125.322 31.4691 125.322 31.2101 125.451C40.1453 130.76 47.7856 129.724 47.7856 129.724C50.1165 128.947 51.7999 128.43 51.541 126.746C51.4115 126.099 51.023 124.674 50.505 124.156C53.0949 123.509 54.9079 121.825 54.6489 120.012C54.5194 119.235 54.0014 118.588 53.2244 117.94C55.5553 117.163 56.9798 115.609 56.7208 113.926C56.4618 112.76 55.4258 111.725 53.8719 111.207C55.2963 110.3 56.0733 109.135 55.8143 107.84C55.5553 106.415 54.2604 105.379 52.3179 104.861C53.6129 104.084 54.2604 102.919 54.0014 101.753C53.7424 100.07 51.6705 98.7749 49.21 98.5159C44.8072 98.9044 38.5914 100.329 29.3971 103.696C29.3971 103.696 34.7065 99.6814 37.6849 97.9979V95.926C34.1885 97.8684 33.8 98.5159 33.8 98.5159C34.577 97.48 34.9655 96.3145 37.6849 94.3721V92.6886C33.282 96.185 29.5266 99.9404 29.5266 99.9404C31.8576 95.667 34.7065 91.2641 37.6849 87.8973V86.0843C37.6849 86.0843 32.2461 89.8397 27.9727 93.8541C27.9727 93.8541 32.764 86.6023 37.5554 81.4225V79.48ZM117.195 90.4872C117.195 90.4872 120.303 90.8757 121.728 91.1347C123.023 91.5231 127.685 92.3001 129.498 90.8757C129.498 90.8757 129.368 92.1706 131.31 93.5951C131.31 93.5951 132.994 94.89 133.123 95.2785C133.123 95.2785 132.994 95.7965 130.922 98.7749C128.721 101.753 128.591 104.473 128.203 105.897C127.814 107.451 126.519 110.818 126.519 110.818C126.519 110.818 125.224 114.055 120.303 113.667C115.382 113.278 113.052 111.595 113.052 111.595C113.181 112.501 114.605 113.667 114.605 113.667C110.85 112.76 110.591 111.336 110.721 105.509C110.85 99.6814 109.296 94.5016 109.296 94.5016C108.519 94.89 107.742 97.0915 107.742 97.0915C107.742 97.0915 105.67 90.0987 117.195 90.4872ZM165.109 100.07C165.109 100.07 165.238 100.199 165.368 100.329H165.627C165.368 100.199 165.238 100.07 165.109 100.07ZM165.368 100.199C166.663 101.365 172.49 106.933 175.21 115.739C175.21 115.739 168.217 106.286 157.339 103.307C157.339 103.307 170.548 110.3 169.641 125.322C169.641 125.322 166.663 119.106 163.425 116.775C163.425 116.775 170.548 131.019 159.411 142.545C159.411 142.545 164.461 127.912 156.562 117.293C156.562 117.293 158.893 124.933 155.138 131.537C155.138 131.537 156.433 121.048 150.605 115.091C150.605 115.091 150.087 115.868 149.181 116.775V116.904C164.332 149.278 134.936 155.624 134.936 155.624L135.195 154.07C134.03 154.717 126.778 156.789 126.778 156.789C126.778 156.789 121.469 154.329 109.167 153.811C105.282 153.681 102.303 153.681 99.9724 153.94C100.102 153.94 100.231 153.94 100.49 153.94C100.62 153.94 100.879 154.07 101.008 154.07C99.843 154.329 98.548 154.976 98.03 156.142C97.512 157.178 97.771 158.861 98.807 159.509C97.3825 159.768 95.5696 160.544 95.0516 161.969C94.5336 163.264 95.3106 164.818 96.4761 165.336C95.3106 165.854 93.3682 167.019 93.7566 168.573C94.1451 170.127 96.0876 171.034 97.3825 171.422C96.4761 171.94 96.3466 172.976 96.4761 173.883C96.4761 174.53 96.994 175.178 97.512 175.566C98.9365 176.861 101.008 177.379 102.821 177.508C101.785 178.415 101.526 180.098 102.433 181.264C103.339 182.3 105.023 182.429 106.318 182.559C132.864 181.264 140.116 166.372 140.116 166.372C140.116 167.537 139.987 168.832 139.987 169.998C139.857 171.163 139.728 172.329 139.598 173.494C139.598 173.753 139.469 173.883 139.598 174.012C148.145 171.293 148.922 166.501 152.289 162.098L151.123 166.501C157.469 164.041 156.303 160.156 162.39 150.962C162.39 150.962 163.166 155.883 159.411 162.098C164.332 156.789 168.864 149.796 170.289 141.379C170.289 141.379 171.584 149.408 170.289 156.012C168.476 157.825 167.181 165.077 156.044 171.422C197.612 151.609 178.318 112.89 178.318 112.89C173.915 105.897 165.368 100.329 165.368 100.199ZM176.246 119.624C176.246 119.624 178.835 123.509 180.778 129.724C180.648 135.811 179.353 143.063 175.469 150.185C175.339 150.314 175.339 150.444 175.21 150.444L175.08 150.573C174.821 150.962 174.562 151.221 174.303 151.609C177.411 145.264 180.13 134.645 176.246 119.624ZM98.1595 154.199C97.771 154.329 97.3825 154.329 96.8645 154.458C96.6056 154.458 96.4761 154.588 96.2171 154.588C96.8645 154.458 97.512 154.329 98.1595 154.199ZM94.7926 155.106C94.5336 155.235 94.4041 155.235 94.1451 155.365C93.8861 155.494 93.6271 155.624 93.4977 155.753C93.8861 155.365 94.2746 155.235 94.7926 155.106ZM92.3322 156.401C92.0732 156.66 91.8142 156.919 91.8142 157.178C91.9437 156.919 92.2027 156.53 92.3322 156.401ZM88.4473 164.041C88.3178 164.3 88.3178 164.429 88.3178 164.429C88.3178 164.3 88.3178 164.17 88.4473 164.041ZM89.6128 167.926C89.7423 168.055 89.8718 168.055 89.8718 168.055C89.7423 168.055 89.6128 168.055 89.6128 167.926ZM87.2818 170.775C87.2818 170.904 87.2818 170.904 87.2818 170.904C87.2818 170.904 87.2818 170.775 87.2818 170.775ZM90.9077 174.919C91.1667 175.048 91.2962 175.048 91.2962 175.048C91.1667 175.048 91.0372 174.919 90.9077 174.919ZM90.7782 175.825C90.6487 175.955 90.6487 176.214 90.6487 176.343C90.6487 176.214 90.6487 176.084 90.7782 175.825ZM90.5192 177.638C90.5192 177.767 90.5192 177.897 90.5192 177.897C90.5192 177.767 90.5192 177.638 90.5192 177.638ZM97.253 181.911C97.6415 181.911 97.9005 181.911 97.9005 181.911C97.771 181.911 97.512 181.911 97.253 181.911Z" stroke="#89572E" stroke-width="1.73637" stroke-miterlimit="8.1644"/>
<path d="M144.521 51.2487C141.802 51.2487 139.471 52.6731 138.176 54.745L140.248 56.299C140.248 56.299 144.521 50.3422 150.089 56.4285H149.053C149.053 56.4285 150.866 60.3134 145.557 63.2918C145.557 63.2918 146.334 64.8457 146.723 65.8817C149.701 64.9752 151.902 61.9968 151.902 58.7594C152.032 54.6156 148.665 51.2487 144.521 51.2487ZM117.845 55.3925C117.845 55.3925 121.082 56.4285 124.838 65.3637L121.471 61.2198C121.471 61.2198 117.845 54.8745 110.852 56.299C110.852 56.299 107.485 56.9465 106.19 57.853C106.19 57.853 112.795 57.076 114.996 58.3709C117.068 59.6659 119.658 63.4213 119.658 63.4213C119.658 63.4213 124.967 72.745 131.442 72.486C131.442 72.486 130.924 73.263 130.536 73.263C130.536 73.263 132.219 74.4284 136.233 69.6371C139.6 65.4932 141.413 67.5652 141.413 67.5652C141.413 67.5652 140.507 63.1623 134.42 67.8241C134.42 67.8241 136.233 65.4932 136.363 62.1263C136.363 62.1263 133.384 67.9536 129.759 67.5652C129.759 67.5652 128.852 67.5652 127.298 64.4572C125.615 61.4788 123.025 56.04 117.845 55.3925ZM101.399 59.0184C99.1975 59.0184 90.0033 59.4069 85.3415 68.4716L87.5429 67.6946C84.953 73.263 84.0465 80.1263 85.212 87.2485C85.73 90.4859 86.7659 93.4643 88.0609 96.3133C86.2479 95.0183 84.953 92.9464 84.953 92.9464C79.6437 85.5651 82.1041 73.9105 82.1041 73.9105L78.9962 75.7234C77.9602 69.7666 81.3271 63.1623 82.2336 61.6083C82.3631 61.3493 82.3631 61.3493 82.3631 61.3493C72.7804 71.8385 74.5933 80.3853 74.5933 80.3853C75.3703 79.7378 76.7947 78.7018 76.7947 78.7018C77.1832 80.1263 77.1832 82.1982 76.7947 89.0615C76.4063 96.0543 79.5142 98.7737 79.5142 98.7737C79.9026 97.7377 80.9386 96.0543 80.9386 96.0543C80.9386 96.0543 82.4926 100.457 84.5645 102.011C86.6364 103.565 88.5789 106.284 88.5789 106.284C88.7084 105.507 90.0033 103.695 90.0033 103.695C92.4637 107.32 96.8666 108.745 100.493 109.522C104.118 110.299 105.672 112.759 105.672 112.759C105.672 112.63 105.672 112.63 105.672 112.5C105.025 110.428 103.859 107.579 101.269 106.155C96.9961 103.824 94.7947 98.3852 94.7947 98.3852L93.8882 101.882C90.7803 96.9607 88.8379 90.7449 88.8379 83.8816C88.8379 76.6299 90.9098 70.0256 94.4062 65.1047C94.4062 65.1047 92.7227 64.8457 91.4278 64.8457C91.4278 64.8457 93.1112 62.5148 97.9026 62.1263C97.9026 62.1263 96.8666 64.1983 97.1256 66.0112C97.1256 66.0112 98.9385 64.9752 99.7155 65.1047C99.7155 65.1047 94.9242 71.3205 104.377 76.7594C104.377 76.7594 96.7371 68.7306 104.507 61.6083C104.507 61.6083 101.269 61.7378 100.104 62.7738C100.104 62.7738 101.01 60.1839 101.658 59.0184C101.787 59.1479 101.658 59.0184 101.399 59.0184ZM142.061 73.263C142.061 73.522 142.708 77.6658 139.471 81.0327C139.471 81.0327 142.449 80.9032 143.615 78.3133C144.651 75.8529 142.32 73.522 142.061 73.263ZM110.982 77.9248C109.816 78.3133 108.133 78.8313 106.449 79.2198L107.744 79.7378C107.744 79.7378 100.881 83.1047 100.881 90.7449L102.953 89.709C102.953 89.709 101.14 95.7953 105.931 101.623C105.931 101.623 105.543 99.8097 105.672 97.2197C105.672 97.3492 105.672 97.4787 105.672 97.4787C103.73 93.7233 105.543 88.155 105.543 88.155C104.895 88.414 103.73 89.3205 103.73 89.3205C103.73 85.8241 107.874 81.8097 109.946 80.3853C112.018 78.9608 112.536 78.3133 112.536 78.3133C112.406 78.3133 112.277 78.3133 112.018 78.3133C111.888 78.3133 111.759 78.3133 111.629 78.3133C111.5 78.3133 111.37 78.3133 111.37 78.3133C111.241 77.9248 111.111 77.9248 110.982 77.9248ZM152.032 81.6802C156.176 85.1766 160.061 90.4859 160.061 90.4859C156.953 87.7665 151.384 85.0471 151.384 85.0471C156.953 89.191 162.392 96.9607 162.392 96.9607C156.435 91.7809 149.312 88.2845 149.312 88.2845C148.406 92.1694 145.946 95.2773 143.097 99.5507C139.989 104.083 138.435 110.169 138.435 110.169L137.14 107.968C134.679 113.666 130.018 117.292 125.226 119.493C114.867 125.061 104.895 116.515 104.895 116.515V118.716C104.895 118.716 102.046 113.407 95.3127 112.5C91.6868 111.982 89.4853 109.781 88.9674 109.392L88.5789 111.464C88.5789 111.464 87.0249 110.817 86.7659 110.169V134.774H117.715V132.054C112.795 131.536 109.428 128.946 109.428 128.946C115.644 129.205 118.104 128.04 118.492 127.91C117.845 127.781 108.651 125.579 103.6 120.917C121.471 128.687 135.068 117.939 135.068 117.939C134.679 119.234 133.384 122.212 133.384 122.212C141.284 120.529 144.003 116.774 144.003 116.774C143.874 118.716 142.19 121.435 142.19 121.435C145.298 120.27 147.629 118.457 148.924 117.033C149.83 115.997 150.348 115.349 150.348 115.349C156.176 121.306 154.881 131.795 154.881 131.795C158.636 125.191 156.305 117.551 156.305 117.551C164.334 128.169 159.154 142.802 159.154 142.802C170.42 131.277 163.169 117.033 163.169 117.033C166.406 119.493 169.384 125.579 169.384 125.579C170.161 110.558 157.082 103.565 157.082 103.565C167.83 106.543 174.953 115.997 174.953 115.997C172.363 107.191 166.406 101.493 165.24 100.457C165.111 100.328 164.981 100.198 164.981 100.198C165.111 100.328 165.24 100.328 165.499 100.457H165.24C165.37 100.457 173.917 106.025 178.32 113.666L178.838 113.795L182.463 114.831C179.744 109.004 173.658 100.846 173.658 100.846C162.651 86.2126 152.032 81.6802 152.032 81.6802ZM37.687 88.0255C34.7086 91.3924 31.8596 95.7953 29.5287 100.069C29.5287 100.069 33.2841 96.3133 37.687 92.8169V88.0255ZM37.687 94.3708C34.838 96.3133 34.5791 97.3492 33.8021 98.5147C33.8021 98.5147 34.3201 97.8672 37.687 95.9248V94.3708ZM51.9315 98.3852C51.1545 98.3852 50.2481 98.3852 49.2121 98.5147C51.6725 98.9032 53.7445 100.069 54.0035 101.752C54.2624 102.918 53.4855 104.083 52.32 104.86C54.1329 105.378 55.5574 106.543 55.8164 107.838C56.0754 109.133 55.1689 110.299 53.874 111.205C55.4279 111.853 56.4639 112.759 56.7229 113.925C56.9819 115.608 55.5574 117.162 53.2265 117.939C54.0035 118.457 54.5214 119.234 54.6509 120.011C54.9099 121.824 53.2265 123.507 50.5071 124.155C51.1545 124.673 51.4135 126.097 51.543 126.745C51.802 128.428 50.1186 128.946 47.7876 129.723C47.7876 129.723 40.1474 130.759 31.2122 125.45C31.3417 125.45 31.6006 125.32 31.6006 125.32L35.615 124.414C35.615 124.414 27.7158 124.155 22.7949 115.867C22.7949 115.867 22.9244 117.551 23.7014 119.364L23.8309 120.4C23.8309 120.4 30.6942 132.443 44.8092 133.349C44.9387 133.349 45.5862 133.349 46.4927 133.349C49.0826 133.349 54.1329 132.961 56.0754 130.241L54.0035 129.594L56.7229 128.428C56.7229 128.428 56.7229 127.263 55.5574 126.227C55.5574 126.227 58.2768 125.45 59.3128 123.766L56.9819 122.989L59.7013 121.824C59.7013 121.694 59.5718 120.529 58.2768 119.623C58.2768 119.623 60.4782 119.105 61.5142 117.033L58.9243 115.997L61.6437 114.961C61.6437 114.961 61.5142 113.666 59.0538 112.371C59.0538 112.371 60.6077 111.464 60.9962 110.169L57.4998 109.133L60.7372 107.838C60.7372 107.838 60.2193 106.543 57.6293 105.637C57.6293 105.637 58.9243 104.601 59.1833 103.695L56.0754 102.918L58.9243 101.364V101.234C58.7948 100.328 57.4998 98.3852 51.9315 98.3852ZM176.248 119.623C180.133 134.644 177.413 145.263 174.435 151.608C174.694 151.22 174.953 150.961 175.212 150.572L175.341 150.443C175.471 150.313 175.471 150.184 175.6 150.054C179.485 142.932 180.78 135.81 180.91 129.594C178.838 123.507 176.248 119.623 176.248 119.623ZM170.291 141.896C168.866 150.184 164.334 157.176 159.413 162.615C163.169 156.399 162.392 151.479 162.392 151.479C156.305 160.673 157.471 164.558 151.125 167.018L152.291 162.615C148.794 167.018 148.147 171.809 139.6 174.529C139.6 174.399 139.6 174.27 139.6 174.011C139.73 172.845 139.859 171.68 139.989 170.514C140.118 169.349 140.118 168.054 140.118 166.889C140.118 166.889 132.866 181.781 106.32 183.076C105.025 182.946 103.341 182.817 102.435 181.781C101.528 180.615 101.787 178.932 102.823 178.025C101.01 177.896 98.9386 177.248 97.5141 176.083C96.9961 175.694 96.4781 175.047 96.4781 174.399C96.4781 173.493 96.6076 172.457 97.3846 171.939C96.0896 171.421 94.1472 170.514 93.7587 169.09C93.3702 167.536 95.1832 166.371 96.4781 165.853C95.3127 165.205 94.5357 163.781 95.0537 162.486C95.5717 161.061 97.5141 160.284 98.8091 160.025C97.9026 159.378 97.6436 157.694 98.0321 156.658C98.5501 155.493 99.845 154.845 101.01 154.586C100.881 154.586 100.622 154.457 100.493 154.457C100.363 154.457 100.234 154.327 99.9745 154.327C99.845 154.327 99.586 154.327 99.4565 154.327C98.5501 154.457 97.7731 154.586 96.9961 154.716C96.0896 154.845 95.1832 155.104 94.2767 155.493C93.8882 155.622 93.4997 155.881 93.1112 156.14C92.9817 156.27 92.4638 156.788 92.3343 156.788C92.3343 156.788 91.9458 157.306 91.8163 157.565C91.8163 157.694 91.6868 157.824 91.6868 157.824C91.9458 157.953 92.3343 158.083 92.5932 158.212C93.3702 158.471 94.1472 158.73 94.9242 159.119L91.2983 160.025C91.2983 160.155 91.2983 160.284 91.2983 160.414V160.543C91.2983 160.673 91.2983 160.673 91.2983 160.802C91.2983 160.932 91.4278 160.932 91.4278 161.061C91.4278 161.061 91.4278 161.191 91.5573 161.191C91.5573 161.191 91.5573 161.32 91.6868 161.32C91.6868 161.45 91.8163 161.579 91.9458 161.709C91.4278 161.838 90.7803 162.097 90.2623 162.486C90.1328 162.615 90.0033 162.615 89.8738 162.745C89.3559 163.133 88.8379 163.781 88.5789 164.428C88.5789 164.558 88.4494 164.687 88.4494 164.817L91.6868 166.112L88.9674 167.277C88.9674 167.407 89.0969 167.536 89.0969 167.666C89.0969 167.666 89.0969 167.795 89.2263 167.795C89.2263 167.925 89.3558 167.925 89.3558 167.925L89.4853 168.054C89.6148 168.184 89.6148 168.184 89.7443 168.313C89.7443 168.313 89.8738 168.313 89.8738 168.443C90.0033 168.572 90.1328 168.572 90.1328 168.572C89.2263 169.09 87.8019 169.996 87.5429 171.162V171.291L91.1688 172.457L88.5789 173.622L88.3199 173.752C88.4494 173.881 88.5789 174.011 88.7084 174.14C88.7084 174.14 88.8379 174.14 88.8379 174.27C89.4853 174.788 90.2623 175.176 91.0393 175.435C91.1688 175.435 91.2983 175.565 91.4278 175.565C91.2983 175.694 91.2983 175.694 91.1688 175.824C90.9098 176.083 90.7803 176.471 90.6508 176.86C90.6508 176.989 90.6508 177.119 90.6508 177.119V177.248V177.378C90.6508 177.507 90.6508 177.637 90.6508 177.637C90.6508 177.766 90.6508 177.766 90.6508 177.896C90.6508 178.025 90.6508 178.155 90.6508 178.155L94.4062 178.932L91.9458 180.097C92.0753 180.227 92.3343 180.356 92.4638 180.486C92.5932 180.615 92.7227 180.615 92.7227 180.745C92.8522 180.745 92.8522 180.874 92.9817 180.874C94.2767 181.651 95.7011 182.04 97.1256 182.169C97.3846 182.169 97.5141 182.169 97.7731 182.169L97.6436 182.299C97.6436 182.299 97.6436 182.428 97.5141 182.428L97.3846 182.558C97.3846 182.558 97.3846 182.687 97.2551 182.687C96.7371 183.335 96.4781 183.853 96.4781 184.371V184.5L100.104 184.63L97.9026 186.572C102.176 187.996 106.708 188.126 111.241 187.737C120.694 186.831 129.759 183.335 138.046 178.673L138.564 178.414C146.205 176.601 151.773 174.399 156.046 171.939C167.183 165.594 168.348 158.342 170.291 156.529C171.586 149.795 170.291 141.896 170.291 141.896Z" fill="#5E3920"/>
<path d="M165.24 100.457C166.406 101.493 172.363 107.191 174.953 115.997C174.953 115.997 167.83 106.543 157.082 103.565C157.082 103.565 170.161 110.558 169.384 125.579C169.384 125.579 166.406 119.493 163.169 117.033C163.169 117.033 170.42 131.277 159.154 142.802C159.154 142.802 164.334 128.169 156.305 117.551C156.305 117.551 158.636 125.191 154.881 131.795C154.881 131.795 156.176 121.306 150.348 115.349C150.348 115.349 149.83 115.997 148.924 117.033C147.629 118.457 145.298 120.27 142.19 121.435C142.19 121.435 143.874 118.716 144.003 116.774C144.003 116.774 141.284 120.529 133.384 122.212C133.384 122.212 134.679 119.234 135.068 117.939C135.068 117.939 121.471 128.687 103.6 120.917C108.651 125.579 117.845 127.781 118.492 127.91C118.104 128.04 115.644 129.205 109.428 128.946C109.428 128.946 112.795 131.536 117.715 132.054V134.774H86.7659V110.169C87.0249 110.817 88.5789 111.464 88.5789 111.464L88.9674 109.392C89.4853 109.781 91.6868 111.982 95.3127 112.5C102.046 113.407 104.895 118.716 104.895 118.716V116.515C104.895 116.515 114.867 125.061 125.226 119.493C130.018 117.292 134.679 113.666 137.14 107.968L138.435 110.169C138.435 110.169 139.989 104.083 143.097 99.5507C145.946 95.2773 148.406 92.1694 149.312 88.2845C149.312 88.2845 156.435 91.7809 162.392 96.9607C162.392 96.9607 156.953 89.191 151.384 85.0471C151.384 85.0471 156.953 87.7665 160.061 90.4859C160.061 90.4859 156.176 85.1766 152.032 81.6802C152.032 81.6802 162.651 86.2126 173.658 100.846C173.658 100.846 179.744 109.004 182.463 114.831L178.838 113.795L178.32 113.666C173.917 106.025 165.37 100.457 165.24 100.457ZM165.24 100.457C165.111 100.328 164.981 100.198 164.981 100.198C165.111 100.328 165.24 100.328 165.499 100.457H165.24ZM144.521 51.2487C141.802 51.2487 139.471 52.6731 138.176 54.745L140.248 56.299C140.248 56.299 144.521 50.3422 150.089 56.4285H149.053C149.053 56.4285 150.866 60.3134 145.557 63.2918C145.557 63.2918 146.334 64.8457 146.723 65.8817C149.701 64.9752 151.902 61.9968 151.902 58.7594C152.032 54.6156 148.665 51.2487 144.521 51.2487ZM117.845 55.3925C117.845 55.3925 121.082 56.4285 124.838 65.3637L121.471 61.2198C121.471 61.2198 117.845 54.8745 110.852 56.299C110.852 56.299 107.485 56.9465 106.19 57.853C106.19 57.853 112.795 57.076 114.996 58.3709C117.068 59.6659 119.658 63.4213 119.658 63.4213C119.658 63.4213 124.967 72.745 131.442 72.486C131.442 72.486 130.924 73.263 130.536 73.263C130.536 73.263 132.219 74.4284 136.233 69.6371C139.6 65.4932 141.413 67.5652 141.413 67.5652C141.413 67.5652 140.507 63.1623 134.42 67.8241C134.42 67.8241 136.233 65.4932 136.363 62.1263C136.363 62.1263 133.384 67.9536 129.759 67.5652C129.759 67.5652 128.852 67.5652 127.298 64.4572C125.615 61.4788 123.025 56.04 117.845 55.3925ZM101.399 59.0184C99.1975 59.0184 90.0033 59.4069 85.3415 68.4716L87.5429 67.6946C84.953 73.263 84.0465 80.1263 85.212 87.2485C85.73 90.4859 86.7659 93.4643 88.0609 96.3133C86.2479 95.0183 84.953 92.9464 84.953 92.9464C79.6437 85.5651 82.1041 73.9105 82.1041 73.9105L78.9962 75.7234C77.9602 69.7666 81.3271 63.1623 82.2336 61.6083C82.3631 61.3493 82.3631 61.3493 82.3631 61.3493C72.7804 71.8385 74.5933 80.3853 74.5933 80.3853C75.3703 79.7378 76.7947 78.7018 76.7947 78.7018C77.1832 80.1263 77.1832 82.1982 76.7947 89.0615C76.4063 96.0543 79.5142 98.7737 79.5142 98.7737C79.9026 97.7377 80.9386 96.0543 80.9386 96.0543C80.9386 96.0543 82.4926 100.457 84.5645 102.011C86.6364 103.565 88.5789 106.284 88.5789 106.284C88.7084 105.507 90.0033 103.695 90.0033 103.695C92.4637 107.32 96.8666 108.745 100.493 109.522C104.118 110.299 105.672 112.759 105.672 112.759C105.672 112.63 105.672 112.63 105.672 112.5C105.025 110.428 103.859 107.579 101.269 106.155C96.9961 103.824 94.7947 98.3852 94.7947 98.3852L93.8882 101.882C90.7803 96.9607 88.8379 90.7449 88.8379 83.8816C88.8379 76.6299 90.9098 70.0256 94.4062 65.1047C94.4062 65.1047 92.7227 64.8457 91.4278 64.8457C91.4278 64.8457 93.1112 62.5148 97.9026 62.1263C97.9026 62.1263 96.8666 64.1983 97.1256 66.0112C97.1256 66.0112 98.9385 64.9752 99.7155 65.1047C99.7155 65.1047 94.9242 71.3205 104.377 76.7594C104.377 76.7594 96.7371 68.7306 104.507 61.6083C104.507 61.6083 101.269 61.7378 100.104 62.7738C100.104 62.7738 101.01 60.1839 101.658 59.0184C101.787 59.1479 101.658 59.0184 101.399 59.0184ZM142.061 73.263C142.061 73.522 142.708 77.6658 139.471 81.0327C139.471 81.0327 142.449 80.9032 143.615 78.3133C144.651 75.8529 142.32 73.522 142.061 73.263ZM110.982 77.9248C109.816 78.3133 108.133 78.8313 106.449 79.2198L107.744 79.7378C107.744 79.7378 100.881 83.1047 100.881 90.7449L102.953 89.709C102.953 89.709 101.14 95.7953 105.931 101.623C105.931 101.623 105.543 99.8096 105.672 97.2197C105.672 97.3492 105.672 97.4787 105.672 97.4787C103.73 93.7233 105.543 88.155 105.543 88.155C104.895 88.414 103.73 89.3205 103.73 89.3205C103.73 85.8241 107.874 81.8097 109.946 80.3853C112.018 78.9608 112.536 78.3133 112.536 78.3133C112.406 78.3133 112.277 78.3133 112.018 78.3133C111.888 78.3133 111.759 78.3133 111.629 78.3133C111.5 78.3133 111.37 78.3133 111.37 78.3133C111.241 77.9248 111.111 77.9248 110.982 77.9248ZM37.687 88.0255C34.7086 91.3924 31.8596 95.7953 29.5287 100.069C29.5287 100.069 33.2841 96.3133 37.687 92.8169V88.0255ZM37.687 94.3708C34.838 96.3133 34.5791 97.3492 33.8021 98.5147C33.8021 98.5147 34.3201 97.8672 37.687 95.9248V94.3708ZM51.9315 98.3852C51.1545 98.3852 50.2481 98.3852 49.2121 98.5147C51.6725 98.9032 53.7445 100.069 54.0035 101.752C54.2624 102.918 53.4855 104.083 52.32 104.86C54.1329 105.378 55.5574 106.543 55.8164 107.838C56.0754 109.133 55.1689 110.299 53.874 111.205C55.4279 111.853 56.4639 112.759 56.7229 113.925C56.9819 115.608 55.5574 117.162 53.2265 117.939C54.0034 118.457 54.5214 119.234 54.6509 120.011C54.9099 121.824 53.2265 123.507 50.5071 124.155C51.1545 124.673 51.4135 126.097 51.543 126.745C51.802 128.428 50.1186 128.946 47.7876 129.723C47.7876 129.723 40.1474 130.759 31.2122 125.45C31.3417 125.45 31.6006 125.32 31.6006 125.32L35.615 124.414C35.615 124.414 27.7158 124.155 22.7949 115.867C22.7949 115.867 22.9244 117.551 23.7014 119.364L23.8309 120.4C23.8309 120.4 30.6942 132.443 44.8092 133.349C44.9387 133.349 45.5862 133.349 46.4927 133.349C49.0826 133.349 54.1329 132.961 56.0754 130.241L54.0035 129.594L56.7229 128.428C56.7229 128.428 56.7229 127.263 55.5574 126.227C55.5574 126.227 58.2768 125.45 59.3128 123.766L56.9819 122.989L59.7013 121.824C59.7013 121.694 59.5718 120.529 58.2768 119.623C58.2768 119.623 60.4783 119.105 61.5142 117.033L58.9243 115.997L61.6437 114.961C61.6437 114.961 61.5142 113.666 59.0538 112.371C59.0538 112.371 60.6077 111.464 60.9962 110.169L57.4998 109.133L60.7372 107.838C60.7372 107.838 60.2193 106.543 57.6293 105.637C57.6293 105.637 58.9243 104.601 59.1833 103.695L56.0754 102.918L58.9243 101.364V101.234C58.7948 100.328 57.4998 98.3852 51.9315 98.3852ZM176.248 119.623C180.133 134.644 177.413 145.263 174.435 151.608C174.694 151.22 174.953 150.961 175.212 150.572L175.341 150.443C175.471 150.313 175.471 150.184 175.6 150.054C179.485 142.932 180.78 135.81 180.91 129.594C178.838 123.507 176.248 119.623 176.248 119.623ZM170.291 141.896C168.866 150.184 164.334 157.176 159.413 162.615C163.169 156.399 162.392 151.479 162.392 151.479C156.305 160.673 157.471 164.558 151.125 167.018L152.291 162.615C148.794 167.018 148.147 171.809 139.6 174.529C139.6 174.399 139.6 174.27 139.6 174.011C139.73 172.845 139.859 171.68 139.989 170.514C140.118 169.349 140.118 168.054 140.118 166.889C140.118 166.889 132.866 181.781 106.32 183.076C105.025 182.946 103.341 182.817 102.435 181.781C101.528 180.615 101.787 178.932 102.823 178.025C101.01 177.896 98.9386 177.248 97.5141 176.083C96.9961 175.694 96.4781 175.047 96.4781 174.399C96.4781 173.493 96.6076 172.457 97.3846 171.939C96.0896 171.421 94.1472 170.514 93.7587 169.09C93.3702 167.536 95.1832 166.371 96.4781 165.853C95.3127 165.205 94.5357 163.781 95.0537 162.486C95.5717 161.061 97.5141 160.284 98.8091 160.025C97.9026 159.378 97.6436 157.694 98.0321 156.658C98.5501 155.493 99.845 154.845 101.01 154.586C100.881 154.586 100.622 154.457 100.493 154.457C100.363 154.457 100.234 154.327 99.9745 154.327C99.845 154.327 99.586 154.327 99.4565 154.327C98.5501 154.457 97.7731 154.586 96.9961 154.716C96.0896 154.845 95.1832 155.104 94.2767 155.493C93.8882 155.622 93.4997 155.881 93.1112 156.14C92.9817 156.27 92.4638 156.788 92.3343 156.788C92.3343 156.788 91.9458 157.306 91.8163 157.565C91.8163 157.694 91.6868 157.824 91.6868 157.824C91.9458 157.953 92.3343 158.083 92.5932 158.212C93.3702 158.471 94.1472 158.73 94.9242 159.119L91.2983 160.025C91.2983 160.155 91.2983 160.284 91.2983 160.414V160.543C91.2983 160.673 91.2983 160.673 91.2983 160.802C91.2983 160.932 91.4278 160.932 91.4278 161.061C91.4278 161.061 91.4278 161.191 91.5573 161.191C91.5573 161.191 91.5573 161.32 91.6868 161.32C91.6868 161.45 91.8163 161.579 91.9458 161.709C91.4278 161.838 90.7803 162.097 90.2623 162.486C90.1328 162.615 90.0033 162.615 89.8738 162.745C89.3558 163.133 88.8379 163.781 88.5789 164.428C88.5789 164.558 88.4494 164.687 88.4494 164.817L91.6868 166.112L88.9674 167.277C88.9674 167.407 89.0969 167.536 89.0969 167.666C89.0969 167.666 89.0969 167.795 89.2264 167.795C89.2264 167.925 89.3558 167.925 89.3558 167.925L89.4853 168.054C89.6148 168.184 89.6148 168.184 89.7443 168.313C89.7443 168.313 89.8738 168.313 89.8738 168.443C90.0033 168.572 90.1328 168.572 90.1328 168.572C89.2264 169.09 87.8019 169.996 87.5429 171.162V171.291L91.1688 172.457L88.5789 173.622L88.3199 173.752C88.4494 173.881 88.5789 174.011 88.7084 174.14C88.7084 174.14 88.8379 174.14 88.8379 174.27C89.4853 174.788 90.2623 175.176 91.0393 175.435C91.1688 175.435 91.2983 175.565 91.4278 175.565C91.2983 175.694 91.2983 175.694 91.1688 175.824C90.9098 176.083 90.7803 176.471 90.6508 176.86C90.6508 176.989 90.6508 177.119 90.6508 177.119V177.248V177.378C90.6508 177.507 90.6508 177.637 90.6508 177.637C90.6508 177.766 90.6508 177.766 90.6508 177.896C90.6508 178.025 90.6508 178.155 90.6508 178.155L94.4062 178.932L91.9458 180.097C92.0753 180.227 92.3343 180.356 92.4638 180.486C92.5932 180.615 92.7227 180.615 92.7227 180.745C92.8522 180.745 92.8522 180.874 92.9817 180.874C94.2767 181.651 95.7011 182.04 97.1256 182.169C97.3846 182.169 97.5141 182.169 97.7731 182.169L97.6436 182.299C97.6436 182.299 97.6436 182.428 97.5141 182.428L97.3846 182.558C97.3846 182.558 97.3846 182.687 97.2551 182.687C96.7371 183.335 96.4781 183.853 96.4781 184.371V184.5L100.104 184.63L97.9026 186.572C102.176 187.996 106.708 188.126 111.241 187.737C120.694 186.831 129.759 183.335 138.046 178.673L138.564 178.414C146.205 176.601 151.773 174.399 156.046 171.939C167.183 165.594 168.348 158.342 170.291 156.529C171.586 149.795 170.291 141.896 170.291 141.896Z" stroke="#5E3920" stroke-width="1.73637" stroke-miterlimit="8.1644"/>
<path d="M64.2328 8L37.8156 32.4747V75.2084C37.8156 75.2084 14.8948 87.899 12.6934 103.18L15.2833 102.662C15.2833 102.662 11.9164 109.784 15.2833 115.223C18.6502 120.532 18.1322 118.59 21.1106 124.028C24.7365 130.892 35.0962 135.813 35.0962 135.813V149.669L62.4198 176.604H85.8586C85.8586 176.604 85.7291 177.122 86.2471 178.546C84.6931 178.676 82.3622 178.676 80.9377 178.158L80.6787 178.676C80.6787 178.676 83.6572 181.007 88.7075 181.654C89.614 182.69 91.0384 183.726 92.9809 184.633C92.9809 184.633 93.1104 184.892 93.2399 185.409C91.6859 185.539 89.4845 185.539 88.06 184.891L87.801 185.409C87.801 185.409 90.7794 187.87 95.0528 188.258C110.592 199.525 140.894 181.784 140.894 181.784C140.894 181.784 196.448 171.683 185.182 119.755L188.937 121.05C188.937 121.05 179.355 90.6184 150.995 77.5393C150.995 77.5393 152.42 73.784 149.312 69.1221C149.312 69.1221 153.067 67.4387 154.362 65.1077H167.182V32.7337L140.765 8H64.2328ZM65.9162 11.8849H139.211L163.297 34.4172V60.5754H155.009C155.139 60.1869 155.268 59.1509 155.268 59.1509C155.268 59.1509 155.527 51.5106 148.276 48.2732C141.412 45.1653 135.844 50.9927 135.197 52.4171C135.197 52.4171 131.571 49.1797 125.743 49.4387C125.743 49.4387 124.578 48.5322 123.542 47.8848C122.894 47.3668 121.988 46.9783 121.988 46.9783V39.597H90.9089C89.873 38.6905 88.578 38.1726 88.578 38.1726H88.7075C88.7075 38.1726 78.8658 35.1942 73.5565 45.2948C68.5061 54.8775 76.2759 62.1293 77.0529 62.6473C77.0529 62.6473 69.0241 71.971 72.132 85.8271L73.8155 85.3091C73.8155 85.3091 73.945 87.7695 73.686 91.0069C73.427 94.2443 74.9809 100.719 81.4557 104.863L81.7147 104.216V103.439C81.7147 103.439 82.3622 104.086 82.8802 104.604C82.8802 104.604 82.8802 104.604 83.0097 104.733C83.1392 104.863 83.2687 104.992 83.2687 104.992V138.791H122.117V124.546H147.499C147.499 124.546 147.887 125.064 148.017 125.971C148.017 125.971 155.268 143.194 138.175 150.446V148.762C138.175 148.762 132.736 151.741 126.909 152.777C126.909 152.777 90.6499 145.913 88.319 156.661C88.319 156.661 86.8946 156.791 83.3982 155.237L82.7507 155.755C82.7507 155.755 82.7507 158.215 87.542 159.51C87.542 159.51 85.2111 161.194 84.8226 164.172C84.8226 164.172 81.1967 164.172 79.2543 162.877L78.8658 163.266C78.8658 163.266 80.1608 165.985 84.4341 167.28C84.4341 167.28 83.6572 168.705 83.5277 170.388C81.9737 170.517 80.0313 170.388 78.7363 169.87L78.4773 170.388C78.4773 170.388 78.4773 170.388 78.6068 170.517C78.9953 170.776 79.9018 171.424 81.1967 171.942H64.1033L38.981 147.208V146.043V136.848C38.981 136.848 39.8875 136.978 40.535 136.978V137.107C44.9379 137.755 57.24 138.92 60.9954 130.503C60.9954 130.503 65.3982 130.374 67.4702 128.431L67.2112 127.913C67.2112 127.913 64.8802 128.69 61.3838 127.784C61.3838 127.784 63.8443 125.841 64.1033 123.251C64.1033 123.251 67.9881 122.992 69.9306 121.309L69.8011 120.791C69.8011 120.791 66.9522 121.438 64.1033 120.661C64.1033 120.661 65.5277 118.59 65.6572 116.518C65.6572 116.518 69.8011 116 71.355 114.316L71.2255 113.798C71.2255 113.798 69.2831 114.316 65.7867 113.928C65.7867 113.928 65.5277 112.374 64.8802 111.856C64.8802 111.856 65.6572 109.913 65.5277 108.877C65.5277 108.877 70.3191 107.453 71.614 104.733L71.096 104.216C71.096 104.216 69.8011 105.51 64.4918 105.899C64.4918 105.899 63.9738 104.733 63.1968 104.216C63.1968 104.216 63.4558 102.791 63.4558 102.144C63.4558 102.144 67.7292 100.46 68.6356 98.2587L68.5061 97.8702C68.5061 97.8702 66.1752 99.4242 62.9378 99.5536C62.9378 99.5536 61.2544 91.9134 43.2544 96.4458V96.3163C43.2544 96.3163 42.2184 96.5752 41.83 96.5752V34.2877L65.9162 11.8849ZM85.4701 41.7984C90.6499 41.7984 95.0528 45.6833 95.7003 50.7337L96.0888 50.6042C96.0888 50.6042 100.103 47.6258 108.779 47.7553L108.261 46.9783C108.261 46.9783 123.801 46.4603 130.146 59.1509C130.146 59.1509 130.405 56.4315 128.333 53.3236C130.405 53.5826 135.585 54.748 140.117 59.7984C141.412 61.2228 142.707 63.0358 143.873 65.1077C143.873 65.1077 145.168 67.9566 145.427 68.9926C145.427 68.9926 146.333 71.3235 146.981 72.6185C147.758 74.1724 147.628 76.8919 146.981 78.7048C146.981 78.7048 145.686 82.5897 146.074 84.6616C146.463 86.7336 145.038 90.8774 143.614 92.5609C143.614 92.5609 139.081 98.7767 138.434 101.626L137.786 100.201C137.786 100.201 136.362 102.273 134.679 105.64C132.995 109.136 130.664 113.28 125.873 115.482C125.873 115.482 126.52 113.28 126.65 112.115C126.65 112.115 126.002 114.187 123.412 116.518C123.412 116.518 121.988 118.072 117.974 117.554C113.83 117.036 110.463 115.093 110.463 115.093C110.463 115.093 108.65 114.446 108.391 111.467C108.391 111.467 108.132 106.546 106.707 104.733C106.707 104.733 106.837 109.395 105.93 112.633C105.93 112.633 104.247 110.172 100.751 109.395C97.1247 108.618 92.7219 107.194 90.2615 103.568C90.2615 103.568 88.9665 105.381 88.837 106.158C88.837 106.158 87.024 103.439 84.8226 101.885C82.7507 100.331 81.1967 95.9278 81.1967 95.9278C81.1967 95.9278 80.1608 97.4817 79.7723 98.6472C79.7723 98.6472 76.6644 95.9278 77.0529 88.935C77.4414 82.0717 77.4414 79.9998 77.0529 78.5753C77.0529 78.5753 75.6284 79.4818 74.8514 80.2588C74.8514 80.2588 73.0385 71.712 82.6212 61.2228C82.6212 61.2228 82.4917 61.3523 82.4917 61.4818C83.0097 60.8344 83.6572 60.1869 84.3046 59.5394C84.3046 59.5394 82.7507 60.0574 81.1967 61.2228C77.7003 59.5394 75.3694 56.043 75.3694 51.8991C75.1104 46.4603 79.7723 41.7984 85.4701 41.7984ZM95.3118 43.3524H117.974V45.8128C111.758 43.6114 105.283 44.2589 105.283 44.2589L105.671 45.2948C103.082 45.1653 98.1607 46.0718 98.1607 46.0718C97.5132 44.6474 95.3118 43.3524 95.3118 43.3524ZM84.5636 44.3884C81.9737 44.2589 79.7723 45.1653 79.7723 45.1653C79.7723 45.1653 81.4557 45.5538 81.9737 46.0718C81.9737 46.0718 77.9593 48.1438 78.3478 52.8056C78.6068 57.4675 81.4557 58.8919 81.4557 58.8919C81.4557 58.8919 83.5277 57.079 86.7651 55.3955C86.7651 55.3955 85.7291 57.2085 85.5996 57.9854C85.5996 57.9854 90.5204 54.2301 93.2399 52.4171L92.4629 52.6761C92.4629 52.6761 93.2399 49.3092 89.355 46.0718C87.801 44.9064 86.1176 44.3884 84.5636 44.3884ZM144.52 51.2517C148.664 51.2517 152.031 54.6185 152.031 58.7624C152.031 62.1293 149.83 64.9782 146.851 65.8847C146.463 64.8487 145.686 63.2948 145.686 63.2948C150.995 60.3164 149.182 56.4315 149.182 56.4315H150.218C144.65 50.3452 140.376 56.302 140.376 56.302L138.304 54.748C139.47 52.6761 141.93 51.2517 144.52 51.2517ZM106.966 64.0718C107.614 64.4602 108.132 64.8487 108.779 65.2372C107.225 65.1077 105.801 65.4962 105.801 65.4962C105.801 65.4962 108.261 65.8847 109.556 66.6617C109.168 67.1797 108.909 67.8271 108.779 68.4746C108.52 70.4171 110.074 72.23 112.017 72.3595C113.571 72.489 114.995 71.5825 115.643 70.2876C116.679 71.3235 117.456 72.3595 117.456 72.3595C115.643 63.2948 106.966 64.0718 106.966 64.0718ZM111.24 67.6976C111.499 67.8271 111.887 68.0861 112.276 68.3451C112.017 68.6041 111.887 68.8631 112.017 69.1221C112.146 69.6401 112.535 69.8991 113.053 69.7696C113.312 69.7696 113.571 69.5106 113.7 69.2516C113.959 69.5106 114.348 69.7696 114.607 70.0286C114.348 70.4171 113.83 70.8055 113.312 70.935C112.146 71.194 111.11 70.4171 110.851 69.3811C110.722 68.8631 110.851 68.2156 111.24 67.6976ZM139.599 71.453C138.045 71.3235 136.103 71.712 134.29 73.3955L132.089 75.2084C132.089 75.2084 133.513 75.3379 134.031 76.3739L134.29 77.1509C134.29 77.1509 132.866 76.8919 132.089 77.2803C132.089 77.2803 134.42 77.9278 135.197 79.4818L135.456 80.2588C135.456 80.2588 133.643 80.3883 131.312 79.2228C128.981 78.0573 126.261 77.1509 123.671 79.8703C123.671 79.8703 122.635 81.0357 122.506 82.5897C122.506 82.5897 122.376 83.2372 123.412 84.1436L123.93 84.5321C123.93 84.5321 125.096 85.8271 127.297 84.0141C127.297 84.0141 127.556 83.7551 127.815 83.4962C128.074 83.1077 128.722 82.5897 129.499 82.9782C130.276 83.2372 130.923 84.1436 129.887 85.5681C129.887 85.5681 129.369 86.6041 127.297 87.122C127.297 87.122 128.074 88.2875 130.017 89.712C130.017 89.712 132.089 88.8055 133.254 88.5465C133.254 88.5465 132.089 87.2515 132.736 85.8271C132.736 85.8271 133.254 84.0141 134.549 84.1436C135.844 84.2731 135.326 85.8271 135.326 85.8271C135.326 85.8271 134.549 87.5105 135.585 87.64C135.585 87.64 136.492 87.7695 137.398 87.2515C137.398 87.2515 138.304 89.712 134.938 94.3738C134.938 94.3738 133.513 96.3163 133.643 97.2227L136.88 94.1148C136.88 94.1148 141.153 89.971 138.693 85.0501C138.693 85.0501 139.858 82.2012 137.786 80.7767L137.398 77.1509L137.139 77.0214C138.693 77.4099 140.247 76.5034 140.635 74.9494C140.765 74.3019 140.765 73.6545 140.506 73.1365C141.024 73.1365 141.542 73.1365 142.06 73.266C142.448 73.266 142.837 73.3955 142.837 73.3955C142.837 73.3955 142.06 72.8775 141.024 72.489C141.542 72.3595 141.93 72.23 142.448 72.23C142.319 72.1005 141.153 71.5825 139.599 71.453ZM125.484 72.23C123.412 72.1005 121.599 73.3955 121.599 73.3955L121.858 73.784C122.376 73.6545 123.801 73.3955 125.614 73.525C127.427 73.6545 129.628 75.0789 129.628 75.0789L130.146 74.8199L127.556 72.8775C126.909 72.489 126.261 72.23 125.484 72.23ZM138.563 73.6545C138.693 74.0429 138.693 74.4314 138.434 74.8199C138.045 75.4674 137.139 75.5969 136.621 75.2084C136.362 75.0789 136.103 74.6904 136.103 74.4314C136.362 74.3019 136.621 74.3019 136.88 74.1724C136.88 74.3019 137.009 74.4314 137.139 74.5609C137.398 74.6904 137.786 74.6904 137.916 74.4314C138.045 74.3019 138.045 74.043 137.916 73.9135C138.045 73.6545 138.304 73.6545 138.563 73.6545ZM116.938 75.2084C116.938 75.2084 114.736 76.2444 109.945 77.5393C109.945 77.5393 110.074 77.7983 111.11 77.9278C111.24 77.9278 111.24 77.9278 111.369 77.9278C111.499 77.9278 111.628 77.9278 111.628 77.9278C111.758 77.9278 111.887 77.9278 112.017 77.9278C112.146 77.9278 112.276 77.9278 112.535 77.9278C112.535 77.9278 112.146 78.5753 109.945 79.9998C107.873 81.4242 103.729 85.3091 103.729 88.935C103.729 88.935 104.894 88.158 105.542 87.7695C105.542 87.7695 103.729 93.3379 105.671 97.0932C105.671 97.0932 105.671 96.9637 105.671 96.8342C105.801 95.4098 106.578 88.2875 110.981 83.6257C110.981 83.6257 108.909 84.1436 108.391 84.5321C108.391 84.5321 109.427 83.1077 112.664 80.3883C117.326 76.8919 116.938 75.2084 116.938 75.2084ZM127.168 75.2084C125.873 75.0789 124.966 75.8559 124.966 75.8559L125.225 76.2444C126.909 75.7264 129.369 76.7624 129.369 76.7624L129.887 76.5034C128.851 75.5969 127.945 75.2084 127.168 75.2084ZM37.5566 79.4818V81.4242C32.7652 86.6041 27.9739 93.8558 27.9739 93.8558C32.2473 89.8415 37.6861 86.0861 37.6861 86.0861V97.8702C34.7077 99.6832 29.3983 103.698 29.3983 103.698C54.7796 94.6328 58.5349 99.8127 59.0529 100.978C59.0529 101.108 59.0529 101.108 59.0529 101.108L56.204 102.662L59.3119 103.439C59.0529 104.345 57.758 105.381 57.758 105.381C60.3479 106.158 60.8659 107.582 60.8659 107.582L57.6285 108.877L61.1249 109.913C60.7364 111.208 59.1824 112.115 59.1824 112.115C61.7723 113.41 61.7723 114.705 61.7723 114.705L59.0529 115.741L61.6428 116.777C60.6069 118.849 58.4054 119.367 58.4054 119.367C59.7004 120.273 59.8299 121.438 59.8299 121.568L57.1105 122.733L59.4414 123.51C58.5349 125.323 55.686 125.971 55.686 125.971C56.8515 127.007 56.8515 128.172 56.8515 128.172L54.1321 129.338L56.204 129.985C54.2616 132.705 49.2112 133.093 46.6213 133.093C45.7148 133.093 45.0674 133.093 44.9379 133.093C30.6933 132.187 23.9595 120.144 23.9595 120.144C23.312 118.59 21.3696 116.129 20.7221 115.741C20.0746 115.352 18.6502 113.41 18.6502 113.41C15.5423 106.676 22.6646 96.9637 22.6646 96.9637L18.3912 97.9997C23.053 88.935 37.5566 79.4818 37.5566 79.4818ZM128.074 79.8703C128.851 79.8703 129.758 80.1293 130.794 80.7767C133.254 82.2012 135.456 82.0717 135.456 82.0717C135.456 82.0717 137.139 81.9422 137.268 83.2372C137.268 83.2372 136.103 82.8487 133.902 82.8487C131.7 82.8487 130.017 81.5537 130.017 81.5537C130.017 81.5537 129.24 80.7767 126.132 80.5177C126.261 80.2588 126.909 79.7408 128.074 79.8703ZM152.031 81.6832C152.031 81.6832 162.65 86.2156 173.786 100.719C173.786 100.719 179.873 108.877 182.592 114.705L178.966 113.669L178.448 113.539C178.448 113.539 197.743 152.129 156.175 172.071C151.902 174.402 146.333 176.733 138.693 178.546L138.175 178.805C129.887 183.467 120.822 186.963 111.369 187.87C106.837 188.258 102.434 187.999 98.0312 186.704L100.233 184.762L96.6068 184.633C96.6068 184.633 96.6068 184.633 96.6068 184.503C96.6068 183.985 96.9952 183.467 97.3837 182.82C97.3837 182.82 97.3837 182.69 97.5132 182.69L97.6427 182.561C97.6427 182.561 97.6427 182.431 97.7722 182.431L97.9017 182.302C97.9017 182.302 97.6427 182.302 97.2542 182.302C95.8298 182.172 94.2758 181.784 93.1104 181.007C92.9809 181.007 92.9809 180.877 92.8514 180.877C92.7219 180.877 92.5924 180.748 92.5924 180.618C92.4629 180.489 92.2039 180.359 92.0744 180.23L94.5348 179.064L90.7794 178.287C90.7794 178.287 90.7794 178.158 90.7794 178.028C90.7794 177.899 90.7794 177.899 90.7794 177.769C90.7794 177.64 90.7794 177.51 90.7794 177.51V177.381V177.251C90.7794 177.122 90.7794 176.992 90.7794 176.992C90.9089 176.604 91.0384 176.345 91.1679 175.956C91.2974 175.827 91.2974 175.827 91.4269 175.697C91.4269 175.697 91.2974 175.568 91.0384 175.568C90.2615 175.179 89.4845 174.791 88.837 174.273C88.837 174.273 88.7075 174.273 88.7075 174.143C88.578 174.014 88.4485 173.884 88.319 173.884L88.4485 173.755L91.0384 172.589L87.4125 171.424C87.4125 171.424 87.4125 171.424 87.4125 171.294C87.6715 170.129 88.9665 169.222 90.0025 168.705C90.0025 168.705 89.873 168.575 89.7435 168.446C89.7435 168.446 89.614 168.446 89.614 168.316C89.4845 168.316 89.4845 168.187 89.355 168.057L89.2255 167.928L89.096 167.798C89.096 167.798 89.096 167.669 88.9665 167.669C88.837 167.539 88.837 167.41 88.837 167.28L91.5564 166.115L88.319 164.82C88.319 164.82 88.319 164.69 88.4485 164.431C88.7075 163.784 89.2255 163.266 89.7435 162.748C89.873 162.618 90.0025 162.618 90.132 162.489C90.6499 162.23 91.1679 161.971 91.8154 161.712C91.8154 161.712 91.6859 161.582 91.5564 161.323C91.5564 161.323 91.5564 161.194 91.4269 161.194C91.4269 161.194 91.4269 161.064 91.2974 161.064C91.2974 160.935 91.1679 160.935 91.1679 160.805C91.1679 160.676 91.1679 160.676 91.1679 160.546V160.417C91.1679 160.287 91.1679 160.158 91.1679 160.028L94.7938 159.122C94.0168 158.863 93.2399 158.604 92.4629 158.215C92.2039 158.086 91.8154 157.956 91.5564 157.827C91.5564 157.827 91.5564 157.697 91.6859 157.568C91.8154 157.438 91.9449 157.179 92.2039 156.791C92.9809 156.014 94.9233 154.978 99.3262 154.46C99.4557 154.46 99.7147 154.46 99.8442 154.46C102.175 154.201 105.153 154.201 109.038 154.33C121.211 154.848 126.65 157.309 126.65 157.309C126.65 157.309 134.031 155.237 135.067 154.589L134.808 156.143C134.808 156.143 164.204 149.798 148.923 117.683V117.554C147.499 118.978 145.297 120.92 142.189 121.956C142.189 121.956 143.873 119.237 144.002 117.295C144.002 117.295 141.283 121.05 133.384 122.733C133.384 122.733 134.679 119.755 135.067 118.46C135.067 118.46 121.47 129.079 103.6 121.438C108.52 126.1 117.844 128.302 118.492 128.431C118.103 128.561 115.772 129.726 109.427 129.467C109.427 129.467 112.794 132.057 117.715 132.575V134.777H86.8946V110.043C87.1535 110.69 88.7075 111.338 88.7075 111.338L89.096 109.266C89.614 109.654 91.8154 111.856 95.4413 112.374C102.305 113.28 105.024 118.59 105.024 118.59V116.388C105.024 116.388 114.995 124.935 125.355 119.367C130.146 117.165 134.808 113.669 137.268 107.841L138.563 110.043C138.563 110.043 140.117 103.957 143.225 99.4242C146.074 95.2803 148.664 92.1724 149.441 88.158C149.441 88.158 156.434 91.6544 162.52 96.8342C162.52 96.8342 157.081 88.935 151.513 84.9206C151.513 84.9206 157.081 87.5105 160.189 90.3594C160.06 90.4889 156.175 85.1796 152.031 81.6832ZM117.197 90.4889C105.671 90.1004 107.743 97.3522 107.743 97.3522C107.743 97.3522 108.65 95.1508 109.297 94.7623C109.297 94.7623 110.851 100.072 110.722 105.769C110.592 111.597 110.851 113.021 114.607 113.928C114.607 113.928 113.182 112.762 113.053 111.856C113.053 111.856 115.254 113.539 120.305 113.928C125.225 114.316 126.52 111.079 126.52 111.079C126.52 111.079 127.815 107.582 128.204 106.158C128.592 104.604 128.722 102.014 130.923 99.0357C133.125 96.0573 133.125 95.5393 133.125 95.5393C132.866 95.1508 131.312 93.8558 131.312 93.8558C129.369 92.4314 129.499 91.1364 129.499 91.1364C127.686 92.5609 123.024 91.7839 121.729 91.3954C120.305 90.8774 117.197 90.4889 117.197 90.4889ZM117.326 92.0429C117.326 92.0429 125.484 93.8558 128.333 92.9494C128.333 92.9494 129.24 93.9853 130.146 94.5033C131.182 95.0213 131.571 95.7983 130.794 96.9637C130.794 96.9637 130.276 98.2587 128.981 99.1652C128.981 99.1652 128.463 99.8126 128.463 98.9062C128.463 98.9062 128.851 96.7047 128.981 96.0573C128.981 96.0573 129.11 95.5393 128.592 95.9278C128.592 95.9278 128.204 96.4457 127.815 96.3163L127.427 96.1868C127.427 96.1868 127.038 96.1868 127.038 95.5393C127.038 95.5393 127.168 95.1508 126.65 95.4098C126.65 95.4098 126.391 95.9278 125.873 95.7983L125.355 95.6688C125.355 95.6688 125.096 95.6688 124.966 95.0213C124.966 95.0213 124.966 94.6328 124.448 94.8918C124.448 94.8918 124.189 95.2803 123.801 95.2803L123.283 95.1508C123.283 95.1508 122.894 95.0213 122.894 94.5033C122.894 93.9853 122.506 94.2443 122.376 94.3738C122.376 94.3738 122.117 94.7623 121.729 94.7623L121.081 94.6328C121.081 94.6328 120.693 94.5033 120.693 93.9853L120.564 93.5968C120.564 93.5968 120.434 92.8199 119.787 93.7263C119.787 93.7263 118.751 95.0213 118.362 95.7983C118.362 95.7983 117.456 96.9637 117.326 95.9278C117.197 95.9278 116.808 94.1148 117.326 92.0429ZM114.089 103.698C114.348 103.698 114.477 104.216 114.477 104.216L114.736 105.381C114.866 106.417 115.254 107.453 115.254 107.453C115.513 107.971 115.902 107.582 115.902 107.582C116.161 107.194 116.549 107.194 116.549 107.194L117.326 107.323C117.715 107.453 117.715 107.841 117.715 107.841C117.715 108.359 118.103 107.971 118.103 107.971L118.233 107.841C118.492 107.582 118.751 107.712 118.751 107.712L119.528 107.841C119.916 107.971 119.787 108.359 119.787 108.359C119.916 108.748 120.175 108.489 120.175 108.489L120.305 108.359C120.564 108.1 120.823 108.23 120.823 108.23L121.34 108.359C121.599 108.489 121.599 108.877 121.599 108.877C121.729 109.266 121.988 108.877 121.988 108.877C122.247 108.618 122.506 108.748 122.506 108.748L122.894 108.877C123.283 109.007 123.153 109.266 123.153 109.266C123.153 109.654 123.542 109.395 123.542 109.395C124.189 108.748 125.614 106.805 125.614 106.805C126.391 105.899 126.132 106.935 126.132 106.935C125.614 109.525 124.319 110.949 124.319 110.949C123.801 111.726 123.153 111.467 123.153 111.467C122.635 111.338 122.635 110.69 122.635 110.69C122.117 111.079 121.729 110.949 121.729 110.949C121.211 110.82 121.211 110.172 121.211 110.172C120.822 110.69 120.175 110.561 120.175 110.561C119.398 110.302 119.269 109.654 119.269 109.654C118.751 110.302 118.103 110.172 118.103 110.172C117.197 109.913 117.326 109.136 117.326 109.136C116.549 109.913 115.902 109.654 115.902 109.654C115.254 109.525 115.125 108.877 115.125 108.877C114.736 109.525 113.83 109.525 113.83 109.525C113.053 109.525 112.664 108.748 112.664 108.748C112.017 105.899 113.7 103.827 113.7 103.827C113.959 103.827 114.089 103.827 114.089 103.698Z" fill="black"/>
<path d="M65.9156 11.8875L41.8294 34.4197V96.7073C42.2179 96.5778 43.2538 96.4483 43.2538 96.4483V35.0672L66.4336 13.4414H138.692L161.872 35.1967V59.1535H155.268C155.268 59.1535 155.138 60.1894 155.009 60.5779H163.297V34.4197L139.21 11.8875H65.9156ZM88.3184 38.1751C88.3184 38.1751 89.6134 38.6931 90.6494 39.5996H121.728V46.9809C121.728 46.9809 122.635 47.3693 123.282 47.8873V38.1751H122.246H88.3184ZM111.239 67.7002C110.851 68.2182 110.721 68.8657 110.851 69.5132C111.11 70.6786 112.275 71.3261 113.311 71.0671C113.829 70.9376 114.347 70.6786 114.606 70.1606C114.218 69.9016 113.959 69.6427 113.7 69.3837C113.57 69.6427 113.311 69.7721 113.052 69.9016C112.534 70.0311 112.146 69.6427 112.016 69.2542C111.887 68.9952 112.016 68.6067 112.275 68.4772C111.887 68.0887 111.498 67.8297 111.239 67.7002ZM138.563 73.657C138.304 73.657 138.045 73.7865 137.786 73.7865C137.915 73.916 137.915 74.175 137.786 74.3045C137.656 74.5635 137.268 74.693 137.009 74.434C136.879 74.3045 136.75 74.175 136.75 74.0455C136.491 74.175 136.232 74.175 135.973 74.3045C136.102 74.5635 136.232 74.952 136.491 75.0815C137.138 75.47 137.915 75.3405 138.304 74.693C138.692 74.434 138.692 74.0455 138.563 73.657ZM128.074 79.8728C126.908 79.8728 126.131 80.2613 126.131 80.2613C129.239 80.5203 130.016 81.2973 130.016 81.2973C130.016 81.2973 131.829 82.7217 133.901 82.5922C136.102 82.5922 137.268 82.9807 137.268 82.9807C137.009 81.6858 135.455 81.8153 135.455 81.8153C135.455 81.8153 133.383 81.9448 130.793 80.5203C129.757 80.1318 128.851 79.8728 128.074 79.8728ZM117.326 92.0455C116.808 94.1174 117.196 95.9303 117.196 95.9303C117.326 97.0958 118.232 95.8008 118.232 95.8008C118.75 95.0239 119.656 93.7289 119.656 93.7289C120.433 92.8224 120.433 93.5994 120.433 93.5994V93.9879C120.433 94.3764 120.822 94.6354 120.822 94.6354L121.34 94.7649C121.728 94.8944 121.987 94.3764 121.987 94.3764C122.246 94.2469 122.505 93.9879 122.505 94.5059C122.505 95.0239 122.894 95.1534 122.894 95.1534L123.412 95.2829C123.8 95.4124 124.059 94.8944 124.059 94.8944C124.577 94.6354 124.577 95.0239 124.577 95.0239C124.577 95.6713 124.966 95.6713 124.966 95.6713L125.484 95.8008C126.002 95.8008 126.261 95.4123 126.261 95.4123C126.779 95.0239 126.649 95.5418 126.649 95.5418C126.779 96.1893 127.038 96.1893 127.038 96.1893L127.426 96.3188C127.815 96.4483 128.203 95.9303 128.203 95.9303C128.721 95.5418 128.592 96.0598 128.592 96.0598C128.592 96.7073 128.074 98.9087 128.074 98.9087C128.074 99.6857 128.592 99.1677 128.592 99.1677C129.887 98.2613 130.405 96.8368 130.405 96.8368C131.052 95.6713 130.664 94.7649 129.757 94.3764C128.721 93.8584 127.944 92.8224 127.944 92.8224C125.484 93.8584 117.326 92.0455 117.326 92.0455ZM81.4551 103.312V140.218H123.282V125.973H147.628C147.369 125.067 147.11 124.549 147.11 124.549H121.728V138.793H82.8796V104.995C82.7501 104.866 82.7501 104.866 82.6206 104.736C82.6206 104.736 82.6206 104.736 82.4911 104.607C82.1026 104.089 81.4551 103.312 81.4551 103.312ZM114.088 103.7C113.959 103.7 113.829 103.83 113.7 104.089C113.7 104.089 112.146 106.161 112.664 109.009C112.664 109.009 113.052 109.916 113.829 109.786C113.829 109.786 114.736 109.786 115.124 109.139C115.124 109.139 115.254 109.786 115.901 109.916C115.901 109.916 116.678 110.175 117.326 109.398C117.326 109.398 117.326 110.045 118.103 110.434C118.103 110.434 118.75 110.563 119.268 109.916C119.268 109.916 119.397 110.693 120.174 110.822C120.174 110.822 120.822 110.952 121.21 110.434C121.21 110.434 121.34 110.952 121.728 111.211C121.728 111.211 122.246 111.34 122.635 110.952C122.635 110.952 122.635 111.729 123.153 111.729C123.153 111.729 123.8 111.988 124.318 111.211C124.318 111.211 125.613 109.786 126.131 107.196C126.131 107.196 126.261 106.161 125.613 107.067C125.613 107.067 124.189 109.009 123.541 109.657C123.541 109.657 123.153 109.916 123.153 109.527C123.153 109.527 123.282 109.139 122.894 109.139L122.505 109.009C122.505 109.009 122.117 108.88 121.987 109.139C121.987 109.139 121.728 109.527 121.599 109.139C121.599 109.139 121.599 108.75 121.34 108.621L120.822 108.491C120.822 108.491 120.563 108.491 120.304 108.621L120.174 108.75C120.174 108.75 119.915 109.009 119.786 108.621C119.786 108.621 119.786 108.232 119.527 108.103L118.879 107.973C118.879 107.973 118.62 107.844 118.362 108.103L118.232 108.232C118.232 108.232 117.973 108.491 117.844 108.103C117.844 108.103 117.844 107.714 117.455 107.585L116.419 107.326C116.419 107.326 116.031 107.326 115.772 107.714C115.772 107.714 115.383 108.103 115.124 107.585C115.124 107.585 114.736 106.549 114.606 105.513L114.347 104.348C114.477 104.348 114.477 103.7 114.088 103.7ZM38.9805 136.851V147.081L64.2322 171.944H81.3257C80.0307 171.297 79.1242 170.779 78.7357 170.52H64.7502L40.5344 146.693V137.24V137.11C40.0164 136.981 38.9805 136.851 38.9805 136.851Z" fill="white"/>
</svg>
