<svg width="201" height="200" viewBox="0 0 201 200" fill="none" xmlns="http://www.w3.org/2000/svg">
<path d="M27.4102 10.1889V65.965H34.5112V134.029H27.4102V189.806H141.11L168.548 165.196V34.7855L141.11 10.1862H27.4102V10.1889ZM92.2365 65.965H110.826V134.027H92.2365V65.965Z" fill="black"/>
<path d="M30.9668 13.742V62.405H38.0654V137.58H30.9668V186.243H139.754L164.996 163.603V36.368L139.754 13.7384H30.9668V13.742ZM114.379 137.584H88.6773V62.4068H114.379V137.584Z" fill="white"/>
<path d="M40.7832 23.5617V52.5934H47.8818V147.402H40.7832V176.434H135.999L155.182 159.228V40.7601L135.999 23.5617H40.7832ZM120.362 52.5934C121.302 53.4332 123.386 55.3028 124.196 56.0307V144.054C122.816 145.269 120.399 147.394 120.396 147.399H78.8638V52.5898H120.362L120.362 52.5934Z" fill="black"/>
<path d="M134.634 27.1154H44.3418V49.0321H51.4404V150.952H44.3418V172.869H134.634L151.621 157.632V42.3396L134.634 27.1099V27.1154ZM75.3069 150.958V49.0375H121.725C122.662 49.8749 126.679 53.4826 127.755 54.4466V145.664C126.664 146.625 122.667 150.14 121.737 150.958H75.3074L75.3069 150.958Z" fill="#00693E"/>
</svg>
