<svg width="201" height="201" viewBox="0 0 201 201" fill="none" xmlns="http://www.w3.org/2000/svg">
<path d="M100.825 6.7715L7.08398 100.504L100.825 194.245L194.565 100.504L100.833 6.7715H100.832H100.825Z" fill="#BF0C26"/>
<path d="M172.115 55.4682L173.491 51.5765L169.368 51.3789C162.6 51.0555 155.491 49.7291 147.637 47.3238C145.617 46.7052 143.669 45.9457 141.608 45.142C139.195 44.2025 136.7 43.2295 134.01 42.4675C132.717 42.1024 131.463 41.7656 130.242 41.4529C126.321 40.3141 121.824 39.2911 116.568 38.6167C110.91 37.7371 107.526 37.6062 107.281 37.5979C105.606 37.5554 103.997 37.5345 102.47 37.5345C95.6079 37.5345 89.5686 37.9564 84.0053 38.8243C77.931 39.7722 71.7783 41.4196 65.1954 43.8615C64.255 44.21 63.3179 44.5701 62.3817 44.9311C59.0769 46.2025 55.9555 47.4047 52.6933 48.0933C48.9491 48.8829 45.0007 49.4706 40.9164 49.865C30.5586 50.6611 25.6289 48.8703 25.6289 48.8703L28.1458 54.2802C28.1675 54.3311 28.2217 54.4561 28.3034 54.6354C29.9083 58.5271 32.4035 62.5022 35.9359 66.774C36.5562 67.5244 37.189 68.2389 37.8284 68.9358C40.7864 72.2056 44.4205 75.4003 48.739 77.7689C48.1688 78.9069 47.6636 80.059 47.185 81.1779C46.2296 83.4097 45.3092 85.8282 44.3846 88.5011C41.5534 96.4454 39.0298 105.75 38.833 112.855C38.6555 119.253 38.8097 124.63 38.8097 124.63L43.6226 118.689C43.5301 123.877 44.2087 130.162 47.1959 137.139C48.1071 139.327 50.1722 142.889 50.9433 143.968C54.2548 148.67 59.1136 152.93 66.2401 155.203L70.9613 156.708L70.2051 151.81C69.8725 149.61 69.4832 142.632 71.9834 139.609C72.597 138.868 73.3523 138.427 74.3219 138.25C74.6504 139.674 75.1473 141.319 75.986 143.061C76.0269 143.149 76.0736 143.238 76.1169 143.324C76.1886 143.469 76.2595 143.613 76.3353 143.759C77.4183 145.824 78.9932 147.995 81.3417 150.064L81.3992 150.115L81.4592 150.163C82.5497 151.036 86.4448 153.987 91.2927 155.711L95.778 157.152L95.2795 154.281C96.5008 154.936 97.8898 155.566 99.4671 156.139L104.499 157.969L103.892 154.647C105.105 155.022 106.233 155.29 107.046 155.434L111.379 156.082L110.402 151.128C110.415 151.114 110.429 151.104 110.442 151.092C110.744 150.911 111.188 150.698 111.517 150.54C112.018 150.3 112.535 150.053 113.05 149.74C116.567 147.612 119.499 144.468 121.533 140.646C122.041 139.688 122.486 138.693 122.856 137.687C123.06 137.126 123.209 136.581 123.341 136.098C123.462 135.654 123.576 135.233 123.709 134.898C123.845 134.554 124.122 134.145 124.457 134.124C124.485 134.123 124.513 134.123 124.541 134.123C124.633 134.123 124.725 134.131 124.819 134.15C124.941 134.181 125.054 134.221 125.169 134.258C126.501 134.794 127.973 136.853 128.676 138.797C130.817 144.534 128.943 151.734 125.915 156.142L125.94 156.165C123.338 159.867 120.324 161.92 120.324 161.92C120.324 161.92 123.245 162.539 130.281 159.446C135.823 157.009 145.445 150.616 149.645 146.166C152.373 143.274 154.625 140.401 156.064 137.353C157.774 133.737 158.913 129.549 159.651 124.173C159.908 122.303 160.054 120.388 160.09 118.442C160.486 118.648 160.803 118.811 160.975 118.9L165.958 121.475L165.441 115.89C164.363 104.251 160.881 94.1452 158.136 87.6915C157.017 84.6035 155.729 81.5714 154.293 78.6376C165.499 73.8255 171.821 56.2961 172.115 55.4682Z" fill="white"/>
<path d="M101.568 40.6301C95.8718 40.6648 90.1693 41.0043 84.5536 41.8807C78.3115 42.8544 72.2542 44.5685 66.3389 46.7622C62.0657 48.3468 57.8785 50.175 53.4025 51.1194C47.7601 52.3099 41.9508 53.0209 36.1943 53.3404C35.0572 53.4037 31.9911 53.6892 31.0801 53.1516C31.0801 53.1516 31.0881 53.1683 31.0914 53.1776C31.0894 53.1756 31.0834 53.1756 31.0801 53.1736C32.7655 57.3928 35.4987 61.3599 38.3773 64.8414C42.3837 69.6862 47.3019 73.9447 53.0911 76.4992C51.8619 78.3333 50.9475 80.3876 50.0831 82.4085C48.8832 85.2097 47.8321 88.0776 46.8657 90.9656C44.8808 96.9082 43.1214 103.044 42.2943 109.267C41.9989 111.495 41.9348 113.729 41.9562 115.97V115.99L41.9849 115.95L47.3932 113.055C45.7132 118.411 46.0013 145.529 67.248 152.299C67.248 152.299 64.6602 135.518 75.0767 135.125C75.677 135.138 76.2839 135.172 76.9509 135.285C77.4711 138.32 78.3382 143.289 83.4464 147.784C83.6665 147.957 87.5549 151.119 92.397 152.839C92.3636 152.819 91.63 147.317 91.63 147.317C92.3503 148.671 95.0648 151.272 100.594 153.28L99.8536 149.251C100.367 150.091 104.122 151.812 107.657 152.433C107.657 152.433 106.91 151.099 107.584 149.785C108.264 148.464 110.211 147.944 111.539 147.137C114.647 145.256 117.195 142.428 118.902 139.227C119.342 138.4 119.729 137.539 120.049 136.652C120.389 135.719 120.563 134.718 120.93 133.791C121.503 132.337 122.73 131.183 124.338 131.083C127.866 130.863 130.594 134.885 131.641 137.779C134.055 144.256 132.108 152.152 128.293 157.701C134.976 153.62 141.959 149.571 147.561 144.009C149.896 141.688 151.95 139.053 153.364 136.065C155.171 132.237 156.112 127.955 156.685 123.78C157.165 120.298 157.225 116.81 156.932 113.315C157.492 113.629 162.461 116.197 162.461 116.197C161.554 106.399 158.733 96.7614 155.358 88.838C153.777 84.476 151.93 80.4209 149.916 76.726C161.934 75.292 169.297 54.4675 169.297 54.4675C161.601 54.0994 154.164 52.5327 146.814 50.2817C142.232 48.8784 138.01 46.7922 133.248 45.4449C117.708 41.0463 107.25 40.6888 107.25 40.6888C105.363 40.6408 103.462 40.6188 101.568 40.6301ZM101.608 44.131C103.875 44.1503 105.183 44.2477 105.183 44.2477C113.066 44.6339 120.896 46.2679 128.513 48.2862C131.601 49.1065 134.676 50.0096 137.717 51.01C140.758 52.0118 143.733 53.2163 146.774 54.2108C152.217 55.9862 157.972 57.1961 163.662 57.7563C162.528 59.9633 158.946 71.6851 144.133 73.6846L145.647 76.5392C157.212 98.3288 157.479 111.234 157.479 111.234C155.845 110.621 154.171 110.047 152.477 109.514C153.144 116.123 153.05 122.78 151.103 129.189C147.775 140.167 137.91 146.783 137.363 147.15C137.49 141.508 136.99 135.952 133.628 131.237C132.014 128.962 130.107 127.322 127.399 126.528C126.145 126.161 124.791 125.934 123.477 125.988C123.297 126.034 117.995 125.627 116.374 131.09C116.348 131.15 116.327 131.203 116.307 131.263C115.641 134.751 114.22 138.006 111.926 140.727C111.906 140.741 111.892 140.761 111.872 140.774C109.705 143.222 107.637 144.062 107.637 144.062C101.174 147.637 99.1333 142.381 99.1333 142.381L96.6455 146.617C94.5446 146.743 90.6095 143.082 90.6095 143.082L88.9555 147.09C86.0409 146.083 83.7865 143.729 82.4926 140.974C81.8263 139.78 81.4195 138.433 81.026 137.132C80.6192 135.785 80.339 134.651 80.4124 133.231L80.4191 133.237C81.0927 127.502 80.5458 118.544 79.6454 116.523C79.3919 115.803 78.7383 114.096 77.7246 112.848C76.7975 111.561 74.6032 109.76 74.4698 109.647C76.4707 110.301 78.5849 111.421 79.8788 113.129C80.8192 114.369 81.3661 116.003 81.853 117.471C82.3059 118.818 82.6127 120.212 82.8061 121.626C83.0195 123.22 83.0996 124.827 83.1196 126.434C83.1463 128.429 82.9395 130.329 83.0996 132.444C83.3197 135.332 84.5869 139.247 87.9217 139.787C92.9839 138.08 102.028 139.66 102.028 139.66C106.683 137.313 112.746 134.531 115.467 113.595C115.307 111.848 113.926 110.487 112.299 110.001C115.701 109.647 118.695 107.72 121.15 105.432L121.243 105.365C121.543 105.112 121.823 104.838 122.083 104.552C123.504 102.984 124.611 101.237 125.271 100.063C125.498 99.656 126.045 98.4955 126.105 98.3221C126.158 98.142 126.205 97.9753 126.259 97.8019C126.679 96.3412 126.852 95.0607 126.912 94.307C126.919 94.2803 126.919 94.2537 126.919 94.227C126.932 94.0136 126.945 93.8402 126.952 93.7334C126.986 92.8064 126.925 92.1527 126.905 91.8793C126.892 91.6992 126.865 91.5325 126.845 91.3591C126.812 91.0723 126.772 90.7921 126.725 90.532C126.712 90.4453 126.692 90.3653 126.672 90.2853C126.412 89.0314 125.992 88.0109 125.465 86.9238C119.529 87.8242 113.66 89.3182 107.917 91.0456C111.659 92.5729 116.488 95.7677 116.488 100.303C116.614 104.031 112.913 105.299 109.858 105.739L97.2124 101.87C103.742 97.1683 105.656 91.0856 105.656 91.0856L83.2797 91.6125C83.5731 96.3613 86.8012 100.016 89.5024 102.271L78.4315 106.579C76.7174 106.652 74.6232 105.919 73.2493 104.885C72.1561 104.065 71.4098 102.884 71.1823 101.53C70.51 98.9624 72.1508 95.861 74.0563 94.207C75.6103 92.8464 77.7246 92.1727 79.7654 92.0927L63.2189 88.0643C63.2068 88.0976 63.1962 88.131 63.1842 88.1643C62.8313 89.0714 62.5532 90.0118 62.3451 90.9722C62.131 91.966 61.9956 92.9798 61.9463 93.9936C61.8949 95.0807 61.9343 96.1612 62.0844 97.2283C62.2044 98.0753 62.3978 98.909 62.6539 99.7161C62.6573 99.7227 62.6593 99.7361 62.6613 99.7427C62.9934 100.783 63.4363 101.784 64.0072 102.717C64.0526 102.791 64.1039 102.864 64.1506 102.937C64.1513 102.937 64.1526 102.944 64.1546 102.944C64.7015 103.798 65.3451 104.598 66.1121 105.312L66.7951 105.712C71.3391 108.547 74.1697 111.968 74.99 113.295C79.0851 120.685 75.4302 129.022 75.8371 130.89C72.3415 129.996 65.7686 130.47 61.4174 144.569C47.8968 133.211 50.664 111.761 51.2176 108.7C48.7792 109.68 46.895 110.494 46.144 110.821C49.8503 88.4044 57.2542 75.9456 57.2542 75.9456C57.9145 74.6317 59.121 73.6313 60.6584 74.0181C62.1864 74.3983 63.3722 75.7389 64.1466 77.0394C65.0457 78.5534 66.0261 79.9007 67.3567 81.0812C69.6797 83.1421 72.4863 84.2026 75.597 83.9958C77.1977 83.8891 82.486 83.9025 81.3528 87.6708C81.3528 87.6708 95.7051 76.3458 79.5253 70.8627L67.5361 67.1444C65.1484 66.2607 62.7667 65.2209 60.6451 63.797C59.3218 62.9092 57.9685 61.8028 57.2842 60.3254C55.2527 55.9408 61.5868 52.6747 64.6115 51.2181C68.768 49.5507 73.0145 47.9153 77.3644 46.8248C84.4068 45.0581 91.7901 44.3037 99.0332 44.1643V44.1437C99.9937 44.1257 100.854 44.1243 101.608 44.131ZM91.5833 52.7568L87.7883 65.437L72.5763 64.7347C88.5553 68.1415 90.4428 74.2916 90.4428 74.2916L91.5833 52.7568ZM95.1182 53.3731L96.4321 74.8985C96.4321 74.8985 97.1057 68.549 116.614 64.0004L99.18 65.3823L95.1182 53.3731ZM131.334 63.5549L107.764 70.8627C92.2369 76.5259 105.936 87.6708 105.936 87.6708C105.696 85.7233 105.023 83.6157 111.966 84.0158C124.571 84.7495 123.657 71.7758 123.657 71.7758L131.334 63.5549ZM71.069 73.9914C71.7353 73.9848 72.6963 74.0048 73.8762 74.0915C73.6828 74.585 73.5694 75.1186 73.5694 75.6788C73.5694 78.1333 75.5636 80.1275 78.0247 80.1275C80.4724 80.1275 82.4593 78.1533 82.4726 75.7189C83.0395 75.8856 83.5998 76.0723 84.1801 76.2791C84.1801 76.2791 81.2528 81.7148 75.8104 81.1279C70.366 80.541 69.6984 75.6121 70.0305 74.0248C70.0305 74.0248 70.402 73.9981 71.069 73.9914ZM116.974 74.1782C118.255 74.1515 119.015 74.2049 119.015 74.2049C119.349 75.7922 118.675 80.7211 113.239 81.3013C107.797 81.8949 104.862 76.4592 104.862 76.4592C106.15 75.9923 107.397 75.6322 108.591 75.332C108.544 75.5788 108.517 75.8256 108.517 76.079C108.517 78.5401 110.512 80.521 112.966 80.521C115.427 80.521 117.421 78.5401 117.421 76.079C117.421 75.3921 117.255 74.7584 116.974 74.1782ZM93.3908 106.906C97.8394 108.126 102.255 109.454 106.657 110.814C105.376 113.342 104.989 116.51 104.702 119.305C102.468 117.264 102.001 113.696 101.941 111.648L87.2681 111.755C86.4277 114.856 86.2676 119.198 86.2676 119.198C82.7528 115.083 83.6598 111.014 83.6598 111.014L93.3908 106.906ZM102.361 127.128C102.361 127.128 101.794 132.377 104.035 135.965C98.8265 133.478 92.1435 133.464 86.9346 135.965C86.9012 135.952 85.614 131.743 87.2614 127.502L90.236 132.124C90.236 132.124 96.5055 132.377 99.36 131.884C99.36 131.884 99.8803 129.376 102.361 127.128Z" fill="black"/>
<path d="M163.662 57.7556C155.165 60.9277 146.762 63.0219 137.597 62.7425C140.199 65.9952 141.993 70.0977 144.134 73.6839C158.947 71.6844 162.528 59.9626 163.662 57.7556ZM113.98 74.3842L111.593 74.7511L112.82 78.6461L113.98 74.3842ZM76.7515 74.551L77.9853 78.8195L79.1392 74.9111L76.7515 74.551ZM149.923 86.6696L125.465 86.9231C125.992 88.0102 126.413 89.0307 126.673 90.2846C126.693 90.3646 126.713 90.4446 126.726 90.5247C126.773 90.7914 126.813 91.0716 126.846 91.3584C126.859 91.4517 126.879 91.5384 126.886 91.6318C126.899 91.7118 126.899 91.7919 126.906 91.8786C126.906 91.8786 126.906 91.8853 126.913 91.8919L149.923 86.6696ZM52.9677 87.4833L62.3471 90.9715C62.5552 90.0111 62.8333 89.0707 63.1862 88.1636C63.1982 88.1303 63.2088 88.0969 63.2208 88.0636L52.9677 87.4833ZM126.953 93.7327C126.946 93.8395 126.933 94.0129 126.919 94.2263C126.919 94.253 126.919 94.2796 126.913 94.3063C126.853 95.06 126.679 96.3405 126.259 97.8012C126.206 97.9879 126.159 98.1613 126.106 98.3214L153.031 94.9333L126.953 93.7327ZM100.188 93.8928C100.188 93.8928 90.4835 94.2329 87.1754 94.2463C87.1754 94.2463 87.6756 96.2472 88.5893 96.9675C88.5893 96.9675 88.5693 96.4873 89.2229 96.0604C89.8832 95.6469 91.0637 96.3939 91.0771 97.7278C91.0837 98.188 90.837 99.3152 90.837 99.3152L93.3247 101.423L95.7124 98.835C95.7124 98.835 94.6787 98.0813 94.6186 97.5611C94.5586 97.0408 94.9721 96.2272 95.6457 95.8803C96.7062 95.3268 97.8867 96.3472 97.8867 96.3472L100.188 93.8928ZM61.947 93.9929L50.8601 94.2863L62.075 97.2409C62.079 97.2343 62.081 97.2343 62.085 97.2276C61.9349 96.1605 61.8956 95.08 61.947 93.9929ZM62.6546 99.7154L48.4297 102.63L64.1513 102.937C64.1046 102.863 64.0532 102.79 64.0079 102.717C63.4369 101.783 62.9941 100.782 62.6619 99.742C62.6599 99.7354 62.6579 99.722 62.6546 99.7154ZM125.272 100.062C124.612 101.236 123.505 102.983 122.084 104.551L155.172 102.743L125.272 100.062Z" fill="#BF0C26"/>
</svg>
