<svg width="201" height="201" viewBox="0 0 201 201" fill="none" xmlns="http://www.w3.org/2000/svg">
<g clip-path="url(#clip0_15016_302719)">
<path d="M200.481 96.8594C200.146 71.5468 196.281 57.9499 186.695 48.3692C177.566 39.2377 165.91 37.4028 150.063 37.4028H0.492188L70.1023 131.23H91.229V163.614H150.063C165.912 163.614 177.567 161.779 186.695 152.648C196.365 142.976 200.234 129.143 200.491 103.216L200.481 96.8594ZM138.148 77.5178H144.841C147.568 77.5178 149.231 77.5984 150.245 77.6944C150.639 80.74 150.857 87.2015 150.891 96.9657L150.895 103.209C150.884 107.31 150.855 118.681 150.253 123.324C149.242 123.42 147.575 123.503 144.841 123.503H138.148V77.5178Z" fill="white"/>
<path d="M15.8184 45.12L34.1355 69.8108H73.2871L90.1912 45.12H15.8184ZM97.9615 45.12L81.0601 69.8136H109.532L97.9996 76.1799V96.9663H130.444V69.813H144.849C151.967 69.813 154.657 70.2863 156.242 71.8708C157.884 73.5119 158.54 77.8442 158.61 96.9663H192.775C192.46 71.8352 188.522 61.0852 181.252 53.8253C174.612 47.1766 166.065 45.1196 150.083 45.1196H97.9739L97.9615 45.12ZM91.2334 76.1667L38.8639 76.1935L54.2782 96.9676H91.2334V76.1667ZM58.9699 103.234L75.3925 125.436L90.3403 103.234H58.9699ZM97.6551 103.234L82.2587 125.436H109.53L98.0058 131.247L97.9977 155.909H150.07C166.05 155.909 174.601 153.851 181.248 147.201C188.589 139.86 192.53 128.965 192.786 103.234H158.612C158.563 123.201 157.908 127.492 156.241 129.16C154.657 130.743 151.964 131.22 144.846 131.22H130.444V103.234H97.6562L97.6551 103.234Z" fill="#D70036"/>
</g>
<defs>
<clipPath id="clip0_15016_302719">
<rect width="200" height="200" fill="white" transform="translate(0.492188 0.507812)"/>
</clipPath>
</defs>
</svg>
