<svg width="201" height="201" viewBox="0 0 201 201" fill="none" xmlns="http://www.w3.org/2000/svg">
<g clip-path="url(#clip0_15016_302945)">
<path d="M61.1186 78.3099C59.4956 77.0186 57.669 75.9349 55.6518 75.1436C53.7647 74.2534 51.293 73.7081 48.7305 73.704C46.668 73.7051 44.543 74.0629 42.6539 74.9712C41.8293 75.3129 41.0692 75.7303 40.3746 76.2041C40.3545 76.1819 40.3333 76.1597 40.3141 76.1395C39.6024 75.4036 38.6327 74.9923 37.6266 74.9923C37.3182 74.9923 37.0047 75.0307 36.6952 75.1123C34.7456 75.6073 33.6166 76.5659 32.5379 77.5065L31.9613 78.0014C31.7738 78.1627 31.5984 78.3421 31.4351 78.5488C30.4069 79.8673 29.6791 81.0337 29.175 82.1375C29.0621 82.1627 28.9482 82.195 28.8333 82.2343C27.415 82.7121 26.2516 83.6808 25.4805 84.956C24.8192 86.0427 24.423 87.3361 24.2829 88.7766C22.3877 89.3835 20.7113 90.3573 19.4895 91.6909C18.8555 92.3875 18.5178 93.2867 18.5178 94.201C18.5178 94.5881 18.5772 94.9772 18.7012 95.3552C17.547 96.8482 17.0057 98.4036 17.0087 99.8683C17.0087 99.9006 17.0087 99.9319 17.0097 99.9651C15.8514 100.448 14.4532 100.997 12.7174 101.676C8.69418 103.249 6.96837 106.342 6.85446 108.719C6.85043 108.809 6.84942 108.9 6.84942 108.988C6.84942 109.118 6.85446 109.246 6.86454 109.372C5.96938 109.815 5.40991 110.002 5.12362 110.08C4.8585 110.022 4.58833 109.993 4.31817 109.993C3.36353 109.991 2.39176 110.362 1.66696 111.106C0.961317 111.827 0.605469 112.775 0.605469 113.709C0.605469 114.666 0.977445 115.632 1.71132 116.358C1.72744 116.375 1.73349 116.379 1.73652 116.383L1.75164 116.398L1.80205 116.444C2.07221 116.706 2.99962 117.584 4.33127 118.494C5.69418 119.418 7.47644 120.393 9.48954 120.721C10.1599 120.829 10.9089 120.878 11.6801 120.898C11.8635 121.286 12.0994 121.662 12.3928 122.011C13.3736 123.179 14.6942 124.054 16.2879 124.641C17.8837 125.23 19.7597 125.549 21.9381 125.643C23.8172 125.722 25.7113 125.756 27.0803 125.774C27.4553 126.149 27.9129 126.521 28.4674 126.867C29.5903 127.565 30.9291 127.802 32.425 127.804C34.3282 127.802 36.55 127.418 39.178 126.855C42.2819 126.184 44.7607 125.323 46.6297 124.216C48.1952 124.755 50.294 125.449 52.3776 126.046C54.7143 126.708 56.9835 127.257 58.6428 127.325C58.9099 127.334 59.171 127.339 59.427 127.339C61.9391 127.339 63.9422 126.885 65.4653 126.183C66.4099 125.743 67.174 125.211 67.7516 124.617H156.688L161.258 120.932L164.66 108.188H192.923L200.605 78.3109H61.1196L61.1186 78.3099Z" fill="white"/>
<path d="M64.8073 80.2454L64.8184 80.2635L61.4797 80.2494C61.1984 79.9934 60.9091 79.7444 60.6127 79.5014C59.0109 78.192 57.2004 77.1002 55.1924 76.317C52.1289 74.8502 46.9182 74.2938 43.1188 76.1395C41.9555 76.6194 40.9373 77.2585 40.0542 78.0055C39.9343 77.6567 39.7478 77.328 39.4837 77.0549C38.8385 76.3865 37.8859 76.1073 36.9867 76.3422C35.2599 76.7918 34.3889 77.5427 33.2881 78.4944L32.7085 78.9913C32.5784 79.1032 32.4454 79.2383 32.3415 79.3734C31.1581 80.8885 30.4262 82.1486 29.9746 83.3119C29.7165 83.319 29.4555 83.3542 29.2024 83.4399C26.8788 84.2292 25.4897 86.5125 25.3819 89.7041C25.3799 89.7283 25.3798 89.7514 25.3788 89.7736C23.3224 90.3018 21.5331 91.2736 20.3395 92.5821C19.9 93.0639 19.6682 93.6859 19.6682 94.318C19.6682 94.5912 19.7105 94.8643 19.7992 95.1305C19.8657 95.3281 19.9555 95.4893 20.0422 95.6557C18.7034 97.1647 18.1591 98.6486 18.1591 99.9843C18.1591 100.268 18.1913 100.542 18.2367 100.811C16.9111 101.382 15.278 102.027 13.1349 102.864C9.49477 104.289 8.09558 107 8.00385 108.892C8.00082 108.962 7.99981 109.033 7.99981 109.104C7.99981 109.465 8.05223 109.804 8.13993 110.125C7.97562 110.212 7.8103 110.299 7.64699 110.382C6.15909 111.144 5.38389 111.333 5.0986 111.38C4.20344 111.099 3.18933 111.31 2.48973 112.027C1.99982 112.527 1.75586 113.177 1.75586 113.825C1.75586 114.489 2.0109 115.153 2.51998 115.656C2.52401 115.661 2.53611 115.671 2.54216 115.678L2.59155 115.722C3.02199 116.144 6.16816 119.138 9.67219 119.702C10.4655 119.829 11.4676 119.872 12.4786 119.87C12.6299 120.409 12.8859 120.927 13.272 121.387C14.9474 123.376 17.7962 124.431 21.9857 124.608C24.0845 124.697 26.2105 124.73 27.5845 124.743C27.9494 125.167 28.4242 125.599 29.0764 126.007C31.019 127.222 34.2881 126.846 38.9343 125.845C42.2337 125.136 44.7589 124.201 46.4867 123.064C49.6641 124.173 55.7952 126.187 58.6833 126.291C62.2004 126.418 64.6299 125.634 66.1006 124.617C66.8133 124.125 67.3032 123.579 67.5764 123.053C67.5996 123.011 67.6157 122.966 67.6359 122.923H156.244L159.752 120.167L163.37 106.456L191.336 106.313L198.084 80.2464H64.8083L64.8073 80.2454Z" fill="#00539F"/>
<path d="M49.7748 75.8732C47.8441 75.7805 45.8312 76.0571 44.1345 76.8708C41.5377 77.8974 39.749 79.8539 38.6337 81.9523C38.6312 81.8321 38.6199 81.7087 38.6199 81.5926C38.6199 80.1877 38.8304 78.9498 38.9603 78.5273C38.9917 78.4256 39.0054 78.3216 39.0054 78.2176C39.0054 77.9482 38.9046 77.6837 38.7127 77.4837C38.4458 77.2071 38.0506 77.0942 37.6796 77.1918C36.2933 77.5531 35.6159 78.1369 34.5893 79.024L33.9966 79.5329C33.9433 79.5789 33.8893 79.6337 33.8458 79.6902C32.1949 81.8023 31.5135 83.3313 31.2659 84.7748C31.2191 84.6902 31.1788 84.6047 31.1095 84.5321C30.8256 84.2321 30.3917 84.1248 30.0006 84.2579C28.278 84.8442 27.2853 86.5837 27.203 89.1579C27.2014 89.1902 27.2006 89.2208 27.2006 89.2523C27.2006 89.6208 27.3304 89.9861 27.4699 90.3442C25.1038 90.6619 23.0256 91.6095 21.7691 92.9885C21.5885 93.1869 21.4933 93.4418 21.4933 93.7023C21.4933 93.8144 21.5111 93.9281 21.5474 94.0377C21.724 94.57 22.0619 94.8861 22.4595 95.0853C20.5554 96.7289 19.9764 98.1902 19.9764 99.349C19.9764 100.019 20.1748 100.575 20.4087 101.022C18.8562 101.752 16.8667 102.539 13.9974 103.66C11.2216 104.744 9.9022 106.796 9.8272 108.349C9.82479 108.394 9.82398 108.438 9.82398 108.483C9.82398 109.193 10.1143 109.764 10.603 110.071C9.95624 110.43 9.29575 110.784 8.64898 111.115C5.9764 112.481 5.1393 112.288 5.13124 112.285L5.12075 112.284C4.61753 112.197 4.23769 112.178 3.89333 112.601C3.71672 112.819 3.61914 113.071 3.61914 113.317C3.61914 113.55 3.70704 113.777 3.89495 113.964C3.89575 113.966 3.90301 113.972 3.90462 113.974C4.0885 114.155 7.1135 117.093 10.2224 117.592C11.2966 117.765 12.8538 117.763 14.2248 117.711C14.1764 117.896 14.1506 118.08 14.1506 118.264C14.1506 118.803 14.3522 119.335 14.7425 119.798C16.128 121.444 18.6208 122.322 22.3619 122.48C24.8482 122.586 27.4449 122.613 28.6667 122.619C28.9248 123.067 29.374 123.599 30.1901 124.11C31.4756 124.914 34.0078 124.81 38.9272 123.751C43.1812 122.833 45.3933 121.686 46.5538 120.758C49.0087 121.628 56.0909 124.057 59.0474 124.161C63.2506 124.314 65.8796 123.013 66.5449 121.739C66.8046 121.239 66.7772 120.697 66.4724 120.292C66.3199 120.089 65.8716 119.647 64.9788 119.816C64.7111 119.802 64.1667 119.404 63.549 118.817C65.1103 119.005 66.5909 119.185 66.6925 119.197C66.8756 119.255 71.3772 120.69 71.3772 120.69C71.3845 120.704 71.3869 120.7 71.4167 120.704C71.4207 120.704 73.4135 121.507 74.3933 120.197C74.7909 119.666 75.2788 119.089 75.1208 117.126C75.1224 117.135 74.9288 116.068 74.932 116.08L74.5837 115.002C73.3353 111.511 70.6054 109.673 67.4756 107.794C66.8522 107.42 66.2643 107.06 65.699 106.7C65.9756 106.064 66.2046 105.33 66.2046 104.523C66.2046 104.167 66.1611 103.798 66.0578 103.422C66.028 103.309 65.9804 103.202 65.9143 103.107C65.899 103.084 65.8966 103.076 65.8845 103.056C66.3216 102.648 66.9796 101.91 67.3337 100.255C67.3369 100.24 67.3417 100.226 67.3449 100.212C67.6853 98.9748 67.8554 97.6474 67.8554 96.2724C67.8554 88.9377 63.1232 80.2724 54.9111 77.0942H54.9095C53.5506 76.4297 51.7046 75.9668 49.7748 75.8732ZM86.8506 82.0224L88.7216 85.099L83.8103 103.981L83.7699 104.15H94.778L95.4554 101.614L96.5038 97.7079H92.5441L91.7699 100.609H89.2538L90.7941 94.8837H95.8506L96.8828 91.0385H91.8183L93.2538 85.674H95.6893L94.9232 88.5216H98.9151L100.649 82.0224H86.8506ZM101.431 82.0224L103.278 85.674L99.2135 100.853L98.3264 104.15H109.165L110.673 98.5232L110.891 97.7079H106.963L106.52 99.366L106.189 100.609H103.81L104.004 99.8781L108.786 82.0224H101.431ZM127.955 82.0224L129.826 85.674L129.205 94.7571L128.56 104.15H133.98L138.56 92.8563L139.681 90.0982L139.351 92.6958L137.883 104.15H143.084L149.197 90.695L153.141 82.0224H148.713L144.488 91.6515L142.851 95.3829L143.286 91.8958L144.504 82.0224H139.326L134.52 93.6773L133.802 95.4095L134.004 93.7821L135.463 82.0224H127.955ZM181.584 82.0224L182.713 83.8829L183.455 85.099L178.504 104.15H189.512L191.238 97.7079H187.286L186.504 100.609H183.988L185.52 94.8837H190.584L191.617 91.0385H186.552L187.988 85.674H190.423L189.665 88.5216H193.641L195.383 82.0224H191.867H181.584ZM71.3425 82.024L73.2199 85.6474L68.2627 104.151H77.4175L81.1699 101.41L85.6296 85.3402L83.3474 82.024H71.3425ZM117.993 82.024L118.944 85.6756L113.428 97.9627L110.646 104.15H114.96L117.767 97.7079H121.009L120.388 104.15H124.896L125.549 95.5006L126.557 82.024H117.993ZM154.259 82.024L155.226 85.6756L153.347 89.8506L146.92 104.15H151.243L154.041 97.7079H157.275L156.654 104.15H161.17L162.388 88.0144L162.839 82.024H154.259ZM166.105 82.024L168.017 85.4265L167.605 86.9531L163.001 104.151H167.589L170.057 94.9103H172.025L172.815 95.8789L170.597 104.151H175.194L177.726 94.691L176.315 93.0595L178.597 91.4547L180.388 85.3402L179.783 84.4781L178.057 82.024H166.105ZM77.7506 85.6756H80.0643L80.6546 86.3902L77.0369 99.891L76.0716 100.582H73.7562L77.7506 85.6756ZM172.533 85.6756H174.775L175.363 86.3652L174.372 90.0732L173.073 91.0119H171.105L172.46 85.9668L172.533 85.6756ZM121.839 88.495L121.154 94.8837H119.081L121.839 88.495ZM158.122 88.495L158.073 88.8902L157.428 94.8837H155.355L157.936 88.9184L158.122 88.495Z" fill="#FFD200"/>
<path d="M54.4857 78.0781C52.0915 76.8865 47.652 76.3382 44.5442 77.8503C40.6873 79.3604 38.8819 83.1073 38.3788 85.7888C37.0008 83.1013 37.7125 78.9571 37.9383 78.2253C36.5825 78.5791 36.1077 79.1386 34.6722 80.3513C31.9716 83.8099 32.0835 85.3997 32.276 88.2081C31.6782 87.8815 30.0714 85.9289 30.3325 85.2706C28.7811 85.7989 28.3002 87.6325 28.2528 89.2202C28.2115 89.7384 28.9756 90.8644 28.7478 91.2999C26.0613 91.4007 23.7538 92.3825 22.5432 93.7111C22.8607 94.6648 24.5421 94.2001 25.4685 94.3997C24.6419 94.8099 23.8859 95.2646 23.2276 95.819C21.3577 97.4007 20.2478 99.3372 21.6833 101.081C21.8597 101.223 22.1823 101.17 22.4292 101.159C22.4242 101.17 22.4192 101.179 22.4151 101.19C20.6228 102.196 18.4192 103.075 14.3738 104.657C10.0865 106.332 10.3879 110.218 11.8617 109.027C13.3355 107.835 16.9091 107.562 16.9091 107.562C16.9091 107.562 12.8365 110.166 9.12178 112.067C5.40605 113.968 4.63086 113.219 4.63086 113.219C4.63086 113.219 7.54113 116.097 10.3829 116.555C11.9766 116.81 14.9867 116.661 16.9534 116.484C15.5764 116.988 14.6722 118.085 15.5452 119.124C16.7175 120.518 18.9998 121.286 22.397 121.43C25.7942 121.574 29.3758 121.57 29.3758 121.57C29.3758 121.57 29.399 122.377 30.7428 123.218C32.0875 124.06 36.0603 123.291 38.6944 122.723C43.4514 121.698 45.4212 120.412 46.2105 119.661L41.1984 118.233C36.2186 117.48 32.3909 115.581 29.8375 112.99C29.395 112.592 29.1198 111.731 28.402 111.482C27.8335 111.538 26.525 111.927 25.9524 111.771C25.5704 111.086 28.4665 110.402 26.7296 109.69C25.2609 110.145 23.4252 110.08 22.0492 109.6C21.4857 108.648 23.9907 108.227 24.4232 108.119C25.9968 107.675 28.3103 107.622 29.8778 107.27C30.1006 107.012 28.9867 106.362 28.7246 106.233C27.5008 105.966 29.9302 106.031 30.2165 106.001C31.0109 105.9 30.6016 105.846 30.905 105.144C30.6208 104.865 32.3567 105.428 32.4786 105.371C32.7982 105.52 33.2629 105.761 33.7296 105.695C33.8305 105.186 33.2145 105.08 32.9595 104.552C34.4121 104.985 35.8153 105.314 36.9897 105.988C36.8677 105.13 35.9423 103.365 35.6137 102.487C34.5885 99.3452 33.5815 95.9964 38.2982 94.4531C42.0462 93.2585 45.5663 96.6436 47.5603 98.1869C47.5512 98.188 47.5442 98.19 47.5341 98.192C47.6853 98.2525 47.7962 98.3039 47.8496 98.3301C48.3335 98.573 51.2831 101.618 52.5885 102.827C53.8929 104.036 56.6974 106.598 58.148 107.034C59.5986 107.468 61.146 107.613 61.9192 107.179C62.6934 106.743 62.8869 106.501 62.8869 106.501C62.8869 106.501 63.0794 105.099 63.1278 104.713C63.1762 104.326 63.2246 103.601 63.2246 103.601C63.2246 103.601 64.1429 103.069 64.3365 103.166C64.53 103.263 64.7236 105.97 63.7085 106.937C63.7085 106.937 64.6268 107.323 67.4796 109.162C68.6429 109.91 69.8113 110.67 70.8365 111.559C68.9474 109.786 66.5552 108.609 64.3254 107.087C64.9534 105.969 65.3335 104.842 65.025 103.706C63.9363 102.093 65.648 103.123 66.2982 99.9975C68.3042 92.8735 63.8919 81.695 54.4857 78.0781Z" fill="white"/>
<path d="M48.1936 77.9981C45.8129 78.2126 44.0621 79.2118 42.7565 80.303C40.0863 82.6796 39.6863 85.2296 38.9629 87.7264C38.0275 87.9481 37.8952 87.4134 37.7146 87.0973C37.1347 84.9917 35.7589 82.9989 36.7186 80.0288C34.3791 82.0634 33.3065 85.2876 33.3952 87.6175C33.246 88.228 34.1823 89.132 32.9621 89.3828C31.8162 89.0683 30.0025 88.0747 29.8291 86.9255C28.3355 88.5497 29.8218 90.1796 29.8137 91.4925C27.6218 91.7884 25.1057 92.3344 23.7605 93.5554C24.8766 93.6005 26.021 93.3973 27.0492 93.6739C27.1121 94.5143 25.5678 94.7086 24.825 95.2264C22.9444 96.4667 20.8815 99.5699 23.0057 100.513C23.0323 100.396 24.3178 96.9707 26.8758 96.0554C27.0855 95.7691 26.6767 96.8893 26.8855 97.2126C25.5629 98.428 24.7234 99.6376 24.1968 100.946C23.6347 101.646 22.671 102.484 21.0517 103.102C17.7105 104.377 16.1033 104.967 14.8847 105.315C13.6654 105.663 13.2928 106.033 12.5412 106.599C11.7896 107.165 11.5315 108.284 11.5315 108.284C11.5315 108.284 13.1113 106.963 16.5387 106.817C17.9178 106.756 19.492 107.42 19.492 107.42C19.492 107.42 18.0517 108.003 16.3952 109.149C14.646 110.359 14.4468 110.553 13.5807 111.107C12.6767 111.685 11.1887 112.384 10.5831 112.685C9.97746 112.986 7.23633 113.832 7.23633 113.832C7.23633 113.832 7.94439 114.79 10.125 115.146C11.3912 115.351 13.3291 115.353 14.4041 115.399C15.4823 115.444 18.4952 115.518 18.9565 115.484C19.4154 115.448 18.746 116.376 17.7734 117.101C16.7178 117.892 16.8605 119.276 18.871 119.759C20.8815 120.242 22.1694 120.459 24.4678 120.282C26.7654 120.106 29.6847 120.137 29.6847 120.137C29.6847 120.137 29.4121 121.801 31.2686 122.297C33.1258 122.792 36.6379 122.209 39.2307 121.629C41.5202 121.116 43.796 119.642 44.3 119.304C44.4162 119.309 44.4839 119.295 44.4041 119.231L42.0912 119.061L39.546 118.73C34.6113 117.772 30.3137 115.541 27.7202 112.926C27.1541 112.344 25.7218 112.898 24.8033 112.665C24.646 112.517 24.5468 112.374 24.5436 112.254C24.5242 111.617 25.4194 110.659 25.4194 110.659C25.4194 110.659 24.3912 110.737 22.9605 110.592C21.4226 110.437 21.096 109.842 21.2307 109.197C21.3396 108.677 21.6678 108.462 22.4863 107.922C22.4726 107.889 22.4613 107.851 22.496 107.917C24.2089 107.081 25.9912 107.122 27.4952 106.539C27.3323 106.51 27.2025 106.447 27.0396 106.419C26.9057 106.142 27.1307 105.792 27.4839 105.597C28.1275 105.284 29.0065 105.253 29.7194 105.29C29.5137 104.967 29.0347 104.698 29.396 104.32C30.1065 104.144 30.7662 104.376 31.4347 104.422C31.1371 104.117 30.9734 103.784 31.3758 103.488C32.6775 103.405 33.9863 104.05 34.8976 104.596C34 102.035 32.4928 99.3135 33.1258 96.8368C33.725 95.3102 34.1879 93.261 38.8831 92.5046C41.2323 92.328 44.0202 93.2715 46.3678 95.0836C49.9508 98.1594 52.6355 101.324 55.7758 104.613C56.8976 105.39 57.7912 106.305 59.5565 106.766C60.2379 106.841 61.0178 107.014 61.6339 106.645C62.4928 105.859 62.2299 104.907 62.5113 104.057C62.8492 103.012 60.9734 103.854 60.292 103.17C59.4783 103.033 58.5387 100.693 58.4678 102.385C57.6637 102.672 57.8968 101.925 57.4847 101.795C57.3444 101.916 56.9839 101.989 56.8121 101.842C55.5775 98.8941 53.075 96.5086 51.0065 94.0973C50.8234 93.9215 50.1775 93.7199 50.4581 93.4796C56.1912 95.0489 57.7936 98.957 61.0258 101.922C61.4621 102.412 62.3702 102.745 63.3597 102.329C64.1525 101.709 64.9194 100.94 65.0363 100.155C65.5339 94.7481 64.8775 88.3901 59.9783 83.6328C58.317 81.0126 53.9339 77.9497 48.1936 77.9981ZM39.6992 94.1997C39.2404 94.2183 38.775 94.2957 38.3065 94.4457C33.5912 95.9876 34.5976 99.3368 35.6242 102.48C35.9525 103.358 36.8783 105.122 36.9992 105.98C35.8258 105.306 34.4218 104.977 32.9686 104.543C33.2242 105.07 33.8396 105.177 33.7387 105.685C33.2734 105.751 32.8073 105.512 32.4879 105.364C32.3662 105.42 30.6299 104.858 30.9129 105.136C30.6097 105.838 31.0202 105.892 30.225 105.994C29.9396 106.022 27.5113 105.958 28.7347 106.224C28.996 106.355 30.1089 107.003 29.8879 107.26C28.3202 107.613 26.0057 107.667 24.4331 108.111C24.0008 108.218 21.4944 108.639 22.0581 109.592C23.4339 110.072 25.2694 110.136 26.7387 109.681C28.4758 110.392 25.5791 111.079 25.9621 111.762C26.5355 111.919 27.8436 111.529 28.4113 111.474C29.1283 111.723 29.4041 112.583 29.8452 112.981C32.4 115.572 36.2291 117.472 41.2081 118.225L46.2202 119.654L46.3597 119.692C46.3597 119.692 55.2573 122.594 57.7718 123.125C60.2847 123.657 61.3976 123.222 62.4605 123.029C63.5242 122.836 65.1194 122.061 65.5541 121.48C65.9896 120.901 65.7484 121.095 65.6516 120.854C65.567 120.645 65.2621 120.8 64.9686 120.874C64.921 120.886 64.875 120.896 64.8299 120.902C64.5 120.945 63.7646 120.417 63.7646 120.417C63.7267 120.391 63.6468 120.317 63.5379 120.211C62.8355 119.524 60.9186 117.431 60.9186 117.431C60.9186 117.431 61.7831 117.663 62.4121 117.663C63.0396 117.663 65.8936 118.146 66.4742 118.146C67.0533 118.146 67.1017 118.339 68.5041 118.871C69.9065 119.403 72.4686 119.983 72.4686 119.983C72.4686 119.983 74.5968 120.417 73.9194 116.647C73.5186 114.412 72.3347 112.842 70.8468 111.551C69.8218 110.661 68.6516 109.901 67.4887 109.152C64.6347 107.315 63.7178 106.928 63.7178 106.928C64.7339 105.961 64.5396 103.254 64.346 103.157C64.1533 103.061 63.2339 103.593 63.2339 103.593C63.2339 103.593 63.1863 104.317 63.1379 104.704C63.0896 105.09 62.8968 106.493 62.8968 106.493C62.8968 106.493 62.7017 106.735 61.9283 107.171C61.1549 107.605 59.6081 107.46 58.1573 107.024C56.7065 106.589 53.9033 104.027 52.5976 102.819C51.2928 101.609 48.342 98.5643 47.8597 98.3215C47.8057 98.2941 47.6936 98.2449 47.5428 98.1828C47.5517 98.182 47.5589 98.1804 47.5678 98.1788C45.8234 96.8296 42.9113 94.0675 39.6992 94.1997ZM47.0291 98.5457C47.3815 98.5231 47.721 98.6022 47.9492 98.8417C50.167 100.947 52.3202 103.127 54.6275 105.214C52.2508 105.326 53.1017 108.009 53.9662 109.172C54.5662 110.122 55.7508 109.772 56.4831 109.742C56.946 110.563 55.2654 111.121 54.1896 111.463C52.4105 110.668 49.8742 110.152 48.5742 109.017C45.4154 106.403 44.0565 102.381 45.6041 99.2288C45.817 98.8997 46.442 98.582 47.0291 98.5457ZM63.7871 104.192C64.0912 104.172 64.0887 104.501 64.0218 104.613C63.867 104.987 63.9057 105.374 63.8388 105.791C63.3275 105.363 63.3508 104.68 63.6371 104.224C63.6936 104.205 63.7436 104.195 63.7871 104.192ZM55.1742 106.134C55.4162 106.173 55.4557 106.486 55.4057 106.61C55.292 107.092 55.417 107.553 55.4202 108.07C54.7121 107.637 54.6065 106.805 54.8605 106.205C54.9904 106.141 55.0936 106.122 55.1742 106.134ZM62.5266 107.255C67.6371 109.897 73.3073 114.072 72.2799 118.704C63.021 115.326 55.0476 117.438 48.2662 114.506C47.9904 114.349 47.9783 114.015 47.8121 113.775C49.0347 113.434 50.4315 113.545 51.7686 113.331C52.2613 113.017 51.4517 113.09 51.2629 113.008C48.5218 112.991 45.6363 112.882 42.871 113.632C42.667 113.825 42.8146 114.13 43.0315 114.268C44.3323 114.488 45.0234 113.769 46.3791 113.796C47.571 116.613 50.3742 117.765 53.3613 119.409C55.8831 120.509 59.6936 121.859 62.8137 122.041C62.121 122.762 60.6049 122.403 59.5291 122.442C54.05 121.491 48.425 119.841 43.367 117.919C42.4162 117.596 41.7033 116.95 40.8186 116.764C40.5291 116.885 40.8315 117.097 40.6186 117.171C36.0791 115.601 31.696 112.855 31.9146 110.463C31.8863 109.705 32.5775 109.131 33.2476 108.872C38.3129 107.438 42.3041 108.687 47.2057 109.876C49.7275 111.108 55.296 112.64 58.1137 113.832C58.7105 113.221 53.9629 112.347 55.5629 111.958C58.7105 111.214 58.146 108.975 58.2758 107.607C59.4662 107.911 60.9307 108.161 62.0508 107.505C62.2041 107.411 62.2742 107.246 62.5266 107.255ZM61.2968 109.031C60.696 109.016 59.6654 109.584 59.7968 109.851C60.8694 110.118 62.7815 110.129 63.8517 110.489C63.3904 109.852 62.5662 109.38 61.5234 109.075C61.4597 109.047 61.3823 109.033 61.2968 109.031ZM50.4162 116.167C51.9371 116.466 53.9355 117.06 56.3984 117.23C57.4121 118.088 58.2089 119.115 58.6492 120.123C55.4863 119.033 52.6436 117.785 50.4162 116.167Z" fill="#00539F"/>
<path d="M44.167 76.853C44.1404 76.8635 44.1162 76.8756 44.0912 76.8877C44.1057 76.8796 44.1202 76.8772 44.1339 76.8708C44.146 76.8659 44.1557 76.8579 44.167 76.853ZM47.0299 98.5458C46.4428 98.5821 45.817 98.8998 45.6049 99.2288C44.0573 102.381 45.4162 106.403 48.5767 109.017C49.8767 110.152 52.4114 110.668 54.1904 111.463C55.2654 111.121 56.9469 110.564 56.484 109.741C55.7517 109.771 54.567 110.122 53.967 109.172C53.1025 108.009 52.2517 105.326 54.6283 105.214C52.321 103.127 50.1678 100.947 47.9501 98.8417C47.7219 98.6022 47.3831 98.5232 47.0299 98.5458ZM63.788 104.193C63.7444 104.195 63.6928 104.205 63.6364 104.224C63.3509 104.68 63.3275 105.363 63.8396 105.791C63.9065 105.373 63.8678 104.987 64.0243 104.613C64.0904 104.501 64.092 104.172 63.788 104.193ZM55.1751 106.136C55.0944 106.123 54.9904 106.139 54.8598 106.204C54.6057 106.804 54.713 107.637 55.421 108.072C55.4178 107.554 55.2936 107.091 55.4065 106.61C55.4573 106.486 55.4178 106.175 55.1751 106.136ZM78.3702 106.531L79.592 108.914L76.3614 120.975H82.3194L84.7872 119.189L85.9323 114.911L84.9565 113.753L86.5372 112.634L87.6985 108.319L86.1904 106.531H78.3702ZM88.6662 106.531L89.8678 108.197L86.6339 120.975H93.7146L94.8356 116.769H92.271L91.763 118.663H90.2146L93.4646 106.531H88.6662ZM97.3275 106.531L98.5452 108.914L95.7952 119.189L97.2791 120.975H101.287L103.739 119.189L107.15 106.531H104.166L101.037 118.214L100.408 118.663H99.4001L99.013 118.214L102.142 106.531H97.3275ZM109.368 106.531L108.739 108.914L105.505 120.973H112.69L113.819 116.769H111.239L110.731 118.663H109.086L110.086 114.928H113.392L114.061 112.418H110.763L111.698 108.914H113.287L112.787 110.776H115.392L116.521 106.531H109.368ZM121.803 106.531L123.013 108.896L119.771 120.975H122.739L124.352 114.928H126.271L124.65 120.975H127.61L131.481 106.531H128.521L126.948 112.398H125.029L126.602 106.531H121.803ZM133.973 106.531L133.352 108.914L130.118 120.973H137.303L138.424 116.769H135.844L135.336 118.664H133.698L134.698 114.926H137.997L138.674 112.419H135.368L136.311 108.914H137.892L137.4 110.776H139.997L141.134 106.531H133.973ZM143.279 106.531L142.747 108.896L139.505 120.975H142.198L144.166 113.627L145.142 120.975H147.561L151.432 106.531H148.723L146.787 113.755L145.779 106.531H143.279ZM155.086 106.531L152.827 108.897L151.626 113.393L152.94 114.946H155.852L156.094 115.235L155.295 118.214L154.674 118.663H153.602L153.223 118.214L153.61 116.769H150.642L149.997 119.189L151.505 120.975H155.529L157.997 119.189L159.392 113.988L158.094 112.418H155.166L154.924 112.109L155.65 109.403L156.287 108.914H157.263L157.65 109.365L157.271 110.776H160.231L160.892 108.318L159.384 106.531H155.086ZM22.4727 107.881C22.4727 107.887 22.4791 107.905 22.4856 107.922C22.4888 107.92 22.4936 107.919 22.496 107.916C22.4791 107.883 22.4727 107.876 22.4727 107.881ZM82.5517 108.914H84.0678L84.4549 109.365L83.7533 111.967L82.9549 112.4H81.6162L82.5517 108.914ZM80.9388 114.926H82.2775L82.7936 115.577L82.0759 118.23L81.4549 118.664H79.942L80.9388 114.926ZM63.5372 120.213C63.646 120.318 63.7259 120.392 63.7654 120.418C63.7654 120.418 64.4993 120.943 64.8291 120.901C64.8735 120.896 64.921 120.884 64.9678 120.872C64.5452 120.869 64.042 120.6 63.5372 120.213Z" fill="white"/>
</g>
<defs>
<clipPath id="clip0_15016_302945">
<rect width="200" height="200" fill="white" transform="translate(0.605469 0.753906)"/>
</clipPath>
</defs>
</svg>
