<svg width="200" height="201" viewBox="0 0 200 201" fill="none" xmlns="http://www.w3.org/2000/svg">
<g clip-path="url(#clip0_15016_304006)">
<path d="M199.961 35.153C199.358 33.9373 197.986 33.1762 195.885 32.892C189.482 32.023 176.153 35.5019 158.471 45.7106C148.911 49.9828 135.668 58.6916 120.793 73.3742C119.037 74.9256 117.264 76.5305 115.477 78.1827C111.48 76.0274 106.425 75.0859 100.647 76.7169C97.2787 74.4518 93.4833 74.5899 93.3683 74.5819C92.2796 70.3298 89.7514 66.0233 84.5063 62.9134L84.3965 62.8489L84.2775 62.8055C82.9519 62.3045 81.2634 62.4587 80.5285 63.871C80.2805 64.1906 80.0658 64.5898 80.0658 65.114V65.1705C80.09 66.0092 80.5829 66.7682 81.5325 67.4235L81.6182 67.484L81.716 67.5314C81.9942 67.6695 86.0921 69.8026 88.3098 74.9165C88.2856 74.9226 84.839 75.4831 81.1112 78.1212C77.9771 74.5778 73.4125 71.3631 67.0768 71.0586C35.8476 53.4617 12.922 50.0101 4.30396 52.8649C2.26966 53.5403 1.01563 54.5736 0.581145 55.9416C-1.8463 63.5646 17.5612 76.2643 37.8759 85.4701L38.7499 85.5537C53.9022 83.1323 69.5344 89.0931 77.6343 92.1828C77.6525 92.199 77.6726 92.2191 77.6867 92.2353C78.095 93.2423 78.5134 94.1758 78.9367 95.0538C77.6121 95.7282 76.7008 96.8401 76.2542 97.6768C74.6242 98.0619 72.9861 98.9964 71.3772 99.9158C70.1574 100.615 68.8963 101.336 67.5566 101.903C63.118 103.784 62.2864 107.368 62.4668 109.152C62.4326 109.179 62.3993 109.201 62.365 109.227L62.2289 109.335L62.1241 109.473C61.3378 110.517 60.4023 112.881 61.7823 115.054C59.5666 116.009 58.7521 117.774 58.7521 117.774C57.9365 119.424 58.1946 120.646 58.5555 121.379C59.4225 123.137 61.5414 123.608 61.7823 123.656C61.7823 123.656 64.3661 120.804 65.8641 121.86C65.9276 123.343 62.0928 123.846 62.0928 123.846C62.0928 123.846 69.3308 125.25 72.7734 122.203H73.0859C76.5537 122.203 79.0769 117.222 79.5497 116.223C79.962 115.346 80.7593 114.354 81.5043 113.542C82.4156 113.888 83.3491 113.97 84.2543 113.834C84.1959 113.997 84.1555 114.153 84.1374 114.299C80.1666 114.857 79.7735 118.554 79.7735 118.554C79.3269 121.032 82.1212 121.813 82.1212 121.813C81.0718 121.371 81.3118 120.351 81.3118 120.351C81.9489 117.699 85.33 117.427 85.33 117.427C87.7987 117.226 87.4046 119.402 87.4046 119.402L87.0235 119.195C86.9701 119.834 85.1757 121.567 85.1757 121.567C88.085 120.752 88.9348 118.891 89.1828 117.928C89.2332 118.369 89.2231 118.698 89.2231 118.698C90.6516 118.288 91.4681 115.854 91.7363 114.2C91.831 113.622 92.1637 112.942 92.5558 112.302C93.4933 113.305 94.5972 114.184 95.8946 114.9C96.1184 115.024 96.3432 115.14 96.568 115.252L97.4732 115.266C78.0194 128.412 90.4691 145.665 74.2542 170.963C74.1837 171.029 74.1161 171.094 74.0456 171.157C53.3246 181.023 26.8153 184.711 26.8153 184.711C26.8153 184.711 55.9436 183.177 75.4317 178.117C84.5366 178.206 116.124 176.099 131.923 143.968C131.923 143.968 133.104 141.566 134.259 137.771C136.642 136.184 139.014 133.745 139.929 130.066L139.939 130.03L139.945 129.994C140.065 129.363 140.118 128.77 140.104 128.211C142.801 124.68 142.032 120.205 140.552 117.446C139.783 116.01 138.797 111.875 138.481 110.4L138.467 110.334L138.444 110.27C137.356 106.963 134.722 107.644 133.457 107.97C133.139 108.053 132.841 108.096 132.562 108.122C132.4 107.83 132.226 107.542 132.048 107.254C132.11 105.659 131.519 104.712 130.995 104.195C130.407 103.622 129.706 103.358 129.112 103.235C128.789 102.867 128.432 102.507 128.084 102.143C129.079 101.193 129.989 99.8906 129.798 98.2242C129.676 97.1435 128.929 96.1335 127.379 95.0387C126.302 94.2756 124.943 94.5911 124.943 94.5911C124.943 94.5911 125.863 89.1082 123.175 85.5406C132.741 79.7926 141.429 75.5385 149.087 72.8661C157.443 69.9488 162.796 69.5394 165.815 69.7098L166.267 69.736L166.669 69.478C185.663 57.2783 203.319 41.9344 199.962 35.1551M80.0335 106.062C80.0335 106.062 77.9367 107.501 77.9166 107.517C77.7946 107.588 77.476 107.708 77.0769 107.838C77.2694 107.286 77.4297 106.723 77.5638 106.184C77.6504 105.836 77.8541 105.195 78.2835 104.56C79.0537 104.891 79.969 105.015 80.8844 105.005C80.4942 105.369 80.2079 105.75 80.0335 106.062Z" fill="#231F20"/>
<path d="M171.166 45.2432C165.295 46.2787 158.336 49.3658 150.65 56.6441C155.61 54.2086 158.529 53.7473 158.529 53.7473C162.908 48.8867 169.207 47.2875 172.005 46.7948C171.997 46.7972 171.981 46.7972 171.973 46.7996C171.965 46.3851 171.868 46.0198 171.682 45.7174C171.561 45.5351 171.392 45.3754 171.166 45.2432ZM163.844 45.9061C159.416 47.1561 153.061 49.9263 145.763 54.5933L145.755 54.6045C141.819 58.6643 136.811 63.8514 132.319 68.5337C136.19 66.3063 139.9 64.7667 143.335 63.7232C151.142 53.7699 158.263 48.5843 163.844 45.9061ZM170.795 49.09C165.699 49.969 162.094 51.8892 159.997 53.311V53.3142C163.376 52.5473 166.932 52.5424 168.803 52.615C169.731 51.2989 170.408 50.111 170.795 49.09ZM167.416 55.0441C158.94 55.0658 151.626 57.7634 147.811 59.624C147.755 59.6538 147.682 59.6844 147.634 59.7127C146.69 60.7715 145.739 61.8909 144.779 63.0837C151.247 61.3078 156.602 61.2699 159.957 61.5506L160.707 61.6151C163.182 59.4022 165.344 57.2772 167.174 55.3005C167.255 55.2167 167.344 55.1255 167.416 55.0441ZM150.642 56.6473C150.634 56.6489 150.626 56.6554 150.602 56.661L150.594 56.6691C150.61 56.661 150.626 56.6554 150.642 56.6473ZM140.674 58.6804C134.158 63.4385 126.32 70.0724 118.578 77.9217C120.417 77.2024 122.247 76.5532 124.094 76.0201C129.699 70.0595 136.174 63.3288 140.674 58.6804ZM30.3117 61.0998C36.265 62.3159 44.2328 65.6772 53.8886 73.7426C55.9854 73.8225 58.2209 74.0596 60.5701 74.4926C60.5644 74.4443 60.5548 74.4031 60.5531 74.3555C60.5386 74.2515 60.5749 74.1289 60.5749 74.0305C60.5749 73.5144 60.7419 73.0499 61.0161 72.6515C57.0184 69.9829 52.9853 67.3071 49.6168 65.0716C49.6103 65.07 49.6119 65.0692 49.6055 65.0651C41.3917 62.2103 34.8561 61.1224 30.3214 61.0998H30.3117ZM25.4101 62.3095C24.6286 62.3167 23.8697 62.357 23.1342 62.4248C22.9463 62.6183 22.8141 62.828 22.7423 63.0458C22.6237 63.4062 22.6125 63.8054 22.6899 64.2321C22.6399 64.2361 22.606 64.2425 22.5576 64.2466C25.306 63.9796 31.8085 63.8546 37.1182 67.6789C37.1182 67.6789 40.0538 67.3514 45.3877 68.5071C45.3715 68.5007 45.3538 68.4982 45.3353 68.4942C37.5005 63.8103 30.8835 62.2603 25.4101 62.3095ZM155.273 64.4103C149.313 64.4071 139.272 65.7563 128.717 72.295C127.652 73.4128 126.596 74.5273 125.572 75.6185C129.257 74.6572 133.047 74.0467 137.2 73.7588C143.942 70.6418 148.361 69.8926 150.877 69.8128C153.248 68.0224 155.482 66.2369 157.563 64.4845C156.894 64.4401 156.127 64.4103 155.273 64.4103ZM26.1681 66.1377C25.5689 66.1563 24.9496 66.1942 24.3109 66.2563C24.8778 67.1498 25.8641 68.2732 26.9714 69.3232C28.752 68.7418 32.1859 67.7708 35.6174 67.6329C33.59 66.8579 30.3641 66.0079 26.1681 66.1377ZM55.1692 67.7176C57.0636 68.974 59.2596 70.4353 61.6193 72.0136C62.0257 71.6765 62.5104 71.4184 63.0128 71.262C62.9911 71.2676 62.9701 71.2781 62.9499 71.2837C60.2443 69.9458 57.641 68.7515 55.1692 67.7176ZM39.5973 70.0474C36.4497 70.0966 32.8513 70.5224 28.9875 71.6354C31.2351 73.2257 33.8908 74.8838 36.8787 76.5467L37.586 76.2806C40.757 75.0765 45.9272 73.6563 52.5402 73.7128C51.3789 72.7636 50.2385 71.887 49.1192 71.0684C46.949 70.5442 43.6449 69.9845 39.5973 70.0474ZM140.581 74.7177C139.443 74.816 138.201 74.9515 136.911 75.1112C134.145 76.5717 130.888 78.7524 127.573 81.0734C127.751 81.0596 127.936 81.0427 128.105 81.0306C132.693 78.4612 136.847 76.3878 140.581 74.7177ZM53.8797 75.9838C47.9184 76.0838 43.236 77.3653 40.3683 78.4128C42.7376 79.6346 45.2643 80.8484 47.9183 82.0274C50.3579 81.4266 54.7789 80.9879 61.9411 82.3379C66.0072 81.5032 69.7895 81.0951 73.5444 81.075C72.3371 80.2475 71.0992 79.4072 69.8565 78.5661C63.9266 76.5451 58.5168 75.9072 53.8797 75.9838ZM131.615 76.6177C127.422 77.2185 120.737 78.6193 114.342 81.325C113.309 82.2282 112.221 83.1161 111.293 84.1476L109.664 86.7218L111.89 84.9008C115.172 83.0863 120.511 81.9976 123.656 81.4967C126.543 79.5766 129.188 77.9693 131.615 76.6177ZM68.6008 76.7007C70.7791 78.1709 72.9629 79.6548 75.0452 81.083C75.9146 81.1032 76.7888 81.1645 77.6622 81.2225C74.5557 78.2386 71.2121 77.0894 68.6008 76.7007ZM73.6025 83.1653C71.3194 83.2508 69.2694 83.4387 67.6089 83.6548C69.4153 84.1436 71.3653 84.7387 73.4404 85.4379C73.4186 85.3242 73.396 85.2097 73.3823 85.096C73.3105 84.4629 73.3581 83.8403 73.5662 83.2452C73.5767 83.2177 73.5928 83.1927 73.6025 83.1653ZM118.64 85.0065C116.406 85.525 112.277 86.571 110.116 87.4178C109.366 88.4154 109.495 89.3597 113.422 88.875C113.914 88.5379 116.342 86.6944 118.64 85.0065ZM125.874 95.7977C122.963 95.9219 122.18 97.9993 122.18 97.9993C121.237 99.1211 121.035 105.807 113.269 107.395C108.696 108.595 108.471 112.495 108.471 112.495C108.737 112.516 110.1 113.083 110.68 114.083C110.696 114.107 110.704 114.123 110.713 114.139C110.825 113.663 110.971 112.808 110.761 112.094C110.463 111.032 111.221 109.822 113.035 109.52C114.858 109.216 119.551 107.398 121.059 103.158C122.301 99.6929 123.438 96.334 125.874 95.7977ZM79.6308 96.4162C78.1969 97.1856 77.5235 98.5921 77.5235 98.5921C78.5904 98.5921 79.3114 98.7639 79.8025 98.9824C79.9509 98.6155 80.1654 98.213 80.4058 97.8106C80.1453 97.3679 79.8872 96.9009 79.6308 96.4162ZM76.6235 99.2663C74.2589 99.351 71.8912 101.728 68.2468 103.273C63.4016 105.326 64.0709 108.685 64.0709 108.685C67.0992 107.082 69.279 107.026 70.8145 107.515C71.6557 107.381 72.4258 107.208 72.7662 107.597C73.1492 106.968 73.6259 105.863 73.9904 104.391C74.2146 103.492 74.9767 101.25 77.1799 99.9179C77.3243 99.8316 77.5073 99.6018 77.6412 99.3792C77.3001 99.2889 76.9614 99.2534 76.6235 99.2663ZM125.076 106.897C123.826 108.666 123.592 110.745 123.632 111.862C123.696 113.583 123.1 114.849 122.398 115.429C121.688 116.01 120.809 116.97 120.809 116.97C122.043 116.615 123.067 116.502 123.93 116.566V116.558C124.471 116.01 125.301 114.8 125.301 112.547C125.301 110.653 124.809 108.578 125.076 106.897ZM64.2112 109.792C63.9306 109.978 63.6467 110.186 63.3604 110.418C63.3604 110.418 61.4725 112.921 63.5653 115.099C63.5653 115.099 64.4048 115.841 66.0411 116.147C62.8225 113.978 63.5064 111.242 64.2112 109.792ZM60.3628 118.091C60.1991 118.333 60.1177 118.502 60.1177 118.502C58.5152 121.744 62.2088 122.486 62.2088 122.486C61.3757 121.816 61.4088 121.026 61.5273 120.558C61.529 120.55 61.5265 120.55 61.529 120.542C60.9217 119.825 60.5693 118.881 60.3628 118.091ZM132.252 120.897C131.655 122.05 130.793 122.075 130.793 122.075C130.632 123.832 131.494 124.622 131.494 124.622C132.591 124.235 133.518 124.058 134.333 124.009L134.317 123.993C133.357 123.477 132.68 122.018 132.252 120.897Z" fill="#72CDF4"/>
<path d="M198.819 36.2859C191.876 37.3053 183.126 40.4448 173.997 47.2545C173.932 47.4634 173.852 47.6747 173.763 47.8908C176.626 47.1344 178.191 47.0183 178.191 47.0183C185.779 39.7658 196.408 39.0367 198.625 38.9649C198.988 37.9214 199.045 37.0262 198.819 36.2859ZM184.779 37.4528C181.021 38.5287 176.408 40.2037 171.352 42.4948C172.473 42.6392 173.271 43.0174 173.747 43.6319C177.771 40.8464 181.473 38.8585 184.779 37.4528ZM196.98 42.0868C191.215 42.9101 186.465 44.7787 183.82 46.2844V46.286C187.9 46.136 191.586 46.6053 193.117 46.8376C194.714 45.1247 196.012 43.5327 196.98 42.0868ZM187.892 49.2457C181.529 49.2296 175.916 50.332 171.65 51.5836C170.344 53.4417 168.594 55.4732 166.545 57.5861C171.707 57.3079 175.957 57.7393 178.957 58.274L179.957 58.449C184.118 55.2546 187.731 52.1683 190.666 49.3247C189.731 49.2739 188.804 49.2481 187.892 49.2457ZM15.9244 55.6046C18.7366 56.3095 21.8559 57.3764 25.2568 58.9168C26.9713 58.6885 29.0971 58.6692 31.5964 58.9079C25.61 57.1474 20.2067 56.0974 15.9244 55.6046ZM3.93802 56.7982C3.23237 56.7837 2.54285 56.7893 1.87107 56.8127C1.70897 57.6442 1.88316 58.5909 2.39607 59.645C4.29448 59.3643 12.4647 58.4676 20.0874 62.2031C20.1132 62.0224 20.1559 61.8458 20.2116 61.6716C20.3503 61.249 20.6204 60.8805 20.9713 60.5458C14.6325 57.9716 8.87759 56.8998 3.93802 56.7982ZM170.631 60.5539C168.332 60.5531 165.784 60.6821 163.034 61.0168C159.631 64.1862 155.719 67.433 151.695 70.4854C158.566 68.3846 163.187 68.062 165.994 68.2201C169.808 65.7668 173.397 63.2999 176.711 60.8732C174.97 60.6853 172.929 60.5539 170.631 60.5539ZM6.4945 62.4982C5.79772 62.4829 5.08561 62.4853 4.3598 62.5087C5.50739 63.8507 7.01305 65.291 8.84533 66.8031C10.3437 66.2781 14.0034 65.1007 18.1212 64.5297C18.0591 64.5378 17.9954 64.5458 17.9374 64.5539C15.4817 63.6039 11.372 62.6055 6.4945 62.4982ZM82.6138 63.9894C82.4283 64.012 82.2428 64.066 82.0815 64.1725C82.4847 64.2087 82.8073 64.3313 82.8073 64.3313C95.6462 71.9467 91.0574 87.1751 90.38 89.1961C90.5332 89.4187 90.8074 89.5864 91.259 89.2356C91.259 89.2356 97.5333 72.3096 83.767 64.1442C83.767 64.1442 83.1783 63.9224 82.6138 63.9894ZM22.439 67.4378C19.0882 67.5354 15.4115 67.9507 11.5357 68.8975C14.8083 71.3233 18.7922 73.879 23.3366 76.4492L24.2947 76.0879C26.0189 75.4355 28.2004 74.7419 30.7536 74.1492C27.235 71.862 24.3318 69.5725 22.439 67.4378ZM150.302 70.9249C148.947 71.0128 147.092 71.2975 144.656 72.0161C145.495 72.008 146.326 71.9927 147.189 72.0072C148.277 71.6064 149.31 71.2491 150.302 70.9249ZM66.383 72.4983C65.4451 72.4846 64.466 72.5395 63.445 72.6717C63.445 72.6717 61.9813 73.1298 62.0596 74.1274C62.4676 73.7604 63.0233 73.5854 63.0233 73.5854C77.9758 71.6507 83.967 86.321 84.8703 88.8025C85.088 88.8066 85.3057 88.6832 85.4106 88.2461C85.4106 88.2461 80.4549 72.7008 66.383 72.4983ZM34.7891 76.6177C31.6972 77.0758 29.0125 77.7185 26.8471 78.3734C30.4326 80.2887 34.2843 82.1968 38.3682 84.0468C41.6723 83.242 47.6667 82.6726 57.3982 84.5799C59.2628 84.2009 61.0749 83.9154 62.8676 83.6694C62.112 83.5146 61.3563 83.3613 60.6289 83.2388C54.2861 82.1718 50.357 82.5855 48.1764 83.1226L47.8497 83.2033L47.5336 83.0646C43.0868 81.0855 38.7069 78.8823 34.7891 76.6177ZM110.032 78.7403C110.056 78.8645 110.096 78.9863 110.112 79.1186C110.193 79.8936 109.435 85.1154 105.927 87.4291C105.814 88.1001 105.516 89.4775 104.895 91.23C106.225 90.6848 107.596 90.2711 108.983 89.9582C106.024 87.2186 110.12 83.2404 110.12 83.2404L110.814 82.5678C111.661 81.7573 112.5 80.9565 113.33 80.1694C112.322 79.5944 111.225 79.1049 110.032 78.7403ZM70.8 85.7501C68.3419 85.796 66.0773 85.9404 64.0797 86.1404C67.5306 87.0678 71.3685 88.2864 75.5758 89.8187C74.8911 88.9033 74.2193 87.8356 73.7927 86.734C72.7798 86.3856 71.7798 86.0565 70.8 85.7501ZM120.492 87.1694C119.346 87.8783 118.193 88.6058 117.024 89.3566C118.129 89.4291 119.242 89.5501 120.346 89.7445L121.435 88.7251C121.161 88.2388 120.846 87.7122 120.492 87.1694ZM125.863 95.7961C123.427 96.3349 122.29 99.693 121.048 103.158C119.54 107.398 114.846 109.216 113.024 109.52C111.209 109.822 110.451 111.032 110.75 112.094C110.959 112.808 110.814 113.663 110.701 114.139C110.693 114.123 110.677 114.107 110.669 114.083C111.451 115.687 111.241 117.913 111.241 117.913C118.613 119.083 122.564 109.729 122.653 108.904C122.742 108.079 124.613 103.478 125.637 102.724C126.669 101.968 127.709 102.114 128.572 100.253C129.024 98.9155 128.935 97.6462 126.822 96.1582C126.508 95.9357 126.185 95.8316 125.863 95.7961ZM121.322 97.7962C120.08 99.3486 115.072 99.7954 115.072 99.7954C108.774 99.4889 107.959 102.174 107.959 102.174C107.701 102.68 108.12 103.766 108.12 103.766C109.709 106.962 113.838 104.056 113.838 104.056C117.653 102.706 117.943 104.393 117.943 104.393C119.669 103.634 120.088 100.468 121.322 97.7962ZM80.3928 97.8123C80.1541 98.2147 79.9412 98.6155 79.7912 98.9841C80.6605 99.3704 80.7976 99.9067 80.7976 99.9067C81.7412 101.507 78.8275 103.396 78.8275 103.396C80.4492 104.207 83.2815 103.674 84.2977 103.095C83.0477 101.787 81.7089 100.07 80.3928 97.8123ZM77.6299 99.3809C77.4936 99.601 77.3145 99.8333 77.1702 99.9196C74.9669 101.252 74.204 103.49 73.9774 104.391C73.6129 105.862 73.1379 106.967 72.7532 107.599C72.4129 107.208 71.6443 107.38 70.8032 107.516C73.0564 108.233 73.9097 110.128 73.9097 110.128C75.5919 110.048 76.3653 106.312 76.4468 105.983C76.529 105.656 77.0411 103.486 79.0315 102.328C80.1815 101.659 78.9912 100.027 78.9912 100.027C78.5242 99.6986 78.075 99.4994 77.6299 99.3809ZM128.137 104.492C126.726 105.061 125.75 105.934 125.064 106.897C124.798 108.578 125.29 110.653 125.29 112.547C125.29 114.8 124.467 116.01 123.919 116.558V116.567C126.895 116.792 127.822 119.204 128.08 121.188C128.105 121.405 128.121 121.623 128.137 121.833C128.153 122.083 128.161 122.308 128.161 122.526C128.161 122.647 128.169 122.776 128.161 122.881C128.161 122.994 128.153 123.075 128.153 123.163C128.129 123.493 128.105 123.816 128.105 123.816C128.234 123.759 128.338 123.687 128.459 123.622C128.564 123.566 128.677 123.509 128.782 123.445C128.895 123.365 128.992 123.276 129.088 123.196C129.177 123.115 129.282 123.05 129.363 122.97C129.467 122.865 129.556 122.744 129.653 122.631C129.709 122.558 129.782 122.486 129.838 122.405C129.919 122.308 129.976 122.196 130.04 122.083C130.113 121.978 130.177 121.881 130.242 121.768C130.298 121.655 130.346 121.534 130.395 121.421C130.451 121.308 130.5 121.204 130.548 121.083C130.596 120.962 130.629 120.841 130.669 120.712C130.709 120.591 130.75 120.47 130.79 120.341C130.814 120.228 130.838 120.115 130.871 119.994C130.895 119.857 130.927 119.728 130.959 119.591C130.984 119.454 131 119.317 131.024 119.171C131.04 119.058 131.056 118.946 131.064 118.833C131.088 118.687 131.096 118.534 131.104 118.389C131.112 118.284 131.128 118.179 131.128 118.075C131.144 117.905 131.144 117.744 131.144 117.583C131.152 117.51 131.152 117.429 131.152 117.357C131.152 117.075 131.136 116.817 131.128 116.55C131.112 116.341 131.112 116.123 131.096 115.929C131.08 115.704 131.056 115.534 131.032 115.341C131.008 115.147 130.992 114.954 130.967 114.792C130.943 114.631 130.919 114.534 130.895 114.405C130.871 114.3 130.855 114.163 130.838 114.083C130.838 114.091 130.838 114.099 130.83 114.099C130.83 114.066 130.814 114.01 130.814 113.986C130.467 112.655 130.717 110.76 130.967 107.477C131.217 104.196 128.137 104.492 128.137 104.492ZM84.1848 105.158C82.2815 105.21 81.3702 106.845 81.3702 106.845C82.0315 106.353 83.3057 106.68 83.3057 106.68C86.1364 107.872 83.717 110.908 83.1767 111.073C82.6444 111.237 81.9025 112.347 81.9025 112.347C83.959 113.252 85.6848 112.386 86.7493 111.319C87.8219 110.251 90.8542 109.227 90.8542 109.227C90.7735 108.314 90.451 107.606 90.0477 107.055C89.4671 106.869 88.3945 106.432 87.0396 105.484C85.7977 105.633 85.0638 105.242 85.0638 105.242C84.7574 105.175 84.459 105.151 84.1848 105.158ZM81.4912 107.488C80.2686 107.566 79.2379 108.456 78.8678 108.733C78.375 109.103 76.3226 109.637 76.3226 109.637C75.8702 110.089 74.3476 111.195 74.3476 111.195C75.1008 113.389 74.4105 116.091 74.4105 116.091C72.1516 112.954 68.262 114.397 68.262 114.397L67.8652 114.849L68.4782 115.3C70.6919 114.446 72.7217 116.075 72.7217 116.075C75.029 118.147 73.2435 121.01 73.2435 121.01C75.3782 121.01 77.4726 117.97 78.4976 115.792C79.5234 113.615 82.2331 111.238 82.2331 111.238C84.7412 108.863 82.7573 107.734 82.7573 107.734C82.3299 107.526 81.8944 107.462 81.4912 107.488ZM68.5298 108.397C67.3128 108.383 65.8314 108.709 64.2015 109.792C63.4967 111.242 62.8136 113.978 66.0297 116.147C66.7031 116.268 67.4959 116.317 68.4419 116.204C68.4419 116.204 62.9394 114.526 64.9088 110.829L65.4426 111.362C65.4426 111.362 65.4547 111.354 65.4564 111.352C65.6112 110.981 66.2169 110.09 68.4782 109.84L68.3709 110.815C68.7636 110.717 71.3379 110.171 72.9363 111.906C72.9379 111.909 72.9395 111.911 72.9411 111.914C72.9847 111.962 73.0258 112.018 73.0685 112.07C73.1258 112.14 73.1847 112.208 73.2387 112.284C73.2855 112.35 73.3282 112.42 73.3726 112.491C73.4282 112.579 73.4806 112.671 73.5314 112.768C73.5669 112.841 73.6024 112.905 73.6355 112.97C73.7113 113.139 73.7822 113.308 73.8451 113.494C73.85 113.51 73.8556 113.518 73.8605 113.534C73.8605 113.534 73.858 113.51 73.8572 113.51C73.8564 113.494 73.8476 113.454 73.8468 113.437C73.8403 113.373 73.8266 113.244 73.7774 112.962C73.7637 112.881 73.75 112.825 73.7314 112.728C73.7129 112.639 73.6943 112.554 73.6701 112.453C73.6476 112.359 73.6177 112.263 73.5895 112.163C73.5597 112.055 73.5306 111.952 73.4935 111.838C73.454 111.716 73.404 111.592 73.3548 111.466C73.3185 111.373 73.2871 111.281 73.2451 111.187C73.1822 111.046 73.1056 110.91 73.0306 110.772C72.983 110.685 72.9419 110.597 72.8887 110.512C72.7927 110.358 72.6774 110.214 72.5613 110.071C72.5153 110.015 72.4782 109.952 72.429 109.898C72.3572 109.82 72.2814 109.746 72.2024 109.674C72.1887 109.662 72.1766 109.647 72.1629 109.635C72.1613 109.633 72.1596 109.633 72.158 109.632C72.0596 109.545 71.9572 109.465 71.8475 109.391C71.8475 109.391 71.7774 109.342 71.6967 109.29C71.6959 109.289 71.6927 109.289 71.6919 109.288C71.6508 109.262 71.5984 109.236 71.5387 109.202C71.4411 109.145 71.3395 109.088 71.1943 109.017C71.1661 109.004 71.1548 108.995 71.125 108.981C71.1274 108.984 71.1314 108.989 71.1346 108.992C70.5588 108.721 69.6709 108.41 68.5298 108.397ZM135.434 109.022C134.951 109.021 134.434 109.152 133.934 109.28C132.604 109.625 132.217 109.496 132.217 109.496C131.281 110.814 132.483 114.066 132.717 116.913C132.886 118.929 132.62 120.155 132.241 120.897C132.668 122.018 133.346 123.477 134.305 123.993L134.322 124.009C137.023 123.84 138.273 125.251 138.838 126.348C138.878 126.413 138.902 126.469 138.926 126.542C138.999 126.687 139.064 126.832 139.104 126.961C139.112 126.985 139.12 127.001 139.128 127.017C139.225 127.316 139.265 127.525 139.265 127.542L139.273 127.566C139.305 127.525 139.33 127.485 139.362 127.445C139.467 127.3 139.564 127.155 139.66 127.001C139.717 126.913 139.765 126.832 139.814 126.743C139.878 126.63 139.943 126.509 139.999 126.396C140.039 126.316 140.08 126.235 140.112 126.154C140.176 126.025 140.225 125.896 140.281 125.767C140.305 125.695 140.338 125.614 140.37 125.534C140.418 125.396 140.459 125.259 140.499 125.114C140.515 125.05 140.539 124.985 140.555 124.921V124.913C140.604 124.727 140.644 124.542 140.676 124.348C140.733 124.025 140.765 123.695 140.781 123.373C140.789 123.317 140.789 123.26 140.789 123.204C140.805 122.889 140.797 122.575 140.781 122.268C140.757 121.881 140.709 121.51 140.636 121.147C140.62 121.026 140.588 120.921 140.564 120.808C140.515 120.558 140.459 120.325 140.394 120.099C140.354 119.97 140.322 119.857 140.281 119.736C140.249 119.639 140.217 119.526 140.185 119.429V119.47C140.007 118.97 139.814 118.502 139.62 118.139C138.596 116.228 137.426 110.762 137.426 110.762C136.975 109.395 136.249 109.024 135.434 109.022ZM67.1693 111.44C67.1693 111.44 66.2338 111.75 65.7168 112.339C65.7168 112.339 65.4749 113.446 66.512 114.171C66.512 114.171 67.1693 113.131 67.1693 111.44ZM69.4766 111.712C68.8088 111.69 68.3499 111.788 68.3499 111.788C68.3161 112.55 67.9911 113.502 67.9911 113.502C71.0669 111.944 73.4024 113.841 73.4024 113.841C72.2806 112.123 70.5879 111.75 69.4766 111.712ZM107.379 112.588C101.572 112.564 101.427 117.623 101.427 117.623C102.661 113.647 106.193 113.647 106.193 113.647L106.701 115.502L107.927 113.986C110.733 119.421 106.975 123.614 106.975 123.614C111.451 120.744 110.395 115.704 110.395 115.704C109.943 112.72 107.379 112.588 107.379 112.588ZM105.322 114.808C105.322 114.808 101.935 116.22 101.395 119.373C101.395 119.373 102.467 117.849 104.161 117.687C104.161 117.687 104.443 115.599 105.322 114.808ZM105.758 115.51C105.758 115.51 104.798 117.333 104.83 117.897C104.83 117.897 105.58 118.534 105.637 119.292C105.637 119.292 106.153 118.946 106.483 118.252C106.483 118.252 107.225 121.058 106.975 122.946C106.975 122.946 108.056 118.873 107.258 116.083L106.346 117.446L105.758 115.51ZM69.4483 115.873L69.8499 116.341C67.5483 117.615 63.9636 116.042 63.9636 116.042C61.9265 116.131 60.8063 117.413 60.3515 118.091C60.5563 118.881 60.9128 119.825 61.5192 120.542C61.5192 120.542 61.6499 118.663 63.3241 117.623C63.3241 117.623 63.4555 118.091 63.5257 118.3C64.3991 117.308 66.6789 117.067 66.6789 117.067L66.591 117.583C67.6161 117.558 68.3741 117.704 68.3741 117.704C71.8621 118.413 70.4508 121.26 70.4508 121.26L70.0088 120.817C69.6806 121.679 66.5169 123.357 66.5169 123.357C72.5024 123.404 72.7895 119.688 72.7895 119.688C73.6347 116.365 69.4483 115.873 69.4483 115.873ZM122.951 117.518C122.806 117.518 122.725 117.526 122.725 117.526C117.387 117.994 116.903 122.8 116.903 122.8C118.701 119.179 121.814 119.099 121.814 119.099C122.548 119.284 123.008 119.929 123.008 119.929L123.113 118.526C124.79 119.002 125.25 120.26 125.25 120.26L125.637 119.147C128.443 122.502 126.363 126.663 126.363 126.663C127.322 125.219 127.677 123.566 127.677 123.566C127.903 117.929 123.943 117.526 122.951 117.518ZM66.5862 118.72C62.4926 118.728 62.3789 121.01 62.3789 121.01C63.2539 119.688 66.3967 120.583 66.3967 120.583L67.4588 118.752C67.1491 118.728 66.8588 118.72 66.5862 118.72ZM68.3927 119.083L67.6507 120.776C68.0894 120.841 68.4604 121.276 68.4604 121.276C69.708 120.671 69.7758 119.929 69.7758 119.929C69.4395 119.22 68.3927 119.083 68.3927 119.083ZM123.556 119.744C123.637 120.558 123.338 121.438 123.338 121.438C123.032 120.792 121.814 119.978 121.814 119.978C118.193 120.792 117.225 123.695 117.225 123.695C119.524 120.373 121.871 121.058 121.871 121.058C122.717 121.163 123.846 122.567 123.846 122.567L123.887 121.663C124.927 122.188 125.338 123.832 125.338 123.832L125.653 123.083C126.105 123.453 126.403 124.477 126.403 124.477C126.653 122.212 125.766 120.768 125.766 120.768C125.758 121.091 125.451 121.841 125.451 121.841C125.193 120.744 123.556 119.744 123.556 119.744ZM61.5176 120.542C61.5152 120.55 61.5176 120.558 61.516 120.558C61.5176 120.558 61.5176 120.55 61.5192 120.542H61.5176ZM134.12 125.082C128.508 125.235 126.613 129.993 126.613 129.993C129.226 126.655 132.362 126.767 132.362 126.767C133.313 127.324 133.539 128.614 133.539 128.614L134.378 127.211C135.313 128.582 135.104 130.348 135.104 130.348L136.007 128.614C137.346 133.542 133.991 136.251 133.991 136.251C137.862 133.929 138.66 130.421 138.66 130.421C139.596 125.477 135.297 125.114 135.297 125.114C134.886 125.082 134.499 125.074 134.12 125.082ZM131.797 127.775C127.822 128.711 126.193 131.276 126.193 131.276C129 128.695 131.668 129.38 131.668 129.38C132.305 130.485 132.225 131.517 132.225 131.517L133.152 130.59C133.652 131.655 133.225 133.638 133.225 133.638L134.039 133.179C134.273 134.163 133.749 135.913 133.749 135.913C135.822 132.808 135.588 130.3 135.588 130.3C135.176 131.267 134.563 131.751 134.563 131.751C134.684 130.969 134.168 129.082 134.168 129.082C134.072 129.671 133.41 130.227 133.41 130.227C133.023 128.001 131.797 127.775 131.797 127.775ZM78.3879 172.824C75.129 174.292 64.7773 178.72 55.9522 179.816H55.945C55.6079 179.921 55.2845 180.018 54.9393 180.123C61.3087 179.179 68.8217 177.8 76.0169 175.849L76.2032 175.8H76.3855C76.3936 175.8 77.3484 175.784 77.967 175.139C78.1089 174.994 78.2315 174.816 78.3274 174.615C78.5097 174.228 78.5936 173.719 78.6016 173.123C78.542 173.026 78.4678 172.921 78.3879 172.824Z" fill="#009DDC"/>
<path d="M193.819 34.2471C188.465 34.2188 179.029 36.5923 166.537 42.8955C168.183 42.5278 169.586 42.3705 170.715 42.4205C170.949 42.431 171.142 42.4673 171.352 42.4931C176.408 40.202 181.021 38.5286 184.779 37.4544C189.215 35.5721 192.956 34.7285 195.868 34.4019C195.271 34.3043 194.585 34.2519 193.819 34.2479V34.2471ZM198.061 35.1955C191.288 35.8027 183.296 38.3479 174.223 44.6351C174.4 45.3867 174.32 46.2649 173.997 47.2545C183.126 40.4447 191.876 37.3036 198.819 36.2842C198.779 36.156 198.747 36.0237 198.69 35.9076C198.561 35.6414 198.343 35.4043 198.061 35.1955ZM198.198 39.9842C186.465 40.9891 180.11 46.6077 180.11 46.6077C181.352 46.4295 182.602 46.3303 183.82 46.2859V46.2843C186.465 44.7786 191.215 42.9101 196.98 42.0867C197.472 41.3455 197.884 40.6407 198.198 39.9842ZM170.029 43.4964C165.9 43.5738 157.908 46.1972 147.344 52.9569C146.844 53.4811 146.303 54.0311 145.755 54.6045C145.755 54.6005 145.755 54.5989 145.763 54.5949C153.061 49.9263 159.408 47.1561 163.844 45.9061C166.562 44.6044 168.908 43.8899 170.804 43.5157C170.562 43.4988 170.304 43.4915 170.029 43.4964ZM172.481 43.9423C166.263 45.0375 158.828 48.4295 150.602 56.6626C150.626 56.6545 150.634 56.6513 150.642 56.6473C150.642 56.6473 150.642 56.6441 150.65 56.6441C158.336 49.3634 165.295 46.2803 171.166 45.2448C171.392 45.377 171.562 45.5351 171.683 45.719C171.868 46.0214 171.965 46.3851 171.973 46.798C171.981 46.798 171.997 46.7988 172.005 46.7948C172.497 46.7085 172.892 46.6545 173.142 46.6246C173.376 45.7157 173.336 44.969 172.989 44.4181C172.876 44.2335 172.707 44.0746 172.481 43.9423ZM172.892 47.3843C164.271 48.8698 159.924 53.3287 159.924 53.3287C159.949 53.3223 159.973 53.3182 159.997 53.3126C162.094 51.8908 165.699 49.9674 170.804 49.09C170.408 50.1109 169.731 51.2972 168.795 52.615C169.102 52.6247 169.368 52.6392 169.57 52.6513C171.199 50.6279 172.336 48.84 172.892 47.3843ZM186.683 47.6158C181.449 47.6198 176.828 48.3908 173.054 49.373C172.666 50.0763 172.199 50.8158 171.65 51.5843C176.521 50.1529 183.159 48.9182 190.667 49.3246C191.167 48.8375 191.659 48.3569 192.117 47.8867C190.247 47.6964 188.433 47.6141 186.683 47.6158ZM168.9 53.4715C159.247 53.3658 151.989 56.711 148.892 58.4336C148.537 58.8183 148.174 59.2215 147.811 59.6239C151.626 57.7634 158.941 55.0658 167.416 55.0441C167.344 55.1255 167.255 55.2166 167.174 55.3005C167.215 55.3005 167.255 55.2989 167.287 55.2989C167.86 54.6739 168.4 54.0626 168.9 53.4715ZM11.0697 53.5045C8.26407 53.5247 6.06566 53.8658 4.52129 54.4263C7.44551 54.2376 11.2722 54.4384 15.9246 55.6045C20.2069 56.0973 25.6102 57.1473 31.5966 58.9078C34.0063 59.1376 36.7668 59.6086 39.841 60.3594C39.1942 59.9247 38.5587 59.4981 37.9539 59.0917C26.3642 54.969 17.244 53.461 11.0697 53.5045ZM144.207 55.0392C136.303 60.453 127.159 68.0563 117.231 78.4346C117.683 78.2483 118.126 78.0975 118.578 77.9233C126.32 70.0716 134.158 63.4401 140.674 58.682C142.069 57.24 143.279 55.9924 144.207 55.0392ZM4.69952 55.5166C3.9358 55.536 3.18902 55.5795 2.45917 55.6441C2.20514 55.9086 2.02772 56.1941 1.93175 56.4941C1.89949 56.5965 1.89384 56.7062 1.87207 56.8126C7.24793 56.6239 13.7278 57.6046 20.9723 60.5473C21.4521 60.0885 22.1045 59.7014 22.9715 59.4134C23.0715 59.3812 23.1836 59.353 23.29 59.3231C16.2262 56.3707 10.0447 55.3755 4.69952 55.5166ZM169.408 58.6489C168.126 58.6554 166.763 58.7062 165.336 58.8126C164.594 59.5417 163.828 60.2772 163.037 61.0183C168.537 60.3489 173.231 60.4965 176.715 60.8731C177.384 60.3828 178.054 59.8949 178.699 59.4102C176.417 59.0046 173.255 58.6304 169.408 58.6489ZM27.957 59.8554C25.8884 59.8812 24.2666 60.1385 23.1263 60.5538C25.0223 60.4231 27.4344 60.511 30.3167 61.0998C30.3207 61.0981 30.324 61.0981 30.3256 61.0981C34.8619 61.1223 41.3975 62.2103 49.6112 65.0651C49.6177 65.0691 49.6185 65.0675 49.6241 65.0716C48.9709 64.6393 48.3338 64.2159 47.737 63.8207C39.2192 60.861 32.507 59.7989 27.957 59.8554ZM6.02695 60.4651C5.04146 60.4756 4.01564 60.5264 2.95031 60.6239C3.33096 61.2256 3.8108 61.8554 4.36806 62.507C10.1722 62.3199 15.1391 63.4667 17.9456 64.5522C18.0037 64.5441 18.0698 64.5377 18.1295 64.5296C18.873 64.4256 19.6303 64.353 20.3932 64.2966C20.2747 63.9885 20.1795 63.6861 20.1255 63.3893C17.8101 62.2635 12.923 60.3917 6.02695 60.4651ZM42.683 60.8635C42.8765 60.9957 43.1063 61.1481 43.3192 61.2909C43.866 61.4506 44.4249 61.6199 44.9902 61.7965C44.2112 61.474 43.4418 61.1643 42.683 60.8635ZM24.0142 61.3344C23.1836 61.3377 22.3779 61.378 21.5997 61.4498C21.4094 61.6457 21.2795 61.853 21.2077 62.0732C20.9908 62.7312 21.1126 63.5054 21.5336 64.3708C21.644 64.3546 21.7924 64.3345 21.9602 64.3127C22.0166 64.3046 22.0787 64.2982 22.1432 64.2901C22.2731 64.2764 22.4094 64.2627 22.5634 64.2466C22.6118 64.2425 22.6457 64.2377 22.6957 64.232C22.6174 63.8054 22.6295 63.4086 22.7481 63.0457C22.8199 62.828 22.9521 62.6183 23.14 62.4248C29.0223 61.882 36.3869 63.1409 45.341 68.4942C45.3596 68.4982 45.3773 68.5031 45.3935 68.5071C36.9272 63.0933 29.8296 61.3119 24.0142 61.3344ZM156.119 62.5183C150.086 62.5957 140.57 64.0675 130.119 70.8192C129.652 71.3103 129.184 71.8031 128.716 72.2934C140.78 64.8208 152.175 64.128 157.562 64.4829C158.296 63.8635 159.014 63.2482 159.707 62.6393C158.716 62.557 157.514 62.5006 156.119 62.5183ZM82.0866 64.174C81.9414 64.2683 81.8204 64.4079 81.7398 64.6022C81.7398 64.6022 80.9091 65.2425 82.3527 66.2345C82.3527 66.2345 94.5947 72.1991 90.2076 88.7928C90.2076 88.7928 90.256 89.0137 90.385 89.1976C91.0625 87.1766 95.6512 71.945 82.8124 64.3296C82.8124 64.3296 82.4817 64.2079 82.0866 64.174ZM24.936 64.9506C23.9884 64.9401 22.9852 64.9796 21.9303 65.0812C22.7795 66.4192 24.2537 67.9385 26.2505 69.5668C26.4433 69.499 26.6868 69.4152 26.9691 69.3232C25.8594 68.2732 24.8739 67.1498 24.307 66.2563C29.4167 65.7635 33.2974 66.7498 35.6168 67.6329C35.6208 67.6329 35.6442 67.6232 35.6684 67.6151C35.4788 67.4926 31.5651 65.0224 24.936 64.9506ZM51.2072 65.095C52.2548 65.7861 53.6121 66.6861 55.1686 67.7176C57.6404 68.7514 60.2436 69.9442 62.9493 71.2837C62.9694 71.2757 62.9896 71.266 63.0098 71.2603L63.134 71.2224L63.2614 71.2071C63.6557 71.1547 64.0348 71.1281 64.4178 71.0982C59.6791 68.6442 55.2629 66.6635 51.2072 65.095ZM21.1239 65.7256C17.6948 65.9538 13.9391 66.545 9.97376 67.7071C10.4746 68.099 11.002 68.4974 11.5423 68.8974C15.4158 67.9506 19.0948 67.5369 22.444 67.4393C21.9271 66.8563 21.4803 66.2821 21.1239 65.7256ZM38.116 68.6329C34.8917 68.624 31.1328 69.0216 27.0731 70.2208C27.3796 70.4587 27.6989 70.7015 28.028 70.9434C28.2159 71.0821 28.411 71.2232 28.6054 71.3611C28.732 71.4515 28.8554 71.5434 28.9852 71.6353C37.816 69.0918 45.2596 70.1369 49.1169 71.0684C49.0685 71.0321 49.0185 70.9974 48.9685 70.9611C48.4443 70.5781 47.9209 70.2039 47.4064 69.8474C45.5249 69.3289 42.262 68.6442 38.116 68.6329ZM144.261 73.1426C143.301 73.1604 142.204 73.2015 141.011 73.2733C140.261 73.566 139.478 73.8838 138.648 74.2483C138.099 74.4926 137.51 74.7886 136.898 75.1112C138.196 74.9515 139.438 74.8176 140.567 74.7192C141.849 74.1483 143.083 73.6208 144.261 73.1426ZM65.7251 73.4087C64.859 73.4071 63.9598 73.4644 63.0251 73.5854C63.0251 73.5854 62.4711 73.7604 62.063 74.1273C62.067 74.1934 61.8291 75.3717 63.6235 75.266C63.6235 75.266 77.3188 72.3378 84.2769 88.5565C84.2769 88.5565 84.5753 88.7984 84.8737 88.8024C84.0269 86.4758 78.7067 73.4354 65.7251 73.4087ZM51.6274 74.5999C45.4604 74.6781 40.6926 76.0305 37.8748 77.0991C38.6821 77.5378 39.5111 77.9765 40.3603 78.4128C45.458 76.5499 56.2952 73.9475 69.8485 78.5661C69.2776 78.1773 68.7066 77.7894 68.1316 77.4031C67.23 77.0846 66.3388 76.7999 65.4614 76.5435C64.5888 76.587 64.0275 76.6935 63.9275 76.7136L63.817 76.7354C63.817 76.7354 61.6589 76.8499 60.8517 75.4297C57.5226 74.7918 54.4306 74.5636 51.6274 74.5999ZM135.11 74.7636C130.926 75.2063 123.724 76.4451 115.837 79.9136C115.377 80.4048 114.861 80.8669 114.337 81.325C120.732 78.6193 127.418 77.2185 131.61 76.6176C132.828 75.9386 133.998 75.3184 135.11 74.7636ZM32.1917 75.058C29.111 75.6991 26.5852 76.5031 24.7046 77.2144C25.4021 77.6007 26.1304 77.987 26.8522 78.3717C29.0167 77.7193 31.7014 77.0765 34.7934 76.616C33.9006 76.0991 33.0304 75.5789 32.1917 75.058ZM78.3277 81.9032C75.1792 81.9193 75.0292 84.4048 75.0292 84.4048C74.9849 86.7597 78.576 90.6597 78.7381 90.8355C78.7325 90.7976 78.7285 90.7638 78.7244 90.7557C78.0293 89.7 75.4139 85.4871 76.6938 83.6782C76.6938 83.6782 77.7623 82.9758 79.1164 82.8C78.8543 82.4871 78.5938 82.1854 78.3277 81.9032ZM74.3091 82.0088C70.1219 81.9871 66.6009 82.3927 64.163 82.8C65.2509 83.0419 66.4001 83.3282 67.6017 83.6548C69.2622 83.4403 71.3139 83.2492 73.5986 83.1637C73.7607 82.733 74.001 82.3492 74.3091 82.0088ZM121.505 82.9427C119.336 83.2613 115.836 83.9822 112.151 85.5919C112.151 85.5919 110.78 86.525 110.11 87.4161C112.272 86.5694 116.401 85.5234 118.634 85.0048C119.691 84.2314 120.715 83.4919 121.505 82.9427ZM103.731 83.9419C103.731 83.9419 102.288 84.1137 101.271 85.3814C101.336 85.8258 101.779 89.9508 100.134 94.3912C102.61 91.2186 103.723 87.9694 103.731 83.9419ZM66.4533 84.4943C64.1299 84.6887 62.0944 84.9556 60.4364 85.2282C61.6041 85.4968 62.8203 85.8 64.0848 86.1403V86.1387C66.0832 85.9387 68.3477 85.7935 70.8058 85.75C69.3187 85.2855 67.859 84.8589 66.4533 84.4943ZM79.5462 88.4855C79.1357 91.8081 79.7785 96.3219 83.8922 100.119C83.5051 99.8211 80.4148 95.3533 81.3922 90.7807C80.0269 89.6331 79.5462 88.4855 79.5462 88.4855ZM86.5535 95.3678C86.7148 96.0243 86.9165 96.8356 86.9729 97.3445C87.1019 98.4695 87.0777 99.363 86.989 100.082C87.5294 100.39 88.6503 100.555 89.3439 100.632C88.86 99.0316 88.4729 97.3727 88.1987 95.7711C87.5697 95.7711 87.0213 95.6017 86.5535 95.3678ZM86.981 100.153C86.9326 100.565 86.8681 100.933 86.7955 101.215C88.5132 102.966 89.8762 103.645 90.5616 103.902C90.2229 103.18 89.9326 102.414 89.6665 101.628C88.0374 101.272 87.231 100.459 86.981 100.153ZM92.7391 121.954C92.731 121.962 92.723 121.97 92.7149 121.986C92.5617 122.163 92.4246 122.349 92.2713 122.534C82.8761 134.348 89.7471 147.13 77.0575 170.026C78.2156 170.002 79.1535 170.631 79.8003 171.34C85.6826 164.3 89.3278 148.348 89.4891 136.574C89.5374 132.469 90.1262 129.195 90.8842 126.614C91.4488 124.679 92.1181 123.123 92.7391 121.954ZM77.1526 172.074C76.9752 172.066 76.7841 172.106 76.5825 172.187C76.0994 172.421 68.9389 175.913 55.9524 179.816H55.9581C64.7848 178.719 75.1365 174.292 78.3938 172.824C78.1002 172.445 77.6841 172.09 77.1526 172.074Z" fill="white"/>
<path d="M88.8036 76.1902C88.7874 76.1926 88.7713 76.195 88.7632 76.1966C88.7713 76.2103 88.7874 76.2192 88.8116 76.2168C88.8116 76.2087 88.8036 76.2007 88.8036 76.1902ZM106.28 77.8555C104.36 77.7797 101.779 78.9386 101.779 78.9386C98.3762 80.8314 95.602 83.2483 93.7149 85.1306C93.2794 87.8605 92.6342 89.6782 92.61 89.7363L92.5536 89.8903C99.094 82.6104 105.255 81.262 105.255 81.262C105.497 82.5725 104.715 85.9685 104.715 85.9685C107.191 83.3225 107.812 79.7281 107.949 78.5846C107.909 78.4846 107.876 78.4305 107.876 78.4305C107.497 78.0418 106.925 77.8805 106.28 77.8555ZM95.4327 78.6604C94.6665 78.6176 94.1343 78.6983 94.1343 78.6983C94.0939 78.7442 94.0697 78.7862 94.0294 78.8305C94.1262 80.2943 94.0859 81.6951 93.973 82.979C95.7472 81.1564 97.5698 79.7515 98.6746 78.9717C98.5053 79.0878 98.3278 79.2168 98.1343 79.3612C97.1988 78.8684 96.1988 78.7023 95.4327 78.6604ZM88.9649 79.2176C88.0455 79.2717 86.9568 79.612 85.9729 80.133L85.989 80.237L86.8923 87.9992L86.9568 88.1992L86.8519 88.6121V88.6193C86.8358 88.6798 86.8116 88.7322 86.7955 88.7879C86.489 89.7274 85.8519 90.0718 85.4809 90.1919C84.6503 90.4556 83.8277 90.104 83.3358 89.6879L83.0616 89.4605L82.9245 89.1379C81.8035 86.5242 80.497 84.4516 79.1164 82.7999C77.7623 82.9757 76.6921 83.6782 76.6921 83.6782C75.4123 85.4871 78.0293 89.7016 78.7244 90.7573C78.7285 90.7653 78.7317 90.796 78.7398 90.8355C78.7422 90.8395 78.7543 90.8532 78.7543 90.8532C77.7768 87.7467 78.6647 84.7637 78.6647 84.7637C82.7551 91.2266 87.2955 92.8912 87.2955 92.8912C89.6342 93.9726 92.0133 90.4879 92.0133 90.4879C92.0375 90.4637 92.0617 90.4427 92.0778 90.4186C91.2471 91.025 90.5133 90.8968 90.1423 90.7605C89.352 90.4677 88.9326 89.7073 88.8036 89.0903L88.731 88.7548L88.8197 88.4274C89.3681 86.3524 89.6261 84.4701 89.6907 82.7475C89.4568 81.4838 89.1584 79.933 88.9649 79.2176ZM115.917 91.746C111.707 91.8089 107.505 92.7387 103.562 94.4146C102.796 95.9605 101.779 97.6299 100.489 99.3001C100.731 101.049 102.005 103.136 105.271 104.005C105.546 103.346 105.989 98.367 114.893 98.4372C115.126 98.4291 118.457 98.2783 120.368 96.7218C120.368 96.7218 121.078 96.2049 122.078 95.6759C122.054 94.5468 121.917 93.3831 121.626 92.2097C119.739 91.8686 117.828 91.7178 115.917 91.746ZM92.8197 92.871C91.0294 95.0823 89.4649 95.771 88.1987 95.771C88.4729 97.3751 88.8681 99.0307 89.3519 100.632C89.6907 100.666 89.9407 100.685 89.9407 100.685C90.9165 100.575 92.602 99.3969 92.602 99.3969L93.0617 100.504C91.7875 101.637 90.3681 101.753 90.3681 101.753C90.11 101.725 89.8842 101.678 89.6665 101.628C89.9326 102.414 90.2229 103.179 90.5616 103.9C89.8761 103.645 88.5052 102.967 86.7955 101.215C86.9971 100.435 87.1826 99.1646 86.9729 97.3444C86.9164 96.8331 86.7148 96.0242 86.5616 95.3678C85.4648 94.8105 84.8438 93.8758 84.8438 93.8758C87.2471 100.094 85.3439 101.529 85.3439 101.529C88.5536 105.065 90.9004 105.307 90.9004 105.307C95.2391 102.831 97.6585 98.8549 97.6585 98.8549C90.5616 100.247 92.8197 92.871 92.8197 92.871ZM89.3519 100.632C89.3519 100.631 89.352 100.632 89.3439 100.632C89.4165 100.856 89.489 101.078 89.5616 101.303C89.489 101.082 89.4245 100.855 89.3519 100.632ZM104.852 119.55C103.86 119.558 102.941 119.615 102.086 119.72C100.989 121.236 100.739 123.638 100.731 123.646C100.731 123.646 100.392 121.849 100.175 120.034C92.4568 121.752 90.8036 127.34 90.8036 127.34C90.7794 127.235 90.8116 126.977 90.8842 126.614C91.1665 125.654 91.4729 124.791 91.7875 124.017C90.6262 126.848 89.5616 130.937 89.4891 136.574C89.481 136.921 89.4729 137.284 89.4649 137.646C99.8521 134.88 106.949 136.348 111.812 139.421C112.013 138.88 114.102 133.098 115.263 127.033C115.263 127.033 115.263 127.025 115.272 127.025C112.796 125.646 107.973 125.05 107.239 124.969C105.271 126.437 103.344 127.203 103.344 127.203C103.344 127.203 104.191 126.243 104.804 124.8C101.263 124.574 95.6746 125.727 94.8278 125.945C94.8278 125.945 101.013 123.533 105.247 123.445C105.513 122.268 105.505 120.913 104.852 119.55ZM111.078 120.147C110.691 121.3 110.013 122.316 109.215 123.195C111.312 123.171 113.513 123.325 115.755 123.735C115.796 123.147 115.893 122.494 116.062 121.816C116.054 121.857 116.038 121.897 116.03 121.929C115.723 121.615 115.409 121.324 115.086 121.05C113.667 120.671 112.344 120.373 111.078 120.147ZM94.2955 137.211C91.6181 137.251 89.7471 137.59 89.4568 137.646C89.11 149.3 85.5051 164.51 79.8002 171.34C80.0027 171.566 80.1841 171.792 80.3261 172.018C83.1906 171.155 85.8439 170.05 88.2713 168.744C87.3358 165.582 84.9406 163.816 84.9406 163.816C87.1584 165.042 88.5213 166.582 89.3519 168.155C93.6826 165.663 97.3198 162.55 100.376 159.114C99.1746 156.671 97.1504 154.219 93.8762 152.058C93.8762 152.058 98.5295 153.284 101.933 157.284C105.828 152.469 108.675 147.163 110.739 142.163C105.457 137.888 98.7633 137.138 94.2955 137.211Z" fill="#EE3124"/>
<path d="M88.7629 76.1968C85.6984 76.7339 83.4645 78.1976 82.1338 79.3452C82.7145 80.0928 83.3355 80.963 83.7871 81.6654V81.667C83.8113 81.7049 83.8355 81.7476 83.8677 81.7855C84.8919 83.1872 85.7952 85.1864 86.3274 86.4888C86.6581 87.2759 86.8194 87.7662 86.8274 87.7961L86.8919 87.9993L85.9887 80.2371L85.9726 80.1331C86.9565 79.6121 88.0452 79.2742 88.9645 79.2178C89.1581 79.9331 89.4565 81.4823 89.6904 82.746C89.6984 82.4759 89.7226 82.2009 89.7226 81.938C89.7226 79.7452 89.3597 77.8573 88.8113 76.2169C88.7871 76.2194 88.771 76.2105 88.7629 76.1968ZM93.7227 76.2048C93.8759 77.0936 93.9807 77.9734 94.0291 78.8307C94.0694 78.7863 94.0936 78.742 94.134 78.6984C94.134 78.6984 96.263 78.3758 98.134 79.3613C98.3275 79.217 98.505 79.0879 98.6743 78.9718C98.6743 78.9702 98.6743 78.9694 98.6824 78.9694C99.1582 78.6307 99.4969 78.4097 99.634 78.3234C99.6421 78.317 99.6421 78.3178 99.6501 78.3137C99.6824 78.292 99.7147 78.2758 99.7147 78.2758C97.5372 77.1524 95.5372 76.5089 93.7227 76.2048ZM107.949 78.5847C107.812 79.7283 107.191 83.3227 104.715 85.9686C108.989 81.817 108.231 79.2154 107.949 78.5847ZM100.489 99.3002C98.8034 101.474 96.6259 103.649 93.7872 105.563C93.263 106.515 92.8597 107.458 92.7065 108.353C92.7065 108.353 93.5372 113.607 100.876 114.542C101.844 112.833 103.739 111.244 107.134 111.233C107.36 110.375 107.989 109.237 109.529 108.012C108.336 108.458 107.255 108.865 106.368 109.199C104.586 107.125 105.271 104.011 105.271 104.007C102.005 103.138 100.731 101.049 100.489 99.3002ZM126.667 103.287C126.497 103.409 126.344 103.52 126.215 103.615C126.11 103.705 125.973 103.888 125.82 104.135C126.15 103.904 126.513 103.703 126.9 103.512C126.82 103.437 126.739 103.363 126.667 103.287ZM122.191 112.415C122.013 112.72 121.82 113.026 121.602 113.333C121.183 113.962 120.699 114.591 120.15 115.204C119.884 115.51 119.594 115.808 119.295 116.099C119.376 116.131 119.465 116.163 119.545 116.204L119.707 116.026C119.731 116.002 119.965 115.744 120.287 115.413C120.618 115.083 121.037 114.671 121.425 114.357C121.489 114.3 121.57 114.22 121.642 114.107C121.723 114.002 121.804 113.873 121.876 113.712C122.021 113.389 122.15 112.954 122.191 112.415ZM100.134 116.518C99.3114 116.736 98.4808 117.002 97.6098 117.317C95.634 118.865 94.0533 120.397 92.7468 121.946C92.5856 122.252 92.4162 122.583 92.2549 122.938C92.1178 123.236 91.9726 123.558 91.8436 123.888C91.8194 123.937 91.8033 123.977 91.7872 124.017C91.4726 124.792 91.1662 125.655 90.8839 126.614C90.8113 126.977 90.7791 127.235 90.8033 127.34C90.8033 127.34 92.4646 121.752 100.174 120.034C100.069 119.107 99.9889 118.179 100.005 117.478C100.013 117.196 100.061 116.865 100.134 116.518ZM104.239 118.518C103.295 118.494 102.594 119.01 102.086 119.72C102.94 119.615 103.86 119.55 104.852 119.55C104.691 119.204 104.497 118.857 104.239 118.518ZM111.344 119.107C111.287 119.462 111.199 119.808 111.086 120.139C112.344 120.373 113.666 120.671 115.086 121.05C114.924 120.865 114.529 120.478 114.013 120.034C113.691 119.752 113.32 119.462 112.876 119.139C112.376 119.171 111.86 119.155 111.344 119.107ZM130.691 130.751L130.368 131.743L131.038 132.477C131.101 131.405 130.691 130.751 130.691 130.751ZM129.247 137.372C128.925 138.332 128.57 139.332 128.167 140.372C128.513 140.195 129.473 139.671 130.417 138.808C130.086 138.38 129.683 137.889 129.247 137.372ZM130.933 139.509C130.933 139.509 129.57 140.082 128.15 140.413C126.626 144.284 124.433 148.647 121.32 152.921C121.699 154.227 121.9 155.276 122.005 155.897C125.215 152.123 128.005 147.881 130.32 143.171C130.336 143.147 130.844 142.09 131.496 140.324C131.343 140.098 131.166 139.84 130.933 139.509ZM118.368 156.606C114.981 160.461 110.747 164.115 105.424 167.131C105.424 167.792 105.392 168.486 105.32 169.211C108.336 167.639 111.166 165.832 113.803 163.784C115.529 162.445 117.166 161.01 118.723 159.469C118.634 158.477 118.521 157.526 118.368 156.606ZM101.666 169.058C98.3356 170.607 94.642 171.905 90.5371 172.889C90.5533 173.566 90.5049 174.155 90.4484 174.631C91.9404 174.292 93.4727 173.897 95.0049 173.429C97.1259 172.776 99.1824 172.01 101.174 171.163C101.352 170.558 101.529 169.857 101.666 169.058ZM88.4081 173.357C85.9081 173.865 83.2548 174.26 80.4645 174.518C80.2741 175.066 79.9233 175.663 79.3145 176.236C81.7467 176.066 84.6661 175.744 87.8194 175.163C88.0694 174.542 88.2791 173.929 88.4081 173.357Z" fill="#8A1F03"/>
</g>
<defs>
<clipPath id="clip0_15016_304006">
<rect width="200" height="200" fill="white" transform="translate(0 0.507812)"/>
</clipPath>
</defs>
</svg>
