<svg width="201" height="201" viewBox="0 0 201 201" fill="none" xmlns="http://www.w3.org/2000/svg">
<path d="M141.309 133.061C138.908 139.625 134.191 145.936 128.343 150.735L140.619 116.803C140.732 116.949 140.842 117.095 140.948 117.245C143.51 120.91 143.64 126.673 141.309 133.062M172.204 101.736C166.131 93.4634 156.999 88.175 145.984 86.3877C152.295 81.8239 152.835 76.1067 152.874 74.9352C159.322 71.5507 157.54 66.3892 157.175 65.5086C157.708 63.8909 157.972 62.2109 157.964 60.5143C157.946 55.4995 155.568 50.8592 151.435 47.7625C150.496 36.1632 140.598 32.0629 137.372 31.0318C135.562 28.1495 132.617 26.2598 131.936 25.8498C130.814 18.5945 128.353 14.9167 124.626 14.9167C121.753 14.9167 118.832 17.1312 116.843 19.047C115.047 18.5251 113.109 18.2594 111.069 18.2594C110.649 18.2594 110.256 18.2712 109.895 18.2893C106.848 15.7792 103.897 14.5068 101.124 14.5068C97.3896 14.5068 94.7651 16.7639 93.1923 18.7127C87.6295 18.7758 84.987 21.4909 83.4804 23.5375C82.8915 24.3369 82.0124 25.3216 80.8677 26.4671C35.5437 35.4419 27.3037 75.9971 26.1124 84.04L26.1377 84.096C26.0139 84.2686 13.862 101.592 27.0474 139.089C26.3048 140.039 22.7855 145.22 27.7459 152.607C27.6009 153.398 26.7163 157.756 24.173 159.81C22.5403 161.129 21.5943 163.489 21.7614 165.822C21.9364 168.253 23.2515 170.341 25.4668 171.718C25.5093 172.716 26.1243 176.936 33.6469 177.692C34.045 178.196 35.6674 179.952 39.0141 179.952C40.6894 179.952 42.5515 179.503 44.5429 178.618C44.6974 178.646 45.0033 178.687 45.414 178.687C47.7894 178.687 53.5374 177.369 56.0483 165.278C57.1126 165.813 58.6192 166.365 60.3402 166.365C61.4423 166.365 62.5098 166.136 63.5197 165.687C63.8351 165.812 64.6266 166.075 65.7823 166.075C68.268 166.075 72.1484 164.886 76.5065 159.228C83.2967 150.411 88.4763 145.576 92.9842 141.778L86.6662 159.249H80.7368L69.9756 186.511H111.349C140.763 186.511 168.411 166.433 177.092 138.766C181.396 125.038 179.662 111.885 172.204 101.736Z" fill="#003B73"/>
<path d="M105.834 94.0062C93.3236 91.2627 84.3204 96.4967 84.3204 96.4967C91.288 86.3157 101.273 89.6757 111.023 89.6757C120.777 89.6757 125.521 82.735 125.521 82.735C126.635 83.5801 135.085 86.8794 141.691 82.7239C148.293 78.5692 147.626 73.258 147.626 73.258C142.761 69.6567 137.397 71.1672 137.397 71.1672C141.768 65.9301 148.366 69.8877 150.63 69.626C152.895 69.3642 155.582 64.6924 146.18 64.6924C136.778 64.6924 131.539 68.4876 124.127 76.499C116.714 84.508 108.528 85.3066 102.551 85.3066C96.5732 85.3066 93.0673 82.9186 93.0673 82.9186C81.647 86.4269 77.6154 94.5896 77.6154 94.5896C77.9362 85.0244 86.8164 80.7057 89.9068 79.4892C89.1232 77.2274 89.6522 75.2368 89.6522 75.2368C92.5053 80.2547 98.3739 80.4369 98.3739 80.4369C94.324 69.4998 101.435 66.7571 101.435 66.7571C98.0475 76.3303 104.075 80.3919 108.031 80.3919C111.988 80.3919 117.52 78.5069 123.961 71.6269C130.4 64.746 134.529 63.4877 134.529 63.4877C135.868 60.0583 134.095 55.619 134.095 55.619C140.981 56.4452 141.769 61.494 141.769 61.494C145.691 60.8144 150.35 62.0033 150.35 62.0033C151.138 59.8518 150.303 56.692 150.303 56.692C151.541 56.9396 153.116 58.1008 153.116 58.1008C153.06 55.6419 151.033 53.1491 151.033 53.1491C150.275 54.1401 148.23 54.9056 148.23 54.9056C141.251 54.1479 138.46 50.8344 138.46 50.8344C141.583 49.059 146.713 49.6353 146.713 49.6353C142.586 47.3617 133.313 47.1646 125.263 53.9942C117.212 60.8254 118.058 68.8013 118.058 68.8013C114.018 61.5689 118.171 55.705 118.171 55.705C106.907 51.626 102.058 60.227 102.058 60.227C102.823 51.8325 109.947 50.6161 113.15 50.4939C112.528 48.6491 112.717 46.8824 113.032 45.6486C109.066 44.3706 106.083 44.6071 106.083 44.6071C109.284 40.6472 115.004 41.5144 122.374 45.0849C129.745 48.653 133.396 45.8859 133.659 43.5649C133.923 41.2424 130.405 38.7157 130.405 38.7157C130.405 38.7157 136.096 38.5288 139.287 43.5696C139.859 44.7325 141.087 45.5807 142.367 45.5807C143.945 45.5807 144.995 44.302 144.712 42.7229C144.623 42.2168 144.404 41.7406 144.102 41.3307C140.5 36.2094 134.24 35.4084 134.24 35.4084C127.079 25.3946 115.846 31.2451 115.846 31.2451C116.784 27.9781 120.469 26.9611 120.469 26.9611C116.371 22.2656 108.948 23.4213 108.948 23.4213C100.503 17.1601 99.3845 19.9162 98.1878 21.0822C96.9926 22.249 96.4179 23.2731 92.6613 23.7106C88.9008 24.149 88.4459 25.6926 87.8791 26.4313C87.3115 27.1716 86.8235 27.9781 85.395 29.1575C83.9672 30.3369 82.5655 31.6479 82.5655 31.6479C79.9276 34.1897 75.2968 37.9841 86.0225 37.3463C96.7467 36.7101 101.877 25.4388 102.084 25.002C102.292 24.566 102.595 24.6709 102.595 24.6709C102.898 24.6709 102.983 25.0737 102.983 25.0737C102.397 37.3407 90.3522 42.6323 82.3267 42.6323C74.305 42.6323 73.2147 37.4913 73.2147 37.4913C62.9375 56.5004 75.8273 67.3492 75.8273 67.3492C64.6018 60.9413 64.5529 51.4612 65.2616 47.0282C61.4089 52.0012 59.151 59.5128 59.151 59.5128C58.3705 43.8771 70.8267 34.3875 70.8267 34.3875C70.8267 34.3875 54.2576 38.9892 41.6524 58.1592C29.0472 77.3291 32.4805 94.3058 32.4805 94.3058C30.4647 92.2663 29.4603 88.5941 29.4603 88.5941C20.6566 109.312 32.7959 139.77 32.7959 139.77C27.051 145.426 33.0812 150.575 33.0812 150.575C33.1483 159.557 27.0274 164.262 27.0274 164.262C27.5335 170.014 33.4455 167.073 33.8192 166.873C34.1913 166.672 34.375 166.546 34.7329 166.799C35.0916 167.056 34.7581 167.542 34.7581 167.542C33.4376 169.812 30.8502 170.995 30.8502 170.995C35.3447 174.376 39.3456 169.581 39.3456 169.581C39.3456 169.581 39.7406 169.055 40.1167 169.266C40.4911 169.478 40.3547 169.879 40.3547 169.879C40.1253 171.774 38.4492 174.242 38.4492 174.242C43.7163 174.928 45.6999 169.895 45.7558 169.768C45.815 169.645 45.9096 169.118 46.3999 169.118C46.8935 169.118 46.9171 169.753 46.9171 169.753C47.1221 170.677 46.813 172.495 46.813 172.495C49.1971 170.349 50.6279 166.553 51.4849 162.513C44.9998 161.315 45.7535 155.161 45.7535 155.161C45.7535 155.161 42.2862 151.727 45.8812 145.779C48.2952 141.784 51.2823 141.404 52.6698 141.475C52.4656 138.433 51.8452 134.38 50.1652 130.393C46.8312 122.477 46.9187 118.425 46.9187 118.425C47.4485 117.328 49.1403 116.248 49.1403 116.248C42.7766 111.684 44.3383 104.567 44.3383 104.567C44.4818 107.096 48.9353 114.722 56.9972 113.594C65.0551 112.468 69.0852 114.663 69.0852 114.663C68.1959 114.663 66.7248 114.003 59.4821 116.617C56.0645 117.85 53.7988 118.048 52.3474 117.916C54.7716 120.946 60.3036 124.713 66.6216 122.849C74.8269 120.429 74.9396 127.224 82.0917 124.797C84.4544 123.995 86.3891 122.714 87.9327 121.361L80.1807 116.071C80.1807 116.071 89.3881 102.998 105.837 94.0047" fill="white"/>
<path d="M100.819 19.7106C99.3611 19.7756 98.784 20.7406 98.1904 21.3183C96.9966 22.4849 96.4219 23.5084 92.6637 23.9465C88.9044 24.384 88.4491 25.9285 87.8827 26.6676C87.3145 27.4078 86.8272 28.2137 85.3993 29.3922C83.9714 30.5729 82.5701 31.8832 82.5701 31.8832C79.9324 34.4251 75.3003 38.2181 86.0261 37.5819C96.7506 36.9457 101.882 25.6736 102.087 25.2367C102.296 24.8003 102.598 24.9056 102.598 24.9056C104.382 22.2218 107.668 23.1187 108.735 23.5013C104.616 20.4793 102.277 19.645 100.819 19.71L100.819 19.7106ZM124.249 19.7295C123.38 19.6958 122.245 20.2262 120.766 21.7008C120.766 21.7008 122.374 23.0489 123.739 24.6962C123.739 24.6962 124.977 24.5756 127.081 25.009C127.081 25.009 126.858 19.8306 124.249 19.7295ZM70.8291 34.6244C70.8291 34.6244 54.2598 39.2268 41.6556 58.3972C29.0507 77.5669 32.4849 94.543 32.4849 94.543C30.4692 92.5031 29.464 88.8307 29.464 88.8307C20.6605 109.548 32.8 140.006 32.8 140.006C27.0552 145.662 33.0856 150.812 33.0856 150.812C33.1524 159.794 27.0333 164.499 27.0333 164.499C27.5383 170.252 33.451 167.31 33.8229 167.11C34.1948 166.909 34.3805 166.783 34.7364 167.037C35.0971 167.294 34.7631 167.779 34.7631 167.779C33.4427 170.049 30.8535 171.232 30.8535 171.232C35.3478 174.613 39.3496 169.818 39.3496 169.818C39.3496 169.818 39.7451 169.292 40.12 169.503C40.4949 169.715 40.3577 170.116 40.3577 170.116C40.1301 172.011 38.4526 174.479 38.4526 174.479C43.7203 175.166 45.7028 170.132 45.759 170.005C45.8181 169.882 45.9127 169.354 46.4035 169.354C46.8966 169.354 46.9209 169.99 46.9209 169.99C47.126 170.915 46.8162 172.733 46.8162 172.733C49.2002 170.586 50.6311 166.791 51.4885 162.75C45.0045 161.552 45.7566 155.399 45.7566 155.399C45.7566 155.399 42.2894 151.964 45.8855 146.015C48.2997 142.019 51.2857 141.64 52.6728 141.711C52.4688 138.669 51.8486 134.616 50.1681 130.628C46.8345 122.713 46.9232 118.662 46.9232 118.662C47.4518 117.564 49.1435 116.485 49.1435 116.485C42.779 111.921 44.3417 104.805 44.3417 104.805C44.4854 107.332 48.9383 114.959 57.0003 113.832C59.3749 113.501 61.3917 113.46 63.0686 113.564C61.021 109.232 63.6563 105.02 64.8276 103.07C66.3425 100.55 69.4378 99.165 67.2826 84.9963C65.1274 70.8299 75.8301 67.5821 75.8301 67.5821C64.6047 61.175 64.5563 51.6951 65.2646 47.2629C61.4124 52.2355 59.1544 59.7477 59.1544 59.7477C58.3751 44.112 70.8291 34.6232 70.8291 34.6232V34.6244ZM140.241 48.4513C135.809 48.4389 130.3 49.962 125.27 54.2316C117.218 61.0615 118.064 69.0372 118.064 69.0372C114.025 61.8053 118.177 55.941 118.177 55.941C106.912 51.8618 102.066 60.4625 102.066 60.4625C102.831 52.0682 109.954 50.8513 113.156 50.7307C113.069 50.4717 112.999 50.2163 112.943 49.9626C111.865 49.761 110.73 49.6682 109.548 49.722C102.61 50.0389 96.6655 54.9075 95.7212 60.8256C91.7792 62.6077 88.9505 65.9791 88.5709 70.0092C88.3906 71.9173 88.779 73.7502 89.6169 75.391L89.6494 75.5075C89.6518 75.4981 89.66 75.4732 89.66 75.4732C92.5129 80.4908 98.3825 80.6729 98.3825 80.6729C94.3323 69.7367 101.443 66.9943 101.443 66.9943C98.0556 76.5671 104.083 80.6286 108.038 80.6286C111.995 80.6286 117.529 78.7424 123.969 71.8629C130.408 64.9816 134.537 63.7228 134.537 63.7228C135.875 60.2934 134.103 55.8553 134.103 55.8553C140.988 56.6807 141.776 61.7314 141.776 61.7314C145.697 61.0502 150.356 62.2399 150.356 62.2399C151.145 60.0888 150.311 56.9285 150.311 56.9285C151.549 57.1756 153.122 58.3375 153.122 58.3375C153.067 55.8783 151.04 53.3843 151.04 53.3843C150.283 54.3759 148.238 55.1404 148.238 55.1404C141.257 54.383 138.466 51.0707 138.466 51.0707C141.589 49.2969 146.722 49.871 146.722 49.871C145.174 49.019 142.901 48.4584 140.242 48.4507L140.241 48.4513ZM139.994 71.0907C138.431 71.1143 137.404 71.4035 137.404 71.4035C139.322 72.3265 140.663 73.7999 140.663 75.3177C140.663 78.6466 136.274 81.344 130.861 81.344C128.649 81.344 126.618 80.8905 124.977 80.1331C123.067 82.8837 117.946 88.6267 106.646 87.6316C92.4183 86.3787 85.3508 90.0156 84.3273 96.7319C91.2949 86.5531 101.282 89.9122 111.033 89.9122C120.787 89.9122 125.529 82.97 125.529 82.97C126.644 83.8167 135.094 87.116 141.699 82.96C148.302 78.8045 147.634 73.4942 147.634 73.4942C144.898 71.4691 142.003 71.0605 139.994 71.0907ZM104.512 93.9843C96.2013 96.1513 71.5794 104.477 79.6125 125.548C80.3445 125.506 81.1593 125.352 82.0994 125.034C84.4621 124.232 86.3962 122.951 87.9382 121.598L80.1878 116.309C80.1878 116.309 89.3875 103.248 105.821 94.2551C105.383 94.1617 104.942 94.0606 104.511 93.9843H104.512ZM90.7817 123.539C83.8454 130.638 74.307 130.328 74.1426 130.331C72.558 133.625 70.9929 137.346 66.3431 138.844L66.0143 138.954C65.3935 145.931 65.9452 156.962 76.9772 150.818C77.0138 150.799 77.0481 150.783 77.0854 150.76C81.7494 145.146 86.8941 141.032 92.1274 136.799C93.0031 136.091 94.7657 134.842 95.8442 134.112L97.9101 128.402L90.7817 123.539Z" fill="#AFB1B1"/>
<path d="M39.5917 79.1095C39.5917 79.1095 38.8538 90.9271 42.8658 99.9326C42.8658 99.9326 32.6533 91.2275 39.5917 79.1095Z" fill="#003B73"/>
<path d="M117.397 46.384C117.138 46.9274 116.989 47.5382 116.989 48.1809C116.989 50.5017 118.873 52.3867 121.193 52.3867C122.681 52.3867 123.982 51.6097 124.73 50.4473C124.201 50.1197 123.688 49.8105 123.174 49.5083C122.78 50.0564 122.141 50.4165 121.414 50.4165C120.218 50.4165 119.244 49.4462 119.244 48.2495C119.244 47.9485 119.306 47.6641 119.417 47.404C118.731 47.0451 118.051 46.701 117.397 46.384ZM136.531 58.9634C136.531 58.9634 137.589 60.7319 137.317 63.0627C137.967 62.8865 138.705 62.7162 139.519 62.5625C138.934 59.9497 136.531 58.9634 136.531 58.9634ZM152.875 60.4375C152.875 60.4375 152.826 61.6839 152.269 63.3507C152.797 63.5287 153.445 63.7823 154.106 64.1217C154.217 61.6638 152.875 60.4375 152.875 60.4375ZM137.577 90.4217C106.707 90.4217 87.2359 115.291 87.2359 115.291L103.678 126.39L90.087 163.969H84.056L76.9371 182.009H111.534C138.987 182.009 164.785 163.288 172.876 137.493C176.731 125.203 175.239 113.513 168.675 104.574C161.974 95.4475 150.929 90.4222 137.578 90.4222L137.577 90.4217ZM137.575 94.7043C162.006 94.7043 175.978 113.29 168.789 136.213C161.596 159.143 138.025 177.726 111.533 177.726H83.2336L86.9722 168.251H93.0948L111.774 116.594C117.979 112.991 124.693 110.876 131.101 110.876C131.917 110.876 132.709 110.922 133.487 110.989L112.924 167.834C128.208 165.375 144.021 152.163 149.846 136.221C156.305 118.539 148.012 104.204 131.319 104.204C120.587 104.204 108.997 110.13 100.368 119.068L93.6666 114.495C105.175 102.62 121.632 94.7043 137.576 94.7043H137.575ZM138.503 109.713L139.15 109.999C141.522 111.051 143.459 112.636 144.91 114.71C148.349 119.628 148.681 126.934 145.824 134.752C141.849 145.629 132.179 155.872 121.195 160.844L119.773 161.488L138.503 109.713ZM51.0616 133.06C49.8679 137.66 47.5394 143.062 43.0463 144.795C34.7383 148.004 32.8025 140.007 32.8025 140.007C27.0576 145.66 33.088 150.81 33.088 150.81C33.1549 159.792 27.0352 164.497 27.0352 164.497C27.5413 170.25 33.4535 167.309 33.8248 167.109C34.1973 166.908 34.3823 166.781 34.7389 167.035C35.099 167.292 34.7649 167.778 34.7649 167.778C33.4452 170.048 30.856 171.231 30.856 171.231C35.3503 174.612 39.3514 169.816 39.3514 169.816C39.3514 169.816 39.7476 169.291 40.1219 169.502C40.4967 169.714 40.3613 170.114 40.3613 170.114C40.1325 172.009 38.4551 174.477 38.4551 174.477C43.7221 175.163 45.7047 170.13 45.7615 170.004C45.8206 169.881 45.9152 169.353 46.4054 169.353C46.8985 169.353 46.9221 169.988 46.9221 169.988C47.1273 170.913 46.8198 172.731 46.8198 172.731C49.2027 170.584 50.6336 166.79 51.4903 162.749C45.007 161.551 45.7591 155.397 45.7591 155.397C45.7591 155.397 42.2913 151.963 45.888 146.015C48.2992 142.025 51.2769 141.642 52.6699 141.71C52.5055 139.286 52.0769 136.224 51.0616 133.06ZM66.0144 138.952C61.2322 140.521 60.5315 141.358 59.4134 142.718C59.0427 143.166 58.6057 143.695 57.9689 144.321C54.7382 147.214 52.8846 147.821 51.8806 147.798C51.1019 147.783 50.8346 147.39 50.8322 147.385C50.8299 147.39 48.6404 150.432 49.2583 153.008C49.2583 153.008 49.2724 153.008 49.2943 153.002H49.2967C49.4823 154.088 50.2475 155.001 51.3715 155.516C51.3466 155.77 51.349 156.017 51.3798 156.258C51.6003 157.936 53.1837 159.228 55.372 159.321C55.7085 159.338 56.0461 159.321 56.3749 159.28C56.9886 160.422 58.3231 161.223 60.0236 161.3C61.2215 161.352 62.384 161.034 63.3489 160.476H63.3501C63.9402 160.778 64.6415 160.967 65.4226 160.999C67.0308 161.069 68.5906 160.476 69.6679 159.509C69.6756 159.511 69.6803 159.517 69.688 159.52C71.3856 157.859 73.3374 155.642 75.5582 152.681C76.0395 152.04 76.5096 151.426 76.9784 150.817C74.5643 152.161 72.6539 152.682 71.1455 152.605C65.7614 152.33 65.529 144.404 66.0144 138.952Z" fill="white"/>
</svg>
