<svg width="200" height="201" viewBox="0 0 200 201" fill="none" xmlns="http://www.w3.org/2000/svg">
<path d="M109.814 31.5488L128.725 62.7633V134.947L109.814 166.256H149.429C164.649 166.22 176.98 154.013 176.98 138.032V60.3604C176.98 44.3806 164.651 31.5469 149.429 31.5469H109.814V31.5488ZM25.5781 31.5515L44.5084 62.7631V134.947L25.5781 166.237H105.648L86.7098 134.947V62.7631L105.648 31.5515H25.5781Z" fill="#013088"/>
<path fill-rule="evenodd" clip-rule="evenodd" d="M25.5783 31.5515L44.5086 62.7631V134.947L25.5783 166.237H105.648L86.71 134.947V62.7631L105.648 31.5515H25.5783ZM103.814 25.5515H14.9219L38.5086 64.4405V133.273L14.9358 172.237H99.1917L99.1805 172.256L149.43 172.256L149.443 172.256C168.035 172.212 182.98 157.256 182.98 138.032V60.3604C182.98 41.3147 168.207 25.5469 149.43 25.5469H103.814V25.5515ZM109.814 31.5469V31.5488L128.725 62.7633V134.947L109.814 166.256H149.43C164.649 166.22 176.98 154.013 176.98 138.032V60.3604C176.98 44.3806 164.651 31.5469 149.43 31.5469H109.814ZM107.734 158.095L122.725 133.276V64.4391L107.73 39.6872L92.71 64.4411V133.273L107.734 158.095Z" fill="white"/>
</svg>
