<svg width="201" height="201" viewBox="0 0 201 201" fill="none" xmlns="http://www.w3.org/2000/svg">
<path d="M134.554 22.4906H76.6874C58.0648 22.4906 45.7385 12.7217 45.7385 12.7217C45.7385 12.7217 44.6894 25.2771 44.2632 30.8174C43.8698 35.9968 43.6403 42.4221 43.5747 44.1267C42.7878 60.4844 55.4758 71.2373 58.8201 73.6954C52.9519 76.5801 35.6406 88.8734 34.0673 119.918L46.0012 120.049L45.1815 122.934C11.806 148.437 23.1832 188.824 23.1832 188.824C23.1832 188.824 61.641 161.32 102.689 173.745V179.285H116.032C121.966 182.334 126.032 184.727 126.032 184.727C126.032 184.727 141.966 151.092 169.44 149.781L166.848 125.486L177.957 79.1992C187.433 42.3192 156.783 22.487 134.554 22.487L134.554 22.4906Z" fill="white"/>
<path d="M50.0312 20.4266C50.0312 20.4266 48.2609 41.3756 48.4904 43.7034C48.8838 48.129 50.0968 54.8816 54.0311 61.0446C57.4408 66.3552 60.7532 69.2709 65.0481 71.664C64.6218 72.418 62.8172 77.3683 62.8172 77.3683C62.8172 77.3683 46.0958 81.7285 39.9327 115.1L52.4583 115.264L49.441 125.918C22.2615 145.619 26.9501 180.202 26.9501 180.202C49.441 162.792 98.3254 157.551 124.063 177.972C124.063 177.972 133.144 152.53 164.061 145.909L161.829 125.162L173.18 77.989C181.593 45.2736 154.749 27.4069 134.553 27.4069H76.6848C59.0128 27.4069 50.0308 20.4248 50.0308 20.4248L50.0312 20.4266ZM61.0804 36.4235C61.0804 36.4235 69.5067 40.0958 75.0475 40.0958H134.553C149.175 40.0958 166.616 52.5872 160.944 74.8127L149.044 124.312L150.485 137.654C150.485 137.654 139.371 140.507 131.11 148.112C125.897 152.931 119.669 162.076 119.669 162.076C119.669 162.076 109.505 155.092 80.9488 153.814C54.6227 152.633 41.2784 162.372 41.2784 162.372C41.2784 162.372 42.8841 149.356 52.3918 139.849C60.916 131.326 74.1297 129.064 90.4889 129.981L108.159 63.7334L83.7674 63.6331C75.4727 63.6003 69.8034 62.0931 64.7211 54.1599C60 46.7513 61.0804 36.4235 61.0804 36.4235ZM113.896 63.7647L108.554 83.5325C111.636 84.2537 114.88 84.6465 118.191 84.6465C123.797 84.6465 129.108 83.5329 133.894 81.5004L134.289 81.3367L135.798 75.2726C136.716 71.9617 136.222 68.9123 134.813 66.4866C133.599 64.3886 125.601 63.7966 122.749 63.7966L113.896 63.7647ZM100.3 66.7265C101.48 66.7301 102.192 66.782 102.192 66.782L90.0961 111.888C85.9651 119.526 84.0288 120.739 78.357 124.115C72.6524 127.525 61.866 128.574 61.866 128.574L69.1786 102.711L57.8984 102.579C57.8984 102.579 60.5866 95.0399 64.0618 91.5651C67.1109 88.5165 73.5702 85.8608 73.5702 85.8608C73.5702 85.8608 76.1272 75.7323 83.7334 70.6513C89.0201 67.1355 96.7604 66.7168 100.299 66.7276L100.3 66.7265ZM132.782 87.4644C128.29 88.9723 123.472 89.7946 118.423 89.7946C114.62 89.7946 110.848 89.3347 107.275 88.4496L102.488 107.659C106.127 106.708 109.997 106.218 113.964 106.218C118.652 106.185 123.341 106.906 127.636 108.217L132.782 87.4644ZM114.128 111.3C109.472 111.3 105.014 112.086 100.883 113.495L96.1932 130.441C106.16 131.49 112.651 133.491 112.651 133.491C113.602 131.59 115.636 129.493 118.128 127.558C120.521 125.69 122.093 124.838 124.946 123.822L126.39 113.2C122.587 111.954 118.39 111.3 114.128 111.3ZM105.538 173.649V174.436H106.292V177.19H107.21V174.436H107.965V173.649H105.538ZM108.687 173.649L108.096 177.19H109.014L109.309 175.155L110.128 177.19H110.488L111.342 175.155H111.374L111.637 177.19H112.555L111.996 173.649H111.078L110.324 175.55L109.602 173.649H108.687Z" fill="#091F40"/>
<path d="M65.4095 42.5529C65.7046 45.5361 66.4921 49.0431 68.2953 51.8624C72.3279 58.1565 76.3258 59.338 83.7682 59.3707L111.638 59.5023H111.965L122.751 59.5345C122.751 59.5345 144.095 56.8776 139.899 76.3173L130.619 113.59L128.783 126.966C128.783 126.966 118.553 129.358 114.816 138.635C114.816 138.635 73.2443 126.278 55.3103 142.866C51.6055 146.308 49.3772 150.635 47.8691 154.307C54.918 151.618 66.0322 148.864 81.0486 149.552C101.376 150.47 112.884 154.206 118.259 156.567C123.571 145.585 138.357 136.504 145.767 134.603L144.618 123.984L156.717 73.7288C161.602 54.979 147.21 44.3563 134.554 44.3563H75.0486C71.8356 44.3563 68.1963 43.438 65.4095 42.5529ZM96.6533 71.171C93.2436 71.466 89.0806 72.2536 86.1627 74.2205C83.1792 76.1874 81.0816 79.3021 79.6718 82.0886C78.9833 83.4654 78.4904 84.7091 78.1953 85.5942C78.1297 85.7581 78.065 85.9221 77.9994 86.0533L77.2451 89.0034L75.2773 89.825C75.2445 89.825 73.8022 90.4479 72.0318 91.3658C70.1303 92.3493 68.2281 93.5295 67.146 94.6113C66.2608 95.4964 65.3431 96.9043 64.5233 98.4124L74.8502 98.5439L67.8053 123.328C70.7888 122.705 74.065 121.756 76.2289 120.477C79.0813 118.806 80.5575 117.888 81.869 116.609C83.1148 115.396 84.3281 113.69 86.164 110.346L96.6547 71.173L96.6533 71.171Z" fill="#D31245"/>
</svg>
