<svg width="200" height="200" viewBox="0 0 200 200" fill="none" xmlns="http://www.w3.org/2000/svg">
<path d="M197.417 54.3975L194.46 52.6409C193.381 52.0062 168.088 37.2114 133.4 30.4621C130.718 27.1729 126.941 25.2062 122.567 24.8619C122.388 24.8499 122.183 24.8422 121.943 24.8422C120.675 24.8422 116.41 25.0472 113.202 27.6017L111.346 27.5026L109.365 27.4001L108.857 27.3702L108.326 27.3403L108.296 27.3429C105.466 27.2002 102.681 27.125 99.9979 27.125C94.6761 27.125 90.7385 27.2241 85.7089 27.7128C82.5094 23.8802 79.5311 22.0869 77.1988 20.9378C76.007 20.3518 73.5225 19.3633 70.3478 19.3633C66.088 19.3633 62.2161 21.1403 59.1541 24.5064C56.7184 27.1737 55.8512 30.1802 55.5436 32.9457L55.1549 33.0456L54.8474 33.1268C26.0977 40.6049 6.36659 52.1599 5.53958 52.6418L2.58013 54.3983L0 55.9191L0.307565 58.905L0.661264 62.3198C0.753534 63.257 3.14741 85.4863 16.0318 112.094C27.9679 136.746 51.5573 170.027 96.1388 188.567L98.2055 189.424L99.9979 190.172L101.798 189.424L103.859 188.567C113.436 184.585 122.577 179.678 131.031 173.984L133.808 172.108L133.759 171.916C134.135 172.002 134.509 172.108 134.878 172.226C135.04 172.275 135.214 172.318 135.381 172.362L135.447 172.386C136.819 172.754 138.321 172.95 139.923 172.965C139.999 172.965 140.076 172.971 140.153 172.971C140.426 172.971 140.71 172.959 140.997 172.953C145.375 172.789 150.21 171.39 155.384 168.794L157.039 167.962L157.677 166.231L159.231 162.012C159.508 161.342 160.076 159.748 160.218 159.343C160.521 158.456 160.909 157.403 161.358 156.208C161.542 155.738 161.724 155.274 161.901 154.811C167.801 153.022 172.141 146.556 173.871 140.777C174.57 138.423 174.903 135.888 175.065 134.108C177.62 131.779 178.904 128.97 179.488 127.314L179.751 126.544L179.746 125.73C179.737 124.087 179.491 122.714 178.997 121.542L179.663 120.427L179.655 120.356C182.901 114.509 185.826 108.425 188.359 102.257C197.439 80.1586 199.27 63.0418 199.341 62.3181L199.698 58.9067L200 55.9174L197.418 54.3966L197.417 54.3975Z" fill="#B2B2B2"/>
<path d="M194.684 61.8481C194.612 62.5393 192.845 79.0205 184.04 100.477C181.654 106.268 178.604 112.749 174.741 119.547V119.552C173.799 121.142 173.089 122.241 173.089 122.241C173.089 122.241 174.196 122.272 174.648 123.261C174.966 123.961 175.065 124.909 175.065 125.766C174.57 127.177 173.301 129.956 170.52 131.704C170.52 131.704 170.423 135.964 169.388 139.437C167.921 144.338 164.309 149.414 160.203 150.423C159.977 149.543 159.854 148.495 159.921 147.285C159.921 147.285 158.381 150.895 156.985 154.54C156.554 155.668 153.287 164.611 153.287 164.611C148.137 167.198 143.974 168.156 140.818 168.277C140.594 168.287 140.367 168.287 140.152 168.287H140.061C140.266 168.287 140.477 168.287 140.694 168.277C139.083 168.327 137.736 168.153 136.67 167.864C136.541 167.827 136.402 167.792 136.282 167.76C132.604 166.6 129.075 166.686 129.075 166.686C128.134 165.474 126.939 164.165 125.555 162.788C127.208 166.111 128.043 168.705 128.423 170.099C120.25 175.604 111.391 180.369 102.064 184.247L99.9959 185.102L97.9352 184.247C54.7121 166.27 31.8259 133.976 20.2409 110.051C7.72133 84.1996 5.4052 62.7503 5.31464 61.8524L4.96094 58.4299L7.92039 56.6785C8.72092 56.2069 28.1821 44.9005 56.0269 37.6573C56.126 37.6334 56.22 37.6035 56.3208 37.5813C58.5037 40.0495 58.2687 43.6266 58.2687 43.6266C62.0535 41.0422 57.7903 32.9405 62.6105 27.6623C67.3522 22.4593 73.0003 24.0963 75.1284 25.1403C77.2241 26.174 80.222 27.8938 83.5976 32.6483C89.8522 31.9323 93.9616 31.8093 99.9933 31.8093C102.614 31.8093 105.342 31.8785 108.105 32.0246L108.565 32.0494L108.579 32.0443L109.106 32.0793L111.09 32.1835C110.896 33.1455 110.396 34.4885 109.193 35.8666C108.833 36.281 108.415 36.6936 107.928 37.0994C107.928 37.0994 109.423 37.4753 111.317 36.3698C112.449 35.7068 113.005 35.5548 114.367 33.2779C114.434 33.1669 115.317 31.9477 115.912 31.4257C118.08 29.5342 121.733 29.4923 122.193 29.5342C126.382 29.8631 129.073 32.0947 130.686 34.7175C165.432 41.1217 190.808 55.9352 192.076 56.6785L195.035 58.4299L194.68 61.8524L194.684 61.8481Z" fill="#003399"/>
<path d="M90.2212 40.8463C89.7257 40.8565 89.2558 40.8771 88.8286 40.9112C89.1276 41.3521 89.4437 41.7997 89.7855 42.2731C94.5698 48.8823 103.583 58.6389 103.583 58.6389C94.0145 53.6752 84.2835 57.3591 80.3808 59.2669C79.2599 59.8179 78.6072 60.2246 78.6072 60.2246C91.0926 57.9725 99.6959 63.2934 99.6959 63.2934C99.4482 63.3455 96.4921 63.8069 93.6984 65.3088C93.0662 65.6523 92.434 66.041 91.8445 66.4955C86.4194 70.7313 87.0687 80.4418 87.0943 80.7571C87.3762 84.5547 88.5296 88.6931 90.4946 92.8982C94.1256 100.674 99.6532 104.614 104.805 106.63C106.42 107.245 107.983 107.69 109.453 107.997C110.632 108.236 111.734 108.399 112.742 108.51C114.485 108.689 115.92 108.706 116.86 108.706C117.338 108.681 117.825 108.655 118.338 108.638H118.38L118.372 108.646C118.363 108.655 118.355 108.663 118.355 108.672C118.329 108.689 118.295 108.715 118.244 108.749H118.269L118.492 108.689L118.483 108.698C118.474 108.706 118.457 108.715 118.423 108.74C118.415 108.749 118.415 108.757 118.398 108.766C118.158 108.963 117.5 109.543 116.766 110.483C116.655 110.62 116.544 110.765 116.441 110.919C116.142 111.329 115.835 111.799 115.553 112.329C114.553 114.148 113.758 116.617 114.04 119.693C114.151 120.906 114.425 122.213 114.92 123.615C115.066 124.008 115.228 124.426 115.407 124.845C115.493 125.058 115.595 125.272 115.698 125.486C116.193 126.553 116.826 127.664 117.603 128.818C117.603 128.818 117.509 128.809 117.338 128.783C117.193 128.749 116.996 128.706 116.749 128.638C116.689 128.621 116.621 128.604 116.544 128.578C116.518 128.57 116.475 128.561 116.441 128.553C116.339 128.51 116.228 128.476 116.116 128.442C116.014 128.399 115.886 128.356 115.775 128.313C115.493 128.202 115.202 128.074 114.886 127.92C114.801 127.878 114.715 127.835 114.621 127.784C114.365 127.647 114.092 127.502 113.818 127.322C113.733 127.271 113.647 127.211 113.562 127.16C111.905 126.067 110.025 124.281 108.521 121.342C108.521 121.351 108.94 130.014 118.167 135.225C118.38 135.353 118.611 135.464 118.842 135.575C119.269 135.806 119.722 136.028 120.192 136.242C120.388 136.336 120.593 136.43 120.815 136.524C120.815 136.524 119.662 136.643 117.953 136.609C117.176 136.584 116.287 136.532 115.339 136.421C115.715 136.857 116.116 137.293 116.569 137.728C117.031 138.164 117.526 138.608 118.09 139.061C118.654 139.514 119.269 139.992 119.961 140.488C120.653 140.975 121.413 141.496 122.251 142.043C126.915 144.725 135.066 147.382 138.987 147.417C147.522 147.502 151.017 145.802 154.81 144.486C155.715 144.17 156.382 143.948 156.877 143.751C157.108 143.658 157.305 143.572 157.467 143.495C157.672 143.384 157.834 143.282 157.962 143.162C158.099 143.034 158.227 142.906 158.372 142.769C158.629 142.479 158.894 142.162 159.15 141.821C159.534 141.317 159.91 140.744 160.261 140.103C160.389 139.898 160.5 139.685 160.619 139.463C161.636 137.455 162.473 134.986 162.9 132.303C162.559 132.149 162.2 131.979 161.815 131.782C161.568 131.654 161.311 131.517 161.047 131.363C160.876 131.269 160.696 131.167 160.508 131.047C159.774 130.612 158.996 130.099 158.159 129.475C157.125 128.706 156.023 127.792 154.853 126.699C154.853 126.69 153.921 109.168 141.952 102.082C141.952 102.082 144.122 101.882 146.719 102.541C144.686 99.4237 142.661 97.1469 141.38 96.1302C141.371 96.1302 141.371 96.1268 141.371 96.1268H141.362C141.362 96.1268 136.732 96.8906 133.622 99.9064C132.768 100.73 132.033 101.718 131.537 102.909C131.537 102.909 126.856 99.4007 125.275 93.1366C124.839 91.4253 124.31 87.8294 124.028 86.16C123.695 84.0959 122.806 82.6153 122.199 81.62C121.029 79.6926 118.679 78.7349 118.679 78.7349C118.748 78.6144 118.953 78.1325 118.979 77.5336C119.038 75.713 118.218 73.9249 117.509 72.2487C117.193 71.5122 116.074 69.5301 116.074 69.5301C116.151 69.5951 116.253 69.6771 116.356 69.7608C117.125 70.3734 118.526 71.4481 119.927 72.5238C119.978 72.5656 127.778 78.206 130 79.6926C132.221 81.1809 137.244 84.1181 143.003 86.5239C144.532 87.1698 148.693 88.6513 153.169 88.9349C153.169 88.9349 150.572 91.3484 153.093 99.4058C153.605 101.127 154.314 102.775 154.793 104.135C154.81 104.135 154.81 104.144 154.81 104.153C155.117 105.033 155.399 105.904 155.698 106.716C159.201 116.489 159.953 122.179 159.962 122.213C159.91 122.222 159.816 122.239 159.697 122.273C159.543 122.316 159.346 122.367 159.107 122.427C159.047 122.444 158.97 122.47 158.902 122.487C158.783 122.521 158.671 122.555 158.535 122.589C158.535 122.589 158.586 122.7 158.74 122.829C159.671 123.606 160.654 124.067 163.2 124.281H163.191C166.839 124.589 169.069 123.64 169.334 123.538C169.325 123.324 169.317 123.102 169.308 122.88C169.231 121.453 169.026 119.667 168.573 117.549C168.146 115.507 167.71 113.585 167.258 111.756C165.045 102.699 162.738 96.2148 161.115 92.2045C160.645 91.0417 160.218 90.0823 159.885 89.3373C159.526 88.4351 159.261 87.849 159.141 87.5671C159.09 87.4466 159.056 87.3732 159.056 87.3732C159.056 87.3732 160.158 85.673 160.423 83.8626C160.491 83.4167 160.5 82.9681 160.44 82.5341C160.312 81.6584 159.91 80.7503 159.534 80.1163C158.817 78.9519 157.68 77.6883 156.228 76.3239C155.647 75.7771 150.658 71.5917 149.838 70.9424C147.787 69.3148 145.566 67.5686 143.268 65.6992C139.175 62.3553 136.253 59.8632 133.502 57.5513C131.443 55.8273 122.78 49.6597 119.013 47.5674C117.082 46.5038 109.538 42.5678 99.2004 41.329C98.534 41.2461 93.7069 40.7771 90.2212 40.8463ZM59.1307 49.1898C54.5616 49.1454 49.2878 50.7448 48.1651 51.1019C48.0549 51.1335 47.9823 51.1617 47.9541 51.1702C47.8294 51.2138 46.987 51.4966 45.8934 51.8716C44.4052 52.3783 42.4547 53.0438 41.1561 53.5017C40.9681 53.5709 40.7844 53.6367 40.6221 53.6948C40.2436 53.8315 35.2568 55.723 33.4687 56.4296C33.3345 56.4783 33.2209 56.5304 33.1269 56.5705C32.986 56.6261 32.8339 56.6859 32.6861 56.7457C30.0077 57.8521 25.9624 59.653 24.2178 60.4416C23.736 60.6586 23.4207 60.7961 23.3652 60.8235C20.4988 62.1674 18.1836 63.3421 16.5039 64.2195C16.5355 64.3972 17.2908 67.5984 18.6133 72.5878C20.4407 79.1193 23.0431 87.1075 26.4425 94.46C31.6156 105.656 40.3154 115.285 50.6812 121.778C52.5155 122.931 54.3967 123.973 56.313 124.922C57.6031 125.554 58.8983 126.135 60.2174 126.665C66.7993 129.322 73.7716 130.74 80.7533 130.603C80.2937 130.133 79.8768 129.663 79.5265 129.185C77.0378 125.802 75.4735 120.616 76.2116 114.986C76.2219 114.917 76.2321 114.857 76.2415 114.789C76.4953 112.961 76.9942 111.098 77.7819 109.227C77.9699 108.783 78.1655 108.347 78.3902 107.903C78.4005 107.886 78.4064 107.86 78.4252 107.835C78.5542 107.57 78.6867 107.314 78.8294 107.04C66.6395 111.722 69.6289 125.375 69.6289 125.375C69.2197 124.956 59.0119 119.65 57.1717 107.69C57.1324 107.399 57.0837 107.109 57.0486 106.818V106.81C55.8491 96.4455 55.6902 95.3434 47.943 89.5176C47.943 89.5176 49.7551 88.4736 51.574 86.3975C53.281 84.4436 54.9905 81.5841 55.2101 77.819V77.8156C55.4638 73.3602 55.838 69.5831 56.3327 66.3716C56.3327 66.3528 56.3327 66.3221 56.3378 66.2998C56.5206 65.5745 56.7359 64.8364 56.9854 64.0888C58.2541 60.3707 60.4899 56.5603 64.4328 54.2125C65.2136 53.7469 66.0714 53.3317 66.9958 52.9943C67.927 52.6542 68.93 52.3851 70.0125 52.1997C70.0125 52.1997 65.4229 49.5555 60.0337 49.2215C59.7373 49.2027 59.4357 49.1924 59.1307 49.1898ZM129.222 84.852C129.239 85.2475 129.273 85.6346 129.308 86.0002C129.555 88.5923 130.17 90.5035 130.743 91.8021C130.88 92.108 131.008 92.3728 131.136 92.6146C131.623 93.5321 132.016 93.9713 132.016 93.9713C132.033 93.9713 132.135 94.0003 132.289 94.0243C132.494 94.0541 132.81 94.0858 133.203 94.0661C133.759 94.0413 134.194 93.9251 134.596 93.7773C134.724 93.7321 134.844 93.6851 134.963 93.6261C135.091 93.5663 135.22 93.5022 135.331 93.4305C135.809 93.1485 136.202 92.8017 136.518 92.4258C136.723 92.1772 136.903 91.9251 137.056 91.6731C137.091 91.609 137.185 91.4732 137.185 91.4732C137.304 91.2639 137.569 90.6863 137.595 90.6325C137.407 90.9059 137.185 91.14 136.92 91.3313C136.826 91.3997 136.74 91.4561 136.638 91.5099C136.458 91.615 136.245 91.6962 136.031 91.7551C135.818 91.8089 135.587 91.844 135.348 91.844C135.032 91.844 134.75 91.7765 134.468 91.6782C134.357 91.6381 134.254 91.5953 134.152 91.5432C133.81 91.3732 133.528 91.14 133.297 90.8555C132.913 90.3967 132.674 89.8046 132.674 89.1622V89.1169C132.682 89.0579 132.691 89.0058 132.691 88.9452C132.827 88.9674 132.947 88.9785 133.058 88.9734C133.853 88.9443 134.288 88.4001 134.511 87.9456C134.511 87.9456 132.657 86.852 131.153 85.9703C130.17 85.3953 129.333 84.9067 129.265 84.8657C129.256 84.8597 129.248 84.8605 129.248 84.8605L129.239 84.8571C129.231 84.8571 129.222 84.852 129.222 84.852ZM111.076 142.649C111.076 142.658 123.353 151.09 128.761 156.806C129.265 157.336 129.718 157.805 130.145 158.25C130.196 158.31 132.221 160.633 134.408 161.419C134.511 161.462 134.613 161.513 134.724 161.548C134.878 161.607 136.646 162.282 139.372 162.436C141.055 162.53 142.61 162.41 143.849 162.146C144.771 161.308 145.515 160.129 146.07 158.831C146.881 156.968 147.309 154.841 147.368 153.098C148.445 152.491 151.683 150.757 151.683 150.757H151.666C151.461 150.757 150.436 150.902 149.188 151.09C148.949 151.133 143.31 151.979 142.499 152.116C141.106 152.355 139.782 152.611 138.543 152.799C138.133 152.867 137.731 152.927 137.338 152.97C137.279 152.978 134.998 153.32 133.622 152.936C133.186 152.808 132.759 152.697 132.315 152.526C131.58 152.235 130.769 151.834 129.692 151.287C122.49 147.254 111.076 142.649 111.076 142.649Z" fill="white"/>
<path d="M166.704 56.5096C166.196 56.3037 165.673 56.0969 165.141 55.8919C156.717 52.5582 146.225 49.0486 134.47 46.4659C135.649 48.9179 136.901 51.2109 138.048 52.6001C140.917 56.0798 144.924 59.9552 154.204 66.7105C166.951 75.9955 167.878 80.6919 166.659 85.6983C165.643 89.8693 170.84 103.539 170.927 103.479C170.927 103.479 179.472 86.6928 183.493 64.2201C180.179 62.4823 174.361 59.6066 166.703 56.5087M118.868 156.818C114.165 152.925 108.645 148.845 103.221 145.066C100.814 143.386 98.4255 141.767 96.1385 140.251C94.7894 140.482 93.3653 140.768 91.8924 141.097C91.3422 141.224 90.7774 141.353 90.211 141.496C86.2409 142.474 81.9478 143.844 77.7119 145.759C77.7367 146.511 77.7939 147.468 77.9383 148.605C77.987 148.982 78.0434 149.383 78.116 149.797C78.1818 150.217 78.2638 150.652 78.3561 151.103C78.6346 152.464 79.0267 153.984 79.5838 155.639C79.8076 156.314 80.0562 157.023 80.3544 157.762C80.5757 158.328 80.8106 158.903 81.0729 159.494C81.8563 161.282 82.8388 163.23 84.0674 165.306C86.1665 166.555 88.3169 167.742 90.487 168.888C92.2683 169.822 94.0581 170.731 95.883 171.595C97.2448 172.237 98.6118 172.858 99.9967 173.46C101.024 173.012 102.051 172.554 103.063 172.08C105.101 171.142 107.107 170.156 109.077 169.126C114.01 166.555 118.758 163.716 123.267 160.626C122.256 159.702 121.167 158.754 120.03 157.784C119.647 157.47 119.262 157.145 118.868 156.818Z" fill="#3366CC"/>
<path d="M68.7219 28.1858C68.4409 28.1747 68.1564 28.1782 67.8727 28.1978C67.8727 28.1978 73.2457 28.9206 76.511 37.3231C74.7946 36.6601 72.8852 36.8412 72.8852 36.8412C76.6298 39.4888 78.3333 44.4851 78.9322 45.8546C79.7575 47.7316 80.8938 48.9806 81.9293 49.8059C85.6927 53.0422 90.3232 52.5168 90.3232 52.5159C90.3232 52.5159 84.078 50.5048 78.6802 36.6678C76.8152 31.8988 72.9407 28.355 68.7219 28.1858ZM24.2105 60.4306C23.732 60.6433 23.4253 60.7834 23.3681 60.8074C20.4975 62.1478 18.1814 63.3277 16.5068 64.2051C16.5376 64.376 17.2911 67.5849 18.6145 72.5683C20.4437 79.1083 23.0434 87.093 26.4437 94.4455C31.6134 105.645 40.3132 115.265 50.6841 121.767C52.5099 122.912 54.3954 123.962 56.3185 124.911C57.6018 125.534 58.9029 126.115 60.2169 126.654C66.8005 129.311 73.7677 130.729 80.7546 130.592C80.2949 130.122 79.8814 129.644 79.5328 129.165C77.039 125.782 75.4807 120.596 76.2146 114.966C76.2282 114.906 76.2385 114.838 76.2428 114.77C76.5016 112.95 76.9954 111.079 77.7823 109.208C77.9702 108.772 78.171 108.328 78.3872 107.884C78.4025 107.858 78.4102 107.841 78.4188 107.815C78.5538 107.55 78.6896 107.294 78.8374 107.029C66.6416 111.702 69.6284 125.363 69.6284 125.363C69.226 124.945 59.0114 119.631 57.1712 107.67C57.1242 107.397 57.0849 107.115 57.0499 106.799C55.8435 96.4293 55.6897 95.3289 47.9459 89.5032C47.9459 89.5032 49.752 88.4549 51.5735 86.3814C48.6875 84.9854 46.4876 82.8427 44.8216 80.5658C44.778 80.5086 44.7387 80.4479 44.6969 80.3958C44.6029 80.2617 44.5123 80.1327 44.4218 80.0037C44.3278 79.8627 44.227 79.7217 44.1364 79.5782C44.1048 79.5269 44.0655 79.4723 44.033 79.4167C41.0018 74.711 40.0962 69.8267 40.0962 69.8267C34.8035 86.7043 47.9955 104.799 47.9955 104.799C47.9955 104.799 39.9595 101.682 33.0248 89.3067C29.299 82.6624 25.8927 73.3483 24.2105 60.4306ZM93.6979 65.2961C93.0657 65.6344 92.4335 66.0283 91.844 66.4862C86.4189 70.7195 87.0682 80.4266 87.0938 80.7427C87.3672 84.5437 88.5291 88.6753 90.4941 92.8855C94.1251 100.658 99.6527 104.603 104.804 106.611C106.419 107.243 107.983 107.67 109.452 107.986C110.631 108.225 111.733 108.379 112.733 108.49C114.484 108.678 115.928 108.687 116.851 108.695C117.338 108.661 117.833 108.644 118.337 108.635C114.245 107.491 110.751 105.995 107.769 104.244C106.624 103.569 105.556 102.857 104.548 102.106C90.2036 91.3229 90.5881 73.1629 93.6979 65.2961ZM119.918 72.5136C119.969 72.5521 127.778 78.1916 129.999 79.6782C132.22 81.1741 137.244 84.1071 143.011 86.5164C144.532 87.1537 148.684 88.6394 153.16 88.9213C153.16 88.9213 150.563 91.3357 153.092 99.3922C153.605 101.115 154.314 102.767 154.801 104.116C154.801 104.133 154.809 104.142 154.809 104.142C155.117 105.022 155.399 105.893 155.689 106.705C159.201 116.478 159.952 122.168 159.961 122.194C159.952 122.126 159.952 122.057 159.944 121.997C159.158 112.719 155.792 101.815 155.296 98.7762C155.031 97.1641 154.57 95.5075 155.108 94.2157C155.365 93.5955 156.099 93.0547 156.629 92.8855C159.218 92.097 161.858 94.9257 167.257 111.745C165.053 102.681 162.738 96.2012 161.114 92.1901C160.645 91.0324 160.217 90.0636 159.884 89.3212C159.525 88.4233 159.269 87.8329 159.149 87.5527C159.09 87.4322 159.055 87.3596 159.055 87.3596C159.055 87.3596 160.123 85.6748 160.397 83.8653C160.474 83.4194 160.491 82.9606 160.439 82.5189C160.286 82.7709 160.123 83.034 159.944 83.3228C158.372 85.8124 154.451 86.9393 147.24 86.0473C146.804 85.9901 144.865 85.5535 143.72 85.1186C133.16 81.1041 124.147 75.3458 119.918 72.5136ZM129.222 84.8393C129.239 85.2365 129.264 85.6236 129.307 85.9909C129.555 88.583 130.161 90.4942 130.742 91.7911C130.871 92.097 131.007 92.3601 131.135 92.6019C131.622 93.5194 132.015 93.9603 132.015 93.9603C132.058 93.9697 132.203 93.9851 132.229 93.9902V93.9834C130.452 90.3558 130.717 87.5236 131.152 85.9593C130.17 85.3826 129.324 84.8914 129.256 84.8495C129.247 84.8495 129.239 84.8461 129.23 84.8461L129.222 84.8393ZM141.37 96.1149C141.37 96.1149 136.731 96.8821 133.613 99.892C139.38 102.875 152.554 111.267 154.852 126.688C154.852 126.679 153.921 109.157 141.951 102.075C141.951 102.075 144.113 101.868 146.719 102.527C144.685 99.4059 142.661 97.135 141.37 96.1184V96.1149ZM118.397 108.755C118.166 108.951 117.5 109.524 116.757 110.472C116.663 110.609 116.543 110.754 116.441 110.908C116.142 111.318 115.834 111.788 115.544 112.318C114.561 114.129 113.758 116.606 114.04 119.691C114.151 120.904 114.424 122.202 114.92 123.604C115.057 124.005 115.219 124.415 115.407 124.834C115.492 125.047 115.595 125.261 115.689 125.466C116.201 126.534 116.825 127.653 117.611 128.807C117.611 128.807 117.509 128.798 117.338 128.764C117.192 128.738 117.004 128.695 116.748 128.627C116.68 128.61 116.611 128.593 116.543 128.567C116.509 128.559 116.483 128.55 116.441 128.542C116.338 128.507 116.227 128.465 116.116 128.431C116.005 128.388 115.894 128.345 115.774 128.294C115.501 128.191 115.21 128.063 114.894 127.909C114.809 127.867 114.715 127.815 114.621 127.773C114.365 127.636 114.091 127.482 113.818 127.311C113.732 127.26 113.647 127.2 113.553 127.149C111.904 126.056 110.033 124.261 108.521 121.331C108.521 121.34 108.939 129.994 118.166 135.214C118.38 135.334 118.611 135.445 118.841 135.564C119.269 135.795 119.721 136.009 120.183 136.231C120.396 136.325 120.601 136.419 120.823 136.513C120.823 136.513 119.662 136.632 117.953 136.59C117.175 136.573 116.287 136.521 115.339 136.41C115.714 136.846 116.116 137.273 116.569 137.717C117.022 138.153 117.526 138.597 118.098 139.05C118.653 139.503 119.277 139.973 119.969 140.477C120.653 140.964 121.404 141.476 122.25 142.032C126.915 144.714 135.065 147.363 138.987 147.406C147.53 147.491 151.016 145.791 154.809 144.475C155.715 144.159 156.381 143.928 156.885 143.74C137.218 148.926 127.752 141.101 125.223 138.461C124.745 137.957 124.514 137.632 124.514 137.632C124.617 137.692 124.711 137.743 124.813 137.794C133.374 142.271 140.661 139.529 140.661 139.529C138.056 138.879 135.962 138.213 134.254 137.564C127.803 135.086 127.077 132.822 127.077 132.822C127.248 132.873 127.402 132.924 127.556 132.976C135.194 135.599 139.329 133.335 139.329 133.335C111.511 127.653 117.603 110.703 118.397 108.755ZM111.075 142.638C111.075 142.638 123.361 151.071 128.76 156.786C129.264 157.325 129.717 157.794 130.136 158.23C130.196 158.299 132.22 160.614 134.399 161.408C134.51 161.451 134.613 161.502 134.724 161.537C133.263 157.982 131.101 153.864 129.692 151.267C122.481 147.235 111.075 142.638 111.075 142.638Z" fill="#B2B2B2"/>
</svg>
