<svg width="200" height="200" viewBox="0 0 200 200" fill="none" xmlns="http://www.w3.org/2000/svg">
<path d="M160.073 49.0495C138.065 69.8009 134.922 65.7098 134.922 65.7098C137.437 81.7484 133.663 94.3254 133.663 94.3254C129.259 99.9866 128.318 67.2826 128.318 67.2826C112.595 76.403 101.275 96.8437 101.275 96.8437C108.818 110.677 109.139 121.682 109.139 121.682C102.22 123.251 95.931 103.129 95.931 103.129L77.6911 120.11C91.2114 123.253 105.993 140.235 105.993 140.235C112.599 139.291 126.746 128.6 126.746 128.6C124.227 125.77 122.028 106.275 122.028 106.275C134.291 115.079 137.122 123.568 137.122 123.568C140.893 122.623 145.612 116.97 145.612 116.97C148.759 111.938 154.735 108.161 154.735 108.161C152.533 101.871 160.073 49.0495 160.073 49.0495ZM11.974 51.8702C38.702 75.7786 51.5915 113.824 51.5915 113.824L82.0936 114.138C82.7222 112.252 79.5809 101.249 79.5809 101.249C79.5809 101.249 62.9105 103.132 60.7092 97.1579C58.5111 91.1805 78.0024 94.6393 78.0024 94.6393L70.4584 78.9245C70.4584 78.9245 47.8227 80.8055 49.0796 73.887C50.3367 66.9687 68.8856 74.5197 68.8856 74.5197L55.0505 56.9128L11.9736 51.8754L11.974 51.8702ZM119.513 136.458C116.683 140.233 109.131 142.435 109.131 142.435C125.798 158.783 121.713 159.096 121.713 159.096C114.794 164.124 101.9 145.261 101.9 145.261C101.271 147.15 85.5522 149.033 85.5522 149.033C99.3849 157.208 105.044 175.13 105.044 175.13C134.916 166.642 155.672 149.972 155.672 149.972C125.484 142.742 119.512 136.457 119.512 136.457L119.513 136.458Z" fill="#A10022"/>
<path d="M159.133 95.8965C159.133 95.8965 160.39 99.9842 170.452 99.0394C170.452 99.0394 170.452 105.017 158.817 101.87L159.133 95.8965ZM160.074 85.205C160.074 85.205 166.992 89.9214 180.829 87.7194C180.829 87.7194 170.139 95.2664 172.337 96.2111C172.337 96.2111 159.761 96.5235 159.761 92.4358L160.074 85.205ZM161.333 77.3438C161.333 77.3438 179.886 78.601 189.003 68.2273C189.003 68.2273 189.948 75.7743 176.427 83.317C176.427 83.317 166.05 86.1476 161.02 82.6884L161.333 77.3438ZM162.277 68.5397C162.277 68.5397 183.972 65.709 190.263 52.1885C190.263 52.1885 184.914 63.1946 186.803 65.3963C186.803 65.3963 184.914 73.5718 162.277 74.829L162.277 68.5397ZM163.534 55.9615C163.534 55.9615 185.858 45.9001 186.803 24.2036C186.803 24.2036 193.093 28.2914 185.546 37.0955C185.546 37.0955 192.777 47.473 184.285 54.075C184.285 54.075 177.055 64.4526 163.534 65.394L163.534 55.9615ZM164.477 43.3856C164.477 43.3856 179.887 30.4938 164.477 14.7712C164.477 14.7712 182.085 12.8853 177.368 26.4061C177.368 26.4061 184.915 32.3796 175.483 42.4413C175.483 42.4413 173.597 49.672 164.476 50.6168L164.477 43.3856ZM14.1775 48.7306C14.1775 48.7306 -0.916715 26.0892 24.555 13.1974C24.555 13.1974 21.0958 19.8034 18.5814 20.7444C18.5814 20.7444 14.4937 43.0687 20.4673 49.0464L14.1775 48.7306ZM23.2952 50.6175C23.2952 50.6175 15.1196 19.8006 36.8155 9.11124C36.8155 9.11124 28.0113 23.8884 32.7277 28.9217C32.7277 28.9217 26.4418 44.0159 30.5295 50.9334L23.2952 50.6175ZM33.9866 51.5604C33.9866 51.5604 30.2151 28.9191 47.1943 22.0049C47.1943 22.0049 40.5922 31.7501 41.8494 35.5252L44.0475 36.4662C44.0475 36.4662 39.3312 47.7851 40.5922 51.8729L33.9866 51.5604ZM43.4201 52.5033C43.4201 52.5033 42.4791 39.9274 54.4262 33.3213C54.4262 33.3213 45.3058 45.5846 49.3936 52.8192L43.4201 52.5033ZM50.6524 53.4466L56.3136 54.7037C56.3136 54.7037 55.0525 40.8709 59.1442 40.2424C59.1442 40.2424 53.7955 40.5546 50.6524 53.4466ZM48.137 177.965C48.137 177.965 54.7392 178.909 54.7392 171.046C54.7392 171.046 50.0228 167.591 49.3943 167.903C49.3943 167.903 31.7862 154.067 26.1245 169.793C26.1245 169.793 24.8673 176.395 30.2123 177.336C30.2123 177.336 26.1245 168.219 35.5572 169.793C35.5572 169.793 39.3325 162.242 46.5633 170.734C46.5633 170.734 55.9963 175.138 48.137 177.965ZM61.9695 143.378C61.9695 143.378 50.3346 160.358 61.9695 162.873L55.0512 167.589C55.0512 167.589 50.0224 161.303 44.9899 161.303C44.9899 161.303 51.5921 155.013 56.9373 142.75L61.9695 143.378ZM65.1132 144.321C65.1132 144.321 62.2826 146.523 62.5988 149.354C62.5988 149.354 53.7947 156.897 65.4295 161.614C65.4295 161.614 60.0846 152.497 67.6314 151.552C67.6314 151.552 76.748 153.754 76.748 158.471C76.748 158.471 75.4909 159.732 73.9174 160.989C73.9174 160.989 79.5785 163.816 82.4091 155.011C82.4091 155.011 75.1783 151.868 75.8031 145.895C75.8031 145.895 68.8887 143.692 65.1132 144.321ZM64.1714 141.806C64.1714 141.806 74.5489 139.604 82.7249 145.894C82.7249 145.894 81.4638 129.23 72.6597 130.799C72.6597 130.799 71.0897 130.171 64.1714 141.806ZM25.8101 130.485C25.8101 130.485 25.1815 139.918 33.3571 144.322L32.4123 137.091C32.4123 137.091 48.7634 129.228 56.939 139.918L62.9126 140.234C62.9126 140.234 68.2575 128.283 73.9187 127.655C73.9187 127.655 81.1494 126.085 85.5536 144.95C85.5536 144.95 93.4129 147.152 101.276 142.119C101.276 142.119 63.5452 96.8413 25.8108 130.485M37.4457 128.283L31.7845 130.485C31.7845 130.485 33.6741 123.882 41.8457 124.195L37.4457 128.283Z" fill="black"/>
</svg>
