<svg width="201" height="200" viewBox="0 0 201 200" fill="none" xmlns="http://www.w3.org/2000/svg">
<mask id="path-1-inside-1_15016_302091" fill="white">
<path d="M28.5518 153.683H47.924V46.3098H28.5518V18.815H171.552V70.223H140.705V46.3106H90.2518V83.6161H127.522V111.118H90.2518V153.687H140.705V129.533H171.552V181.185H28.5518V153.687"/>
</mask>
<path d="M28.5518 153.683H47.924V46.3098H28.5518V18.815H171.552V70.223H140.705V46.3106H90.2518V83.6161H127.522V111.118H90.2518V153.687H140.705V129.533H171.552V181.185H28.5518V153.687" fill="#046A38"/>
<path d="M47.924 153.683H52.924V158.683H47.924V153.683ZM47.924 46.3098V41.3098H52.924V46.3098H47.924ZM28.5518 46.3098V51.3098H23.5518V46.3098H28.5518ZM28.5518 18.815H23.5518V13.815H28.5518V18.815ZM171.552 18.815V13.815H176.552V18.815H171.552ZM171.552 70.223H176.552V75.223H171.552V70.223ZM140.705 70.223V75.223H135.705V70.223H140.705ZM140.705 46.3106V41.3106H145.705V46.3106H140.705ZM90.2518 46.3106H85.2518V41.3106H90.2518V46.3106ZM90.2518 83.6161V88.6161H85.2518V83.6161H90.2518ZM127.522 83.6161V78.6161H132.522V83.6161H127.522ZM127.522 111.118H132.522V116.118H127.522V111.118ZM90.2518 111.118H85.2518V106.118H90.2518V111.118ZM90.2518 153.687V158.687H85.2518V153.687H90.2518ZM140.705 153.687H145.705V158.687H140.705V153.687ZM140.705 129.533H135.705V124.533H140.705V129.533ZM171.552 129.533V124.533H176.552V129.533H171.552ZM171.552 181.185H176.552V186.185H171.552V181.185ZM28.5518 181.185V186.185H23.5518V181.185H28.5518ZM28.5518 148.683H47.924V158.683H28.5518V148.683ZM42.924 153.683V46.3098H52.924V153.683H42.924ZM47.924 51.3098H28.5518V41.3098H47.924V51.3098ZM23.5518 46.3098V18.815H33.5518V46.3098H23.5518ZM28.5518 13.815H171.552V23.815H28.5518V13.815ZM176.552 18.815V70.223H166.552V18.815H176.552ZM171.552 75.223H140.705V65.223H171.552V75.223ZM135.705 70.223V46.3106H145.705V70.223H135.705ZM140.705 51.3106H90.2518V41.3106H140.705V51.3106ZM95.2518 46.3106V83.6161H85.2518V46.3106H95.2518ZM90.2518 78.6161H127.522V88.6161H90.2518V78.6161ZM132.522 83.6161V111.118H122.522V83.6161H132.522ZM127.522 116.118H90.2518V106.118H127.522V116.118ZM95.2518 111.118V153.687H85.2518V111.118H95.2518ZM90.2518 148.687H140.705V158.687H90.2518V148.687ZM135.705 153.687V129.533H145.705V153.687H135.705ZM140.705 124.533H171.552V134.533H140.705V124.533ZM176.552 129.533V181.185H166.552V129.533H176.552ZM171.552 186.185H28.5518V176.185H171.552V186.185ZM23.5518 181.185V153.687H33.5518V181.185H23.5518Z" fill="white" mask="url(#path-1-inside-1_15016_302091)"/>
</svg>
