<svg width="201" height="201" viewBox="0 0 201 201" fill="none" xmlns="http://www.w3.org/2000/svg">
<g clip-path="url(#clip0_15016_302195)">
<path fill-rule="evenodd" clip-rule="evenodd" d="M99.9156 86.6804L117.305 75.5145C122.455 71.8783 122.371 69.2631 122.371 69.2631L139.93 69.1533L128.42 77.5437L113.056 88.8144L120.351 115.294L119.835 115.291C117.512 115.274 114.459 115.319 111.582 115.359C109.457 115.388 107.434 115.421 105.87 115.433L104.22 115.425L97.3948 91.9564L86.9265 115.359L69.8436 115.568L70.5186 114.892C71.2261 114.184 71.7964 113.383 72.2041 112.476L89.7871 73.3941C90.4682 71.8886 90.5434 70.6553 90.2371 69.6592L90.0829 69.1591L107.132 69.1849L99.9156 86.6804ZM5.42672 123.395L181.851 123.84L0.890625 132.473L5.42249 123.394L5.42672 123.395ZM56.0052 114.885H8.05161C8.71298 114.228 9.24753 113.495 9.65265 112.662L28.7446 73.3333C29.3873 72.0084 29.6019 70.7422 29.3966 69.606L77.8663 69.5056L73.3042 79.5508C70.3299 77.8487 64.7475 76.1412 59.328 76.1412L46.0423 76.3119L40.4176 87.888L55.5833 88.0593L51.4926 95.3822H36.837L31.2162 107.125L48.2558 106.958C54.7295 107.125 62.1231 104.877 62.5697 104.743L55.9873 114.893L56.0052 114.885ZM183.53 108.793C182.389 111.326 179.714 113.33 174.822 114.63C170.56 115.717 164.27 116.319 155.451 116.441C146.727 116.505 140.877 115.991 137.875 115.087C134.413 114.081 133.964 112.827 135.01 110.519L152.339 72.2253C152.839 71.1166 152.916 70.1094 152.639 69.2121C152.639 69.2121 170.034 68.9541 170.41 69.1429C170.485 69.3707 154.597 103.979 154.597 103.979C153.675 106.012 154.256 107.497 155.644 108.42C156.918 109.263 158.778 109.559 160.306 109.586C163.733 109.586 166.863 108.558 168.164 105.686L183.627 69.3922L200.891 69.3368L183.53 108.793Z" fill="#611F34"/>
</g>
<defs>
<clipPath id="clip0_15016_302195">
<rect width="200" height="200" fill="white" transform="translate(0.890625 0.773438)"/>
</clipPath>
</defs>
</svg>
