<svg width="200" height="201" viewBox="0 0 200 201" fill="none" xmlns="http://www.w3.org/2000/svg">
<path d="M165.416 10.4429L159.631 14.5096C155.486 17.4206 150.285 17.6642 144.879 17.6642L23.8131 17.688H20.1382L18.8554 21.171L13.3577 36.0928L11.2767 41.7349L17.0617 43.1593C30.8041 46.5403 33.731 51.1153 33.768 54.3533L33.7707 82.3742V83.6067H33.7032V87.4444H26.0423H22.5727L21.188 90.6612L12.8282 110.1L9.61133 117.583H17.6825L33.7085 117.586L33.7111 118.836L33.7667 147.77C33.6767 152.477 25.4638 158.444 18.0691 159.062L11.0874 159.647L13.5496 166.278L18.9243 180.742L20.215 184.212H23.8819L142.929 184.221C154.665 184.221 163.413 188.62 163.504 188.667L168.952 191.449L170.919 185.609L188.098 134.092L190.454 127.031H183.085H166.953H163.659L162.206 130.014C155.056 144.668 144.383 152.341 130.489 152.822L87.1953 152.824V117.585H115.269L116.846 115.243C120.245 110.191 125.736 105.322 132.317 101.539C134.566 100.244 136.891 99.111 139.211 98.1751L141.516 97.2498L142.285 94.8603L143.653 90.6096L145.91 83.6014H138.622H87.194V48.9072L131.516 48.9125C145.065 48.9125 151.364 56.94 158.883 72.7396L160.323 75.7698H187.19L184.839 68.7113L167.662 17.1903L165.413 10.4402L165.416 10.4429Z" fill="#FFC72C" stroke="#FFC72C" stroke-width="4.22573"/>
<path d="M164.128 18.7065C158.604 22.5456 152.034 22.8252 146.131 22.8252L23.5368 22.8453L17.9736 37.7904C23.2254 39.0687 38.8516 43.0666 38.9808 54.1452L38.985 82.2617L82.3707 82.2638V43.3917L132.605 43.4012C150.469 43.4012 158.013 55.4891 165.14 70.2934H181.522L164.122 18.7065H164.128ZM38.9162 88.851V92.6964H25.7978L17.334 112.16L113.32 112.165C117.056 106.66 123.119 101.143 130.766 96.7959C133.311 95.3482 135.876 94.1187 138.413 93.1084L139.802 88.851H38.9162ZM38.9289 118.761L38.9829 147.732C38.824 156.115 27.5198 163.62 18.1706 164.39L23.6099 178.872L144.161 178.882C157.624 178.882 167.432 183.919 167.432 183.919L184.825 132.336H168.491C163.392 142.668 152.774 157.483 131.654 158.161L82.377 158.167V118.76H38.9342L38.9289 118.761Z" fill="#041E42"/>
</svg>
