<svg width="201" height="201" viewBox="0 0 201 201" fill="none" xmlns="http://www.w3.org/2000/svg">
<path d="M184.871 119.341C186.145 102.192 178.606 91.6272 178.606 91.6272C174.305 84.3005 160.714 72.0362 160.714 72.0362C158.908 70.6027 153.971 65.3463 153.971 65.3463C148.768 59.6127 143.565 50.1626 143.565 50.1626C141.653 46.2865 133.159 33.597 133.159 33.597C125.959 24.0591 117.48 19.3334 117.48 19.3334C102.261 10.29 88.3138 10.5902 88.3138 10.5902C88.6322 17.7755 86.5437 23.1193 86.5437 23.1193C84.2078 28.9245 79.7132 28.8535 79.7132 28.8535C76.2088 29.3138 73.5539 26.5177 73.5539 26.5177C69.3418 22.2345 68.1945 14.5553 68.1945 14.5553C53.966 17.7941 48.7627 27.7755 48.7627 27.7755C44.9406 34.0666 44.3886 43.5517 44.3886 43.5517C43.9108 50.347 43.5748 63.541 43.5748 63.541C43.0876 69.912 41.2032 72.531 41.2032 72.531C40.0352 75.044 36.6733 78.4416 36.6733 78.4416C36.4253 78.76 32.2841 83.2559 32.2841 83.2559C29.6996 86.0163 28.3546 87.8574 28.3546 87.8574C24.1073 94.4405 24.0012 100.812 24.0012 100.812C23.8951 109.307 27.0089 112.931 27.0089 112.931C24.8671 112.898 22.8006 113.604 21.0556 114.841C20.0547 115.552 19.2397 116.45 18.5848 117.491C18.0755 118.299 17.6824 119.188 17.4897 120.126C17.4093 120.517 17.376 120.912 17.3465 121.309C17.3145 121.74 17.2843 122.32 17.4721 122.721C18.0152 123.88 18.7926 124.987 19.6987 125.888C20.1138 126.301 20.5722 126.675 21.0814 126.965C20.1452 127.67 19.2949 128.569 18.6746 129.561C18.2086 130.307 17.8602 131.169 17.8953 132.062C17.8796 132.505 17.8513 132.934 17.9017 133.378C17.984 134.112 18.2189 134.924 18.8411 135.382C18.9974 135.498 19.1839 135.568 19.3585 135.653C19.7164 135.827 20.0743 136.004 20.4291 136.184C20.8147 136.381 21.199 136.581 21.5732 136.797C21.6385 136.834 21.8043 136.894 21.8313 136.966C21.8577 137.037 21.8865 137.106 21.9167 137.175C22.2331 137.909 22.6733 138.601 23.2246 139.18C23.9122 139.904 24.8101 140.327 25.6955 140.759C26.5733 141.187 27.4706 141.573 28.3786 141.931C28.977 142.166 29.5805 142.388 30.1876 142.599C30.5116 142.712 30.8042 142.703 31.1471 142.649C31.5289 142.589 31.9672 142.467 32.273 142.221C32.4827 142.053 32.7 141.894 32.9191 141.739C33.3492 141.436 33.7925 141.152 34.2453 140.886L34.3884 140.754C33.9263 142.254 33.6694 143.823 33.7322 145.394C33.8013 147.134 34.2785 148.836 35.1199 150.36C35.2964 150.679 35.476 151.067 35.729 151.332C35.9438 151.556 36.1667 151.773 36.3934 151.984C37.2417 152.775 37.5073 153.074 39.209 154.056C39.0212 153.168 38.9208 152.255 38.868 151.35C38.7713 149.692 38.836 147.917 39.4941 146.368C40.0266 145.114 41.0425 144.149 42.1741 143.428C44.8716 141.708 48.2015 141.108 51.3443 140.934C53.6136 140.809 55.9149 140.889 58.1748 141.112C59.5914 141.253 61.0174 141.451 62.3869 141.846C62.8603 141.983 63.4009 142.15 63.8926 142.396L64.5632 142.843C64.648 143.531 64.3843 143.68 64.3221 144.041C64.2637 144.374 64.1425 144.666 63.973 144.954C63.7111 145.399 63.4719 145.858 63.2421 146.32C62.8929 147.024 62.5652 147.737 62.2556 148.458C61.9159 149.251 61.9084 150.057 62.1909 150.871C62.4785 151.701 62.9608 152.49 63.4211 153.232C63.9466 154.078 64.5375 154.885 65.1956 155.634C65.3551 155.815 65.5189 155.997 65.6879 156.176L65.5441 156.313C58.7612 158.429 52.2494 160.408 48.2396 161.294C48.2396 161.294 37.374 164.507 32.6078 159.997C32.6078 159.997 31.9837 158.787 30.4911 159.408C30.4911 159.408 27.5801 160.156 24.4147 164.936C24.4147 164.936 22.0788 164.912 20.2258 166.096C20.2258 166.096 15.0185 169.793 16.8546 176.962C16.8546 176.962 18.4532 179.74 22.7658 180.281C22.7658 180.281 22.4154 186.719 25.091 188.093C25.091 188.093 26.5447 189.297 29.9725 188.356C29.9725 188.356 31.2383 189.149 32.0169 189.157C32.0169 189.157 35.343 189.333 37.1872 188.928C37.1872 188.928 40.0222 188.675 41.5375 185.93C41.5375 185.93 44.2144 180.507 44.5045 179.873C44.5045 179.873 46.3072 176.706 49.5781 175.325C49.5781 175.325 59.8788 170.305 84.4043 161.821L85.1365 161.602C85.3211 161.764 85.6262 162.047 85.7694 162.167C86.3088 162.621 86.8732 162.983 87.5452 163.214C88.1405 163.417 88.7778 163.543 89.407 163.559C90.7651 163.593 92.1246 163.585 93.4828 163.61C93.8703 163.617 95.3541 163.676 95.7045 163.638C96.225 163.581 96.7293 163.4 97.1951 163.165C97.3829 163.072 97.5807 162.898 97.7816 162.842C98.2563 162.71 98.7103 162.396 99.131 162.15C99.7696 161.775 100.397 161.382 101.021 160.984C102.347 160.139 103.654 159.277 105 158.465L105.015 158.487C135.761 169.063 149.535 175.846 149.535 175.846C152.791 177.261 154.561 180.446 154.561 180.446C154.844 181.084 157.463 186.535 157.463 186.535C158.949 189.296 161.781 189.578 161.781 189.578C163.622 190.003 166.949 189.862 166.949 189.862C167.728 189.862 169.002 189.083 169.002 189.083C172.42 190.06 173.886 188.871 173.886 188.871C176.576 187.526 176.293 181.084 176.293 181.084C180.611 180.588 182.24 177.827 182.24 177.827C184.151 170.678 178.983 166.926 178.983 166.926C177.142 165.722 174.807 165.722 174.807 165.722C171.692 160.909 168.79 160.13 168.79 160.13C167.303 159.493 166.666 160.696 166.666 160.696C161.852 165.156 151.021 161.829 151.021 161.829C142.743 159.908 120.338 152.288 117.484 151.313L117.476 151.301C118.051 150.977 118.625 150.653 119.2 150.33C119.571 150.121 119.941 149.913 120.313 149.705C120.565 149.563 120.812 149.402 121.05 149.225L121.049 149.221L133.466 145.299C151.836 139.884 155.234 139.565 155.234 139.565C161.286 138.185 167.019 142.963 167.019 142.963C167.869 143.494 168.825 143.388 168.825 143.388C173.178 141.901 175.302 140.521 175.302 140.521C176.789 139.459 177.425 137.654 177.425 137.654C178.275 137.123 180.293 136.167 180.293 136.167C181.673 135.318 181.355 132.77 181.355 132.77C181.461 130.115 178.169 127.673 178.169 127.673C180.399 126.398 181.779 123.425 181.779 123.425C182.204 122.257 181.885 121.832 181.885 121.832C181.821 121.456 181.727 121.086 181.613 120.727L184.872 119.34L184.871 119.341Z" fill="white" stroke="#FFD615" stroke-width="4.03924" stroke-miterlimit="10"/>
<path d="M96.6707 19.9429C96.6707 19.9429 95.9641 28.0133 89.8766 34.2436C89.8766 34.2436 82.6534 40.6137 73.3095 36.9318C73.3095 36.9318 66.0885 34.3849 62.9741 26.0318C62.9741 26.0318 57.0273 28.5794 54.6917 35.3749C54.6917 35.3749 52.568 42.3832 52.568 48.7541L52.3553 61.0718C52.3553 61.0718 52.9928 70.2029 47.4714 78.9109C47.4714 78.9109 38.3395 89.1071 37.49 90.1671C37.49 90.1671 31.9686 97.6016 33.0301 103.122C33.0301 103.122 32.6053 110.763 42.7994 117.564C42.7994 117.564 53.4182 112.044 59.5771 113.104C59.5771 113.104 59.5763 110.27 60.1416 109.283C60.1416 109.283 60.7092 107.583 63.9649 103.902C63.9649 103.902 62.266 99.935 63.683 93.7077C63.683 93.7077 61.2737 91.5804 60.7084 88.4667C60.7084 88.4667 60.2844 86.3468 60.8505 85.3531C60.8505 85.3531 62.6907 80.9638 66.2306 78.6989C66.2306 78.6989 67.3619 77.7787 69.3442 78.4861C69.3442 78.4861 72.8841 75.1597 73.7335 74.0269C73.7335 74.0269 76.8486 70.769 80.1051 70.6284C80.1051 70.6284 93.6969 69.2136 96.5309 68.9302C96.5309 68.9302 99.7844 68.2214 104.319 69.0708C104.319 69.0708 124.421 73.0347 128.381 93.7077C128.381 93.7077 129.515 100.075 128.948 104.182C128.948 104.182 136.169 104.042 139.283 111.543C139.283 111.543 140.843 115.511 139.989 120.038C139.989 120.038 138.716 124.145 135.036 126.979C135.036 126.979 132.629 128.392 127.535 128.252C127.535 128.252 122.721 126.552 120.594 123.865C120.594 123.865 120.174 132.713 123.288 137.807C123.288 137.807 149.617 128.252 154.719 124.285C154.719 124.285 158.966 120.325 159.672 118.197C159.672 118.197 162.219 114.517 166.606 115.79C166.606 115.79 171.707 112.824 176.095 114.804C176.095 114.804 176.382 101.775 166.467 90.594C166.467 90.594 160.806 83.6527 152.451 76.7166C152.451 76.7166 141.837 66.0985 133.195 49.1795C133.195 49.1795 123.854 26.7384 96.6707 19.9429ZM128.838 110.423L129.493 114.987C129.721 117.062 128.565 118.218 128.565 118.218C127.645 120.294 125.106 121.678 125.106 121.678C126.026 122.369 127.873 123.297 127.873 123.297C130.649 124.217 134.8 120.522 134.8 120.522C135.264 119.602 135.028 115.907 135.028 115.907C134.336 111.755 128.838 110.423 128.838 110.423Z" fill="#582C83"/>
<path d="M89.3118 11.1572C89.3118 23.2629 84.4242 27.5094 84.4242 27.5094C80.1769 31.3327 74.4428 28.1469 74.4428 28.1469C69.3461 25.5978 67.4338 15.4045 67.4338 15.4045C51.0816 20.0771 47.4718 31.9708 47.4718 31.9708C44.9235 38.9784 44.9227 54.2691 44.9227 54.2691C44.7108 69.5599 43.2253 69.9839 43.2253 69.9839C42.5879 74.0191 32.1811 84.635 32.1811 84.635C24.5353 93.1294 25.1735 99.9309 25.1735 99.9309C23.8993 106.511 28.1466 113.306 28.1466 113.306C29.2087 113.519 31.9683 115.006 31.9683 115.006C33.0298 114.579 35.5796 114.792 35.5796 114.792C28.5713 105.025 30.6942 100.144 30.6942 100.144C31.3316 92.4964 37.2792 86.5488 37.2792 86.5488C47.2591 78.0543 48.5333 71.0453 48.5333 71.0453C49.8074 65.9486 50.0194 54.0564 50.0194 54.0564C49.5954 40.2526 52.5685 33.4555 52.5685 33.4555C57.2404 23.2622 64.0367 22.6262 64.0367 22.6262C65.5229 28.3603 72.1065 33.2443 72.1065 33.2443C80.1769 38.9784 87.8219 32.1821 87.8219 32.1821C92.9186 28.1469 95.0385 17.3168 95.0385 17.3168C115.855 19.2277 130.511 40.0406 130.511 40.0406C132.631 43.0129 141.552 58.0902 141.552 58.0902C148.773 70.1951 157.694 77.4169 157.694 77.4169C170.223 88.6761 173.196 95.8897 173.196 95.8897C177.657 101.418 178.717 116.493 178.717 116.493L180.623 119.894L183.811 118.407C185.084 104.598 178.504 92.7098 178.504 92.7098C175.53 86.7623 161.301 73.8071 161.301 73.8071C154.507 68.7104 146.432 56.3928 146.432 56.3928C146.013 55.7553 135.391 38.1282 135.391 38.1282C117.555 11.5819 89.3118 11.1572 89.3118 11.1572ZM101.03 69.819C99.8378 69.816 99.0797 69.9169 99.0797 69.9169C97.8062 70.0582 80.107 71.5444 80.107 71.5444C76.1424 71.827 73.5948 75.1556 73.5948 75.1556C72.6033 76.1464 70.9044 78.8361 70.9044 78.8361C73.8782 80.2516 74.5849 81.1017 74.5849 81.1017C86.1944 75.7209 101.627 78.6933 101.627 78.6933C106.441 77.1364 109.694 78.4121 109.694 78.4121C115.075 79.8268 119.042 86.7623 119.042 86.7623C119.609 88.6025 120.316 88.8895 120.316 88.8895C124.563 93.1368 126.97 96.1106 126.97 96.1106C127.25 77.5619 109.127 71.6158 109.127 71.6158C106.212 70.112 103.01 69.8234 101.03 69.819ZM128.442 104.671C127.404 104.693 126.683 104.818 126.683 104.818C123.923 106.519 126.477 109.699 126.477 109.699C132.424 109.066 134.544 113.526 134.544 113.526C136.458 116.287 135.185 120.747 135.185 120.747C131.784 123.927 128.81 123.714 128.81 123.714C126.477 123.508 124.35 121.594 124.35 121.594L122.443 122.44L122.016 124.781C122.649 126.268 127.75 127.961 127.75 127.961C129.657 128.175 134.758 126.474 134.758 126.474C140.278 123.294 139.638 117.56 139.638 117.56C140.492 110.339 134.544 106.305 134.544 106.305C132.822 104.841 130.179 104.627 128.442 104.671ZM60.003 113.732C60.003 113.732 52.3572 113.526 47.2606 115.86C47.2606 115.86 37.5972 120.424 30.3769 120.637C30.3769 120.637 29.5267 122.234 36.323 125.525C36.323 125.525 42.066 127.659 44.7115 127.961C44.7115 127.961 49.0735 124.825 49.828 124.531C49.828 124.531 43.6913 123.787 41.4094 122.22C41.4094 122.22 49.418 124.089 53.7992 123.397C53.7992 123.397 54.2195 123.522 57.7402 123.11C57.7402 123.11 43.756 127.542 37.8092 135.719C37.8092 135.719 32.2878 143.044 36.9597 150.154C36.9597 150.154 36.535 144.633 42.3751 141.557C42.3751 141.557 47.0486 137.626 63.9322 139.643C63.9322 139.643 62.0206 129.772 64.6749 121.91C64.6749 121.91 65.4184 120.85 63.9322 119.261C63.9322 119.261 60.9584 116.493 60.003 113.732Z" fill="#FFD615"/>
<path d="M118.09 38.3843L115.793 38.6459L107.858 39.5502L106.15 39.7443L95.8539 40.9175L94.146 41.113L94.9065 41.9023C93.7096 41.3497 92.5614 41.09 91.1973 41.09C90.5832 41.09 89.8987 41.1355 88.9776 41.241C86.1739 41.56 83.428 43.121 81.2472 45.6345C79.1568 48.0439 77.8037 51.14 77.5337 54.1283C77.2549 57.2183 78.1864 60.1846 80.0884 62.2657C81.7078 64.0384 83.8833 65.0146 86.2129 65.0146C86.5331 65.0146 86.8585 64.9955 87.1819 64.9585C89.838 64.6565 91.7281 64.1765 94.1086 62.5087L94.4321 62.2816L94.468 61.8891L95.0229 55.7373L95.2429 53.2947L93.5594 55.0774L89.6259 59.2423L89.6185 59.2495L89.6127 59.2553C88.8253 60.1243 88.1357 60.5218 87.229 60.6254C87.1084 60.6385 86.9926 60.6455 86.8839 60.6455C86.2359 60.6455 85.938 60.4011 85.7697 60.2171C84.7343 59.0836 85.0313 55.7826 85.2292 53.598C85.594 49.5517 86.152 45.8934 88.9312 45.5776C89.0549 45.5632 89.1715 45.556 89.2776 45.556C89.8239 45.556 90.1598 45.7327 90.7168 46.3122L93.9702 49.6922L95.2612 51.0336L95.428 49.1804L95.9829 43.0286V43.0229L97.4005 44.4965L96.2863 56.8414C96.1356 58.5074 96.582 59.9636 97.5773 61.0524C98.8262 62.4194 100.889 63.173 103.384 63.173C103.86 63.173 104.348 63.1441 104.836 63.0882C108.347 62.6882 112.376 59.6001 112.764 55.3092L113.887 42.8693L116.509 40.0716L118.09 38.3852L118.09 38.3843ZM107.272 40.9102L107.342 40.9821L109.405 43.1286L108.291 55.4727C108.153 57.0055 106.889 58.3837 105.473 58.545C105.375 58.5563 105.277 58.5623 105.181 58.5623C104.611 58.5623 104.108 58.3583 103.768 57.9872C103.405 57.5891 103.244 57.0351 103.302 56.3871L104.425 43.9472L107.049 41.1495L107.272 40.9102ZM82.1093 42.4845L79.6853 42.7605L62.4219 44.7266L60.7139 44.9221L61.9057 46.16L63.9688 48.305L62.6159 63.291L59.9936 66.0887L58.4122 67.7751L60.7096 67.5134L79.1088 65.4173L81.0051 65.2016L79.5761 63.9364C79.5585 63.9214 77.752 62.2973 76.9351 60.0964L76.4578 58.8111L75.519 59.8118L73.7104 61.7383L69.6907 62.1969L70.1996 56.5583L72.1764 56.3326L74.182 58.4517L75.4773 59.8189L75.6455 57.9442L76.3716 49.8987L76.396 49.6428L76.8345 50.1L77.3449 48.9369C78.656 45.9474 80.37 44.2217 80.387 44.2041L82.1151 42.4832L82.1093 42.4845ZM74.4694 47.6486L75.4441 48.6622L74.9007 49.2416L72.3287 51.9861L70.5878 52.1845L70.9615 48.0469L74.4694 47.6486ZM99.9219 68.184C99.1207 68.1714 98.6467 68.1983 98.6467 68.1983C98.6467 68.1983 98.2234 68.1986 94.3121 68.6225C90.4001 69.0469 80.598 69.8948 80.598 69.8948C75.8377 70.507 72.8691 73.995 72.8691 73.995C71.5498 75.4562 69.4288 77.2945 69.4288 77.2945C69.0043 77.7654 68.674 77.7646 68.674 77.7646C66.5535 77.6233 65.6577 78.5194 65.6577 78.5194C60.851 81.8649 60.2866 85.8241 60.2866 85.8241C59.5324 90.0187 62.7838 93.5987 62.7838 93.5987C63.1135 93.9761 63.067 94.2586 63.067 94.2586C62.0303 100.243 63.2079 103.683 63.2079 103.683C62.2183 104.814 60.3326 107.265 60.3326 107.265C59.5314 108.255 59.4384 109.198 59.4384 109.198C59.2943 110.512 59.2798 111.518 59.3176 112.299C58.6461 112.251 53.8163 112.008 47.3894 114.697C47.3894 114.697 45.489 115.523 42.7888 116.475C40.992 115.693 38.1222 112.534 38.1222 112.534C38.1222 112.534 36.87 113.659 36.1382 114.457C35.2955 114.357 33.4886 114.199 32.4549 114.517C32.4549 114.517 26.4022 110.376 20.3499 115.367C20.3499 115.367 17.5225 117.773 17.3768 121.1C17.3768 121.1 17.2577 121.967 17.4832 122.693C17.4832 122.693 18.8627 125.666 21.0932 126.94C21.0932 126.94 17.8005 129.382 17.9073 132.036C17.9073 132.036 17.5889 134.586 18.9698 135.435C18.9698 135.435 20.9875 136.39 21.8365 136.922C21.8365 136.922 22.4736 138.726 23.9599 139.788C23.9599 139.788 26.0846 141.169 30.4381 142.655C30.4381 142.655 31.3928 142.762 32.2424 142.231C32.2424 142.231 33.0688 141.562 34.3787 140.802C33.3688 144.128 33.3633 147.801 35.7014 151.265C35.7014 151.265 36.954 153.025 39.2208 154.03C39.2208 154.03 37.8286 147.78 40.2573 145.028C40.2573 145.028 43.0259 140.786 53.3501 140.768C53.3501 140.768 61.082 140.646 64.0823 142.371C64.2009 142.895 64.2922 143.271 64.2922 143.271C64.5277 143.884 64.1039 144.732 64.1039 144.732C63.2085 146.193 62.2191 148.549 62.2191 148.549C61.6063 149.868 62.4074 151.329 62.4074 151.329C63.5119 153.641 64.8128 155.231 65.7802 156.219C58.9175 158.36 52.3046 160.374 48.251 161.269C48.251 161.269 37.3856 164.481 32.6195 159.971C32.6195 159.971 31.9964 158.761 30.5032 159.383C30.5032 159.383 27.5923 160.132 24.4276 164.912C24.4276 164.912 22.0913 164.887 20.2382 166.071C20.2382 166.071 15.03 169.768 16.8655 176.937C16.8655 176.937 18.466 179.715 22.7786 180.257C22.7786 180.257 22.4263 186.696 25.1019 188.069C25.1019 188.069 26.5557 189.272 29.9842 188.332C29.9842 188.332 31.25 189.123 32.0285 189.133C32.0285 189.133 35.3556 189.31 37.1998 188.904C37.1998 188.904 40.0344 188.651 41.5503 185.906C41.5503 185.906 44.2267 180.483 44.5162 179.85C44.5162 179.85 46.3189 176.682 49.5897 175.301C49.5897 175.301 60.1099 170.184 85.0971 161.565C85.4008 161.821 85.9224 162.263 85.9224 162.263C87.3365 163.535 89.4576 163.535 89.4576 163.535C90.2117 163.535 94.076 163.583 95.3017 163.63C96.5267 163.677 97.7529 162.828 97.7529 162.828C98.4599 162.686 102.512 160 102.512 160C102.911 159.713 103.863 159.131 104.997 158.454C135.75 169.033 149.545 175.821 149.545 175.821C152.802 177.237 154.571 180.422 154.571 180.422C154.855 181.059 157.474 186.511 157.474 186.511C158.96 189.272 161.793 189.554 161.793 189.554C163.633 189.979 166.96 189.837 166.96 189.837C167.739 189.837 169.013 189.06 169.013 189.06C172.431 190.036 173.897 188.847 173.897 188.847C176.587 187.502 176.305 181.059 176.305 181.059C180.623 180.564 182.251 177.804 182.251 177.804C184.162 170.654 178.995 166.902 178.995 166.902C177.154 165.698 174.818 165.699 174.818 165.699C171.704 160.885 168.8 160.106 168.8 160.106C167.314 159.469 166.677 160.671 166.677 160.671C161.863 165.131 151.033 161.804 151.033 161.804C142.344 159.788 118.354 151.583 117.485 151.286C118.291 150.833 120.325 149.68 120.325 149.68C120.576 149.529 120.807 149.37 121.021 149.21L133.477 145.275C151.847 139.86 155.244 139.54 155.244 139.54C161.297 138.16 167.032 142.939 167.032 142.939C167.882 143.47 168.836 143.364 168.836 143.364C173.19 141.878 175.313 140.496 175.313 140.496C176.799 139.434 177.438 137.63 177.438 137.63C178.287 137.098 180.305 136.143 180.305 136.143C181.685 135.293 181.366 132.746 181.366 132.746C181.472 130.091 178.181 127.649 178.181 127.649C180.411 126.375 181.791 123.401 181.791 123.401C182.216 122.232 181.897 121.808 181.897 121.808C181.367 118.729 178.923 116.075 178.923 116.075C172.87 111.084 166.818 115.225 166.818 115.225C165.438 114.8 162.677 115.225 162.677 115.225C160.554 115.543 158.431 119.472 158.431 119.472C157.369 121.383 154.644 123.578 154.644 123.578C144.78 129.901 126.918 135.817 123.321 136.964C123.319 136.96 123.295 136.908 123.295 136.908C122.588 135.494 121.975 133.186 121.975 133.186C121.124 129.653 121.015 127.138 121.149 125.433C122.34 126.503 124.194 127.905 126.5 128.709C126.5 128.709 126.499 128.898 128.101 128.898C128.101 128.898 132.06 128.615 134.134 128.049C134.134 128.049 135.076 127.767 135.83 127.108C135.83 127.108 139.601 123.336 139.978 121.829C139.978 121.829 140.354 120.98 140.448 119.944C140.448 119.944 140.826 116.079 140.543 114.383C140.543 114.383 140.449 113.629 140.166 112.498C140.166 112.498 138.064 104.177 129.483 103.571C129.6 101.487 130.973 91.2044 123.531 80.5459C119.418 74.6572 111.983 71.1203 111.983 71.1203C107.671 68.6111 102.325 68.2216 99.9219 68.184ZM101.334 70.4541C104.252 70.4452 106.705 71.1671 106.705 71.1671C127.205 77.906 126.735 94.9663 126.735 94.9663C126.737 94.9737 126.738 94.9752 126.74 94.9822C126.657 94.8811 126.58 94.7852 126.404 94.5882C124.331 91.5723 120.75 89.3114 119.901 87.709C118.959 84.8815 117.026 82.854 117.026 82.854C114.481 79.8851 111.794 78.7077 111.794 78.7077C109.061 76.5395 102.135 77.6712 102.135 77.6712C100.815 77.9537 97.6104 77.5289 97.6104 77.5289C90.5412 77.1521 86.1576 77.6712 86.1576 77.6712C78.2719 78.4096 74.534 80.42 74.534 80.42C73.1514 79.4147 71.7852 78.8026 71.7852 78.8026C72.9946 77.0903 74.1401 75.5032 74.1401 75.5032C77.5805 71.5918 84.2252 71.7336 84.2252 71.7336C92.3781 71.0737 100.061 70.5073 100.061 70.5073C100.491 70.472 100.917 70.4553 101.334 70.4541ZM106.759 79.4145C107.466 79.3674 110.011 79.8846 110.011 79.8846C111 80.1201 111.755 80.6868 111.755 80.6868C114.016 82.1944 115.996 84.8805 115.996 84.8805C116.514 85.3043 116.751 86.2952 116.751 86.2952C117.221 87.8028 117.409 88.7449 117.409 88.7449C117.423 88.8178 117.491 88.9409 117.604 89.1029C117.604 89.1029 119.293 90.5844 120.284 91.6663C121.64 93.1451 123.865 95.2481 125.75 98.9711C126.631 100.709 126.693 102.364 126.693 102.364C126.693 102.757 126.645 103.28 126.603 103.678C126.354 103.785 124.607 104.563 124.432 105.616C124.432 105.616 123.394 107.125 124.714 109.104C124.714 109.104 126.222 111.553 127.918 113.25C127.918 113.25 128.012 115.512 127.635 116.266C127.635 116.266 125.467 119.101 121.288 121.006C120.283 120.954 118.434 120.491 115.257 118.496C115.257 118.496 115.885 114.099 113.749 110.957C113.749 110.957 113.749 114.224 113.624 114.978C113.498 115.732 113.623 115.858 113.12 116.486C113.12 116.486 111.109 119.125 106.585 120.759C106.585 120.759 105.581 121.135 105.958 122.141C105.958 122.141 107.465 124.656 107.465 126.415C107.465 126.415 107.465 128.299 105.706 128.048C105.706 128.048 87.3578 124.78 75.6703 126.35C75.6703 126.35 74.6655 126.352 74.4137 127.043C74.4137 127.043 74.3512 127.42 74.7286 127.483C74.7286 127.483 78.1214 127.545 78.6866 127.545C78.6866 127.545 78.3414 130.341 77.9332 131.504C77.9332 131.504 77.9337 131.881 77.5249 131.913C77.5249 131.913 74.446 131.755 73.1889 131.818C73.1889 131.818 72.7491 131.913 72.6556 131.568C72.6556 131.568 71.9636 130.059 71.9008 126.79C71.9008 126.79 71.0849 127.044 70.7075 127.295C70.7075 127.295 70.5815 127.388 70.5824 127.608C70.5824 127.608 70.0164 132.257 70.4559 137.787C70.4559 137.787 70.5184 138.667 71.0842 138.667C71.0842 138.667 79.756 138.604 91.3958 140.583C91.3958 140.583 98.4638 141.809 100.443 141.95C100.443 141.95 101.559 142.154 101.858 142.091C101.858 142.091 102.659 142.139 103.885 141.683C103.885 141.683 107.716 140.238 108.784 139.986C108.784 139.986 111.11 139.17 111.236 137.599C111.236 137.599 111.926 133.012 111.864 126.728C111.864 126.728 111.738 126.35 112.115 126.036C112.115 126.036 114.592 123.891 118.722 123.976C118.495 127.976 118.754 131.686 118.776 131.865C119.153 134.975 119.529 135.87 119.529 135.87C120.473 137.661 121.321 139.971 121.321 139.971C121.745 141.054 121.604 141.714 121.604 141.714C120.991 144.306 119.813 146.191 119.813 146.191C119.153 147.511 116.372 149.301 116.372 149.301C113.875 150.951 106.334 154.674 106.334 154.674C105.345 155.05 103.601 156.088 103.601 156.088C104.403 153.072 104.497 150.997 104.497 150.997C101.057 157.501 96.1086 160.518 96.1086 160.518C95.2602 161.131 94.1763 160.895 94.1763 160.895C89.0399 160.329 88.3796 159.858 88.3796 159.858C87.5784 159.623 87.2496 159.387 87.2496 159.387C86.2129 158.869 81.923 155.664 81.923 155.664C81.0276 155.052 80.1332 154.628 80.1332 154.628C79.5411 154.018 74.3365 154.91 74.3365 154.91C73.6765 155.193 69.4815 155.476 69.4815 155.476C68.3505 155.523 67.6916 154.628 67.6916 154.628C65.1466 152.036 64.2513 149.727 64.2513 149.727C63.7326 148.69 64.4396 147.323 64.4396 147.323C65.0996 145.957 67.4084 143.506 67.4084 143.506C67.1258 143.176 66.9383 142.704 66.9383 142.704C63.3566 132.996 65.9952 123.241 65.9952 123.241C66.2778 121.922 67.9274 119.707 67.9274 119.707C68.1629 119.377 67.4559 119 67.4559 119C64.3922 117.021 61.8001 114.429 61.8001 114.429C61.3291 113.675 61.4234 113.11 61.4234 113.11C61.2344 112.026 61.33 110.187 61.33 110.187C61.2829 109.81 61.5183 109.481 61.5183 109.481C62.1782 108.256 63.8747 106.747 63.8747 106.747C64.6288 106.181 65.1945 106.889 65.1945 106.889C69.5774 109.576 72.0737 110.234 72.0737 110.234C73.3465 110.753 74.0534 110.093 74.0534 110.093C79.3311 106.559 80.6983 102.977 80.6983 102.977C82.6304 100.668 83.6197 93.9297 83.6197 93.9297C84.1855 91.2905 86.495 89.217 86.495 89.217C97.5694 80.9228 104.214 79.6965 104.214 79.6965C105.015 79.3668 106.759 79.4145 106.759 79.4145ZM68.4019 79.4921C69.5065 79.5565 70.5196 80.0111 70.5196 80.0111C72.0272 80.5134 75.609 82.642 75.609 82.642L76.5506 82.1475C80.6504 80.1683 86.1183 79.7911 86.1183 79.7911C88.5684 79.555 90.7836 79.5079 90.7836 79.5079C92.5738 79.5079 96.2496 79.932 96.2496 79.932C93.2337 81.0629 84.2322 87.1894 84.2322 87.1894C82.9129 87.9899 82.1116 89.4982 82.1116 89.4982C81.9247 89.9178 81.3122 91.3826 81.3122 91.3826C80.322 93.4561 77.6835 93.4084 77.6835 93.4084C77.3062 93.5025 77.0711 93.3135 77.0711 93.3135C75.7544 92.5003 72.7345 88.933 71.723 87.6678C69.3425 84.6895 68.3991 85.3963 68.3991 85.3963C67.3624 85.6794 66.1376 87.4234 66.1376 87.4234C65.0538 88.7897 63.9696 91.3353 63.9696 91.3353C63.682 91.0201 62.765 89.9364 62.1006 88.6799C61.2359 87.0467 61.8965 86.0562 61.8965 86.0562C63.8763 81.8153 66.5143 79.9778 66.5143 79.9778C67.0445 79.5537 67.7406 79.4518 68.4033 79.4904L68.4019 79.4921ZM107.183 86.3412C106.194 86.3412 105.063 87.142 105.063 87.142C103.319 88.0373 99.0303 91.478 99.0303 91.478C96.8627 93.363 96.0615 93.9766 96.0615 93.9766C93.4695 94.7301 90.7839 94.1161 90.7839 94.1161C90.5484 94.0225 90.5481 93.9766 90.5481 93.9766L89.5589 91.9495C88.6164 92.5623 87.5318 93.8342 87.5318 93.8342C87.2021 94.2116 87.1551 94.8708 87.1551 94.8708C86.9668 95.7192 86.8248 97.4155 86.8719 97.6038C86.9335 97.85 88.899 99.3492 88.899 99.3492C90.03 100.339 91.7255 101.987 91.7255 101.987C94.3646 104.485 96.7688 106.888 96.7688 106.888C97.1462 106.559 98.8894 105.569 98.8894 105.569C99.5965 105.192 100.774 105.333 100.774 105.333C103.461 105.474 108.032 105.428 108.032 105.428C109.964 105.286 110.766 103.777 110.766 103.777C112.698 99.96 112.603 96.0033 112.603 96.0033C113.31 95.5776 114.973 95.8064 114.865 95.5778C110.906 87.2364 107.183 86.3412 107.183 86.3412ZM127.307 105.333C127.495 105.309 127.636 105.333 127.636 105.333C137.343 105.145 138.852 113.534 138.852 113.534C140.172 118.529 138.286 121.922 138.286 121.922C136.967 124.656 133.763 126.447 133.763 126.447C128.767 127.766 126.599 127.012 126.599 127.012C123.394 125.598 123.113 124.844 123.113 124.844C122.736 124.184 123.018 123.429 123.018 123.429C122.924 123.052 123.301 122.77 123.301 122.77C123.584 122.582 124.243 122.581 124.243 122.581C126.41 124.749 129.71 124.465 129.71 124.465C133.669 123.711 135.271 121.451 135.271 121.451C136.214 120.79 136.213 118.528 136.213 118.528C136.213 113.627 134.234 111.837 134.234 111.837C132.067 108.633 127.542 108.821 127.542 108.821C126.789 108.821 126.787 108.444 126.787 108.444C126.316 107.878 126.222 107.313 126.222 107.313C125.94 106.464 126.694 105.616 126.694 105.616C126.882 105.428 127.118 105.357 127.307 105.333ZM82.0887 105.828C81.9118 105.792 81.6405 105.899 81.2634 106.464C81.2634 106.464 80.4153 107.926 79.8502 109.245C79.8502 109.245 79.2369 110.894 77.399 112.59C77.399 112.59 75.7971 114.241 75.5616 115.136C75.5616 115.136 75.1844 116.172 75.8909 117.162C75.8909 117.162 76.8332 118.529 77.8706 118.67C77.8706 118.67 78.672 118.764 79.2378 118.01C79.2378 118.01 80.8875 116.361 81.4533 116.502C81.4533 116.502 81.8763 116.501 82.3949 117.067C82.3949 117.067 84.5629 119.942 86.8718 119.707C86.8718 119.707 87.8608 119.802 88.7092 118.953C88.7092 118.953 89.841 117.915 90.1713 117.68C90.1713 117.68 91.302 117.067 90.5479 116.219C90.5479 116.219 87.3428 112.638 85.9287 106.511C85.9287 106.511 85.7886 105.992 85.506 106.181C85.506 106.181 84.8922 106.417 84.2322 106.888C84.2322 106.888 83.5263 107.406 83.0548 107.029C83.0548 107.029 82.7531 106.974 82.6306 106.605C82.3952 105.898 82.3489 106.04 82.3489 106.04C82.3489 106.04 82.2655 105.863 82.0887 105.828ZM129.615 111.742C132.913 112.779 133.668 114.571 133.857 114.853C134.119 115.246 134.234 115.89 134.234 115.89C134.423 117.304 134.234 119.283 134.234 119.283C134.14 120.697 132.913 121.356 132.913 121.356C128.484 123.995 126.599 121.827 126.599 121.827C129.143 119.848 129.898 117.68 129.898 117.68C130.841 115.418 129.615 111.742 129.615 111.742ZM57.4408 114.244C58.2071 114.235 58.9685 114.284 59.6749 114.416C59.6751 114.417 59.6793 114.429 59.6793 114.429C60.3863 116.314 63.9219 120.178 63.9219 120.178C64.5341 120.744 63.827 123.054 63.827 123.054C62.3163 128.749 62.8494 135.09 63.4791 139.128C60.1209 138.723 50.5983 137.776 45.623 139.554C45.623 139.554 37.066 141.983 36.603 148.609C36.603 148.609 32.8175 142.469 39.6035 134.049C39.6035 134.049 45.3493 126.374 59.6788 122.924C59.6788 122.924 58.5598 122.62 56.2773 123.02C56.2773 123.02 49.3156 123.96 39.6203 121.379C39.6203 121.379 42.4 123.896 48.7795 124.69C48.7795 124.69 45.7999 126.568 44.5038 127.389C44.5038 127.389 35.4566 126.006 30.9318 121.231C30.9318 121.231 35.0782 120.854 42.367 118.467C42.367 118.467 48.9026 115.827 51.2906 115.199C51.2906 115.199 54.3998 114.28 57.4395 114.244L57.4408 114.244ZM26.9881 114.686C27.8219 114.677 28.6994 114.842 29.5946 115.26C29.5946 115.26 31.049 116.144 31.4031 116.498C31.4031 116.498 33.1027 115.719 35.1152 116.215C35.1152 116.215 36.7122 116.287 38.1056 117.881C38.1056 117.881 30.3943 120.179 27.2888 119.471C27.2888 119.471 31.7827 125.047 37.6558 127.936C39.0157 128.616 40.4352 129.144 41.8668 129.4C41.8668 129.4 38.2352 132.32 34.9085 138.225C34.7684 138.474 34.8555 138.323 34.5893 138.444C33.8101 138.797 32.5122 139.192 31.0799 140.107C31.0799 140.107 30.4432 140.637 29.6998 140.425C29.6998 140.425 25.878 139.575 25.1351 138.089C25.1351 138.089 24.6032 137.771 24.6032 137.028C24.6032 137.028 24.2847 135.117 25.3465 131.931C25.3465 131.931 23.6478 132.355 22.4798 134.585C22.4798 134.585 20.4617 135.01 20.0372 132.992C20.0372 132.992 19.5064 131.187 20.7805 129.913C20.7805 129.913 23.2234 128.426 24.1791 126.516C24.1791 126.516 20.2495 123.967 19.8244 121.95C19.8244 121.95 19.0828 120.569 20.5691 118.02C20.5691 118.02 23.3749 114.726 26.9881 114.686ZM172.491 115.276C176.052 115.223 178.716 118.728 178.716 118.728C180.203 121.276 179.459 122.657 179.459 122.657C179.034 124.674 175.106 127.223 175.106 127.223C176.061 129.134 178.503 130.622 178.503 130.622C179.777 131.896 179.246 133.701 179.246 133.701C178.821 135.719 176.803 135.293 176.803 135.293C175.636 133.063 173.937 132.639 173.937 132.639C174.999 135.824 174.68 137.735 174.68 137.735C174.68 138.478 174.15 138.798 174.15 138.798C173.406 140.284 169.584 141.134 169.584 141.134C168.84 141.346 168.203 140.815 168.203 140.815C160.558 135.93 157.055 137.098 157.055 137.098C152.382 136.886 140.064 141.239 140.064 141.239C138.654 141.768 127.345 145.086 123.404 146.269L123.552 145.911C123.685 145.725 123.917 144.782 124.115 143.885C124.115 143.883 124.115 143.883 124.116 143.881C124.344 142.92 124.477 142.139 124.477 142.139C124.531 141.76 124.524 141.367 124.494 140.971C124.424 139.553 124.03 138.638 124.03 138.638C143.975 131.71 153.656 126.16 153.656 126.16C159.495 122.338 159.815 120.533 159.815 120.533C162.788 116.392 164.168 116.923 164.168 116.923C166.929 115.968 170.433 119.684 170.433 119.684C170.009 117.56 169.477 116.817 169.477 116.817C169.159 116.286 169.903 115.967 169.903 115.967C170.799 115.49 171.669 115.288 172.491 115.276ZM170.088 124.283C170.073 124.301 170.061 124.386 170.057 124.583C170.057 124.583 169.031 128.231 167.683 129.368C167.683 129.368 166.925 130.357 165.029 130.321C165.029 130.321 166.78 131.631 167.592 131.114C167.592 131.114 168.173 130.839 168.498 130.567C168.498 130.567 169.029 130.163 169.238 129.98C169.238 129.98 169.459 129.796 169.609 129.563C169.609 129.563 169.798 129.358 169.975 128.827C169.975 128.827 170.519 128.078 170.213 124.78C170.213 124.78 170.135 124.227 170.088 124.283ZM30.1873 125.39C30.1873 125.39 29.15 127.316 29.7805 128.042C29.7805 128.042 30.1397 128.575 30.4562 128.857C30.4562 128.857 30.934 129.323 31.1463 129.503C31.1463 129.503 31.3609 129.695 31.6121 129.809C31.6121 129.809 31.8435 129.965 32.3942 130.061C32.3942 130.061 33.2164 130.49 36.4326 129.701C36.4326 129.701 37.3842 129.419 36.6037 129.517C36.6037 129.517 32.8452 129.04 31.5215 127.874C31.5215 127.874 30.431 127.27 30.1873 125.39ZM81.4765 127.512C84.9764 127.554 86.8519 127.891 86.8519 127.891C86.8519 129.776 86.2236 131.849 86.2236 131.849C86.098 132.226 85.6586 132.164 85.6586 132.164C84.2137 132.101 80.4428 131.912 80.4428 131.912C80.1596 131.85 80.1279 131.411 80.1279 131.411C79.8768 129.777 79.8778 127.513 79.8778 127.513C80.4433 127.505 80.9764 127.506 81.4765 127.512ZM87.9489 127.996C92.4671 128.219 95.074 128.801 95.074 128.801C94.9547 130.682 94.197 132.712 94.197 132.712C94.0476 133.08 93.6133 132.989 93.6133 132.989C92.1754 132.835 88.235 132.421 88.235 132.421C87.9512 132.384 87.9532 131.899 87.9532 131.899C87.8061 130.254 87.9489 127.996 87.9489 127.996ZM96.3403 128.896C101.053 129.525 102.929 130.434 102.929 130.434C102.625 132.1 101.862 133.592 101.862 133.592C101.714 133.96 101.279 133.869 101.279 133.869C99.8401 133.715 96.4654 133.301 96.4654 133.301C96.093 133.215 96.1836 132.779 96.1836 132.779C96.1509 131.001 96.3403 128.896 96.3403 128.896ZM74.7626 133.334C76.4237 133.334 78.5264 133.546 78.5264 133.546C78.7148 133.608 78.6846 133.922 78.6846 133.922C78.8416 134.739 78.6213 136.97 78.6213 136.97C78.5585 137.285 78.3697 137.253 78.3697 137.253C77.0504 137.002 72.9037 136.688 72.9037 136.688C72.5891 136.752 72.6837 136.342 72.6837 136.342C72.5261 135.053 72.9339 133.734 72.9339 133.734C72.9967 133.357 73.3436 133.42 73.3436 133.42C73.705 133.358 74.2089 133.334 74.7626 133.334ZM80.7577 133.609C80.7577 133.609 84.3062 133.641 85.2173 133.86C85.2173 133.86 85.5327 133.86 85.5954 134.3C85.5954 134.3 85.9999 136.179 86.1978 138.562C84.6201 138.31 82.4843 137.975 79.688 137.505C79.688 137.505 80.0651 134.928 80.3163 134.049C80.3163 134.049 80.3489 133.609 80.7577 133.609ZM88.36 134.237C88.36 134.237 92.3185 134.425 93.0727 134.677C93.0727 134.677 93.3238 134.614 93.4494 135.054C93.4494 135.054 93.7517 136.588 93.9411 139.73C92.368 139.536 90.5949 139.289 88.3916 138.918C88.3916 138.918 87.3162 138.743 87.125 138.713C87.1588 138.528 87.6194 136.01 87.9833 134.677C87.9833 134.677 88.046 134.363 88.36 134.237ZM96.4039 135.242C96.4039 135.242 100.173 135.745 101.115 136.06C101.115 136.06 101.43 136.122 101.493 136.499C101.493 136.499 101.964 138.808 102.09 140.065C102.09 140.065 100.699 140.504 94.9921 139.863C95.0432 139.614 95.5454 137.174 95.964 135.62C95.964 135.62 96.0272 135.305 96.4039 135.242ZM109.605 142.587C109.484 142.575 109.269 142.625 108.908 142.783C108.908 142.783 105.64 144.165 104.698 144.606C104.698 144.606 103.691 145.422 101.115 144.982C101.115 144.982 95.4614 143.976 92.4451 143.662C92.4451 143.662 91.5021 143.726 92.3818 144.102C92.3818 144.102 99.5454 146.616 100.739 147.119C100.739 147.119 102.939 148.062 104.509 147.434C104.509 147.434 107.399 145.422 109.473 143.223C109.473 143.223 109.967 142.622 109.605 142.587ZM117.62 153.586L146.504 162.652C153.513 164.634 157.76 165.131 157.76 165.131C163.989 165.696 167.671 162.794 167.671 162.794C168.308 162.158 168.875 162.652 168.875 162.652C172.556 164.705 173.547 168.245 173.547 168.245C174.68 168.174 176.661 168.528 176.661 168.528C178.997 168.669 180.13 171.643 180.13 171.643C181.476 174.97 180.058 177.236 180.058 177.236C179.067 179.218 174.113 179.359 174.113 179.359C173.688 181.129 174.042 182.12 174.042 182.12C174.254 185.73 173.121 186.579 173.121 186.579C172.343 187.641 170.502 186.934 170.502 186.934C170.643 184.952 169.652 183.252 169.652 183.252C169.369 186.084 167.599 187.358 167.599 187.358C167.033 188.137 165.901 187.925 165.901 187.925C163.07 187.783 160.167 186.792 160.167 186.792C159.6 186.438 157.902 182.545 157.902 182.545C156.84 179.147 154.929 176.527 154.929 176.527C153.796 174.828 148.133 172.421 148.133 172.421C143.658 170.288 123.796 163.16 113.51 159.503C113.348 155.423 116.487 153.975 117.62 153.586ZM67.5994 157.684C68.8886 158.24 70.9865 158.02 70.9865 158.02C70.9865 158.02 72.2912 157.976 73.5125 157.937C74.7712 158.151 77.882 158.935 79.2373 161.633C68.5809 165.327 54.7167 170.214 51.0444 171.917C51.0444 171.917 45.3558 174.264 44.2054 175.951C44.2054 175.951 42.2666 178.55 41.169 181.936C41.169 181.936 39.4289 185.811 38.8587 186.159C38.8587 186.159 35.9469 187.119 33.1137 187.231C33.1137 187.231 31.9784 187.432 31.4201 186.647C31.4201 186.647 29.6654 185.354 29.4117 182.52C29.4117 182.52 28.4027 184.208 28.5233 186.192C28.5233 186.192 26.6755 186.881 25.9082 185.811C25.9082 185.811 24.785 184.948 25.0355 181.341C25.0355 181.341 25.3995 180.354 24.9938 178.579C24.9938 178.579 20.0393 178.385 19.0692 176.392C19.0692 176.392 17.6776 174.114 19.0577 170.801C19.0577 170.801 20.2213 167.84 22.5585 167.723C22.5585 167.723 24.5447 167.389 25.6768 167.472C25.6768 167.472 26.7059 163.943 30.4081 161.929C30.4081 161.929 30.9788 161.44 31.6086 162.083C31.6086 162.083 35.2594 165.026 41.4943 164.524C41.4943 164.524 45.7473 164.074 52.7755 162.165L67.5994 157.684ZM27.314 171.859C27.2147 171.838 27.6044 172.519 27.6044 172.519C30.1117 176.439 31.3841 176.736 31.3841 176.736C31.5229 176.818 32.0382 176.969 32.0382 176.969C32.8985 177.204 33.0633 177.223 33.0633 177.223C34.3392 177.43 34.9079 177.43 34.9079 177.43C35.343 177.455 35.9804 177.279 35.9804 177.279C37.3267 177.152 38.1354 174.187 38.1354 174.187C36.0645 175.864 34.3716 175.422 34.3716 175.422C31.8944 175.325 27.6088 172.166 27.6088 172.166C27.4341 171.951 27.3471 171.866 27.314 171.859ZM171.867 172.614C171.834 172.621 171.745 172.705 171.568 172.917C171.568 172.917 167.25 176.033 164.772 176.103C164.772 176.103 163.072 176.529 161.02 174.83C161.02 174.83 161.798 177.802 163.143 177.944C163.143 177.944 164.024 178.148 164.62 178.133C164.62 178.133 165.558 178.155 165.948 178.136C165.948 178.136 166.351 178.128 166.72 178.004C166.72 178.004 167.107 177.942 167.765 177.512C167.765 177.512 169.019 177.166 171.568 173.273C171.568 173.273 171.966 172.594 171.867 172.614Z" fill="black"/>
<path d="M28.4446 113.745C28.4446 113.745 23.6861 107.644 25.2095 98.5036C25.2095 98.5036 25.3997 92.8002 30.7289 86.1346C30.7289 86.1346 39.2191 77.0655 39.9815 75.9223C39.9815 75.9223 44.3168 71.3981 44.5051 62.1611C44.5051 62.1611 44.8825 44.4425 45.6366 40.2947C45.6366 40.2947 46.3047 27.5641 56.5694 20.5013C56.5694 20.5013 61.1965 17.0176 67.503 15.412C67.503 15.412 68.4323 21.0162 71.4621 25.2112C71.4621 25.2112 74.716 30.7262 80.6185 29.5771C80.6185 29.5771 86.1404 29.0126 88.0487 21.2521C88.0487 21.2521 89.5225 16.6268 89.2148 11.4272C89.2148 11.4272 115.219 10.6272 133.3 35.1688C133.3 35.1688 138.971 43.3701 144.743 53.8166C144.743 53.8166 149.992 63.4437 158.874 71.4772C158.874 71.4772 169.804 81.3021 174.411 87.1485C174.411 87.1485 176.647 89.841 178.293 92.602L178.404 92.7966C181.049 97.2159 184.767 105.848 184.086 118.757L180.316 120.286" stroke="black" stroke-width="2.30837" stroke-miterlimit="10"/>
<path d="M177.354 115.93C177.133 105.249 173.998 99.3898 173.998 99.3898C169.743 89.0772 155.658 77.5142 155.658 77.5142C145.563 68.4125 138.128 55.1436 138.128 55.1436C135.316 49.9129 128.598 39.5882 128.598 39.5882C114.361 20.2558 95.6599 18.5361 95.6599 18.5361C94.1704 28.2276 89.5671 32.6267 89.5671 32.6267C81.951 39.2908 73.9611 35.6733 73.9611 35.6733C66.372 32.4678 63.286 24.252 63.286 24.252C51.4865 29.0085 51.6779 45.7651 51.6779 45.7651C51.6779 45.7651 50.861 54.136 51.1052 60.2366C51.6766 74.5176 43.8697 81.5619 43.8697 81.5619C41.9652 83.6567 37.9665 87.8455 37.9665 87.8455C31.2622 95.6783 31.7074 100.603 31.7074 100.603C30.979 108.846 37.24 114.508 37.24 114.508" stroke="black" stroke-width="5.77011" stroke-miterlimit="10"/>
<path d="M115.902 39.4893L107.967 40.3932L110.293 42.8171L109.145 55.5477C108.975 57.4792 107.378 59.1833 105.575 59.3879C105.45 59.4034 105.317 59.4107 105.192 59.4107C103.521 59.4107 102.299 58.138 102.468 56.3096L103.617 43.579L106.436 40.5676L95.9541 41.7608L98.2875 44.1848L97.1392 56.9169C96.8006 60.6643 99.8553 62.322 103.396 62.322C103.838 62.322 104.294 62.2955 104.75 62.2432C108.107 61.8604 111.596 58.9153 111.927 55.2312L113.075 42.5013L115.902 39.4893ZM91.2063 41.939C90.5585 41.939 89.8666 41.9964 89.079 42.0854C83.6562 42.7038 78.9144 48.376 78.3888 54.2051C77.8927 59.7015 81.4885 64.1637 86.2215 64.1637C86.5086 64.1637 86.7993 64.1475 87.0945 64.1136C89.5354 63.8354 91.3388 63.418 93.628 61.8119L94.1874 55.6611L90.2494 59.8252C89.3587 60.8115 88.4828 61.3371 87.333 61.4681C87.1792 61.4858 87.0327 61.4939 86.8928 61.4939C83.7034 61.4939 84.0729 57.0494 84.3916 53.5206C84.7236 49.8372 85.2138 45.1446 88.8435 44.7309C88.998 44.7133 89.1452 44.7052 89.2851 44.7052C90.1611 44.7052 90.6984 45.06 91.3388 45.7217L94.5923 49.1026L95.1444 42.9511C93.7532 42.1951 92.5828 41.939 91.2063 41.939ZM79.791 43.604L62.5217 45.5701L64.8536 47.994L63.4403 63.6594L60.6167 66.67L79.0159 64.5737C79.0159 64.5737 77.0484 62.8328 76.1423 60.3927L74.121 62.5479L68.7542 63.1589L69.4196 55.7921L72.5045 55.4417L74.8033 57.8686L75.5298 49.8217L72.7445 52.7948L69.6581 53.1459L70.1873 47.2815L74.7989 46.7552L76.5692 48.5969C77.9604 45.4251 79.791 43.604 79.791 43.604Z" fill="#FFD615"/>
</svg>
