<svg width="200" height="200" viewBox="0 0 200 200" fill="none" xmlns="http://www.w3.org/2000/svg">
<path d="M107.466 177.354C107.316 177.291 92.2667 170.986 73.1891 164.768C56.7502 159.408 30.2289 155.797 22.3313 154.801L17.6633 154.296L28.3518 140.192C27.6639 138.973 24.804 139.366 19.8803 141.317C13.2535 143.943 2.43899 145.412 0 144.474V144.35C0 144.35 14.2603 137.671 22.7086 127.22C27.2572 121.593 23.819 119.905 23.4746 119.687C23.2698 119.556 22.4948 119.395 22.0267 119.395C21.9696 119.395 21.9134 119.398 21.8579 119.401C21.4662 119.479 21.0776 119.55 20.6913 119.621L20.6815 119.622C11.0666 121.598 3.78414 120.536 2.87712 119.942L6.81581 118.16C12.0359 115.722 17.2912 113.038 21.7296 110.184L17.0242 104.504H29.4644C37.197 97.9655 39.1506 93.1003 39.1206 91.9127C39.0651 91.9059 39.0433 91.6853 38.6997 91.6546C36.3177 91.4415 27.0382 96.2115 23.8182 97.868L25.7275 94.8738C37.0094 80.5512 58.3924 65.8033 71.3638 59.2703C65.0814 59.3018 59.1111 62.3027 49.0146 69.3038L50.1399 67.1477C50.5773 66.1476 59.4495 51.6322 83.3225 48.1249C93.9847 46.56 98.7306 44.4998 102.197 42.9964C103.825 42.2889 105.245 41.6737 106.837 41.3204C108.354 40.3728 109.823 39.4606 110.983 38.7508C126.268 29.4008 149.922 22.3501 166.005 22.3501C171.865 22.3501 176.591 23.2466 180.051 25.0172L184.214 27.1456L179.59 27.8365C179.402 27.865 160.572 30.7339 145.693 37.7058C145.621 37.741 143.762 38.6848 143.665 38.7328C139.75 40.6872 135.854 42.7788 132.091 44.947L131.857 45.082C131.356 45.3716 130.858 45.6634 130.362 45.956L129.854 46.2546L128.497 47.0716C115.534 56.1088 103.252 67.4553 105.114 70.82C105.37 71.2829 106.391 71.6325 107.702 71.664C109.766 71.7136 111.969 70.8358 113.901 69.9535C116.076 68.961 118.171 67.6818 120.221 66.5227C118.288 65.9833 116.349 65.1776 114.81 63.9074L112.25 61.7708L115.685 61.2494C115.867 61.2261 116.61 61.1234 119.408 60.677C119.426 60.6717 119.727 60.629 119.727 60.629L123.844 59.8877C124.443 59.7302 126.845 59.088 129.938 58.1427C135.533 56.2326 139.826 54.4606 143.275 53.0374C148.005 51.0846 151.129 49.7949 153.797 49.7949C154.378 49.7949 154.923 49.8542 155.451 49.975C155.695 49.8767 156.073 49.7162 156.466 49.5473C157.304 49.1888 158.514 48.6703 160.211 47.9884C164.412 46.3019 168.484 45.4466 172.317 45.4466C172.692 45.4466 173.069 45.4601 173.445 45.4714C181.268 45.7047 184.363 48.8931 184.363 48.8931C184.363 48.8931 175.256 50.0793 171.097 51.8633L171.021 51.8963C167.795 53.282 165.01 54.4786 161.745 56.6753C160.347 57.616 159.221 58.4691 158.324 59.2133C158.506 59.1795 158.684 59.148 158.854 59.1172C159.939 58.9289 161.339 58.8434 163.016 58.8329C170.906 58.7856 175.243 60.8765 175.408 60.896C175.408 60.896 160.984 65.0793 158.57 66.0351L157.844 66.3202C155.021 67.4328 151.865 68.6736 148.032 70.6407L148.038 70.6482L146.426 71.514C143.612 72.9807 138.094 76.2269 136.466 77.2652C136.355 77.3313 129.88 81.1454 123.971 85.6198L123.987 85.6438C123.977 85.652 122.94 86.4675 121.579 87.7039L121.306 87.403L121.561 87.7219L121.014 87.0857L121.55 87.7294L121.32 87.9417C119.489 89.7505 117.566 93.825 118.243 95.1056C118.65 95.8776 120.09 96.3015 122.3 96.3015C131.343 96.3007 148.75 89.4204 150.928 88.5464C152.672 87.7114 154.388 86.8591 156.03 86.0121L157.872 85.0623L157.876 85.0878C160.702 83.5986 163.504 82.0442 166.227 80.4552C166.355 80.3794 168.223 79.3036 168.223 79.3036C182.186 70.6842 194.889 56.5065 195.015 56.3647L198.127 52.8724L197.628 57.523C196.334 69.5612 181.749 84.6745 168.433 94.8866C167.571 96.432 166.517 97.6159 165.201 99.0931C163.985 100.458 162.537 102.083 160.814 104.504H200L190.077 118.333L190.021 144.999L194.493 152.326L193.321 153.041L193.321 153.049L194.498 152.332L195.772 154.421L191.501 154.858C184.578 155.8 150.766 160.552 136.257 165.217C120 170.443 108.934 177.182 108.822 177.249L108.169 177.652L107.457 177.353" fill="white"/>
<path d="M166.003 23.6877C149.539 23.788 126.497 31.064 112.108 39.8662C107.963 42.4038 99.8447 47.5366 99.7361 47.6092C99.637 47.6878 99.5374 47.7682 99.4348 47.8523C85.8701 59.1417 62.1185 83.8367 67.2278 93.4102C70.3038 99.2038 81.9305 96.6566 91.7146 92.8557C97.0208 90.674 99.3225 89.6393 100.298 89.1748C99.0591 89.8542 95.9927 91.7033 89.8571 96.2959C86.1774 99.2278 82.7185 102.572 80.4366 105.841H20.5583L30.0112 117.25L30.01 140.819L20.4629 153.138L22.7658 153.139C29.6529 154.006 57.1556 157.687 73.9985 163.18C93.3645 169.492 108.393 175.81 108.393 175.81C108.393 175.81 119.507 168.977 136.153 163.627C151.664 158.641 186.89 153.85 191.797 153.196L193.711 153.197L193.562 152.952L193.607 152.946H193.557L188.865 145.258L188.924 117.687L197.422 105.844H148.261C168.547 96.1332 194.828 72.5989 196.484 57.2049C196.484 57.2049 183.671 71.5888 169.331 80.4415C169.275 80.4745 167.531 81.4756 167.332 81.5933C147.191 93.346 120.604 104.546 115.901 96.2779C115.314 95.2462 115.079 93.5705 115.245 91.7201C120.691 84.8336 136.009 75.8429 136.009 75.8429C137.713 74.7572 143.223 71.5162 146.081 70.0266C146.075 70.0206 146.072 70.014 146.066 70.0092C151.062 67.3077 154.898 65.8517 158.368 64.4821C160.881 63.4876 170.977 60.6457 170.977 60.6457C170.977 60.6457 163.441 59.7467 159.463 60.4381C157.367 60.8066 154.206 61.5046 154.206 61.5046C154.206 61.5046 155.646 59.0492 161.258 55.2735C164.666 52.9808 167.593 51.7294 170.855 50.328C175.308 48.417 180.234 48.0383 180.234 48.0383C180.234 48.0383 178.806 47.0414 173.728 46.8121C169.331 46.6171 165.009 47.6608 161.12 49.2225C157.363 50.7331 156.012 51.4335 155.808 51.3723C151.553 50.0963 145.913 54.237 130.726 59.4202C127.127 60.5191 124.446 61.2159 124.446 61.2159C125.417 61.7068 128.084 62.328 129.956 62.3869C130.049 62.5009 130.138 62.6167 130.23 62.732C124.537 65.482 106.045 78.3625 102.894 72.2226C98.5537 63.7583 122.484 47.6428 143.349 37.2302C143.556 37.1282 145.349 36.2129 145.404 36.1883C160.667 29.0378 179.717 26.1947 179.717 26.1947C176.254 24.4242 171.498 23.6607 166.009 23.6943L166.003 23.6877Z" fill="#73000A"/>
<path d="M133 42.6971C117.341 50.314 90.7258 67.3628 95.2452 75.4352C98.7808 81.736 115.93 70.6488 115.93 70.6488C115.93 70.6488 102.987 77.2142 100.255 72.693C97.2822 67.7763 112.641 54.2482 133.023 42.717L133 42.6971ZM99.9902 47.423C69.2591 67.5315 51.7392 90.1331 51.4511 105.843H79.003C87.2543 97.4451 102.677 88.0853 106.771 85.741L106.749 85.7164C100.512 88.8949 67.7262 104.501 63.2093 96.1451C58.0063 86.5236 84.0974 58.1926 99.9902 47.423ZM151.638 56.4383C149.293 57.8697 145.333 57.6447 144.763 57.5972C143.407 58.0936 142.132 58.5221 140.926 58.7778C140.926 58.7778 147.094 59.8113 150.072 58.2562L151.638 56.4383ZM120.177 61.9648C120.114 61.9756 120.057 61.981 119.988 61.9954C116.229 62.5944 116.107 62.5866 116.107 62.5866C118.357 64.4429 122.18 65.318 124.618 65.6691C125.608 65.1733 126.623 64.5786 127.722 64.0384C127.97 63.9226 127.95 63.9484 127.954 63.9238C127.875 63.9148 127.791 63.9076 127.707 63.8956C125.071 63.6405 121.912 63.1045 120.182 61.9708L120.178 61.9648H120.177ZM123.403 84.2999C123.403 84.2999 105.66 94.4616 108.997 100.872C113.276 109.072 142.113 96.1403 157.065 87.2114L157.059 87.182C136.25 97.9174 116.52 103.363 114.032 98.1779C111.747 93.4167 123.403 84.2993 123.403 84.2993V84.2999ZM47.0752 153.006C47.0752 153.006 69.5088 155.511 82.5939 159.622C95.6773 163.733 108.198 169.478 108.198 169.478C108.198 169.478 117.77 163.907 129.744 159.622C141.717 155.337 164.701 153.041 164.701 153.041L47.0752 153.006V153.006Z" fill="black"/>
<path d="M108.502 42.4569C103.343 43.1729 100.887 47.0206 83.9447 49.452C63.4545 52.3923 52.4201 65.9588 52.4201 65.9588C66.2987 54.9244 73.4781 58.9391 82.6177 55.6579C68.5326 61.5174 46.6446 73.1117 27.3818 95.0292C27.3818 95.0292 39.2522 88.0539 40.8336 90.9071C41.8167 92.6741 38.9251 98.7725 30.4145 105.847H46.2929C49.6833 87.953 71.3925 60.9383 106.363 43.5564C104.125 44.731 101.554 46.3965 98.807 48.3903C99.1167 48.1292 99.4474 47.8399 99.7469 47.592C99.2655 47.9227 98.8016 48.2564 98.3238 48.5787C82.344 59.9798 57.4269 86.7407 62.5722 96.0297C65.731 101.737 80.4078 97.0758 91.9199 92.3338C82.1363 96.1347 70.2996 99.2028 67.2236 93.4087C62.2649 84.1191 84.435 60.6472 98.1552 48.9418C101.879 46.4613 105.407 44.2514 108.501 42.4545L108.502 42.4569ZM128.186 45.5304L124.869 47.5602C108.672 57.7519 97.7116 68.3295 100.144 72.7252C101.696 75.5239 108.055 74.3187 113.163 71.8562C111.174 72.8153 105.493 73.8308 104.14 71.3826C100.417 64.6552 128.186 45.5304 128.186 45.5304ZM124.437 61.2035L120.178 61.97C121.965 63.1343 125.275 63.6745 127.951 63.923C129.225 63.279 130.54 62.6086 131.868 61.931C129.134 61.946 125.681 61.8277 124.437 61.2035ZM120.96 86.3866C116.535 89.9312 112.449 95.4205 113.945 98.2522C116.288 102.693 131.142 99.3163 148.541 91.3447L152.054 89.681C152.054 89.681 120.843 102.441 117.255 95.6432C115.949 93.171 119.21 87.7898 120.961 86.386L120.96 86.3866ZM167.756 93.4447C163.609 97.122 158.239 101.46 152.28 105.841H158.327C163.04 98.5282 166.004 97.0068 167.756 93.4447ZM93.1383 94.5838C88.2072 97.9599 82.8956 101.958 79.0382 105.841H80.6887C83.5744 101.958 88.4316 97.9497 93.1383 94.5838ZM123.23 108.555C112.441 108.555 100.975 115.795 100.975 129.211V129.864C100.975 143.281 112.441 150.521 123.23 150.521C134.019 150.521 145.487 143.281 145.487 129.864V129.211C145.487 115.795 134.019 108.555 123.23 108.555ZM29.7249 109.097L28.009 109.12L34.0702 116.468V142.608L28.009 149.959L29.7249 149.978H65.4975V136.533L65.4867 134.408L58.0577 141.696H47.1217C46.8889 141.696 46.7766 141.649 46.761 141.639C46.7454 141.618 46.6998 141.505 46.6998 141.272V133.3H51.964L58.2353 137.909L58.2551 136.398V121.952L58.2503 120.479L51.9676 125.017H46.6998V117.382H58.1753L64.6272 124.418V122V109.099H29.7243L29.7249 109.097ZM143.131 109.097L141.383 109.12L147.476 116.468V142.608L141.384 149.944L143.131 149.978H160.65L162.453 150.006L156.303 142.609V122.551L177.318 149.978H185.205V116.468L191.335 109.12L189.551 109.098H172.251L170.579 109.12L176.596 116.468V128.262L161.938 109.097H143.131ZM65.4705 109.143L71.5875 116.514V142.654L65.5407 150.029L67.2428 150.024H101.04V136.58L101.026 134.501L93.5992 141.74H84.2178V116.515L90.3438 109.144L88.5643 109.145H67.2422L65.4699 109.144L65.4705 109.143ZM24.2938 110.345C19.8291 113.34 14.368 116.381 7.78465 119.239C7.78465 119.239 13.7348 119.228 20.787 117.951L20.7846 117.953C20.7846 117.953 20.7924 117.951 20.7996 117.948C21.2161 117.846 21.1525 117.868 21.5672 117.787C24.5915 117.412 29.8449 120.407 23.9115 127.968C21.9741 130.437 21.2863 131.22 17.2855 134.471C10.9554 139.62 3 143.857 3 143.857C3 143.857 14.3458 142.294 21.2227 139.418C26.3567 137.272 28.8498 138.011 30.0376 139.324V117.226L24.2926 110.354L24.2938 110.345ZM123.23 116.839C128.402 116.839 131.878 121.769 131.878 129.106V129.974C131.878 137.309 128.402 142.24 123.23 142.24C118.059 142.24 114.586 137.31 114.586 129.974V129.106C114.586 121.769 118.059 116.839 123.23 116.839ZM70.0217 152.945C70.0217 152.945 84.0011 154.682 92.253 157.276C100.507 159.871 108.502 163.887 108.502 163.887C108.502 163.887 114.443 159.98 121.997 157.276C129.549 154.573 144.047 152.945 144.047 152.945H70.0235H70.0217Z" fill="#B59757"/>
<path d="M154.407 53.183C154.407 53.183 148.253 56.4864 144.751 57.5914C144.751 57.5914 149.095 58.0115 151.62 56.4462L154.407 53.183ZM123.226 109.979C112.682 109.979 102.396 116.986 102.396 129.21V129.863C102.396 142.086 112.682 149.094 123.226 149.094C133.822 149.094 144.058 142.086 144.058 129.863V129.21C144.058 116.986 133.822 109.979 123.226 109.979ZM31.1436 110.522V110.686L35.4889 115.955V143.118L31.1436 148.387V148.551H64.0653V137.957H63.9021L58.6319 143.118H47.1156C45.92 143.118 45.2682 142.465 45.2682 141.271V131.873H52.4224L56.6609 134.973H56.8235V123.375H56.6609L52.4224 126.441H45.2682V115.955H58.7951L63.0342 120.573H63.1957V110.523L31.1436 110.522ZM144.55 110.522V110.686L148.896 115.955V143.118L144.55 148.387V148.551H159.219V148.387L154.872 143.118V118.345L178.015 148.551H183.774V115.955L188.119 110.686V110.523H173.67V110.686L178.015 115.955V132.471L161.228 110.523H144.549L144.55 110.522ZM68.6657 110.569V110.731L73.011 116.002V143.165L68.6657 148.434V148.598H99.6123V138.004H99.449L94.1776 143.165H82.7898V116.002L87.1363 110.732V110.569H68.6657ZM123.227 115.41C129.33 115.41 133.299 121.007 133.299 129.103V129.97C133.299 138.012 129.329 143.661 123.227 143.661C117.125 143.661 113.157 138.011 113.157 129.97V129.103C113.157 121.007 117.125 115.41 123.227 115.41Z" fill="white"/>
</svg>
