<svg width="201" height="201" viewBox="0 0 201 201" fill="none" xmlns="http://www.w3.org/2000/svg">
<g clip-path="url(#clip0_15016_304162)">
<path fill-rule="evenodd" clip-rule="evenodd" d="M122.603 25.7245C121.735 25.7012 120.816 25.6994 119.833 25.7299C111.432 26.726 105.421 28.2274 100.313 32.7369C97.8783 32.4001 95.8054 32.1367 92.7991 31.8357H89.4918C85.5556 31.9468 84.4985 31.5061 79.568 32.2012C71.4627 33.3389 66.6092 36.1517 61.5479 39.296C57.5974 41.7613 55.7879 44.0886 53.0055 47.8367C34.4981 78.4196 2.79184 98.3728 0.222656 144.374L0.235198 153.246C0.717142 158.838 2.11102 167.9 3.76647 170.933C9.14849 174.488 17.467 172.856 22.3581 173.945C23.9867 174.309 25.2085 175.755 26.8801 175.957C30.6658 176.416 33.9463 173.999 36.9275 175.455C39.4752 175.423 39.9034 176.686 43.9614 175.957C48.3222 174.067 53.1255 173.983 58.5344 174.952C63.3413 175.239 67.2309 174.606 71.5971 174.452C76.8089 172.879 81.7323 172.397 84.1563 168.921C91.0558 159.037 76.4649 150.672 77.1224 140.789C76.2893 139.094 76.2893 133.938 77.1224 132.243C77.6241 124.704 81.1733 120.22 85.1596 116.167C92.8654 121.528 101.198 126.261 107.773 132.749C110.937 135.723 112.043 135.509 113.8 137.271C124.584 144.242 135.32 151.254 149.975 154.355C152.752 154.612 154.716 154.067 157.011 153.85C163.722 151.444 169.427 145.969 167.058 136.266C166.223 135.259 165.238 134.404 165.05 132.747C164.458 126.306 160.21 123.52 157.514 119.182C156.045 117.674 153.058 115.436 153.494 113.654C154.796 112.41 155.955 114.143 158.016 113.654C178.205 109.604 189.898 121.685 198.214 132.747C197.259 129.174 195.871 127.114 193.689 123.704C191.802 121.298 191.413 120.911 189.17 118.679C185.293 115.015 178.039 114.128 173.384 110.249C173.384 110.249 187.732 111.219 192.184 110.137C194.679 109.531 198.762 109.017 200.223 106.62C194.147 109.8 186.567 108.7 178.114 107.625H173.087C167.45 108.021 164.08 109.087 157.514 110.137C155.384 110.627 150.964 112.088 149.472 110.137C140.474 103.391 130.124 98.0037 124.856 87.5299C134.503 75.0692 150.303 68.761 166.057 62.4043C165.634 65.6722 166.886 67.2703 168.065 68.9383C169.174 68.9974 168.163 72.2743 168.455 73.1576C168.617 76.155 168.617 76.1621 168.455 77.805C168.142 79.1667 167.956 80.591 168.065 81.4994C166.603 90.0919 164.041 96.2336 162.034 103.606C163.876 103.936 164.08 103.078 166.019 102.11C168.269 100.507 169.525 98.8709 171.584 97.0739C175.595 91.2243 178.127 83.549 179.619 75.9722C180.028 73.9011 179.933 70.4522 182.133 68.9383C185.341 69.7446 184.467 74.641 184.646 78.4805C185.017 83.4988 184.92 86.8043 184.437 91.4446C184.483 94.2664 184.238 94.9347 183.657 99.0052L183.138 101.089C185.852 100.29 186.956 98.423 188.665 96.0688C191.342 91.7098 193.544 87.5676 194.966 79.7167L194.678 71.8013C194.678 69.096 195.563 66.2975 195.697 63.4094C195.837 60.4926 193.13 56.0871 194.692 54.3671C195.057 51.8803 198.021 51.9968 199.214 50.3449L199.554 48.0248C196.607 41.5051 195.86 32.1869 188.665 30.75C182.303 29.4815 175.099 30.75 175.099 30.75C169.894 32.1941 168.215 31.1621 163.038 30.2484C160.336 29.8685 159.945 29.8685 157.516 29.7467C153.657 29.4153 149.932 29.0283 145.453 29.2433C144.761 29.2665 142.516 28.8437 142.112 28.5768C137.738 27.2564 135.173 26.7242 129.379 26.228C127.35 26.056 125.206 25.7908 122.603 25.7191V25.7245Z" fill="black"/>
<path fill-rule="evenodd" clip-rule="evenodd" d="M144.927 30.2516C140.385 30.2337 138.003 32.3711 132.87 31.7583C133.332 34.8274 138.719 32.6595 140.907 32.7598C142.844 32.9892 147.536 31.2979 144.927 30.2516ZM109.045 30.3913C105.223 30.626 102.052 33.8438 101.717 36.2804C98.2825 35.6963 95.3066 34.6518 91.6714 34.2684H91.6643C88.9715 33.4335 82.8101 33.4335 80.1191 34.2684H80.1137C71.4889 35.0227 65.8632 38.7761 60.5224 42.8126C58.6376 44.2781 56.9624 45.9515 55.4969 47.8345C49.4896 55.7266 40.6193 66.9242 36.5774 75.1065C37.5055 73.6857 42.4002 72.7541 44.9479 72.953C44.7866 74.1354 44.1506 74.8395 44.4426 76.4735C45.4961 77.0916 46.4044 77.8638 47.4561 78.4783C48.8303 78.8474 48.472 77.4822 49.4681 77.475V76.9716C45.4621 76.2316 46.4904 71.62 47.9596 68.9362C47.9148 68.1425 46.6786 68.542 46.9563 67.4294H48.7192C49.1062 67.7931 49.5684 68.0851 49.9716 68.4327H50.9731C51.1486 68.1299 51.2812 67.7842 51.4031 67.4294H53.6712C53.7429 67.7555 53.8468 68.0869 53.9902 68.4327C55.3894 68.8735 57.0484 69.0598 58.0105 69.9377C57.1273 70.3963 57.0914 71.7024 56.502 72.4531H55.9986C55.8911 75.4093 57.835 76.3087 60.0154 76.9716H60.0189C61.2999 76.9142 62.6042 76.8766 62.5308 75.4666C61.4271 73.89 58.5355 74.105 58.514 71.4462C59.0998 70.6973 59.1357 69.393 60.0189 68.9362C60.0781 67.9562 59.3632 67.7483 58.763 67.4294H65.5479C64.4622 68.8555 62.065 68.972 60.5224 69.9377C60.4041 72.0697 61.5615 72.9153 63.0306 73.4546C62.6723 74.8198 65.4045 73.0963 65.0426 74.4615C64.5392 74.4651 64.4138 75.3394 65.0426 75.4666H65.5479C66.6318 77.1543 67.8519 74.8073 69.0612 74.9668C69.3443 75.687 69.846 76.1904 70.568 76.4735H71.0732C73.207 78.7076 75.0739 74.4167 76.0969 75.4666C78.211 75.5687 80.2965 75.6458 80.6172 73.9581C75.2441 75.3573 60.5869 73.8112 69.0612 67.9329C68.642 69.0186 67.7587 69.6439 68.0561 71.4462C70.6468 73.3865 74.2695 72.0518 75.5935 69.9377C75.4394 72.437 76.8422 73.3776 79.6121 72.953C80.7945 72.8007 80.5473 71.2115 82.1257 71.4462C83.0663 73.1429 87.0383 72.5158 87.651 70.9446C89.638 69.8248 88.099 67.9436 89.1578 66.4225C91.6786 68.9308 97.7522 67.3237 98.7035 63.9107C97.3706 62.5508 94.5667 65.9065 92.6747 63.9107C93.7802 62.0026 97.4942 62.6978 98.7035 60.8972C99.2428 59.0178 97.4548 59.4639 97.6966 57.8801C98.6964 56.9879 102.054 56.0132 102.22 58.3818H102.217C102.728 60.7341 100.205 60.0551 100.714 62.4057C101.466 62.3197 102.568 62.5831 102.726 61.9023C107.943 58.8171 104.107 53.6967 100.212 53.8633C94.2102 54.1177 79.2734 75.0832 69.0612 64.914C68.9269 62.7694 70.8994 62.7318 71.5767 61.4006C69.8406 60.9581 68.0938 60.5263 67.0546 59.3886C66.9238 57.7511 67.6494 56.97 69.0612 56.8732C69.0576 57.8747 67.6906 57.52 68.0561 58.8888C69.5271 58.758 69.6041 60.0247 71.0732 59.8921H74.5902C73.5869 61.4006 72.7036 63.031 71.0732 63.9107V64.914C84.4638 65.903 91.3866 56.0992 99.2088 49.8429C101.592 47.8775 103.774 45.7007 105.737 43.3143C110.238 39.0359 117.431 41.0461 124.831 41.3041C131.121 35.1749 141.991 43.0885 147.941 41.3041C143.202 40.0141 139.307 37.8785 134.375 36.7802C133.104 35.8719 128.484 35.8952 127.842 37.2837C125.578 38.3676 122.973 39.1075 119.307 38.7922H119.302C118.266 37.9609 113.812 37.9609 112.775 38.7922H112.771C109.217 38.5951 106.687 42.0762 104.734 41.8093C106.264 38.3156 110.378 37.4037 114.78 36.7802H114.783C117.207 37.1744 121.011 36.3377 119.307 34.272V33.7685C119.307 33.7667 119.302 33.7649 119.302 33.7649C118.429 31.3534 113.961 29.2519 112.771 32.7598C111.639 35.1463 109.353 36.3771 105.737 36.2804C105.592 35.6873 103.716 34.3795 105.238 33.7685C105.797 34.7611 109.391 35.6013 109.758 33.7685C110.899 33.231 111.583 32.2421 111.768 30.7514C110.844 30.4415 109.926 30.3376 109.045 30.3913ZM159.617 32.7383C157.734 32.7813 155.688 33.7004 154.975 34.7682C153.701 35.3398 153.516 36.997 153.466 38.7922C154.416 38.6793 154.579 39.3548 155.478 39.2921C158.162 39.4587 158.717 41.7502 159.498 43.8141C161.421 43.8983 161.127 41.7627 162.007 40.8006C164.348 38.149 159.28 37.4933 158.492 37.7889V37.2837C159.232 36.0116 161.711 36.4828 162.007 34.7682C162.007 34.2648 162.417 34.1734 162.512 33.7685C161.822 33.0035 160.747 32.7133 159.617 32.7383ZM179.625 33.5643C177.529 33.7542 175.739 35.9955 175.071 38.2888C173.088 38.9033 174.69 39.8475 175.575 40.2972C175.872 42.4382 175.213 43.6242 175.071 45.3262C175.53 50.3446 166.16 51.9427 166.532 45.8261C168.697 46.0071 168.435 48.6121 171.558 47.8345C172.527 47.1322 173.047 45.973 173.566 44.8174C174.67 44.3176 174.15 38.5987 173.061 40.2972H172.558C171.477 39.5071 174.414 38.5002 174.573 37.2837V34.7682C168.476 30.54 171.531 43.2032 165.024 41.8093C165.375 40.4835 167.308 40.7469 167.536 39.2921C169.444 38.7349 168.546 34.5031 167.032 34.272C165.137 34.048 164.676 35.2591 163.512 35.7769C165.864 46.0142 154.177 49.9665 147.941 54.8666C148.906 52.8188 150.286 51.1812 150.958 48.8378C151.913 49.0492 151.864 50.2729 153.466 49.8411C156.881 48.3863 159.509 41.7215 153.97 40.8006C152.703 41.5423 152.341 43.187 149.953 42.8072C148.295 53.0392 141.801 58.4409 134.375 62.9038C128.803 62.0187 129.005 66.9116 124.329 66.9242C123.634 67.7447 121.068 66.1878 120.309 67.9329C115.267 71.0933 108.45 72.4872 102.217 74.4615C100.843 75.6583 99.1819 75.4594 97.1968 74.9668C96.2419 76.1851 95.3245 77.4463 95.6918 79.9869C96.636 80.4061 98.2986 81.8412 98.7017 79.9869C100.703 79.6411 99.8968 76.4932 102.217 76.4735C101.821 78.2114 102.779 78.5912 103.226 79.487C109.102 79.5031 109.614 74.1498 113.271 71.9461C113.409 74.0279 112.614 73.9061 113.271 75.4666C119.717 76.5523 117.756 69.23 122.317 68.4327C122.733 70.2351 121.185 70.8622 122.317 71.9461C128.201 72.643 127.269 66.5175 130.856 64.9122C130.791 66.152 130.784 67.338 131.363 67.9329C136.234 67.7788 136.084 62.6046 139.398 60.8954C142.279 61.7142 137.895 64.0791 139.9 65.4156C143.673 63.495 145.427 59.5535 147.437 55.8735C148.754 56.5418 148.398 58.0987 147.941 59.3868C154.337 59.5176 154.426 53.2344 156.481 50.341C157.212 51.4554 156.82 53.6931 157.99 54.3649C163.623 54.6409 163.22 48.8736 164.524 44.8156C166.703 48.6354 164.33 53.1287 162.512 55.8735C167.819 56.823 167.208 51.8585 170.553 50.8498C171.363 51.708 172.653 52.0932 174.573 51.8495C176.958 50.71 176.619 44.1975 179.088 44.8156C178.801 46.6467 177.87 47.8166 178.586 49.3377C179.805 50.7602 181.632 48.6479 182.618 49.8411C181.883 51.4607 180.145 52.0699 178.586 52.8546C176.761 50.6258 173.477 55.1443 170.049 52.8546C170.139 54.6194 168.347 54.5119 168.037 55.8735C176.429 54.0478 186.36 53.754 192.667 49.8411C193.294 47.3956 189.728 47.4941 191.144 45.8243C191.807 45.8189 191.61 44.9446 192.147 44.8156C192.792 45.0252 193.186 45.4642 193.15 46.3278C193.849 47.4851 194.028 49.1263 196.178 48.8378C197.235 47.7055 196.537 45.5305 195.175 45.3244C193.903 44.4071 194.243 41.8899 192.147 41.8075C190.481 43.4271 187.704 46.2453 189.137 49.3377C188.116 50.1708 185.215 51.7438 183.621 50.341C187.292 47.3794 186.111 42.4901 187.131 38.7922C189.298 38.6256 188.367 41.5746 190.642 41.3041C192.273 37.4861 188.743 34.4081 186.629 34.7682C183.298 35.338 183.155 46.1002 177.583 42.3038C180.145 40.6788 182.671 39.0215 182.618 34.7682C181.596 33.8151 180.575 33.4783 179.625 33.5643ZM145.434 44.3176C143.51 50.4306 141.195 56.1548 134.382 57.3767H129.358C122.459 56.2408 119.66 51.0057 117.302 45.3262C115.457 62.8106 147.348 63.5541 145.434 44.3176ZM106.766 49.9558C105.001 49.9414 103.233 50.728 102.733 52.3548C105.648 52.7883 106.907 54.8738 107.25 57.8801C109.752 57.3677 110.159 54.7591 110.77 52.3548C110.292 50.7817 108.532 49.9683 106.766 49.9558ZM161.195 55.9774C160.371 55.938 159.47 56.7478 157.997 56.3769C157.882 56.7657 157.981 57.3695 157.494 57.3802C157.128 58.7544 158.49 58.3907 158.495 59.3886C160.292 59.0106 161.69 58.2295 162.014 56.3769C161.74 56.0992 161.471 55.9899 161.195 55.9774ZM155.835 57.3426C155.752 57.3372 155.655 57.3569 155.544 57.3982H155.541C155.519 57.3928 155.505 57.3838 155.482 57.3802C155.464 57.4071 155.444 57.4322 155.426 57.4573H155.423C154.145 58.0413 151.488 60.8649 149.971 60.8972H149.956C149.605 61.8862 147.154 60.7736 146.943 61.9023C149.813 64.7599 154.86 62.1262 155.989 58.8888C156.27 57.7887 156.173 57.3623 155.838 57.3426H155.835ZM144.934 63.409C144.119 65.2741 141.108 64.9427 140.914 67.4294C142.928 67.0747 147.489 65.129 144.934 63.409ZM137.897 66.4225C136.422 66.4584 136.03 67.571 135.385 68.4327H135.382C134.79 69.3715 131.485 70.1867 132.873 71.4462C133.542 70.4393 135.107 70.3265 136.394 69.9377C137.53 69.3948 139.216 67.8845 137.897 66.4225ZM129.358 69.4378C128.466 71.3925 125.637 71.4086 125.341 73.9581C127.721 74.0261 132.252 71.3459 129.358 69.4378ZM50.088 69.7621C49.7566 69.78 49.3875 69.8356 48.9718 69.9377C48.6673 71.1416 48.2498 72.2292 48.4666 73.9581C50.0414 74.5654 50.9587 75.8214 53.4921 75.4666C53.8916 74.0226 54.5115 72.8007 55.0006 71.4462C52.9008 71.3531 52.4153 69.6385 50.0916 69.7621H50.088ZM122.14 73.6427C121.165 73.5872 120.25 75.0384 118.807 74.9668L118.804 74.9685C117.51 75.6798 115.968 76.1438 115.796 77.9785C117.043 78.0537 117.879 77.7151 118.304 76.9716C119.601 75.7569 123.082 76.7225 122.828 73.9581C122.589 73.7485 122.364 73.6553 122.14 73.6427ZM53.9955 76.4735C52.9277 77.7473 49.8515 77.0146 49.9787 79.487C50.2815 82.9466 54.7982 81.0869 56.0057 81.4954C55.6116 83.7815 52.1215 82.9699 52.9922 86.5173C53.5261 86.8792 55.307 88.4827 56.0057 87.0207C54.8143 85.9583 56.8944 83.9213 58.5211 84.0073C58.4692 82.5865 56.3318 80.6838 58.5211 79.9869C58.8651 79.6966 59.4367 79.8632 60.053 79.8292C60.044 79.8883 60.0333 79.9259 60.0261 79.9869C58.6251 86.4833 66.2645 82.5829 68.5667 80.4921C66.8629 79.0122 65.435 77.2582 62.0345 77.475C61.4146 77.3317 61.0043 77.4571 60.7087 77.8065C59.3023 77.8423 57.5268 77.9068 56.0057 77.475C54.6369 77.8405 54.9935 76.4771 53.9955 76.4735ZM93.687 76.9716C91.0515 77.6864 87.7818 77.767 88.1617 81.4954C91.0874 83.5432 95.742 78.2329 93.687 76.9716ZM113.278 76.9716C111.098 76.9662 109.666 77.7187 109.262 79.487C110.935 78.9889 113.724 79.5963 113.278 76.9716ZM87.6564 77.475C85.3345 78.7668 82.4661 80.4222 79.6192 78.4783C77.9638 81.5706 72.9347 80.5082 70.5787 80.4921H70.5751C70.5805 81.4882 71.9493 81.1335 71.5838 82.5005C70.8314 81.7032 69.5271 82.1296 69.0684 83.0039C67.4918 82.7657 67.017 83.6274 66.5583 84.5089C66.9955 85.7738 70.6809 86.3865 69.5718 87.5242C65.3239 88.1656 60.3056 81.404 59.021 88.0294C61.4415 89.796 65.2397 88.6386 68.5667 88.5293C66.4813 92.4511 59.2253 90.8351 55.5041 89.5362C55.5166 90.7222 54.6387 91.0143 55.0006 92.5497C56.5916 94.0779 58.7128 93.3344 60.5295 92.5497C60.2913 96.6381 65.306 95.4736 68.0633 96.5701C65.6106 98.4172 62.3982 97.0287 60.0261 96.0666C59.7627 96.8101 59.2826 97.3333 59.021 98.0786C60.4382 100.005 63.776 100.397 65.0498 98.5785C66.5798 100.676 70.3566 102.877 72.5871 100.087C72.8577 98.3079 70.8081 98.8508 71.0804 97.0735C71.9654 96.6184 72.6355 95.9466 73.0888 95.0579C72.5853 95.0615 72.4922 94.6548 72.0873 94.5581H72.0837C69.2494 93.4759 69.0684 90.1005 71.5838 88.5293C73.4328 87.216 75.7798 84.8045 79.1158 86.5173C79.888 87.9004 82.0576 86.4994 82.1293 85.5158C81.5363 84.9389 80.3538 84.9514 79.1158 85.0159C76.6111 84.7615 77.7022 81.0278 79.6192 80.9955V83.5074C83.6074 84.5788 86.2428 80.5835 87.6564 77.475ZM38.9244 78.4783C35.472 78.8796 35.1567 82.6886 38.9244 83.0039C38.6969 84.3996 41.6638 82.6098 41.4381 84.0073C40.0729 86.8326 34.0065 84.9514 34.4042 89.5362C37.1973 90.4571 39.7486 89.1151 41.4381 87.5242C42.8535 88.8142 39.4816 89.563 39.9295 91.5446C40.1553 93.3308 41.6262 93.8665 41.9379 95.5668C40.3649 97.0054 39.2218 98.8759 39.4297 102.095C40.2753 102.923 41.6871 103.183 42.4414 104.104C41.7158 106.057 40.4939 107.517 40.9328 110.634C44.2742 114.248 47.6568 109.502 48.4702 106.116C45.1575 105.723 44.8135 101.182 46.4618 98.5785C40.424 97.0753 44.362 89.2567 48.4702 88.0294C47.6371 90.5431 45.1682 91.4227 44.955 94.5581C45.5104 97.1344 49.7082 96.9284 51.4873 95.5668C52.8471 96.0182 50.3335 96.6901 50.4804 97.5752C48.8769 98.4799 47.4937 99.6122 47.4633 102.095C48.1728 102.226 48.0402 103.199 48.4702 103.608C51.8957 103.846 54.1639 102.934 55.0006 100.587C53.6999 99.494 52.4081 97.6146 53.4921 95.5668V95.0579C51.7757 95.4378 52.8525 93.0191 50.9802 93.5548C50.294 92.9116 50.294 91.1827 50.9802 90.5413C52.6034 88.6655 49.3087 88.4952 49.4753 86.5173C50.0558 85.8849 51.2418 83.8585 49.4753 85.0159C48.4827 85.8293 45.8204 86.632 44.4534 85.5158C43.4913 84.8009 42.6528 83.966 41.9379 83.0039V80.9955C41.9666 80.3523 42.5811 80.295 42.4414 79.4834C40.3595 80.0621 40.4831 78.4317 38.9244 78.4783ZM47.2877 79.4727C47.1928 79.4637 47.087 79.4691 46.9634 79.487C45.6376 79.3365 45.3116 80.1804 45.4549 81.4954C46.1429 83.1526 48.291 83.3515 49.9787 84.0073C50.6201 84.0377 50.6739 84.6486 51.4873 84.5089C51.8492 83.1383 50.4857 83.4966 50.4804 82.5005C49.2012 82.4378 48.5293 81.7677 48.4666 80.4921C48.0223 80.2036 47.9596 79.5354 47.2877 79.4727ZM101.332 80.0818C100.653 80.0872 99.8197 80.7393 99.7158 81.4954H102.224C102.294 80.4634 101.86 80.0782 101.332 80.0818ZM94.1242 81.0135C92.8378 81.1407 92.2376 82.771 90.6735 83.0039C89.6684 84.3405 85.4079 82.4253 85.1482 84.5089H84.6447C84.4387 88.4451 80.3896 89.0632 76.6057 88.0294C75.219 89.563 78.3723 89.6043 78.1125 91.5446C79.329 92.005 79.4401 93.5637 79.6192 95.0579C78.4081 94.0958 77.6252 92.702 76.6057 91.5446H76.1041C75.6884 89.7153 71.6662 90.4839 71.0804 91.5446C70.9944 92.8041 71.8508 93.1158 72.5871 93.5548C74.4379 94.7157 77.2901 94.8841 77.6126 97.5752C75.9607 97.5537 75.1097 96.7259 73.0888 97.0735C72.4743 99.3614 74.8535 98.6609 75.1008 100.087C72.3076 99.4743 73.044 102.389 72.0837 103.608C70.9711 102.55 68.7369 103.206 68.0633 104.104C72.3578 107.32 77.4872 109.461 82.1311 112.145C87.024 114.97 91.9115 117.43 96.1989 120.682C97.6411 121.92 99.7713 122.473 100.721 124.199C102.556 124.543 103.168 126.108 104.741 126.714C105.463 126.995 105.963 127.493 106.244 128.219C115.009 134.029 122.989 140.621 132.877 145.306C134.656 146.373 136.908 146.968 138.406 148.319C147.912 152.569 161.915 152.092 165.035 142.287C162.1 142.84 160.754 146.162 156.489 146.307C145.757 146.683 134.995 134.022 125.841 131.236C125.639 131.019 125.424 130.815 125.198 130.623C125.424 130.815 125.639 131.016 125.841 131.232C124.634 129.093 122.236 128.144 120.316 126.714C116.102 124.231 111.915 121.719 108.26 118.675C106.524 116.894 105.359 114.536 103.233 113.146C98.3058 107.818 78.2648 101.092 85.648 88.5293C86.4596 87.1515 88.1402 86.5478 90.1701 85.5158H90.1736V85.5122C91.6876 84.1685 96.6271 83.6131 95.699 81.4954C95.0576 81.0959 94.5524 80.9705 94.1242 81.0135ZM30.8837 84.5089C29.5829 86.8416 25.0717 89.7924 27.8702 93.0495C32.3223 92.2308 30.9446 88.2964 32.8921 85.5158C31.5233 85.8831 31.8834 84.5161 30.8837 84.5089ZM34.3684 91.0071C33.3525 90.9945 32.4352 91.0788 31.8941 91.5446C31.8207 92.7897 31.7992 93.9865 32.8957 94.0582C33.3651 96.2709 36.7906 95.5238 38.4246 96.5736C34.1372 97.4766 33.2325 101.762 28.8788 102.602C28.8143 103.84 28.8018 105.021 29.3787 105.62C32.4567 106.177 32.2292 103.439 33.9043 102.602C34.2161 104.131 36.6079 103.582 36.9196 105.112C31.9748 104.079 30.1276 110.159 32.3994 113.15C34.8234 113.712 35.8285 110.249 37.4231 111.641C36.8283 114.024 31.8852 114.312 33.3991 117.17C35.3394 117.414 35.635 113.411 36.9196 114.662C35.9253 117.613 34.1838 123.127 36.4162 126.214C39.0122 125.963 38.584 122.681 40.9364 122.19C40.7931 124.53 39.3885 124.989 40.9364 126.714C44.1864 126.951 44.9819 124.732 45.9619 122.694H42.445C40.8719 121.508 40.4455 117.914 41.4417 115.662C38.12 114.481 37.8011 109.457 39.9331 106.619C40.5172 106.535 40.4778 105.822 40.433 105.112C38.8169 104.722 37.6846 103.846 36.9196 102.602C37.106 99.7735 37.8351 97.4874 39.9331 96.5736C38.2884 94.8931 38.5339 92.1 37.4231 91.0447C36.4986 91.1253 35.3842 91.0178 34.3684 91.0071ZM29.8821 94.0582C28.5026 95.0239 27.5459 96.4106 27.8737 99.0819C29.2407 100.083 32.5302 99.6481 32.3994 97.5787C32.7649 97.1756 31.1793 94.4613 29.8821 94.0582ZM23.8552 94.5617C19.523 96.8997 19.0644 106.884 23.3553 109.636C21.9112 114.698 24.1741 118.777 26.8704 121.185C26.3132 122.135 26.229 123.559 25.8653 124.706C28.7319 128.038 28.4202 134.545 30.8872 138.27C26.8543 141.937 25.473 148.262 18.8315 149.326C17.2513 150.926 17.4591 154.317 14.3094 154.352C11.4822 154.362 11.4339 157.161 9.79454 158.361C9.79275 158.363 9.79096 158.367 9.78738 158.368C7.43857 159.456 10.0203 162.308 9.78738 164.397C13.6286 164.442 15.2912 161.163 15.3127 158.87C20.6732 158.986 20.6697 155.414 19.8383 152.839C20.89 153.13 21.2698 154.09 22.8518 153.848C25.2777 153.092 25.4264 150.061 26.8704 148.323C28.0744 148.124 26.5927 150.609 28.379 149.828C28.7982 146.728 32.1181 146.535 33.3991 144.299C32.953 144.154 31.2026 142.941 32.3994 142.79C34.8503 144.093 36.9608 142.455 37.9247 140.785C38.0752 137.279 38.0466 133.961 35.4075 133.244C34.2071 133.909 33.202 137.372 31.3907 135.756C34.0745 133.685 34.4454 128.9 32.8957 125.209C31.1936 125.687 30.2029 129.294 28.379 126.718C31.4803 125.069 31.1847 119.085 29.8821 115.665C27.9651 115.925 28.6513 118.784 25.8653 118.175C25.1308 117.74 24.2726 117.423 24.3586 116.17C27.9329 116.659 27.6444 109.643 26.8704 105.62C25.0036 105.424 25.559 107.648 23.3553 107.121C22.6189 106.686 21.7625 106.372 21.8467 105.112C26.6214 104.937 27.8146 96.5468 23.8552 94.5617ZM89.5537 97.7185C89.2581 97.7436 88.9607 97.8582 88.6687 98.0822C89.0539 101.042 91.5675 101.873 93.1889 103.608C96.1863 104.96 98.9741 106.53 101.228 108.629C101.825 109.12 102.41 109.626 102.98 110.143C102.41 109.626 101.825 109.124 101.228 108.633C103.195 111.016 105.374 113.193 107.76 115.158V115.162C115.211 119.976 121.337 125.716 131.874 132.239C138.221 136.17 159.368 151.725 163.026 137.768C159.373 138.494 157.035 141.893 151.968 141.285C147.566 140.755 144.286 137.1 141.417 135.256C139.846 134.653 138.069 134.253 136.397 133.755C135.948 132.857 134.993 132.469 135.389 130.731C133.038 130.577 131.44 129.661 129.362 129.228C126.812 124.577 120.62 123.564 118.307 118.679C116.663 118.65 116.387 117.249 114.291 117.67C114.237 112.449 105.798 113.782 106.753 109.133C100.092 108.092 97.6626 102.816 92.6855 100.087C92.0961 99.1034 90.8383 97.6038 89.5537 97.7185ZM57.516 101.092C54.06 102.16 53.4097 106.03 49.4753 106.619C49.1259 108.465 48.6081 110.435 49.4753 112.145C51.7453 113.363 53.6085 111.754 55.5041 111.141C55.1565 109.604 51.4425 106.438 55.0042 105.62C54.5671 107.562 56.2297 107.4 56.5092 108.629C57.9568 108.569 59.7986 108.904 60.5295 108.124C59.3059 106.005 58.1019 103.86 57.516 101.092ZM68.6402 108.534C68.5148 108.522 68.3858 108.522 68.2514 108.538C67.3628 108.638 66.3684 109.291 66.0549 109.636C66.1158 110.91 66.7895 111.58 68.0669 111.641C69.6453 111.405 70.1201 112.272 70.5787 113.15C67.3771 113.97 62.9894 113.601 60.5295 115.158C60.13 117.734 63.4409 116.606 64.5499 117.67C63.6792 121.753 57.0825 117.014 56.0075 120.689C56.6023 123.109 61.2767 121.45 61.5364 124.202C59.8953 126.417 53.4025 123.77 53.4957 127.719C55.2658 129.466 59.4689 128.782 59.5245 132.243C58.8526 132.96 56.6794 132.96 56.0075 132.243C55.7316 132.218 55.4593 132.2 55.1995 132.191C55.4593 132.198 55.7316 132.214 56.0075 132.239C54.3664 130.797 51.3905 132.29 50.4804 133.244C50.4875 134.579 50.2009 136.204 51.4873 136.26C52.4888 138.27 57.817 135.957 58.0177 138.773C56.2583 140.366 52.8328 140.289 49.4753 140.282C46.8488 142.195 50.2815 145.508 53.4957 144.799H53.9991C54.5903 144.881 55.4234 144.714 55.5041 145.306C56.4088 145.243 56.6812 145.804 56.5092 146.811C54.9558 148.441 51.0322 147.694 48.9754 148.823C48.8464 148.921 48.73 149.025 48.6314 149.127V149.124C48.73 149.021 48.8464 148.921 48.9754 148.823H48.4702C48.3663 149.387 47.9148 149.607 47.4633 149.828C47.431 152.039 48.6673 152.979 49.9787 153.848C52.1699 155.674 57.5125 154.352 58.5211 157.365C55.9323 158.825 51.7936 155.335 49.4753 157.865C49.9035 163.725 59.0819 162.059 63.0414 162.894C61.1548 165.187 56.2171 164.44 52.9958 165.402C49.8497 166.656 52.8668 170.012 55.0042 170.428C61.1709 172.99 70.5716 171.766 77.1092 170.428C79.5583 169.027 81.8946 167.507 83.1398 164.902C84.0875 162.328 83.335 160.101 82.1311 158.368C76.6147 157.593 72.6498 163.551 68.0669 160.377C71.9296 158.04 79.1928 159.114 79.6228 153.345C75.219 151.433 68.6975 157.032 65.555 153.345C66.3631 151.641 69.0594 151.827 71.5838 151.832V151.836C73.6926 151.1 76.0468 150.602 76.1077 147.816C75.6024 147.816 75.5057 147.411 75.1008 147.318H72.0873H63.5466C62.2656 147.258 60.9595 147.223 61.033 145.807C61.764 145.032 63.6058 145.365 65.0498 145.306C66.9095 144.987 70.0574 145.956 71.0804 144.802C70.8475 144.843 70.5966 144.861 70.3315 144.868C70.5966 144.861 70.8475 144.84 71.0804 144.799H71.5838C75.5738 145.377 75.1079 140.436 71.5838 140.785C68.2729 140.578 63.8942 141.439 62.0381 139.777C59.7305 138.084 64.704 136.806 65.555 138.27C68.5918 137.795 73.9756 139.657 74.0957 136.26C73.354 132.146 64.8008 135.844 63.5466 132.243L63.5484 132.239C66.974 131.818 72.2396 133.232 74.0957 131.236C74.7281 131.028 75.1223 130.589 75.1008 129.728C73.7212 126.922 67.0672 129.387 66.0549 126.214C68.728 124.338 74.8052 128.798 76.1077 125.209C76.6344 122.16 69.5808 122.362 68.5703 119.186C70.6988 119.064 72.1285 119.644 73.5958 120.187C74.6708 121.481 78.632 121.667 79.6228 120.187C79.5888 118.713 78.4744 118.32 77.6126 117.67C75.4895 117.285 73.4632 116.799 72.5907 115.158C75.3731 114.889 76.9372 115.835 78.6177 116.667H78.6213V116.67C78.6213 117.174 79.0244 117.267 79.1194 117.67C81.2442 117.623 82.1203 116.326 82.6363 114.662C82.1329 114.662 82.0361 114.253 81.6276 114.158C77.3743 112.721 74.2641 110.14 69.5754 109.133C69.3568 108.744 69.02 108.572 68.6402 108.534ZM61.5329 108.629C59.5764 110.355 56.7672 111.234 55.5041 113.657C58.4799 113.273 61.7299 110.511 61.5329 108.629ZM46.4618 112.65V112.653C46.1249 114.997 43.1365 114.678 42.9448 117.17C43.047 118.743 44.2402 119.227 44.955 120.187C48.3018 120.841 50.2385 117.453 51.9871 118.175C50.226 121.103 47.0942 122.656 46.4618 126.714C47.2411 127.278 47.5081 128.35 48.9754 128.223C48.9754 128.728 48.5669 128.825 48.4702 129.228H47.4633C46.5961 128.593 46.15 127.533 44.4534 127.723C43.4608 129.136 41.6961 132.906 44.4534 133.755C51.9835 134.792 37.1436 136.991 41.4381 129.228C39.4888 129.169 38.9011 127.748 37.9247 126.718C34.6228 131.899 40.949 134.475 40.433 138.773C40.9579 139.925 44.0234 138.535 44.4534 139.777C42.2981 141.837 36.5075 142.28 38.928 147.318C40.5172 148.692 42.8839 146.305 43.4501 148.319C42.7782 148.821 42.4593 149.677 41.4381 149.828C37.6775 150.24 37.3102 147.255 34.9041 146.311C34.1426 147.895 33.2325 149.326 32.8957 151.333C33.7664 152.642 34.7052 153.882 36.916 153.848C38.7309 153.484 38.3529 150.93 40.433 150.835C37.6793 155.607 37.7438 163.906 44.4534 162.389C41.1926 168.038 34.0244 160.688 36.4126 155.86C31.4426 156.808 30.8012 153.431 29.8821 150.331C24.3586 155.518 18.8924 160.778 14.3058 166.911C15.0028 168.93 18.6505 170.56 19.8348 167.914C21.9148 166.816 19.6986 161.418 22.8518 161.385C22.3824 165.202 23.3159 167.617 26.3634 167.914C27.3506 167.063 28.508 166.375 28.8753 164.902C26.1018 163.79 24.8871 158.796 26.8669 155.86C27.6104 155.951 27.3273 157.073 27.3703 157.865C27.7842 160.131 28.5564 162.038 30.8872 162.389C32.5302 162.018 32.566 160.049 34.4042 159.877C32.3205 162.901 32.1539 169.233 36.916 169.419C39.1878 169.829 39.8919 166.067 41.4381 167.411C41.1335 169.285 39.1269 169.457 38.9244 171.431C41.7642 172.518 45.7254 171.492 46.9634 169.419C48.8303 168.048 46.0121 165.748 47.9667 163.397C47.3432 162.344 46.5084 161.505 45.4585 160.882C43.8801 158.68 46.2109 156.817 46.4618 154.851C46.15 153.49 44.3638 153.599 44.4534 151.832C43.6292 151.92 43.6292 148.735 44.4534 148.823C43.9248 146.619 46.15 147.172 45.9583 145.306C45.4423 144.146 44.233 143.682 44.4534 141.789C45.4119 140.57 45.5122 138.494 47.4633 138.27C49.6401 137.512 47.234 135.12 47.9667 132.745C47.8718 130.303 50.9014 130.989 50.9838 128.726C50.9856 128.219 50.5753 128.126 50.4804 127.719V127.221C50.3191 126.051 50.5646 125.29 50.9838 124.706C51.0949 120.465 53.6103 118.625 55.0042 115.662C51.5141 114.583 48.7318 115.346 46.4618 112.65ZM10.7889 122.194C9.47384 125.902 8.84857 130.299 7.77539 134.251C10.5614 134.749 12.5554 130.405 13.8042 127.723C12.3422 126.338 12.1416 123.69 10.7889 122.194ZM29.8786 166.911C29.6654 168.541 27.7895 168.505 27.3667 169.926C28.2733 171.023 29.058 172.255 31.3871 171.936C31.4444 170.985 33.0426 171.587 32.8885 170.428C32.0303 169.781 30.9177 169.387 30.8837 167.914C30.7797 167.351 30.3265 167.133 29.8786 166.911Z" fill="#F4811F"/>
<path fill-rule="evenodd" clip-rule="evenodd" d="M193.151 53.356C184.123 55.2103 174.28 56.2458 168.038 60.8933C168.088 63.1866 167.631 65.9904 169.041 66.9221C171.736 67.6889 175.075 65.5569 178.587 66.9221C180.611 66.4258 179.196 62.4968 181.095 61.8984C181.418 64.326 180.432 65.4494 181.095 66.9221C185.467 69.9445 193.008 68.556 194.172 63.9068C195.086 60.1946 191.825 57.2957 193.169 53.356H193.151ZM191.144 58.3779C192.327 59.3668 192.165 61.7139 192.148 63.9068C190.714 64.8187 189.926 66.3703 187.131 65.9188C188.6 64.8814 190.84 64.6181 191.646 62.9053C191.628 61.2498 190.804 60.3988 191.144 58.3779ZM131.36 75.4627C123.493 76.905 112.725 82.0218 118.801 91.5371C120.474 94.1565 127.257 97.0535 130.358 101.085C132.6 104.01 136.091 106.132 136.887 108.622C134.486 105.666 129.921 104.87 126.84 102.595C126.924 102.007 127.637 102.049 128.346 102.092C124.351 96.9281 110.788 89.5878 101.214 88.5254C95.7532 87.9198 93.0263 89.0969 91.6719 92.5458C92.4154 92.9704 92.3993 94.1618 92.6752 95.0541V95.5593C98.5911 104.044 108.436 108.602 116.792 114.651V116.659C119.766 117.709 123.17 118.32 123.323 122.183C126.329 123.691 131.777 124.32 131.36 127.712C134.484 127.602 135.713 129.387 138.395 129.72C138.188 130.933 139.313 130.811 138.895 132.232C145.411 134.253 153.458 145.108 159.999 137.257C160.737 136.372 161.145 133.683 161.507 130.725C159.972 130.286 158.542 131.685 156.482 130.22V133.237C156.691 134.373 159.237 133.165 158.995 134.749C157.967 136.078 155.212 138.309 152.967 136.754C154.131 135.244 154.851 133.284 154.47 130.22C152.415 130.512 152.098 132.538 149.953 132.737C149.625 128.969 146.585 128.113 144.928 125.703C142.084 121.572 141.735 117.181 137.39 115.654C136.912 117.017 135.581 117.535 134.875 118.671C135.873 122.256 140.259 124.926 140.404 127.712C134.956 124.408 127.454 116.408 131.863 108.117C135.004 109.398 140.447 110.838 143.924 110.125C138.906 105.107 127.7 97.6734 122.821 91.0373C117.459 83.7418 127.053 80.0994 131.36 75.4627ZM145.033 114.412C144.057 114.391 143.018 114.468 141.912 114.654C143.781 121.323 148.167 125.481 151.962 130.223C153.791 129.862 154.278 127.853 156.482 129.22C157.396 123.118 149.355 125.963 150.453 119.68C148.921 119.015 145.759 117.358 146.433 116.163C148.482 117.91 153.142 118.195 151.458 122.186C156.339 123.001 156.776 128.258 161.004 129.724C158.144 123.901 154.473 114.619 145.033 114.412Z" fill="#008344"/>
<path fill-rule="evenodd" clip-rule="evenodd" d="M192.667 68.9363C190.381 69.6207 186.844 70.366 186.102 69.807C186.102 69.807 186.289 88.9612 185.73 93.2378C185.173 97.5144 185.131 98.5786 185.131 98.5786C185.131 98.5786 195.51 87.9633 192.667 68.9363ZM174.939 68.0244C173.303 67.9617 171.501 68.5027 170.057 68.9363C170.759 80.8058 167.597 92.858 163.521 101.594C173.385 97.2241 176.023 85.6234 178.597 73.96C180.117 70.8497 181.826 69.6225 177.592 68.9381C176.843 68.3146 175.921 68.062 174.939 68.0244ZM131.775 40.5284C130.79 40.575 130.152 41.5192 129.864 42.8127C130.758 45.1992 128.497 52.1399 131.367 53.8652C131.496 52.1345 130.992 45.0325 131.87 47.3312C132.802 45.7528 132.945 43.3825 132.875 40.8025C132.463 40.5983 132.098 40.5141 131.775 40.5284Z" fill="white"/>
</g>
<defs>
<clipPath id="clip0_15016_304162">
<rect width="200" height="200" fill="white" transform="translate(0.222656 0.945312)"/>
</clipPath>
</defs>
</svg>
