<svg width="201" height="201" viewBox="0 0 201 201" fill="none" xmlns="http://www.w3.org/2000/svg">
<path d="M194.876 37.5896C186.293 41.1284 175.21 43.1612 164.45 43.1612H112.242L109.472 40.127H83.9397L81.1689 43.1612H41.1808C20.3397 43.1612 12.9987 39.9839 6.19972 37.5293C2.86424 36.4752 1.47885 39.0201 1.7499 41.0681C1.83273 41.6404 2.58565 45.2619 5.5522 48.7405C4.52821 49.4934 4.65621 51.4435 5.15315 52.2566C5.65761 53.1827 7.85616 56.7366 12.1102 59.0857C11.7714 59.4019 11.7563 60.8099 12.5846 61.8791C14.0452 63.9195 17.0118 67.1345 21.5821 68.5049C21.4541 70.4775 22.975 74.1518 25.9039 74.0163L24.6239 77.7207L19.9633 79.8591L9.97189 97.7185L16.5751 110.782C17.6442 110.217 19.3534 109.359 21.695 108.32C20.4075 111.083 19.7299 113.967 19.7299 116.933C19.7299 137.232 51.3604 153.405 92.4478 155.31C95.9865 159.519 100.587 163.178 100.587 163.178C100.587 163.178 105.187 159.519 108.726 155.31C149.813 153.405 181.444 137.24 181.444 116.933C181.444 114.298 180.909 111.738 179.893 109.261C181.241 109.901 182.28 110.428 182.995 110.812L190.178 96.5967L181.376 79.9419L176.655 77.7659L175.293 73.9862C178.402 74.2121 179.742 70.2893 179.614 68.5124C184.185 67.1421 187.144 63.927 188.612 61.8866C189.237 61.0734 189.621 59.4848 189.041 59.1158C193.34 56.7667 195.486 53.1526 196.043 52.2642C196.887 50.924 196.209 49.0191 195.644 48.7405C198.611 45.2544 199.356 41.6328 199.447 41.0606C199.808 37.7251 196.969 36.7689 194.876 37.5896Z" fill="#CCCCCC"/>
<path d="M196.675 40.6092C196.811 39.7734 195.997 40.1875 195.997 40.1875C188.159 43.4327 176.828 45.9851 164.442 45.9851H110.999L108.236 42.9508H85.1964L82.4256 45.9851H41.1876C20.5875 45.9851 12.9904 42.9207 5.24278 40.1875C5.24278 40.1875 4.42961 39.7734 4.55761 40.6092C4.70067 41.4449 6.01077 47.4458 12.5161 50.6231C12.5161 50.6231 9.9787 51.0222 7.82533 50.6005C7.82533 50.6005 7.4338 50.4951 7.65215 50.9017C8.01356 51.5568 11.2135 57.264 18.419 58.2503C18.419 58.2503 17.4929 59.5378 14.9029 59.7863C14.9029 59.7863 14.6695 59.9143 14.8351 60.1402C15.2266 60.6748 18.6073 65.742 24.8566 66.2991C24.8566 66.2991 23.4863 69.5744 25.6923 71.2383C25.6923 71.2383 26.4001 70.7941 27.2208 70.7941C28.9149 70.7941 29.5172 72.2924 28.8697 74.1747L26.9347 79.7991L22.0105 82.0655L13.2012 97.7941L17.8845 107.048C17.8845 107.048 22.7258 104.375 32.0019 101.197C26.7991 105.926 23.8627 111.279 23.8627 116.934C23.8627 135.35 54.8759 150.446 94.3219 151.915C97.6573 155.792 100.609 158.397 100.609 158.397C100.609 158.397 103.56 155.792 106.888 151.915C146.334 150.446 177.347 135.358 177.347 116.934C177.347 111.633 174.772 106.603 170.164 102.093C177.777 104.857 181.745 107.048 181.745 107.048L187.015 96.6271L179.343 82.1182L174.418 79.8519L172.378 74.1823C171.542 71.8482 172.755 70.8016 174.027 70.8016C174.946 70.8016 175.555 71.2459 175.555 71.2459C177.762 69.5819 176.384 66.3067 176.384 66.3067C182.633 65.7495 186.021 60.6747 186.405 60.1477C186.571 59.9293 186.33 59.7938 186.33 59.7938C183.747 59.5453 182.821 58.2578 182.821 58.2578C190.019 57.2715 193.227 51.5718 193.581 50.9092C193.799 50.5102 193.407 50.6081 193.407 50.6081C191.262 51.0372 188.717 50.6307 188.717 50.6307C195.222 47.4533 196.54 41.4449 196.675 40.6092Z" fill="#003366"/>
<path d="M15.7015 47.0155C15.6473 47.0276 15.5991 47.0697 15.6171 47.1962C15.6533 47.4613 20.984 52.9727 30.6275 54.5689C30.6275 54.5689 25.3631 54.8641 20.8093 54.069C20.8093 54.069 20.5082 53.9786 20.6106 54.2557C20.725 54.5629 24.0921 58.0204 32.8562 59.6888C32.8562 59.6888 31.3142 60.6586 26.6581 60.7008C26.6581 60.7008 26.3268 60.7008 26.5135 60.9357C26.7244 61.2067 30.3143 63.2005 35.2596 62.8271L34.862 64.7003H31.6997L34.7295 71.7176L30.6757 82.3912L25.592 84.1681L21.1406 93.3297C21.1406 93.3297 28.8205 89.5169 44.0658 85.9691C43.2647 83.6019 43.0479 80.7889 44.0658 78.0001C44.0658 78.0001 46.1981 80.9275 52.583 84.1922C52.9022 84.1319 53.2154 84.0717 53.5467 84.0115L56.185 76.7352L48.4569 77.8435L50.4386 72.4284L64.4612 71.814L70.0329 64.1281L53.2696 64.7425L55.2453 57.5626H65.7803L65.0033 60.5803H78.0681L79.5921 50.9428H39.6808C39.6808 50.9428 25.1884 50.7742 15.8219 47.0336C15.8159 47.0276 15.7557 47.0035 15.7015 47.0155ZM186.141 47.3288C186.086 47.3167 186.026 47.3348 186.026 47.3348C177.75 50.6477 165.89 50.9368 162.83 50.9368H141.898L144.049 57.5565H146.97L154.277 78.3494L142.736 75.7714L137.351 57.5626H140.23L138.194 50.9428H117.076L118.732 57.5626H122.298L126.659 75.416C127.906 80.4817 132.93 81.6382 145.169 84.4632L147.139 84.921C154.686 81.3732 157.132 78.0001 157.132 78.0001C158.33 81.2527 157.824 84.5536 156.686 87.1196L164.095 88.8302C173.106 90.9023 173.377 87.4027 171.769 83.7404L164.703 67.7482C164.119 66.411 164.908 65.646 166.155 65.646C167.384 65.646 168.125 66.3929 168.42 67.1579L168.594 67.2001C169.956 64.9473 166.576 63.1403 166.576 63.1403C171.522 63.5137 175.112 61.52 175.335 61.2489C175.509 61.02 175.184 61.014 175.184 61.014C170.534 60.9658 168.986 60.0021 168.986 60.0021C177.75 58.3275 181.117 54.8761 181.238 54.5689C181.334 54.2918 181.039 54.3822 181.039 54.3822C176.485 55.1833 171.221 54.8821 171.221 54.8821C180.852 53.292 186.201 47.7745 186.237 47.5155C186.249 47.383 186.207 47.3408 186.141 47.3288ZM87.4526 47.4312L69.7739 75.2474L65.0033 75.8618L62.7987 82.6261C66.0634 82.084 73.1108 81.066 81.881 80.7709L86.0612 73.3199H105.047L109.155 81.0781C117.112 81.4937 125.081 82.1261 127.593 82.337L125.087 75.2534L120.461 74.9161L104.903 47.4312H87.4526ZM96.2408 53.5991L102.18 64.7003H89.7235L96.2408 53.5991ZM177.214 87.4509C175.509 87.4509 174.136 88.8302 174.136 90.5409C174.136 92.2515 175.509 93.6309 177.214 93.6309C178.919 93.6309 180.31 92.2515 180.31 90.5409C180.31 88.8363 178.925 87.4509 177.214 87.4509ZM177.214 88.1134C178.551 88.1134 179.647 89.1977 179.647 90.5409C179.647 91.8841 178.557 92.9683 177.214 92.9683C175.877 92.9683 174.786 91.8841 174.786 90.5409C174.792 89.1977 175.877 88.1134 177.214 88.1134ZM175.949 88.776V92.3057H176.612V90.8722H177.087L177.756 92.3057H178.491L177.786 90.8119C178.196 90.6674 178.491 90.2698 178.491 89.8241C178.491 89.2458 178.021 88.776 177.437 88.776H175.949ZM176.612 89.4446H177.443C177.66 89.4446 177.828 89.6133 177.828 89.8301C177.828 90.0409 177.66 90.2156 177.443 90.2156H176.612V89.4446ZM47.7702 100.335C41.3854 105.112 37.681 110.816 37.681 116.942C37.681 132.169 60.5881 144.782 90.5668 147.119C88.8019 144.625 87.2177 141.903 86.1817 139.15L79.3692 141.487L82.0677 136.349C63.7504 140.258 39.8494 129.115 41.4758 115.743L46.0174 117.779C46.0174 117.779 43.1442 109.768 49.3845 101.6C48.8243 101.184 48.2883 100.757 47.7702 100.335ZM153.445 100.335C152.927 100.757 152.391 101.184 151.825 101.606C158.059 109.774 155.192 117.785 155.192 117.785L159.728 115.749C161.354 129.127 137.459 140.264 119.142 136.349L121.828 141.487L115.016 139.15C113.986 141.891 112.396 144.619 110.637 147.119C140.615 144.782 163.517 132.169 163.517 116.936C163.523 110.816 159.824 105.112 153.445 100.335ZM72.5627 114.562C71.7616 115.249 71.2797 116.153 71.2797 117.146C71.2797 119.297 73.5566 121.038 76.3755 121.038C78.3633 121.038 80.086 120.17 80.9232 118.899L72.5627 114.562ZM128.635 114.562L120.286 118.899C121.124 120.17 122.84 121.038 124.834 121.038C127.647 121.038 129.93 119.297 129.93 117.146C129.93 116.159 129.442 115.255 128.635 114.562Z" fill="white"/>
<path d="M57.7458 106.69C56.2038 108.835 55.3184 111.292 55.3184 113.919C55.3184 122.207 64.1306 128.929 74.9909 128.929C81.0625 128.929 86.4896 126.821 90.0977 123.532L86.0379 121.508C83.5743 124.345 79.3458 126.212 74.5512 126.212C66.9436 126.212 60.7756 121.508 60.7756 115.701C60.7756 113.449 61.7032 111.365 63.2874 109.654L57.7458 106.69ZM143.459 106.69L137.918 109.648C139.496 111.353 140.43 113.443 140.43 115.695C140.43 121.502 134.268 126.206 126.648 126.206C121.853 126.206 117.631 124.339 115.161 121.508L111.101 123.526C114.715 126.821 120.137 128.923 126.214 128.923C137.074 128.923 145.887 122.201 145.887 113.913C145.893 111.298 145.007 108.835 143.459 106.69ZM100.603 121.58V149.077C97.109 143.957 94.7719 138.615 94.7719 133.989C94.7719 130.664 95.8501 127.73 97.4101 125.243C94.802 127.875 92.3926 131.633 92.3926 136.416C92.3926 142.229 96.4343 148.355 100.597 152.999C104.945 148.342 109.21 142.235 109.21 136.416C109.216 128.495 100.603 121.58 100.603 121.58Z" fill="#CCCCCC"/>
<path d="M151.728 86.3613C151.728 86.3613 145.819 92.6679 132.188 96.7518C125.399 98.7817 101.968 106.702 102.329 119.701C105.998 114.985 115.521 108.781 131.134 103.468C154.095 95.6555 151.728 86.3613 151.728 86.3613ZM49.4798 86.3674C49.4798 86.3674 47.1066 95.6615 70.0679 103.468C85.6867 108.781 95.2097 114.979 98.878 119.701C99.2394 106.708 75.8022 98.7817 69.0198 96.7578C55.3828 92.6679 49.4798 86.3674 49.4798 86.3674Z" fill="#CC0000"/>
</svg>
