<svg width="200" height="201" viewBox="0 0 200 201" fill="none" xmlns="http://www.w3.org/2000/svg">
<path d="M3.706 56.7148H72.9068V84.0949H48.7947V78.3539H34.3098V91.779H54.4032V112.27H34.354V123.31H40.2716V144.419H3.61768V123.31H9.88859V78.2656H3.61768L3.706 56.7148ZM79.0011 56.7148H115.655V78.1773H109.649V123.222H115.655V144.331H79.0011V123.222H85.0954V78.1773H79.0011V56.7148ZM121.484 56.7148H155.489V78.1773H151.779V122.339L152.662 123.222H165.204L166.087 122.339V78.1773H162.378V56.7148H196.382V78.1773H190.288V128.08L174.566 144.419H143.477L127.755 128.08V78.1773H121.484V56.7148Z" fill="#081E3F" stroke="#B6862C" stroke-width="3.3"/>
</svg>
