<svg width="201" height="200" viewBox="0 0 201 200" fill="none" xmlns="http://www.w3.org/2000/svg">
<path d="M200.038 61.6051C198.672 58.6718 195.855 56.5177 192.304 55.6946C190.87 55.3606 189.993 54.0972 188.686 52.0595C187.775 50.6409 186.839 49.1759 185.439 48.0019C183.507 46.3758 181.07 45.5189 178.396 45.5189C176.482 45.5189 174.432 45.9617 172.459 46.8001C171.405 47.2538 170.359 47.8054 169.269 48.4877C168.846 48.341 168.399 48.2111 167.931 48.1098C166.946 47.8981 165.881 47.7885 164.761 47.7885C163.634 47.7885 162.416 47.8939 161.043 48.1149C158.51 48.5164 154.741 50.0227 152.774 50.8585L152.731 50.8391C139.309 45.3266 123.794 41.9404 107.815 41.032C105.282 39.1394 102.84 37.6888 100.716 36.8251C97.7468 35.614 94.5731 35 91.2872 35C86.2689 35 81.3637 36.465 77.3145 39.1512C73.2223 37.3084 68.5128 36.3031 63.8859 36.3031C60.2812 36.3031 56.7541 36.9154 53.6892 38.0767C46.6822 40.7326 41.0305 46.4686 38.3831 53.5422C27.4644 58.8126 18.3615 65.5607 12.0023 73.1016C4.79458 81.6554 0.988281 91.3553 0.988281 101.157C0.988281 112.499 6.00824 123.518 15.5075 133.026C24.1271 141.639 36.2585 148.822 50.5955 153.798C65.1771 158.857 81.8175 161.531 98.7252 161.531C134.97 161.531 168.016 149.288 185.022 129.568C185.199 129.398 187.637 126.152 187.637 126.152C189.99 123.037 191.803 119.958 193.186 116.744C197.429 106.87 197.496 95.9974 193.38 86.1051C193.878 85.4456 194.35 84.7464 194.806 84.0202C195.809 82.3916 196.619 80.6812 197.226 78.9396C197.876 77.074 198.297 75.1578 198.474 73.2137C198.652 72.9767 198.829 72.7381 198.98 72.5028C199.427 71.8238 199.815 71.0976 200.119 70.3445C201.308 67.4482 201.275 64.2644 200.035 61.6051H200.038Z" fill="white"/>
<path d="M191.689 58.1562C187.624 57.2158 186.645 52.3586 183.761 49.9364C180.8 47.4424 176.794 47.6794 173.404 49.125C172.316 49.5914 170.933 50.3269 169.463 51.3659C166.414 49.8174 163.348 50.3412 161.389 50.6111C158.272 51.0387 154.33 52.6715 152.775 53.5233C149.763 55.1713 148.928 56.9096 147.23 57.9099C146.585 58.286 144.593 59.4288 140.66 60.0597C135.24 60.9284 131.408 60.4898 128.773 60.3836C121.023 59.8573 112.841 58.3004 110.063 57.92C108.66 57.5599 104.512 54.5574 101.273 51.8197C96.4231 47.719 95.1083 47.5377 92.9196 47.2763C84.7681 46.3106 81.2529 51.9226 81.2385 51.9445C81.2385 51.9445 77.4179 51.78 75.2217 51.9445C70.5517 48.7084 64.7441 47.7831 60.016 48.8163C57.6207 49.3831 55.4085 50.4938 53.6694 52.2338C53.6356 52.2658 51.7194 54.1112 50.6719 57.0724C50.6314 57.182 49.3208 60.5953 49.9221 64.5584C43.2736 66.1179 40.1622 68.2863 39.5027 68.7442C37.8564 69.8862 37.0771 71.799 36.835 73.0751C36.4732 75.3506 37.1977 77.8201 38.3211 79.9176C35.8787 80.228 33.4117 80.8487 31.8446 81.5049C30.7946 81.9915 27.2338 83.6969 27.7153 88.4984C27.7196 88.5397 27.8537 90.6432 29.5801 95.1453C27.0626 96.4154 24.0212 99.1185 23.0724 100.036C20.473 102.557 20.667 105.56 20.6822 105.776C20.6848 105.783 20.6847 105.791 20.6873 105.797C21.3173 110.595 27.6951 115.865 30.0676 117.395C32.8618 128.412 43.5359 135.159 50.8583 137.956C51.0337 138.022 60.7995 142.119 70.4396 141.203C76.3679 144.991 87.8508 144.535 88.8148 144.54C94.695 144.569 101.444 143.191 101.51 143.18C107.866 142.039 108.029 140.799 108.286 139.469C118.268 140.412 126.311 138.267 126.588 138.199C130.502 137.278 131.054 136.362 131.691 135.365C140.009 136.016 146.18 134.795 148.117 134.297C153.058 133.024 155.196 131.149 156.527 129.619C160.977 129.581 162.979 129.647 164.379 130.028C168.47 131.149 173.244 130.152 174.661 129.8C179.021 128.623 183.55 126.059 187.522 121.812C188.779 119.886 189.892 117.883 190.812 115.742C194.793 106.493 194.835 96.1455 190.913 86.8715C190.753 86.4818 190.584 86.0989 190.398 85.716C195.037 80.2347 195.771 74.6211 195.923 72.8187C195.956 72.3928 195.965 72.2477 196.226 71.918C196.884 71.072 197.491 69.9857 197.736 69.3844C198.605 67.2497 198.681 64.7845 197.702 62.6726C196.572 60.2512 194.236 58.7465 191.689 58.1562Z" fill="#003087"/>
<path d="M90.6818 39.6082C90.142 39.625 89.609 39.6685 89.0759 39.7241C88.914 39.7419 88.7588 39.765 88.5969 39.7861C88.219 39.8342 87.8479 39.8899 87.4701 39.9574C87.2947 39.9903 87.1192 40.0266 86.9371 40.0629C86.5727 40.1396 86.2084 40.2267 85.844 40.3211C85.6888 40.3633 85.5336 40.3977 85.3784 40.4424C84.3596 40.7325 83.3745 41.0992 82.4232 41.5335C82.2747 41.6016 82.1263 41.6772 81.9846 41.7494C81.6607 41.9066 81.3436 42.0692 81.0332 42.244C80.8646 42.3357 80.7026 42.4288 80.5407 42.5233C80.2438 42.7014 79.9537 42.887 79.6703 43.0806C79.5219 43.1778 79.3734 43.2729 79.2317 43.3735C78.8606 43.6373 78.503 43.9153 78.1589 44.2034C78.1184 44.2364 78.0779 44.2654 78.0375 44.3012H78.0307C77.8081 44.2965 77.5787 44.2965 77.356 44.3012C70.8922 40.6414 62.0789 39.7797 55.2939 42.3479C55.2885 42.3519 55.2825 42.3546 55.2784 42.3573C54.8162 42.5327 54.3628 42.7271 53.9161 42.9356C53.8871 42.9497 53.8581 42.9659 53.8278 42.9781C53.3899 43.1859 52.9614 43.4079 52.5397 43.642C51.3839 44.2837 50.2915 45.0319 49.2761 45.8706C49.2747 45.8706 49.2754 45.8719 49.272 45.8719C48.2552 46.7106 47.3147 47.6417 46.4625 48.6498V48.6511C46.2236 48.9311 45.9963 49.2172 45.7716 49.5073C45.7507 49.5364 45.7291 49.5661 45.7075 49.593C45.5024 49.8643 45.3053 50.1396 45.1144 50.4196C45.0726 50.4762 45.0328 50.5363 44.9943 50.5937C44.8216 50.85 44.6542 51.1112 44.4923 51.375C44.435 51.4688 44.3776 51.5632 44.3236 51.6557C44.1806 51.8945 44.0436 52.1334 43.9107 52.3749C43.8378 52.5119 43.7663 52.6516 43.6948 52.7892C43.5855 52.997 43.4782 53.2075 43.377 53.4187C43.2839 53.6178 43.1948 53.8188 43.1071 54.0199C43.0356 54.1818 42.962 54.3431 42.8939 54.5064C42.7691 54.814 42.6523 55.1197 42.5403 55.4355C42.5154 55.5002 42.4891 55.5677 42.4627 55.6365C42.3271 56.0312 42.2003 56.4327 42.0829 56.8402C19.867 67.0407 5.53857 83.1004 5.53857 101.163C5.53878 101.78 5.55956 102.391 5.5941 103.005C5.60254 103.167 5.61435 103.336 5.62447 103.498C5.65989 104.017 5.70645 104.537 5.76542 105.05C5.7781 105.151 5.78404 105.252 5.79841 105.353C5.87175 105.947 5.96527 106.548 6.06985 107.141C6.09772 107.29 6.12902 107.445 6.15682 107.593C6.2496 108.073 6.35128 108.552 6.46261 109.031C6.49715 109.172 6.52731 109.307 6.56273 109.449C6.7078 110.036 6.86649 110.616 7.04118 111.197C7.07829 111.318 7.12147 111.439 7.15858 111.561C7.30904 112.04 7.46963 112.512 7.63966 112.985C7.69566 113.14 7.75031 113.295 7.80969 113.45C8.0229 114.017 8.24623 114.59 8.49048 115.15C8.5195 115.218 8.55188 115.285 8.58022 115.353C8.80288 115.859 9.03836 116.358 9.28261 116.857C9.35953 117.019 9.43779 117.181 9.51876 117.336C9.76773 117.836 10.0268 118.328 10.3001 118.814C10.3379 118.882 10.3723 118.949 10.4107 119.017C10.7177 119.563 11.0423 120.103 11.3756 120.643C11.4707 120.791 11.5679 120.946 11.6624 121.095C11.941 121.527 12.2264 121.958 12.5206 122.39C12.6029 122.512 12.6839 122.633 12.7682 122.748C13.1346 123.274 13.5158 123.794 13.9058 124.306C14.0077 124.441 14.1136 124.57 14.2182 124.704C14.5353 125.116 14.8619 125.521 15.1959 125.926C15.3133 126.061 15.4293 126.209 15.5461 126.344C15.9711 126.85 16.4077 127.349 16.855 127.842C16.9441 127.936 17.0365 128.031 17.1276 128.132C17.5075 128.544 17.8968 128.948 18.2942 129.36C18.4359 129.502 18.5789 129.643 18.722 129.792C19.1889 130.257 19.6632 130.723 20.1531 131.182C20.1962 131.222 20.2408 131.263 20.284 131.303C20.7725 131.762 21.2771 132.207 21.7872 132.653C21.9478 132.794 22.1111 132.936 22.2724 133.078C22.715 133.456 23.1657 133.833 23.6245 134.205C23.7372 134.299 23.8478 134.393 23.9646 134.481C24.5192 134.926 25.0853 135.365 25.6608 135.804C25.8295 135.925 25.9995 136.053 26.1689 136.181C26.6277 136.519 27.0953 136.863 27.5649 137.194C27.7302 137.308 27.8908 137.43 28.0574 137.544C28.6606 137.963 29.2719 138.374 29.8947 138.786C30.0506 138.887 30.2098 138.988 30.369 139.09C30.8703 139.413 31.3784 139.731 31.8952 140.048C32.0909 140.176 32.2893 140.297 32.4856 140.419C33.1367 140.81 33.7946 141.201 34.4646 141.579C34.5725 141.64 34.6839 141.701 34.7918 141.761C35.3782 142.092 35.9719 142.423 36.5704 142.74C36.7883 142.861 37.0076 142.976 37.2269 143.091C37.8301 143.414 38.4434 143.725 39.0615 144.035C39.1755 144.089 39.2875 144.15 39.4042 144.204C40.1161 144.562 40.8421 144.906 41.5735 145.243C41.7968 145.351 42.0235 145.452 42.2502 145.553C42.8338 145.823 43.4242 146.086 44.0193 146.343C44.2116 146.431 44.4053 146.511 44.5976 146.599C45.3465 146.916 46.1049 147.233 46.8707 147.537C47.0873 147.625 47.3093 147.712 47.5272 147.8C48.1324 148.036 48.7397 148.272 49.3537 148.502C49.5878 148.59 49.8253 148.677 50.0615 148.765C50.8495 149.055 51.645 149.339 52.448 149.615C52.6281 149.676 52.8123 149.737 52.9958 149.797C53.6557 150.02 54.3203 150.243 54.9869 150.452C55.2521 150.54 55.5159 150.621 55.7818 150.701C56.5611 150.944 57.3437 151.187 58.1365 151.417C58.2512 151.45 58.3639 151.477 58.4779 151.518C59.3058 151.754 60.1418 151.983 60.9832 152.199C61.2652 152.274 61.5452 152.355 61.8266 152.422C62.6666 152.645 63.5141 152.854 64.3662 153.056C64.4587 153.077 64.5504 153.104 64.6442 153.124C65.8331 153.4 67.0341 153.664 68.2472 153.92C68.3957 153.947 68.5441 153.981 68.6926 154.008C69.8733 154.251 71.0608 154.473 72.2618 154.689C72.471 154.723 72.6734 154.763 72.8758 154.797C74.0499 154.999 75.2374 155.188 76.4316 155.364C76.661 155.398 76.8972 155.431 77.1266 155.458C78.3141 155.627 79.5151 155.789 80.7161 155.931C80.9523 155.958 81.1884 155.985 81.4178 156.012C82.6391 156.146 83.8671 156.268 85.1018 156.383C85.3245 156.396 85.5404 156.416 85.7563 156.43C87.0248 156.538 88.2932 156.632 89.5752 156.707C89.7506 156.713 89.9328 156.72 90.115 156.734C91.4374 156.808 92.7666 156.868 94.1093 156.902C94.224 156.909 94.3387 156.909 94.4467 156.909C95.8636 156.949 97.2805 156.97 98.711 156.97C102.854 156.97 106.943 156.808 110.944 156.491C110.991 156.491 111.031 156.491 111.079 156.484C112.833 156.342 114.56 156.174 116.281 155.978C116.557 155.944 116.834 155.917 117.111 155.883C118.001 155.775 118.878 155.661 119.756 155.539C119.857 155.526 119.951 155.512 120.052 155.499C120.869 155.384 121.685 155.263 122.495 155.134C122.657 155.107 122.826 155.08 122.987 155.06C123.365 154.999 123.75 154.925 124.128 154.865C124.229 154.844 124.33 154.824 124.438 154.811C124.924 154.73 125.403 154.649 125.889 154.561C126.584 154.433 127.265 154.298 127.953 154.163C128.223 154.109 128.493 154.062 128.756 154.008C129.492 153.859 130.214 153.697 130.936 153.535C131.131 153.495 131.32 153.454 131.509 153.414C132.191 153.259 132.859 153.097 133.527 152.942C133.79 152.874 134.053 152.813 134.309 152.753C134.842 152.618 135.362 152.483 135.881 152.341C136.259 152.247 136.637 152.152 137.015 152.051C137.561 151.903 138.101 151.747 138.641 151.592C139.005 151.491 139.37 151.39 139.727 151.282C140.308 151.113 140.881 150.938 141.455 150.755L142.386 150.472C142.919 150.297 143.452 150.121 143.985 149.946C144.309 149.831 144.639 149.73 144.963 149.615C145.422 149.46 145.881 149.291 146.333 149.129C146.704 149.001 147.075 148.873 147.446 148.731C147.918 148.563 148.384 148.38 148.85 148.198C149.227 148.057 149.605 147.915 149.976 147.766C150.442 147.584 150.907 147.389 151.366 147.2C151.717 147.058 152.068 146.916 152.405 146.775C152.453 146.754 152.493 146.734 152.54 146.714L153.613 146.248C153.991 146.08 154.376 145.918 154.747 145.749C155.212 145.54 155.658 145.324 156.116 145.115C156.427 144.966 156.751 144.818 157.061 144.669C157.452 144.481 157.837 144.285 158.221 144.096C158.593 143.907 158.964 143.725 159.328 143.536C159.767 143.32 160.185 143.091 160.61 142.861C160.907 142.706 161.21 142.544 161.507 142.382C161.696 142.281 161.878 142.18 162.061 142.072C162.216 141.984 162.364 141.903 162.519 141.815C162.897 141.606 163.282 141.39 163.653 141.168C163.761 141.107 163.862 141.046 163.963 140.986C164.247 140.817 164.523 140.655 164.8 140.493L165.691 139.946C166.082 139.704 166.467 139.461 166.851 139.211C167.135 139.029 167.418 138.847 167.695 138.671C167.87 138.556 168.039 138.435 168.207 138.32C168.363 138.219 168.511 138.118 168.659 138.017C168.983 137.794 169.314 137.571 169.631 137.349C169.989 137.099 170.339 136.836 170.697 136.58C170.96 136.391 171.217 136.202 171.473 136.02C171.817 135.756 172.154 135.493 172.492 135.23C172.755 135.034 173.005 134.832 173.261 134.636C173.605 134.36 173.936 134.083 174.273 133.806C174.509 133.604 174.752 133.408 174.982 133.213C175.319 132.929 175.636 132.646 175.96 132.363C176.169 132.167 176.398 131.978 176.614 131.782L177.606 130.851C177.883 130.581 178.166 130.318 178.436 130.055C174.685 131.6 169.732 132.72 163.876 131.114C163.855 131.108 163.835 131.108 163.815 131.108V131.101C148.505 142.085 124.985 149.116 98.6097 149.116C52.4709 149.116 15.0657 127.613 15.0657 101.079C15.0677 86.9308 25.702 74.2163 42.6179 65.424C42.6638 65.3998 42.7077 65.3788 42.7542 65.3519C43.6111 64.9113 44.4822 64.4794 45.3688 64.0564C45.5415 63.9747 45.7149 63.8931 45.8876 63.8115C46.7553 63.4039 47.6338 63.0052 48.5339 62.6186C48.5474 62.6118 48.5616 62.603 48.5771 62.599C48.5737 62.5012 48.5697 62.4033 48.5697 62.3035C48.5697 55.9881 52.0249 50.4553 57.4962 48.3799C63.0283 46.2781 70.6628 47.3307 75.487 50.794C77.0186 50.6895 79.5084 50.761 80.6486 50.8001C83.8671 46.5042 90.9112 44.7593 96.4776 47.0291C97.8676 47.5925 99.7905 49.1747 102.017 51.0059C102.881 51.7171 103.778 52.4491 104.675 53.1596C117.171 53.6771 128.905 55.7735 139.268 59.1039C142.278 58.7193 144.983 57.963 147.116 56.6554C148.155 55.6797 149.011 54.9625 149.7 54.4483C136.995 49.4621 122.131 46.2842 106.14 45.5265H106.133V45.5251C106.018 45.4347 105.903 45.3457 105.789 45.2593C105.728 45.2121 105.667 45.1655 105.607 45.1196C105.323 44.8943 105.033 44.6777 104.75 44.4672C104.736 44.4591 104.723 44.453 104.716 44.4449C104.439 44.2405 104.163 44.0428 103.886 43.8505C103.866 43.8336 103.839 43.8194 103.819 43.8026C103.555 43.6224 103.292 43.4409 103.029 43.2716C102.995 43.2473 102.962 43.2257 102.928 43.2034C102.678 43.0415 102.429 42.8829 102.186 42.7325C102.139 42.7014 102.091 42.6704 102.037 42.6421C101.808 42.5024 101.585 42.3681 101.356 42.2399C101.288 42.2008 101.221 42.163 101.147 42.1239C100.944 42.0098 100.742 41.8972 100.546 41.7946C100.445 41.7399 100.344 41.6927 100.236 41.6401C100.074 41.5578 99.9119 41.4741 99.75 41.4006C99.4869 41.2764 99.2305 41.1637 98.9808 41.0591C97.2131 40.3422 95.3643 39.8981 93.4953 39.7084C92.5575 39.6122 91.6196 39.5795 90.6818 39.6082ZM188.975 87.2962C187.363 88.871 184.731 91.2298 182.248 90.9889C181.965 90.9613 181.506 92.7236 181.371 93.0603C181.182 93.567 181.169 93.7323 181.304 94.26C181.405 94.6648 181.499 95.071 181.574 95.4799C181.911 97.1154 182.1 98.7786 182.134 100.449C182.174 102.223 182.039 103.998 181.756 105.745C181.688 106.157 181.607 106.562 181.52 106.966C181.425 107.412 181.688 107.452 181.965 107.769C182.336 108.194 182.613 108.694 182.835 109.22C183.395 110.63 183.53 112.27 183.375 113.781C184.475 113.336 185.912 112.965 187.073 113.403C188.489 113.943 188.28 115.643 188.132 116.865C190.527 111.98 191.883 106.615 191.883 101.164C191.883 96.3975 190.844 91.6744 188.975 87.2962ZM112.624 93.4638C112.536 93.4598 112.462 93.4679 112.428 93.4928C112.091 95.1864 111.322 96.8199 110.417 98.2827C109.304 100.084 107.725 102.156 105.728 103.012C104.291 103.626 102.408 103.242 102.071 101.513C101.889 100.58 102.3 99.6092 102.24 98.6544C102.179 97.7692 101.943 96.7652 101.295 96.1155C100.938 96.048 100.121 96.5237 99.7703 96.6438C99.3789 96.7801 99.082 98.4122 98.8864 98.8535C98.097 100.61 96.9162 102.169 95.4925 103.465C94.3927 104.47 93.1377 105.354 91.7613 105.941C90.5536 106.454 88.3945 106.642 87.7872 105.111C87.3959 104.119 88.1448 103.134 88.4417 102.23C88.7588 101.244 88.9207 100.208 88.9342 99.1753C88.9342 98.9162 89.0489 97.9278 88.8398 97.7179C88.3472 97.2072 87.2204 98.8063 86.9168 99.0869C85.2975 100.591 83.4622 101.872 81.4853 102.851C79.9672 103.599 77.8958 104.598 76.1685 104.139C75.4398 103.937 74.8258 103.431 74.6504 102.682C74.4412 101.799 74.8865 101.061 75.2576 100.301C75.9391 98.8994 76.5126 97.332 76.6071 95.7579C76.6543 95.0177 73.1862 94.316 72.552 94.1702C72.4508 94.1493 71.4252 93.8511 71.3712 93.9368C71.1486 94.2667 70.9529 94.6149 70.7707 94.9644C69.8801 96.6242 69.1514 98.5168 69.1649 100.424C69.1716 101.29 69.2256 102.061 68.4767 102.655C67.8289 103.174 66.945 103.282 66.1455 103.188C62.6106 102.763 59.8078 98.8616 58.8524 95.6776C52.8858 98.5688 52.7894 106.939 53.9027 112.513C54.4883 112.398 55.7953 112.128 55.7953 112.128C55.8094 111.285 56.0746 110.374 56.1866 110.043C56.8505 108.053 57.9766 105.988 59.486 104.504C60.9009 103.12 63.811 102.284 64.5504 104.794C65.1806 106.933 65.1779 109.206 66.9585 110.819C67.1184 109.922 67.3984 109.038 67.748 108.194C68.4092 106.602 69.5157 104.672 71.243 104.058C72.7611 103.519 74.4344 104.362 74.4547 106.082C74.4682 107.243 74.3805 108.269 74.6976 109.422C75.0012 110.509 75.4668 111.541 76.0066 112.526C76.3169 113.093 76.6475 113.646 77.0051 114.179C77.302 114.638 77.41 115.144 77.9835 114.901C78.7662 114.577 79.4072 113.97 79.8727 113.275C80.3585 112.54 80.6891 111.683 80.8038 110.806C80.9118 109.962 80.7566 109.119 81.0265 108.296C81.5325 106.784 83.0372 106.831 84.2652 107.425C87.9964 109.24 88.5294 113.727 89.1367 117.371C91.9907 116.325 93.5966 113.491 94.4332 110.725C94.8111 109.449 95.0607 108.134 95.1889 106.811C95.2969 105.691 95.2361 104.079 96.5248 103.599C97.8406 103.107 99.4194 104.072 100.458 104.787C101.68 105.617 102.78 106.622 103.805 107.682C104.055 107.938 104.304 108.201 104.547 108.471C104.588 108.518 105.924 107.85 106.086 107.783C107.111 107.371 108.346 107.189 109.21 106.474C110.606 105.32 111.45 103.586 111.807 101.83C112.07 100.506 111.517 98.6781 112.691 97.7213C114.176 96.5014 116.24 97.8097 117.488 98.7611C119.175 100.045 120.612 101.679 121.827 103.411C122.508 104.369 123.122 105.374 123.655 106.42C123.892 106.885 124.107 107.358 124.31 107.843C124.458 108.188 124.593 109.071 124.978 108.964C126.921 108.417 128.588 106.926 129.741 105.307C130.268 104.551 130.74 103.714 130.963 102.81C131.158 102.027 131.516 101.189 132.224 100.734C133.486 99.9189 135.051 100.843 135.942 101.793C137.177 103.107 137.723 105.273 138.182 106.96C138.803 109.254 139.221 111.683 139.12 114.071C141.785 113.518 144.309 112.195 146.508 110.617C148.559 109.146 150.044 107.459 151.387 105.354C146.555 103.579 142.096 101.055 137.346 99.091C133.115 97.3374 128.594 95.3982 124.027 94.733C123.473 94.652 123.352 94.7006 122.873 95.0501C122.421 95.3766 121.948 95.685 121.456 95.9515C120.781 96.324 120.025 96.6404 119.249 96.7058C118.183 96.7936 117.279 96.2747 116.807 95.3247C116.605 94.905 116.476 94.4435 116.422 93.9813C116.395 93.7654 115.714 93.8147 115.518 93.7944C114.837 93.7296 114.149 93.6608 113.46 93.594C113.339 93.5826 112.894 93.4746 112.624 93.4638ZM156.859 107.189C157.331 109.49 157.358 111.926 157.169 114.26C159.591 113.079 161.69 111.015 163.37 108.943C161.177 108.437 159.011 107.843 156.859 107.189Z" fill="#FA4616"/>
<path d="M91.8482 50.1508C89.3652 50.1062 87.0442 51.1669 85.1549 52.7262C87.3883 53.1749 89.5879 53.7916 91.6728 54.7132C92.7928 55.2058 93.8723 55.7752 94.9182 56.3946C95.3972 56.6794 95.6064 56.6922 96.1462 56.6834C96.5375 56.6794 96.9288 56.6861 97.3202 56.6996C100.006 56.788 102.684 57.1004 105.343 57.4836C104.27 57.3055 103.19 56.4466 102.32 55.8549C100.943 54.9177 99.621 53.9009 98.3525 52.8233C96.5308 51.2762 94.2704 50.1939 91.8482 50.1508ZM178.975 51.2276C176.634 51.1878 174.09 52.3571 172.309 53.6026C173.496 54.4481 174.373 55.8245 175.291 56.9337C176.29 58.13 177.335 59.3756 178.725 60.1151C180.325 60.9625 181.795 59.7473 183.421 60.0543C184.373 60.2358 183.988 60.8249 183.826 61.4841C183.718 61.9071 184.434 62.1905 184.569 62.6055C185.041 64.0527 180.898 62.7714 180.352 62.5886C178.496 61.9665 176.762 61.0347 175.156 59.9214C173.705 58.9127 172.477 57.7184 171.229 56.479C170.393 55.6585 169.502 54.8758 168.429 54.3934C165.143 52.9225 160.845 53.7821 157.654 55.0695C154.476 56.3528 151.082 58.2164 148.68 60.7081C147.418 62.0137 146.258 63.351 144.814 64.4731C143.93 65.164 142.979 65.7854 141.967 66.2773C141.204 66.6477 139.969 67.2975 139.092 67.1625C138.141 67.0107 139.153 66.3461 139.47 66.1639C140.023 65.8502 140.536 65.4656 141.049 65.0844C142.243 64.187 143.674 63.1547 144.456 61.8518C141.973 62.814 139.052 62.9098 136.427 63.0434C132.993 63.2201 129.525 63.1911 126.097 62.8551C122.879 62.538 119.694 61.8403 116.503 61.3356C111.854 60.6009 107.178 60.0024 102.475 59.6751C99.9853 59.5004 97.4754 59.5753 94.9856 59.4046C93.1706 59.2798 91.5715 57.9485 89.8847 57.3183C86.4167 56.0283 82.4628 55.1505 78.7451 55.2496C79.8786 57.4486 82.1524 59.1232 84.1024 60.5489C84.966 61.1798 85.8499 61.783 86.7608 62.3491C87.1926 62.6176 88.8052 63.3186 88.4543 63.967C87.9955 64.8145 85.9714 63.6877 85.4653 63.4428C84.1698 62.8139 82.9553 62.0225 81.7948 61.1683C79.4198 59.4248 77.2742 57.402 75.0206 55.5027C72.0721 53.0102 68.7997 51.5245 64.8755 51.5204C61.2839 51.5124 56.9482 52.7545 54.8795 55.9284C52.9437 58.8979 52.8978 63.042 53.8978 66.3427C54.1413 67.1484 54.4665 67.9344 54.8984 68.6597C55.1278 69.0437 55.7978 69.9046 55.5441 70.4019C55.1359 71.1974 52.6954 68.7873 52.3493 68.4479C50.8844 70.9295 49.5175 73.7627 49.7637 76.7247C49.8825 78.1625 50.4034 79.5295 51.1935 80.7271C51.429 81.0827 52.9302 82.7183 52.4221 83.2412C51.9438 83.7317 50.4857 82.4733 50.1686 82.2095C49.8224 81.9228 48.672 80.466 48.2895 80.6873C46.4664 81.7251 44.7688 82.9814 43.2318 84.4105C37.446 89.7812 34.1507 97.3321 33.0752 105.068C32.5131 109.103 32.3255 113.313 33.5218 117.246C34.5845 120.748 36.5911 123.899 39.1092 126.544C44.6412 132.347 52.3958 135.869 60.1626 137.461C63.9916 138.251 67.7539 138.406 71.6268 137.893C75.783 137.353 79.8719 136.274 83.8122 134.85C87.395 133.555 90.9373 131.962 94.1018 129.837C94.7697 129.385 95.404 128.757 96.1327 128.427C97.0435 128.015 98.1231 127.995 99.1082 128.015C100.701 128.056 102.286 128.15 103.878 128.17C111.732 128.265 119.626 127.954 127.453 127.273C129.1 127.131 130.753 126.962 132.392 126.753C134.504 126.477 136.474 126.537 138.573 126.821C142.371 127.32 146.244 127.34 150.07 127.34C153.255 127.34 156.466 127.165 159.651 127.293C161.763 127.381 163.868 127.59 165.98 127.732C167.781 127.853 169.644 128.002 171.445 127.725C175.251 127.124 179.029 125.201 181.937 122.712C183.273 121.578 184.521 120.215 185.216 118.589C185.513 117.908 186.384 115.351 184.913 115.398C184.089 115.425 183.314 115.958 182.578 116.295C181.897 116.605 181.195 116.882 180.486 117.132C178.86 117.712 177.18 118.164 175.493 118.535C171.654 119.372 167.741 119.817 163.828 120.047C156.439 120.492 148.808 120.343 141.521 118.954C137.938 118.265 134.504 116.747 131.178 115.31C127.932 113.907 124.754 112.314 121.468 111.019C117.447 109.433 112.643 109.42 108.5 110.54C105.424 111.376 102.617 113.144 99.8774 114.716C96.7129 116.518 93.5755 118.4 90.357 120.101C89.1358 120.742 87.9011 121.396 86.5988 121.848C84.2913 122.651 81.8016 122.651 79.467 121.943C76.0529 120.897 73.7319 118.387 70.7631 116.585C67.1311 114.379 62.8783 114.055 58.7423 114.689C56.8902 114.979 55.0475 115.499 53.4039 116.41C51.7562 117.321 50.6375 118.724 49.2368 119.945C47.884 121.133 45.3882 122.739 44.2195 120.418C43.8336 119.655 44.009 118.724 43.7978 117.901C43.6035 117.139 43.1953 116.45 42.8505 115.742C41.0457 112.078 40.1301 107.942 41.7899 104.035C42.5894 102.153 43.6892 100.39 44.8801 98.7308C45.4739 97.9062 46.0993 97.102 46.7869 96.3537C47.135 95.9792 47.8873 95.0724 48.5054 95.3733C49.2375 95.7235 47.0136 98.9393 46.7369 99.4453C45.9185 100.953 45.1102 102.47 44.399 104.035C42.4997 108.205 45.2748 112.922 47.0608 116.639C47.8435 115.965 48.6363 115.29 49.4358 114.629C49.9931 114.17 50.5538 113.711 51.1307 113.279C51.4991 113.002 51.2832 112.733 51.1887 112.308C51.0916 111.876 51.0032 111.444 50.9249 111.012C50.3588 107.841 50.346 104.535 51.2198 101.42C52.7231 96.0616 56.878 91.9491 62.2555 90.512C65.7061 89.5889 69.1033 89.9182 72.5444 90.6766C74.5955 91.1253 76.6265 91.6846 78.6236 92.3513C80.5938 93.0084 82.4695 93.8066 84.5207 94.1912C86.943 94.6467 89.4394 94.7458 91.9022 94.5826C93.9061 94.449 96.0247 94.2452 97.9342 93.5786C100.782 92.5847 103.44 90.9303 106.004 89.369C108.892 87.6134 111.712 85.7545 114.532 83.895C117.272 82.0894 119.883 80.3641 123.209 79.8298C127.453 79.1483 131.36 80.4863 135.368 81.6799C139.774 82.9881 144.436 84.3747 149.078 83.7182C151.905 83.3181 154.368 82.2075 156.891 80.9289C159.934 79.3878 162.93 77.755 165.953 76.1842C168.382 74.9245 170.858 73.5231 173.469 72.6831C175.318 72.0941 177.322 72.0408 179.238 72.0624C181.566 72.088 183.887 72.3053 186.188 72.6237C189.588 73.0981 193.171 70.0537 194.48 67.1207C196.106 63.4367 192.598 61.0583 189.69 59.6643C187.74 58.7292 186.046 57.7879 184.724 56.0033C183.988 55.0013 183.624 53.7733 182.767 52.8497C181.714 51.7107 180.378 51.2519 178.975 51.2276ZM48.7334 67.7624C46.1418 68.4782 43.2392 69.543 41.0929 71.2176C37.7807 73.7849 40.7501 78.6342 42.5091 81.1434C43.4423 80.4013 44.3059 79.5565 45.204 78.7684C45.347 78.645 46.0372 78.2091 46.0453 78.0175C46.0663 77.529 46.0858 77.0391 46.1081 76.552C46.1648 75.2747 46.2606 74.1972 46.6303 72.9557C47.1566 71.1798 47.8124 69.3763 48.7334 67.7624ZM40.7447 82.642C38.2719 82.7311 35.6789 83.1737 33.3572 84.0495C31.3445 84.8099 30.2973 86.4501 30.6792 88.6167C31.051 90.6739 31.746 92.7379 32.5556 94.6615C34.3888 90.124 37.1383 85.9603 40.7447 82.642ZM31.5665 97.4103C30.0855 98.1181 28.7225 99.1275 27.4325 100.131C26.2018 101.089 24.8712 102.112 24.1229 103.509C23.1061 105.419 23.9253 107.045 25.1101 108.61C26.359 110.25 27.8224 111.781 29.4681 113.029C29.4519 112.699 29.4472 112.361 29.4472 112.031C29.4472 107.092 30.0652 102.126 31.5665 97.4103ZM135.312 129.041C134.934 129.054 134.543 129.169 134.178 129.223C133.099 129.385 132.012 129.526 130.926 129.648C130.184 129.729 129.057 129.648 128.524 130.302C128.065 130.869 128.632 131.497 129.152 131.74C133.207 133.662 138.125 133.77 142.511 133.305C146.094 132.927 150.574 132.178 153.388 129.695C148.125 129.81 142.781 130.026 137.545 129.364C136.924 129.284 136.304 129.189 135.683 129.068C135.561 129.041 135.44 129.034 135.312 129.041ZM123.835 130.302C123.551 130.309 123.275 130.343 122.978 130.363C121.939 130.437 120.9 130.505 119.854 130.565C117.526 130.714 115.198 130.829 112.864 130.916C108.438 131.085 103.998 131.213 99.5717 131.024C99.0117 131.004 98.3572 130.761 98.0604 131.314C97.9119 131.584 97.8512 131.888 97.8849 132.198C97.9659 133.055 98.6744 133.73 99.3356 134.209C100.975 135.397 103.229 136.139 105.199 136.604C109.382 137.589 113.829 137.562 118.093 137.212C121.244 136.955 124.476 136.523 127.492 135.545C128.254 135.302 130.38 134.742 129.435 133.696C128.49 132.664 127.505 131.713 126.257 131.045C125.751 130.775 125.225 130.559 124.678 130.404C124.388 130.323 124.111 130.302 123.835 130.302ZM92.7098 135.349C91.7584 135.322 90.8813 135.437 89.9502 135.855C88.2971 136.591 86.6036 137.245 84.8965 137.832C81.4757 139.006 77.9536 139.924 74.3978 140.599C79.2019 142.508 84.9505 142.522 90.0379 142.299C92.8245 142.177 95.6044 141.901 98.3505 141.442C99.7607 141.206 101.164 140.922 102.547 140.592C103.485 140.356 105.064 140.214 105.813 139.573C106.589 138.932 104.598 138.433 104.153 138.271C103.208 137.927 102.264 137.583 101.306 137.259C98.843 136.436 96.2926 135.673 93.6881 135.417C93.3508 135.376 93.0269 135.356 92.7098 135.349Z" fill="#046A38"/>
<path d="M91.1451 37.5352C86.2669 37.5616 81.4156 39.1232 77.5427 42.088C70.5256 38.4549 61.5363 37.8073 54.5698 40.4489C47.9177 42.9699 42.6326 48.5455 40.402 55.3805C29.3925 60.5536 20.2318 67.2455 13.9191 74.7382C7.10039 82.8275 3.49805 91.9679 3.49805 101.163C3.49791 111.824 8.26226 122.221 17.2786 131.235C25.6289 139.588 37.4332 146.565 51.4087 151.416C65.727 156.382 82.0836 159.007 98.7088 159.007C135.407 159.007 167.314 146.322 183.204 127.794C183.44 127.504 183.643 127.234 183.784 127.039C183.811 127.005 183.832 126.971 183.852 126.944C183.548 127.194 183.251 127.43 182.975 127.626C181.355 128.793 180.107 129.211 178.454 130.041C178.231 130.257 178.076 130.399 178.049 130.426C177.887 130.581 177.719 130.736 177.55 130.898C177.246 131.181 176.95 131.472 176.639 131.748C176.632 131.762 176.626 131.768 176.612 131.782C176.396 131.978 176.167 132.167 175.958 132.362C175.937 132.369 175.931 132.382 175.917 132.396C175.614 132.666 175.317 132.929 174.993 133.199C174.993 133.206 174.986 133.206 174.979 133.212C174.75 133.408 174.507 133.604 174.271 133.806C174.251 133.82 174.23 133.84 174.21 133.853C173.9 134.11 173.596 134.359 173.286 134.609L173.259 134.636C173.002 134.838 172.753 135.034 172.49 135.23C172.476 135.243 172.449 135.264 172.429 135.277C172.119 135.52 171.815 135.756 171.498 135.992C171.484 135.999 171.478 136.006 171.471 136.019C171.214 136.208 170.958 136.39 170.695 136.579C170.654 136.606 170.621 136.64 170.573 136.667C170.263 136.89 169.959 137.119 169.642 137.342C169.642 137.348 169.629 137.348 169.629 137.348C169.163 137.679 168.684 137.996 168.205 138.32C168.043 138.435 167.881 138.543 167.713 138.657C167.706 138.657 167.699 138.664 167.692 138.671C167.416 138.853 167.132 139.028 166.849 139.211C166.788 139.244 166.734 139.285 166.68 139.325C166.356 139.528 166.039 139.73 165.715 139.933C165.709 139.939 165.695 139.946 165.688 139.946C165.398 140.128 165.095 140.31 164.798 140.493C164.737 140.526 164.683 140.56 164.629 140.594C164.406 140.722 164.184 140.85 163.961 140.985C163.34 141.35 162.706 141.714 162.058 142.071C161.883 142.173 161.708 142.274 161.525 142.375C161.519 142.375 161.512 142.382 161.505 142.382C161.208 142.544 160.905 142.706 160.608 142.861L160.345 143.003C160.007 143.178 159.677 143.36 159.333 143.536H159.326C158.961 143.725 158.59 143.907 158.219 144.096C158.186 144.109 158.145 144.129 158.111 144.15C157.767 144.318 157.43 144.487 157.086 144.656C157.079 144.662 157.065 144.662 157.059 144.669C156.748 144.818 156.424 144.966 156.114 145.114C156.02 145.155 155.918 145.202 155.824 145.249C155.473 145.411 155.129 145.573 154.771 145.735C154.765 145.742 154.758 145.742 154.744 145.749C154.373 145.917 153.989 146.079 153.611 146.248C153.57 146.268 153.523 146.282 153.489 146.302C153.172 146.437 152.855 146.579 152.538 146.714C152.147 146.882 151.755 147.037 151.364 147.199C151.27 147.24 151.182 147.274 151.087 147.314C150.723 147.462 150.352 147.618 149.981 147.766H149.974C149.603 147.915 149.225 148.056 148.847 148.198L148.645 148.279C148.267 148.421 147.883 148.569 147.498 148.711C147.484 148.717 147.464 148.724 147.444 148.731C147.08 148.873 146.702 149.001 146.331 149.129C146.27 149.156 146.209 149.176 146.148 149.197C145.757 149.338 145.366 149.48 144.968 149.615H144.961C144.637 149.73 144.306 149.831 143.983 149.945L143.598 150.067C143.193 150.202 142.795 150.337 142.384 150.472L141.452 150.755C141.297 150.802 141.149 150.85 140.994 150.897C140.582 151.018 140.17 151.153 139.759 151.275C139.745 151.281 139.739 151.281 139.725 151.281C139.368 151.389 139.003 151.491 138.639 151.592C138.544 151.619 138.45 151.646 138.355 151.673C137.93 151.794 137.505 151.916 137.08 152.03C137.06 152.037 137.033 152.044 137.013 152.051C136.642 152.152 136.257 152.246 135.879 152.341C135.812 152.361 135.738 152.381 135.663 152.401C135.225 152.516 134.793 152.631 134.354 152.739C134.341 152.739 134.327 152.746 134.307 152.752C134.051 152.813 133.788 152.874 133.524 152.941C133.322 152.988 133.126 153.029 132.924 153.083C132.479 153.184 132.033 153.299 131.581 153.393C131.561 153.4 131.534 153.407 131.507 153.414C131.318 153.454 131.129 153.495 130.933 153.535C130.67 153.596 130.407 153.65 130.144 153.71C129.685 153.805 129.233 153.906 128.774 154.001C128.768 154.001 128.761 154.001 128.754 154.007C128.491 154.061 128.221 154.109 127.951 154.162L127.303 154.284C126.845 154.372 126.386 154.466 125.927 154.554C125.914 154.554 125.9 154.554 125.887 154.561C125.3 154.669 124.713 154.763 124.126 154.864C123.761 154.925 123.404 154.992 123.032 155.053C123.019 155.053 122.999 155.053 122.985 155.06C122.823 155.08 122.655 155.107 122.493 155.134C122.169 155.181 121.845 155.229 121.521 155.283C121.049 155.35 120.583 155.424 120.104 155.492C120.091 155.492 120.07 155.498 120.05 155.498C119.949 155.512 119.855 155.525 119.753 155.539C119.362 155.593 118.971 155.64 118.579 155.694C118.1 155.755 117.628 155.822 117.142 155.876C117.135 155.883 117.122 155.883 117.108 155.883C116.832 155.917 116.555 155.944 116.279 155.977C116.036 155.998 115.799 156.025 115.557 156.052C115.091 156.106 114.619 156.16 114.146 156.207C113.593 156.268 113.04 156.308 112.487 156.355C112.028 156.403 111.576 156.443 111.124 156.484H111.076C111.029 156.49 110.989 156.49 110.941 156.49C110.422 156.531 109.902 156.564 109.383 156.605C108.938 156.632 108.506 156.666 108.06 156.693C107.44 156.733 106.812 156.76 106.185 156.787C105.78 156.807 105.375 156.834 104.97 156.848C104.248 156.882 103.526 156.895 102.798 156.915C102.487 156.922 102.17 156.936 101.853 156.942C100.807 156.963 99.7613 156.969 98.7088 156.969C97.2784 156.969 95.8614 156.949 94.4445 156.909C94.3366 156.909 94.2219 156.909 94.1071 156.902C92.7645 156.868 91.4352 156.807 90.1128 156.733C89.9306 156.72 89.7484 156.713 89.573 156.706C88.291 156.632 87.0226 156.538 85.7541 156.43C85.5382 156.416 85.3223 156.396 85.0996 156.382C83.8649 156.268 82.6369 156.146 81.4156 156.011C81.1862 155.984 80.9501 155.957 80.7139 155.93C79.5129 155.789 78.3119 155.633 77.1244 155.458C76.895 155.431 76.6588 155.397 76.4294 155.363C75.2352 155.188 74.0477 154.999 72.8736 154.797C72.6712 154.763 72.4688 154.723 72.2597 154.689C71.0586 154.473 69.8711 154.25 68.6904 154.007C68.5419 153.98 68.3935 153.947 68.2451 153.92C67.0319 153.663 65.8309 153.4 64.642 153.123C64.609 153.117 64.5746 153.11 64.5415 153.103C64.4835 153.083 64.4241 153.069 64.3641 153.056C63.5119 152.854 62.6644 152.644 61.8244 152.422C61.543 152.354 61.263 152.273 60.981 152.199C60.1396 151.976 59.3036 151.754 58.4758 151.518C58.4225 151.497 58.3671 151.484 58.3152 151.464C58.2538 151.45 58.1951 151.43 58.1343 151.416C57.3415 151.187 56.5589 150.944 55.7796 150.701C55.5137 150.62 55.2499 150.539 54.9847 150.452C54.3181 150.242 53.6535 150.02 52.9936 149.797C52.8101 149.736 52.6259 149.676 52.4458 149.615C51.6428 149.338 50.8473 149.055 50.0593 148.765C49.8231 148.677 49.5856 148.589 49.3515 148.502C48.7375 148.272 48.1302 148.036 47.525 147.8C47.3071 147.712 47.0851 147.624 46.8685 147.537C46.1027 147.233 45.3443 146.916 44.5954 146.599C44.4031 146.511 44.2094 146.43 44.0171 146.342C43.422 146.086 42.8316 145.823 42.248 145.553C42.0213 145.452 41.7946 145.351 41.5713 145.243C40.8399 144.905 40.1139 144.561 39.402 144.204C39.2853 144.15 39.1733 144.089 39.0593 144.035C38.4412 143.725 37.8279 143.414 37.2247 143.09C37.0054 142.976 36.7861 142.861 36.5682 142.739C35.9697 142.422 35.376 142.092 34.7896 141.761C34.6817 141.7 34.5703 141.64 34.4624 141.579C33.7924 141.201 33.1345 140.81 32.4834 140.418C32.2871 140.297 32.0887 140.175 31.8931 140.047C31.3762 139.73 30.8681 139.413 30.3668 139.089C30.2076 138.988 30.0484 138.887 29.8925 138.786C29.2697 138.374 28.6584 137.962 28.0552 137.544C27.8886 137.429 27.728 137.308 27.5627 137.193C27.0931 136.863 26.6255 136.518 26.1667 136.181C25.9973 136.053 25.8273 135.925 25.6586 135.803C25.0831 135.365 24.517 134.926 23.9624 134.481C23.8456 134.393 23.735 134.299 23.6223 134.204C23.1635 133.833 22.7128 133.455 22.2702 133.077C22.1089 132.936 21.9456 132.794 21.785 132.652C21.275 132.207 20.7703 131.762 20.2818 131.303C20.2386 131.262 20.194 131.222 20.1509 131.181C19.661 130.723 19.1867 130.257 18.7198 129.792C18.5767 129.643 18.4337 129.501 18.292 129.36C17.8946 128.948 17.5053 128.543 17.1254 128.132C17.0343 128.03 16.9419 127.936 16.8528 127.842C16.4055 127.349 15.9689 126.85 15.5439 126.344C15.4271 126.209 15.3111 126.06 15.1937 125.925C14.8597 125.521 14.5331 125.116 14.216 124.704C14.1114 124.569 14.0055 124.441 13.9036 124.306C13.5136 123.793 13.1324 123.274 12.766 122.747C12.6817 122.633 12.6007 122.511 12.5184 122.39C12.2242 121.958 11.9388 121.526 11.6602 121.094C11.5657 120.946 11.4685 120.791 11.3734 120.642C11.0401 120.103 10.7155 119.563 10.4086 119.016C10.3701 118.949 10.3357 118.881 10.2979 118.814C10.0246 118.328 9.76554 117.835 9.51657 117.336C9.4356 117.181 9.35733 117.019 9.28042 116.857C9.03617 116.358 8.80069 115.859 8.57803 115.352C8.54969 115.285 8.5173 115.218 8.48829 115.15C8.24404 114.59 8.02071 114.017 7.8075 113.45C7.74812 113.295 7.69347 113.139 7.63747 112.984C7.46744 112.512 7.30685 112.04 7.15639 111.561C7.11928 111.439 7.0761 111.318 7.03899 111.196C6.8643 110.616 6.70561 110.036 6.56054 109.449C6.52512 109.307 6.49496 109.172 6.46041 109.03C6.34909 108.551 6.2474 108.072 6.15463 107.593C6.12683 107.445 6.09552 107.29 6.06766 107.141C5.96308 106.547 5.86956 105.947 5.79622 105.353C5.78185 105.252 5.77591 105.151 5.76322 105.049C5.70425 104.537 5.6577 104.017 5.62227 103.498C5.61215 103.336 5.60035 103.167 5.59191 103.005C5.55737 102.391 5.53658 101.78 5.53658 101.163V101.16C5.53658 83.1001 19.8643 67.0403 42.0795 56.8399C42.1936 56.4324 42.3231 56.0309 42.4608 55.6362C42.4871 55.5674 42.5134 55.4999 42.5383 55.4351C42.6503 55.1194 42.7671 54.8137 42.8919 54.506C42.9567 54.3427 43.0336 54.1815 43.1051 54.0196C43.1928 53.8185 43.2819 53.6174 43.375 53.4184C43.4762 53.2072 43.5848 52.9967 43.6928 52.7889C43.7643 52.6512 43.8358 52.5116 43.9087 52.3746C44.0416 52.133 44.1786 51.8942 44.3216 51.6553C44.3756 51.5629 44.433 51.4684 44.4903 51.3746C44.6522 51.1108 44.8196 50.8524 44.9923 50.5933C45.0308 50.536 45.0706 50.4759 45.1124 50.4192C45.3034 50.1392 45.5004 49.8639 45.7055 49.5927C45.7271 49.5657 45.7487 49.536 45.7696 49.507C45.9943 49.2169 46.2216 48.9308 46.4578 48.6508L46.4605 48.6494C47.3127 47.6387 48.2532 46.7103 49.27 45.8716C49.2734 45.8716 49.2728 45.8703 49.2741 45.8703C50.662 44.7259 52.1882 43.7469 53.8258 42.9777C53.8561 42.9656 53.8851 42.9494 53.9142 42.9352C54.3615 42.7294 54.8142 42.5324 55.2764 42.357C55.2805 42.3543 55.2852 42.3516 55.2899 42.3475C62.0763 39.7794 70.8902 40.6402 77.354 44.3009C77.5767 44.2961 77.8061 44.2961 78.0287 44.3009C78.0692 44.2651 78.1164 44.2374 78.1569 44.203C78.501 43.9149 78.8586 43.6369 79.2297 43.3731C79.3714 43.2726 79.5199 43.1774 79.6683 43.0803C79.9517 42.8866 80.2418 42.7011 80.5387 42.523C80.7006 42.4285 80.8626 42.3354 81.0312 42.2436C81.3416 42.0689 81.6587 41.9063 81.9826 41.7491C82.1243 41.6769 82.2727 41.6013 82.4212 41.5331C83.3725 41.098 84.3576 40.733 85.3764 40.4421C85.5316 40.3973 85.6868 40.363 85.842 40.3208C86.2064 40.2263 86.5707 40.1392 86.9351 40.0625C87.1172 40.0262 87.2927 39.99 87.4681 39.9571C87.8459 39.8896 88.217 39.8347 88.5949 39.7858C88.7568 39.7647 88.912 39.7416 89.0739 39.7238C92.3936 39.3738 95.8279 39.7768 98.9789 41.0588C99.2285 41.1634 99.4849 41.2761 99.748 41.4002C99.91 41.4738 100.072 41.5574 100.234 41.6398C100.342 41.6924 100.443 41.7396 100.544 41.7943C100.74 41.8968 100.942 42.0095 101.145 42.1235C101.219 42.1627 101.286 42.2004 101.354 42.2396C101.583 42.3678 101.806 42.502 102.035 42.6417C102.089 42.6701 102.137 42.7011 102.184 42.7321C102.427 42.8826 102.676 43.0412 102.926 43.2031C102.96 43.2254 102.993 43.2469 103.027 43.2712C103.29 43.4406 103.553 43.6221 103.817 43.8022C103.837 43.8191 103.864 43.8333 103.884 43.8501C104.161 44.0424 104.437 44.2401 104.714 44.4446C104.721 44.4527 104.734 44.4587 104.748 44.4668C105.031 44.6774 105.321 44.8939 105.605 45.1193H105.611C105.665 45.1652 105.726 45.2117 105.787 45.259C105.901 45.3474 106.016 45.4344 106.131 45.5248C122.129 46.2832 136.993 49.4618 149.704 54.448C150.757 53.6566 151.418 53.3259 151.749 53.1869C138.437 47.7163 123.06 44.3582 106.887 43.5243C104.316 41.5358 101.846 40.0295 99.748 39.1743C97.0019 38.056 94.0667 37.5194 91.1451 37.5352ZM104.673 53.1598C106.65 54.713 108.668 56.1387 110.429 56.8728C111.697 57.0144 113.33 57.2695 115.219 57.5637C121.771 58.5892 131.487 60.0999 139.266 59.1041C128.903 55.7736 117.169 53.6773 104.673 53.1598ZM48.5749 62.5991C47.6566 62.9918 46.7606 63.4034 45.8726 63.819C45.7073 63.8966 45.5393 63.9735 45.3753 64.0525C44.484 64.4775 43.6035 64.9114 42.7439 65.3587C42.7075 65.379 42.6717 65.3958 42.636 65.4154C42.0672 65.7109 41.5186 66.0186 40.9647 66.3229C40.6678 66.4869 40.3622 66.6448 40.0687 66.8107C40.0531 66.8195 40.0369 66.8283 40.0214 66.837C39.9594 66.8721 39.8966 66.9059 39.8352 66.941C39.8298 66.9443 39.8237 66.947 39.8183 66.9504C39.0343 67.3971 38.2678 67.8525 37.5148 68.3167L37.5135 68.3181C23.5919 76.9005 15.0655 88.414 15.0655 101.079C15.0655 127.613 52.4687 149.116 98.6096 149.116C124.984 149.116 148.505 142.085 163.815 131.101C162.546 130.777 159.719 130.764 157 130.797C151.4 136.998 138.398 136.978 132.271 136.586C131.833 137.207 131.246 137.713 130.578 138.051C126.799 139.933 117.252 141.417 109.108 140.722C108.744 141.606 107.954 142.666 106.16 143.212C94.1159 146.883 76.5327 146.458 70.1026 142.409C56.096 143.624 33.5866 134.906 29.043 118.173C25.2416 115.886 21.5799 111.129 20.4167 108.997C20.0328 108.302 19.4863 107.007 19.4863 105.36C19.4863 103.815 19.9721 101.966 21.5381 100.001C22.7087 98.5402 25.6586 96.174 28.118 94.6734C27.4534 92.8321 26.8576 90.758 26.6066 89.3505C26.5027 88.7777 26.4561 88.2183 26.4561 87.6745C26.4561 84.7064 27.9392 82.2119 30.6205 80.8153C31.9551 80.1176 34.1831 79.4665 36.5601 79.0495C36.2092 78.25 35.9353 77.499 35.7666 76.8115C35.5797 76.076 35.4913 75.3298 35.4913 74.595C35.4913 72.0061 36.5905 69.5353 38.5195 68.032C39.929 66.9383 43.835 64.8891 48.6316 63.707C48.6025 63.3346 48.583 62.9682 48.5769 62.5991H48.5749Z" fill="#003087"/>
<path d="M66.3688 58.1161C64.4721 58.0999 62.5937 59.2726 60.89 61.0721C60.0163 61.9944 60.162 62.7737 61.473 62.1894C62.7017 61.6436 64.2373 60.8791 65.1124 61.1686C62.9284 68.3038 64.5288 75.1481 72.0992 75.2912C70.5001 77.038 67.2972 77.3275 65.2575 77.3275C63.2192 77.3275 63.3285 78.2404 65.1124 78.4961C72.2476 79.517 78.6507 76.6015 83.2119 70.778L86.1267 70.195C88.0699 69.6168 87.4559 68.1634 85.931 68.4495C82.8273 69.0318 79.9125 69.0311 75.4458 65.5354C72.6929 63.3823 70.7902 59.7159 68.2668 58.55C67.6345 58.2592 67.0003 58.1215 66.3688 58.1161ZM162.827 60.6032C162.382 60.6146 161.923 60.6598 161.484 60.732C160.101 60.9621 156.896 63.0726 155.958 64.2257C154.643 65.8248 155.52 67.2849 157.416 66.9901C159.305 66.7013 161.923 64.5179 162.652 63.7892C163.38 63.0618 163.812 62.7737 165.27 63.937C166.727 65.1015 169.352 66.4105 172.408 66.4105C174.297 66.4105 174.297 65.5522 172.55 65.2466C170.08 64.8094 167.746 64.0807 166.005 61.6071C165.458 60.8386 164.176 60.5681 162.827 60.6032Z" fill="#003087"/>
<path d="M67.5883 63.2061C65.2579 68.6942 67.1963 72.6205 71.1273 73.2533C74.4604 73.7877 77.193 73.3971 79.089 70.4856C79.089 70.4856 75.9853 69.2745 75.2498 68.5472C74.5211 69.7104 72.8276 70.7299 71.6131 70.9222C70.0005 71.1806 69.7306 70.5416 70.7899 69.566C71.4646 68.9317 72.3418 67.4784 72.1933 66.5088C71.667 65.7781 68.7522 63.4476 67.5883 63.2061ZM193.37 74.1258C192.425 74.2081 191.629 75.092 190.901 75.625C190.064 76.2403 188.849 76.3807 187.844 76.2343C187.594 78.9311 186.177 81.6017 184.882 83.9301C184.275 85.0313 183.56 86.0548 182.912 87.1283C182.082 88.5088 183.465 88.5216 184.423 88.0298C186.96 86.7113 188.883 84.0388 190.368 81.6779C191.724 79.5283 193.37 76.7592 193.37 74.1258ZM181.38 75.2586C180.49 75.2586 179.619 75.3241 178.81 75.4381C179.295 78.0655 178.627 80.8845 177.851 83.387C177.048 85.9746 175.976 88.498 174.673 90.8697C174.167 91.7799 174.269 92.738 175.49 92.1773C176.414 91.7542 177.19 90.9999 177.878 90.2685C179.646 88.3887 181.09 86.177 182.345 83.9247C183.755 81.3918 184.97 78.693 185.658 75.8726C184.369 75.4415 182.858 75.2593 181.38 75.2586ZM175.928 75.5778C175.854 75.5784 175.76 75.5879 175.652 75.5973C174.761 75.6776 173.898 75.9367 173.061 76.2329C171.401 76.824 170.004 77.6944 168.527 78.639C167.535 79.2759 166.516 79.8811 165.443 80.3717C164.937 80.6038 164.424 80.8102 163.891 80.9701C163.986 81.4155 164.067 81.8702 164.128 82.3223C164.411 84.4166 164.411 86.5514 164.296 88.6586C164.195 90.5026 164.006 92.3588 163.635 94.1724C163.493 94.8579 163.075 95.8208 163.547 96.457C163.959 97.0204 164.823 96.7802 165.349 96.5468C167.272 95.6899 168.932 93.7581 170.268 92.1982C171.556 90.6983 172.568 89.0439 173.439 87.2707C174.943 84.1906 176.448 80.5383 176.401 77.0487C176.394 76.6924 176.367 76.3334 176.293 75.9812C176.225 75.6459 176.151 75.5751 175.928 75.5778ZM124.4 82.9032C123.914 82.9167 123.428 82.9896 122.956 83.0935C120.426 83.6481 117.626 85.0205 115.784 86.8659C117.093 88.0021 118.159 89.4811 118.489 91.2084C118.611 91.8149 118.638 92.4411 118.564 93.0558C118.51 93.5031 118.388 94.1731 118.813 94.499C119.778 95.2385 121.667 93.5949 122.302 92.9647C123.442 91.8345 124.312 90.4277 124.953 88.9629C125.655 87.3645 126.12 85.6102 126.087 83.8573C126.08 83.4423 126.161 83.1718 125.736 83.0496C125.459 82.9693 125.169 82.9268 124.886 82.9113C124.724 82.9012 124.562 82.8992 124.4 82.9032ZM158.939 83.5165C157.59 84.87 155.525 85.6008 153.744 86.1925C151.969 86.7856 150.06 87.3267 148.17 87.3746C149.236 89.4413 149.284 92.1705 149.102 94.4383C149.034 95.2587 148.582 96.2627 148.845 97.0596C149.223 98.2585 150.674 97.6169 151.375 97.1264C155.66 94.1299 158.284 88.5945 158.939 83.5165ZM132.524 84.0988C133.232 86.1189 133.192 88.4643 133.043 90.5721C132.989 91.4202 132.908 92.2906 132.692 93.1151C132.503 93.8405 132.254 94.727 133.198 95.0246C134.946 95.5772 137.436 93.5949 138.677 92.5855C140.458 91.149 142.152 89.2348 142.638 86.9401C139.176 86.3612 135.85 85.173 132.524 84.0988ZM110.393 89.6322C109.354 90.62 108.038 91.3541 106.796 92.0545C105.44 92.8196 104.044 93.5416 102.606 94.1454C103.571 95.6298 104.179 97.629 104.057 99.4116C104.017 100.016 103.484 100.966 104.165 101.382C104.948 101.868 105.865 100.991 106.385 100.497C109.151 97.8659 111.196 93.4923 110.393 89.6322ZM66.4859 91.9769C64.5406 91.9883 62.2709 92.375 60.7487 93.4883C61.0503 96.1662 62.225 99.0237 64.4266 100.695C65.0588 101.175 66.6593 102.158 67.278 101.163C67.6113 100.625 67.4102 99.8192 67.4534 99.222C67.5067 98.4724 67.6477 97.7289 67.8447 97.0029C68.2226 95.5974 68.7961 94.2433 69.4978 92.9714C69.7002 92.6111 69.7205 92.5875 69.3426 92.4114C69.1537 92.3244 68.958 92.2549 68.7556 92.2022C68.2833 92.074 67.784 92.0167 67.2969 91.9937C67.0351 91.9809 66.7638 91.9749 66.4859 91.9769ZM78.8697 94.6555C79.0046 96.4402 78.114 98.3807 77.3043 99.919C77.0075 100.481 76.299 101.217 76.2788 101.861C76.245 102.677 77.3381 102.576 77.8576 102.455C80.9748 101.737 84.8073 99.5216 86.2242 96.5468C83.8154 96.345 81.0625 95.6946 78.8697 94.6555ZM97.654 95.8194C95.5691 96.5765 92.9579 97.0225 90.7381 96.8369C90.9742 98.5318 90.7516 100.365 90.3467 102.016C90.178 102.698 89.8204 103.251 89.6113 103.899C89.3751 104.647 90.1376 104.816 90.7043 104.661C92.5328 104.162 94.3006 102.347 95.4409 100.906C96.5879 99.4582 97.5258 97.6958 97.654 95.8194ZM114.387 99.1849C113.982 99.193 113.712 99.4724 113.888 100.259C114.401 102.623 112.963 105.929 111.121 107.394C112.855 106.928 114.812 107.016 116.58 107.184C118.651 107.38 120.945 107.785 122.693 108.993C122.43 107.94 121.782 106.955 121.202 106.051C120.433 104.87 119.589 103.743 118.672 102.664C117.801 101.627 116.87 100.55 115.77 99.7423C115.359 99.4413 114.799 99.1768 114.387 99.1849ZM133.691 102.691C133.3 102.698 132.982 103.19 132.814 103.831C132.584 104.661 132.173 105.45 131.714 106.186C130.594 107.987 128.914 109.809 126.768 110.302C128.388 110.902 129.987 111.53 131.565 112.218C133.266 112.953 135.067 113.729 136.525 114.89C136.977 112.886 136.552 110.632 136.154 108.655C135.803 106.901 135.445 104.796 134.447 103.264C134.183 102.853 133.92 102.684 133.691 102.691ZM61.9679 105.025C60.8661 105.127 59.8419 106.78 59.3878 107.535C58.516 108.999 57.8568 110.7 57.7671 112.414C60.1536 111.732 63.2998 111.267 65.7018 112.123C64.6256 111.159 63.9793 109.654 63.5441 108.304C63.3558 107.724 63.1878 107.117 63.1554 106.51C63.1278 105.963 63.0475 105.288 62.4436 105.079C62.2844 105.025 62.1258 105.005 61.9679 105.025ZM97.6034 105.201C97.1648 105.181 96.8747 105.484 97.0029 106.449C97.1648 107.697 96.8612 109.06 96.5778 110.268C96.2539 111.631 95.8288 113.075 95.0597 114.256C97.4684 112.353 100.424 111.334 103.19 110.086C102.434 108.507 100.829 107.265 99.4926 106.199C98.9865 105.795 98.1701 105.228 97.6034 105.201ZM72.0246 105.545C71.8897 105.552 71.7345 105.599 71.5456 105.687C70.574 106.159 69.987 107.495 69.5754 108.419C68.9682 109.769 68.4958 111.287 68.5431 112.778C69.4 113.041 70.2231 113.48 71.0126 113.891C72.1259 114.471 73.2189 115.099 74.2647 115.801C74.9529 116.253 75.7626 116.759 76.2551 117.44C76.2551 116.212 75.4792 114.849 74.7978 113.871C73.6642 112.231 72.6117 109.836 72.6184 107.825C72.6251 107.205 72.9423 105.477 72.0246 105.545ZM153.707 106.57C153.099 106.651 152.6 107.61 152.391 108.048C151.446 110.072 149.577 111.644 147.776 112.893C145.839 114.229 143.673 115.355 141.406 115.983C143.451 116.725 145.718 116.921 147.87 117.076C149.085 117.157 150.292 117.204 151.507 117.224C152.013 117.231 152.512 117.238 153.018 117.231C153.43 117.231 154.098 117.393 154.206 116.961C154.813 114.384 154.752 111.671 154.671 109.04C154.651 108.412 154.8 106.84 153.976 106.591C153.889 106.564 153.794 106.557 153.707 106.57ZM167.876 106.78C167.174 106.766 166.594 107.94 166.378 108.412C165.548 110.173 163.989 111.705 162.606 113.021C160.899 114.647 158.969 116.253 156.763 117.15C158.949 117.447 161.189 117.508 163.389 117.44C164.489 117.406 165.582 117.332 166.668 117.177C167.133 117.116 167.592 117.029 168.044 116.921C168.631 116.779 168.598 116.604 168.685 116.03C169.029 113.81 169.205 111.489 169.029 109.249C168.969 108.52 168.915 107.265 168.186 106.867C168.078 106.807 167.977 106.78 167.876 106.78ZM180.156 108.635C179.65 108.716 179.454 109.539 179.245 109.917C178.732 110.828 178.017 111.651 177.288 112.414C177.207 113.473 176.856 114.532 176.566 115.544C177.922 115.612 179.704 115.45 180.824 114.606C181.869 113.837 181.68 111.422 181.444 110.315C181.33 109.742 181.053 108.811 180.392 108.649C180.304 108.628 180.23 108.622 180.156 108.635ZM173.739 108.757C173.658 108.763 173.577 108.784 173.483 108.817C172.518 109.182 171.843 110.74 171.249 111.543C171.323 113.135 171.081 114.768 170.885 116.347C172.059 116.415 173.28 116.199 174.441 115.983C174.744 115.929 175.034 114.438 175.095 114.175C175.264 113.419 175.358 112.643 175.352 111.874C175.338 111.051 174.967 108.608 173.739 108.757ZM83.333 108.952C82.665 108.972 82.4424 109.681 82.584 110.234C82.9214 111.482 82.2062 113.102 81.6057 114.161C80.904 115.416 79.7097 115.922 78.7516 116.921C78.502 117.177 78.2928 117.467 78.1511 117.798C77.9352 118.297 78.1309 118.405 78.5357 118.722C79.0687 119.134 79.6827 119.444 80.3305 119.633C81.5787 120.004 82.9214 119.964 84.1899 119.714C84.7769 119.593 87.2261 119.107 87.2599 118.392C87.3341 116.988 87.1182 115.564 86.7538 114.208C86.376 112.771 85.816 111.327 84.9253 110.126C84.561 109.62 84.028 108.939 83.333 108.952Z" fill="white"/>
</svg>
