<svg width="200" height="200" viewBox="0 0 200 200" fill="none" xmlns="http://www.w3.org/2000/svg">
<path d="M68.5569 142.871C67.7509 141.822 67.057 140.703 66.4757 139.513C65.7449 141.248 65.1521 143.027 64.6949 144.852C63.3016 142.771 63.2004 137.65 62.8986 135.4C62.8986 135.4 60.682 139.044 60.0437 140.152C59.5288 137.098 59.3886 134.025 59.6247 130.935C58.3568 131.521 57.2371 132.316 56.2662 133.319C56.11 130.503 55.3148 127.877 53.8819 125.446C53.3335 125.666 52.7743 125.851 52.203 125.999C53.6312 128.274 54.4089 130.753 54.537 133.437L54.773 137.197C54.773 137.197 57.7272 134.695 57.7781 134.63C57.7781 136.308 58.332 140.354 58.332 140.354C58.332 140.354 59.2894 145.14 59.2894 145.173L61.7749 141.177C61.9519 142.838 62.444 144.4 63.252 145.861L65.3177 149.219C65.7717 147.406 66.3315 145.627 66.9973 143.879C71.4312 149.079 76.4686 153.607 82.1101 157.463C86.2912 160.349 90.4214 162.917 94.6032 165.235C95.9965 165.353 97.424 165.42 98.8514 165.436C93.3803 162.575 88.0968 159.401 82.9998 155.916C77.6011 152.218 72.7863 147.869 68.5589 142.872L68.5569 142.871ZM138.091 98.5848C138.948 99.256 140.374 97.9297 140.526 97.4094C140.875 97.4966 141.224 97.4966 141.572 97.4074C141.921 97.3183 142.227 97.15 142.49 96.9046C142.658 96.6109 142.75 96.2951 142.768 95.9592C142.785 95.6233 142.726 95.3001 142.591 94.991L142.406 94.5371C142.171 94.2857 142.07 93.8331 141.583 94.0168C141.096 94.2025 140.088 94.4539 139.703 95.3102C138.023 95.3102 137.553 96.4352 136.898 97.2063C135.824 97.0729 135.32 98.1979 134.699 98.8865C135.001 99.1882 135.907 100.917 138.09 98.5848H138.091ZM140.929 111.797C141.265 112.266 141.97 112.249 142.491 112.35C143.012 112.452 144.019 112.668 144.288 111.88C144.187 111.78 144.12 111.528 143.985 111.461C143.107 111.214 142.216 111.018 141.315 110.873C141.14 110.9 140.978 110.963 140.829 111.059C140.825 111.013 140.825 110.968 140.829 110.924L140.694 110.823C139.974 110.294 139.168 110.042 138.275 110.068C138.165 110.091 138.064 110.137 137.973 110.203C137.722 109.464 137.116 109.246 136.177 109.48C136.008 109.502 135.841 109.502 135.673 109.48C135.746 109.606 135.829 109.724 135.925 109.834C136.612 110.401 137.379 110.826 138.225 111.11C138.63 111.353 139.061 111.537 139.517 111.663C139.903 111.731 140.491 112.017 140.928 111.799L140.929 111.797ZM132.886 66.9553L133.591 66.4511L133.356 66.6864L132.885 66.9553H132.886ZM139.149 67.3744C138.93 67.1886 138.695 67.021 138.46 66.8547L137.755 66.3499C138.04 66.551 138.292 66.7521 138.578 66.9372L139.149 67.3744ZM137.201 65.9985L136.814 65.7451L136.529 65.5614L135.907 65.1745L135.521 65.0062L135.118 64.7722L135.79 65.1745L137.2 65.9978L137.201 65.9985ZM131.021 106.156C130.534 102.992 130.388 99.8138 130.584 96.6189C131.076 92.2192 130.943 87.8376 130.183 83.4747C129.731 81.2534 128.852 79.2165 127.546 77.3626C126.018 74.5425 123.113 72.2267 120.947 69.7251C120.947 69.7251 121.233 69.4562 121.368 69.6399L122.895 70.8998C124.224 71.6715 125.383 72.6437 126.372 73.8204L128.05 75.8345C129.003 76.9536 129.887 78.1236 130.703 79.3432C130.656 79.8461 130.752 80.3214 130.989 80.766C131.227 81.2125 131.568 81.5545 132.012 81.7938C133.422 82.5495 135.136 83.4741 136.698 82.6849C138.377 81.1911 140.056 79.8146 142.172 80.3349C142.423 80.3349 142.44 80.8042 142.323 81.0228C141.332 82.4321 139.333 81.6785 138.159 82.701C134.8 85.0014 134.8 84.7674 133.843 84.632C133.508 84.5489 132.164 83.6075 131.895 84.3477C132.769 88.5651 132.769 92.7851 131.895 97.0045C131.123 101.318 132.164 107.431 133.154 112.265C133.182 112.973 133.271 113.673 133.422 114.365C132.154 111.765 131.354 109.028 131.021 106.155L131.021 106.156ZM108.84 102.261C109.104 100.704 109.518 99.1862 110.083 97.7112C108.405 99.793 107.11 101.069 106.137 101.069C106.504 99.2271 106.996 97.4195 107.614 95.6467C105.734 97.862 103.853 99.256 101.838 99.0877C102.343 96.6035 103.061 94.1837 103.99 91.8236C104.919 89.4649 106.047 87.2053 107.371 85.0443C108.694 82.8834 110.197 80.8518 111.877 78.9536C113.556 77.0555 115.388 75.3156 117.372 73.7366H119.235L120.444 74.9971L121.737 76.3052C122.419 77.0146 123.047 77.7709 123.618 78.5728C123.775 78.7947 123.921 79.0234 124.055 79.2607C124.133 79.4156 124.229 79.5625 124.34 79.6979C125.035 80.7009 125.594 81.7757 126.018 82.9202C115.575 91.8686 115.76 105.148 108.841 102.262L108.84 102.261ZM109.075 71.7218V71.5884C110.603 70.6973 112.283 70.1777 113.793 69.2376C111.754 69.7713 109.75 70.415 107.782 71.1693C107.347 71.4549 106.889 71.697 106.404 71.8901C106.203 71.7721 106.539 70.7321 107.16 69.8934C107.53 69.3892 107.949 69.1377 107.16 69.2209C103.97 69.54 106.154 68.0629 106.154 68.0629C106.154 68.0629 107.379 64.7051 105.448 65.2583C104.071 65.6619 100.243 68.718 98.0428 68.834C99.2014 66.3499 105.733 60.9786 108.118 59.7858C107.127 60.2404 101.788 62.6407 101.753 60.6091C102.408 60.29 110.77 55.2198 112.081 55.0019C112.708 54.8899 113.341 54.8457 113.978 54.8664C114.855 55.0562 115.71 55.315 116.546 55.6395C116.21 55.2024 114.867 54.3133 115.052 54.1276C115.589 53.3223 120.391 54.8329 122.91 56.7968C123.279 57.0831 123.262 57.6858 123.279 58.1572C123.297 58.6272 123.145 59.3983 122.776 59.6343C122.561 59.7154 122.392 59.8508 122.267 60.0439C122.144 60.235 122.089 60.4456 122.104 60.6742C122.389 60.6742 123.33 61.1113 123.548 60.9779C122.507 61.631 120.844 62.0527 120.492 63.4788C120.355 62.9471 120.125 62.4604 119.803 62.0172C118.928 61.1496 117.999 60.3436 117.016 59.6007C114.305 60.5267 111.921 61.9877 109.863 63.981C108.866 65.1504 108.217 66.488 107.916 67.9939C108.638 69.119 108.907 69.4703 108.89 69.6735C110.871 67.8102 113.44 66.3163 112.718 67.4065V67.4917C114.444 66.5215 116.274 65.8275 118.208 65.4098C118.812 65.0907 120.962 64.5536 121.953 65.7444C121.953 65.7444 120.844 66.1313 120.711 66.2137C120.291 66.3317 119.635 65.9972 119.484 66.5349C119.415 66.9218 119.51 67.2617 119.77 67.5574C120.056 67.8263 120.542 67.6928 120.794 68.0113C121.046 68.3305 120.912 68.2627 120.979 68.3633C121.011 68.4331 121.062 68.4827 121.13 68.5142C121.449 68.7328 121.852 68.7328 122.155 68.9513C122.155 69.0693 121.768 68.9513 121.616 68.9513C119.65 69.0593 117.733 69.4307 115.868 70.0664C114.004 70.702 112.259 71.5803 110.635 72.6953C107.658 74.6552 105.363 77.2245 103.751 80.3999C102.782 81.6021 101.887 82.8545 101.063 84.1613C101.84 81.9728 102.873 79.9165 104.164 77.9855C105.454 76.0558 106.962 74.3146 108.686 72.7624C109.139 72.3755 109.677 71.9565 109.072 71.7204L109.075 71.7218ZM136.681 74.4091C136.983 74.1577 137.335 73.9719 137.638 73.7359C137.97 73.4128 138.367 73.2666 138.83 73.3008C139.2 73.3008 139.183 74.039 139.351 74.2904C139.61 74.5935 139.901 74.8623 140.224 75.0963C140.61 75.4658 141.903 76.0357 141.618 76.6733C141.592 76.7699 141.538 76.8436 141.454 76.8953C141.368 76.9476 141.278 76.963 141.181 76.9415C140.791 76.8121 140.422 76.6405 140.073 76.4219C139.423 76.1202 138.769 75.8345 138.108 75.5657C137.958 75.5657 136.127 74.8771 136.127 75.0461C136.144 74.7443 136.48 74.5412 136.682 74.3903V74.4078L136.681 74.4091ZM91.4942 106.978C90.941 107.318 90.3396 107.49 89.6892 107.49C89.0389 107.49 88.4368 107.318 87.8843 106.978C86.5748 106.206 85.4994 104.879 84.0049 104.612L83.5684 104.343C84.7759 104.446 85.8956 104.815 86.9268 105.451C87.649 105.752 88.3034 106.257 89.059 106.491C89.7167 106.649 90.3215 106.531 90.8727 106.139C91.0872 105.966 91.2441 105.749 91.3433 105.491C91.4426 105.233 91.4701 104.968 91.4272 104.695C91.3138 104.502 91.1556 104.36 90.9525 104.268C90.7493 104.175 90.5381 104.15 90.3182 104.191C89.7483 104.545 89.5458 105.132 89.1428 105.585C89.2032 104.964 89.3788 104.378 89.6691 103.826C89.9601 103.273 90.3436 102.797 90.8224 102.395C91.3386 102.692 91.7383 103.101 92.0219 103.624C92.3068 104.146 92.4329 104.705 92.4 105.3C92.402 105.639 92.3223 105.955 92.1607 106.253C92.0004 106.553 91.7771 106.793 91.4935 106.979L91.4942 106.978ZM149.828 128.904C150.282 128.202 150.461 127.435 150.366 126.604C150.373 126.536 150.373 126.47 150.366 126.403C149.807 125.112 149.147 123.875 148.384 122.691L148.081 122.256C147.853 121.893 147.674 121.508 147.549 121.098C147.422 120.689 147.353 120.271 147.34 119.841C147.327 119.413 147.37 118.991 147.47 118.573C147.571 118.158 147.725 117.761 147.93 117.387C148.241 117 148.448 116.563 148.552 116.078C148.166 114.784 147.225 114.516 146.033 114.162C142.731 114.006 139.574 113.246 136.563 111.879C136.859 112.977 137.234 114.044 137.688 115.087C138.007 115.81 138.361 116.547 138.729 117.286C140.308 120.458 142.255 123.715 143.414 126.284L141.618 124.152C140.567 122.913 139.604 121.611 138.729 120.239C137.316 117.995 136.196 115.61 135.371 113.09C135.153 112.452 134.934 111.797 134.749 111.124C134.616 110.745 134.498 110.341 134.397 109.915C133.624 105.607 133.388 101.271 133.691 96.9046L133.826 96.686C137.19 93.8773 141.007 91.9812 145.278 90.9956C145.397 90.2943 145.609 89.6231 145.916 88.9814C146.003 88.7401 146.003 88.5 145.916 88.2587C145.698 87.6036 144.841 87.1336 144.237 86.5811C143.816 86.2351 143.477 85.8234 143.22 85.344C142.965 84.8626 142.811 84.3524 142.759 83.8113C143.24 83.0074 143.767 82.2357 144.338 81.4941C145.596 79.4297 147.443 79.6986 148.25 77.431C148.317 77.2131 148.35 76.9885 148.35 76.7598C148.277 75.9713 147.975 75.2834 147.443 74.6954C144.908 72.4781 142.994 70.6322 141.03 68.9701C139.522 69.6587 138.198 70.6041 137.057 71.8063C135.915 73.0084 135.04 74.3789 134.431 75.9217C134.431 75.9217 132.231 76.0223 131.593 76.9616C131.501 77.087 131.422 77.2225 131.357 77.3633C130.317 75.921 129.426 74.8965 129.393 74.8623L129.141 74.5606L127.697 72.8831L127.244 72.3956C126.549 71.6594 125.794 70.9923 124.977 70.3969C126.387 68.5296 128.067 66.9446 130.014 65.6452C130.413 65.5446 130.787 65.3877 131.139 65.1758C131.356 65.0015 131.597 64.8721 131.861 64.789C132.298 64.6207 133.037 64.3364 133.658 64.0675C131.978 63.1107 128.62 62.5381 127.613 62.0359C127.445 61.9488 127.322 61.8214 127.244 61.6491C126.84 60.8103 127.798 59.2983 127.798 58.4274C127.999 57.5537 127.894 56.719 127.479 55.9245C127.31 55.5765 127.108 55.2459 126.874 54.9348C122.091 49.7949 116.495 45.7934 110.083 42.9311L109.797 42.6455C111.282 40.7762 112.233 38.6662 112.651 36.3161C112.195 37.3259 111.561 38.2102 110.755 38.9685C110.963 37.287 110.924 35.6114 110.638 33.9419C110.352 32.2724 109.831 30.68 109.075 29.164C109.489 31.7099 109.489 34.2564 109.075 36.8022C108.921 37.5773 108.665 38.3162 108.303 39.0182C108.49 36.1002 107.998 33.3016 106.825 30.6237C106.338 29.4993 105.851 28.6431 105.515 28.0054C104.252 26.1006 102.612 24.6128 100.595 23.5393C101.537 24.4257 102.209 25.4837 102.61 26.7127C103.332 28.5592 103.735 30.5747 104.104 31.5986C104.146 31.7253 104.196 31.8487 104.256 31.968C104.961 32.6392 105.934 32.841 106.506 33.8822C106.974 34.8477 107.182 35.8662 107.127 36.9376C106.935 36.8022 106.8 36.6232 106.724 36.4006V36.3168C106.663 36.1626 106.578 36.0231 106.472 35.8971C106.472 35.6114 106.103 35.3935 105.985 35.1246C105.974 35.0851 105.974 35.0462 105.985 35.0066C104.561 33.3137 102.96 31.8091 101.183 30.4902C101.888 31.3136 102.51 32.4548 103.4 33.3445C104.518 35.0241 105.413 36.8149 106.086 38.7171C106.388 39.5063 106.673 40.3115 107.009 41.1677C106.976 41.2516 106.976 41.3367 107.009 41.4198V41.5043C107.11 41.6384 107.177 41.7732 107.009 41.9408C106.841 42.1091 106.841 41.8402 106.724 41.9408C105.738 39.808 104.435 37.8924 102.813 36.1934C101.19 34.4937 99.3382 33.1025 97.253 32.019C100.948 34.5031 102.173 37.9447 104.189 41.7055L104.087 41.806L103.97 41.6719V41.857H103.147C101.261 41.9395 99.3919 42.1641 97.5386 42.5282H97.2034C96.0991 42.6053 95.0203 42.8071 93.9629 43.1329L93.6096 43.2664C93.456 43.3609 93.2945 43.4333 93.1228 43.4856L92.4342 43.7706C91.9629 43.7706 90.754 44.4927 90.4697 44.5765C89.6302 44.7743 88.8578 45.1216 88.1518 45.6171C87.5524 45.9644 86.9932 46.3674 86.4723 46.826L86.2543 46.9943C85.3472 47.7492 85.6831 47.7331 84.6754 48.3366H84.5252L80.8475 50.5197L79.4536 51.6273C79.2558 51.8198 79.0439 51.9934 78.816 52.1476L78.3621 52.4668C77.9256 52.802 77.5058 53.1547 77.0854 53.5074C76.533 54.0324 76.018 54.5922 75.5407 55.1856C75.3898 55.4216 75.188 55.6053 75.0539 55.8232C74.8085 56.1538 74.6006 56.5058 74.4337 56.8826V57.0992C74.3586 57.5497 74.2526 57.9922 74.1145 58.4274C74.0582 58.5957 74.0186 58.7693 73.9965 58.947C73.904 59.6544 73.8477 60.3658 73.8289 61.0792V61.4989C73.8463 61.7 73.8463 61.9005 73.8289 62.1037C73.8892 63.8744 74.315 65.5526 75.1048 67.1397C75.3234 67.5762 75.5581 68.0133 75.827 68.4652C75.945 68.6684 76.0958 68.8695 76.2306 69.0707C76.2219 69.1149 76.2219 69.1599 76.2306 69.2041L76.6845 69.8263L76.9527 70.1622L77.1706 70.4465C77.5018 70.8582 77.8538 71.2511 78.2286 71.6219C78.1757 71.6641 78.1307 71.7164 78.0945 71.7727L78.3131 72.6464C77.5642 74.2428 77.2397 75.9224 77.3382 77.6817C77.6735 76.3636 78.1944 75.1205 78.8998 73.9545C78.179 78.188 77.1552 82.3456 75.827 86.4282C76.885 86.2271 78.6658 82.2665 79.1023 81.5263C79.5388 80.7881 76.5833 89.4843 75.9778 91.835C79.7399 88.6127 79.8579 80.9892 80.1932 78.2537C80.4285 78.959 80.4459 86.6468 80.865 87.2844C81.2847 85.3883 82.678 79.2426 81.2847 74.3233C81.6367 74.4761 83.6019 76.1034 83.6019 76.1034L83.8205 76.3046L83.9553 76.44L84.09 76.5909C85.6402 78.4602 86.8444 80.53 87.6992 82.8016C88.6098 83.8321 89.3942 84.9511 90.05 86.1614C90.3711 86.6327 90.7171 87.0873 91.0912 87.5204C91.1643 87.5996 91.2213 87.6887 91.2589 87.7893L91.3594 88.0407L91.696 88.5101C91.9334 88.8138 92.1238 89.1437 92.2659 89.5017C92.3665 89.7029 92.1151 89.8886 92.2659 90.1394C91.5908 92.5786 91.1268 95.0594 90.872 97.5757L90.5528 97.2566C89.7234 96.5418 88.772 96.0779 87.6986 95.8646C87.5263 95.8009 87.3861 95.695 87.2795 95.5455C86.9778 95.1747 86.9778 94.6544 86.6747 94.2675C82.7625 102.075 81.0494 97.0393 77.7586 106.02C79.4375 107.497 79.8747 106.944 83.4008 107.547C84.3643 107.73 85.2372 108.115 86.0197 108.706C86.8766 109.295 87.6986 110.015 88.4207 110.603C88.8679 110.773 89.3279 110.901 89.7979 110.989C90.9243 111.095 92.0286 110.983 93.1114 110.653C94.1929 110.321 95.1711 109.795 96.0434 109.076C96.134 110.427 95.8101 111.667 95.0699 112.802C95.676 114.865 96.494 116.84 97.5219 118.729C98.2131 120.25 99.1532 121.6 100.343 122.775C101.566 124 102.921 125.057 104.406 125.947C107.445 127.472 110.663 128.261 114.062 128.314C115.422 128.533 117.118 128.432 118.579 128.651L126.974 129.558C132.314 130.43 137.604 131.604 143.38 131.235C143.626 131.254 143.872 131.254 144.118 131.235H144.823C142.903 131.904 140.938 132.395 138.929 132.714C137.67 132.998 136.478 133.267 134.883 133.503C133.539 133.686 121.936 135.768 121.45 136.036C120.784 136.45 120.224 136.976 119.77 137.616C119.502 137.95 119.266 138.32 119.03 138.674C118.528 139.694 117.811 140.535 116.881 141.192C116.045 141.519 115.181 141.627 114.29 141.515C113.398 141.401 112.589 141.08 111.861 140.555C111.58 140.363 111.316 140.15 111.072 139.914L110.719 139.58C106.824 135.954 96.2956 124.067 94.146 120.406C93.6424 119.517 93.0383 118.729 92.8365 118.325C92.6515 118.024 92.4222 117.761 92.1479 117.537L91.9971 117.419C91.7255 117.188 91.4171 117.031 91.0711 116.947C90.7245 116.864 90.3772 116.866 90.0319 116.949C89.008 116.975 88.0231 116.789 87.0784 116.392C86.1337 115.997 85.3103 115.428 84.6076 114.683C84.208 114.241 83.8996 113.744 83.6844 113.189C83.6844 113.105 83.6844 113.054 83.5335 112.986C82.8315 112.682 82.098 112.52 81.3337 112.501C81.1707 112.957 80.9635 113.393 80.7121 113.809C80.1409 114.867 79.0332 117.167 78.4278 118.192C77.8237 119.216 76.7489 120.173 76.1106 121.298C75.782 121.721 75.5634 122.197 75.4562 122.724C74.3049 122.63 73.1517 122.601 71.9971 122.639C71.3266 122.639 70.6535 122.689 69.9823 122.792H69.277L68.6226 119.737H67.6148C66.1659 119.79 64.7666 120.081 63.4169 120.61C62.8799 120.088 62.1578 119.417 61.2673 118.628C60.9831 119.16 60.6646 119.669 60.3099 120.156C61.2841 120.962 62.09 121.632 62.7277 122.187L63.0636 122.488C64.3952 121.912 65.7824 121.566 67.228 121.448H68.2357L69.0255 124.52C69.9153 124.386 70.8211 124.269 71.7283 124.201C74.1621 124.12 76.5591 124.377 78.9192 124.974C81.2807 125.57 83.5127 126.482 85.6147 127.709C89.5934 129.923 93.3937 132.407 97.0163 135.165C97.5286 135.525 97.9979 135.934 98.4264 136.391C93.6652 138.139 88.7519 138.921 83.6837 138.742C90.703 141.057 100.996 138.976 100.996 138.976C104.808 141.175 106.033 142.199 109.812 144.516L114.379 147.27C112.7 147.117 110.466 149.198 105.983 150.846C108.308 151.126 110.635 151.17 112.969 150.979L115.874 150.46H116.31C116.221 149.079 116.474 147.762 117.065 146.514C117.25 146.16 117.451 145.841 117.653 145.507C116.991 145.965 116.432 146.525 115.973 147.184V145.926C116.124 145.675 116.275 145.439 116.409 145.253C117.035 144.326 117.756 143.481 118.576 142.719C119.482 141.963 120.389 141.142 121.33 140.437C127.946 135.399 136.09 134.023 144.032 132.226C146.292 131.689 148.223 130.582 149.825 128.902L149.828 128.904ZM125.631 176.013C123.079 175.257 120.595 174.468 118.193 173.644C112.25 175.079 106.221 175.802 100.108 175.809C97.7076 175.811 95.3126 175.699 92.9223 175.477C90.5321 175.254 88.1579 174.92 85.7984 174.476C83.4396 174.033 81.1057 173.48 78.7985 172.817C76.4914 172.157 74.2191 171.389 71.9837 170.515C69.7477 169.641 67.5572 168.667 65.4123 167.588C63.2681 166.511 61.1775 165.336 59.1419 164.062C57.1063 162.791 55.1344 161.426 53.2269 159.97C51.3187 158.514 49.4822 156.971 47.7182 155.344C47.5271 155.371 47.3373 155.371 47.1462 155.344C46.6749 155.341 46.2156 155.265 45.7697 155.111C44.4489 154.271 43.2011 153.338 42.0257 152.306C39.036 149.621 40.3468 151.248 38.3314 148.243C38.2529 148.218 38.1751 148.218 38.096 148.243C37.8774 148.243 37.626 148.243 37.3236 148.344C37.0286 148.349 36.7651 148.258 36.5345 148.076C35.3095 146.718 34.3064 145.212 33.5226 143.56C32.7388 141.908 32.2098 140.178 31.9329 138.371C31.7814 137.683 31.2611 137.599 30.6235 136.911C29.9181 135.399 28.4062 129.608 28.4062 129.608C26.3572 124.009 24.8519 118.268 23.8898 112.384V112.233C23.3849 109.315 23.0436 106.377 22.8659 103.418C22.5012 100.861 22.4563 98.2978 22.7312 95.7292C22.7406 95.0259 22.6896 94.3259 22.5803 93.6299C22.4777 89.0894 22.9658 84.6125 24.0406 80.2001C24.3088 79.0247 24.5106 75.9204 24.9485 74.1577C27.6022 67.6177 30.6362 61.2602 34.049 55.0843C35.1573 53.2553 38.3307 48.6048 38.3307 48.6048C40.5634 45.247 45.8864 39.2542 49.9335 37.2394C50.85 36.6487 51.6606 35.9366 52.368 35.1072C52.1675 34.9222 56.1971 31.7494 58.8496 29.4664C61.0454 27.8358 63.4471 26.6048 66.0533 25.7734C68.7875 24.9245 71.5855 24.5048 74.4491 24.5142C77.7968 23.2363 81.2612 22.5423 84.843 22.4323C86.2423 22.1514 87.6483 21.9094 89.061 21.7062C90.4737 21.5031 91.8911 21.3395 93.3132 21.2141C94.7353 21.09 96.1588 21.0035 97.5856 20.9579C99.0124 20.9117 100.438 20.905 101.866 20.9378C103.293 20.9707 104.718 21.0431 106.141 21.1544C107.564 21.2657 108.982 21.4172 110.398 21.607C111.812 21.7974 113.22 22.026 114.623 22.2942C116.025 22.5624 117.418 22.8682 118.803 23.2135C120.188 23.5581 121.562 23.9416 122.926 24.362C124.29 24.7831 125.641 25.2417 126.98 25.7372C128.317 26.2327 129.642 26.765 130.951 27.3343C132.26 27.9028 133.552 28.5076 134.828 29.1479C136.103 29.7883 137.36 30.4628 138.599 31.1728C139.837 31.8828 141.055 32.6257 142.252 33.4028C143.449 34.1799 144.624 34.9899 145.776 35.832C146.929 36.6741 148.057 37.5471 149.161 38.4509C150.265 39.3561 151.343 40.2901 152.396 41.2536C153.447 42.2177 154.473 43.21 155.471 44.2312C156.468 45.2523 157.437 46.2996 158.376 47.3738C159.316 48.4479 160.224 49.5475 161.103 50.6719C161.982 51.7956 162.828 52.9448 163.644 54.1148C164.459 55.2862 165.242 56.481 165.991 57.6945C166.74 58.9088 167.455 60.1432 168.136 61.3976C168.817 62.6521 169.463 63.9247 170.074 65.2134C170.684 66.5027 171.259 67.8095 171.796 69.1317C172.335 70.4519 172.836 71.7882 173.301 73.1365C173.766 74.4855 174.192 75.8486 174.582 77.2211C174.97 78.5936 175.322 79.9755 175.635 81.3694C175.947 82.7613 176.221 84.1606 176.457 85.57C176.692 86.9774 176.889 88.3901 177.046 89.8068C177.202 91.2256 177.321 92.6483 177.399 94.0731C177.477 95.4972 177.517 96.924 177.516 98.3508C177.544 102.551 177.229 106.727 176.567 110.875C175.905 115.023 174.908 119.088 173.576 123.072C172.244 127.056 170.593 130.905 168.626 134.615C166.658 138.327 164.4 141.851 161.85 145.191C160.825 146.532 159.768 147.825 158.643 149.101C157.854 149.992 156.964 150.881 156.208 151.755C155.453 152.627 154.831 153.164 154.109 153.852C153.387 154.54 152.665 155.228 151.91 155.883L150.314 157.344C149.76 157.814 149.223 158.266 148.635 158.703C147.443 159.659 146.234 160.567 144.976 161.458L142.927 162.866L142.389 163.22L141.096 164.042L140.828 164.211L139.77 164.866L137.553 166.543C135.488 167.65 135.538 167.803 133.573 168.743C135.924 168.843 140.743 166.023 143.127 165.385C144.366 166.777 145.816 167.896 147.476 168.743C145.635 168.729 143.955 169.243 142.438 170.287C144.763 170.81 147.114 170.993 149.491 170.842C152.479 173.542 155.619 176.055 158.911 178.379C153.343 179.134 147.755 179.312 142.148 178.914C136.542 178.515 131.037 177.547 125.63 176.013L125.631 176.013ZM160.675 175.895C160.675 175.895 146.839 164.865 146.101 164.142C147.97 162.835 149.782 161.45 151.535 159.988C153.286 158.525 154.974 156.992 156.595 155.386C158.216 153.779 159.766 152.107 161.245 150.369C162.723 148.632 164.126 146.834 165.451 144.976C166.778 143.118 168.021 141.207 169.185 139.245C170.347 137.281 171.425 135.27 172.416 133.215C173.407 131.161 174.31 129.066 175.123 126.934C175.936 124.801 176.657 122.638 177.286 120.445C177.913 118.253 178.448 116.036 178.888 113.797C179.327 111.557 179.67 109.303 179.918 107.036C180.166 104.765 180.317 102.491 180.369 100.21C180.422 97.9291 180.38 95.6501 180.238 93.3711C180.098 91.0941 179.86 88.8266 179.526 86.569C179.192 84.3115 178.762 82.0727 178.237 79.8521C177.713 77.6308 177.094 75.4369 176.382 73.2699C175.67 71.1016 174.867 68.9674 173.973 66.8681C173.078 64.7688 172.097 62.7105 171.028 60.6943C169.959 58.6802 168.805 56.7123 167.568 54.7947C166.331 52.8771 165.014 51.0158 163.618 49.2102C162.223 47.4039 160.752 45.6613 159.208 43.9811C157.664 42.3009 156.051 40.6897 154.369 39.1469C152.687 37.6034 150.943 36.1357 149.137 34.7418C147.329 33.3472 145.466 32.0324 143.548 30.7973C141.629 29.5616 139.661 28.4104 137.644 27.343C135.626 26.2756 133.568 25.296 131.467 24.4036C129.367 23.5118 127.232 22.7099 125.063 22.0006C122.894 21.2898 120.699 20.6737 118.477 20.1507C116.256 19.627 114.016 19.1993 111.758 18.8674C109.499 18.5348 107.232 18.2995 104.954 18.1607C102.676 18.0212 100.396 17.9803 98.1139 18.0353C95.8329 18.0903 93.5573 18.2432 91.2884 18.4926C89.0201 18.7413 86.7659 19.0866 84.5272 19.5285C80.863 19.6854 77.302 20.3793 73.847 21.609C70.9284 21.6459 68.0741 22.0931 65.2842 22.9526C62.7813 23.6781 60.4701 24.7985 58.3487 26.3104L57.2907 26.9823C57.1512 27.0681 57.0225 27.1687 56.9052 27.284C55.8807 28.1898 54.6047 29.2478 53.5467 30.1711C52.2802 31.1225 51.1155 32.1859 50.0541 33.3613L49.7336 33.5624C49.391 33.9687 48.9988 34.3214 48.5583 34.6204C43.6047 37.0878 37.862 44.0052 35.8472 46.9594C35.7292 47.1612 32.6235 51.6937 31.4823 53.557C31.4844 53.5965 31.4844 53.6354 31.4823 53.6757C27.9791 60.0238 24.8559 66.555 22.1123 73.2666C22.0748 73.3591 22.0459 73.4543 22.0285 73.5522C21.7455 74.8898 21.533 76.2388 21.3909 77.5979C21.3077 78.3864 21.1897 79.2775 21.122 79.6469V79.8306C21.122 79.9661 21.122 80.2175 20.9886 80.536C19.9245 84.9511 19.476 89.428 19.6436 93.9672C19.6436 94.3031 19.6436 94.6048 19.7267 94.8737C19.7542 95.0916 19.7542 95.3108 19.7267 95.5287C19.7354 95.6058 19.7354 95.685 19.7267 95.7627V97.744C19.5323 99.8661 19.6228 101.975 19.9956 104.075V104.19C20.1954 106.95 20.5367 109.693 21.0208 112.418V112.618C21.012 112.731 21.012 112.842 21.0208 112.955C22.0191 118.937 23.5525 124.78 25.621 130.481C26.2693 133.071 27.0578 135.619 27.9884 138.12C28.2131 138.597 28.5429 138.982 28.9794 139.278C29.9121 143.265 31.6982 146.825 34.3359 149.956C34.6149 150.271 34.9474 150.515 35.3303 150.687C35.7131 150.859 36.1154 150.946 36.5358 150.948H36.6531C37.6904 152.206 38.8087 153.387 40.0116 154.489H40.1122C41.3908 155.633 42.7572 156.664 44.2095 157.578C44.6701 157.874 45.1737 158.019 45.7201 158.015C45.9105 158.032 46.101 158.032 46.2914 158.015C48.6776 160.168 51.1826 162.172 53.8089 164.025C56.4345 165.876 59.162 167.566 61.9915 169.091C64.8209 170.616 67.7308 171.965 70.7225 173.141C73.7136 174.316 76.765 175.309 79.8753 176.117C82.9851 176.927 86.133 177.545 89.3185 177.977C92.504 178.408 95.7028 178.646 98.9165 178.692C102.13 178.738 105.335 178.591 108.532 178.253C111.727 177.915 114.892 177.385 118.025 176.666C120.308 177.439 122.542 178.161 124.741 178.816C132.267 180.985 139.947 182.042 147.779 181.991C151.686 182.023 155.571 181.749 159.433 181.167C159.717 181.117 159.989 181.028 160.247 180.898C160.505 180.767 160.739 180.603 160.949 180.404C161.158 180.202 161.334 179.978 161.476 179.725C161.618 179.474 161.721 179.207 161.785 178.925C161.847 178.643 161.867 178.357 161.845 178.069C161.823 177.781 161.761 177.501 161.656 177.232C161.551 176.962 161.41 176.714 161.231 176.486C161.052 176.258 160.845 176.063 160.607 175.897H160.674L160.675 175.895Z" fill="#FDFEFF"/>
<path d="M58.8331 114.35C58.0205 115.156 57.1596 115.906 56.2478 116.6L55.9963 116.801L53.0918 113.948C52.8732 114.199 52.3522 114.802 51.6804 115.475C50.9261 116.184 50.1309 116.843 49.2962 117.456L47.4657 115.625C48.0236 115.566 48.5479 115.399 49.04 115.129C49.5315 114.858 49.9532 114.502 50.3026 114.064C50.798 113.588 51.262 113.086 51.6965 112.555L50.6049 111.462L47.1459 113.696C46.8683 113.879 46.5632 113.96 46.232 113.942C45.9001 113.924 45.6051 113.807 45.3503 113.595L43.8726 112.018L42.193 113.696L43.7378 115.257L43.9732 115.475C44.2293 115.757 44.5484 115.898 44.9306 115.894L45.7868 115.744L42.8648 118.732C42.8648 118.732 42.8648 118.414 43.0157 117.927C43.0298 117.563 42.9064 117.256 42.6469 117.003L42.4109 116.769L40.8165 115.09L40.4296 115.493C40.1889 115.731 39.9878 116 39.8255 116.298L39.6572 116.616L39.3213 115.493L39.0531 115.225L37.9777 114.921L38.2465 114.788C38.5322 114.616 38.7957 114.413 39.0357 114.183L39.4393 113.782L37.6431 112.018C37.4446 111.864 37.2214 111.79 36.9713 111.8L36.2994 111.918L36.518 111.632C37.3172 110.546 38.1788 109.509 39.1034 108.526C40.0441 107.604 41.6727 106.326 41.7062 106.311L43.485 107.989C43.0083 108.06 42.5611 108.217 42.1427 108.458C41.6379 108.777 41.1732 109.146 40.7495 109.568C40.25 110.026 39.7806 110.513 39.3388 111.027L40.732 112.403L46.3735 106.848C46.5934 106.678 46.7389 106.46 46.8107 106.193C47.5334 106.081 48.216 105.853 48.8597 105.505L49.3961 105.187L49.1111 105.706C48.7484 106.379 48.5244 107.096 48.4393 107.856C48.1738 107.91 47.9438 108.033 47.75 108.225L45.298 110.658L46.3561 111.716H46.5069L49.8661 109.634C49.8661 109.634 50.9744 108.963 51.6449 109.634L56.229 114.234C56.532 113.965 56.9015 113.629 57.4721 113.043L58.463 111.984L53.8112 107.336C53.5792 107.154 53.3164 107.053 53.022 107.032H52.3502L54.3489 105.035L60.1748 110.86C60.4074 111.109 60.6931 111.215 61.0317 111.178H61.7035L61.1839 111.851C60.4416 112.723 59.6578 113.558 58.8325 114.352M48.6076 99.761C49.4678 99.761 50.318 99.8522 51.1588 100.035C51.9989 100.217 52.8102 100.488 53.5933 100.845C54.3758 101.205 55.1106 101.641 55.7985 102.155C56.4864 102.672 57.1127 103.256 57.6752 103.907C57.1328 103.427 56.5515 102.999 55.9313 102.627C55.3118 102.254 54.6627 101.939 53.9862 101.681C53.309 101.427 52.6151 101.233 51.903 101.103C51.1909 100.972 50.4729 100.908 49.7494 100.908C49.0259 100.908 48.3079 100.972 47.5958 101.103C46.8831 101.233 46.1891 101.427 45.5126 101.681C44.8354 101.939 44.187 102.254 43.5675 102.627C42.948 102.999 42.3667 103.427 41.8236 103.907L40.6482 102.731C41.7505 101.768 42.9862 101.032 44.3567 100.521C45.7285 100.009 47.1452 99.7543 48.6069 99.7597L48.6076 99.761ZM99.2849 154.372C118.579 163.255 131.743 165.587 135.94 164.311L132.397 162.516L131.91 162.23L131.557 162.029L131.423 161.928L130.953 161.642L130.449 161.306L130.063 161.037L129.878 160.905L129.576 160.669L129.375 160.535L129.006 160.248L128.586 159.947L128.418 159.812L127.713 159.292L126.454 158.353L126.285 158.235L125.799 157.882L125.598 157.729L124.909 157.226L124.204 156.722L123.968 156.571L123.397 156.185L123.162 156.018L122.339 155.481C120.66 154.357 119.619 153.618 117.94 152.408C115.877 152.811 113.796 153.019 111.693 153.03H100.107L98.9986 152.912C97.2801 152.566 95.6013 152.085 93.9619 151.468C98.0418 152.558 104.439 150.595 108.587 148.613L110.047 147.775C107.142 145.779 103.33 143.493 100.291 141.564C96.257 142.484 92.1932 142.641 88.1012 142.033C83.9703 141.064 79.9789 139.685 76.1283 137.903C76.1283 137.903 82.4255 139.229 93.6756 136.795C90.1455 133.786 86.3345 131.187 82.2398 129.005C76.481 125.346 70.9562 126.371 64.9621 127.327L64.777 126.923C65.182 126.171 65.7003 125.508 66.3305 124.932C66.9614 124.356 67.6695 123.902 68.4546 123.566C67.4154 123.525 66.3962 123.647 65.3972 123.935C64.3982 124.221 63.4689 124.658 62.6107 125.245L61.7203 124.321C61.7203 124.321 60.9479 123.533 59.4708 122.189C59.8395 121.797 60.1808 121.384 60.4946 120.947C60.8366 120.234 61.1115 119.495 61.3173 118.731C61.5681 118.269 61.7933 117.794 61.9911 117.306C62.1903 116.821 62.3619 116.324 62.5081 115.82C62.6529 115.314 62.7702 114.801 62.8587 114.283C62.9486 113.765 63.0096 113.245 63.0418 112.72C63.0753 112.196 63.0787 111.67 63.0552 111.144C63.0304 110.62 62.9788 110.097 62.897 109.578C62.8158 109.058 62.7072 108.544 62.5704 108.038C62.4343 107.529 62.2701 107.03 62.079 106.539C61.8885 106.05 61.6706 105.572 61.4286 105.104C61.1859 104.639 60.9184 104.186 60.6254 103.75C60.3337 103.313 60.0199 102.893 59.6806 102.489C59.3434 102.087 58.9853 101.702 58.6052 101.339C58.227 100.974 57.8288 100.631 57.4124 100.311C56.996 99.9897 56.5635 99.692 56.1137 99.4171C55.6651 99.1449 55.2038 98.8954 54.7271 98.6708C54.251 98.4469 53.7649 98.2498 53.2674 98.0795C52.7713 97.9078 52.2651 97.7643 51.7528 97.6483C51.2399 97.5323 50.7223 97.4452 50.2 97.3855C49.677 97.3252 49.1533 97.293 48.627 97.291C48.102 97.2869 47.577 97.3144 47.0534 97.3681C46.5311 97.4204 46.0128 97.5035 45.4985 97.6141C44.9843 97.7241 44.4774 97.8615 43.9779 98.0272C43.479 98.1934 42.9909 98.3852 42.5115 98.6031C42.0334 98.8217 41.5681 99.0651 41.1162 99.3339C40.665 99.6028 40.2285 99.8945 39.8081 100.212C39.3884 100.529 38.9868 100.867 38.6032 101.227C38.2191 101.587 37.8577 101.965 37.5157 102.365C37.1738 102.763 36.8539 103.181 36.5562 103.616C36.2599 104.049 35.9877 104.497 35.7396 104.961C35.4908 105.425 35.2696 105.9 35.0725 106.387C34.8767 106.877 34.7064 107.374 34.5642 107.878C34.4221 108.384 34.3068 108.896 34.2196 109.417C34.1331 109.935 34.0748 110.457 34.0453 110.981C34.0144 111.507 34.0131 112.03 34.0406 112.557C34.0667 113.082 34.1224 113.605 34.2055 114.122C34.29 114.641 34.4013 115.154 34.5401 115.66C34.6802 116.169 34.8458 116.665 35.0396 117.155C35.2334 117.644 35.4526 118.122 35.698 118.587C35.9434 119.051 36.213 119.501 36.5073 119.938C36.8016 120.373 37.1181 120.792 37.458 121.192C37.798 121.594 38.158 121.975 38.5389 122.338C38.9204 122.7 39.32 123.041 39.7384 123.359C40.1561 123.679 40.5906 123.974 41.0411 124.245C41.491 124.517 41.955 124.765 42.4317 124.985C42.9084 125.208 43.3959 125.4 43.8947 125.569C44.3922 125.739 44.8984 125.878 45.4114 125.992C45.9256 126.106 46.4439 126.192 46.9662 126.25C47.4885 126.306 48.0142 126.335 48.5392 126.335C49.7896 126.335 51.0213 126.178 52.2329 125.866C52.8048 125.717 53.3647 125.533 53.9124 125.311C53.4894 124.59 53.0026 123.911 52.4528 123.28C51.2044 123.701 49.9231 123.914 48.6069 123.919C47.7473 123.919 46.8958 123.829 46.055 123.645C45.2149 123.462 44.4036 123.191 43.6205 122.833C42.8387 122.475 42.1032 122.039 41.4146 121.523C40.7267 121.007 40.1018 120.423 39.5392 119.772C40.3559 120.493 41.2543 121.09 42.2346 121.564C43.2155 122.037 44.2414 122.369 45.3141 122.559C46.3862 122.75 47.4644 122.794 48.5479 122.689C49.6327 122.583 50.682 122.334 51.6965 121.939C52.5956 121.604 53.4404 121.168 54.2323 120.629L55.4579 121.77C56.0466 122.324 56.65 122.896 57.2213 123.449C59.8074 125.967 61.9898 128.267 61.9898 128.267C61.8222 129.655 61.8222 131.043 61.9898 132.43C62.555 131.673 63.2946 131.171 64.2064 130.919C64.3325 132.061 64.5685 133.181 64.9118 134.276C65.0968 133.621 65.4374 133.063 65.9356 132.599C77.4988 143.89 90.4781 153.208 104.875 160.551C117.494 167.402 130.787 172.488 144.755 175.811L144.907 175.576C128.71 170.429 113.379 163.394 98.9141 154.474L99.2836 154.371L99.2849 154.372ZM110.082 97.712C111.423 93.964 113.242 90.4674 115.54 87.2183C117.838 83.9684 120.529 81.0867 123.616 78.5737C123.04 77.7597 122.408 76.9927 121.717 76.2732C118.466 78.7339 115.637 81.6103 113.233 84.9037C110.828 88.1978 108.95 91.7662 107.596 95.6127C106.978 97.3875 106.485 99.1945 106.119 101.037C107.109 101.12 108.503 99.7939 110.082 97.712ZM129.089 74.4428C131.712 71.2841 134.852 68.7712 138.51 66.9059C138.224 66.7201 137.972 66.519 137.686 66.3185L137.217 66.0148L135.79 65.1083C135.051 65.5448 134.312 65.9819 133.606 66.4687L132.901 66.9716L132.094 67.5764L131.457 68.0806L130.65 68.7517L130.096 69.2566L129.274 70.0277L128.787 70.5144L127.98 71.3539L127.527 71.8588L127.225 72.2101L127.679 72.6975L129.089 74.4428ZM107.26 27.3526C107.26 27.1172 107.176 26.8819 107.126 26.6472C107.049 26.3314 106.948 26.0237 106.824 25.7233V25.5557L106.153 24.1785C105.144 24.0947 104.322 24.0451 103.465 24.0109C104.1 24.4299 104.705 24.8892 105.279 25.3874C105.978 25.9928 106.627 26.6479 107.227 27.3519H107.26V27.3526ZM106.237 24.1785L107.26 25.2365C108.093 26.2134 108.827 27.26 109.46 28.3764L109.814 28.9805C111.63 29.236 113.432 29.5625 115.222 29.9587C117.013 30.3557 118.785 30.8223 120.539 31.3587C122.293 31.8951 124.022 32.4985 125.729 33.171C127.435 33.8422 129.113 34.5804 130.76 35.3836C132.409 36.1869 134.023 37.0538 135.604 37.9845C137.184 38.9144 138.725 39.9054 140.228 40.9574C141.731 42.008 143.19 43.117 144.605 44.2823C146.02 45.4483 147.387 46.6679 148.707 47.9412C150.028 49.2144 151.295 50.5366 152.511 51.9098C153.727 53.2829 154.887 54.7017 155.991 56.1647C157.096 57.6284 158.142 59.1336 159.127 60.6784C160.113 62.2245 161.038 63.8062 161.9 65.4261C162.762 67.044 163.559 68.6927 164.291 70.375C165.023 72.0545 165.689 73.7636 166.287 75.4955C166.885 77.2294 167.414 78.9827 167.876 80.7568C168.337 82.5309 168.727 84.3231 169.048 86.1267C169.367 87.9316 169.616 89.7473 169.793 91.5737C169.971 93.3988 170.076 95.2265 170.11 97.0596C170.145 98.8941 170.107 100.725 169.996 102.555C169.887 104.386 169.705 106.208 169.452 108.025C169.199 109.84 168.875 111.644 168.48 113.434C168.085 115.226 167.622 116.997 167.087 118.752C166.553 120.505 165.951 122.237 165.282 123.944C164.612 125.651 163.877 127.329 163.074 128.977C162.274 130.626 161.408 132.241 160.48 133.824C159.552 135.405 158.563 136.947 157.513 138.449C156.464 139.953 155.356 141.415 154.192 142.83C153.028 144.246 151.81 145.616 150.538 146.937C149.267 148.257 147.945 149.527 146.574 150.745C145.202 151.963 143.786 153.125 142.323 154.23C140.86 155.336 139.356 156.384 137.812 157.371C136.267 158.359 134.686 159.285 133.069 160.149C134.428 160.937 135.923 161.828 137.653 162.6C139.347 161.61 141.001 160.555 142.611 159.432C144.222 158.31 145.786 157.127 147.304 155.883C148.821 154.638 150.287 153.335 151.702 151.974C153.116 150.613 154.475 149.198 155.777 147.732C157.079 146.263 158.322 144.745 159.504 143.178C160.687 141.611 161.804 140.002 162.86 138.345C163.916 136.69 164.903 134.996 165.824 133.263C166.745 131.529 167.596 129.763 168.377 127.963C169.158 126.162 169.867 124.333 170.503 122.477C171.139 120.62 171.701 118.741 172.188 116.841C172.677 114.939 173.088 113.021 173.424 111.088C173.76 109.156 174.019 107.211 174.202 105.257C174.383 103.303 174.488 101.344 174.515 99.3822C174.542 97.4204 174.492 95.4585 174.364 93.5C174.237 91.5422 174.031 89.5918 173.749 87.6487C173.467 85.7076 173.108 83.7787 172.673 81.8651C172.239 79.9515 171.729 78.0574 171.144 76.1841C170.56 74.3107 169.902 72.4629 169.171 70.6418C168.44 68.8188 167.638 67.0286 166.766 65.2719C165.894 63.5132 164.953 61.7927 163.944 60.1092C162.936 58.4256 161.863 56.7842 160.724 55.1858C159.584 53.5873 158.385 52.0352 157.124 50.5319C155.862 49.028 154.544 47.5758 153.167 46.1765C151.791 44.7772 150.363 43.4342 148.879 42.1468C147.397 40.8602 145.866 39.6352 144.287 38.4692C142.706 37.3046 141.084 36.2023 139.417 35.1657C137.75 34.1292 136.045 33.159 134.302 32.2572C132.558 31.3547 130.783 30.5226 128.974 29.761C127.164 29 125.329 28.3107 123.465 27.6945C121.601 27.0777 119.716 26.5366 117.81 26.0686C115.903 25.6013 113.982 25.2104 112.044 24.8946C110.107 24.5801 108.159 24.3414 106.202 24.1798H106.237V24.1785ZM100.108 168.392C95.7763 168.4 91.4804 168.01 87.2208 167.219C82.9613 166.428 78.8123 165.251 74.7726 163.688C70.7323 162.124 66.8723 160.201 63.1906 157.918C59.509 155.635 56.0694 153.032 52.8725 150.108C52.8806 150.413 52.9309 150.709 53.0234 150.999C53.5155 151.952 53.8407 152.959 53.9983 154.02V155.934C54.0284 156.203 54.0284 156.471 53.9983 156.74C56.0479 158.357 58.1781 159.861 60.3867 161.255C62.5952 162.649 64.8715 163.925 67.2136 165.078C69.5549 166.232 71.9525 167.263 74.4032 168.165C76.8531 169.068 79.344 169.841 81.8764 170.483C84.4082 171.124 86.9661 171.633 89.5508 172.006C92.1362 172.379 94.7343 172.615 97.3432 172.715C99.9527 172.817 102.561 172.78 105.167 172.607C107.774 172.435 110.363 172.125 112.937 171.681C110.204 170.614 107.506 169.467 104.843 168.238C103.231 168.34 101.67 168.391 100.108 168.391" fill="#D0B787"/>
<path d="M49.7326 100.934C51.1856 100.934 52.5909 101.191 53.95 101.702C55.3084 102.214 56.534 102.948 57.6256 103.907C57.106 103.305 56.532 102.762 55.9065 102.276C55.2789 101.79 54.6104 101.37 53.8997 101.017C53.1883 100.663 52.4508 100.383 51.6838 100.176C50.9174 99.9671 50.1383 99.8377 49.3471 99.7854C48.5553 99.7338 47.7654 99.76 46.9783 99.8646C46.1918 99.9691 45.4234 100.149 44.6731 100.406C43.9215 100.663 43.2034 100.992 42.5182 101.391C41.8323 101.792 41.1927 102.254 40.5993 102.781L41.7746 103.957C42.8722 102.984 44.1073 102.239 45.4777 101.718C46.8489 101.196 48.2676 100.935 49.7333 100.933M124.07 79.2612C123.937 79.0232 123.791 78.7952 123.634 78.5733C120.543 81.0842 117.849 83.966 115.548 87.2158C113.248 90.465 111.426 93.9636 110.082 97.7116C109.519 99.1867 109.104 100.705 108.839 102.262C115.758 105.148 115.556 91.8858 125.984 82.92C125.559 81.7755 124.999 80.7014 124.304 79.6977C124.212 79.5602 124.132 79.4134 124.069 79.2605L124.07 79.2612ZM135.085 64.6882L134.833 64.5547L134.38 64.3013L133.944 64.0827L133.59 63.8816C132.969 64.1504 132.231 64.4367 131.793 64.605C131.53 64.6882 131.289 64.8176 131.072 64.9899C130.721 65.2044 130.345 65.3613 129.946 65.4612C127.998 66.76 126.32 68.3437 124.91 70.213C125.728 70.8084 126.483 71.4728 127.176 72.2097L127.478 71.8583L127.932 71.3535L128.737 70.514L129.225 70.0272L130.047 69.2562L130.601 68.7513L131.407 68.0802L132.045 67.576L132.851 66.9712L133.355 66.6869L133.59 66.536C134.295 66.0486 135.035 65.6121 135.773 65.1756L135.101 64.7733L135.084 64.6882H135.085ZM107.613 95.6117C108.967 91.7651 110.845 88.1968 113.25 84.9027C115.655 81.6092 118.483 78.7328 121.735 76.2722L120.442 74.9614L119.233 73.7035H117.37C115.382 75.2805 113.545 77.0164 111.861 78.9145C110.178 80.8127 108.67 82.8423 107.342 85.0052C106.014 87.1662 104.883 89.4258 103.949 91.7859C103.017 94.146 102.296 96.5678 101.787 99.0539C103.853 99.2222 105.733 97.8283 107.613 95.611V95.6117ZM129.107 74.376L129.358 74.6777C129.358 74.6777 130.281 75.7351 131.323 77.1787C131.388 77.0358 131.466 76.9024 131.558 76.775C132.196 75.8357 134.396 75.7351 134.396 75.7351C135.005 74.195 135.881 72.8218 137.022 71.6197C138.162 70.4195 139.487 69.4741 140.995 68.7835L140.205 68.1304L140.054 68.0124L139.299 67.4077L139.198 67.3245L138.577 66.8552C134.896 68.7305 131.738 71.2603 129.106 74.4424V74.3767L129.107 74.376ZM39.7927 116.345C39.9549 116.048 40.1568 115.779 40.3975 115.541L40.7837 115.137L42.3787 116.817L42.6141 117.05C42.8736 117.304 42.9963 117.611 42.9829 117.974C42.8997 118.462 42.832 118.78 42.832 118.78L45.7365 115.875L44.881 116.026C44.4995 116.03 44.1803 115.891 43.9235 115.607L43.7224 115.372L42.1776 113.693L43.8565 112.015L45.3168 113.492C45.5723 113.705 45.8659 113.821 46.1985 113.838C46.5304 113.857 46.8355 113.776 47.113 113.593L50.5888 111.41L51.6804 112.503C51.2459 113.034 50.7819 113.537 50.2865 114.012C49.9365 114.451 49.5154 114.806 49.0233 115.077C48.5318 115.347 48.0068 115.512 47.4496 115.573L49.2801 117.404C50.1148 116.791 50.91 116.132 51.663 115.423C52.3355 114.75 52.8558 114.147 53.0737 113.893L55.9447 116.765L56.1975 116.562C57.1093 115.87 57.9709 115.121 58.7829 114.314C59.5908 113.452 60.3518 112.551 61.0672 111.61L61.5875 110.939H60.9157C60.5764 110.974 60.2921 110.867 60.0595 110.62L54.2329 104.794L52.2845 106.976H52.957C53.2493 106.998 53.5128 107.098 53.7462 107.277L58.398 111.929L57.407 112.987C56.8358 113.574 56.467 113.91 56.1646 114.179L51.5805 109.528C50.9087 108.874 49.9023 109.528 49.8004 109.528L46.4419 111.609H46.291L45.233 110.551L47.6843 108.118C47.8781 107.926 48.1074 107.803 48.3736 107.749C48.4587 106.989 48.682 106.272 49.0447 105.599L49.3303 105.08L48.7933 105.398C48.1496 105.747 47.4677 105.975 46.745 106.086C46.6732 106.354 46.527 106.571 46.3078 106.742L40.7843 112.281L39.3904 110.903C39.8316 110.389 40.3022 109.904 40.8004 109.444C41.2242 109.022 41.6888 108.653 42.1944 108.336C42.6127 108.095 43.0606 107.938 43.538 107.864L41.7579 106.187C41.7579 106.187 40.079 107.48 39.155 108.402C38.2311 109.386 37.3695 110.422 36.569 111.508L36.3511 111.795L37.0229 111.677C37.2737 111.666 37.4969 111.74 37.6941 111.895L39.4749 113.675L39.0712 114.077C38.8305 114.307 38.5677 114.51 38.2821 114.682L38.0139 114.815L39.0712 115.169L39.3401 115.436L39.6753 116.561L39.7934 116.342L39.7927 116.345ZM142.524 170.186C144.041 169.143 145.719 168.63 147.561 168.642C145.9 167.796 144.452 166.676 143.212 165.285C140.828 165.905 136.008 168.725 133.657 168.642C135.621 167.701 135.571 167.55 137.637 166.442L139.853 164.765L140.911 164.06C139.786 163.572 138.626 163.018 137.653 162.548C135.974 161.708 134.43 160.87 133.069 160.097C131.994 159.459 131.02 158.838 130.096 158.216C137.299 154.586 143.646 149.819 149.138 143.914C150.131 142.843 151.088 141.741 152.01 140.609C152.931 139.476 153.814 138.317 154.659 137.126C155.504 135.935 156.31 134.719 157.075 133.477C157.842 132.233 158.565 130.965 159.248 129.676C159.93 128.385 160.57 127.075 161.167 125.743C161.763 124.411 162.317 123.06 162.826 121.691C163.334 120.322 163.798 118.94 164.216 117.541C164.634 116.143 165.006 114.732 165.332 113.31C165.657 111.884 165.937 110.455 166.169 109.012C166.401 107.572 166.586 106.125 166.724 104.671C166.861 103.217 166.952 101.762 166.995 100.302C167.036 98.8427 167.031 97.3831 166.977 95.9261C166.924 94.4665 166.824 93.0108 166.676 91.5592C166.527 90.1076 166.332 88.6614 166.089 87.2219C165.847 85.7817 165.557 84.3529 165.221 82.9328C164.884 81.512 164.502 80.1026 164.073 78.7074C163.646 77.3134 163.172 75.9336 162.653 74.5691C162.134 73.204 161.571 71.857 160.964 70.5308C160.357 69.2026 159.708 67.8958 159.015 66.6105C158.324 65.3251 157.59 64.0626 156.815 62.8256C156.041 61.5885 155.226 60.3783 154.372 59.1935C153.518 58.0108 152.627 56.8549 151.698 55.7298C150.768 54.6047 149.803 53.5098 148.802 52.4471C147.801 51.3844 146.767 50.3559 145.699 49.3609C144.63 48.3659 143.531 47.4064 142.4 46.4838C141.268 45.5605 140.109 44.6748 138.919 43.828C137.731 42.9805 136.516 42.1733 135.274 41.4055C134.032 40.6378 132.768 39.9117 131.478 39.2265C130.188 38.5412 128.878 37.8989 127.547 37.2995C126.216 36.7001 124.866 36.1442 123.499 35.6333C122.131 35.1218 120.749 34.6558 119.351 34.2354C117.953 33.8143 116.542 33.4395 115.12 33.111C115.178 33.3537 115.218 33.6004 115.237 33.8492H115.505C115.511 33.9229 115.511 33.9953 115.505 34.0677C115.505 34.2528 115.505 34.4372 115.623 34.6222C115.664 35.3779 115.664 36.1335 115.623 36.8891V37.1909C115.623 37.7615 115.354 38.7524 115.22 39.4397C115.237 39.5691 115.237 39.6971 115.22 39.8265L114.363 42.0418C114.363 42.0418 121.902 46.8432 124.102 48.6066C126.617 50.7012 128.855 53.0579 130.819 55.6742C130.896 55.825 130.979 55.9698 131.071 56.1106C131.251 56.4915 131.34 56.8918 131.34 57.3115C131.34 57.7312 131.25 58.1308 131.071 58.5117C131.071 58.7302 130.953 58.9488 130.886 59.2002C130.764 59.5194 130.764 59.8379 130.886 60.157C131.187 60.6445 131.944 60.7947 132.733 61.1487L133.388 61.4504C136.417 63.0354 139.31 64.837 142.069 66.8572C144.658 69.0048 147.098 71.3106 149.39 73.7733C149.872 74.2929 150.303 74.8534 150.684 75.4508C150.91 75.7854 151.079 76.1448 151.189 76.533C151.299 76.9198 151.344 77.3161 151.326 77.7177C151.308 78.12 151.227 78.5102 151.082 78.885C150.937 79.2619 150.737 79.6065 150.481 79.9176C149.192 81.0313 147.972 82.218 146.82 83.4765C146.596 83.7742 146.484 84.1108 146.484 84.4836C146.669 85.5255 147.121 86.432 147.844 87.2031C148.35 87.8528 148.749 88.5642 149.037 89.3352C148.973 89.6249 148.895 89.9092 148.802 90.1914C148.651 90.7614 148.482 91.4674 148.383 92.0051C148.377 92.1499 148.344 92.2907 148.286 92.4242C148.228 92.5576 148.148 92.6776 148.045 92.7822C147.943 92.8841 147.825 92.9679 147.692 93.0276C147.559 93.0873 147.419 93.1221 147.274 93.1302C146.337 93.4379 145.419 93.7973 144.52 94.205L144.302 94.3055L144.419 94.5241C144.633 95.3133 144.689 96.1132 144.588 96.9251C144.402 98.1662 140.372 99.7278 140.372 99.7278C140.205 100.197 138.189 100.953 137.417 101.138C136.92 101.256 136.421 101.256 135.923 101.138C135.704 101.34 135.923 101.842 135.822 104.21C135.778 104.943 135.778 105.677 135.822 106.41V106.51C135.956 106.997 136.292 107.316 137.082 107.837L140.439 108.675C140.557 108.675 141.129 109.062 141.666 109.28H141.766C141.895 109.296 142.024 109.296 142.152 109.28H142.371C143.193 109.343 143.983 109.54 144.739 109.869C144.871 109.925 144.988 110.004 145.091 110.104C145.21 110.328 145.305 110.564 145.377 110.808V111.027C145.406 111.137 145.445 111.243 145.495 111.345V111.463C145.571 111.648 145.689 111.798 145.847 111.918C145.989 111.992 146.14 112.026 146.301 112.018H146.486C147.941 112.383 149.273 113.009 150.482 113.896C150.859 114.131 151.151 114.444 151.355 114.838V115.021C151.437 115.565 151.412 116.104 151.278 116.635C151.144 117.168 150.912 117.654 150.582 118.094C150.504 118.204 150.437 118.322 150.381 118.446V118.564C150.08 119.219 149.458 120.578 151.439 123.248C153.421 125.917 153.84 126.892 153.102 128.805L152.984 129.124C152.604 129.943 152.092 130.67 151.447 131.303C150.802 131.937 150.066 132.435 149.239 132.802C148.047 133.556 136.361 136.344 132.079 138.004C128.51 139.176 125.252 140.93 122.306 143.261C120.862 144.72 120.274 147.995 119.753 150.631L118.242 149.607C117.951 149.94 117.587 150.147 117.151 150.228C117.05 150.246 116.95 150.246 116.848 150.228L116.329 150.329H115.892L112.986 150.85C110.654 151.041 108.325 150.997 106.001 150.715C110.485 149.037 112.718 146.988 114.396 147.139L109.88 144.302C106.169 141.986 104.842 140.944 101.064 138.761C101.064 138.761 90.7711 140.843 83.7524 138.527C88.7838 138.763 93.6763 138.047 98.4287 136.378C98.0003 135.922 97.5303 135.514 97.0187 135.152C93.396 132.395 89.5957 129.91 85.6171 127.698C83.5137 126.471 81.2824 125.559 78.9216 124.962C76.5615 124.367 74.1638 124.107 71.7306 124.188C70.8234 124.188 69.9176 124.374 69.0279 124.508L68.2381 121.436H67.2303C65.7847 121.554 64.3975 121.901 63.0659 122.477L62.73 122.175C62.0924 121.622 61.2865 120.934 60.3122 120.143C59.9984 120.58 59.6572 120.994 59.2884 121.386C60.7655 122.729 61.5379 123.518 61.5379 123.518L62.4283 124.441C63.2872 123.854 64.2151 123.417 65.2142 123.131C66.2139 122.843 67.233 122.721 68.2722 122.762C67.4864 123.098 66.7784 123.553 66.1475 124.129C65.5172 124.705 64.9989 125.368 64.594 126.12L64.779 126.524C70.7738 125.5 76.298 124.475 82.0574 128.201C86.1508 130.384 89.9631 132.982 93.4919 135.992C82.2412 138.426 75.9453 137.099 75.9453 137.099C79.7959 138.883 83.7873 140.26 87.9182 141.23C92.0128 141.826 96.076 141.657 100.108 140.725C103.063 142.656 106.959 144.939 109.864 146.938L108.404 147.777C104.256 149.759 97.8581 151.722 93.7775 150.632C95.4175 151.249 97.0978 151.73 98.8156 152.076L99.9239 152.193H111.527C113.605 152.426 115.688 152.465 117.772 152.311C119.452 153.519 120.46 154.259 122.172 155.383L122.995 155.919L123.23 156.087L123.801 156.474L124.036 156.625L124.741 157.129L125.431 157.632L125.632 157.785L126.118 158.136L126.286 158.254L127.545 159.194L128.251 159.713L128.419 159.849L128.838 160.151L129.208 160.436L129.41 160.57L129.712 160.806L129.897 160.938L130.282 161.207L130.786 161.544L131.256 161.83L131.391 161.93L131.744 162.131L132.231 162.417L135.774 164.213C131.576 165.489 118.445 163.155 99.1173 154.274L98.7478 154.374C113.264 163.325 128.65 170.378 144.909 175.528L144.757 175.763C130.79 172.455 117.498 167.387 104.877 160.554C90.4895 153.17 77.5263 143.812 65.9879 132.483C65.4897 132.947 65.1485 133.506 64.9641 134.161C64.6194 133.065 64.3848 131.946 64.2587 130.803C63.3469 131.054 62.6087 131.557 62.0421 132.315C61.8738 130.928 61.8738 129.539 62.0421 128.152C62.0421 128.152 59.8597 125.851 57.2736 123.334C56.7023 122.762 56.0976 122.192 55.5109 121.655L54.2846 120.512C53.4934 121.053 52.6479 121.488 51.7495 121.822C50.7343 122.217 49.685 122.467 48.6009 122.573C47.5167 122.677 46.4385 122.635 45.3664 122.445C44.2943 122.253 43.2678 121.922 42.2869 121.447C41.306 120.973 40.4082 120.376 39.5915 119.655C40.1521 120.301 40.7749 120.879 41.4602 121.391C42.1454 121.901 42.8769 122.335 43.6547 122.691C44.4318 123.045 45.239 123.313 46.0731 123.494C46.9085 123.676 47.7534 123.769 48.6082 123.769C49.9251 123.765 51.2064 123.552 52.4541 123.131C53.0039 123.763 53.4907 124.44 53.9138 125.163C55.3466 127.595 56.1411 130.219 56.2987 133.038C57.2696 132.032 58.3886 131.238 59.6572 130.653C59.4212 133.743 59.5613 136.814 60.0769 139.868C60.7145 138.761 62.9305 135.119 62.9305 135.119C63.2335 137.368 63.3341 142.489 64.7274 144.57C65.2001 142.819 65.7995 141.112 66.5236 139.449C67.1056 140.639 67.7996 141.758 68.6061 142.807C72.8745 147.788 77.7274 152.114 83.1644 155.785C88.2608 159.27 93.5449 162.442 99.0154 165.305C100.929 166.312 102.861 167.252 104.826 168.176C107.461 169.385 110.148 170.542 112.919 171.617C114.597 172.289 116.429 172.943 118.242 173.58C120.643 174.404 123.128 175.261 125.681 175.949C131.104 177.473 136.624 178.426 142.246 178.81C147.866 179.19 153.466 178.993 159.045 178.214C155.74 175.925 152.583 173.447 149.575 170.779C147.195 170.919 144.845 170.724 142.523 170.19" fill="#7A303F"/>
<path d="M106.825 25.5536V25.7213C106.938 26.023 107.028 26.3301 107.094 26.6452C107.094 26.8799 107.177 27.1145 107.229 27.3506C106.618 26.6445 105.957 25.9901 105.247 25.386C104.684 24.8885 104.091 24.4299 103.466 24.0095C104.362 24.0095 105.252 24.0605 106.137 24.1604L106.826 25.5543M142.49 96.9048C142.229 97.1542 141.924 97.3238 141.575 97.417C141.226 97.5082 140.876 97.5116 140.526 97.4251C140.375 97.9467 138.948 99.2729 138.091 98.6004C135.907 100.867 135.001 99.1381 134.733 98.8364C135.354 98.1988 135.857 97.1569 136.932 97.1569C137.587 96.3677 138.04 95.311 139.736 95.2607C140.123 94.4038 141.012 94.3717 141.617 93.968C142.221 93.5657 142.204 94.2369 142.44 94.4877L142.625 94.9416C142.763 95.2607 142.821 95.5926 142.798 95.9393C142.774 96.2872 142.671 96.6084 142.49 96.9061V96.9048ZM136.076 109.413C137.017 109.177 137.621 109.413 137.872 110.134C137.973 110.134 138.075 109.999 138.158 109.999C139.057 109.972 139.868 110.223 140.592 110.754L140.727 110.855C140.724 110.901 140.724 110.945 140.727 110.99C140.876 110.895 141.039 110.834 141.213 110.805C142.115 110.949 143.005 111.145 143.884 111.392C144.018 111.392 144.085 111.711 144.186 111.811C143.918 112.602 143.027 112.283 142.39 112.283C141.752 112.283 141.163 112.198 140.829 111.729C140.392 111.997 139.803 111.729 139.317 111.611C138.861 111.484 138.43 111.301 138.023 111.057C137.178 110.773 136.411 110.348 135.723 109.781C135.628 109.671 135.545 109.553 135.472 109.427C135.675 109.455 135.875 109.449 136.076 109.412V109.413ZM100.109 20.9199C94.9868 20.9179 89.916 21.4214 84.8954 22.4312C81.3143 22.5412 77.8485 23.2358 74.5015 24.5131C71.6385 24.5043 68.8399 24.9234 66.105 25.7722C63.4995 26.6036 61.0978 27.8346 58.902 29.4653C56.2488 31.816 52.1857 34.9217 52.4204 35.1061C51.7143 35.9355 50.9024 36.6475 49.9858 37.2382C45.9388 39.253 40.6158 45.3129 38.3831 48.6036C38.3831 48.6036 35.2097 53.2548 34.1013 55.0832C30.639 61.2899 27.5608 67.681 24.8661 74.2564C24.4296 76.0198 24.2284 79.1241 23.9589 80.2988C22.8834 84.712 22.3967 89.1888 22.4986 93.7313C22.6079 94.4253 22.6588 95.1253 22.6494 95.8286C22.4047 98.3899 22.4778 100.941 22.868 103.485C23.0678 106.443 23.4319 109.38 23.9589 112.298V112.451C24.9036 118.309 26.3861 124.027 28.4082 129.608C28.4082 129.608 29.9202 135.399 30.6255 136.911C31.2632 137.599 31.7835 137.682 31.935 138.37C32.2159 140.17 32.7483 141.89 33.5314 143.533C34.3139 145.176 35.3156 146.674 36.5359 148.023C36.7665 148.208 37.03 148.298 37.325 148.292C37.6274 148.292 37.8789 148.192 38.0974 148.192C38.1759 148.166 38.2543 148.166 38.3328 148.192C40.2966 151.197 39.0375 149.568 42.0272 152.255C43.2005 153.304 44.449 154.255 45.7712 155.11C46.217 155.264 46.6763 155.341 47.1477 155.343C47.3388 155.37 47.5285 155.37 47.7196 155.343C49.4823 156.97 51.3181 158.511 53.2256 159.967C55.1325 161.425 57.1024 162.787 59.1366 164.059C61.1722 165.333 63.2615 166.507 65.4043 167.585C67.5492 168.662 69.739 169.638 71.9737 170.511C74.2091 171.383 76.4808 172.152 78.7872 172.813C81.0944 173.474 83.427 174.027 85.7858 174.471C88.1445 174.916 90.518 175.251 92.9083 175.473C95.2986 175.697 97.6936 175.808 100.094 175.808C106.223 175.814 112.267 175.104 118.227 173.676C116.442 173.048 114.669 172.392 112.904 171.712C108.669 172.444 104.405 172.808 100.109 172.804C95.947 172.81 91.8128 172.468 87.7087 171.777C83.604 171.086 79.5864 170.057 75.6561 168.691C71.7257 167.323 67.9361 165.634 64.29 163.628C60.6445 161.622 57.1915 159.326 53.9323 156.738C53.9625 156.469 53.9625 156.201 53.9323 155.932V154.018C53.7761 152.957 53.4509 151.95 52.9588 150.997C52.8662 150.707 52.8146 150.411 52.8079 150.106C56.0081 153.034 59.4524 155.64 63.1381 157.925C66.8251 160.21 70.6918 162.133 74.7382 163.697C78.7839 165.26 82.9402 166.438 87.2058 167.227C91.4701 168.016 95.772 168.403 100.11 168.39C101.79 168.39 103.267 168.39 104.812 168.237C102.848 167.315 100.916 166.374 99.0024 165.367C97.5749 165.367 96.1481 165.367 94.7542 165.166C90.4611 162.78 86.2973 160.19 82.2617 157.393C76.6195 153.537 71.5822 149.01 67.1483 143.81C66.4831 145.557 65.9233 147.338 65.4694 149.149L63.4036 145.792C62.5957 144.331 62.1035 142.769 61.9265 141.108L59.441 145.103L58.4836 140.286C58.4836 140.286 57.98 136.223 57.9291 134.561C57.7615 134.643 54.7738 137.196 54.7738 137.196L54.5545 133.268C54.4265 130.583 53.6427 128.102 52.2045 125.831C50.9929 126.143 49.7612 126.299 48.5108 126.302C46.5516 126.305 44.6709 125.924 42.868 125.158C42.4227 124.969 41.9869 124.757 41.5625 124.523C41.1388 124.288 40.7271 124.035 40.3281 123.759C39.9292 123.485 39.545 123.19 39.1763 122.876C38.8068 122.562 38.4541 122.232 38.1176 121.882C37.7816 121.534 37.4638 121.169 37.1635 120.787C36.8644 120.407 36.5848 120.012 36.3253 119.605C36.0652 119.195 35.8258 118.774 35.6079 118.343C35.3907 117.91 35.1942 117.467 35.0213 117.015C34.8476 116.563 34.6967 116.102 34.57 115.634C34.4426 115.167 34.338 114.695 34.2576 114.217C34.1785 113.74 34.1221 113.259 34.0899 112.776C34.0578 112.292 34.0504 111.809 34.0672 111.324C34.0839 110.841 34.1248 110.357 34.1892 109.878C34.2535 109.397 34.3427 108.921 34.4554 108.451C34.568 107.979 34.7041 107.516 34.863 107.057C35.0219 106.599 35.2036 106.15 35.4081 105.712C35.6119 105.271 35.8379 104.844 36.0846 104.426C36.3307 104.011 36.5982 103.607 36.8852 103.217C37.1722 102.826 37.4793 102.453 37.8038 102.094C38.129 101.734 38.4702 101.392 38.8296 101.066C39.189 100.741 39.5631 100.435 39.9533 100.147C40.3429 99.8596 40.7472 99.5927 41.1629 99.3453C41.5799 99.0972 42.0077 98.8713 42.4476 98.6668C42.8867 98.4636 43.3353 98.2819 43.7925 98.1217C44.2505 97.9635 44.7151 97.826 45.1865 97.714C45.6578 97.6001 46.1332 97.5109 46.6133 97.4472C47.0934 97.3815 47.5754 97.3412 48.0595 97.3231C48.5443 97.3057 49.027 97.3138 49.5105 97.3446C49.9939 97.3754 50.4753 97.4318 50.9527 97.5109C51.4307 97.592 51.9034 97.6946 52.3707 97.822C52.8381 97.948 53.2987 98.0982 53.7513 98.2725C54.2039 98.4442 54.6464 98.6393 55.0795 98.8579C55.512 99.0745 55.933 99.3138 56.3427 99.5726C56.7517 99.8321 57.1466 100.112 57.5275 100.412C57.909 100.709 58.2737 101.029 58.623 101.363C58.9724 101.699 59.3042 102.051 59.618 102.42C59.9318 102.79 60.2268 103.174 60.5011 103.573C60.7773 103.97 61.0321 104.383 61.2661 104.806C61.4994 105.232 61.7126 105.667 61.903 106.111C62.0941 106.555 62.2618 107.01 62.4066 107.471C62.5527 107.933 62.6741 108.403 62.7727 108.876C62.8712 109.35 62.9457 109.829 62.9953 110.31C63.0462 110.791 63.0724 111.275 63.0737 111.759C63.0764 112.243 63.0536 112.728 63.0073 113.21C62.9604 113.691 62.89 114.17 62.7955 114.646C62.7009 115.121 62.5829 115.589 62.4414 116.053C62.3 116.517 62.1357 116.971 61.9493 117.418C61.7616 117.866 61.5531 118.301 61.3217 118.728C62.2121 119.516 63.0013 120.187 63.4713 120.709C64.821 120.18 66.2203 119.89 67.6692 119.835H68.677L69.3314 122.892H70.0367C70.7085 122.801 71.3804 122.751 72.0515 122.741C73.2061 122.693 74.3593 122.72 75.5106 122.824C75.6165 122.297 75.8351 121.821 76.165 121.398C76.8703 120.273 77.8439 119.467 78.4828 118.292C79.1205 117.116 80.1624 114.934 80.7672 113.909C81.0173 113.494 81.2251 113.056 81.388 112.6C82.1524 112.62 82.8859 112.783 83.5872 113.088C83.5872 113.088 83.722 113.203 83.7388 113.288C83.9553 113.843 84.2624 114.339 84.662 114.783C85.3674 115.501 86.188 116.05 87.122 116.428C88.0567 116.805 89.0276 116.978 90.0353 116.948C90.3638 116.862 90.6951 116.855 91.0276 116.922C91.3602 116.99 91.6626 117.127 91.9321 117.334L92.083 117.452C92.3585 117.674 92.5872 117.939 92.7722 118.241C92.9734 118.593 93.5775 119.434 94.081 120.323C96.2306 124.067 106.742 135.953 110.554 139.579L110.907 139.913C111.206 140.157 111.525 140.369 111.864 140.553C112.238 140.816 112.641 141.028 113.07 141.189C113.501 141.349 113.943 141.451 114.4 141.495C114.857 141.539 115.312 141.524 115.764 141.45C116.216 141.374 116.652 141.243 117.069 141.056C117.999 140.398 118.715 139.56 119.219 138.537C119.454 138.185 119.689 137.816 119.957 137.479C120.406 136.808 120.966 136.25 121.636 135.802C122.072 135.548 133.676 133.466 135.069 133.283C136.748 133.047 137.856 132.778 139.116 132.495C141.124 132.178 143.089 131.685 145.01 131.016H144.305C144.059 131.036 143.813 131.036 143.566 131.016C137.79 131.385 132.501 130.21 127.161 129.339L118.764 128.432C117.304 128.214 115.608 128.314 114.248 128.096C110.849 128.042 107.631 127.253 104.592 125.728C103.106 124.84 101.752 123.782 100.529 122.556C99.294 121.462 98.2923 120.187 97.5233 118.729C96.4961 116.84 95.6781 114.865 95.0713 112.803C95.7405 111.957 96.1542 110.999 96.3137 109.932C95.4361 110.655 94.4538 111.185 93.3649 111.515C92.2761 111.847 91.1664 111.957 90.034 111.846C89.5633 111.757 89.104 111.629 88.6568 111.459C87.9179 110.872 87.112 110.15 86.2558 109.563C85.472 108.971 84.599 108.587 83.6369 108.404C80.1101 107.8 79.6568 108.404 77.9954 106.876C81.3538 97.8434 83.0334 102.881 86.9115 95.1239C87.2132 95.5108 87.2132 96.0304 87.5156 96.3999C87.6236 96.5487 87.7637 96.6553 87.936 96.719C89.0101 96.9336 89.9622 97.3976 90.7909 98.113L91.1094 98.4321C91.3635 95.9131 91.8282 93.4357 92.5034 90.9958C92.4021 90.7443 92.6542 90.5586 92.5034 90.3581C92.3605 90.0008 92.1708 89.6702 91.9321 89.3665L91.5962 88.8971L91.4782 88.6457C91.4339 88.5492 91.3783 88.46 91.3106 88.3768C90.9371 87.9437 90.5898 87.4898 90.2693 87.0158C89.6136 85.8075 88.8298 84.6885 87.9192 83.6586C87.0637 81.387 85.8602 79.3172 84.3087 77.4479L84.1739 77.2971L84.0398 77.1616L83.8387 76.7593C83.8387 76.7593 81.8741 75.0798 81.5215 74.9792C82.9154 79.8986 81.5215 86.0436 81.1017 87.9397C80.682 87.3523 80.6653 79.5465 80.4299 78.8915C80.094 81.6284 79.9767 89.2505 76.2159 92.4728C76.82 90.1395 79.3055 82.2821 79.3216 82.1816C78.8851 82.9198 77.105 86.8823 76.0483 87.0835C77.3779 83.0009 78.4024 78.8432 79.1205 74.6098C78.4057 75.8059 77.8848 77.0818 77.5596 78.4369C77.4603 76.6755 77.7855 74.998 78.5331 73.4015L78.281 72.4448C78.3132 72.3824 78.3574 72.3328 78.4158 72.2939C78.0416 71.9211 77.689 71.5289 77.3577 71.1185L77.1398 70.8322L76.871 70.4957L76.4177 69.8755C76.4124 69.8312 76.4124 69.7863 76.4177 69.74C76.283 69.5389 76.1321 69.3384 76.0148 69.1373C75.7459 68.6833 75.5106 68.2462 75.2927 67.811V67.7084C74.4975 66.1234 74.071 64.4459 74.0154 62.6731C74.0328 62.472 74.0328 62.2695 74.0154 62.0683C74.1501 61.9677 74.0154 61.784 74.0154 61.6486C74.0342 60.9359 74.0911 60.2245 74.1837 59.5164C74.2051 59.3388 74.244 59.1665 74.3017 58.9968C74.4378 58.5617 74.5437 58.1192 74.6202 57.6706V57.452C74.7884 57.0772 74.9956 56.7232 75.2417 56.3947C75.3765 56.1761 75.5783 55.991 75.7291 55.757C76.2059 55.1616 76.7208 54.6025 77.2739 54.0775C77.693 53.7255 78.1134 53.3721 78.5499 53.0369L79.0031 52.7177C79.2318 52.5635 79.4443 52.3898 79.6408 52.1967L81.0347 51.0891L84.7123 48.906H84.8632C85.8709 48.3187 85.535 48.3354 86.4415 47.5805L86.6601 47.4115C87.1763 46.9502 87.7355 46.5466 88.3383 46.2026C89.0369 45.7038 89.8026 45.3565 90.6387 45.1627C90.9746 45.1627 92.1507 44.4406 92.62 44.3568L93.3079 44.0711C93.4769 44.0128 93.6398 43.9397 93.7947 43.8532L94.1481 43.7191C95.2054 43.3926 96.2862 43.1921 97.3885 43.115H97.7244C99.577 42.7496 101.446 42.5257 103.332 42.4432C103.332 42.4432 103.484 42.4432 104.155 42.3433V42.175L104.273 42.3091L104.374 42.2085C102.359 38.4471 101.133 35.0062 97.4388 32.5213C99.4617 33.5358 101.275 34.8405 102.88 36.4363C104.485 38.0327 105.8 39.839 106.826 41.8558C106.944 41.8558 106.994 41.9739 107.111 41.8558C107.229 41.7385 107.195 41.5541 107.111 41.4194V41.3362C107.077 41.2511 107.077 41.1673 107.111 41.0834C106.775 40.2272 106.49 39.4052 106.188 38.6328C105.515 36.7313 104.62 34.9398 103.501 33.2602C102.611 32.3705 101.991 31.2293 101.286 30.406C103.059 31.7282 104.659 33.2341 106.088 34.9223C106.077 34.9619 106.077 35.0008 106.088 35.0397C106.205 35.3085 106.49 35.5271 106.575 35.8121C106.681 35.9381 106.766 36.0783 106.826 36.2311V36.3156C106.903 36.5375 107.037 36.7166 107.23 36.8527C107.284 35.7812 107.077 34.7628 106.608 33.7979C105.987 32.7567 105.064 32.5555 104.358 31.8837C104.299 31.7644 104.249 31.641 104.207 31.5143C103.838 30.4891 103.435 28.475 102.713 26.6291C102.311 25.3994 101.639 24.3421 100.698 23.4557C102.65 24.4326 104.267 25.8037 105.551 27.5691C105.887 28.2068 106.374 29.063 106.86 30.188C108.047 32.8935 108.54 35.7189 108.338 38.6657C108.657 37.963 108.876 37.2302 108.993 36.4671C109.407 33.9213 109.407 31.3741 108.993 28.8283C109.748 30.3443 110.27 31.9367 110.556 33.6069C110.841 35.2764 110.88 36.9519 110.672 38.6328C111.484 37.8705 112.116 36.9807 112.57 35.9636C112.147 38.3063 111.196 40.4109 109.715 42.2762L110 42.5619C116.412 45.4235 122.009 49.425 126.791 54.5649C127.026 54.876 127.227 55.2046 127.396 55.5545C127.865 56.4282 127.961 57.34 127.682 58.2915C127.682 59.1651 126.725 60.6744 127.128 61.5152C127.208 61.6855 127.33 61.8149 127.497 61.9C128.488 62.4042 131.846 62.9748 133.542 63.9316L133.945 64.1502L134.382 64.3688L134.835 64.6202L135.087 64.7556L135.49 64.9896L135.809 65.1754L136.43 65.5622L136.715 65.7459L137.101 65.9994L137.572 66.3004L138.277 66.8033C138.513 66.9716 138.747 67.1399 138.966 67.3249L139.067 67.4081C139.335 67.6092 139.604 67.8117 139.855 68.0283L140.006 68.1463L140.796 68.802C142.76 70.4816 144.675 72.31 147.21 74.5273C147.885 75.1227 148.282 75.8669 148.402 76.76C148.402 76.988 148.368 77.2126 148.302 77.4312C147.496 79.6987 145.649 79.4299 144.389 81.4943C143.819 82.2365 143.292 83.0076 142.811 83.8115C142.862 84.3526 143.016 84.8628 143.273 85.3442C143.529 85.8236 143.868 86.2353 144.29 86.5813C144.809 87.1841 145.666 87.6554 145.969 88.2588C146.055 88.5002 146.055 88.7402 145.969 88.9816C145.661 89.6233 145.449 90.2944 145.33 90.9958C141.059 91.9821 137.242 93.8775 133.878 96.6862L133.693 96.9048C133.383 101.252 133.606 105.572 134.364 109.866C134.465 110.29 134.583 110.693 134.718 111.074C134.903 111.747 135.12 112.4 135.339 113.039C136.171 115.579 137.302 117.98 138.731 120.239C139.561 121.573 140.479 122.845 141.484 124.051L143.281 126.201C142.088 123.649 140.192 120.407 138.613 117.2C138.244 116.462 137.891 115.724 137.572 115.003C137.117 113.961 136.742 112.891 136.447 111.796C139.457 113.16 142.614 113.922 145.917 114.078C147.11 114.415 148.049 114.699 148.435 115.991C148.331 116.477 148.125 116.913 147.815 117.302C147.608 117.677 147.454 118.073 147.354 118.488C147.254 118.906 147.211 119.328 147.224 119.757C147.237 120.184 147.306 120.603 147.432 121.013C147.558 121.422 147.736 121.807 147.966 122.169L148.268 122.605C149.031 123.788 149.69 125.024 150.249 126.317C150.257 126.382 150.257 126.45 150.249 126.517C150.344 127.348 150.165 128.114 149.712 128.818C148.118 130.508 146.193 131.627 143.936 132.176C135.993 133.971 127.849 135.365 121.234 140.385C120.293 141.089 119.386 141.912 118.479 142.667C117.576 143.395 116.77 144.216 116.062 145.136C115.927 145.319 115.776 145.555 115.625 145.807V147.032C116.084 146.373 116.644 145.813 117.304 145.355C117.103 145.689 116.9 146.008 116.716 146.361C116.125 147.61 115.872 148.926 115.961 150.306L116.482 150.206C116.582 150.222 116.683 150.222 116.784 150.206C117.219 150.125 117.583 149.918 117.875 149.583L119.387 150.607C119.907 147.971 120.495 144.698 121.939 143.237C124.982 140.896 128.341 139.168 132.014 138.048C136.295 136.371 147.983 133.6 149.176 132.845C150.002 132.48 150.738 131.981 151.383 131.349C152.028 130.715 152.54 129.989 152.92 129.169L153.038 128.832C153.827 126.868 153.945 126.582 151.795 123.679C149.646 120.774 150.435 119.648 150.737 118.996V118.878C150.793 118.755 150.86 118.637 150.938 118.527C151.269 118.085 151.501 117.6 151.634 117.067C151.767 116.534 151.793 115.996 151.711 115.453V115.269C151.507 114.874 151.216 114.561 150.838 114.328C149.629 113.441 148.297 112.814 146.841 112.449H146.656C146.496 112.457 146.345 112.424 146.203 112.346C146.044 112.228 145.926 112.077 145.85 111.894V111.776C145.801 111.673 145.762 111.567 145.732 111.457V111.238C145.66 110.996 145.565 110.76 145.446 110.533C145.343 110.435 145.226 110.355 145.094 110.3C144.338 109.969 143.549 109.773 142.725 109.712H142.508C142.379 109.727 142.25 109.727 142.121 109.712H142.021C141.484 109.494 140.912 109.108 140.795 109.108L137.437 108.268C136.647 107.749 136.312 107.429 136.177 106.942C136.043 106.455 136.177 106.942 136.177 106.841C136.135 106.107 136.135 105.374 136.177 104.642C136.177 102.274 136.059 101.771 136.278 101.57C136.776 101.688 137.274 101.688 137.773 101.57C138.545 101.385 140.56 100.629 140.727 100.159C140.727 100.159 144.758 98.5977 144.943 97.3567C145.045 96.5447 144.988 95.7441 144.775 94.9557L144.657 94.7371L144.876 94.6365C145.774 94.2268 146.692 93.8695 147.629 93.5617C147.775 93.5523 147.914 93.5195 148.047 93.4591C148.18 93.3988 148.298 93.3163 148.401 93.2117C148.502 93.1091 148.583 92.9891 148.641 92.8557C148.699 92.7223 148.732 92.5815 148.738 92.4366C148.838 91.8989 149.007 91.1936 149.157 90.623C149.308 90.051 149.359 89.7668 149.375 89.6488C149.087 88.8777 148.689 88.1663 148.183 87.5166C147.461 86.7456 147.007 85.8391 146.823 84.7971C146.823 84.4237 146.935 84.0877 147.159 83.7901C148.191 82.433 149.3 81.1396 150.483 79.9126C150.746 79.6129 150.955 79.279 151.112 78.9116C151.267 78.5442 151.363 78.1633 151.395 77.7651C151.428 77.3668 151.399 76.9746 151.306 76.5884C151.213 76.1995 151.062 75.8367 150.852 75.4961C150.472 74.8987 150.04 74.3382 149.559 73.8179C147.267 71.3552 144.827 69.0494 142.238 66.9019C139.479 64.8817 136.586 63.0801 133.557 61.4951L132.902 61.1933C132.112 60.84 131.357 60.6885 131.056 60.2017C130.934 59.8825 130.934 59.5634 131.056 59.2449C131.056 58.9935 131.173 58.7749 131.24 58.5563C131.42 58.1768 131.51 57.7772 131.51 57.3561C131.51 56.9351 131.42 56.5361 131.24 56.1553C131.149 56.0138 131.065 55.8697 130.988 55.7181C129.024 53.1012 126.785 50.7458 124.272 48.6512C122.071 46.8885 114.533 42.0865 114.533 42.0865L115.221 39.8202C115.244 39.6634 115.244 39.5065 115.221 39.3496C115.354 38.6784 115.573 37.6713 115.624 37.1168V36.8151C115.665 36.0595 115.665 35.3045 115.624 34.5482C115.624 34.3645 115.624 34.1788 115.506 33.9944C115.511 33.922 115.511 33.8496 115.506 33.7758H115.221C115.203 33.5499 115.17 33.3259 115.12 33.1047C116.951 33.5277 118.761 34.0259 120.55 34.6005C122.339 35.1758 124.101 35.8248 125.837 36.5469C127.571 37.269 129.272 38.0629 130.941 38.9285C132.608 39.7934 134.237 40.7281 135.827 41.7298C137.417 42.7322 138.962 43.7989 140.462 44.9307C141.962 46.0618 143.412 47.2546 144.813 48.5084C146.213 49.7615 147.558 51.071 148.848 52.4381C150.138 53.8046 151.368 55.222 152.539 56.691C153.71 58.1621 154.818 59.6774 155.862 61.2389C156.906 62.8032 157.881 64.405 158.791 66.0503C159.7 67.6957 160.54 69.3753 161.307 71.0897C162.075 72.8041 162.771 74.5474 163.393 76.3208C164.014 78.0949 164.56 79.8912 165.032 81.7095C165.503 83.5286 165.896 85.365 166.213 87.2169C166.53 89.0681 166.768 90.9301 166.929 92.8027C167.089 94.674 167.171 96.5494 167.173 98.4281C167.164 102.615 166.764 106.763 165.973 110.874C165.183 114.986 164.015 118.987 162.473 122.879C160.929 126.772 159.037 130.485 156.796 134.021C154.554 137.556 152.002 140.854 149.14 143.91C143.646 149.807 137.299 154.57 130.098 158.197C131.021 158.817 131.996 159.438 133.071 160.076C134.684 159.212 136.263 158.283 137.805 157.294C139.346 156.304 140.846 155.254 142.306 154.15C143.764 153.041 145.178 151.878 146.546 150.66C147.914 149.442 149.233 148.172 150.5 146.852C151.769 145.53 152.985 144.161 154.144 142.745C155.306 141.327 156.41 139.868 157.457 138.364C158.504 136.862 159.489 135.32 160.415 133.739C161.339 132.16 162.202 130.545 163.002 128.897C163.801 127.248 164.534 125.571 165.201 123.867C165.869 122.161 166.469 120.432 167 118.679C167.531 116.925 167.995 115.154 168.387 113.367C168.779 111.576 169.102 109.775 169.354 107.962C169.605 106.147 169.786 104.326 169.894 102.497C170.003 100.669 170.04 98.8405 170.004 97.0094C169.969 95.1769 169.863 93.3498 169.686 91.5275C169.507 89.7044 169.259 87.8914 168.937 86.0885C168.618 84.2849 168.227 82.4974 167.766 80.7246C167.305 78.9518 166.776 77.2012 166.178 75.4687C165.58 73.7388 164.915 72.0337 164.184 70.3535C163.452 68.6739 162.656 67.0266 161.794 65.4107C160.933 63.7928 160.01 62.2131 159.026 60.669C158.04 59.1249 156.995 57.621 155.894 56.1593C154.79 54.6957 153.632 53.2796 152.418 51.9084C151.204 50.5373 149.938 49.2151 148.62 47.9432C147.302 46.6713 145.937 45.4517 144.523 44.287C143.11 43.1217 141.653 42.0134 140.153 40.9628C138.652 39.9114 137.113 38.9211 135.535 37.9905C133.957 37.0599 132.345 36.1929 130.699 35.3897C129.054 34.5851 127.378 33.8476 125.674 33.1751C123.971 32.5026 122.243 31.8978 120.491 31.3607C118.74 30.8237 116.971 30.3563 115.182 29.9574C113.394 29.5591 111.593 29.2319 109.78 28.9745L109.426 28.3704C108.793 27.254 108.06 26.2074 107.227 25.2305L106.202 24.1724C108.158 24.334 110.106 24.5727 112.044 24.8872C113.981 25.203 115.903 25.5945 117.81 26.0612C119.716 26.5285 121.6 27.0703 123.464 27.6871C125.328 28.3033 127.164 28.9926 128.974 29.7536C130.783 30.5152 132.559 31.3473 134.301 32.2498C136.044 33.1516 137.75 34.1218 139.417 35.1584C141.083 36.1949 142.706 37.2972 144.286 38.4618C145.865 39.6278 147.396 40.8535 148.879 42.1395C150.362 43.4261 151.791 44.7698 153.167 46.1691C154.543 47.5677 155.862 49.02 157.124 50.5246C158.385 52.0278 159.584 53.58 160.723 55.1784C161.862 56.7768 162.936 58.4182 163.944 60.1018C164.953 61.7854 165.893 63.5058 166.766 65.2645C167.638 67.0219 168.44 68.8121 169.171 70.6344C169.902 72.4555 170.56 74.3033 171.144 76.1767C171.729 78.05 172.239 79.9441 172.673 81.8577C173.108 83.7713 173.467 85.7003 173.749 87.6413C174.031 89.5844 174.236 91.5342 174.364 93.4927C174.492 95.4505 174.542 97.413 174.515 99.3748C174.488 101.337 174.383 103.295 174.201 105.25C174.019 107.203 173.76 109.149 173.424 111.081C173.088 113.014 172.677 114.931 172.188 116.834C171.701 118.734 171.139 120.613 170.502 122.47C169.867 124.326 169.157 126.155 168.377 127.956C167.596 129.755 166.745 131.522 165.824 133.256C164.902 134.989 163.915 136.683 162.86 138.337C161.805 139.994 160.687 141.604 159.504 143.17C158.322 144.738 157.08 146.255 155.777 147.724C154.474 149.191 153.116 150.606 151.702 151.966C150.288 153.328 148.821 154.63 147.304 155.875C145.786 157.12 144.222 158.303 142.611 159.424C141 160.547 139.347 161.603 137.653 162.592C138.625 163.062 139.785 163.616 140.91 164.104L141.128 163.968L142.42 163.146L142.958 162.792L145.006 161.383C146.266 160.494 147.475 159.588 148.668 158.629C149.222 158.194 149.759 157.739 150.346 157.27L151.941 155.876C152.697 155.221 153.419 154.532 154.141 153.844C154.863 153.157 155.553 152.451 156.24 151.748C156.929 151.042 157.919 150.068 158.675 149.093C159.801 147.817 160.859 146.525 161.882 145.184C164.432 141.843 166.691 138.319 168.658 134.608C170.626 130.897 172.276 127.049 173.608 123.064C174.941 119.08 175.938 115.016 176.598 110.868C177.26 106.719 177.577 102.544 177.549 98.3436C177.548 97.0777 177.514 95.8112 177.452 94.5453C177.388 93.2808 177.294 92.0169 177.169 90.7564C177.043 89.4959 176.887 88.2401 176.7 86.9876C176.513 85.7331 176.295 84.486 176.048 83.2436C175.799 82.0025 175.521 80.7675 175.212 79.5378C174.903 78.3088 174.565 77.0892 174.195 75.877C173.827 74.6647 173.429 73.4626 173.001 72.2698C172.574 71.077 172.117 69.8962 171.631 68.7269C171.146 67.5576 170.632 66.3997 170.09 65.2531C169.548 64.1086 168.978 62.9782 168.38 61.8605C167.783 60.7434 167.157 59.6412 166.506 58.555C165.854 57.4688 165.175 56.3994 164.472 55.3467C163.768 54.2934 163.038 53.2588 162.283 52.2403C161.528 51.2232 160.749 50.2255 159.944 49.2466C159.14 48.267 158.312 47.3082 157.462 46.3696C156.612 45.4315 155.738 44.5136 154.841 43.6186C153.946 42.7235 153.028 41.8491 152.089 40.999C151.151 40.1481 150.193 39.3207 149.213 38.5168C148.233 37.7136 147.235 36.9345 146.217 36.1795C145.2 35.4245 144.164 34.6951 143.112 33.991C142.059 33.2864 140.989 32.6098 139.902 31.9581C138.815 31.3057 137.714 30.6809 136.597 30.0841C135.479 29.486 134.348 28.9168 133.203 28.3744C132.058 27.8326 130.901 27.3184 129.731 26.8329C128.561 26.3475 127.378 25.8909 126.185 25.4638C124.994 25.0354 123.79 24.6378 122.579 24.269C121.366 23.9002 120.145 23.5623 118.916 23.2539C117.688 22.9455 116.452 22.6665 115.209 22.4185C113.968 22.1704 112.719 21.9525 111.466 21.7654C110.213 21.579 108.955 21.4228 107.695 21.2974C106.435 21.172 105.172 21.0775 103.906 21.0145C102.64 20.9514 101.374 20.9186 100.107 20.9172L100.109 20.9199ZM133.91 84.667C134.816 84.8005 134.934 85.0358 138.226 82.7354C139.4 81.6432 141.399 82.3995 142.39 81.0558C142.507 80.8372 142.49 80.4524 142.239 80.3672C140.056 79.8476 138.427 81.2241 136.765 82.7179C135.203 83.5567 133.406 82.5845 132.08 81.8289C131.638 81.5969 131.295 81.2623 131.052 80.8278C130.809 80.3927 130.703 79.9254 130.736 79.4285C129.921 78.2069 129.036 77.0376 128.084 75.9199L126.404 73.9037C125.416 72.7284 124.258 71.7542 122.929 70.9831L121.401 69.7246C121.266 69.5389 121.048 69.7246 120.981 69.8077C123.147 72.3093 126.018 74.6265 127.58 77.4473C128.863 79.2757 129.731 81.2865 130.183 83.4743C130.942 87.8311 131.076 92.2073 130.585 96.603C130.39 99.7966 130.535 102.976 131.021 106.138C131.356 109.024 132.161 111.773 133.44 114.381C133.288 113.69 133.199 112.99 133.172 112.284C132.181 107.447 131.139 101.337 131.912 97.0228C132.786 92.8034 132.786 88.5834 131.912 84.364C132.248 83.6432 133.524 84.5826 133.86 84.6677H133.911L133.91 84.667ZM108.722 72.6452C106.998 74.1994 105.49 75.9387 104.199 77.8703C102.909 79.7993 101.875 81.8584 101.1 84.0442C101.922 82.7394 102.817 81.4849 103.786 80.2848C105.399 77.1066 107.694 74.538 110.67 72.5782C112.293 71.4632 114.038 70.5868 115.903 69.9512C117.767 69.3156 119.684 68.9421 121.652 68.8342C121.803 68.8342 122.105 68.9522 122.188 68.8342C121.887 68.6163 121.484 68.6163 121.165 68.399C121.096 68.3662 121.047 68.3159 121.014 68.2462C121.014 68.1456 121.014 68.0276 120.829 67.8942C120.644 67.7607 120.089 67.7084 119.804 67.4423C119.545 67.1466 119.45 66.8046 119.519 66.4178C119.669 65.8807 120.325 66.2146 120.745 66.0986C120.88 66.0986 121.987 65.6293 121.987 65.6293C120.996 64.4365 118.847 64.9735 118.242 65.2927C116.308 65.7104 114.478 66.4044 112.751 67.3745V67.2894C113.474 66.2669 110.905 67.693 108.924 69.5563C108.924 69.3552 108.671 69.0018 107.949 67.8767C108.25 66.3708 108.899 65.0332 109.897 63.8659C111.955 61.8712 114.34 60.4115 117.05 59.4836C118.033 60.2278 118.962 61.0338 119.838 61.9C120.16 62.3446 120.389 62.8313 120.525 63.361C120.879 61.9349 122.541 61.5152 123.582 60.8601C123.364 60.9935 122.424 60.5912 122.137 60.5584C122.123 60.3284 122.178 60.1199 122.302 59.9261C122.426 59.7344 122.595 59.5976 122.809 59.5164C123.179 59.2824 123.314 58.4088 123.314 58.04C123.314 57.6713 123.314 56.9652 122.944 56.6789C120.426 54.7151 115.623 53.2045 115.085 54.0097C114.952 54.1955 116.245 55.0845 116.58 55.5217C115.745 55.1965 114.888 54.9397 114.012 54.7506C113.374 54.7272 112.743 54.7721 112.114 54.8841C110.804 55.1026 102.442 60.1729 101.788 60.492C101.788 62.5236 107.16 60.1226 108.151 59.6686C105.733 60.8614 99.2015 66.2334 98.0764 68.7189C100.276 68.6009 104.103 65.5448 105.481 65.1432C107.412 64.5712 106.186 67.9458 106.186 67.9458C106.186 67.9458 104.004 69.4222 107.194 69.1037C107.984 69.0206 107.563 69.272 107.194 69.7762C106.572 70.615 106.236 71.6549 106.439 71.7729C106.921 71.5798 107.381 71.3398 107.815 71.0522C109.784 70.2985 111.787 69.6542 113.826 69.1212C112.316 70.0605 110.636 70.5828 109.109 71.4712V71.7226C109.68 71.9587 109.141 72.3784 108.722 72.6466V72.6452ZM140.072 76.4053C140.421 76.6239 140.79 76.7976 141.181 76.927C141.277 76.9484 141.368 76.933 141.454 76.8807C141.537 76.8284 141.592 76.7533 141.617 76.6588C141.818 76.0211 140.609 75.4485 140.223 75.0791C139.9 74.8451 139.609 74.5762 139.35 74.2732C139.182 74.0217 139.199 73.3506 138.829 73.2835C138.366 73.2507 137.969 73.3955 137.637 73.7207C137.335 73.954 136.983 74.1397 136.68 74.3912C136.377 74.6426 136.142 74.7452 136.126 75.0288C136.126 74.8605 137.956 75.4827 138.107 75.5491C138.768 75.818 139.422 76.1036 140.072 76.4053H140.072ZM89.1268 106.475C88.3711 106.239 87.7161 105.734 86.9946 105.433C85.9628 104.797 84.8437 104.428 83.6362 104.325L84.072 104.594C85.5672 104.862 86.6413 106.271 87.9514 106.96C88.5052 107.302 89.1067 107.472 89.7564 107.472C90.4061 107.472 91.0082 107.303 91.562 106.96C91.8449 106.776 92.0675 106.534 92.2285 106.237C92.3894 105.939 92.4698 105.62 92.4692 105.282C92.5221 104.679 92.4102 104.106 92.1339 103.568C91.8584 103.028 91.4608 102.603 90.9411 102.294C90.4631 102.696 90.0782 103.172 89.7879 103.725C89.4969 104.275 89.3212 104.863 89.2616 105.484C89.6645 105.032 89.8657 104.444 90.4369 104.09C90.6562 104.049 90.8674 104.075 91.0705 104.167C91.2737 104.26 91.4326 104.401 91.5446 104.595C91.5881 104.867 91.5607 105.132 91.4614 105.39C91.3622 105.647 91.206 105.864 90.9901 106.037C90.4376 106.477 89.8167 106.623 89.1268 106.475Z" fill="#221F21"/>
</svg>
