<svg width="200" height="201" viewBox="0 0 200 201" fill="none" xmlns="http://www.w3.org/2000/svg">
<g clip-path="url(#clip0_15016_302253)">
<path d="M99.9715 196.809C99.9715 196.809 105.613 155.09 137.028 128.764C137.028 128.764 159.984 107.912 199.924 98.8126L200 98.7857C160.041 89.7432 137.056 68.9263 137.056 68.9263C105.596 42.641 100.02 0.95195 100.02 0.95195L99.9765 0.965393C99.9765 0.965393 94.399 42.6528 62.9438 68.9398C62.9438 68.9398 39.9574 89.7549 0 98.8008L0.0788642 98.826C40.0128 107.924 62.9723 128.769 62.9723 128.769C94.3939 155.1 99.9463 196.809 99.9463 196.809H99.9715Z" fill="#512888"/>
<path d="M172.397 98.7739C116.318 79.3414 99.959 28.1316 99.959 28.1316L99.9523 28.15C99.9523 28.15 83.562 79.3699 27.4844 98.8007L27.5012 98.8175C83.5787 118.25 99.9641 169.53 99.9641 169.53L99.9775 169.545C99.9775 169.545 116.353 118.243 172.43 98.8074L172.397 98.7739Z" fill="white"/>
<path d="M156.775 98.8011C115.591 117.415 99.9807 155.303 99.9807 155.303C99.9807 155.303 84.3723 117.452 43.1833 98.8397L43.1514 98.8095C84.337 80.1958 99.9471 42.3426 99.9471 42.3426H99.9589C99.9589 42.3426 115.562 80.1656 156.746 98.781L156.775 98.8011Z" fill="#512888"/>
<path d="M81.0146 122.029L81.0868 116.405C82.9074 116.071 84.8707 114.289 84.8908 112.377V88.6772C84.8019 87.0294 83.7196 85.4722 81.0868 85.5108V77.839H119.971V93.1323L114.387 93.1223C114.32 88.3165 110.194 85.4101 107.829 85.5108H95.8348V97.8945L100.167 97.8626C101.862 97.7922 103.559 96.1662 103.691 93.1911L109.089 93.1592V109.867L103.757 109.842C103.757 105.783 101.931 104.699 100.243 104.702H95.8348L95.7694 112.213C95.7056 115.121 98.5481 116.413 100.24 116.413L100.305 121.895L81.0146 122.029Z" fill="white"/>
</g>
<defs>
<clipPath id="clip0_15016_302253">
<rect width="200" height="200" fill="white" transform="translate(0 0.945312)"/>
</clipPath>
</defs>
</svg>
