<svg width="200" height="200" viewBox="0 0 200 200" fill="none" xmlns="http://www.w3.org/2000/svg">
<g clip-path="url(#clip0_15016_303952)">
<path d="M63.0394 61.0049C76.2457 46.1177 95.615 37.2334 115.625 41.9557C131.232 45.6375 141.557 56.6828 154.924 65.3269C157.245 66.7676 159.246 68.7686 162.127 68.7686C162.447 71.65 160.766 74.1312 160.446 76.9325C166.049 80.134 170.611 84.4561 174.133 90.0588C175.653 92.54 176.934 95.0212 177.895 97.7425C178.855 100.384 177.574 103.425 179.575 105.906C183.577 103.585 187.739 100.944 192.622 102.305C194.783 102.945 194.783 105.346 196.383 106.627C197.424 107.427 198.624 107.827 199.985 107.507C200.225 110.228 197.504 111.909 195.423 113.03C193.182 114.23 190.14 113.99 188.62 111.589C185.738 114.551 182.057 116.391 178.295 117.912C177.414 118.232 175.814 118.152 175.333 118.472C172.132 120.313 169.811 123.435 166.609 125.516C168.05 126.156 169.01 124.876 170.291 124.715C172.692 124.395 175.093 126.076 177.094 125.196C179.655 124.155 181.656 121.834 184.618 121.114C187.499 120.393 191.341 120.874 191.661 124.235C191.901 126.796 192.622 128.797 193.422 131.199C193.982 132.719 193.262 134.4 192.462 135.521C190.541 138.002 190.14 141.043 187.739 142.884C182.617 146.806 176.294 147.126 170.451 148.887C160.846 151.848 151.002 154.009 141.317 152.329C131.632 160.413 116.185 162.173 105.86 153.929C101.218 154.09 96.5755 155.77 92.0133 153.849C86.7308 151.608 83.049 147.446 78.4068 143.925C77.4463 143.204 75.6855 144.325 75.5254 145.445C75.2853 146.966 76.2457 149.367 75.4454 149.928C73.6045 151.128 71.5235 147.446 69.2824 148.167C64.24 149.767 59.1975 149.367 54.1551 150.248C52.7144 150.488 51.834 153.849 51.0336 153.529C48.3123 152.329 48.4724 147.366 44.7106 146.886C41.0288 146.326 37.267 148.167 33.8254 146.166C28.2227 142.964 22.2198 145.045 16.2169 144.405C10.7743 143.845 7.89291 139.042 6.69234 133.36C6.37218 131.759 3.09061 131.599 1.56988 129.918C-0.831275 127.277 -0.190967 123.915 1.56988 121.434C2.77045 119.753 5.33168 119.433 6.05203 117.912C7.41268 114.871 5.41172 110.789 8.45318 107.907C9.09349 108.708 9.49368 109.588 10.054 110.389C11.0945 106.147 15.0163 104.386 17.9778 101.584C18.6981 100.864 19.1783 99.6634 20.2188 98.9431C17.8977 98.2227 16.6971 96.3018 17.4175 94.0607C17.9778 92.3799 19.0983 90.8592 20.6991 90.0588C21.9797 89.4185 23.6605 88.8582 24.4609 88.0578C28.863 83.7358 33.5853 80.2141 38.6277 76.9325C37.8273 69.0887 46.1513 66.7676 51.1137 62.5256C51.834 61.8853 51.914 60.2045 52.9545 60.0444C55.6759 59.5642 56.5563 63.5661 56.076 65.9672C55.3557 69.2488 51.9141 70.6895 50.9536 73.731C50.8736 73.9711 51.3538 74.2912 51.6739 74.0511C55.6759 69.8091 59.1175 65.487 63.0394 61.0049Z" fill="black"/>
<path d="M80.5687 88.4569C82.4095 88.8571 81.6092 85.7356 82.9698 84.6151C81.5291 83.8947 80.0884 84.6951 78.9679 85.2554C77.207 86.2158 79.6082 88.2168 80.5687 88.4569Z" fill="white"/>
<path d="M86.73 105.828C88.1707 108.55 90.972 104.628 92.3327 103.027C90.7319 101.987 88.2507 100.866 86.73 102.307C85.9296 103.187 86.1697 104.708 86.73 105.828Z" fill="white"/>
<path d="M85.8514 130.316C87.2121 129.916 89.213 129.996 89.5332 129.276C90.4936 127.675 87.7723 126.314 86.4917 125.674C84.7309 124.794 83.9305 127.915 84.3307 129.436C84.4908 129.996 84.971 130.636 85.8514 130.316Z" fill="white"/>
<path d="M70.0019 145.044C69.8418 145.364 69.8418 145.924 70.0019 146.244C70.9624 147.685 72.7232 147.685 74.0839 148.726C74.404 148.966 74.8042 148.645 74.8042 148.405C74.484 146.484 74.8842 143.523 72.8032 143.283C71.7627 143.043 70.4821 143.923 70.0019 145.044Z" fill="white"/>
<path d="M52.4742 149.926C53.2745 148.646 53.9949 147.605 52.3941 147.205C51.4337 146.965 49.8329 146.405 49.3527 147.525C48.7924 149.046 50.2331 150.487 50.7934 151.927C51.3536 151.287 51.9939 150.727 52.4742 149.926Z" fill="white"/>
<path d="M130.591 50.1181C122.587 44.6755 113.863 42.5145 104.979 42.9947C89.7717 44.2753 86.4101 47.0767 74.4844 54.12C71.0427 56.201 57.3561 70.768 55.7554 73.8895C55.2751 74.77 58.2366 74.93 59.2771 74.5298C60.8778 73.9696 61.3581 71.3283 63.1189 70.5279C69.2819 67.6465 72.0032 61.3235 77.7659 57.8018C78.1661 57.5617 78.6464 57.0014 79.2867 57.3216C80.2471 57.7218 78.8865 58.122 79.2867 58.5222C75.4448 61.4035 72.4034 65.0053 69.522 68.687C71.603 69.8076 72.9636 72.1287 74.9646 72.849C77.3657 73.7295 80.2471 72.769 82.9684 73.3293C84.4091 73.6494 84.089 75.6504 83.6087 76.7709C82.6483 79.092 78.8865 79.6523 78.6464 81.4131C78.3262 83.9744 82.088 83.094 84.5692 82.5337C84.7293 84.0544 83.5287 85.6552 83.7688 86.4556C85.2895 91.2579 88.9713 95.2598 90.5721 100.382C90.9723 101.663 93.6135 101.343 94.0938 102.223C94.8942 103.664 91.6926 104.544 91.7727 106.145C92.3329 112.948 90.5721 119.591 89.8517 126.155C89.6917 127.355 92.7331 128.076 92.1729 129.676C91.6126 131.117 89.0514 130.077 88.0909 131.117C84.9694 134.479 82.6483 138.4 79.3667 141.602C85.0494 142.162 90.8122 142.643 96.4949 143.203C93.3734 137.28 90.9723 127.195 98.736 122.793C99.5364 122.313 100.177 120.312 101.457 119.672C103.138 118.871 104.819 120.072 106.26 121.112C107.38 119.511 109.861 119.271 110.502 117.671C112.983 111.508 112.182 110.307 119.306 103.584C116.985 102.943 114.664 104.784 112.423 103.904C110.982 103.424 109.301 103.344 108.341 101.983C110.662 101.423 112.583 103.344 114.824 102.703C118.986 101.663 122.828 99.9821 126.99 100.943C127.47 101.023 128.35 100.782 128.67 101.503C130.671 97.3408 129.231 92.2183 128.11 87.6561C126.91 82.5337 123.628 78.6118 121.307 74.1296C124.829 76.1306 126.029 79.9725 128.27 83.094C129.311 82.2135 127.95 80.4527 129.151 79.9725C129.631 79.7323 129.631 80.7728 129.711 81.093C130.111 82.7738 129.151 84.6147 129.311 86.2955C129.471 87.8963 130.031 89.5771 130.431 91.1778C131.552 95.0997 130.511 98.8615 131.072 102.623C132.672 101.823 132.272 98.8615 134.273 99.1817C134.673 99.2617 134.033 100.382 133.713 100.862C133.073 102.223 131.792 103.424 131.312 104.704C130.911 106.065 130.831 107.906 131.392 109.507C132.992 107.586 135.234 105.985 136.114 103.744C140.996 90.7776 148.6 79.092 158.365 69.5675C149.08 63.0843 140.436 56.7613 130.591 50.1181ZM81.6878 56.4412C81.4477 56.6012 81.2076 56.6813 80.8874 56.9214C80.5673 57.1615 80.0871 56.7613 80.1671 56.6012C81.4477 53.4797 84.8894 52.9995 87.5306 51.4788C90.8122 49.5579 94.0938 47.6369 98.0157 47.6369C92.7331 50.6784 87.2105 52.6793 81.6878 56.4412Z" fill="#BF2F37"/>
<path d="M125.87 103.904H125.069C124.837 103.824 124.757 103.976 124.901 104.056C125.221 104.08 125.549 104.224 125.87 103.904Z" fill="white"/>
<path d="M115.385 118.392C116.106 116.551 117.146 115.03 118.026 113.349C118.827 111.829 120.187 110.788 121.308 109.508C123.149 107.507 125.15 105.826 127.551 104.545C126.671 104.225 125.71 104.465 124.91 104.065C124.902 104.065 124.902 104.057 124.902 104.057C124.822 104.049 124.75 104.049 124.67 104.065C124.029 104.145 123.469 104.785 122.909 105.266C118.827 108.787 115.945 113.189 114.265 118.232C114.745 118.072 115.305 118.632 115.385 118.392Z" fill="white"/>
<path d="M97.7772 141.125C98.2574 141.285 98.5775 139.844 98.1773 138.884C97.6171 137.443 97.377 135.842 96.0163 134.882C95.6962 134.642 95.2159 135.042 95.296 135.202C96.0964 137.283 95.7762 140.164 97.7772 141.125Z" fill="white"/>
<path d="M108.983 138.403C110.504 136.402 108.022 133.921 106.662 132.4C105.141 134.001 106.662 136.402 107.862 138.083C108.262 138.643 108.823 138.563 108.983 138.403Z" fill="white"/>
<path d="M103.78 124.557C105.941 124.477 104.26 121.915 102.499 121.515C101.059 121.195 100.098 122.956 100.018 123.836C99.9382 125.757 102.74 124.637 103.78 124.557Z" fill="white"/>
<path d="M173.253 93.3382C168.931 87.0151 164.449 81.2524 157.806 78.1309C157.246 77.8908 158.606 80.0518 157.886 80.3719C155.965 81.0923 156.365 76.6101 155.885 77.0103C147.641 83.1733 142.118 92.1376 139.237 102.302C139.157 102.623 140.518 101.902 140.758 101.342C141.718 98.9409 142.999 96.9399 145 95.3391C145.32 95.099 145.8 95.4992 145.72 95.6593C144.92 97.4201 143.399 98.7808 142.519 100.622C145.8 100.862 148.602 98.3806 151.883 99.0209C148.442 101.982 143.639 101.822 140.037 104.784C136.676 107.585 134.195 110.787 132.354 114.548C129.793 119.671 130.673 125.193 129.632 130.796C128.992 134.158 125.31 137.119 121.709 135.278C121.629 135.198 121.709 134.798 121.709 134.558C124.67 135.118 127.151 132.877 127.792 130.076C128.432 127.034 127.311 124.313 127.551 121.352C127.872 116.95 132.834 112.788 129.072 109.186C124.19 112.147 120.988 116.95 117.627 121.432C119.147 125.354 118.667 129.676 120.428 133.678C120.508 133.838 120.028 134.238 119.788 133.998C116.106 129.836 118.267 121.752 111.944 120.391C108.983 119.751 106.982 122.392 105.541 124.713C105.301 125.033 105.301 125.754 105.861 125.834C108.502 125.994 110.823 127.435 112.264 129.676C117.066 137.039 121.389 145.363 118.427 154.007C118.187 154.648 117.947 155.528 116.826 155.288C119.868 147.124 115.706 138.8 111.384 131.757C109.943 129.435 107.862 127.194 105.061 127.355C104.58 127.355 104.34 128.475 104.1 129.195C104.02 129.435 103.46 129.115 103.46 128.795C103.38 128.235 103.14 127.595 103.78 127.194C102.98 126.474 101.939 126.154 100.899 126.474C100.098 126.714 99.458 127.354 98.8177 127.995C97.9373 128.955 99.378 130.716 97.6171 131.276C97.377 129.756 98.1774 128.235 97.2169 126.794C95.5361 128.315 93.5351 131.757 95.4561 132.877C96.8968 133.678 98.2574 135.118 99.2979 136.639C100.498 134.878 97.8572 132.317 100.498 130.956C100.258 133.597 100.659 136.239 102.579 138.24C102.82 138.48 103.22 138.16 103.3 137.84C103.62 135.678 100.899 133.678 102.019 132.477C103.06 131.356 103.86 134.078 104.5 135.438C105.301 134.718 104.5 133.517 105.061 133.117C105.861 132.477 106.181 131.116 106.501 131.196C109.703 132.077 112.504 137.039 109.943 139.6C108.102 141.361 105.861 138.16 104.981 135.839C104.1 136.959 105.141 138.64 104.1 139.36C101.939 140.721 100.819 138.08 99.6981 136.239C98.6576 138.48 100.899 141.121 98.4975 142.802C104.02 154.728 118.827 160.971 131.073 156.248C135.075 154.728 138.597 152.567 141.158 148.885C143.799 145.043 144.36 140.721 146.681 136.799C147.481 135.518 148.602 134.398 149.882 133.597C158.126 128.315 166.85 125.434 172.773 117.43C177.976 110.386 178.216 100.702 173.253 93.3382ZM112.264 153.207C112.184 153.527 111.704 153.847 111.624 153.607C110.583 150.566 110.903 145.443 107.062 145.443C105.061 145.363 106.341 148.004 107.142 149.445C107.622 150.326 108.342 150.966 108.662 151.926C105.541 151.846 104.34 147.364 105.301 145.123C106.501 142.082 110.343 144.563 111.384 146.724C112.424 148.725 112.664 150.806 112.264 153.207ZM124.99 153.127C125.47 150.886 126.911 149.045 125.47 146.564C125.31 146.324 125.23 146.083 124.99 145.763C124.75 145.443 125.07 145.043 125.39 145.043C127.231 145.123 126.831 147.364 127.231 148.725C127.632 150.245 126.591 152.487 124.99 153.127Z" fill="white"/>
<path d="M195.664 108.065C194.063 107.505 194.704 104.864 193.103 104.223C188.781 102.462 184.539 104.623 180.937 106.945C181.738 107.745 182.298 108.625 182.138 109.826C180.617 109.346 180.057 107.825 178.856 106.945C177.976 109.826 178.376 113.107 176.375 115.509C179.817 116.949 182.938 113.748 185.74 111.907C187.58 110.706 189.341 108.865 191.422 109.346C191.822 109.426 191.182 110.306 190.702 110.706C193.023 113.027 196.865 111.427 197.745 108.945C197.825 108.625 196.465 108.385 195.664 108.065Z" fill="white"/>
<path d="M157.646 75.2511C158.046 75.4111 158.607 75.091 158.847 75.7313C159.807 74.6108 161.088 72.6898 160.047 71.2491C158.927 72.3697 157.726 73.2501 156.926 74.6108C156.846 74.6108 157.326 75.091 157.646 75.2511Z" fill="white"/>
<path d="M97.9371 146.566C92.4944 145.045 87.1319 142.164 81.2891 143.765C86.2514 149.767 95.0557 154.33 102.899 151.928C102.259 151.128 101.539 150.488 100.818 149.527C100.018 148.327 98.9776 146.806 97.9371 146.566Z" fill="white"/>
<path d="M163.729 128.317C164.129 127.917 164.69 127.517 164.85 127.036C164.93 126.796 164.449 126.476 164.129 126.716C163.169 127.677 161.808 127.837 160.848 128.717C161.728 129.277 162.528 129.598 163.729 128.317Z" fill="white"/>
<path d="M145.001 147.446C143.88 147.526 143.88 149.927 142.52 150.808C145.001 151.848 147.722 151.528 150.283 151.528C154.765 151.608 159.248 150.567 163.33 148.727C157.247 148.166 151.084 147.046 145.001 147.446Z" fill="white"/>
<path d="M190.782 130.877C188.861 131.198 187.741 134.479 185.019 134.479C185.019 134.079 184.859 133.439 185.099 133.359C187.901 131.678 190.862 129.357 190.302 126.395C188.861 118.792 181.258 125.115 176.775 126.555C174.454 127.276 171.893 125.835 169.492 126.795C168.371 127.196 167.331 127.836 166.21 128.396C163.089 130.157 162.529 134.079 159.247 135.68C159.167 133.839 161.168 132.318 160.848 131.278C160.288 129.517 158.287 132.638 156.766 133.199C156.366 133.359 156.126 133.119 155.965 132.798C155.725 132.158 156.686 131.998 156.686 131.598C156.686 131.358 156.286 131.038 155.965 131.198C152.524 133.439 148.842 135.119 147.001 138.961C146.121 140.882 145.08 143.764 145.801 144.644C148.042 147.285 152.684 146.405 156.446 146.805C166.611 147.846 177.416 147.365 186.06 140.722C186.14 140.642 185.099 140.802 184.619 140.482C184.459 140.402 184.539 139.842 184.619 139.842C187.261 138.881 189.422 137.12 190.542 134.799C191.182 133.519 192.383 130.557 190.782 130.877Z" fill="white"/>
<path d="M124.91 110.232C126.35 108.871 128.111 107.991 129.392 106.55C129.632 106.31 129.552 105.349 129.152 105.589C123.149 108.151 120.027 113.593 116.506 118.956C116.266 119.276 116.586 120.156 116.666 119.996C119.627 116.795 121.708 113.273 124.91 110.232Z" fill="#BF2F37"/>
<path d="M121.227 103.347H123.228C122.348 103.507 121.947 104.387 121.307 104.868C120.427 105.588 117.145 109.83 116.585 110.951C115.544 113.192 114.024 115.113 113.623 117.594C113.223 117.514 112.823 117.914 112.423 117.834C114.264 112.231 117.785 107.429 121.787 103.187" fill="#BF2F37"/>
<path d="M95.263 68.8267C94.3585 68.8267 93.4861 68.6025 92.6377 68.1623C91.181 67.394 90.0205 65.9933 89.1801 63.9843C88.4517 62.1274 88.4517 60.3666 89.1801 58.7578C89.8844 57.117 91.149 55.9645 93.0379 55.2201C93.5101 55.06 94.0064 54.9 94.4866 54.8199C94.9588 54.6599 95.4391 54.6599 95.9833 54.6599L96.0634 54.0276L97.304 53.5313L97.32 53.5473L100.137 57.3331L100.113 57.3491L98.8887 58.4857L98.8647 58.4697C97.8562 57.6133 96.9678 57.037 96.1514 56.7168C95.311 56.4687 94.5426 56.4927 93.8543 56.7969C92.8858 57.1971 92.3496 57.8374 92.1095 58.8539C91.8854 59.8223 92.0614 61.0389 92.6697 62.6797C93.206 64.1444 93.9263 65.2169 94.7427 65.7852C95.5751 66.3695 96.4555 66.4735 97.352 66.1053C98.1203 65.7932 98.6166 65.409 98.9367 64.8407C99.2329 64.3205 99.2649 63.6882 99.0168 63.1119C98.8647 62.6557 98.6406 62.4076 98.3204 62.3275C97.9363 62.2315 97.5361 62.2795 97.0638 62.4876L97.0318 62.5036L97.0238 62.4716L96.4555 60.9989L102.194 58.7338L102.202 58.7658L102.771 60.2305L102.747 60.2465C102.234 60.5827 101.954 60.8948 101.882 61.191C101.802 61.5031 101.882 61.9834 102.122 62.6157L103.419 65.9293L103.387 65.9373L101.53 66.6656L101.514 66.6496L100.666 65.8732C100.321 66.4175 99.8972 66.8897 99.3209 67.37C98.8167 67.7942 98.1364 68.1223 97.472 68.4185C96.7197 68.6826 95.9833 68.8267 95.263 68.8267Z" fill="black"/>
<path d="M101.546 66.5685L103.339 65.8641L102.067 62.6146C101.827 61.9743 101.747 61.478 101.827 61.1579C101.907 60.8537 102.187 60.5336 102.699 60.1894L102.163 58.8047L96.5361 61.0218L97.0723 62.4065C97.5445 62.2064 97.9527 62.1583 98.3449 62.2544C98.6971 62.3424 98.9292 62.6066 99.0893 63.0788C99.3454 63.6711 99.3134 64.3274 99.0092 64.8636C98.6731 65.4479 98.1768 65.8401 97.3925 66.1603C96.472 66.5444 95.5756 66.4324 94.7192 65.8401C93.8948 65.2638 93.1664 64.1753 92.6302 62.7026C92.0219 61.0458 91.8458 59.8212 92.0699 58.8448C92.31 57.8043 92.8623 57.1559 93.8468 56.7397C94.5351 56.4356 95.3435 56.4036 96.1919 56.6597C97.0083 56.9879 97.8967 57.5561 98.9052 58.4045L100.066 57.324L97.2964 53.6022L96.1359 54.0665L96.0558 54.7148H96.0158C95.4635 54.7148 94.9833 54.7148 94.5031 54.8748C94.0228 54.9549 93.5346 55.115 93.0624 55.275C91.1895 56.0114 89.9329 57.1559 89.2365 58.7807C88.5162 60.3815 88.5162 62.1183 89.2365 63.9592C90.0689 65.9522 91.2215 67.3448 92.6622 68.1052C94.1669 68.8976 95.7757 68.9776 97.4405 68.3453C98.0968 68.0572 98.7691 67.729 99.2734 67.3128C99.8576 66.8326 100.282 66.3444 100.626 65.8001L100.65 65.7681L100.682 65.7921L101.546 66.5685Z" fill="white"/>
<path d="M116.69 66.2418H116.666L114.16 66.0817L114.152 66.0577L112.896 60.1508L110.527 65.7615H110.503L107.917 65.5214L107.909 65.4974L105.668 54.9323C105.588 54.3481 105.412 54.0359 105.276 53.8198L105.268 53.8038L105.276 53.7878C105.3 53.7158 105.292 53.6517 105.252 53.5957C105.18 53.4916 104.988 53.4276 104.748 53.4276H104.716V53.3956L104.876 51.7628L110.222 52.171V52.203L110.062 53.8358H109.95C109.71 53.8358 109.566 53.8358 109.502 53.9799L109.494 53.9879L109.486 53.9959C109.334 54.0759 109.262 54.228 109.262 54.284V54.8443C109.262 54.9644 109.278 55.0604 109.302 55.1564C109.326 55.2605 109.342 55.3565 109.342 55.4846L110.599 61.4555L112.4 56.9253L112.079 55.7327C111.927 55.1324 111.775 54.7162 111.607 54.4601C111.471 54.252 111.263 54.0919 110.903 53.9078L110.879 53.8998L111.047 52.3231H111.079L116.634 52.7233V52.7553L116.473 54.3881H116.441C116.041 54.3881 115.729 54.3881 115.577 54.4681C115.489 54.5161 115.273 54.6522 115.273 54.9163V55.4766L116.377 61.9277L118.578 56.5891C118.602 56.5251 118.626 56.4531 118.659 56.373C118.731 56.1809 118.819 55.9648 118.819 55.7968V55.7887C118.851 55.7007 118.867 55.6207 118.883 55.5566C118.907 55.4446 118.931 55.3645 118.979 55.3085C118.979 55.0764 118.891 54.9323 118.675 54.7883C118.442 54.6362 118.05 54.5562 117.49 54.4761L117.458 54.4681L117.626 52.8033L123.053 53.2115V53.2435L122.893 54.8683H122.869C122.244 54.9564 121.812 55.1404 121.524 55.4206C121.188 55.6687 120.868 56.1809 120.571 56.9333L116.69 66.2418Z" fill="black"/>
<path d="M121.452 55.3762C121.74 55.0881 122.18 54.904 122.805 54.8159L122.957 53.2712L117.658 52.879L117.506 54.4157C118.058 54.4958 118.451 54.5758 118.691 54.7359C118.931 54.896 119.027 55.064 119.027 55.3202V55.3362L119.019 55.3442C118.979 55.3842 118.955 55.4642 118.931 55.5683C118.915 55.6403 118.899 55.7124 118.867 55.8084C118.867 55.9845 118.779 56.2086 118.707 56.4007C118.675 56.4727 118.651 56.5448 118.627 56.6168L116.346 62.1635L115.209 55.4883V54.92C115.209 54.7039 115.337 54.5198 115.545 54.4077C115.705 54.3277 116.017 54.3277 116.41 54.3277L116.562 52.791L111.103 52.3988L110.951 53.8635C111.215 53.9995 111.487 54.1596 111.663 54.4237C111.839 54.6879 112 55.1041 112.152 55.7124L112.472 56.9209V56.9289L110.591 61.6672L109.286 55.4802C109.286 55.3602 109.27 55.2641 109.246 55.1601C109.222 55.056 109.206 54.96 109.206 54.8319V54.2797C109.206 54.1916 109.286 54.0236 109.454 53.9355C109.542 53.7674 109.718 53.7674 109.959 53.7674H110.007L110.159 52.2307L104.94 51.8385L104.788 53.3752C105.036 53.3832 105.228 53.4473 105.308 53.5673C105.356 53.6314 105.372 53.7114 105.34 53.7994C105.484 54.0155 105.652 54.3357 105.741 54.92L107.974 65.461L110.487 65.6932L112.92 59.9384L112.944 60.0344L114.217 66.0133L116.65 66.1734L120.484 56.9129C120.788 56.1366 121.108 55.6323 121.452 55.3762Z" fill="white"/>
<path d="M129.807 71.6659C128.831 71.6659 127.758 71.2337 126.414 70.3213C124.917 69.2408 124.069 68.1923 123.757 67.0237C123.436 65.9032 123.733 64.7106 124.645 63.478L127.526 59.4761C128.343 58.3555 128.455 57.8673 128.399 57.6592C128.351 57.4831 128.191 57.0189 127.614 56.6347L127.59 56.6187L127.606 56.5947L128.583 55.21L128.607 55.226L133.913 58.9238L133.001 60.2604L132.977 60.2444C132.457 59.9003 132.009 59.7882 131.728 59.9243C131.408 60.0043 130.928 60.4846 130.296 61.357L127.494 65.3589C126.99 66.1113 126.782 66.7356 126.862 67.2558C126.934 67.8321 127.262 68.3043 127.967 68.8326C128.711 69.3528 129.415 69.5529 130.184 69.4649C130.888 69.3048 131.528 68.8246 132.081 68.0402L134.642 64.4385C135.242 63.6141 135.514 63.0378 135.514 62.6136C135.514 62.2774 135.242 61.8932 134.81 61.5971L134.786 61.5811L134.802 61.5571L135.698 60.2524L135.722 60.2685L139.748 63.0858L139.732 63.1098L138.756 64.4945L138.732 64.4785C138.195 64.1183 137.835 64.0223 137.563 64.1583C137.227 64.2464 136.739 64.7666 136.219 65.591L133.817 68.9526C132.697 70.4734 131.56 71.3698 130.44 71.6099C130.232 71.6419 130.024 71.6659 129.807 71.6659Z" fill="black"/>
<path d="M133.77 68.912L136.171 65.5504C136.707 64.702 137.204 64.1817 137.548 64.0937C137.836 63.9496 138.204 64.0456 138.748 64.3978L139.669 63.0852L135.723 60.3239L134.883 61.5485C135.323 61.8526 135.587 62.2528 135.587 62.597C135.587 63.0372 135.307 63.6214 134.699 64.4538L132.137 68.0556C131.577 68.856 130.921 69.3442 130.2 69.5123C129.408 69.6003 128.688 69.3922 127.935 68.864C127.215 68.3277 126.879 67.8395 126.799 67.2392C126.719 66.7029 126.935 66.0626 127.447 65.2942L130.248 61.2923C130.897 60.3959 131.377 59.9237 131.705 59.8356C132.001 59.6836 132.457 59.7956 132.986 60.1398L133.826 58.9152L128.6 55.2734L127.679 56.5781C128.079 56.8582 128.367 57.2344 128.464 57.6186C128.544 57.9387 128.247 58.571 127.575 59.4835L124.694 63.4854C123.797 64.702 123.501 65.8785 123.821 66.9831C124.125 68.1356 124.966 69.1761 126.455 70.2486C128.071 71.3532 129.304 71.7453 130.432 71.5212C131.537 71.2971 132.658 70.4167 133.77 68.912Z" fill="white"/>
<path d="M70.6446 79.1728C72.4854 80.1333 74.4064 80.4534 76.3273 79.8931C78.7284 79.1728 81.2897 78.0523 82.4902 75.5711C82.6503 75.1709 82.4102 74.8507 82.09 74.8507C80.4893 74.6906 78.8085 74.6906 77.2077 74.8507C76.8876 74.8507 76.8876 75.411 76.7275 75.491C76.2472 75.9713 75.2868 75.2509 74.8866 75.0108C71.9252 72.8498 68.9637 69.6482 65.4421 71.249C62.5607 72.5296 61.4401 75.7311 58.7989 77.572C58.2386 77.9722 57.3582 78.4524 56.8779 77.9722C56.3977 77.492 57.1981 76.9317 57.5983 76.3714C57.8384 76.0513 57.5182 75.6511 57.1981 75.6511C46.553 74.2104 36.7883 79.0928 29.2647 86.3762C28.8645 86.7764 29.7449 87.897 29.1046 88.2171C26.3033 89.5778 23.2618 90.058 21.1008 92.4592C20.5405 93.0995 20.0603 93.9799 19.9002 94.8603C19.5 97.0214 21.9812 97.0214 23.4219 96.8613C29.1846 96.301 29.1046 89.978 31.2656 85.896C31.3457 85.7359 32.2261 85.7359 32.2261 85.896C32.6263 86.7764 31.1056 88.6173 31.7459 88.2972C34.5472 87.0166 37.3486 85.4158 40.1499 83.4148C40.8703 82.9346 41.6706 82.7745 42.5511 82.9346C39.8298 86.0561 35.4276 86.5363 32.8664 89.978C31.4257 91.8989 30.0651 93.9799 30.8655 96.3811C31.0255 96.8613 31.8259 97.3415 32.3061 97.1014C32.7864 96.9413 32.8664 95.9809 33.2666 95.6607C38.5491 92.139 42.471 87.897 47.9937 85.0956C50.8751 83.6549 54.3167 83.0947 57.2781 84.2953C59.2791 85.0956 59.4392 87.2567 58.7989 89.0175C58.2386 90.5382 56.7979 91.4987 55.2772 92.3791C57.5182 95.3406 59.3591 98.462 61.9204 101.263C65.362 105.025 69.2039 108.067 72.4054 111.989C66.0824 110.068 63.201 103.504 57.2781 100.943C56.8779 100.783 56.4777 101.103 56.5578 101.343C56.7179 101.904 57.038 102.624 57.3582 102.864C61.12 105.345 65.5221 107.666 66.1624 112.389C66.2424 112.629 65.6822 113.029 65.5221 112.709C63.8413 109.587 61.6802 107.106 58.8789 105.025C58.2386 108.307 60.8799 111.508 59.1991 114.79C59.119 114.87 58.7188 114.79 58.4787 114.79C58.7989 108.147 56.7979 100.703 50.8751 97.6617C45.1123 94.7002 39.9898 101.584 34.7073 104.065C33.9069 104.465 32.9465 104.865 31.906 104.625C34.2271 102.144 38.7092 101.744 39.5096 98.7822C39.8298 97.7417 36.5482 96.5411 35.3476 98.2219C35.1075 98.5421 36.3081 98.8622 36.7883 99.3425C32.3061 100.783 27.824 97.6617 23.3418 99.3425C25.823 100.623 28.4643 99.9828 31.0255 101.023C31.1056 101.103 31.1056 101.664 31.0255 101.664C30.0651 102.144 28.4643 101.103 27.9841 102.224C26.6234 105.585 22.3013 105.906 19.5 108.067C18.2194 109.027 18.1393 107.827 17.5791 106.626C16.6987 107.747 15.8983 106.546 15.5781 105.826C14.7777 106.626 13.9773 107.426 13.0969 108.307C13.8173 108.867 15.258 108.947 14.2175 109.828C13.6572 110.308 13.0969 109.587 12.6967 109.107C11.096 111.028 10.3756 113.669 12.7768 114.55C14.3775 115.11 15.8182 113.269 17.339 112.149C17.9793 111.668 18.4595 113.269 19.2599 113.429C21.8211 113.909 24.9426 115.75 26.7035 113.669C27.6639 112.469 28.3843 110.708 29.1046 109.027C29.3447 108.467 29.985 107.827 30.6253 108.307C32.066 109.347 31.6658 112.389 32.6263 112.229C36.6282 111.508 37.5887 106.386 40.9503 103.825C44.472 101.103 50.2348 99.3425 52.9561 103.825C58.6388 113.349 53.8365 123.434 52.0756 133.519C51.1952 138.561 51.3553 145.204 57.5983 146.005C67.2029 147.285 74.0062 139.042 77.1277 130.958C77.6079 129.677 77.5279 128.236 77.9281 126.876C78.5684 124.635 76.6474 122.554 77.3678 120.473C77.4478 120.232 78.3282 121.273 78.7284 120.713C81.2096 117.751 82.5703 113.589 81.2897 109.747C80.7294 110.308 80.0891 110.868 79.2887 110.948C79.5288 108.467 81.5298 106.786 82.01 104.385C82.5703 102.064 82.3302 99.6626 81.5298 97.5816C79.5288 92.3791 76.6474 87.1766 71.6851 84.4553C70.9647 84.0551 71.4449 87.977 70.1643 86.9365C68.8837 85.9761 70.9647 82.7745 70.2444 81.4939C69.524 80.2133 67.363 77.3319 65.2019 79.4129C64.8017 79.8131 65.282 78.6926 64.9618 78.3724C65.6021 78.2123 65.1219 77.3319 65.7622 77.1718C65.0419 76.3714 64.8017 75.411 64.9618 74.2904C67.6031 75.0908 68.4035 77.9722 70.6446 79.1728ZM15.6582 112.789C15.418 113.029 14.7777 113.029 14.5376 112.789C14.2975 112.549 14.2975 111.909 14.5376 111.668C14.7777 111.428 15.418 111.428 15.6582 111.668C15.8983 111.909 15.8983 112.549 15.6582 112.789ZM20.5405 111.909C20.3804 112.069 19.9802 112.069 19.8201 111.909C19.6601 111.748 19.6601 111.348 19.8201 111.188C19.9802 111.028 20.3804 111.028 20.5405 111.188C20.7006 111.348 20.7006 111.748 20.5405 111.909ZM25.5029 109.908C25.0226 109.908 24.4624 110.148 24.3023 109.507C24.1422 109.107 24.3823 108.867 24.7025 108.707C24.9426 108.627 25.3428 108.627 25.4228 108.707C25.663 109.027 25.5029 109.507 25.5029 109.908ZM28.2242 106.226C28.2242 106.386 27.744 106.306 27.5038 106.226C27.1837 106.146 26.9436 105.826 27.1036 105.425C27.3438 104.865 27.904 105.025 28.3042 105.025C28.3042 105.425 28.4643 105.906 28.2242 106.226ZM34.067 108.307C33.8269 108.387 33.4267 108.387 33.3466 108.307C33.1866 107.987 33.1065 107.426 33.3466 107.186C33.5868 106.946 34.067 107.106 34.4672 107.106C34.4672 107.506 34.6273 108.067 34.067 108.307ZM37.2685 106.146C37.1084 106.386 36.7883 106.226 36.4681 106.226H35.6678C35.6678 105.746 35.4276 105.185 36.0679 105.025C36.4681 104.945 37.0284 104.785 37.2685 105.425C37.3486 105.666 37.4286 106.066 37.2685 106.146ZM67.0428 115.59C66.8027 115.83 66.4025 115.59 66.3225 115.19C66.1624 114.63 66.0824 113.99 66.4025 113.589C66.5626 113.349 67.0428 113.669 67.1229 113.99C67.2829 114.55 67.363 115.19 67.0428 115.59ZM74.0062 113.669C75.2067 114.39 75.687 115.75 76.4874 116.871C78.3282 112.869 76.5674 108.707 76.4874 104.625C76.7275 104.625 77.2077 104.545 77.2077 104.625C78.7284 108.627 79.2087 113.029 78.0081 117.191C77.928 117.351 77.1277 117.031 76.9676 117.671C76.8075 118.312 76.8876 119.032 76.8876 119.672C75.4469 119.512 75.5269 117.911 74.8066 116.871C74.1662 115.83 73.1257 115.11 72.8856 113.99C72.8056 113.509 73.686 113.509 74.0062 113.669Z" fill="white"/>
<path d="M53.3559 90.2963C53.3559 90.7765 54.0762 91.4168 54.7966 91.0967C56.3173 90.2963 59.1987 88.1352 57.1177 86.9347C54.3964 85.4139 50.5546 86.5345 48.3135 89.0957C49.5141 89.816 50.7146 88.7755 51.9952 89.0957C53.1958 89.3358 54.3964 87.655 55.0367 88.4554C55.7571 89.4159 53.3559 89.4159 53.3559 90.2963Z" fill="white"/>
<path d="M45.0326 95.7431C46.8735 95.6631 49.3547 95.9832 50.4752 93.6621C51.0355 92.5416 51.6758 90.7807 50.3151 90.4606C47.7539 89.8203 45.833 91.9013 43.832 93.1819C44.7925 93.9022 44.3123 95.8231 45.0326 95.7431Z" fill="white"/>
<path d="M18.1396 107.023C18.6199 106.143 19.5003 105.263 19.2602 104.222C19.1001 103.502 18.6199 103.982 18.1396 104.142C17.3392 104.462 16.859 105.103 16.1387 105.423C17.3392 105.983 17.7394 105.743 18.1396 107.023Z" fill="white"/>
<path d="M38.869 115.832C37.0281 116.872 35.7475 113.27 34.2267 114.231C32.8661 115.111 34.707 118.793 36.4678 118.713C37.1081 118.713 37.5884 117.272 38.4688 117.753C39.4292 118.313 40.0695 119.513 41.03 119.994C43.111 120.954 45.0319 117.833 46.3926 118.873C49.0339 120.954 51.5951 120.474 53.516 118.393C54.3964 117.432 54.4765 115.592 53.8362 115.031C52.9557 114.231 51.435 113.831 49.9943 113.511C47.9934 113.11 47.6732 116.712 46.0724 115.351C44.7118 114.151 41.7504 113.751 42.5507 112.55C43.2711 111.43 44.8719 113.19 46.3125 113.831C47.193 114.231 47.9934 112.79 49.1939 113.35C49.5941 113.511 49.274 112.23 49.5941 112.07C51.1149 111.109 51.6751 113.27 53.1959 113.511C53.436 113.511 53.9162 113.11 53.9162 112.79C53.9962 110.789 53.8362 107.828 52.3154 107.588C50.0744 107.187 49.274 111.029 46.3926 108.148C44.7918 106.547 43.5112 110.069 41.3502 110.309C41.4302 109.429 40.3897 108.868 40.1496 108.868C38.1486 109.108 36.788 111.189 35.8275 112.87C35.2672 113.911 37.3482 113.911 38.0686 114.791C38.7089 114.311 39.2692 113.831 39.7494 113.19C40.2296 112.55 40.8699 112.87 41.4302 112.79C41.4302 114.471 39.9895 115.271 38.869 115.832Z" fill="white"/>
<path d="M32.4661 117.593C33.0264 115.592 31.1855 113.351 30.3851 111.19C29.1045 112.871 27.5037 114.871 28.2241 116.792C28.7043 117.993 32.1459 118.633 32.4661 117.593Z" fill="white"/>
<path d="M20.5398 117.83C22.4608 117.27 24.8619 118.47 26.3026 116.469C24.942 115.509 23.4212 116.63 22.3007 116.229C21.0201 115.749 19.4993 114.789 18.0586 115.509C17.8185 115.589 16.9381 114.709 16.618 115.029C15.8176 115.829 14.2168 116.309 14.2968 117.35C14.3769 118.07 15.4174 118.711 16.1377 119.431C17.1782 117.43 18.9391 118.23 20.5398 117.83Z" fill="white"/>
<path d="M46.1524 125.353C40.1495 122.552 34.4668 118.87 27.7436 118.63C21.0203 118.39 14.2171 120.791 9.33471 125.753C9.17464 125.994 8.61437 125.833 8.21418 125.833C7.97406 124.153 9.57483 123.752 10.4553 122.632C10.8554 122.072 12.056 121.912 11.8959 121.431C11.0155 119.51 8.53433 119.59 6.85352 119.991C3.81206 120.631 1.33087 123.993 2.13126 127.034C3.01168 130.236 6.61341 131.516 9.65487 130.636C17.6587 128.395 25.1823 124.473 33.7464 126.154C36.0676 126.634 39.8294 126.234 40.7098 129.115C37.028 128.235 32.2257 126.154 28.8641 128.315C31.5854 129.995 35.3472 129.435 37.4282 131.996C34.6269 131.996 32.3057 130.476 29.6645 130.076C27.3434 129.755 25.0222 128.555 22.8612 129.355C20.2199 130.316 17.1785 130.716 15.0174 132.797C17.8988 137.439 21.9808 142.161 27.6635 142.962C27.8236 141.121 25.4224 140.801 25.3424 139.28C25.3424 138.72 26.2228 138.72 26.3829 138.96C32.5459 146.643 42.3906 145.043 50.5545 142.962C49.594 137.359 51.1148 131.596 51.1948 126.234C51.1948 125.433 47.9132 126.154 46.1524 125.353ZM45.1119 130.796C44.3915 130.716 43.5912 130.956 43.0309 130.316C42.7107 129.915 41.8303 129.515 42.3105 129.275C43.1109 128.795 44.3115 129.195 45.0319 129.995C45.1919 130.156 45.1119 130.476 45.1119 130.796Z" fill="white"/>
<path d="M15.5777 136.96C13.9769 134.799 11.8159 131.758 8.77441 133.599C9.01453 139.442 15.8978 144.324 21.4205 142.563C19.5796 140.562 17.3385 139.282 15.5777 136.96Z" fill="white"/>
<path d="M47.9128 74.2905C48.393 74.2905 48.9533 73.5702 49.1134 72.8498C49.9137 69.2481 55.9967 66.5268 53.1953 63.0851C51.1143 67.4072 45.8318 67.7274 42.7103 70.9289C41.4297 72.2095 39.8289 74.4506 40.5493 75.4111C41.9099 77.412 45.1114 74.1304 47.9128 74.2905Z" fill="white"/>
<path d="M9.81496 118.233C11.2556 118.153 11.976 118.953 12.7764 119.754C12.6163 116.152 9.4948 114.231 8.29423 111.19C7.97407 113.671 6.29327 118.313 9.81496 118.233Z" fill="white"/>
</g>
<defs>
<clipPath id="clip0_15016_303952">
<rect width="200" height="200" fill="white"/>
</clipPath>
</defs>
</svg>
