<svg width="200" height="201" viewBox="0 0 200 201" fill="none" xmlns="http://www.w3.org/2000/svg">
<path d="M78.9488 77.784V110.349H97.1065L98.8828 101.073H104.541C101.185 115.152 85.6592 124.494 67.4358 123.047C50.1333 121.731 31.5809 111.928 31.6467 93.639C31.7125 73.4419 49.8044 61.7973 66.7121 61.0736C78.0277 60.6131 90.725 64.9552 99.8696 72.5209C100.396 72.9814 100.527 73.0472 100.593 73.113C100.659 73.1788 100.725 73.1788 101.185 73.5735L101.712 73.9682H121.909V37.8502H100.922V47.9159C92.3697 42.916 78.8172 38.1134 63.2253 38.1792C45.3965 38.245 28.0283 45.5475 15.5285 58.1789C5.33121 68.5735 -0.129254 81.205 0.00232335 93.9022C0.133901 106.336 5.79173 118.244 15.7916 127.389C28.5546 139.033 47.2386 145.086 65.6595 143.573C80.0014 142.388 92.7644 139.231 102.106 134.56V138.112H124.343V101.139H129.672V142.257H119.014V163.243H168.29V142.257H157.632V101.073H180.132L181.777 110.349H200V77.784H78.9488Z" fill="#003057"/>
<path d="M82.5008 106.798H94.0796L95.8559 97.5215H108.751L108.422 99.5609C105.856 116.6 88.0929 128.245 67.1063 126.666C48.2249 125.218 27.962 114.232 28.0278 93.7057C28.0936 74.0349 44.6723 58.5087 66.5142 57.5877C78.6851 57.0614 92.3033 61.7324 102.106 69.8244C102.501 70.1533 102.501 70.1533 102.566 70.2191C102.632 70.2849 102.698 70.2849 102.895 70.4823H118.224V41.4037H104.408V54.0351L101.448 52.522C93.8823 47.2589 80.0009 41.7326 63.5537 41.7326H63.2905C46.317 41.7984 29.8699 48.7062 18.0937 60.6798C8.62011 70.3507 3.4228 82.1269 3.62017 93.8373C3.75175 105.285 8.94905 116.271 18.2253 124.692C30.2646 135.679 47.896 141.403 65.3958 139.955C80.6587 138.705 94.0138 135.153 103.093 129.955L105.79 128.376L105.724 134.495H120.724V97.5215H133.224V145.81H122.566V159.626H164.671V145.81H154.013V97.5215H183.092L184.736 106.798H196.381V81.3374H82.5008V106.798Z" fill="#B3A369"/>
</svg>
