<svg width="201" height="201" viewBox="0 0 201 201" fill="none" xmlns="http://www.w3.org/2000/svg">
<g clip-path="url(#clip0_15016_302187)">
<path d="M100.559 51.172C116.595 51.172 132.009 61.6747 140.025 77.1023H104.439L88.933 117.658V131.859L98.4677 124.797C98.5131 124.766 103.014 121.461 108.485 121.461H132.614V133.13C124.505 143.845 112.926 149.969 100.559 149.969C77.0363 149.969 57.9087 127.812 57.9087 100.579C57.9087 73.3306 77.0371 51.1736 100.559 51.1736V51.172ZM100.559 0.570312C73.5205 0.570312 48.5885 10.2071 30.3548 27.7112C11.3196 45.9888 0.832031 71.8593 0.832031 100.577C0.832031 129.418 11.3204 155.347 30.3715 173.579C48.5438 190.977 73.4759 200.57 100.56 200.57C121.173 200.57 136.101 195.099 147.014 191.113C152.257 189.189 156.788 187.537 159.472 187.537C166.489 187.537 178.995 193.934 186.678 197.768V100.579C186.678 92.8952 190.164 88.637 190.301 88.4703C190.437 88.3188 200.181 77.1335 200.181 77.1335L162.64 77.088L183.433 50.1114L181.159 45.9577C180.904 45.4904 174.66 34.2293 161.606 23.0455C149.613 12.8003 129.311 0.572705 100.556 0.572705L100.559 0.570312Z" fill="#C6BCB6"/>
<path d="M100.56 7.29834C48.8495 7.29834 6.92773 44.186 6.92773 100.58C6.92694 157.332 48.8495 193.846 100.56 193.846C131.42 193.846 149.378 180.792 159.473 180.792C167.519 180.792 180.589 187.339 180.589 187.339V100.58C180.589 89.7911 185.892 83.8184 185.892 83.8184L149.442 83.8344L108.487 83.8503V83.8423L95.0263 119.016V119.232C95.0263 119.232 100.927 114.734 108.487 114.734H138.709V135.491C129.786 148.425 116.006 156.694 100.56 156.694C73.6436 156.694 51.8191 131.568 51.8191 100.58C51.8191 69.5702 73.6436 44.4444 100.56 44.4444C122.418 44.4444 142.616 61.0075 149.442 83.8344L175.948 49.445C175.948 49.445 152.895 7.29914 100.56 7.29914V7.29834Z" fill="#011E41"/>
<path d="M149.442 83.8344L185.892 83.8184C185.892 83.8184 180.589 89.7911 180.589 100.58V187.339C180.589 187.339 167.519 180.792 159.473 180.792C149.378 180.792 131.42 193.846 100.56 193.846C48.8495 193.846 6.92694 157.332 6.92773 100.58C6.92773 44.186 48.8495 7.29834 100.56 7.29834V7.29914C152.895 7.29914 175.948 49.445 175.948 49.445L149.442 83.8344ZM149.442 83.8344L108.487 83.8503V83.8423L95.0263 119.016V119.232C95.0263 119.232 100.927 114.734 108.487 114.734H138.709V135.491C129.786 148.425 116.006 156.694 100.56 156.694C73.6436 156.694 51.8191 131.568 51.8191 100.58C51.8191 69.5702 73.6436 44.4444 100.56 44.4444C122.418 44.4444 142.616 61.0075 149.442 83.8344Z" stroke="#011E41" stroke-width="0.635141"/>
</g>
<defs>
<clipPath id="clip0_15016_302187">
<rect width="200" height="200" fill="white" transform="translate(0.628906 0.484375)"/>
</clipPath>
</defs>
</svg>
