<svg width="201" height="201" viewBox="0 0 201 201" fill="none" xmlns="http://www.w3.org/2000/svg">
<g clip-path="url(#clip0_15016_302113)">
<path d="M2.02218 41.7962C2.02218 41.7962 31.7262 52.0005 48.6883 63.5784C24.786 74.0091 14.8178 108.419 14.8178 108.419C14.8178 108.419 23.2228 104.796 23.75 104.57C3.51983 128.66 0.84375 159.452 0.84375 159.452C0.84375 159.452 12.3697 142.384 34.2727 130.998C30.8326 138.041 27.6429 144.574 27.3605 145.153L27.2957 145.287C26.7909 146.378 26.5245 147.607 26.5245 148.835C26.5245 150.318 26.9229 151.755 27.6717 152.994C28.7678 154.797 31.027 156.94 35.6056 156.94L162.48 156.916C168.747 156.916 173.501 156.175 177.59 146.574C177.596 146.564 188.611 120.465 188.611 120.465C188.899 119.764 189.242 118.924 189.53 118C195.921 104.142 204.893 85.9183 198.833 75.6092C193.857 67.1433 185.796 63.792 171.742 63.1256C171.759 62.8744 171.783 62.6184 171.783 62.3696C171.783 60.1783 171.172 58.0879 169.954 56.1718C164.578 47.7308 147.306 43.045 117.153 41.8506H117.088L2.02218 41.7898V41.7962Z" fill="#A3AAAE"/>
<path d="M20.684 45.1772C20.684 45.1772 41.3246 52.8871 55.5154 64.4986C32.6115 71.2652 20.8144 102.163 20.8144 102.163C35.782 95.7123 38.5109 95.1443 38.5109 95.1443C15.7606 109.189 7.05957 146.708 7.05957 146.708C7.05957 146.708 19.1551 131.372 42.3382 122.594C37.6517 132.178 30.5091 146.806 30.5091 146.806L30.4811 146.871C30.233 147.41 30.0538 148.099 30.0538 148.835C30.0538 149.556 30.2258 150.326 30.6619 151.049C31.5611 152.531 33.2235 153.277 35.6068 153.277L162.481 153.254C168.11 153.254 171.094 152.768 174.366 145.092L185.382 118.996C186.453 116.387 187.086 114.308 186.214 112.613C185.186 110.606 182.814 109.408 179.032 109.423L128.392 109.446C134.881 103.44 144.056 101.724 148.404 101.573C153.508 101.398 170.246 101.056 176.645 101.304C184.675 101.61 187.362 103.809 188.168 110.264C194.408 99.0716 212.561 66.0643 167.535 66.3947C171.272 57.4872 164.623 47.1165 117.023 45.2292L20.6848 45.178L20.684 45.1772Z" fill="#011E41"/>
<path d="M149.027 78.1012C147.289 79.7197 144.926 80.5781 142.463 80.2421C138.611 79.7181 135.768 76.4484 135.462 72.5563C119.184 66.9649 98.947 62.4 98.7125 62.3464C98.6917 62.3464 98.6749 62.3456 98.6645 62.3456C90.7675 60.6183 62.6451 55.0326 56.8241 53.8701C56.1417 53.7333 55.7569 53.6157 55.7569 53.6157C67.122 57.0254 85.2826 66.7233 88.5826 68.5098C97.3509 68.9954 107.478 70.717 119.108 74.1291C119.108 74.1291 111.199 73.6467 100.31 73.8795C80.9528 74.3187 52.1064 77.106 41.1101 89.1944C50.6871 85.4886 64.4972 84.2814 74.9463 86.1615C98.771 82.8462 119.48 92.7401 119.48 92.7401C109.693 92.9297 102.569 97.8746 102.569 97.8746C102.569 97.8746 51.424 90.132 23.0439 126.565C23.0439 126.565 41.2709 108.213 67.89 108.213H117.335C117.335 108.213 122.775 98.2042 137.67 95.9145C133.368 89.9976 119.921 84.8878 119.921 84.8878C139.851 84.8878 140.378 85.7655 145.56 83.4438C151.44 80.8053 151.925 79.7757 151.925 79.7757C151.08 79.2197 150.108 78.6612 149.029 78.1028" fill="#9BA1A6"/>
<path d="M163.793 72.7473C163.793 72.7473 151.089 82.4724 161.577 84.6261C161.577 84.6261 147.009 86.5093 142.169 90.2766C142.169 90.2766 144.593 94.3063 146.209 95.9216C146.209 95.9216 171.53 95.3832 177.442 95.9216C177.442 95.9216 166.225 91.7223 150.785 93.8607L149.169 91.5295C155.609 88.8366 173.146 90.0078 173.146 90.0078C173.146 90.0078 183.778 90.839 187.57 97.3C187.57 97.3 199.506 74.4074 176.642 73.5825L163.793 72.7473ZM98.3763 113.256C93.8241 113.256 92.1521 115.734 92.0801 115.838L92.0721 115.857L86.3439 126.611C85.7679 127.683 85.6879 128.579 86.1039 129.275C86.6159 130.131 87.7839 130.539 89.672 130.539H97.4962C97.6882 130.539 102.296 130.507 103.848 127.595L109.857 116.312C110.273 115.526 110.121 114.955 109.921 114.616H109.913C109.121 113.297 106.224 113.256 105.896 113.256H98.3763ZM59.0295 113.282L59.0279 113.284C57.2687 113.284 53.3781 113.526 51.5069 116.865C50.5917 118.5 46.874 125.859 46.874 125.859C46.662 126.259 46.2059 127.139 46.2059 128.043C46.2059 128.427 46.2875 128.819 46.5067 129.179C47.0636 130.099 48.3012 130.547 50.2821 130.547H63.2432L68.0994 121.115H58.4719L56.4062 125.115H58.1983C57.8935 125.707 57.5911 126.291 57.4511 126.563H55.9702C55.2358 126.563 55.111 126.395 55.0982 126.371C55.0886 126.355 55.0742 126.331 55.0742 126.267C55.0742 126.155 55.1254 125.915 55.3574 125.467C55.3574 125.467 58.8711 118.643 59.5687 117.288H62.6592L62.0792 118.421H69.6042L72.2323 113.282H59.0295ZM80.5757 113.284C74.9396 113.284 72.9723 117.365 72.8291 117.677C72.8203 117.692 65.9681 130.571 65.9681 130.571H82.1358L83.0478 128.859L83.0638 128.779C83.0798 128.659 83.0878 128.547 83.0878 128.435C83.0878 128.003 82.9598 127.619 82.6878 127.299C82.2958 126.835 81.6478 126.571 80.8557 126.563H76.674C77.138 125.691 78.1365 123.811 78.3261 123.451H84.7439L86.8719 119.446H80.4637C80.7037 118.992 80.9597 118.513 80.9597 118.513C81.3918 117.705 82.2398 117.291 83.4878 117.291H89.024L91.16 113.284H90.384H80.5757ZM113.705 113.284L104.408 130.571H112.729C112.729 130.571 115.385 125.595 115.793 124.827C116.241 125.123 116.865 125.531 117.257 125.795C116.921 126.419 114.721 130.571 114.721 130.571H122.817L126.321 123.987C126.321 123.987 124.849 123.139 124.025 122.667C125.209 122.251 127.737 121.371 127.737 121.371L130.289 116.669C130.529 116.232 130.617 115.849 130.617 115.532C130.617 115.181 130.513 114.91 130.393 114.71C129.569 113.332 126.761 113.284 126.449 113.284H113.985H113.705ZM138.913 113.284C133.825 113.296 132.417 116.023 131.065 118.66C131.057 118.681 127.305 125.859 127.305 125.859C127.009 126.435 126.209 127.963 126.945 129.179C127.505 130.099 128.737 130.547 130.713 130.547H143.681L148.537 121.115H138.905L136.841 125.115H138.633C138.329 125.707 138.025 126.291 137.881 126.563H136.401C135.665 126.571 135.545 126.395 135.529 126.379C135.521 126.363 135.513 126.331 135.513 126.275C135.513 126.155 135.561 125.923 135.793 125.467C135.793 125.467 139.305 118.646 140.001 117.291H143.089C142.977 117.51 142.513 118.422 142.513 118.422H150.033L152.665 113.284H151.913H138.913ZM154.617 113.284L145.417 130.571H153.521L162.721 113.284H161.953H154.617ZM167.617 113.284L154.825 130.571H163.297L165.241 127.563H168.377C168.009 128.363 167.009 130.571 167.009 130.571H174.954L180.186 118.758L180.194 118.745C181.002 117.114 181.114 115.866 180.538 114.937C179.842 113.821 178.25 113.284 175.658 113.284H167.849H167.617ZM99.5603 116.938H100.752C100.872 116.941 101.12 116.999 101.176 117.11C101.192 117.133 101.2 117.165 101.2 117.212C101.2 117.318 101.16 117.487 101.032 117.717C101.032 117.717 96.9522 125.387 96.1682 126.859H94.9442C94.7922 126.859 94.5681 126.811 94.5201 126.723C94.5041 126.707 94.5041 126.683 94.5041 126.643C94.5041 126.547 94.5361 126.379 94.6642 126.139C94.6642 126.139 98.7763 118.417 99.5603 116.938ZM172.034 117.681C172.658 117.701 172.762 117.835 172.762 117.843C172.77 117.855 172.786 117.881 172.786 117.93C172.786 118.048 172.73 118.309 172.466 118.863C172.458 118.869 170.77 122.531 170.298 123.555H168.353C169.042 122.451 171.802 118.048 172.034 117.681ZM119.529 117.874H120.769C121.225 117.874 121.377 117.932 121.417 117.958C121.417 117.989 121.409 118.073 121.305 118.246H121.313C121.313 118.246 120.881 119.049 120.697 119.393C120.489 119.465 119.281 119.887 118.249 120.248C118.769 119.275 119.369 118.168 119.529 117.874ZM65.9849 132.179C62.0768 132.179 60.4152 134.668 60.3447 134.772L60.3359 134.788L54.1294 146.115C53.9214 146.491 53.3693 147.499 53.8886 148.379C54.3278 149.123 55.3502 149.475 57.0215 149.475H63.684C63.8513 149.483 67.8162 149.451 69.4114 146.539L75.5948 135.252C76.0692 134.388 75.918 133.787 75.7068 133.427C74.9948 132.219 72.6579 132.179 72.3963 132.179H65.9849ZM79.1933 132.179L71.5603 146.115C71.3523 146.491 70.7987 147.499 71.3195 148.379C71.7571 149.123 72.7811 149.475 74.4524 149.475H81.1118C81.2878 149.483 85.2479 149.451 86.8399 146.539L92.4241 136.348C93.3121 136.34 96.0642 136.332 96.9762 136.324C96.3282 137.548 89.944 149.659 89.944 149.659H96.9442C96.9442 149.659 103.72 136.804 103.968 136.324C104.416 136.324 107.769 136.316 108.313 136.316L101.184 149.667H108.137C108.137 149.667 111.481 143.34 111.721 142.884H113.129C112.545 143.988 109.545 149.667 109.545 149.667H116.489L125.825 132.179H125.041H118.873C118.873 132.179 115.705 138.068 115.465 138.524H114.065C114.649 137.428 117.473 132.179 117.473 132.179H110.529L108.665 135.652C108.857 135.164 109.009 134.628 109.009 134.131C109.009 133.771 108.937 133.427 108.737 133.123C108.321 132.491 107.481 132.195 106.168 132.195H98.3043C95.9922 132.195 94.5521 133.147 93.5681 134.283L94.7122 132.179H93.9201H87.6639C87.6639 132.179 80.4717 145.315 80.2077 145.787H79.1653C79.0109 145.787 78.9293 145.771 78.8821 145.755C78.8941 145.667 78.9613 145.467 79.2165 144.995L86.2399 132.179H79.1933ZM132.137 132.179C127.545 132.179 125.505 136.428 125.425 136.604L118.825 148.979L118.465 149.667H131.241L131.865 148.355C132.289 147.579 132.353 146.867 132.049 146.339C131.721 145.795 131.049 145.523 130.049 145.523H127.633C128.105 144.643 129.121 142.756 129.313 142.404H134.137L136.305 138.372H131.481C131.721 137.916 131.977 137.436 131.977 137.436C132.417 136.628 133.113 136.212 134.057 136.212H138.257L140.425 132.179H139.641H132.137ZM141.761 132.179L132.425 149.667H139.449C139.449 149.667 142.353 144.164 142.825 143.276C143.201 143.596 143.529 143.892 143.801 144.124C143.497 144.691 140.889 149.667 140.889 149.667H147.721L151.561 142.396C151.561 142.396 150.393 141.516 149.761 141.044C150.745 140.644 153.009 139.716 153.009 139.716L155.225 135.588C155.481 135.124 155.601 134.692 155.601 134.291C155.601 133.987 155.529 133.699 155.369 133.443C154.641 132.219 152.505 132.179 152.265 132.179H142.041H141.761ZM48.2396 132.195C45.8803 132.195 43.5595 132.931 42.6498 134.588C41.8442 136.06 40.5946 138.1 40.1106 139.652C39.6281 141.204 41.1306 142.596 43.2035 142.724C43.2091 142.724 45.7235 142.876 45.7235 142.876C46.6003 142.924 46.7332 143.324 46.5499 143.66C46.5499 143.66 45.5939 145.403 45.3795 145.795H44.4467C44.1947 145.795 44.0683 145.771 44.0019 145.755C44.0195 145.675 44.0691 145.531 44.2187 145.235C44.3467 144.979 44.3955 144.763 44.3955 144.571C44.3955 144.347 44.3235 144.172 44.2467 144.036C43.8939 143.452 43.0346 143.316 42.3762 143.3H38.0969L36.3873 146.419C36.3561 146.483 35.8872 147.475 36.4393 148.355C36.9073 149.099 37.9257 149.475 39.4657 149.475H46.2579C46.4387 149.475 50.5885 149.387 51.9725 146.859C51.9749 146.859 54.1862 142.7 54.1862 142.7C54.5526 142.044 54.683 141.492 54.683 141.044C54.683 140.636 54.5766 140.308 54.4502 140.068C54.0454 139.308 53.1173 138.812 51.9069 138.7C51.9037 138.7 49.5124 138.508 49.358 138.492C49.0876 138.452 48.3196 138.34 48.2348 138.204C48.2332 138.204 48.23 138.196 48.23 138.164C48.23 138.076 48.274 137.836 48.6068 137.228C48.6068 137.228 49.102 136.316 49.3436 135.868H50.9645C50.7597 136.26 50.1941 137.324 50.1941 137.324H56.9943L59.6879 132.195H58.9351H48.2396ZM158.625 132.467L158.497 132.723L150.209 149.619H156.857C156.857 149.619 159.233 144.587 160.145 142.668C160.393 144.683 161.009 149.619 161.009 149.619H163.465C164.777 149.531 167.249 148.747 168.954 144.515L173.826 133.099L174.098 132.475H167.721C167.721 132.475 165.713 137.06 164.889 138.948C164.593 136.98 163.921 132.475 163.921 132.475L158.625 132.467ZM66.7913 135.884H67.757C67.8234 135.884 67.9538 135.924 67.985 135.98C67.9946 135.996 67.9994 136.02 67.9994 136.06C67.9994 136.164 67.9562 136.356 67.7946 136.644L62.7856 145.795H61.7792C61.6904 145.795 61.5704 145.747 61.5512 145.723C61.5456 145.707 61.5464 145.691 61.5464 145.659C61.5464 145.571 61.5824 145.387 61.7464 145.083C61.7464 145.083 65.9801 137.364 66.7913 135.884ZM146.623 136.212H147.591C147.823 136.212 147.927 136.244 147.983 136.26C147.975 136.316 147.943 136.412 147.855 136.588C147.855 136.588 147.407 137.412 147.223 137.748C147.055 137.82 146.255 138.156 145.391 138.508C145.919 137.524 146.471 136.5 146.623 136.212Z" fill="#87714D"/>
<path d="M91.2967 52.8501C74.7466 52.9061 60.1822 53.4902 55.7301 53.6254C55.7301 53.6254 56.1141 53.7454 56.7973 53.8822C62.6167 55.0438 90.7447 60.6264 98.6409 62.3536C98.7449 62.3568 99.3129 62.3696 99.4169 62.3728C129.898 62.98 142.865 64.9921 156.258 68.657C159.49 65.1129 163.618 59.2127 138.801 55.2502C126.394 53.2686 107.857 52.7949 91.2967 52.8501ZM82.3925 68.3746C56.6197 68.6626 44.2842 80.3717 41.0825 89.2056C58.275 70.3098 119.082 74.1404 119.082 74.1404C104.625 69.8986 92.4808 68.2626 82.3925 68.3746ZM138.481 70.9883C138.473 71.0123 138.465 71.0387 138.465 71.0587C138.057 74.0212 140.033 76.75 142.857 77.1348C145.417 77.4853 147.818 75.794 148.546 73.2731C147.986 73.1355 147.37 72.9899 146.722 72.8371C146.378 74.6004 144.785 75.8108 143.065 75.574C141.657 75.3788 140.585 74.2716 140.321 72.8915C140.529 73.2259 140.857 73.4499 141.225 73.4499C141.857 73.4499 142.361 72.8211 142.361 72.0467C142.361 71.9667 142.353 71.8979 142.345 71.8243C141.657 71.6691 140.945 71.5131 140.233 71.3603C139.649 71.2315 139.065 71.1091 138.481 70.9883ZM170.962 76.8564C170.954 76.8564 174.322 79.9733 166.594 81.7158C166.594 81.7158 173.074 82.5894 174.442 78.9725C174.442 78.9725 184.851 79.5109 185.555 87.2135C185.555 87.2135 188.723 76.8716 170.962 76.8564ZM85.2645 85.4831C84.6405 85.4807 84.0245 85.4863 83.3925 85.4991C63.3367 85.9015 39.2304 94.3585 23.0195 126.572C51.4004 90.14 102.545 97.885 102.545 97.885C102.545 97.885 109.665 92.9401 119.458 92.7489C119.458 92.7489 104.433 85.5663 85.2645 85.4831ZM98.3769 114.178C94.4408 114.178 92.9848 116.166 92.8648 116.333C92.6008 116.835 87.1606 127.044 87.1606 127.044C87.0486 127.252 86.7686 127.78 86.7686 128.276C86.7686 128.46 86.8006 128.636 86.8966 128.796C87.2166 129.332 88.1766 129.612 89.6727 129.612H97.4889C97.5369 129.612 101.745 129.58 103.033 127.164L109.041 115.874C109.161 115.65 109.193 115.481 109.193 115.358C109.193 115.214 109.145 115.134 109.121 115.094C108.745 114.47 107.009 114.181 105.897 114.178H98.3769ZM80.5764 114.206C75.4651 114.206 73.7386 117.91 73.6674 118.069L73.6626 118.087L73.653 118.102H73.6578C73.6578 118.102 68.1608 128.428 67.5152 129.644H81.5844C81.7524 129.332 82.0964 128.692 82.1604 128.572C82.1604 128.524 82.1684 128.476 82.1684 128.436C82.1684 128.22 82.1124 128.044 81.9844 127.9C81.7684 127.644 81.3684 127.492 80.8564 127.484H75.1346L77.7747 122.524H84.1925C84.3605 122.204 84.9445 121.108 85.3365 120.367H78.922L80.1524 118.074C80.5604 117.29 81.4724 116.361 83.4885 116.361H88.4726C88.6406 116.044 89.2247 114.949 89.6167 114.206H80.5764ZM58.4734 114.211C57.4373 114.211 54.2636 114.662 52.9532 116.462C51.6444 118.263 47.6987 126.284 47.6987 126.284C47.5394 126.588 47.1402 127.356 47.1402 128.044C47.1402 128.276 47.1842 128.5 47.3034 128.692C47.6666 129.292 48.6995 129.612 50.2843 129.612H62.6783C62.9047 129.18 66.0128 123.14 66.5824 122.036H59.0398C58.8726 122.356 58.3094 123.452 57.9301 124.196H59.7174L58.019 127.484H55.9709C55.1117 127.492 54.5676 127.284 54.3052 126.86C53.9644 126.3 54.2468 125.596 54.5316 125.044L59.0038 116.361H64.1735C64.1735 116.361 63.7071 117.274 63.5943 117.494H69.0393C69.2273 117.124 70.2673 115.094 70.7201 114.211H58.4734ZM114.265 114.211C114.017 114.666 106.625 128.412 105.961 129.644H112.177C112.417 129.196 115.449 123.492 115.449 123.492L118.474 125.476L116.265 129.644H122.266C122.49 129.22 124.738 125.004 125.09 124.34C124.514 124.012 121.802 122.468 121.802 122.468C121.802 122.468 126.778 120.717 127.09 120.608C127.25 120.316 129.482 116.23 129.482 116.226C129.65 115.918 129.69 115.696 129.69 115.53C129.69 115.342 129.634 115.232 129.602 115.182C129.178 114.478 127.442 114.214 126.45 114.211H114.265ZM138.913 114.211C134.394 114.223 133.234 116.475 131.882 119.108L128.13 126.284C127.978 126.588 127.578 127.356 127.578 128.044C127.578 128.276 127.618 128.508 127.738 128.7C128.106 129.3 129.13 129.612 130.722 129.612H143.113C143.345 129.18 146.45 123.148 147.026 122.036H139.473C139.305 122.364 138.745 123.452 138.361 124.188H140.153L138.449 127.484H136.409C135.545 127.492 135.001 127.284 134.745 126.86C134.402 126.3 134.681 125.596 134.969 125.044L139.433 116.361H144.609C144.609 116.361 144.145 117.274 144.033 117.494H149.474C149.666 117.124 150.706 115.094 151.154 114.211H138.913ZM155.17 114.211C154.93 114.669 147.618 128.412 146.962 129.644H152.97C153.21 129.188 160.522 115.443 161.178 114.211H155.17ZM168.082 114.211C167.826 114.562 157.65 128.316 156.666 129.644H162.794C163.026 129.276 164.738 126.636 164.738 126.636H169.818C169.818 126.636 168.81 128.844 168.45 129.644H174.346C174.578 129.116 179.346 118.366 179.346 118.366L179.354 118.342C179.77 117.513 179.971 116.834 179.971 116.282C179.971 115.95 179.898 115.668 179.755 115.428C179.258 114.634 177.842 114.211 175.658 114.211H168.082ZM99.0089 116.008H100.785C100.865 116.009 101.633 116.048 101.977 116.639C102.217 117.044 102.177 117.552 101.857 118.153L96.7289 127.788H94.9528C94.8648 127.788 94.0808 127.78 93.7288 127.204C93.4888 126.812 93.5288 126.308 93.8488 125.7L99.0089 116.008ZM171.778 116.75C172.418 116.738 173.202 116.794 173.554 117.341C173.906 117.895 173.61 118.626 173.306 119.258L170.89 124.476H166.674L171.53 116.754L171.778 116.75ZM118.978 116.946H120.77C121.298 116.946 121.946 117.006 122.226 117.48C122.418 117.799 122.394 118.208 122.13 118.686L121.346 120.144L116.297 121.916L118.978 116.946ZM48.6203 133.116C47.4746 133.116 44.5834 133.204 43.5121 134.925C42.4433 136.645 41.3449 138.733 41.3449 138.733L41.1497 139.341C41.0273 139.717 40.9873 139.973 40.9873 140.133C40.9873 140.293 41.1033 141.677 43.4625 141.845C43.4625 141.845 45.7674 141.957 45.773 141.957C46.5314 141.997 47.2714 142.109 47.5658 142.637C47.6506 142.789 47.6858 142.941 47.6858 143.109C47.6858 143.453 47.5234 143.813 47.361 144.101L45.9266 146.724H44.4466C43.9617 146.724 43.4297 146.668 43.1777 146.26C42.9161 145.836 43.2209 145.204 43.3921 144.812C43.5649 144.42 43.0969 144.245 42.3673 144.229H38.6432C38.4232 144.628 37.2295 146.812 37.2087 146.844C37.2015 146.868 37.0967 147.1 37.0967 147.388C37.0967 147.54 37.1295 147.708 37.2279 147.86C37.5112 148.308 38.2872 148.548 39.4656 148.548H46.2514C46.2906 148.548 50.0379 148.468 51.1595 146.42C51.1595 146.42 53.3708 142.261 53.3732 142.253C53.6492 141.757 53.9196 141.053 53.6284 140.501C53.3732 140.021 52.7164 139.701 51.8284 139.621L49.2563 139.413H49.2379C48.3019 139.277 47.6706 139.149 47.4074 138.621C47.1602 138.125 47.385 137.533 47.7939 136.781L48.8019 134.941H52.502C52.502 134.941 51.9332 136.021 51.73 136.405H56.4333L58.1782 133.116H48.6203ZM98.2969 133.116C96.0089 133.116 94.7368 134.188 93.8488 135.405C95.0168 135.405 98.5129 135.397 98.5129 135.397C98.5129 135.397 92.1287 147.508 91.4807 148.732H96.3769L103.417 135.397H107.769C107.977 134.869 108.089 134.445 108.089 134.124C108.089 133.924 108.049 133.764 107.961 133.636C107.737 133.3 107.121 133.116 106.177 133.116H98.2969ZM65.984 133.116C62.6679 133.116 61.2486 135.117 61.1438 135.277C60.9054 135.709 54.9501 146.564 54.9501 146.564C54.8461 146.756 54.6108 147.18 54.6108 147.564C54.6108 147.684 54.6349 147.796 54.6957 147.9C54.8373 148.14 55.3261 148.54 57.0205 148.54H63.6831C63.7175 148.54 67.264 148.508 68.5889 146.092L74.773 134.805C75.0858 134.228 74.941 133.988 74.8938 133.908C74.5482 133.316 73.061 133.124 72.3954 133.116H65.984ZM79.75 133.116C78.7587 134.933 72.381 146.564 72.381 146.564C72.277 146.756 72.0434 147.18 72.0434 147.564C72.0434 147.684 72.0666 147.796 72.1266 147.9C72.269 148.14 72.7594 148.54 74.453 148.54H81.1124C81.1524 148.54 84.6965 148.508 86.0166 146.092C86.0166 146.092 92.4408 134.372 93.1208 133.116H88.2246C87.9686 133.588 80.7684 146.732 80.7684 146.732H79.1644C78.9572 146.732 78.3323 146.732 78.0547 146.26C77.9707 146.116 77.9347 145.964 77.9347 145.804C77.9347 145.42 78.1483 144.988 78.3891 144.548C78.3891 144.548 83.9765 134.356 84.6485 133.116H79.75ZM111.081 133.116C110.833 133.58 103.409 147.484 102.753 148.732H107.569L111.153 141.941H114.681C114.681 141.941 111.681 147.62 111.089 148.732H115.921C116.169 148.268 123.594 134.365 124.266 133.116H119.434C119.186 133.572 116.025 139.461 116.025 139.461H112.497C112.497 139.461 115.313 134.22 115.905 133.116H111.081ZM132.138 133.116C128.146 133.116 126.346 136.853 126.258 137.029H126.266C126.266 137.029 120.674 147.5 120.026 148.732H130.658C130.794 148.428 131.042 147.916 131.042 147.916V147.908C131.218 147.596 131.306 147.316 131.306 147.092C131.306 146.98 131.282 146.892 131.242 146.812C131.106 146.58 130.682 146.46 130.058 146.46H126.074L128.754 141.469H133.578C133.754 141.149 134.338 140.053 134.737 139.309H129.914L131.162 136.989C131.762 135.869 132.77 135.277 134.066 135.277H137.697C137.865 134.965 138.457 133.868 138.865 133.116H132.138ZM142.321 133.116C142.081 133.58 134.649 147.484 133.986 148.732H138.881C139.129 148.268 142.553 141.789 142.553 141.789L144.977 143.901C144.977 143.901 142.977 147.7 142.433 148.732H147.154C147.386 148.292 150.042 143.277 150.362 142.669C149.898 142.317 147.89 140.805 147.89 140.805C147.89 140.805 152.058 139.093 152.346 138.973C152.49 138.701 154.402 135.141 154.402 135.141C154.682 134.621 154.738 134.204 154.57 133.916C154.186 133.268 152.738 133.124 152.266 133.116H142.321ZM159.178 133.372C158.946 133.836 152.218 147.54 151.642 148.716H156.282C156.506 148.236 160.65 139.477 160.65 139.477C160.65 139.477 161.706 148.004 161.794 148.716H163.418C164.522 148.636 166.586 147.94 168.114 144.165C168.114 144.165 172.242 134.501 172.722 133.38C171.746 133.38 168.762 133.372 168.306 133.372C168.082 133.876 164.45 142.181 164.45 142.181C164.45 142.181 163.242 134.068 163.138 133.372H159.178ZM66.224 134.933H67.7832C67.8568 134.941 68.4921 134.973 68.7961 135.509C69.0305 135.917 68.9697 136.453 68.6145 137.101L63.3375 146.732H61.7823C61.7095 146.732 61.0622 146.732 60.7462 146.204C60.5054 145.812 60.5614 145.276 60.9182 144.628L66.224 134.933ZM146.058 135.277H147.586C147.842 135.277 148.514 135.277 148.802 135.765C149.09 136.253 148.778 136.837 148.674 137.029L147.89 138.485L143.322 140.365L146.058 135.277Z" fill="white"/>
<path d="M165.05 76.9018C165.287 76.869 165.515 76.8746 165.714 76.9298C166.511 77.1538 166.572 78.0458 165.863 78.9307C165.151 79.8139 163.938 80.3523 163.147 80.1291C162.353 79.9067 162.281 79.0115 162.994 78.1274C163.527 77.4658 164.34 77.001 165.05 76.9018Z" fill="#011E41"/>
</g>
<defs>
<clipPath id="clip0_15016_302113">
<rect width="200" height="200" fill="white" transform="translate(0.84375 0.621094)"/>
</clipPath>
</defs>
</svg>
