<svg width="201" height="200" viewBox="0 0 201 200" fill="none" xmlns="http://www.w3.org/2000/svg">
<path d="M188.496 100.212C188.496 86.0069 179.285 72.3837 162.888 62.3392C146.491 52.2948 124.253 46.6519 101.064 46.6519C77.8759 46.6519 55.6372 52.2948 39.2406 62.3392C22.8439 72.3837 13.6323 86.0069 13.6323 100.212C13.6323 114.417 22.8439 128.04 39.2406 138.084C55.6372 148.129 77.8759 153.772 101.064 153.772C112.546 153.772 123.915 152.386 134.523 149.695C145.131 147.003 154.769 143.058 162.888 138.084C171.007 133.111 177.447 127.207 181.841 120.708C186.235 114.21 188.496 107.245 188.496 100.212Z" stroke="#F79792" stroke-width="2"/>
<path d="M139.036 110.54C133.192 122.232 122.356 127.752 109.788 129.588C104.24 130.4 98.3643 130.624 92.6963 129.98C77.4843 128.256 62.3683 118.496 59.2883 102.504C56.7363 89.2559 67.0003 78.7679 77.8563 73.3559C98.7483 62.9399 121.204 67.4839 137.82 83.2839C137.9 83.3613 137.996 83.3999 138.108 83.3999H178.188C178.343 83.3999 178.383 83.3319 178.308 83.1959C169.268 66.7399 146.3 56.8079 128.832 52.9919C104.8 47.7439 78.5363 49.7759 55.6443 58.6919C36.3323 66.2119 12.2403 84.1679 19.7803 108.364C22.5643 117.3 28.8803 125.004 36.2643 130.932C58.6803 148.928 91.0323 152.852 118.544 148.916C136.06 146.408 153.556 141.004 167.592 129.816C178.384 121.212 185.256 109.18 183.48 94.9759C183.473 94.9269 183.449 94.882 183.413 94.8496C183.376 94.8173 183.329 94.7996 183.28 94.7999H84.9883C84.9352 94.7999 84.8844 94.821 84.8469 94.8585C84.8093 94.896 84.7883 94.9469 84.7883 94.9999V110.1C84.7883 110.153 84.8093 110.204 84.8469 110.241C84.8844 110.279 84.9352 110.3 84.9883 110.3H138.888C139.067 110.3 139.116 110.38 139.036 110.54Z" stroke="#918F90" stroke-width="2"/>
<path d="M192.248 100.212C192.248 115.399 182.642 129.965 165.542 140.704C148.443 151.443 125.251 157.476 101.068 157.476C76.8857 157.476 53.6938 151.443 36.5942 140.704C19.4946 129.965 9.88818 115.399 9.88818 100.212C9.88818 85.0246 19.4946 70.4593 36.5942 59.7202C53.6938 48.9812 76.8857 42.948 101.068 42.948C125.251 42.948 148.443 48.9812 165.542 59.7202C182.642 70.4593 192.248 85.0246 192.248 100.212ZM188.496 100.212C188.496 86.007 179.285 72.3838 162.888 62.3394C146.491 52.2949 124.253 46.652 101.064 46.652C77.8758 46.652 55.6371 52.2949 39.2404 62.3394C22.8437 72.3838 13.6322 86.007 13.6322 100.212C13.6322 114.417 22.8437 128.04 39.2404 138.085C55.6371 148.129 77.8758 153.772 101.064 153.772C112.546 153.772 123.915 152.387 134.523 149.695C145.131 147.003 154.769 143.058 162.888 138.085C171.007 133.111 177.447 127.207 181.841 120.709C186.235 114.21 188.496 107.246 188.496 100.212Z" fill="#EE2E24"/>
<path d="M188.496 100.212C188.496 107.245 186.235 114.21 181.841 120.708C177.447 127.207 171.007 133.111 162.888 138.084C154.769 143.058 145.131 147.003 134.523 149.695C123.915 152.386 112.546 153.772 101.064 153.772C77.8759 153.772 55.6372 148.129 39.2406 138.084C22.8439 128.04 13.6323 114.417 13.6323 100.212C13.6323 86.0069 22.8439 72.3837 39.2406 62.3392C55.6372 52.2948 77.8759 46.6519 101.064 46.6519C124.253 46.6519 146.491 52.2948 162.888 62.3392C179.285 72.3837 188.496 86.0069 188.496 100.212ZM139.036 110.54C133.192 122.232 122.356 127.752 109.788 129.588C104.24 130.4 98.3643 130.624 92.6963 129.98C77.4843 128.256 62.3683 118.496 59.2883 102.504C56.7363 89.2559 67.0003 78.7679 77.8563 73.3559C98.7483 62.9399 121.204 67.4839 137.82 83.2839C137.9 83.3612 137.996 83.3999 138.108 83.3999H178.188C178.343 83.3999 178.383 83.3319 178.308 83.1959C169.268 66.7399 146.3 56.8079 128.832 52.9919C104.8 47.7439 78.5363 49.7759 55.6443 58.6919C36.3323 66.2119 12.2403 84.1679 19.7803 108.364C22.5643 117.3 28.8803 125.004 36.2643 130.932C58.6803 148.928 91.0323 152.852 118.544 148.916C136.06 146.408 153.556 141.004 167.592 129.816C178.384 121.212 185.256 109.18 183.48 94.9759C183.474 94.9268 183.45 94.8819 183.413 94.8496C183.376 94.8172 183.329 94.7995 183.28 94.7999H84.9883C84.9353 94.7999 84.8844 94.8209 84.8469 94.8584C84.8094 94.8959 84.7883 94.9468 84.7883 94.9999V110.1C84.7883 110.153 84.8094 110.204 84.8469 110.241C84.8844 110.279 84.9353 110.3 84.9883 110.3H138.888C139.067 110.3 139.116 110.38 139.036 110.54Z" fill="white"/>
<path d="M138.888 110.3H84.9883C84.9352 110.3 84.8844 110.279 84.8469 110.241C84.8093 110.204 84.7883 110.153 84.7883 110.1V94.9999C84.7883 94.9469 84.8093 94.896 84.8469 94.8585C84.8844 94.821 84.9352 94.7999 84.9883 94.7999H183.28C183.329 94.7996 183.376 94.8173 183.413 94.8496C183.449 94.882 183.473 94.9269 183.48 94.9759C185.256 109.18 178.384 121.212 167.592 129.816C153.556 141.004 136.06 146.408 118.544 148.916C91.0323 152.852 58.6803 148.928 36.2643 130.932C28.8803 125.004 22.5643 117.3 19.7803 108.364C12.2403 84.1679 36.3323 66.2119 55.6443 58.6919C78.5363 49.7759 104.8 47.7439 128.832 52.9919C146.3 56.8079 169.268 66.7399 178.308 83.1959C178.383 83.3319 178.343 83.3999 178.188 83.3999H138.108C137.996 83.3999 137.9 83.3613 137.82 83.2839C121.204 67.4839 98.7483 62.9399 77.8563 73.3559C67.0003 78.7679 56.7363 89.256 59.2883 102.504C62.3683 118.496 77.4843 128.256 92.6963 129.98C98.3643 130.624 104.24 130.4 109.788 129.588C122.356 127.752 133.192 122.232 139.036 110.54C139.116 110.38 139.067 110.3 138.888 110.3ZM172.116 147.728C172.116 148.549 171.79 149.337 171.209 149.917C170.629 150.498 169.841 150.824 169.02 150.824C168.199 150.824 167.412 150.498 166.831 149.917C166.25 149.337 165.924 148.549 165.924 147.728C165.924 146.907 166.25 146.119 166.831 145.539C167.412 144.958 168.199 144.632 169.02 144.632C169.841 144.632 170.629 144.958 171.209 145.539C171.79 146.119 172.116 146.907 172.116 147.728ZM167.884 149.656C167.914 149.669 167.946 149.707 167.98 149.768C168.023 149.845 168.087 149.899 168.172 149.928C170.856 150.848 172.664 147.388 170.144 145.764C167.424 144.012 165.224 148.564 167.884 149.656Z" fill="#231F20"/>
<path d="M167.884 149.656C167.639 148.469 167.596 147.321 167.756 146.212C167.78 146.063 167.867 145.988 168.016 145.988L169.684 146C169.94 146.003 170.091 146.129 170.136 146.38L170.324 147.412C170.328 147.432 170.326 147.452 170.319 147.471C170.312 147.49 170.3 147.507 170.284 147.52C169.724 147.992 169.662 148.464 170.096 148.936C170.15 148.996 170.18 149.073 170.184 149.153C170.187 149.234 170.162 149.313 170.113 149.377C170.065 149.441 169.995 149.486 169.917 149.505C169.839 149.524 169.757 149.515 169.684 149.48C169.33 149.299 169.123 148.945 169.064 148.42C169.04 148.185 168.888 148.08 168.608 148.104C168.585 148.106 168.562 148.114 168.541 148.125C168.52 148.137 168.502 148.153 168.488 148.173C168.474 148.192 168.465 148.214 168.46 148.237C168.455 148.261 168.455 148.285 168.46 148.308C168.631 149.073 168.439 149.523 167.884 149.656ZM169.532 146.888C169.151 146.595 168.803 146.613 168.488 146.944C168.446 146.987 168.419 147.042 168.409 147.101C168.4 147.16 168.41 147.221 168.438 147.274C168.465 147.327 168.509 147.371 168.563 147.398C168.616 147.425 168.677 147.434 168.736 147.424L169.42 147.32C169.467 147.312 169.51 147.291 169.545 147.259C169.58 147.228 169.605 147.186 169.617 147.141C169.629 147.095 169.627 147.047 169.612 147.002C169.597 146.957 169.569 146.917 169.532 146.888Z" fill="#231F20"/>
</svg>
