<svg width="201" height="201" viewBox="0 0 201 201" fill="none" xmlns="http://www.w3.org/2000/svg">
<path d="M191.015 41.2427C191.015 41.2427 186.475 41.2476 183.018 41.2476C181.029 41.2476 179.802 41.2452 179.367 41.2427C162.451 41.1962 155.353 37.772 146.366 33.4348L145.989 33.2514C136.338 28.5275 124.322 22.6507 101.117 22.6507H100.852H100.571C77.3651 22.6507 65.3523 28.5275 55.6989 33.2514L55.3219 33.4348C46.3367 37.772 39.2387 41.1962 22.3012 41.2427C21.8851 41.2452 20.6638 41.2476 18.6666 41.2476C15.213 41.2476 10.6751 41.2427 10.6751 41.2427L5.73828 41.2379L6.78095 46.0596C6.94983 46.8355 10.9688 64.6688 26.3643 72.2295C27.6591 74.6526 29.7102 77.7047 32.8627 80.659C32.9092 83.087 33.0046 87.4732 33.1466 90.2415C33.3987 99.5228 35.2319 107.766 38.5901 114.744C42.3961 123.649 48.1627 131.053 55.7258 136.751L55.7821 136.792C57.2727 137.918 59.5245 139.617 59.9968 140.31C60.7458 141.494 61.5241 144.456 62.2119 147.077C63.705 152.751 65.7512 160.522 71.1751 166.866C77.605 174.395 87.8482 178.448 100.801 178.588L100.845 178.59L100.887 178.588C113.839 178.448 124.083 174.395 130.51 166.869C135.936 160.522 137.983 152.751 139.476 147.07C140.163 144.456 140.942 141.494 141.696 140.305C142.163 139.617 144.415 137.918 145.905 136.792L145.962 136.753C153.527 131.053 159.294 123.649 163.097 114.744C166.46 107.766 168.291 99.5228 168.543 90.2415C168.685 87.4732 168.781 83.087 168.827 80.659C171.98 77.7047 174.031 74.6526 175.326 72.2295C190.719 64.6688 194.738 46.8355 194.904 46.0596L195.949 41.2379L191.015 41.2427Z" fill="white"/>
<path d="M74.097 164.503C69.2434 158.827 67.4052 151.834 65.9269 146.219C65.0898 143.03 64.2992 140.022 63.2174 138.314C62.4268 137.053 60.2582 135.423 57.9648 133.692C52.9986 129.953 46.466 123.613 42.0236 113.194L42.0015 113.142C41.9917 113.137 41.9893 113.123 41.9893 113.12C39.1647 107.271 37.1553 99.8079 36.8958 90.059C36.6927 86.182 36.585 78.7829 36.585 78.7829C32.6395 75.4713 30.3411 71.866 29.0439 69.1075C14.1673 62.6679 10.3564 45.0475 10.3564 45.0475C10.3564 45.0475 20.6119 45.0597 22.0609 45.0475C40.1952 44.9985 48.0545 41.0799 57.282 36.6277C67.3392 31.7056 78.5639 26.3503 100.827 26.3943C123.093 26.3503 134.318 31.7056 144.375 36.6277C153.605 41.0799 161.464 44.9985 179.599 45.0475C181.048 45.0597 191.298 45.0475 191.298 45.0475C191.298 45.0475 187.49 62.6679 172.616 69.1075C171.318 71.866 169.02 75.4713 165.075 78.7829C165.075 78.7829 164.967 86.182 164.761 90.059C164.504 99.8079 162.495 107.271 159.67 113.12C159.67 113.123 159.668 113.137 159.658 113.142L159.636 113.194C155.191 123.613 148.661 129.953 143.692 133.692C141.399 135.423 139.23 137.053 138.44 138.314C137.355 140.022 136.565 143.03 135.728 146.219C134.252 151.834 132.411 158.827 127.56 164.503C121.803 171.244 112.605 174.736 100.827 174.864C89.0519 174.736 79.8538 171.244 74.097 164.503Z" fill="#0039A6" fill-opacity="0.94"/>
<path d="M140.031 114.032C140.041 114.02 141.529 112.196 142.591 109.548C142.621 109.472 142.648 109.394 142.677 109.318C131.687 107.813 122.036 108.65 119.493 108.919C125.387 109.773 133.09 111.609 139.708 114.419L140.031 114.032ZM129.529 89.6588C130.358 89.6588 131.208 89.7176 132.064 89.8424C130.062 88.3567 127.911 86.8881 125.71 85.5272C123.456 86.7315 122.125 88.5966 121.258 90.4446L120.651 91.7148L121.978 91.1763C124.112 90.3123 126.726 89.6588 129.529 89.6588ZM143.289 107.379C143.757 105.456 143.769 103.64 143.326 101.953C133.362 102.117 125.123 103.938 123.486 104.325C125.539 104.413 134.128 104.91 143.289 107.379ZM142.349 99.6304C141.661 98.5241 140.538 97.2072 139.091 95.7778C132.897 96.7446 127.999 98.5485 126.021 99.3538C128.753 99.1457 135.518 98.7835 142.349 99.6304ZM92.0557 162.845C83.4916 162.845 80.4639 157.377 80.4639 157.377C77.774 153.128 76.4914 147.99 75.3411 143.425C74.3449 139.473 73.4099 135.777 71.7431 133.03C70.2256 130.497 67.6458 128.456 64.596 126.057C58.3032 121.125 49.9545 114.017 47.245 99.0332H49.9251C53.1339 82.5803 61.6809 71.0594 63.0883 69.2482C61.9233 66.9058 61.6443 64.1279 61.6369 64.096C62.4226 64.3261 63.6194 64.61 64.7404 64.8548C68.3262 62.8771 71.5032 61.5138 74.0903 60.5788C74.5872 57.5584 75.2382 55.0986 75.833 53.4587C76.7142 51.0282 78.0334 49.7971 78.6673 49.2782C81.2104 47.1977 83.352 46.1574 83.352 46.1574C82.2433 50.0418 81.6387 54.9518 81.3156 58.7211C82.7059 61.0243 86.0322 64.2183 87.9389 65.961C89.2459 64.84 90.5798 63.6309 91.5613 62.7278C91.855 56.9686 92.046 49.1632 92.1366 44.9729C89.8603 40.3592 87.3466 36.3132 85.763 33.9024C59.1012 37.8308 57.2386 52.5164 22.6318 52.5164C23.0969 53.2971 23.9682 54.6115 25.2875 56.0433C27.3924 58.3318 30.9488 60.9851 35.4304 62.1232C35.4377 62.1232 35.7339 63.8194 36.7717 65.8264C37.763 67.7478 39.464 70.2102 42.3546 72.5085C42.3546 72.5085 42.3547 72.506 42.3595 72.5036C43.1526 71.1672 44.0239 69.8259 44.9002 68.5311C42.6165 66.4898 41.1993 64.3897 40.328 62.7033C39.2927 60.6962 38.9843 59.0026 38.9843 59.0026C37.7434 58.7529 34.1698 57.9085 31.0222 55.8549C36.2331 56.4913 44.2271 55.7496 55.885 50.8153C55.885 50.8153 55.0479 53.9066 53.1608 57.0371C57.1455 56.3321 62.7971 55.1133 67.3863 52.279C62.8656 58.9536 58.4672 60.7941 56.8714 62.7033C54.972 64.9233 45.7226 76.5225 44.09 83.1702C40.2424 118.678 64.4321 125.9 69.5916 134.271C74.739 142.995 72.9938 163.388 91.3558 168.139C91.3558 168.139 100.028 170.616 102.766 158.623C102.766 158.623 98.4489 162.845 92.0557 162.845ZM115.501 87.7839C114.85 85.5982 113.81 83.4345 113.076 83.082C111.901 82.404 108.239 81.7359 105.351 82.1495C106.293 80.6026 108.734 79.3544 110.636 78.7744C109.326 77.9471 107.784 77.7512 106.609 77.7561C105.978 77.7977 105.356 77.8564 104.776 77.9249C105.775 75.4088 109.204 73.5756 111.105 73.2427C109.071 71.9112 104.629 70.6531 100.821 76.6179C97.022 70.6678 92.5893 71.9063 90.5505 73.2329C92.5135 73.5168 96.246 75.1249 96.8677 77.9225C96.6744 77.8883 96.4835 77.8613 96.2951 77.8344C95.223 77.6998 92.8464 77.5896 90.9666 78.7987C92.7999 79.4204 95.1177 80.7422 96.0674 82.294C91.8134 81.5768 87.6599 83.5104 86.3235 84.7881L85.4619 85.5982C82.9164 80.9159 77.6076 84.4625 75.9432 85.5346C78.1925 86.7363 79.5191 88.5991 80.3831 90.4446L80.9901 91.7148L80.5398 91.5312C78.5915 90.8067 70.6416 88.5011 62.7897 95.5722C65.9275 96.3628 69.9735 97.6234 72.8714 99.2045C66.2188 98.5388 58.6434 100.942 58.6434 100.942C58.6434 100.942 69.2514 101.674 75.4855 104.504C65.5751 104.685 58.6068 108.265 58.6068 108.265C58.6068 108.265 63.7002 107.869 66.9873 107.869C70.5094 107.869 75.1012 108.248 79.4604 109.382C70.6832 110.393 62.6673 115.231 62.6673 115.231C62.6673 115.231 76.9711 113.954 87.5326 113.57C87.6329 113.565 85.4619 111.313 84.2283 107.473C88.4088 109.756 92.9369 111.232 96.9338 111.374C95.5069 110.275 93.9918 108.77 92.4914 107.103C92.3593 106.936 92.2222 106.782 92.2075 106.469C92.2295 105.887 92.8243 105.764 93.0299 105.764C93.2257 105.764 93.4044 105.801 93.5953 105.857C93.7837 105.911 93.9526 105.935 94.1044 105.935C94.3051 105.935 94.4618 105.891 94.5915 105.811C94.8411 105.649 95.032 105.282 95.032 104.658C95.0418 103.789 94.6233 102.536 93.818 101.358C92.7313 99.7503 91.2015 98.7932 90.3889 98.8251C90.1735 98.8324 90.0267 98.8716 89.8945 98.9646C89.6473 99.1163 89.4638 99.4713 89.4564 100.076C89.4344 100.592 89.3463 101.295 88.497 101.402C88.005 101.376 87.7455 101.087 87.5032 100.744C85.2539 97.4642 83.6629 94.6985 83.6091 93.2299C83.6091 93.0244 83.6311 92.782 83.8048 92.5691C84.2895 91.9327 85.0776 91.8201 85.9612 91.803C90.1956 91.8299 99.3129 95.418 100.823 96.0128C102.336 95.418 111.448 91.8371 115.678 91.8078C116.003 91.8127 116.302 91.8299 116.583 91.8789C116.353 90.8362 115.976 89.299 115.501 87.7839ZM115.881 33.8998C114.297 36.3132 111.784 40.3592 109.507 44.9729C109.595 49.1632 109.789 56.9686 110.082 62.7278C111.064 63.6309 112.395 64.84 113.702 65.961C115.636 64.1963 119.026 60.9385 120.382 58.6305C120.382 58.6305 128.753 59.6683 140.345 66.8716C139.353 64.1523 137.753 60.618 137.351 59.7418C135.902 58.9659 133.694 57.7053 131.533 56.1413C127.786 53.4343 128.953 48.1376 128.953 48.1376C134.705 51.8653 143.181 55.1426 148.285 56.7042C146.535 53.6912 145.756 50.8153 145.756 50.8153C157.417 55.7496 172.832 57.928 179.014 52.5188C144.405 52.5188 142.54 37.8307 115.881 33.8998ZM112.07 100.969C112.278 100.039 112.163 99.2852 111.686 98.9646C110.819 98.387 109.089 99.4516 107.821 101.344C106.55 103.241 106.222 105.245 107.089 105.825C107.378 106.016 107.762 106.028 108.19 105.886C108.323 105.842 108.597 105.715 108.876 105.382C109.857 104.202 110.817 102.969 111.705 101.738C111.96 101.388 112.041 101.104 112.07 100.969ZM93.9282 123.93L97.2251 128.02C97.2251 128.02 99.0633 125.732 100.826 123.411C102.576 125.732 104.426 128.02 104.426 128.02L107.723 123.93C108.983 126.06 110.161 128.02 110.161 128.02C112.07 125.683 112.883 122.746 113.23 120.89C109.314 120.734 105.133 120.631 100.826 120.631C96.5128 120.631 92.3348 120.734 88.4186 120.89C88.7662 122.746 89.5812 125.683 91.4879 128.02C91.4879 128.02 92.6677 126.06 93.9282 123.93ZM117.947 136.526C123.116 132.037 124.739 124.948 125.231 121.59C122.338 121.377 119.112 121.164 115.651 120.998C117.778 126.493 117.058 135.312 117.07 136.114C117.087 137.01 117.433 136.976 117.947 136.526ZM76.4106 121.59C76.9124 124.948 78.5351 132.037 83.6996 136.526C84.2209 136.976 84.5612 137.01 84.5758 136.114C84.5881 135.312 83.8685 126.493 85.9955 120.998C82.5346 121.164 79.3135 121.377 76.4106 121.59ZM89.3854 151.003C89.6179 150.82 89.8578 150.638 90.1124 150.472C91.2187 149.735 92.467 149.371 93.8156 149.371C95.2059 149.371 96.4712 149.745 97.5776 150.081C98.6716 150.411 99.7095 150.717 100.821 150.717C101.927 150.717 102.965 150.411 104.059 150.081C105.173 149.745 106.43 149.371 107.823 149.371C109.174 149.371 110.42 149.735 111.524 150.472C111.783 150.638 112.023 150.82 112.256 151.003C116.99 144.588 113.264 134.616 113.039 136.947C112.638 141.152 110.99 143.736 109.461 145.254C108.305 143.959 106.986 142.826 106.986 142.826C106.986 142.826 105.141 144.838 103.907 146.475C102.676 144.838 100.821 142.826 100.821 142.826C100.821 142.826 98.98 144.414 97.744 145.988C96.5128 144.409 94.6576 142.826 94.6576 142.826C94.6576 142.826 93.3432 143.961 92.1855 145.264C90.6533 143.746 89.0012 141.164 88.5997 136.947C88.377 134.616 84.6566 144.588 89.3854 151.003ZM78.6404 75.4137C78.6551 75.4259 78.6502 75.497 78.6502 75.5044C78.6502 75.6072 78.6257 75.7369 78.5205 75.8372C78.4201 75.94 78.2855 75.9669 78.2072 75.9645C77.9894 75.9547 77.911 75.8788 77.8865 75.8714C75.7914 74.4126 74.6141 71.6664 74.0634 69.6814C72.2375 69.7867 70.1619 70.0706 67.9492 70.592C69.736 71.6689 72.9008 73.9011 75.2064 77.3571C77.1547 77.0511 79.2768 76.963 81.0342 76.963C81.6289 76.963 82.1723 76.9753 82.6594 76.9924C82.6863 76.9851 82.723 76.9851 82.7499 76.9924C83.8318 76.9753 84.4118 76.3682 84.4265 75.6242C84.4265 75.3917 84.3629 75.1372 84.2234 74.868C83.2273 72.976 82.0255 71.2528 80.5789 70.3961C80.3488 70.259 79.9671 70.1147 79.4678 69.9923C78.7653 71.2577 78.5572 72.8216 78.5572 74.0503C78.5572 74.5888 78.5915 75.0563 78.6404 75.4137ZM123.087 74.0503C123.087 72.8216 122.876 71.2577 122.174 69.9923C121.677 70.1147 121.292 70.259 121.062 70.3961C119.616 71.2528 118.414 72.976 117.418 74.868C117.278 75.1372 117.215 75.3917 117.215 75.6242C117.229 76.3682 117.81 76.9753 118.891 76.9924C118.921 76.9851 118.955 76.9851 118.982 76.9924C119.469 76.9753 120.012 76.963 120.609 76.963C122.364 76.963 124.487 77.0511 126.435 77.3571C128.74 73.9011 131.905 71.6689 133.692 70.592C131.479 70.0706 129.404 69.7867 127.58 69.6814C127.027 71.6664 125.85 74.4126 123.755 75.8714C123.733 75.8788 123.652 75.9547 123.434 75.9645C123.356 75.9669 123.224 75.94 123.121 75.8372C123.015 75.7369 122.991 75.6072 122.991 75.5044C122.991 75.497 122.986 75.4259 123.003 75.4137C123.05 75.0563 123.087 74.5888 123.087 74.0503ZM140.621 72.2465L145.33 73.8644C144.334 74.2486 136.832 77.3596 131.714 84.0538C129.81 82.9769 127.668 82.1862 126.073 81.6796C127.189 81.6428 128.471 81.6429 129.717 81.7359L130.097 81.7628L130.292 81.4447C133.398 76.3415 139.094 73.0591 140.621 72.2465Z" fill="white"/>
</svg>
