<svg width="201" height="201" viewBox="0 0 201 201" fill="none" xmlns="http://www.w3.org/2000/svg">
<g clip-path="url(#clip0_15016_304273)">
<path d="M100.543 37.8002C45.3153 37.8002 0.542969 66.0704 0.542969 100.943C0.542969 135.82 45.3153 164.088 100.543 164.088C155.768 164.088 200.544 135.819 200.544 100.943C200.544 66.0704 155.768 37.8002 100.543 37.8002Z" fill="black"/>
<path d="M100.547 41.749C47.5006 41.749 4.49805 68.2515 4.49805 100.941C4.49885 133.638 47.5006 160.138 100.547 160.138C153.595 160.138 196.595 133.638 196.595 100.941C196.595 68.2515 153.595 41.749 100.547 41.749ZM102.16 45.7603C141.619 45.7603 175.265 63.2926 185.37 82.3435H141.063C141.063 82.3435 124.555 64.9547 101.095 64.9547C77.633 64.9547 54.1781 80.4129 54.1781 98.542C54.1781 116.67 71.7684 134.267 97.8935 134.267C124.023 134.267 136.603 124.348 142.49 111.986H82.6999V95.0137H190.878C195.999 129.178 152.716 156.13 98.1596 156.13C43.6119 156.13 9.81258 126.388 9.81258 99.7412C9.815 73.0911 47.6111 45.7603 102.16 45.7603Z" fill="#ECAA00"/>
</g>
<defs>
<clipPath id="clip0_15016_304273">
<rect width="200" height="200" fill="white" transform="translate(0.542969 0.945312)"/>
</clipPath>
</defs>
</svg>
