<svg width="201" height="201" viewBox="0 0 201 201" fill="none" xmlns="http://www.w3.org/2000/svg">
<path d="M157.082 195.052C143.722 190.442 132.55 187.161 120.284 185.364C114.425 189.426 107.862 193.333 100.675 196.927L98.5654 198.02L96.456 196.927C89.2684 193.333 82.7058 189.426 76.8464 185.364C64.6588 187.161 53.5649 190.442 40.2835 195.052L38.6429 195.598L42.3929 179.895L39.5023 178.801L39.346 178.879C33.9553 181.77 28.0178 184.348 22.549 187.005L21.1427 187.708V137.082L9.58008 118.879H27.1584C22.0021 101.379 22.7833 88.7223 22.8615 88.5661V85.0504H73.0963V81.2222C70.0494 80.5191 67.1588 79.0347 64.815 76.3003L68.0963 73.9565C68.0963 73.9565 64.9713 72.9409 62.7837 70.519L62.2369 69.8159L22.6271 69.7377L23.0958 65.9096C23.0958 65.6752 24.5021 53.7219 33.4084 40.5968C42.3929 27.3154 59.1118 12.8622 89.5028 7.94023L96.3778 7.39335C95.5966 8.25273 94.8934 9.50275 94.2684 10.6746C92.8622 13.2528 92.6278 14.1903 92.784 15.9091C93.0184 18.5653 95.1278 20.2841 97.9404 20.2841C100.831 20.2841 102.94 18.4091 103.097 15.9091C103.253 14.1122 102.862 12.7059 101.769 10.6746C101.222 9.58087 100.519 8.33086 99.6591 7.39335L106.456 8.01836C139.347 13.409 156.457 30.8311 164.816 44.8156L187.473 7.78398L190.051 3.48706C190.051 3.48706 191.926 16.7684 189.894 28.5654C185.441 54.0345 177.785 67.9408 168.722 84.9723H173.722L173.801 88.4879C173.801 88.5661 174.738 101.222 169.66 118.801H187.238L175.754 136.848V187.63L174.347 186.926C168.644 184.192 163.019 181.301 157.16 178.958L157.003 178.879L154.894 179.739L158.644 195.598L157.082 195.052ZM127.394 70.0502C129.425 71.144 134.503 72.0815 134.503 72.0815C134.503 72.0815 131.3 74.5815 127.472 75.7534C123.331 77.0034 120.284 76.6128 119.659 76.8472V78.6441H123.722V85.1285H140.206L149.425 70.1284L127.394 70.0502Z" fill="white"/>
<path d="M142.626 88.5652L155.83 66.5338H119.423L117.314 68.3307C117.314 68.3307 120.751 71.9244 127.392 72.2369C127.392 72.2369 122.314 74.5807 115.126 73.1745V79.5026L105.595 85.0496H89.7351L82.7038 77.0026C82.7038 77.0026 75.5944 80.5964 70.0474 76.0651C70.0474 76.0651 72.2349 75.1276 73.4068 72.3151C73.4068 72.3151 68.1724 71.8463 65.5943 68.4869L69.1099 66.5338H27.2345C27.2345 66.5338 32.3127 20.8302 90.282 11.4551C89.1882 12.7051 88.5632 14.2676 88.5632 15.9864C88.5632 20.3614 92.782 23.8771 97.9383 23.8771C103.095 23.8771 107.313 20.3614 107.313 15.9864C107.313 14.3457 106.688 12.7832 105.673 11.5332C142.548 17.627 157.861 38.4866 164.189 52.6274L187.47 13.877C187.47 13.877 187.314 22.7052 186.611 27.7052C183.408 49.6586 174.502 66.4556 165.517 83.4871C164.58 85.284 163.642 87.0027 162.783 88.6434H169.345C169.345 88.6434 170.517 103.097 164.033 122.472H180.83L172.236 135.753V181.847L166.689 179.113C163.72 177.629 160.595 176.301 157.392 175.05L156.767 175.129L150.829 177.472L153.798 189.973L147.704 187.863C139.033 184.894 129.267 182.551 118.564 181.301C112.626 185.441 105.985 189.504 98.5633 193.176C91.1414 189.426 84.5007 185.441 78.5631 181.301C67.938 182.629 58.2504 184.894 49.6566 187.863L43.5628 189.973L46.5316 177.551L39.969 175.129L39.5784 175.05C36.2971 176.301 33.2502 177.707 30.2033 179.113L24.6563 181.847V135.909L15.9844 122.394H32.7814C26.1407 103.097 27.2345 88.5652 27.2345 88.5652H77.0787V81.9245H83.5632L87.6257 91.1434L77.7038 98.956H89.657L84.5007 110.206L97.7821 102.706L111.767 110.206L106.61 98.956H118.72L108.798 91.1434L112.86 81.9245H119.345V88.5652H142.626Z" fill="#0060A9"/>
<path d="M83.5645 81.9255H87.002L89.7365 85.0506H105.596L110.909 81.9255H112.94L108.799 91.1444L118.721 98.957H106.768L111.924 110.207L97.9397 102.707L84.5802 110.207L89.7365 98.957H77.7832L87.7052 91.1444L83.5645 81.9255Z" fill="white"/>
<path d="M97.8614 86.9254L90.3613 98.2537L97.8614 96.3005L106.143 98.2537L97.8614 86.9254Z" fill="#0060A9"/>
<path d="M98.0176 107.551C101.455 107.551 104.424 109.895 104.424 113.02C104.424 116.145 101.455 118.489 98.0176 118.489C94.5801 118.489 91.6113 116.145 91.6113 113.02C91.6113 109.973 94.5801 107.551 98.0176 107.551Z" fill="white"/>
<path d="M126.926 101.847L135.207 105.754L184.739 23.1746C184.739 23.1746 184.739 24.1902 184.192 27.8621C180.598 49.3467 172.395 65.3625 163.411 82.3158C155.598 97.0816 149.114 108.8 147.317 111.535L155.364 115.441L151.848 122.082L123.098 108.41L126.926 101.847Z" fill="white"/>
<path d="M74.1895 63.4873L78.3301 44.9715L98.9553 37.3152L109.502 40.6746L111.455 46.2997L99.4241 42.784L81.8458 48.4872L76.2988 62.0811L74.1895 63.4873Z" fill="white"/>
<path d="M76.5328 68.6438C76.6109 67.0032 77.7047 65.6751 78.7984 65.0501C78.564 65.8313 77.7828 67.0813 78.4078 68.722C79.0328 70.5189 80.5953 71.0657 82.1578 70.597C83.8766 70.1282 84.736 68.3313 84.2672 66.6126C84.0329 65.6751 83.486 65.0501 82.7828 64.5032C84.9704 64.9719 86.1422 66.3001 86.3766 68.4095C86.6891 71.1439 84.2672 73.3314 81.5328 73.4876C78.7203 73.6439 76.3765 71.3782 76.5328 68.6438Z" fill="white"/>
<path d="M139.502 107.863L172.94 51.2998C169.58 61.1437 164.033 71.3781 159.346 80.3626C151.611 94.9721 145.127 106.535 143.408 109.269L143.174 109.66L139.502 107.863Z" fill="#0060A9"/>
<path d="M84.5801 20.5194C84.5801 19.7382 84.6582 18.8788 84.8145 18.0975C85.9863 24.0351 91.4551 28.4883 98.0177 28.4883C104.58 28.4883 110.049 24.0351 111.221 18.0975C111.377 18.8788 111.455 19.6601 111.455 20.5194C111.455 27.5508 105.44 33.2539 98.0177 33.2539C90.5958 33.2539 84.5801 27.5508 84.5801 20.5194Z" fill="white"/>
<path d="M52.8633 66.5347C52.7071 63.6441 52.5508 47.9408 64.0353 35.5188C64.0353 35.5188 47.4727 46.4564 46.3789 66.5347H52.8633Z" fill="white"/>
<path d="M143.486 66.5347C143.643 63.6441 143.799 47.9408 132.314 35.5188C132.314 35.5188 148.877 46.4564 149.971 66.5347H143.486Z" fill="white"/>
<path d="M64.5803 122.394C62.4709 117.941 60.4396 113.41 60.4396 113.41L56.4552 117.472C51.1426 109.894 46.7676 93.4876 45.5176 88.4875H65.2834C67.3147 95.1282 70.2835 103.097 73.4866 107.707L77.471 103.644C77.471 103.644 81.4554 112.863 86.3774 122.394H64.5803Z" fill="white"/>
<path d="M54.6583 88.5657L56.2208 105.285L48.0176 88.5657H54.6583Z" fill="#0060A9"/>
<path d="M63.0176 88.5657L64.4239 104.269L56.6895 88.5657H63.0176Z" fill="#0060A9"/>
<path d="M115.676 122.395L125.988 112.942L144.27 121.77V122.395H115.676Z" fill="white"/>
<path d="M90.1309 49.0356L99.5841 46.0668L109.115 48.6449L89.4277 52.7856L92.9434 49.8168L90.1309 49.0356Z" fill="white"/>
<path d="M111.457 50.9886L112.238 53.7231L108.176 53.8012L109.504 58.8794C112.238 59.1137 113.332 57.0825 113.332 57.0825L114.895 62.7856L113.488 65.9107C113.488 65.9107 111.066 64.1138 108.879 63.5669L109.504 61.5356L106.457 60.9106L103.41 62.1606L105.676 53.3324L103.41 52.5512C105.832 52.0824 109.738 51.3012 111.457 50.9886Z" fill="white"/>
<path d="M105.05 66.2229C105.05 66.2229 101.299 70.8323 93.8775 70.3636C93.8775 70.3636 95.7526 72.473 93.7213 74.2699C91.6119 76.0668 95.9869 77.1605 95.9869 77.1605C95.9869 77.1605 98.0182 73.723 102.471 74.1136C106.925 74.4261 106.143 77.6293 106.143 77.6293H108.409L110.909 71.9261C110.909 71.848 106.3 70.2854 105.05 66.2229Z" fill="white"/>
<path d="M90.3633 55.1294C90.3633 55.1294 90.129 60.5982 95.3634 60.5201C100.988 60.4419 100.676 55.2075 100.676 55.2075L102.317 55.5981L99.2697 62.8638C99.2697 62.8638 94.8165 63.4107 91.8477 66.7701L89.4258 64.1139L90.9883 62.0045L87.5508 62.1607L86.3789 60.4419L88.7227 58.4888L85.1289 57.9419L86.8477 55.9107L90.3633 55.1294Z" fill="white"/>
<path d="M177.24 124.349L170.287 135.287V178.881L167.474 177.553C164.271 175.99 160.99 174.584 157.552 173.256L156.146 173.412L148.411 176.459L150.99 187.162L148.255 186.225C134.271 181.381 117.708 178.412 98.7235 178.412H98.411C79.4264 178.412 62.8637 181.459 48.8792 186.225L46.1448 187.162L48.723 176.459L40.3635 173.334L39.2697 173.178C35.8322 174.506 32.4728 175.99 29.2696 177.475L26.4571 178.803V135.365L19.4258 124.271H177.24V124.349Z" fill="white"/>
<path d="M28.4883 175.754V134.894L23.0195 126.3H173.724L168.334 134.738V175.754C149.271 166.457 125.052 160.832 98.4109 160.832C71.77 160.832 47.551 166.457 28.4883 175.754Z" fill="#0060A9"/>
<path d="M154.739 171.77L146.614 175.442L148.958 184.27C134.739 179.348 118.02 176.301 98.8014 176.301H98.6451H98.4888C79.348 176.301 62.551 179.348 48.3321 184.27L50.6759 175.442L42.082 171.848C58.4884 165.91 77.7074 162.473 98.4888 162.473C119.114 162.473 138.333 165.91 154.739 171.77Z" fill="#0060A9"/>
<path fill-rule="evenodd" clip-rule="evenodd" d="M63.7169 171.458C63.0138 168.489 60.1231 169.348 57.9356 169.817C56.7637 170.051 55.6699 170.364 54.4981 170.676C54.4199 170.676 54.1074 170.755 54.1074 170.911C54.1855 171.145 54.5762 170.833 54.6543 171.223L56.2949 178.411C56.3731 178.802 55.9043 178.723 55.9043 178.958C55.9824 179.114 57.0762 178.802 57.3106 178.802C58.0918 178.645 58.9512 178.411 59.7325 178.177C59.8106 178.177 60.1231 178.098 60.1231 177.942C60.045 177.708 59.6544 178.02 59.5762 177.63L59.1075 175.677C60.8262 175.286 62.8575 175.13 63.5606 173.176C63.795 172.63 63.795 172.005 63.7169 171.458ZM60.5919 172.161C60.7481 172.786 59.8887 173.02 59.42 173.176C59.1856 173.255 58.8731 173.255 58.6387 173.333L58.3262 172.083L59.1075 171.926C59.5762 171.77 60.3575 171.458 60.5919 172.161Z" fill="white"/>
<path d="M67.7812 168.098C67.7812 168.332 68.25 168.098 68.3281 168.489L69.5 175.754C69.5781 176.145 69.0313 176.067 69.1094 176.301C69.1094 176.457 70.2813 176.223 70.5157 176.223C71.375 176.067 72.1563 175.911 73.0157 175.832C73.0938 175.832 73.4063 175.832 73.4063 175.676C73.4063 175.442 72.9376 175.676 72.8594 175.286L71.6875 168.02C71.6094 167.629 72.1563 167.707 72.0782 167.473C72.0782 167.317 70.9063 167.551 70.6719 167.551C69.8125 167.707 69.0313 167.864 68.1719 167.942C68.0938 167.942 67.7812 167.942 67.7812 168.098Z" fill="white"/>
<path fill-rule="evenodd" clip-rule="evenodd" d="M88.4806 173.958C88.4806 173.88 87.9337 173.724 87.8556 173.567L85.9024 171.145C86.9962 170.598 87.6993 169.661 87.5431 168.411C87.5431 168.02 87.3868 167.552 87.1524 167.239C86.1368 165.911 85.1993 165.911 83.6368 166.067L78.0898 166.536C78.0117 166.536 77.8555 166.536 77.8555 166.692C77.8555 166.927 78.3242 166.692 78.4024 167.083L79.0274 174.427C79.0274 174.817 78.5586 174.661 78.5586 174.895C78.5586 175.052 79.7305 174.974 79.9649 174.895C80.8243 174.817 81.6055 174.739 82.4649 174.661C82.543 174.661 82.8555 174.661 82.8555 174.505C82.8555 174.27 82.3868 174.505 82.3086 174.114L82.1524 172.239L83.0118 172.161C83.168 172.395 84.3399 173.88 84.3399 174.036C84.3399 174.27 83.9493 174.192 83.9493 174.349C83.9493 174.505 85.1993 174.349 85.3555 174.349C86.2149 174.27 87.1524 174.114 88.0118 174.114C88.1681 174.114 88.4806 174.114 88.4806 173.958ZM81.9961 170.13L81.8399 168.489L82.543 168.411C83.0899 168.333 84.0274 168.333 84.1055 169.036C84.1837 169.817 83.3243 169.973 82.6993 170.052C82.4649 170.13 82.2305 170.13 81.9961 170.13Z" fill="white"/>
<path fill-rule="evenodd" clip-rule="evenodd" d="M98.7149 170.286H97.0743L97.8555 167.63L98.7149 170.286ZM100.512 165.52C100.512 165.442 100.356 165.442 100.356 165.442H95.7461C95.668 165.442 95.3555 165.442 95.3555 165.52C95.3555 165.755 95.668 165.677 95.668 165.833C95.668 166.224 93.0899 172.239 92.6992 173.255C92.6211 173.411 92.6211 173.567 92.4648 173.645C92.3867 173.645 92.1523 173.645 92.1523 173.802C92.1523 173.958 93.4024 173.958 93.6367 173.958C94.4961 173.958 95.3555 173.88 96.2149 173.958C96.293 173.958 96.5274 173.958 96.5274 173.802C96.5274 173.645 96.1368 173.645 96.1368 173.411C96.1368 173.255 96.293 172.864 96.3711 172.63H99.418C99.4962 172.786 99.6524 173.255 99.6524 173.333C99.6524 173.645 99.2618 173.567 99.2618 173.724C99.2618 173.958 100.434 173.88 100.668 173.88H103.246C103.324 173.88 103.559 173.88 103.559 173.724C103.559 173.567 103.168 173.567 103.09 173.411C102.856 173.02 100.121 165.833 100.121 165.755C100.199 165.677 100.512 165.755 100.512 165.52Z" fill="white"/>
<path d="M115.59 165.755C115.356 165.755 115.512 166.146 115.121 166.146L107.387 165.599C106.996 165.599 107.231 165.208 106.996 165.13C106.84 165.13 106.918 165.364 106.84 165.442C106.762 166.146 106.684 166.849 106.684 167.552C106.684 167.708 106.528 168.646 106.762 168.724C106.996 168.724 106.84 168.333 107.231 168.333L109.418 168.489L109.028 173.646C109.028 174.036 108.559 173.802 108.559 174.036C108.559 174.192 109.731 174.271 109.965 174.271C110.825 174.349 111.684 174.349 112.465 174.427C112.543 174.427 112.856 174.505 112.856 174.349C112.856 174.114 112.387 174.271 112.387 173.88L112.778 168.724C113.246 168.724 113.715 168.802 114.184 168.802C114.418 168.802 114.731 168.802 114.965 168.88C115.278 168.958 115.121 169.271 115.356 169.349C115.512 169.349 115.512 169.114 115.512 169.036C115.59 168.333 115.59 167.63 115.668 166.927C115.668 166.771 115.746 165.833 115.59 165.755Z" fill="white"/>
<path d="M123.402 173.411L123.559 172.396C124.184 172.474 124.887 172.552 125.512 172.63C125.824 172.708 126.215 172.708 126.527 172.786C126.996 172.864 126.684 173.255 126.918 173.333C127.074 173.333 127.074 172.943 127.074 172.864L127.309 171.302C127.309 171.146 127.465 170.364 127.309 170.364C127.074 170.364 127.231 170.833 126.762 170.755L123.871 170.364L124.027 169.349C124.809 169.427 125.512 169.505 126.293 169.661C126.684 169.739 127.074 169.739 127.465 169.818C127.934 169.974 127.699 170.286 127.934 170.364C128.09 170.364 128.09 169.974 128.09 169.896L128.324 168.255C128.324 168.099 128.559 167.239 128.324 167.239C128.09 167.239 128.246 167.708 127.777 167.63L120.98 166.693C120.902 166.693 120.59 166.614 120.59 166.771C120.59 167.005 121.059 166.849 120.98 167.318L119.965 174.583C119.887 174.974 119.418 174.739 119.418 174.974C119.418 175.052 119.496 175.13 119.574 175.13C120.043 175.208 120.59 175.286 121.059 175.364C122.387 175.521 123.793 175.677 125.121 175.833C125.59 175.911 126.137 175.989 126.606 176.068C127.074 176.146 126.762 176.614 127.074 176.614C127.231 176.614 127.231 176.224 127.231 176.146L127.465 174.505C127.465 174.349 127.699 173.568 127.465 173.489C127.231 173.489 127.387 173.958 126.918 173.88L123.402 173.411Z" fill="white"/>
<path d="M140.121 173.802C140.434 173.646 142.309 172.005 142.309 171.771L142.231 171.693C142.152 171.693 142.074 171.771 141.996 171.771C141.84 171.771 140.746 170.911 140.512 170.755C139.809 170.286 139.027 169.974 138.168 169.74C136.371 169.271 133.715 169.427 133.168 171.537C132.621 173.724 134.731 174.427 136.293 175.052C136.527 175.13 137.231 175.365 137.152 175.755C137.074 176.068 136.684 176.068 136.371 175.99C135.824 175.833 133.48 174.896 133.637 174.271C133.637 174.193 133.715 174.115 133.715 174.037L133.637 173.958C133.48 173.958 131.684 175.677 131.371 175.99C131.293 176.068 131.293 176.068 131.215 176.146L131.293 176.224C131.449 176.224 131.527 176.146 131.605 176.146H131.684C132.387 176.771 132.934 177.318 133.871 177.708C134.574 178.021 135.356 178.333 136.137 178.49C138.09 178.958 140.277 178.724 140.824 176.38C141.293 174.505 139.106 173.568 137.699 173.021C137.465 172.943 136.684 172.63 136.684 172.318C136.762 172.005 137.152 172.005 137.387 172.083C138.09 172.24 139.262 172.865 139.809 173.333V173.412C140.043 173.646 139.965 173.724 140.121 173.802Z" fill="white"/>
<path fill-rule="evenodd" clip-rule="evenodd" d="M142.701 177.865L143.17 178.021V179.818L143.717 179.974V178.177L144.186 178.334V177.943L142.701 177.474V177.865Z" fill="white"/>
<path d="M144.344 180.129L144.734 180.285V178.567V178.645L145.125 180.364L145.438 180.442L145.828 178.957V180.598L146.375 180.754V178.567L145.594 178.332L145.359 179.504L145.125 178.176L144.344 177.942V180.129Z" fill="white"/>
<path d="M48.2463 165.051C46.6838 165.52 43.2462 166.692 41.7618 167.161V149.192H38.3243V168.411C36.1368 169.192 33.2461 170.442 31.8399 170.989V133.332L29.4961 129.66H38.3243V143.801H41.7618V129.66H48.2463V165.051Z" fill="white"/>
<path fill-rule="evenodd" clip-rule="evenodd" d="M139.42 133.801C139.186 133.176 138.639 132.864 138.014 132.864C137.467 132.864 136.92 133.098 136.607 133.567C136.451 133.879 136.295 134.27 136.295 134.739C136.217 135.207 136.217 135.832 136.217 136.614V154.895C136.217 156.536 136.295 157.708 136.451 158.255C136.686 158.88 137.233 159.27 137.936 159.27C138.639 159.348 139.264 158.958 139.498 158.255C139.654 157.708 139.733 156.536 139.733 154.817V136.614C139.654 135.286 139.576 134.27 139.42 133.801ZM145.983 157.63C145.826 158.723 145.436 159.739 144.811 160.598C144.186 161.458 143.248 162.161 142.076 162.551C140.904 163.02 139.576 163.176 137.936 163.098C136.451 163.02 135.123 162.708 133.873 162.161C132.701 161.614 131.764 160.833 131.061 159.817C130.357 158.801 129.967 157.786 129.811 156.614C129.654 155.442 129.576 153.333 129.576 150.364V141.223C129.576 138.332 129.654 136.223 129.811 135.051C129.967 133.879 130.357 132.864 130.982 131.926C131.686 130.989 132.545 130.286 133.717 129.739C134.889 129.27 136.217 128.957 137.858 128.957C139.342 128.957 140.67 129.192 141.842 129.661C143.014 130.129 143.951 130.832 144.654 131.77C145.358 132.707 145.748 133.723 145.904 134.817C146.061 135.989 146.139 138.098 146.139 141.067V151.223C146.139 154.348 146.061 156.38 145.983 157.63Z" fill="white"/>
<path d="M59.1837 135.129C59.1837 135.129 57.2305 145.286 56.9962 147.942L56.918 148.567H60.7462L60.6681 147.942C60.3556 144.504 59.1837 135.129 59.1837 135.129ZM68.0119 160.364C66.2931 160.598 63.0119 161.301 61.6056 161.536L60.9806 152.551H57.1524L56.5274 162.708C54.7305 163.098 51.5274 163.958 49.9648 164.348L53.4024 132.629L51.3711 129.504H63.7931L68.0119 160.364Z" fill="white"/>
<path d="M92.387 158.02L86.84 158.254V138.645L83.1681 158.567L79.34 158.879L73.5586 140.598L75.5118 159.348L69.9649 160.129V132.785L67.9336 129.66H78.7931C79.0275 131.301 79.34 133.254 79.6525 135.442L81.2931 147.082L83.09 133.02L80.9806 129.66H92.4651V158.02H92.387Z" fill="white"/>
<path d="M101.994 143.723H103.166C103.947 143.723 104.651 143.567 105.041 143.02C105.432 142.473 105.588 141.614 105.588 140.52V136.457C105.588 135.442 105.432 134.582 104.963 134.114C104.494 133.645 103.635 133.489 102.619 133.489H102.072V143.723H101.994ZM102.619 129.66C104.651 129.66 106.213 129.817 107.229 130.129C108.322 130.442 109.026 130.832 109.494 131.379C109.963 131.926 110.354 132.551 110.51 133.332C110.666 134.114 110.822 137.082 110.822 138.957V141.536C110.822 143.411 110.666 144.661 110.276 145.364C109.963 146.067 109.338 146.614 108.401 147.082C107.463 147.473 106.213 147.707 104.572 147.707H101.994V154.114L104.885 158.098L98.4786 158.02H95.5098V132.785L93.5566 129.66H102.619Z" fill="white"/>
<path d="M112.543 137.551V129.739V129.66H128.09V137.082L123.559 135.207V156.536L125.902 159.973L114.73 158.801L117.074 155.989V135.207L112.543 137.551Z" fill="white"/>
<path d="M146.92 164.583L149.029 161.379V132.864L147.154 129.66H154.42L159.733 151.458V129.66H167.076L164.967 132.707V170.989L159.342 168.723L154.264 154.036V166.848L146.92 164.583Z" fill="white"/>
</svg>
