<svg width="201" height="200" viewBox="0 0 201 200" fill="none" xmlns="http://www.w3.org/2000/svg">
<path d="M173.388 74.3981C173.388 149.617 102.718 185.304 102.005 185.655L100.768 186.266L100.13 186.579L99.4931 186.266L98.2564 185.655C97.5429 185.304 26.873 149.616 26.873 74.3981V13.8667H173.388V15.3071V74.3981Z" fill="white"/>
<path d="M171.947 74.3981C171.947 148.733 102.074 184.014 101.369 184.362L100.132 184.971L98.8952 184.362C98.1899 184.014 28.3164 148.733 28.3164 74.3981V15.3071H171.947V74.3981Z" fill="black"/>
<path d="M31.1113 18.1098V74.403C31.1113 147.856 100.129 181.857 100.129 181.857C100.129 181.857 169.147 147.856 169.147 74.403V18.1098H31.1113Z" fill="#A51C30"/>
<path d="M111.454 30.1621V48.1544H115.598V72.7938H84.6444V48.1544H88.7584V30.1621H62.485V48.1544H66.6371V115.425H62.4668L62.49 133.418H88.7584V115.425H84.6626V90.7861H115.578V115.425H111.454V133.418H137.784V115.425H133.643V48.1544H137.784V30.1621H111.454Z" fill="black"/>
<path d="M113.97 32.6952V45.6514H118.114V75.3269H82.1244V45.6514H86.2384V32.6952H65.0012V45.6514H69.1533V117.96H64.9863L65.0029 130.915H86.2384V117.96H82.1443V88.2831H118.094V117.96H113.97V130.915H135.264V117.96H131.123V45.6514H135.264V32.6952H113.97Z" fill="white"/>
</svg>
