<svg width="201" height="201" viewBox="0 0 201 201" fill="none" xmlns="http://www.w3.org/2000/svg">
<path d="M174.808 140.975L186.777 127.174L175.661 115.682L187.473 102.59L176.119 90.64L187.592 78.1273L175.661 65.76L197.215 42.0442L111.156 26.2413V71.3731C109.365 71.0946 103.157 70.9923 100.848 70.9421C98.1121 70.8838 92.9607 71.3028 90.3699 71.5588L90.3762 26.1221L4.26651 42.0631L25.8444 65.7769L13.8943 78.1436L26.2898 90.652L14.3567 102.605L26.6336 115.698L14.2086 127.186L26.6775 140.991L2.0835 174.784L90.2884 160.794L90.395 120.218C92.5473 119.618 98.7544 119.258 100.853 119.258C103.163 119.258 108.847 119.513 111.136 120.121L111.247 160.913L199.401 174.766L174.81 140.979" fill="#BCBEC0"/>
<path d="M168.523 140.585L180.116 127.299L168.128 115.33L180.116 102.59L168.693 90.6771L180.342 77.8814L168.467 65.6823L187.361 44.5761L116.106 31.1763V76.527C112.538 76.2159 106.635 75.6162 100.853 75.5691C97.3816 75.5409 89.7084 76.1657 85.3813 76.5415V31.1945L14.1198 44.5899L33.0142 65.7011L21.1393 77.8983L32.7865 90.6928L21.3664 102.604L33.3517 115.339L21.3664 127.317L32.9558 140.602L12.8652 168.705L85.6824 156.768L85.752 116.36C91.8055 115.155 98.2209 115.053 100.848 115.004C104.106 114.942 111.889 115.365 115.723 116.346L115.794 156.751L188.618 168.689L168.526 140.587" fill="#231F20"/>
<path d="M161.842 140.546L173.54 127.307L161.847 115.617C161.847 115.176 173.54 102.598 173.54 102.598L161.842 90.8979C161.842 90.4619 173.54 77.8895 173.54 77.8895L161.835 65.7556L178.189 47.6636L124.956 38.0176V82.8565C118.53 81.8101 106.427 80.6634 100.849 80.7224C94.5392 80.7889 85.1535 81.2794 76.5269 82.874L76.5206 38.0345L23.2903 47.6793L39.6478 65.7719L27.9405 77.8995C27.9405 77.8995 39.6403 90.4694 39.6403 90.9085L27.9405 102.605C27.9405 102.605 39.6353 115.187 39.6353 115.624L27.9405 127.318L39.6378 140.556L22.9321 162.291L76.5037 153.486L76.5369 112.071C82.4442 110.527 95.5385 109.519 100.848 109.644C105.368 109.746 118.574 110.684 124.943 112.054C124.952 115.925 125.039 153.449 125.039 153.449L178.545 162.27L161.839 140.54" fill="white"/>
<path d="M159.207 64.1038L172.537 49.5171L127.585 41.1665V85.6591C120.431 84.3017 105.95 83.271 100.849 83.2346C94.225 83.1876 82.7987 83.7666 73.8979 85.6761L73.8948 41.1841L28.9404 49.5309L42.2762 64.1201L42.2624 142.044L29.4617 158.531L73.8163 151.232L73.9129 109.931C80.8678 107.905 94.8033 106.983 100.849 107.021C107.268 107.058 120.501 108.232 127.567 109.914L127.664 151.22L172.02 158.514L159.222 142.023L159.207 64.1057" fill="#005838"/>
<path d="M153.115 69.1577L142.219 80.3645L153.013 91.4658L142.219 102.566L153.102 113.763L142.219 124.959L153.115 136.169V113.777V113.749V91.5725V91.3606V69.1577ZM48.3623 69.1709V91.3749V91.5905V113.766V113.794V136.18L59.2592 124.976L48.3761 113.785L59.2592 102.588L48.4677 91.4844L59.2592 80.3824L48.3623 69.1744V69.1709Z" fill="white"/>
</svg>
