<svg width="201" height="201" viewBox="0 0 201 201" fill="none" xmlns="http://www.w3.org/2000/svg">
<path d="M181.151 21.7727H179.319C129.328 21.7727 102.208 6.50357 101.939 6.35213L100.976 5.79465L100.021 6.35213C99.7454 6.50417 72.6318 21.7727 22.6403 21.7727H20.8086L20.7289 23.6045C20.5914 26.4135 17.7027 92.8834 34.7885 129.847C44.6641 151.211 62.1983 181.214 100.324 194.991L100.983 195.223L101.627 194.991C139.767 181.214 157.295 151.212 167.17 129.847C184.241 92.8795 181.368 26.4225 181.237 23.6045L181.151 21.7727Z" fill="#602D89"/>
<path d="M163.678 128.246C154.157 148.866 137.31 177.753 100.98 191.146C64.65 177.753 47.7955 148.865 38.2678 128.246C23.129 95.4714 24.1498 36.6979 24.4901 25.6174C69.783 25.2844 95.7233 12.9698 100.98 10.2112C106.229 12.9696 132.169 25.2849 177.462 25.6174C177.81 36.6941 178.83 95.4676 163.678 128.246Z" fill="white"/>
<path d="M100.982 14.9206C96.0226 17.527 71.5371 29.1546 28.8006 29.4584C28.4748 39.9197 27.5047 95.3921 41.8039 126.326C50.7886 145.779 66.7014 173.045 100.983 185.693C135.271 173.045 151.17 145.779 160.154 126.326C174.453 95.3834 173.49 39.9187 173.164 29.4584C130.42 29.1544 105.934 17.5268 100.982 14.9206Z" fill="#602D89"/>
<path d="M92.7855 102.318H108.706C109.097 106.727 109.697 111.274 110.515 115.856C107.337 116.58 104.043 116.942 100.698 116.942C97.3535 116.942 94.0594 116.58 90.8812 115.863C91.7283 111.259 92.3729 106.713 92.7855 102.318ZM70.7835 103.845C67.6921 99.8197 66.0123 95.2007 66.0123 90.5668C66.0123 85.9478 67.6775 81.3431 70.7473 77.3325C71.3554 81.937 71.6594 86.3316 71.6594 90.4508C71.6594 94.6644 71.3699 99.154 70.7835 103.845ZM90.7657 65.2992C93.9802 64.568 97.3177 64.1916 100.699 64.1916C104.029 64.1916 107.316 64.5536 110.494 65.2703C109.698 69.8242 109.097 74.3636 108.713 78.8161H92.7708C92.3364 74.4577 91.6634 69.9184 90.7657 65.2992ZM118.697 35.1162L118.219 36.4267L117.879 37.3679C117.031 39.7136 116.213 42.1751 115.446 44.7018C110.639 43.5869 105.686 43.0222 100.698 43.0222C95.5361 43.0222 90.4247 43.6231 85.4797 44.8104C84.6833 42.3271 83.8507 39.8873 82.982 37.5489L82.6345 36.6077L82.1566 35.2901L80.8101 35.6955L79.8471 35.9778C74.2145 37.6647 68.9009 40.0538 64.0498 43.0729L63.3113 43.529L62.2977 44.1661L62.696 45.2955L62.9856 46.1136C63.8688 48.5607 64.7014 51.0873 65.476 53.6286C64.238 54.4829 63.0724 55.3517 61.9937 56.235C50.9381 65.2631 44.8496 77.4547 44.8496 90.5663C44.8496 103.678 50.9383 115.869 61.9937 124.898C63.181 125.86 64.448 126.802 65.7729 127.699C65.0417 130.241 64.238 132.804 63.391 135.323L63.1159 136.134L62.7394 137.263L63.7529 137.886L64.4842 138.327C69.3566 141.303 74.7 143.649 80.361 145.3L81.3385 145.582L82.6923 145.973L83.1556 144.641L83.4887 143.678C84.3068 141.325 85.1032 138.885 85.8488 136.409C90.6923 137.538 95.6737 138.11 100.698 138.11C105.694 138.11 110.66 137.546 115.482 136.423C116.243 138.921 117.053 141.375 117.893 143.743L118.234 144.691L118.697 146.009L120.044 145.625L121.014 145.35C126.661 143.728 132.004 141.419 136.898 138.487L137.644 138.038L138.679 137.415L138.288 136.279L138.006 135.453C137.137 132.948 136.319 130.364 135.566 127.743C136.913 126.831 138.201 125.875 139.403 124.898C144.29 120.908 148.236 116.268 151.125 111.127L151.632 110.222L152.348 108.956L151.103 108.21L150.205 107.674L136.421 99.4351L135.458 98.8559L134.119 98.0595L133.38 99.4351L132.852 100.42C132.229 101.578 131.505 102.7 130.673 103.779C130.151 99.2613 129.891 94.874 129.891 90.7038C129.891 86.4178 130.151 81.9436 130.673 77.3536C131.425 78.331 132.092 79.3374 132.663 80.3727L133.192 81.3211L133.93 82.6459L135.241 81.893L136.182 81.3428L150.09 73.3282L151.01 72.7997L152.291 72.0612L151.567 70.7725L151.039 69.8531C148.157 64.7707 144.248 60.1874 139.404 56.2344C138.195 55.2498 136.899 54.2869 135.531 53.3602C136.298 50.7032 137.123 48.1185 137.978 45.6714L138.267 44.8533L138.673 43.7021L137.623 43.0796L136.877 42.6307C131.983 39.7057 126.64 37.3962 120.993 35.7817L120.03 35.4994L118.698 35.1157L118.697 35.1162ZM100.699 118.433C104.644 118.433 108.518 117.94 112.231 116.97C111.211 111.49 110.487 106.074 110.081 100.825H91.4236C90.982 106.023 90.2218 111.439 89.1575 116.97C92.8643 117.94 96.7454 118.433 100.699 118.433ZM71.8111 107.291C72.7016 101.369 73.1505 95.7071 73.1505 90.4506C73.1505 85.303 72.6799 79.743 71.7532 73.8999C67.0762 78.7071 64.5278 84.5566 64.5278 90.5656C64.5278 96.5964 67.0979 102.475 71.8111 107.29M91.4089 80.3066H110.088C110.493 75.0287 111.203 69.6057 112.209 64.1546C108.502 63.1917 104.629 62.7067 100.697 62.7067C96.7006 62.7067 92.7839 63.2062 89.0261 64.1908C90.1556 69.7221 90.9529 75.1373 91.4089 80.3066ZM119.622 36.9325L120.585 37.2076C126.102 38.7931 131.329 41.0447 136.107 43.9116L136.86 44.3605L136.571 45.1786C135.579 48.0094 134.652 50.9706 133.798 54.0041C135.463 55.0828 137.027 56.2195 138.46 57.3851C143.159 61.2222 146.953 65.6602 149.74 70.5829L150.261 71.5097L149.342 72.0381L135.434 80.0527L134.493 80.5957L133.964 79.6473C132.827 77.5984 131.365 75.6581 129.613 73.8699C128.809 79.6546 128.397 85.3165 128.397 90.7024C128.397 95.9586 128.809 101.518 129.62 107.253C131.466 105.364 132.994 103.307 134.16 101.128L134.688 100.136L135.651 100.708L149.443 108.955L150.334 109.49L149.827 110.395C147.032 115.376 143.202 119.865 138.46 123.746C137.033 124.904 135.484 126.033 133.833 127.105C134.681 130.109 135.607 133.085 136.592 135.938L136.874 136.763L136.129 137.204C131.35 140.071 126.13 142.33 120.599 143.916L119.628 144.191L119.295 143.243C118.311 140.477 117.37 137.588 116.501 134.642C111.375 135.952 106.061 136.618 100.696 136.618C95.3094 136.618 89.9739 135.945 84.8257 134.627C83.9714 137.516 83.052 140.397 82.0817 143.185L81.7487 144.148L80.7713 143.865C75.2328 142.251 70.0129 139.963 65.2567 137.052L64.5255 136.611L64.8006 135.8C65.7635 132.926 66.6758 129.993 67.5011 127.061C65.8721 125.997 64.3372 124.882 62.94 123.746C52.2324 115 46.3394 103.221 46.3394 90.5654C46.3394 77.9101 52.2327 66.1309 62.94 57.3854C64.2432 56.3211 65.684 55.2641 67.2187 54.2505C66.35 51.3184 65.3943 48.4152 64.3879 45.6061L64.0983 44.7952L64.8296 44.3391C69.5789 41.3853 74.7771 39.0541 80.2722 37.4106L81.2352 37.121L81.5827 38.0622C82.5962 40.8133 83.5737 43.6803 84.4787 46.5979C89.7276 45.2151 95.1796 44.5129 100.696 44.5129C106.046 44.5129 111.346 45.1717 116.457 46.4822C117.34 43.5065 118.289 40.6179 119.28 37.8739L119.621 36.9327" fill="black"/>
<path d="M113.584 118.173C109.442 119.353 105.106 119.947 100.69 119.947C96.2587 119.947 91.9221 119.353 87.7879 118.173L87.3897 118.057L87.4693 117.652C88.6929 111.491 89.5399 105.46 89.9816 99.719L90.0106 99.3064H111.484L111.513 99.719C111.926 105.54 112.729 111.578 113.902 117.652L113.982 118.057L113.584 118.173ZM87.2444 63.114L87.6499 62.9909C91.8273 61.7891 96.2146 61.181 100.689 61.181C105.098 61.181 109.427 61.7746 113.554 62.9475L113.952 63.0633L113.88 63.4688C112.721 69.5285 111.932 75.5662 111.519 81.4017L111.491 81.8216H90.0025L89.9735 81.4089C89.5102 75.7111 88.6269 69.6948 87.331 63.5191L87.2444 63.114ZM72.9893 109.55L72.8517 110.361L72.2436 109.811C66.2852 104.468 62.9983 97.6263 62.9983 90.5601C62.9983 83.5301 66.2562 76.7172 72.164 71.3821L72.7722 70.8318L72.9098 71.6427C74.0754 78.3106 74.669 84.6383 74.669 90.445C74.669 96.3817 74.1042 102.81 72.9893 109.55ZM148.277 110.029L135.267 102.253C133.747 104.983 131.691 107.517 129.164 109.797L128.549 110.348L128.418 109.529C127.39 102.999 126.876 96.6642 126.876 90.7061C126.876 84.6029 127.39 78.1734 128.404 71.5932L128.527 70.7679L129.15 71.3253C131.575 73.4973 133.559 75.9154 135.065 78.5145L148.19 70.9417C145.519 66.3443 141.921 62.1814 137.49 58.5614C135.911 57.28 134.174 56.0347 132.306 54.8618L132.023 54.6808L132.118 54.355C133.001 51.155 133.971 48.0202 135.006 45.0301C130.546 42.3947 125.689 40.2952 120.562 38.7893C119.534 41.6635 118.542 44.726 117.616 47.9044L117.493 48.3315L117.065 48.2084C111.773 46.7677 106.264 46.0364 100.689 46.0364C94.9552 46.0364 89.301 46.8039 83.8777 48.3315L83.4578 48.4473L83.3275 48.0274C82.3935 44.965 81.3727 41.9314 80.3013 38.9848C75.1971 40.5487 70.3681 42.7206 65.9369 45.4428C66.9939 48.4039 67.9858 51.4809 68.898 54.5868L68.9922 54.9126L68.7098 55.0936C66.9795 56.2012 65.3577 57.3742 63.8952 58.5687C53.549 67.0103 47.8516 78.3774 47.8516 90.5621C47.8516 102.754 53.5494 114.121 63.8952 122.562C65.4301 123.822 67.146 125.053 68.9776 126.211L69.26 126.385L69.1731 126.711C68.3116 129.824 67.3631 132.93 66.3495 135.942C70.802 138.62 75.6455 140.756 80.7791 142.284C81.7926 139.352 82.7555 136.296 83.6606 133.198L83.7836 132.77L84.2108 132.886C89.5394 134.356 95.0852 135.094 100.689 135.094C106.271 135.094 111.795 134.356 117.109 132.908L117.536 132.792L117.659 133.212C118.564 136.325 119.542 139.388 120.577 142.334C125.71 140.828 130.568 138.729 135.028 136.086C133.985 133.046 133.022 129.903 132.153 126.747L132.059 126.428L132.342 126.247C134.202 125.074 135.933 123.836 137.489 122.562C141.963 118.906 145.591 114.692 148.276 110.029" fill="white"/>
</svg>
