<svg width="200" height="201" viewBox="0 0 200 201" fill="none" xmlns="http://www.w3.org/2000/svg">
<g clip-path="url(#clip0_15016_304181)">
<mask id="mask0_15016_304181" style="mask-type:luminance" maskUnits="userSpaceOnUse" x="0" y="39" width="201" height="124">
<path d="M200.271 39.2871H0.271484V162.814H200.271V39.2871Z" fill="white"/>
</mask>
<g mask="url(#mask0_15016_304181)">
<g clip-path="url(#clip1_15016_304181)">
<path d="M13.3701 89.8857C10.4719 90.8603 7.08644 92.1112 4.33008 93.1294V95.333C7.62099 94.0821 11.8173 92.5512 15.4573 91.3476V87.8712L13.3701 86.7366V89.8894V89.8857Z" fill="#FF4D00"/>
<path d="M13.4867 62.4857C13.4867 60.4457 13.7631 59.5875 15.1558 58.5003V56.6675L12.8831 57.4312C11.7485 58.4748 11.3994 59.4021 11.3994 61.1402V65.9839L13.4867 65.2893V62.4857Z" fill="#FF4D00"/>
<path d="M11.3994 82.3731C11.3994 84.2276 11.7703 84.6203 13.4867 85.2021V77.4821C15.2721 76.8567 16.9885 76.2785 18.7958 75.7221V73.5658C16.2903 74.3549 13.9267 75.1403 11.4031 75.9985V82.3731H11.3994Z" fill="#FF4D00"/>
<path d="M31.8427 84.275C29.1082 84.995 25.7227 85.8968 22.8027 86.8495V89.0059C26.1627 87.9404 30.2427 86.8277 33.93 85.9222V82.4204L31.8427 81.1004V84.275Z" fill="#FF4D00"/>
<path d="M31.9369 79.5913V57.1513C31.9369 55.2059 32.3078 54.3477 33.7914 53.1659V51.3113L31.3805 51.9149C30.1987 52.8895 29.8496 53.7222 29.8496 55.5295V76.6022C29.8496 78.3877 30.1042 78.8277 31.9369 79.5913Z" fill="#FF4D00"/>
<path d="M62.3735 49.1547V66.6093C62.3735 75.1402 55.4208 81.6056 46.3772 81.6056C43.4099 81.6056 41.0463 80.9111 38.6826 79.402C40.9772 82.0456 44.0135 83.3184 47.8608 83.3184C56.9699 83.3184 64.4572 76.1547 64.4572 67.162V50.8929C64.4572 49.0384 64.6208 48.4129 66.1953 47.2529V45.4202L63.9226 45.6747C62.7881 46.4638 62.3699 47.3911 62.3699 49.1511H62.3735V49.1547Z" fill="#FF4D00"/>
<path d="M47.5377 71.9185V53.9075C47.5377 51.7766 47.8177 50.9403 49.3014 49.8057V47.9512L47.0068 48.3912C45.8723 49.2239 45.4541 50.1548 45.4541 51.9148V68.4421C45.4541 70.3875 46.0577 71.6857 47.5414 71.9185H47.5377Z" fill="#FF4D00"/>
<path d="M78.8065 62.3911L75.4211 61.1402C71.8974 59.8202 69.8356 58.6383 68.3047 56.5511C69.3265 60.0056 71.712 61.9983 75.9992 63.5983L79.7301 64.9874C80.4029 65.2202 80.9338 65.5656 81.352 65.9365C81.4429 65.682 81.4901 65.402 81.4901 65.1256C81.4901 64.1074 80.8429 63.1547 78.8029 62.3911H78.8065Z" fill="#FF4D00"/>
<path d="M80.5006 46.4459C78.3697 46.4459 76.9297 47.5113 76.9297 48.6713C76.9297 49.3186 77.3697 49.8313 78.737 50.3877C78.7842 49.2968 79.9879 48.4168 82.0533 48.4168C83.166 48.4168 84.2315 48.6713 85.137 49.0895C84.0242 47.2822 82.3551 46.4459 80.5006 46.4459Z" fill="#FF4D00"/>
<path d="M91.4174 51.2422L88.541 51.3113L89.981 53.2822L93.4574 53.235V44.5913L91.4174 43.7331V51.2422Z" fill="#FF4D00"/>
<path d="M106.737 47.162V51.9365L108.708 49.6202V48.5765C108.708 46.9547 109.079 46.3293 110.446 45.562V43.9402L108.523 43.8238C107.272 44.3583 106.737 45.0747 106.737 47.162Z" fill="#FF4D00"/>
<path d="M106.737 64.1767V67.6531C106.737 69.4167 107.177 70.0022 108.73 71.1694V64.7585L107.686 63.0676L106.737 64.1803V64.1767Z" fill="#FF4D00"/>
<path d="M121.526 48.8094L116.159 54.8494L122.901 66.704C124.341 69.2422 125.701 71.1331 127.785 72.4785C127.992 72.3622 128.156 72.2458 128.319 72.0858L118.646 55.0785L123.312 49.8785C124.796 48.2094 126.188 47.3985 128.483 47.1658V45.4749L126.697 45.2676C124.705 45.7076 123.312 46.8203 121.526 48.8131V48.8094Z" fill="#FF4D00"/>
<path d="M142.138 79.9149C139.589 79.4749 136.367 78.9658 132.981 78.4531V80.5404C136.712 81.0749 140.931 81.7913 143.945 82.3477V78.6604L142.138 76.9222V79.9113V79.9149Z" fill="#FF4D00"/>
<path d="M140.258 50.1292V71.1765C140.258 72.9365 140.767 73.5183 142.345 74.791V52.7947C142.345 50.871 142.578 50.1983 144.036 49.5728V47.8347L141.694 47.4165C140.672 47.8347 140.258 48.6201 140.258 50.1292Z" fill="#FF4D00"/>
<path d="M170.486 86.6385C163.948 84.8058 156.275 82.8603 149.206 81.3076V83.3949C156.228 84.8567 164.25 86.9403 172.41 89.3076V80.9403L170.486 80.2894V86.6422V86.6385Z" fill="#FF4D00"/>
<path d="M158.385 56.133L164.294 57.6639C163.319 55.7184 162.348 55.1148 159.912 54.5112L156.294 53.6312V58.4748L158.381 58.9839V56.133H158.385Z" fill="#FF4D00"/>
<path d="M158.384 69.3004L161.955 70.1586C161.446 68.4895 160.773 67.8859 159.264 67.5404L156.297 66.8459V73.6823L158.384 74.2168V69.3041V69.3004Z" fill="#FF4D00"/>
<path d="M166.821 71.1292L163.37 70.1582L164.203 72.3364L168.748 73.6128V65.6819L166.821 65.151V71.1292Z" fill="#FF4D00"/>
<path d="M172.039 62.9038V54.5111L170.115 53.9765V60.3984L166.708 59.4711L167.566 61.6747L172.039 62.9038Z" fill="#FF4D00"/>
<path d="M181.243 78.0639L184.672 80.522C185.879 81.3802 186.897 82.1911 187.661 83.3257C187.846 82.9548 187.941 82.562 187.941 82.1439C187.941 81.122 187.315 79.802 184.672 77.9475L180.57 75.0748C177.465 72.8966 175.399 70.9948 173.803 68.9766C174.868 72.293 176.839 74.9111 181.243 78.0639Z" fill="#FF4D00"/>
<path d="M198.025 78.1769C198.581 79.7296 198.883 81.3296 198.883 82.8605C198.883 88.5623 194.756 92.9223 188.221 92.9223C183.654 92.9223 178.832 90.7914 174.636 87.7514C177.741 91.715 183.399 94.915 189.032 94.915C195.756 94.915 200.276 90.395 200.276 84.8532C200.276 82.5805 199.512 80.1478 198.028 78.1769H198.025Z" fill="#FF4D00"/>
<path d="M184.301 63.9909C184.439 63.62 184.81 63.4564 185.345 63.4564C186.734 63.4564 189.006 64.6164 190.883 66.4019C189.446 63.4564 186.501 60.9764 184.068 60.9764C183.141 60.9764 182.606 61.3255 182.606 61.9982C182.606 62.6237 183.094 63.18 184.297 63.9909H184.301Z" fill="#FF4D00"/>
<path d="M199.228 73.7983V65.0347L197.283 63.3183V70.8056L194.57 69.6929L195.381 72.1292L199.228 73.7983Z" fill="#FF4D00"/>
<path d="M18.6751 53.8167C20.366 54.4422 20.6678 55.184 20.6678 57.6167V64.8967C16.6569 66.1731 12.6933 67.4713 9.51876 68.6058V61.5804C9.51876 58.8931 9.82058 57.9185 11.4897 56.1549V54.0676C7.91876 55.2495 3.54058 56.9185 0.271484 58.1949V60.2822C1.91876 60.8858 2.21694 61.6713 2.21694 64.3149V85.224C2.21694 87.9585 1.91512 88.8167 0.271484 90.6022V92.6895C3.40239 91.4604 7.59512 89.8604 11.4897 88.5185V86.4313C9.6133 85.8058 9.51876 85.1113 9.51876 82.5149V74.704C12.6933 73.544 16.6824 72.2713 20.6678 71.0167V78.8276C20.6678 81.424 20.366 82.304 18.6751 84.0422V86.1295C21.966 85.064 26.1406 83.8349 29.9624 82.8131V80.7258C28.1551 80.0313 27.9697 79.1949 27.9697 76.5985V55.4567C27.9697 52.9549 28.2715 52.0967 29.9624 50.5658V48.4785C26.0679 49.4749 21.8969 50.7258 18.6751 51.7222V53.8167Z" fill="#002F87"/>
<path d="M52.5187 45.6785C54.2096 46.4676 54.5587 47.184 54.5587 49.7585V66.5185C54.5587 70.7367 51.755 73.8203 47.9768 73.8203C45.0787 73.8203 43.5732 72.0131 43.5732 68.6494V51.8203C43.5732 49.3185 43.9223 48.4603 45.5914 46.9513V44.864C41.3041 45.744 37.2459 46.6494 34.2568 47.3912V49.4785C35.9259 50.2422 36.275 50.9403 36.275 53.4203V70.4822C36.275 76.2312 40.1005 79.7549 46.475 79.7549C54.5877 79.7549 60.5005 74.0531 60.5005 66.1476V48.8312C60.5005 46.2567 60.8496 45.4458 62.5405 44.1476V42.0603C59.2496 42.4785 55.3768 43.0822 52.5259 43.5913V45.6785H52.5187Z" fill="#002F87"/>
<path d="M82.4933 53.8387L78.5296 52.3078C75.9333 51.3114 75.006 50.1987 75.006 48.7151C75.006 46.3296 77.4387 44.6132 80.4533 44.6132C83.1878 44.6132 86.0387 46.0278 87.3587 49.5514L89.5623 49.5041V41.0423C87.0823 39.886 84.206 39.2823 81.3333 39.2823C73.6823 39.2823 68.0751 43.5478 68.0751 50.1551C68.0751 54.6751 70.6933 57.4314 75.606 59.2387L79.3151 60.606C82.2387 61.675 83.3514 63.0423 83.3514 65.126C83.3514 68.3732 80.6387 70.2278 77.4169 70.2278C74.4023 70.2278 70.9951 68.6278 69.5805 64.6169L67.4023 64.8496V74.1696C69.9733 75.3514 73.4751 75.8823 76.1405 75.8823C77.006 75.8823 77.8605 75.8314 78.7005 75.726C80.6642 73.8496 82.9333 72.0823 84.9333 70.9951C85.6023 71.406 86.2751 71.9151 86.8969 72.4387C89.2678 70.4678 90.766 67.6496 90.766 64.0132C90.766 59.1478 88.0787 55.9951 82.4933 53.8387Z" fill="#002F87"/>
<path d="M121.257 67.5476L113.854 54.6276L119.788 47.9512C122.199 45.2603 123.406 44.3112 126.141 43.4785V41.413C122.803 41.0203 117.795 40.5803 114.297 40.3476V42.4349C115.061 43.0603 115.315 43.5912 115.315 44.1949C115.315 44.9149 114.966 45.4931 114.25 46.2821L104.861 56.7585V46.3294C104.861 43.9876 105.141 43.1294 106.854 42.064V39.9767C103.217 39.8603 98.7409 39.7912 95.3809 39.7912V41.8785C97.119 43.0603 97.559 43.8712 97.559 46.2131V67.144C97.559 69.7403 97.119 70.5512 95.3809 71.7803V74.0531C98.6936 74.0531 103.192 74.1221 106.854 74.3076V72.0349C105.141 70.6894 104.861 69.8567 104.861 67.2603V63.504L108.323 59.5803C108.323 59.5803 112.446 66.9331 113.123 68.1003C113.559 68.8567 114.014 69.6749 114.381 70.3476C116.606 71.5621 119.145 73.5258 120.97 75.1658C122.781 75.3403 124.661 75.5476 126.65 75.7876V73.6749C124.33 72.2312 122.926 70.464 121.257 67.5476Z" fill="#002F87"/>
<path d="M128.923 43.8239C130.661 45.1694 130.963 46.0494 130.963 48.5294V69.5076C130.963 72.173 130.661 72.893 128.923 73.9367V76.0239C132.399 76.4639 136.665 77.1148 140.421 77.7148V75.6276C138.683 74.1658 138.381 73.333 138.381 70.7367V49.573C138.381 47.1148 138.705 46.373 140.421 45.4712V43.3839C137.036 42.8058 132.748 42.2021 128.923 41.7367V43.8239Z" fill="#002F87"/>
<path d="M161.235 76.8095L154.421 75.1186V64.5005L159.29 65.6132C161.261 66.0532 162.094 66.7732 162.93 68.1623L165.017 68.7186V60.9077L162.93 60.3732C162.21 61.2314 161.261 61.5332 159.428 61.115L154.421 59.9804V51.2641L159.868 52.5623C163.694 53.4677 164.854 54.7186 166.243 57.4314L168.33 57.9877V49.6677C161.075 47.675 153.494 45.8204 145.079 44.2204V46.3077C146.795 47.7914 147.119 48.6495 147.119 51.1295V72.2932C147.119 74.8895 146.795 75.6314 145.079 76.4641V78.5514C152.752 80.035 161.257 82.1659 168.745 84.1841V75.5368L166.657 74.9586C165.475 76.8604 163.992 77.5077 161.235 76.8132V76.8095Z" fill="#002F87"/>
<path d="M189.816 70.1803L185.133 66.9803C181.98 64.824 180.591 63.4349 180.591 61.6967C180.591 60.0494 181.842 59.1003 183.835 59.1003C187.751 59.1003 191.602 62.7876 193.246 67.144L195.38 68.024V59.4021C191.58 55.9258 186.526 53.9076 182.376 53.9076C177.438 53.9076 173.686 56.7585 173.686 62.3003C173.686 67.0531 176.467 70.1585 180.849 73.1476L185.624 76.3912C188.638 78.4531 189.795 80.424 189.795 82.3258C189.795 84.344 188.518 85.5949 186.34 85.5949C182.238 85.5949 178.318 81.0967 176.326 76.7403L174.191 76.0676V84.9912C178.202 88.4931 183.533 91.064 188.122 91.064C193.569 91.064 197.046 87.4712 197.046 81.8603C197.046 77.5731 195.006 73.7258 189.813 70.1767H189.816V70.1803Z" fill="#002F87"/>
<path d="M143.581 126.686C142.214 120.039 140.439 114.286 135.912 109.653C136.606 109.144 137.45 108.748 138.395 108.395C137.275 107.159 135.955 106.068 134.446 105.468C134.945 103.893 135.308 102.468 135.628 100.966C134.435 100.766 133.028 100.711 131.875 100.948C130.243 92.115 127.028 84.7877 122.515 79.3259C124.843 79.5586 127.257 79.8204 129.719 80.1186V78.0313C126.457 77.6422 123.301 77.3004 120.428 77.0204C118.872 75.4604 117.188 74.0931 115.385 72.9368C113.752 74.1731 112.235 75.6313 110.865 77.3222V74.8204L108.763 73.0895V76.2532C105.374 76.0604 102.152 75.9913 99.7663 75.9441V78.0313C103.065 78.075 106.792 78.2168 110.065 78.3659C107.835 81.4059 106.061 85.1441 104.937 89.6895C103.072 89.3186 101.188 89.2532 100.09 89.2532C98.9918 89.2532 97.1082 89.3186 95.2427 89.6895C93.8754 84.1732 91.5591 79.8495 88.6318 76.5186C92.0936 74.0822 94.2791 70.3732 94.2791 66.0786C94.2791 63.2059 93.3045 60.6786 91.4972 58.7077C92.3082 60.4713 92.61 62.115 92.61 63.9004C92.61 68.555 90.4827 72.3368 86.9445 74.7695C86.25 74.115 85.5336 73.5004 84.7918 72.9404C82.7772 74.235 80.9154 75.7877 79.21 77.5768C78.2682 77.6968 77.2972 77.7622 76.29 77.7622C73.4027 77.7622 70.21 77.2022 67.4318 76.3332C70.3118 78.6168 73.9154 79.4859 77.4245 79.6132C73.0354 85.0422 69.9045 92.2677 68.2973 100.944C67.1445 100.708 65.7372 100.762 64.5445 100.962C64.8609 102.464 65.2282 103.89 65.7263 105.464C64.2172 106.068 62.8972 107.155 61.7772 108.391C62.7227 108.744 63.57 109.14 64.2609 109.65C59.7336 114.282 57.9591 120.035 56.5918 126.682C57.3591 126.184 58.1082 125.777 58.8318 125.431C57.6354 129.74 57.8682 134.762 59.8827 141.566C60.3118 140.791 60.77 140.053 61.2536 139.348C62.0391 144.366 64.9336 149.115 70.7336 154.151C70.5882 152.959 70.5154 151.773 70.5191 150.624C71.7082 151.911 73.0572 153.119 74.5227 154.14C76.7482 158.37 80.5554 161.773 85.5191 162.802C82.4936 154.09 85.2791 149.57 89.4427 150.239C92.2645 155.271 94.8572 156.504 100.086 156.504C105.315 156.504 107.912 155.271 110.73 150.239C114.894 149.57 117.679 154.09 114.654 162.802C119.621 161.773 123.428 158.37 125.65 154.14C127.119 153.122 128.465 151.915 129.654 150.624C129.654 151.77 129.588 152.955 129.439 154.151C135.239 149.115 138.134 144.366 138.919 139.348C139.399 140.053 139.857 140.788 140.29 141.566C142.305 134.766 142.537 129.74 141.341 125.431C142.065 125.777 142.814 126.184 143.581 126.682V126.686Z" fill="#FF4D00"/>
<path d="M140.73 122.937C139.268 117.202 137.115 112.868 133.257 109.639C133.759 108.868 134.453 108.34 135.166 107.97C134.395 107.337 133.235 106.81 132.177 106.777C132.675 105.079 133.075 103.664 133.29 102.639C132.257 102.548 131.1 102.762 130.337 103.18C128.319 89.8532 122.704 80.2423 115.442 75.2277C111.719 78.475 107.937 83.9659 106.322 91.8568C104.464 91.2459 102.188 90.9695 100.079 90.9695C97.9696 90.9695 95.6932 91.2459 93.835 91.8568C92.2241 83.9659 88.4423 78.4786 84.715 75.2277C77.4496 80.2423 71.8386 89.8532 69.8205 103.18C69.0605 102.762 67.9005 102.544 66.8677 102.639C67.0823 103.664 67.4859 105.079 67.9805 106.777C66.9223 106.81 65.7623 107.337 64.9914 107.97C65.7041 108.337 66.3986 108.864 66.9005 109.639C63.0386 112.868 60.8896 117.202 59.4277 122.937C60.3114 122.53 61.3841 122.195 62.2423 122.002C60.0896 125.715 59.4532 130.817 60.7259 136.846C61.355 135.879 62.1586 134.875 62.8568 134.148C62.5368 139.9 64.1623 144.682 68.8023 149.639C68.7659 148.49 68.8896 147.024 69.1586 145.839C70.8714 148.519 73.2823 150.926 75.9441 152.602C77.2932 155.66 79.875 158.471 82.6823 159.631C81.0059 151.035 85.6459 146.966 90.7768 148.551C93.5405 153.831 95.5987 154.533 100.071 154.533C104.544 154.533 106.602 153.831 109.366 148.551C114.497 146.966 119.137 151.035 117.46 159.631C120.268 158.471 122.85 155.66 124.199 152.602C126.86 150.926 129.271 148.519 130.984 145.839C131.253 147.024 131.377 148.486 131.34 149.639C135.98 144.682 137.61 139.9 137.286 134.148C137.984 134.875 138.784 135.879 139.417 136.846C140.69 130.817 140.053 125.715 137.9 122.002C138.762 122.199 139.835 122.53 140.715 122.937H140.73Z" fill="#002F87"/>
<path d="M94.457 149.413C95.6025 151.595 97.057 151.937 100.082 151.937C103.108 151.937 104.562 151.595 105.708 149.413C103.853 149.137 101.661 148.373 100.082 148.373C98.5043 148.373 96.3152 149.137 94.457 149.413Z" fill="white"/>
<path d="M135.497 130.693C135.115 124.999 130.486 121.322 123.53 120.85C125.581 119.035 129.432 118.661 133.588 119.337C132.064 117.508 128.555 117.202 125.948 116.639C119.254 115.206 115.668 110.984 112.595 105.021C111.868 103.613 111.541 103.192 110.577 103.192C109.075 103.192 106.894 104.246 105.814 105.657C104.592 107.275 104.763 109.504 104.083 111.806C103.614 113.424 102.857 114.781 101.774 115.381C102.868 109.312 102.763 102.253 100.09 98.1951C97.4135 102.257 97.3117 109.312 98.4062 115.381C97.3226 114.784 96.5662 113.428 96.0972 111.806C95.4172 109.508 95.5844 107.275 94.3663 105.657C93.2863 104.25 91.1044 103.192 89.6026 103.192C88.639 103.192 88.3117 103.613 87.5844 105.021C84.5117 110.981 80.9263 115.206 74.2317 116.639C71.6244 117.202 68.1153 117.512 66.5917 119.337C70.7481 118.661 74.5953 119.035 76.6499 120.85C69.6935 121.322 65.0644 125.002 64.6826 130.693C67.5263 127.166 71.7735 125.919 74.9263 126.828C68.8426 129.279 66.359 136.246 68.439 141.442C69.1408 138.384 71.1699 135.777 73.5626 135.144C71.0026 139.232 72.3335 144.668 75.4572 147.261C75.8935 143.275 78.5372 140.512 81.3481 140.435C79.1699 143.141 78.2863 148.133 79.9153 151.344C81.2535 146.312 85.2463 144.526 89.0244 145.486C87.639 142.646 86.2826 139.853 85.0317 138.512C83.7444 137.137 82.2063 136.912 80.5626 137.61C80.8644 136.21 82.0208 135.468 83.4935 135.395C81.9808 134.188 78.6062 134.464 76.7299 136.69C76.7299 134.057 78.7735 132.552 80.799 132.424C79.8426 131.322 78.2353 131.188 76.6135 131.628C77.2353 130.562 78.4172 129.719 80.0026 129.719C82.2972 129.719 84.2826 131.512 85.7481 133.715C87.9953 137.119 89.8608 142.832 91.5044 145.319C92.2317 146.413 93.0899 147.155 94.5081 147.155C95.6026 147.155 97.3699 146.712 98.4353 145.912C98.999 145.482 99.1917 145.082 99.1917 143.81C99.1917 142.537 98.9808 142.152 98.1372 141.41C97.4063 140.759 96.3153 139.915 95.3372 138.701C96.319 138.188 97.2172 137.992 97.7008 137.759C98.159 137.537 98.3008 137.221 98.0717 136.773C97.7263 136.097 97.1808 136.104 96.3772 136.337C95.6644 136.544 94.8717 136.846 94.279 137.122C93.9917 136.592 93.8608 136.166 93.8608 135.846C93.8608 135.21 94.3772 133.952 95.1481 132.915C95.519 132.413 95.679 132.322 96.1372 132.322C96.7299 132.322 98.3226 132.468 100.101 132.468C101.879 132.468 103.472 132.322 104.064 132.322C104.523 132.322 104.686 132.413 105.057 132.915C105.828 133.952 106.344 135.21 106.344 135.846C106.344 136.166 106.214 136.592 105.926 137.122C105.334 136.842 104.544 136.544 103.828 136.337C103.024 136.104 102.479 136.097 102.134 136.773C101.904 137.221 102.046 137.537 102.504 137.759C102.984 137.992 103.886 138.184 104.868 138.701C103.89 139.915 102.799 140.759 102.068 141.41C101.224 142.152 101.014 142.475 101.014 143.81C101.014 145.144 101.21 145.482 101.77 145.912C102.835 146.712 104.599 147.155 105.697 147.155C107.119 147.155 107.974 146.413 108.701 145.319C110.344 142.832 112.21 137.119 114.457 133.715C115.923 131.512 117.908 129.719 120.203 129.719C121.784 129.719 122.97 130.562 123.592 131.628C121.97 131.188 120.363 131.322 119.406 132.424C121.432 132.552 123.475 134.057 123.475 136.69C121.595 134.464 118.224 134.188 116.712 135.395C118.184 135.468 119.337 136.206 119.643 137.61C117.999 136.915 116.461 137.137 115.174 138.512C113.923 139.853 112.566 142.642 111.181 145.486C114.963 144.526 118.952 146.312 120.29 151.344C121.919 148.133 121.035 143.141 118.857 140.435C121.668 140.512 124.315 143.275 124.748 147.261C127.872 144.668 129.203 139.232 126.643 135.144C129.032 135.773 131.064 138.384 131.766 141.442C133.846 136.246 131.363 129.282 125.279 126.828C128.428 125.919 132.679 127.166 135.523 130.693H135.497Z" fill="white"/>
<path d="M86.3697 86.1401C86.8133 85.1801 87.1442 83.8819 86.9915 83.0892C86.1552 83.3183 85.1261 83.9765 84.3624 84.6892C84.4897 82.8419 84.4497 81.0274 84.1261 79.7474C78.9224 82.9438 74.7297 92.4674 73.7188 98.431C74.1879 99.8892 76.0133 101.271 77.857 101.584C76.7624 102.369 74.8242 102.696 73.0352 102.424C73.7042 103.584 75.4097 104.366 77.1297 104.456C76.5515 105.271 75.7552 105.907 74.9988 106.311C77.3042 106.653 80.7442 105.311 81.777 103.362C80.7115 103.555 79.3806 103.315 78.657 102.711C80.4388 102.336 82.0279 101.216 82.0279 99.5438C82.0752 97.0456 79.2424 96.2674 77.5079 97.4601C77.7515 95.5765 79.057 94.3038 81.257 94.3547C81.137 93.3656 80.1661 92.3074 79.0352 91.9256C80.057 91.0565 81.6061 91.0747 82.8242 91.9801C83.297 91.2456 83.8133 89.2201 84.1261 86.9256C85.1842 87.8928 85.8097 89.391 85.8097 90.7256C85.8097 93.0274 84.8752 94.0056 84.8752 96.0165C84.8752 98.1547 87.3733 98.7147 89.2352 98.231C90.8642 93.4892 89.537 88.1401 86.3624 86.1401H86.3697Z" fill="#FBFBFB"/>
<path d="M127.126 102.428C125.337 102.7 123.399 102.369 122.304 101.588C124.144 101.275 125.973 99.893 126.442 98.4348C125.432 92.4712 121.242 82.9476 116.035 79.7512C115.712 81.0348 115.672 82.8457 115.799 84.693C115.035 83.9803 114.006 83.3221 113.17 83.093C113.017 83.8857 113.348 85.1839 113.792 86.1439C110.613 88.1439 109.286 93.493 110.915 98.2348C112.781 98.7221 115.275 98.1585 115.275 96.0203C115.275 94.0094 114.341 93.0312 114.341 90.7294C114.341 89.3948 114.966 87.8966 116.024 86.9294C116.337 89.2239 116.853 91.2494 117.326 91.9839C118.544 91.0785 120.093 91.0603 121.115 91.9294C119.984 92.3076 119.013 93.3694 118.893 94.3585C121.093 94.3075 122.402 95.5803 122.642 97.4639C120.908 96.2748 118.075 97.0494 118.122 99.5476C118.122 101.217 119.712 102.34 121.493 102.715C120.773 103.318 119.439 103.558 118.373 103.366C119.406 105.318 122.846 106.657 125.152 106.315C124.399 105.911 123.599 105.278 123.021 104.46C124.741 104.369 126.446 103.591 127.115 102.428H127.126Z" fill="#FBFBFB"/>
<path d="M95.6902 119.264C94.8175 119.264 94.0502 118.893 93.3084 118.169C92.0939 116.991 90.5484 114.493 89.2212 113.202C88.3412 112.351 87.443 111.915 86.563 111.915C85.0539 111.915 83.6902 113.195 83.3193 114.955C84.0866 114.424 84.9266 114.158 85.8575 114.151C85.3702 114.911 85.083 115.817 85.083 116.787C85.083 119.482 87.2684 121.667 89.963 121.667C91.3048 121.667 92.5157 121.126 93.3957 120.253C94.0284 120.755 94.6102 120.987 95.2139 120.987C96.4102 120.987 97.2902 120.078 97.4575 118.773C96.8721 119.089 96.2902 119.264 95.6866 119.264H95.6902ZM90.1884 120.147C88.3521 120.147 86.8612 118.657 86.8612 116.82C86.8612 115.969 87.1812 115.195 87.7048 114.606C88.2321 114.897 88.7812 115.337 89.4357 115.984C89.5375 116.082 89.6357 116.184 89.7339 116.286C89.5412 116.409 89.3121 116.497 89.0648 116.522C89.0393 116.617 89.0248 116.718 89.0248 116.82C89.0248 117.475 89.5521 118.002 90.2066 118.002C90.5157 118.002 90.7993 117.882 91.0102 117.686C91.5157 118.271 91.9884 118.831 92.4102 119.297C91.8212 119.827 91.043 120.147 90.1884 120.147Z" fill="#002F87"/>
<path d="M116.839 114.955C116.468 113.195 115.108 111.915 113.595 111.915C112.715 111.915 111.817 112.351 110.937 113.202C109.614 114.489 108.065 116.991 106.85 118.169C106.108 118.893 105.341 119.264 104.468 119.264C103.865 119.264 103.283 119.089 102.697 118.773C102.865 120.078 103.745 120.987 104.941 120.987C105.545 120.987 106.126 120.755 106.759 120.253C107.639 121.126 108.854 121.667 110.192 121.667C112.886 121.667 115.072 119.482 115.072 116.787C115.072 115.817 114.788 114.911 114.297 114.151C115.228 114.158 116.068 114.424 116.835 114.955H116.839ZM109.974 120.147C109.119 120.147 108.341 119.824 107.752 119.297C108.177 118.831 108.646 118.271 109.152 117.686C109.363 117.882 109.643 118.002 109.955 118.002C110.61 118.002 111.137 117.475 111.137 116.82C111.137 116.718 111.123 116.617 111.097 116.522C110.846 116.497 110.621 116.409 110.428 116.286C110.526 116.184 110.625 116.082 110.726 115.984C111.381 115.34 111.93 114.897 112.457 114.606C112.981 115.195 113.301 115.969 113.301 116.82C113.301 118.657 111.81 120.147 109.974 120.147Z" fill="#002F87"/>
<path d="M90.2061 118.006C89.5516 118.006 89.0243 117.478 89.0243 116.824C89.0243 116.722 89.0389 116.62 89.0643 116.526C89.0061 116.533 88.948 116.537 88.8861 116.537C88.5152 116.537 88.177 116.413 87.9225 116.206C87.868 116.402 87.8389 116.613 87.8389 116.824C87.8389 118.129 88.897 119.188 90.2025 119.188C90.8061 119.188 91.3589 118.958 91.777 118.584C91.5298 118.3 91.2716 117.998 91.0061 117.689C90.7952 117.886 90.5152 118.006 90.2025 118.006H90.2061Z" fill="#FF4D00"/>
<path d="M112.239 116.202C111.985 116.41 111.646 116.533 111.275 116.533C111.217 116.533 111.155 116.533 111.097 116.522C111.123 116.617 111.137 116.719 111.137 116.82C111.137 117.475 110.61 118.002 109.955 118.002C109.646 118.002 109.363 117.882 109.152 117.686C108.883 117.995 108.624 118.297 108.381 118.58C108.799 118.955 109.352 119.184 109.955 119.184C111.261 119.184 112.319 118.126 112.319 116.82C112.319 116.606 112.29 116.399 112.235 116.202H112.239Z" fill="#FF4D00"/>
</g>
</g>
</g>
<defs>
<clipPath id="clip0_15016_304181">
<rect width="200" height="200" fill="white" transform="translate(0 0.945312)"/>
</clipPath>
<clipPath id="clip1_15016_304181">
<rect width="200.004" height="123.52" fill="white" transform="matrix(1 0 0 -1 0.271484 162.802)"/>
</clipPath>
</defs>
</svg>
