<svg width="201" height="201" viewBox="0 0 201 201" fill="none" xmlns="http://www.w3.org/2000/svg">
<path d="M13.834 17.5564H74.7011V49.9477H65.4464V73.4402H98.9056V49.9477H89.8324V17.5564H150.518V49.9477H140.907V73.4402H187.893V105.832H178.282V150.681H187.893V183.072H127.381V151.037H136.28V144.986H103.533V151.037H112.788V183.072H51.9204V151.037H61.531V125.053H41.9539L23.6226 108.323V49.9477H13.834V17.5564Z" fill="#E61D3B"/>
<path d="M18.46 22.1829H70.0724V45.3195H60.8178V78.0667H103.532V45.3195H94.4549V22.1829H146.067V45.3195H136.279V78.0667H183.264V101.381H173.653V155.485H183.442V178.622H131.829V155.485H140.906V140.358H98.9042V155.485H108.159V178.622H56.3684V155.485H66.157V119.891H43.3763L28.2485 106.898V45.3195H18.46V22.1829Z" fill="#FFFCFC"/>
<path d="M22.7324 26.4531H65.8021V41.047H56.5475V101.202H66.3361V116.152H45.869L32.699 104.762V41.047H22.7324V26.4531ZM98.9053 26.4531H141.619V41.047H132.008V104.762L118.482 116.152H98.5494V101.202H107.804V41.047H98.9053V26.4531ZM136.28 82.6929H178.994V96.9308H169.383V159.934H178.994V174.172H136.28V159.934H145.535V136.085H94.6339V159.934H103.533V174.172H60.8189V159.934H70.7854V96.9308H60.8189V82.5149H103.711V96.9308H94.6339V120.423H145.357V97.1088H136.28V82.6929ZM126.669 115.796L140.551 103.338V115.796H126.669Z" fill="#E61D3B"/>
</svg>
