<svg width="200" height="201" viewBox="0 0 200 201" fill="none" xmlns="http://www.w3.org/2000/svg">
<path d="M167.09 69.9565C167.636 59.642 161.97 51.0546 156.633 46.4947C154.592 43.0523 152.513 41.2973 151.1 40.1044C149.609 38.8466 149.417 38.6844 149.296 36.1493C149.223 34.5567 148.478 33.0652 147.254 32.0566C146.043 31.0596 144.458 30.617 142.908 30.8468C141.988 30.9805 140.651 31.2505 139.047 31.7852C138.591 30.7091 138.007 29.6617 137.297 28.6583C133.625 23.4662 126.81 19.7658 119.07 18.758C109.831 17.5547 105.135 15.5648 103.545 14.7653C102.524 14.2512 101.383 13.963 100.236 13.9267L100 13.9232L99.7639 13.9267C98.6164 13.9631 97.4755 14.2512 96.4551 14.7653C94.865 15.5648 90.1687 17.5547 80.9296 18.758C73.1893 19.7653 66.3759 23.4661 62.7023 28.6583C61.9923 29.6617 61.4082 30.7092 60.9526 31.7852C59.3495 31.2504 58.0138 30.9804 57.0948 30.8468C55.5423 30.6183 53.9574 31.0584 52.7463 32.0552C51.5235 33.0625 50.7785 34.5527 50.7031 36.1454C50.5824 38.6844 50.3903 38.8466 48.8989 40.1058C47.4866 41.2973 45.4071 43.0523 43.3678 46.4947C38.029 51.0548 32.3628 59.6429 32.9109 69.9565C33.2315 76.0145 35.8652 84.4516 45.6911 92.7305C43.5934 94.0156 41.5217 95.5369 40.0926 97.1893C39.0308 98.416 38.5894 100.035 38.8828 101.629C39.1749 103.221 40.1614 104.575 41.5918 105.346C43.6778 106.466 44.9187 107.236 45.2432 107.479C46.3647 108.463 47.4888 109.194 48.596 109.712C47.7977 113.436 48.0275 118.253 51.3609 123.986C53.5299 127.716 53.5208 130.368 53.4157 131.336C53.1132 134.145 54.7292 136.869 57.3448 137.961C60.4886 139.273 61.1572 140.683 61.1857 140.744L61.2688 140.919C61.1961 141.311 61.165 141.713 61.1779 142.116L61.1988 142.808C61.3493 148.039 61.5557 155.205 72.2466 160.686C77.3116 163.284 79.3923 165.542 79.9116 166.175C80.4555 166.836 81.1395 167.341 81.8963 167.669C83.1475 173.312 87.3766 176.542 90.3673 178.825C92.387 180.367 94.1316 181.698 94.5937 183.151C95.3439 185.511 97.5156 187.096 100.001 187.096C102.486 187.096 104.659 185.509 105.405 183.151C105.867 181.699 107.613 180.367 109.633 178.825C112.622 176.541 116.853 173.312 118.104 167.667C118.859 167.339 119.545 166.834 120.09 166.171C120.607 165.541 122.687 163.283 127.752 160.685C138.444 155.204 138.651 148.039 138.8 142.808L138.821 142.118C138.834 141.713 138.803 141.311 138.73 140.919L138.814 140.741C138.842 140.682 139.51 139.273 142.654 137.961C145.27 136.87 146.886 134.146 146.583 131.334C146.478 130.367 146.469 127.715 148.638 123.985C151.971 118.251 152.202 113.435 151.403 109.712C152.511 109.194 153.635 108.463 154.754 107.479C155.08 107.236 156.322 106.465 158.412 105.344C159.839 104.575 160.824 103.221 161.116 101.629C161.409 100.033 160.968 98.4161 159.909 97.1907C158.478 95.5384 156.407 94.0157 154.308 92.7307C164.134 84.4518 166.768 76.0145 167.09 69.9565Z" fill="white"/>
<path d="M99.9865 18.9478V18.9492C99.5501 18.9517 99.1145 19.0512 98.7124 19.2537C96.5029 20.365 91.2684 22.4795 81.5785 23.7416C70.8746 25.1338 63.4614 32.2191 64.9836 39.3701C61.17 36.769 57.7487 36.0208 56.3621 35.818C56.0209 35.7677 55.7384 36.0383 55.723 36.3823C55.3349 44.5459 51.4248 42.1566 47.2763 49.788C38.3443 56.7894 28.5439 76.7594 55.3188 93.5018C55.3188 93.5018 47.0036 96.8791 43.8934 100.48C43.7724 100.62 43.8074 100.83 43.9696 100.914C44.8996 101.417 47.7119 102.948 48.523 103.669C52.2303 106.948 55.0951 105.515 56.3565 104.522C56.2761 104.655 56.1908 104.794 56.0943 104.955C54.3476 107.864 50.8522 113.108 55.7069 121.457C58.5416 126.338 58.6017 130.135 58.4136 131.876C58.3472 132.491 58.7045 133.085 59.2807 133.323C63.6956 135.169 65.2465 137.532 65.7612 138.665C65.8633 138.889 66.1954 138.882 66.2828 138.644C67.9064 134.274 65.8031 128.834 65.8031 128.834C65.8031 128.834 74.1743 135.498 66.4338 141.469C66.2835 141.581 66.194 141.763 66.2003 141.952C66.3716 147.266 66.1164 151.895 74.5393 156.216C80.2157 159.125 82.8378 161.817 83.795 162.984C83.9622 163.187 84.2964 163.068 84.2985 162.81C84.3181 161.446 84.0803 158.328 82.112 153.692C82.112 153.692 86.8206 158.985 86.578 163.593C86.055 173.536 97.1308 174.55 99.383 181.626C99.4669 181.892 99.7193 182.067 99.9983 182.067C100.278 182.067 100.53 181.892 100.614 181.626C102.865 174.55 113.941 173.536 113.417 163.593C113.179 158.985 117.885 153.692 117.885 153.692C115.913 158.328 115.682 161.446 115.696 162.81C115.703 163.068 116.032 163.187 116.2 162.984C117.157 161.817 119.78 159.125 125.457 156.216C133.883 151.895 133.624 147.266 133.799 141.952C133.799 141.763 133.715 141.581 133.561 141.469C125.821 135.498 134.198 128.834 134.198 128.834C134.198 128.834 132.093 134.274 133.715 138.644C133.799 138.882 134.135 138.889 134.24 138.665C134.75 137.532 136.302 135.169 140.715 133.323C141.295 133.085 141.652 132.491 141.582 131.876C141.4 130.135 141.456 126.338 144.288 121.457C149.147 113.108 145.651 107.864 143.903 104.955C143.805 104.794 143.721 104.655 143.637 104.522C144.903 105.515 147.763 106.948 151.476 103.669C152.287 102.948 155.098 101.417 156.028 100.914C156.189 100.83 156.224 100.62 156.105 100.48C152.993 96.8791 144.679 93.5018 144.679 93.5018C171.453 76.7594 161.65 56.7894 152.72 49.788C148.574 42.1566 144.658 44.5459 144.274 36.3823C144.26 36.0383 143.973 35.7677 143.637 35.818C142.246 36.0208 138.827 36.769 135.016 39.3701C136.54 32.2191 129.121 25.1338 118.423 23.7416C108.732 22.4795 103.494 20.365 101.285 19.2537C100.884 19.0512 100.447 18.9517 100.01 18.9492V18.9478H99.9983H99.9865ZM147.679 51.0718C147.763 51.0684 147.854 51.0977 147.938 51.1669C170.341 70.2042 144.337 88.4325 136.974 88.4115C138.547 85.272 137.533 82.8205 136.757 80.685C136.219 79.2026 138.484 78.316 139.917 78.3482C140.386 78.3587 140.666 77.8342 140.4 77.4497C137.771 73.671 134.617 72.7242 134.617 72.7242C134.617 72.7242 147.259 72.3767 149.497 62.2672C150.364 58.3613 148.979 54.5219 147.35 51.6466C147.196 51.3669 147.42 51.0802 147.679 51.0718ZM52.3177 51.0725C52.5765 51.0809 52.7988 51.3676 52.6401 51.648C51.0109 54.5219 49.6327 58.3627 50.4983 62.2686C52.7366 72.3781 65.3738 72.7242 65.3738 72.7242C65.3738 72.7242 62.2217 73.6696 59.5981 77.4483C59.331 77.8342 59.6065 78.3601 60.075 78.3496C61.5126 78.316 63.7774 79.2026 63.239 80.685C62.4629 82.8205 61.4497 85.272 63.023 88.4115C55.6566 88.4325 29.6501 70.2042 52.0597 51.1669C52.1408 51.0977 52.2317 51.0698 52.3177 51.0725ZM66.724 96.2779C66.8051 96.2709 66.889 96.2779 66.9715 96.3058C68.563 96.7533 72.8255 98.5923 72.3451 105.221C72.327 105.473 72.0368 105.599 71.8291 105.452C70.0831 104.207 63.6712 103.438 66.1737 96.7044C66.2632 96.4667 66.4821 96.3058 66.724 96.2779ZM133.264 96.2779C133.509 96.3058 133.726 96.4667 133.817 96.7044C136.32 103.438 129.908 104.207 128.16 105.452C127.957 105.599 127.663 105.473 127.649 105.221C127.167 98.5923 131.425 96.7533 133.02 96.3058C133.103 96.2779 133.187 96.2709 133.264 96.2779Z" fill="#003A63"/>
<path d="M74.1728 69.7061C73.914 69.7348 73.6819 69.9439 73.6728 70.2494C73.6197 72.1996 73.2554 76.1537 71.3577 79.5947C68.7167 84.3823 70.8626 88.9972 74.3287 91.1439C76.7494 92.6472 78.0423 95.7518 78.6017 97.4929C78.7506 97.9544 79.3855 98.0103 79.6247 97.5908C82.6635 92.2067 83.1103 88.2141 83.125 86.4171C83.1285 86.0185 82.7139 85.7318 82.3503 85.8996C79.8799 87.0604 77.9437 81.3071 77.7934 76.7886C77.6801 73.4148 75.8055 71.0382 74.6217 69.8655C74.4916 69.7362 74.328 69.6886 74.1728 69.7061ZM125.828 69.7061C125.668 69.6886 125.507 69.7362 125.374 69.8655C124.192 71.0382 122.318 73.4148 122.206 76.7886C122.053 81.3071 120.116 87.0604 117.647 85.8996C117.284 85.7318 116.871 86.0185 116.878 86.4171C116.892 88.2141 117.34 92.2067 120.374 97.5908C120.612 98.0103 121.249 97.9544 121.395 97.4929C121.955 95.7518 123.248 92.6472 125.675 91.1439C129.136 88.9972 131.282 84.3823 128.639 79.5947C126.744 76.1537 126.381 72.1996 126.325 70.2494C126.318 69.9439 126.087 69.7348 125.828 69.7061ZM90.3243 96.2203C89.7426 96.2273 89.2167 96.8146 89.2978 97.5838L90.3614 107.604C90.4404 108.352 89.5964 108.709 89.2454 108.079C87.928 105.695 85.9569 101.954 84.2228 98.6326C83.7487 97.7236 82.5782 97.9194 82.3314 98.9403C81.9678 100.437 81.5538 101.877 81.0819 103.15C81.007 103.359 80.977 103.576 81.0091 103.8C81.4224 106.716 82.6446 112.855 84.1452 118.4C84.8521 121.008 86.4233 123.211 88.5231 124.539L95.7357 127.483C98.3823 129.154 101.576 129.154 104.222 127.483L111.473 124.532C113.578 123.204 115.151 120.994 115.857 118.379C117.361 112.848 118.577 106.716 118.99 103.8C119.025 103.576 118.99 103.359 118.92 103.15C118.431 101.842 118.011 100.36 117.64 98.8214C117.396 97.7936 116.221 97.5978 115.746 98.5068C113.997 101.863 111.998 105.667 110.662 108.079C110.313 108.709 109.466 108.352 109.543 107.604L110.599 97.6607C110.711 96.6398 109.739 95.9336 108.991 96.493C107.544 97.5908 106.082 98.6466 104.754 99.8213C101.947 102.304 98.0662 102.311 95.2588 99.8283C93.8988 98.6256 92.394 97.5418 90.9054 96.4161C90.7187 96.2762 90.5187 96.2133 90.3243 96.2203ZM62.3474 106.373C62.2082 106.387 62.0803 106.541 62.1166 106.723C62.7522 109.841 65.5477 110.624 67.0616 112.491C67.9769 113.624 67.4951 115.351 67.0371 116.435C66.9266 116.701 67.1895 116.925 67.3853 116.736C69.8061 114.414 71.9045 109.918 72.3848 108.002C72.438 107.793 72.2639 107.625 72.0849 107.709C68.481 109.492 66.7749 108.618 65.726 108.303C64.5653 107.953 63.1899 106.96 62.4851 106.415C62.4418 106.387 62.3935 106.373 62.3474 106.373ZM137.655 106.373C137.606 106.373 137.557 106.387 137.515 106.415C136.809 106.96 135.438 107.953 134.277 108.303C133.228 108.618 131.522 109.492 127.914 107.709C127.739 107.625 127.565 107.793 127.614 108.002C128.096 109.918 130.194 114.414 132.613 116.736C132.816 116.925 133.075 116.701 132.963 116.435C132.508 115.351 132.026 113.624 132.942 112.491C134.452 110.624 137.249 109.841 137.885 106.723C137.92 106.541 137.794 106.387 137.655 106.373ZM114.363 131.741C114.202 131.734 114.035 131.748 113.874 131.783L101.913 133.993C100.521 134.251 99.092 134.251 97.7012 133.986L86.1219 131.783C85.4661 131.664 84.7829 131.825 84.2697 132.245C83.2432 133.084 82.4978 134.077 81.9636 135.119C81.4853 136.055 81.3958 137.139 81.6657 138.146C82.237 140.3 83.0845 142.565 84.3438 144.439L84.4158 144.516L85.7297 145.502C86.2541 145.894 86.9722 145.348 86.7093 144.754C86.0772 143.328 85.5206 141.419 85.6409 139.3L83.7292 137.468C83.4683 137.223 83.7103 136.79 84.0634 136.881C85.3619 137.209 87.5155 137.825 89.8118 138.796C92.1046 139.608 94.9211 140.922 96.9188 142.901C97.1062 143.083 97.2621 143.293 97.3956 143.516C97.9292 144.404 99.2682 146.782 99.2759 148.243C99.4213 148.236 99.5626 148.229 99.7087 148.229C100.054 148.229 100.393 148.243 100.727 148.257C100.724 146.803 102.071 144.411 102.609 143.523C102.742 143.293 102.896 143.083 103.085 142.901C104.91 141.097 107.42 139.859 109.587 139.055C112.105 137.936 114.531 137.237 115.936 136.881C116.293 136.79 116.531 137.223 116.272 137.468L114.356 139.307C114.496 141.426 113.951 143.335 113.314 144.761C113.049 145.362 113.776 145.908 114.3 145.509L115.587 144.537L115.657 144.46C116.915 142.586 117.768 140.321 118.335 138.167C118.608 137.153 118.517 136.076 118.041 135.14C117.503 134.084 116.748 133.084 115.713 132.238C115.335 131.923 114.853 131.755 114.363 131.741ZM99.9345 151.907L95.1001 152.599C94.9672 152.613 94.8637 152.711 94.8393 152.83L94.5169 154.417C94.4008 154.998 94.9378 155.508 95.5762 155.431L99.9737 154.886H100.058L104.427 155.424C105.07 155.508 105.616 154.984 105.483 154.396L105.126 152.823C105.098 152.704 104.993 152.613 104.868 152.599L99.9345 151.907Z" fill="#6B818D"/>
</svg>
