<svg width="200" height="200" viewBox="0 0 200 200" fill="none" xmlns="http://www.w3.org/2000/svg">
<path d="M165.208 113.68C167.008 110.791 166.83 107.441 166.368 104.208C166.042 101.921 165.05 98.3568 166.733 96.3502L169.716 92.7985L165.351 91.233C161.838 89.9734 158.523 90.8939 155.971 93.5328C153.299 96.2915 150.846 99.4659 147.478 101.444C147.417 101.113 147.386 100.776 147.371 100.465C150.78 96.7199 153.488 92.439 155.497 87.7965C157.152 83.9745 158.544 79.6809 158.579 75.487C158.61 72.1979 157.363 68.6232 153.697 68.0011C149.398 67.2693 146.139 71.6013 144.156 74.7577C142.248 77.7918 140.716 81.0427 139.569 84.434C139.064 84.0158 134.069 81.1551 134.069 81.1551L133.587 81.8155C128.342 78.817 121.981 81.6089 118.284 85.7088C120.464 79.5029 122.909 72.481 123.618 70.033L124.944 65.4537C124.944 65.4537 123.432 65.5532 121.341 65.8795V49.3471H138.261V20.4926H62.7164V49.3471H79.6359V83.4213C76.2347 84.4182 73.5091 85.8358 73.5091 85.8358L73.6518 86.333C73.2082 86.2131 69.9879 85.5578 69.9879 85.5578L69.7661 86.3279C65.86 84.7701 61.9743 86.3457 58.958 88.9974C60.7988 77.8123 63.1624 66.7514 65.6509 55.6989L44.6669 69.77C42.079 71.7307 40.9953 73.5639 41.2886 76.7637L43.953 91.5137L46.0973 89.5606C45.7734 92.5973 45.4981 95.4962 45.2661 98.2985C43.1141 92.2736 41.0999 85.7438 40.2126 81.5525L37.9178 70.706L28.5352 92.4908L29.2236 93.9339C33.1854 102.233 39.1718 112.567 44.3706 120.875L44.8729 121.678L48.7663 123.733L50.0157 123.029C49.1896 124.914 48.598 127.112 48.5496 129.592C57.7921 124.924 67.5343 121.216 77.6368 118.888C78.3022 118.738 78.9702 118.593 79.6382 118.45V150.65H62.7188V179.504H138.263V150.65H121.344V117.17C123.031 117.443 124.712 117.762 126.379 118.134C131.438 119.264 136.384 120.86 141.149 122.889C145.44 124.72 149.548 126.933 153.776 128.896C157.819 130.77 162.852 132.377 167.062 130.016C169.805 128.473 171.651 125.176 171.45 122.01C171.152 117.374 167.913 114.988 165.211 113.705" fill="black"/>
<path d="M66.8609 24.6347V45.2133H83.7776V82.8487L83.9874 84.4804C84.4565 84.1311 84.9485 83.8132 85.5018 83.5251C86.2896 83.1172 87.3092 82.8666 88.1787 82.7901C90.5422 82.5861 92.7294 83.6316 94.2949 85.3706L94.7158 85.9297C97.9463 81.1184 103.492 77.9571 108.808 79.6193C109.772 76.705 111.775 68.9209 111.775 68.9209C113.29 67.9546 115.256 67.2478 117.206 66.7353V45.2132H134.124V24.6345H66.8633L66.8609 24.6347ZM106.397 115.884C105.194 115.867 103.991 115.867 102.791 115.887C96.4164 115.989 90.0544 116.552 83.7774 117.636V154.772H66.8594V175.345H134.12V154.772H117.202V116.575C113.615 116.156 110.002 115.936 106.393 115.884L106.397 115.884Z" fill="#F1B300"/>
<path d="M60.2768 63.5406L46.7072 72.6255C44.8383 74.0406 44.6229 74.5741 44.7784 76.2773L46.2876 84.6062L50.703 80.5778C49.0993 93.0358 48.3065 103.053 47.9062 112.655L47.5622 112.844C44.3878 107.296 38.5086 90.4856 36.7671 82.2682L32.4014 92.4053C36.3126 100.587 42.2276 110.783 47.3576 118.985L48.7117 119.702C51.1619 118.318 52.4273 116.535 52.4273 116.535C52.6848 97.2498 60.2771 63.5419 60.2771 63.5419L60.2768 63.5406ZM120.519 69.1368C120.519 69.1368 117.304 69.453 114.619 71.0057C113.686 75.228 111.656 81.5326 110.577 84.3045C104.927 79.0776 94.0331 86.0157 95.0047 96.8925C94.3214 98.4632 93.2223 99.9418 91.8964 99.4547C90.5935 98.9754 91.8299 94.7531 92.0619 93.6669C92.4393 91.5022 93.1176 89.1719 91.8912 87.5299C90.6674 85.8853 88.4929 85.6971 86.8841 86.4416C83.8984 87.8184 82.8374 89.3687 82.8374 89.3687L82.4425 86.1692C81.3538 85.9066 78.5948 87.0478 77.5188 87.6419C78.2913 89.8882 77.8021 98.3082 77.2998 100.309C77.0194 101.431 76.5396 103.399 74.9995 103.856C71.4529 104.903 72.1594 101.105 73.4291 96.9746C74.0462 94.9655 74.9668 92.9707 75.7776 91.0304C73.975 89.5287 71.8587 89.198 71.8587 89.198L70.8213 91.2246C70.8213 91.2246 70.3516 89.2868 67.8733 88.7666C63.5975 87.8692 59.082 93.1219 58.1692 94.8072C57.0397 96.8929 56.7035 98.0599 56.1426 100.212C55.5536 102.461 56.1646 106.523 57.5592 108.42C58.546 109.756 59.8011 110.397 61.1575 110.667C65.9739 111.633 68.9446 106.599 68.9446 106.599C71.3081 108.741 73.7473 108.208 74.9279 107.999C80.0808 107.097 81.3453 102.79 81.7607 101.054C82.2375 99.0577 83.034 93.2163 83.034 93.2163C83.034 93.2163 84.3568 91.3752 86.4603 90.9239C89.0202 90.3782 87.5166 97.8741 87.3074 99.3482C87.1621 100.35 87.2584 103.588 90.2033 104.256C93.0819 104.909 94.8132 103.183 96.1696 101.166C96.1696 101.166 97.8836 105.016 102.274 103.459C104.227 102.765 105.828 101.22 106.588 100.103C106.325 100.493 108.229 103.092 110.473 103.41C113.619 103.857 115.489 103.196 117.623 101.062C117.722 101.921 118.126 103.599 121.155 104.698C125.775 106.376 129.435 102.043 129.435 102.043C129.864 104.422 130.866 106.181 134.106 106.77C138.219 107.517 140.641 104.649 140.641 104.649C141.039 106.487 142.107 108.512 143.782 109.233C147.007 110.618 150.08 108.366 152.382 106.826C154.335 105.523 157.25 102.301 157.25 102.301C157.806 103.564 158.523 105.511 158.441 107.122C158.367 108.601 157.971 109.973 157.168 111.294C156.094 112.503 154.346 112.982 152.885 110.417C152.885 110.417 152.585 110.506 152.429 110.75C150.971 113.05 153.836 114.983 155.853 115.789C159.988 117.433 165.636 119.682 163.137 122.574C161.711 124.226 158.805 123.392 153.502 120.59C150.649 119.081 133.337 108.031 105.063 108.031C82.5778 108.031 58.0068 115.44 51.936 125.064C72.4586 114.348 88.6252 112.635 105.155 112.635C114.752 112.78 129.003 113.545 145.351 121.212C155.731 126.082 158.805 128.453 163.502 127.816C166.99 127.344 168.351 124.106 168.226 122.196C167.803 115.577 158.137 115.583 157 113.862C161.424 114.803 162.951 111.89 163.364 109.57C164.141 105.177 160.756 98.4541 164.267 94.275C160.952 93.0894 159.191 94.6574 157.503 96.6691C156.121 98.3213 155.273 99.0987 152.956 101.274C151.763 102.395 147.989 105.634 146.248 105.014C143.955 104.195 144.109 100.096 144.152 99.1831C146.875 96.3861 149.539 92.7022 151.217 89.3215C152.999 85.7342 153.509 84.204 154.669 80.244C155.131 78.6658 156.328 72.5036 153.77 71.3739C150.942 70.1297 147.743 74.8823 145.932 78.0974C144.224 81.1264 143.207 83.5508 142.131 87.0235C141.243 89.8919 140.812 94.9153 140.756 97.9694C140.756 97.9694 138.336 103.412 135.139 102.561C131.564 101.612 133.239 97.2599 135.139 93.3791C136.064 91.4924 137.284 89.6641 138.388 87.8768C137.766 86.7447 135.037 85.3119 135.037 85.3119L133.693 87.1508C133.693 87.1508 133.578 85.0366 131.166 84.2615C125.639 82.4869 121.353 86.954 120.182 88.471C118.201 91.0386 117.095 94.0138 116.881 96.4689C115.925 98.0753 114.958 99.4549 112.446 99.3453C110.2 99.2458 111.266 96.0205 111.768 94.5545C113.222 90.3067 119.328 73.2419 120.519 69.1368ZM151.251 77.0046C151.139 78.0577 150.618 80.4576 150.399 81.1894C148.448 87.7166 145.909 91.057 144.774 92.7699C144.965 91.0438 145.537 86.5911 148.78 80.6836C149.492 79.3909 150.374 78.0092 151.251 77.0046ZM105.557 86.8275C105.708 86.811 105.847 86.8147 105.97 86.8393C109.701 87.5762 107.572 96.48 103.141 98.9503C101.751 99.7228 99.9944 99.9315 99.5075 97.5884C98.3099 91.8325 103.297 87.0764 105.557 86.8275ZM127.927 88.5805C128.074 88.5669 128.209 88.5729 128.329 88.5987C131.934 89.3763 129.718 97.9845 125.373 100.307C124.014 101.034 122.306 101.206 121.872 98.9219C120.806 93.3166 125.728 88.7846 127.927 88.5805ZM66.2976 93.6397C69.9513 94.1624 68.3393 102.907 64.1681 105.525C62.8601 106.346 61.1576 106.288 60.5763 104.389C58.7992 98.5678 64.3573 93.3615 66.2976 93.6397Z" fill="white"/>
</svg>
