<svg width="200" height="200" viewBox="0 0 200 200" fill="none" xmlns="http://www.w3.org/2000/svg">
<path d="M181.358 75.1812C181.911 75.1151 186.6 74.487 189.821 72.3665C189.85 72.3476 189.854 72.3098 189.826 72.2862C188.74 71.4456 170.878 57.4946 165.872 45.8578C165.868 45.8437 165.868 45.8248 165.872 45.8106C166.321 45.1305 177.665 27.8501 178.812 12.5484C178.812 12.5154 178.784 12.487 178.751 12.4965C177.594 12.8554 161.083 17.8332 135.878 18.1826C134.915 18.1968 133.956 18.0315 133.049 17.7151C130.164 16.7044 123.448 14.3997 120.496 13.8141C116.751 13.0632 100.571 19.4908 100.009 19.7128C100.009 19.7128 100.009 19.7128 100.004 19.7128H99.9949H99.9855C99.9855 19.7128 99.9854 19.7128 99.9807 19.7128C99.4187 19.4908 83.2387 13.0632 79.4935 13.8141C76.5418 14.4045 69.8261 16.7044 66.9405 17.7151C66.029 18.0315 65.075 18.1968 64.1116 18.1826C38.9064 17.8379 22.3958 12.8601 21.2387 12.5012C21.2056 12.4917 21.1773 12.5201 21.1773 12.5531C22.3296 27.8548 33.6689 45.1352 34.1176 45.8153C34.127 45.8295 34.127 45.8437 34.1176 45.8625C29.1209 57.4993 11.2548 71.4503 10.1733 72.2909C10.145 72.3098 10.1497 72.3523 10.1781 72.3712C13.4037 74.4917 18.0933 75.1198 18.6412 75.186C18.6695 75.186 18.6837 75.219 18.679 75.2474C10.4095 101.067 23.3592 122.05 24.1809 123.348C24.1998 123.377 24.2423 123.377 24.2612 123.348C26.5706 119.646 29.6735 116.774 30.0844 116.401C30.108 116.378 30.141 116.387 30.1552 116.415C30.4622 117.077 33.5792 123.542 40.8049 129.318C47.9977 135.075 51.9695 140.657 52.3945 141.271C52.4134 141.299 52.4559 141.299 52.4748 141.271C54.0144 139.169 54.4584 135.849 54.5198 135.306C54.5198 135.268 54.567 135.254 54.5953 135.273C67.8426 143.434 60.1351 157.305 59.6911 158.07C59.677 158.089 59.6911 158.112 59.7053 158.131C63.7338 161.229 68.0881 162.287 68.4093 162.363C68.4235 162.363 68.4329 162.372 68.4376 162.386C79.9327 181.91 99.3101 187.318 99.9713 187.497C99.9713 187.497 99.9713 187.502 99.9807 187.497C99.9807 187.497 99.9855 187.497 99.9902 187.497V187.492C99.9902 187.492 99.9902 187.497 99.9996 187.492C99.9996 187.492 100.004 187.492 100.009 187.492C100.67 187.308 120.048 181.896 131.543 162.377C131.547 162.368 131.562 162.358 131.571 162.353C131.892 162.278 136.247 161.22 140.275 158.122C140.294 158.108 140.303 158.084 140.289 158.06C139.85 157.295 132.138 143.42 145.385 135.264C145.413 135.245 145.456 135.264 145.461 135.297C145.527 135.84 145.971 139.165 147.506 141.262C147.524 141.29 147.567 141.29 147.586 141.262C148.011 140.652 151.978 135.065 159.175 129.308C166.396 123.528 169.513 117.067 169.825 116.406C169.839 116.378 169.872 116.368 169.896 116.392C170.307 116.765 173.41 119.636 175.719 123.339C175.738 123.367 175.781 123.372 175.799 123.339C176.626 122.04 189.576 101.052 181.301 75.2379C181.292 75.2096 181.306 75.1812 181.339 75.1765L181.358 75.1812Z" fill="#231F20"/>
<path d="M130.58 58.6057C125.73 61.1749 120.96 63.9471 116.294 66.9083C116.208 66.965 116.218 67.1114 116.308 67.1491C119.59 68.4762 122.768 68.2165 125.611 65.8457C127.581 64.2069 129.508 61.0285 130.736 58.7852C130.797 58.6766 130.684 58.5491 130.58 58.6057ZM113.946 145.754C113.46 146.09 112.728 146.444 112.43 146.585C112.364 146.614 112.293 146.567 112.293 146.496C112.048 137.074 109.224 134.264 108.463 133.678C108.392 133.626 108.298 133.678 108.312 133.768C109.021 138.547 107.004 147.804 106.324 148.144C105.634 148.489 102.876 149.636 100.005 149.636C97.1334 149.636 94.3753 148.489 93.6858 148.144C93.0057 147.804 90.9891 138.552 91.6975 133.768C91.7117 133.683 91.6125 133.622 91.5464 133.678C90.786 134.264 87.9619 137.074 87.7163 146.496C87.7163 146.567 87.6454 146.614 87.5793 146.585C87.2818 146.444 86.5498 146.09 86.0633 145.754C85.9878 145.702 85.8933 145.759 85.9075 145.849C86.0208 146.477 86.4553 148.243 87.943 149.636C89.7801 151.36 92.4248 153.773 100.01 153.773C107.594 153.773 110.239 151.36 112.076 149.636C113.564 148.243 113.998 146.477 114.112 145.849C114.126 145.759 114.027 145.707 113.956 145.754H113.946ZM119.505 110.683C119.113 111.019 117.946 111.949 117.252 111.751C116.407 111.514 103.75 105.705 100.005 105.705C96.255 105.705 83.5981 111.514 82.7574 111.751C82.0632 111.944 80.8967 111.019 80.5047 110.683C80.448 110.631 80.3535 110.669 80.3441 110.745C80.1599 112.053 79.3051 120.355 85.6477 128.138C85.7044 128.209 85.8272 128.176 85.8272 128.082C85.8461 126.306 85.983 116.346 86.4175 114.839C86.8898 113.182 95.3388 109.621 100.005 109.621C104.676 109.621 113.12 113.177 113.592 114.839C114.022 116.351 114.159 126.311 114.182 128.082C114.182 128.176 114.305 128.209 114.362 128.138C120.705 120.355 119.85 112.053 119.666 110.745C119.656 110.669 119.566 110.631 119.505 110.683ZM83.7114 66.9083C79.0454 63.9424 74.2754 61.1749 69.4252 58.6057C69.3213 58.5491 69.2079 58.6766 69.2693 58.7852C70.4972 61.0285 72.4241 64.2069 74.3935 65.8457C77.2365 68.2165 80.4102 68.4715 83.6972 67.1491C83.7917 67.1114 83.8011 66.965 83.7114 66.9083Z" fill="white"/>
<path d="M117.252 104.606C118.14 104.942 126.074 99.7371 126.277 94.9577C126.277 94.9199 126.239 94.8963 126.206 94.9105C125.455 95.2788 119.207 98.2683 113.455 99.3923C113.351 99.4112 113.233 99.3829 113.384 99.2506C114.938 97.9377 123.698 90.4805 125.365 87.7697C126.249 86.7779 120.765 87.0613 115.953 89.843C115.774 89.9469 115.613 89.9469 115.859 89.6918C116.506 89.0165 117.781 87.7319 119.259 86.4898C117.171 86.7307 114.919 87.1888 112.562 87.8594H112.543C112.198 88.9693 111.721 90.1972 111.103 91.1323C111.084 91.1653 111.032 91.1606 111.018 91.1276C110.81 90.6978 109.705 88.6765 107.962 89.6021C106.016 90.6317 101.775 95.0332 102.007 99.9921C102.125 101.05 116.359 104.261 117.256 104.606H117.252ZM124.841 27.4652C120.78 25.9161 117.54 24.8346 116.827 25.0377C114.612 25.6705 106.55 29.307 105.289 31.3614C105.039 31.7676 104.68 32.9341 104.269 34.5493C110.895 29.836 117.573 27.451 124.133 27.451C124.369 27.451 124.605 27.451 124.841 27.4605V27.4652ZM107.216 66.4702C109.686 65.1337 128.293 54.8665 132.1 50.4224C135.746 46.1719 134.688 41.9215 134.419 41.0619C134.301 41.5011 133.635 43.513 130.513 47.1637C124.666 53.9927 114.569 61.4972 107.221 66.4655L107.216 66.4702ZM117.592 73.611L117.63 73.5637C121.989 75.0372 126.91 75.2828 131.099 74.2249C135.179 73.1906 138.14 71.0654 139.231 68.3829C138.735 68.3073 134.187 67.5848 132.421 66.3616H132.412C131.788 66.8291 131.392 67.1975 131.325 67.3675C131.014 68.1845 134.013 70.0075 134.617 70.3617C134.655 70.3853 134.641 70.4231 134.603 70.4467C133.47 71.1788 124.799 74.0407 115.292 71.3488C115.259 71.3393 115.23 71.3582 115.235 71.3913C115.249 71.7549 115.41 73.7243 117.039 75.8212C116.931 75.075 117.12 74.2957 117.587 73.6251C117.587 73.6204 117.597 73.6157 117.597 73.611H117.592ZM175.2 69.0582C168.678 64.0049 154.694 45.7421 153.999 44.8354C153.98 44.8118 153.99 44.7881 154.013 44.774C164.46 37.4254 169.683 22.4733 170.208 20.91C169.863 21.4531 167.105 25.713 162.883 30.5208C157.419 36.7406 152.148 40.9297 147.217 42.9746C147.676 43.3052 150.07 45.5627 152.479 50.7671C153.999 54.0541 155.227 57.8701 156.125 62.1064C157.244 67.3864 157.82 73.337 157.9 79.7883C157.919 80.0905 157.919 80.407 157.933 80.7092C157.957 81.2854 157.99 81.8568 157.999 82.4425C158.014 83.3587 157.999 84.2938 157.971 85.2478C157.971 85.2714 157.957 85.2903 157.938 85.295C157.929 85.295 157.924 85.2903 157.914 85.2855C157.905 85.2855 157.891 85.2855 157.886 85.2761C157.589 84.8416 156.493 83.3067 155.001 81.7813C153.843 80.5959 152.446 79.4105 151.005 78.754C150.991 78.7493 150.972 78.754 150.963 78.754C150.948 78.7635 150.939 78.7776 150.939 78.7965C150.953 80.1661 150.901 99.2979 137.833 111.1C137.805 111.124 137.772 111.142 137.758 111.142C137.739 111.142 137.739 111.114 137.767 111.048C137.791 110.996 137.819 110.935 137.852 110.869C137.852 110.864 137.857 110.854 137.862 110.85C138.367 109.726 139.737 106.358 140.218 102.042L140.199 101.952C138.797 95.1702 135.76 90.5372 131.165 88.1711C131.944 90.5042 132.752 93.352 133.356 95.6378C133.994 98.1125 131.089 101.3 128.478 104.611C128.473 104.62 128.468 104.625 128.468 104.635C128.43 105.093 127.269 118.472 124.005 125.57C120.685 132.782 116.567 144.688 119.311 152.476C119.311 152.476 119.311 152.476 119.311 152.481C119.32 152.537 119.703 155.135 113.36 157.402C108.26 159.225 102.281 162.063 100.047 163.149C100.047 163.149 100.047 163.149 100.042 163.149C100.037 163.149 100.033 163.149 100.028 163.149C100.028 163.149 100.028 163.149 100.023 163.149C100.023 163.149 100.023 163.149 100.019 163.149C100.014 163.149 100.009 163.149 100.004 163.149C100.004 163.149 100.004 163.149 99.9996 163.149C97.7658 162.063 91.7868 159.225 86.6863 157.402C80.3436 155.135 80.7262 152.537 80.7356 152.481C80.7356 152.481 80.7356 152.481 80.7356 152.476C83.4795 144.688 79.3613 132.782 76.0412 125.57C72.7778 118.477 71.616 105.093 71.5782 104.635C71.5782 104.625 71.5782 104.62 71.5688 104.611C68.9571 101.3 66.0527 98.1125 66.6902 95.6378C67.2947 93.352 68.1023 90.5042 68.8816 88.1711C64.2864 90.5372 61.2496 95.1749 59.847 101.952L59.8281 102.042C60.3098 106.363 61.6794 109.73 62.1847 110.85C62.1847 110.859 62.1895 110.864 62.1942 110.869C62.2272 110.939 62.2556 111.001 62.2792 111.048C62.3123 111.114 62.3075 111.138 62.2886 111.142C62.2698 111.142 62.2367 111.128 62.2131 111.1C49.1453 99.2979 49.0933 80.1661 49.1075 78.7965C49.1075 78.7776 49.0981 78.7635 49.0839 78.754C49.0697 78.7446 49.0556 78.7446 49.0414 78.754C47.5962 79.4105 46.203 80.5911 45.046 81.7813C43.5583 83.3114 42.4626 84.8463 42.1604 85.2761C42.1509 85.2855 42.1415 85.2855 42.132 85.2855C42.1226 85.2855 42.1179 85.295 42.1084 85.295C42.0895 85.2903 42.0754 85.2714 42.0754 85.2478C42.0423 84.2938 42.0376 83.3587 42.047 82.4425C42.0565 81.8521 42.0848 81.2807 42.1131 80.7092C42.1273 80.4022 42.132 80.0905 42.1462 79.7883C42.2265 73.3323 42.8027 67.3864 43.922 62.1064C44.8193 57.8701 46.0472 54.0541 47.5679 50.7671C49.9765 45.5627 52.3662 43.3052 52.829 42.9746C47.8985 40.9297 42.6279 36.7406 37.1637 30.5208C32.9416 25.713 30.1835 21.4579 29.8388 20.91C30.363 22.4733 35.5863 37.4254 46.033 44.774C46.0566 44.7881 46.0614 44.8165 46.0472 44.8354C45.3529 45.7421 31.3689 64.0049 24.8469 69.0582C24.8091 69.0866 24.8327 69.1433 24.8799 69.1433H29.8907C29.9238 69.1433 29.9474 69.1716 29.938 69.1999C29.6026 70.2909 24.6674 86.5701 26.7454 101.513C26.7596 101.617 26.906 101.645 26.9532 101.551C27.7561 99.9732 31.4776 92.8702 35.2227 89.3282C35.2652 89.2857 35.3408 89.314 35.3455 89.3754C35.4635 91.3684 37.296 112.361 62.3264 123.804C62.3595 123.818 62.3973 123.799 62.3973 123.762C62.3784 123.27 62.18 120.423 60.0595 115.294C60.0359 115.237 60.0879 115.176 60.1445 115.195C61.6652 115.733 74.3222 121.155 71.8569 151.942C71.8569 151.961 71.8616 151.98 71.8805 151.989C72.0789 152.079 73.2737 152.551 75.1203 151.989C75.1439 151.98 75.1722 151.989 75.1817 152.018C75.4226 152.806 79.3471 164.627 100.033 174.101C100.037 174.101 100.042 174.101 100.052 174.101C100.052 174.101 100.052 174.101 100.056 174.101C100.056 174.101 100.056 174.101 100.061 174.101C100.066 174.101 100.07 174.101 100.08 174.101C120.765 164.632 124.69 152.811 124.931 152.018C124.94 151.994 124.964 151.985 124.992 151.989C126.839 152.547 128.034 152.074 128.232 151.989C128.251 151.98 128.26 151.961 128.256 151.942C125.79 121.155 138.447 115.733 139.968 115.195C140.025 115.176 140.077 115.237 140.053 115.294C137.933 120.423 137.734 123.27 137.715 123.762C137.715 123.799 137.753 123.818 137.786 123.804C162.817 112.361 164.649 91.3731 164.767 89.3754C164.767 89.314 164.843 89.2857 164.89 89.3282C168.635 92.8702 172.357 99.9732 173.159 101.551C173.207 101.645 173.353 101.621 173.367 101.513C175.44 86.5701 170.51 70.2909 170.175 69.1999C170.165 69.1669 170.189 69.1433 170.222 69.1433H175.233C175.28 69.1433 175.299 69.0866 175.266 69.0582H175.2ZM157.896 79.7883C157.896 79.7883 157.896 79.7788 157.896 79.7741C157.896 79.7741 157.896 79.7836 157.896 79.7883ZM68.9052 74.2249C73.0895 75.2875 78.0106 75.0372 82.3744 73.5637L82.4122 73.611C82.4122 73.611 82.4169 73.6204 82.4216 73.6251C82.8845 74.3005 83.0781 75.075 82.9695 75.8212C84.5941 73.7243 84.7547 71.7596 84.7736 71.3913C84.7736 71.3582 84.7452 71.3393 84.7169 71.3488C75.21 74.0407 66.5391 71.1788 65.4056 70.4467C65.3679 70.4231 65.3537 70.3806 65.3915 70.3617C65.996 70.0028 68.9949 68.1798 68.6832 67.3675C68.6218 67.1975 68.2204 66.8291 67.597 66.3568H67.5875C65.826 67.5895 61.278 68.3121 60.7774 68.3876C61.8683 71.0654 64.8295 73.1954 68.9099 74.2296L68.9052 74.2249ZM42.1037 79.7788C42.1037 79.7788 42.1037 79.7883 42.1037 79.793C42.1037 79.793 42.1037 79.7836 42.1037 79.7788ZM86.5493 99.3923C80.797 98.2683 74.5488 95.2788 73.7979 94.9105C73.7649 94.8963 73.7224 94.9199 73.7271 94.9577C73.9302 99.7418 81.8596 104.946 82.7522 104.606C83.6543 104.261 97.8886 101.05 98.0019 99.9921C98.2286 95.0332 93.9923 90.6317 92.0466 89.6021C90.3039 88.6765 89.1987 90.6978 88.9909 91.1276C88.9768 91.1606 88.9248 91.1653 88.9059 91.1323C88.2873 90.1972 87.8103 88.9693 87.4655 87.8642H87.4466C85.09 87.1888 82.8372 86.7307 80.7498 86.4898C82.228 87.7319 83.5031 89.0118 84.1501 89.6918C84.3957 89.9469 84.2399 89.9469 84.0557 89.843C79.2432 87.0613 73.7602 86.7779 74.6433 87.7697C76.3104 90.4805 85.0711 97.9377 86.6249 99.2506C86.776 99.3782 86.6579 99.4112 86.554 99.3923H86.5493ZM67.8992 50.4224C71.7058 54.8665 90.3133 65.1289 92.7833 66.4702C85.43 61.4972 75.3328 53.9975 69.4908 47.1684C66.3691 43.5177 65.7032 41.5059 65.5851 41.0666C65.3206 41.9215 64.258 46.1719 67.904 50.4271L67.8992 50.4224ZM95.7303 34.5493C95.3194 32.9388 94.9605 31.7676 94.7102 31.3614C93.4492 29.3023 85.3875 25.6658 83.1725 25.0377C82.4594 24.8346 79.2196 25.9114 75.1581 27.4652C75.3942 27.4605 75.6303 27.4557 75.8665 27.4557C82.4264 27.4557 89.1043 29.8407 95.7303 34.554V34.5493Z" fill="white"/>
<path d="M170.245 20.8143C170.226 20.7718 170.188 20.7529 170.146 20.7671C159.704 24.4272 140.473 26.7886 139.66 26.883C139.632 26.883 139.604 26.9066 139.594 26.9303C139.585 26.9586 139.585 26.9869 139.604 27.0153C142.168 30.307 144.955 35.0722 145.488 35.9932C145.493 36.0026 145.488 36.0073 145.488 36.0121C145.484 36.0168 145.479 36.0121 145.474 36.0121C144.223 35.4642 133.03 30.5573 124.954 27.4687H124.944C124.675 27.4592 124.401 27.4545 124.132 27.4545C117.563 27.4545 110.871 29.8489 104.235 34.5764L104.226 34.5858V34.6C103.872 35.9696 103.461 37.7642 102.988 39.9272C102.984 39.9555 102.988 39.9839 103.007 40.0028C103.026 40.0217 103.055 40.0311 103.078 40.0311C105.628 39.7619 108.183 38.9779 110.087 37.887C112.878 36.2813 113.407 34.5669 113.355 33.4098C113.355 33.4098 113.355 33.3957 113.36 33.3957C113.7 33.3768 116.788 33.2587 120.633 34.0191C125.629 35.0109 129.625 36.9897 132.51 39.8989C132.515 39.9036 132.51 39.913 132.51 39.9178C132.51 39.9178 132.501 39.9272 132.496 39.9272C131.405 39.658 121.69 37.3297 117.161 38.2554C117.133 38.2601 117.114 38.279 117.1 38.3026C117.024 38.4868 116.288 40.1539 113.992 42.0335C111.003 44.4799 106.823 46.1801 101.562 47.0869C101.529 47.0916 101.501 47.1199 101.496 47.153C100.726 50.9973 100.126 54.2087 100.013 54.8133C100.013 54.8133 100.013 54.8227 100.008 54.8227H99.9942C99.9942 54.8227 99.9895 54.818 99.9895 54.8133C99.8762 54.2087 99.2764 51.002 98.5066 47.153C98.5018 47.1199 98.4735 47.0916 98.4404 47.0869C93.1793 46.1801 88.995 44.4799 86.0102 42.0335C83.715 40.1539 82.9782 38.4868 82.9027 38.3026C82.8932 38.279 82.8696 38.2601 82.8413 38.2554C78.3122 37.3297 68.6023 39.658 67.5066 39.9272C67.5019 39.9272 67.4924 39.9272 67.4924 39.9178C67.4924 39.9178 67.4877 39.9083 67.4924 39.8989C70.378 36.9897 74.3781 35.0109 79.3701 34.0191C83.2144 33.254 86.303 33.3768 86.6431 33.3957C86.6478 33.3957 86.6478 33.4051 86.6478 33.4098C86.6006 34.5669 87.1248 36.2813 89.9159 37.887C91.8239 38.9827 94.3789 39.7619 96.9244 40.0311C96.9481 40.0311 96.9764 40.0264 96.9953 40.0028C97.0142 39.9839 97.0189 39.9555 97.0142 39.9272C96.5466 37.7642 96.131 35.9696 95.7815 34.6V34.5858L95.7674 34.5764C89.132 29.8489 82.4398 27.4545 75.8705 27.4545C75.6013 27.4545 75.3274 27.4545 75.0582 27.4687H75.0488C66.9682 30.562 55.7753 35.469 54.5285 36.0168C54.5285 36.0168 54.5191 36.0168 54.5144 36.0168C54.5144 36.0168 54.5096 36.0073 54.5144 35.9979C55.048 35.077 57.8297 30.3165 60.3989 27.02C60.4178 26.9964 60.4225 26.9633 60.4083 26.935C60.3989 26.9066 60.3705 26.8878 60.3422 26.8878C59.5299 26.7886 40.2989 24.4319 29.857 20.7718C29.8145 20.7577 29.7767 20.7765 29.7578 20.8191V20.8379V20.8521C29.7861 20.8946 32.6198 25.3954 37.1205 30.5195C42.5847 36.7394 47.8553 40.9284 52.7858 42.9734C52.3277 43.304 49.9333 45.5614 47.5247 50.7659C46.004 54.0529 44.7761 57.8689 43.8788 62.1051C42.7595 67.3852 42.1833 73.3358 42.103 79.787C43.6568 54.1332 65.4853 41.0559 65.5136 41.0371C65.5419 41.0229 65.5703 41.0371 65.5797 41.0607C65.6978 41.5093 66.3684 43.5165 69.4854 47.1577C75.3321 53.9868 85.4246 61.4865 92.7779 66.4595C92.7779 66.4595 92.7779 66.4595 92.7826 66.4595C92.7826 66.4595 92.8062 66.4973 92.7968 66.5209C89.9679 72.7454 83.9086 75.7397 82.9688 75.9427C82.9263 75.9522 82.8979 75.9002 82.9263 75.8625C82.9405 75.8483 82.9499 75.8294 82.9641 75.8152C83.0727 75.069 82.8838 74.2898 82.4162 73.6144C82.4162 73.6097 82.4068 73.605 82.4068 73.6003L82.369 73.553C78.0099 75.0265 73.0888 75.2721 68.8998 74.2142C64.8193 73.1799 61.8582 71.0547 60.7672 68.3722C61.2631 68.2966 65.8111 67.5741 67.5774 66.3509H67.5869C64.876 64.2776 57.9147 60.2349 55.9784 62.1713C53.8437 64.3059 52.0774 69.4443 51.7374 70.488C51.7232 70.5352 51.7799 70.5683 51.813 70.5305C53.5934 68.7595 56.8663 67.6166 57.4708 67.4182C57.5086 67.404 57.5416 67.4465 57.5275 67.4843C54.5805 74.337 55.9264 83.5558 56.0823 84.5334C56.087 84.5712 56.1342 84.5853 56.1626 84.557C64.314 77.284 72.1349 78.0916 73.2636 78.2569C73.3108 78.2616 73.3155 78.323 73.273 78.3466C60.6822 84.8734 58.9773 94.8148 59.7896 102.059L59.8133 101.951C61.2159 95.1737 64.2526 90.536 68.8431 88.1699C68.9423 87.8771 69.0367 87.589 69.1359 87.3151C70.6283 83.0788 73.1455 82.1578 76.6876 83.7683C78.0147 84.3681 79.4551 85.4165 80.7397 86.4933C82.8271 86.7342 85.0798 87.1923 87.4365 87.8629H87.4554C87.0634 86.6161 86.8461 85.5299 86.7895 85.2229C86.7848 85.1851 86.8178 85.1568 86.8556 85.1709C87.8663 85.5629 98.0579 89.4734 99.9848 89.4875C99.9848 89.4875 99.9942 89.4875 99.9989 89.4875C99.9989 89.4875 100.008 89.4875 100.013 89.4875C101.94 89.4734 112.132 85.5582 113.142 85.1709C113.18 85.1568 113.213 85.1851 113.208 85.2229C113.152 85.5251 112.93 86.6161 112.543 87.8676H112.561C114.918 87.1923 117.171 86.7342 119.258 86.4933C120.543 85.4165 121.983 84.3634 123.31 83.7683C126.852 82.1626 129.374 83.0788 130.862 87.3151C130.956 87.589 131.056 87.8771 131.155 88.1699C135.745 90.536 138.782 95.1737 140.185 101.951L140.208 102.059C141.021 94.8148 139.316 84.8734 126.725 78.3466C126.682 78.323 126.687 78.2616 126.734 78.2569C127.868 78.0916 135.684 77.284 143.835 84.557C143.864 84.5806 143.911 84.5712 143.916 84.5334C144.071 83.5558 145.417 74.3417 142.47 67.4843C142.456 67.4465 142.485 67.4088 142.527 67.4182C143.132 67.6166 146.404 68.7595 148.185 70.5305C148.223 70.5683 148.279 70.5305 148.26 70.488C147.916 69.449 146.149 64.3059 144.02 62.1713C142.083 60.2349 135.127 64.2823 132.411 66.3462H132.42C134.182 67.5788 138.73 68.3014 139.231 68.3769C138.14 71.0547 135.179 73.1847 131.098 74.2189C126.914 75.2816 121.993 75.0312 117.629 73.5578L117.591 73.605C117.591 73.605 117.586 73.6144 117.582 73.6192C117.119 74.2945 116.925 75.069 117.034 75.82C117.048 75.8341 117.057 75.853 117.072 75.8672C117.1 75.905 117.072 75.9569 117.029 75.9475C116.089 75.7444 110.03 72.7502 107.201 66.5256C107.192 66.502 107.196 66.4784 107.215 66.4689C107.215 66.4689 107.215 66.4689 107.22 66.4689C114.573 61.5006 124.666 53.9962 130.512 47.1672C133.625 43.5307 134.295 41.5188 134.418 41.0701C134.428 41.0465 134.456 41.0323 134.484 41.0465C134.513 41.0607 156.341 54.1426 157.895 79.7965C157.815 73.3405 157.238 67.3899 156.119 62.1146C155.222 57.8783 153.994 54.0623 152.473 50.7753C150.065 45.5709 147.675 43.3134 147.212 42.9828C152.143 40.9379 157.413 36.7488 162.877 30.529C167.378 25.4048 170.212 20.9041 170.24 20.8616L170.25 20.8474V20.8285L170.245 20.8143ZM99.9989 63.248C84.7068 60.9575 80.7586 50.4022 80.4138 48.9382C80.4091 48.9146 80.4185 48.8957 80.4374 48.8862C80.4516 48.8768 80.4752 48.8815 80.4894 48.8957C85.3349 53.5665 94.5961 57.9255 99.9989 57.9491C105.402 57.9255 114.658 53.5665 119.509 48.8957C119.527 48.8815 119.546 48.8768 119.56 48.8862C119.579 48.8957 119.589 48.9146 119.584 48.9382C119.239 50.4022 115.291 60.9528 99.9989 63.248Z" fill="#F47920"/>
</svg>
