<svg width="201" height="201" viewBox="0 0 201 201" fill="none" xmlns="http://www.w3.org/2000/svg">
<path d="M168.461 102.374C166.989 100.165 165.347 98.2402 163.761 96.4848C162.912 95.5788 162.119 94.6727 161.383 93.8233C161.723 93.1438 161.949 92.4643 162.063 91.8981C162.233 91.1619 162.346 90.086 162.346 89.4065C162.402 88.6138 162.459 84.2536 162.459 84.2536L160.874 85.103C160.874 84.1403 160.874 83.2343 160.76 82.3283C159.911 73.0983 153.739 66.3032 147.283 61.5466C143.999 59.1117 140.601 57.1298 137.487 55.4876C134.429 53.9021 131.598 52.5997 129.503 51.6371C108.268 41.7276 89.5249 38.1601 67.9505 27.6277C63.024 25.1928 57.1915 22.3049 53.2844 18.964L50.1133 16.2459L49.4338 18.3411L45.6399 15.5664C45.6399 15.5664 43.7712 24.3434 44.9604 28.8169C42.4122 27.741 39.9773 26.4386 39.9773 26.4386C39.9773 26.4386 39.3544 34.8192 41.4496 39.0661L37.0327 37.0276C37.0327 37.0276 37.5424 45.9745 39.6375 49.8251L36.2966 48.8058C36.2966 48.8058 35.5605 56.4503 39.0146 60.1876C36.8629 60.0743 36.0701 60.0743 36.0701 60.0743C36.0701 60.0743 36.693 63.1321 36.9761 63.6418L37.4291 64.8875C39.3544 70.3236 43.4315 73.4947 47.8483 75.5332C40.9965 79.6103 35.3906 85.8391 31.2003 91.9547L27.7461 97.3342L33.8051 97.4474C49.6603 97.504 61.0421 106.621 74.1227 119.928L74.4624 120.268C87.4864 133.008 101.133 161.888 106.286 179.895L108.155 185.444L113.138 179.328C119.707 171.457 130.409 153.45 130.239 141.332C133.636 141.559 139.016 141.842 142.923 141.559C149.095 141.106 157.023 139.067 160.251 138.275C160.93 138.954 161.61 140.2 161.61 140.596L162.289 147.278L166.932 142.465C173.275 135.953 173.954 128.818 174.011 120.834C174.067 112.85 171.576 106.961 168.461 102.374Z" fill="white"/>
<path d="M166.593 103.62C165.177 101.468 163.592 99.6561 162.119 97.9573C160.874 96.5416 159.684 95.2392 158.665 93.9935C159.345 93.1441 159.741 92.1248 159.911 91.3321C160.194 90.2562 160.194 87.9345 160.194 87.9345C160.194 87.9345 159.118 88.5008 158.495 88.7839C158.609 87.5381 158.778 84.6502 158.552 82.4418C157.759 74.1744 152.21 67.8889 145.981 63.2456C142.867 60.924 139.526 58.9987 136.468 57.3565C133.41 55.771 130.635 54.5252 128.597 53.5626C107.306 43.6531 88.2792 39.9158 67.0445 29.4966C62.288 27.1749 56.2856 24.2304 52.2086 20.7196L51.2459 19.8702L50.6797 21.7389L49.4339 20.7762L47.2255 19.2473L46.9424 20.663C46.4327 23.6641 46.546 28.987 47.905 32.7243C47.5652 32.4978 47.1689 32.2713 46.7725 32.0448C46.1496 31.705 45.5833 31.3653 45.0737 31.1387C44.7906 31.0255 42.5255 29.7797 42.3557 29.893C41.7328 30.2894 42.1858 31.4219 42.3557 32.3845C42.9786 36.9146 43.9978 41.0483 45.4135 43.4832C45.4135 43.4832 40.3738 40.7651 40.0906 40.7651C39.6943 40.8218 39.8075 41.6712 39.8641 42.1808C40.3171 45.1253 40.8834 46.8807 41.6762 49.0891C42.1858 50.5614 42.8653 52.0337 43.8846 53.2795C43.9412 53.2795 43.9978 53.3361 43.8846 53.2795C43.3183 53.053 38.7882 51.8072 38.7882 51.8072C38.7882 51.8072 38.5617 52.6 38.8449 54.0156C39.5244 57.9794 41.3364 60.0746 43.6014 62.5095C43.6014 62.5095 38.9015 61.8866 38.8449 62.1131L39.581 64.0384C41.846 70.4937 47.5652 73.3816 53.511 75.2503C45.0171 78.7611 38.1654 85.9526 33.1257 93.2573L31.8799 95.126L33.8052 95.1826C50.6797 95.2392 62.6277 105.036 75.7083 118.343C75.8216 118.456 76.0481 118.682 76.0481 118.682C89.4684 131.82 103.228 161.038 108.438 179.215L108.948 180.801L111.326 177.856C117.838 169.985 128.087 152.658 127.917 141.446L128.031 138.898C130.579 139.124 137.77 139.634 142.753 139.294C149.605 138.785 158.609 136.293 160.647 135.84C162.346 136.689 163.705 139.294 163.818 140.427L163.988 142.239L165.29 140.936C171.01 135.104 171.633 128.762 171.689 120.891C171.746 113.36 169.481 107.923 166.593 103.62Z" fill="black"/>
<path d="M137.317 93.9375C137.261 94.3905 137.204 94.617 137.374 95.9194C137.77 98.4109 138.79 99.2037 139.696 100.393C141.621 102.262 144.792 101.469 144.792 101.469C142.923 100.733 140.545 99.7133 140.602 97.1652V95.5797C140.602 95.2399 140.998 94.2206 140.998 94.0508H140.828L137.317 93.9375Z" fill="#E31837"/>
<path d="M143.603 90.255C142.754 89.4623 141.621 88.443 141.112 87.99C141.112 87.99 140.036 88.896 139.413 89.5755C138.847 90.1984 138.167 91.3309 138.167 91.3309C138.847 91.6707 139.809 92.3502 140.602 92.8598C140.715 92.9731 140.885 93.0863 140.998 93.1429L141.281 93.3694C141.225 93.1429 141.734 92.3502 142.131 91.7839C142.64 91.1044 143.603 90.255 143.603 90.255Z" fill="#E31837"/>
<path d="M103.116 96.1447L89.129 86.9147L102.663 89.5761C96.547 86.1219 84.6556 77.4582 84.6556 77.4582C84.6556 77.4582 97.7928 80.969 101.587 81.875L94.0555 75.2498C96.7735 75.5329 107.079 74.0606 107.079 74.0606L93.2627 61.0367C91.2808 58.6584 88.5061 56.6198 86.7507 54.2416L130.409 73.7775C133.184 73.1546 136.015 73.2112 138.563 73.2112C145.245 77.4582 148.416 83.9701 153.456 89.2364C154.532 88.2171 154.362 85.6123 154.419 83.2906C154.702 71.4558 132.108 59.3945 132.108 59.3945C128.71 57.5259 121.293 54.4681 121.293 54.4681C102.04 47.2766 85.9013 42.0104 63.7606 32.4972C57.0221 29.6093 53.7945 24.7395 52.2089 23.7202L52.0391 26.4383C52.1523 34.0261 57.7583 40.4815 63.8739 44.3887C63.8739 44.9549 56.6824 40.4815 52.3222 37.6502C50.9066 36.7442 49.3777 35.8382 48.6981 35.2719C48.0753 40.9911 52.662 45.3513 56.739 48.6922C59.1173 50.6175 62.345 52.1464 61.892 52.656C56.9089 50.1079 51.7559 47.7862 46.4331 45.9176C45.244 52.4295 61.3823 60.6403 61.3823 60.6403C56.6824 59.2246 51.3596 58.1487 46.8295 56.2801C46.8295 56.2801 47.5656 60.3005 53.568 64.5475C56.286 66.4727 61.5522 67.6053 61.5522 67.6053C56.3993 67.6619 52.0391 67.039 46.6596 66.3029C47.056 68.851 49.4909 69.9836 51.5861 70.8896C51.5861 70.8896 59.7968 73.6076 64.1004 74.2305C64.1004 74.2305 70.216 75.363 69.763 75.7028C54.9836 78.8738 51.8126 82.9509 41.7898 90.4255L40.8271 91.3881C44.1681 91.5014 47.2825 92.5207 51.1897 94.0496C57.1354 96.3712 60.0233 98.8061 65.2329 102.543C76.5014 110.698 86.2411 123.948 90.0917 128.082C91.6206 125.647 102.606 107.017 102.323 105.884L96.8301 102.77L102.436 101.637C102.436 101.637 92.4133 96.2013 89.8651 94.2194C91.3374 93.8797 104.475 96.8242 103.116 96.1447ZM88.1664 64.8306C88.5628 64.8306 95.4711 69.1908 98.812 70.6631L91.4507 72.2486C90.941 71.3426 87.8266 64.8306 88.1664 64.8306ZM61.6655 37.8201C58.9474 35.3285 57.1354 32.9502 55.8896 30.3454C55.5499 29.6659 61.1558 35.2153 71.0654 39.4056C76.4448 41.6706 85.1086 44.5019 85.1086 44.5019C85.1086 44.5019 68.6871 44.2188 61.6655 37.8201ZM62.0052 84.14C58.2113 87.0279 53.1716 92.5773 53.1716 92.5773C53.1716 92.5773 47.4524 89.9159 47.4524 89.4062C47.4524 88.2737 51.8692 85.499 52.1523 85.4424C60.1366 80.0063 73.9533 77.3449 73.9533 77.3449C69.9895 79.6666 66.2522 80.9123 62.0052 84.14ZM69.7063 52.0332C64.2136 50.9573 60.7028 49.8247 56.7956 45.8609C55.1535 44.1622 52.7186 40.5381 53.2848 40.9911C59.3438 44.5585 64.4401 48.0127 71.2919 49.8247C73.387 50.391 78.2002 51.297 80.2954 52.0332C80.2388 52.0332 73.7268 52.8259 69.7063 52.0332ZM92.8663 110.698L99.0952 108.433L91.5639 121.853C91.5639 118.908 92.8663 110.698 92.8663 110.698Z" fill="#E31837"/>
<path d="M160.193 102.426C160.193 102.426 156.003 97.5 153.002 95.235C153.002 95.235 151.19 102.426 147.736 105.145C145.414 106.957 143.659 108.769 140.827 108.032C137.203 107.07 136.071 104.295 136.071 104.295C133.636 97.3301 126.897 94.4422 119.536 95.0085C115.233 95.2916 112.061 95.9145 109.343 99.3121C97.3387 114.318 114.157 130.909 130.465 134.194C135.788 135.269 144.338 134.986 144.338 134.986C146.377 135.213 157.249 132.665 159.174 131.815C151.473 127.059 111.439 109.335 111.269 109.165L110.306 108.825C109.627 109.958 109.74 111.656 109.91 112.959H109.174L108.777 110.864L108.721 109.618C108.89 98.9723 123.726 99.3121 130.748 103.502C130.578 103.616 128.313 103.332 126.784 103.502C125.312 103.672 123.103 104.295 123.103 104.295C128.2 106.447 144.904 122.812 159.344 129.38C162.175 130.683 165.403 135.722 165.403 135.722C166.139 134.137 167.951 130.06 168.461 126.209C169.707 116.356 165.46 107.466 160.193 102.426ZM151.869 107.579C151.247 107.749 150.737 107.863 150.171 107.523C149.661 107.24 149.491 106.843 149.265 106.334C148.698 104.748 150.454 103.389 151.7 102.879C152.153 102.596 152.662 102.993 152.662 102.993C152.662 102.993 150.624 104.635 151.247 105.654C151.926 106.843 154.248 103.842 154.248 103.842C154.248 103.842 153.568 107.126 151.869 107.579ZM166.649 126.039C166.649 126.039 165.969 130.117 165.346 131.702L163.364 128.871C164.044 127.568 164.44 123.774 164.384 120.49C164.384 115.677 162.628 112.393 162.005 108.316C165.177 113.865 166.932 119.641 166.649 126.039Z" fill="#FFE512"/>
<path d="M151.813 93.4298C153.002 93.09 154.305 93.0334 155.154 92.0708C150.511 91.2214 148.019 86.1817 144.056 82.1612C141.394 79.4998 139.865 76.5553 136.638 76.0457C132.447 77.348 127.577 77.4613 124.689 80.5191C125.992 80.0661 127.521 79.4432 128.597 79.4432L133.127 79.2167C135.505 79.2733 141.677 85.1058 142.017 85.5022C144.962 87.8238 147.623 93.0334 151.813 93.4298Z" fill="white"/>
<path d="M120.895 105.263C120.895 105.263 118.574 104.81 117.215 105.206C115.403 105.716 113.761 106.452 113.251 108.038C119.593 111.265 126.898 112.907 133.75 116.078C133.636 115.739 130.748 113.021 129.729 112.058C129.446 111.775 128.03 112.964 127.634 112.964C127.238 112.964 127.294 112.738 127.011 112.624C127.011 112.624 128.483 111.888 129.389 111.322C128.993 111.322 126.728 108.944 126.728 108.944C126.728 108.944 122.424 110.303 122.085 110.303C121.688 110.303 121.462 110.303 121.179 110.189V109.85C122.594 109.453 124.406 108.887 125.935 108.434L125.652 108.094C125.199 107.698 123.727 106.565 122.877 106.509C121.009 106.452 118.574 108.491 116.932 108.491C116.535 108.491 116.365 108.207 116.196 107.981C118.121 107.245 121.801 105.659 121.801 105.659C121.462 105.603 121.235 105.263 120.895 105.263Z" fill="white"/>
<path d="M114.214 150.848L113.987 151.188C112.628 154.868 109.967 158.039 107.022 160.531C108.325 163.985 110.647 170.78 110.647 170.78C115.516 164.438 123.104 153.283 123.331 140.259V137.201C122.311 137.654 119.707 138.05 118.914 138.277C118.008 142.807 115.856 146.601 114.214 150.848Z" fill="white"/>
<path d="M140.602 92.8645C139.866 92.3549 138.903 91.6754 138.167 91.3357C138.167 91.3357 138.903 90.2031 139.413 89.5802C140.036 88.9007 141.112 87.9947 141.112 87.9947L140.998 87.8815C140.206 87.0321 139.979 86.4658 138.62 85.5032C137.204 84.7104 135.959 83.861 134.656 82.955L134.09 82.7285C133.637 83.6345 132.788 85.8996 132.505 87.9947C132.278 89.5236 132.448 91.9585 132.448 91.9585C132.618 92.8079 132.731 93.8272 133.014 94.5633C133.75 96.3187 135.732 97.5079 137.261 99.5464C138.563 101.245 138.62 102.887 140.375 104.133C140.885 104.529 141.565 104.813 141.904 104.813C143.773 104.869 145.755 102.774 146.661 101.415H144.792C144.792 101.415 141.678 102.208 139.696 100.339C138.733 99.15 137.714 98.4139 137.374 95.8657C137.204 94.5067 137.204 94.3368 137.318 93.8838L140.772 93.9971H140.942L142.074 93.9404L141.282 93.3742L140.998 93.1477L140.602 92.8645Z" fill="white"/>
<path d="M118.121 179.498C118.121 178.818 117.725 178.762 117.158 178.762H115.969V181.253H116.536V180.234H116.932L117.498 181.253H118.121L117.498 180.234C117.895 180.121 118.121 179.951 118.121 179.498ZM117.158 179.781H116.479V179.158H116.989C117.215 179.158 117.555 179.158 117.555 179.385C117.612 179.724 117.442 179.781 117.158 179.781ZM116.932 177.629C115.63 177.629 114.554 178.705 114.554 180.007C114.554 181.31 115.63 182.386 116.932 182.386C118.234 182.386 119.31 181.31 119.31 180.007C119.254 178.705 118.234 177.629 116.932 177.629ZM116.932 181.819C115.913 181.819 115.12 181.083 115.12 180.007C115.12 178.932 115.913 178.195 116.932 178.195C117.951 178.195 118.744 178.932 118.744 180.007C118.687 181.083 117.951 181.819 116.932 181.819Z" fill="black"/>
</svg>
