<svg width="201" height="201" viewBox="0 0 201 201" fill="none" xmlns="http://www.w3.org/2000/svg">
<g clip-path="url(#clip0_15016_302088)">
<path d="M156.84 63.3055V19.7656H44.8857V63.3055H69.7656V137.942H44.8857V181.48H156.84V137.94H131.964V63.3038L156.84 63.3055Z" fill="#13294B"/>
<path fill-rule="evenodd" clip-rule="evenodd" d="M161.84 68.3058L136.964 68.3041V132.94H161.84V186.48H39.8857V132.942H64.7656V68.3055H39.8857V14.7656H161.84V68.3058ZM131.964 63.3038L156.84 63.3055V19.7656H44.8857V63.3055H69.7656V137.942H44.8857V181.48H156.84V137.94H131.964V63.3038Z" fill="white"/>
<path d="M131.963 57.0835H150.621V25.9854H51.1035V57.0835H69.7651C71.4144 57.0844 72.9957 57.7401 74.1617 58.9064C75.3277 60.0727 75.983 61.6543 75.9834 63.3035V137.94C75.983 139.589 75.3278 141.171 74.1618 142.338C72.9959 143.504 71.4145 144.16 69.7651 144.162H51.1035V175.26H150.623V144.16H131.963C130.313 144.16 128.731 143.505 127.564 142.338C126.398 141.172 125.742 139.59 125.742 137.94V63.3035C125.742 62.4865 125.902 61.6776 126.215 60.9228C126.528 60.1681 126.986 59.4823 127.564 58.9047C128.142 58.3271 128.828 57.869 129.582 57.5565C130.337 57.244 131.146 57.0833 131.963 57.0835Z" fill="#FF5F05"/>
</g>
<defs>
<clipPath id="clip0_15016_302088">
<rect width="200" height="200" fill="white" transform="translate(0.863281 0.621094)"/>
</clipPath>
</defs>
</svg>
