<svg width="201" height="201" viewBox="0 0 201 201" fill="none" xmlns="http://www.w3.org/2000/svg">
<g clip-path="url(#clip0_15016_302749)">
<path d="M93.3302 163.612L140.983 132.042L200.281 112.002C188.799 88.4558 170.614 77.4657 170.614 77.4657C170.614 77.4657 157.513 51.935 102.632 51.935C37.2047 51.935 0.28125 87.4308 0.28125 87.4308C16.4571 83.819 39.3726 80.8214 39.3726 80.8214L31.2868 85.6615L42.0611 84.5675C30.7783 90.1398 16.2253 101.003 16.2253 101.003C66.1155 91.6608 90.4058 142.669 93.3302 163.612Z" fill="white"/>
<path d="M168.943 79.052C154.084 50.7066 71.0616 39.5946 10.0879 83.5139C31.4903 79.3286 52.482 77.5879 52.482 77.5879L41.3659 82.6274L51.884 82.2652C51.884 82.2652 37.3961 88.7324 24.2829 98.0426C66.5021 93.4464 92.2525 140.384 94.9777 159.927L140.032 130.077L197.194 110.761C187.29 90.2699 168.943 79.052 168.943 79.052Z" fill="black"/>
<path d="M100.268 58.6113C63.538 58.6113 32.2227 75.9155 32.2227 75.9155C43.4518 73.7256 63.3265 72.7039 68.4905 73.1464C66.4015 74.269 58.6898 78.3461 58.6898 78.3461C58.6898 78.3461 66.8049 78.1444 69.4699 78.2355C69.4699 78.2355 57.8405 82.4005 43.9204 94.2641C80.084 101.94 72.6717 117.429 99.7082 117.429C119.095 117.429 131.053 107.56 131.053 107.56C131.053 107.56 121.05 123.777 96.6724 128.736C96.6724 128.736 100.252 134.912 102.22 138.784C131.076 121.073 139.539 115.525 137.034 99.5973C132.638 94.9344 131.707 91.8172 131.707 91.8172C133.083 93.506 136.135 94.352 138.68 94.4919C138.68 94.4919 130.718 90.0666 136.513 81.9612C133.412 82.6575 130.913 84.9222 130.506 87.5091C130.506 87.5091 127.656 84.4797 127.22 80.741C118.467 75.5315 98.9403 77.2561 98.9403 77.2561C138.394 65.8317 154.074 83.5296 158.89 85.2899C158.89 85.2899 165.918 86.0025 165.918 81.9352C165.918 76.8786 149.961 58.6113 100.268 58.6113ZM170.633 84.8214C170.633 84.8214 174.954 89.1425 175.755 92.6762C163.172 85.5567 157.614 92.1751 149.815 105.506C149.815 105.506 155.392 100.583 159.951 101.764L180.3 105.867C151.074 105.418 147.221 109.333 143.32 120.354L191.796 107.973C184.283 95.0028 170.633 84.8214 170.633 84.8214Z" fill="#CB333B"/>
<path d="M151.291 88.4067L147.024 88.9923C144.189 89.3746 144.218 85.3116 145.544 84.2053C145.544 84.2053 149.285 86.4828 151.291 88.4067Z" fill="white"/>
</g>
<defs>
<clipPath id="clip0_15016_302749">
<rect width="200" height="200" fill="white" transform="translate(0.28125 0.773438)"/>
</clipPath>
</defs>
</svg>
