<svg width="201" height="200" viewBox="0 0 201 200" fill="none" xmlns="http://www.w3.org/2000/svg">
<path d="M120.616 133.883V66.1019H133.819L138.881 34.5605H61.6504L66.7137 66.1019H79.9745V133.883H66.9087L61.8503 165.439H138.727L133.665 133.879L120.616 133.883Z" fill="#FDC82F"/>
<path d="M129.725 61.2983L133.245 39.3654H67.2812L70.8016 61.2983H84.7711V138.688H71.0016L67.4812 160.636H133.094L129.573 138.688H115.819V61.2983H129.725Z" fill="#A71930"/>
<path d="M133.248 39.3654L121.878 50.3259H100.295V73.9831C97.2344 73.9861 94.1745 74.0461 91.1156 74.1631C88.1328 85.8076 85.1489 97.5112 82.171 109.269C80.2031 109.415 78.2311 109.587 76.2692 109.783C76.8302 113.581 77.3962 117.383 77.9581 121.192C82.977 120.733 88.0108 120.425 93.0396 120.274C93.7766 116.993 94.5145 113.713 95.2565 110.437C96.9354 110.401 98.6154 110.383 100.295 110.38V149.446H78.9251L67.4795 160.636H133.088L129.568 138.687L121.878 149.446H105.002L115.819 138.687V120.629C118.159 120.773 120.499 120.947 122.838 121.159C123.398 117.35 123.968 113.547 124.528 109.744C123.298 109.621 122.058 109.514 120.829 109.412C121.269 106.189 121.709 102.966 122.138 99.7441C120.179 99.5731 118.229 99.4271 116.259 99.3001C116.109 98.7431 115.969 98.1912 115.819 97.6342V90.7244C119.789 90.9674 123.758 91.3034 127.718 91.7364C127.628 90.1635 127.548 88.5855 127.468 87.0136C128.458 87.1206 129.458 87.2386 130.458 87.3556V110.388C129.398 110.261 128.328 110.138 127.268 110.021C126.638 113.81 126.008 117.604 125.378 121.403C133.228 122.189 141.038 123.347 148.807 124.885C148.178 120.901 147.558 116.924 146.938 112.951C145.688 112.711 144.438 112.489 143.198 112.269V89.2365C144.198 89.4125 145.198 89.5915 146.208 89.7775C146.128 91.3294 146.038 92.8784 145.958 94.4313C149.987 95.1783 153.997 96.0272 157.997 96.9742C158.277 91.6224 158.567 86.2666 158.857 80.9108C144.678 77.4929 130.278 75.346 115.819 74.459V61.2975H129.718L133.248 39.3654ZM78.9251 50.3259L70.8004 61.2975H84.7689L96.2685 50.3259H78.9251ZM85.9398 74.413C71.0974 75.291 56.312 77.4979 41.7715 81.0428C42.0555 86.3996 42.3425 91.7504 42.6255 97.1072C46.6243 96.1502 50.6382 95.2913 54.666 94.5353C54.583 92.9824 54.501 91.4334 54.418 89.8805C55.409 89.6955 56.3949 89.5155 57.3909 89.3395V112.37C56.15 112.59 54.916 112.815 53.6861 113.054C53.0651 117.033 52.4401 121.013 51.8201 124.993C59.5638 123.445 67.3615 122.267 75.1882 121.461C74.5633 117.667 73.9353 113.878 73.3103 110.089C72.2454 110.206 71.1804 110.33 70.1204 110.462V87.4296C71.1114 87.3076 72.1124 87.1906 73.1083 87.0786C73.0253 88.6555 72.9413 90.2275 72.8583 91.8044C76.9162 91.3504 80.99 90.9954 85.0669 90.7364C85.3599 85.2966 85.6469 79.8568 85.9398 74.413ZM160.287 81.2618C160.897 85.2706 161.517 89.2855 162.137 93.2983C162.997 93.5183 163.857 93.7483 164.717 93.9783V99.6461C163.137 99.2261 161.567 98.8221 159.977 98.4311C160.747 102.479 161.517 106.527 162.277 110.579C163.087 110.789 163.907 111.003 164.717 111.218V117.002C163.487 116.68 162.267 116.36 161.037 116.057C160.417 119.758 159.807 123.463 159.187 127.174C171.547 130.172 183.716 134.133 195.606 139.057C195.346 133.523 195.076 127.991 194.806 122.453C190.956 120.876 187.086 119.401 183.186 118.024C183.246 119.616 183.326 121.207 183.396 122.799C181.326 122.062 179.246 121.359 177.156 120.68V114.894C179.756 115.733 182.356 116.626 184.936 117.559C185.846 114.03 186.746 110.506 187.646 106.986C184.166 105.687 180.666 104.461 177.156 103.324V97.6502C179.246 98.3292 181.326 99.0321 183.396 99.7691C183.326 101.307 183.246 102.843 183.186 104.386C187.086 105.763 190.956 107.24 194.806 108.822C195.076 103.509 195.356 98.1962 195.636 92.8884C184.086 88.1035 172.267 84.2257 160.287 81.2618ZM39.6916 81.5798C31.3959 83.6747 23.1782 86.2096 15.0825 89.1835C9.78989 91.1174 5.54785 96.3802 5.54785 102.777V110.281C5.54785 115.725 9.78599 119.119 15.0787 117.307C19.3263 115.853 23.6092 114.513 27.9202 113.292C28.1202 113.239 28.2852 113.356 28.2852 113.566V118.987C28.2852 119.192 28.1262 119.405 27.9262 119.463C24.5713 120.494 21.2315 121.594 17.9106 122.766C17.9936 121.169 18.0716 119.577 18.1546 117.985C14.2684 119.347 10.4053 120.818 6.57701 122.385C6.299 127.917 6.02655 133.449 5.75312 138.977C14.0291 135.557 22.4465 132.605 30.9672 130.119C36.348 128.542 40.7718 124.157 40.7718 117.594V109.158C40.7718 103.718 36.353 100.261 30.9772 101.706C26.6553 102.869 22.3595 104.149 18.0967 105.55C17.8967 105.619 17.7317 105.499 17.7317 105.294V100.154C17.7317 99.9491 17.8907 99.7241 18.0907 99.6561C21.1275 98.5861 24.1804 97.5762 27.2463 96.6282C27.1633 98.2202 27.0853 99.8121 27.0023 101.404C30.9232 100.188 34.868 99.0711 38.8379 98.0502C39.1209 92.5624 39.4076 87.0686 39.6916 81.5798ZM100.3 90.8594V98.8181C99.5753 98.8191 98.8504 98.8131 98.1264 98.8201C98.8474 96.1632 99.5743 93.5113 100.3 90.8594Z" fill="#822433"/>
<path d="M117.685 88.4363C120.224 88.6121 122.758 88.8269 125.292 89.0808C125.209 87.5037 125.121 85.9315 125.038 84.3545C127.665 84.6181 130.287 84.916 132.899 85.2626V113.103C131.713 112.947 130.531 112.8 129.349 112.659C128.983 114.875 128.617 117.087 128.251 119.299C134.178 119.963 140.086 120.842 145.97 121.936C145.604 119.611 145.243 117.292 144.876 114.973C143.509 114.724 142.137 114.485 140.765 114.26V86.4199C143.387 86.8496 146.004 87.3232 148.612 87.8358C148.529 89.3836 148.446 90.9363 148.363 92.4841C150.872 92.9773 153.372 93.5095 155.862 94.0758C156.067 90.3016 156.268 86.5321 156.473 82.753C143.476 79.7551 130.301 77.8167 117.07 76.933C117.275 80.7707 117.48 84.6034 117.685 88.4363Z" fill="#FADA63"/>
<path d="M185.512 121.264C185.586 122.855 185.659 124.452 185.732 126.044C182.109 124.72 178.462 123.48 174.79 122.333V111.737C177.573 112.606 180.342 113.529 183.1 114.501C183.628 112.431 184.155 110.365 184.682 108.305C181.401 107.123 178.105 106.015 174.79 104.975V94.4968C178.462 95.6442 182.109 96.8745 185.732 98.2026C185.659 99.7407 185.586 101.279 185.512 102.817C187.939 103.7 190.351 104.623 192.758 105.585C192.953 101.84 193.149 98.1 193.339 94.355C183.432 90.3659 173.33 87.0408 163.102 84.3798C163.458 86.7283 163.814 89.0768 164.176 91.4302C165.152 91.6841 166.134 91.9527 167.11 92.2212V102.704C165.763 102.328 164.415 101.967 163.063 101.615C163.424 103.964 163.78 106.312 164.142 108.661C165.133 108.925 166.119 109.193 167.11 109.467V120.067C165.772 119.691 164.43 119.33 163.082 118.983C162.726 121.146 162.369 123.304 162.008 125.467C172.598 128.172 183.062 131.585 193.315 135.711C193.13 131.819 192.939 127.923 192.759 124.031C190.352 123.07 187.939 122.147 185.512 121.264Z" fill="#FADA63"/>
<path d="M116.146 108.459C116.873 108.508 117.601 108.557 118.328 108.605C118.655 106.379 118.987 104.148 119.315 101.916C117.669 101.794 116.024 101.687 114.378 101.594C112.142 93.1958 109.901 84.8271 107.655 76.4874C102.787 76.3507 97.914 76.3556 93.0454 76.5021C90.0475 88.1276 87.0495 99.8074 84.0565 111.539C82.4013 111.652 80.751 111.779 79.0957 111.92C79.4277 114.147 79.7549 116.373 80.0869 118.6C83.7586 118.297 87.4401 118.073 91.1167 117.936C92.1958 113.429 93.2798 108.937 94.3588 104.45C94.9301 105.637 95.5014 106.823 96.0775 108.014C99.8225 107.946 103.567 107.961 107.312 108.063C108.103 111.344 108.894 114.63 109.685 117.921C113.367 118.053 117.039 118.268 120.71 118.571C121.042 116.339 121.374 114.118 121.706 111.891C120.056 111.75 118.411 111.628 116.76 111.515C116.555 110.5 116.351 109.479 116.146 108.459ZM99.6133 83.1622H101.195C102.684 89.1824 104.174 95.2173 105.663 101.266C102.157 101.193 98.6513 101.193 95.1455 101.271C96.6347 95.222 98.1241 89.1869 99.6133 83.1622Z" fill="#FADA63"/>
<path d="M44.7657 94.2045C47.2606 93.6283 49.7555 93.0908 52.2604 92.5983C52.1779 91.0459 52.0992 89.4972 52.0117 87.9448C54.6092 87.4272 57.2067 86.9536 59.8141 86.5191V114.364C58.4567 114.589 57.1042 114.824 55.7468 115.073C55.3855 117.398 55.0243 119.717 54.6581 122.04C60.5221 120.937 66.4154 120.048 72.3237 119.369L71.2251 112.734C70.0435 112.876 68.8619 113.022 67.6803 113.183V85.343C70.2975 84.9914 72.9145 84.6838 75.5365 84.4202C75.4535 85.9923 75.3705 87.5694 75.2826 89.1416C77.8168 88.8828 80.3508 88.6631 82.8897 88.4825C83.0948 84.6447 83.2999 80.8119 83.5049 76.979C70.2929 77.8872 57.1334 79.8598 44.1602 82.887C44.3603 86.6564 44.5655 90.4303 44.7657 94.2045Z" fill="#FADA63"/>
<path d="M30.9787 104.11C26.6576 105.276 22.3603 106.556 18.0979 107.957C16.599 108.445 15.3831 107.615 15.3831 106.077V100.999C15.3831 99.4661 16.594 97.7816 18.0882 97.2543C21.9015 95.9116 25.7393 94.6616 29.6014 93.5093C29.5183 95.101 29.4402 96.6928 29.3572 98.2845C31.7985 97.5521 34.2497 96.8588 36.7056 96.2045C36.9058 92.3325 37.106 88.4655 37.3061 84.5984C29.821 86.5709 22.4042 88.9 15.0807 91.5854C11.077 93.0502 7.85449 97.7131 7.85449 101.829V110.051C7.85449 114.163 11.0721 116.272 15.0661 114.905C19.3188 113.445 23.6009 112.107 27.9119 110.886C29.4254 110.462 30.6608 111.38 30.6608 112.918V118.279C30.6608 119.807 29.4303 121.413 27.9216 121.872C23.786 123.137 19.6748 124.514 15.5881 126.003C15.6955 124.397 15.8029 122.795 15.9103 121.189C13.4752 122.074 11.0484 122.996 8.6316 123.959C8.43623 127.855 8.24087 131.746 8.0505 135.642C15.5843 132.615 23.2349 129.973 30.9646 127.712C35.0367 126.521 38.3765 122.322 38.3765 118.201V109.705C38.3765 105.594 35.041 103.016 30.9787 104.11Z" fill="#FADA63"/>
<path d="M132.898 85.2656C134.085 84.2891 135.271 83.3272 136.458 82.3751C131.331 81.6281 126.185 81.0373 121.023 80.6124C121.053 80.6466 121.077 80.6808 121.101 80.7149C121.077 80.6905 121.053 80.6709 121.023 80.6466C121.101 82.0284 121.175 83.415 121.253 84.7968C120.061 86.0028 118.875 87.2186 117.684 88.4393C120.222 88.615 122.757 88.8299 125.291 89.0838C125.208 87.5067 125.12 85.9345 125.037 84.3575C127.664 84.6211 130.281 84.919 132.898 85.2656Z" fill="#FDC82F"/>
<path d="M152.572 85.3085C152.479 86.7294 152.387 88.1551 152.294 89.576C150.98 90.5379 149.672 91.5096 148.358 92.4909C150.868 92.9841 153.368 93.5163 155.858 94.0826C156.063 90.3084 156.263 86.534 156.468 82.7598C155.17 83.5996 153.871 84.4492 152.572 85.3085Z" fill="#FDC82F"/>
<path d="M141.398 117.759C141.276 117.735 139.353 117.417 137.683 117.168C138.713 116.197 139.738 115.23 140.759 114.268V86.4278C143.381 86.8575 145.998 87.3311 148.605 87.8438C149.914 86.9747 151.217 86.1153 152.521 85.2657C147.311 84.1525 142.082 83.2102 136.833 82.4338V117.043C135.075 116.779 133.141 116.52 131.916 116.364C130.695 117.335 129.47 118.317 128.244 119.308C134.172 119.972 140.08 120.851 145.963 121.945C145.597 119.621 145.236 117.301 144.87 114.982C143.713 115.895 142.56 116.828 141.398 117.76" fill="#FDC82F"/>
<path d="M59.8112 86.5208C60.9976 85.1976 62.1792 83.8841 63.3656 82.5757C58.2388 83.352 53.1317 84.2895 48.0487 85.3881C48.0731 85.4173 48.0975 85.4418 48.1268 85.4711C48.0975 85.4564 48.0731 85.4369 48.0487 85.4222C48.1268 86.7844 48.1952 88.1467 48.2684 89.504C47.1015 91.0616 45.9297 92.6289 44.7627 94.206C47.2577 93.6299 49.7528 93.0928 52.2575 92.5996C52.1745 91.0469 52.0915 89.499 52.0085 87.9512C54.6061 87.4288 57.2038 86.9553 59.8112 86.5208Z" fill="#FDC82F"/>
<path d="M79.5457 80.6966C79.4481 82.1468 79.3553 83.5969 79.2625 85.052C77.9345 86.4044 76.6064 87.7716 75.2783 89.1435C77.8125 88.8848 80.3465 88.6651 82.8854 88.4844C83.0905 84.6467 83.2956 80.8138 83.5006 76.981C82.1823 78.2114 80.8641 79.4467 79.5457 80.6966Z" fill="#FDC82F"/>
<path d="M67.7364 116.564C67.6094 116.584 66.2667 116.76 64.5969 117.004C65.6222 115.725 66.6524 114.455 67.6778 113.19V85.3503C70.2949 84.9987 72.912 84.6911 75.534 84.4275C76.8523 83.1629 78.1755 81.9129 79.4938 80.6776C74.2304 81.1219 68.9766 81.742 63.7419 82.5282V117.132C61.9891 117.391 59.5233 117.796 58.3026 118.006C57.0869 119.344 55.8711 120.691 54.6553 122.049C60.5193 120.945 66.4126 120.057 72.3259 119.378C71.9548 117.166 71.5886 114.954 71.2224 112.742C70.0603 114.012 68.8985 115.28 67.7364 116.564Z" fill="#FDC82F"/>
<path d="M192.745 124.039C191.598 124.717 190.441 125.401 189.288 126.099C189.381 127.691 189.474 129.278 189.567 130.869C184.918 128.843 167.877 123.457 165.598 123.042C164.396 123.843 163.195 124.654 161.994 125.474C172.584 128.179 183.048 131.597 193.302 135.718C193.116 131.826 192.926 127.93 192.745 124.039Z" fill="#FDC82F"/>
<path d="M185.508 102.817C186.777 102.041 188.047 101.274 189.307 100.518C189.399 99.1114 189.487 97.7003 189.58 96.2941C190.835 95.6399 192.085 94.9953 193.335 94.3557C193.144 98.1007 192.949 101.841 192.754 105.586C190.347 104.624 187.934 103.701 185.508 102.817Z" fill="#FDC82F"/>
<path d="M167.098 92.2255C168.26 91.4248 169.417 90.6288 170.574 89.8379C169.578 89.5449 168.577 89.2617 167.581 88.9834C166.443 89.789 165.301 90.6045 164.163 91.4344C165.14 91.6932 166.121 91.957 167.098 92.2255Z" fill="#FDC82F"/>
<path d="M167.097 109.471C168.259 108.665 169.416 107.869 170.573 107.083C169.577 106.79 168.576 106.502 167.58 106.224C166.428 107.03 165.275 107.84 164.128 108.665C165.119 108.929 166.105 109.193 167.097 109.471Z" fill="#FDC82F"/>
<path d="M185.72 98.2014C187.004 97.5471 188.293 96.8977 189.572 96.263C183.425 93.9047 177.214 91.8003 170.945 89.9497C170.945 101.483 170.945 113.02 170.94 124.553C172.225 123.982 173.504 123.421 174.778 122.869V111.741C177.561 112.611 180.33 113.533 183.088 114.505C183.616 112.435 184.143 110.369 184.67 108.304C183.484 109.002 182.293 109.715 181.101 110.433C179.006 109.71 176.897 109.022 174.778 108.358V94.4957C178.45 95.648 182.097 96.8832 185.72 98.2014Z" fill="#FDC82F"/>
<path d="M118.086 115C116.464 114.882 114.839 114.785 113.218 114.702C112.041 115.771 110.859 116.845 109.683 117.929C113.364 118.061 117.036 118.276 120.708 118.579C121.04 116.347 121.372 114.121 121.699 111.899C120.498 112.92 119.292 113.955 118.086 115Z" fill="#FDC82F"/>
<path d="M113.422 114.517C114.535 113.512 115.644 112.511 116.757 111.519C116.552 110.504 116.352 109.483 116.142 108.463C116.869 108.512 117.597 108.561 118.319 108.609C118.656 106.383 118.983 104.152 119.311 101.925C118.129 102.96 116.947 104.005 115.766 105.06C109.907 104.703 104.033 104.552 98.164 104.611C97.4658 105.743 96.7676 106.876 96.0693 108.019C101.333 107.921 106.596 107.994 111.855 108.234C112.377 110.328 112.9 112.423 113.422 114.517Z" fill="#FDC82F"/>
<path d="M101.19 83.1699C102.274 82.042 103.363 80.9189 104.447 79.8057C101.879 79.7667 99.3155 79.7667 96.7523 79.8057C93.8325 91.3873 90.9077 103.017 87.988 114.697C86.5525 114.775 85.1267 114.858 83.6913 114.956C82.4901 116.167 81.2841 117.382 80.083 118.608C83.7547 118.305 87.4314 118.081 91.1129 117.944C93.9447 106.304 96.7766 94.7123 99.6087 83.1702L101.19 83.1699Z" fill="#FDC82F"/>
<path d="M110.893 104.633C112.055 103.617 113.217 102.602 114.375 101.601C112.138 93.2024 109.892 84.8337 107.651 76.494C106.582 77.5926 105.518 78.7058 104.448 79.8191C106.597 88.0611 108.745 96.3368 110.893 104.633Z" fill="#FDC82F"/>
<path d="M15.906 121.194C15.8035 122.801 15.6912 124.402 15.5838 126.009C14.3192 127.605 13.0595 129.212 11.7998 130.828C11.8827 129.153 11.9705 127.488 12.0535 125.813C13.3377 124.265 14.6218 122.722 15.906 121.194Z" fill="#FDC82F"/>
<path d="M38.3666 118.209V109.713C38.3666 107.497 37.3999 105.739 35.8716 104.748C34.8804 105.817 33.8942 106.896 32.9078 107.985C33.8551 108.776 34.441 109.957 34.441 111.481V117.232C34.441 120.846 31.531 124.18 27.9715 125.269C22.538 126.934 17.1422 128.784 11.8009 130.83C10.5458 132.422 9.29098 134.028 8.0459 135.649C15.5797 132.622 23.2303 129.98 30.96 127.719C35.0321 126.528 38.367 122.329 38.367 118.208" fill="#FDC82F"/>
<path d="M17.7244 93.9869C14.204 95.232 11.7236 98.7621 11.7236 102.37V107.37C11.7236 109.143 12.2314 110.295 13.3398 110.988C14.2529 109.881 15.161 108.782 16.0692 107.683C15.6492 107.337 15.3807 106.79 15.3807 106.082V101.004C15.3807 99.4709 16.5916 97.7865 18.0858 97.2591C21.8991 95.9164 25.7369 94.6665 29.599 93.5141C30.8782 92.0006 32.1624 90.4966 33.4464 89.0026C28.1634 90.4869 22.9193 92.1461 17.7244 93.9869Z" fill="#FDC82F"/>
<path d="M28.2825 107.788C24.6694 108.804 21.0758 109.898 17.5017 111.084C15.866 111.626 14.3817 111.626 13.2587 111.074C12.2773 112.29 11.2959 113.515 10.3145 114.741C11.5839 115.424 13.2391 115.532 15.0604 114.912C19.3131 113.452 23.5952 112.114 27.9062 110.893C28.7362 110.664 29.4735 110.845 29.9813 111.304C30.9579 110.19 31.9295 109.082 32.906 107.983C31.8318 107.188 30.5529 107.1 28.2825 107.788Z" fill="#FDC82F"/>
<path d="M29.3526 98.2865C30.6074 96.763 31.8671 95.2494 33.1268 93.7505C33.2343 92.1832 33.3368 90.6159 33.4442 89.0485C34.7283 87.5545 36.0125 86.075 37.3015 84.6005C37.1013 88.4676 36.9011 92.3394 36.7009 96.2065C34.245 96.8608 31.7939 97.554 29.3526 98.2865Z" fill="#FDC82F"/>
</svg>
