<svg width="201" height="201" viewBox="0 0 201 201" fill="none" xmlns="http://www.w3.org/2000/svg">
<g clip-path="url(#clip0_15016_302078)">
<path d="M180.274 86.7339C171.017 89.8981 147.411 110.474 139.467 125.369C154.253 116.297 189.75 123.686 185.904 151.104C210.309 135.039 202.676 94.9642 180.282 86.7339" fill="#FFCD00"/>
<path d="M101.389 81.4665C101.267 84.1999 101.788 86.9235 102.91 89.4191C104.032 91.9146 105.723 94.1124 107.847 95.8362C109.972 97.5599 112.471 98.7616 115.144 99.3448C117.818 99.928 120.59 99.8764 123.24 99.1943C125.889 98.5121 128.342 97.2183 130.401 95.4167C132.461 93.6152 134.069 91.356 135.097 88.8205C136.125 86.285 136.544 83.5438 136.321 80.8169C136.099 78.09 135.24 75.4533 133.813 73.1184C137.028 73.657 140.546 75.9712 143.138 80.0443C147.244 86.6168 150.367 90.5552 155.609 91.624C165.456 93.6353 172.322 85.3629 171.674 77.486C171.144 71.1239 167.585 66.4702 164.387 63.3733C147.438 46.98 127.359 39.3303 98.7461 37.7061C24.9425 33.4984 0.638623 76.4173 0.992072 98.2386C4.53498 94.2244 9.87039 90.025 13.1693 88.6786C6.70617 98.0366 3.98798 106.267 3.96273 116.037C7.57296 111.484 10.3921 109.566 14.0613 108.051C8.59124 118.461 8.49866 125.286 8.81844 134.694C12.3109 130.394 15.0964 127.827 18.0755 126.565C18.0755 126.565 13.0767 138.894 15.7107 151.811C38.9626 107.268 75.7298 76.9895 104.46 72.5546C103.097 74.9109 101.506 78.5548 101.372 81.4581" fill="#FFCD00"/>
<path d="M154.195 139.788C148.318 138.102 142.324 136.856 136.262 136.06C136.326 139.763 137.413 143.376 139.404 146.499C141.395 149.621 144.212 152.132 147.542 153.753C150.872 155.373 154.586 156.041 158.272 155.68C161.958 155.32 165.472 153.947 168.426 151.713C156.905 153.8 151.982 146.36 154.195 139.788Z" fill="#FFCD00"/>
<path d="M117.579 110.728C111.032 110.427 104.787 107.88 99.8976 103.514C95.008 99.1491 91.7718 93.2323 90.734 86.7603C90.734 86.7603 86.0971 88.1236 79.6508 92.8194C72.4388 98.0706 71.6141 101.647 71.6141 101.647C81.1572 97.4395 88.9415 100.41 91.3736 105.661C93.8057 110.913 89.6905 118.057 77.5722 123.006C67.3054 127.213 59.3275 133.517 58.7552 142.942C58.2419 151.357 63.0134 160.909 76.8906 163.349C103.13 167.961 131.095 138.28 131.717 108.136C127.225 109.936 122.418 110.818 117.579 110.728Z" fill="#FFCD00"/>
</g>
<defs>
<clipPath id="clip0_15016_302078">
<rect width="200" height="200" fill="white" transform="translate(0.988281 0.621094)"/>
</clipPath>
</defs>
</svg>
