<svg width="201" height="201" viewBox="0 0 201 201" fill="none" xmlns="http://www.w3.org/2000/svg">
<path d="M186.262 46.0747V155.817H14.1445V46.4189L14.2822 46.0747H186.262Z" fill="white"/>
<path d="M181.651 51.1027C181.582 67.3505 181.788 83.8738 181.513 99.9839H110.876C110.601 84.5623 110.807 67.0063 110.738 51.3781L110.945 51.0338C134.49 51.0338 158.311 50.8273 181.651 51.1027ZM181.651 103.22C181.582 119.123 181.788 135.302 181.513 150.999C157.967 150.931 134.077 151.137 110.669 150.862V103.426L110.876 103.082C134.49 103.22 158.311 102.944 181.651 103.22ZM107.984 51.1027C108.191 84.218 108.191 118.16 107.984 151.344C78.3114 151.55 47.8123 151.55 18.1393 151.344C17.9327 118.228 17.9327 84.3557 18.1393 51.2404L18.4835 51.0338C48.2942 51.0338 78.3803 50.8273 107.984 51.1027Z" fill="#002147"/>
<path d="M169.738 106.312C169.944 107.001 169.944 108.378 169.738 109.066C162.44 108.378 163.61 116.708 163.61 123.731C163.61 128.274 163.817 133.094 163.61 136.743C163.06 146.175 153.628 150.718 143.369 149.342C136.485 148.378 130.908 144.866 130.357 137.293C130.013 132.887 130.357 127.792 130.357 123.111V116.02C130.357 114.092 130.702 110.65 129.669 109.686C128.636 108.722 126.227 109.41 124.437 108.997C124.299 108.378 124.161 106.794 124.574 106.381C131.321 106.175 138.826 106.175 145.573 106.381C145.71 107.07 145.779 108.309 145.573 108.997C143.783 109.41 141.235 108.584 140.134 109.548C138.894 110.581 139.376 114.987 139.376 117.397V125.934C139.376 132.612 138.826 137.913 141.235 141.355C143.989 145.348 152.251 146.243 156.45 142.663C157.965 141.355 159.548 138.946 159.824 135.779C160.099 132.681 159.962 128.687 159.962 124.832C159.962 117.052 161.338 108.791 153.834 108.86C153.628 108.24 153.628 106.863 153.834 106.243C158.86 106.106 164.712 106.106 169.738 106.312ZM163.955 82.4912C164.437 86.2778 163.61 89.7202 161.958 91.9921C158.722 96.536 151.356 99.4276 144.264 97.9818C141.098 97.3622 138.481 95.7098 135.934 93.851C133.937 94.8837 133.937 98.4637 130.495 97.7064C130.289 92.8183 130.289 87.104 130.495 82.2158C131.115 82.0093 132.147 82.147 132.905 82.0782C134.213 85.5893 135.59 89.1005 137.931 91.5102C140.478 94.1264 144.54 95.9164 150.254 95.3656C153.352 95.0214 155.9 93.4379 157.001 91.3036C158.447 88.6186 157.414 84.7632 155.555 83.2486C153.146 81.3208 148.395 80.7701 144.609 79.8751C137.104 78.085 129.807 75.5377 131.046 64.9353C131.666 59.8406 135.796 55.5033 141.511 54.4706C147.5 53.369 153.008 55.5033 156.726 58.326C157.758 57.2244 158.378 55.8475 159.48 54.8148C160.168 54.8148 160.925 54.746 161.476 54.9525C161.683 59.0145 161.545 64.5222 161.614 69.4792C160.925 69.6169 159.686 69.6169 158.998 69.4792C157.07 63.4207 152.251 55.9852 143.576 57.2244C139.927 57.7752 136.003 60.8045 137.036 65.4172C137.999 69.9611 144.402 70.6496 149.359 71.7511C153.352 72.6461 157.414 73.7477 159.962 75.8131C161.889 77.0523 163.61 79.3243 163.955 82.4912ZM94.3505 58.326C94.557 59.8406 94.557 62.1126 94.3505 63.696C90.4951 64.2468 86.02 63.1453 84.6431 66.2434C83.6104 68.5842 84.23 72.715 84.23 75.7442V105.28C84.23 108.584 84.4365 118.223 84.3677 119.737C84.2989 121.39 84.23 123.249 84.0235 124.763C83.6792 126.966 83.1285 129.032 82.3711 130.891C79.3419 138.188 72.9391 142.87 64.6775 144.866C59.1009 146.175 52.9047 146.381 46.9839 145.073C41.8892 143.971 37.0699 141.08 34.1095 138.326C30.4606 134.953 26.8806 129.858 27.4313 122.285C28.051 114.574 33.2833 107.965 42.5088 108.722C46.2954 109.066 49.3246 111.476 50.9081 114.092C52.3539 116.433 52.9735 121.872 51.4589 124.901C50.5639 126.691 48.6362 128.619 46.9839 129.927C44.5054 131.854 41.4073 133.369 37.0699 132.543C37.8272 136.261 41.545 138.326 45.125 139.428C48.0854 140.323 51.3901 140.667 54.7635 139.978C61.304 138.601 65.366 133.163 65.9856 125.865C66.4675 120.77 66.1921 115.607 66.1921 110.581C66.1921 97.7064 66.3298 85.0386 66.1921 71.82C66.1921 69.1349 66.0544 66.4499 65.0906 65.3484C63.0252 62.9387 56.6913 64.5222 52.8358 64.0403C52.5605 62.4568 52.767 60.4602 52.6981 58.6702L52.9047 58.326C66.7429 58.326 80.7877 58.1194 94.3505 58.326Z" fill="white"/>
</svg>
