<svg width="201" height="201" viewBox="0 0 201 201" fill="none" xmlns="http://www.w3.org/2000/svg">
<g clip-path="url(#clip0_15016_302099)">
<path d="M36.9256 68.0437L31.0539 91.7297H6.65428L1.33996 113.168C0.12503 118.067 1.1654 123.12 4.19403 127.031C7.22966 130.951 11.8533 133.198 16.8811 133.198H168.642C177.943 133.198 186.329 126.602 188.582 117.514L200.844 68.0443H36.9292" fill="#B5A36A"/>
<path d="M39.1614 70.9031L33.2897 94.5891H8.89004L4.11358 113.861C3.10969 117.906 3.96298 122.071 6.45367 125.287C8.94388 128.503 12.7458 130.348 16.883 130.348H168.643C176.651 130.348 183.871 124.664 185.813 116.832L197.197 70.9032H39.1653" fill="#450084"/>
<path d="M44.0934 77.2681L35.261 112.895H27.7005L30.6617 100.954H13.822L10.2953 115.183C9.76074 117.339 10.2148 119.558 11.5423 121.273C12.8697 122.986 14.8964 123.969 17.101 123.969H42.0311C47.1143 123.969 51.6979 120.362 52.9305 115.389L62.3803 77.2681L44.0934 77.2681ZM170.812 77.2681L161.98 112.895H154.419L163.245 77.2941H144.958L135.568 115.183C135.032 117.339 135.486 119.558 136.815 121.273C138.141 122.986 140.168 123.969 142.372 123.969H168.75C173.833 123.969 178.417 120.362 179.649 115.389L189.1 77.2681H170.812L170.812 77.2681ZM69.9797 77.294L58.4026 123.995H76.6903L83.233 97.6022L85.4078 123.995H98.7491L114.087 97.4693L107.51 123.995H125.799L137.375 77.294H108.992L96.0138 100.615L93.6994 77.294H69.9797Z" fill="#B5A36A"/>
<path d="M59.0261 77.2682L49.805 114.466C48.912 118.069 45.6407 120.643 41.9566 120.643H11.1117C11.2438 120.859 11.386 121.07 11.5432 121.273C12.8701 122.987 14.8963 123.969 17.1009 123.969H42.031C47.1142 123.969 51.6978 120.361 52.9304 115.389L62.3801 77.2681H59.0254L59.0261 77.2682ZM185.745 77.2682L176.526 114.466C175.634 118.069 172.361 120.643 168.677 120.643H136.385C136.517 120.859 136.659 121.07 136.817 121.273C138.143 122.987 140.17 123.969 142.374 123.969H168.752C173.835 123.969 178.42 120.361 179.651 115.389L189.102 77.2681L185.745 77.2682ZM134.016 77.2941L123.263 120.672H108.334L107.51 123.995H125.799L137.375 77.2941H134.016ZM159.888 77.2941L151.062 112.895H154.422L163.247 77.2941H159.888ZM116.792 86.5473L97.0405 120.672H85.1334L85.407 123.995H98.7483L114.086 97.4694L116.793 86.5473H116.792ZM82.3963 87.4709L74.1664 120.672H59.2249L58.4008 123.995H76.6884L83.2312 97.6023L82.3963 87.4709ZM27.3024 100.954L24.3424 112.895H27.7015L30.6626 100.954H27.3024ZM10.2285 118.823C10.2327 118.839 10.2387 118.854 10.2437 118.87C10.2402 118.856 10.2366 118.842 10.2328 118.828L10.2285 118.823Z" fill="white"/>
</g>
<defs>
<clipPath id="clip0_15016_302099">
<rect width="200" height="200" fill="white" transform="translate(0.84375 0.621094)"/>
</clipPath>
</defs>
</svg>
