<svg width="200" height="201" viewBox="0 0 200 201" fill="none" xmlns="http://www.w3.org/2000/svg">
<path d="M136.737 50.5172C136.737 50.5172 135.032 58.8947 134.28 62.587C133.757 59.7841 132.528 57.3903 130.593 55.4559C125.459 50.3226 117.543 50.0625 105.05 50.0625C89.0496 50.0625 79.6738 51.241 74.4279 60.3212L76.4181 50.4405H40.2266L31.2396 93.8383H5.43679C5.43679 93.8383 1.01073 115.521 1.00842 115.534C0.174563 119.652 0 122.673 0 124.482C0 129.529 2.1135 132.701 3.88688 134.474C8.8989 139.486 17.1663 139.874 28.2986 139.874C46.7279 139.874 56.0333 138.431 60.7527 125.642C61.0284 129.206 62.337 132.185 64.6629 134.51C69.7382 139.585 77.7032 139.951 90.2184 139.951C102.72 139.951 110.743 139.605 116.66 134.831C119.834 132.301 121.502 129.244 122.552 126.126C122.933 130.293 124.782 132.999 126.364 134.581C131.373 139.591 139.345 139.951 151.88 139.951C163.266 139.951 171.5 139.95 177.795 135.317C183.817 130.976 185.049 124.794 186.24 118.814L200 50.5184H136.736L136.737 50.5172Z" fill="black"/>
<path d="M105.041 57.6504C84.701 57.6509 80.7749 59.1957 78.0799 72.8121L76.3633 81.4361C76.1196 82.6173 75.8741 83.8874 75.8741 85.2483C75.8741 89.4251 78.2045 92.604 82.7388 94.6906L95.7301 100.504C98.7933 101.865 99.0406 102.681 99.0406 104.044C99.0406 104.498 98.9179 105.04 98.7951 105.677L96.5804 116.663C96.0912 119.024 95.353 120.294 92.9016 120.294C90.8186 120.294 89.9629 119.659 89.9629 118.115C89.9629 117.48 93.0262 102.23 93.0262 102.23H72.1882L69.1268 117.119C68.3903 120.659 68.264 123.018 68.264 124.199C68.264 131.734 75.1287 132.371 90.2048 132.371C101.236 132.371 107.981 132.095 111.904 128.916C115.335 126.195 115.824 122.294 116.927 117.119L119.745 103.318C119.989 102.228 120.238 101.139 120.238 99.9579C120.238 95.9643 117.664 92.7872 112.516 90.6081L100.626 85.4315C97.9288 84.2503 97.1923 83.3431 97.1923 82.0712C97.1923 81.2529 97.3169 80.6178 97.4396 80.2549L98.788 73.2639C99.2772 70.994 100.136 69.6332 102.588 69.6332C104.673 69.6332 105.528 70.2682 105.528 71.8123C105.528 71.8123 105.53 72.2642 105.285 73.2639L103.2 83.7985H123.671L125.877 72.8121C126.366 70.2718 126.978 67.9077 126.978 65.8187C126.978 58.1042 119.873 57.6506 105.048 57.6504H105.041ZM46.4352 58.0257L34.6679 116.587C34.1769 118.857 33.6895 120.218 30.8699 120.218C28.7869 120.218 27.9277 119.673 27.9277 118.129C27.9277 117.403 28.0522 116.859 28.1731 116.587L31.2346 101.424H11.6259L8.43919 117.042C7.70433 120.673 7.58105 123.213 7.58105 124.483C7.58105 131.474 14.2 132.291 28.2962 132.291C49.5006 132.291 52.5603 130.478 55.2571 117.042L67.1508 58.0257H46.4352ZM142.929 58.1056L130.915 117.119C130.18 120.749 130.057 123.29 130.057 124.56C130.057 131.823 137.043 132.371 151.872 132.371C162.538 132.371 169.156 132.278 173.324 129.192C177 126.559 177.733 122.656 178.836 117.119L190.719 58.1056L170.013 58.1053L158.255 116.663C157.765 118.931 157.274 120.293 154.455 120.293C152.37 120.293 151.637 119.747 151.637 118.205C151.637 117.751 151.635 117.207 151.758 116.663L163.525 58.1053L142.933 58.1049L142.929 58.1056Z" fill="#CB2027"/>
<path d="M105.047 61.4313C84.9636 61.4313 83.9176 62.8037 81.7918 73.5482C81.7918 73.5482 80.0758 82.1735 80.0703 82.2046C79.8535 83.2475 79.6586 84.2653 79.6586 85.2483C79.6586 86.4969 79.9345 88.1837 81.8457 89.7546C81.7134 89.2232 81.6755 88.7192 81.6755 88.2745C81.6755 87.2916 81.8715 86.2738 82.0872 85.2308C82.0939 85.1997 83.8087 76.5744 83.8087 76.5744C85.9366 65.8299 86.9808 64.4574 107.064 64.4574C112.903 64.4574 119.94 64.4631 123.201 65.7238C123.182 64.1348 122.725 63.6692 122.55 63.4945C120.487 61.431 111.927 61.4313 105.047 61.4313ZM49.5316 61.8084C47.1203 73.8124 38.3744 117.338 38.3655 117.385C37.9375 119.365 36.9372 124 30.8679 124C29.6004 124 27.8331 123.861 26.3634 122.791C26.6613 123.958 27.236 124.768 27.7496 125.28C29.3151 126.846 31.4305 127.026 32.8848 127.026C38.9529 127.026 39.9555 122.39 40.3824 120.411C40.3924 120.364 49.1394 76.8385 51.5512 64.8364H61.9186L62.5284 61.8101H49.5327L49.5316 61.8084ZM146.019 61.8849C143.566 73.9333 134.621 117.87 134.623 117.867C133.943 121.23 133.841 123.503 133.841 124.56C133.841 125.988 134.244 126.392 134.397 126.544C134.72 126.866 135.23 127.133 135.862 127.362C135.874 126.23 136.004 124.048 136.642 120.893C136.641 120.896 145.583 76.9595 148.036 64.911H158.293L158.901 61.8848L146.019 61.8849ZM173.115 61.8849C170.703 73.8879 161.958 117.413 161.948 117.459C161.521 119.438 160.518 124.075 154.45 124.075C153.216 124.075 151.497 123.939 150.064 122.904C150.303 123.875 150.762 124.709 151.445 125.393C152.977 126.924 155.046 127.101 156.469 127.101C162.537 127.101 163.538 122.466 163.965 120.485C163.975 120.439 172.72 76.9132 175.133 64.911H185.501L186.11 61.8848L173.115 61.8849ZM109.107 70.133C109.233 70.6278 109.317 71.1819 109.317 71.8111C109.317 72.1413 109.273 72.8657 108.99 74.0486L107.811 80.0125H110.427L111.009 77.0749C111.29 75.8919 111.335 75.1665 111.335 74.8374C111.335 72.7127 110.456 71.3872 109.716 70.649C109.522 70.4544 109.316 70.2876 109.107 70.133ZM95.6938 86.8831C96.5966 89.926 99.6837 91.2872 101.131 91.9209C101.138 91.9243 113.028 97.0996 113.028 97.0996C114.521 97.7322 115.595 98.3923 116.382 99.0382C116.144 97.803 115.154 95.8266 111.009 94.0733C111.009 94.0733 99.1189 88.8982 99.1127 88.8946C98.2766 88.5289 96.8891 87.918 95.6938 86.8831ZM102.549 101.983C102.723 102.597 102.82 103.277 102.82 104.042C102.82 104.799 102.686 105.478 102.556 106.135C102.556 106.135 100.293 117.406 100.289 117.43C99.9474 119.073 98.9078 124.077 92.9074 124.077C92.1736 124.077 90.1088 124.068 88.4132 122.819C88.7167 123.992 89.2994 124.81 89.8186 125.329C91.5908 127.103 94.1011 127.103 94.926 127.103C100.926 127.103 101.966 122.1 102.307 120.456C102.312 120.432 104.574 109.161 104.574 109.161C104.703 108.504 104.838 107.825 104.838 107.068C104.838 104.743 103.986 103.185 102.549 101.983ZM14.7125 105.206C13.7864 109.745 12.142 117.792 12.1431 117.788C11.4616 121.151 11.3613 123.427 11.3613 124.483C11.3613 125.879 11.7505 126.27 11.9172 126.437C12.243 126.762 12.7569 127.032 13.3817 127.264C13.3973 126.125 13.5269 123.949 14.1617 120.814C14.1606 120.818 15.8032 112.771 16.7294 108.232H25.9974L26.6106 105.205L14.7125 105.206ZM75.2766 106.008C74.3805 110.361 72.8353 117.881 72.8342 117.886C72.156 121.149 72.0542 123.24 72.0542 124.197C72.0542 125.834 72.5189 126.298 72.6935 126.473C73.0093 126.787 73.4898 127.049 74.0745 127.277C74.0745 127.258 74.0728 127.243 74.0728 127.223C74.0728 126.267 74.1728 124.175 74.851 120.912C74.851 120.908 76.3991 113.388 77.2952 109.036H87.7809L88.3993 106.008L75.2766 106.008Z" fill="white" stroke="white" stroke-width="0.1"/>
</svg>
