<svg width="201" height="201" viewBox="0 0 201 201" fill="none" xmlns="http://www.w3.org/2000/svg">
<path d="M116.238 122.892C117.973 121.636 119.723 120.48 121.435 119.399C120.111 121.887 119.784 124.086 119.609 125.327C119.609 125.327 119.6 125.381 119.597 125.393C118.879 125.742 117.931 126.314 116.744 127.379C115.549 128.46 114.743 129.693 114.271 130.476C113.13 130.73 112.133 131.036 111.494 131.8C111.106 132.265 110.984 132.751 110.764 133.642C110.569 134.425 110.303 135.506 109.882 136.442C109.754 136.725 109.637 136.979 109.528 137.218C108.965 136.573 108.334 135.894 107.672 135.285C106.667 134.357 105.397 133.429 104.332 132.69C106.949 130.347 112.245 125.797 116.278 122.875M115.82 24.7192C111.239 24.9399 108.211 27.8693 106.765 29.5661C101.408 27.8465 95.7319 27.8846 90.71 29.7191C82.7206 32.6105 80.2096 37.328 79.2205 39.3064C78.1856 39.4821 76.5117 39.931 74.9746 41.3303C74.3499 41.8987 73.43 43.1565 71.8626 45.3403C70.3788 47.4023 68.5299 49.9665 67.5331 50.9176C64.5428 53.7406 63.2188 54.1819 61.5372 54.0754C60.4644 54.0028 59.5208 54.7153 59.2926 55.7645C59.2649 55.8977 59.2512 56.0362 59.2512 56.1808C59.2512 58.0906 61.6252 60.9288 63.5426 61.644C64.41 61.9659 65.2166 62.1569 65.9471 62.271C65.7873 62.7671 65.6465 63.283 65.5545 63.7852C65.4281 64.4654 65.0203 65.9081 64.6642 67.1864C64.0669 69.3017 63.7359 70.4887 63.7359 71.2952C63.7359 71.9465 63.9558 72.3453 64.4352 72.779C64.9001 73.1975 65.4015 73.3428 65.8885 73.3405C65.7561 73.8708 65.6008 74.4362 65.4076 75.0373C65.104 75.9808 64.4793 77.2211 63.9771 78.2178C63.4521 79.2603 62.9727 80.2114 62.9727 81.056C62.9727 81.6442 63.2094 82.1745 63.8325 82.6387C64.1027 82.8388 64.6239 83.1934 66.1152 83.1355C66.0658 83.2169 65.9714 83.3737 65.9714 83.3737C65.3056 84.4237 64.8072 85.2075 64.8072 86.014C64.8072 86.2933 64.8659 86.5755 64.9967 86.8738C65.2128 87.3615 65.5925 87.7032 66.062 87.9467C65.505 88.3758 65.0195 88.9054 64.7076 89.5446C64.4694 90.0384 64.3499 90.5642 64.3499 91.0892C64.3499 91.5739 64.4504 92.0555 64.6513 92.5273C64.8833 93.0667 65.1702 93.486 65.4882 93.8284C65.1808 93.9585 64.8856 94.0871 64.6056 94.215C63.1675 89.1854 61.3109 86.6516 59.0891 86.6821C58.66 86.6889 58.1152 86.7673 57.5749 86.994C57.422 86.5466 57.2744 86.1114 57.1496 85.7462L56.2593 83.1895C53.231 75.048 50.4841 75.2762 49.5863 75.3523C46.7633 75.5517 46.0253 78.3274 45.8731 80.9982C45.3405 80.4595 44.7013 80.1384 43.8719 80.1992C43.4161 80.2303 43.0501 80.3704 42.7153 80.55C42.2299 79.5228 41.6957 78.5032 41.1479 77.7271L40.8177 77.2531C39.197 74.9247 36.9828 71.7289 34.0077 72.9692C31.5652 73.9888 30.926 76.3095 30.926 78.8737C30.926 80.4412 31.1657 82.1 31.3841 83.6218C31.5104 84.5044 31.6785 85.4479 31.8642 86.3914C31.6686 86.327 31.4731 86.2484 31.276 86.2225C30.3173 86.097 29.4195 86.4066 28.7347 87.0975C27.7379 88.1019 27.4031 89.2204 27.4031 90.2933C27.4031 91.6477 27.9289 92.9412 28.3086 93.8771C28.3086 93.8771 28.5125 94.3892 28.5406 94.4607C28.5049 94.478 28.4727 94.4918 28.4356 94.5113C26.5486 92.7613 23.817 90.821 21.3897 92.1297C20.5451 92.5855 19.9592 93.3395 19.6929 94.3135C19.5849 94.7069 19.5377 95.1276 19.5377 95.569C19.5377 98.5441 21.7062 102.311 22.2008 103.125C22.4451 103.529 22.9191 104.365 23.3954 105.217C22.8118 105.424 22.2084 105.84 21.866 106.701C21.723 107.055 21.6613 107.412 21.6613 107.766C21.6613 108.755 22.1574 109.722 22.7875 110.566C22.0189 110.718 21.3874 111.137 20.9766 111.905C19.7211 111.51 16.3883 110.711 15.4448 112.994C15.3368 113.255 15.2881 113.522 15.2881 113.792C15.2881 115.786 17.9436 117.932 19.1154 118.784C18.967 119.09 18.8643 119.415 18.8643 119.758C18.8643 119.911 18.8793 120.065 18.9103 120.218C19.2139 121.71 20.7593 122.82 24.1148 124.73C24.1148 124.73 24.2945 124.834 24.4679 124.935C24.4472 125.003 24.415 125.056 24.4 125.131C24.3621 125.31 24.3437 125.484 24.3437 125.656C24.3437 127.801 27.159 129.239 28.1329 129.734C28.1329 129.734 28.3079 129.815 28.5537 129.933C27.8689 130.968 27.4428 132.071 27.3439 133.258C27.3324 133.402 27.3266 133.542 27.3266 133.681C27.3266 136.428 29.5788 138.49 31.8311 138.733C31.8372 138.733 31.9658 138.747 32.1682 138.758C32.2257 139.055 32.3074 139.368 32.455 139.847C32.4596 139.862 32.6757 140.462 33.0661 141.14C32.3904 141.23 31.5747 141.382 30.5323 141.636C28.3257 142.176 25.1603 143.318 23.4635 143.934L22.6189 144.235C19.5449 145.316 19.3395 146.594 19.271 147.013C19.2526 147.128 19.2434 147.242 19.2434 147.357C19.2434 148.006 19.5424 148.627 20.0651 149.038C20.2219 149.16 20.3824 149.251 20.543 149.322C17.7581 150.988 16.6092 153.811 16.6092 155.759C16.6092 155.984 16.6241 156.199 16.654 156.397C16.794 157.34 16.9736 158.048 17.1304 158.558C16.9599 159.146 16.8344 159.844 16.8344 160.635C16.8344 162.164 17.2795 163.983 18.6529 165.733C21.4302 169.286 27.0989 170.77 31.5882 170.664C34.9361 170.582 36.8231 170.056 37.7742 169.781C42.9636 171.485 48.7311 172.01 54.9705 171.318C61.6131 170.577 67.7536 168.206 70.4167 167.057C71.307 167.816 72.5701 168.495 74.1756 168.564C78.0714 168.73 80.4073 164.904 82.165 161.145C82.8506 159.684 83.3672 158.527 83.7781 157.576C84.0003 157.785 84.2278 157.983 84.4636 158.156L84.9042 158.484C86.0684 159.351 87.3847 160.341 89.2108 160.006C89.9459 159.873 90.4968 159.523 90.9077 159.1C91.346 159.415 91.8436 159.755 92.4827 160.143L92.7521 160.306C93.688 160.873 94.6011 161.425 95.4837 161.843C95.3193 162.059 95.1557 162.27 94.9944 162.511C92.9096 165.623 92.2476 168.392 92.2476 170.5C92.2476 172.06 92.6068 173.27 93.0161 174C93.8227 175.438 94.9792 175.545 95.4358 175.522C95.6382 175.514 97.4141 175.376 97.551 173.277C97.6317 172.06 99.2326 170.31 100.564 169.054C101.477 168.195 102.291 167.654 102.931 167.304C103.357 168.08 103.905 168.963 104.521 169.686C105.373 170.683 106.773 171.383 107.8 171.892C107.8 171.892 108.133 172.065 108.303 172.153C108.371 172.239 108.455 172.344 108.455 172.344C109.254 173.387 110.921 175.555 114.512 175.593C118.111 175.63 122.578 172.055 124.632 169.514C127.12 166.425 128.429 163.503 128.977 162.088C130.423 161.304 133.443 159.318 137.727 154.654C144.773 146.969 147.847 137.99 148.456 136.316C149.582 132.793 150.137 129.94 150.137 127.642C150.137 126.051 149.87 124.735 149.338 123.647C148.228 121.372 146.653 120.39 145.359 120.048C144.164 118.222 141.144 114.387 136.152 113.375C134.828 113.105 133.596 112.973 132.424 112.946C134.356 111.881 135.802 111.066 136.662 110.45C137.491 109.857 144.05 104.994 144.05 99.5692C144.05 98.9293 143.96 98.2833 143.758 97.6366C142.708 94.2582 139.809 92.8201 137.427 92.1961C137.5 91.8728 137.553 91.5395 137.553 91.1841C137.553 90.8927 137.525 90.5929 137.465 90.2787C137.294 89.3884 136.913 88.6808 136.385 88.1177C140.76 87.8971 145.896 87.3789 150.766 86.2383C157.644 84.648 161.647 83.2252 164.842 82.0914C166.311 81.5725 167.574 81.1251 168.913 80.7294C172.033 79.8011 174.498 79.1696 175.815 78.8272C177.123 78.4909 177.26 78.4559 177.595 78.2322C178.252 77.7939 178.645 77.0528 178.645 76.2767C178.645 76.2306 178.644 76.1838 178.641 76.1367C178.591 75.3225 178.119 74.6149 177.378 74.242C177.377 74.2405 177.061 74.099 177.061 74.099C172.83 72.2881 168.995 70.1043 166.561 68.5977C163.943 66.9998 161.425 65.09 159.568 63.591C161.805 63.069 164.499 62.5105 166.142 62.3964C172.419 61.9711 176.49 63.1877 177.936 63.7356C179.937 64.4904 181.2 65.6835 181.215 65.6911L183.513 67.8825L184.586 64.8997C184.751 64.4386 188.482 53.4863 177.86 42.0728C167.512 30.9637 151.913 29.2898 141.261 32.4855C139.747 31.1464 136.657 28.6278 134.131 27.9277C130.273 26.8625 127.869 27.4294 126.446 28.1659C124.361 26.8724 120.024 24.5593 115.87 24.7647" fill="white"/>
<path d="M116.238 27.0203C110.919 27.2767 108.02 32.0803 108.02 32.0803C108.02 32.0803 107.759 32.183 107.339 32.0323C105.331 31.3095 99.0455 29.2627 91.7409 31.9022C82.5341 35.2502 81.3927 41.033 80.784 41.4134C80.571 41.5352 78.4785 41.4266 76.6675 43.0722C75.5338 44.0994 71.288 50.6812 69.2564 52.6595C66.2357 55.5129 64.3182 56.5477 61.7083 56.3727C61.1932 56.3381 62.8953 59.3326 64.5693 59.9565C67.3009 60.9685 69.3097 60.477 69.3097 60.477C69.3097 60.477 68.214 62.6531 67.8868 64.4032C67.5634 66.1533 65.9009 71.2893 66.1215 71.4795C66.3369 71.6743 67.4683 70.9636 67.8183 70.8556C68.1638 70.7483 68.8379 70.4934 68.8379 70.4934C68.8379 70.4934 68.6523 72.8826 67.6814 75.9034C66.9943 78.0339 65.1172 81.0318 65.3683 81.2144C65.6559 81.426 66.989 81.2864 67.7499 81.1576C68.5047 81.0275 69.7053 80.7186 69.7053 80.7186C69.7053 80.7186 69.2207 82.5675 68.7923 83.4274C68.3593 84.2872 67.0878 86.022 67.1944 86.2731C67.2611 86.4238 68.5412 86.8111 70.7402 86.5006C72.6576 86.229 74.2175 85.3745 74.2175 85.3745C74.2175 85.3745 73.7967 86.1506 73.5958 86.6604C73.4064 87.1459 73.2899 88.1974 73.0518 88.3724C72.8136 88.5451 70.2212 88.7407 69.2549 89.0047C67.9918 89.3479 66.2189 90.458 66.8581 91.9418C67.5429 93.5321 68.8212 93.3114 71.8191 93.6995C74.817 94.0883 75.5323 94.455 75.5323 94.455C75.5323 94.455 75.4961 94.4551 75.4956 94.455C75.4591 94.4871 74.1716 95.6268 74.8237 96.616C75.4803 97.6204 77.6085 97.6888 78.6434 97.7269C79.6401 97.766 80.013 97.5572 80.1043 97.7369C80.2116 97.9431 79.7627 98.122 79.5237 98.5968C79.2879 99.0685 79.448 100.157 81.5173 100.537C85.025 101.186 88.099 101.215 88.6849 101.245C89.2731 101.275 89.56 101.411 89.56 101.48C89.56 101.686 89.4359 101.541 87.3001 101.725C85.4739 101.882 82.2021 101.913 80.6575 101.608C78.6259 101.205 78.2683 100.451 78.2302 99.926C78.1992 99.5129 78.358 98.739 78.3086 98.6782C78.2602 98.6195 74.915 99.398 73.8649 97.8336C72.541 95.8704 74.011 94.5389 74.1046 94.4552C72.9557 94.4718 71.411 94.5442 69.7066 94.8942C67.2033 95.4094 63.5586 97.4052 63.5586 97.4052C63.5586 97.4052 61.6411 88.9592 59.4345 88.9592C57.3649 88.9903 57.6465 91.4778 57.4258 91.4473C57.0073 91.3956 55.4322 86.2504 54.6409 84.1199C53.8572 82.0123 51.8788 77.4697 50.0451 77.599C48.2113 77.7276 48.1276 81.0231 48.2569 84.3025C48.3855 87.582 48.3209 90.9984 48.2347 90.9984C48.1487 90.9984 47.2607 89.4082 46.4466 86.7222C45.7542 84.4547 45.0617 82.3927 44.3313 82.446C43.0073 82.5403 43.0606 85.7939 42.9465 85.7482C42.8384 85.7045 41.242 81.1905 39.7735 79.098C38.305 77.0055 36.669 74.4109 35.1092 75.0652C32.7428 76.0544 33.1689 79.6535 33.7243 83.5112C34.3194 87.6429 35.8625 93.479 35.8625 93.479C35.8625 93.479 32.1873 87.057 30.4982 88.769C28.9992 90.2832 30.1642 92.3452 30.7881 93.9964C31.4371 95.716 32.4392 97.3063 32.3403 97.3824C31.9477 97.6974 30.6739 96.1421 29.8141 96.4997C28.8934 96.8771 29.366 98.1052 29.1932 98.0824C29.0205 98.0605 24.8789 92.9692 22.6647 94.1638C20.4429 95.366 23.6387 101.24 24.2626 102.305C24.8888 103.34 26.9182 107.015 26.9638 107.122C27.0064 107.229 26.142 107.273 25.5181 107.317C24.8919 107.359 24.293 107.198 24.0876 107.713C23.9217 108.126 24.0745 109.022 25.7768 110.772C27.4812 112.522 28.5997 113.42 28.478 113.58C28.2064 113.93 23.5398 111.982 23.0376 113.192C22.7157 113.968 23.7924 114.919 23.7924 114.919C23.7924 114.919 22.0499 114.579 20.8249 114.171C19.3868 113.69 17.827 113.63 17.6596 114.034C17.4602 114.514 19.5846 116.705 21.0912 117.679C24.3631 119.794 24.9565 119.512 25.0174 119.642C25.0819 119.772 21.076 119.231 21.2434 120.053C21.4427 121.035 24.987 122.899 26.1131 123.569C27.2316 124.238 29.7274 125.319 29.6665 125.425C29.6009 125.533 28.9969 125.425 28.3045 125.425C27.6128 125.425 26.8207 125.391 26.7294 125.801C26.6419 126.212 27.2088 127.034 29.385 128.145C31.3557 129.149 32.2536 129.415 32.2155 129.522C32.1718 129.63 29.9252 131.082 29.7122 133.669C29.5577 135.518 31.1807 136.796 32.3677 136.925C33.5547 137.054 34.3993 136.839 34.3993 136.839C34.4499 138.513 34.4067 138.399 34.7402 139.487C35.0635 140.545 35.9119 141.329 35.9348 141.329C35.9566 141.329 35.7628 141.87 35.5696 142.28C35.3748 142.689 35.2226 143.406 35.2226 143.406C35.2226 143.406 34.5865 143.091 31.3344 143.886C28.8006 144.505 24.8439 145.994 23.6493 146.427C22.4167 146.859 21.4808 147.508 21.6786 147.66C21.8764 147.812 22.5004 147.702 23.4287 147.897C24.357 148.092 26.7538 148.764 27.918 148.871C29.0821 148.979 30.0333 149.087 30.0333 149.087C30.0333 149.087 30.0036 149.345 30.0254 149.648C30.0461 149.949 30.0756 150.338 30.0756 150.338C30.0756 150.338 29.5795 150.619 29.1245 150.986C28.671 151.353 28.3027 151.846 28.3027 151.846C28.3027 151.846 25.3428 149.654 22.4742 151.024C19.5295 152.432 18.8904 155.3 19.0426 156.335C19.2899 157.994 19.6665 158.785 19.6665 158.785C19.6665 158.785 18.2512 161.677 20.6252 164.705C22.8775 167.581 27.8918 168.936 31.8865 168.844C36.1399 168.742 37.8139 167.87 38.1791 167.893C38.5459 167.914 44.7228 170.67 55.071 169.514C63.517 168.57 71.2781 164.804 71.2781 164.804C71.2781 164.804 72.351 166.653 74.6032 166.744C76.4066 166.821 78.2327 165.641 80.6524 160.505C83.072 155.369 83.5057 153.763 83.5057 153.763C83.5057 153.763 84.746 155.78 86.0395 156.731C87.3331 157.682 88.1244 158.412 89.2048 158.215C90.2853 158.02 90.4527 156.274 90.6429 156.251C90.8377 156.23 91.4419 157.126 93.9072 158.618C95.7714 159.744 97.8943 161.091 98.8682 160.611C99.2327 160.433 98.1804 158.26 98.1804 158.26L98.7168 158.505C98.7031 158.434 98.9261 158.967 99.6451 159.525C100.316 160.048 101.175 160.2 101.175 160.286C101.175 160.372 98.9451 161.062 97.0505 163.892C93.2536 169.561 94.9047 173.784 95.6884 173.708C96.2013 173.686 94.7982 172.232 99.5005 167.803C102.171 165.292 104.279 164.942 104.279 164.942C104.279 164.942 105.268 167.217 106.44 168.595C107.254 169.546 109.248 170.322 109.894 170.733C110.542 171.144 111.485 173.746 114.878 173.784C117.534 173.81 121.567 170.756 123.4 168.465C126.581 164.509 127.699 160.856 127.699 160.856C127.699 160.856 130.941 159.654 136.602 153.514C142.484 147.115 145.733 139.513 146.874 135.937C148.624 130.451 148.86 126.882 147.871 124.828C146.471 121.975 144.492 122.248 144.492 122.248C144.492 122.248 141.692 116.808 136.123 115.674C131.063 114.647 126.84 115.307 124.024 119.874C121.703 123.709 122.251 126.859 121.65 127.103C121.046 127.34 120.06 127.709 118.523 129.089C116.994 130.474 116.126 132.308 115.997 132.437C115.868 132.565 113.912 132.769 113.471 133.297C113.257 133.555 112.974 135.64 112.154 137.466C110.549 141.043 110.229 141.073 110.229 141.073C110.229 141.073 108.502 138.676 106.668 136.979C104.796 135.26 101.707 133.365 101.578 133.213C101.448 133.061 101.513 133.126 101.621 132.932C101.729 132.737 109.763 125.491 115.47 121.367C124.144 115.089 133.351 110.79 135.862 109.04C138.365 107.244 143.425 102.489 142.185 98.5397C141.127 95.1385 137.3 94.3319 135.443 94.1417C135.436 94.1478 134.849 94.6492 134.363 94.9482C134.082 95.1217 133.503 95.283 133.579 95.4238C133.627 95.5121 134.261 95.4364 136.014 95.8872C137.764 96.3369 138.989 97.7514 138.167 99.4102C137.14 101.48 133.845 103.062 131.471 103.603C127.492 104.508 124.349 104.337 124.38 104.44C124.405 104.542 124.946 104.8 125.27 105.802C125.639 106.951 124.364 108.328 123.018 108.739C122.089 109.022 118.703 108.648 118.719 109.008C118.723 109.136 120.453 111.291 117.319 112.729C115.287 113.665 110.044 114.213 106.97 113.992C103.592 113.752 102.823 113.85 102.839 113.567C102.851 113.28 105.274 113.22 112.806 112.434C117.669 111.925 117.996 110.813 117.92 110.121C117.844 109.428 116.733 108.576 116.672 108.431C116.607 108.29 116.607 108.059 117.135 108.084C117.662 108.109 120.339 108.045 122.127 107.53C123.686 107.082 124.204 106.245 124.151 105.742C124.099 105.239 122.705 104.182 122.5 104.068C122.293 103.953 122.126 103.571 122.706 103.567C124.212 103.554 129.333 102.517 132.369 101.764C135.42 101.003 137.224 99.2983 137.338 98.2635C137.416 97.5733 136.12 96.6884 134.157 96.4069C132.148 96.1238 131.388 96.1489 131.38 95.853C131.374 95.7198 132.24 95.1978 132.742 94.9779C133.237 94.7611 134.385 94.0953 134.423 94.0725C134.423 94.0725 134.407 94.0713 134.407 94.0713C134.407 94.0713 136.195 92.8539 135.83 90.9517C135.528 89.3918 134.194 88.4635 128.449 88.2429C124.15 88.0808 121.669 88.1668 121.647 88.1462C121.625 88.1244 121.819 87.606 121.927 87.1342C122.035 86.6602 122.099 86.0994 122.121 86.1223C122.143 86.1441 137.263 87.6364 150.731 84.5244C160.547 82.2493 164.351 80.3623 168.764 79.0383C173.566 77.6078 176.754 76.885 176.906 76.8013C177.035 76.7153 177.128 76.4748 176.913 76.3676C176.696 76.258 172.096 74.4196 165.956 70.6456C160.553 67.3433 155.607 62.8845 155.607 62.8845C155.607 62.8845 163.003 60.8909 166.412 60.6626C172.614 60.2426 176.913 61.3414 179.043 62.1312C181.516 63.0671 183.023 64.5356 183.023 64.5356C183.023 64.5356 186.622 54.4157 176.73 43.8392C167.067 33.491 151.849 31.5127 141.044 35.0889C141.044 35.0889 136.783 31.0181 133.907 30.2192C128.451 28.705 126.838 30.9717 126.838 30.9717C126.838 30.9717 121.276 26.8857 116.338 27.1292L116.238 27.0203ZM134.347 93.9792C134.36 93.9791 134.743 93.9732 135.359 94.0361C135.359 94.0361 135.364 94.0327 135.364 94.0327C135.364 94.0327 135.012 93.9985 134.884 93.9881C134.729 93.9755 134.369 93.9681 134.369 93.9681C134.369 93.9681 134.351 93.979 134.35 93.9792L134.347 93.9792ZM74.0843 94.4472C74.7676 94.4373 75.4539 94.4364 75.4767 94.4372C75.4773 94.4367 75.4834 94.4316 75.4834 94.4316C75.4834 94.4316 75.0224 94.4115 74.6997 94.4115C74.3786 94.4115 74.1009 94.4316 74.1009 94.4316C74.1009 94.4316 74.0873 94.4445 74.0843 94.4472ZM109.314 46.2824C111.817 46.3027 114.648 48.6945 114.648 48.6945C114.648 48.6945 111.513 47.1803 109.717 48.6677C108.112 49.9993 109.101 52.0537 109.101 52.0537C109.101 52.0537 110.166 52.3907 111.201 52.6715C112.205 52.9432 113.446 53.3982 113.446 53.3982C113.446 53.3982 112.685 53.6478 111.794 53.7908C110.676 53.9681 110.174 54.1553 110.174 54.1553C110.174 54.1553 112.806 57.9369 116.086 58.0206C118.201 58.0747 119.419 55.951 119.419 55.951C119.419 55.951 119.895 57.9141 117.676 58.9185C115.774 59.7859 112.137 58.3052 109.458 55.639C106.712 52.9226 104.893 48.4105 107.693 46.7365C108.196 46.4299 108.758 46.3081 109.329 46.3127L109.314 46.2824ZM62.747 106.013C63.6829 106.013 64.7101 106.044 65.5471 106.07L66.833 106.101L70.3635 106.013C71.0872 106.013 71.4592 106.264 71.4592 106.756C71.4592 106.88 71.4165 107.497 70.569 107.497C70.3133 107.497 70.1619 107.523 69.8393 107.577C69.4162 107.655 69.21 107.802 69.153 108.794C69.0966 109.715 69.0961 110.514 69.0961 114.95V115.18C69.5389 114.714 70.1157 114.122 70.7396 113.468C72.269 111.885 73.9963 110.089 74.4985 109.504L74.621 109.36C75.1939 108.684 75.846 107.922 75.846 107.625C75.846 107.559 75.8405 107.532 75.836 107.515C75.8268 107.514 75.8171 107.512 75.8125 107.51C75.6056 107.464 75.0577 107.344 75.0577 106.75C75.0577 106.473 75.181 106.007 76.0088 106.007L77.3556 106.047L79.0144 106.095L84.5994 106.092L88.1756 106.006C88.4526 106.006 89.2941 106.007 89.2941 106.75C89.2941 106.925 89.2268 107.49 88.343 107.49C88.0683 107.49 87.9207 107.515 87.5897 107.57C87.1666 107.648 86.9597 107.795 86.9019 108.788C86.8443 109.701 86.845 110.5 86.845 114.928V118.999C86.845 123.207 87.682 124.759 88.9451 125.786C90.1017 126.737 91.281 126.866 92.2778 126.866C92.9535 126.866 94.6594 126.726 95.9529 125.436C97.3834 124.005 97.4976 121.586 97.4976 118.565V114.928C97.4976 110.5 97.4982 109.708 97.4419 108.788C97.3901 107.92 97.244 107.715 96.5516 107.57C96.3918 107.53 95.9657 107.497 95.6233 107.497C94.7407 107.497 94.6494 106.978 94.6494 106.756C94.6494 106.264 95.0169 106.013 95.745 106.013C96.3408 106.013 97.3962 106.027 99.0169 106.096C99.0169 106.096 99.0812 106.099 99.0938 106.099C99.103 106.099 99.9155 106.074 99.9155 106.074C100.657 106.048 101.673 106.013 102.411 106.013C103.135 106.013 103.499 106.264 103.499 106.756C103.499 107.032 103.369 107.497 102.495 107.497C102.219 107.497 102.07 107.522 101.739 107.576C101.316 107.655 101.112 107.801 101.055 108.794C100.998 109.707 100.997 110.506 100.997 114.934V118.046C100.997 121.478 100.644 124.963 98.0679 127.177C95.7852 129.14 93.4721 129.384 91.7068 129.384C90.3829 129.384 87.286 129.385 84.9273 127.253C83.0555 125.564 82.1804 123 82.1804 119.188V114.942C82.1804 110.521 82.1811 109.722 82.1224 108.802C82.058 107.691 81.7207 107.599 81.3539 107.599C80.5854 107.599 79.2158 108.764 77.9755 109.897C77.1081 110.696 73.3721 114.44 72.0101 115.847C73.5167 117.461 80.0756 124.522 80.0756 124.522C80.0756 124.522 83.4312 128.166 83.454 128.189C84.5725 129.262 85.9041 130.426 87.3041 130.974C88.2857 131.365 88.8564 131.504 89.0618 131.504C89.6568 131.504 89.9216 131.862 89.9216 132.218C89.9216 132.987 89.0618 132.994 88.7422 132.994H86.2008C85.3106 132.994 84.7779 132.994 84.1464 132.934C82.4344 132.775 81.5518 132.067 80.2658 130.918L80.2457 130.9C80.2457 130.9 69.8215 119.41 69.1367 118.649V120.133C69.1367 122.804 69.1373 125.102 69.2234 126.342C69.2982 127.385 69.6997 127.445 69.8618 127.476C70.2377 127.531 70.8662 127.588 71.2238 127.588C71.8165 127.588 72.0836 127.958 72.0836 128.301C72.0836 128.429 72.033 129.077 71.0488 129.077C70.0596 129.077 69.0096 129.045 68.1574 129.02L66.8486 128.988L65.4943 129.022C64.7257 129.047 63.8431 129.077 63.1735 129.077C62.2148 129.077 62.1082 128.537 62.1082 128.301C62.1082 128.134 62.1767 127.588 63.0594 127.588C63.3812 127.588 63.6833 127.555 64.0181 127.48C64.2449 127.434 64.3666 127.122 64.4815 126.293C64.6245 125.099 64.6245 122.801 64.6245 120.138V115.002C64.6245 110.566 64.6241 109.767 64.5665 108.846C64.5148 107.986 64.3603 107.766 63.6763 107.621C63.5097 107.58 63.0722 107.547 62.6567 107.547C61.7741 107.547 61.6828 107.029 61.6828 106.806C61.6828 106.622 61.6835 106.063 62.8013 106.063L62.747 106.013ZM46.0833 112.853C46.3656 112.906 46.6966 113.888 46.9735 114.512C47.2672 115.179 48.7008 116.696 49.8345 117.814C50.9759 118.94 52.5661 120.47 52.6498 120.417C52.7313 120.367 52.764 118.834 52.78 117.715C52.7961 116.597 52.9116 113.957 53.0752 113.972C53.2388 113.988 55.9666 119.367 56.8797 121.01C57.7547 122.593 59.3526 125.02 58.8352 125.347C58.648 125.464 58.0667 124.681 57.709 124.077C57.3514 123.474 56.1035 121.474 55.5253 120.645C54.6959 119.443 53.8513 117.746 53.7676 117.814C53.6862 117.88 53.6375 119.245 53.6542 119.732C53.6704 120.22 53.7356 121.672 53.6542 121.961C53.5728 122.255 53.2144 122.287 53.0524 122.139C52.8888 121.993 52.1926 121.31 51.7512 120.952C51.3115 120.593 50.3816 119.864 49.4914 119.065C48.5935 118.266 46.6228 115.938 46.5467 115.991C46.4653 116.041 46.5953 117.376 46.6433 118.107C46.6928 118.839 46.3154 119.636 46.1039 119.666C45.8923 119.699 43.9886 118.677 42.8701 118.061C41.7439 117.441 40.0547 116.356 39.9406 116.433C39.8264 116.514 40.8841 117.848 41.8428 119.75C42.5322 121.112 42.6494 122.04 42.3747 122.253C42.0985 122.465 40.929 121.916 39.955 121.623C38.9811 121.329 38.2506 121.037 38.2126 121.134C38.1793 121.231 39.1866 122.283 39.7116 122.976C40.4276 123.919 40.8377 124.505 40.8529 124.779C40.8691 125.055 40.6247 125.153 40.3971 125.267C40.1696 125.381 39.729 125.429 38.8829 125.462C38.0383 125.494 36.9503 125.527 37.0111 125.64C37.0756 125.754 38.2286 126.926 39.4536 127.885C41.4319 129.445 42.0559 130.015 42.2385 130.129C42.4181 130.242 42.7932 130.308 42.7437 130.698C42.7242 130.848 42.4181 130.991 42.2385 131.024C42.0605 131.057 41.47 131.431 40.8689 131.772C40.2678 132.114 39.0427 132.701 39.1264 132.799C39.2101 132.898 43.0146 133.857 44.4983 134.017C45.6549 134.145 46.7811 134.08 46.8572 134.408C46.9216 134.7 46.2553 134.912 45.7158 135.192C45.1771 135.468 43.9429 135.896 44.0571 136.021C44.1872 136.169 47.131 137.277 51.2475 137.368C55.8661 137.478 56.3912 136.752 56.7792 136.896C57.0889 137.01 57.1057 137.255 56.796 137.418C55.2285 138.24 52.3599 138.666 49.1109 138.392C46.0369 138.127 42.3618 136.315 42.3618 136.087C42.3618 135.972 42.899 135.745 43.1759 135.581C43.4521 135.419 44.3021 135.012 43.8592 134.963C43.4209 134.914 41.7744 134.804 39.7732 134.104C38.2286 133.565 36.0904 132.917 36.1285 132.78C36.1779 132.585 36.6505 132.779 39.1417 131.623C40.283 131.095 41.2113 130.596 41.158 130.52C41.1097 130.438 39.6286 129.736 37.8253 127.963C36.5546 126.715 34.8959 124.79 35.01 124.691C35.1241 124.594 36.0676 124.675 36.897 124.659C37.7264 124.643 38.7536 124.577 38.9134 124.561C39.0755 124.544 39.2786 124.336 39.2786 124.174C39.2786 124.011 39.0245 123.781 38.2742 122.607C37.5255 121.435 35.9155 119.662 36.0144 119.548C36.1125 119.434 37.4448 119.939 38.7003 120.377C39.9558 120.817 40.945 121.275 41.158 121.192C41.3711 121.108 40.7023 119.632 39.9558 118.019C39.3205 116.649 37.4829 114.267 37.6655 114.229C37.8116 114.197 40.2373 115.759 42.0939 116.626C43.5701 117.312 45.381 118.171 45.5256 118.072C45.6732 117.974 45.5756 117.471 45.5423 115.842C45.5101 114.214 45.5921 112.966 45.9981 112.852C46.0164 112.847 46.035 112.846 46.0538 112.85L46.0833 112.853ZM59.5512 126.778C59.7178 126.756 60.268 127.546 60.268 127.813C60.268 128.166 59.3625 130.681 59.157 131.678C58.9486 132.675 58.3885 136.639 58.3885 136.639C58.123 136.506 57.3841 135.033 57.5896 133.595C57.7966 132.157 58.6244 129.433 58.8679 128.627C59.1144 127.813 59.3914 126.793 59.5565 126.77L59.5512 126.778ZM100.411 134.181C100.464 134.172 100.495 134.191 100.5 134.239C100.576 134.865 97.7839 138.964 97.0459 140.22C96.3063 141.475 94.1621 146.277 93.7436 147.524C93.3259 148.78 93.8395 149.29 93.0603 149.442C92.2842 149.593 91.5081 148.148 90.9374 147.03C90.3683 145.911 90.4261 142.518 90.4261 142.518C90.4261 142.518 88.6912 145.622 88.0749 146.634C87.4304 147.699 85.1074 152.143 84.5443 151.664C84.052 151.245 87.1238 145.744 87.8467 144.321C88.5695 142.898 91.2022 137.747 91.8337 137.96C92.4988 138.187 91.6816 141.209 91.8337 144.359C91.9319 146.368 92.8762 147.699 92.9142 147.509C92.9453 147.355 93.4461 144.488 95.5926 140.334C97.3655 136.902 99.9144 134.27 100.417 134.186L100.411 134.181ZM117.075 137.354C117.569 137.352 118.232 137.391 119 137.503C120.537 137.728 121.823 138.212 121.891 138.386C121.891 138.386 121.616 139.113 121.373 139.74C121.131 140.364 120.767 141.14 120.628 141.178C120.489 141.213 119.746 141.178 117.653 140.59C115.561 140.001 115.021 140.296 115.021 140.192C115.021 140.087 115.245 139.157 115.469 138.602C115.695 138.049 115.972 137.567 116.163 137.461C116.258 137.408 116.582 137.365 117.076 137.363L117.075 137.354ZM57.8011 137.972C57.8011 137.972 58.2873 138.356 58.1823 139.638C58.0773 140.924 57.846 142.043 57.846 142.53C57.846 143.017 58.0431 144.059 58.0089 144.196C57.9743 144.335 57.8232 144.412 57.248 144.479C56.691 144.544 56.3425 144.649 56.3425 144.649C56.3425 144.649 56.8645 142.906 56.9687 142.389C57.0722 141.867 56.6902 140.89 56.8637 139.711C57.0014 138.775 57.8072 137.968 57.8072 137.968L57.8011 137.972ZM45.1702 141.35C45.1702 141.35 45.4487 141.559 45.4837 141.802C45.5183 142.046 45.6937 142.989 45.7972 143.438C45.9022 143.89 46.1807 144.586 46.1807 144.586C46.1807 144.586 45.3818 145.005 44.7198 145.248C44.0586 145.492 43.4643 145.77 43.3273 145.734C43.1881 145.699 42.9796 144.828 43.0846 144.516C43.1881 144.204 43.2239 143.543 43.2239 143.368C43.2239 143.194 43.6401 142.776 44.1978 142.325C44.7548 141.873 45.1717 141.351 45.1717 141.351L45.1702 141.35ZM50.1009 147.369C50.1108 147.37 50.1187 147.371 50.1243 147.375C50.2125 147.43 50.5998 147.827 50.8654 148.174C51.1309 148.517 51.6339 149.246 51.573 149.3C51.4513 149.421 51.0648 149.597 50.6447 149.731C50.2247 149.864 49.4577 150.199 49.4045 150.195C49.2827 150.184 48.6436 149.465 48.4457 149.198C48.2464 148.932 47.6772 148.353 47.7381 148.277C47.8048 148.2 48.7349 147.869 49.0469 147.77C49.3368 147.677 49.9599 147.359 50.1045 147.366L50.1009 147.369Z" fill="#0051BA"/>
<path d="M117 28.5403C116.342 28.5413 115.638 28.6046 114.884 28.7397C111.186 29.4001 108.995 33.1225 108.995 33.1225C108.995 33.1225 111.361 34.591 112.822 35.3747C114.192 36.109 114.77 36.341 115.835 36.4476C116.901 36.5533 117.935 36.5488 118.019 36.8668C118.089 37.1369 117.531 37.8027 116.733 37.8103C114.664 37.8276 115.196 38.0203 108.287 34.4472C102.154 31.2742 97.026 32.2101 96.9499 32.2253C96.2651 32.3311 89.6681 33.0015 85.3843 37.0799C83.0712 39.2789 82.2266 41.7518 82.2874 42.1779C82.4039 42.954 82.7881 43.1366 83.0422 43.829C83.2667 44.4377 83.2545 45.5943 82.9098 45.5334C82.4746 45.4598 81.7761 43.2127 79.988 43.1747C79.0216 43.1574 77.6597 43.1127 74.9889 47.3444C73.2465 50.1141 70.9105 52.8609 69.9746 53.8196C69.0463 54.7783 66.4441 56.9165 65.6223 57.2284C64.0472 57.8189 63.7352 57.4445 63.6287 57.6309C63.5214 57.8174 64.3972 59.1147 66.7408 59.2973C69.792 59.5294 72.2345 57.6081 72.3714 57.6766C72.4232 57.7042 70.317 61.2528 69.7387 62.8126C69.1026 64.5399 68.8789 65.6736 68.5365 66.7008C68.2177 67.6672 68.0343 68.6791 67.8297 69.0139C67.7269 69.1844 70.4091 68.4205 72.2048 67.0813C74.3049 65.5138 75.2636 64.129 75.2636 64.129C75.2636 64.129 75.1213 66.3812 73.3309 67.7585C71.6417 69.0596 70.4471 69.4781 70.021 70.102C69.9419 70.2169 69.9092 72.5826 69.2822 74.6142C68.1713 78.236 67.0756 79.8795 67.0756 79.8795C67.0756 79.8795 68.8789 79.8586 71.4127 78.2132C73.878 76.6153 74.9204 75.4892 74.9204 75.4892C74.9204 75.4892 75.1251 76.8664 73.3834 78.3958C71.9225 79.6741 71.2605 79.9024 71.1083 80.0926C71.0277 80.2007 70.6906 81.9112 70.3703 82.8242C69.9 84.171 69.0692 85.2439 69.1909 85.4189C69.3256 85.6061 71.679 85.132 74.365 83.2808C76.1683 82.0405 78.1771 80.747 78.1771 80.747C78.1771 80.747 76.8531 82.5427 75.902 84.6047C74.7302 87.1461 74.1367 88.5538 74.2889 90.2125C74.2969 90.3084 75.94 89.3831 77.4238 88.8734C78.5727 88.4784 79.9423 88.1125 81.487 86.37C82.6055 85.1145 83.8838 83.6003 83.8838 83.6003C83.8838 83.6003 83.2036 85.3047 82.9327 86.9026C82.6671 88.5005 82.6291 90.8669 82.8254 91.0799C82.9281 91.1903 86.7136 88.881 87.8853 87.5418C89.7191 85.4417 91.2942 82.5123 91.2942 82.5123C91.2942 82.5123 91.4007 82.6743 91.4266 82.8623C91.453 83.0487 91.0963 86.7352 91.2112 88.0896C91.3512 89.7179 91.4365 90.1517 91.5521 92.2517C91.5832 92.811 91.5178 93.2181 91.651 93.3018C91.7834 93.3824 91.9767 93.0941 92.5108 92.8536C93.045 92.6139 96.5512 91.309 98.5067 89.5665C101.931 86.5153 102.676 84.6055 102.676 84.6055C102.676 84.6055 101.944 88.4632 101.893 89.8329C101.803 92.1003 102.081 95.7678 102.348 95.9504C102.615 96.1369 103.778 95.0298 105.247 94.1852C105.966 93.7735 107.354 93.0438 109.668 89.9165C111.121 87.9534 112.186 86.5686 112.353 86.5229C112.531 86.4746 111.41 89.4828 111.402 90.4644C111.394 91.5677 111.927 93.3178 112.209 94.0863C112.433 94.695 112.487 95.0222 112.666 95.8744C112.666 95.8744 115.238 93.3786 116.806 91.7199C120.359 87.9686 120.138 85.8457 120.138 85.8457C114.858 85.2644 109.866 83.5402 106.746 82.4217C98.6049 79.4694 94.0395 75.7258 89.3219 71.3126C86.5827 68.7484 85.6772 66.1309 86.2631 64.7841C86.6047 63.9928 87.4044 63.6732 87.4044 63.6732C87.4044 63.6732 83.4402 59.0317 84.0413 54.8468C84.3936 52.3967 87.899 51.438 94.3895 52.6935C102.759 54.2914 111.205 59.0165 111.205 59.0165C111.205 59.0165 107.994 56.7871 106.739 55.0218C105.483 53.2642 104.844 51.8793 104.844 51.8793C104.844 51.8793 102.668 52.2331 100.393 51.6389C98.1103 51.0431 95.957 50.5965 94.3286 47.7431C93.8341 46.8757 94.4762 47.196 95.1732 48.0908C95.225 48.1575 95.7332 48.6113 96.4515 48.6501C97.357 48.7007 100.111 48.2658 104.213 44.6858C108.474 40.9574 112.126 38.1497 114.637 39.1389C117.171 40.128 118.076 42.4944 116.585 44.4423C115.094 46.3902 114.743 47.1892 114.743 47.1892C114.743 47.1892 115.303 47.5369 116.128 48.3914C116.958 49.2436 117.863 50.073 117.863 50.073C117.863 50.073 120.77 46.4206 127.983 41.7792C135.234 37.1149 138.788 35.8061 138.788 35.8061C138.788 35.8061 137.586 33.805 134.413 32.3365C132.229 31.3245 130.555 31.1114 129.619 31.2179C128.895 31.3016 128.029 31.6562 127.991 32.1462C127.969 32.4361 128.429 32.7184 129.102 33.0593C129.916 33.4702 130.471 33.5706 130.578 33.7852C130.685 33.9983 130.88 34.4875 130.703 34.5088C129.805 34.6169 128.808 34.2433 128.321 33.9724C127.065 33.2739 124.151 31.2179 122.066 30.0309C120.476 29.1255 118.886 28.5624 116.907 28.5624L117 28.5403ZM146.751 65.5199C146.633 65.5183 146.505 65.5341 146.37 65.5801C144.506 66.2177 140.884 67.4823 138.883 68.2128C136.836 68.9585 131.609 71.2868 130.589 71.6673C129.547 72.0409 129.197 72.3011 128.862 72.3125C127.972 72.3447 127.218 72.5826 127.675 72.8596C127.752 72.9068 133.382 72.9433 137.11 72.8652C141.637 72.7723 147.839 72.7457 148.295 72.7046C148.915 72.654 149.893 72.2352 151.993 71.1676C154.147 70.0719 154.611 70.0034 154.983 69.8893C155.556 69.7097 155.221 69.5941 155.221 69.5941V69.5929C155.097 69.51 153.136 68.8412 151.424 67.9722C150.032 67.2661 147.338 65.6972 147.338 65.6972C147.338 65.6972 147.082 65.5328 146.729 65.5275L146.751 65.5199ZM117.456 133.848C115.683 133.908 114.641 134.278 114.473 134.372C114.208 134.524 113.355 136.875 113.035 137.842C112.712 138.808 111.186 142.019 111.148 142.186C111.11 142.354 111.072 142.698 111.09 142.832C111.11 142.964 111.148 143.077 111.185 143.134C111.225 143.191 111.357 143.419 111.433 143.551C111.509 143.685 111.565 143.817 111.68 143.837C111.793 143.855 115.127 143.963 117.6 144.481C120.765 145.146 122.926 146.422 123.124 146.361C123.561 146.227 123.75 143.933 125.079 141.293C125.863 139.748 127.111 137.382 127.24 137.192C127.373 137.003 127.372 136.907 127.372 136.907C127.068 136.377 124.397 134.792 121.414 134.191C119.854 133.877 118.53 133.802 117.465 133.838L117.456 133.848ZM118.041 136.177C118.499 136.19 118.947 136.224 119.32 136.29C120.895 136.569 123.413 137.675 123.573 137.827C123.573 137.827 123.573 137.96 123.497 138.074C123.421 138.188 122.8 139.588 122.379 140.577C121.847 141.833 121.427 143.271 121.313 143.255C121.201 143.236 119.495 142.38 117.273 141.794C114.694 141.111 113.309 141.737 113.134 141.471C113.072 141.375 113.816 139.63 114.062 138.907C114.309 138.186 114.937 136.419 115.066 136.343C115.165 136.286 116.664 136.132 118.042 136.171L118.041 136.177ZM51.0062 144.471C50.752 144.403 50.4858 145.012 49.941 145.543C49.5301 145.946 48.2974 146.32 47.9169 146.273C47.274 146.198 46.9658 146.008 46.9658 146.008C46.9658 146.008 46.3138 146.272 45.0332 147.058C43.7473 147.841 42.9787 148.557 43.0244 148.808C43.2116 149.865 43.3439 149.522 44.9114 151.258C46.4788 152.993 47.3539 154.492 47.468 154.545C47.5784 154.6 50.0018 153.267 52.0258 152.62C54.8031 151.722 57.5347 151.418 57.7402 151.25C57.8277 151.181 56.5608 149.173 55.4118 148.024C54.654 147.266 53.89 146.723 53.7226 146.662C53.1922 146.485 52.8628 146.614 52.6041 146.463C52.0068 146.109 51.1584 145.155 51.1508 144.942C51.1393 144.731 51.1575 144.507 51.0146 144.47L51.0062 144.471ZM50.4096 146.32C50.542 146.341 51.3684 147.195 51.9543 147.819C52.5295 148.438 53.6054 150.01 53.5598 150.017C53.516 150.029 51.9239 150.648 51.2847 150.862C50.644 151.073 49.0705 151.768 48.9715 151.745C48.8711 151.723 47.9596 150.74 47.3813 150.04C46.7619 149.288 45.791 148.237 45.8443 148.153C45.8995 148.065 47.6096 147.255 48.2335 146.989C48.8529 146.724 50.2803 146.293 50.4096 146.316V146.32Z" fill="#E8000D"/>
<path d="M152.762 34.6278C152.228 34.6178 151.689 34.6222 151.141 34.6412C148.242 34.7424 145.199 35.2659 142.01 36.3076C130.216 40.2034 120.934 48.3297 119.107 51.5255C118.795 52.0779 122.554 55.6496 119.791 58.929C117.554 61.5845 113.171 59.8421 113.171 59.8421C116.983 62.2694 119.098 64.552 119.327 64.9781C119.49 65.2818 119.594 65.7041 119.594 65.7041C116.071 63.2616 112.86 61.1919 109.398 59.5332C108.082 58.9039 91.289 51.3155 86.4953 54.2221C83.7789 55.858 87.9335 61.9072 88.8618 63.0485C90.2238 64.6997 93.6478 67.6063 96.6229 69.1889C98.7153 70.3151 98.7991 70.2086 98.8295 70.7107C98.8444 70.9192 98.1675 71.1719 97.3077 70.974C96.5544 70.799 93.5108 69.0642 92.3923 68.1739C91.2738 67.2837 89.0291 65.5336 89.0291 65.5336C89.0291 65.5336 88.2979 65.2642 88.0096 65.7109C87.1193 67.0881 94.5076 75.7547 105.13 80.0158C116.619 84.6344 125.75 85.7225 142.261 84.1702C150.936 83.3561 159.762 79.9473 164.251 78.4331C167.318 77.4059 169.92 76.6526 169.92 76.5156C169.92 76.3848 164.601 75.3438 158.963 74.8341C149.376 73.9742 144.202 74.4011 136.669 74.2375C126.016 74.0062 119.929 75.0593 109.353 73.1494C106.05 72.5544 102.36 71.0722 99.9176 69.1547C96.1892 66.1948 92.0042 61.0892 93.45 60.2522C94.8652 59.4609 96.6001 61.3251 97.3077 62.0327C100.207 64.9317 99.9785 66.8492 99.9785 66.8492C99.9785 66.8492 103.623 72.1983 118.696 72.6168C126.914 72.8481 131.327 68.9797 138.404 66.6514C148.828 63.2197 149.589 61.9338 162.372 59.5218C175.459 57.0489 181.623 61.7284 181.623 61.7284C181.623 61.7284 184.05 51.6845 172.872 42.4777C167.607 38.1405 160.698 34.7926 152.709 34.6404L152.762 34.6278ZM113.88 40.1139C113.352 40.0483 111.278 40.3794 107.184 43.8423C103.09 47.3043 101.843 48.2935 100.717 48.7577C99.598 49.2188 98.411 49.4501 98.5404 49.5794C98.6727 49.7118 100.618 50.2315 101.538 50.3373C103.547 50.5686 104.704 50.2094 104.704 50.2094C104.704 50.2094 104.609 47.1354 106.157 45.8191C108.843 43.5364 113.614 46.1166 113.614 46.1166C113.614 46.1166 115.364 44.1459 115.79 43.2099C116.317 42.0534 116.053 41.4295 116.053 41.4295C115.657 40.3718 114.402 40.174 113.877 40.1131L113.88 40.1139ZM138.609 40.7751C139.705 40.7097 140.329 41.1867 140.588 41.5892C140.886 42.0481 141.706 43.3013 138.83 45.1122C135.954 46.9231 134.614 45.5528 134.302 45.288C133.988 45.0247 133.275 43.1727 136.106 41.6128C137.133 41.0482 137.962 40.8139 138.617 40.7758L138.609 40.7751ZM138.252 42.1523C137.789 42.1774 137.262 42.3471 136.829 42.6682C135.961 43.3104 135.041 43.9998 135.558 44.5704C136.073 45.1365 137.392 44.558 137.962 44.2805C138.529 44.0043 139.667 43.0859 139.286 42.5076C139.117 42.2497 138.72 42.1302 138.259 42.1554L138.252 42.1523ZM153.317 63.2291C153.317 63.2291 152.229 63.5457 151.423 63.7709C150.609 63.9977 148.98 64.3591 149.026 64.4489C149.071 64.5394 152.458 66.8457 153.637 67.2946C154.809 67.7466 156.886 68.6034 157.616 68.786C158.339 68.9678 159.336 69.1025 159.336 69.2844C159.336 69.4647 157.982 70.0057 156.171 70.7757C154.36 71.5442 152.556 72.541 152.556 72.678C152.556 72.8149 158.385 73.3559 161.155 73.6747C163.955 73.9913 167.523 74.4432 168.429 74.5802C169.334 74.7156 170.278 74.9865 170.232 74.8511C170.187 74.7157 169.871 74.5794 168.923 74.1731C167.972 73.766 164.358 71.5556 162.372 70.1556C160.386 68.7555 157.038 66.0848 155.729 65.1413C154.421 64.1902 153.287 63.2467 153.287 63.2467L153.317 63.2291ZM133.154 116.492C130.391 116.384 127.865 117.306 126.549 118.577C122.919 122.085 123.117 126.871 123.117 126.871C123.117 126.871 124.51 126.782 125.552 127.571C126.188 128.055 126.45 128.865 126.312 128.918C125.921 129.071 124.82 127.975 122.484 128.364C119.555 128.857 117.44 131.994 117.576 132.23C117.735 132.513 119.737 132.15 123.253 133.051C126.266 133.827 129.02 135.722 129.34 136.422C129.446 136.652 128.282 137.533 126.342 141.414C125.064 143.97 124.508 146.603 124.326 148.239C124.274 148.702 120.955 146.07 116.96 145.522C112.707 144.937 111.231 145.124 110.493 145.372C110.034 145.526 109.351 145.222 109.222 145.101C109.033 144.93 109.042 144.514 109.042 144.537C109.042 144.423 107.703 144.402 107.695 144.415C107.53 144.723 109.788 146.805 110.374 148.334C111.728 151.903 112.025 154.733 111.637 154.84C111.23 154.952 108.312 153.759 107.079 153.15C103.48 151.378 102.97 150.48 102.651 150.571C102.41 150.64 102.831 152.61 103.329 153.744C103.919 155.091 105.33 156.658 104.752 157.023C104.175 157.39 102.963 157.241 100.856 156.262C99.0601 155.425 97.3937 154.756 97.3937 154.756C97.3937 154.756 97.2803 156.103 97.5086 156.788C97.8068 157.678 98.2063 158.5 98.2063 158.5C98.2063 158.5 98.3524 158.636 98.5541 158.757C98.7557 158.878 99.4291 159.343 99.4291 159.343C99.4291 159.343 98.7085 158.666 98.5388 158.27C98.2969 157.697 98.5373 157.54 98.6918 157.637C100.069 158.505 100.845 158.908 102.375 158.969C104.3 159.052 105.251 158.259 105.517 157.188C105.923 155.553 104.688 153.932 104.193 153.536C103.688 153.137 103.394 153.06 103.189 152.737C102.987 152.415 102.869 151.832 103.151 151.832C103.432 151.832 105.258 152.905 106.073 154.343C107.001 155.986 106.91 158.018 106.073 158.946C105.007 160.126 103.896 160.392 103.896 160.392C103.896 160.392 104.339 160.753 104.825 161.236C105.433 161.838 105.404 162.195 105.501 162.538C105.563 162.756 106.764 162.139 107.525 161.655C108.286 161.173 108.895 159.814 109.443 160.247C109.915 160.622 109.465 161.86 108.415 162.568C107.312 163.314 105.927 163.938 105.92 164.371C105.91 165.429 106.81 167.194 107.875 168.024C109.557 169.325 111.505 169.736 112.174 169.614C113.582 169.358 118.231 167.704 121.99 162.302C123.961 159.448 123.9 157.759 123.9 157.759C123.9 157.759 122.941 157.314 122.804 156.93C122.705 156.655 127.369 155.423 131.783 150.089C134.271 147.107 135.146 145.159 136.447 140.502C137.056 138.326 136.718 135.998 137.223 135.959C137.524 135.938 137.729 136.987 137.768 137.671C137.808 138.355 137.543 139.551 137.859 139.292C139.206 138.174 142.006 135.336 142.805 131.151C143.825 125.794 143.946 121.335 138.133 117.911C136.52 116.96 134.785 116.519 133.126 116.458L133.154 116.492ZM144.947 123.911C144.48 124.217 145.625 126.665 144.453 131.154C142.596 138.254 138.35 140.818 137.94 141.503C137.615 142.015 135.406 147.75 133.184 150.557C130.985 153.304 128.961 155.031 125.347 157.169C124.708 157.548 125.274 158.045 125.25 158.364C125.226 158.681 124.406 162.785 120.806 166.125C115.298 171.223 112.513 170.911 112.132 171.299C111.962 171.471 113.281 172.425 114.598 172.296C115.876 172.175 119.947 170.249 123.272 165.539C125.927 161.788 126.422 158.912 126.468 158.714C126.566 158.251 126.713 158.103 127.151 158.393C127.327 158.508 127.53 159.128 127.736 159.05C129.57 158.372 134.622 154.067 139.226 147.409C142.551 142.585 145.587 134.778 146.287 131.582C147.261 127.116 146.311 124.247 145.259 123.897C145.116 123.853 145.016 123.853 144.95 123.897L144.947 123.911ZM39.1828 139.737C39.0998 139.758 38.7453 140.635 38.3078 140.909C37.8695 141.181 37.8261 140.971 37.4099 141.411C36.9922 141.849 35.6599 143.815 37.3049 145.23C38.2028 146.006 39.9148 145.774 40.5844 145.544C41.2509 145.315 41.779 144.426 41.505 143.871C41.2539 143.369 40.7137 143.578 40.3333 143.056C39.9574 142.534 39.8745 141.907 39.6218 141.367C39.3707 140.824 39.2033 140.675 39.2475 140.431C39.3304 139.951 39.1839 139.741 39.1839 139.741L39.1828 139.737ZM33.7348 144.706C33.0454 144.768 31.8934 144.852 29.7629 145.457C27.6324 146.062 24.5812 146.918 24.5812 147.169C24.5812 147.375 28.9868 147.764 30.4705 147.733C32.4565 147.691 34.7544 146.774 35.0663 145.937C35.3791 145.1 34.4188 144.644 33.7272 144.704L33.7348 144.706ZM59.377 145.916C59.377 145.916 58.5248 145.916 57.6421 146.021C56.7671 146.124 55.679 146.334 55.679 146.334C55.679 146.334 57.0182 147.689 57.8476 148.838C58.6846 149.987 59.7651 151.714 59.6662 152.056C59.6028 152.265 58.4791 151.807 53.0844 153.418C48.8462 154.689 46.7537 156.15 46.6091 156.188C46.463 156.23 46.3375 155.313 45.7569 154.438C45.1726 153.563 44.5851 152.726 44.5014 152.726C44.4177 152.726 44.3135 154.788 43.6341 156.135C42.915 157.558 42.1427 158.592 41.7242 158.265C41.1383 157.806 42.3291 156.135 42.8732 154.628C43.2574 153.563 43.144 151.311 43.144 151.311C43.144 151.311 42.6236 150.726 42.5186 150.726C42.4136 150.726 41.7272 152.583 40.9739 153.298C40.2229 154.009 39.2239 155.094 38.8206 154.508C38.4227 153.922 40.2587 152.902 40.8446 151.601C41.4305 150.308 41.849 149.448 41.887 148.033C41.9284 146.61 41.97 146.693 41.8235 146.678C41.6774 146.658 40.5452 147.199 39.0005 147.177C36.9081 147.15 36.87 146.553 36.6798 146.512C36.4911 146.469 36.2826 147.531 34.3439 148.284C32.8221 148.873 31.6503 148.788 31.3992 149.083C31.1481 149.377 31.1489 150.902 31.6708 152.424C32.0323 153.481 33.1926 155.308 32.5078 155.536C31.7865 155.778 31.5871 155.222 30.8567 153.443C30.3628 152.241 30.3339 151.922 30.2518 151.838C30.1681 151.754 29.8751 151.712 29.729 151.795C29.5829 151.879 28.8084 152.8 28.7094 152.967C28.6105 153.135 29.2314 153.949 29.4855 154.344C29.7366 154.742 30.2997 155.767 30.0494 156.186C29.7983 156.604 29.6316 156.645 29.4855 156.457C29.3394 156.269 28.542 153.886 26.168 152.531C23.4516 150.987 20.3243 152.777 20.0276 155.369C19.6844 158.352 22.6755 161.563 28.1692 163.359C34.1422 165.299 37.6804 162.895 37.6804 162.895C37.6804 162.895 43.235 165.924 53.8114 164.836C64.6162 163.725 68.3445 161.031 69.4859 160.133C70.6348 159.266 70.7794 158.733 70.6348 158.779C70.4887 158.82 68.9 159.715 67.6674 158.548C65.4532 156.448 66.7238 151.883 66.5184 151.716C66.313 151.548 65.7423 151.881 65.0955 151.758C64.0075 151.547 63.6346 150.502 63.4216 150.525C63.0441 150.567 62.7101 152.382 61.0399 152.215C59.6855 152.079 59.054 150.792 59.1301 148.562C59.1899 146.675 59.3918 145.952 59.3918 145.952L59.377 145.916ZM112.64 151.957C113.024 151.985 113.515 152.229 113.994 152.855C115.067 154.255 114.294 157.421 113.441 157.398C112.65 157.379 113.366 155.982 113.404 155.632C113.416 155.522 113.563 154.949 113.201 153.958C112.851 153 111.771 152.878 111.915 152.361C111.98 152.121 112.261 151.933 112.645 151.96L112.64 151.957ZM20.5713 160.479C20.3849 160.391 19.3006 164.816 27.9215 167.084C30.2803 167.708 34.7544 167.257 36.5196 166.715C37.9806 166.274 38.2469 165.96 38.3686 165.939C38.5801 165.903 38.8609 165.939 38.8609 166.08C38.8609 166.22 38.8799 166.467 38.8799 166.467C38.8799 166.467 43.2855 168.445 49.6846 168.339C56.099 168.233 62.9242 166.946 67.9462 164.587C70.4419 163.408 70.6093 163.18 70.693 162.982C70.7805 162.787 70.903 162.225 70.8855 161.978C70.8671 161.731 70.8153 161.22 70.8153 161.22H70.8142C70.8142 161.22 69.0869 162.506 62.0638 164.727C58.3887 165.892 53.9983 166.63 46.9981 166.242C40.7207 165.895 38.7804 164.431 38.2478 164.339C37.773 164.251 34.9683 166.569 27.9757 164.673C22.3526 163.136 21.2798 160.846 20.5037 160.481L20.5713 160.479ZM102.748 161.408C101.942 161.41 100.496 161.809 98.761 163.812C96.4403 166.483 95.6109 169.907 95.7783 170.135C95.9457 170.363 96.2021 168.408 99.6513 165.798C103.098 163.181 103.806 163.751 104.217 163.013C104.416 162.656 104.005 161.758 103.326 161.499C103.214 161.457 103.017 161.414 102.749 161.415L102.748 161.408Z" fill="#FFC82D"/>
</svg>
