<svg width="201" height="200" viewBox="0 0 201 200" fill="none" xmlns="http://www.w3.org/2000/svg">
<path fill-rule="evenodd" clip-rule="evenodd" d="M80.5001 34.6633C81.761 40.5985 79.2181 46.2827 74.2658 49.5845C70.4561 52.1246 68.2777 52.4805 60.2842 51.8024C51.5704 51.0628 40.98 42.926 34.9746 34.6642L80.5001 34.6633Z" fill="#553A84"/>
<path fill-rule="evenodd" clip-rule="evenodd" d="M50.718 163.128C37.4722 155.851 29.1738 145.419 29.1738 133.832C29.1738 111.843 59.0644 94.015 95.9348 94.015C108.555 94.015 120.446 96.0406 130.513 99.6713C129.258 102.164 128.682 105.156 128.357 107.525C124.742 106.498 118.776 105.459 114.121 105.427C97.7305 104.93 80.6615 109.978 73.3019 125.595C67.5648 136.868 69.875 152.068 78.4994 161.291L80.4018 163.279L80.398 163.487C72.7479 166.865 62.1672 167.676 54.1045 164.513L50.718 163.128Z" fill="#553A84"/>
<path fill-rule="evenodd" clip-rule="evenodd" d="M132.921 96.4363C139.9 86.4413 152.516 82.8317 158.831 86.626C163.803 89.6133 165.922 95.0523 164.083 101.683C163.971 102.089 163.598 103.073 163.642 103.413C163.77 104.386 165.462 103.624 168.34 100.11C168.969 99.3438 170.923 96.6402 172.191 94.1164C172.404 93.9827 172.606 94.1943 172.884 94.2011C174.617 94.4473 176.412 94.9724 178.221 94.8743C181.928 91.0098 190.309 74.5026 192.256 67.5613C192.517 66.6322 192.678 66.2062 190.902 64.9366C175.575 53.9875 154.359 48.2043 133.927 45.0477C133.927 45.0477 133.557 45.0381 133.549 44.838C133.537 44.4552 134.01 44.4235 134.288 44.361C134.288 44.361 145.975 44.6889 146.166 44.6889C146.357 44.6889 146.666 44.5822 146.791 44.4542C146.919 44.3273 147.02 43.7348 146.748 43.5194C133.337 37.5072 115.561 31.5816 84.1254 34.0909L84.0513 34.2977C84.9256 38.8345 83.0443 44.6014 81.6189 47.0328C78.7403 51.9418 72.0154 56.1093 62.8726 55.7284C53.7298 55.3475 40.8677 48.9218 33.4215 39.0307L32.9387 38.8816C25.8868 40.3262 19.3111 42.6115 12.5179 44.9659L12.4766 127.148C21.1683 109.744 44.6726 95.008 73.9813 90.7165C96.2007 87.4647 116.513 89.9942 131.133 96.745C131.133 96.745 131.717 97.0643 132.108 96.9768C132.681 96.8527 132.921 96.4363 132.921 96.4363Z" fill="#553A84"/>
<path fill-rule="evenodd" clip-rule="evenodd" d="M130.845 152.782C127.871 146.913 121.688 142.837 114.713 142.837C107.221 142.837 100.626 147.426 97.9333 154.01C92.0009 149.387 88.0547 142.745 88.0547 135.325C88.0547 121.365 101.241 110.048 117.506 110.048C121.248 110.048 124.834 110.48 128.127 111.573C128.538 115.872 130.933 119.348 134.704 121.298C143.619 125.912 151.05 121.726 157.702 113.138C157.702 113.138 157.95 112.726 158.177 112.644C158.526 112.518 158.812 112.699 158.847 113.213C158.944 115.233 158.343 117.233 157.882 119.169C157.22 120.823 156.766 122.551 156.037 124.132C157.529 125.833 159.445 127.197 160.726 129.032C154.204 138.372 139.091 149.102 130.845 152.782Z" fill="#553A84"/>
</svg>
