<svg width="201" height="201" viewBox="0 0 201 201" fill="none" xmlns="http://www.w3.org/2000/svg">
<g clip-path="url(#clip0_15016_302094)">
<path fill-rule="evenodd" clip-rule="evenodd" d="M80.787 37.1749C58.3753 37.0286 37.1001 42.7342 22.4446 56.357C22.3679 55.4502 21.7192 49.2629 21.7192 49.2629L15.6228 56.9077L14.5206 58.2819C9.37988 64.7413 3.83417 72.7142 1.6581 82.8839C1.08612 85.5345 0.793192 88.1086 0.793192 90.6891C0.793192 95.5231 1.82555 100.406 3.96001 105.902C2.17405 105.548 0.0605469 105.143 0.0605469 105.143L2.91348 110.612C11.6395 127.346 26.9783 139.406 47.5626 146.263C55.8073 149.011 60.4601 149.367 63.0897 149.639C47.2275 143.871 36.4859 132.487 29.7127 121.773C31.0868 122.059 32.461 122.338 32.461 122.338L30.4469 117.225C28.7728 112.991 27.9707 107.425 27.9707 102.94C27.9707 100.645 28.166 98.6289 28.5914 97.2198C30.691 90.2791 47.927 82.6415 58.1949 83.953C57.2671 84.0578 55.0281 84.497 55.0281 84.497C55.0281 84.497 63.9216 84.8806 71.4202 86.729C78.9187 88.5775 88.0356 91.2562 96.0155 94.7719C99.5589 96.3344 110.12 101.636 117.939 106.944L116.607 104.656C116.607 104.656 117.221 104.789 118.916 105.932C121.531 107.69 124.203 111.038 124.412 111.673C124.433 112.105 124.098 112.231 122.187 112.643C119.669 113.187 117.019 113.64 117.019 113.64C117.019 113.64 119.558 116.207 123.457 117.505C127.349 118.802 129.916 118.914 132.364 118.648C134.499 121.843 138.426 125.365 145.646 127.256C156.458 130.081 165.595 127.598 172.117 124.898C173.491 127.821 174.231 130.583 174.231 132.885C174.231 133.639 174.154 134.343 173.994 134.992C173.415 137.364 168.999 141.13 166.091 142.247C163.182 143.37 162.394 143.642 161.473 143.962C162.547 144.869 165.274 146.201 166.502 146.648C168.155 147.248 170.157 147.618 171.238 147.806C176.219 148.664 181.262 148.232 185.656 146.808C191.293 144.981 195.457 141.417 197.689 136.499C199.398 132.732 200.061 129.05 200.061 125.603C200.061 116.71 195.645 109.372 193.322 106.128C194.592 104.866 195.303 103.226 195.366 101.357C195.366 101.266 195.373 101.182 195.373 101.092C195.373 96.021 190.629 90.3427 185.83 86.8273C184.498 81.1495 181.101 75.5202 175.144 69.2284C172.333 66.2499 168.922 63.3551 165.323 60.2998C162.03 57.5027 151.184 49.9904 148.282 45.9723C148.282 45.9723 150.284 50.4367 150.884 51.7758C143.609 46.8302 131.653 40.9222 124.259 38.0066L114.208 34.0377C114.208 34.0377 116.684 37.2254 118.651 39.7504C110.344 37.1068 100.975 35.1467 97.439 34.6724L97.5506 34.6926C90.129 33.6045 78.6053 33.0116 75.0135 33.2627C75.9063 33.8556 78.2152 35.4181 80.789 37.155" fill="white"/>
<path d="M187.302 98.0196C185.663 94.8109 183.431 94.2878 183.431 94.2878L183.333 98.0475C183.333 98.0475 182.468 94.8039 181.994 93.2136C180.348 87.7311 175.5 80.3652 169.871 75.1611C170.255 75.9563 170.52 76.7376 170.499 77.3933C167.458 73.6685 158.753 66.5883 158.753 66.5883L159.827 69.8667C159.827 69.8667 159.255 69.1134 158.627 68.3671C152.865 61.524 136.927 53.2307 132.086 50.7261L134.206 54.165C133.83 53.9555 133.3 53.6765 132.616 53.3349L134.764 56.9901L123.527 51.7024L129.582 51.8771C127.873 51.082 125.829 50.1821 123.562 49.2474C117.996 47.2943 111.948 45.7319 104.673 44.3647C103.383 44.1208 102.064 43.9111 100.739 43.7299C101.925 44.4972 103.996 47.3291 104.959 48.222C81.2288 44.9017 61.6907 46.5201 46.3889 52.3166C36.2815 56.9901 26.9906 64.2654 18.5293 74.6654L18.2782 73.2285C18.2639 73.2437 18.2572 73.2538 18.2433 73.269L17.4202 68.5886C14.0302 73.0389 9.87308 80.3491 8.55448 85.4621C8.54021 85.5026 8.44288 85.8943 8.43591 85.9363C7.27104 90.4772 7.15943 94.4741 7.85694 98.3525C8.81955 102.531 10.6959 106.639 13.2073 111.25L12.6911 111.145C12.9492 111.64 13.2212 112.136 13.4933 112.645L10.8914 112.123C15.272 118.938 22.1499 126.52 29.7391 131.835C24.8214 126.569 21.2292 121.344 19.0946 115.429L19.3736 115.485C19.1713 115.004 18.983 114.522 18.8086 114.034L22.4288 114.773C22.1454 113.711 21.9221 112.698 21.7267 111.686C20.025 104.245 20.4922 96.6017 22.6055 91.2361C24.3285 86.8324 31.2829 77.0125 42.9387 73.9754L41.2019 76.6121C41.9552 76.396 42.7295 76.2076 43.5386 76.0401L40.7903 79.6673C50.3743 75.6844 63.9344 74.3382 80.4105 79.1722L78.7643 79.3954C79.2596 79.5908 79.7409 79.7862 80.1943 80.0093L77.3762 80.7069C82.3706 81.9136 88.6063 83.6923 91.4035 84.6619C94.375 85.6942 98.0091 87.3962 101.587 89.2377C100.688 88.589 100.157 88.2054 100.157 88.2054C105.403 89.8237 108.918 93.2346 112.678 95.2154L112.03 94.0366C117.428 96.9942 122.297 98.6822 124.299 100.768C124.314 100.788 124.327 100.803 124.348 100.823C128.276 104.109 130.305 106.809 130.926 107.694C131.101 109.431 131.421 110.931 132.007 112.312C130.361 104.786 132.077 102.581 132.677 101.235C132.844 100.859 133.089 100.51 133.354 100.203C135.837 96.3875 141.466 94.2528 146.286 94.4132C151.287 94.5878 156.121 95.9688 160.969 98.8567C160.07 97.8383 160.021 96.4431 160.328 95.4178C160.37 95.2715 160.425 95.1318 160.481 94.9991C160.537 94.6995 160.614 94.4132 160.732 94.1481C161.004 93.5343 161.555 93.1367 162.127 92.8856C161.785 91.7347 160.572 89.3003 157.677 88.9794C155.822 88.777 154.936 89.4608 154.901 89.4955C154.929 89.4601 155.501 88.4702 156.47 88.0517C155.494 87.4866 152.99 88.0365 152.927 88.0568C153.038 88.0163 155.347 85.8386 158.898 86.9476C159.609 87.1709 160.23 87.5196 160.802 87.8336C160.307 87.1221 159.993 86.6965 159.979 86.6895C160.397 86.7047 163.076 87.4777 164.52 90.5399C164.848 91.2235 165.671 93.0093 166.124 93.9719C166.94 95.6948 168.517 98.1222 170.149 99.7894C172.807 102.51 175.729 103.458 179.043 103.437C182.433 103.417 183.681 101.171 183.695 101.08C183.681 101.163 183.779 102.726 182.774 103.905C183.521 103.5 184.455 102.531 184.706 101.854C185.041 100.933 184.811 99.1267 184.476 98.7501C184.651 98.9455 186.806 100.843 186.36 102.761C186.283 103.11 186.164 103.521 185.885 103.947C186.199 104.163 186.576 104.428 186.994 104.714L186.408 103.877L188.32 104.972C189.038 104.149 188.864 101.038 187.294 97.9548" fill="#EFAB00"/>
<path fill-rule="evenodd" clip-rule="evenodd" d="M102.423 47.0502C103.351 47.6501 104.885 49.6603 105.855 50.7275C95.6011 49.2907 86.1223 48.7744 77.4368 49.1233C93.8079 49.0727 123.433 57.5494 135.48 65.7801C145.482 72.6159 143.829 74.2119 133.108 69.4267C109.267 58.7685 89.9591 58.1769 89.9591 58.1769L76.7535 66.1846C76.7535 66.1846 98.9216 69.0864 114.253 77.2893C127.45 84.3482 122.931 84.725 109.839 80.0375C90.1964 72.9993 68.9911 71.7508 59.2256 73.0203C67.9098 73.3342 83.1437 75.3277 89.0935 77.3227C87.5869 77.7828 83.7365 79.4851 81.895 79.9175C85.1943 79.7013 121.96 90.9804 132.025 104.191C132.06 103.773 132.133 103.326 132.223 102.852C133.423 97.4043 140.447 94.2389 146.286 94.4342C151.287 94.6017 156.12 95.9813 160.967 98.8761C160.06 97.8577 160.018 96.4557 160.325 95.4303C160.597 94.5235 161.189 93.8469 161.53 93.7842C161.719 93.519 161.936 93.2971 162.181 93.1229C161.943 92.1115 160.772 89.3367 157.675 89.0019C155.812 88.7994 154.926 89.4819 154.898 89.5097C154.926 89.4844 155.498 88.4913 156.461 88.0727C155.491 87.5077 152.987 88.058 152.917 88.0783C153.036 88.0378 155.343 85.8545 158.894 86.9706C159.605 87.1867 160.227 87.5426 160.799 87.8495C160.304 87.145 159.982 86.7111 159.968 86.7111C160.393 86.7263 163.072 87.5007 164.516 90.5559C164.844 91.2464 165.667 93.0251 166.12 93.9877C166.936 95.7176 168.514 98.1366 170.146 99.8107C172.399 102.113 174.848 103.145 177.568 103.396C176.096 103.005 175.132 102.163 175.314 101.27C177.385 102.142 179.373 102.505 180.406 100.056C181.431 97.6079 180.908 89.3338 171.268 78.7867C171.372 79.3657 171.625 80.3771 171.639 81.4512C169.128 77.8799 164.022 72.5228 160.869 70.0674C161.001 70.7022 161.526 72.8031 161.784 73.6751C160.103 71.9243 155.378 67.9191 155.378 67.9191L156.355 70.9044C156.355 70.9044 155.833 70.2152 155.261 69.5317C149.995 63.2888 135.451 55.7205 131.029 53.432L132.968 56.571C132.625 56.3881 132.136 56.1295 131.515 55.8224L133.473 59.1566L123.214 54.3297L128.744 54.4888C127.189 53.7645 125.32 52.9416 123.247 52.0902C118.17 50.3046 112.646 48.876 106.005 47.6346C104.826 47.4113 103.626 47.2146 102.419 47.0542L102.423 47.0502ZM87.569 52.7176C90.5824 53.1221 94.0059 53.6788 96.3217 54.1043C108.41 56.3224 118.964 59.8325 128.324 65.1058L129.37 64.3022C120.707 59.8795 110.845 56.5324 100.061 54.5596C96.6851 53.9382 90.9732 53.0448 87.569 52.7176Z" fill="#785100"/>
<path fill-rule="evenodd" clip-rule="evenodd" d="M85.5051 36.8177C87.1722 37.9407 89.474 39.7627 90.7924 40.8299C62.1445 37.6071 35.4636 47.6793 20.0625 65.1737L19.7835 61.8673L19.3789 57.0823C18.6326 58.031 17.7522 59.1051 16.8037 60.3049C12.4651 65.7527 6.65462 73.5998 4.48538 83.7416C2.56027 92.7258 4.22728 100.476 8.86586 110.205L5.47693 109.525C7.09518 112.615 8.966 115.62 11.1074 118.515L11.113 118.521C19.4345 129.779 31.7525 139.322 48.3336 145.683C51.4586 146.883 54.0478 147.748 56.3077 148.403C58.9235 149.164 61.1054 149.646 63.191 150.03C42.5657 142.524 30.3603 131.258 24.389 118.521L24.3805 118.515C24.2906 118.312 24.1934 118.112 24.102 117.909L27.0595 118.515L27.651 118.518C24.9596 111.605 24.3396 101.504 25.7482 96.6768C26.6201 93.6844 27.9943 90.6375 29.9334 88.287C31.2168 86.7246 33.0862 85.2235 34.7324 84.3725L33.6778 86.0326L30.2961 90.9098C35.681 85.8527 50.2714 79.9641 65.8897 80.9964C67.2289 81.0799 68.5766 81.214 69.9159 81.4093L63.7078 82.7849L62.2152 83.1113C63.7637 82.9995 66.2525 83.2382 69.2797 83.7614C76.241 84.9612 89.3822 88.8185 97.3763 92.3411C101.868 94.3221 108.258 97.2433 115.86 102.405C115.037 100.877 114.32 99.3442 113.511 97.9631C117.466 100.962 122.3 104.86 123.43 106.06C126.129 108.906 128.487 111.677 128.368 113.337C128.25 114.997 124.74 114.828 124.565 115.016C129.037 116.398 132.601 116.389 134.01 115.51C132.029 113.229 131.241 110.859 130.927 107.72C129.532 105.746 121.149 94.7253 100.16 88.2308C100.16 88.2308 101.827 89.4444 104.29 91.2441C100.509 89.4723 95.9892 87.5835 91.6923 86.0908C88.2743 84.905 79.7226 82.5097 74.5883 81.4285L80.1982 80.0399C70.1884 75.1786 48.9832 76.8814 39.3219 81.6313L43.5434 76.0734C31.1692 78.6055 25.0509 87.0246 22.9024 92.6474C20.5587 98.7717 20.217 107.776 22.8327 116.16L19.0856 115.401C19.4692 116.461 19.9031 117.499 20.3774 118.517V118.523C23.1188 124.41 27.3931 129.704 33.0642 135.194C26.1656 131.037 19.6437 124.766 14.7617 118.523L14.7561 118.517C13.0194 116.29 11.485 114.075 10.2225 111.953L13.487 112.614C8.37395 103.233 5.87543 95.9162 8.42838 85.8993C8.43552 85.8593 8.53452 85.475 8.54838 85.4336C9.87364 80.3066 14.0505 72.9553 17.4546 68.5111L18.5232 74.6354C40.3842 47.7459 67.7965 41.7732 100.524 47.4931C99.8415 46.7263 98.2787 44.0073 96.3402 42.2285C109.914 42.2589 130.428 52.0497 134.202 54.1284L131.231 49.3155C141.387 53.8424 151.862 59.5747 158.523 65.518C158.167 64.5554 157.567 62.3722 157.323 61.7514C158.488 62.6372 167.026 69.9418 171.693 74.3014C178.989 81.1232 182.24 88.6768 183.788 93.4281C183.893 93.3654 183.573 90.9589 183.545 90.4706C187.452 94.4675 191.712 100.069 189.075 104.658C188.971 104.854 188.852 105.042 188.713 105.23L186.411 103.911L187.019 104.776C187.703 105.745 191.456 111.332 193.129 118.517V118.522C194.28 123.461 194.455 129.153 191.972 134.622C189.67 139.679 184.555 142.755 179.184 143.788C176.429 144.311 173.032 144.588 171.009 144.253C171.644 144.358 177.12 141.882 179.324 137.613C180.956 134.453 180.586 129.349 179.226 125.694C178.431 123.566 177.406 121.34 176.185 119.421C175.78 118.78 175.599 118.515 175.599 118.515C169.077 108.924 158.502 104.195 153.375 102.946C146.609 101.293 141.475 103.366 140.094 107.796C140.094 107.796 139.928 108.924 139.963 109.433C139.984 109.398 140.017 109.365 140.052 109.33C140.575 109.198 141.259 109.135 142.019 109.121C143.47 109.101 145.186 109.252 146.525 109.406C148.653 109.649 152.733 110.389 154.645 110.759C152.957 109.873 148.034 108.464 146.115 108.262C145.829 108.236 145.549 108.207 145.27 108.172C144.119 108.06 143.08 107.996 142.215 108.108C142.333 108.053 142.396 108.024 142.396 108.024L142.94 107.341C145.144 104.997 149.247 104.824 152.825 105.703C156.927 106.715 164.279 109.888 169.845 115.957C166.615 117.296 158.711 119.626 149.887 116.738C142.402 114.29 141.977 109.721 141.991 109.512C141.97 109.783 140.165 115.453 148.57 118.515C148.57 118.515 148.764 118.595 149.231 118.755C157.211 121.441 163.497 119.919 167.18 118.524L167.194 118.518C168.345 118.079 169.246 117.647 169.867 117.355L170.718 116.942C171.143 117.451 171.553 117.974 171.951 118.518C171.951 118.518 172.195 118.84 172.718 119.628C166.992 122.216 158.077 124.838 147.273 122.006C143.974 121.141 141.401 119.887 139.399 118.526L139.391 118.521C134.473 115.18 133.031 111.232 133.01 111.029L133.052 112.095C133.073 112.298 133.317 115.333 135.968 118.521L135.973 118.526C137.933 120.884 141.205 123.324 146.687 124.754C158.245 127.781 167.801 124.231 173.835 121.448C176.256 125.675 178.39 131.353 177.239 136.082C176.514 139.06 172.956 142.424 168.952 144.432C169.476 144.676 170.989 145.038 171.98 145.205C180.022 146.566 191.232 144.893 195.416 135.672C198.192 129.561 197.865 123.562 196.407 118.526V118.521C195.005 113.708 192.572 109.774 190.807 107.458C190.793 106.725 190.514 105.182 190.654 105.106C196.018 101.995 190.633 93.584 183.595 88.8618C182.639 83.5118 179.52 77.9873 173.36 71.4793C168.122 65.934 160.799 60.736 152.749 52.944C153.021 53.7392 154.354 58.0848 154.256 57.9802C150.128 53.7731 133.031 44.6993 123.405 40.8977C124.207 41.9302 126.041 44.4133 127.381 46.3944C119.401 42.2789 102.834 38.4913 97.2201 37.745C93.4459 37.0963 89.6303 37.0042 85.5018 36.8159L85.5051 36.8177ZM81.6452 57.0287C72.976 57.0907 64.3956 58.187 57.5714 60.2988C61.1149 59.392 64.1561 58.8493 66.6672 58.4657C78.2601 56.666 101.294 59.2595 110.369 63.0889C110.683 62.8307 111.541 62.1974 112.001 61.9672C104.087 58.5812 92.7921 56.949 81.6452 57.0287ZM156.909 86.641C155.507 86.641 154.196 87.0999 153.017 87.9997C152.968 88.0347 152.933 88.0637 152.933 88.089C152.982 88.0678 154.083 87.824 155.115 87.824C155.722 87.824 156.177 87.9158 156.463 88.0555C155.898 88.3067 155.359 88.788 154.92 89.4646L154.914 89.5204C154.921 89.5134 155.589 88.9679 157.012 88.9679C157.229 88.9679 157.452 88.9845 157.682 89.0098C160.821 89.3515 162.014 92.1961 162.23 93.2703C162.516 93.0956 162.844 93.0052 163.22 93.0052C164.134 93.0052 165.056 93.549 165.405 93.7864C165.928 94.5468 166.431 95.413 166.954 96.2919C166.919 96.2869 166.876 96.2864 166.834 96.2864C166.555 96.2864 166.284 96.384 166.047 96.5793C166.633 97.235 166.996 97.9034 167.023 97.9186L165.433 97.7093C165.356 98.5952 165.941 99.7113 167.21 100.123C167.573 100.242 167.922 100.299 168.257 100.299C168.591 100.299 168.914 100.243 169.214 100.117C169.674 100.62 170.175 101.108 170.684 101.54L170.651 101.565C170.072 102.081 169.514 102.561 168.544 102.561H168.488C168.425 102.561 168.37 102.563 168.307 102.578C168.404 102.613 169.533 103.452 169.54 103.457C173.181 106.191 174.911 108.082 176.446 109.749C176.871 110.216 177.277 110.656 177.71 111.102L177.724 111.091C176.496 108.796 174.172 106.236 170.601 103.292C171.012 103.351 171.431 103.376 171.968 103.376C172.247 103.376 172.527 103.364 172.827 103.359L173.098 103.354C175.009 104.519 176.95 105.153 178.868 105.223C177.529 105.468 176.474 105.488 176.181 105.488H176.147C176.071 105.488 176.02 105.49 176.014 105.511C176.028 105.511 176.076 105.524 176.153 105.55C177.541 105.996 178.903 106.228 180.207 106.228C181.7 106.228 183.066 105.928 184.258 105.335C185.786 104.581 186.191 103.619 186.379 102.782C186.56 101.98 186.401 100.654 184.574 98.8478C184.532 98.8033 184.503 98.7781 184.468 98.7781C184.796 99.1408 185.041 100.946 184.699 101.867C184.455 102.529 183.534 103.499 182.788 103.931C183.381 103.234 183.688 102.313 183.709 101.183C183.709 101.133 183.707 101.114 183.687 101.094C183.687 101.122 182.46 103.423 179.049 103.443H178.938C175.38 103.443 172.597 102.292 170.163 99.802C168.454 98.0582 166.911 95.6238 166.137 93.9846C165.892 93.4615 165.545 92.7081 165.224 92.0175C164.945 91.4176 164.687 90.8665 164.541 90.5527C163.09 87.4904 160.445 86.7246 159.984 86.7246H159.97C160.005 86.7455 160.299 87.1433 160.816 87.8406L160.682 87.7681C160.159 87.4821 159.559 87.1559 158.91 86.9534C158.24 86.7443 157.565 86.641 156.909 86.641ZM161.547 93.7752C161.205 93.8309 160.606 94.5076 160.327 95.4354C160.02 96.4537 160.069 97.8544 160.969 98.8727C156.121 95.9849 151.287 94.6052 146.294 94.4308C140.448 94.2354 133.431 97.4009 132.231 102.849C131.708 105.36 132.148 107.126 132.148 107.126C132.148 107.126 132.343 105.66 132.538 105.053C133.396 100.449 139.577 96.0699 146.6 96.2165C152.941 96.342 155.801 97.6171 164.709 102.179L166.118 102.494C164.758 101.392 163.41 100.409 162.064 99.5507C160.689 98.1347 160.214 96.2375 161.547 93.7752ZM27.0565 118.523L27.7038 118.654C27.6829 118.614 27.6647 118.572 27.6508 118.523H27.0565Z" fill="#003875"/>
<path d="M61.0403 62.0399L56.1575 82.6666H60.976L51.0989 123.389H46.3221L41.0488 144.72H133.575L138.774 123.394H127.39L116.62 97.2935L126.073 89.1993C129.481 91.3576 132.684 93.6803 135.676 96.1858L137.663 95.7254C134.403 93.2177 130.726 90.8131 126.809 88.566L133.681 82.6817H143.991L148.991 62.055L61.0403 62.0399Z" fill="#EFAB00"/>
<path d="M62.581 63.686L58.418 80.79H63.3342L52.5812 125.259H47.7598L43.4854 142.843H132.125L136.324 125.265H126.121L114.374 96.7639L132.962 80.7957H142.429L146.718 63.6917L62.5824 63.6862L62.581 63.686ZM157.426 81.7799C154.301 81.6337 151.595 83.0286 149.99 84.9607C148.707 86.5093 148.545 88.9031 149.34 90.5353C149.061 88.7915 149.886 87.2081 150.883 86.0014C152.174 84.4459 154.838 83.4332 157.468 83.3563C160.481 83.2728 164.058 84.2422 165.997 86.7603C164.588 83.8795 161.918 82.0045 157.426 81.7882L157.426 81.7799Z" fill="white"/>
<path d="M14.2273 55.9965C9.97237 61.4163 2.84494 69.5762 0.536133 80.9459L0.711958 84.6102C2.9092 73.9104 9.82162 61.6192 14.2301 55.9965H14.2273ZM65.1048 66.8705L62.5605 77.6117H67.5967L55.2421 128.428H50.2282L47.4382 139.594H79.2032L81.9376 128.428H76.8595L78.1151 123.392L92.0518 111.469L99.1164 128.401H91.3821L88.6477 139.594H129.677L132.411 128.401H123.921L110.528 95.8126L131.951 77.613H139.908L142.441 66.8711H101.822L99.1717 77.613H103.817L85.4862 93.0984L89.2333 77.613H92.5452L95.1959 66.8711L65.1048 66.8705ZM162.983 80.9299C165.271 81.76 168.229 83.7215 172.059 89.4063L173.175 91.1083C174.717 93.5078 176.006 95.0285 178.286 95.5865C176.515 95.1542 175.831 92.7391 174.338 90.4303L173.208 88.7005C169.156 82.7156 164.482 81.0135 162.983 80.9299ZM97.5441 151.043C94.454 151.048 90.8045 152.429 90.7697 156.029C90.7418 158.609 92.8902 160.067 95.178 160.618C96.0918 160.842 96.5535 161.009 96.5535 161.469C96.5535 161.93 96.1476 162.119 95.5547 162.119C94.7665 162.114 93.9238 161.603 93.889 160.738C92.2429 161.129 90.5883 161.518 88.9421 161.916C89.256 164.992 92.7157 165.83 95.2897 165.83C98.4495 165.835 102.448 164.664 102.413 160.842C102.392 158.421 100.437 156.949 98.2472 156.377C97.6892 156.231 96.3638 155.994 96.2801 155.387C96.2381 155.073 96.5535 154.74 97.1952 154.74C97.8997 154.74 98.4647 155.172 98.4926 155.8C100.174 155.57 101.862 155.338 103.543 155.108C103.382 151.934 100.223 151.043 97.5441 151.043ZM60.5477 151.336C60.3245 152.535 60.1013 153.727 59.8781 154.927C59.6828 155.994 59.4945 157.068 59.3619 158.149H59.2587C58.8751 157.277 58.4272 156.433 57.9669 155.596C57.1786 154.18 56.3919 152.757 55.6036 151.341H50.3862C49.4585 156.259 48.5308 161.17 47.6099 166.087C49.4515 166.036 51.2859 165.996 53.1204 165.947L53.7677 162.496C53.9769 161.345 54.1876 160.193 54.3341 159.042H54.4457C54.9898 160.13 55.6036 161.177 56.2174 162.231C56.9428 163.431 57.6682 164.636 58.3936 165.836C60.0259 165.81 61.658 165.774 63.2902 165.746C64.211 160.947 65.1386 156.141 66.0665 151.335L60.5477 151.336ZM67.7546 151.336C67.4825 152.766 67.2021 154.194 66.9231 155.624C68.2415 155.619 72.4197 155.61 72.4197 155.61L70.5001 157.541L68.9319 165.66C70.8083 165.64 72.6777 165.62 74.554 165.599C75.2096 162.265 75.8653 158.929 76.5211 155.588C77.8394 155.588 79.1563 155.582 80.4747 155.582C80.7467 154.166 81.0271 152.752 81.3062 151.336L67.7546 151.336ZM105.237 151.336C104.958 152.759 104.68 154.173 104.408 155.596C105.726 155.601 109.863 155.618 109.863 155.618L107.993 157.496C107.47 160.203 106.946 162.915 106.423 165.621C108.299 165.641 110.168 165.672 112.045 165.691C112.7 162.343 113.35 158.988 114.006 155.632C115.324 155.637 116.643 155.647 117.954 155.652C118.233 154.216 118.512 152.779 118.791 151.336L105.237 151.336ZM123.255 151.338C120.513 156.152 117.75 160.943 114.974 165.735C116.906 165.761 118.833 165.806 120.758 165.841C121.127 165.193 121.497 164.544 121.86 163.888C123.562 163.924 126.971 163.991 126.971 163.991H128.57L127.194 165.381C127.222 165.562 127.26 165.756 127.295 165.986C129.15 166.027 131.006 166.077 132.861 166.126C132.066 161.201 131.264 156.27 130.462 151.338L123.255 151.338ZM48.1307 151.341C44.1478 151.341 40.1719 151.347 36.189 151.347C35.2612 156.411 34.3336 161.467 33.4127 166.531C37.3886 166.385 41.3701 166.26 45.3461 166.149C45.6111 164.733 45.8706 163.324 46.1357 161.908C43.9524 161.958 41.7747 161.998 39.5984 162.047C39.703 161.51 39.7601 161.238 39.8718 160.694C41.769 160.658 43.665 160.623 45.5692 160.588C45.7785 159.353 45.9975 158.119 46.2138 156.891C44.3234 156.906 42.4317 156.926 40.5415 156.955C40.653 156.411 40.7006 156.145 40.8121 155.607C42.9813 155.587 45.1521 155.567 47.3214 155.552C47.5863 154.144 47.8588 152.743 48.1307 151.341ZM34.8664 151.352C32.7957 151.357 30.7249 151.355 28.6611 151.355C27.4962 153.148 26.3383 154.949 25.1875 156.749C24.9085 156.754 24.769 156.751 24.4899 156.763C24.8038 154.963 25.1191 153.158 25.433 151.358C23.5636 151.363 21.6887 151.364 19.8193 151.364H17.8439L19.518 153.043C18.6879 157.759 17.8663 162.481 17.0432 167.203C18.9196 167.12 20.789 167.036 22.6652 166.952C23 165.055 23.339 163.158 23.6808 161.26C23.9947 161.255 24.151 161.246 24.4648 161.241C25.0298 163.096 25.5865 164.952 26.1584 166.807C28.1185 166.73 30.0784 166.654 32.0455 166.584C31.1666 164.101 30.3017 161.617 29.4367 159.134C31.2357 156.533 33.0396 153.939 34.8664 151.352ZM134.519 151.352C134.24 152.824 133.961 154.296 133.682 155.775C135.007 155.79 138.09 155.836 138.09 155.836H139.131L137.289 157.686C136.766 160.532 136.234 163.369 135.704 166.215C137.581 166.271 139.457 166.328 141.326 166.391C141.982 162.883 142.632 159.373 143.288 155.864C144.606 155.879 145.917 155.899 147.236 155.914C147.515 154.394 147.794 152.875 148.073 151.361V151.355C143.553 151.35 139.032 151.352 134.519 151.352ZM149.901 151.352C148.98 156.43 148.058 161.509 147.13 166.586C151.113 166.733 155.091 166.9 159.067 167.075C159.332 165.589 159.59 164.105 159.848 162.619C157.672 162.549 155.495 162.479 153.319 162.415C153.424 161.864 153.479 161.587 153.584 161.029C155.481 161.079 157.387 161.132 159.284 161.188C159.501 159.876 159.715 158.579 159.932 157.268C158.034 157.242 156.144 157.206 154.254 157.178C154.365 156.62 154.413 156.341 154.524 155.783C156.694 155.809 158.864 155.839 161.034 155.867C161.173 155.073 161.311 154.277 161.458 153.476L163.573 151.364H161.374V151.369C157.545 151.364 153.723 151.363 149.901 151.352ZM125.836 155.61H125.942L126.402 160.18C125.579 160.175 124.756 160.159 123.933 160.144L125.836 155.61Z" fill="#003875"/>
<path d="M76.5361 39.0148C52.3195 39.339 32.8813 46.9904 19.9059 60.1244L20.1849 63.4307C34.4917 47.1854 57.8169 38.2784 87.4692 39.6455C87.3777 39.5409 87.2878 39.4352 87.2035 39.3304C83.5535 39.0724 79.996 38.9685 76.5361 39.0148ZM16.3288 58.6315C12.2409 63.9257 4.26805 72.8812 1.70767 85.241C-0.154287 94.2179 1.54782 101.948 6.20029 111.658L2.81865 110.98C10.7426 126.082 24.8239 139.077 45.5549 147.028C49.9491 148.717 53.2762 149.743 56.1432 150.454C53.8762 149.8 51.2891 148.927 48.172 147.734C27.3296 139.74 13.217 126.716 5.32146 111.58L8.72538 112.258C4.08634 102.527 2.41923 94.7845 4.34433 85.7933C6.52072 75.6506 12.3242 67.8037 16.6626 62.3566L16.3288 58.6315ZM164.183 80.4368C166.471 81.2668 169.435 83.2325 173.265 88.9103L174.375 90.6207C175.917 93.0133 177.206 94.5395 179.487 95.0905C177.715 94.665 177.04 92.253 175.547 89.9372L174.417 88.2129C170.364 82.2211 165.69 80.5275 164.183 80.4368ZM157.788 82.2922C154.558 82.1388 151.747 83.5896 150.087 85.5846C148.762 87.1889 148.601 89.6638 149.418 91.3517C149.132 89.545 149.981 87.9072 151.013 86.6587C152.353 85.0474 155.109 84.0012 157.83 83.9243C160.955 83.8337 164.659 84.8367 166.66 87.4454C165.203 84.46 162.44 82.5223 157.788 82.2922ZM146.605 96.2289C140.237 96.0963 134.567 99.6803 132.928 103.782C132.314 106.195 132.642 109.287 133.849 112.091L133.807 111.078C133.842 111.364 135.885 119.017 147.283 121.996C158.088 124.821 167.003 122.197 172.728 119.616C172.101 118.674 171.431 117.781 170.719 116.937L169.874 117.342C167.265 118.597 159.747 122.183 149.236 118.737C145.365 117.474 143.473 115.676 142.573 114.002C141.276 112.649 140.474 111.058 140.411 109.259C140.292 109.279 140.174 109.299 140.062 109.328C140.027 109.364 139.992 109.397 139.964 109.432C139.936 108.923 140.104 107.794 140.104 107.794C141.485 103.365 146.619 101.291 153.385 102.945C158.665 104.235 169.734 109.217 176.194 119.414C177.408 121.333 178.442 123.556 179.23 125.684C180.597 129.339 180.96 134.439 179.328 137.606C177.123 141.875 171.655 144.351 171.013 144.246C173.036 144.574 176.438 144.302 179.194 143.772C184.558 142.74 189.678 139.664 191.973 134.607C192.405 133.658 192.754 132.702 193.033 131.747C194.811 120.579 186.427 105.107 185.416 105.567C183.867 106.265 182.46 106.315 181.378 106.162C178.581 106.482 176.168 105.527 176.021 105.506C176.049 105.506 177.256 105.541 178.881 105.241C176.886 105.15 174.933 104.458 173.12 103.349C172.199 103.369 171.437 103.406 170.614 103.288C173.314 105.541 175.275 107.534 176.594 109.334C180.032 113.394 182.662 117.448 182.662 117.448C182.662 117.448 179.021 113.387 177.124 111.482C173.754 108.113 168.99 104.78 164.415 102.032C155.744 97.6028 152.876 96.3545 146.605 96.2289ZM7.65369 127.693C7.85597 129.353 11.6213 133.762 18.1222 138.192C26.4786 143.891 30.7964 144.7 32.4219 144.832C26.4092 142.028 22.3984 139.746 18.3039 136.914C12.5207 132.931 8.80467 129.241 7.65369 127.693ZM89.5434 150.028L83.4247 153.557C83.4247 153.557 83.3703 153.859 83.0703 154.835C82.7704 155.805 82.596 156.333 82.596 156.333L84.005 155.803C84.005 155.803 83.7539 156.843 83.1819 158.356C82.61 159.87 81.8008 161.816 81.8008 161.816L83.4469 161.118C83.4469 161.118 83.4611 161.19 82.8052 162.982C82.2541 164.475 81.5859 166.051 81.5859 166.051C81.5859 166.051 82.9308 164.773 84.005 163.699C85.0792 162.632 85.9664 161.699 85.9664 161.699L84.7527 162.081C84.7527 162.081 85.3804 161.188 86.1756 160.044C86.9638 158.907 87.7438 157.653 87.7438 157.653L86.3138 158.043C86.3138 158.043 86.9764 156.688 87.8205 154.631C88.6645 152.58 89.5447 150.027 89.5447 150.027L89.5434 150.028Z" fill="#EFAB00"/>
</g>
<defs>
<clipPath id="clip0_15016_302094">
<rect width="200" height="200" fill="white" transform="translate(0.0605469 0.203125)"/>
</clipPath>
</defs>
</svg>
