<svg width="200" height="200" viewBox="0 0 200 200" fill="none" xmlns="http://www.w3.org/2000/svg">
<path d="M11.0278 29.0134V54.2535H20.4943V101.575H20.4995L20.4943 101.579L36.2697 117.349H58.3549V145.746H48.8866V170.987H105.677V145.746H96.2101V139.432H113.561L124.606 150.479V170.986H184.547L184.549 145.746H184.547H170.35L147.481 122.873L168.774 101.579H184.549L184.547 76.3368L134.069 76.3402V54.2533H143.535V29.0132H86.7472H86.7454V54.2533H86.7472H96.2101V76.3402H58.3513V54.2533H67.8142H67.8196V29.0132H67.8142L11.0278 29.0134Z" fill="#0033A0"/>
<path d="M142.751 122.869L167.202 98.418H181.399V79.4868H130.919V51.0945H140.385V32.166H89.9041V51.0945H99.3715V79.4868H55.2011V51.0945H64.6667V32.166H14.1865V51.0936H23.6494H23.6528V99.9928L37.8499 114.19H61.5107V148.896H52.0434V167.828H102.525V148.896H93.0588V136.276H115.145L127.765 148.896H127.767V167.828H181.398V148.896H168.78L142.75 122.869H142.751Z" fill="white"/>
<path d="M17.3374 35.3228V47.9415H26.8039V98.4181L39.4244 111.039H61.5069V98.4181H52.0422V47.9415H61.5069V35.3228H17.3374ZM93.055 35.3228V47.9415H102.516V98.4181H93.055V111.039H115.141L127.757 98.4181V47.9415H137.224V35.3228H93.055ZM55.1944 82.6445V95.2632H64.6609V152.05H55.1944V164.675H99.3665V152.05H89.901V133.118H116.72L135.644 152.05H130.916V164.675H178.239V152.05H167.193L138.013 122.87L165.614 95.2632H178.239V82.6445H130.916V95.2632H135.644L116.72 114.193H89.901V95.2632H99.3665V82.6445H55.1944Z" fill="#0033A0"/>
</svg>
