<svg width="201" height="201" viewBox="0 0 201 201" fill="none" xmlns="http://www.w3.org/2000/svg">
<g clip-path="url(#clip0_15016_302010)">
<path fill-rule="evenodd" clip-rule="evenodd" d="M161.261 141.771V139.914H161.935L163.145 141.768H163.817L162.601 139.914C163.318 139.892 163.867 139.596 163.865 138.802C163.865 137.924 163.167 137.724 162.445 137.724L160.712 137.727L160.714 141.771L161.261 141.771ZM162.33 138.302C162.764 138.302 163.311 138.373 163.311 138.791C163.313 139.435 162.435 139.341 161.935 139.341H161.261L161.259 138.302H162.33Z" fill="#004F9E"/>
<path fill-rule="evenodd" clip-rule="evenodd" d="M162.069 143.433C164.114 143.431 165.744 141.816 165.744 139.772C165.741 137.716 164.104 136.107 162.059 136.108C160.017 136.112 158.399 137.722 158.402 139.777C158.402 141.826 160.027 143.44 162.069 143.433ZM162.061 136.67C163.742 136.665 165.178 138.025 165.178 139.772C165.18 141.508 163.75 142.865 162.066 142.867C160.401 142.867 158.958 141.516 158.955 139.777C158.953 138.035 160.395 136.67 162.061 136.67Z" fill="#004F9E"/>
<path fill-rule="evenodd" clip-rule="evenodd" d="M147.514 128.859C146.966 130.365 145.795 131.392 144.45 131.392C142.579 131.392 141.054 129.376 141.054 126.877C141.054 124.395 142.579 122.356 144.45 122.356H145.908C145.908 122.356 147.391 119.781 145.946 116.346C145.946 116.346 147.983 114.9 146.735 111.815V100.3H114.069V97.4183C116.156 92.0832 119.189 85.464 119.189 75.2478C119.189 68.2276 116.996 63.1079 116.996 63.1079H99.2936V103.734H106.833V122.884H70.3062V103.734H77.827V63.1079H60.1316V84.5345C60.1316 84.5345 56.816 87.9509 62.8802 96.6197C68.8879 105.224 61.535 119.698 61.535 119.698C62.3498 122.77 64.7492 125.096 64.7492 125.096C63.9694 130.001 60.4027 135.839 60.4027 135.839C61.5367 138.567 62.8204 139.6 62.8204 139.6C62.8204 139.6 72.0538 131.914 78.2943 131.914C78.2943 131.914 84.5596 136.426 89.4432 139.097C97.8769 143.721 105.611 146.476 105.611 146.476C106.888 143.532 106.934 141.342 106.934 141.342C106.301 139.821 104.533 138.199 104.533 138.199L105.566 136.358C105.566 136.358 109.654 138.258 113.537 143.237L116.008 142.805C116.763 144.245 117.174 146.253 117.129 147.328C117.129 147.328 124.018 146.041 131.455 153.505L134.877 153.477V149.997C134.877 149.997 137.669 147.726 142.441 146.796C149.721 149.812 154.723 155.486 154.723 155.486C162.453 155.12 165.722 148.746 165.722 148.746C157.895 144.132 152.832 139.284 152.832 139.284C152.832 139.284 153.17 138.343 156.264 137.216C157.534 136.752 158.283 136.187 158.283 136.187C158.283 136.187 160.276 127.452 158.224 124.011H155.009C154.152 125.068 153.926 126.493 153.926 126.493H150.381C148.939 126.493 147.938 127.635 147.514 128.859Z" fill="#004F9E"/>
<path fill-rule="evenodd" clip-rule="evenodd" d="M13.0752 74.4355H15.433V67.8594H3.96143V74.4355H6.33588V90.6197H3.96143V97.1925H28.3595V87.3491H22.1656V90.6214H13.0752V74.4355Z" fill="#004F9E"/>
<path fill-rule="evenodd" clip-rule="evenodd" d="M48.3878 67.8394H34.999V74.4254H37.4782L32.4001 90.6047H30.0156V97.1841H39.3688V90.6047L39.9142 88.8898H47.7692L48.2364 90.6097V97.1841H57.5796V90.5964H55.1919L48.3878 67.8394ZM42.0376 82.1149L43.9165 76.1585H43.9614L45.7323 82.1149H42.0376Z" fill="#004F9E"/>
<path fill-rule="evenodd" clip-rule="evenodd" d="M45.7304 82.1165L43.9595 76.1567H43.9146L42.0356 82.1165H45.7304Z" fill="white"/>
<path fill-rule="evenodd" clip-rule="evenodd" d="M162.064 142.872C163.749 142.869 165.179 141.51 165.177 139.775C165.177 138.029 163.74 136.67 162.059 136.673C160.393 136.673 158.951 138.04 158.953 139.782C158.956 141.52 160.4 142.872 162.064 142.872ZM162.443 137.724C163.165 137.724 163.863 137.924 163.863 138.802C163.865 139.594 163.316 139.893 162.6 139.914L163.815 141.768H163.143L161.933 139.914H161.259V141.772H160.712L160.71 137.729L162.443 137.724Z" fill="white"/>
<path fill-rule="evenodd" clip-rule="evenodd" d="M161.933 139.339C162.435 139.339 163.311 139.434 163.309 138.789C163.309 138.372 162.764 138.3 162.33 138.3H161.259V139.339H161.933Z" fill="white"/>
<path fill-rule="evenodd" clip-rule="evenodd" d="M200.855 77.558V64.7355H185.546V76.1016H182.872V64.7355L149.843 64.7339L148.092 66.013V64.7338H136.584V42.4805H41.4374V64.7139H31.893V77.5464H33.2382L31.1431 84.2235H19.058V87.4958H16.1797V77.5563H18.5392V64.7338H0.855469V77.5563H3.22993V87.4925H0.855469V100.315L42.4734 100.307V92.0141H45.1288V100.307H61.3277C61.8781 101.733 62.1341 103.354 62.1341 105.1C62.1424 108.227 61.3144 111.6 60.458 114.138C60.0224 115.411 59.5967 116.459 59.2708 117.182C58.9915 117.805 58.2366 119.349 58.2366 119.349C58.2366 119.349 58.6822 122.106 61.3875 125.991C60.9502 127.62 60.202 129.473 59.482 130.959C58.4793 133.03 56.913 135.563 56.913 135.563L57.5399 137.034C59.5352 141.001 62.8508 143.616 62.8508 143.616C62.8508 143.616 64.9027 141.911 65.1504 141.725C66.0001 141.051 68.3164 139.283 70.9619 137.74C73.1617 136.446 75.6842 135.384 77.4002 135.109C79.339 136.469 83.9765 139.659 87.9556 141.839C96.6403 146.606 107.3 150.38 107.3 150.38C107.3 150.38 109.153 146.465 109.761 143.584C110.556 144.323 112.246 146.654 112.246 146.654L113.933 146.353C114.136 147.453 113.895 151.141 113.895 151.141C113.895 151.141 117.023 150.327 118.398 150.376C120.102 150.443 124.342 150.81 129.264 155.727L130.18 156.652L137.976 156.592V151.701C138.9 151.182 140.31 150.52 142.129 150.057C145.009 151.378 147.522 153.151 149.337 154.672C151.042 156.103 153.366 158.655 153.366 158.655L154.856 158.589C159.577 158.371 163.099 156.329 165.207 154.282C167.924 151.673 169.835 147.546 169.835 147.546C169.835 147.546 167.571 146.184 164.921 144.485C166.497 143.519 167.56 141.781 167.56 139.791C167.56 136.756 165.112 134.292 162.094 134.292C161.981 134.292 161.873 134.304 161.762 134.311C162.028 132.622 162.267 130.607 162.267 128.8C162.267 124.911 159.991 120.883 159.991 120.883H153.543C153.543 120.883 152.132 122.469 151.743 123.377H150.378C149.811 123.372 149.276 123.458 148.76 123.612C149.078 122.968 149.672 121.481 149.68 119.392C149.683 118.65 149.605 117.835 149.414 116.98C149.864 116.155 150.25 115.046 150.245 113.729C150.245 112.937 150.109 112.094 149.831 111.255V100.318H182.872V88.9323H185.546V100.318H200.855V87.4942H198.496V77.558H200.855ZM144.987 67.8587V77.7038H138.792V74.4331H129.69V79.2264H138.795V85.8307H129.69V90.619H138.792V87.3484H144.987V97.1918H120.591V90.619H122.952V74.4331H120.591V67.8587H144.987ZM44.5452 45.6086H133.478V64.7139H120.608L120.606 60.0035H96.208V106.836H103.737V119.78H73.4028V106.836H80.927V60.0035H56.5023V64.7106H44.5452V45.6086ZM57.0244 67.8355V83.6188C56.8847 83.8872 56.7517 84.1987 56.6253 84.5433L51.632 67.8355H57.0244ZM28.358 97.1918H3.96155V90.619H6.33435V74.4331H3.96155V67.8587H15.4331V74.4331H13.0753V90.6207H22.1641V87.3484H28.358V97.1918ZM57.5798 97.1819H48.2349V90.6091L47.7677 88.8893H39.9143L39.3689 90.6041V97.1819H30.0141V90.6041H32.3985L37.4767 74.4232H34.9991V67.8388H48.3879L55.192 90.5958H57.5798V97.1819ZM162.059 136.11C164.103 136.108 165.741 137.715 165.742 139.773C165.742 141.818 164.115 143.433 162.068 143.435C160.026 143.44 158.401 141.828 158.401 139.778C158.398 137.724 160.017 136.113 162.059 136.11ZM150.382 126.493H153.927C153.927 126.493 154.153 125.069 155.011 124.01H158.225C160.278 127.453 158.283 136.186 158.283 136.186C158.283 136.186 157.535 136.754 156.266 137.217C153.17 138.345 152.833 139.284 152.833 139.284C152.833 139.284 157.896 144.132 165.722 148.747C165.722 148.747 162.453 155.121 154.723 155.485C154.723 155.485 149.723 149.811 142.443 146.797C137.671 147.726 134.878 149.998 134.878 149.998V153.477L131.456 153.505C124.018 146.041 117.129 147.329 117.129 147.329C117.174 146.253 116.765 144.245 116.008 142.805L113.538 143.238C109.657 138.259 105.566 136.358 105.566 136.358L104.534 138.199C104.534 138.199 106.301 139.82 106.935 141.342C106.935 141.342 106.888 143.533 105.611 146.477C105.611 146.477 97.8774 143.722 89.4438 139.099C84.5602 136.426 78.2948 131.915 78.2948 131.915C72.0544 131.915 62.8226 139.601 62.8226 139.601C62.8226 139.601 61.5372 138.567 60.4049 135.84C60.4049 135.84 63.9715 130.001 64.7497 125.095C64.7497 125.095 62.352 122.771 61.5356 119.7C61.5356 119.7 68.8884 105.224 62.8808 96.6202C56.8182 87.9499 60.1322 84.5351 60.1322 84.5351V63.1068H77.8292V103.735H70.3067V122.883H106.833V103.735H99.2958V63.1068H116.996C116.996 63.1068 119.191 68.2281 119.191 75.2466C119.191 85.4629 116.156 92.0854 114.07 97.4188V100.298H146.735V111.815C147.984 114.9 145.949 116.347 145.949 116.347C147.392 119.78 145.909 122.356 145.909 122.356H144.45C142.581 122.356 141.055 124.398 141.055 126.88C141.055 129.376 142.581 131.393 144.45 131.393C145.796 131.393 146.966 130.364 147.515 128.859C147.939 127.635 148.942 126.493 150.382 126.493ZM168.995 97.2001H150.852L146.64 94.1564V70.9338L150.852 67.8587H168.995V77.7038H162.811V74.4331H154.841L153.38 75.4819V89.5553L154.851 90.6141H162.811V87.3484H168.995V97.2001ZM169.914 84.2235H159.705V87.4909H156.486V77.558H159.705V77.7038V80.827H169.914V84.2235ZM197.753 74.4331H195.392V90.619H197.753V97.1951H188.652V85.8075L179.766 85.8091V97.1951H170.661V90.619H173.02V74.4348L170.661 74.4331V67.8587H179.766V79.2265H188.652V67.8587H197.753V74.4331Z" fill="white"/>
<path fill-rule="evenodd" clip-rule="evenodd" d="M80.9272 106.836H73.4031V119.78H103.737V106.836H96.2082V60.0032H120.606L120.608 64.7137H133.478V45.6084H44.5454V64.7104H56.5042L56.5025 60.0032H80.9272V106.836Z" fill="#E31B23"/>
<path fill-rule="evenodd" clip-rule="evenodd" d="M153.378 89.5544V75.481L154.841 74.4322H162.811V77.7012H168.995V67.8594H150.851L146.641 70.9329V94.1555L150.851 97.2008H168.995V87.3474H162.811V90.6131H154.85L153.378 89.5544Z" fill="#E31B23"/>
<path fill-rule="evenodd" clip-rule="evenodd" d="M122.954 90.623H120.593V97.1942H144.989V87.3507H138.794V90.623H129.692V85.8314H138.797V79.2304H129.692V74.4355L138.794 74.4338V77.7078H144.989V67.8594H120.593V74.4355H122.954V90.623Z" fill="#E31B23"/>
<path fill-rule="evenodd" clip-rule="evenodd" d="M179.768 67.8594H170.661V74.4322L173.022 74.4338V90.6181H170.661V97.1942H179.768V85.8098L188.654 85.8082V97.1942H197.753V90.6181H195.393V74.4322H197.753V67.8594H188.654V79.2255H179.768V67.8594Z" fill="#E31B23"/>
</g>
<defs>
<clipPath id="clip0_15016_302010">
<rect width="200" height="200" fill="white" transform="translate(0.855469 0.566406)"/>
</clipPath>
</defs>
</svg>
