<svg width="201" height="201" viewBox="0 0 201 201" fill="none" xmlns="http://www.w3.org/2000/svg">
<g clip-path="url(#clip0_15016_302741)">
<path d="M107.036 37.5772C94.137 37.5616 84.4105 40.5072 80.3604 41.9111L85.2686 43.2843C76.8173 44.8736 70.0257 47.8549 70.0257 47.8549L74.2714 49.769C62.9333 54.0191 54.4753 66.9964 54.4753 66.9964C58.7117 65.4606 63.8177 64.1582 68.6948 63.5162C65.7296 66.9821 63.4684 71.0073 61.5677 75.1381C60.1156 75.7788 56.3578 77.6105 52.1798 81.4926H47.9314V86.0925C44.5871 90.3003 41.3706 95.9553 39.1985 103.486C41.5653 101.15 44.7773 99.0751 47.9314 97.4021V100.655L48.3694 102.486C47.9127 104.21 47.456 105.934 47.0002 107.659H36.997V91.0404L34.2515 81.4895H9.37343V99.8192L11.595 105.496V118.627L9.36719 119.136V137.667L25.0539 152.775L27.3556 152.294C52.9154 146.937 79.41 144.117 106.571 144.117C135.832 144.117 164.315 147.389 191.695 153.579L193.807 154.059L209.367 139.088V120.469L205.768 119.601L203.329 114.08L205.926 106.434V91.9685L196.284 81.4961H165.523L163.448 91.1104V97.1383L159.325 81.4961H143.302C149.54 76.6329 158.552 69.7597 160.951 68.1749C159.523 65.6455 156.8 61.6061 154.869 59.4389C152.777 57.093 150.319 54.7365 147.334 53.5972C147.12 53.1245 146.794 52.5965 146.289 52.0787C145.277 51.1145 143.937 50.6111 142.617 50.2283C141.338 45.832 136.134 43.3882 132.173 41.9348C126.024 39.6793 119.265 38.2344 112.747 37.7826C110.782 37.6467 108.875 37.5839 107.034 37.5817L107.036 37.5772ZM108.223 39.6294C110.515 39.6664 112.83 39.8224 115.068 40.1463C127.829 41.9882 134.333 44.5355 137.564 46.9923C139.173 48.2162 140.012 49.3078 140.391 50.0804C140.746 50.8116 140.882 51.9192 140.882 51.9192C140.882 51.9192 143.851 52.527 144.837 53.5326C145.655 54.3644 145.685 55.2395 145.685 55.2395C150.526 56.3418 156.224 63.9626 158.219 67.5079C156.96 68.3411 144.066 78.1536 137.577 83.3849H157.868L165.913 113.891C166.326 113.918 167.491 114.092 167.491 114.092V106.902H165.349V91.3086L167.056 83.3853H195.459L204.036 92.7037V106.12L201.301 114.166L204.418 121.218L207.479 121.957V138.259L193.233 151.982L192.117 151.729C164.604 145.506 135.977 142.221 106.575 142.221C79.2825 142.221 51.6242 145.181 25.6483 150.714L11.2657 136.861V120.643L13.4944 120.136V105.137C12.6318 102.935 11.271 99.4645 11.271 99.4645V83.3871H32.8293L35.1065 91.3104V106.909H32.9447V109.556H47.1067L47.7786 112.14C48.6278 108.932 49.4762 105.722 50.3258 102.511L49.8299 100.437V93.8376C46.9289 95.1529 44.7118 96.4985 43.9357 97.1191C45.5958 93.0748 47.6672 89.7732 49.8299 87.0879V83.3875H53.2273C58.4234 78.437 63.1953 76.7251 63.1953 76.7251C63.1953 76.7251 65.665 71.0144 68.8276 66.7375C70.6878 64.2233 73.9087 61.0104 73.9087 61.0104C73.9087 61.0104 67.1634 61.1463 60.2715 63.1713C64.1038 58.3923 68.0024 55.3041 71.152 53.5308C74.324 51.7365 78.7951 50.4101 78.7951 50.4101C78.7951 50.4101 77.2379 48.8222 75.3732 47.9823C82.2326 45.243 92.4095 44.4927 92.4095 44.4927C92.4095 44.4927 89.8093 42.4137 87.7695 41.8439C88.7863 41.5338 98.2918 39.4664 108.223 39.6272L108.223 39.6294ZM118.837 52.4802C118.303 52.4788 117.764 52.5203 117.19 52.6018C114.628 52.9685 112.819 55.9065 112.177 57.4744C112.748 57.1153 114.46 56.2371 116.628 56.9879C118.007 57.4668 119.078 58.272 119.94 59.2829C121.827 61.4871 123.052 62.0088 124.265 62.2388C124.806 61.8703 125.638 61.1823 125.638 61.1823C125.638 61.1823 125.116 61.2821 124.896 61.259C124.367 61.2215 123.847 61.1124 123.356 60.9284C122.504 60.5991 121.737 60.0564 121.156 59.3627C120.453 58.6093 119.926 57.6771 119.699 56.6154C119.399 55.227 119.774 53.7188 120.454 52.6152C119.899 52.5252 119.371 52.4815 118.837 52.4802ZM127.054 54.7066C127.015 55.3848 126.868 56.6965 126.322 57.065C126.322 57.065 127.973 56.5958 128.137 55.2021C127.765 55.0332 127.403 54.8688 127.054 54.7066ZM14.3463 86.4614V96.3844H16.5696V122.592C15.8255 122.758 15.0828 122.926 14.3409 123.095V132.978C15.1175 132.796 15.8959 132.619 16.6743 132.442V122.581C17.3342 122.465 18.0716 122.347 18.8878 122.203V96.3849H16.6881V86.4619H14.3463V86.4614ZM86.0096 86.4614V96.3866H88.2253V113.193C87.4857 113.223 86.7478 113.258 86.0096 113.294V122.845C86.7835 122.805 87.5619 122.78 88.3376 122.745V113.188C88.9418 113.163 90.0107 113.137 90.5538 113.114V96.3871H88.3376V86.4623H86.0096V86.4614ZM52.9061 86.4623V96.363H55.1356C55.1356 96.363 50.7456 112.95 49.7671 116.646C49.0239 116.748 48.2812 116.851 47.5393 116.957V126.66C48.3017 126.549 49.0778 126.439 49.8593 126.331V116.64C50.7879 116.534 51.6251 116.454 52.0845 116.405C53.0625 112.708 57.4556 96.363 57.4556 96.363H55.2279V86.4623H52.9061ZM113.056 86.4623L106.613 97.734L109.279 97.7313L115.728 86.4628L113.056 86.4623ZM135.942 86.4623V96.4156H138.152L133.619 113.664C132.882 113.616 132.145 113.57 131.408 113.527V123.111C132.151 123.158 132.933 123.211 133.738 123.267V113.66C134.301 113.702 135.07 113.765 135.98 113.816L140.554 96.4156H138.265V86.4628L135.942 86.4623ZM170.133 86.4623V96.3795H172.341V117.962C171.599 117.844 170.857 117.726 170.113 117.611V127.347C170.89 127.471 171.663 127.608 172.439 127.735V117.972L174.662 118.31V96.3795H172.454V86.4623H170.133ZM132.45 88.1167C131.69 89.0345 130.951 90.0789 130.248 91.2436V99.4619L129.632 106.908H128.026V110.259L131.284 110.436L132.171 107.061V91.3086L132.45 88.1167ZM65.2333 96.363L67.2245 103.838L66.5699 104.712L62.6446 106.378H65.0359L68.9612 104.712L69.6158 103.838L67.6237 96.363H65.2333ZM148.254 96.363L150.247 103.838L149.59 104.712L145.665 106.378H148.054L151.979 104.712L152.634 103.838L150.642 96.363H148.254ZM187.269 96.4067L189.674 97.6008L190.877 99.9867V101.218L189.68 103.594L188.394 104.44L182.837 106.167H185.163L190.72 104.44L192.005 103.594L193.203 101.218V101.177V99.9867L191.999 97.6008L189.596 96.4067H187.269ZM78.5804 97.5295L81.9804 110.428C81.9804 110.428 84.3628 110.282 85.147 110.256V106.908H83.7216L82.9931 100.046C81.4422 99.2516 79.9816 98.3965 78.5804 97.5295ZM115.401 100.483V122.457C116.178 122.474 116.952 122.502 117.727 122.524V100.483H115.401ZM97.7829 100.538L106.559 115.74H106.592L107.909 113.459L100.445 100.538H97.7829ZM70.8148 111.552L68.4235 111.552L69.1328 112.016L71.893 123.847C72.6696 123.78 73.456 123.715 74.2433 123.652L71.525 112.016L70.8148 111.552ZM151.443 111.552L152.152 112.016L155.095 125.259C155.91 125.357 156.697 125.456 157.468 125.552L154.463 112.016L153.752 111.552H151.443ZM34.5999 112.63V119.002L36.9324 118.577V112.63H34.5999ZM185.452 112.929L186.739 113.569L194.796 132.068C195.747 132.282 196.703 132.499 197.658 132.719L189.277 113.569L187.99 112.929H185.452V112.929ZM106.575 125.509C74.9905 125.509 44.2551 129.146 14.7682 136.021L26.3509 147.424C52.2444 141.997 79.078 139.141 106.582 139.141C136.124 139.141 164.897 142.435 192.552 148.671L204.025 137.376C172.821 129.624 140.182 125.507 106.582 125.507L106.575 125.509ZM185.911 127.827V128.348L186.421 128.455V130.306L187.038 130.434V128.583L187.549 128.688V128.166L185.911 127.827ZM188.034 128.266L187.631 130.557L188.245 130.684L188.443 129.359L188.45 129.36L188.995 130.839L189.241 130.89L189.81 129.641L189.818 129.643L189.99 131.045L190.607 131.172L190.248 128.723L189.634 128.596L189.124 129.761L188.643 128.391L188.034 128.266Z" fill="white"/>
<path d="M128.183 59.4311C129.314 58.7066 130.107 57.4412 130.02 55.9747C129.595 55.8032 129.17 55.6233 128.753 55.4367C128.921 56.6921 127.896 57.9558 126.469 58.1719C125.04 58.393 123.752 57.4774 123.575 56.2159C123.434 55.2028 124.072 54.2254 125.075 53.7731C124.444 53.5415 123.145 53.1159 123.027 53.0853C121.88 53.9057 121.204 55.3688 121.505 56.8124C121.805 58.2287 122.948 59.3192 124.275 59.7698C125.637 60.227 127.077 60.1379 128.183 59.4311Z" fill="#C8DF8E"/>
<path d="M140.311 54.7231C140.311 54.7231 135.956 56.4995 130.734 60.8972L129.717 61.7544L131.048 61.7005C131.058 61.7005 144.958 61.2362 154.481 66.0139C154.481 66.0139 152.874 63.6235 150.939 61.8003C149.068 60.0381 145.801 58.026 143.253 57.1349C143.23 57.0828 143.276 54.8144 140.311 54.7231ZM134.015 64.1912L132.379 64.3017L133.84 65.0493C137.181 66.7522 135.392 71.4867 132.886 75.4972C131.479 77.7463 131.329 79.6297 131.558 80.9717C131.672 81.6374 131.878 82.1605 132.058 82.5205C132.247 82.9001 132.709 83.4753 132.709 83.4753L153.415 67.9129C153.415 67.9129 145.224 64.1266 134.015 64.1912Z" fill="#FCB034"/>
<path d="M107.269 42.6825C104.698 42.6526 102.2 42.7631 99.8609 43.0122C103.212 44.2393 105.448 48.3433 105.448 48.3433C95.1086 46.181 85.5273 48.5794 85.5273 48.5794C88.0911 49.5503 89.1172 52.0913 89.1172 52.0913C77.8998 51.6302 67.8846 58.7947 67.8846 58.7947C75.7104 55.9414 82.9239 58.3634 82.9239 58.3634C76.9259 61.3308 72.5897 66.5719 70.0046 70.45C72.7024 67.3445 77.3211 63.2685 84.7008 60.0917C89.8523 57.8711 94.6069 56.9305 98.4667 56.6044C100.561 53.911 104.846 49.9486 112.215 49.3788C122.537 48.5839 130.004 52.9579 131.393 53.4378C132.78 53.9159 135.916 54.9362 137.206 53.2324C138.057 52.0998 138.397 49.9914 130.115 46.758C123.362 44.1203 114.983 42.7716 107.269 42.6825ZM112.336 52.3413C108.957 53.0038 106.394 55.4985 105.643 56.6418C107.241 56.8111 108.141 57.025 108.141 57.025C108.756 55.9583 110.231 53.6788 112.336 52.3413ZM99.1854 59.8034C94.9366 59.7388 89.5676 60.2499 84.1679 62.34C74.854 65.9446 69.7609 72.4671 68 75.1079C72.4391 73.2762 81.1203 73.5417 81.1203 73.5417C69.981 75.5815 62.6596 79.6712 58.049 83.3841H74.8514L77.2774 92.5866C79.3862 93.9785 81.2152 95.1659 82.9311 96.1631V83.3836H101.959L106.615 91.5288L111.271 83.3836H128.116C127.738 81.6161 127.918 78.8942 130.365 75.266C132.922 71.4744 132.937 68.3492 132.082 67.5904C130.37 66.0867 127.811 65.1684 120.53 69.1864C115.497 71.9685 112.228 72.2572 109.662 70.8911C106.524 69.2221 108.156 64.2452 108.156 64.2452C90.1745 65.7534 85.8994 76.4387 85.8994 76.4387C87.8006 64.7558 103.161 61.1749 106.554 60.5257C105.117 60.2517 102.49 59.8529 99.185 59.8026L99.1854 59.8034ZM16.6907 86.4602V96.3832H18.8904V122.201C18.0741 122.345 17.3376 122.463 16.6777 122.58V132.44C25.6864 130.385 34.8056 128.626 44.0291 127.188V112.629H36.9341V118.574L34.6016 119.001L28.5215 120.107L27.5226 119.332V96.3832H29.7512V86.4602H16.6907ZM88.3361 86.4602V96.3841H90.5528V113.111C90.0092 113.134 88.9403 113.16 88.3361 113.185V122.742C91.4764 122.603 94.6238 122.491 97.7806 122.423V100.537H100.444L107.907 113.458L115.398 100.481H117.724V122.522C120.882 122.606 124.032 122.717 127.171 122.877V113.297C126.43 113.26 125.689 113.225 124.948 113.194V96.385H127.169V86.4611H115.728L109.277 97.7296L106.613 97.7314L100.171 86.4602H88.3357H88.3361ZM55.2264 86.4611V96.3618H57.455C57.455 96.3618 53.0614 112.707 52.083 116.404C51.6241 116.452 50.7869 116.533 49.8588 116.639V126.329C52.5058 125.964 55.2344 125.61 57.8503 125.291L59.9163 115.376L60.5272 114.536L68.4211 111.55L70.8115 111.549L71.5235 112.015L74.24 123.65C76.7904 123.444 79.3764 123.259 81.8911 123.105V113.513C81.1431 113.555 80.3954 113.605 79.6478 113.654L72.477 86.4611H55.2264ZM138.265 86.4611V96.4139H140.554L135.979 113.814C135.07 113.763 134.301 113.7 133.738 113.657V123.264C136.19 123.437 138.85 123.643 141.266 123.843L142.934 115.377L143.547 114.536L151.441 111.55H153.75L154.46 112.014L157.466 125.55C160.387 125.919 163.035 126.28 165.662 126.665V116.963C164.928 116.858 164.193 116.755 163.457 116.654L155.496 86.4611H138.264H138.265ZM172.455 86.4611V96.3783H174.662V118.309L172.438 117.97V127.733C175.681 128.269 178.915 128.834 182.133 129.443V114.631L182.789 113.979L185.451 112.928H187.989L189.276 113.567L197.657 132.717C199.958 133.248 202.245 133.795 204.4 134.333V124.379C203.672 124.203 202.946 124.024 202.216 123.853L196.006 109.794L200.957 104.844V93.9032L194.108 86.4611H172.455H172.455ZM64.412 96.3618H67.6249L69.617 103.837L68.9624 104.711L65.0366 106.377H62.6453L61.891 105.878L64.412 96.3618ZM147.432 96.3618H150.643L152.635 103.837L151.979 104.711L148.054 106.377H145.666L144.913 105.878L147.432 96.3618ZM182.815 96.4055H189.597L192 97.5982L193.203 99.9855V101.217L192.006 103.592L190.721 104.438L185.164 106.166H182.837L182.134 105.467V97.0809L182.815 96.4055Z" fill="#E31937" stroke="#E31937" stroke-width="0.382513"/>
<path d="M108.222 39.6286C98.2902 39.4673 88.7847 41.5351 87.7679 41.8448C89.8081 42.4146 92.408 44.4927 92.408 44.4927C92.408 44.4927 82.231 45.2453 75.3717 47.9841C77.2363 48.824 78.7935 50.4115 78.7935 50.4115C78.7935 50.4115 74.3224 51.7375 71.1505 53.5322C68.0008 55.3046 64.1022 58.3936 60.27 63.1727C67.1618 61.1472 73.9062 61.0117 73.9062 61.0117C73.9062 61.0117 70.6866 64.2242 68.826 66.7389C65.6634 71.0158 63.1937 76.7265 63.1937 76.7265C63.1937 76.7265 58.42 78.4388 53.2253 83.3844H49.8279V87.0848C47.6656 89.7706 45.5938 93.0717 43.9336 97.116C44.7098 96.4958 46.9269 95.1502 49.8279 93.835V100.433L50.3238 102.508C49.4741 105.719 48.6258 108.929 47.7766 112.137L47.1047 109.552H32.9427V106.907H35.1054V91.3069L32.8273 83.3835H11.269V99.461C11.269 99.461 12.6297 102.932 13.4923 105.133V120.132L11.2637 120.64V136.858L25.6493 150.713C51.6226 145.18 79.281 142.219 106.576 142.22C135.978 142.22 164.605 145.505 192.118 151.728L193.234 151.98L207.48 138.258V121.956L204.419 121.218L201.303 114.165L204.037 106.119V92.7037L195.46 83.3844H167.058L165.349 91.3078V106.901H167.492V114.091C167.492 114.091 166.327 113.918 165.914 113.89L157.87 83.3844H137.578C144.068 78.1536 156.961 68.3402 158.22 67.5062C156.225 63.9613 150.527 56.3414 145.686 55.2386C145.686 55.2386 145.656 54.364 144.839 53.5322C143.852 52.5261 140.884 51.9188 140.884 51.9188C140.884 51.9188 140.747 50.8112 140.392 50.08C140.013 49.3074 139.174 48.2158 137.565 46.9914C134.334 44.535 127.83 41.9874 115.069 40.1454C112.831 39.822 110.516 39.666 108.224 39.6286H108.222ZM107.268 42.6829C114.983 42.772 123.36 44.1211 130.114 46.7584C138.396 49.9918 138.055 52.1006 137.204 53.2328C135.914 54.937 132.78 53.9162 131.392 53.4377C130.003 52.9587 122.536 48.5843 112.214 49.3791C104.845 49.949 100.56 53.9113 98.4653 56.6047C94.6054 56.9313 89.8509 57.871 84.6994 60.0916C77.3192 63.2685 72.7019 67.3449 70.004 70.4499C72.5892 66.5718 76.9244 61.3303 82.9225 58.3633C82.9225 58.3633 75.7094 55.9413 67.8832 58.7951C67.8832 58.7951 77.8984 51.6305 89.1157 52.0917C89.1157 52.0917 88.0901 49.5498 85.5263 48.5794C85.5263 48.5794 95.1076 46.1814 105.447 48.3437C105.447 48.3437 103.21 44.2396 99.859 43.0126C102.198 42.7635 104.696 42.653 107.268 42.6829H107.268ZM112.335 52.3416C110.23 53.6792 108.755 55.9582 108.141 57.0253C108.141 57.0253 107.239 56.8115 105.641 56.6426C106.394 55.4989 108.956 53.0046 112.335 52.3416ZM118.835 52.4793C119.369 52.4802 119.898 52.5243 120.453 52.6139C119.773 53.7175 119.399 55.2262 119.698 56.6145C119.925 57.6763 120.452 58.6084 121.154 59.3618C121.736 60.0551 122.503 60.5982 123.355 60.9275C123.846 61.1115 124.367 61.2207 124.895 61.259C125.116 61.2817 125.636 61.1815 125.636 61.1815C125.636 61.1815 124.805 61.8703 124.263 62.2388C123.05 62.0089 121.827 61.4858 119.939 59.2816C119.078 58.2707 118.006 57.466 116.627 56.987C114.458 56.2362 112.747 57.1135 112.176 57.4736C112.818 55.9052 114.626 52.9681 117.188 52.601C117.762 52.519 118.301 52.4775 118.835 52.4789V52.4793ZM123.027 53.0857C123.145 53.1156 124.445 53.542 125.076 53.7732C124.072 54.225 123.435 55.2021 123.576 56.2158C123.752 57.4767 125.039 58.3927 126.469 58.1722C127.896 57.9556 128.921 56.6916 128.754 55.4369C129.169 55.6232 129.596 55.8027 130.02 55.9738C130.108 57.4406 129.314 58.7064 128.183 59.4313C127.077 60.138 125.637 60.2267 124.275 59.77C122.949 59.3191 121.805 58.2292 121.505 56.8128C121.204 55.3692 121.88 53.906 123.027 53.0857ZM127.054 54.7062C127.402 54.8684 127.766 55.0324 128.137 55.2012C127.973 56.5949 126.321 57.0641 126.321 57.0641C126.868 56.6961 127.014 55.3843 127.054 54.7062ZM140.31 54.7218C143.275 54.8127 143.228 57.0819 143.252 57.134C145.8 58.0252 149.066 60.0364 150.938 61.7995C152.872 63.6218 154.479 66.0131 154.479 66.0131C144.956 61.2345 131.056 61.6992 131.047 61.6992L129.715 61.7531L130.732 60.8954C135.954 56.4982 140.309 54.7222 140.309 54.7222L140.31 54.7218ZM99.1844 59.8038C102.489 59.8542 105.116 60.2534 106.553 60.5278C103.16 61.1766 87.8 64.7575 85.8988 76.4409C85.8988 76.4409 90.1739 65.7547 108.156 64.2465C108.156 64.2465 106.523 69.2238 109.661 70.8933C112.228 72.2593 115.496 71.9697 120.53 69.1877C127.81 65.1692 130.37 66.0871 132.081 67.5917C132.937 68.35 132.922 71.4747 130.364 75.2673C127.917 78.8955 127.738 81.6169 128.115 83.3849H111.27L106.615 91.5301L101.959 83.3849H82.9305V96.1643C81.2142 95.1667 79.3852 93.9798 77.2769 92.5874L74.8508 83.3849H58.0484C62.659 79.6725 69.9804 75.5828 81.1198 73.5425C81.1198 73.5425 72.4386 73.2774 67.9995 75.1091C69.7603 72.4683 74.8535 65.9458 84.1674 62.3422C89.5671 60.2512 94.936 59.7397 99.1849 59.8047L99.1844 59.8038ZM134.014 64.1899C145.223 64.1248 153.414 67.9116 153.414 67.9116L132.708 83.474C132.708 83.474 132.246 82.8988 132.057 82.5192C131.878 82.1592 131.671 81.6361 131.557 80.9704C131.328 79.6284 131.478 77.745 132.885 75.4959C135.391 71.4854 137.18 66.7509 133.838 65.048L132.377 64.3004L134.013 64.1899H134.014ZM14.346 86.4606H29.748V96.3835H27.5185V119.332L28.5192 120.108L34.5988 119V112.629H44.025V127.188C34.802 128.626 25.6828 130.385 16.6736 132.44C15.8957 132.618 15.1173 132.794 14.3407 132.976V123.094C15.0821 122.924 15.8253 122.757 16.5694 122.591V96.3835H14.346V86.4606ZM52.904 86.4615H72.4764L79.6472 113.654C80.394 113.606 81.1421 113.555 81.8906 113.513V123.104C79.3759 123.259 76.7903 123.445 74.2404 123.65C73.4522 123.713 72.6662 123.778 71.8896 123.844L69.1294 112.015L68.4201 111.55L60.5262 114.536L59.9153 115.376L57.8497 125.291C55.2338 125.61 52.5057 125.964 49.8582 126.329C49.0767 126.439 48.2992 126.547 47.5373 126.658V116.955C48.2792 116.849 49.0215 116.745 49.7651 116.643C50.7431 112.948 55.1336 96.3613 55.1336 96.3613H52.904V86.4606V86.4615ZM86.0075 86.4615H100.17L106.612 97.7318L113.054 86.4615H127.168V96.3844H124.947V113.193C125.689 113.225 126.431 113.26 127.172 113.297V122.878C124.032 122.718 120.882 122.606 117.724 122.523C116.949 122.502 116.175 122.473 115.397 122.457V100.483L107.906 113.459L106.589 115.739H106.556L97.7791 100.537V122.424C94.6224 122.491 91.4758 122.604 88.3356 122.744C87.5603 122.778 86.7824 122.804 86.008 122.844V113.292C86.7458 113.255 87.4837 113.222 88.2233 113.191V112.895V96.7899V96.384H86.008V86.461L86.0075 86.4615ZM135.941 86.4615H155.495L163.457 116.654C164.193 116.755 164.927 116.859 165.662 116.964V126.666C163.034 126.28 160.386 125.919 157.465 125.55C156.694 125.454 155.908 125.355 155.092 125.257L152.149 112.015L151.44 111.551L143.547 114.536L142.933 115.377L141.266 123.844C138.85 123.643 136.189 123.437 133.737 123.265C132.932 123.21 132.15 123.157 131.408 123.11V113.524C132.144 113.569 132.881 113.615 133.618 113.663L138.151 96.4138H135.941V86.4615ZM170.133 86.4615H194.106L200.956 93.9036V104.844L196.004 109.794L202.215 123.853C202.945 124.024 203.671 124.204 204.398 124.38V134.333C202.245 133.796 199.957 133.248 197.655 132.717C196.701 132.496 195.744 132.28 194.793 132.065L186.737 113.567L185.451 112.928L182.787 113.979L182.131 114.63V129.443C178.915 128.834 175.68 128.269 172.437 127.733C171.661 127.606 170.889 127.47 170.112 127.346V117.61C170.855 117.725 171.598 117.842 172.34 117.961V96.3782H170.133V86.4615ZM132.45 88.1154L132.169 91.3078V107.06L131.283 110.436L128.025 110.258V106.908H129.631L130.246 99.461V91.2427C130.949 90.078 131.69 89.0332 132.45 88.1154ZM64.4087 96.3617L61.8891 105.877L62.643 106.377L66.5683 104.711L67.2229 103.837L65.2317 96.3617H64.4087ZM147.429 96.3617L144.911 105.877L145.663 106.377L149.588 104.711L150.244 103.837L148.251 96.3617H147.429ZM182.812 96.4054L182.131 97.0808V105.466L182.835 106.166L188.392 104.438L189.678 103.593L190.875 101.217V99.9854L189.672 97.599L187.267 96.4054H182.812ZM78.5783 97.5273C79.9787 98.3943 81.4397 99.2512 82.9911 100.045L83.7196 106.907H85.1449V110.254C84.3608 110.28 81.9784 110.427 81.9784 110.427L78.5783 97.5273ZM106.574 125.508C140.177 125.508 172.815 129.625 204.018 137.377L192.544 148.672C164.892 142.434 136.118 139.137 106.578 139.137C79.0756 139.137 52.2424 141.993 26.3511 147.418L14.7671 136.016C44.2571 129.137 74.9929 125.501 106.578 125.501L106.574 125.508ZM185.91 127.826L187.548 128.165V128.687L187.038 128.582V130.433L186.421 130.306V128.453L185.91 128.348V127.826ZM107.858 128.14L99.1956 128.208V136.671L107.938 136.601V135.009L101.165 135.063V132.965L105.072 132.933V131.493L101.165 131.524V129.634L107.858 129.581V128.14ZM188.031 128.264L188.639 128.39L189.12 129.76L189.631 128.595L190.245 128.722L190.604 131.171L189.986 131.044L189.813 129.64L189.807 129.639L189.237 130.889L188.992 130.838L188.447 129.358L188.441 129.357L188.242 130.683L187.628 130.555L188.031 128.264ZM116.497 128.268V136.73L118.433 136.8V133.605L120.297 133.672L123.705 136.989L126.529 137.092L122.625 133.756L123.728 133.796C124.4 133.821 124.887 133.707 125.189 133.457C125.49 133.206 125.641 132.794 125.641 132.225V130.239C125.641 129.662 125.49 129.239 125.189 128.97C124.887 128.7 124.401 128.553 123.728 128.529L116.497 128.268ZM91.9833 128.385L90.0242 128.481L86.7619 134.758L83.3391 128.812L81.0939 128.923L85.9786 137.143L87.338 137.075L91.9833 128.384V128.385ZM136.135 129.284C135.621 129.295 135.255 129.397 135.04 129.593C134.752 129.853 134.609 130.367 134.609 131.135V132.071C134.609 132.839 134.752 133.376 135.04 133.683C135.327 133.989 135.88 134.177 136.699 134.244L141.958 134.672V136.601L135.998 136.115V135.114L134.266 135.334V135.566C134.266 136.334 134.411 136.871 134.701 137.177C134.991 137.485 135.548 137.672 136.372 137.74L141.583 138.164C142.406 138.232 142.964 138.135 143.254 137.876C143.544 137.617 143.689 137.103 143.689 136.334V135.174C143.689 134.405 143.544 133.868 143.254 133.562C142.964 133.254 142.406 133.068 141.583 133L136.325 132.571V130.753L141.846 131.205V132.164L143.577 131.899V131.722C143.577 131.028 143.427 130.534 143.127 130.236C142.826 129.94 142.279 129.758 141.486 129.694L136.699 129.303C136.494 129.287 136.307 129.281 136.135 129.284ZM73.9 129.479L71.9369 129.642V138.105L73.9 137.94V129.479ZM118.432 129.803L122.856 129.962C123.197 129.974 123.43 130.033 123.556 130.136C123.681 130.24 123.744 130.413 123.744 130.658V131.675C123.744 131.926 123.681 132.099 123.556 132.194C123.43 132.287 123.197 132.328 122.856 132.315L118.432 132.156V129.803ZM62.7508 130.512L60.9944 130.727V135.171C60.9944 135.278 60.9998 135.429 61.0105 135.626C61.0216 135.821 61.0426 136.155 61.0746 136.626C60.9468 136.487 60.8064 136.353 60.6536 136.226C60.4994 136.097 60.3225 135.962 60.1207 135.821L54.2082 131.558L52.8733 131.722V140.184L54.6297 139.968V135.399C54.6297 135.227 54.6234 135.026 54.6105 134.795C54.5971 134.564 54.5766 134.321 54.5504 134.062C54.6457 134.163 54.7486 134.26 54.86 134.353C54.971 134.446 55.1015 134.55 55.2499 134.665L61.4155 139.139L62.7504 138.974L62.7508 130.512ZM152.642 130.841V139.303L154.597 139.535V131.074L152.642 130.841ZM161.86 131.995V133.509L165.698 134.095V141.044L167.644 141.342V134.394L171.499 134.982V133.469L161.86 131.995ZM43.7385 133.068L41.8048 133.4V140.269L36.2745 141.217V134.349L34.3332 134.682V141.141C34.3332 141.915 34.4758 142.418 34.7628 142.65C35.0501 142.88 35.5955 142.927 36.4006 142.789L41.6707 141.884C42.4807 141.745 43.0283 141.512 43.313 141.183C43.5964 140.854 43.7385 140.302 43.7385 139.529V133.068ZM176.724 134.365L181.039 139.876V143.662L182.988 144.04V140.205L187.286 136.411L185.017 135.97L182.155 138.667L179.302 134.864L176.724 134.365Z" fill="black"/>
</g>
<defs>
<clipPath id="clip0_15016_302741">
<rect width="200" height="200" fill="white" transform="translate(0.5625 0.945312)"/>
</clipPath>
</defs>
</svg>
