<svg width="201" height="201" viewBox="0 0 201 201" fill="none" xmlns="http://www.w3.org/2000/svg">
<path d="M178.405 85.3392C176.439 71.8862 156.996 79.4348 161.818 66.8876C161.818 66.8876 147.403 54.673 114.752 51.9391L114.961 51.1246C115.613 48.6038 116.444 48.0674 117.74 47.9737H129.365L135.625 23.7468H62.6604L56.3999 47.9722H69.9925L68.1408 55.133C59.345 55.7004 53.6314 56.6795 53.6314 56.6795L59.7838 60.5651C47.3515 62.3951 34.7104 66.6322 21.625 72.1712C21.625 72.1712 41.2018 73.7269 59.6119 88.1421L44.5611 146.378C44.5611 146.378 42.8263 153.043 36.3577 153.043H29.2482L22.9876 177.266H130.556L145.222 130.961H122.987C121.247 137.691 117.282 153.042 100.619 153.042H88.6212L91.9796 140.048C99.2429 131.556 123.832 108.61 161.969 132.203C161.969 132.203 166.117 111.19 130.691 98.5394C130.691 98.5394 137.823 94.8994 145.395 94.8994C162.804 94.8994 160.354 112.443 160.354 112.443C165.689 108.386 180.945 98.0493 178.405 85.3342L178.405 85.3392Z" fill="#663700"/>
<path d="M123.994 80.8634C124.042 81.2392 124.074 81.6212 124.074 82.0111C124.074 82.2303 124.057 82.4443 124.042 82.6608C122.917 82.3412 121.776 82.0566 120.707 81.8115C117.91 81.1711 115.64 80.806 115.64 80.806C115.64 80.806 117.329 81.222 120.525 83.4496C121.359 84.0333 122.299 84.7425 123.339 85.597C121.946 88.8357 118.731 91.109 114.979 91.109C109.957 91.109 105.884 87.0358 105.884 82.0111C105.884 78.5904 107.775 75.6164 110.564 74.0613C109.165 73.6167 107.781 73.2439 106.431 72.947C104.019 75.22 102.506 78.4363 102.506 82.0111C102.506 88.9011 108.092 94.4843 114.979 94.4843C116.121 94.4843 117.224 94.3166 118.275 94.032C118.802 93.8865 119.32 93.721 119.819 93.51C123.829 91.8213 126.757 88.0926 127.335 83.6234C126.265 82.6381 125.148 81.7148 123.994 80.8634Z" fill="white"/>
<path d="M67.9324 30.8569L65.3489 40.8603H70.0546C70.0546 40.8603 78.9357 40.8692 76.2866 51.124L75.3329 54.809C82.2514 54.6267 90.2873 54.798 98.6271 55.7636L91.9152 51.6515C97.5665 51.349 102.83 51.3294 107.75 51.5148L107.85 51.1246C110.501 40.8698 119.386 40.8615 119.386 40.8615H124.091L126.677 30.8582H67.9311L67.9324 30.8569ZM152.101 73.6674C145.267 73.6523 139.951 79.533 135.272 84.3465C130.916 89.0325 125.485 91.5539 119.819 93.5104C119.32 93.7213 118.802 93.8865 118.275 94.032C109.924 96.7659 101.225 98.6091 94.8014 104.585C106.975 109.768 118.409 112.92 131.161 114.791C142.395 116.44 150.974 120.947 156.249 123.883C144.939 110.077 117.636 111.216 101.084 104.192C121.159 94.1002 140.971 88.2895 157.349 92.0833C161.424 93.6301 163.19 98.2158 164.301 101.836C169.283 97.8513 172.898 89.938 171.525 84.9394C169.466 77.4421 153.911 82.3446 146.074 85.6453C143.462 85.4267 140.121 85.8448 140.121 85.8448C143.662 81.2617 149.843 76.2717 156.058 74.326C154.683 73.8746 153.365 73.6698 152.1 73.6671L152.101 73.6674ZM65.4147 93.192L50.7612 149.893C50.7612 149.893 48.1096 160.156 34.5201 160.156L31.9336 170.159H125.688L135.848 138.074H127.835C127.834 138.074 121.112 160.155 98.7812 160.155H79.6742L87.1852 131.083C82.5026 113.987 74.3793 101.833 65.4156 93.1914L65.4147 93.192Z" fill="#C1A875"/>
<path d="M107.777 57.2839L112.325 62.1235C101.977 59.58 83.8158 60.9355 70.1197 63.1886C56.6668 65.4048 41.7324 72.1726 41.7324 72.1726C84.9666 80.664 93.0908 130.375 93.0908 130.375C93.0908 130.375 99.7327 120.451 115.077 117.25C107.976 113.25 94.6202 109.362 87.0262 108.653C89.0259 100.638 96.927 96.4449 102.592 93.3232C102.592 93.3232 97.8582 89.7165 97.8582 81.6079C97.8582 79.2348 97.8644 74.8257 101.408 72.1563C97.2349 71.7722 93.7206 72.1882 91.5756 73.2819C91.5756 73.2819 107.475 56.5329 133.781 77.2602C133.781 77.2602 138.72 69.0773 147.604 66.6849C147.604 66.6849 138.877 57.8409 107.778 57.2855L107.777 57.2839ZM120.765 102.207C119.862 102.239 118.99 102.56 118.612 103.23C122.728 105.061 128.547 107.155 134.247 107.779L122.708 102.624C122.188 102.329 121.467 102.18 120.765 102.205L120.765 102.207Z" fill="#994708"/>
<path d="M123.995 80.863C122.084 79.4442 120.075 78.2163 118.033 77.157C119.594 78.1426 120.64 79.8464 120.708 81.8111C121.776 82.0561 122.918 82.3408 124.043 82.6604C124.057 82.4436 124.075 82.2299 124.075 82.0107C124.075 81.6208 124.043 81.2388 123.995 80.863ZM114.98 87.7588C111.804 87.7588 109.231 85.1867 109.231 82.0104C109.231 78.8378 111.804 76.2626 114.98 76.2626C115.709 76.2626 116.401 76.4103 117.045 76.6581C114.891 75.6071 112.71 74.7443 110.565 74.0605C107.776 75.6157 105.885 78.5897 105.885 82.0104C105.885 87.0351 109.958 91.1083 114.98 91.1083C118.731 91.1083 121.947 88.8353 123.34 85.5963C122.301 84.7421 121.36 84.0326 120.526 83.4489C119.885 85.9245 117.657 87.7588 114.98 87.7588Z" fill="#027346"/>
</svg>
