<svg width="201" height="201" viewBox="0 0 201 201" fill="none" xmlns="http://www.w3.org/2000/svg">
<path d="M181.996 65.0418C179.536 59.1397 175.304 54.7797 172.17 52.1531C167.563 48.1062 160.631 46.4223 157.065 45.7206C156.991 45.5409 156.913 45.3755 156.824 45.2135C156.384 44.3833 155.888 43.5557 155.352 42.7515C154.306 41.1817 153.125 39.7782 151.838 38.577C146.091 33.2239 138.373 29.5346 128.896 27.6081C126.513 27.1254 123.98 26.73 121.365 26.4388C119.204 26.197 116.644 25.9309 114.048 25.7714C112.261 25.6631 110.449 25.5985 108.665 25.5792C89.6328 25.3744 70.8581 30.1004 47.7887 40.9047C40.9927 44.0879 34.2419 47.3919 27.226 50.073C25.8392 50.6027 24.4441 51.1055 23.0389 51.5832L18.2759 73.1851L28.2073 74.1857C30.07 74.5618 30.9287 75.1645 31.1495 75.476C31.1528 75.481 31.1579 75.4852 31.1621 75.4885C31.4047 75.8495 31.3157 76.7922 31.1478 77.5687L30.9951 78.2813L30.1842 82.0974L27.8354 93.1343L26.7164 98.3942L25.9509 101.996L17.5859 141.314H68.2314C67.9863 145.801 68.4992 150.001 69.7592 153.817C70.006 154.622 70.2881 155.399 70.6272 156.207C74.136 164.486 81.4937 170.725 90.8156 173.32C96.2392 174.835 101.984 175.67 106.982 175.67C121.201 175.67 131.302 172.018 138.767 164.177C144.442 158.214 148.331 150.122 150.654 139.437L161.871 87.6755C163.197 87.1642 164.358 86.6094 165.326 86.0847C166.322 85.5466 167.718 84.6887 168.976 83.7234C168.989 83.7326 169 83.7419 169.012 83.7503C169.249 83.924 169.466 84.0927 169.664 84.2573C170.929 85.315 171.861 86.7596 172.506 88.0322C173.929 90.4405 175.43 93.9846 176.264 98.9776C176.264 98.9776 183.015 88.8213 183.991 78.7221C183.994 78.6985 183.998 78.6767 183.999 78.6541C184.027 78.3451 184.051 78.0362 184.068 77.729C184.34 73.2934 183.654 69.0232 181.995 65.0401" fill="white"/>
<path d="M107.431 29.1196C86.989 29.1364 68.3059 35.2139 49.2984 44.1166C41.5448 47.7477 34.8843 50.8368 27.9573 53.4948H73.8421L70.7389 68.0835C71.3299 68.0324 71.9255 67.9834 72.5172 67.9418C77.0427 67.6234 81.5421 67.6147 85.1423 68.246C88.547 68.8436 91.1526 70.1928 92.9792 71.8703C96.0885 75.2515 95.8736 86.1346 83.4224 81.2968C81.9094 80.7099 80.3696 80.1794 78.829 79.7005C75.3692 78.6234 71.9208 77.8101 68.8002 77.1963L67.1911 84.7647H125.139C127.63 83.1389 129.672 81.6185 131.237 80.3298C134.802 82.1396 136.925 82.9334 139.819 83.9226C140.786 84.2536 141.753 84.5283 142.727 84.7647C144.318 85.1468 145.923 85.4221 147.569 85.6592C152.121 86.459 156.17 85.8613 159.474 84.762C164.921 82.9508 168.319 79.7764 168.554 79.2519C169.897 80.0074 171.052 80.7797 171.945 81.5298C175.719 84.6841 177.103 90.0249 177.103 90.0249C181.327 81.1377 181.541 73.1798 178.721 66.4032C176.397 60.8321 172.308 56.8955 169.857 54.8439C164.901 50.4607 156.076 49.1593 154.565 48.8598C154.411 48.6878 154.136 47.9646 153.995 47.6113C153.88 47.3038 153.78 47.0412 153.692 46.8807C153.303 46.1433 152.866 45.4147 152.396 44.715C151.503 43.3712 150.503 42.1792 149.415 41.1712C144.164 36.2716 137.019 32.8763 128.194 31.0832C125.911 30.6192 123.48 30.2431 120.975 29.9624C118.867 29.7281 116.376 29.4661 113.837 29.313C111.682 29.1814 109.546 29.1176 107.431 29.1196ZM25.9132 57.5194L24.8521 62.2598L23.417 68.6529L23.1967 69.6314L28.7961 70.1961C30.7026 70.5554 33.2431 71.372 34.5002 73.2369C34.6446 73.4511 34.9213 73.8641 35.1167 74.5511C35.296 75.179 35.4061 76.0373 35.2832 77.1883C35.2436 77.5623 35.1805 77.9639 35.0851 78.4004L34.4069 81.5876L31.8691 93.521L30.6731 99.1418L29.9082 102.735L22.5581 137.285H72.6716L72.4836 138.91C72.4514 139.186 72.4198 139.454 72.3896 139.736C71.9128 144.424 72.3177 148.748 73.595 152.59C73.8112 153.301 74.0564 153.972 74.3317 154.63C77.3624 161.776 83.7629 167.168 91.896 169.438C96.9863 170.862 102.345 171.641 106.986 171.641C120.026 171.641 129.2 168.384 135.855 161.4C140.999 155.987 144.558 148.52 146.72 138.581L157.471 88.9753L157.512 88.7893H144.659H125.439H118.334H115.226L114.823 90.5836L113.842 94.9648L112.506 100.915L116.34 101.237C117.542 101.338 121.611 101.835 123.518 104.138C123.908 104.608 125.083 106.032 124.452 109.356L119.234 133.786C117.951 139.441 116.75 141.569 115.219 143.174C113.849 144.612 111.774 145.404 109.376 145.404C102.553 145.404 101.56 141.549 101.405 138.648C101.331 137.319 101.499 135.573 101.882 133.625L109.887 96.6571L110.8 92.4264L111.586 88.7893H68.2146L65.4928 100.921L69.332 101.237C69.6275 101.257 70.0942 101.304 70.661 101.405C72.3876 101.687 75.0301 102.385 76.478 104.098C76.5814 104.225 76.6734 104.353 76.764 104.481C77.5685 105.663 77.8103 107.167 77.4927 109.081L76.95 111.767H57.3281L58.7149 105.246L59.4704 101.707L61.3668 92.789L63.0457 84.8997L64.8461 76.4341L66.5276 68.5226L68.8693 57.5194H54.6305H48.279H43.2384H25.9132ZM112.212 104.931L105.819 134.478C105.41 136.573 105.396 137.856 105.43 138.433C105.517 140.146 105.584 141.381 109.385 141.381C110.648 141.381 111.709 141.026 112.3 140.401C113.132 139.528 114.113 138.158 115.308 132.9L120.505 108.564C120.579 108.181 120.74 107.093 120.431 106.71C119.881 106.045 117.94 105.401 116.013 105.246L112.212 104.931ZM67.4503 105.119C65.9098 105.179 64.3747 105.226 62.8348 105.246L62.305 107.744H73.601C73.6205 107.335 73.589 106.918 73.407 106.703C72.8395 106.032 70.9505 105.407 69.0063 105.246L67.4503 105.119Z" fill="#0A254E"/>
<path d="M126.657 36.5454C134.99 40.014 137.348 43.9512 136.998 47.548C137.777 47.9093 138.603 48.2431 139.523 48.5392C139.967 48.6393 140.39 48.6977 140.766 48.7085C143.17 48.7783 143.627 47.1122 143.714 46.3923C144.204 42.3348 137.489 39.8071 137.24 39.7158C136.589 39.4821 135.89 39.2336 135.132 38.959C132.036 37.8287 129.168 37.0652 126.657 36.5454ZM105.786 42.3536C101.259 42.4584 97.7807 43.8357 97.7539 43.8478C104.362 42.5349 109.681 43.5906 113.119 45.7389C116.101 47.6051 117.665 50.2933 117.417 52.9768C116.88 58.7098 108.438 59.3511 108.311 59.3565C110.52 59.6486 112.467 59.6668 114.133 59.4653C119.31 58.8394 121.862 56.1056 121.754 52.9003C121.748 52.6847 121.727 52.4691 121.701 52.2529C121.687 52.1589 121.667 52.0642 121.647 51.9722C121.64 51.9124 121.633 51.8547 121.62 51.7976C121.358 50.576 120.727 49.3162 119.733 48.1014C119.041 47.2573 118.168 46.4346 117.121 45.6617C113.455 42.962 109.304 42.2724 105.786 42.3536ZM108.311 59.3565C108.304 59.3558 108.304 59.3552 108.297 59.3552L108.304 59.3565H108.311ZM150.536 53.4147C149.328 53.4059 148.086 53.4583 146.702 53.5167C146.373 53.5308 146.037 53.5456 145.695 53.5604C147.381 53.5047 164.276 53.6558 169.306 65.9867C172.167 72.9896 164.659 69.3142 154.042 67.9852C154.263 68.0141 154.485 68.0557 154.706 68.0954V68.0907C154.733 68.096 154.76 68.1034 154.787 68.1088C154.881 68.1236 154.968 68.1357 155.062 68.1518C157.688 68.6266 159.595 69.1739 161.167 69.7823C163.712 70.6318 165.861 71.5941 167.661 72.5685C169.01 73.2965 170.159 74.0305 171.132 74.7302C174.396 77.0867 175.659 79.051 175.659 79.051C175.659 79.051 175.827 74.4113 174.289 69.5647C174.02 68.4157 173.469 67.1203 172.65 65.7073C172.402 65.2621 172.14 64.8236 171.844 64.4005V64.4032C171.629 64.0667 171.394 63.7283 171.146 63.3831C165.78 55.8524 159.797 55.0338 156.761 54.2306C154.451 53.6161 152.544 53.4294 150.536 53.4147ZM77.5544 67.7307C75.9111 67.7455 74.2175 67.8214 72.5205 67.9409C72.6031 67.9557 87.0528 67.7764 85.6627 75.5065C85.1053 78.5775 82.407 79.8877 78.831 79.699C80.3716 80.1778 81.9121 80.7084 83.4258 81.2953C95.8769 86.1331 96.0918 75.2493 92.9825 71.8695C91.1559 70.1919 88.5503 68.8428 85.1456 68.2451C82.8946 67.8509 80.2937 67.7065 77.5544 67.7307ZM159.253 75.3313C159.32 76.0055 159.071 76.7603 158.722 77.3211C157.292 79.6144 154.25 80.3242 151.785 80.5082C150.885 80.5747 149.906 80.5378 148.851 80.3665C149.738 80.5552 150.811 80.75 152 80.9044C154.398 81.2187 156.365 80.9797 159.118 80.5814C160.824 80.3363 162.792 79.6433 164.276 78.8844C164.847 78.5977 165.384 78.2653 165.894 77.8858C165.518 77.7086 165.149 77.5447 164.8 77.3929C164.236 77.1478 163.719 76.9369 163.275 76.7623V76.7529C161.999 76.2453 160.65 75.7644 159.253 75.3313Z" fill="#C6C7C9"/>
<path d="M30.5502 63.3071L30.2642 64.5871C31.0096 64.7409 31.8013 64.9477 32.6072 65.2204C33.9745 65.6837 35.3814 66.3425 36.6546 67.2773C37.6465 68.008 38.5578 68.8984 39.3025 70.0011C39.9781 71.0044 40.4656 72.0963 40.7665 73.2709C41.0015 74.1815 41.1197 75.1418 41.1271 76.1518C41.1338 77.2478 41.0076 78.4001 40.747 79.6056L40.42 81.136L37.6975 93.9377L36.4001 100.035L35.6446 103.588L30.2252 129.059L29.7095 131.497H92.1734L98.8889 100.465L99.7417 96.503L100.158 94.5757H97.1966H73.7925H72.8496L72.5609 95.8651C74.5715 96.2747 76.9112 97.0671 78.9157 98.5311C79.6282 99.0549 80.2998 99.6526 80.9002 100.364C80.9277 100.391 80.9545 100.432 80.9814 100.465C81.8054 101.459 82.4219 102.587 82.8282 103.816C83.4534 105.703 83.5816 107.831 83.1834 110.128L83.1733 110.195L81.6919 117.555H77.439H50.1829H45.9307L46.4485 115.118L48.6323 104.85L49.3784 101.338L50.9398 94.0049L50.9868 93.7833L53.5527 81.7136L53.6024 81.4879L54.8972 75.3963L56.0133 70.1495L57.4692 63.3071H54.509H37.6975H31.53H30.5502ZM119.864 94.5757L119.575 95.8651C121.597 96.2814 123.954 97.0739 125.968 98.558C126.694 99.0885 127.379 99.713 127.983 100.452C130.159 103.071 130.897 106.549 130.132 110.504L124.887 135.049C123.504 141.146 122.026 144.423 119.414 147.163C116.943 149.762 113.384 151.192 109.389 151.192C108.603 151.192 107.857 151.139 107.125 151.051C106.481 151.139 105.816 151.192 105.131 151.192C99.9936 151.192 96.065 149.399 93.7348 146.183C93.0968 145.296 92.5864 144.302 92.1969 143.215C92.2036 143.228 92.2036 143.248 92.2103 143.262C92.2103 143.262 91.6664 143.147 90.6658 143.114L87.8386 143C87.7378 143 87.5565 143 87.3282 142.993C87.1603 142.993 86.9656 142.986 86.7305 142.986C86.3343 142.986 85.9112 143.02 85.468 143.073C83.1733 143.369 80.471 144.383 79.4382 145.746C77.995 147.64 78.9648 150.709 79.6679 152.368C80.381 154.053 81.3481 155.611 82.526 157.022C85.2061 160.218 88.9936 162.622 93.4527 163.865C97.388 164.966 101.478 165.637 105.164 165.805C115.218 165.443 122.329 162.75 127.412 157.411C131.811 152.784 134.886 146.23 136.821 137.353L146.088 94.5757H143.12H120.824H119.864Z" fill="#990000"/>
<path d="M104.368 34.6568C102.475 34.6703 97.9618 34.8059 92.1529 35.6776C91.3538 35.7978 90.5278 35.9314 89.6816 36.0818C89.2854 36.151 88.8892 36.2222 88.4863 36.2994C87.2842 36.5291 86.0419 36.789 84.7726 37.0865C82.6512 37.5814 80.4539 38.1757 78.219 38.8896C75.5375 39.7471 72.8036 40.776 70.0946 42.0123C69.4902 42.2869 68.8892 42.5723 68.2895 42.8685C66.792 43.6085 65.3052 44.4144 63.8432 45.2921L63.8539 45.3042C64.9096 45.0087 80.5916 40.5329 93.7714 40.2461C89.5205 41.6436 84.1958 44.4386 79.3365 50.459C103.69 41.7477 110.553 51.4663 112.199 54.6233C112.199 54.6233 100.843 46.5143 90.9912 52.2084C90.5412 52.4703 89.131 53.5401 88.8153 54.0907C85.5986 59.0991 89.7018 64.7515 95.6248 66.3162C101.541 67.8789 116.852 65.5701 116.852 65.5701C119.901 65.186 122.889 64.4876 125.636 63.5803C127.382 63.0028 129.034 62.3413 130.538 61.6208C131.31 61.2467 132.049 60.8552 132.741 60.4523C132.915 60.3502 133.09 60.2481 133.258 60.1454C133.459 60.0205 133.654 59.8969 133.849 59.7713C134.688 59.226 135.447 58.6613 136.098 58.0884C136.38 57.8366 136.649 57.5814 136.897 57.3249C137.26 56.9421 137.582 56.558 137.851 56.1725C137.448 56.2222 136.998 56.2638 136.515 56.2914L136.313 56.3062C136.098 56.3216 135.883 56.3384 135.642 56.3323C134.97 56.3122 134.305 56.2504 133.647 56.1618C133.17 56.0953 132.7 56.0107 132.237 55.9086C130.719 56.9938 129.343 58.0079 127.845 58.8768C127.818 58.8936 127.785 58.9111 127.758 58.9265C126.166 59.8358 124.427 60.5765 122.191 61.0594C103.227 65.1565 95.3361 54.0726 95.3361 54.0726C99.5265 57.3927 104.221 59.0387 108.304 59.357C108.411 59.3543 116.879 58.7177 117.417 52.9773C117.664 50.2951 116.1 47.6063 113.119 45.7407C109.68 43.5924 104.362 42.5368 97.7536 43.8496C96.2561 44.2055 95.0943 44.5863 94.4832 44.8046C94.3355 44.8536 94.228 44.8952 94.1407 44.9261C94.0467 44.9637 93.993 44.9839 93.993 44.9839C97.1895 42.3971 102.34 39.5618 109.935 39.5537C110.11 39.5537 110.285 39.5584 110.466 39.5638C110.983 39.549 111.493 39.5484 111.99 39.5772C124.534 40.281 129.175 43.0505 133.264 45.4969C134.487 46.2242 135.662 46.9287 136.998 47.5499C137.347 43.953 134.984 40.0151 126.656 36.5472C120.706 35.3176 116.792 35.1779 116.738 35.1806H116.718L116.691 35.1793C112.823 34.7858 109.036 34.6179 105.342 34.6609C105.342 34.6609 105 34.6528 104.368 34.6568ZM130.612 46.5043C130.524 46.5083 130.41 46.5748 130.289 46.6567C130.195 46.7144 130.095 46.7923 130.007 46.8857C129.98 46.9099 129.96 46.928 129.947 46.9434C129.927 46.9656 129.907 46.9945 129.886 47.02C129.866 47.0401 129.853 47.061 129.839 47.0798C129.658 47.3115 129.517 47.5901 129.43 47.8856C129.416 47.9125 129.41 47.9373 129.403 47.9642C129.396 47.9958 129.383 48.0273 129.376 48.0596C129.369 48.0716 129.369 48.0831 129.369 48.0951C129.343 48.2066 129.322 48.3228 129.302 48.4417V48.4692C129.289 48.5813 129.275 48.6935 129.275 48.8103V48.8191C129.269 49.4309 129.423 49.9983 129.685 50.51L129.705 50.5772C130.054 51.2548 130.645 51.9465 131.565 52.5838C131.673 52.6529 131.767 52.7208 131.868 52.7846C132.304 53.0599 132.707 53.2405 133.083 53.346C134.023 53.6112 134.762 53.3863 135.306 52.9283C133.029 52.8302 131.25 49.9318 132.895 47.9286C132.103 47.5136 131.31 47.0361 130.679 46.5224C130.659 46.5083 130.639 46.5029 130.612 46.5043ZM145.695 53.5622C145.594 53.5656 145.54 53.5689 145.54 53.5689C144.533 54.9134 140.759 58.985 135.037 62.4797C132.432 64.0645 129.43 65.5312 126.099 66.5721C123.775 67.2947 121.291 67.8131 118.672 68.0146C118.047 68.126 117.443 68.2248 116.852 68.3228C115.288 68.5827 113.864 68.8218 112.635 69.1361C109.224 70.0091 107.29 71.4683 108.055 75.6198C108.848 79.9318 111.99 80.598 115.59 79.8398C117.846 79.3651 120.283 78.3342 122.439 77.2833C122.795 77.1322 123.178 76.9441 123.561 76.7393C124.951 75.9939 126.441 74.9758 127.516 74.3197C133.667 70.5456 143.123 66.4693 153.766 67.9508C153.833 67.9595 154.014 67.985 154.041 67.9884C164.652 69.316 172.166 72.9927 169.306 65.9885C164.276 53.6582 147.38 53.5078 145.695 53.5622ZM153.941 55.8616C157.46 55.7991 155.076 57.3672 155.076 57.3672C155.076 57.3672 150.228 60.7175 150.127 59.2059C150.019 57.6916 150.416 55.9234 153.941 55.8616ZM57.4682 63.3077L56.0123 70.1501L54.8962 75.3969L53.6014 81.4885L53.5517 81.7141L50.9858 93.7838L50.9388 94.0055L49.3774 101.339L48.6313 104.851L46.4475 115.118L45.9297 117.556H50.1819L50.697 115.118L52.8332 105.086L53.5806 101.56L55.2514 93.7167L55.5536 92.2997L57.2298 84.4184L57.6858 82.2742L59.096 75.6487L60.4284 69.3852L61.7218 63.3077H58.7616H57.4682ZM147.038 73.4393C144.882 73.44 142.74 73.6072 140.618 73.9222C139.866 74.0336 139.12 74.1706 138.382 74.3291C137.361 74.6172 136.085 75.1101 134.728 75.9482C136.038 76.284 137.737 76.879 139.731 77.572C140.786 77.9421 141.907 78.3322 143.056 78.7157C144.19 79.0931 145.359 79.4658 146.541 79.811C146.964 79.9285 147.776 80.1427 148.851 80.3683C149.905 80.5396 150.885 80.5765 151.785 80.51C154.25 80.326 157.292 79.6162 158.722 77.3229C159.071 76.7628 159.32 76.0073 159.253 75.3331C158.782 75.1874 158.312 75.0463 157.836 74.912C154.256 73.9014 150.63 73.4387 147.038 73.4393ZM100.158 94.5763L99.7414 96.5036L98.8885 100.466L92.1731 131.497C92.1731 131.497 92.0253 132.243 91.8776 133.431C91.8575 133.592 91.844 133.774 91.8239 133.948C91.844 133.767 91.8575 133.599 91.8776 133.431C92.0052 132.384 92.1395 131.652 92.1664 131.497L91.9649 132.431C91.4747 134.902 91.2732 137.085 91.3739 138.925C91.4545 140.449 91.7299 141.838 92.1731 143.108C92.1798 143.141 92.1865 143.175 92.1932 143.215C92.5827 144.303 93.0931 145.297 93.7311 146.183C96.0613 149.4 99.9899 151.193 105.127 151.193C105.805 151.193 106.477 151.139 107.122 151.052C103.092 150.595 99.9563 148.91 97.982 146.183C96.5919 144.263 95.7793 141.825 95.6315 138.958C95.5308 137.118 95.7256 134.929 96.2158 132.464L103.448 99.0421L104.328 94.9792L104.415 94.5763H101.454H100.158ZM146.098 94.6434L136.83 137.259C134.896 146.096 131.827 152.63 127.422 157.237C122.338 162.556 115.227 165.242 105.174 165.604C105.792 165.631 106.403 165.645 107.001 165.645C118.349 165.645 126.193 162.972 131.68 157.237C136.078 152.63 139.154 146.096 141.081 137.259L150.349 94.6434H147.38H146.098ZM91.6828 135.527C91.6291 136.312 91.6023 137.172 91.6157 138.072C91.6023 137.165 91.6358 136.312 91.6828 135.527Z" fill="white"/>
</svg>
