<svg width="201" height="201" viewBox="0 0 201 201" fill="none" xmlns="http://www.w3.org/2000/svg">
<g clip-path="url(#clip0_15016_304328)">
<path d="M195.908 21.6244C164.28 12.0078 122.991 11.4986 91.246 22.4506C72.3019 6.62686 51.4242 12.5803 43.6065 16.3545C43.6065 16.3545 59.1251 27.8453 48.1077 53.8979C46.1087 58.625 41.0488 65.4561 40.2999 74.3476C4.70994 89.993 0.78125 99.6771 0.78125 99.6771C20.395 94.6825 42.2514 90.944 42.2514 90.944C47.8185 108.424 61.4391 116.402 61.8928 117.51C68.5793 133.819 67.7888 132.157 67.9929 131.774C72.6982 123 72.1197 123.826 72.4862 124.022C74.6061 125.155 75.8879 125.773 76.6625 126.134C76.7834 162.36 100.367 188.03 100.373 187.97C101.742 170.752 103.284 146.805 112.26 130.671C119.882 117.537 141.148 103.354 144.928 101.216C145.716 100.765 146.594 100.494 147.498 100.421C148.403 100.349 149.313 100.478 150.162 100.798C152.179 101.466 151.821 101.436 152.112 101.165C164.661 89.476 174.567 84.107 174.567 84.107C153.322 82.4408 141.322 84.3051 137.756 85.0044C137.637 81.6364 136.964 77.783 135.452 73.4739C182.584 58.8905 173.469 49.4382 171.848 48.1148C182.614 46.3654 192.849 40.1247 199.189 32.5685C199.915 31.6997 200.414 30.6644 200.641 29.5554C200.869 28.4464 200.818 27.2982 200.493 26.2137C200.168 25.1292 199.579 24.1423 198.779 23.3414C197.978 22.5405 196.992 21.9505 195.908 21.6244ZM87.0023 103.198C85.1816 92.84 93.9206 86.4963 93.9206 86.4963C103.48 87.047 109.344 90.5299 110.786 91.4809C102.941 94.1694 94.3545 97.9614 87.0023 103.198Z" fill="white"/>
<path d="M40.4365 74.2286C40.4385 74.2048 40.4425 74.1811 40.4365 74.2286V74.2286Z" fill="white"/>
<path d="M67.6818 66.4506C70.188 61.5868 74.1286 56.2178 77.3104 52.4317C75.8681 55.6393 73.7621 61.0003 72.5932 65.8225C71.0281 65.9791 69.3876 66.1891 67.6818 66.4506ZM80.2207 65.46C80.928 59.5283 83.4738 52.4515 85.9305 47.4074C82.2178 51.8413 77.3441 58.8825 74.925 65.6145C76.8408 65.4857 78.616 65.4342 80.2267 65.4659L80.2207 65.46ZM196.12 29.9968C192.368 34.4822 182.993 42.722 169.752 44.3624L165.949 48.2217C167.977 49.6085 168.898 51.0251 168.827 51.6115C168.304 55.9246 165.836 59.9959 129.326 70.1336C135.938 80.1188 136.26 92.4397 131.589 103.128L131.601 103.158C131.601 103.158 136.865 98.2842 137.671 88.624C147.109 87.1936 156.152 86.6903 163.642 87.0568C158.854 90.0465 152.568 95.9524 151.296 97.1609C151.225 97.2272 151.138 97.2737 151.044 97.2956C150.95 97.3175 150.851 97.3141 150.759 97.2857C149.439 96.9064 148.054 96.8115 146.694 97.0072C145.335 97.2029 144.033 97.6848 142.874 98.4209C116.524 114.974 109.077 129.294 109.077 129.294C99.3273 145.71 97.4432 178.219 97.4432 178.219C86.2336 162.742 79.7888 143.655 80.2267 123.891C77.0287 122.458 73.9128 120.848 70.8933 119.069L68.3178 123.879L64.6625 114.964C51.5372 105.343 46.6338 94.7022 44.7041 86.6329C31.7551 88.941 17.7065 92.9112 7.81445 95.7146C15.9155 87.4194 53.976 70.2485 89.2411 67.8869C88.5536 66.7557 86.5209 66.0028 83.5095 65.6581C83.1727 65.6185 82.8201 65.5848 82.4615 65.5571C84.195 57.2361 89.5937 48.3208 94.5605 42.3772C91.6839 47.9245 88.3812 57.1133 88.2326 64.4595C89.0753 64.1729 89.9048 63.8948 90.721 63.6254C92.1415 54.0167 97.3679 44.3426 103.181 37.3569C99.4164 44.2752 96.3812 53.4936 96.516 61.8126C120.714 54.6467 133.225 55.7145 133.269 55.7086C145.263 60.4218 160.609 56.2277 163.476 52.1227C159.288 51.6036 149.524 48.614 147.484 46.9617C148.011 47.0885 149.166 47.3143 150.596 47.6373L149.455 43.8572L146.252 46.3634L144.976 42.8646L142.475 44.6477C141.562 44.1364 140.7 43.5393 139.9 42.8646C138.168 42.9201 132.173 45.2024 132.173 45.2024C149.806 32.404 148.056 39.237 164.07 40.0117C168.185 40.2098 172.788 39.9424 177.289 38.2722C181.933 36.5506 185.622 34.082 187.898 31.4074C188.093 31.1745 188.226 30.8964 188.285 30.5987C188.344 30.301 188.327 29.9931 188.237 29.7035C188.146 29.4138 187.984 29.1515 187.766 28.9408C187.547 28.73 187.279 28.5774 186.987 28.4971C144.764 16.8398 109.477 22.191 84.6526 33.0003C85.1888 31.9777 85.8613 31.0327 86.6517 30.191C75.67 19.0528 60.4644 19.7145 57.0924 20.3148C57.1202 20.3901 63.6303 31.9859 59.1845 45.9691C63.6482 41.4302 68.825 37.4896 74.5506 34.1177C72.8884 26.1593 65.5441 22.3792 62.186 21.0419C68.3891 22.3197 78.3267 25.763 80.611 34.8468C65.6115 42.0622 54.9032 51.2153 49.3856 59.3659C65.2668 30.3277 50.824 18.076 50.824 18.076C50.8596 18.076 70.9865 9.41035 90.1465 26.7734C121.517 15.0845 162.365 15.7957 194.753 25.4421C195.206 25.5764 195.619 25.8213 195.954 26.1549C196.289 26.4884 196.535 26.9 196.671 27.3527C196.808 27.8053 196.829 28.2847 196.734 28.7477C196.639 29.2106 196.43 29.6426 196.126 30.0047L196.12 29.9968ZM123.436 97.3788C122.905 96.7845 122.295 96.1327 121.695 95.5304C108.187 99.8533 97.1282 105.904 91.4065 110.742C90.3149 109.949 89.1618 108.691 88.2168 106.698C96.4922 100.588 107.284 95.9761 118.608 92.7488C111.571 87.0351 102.561 83.6472 92.5477 83.4372C76.6229 95.5997 82.406 117.177 100.617 124.876C100.617 124.876 95.1153 120.186 97.5422 115.939V115.915C103.296 107.421 113.114 101.462 123.436 97.3788ZM158.899 28.2514C158.673 28.2507 158.455 28.1676 158.285 28.0176C158.139 28.3405 158.059 28.6895 158.05 29.0439C158.037 29.3867 158.094 29.7285 158.218 30.0486C158.341 30.3688 158.527 30.6607 158.766 30.9069C159.005 31.153 159.292 31.3483 159.608 31.4809C159.924 31.6136 160.264 31.6809 160.607 31.6788C161.251 31.6747 161.873 31.4429 162.362 31.0245C162.852 30.6061 163.178 30.028 163.282 29.3926C163.801 29.6901 164.186 30.175 164.358 30.7477C169.253 30.2762 174.999 29.87 179.716 29.5768C174.079 28.5129 168.334 27.6967 162.547 27.132C162.159 26.7585 161.664 26.515 161.132 26.4355C160.599 26.3559 160.055 26.4443 159.575 26.6882C159.7 26.8203 159.782 26.986 159.814 27.1647C159.845 27.3435 159.823 27.5275 159.751 27.6939C159.678 27.8603 159.559 28.0018 159.407 28.1009C159.255 28.2 159.077 28.2523 158.895 28.2514H158.899ZM49.451 66.6111C71.6184 37.3946 115.373 29.2142 157.463 30.7596C157.115 30.1722 156.97 29.4862 157.051 28.8081C157.14 28.0208 157.507 27.2913 158.087 26.7516C111.926 23.2945 64.2782 35.877 49.451 66.6111ZM179.353 32.3861C173.954 31.6075 173.643 35.2053 171.044 35.8572C178.174 36.8002 174.349 33.0003 179.353 32.3861Z" fill="#65B2E8"/>
<path d="M57.0928 20.3147C57.1899 20.2969 57.2909 20.281 57.4137 20.2632C57.2057 20.2929 57.0928 20.3147 57.0928 20.3147Z" fill="#FFC629"/>
<path d="M58.0094 102.227C54.0589 96.9429 52.3789 90.2802 51.6696 85.5649C50.6988 85.6997 50.1877 85.7631 48.6582 85.9929C49.8727 92.0038 52.781 98.9875 60.3809 105.92C59.5141 104.693 58.7126 103.421 57.9797 102.11C57.9856 102.149 57.9975 102.197 58.0094 102.227Z" fill="white"/>
<path d="M136.95 93.0541C142.295 91.6909 147.721 90.6685 153.196 89.9932C147.851 90.1356 142.524 90.6874 137.263 91.6435C137.171 92.1295 137.066 92.5997 136.95 93.0541Z" fill="white"/>
<path d="M120.049 101.058C120.049 101.058 102.812 116.065 102.65 123.12C99.8861 120.622 99.9694 117.89 99.9694 117.89C101.792 111.935 120.049 101.058 120.049 101.058ZM86.9728 133.946C86.5853 144.286 89.2513 154.511 94.638 163.346C94.5033 158.108 95.1709 153.145 96.5776 149.351C91.6464 145.498 88.3913 140.145 86.9807 133.942L86.9728 133.946ZM59.1768 45.981C63.6404 41.4421 68.8172 37.5016 74.5429 34.1296C72.8806 26.1692 65.5344 22.3891 62.1783 21.0538C60.4985 20.6976 58.7969 20.4541 57.0847 20.3247C57.1203 20.3901 63.6265 31.9859 59.1847 45.9691L59.1768 45.981ZM49.4512 66.6111C58.3546 59.9642 66.5527 57.4085 74.1823 56.3684C75.2541 54.9439 76.32 53.6106 77.3106 52.4318C76.841 53.4778 76.2982 54.7577 75.7415 56.1722C77.1283 56.0177 78.4894 55.9087 79.8366 55.8275C81.6762 52.8888 83.7122 50.0777 85.9307 47.4134C84.6346 50.1015 83.5097 52.8688 82.5627 55.6987C83.7237 55.6551 84.8708 55.6274 86.006 55.6016C88.3292 50.8789 91.2005 46.4461 94.5607 42.3951C92.438 46.5796 90.7727 50.9808 89.5939 55.5224C90.6776 55.4927 91.7514 55.455 92.8133 55.4015C95.1907 48.6933 99.0402 42.3515 103.181 37.3728C100.421 42.4506 98.0496 48.7685 97.0392 55.0608C100.607 54.6487 104.062 53.8562 107.411 52.2713C110.697 42.8111 119.058 38.5199 119.058 38.5199C116.037 41.7453 116.645 47.0093 116.645 47.0093C127.577 37.1212 144.035 32.4594 157.463 30.7596C115.373 29.2143 71.6186 37.3946 49.4512 66.6111ZM55.2838 85.0915C54.0951 85.2408 52.8892 85.3986 51.6661 85.565C52.3794 90.2803 54.0594 96.943 58.0059 102.227C57.992 102.183 57.9802 102.138 57.9663 102.094C55.3531 96.7052 54.939 90.2902 55.2838 85.0915Z" fill="#FFC629"/>
<path d="M152.296 43.9799L151.371 40.917C152.433 41.1151 153.626 41.4143 154.844 41.7412L152.296 43.9799ZM156.326 42.1354L157.158 44.9784L159.522 42.9853C158.513 42.7318 156.378 42.1493 156.326 42.1354ZM160.389 43.2013L161.212 45.8699L163.221 43.7659C162.305 43.6253 161.358 43.4331 160.389 43.2013ZM164.092 43.8848L164.382 45.9314L166.317 44.0057C165.573 44.0285 164.829 43.9881 164.092 43.8848ZM160.437 49.0359L159.694 46.6109L157.265 48.8457C159.444 49.1191 161.566 49.2162 163.118 48.9051L162.737 46.2622L160.437 49.0359ZM154.826 45.0735L151.666 47.8729C152.976 48.1562 154.476 48.4455 155.993 48.6654L154.826 45.0735Z" fill="white"/>
</g>
<defs>
<clipPath id="clip0_15016_304328">
<rect width="200" height="200" fill="white" transform="translate(0.78125 0.0117188)"/>
</clipPath>
</defs>
</svg>
