<svg width="201" height="201" viewBox="0 0 201 201" fill="none" xmlns="http://www.w3.org/2000/svg">
<g clip-path="url(#clip0_15016_302047)">
<path d="M183.843 134.863V132.533C183.843 128.621 182.659 125.89 182.659 125.89V121.483C182.659 116.015 184.788 113.402 188.822 109.959L198.972 101.911H177.267V84.3808C184.201 82.7114 191.489 74.7389 191.489 66.9151C191.489 58.0509 185.303 53.8841 183.99 53.4969C183.99 53.4969 181.726 50.075 177.149 50.075C171.189 50.075 170.153 55.5069 169.987 56.8203C168.586 56.2137 167.027 55.8594 165.323 55.8024H2.62847C11.1747 60.9734 22.0886 66.9635 22.0886 72.0428V73.7469C21.1951 77.0427 9.37213 79.6385 9.37213 79.6385C17.03 83.1434 22.0904 84.8785 22.0904 88.2037V90.409C22.0904 95.8409 12.3067 101.271 5.04807 106.214C2.02535 108.625 0.800005 112.223 0.844939 116.148V136.258C0.844939 143.584 6.12302 151.167 14.9527 151.167H200.844C190.561 144.258 183.848 139.673 183.848 134.863" fill="#D11C2E"/>
<path d="M177.267 52.8623C172.041 52.8623 172.938 58.4359 172.938 58.4359C171.736 59.4469 171.607 61.7898 171.607 61.7898C170.287 60.2396 168.281 59.1479 165.21 59.0407L156.628 59.038V62.9861C154.348 60.3453 151.229 58.9301 147.566 58.9301H12.5266C19.9252 63.8037 24.8675 66.5824 24.8675 71.1035V73.6148C24.8675 77.6158 20.0909 78.6338 15.4972 79.904C20.6145 81.9279 24.8784 83.2152 24.8784 87.5704V90.0682C24.8784 95.8804 20.4437 98.3513 15.4594 101.939H42.2667V97.9965C43.5024 100.43 45.8121 101.939 48.6154 101.939H72.403C72.403 101.939 73.0581 97.9561 73.0943 97.7211H74.107C74.145 97.9613 74.8091 101.939 74.8091 101.939H92.7663L92.2479 99.4142C93.957 101.001 96.1948 101.939 98.718 101.939H156.83V98.9633C156.853 99.0066 158.243 101.939 158.243 101.939H174.134V81.7213C174.134 81.7213 174.498 81.8104 174.785 81.8104C181.2 81.8104 188.452 74.1453 188.452 66.27C188.452 58.396 182.395 55.8789 182.395 55.8789C182.395 55.8789 180.427 52.8623 177.267 52.8623ZM14.9358 105.036C11.8353 105.036 9.02518 106.151 7.02898 108.177C5.01204 110.214 3.92877 113.027 3.96679 116.111V136.258C3.96679 142.051 8.06994 148.045 14.9466 148.045H48.837C48.837 148.045 49.5155 144.073 49.5553 143.827H50.5787C50.6202 144.064 51.2862 148.045 51.2862 148.045H77.7507C82.1249 148.045 86.0811 145.315 87.7368 141.642C89.5602 145.585 93.3062 148.045 98.0227 148.045H107.28C110.458 148.045 113.511 146.803 115.659 144.637C116.027 144.259 116.359 143.857 116.666 143.438V148.045H134.167V145.318C134.183 145.345 135.542 148.045 135.542 148.045H192.206C182.543 141.848 181.051 139.904 181.051 134.697V132.48C181.025 128.968 179.989 125.893 178.275 123.453H179.868V117.439C179.868 117.439 179.747 115.234 181.491 113.21C183.237 111.188 186.386 107.901 190.167 105.039L143.232 105.036C140.7 105.036 138.481 105.917 136.827 107.593C136.123 108.302 135.588 109.166 135.142 110.099C134.734 109.285 132.593 105.036 132.593 105.036H111.578C108.787 105.036 105.661 105.92 103.596 109.113V105.036L14.9358 105.036Z" fill="#0A0203"/>
<path d="M20.1118 61.4224C20.1118 61.4224 27.3732 65.1764 27.3732 71.341V74.4275C27.3732 78.9433 22.0426 80.2064 22.0426 80.2064C22.0426 80.2064 27.3732 82.4187 27.3732 86.1932V90.6353C27.3732 95.0804 25.7676 96.5868 25.7503 96.6006L22.653 99.444H39.7765V87.1357H41.8127C42.0305 87.191 42.7975 87.4789 42.9496 89.1259C42.9581 89.2417 43.8677 94.8156 43.8677 94.8156C44.2306 97.612 46.1016 99.4442 48.6232 99.4442H56.5569L54.6531 86.5876C54.565 84.4602 53.5266 82.7358 51.8312 81.5001C53.2293 80.4009 54.5642 78.7071 54.6559 76.0317C54.6559 76.0317 54.6325 69.0207 54.6343 68.8082C54.6343 67.1629 53.931 65.4397 52.6711 64.1176C51.0161 62.3713 48.5288 61.4161 45.6862 61.423L20.1118 61.4224ZM56.1562 61.4224L61.0845 64.4172C63.912 66.1316 63.0589 70.3507 63.0451 70.3904C63.052 70.3766 61.8029 75.8588 61.8029 75.8588C61.0079 78.9057 58.9439 80.049 58.8541 80.0958L56.502 81.3568L58.7217 82.8771C58.8877 82.9878 60.3704 84.0573 59.9936 86.1986L57.5497 99.4441H70.2929C70.2929 99.4441 70.7857 96.4766 70.9896 95.2288H76.2231C76.4305 96.4766 76.9306 99.4441 76.9306 99.4441H89.7197L83.8759 70.8117C82.6178 64.5831 78.9344 61.4225 72.9339 61.4225L56.1562 61.4224ZM82.8875 61.4224L88.3397 64.4469C90.3928 65.591 91.3101 67.984 91.3101 72.2079V75.9669C91.3308 78.1185 89.6596 78.77 89.4764 78.8374L86.182 79.9986L89.1848 81.7646C89.2056 81.7766 91.3308 83.0652 91.3101 84.7485V91.0134C91.3101 95.2043 93.8533 99.4441 98.7254 99.4441H110.899C115.869 99.4026 119.173 95.3263 119.13 89.3069V76.3422H104.941V86.1258H107.255V88.2888C107.255 88.6431 107.183 88.8103 107.156 88.8397C107.123 88.8639 106.971 88.9249 106.629 88.918L104.177 88.9153C103.958 88.9222 103.869 88.8871 103.85 88.8802C103.824 88.8508 103.726 88.6748 103.721 88.2618V71.8973H107.137C107.282 71.8973 107.373 71.9094 107.447 71.9189C107.461 72.0433 107.472 72.1685 107.472 72.3483L107.447 74.7003L118.697 74.6922V70.15C118.697 64.3397 115.383 61.4846 108.565 61.4224L82.8875 61.4224ZM115.929 61.4224L121.385 64.4474C123.746 65.7644 124.29 68.8123 124.25 70.2399L124.247 75.9674C124.214 77.7925 122.7 78.8262 122.638 78.8677L120.669 80.1801L122.603 81.5546C122.67 81.5978 124.249 82.7311 124.247 84.9139V90.6361C124.247 95.0051 121.463 96.8147 121.463 96.8147L117.553 99.4448H136.501H136.553H154.351V87.8737C156.72 92.8822 159.83 99.4448 159.83 99.4448H171.647V72.155C171.663 68.0175 171.684 61.7591 165.128 61.5344H159.128V72.7924C157.758 69.9564 156.382 67.0999 156.382 67.0999C154.546 63.3824 151.505 61.4236 147.573 61.4236H133.78L139.056 64.4399C141.033 65.5702 141.947 67.4258 141.94 70.2809V75.9274C141.93 77.9408 140.341 79.1087 140.279 79.157L138.484 80.4424L140.255 81.7791C140.274 81.793 141.943 83.0563 141.94 85.0197V90.6365C141.93 91.9327 141.585 94.4497 139.313 96.6826L136.553 99.3938V68.841C136.553 65.1962 136.553 61.4231 129.189 61.4231L115.929 61.4224ZM39.6701 72.1674H42.3381C42.3381 72.1674 42.4385 72.1794 42.5352 72.1917C42.549 72.3386 42.5595 72.5076 42.5595 72.5076C42.5595 72.5076 42.5649 76.0902 42.5649 76.2423H39.67L39.6701 72.1674ZM73.6033 79.4855C74.0337 82.0709 74.3091 83.715 74.4837 84.7674H72.7257C72.902 83.7149 73.1747 82.0709 73.6033 79.4855ZM14.9436 107.529C12.4757 107.529 10.3585 108.356 8.8083 109.927C7.26669 111.486 6.43395 113.674 6.4616 116.081V136.259C6.4616 140.825 9.63827 145.551 14.9544 145.551H46.7404C46.7404 145.551 47.2469 142.586 47.4561 141.338H52.7029C52.9103 142.586 53.4023 145.551 53.4023 145.551H66.1752L65.2355 140.974C66.3484 143.4 68.2764 145.551 71.3492 145.551H77.7573C82.5151 145.551 86.0772 141.529 86.0772 137.93C86.0772 137.92 86.088 131.125 86.088 131.125C86.088 129.722 87.7706 128.17 88.3617 127.736L89.0206 127.253V136.156C89.1053 140.698 91.9613 145.551 98.0291 145.551H107.286C109.802 145.551 112.215 144.577 113.891 142.883C115.377 141.377 116.192 139.435 116.192 137.406C116.192 137.379 116.2 131.125 116.2 131.125C116.205 129.722 117.892 128.17 118.479 127.736L119.168 127.231V145.551H131.684V134.849C134.021 139.481 137.088 145.551 137.088 145.551H152.426L150.271 142.915C149.055 141.432 148.883 139.07 148.878 136.737V131.717C148.871 129.594 150.712 127.755 150.733 127.736L151.913 126.572L150.72 125.414C150.7 125.393 148.88 123.621 148.878 121.442L148.872 116.052C148.85 113.548 148.972 111.549 150.633 110.51L155.415 107.529H143.239C141.388 107.529 139.783 108.156 138.608 109.347C137.205 110.767 136.464 112.899 136.464 115.512V118.25C134.127 113.611 131.063 107.529 131.063 107.529H125.735C119.092 107.758 119.14 114.338 119.168 118.272V125.601L118.434 125.101C117.856 124.703 116.211 123.291 116.211 122.033L116.206 117.135C116.206 116.913 116.195 116.659 116.182 116.408H116.192L116.198 116.298H116.192V116.273C116.192 115.034 116.545 111.616 118.185 110.465L122.387 107.529H111.585C104.073 107.529 103.898 115.341 103.835 118.282V134.449C103.832 134.726 103.809 134.895 103.787 135.022H101.154C101.14 134.902 101.116 134.76 101.111 134.511V107.528H95.5532C93.9303 107.528 92.4801 108.127 91.3567 109.254C89.8151 110.804 89.0019 113.264 89.0208 116.367V125.58L88.3187 125.1C87.7432 124.702 86.0909 123.29 86.0909 122.032L86.0882 117.133C86.0882 116.912 86.0819 116.657 86.0612 116.41H86.0774V116.304H86.072V116.234C86.072 114.978 86.4099 111.627 88.019 110.436L91.9129 107.528H81.4732C73.9501 107.528 73.7826 115.34 73.7203 118.281V132.104C73.6927 134.84 73.6459 134.84 72.5727 134.84H63.9773L63.286 131.48C62.8937 129.258 65.1828 127.589 65.2086 127.57L67.9631 125.586L64.674 124.697C64.5668 124.669 62.2302 124.003 61.4767 121.151C61.4422 120.953 60.6531 116.555 60.6531 116.555C60.6237 116.381 59.9488 112.163 63.5696 110.628L70.831 107.528H50.7584C44.6282 107.528 41.251 110.413 39.8217 116.887C39.813 116.907 36.3879 133.61 34.772 141.505C33.5709 140.053 33.5631 138.972 33.5838 137.589L33.5866 129.539H21.5537V135.021H19.9577C19.1904 135.019 18.9981 134.88 18.9964 134.875C18.9756 134.848 18.7907 134.595 18.8236 133.217V119.901C18.8236 118.394 19.018 118.042 19.0612 117.987C19.0837 117.973 19.238 117.904 19.7876 117.9H21.5536V121.975H33.1572V115.972C33.1279 114.42 33.7015 113.019 36.7191 110.347L39.911 107.528L14.9436 107.529ZM161.997 107.529C158.568 107.474 155.892 108.361 154.058 110.167C152.406 111.797 151.533 114.131 151.547 116.921V119.848C151.54 122.959 152.618 125.686 154.663 127.736C156.816 129.884 159.839 131.065 163.175 131.055H165.464C165.891 131.051 166.087 131.138 166.137 131.184C166.183 131.233 166.261 131.418 166.261 131.808V133.515C166.261 134.497 166.151 134.758 166.118 134.816C166.099 134.827 165.938 134.914 165.383 134.919H164.168V131.53H152.241V138.065C152.218 140.22 152.921 142.136 154.217 143.45C155.603 144.846 157.574 145.55 160.085 145.55H184.643L181.2 142.699C180.41 142.039 178.564 140.167 178.564 136.966V132.478C178.525 127.547 175.921 122.634 171.038 120.961H177.384V117.358C177.384 113.039 180.351 110.522 183.474 107.529L161.997 107.529Z" fill="#CE181E"/>
<path d="M177.448 55.6794C176.601 55.7209 176.055 56.0026 175.744 56.5435C175.181 58.0351 176.463 58.8258 176.622 59.1818C175.868 59.5499 174.981 60.1778 174.599 61.334C174.378 62.0201 174.395 62.7239 174.624 63.5051C174.454 64.6993 174.567 66.1331 175.215 68.0688H175.221C175.226 68.0947 175.236 68.1177 175.245 68.1471C175.57 69.1045 176.326 71.2061 173.471 75.017C171.545 77.1185 173.121 80.7113 177.608 78.2088C186.6 73.5719 187.419 64.4192 183.81 60.3885C183.527 59.9149 182.755 58.4375 180.791 58.3632C178.88 55.6015 177.911 55.6638 177.448 55.6794ZM89.1192 63.0351C92.4184 64.8671 92.9213 68.8217 92.9213 72.2057V75.9701C92.9559 79.4144 89.9915 80.3663 89.9915 80.3663C89.9915 80.3663 92.9559 82.0546 92.9213 84.768V91.014C92.9213 94.4464 94.9092 97.8325 98.7218 97.8325H110.898C114.821 97.7962 117.547 94.5935 117.514 89.3154V77.9602H106.55V84.514H108.867V88.2892C108.864 89.6804 108.209 90.5599 106.596 90.5305H104.177C102.635 90.5599 102.124 89.4592 102.108 88.2892V70.2863H107.136C109.286 70.2778 109.086 71.5663 109.078 73.0785H117.084V70.1512C117.084 67.1683 116.376 63.1101 108.554 63.0357L89.1192 63.0351ZM25.0355 63.0379C28.9154 65.4505 28.9835 70.3938 28.9835 70.3938V76.0268C28.904 79.2535 26.0483 80.3285 26.0483 80.3285C26.0483 80.3285 28.9542 81.6961 28.9835 84.9245V90.6359C28.9835 96.0834 26.7881 97.8325 26.7881 97.8325H38.1676V85.5241H41.9887C41.9887 85.5241 44.2576 85.755 44.5514 88.9834L45.4587 94.5597C45.7249 96.6111 46.9013 97.8326 48.6209 97.8326H54.6859L53.0387 86.6557C52.9298 84.0235 51.159 82.3614 48.475 81.6114C50.6197 80.6418 52.9297 79.1946 53.0387 75.9784L53.0117 69.1328C53.1759 66.174 50.5697 63.0207 45.6909 63.038L25.0355 63.0379ZM122.161 63.0379C125.374 64.8198 125.906 68.7096 125.857 70.2858V75.9674C125.811 78.7534 123.516 80.2206 123.516 80.2206C123.516 80.2206 125.857 81.7857 125.857 84.9139V90.6387C125.811 94.3026 124.141 97.0013 122.482 97.8325H134.936V68.8407C134.936 65.1215 134.934 63.0375 129.184 63.0375L122.161 63.0379ZM139.857 63.0379C143.075 64.8767 143.563 68.046 143.556 70.2858V75.9242C143.539 78.8605 141.204 80.4771 141.204 80.4771C141.204 80.4771 143.563 82.1598 143.556 85.0218V90.6359C143.539 92.9742 142.681 95.6289 140.443 97.8325H152.732V80.6979L160.855 97.8325H170.028V72.1548C170.047 67.5698 169.961 63.3157 165.076 63.1463H160.739V79.8454L154.928 67.7989C153.085 64.0744 150.286 63.038 147.569 63.038L139.857 63.0379ZM61.9234 63.0407C65.8016 65.3945 64.6237 70.7368 64.6237 70.7368L63.378 76.2147C62.3652 80.1258 59.6028 81.5236 59.6028 81.5236C59.6028 81.5236 62.1678 83.1553 61.5768 86.4788L59.4893 97.834H68.9218L69.6239 93.616H77.5928L78.2977 97.834H87.741L82.297 71.1346C81.2583 66.0085 78.5222 63.0415 72.9347 63.0415H61.9251L61.9234 63.0407ZM73.6026 69.6377L76.3868 86.3825H70.8213L73.6026 69.6377ZM38.0587 70.553C38.0587 70.553 40.5584 70.5392 42.3523 70.553C44.1497 70.572 44.1494 71.6766 44.1806 72.5028V76.3211C44.1806 76.3211 44.1893 77.8723 42.6495 77.855C41.1079 77.8377 38.0588 77.855 38.0588 77.855L38.0587 70.553ZM14.9429 109.141C10.6465 109.141 8.02921 112.157 8.07581 116.06V136.258C8.07581 139.964 10.5501 143.938 14.9537 143.938H34.9074C31.565 141.002 31.9895 139.046 31.9722 136.896V131.155H23.1689V136.636H19.9608C17.664 136.626 17.1496 135.669 17.2118 133.177V119.978C17.2014 116.948 17.886 116.311 19.7664 116.283H23.1689V120.364H31.5401V115.973C31.4969 113.679 32.5763 111.863 35.6474 109.141L14.9429 109.141ZM50.7551 109.141C45.0812 109.141 42.6009 111.795 41.3928 117.237L35.9245 143.938H45.3786L46.0996 139.723H54.0685L54.7679 143.938H64.1977L61.7025 131.803C61.1201 128.477 64.2733 126.259 64.2733 126.259C64.2733 126.259 60.9205 125.443 59.9095 121.541L59.0643 116.842C59.0643 116.842 58.0398 111.22 62.9393 109.141L50.7551 109.141ZM81.4724 109.144C76.7646 109.144 75.4448 112.843 75.329 118.315V132.106C75.3048 134.741 75.3042 136.456 72.5719 136.456H65.6265C65.6265 136.456 66.5044 143.939 71.3487 143.939H77.7568C81.4725 143.939 84.4619 140.83 84.4619 137.93L84.4727 131.125C84.4743 128.561 87.4107 126.432 87.4107 126.432C87.4107 126.432 84.4727 124.453 84.4727 122.033C84.4727 122.033 84.4792 115.109 84.4619 116.39C84.4619 116.39 84.3347 111.17 87.0515 109.144L81.4724 109.144ZM95.5501 109.144C92.7987 109.144 90.6096 111.469 90.6407 116.36V136.159C90.7064 140.073 93.0371 143.939 98.0317 143.939H107.286C111.392 143.939 114.62 140.953 114.58 137.344L114.591 131.125C114.599 128.561 117.529 126.432 117.529 126.432C117.529 126.432 114.599 124.453 114.599 122.033C114.599 122.033 114.599 115.109 114.58 116.389C114.58 116.389 114.481 111.09 117.261 109.144H111.585C106.883 109.144 105.567 112.843 105.444 118.315V134.45C105.425 136.401 104.73 136.628 103.859 136.637H100.994C100.002 136.628 99.5378 136.214 99.4981 134.55V109.144H95.5501ZM125.732 109.144C120.846 109.312 120.749 113.919 120.78 118.261V143.939H130.066V128.07L138.079 143.939H149.021C147.406 141.968 147.267 139.081 147.26 136.745V131.714C147.246 128.854 149.601 126.58 149.601 126.58C149.601 126.58 147.267 124.381 147.26 121.45V116.392C147.246 114.152 147.086 110.824 149.782 109.144H143.236C139.661 109.144 138.039 111.97 138.079 115.655V125.044L130.066 109.144L125.732 109.144ZM161.998 109.144C155.664 109.042 153.146 112.441 153.16 116.911V119.849C153.146 125.744 157.643 129.455 163.175 129.438H165.468C166.835 129.424 167.908 130.041 167.874 131.9V133.442C167.886 135.494 167.52 136.519 165.39 136.532H162.559V133.143H153.853V138.065C153.833 140.604 154.977 143.939 160.086 143.939H180.168C178.397 142.466 176.952 140.027 176.952 136.966V132.478C176.909 126.913 173.455 121.928 167.398 121.928H164.706C163.041 121.91 162.26 120.673 162.267 119.594V118.471C162.31 116.783 162.828 116.281 164.805 116.281H167.873V119.346H175.769V115.668C175.734 113.86 176.804 110.976 179.874 109.144H161.997L161.998 109.144ZM50.0832 115.744L52.8673 132.486H47.3018L50.0832 115.744Z" fill="white"/>
<path d="M176.825 76.9868C174.461 78.4126 173.723 77.1527 174.626 75.9239C178 71.4149 176.923 68.724 176.578 67.6922C175.949 65.7911 175.876 64.4154 176.106 63.4096C175.11 60.7481 178.123 60.1795 178.123 60.1795C178.444 58.6915 177.02 57.4074 177.02 57.4074C177.02 57.4074 176.861 57.1308 177.62 57.0911C178.394 57.1118 180.079 59.7717 180.079 59.7717C181.469 59.5971 182.267 60.3817 182.729 61.2493C183.484 61.8507 183.931 62.7598 184.208 63.7587C185.622 71.4235 179.066 75.6025 176.825 76.9868Z" fill="#CE181E"/>
<path d="M177.612 57.0909C176.854 57.1289 177.016 57.4041 177.016 57.4041C177.016 57.4041 178.441 58.6894 178.117 60.1775C178.117 60.1775 175.103 60.7483 176.1 63.4099C176.283 63.8903 176.582 64.4354 177.072 65.0679C177.072 65.0679 176.624 62.38 178.428 62.1191C178.428 62.1191 179.738 62.9197 180.008 64.9815C180.008 64.9815 181.233 63.0505 180.31 61.6006C180.31 61.6006 181.838 60.713 183.335 63.2397C183.335 63.2397 183.235 62.1939 182.722 61.2468C182.264 60.3827 181.46 59.5951 180.073 59.7696C180.073 59.7696 178.387 57.1116 177.612 57.0909ZM182.084 63.5097C183.482 70.0806 176.976 75.8146 176.967 75.8181C183.246 71.3972 183.601 66.3777 183.2 65.2596C183.2 65.2596 183.045 63.9383 182.084 63.5097ZM164.802 117.899C164.24 117.899 164.026 117.939 163.924 117.972C163.902 118.061 163.882 118.199 163.876 118.474V119.608C163.876 119.776 163.936 120.308 164.702 120.31H166.26V117.899L164.802 117.899ZM50.0803 125.589C49.6465 128.178 49.377 129.818 49.1973 130.874H50.9579C50.7799 129.818 50.5106 128.178 50.0803 125.589Z" fill="#0A0203"/>
</g>
<defs>
<clipPath id="clip0_15016_302047">
<rect width="200" height="200" fill="white" transform="translate(0.84375 0.621094)"/>
</clipPath>
</defs>
</svg>
