<svg width="201" height="201" viewBox="0 0 201 201" fill="none" xmlns="http://www.w3.org/2000/svg">
<g clip-path="url(#clip0_15016_302061)">
<path d="M67.876 30.4927C66.4203 30.4927 65.2356 31.6749 65.2356 33.1279V115.927C65.2356 118.153 65.813 120.371 66.9058 122.322L72.5994 132.516C72.7333 132.758 72.7026 133.056 72.5083 133.282C72.3655 133.451 68.9663 137.435 66.6284 140.814C65.7251 142.129 65.2356 143.677 65.2106 145.306C65.1872 147.169 65.2066 148.806 65.2219 150.25C65.309 158.556 65.3155 159.25 58.0396 160.718L51.6887 161.556C51.4065 161.589 51.1403 161.702 50.9137 161.871C49.9137 162.613 49.3645 164.048 49.4089 165.798C49.4508 167.411 50.0194 169.484 51.4928 170.468C51.7678 170.653 52.0879 170.75 52.4161 170.75H52.471C62.9961 170.403 71.4324 170.242 79.0196 170.242H101.585C117.158 170.242 132.4 170.444 140.416 170.75H140.481C141.102 170.75 141.674 170.403 141.957 169.855C144.513 164.895 148.513 150.774 149.368 141.984C149.408 141.637 149.328 141.282 149.15 140.984C148.029 139.056 145.626 138.193 143.739 138.193C142.158 138.193 140.844 138.75 140.029 139.766C139.956 139.855 139.892 139.951 139.844 140.048C130.11 159.177 125.763 159.177 111.351 159.177C94.4077 159.177 92.577 156.056 92.577 154.71V153.347C92.5609 149.516 92.5447 144.266 93.7141 143.097C95.7222 141.089 97.0045 140.83 98.6335 140.508C99.9803 140.234 101.505 139.927 103.351 138.653C104.198 138.072 107.513 137.556 109.295 137.282C110.126 137.153 110.835 137.04 111.359 136.935C111.553 136.895 111.779 136.879 112.029 136.879C112.134 136.879 112.247 136.879 112.351 136.887C112.271 137.097 112.198 137.314 112.142 137.532C111.997 138.121 112.126 138.742 112.505 139.226C112.884 139.718 113.48 140.008 114.093 140.008C114.44 140.008 114.787 139.911 115.077 139.75C118.884 137.605 121.432 134.04 122.247 129.701C122.948 126 122.222 122.153 120.4 119.919L120.174 119.645C119.553 118.887 119.174 118.387 119.15 117.863C118.932 113.371 116.472 109.745 111.626 106.773C102.956 101.467 97.1658 98.3865 92.6254 96.6809V62.6556C92.6254 60.2289 91.8189 57.8337 90.3431 55.9111C90.327 55.8918 69.8131 31.3609 69.8131 31.3609C69.3107 30.8032 68.6219 30.4947 67.876 30.4947V30.4927ZM3.13101 78.4092C2.85021 78.4092 2.57367 78.4802 2.3277 78.6157C1.44019 79.106 0.884623 80.0673 0.806073 81.2504C0.74042 82.2246 1.01535 83.5198 1.9827 84.2375C2.17851 84.3827 2.40472 84.4843 2.64424 84.5319L4.72345 84.9472C7.58815 85.5182 7.64372 85.5295 7.64372 92.3271V113.159C7.64372 123.07 9.79503 129.465 14.4249 133.288C18.7064 136.78 24.1185 138.336 31.9775 138.336V138.328C39.3534 138.328 45.8083 135.949 49.7075 131.78C54.7761 126.159 55.4737 118.272 55.4737 110.586V101.247C55.4737 93.7529 55.8922 88.2908 56.589 86.6392C56.993 85.6924 57.8189 85.3472 59.9245 84.8561L61.4262 84.5238C61.7374 84.4545 62.0213 84.2988 62.2447 84.0714C63.5633 82.7407 63.3641 80.0318 62.2479 78.9004C61.935 78.5851 61.51 78.4092 61.0681 78.4092C61.0391 78.4092 61.0084 78.4092 60.9786 78.4125C57.8527 78.5826 54.8277 78.6641 51.7325 78.6641C48.5164 78.6641 45.401 78.5939 40.6235 78.4109C40.6018 78.41 40.5808 78.4092 40.559 78.4092C40.1171 78.4092 39.6921 78.5867 39.3808 78.902C38.2646 80.0335 38.0655 82.7424 39.3824 84.0714C39.6203 84.3125 39.9276 84.4746 40.2598 84.5367L42.5107 84.9504C44.5945 85.3424 45.7252 85.7117 46.1204 86.6375C46.8228 88.29 47.2422 93.7513 47.2422 101.248V111.328C47.2422 124.183 43.2292 130.433 34.9767 130.433C24.904 130.433 22.8782 123.223 22.8782 111.578V92.3271C22.8782 85.3827 23.0427 85.3529 25.7468 84.8738L27.7484 84.5408C28.0097 84.4972 28.2573 84.3924 28.4686 84.2327C29.2041 83.6827 29.6283 82.6883 29.6323 81.5061C29.6363 80.3117 29.2162 79.3068 28.4775 78.748C28.1896 78.5278 27.8379 78.4092 27.4758 78.4092C27.4525 78.4092 27.4283 78.41 27.4049 78.4109C23.4919 78.5794 19.4217 78.6641 15.3064 78.6641C11.245 78.6641 7.05952 78.577 3.20142 78.4109C3.17739 78.41 3.15416 78.4092 3.13101 78.4092ZM128.06 78.4092C127.906 78.4092 127.761 78.4294 127.616 78.4705C126.737 78.7157 126.084 79.4367 125.818 80.4504C125.519 81.5883 125.705 83.2262 126.64 84.1617C126.882 84.3996 127.181 84.5593 127.519 84.6198L129.366 84.9553C132.003 85.4166 133.156 86.0222 133.156 89.9077C133.156 94.0118 133.003 100.78 132.664 106.642C132.463 109.806 132.294 112.909 132.148 115.651C131.931 119.82 131.745 123.417 131.495 125.844C131.076 130.175 131.076 130.175 127.624 130.788L126.124 131.038C125.931 131.07 125.753 131.135 125.584 131.223C124.406 131.877 124.116 133.369 124.229 134.441C124.374 135.812 125.124 136.828 126.237 137.175C126.398 137.223 126.56 137.248 126.721 137.248C126.753 137.248 126.777 137.248 126.81 137.24C130.052 137.078 133.197 136.998 135.89 136.998C139.181 136.998 142.737 137.086 145.648 137.24C145.681 137.248 145.705 137.248 145.737 137.248C146.052 137.248 146.358 137.159 146.624 136.99C147.705 136.304 147.923 134.909 147.971 134.344C148.06 133.102 147.705 132.038 146.979 131.417C146.745 131.215 146.455 131.078 146.148 131.03L142.898 130.538C140.794 130.215 140.471 130.167 140.471 126.336C140.471 121.514 140.552 113.247 140.632 107.609C140.681 105.307 140.729 103.174 140.81 100.837C141.769 102.945 142.818 105.205 143.882 107.526C148.649 117.852 154.052 129.554 156.237 136.498C156.35 136.869 156.584 137.175 156.907 137.385C157.995 138.103 159.536 138.159 159.987 138.159C160.963 138.159 161.931 137.82 162.689 137.215C162.915 137.03 163.092 136.796 163.197 136.522C167.802 124.74 173.237 113.03 178.504 101.71V104.092L178.673 125.756C178.673 127.804 178.673 129.417 178.367 130.022C178.302 130.151 178.149 130.449 176.27 130.691L173.77 131.03C173.504 131.062 173.254 131.159 173.036 131.312C172.125 131.949 171.649 133.159 171.786 134.465C171.923 135.707 172.6 136.699 173.6 137.119C173.802 137.199 174.02 137.248 174.237 137.248H174.31C178.044 137.086 182.625 136.998 186.576 136.998C190.536 136.998 194.06 137.07 198.012 137.248H198.084C198.294 137.248 198.504 137.207 198.705 137.127C199.512 136.804 200.101 136.03 200.302 135.014C200.528 133.925 200.334 132.409 199.407 131.498C199.149 131.232 198.81 131.07 198.447 131.03L195.794 130.691C194.052 130.473 193.665 130.038 193.488 126.006C192.98 115.336 192.818 106.439 192.818 89.4021C192.818 85.965 193.73 85.5206 196.536 85.0391L198.947 84.623C199.351 84.5545 199.714 84.3416 199.964 84.0246C200.657 83.1553 200.947 81.9085 200.722 80.7689C200.528 79.8101 199.996 79.0455 199.222 78.6157C198.972 78.4794 198.697 78.4092 198.423 78.4092C198.391 78.4092 198.359 78.4117 198.326 78.4125C195.068 78.5988 191.181 78.6657 188.834 78.6657C188.407 78.6657 186.842 78.6738 186.455 78.6738C184.77 78.6738 183.149 78.6294 180.721 78.4157C180.673 78.4125 180.625 78.4092 180.576 78.4092C179.826 78.4092 179.157 78.9173 178.971 79.6568C177.205 86.5593 175.254 90.7529 171.358 99.1046L166.899 108.724C165.528 111.723 164.503 113.844 163.689 115.449C162.431 113.207 160.818 110.312 160.326 109.21L154.826 97.4554C154.229 96.1917 153.657 94.9997 153.116 93.8675C150.374 88.1569 148.39 84.0327 148.39 80.0681C148.39 79.6044 148.197 79.1617 147.858 78.8472C147.552 78.5649 147.148 78.4092 146.737 78.4092C146.689 78.4092 146.64 78.4117 146.592 78.4157C143.665 78.6657 141.302 78.6657 138.568 78.6657C134.414 78.6657 130.914 78.581 128.156 78.4141C128.124 78.4109 128.092 78.4092 128.06 78.4092Z" fill="#FDB913"/>
<path d="M67.7897 32.1562C67.3243 32.1973 66.8937 32.5701 66.8937 33.1296V81.6978V115.927C66.8937 117.879 67.3993 119.806 68.3526 121.516L74.0494 131.718C74.5236 132.572 74.4083 133.629 73.7688 134.355C73.7688 134.355 70.3082 138.411 67.9929 141.758C67.2703 142.806 66.8881 144.048 66.8687 145.323C66.709 158.008 68.4663 160.315 58.3106 162.355L51.9032 163.202C50.5597 164.202 50.8992 168.081 52.4153 169.097C62.8517 168.75 71.2687 168.581 79.0188 168.581H101.576C115.391 168.581 131.544 168.75 140.48 169.097C142.827 164.541 146.867 150.573 147.722 141.823C146.536 139.782 142.665 139.121 141.319 140.806C131.383 160.331 126.673 160.839 111.351 160.839C99.052 160.839 90.923 159.242 90.923 154.71C90.923 149.532 90.7294 143.742 92.5439 141.919C96.6569 137.806 98.7295 139.831 102.415 137.29C103.963 136.226 109.109 135.71 111.028 135.306C112.544 135 114.52 135.548 114.504 135.798C114.488 136.202 113.931 137.218 113.754 137.935C113.681 138.21 114.004 138.452 114.262 138.298C121.843 134.032 122.028 124.54 119.109 120.959C118.375 120.048 117.552 119.169 117.496 117.943C117.27 113.298 114.238 110.322 110.762 108.188C101.657 102.617 95.5843 99.4197 90.9713 97.8472V62.6557C90.9713 60.5766 90.2859 58.5629 89.0278 56.9194L68.5824 32.4715C68.3615 32.2267 68.0695 32.1315 67.7897 32.1562ZM73.1284 48.5548C73.1808 48.5677 73.23 48.5951 73.2696 48.6435L84.681 62.35C84.931 62.6371 85.0681 63.0073 85.0681 63.3847V134.105C85.0681 134.613 84.4551 134.871 84.1003 134.508L73.2244 114.669C72.9429 114.395 72.7897 114.016 72.7897 113.621V108.009L81.1325 118.435L72.7897 102.342V95.7633L81.1325 106.185L72.7897 90.089V83.5083L81.1325 93.9407L72.7897 77.8381V71.2574L81.1325 81.6873L72.7897 65.5912V59.0105L81.1325 69.4332L72.7897 53.3371V48.8225C72.7897 48.6314 72.9704 48.5185 73.1284 48.5548ZM3.12858 80.0688C2.21406 80.5736 2.29841 82.4099 2.96947 82.9083L5.04868 83.3244C8.80226 84.0728 9.29985 84.5769 9.29985 92.3277V113.161C9.29985 122.258 11.1354 128.419 15.4709 132C19.9733 135.669 25.6395 136.677 31.9767 136.677C38.7308 136.677 44.8115 134.597 48.476 130.669C53.0607 125.589 53.8156 118.419 53.8156 110.588V101.249C53.8156 94.4971 54.1487 88.1592 55.0632 85.9906C55.8116 84.239 57.3971 83.747 59.5648 83.2406L61.0673 82.9083C61.7326 82.2373 61.5665 80.5736 61.0673 80.0688C57.9011 80.2413 54.8204 80.3252 51.7317 80.3252C48.3171 80.3252 45.0607 80.2413 40.5598 80.0688C40.0598 80.5736 39.8937 82.2373 40.5598 82.9083L42.8171 83.3244C45.0607 83.747 46.8962 84.239 47.6446 85.9906C48.5655 88.1592 48.8986 94.4971 48.8986 101.249V111.338C48.8986 122.758 45.6429 132.097 34.9759 132.097C22.3072 132.097 21.2201 121.339 21.2201 111.58V92.3277C21.2201 84.5769 21.7193 83.9067 25.4734 83.2406L27.475 82.9083C28.1395 82.4099 28.1395 80.5736 27.475 80.0688C23.4718 80.2413 19.3927 80.3252 15.3055 80.3252C11.3023 80.3252 7.13185 80.2413 3.12858 80.0688ZM128.057 80.0688C127.146 80.3244 127.146 82.326 127.807 82.9922L129.646 83.3244C132.977 83.9067 134.815 85.1591 134.815 89.91C134.815 94.4132 134.638 101.166 134.315 106.75C133.807 114.669 133.557 121.919 133.138 126.008C132.646 131.169 132.146 131.669 127.888 132.427L126.388 132.677C125.638 133.089 125.638 135.258 126.718 135.589C130.057 135.427 133.227 135.339 135.896 135.339C139.057 135.339 142.646 135.427 145.735 135.589C146.396 135.177 146.565 133.258 145.896 132.677L142.646 132.177C139.307 131.669 138.807 130.508 138.807 126.339C138.807 121.339 138.896 113.008 138.977 107.581C139.057 103.246 139.146 99.581 139.477 94.1641H139.646C144.315 104.997 154.565 125.669 157.816 136.008C158.324 136.339 159.235 136.508 159.985 136.508C160.654 136.508 161.235 136.258 161.654 135.927C167.154 121.839 173.824 107.913 179.985 94.5737H180.162V104.083L180.324 125.758C180.324 130.839 180.324 131.839 176.485 132.339L173.985 132.677C173.154 133.258 173.243 135.177 174.235 135.589C178.243 135.427 182.824 135.339 186.574 135.339C190.663 135.339 194.243 135.427 198.082 135.589C198.913 135.258 198.913 133.339 198.243 132.677L195.574 132.339C192.332 131.919 191.993 129.927 191.832 126.089C191.332 115.58 191.155 106.583 191.155 89.4059C191.155 84.9874 192.824 83.9946 196.251 83.4059L198.663 82.9922C199.332 82.1607 199.332 80.5736 198.413 80.0688C195.413 80.2413 191.582 80.3252 188.832 80.3252C186.332 80.3252 184.413 80.4075 180.574 80.0688C178.735 87.243 176.654 91.6624 172.654 100.244L168.404 109.416C166.154 114.33 164.824 116.919 163.735 118.919C162.574 116.83 159.566 111.588 158.816 109.915L153.315 98.1601C149.646 90.3261 146.735 85.2414 146.735 80.0688C143.735 80.3244 141.315 80.3252 138.565 80.3252C134.477 80.3252 130.888 80.2413 128.057 80.0688ZM91.6052 102.829C93.9117 103.519 96.1859 104.306 98.3956 105.261C102.331 106.948 106.242 109.07 109.355 112.064C110.065 112.75 110.751 113.476 111.355 114.25C111.654 114.645 111.912 115.161 112.283 115.484C112.726 115.871 112.968 115.556 113.468 115.572C114.299 115.58 114.154 116.637 114.154 117.201C114.17 118.347 114.275 119.5 114.589 120.605C113.993 120.435 113.186 120.701 112.759 121.129C112.557 121.338 112.38 121.605 112.323 121.895C112.267 122.121 112.291 122.734 112.605 122.83C112.88 122.919 113.17 122.403 113.323 122.266C113.622 122.008 113.839 122 114.21 122.056C114.468 122.105 114.815 122.024 115.049 122.089C115.267 122.129 115.404 122.524 115.557 122.75C116.404 124.024 117.589 124.863 118.033 126.395C118.404 127.677 118.259 129.056 117.759 130.282C117.597 130.677 117.283 131.613 116.888 131.822C116.372 132.097 116.315 131.266 116.21 130.951C115.912 130.04 115.363 129.218 114.573 128.645C113.509 127.871 112.331 127.951 111.13 127.58C109.88 127.193 108.992 126.177 107.807 125.645C106.484 125.064 104.96 125.234 103.952 124.056C103.75 123.83 103.581 123.572 103.42 123.314C103.355 123.209 103.299 123.105 103.242 123C103.057 122.669 103.033 122.766 103.242 122.492C103.557 122.08 104.307 121.709 104.759 121.443C105.557 120.959 106.396 120.613 107.323 120.484C108.396 120.33 109.452 120.266 109.896 119.097C110.251 118.177 109.863 117.048 108.92 116.685C107.952 116.314 106.767 116.524 105.759 116.556C104.476 116.613 103.105 116.597 101.912 116.08C99.5972 115.072 98.3633 112.427 96.6053 110.75C95.7343 109.922 94.7746 109.217 93.7181 108.642C93.4843 108.515 93.0972 108.29 92.7262 108.072C92.0326 107.664 91.6052 106.921 91.6052 106.116V103.053V103.027V102.829ZM94.5972 112.814C95.0004 112.798 95.3875 112.871 95.7182 113.04C98.6214 114.556 97.7908 117.169 99.9924 117.177C100.154 117.185 100.226 117.363 100.121 117.476C99.4198 118.217 98.3956 118.83 97.3875 119.097C94.8472 119.798 91.3552 118.718 91.823 115.371C92.0488 113.782 93.3875 112.879 94.5972 112.814ZM91.3875 120.758H91.3955H91.4117H91.4197C91.4439 120.766 91.452 120.766 91.4762 120.774C91.5004 120.782 91.5326 120.782 91.5568 120.79C94.8956 121.508 97.3714 124.274 99.2585 126.984C99.6053 127.5 100.113 128.347 99.5246 128.879C99.1053 129.25 98.4117 129.25 97.8875 129.282C95.5569 129.395 93.2585 129.693 90.9681 130.113V129.306V121.145C90.9681 121.088 90.9842 121.032 91.0084 120.984C91.0246 120.935 91.0488 120.911 91.081 120.879C91.0891 120.871 91.0891 120.863 91.0971 120.863C91.1375 120.822 91.1778 120.798 91.2262 120.782C91.2665 120.766 91.3149 120.758 91.3552 120.766C91.3633 120.766 91.3794 120.766 91.3875 120.758ZM84.718 139.702C85.0084 139.734 85.2664 139.968 85.2664 140.314V153.823C85.2664 154.234 84.7503 154.411 84.4922 154.089L78.4664 146.565C78.2293 146.274 78.2535 145.839 78.5228 145.556L84.21 139.879C84.3632 139.726 84.5487 139.677 84.718 139.702Z" fill="#840029"/>
</g>
<defs>
<clipPath id="clip0_15016_302061">
<rect width="200" height="200" fill="white" transform="translate(0.84375 0.621094)"/>
</clipPath>
</defs>
</svg>
