<svg width="200" height="200" viewBox="0 0 200 200" fill="none" xmlns="http://www.w3.org/2000/svg">
<path fill-rule="evenodd" clip-rule="evenodd" d="M160.396 129.162C159.312 127.051 157.704 125.254 155.726 123.943C156.072 125.297 156.224 126.694 156.177 128.092C157.612 128.322 159.024 128.68 160.396 129.162ZM141.528 136.813C141.878 136.854 142.237 136.883 142.614 136.894C143.893 136.929 145.304 136.788 146.715 136.55C147.039 134.949 147.391 132.784 147.515 130.489C146.117 130.582 144.62 130.751 143.03 131.015C142.843 133.016 142.336 134.973 141.528 136.813ZM135.313 132.912C136.172 134.66 137.983 136.16 140.729 136.692C140.886 135.306 141.034 133.428 141.006 131.397C139.083 131.803 137.183 132.308 135.313 132.912ZM147.789 136.354C149.563 135.991 151.316 135.535 153.042 134.988C153.31 133.73 153.564 132.197 153.677 130.563C152.317 130.435 150.951 130.381 149.585 130.402C149.308 132.469 148.702 134.479 147.789 136.354ZM155.827 130.845C155.543 132.11 155.109 133.336 154.536 134.499C155.262 134.25 155.692 134.085 155.692 134.085L160.429 132.023C159.368 131.636 157.829 131.175 155.827 130.845ZM149.047 121.474C148.998 121.466 148.953 121.464 148.907 121.456C149.262 122.661 149.789 124.908 149.775 127.691C151.088 127.658 152.401 127.693 153.71 127.795C153.606 125.848 153.203 123.913 152.301 122.274C151.243 121.909 150.154 121.642 149.047 121.474ZM139.443 123.034C135.899 125.306 134.812 129.063 134.74 130.205C136.757 129.615 138.8 129.117 140.863 128.713C140.665 126.716 140.233 124.729 139.443 123.034ZM141.732 121.939C142.527 123.978 142.986 126.132 143.092 128.319C144.569 128.083 146.055 127.91 147.546 127.801C147.457 125.413 147.028 123.073 145.984 121.244C144.349 121.26 142.945 121.519 141.732 121.939ZM120.147 101.013C115.606 101.804 111.344 99.1265 110.629 95.0331C110.04 91.6571 111.608 88.701 114.724 87.3219C113.607 86.5942 112.457 85.9169 111.28 85.2921C107.381 87.6194 105.114 92.1765 105.942 96.9196C107.01 103.062 112.856 107.172 118.999 106.105C122.899 105.423 125.974 102.813 127.43 99.43C126.924 98.6518 126.384 97.8968 125.811 97.1674C124.813 99.1076 122.857 100.54 120.147 101.013Z" fill="white"/>
<path fill-rule="evenodd" clip-rule="evenodd" d="M123.148 95.7004C123.544 95.6307 123.892 95.4636 124.182 95.2367C123.142 94.0922 122.041 93.0054 120.882 91.9811C120.367 92.4408 120.093 93.1104 120.214 93.7959C120.404 94.8964 121.949 95.9093 123.148 95.7004Z" fill="white"/>
<mask id="path-3-outside-1_15016_302143" maskUnits="userSpaceOnUse" x="16.9316" y="4.06641" width="165" height="194" fill="black">
<rect fill="white" x="16.9316" y="4.06641" width="165" height="194"/>
<path fill-rule="evenodd" clip-rule="evenodd" d="M158.756 90.3694C158.756 90.3694 161.046 73.4645 130.333 62.3136C123.535 59.846 117.365 57.4033 111.741 55.1367C98.0337 49.2036 71.0585 35.2189 59.4757 13.0664C59.4757 13.0664 47.4214 35.3921 52.4839 52.291C52.4839 52.291 50.1328 49.511 46.6732 45.4315C46.6732 45.4315 44.5698 61.4042 48.4751 70.1641C48.4751 70.1641 31.7234 82.0652 29.7822 87.6392C34.2069 88.8361 34.0815 88.5247 35.1472 89.066C35.1472 89.066 26.0977 100.243 22.9316 109.493C22.9316 109.493 26.4479 109.155 30.5443 109.106C30.3433 112.98 29.9643 130.627 37.364 136.699L105.677 187.933C105.677 187.933 99.1302 152.069 117.917 149.807C120.502 150.285 123.251 151.72 133.213 151.822C153.793 152.43 164.683 141.365 164.683 141.365L173.222 139.505C173.222 139.505 175.422 136.443 176.798 127.037C179.739 100.336 158.756 90.3694 158.756 90.3694ZM97.0765 172.247L44.3857 133.474C33.8756 124.136 37.8645 105.445 37.8645 105.445L30.8408 105.377C32.5403 101.071 43.9379 87.8889 43.9379 87.8889C42.1818 87.2034 38.7709 86.1914 38.7709 86.1914C39.8883 84.8621 50.4422 75.8763 50.4422 75.8763C57.5932 83.8383 61.4637 84.2323 61.4637 84.2323C64.9343 86.4133 81.6343 88.4759 81.6343 88.4759C52.47 80.9687 52.6889 60.7077 52.6889 60.7077C56.6848 65.7891 63.006 65.9254 63.006 65.9254C52.0083 48.3111 58.7663 28.6589 58.7663 28.6589C83.3685 53.3308 117.213 65.0807 117.213 65.0807L131.993 70.6158C152.682 78.3708 150.392 90.1654 150.392 90.1654C150.392 90.1654 141.462 89.0491 133.871 95.9702C133.871 95.9702 135.619 93.5673 137.115 91.5346C137.916 90.459 140.335 85.685 135.238 81.3607C135.238 81.3607 137.622 87.7247 133.382 87.7377C129.139 87.7496 121.724 82.8443 119.269 80.124C115.003 75.3848 103.618 68.5691 95.6617 70.7362C95.6617 70.7362 112.2 78.6176 105.947 81.6443C105.016 82.098 94.0667 81.7687 93.3811 98.6438C92.8787 111.071 106.581 114.652 106.581 114.652C106.581 114.652 106.348 115.091 106.027 115.894C103.31 117.256 99.2297 118.312 93.3592 117.635C93.3592 117.635 98.1312 122.745 104.157 124.527C104.107 125.341 104.087 126.157 104.098 126.973C101.385 128.38 97.2556 129.494 91.2638 128.802C91.2638 128.802 98.0387 136.057 105.637 136.291C105.711 136.52 105.793 136.75 105.868 136.979C103.194 138.582 98.8387 140.041 92.1941 139.272C92.1941 139.272 99.1949 146.772 106.943 146.772C107.349 146.772 107.712 146.727 108.048 146.663C97.0765 152.006 97.0765 172.247 97.0765 172.247ZM120.886 91.9793C122.044 93.0036 123.145 94.0904 124.185 95.2349C123.884 95.4725 123.529 95.6318 123.151 95.6986C121.952 95.9076 120.407 94.8937 120.217 93.7942C120.097 93.1086 120.371 92.439 120.886 91.9793ZM105.948 96.9205C105.12 92.1773 107.388 87.6213 111.286 85.293C111.818 85.5706 113.082 86.2581 114.73 87.3228C111.614 88.7028 110.046 91.6579 110.635 95.034C111.351 99.1273 115.612 101.805 120.153 101.014C122.863 100.541 124.819 99.1094 125.816 97.1672C126.383 97.8916 126.927 98.6458 127.435 99.4298C125.979 102.813 122.905 105.423 119.004 106.105C112.862 107.173 107.017 103.063 105.948 96.9205ZM152.308 122.277C153.209 123.915 153.612 125.851 153.717 127.798C152.407 127.695 151.094 127.66 149.781 127.694C149.792 125.585 149.499 123.485 148.913 121.459C148.959 121.467 149.004 121.469 149.053 121.477C150.248 121.659 151.327 121.937 152.308 122.277ZM145.99 121.247C147.034 123.076 147.463 125.415 147.553 127.804C146.061 127.913 144.575 128.085 143.098 128.321C142.992 126.135 142.533 123.981 141.738 121.942C142.951 121.521 144.356 121.262 145.99 121.247ZM139.449 123.036C140.24 124.731 140.672 126.717 140.87 128.714C138.807 129.118 136.764 129.616 134.747 130.207C134.818 129.065 135.904 125.309 139.449 123.036ZM141.013 131.399C141.031 133.168 140.938 134.937 140.736 136.694C137.99 136.162 136.179 134.662 135.32 132.914C137.19 132.31 139.09 131.804 141.013 131.399ZM143.036 131.018C144.522 130.769 146.019 130.593 147.522 130.492C147.397 132.787 147.045 134.951 146.721 136.553C145.31 136.79 143.899 136.932 142.62 136.897C142.243 136.885 141.884 136.857 141.534 136.816C142.341 134.976 142.849 133.018 143.036 131.018ZM149.591 130.404C151.09 130.384 152.45 130.447 153.684 130.565C153.576 132.053 153.363 133.532 153.048 134.99C151.322 135.537 149.569 135.993 147.795 136.356C148.708 134.481 149.314 132.471 149.591 130.404ZM155.833 130.847C157.835 131.177 159.374 131.638 160.435 132.025L155.699 134.086C155.699 134.086 155.267 134.252 154.542 134.5C155.116 133.338 155.549 132.111 155.833 130.847ZM155.732 123.943C157.711 125.254 159.319 127.052 160.402 129.163C159.03 128.681 157.618 128.323 156.183 128.093C156.23 126.695 156.078 125.298 155.732 123.943ZM167.783 134.195C167.783 134.195 165.083 122.548 149.968 117.431C133.918 112.004 129.82 127.98 129.693 130.664C129.47 135.353 133.263 140.487 140.854 140.711C148.447 140.937 159.386 136.472 159.386 136.472L159.162 136.917C156.705 139.821 148.223 144.732 141.524 145.623C134.826 146.517 119.42 149.864 115.176 134.346C109.218 112.56 131.439 111.648 131.439 111.648C131.439 111.648 130.961 107.987 137.119 100.995C143.277 94.0011 158.297 93.5017 165.762 107.06C173.228 120.619 169.256 131.69 167.783 134.195Z"/>
</mask>
<path fill-rule="evenodd" clip-rule="evenodd" d="M158.756 90.3694C158.756 90.3694 161.046 73.4645 130.333 62.3136C123.535 59.846 117.365 57.4033 111.741 55.1367C98.0337 49.2036 71.0585 35.2189 59.4757 13.0664C59.4757 13.0664 47.4214 35.3921 52.4839 52.291C52.4839 52.291 50.1328 49.511 46.6732 45.4315C46.6732 45.4315 44.5698 61.4042 48.4751 70.1641C48.4751 70.1641 31.7234 82.0652 29.7822 87.6392C34.2069 88.8361 34.0815 88.5247 35.1472 89.066C35.1472 89.066 26.0977 100.243 22.9316 109.493C22.9316 109.493 26.4479 109.155 30.5443 109.106C30.3433 112.98 29.9643 130.627 37.364 136.699L105.677 187.933C105.677 187.933 99.1302 152.069 117.917 149.807C120.502 150.285 123.251 151.72 133.213 151.822C153.793 152.43 164.683 141.365 164.683 141.365L173.222 139.505C173.222 139.505 175.422 136.443 176.798 127.037C179.739 100.336 158.756 90.3694 158.756 90.3694ZM97.0765 172.247L44.3857 133.474C33.8756 124.136 37.8645 105.445 37.8645 105.445L30.8408 105.377C32.5403 101.071 43.9379 87.8889 43.9379 87.8889C42.1818 87.2034 38.7709 86.1914 38.7709 86.1914C39.8883 84.8621 50.4422 75.8763 50.4422 75.8763C57.5932 83.8383 61.4637 84.2323 61.4637 84.2323C64.9343 86.4133 81.6343 88.4759 81.6343 88.4759C52.47 80.9687 52.6889 60.7077 52.6889 60.7077C56.6848 65.7891 63.006 65.9254 63.006 65.9254C52.0083 48.3111 58.7663 28.6589 58.7663 28.6589C83.3685 53.3308 117.213 65.0807 117.213 65.0807L131.993 70.6158C152.682 78.3708 150.392 90.1654 150.392 90.1654C150.392 90.1654 141.462 89.0491 133.871 95.9702C133.871 95.9702 135.619 93.5673 137.115 91.5346C137.916 90.459 140.335 85.685 135.238 81.3607C135.238 81.3607 137.622 87.7247 133.382 87.7377C129.139 87.7496 121.724 82.8443 119.269 80.124C115.003 75.3848 103.618 68.5691 95.6617 70.7362C95.6617 70.7362 112.2 78.6176 105.947 81.6443C105.016 82.098 94.0667 81.7687 93.3811 98.6438C92.8787 111.071 106.581 114.652 106.581 114.652C106.581 114.652 106.348 115.091 106.027 115.894C103.31 117.256 99.2297 118.312 93.3592 117.635C93.3592 117.635 98.1312 122.745 104.157 124.527C104.107 125.341 104.087 126.157 104.098 126.973C101.385 128.38 97.2556 129.494 91.2638 128.802C91.2638 128.802 98.0387 136.057 105.637 136.291C105.711 136.52 105.793 136.75 105.868 136.979C103.194 138.582 98.8387 140.041 92.1941 139.272C92.1941 139.272 99.1949 146.772 106.943 146.772C107.349 146.772 107.712 146.727 108.048 146.663C97.0765 152.006 97.0765 172.247 97.0765 172.247ZM120.886 91.9793C122.044 93.0036 123.145 94.0904 124.185 95.2349C123.884 95.4725 123.529 95.6318 123.151 95.6986C121.952 95.9076 120.407 94.8937 120.217 93.7942C120.097 93.1086 120.371 92.439 120.886 91.9793ZM105.948 96.9205C105.12 92.1773 107.388 87.6213 111.286 85.293C111.818 85.5706 113.082 86.2581 114.73 87.3228C111.614 88.7028 110.046 91.6579 110.635 95.034C111.351 99.1273 115.612 101.805 120.153 101.014C122.863 100.541 124.819 99.1094 125.816 97.1672C126.383 97.8916 126.927 98.6458 127.435 99.4298C125.979 102.813 122.905 105.423 119.004 106.105C112.862 107.173 107.017 103.063 105.948 96.9205ZM152.308 122.277C153.209 123.915 153.612 125.851 153.717 127.798C152.407 127.695 151.094 127.66 149.781 127.694C149.792 125.585 149.499 123.485 148.913 121.459C148.959 121.467 149.004 121.469 149.053 121.477C150.248 121.659 151.327 121.937 152.308 122.277ZM145.99 121.247C147.034 123.076 147.463 125.415 147.553 127.804C146.061 127.913 144.575 128.085 143.098 128.321C142.992 126.135 142.533 123.981 141.738 121.942C142.951 121.521 144.356 121.262 145.99 121.247ZM139.449 123.036C140.24 124.731 140.672 126.717 140.87 128.714C138.807 129.118 136.764 129.616 134.747 130.207C134.818 129.065 135.904 125.309 139.449 123.036ZM141.013 131.399C141.031 133.168 140.938 134.937 140.736 136.694C137.99 136.162 136.179 134.662 135.32 132.914C137.19 132.31 139.09 131.804 141.013 131.399ZM143.036 131.018C144.522 130.769 146.019 130.593 147.522 130.492C147.397 132.787 147.045 134.951 146.721 136.553C145.31 136.79 143.899 136.932 142.62 136.897C142.243 136.885 141.884 136.857 141.534 136.816C142.341 134.976 142.849 133.018 143.036 131.018ZM149.591 130.404C151.09 130.384 152.45 130.447 153.684 130.565C153.576 132.053 153.363 133.532 153.048 134.99C151.322 135.537 149.569 135.993 147.795 136.356C148.708 134.481 149.314 132.471 149.591 130.404ZM155.833 130.847C157.835 131.177 159.374 131.638 160.435 132.025L155.699 134.086C155.699 134.086 155.267 134.252 154.542 134.5C155.116 133.338 155.549 132.111 155.833 130.847ZM155.732 123.943C157.711 125.254 159.319 127.052 160.402 129.163C159.03 128.681 157.618 128.323 156.183 128.093C156.23 126.695 156.078 125.298 155.732 123.943ZM167.783 134.195C167.783 134.195 165.083 122.548 149.968 117.431C133.918 112.004 129.82 127.98 129.693 130.664C129.47 135.353 133.263 140.487 140.854 140.711C148.447 140.937 159.386 136.472 159.386 136.472L159.162 136.917C156.705 139.821 148.223 144.732 141.524 145.623C134.826 146.517 119.42 149.864 115.176 134.346C109.218 112.56 131.439 111.648 131.439 111.648C131.439 111.648 130.961 107.987 137.119 100.995C143.277 94.0011 158.297 93.5017 165.762 107.06C173.228 120.619 169.256 131.69 167.783 134.195Z" fill="white"/>
<path fill-rule="evenodd" clip-rule="evenodd" d="M158.756 90.3694C158.756 90.3694 161.046 73.4645 130.333 62.3136C123.535 59.846 117.365 57.4033 111.741 55.1367C98.0337 49.2036 71.0585 35.2189 59.4757 13.0664C59.4757 13.0664 47.4214 35.3921 52.4839 52.291C52.4839 52.291 50.1328 49.511 46.6732 45.4315C46.6732 45.4315 44.5698 61.4042 48.4751 70.1641C48.4751 70.1641 31.7234 82.0652 29.7822 87.6392C34.2069 88.8361 34.0815 88.5247 35.1472 89.066C35.1472 89.066 26.0977 100.243 22.9316 109.493C22.9316 109.493 26.4479 109.155 30.5443 109.106C30.3433 112.98 29.9643 130.627 37.364 136.699L105.677 187.933C105.677 187.933 99.1302 152.069 117.917 149.807C120.502 150.285 123.251 151.72 133.213 151.822C153.793 152.43 164.683 141.365 164.683 141.365L173.222 139.505C173.222 139.505 175.422 136.443 176.798 127.037C179.739 100.336 158.756 90.3694 158.756 90.3694ZM97.0765 172.247L44.3857 133.474C33.8756 124.136 37.8645 105.445 37.8645 105.445L30.8408 105.377C32.5403 101.071 43.9379 87.8889 43.9379 87.8889C42.1818 87.2034 38.7709 86.1914 38.7709 86.1914C39.8883 84.8621 50.4422 75.8763 50.4422 75.8763C57.5932 83.8383 61.4637 84.2323 61.4637 84.2323C64.9343 86.4133 81.6343 88.4759 81.6343 88.4759C52.47 80.9687 52.6889 60.7077 52.6889 60.7077C56.6848 65.7891 63.006 65.9254 63.006 65.9254C52.0083 48.3111 58.7663 28.6589 58.7663 28.6589C83.3685 53.3308 117.213 65.0807 117.213 65.0807L131.993 70.6158C152.682 78.3708 150.392 90.1654 150.392 90.1654C150.392 90.1654 141.462 89.0491 133.871 95.9702C133.871 95.9702 135.619 93.5673 137.115 91.5346C137.916 90.459 140.335 85.685 135.238 81.3607C135.238 81.3607 137.622 87.7247 133.382 87.7377C129.139 87.7496 121.724 82.8443 119.269 80.124C115.003 75.3848 103.618 68.5691 95.6617 70.7362C95.6617 70.7362 112.2 78.6176 105.947 81.6443C105.016 82.098 94.0667 81.7687 93.3811 98.6438C92.8787 111.071 106.581 114.652 106.581 114.652C106.581 114.652 106.348 115.091 106.027 115.894C103.31 117.256 99.2297 118.312 93.3592 117.635C93.3592 117.635 98.1312 122.745 104.157 124.527C104.107 125.341 104.087 126.157 104.098 126.973C101.385 128.38 97.2556 129.494 91.2638 128.802C91.2638 128.802 98.0387 136.057 105.637 136.291C105.711 136.52 105.793 136.75 105.868 136.979C103.194 138.582 98.8387 140.041 92.1941 139.272C92.1941 139.272 99.1949 146.772 106.943 146.772C107.349 146.772 107.712 146.727 108.048 146.663C97.0765 152.006 97.0765 172.247 97.0765 172.247ZM120.886 91.9793C122.044 93.0036 123.145 94.0904 124.185 95.2349C123.884 95.4725 123.529 95.6318 123.151 95.6986C121.952 95.9076 120.407 94.8937 120.217 93.7942C120.097 93.1086 120.371 92.439 120.886 91.9793ZM105.948 96.9205C105.12 92.1773 107.388 87.6213 111.286 85.293C111.818 85.5706 113.082 86.2581 114.73 87.3228C111.614 88.7028 110.046 91.6579 110.635 95.034C111.351 99.1273 115.612 101.805 120.153 101.014C122.863 100.541 124.819 99.1094 125.816 97.1672C126.383 97.8916 126.927 98.6458 127.435 99.4298C125.979 102.813 122.905 105.423 119.004 106.105C112.862 107.173 107.017 103.063 105.948 96.9205ZM152.308 122.277C153.209 123.915 153.612 125.851 153.717 127.798C152.407 127.695 151.094 127.66 149.781 127.694C149.792 125.585 149.499 123.485 148.913 121.459C148.959 121.467 149.004 121.469 149.053 121.477C150.248 121.659 151.327 121.937 152.308 122.277ZM145.99 121.247C147.034 123.076 147.463 125.415 147.553 127.804C146.061 127.913 144.575 128.085 143.098 128.321C142.992 126.135 142.533 123.981 141.738 121.942C142.951 121.521 144.356 121.262 145.99 121.247ZM139.449 123.036C140.24 124.731 140.672 126.717 140.87 128.714C138.807 129.118 136.764 129.616 134.747 130.207C134.818 129.065 135.904 125.309 139.449 123.036ZM141.013 131.399C141.031 133.168 140.938 134.937 140.736 136.694C137.99 136.162 136.179 134.662 135.32 132.914C137.19 132.31 139.09 131.804 141.013 131.399ZM143.036 131.018C144.522 130.769 146.019 130.593 147.522 130.492C147.397 132.787 147.045 134.951 146.721 136.553C145.31 136.79 143.899 136.932 142.62 136.897C142.243 136.885 141.884 136.857 141.534 136.816C142.341 134.976 142.849 133.018 143.036 131.018ZM149.591 130.404C151.09 130.384 152.45 130.447 153.684 130.565C153.576 132.053 153.363 133.532 153.048 134.99C151.322 135.537 149.569 135.993 147.795 136.356C148.708 134.481 149.314 132.471 149.591 130.404ZM155.833 130.847C157.835 131.177 159.374 131.638 160.435 132.025L155.699 134.086C155.699 134.086 155.267 134.252 154.542 134.5C155.116 133.338 155.549 132.111 155.833 130.847ZM155.732 123.943C157.711 125.254 159.319 127.052 160.402 129.163C159.03 128.681 157.618 128.323 156.183 128.093C156.23 126.695 156.078 125.298 155.732 123.943ZM167.783 134.195C167.783 134.195 165.083 122.548 149.968 117.431C133.918 112.004 129.82 127.98 129.693 130.664C129.47 135.353 133.263 140.487 140.854 140.711C148.447 140.937 159.386 136.472 159.386 136.472L159.162 136.917C156.705 139.821 148.223 144.732 141.524 145.623C134.826 146.517 119.42 149.864 115.176 134.346C109.218 112.56 131.439 111.648 131.439 111.648C131.439 111.648 130.961 107.987 137.119 100.995C143.277 94.0011 158.297 93.5017 165.762 107.06C173.228 120.619 169.256 131.69 167.783 134.195Z" stroke="white" stroke-width="8" mask="url(#path-3-outside-1_15016_302143)"/>
<path fill-rule="evenodd" clip-rule="evenodd" d="M165.757 107.06C158.292 93.5025 143.272 94.001 137.114 100.995C130.956 107.987 131.433 111.648 131.433 111.648C131.433 111.648 109.213 112.56 115.171 134.346C119.416 149.864 134.82 146.517 141.519 145.623C148.217 144.732 156.7 139.82 159.157 136.917L159.381 136.472C159.381 136.472 148.442 140.936 140.849 140.711C133.258 140.487 129.465 135.353 129.688 130.664C129.814 127.98 133.913 112.003 149.963 117.431C165.078 122.548 167.777 134.195 167.777 134.195C169.251 131.69 173.223 120.619 165.757 107.06Z" fill="#E7BC39"/>
<path fill-rule="evenodd" clip-rule="evenodd" d="M131.986 70.618L117.206 65.0828C117.206 65.0828 83.3616 53.3319 58.7604 28.6601C58.7604 28.6601 52.0024 48.3122 63.0001 65.9266C63.0001 65.9266 56.6789 65.7903 52.683 60.7088C52.683 60.7088 52.4651 80.9699 81.6284 88.4771C81.6284 88.4771 64.9284 86.4145 61.4579 84.2335C61.4579 84.2335 57.5873 83.8394 50.4363 75.8775C50.4363 75.8775 39.8824 84.8623 38.7651 86.1926C38.7651 86.1926 42.1759 87.2045 43.9321 87.8901C43.9321 87.8901 32.5334 101.072 30.835 105.378L37.8586 105.446C37.8586 105.446 33.8697 124.137 44.3798 133.475L97.0707 172.249C97.0707 172.249 97.0707 152.006 108.044 146.666C107.68 146.737 107.31 146.774 106.939 146.775C99.191 146.775 92.1902 139.275 92.1902 139.275C98.8348 140.045 103.19 138.586 105.864 136.982C105.789 136.753 105.707 136.523 105.634 136.294C98.0348 136.06 91.2599 128.805 91.2599 128.805C97.2517 129.497 101.382 128.383 104.094 126.976C104.082 126.126 104.104 125.313 104.153 124.53C98.1273 122.748 93.3554 117.638 93.3554 117.638C99.2258 118.315 103.305 117.259 106.023 115.897C106.343 115.094 106.577 114.655 106.577 114.655C106.577 114.655 92.8748 111.073 93.3772 98.6469C94.0628 81.7718 105.012 82.1012 105.943 81.6475C112.197 78.6207 95.6578 70.7394 95.6578 70.7394C103.613 68.5723 114.998 75.387 119.265 80.1271C121.72 82.8474 129.135 87.7527 133.378 87.7408C137.619 87.7279 135.234 81.3639 135.234 81.3639C140.331 85.6871 137.911 90.4621 137.111 91.5377C135.615 93.5695 133.867 95.9734 133.867 95.9734C141.458 89.0512 150.388 90.1686 150.388 90.1686C150.388 90.1686 152.675 78.3729 131.986 70.618Z" fill="#C93134"/>
<path fill-rule="evenodd" clip-rule="evenodd" d="M158.75 90.3694C158.75 90.3694 161.04 73.4645 130.327 62.3136C123.53 59.846 117.36 57.4033 111.735 55.1367C98.0279 49.2036 71.0526 35.2189 59.4699 13.0664C59.4699 13.0664 47.4156 35.3921 52.4781 52.291C52.4781 52.291 50.1269 49.511 46.6673 45.4315C46.6673 45.4315 44.5639 61.4042 48.4692 70.1641C48.4692 70.1641 31.7175 82.0652 29.7763 87.6392C34.201 88.8361 34.0757 88.5247 35.1413 89.066C35.1413 89.066 26.0918 100.243 22.9258 109.493C22.9258 109.493 26.4421 109.155 30.5385 109.106C30.3375 112.98 29.9584 130.627 37.3582 136.699L105.671 187.933C105.671 187.933 99.1244 152.069 117.911 149.807C120.496 150.285 123.245 151.72 133.207 151.822C153.787 152.43 164.677 141.365 164.677 141.365L173.217 139.505C173.217 139.505 175.416 136.443 176.793 127.037C179.733 100.336 158.75 90.3694 158.75 90.3694ZM97.0707 172.247L44.3798 133.474C33.8697 124.136 37.8586 105.445 37.8586 105.445L30.835 105.377C32.5344 101.071 43.9321 87.8889 43.9321 87.8889C42.1759 87.2034 38.7651 86.1914 38.7651 86.1914C39.8825 84.8621 50.4363 75.8763 50.4363 75.8763C57.5874 83.8383 61.4579 84.2323 61.4579 84.2323C64.9284 86.4133 81.6284 88.4759 81.6284 88.4759C52.4641 80.9687 52.683 60.7077 52.683 60.7077C56.6789 65.7891 63.0001 65.9254 63.0001 65.9254C52.0025 48.3111 58.7605 28.6589 58.7605 28.6589C83.3627 53.3308 117.207 65.0807 117.207 65.0807L131.987 70.6158C152.676 78.3708 150.386 90.1654 150.386 90.1654C150.386 90.1654 141.456 89.0491 133.866 95.9702C133.866 95.9702 135.613 93.5673 137.109 91.5346C137.91 90.459 140.329 85.685 135.232 81.3607C135.232 81.3607 137.616 87.7247 133.376 87.7377C129.133 87.7496 121.718 82.8443 119.263 80.124C114.997 75.3848 103.612 68.5691 95.6558 70.7362C95.6558 70.7362 112.195 78.6176 105.941 81.6443C105.01 82.098 94.0608 81.7687 93.3753 98.6438C92.8728 111.071 106.575 114.652 106.575 114.652C106.575 114.652 106.342 115.091 106.021 115.894C103.304 117.256 99.2238 118.312 93.3534 117.635C93.3534 117.635 98.1254 122.745 104.151 124.527C104.101 125.341 104.081 126.157 104.092 126.973C101.379 128.38 97.2498 129.494 91.2579 128.802C91.2579 128.802 98.0328 136.057 105.632 136.291C105.705 136.52 105.787 136.75 105.862 136.979C103.188 138.582 98.8328 140.041 92.1883 139.272C92.1883 139.272 99.189 146.772 106.937 146.772C107.343 146.772 107.706 146.727 108.042 146.663C97.0707 152.006 97.0707 172.247 97.0707 172.247ZM120.88 91.9793C122.038 93.0036 123.14 94.0904 124.179 95.2349C123.878 95.4725 123.523 95.6318 123.145 95.6986C121.947 95.9076 120.401 94.8937 120.211 93.7942C120.091 93.1086 120.365 92.439 120.88 91.9793ZM105.942 96.9205C105.114 92.1773 107.382 87.6213 111.28 85.293C111.812 85.5706 113.076 86.2581 114.724 87.3228C111.609 88.7028 110.04 91.6579 110.629 95.034C111.345 99.1273 115.606 101.805 120.148 101.014C122.857 100.541 124.813 99.1094 125.81 97.1672C126.377 97.8916 126.921 98.6458 127.429 99.4298C125.973 102.813 122.899 105.423 118.998 106.105C112.856 107.173 107.011 103.063 105.942 96.9205ZM152.302 122.277C153.203 123.915 153.606 125.851 153.711 127.798C152.402 127.695 151.088 127.66 149.775 127.694C149.786 125.585 149.493 123.485 148.907 121.459C148.954 121.467 148.998 121.469 149.047 121.477C150.242 121.659 151.321 121.937 152.302 122.277ZM145.985 121.247C147.028 123.076 147.457 125.415 147.547 127.804C146.055 127.913 144.569 128.085 143.092 128.321C142.986 126.135 142.527 123.981 141.732 121.942C142.945 121.521 144.35 121.262 145.985 121.247ZM139.443 123.036C140.234 124.731 140.666 126.717 140.864 128.714C138.802 129.118 136.758 129.616 134.741 130.207C134.812 129.065 135.898 125.309 139.443 123.036ZM141.008 131.399C141.025 133.168 140.932 134.937 140.73 136.694C137.984 136.162 136.173 134.662 135.314 132.914C137.184 132.31 139.085 131.804 141.008 131.399ZM143.03 131.018C144.516 130.769 146.013 130.593 147.516 130.492C147.391 132.787 147.039 134.951 146.715 136.553C145.304 136.79 143.893 136.932 142.615 136.897C142.237 136.885 141.878 136.857 141.528 136.816C142.336 134.976 142.843 133.018 143.03 131.018ZM149.585 130.404C151.084 130.384 152.444 130.447 153.678 130.565C153.57 132.053 153.357 133.532 153.042 134.99C151.316 135.537 149.563 135.993 147.789 136.356C148.702 134.481 149.308 132.471 149.585 130.404ZM155.827 130.847C157.829 131.177 159.368 131.638 160.429 132.025L155.693 134.086C155.693 134.086 155.261 134.252 154.537 134.5C155.11 133.338 155.543 132.111 155.827 130.847ZM155.727 123.943C157.705 125.254 159.313 127.052 160.396 129.163C159.025 128.681 157.613 128.323 156.177 128.093C156.224 126.695 156.072 125.298 155.727 123.943ZM167.777 134.195C167.777 134.195 165.077 122.548 149.963 117.431C133.912 112.004 129.814 127.98 129.688 130.664C129.464 135.353 133.258 140.487 140.848 140.711C148.441 140.937 159.38 136.472 159.38 136.472L159.156 136.917C156.7 139.821 148.217 144.732 141.518 145.623C134.82 146.517 119.414 149.864 115.171 134.346C109.213 112.56 131.433 111.648 131.433 111.648C131.433 111.648 130.955 107.987 137.113 100.995C143.271 94.0011 158.292 93.5017 165.756 107.06C173.222 120.619 169.25 131.69 167.777 134.195Z" fill="black"/>
</svg>
