<svg width="200" height="200" viewBox="0 0 200 200" fill="none" xmlns="http://www.w3.org/2000/svg">
<path d="M3.54516 68.9408V69.5762V130.423V131.058H4.18056H59.0421H59.6775V130.423V118.102V117.467H59.0421H25.8462V69.5755V68.9401H25.2109H4.1798H3.54443L3.54516 68.9408ZM81.1502 68.9428C70.7857 68.9428 62.3537 75.3012 62.3537 83.1172V106.162V106.797H62.9891H106.396V112.779C106.396 115.322 103.49 117.39 99.9167 117.39H62.989H62.3536V118.026V130.425V131.06H62.989H109.831C120.238 131.06 128.703 124.701 128.703 116.886V93.762V93.1267H128.067H84.6609V87.2232C84.6609 84.7225 87.5911 82.6106 91.0625 82.6106H128.067H128.703V81.9752V69.5774V68.942H128.067H81.149L81.1502 68.9428ZM175.351 68.9428V69.5782V112.779C175.351 115.365 172.444 117.468 168.872 117.468H153.463V69.7292V69.0939H152.827H132.016H131.38V69.7292V130.425V131.06H132.016H178.787C189.153 131.06 197.586 124.702 197.586 116.886V69.578V68.9426H196.951H175.986L175.351 68.9428Z" fill="#461D7C"/>
<path fill-rule="evenodd" clip-rule="evenodd" d="M130.576 131.865H178.787C184.129 131.865 189.002 130.228 192.558 127.547C196.114 124.866 198.391 121.103 198.391 116.886V68.138L174.546 68.1386V112.779C174.546 113.749 174.003 114.701 172.979 115.441C171.957 116.181 170.507 116.663 168.872 116.663H154.268V68.2893H130.576V131.865ZM132.185 130.256V69.8985H152.658V118.272H168.872C170.809 118.272 172.598 117.703 173.923 116.745C175.246 115.788 176.155 114.396 176.155 112.779V69.7473H196.782V116.886C196.782 120.485 194.842 123.81 191.589 126.262C188.337 128.714 183.811 130.256 178.787 130.256H132.185ZM61.5491 131.865H109.831C115.193 131.865 120.084 130.228 123.653 127.547C127.222 124.867 129.507 121.104 129.507 116.886V92.3221H85.4656V87.2233C85.4656 86.3061 86.005 85.3709 87.0304 84.632C88.0501 83.8972 89.4832 83.4152 91.0626 83.4152H129.507V68.1375H78.4917L78.6712 68.2572C74.3108 68.6784 70.3778 70.1968 67.381 72.4567C63.8255 75.1378 61.5492 78.9003 61.5492 83.1173V107.602H105.591V112.779C105.591 113.721 105.054 114.654 104.03 115.383C103.007 116.11 101.555 116.586 99.9168 116.586H61.5491V131.865ZM83.8066 69.7467H127.898V81.806H91.0626C89.1706 81.806 87.4029 82.3801 86.0896 83.3264C84.782 84.2687 83.8564 85.6398 83.8564 87.2233V93.9314H127.898V116.886C127.898 120.483 125.952 123.808 122.686 126.26C119.421 128.713 114.877 130.255 109.831 130.255H63.1584V118.195H99.9168C101.852 118.195 103.639 117.636 104.963 116.694C106.285 115.753 107.2 114.38 107.2 112.779V105.993H63.1585V83.1173C63.1585 79.5182 65.0982 76.1936 68.3499 73.7415C71.6016 71.2894 76.1269 69.7475 81.1503 69.7475H83.8078L83.8066 69.7467ZM2.74067 131.863H60.4822V116.662H26.651V68.1356H1.60205L2.74067 69.2742V131.863ZM4.3499 69.7448H25.0417V118.272H58.873V130.254H4.3499V69.7448Z" fill="#FDD023"/>
</svg>
