<svg width="201" height="201" viewBox="0 0 201 201" fill="none" xmlns="http://www.w3.org/2000/svg">
<g clip-path="url(#clip0_15016_302776)">
<path d="M97.8866 34.7034L97.851 39.5946H98.6037C100.288 39.5946 101.169 39.9673 101.738 40.9252C102.02 41.4026 101.998 41.7952 101.961 42.4464C101.948 42.6809 101.934 42.929 101.935 43.1688C101.841 45.761 101.768 48.0024 101.697 50.113C101.543 54.7949 101.411 58.8402 101.135 64.6035C101.102 65.3573 100.844 65.9509 100.387 66.399C100.556 66.7329 101.513 67.9526 102.409 69.0676H101.828C99.703 69.0676 98.9524 67.2574 97.9683 64.2727L97.8615 63.9513C97.2898 62.2228 96.825 60.8105 96.3769 59.4453C95.7645 57.5786 95.1793 55.801 94.3899 53.4339C93.7554 51.5264 92.8289 48.4976 91.9317 45.5673C90.5152 40.9378 89.1762 36.5658 88.5857 35.1818L88.391 34.7254H77.503L76.5765 37.0485C74.1979 43.0233 72.6275 46.9691 69.8552 53.3742C68.9758 55.4157 68.3225 57.0615 67.6902 58.6538C67.062 60.2347 66.4119 61.871 65.5429 63.8905L65.4676 64.0664C64.7473 65.7384 64.1516 67.0177 63.3842 67.8699C63.3622 68.5148 63.2376 73.6866 63.2753 74.0593L78.3699 74.0876L78.3227 73.294C78.2746 72.4711 78.2924 71.8817 78.3123 71.2002C78.3248 70.7971 78.3374 70.3731 78.3374 69.8674V69.2257L77.703 69.1273C77.2999 69.0655 76.9282 69.0487 76.5723 69.033C75.9441 69.0037 75.4489 68.9817 74.892 68.6813C74.2198 68.3222 73.9204 67.7966 73.9204 66.9758C73.9204 66.0765 74.1811 65.4745 74.5109 64.7145C74.6795 64.3261 74.87 63.8864 75.0385 63.3692L75.3233 62.4814C75.5997 61.6103 75.8112 60.9476 76.1797 60.0975H86.9065C87.6414 62.7473 88.0214 64.1617 88.7428 67.4009C88.8098 67.7003 88.7407 67.8563 88.6716 67.961C88.2245 68.6383 86.4584 68.9681 85.289 69.1859L85.0241 69.2372L85.0932 69.9815L84.9519 69.9836L84.4137 69.9962V70.0004C84.4169 70.126 84.419 71.5069 84.42 72.4439C84.4221 73.5505 84.4242 74.0551 85.1707 74.0551H102.581L102.575 73.3003C102.568 72.4125 102.571 71.8011 102.573 71.1038L102.575 69.2759C103.367 70.259 104.07 71.108 104.07 71.108C104.069 71.4629 104.068 71.7948 104.068 72.1529H114.077V67.1821L112.884 67.1842C111.764 67.1999 111.198 67.1999 110.476 66.5728C109.837 66.0158 109.816 65.3594 109.827 64.1502V63.766C109.921 61.2293 109.994 59.0297 110.057 56.961C110.214 52.2802 110.35 48.238 110.633 42.4778C110.706 40.5996 112.591 39.8029 114.308 39.8438L115.072 39.8657L115.093 34.7055L97.8887 34.7034H97.8866ZM117.071 34.7358L117.061 39.7904H117.815C119.72 39.7904 121.27 41.4005 121.27 43.3604L121.154 47.6507C121.06 50.8846 120.987 53.6024 120.851 57.5252L120.84 57.6477C120.736 60.7864 120.662 62.6803 120.432 65.8923C120.39 66.5058 120.244 68.3745 116.684 68.877L116.035 68.9671V74.0143H132.022L132.199 73.9117C132.639 73.6552 132.639 73.6552 132.597 69.857L132.587 69.1723L131.749 69.1042C130.985 69.0477 130.043 68.9775 129.331 68.4007C128.2 67.492 128.211 67.1486 128.221 66.1278L129.059 44.579H129.268L143.475 74.0185H152.73L152.761 73.2982C152.939 68.4782 153.054 64.7888 153.159 61.3141C153.316 56.3045 153.463 51.5735 153.787 44.4973C153.86 42.7458 155.138 40.8614 157.744 40.8614H157.755L158.352 40.8635L158.488 40.2772C158.498 40.2353 158.729 35.4331 158.257 34.9724L158.038 34.7599H142.02L142.072 35.5535C142.124 36.3994 142.103 37.0014 142.093 37.6986C142.082 38.0839 142.072 38.4911 142.072 38.9727V39.6166L142.711 39.7129C142.889 39.7412 143.067 39.7642 143.245 39.7883C144.208 39.916 144.909 40.0081 145.548 40.6488C146.145 41.2425 146.165 41.8874 146.165 43.0463C146.113 44.891 146.082 46.4656 146.05 47.9511C145.987 50.8783 145.946 53.4046 145.747 56.9976C145.747 57.0751 145.736 57.1494 145.726 57.2185L135.047 34.7358H117.071ZM4.52827 34.7505L4.50733 40.6803H5.25797C7.32564 40.6803 9.46451 41.9125 9.46451 43.9739V50.3622C9.46451 56.9578 9.18079 61.3486 8.8217 66.9088C8.69397 68.8927 8.55787 71.0054 8.42387 73.3987C8.28777 75.9678 5.90392 77.2137 3.71795 77.5225L2.92961 77.5592L3.08037 78.3328C3.09922 78.6365 3.09712 81.7804 3.0699 82.2944L2.81445 83.1822H23.4032L23.8534 83.1403L24.0492 82.7561C24.2408 82.3803 24.3706 78.3998 24.0209 77.8638L23.7718 77.4922L23.4524 77.511C23.0075 77.4021 22.6044 77.3435 22.2464 77.2922C21.5544 77.1927 21.0089 77.1163 20.3954 76.7216C19.0323 75.8464 18.7832 74.5357 18.7821 72.2963L19.7966 46.9084C19.8626 46.9063 19.9275 46.9042 19.9924 46.9C20.1023 46.8948 20.207 46.8896 20.3117 46.8864L29.1823 83.1822H39.8295L51.5519 47.4319C51.6775 47.4434 51.8042 47.4528 51.9382 47.458C51.8345 50.2575 51.7487 52.7356 51.666 55.0775C51.4587 61.0408 51.2797 66.1917 50.9258 73.5337C50.7991 76.1196 48.0593 77.5142 45.5467 77.5142H44.7982V78.2627C44.7982 78.8542 44.7814 79.3484 44.7668 79.8195C44.7416 80.6403 44.7176 81.4139 44.7814 82.4787L44.8243 83.1822H67.4442L67.397 82.3907C67.3374 81.3626 67.3604 80.6298 67.3866 79.7818H67.3845C67.3991 79.2835 67.4148 78.7579 67.4148 78.1318V77.4754L66.7647 77.3917C66.3637 77.3393 65.9868 77.31 65.6278 77.2838C64.5976 77.2085 63.8543 77.1551 63.1109 76.5206C61.9373 75.5177 61.9384 74.2991 61.9394 72.4554V72.3581C62.0598 69.0152 62.1551 66.1215 62.2462 63.3995C62.4472 57.3033 62.621 52.0373 62.9822 44.5287C63.1141 41.5743 66.6778 40.7577 68.2042 40.5431L68.8502 40.451V34.7505H45.5237L35.5905 65.2945L28.1416 34.7505H4.52827ZM199.066 34.7505L160.341 34.7599L160.32 40.6059L161.482 40.7494C163.126 40.9441 164.078 41.1064 164.696 42.1564C165.24 43.0735 165.24 43.8147 165.24 45.0135C165.125 48.1982 165.031 50.9705 164.937 53.5783C164.738 59.6306 164.56 64.8589 164.204 72.2942L164.183 72.8449C164.131 74.2509 164.099 75.2664 163.167 76.0736C162.121 76.9792 161.199 77.2336 159.545 77.4639L159.022 77.5372L158.917 78.0585C158.907 78.0826 158.865 82.3834 158.907 82.5708L159.043 83.1508H198.02L198.69 64.9123L192.429 64.9144L192.377 65.6075C192.22 67.7809 191.215 73.7735 188.461 75.4433C186.849 76.4526 184.399 76.6641 182.64 76.6641H178.118C177.008 76.6641 176.003 76.1877 175.071 75.2057C174.726 74.8518 174.746 74.4885 174.883 73.6112C174.945 73.2291 175.019 72.7946 175.019 72.3518L175.385 60.4085L177.343 60.4043H177.353C178.149 60.4043 178.767 60.6398 179.259 61.1256C180.243 62.115 180.724 64.1523 180.724 67.358V68.1086H186.723L187.697 46.1106H182.148V46.8592C182.148 49.5027 181.656 53.9364 178.369 53.9448L175.689 53.9531C175.72 52.9565 175.752 52.0634 175.772 51.2123C175.835 49.0975 175.888 47.2706 176.045 44.6942C176.17 42.7123 177.845 41.2173 179.96 41.2173H184.2C187.341 41.2173 189.079 41.2257 191.058 42.6945C192.67 43.8922 193.005 47.3125 192.774 50.113L192.764 51.0019H198.637L199.066 34.7505ZM82.6078 42.9646L85.38 54.1144H77.9867L82.6078 42.9646Z" fill="white"/>
<path d="M96.2199 33.1141L96.2419 41.1032H98.4792C99.9689 41.1032 100.161 41.4246 100.326 41.702C100.364 41.767 100.374 41.8319 100.344 42.3773C100.328 42.638 100.314 42.9123 100.315 43.128C100.222 45.7128 100.15 47.9501 100.08 50.0554C99.9292 54.6473 99.7951 58.635 99.5303 64.2214C99.4821 64.08 99.4392 63.9554 99.3889 63.8026L99.2832 63.4812C98.7116 61.7548 98.2467 60.3436 97.7987 58.9784C97.1841 57.1107 96.601 55.3319 95.8106 52.9628C95.1824 51.072 94.2559 48.0516 93.3608 45.1297C91.9317 40.4614 90.5822 36.0518 89.9614 34.5945L89.3793 33.2283H76.4885L75.1862 36.4967C72.8128 42.4579 71.2456 46.3954 68.4817 52.7816C67.5939 54.843 66.9364 56.4982 66.2999 58.1C65.6749 59.6725 65.0289 61.2973 64.1694 63.2959L64.093 63.4718C63.87 63.9889 63.6721 64.4234 63.4837 64.8254C63.4994 64.37 63.5161 63.9115 63.5308 63.4665C63.7328 57.3703 63.9066 52.1053 64.2668 44.5947C64.3495 42.7626 67.0463 42.1847 68.2032 42.0235L70.1358 41.7513V33.2534H44.2287L35.5874 59.8232L29.1048 33.2534H2.82809L2.79458 42.1742H5.04861C6.35203 42.1742 7.76014 42.8641 7.76014 43.9739V50.3622C7.76014 56.9117 7.47538 61.2837 7.11733 66.8177C6.98961 68.8037 6.85455 70.9185 6.7195 73.3202C6.60643 75.4653 3.85093 75.9616 3.30025 76.039L0.950953 76.3709L1.38019 78.5276C1.39171 79.1473 1.38857 81.3459 1.37182 82.0526L0.605469 84.6782H23.1572L24.5863 84.5903L25.1747 83.4355C25.5547 82.6912 25.7725 78.1297 25.0647 77.0451L24.3434 75.9469L23.3719 76.0024C22.9468 75.9103 22.5678 75.8558 22.2496 75.8108C21.5984 75.7176 21.323 75.6705 20.9953 75.4611C20.3567 75.0497 20.072 74.4917 20.0699 72.3549L20.7315 55.7643L27.7982 84.6782H40.7037L43.0906 77.3969V78.2617C43.0906 78.8354 43.076 79.3169 43.0613 79.7734C43.0352 80.6287 43.01 81.4359 43.0781 82.5687L43.2048 84.6782H68.8198L68.6806 82.3028C68.6251 81.3396 68.6471 80.6392 68.6701 79.8258C68.6858 79.3138 68.7015 78.7736 68.7015 78.1308V76.1615L66.748 75.9061C66.3177 75.8495 65.9115 75.8181 65.5252 75.7899C64.7463 75.7333 64.3945 75.6936 64.1275 75.5564L79.956 75.5857L79.8167 73.205C79.7717 72.447 79.7884 71.8901 79.8083 71.2441C79.8199 70.8274 79.8324 70.3888 79.8324 69.8664V67.94L77.9291 67.6479C77.436 67.5715 76.9953 67.5527 76.6414 67.537C76.0593 67.5108 75.8436 67.494 75.5966 67.3611C75.4469 67.2815 75.4165 67.2627 75.4165 66.9727C75.4165 66.4073 75.5589 66.0545 75.8824 65.3081C76.0635 64.8903 76.2708 64.4171 76.4613 63.834L76.7492 62.9326C76.9052 62.4416 77.0403 62.0218 77.1952 61.5936H85.7664C86.2752 63.4456 86.6259 64.8076 87.1651 67.202C86.584 67.4218 85.5622 67.6124 85.0126 67.715L84.7446 67.7662L84.9508 69.9826L85.0922 69.9805L85.0231 69.2361L85.2879 69.1848C86.4573 68.9671 88.2235 68.6373 88.6705 67.9599C88.7396 67.8552 88.8108 67.6992 88.7438 67.3998C88.0225 64.1606 87.6404 62.7462 86.9054 60.0975H76.1786C75.8101 60.9476 75.5987 61.6103 75.3223 62.4814L75.0375 63.3681C74.869 63.8853 74.6784 64.325 74.5099 64.7134C74.1801 65.4735 73.9194 66.0755 73.9194 66.9748C73.9194 67.7956 74.2188 68.3211 74.8909 68.6802C75.4479 68.9796 75.9452 69.0027 76.5733 69.032C76.9293 69.0477 77.2989 69.0644 77.7019 69.1262L78.3364 69.2246V69.8664C78.3364 70.372 78.3248 70.796 78.3112 71.1991C78.2913 71.8807 78.2736 72.4701 78.3217 73.2929L78.3688 74.0865L63.2743 74.0583C63.2366 73.6856 63.2261 73.2008 63.2251 72.5612V72.4523V72.4093C63.2565 71.5268 63.2868 70.6798 63.3151 69.8538C63.3392 69.1754 63.3612 68.5137 63.3832 67.8688C64.1506 67.0166 64.7463 65.7373 65.4665 64.0654L65.5419 63.8895C66.4109 61.871 67.061 60.2347 67.6892 58.6538C68.3215 57.0615 68.9748 55.4157 69.8542 53.3742C72.6264 46.9691 74.1989 43.0233 76.5775 37.0485L77.502 34.7254H88.39L88.5847 35.1818C89.1752 36.5658 90.5142 40.9378 91.9317 45.5673C92.8289 48.4976 93.7575 51.5264 94.392 53.4339C95.1814 55.801 95.7645 57.5786 96.3769 59.4453C96.825 60.8105 97.2899 62.2228 97.8615 63.9502L97.9683 64.2716C98.9524 67.2564 99.703 69.0665 101.828 69.0665H102.577L102.575 71.1028C102.574 71.8 102.571 72.4114 102.577 73.2992L102.583 74.0541H85.1696C84.4221 74.0541 84.4232 73.5494 84.4211 72.4429C84.42 71.5059 84.4179 70.125 84.4148 69.9993L82.9187 70.0192C82.9208 70.1805 82.9229 71.5278 82.925 72.4449C82.9261 73.294 82.9292 75.5501 85.1696 75.5501H104.09L104.076 73.6636H114.716V75.3973H134.21L134.283 67.6762L132.032 67.5003C131.414 67.4553 130.786 67.4092 130.441 67.1245C130.022 66.7905 129.907 66.6251 129.896 66.6251C129.886 66.534 129.886 66.2514 129.886 66.042L130.388 50.4051L142.711 75.4015H154.342L154.426 73.2417C154.562 69.6193 154.666 66.6335 154.761 63.9C154.991 57.654 155.169 52.7209 155.535 44.4523C155.567 43.9027 155.808 42.1072 157.922 42.1072L161.304 42.236C162.864 42.4213 163.178 42.5218 163.408 42.9175C163.733 43.4577 163.743 43.8315 163.743 44.958C163.628 48.1448 163.534 50.9181 163.45 53.527C163.241 59.5741 163.063 64.7961 162.707 72.222L162.686 72.7862C162.634 74.2027 162.581 74.5995 162.194 74.9387C161.43 75.5983 160.812 75.7763 159.336 75.9804L157.755 76.1992L157.451 77.7633C157.409 77.9528 157.347 82.4315 157.451 82.9058L157.86 84.6458H199.464L200.239 63.4152L191.037 63.4194L190.88 65.4965C190.67 68.4227 189.55 73.0333 187.76 74.119L187.665 74.1724C186.64 74.8131 184.86 75.1659 182.64 75.1659H178.118C177.709 75.1659 177.081 75.0759 176.296 74.32C176.306 74.1807 176.338 73.9944 176.369 73.8436C176.432 73.428 176.505 72.9098 176.505 72.3957L176.83 61.9003L177.343 61.8982C177.814 61.8742 178.055 62.0427 178.201 62.1851C178.578 62.5704 179.238 63.7523 179.238 67.3569V69.6025H188.158L189.257 44.6146H180.651V46.8571C180.651 48.1668 180.494 52.4424 178.369 52.4477L177.238 52.4519C177.249 52.0404 177.259 51.6436 177.27 51.2552C177.332 49.153 177.385 47.3366 177.542 44.7821C177.615 43.6022 178.651 42.7123 179.96 42.7123H184.158C187.435 42.7123 188.65 42.7699 190.168 43.8943C191.047 44.5486 191.518 47.1115 191.277 49.9874L191.267 52.4969H200.092L200.605 33.2534L140.606 33.1529L140.742 35.5294C140.795 36.3135 140.784 36.86 140.763 37.551C140.753 37.9478 140.742 38.3665 140.742 38.8617V40.7902L142.648 41.0802C142.847 41.1105 143.035 41.1357 143.224 41.1608C144.155 41.2843 144.396 41.3409 144.658 41.5974C144.804 41.7408 144.846 41.9261 144.846 42.8903C144.794 44.7266 144.752 46.2949 144.721 47.7752C144.7 48.9227 144.679 50.0094 144.647 51.1223L135.968 33.1654H115.742V33.1696L96.2199 33.1141ZM97.8866 34.7034L115.082 34.7076L115.072 39.8657L114.308 39.8459C112.591 39.805 110.706 40.5996 110.622 42.4778C110.35 48.238 110.214 52.2802 110.057 56.961C109.994 59.0297 109.921 61.2293 109.827 63.766V64.1502C109.816 65.3594 109.837 66.0179 110.476 66.5748C111.198 67.202 111.764 67.2009 112.884 67.1862L114.077 67.1821V72.1549V72.1529H104.07C104.07 71.7948 104.07 71.4629 104.072 71.108V67.5726H101.828C101.673 67.5726 101.535 67.5422 101.401 67.4972C101.031 67.3726 100.719 67.0533 100.387 66.399C100.844 65.9509 101.101 65.3573 101.135 64.6035C101.411 58.8402 101.544 54.7949 101.697 50.113C101.768 48.0024 101.841 45.7589 101.935 43.1667C101.934 42.9269 101.947 42.6809 101.961 42.4464C101.998 41.7952 102.02 41.4026 101.738 40.9252C101.169 39.9673 100.288 39.5946 98.6037 39.5946H97.851L97.8866 34.7034ZM117.071 34.7358H135.047L145.726 57.2185C145.736 57.1494 145.747 57.0772 145.747 56.9997C145.946 53.4066 145.987 50.8783 146.05 47.9511C146.082 46.4655 146.113 44.891 146.165 43.0463C146.165 41.8874 146.145 41.2424 145.548 40.6488C144.909 40.0081 144.208 39.916 143.245 39.7883C143.067 39.7652 142.889 39.7412 142.711 39.7129L142.072 39.6166V38.9727C142.072 38.4911 142.082 38.0839 142.093 37.6986C142.103 37.0014 142.124 36.3994 142.072 35.5535L142.02 34.7599H158.038L158.257 34.9756C158.729 35.4352 158.498 40.2353 158.488 40.2772L158.352 40.8645L157.755 40.8624H157.744C155.138 40.8624 153.86 42.7458 153.787 44.4973C153.463 51.5735 153.316 56.3045 153.159 61.3141C153.054 64.7888 152.939 68.4782 152.761 73.2982L152.73 74.0185H143.475L129.268 44.579H129.059L128.221 66.1278C128.211 67.1486 128.2 67.492 129.331 68.4007C130.043 68.9775 130.985 69.0498 131.749 69.1063L132.597 69.1723V69.857C132.639 73.6552 132.639 73.6552 132.2 73.9117L132.022 74.0143H116.035V68.9671L116.684 68.877C120.244 68.3745 120.39 66.5078 120.432 65.8943C120.662 62.6824 120.736 60.7864 120.84 57.6477L120.851 57.5252C120.987 53.6024 121.06 50.8846 121.154 47.6507L121.27 43.3604C121.27 41.4005 119.72 39.7904 117.815 39.7904H117.061L117.071 34.7358ZM4.52829 34.7505H28.1395L35.5905 65.2945L45.5216 34.7505L68.8481 34.7494V40.451L68.2042 40.541C66.6778 40.7546 63.112 41.5733 62.9801 44.5287H62.9822C62.621 52.0362 62.4472 57.3022 62.2462 63.3985C62.1551 66.1205 62.0598 69.0142 61.9395 72.357V72.4544C61.9384 74.298 61.9374 75.5166 63.111 76.5196C63.8543 77.154 64.5976 77.2074 65.6278 77.2828C65.9869 77.309 66.3638 77.3383 66.7647 77.3906L67.4149 77.4744V78.1308C67.4149 78.7568 67.3992 79.2824 67.3845 79.7807C67.3594 80.6287 67.3374 81.3626 67.3971 82.3907L67.4421 83.1822H44.8223L44.7814 82.4787C44.7176 81.4139 44.7416 80.6392 44.7668 79.8184C44.7814 79.3473 44.7961 78.8532 44.7961 78.2617V77.5131H45.5446C48.0573 77.5131 50.7971 76.1186 50.9237 73.5327C51.2776 66.1906 51.4566 61.0398 51.6639 55.0765C51.7466 52.7345 51.8325 50.2565 51.9361 47.457C51.8021 47.4517 51.6754 47.4423 51.5498 47.4308L39.8295 83.1822H29.1823L20.3117 46.8854C20.207 46.8875 20.1023 46.8937 19.9924 46.899C19.9275 46.9021 19.8626 46.9053 19.7966 46.9073L18.7821 72.2931C18.7832 74.5325 19.0324 75.8454 20.3955 76.7206C21.009 77.1153 21.5544 77.1917 22.2464 77.2911C22.6045 77.3424 23.0065 77.4011 23.4504 77.51L23.7697 77.4911L24.0189 77.8628C24.3685 78.3988 24.2408 82.3782 24.0492 82.754L23.8534 83.1403L23.4012 83.1822H2.81238L3.06993 82.2944C3.09715 81.7804 3.09819 78.6354 3.0783 78.3318L2.92754 77.5581L3.71797 77.5215C5.90395 77.2126 8.2857 75.9668 8.4218 73.3976C8.5558 71.0044 8.6919 68.8917 8.81963 66.9078C9.17872 61.3476 9.46244 56.9568 9.46244 50.3611V43.9739C9.46244 41.9125 7.32357 40.6792 5.2559 40.6792H4.50526L4.52829 34.7505ZM199.066 34.7505L198.637 51.0008H192.764L192.774 50.1099C193.005 47.3094 192.67 43.8922 191.058 42.6945C189.079 41.2257 187.341 41.2173 184.2 41.2173H184.158H179.96C177.845 41.2173 176.17 42.7102 176.045 44.691C175.888 47.2675 175.835 49.0965 175.772 51.2112C175.752 52.0624 175.72 52.9533 175.689 53.95L178.369 53.9437C181.656 53.9353 182.148 49.4995 182.148 46.856V46.1075H187.697L186.723 68.1054H180.724V67.3569C180.724 64.1512 180.243 62.1139 179.259 61.1246C178.767 60.6388 178.149 60.4032 177.353 60.4032H177.343L175.375 60.4074L175.019 72.3507C175.019 72.7936 174.945 73.228 174.883 73.6102C174.746 74.4875 174.726 74.8508 175.071 75.2046C176.003 76.1866 176.997 76.663 178.107 76.663H182.64C184.399 76.663 186.849 76.4515 188.461 75.4423C191.215 73.7724 192.22 67.7778 192.377 65.6043L192.429 64.9113H198.69L198.02 83.1508H159.043L158.907 82.5708C158.865 82.3834 158.907 78.0816 158.917 78.0575L159.022 77.5361L159.545 77.4628C161.199 77.2325 162.121 76.9781 163.167 76.0725C164.099 75.2654 164.131 74.2477 164.183 72.8417L164.204 72.2931C164.56 64.8579 164.738 59.6296 164.937 53.5773C165.031 50.9694 165.125 48.1961 165.24 45.0103C165.24 43.8126 165.24 43.0735 164.696 42.1564C164.078 41.1053 163.126 40.9441 161.482 40.7493L160.32 40.6038L160.341 34.7578L199.066 34.7505ZM114.852 41.3733H118.747C119.448 41.6842 119.94 42.4035 119.94 43.2054L119.825 47.4978C119.741 50.7276 119.668 53.4412 119.521 57.3577V57.5252C119.406 60.6294 119.333 62.5034 119.102 65.6734C119.071 66.087 119.019 66.9496 116.642 67.2847L115.449 67.4522V65.6996H113.208L112.748 65.7038C111.617 65.7153 111.586 65.6787 111.334 65.463C111.219 65.3636 111.188 65.1741 111.198 64.1784V63.833C111.292 61.2858 111.366 59.0768 111.429 56.9997C111.586 52.3325 111.722 48.3018 111.994 42.5553C112.025 41.8486 113.501 41.3733 114.852 41.3733ZM82.6068 42.9646L77.9856 54.1144H85.379L82.6068 42.9646ZM82.2508 47.7323L83.4652 52.6173H80.225L82.2508 47.7323ZM49.9072 56.6134C49.7208 61.9276 49.5428 66.7863 49.2214 73.4594C49.1398 75.1219 47.16 76.0181 45.3363 76.0181H43.5429L49.9072 56.6134Z" fill="black"/>
<path d="M99.3707 36.1995L99.356 38.1216C100.673 38.2169 102.114 38.6315 103.024 40.1621C103.538 41.0331 103.496 41.7953 103.454 42.5323C103.442 42.7406 103.43 42.9594 103.43 43.195C103.335 45.8134 103.263 48.0548 103.194 50.1633C103.039 54.8514 102.905 58.8999 102.63 64.6737C102.575 65.842 102.142 66.7947 101.399 67.4993C101.533 67.5443 101.673 67.5726 101.828 67.5726H104.071L104.069 70.6589H112.58V68.6855V68.6834C111.512 68.697 110.538 68.6133 109.491 67.7014C108.308 66.6649 108.319 65.3783 108.329 64.1356V63.7367C108.423 61.1759 108.497 58.9774 108.56 56.9097C108.717 52.2237 108.853 48.1763 109.135 42.4077C109.24 39.9317 111.344 38.5718 113.574 38.3718L113.585 36.2016L99.3707 36.1995ZM78.517 36.2225L77.9663 37.6023C75.5835 43.5886 74.0079 47.5429 71.2273 53.9668C70.3573 55.9874 69.7082 57.6227 69.08 59.2056C68.4477 60.7959 67.7944 62.4427 66.9171 64.4831L66.8407 64.6569C65.9592 66.7026 65.0546 68.7944 63.3136 69.8549C63.2853 70.6809 63.255 71.5279 63.2236 72.4104V72.4534H63.2257V72.5622L76.799 72.5884C76.7896 72.0712 76.8032 71.6232 76.8179 71.1573C76.8231 70.9605 76.8294 70.7563 76.8336 70.5417C76.7226 70.5354 76.6137 70.5333 76.5069 70.5281C75.7866 70.4946 75.0402 70.4611 74.1838 70.0004C73.0322 69.3848 72.4229 68.339 72.4229 66.9759C72.4229 65.7656 72.7694 64.9647 73.1369 64.1199C73.296 63.7513 73.4677 63.3619 73.6174 62.9023L73.898 62.0292C74.2225 61.0042 74.479 60.196 75.0161 59.036L75.2161 58.6005H88.043L88.1969 59.148C89.0407 62.1914 89.4259 63.5807 90.2049 67.0743C90.3441 67.7003 90.2446 68.2939 89.918 68.7881C89.1778 69.9093 87.42 70.3061 85.902 70.5951C85.9146 71.0463 85.9156 71.6441 85.9167 72.4398V72.5581H101.075C101.075 72.0315 101.076 71.5865 101.077 71.1007V70.5092C98.3081 70.08 97.3752 67.2564 96.544 64.7407L96.4403 64.4245C95.8666 62.6939 95.4028 61.2775 94.9537 59.9112C94.3413 58.0477 93.7592 56.2721 92.9698 53.9061C92.3301 51.9818 91.4413 49.0787 90.5011 46.0049C89.2836 42.0308 88.0283 37.9353 87.3865 36.2225H78.517ZM118.558 36.233V38.3509C120.934 38.7225 122.766 40.8363 122.766 43.3814L122.651 47.6894C122.557 50.9276 122.484 53.6506 122.347 57.5776L122.337 57.7012C122.232 60.8566 122.159 62.761 121.929 66.0001C121.803 67.5862 120.934 69.5649 117.542 70.2496V72.5172H131.079C131.089 71.933 131.089 71.1238 131.1 70.5522C130.283 70.4684 129.268 70.2695 128.388 69.567C126.776 68.2646 126.703 67.4009 126.724 66.1006L126.734 65.6861L127.614 43.0851L130.21 43.083L144.406 72.5214H151.295C151.452 68.0542 151.567 64.5638 151.661 61.267C151.818 56.2522 151.965 51.517 152.289 44.4304C152.394 42.0915 154.048 39.7307 157.022 39.4041C157.022 38.6032 157.022 37.127 157.011 36.257H143.6C143.611 36.7931 143.6 37.2548 143.579 37.7353C143.579 37.9237 143.579 38.1164 143.569 38.3226C144.595 38.4598 145.642 38.6336 146.605 39.5925C147.662 40.651 147.662 41.878 147.662 43.0662C147.61 44.9287 147.578 46.5001 147.547 47.9815C147.484 50.9223 147.432 53.459 147.243 57.0646C147.212 57.9629 146.793 58.6727 145.966 59.2223L145.244 59.7008L134.094 36.233H118.558ZM6.01444 36.2466L6.00188 39.2261C8.54904 39.513 10.9538 41.2435 10.9538 43.9739V50.3622C10.9538 57.006 10.6691 61.4188 10.3079 67.0041C10.1801 68.9849 10.044 71.0945 9.91004 73.4804C9.76871 76.1626 7.69475 78.2355 4.56445 78.8909C4.57492 79.6614 4.58644 80.8486 4.57283 81.6851H22.7118C22.7485 80.9272 22.7485 79.5808 22.7118 78.8825C22.4763 78.8386 22.2512 78.8061 22.0292 78.7747C21.2618 78.6648 20.4672 78.5517 19.5794 77.9811C17.4573 76.618 17.2804 74.4101 17.2804 72.266L18.3545 45.359L19.1209 45.4092C19.4287 45.4312 19.6726 45.4176 19.9103 45.4061C20.218 45.3894 20.5374 45.3716 20.9656 45.4113L21.4974 45.4605L30.3512 81.6851H38.7381L50.4752 45.8845L51.0321 45.8982C51.2625 45.9034 51.4635 45.9222 51.6488 45.939C51.9911 45.9704 52.2152 45.9913 52.5449 45.917L53.4935 45.7024L53.4568 46.6729C53.3396 49.8199 53.2432 52.5587 53.1543 55.131C52.9459 61.0984 52.7679 66.2524 52.4141 73.605C52.2539 76.8473 49.2597 78.7119 46.2802 78.9788C46.2749 79.2929 46.2655 79.584 46.2571 79.8666C46.2383 80.4801 46.2215 81.0287 46.2393 81.6851H65.8629C65.8451 80.968 65.8639 80.366 65.8827 79.7379C65.8922 79.4416 65.8995 79.138 65.9058 78.8071C65.7718 78.7967 65.6419 78.7852 65.5132 78.7768C64.349 78.692 63.2497 78.6114 62.1327 77.6576C60.4346 76.2045 60.4356 74.3849 60.4356 72.4555V72.3309C60.557 68.964 60.6523 66.0692 60.7424 63.3483C60.9444 57.2468 61.1192 51.9766 61.4804 44.4586C61.6019 41.7492 63.7271 39.8407 67.3453 39.1643V36.2466H46.6026L36.1742 68.318H34.7818L26.9592 36.2466H6.01444ZM197.527 36.2466L161.827 36.2549L161.816 39.2837C163.397 39.4711 164.999 39.714 165.983 41.3953C166.737 42.6642 166.737 43.7122 166.737 45.0397C166.622 48.2506 166.517 51.0228 166.433 53.6297C166.224 59.6872 166.046 64.9187 165.701 72.3644L165.68 72.8973C165.617 74.476 165.564 75.9689 164.151 77.2022C162.895 78.2837 161.722 78.6323 160.393 78.8501C160.393 79.6018 160.382 80.8612 160.382 81.6548H196.574L197.129 66.4095H193.8C193.559 68.5086 192.596 74.6906 189.298 76.6829C187.717 77.6744 185.487 78.1612 182.64 78.1612H178.117C176.599 78.1612 175.207 77.5163 173.982 76.2432C173.102 75.3198 173.27 74.2876 173.406 73.3778C173.469 73.0334 173.521 72.6774 173.521 72.3288L173.929 58.9177L177.332 58.9072H177.353C178.546 58.9072 179.541 59.2977 180.316 60.0662C181.844 61.5989 182.169 64.3837 182.221 66.6094H185.289L186.126 47.6078H183.634C183.467 52.5901 181.572 55.4325 178.368 55.4409L174.139 55.4513L174.17 54.6745C174.212 53.3585 174.254 52.231 174.285 51.1673C174.338 49.0389 174.39 47.2026 174.558 44.6021C174.725 41.8204 177.049 39.7213 179.96 39.7213H184.158C187.435 39.7213 189.57 39.7297 191.947 41.4917C194.25 43.2013 194.418 47.2424 194.313 49.5059H197.182L197.527 36.2466ZM81.6546 41.8843H83.6846L87.0913 55.4168H75.9594L81.6546 41.8843Z" fill="#77B5E6"/>
<path d="M101.154 62.4877C99.3755 62.5997 97.9821 62.9577 96.6347 63.3032C95.057 63.7084 93.5661 64.0905 91.5393 64.0905H90.0987C85.3625 64.0905 82.5756 65.7645 78.7176 68.0824C78.4402 68.2489 78.1586 68.4185 77.8696 68.5912C77.2341 68.966 76.718 69.2874 76.2165 69.5973C75.49 70.0475 74.8032 70.4726 73.8631 70.996C73.5888 71.1499 73.3626 71.3237 73.1459 71.4912C72.7156 71.822 72.344 72.1058 71.7409 72.1058C69.4838 72.1058 68.24 72.1078 66.0624 71.7875C64.3162 71.5289 63.0452 70.7102 61.8161 69.9208C60.3577 68.9838 58.9821 68.0981 56.9123 68.0981C55.4571 68.0981 54.4761 68.4824 53.3381 68.9262C52.8011 69.1356 52.2462 69.3513 51.596 69.5439C47.8899 70.639 45.303 71.9676 43.049 75.5145C42.5758 76.2579 41.979 76.7059 41.4011 77.1404C40.7908 77.5979 40.1605 78.0722 39.681 78.8846C39.4517 79.2803 39.4004 79.6666 39.3502 80.0404C39.2999 80.412 39.2507 80.7628 39.0393 81.1271L38.8487 81.4495C37.9285 83.0116 37.2637 84.1422 37.2637 86.0623C37.2637 87.0726 37.6133 87.7667 37.984 88.5027C38.2781 89.0868 38.5828 89.692 38.7074 90.4855C38.8874 91.5817 38.9178 92.4873 38.9471 93.3604C38.9764 94.2398 39.0068 95.1485 39.1879 96.2562C39.2518 96.6456 39.2141 96.9943 39.1774 97.3293C39.1241 97.8307 39.0738 98.304 39.3575 98.8484C39.6203 99.3603 40.1008 99.4619 40.5688 99.5582C40.9384 99.6357 41.3215 99.7131 41.6199 99.9937C42.2544 100.595 42.537 101.33 42.8092 102.038C43.161 102.955 43.4939 103.822 44.5272 104.339C47.11 105.63 48.9798 106.408 51.1438 107.31C52.0274 107.678 52.9403 108.057 53.9904 108.508C54.6133 108.773 55.2132 108.927 55.7942 109.075C56.9699 109.373 57.9865 109.631 58.7633 110.723C59.5516 111.828 59.6197 112.834 59.6992 113.998C59.7484 114.717 59.7976 115.458 60.0269 116.289L58.7465 125.349C58.7664 125.571 58.8251 125.717 58.8994 125.903L58.9591 126.051L59.0533 125.969C59.2344 125.811 59.4019 125.66 59.56 125.515C60.162 124.962 60.6446 124.519 61.4602 124.261L60.6708 132.322C60.6886 132.555 60.7367 132.699 60.7995 132.882L60.8791 133.121L60.9817 133.019C61.389 132.612 61.7502 132.291 62.0977 131.982C62.4286 131.689 62.7709 131.387 63.1551 131.007C63.2284 131.099 63.2975 131.166 63.398 131.24C63.6775 134.06 64.38 135.846 65.2647 138.104C65.5421 138.805 65.8269 139.538 66.1263 140.355C66.5231 141.454 66.8392 142.396 67.1439 143.317C67.7752 145.202 68.3206 146.835 69.3362 149.023L69.4 149.159L69.488 149.044C69.8366 148.563 70.0606 148.123 70.2773 147.694C70.5506 147.149 70.8092 146.636 71.3012 146.113C71.6949 147.348 71.8373 148.385 71.9744 149.4C72.1178 150.457 72.2644 151.557 72.6978 152.865C73.4841 155.231 74.666 156.603 76.0354 158.173C76.6688 158.906 77.3252 159.66 78.0015 160.581L78.0916 160.707L78.1554 160.571C78.3889 160.058 78.5156 159.618 78.6402 159.189C78.7449 158.833 78.8527 158.456 79.0265 158.048L81.9013 166.193L81.9976 166.025C82.1589 165.753 82.2709 165.512 82.3798 165.271C82.5578 164.884 82.7116 164.539 83.0362 164.193C87.0763 169.271 89.0099 172.495 91.6168 178.525C91.9445 179.279 92.2564 179.939 92.558 180.567C93.3055 182.137 93.9514 183.488 94.3388 185.561L94.3555 185.645L94.4435 185.634C95.0214 185.508 95.4705 185.278 95.9029 185.058C96.4546 184.776 96.976 184.503 97.713 184.503C98.093 184.503 98.3234 184.765 98.5673 185.037C98.8269 185.33 99.0939 185.634 99.5545 185.634C100.338 185.634 100.833 185.278 101.358 184.901C101.617 184.713 101.885 184.524 102.203 184.357L105.084 185.634L108.288 184.357C108.497 184.493 108.654 184.681 108.811 184.849C109.105 185.163 109.377 185.467 109.9 185.467C110.528 185.467 110.968 185.173 111.387 184.891C111.806 184.608 112.203 184.346 112.779 184.346C113.47 184.346 113.889 184.65 114.392 185.006C114.59 185.153 114.81 185.31 115.062 185.456L115.145 185.508L115.187 185.414C116.14 183.362 116.81 181.687 117.469 180.064C118.14 178.379 118.841 176.641 119.836 174.516C122.934 167.92 125.363 163.984 126.326 163.984C126.661 163.984 126.881 164.172 127.112 164.371C127.363 164.57 127.614 164.79 128.012 164.79C128.148 164.79 128.263 164.748 128.347 164.664C128.525 164.476 128.504 164.13 128.483 163.774C128.473 163.544 128.462 163.303 128.504 163.115C128.619 162.508 128.682 161.974 128.755 161.45C128.944 160.089 129.08 159 129.855 157.65C129.991 157.859 130.106 158.048 130.211 158.226C130.409 158.571 130.608 158.885 130.902 159.304L130.985 159.409L131.331 158.833C132.252 157.304 132.849 156.31 133.781 154.645C133.938 154.363 134.053 154.09 134.168 153.829C134.44 153.221 134.67 152.698 135.288 152.311L135.34 152.373C135.675 152.782 135.916 153.075 136.377 153.389L136.492 153.462L138.251 145.139C138.659 145.453 138.879 145.83 139.12 146.228C139.329 146.573 139.539 146.94 139.895 147.285L140.01 147.4L142.407 136.659L144.313 138.564L144.428 138.313C144.553 138.031 144.658 137.8 144.689 137.455C144.92 135.354 144.983 133.864 145.045 132.137C145.077 131.288 145.108 130.412 145.171 129.385C145.579 129.506 145.904 129.661 146.218 129.811C146.647 130.014 147.056 130.206 147.631 130.318L147.757 130.34L146.794 122.46C147.349 122.455 147.767 122.642 148.218 122.842C148.615 123.022 149.024 123.209 149.568 123.266L149.683 123.275L148.071 111.344C150.113 109.311 152.049 108.3 154.101 107.23C155.42 106.545 156.771 105.838 158.279 104.814C159.21 104.186 159.702 103.567 160.268 102.851C160.54 102.504 160.823 102.146 161.189 101.755L161.294 101.634C163.304 99.4441 164.518 98.1228 165.534 95.3108C165.795 94.5633 166.057 93.9016 166.308 93.262C167.104 91.2383 167.722 89.6386 167.942 87.1113C168.057 85.631 168.067 84.5778 168.078 83.3591C168.078 82.7153 168.078 82.0463 168.099 81.2517C168.099 79.7033 167.565 78.6626 166.989 77.5592C166.643 76.9007 166.298 76.2202 166.015 75.3742C165.879 74.9618 165.795 74.5723 165.712 74.1944C165.523 73.2794 165.356 72.4879 164.539 71.8053C163.419 70.8662 162.424 70.4966 161.262 70.0695C160.718 69.8716 160.163 69.6675 159.556 69.389C158.959 69.1199 158.509 68.7535 158.08 68.3986C157.389 67.8385 156.74 67.3098 155.672 67.2972C151.411 67.203 149.003 67.3956 145.004 67.7181L144.26 67.7799C142.732 67.894 141.591 68.4907 140.481 69.0676C139.434 69.6193 138.335 70.1888 136.9 70.3438C135.665 70.4673 134.964 70.5029 133.781 70.5029C132.629 70.5029 131.938 69.9365 131.142 69.2801C130.713 68.9346 130.284 68.5755 129.739 68.2698C129.488 68.1316 129.237 67.9997 128.996 67.8699C127.499 67.0868 126.096 66.3477 126.096 64.6611V64.5449L125.981 64.5752C124.924 64.859 124.138 64.6485 123.228 64.4056C122.809 64.2915 122.369 64.1732 121.856 64.0905C118.422 63.5241 116.391 63.2896 112.706 63.2896H110.78C110.623 63.2896 110.518 63.2205 110.392 63.142C110.277 63.0677 110.151 62.9891 109.984 62.9682C107.744 62.6646 106.152 62.6311 104.31 62.5924C103.347 62.5704 102.348 62.5494 101.164 62.4877H101.158H101.154Z" fill="#4C443F"/>
<path d="M101.74 63.5493C99.7648 63.5493 98.3881 63.8163 96.7946 64.1251C96.1361 64.2528 95.4567 64.3848 94.6715 64.5125C93.256 64.7439 92.094 64.8506 90.9706 64.9532C89.4651 65.0925 88.0413 65.2233 86.1705 65.6369C85.6344 65.751 85.1277 65.7814 84.6367 65.8107C83.616 65.8724 82.6518 65.929 81.7985 66.7822C81.4373 67.1434 81.2625 67.5496 81.096 67.9433C80.8961 68.4123 80.7066 68.8572 80.2103 69.1744C79.0985 69.8748 78.2118 70.3323 77.2737 70.816C76.6508 71.1374 76.0048 71.4693 75.2437 71.8975C74.8375 72.1247 74.491 72.3592 74.156 72.5864C73.3467 73.1349 72.6495 73.6082 71.5261 73.65C70.7043 73.6092 70.0081 73.5893 69.3359 73.5705C68.042 73.5328 66.9238 73.5003 65.3566 73.3286C63.2858 73.1046 62.0525 72.3288 60.4905 71.3478C60.1146 71.1123 59.7273 70.8694 59.3001 70.616C59.0688 70.481 58.9023 70.2831 58.74 70.0926C58.4867 69.7921 58.2239 69.4812 57.7339 69.4812C56.6629 69.4812 55.906 69.7785 55.1062 70.0947C54.6528 70.2727 54.1849 70.458 53.6216 70.6077C52.9275 70.7909 52.3077 70.8893 51.7079 70.9856C50.5782 71.1667 49.5114 71.3384 48.3095 72.0598C47.071 72.7968 46.3769 73.6458 45.6409 74.5441C45.2379 75.0362 44.8201 75.545 44.2831 76.081C41.872 78.4921 40.9591 80.3912 39.9321 83.4901C39.8043 83.8795 39.662 84.2124 39.5238 84.5338C39.2243 85.2248 38.9668 85.8216 38.9668 86.723C38.9668 87.2087 39.3018 87.4506 39.6253 87.6819C39.8776 87.8631 40.1373 88.0505 40.2556 88.3614C41.0198 90.2783 40.9518 91.8738 40.8785 93.5636C40.8251 94.822 40.7696 96.1243 41.0533 97.6424L41.0669 97.7136H41.1402C42.496 97.7136 43.0425 98.9343 43.6235 100.227C44.2004 101.514 44.8003 102.845 46.2712 102.845C48.2289 102.845 49.4706 103.606 50.9091 104.486C51.5864 104.902 52.2889 105.333 53.1275 105.724C53.7033 105.989 54.2058 106.218 54.6811 106.433C55.7437 106.915 56.6608 107.33 57.9339 107.966C58.1789 108.086 58.4197 108.188 58.6521 108.285C59.4216 108.607 60.0853 108.884 60.458 109.688C61.5406 111.975 61.7311 113.565 61.7311 116.062C61.7311 117.156 61.5688 118.018 61.4128 118.851C61.2547 119.693 61.0914 120.564 61.0914 121.674V121.762H61.1794C62.2389 121.762 63.335 122.479 63.335 123.676C63.335 124.661 63.2135 125.439 63.0952 126.19C62.9769 126.947 62.8544 127.728 62.8544 128.727V128.817H62.9445C65.0593 128.817 65.3807 130.808 65.7534 133.115C65.9104 134.086 66.0727 135.089 66.3878 135.971C66.8233 137.193 67.2526 138.188 67.6672 139.14C68.3257 140.658 68.9486 142.082 69.4302 144.134L69.4522 144.239L69.5485 144.197C69.7777 144.113 69.9599 144.009 70.1379 143.904C70.4425 143.726 70.7064 143.569 71.1189 143.569C72.7165 143.569 73.041 145.338 73.354 147.045C73.3823 147.202 73.4095 147.348 73.4378 147.505C73.9696 150.238 74.4177 152.08 76.1755 154.593C76.2907 154.76 76.3765 154.959 76.4582 155.158C76.6424 155.608 76.8319 156.069 77.3721 156.069C77.703 156.069 77.9301 155.902 78.1489 155.734C78.3531 155.577 78.5457 155.43 78.8158 155.43C81.0604 155.43 81.5148 157.828 81.9545 160.142C82.0477 160.634 82.143 161.136 82.255 161.618L82.2717 161.681H82.3429C83.9918 161.681 84.6608 162.874 85.4366 164.256C86.0543 165.345 86.695 166.486 87.9125 167.125L88.0413 167.187V166.402L88.035 166.36C85.9224 161.827 85.0984 158.393 84.1468 154.415C83.7364 152.708 83.3134 150.939 82.7502 148.908C82.278 147.181 81.8247 145.82 81.386 144.49C80.9474 143.171 80.4941 141.81 80.024 140.093C79.935 139.748 79.8847 139.444 79.8355 139.151C79.7319 138.512 79.6429 137.957 79.2105 137.329C78.5216 136.329 77.5763 135.856 76.6623 135.398C75.6321 134.88 74.6585 134.393 74.0942 133.197V132.657C74.7444 132.593 75.2898 132.515 75.8185 132.44C76.7858 132.303 77.6223 132.182 78.8158 132.182H78.9059V119.589C78.9059 117.821 79.7539 116.765 80.738 115.545C81.0782 115.122 81.43 114.685 81.7744 114.189C83.8076 111.259 85.4073 109.934 88.3282 107.799L88.3826 107.758L88.3585 107.693C88.0015 106.774 87.3692 105.552 86.0291 105.552C85.2984 105.552 84.7561 105.802 84.2305 106.042C83.6987 106.286 83.1941 106.515 82.502 106.515C81.4059 106.515 80.6479 106.274 79.7706 105.996C79.288 105.843 78.7897 105.683 78.194 105.554C77.6893 105.447 77.1941 105.459 76.7157 105.47C75.8384 105.489 75.0825 105.508 74.5601 104.787C74.3507 104.497 74.3758 104.206 74.4072 103.868C74.4261 103.665 74.4449 103.455 74.4156 103.225C74.313 102.451 74.1926 101.865 74.0659 101.243C73.9696 100.773 73.8691 100.285 73.7728 99.6954C73.7152 99.3164 73.7341 98.9699 73.7508 98.6338C73.7801 98.058 73.8074 97.5146 73.4399 96.9367C73.2389 96.6216 72.9457 96.5797 72.6327 96.5358C72.4641 96.5127 72.2872 96.4887 72.1145 96.4196C71.8056 96.2971 71.5502 96.1369 71.3031 95.982C70.8686 95.7098 70.4603 95.4522 69.8395 95.4522C69.2794 95.4522 69.1433 95.9642 69.0135 96.4604C68.9549 96.6834 68.8962 96.9137 68.7978 97.1022C68.6293 97.4267 68.4335 97.7 68.2461 97.9617C67.865 98.4935 67.5059 98.995 67.5059 99.7896C67.5059 99.9864 67.5028 100.181 67.5017 100.372C67.486 102.087 67.4714 103.566 68.8167 104.746C69.3297 105.199 69.9547 105.478 70.5588 105.746C71.5868 106.203 72.4746 106.597 72.4746 107.725C72.4746 108.062 72.4003 108.308 72.3218 108.568C72.2621 108.762 72.2014 108.96 72.1679 109.206C68.0346 107.69 65.7597 104.152 65.7597 99.2295C65.7597 98.5553 66.0989 98.1564 66.4915 97.6958C66.7406 97.4047 66.9971 97.1032 67.1929 96.7043C67.4159 96.2521 67.5897 95.8385 67.7572 95.4407C68.1634 94.4765 68.5141 93.6421 69.3705 92.7679C72.2694 94.488 74.5392 95.2376 77.1659 96.1044C78.5604 96.5651 80.002 97.0414 81.6677 97.7083C82.2319 97.9334 82.7502 98.0915 83.2506 98.2454C84.3164 98.5731 85.2492 98.8673 86.1747 99.6828C86.183 99.686 86.1893 99.6891 86.1977 99.6912C86.1956 99.6943 86.1945 99.6964 86.1935 99.6975C86.2532 99.7509 86.3128 99.8001 86.3736 99.8587C86.2301 99.9603 86.0951 100.046 85.9621 100.133C85.6501 100.336 85.356 100.529 85.044 100.841L84.9131 100.972L85.8909 101.084L85.915 101.068C86.4437 100.755 87.1598 100.364 87.6822 100.078C88.5114 99.6232 88.5114 99.6231 88.5219 99.5666L88.5344 99.509L88.4894 99.4766C87.1682 98.5113 86.1694 97.5764 85.2052 96.6708C83.751 95.3056 82.3764 94.0158 80.1381 92.8967C79.2294 92.4423 78.4683 92.4057 77.6621 92.369C77.2287 92.3491 76.7785 92.3282 76.2655 92.2465C75.3348 92.0937 74.5119 91.9733 73.7163 91.8581C71.456 91.5294 69.6406 91.2656 67.1824 90.494L69.0187 90.4772C68.9737 90.4249 68.9297 90.3704 68.892 90.3034L63.2491 84.5789L63.269 84.5255C63.2774 84.5045 63.2837 84.4867 63.2921 84.4658L63.2083 84.3799C63.4041 83.8858 63.5873 83.4587 63.7642 83.0608C63.8511 82.7624 63.9317 82.4693 64.0092 82.1814C64.3337 80.9858 64.629 79.9263 65.3754 78.8135C65.4937 78.4334 65.6686 78.0995 66.0444 77.8189C67.218 76.9395 68.2293 76.8746 69.7568 76.8746C70.0845 76.8746 70.2991 77.018 70.4666 77.2368C70.7095 77.4462 70.8519 77.7812 70.9964 78.1298C71.1189 78.423 71.2434 78.7245 71.4382 78.9726L71.524 79.0846L71.389 79.116C70.8404 79.2416 70.3431 79.2668 69.8636 79.2919C69.0386 79.3338 68.3267 79.3704 67.5719 79.9033C67.1008 80.2373 67.0044 80.6937 66.8924 81.2203C66.8317 81.5072 66.7689 81.8035 66.6412 82.1081C66.5113 82.4117 66.347 82.6546 66.1868 82.8891C65.9177 83.2859 65.6864 83.6293 65.6864 84.159C65.6864 84.4721 65.7743 84.7118 65.9177 84.916C66.2077 85.2489 66.6485 85.4698 67.1091 85.6949C67.4766 85.8739 67.8556 86.0592 68.1791 86.3126C68.2827 86.3953 68.378 86.4832 68.4691 86.5743C68.8104 86.8653 69.0742 87.1972 69.3255 87.5207C69.5024 87.7479 69.6699 87.9625 69.8531 88.1468C70.1452 88.3834 70.4917 88.5509 70.9555 88.5781C73.1352 88.6985 74.8836 88.5949 76.5744 88.4964C78.262 88.398 80.0072 88.2965 82.1775 88.4169C82.68 88.4399 83.0308 88.6524 83.3385 88.954C83.6537 89.1937 83.906 89.5151 84.1646 89.848C84.3373 90.0689 84.5163 90.294 84.7184 90.5065C84.8712 90.6405 85.022 90.7787 85.1728 90.919C85.8836 91.5074 86.629 92.0686 87.3524 92.6119C88.5836 93.5363 89.8546 94.4911 90.9643 95.5935C97.7337 92.0748 103.216 91.8592 106.623 92.2999C109.952 92.7292 112.004 93.8515 112.413 94.0891L114.36 91.254C112.214 90.294 101.756 86.3607 101.076 86.2571L100.951 86.3555V86.122L100.994 86.0938C100.996 86.0927 100.997 86.0927 100.998 86.0917C102.027 85.2939 105.566 84.3454 109 83.4293C111.575 82.7405 114.014 82.0851 115.114 81.5669C113.679 81.5281 107.377 81.6087 102.538 81.7752L102.504 81.6035L113.198 77.5111C111.627 76.9206 104.081 74.6163 102.332 74.2981L101.898 74.2185L118.705 70.481C116.464 69.6895 103.015 64.9187 101.616 64.0644L101.296 63.8697L105.409 64.1911C105.095 64.0236 104.843 63.8288 104.697 63.5922L104.676 63.5493H101.74ZM155.42 68.8405L147.443 69.2027C147.129 69.2027 146.731 69.1514 146.343 69.1022C145.956 69.053 145.548 69.0006 145.223 69.0006C143.988 69.0006 143.318 69.5241 142.616 70.0779C142.02 70.5407 141.402 71.0181 140.407 71.2086C140.01 71.2819 139.633 71.4065 139.277 71.5279C138.722 71.7122 138.198 71.887 137.612 71.887C137.235 71.887 136.942 71.8106 136.628 71.73C136.324 71.6494 136.01 71.5667 135.612 71.5667C135.026 71.5667 134.566 71.6064 134.115 71.6462C133.676 71.685 133.215 71.7258 132.639 71.7258H132.315L132.597 71.8912C133.979 72.7214 135.204 73.225 136.398 73.7118C138.01 74.3745 139.538 74.9995 141.245 76.3741C142.051 77.0285 142.187 77.8252 142.334 78.7475C142.417 79.205 142.491 79.6772 142.658 80.1786C142.826 80.7042 143.046 81.1303 143.265 81.5417C143.621 82.2411 143.936 82.8462 143.936 83.7581C143.936 84.873 143.527 85.6373 143.098 86.4476C142.826 86.9564 142.554 87.4841 142.334 88.1405L142.292 88.2839L142.438 88.2546C142.868 88.1709 143.234 88.0861 143.6 88.0033C144.511 87.795 145.297 87.6149 146.427 87.6149C146.469 87.6149 146.5 87.639 146.542 87.6778C146.563 87.6987 146.595 87.7207 146.626 87.7395L143.925 93.4693C144.689 93.3395 145.297 93.1102 145.935 92.8694C146.406 92.6957 146.877 92.5166 147.432 92.3732L148.196 92.1094C148.27 92.1366 148.322 92.1649 148.395 92.2078L145.066 98.7469L145.003 98.8777H150.803L150.709 98.9385H150.845L145.904 102.378L145.946 102.484C146.228 102.461 146.616 102.426 147.076 102.382L152.279 101.723C152.374 101.737 152.437 101.774 152.52 101.815C152.52 101.818 152.531 101.817 152.531 101.82C151.62 102.734 150.898 103.489 150.207 104.22C149.495 104.973 148.762 105.751 147.809 106.7C147.6 106.906 147.38 107.085 147.16 107.257C146.574 107.724 146.019 108.166 146.019 109.009C146.019 109.298 146.061 109.527 146.103 109.748C146.145 109.97 146.176 110.18 146.176 110.453V110.654L146.322 110.518C148.961 108.134 151.107 106.842 153.599 105.347C154.928 104.552 156.3 103.732 157.86 102.671C161.587 100.142 162.832 97.2676 164.309 93.1689C164.56 92.4622 164.811 91.8466 165.052 91.253C165.68 89.7213 166.224 88.3991 166.392 86.412C166.56 84.5276 166.56 83.3739 166.56 81.6255V81.0329C166.56 79.7965 166.12 79.0009 165.617 78.0796C165.387 77.6692 165.157 77.2452 164.947 76.75C162.969 72.1446 159.713 70.259 155.431 68.8447L155.42 68.8405ZM142.072 90.8185C140.533 90.8185 139.402 90.941 138.188 91.0708C138.041 91.0865 137.884 91.1033 137.727 91.12C137.329 91.2247 136.942 91.3388 136.534 91.4571C135.581 91.7356 134.586 92.0235 133.424 92.2486C132.618 92.4046 131.917 92.4549 131.236 92.5041C130.127 92.5836 129.08 92.6569 127.792 93.216C126.379 93.842 125.552 94.6743 124.662 95.5569C124.117 96.1044 123.552 96.6708 122.809 97.233C122.421 97.522 122.055 97.7575 121.699 97.9837C120.799 98.5574 120.013 99.0547 119.417 100.15L119.364 100.241L119.469 100.276C120.505 100.621 121.123 100.865 122.013 101.39L122.034 101.403H122.557C122.086 101.09 121.615 100.742 121.071 100.386C121.249 100.276 121.416 100.179 121.584 100.086C121.573 100.075 121.563 100.066 121.552 100.056C121.772 99.9341 122.065 99.7907 122.411 99.6284C122.526 99.5635 122.652 99.4986 122.777 99.4253C122.788 99.4347 122.788 99.441 122.798 99.4504C124.107 98.8526 126.065 98.0402 128.357 97.0886C132.472 95.3747 137.549 93.2641 141.915 91.1567C142.009 91.0782 142.114 90.9955 142.219 90.9107C142.208 90.9023 142.198 90.8918 142.187 90.8824C142.135 90.8426 142.103 90.8185 142.072 90.8185ZM100.882 96.2699L91.2648 99.5813V99.7174L95.754 103.864L87.901 103.885C88.682 105.469 89.5625 106.932 91.3454 106.932C92.4876 106.932 93.0896 106.451 94.2318 106.451C96.3361 106.451 98.1598 108.034 98.1598 110.138V111.9C98.1598 112.039 98.1242 112.161 98.0677 112.273C100.373 114.767 102.663 116.304 102.663 117.317V121.166H100.579C93.5031 121.166 89.8577 125.154 84.8681 130.144C85.1696 128.482 84.7896 127.338 85.5099 125.815C86.4123 123.912 88.5564 123.83 89.1176 121.805L84.8681 124.371C86.1904 122.368 87.2143 121.285 89.0369 119.722C88.9176 119.722 88.8569 119.563 88.7166 119.563C86.9326 119.563 85.9297 120.384 84.5467 121.486C85.9098 118.921 87.6351 118.019 90.1603 116.515C90.0399 116.515 89.9792 116.356 89.8389 116.356C87.8141 116.356 86.6123 116.757 84.8681 117.8C86.6123 116.057 88.0748 115.474 90.3194 114.432C89.4379 114.092 89.0348 113.295 88.0727 113.295C86.5296 113.295 85.6512 114.046 85.6512 114.046C86.0501 113.647 86.5317 113.13 87.0666 112.565C85.5643 113.331 83.3982 115.518 82.4497 117.031C81.8885 117.933 81.006 118.354 81.006 119.435V133.385C79.2618 133.526 78.2599 133.385 76.5168 133.385C77.3386 135.449 79.6628 135.146 81.006 136.91C82.0676 138.292 81.787 139.559 82.2874 141.234C83.3699 144.825 84.0117 146.908 85.0136 150.541C85.9956 154.101 86.6772 156.132 87.7388 159.681C88.2402 161.398 88.0591 162.665 89.0212 164.162C90.2242 166.025 92.2259 166.674 92.2259 168.894C92.2259 169.292 92.1672 169.553 92.0667 169.941C91.2051 168.852 91.0062 167.889 89.8242 167.208V167.847L95.5938 183.561C96.4753 183.101 96.7559 182.127 97.7578 182.127C98.7199 182.127 98.7199 183.729 99.681 183.729C100.803 183.729 101.126 182.441 102.248 182.441C103.57 182.441 103.971 183.886 105.294 183.886C106.539 183.886 106.937 182.441 108.183 182.441C109.157 182.441 109.439 183.561 110.423 183.561C111.502 183.561 111.826 182.284 112.905 182.284C113.554 182.284 113.774 182.86 114.349 183.08C115.553 180.483 115.794 178.756 117.082 176.191C118.265 173.793 119.218 172.391 119.992 170.087C119.961 170.14 119.93 170.192 119.898 170.244L119.699 170.569L119.94 167.648C119.94 167.627 120.013 167.344 120.128 166.894C118.956 168.234 118.684 169.449 117.396 170.736C117.26 169.239 118.254 168.339 117.878 166.894C116.998 168.014 116.674 168.821 115.794 169.941L115.637 168.653C116.475 166.549 117.857 165.826 119.155 164.005C120.244 162.487 119.898 161.136 120.443 159.356C121.51 155.849 122.222 153.923 123.165 150.384C124.117 146.793 124.735 144.773 125.897 141.245C126.452 139.538 126.358 138.01 127.446 136.596C128.787 134.828 130.849 135.288 131.666 133.223C129.917 133.223 128.923 133.363 127.174 133.223V119.276C127.174 117.873 125.279 115.843 123.332 114.552C123.343 114.573 123.363 114.596 123.374 114.616C121.887 114.235 121.217 113.616 119.668 113.616C118.705 113.616 118.15 113.916 117.26 114.256C119.448 115.258 120.872 115.779 122.557 117.463C120.673 116.722 119.469 116.142 117.427 116.341C119.95 117.844 121.678 118.746 123.039 121.31C121.573 120.148 120.432 119.367 118.548 119.548C120.306 121.07 121.469 121.973 122.557 124.036L118.391 121.632C119.228 123.596 121.249 123.675 122.076 125.639C122.714 127.203 122.379 128.305 122.714 129.968C117.731 124.978 114.077 120.992 107 120.992H104.917V116.822C105.974 115.565 108.518 113.564 109.91 112.265C109.23 111.225 109.869 109.705 109.869 109.705C109.869 109.705 109.701 106.698 113.795 106.451C114.925 106.382 115.532 106.932 116.674 106.932C118.464 106.932 119.479 105.529 120.118 103.885H111.47C110.026 101.48 107.576 101.841 105.053 100.678C105.377 100.538 105.576 100.358 105.932 100.358C108.256 100.358 109.523 101.982 111.784 101.48C110.319 100.018 109.125 99.5572 107.293 98.5951L108.424 98.4338C109.481 98.9144 110.162 99.1562 111.303 99.397V98.9144C110.664 98.2726 110.141 97.6131 109.565 97.1022L107.105 96.2699H100.882Z" fill="black"/>
<path d="M104.508 125.388C102.948 125.388 101.915 125.772 100.716 126.214C100.15 126.422 99.5658 126.638 98.8696 126.836L98.8947 127.01C99.3554 127.01 99.6182 127.113 99.972 127.318L100.035 127.355L100.084 127.3C100.748 126.522 101.533 126.369 102.663 126.369C103.47 126.369 104.048 126.647 104.592 127.3L104.655 127.361L104.718 127.314C105.524 126.742 106.225 126.529 107.314 126.529C107.701 126.529 107.974 126.68 108.267 126.84C108.57 127.002 108.884 127.171 109.314 127.171C109.554 127.171 109.722 127.083 109.89 126.999C110.015 126.934 110.13 126.872 110.287 126.848V126.673C109.303 126.542 108.518 126.283 107.764 126.032C106.759 125.701 105.817 125.388 104.508 125.388ZM104.718 131.228L104.655 131.432C104.613 131.597 104.571 131.766 104.529 131.935C104.144 133.467 103.743 135.051 102.26 135.051C101.309 135.051 101.029 134.2 100.706 133.214C100.596 132.88 100.483 132.533 100.337 132.217L100.236 131.993L100.17 132.232C99.9678 132.991 99.6548 133.51 99.3219 134.058C99.1282 134.375 98.9303 134.702 98.7345 135.1C98.6895 135.191 98.6456 135.285 98.6016 135.377C98.3179 135.977 98.0718 136.495 97.451 136.495C96.58 136.495 96.4208 135.675 96.2334 134.726C96.1403 134.252 96.044 133.763 95.8492 133.34L95.733 133.088L95.6796 133.36C95.6168 133.688 95.5613 133.984 95.51 134.264C95.331 135.236 95.1907 136.005 94.8808 137.12L94.8745 137.141L94.8787 137.162C95.0326 138.02 95.1844 138.742 95.33 139.433C95.5728 140.585 95.8032 141.674 95.9801 143.171C96.044 143.684 96.023 144.092 96.001 144.511C95.9843 144.846 95.9665 145.181 95.9885 145.568C92.3127 143.674 90.3728 140.198 88.9573 137.036L88.9552 137.026L88.8757 137.067L88.794 137.099V137.109C89.1751 137.957 88.6349 138.795 87.9659 139.318C87.7795 138.659 87.5042 138.188 87.2153 137.696C86.9902 137.308 86.7567 136.91 86.5526 136.391L86.3809 136.434C86.696 138.868 87.1776 140.627 87.6853 142.49C87.9952 143.632 88.3145 144.804 88.6286 146.218C88.816 147.076 88.8642 147.83 88.9102 148.552C88.9887 149.746 89.062 150.876 89.7593 152.175C91.0219 154.53 91.5998 156.163 92.4017 158.425C92.5273 158.781 92.6593 159.147 92.7985 159.545C93.0403 160.225 93.301 160.78 93.5533 161.325C93.9794 162.235 94.3804 163.094 94.5573 164.329L94.7332 164.34C95.0243 162.822 95.5257 161.974 96.2827 160.696L96.4606 160.403H96.9904C98.6414 164.424 98.9963 167.083 99.2046 171.857L99.2193 172.171L99.3732 171.899C99.7145 171.291 100.024 170.894 100.385 170.433C100.557 170.213 100.734 169.983 100.929 169.721C102.117 170.213 102.5 171.218 102.982 172.485L103.141 172.904L103.225 172.684C103.364 172.328 103.463 171.93 103.559 171.553C103.828 170.475 104.059 169.543 105.063 169.543C105.88 169.543 106.11 170.255 106.372 171.082C106.508 171.532 106.665 171.993 106.916 172.38L107 172.506L107.073 172.38C107.178 172.16 107.283 171.961 107.377 171.762C107.806 170.894 108.141 170.203 109.052 169.721C109.209 169.92 109.356 170.098 109.492 170.265C109.921 170.768 110.277 171.197 110.601 171.888L110.769 171.857C110.905 169.7 111.251 168.203 111.648 166.475C111.826 165.669 112.015 164.832 112.203 163.858C112.266 163.523 112.297 163.157 112.318 162.811C112.402 161.733 112.475 160.717 113.397 160.717C114.14 160.717 114.381 161.346 114.643 162.078C114.768 162.413 114.904 162.769 115.093 163.083L115.187 163.24L115.459 162.539C119.521 152.373 121.971 146.238 123.426 135.152L123.259 135.119C122.892 136.478 122.61 137.559 121.468 138.366C121.427 138.219 121.395 138.072 121.364 137.947C121.186 137.277 121.05 136.753 120.694 136.061L120.6 135.872L120.537 136.076C119.992 137.706 119.239 138.68 118.349 139.8C117.972 140.271 117.584 140.753 117.176 141.339L117.124 141.423C115.867 143.234 115.103 144.344 113.365 145.537C113.428 145.108 113.501 144.699 113.564 144.302C113.983 141.716 114.297 139.842 114.297 136.9C114.297 135.462 114.192 134.561 113.648 133.34L113.512 133.049L113.47 133.446C113.313 134.733 113.114 136.334 111.879 136.334C111.355 136.334 111.188 135.869 110.978 135.33C110.915 135.145 110.842 134.957 110.758 134.782C110.539 134.336 110.329 133.98 110.12 133.635C109.837 133.154 109.575 132.699 109.314 132.062L109.219 131.809L109.146 132.073C108.832 133.328 108.434 134.892 107.073 134.892C106.037 134.892 105.765 133.998 105.44 132.961C105.273 132.432 105.105 131.883 104.822 131.408L104.718 131.228Z" fill="#AB0634"/>
<path d="M113.119 141.899L113.055 141.734L104.744 144.132L96.4313 141.734L96.375 141.903C97.2531 142.244 97.7779 142.72 98.3838 143.272C98.6913 143.551 99.008 143.839 99.3993 144.136C99.6767 144.344 99.9528 144.493 100.218 144.637C100.728 144.912 101.166 145.15 101.458 145.708C101.747 146.262 101.735 146.747 101.723 147.308C101.716 147.651 101.708 148.006 101.769 148.407C101.959 149.599 102.149 150.54 102.331 151.451C102.513 152.363 102.701 153.306 102.892 154.499C102.937 154.767 102.975 155.029 103.012 155.283C103.243 156.849 103.442 158.203 104.852 159.206L104.939 159.269L104.985 159.171C106.546 155.779 106.898 153.603 107.48 149.997L107.556 149.529C107.652 148.947 107.662 148.444 107.674 147.96C107.691 147.224 107.708 146.529 108.032 145.698C108.21 145.236 108.582 145.069 109.011 144.875C109.265 144.761 109.526 144.644 109.769 144.455C110.194 144.123 110.544 143.811 110.881 143.509C111.562 142.902 112.151 142.377 113.119 141.899Z" fill="black"/>
<path d="M101.296 63.8695L101.616 64.0642C103.016 64.9185 116.464 69.6894 118.705 70.4808L101.898 74.2204L102.334 74.2979C104.082 74.6162 111.628 76.9215 113.198 77.513L102.504 81.6033L102.538 81.775C107.377 81.6075 113.679 81.528 115.114 81.5667C114.015 82.0849 111.575 82.7403 109 83.4292C105.566 84.3452 102.027 85.2937 100.998 86.0915C100.997 86.0915 100.996 86.0915 100.994 86.0936L100.951 86.124V86.3553L101.076 86.2569C101.756 86.3606 112.214 90.2938 114.36 91.2539L112.413 94.0889C112.004 93.8513 109.952 92.729 106.623 92.2998C103.217 91.859 97.7338 92.0747 90.9644 95.5934C89.8547 94.491 88.5837 93.5372 87.3525 92.6138C86.6291 92.0705 85.8837 91.5072 85.1728 90.9189C85.133 90.8864 85.0912 90.856 85.0524 90.8225C84.931 90.7231 84.8232 90.6153 84.7185 90.5064C84.5164 90.2938 84.3374 90.0688 84.1646 89.8479C83.906 89.5149 83.6537 89.1935 83.3386 88.9538C83.0528 88.736 82.7178 88.5832 82.2749 88.557C80.0963 88.4366 78.3469 88.5403 76.654 88.6387C74.9674 88.7371 73.2232 88.8386 71.054 88.7193C70.5274 88.6879 70.1673 88.4628 69.8532 88.1466C69.67 87.9623 69.5025 87.7477 69.3255 87.5205C69.0743 87.197 68.8105 86.8652 68.4692 86.5741C68.4378 86.5469 68.4095 86.5197 68.377 86.4946C68.0075 86.1983 67.5877 85.992 67.1814 85.7931C66.658 85.5366 66.1858 85.299 65.9178 84.9179C65.7744 84.7137 65.6864 84.4719 65.6864 84.1589C65.6864 83.6291 65.9178 83.2868 66.1869 82.8911C66.347 82.6565 66.5114 82.4116 66.6412 82.108C66.769 81.8033 66.8318 81.507 66.8925 81.2202C67.0045 80.6936 67.1008 80.2371 67.5719 79.9031C68.3268 79.3702 69.0387 79.3336 69.8637 79.2917C70.3432 79.2666 70.8404 79.2415 71.389 79.1158L71.5241 79.0844L71.4382 78.9745C71.2435 78.7264 71.1189 78.4228 70.9964 78.1296C70.852 77.781 70.7096 77.4471 70.4667 77.2366C70.3107 77.1016 70.1139 77.0157 69.8448 77.0157C69.3067 77.0157 68.9319 77.1801 68.5362 77.3528C68.2723 77.468 68.0001 77.5873 67.663 77.6596C67.4578 77.7025 67.2547 77.713 67.0579 77.7234C66.6056 77.7465 66.1764 77.7685 65.8477 78.1705C65.6686 78.3882 65.5179 78.6008 65.3755 78.8133C64.629 79.9262 64.3338 80.9857 64.0093 82.1812C63.9318 82.4691 63.8512 82.7644 63.7643 83.0627C63.6334 83.5108 63.4837 83.9725 63.2921 84.4656C63.2838 84.4866 63.2775 84.5065 63.2691 84.5274L63.2471 84.5797L68.89 90.3054C68.9277 90.3724 68.9717 90.4268 69.0167 90.4792C69.3999 90.9251 70.028 90.8864 70.6384 90.8456C70.8258 90.8341 71.0184 90.8204 71.2069 90.8204H80.9548L91.0283 99.6157L91.067 99.6502L91.2649 99.5832L100.88 96.2718H107.105L109.565 97.1041L117.564 99.8093L117.595 99.7748C118.757 98.7268 119.72 97.6422 120.642 96.5932C122.934 94 124.923 91.7585 128.766 91.4612C130.127 91.3586 131.226 91.3669 132.283 91.3753C133.309 91.3816 134.356 91.39 135.665 91.301C136.429 91.2518 137.099 91.1879 137.727 91.122C137.884 91.1052 138.041 91.0885 138.188 91.0728C139.402 90.9429 140.533 90.8204 142.072 90.8204C142.103 90.8204 142.135 90.8445 142.187 90.8843L142.219 90.9126C142.114 90.9974 142.009 91.078 141.915 91.1565C141.831 91.2204 141.758 91.2842 141.685 91.3439C140.931 91.949 140.386 92.3856 139.402 92.9677L139.319 93.0169L139.371 93.0965C139.633 93.4587 139.884 93.7969 140.135 94.1256C141.297 95.6478 142.302 96.9638 142.302 99.2293C142.302 103.027 141.109 105.668 138.429 107.794C138.209 107.964 138.02 108.143 137.832 108.313C137.298 108.811 136.827 109.24 136.052 109.24C135.749 109.24 135.508 108.932 135.403 108.627C135.319 108.36 135.298 107.982 135.55 107.796C140.805 103.855 140.188 99.468 139.675 97.7647C139.277 96.4299 138.596 95.4751 138.23 95.452C136.618 95.3515 135.466 95.8216 134.618 96.9303C134.377 97.2622 134.409 97.6045 134.44 97.9657C134.45 98.1615 134.471 98.3646 134.44 98.575C134.325 99.4408 134.22 100.123 134.126 100.806C134.021 101.497 133.927 102.188 133.801 103.065C133.77 103.27 133.77 103.468 133.759 103.66C133.749 104.161 133.728 104.594 133.351 104.934C132.723 105.505 132.043 105.491 131.247 105.475C130.807 105.467 130.357 105.459 129.865 105.554C129.216 105.678 128.671 105.85 128.158 106.015C127.352 106.272 126.599 106.515 125.552 106.515C124.861 106.515 124.358 106.284 123.824 106.041C123.301 105.8 122.756 105.552 122.023 105.552C120.715 105.552 119.93 107.084 119.574 107.999L119.542 108.069L119.605 108.109C122.861 110.096 125.279 112.916 126.431 114.419C128.054 116.549 129.153 118.625 129.153 119.589V132.182H129.54C131.226 132.18 132.346 132.179 133.937 132.785C133.749 133.201 132.692 135.183 128.923 137.476C128.033 138.009 125.771 146.071 123.332 155.001C122.861 156.708 122.453 158.194 122.16 159.231C122.065 159.566 120.652 164.905 120.129 166.894C120.013 167.344 119.94 167.627 119.94 167.648L119.699 170.569L119.898 170.244L119.992 170.087C120.516 169.197 121.039 168.192 121.552 167.208C122.83 164.748 124.149 162.214 125.248 162.005C125.531 161.953 126.19 162.204 126.578 162.35C126.954 162.497 127.007 162.518 127.07 162.455L127.101 162.413L127.091 162.361C126.839 161.743 127.52 156.98 129.006 156.069C129.478 155.786 129.991 155.954 130.524 156.561L130.566 156.603L130.608 156.592C130.682 156.582 130.682 156.582 130.996 155.818C131.666 154.174 133.456 149.829 134.607 149.714C134.775 149.704 134.932 149.798 135.068 149.997L135.11 150.049L135.173 150.039C135.267 150.018 135.278 150.018 135.707 147.505C135.895 146.385 136.084 145.233 136.22 144.616C136.461 143.527 137.549 142.731 138.816 142.731C138.9 142.731 138.9 142.721 138.931 142.407C139.444 137.36 140.554 135.503 141.392 134.829C141.789 134.509 142.229 134.373 142.7 134.428L142.794 134.438V134.342C142.815 133.85 142.826 133.431 142.836 133.036C142.857 132.263 142.868 131.594 142.962 130.659C143.182 128.385 143.894 127.259 145.119 127.214L145.202 127.209V127.126C145.202 126.156 145.077 125.398 144.962 124.666C144.846 123.941 144.721 123.189 144.721 122.234C144.721 121.037 145.904 120.321 147.034 120.321H147.139L145.684 109.175C145.956 108.142 146.595 107.606 147.328 106.987C147.621 106.742 147.924 106.488 148.217 106.185C149.013 105.392 149.631 104.734 150.228 104.098C150.824 103.463 151.442 102.807 152.227 102.016L152.405 101.838L152.154 101.864C150.573 102.033 148.49 102.249 147.076 102.384C146.616 102.428 146.218 102.463 145.946 102.486C145.862 102.493 145.789 102.498 145.726 102.503L145.904 102.377L150.845 98.9383H144.784L148.165 92.2118L147.987 92.2464C147.788 92.283 147.61 92.327 147.432 92.373C146.877 92.5165 146.406 92.6955 145.935 92.8693C145.297 93.1101 144.689 93.3393 143.925 93.4692C143.831 93.4828 143.747 93.4974 143.663 93.51L146.396 87.7226L146.218 87.7582C145.789 87.8409 145.422 87.9268 145.066 88.0095C144.155 88.2178 143.37 88.3979 142.229 88.3979C142.187 88.3979 142.156 88.3738 142.114 88.334C142.083 88.312 142.051 88.2859 142.02 88.267C142.229 87.664 142.491 87.1677 142.742 86.6882C143.182 85.8591 143.601 85.077 143.601 83.9181C143.601 82.7078 143.182 81.8839 142.732 81.0139C142.47 80.503 142.208 79.9733 141.988 79.3221C141.894 79.029 141.821 78.739 141.748 78.4594C141.507 77.5172 141.297 76.7027 140.345 76.2242C139.894 76.0002 139.476 75.795 139.078 75.6003C137.476 74.8151 136.22 74.1943 134.419 73.1798C134.126 73.0175 133.77 72.9453 133.435 72.8772C132.786 72.7422 132.378 72.6323 132.378 72.135C132.378 71.3445 131.676 71.0933 130.996 70.8483C130.682 70.7373 130.357 70.6211 130.095 70.4557C129.362 69.9971 128.797 69.5815 128.253 69.1785C127.708 68.7733 127.143 68.3524 126.4 67.8897C126.138 67.7285 125.876 67.5913 125.614 67.4563C124.777 67.0218 124.055 66.6449 123.877 65.7058L123.866 65.6388L105.409 64.193L101.296 63.8695ZM160.142 73.429C159.168 73.429 158.613 73.9566 158.017 74.5146C157.703 74.8078 157.378 75.1093 156.97 75.3658C156.31 75.7824 155.745 76.1489 155.2 76.4923C153.965 77.2848 152.897 77.9695 151.358 78.8929C148.238 80.7501 145.778 82.2158 144.784 85.9889L144.731 86.2014L149.84 83.1078C149.997 83.6166 149.955 84.094 149.914 84.5557C149.861 85.1503 149.798 85.7638 150.207 86.3899L150.269 86.4904L153.735 82.5581C153.745 84.1222 152.625 86.7605 152.604 86.7887L152.478 87.0787L157.409 83.5862L154.53 89.0114L158.184 86.6286L152.374 96.2477L152.677 96.0655C152.96 95.9012 153.211 95.7494 153.442 95.608C154.771 94.8008 155.525 94.3433 157.19 93.8534L153.484 103.038L153.693 102.936C155.358 102.11 156.143 101.022 157.064 99.7601C157.409 99.2817 157.776 98.7865 158.205 98.2641C158.802 97.5501 159.42 97.0381 160.006 96.544C160.906 95.7871 161.765 95.071 162.393 93.755C163.126 92.216 163.199 90.9168 163.283 89.5411C163.325 88.7988 163.377 88.0314 163.524 87.1583C163.66 86.2873 163.859 85.5754 164.057 84.8865C164.361 83.8322 164.644 82.8366 164.644 81.4515C164.644 80.0466 164.12 79.1064 163.565 78.1098C163.272 77.58 162.969 77.0325 162.707 76.3719C162.665 76.2609 162.623 76.1499 162.581 76.0379C162.089 74.7554 161.566 73.429 160.142 73.429ZM59.8959 73.4886L59.854 73.4907C59.0134 73.5117 58.3077 73.5169 57.6241 73.5232C56.3186 73.5347 55.1921 73.5441 53.5997 73.6499C53.4626 73.6593 53.3275 73.6666 53.1946 73.675C51.8304 73.7546 50.6537 73.8247 49.8454 74.9711C49.3523 75.6652 49.0707 76.2954 48.7985 76.9047C48.5284 77.5109 48.2478 78.1391 47.76 78.8175C47.0062 79.856 46.4084 80.6768 45.8075 81.5007C45.2254 82.2995 44.6433 83.1025 43.9136 84.1076C43.7251 84.3724 43.5095 84.5881 43.3043 84.7965C42.8667 85.2403 42.4531 85.6591 42.4531 86.4045C42.4531 88.0074 42.6751 89.1234 42.9295 90.4163C43.0384 90.9649 43.1504 91.5324 43.2572 92.1888C43.3629 92.8253 43.3242 93.3959 43.2854 93.9476C43.2247 94.8302 43.1682 95.6635 43.7524 96.5524C44.236 97.28 44.9123 97.4684 45.6295 97.6663C46.0755 97.7898 46.5361 97.9186 46.9853 98.1845C49.5136 99.6994 51.6147 100.722 53.6468 101.714C55.6747 102.702 57.7707 103.726 60.2916 105.237L60.4026 105.099L53.4887 97.7155H53.7452L59.9797 100.753L60.0833 100.611L53.0417 93.1006L59.5232 94.0272L59.5703 93.8555C57.0745 92.8599 55.3261 91.8862 53.4751 90.856C52.3602 90.2352 51.2054 89.5935 49.7962 88.8889C49.1555 88.5685 48.5431 88.3612 47.9495 88.1602C46.7487 87.754 45.7101 87.4022 44.905 86.2569C46.6492 84.6782 47.4438 83.1727 48.363 81.4358C48.8362 80.5407 49.3272 79.6142 49.9931 78.5966C50.2464 78.2029 50.394 77.8156 50.5364 77.4387C50.7688 76.8252 50.9688 76.2954 51.5687 75.8987C51.9665 75.6422 52.334 75.6819 52.759 75.7291C53.027 75.7594 53.3024 75.7908 53.6165 75.7521C53.9494 75.7071 54.253 75.6652 54.5378 75.6254C55.5219 75.4883 56.2966 75.3783 57.4377 75.2695L62.8137 76.1101L62.6493 75.9238C62.1604 75.3721 61.6966 75.0192 61.2475 74.6769H61.2454C60.8224 74.3534 60.3848 74.0205 59.9221 73.519L59.8959 73.4886ZM113.899 107.684C112.099 107.684 111.533 109.548 110.853 111.211C110.759 111.431 110.413 111.804 109.911 112.265C108.518 113.564 105.974 115.564 104.917 116.822V120.992H107C114.077 120.992 117.731 124.977 122.714 129.968C122.379 128.304 122.714 127.203 122.076 125.639C121.249 123.675 119.228 123.595 118.391 121.631L122.557 124.036C121.469 121.973 120.307 121.07 118.548 119.548C120.432 119.367 121.573 120.148 123.039 121.31C121.678 118.746 119.951 117.844 117.427 116.341C119.469 116.141 120.673 116.721 122.557 117.463C120.872 115.779 119.448 115.258 117.26 114.256C118.15 113.916 118.705 113.616 119.668 113.616C121.217 113.616 121.887 114.235 123.374 114.616C123.364 114.595 123.343 114.573 123.332 114.552C121.898 112.473 116.14 107.684 113.899 107.684ZM93.6843 107.858C91.6428 107.858 89.0025 110.524 87.0667 112.565C86.5317 113.129 86.0501 113.647 85.6513 114.045C85.6513 114.045 86.5296 113.295 88.0728 113.295C89.0349 113.295 89.438 114.091 90.3195 114.432C88.0749 115.473 86.6123 116.057 84.8682 117.8C86.6123 116.757 87.8142 116.356 89.839 116.356C89.9792 116.356 90.04 116.515 90.1604 116.515C87.6352 118.018 85.9099 118.921 84.5468 121.486C85.9298 120.383 86.9327 119.563 88.7167 119.563C88.8569 119.563 88.9177 119.722 89.037 119.722C87.2143 121.285 86.1904 122.367 84.8682 124.371L89.1176 121.805C88.5565 123.83 86.4124 123.912 85.5099 125.815C84.7886 127.338 85.1697 128.481 84.8682 130.144C89.8578 125.154 93.5032 121.166 100.579 121.166H102.663V117.317C102.663 116.304 100.373 114.769 98.0678 112.275C98.0479 112.253 98.029 112.231 98.0092 112.209C96.4178 110.475 96.0692 107.858 93.6843 107.858Z" fill="#908C89"/>
<path d="M77.6349 96.6707C77.6045 97.6317 77.392 98.1332 77.86 99.0514C78.5604 100.414 80.003 100.495 81.5462 100.495C82.0466 100.495 82.3691 100.314 82.8308 100.174C82.4089 99.8533 82.1492 99.6523 81.7074 99.3717C81.8886 99.2524 81.942 99.065 82.1084 98.8912C82.121 98.8797 82.8926 99.4942 83.6296 99.6931C83.9531 99.78 84.1782 99.4502 84.3719 99.1372L77.6349 96.6707ZM129.916 96.7492L122.975 99.6722C123.676 100.538 124.545 101.028 125.718 101.028C126.608 101.028 127.163 100.907 127.969 100.545C127.55 100.225 127.288 100.025 126.849 99.7444C126.849 99.7434 127.236 99.2429 127.247 99.2639C127.278 99.3131 127.948 99.9015 128.765 100.065C129.78 100.266 129.864 97.7301 129.916 96.7492Z" fill="#77B5E6"/>
<path d="M75.2949 95.6854C75.855 97.1281 75.6551 98.1687 76.4172 99.5318C77.46 101.375 79.1015 102.098 81.2268 102.098C83.3677 102.098 84.7706 101.278 86.1913 99.6993C86.1924 99.6962 86.1934 99.6941 86.1955 99.693C86.1871 99.691 86.1808 99.6878 86.1725 99.6847L86.1746 99.6826C85.5108 99.424 85.2239 99.1141 84.5508 98.8566C84.4932 98.9382 84.4346 99.0377 84.3728 99.1371C84.1791 99.4502 83.954 99.7799 83.6305 99.693C82.8935 99.4941 82.1209 98.8796 82.1093 98.8911C81.9429 99.0649 81.8895 99.2523 81.7084 99.3716C82.1502 99.6522 82.4098 99.8532 82.8317 100.174C82.37 100.314 82.0476 100.495 81.5471 100.495C80.004 100.495 78.5613 100.414 77.8609 99.0513C77.393 98.1331 77.6055 97.6317 77.6358 96.6706C77.6379 96.6036 77.64 96.5397 77.64 96.4664C77.64 96.4434 75.2949 95.6854 75.2949 95.6854ZM131.938 95.8571C131.917 95.8791 129.948 96.435 129.938 96.4664C129.938 96.5324 129.928 96.6318 129.917 96.7491C129.865 97.7301 129.781 100.266 128.765 100.065C127.949 99.9014 127.279 99.313 127.247 99.2638C127.237 99.2429 126.85 99.7433 126.85 99.7443C127.289 100.025 127.551 100.225 127.97 100.545C127.164 100.906 126.609 101.028 125.719 101.028C124.546 101.028 123.677 100.538 122.976 99.6721C122.913 99.5999 122.85 99.5297 122.798 99.4523C122.788 99.4428 122.788 99.4345 122.777 99.425C122.651 99.4983 122.526 99.5632 122.411 99.6281C122.118 99.7873 121.856 99.9317 121.584 100.086C121.416 100.179 121.249 100.275 121.071 100.386C121.615 100.742 122.086 101.09 122.557 101.403C123.594 102.109 124.567 102.632 126.043 102.632C129.593 102.632 131.435 99.3643 131.938 95.8571ZM104.172 101.648C101.205 101.648 99.682 102.89 96.7966 103.572C97.5379 104.313 97.8195 105.337 98.8821 105.337H109.146C110.204 105.337 110.026 104.516 110.758 103.774C108.256 102.452 107.021 101.648 104.172 101.648ZM106.801 127.461C105.744 127.461 104.801 128.241 104.801 129.303C104.801 131.227 106.026 132.09 106.728 133.873C107.429 132.09 108.644 131.227 108.644 129.303C108.644 128.28 107.827 127.461 106.801 127.461ZM102.422 127.928C101.539 127.928 100.577 128.328 100.577 129.209V131.455C101.619 132.257 102.02 133.077 102.34 134.34C103.042 132.556 104.267 131.693 104.267 129.77C104.267 128.747 103.444 127.928 102.422 127.928ZM111.24 128.087C110.675 128.087 110.298 128.247 109.879 128.567V131.133C109.879 133.057 111.481 133.778 111.962 135.621C112.245 134.2 112.559 133.377 113.24 132.094V128.726C112.444 128.527 112.057 128.087 111.24 128.087ZM97.8268 128.101C97.005 128.101 96.5642 128.423 95.823 128.743V130.506C95.823 132.51 96.6438 133.533 97.1055 135.477C97.786 133.754 99.1889 133.012 99.1889 131.148V128.121C98.6675 128.201 98.3681 128.101 97.8268 128.101ZM93.5773 129.064C91.1935 129.064 89.0902 130.846 89.0902 133.231C89.0902 137.905 91.4134 140.522 94.7007 143.809L93.7375 136.837C93.8977 134.814 94.8598 133.813 94.8598 131.79V129.704C94.439 129.364 94.1395 129.064 93.5773 129.064ZM115.323 129.209C114.663 129.209 114.046 129.669 114.046 130.33V131.774C114.046 133.837 115.166 134.92 115.166 136.983C115.166 139.726 114.642 141.234 114.203 143.956C117.207 140.386 119.814 138.041 119.814 133.377C119.814 130.992 117.71 129.209 115.323 129.209ZM96.5695 161.429C95.1257 165.763 94.4861 168.349 94.4861 172.893C94.4861 174.463 95.0012 176.348 96.5695 176.348H98.0132C98.455 176.348 98.7533 176.065 98.9742 175.699L96.5695 161.429ZM113.397 161.429L110.999 176.023C111.355 176.159 111.554 176.348 111.962 176.348H113.889C114.82 175.217 115.49 174.38 115.49 172.893C115.49 168.349 115.323 165.564 113.397 161.429ZM105.063 170.569C104.665 172.076 103.462 172.694 103.462 174.254V176.808C104.404 176.787 104.948 176.986 105.869 176.819C106.948 176.641 106.654 175.196 106.675 174.097C106.707 172.6 105.608 171.951 105.063 170.569ZM101.058 170.736C100.597 171.752 99.616 172.15 99.616 173.301C99.616 174.704 99.6359 175.678 100.418 176.819H102.821V174.097C102.821 172.61 101.859 171.951 101.058 170.736ZM108.916 170.736C108.35 171.93 107.314 172.432 107.314 173.772V176.808C107.796 176.746 108.089 176.819 108.591 176.819C110.12 176.819 110.361 174.819 110.361 173.301C110.361 172.15 109.534 171.678 108.916 170.736Z" fill="white"/>
</g>
<defs>
<clipPath id="clip0_15016_302776">
<rect width="200" height="200" fill="white" transform="translate(0.605469 0.378906)"/>
</clipPath>
</defs>
</svg>
