<svg width="201" height="201" viewBox="0 0 201 201" fill="none" xmlns="http://www.w3.org/2000/svg">
<g clip-path="url(#clip0_15016_304391)">
<path d="M194.137 118.444L199.457 104.044H167.161L166.673 105.364L165.553 104.044H132.193L131.161 106.844L128.785 104.044H86.385C87.001 103.708 87.489 103.396 87.865 103.132C87.873 103.124 87.977 103.044 87.977 103.044C87.985 103.036 90.449 101.212 90.449 101.212L91.857 100.172L90.529 99.8118C91.161 99.3158 91.705 98.8358 92.137 98.3798C92.217 98.2918 92.297 98.2118 92.369 98.1238L93.641 96.6678L94.385 95.8198L93.361 95.3398L92.977 95.1638C94.265 93.7478 95.233 92.1878 95.833 91.1078L96.729 89.4758L97.249 88.5238C97.249 88.5238 96.849 88.4198 96.545 88.3318C97.457 87.1958 98.025 86.1478 98.353 85.4118L99.025 83.9078L99.417 83.0278C99.417 83.0278 99.265 82.9798 99.081 82.9238C99.577 82.1558 100.049 81.2038 100.473 80.0678L102.089 75.7878L103.017 73.3158L100.817 74.7878L96.993 77.3398C96.161 77.8918 95.817 77.9958 95.761 78.0118C95.545 78.0198 93.601 78.1078 93.601 78.1078L93.433 78.1158L93.281 78.1878L93.177 78.2358L93.249 77.3638L92.185 77.5318L90.329 77.8198C89.361 77.9718 88.217 78.2918 86.929 78.7718C86.225 78.5318 84.849 78.1558 83.313 78.1718L83.737 77.3958L82.209 77.4838L79.569 77.6358C78.233 77.7078 76.393 77.8918 74.665 78.3078L74.649 77.9958L74.609 77.0278L73.657 77.1958L72.001 77.4838C71.273 77.6118 70.257 77.8678 69.121 78.3798L69.153 77.7958L67.937 78.2358L65.817 79.0118C65.513 79.1238 62.985 80.0598 60.417 81.4278C60.225 81.1638 60.001 80.8518 60.001 80.8518L59.625 80.3238L59.017 80.5478L57.953 80.9398C57.761 81.0118 56.857 81.3478 55.809 81.8438C53.817 80.1318 51.217 78.5318 48.057 77.0918C48.601 76.5718 48.905 76.1158 48.929 76.0918L49.521 75.2278L48.553 74.8278C47.193 74.2678 46.713 73.5318 46.545 73.1078C47.641 71.9638 47.921 70.2838 47.953 70.0758L48.081 69.1958L47.201 69.1078C43.481 68.7238 42.393 67.7478 42.081 67.2038C41.817 66.7478 41.945 66.3558 41.985 66.2518C45.121 61.0278 42.289 55.4278 41.385 53.8998C41.673 53.1238 41.657 52.5398 41.321 52.1638L40.921 51.6758L40.353 51.9478C37.505 53.2918 33.449 58.3158 32.305 59.7718C31.793 59.7638 31.113 59.8678 30.153 60.0118C28.745 60.2278 26.809 60.5158 24.713 60.5158C22.609 60.5158 20.673 60.2278 19.265 60.0118C18.305 59.8678 17.625 59.7638 17.113 59.7718C15.969 58.3158 11.921 53.2918 9.07303 51.9478L8.50503 51.6758L8.08103 52.1398C7.74503 52.5078 7.72903 53.0998 8.01703 53.8758C7.12103 55.4118 4.28103 61.0118 7.42503 66.2358C7.45703 66.3158 7.59303 66.7158 7.32903 67.1798C7.00903 67.7238 5.92903 68.6998 2.20903 69.0838L1.32903 69.1718L1.45703 70.0518C1.48903 70.2598 1.76103 71.9398 2.86503 73.0838C2.69703 73.5078 2.20903 74.2438 0.857031 74.8038L-0.110969 75.2038L0.473031 76.0678C0.521031 76.1398 1.60103 77.6998 3.37703 78.4438C3.33703 79.0358 3.04103 79.9958 1.59303 80.3798L0.153031 80.7718L1.22503 81.8118C1.27303 81.8598 1.48903 82.0518 1.90503 82.3078C0.689031 84.7238 -0.0629687 87.2278 -0.326969 89.7638L-0.454969 90.9718L-0.542969 91.6838L0.137031 91.8838L1.10503 92.1638C1.05703 94.1878 1.01703 96.5158 1.07303 97.3718C1.12903 98.2198 1.57703 99.3318 3.30503 103.348C4.50503 106.14 6.72903 111.308 6.81703 112.62C6.85703 113.204 6.82503 113.516 6.79303 113.86C6.75303 114.3 6.72903 114.652 6.76103 115.06C6.84103 116.3 7.37703 117.812 9.03303 121.524C9.90503 123.476 10.113 125.26 10.209 126.596C10.249 127.228 10.265 127.852 10.281 128.396C10.297 128.908 10.313 129.436 10.345 129.956C10.521 132.692 11.305 135.652 15.633 136.94C16.969 137.828 18.993 138.38 20.905 137.46C21.361 137.58 21.921 137.684 22.513 137.684C22.529 137.828 22.545 138.02 22.545 138.26C22.545 138.78 22.473 139.652 22.129 140.804L22.113 140.868L22.105 140.9L22.097 140.932L22.081 140.996C22.041 141.18 21.921 141.828 21.921 142.66C21.921 144.42 22.449 145.836 23.449 146.78C24.145 147.436 25.385 148.14 27.369 147.892C28.129 148.252 29.617 148.724 31.337 148.132C32.209 148.436 33.633 148.668 35.225 147.82C35.953 147.812 36.921 147.66 37.785 147.052C38.345 146.652 39.065 145.908 39.313 144.628C39.369 144.404 39.513 143.844 39.601 143.092C39.649 142.668 39.673 142.244 39.673 141.836C39.673 141.564 39.665 141.292 39.641 141.028C39.449 138.644 38.337 136.788 36.505 135.732H42.249L45.465 127.036L47.873 133.66L52.505 129.444L50.289 135.732L139.265 135.7L139.753 134.38L140.873 135.7H156.097L164.081 130.676L162.225 135.7H181.017L185.649 123.18H183.841L185.593 118.436H194.137V118.444ZM81.193 114.332L77.617 118.948L82.513 105.716C83.329 105.436 84.057 105.156 84.697 104.876L81.193 114.332ZM103.001 119.388L102.897 116.564H104.049L103.001 119.388ZM168.649 123.18H166.873L167.841 120.556L166.057 118.46H170.393L168.649 123.18Z" fill="white"/>
<path d="M167.752 104.892L166.968 107.02L165.168 104.892H151.616H150.584H149.744H148.416H132.808L131.456 108.508L128.392 104.9H107.456L103.456 115.724H105.264C104.552 117.652 102.904 122.1 102.312 123.7C102.232 121.668 102.08 117.628 102.008 115.724H102.032L106.032 104.9H85.5924C85.5924 104.9 82.1604 114.196 81.9524 114.756C81.6804 115.108 76.1444 122.244 74.9124 123.844C75.8564 121.3 80.4404 108.884 81.8644 105.044C84.6324 104.14 86.3684 103.164 87.3924 102.444L87.4964 102.372L89.9604 100.54C89.9604 100.54 89.2804 100.356 88.6004 100.172C88.8004 100.036 89.0004 99.9079 89.1844 99.7719C90.1684 99.0759 90.9604 98.4199 91.5364 97.8039C91.6084 97.7239 91.6804 97.6519 91.7444 97.5719L93.0164 96.1159C93.0164 96.1159 91.9524 95.6119 91.5524 95.4279C91.7684 95.2279 91.9764 95.0199 92.1764 94.8039C93.4804 93.4279 94.4644 91.8679 95.1044 90.6999L96.0004 89.0759C96.0004 89.0759 95.5044 88.9399 95.0164 88.8119C95.0644 88.7639 95.1204 88.7079 95.1684 88.6599C96.4484 87.2999 97.1924 85.9879 97.6004 85.0759L98.2724 83.5719C98.2724 83.5719 97.9604 83.4759 97.6884 83.3959C98.4164 82.6199 99.0964 81.4119 99.7044 79.7959L101.312 75.5159L97.4884 78.0679C96.4324 78.7719 95.9924 78.8679 95.8564 78.8839C95.8244 78.8839 93.6644 78.9799 93.6644 78.9799L93.4004 79.0999C92.9764 79.2919 92.6004 79.4439 92.2484 79.5719C92.2964 79.0279 92.3444 78.3879 92.3444 78.3879L90.4884 78.6759C89.4964 78.8279 88.3124 79.1719 86.9684 79.6919C86.3204 79.4519 84.0244 78.6919 81.8164 79.2119C82.0404 78.8039 82.2884 78.3479 82.2884 78.3479L79.6484 78.4999C78.0244 78.5879 75.7764 78.8279 73.8964 79.4279C73.8804 79.0359 73.8404 78.0439 73.8404 78.0439L72.1844 78.3319C71.1924 78.5079 69.7524 78.9079 68.2164 79.8359C68.2404 79.4759 68.2644 79.0519 68.2644 79.0519L66.1444 79.8199C65.9924 79.8759 62.9764 80.9799 60.1764 82.5639C60.1284 82.4599 60.0724 82.3639 60.0084 82.2759L59.3524 81.3639L58.2884 81.7559C58.0804 81.8279 56.9284 82.2679 55.7204 82.8759C53.0804 80.4599 49.5204 78.6119 46.4724 77.3239C47.6004 76.6199 48.2724 75.6359 48.2724 75.6359C45.6964 74.5719 45.6484 72.8359 45.6484 72.8359C46.8724 71.9079 47.1524 69.9799 47.1524 69.9799C39.6004 69.2039 41.2644 65.8919 41.2644 65.8919C44.6804 60.2839 40.4724 54.0039 40.4724 54.0039C40.9444 53.0039 40.7284 52.7639 40.7284 52.7639C37.6084 54.2359 32.6964 60.7319 32.6964 60.7319C31.9684 60.4199 28.7044 61.4199 24.7284 61.4199C20.7524 61.4199 17.4884 60.4199 16.7604 60.7319C16.7604 60.7319 11.8484 54.2439 8.72839 52.7639C8.72839 52.7639 8.51239 53.0039 8.98439 54.0039C8.98439 54.0039 4.78439 60.2839 8.19239 65.8919C8.19239 65.8919 9.85639 69.2039 2.30439 69.9799C2.30439 69.9799 2.58439 71.9079 3.80839 72.8359C3.80839 72.8359 3.75239 74.5719 1.18439 75.6359C1.18439 75.6359 2.36039 77.3559 4.20039 77.8759C4.20039 77.8759 4.68039 80.4759 1.82439 81.2519C1.82439 81.2519 2.18439 81.6039 3.06439 81.9959C1.87239 84.1559 0.848391 86.8279 0.528391 89.8999L0.400391 91.1079L1.57639 91.4519C1.67239 91.4759 1.81639 91.5159 1.99239 91.5559C1.92039 93.4199 1.85639 96.3559 1.92039 97.3159C1.96839 98.0439 2.52039 99.3799 4.08039 103.012C5.46439 106.236 7.56039 111.1 7.65639 112.564C7.69639 113.212 7.66439 113.58 7.63239 113.94C7.60039 114.316 7.57639 114.636 7.60039 115.004C7.67239 116.068 8.12839 117.444 9.80039 121.18C10.6644 123.116 10.9364 124.9 11.0484 126.548C11.0884 127.18 11.1044 127.796 11.1204 128.38C11.1364 128.892 11.1524 129.404 11.1844 129.908C11.3604 132.556 12.0564 135.052 15.9924 136.172C17.0324 136.9 18.9764 137.62 20.8164 136.556C21.4324 136.756 22.2724 136.94 23.1124 136.804C23.1684 136.924 23.2164 137.044 23.2804 137.172C23.3044 137.276 23.4004 137.644 23.4004 138.276C23.4004 138.932 23.3044 139.868 22.9444 141.068L22.9284 141.124L22.9204 141.188C22.8884 141.324 22.7764 141.916 22.7764 142.676C22.7764 143.764 23.0084 145.204 24.0324 146.172C24.6484 146.748 25.7284 147.316 27.5124 147.028C28.4244 147.516 29.8244 147.868 31.3444 147.236C32.2724 147.644 33.6084 147.812 35.0084 146.98C35.6244 147.004 36.5204 146.916 37.2884 146.364C37.7364 146.044 38.2964 145.452 38.4804 144.428C38.5284 144.252 38.6644 143.724 38.7444 142.996C38.7844 142.644 38.8164 142.252 38.8164 141.836C38.8164 141.596 38.8084 141.356 38.7844 141.1C38.5924 138.74 37.4324 137.02 35.5044 136.18C35.2164 135.716 34.7684 134.972 34.7444 134.932C34.7364 134.916 34.7284 134.9 34.7204 134.884H41.6564C41.6564 134.884 45.2484 125.172 45.4724 124.564C46.4244 127.172 48.2404 132.172 48.2404 132.172C48.2404 132.172 52.4564 128.34 54.4324 126.54C53.7364 128.484 51.4804 134.876 51.4804 134.876H73.5044L73.5124 134.844H138.664L139.448 132.716L141.256 134.844H155.848L163.416 130.084L166.872 120.716C166.872 120.716 165.256 118.812 164.224 117.596H171.608C170.864 119.612 169.608 123.02 169.232 124.02H167.424L163.424 134.836H180.4L184.4 124.02H182.592C183.304 122.092 184.072 120.02 184.968 117.58H193.528L198.216 104.884H167.752V104.892Z" fill="black"/>
<path d="M19.4723 81.3639C19.3523 83.2759 20.2403 87.1159 20.2403 87.1159C21.4003 89.9239 21.6563 93.1319 21.6563 93.1319C20.2323 93.1319 20.0803 91.6439 19.5123 90.1399C19.1923 88.6679 18.6963 83.3319 11.7283 82.3559C11.7283 82.3559 16.8883 84.5879 17.2243 87.0359C16.6483 86.5719 16.0403 86.2359 15.1923 85.8118C12.3363 84.3799 6.48028 84.5639 6.48028 84.5639C7.00828 82.5319 8.16028 81.6999 8.16028 81.6999C6.42428 81.6999 4.62428 80.8999 4.62428 80.8999C6.28028 79.6839 5.40828 76.4359 5.40828 76.4359C4.28828 76.7399 3.48828 75.9239 3.48828 75.9239C5.16828 74.9879 5.33628 72.1079 5.33628 72.1079C4.56828 71.8279 4.27228 71.0839 4.27228 71.0839C9.52028 70.3559 9.92028 66.8039 9.92028 66.8039C9.92028 66.8039 10.0803 65.8359 9.63228 65.3799C6.84828 62.5319 9.17628 56.5479 9.17628 56.5479C8.83228 61.4039 10.1523 63.2839 10.5843 64.0839C10.6163 64.1399 10.6403 64.1879 10.6723 64.2439C10.6803 64.2519 10.6883 64.2679 10.6963 64.2759C10.7203 64.3159 10.7443 64.3479 10.7683 64.3879C10.7763 64.3959 10.7843 64.4119 10.7923 64.4199C10.8163 64.4519 10.8403 64.4919 10.8643 64.5239C10.8723 64.5319 10.8803 64.5399 10.8883 64.5559C10.9123 64.5879 10.9363 64.6199 10.9603 64.6519C10.9683 64.6599 10.9683 64.6679 10.9763 64.6759C11.0003 64.7079 11.0243 64.7399 11.0483 64.7719C11.0563 64.7799 11.0563 64.7799 11.0643 64.7879C11.0883 64.8199 11.1123 64.8519 11.1363 64.8839V64.8919C11.3363 65.1399 11.5203 65.3239 11.6563 65.4999C11.6563 65.5079 11.6643 65.5079 11.6643 65.5079C11.6803 65.5319 11.6963 65.5479 11.7123 65.5719C11.7123 65.5799 11.7203 65.5799 11.7203 65.5879C11.7283 65.6039 11.7443 65.6199 11.7523 65.6439C11.9923 66.0679 11.9123 66.5559 11.1123 67.8919C9.32828 70.8679 9.44028 72.0999 9.44028 72.0999C9.81628 74.8199 14.2563 76.7319 14.2563 76.7319C12.8083 76.7319 11.3203 77.7879 11.3203 77.7879C14.5603 82.4039 19.4723 81.3639 19.4723 81.3639ZM27.8963 92.0359C27.8003 92.7079 27.7603 93.1319 27.7603 93.1319C29.1843 93.1319 29.3363 91.6439 29.9043 90.1399C30.2243 88.6679 30.7203 83.3239 37.6963 82.3559C37.6963 82.3559 32.5363 84.5879 32.2003 87.0359C32.7763 86.5719 33.3843 86.2359 34.2323 85.8118C37.0883 84.3799 42.9443 84.5639 42.9443 84.5639C42.4163 82.5319 41.2643 81.6999 41.2643 81.6999C43.0003 81.6999 44.8003 80.8999 44.8003 80.8999C43.1443 79.6839 44.0163 76.4359 44.0163 76.4359C45.1363 76.7399 45.9363 75.9239 45.9363 75.9239C44.2563 74.9879 44.0883 72.1079 44.0883 72.1079C44.8563 71.8279 45.1523 71.0839 45.1523 71.0839C39.9043 70.3559 39.5043 66.8039 39.5043 66.8039C39.5043 66.8039 39.3443 65.8359 39.7923 65.3799C42.5763 62.5319 40.2483 56.5479 40.2483 56.5479C40.5603 60.9479 39.5123 62.9079 38.9843 63.8279C38.9283 63.9239 38.8803 64.0119 38.8403 64.0839C38.8083 64.1399 38.7843 64.1879 38.7523 64.2359C38.7363 64.2599 38.7283 64.2759 38.7123 64.2919C38.6963 64.3239 38.6803 64.3479 38.6643 64.3799C38.6483 64.4039 38.6403 64.4199 38.6243 64.4439C38.6083 64.4679 38.5923 64.4919 38.5763 64.5159C38.5603 64.5399 38.5523 64.5559 38.5363 64.5719C38.5203 64.5959 38.5043 64.6199 38.4883 64.6439C38.4803 64.6599 38.4643 64.6759 38.4483 64.6919C38.4323 64.7159 38.4163 64.7399 38.4003 64.7559C38.3923 64.7719 38.3763 64.7799 38.3683 64.7959C38.3523 64.8199 38.3283 64.8359 38.3123 64.8599C38.3043 64.8679 38.2963 64.8839 38.2883 64.8919C38.2643 64.9159 38.2483 64.9399 38.2243 64.9639C38.2163 64.9719 38.2163 64.9719 38.2083 64.9799C38.0643 65.1399 37.9363 65.2839 37.8403 65.4119C37.8243 65.4359 37.8003 65.4599 37.7843 65.4839C37.7683 65.5079 37.7523 65.5319 37.7363 65.5559C37.7203 65.5799 37.7043 65.6039 37.6963 65.6279C37.4563 66.0519 37.5363 66.5399 38.3363 67.8759C40.1283 70.8519 40.0083 72.0839 40.0083 72.0839C39.6323 74.8039 35.1923 76.7159 35.1923 76.7159C36.6403 76.7159 38.1283 77.7719 38.1283 77.7719C34.8563 82.4039 29.9443 81.3639 29.9443 81.3639C30.0643 83.2759 29.1763 87.1159 29.1763 87.1159C28.4483 88.8599 28.0803 90.7639 27.9043 91.9479L27.8963 92.0359ZM40.4323 89.0199C40.2003 88.0519 39.7363 87.0279 39.1603 86.0199C38.9763 86.0359 38.7923 86.0599 38.6083 86.0839C36.7203 86.3239 34.7923 86.8359 33.4563 87.8679C32.7843 88.3799 32.2723 88.9479 31.8723 89.4919C31.8643 89.5399 31.8643 89.5639 31.8643 89.5639C31.8643 89.5639 31.8243 89.5959 31.7523 89.6599C30.7203 91.1719 30.5603 92.5399 30.5603 92.5399C30.5603 92.5399 30.5523 92.6039 30.5203 92.7079C30.3283 93.5159 29.2323 96.9879 24.7043 96.9879C19.5843 96.9879 18.8563 92.5399 18.8563 92.5399C18.8563 92.5399 18.6963 91.1639 17.6563 89.6599C17.5843 89.6039 17.5443 89.5639 17.5443 89.5639C17.5443 89.5639 17.5443 89.5399 17.5363 89.4919C17.1363 88.9399 16.6243 88.3799 15.9523 87.8679C14.1523 86.4839 11.2883 86.0279 8.88828 85.9159C8.46428 87.2039 8.17628 88.5879 8.17628 89.9719L9.77628 88.9719C9.77628 88.9719 7.90428 95.9799 9.55228 100.012L10.7683 98.5639C10.7683 98.5639 13.0323 104.412 17.2883 107.468C17.2883 107.468 21.2083 107.084 22.8003 106.764C22.8003 106.764 22.0323 108.172 20.4163 109.124C20.4163 109.124 24.5203 109.884 31.0643 103.396C31.0643 103.396 31.1603 105.172 30.5443 105.788C30.5443 105.788 37.0323 102.636 38.7283 95.4679C38.7283 95.4679 39.4163 96.9959 39.4163 97.9079C39.4243 97.9239 41.4403 93.2679 40.4323 89.0199ZM89.0563 95.6199C89.0803 95.5959 89.9523 94.6199 90.5283 93.4039C90.8163 92.7959 91.0323 92.1319 91.0323 91.4839C91.0323 91.4839 89.4003 92.0919 88.6563 91.9639C88.6563 91.9639 88.6643 91.9559 88.6723 91.9479C88.8483 91.7559 90.2803 90.1559 90.2803 88.5639C90.2803 88.5639 87.4643 89.8759 86.0963 90.1159C86.0963 90.1159 86.1043 90.0999 86.1203 90.0759C86.4003 89.6839 88.6803 86.4999 89.7363 85.7639H89.7283C89.6083 85.7719 88.0243 85.9239 86.6723 85.6279C86.3523 85.5559 86.0403 85.4599 85.7683 85.3239C85.7683 85.3239 86.7523 84.3879 87.7683 83.9239C87.8323 83.8919 87.9043 83.8599 87.9683 83.8359C87.9683 83.8359 87.9283 83.8199 87.8483 83.7959C87.8083 83.7879 87.7603 83.7719 87.7043 83.7558C87.2243 83.6279 86.0643 83.4359 83.9843 83.6999C83.9843 83.6999 85.8083 82.4199 85.9363 81.6679C85.9363 81.6679 85.9283 81.6679 85.9283 81.6599C83.7363 79.8999 79.6563 80.6759 79.2483 81.0439C78.8403 81.4119 78.9523 81.3399 78.9523 81.3399L74.9683 84.8919C78.3203 85.0199 82.2163 84.5719 82.2163 84.5719C81.7123 84.9239 80.3763 86.3239 80.3763 86.3239C81.7523 86.5559 83.7043 87.4919 83.7043 87.4919C80.3043 88.5479 77.8723 90.1079 77.8723 90.1079C78.9123 90.7159 84.7203 90.3559 84.7203 90.3559C83.1763 90.6278 80.2323 93.2519 80.2323 93.2519C80.3203 93.2679 80.4403 93.2839 80.5683 93.2999H88.8643L88.3283 94.6838L86.9123 98.3239L86.3043 99.8839L86.9523 99.4759C87.4643 99.1559 87.9123 98.8599 88.3043 98.5799C89.5043 97.7319 90.2003 97.0759 90.6083 96.6119C90.4003 96.5159 90.2483 96.4198 90.1763 96.3719L89.0563 95.6199Z" fill="white"/>
<path d="M26.7141 92.6116C26.7141 92.6116 27.2181 94.6116 25.9541 95.8676C25.9541 95.8676 24.4901 96.2836 23.5621 95.8996C23.5701 95.8996 24.1621 95.8996 24.8341 95.5956C25.3461 95.3636 25.8981 94.9556 26.2741 94.2436C25.9061 94.3156 25.3381 94.3396 25.2741 93.9796C25.1861 93.4996 26.4021 93.5796 26.5381 93.5876C26.6261 93.2916 26.6821 92.9716 26.7141 92.6116ZM19.0261 79.0436C18.8901 79.7796 18.2501 80.3316 17.4661 80.3316C16.5941 80.3316 15.8821 79.6276 15.8821 78.7636C15.8821 78.1876 16.1941 77.6916 16.6581 77.4196C15.0581 77.1636 13.1701 77.6196 12.3301 77.9556C15.0901 81.4836 19.2981 80.7236 19.2981 80.7236C19.3221 80.2036 19.2741 79.7556 19.1621 79.3716C19.1301 79.2516 19.0821 79.1396 19.0261 79.0436ZM32.9781 77.3796C32.9301 77.3876 32.8821 77.3876 32.8421 77.3956C32.8181 77.3956 32.7941 77.4036 32.7701 77.4036C33.2341 77.6756 33.5381 78.1796 33.5381 78.7476C33.5381 79.6116 32.8261 80.3156 31.9541 80.3156C31.1621 80.3156 30.5061 79.7396 30.3861 78.9876C30.1861 79.4356 30.0821 80.0036 30.1221 80.6916C30.1221 80.6916 34.3221 81.4596 37.0821 77.9236C36.2901 77.6276 34.5301 77.1956 32.9781 77.3796Z" fill="#1C1C1C"/>
<path d="M23.377 93.5799C23.625 93.5639 24.689 93.5239 24.601 93.9799C24.513 94.4519 23.593 94.2759 23.353 94.1719L23.345 94.1639C23.337 94.4359 23.345 94.7559 23.361 95.1399C23.361 95.1399 23.289 95.0039 23.193 94.7799C23.185 94.7639 23.177 94.7479 23.169 94.7319C23.145 94.6679 23.113 94.5959 23.081 94.5239C22.969 94.2439 22.849 93.8918 22.753 93.4839C22.745 93.4278 22.729 93.3719 22.721 93.3159C22.713 93.2598 22.697 93.2039 22.689 93.1399C22.633 92.8279 22.609 92.4919 22.617 92.1558C22.617 92.0919 22.625 92.0279 22.625 91.9639C22.625 91.9479 22.625 91.9319 22.633 91.9239C22.641 91.8199 22.657 91.7159 22.673 91.6119C22.673 91.6119 22.705 91.6519 22.777 91.7079C23.017 91.8919 23.689 92.2759 25.121 92.2759H25.233C25.657 92.2759 26.137 92.2359 26.689 92.1558C26.689 92.1558 24.993 93.1319 23.505 92.8759C23.505 92.8839 23.425 93.0599 23.377 93.5799ZM10.265 82.4999C10.265 82.4999 10.697 81.6999 11.361 81.1719C10.465 81.4119 8.62495 82.0919 8.37695 83.5719C8.37695 83.5719 11.041 83.4839 13.513 84.5319C13.513 84.5399 11.441 82.8039 10.265 82.4999ZM42.073 71.8999C42.073 72.4359 42.329 74.3159 42.329 74.3159C41.913 74.3159 41.401 73.9639 41.401 73.9639C40.857 75.7479 41.113 79.5639 41.113 79.5639C40.441 80.2359 37.185 80.7479 37.185 80.7479C38.329 80.9399 39.153 82.4919 39.153 82.4919C37.977 82.7959 35.913 84.5239 35.913 84.5239C38.385 83.4759 41.049 83.5639 41.049 83.5639C40.841 82.3479 39.313 81.1799 39.313 81.1799C41.593 80.9559 42.697 80.1479 42.697 80.1479C41.953 78.9399 42.553 75.1079 42.553 75.1079C42.841 75.3959 43.889 75.1159 43.889 75.1159C42.985 74.5799 42.697 71.8679 42.697 71.8679C42.857 71.7079 42.905 71.5959 42.905 71.5959C42.265 71.5959 40.849 70.6759 40.849 70.6759C40.857 70.9799 42.073 71.8999 42.073 71.8999ZM10.321 64.7719C10.953 65.1079 11.401 65.3959 11.729 65.6279C11.721 65.6119 11.705 65.5879 11.697 65.5719C11.689 65.5639 11.689 65.5639 11.689 65.5559C11.673 65.5319 11.657 65.5159 11.641 65.4919C11.641 65.4919 11.641 65.4839 11.633 65.4839C11.497 65.3079 11.321 65.1239 11.121 64.8759H11.113C11.089 64.8439 11.065 64.8119 11.041 64.7799C11.033 64.7719 11.033 64.7719 11.025 64.7639C11.001 64.7319 10.977 64.7079 10.953 64.6759C10.945 64.6679 10.945 64.6599 10.937 64.6519C10.913 64.6199 10.889 64.5879 10.865 64.5559C10.857 64.5479 10.849 64.5399 10.841 64.5319C10.817 64.4999 10.793 64.4599 10.769 64.4279C10.761 64.4199 10.753 64.4039 10.745 64.3959C10.721 64.3559 10.697 64.3239 10.673 64.2839C10.665 64.2759 10.657 64.2599 10.649 64.2519C10.617 64.2039 10.593 64.1479 10.561 64.0919C10.129 63.2919 8.80895 61.4119 9.15295 56.5559C9.16895 56.5639 7.49695 63.2519 10.321 64.7719ZM39.097 64.7719C41.921 63.2519 40.257 56.5879 40.249 56.5479C40.561 60.9479 39.513 62.9079 38.985 63.8279C38.929 63.9239 38.881 64.0119 38.841 64.0839C38.809 64.1399 38.785 64.1879 38.753 64.2359C38.737 64.2599 38.729 64.2759 38.713 64.2919C38.697 64.3239 38.673 64.3479 38.657 64.3799C38.641 64.4039 38.633 64.4199 38.617 64.4439C38.601 64.4679 38.585 64.4919 38.569 64.5159C38.553 64.5399 38.545 64.5559 38.529 64.5719C38.513 64.5959 38.497 64.6199 38.481 64.6439C38.473 64.6599 38.457 64.6759 38.441 64.6919C38.425 64.7159 38.409 64.7399 38.393 64.7559C38.385 64.7719 38.369 64.7799 38.361 64.7959C38.345 64.8199 38.329 64.8439 38.305 64.8679C38.297 64.8759 38.289 64.8919 38.281 64.8999C38.257 64.9239 38.241 64.9479 38.225 64.9719C38.217 64.9799 38.217 64.9799 38.209 64.9879C38.065 65.1479 37.937 65.2919 37.841 65.4199C37.825 65.4439 37.801 65.4679 37.785 65.4919C37.769 65.5159 37.753 65.5399 37.737 65.5639C37.721 65.5879 37.705 65.6119 37.697 65.6359C38.017 65.3959 38.465 65.1159 39.097 64.7719ZM9.88095 98.4999C9.88095 98.4999 10.729 97.4279 11.017 97.1479C11.017 97.1479 12.721 101.804 14.777 103.988C14.777 103.988 11.473 97.6279 11.473 94.5399L10.305 96.5239C10.305 96.5239 9.85695 94.3879 10.369 89.7399C10.369 89.7319 9.13695 94.9398 9.88095 98.4999ZM32.481 98.5799C32.481 98.5799 32.297 99.2519 30.025 101.5C30.025 101.5 26.737 104.564 25.673 104.932C25.673 104.932 26.497 103.588 26.497 103.02C26.497 103.02 22.097 105.316 17.561 106.596C17.561 106.596 23.377 105.836 24.257 105.612C24.257 105.612 23.201 107.58 22.817 107.972C22.817 107.972 26.953 106.86 31.777 101.604C31.777 101.604 31.937 103.628 31.857 104.044C31.857 104.044 37.265 100.78 38.577 93.0679C38.577 93.0679 39.409 94.5879 39.473 95.0599C39.473 95.0599 40.849 91.2199 38.625 86.0919C36.737 86.3319 34.809 86.8439 33.473 87.8759C32.801 88.3879 32.289 88.9559 31.889 89.4999C31.881 89.5479 31.881 89.5718 31.881 89.5718C31.881 89.5718 31.841 89.6039 31.769 89.6679C30.737 91.1799 30.577 92.5479 30.577 92.5479C30.577 92.5479 30.569 92.6119 30.537 92.7159C30.537 92.7239 30.545 92.7239 30.545 92.7319C34.153 95.1079 32.481 98.5799 32.481 98.5799ZM87.985 96.2359C89.345 94.4999 89.465 93.0279 89.465 93.0279C89.281 93.4839 88.833 94.0919 88.337 94.6679L86.921 98.3079C88.321 97.5399 89.321 96.6599 89.321 96.6599C88.929 96.6758 87.985 96.2359 87.985 96.2359ZM18.369 78.2278C18.401 78.3319 18.425 78.4519 18.425 78.5639C18.425 79.1799 17.921 79.6759 17.297 79.6759C16.785 79.6759 16.353 79.3319 16.217 78.8679C16.289 79.4919 16.817 79.9719 17.457 79.9719C18.145 79.9719 18.705 79.4199 18.705 78.7319C18.705 78.6599 18.697 78.5959 18.689 78.5319C18.585 78.4279 18.481 78.3239 18.369 78.2278ZM13.585 78.2519C13.585 78.2519 13.729 78.0759 15.625 77.6679C15.625 77.6679 14.153 77.6439 12.873 78.1079C12.873 78.1079 14.025 79.5799 15.537 79.9479C15.537 79.9479 13.705 78.8359 13.585 78.2519ZM35.833 78.2519C35.721 78.8359 33.881 79.9479 33.881 79.9479C35.393 79.5799 36.545 78.1079 36.545 78.1079C35.265 77.6439 33.793 77.6679 33.793 77.6679C35.689 78.0759 35.833 78.2519 35.833 78.2519ZM32.905 78.5639C32.905 79.1799 32.401 79.6759 31.777 79.6759C31.265 79.6759 30.833 79.3319 30.697 78.8679C30.769 79.4919 31.297 79.9719 31.937 79.9719C32.625 79.9719 33.185 79.4199 33.185 78.7319C33.185 78.1399 32.769 77.6519 32.209 77.5239H32.201C32.617 77.7079 32.905 78.0999 32.905 78.5639Z" fill="#ABABAB"/>
<path d="M16.7207 77.9479C16.7207 77.7479 16.8567 77.5799 17.0327 77.5159C17.2007 77.5719 17.3927 77.6439 17.5927 77.7399C17.6247 77.8039 17.6487 77.8759 17.6487 77.9479C17.6487 78.2039 17.4407 78.4039 17.1847 78.4039C16.9287 78.4039 16.7207 78.1959 16.7207 77.9479ZM31.6087 77.7719C31.5527 77.8519 31.5207 77.9399 31.5207 78.0439C31.5207 78.2999 31.7287 78.4999 31.9847 78.4999C32.2407 78.4999 32.4407 78.2919 32.4407 78.0439C32.4407 77.8119 32.2647 77.6199 32.0407 77.5879C31.8807 77.6439 31.7367 77.7079 31.6087 77.7719Z" fill="white"/>
<path d="M89.6419 81.8038L86.9859 81.8918L90.1859 80.6678L90.2259 82.4518L93.9299 80.7958C93.9299 80.7958 95.8659 81.2678 97.3939 80.2678C97.3939 80.2678 96.2819 81.4278 93.8579 81.5398L89.2899 84.1238L89.6419 81.8038ZM15.4579 128.212C15.4579 128.212 14.5699 130.532 15.0899 132.54C15.2819 133.268 15.7059 133.964 16.3139 134.468C16.9539 134.996 17.7939 135.316 18.7619 135.22C18.7619 135.228 15.6259 133.492 15.4579 128.212ZM18.6659 127.836C17.7299 130.06 19.2659 134.228 21.0019 135.06C21.0099 135.06 21.0099 135.06 21.0099 135.068C21.1219 135.116 21.2339 135.156 21.3459 135.18C23.2179 135.572 23.4259 133.74 23.4259 133.74C20.3459 134.932 18.6659 127.836 18.6659 127.836ZM24.2899 129.356C23.5379 130.868 21.6899 126.308 21.6899 126.308C21.3219 127.644 21.6259 128.876 22.0579 129.812C22.5619 130.892 23.2339 131.58 23.2339 131.58C24.3939 131.844 24.2899 129.356 24.2899 129.356ZM13.3939 127.332C13.4339 126.62 13.4819 125.092 13.3059 123.884C13.0899 119.092 16.4099 119.588 16.4099 119.588C14.7619 119.02 13.7939 119.644 13.2339 120.588C13.1859 120.5 13.1379 120.396 13.0979 120.268C13.0099 119.996 12.9459 119.612 12.9779 119.092C12.9779 119.092 12.5299 119.732 12.6659 121.02C12.6899 121.212 12.7219 121.428 12.7699 121.652C12.4099 122.852 12.4339 124.076 12.4339 124.076C12.6739 125.3 12.6019 126.324 12.5539 127.004C12.5299 127.26 12.5139 127.46 12.5139 127.612C12.5139 127.612 12.4899 128.772 12.6499 129.708C12.7219 130.092 12.8179 130.444 12.9619 130.644C12.9619 130.644 13.2659 128.22 15.9939 124.34C15.9939 124.332 14.4579 125.316 13.3939 127.332ZM27.5859 144.66C27.5859 144.66 24.4179 144.044 26.6499 138.844C25.6179 139.084 22.5779 144.252 25.8499 145.54L25.9699 145.564C26.2739 145.62 27.1539 145.676 27.5859 144.66ZM30.9779 141.436C30.8739 140.428 29.9379 139.036 29.2979 138.524C29.3059 138.532 29.4979 138.748 29.6339 139.452C29.8739 140.652 29.7219 142.308 29.4579 143.804V143.812C29.2659 144.908 29.0419 145.788 28.9859 146.028C28.9699 146.028 31.5139 146.484 30.9779 141.436ZM32.4099 146.044C32.7459 146.108 34.4259 146.204 34.2099 141.948C34.1299 140.46 33.2739 139.356 32.4339 138.684C32.4339 138.684 32.4979 138.748 32.5939 138.932V138.94C32.6179 138.98 32.6339 139.02 32.6579 139.06C32.6579 139.068 32.6579 139.068 32.6659 139.068C32.7059 139.156 32.7459 139.252 32.7779 139.348C33.0179 140.036 33.0739 140.908 33.0419 141.804C33.0419 142.404 32.9539 143.084 32.8259 143.828C32.6499 144.932 32.4179 145.812 32.3619 146.028C32.3699 146.028 32.3779 146.036 32.3859 146.036C32.3859 146.036 32.4019 146.036 32.4099 146.044ZM36.7859 141.708C36.5219 139.86 35.9379 139.436 35.5139 138.932C36.0979 139.716 36.1779 140.988 36.1459 141.988C36.1379 142.052 36.1379 142.116 36.1379 142.18C36.1219 142.5 36.0979 142.82 36.0659 143.14C36.0259 143.5 35.9779 143.852 35.9219 144.212C35.8499 144.628 35.7779 145.068 35.6819 145.452V145.46C35.6819 145.46 37.2339 144.836 36.7859 141.708ZM24.8659 138.596C24.8659 138.66 24.8579 138.716 24.8579 138.788C25.1619 138.284 25.8499 136.972 26.2739 134.884H25.5779C25.4819 136.036 25.2819 137.356 24.8659 138.58V138.596Z" fill="#737373"/>
<path d="M26.1056 127.132C25.9456 126.644 25.7216 126.124 25.4336 125.58H27.4176C27.9776 124.06 33.3296 109.492 35.3136 104.108C36.2336 103.236 37.1216 102.204 37.9296 100.964H38.1216C37.3056 103.18 29.3216 124.916 28.4976 127.132H26.1056ZM156.882 116.076H152.314L152.818 114.716L153.698 114.164H157.586L156.882 116.076ZM153.562 125.044L152.698 125.58H148.802L149.466 123.788H154.026L153.562 125.044ZM139.29 123.804L141.17 118.708L145.498 123.804H139.29ZM129.178 124.028C128.914 124.748 128.706 125.3 128.602 125.58H128.458H126.802H126.65C127.298 123.836 128.37 120.916 128.37 120.916C128.37 120.916 127.546 119.948 127.41 119.788C128.082 119.364 129.21 118.66 129.21 118.66L130.874 114.164H132.842C132.106 116.124 130.194 121.3 129.178 124.028ZM120.522 115.044C120.338 115.164 119.89 115.444 119.642 115.596H116.986C117.122 115.228 117.274 114.812 117.514 114.156H120.858C120.754 114.436 120.658 114.676 120.522 115.044ZM168.834 106.444L167.506 110.052L164.442 106.444H151.018L146.434 109.332L147.498 106.444H133.866L132.602 109.86L131.986 111.532L131.882 111.412L127.666 106.452H108.53L105.682 114.172H107.49C106.546 116.716 103.746 124.308 103.266 125.596H103.114H100.826C100.81 125.22 100.458 116.028 100.394 114.172H100.946L103.802 106.452H86.6656L83.8176 114.172H84.3616C84.3216 114.228 79.2016 120.828 76.7376 124.012C76.1296 124.804 75.6816 125.38 75.5136 125.596H75.2576H73.6016H72.5696C73.8256 122.204 80.4736 104.22 81.1056 102.5H83.7936L86.6096 94.8838H71.8096C71.8096 94.8838 58.3616 107.108 55.5616 109.652C54.3856 106.404 50.2336 94.8838 50.2336 94.8838H41.8816C41.7776 95.4198 41.6496 95.9398 41.5056 96.4358H49.1456C49.1456 96.4358 54.0176 109.932 54.8896 112.356C57.5616 109.932 72.4016 96.4358 72.4016 96.4358H84.3696L82.6976 100.948H80.0096C79.1936 103.164 71.1456 124.932 70.3216 127.148H73.0096L71.3056 131.756H55.9136L57.5376 127.14H60.2256C60.8656 125.404 64.3136 116.292 65.9616 111.82C61.3216 116.036 49.5776 126.716 49.5776 126.716C49.5776 126.716 45.6896 116.012 44.1536 111.804C42.5056 116.268 39.1216 125.412 38.4816 127.14H41.1696L39.4656 131.748H26.0976C25.9456 132.116 25.7696 132.428 25.6096 132.668C25.6176 132.772 25.6336 132.884 25.6416 132.988C25.6496 133.092 25.6496 133.196 25.6576 133.3H40.5536L43.4096 125.588H40.7216C41.7456 122.828 44.1456 116.332 44.1536 116.308C45.7136 120.588 48.9216 129.412 48.9216 129.412C48.9216 129.412 57.4736 121.628 62.2656 117.276C61.3936 119.596 59.6176 124.34 59.1536 125.572H56.4416L53.7216 133.292H84.0256C84.0256 133.292 86.3056 127.132 86.4976 126.596H89.4336C89.4256 126.612 86.9616 133.292 86.9616 133.292H112.25L115.098 125.58H113.29C113.69 124.5 113.874 124.004 114.13 123.316H117.466C116.866 124.94 113.778 133.3 113.778 133.3H137.586L138.914 129.692L141.978 133.3H155.402L162.146 129.06L165.106 121.044L161.01 116.22L160.874 116.06H173.842C173.842 116.06 170.874 124.108 170.33 125.588H168.522L165.666 133.3H179.338L182.194 125.588H180.386C181.178 123.444 182.898 118.788 183.914 116.044H192.474L196.018 106.452H168.834V106.444Z" fill="white"/>
<path d="M11.2891 73.0597C10.2411 71.8677 10.8731 71.5797 12.4731 68.1397C15.3851 61.8677 17.4091 61.9877 17.4091 61.9877C19.8651 62.3877 23.1851 62.5317 24.7051 62.6517C26.2251 62.5317 29.5451 62.3877 32.0011 61.9877C32.0011 61.9877 34.0251 61.8677 36.9371 68.1397C38.5291 71.5797 39.1611 71.8597 38.1131 73.0597C37.0491 74.2757 35.0571 75.5317 31.9691 76.4837C28.3931 77.5797 28.5531 80.6837 28.5531 82.2437C28.5531 82.2437 28.1691 86.1397 27.4171 88.3237C26.6731 90.5157 26.3611 91.0917 24.6891 91.0517C23.0171 91.0917 22.7131 90.5077 21.9611 88.3237C21.2171 86.1397 20.8251 82.2437 20.8251 82.2437C20.8251 80.6837 20.9771 77.5797 17.4091 76.4837C14.3531 75.5317 12.3531 74.2757 11.2891 73.0597ZM11.4891 61.6597C11.3851 62.9557 12.1131 63.7877 13.1771 64.0037C13.1771 64.0037 14.2811 62.0437 15.4971 61.3877C15.4971 61.3877 11.2411 56.0117 9.69713 55.0837C9.69713 55.0917 11.7771 57.8917 11.4891 61.6597ZM36.2491 64.0037C37.3131 63.7877 38.0331 62.9557 37.9371 61.6597C37.6491 57.8837 39.7291 55.0917 39.7291 55.0917C38.1851 56.0197 33.9291 61.3957 33.9291 61.3957C35.1451 62.0437 36.2491 64.0037 36.2491 64.0037ZM75.9291 90.1397L77.3211 89.2437C77.3931 89.1957 78.7371 88.3397 80.8091 87.4597C80.6011 87.4037 80.3931 87.3477 80.2091 87.3157L78.3051 86.9957C78.3051 86.9957 79.1531 86.1157 79.4411 85.8197C78.1051 85.8997 76.4731 85.9557 74.9371 85.8997L71.6891 85.7797L74.4251 84.0277C74.9531 83.6917 77.4731 81.7797 78.7611 79.9957C77.2251 80.1237 75.3611 80.3957 73.8651 80.9477L72.8171 81.3397L72.5131 80.2757C72.4731 80.1317 72.4411 79.9477 72.4331 79.7477C71.3851 79.9317 69.8731 80.3877 68.2971 81.4997L66.5451 82.7317C66.5451 82.7317 66.6011 81.7797 66.6411 81.1717C66.6411 81.1717 62.0731 82.8357 59.0731 84.9477C59.0731 84.9477 59.1291 83.5797 58.7851 83.0997C58.7851 83.0997 57.8491 83.4437 56.8011 83.9477C56.9051 84.0597 57.0091 84.1717 57.1051 84.2917L57.4731 84.7157C57.6571 84.6357 57.8491 84.5637 58.0571 84.4917C58.0571 84.4917 58.0651 84.8997 58.0651 85.4117L58.8491 86.3397L59.1611 86.7077H58.3291C58.0971 86.8757 57.9771 86.9717 57.9771 86.9717C57.9851 86.8917 58.0011 86.8037 58.0091 86.7077H57.2491C57.4251 87.1557 57.6091 87.6597 57.7771 88.2357C57.7851 88.2677 57.7931 88.2997 57.8011 88.3237C58.4091 90.4357 58.7131 92.8517 58.7131 95.5397C58.7131 97.1237 58.6091 98.8037 58.3931 100.564L58.1291 102.876C58.4171 103.14 58.8651 103.54 59.4251 103.988C59.7211 103.716 60.0331 103.436 60.3451 103.156C59.6731 102.348 59.2411 101.492 58.9771 100.78C59.7531 101.508 60.5051 102.044 61.1371 102.436C61.4811 102.116 61.8331 101.796 62.1931 101.476C61.7371 100.124 61.5531 98.9717 61.5531 98.9717C61.5531 98.9717 62.0571 99.9157 62.8171 100.9C66.8891 97.1957 71.2011 93.2837 71.2011 93.2837H78.6571L79.5531 92.4837C79.7371 92.3237 80.1851 91.9317 80.7691 91.4757C79.2891 91.4517 77.9451 91.3157 77.3531 90.9717L75.9291 90.1397ZM21.6011 119.324C20.1851 117.372 20.3291 115.364 19.9931 114.492C19.6571 113.612 18.0171 111.5 17.5531 111.1C16.6331 109.764 13.7291 109.132 13.7291 109.132C15.0891 108.78 16.1611 108.868 16.9691 109.116C16.9611 109.084 16.9451 109.044 16.9371 109.012C15.8011 108.244 12.8011 106.22 10.4091 101.292C10.0251 101.748 9.10513 102.844 9.10513 102.844L8.17712 100.572C7.59312 99.1477 7.40113 97.4357 7.40113 95.7637C7.40113 94.4437 7.52112 93.1397 7.68113 92.0197C7.19312 92.3237 6.68913 92.6357 6.68913 92.6357V89.9877C6.68913 88.5797 6.94513 87.1957 7.33713 85.8997C6.56113 85.9077 5.89713 85.9397 5.41712 85.9717C4.90512 86.0117 4.60113 86.0437 4.60113 86.0437C4.60113 84.7077 5.61713 82.7477 5.61713 82.7477C5.46513 82.7157 5.32113 82.6917 5.18513 82.6597C4.91313 82.5957 4.66512 82.5317 4.43313 82.4677C3.28112 84.5157 2.26513 87.0757 1.95312 90.0117C1.95312 90.0117 3.08913 90.3477 3.47313 89.9077C3.47313 89.9077 3.28913 95.8757 3.37713 97.2197C3.45713 98.4117 7.77713 107.252 8.86513 111.228C9.87313 110.18 11.0011 110.06 11.0011 110.06C8.84113 111.612 9.06513 114.996 9.06513 114.996C9.14513 115.828 9.56913 117.092 11.1291 120.588C11.4971 121.404 11.7611 122.196 11.9611 122.964C11.9611 122.956 11.9531 122.94 11.9531 122.924C11.9131 122.788 11.9211 122.14 12.1371 121.388C12.0491 120.524 12.0651 118.732 13.6011 117.796C13.6011 117.796 13.2491 118.492 13.5531 119.268C13.9931 118.964 14.5611 118.748 15.2731 118.708C15.8091 118.668 17.0251 118.828 18.6731 120.092C18.5611 119.724 18.3051 119.028 17.9051 118.556C17.9051 118.556 19.7771 119.076 20.5691 121.892C20.7051 122.044 20.8411 122.204 20.9851 122.372C21.8251 122.5 22.4011 122.772 22.7851 123.028C22.7131 121.972 22.4331 120.468 21.6011 119.324ZM24.1531 119.3C23.4891 118.244 23.2491 117.22 23.2491 116.308C23.2491 115.084 23.6891 114.068 24.1291 113.444C24.7291 112.236 25.2491 110.788 25.7131 109.268C23.1051 110.46 20.6891 110.58 18.9611 110.42C19.7451 111.3 21.0331 113.036 21.3851 113.964C21.5371 114.364 21.6091 114.796 21.6891 115.3C21.8411 116.22 22.0171 117.372 22.8091 118.46C23.8651 119.916 24.2011 121.74 24.2971 122.98C24.4171 122.212 24.5131 121.428 24.5131 120.98C24.5051 120.308 24.4091 119.708 24.1531 119.3ZM28.5211 108.604C28.5211 108.604 29.2731 107.396 29.2731 106.98C28.6891 107.476 28.1131 107.9 27.5371 108.276C27.1931 109.548 26.8011 110.82 26.3691 111.988C28.5851 111.124 31.6091 107.444 31.6091 107.444C28.8731 112.436 25.5291 113.98 25.5291 113.98C25.4971 114.052 25.4571 114.124 25.4251 114.188C25.4251 114.188 23.9051 116.092 25.4251 118.516C26.1771 119.708 25.9611 122.172 25.6491 123.996H26.3371C26.8891 122.492 31.1131 110.996 32.9371 106.028C31.4011 107.084 29.8811 107.86 28.5211 108.604ZM54.7931 85.2277H55.9771C53.3291 82.1237 48.8011 79.8197 45.2091 78.3637C45.2331 79.1637 45.5771 80.6517 47.6171 81.2037C47.6171 81.2037 46.8251 81.9717 44.7131 82.5317C44.4251 82.6037 44.1211 82.6837 43.7851 82.7397C43.7851 82.7397 44.8011 84.6917 44.8011 86.0357C44.8011 86.0357 43.7851 85.9157 42.3211 85.8917C41.8571 85.8837 41.3451 85.8837 40.8011 85.9077C41.2811 86.8357 41.6651 87.7717 41.8731 88.6837C42.2331 90.2677 42.2731 91.8277 42.1211 93.2837H43.3131C43.6731 91.5477 43.7771 89.9237 43.7131 88.4357C45.1051 90.2357 44.8411 93.0277 44.8171 93.2677V93.2837H51.3451C51.3451 93.2837 53.3771 98.9077 54.9051 103.148C55.6251 101.18 56.1611 99.6037 56.1611 99.6037L56.9371 100.372C58.2651 89.2517 54.7931 85.2277 54.7931 85.2277ZM26.0971 131.748C26.2171 131.468 26.3211 131.148 26.3931 130.796H38.8091C39.0411 130.164 39.4091 129.18 39.8091 128.092H38.7851C38.5291 128.788 38.3051 129.396 38.1371 129.836H26.5211C26.5291 129.604 26.5291 129.364 26.5131 129.108C26.4731 128.508 26.3531 127.852 26.1131 127.14H28.5131C29.3291 124.924 37.3131 103.188 38.1291 100.972H37.9371C38.2731 100.468 38.5851 99.9317 38.8891 99.3557C39.2891 100.3 39.1611 101.732 39.1611 101.732C39.2171 101.612 40.6171 99.4837 41.4971 96.4277H49.1371C49.1371 96.4277 54.0091 109.924 54.8811 112.348C57.5451 109.924 72.3931 96.4277 72.3931 96.4277H84.3611L82.6891 100.94H80.0011C79.1851 103.156 71.1371 124.924 70.3131 127.14H73.0011L71.8971 130.132L71.2971 131.756H55.9131L57.5371 127.14H60.2251C60.8651 125.404 64.3131 116.292 65.9691 111.82C61.3291 116.036 49.5851 126.716 49.5851 126.716C49.5851 126.716 45.6891 116.012 44.1611 111.804C42.5131 116.268 39.1371 125.412 38.4891 127.14H41.1771L39.4731 131.748H26.0971ZM87.5691 120.868H92.5051C92.4571 119.628 92.2251 117.092 92.1531 115.268C90.7451 117.084 88.5291 119.628 87.5691 120.868ZM98.7851 112.612C98.8651 114.62 99.3051 126.188 99.3371 127.14H100.889L99.1851 131.748H89.1851L90.8891 127.14H92.1291C92.0971 126.244 92.0731 125.572 92.0571 125.06H85.0571C84.6571 125.572 84.1451 126.244 83.4491 127.14H84.6491L82.9451 131.748H72.9771L74.6811 127.14H76.2731C77.0091 126.188 85.9771 114.62 87.5291 112.612H86.0411L87.7451 108.004H101.569L99.8651 112.612H98.7851ZM136.497 131.748L138.201 127.14H136.401C136.953 125.652 141.217 114.1 141.769 112.612H143.577L145.281 108.004H134.953L133.249 112.612H135.057C134.505 114.1 130.233 125.644 129.689 127.14H127.881L126.177 131.748H136.497ZM121.793 116.076C121.993 115.532 122.481 114.22 122.681 113.684C122.417 113.38 121.969 112.852 121.769 112.612H116.433C116.025 113.708 115.161 116.06 114.753 117.156H120.089C120.473 116.908 121.313 116.38 121.793 116.076ZM127.937 117.628C127.937 117.628 126.113 118.772 125.073 119.428C125.633 120.084 126.609 121.228 126.609 121.228C126.609 121.228 124.913 125.82 124.425 127.132H126.233L124.529 131.74H116.009C116.009 131.74 119.025 123.572 119.313 122.804C119.049 122.5 118.601 121.988 118.401 121.756H113.057C112.625 122.924 111.505 125.964 111.073 127.124H112.881L111.177 131.732H100.857L102.561 127.124H104.369C104.921 125.636 109.185 114.084 109.737 112.596H107.929L109.633 107.988H126.969L130.129 111.716L127.937 117.628ZM167.681 114.068L167.521 114.5H172.753C172.753 114.5 173.337 112.892 173.449 112.604H176.777C176.225 114.092 171.961 125.636 171.409 127.132H169.601L167.897 131.74H178.257L179.961 127.132H178.153C178.705 125.644 182.969 114.092 183.521 112.604H186.881C186.777 112.892 186.185 114.484 186.185 114.484H191.385L193.777 107.996H169.913L168.657 111.404L167.681 114.068ZM144.641 114.164L143.041 118.492L146.201 122.22H154.937C155.145 122.46 155.593 122.988 155.849 123.292C155.641 123.86 155.033 125.492 154.825 126.06C154.337 126.364 153.513 126.876 153.129 127.108H147.865C147.657 126.868 147.217 126.364 146.945 126.06C147.121 125.596 147.217 125.332 147.217 125.332H140.505L140.409 125.58H140.417L139.521 128.004L142.673 131.716H154.929L160.849 127.996L163.313 121.324L160.153 117.604H151.377C151.169 117.364 150.729 116.86 150.457 116.556C150.673 115.972 151.313 114.236 151.529 113.66C152.017 113.356 152.849 112.828 153.233 112.588H158.489C158.697 112.828 159.137 113.356 159.401 113.66C159.225 114.14 159.097 114.476 159.097 114.476H165.849L166.881 111.7L163.713 107.972H151.457L145.553 111.684L144.641 114.156V114.164Z" fill="#C8102E"/>
<path d="M18.0248 75.2437C13.5848 73.9237 12.1608 71.9637 12.1608 71.9637C15.4248 64.5237 17.1368 63.5797 17.1368 63.5797C17.1368 63.5797 15.5368 66.3477 15.0328 68.2117C14.5288 70.0757 17.0008 71.7637 17.0008 71.7637C16.0568 71.7637 13.8808 70.9797 13.8808 70.9797C13.8808 72.2357 17.6888 73.3237 17.6888 73.3237C23.2568 75.5877 23.0008 78.4757 23.0008 79.0917C23.0008 79.6997 23.9848 78.9477 23.9848 78.9477C23.5848 80.1477 23.2248 80.4037 23.2248 80.4037C22.6808 83.0917 23.9048 89.4517 23.9048 89.4517C23.0968 88.6037 22.2168 83.3477 22.2168 82.1717C22.2168 80.9957 22.4648 76.5717 18.0248 75.2437ZM36.4328 62.6597C36.4328 62.6597 36.9608 62.5797 37.2408 58.5957C35.9208 60.3477 35.3608 61.2757 35.3608 61.2757C35.3608 61.2757 36.2328 61.9317 36.4328 62.6597ZM64.3928 84.3077C64.3928 84.3077 63.5288 85.7637 64.0888 88.2357C64.0888 88.2357 64.4248 86.3557 66.8968 84.9637C66.8968 84.9637 69.7128 83.0197 70.6568 82.6357C70.6568 82.6357 69.6168 84.7797 69.5768 86.5077C69.5768 86.5077 70.8248 83.5957 76.4968 81.3157C76.0408 81.2357 72.1208 82.6837 72.1208 82.6837C72.1608 82.4677 71.9528 81.0437 71.9528 81.0437C69.8088 81.4517 65.3208 85.1637 65.3848 84.7877C65.4488 84.4117 65.5128 82.7077 65.5128 82.7077C62.6248 83.8437 60.1128 85.4517 58.8408 86.3317L59.1528 86.6997H58.3208C58.0888 86.8677 57.9688 86.9637 57.9688 86.9637C57.9768 86.8837 57.9928 86.7957 58.0008 86.6997H57.2488C57.4248 87.1477 57.6088 87.6517 57.7768 88.2277C57.7848 88.2597 57.7928 88.2917 57.8008 88.3157C58.2568 87.9477 58.8408 87.5237 59.6168 87.0517C62.7528 85.1077 64.3928 84.3077 64.3928 84.3077ZM58.0488 84.4837C57.8408 84.5557 57.6488 84.6277 57.4648 84.7077L58.0568 85.4037C58.0568 84.8917 58.0488 84.4837 58.0488 84.4837ZM4.28883 87.8837C4.28883 87.8837 3.95283 96.5477 4.12883 97.1637C4.12883 97.1637 7.03283 104.044 8.08083 106.812L5.24083 97.0037C5.24083 97.0037 4.91283 91.0277 5.44083 85.9637C4.92883 86.0037 4.62483 86.0357 4.62483 86.0357C4.62483 84.6997 5.64083 82.7397 5.64083 82.7397C5.48883 82.7157 5.34483 82.6837 5.20883 82.6517C4.29683 84.2757 3.25683 86.6117 2.80083 89.3877C2.79283 89.3957 3.81683 88.4277 4.28883 87.8837ZM16.7928 111.644C12.8568 109.116 9.97683 112.956 9.97683 112.956C14.4088 110.492 16.2328 112.22 17.4408 114.716C18.6488 117.212 20.7928 118.844 20.7928 118.844C20.7928 118.844 18.9448 116.396 18.6008 114.9C18.0248 112.428 16.7928 111.644 16.7928 111.644ZM26.1208 118.276C26.1208 118.276 26.5848 119.148 26.5848 119.636C26.5848 119.636 27.0248 118.148 26.4728 116.868C25.9288 115.596 27.3368 114.084 28.5288 112.908C28.5288 112.908 26.7208 114.156 26.1208 114.508C26.1208 114.5 24.6568 116.14 26.1208 118.276ZM51.1528 83.8757L49.2728 83.9477C55.1368 88.7477 55.9528 97.5557 55.9528 97.5557C56.7128 89.9077 52.2888 84.8677 52.2888 84.8677L53.7608 84.8197C52.2168 83.2837 49.3368 81.7557 49.3368 81.7557L51.1528 83.8757Z" fill="#D9586D"/>
<path d="M70.6332 128.092H71.6572C71.2572 129.18 70.8892 130.164 70.6572 130.796H57.2572C57.3772 130.468 57.4892 130.148 57.5932 129.836H69.9852C70.1452 129.396 70.3692 128.788 70.6332 128.092ZM78.6892 99.0198L68.2972 127.132H69.3212L79.3612 99.9798H82.0492C82.2812 99.3558 82.6172 98.4358 83.0092 97.3718H81.9852C81.7452 98.0278 81.5292 98.5958 81.3772 99.0198H78.6892ZM67.1132 107.684C67.1132 107.684 52.1132 121.548 49.5612 123.868C49.7532 124.388 49.8972 124.796 49.9932 125.044C51.8332 123.372 66.0092 110.412 66.0092 110.412L67.1132 107.684ZM47.5132 97.3718C48.8252 101.004 53.2812 113.572 53.2812 113.572C53.2812 113.572 53.8972 112.972 54.0492 112.828C52.7372 109.188 48.8172 98.3398 48.4732 97.3798H47.5132M44.0092 109.468C43.6892 108.604 43.4972 108.068 43.4972 108.068L36.4492 127.132H37.4732L44.0092 109.468ZM92.3372 111.996L92.4012 113.388L86.3532 120.876H85.1452L92.3372 111.996ZM96.8012 110.716L97.4252 127.148H98.3772L97.7852 111.66H99.1932C99.4252 111.028 99.7932 110.044 100.193 108.956H99.1692C98.9132 109.66 98.6812 110.276 98.5212 110.716H96.8012ZM87.4092 111.652C87.5292 111.324 87.6492 111.012 87.7612 110.708H88.8012L88.0732 111.652H87.4092ZM82.2732 130.796H74.3452C74.4652 130.468 74.5852 130.156 74.6972 129.852H81.6092C81.7692 129.412 82.0012 128.796 82.2652 128.092H83.2892C82.8732 129.172 82.5052 130.156 82.2732 130.796ZM84.5852 124.1L82.2252 127.148H81.0172L84.1052 123.156H92.3052L92.3372 124.1H84.5852ZM98.5212 130.796H90.5532C90.6732 130.468 90.7932 130.156 90.9052 129.852H97.8492C98.0092 129.412 98.2412 128.796 98.4972 128.092H99.5212C99.1212 129.172 98.7532 130.156 98.5212 130.796ZM134.617 111.652C134.745 111.316 134.857 110.988 134.977 110.684H135.769L135.409 111.652H134.617ZM134.377 127.124H135.393L141.113 111.66H142.913C143.145 111.028 143.513 110.044 143.913 108.956H142.905C142.649 109.652 142.425 110.252 142.265 110.692H140.457L134.377 127.124ZM127.905 129.82C127.793 130.132 127.673 130.452 127.545 130.788H135.833C136.065 130.156 136.433 129.172 136.833 128.084H135.817C135.561 128.78 135.337 129.38 135.177 129.82H127.905ZM125.513 121.428C125.273 122.076 124.033 125.436 123.409 127.124H122.369C122.369 127.124 124.353 121.748 124.793 120.572C125.089 120.924 125.369 121.252 125.513 121.428ZM126.361 116.372C125.913 116.652 123.097 118.412 123.097 118.412C123.097 118.412 123.305 118.66 123.721 119.148C124.233 118.828 126.753 117.244 127.153 116.988C127.337 116.492 128.729 112.732 129.033 111.916C128.873 111.732 128.609 111.42 128.305 111.068C127.937 112.068 126.537 115.9 126.361 116.372ZM112.705 117.14H113.745L115.769 111.66H122.209L121.529 110.692H115.089L112.705 117.14ZM110.049 111.652L110.409 110.684H109.641C109.529 110.996 109.409 111.316 109.281 111.652H110.049ZM110.465 128.092C110.209 128.78 109.985 129.388 109.825 129.828H102.569C102.457 130.14 102.337 130.46 102.209 130.796H110.497C110.729 130.164 111.097 129.18 111.497 128.092H110.465ZM118.825 120.812L118.145 119.844H111.705L109.009 127.124H110.049L112.385 120.812H118.825ZM123.857 130.796C124.089 130.164 124.457 129.18 124.857 128.092H123.817C123.561 128.78 123.337 129.388 123.177 129.828H117.729C117.593 130.204 117.465 130.54 117.369 130.796H123.857ZM178.585 128.092C178.185 129.18 177.817 130.164 177.585 130.796H169.257C169.377 130.46 169.497 130.14 169.617 129.836H176.913C177.073 129.396 177.297 128.788 177.553 128.1H178.585V128.092ZM187.913 112.572C187.761 112.988 187.601 113.412 187.561 113.532H190.729C191.025 112.74 191.881 110.404 192.417 108.948H191.393C190.889 110.316 190.297 111.932 190.057 112.564H187.913V112.572ZM182.185 110.692L176.113 127.124H177.137L182.857 111.652H187.225C187.401 111.172 187.577 110.684 187.577 110.684H182.185V110.692ZM172.113 110.692C172.113 110.692 171.625 112.02 171.417 112.588H169.241C169.113 112.932 168.993 113.26 168.889 113.548H172.089C172.297 112.988 172.785 111.652 172.785 111.652H177.121L177.481 110.684H172.113V110.692ZM161.537 120.708C161.833 121.052 162.089 121.356 162.249 121.54C161.937 122.388 160.281 126.876 160.089 127.388C159.609 127.692 155.089 130.54 154.681 130.788H143.137L142.329 129.836H154.017C154.425 129.58 158.945 126.732 159.425 126.428C159.601 125.94 161.137 121.78 161.537 120.708ZM160.505 113.492C160.505 113.492 160.489 113.54 160.481 113.548H165.193C165.401 112.98 165.617 112.412 165.801 111.916C165.641 111.732 165.385 111.428 165.089 111.084C164.913 111.556 164.721 112.076 164.529 112.596H160.673L160.505 113.492ZM154.721 120.332C154.721 120.332 146.665 120.356 145.873 120.356L146.649 121.284H155.385L154.721 120.332ZM148.721 115.82L149.441 116.644L149.585 116.244L150.769 113.052L152.985 111.66H159.097L158.289 110.708H152.593H152.321L150.105 112.1L148.921 115.292L148.721 115.82Z" fill="black"/>
</g>
<defs>
<clipPath id="clip0_15016_304391">
<rect width="200" height="200" fill="white" transform="translate(0.160156 0.726562)"/>
</clipPath>
</defs>
</svg>
