<svg width="201" height="201" viewBox="0 0 201 201" fill="none" xmlns="http://www.w3.org/2000/svg">
<g clip-path="url(#clip0_15016_302077)">
<path d="M30.3809 47.0963V57.1321C36.1878 57.1321 41.8099 63.2378 41.8099 69.5389V86.8939H96.676L72.8245 47.0969L30.3809 47.0963ZM128.919 47.0963L105.075 86.8933H159.933V69.5383C159.933 63.2372 165.559 57.1315 171.366 57.1315V47.0957L128.919 47.0963ZM41.8099 114.401V127.929C41.8099 134.034 36.1854 142.738 30.3809 142.738V154.575H80.8002V142.738C75.177 142.738 69.3673 134.034 69.3673 127.929V114.401H41.8099ZM78.08 114.401L100.876 151.933L123.665 114.401H78.08ZM132.376 114.401V127.929C132.376 134.034 126.571 142.738 120.943 142.738V154.575H171.366V142.738C165.559 142.738 159.934 134.034 159.934 127.929V114.401H132.376Z" fill="#00B140"/>
<path d="M197.853 114.4V86.893H168.357V77.2239C168.357 69.7977 168.309 65.0016 180.152 65.0016V37.4498H123.642L100.879 75.1873L78.1111 37.4498H21.6017V65.0016C33.4441 65.0016 33.3969 69.7977 33.3969 77.2239V86.893H3.8457V114.4H33.3969V119.839C33.3969 127.03 33.4441 135.512 21.6017 135.512V163.784H89.6231V151.037L97.2853 163.784H104.471L112.133 151.037V163.784H180.152V135.512C168.309 135.512 168.357 127.03 168.357 119.839V114.4H197.853ZM26.8622 60.2279V43.3362H74.8276L100.879 86.6993L126.926 43.3362H174.899V60.2279C167.413 60.2279 163.245 65.5107 163.245 72.254V86.893H159.937H105.077H96.6818H41.8142H38.5084V72.254C38.5084 65.5107 34.3407 60.2279 26.8622 60.2279ZM84.3129 158.161H26.8622V140.208C34.3407 140.208 38.5084 132.288 38.5084 125.018V114.4H41.8142H69.3734H72.5873V125.018C72.5873 132.747 77.1921 140.208 84.3129 140.208V158.161ZM100.879 159.234L73.8342 114.4H78.0863H123.67H127.922L100.879 159.234ZM174.899 140.208V158.161H117.441V140.208C124.561 140.208 129.166 132.747 129.166 125.018V114.4H132.383H159.937H163.245V125.018C163.245 132.288 167.413 140.208 174.899 140.208Z" fill="#231F20"/>
<path d="M18.601 34.4551V68.001H21.5932C25.5099 68.001 28.0554 68.5568 29.1608 69.662C30.3852 70.884 30.391 73.6022 30.391 77.0472V83.9006H0.842773V117.399H30.391V119.921C30.391 124.129 30.3826 128.373 28.1944 130.559C26.8954 131.858 24.6755 132.515 21.5931 132.515H18.6009V166.782H92.6154V161.842C93.4475 163.228 95.5842 166.782 95.5842 166.782H106.155C106.155 166.782 108.295 163.228 109.132 161.842V166.782H183.139V132.515H180.143C177.065 132.515 174.847 131.858 173.545 130.559C171.36 128.375 171.349 124.127 171.349 120.007V117.399H200.843V83.9006H171.349V77.0472C171.349 73.6022 171.361 70.8816 172.583 69.662C173.686 68.5568 176.228 68.001 180.143 68.001H183.139V34.4551H121.942C121.942 34.4551 104.914 62.6879 100.872 69.386C96.8326 62.6859 79.7983 34.4551 79.7983 34.4551H18.601ZM21.5932 37.451H78.1045L100.873 75.1875L123.634 37.451H180.141V65.0003C168.299 65.0003 168.351 69.7985 168.351 77.2248V86.8957H197.846V114.403H168.351V119.84C168.351 127.033 168.299 135.515 180.141 135.515V163.783H112.123V151.039L104.463 163.783H97.2754L89.6186 151.039V163.783H21.5928V135.515C33.4375 135.515 33.3904 127.033 33.3904 119.84V114.403H3.84222V86.8957H33.3904V77.2248C33.3904 69.7985 33.4376 65.0003 21.5928 65.0003L21.5932 37.451ZM26.8555 43.3382V60.2274C34.334 60.2274 38.5017 65.5132 38.5017 72.254V86.8961H41.8082V69.5411C41.8082 63.2401 36.1861 57.1343 30.3792 57.1343V47.0985H72.8228L96.6743 86.8955H105.068L128.916 47.0985H171.364V57.1343C165.554 57.1343 159.931 63.2401 159.931 69.5411V86.8961H163.237V72.254C163.237 65.5132 167.408 60.2274 174.891 60.2274V43.3382H126.92L100.875 86.7018L74.8237 43.3382H26.8555ZM114.286 90.9022L113.001 91.1584L111.969 91.6745L111.205 92.1868L110.685 92.9591L108.888 98.0972H104.518L107.087 92.699H100.145L100.917 93.2112L101.173 93.7313L101.433 94.2397L101.173 95.0119L100.661 96.8126L100.145 98.0971H94.2302L95.7786 98.8694L96.547 99.8978L96.8032 100.926V102.467L98.8601 102.211L98.3517 103.499L97.3194 106.584L96.8032 107.609V108.385L97.0594 109.153H97.5755H98.3517L99.1162 108.897L99.6323 108.121L100.401 107.093L102.718 101.955L107.604 101.438L106.571 105.04L105.287 108.385L104.774 109.666V110.442L105.221 111.113L105.287 111.21L106.055 111.466H106.571L107.087 111.21L107.181 111.113L107.604 110.694L108.116 109.666L112.226 101.182L115.315 100.926L114.542 102.211L114.03 103.243V104.011V104.528L114.286 105.04L114.543 105.556L115.315 106.584L116.343 106.841H117.628H122.77H126.88L128.424 106.584L129.713 105.812L130.481 104.528L131.253 103.243L134.855 95.788H137.68H138.196L138.704 96.0403L138.965 96.8126L138.704 97.0687L138.448 97.581L137.42 98.0971L135.363 98.3571L134.855 99.1255L134.339 100.154L134.078 100.926L134.339 101.955L135.363 103.499L136.395 104.784L139.477 106.841L141.277 107.865L143.338 108.637L145.135 109.154H146.676H147.448V108.897L147.192 108.385L144.107 106.841H148.216L150.533 106.584L152.594 106.068L154.647 105.296L156.187 104.268L157.472 102.727L158.244 100.926L158.504 99.8978V98.6094V97.581L158.244 96.2964L157.732 95.268L156.96 94.5035L156.444 93.9874L155.675 93.4712L153.874 92.959L151.565 92.6989H144.107L145.135 92.959L145.647 93.4712L145.907 93.9874L146.163 94.5035L145.907 95.268V95.7881L149.249 95.528L151.565 95.7881H152.594L153.362 96.2964L153.874 96.8126L154.391 97.3248L154.647 98.6094V99.6417L154.134 100.926L153.362 101.955L152.334 102.727L151.045 103.243L149.249 103.499H147.192L149.505 98.097H147.708H145.395L141.793 105.296L139.993 103.499L138.448 101.954L138.196 101.182V100.926L138.448 100.41L138.704 100.154L140.509 99.6415L141.537 98.8692L142.306 98.0969L142.566 96.8124L142.822 95.7879L142.566 94.7556L142.05 93.9872L141.537 93.471L141.021 92.9587L140.249 92.6987H139.22H132.022L129.196 98.8693L127.912 101.182L127.14 102.467L126.88 102.983L126.367 103.243L124.831 103.499H119.945L118.912 103.243V102.727L119.168 101.955L119.945 100.41L122.258 100.154L124.054 99.6416L126.624 98.6093L127.14 98.3571L126.367 98.0971H124.571H120.709L121.741 95.788H127.912L129.453 92.6989H119.169L116.599 98.0971H113.77L116.343 92.6989V91.9305L116.083 91.4143L115.315 91.1582L114.286 90.9022ZM43.3334 91.1545L44.3618 91.9268L44.618 92.4429V92.699H44.3618L42.5611 93.7275L41.2766 94.4997L39.2197 95.7843L45.1301 95.5281L52.0728 95.012L51.0444 98.6133L50.016 101.699L47.443 108.381L46.9308 109.41V110.438L47.1869 110.95L47.509 111.113L47.7031 111.21L47.8971 111.113L48.2192 110.95L48.9876 110.694L49.7599 109.926L50.5322 108.637L59.0117 95.012L63.3855 94.4997L74.6981 91.1544L43.3334 91.1545ZM74.954 92.699L72.3811 98.3573H68.2675L70.0682 94.2397L65.4423 95.7843L64.1578 98.3572H59.5279L60.8125 98.8733L61.8409 99.8979L62.8693 100.926L61.5848 103.755L60.0402 106.84H64.1578L66.7269 101.438H70.8406L68.2676 106.84H72.3813L79.0678 92.6988L74.954 92.699ZM81.3807 92.9552L79.0638 97.585L76.2386 103.243L75.9824 104.528V105.04L76.2386 105.556L76.7508 106.069L77.2631 106.585L78.2915 106.841H79.3238H84.9781L85.4942 106.585L86.2627 106.325L87.2949 105.04L88.3195 103.499H82.1489L81.6367 103.243L81.3805 102.983L81.1205 102.727V101.955L81.8928 100.67L84.4657 100.414L86.7787 99.898L89.6078 98.0973H82.6651L83.9497 95.7843H90.3801L92.1769 92.9553L81.3807 92.9552ZM38.5019 114.404V125.022C38.5019 132.292 34.334 140.212 26.8557 140.212V158.16H84.3069V140.212C77.186 140.212 72.583 132.752 72.583 125.022V114.404H69.3659V127.933C69.3659 134.038 75.1756 142.742 80.7987 142.742V154.578H30.3794V142.742C36.1837 142.742 41.8084 134.038 41.8084 127.933V114.404H38.5019ZM73.8282 114.404L100.873 159.234L127.913 114.404H123.664L100.871 151.936L78.0789 114.404H73.8256H73.8282ZM129.161 114.404V125.022C129.161 132.752 124.558 140.212 117.437 140.212V158.16H174.896V140.212C167.411 140.212 163.239 132.292 163.239 125.022V114.404H159.932V127.933C159.932 134.038 165.558 142.742 171.365 142.742V154.578H120.942V142.742C126.57 142.742 132.374 134.038 132.374 127.933V114.404H129.161Z" fill="white"/>
</g>
<defs>
<clipPath id="clip0_15016_302077">
<rect width="200" height="200" fill="white" transform="translate(0.84375 0.621094)"/>
</clipPath>
</defs>
</svg>
