<svg width="201" height="201" viewBox="0 0 201 201" fill="none" xmlns="http://www.w3.org/2000/svg">
<path d="M30.8651 21.7803L30.869 21.7823L41.4277 49.9143L41.4197 133.403L29.9181 158.643H73.9126V106.621L91.8199 146.973H109.298L127.192 106.636V158.643H171.809L159.68 133.373V49.7673L170.059 21.7843L128.801 21.784L100.537 87.0587L72.2996 21.78L30.8651 21.7803ZM28.7051 166.695H28.709L32.5116 173.025L28.6953 179.465H173.03L169.22 173.015L173.03 166.695H28.7051Z" fill="black"/>
<path d="M35.4804 24.9756L35.4785 24.9795H35.4824L35.4804 24.9756ZM35.4824 24.9795L44.6189 49.3327L44.6129 134.104L34.8848 155.453H70.7195V91.5552L93.8967 143.783H107.224L130.381 91.5652V155.453H166.73L156.491 134.104V49.1977L165.47 24.9795H130.891L100.54 95.1061L70.2046 24.9795H35.4824ZM38.1172 168.905V177.254H44.7649V173.044L38.3591 168.905H38.1192H38.1172ZM46.1249 168.905V172.884L52.6477 177.254H52.7766V168.905H46.1249ZM59.6694 168.905L60.8054 169.645V168.905H59.6694ZM70.1491 168.905V175.884L72.192 177.254H77.3028L77.3128 168.905H70.1491ZM132.541 168.905V177.254H139.191V173.044L132.781 168.905H132.541ZM140.551 168.905V172.884L147.06 177.254H147.19V168.905H140.551ZM154.08 168.905L155.22 169.645V168.905H154.08ZM164.56 168.905V175.884L166.6 177.254H168.98L166.08 173.004L168.96 168.905H164.56ZM62.1333 171.584V177.254H68.7821V175.964L62.1333 171.584ZM156.546 171.584V177.254H163.196V175.964L156.546 171.584Z" fill="#FFD200"/>
<path d="M38.8301 27.2917V27.2976L46.9429 48.9129L46.9349 134.604L38.4941 153.123H68.3971V80.5868L95.4062 141.454H105.711L132.711 80.5988V153.123H163.04L154.17 134.624V48.7719L162.13 27.2926L132.421 27.2921L100.539 100.944L68.6781 27.2921L38.8301 27.2917ZM82.9866 168.917C82.7876 169.337 82.6296 169.817 82.5196 170.337C79.6887 170.507 77.6398 171.657 77.6338 173.047H100.814V168.917H97.2871V169.897H88.3084C88.2094 169.547 88.0804 169.217 87.9394 168.917H82.9866ZM100.814 173.047V177.257H104.338V176.217H113.42C113.523 176.597 113.66 176.937 113.812 177.257H118.712C118.922 176.817 119.09 176.327 119.208 175.787C122.044 175.607 124.092 174.467 124.092 173.057V173.047H100.814ZM124.092 173.047H124.483V168.917H118.739C118.937 169.337 119.095 169.817 119.208 170.337C122.038 170.507 124.083 171.657 124.092 173.047ZM77.6338 173.047H77.3048L77.2998 177.257H83.0136C82.8036 176.817 82.6356 176.327 82.5196 175.787C79.6837 175.607 77.6338 174.467 77.6338 173.057V173.047ZM104.338 168.917V169.897H113.42C113.517 169.547 113.645 169.217 113.789 168.917H104.34H104.338ZM88.3084 176.217C88.2044 176.597 88.0674 176.937 87.9165 177.257H97.2871V176.217H88.3084Z" fill="#E21833"/>
<path d="M77.3144 168.907L77.3086 173.046H77.6377C77.644 171.649 79.6921 170.498 82.5233 170.328C82.6333 169.81 82.7923 169.332 82.9911 168.907L77.3144 168.907ZM77.6377 173.046C77.6377 173.047 77.6366 173.048 77.6366 173.055C77.6366 174.457 79.687 175.605 82.5232 175.78C82.6388 176.322 82.8073 176.816 83.0173 177.253H87.9195C88.0708 176.934 88.2077 176.589 88.3121 176.215H97.2903V177.253H100.818V173.046L77.6377 173.046ZM100.818 173.046L124.098 173.046C124.089 171.653 122.045 170.498 119.214 170.328C119.101 169.81 118.943 169.332 118.745 168.907H113.795C113.651 169.212 113.523 169.538 113.426 169.894H104.344V168.907H100.82V173.046L100.818 173.046ZM124.098 173.046V173.055C124.098 174.457 122.051 175.605 119.214 175.78C119.096 176.322 118.928 176.816 118.718 177.253H124.49V173.046L124.098 173.046ZM87.9433 168.907C88.0845 169.212 88.213 169.538 88.3124 169.894H97.2906V168.907H87.9433ZM104.343 176.215V177.253H113.816C113.663 176.934 113.528 176.589 113.424 176.215H104.343Z" fill="white"/>
</svg>
