<svg width="200" height="201" viewBox="0 0 200 201" fill="none" xmlns="http://www.w3.org/2000/svg">
<g clip-path="url(#clip0_15016_304268)">
<path d="M150.531 81.86C153.597 82.0034 155.447 82.7505 156.961 83.3984C162.545 85.7677 160.131 87.296 161.234 91.8614C160.497 91.5448 151.421 82.7206 150.531 81.86ZM150.165 106.992C151.035 109.02 151.144 111.082 150.14 112.413C148.374 114.752 141.86 117.393 140.579 118.818C137.077 119.179 135.494 122.34 135.494 122.34C135.237 122.31 134.851 122.281 134.342 122.3V117.68C135.974 116.142 137.028 114.055 137.028 114.055C140.732 112.898 139.1 110.637 145.594 104.529C147.543 105.038 149.561 105.577 150.165 106.992ZM129.638 110.583L129.643 98.6624L130.701 97.6583C135.103 98.7811 139.149 100.804 140.03 101.714C139.555 104.108 137.037 105.775 136.31 106.586C136.31 106.586 135.479 108.293 133.872 108.471C132.64 108.604 132.319 110.212 129.638 110.583ZM131.181 123.779H118.766C118.153 123.779 117.445 123.666 116.214 122.647C114.982 123.666 114.275 123.779 113.667 123.779H101.252V116.058C102.142 115.776 105.95 115.262 105.95 111.651V92.3607L90.8151 113.718L75.6797 92.3607V111.651C75.6797 115.262 79.4883 115.776 80.3786 116.058V123.779H67.9636C67.3552 123.779 66.6479 123.666 65.4163 122.647C64.1847 123.666 63.4774 123.779 62.864 123.779H50.4491V116.004C51.8538 115.568 55.148 115.237 55.148 111.651L55.143 98.6624C55.143 96.9115 54.0301 96.1003 54.0301 96.1003L51.646 94.176L54.0647 92.0839C54.0647 92.0839 55.143 91.3023 55.143 89.5513L55.148 76.6418C55.148 72.6749 50.4441 72.2891 50.4491 72.2891V64.5135L61.2664 64.5286C62.0529 64.6078 62.7898 64.9736 63.4477 65.4781C64.9266 64.4888 65.8911 64.5135 65.8911 64.5135H72.2717C74.2304 64.5333 75.0119 65.3941 75.5214 66.042L90.8151 87.6273L106.109 66.042C106.381 65.6958 106.727 65.2952 107.291 64.9836C107.781 64.7165 108.443 64.5234 109.358 64.5135H115.739C115.739 64.5135 116.704 64.4888 118.182 65.4781C118.974 64.8746 119.414 64.6523 120.616 64.5286L131.181 64.5135V72.2891C131.186 72.2891 126.482 72.6749 126.482 76.6418V89.5513C126.482 91.3072 127.56 92.0839 127.56 92.0839L129.984 94.176L127.6 96.1003C127.6 96.1003 126.482 96.9115 126.482 98.6624V111.651C126.482 115.237 129.771 115.568 131.181 116.004V123.779ZM88.3964 46.8854C90.5628 47.2317 90.9981 48.3941 94.5594 48.9184C95.0342 48.9926 95.6376 50.0015 96.5675 50.2093C97.3391 50.0015 99.0851 50.9807 99.5006 51.8513C95.4002 51.688 91.28 53.8299 89.7319 54.7697C83.1831 50.2241 87.2241 50.6048 85.1962 46.1434C85.1962 46.1434 87.0708 46.6727 88.3964 46.8854ZM185.332 101.18C185.604 99.9236 184.749 98.687 183.927 98.3358C183.324 95.0911 182.909 93.3945 182.656 92.1926C183.621 87.9586 182.018 85.0996 183.591 84.5308C186.91 83.3388 188.666 79.6589 188.666 79.6589C188.666 79.6589 184.694 81.2417 182.221 79.283C179.931 77.4678 178.62 77.7398 178.62 77.7398C178.759 73.4613 175.445 72.6898 176.854 67.4814C174.51 68.6735 173.981 73.0807 173.981 73.0807C173.738 59.9732 168.856 57.0993 168.856 57.0993C169.029 61.7834 165.77 62.5452 165.77 62.5452C164.82 60.8289 165.978 54.4728 173.743 54.1019C173.743 54.1019 165.656 48.3395 160.754 53.5379C161.462 49.5711 161.116 47.7559 159.647 46.4353C160.013 48.5918 156.56 49.4476 156.56 49.4476C156.263 46.6579 157.05 42.0135 164.781 40.4159C163.089 39.1842 155.526 38.4916 151.777 41.8006C151.198 39.3325 153.103 37.537 153.103 37.537C148.775 38.9516 148.889 41.4001 147.316 40.0448C145.748 38.6896 144.689 38.9616 144.689 38.9616C145.263 40.1784 145.876 43.5515 141.558 44.6644C139.13 45.2926 140.886 41.7612 142.063 41.0984C137.28 41.7612 133.135 46.638 131.557 50.6494C129.593 51.1539 126.339 50.8918 125.295 50.5208C123.218 49.7888 119.745 48.9233 116.887 49.1756C113.553 49.4724 113.409 48.2654 113.647 47.5828C113.884 46.9002 113.518 45.8913 112.049 45.916C111.119 45.9309 110.743 45.0453 108.893 44.9464C104.674 44.7139 102.627 46.1434 101.865 46.1434C100.836 46.1434 99.4017 45.4657 98.5707 44.6496C97.6062 43.6999 92.294 41.0984 90.8052 39.659C89.4895 38.3928 88.337 39.9706 86.7394 38.373C84.2317 35.8652 79.8394 33.5653 77.8362 32.6651C76.8074 32.2001 74.542 30.553 74.3937 29.628C73.721 25.5177 71.6238 26.5514 71.3666 24.6719C71.2726 23.9744 72.2272 23.9002 73.2857 23.8112C73.8842 23.7567 75.373 23.4998 75.1207 21.739C75.0268 21.096 75.5708 20.0028 75.5708 20.0028C76.3573 19.8049 76.3276 19.701 76.5057 18.42C76.7332 16.8322 79.048 17.8809 80.5022 18.3409C84.108 19.4785 84.1773 19.0037 84.3949 18.1332C85.9134 12.079 76.3078 9.3633 76.2435 9.35835C76.2435 9.35835 76.5947 6.59357 76.5205 5.43616C76.4711 4.60519 75.9418 3.83362 73.8743 3.67038C71.5051 3.48244 69.5711 1.02423 64.3677 3.68034C63.4032 4.17003 63.2696 8.36917 62.5376 9.2397C55.6772 9.78873 53.4761 13.924 54.0845 15.027C54.589 15.947 58.5064 15.7242 59.6886 15.7192C61.3703 15.7093 60.7471 16.8667 61.2516 17.6927C61.7561 18.5187 61.4346 19.3992 61.0735 19.9185C57.4826 19.7899 57.2155 17.5048 54.5297 18.1923C53.2832 18.5089 51.8043 18.2122 50.1671 17.5692C48.6338 16.9707 42.3521 17.0795 41.808 21.3728C46.0123 19.3696 47.417 21.9962 47.417 21.9962C47.417 21.9962 45.671 22.4809 45.394 23.8658C47.3181 22.8024 48.9701 23.376 49.6923 23.4848C53.4761 24.0536 54.1241 21.7736 55.5882 21.828C57.992 21.9121 59.3374 22.3373 59.3374 22.3373C57.6804 23.9053 55.3409 23.1882 54.4604 24.0835C54.1538 24.4 54.04 25.1666 53.4761 26.1855C53.0705 26.9126 51.4878 26.7544 50.7854 29.1187C50.1968 31.1022 45.3742 32.7243 42.3125 37.1512C39.2459 41.578 38.9689 38.3532 34.3541 47.7114C33.0928 50.2686 30.5158 49.2743 29.8827 51.6188C28.5373 56.6046 24.9167 54.3542 24.0956 61.3234C24.0412 61.7686 23.7544 63.0101 23.8978 63.6927C24.0412 64.3703 24.0165 66.4131 25.0107 66.0767C27.3206 65.3002 27.1474 61.8773 28.7896 61.7536C29.6601 61.6893 29.5513 63.5344 30.7038 63.386C32.341 63.1683 30.9313 61.729 33.1175 59.0432C34.2848 57.6088 32.8603 55.2642 34.1117 54.6558C38.4298 52.5636 37.9945 50.0264 38.5633 49.8186C41.1799 48.8739 42.1938 47.9883 45.4682 44.6496C47.788 42.2853 53.0112 40.6136 53.4069 40.6284C54.0252 40.6531 54.3219 40.8658 54.6385 41.2467C54.9551 41.6226 58.7884 46.7321 59.1247 48.5473C59.4067 50.0411 60.5195 50.8424 61.1576 52.4252C61.9737 54.458 62.8987 54.9773 63.8384 55.0564C65.446 55.1949 67.286 53.9435 69.304 55.9615C69.8778 56.5353 69.9668 57.4505 71.787 57.9748C73.6023 58.4991 73.9337 59.4191 74.1909 59.9879C74.4233 60.5072 75.0861 61.0168 75.2494 61.9269C74.458 61.6005 73.5033 61.3578 72.3113 61.3578H47.2884V73.9758L51.5125 75.8306C51.9576 76.0136 51.9923 76.2708 51.9923 76.6418L51.9873 89.5513L47.2489 94.176L51.9873 98.6624L51.9923 111.651C51.9923 112.259 51.7054 112.413 51.5867 112.447L48.5151 114.154C42.6538 111.869 35.4422 100.824 23.4328 104.543C16.7258 106.621 12.8925 113.179 12.8133 116.879C15.143 114.045 18.4718 113.931 18.4718 113.931C18.4718 113.931 7.67916 122.018 9.86044 131.698C10.914 128.522 13.768 127.118 13.768 127.118C13.768 127.118 6.81854 142.09 20.8658 148.263C16.8593 142.248 18.9466 138.41 18.9466 138.41C18.9466 138.41 19.5649 142.303 23.329 143.584C21.0191 134.77 23.2152 127.519 35.1702 125.871C33.9089 126.846 33.4737 128.691 33.4737 128.691C33.4737 128.691 38.044 125.09 45.8985 127.098C49.4054 127.993 53.125 127.019 53.125 127.019C53.4811 129.823 55.1925 134.75 63.2103 142.332C67.0683 145.988 61.6769 151.27 57.6013 154.297C51.8785 158.556 55.0985 160.891 56.5378 163.215C57.9772 165.545 62.8195 173.993 63.0619 175.462C64.3825 183.604 68.0328 181.605 67.0535 184.251C66.633 185.384 65.8565 185.582 65.5894 186.378C65.3223 187.18 64.7931 189.841 64.2589 190.77C65.4559 192.635 70.3823 196.76 73.1769 197.695C73.993 195.836 75.7044 189.707 73.8446 186.645C71.9799 183.584 73.4934 181.828 72.7762 179.592C72.1382 177.589 69.8481 173.597 67.6915 169.878C65.4559 166.03 66.4748 159.802 67.9834 158.823C70.0014 157.517 76.9063 150.968 80.6308 147.244C80.8979 152.833 78.6375 157.76 77.8362 160.554C76.4315 165.476 81.9515 164.481 84.8598 163.759C88.431 162.869 104.541 157.161 109.255 160.02C111.926 161.647 113.721 160.065 112.539 164.951C112.939 165.881 114.201 168.997 114.201 168.997C118.019 169.635 124.815 169.863 125.765 167.444C123.742 163.883 121.467 160.96 118.197 159.258C116.896 157.166 113.869 151.705 108.814 152.457C101.108 153.595 92.9123 156.429 91.8192 153.155C91.1564 151.166 93.951 148.757 95.4497 145.997C96.9088 143.317 101.365 138.133 101.182 126.935H127.704C126.482 129.146 125.607 131.728 126.151 134.503C130.419 134.216 133.872 131.555 135.217 130.6C135.959 127.771 138.323 128.602 140.277 126.421C143.838 127.529 149.161 120.228 152.178 117.097C156.318 112.799 158.178 114.105 158.999 106.829C159.528 102.159 153.78 98.7465 151.935 96.1893C153.355 92.2027 152.331 90.961 149.655 90.0657C146.984 89.1705 145.733 89.0865 145.812 87.9341C145.975 85.6291 145.936 83.3141 147.993 82.9184C151.594 86.0642 159.904 94.6214 161.892 96.1893C164.687 103.04 168.668 100.032 171.78 106.734C170.924 108.97 170.449 111.71 173.565 112.126C175.371 112.368 175.084 113.011 175.702 113.407C178.037 114.901 178.521 112.418 178.68 111.809C178.719 111.656 179.525 111.656 179.634 111.715C180.178 112.66 181.593 113.629 182.859 113.743C184.13 113.862 185.763 111.339 186.025 110.652C186.589 109.203 188.033 109.084 187.81 106.581C187.558 103.658 185.209 103.129 185.332 101.18Z" fill="#00529B"/>
<path d="M123.913 76.6167V89.5314C123.913 92.4645 126.4 94.1561 126.4 94.1561C126.4 94.1561 123.917 95.7043 123.917 98.6374L123.913 111.631C123.913 116.76 128.616 117.972 128.616 117.972V121.182H118.768C118.185 121.182 116.216 119.025 116.216 119.025C116.216 119.025 114.258 121.182 113.669 121.182H103.826V117.972C103.826 117.972 108.53 116.76 108.53 111.631V84.2585L90.8224 109.247L73.11 84.2585V111.631C73.11 116.76 77.8138 117.972 77.8138 117.972V121.182H67.9709C67.3872 121.182 65.4186 119.025 65.4186 119.025C65.4186 119.025 63.455 121.182 62.8713 121.182H53.0234V117.972C53.0234 117.972 57.7273 116.76 57.7273 111.631V98.6374L57.7223 98.6422C57.7223 95.7042 55.2393 94.1561 55.2393 94.1561C55.2393 94.1561 57.7223 92.4645 57.7223 89.5314L57.7273 76.6167C57.7273 71.4875 53.0234 70.2758 53.0234 70.2758V67.0657H61.0116C62.0107 67.1647 63.45 69.2173 63.45 69.2173C63.45 69.2173 64.8943 67.1647 65.8984 67.0657H72.2741C72.8083 67.0707 73.1001 67.1249 73.4266 67.5107L90.8224 92.054L108.213 67.5107C108.367 67.3277 108.515 67.2188 108.683 67.1545C108.871 67.0853 109.084 67.0657 109.366 67.0657H115.741C116.745 67.1647 118.185 69.2173 118.185 69.2173C118.185 69.2173 119.629 67.1647 120.633 67.0657H128.616V70.2758C128.616 70.2758 123.913 71.4875 123.913 76.6167Z" fill="#FFD204"/>
<path d="M59.091 184.097C59.091 182.985 58.2501 182.094 57.2015 182.094H57.1916C56.1529 182.094 55.3021 182.985 55.3021 184.088C55.3021 185.211 56.1529 186.091 57.2015 186.091C58.2501 186.101 59.091 185.21 59.091 184.097ZM59.5213 184.088C59.5213 185.418 58.4924 186.457 57.1916 186.457C55.9006 186.457 54.852 185.418 54.852 184.088C54.852 182.777 55.9006 181.723 57.1916 181.723H57.2015C58.4925 181.723 59.5213 182.777 59.5213 184.088ZM57.6961 183.553C57.6961 183.321 57.5279 183.089 57.058 183.089C56.9196 183.089 56.8256 183.103 56.7514 183.113V184.004H57.058C57.3993 184.004 57.6961 183.875 57.6961 183.553ZM58.0621 184.81C58.1264 185.22 58.1858 185.379 58.2303 185.463H57.7901C57.7258 185.379 57.6615 185.136 57.612 184.79C57.5477 184.454 57.3796 184.325 57.0432 184.325H56.7514V185.463H56.331V182.826C56.5486 182.797 56.7613 182.762 57.0778 182.762C57.4735 182.762 57.7357 182.851 57.894 182.965C58.0522 183.078 58.1363 183.257 58.1363 183.509C58.1363 183.855 57.9039 184.068 57.6219 184.152V184.172C57.8544 184.211 58.0077 184.424 58.0621 184.81ZM109.364 64.5229C108.444 64.5327 107.786 64.7258 107.292 64.9929L108.682 67.184C108.87 67.1148 109.087 67.0999 109.364 67.095H115.745C116.744 67.1989 118.183 69.2466 118.183 69.2466V65.4874C116.709 64.4982 115.745 64.5229 115.745 64.5229H109.364ZM136.316 106.595C137.043 105.784 139.561 104.117 140.031 101.723C139.15 100.813 135.104 98.7901 130.707 97.6674L129.644 98.6714V110.592C132.32 110.221 132.646 108.613 133.873 108.48C135.485 108.302 136.316 106.595 136.316 106.595ZM126.488 111.66V98.6714C126.488 96.9205 127.606 96.1093 127.606 96.1093L129.99 94.1853L127.566 92.0932C127.566 92.0932 126.488 91.3165 126.488 89.5606V76.646C126.488 72.684 131.192 72.2984 131.187 72.2984V64.5229L120.622 64.5328L120.632 67.095H128.615V70.305C128.615 70.305 123.911 71.5167 123.911 76.646V89.5606C123.911 92.4987 126.399 94.1853 126.399 94.1853C126.399 94.1853 123.916 95.7334 123.916 98.6714L123.911 111.66C123.911 116.795 128.615 118.001 128.615 118.001V121.216L131.187 123.788V116.013C129.777 115.578 126.488 115.246 126.488 111.66ZM113.667 121.216V123.788C114.281 123.788 114.988 123.675 116.22 122.656V119.055C116.22 119.055 114.256 121.216 113.667 121.216ZM187.816 106.59C187.559 103.667 185.214 103.133 185.338 101.189C185.61 99.9329 184.754 98.6963 183.933 98.3451C183.33 95.1004 182.914 93.4039 182.657 92.1971C183.622 87.968 182.024 85.109 183.597 84.5402C186.916 83.3481 188.672 79.6682 188.672 79.6682C188.672 79.6682 184.695 81.2511 182.222 79.2924C179.932 77.4771 178.626 77.7491 178.626 77.7491C178.764 73.4706 175.446 72.6942 176.86 67.4908C174.516 68.6828 173.986 73.0897 173.986 73.0897C173.744 59.9822 168.862 57.1087 168.862 57.1087C169.035 61.7878 165.776 62.5494 165.776 62.5494C164.826 60.838 165.983 54.482 173.749 54.106C173.749 54.106 165.662 48.3488 160.76 53.5472C161.468 49.5804 161.121 47.7652 159.652 46.4446C160.013 48.6012 156.561 49.4569 156.561 49.4569C156.269 46.6623 157.056 42.0225 164.787 40.4249C163.095 39.1933 155.532 38.5009 151.783 41.81C151.204 39.3418 153.109 37.5463 153.109 37.5463C148.781 38.9609 148.894 41.4094 147.321 40.0542C145.749 38.6989 144.695 38.9707 144.695 38.9707C145.269 40.1825 145.882 43.5608 141.564 44.6737C139.131 45.3019 140.886 41.7653 142.064 41.1075C137.286 41.7653 133.136 46.6472 131.558 50.6536C129.599 51.1631 126.345 50.9011 125.301 50.5301C123.224 49.7981 119.751 48.9323 116.892 49.1846C113.559 49.4814 113.415 48.2747 113.653 47.5921C113.89 46.9095 113.524 45.9003 112.05 45.925C111.125 45.9399 110.749 45.0546 108.899 44.9557C104.68 44.7183 102.632 46.1527 101.871 46.1527C100.842 46.1527 99.4075 45.475 98.5765 44.6589C97.612 43.7092 92.2998 41.1077 90.806 39.6683C89.4953 38.4021 88.3379 39.9749 86.7452 38.3823C84.2375 35.8745 79.8452 33.5695 77.842 32.6693C76.8132 32.2092 74.5479 30.5623 74.3945 29.6373C73.7268 25.527 71.6296 26.5558 71.3724 24.6812C71.2784 23.9837 72.233 23.9096 73.2915 23.8156C73.89 23.7662 75.3739 23.5088 75.1265 21.748C75.0326 21.105 75.5767 20.0121 75.5767 20.0121C76.3631 19.8142 76.3334 19.7103 76.5115 18.4293C76.7341 16.8415 79.0538 17.8902 80.508 18.3502C84.1138 19.4878 84.1781 19.0128 84.4007 18.1373C85.9192 12.0881 76.3136 9.37273 76.2493 9.36282C76.2493 9.36282 76.6005 6.60287 76.5263 5.44547C76.4719 4.6145 75.9476 3.84293 73.8752 3.6797C71.5109 3.49174 69.5769 1.03325 64.3735 3.68936C63.409 4.17903 63.2754 8.37848 62.5434 9.24901C55.683 9.79805 53.4819 13.928 54.0903 15.036C54.5948 15.956 58.5073 15.7335 59.6944 15.7285C61.3761 15.7186 60.7479 16.876 61.2574 17.702C61.7619 18.528 61.4404 19.4085 61.0793 19.9279C57.4884 19.7993 57.2163 17.5142 54.5305 18.1968C53.2841 18.5183 51.8101 18.2215 50.168 17.5785C48.6396 16.98 42.353 17.0888 41.8089 21.3821C46.0181 19.3789 47.4228 22.0052 47.4228 22.0052C47.4228 22.0052 45.6768 22.4899 45.3998 23.8748C47.3239 22.8114 48.9759 23.3853 49.6981 23.4941C53.4819 24.0629 54.1299 21.7826 55.594 21.837C57.9978 21.9211 59.3432 22.3466 59.3432 22.3466C57.6862 23.9146 55.3467 23.1972 54.4662 24.0925C54.1596 24.409 54.0458 25.1759 53.4819 26.1949C53.0763 26.922 51.4936 26.7635 50.7912 29.1277C50.2026 31.1112 45.38 32.7336 42.3183 37.1605C39.2517 41.5874 38.9747 38.3625 34.3599 47.7207C33.0986 50.2779 30.5216 49.2836 29.8885 51.6281C28.5431 56.6139 24.9225 54.3635 24.1015 61.3327C24.047 61.7779 23.7602 63.0191 23.9036 63.7017C24.0421 64.3793 24.0223 66.4174 25.0115 66.0861C27.3264 65.3046 27.1533 61.8817 28.7954 61.763C29.6659 61.6987 29.5571 63.5435 30.7096 63.3902C32.3418 63.1775 30.9371 61.7332 33.1233 59.0474C34.2907 57.618 32.8612 55.2735 34.1175 54.6651C38.4356 52.5729 38.0003 50.0354 38.5691 49.8276C41.1857 48.8829 42.1996 47.9977 45.474 44.6541C47.7889 42.2947 53.017 40.6229 53.4127 40.6377C54.026 40.6624 54.3277 40.8749 54.6443 41.2509C54.9559 41.6317 58.7942 46.7412 59.1305 48.5515C59.4125 50.0502 60.5253 50.8515 61.1634 52.4293C61.9795 54.4672 62.9045 54.9866 63.8443 55.0658C65.4518 55.2043 67.2868 53.9528 69.3098 55.9708C69.8836 56.5446 69.9726 57.4599 71.7879 57.9842C73.6081 58.5085 73.9395 59.4284 74.1917 59.9972C74.4242 60.5165 75.0919 61.0258 75.2502 61.9359C74.4638 61.6095 73.5092 61.3672 72.3171 61.3672H47.2942V73.9851L51.5183 75.8399C51.9635 76.0229 51.9981 76.2799 51.9981 76.646L51.9931 89.5606L47.2547 94.1853L51.9931 98.6714L51.9981 111.66C51.9981 112.269 51.7112 112.422 51.5925 112.457L48.5209 114.163C42.6596 111.878 35.4481 100.833 23.4387 104.553C16.7316 106.63 12.8933 113.184 12.8191 116.889C15.1488 114.049 18.4776 113.941 18.4776 113.941C18.4776 113.941 7.68497 122.028 9.86625 131.707C10.9198 128.527 13.7738 127.122 13.7738 127.122C13.7738 127.122 6.81939 142.099 20.8716 148.267C16.8651 142.258 18.9524 138.419 18.9524 138.419C18.9524 138.419 19.5707 142.312 23.3348 143.593C21.02 134.779 23.221 127.528 35.176 125.881C33.9147 126.85 33.4795 128.7 33.4795 128.7C33.4795 128.7 38.0498 125.099 45.9044 127.107C49.4112 128.003 53.1308 127.028 53.1308 127.028C53.4869 129.833 55.1983 134.754 63.2111 142.342C67.0741 145.997 61.6778 151.28 57.6071 154.307C51.8843 158.565 55.1043 160.9 56.5436 163.225C57.983 165.549 62.8253 174.002 63.0627 175.471C64.3834 183.608 68.0386 181.615 67.0593 184.256C66.6389 185.394 65.8623 185.591 65.5952 186.388C65.3281 187.189 64.7939 189.85 64.2647 190.78C65.4617 192.645 70.3881 196.77 73.1827 197.705C73.9988 195.845 75.7102 189.716 73.8455 186.655C71.9857 183.593 73.4993 181.837 72.7821 179.597C72.144 177.598 69.8539 173.607 67.6924 169.887C65.4617 166.039 66.4756 159.812 67.9892 158.832C70.0023 157.527 76.9072 150.978 80.6366 147.248C80.9037 152.843 78.6384 157.769 77.842 160.563C76.4324 165.485 81.9573 164.491 84.8656 163.769C88.4368 162.878 104.542 157.17 109.255 160.029C111.931 161.652 113.727 160.074 112.54 164.956C112.945 165.89 114.207 169.007 114.207 169.007C118.025 169.645 124.821 169.872 125.766 167.449C123.748 163.892 121.468 160.969 118.203 159.268C116.902 157.17 113.875 151.715 108.82 152.461C101.114 153.604 92.9181 156.438 91.825 153.159C91.1622 151.17 93.9518 148.762 95.4555 146.007C96.9146 143.326 101.366 138.142 101.188 126.944H127.71C126.488 129.15 125.613 131.737 126.157 134.512C130.42 134.225 133.873 131.564 135.223 130.609C135.965 127.775 138.329 128.611 140.283 126.43C143.844 127.538 149.161 120.237 152.184 117.101C156.324 112.803 158.178 114.114 159.004 106.838C159.534 102.168 153.786 98.7557 151.936 96.1935C153.361 92.2118 152.337 90.9703 149.661 90.0751C146.985 89.1798 145.739 89.0956 145.818 87.9431C145.981 85.6332 145.941 83.3234 147.999 82.9277C151.6 86.0735 159.905 94.6305 161.898 96.1935C164.693 103.044 168.669 100.042 171.785 106.744C170.93 108.975 170.45 111.72 173.571 112.135C175.376 112.378 175.089 113.02 175.703 113.416C178.042 114.91 178.527 112.427 178.685 111.819C178.725 111.665 179.531 111.665 179.635 111.725C180.179 112.669 181.599 113.639 182.86 113.753C184.136 113.866 185.768 111.349 186.03 110.661C186.594 109.212 188.039 109.093 187.816 106.59ZM189.938 106.403C190.156 108.94 189.077 110.152 188.429 110.874C188.197 111.136 188.073 111.284 188.014 111.428C187.999 111.467 185.996 115.884 182.949 115.884L182.672 115.875C181.643 115.781 180.57 115.355 179.655 114.727C178.784 115.81 177.716 116.013 177.018 116.013C176.222 116.013 175.396 115.741 174.555 115.207C174.075 114.9 173.789 114.534 173.62 114.302C172.611 114.188 170.697 113.807 169.659 112.061C168.872 110.74 168.813 109.044 169.48 106.892C168.363 104.84 167.21 104.211 165.786 103.44C164.01 102.47 161.824 101.283 160.142 97.4992C158.99 96.505 156.962 94.5169 154.622 92.2218C154.8 93.2111 154.701 94.3485 154.32 95.7186C154.711 96.1242 155.186 96.5745 155.681 97.0394C158.183 99.4185 161.616 102.678 161.116 107.075C160.464 112.847 159.029 114.208 156.546 116.112C155.73 116.735 154.81 117.442 153.712 118.58C153.143 119.169 152.49 119.915 151.783 120.722C148.494 124.461 144.819 128.705 141.005 128.67C140.13 129.378 139.254 129.749 138.572 130.041C137.518 130.491 137.434 130.565 137.281 131.148L137.083 131.895L136.192 132.528C134.615 133.666 130.91 136.322 126.295 136.634L124.425 136.757L124.069 134.917C123.698 133.013 123.827 131.084 124.465 129.071H103.295C102.974 137.905 99.823 142.97 98.0671 145.784C97.7753 146.254 97.5181 146.665 97.3252 147.026C96.7613 148.054 96.0589 149.019 95.4407 149.865C94.8867 150.627 93.9865 151.863 93.8628 152.412C94.0359 152.476 94.4118 152.565 95.1587 152.565C96.9938 152.565 99.6993 152.021 102.568 151.448C104.502 151.057 106.5 150.656 108.509 150.359C108.924 150.3 109.344 150.266 109.755 150.266C115.092 150.266 118.302 155.365 119.717 157.67C125.751 160.846 128.115 167.28 128.115 167.28C128.115 167.28 127.057 171.559 119.385 171.559C117.605 171.559 115.591 171.396 113.855 171.104L112.683 170.906L112.233 169.803C112.233 169.803 110.987 166.722 110.591 165.802L110.309 165.149L110.477 164.456C110.655 163.704 110.734 163.225 110.769 162.928C110.744 162.923 110.719 162.913 110.7 162.908C110.052 162.72 109.161 162.458 108.152 161.849C107.856 161.666 107.089 161.365 105.318 161.365C100.397 161.365 92.5125 163.724 88.2736 164.995C87.0172 165.371 86.0082 165.673 85.3801 165.831C83.5796 166.276 82.0958 166.499 80.8493 166.499C78.7719 166.499 77.2534 165.881 76.3334 164.659C75.4283 163.462 75.2502 161.889 75.7943 159.98C75.9724 159.362 76.2147 158.639 76.4917 157.838C76.9814 156.404 77.565 154.692 77.9805 152.808C74.7358 155.914 70.9371 159.406 69.2604 160.539C68.6174 161.454 67.8457 165.915 69.5324 168.819C72.0154 173.092 74.1225 176.807 74.81 178.949C75.2156 180.235 75.1266 181.382 75.0524 182.302C74.9584 183.455 74.8941 184.285 75.6657 185.552C78.1586 189.647 75.8784 196.854 75.1315 198.555L74.35 200.336L72.51 199.722C69.0971 198.585 63.8393 194.059 62.4742 191.932L61.7767 190.844L62.4148 189.726C62.6374 189.331 63.0232 187.812 63.2062 187.08C63.3496 186.501 63.4782 186.002 63.5772 185.715C63.8541 184.884 64.3488 184.369 64.6802 184.033C64.7642 183.944 64.8236 183.88 64.8731 183.825C63.7255 182.886 61.8213 181.1 60.9656 175.813C60.6342 174.581 56.4794 167.162 54.7333 164.347C54.5503 164.051 54.3327 163.754 54.1101 163.452C52.7005 161.518 49.7624 157.492 56.3359 152.6C59.9763 149.894 62.306 147.11 62.4098 145.344C62.4296 144.953 62.3703 144.473 61.752 143.885C56.1084 138.548 52.7252 133.809 51.4738 129.471C50.8011 129.551 50.0097 129.61 49.154 129.61C47.8037 129.61 46.5325 129.462 45.38 129.165C43.9704 128.809 42.5805 128.626 41.25 128.626C37.1496 128.626 33.3806 130.624 30.0666 133.938C30.0666 130.936 31.2289 128.962 31.2289 128.962C28.8548 129.793 27.1236 131.01 26.0552 132.608C24.4329 135.036 24.2103 138.553 25.3924 143.054L26.3965 146.887C26.3965 146.887 23.0875 146.304 21.5245 145.136C23.1567 149.232 26.6784 153.144 26.6784 153.144C26.6784 153.144 8.56541 148.841 9.83659 136.436C9.83659 136.436 3.19382 129.209 10.6428 119.342L10.6923 116.844C10.7813 112.387 15.0449 104.923 22.8105 102.525C24.6406 101.956 26.4756 101.669 28.276 101.669C35.0474 101.669 40.1272 105.616 44.2127 108.791C45.7263 109.969 47.1755 111.092 48.4368 111.779L49.8712 110.978L49.8663 99.5865L44.1831 94.2101L49.8663 88.6652L49.8712 77.4424L45.1674 75.375V59.2403H69.4384C68.7163 58.7556 68.2859 58.1868 67.9348 57.6675C67.8853 57.5933 67.8457 57.5191 67.7913 57.4598C67.3066 56.975 66.9752 56.9354 66.6537 56.9354C66.3569 56.9354 66.0107 56.9898 65.6397 57.0492C65.0561 57.1382 64.3488 57.2469 63.6613 57.1826C61.6531 57.0095 60.189 55.7137 59.1899 53.2257C58.997 52.7509 58.7249 52.3503 58.4084 51.8853C57.9039 51.1483 57.2806 50.2285 57.0432 48.9425C56.8157 47.9384 54.2535 44.2285 53.2148 42.8732C51.8151 43.3085 48.4714 44.6391 46.9925 46.1427C44.0149 49.1846 42.6745 50.4609 40.0876 51.5194C39.6672 52.6274 38.7126 54.5908 35.7003 56.2428C35.7003 56.3071 35.7053 56.3716 35.7102 56.4309C35.7795 57.4647 35.8784 59.0328 34.7754 60.393C34.0087 61.3278 33.9048 61.9509 33.796 62.5494C33.6724 63.2715 33.336 65.1906 30.9866 65.5022C30.0616 65.616 29.3889 65.3587 28.8844 64.9878C28.3305 66.1205 27.4649 67.5055 25.6941 68.0991C25.4023 68.198 25.1006 68.2473 24.8088 68.2473C22.2961 68.2473 21.9696 65.4133 21.8658 64.4785C21.846 64.3449 21.8361 64.2211 21.8213 64.1271C21.6432 63.2813 21.7767 62.3516 21.94 61.3871C21.9597 61.2634 21.9795 61.1595 21.9894 61.0804C22.5137 56.6535 24.0817 55.1301 25.9266 53.7254C26.8614 53.0082 27.4303 52.5778 27.8358 51.0741C28.4244 48.8879 30.0913 48.1956 31.0904 47.785C31.8967 47.4487 32.1935 47.3052 32.4507 46.7809C35.3442 40.9147 36.6747 39.6087 38.3762 38.2881C39.039 37.7737 39.6078 37.3287 40.5674 35.9487C42.442 33.2431 44.8854 31.4773 46.6661 30.1913C47.4772 29.6077 48.5852 28.8063 48.7781 28.4551C49.1787 27.09 49.8465 26.2542 50.4895 25.7052C50.1284 25.6904 49.7574 25.6506 49.3815 25.5962C49.248 25.5764 49.0946 25.5469 48.9166 25.5123C48.5901 25.443 48.2241 25.3686 47.8284 25.3686C47.3289 25.3686 46.8837 25.4875 46.4286 25.7348L42.4123 27.9555L43.3175 23.4546C43.3471 23.3012 43.3867 23.1527 43.4312 23.0093C43.2037 23.0884 42.9712 23.1875 42.7239 23.3012L39.2121 24.9731L39.7018 21.1149C40.2558 16.7425 44.6282 15.1894 48.2093 15.1894C48.8424 15.1894 50.0394 15.2438 50.9495 15.5999C51.3996 15.778 51.82 15.9164 52.2009 16.0153C51.6667 15.0014 51.7656 13.7154 52.4828 12.3799C53.0318 11.361 55.1933 8.16592 61.0051 7.28551C61.0744 6.964 61.1486 6.59787 61.203 6.31099C61.6086 4.28305 61.9499 2.53691 63.404 1.79498C65.3281 0.815628 67.0791 0.335938 68.7558 0.335938C70.4029 0.335938 71.6494 0.791061 72.6534 1.15707C73.2025 1.35493 73.6773 1.52802 74.0433 1.55769C78.0053 1.87425 78.584 4.28798 78.6483 5.3069C78.6928 5.99442 78.6285 7.02332 78.5444 7.91858C80.5872 8.71986 83.6143 10.273 85.3207 12.6966C86.5919 14.5069 86.9876 16.5643 86.4633 18.6566C85.9439 20.7192 84.5343 21.1448 83.4461 21.1448C82.6349 21.1448 81.5962 20.9221 79.87 20.378C79.6573 20.3137 79.4347 20.2346 79.1973 20.1555C78.9797 20.0813 78.6928 19.9822 78.4158 19.8931C78.2526 20.5213 77.9508 21.1445 77.2485 21.5946C77.4068 22.9796 76.9319 23.9146 76.5016 24.4587C76.1999 24.8346 75.7251 25.2699 74.998 25.5766C75.6113 26.3235 76.1455 27.3769 76.4521 29.0339C76.8281 29.5037 78.0646 30.4387 78.7175 30.7305C79.3457 31.0174 84.9695 33.5992 88.2488 36.8785C88.3676 36.9923 88.4269 37.0271 88.4319 37.0271C88.4368 37.0271 88.6841 37.027 88.8671 37.0171C89.0551 37.0072 89.2381 36.9972 89.4261 36.9972C90.5538 36.9972 91.4886 37.3732 92.285 38.1398C92.9181 38.7482 94.9411 39.9206 96.42 40.7763C98.349 41.8941 99.4718 42.552 100.07 43.1455C100.535 43.6006 101.322 43.9467 101.742 44.011C101.851 43.9764 101.98 43.9268 102.128 43.8773C103.29 43.4569 105.556 42.6409 109.013 42.8288C110.541 42.9129 111.461 43.4125 112.01 43.7043C112.07 43.739 112.124 43.7735 112.179 43.7982C113.969 43.8477 114.855 44.7381 115.235 45.2772C115.621 45.8163 115.829 46.4545 115.844 47.1024C116.091 47.1123 116.383 47.0974 116.704 47.0677C117.115 47.0331 117.53 47.0134 117.956 47.0134C121.463 47.0134 125.009 48.1706 126.008 48.5268C126.28 48.6207 127.423 48.8087 128.828 48.8087C129.278 48.8087 129.698 48.789 130.069 48.7544C132.226 44.2583 136.707 39.7029 141.772 39.0005L142.321 38.9214L141.673 37.5463C141.673 37.5463 145.57 35.7458 148.098 37.9617C151.501 34.5587 159.855 34.1038 159.855 34.1038L156.15 37.5958C165.063 35.5629 169.49 41.2065 169.49 41.2065C169.49 41.2065 162.531 42.8287 160.592 44.4313L161.072 44.8618C162.511 46.1577 163.115 47.7404 163.219 49.6199C164.069 49.3726 164.974 49.2489 165.919 49.2489C170.534 49.2489 174.803 52.2464 174.981 52.375L179.986 55.9364L173.848 56.2332C172.977 56.2728 172.186 56.4061 171.474 56.6287C172.75 58.068 174.476 60.848 175.426 65.8684C177.261 64.0333 180.164 63.4249 180.164 63.4249C180.164 63.4249 177.884 68.1239 179.462 72.6299C179.788 73.5647 180.397 74.5685 180.629 75.9386C181.45 76.2305 182.43 76.7449 183.547 77.6253C183.978 77.9715 184.606 78.1449 185.412 78.1449C188.983 78.1449 192.891 75.7508 192.891 75.7508C192.891 75.7508 190.715 84.1247 184.992 86.2664C185.002 86.5335 185.457 89.7534 184.834 92.1919C184.834 92.1919 185.477 95.1004 185.862 97.0938C186.946 98.0632 187.717 99.6558 187.47 101.347C187.529 101.501 187.801 101.832 187.984 102.055C188.687 102.915 189.745 104.211 189.938 106.403ZM156.967 83.4026C155.448 82.7596 153.603 82.0127 150.536 81.8693C151.427 82.725 160.503 91.5539 161.24 91.8704C160.137 87.3051 162.551 85.7768 156.967 83.4026ZM137.028 114.064C137.028 114.064 135.975 116.152 134.343 117.69V122.309C134.857 122.285 135.243 122.319 135.5 122.344C135.5 122.344 137.083 119.188 140.585 118.827C141.861 117.403 148.38 114.761 150.146 112.417C151.15 111.091 151.036 109.029 150.17 107.001C149.567 105.586 147.549 105.047 145.6 104.538C139.106 110.646 140.738 112.907 137.028 114.064ZM63.4535 65.4874C62.7957 64.9829 62.0587 64.6169 61.2722 64.5328L50.4499 64.5229L53.0269 67.095H61.0101C62.0092 67.1989 63.4535 69.2466 63.4535 69.2466V65.4874ZM89.7377 54.779C91.2858 53.8392 95.406 51.6924 99.5015 51.8606C99.091 50.9851 97.3449 50.0107 96.5733 50.2134C95.6434 50.0107 95.035 48.9966 94.5652 48.9274C91.0039 48.4031 90.5686 47.241 88.4022 46.8947C87.0766 46.6821 85.202 46.1527 85.202 46.1527C87.225 50.6142 83.1889 50.2334 89.7377 54.779ZM62.8699 121.216V123.788C63.4832 123.788 64.1905 123.675 65.4221 122.656V119.055C65.4221 119.055 63.4585 121.216 62.8699 121.216ZM90.8209 113.728L105.956 92.37L108.528 84.2929L90.8209 109.276V113.728ZM75.6855 111.66V92.37L73.1085 84.2929V111.66C73.1085 116.795 77.8124 118.001 77.8124 118.001V121.216L80.3844 123.788V116.067C79.4941 115.781 75.6855 115.271 75.6855 111.66ZM90.8209 92.0832L73.4251 67.54C73.0986 67.1542 72.8068 67.0999 72.2726 67.095H65.8969V64.5229H72.2726C74.2362 64.5377 75.0177 65.4034 75.5272 66.0513L90.8209 87.6367V92.0832Z" fill="white"/>
</g>
<defs>
<clipPath id="clip0_15016_304268">
<rect width="200" height="200" fill="white" transform="translate(0 0.335938)"/>
</clipPath>
</defs>
</svg>
