<svg width="201" height="201" viewBox="0 0 201 201" fill="none" xmlns="http://www.w3.org/2000/svg">
<g clip-path="url(#clip0_15016_302025)">
<path d="M16.1194 35.7133V72.3245H23.7853V120.038H16.1194V156.385H68.1946V138.145L76.7857 151.627L84.3194 138.938V156.385H137.584V121.228H129.918V104.31C129.918 104.31 133.751 103.252 135.337 100.212C135.337 100.212 139.699 96.6439 139.17 93.604C139.17 93.604 141.417 91.0927 140.492 88.185C140.492 88.185 142.739 87.6563 141.021 83.2947C141.021 83.2947 141.549 78.4044 137.188 76.6861C137.188 76.6861 142.078 79.9904 151.066 78.0078C151.066 78.0078 155.692 84.8807 161.375 86.9954C161.375 86.9954 167.058 92.1501 168.512 92.4144C168.512 92.4144 166.926 99.5516 175.121 101.666C175.121 101.666 178.425 103.252 182.258 99.1551C182.258 99.1551 190.452 101.402 189.395 90.9606C189.395 90.9606 191.642 87.3919 189.131 84.0877C189.131 84.0877 190.717 78.6687 185.826 74.8357C185.826 74.8357 181.2 69.6811 175.121 66.1125C175.121 66.1125 174.063 60.4292 171.552 57.1249C171.552 57.1249 166.926 52.4989 165.604 51.4416C165.604 51.4416 167.455 48.1373 164.547 42.7183C164.547 42.7183 166.794 37.5636 162.961 32.409C162.961 32.409 165.472 27.2543 162.961 22.8927C162.961 22.8927 159.657 21.3067 153.18 20.6458C153.18 20.6458 145.25 16.8129 140.095 17.3415C140.095 17.3415 130.579 9.14697 112.472 9.67565C112.472 9.67565 100.973 6.90007 88.681 14.3016C88.681 14.3016 74.8031 19.985 54.581 37.828L51.8054 35.0524L47.4438 34.7881C47.4438 34.7881 43.6109 27.6508 33.8302 21.4388C33.8302 21.4388 26.9574 17.8702 32.2442 16.5485C32.2442 16.5485 38.1919 16.0198 40.7031 18.1346C40.7031 18.1346 45.5934 22.7605 50.2194 20.6458C50.2194 20.6458 56.5636 19.0598 54.581 10.6008C54.581 10.6008 51.0124 2.93495 39.2492 1.61325C39.2492 1.61325 29.9973 -2.2197 19.5558 5.18185C19.5558 5.18185 12.683 7.69309 11.6256 16.945C11.6256 16.945 9.37869 23.5536 17.5733 32.0125L20.8775 35.8454L16.1194 35.7133Z" fill="white"/>
<path d="M32.7733 4.12549C26.8256 4.25766 21.4066 6.63673 17.5737 11.3949C14.6659 14.8313 14.5337 20.6468 16.2519 24.4798C17.4415 27.5197 19.8206 29.7666 22.3318 31.8813C23.5213 32.9387 24.843 33.996 25.9004 35.1856C26.8256 36.2429 27.883 37.4325 28.5438 38.8863H19.2919V69.2856H26.6934V123.872H19.2919V153.346H64.7585V123.872H57.0927V109.994L76.6539 144.491L88.4171 124.004V153.346H134.148V123.872H126.482V106.822V101.932L126.614 101.667C127.143 101.8 127.54 101.8 127.936 101.667C128.333 101.535 128.861 101.535 129.258 101.403C130.712 101.139 131.373 100.081 131.901 99.1561C132.033 98.8918 132.166 98.6274 132.298 98.4953C132.43 98.2309 132.562 98.0987 132.694 97.8344C133.091 97.4379 133.487 97.1736 134.016 97.0414L134.148 96.9092C134.28 96.6449 134.412 96.3805 134.545 96.1162C134.677 95.8519 134.809 95.5875 134.941 95.3232C135.205 94.7945 135.338 94.1336 135.073 93.6049L134.941 93.3406L134.016 94.0015C133.619 94.1336 133.223 94.2658 132.826 94.398C132.562 94.398 132.43 94.398 132.166 94.398C132.959 94.1336 133.752 93.7371 134.412 93.2084C135.47 92.1511 136.659 90.9615 136.527 89.2433V88.979H136.263C135.866 89.1112 135.338 89.1112 134.809 89.1112C134.545 89.1112 134.28 89.1112 134.016 89.1112L134.148 88.979C134.28 88.8468 134.545 88.7146 134.677 88.7146C136.395 87.7895 136.924 85.9391 137.056 84.353V84.0887H136.792C136.395 84.0887 135.998 84.2208 135.602 84.4852C135.47 84.6174 135.338 84.6174 135.073 84.7495C134.941 84.8817 134.809 84.8817 134.545 84.8817C134.148 85.0139 133.619 85.0139 133.355 84.7495C134.941 84.2208 136.527 83.2957 137.32 81.5774L137.452 81.4453L137.32 81.3131C136.395 80.5201 135.205 80.1236 134.016 79.8592C132.826 79.5949 131.637 79.4627 130.447 79.3305C129.39 78.0088 127.407 78.0088 125.954 78.2732C125.954 74.7046 125.689 72.1933 126.086 68.7569L128.729 68.6247C130.315 68.3604 131.505 69.0212 132.694 69.9464C133.223 70.4751 133.884 71.0038 134.412 71.4003C134.941 71.929 135.602 72.3255 136.263 72.722C140.889 75.4976 146.969 76.4228 152.123 74.3081C154.767 78.4053 158.6 82.6348 163.093 84.6174C163.622 85.2782 164.283 85.8069 164.944 86.4677C165.605 86.9964 166.266 87.5251 166.926 88.0538C168.248 88.979 169.57 90.0364 170.495 91.2259C169.702 93.8693 171.156 95.984 173.006 97.5701C174.592 98.3631 176.707 98.8918 178.557 98.0988L178.69 97.9666C179.086 96.6449 179.879 96.6449 180.804 96.9092C181.069 96.9092 181.333 97.0414 181.597 97.1736C181.862 97.1736 182.126 97.3057 182.39 97.3057C182.919 97.3057 183.448 97.1736 183.976 96.777C185.562 96.1162 186.091 94.398 186.091 92.8119C186.091 92.4154 185.959 92.1511 185.827 91.8867C185.695 91.6224 185.43 91.358 185.298 91.0937C185.034 90.6972 184.902 90.3007 185.827 89.772C186.355 88.3181 186.091 86.4677 185.166 85.146C185.695 83.6922 185.695 81.8418 185.695 80.3879C185.695 78.934 184.637 78.2732 183.844 77.6123C183.58 77.4801 183.448 77.348 183.183 77.2158C182.919 77.0836 182.787 76.9515 182.655 76.6871C182.39 76.2906 182.126 76.0263 181.994 75.3654C181.333 74.3081 180.54 73.6472 179.615 73.1185C179.218 72.8542 178.69 72.5898 178.293 72.3255C177.897 72.0612 177.368 71.929 176.839 71.6646C174.989 70.7395 173.271 69.9464 172.081 67.8317C170.759 65.0561 169.57 62.1484 167.984 59.505C166.398 56.8615 164.547 54.3503 161.904 52.2356C162.829 49.3278 162.829 45.7592 160.45 43.3801C160.979 40.7367 161.111 37.6968 160.186 35.0534C158.467 33.7317 158.6 32.5422 159.26 30.9561C159.525 30.1631 159.921 29.3701 160.186 28.577C160.45 27.784 160.582 26.8588 160.318 25.9336C160.054 25.1406 159.393 23.9511 158.203 23.8189C154.106 24.3476 150.669 23.2902 147.233 22.1007C145.515 21.4398 143.797 20.779 141.946 20.2503C140.228 19.7216 138.378 19.3251 136.395 19.1929L130.051 15.8887C116.305 10.0732 97.2725 11.6592 84.5841 20.2503C78.9008 23.158 73.614 26.8588 68.3272 30.8239C63.1725 34.7891 58.15 38.8863 52.9954 42.7193L50.6163 38.8863H46.2547L43.4791 35.0534C41.1 31.7491 38.1923 29.5022 35.1523 27.2553C33.6985 26.198 32.1124 25.1406 30.6585 24.0832C29.2047 23.0259 27.7508 21.8363 26.4291 20.6468C25.9004 19.7216 26.2969 18.2677 26.6934 17.2104C28.5438 14.0383 32.2446 13.3774 35.5489 13.3774C37.6636 13.1131 39.2496 14.0383 40.9678 15.0956C41.7609 15.6243 42.6861 16.2852 43.4791 16.6817C44.4043 17.0782 45.3295 17.4747 46.3868 17.6069C48.3694 17.6069 50.352 16.8139 51.145 14.8313C51.6737 12.8487 50.8806 11.1305 49.5589 9.80882C45.8582 6.63673 41.4965 5.18285 36.8706 4.38983C35.5489 4.12549 34.2271 4.12549 32.7733 4.12549ZM23.1248 42.7193H48.5016L76.7861 92.8119L77.3148 93.3406L77.4469 93.0763C80.8834 86.9964 84.0555 80.9166 87.3597 74.8367L88.1527 76.9515C84.8485 83.9565 80.7512 90.565 76.9182 97.4379L47.1799 45.2305H25.2395V63.2057H32.3768V129.159H25.2395V147.134H59.3396V129.159H51.2771V89.3755L61.7186 106.954L76.6539 132.067L91.0605 107.086L95.9508 98.7596L102.295 87.3929V129.159H94.3648V147.134H128.2V129.159H120.667V97.4379L122.781 99.6848V127.308H130.315V149.381H92.3822V127.441H99.7837V106.69V96.2484L93.5717 107.086L76.6539 136.693L59.0752 106.822L53.3919 97.1736V127.441H61.1899V149.513H23.1248V127.441H30.3942V65.1883H23.1248V42.7193ZM96.3473 110.258V123.872H88.5492L96.3473 110.258Z" fill="#0D3182"/>
<path d="M34.6231 5.84424C33.6979 6.50509 33.1693 7.16594 32.5084 7.95897C31.9797 8.75199 31.3189 9.67718 30.658 10.4702H30.3937C29.865 10.338 29.865 10.6024 29.865 10.9989C29.865 11.2632 29.865 11.5276 29.865 11.7919C29.865 11.9241 29.865 12.0563 29.865 12.1884H29.9972L30.2615 12.0563C30.3937 12.0563 30.3937 11.9241 30.5259 11.9241C30.7902 11.7919 31.0545 11.7919 31.451 11.7919C31.7154 11.7919 32.1119 11.7919 32.5084 11.6597C33.1693 11.6597 33.6979 11.5276 34.0945 11.1311C34.2266 9.94153 35.1518 9.1485 35.9448 8.35548C36.2092 8.22331 36.3414 7.95897 36.4735 7.8268C36.6057 7.69463 36.87 7.43029 37.0022 7.29811C37.2666 6.9016 37.3987 6.63726 37.5309 6.24075C36.6057 6.10858 35.5483 5.97641 34.6231 5.84424ZM39.91 6.76943L39.6456 7.03377C39.5135 7.43029 39.3813 7.95897 39.2491 8.48765C39.2491 8.88416 39.2491 9.28067 39.3813 9.54501C40.3065 8.48765 41.6282 8.09114 42.8177 7.95897C43.4786 8.09114 44.0073 8.75199 43.8751 9.54501C43.7429 9.67718 43.6107 9.94153 43.4786 10.0737C43.3464 10.338 43.2142 10.4702 43.0821 10.7345C42.8177 10.9989 42.289 11.2632 41.7604 10.9989C41.6282 11.1311 41.496 11.1311 41.3638 11.2632C41.2317 11.3954 40.9673 11.5276 40.8352 11.6597C40.5708 11.9241 40.3065 12.1884 40.3065 12.4528C40.703 12.5849 41.2317 12.8493 41.6282 13.1136C42.1569 13.378 42.5534 13.6423 43.0821 13.9066C44.0073 14.4353 44.9324 14.964 45.9898 15.0962C46.3863 14.8318 46.5185 14.4353 46.5185 13.9066C45.7255 13.1136 45.9898 12.3206 46.2542 11.6597C46.3863 11.2632 46.6507 10.9989 46.7828 10.6024C46.915 10.338 47.0472 10.0737 47.0472 9.80936C44.8003 8.61982 42.5534 7.29811 39.91 6.76943ZM28.279 7.03377C25.6355 7.29811 23.1243 8.48765 21.2739 10.338C22.1991 10.6024 23.1243 11.1311 23.9173 11.6597C24.7104 12.3206 25.5034 12.9814 26.2964 13.6423C26.4286 13.378 26.4286 13.1136 26.5607 12.8493C26.5607 12.4528 26.6929 12.0563 26.6929 11.6597C26.6929 10.9989 26.8251 10.0737 27.2216 9.41284L27.3538 9.1485L27.7503 9.54501L28.279 7.03377ZM18.1018 16.1535L17.3088 16.8144C16.5158 18.797 16.6479 21.4404 17.5731 23.1586C17.8375 22.8942 18.1018 22.6299 18.3662 22.2334C18.6305 21.8369 18.8948 21.3082 19.1592 20.7795C19.6879 19.8543 20.3487 18.9291 21.6704 18.797H21.8026V18.9291C21.9348 19.1935 21.8026 19.3256 21.8026 19.59C21.8026 19.7221 21.8026 19.7221 21.6704 19.8543V20.1187C21.5383 20.2508 21.5383 20.383 21.5383 20.5152C22.7278 19.7221 23.653 18.2683 23.7852 16.8144C21.9348 16.5501 19.9522 16.8144 18.3662 17.2109H18.1018V16.9466C17.9697 16.6822 18.1018 16.4179 18.1018 16.1535ZM98.7259 16.8144C93.9677 18.2683 88.1522 21.7047 87.6235 27.2559C86.8305 29.5028 86.434 32.014 86.3018 34.5253C86.0375 37.0365 86.0375 39.5477 85.9053 42.059C85.9053 42.1911 85.7731 42.3233 85.7731 42.4555C85.7731 42.5877 85.641 42.7198 85.641 42.852C85.5088 43.1163 85.2445 43.3807 84.7158 43.2485L84.5836 43.1163C81.808 38.7547 80.4863 33.7322 80.0898 28.3132C79.429 28.9741 78.9003 29.7671 78.3716 30.428C78.1073 30.8245 77.8429 31.3532 77.4464 31.7497C77.1821 32.1462 76.7855 32.5427 76.389 32.9392L76.2569 33.0714L76.1247 32.9392C75.7282 32.4105 75.596 31.7497 75.4638 31.0888C75.4638 30.8245 75.3317 30.428 75.3317 30.1636C75.3317 29.8993 75.1995 29.6349 75.0673 29.3706C74.803 29.2384 74.6708 29.3706 74.5387 29.5028C74.4065 29.6349 74.2743 29.7671 74.2743 29.7671C74.1421 29.8993 74.01 30.0315 73.8778 30.0315C69.7805 38.3582 71.2344 49.9892 73.2169 58.8446L72.6883 59.902C72.2918 60.2985 72.0274 60.1663 71.7631 59.902V59.7698L71.6309 59.6377C71.4987 59.5055 71.4987 59.5055 71.4987 59.5055L71.3666 59.3733C69.9127 55.4082 68.0623 51.7074 65.4189 48.4032L65.1545 48.271C65.0224 48.271 64.8902 48.1388 64.8902 48.1388C64.758 48.1388 64.6259 48.1388 64.4937 48.271C64.3615 48.5353 64.2293 48.6675 64.0972 48.9318C63.965 49.1962 63.965 49.4605 63.8328 49.7249C63.7007 50.2536 63.4363 50.7822 62.9076 51.0466L62.6433 51.1787L62.5111 50.9144C62.2468 50.2536 61.8503 49.5927 61.5859 48.9318C61.3216 48.271 60.9251 47.6101 60.5286 46.9493C59.7355 45.7598 58.8104 44.5702 57.4887 43.7772C56.5635 43.5128 55.6383 43.7772 54.7131 44.3059C59.2069 48.271 61.9824 53.0291 63.965 58.1838C64.0972 57.5229 64.2294 56.8621 64.3615 56.0691C64.6259 55.0117 65.0224 53.9543 65.5511 53.0291C66.3441 52.7648 67.0049 53.2935 67.5336 53.8222C70.0449 58.5803 71.2344 63.735 72.0274 69.1539H74.4065C74.6708 67.5679 74.6708 65.8497 74.6708 64.1315C74.6708 63.9993 74.803 63.7349 74.9352 63.6028C75.0673 63.4706 75.3317 63.3384 75.596 63.4706L75.7282 63.6028C76.6534 65.321 77.3142 67.3036 77.9751 69.1539L78.1073 69.5505C78.6359 71.1365 79.2968 72.5904 79.9576 73.9121C79.5611 72.326 79.1646 70.74 78.7681 69.1539C77.5786 64.6601 76.1247 60.4307 74.1421 56.3334C74.01 56.0691 74.01 55.6725 74.01 55.276C74.01 54.8795 74.4065 54.483 74.9352 54.7473C76.9177 57.1264 78.6359 59.109 80.7507 60.8272C80.7507 60.1663 80.8828 59.3733 81.2794 58.8446C82.0724 58.5803 82.4689 58.9768 82.8654 59.3733C84.3193 62.8098 86.3018 66.114 88.6809 69.1539C90.0026 70.8722 91.5887 72.4582 93.439 73.9121L94.2321 71.2687C94.3642 70.74 94.4964 70.3435 94.6286 69.947C94.7607 69.6826 94.7607 69.5505 94.8929 69.2861H94.3642C94.0999 69.6826 93.9677 70.2113 93.8356 70.6078L93.7034 71.0043L93.439 70.6078C93.1747 70.0791 92.9104 69.6826 92.646 69.1539C88.4166 61.6202 84.7158 53.8222 83.3941 44.9667L83.7906 43.9094L84.0549 44.0415C84.4514 44.1737 84.848 44.438 85.1123 44.5702C85.5088 44.8346 85.7731 44.9667 86.1697 45.2311C86.8305 45.6276 87.3592 46.0241 88.0201 46.2884C88.2844 45.2311 88.4166 43.9094 88.6809 42.7198C88.9452 41.3981 89.4739 40.2086 90.6635 39.4156L91.06 39.1512V39.5477C91.06 43.645 91.3243 47.8745 92.3817 51.7074C92.7782 53.0291 93.3069 54.3508 93.8356 55.5404C94.3642 56.7299 94.8929 57.9194 95.8181 58.8446C95.5538 56.7299 95.5538 54.7474 95.5538 52.6326C95.5538 52.5005 95.6859 52.3683 95.6859 52.3683C95.6859 52.2361 95.6859 52.1039 95.8181 51.9718C95.9503 51.7074 96.0825 51.4431 96.479 51.4431H96.6111C97.1398 51.9718 97.5363 52.7648 97.9328 53.4256C98.1972 53.9543 98.4615 54.483 98.7259 55.0117C99.3867 53.69 100.18 52.5005 101.237 51.4431C101.634 51.3109 101.766 51.3109 101.898 51.4431L102.162 51.5753H102.294H102.427V51.7074C102.823 53.69 103.087 55.8047 103.616 57.6551C104.145 59.6377 104.806 61.4881 105.731 63.0741C107.449 64.7923 108.639 66.7749 109.564 68.8896C110.357 71.0043 110.886 73.2512 111.018 75.6303V75.7625C110.886 76.0268 110.753 76.2912 110.621 76.5555C110.489 76.8198 110.357 77.2163 110.225 77.4807C109.96 78.1415 109.564 78.6702 108.771 78.8024H108.506V78.5381C108.242 75.7625 107.581 73.2512 106.127 71.0043C105.995 71.1365 105.863 71.2687 105.863 71.4008C105.863 71.533 105.731 71.6652 105.731 71.7974L105.599 72.1939C105.467 72.7225 105.202 73.3834 104.409 73.6477H104.277L104.145 73.5156C103.484 72.5904 103.087 71.6652 102.691 70.6078C102.559 70.0791 102.294 69.4183 102.162 68.8896H99.2545C98.9902 71.0043 98.858 73.1191 98.858 75.366L99.3867 76.0268C101.766 75.6303 103.881 74.8373 105.863 73.2512L105.995 73.1191L106.656 73.5156V73.6477C106.127 76.8198 104.806 79.7276 103.22 82.5032C105.202 83.0319 107.449 82.8997 109.167 81.9745H109.3C110.093 82.6353 110.225 83.5605 110.093 84.3536C109.96 85.0144 109.828 85.8074 109.696 86.3361C112.075 86.2039 114.454 85.6753 116.437 84.6179H116.701C117.494 85.1466 117.098 85.9396 116.701 86.3361C116.569 86.4683 116.437 86.6005 116.305 86.7326L116.04 86.997C116.833 86.6005 118.551 85.9396 118.551 85.9396C119.212 85.9396 119.873 85.8074 120.534 85.8074C121.195 85.8074 121.856 85.9396 122.384 86.2039L122.517 86.3361C122.649 86.8648 122.252 87.2613 121.988 87.5257C121.856 87.6578 121.591 87.79 121.459 87.9222C121.327 88.0543 121.195 88.1865 121.063 88.1865C119.873 89.376 119.477 91.3586 120.005 92.9446C120.798 94.5307 122.517 95.8524 124.235 95.9846C125.821 96.3811 126.085 95.7202 126.35 94.6629C126.482 94.3985 126.482 94.1342 126.614 93.8698C126.746 93.6055 126.878 93.3412 127.01 93.0768C127.275 92.5481 127.803 92.2838 128.464 92.1516C128.464 90.6977 128.993 89.5082 130.05 88.583C129.654 87.9222 129.522 87.3935 129.654 86.8648C129.654 86.6005 129.786 86.3361 129.918 85.9396C130.05 85.6753 130.182 85.4109 130.315 85.1466C130.843 84.0892 131.24 83.2962 129.918 82.5032C129.654 82.1067 129.654 81.8423 129.654 81.578C129.654 81.3136 129.654 81.0493 129.786 80.785C129.918 80.3884 129.918 79.9919 129.654 79.5954C126.35 79.1989 123.177 80.785 120.27 82.371H120.137C119.344 81.9745 119.344 81.3136 119.344 80.5206C119.344 80.1241 119.344 79.8598 119.344 79.4632C119.344 79.1989 119.344 78.9346 119.344 78.8024C118.287 78.6702 117.494 79.1989 116.569 79.7276C116.04 79.9919 115.644 80.3884 115.115 80.785C114.586 81.1815 114.19 81.4458 113.661 81.7101C113.529 81.8423 113.265 81.9745 113.132 82.1067C112.868 82.2388 112.604 82.371 112.339 82.5032C111.811 82.6353 111.282 82.5032 111.018 81.7101V81.578C113 78.0094 112.868 72.9869 111.15 69.2861C111.018 69.0218 110.753 68.8896 110.621 68.6253C104.409 60.695 101.501 49.5927 106.656 40.3408L106.92 40.0764C106.92 40.0764 107.053 39.9442 107.185 39.9442C107.449 39.8121 107.713 39.8121 107.846 40.0764V40.2086C107.846 42.4555 107.846 44.9667 108.242 47.3458C108.639 49.5927 109.3 51.7074 110.753 53.4256C110.886 53.1613 111.018 52.897 111.018 52.6326C111.15 52.2361 111.414 51.8396 111.943 51.7074L111.811 50.9144C111.679 51.0466 111.414 50.9144 111.282 50.7822L111.15 50.6501L111.018 50.5179C110.886 50.3857 110.886 50.3857 110.886 50.3857L110.753 50.2536C107.317 44.9667 107.978 36.9043 111.15 31.4853C109.696 32.6749 108.639 34.5253 107.978 36.2435C107.846 36.5078 107.713 36.7722 107.713 37.0365C107.581 37.3008 107.581 37.5652 107.449 37.8295C107.317 38.3582 107.053 39.0191 106.656 39.5477C106.26 39.6799 105.995 39.6799 105.863 39.5477C105.731 39.5477 105.731 39.4156 105.731 39.4156C103.352 41.6625 102.955 44.7024 102.427 47.8745C102.294 48.0066 102.294 48.271 102.294 48.5353C102.294 48.7997 102.294 48.9318 102.294 49.1962C102.294 49.5927 102.162 50.1214 101.501 50.2536H101.369V50.1214C99.3867 43.1163 100.973 35.1861 106.26 30.0315C106.656 29.3706 107.185 28.9741 107.713 28.5776C108.242 28.1811 108.903 27.9167 109.432 27.5202C110.489 26.8594 111.282 26.0663 111.018 24.6125C111.679 22.2334 114.058 20.6473 116.305 20.383C115.908 19.59 116.305 18.797 116.701 18.1361C116.965 17.7396 117.23 17.4752 117.494 17.2109C117.626 17.0787 117.758 16.9466 117.758 16.8144C109.035 19.1935 102.162 27.388 98.9902 34.9218C98.858 35.0539 98.858 35.1861 98.7259 35.4504C98.7259 35.5826 98.7259 35.847 98.7259 36.1113C98.7259 36.5078 98.5937 37.0365 97.9328 37.1687H97.6685V36.9043C96.0825 30.8245 97.9328 24.7446 100.841 19.8543L97.6685 20.6473L96.7433 20.1187V19.9865C96.8755 19.1935 97.272 18.6648 97.8007 18.1361C98.065 17.8718 98.1972 17.6074 98.4615 17.3431C98.5937 17.0787 98.7259 16.9466 98.7259 16.8144ZM74.4065 69.1539H71.8952C72.1596 71.533 72.4239 74.0443 72.5561 76.5555C73.4813 74.1764 74.01 71.7974 74.4065 69.1539ZM125.16 18.6648C122.384 18.6648 119.609 19.1935 117.362 20.6473C119.212 20.9117 121.063 21.969 122.649 23.1586C125.821 21.969 129.522 21.0439 132.958 20.383C130.711 19.3256 127.936 18.6648 125.16 18.6648ZM24.8425 22.2334C23.2565 22.7621 21.8026 24.2159 20.8774 25.6698C20.2166 26.595 20.2166 27.7846 21.1417 28.4454C21.9348 27.9167 22.5956 27.2559 23.3886 26.7272C24.1817 26.1985 25.1069 25.6698 26.1642 25.6698C26.9573 25.5377 27.2216 24.7446 27.2216 23.9516C27.0894 23.6873 26.9573 23.5551 26.6929 23.2908C26.5607 23.0264 26.2964 22.8942 26.0321 22.6299C25.7677 22.3656 25.3712 22.2334 24.8425 22.2334ZM137.981 22.6299C136.394 22.6299 134.808 22.8942 133.222 23.1586C133.619 23.1586 134.015 23.1586 134.544 23.1586L134.676 23.2908L134.941 23.5551C135.073 23.6873 135.205 23.8194 135.073 24.2159C133.487 24.7446 131.769 25.2733 130.182 25.802C128.596 26.3307 127.143 27.1237 125.689 28.0489C125.556 28.1811 125.424 28.4454 125.16 28.5776C125.028 28.8419 124.896 28.9741 124.763 29.2384C124.631 29.5028 124.499 29.7671 124.631 30.0315C126.35 28.5776 128.464 27.6524 130.447 26.8594C131.108 26.595 131.901 26.3307 132.694 26.0663C133.487 25.9342 134.28 25.802 135.073 26.0663L135.337 26.1985L134.941 26.8594C133.487 27.9167 131.901 28.7097 130.447 29.6349C128.993 30.5601 127.539 31.6175 126.482 33.2035L126.35 33.4679C126.35 33.6001 126.217 33.6001 126.217 33.7322C126.217 33.8644 126.217 33.9966 126.217 33.9966C127.275 33.8644 128.068 33.3357 128.861 32.5427C129.257 32.1462 129.654 31.7497 130.05 31.4853C130.447 31.0888 130.975 30.8245 131.372 30.5601C131.901 30.2958 132.562 30.0315 133.09 29.7671C133.619 29.5028 134.28 29.3706 134.941 29.6349L135.205 29.7671V30.0315C134.941 30.6923 134.676 31.221 134.28 31.7497C133.883 32.2784 133.487 32.807 133.222 33.3357C132.826 33.8644 132.562 34.3931 132.429 34.9218C133.751 33.3357 135.205 33.0714 136.923 33.4679C136.791 33.3357 136.791 33.2035 136.659 33.0714C136.527 32.9392 136.527 32.807 136.527 32.5427C136.527 32.1462 136.659 31.7497 137.055 31.6175C138.377 31.6175 139.567 31.8818 140.624 32.1462C141.681 32.4105 142.739 32.9392 143.796 33.3357C144.721 34.1287 145.646 34.6574 146.704 35.0539C147.232 35.3183 147.761 35.4504 148.29 35.7148C148.819 35.9791 149.347 36.2435 149.744 36.5078L149.876 36.64C150.008 37.433 149.479 37.6973 149.083 37.9617C148.819 38.0939 148.686 38.0939 148.422 38.226L148.158 38.3582L148.422 38.4904C148.686 38.6225 148.819 38.7547 149.083 38.7547C149.479 39.0191 150.008 39.2834 150.272 39.6799L150.405 39.8121L150.272 39.9442C149.479 40.6051 148.686 40.7373 148.025 40.7373C147.629 40.7373 147.232 40.7373 146.836 40.6051C146.572 40.6051 146.175 40.6051 145.911 40.6051C146.043 40.8694 146.175 40.8694 146.307 41.0016L146.572 41.1338C146.704 41.1338 146.704 41.2659 146.836 41.3981C146.968 41.5303 147.1 41.7946 147.1 42.059L146.968 42.1911C145.382 43.645 143.4 44.3059 141.417 44.8346H141.153C140.888 44.5702 140.756 44.3059 140.888 44.0415C140.888 43.9094 141.02 43.7772 141.02 43.645C141.02 43.5129 141.153 43.3807 141.285 43.3807C141.549 42.9842 141.681 42.7198 141.417 42.4555C140.36 42.7198 139.567 42.3233 138.774 41.9268C138.641 41.7946 138.377 41.7946 138.245 41.6625C138.113 41.5303 137.848 41.5303 137.716 41.5303C137.452 41.3981 137.055 41.3981 136.791 41.5303C137.055 42.059 137.452 42.4555 137.981 42.852C138.245 43.1163 138.509 43.3807 138.774 43.645C139.038 43.9094 139.17 44.3059 139.302 44.5702V44.8346H139.038C138.245 45.0989 137.32 44.9667 136.394 44.7024C135.866 44.5702 135.337 44.438 134.808 44.3059L137.055 46.5528C136.923 47.3458 136.394 47.6101 135.866 47.7423C135.601 47.7423 135.337 47.8745 135.073 47.8745C134.808 47.8745 134.544 48.0066 134.412 48.1388H134.28C132.826 47.8745 131.504 47.6101 130.447 46.2884C129.522 45.6276 129.257 44.7024 129.257 43.7772C129.257 42.9842 129.257 42.1911 129.257 41.3981C128.993 41.6625 128.729 42.059 128.464 42.4555L128.596 42.5877L128.729 42.7198H128.596C127.671 44.0415 127.143 45.8919 127.936 47.3458C128.332 48.271 129.125 49.1962 130.182 49.4605C133.355 49.9892 136.262 48.271 139.038 46.6849C140.624 46.0241 141.946 46.4206 143.135 46.9493C143.796 47.2136 144.325 47.6101 144.853 47.8745C145.382 48.271 146.043 48.5353 146.572 48.6675C146.836 48.7997 146.968 48.9318 147.1 49.1962C147.1 49.3284 147.1 49.3284 147.1 49.4605C147.893 49.4605 148.818 49.3284 149.347 49.5927C150.272 48.7997 151.594 48.7997 152.784 48.7997C153.444 48.7997 153.973 48.7997 154.634 48.7997C155.163 48.7997 155.691 48.6675 156.22 48.4032C157.013 48.1388 157.145 47.7423 157.013 47.0815C156.881 46.6849 156.749 46.4206 156.749 46.0241C156.617 45.6276 156.484 45.3632 156.617 44.9667V44.7024H156.881C157.013 44.7024 157.145 44.8346 157.277 44.8346C158.335 43.645 159.128 41.3981 158.996 39.9442C158.863 40.2086 158.731 40.4729 158.467 40.7373L158.07 41.1338L157.938 40.8694C157.806 40.7373 157.806 40.6051 157.806 40.4729C157.806 40.6051 157.674 40.6051 157.674 40.7373C157.41 40.8694 157.145 41.0016 156.881 41.1338C156.617 41.2659 156.484 41.2659 156.352 41.3981C156.088 41.5303 155.824 41.6625 155.824 42.1911V42.4555L155.559 42.3233C154.634 41.9268 154.502 41.2659 154.37 40.4729C154.37 40.0764 154.238 39.8121 154.238 39.4156C154.238 39.0191 154.105 38.7547 153.973 38.4904C152.916 37.433 151.991 36.1113 151.462 34.7896H150.933L151.462 35.0539C151.594 35.0539 151.726 35.1861 151.858 35.1861C151.462 34.7896 151.198 34.5253 150.933 34.1287H150.801L150.669 33.9966C150.537 33.7322 150.272 33.6001 150.008 33.3357L149.612 32.9392C149.479 32.807 149.347 32.6749 149.215 32.5427C148.818 32.1462 148.422 31.6175 148.686 30.8245L148.819 30.6923C151.065 30.0315 153.709 30.6923 155.691 31.6175C155.956 32.014 156.088 32.2784 156.352 32.5427C156.617 32.807 156.749 33.0714 157.013 33.4679L157.145 33.6001L157.277 33.3357C157.277 33.0714 157.277 32.807 157.145 32.5427L156.881 32.807L156.749 32.4105C156.617 32.014 156.484 31.6175 156.352 31.3532C156.088 30.9566 155.956 30.6923 155.691 30.2958C155.163 29.6349 154.766 28.8419 154.634 27.9167V27.6524C154.237 26.9915 153.973 26.4628 153.709 26.0663H153.444L153.312 25.9342C152.651 25.1411 151.858 24.8768 150.933 24.7446C150.537 24.7446 150.008 24.7446 149.612 24.7446C149.083 24.7446 148.686 24.8768 148.158 24.8768C146.307 25.009 144.325 25.009 143.135 22.8942C141.285 22.6299 139.699 22.6299 137.981 22.6299ZM30.658 26.8594C29.865 26.8594 29.4685 27.5202 29.072 28.3132C28.9398 28.5776 28.8076 28.9741 28.5433 29.2384C28.4111 29.5028 28.1468 29.8993 27.8824 30.1636C27.4859 30.6923 26.8251 31.0888 26.0321 31.0888C25.8999 31.7497 26.2964 32.2784 26.5607 32.9392C26.6929 32.9392 26.9573 32.9392 27.0894 32.9392C27.3538 32.9392 27.4859 32.807 27.6181 32.6749C29.4685 31.4853 31.7154 29.6349 32.5084 27.6524L32.1119 27.2559C31.7154 26.9915 31.3189 26.8594 31.0545 26.8594C30.9224 26.7272 30.7902 26.7272 30.658 26.8594ZM35.0197 32.807C34.7553 32.807 34.3588 32.807 34.0945 32.807C32.6406 32.9392 31.1867 33.3357 30.1293 33.9966C29.7328 34.6574 30.1293 35.5826 30.7902 35.9791C32.2441 36.5078 33.8301 36.2435 35.5483 35.9791C36.3414 35.847 37.2666 35.7148 38.0596 35.5826C38.8526 35.4504 39.6456 35.4504 40.4386 35.4504C39.1169 33.7322 37.1344 32.9392 35.0197 32.807ZM157.277 33.7322C157.542 34.1287 157.674 34.6574 157.41 35.3183C158.07 35.7148 158.467 36.1113 158.599 36.3756L159.392 36.64C158.996 35.3183 158.335 34.3931 157.277 33.7322ZM159.524 57.3908C159.392 57.3908 159.26 57.3908 159.26 57.5229C159.128 59.7698 157.938 61.7524 156.617 63.0741L156.484 63.2063L156.352 63.0741C155.956 62.8098 155.691 62.4132 155.559 62.0167C155.559 61.8846 155.427 61.6202 155.427 61.4881L155.295 61.2237L154.37 61.8846C153.841 61.6202 153.709 61.3559 153.709 61.0915C153.709 60.9594 153.709 60.8272 153.577 60.695C153.312 61.0915 153.048 61.3559 152.784 61.7524C152.519 62.1489 152.387 62.5454 152.387 63.0741C152.651 63.6028 152.784 63.6028 153.312 63.0741L153.709 62.6776C153.841 62.5454 153.973 62.4132 154.105 62.2811C154.37 62.0167 154.766 61.8846 155.163 61.8846L155.295 62.0167C156.088 63.3384 155.956 65.4532 155.559 66.907C155.956 67.0392 156.088 67.3036 156.088 67.7001C156.088 67.8322 156.088 68.0966 156.088 68.2287C156.088 68.3609 156.088 68.4931 156.088 68.6253C156.352 68.7574 156.749 68.8896 157.013 69.0218C157.674 69.2861 158.335 69.4183 158.996 69.6826C160.053 70.0791 161.11 70.6078 162.036 71.4008V71.6652C162.036 71.7974 161.903 71.9295 161.903 71.9295C166.001 70.6078 168.512 71.6652 169.569 76.4233C170.627 81.4458 172.477 82.8997 174.327 83.4284V83.2962C174.327 82.7675 174.592 82.371 174.856 81.8423C175.253 81.0493 175.12 79.7276 174.46 79.0667C174.063 78.1415 174.195 77.2163 174.856 76.5555C175.385 75.8946 176.178 75.7625 176.971 75.6303C177.632 75.4981 178.425 75.6303 179.086 75.6303C178.953 75.4981 178.953 75.4981 178.821 75.4981C178.689 75.4981 178.689 75.4981 178.557 75.366C176.046 74.9695 173.799 76.159 172.213 78.2737L172.081 78.4059L171.948 78.2737C170.759 77.745 170.362 76.8198 170.23 75.7625C170.23 75.2338 170.23 74.7051 170.23 74.1764C170.23 73.6477 170.362 73.1191 170.362 72.5904C170.098 71.9295 169.569 71.533 168.776 71.2687C167.983 71.0043 167.058 70.8722 166.397 70.6078C166.265 70.4756 166.001 70.4756 165.868 70.4756C165.604 70.4756 165.472 70.3435 165.208 70.2113C164.811 70.0791 164.415 69.6826 164.547 69.0218L164.679 68.8896C165.472 68.2287 166.265 67.9644 167.058 67.7001C167.455 67.5679 167.983 67.4357 168.38 67.3036C168.776 67.1714 169.041 67.0392 169.305 66.7749L169.173 66.6427C168.115 66.5105 166.926 66.3784 165.736 66.3784C164.547 66.3784 163.357 66.3784 162.3 66.6427H162.168C162.036 66.5105 162.036 66.3784 161.903 66.3784L161.639 66.5105C161.507 66.3784 161.375 66.2462 161.243 65.9818C161.243 65.321 161.639 64.9245 162.036 64.528C162.3 64.3958 162.432 64.2636 162.696 64.1315C162.829 63.9993 162.961 63.9993 163.093 63.8671L162.3 62.8098L162.564 62.6776C163.357 62.2811 164.15 62.1489 164.943 62.2811C165.604 62.2811 166.133 62.4132 166.794 62.5454C166.397 62.0167 165.736 61.7524 165.075 61.6202C164.679 61.6202 164.15 61.4881 163.754 61.4881C163.357 61.4881 162.829 61.4881 162.564 61.4881C162.3 61.4881 162.036 61.6202 161.771 61.7524C161.507 61.8846 161.243 62.1489 160.978 62.2811C160.45 62.6776 159.789 62.9419 159.128 62.5454L158.996 62.4132V62.2811C159.26 61.6202 159.656 60.9594 159.921 60.1663C160.185 59.5055 160.317 58.7125 160.185 57.9194C160.053 57.6551 159.789 57.3908 159.524 57.3908ZM100.841 62.2811C99.9154 64.528 99.3867 66.7749 98.9902 69.2861H101.898C101.766 68.8896 101.634 68.3609 101.501 67.9644C101.369 66.907 101.237 65.7175 101.105 64.6601C101.105 63.7349 101.105 62.9419 100.841 62.2811ZM95.9503 66.7749C95.2894 67.5679 94.8929 68.3609 94.3642 69.2861H94.8929C95.0251 69.0218 95.0251 68.8896 95.1573 68.6253C95.5538 67.9644 95.8181 67.3036 95.9503 66.7749ZM111.546 90.9621C112.207 91.3586 113 91.7551 113.661 92.1516C114.718 92.6803 115.644 93.0768 116.833 93.209L114.983 91.3586C114.058 91.4908 113.265 91.3586 112.472 91.2264C112.075 91.0943 111.811 91.0943 111.546 90.9621Z" fill="#F8992E"/>
<path d="M74.4065 69.1539H72.0274C71.2344 63.735 70.0449 58.5803 67.5336 53.8222C67.0049 53.2935 66.3441 52.7648 65.5511 53.0291C65.0224 53.9543 64.6259 55.0117 64.3615 56.0691C64.2294 56.8621 64.0972 57.5229 63.965 58.1838C61.9824 53.0291 59.2069 48.271 54.7131 44.3059C55.6383 43.7772 56.5635 43.5128 57.4887 43.7772C58.8104 44.5702 59.7355 45.7598 60.5286 46.9493C60.9251 47.6101 61.3216 48.271 61.5859 48.9318C61.8503 49.5927 62.2468 50.2536 62.5111 50.9144L62.6433 51.1787L62.9076 51.0466C63.4363 50.7822 63.7007 50.2536 63.8328 49.7249C63.965 49.4605 63.965 49.1962 64.0972 48.9318C64.2293 48.6675 64.3615 48.5353 64.4937 48.271C64.6259 48.1388 64.758 48.1388 64.8902 48.1388C64.8902 48.1388 65.0224 48.271 65.1545 48.271L65.4189 48.4032C68.0623 51.7074 69.9127 55.4082 71.3666 59.3733L71.4987 59.5055C71.4987 59.5055 71.4987 59.5055 71.6309 59.6377L71.7631 59.7698V59.902C72.0274 60.1663 72.2918 60.2985 72.6883 59.902L73.2169 58.8446C71.2344 49.9892 69.7805 38.3582 73.8778 30.0315C74.01 30.0315 74.1421 29.8993 74.2743 29.7671C74.2743 29.7671 74.4065 29.6349 74.5386 29.5028C74.6708 29.3706 74.803 29.2384 75.0673 29.3706C75.1995 29.6349 75.3317 29.8993 75.3317 30.1636C75.3317 30.428 75.4638 30.8245 75.4638 31.0888C75.596 31.7497 75.7282 32.4105 76.1247 32.9392L76.2569 33.0714L76.389 32.9392C76.7856 32.5427 77.1821 32.1462 77.4464 31.7497C77.8429 31.3532 78.1073 30.8245 78.3716 30.428C78.9003 29.7671 79.429 28.9741 80.0898 28.3132C80.4863 33.7322 81.808 38.7547 84.5836 43.1163L84.7158 43.2485C85.2445 43.3807 85.5088 43.1163 85.641 42.852C85.641 42.7198 85.7731 42.5877 85.7731 42.4555C85.7731 42.3233 85.9053 42.1911 85.9053 42.059C86.0375 39.5477 86.0375 37.0365 86.3018 34.5253C86.434 32.014 86.8305 29.5028 87.6235 27.2559C88.1522 21.7047 93.9677 18.2683 98.7259 16.8144C98.7259 16.9466 98.5937 17.0787 98.4615 17.3431C98.1972 17.6074 98.065 17.8718 97.8007 18.1361C97.272 18.6648 96.8755 19.1935 96.7433 19.9865V20.1187L97.6685 20.6473L100.841 19.8543C97.9328 24.7446 96.0825 30.8245 97.6685 36.9043V37.1687H97.9328C98.5937 37.0365 98.7259 36.5078 98.7259 36.1113C98.7259 35.847 98.7259 35.5826 98.7259 35.4504C98.858 35.1861 98.858 35.0539 98.9902 34.9218C102.162 27.388 109.035 19.1935 117.758 16.8144C117.758 16.9466 117.626 17.0787 117.494 17.2109C117.23 17.4752 116.965 17.7396 116.701 18.1361C116.305 18.797 115.908 19.59 116.305 20.383C114.058 20.6473 111.679 22.2334 111.018 24.6125C111.282 26.0663 110.489 26.8594 109.432 27.5202C108.903 27.9167 108.242 28.1811 107.713 28.5776C107.185 28.9741 106.656 29.3706 106.26 30.0315C100.973 35.1861 99.3867 43.1163 101.369 50.1214V50.2536H101.501C102.162 50.1214 102.294 49.5927 102.294 49.1962C102.294 48.9318 102.294 48.7997 102.294 48.5353C102.294 48.271 102.294 48.0066 102.427 47.8745C102.955 44.7024 103.352 41.6625 105.731 39.4156C105.731 39.4156 105.731 39.5477 105.863 39.5477C105.995 39.6799 106.26 39.6799 106.656 39.5477C107.053 39.0191 107.317 38.3582 107.449 37.8295C107.581 37.5652 107.581 37.3008 107.713 37.0365C107.713 36.7722 107.846 36.5078 107.978 36.2435C108.639 34.5253 109.696 32.6749 111.15 31.4853C107.978 36.9043 107.317 44.9667 110.753 50.2536L110.886 50.3857C110.886 50.3857 110.886 50.3857 111.018 50.5179L111.15 50.6501L111.282 50.7822C111.414 50.9144 111.679 51.0466 111.811 50.9144L111.943 51.7074C111.414 51.8396 111.15 52.2361 111.018 52.6326C111.018 52.897 110.886 53.1613 110.753 53.4256C109.3 51.7074 108.639 49.5927 108.242 47.3458C107.846 44.9667 107.846 42.4555 107.846 40.2086V40.0764C107.713 39.8121 107.449 39.8121 107.185 39.9442C107.053 39.9442 106.92 40.0764 106.92 40.0764L106.656 40.3408C101.501 49.5927 104.409 60.695 110.621 68.6253C110.753 68.8896 111.018 69.0218 111.15 69.2861C112.868 72.9869 113 78.0094 111.018 81.578V81.7101C111.282 82.5032 111.811 82.6353 112.339 82.5032C112.604 82.371 112.868 82.2388 113.132 82.1067C113.265 81.9745 113.529 81.8423 113.661 81.7101C114.19 81.4458 114.586 81.1815 115.115 80.785C115.644 80.3884 116.04 79.9919 116.569 79.7276C117.494 79.1989 118.287 78.6702 119.344 78.8024C119.344 78.9346 119.344 79.1989 119.344 79.4632C119.344 79.8598 119.344 80.1241 119.344 80.5206C119.344 81.3136 119.344 81.9745 120.137 82.371H120.27C123.177 80.785 126.35 79.1989 129.654 79.5954C129.918 79.9919 129.918 80.3884 129.786 80.785C129.654 81.0493 129.654 81.3136 129.654 81.578C129.654 81.8423 129.654 82.1067 129.918 82.5032C131.24 83.2962 130.843 84.0892 130.315 85.1466C130.182 85.4109 130.05 85.6753 129.918 85.9396C129.786 86.3361 129.654 86.6005 129.654 86.8648C129.522 87.3935 129.654 87.9222 130.05 88.583C128.993 89.5082 128.464 90.6977 128.464 92.1516C127.803 92.2838 127.275 92.5481 127.01 93.0768C126.878 93.3412 126.746 93.6055 126.614 93.8698C126.482 94.1342 126.482 94.3985 126.35 94.6629C126.085 95.7202 125.821 96.3811 124.235 95.9846C122.517 95.8524 120.798 94.5307 120.005 92.9446C119.477 91.3586 119.873 89.376 121.063 88.1865C121.195 88.1865 121.327 88.0543 121.459 87.9222C121.591 87.79 121.856 87.6578 121.988 87.5257C122.252 87.2613 122.649 86.8648 122.517 86.3361L122.384 86.2039C121.856 85.9396 121.195 85.8074 120.534 85.8074C119.873 85.8074 119.212 85.9396 118.551 85.9396C118.551 85.9396 116.833 86.6005 116.04 86.997L116.305 86.7326C116.437 86.6005 116.569 86.4683 116.701 86.3361C117.098 85.9396 117.494 85.1466 116.701 84.6179H116.437C114.454 85.6753 112.075 86.2039 109.696 86.3361C109.828 85.8074 109.96 85.0144 110.093 84.3536C110.225 83.5605 110.093 82.6353 109.3 81.9745H109.167C107.449 82.8997 105.202 83.0319 103.22 82.5032C104.806 79.7276 106.127 76.8198 106.656 73.6477V73.5156L105.995 73.1191L105.863 73.2512C103.881 74.8373 101.766 75.6303 99.3867 76.0268L98.858 75.366C98.858 73.1191 98.9902 71.0043 99.2545 68.8896H102.162C102.294 69.4183 102.559 70.0791 102.691 70.6078C103.087 71.6652 103.484 72.5904 104.145 73.5156L104.277 73.6477H104.409C105.202 73.3834 105.467 72.7225 105.599 72.1939L105.731 71.7974C105.731 71.6652 105.863 71.533 105.863 71.4008C105.863 71.2687 105.995 71.1365 106.127 71.0043C107.581 73.2512 108.242 75.7625 108.506 78.5381V78.8024H108.771C109.564 78.6702 109.96 78.1415 110.225 77.4807C110.357 77.2163 110.489 76.8198 110.621 76.5555C110.753 76.2912 110.886 76.0268 111.018 75.7625V75.6303C110.886 73.2512 110.357 71.0043 109.564 68.8896C108.639 66.7749 107.449 64.7923 105.731 63.0741C104.806 61.4881 104.145 59.6377 103.616 57.6551C103.087 55.8047 102.823 53.69 102.427 51.7074V51.5753H102.294H102.162L101.898 51.4431C101.766 51.3109 101.634 51.3109 101.237 51.4431C100.18 52.5004 99.3867 53.69 98.7259 55.0117C98.4615 54.483 98.1972 53.9543 97.9328 53.4256C97.5363 52.7648 97.1398 51.9718 96.6111 51.4431H96.479C96.0825 51.4431 95.9503 51.7074 95.8181 51.9718C95.6859 52.1039 95.6859 52.2361 95.6859 52.3683C95.6859 52.3683 95.5538 52.5005 95.5538 52.6326C95.5538 54.7474 95.5538 56.7299 95.8181 58.8446C94.8929 57.9194 94.3642 56.7299 93.8356 55.5404C93.3069 54.3508 92.7782 53.0291 92.3817 51.7074C91.3243 47.8745 91.06 43.645 91.06 39.5477V39.1512L90.6635 39.4156C89.4739 40.2086 88.9452 41.3981 88.6809 42.7198C88.4166 43.9094 88.2844 45.2311 88.02 46.2884C87.3592 46.0241 86.8305 45.6276 86.1697 45.2311C85.7732 44.9667 85.5088 44.8346 85.1123 44.5702C84.848 44.438 84.4514 44.1737 84.0549 44.0415L83.7906 43.9094L83.3941 44.9667C84.7158 53.8222 88.4166 61.6202 92.646 69.1539C92.9104 69.6826 93.1747 70.0791 93.439 70.6078L93.7034 71.0043L93.8356 70.6078C93.9677 70.2113 94.0999 69.6826 94.3642 69.2861M74.4065 69.1539C74.6708 67.5679 74.6708 65.8497 74.6708 64.1315C74.6708 63.9993 74.803 63.7349 74.9352 63.6028C75.0673 63.4706 75.3317 63.3384 75.596 63.4706L75.7282 63.6028C76.6534 65.321 77.3142 67.3036 77.9751 69.1539M74.4065 69.1539H71.8952C72.1596 71.533 72.4239 74.0443 72.5561 76.5555C73.4813 74.1764 74.01 71.7974 74.4065 69.1539ZM77.9751 69.1539H78.3716M77.9751 69.1539L78.1073 69.5505C78.6359 71.1365 79.2968 72.5904 79.9576 73.9121C79.5611 72.326 79.1646 70.74 78.7681 69.1539C77.5786 64.6601 76.1247 60.4307 74.1421 56.3334C74.01 56.0691 74.01 55.6725 74.01 55.276C74.01 54.8795 74.4065 54.483 74.9352 54.7473C76.9177 57.1264 78.6359 59.109 80.7507 60.8272C80.7507 60.1663 80.8828 59.3733 81.2794 58.8446C82.0724 58.5803 82.4689 58.9768 82.8654 59.3733C84.3193 62.8098 86.3018 66.114 88.6809 69.1539M88.6809 69.1539H91.1921M88.6809 69.1539C90.0026 70.8722 91.5887 72.4582 93.439 73.9121L94.2321 71.2687C94.3642 70.74 94.4964 70.3435 94.6286 69.947C94.7607 69.6826 94.7607 69.5505 94.8929 69.2861M94.8929 69.2861H94.3642M94.8929 69.2861C95.0251 69.0218 95.0251 68.8896 95.1573 68.6253C95.5538 67.9644 95.8181 67.3036 95.9503 66.7749C95.2894 67.5679 94.8929 68.3609 94.3642 69.2861M34.6231 5.84424C33.6979 6.50509 33.1693 7.16594 32.5084 7.95897C31.9797 8.75199 31.3189 9.67718 30.658 10.4702H30.3937C29.865 10.338 29.865 10.6024 29.865 10.9989C29.865 11.2632 29.865 11.5276 29.865 11.7919C29.865 11.9241 29.865 12.0563 29.865 12.1884H29.9972L30.2615 12.0563C30.3937 12.0563 30.3937 11.9241 30.5259 11.9241C30.7902 11.7919 31.0545 11.7919 31.451 11.7919C31.7154 11.7919 32.1119 11.7919 32.5084 11.6597C33.1693 11.6597 33.6979 11.5276 34.0945 11.1311C34.2266 9.94153 35.1518 9.1485 35.9448 8.35548C36.2092 8.22331 36.3414 7.95897 36.4735 7.8268C36.6057 7.69463 36.87 7.43029 37.0022 7.29811C37.2666 6.9016 37.3987 6.63726 37.5309 6.24075C36.6057 6.10858 35.5483 5.97641 34.6231 5.84424ZM39.91 6.76943L39.6456 7.03377C39.5135 7.43029 39.3813 7.95897 39.2491 8.48765C39.2491 8.88416 39.2491 9.28067 39.3813 9.54501C40.3065 8.48765 41.6282 8.09114 42.8177 7.95897C43.4786 8.09114 44.0073 8.75199 43.8751 9.54501C43.7429 9.67718 43.6107 9.94153 43.4786 10.0737C43.3464 10.338 43.2142 10.4702 43.0821 10.7345C42.8177 10.9989 42.289 11.2632 41.7604 10.9989C41.6282 11.1311 41.496 11.1311 41.3638 11.2632C41.2317 11.3954 40.9673 11.5276 40.8352 11.6597C40.5708 11.9241 40.3065 12.1884 40.3065 12.4528C40.703 12.5849 41.2317 12.8493 41.6282 13.1136C42.1569 13.378 42.5534 13.6423 43.0821 13.9066C44.0073 14.4353 44.9324 14.964 45.9898 15.0962C46.3863 14.8318 46.5185 14.4353 46.5185 13.9066C45.7255 13.1136 45.9898 12.3206 46.2542 11.6597C46.3863 11.2632 46.6507 10.9989 46.7828 10.6024C46.915 10.338 47.0472 10.0737 47.0472 9.80936C44.8003 8.61982 42.5534 7.29811 39.91 6.76943ZM28.279 7.03377C25.6355 7.29811 23.1243 8.48765 21.2739 10.338C22.1991 10.6024 23.1243 11.1311 23.9173 11.6597C24.7104 12.3206 25.5034 12.9814 26.2964 13.6423C26.4286 13.378 26.4286 13.1136 26.5607 12.8493C26.5607 12.4528 26.6929 12.0563 26.6929 11.6597C26.6929 10.9989 26.8251 10.0737 27.2216 9.41284L27.3538 9.1485L27.7503 9.54501L28.279 7.03377ZM18.1018 16.1535L17.3088 16.8144C16.5158 18.797 16.6479 21.4404 17.5731 23.1586C17.8375 22.8942 18.1018 22.6299 18.3662 22.2334C18.6305 21.8369 18.8948 21.3082 19.1592 20.7795C19.6879 19.8543 20.3487 18.9291 21.6704 18.797H21.8026V18.9291C21.9348 19.1935 21.8026 19.3256 21.8026 19.59C21.8026 19.7221 21.8026 19.7221 21.6704 19.8543V20.1187C21.5383 20.2508 21.5383 20.383 21.5383 20.5152C22.7278 19.7221 23.653 18.2683 23.7852 16.8144C21.9348 16.5501 19.9522 16.8144 18.3662 17.2109H18.1018V16.9466C17.9697 16.6822 18.1018 16.4179 18.1018 16.1535ZM125.16 18.6648C122.384 18.6648 119.609 19.1935 117.362 20.6473C119.212 20.9117 121.063 21.969 122.649 23.1586C125.821 21.969 129.522 21.0439 132.958 20.383C130.711 19.3256 127.936 18.6648 125.16 18.6648ZM24.8425 22.2334C23.2565 22.7621 21.8026 24.2159 20.8774 25.6698C20.2166 26.595 20.2166 27.7846 21.1417 28.4454C21.9348 27.9167 22.5956 27.2559 23.3886 26.7272C24.1817 26.1985 25.1069 25.6698 26.1642 25.6698C26.9573 25.5377 27.2216 24.7446 27.2216 23.9516C27.0894 23.6873 26.9573 23.5551 26.6929 23.2908C26.5607 23.0264 26.2964 22.8942 26.0321 22.6299C25.7677 22.3656 25.3712 22.2334 24.8425 22.2334ZM137.981 22.6299C136.394 22.6299 134.808 22.8942 133.222 23.1586C133.619 23.1586 134.015 23.1586 134.544 23.1586L134.676 23.2908L134.941 23.5551C135.073 23.6873 135.205 23.8194 135.073 24.2159C133.487 24.7446 131.768 25.2733 130.182 25.802C128.596 26.3307 127.143 27.1237 125.689 28.0489C125.556 28.1811 125.424 28.4454 125.16 28.5776C125.028 28.8419 124.896 28.9741 124.763 29.2384C124.631 29.5028 124.499 29.7671 124.631 30.0315C126.35 28.5776 128.464 27.6524 130.447 26.8594C131.108 26.595 131.901 26.3307 132.694 26.0663C133.487 25.9342 134.28 25.802 135.073 26.0663L135.337 26.1985L134.941 26.8594C133.487 27.9167 131.901 28.7097 130.447 29.6349C128.993 30.5601 127.539 31.6175 126.482 33.2035L126.35 33.4679C126.35 33.6001 126.217 33.6001 126.217 33.7322C126.217 33.8644 126.217 33.9966 126.217 33.9966C127.275 33.8644 128.068 33.3357 128.861 32.5427C129.257 32.1462 129.654 31.7497 130.05 31.4853C130.447 31.0888 130.975 30.8245 131.372 30.5601C131.901 30.2958 132.562 30.0315 133.09 29.7671C133.619 29.5028 134.28 29.3706 134.941 29.6349L135.205 29.7671V30.0315C134.941 30.6923 134.676 31.221 134.28 31.7497C133.883 32.2784 133.487 32.807 133.222 33.3357C132.826 33.8644 132.562 34.3931 132.429 34.9218C133.751 33.3357 135.205 33.0714 136.923 33.4679C136.791 33.3357 136.791 33.2035 136.659 33.0714C136.527 32.9392 136.527 32.807 136.527 32.5427C136.527 32.1462 136.659 31.7497 137.055 31.6175C138.377 31.6175 139.567 31.8818 140.624 32.1462C141.681 32.4105 142.739 32.9392 143.796 33.3357C144.721 34.1287 145.646 34.6574 146.704 35.0539C147.232 35.3183 147.761 35.4504 148.29 35.7148C148.819 35.9791 149.347 36.2435 149.744 36.5078L149.876 36.64C150.008 37.433 149.479 37.6973 149.083 37.9617C148.819 38.0939 148.686 38.0939 148.422 38.226L148.158 38.3582L148.422 38.4904C148.686 38.6225 148.819 38.7547 149.083 38.7547C149.479 39.0191 150.008 39.2834 150.272 39.6799L150.405 39.8121L150.272 39.9442C149.479 40.6051 148.686 40.7373 148.025 40.7373C147.629 40.7373 147.232 40.7373 146.836 40.6051C146.572 40.6051 146.175 40.6051 145.911 40.6051C146.043 40.8694 146.175 40.8694 146.307 41.0016L146.572 41.1338C146.704 41.1338 146.704 41.266 146.836 41.3981C146.968 41.5303 147.1 41.7946 147.1 42.059L146.968 42.1911C145.382 43.645 143.4 44.3059 141.417 44.8346H141.153C140.888 44.5702 140.756 44.3059 140.888 44.0415C140.888 43.9094 141.02 43.7772 141.02 43.645C141.02 43.5129 141.153 43.3807 141.285 43.3807C141.549 42.9842 141.681 42.7198 141.417 42.4555C140.36 42.7198 139.567 42.3233 138.774 41.9268C138.641 41.7946 138.377 41.7946 138.245 41.6625C138.113 41.5303 137.848 41.5303 137.716 41.5303C137.452 41.3981 137.055 41.3981 136.791 41.5303C137.055 42.059 137.452 42.4555 137.981 42.852C138.245 43.1163 138.509 43.3807 138.774 43.645C139.038 43.9094 139.17 44.3059 139.302 44.5702V44.8346H139.038C138.245 45.0989 137.32 44.9667 136.394 44.7024C135.866 44.5702 135.337 44.438 134.808 44.3059L137.055 46.5528C136.923 47.3458 136.394 47.6101 135.866 47.7423C135.601 47.7423 135.337 47.8745 135.073 47.8745C134.808 47.8745 134.544 48.0067 134.412 48.1388H134.28C132.826 47.8745 131.504 47.6101 130.447 46.2884C129.522 45.6276 129.257 44.7024 129.257 43.7772C129.257 42.9842 129.257 42.1911 129.257 41.3981C128.993 41.6625 128.729 42.059 128.464 42.4555L128.596 42.5877L128.729 42.7198H128.596C127.671 44.0415 127.143 45.8919 127.936 47.3458C128.332 48.271 129.125 49.1962 130.182 49.4605C133.355 49.9892 136.262 48.271 139.038 46.6849C140.624 46.0241 141.946 46.4206 143.135 46.9493C143.796 47.2136 144.325 47.6101 144.853 47.8745C145.382 48.271 146.043 48.5353 146.572 48.6675C146.836 48.7997 146.968 48.9318 147.1 49.1962C147.1 49.3284 147.1 49.3284 147.1 49.4605C147.893 49.4605 148.819 49.3284 149.347 49.5927C150.272 48.7997 151.594 48.7997 152.784 48.7997C153.444 48.7997 153.973 48.7997 154.634 48.7997C155.163 48.7997 155.691 48.6675 156.22 48.4032C157.013 48.1388 157.145 47.7423 157.013 47.0815C156.881 46.6849 156.749 46.4206 156.749 46.0241C156.617 45.6276 156.484 45.3632 156.617 44.9667V44.7024H156.881C157.013 44.7024 157.145 44.8346 157.277 44.8346C158.335 43.645 159.128 41.3981 158.996 39.9442C158.863 40.2086 158.731 40.4729 158.467 40.7373L158.07 41.1338L157.938 40.8694C157.806 40.7373 157.806 40.6051 157.806 40.4729C157.806 40.6051 157.674 40.6051 157.674 40.7373C157.41 40.8694 157.145 41.0016 156.881 41.1338C156.617 41.2659 156.484 41.266 156.352 41.3981C156.088 41.5303 155.824 41.6625 155.824 42.1911V42.4555L155.559 42.3233C154.634 41.9268 154.502 41.2659 154.37 40.4729C154.37 40.0764 154.238 39.8121 154.238 39.4156C154.238 39.0191 154.105 38.7547 153.973 38.4904C152.916 37.433 151.991 36.1113 151.462 34.7896H150.933L151.462 35.0539C151.594 35.0539 151.726 35.1861 151.858 35.1861C151.462 34.7896 151.198 34.5253 150.933 34.1287H150.801L150.669 33.9966C150.537 33.7322 150.272 33.6001 150.008 33.3357L149.612 32.9392C149.479 32.807 149.347 32.6749 149.215 32.5427C148.819 32.1462 148.422 31.6175 148.686 30.8245L148.819 30.6923C151.065 30.0315 153.709 30.6923 155.691 31.6175C155.956 32.014 156.088 32.2784 156.352 32.5427C156.617 32.807 156.749 33.0714 157.013 33.4679L157.145 33.6001L157.277 33.3357C157.277 33.0714 157.277 32.807 157.145 32.5427L156.881 32.807L156.749 32.4105C156.617 32.014 156.484 31.6175 156.352 31.3532C156.088 30.9566 155.956 30.6923 155.691 30.2958C155.163 29.6349 154.766 28.8419 154.634 27.9167V27.6524C154.237 26.9915 153.973 26.4628 153.709 26.0663H153.444L153.312 25.9342C152.651 25.1411 151.858 24.8768 150.933 24.7446C150.537 24.7446 150.008 24.7446 149.612 24.7446C149.083 24.7446 148.686 24.8768 148.158 24.8768C146.307 25.009 144.325 25.009 143.135 22.8942C141.285 22.6299 139.699 22.6299 137.981 22.6299ZM30.658 26.8594C29.865 26.8594 29.4685 27.5202 29.072 28.3132C28.9398 28.5776 28.8076 28.9741 28.5433 29.2384C28.4111 29.5028 28.1468 29.8993 27.8824 30.1636C27.4859 30.6923 26.8251 31.0888 26.0321 31.0888C25.8999 31.7497 26.2964 32.2784 26.5607 32.9392C26.6929 32.9392 26.9573 32.9392 27.0894 32.9392C27.3538 32.9392 27.4859 32.807 27.6181 32.6749C29.4685 31.4853 31.7154 29.6349 32.5084 27.6524L32.1119 27.2559C31.7154 26.9915 31.3189 26.8594 31.0545 26.8594C30.9224 26.7272 30.7902 26.7272 30.658 26.8594ZM35.0197 32.807C34.7553 32.807 34.3588 32.807 34.0945 32.807C32.6406 32.9392 31.1867 33.3357 30.1293 33.9966C29.7328 34.6574 30.1293 35.5826 30.7902 35.9791C32.2441 36.5078 33.8301 36.2435 35.5483 35.9791C36.3414 35.847 37.2666 35.7148 38.0596 35.5826C38.8526 35.4504 39.6456 35.4504 40.4386 35.4504C39.1169 33.7322 37.1344 32.9392 35.0197 32.807ZM157.277 33.7322C157.542 34.1287 157.674 34.6574 157.41 35.3183C158.07 35.7148 158.467 36.1113 158.599 36.3756L159.392 36.64C158.996 35.3183 158.335 34.3931 157.277 33.7322ZM159.524 57.3908C159.392 57.3908 159.26 57.3908 159.26 57.5229C159.128 59.7698 157.938 61.7524 156.617 63.0741L156.484 63.2063L156.352 63.0741C155.956 62.8098 155.691 62.4132 155.559 62.0167C155.559 61.8846 155.427 61.6202 155.427 61.4881L155.295 61.2237L154.37 61.8846C153.841 61.6202 153.709 61.3559 153.709 61.0915C153.709 60.9594 153.709 60.8272 153.577 60.695C153.312 61.0915 153.048 61.3559 152.784 61.7524C152.519 62.1489 152.387 62.5454 152.387 63.0741C152.651 63.6028 152.784 63.6028 153.312 63.0741L153.709 62.6776C153.841 62.5454 153.973 62.4132 154.105 62.2811C154.37 62.0167 154.766 61.8846 155.163 61.8846L155.295 62.0167C156.088 63.3384 155.956 65.4532 155.559 66.907C155.956 67.0392 156.088 67.3036 156.088 67.7001C156.088 67.8322 156.088 68.0966 156.088 68.2287C156.088 68.3609 156.088 68.4931 156.088 68.6253C156.352 68.7574 156.749 68.8896 157.013 69.0218C157.674 69.2861 158.335 69.4183 158.996 69.6826C160.053 70.0791 161.11 70.6078 162.036 71.4008V71.6652C162.036 71.7974 161.903 71.9295 161.903 71.9295C166.001 70.6078 168.512 71.6652 169.569 76.4233C170.627 81.4458 172.477 82.8997 174.327 83.4284V83.2962C174.327 82.7675 174.592 82.371 174.856 81.8423C175.253 81.0493 175.12 79.7276 174.46 79.0667C174.063 78.1415 174.195 77.2163 174.856 76.5555C175.385 75.8946 176.178 75.7625 176.971 75.6303C177.632 75.4981 178.425 75.6303 179.086 75.6303C178.953 75.4981 178.953 75.4981 178.821 75.4981C178.689 75.4981 178.689 75.4981 178.557 75.366C176.046 74.9694 173.799 76.159 172.213 78.2737L172.081 78.4059L171.948 78.2737C170.759 77.745 170.362 76.8198 170.23 75.7625C170.23 75.2338 170.23 74.7051 170.23 74.1764C170.23 73.6477 170.362 73.1191 170.362 72.5904C170.098 71.9295 169.569 71.533 168.776 71.2687C167.983 71.0043 167.058 70.8722 166.397 70.6078C166.265 70.4756 166.001 70.4756 165.869 70.4756C165.604 70.4756 165.472 70.3435 165.208 70.2113C164.811 70.0791 164.415 69.6826 164.547 69.0218L164.679 68.8896C165.472 68.2287 166.265 67.9644 167.058 67.7001C167.455 67.5679 167.983 67.4357 168.38 67.3036C168.776 67.1714 169.041 67.0392 169.305 66.7749L169.173 66.6427C168.115 66.5105 166.926 66.3784 165.736 66.3784C164.547 66.3784 163.357 66.3784 162.3 66.6427H162.168C162.036 66.5105 162.036 66.3784 161.903 66.3784L161.639 66.5105C161.507 66.3784 161.375 66.2462 161.243 65.9818C161.243 65.321 161.639 64.9245 162.036 64.528C162.3 64.3958 162.432 64.2636 162.696 64.1315C162.829 63.9993 162.961 63.9993 163.093 63.8671L162.3 62.8098L162.564 62.6776C163.357 62.2811 164.15 62.1489 164.943 62.2811C165.604 62.2811 166.133 62.4132 166.794 62.5454C166.397 62.0167 165.736 61.7524 165.075 61.6202C164.679 61.6202 164.15 61.4881 163.754 61.4881C163.357 61.4881 162.829 61.4881 162.564 61.4881C162.3 61.4881 162.036 61.6202 161.771 61.7524C161.507 61.8846 161.243 62.1489 160.978 62.2811C160.45 62.6776 159.789 62.9419 159.128 62.5454L158.996 62.4132V62.2811C159.26 61.6202 159.656 60.9594 159.921 60.1663C160.185 59.5055 160.317 58.7125 160.185 57.9194C160.053 57.6551 159.789 57.3908 159.524 57.3908ZM100.841 62.2811C99.9154 64.528 99.3867 66.7749 98.9902 69.2861H101.898C101.766 68.8896 101.634 68.3609 101.501 67.9644C101.369 66.907 101.237 65.7175 101.105 64.6601C101.105 63.7349 101.105 62.9419 100.841 62.2811ZM111.546 90.9621C112.207 91.3586 113 91.7551 113.661 92.1516C114.718 92.6803 115.644 93.0768 116.833 93.209L114.983 91.3586C114.058 91.4908 113.265 91.3586 112.472 91.2264C112.075 91.0943 111.811 91.0943 111.546 90.9621Z" stroke="#F8992E" stroke-width="1.63796" stroke-miterlimit="8.867"/>
<path d="M96.2159 20.2495L95.9516 20.5139C88.8144 28.0476 90.7969 41.6611 94.762 49.8557L94.8942 50.2522L95.1585 49.8557C95.4229 49.327 95.555 48.6662 95.6872 48.0053C95.6872 47.3445 95.6872 46.6836 95.6872 46.0228C94.762 41.0003 94.2333 36.6387 95.5551 31.484C95.6872 30.9553 95.8194 30.5588 96.0837 30.0301C96.3481 29.5015 96.4802 29.1049 96.7446 28.5763C97.1411 27.6511 97.5376 26.5937 97.5376 25.4042V25.5363H97.4054C96.6124 25.1398 96.3481 24.479 96.4802 23.4216C96.4802 22.8929 96.4802 22.4964 96.6124 21.9677C96.6124 21.439 96.6124 21.0425 96.4802 20.646L96.2159 20.2495ZM140.625 25.5363C138.643 25.5363 136.792 26.5937 135.338 28.0476V28.1797C135.338 28.4441 135.338 28.8406 135.735 28.9728H135.999C138.378 27.9154 142.079 27.7832 144.458 28.5763H144.59L144.722 28.4441C144.855 28.1797 144.722 27.9154 144.722 27.7832L144.59 27.6511V27.5189L143.004 25.8007C142.079 25.5363 141.286 25.5363 140.625 25.5363ZM145.912 25.8007L145.648 26.9902C146.044 27.5189 146.441 28.1797 146.969 28.8406C147.498 29.5015 148.027 30.0301 148.688 30.2945L148.82 30.4266L148.952 30.2945C149.481 29.3693 150.274 29.2371 151.331 29.3693C151.86 29.5015 152.388 29.6336 152.785 29.6336C153.314 29.7658 153.842 29.898 154.239 29.7658H154.635L154.503 29.5015C153.71 28.0476 152.388 27.2546 150.802 26.7259C150.009 26.4615 149.348 26.3294 148.555 26.1972C147.762 26.065 146.969 25.9328 146.309 25.8007H145.912ZM138.114 29.1049C137.85 29.2371 137.585 29.2371 137.453 29.3693C137.189 29.5015 137.057 29.5015 136.792 29.6336C136.396 29.7658 135.999 30.0301 135.867 30.691V30.8232H135.999C136.66 30.9553 137.321 31.0875 138.114 31.0875C138.907 31.0875 139.568 31.0875 140.361 31.2197C141.815 31.3518 143.269 31.6162 144.194 32.8057C144.326 32.8057 144.59 32.9379 144.855 33.0701C145.119 33.2022 145.383 33.2022 145.516 33.2022C146.044 33.3344 146.573 33.2022 146.969 32.8057V32.5414C146.441 30.5588 144.987 29.7658 143.269 29.5015C141.683 29.1049 139.7 29.2371 138.114 29.1049ZM74.2756 31.484L74.1434 31.6162C73.7469 31.8805 73.4826 32.5414 73.3504 33.0701C73.2182 33.5987 73.2182 34.2596 73.0861 34.7883C72.293 42.322 72.8217 50.5166 77.8442 56.3321H77.9764C79.5624 55.8034 80.6198 56.5964 81.8093 57.786L82.6023 58.579C82.8667 58.8433 83.131 59.1077 83.5275 59.372C84.1884 59.9007 84.8492 60.165 85.6423 60.2972H86.0388L85.9066 59.9007C83.131 53.5565 80.0911 47.3445 78.2407 40.6038C77.9764 39.8108 77.8442 39.0177 77.712 38.3569C77.5799 37.5639 77.4477 36.7708 76.919 35.9778H76.7868C75.7295 35.9778 75.4651 35.4491 75.333 34.7883C75.2008 34.3918 75.2008 33.9953 75.2008 33.5987C75.2008 33.2022 75.0686 32.6735 74.9364 32.277L74.2756 31.484ZM142.211 45.6263L142.872 46.2871C144.194 47.4767 146.837 48.9305 149.084 48.7984L149.216 48.6662C149.481 48.0053 149.348 47.2123 149.084 46.6836L148.952 46.5515H148.82C146.837 46.948 144.855 46.5515 143.004 45.8906L142.211 45.6263Z" fill="#0D3182"/>
<path d="M116.173 23.1584C115.644 23.1584 114.983 23.2906 114.587 23.6871C114.19 24.0836 113.926 24.6123 113.926 25.141C113.794 25.8019 113.926 26.3305 113.794 26.9914C113.794 29.3705 115.776 31.7495 117.759 32.8069V32.5426C117.891 32.0139 117.891 31.4852 117.759 30.9565C117.627 30.4278 117.495 29.8991 117.362 29.3705C117.098 28.3131 116.966 27.2557 117.627 26.1984C118.155 25.6697 118.684 25.8019 119.081 26.0662C119.213 26.1984 119.477 26.3305 119.609 26.4627C119.741 26.5949 120.006 26.7271 120.138 26.7271C120.402 26.8592 120.534 26.8592 120.667 26.5949C120.799 26.4627 120.799 26.3305 120.931 26.1984C120.931 26.0662 121.063 26.0662 121.063 25.934C120.27 24.8767 119.213 23.9515 118.155 23.555C117.362 23.2906 116.834 23.1584 116.173 23.1584ZM156.881 25.4053C155.824 25.5375 154.767 25.8019 153.709 25.934C153.974 26.4627 154.37 26.9914 154.634 27.5201L154.899 27.6522C155.56 27.9166 156.088 27.5201 156.617 27.1236C156.881 26.8592 157.146 26.7271 157.542 26.4627C157.807 26.1984 158.203 26.0662 158.6 26.0662H158.732L159.128 26.9914C158.864 28.0488 158.732 28.974 158.467 29.8991C158.203 30.8243 157.807 31.7495 157.146 32.4104C157.278 32.6747 157.278 33.0712 157.278 33.3356C157.674 32.146 158.203 31.0887 158.6 30.0313C158.996 28.974 159.393 27.7844 159.393 26.4627C158.864 25.5375 157.939 25.4053 156.881 25.4053ZM121.195 31.2209C120.667 32.8069 120.667 34.5251 121.063 36.1112C121.063 37.6972 120.138 38.8867 118.948 39.8119C118.288 40.2084 117.495 39.8119 116.966 39.5476L116.834 39.4154C116.569 37.6972 116.173 35.979 114.983 34.7895C111.943 39.2833 111.15 45.2309 112.34 50.9143V51.0464C112.208 51.1786 112.076 51.3108 111.943 51.4429L112.076 52.236L112.736 52.5003C113.265 56.7298 114.851 60.5627 118.155 63.6026H118.288C118.948 62.5453 119.477 61.2236 119.741 60.034C120.138 58.7123 120.402 57.3906 120.799 55.9367L120.931 55.6724L121.195 55.8046C122.781 56.9941 123.971 58.8445 125.028 60.4305V60.1662C125.028 59.9019 125.16 59.6375 125.16 59.5054C125.293 58.9767 125.425 58.5802 125.821 58.1836L125.953 58.0515L126.086 58.1836C126.879 58.7123 127.407 59.3732 127.936 60.034C128.465 60.6949 128.861 61.4879 129.126 62.1488C133.752 63.9991 138.51 67.9643 141.153 72.4581C144.061 74.0441 148.422 74.0441 151.595 72.8546C153.048 72.0616 153.841 70.6077 154.106 69.1538C149.744 67.6999 144.722 67.8321 140.228 69.1538H140.096L139.964 69.0216C138.906 67.3034 137.849 65.5852 136.659 63.867C135.47 62.1488 134.016 60.5627 132.298 59.1088C131.769 57.7871 132.43 56.7298 133.091 55.8046C133.355 55.4081 133.752 54.8794 134.016 54.3507C134.28 53.9542 134.412 53.4255 134.412 52.8968C134.28 52.6325 134.148 52.6325 133.884 52.7646C133.752 52.7646 133.487 52.8968 133.355 52.8968C133.223 52.8968 132.958 52.8968 132.826 52.8968C132.033 53.029 131.505 53.5577 130.976 54.0864C130.712 54.3507 130.447 54.7472 130.183 55.1437C129.919 55.5402 129.654 55.9367 129.522 56.2011C128.861 56.8619 128.333 56.5976 127.936 56.2011C127.672 56.0689 127.54 55.8046 127.407 55.6724L127.143 55.4081C126.746 55.5402 126.614 55.9367 126.482 56.3333C126.35 56.5976 126.35 56.7298 126.218 56.9941C126.086 57.2584 125.953 57.5228 125.953 57.655L125.821 57.9193L125.689 57.655C123.178 55.1437 122.121 51.3108 122.517 47.61C122.914 45.6274 124.367 43.9092 126.086 42.7197C126.35 42.7197 126.482 42.5875 126.746 42.5875C127.011 42.4553 127.143 42.4554 127.407 42.3232C127.804 42.191 128.2 42.191 128.597 42.5875C128.861 42.191 129.126 41.7945 129.39 41.5302C129.39 41.398 129.39 41.2658 129.39 41.0015C128.993 40.605 128.465 40.3406 127.804 40.2085C127.275 39.9441 126.614 39.8119 125.953 39.5476C124.764 39.1511 123.442 38.6224 122.517 37.4329C120.931 35.5825 120.931 33.2034 121.195 31.2209ZM135.47 33.0712C134.28 33.0712 133.091 33.4678 132.165 34.6573C131.901 35.3181 131.769 35.8468 131.901 36.6398C131.901 36.9042 132.033 36.9042 132.298 37.0364C132.43 37.0364 132.562 37.0364 132.694 37.1685C132.826 37.1685 132.958 37.3007 133.091 37.3007C136.395 36.5077 140.492 36.1112 143.664 37.565C143.532 37.3007 143.4 37.1685 143.268 36.9042C143.136 36.772 143.003 36.5077 142.739 36.3755L142.21 35.8468C141.814 35.4503 141.417 35.186 140.889 35.0538C140.36 34.9216 139.964 34.7895 139.435 34.6573C138.377 34.3929 137.32 34.1286 136.527 33.2034C136.395 33.2034 135.998 33.0712 135.47 33.0712ZM153.313 33.3356C153.181 33.3356 152.916 33.3356 152.784 33.3356H152.916C153.048 33.3356 153.048 33.3356 153.181 33.3356H153.445C153.841 33.4678 154.37 33.5999 154.37 34.2608V34.3929H154.238C153.577 34.6573 153.048 34.5251 152.52 34.3929C152.255 34.2608 151.991 34.2608 151.727 34.1286C151.462 33.9964 151.33 33.9964 151.066 33.9964C151.33 34.2608 151.595 34.6573 151.991 35.0538C152.123 35.0538 152.388 35.186 152.652 35.186C153.048 35.3181 153.445 35.3181 153.841 35.4503C154.502 35.5825 155.295 35.979 155.56 36.772C155.824 36.772 155.956 36.772 156.088 36.772C156.221 36.772 156.353 36.6398 156.353 36.6398C156.485 36.6398 156.617 36.5077 156.617 36.5077C157.014 36.2433 157.542 35.979 158.203 36.3755L158.335 36.5077C158.6 37.3007 158.996 37.9615 159.128 38.7546C159.26 39.2833 159.26 39.8119 159.128 40.3406C159.128 41.7945 158.335 44.0414 157.41 45.2309C158.335 45.6274 158.864 46.5526 159.128 47.3457C159.789 48.9317 159.525 50.3856 158.996 51.7073C158.732 52.3681 158.335 53.029 157.939 53.5577C157.542 54.0864 157.146 54.615 156.749 55.2759C156.749 55.5402 157.014 55.5402 157.278 55.6724C157.41 55.6724 157.542 55.6724 157.807 55.6724H158.203C160.186 53.822 161.375 51.4429 161.64 48.7995C161.772 48.1387 161.64 47.61 161.375 47.0813C161.243 46.817 161.111 46.5526 160.846 46.2883C160.714 46.024 160.45 45.7596 160.318 45.4953C159.525 44.5701 158.864 43.3805 159.657 41.9267C160.053 40.0763 160.053 38.2259 159.525 36.5077L158.732 36.2433C158.6 35.979 158.203 35.7146 157.542 35.186C157.542 35.186 157.542 35.3181 157.41 35.3181L157.278 35.4503L157.146 35.3181C156.749 35.186 156.353 34.9216 156.088 34.6573C155.824 34.3929 155.427 34.1286 155.031 33.8643C154.37 33.5999 153.974 33.3356 153.313 33.3356ZM114.587 38.0937L114.851 38.4902C115.644 39.6798 116.966 41.1336 118.42 41.398C119.213 41.6623 119.874 41.398 120.402 41.0015C120.667 40.8693 120.931 40.605 121.327 40.4728C121.592 40.3406 121.988 40.0763 122.253 39.9441H122.385L122.517 40.0763C122.781 40.7371 122.517 41.398 122.253 41.9267C122.121 42.191 121.988 42.4553 121.856 42.7197C121.724 42.984 121.592 43.2484 121.592 43.5127C120.931 46.4205 120.667 49.9891 121.195 53.029V53.1612H121.063C118.288 54.3507 117.495 57.2584 117.362 60.1662V60.4305H116.702V60.2984C113.794 53.9542 112.208 45.6274 114.587 38.4902V38.0937ZM139.038 38.7546L138.906 39.9441C139.038 40.2084 139.303 40.605 139.699 40.4728C140.624 40.7371 140.624 39.5476 140.624 39.4154L139.699 40.4728C139.038 40.2084 139.038 39.4154 139.303 38.7546H139.038ZM137.849 39.1511L137.452 39.5476C137.584 39.6798 137.584 39.6798 137.717 39.8119C137.849 39.8119 137.849 39.9441 137.981 39.9441C137.849 39.6798 138.113 39.2833 137.849 39.1511ZM157.41 39.2833C157.278 39.4154 157.278 39.4154 157.278 39.6798C157.278 39.8119 157.278 39.9441 157.278 40.0763C157.278 40.2085 157.278 40.2085 157.146 40.3406C157.278 40.4728 157.41 40.4728 157.41 40.605C157.542 40.605 157.542 40.7371 157.542 40.7371V40.0763C157.542 39.8119 157.542 39.6798 157.542 39.5476C157.542 39.4154 157.542 39.2833 157.41 39.2833ZM156.353 39.4154L156.088 40.0763H156.353V39.4154ZM155.427 39.5476C155.427 39.8119 155.295 40.2085 155.692 40.2085L155.427 39.5476ZM142.21 39.8119C142.078 40.0763 141.682 40.4728 142.078 40.605L142.21 40.4728C142.21 40.3406 142.21 40.2085 142.21 40.0763C142.21 39.9441 142.343 39.8119 142.21 39.8119ZM140.624 48.9317C140.492 48.9317 140.228 48.9317 140.096 49.0639C141.021 49.3282 141.946 49.4604 142.739 49.7247C143.664 49.9891 144.59 50.2534 145.383 50.9143C145.647 51.5751 145.383 51.8395 144.986 52.1038H144.854C143.929 51.9716 143.003 51.7073 142.078 51.5751C141.285 51.4429 140.492 51.1786 139.699 51.1786C140.624 51.4429 141.55 51.7073 142.475 51.8395C143.532 52.1038 144.59 52.3681 145.515 52.7646L145.647 52.8968V53.029C145.647 53.4255 145.383 53.822 144.986 54.0864H144.854C143.929 53.9542 143.003 53.6898 142.078 53.5577C141.153 53.4255 140.36 53.2933 139.567 53.2933V53.4255C139.964 53.5577 140.36 53.5577 140.889 53.5577C141.417 53.5577 141.946 53.5577 142.343 53.6898C143.4 53.822 144.325 53.9542 145.25 54.4829C145.911 55.0116 145.515 55.5402 145.118 55.8046L140.492 55.6724C140.36 55.8046 140.228 55.8046 140.228 55.9367C141.021 56.2011 141.946 56.2011 143.003 56.2011C143.532 56.2011 144.061 56.2011 144.59 56.2011C145.118 56.2011 145.647 56.2011 146.043 56.3333L146.704 56.7298L145.779 57.9193C145.911 58.5802 146.043 59.241 146.308 59.9019C146.572 60.4305 146.836 60.9592 147.233 61.3557C147.497 60.1662 147.762 58.9767 148.687 58.0515L148.819 57.9193C149.348 57.9193 149.612 58.3158 149.744 58.7123C149.744 58.8445 149.876 59.1088 149.876 59.241L150.405 57.9193H150.537C151.066 58.0515 151.066 58.448 151.198 58.8445C151.198 58.9767 151.198 59.1088 151.33 59.3732L151.991 58.0515H152.123C152.652 58.1836 152.784 58.5802 152.916 58.9767C152.916 59.1088 152.916 59.241 152.916 59.5054L153.709 58.3158H153.841C154.106 58.448 154.238 58.5802 154.37 58.7123C154.502 58.8445 154.502 59.1088 154.502 59.241C154.502 59.3732 154.502 59.6375 154.634 59.7697L155.692 58.0515C153.313 57.5228 150.669 57.3906 148.422 57.5228L147.894 57.2584C147.762 56.4654 148.158 56.0689 148.422 55.8046C149.48 55.5402 150.802 55.4081 151.859 55.1437C152.652 55.0116 153.313 54.7472 153.709 54.2185C153.577 54.2185 153.445 54.3507 153.313 54.3507C152.916 54.4829 152.52 54.4829 151.991 54.4829H151.727L151.859 54.2185C152.255 53.2933 151.859 52.7647 151.198 52.3681C151.33 52.6325 151.462 52.7647 151.462 53.029V53.1612L151.33 53.2933C151.198 53.2933 151.066 53.4255 151.066 53.4255C150.934 53.5577 150.802 53.5577 150.669 53.6898C150.405 53.822 150.008 53.822 149.744 53.5577C148.951 52.7647 148.687 51.8395 148.819 50.6499V50.3856L149.083 50.5178C149.215 50.6499 149.48 50.7821 149.612 50.9143C149.612 50.7821 149.48 50.5178 149.48 50.2534L149.612 50.1212C149.083 49.8569 148.158 49.9891 147.365 49.9891C147.365 50.2534 147.233 50.3856 146.969 50.5178C146.308 50.7821 145.515 50.3856 144.986 50.1212C144.193 49.9891 143.268 49.7247 142.475 49.4604C141.814 49.0639 141.153 48.9317 140.624 48.9317ZM155.824 58.0515C155.956 58.5802 156.088 59.241 156.221 59.7697C156.353 60.1662 156.485 60.6949 156.617 60.9592C157.014 60.1662 157.278 59.3732 157.542 58.448C157.014 58.448 156.485 58.1836 155.824 58.0515ZM139.831 60.1662C139.699 60.1662 139.435 60.2984 139.303 60.4305C139.303 61.2236 139.699 61.6201 140.36 61.8844C140.624 62.0166 141.021 62.1488 141.417 62.2809C141.682 62.4131 141.946 62.5453 142.21 62.6774L143.664 60.6949L144.457 61.3557C144.457 61.2236 144.325 61.2236 144.325 61.0914C144.193 60.9592 144.061 60.8271 143.929 60.6949C143.796 60.5627 143.796 60.4305 143.664 60.4305L142.343 60.9592C141.946 61.0914 141.682 60.9592 141.417 60.8271C141.153 60.6949 140.889 60.5627 140.624 60.4305C140.228 60.2984 139.964 60.2984 139.831 60.1662ZM143.664 62.8096C143.003 63.7348 143.003 64.7922 143.003 66.1139C144.193 65.9817 145.383 65.8495 146.704 65.8495C146.572 65.7174 146.44 65.5852 146.308 65.453C146.308 65.3209 146.176 65.1887 146.176 65.1887L146.043 64.9243C145.911 64.66 145.911 64.3957 145.647 64.1313L145.515 64.3957C145.515 64.5278 145.383 64.7922 145.383 64.9243C145.25 65.3209 145.118 65.7174 144.59 65.9817L144.457 65.8495V65.5852C144.325 65.0565 144.193 64.5278 144.061 63.9991C143.929 63.6026 143.796 63.2061 143.664 62.8096ZM154.238 63.9991C154.106 64.1313 153.974 64.2635 153.974 64.3957C153.841 64.66 153.709 64.7922 153.577 65.0565C153.313 65.453 152.916 65.9817 152.388 66.246H152.255C151.991 65.9817 151.991 65.8495 151.859 65.7174C151.859 65.5852 151.727 65.453 151.727 65.3209C151.727 65.1887 151.595 65.0565 151.595 64.9243C151.33 65.3209 151.066 65.5852 150.934 65.9817L150.669 66.1139C150.141 66.1139 150.008 65.7174 150.008 65.453C150.008 65.3209 150.008 65.1887 150.008 65.0565L149.083 66.1139C150.802 66.246 152.52 66.5104 154.106 67.0391C154.238 66.6426 154.37 66.1139 154.37 65.5852C154.37 64.7922 154.37 64.2635 154.238 63.9991ZM147.894 64.3957L147.101 65.7174C147.497 65.7174 147.894 65.7174 148.422 65.7174C148.422 65.5852 148.29 65.453 148.29 65.3209C148.29 65.1887 148.158 65.0565 148.158 64.7922C148.026 64.7922 148.026 64.5278 147.894 64.3957ZM122.517 69.5503C122.121 69.6825 121.856 69.9468 121.592 70.2112C120.006 71.4007 120.138 73.6476 120.534 75.3658C121.195 76.1588 121.592 77.8771 122.914 77.6127V69.5503C122.781 69.5503 122.649 69.5503 122.517 69.5503ZM164.679 71.665C163.886 71.665 162.961 71.7972 161.904 72.1937C161.64 72.7224 161.111 72.8546 160.582 72.9867C160.318 73.1189 159.921 73.1189 159.657 73.1189C160.45 73.2511 161.375 73.2511 162.3 73.5154C163.358 73.7798 164.415 74.3085 164.812 75.3658C164.679 76.5554 163.622 76.4232 163.093 76.0267C161.904 75.7623 160.714 75.7623 160.186 76.8197C159.921 77.6127 160.053 78.5379 160.714 79.0666C161.375 79.8596 162.3 80.124 163.226 80.2561C163.754 80.2561 164.151 80.2561 164.679 80.2561C165.208 80.2561 165.737 80.124 166.133 80.124L166.265 80.2561C166.794 80.917 166.926 81.71 166.926 82.503C166.926 82.8995 166.926 83.2961 166.926 83.6926C166.926 84.0891 166.926 84.4856 167.059 84.8821C167.323 85.6751 167.984 86.336 168.645 86.9968C169.305 87.6577 170.098 88.1864 170.759 88.8472C172.213 90.0368 173.403 91.3585 173.006 93.6054C173.535 94.134 174.328 94.3984 175.121 94.2662C174.592 93.341 174.064 92.4158 173.667 91.3585C173.271 90.3011 173.006 89.1115 173.006 87.7898C173.138 87.129 173.535 86.6003 173.931 86.2038C174.328 85.8073 174.857 85.4108 175.253 85.0143C175.385 84.6178 175.253 84.6178 175.121 84.4856C175.121 84.4856 174.989 84.4856 174.989 84.3534L174.724 84.2212C174.592 84.0891 174.46 84.0891 174.328 83.9569C172.345 83.4282 170.627 81.9743 169.57 76.9519C168.777 73.1189 167.059 71.665 164.679 71.665ZM178.161 77.4805C177.896 77.4805 177.632 77.4805 177.368 77.4805L176.971 77.6127C176.839 77.6127 176.707 77.7449 176.707 77.7449C176.575 77.8771 176.443 78.0092 176.443 78.1414C176.839 78.9344 176.971 79.7274 176.839 80.5205C176.839 81.1813 176.707 81.8422 176.575 82.3709C177.368 82.1065 178.029 81.8422 178.69 81.3135C178.954 80.917 179.35 80.3883 179.615 79.9918C179.879 79.5953 180.011 79.0666 180.011 78.5379C179.747 77.8771 178.954 77.6127 178.161 77.4805ZM182.126 78.1414C181.994 78.9344 182.39 79.1988 183.051 79.5953C183.448 79.7274 183.844 79.9918 184.109 80.124C184.241 80.2561 184.505 80.3883 184.637 80.3883L184.505 79.5953C183.844 78.9344 182.919 78.0092 182.126 78.1414ZM131.505 81.0492C131.372 81.0492 131.372 81.1813 131.372 81.3135C131.372 81.4457 131.372 81.5778 131.372 81.5778C131.372 81.71 131.372 81.71 131.372 81.8422C131.372 81.9743 131.505 81.9743 131.505 82.1065L131.637 82.503C131.769 82.7674 131.769 83.0317 131.901 83.2961C132.165 83.6926 132.43 83.9569 132.958 83.5604C134.148 83.1639 135.338 82.7674 135.734 81.9743C135.073 81.71 134.412 81.5778 133.752 81.4457C132.958 81.3135 132.298 81.1813 131.505 81.0492ZM182.787 81.1813C182.39 81.1813 182.258 81.4457 182.126 81.71C181.994 81.9743 182.126 82.503 182.126 82.7674C181.862 83.9569 180.804 84.7499 179.879 85.1464C179.879 85.1464 180.011 85.1464 180.011 85.2786C181.069 85.8073 182.787 85.6751 183.712 84.8821C184.505 84.2212 184.769 83.2961 184.505 82.3709C184.241 81.71 183.58 81.1813 182.787 81.1813ZM180.54 81.71L179.747 82.8995C179.747 83.0317 179.879 83.0317 180.011 83.0317C180.143 82.7674 180.408 82.503 180.408 82.2387C180.54 82.1065 180.54 81.8422 180.54 81.71ZM136.263 86.0716C134.809 86.4681 133.223 86.4681 131.769 86.0716C131.372 86.4681 131.108 86.9968 131.24 87.6577C131.372 87.7898 131.505 88.0542 131.637 88.1864C131.769 88.3185 132.033 88.4507 132.298 88.3185C133.884 87.922 135.734 87.5255 136.263 86.0716ZM183.58 86.8647C183.448 86.8647 183.315 86.9968 183.315 87.129C183.183 87.3933 183.051 87.6577 182.919 87.922C182.787 88.1864 182.655 88.4507 182.258 88.5829C182.126 88.715 181.994 88.8472 181.862 88.8472L181.333 89.1115C181.069 89.2437 180.936 89.3759 180.804 89.5081C181.597 89.9046 182.655 90.1689 183.58 89.9046C184.373 89.6402 185.166 88.8472 185.034 87.922L184.373 86.9968C183.976 86.9968 183.712 86.8647 183.58 86.8647ZM131.108 90.4333C130.844 90.4333 130.712 90.4333 130.447 90.6976C130.447 91.0941 130.315 91.4906 130.183 91.8871C130.183 92.2836 130.183 92.548 130.315 92.8123C130.712 92.8123 131.24 92.8123 131.637 92.8123C132.165 92.8123 132.562 92.8123 132.826 92.548C133.487 92.1515 134.148 91.6228 134.545 90.9619C134.28 91.0941 134.016 91.0941 133.752 91.0941C133.355 91.2263 132.958 91.0941 132.694 91.0941C132.298 90.9619 132.033 90.8298 131.769 90.6976C131.637 90.4333 131.372 90.4333 131.108 90.4333ZM183.976 92.2836C183.315 92.2836 182.655 92.6802 182.39 93.4732C182.126 93.7375 181.994 93.7375 181.729 93.8697C181.465 93.8697 181.333 94.0019 181.069 94.0019C180.672 94.134 180.54 94.134 180.54 94.3984C181.333 95.5879 182.655 95.5879 183.976 95.3236C184.637 94.9271 185.43 94.2662 185.298 93.4732C185.166 92.6802 184.505 92.2836 183.976 92.2836ZM177.764 94.7949C177.5 94.7949 177.103 94.9271 176.707 95.0592C176.178 95.1914 175.65 95.4557 175.121 95.5879C174.724 95.7201 174.46 95.7201 174.064 95.5879C174.857 96.6453 176.31 97.174 177.896 97.174C178.029 97.0418 178.161 96.9096 178.293 96.9096L178.557 96.7775C178.69 96.7775 178.69 96.6453 178.822 96.6453C178.954 96.5131 179.086 96.3809 178.954 95.8522C178.69 95.0592 178.293 94.7949 177.764 94.7949ZM129.126 95.1914C128.597 95.4557 128.333 95.9844 128.2 96.5131C128.597 96.7774 129.126 96.9096 129.786 97.0418C130.447 97.0418 131.108 97.0418 131.637 97.0418C132.298 96.7774 133.091 96.3809 133.355 95.8522C131.901 96.3809 130.315 95.7201 129.126 95.1914ZM127.011 97.8348C126.746 97.8348 126.35 98.0992 126.086 98.6278L125.953 99.0243C125.953 99.1565 125.821 99.2887 125.821 99.553C125.821 99.8174 125.821 99.9495 126.086 100.082C127.54 100.214 129.258 100.082 130.315 99.0243C129.919 99.0243 129.654 99.0243 129.39 98.8922C129.126 98.76 128.993 98.6278 128.729 98.6278C128.465 98.4957 128.333 98.3635 128.068 98.2313C127.672 97.967 127.407 97.8348 127.011 97.8348Z" fill="white"/>
</g>
<defs>
<clipPath id="clip0_15016_302025">
<rect width="200" height="200" fill="white" transform="translate(0.832031 0.621094)"/>
</clipPath>
</defs>
</svg>
