<svg width="200" height="201" viewBox="0 0 200 201" fill="none" xmlns="http://www.w3.org/2000/svg">
<g clip-path="url(#clip0_15016_303902)">
<path d="M131.152 24.636L118.953 44.5282H80.223L68.1523 24.636H-0.408203V61.1051H10.6002V135.774H-0.408203V177.153H76.3803V135.774H64.8421V104.737L99.5905 173.838L134.47 104.737V135.774H122.801V177.153H199.589V135.774H188.586V61.1051H199.589V24.636H131.155H131.152Z" fill="white"/>
<path d="M5.17383 30.217H65.9154L74.7992 44.5408H125.067L133.951 30.217H194.163V55.6829H183.023V141.224H194.163V171.726H128.378V141.224H139.916V82.7382L99.6015 160.587L59.282 82.7382V141.224H70.954V171.726H5.17383V141.224H16.1822V55.6829H5.17383V30.217Z" fill="#CB5307" stroke="black" stroke-width="2.15859"/>
<path fill-rule="evenodd" clip-rule="evenodd" d="M-0.407566 24.636V61.1128H10.6008V135.774H-0.407566V177.153H76.3784V135.774H64.8427V104.743L99.5886 173.841L134.473 104.743V135.774H122.799V177.153H199.585V135.774H188.584V61.1128H199.585V24.636H131.155L118.951 44.5256H80.2236L68.153 24.636H-0.410156H-0.407566Z" stroke="black" stroke-width="2.15859" stroke-miterlimit="3.864"/>
<path d="M99.5939 42.9487C99.6171 42.9615 91.8778 38.6791 90.0439 39.2347C88.7013 39.6565 87.8731 40.477 86.7286 40.5619C85.6637 40.7548 83.9611 40.158 82.2198 40.4306C81.0341 40.693 80.4142 41.3076 79.3031 41.4903C78.1997 41.5829 76.9573 41.5829 75.9877 41.0917C75.0257 40.477 73.3642 42.1333 72.1399 42.4188C70.8796 42.6863 65.7715 43.2394 60.203 39.7645C56.4401 37.4085 52.3506 39.8776 51.5815 40.1631C49.4673 41.0299 39.8092 40.8884 40.7094 50.1117C41.7305 59.5435 48.0501 60.4772 48.0038 63.1084C47.8109 66.7247 44.354 70.7319 45.0845 75.4414C45.3752 77.6816 46.9801 77.7767 46.6766 78.893C46.4271 79.9887 46.1493 84.2712 46.4117 85.5212C46.7049 86.7584 47.1164 87.1699 47.0753 88.1755C47.1164 89.1092 46.9801 90.6241 47.3428 91.4909C47.8109 92.2831 48.2224 93.3918 48.0038 94.4077C47.6694 95.3234 47.0933 96.0177 47.2064 97.4581C47.5331 99.7421 50.5733 102.368 51.188 104.22C51.6767 105.961 53.0039 111.463 53.706 112.71C55.545 115.769 59.5523 115.63 60.6017 116.821C61.7617 118.119 64.4804 122.613 66.7052 123.716C70.4655 125.717 71.9856 126.407 75.0592 127.43C77.1451 128.05 81.0623 129.11 84.8715 137.641C85.3859 138.842 87.1838 137.459 88.0557 139.897C88.5393 141.525 87.0424 142.983 91.7698 147.59C93.5291 149.277 96.8496 149.064 99.5939 148.917C102.379 149.064 105.703 149.277 107.549 147.59C112.189 142.983 110.692 141.525 111.263 139.897C112.048 137.459 113.843 138.842 114.45 137.641C118.169 129.11 122.081 128.05 124.262 127.43C127.246 126.407 128.764 125.717 132.485 123.716C134.751 122.613 137.47 118.119 138.586 116.821C139.679 115.63 143.687 115.769 145.482 112.71C146.228 111.463 147.555 105.961 148.136 104.22C148.658 102.368 151.696 99.7421 151.979 97.4581C152.138 96.0177 151.562 95.3234 151.318 94.4077C151.007 93.3918 151.421 92.2831 151.848 91.4909C152.252 90.6241 152.115 89.1092 152.115 88.1755C152.115 87.1699 152.527 86.7584 152.776 85.5212C153.08 84.2712 152.805 79.9887 152.514 78.893C152.252 77.7767 153.854 77.6816 154.235 75.4414C154.878 70.7319 151.421 66.7247 151.318 63.1084C151.182 60.4772 157.498 59.5435 158.478 50.1117C159.422 40.8884 149.764 41.0299 147.738 40.1631C146.881 39.8776 142.789 37.4085 138.985 39.7645C133.46 43.2394 128.352 42.6863 127.048 42.4188C125.867 42.1333 124.206 40.477 123.203 41.0917C122.274 41.5829 121.029 41.5829 119.885 41.4903C118.817 41.3076 118.198 40.6827 116.968 40.4306C115.271 40.1683 113.568 40.7548 112.462 40.5619C111.359 40.477 110.528 39.6565 109.144 39.2347C107.354 38.6817 99.6171 42.9615 99.5939 42.9487Z" fill="black"/>
<path d="M81.6924 43.2058C80.9516 42.8483 75.859 45.0346 75.859 45.068C75.859 45.0346 71.1573 45.0347 69.2257 46.3953C67.294 47.7971 65.3547 49.1756 65.3779 49.1782C65.3547 49.173 70.3342 52.9076 70.8152 53.687C71.435 54.564 70.8795 56.079 70.5528 56.8661C70.3316 57.7406 70.8821 58.0157 71.3502 58.8593C71.7128 59.6772 71.1624 62.7175 71.219 62.7072C71.1624 62.7175 71.2987 63.6821 72.1424 63.3683C79.4496 57.468 80.9002 60.3101 82.2273 59.7854C85.1158 58.7051 87.8807 62.1568 88.9919 61.3749C89.5397 60.9145 89.1153 54.0059 89.1153 53.9493L87.7984 52.7559V51.4364L81.8235 47.0537C81.7952 47.1051 81.6615 46.5521 82.7546 46.1303C83.8709 45.7214 83.7372 45.8629 85.0129 46.2616C86.2218 46.6885 90.7846 50.2842 92.0397 51.5677C93.2692 52.7688 94.3674 53.0415 95.2214 52.6248C96.029 52.2107 92.1606 42.8252 86.7336 43.3448C82.5128 43.8155 83.179 44.0649 81.6924 43.2058ZM117.634 43.2058C116.096 44.0649 116.765 43.8129 112.459 43.3448C107.112 42.8252 103.254 52.2106 104.113 52.6221C104.91 53.0414 106.014 52.7688 107.295 51.5677C108.498 50.2816 113.061 46.6885 114.321 46.2616C115.546 45.8629 115.407 45.7214 116.58 46.1303C117.621 46.5521 117.475 47.1051 117.503 47.0537L111.536 51.4364V52.7559L110.211 53.9493C110.155 54.0059 109.741 60.9145 110.342 61.3749C111.397 62.1568 114.162 58.705 117.107 59.7827C118.383 60.31 119.826 57.468 127.184 63.3683C127.976 63.6821 128.115 62.7175 128.115 62.7072C128.115 62.7175 127.565 59.6772 127.984 58.8593C128.396 58.0157 128.943 57.7406 128.643 56.8661C128.388 56.079 127.84 54.564 128.378 53.687C128.946 52.9076 133.915 49.173 133.949 49.1782C133.915 49.173 131.981 47.797 130.101 46.3926C128.113 45.0346 123.424 45.0346 123.475 45.068C123.424 45.0346 118.318 42.8483 117.634 43.2058ZM49.5984 46.3926C49.6138 46.4106 48.6441 47.1051 47.6127 46.7887C46.7125 46.5495 46.9826 47.6581 46.9466 48.3809C46.9826 49.0367 46.7099 50.0063 46.6816 49.978L48.8062 53.8182C48.783 53.8748 49.745 51.8068 50.5294 50.1093C51.548 48.2111 53.3432 47.3777 53.3149 47.3185L52.2527 46.3953H49.5984V46.3926ZM147.074 46.3926L145.886 47.3185C145.937 47.3777 147.732 48.2111 148.671 50.1093C149.53 51.8068 150.492 53.8748 150.526 53.8182L152.519 49.978C152.57 50.0063 152.29 49.0367 152.249 48.3809C152.29 47.6581 152.568 46.5495 151.588 46.7887C150.631 47.1025 149.669 46.4132 149.733 46.3926H147.074ZM62.3351 53.224C62.24 53.1572 62.0805 53.1674 61.8001 53.2909C56.2419 55.8089 54.03 63.2628 53.05 64.6954C52.0958 66.0277 51.1287 66.9948 50.6606 68.4017C50.2979 69.7572 51.1261 69.7648 51.1879 69.7365V76.2387L51.4579 78.0855C51.4065 78.0469 51.409 82.885 51.7228 84.3202C52.2192 86.9334 52.6514 88.4148 53.3124 90.4261C54.3078 93.3866 55.5449 94.0682 55.5629 94.1351C55.5449 94.0682 56.6561 96.5605 57.4251 96.5245C57.3454 95.3182 57.2039 92.9673 57.1525 92.939C55.1977 88.9575 54.583 85.5058 54.5084 83.1266C54.3052 80.8092 54.9996 77.6328 55.8355 76.4933C56.656 75.4208 55.2748 72.1081 56.3628 69.6055C57.4842 67.1363 59.4158 65.8888 60.7379 64.0267C62.1782 62.2957 66.1855 60.5003 66.044 57.9282C65.9077 55.2507 63.9761 55.3949 63.2585 54.7493C62.348 54.3018 62.6181 53.4246 62.3351 53.224ZM136.966 53.224C136.655 53.4272 136.912 54.3018 135.939 54.7493C135.302 55.3975 133.367 55.2508 133.288 57.9309C133.09 60.5004 137.089 62.2957 138.452 64.0267C139.852 65.8888 141.796 67.1389 142.835 69.6055C144.005 72.1106 142.624 75.4208 143.496 76.4933C144.278 77.6328 144.967 80.8092 144.823 83.1266C144.692 85.5058 144.072 88.9575 142.038 92.939C142.071 92.9673 141.927 95.3182 141.773 96.5245C142.622 96.5605 143.723 94.0682 143.759 94.1351C143.723 94.0682 144.97 93.3866 145.886 90.4261C146.631 88.4148 147.058 86.9333 147.606 84.3227C147.871 82.8875 147.871 78.0469 147.871 78.0855L148.136 76.2387V69.7365C148.146 69.7648 148.975 69.7571 148.537 68.4042C148.149 66.9947 147.177 66.0277 146.148 64.6954C145.243 63.2628 143.036 55.8089 137.529 53.2909C137.236 53.1674 137.069 53.1572 136.966 53.224ZM99.5964 56.8661C99.6196 59.2581 97.2533 62.9077 97.2147 62.972C97.2533 63.916 98.7939 65.4773 98.673 67.6121C98.3875 71.6039 94.1411 75.498 94.2903 77.4244C96.4431 76.5757 99.6196 78.3272 99.5964 78.3555C99.6196 78.3272 102.793 76.5757 105.034 77.4244C105.101 75.498 100.854 71.6039 100.527 67.6121C100.448 65.4773 101.991 63.916 101.986 62.972C101.991 62.9077 99.6196 59.2607 99.5964 56.8661ZM73.2046 68.6744C77.5154 73.3504 78.1069 76.8046 81.5586 77.9517C86.2166 79.4255 89.8098 77.9054 89.784 77.9517L88.7192 73.4455C88.7012 73.4866 84.9743 77.2161 81.5586 74.9039C78.0709 72.5222 79.8611 69.2094 79.9691 68.6744H73.2046ZM119.231 68.6744C119.414 69.2094 121.204 72.5222 117.765 74.9039C114.298 77.2161 110.569 73.4866 110.605 73.4455L109.419 77.9517C109.471 77.9054 113.056 79.4255 117.765 77.9517C121.16 76.802 121.757 73.3504 125.988 68.6744H119.231ZM83.9506 69.7365C83.2459 69.7648 82.6286 70.3796 82.6235 71.1949C82.6286 71.9074 83.2459 72.5272 83.9506 72.5221C84.7711 72.5272 85.391 71.9074 85.409 71.1949C85.391 70.3796 84.7711 69.7648 83.9506 69.7365ZM115.253 69.7365C114.507 69.7648 113.889 70.3796 113.925 71.1949C113.889 71.9074 114.507 72.5272 115.253 72.5221C116.032 72.5272 116.649 71.9074 116.711 71.1949C116.649 70.3796 116.032 69.7648 115.253 69.7365ZM65.6505 72.5221C65.7765 77.6379 64.5316 77.8771 64.5882 79.6827C64.5316 80.8118 65.1515 81.0536 65.5193 81.7995C65.0178 82.1235 65.0821 82.9518 65.1155 83.7852C65.0821 87.2986 66.8799 89.2018 66.8388 92.6767C66.8799 94.5568 66.8799 96.1104 66.8388 98.114C66.8799 100.91 66.8825 102.222 68.5672 103.685C69.506 104.642 69.3671 105.887 70.5528 106.471L70.6866 103.816C70.4705 102.119 69.3722 101.671 69.3671 100.372C69.3722 99.8784 70.3342 98.7416 70.6866 97.7179V94.9349C71.8543 91.172 68.2585 88.6154 68.2971 85.5161C68.2585 84.4384 68.9504 83.8185 68.9633 82.7305C68.9479 82.1261 67.4689 81.0999 68.0322 80.48C69.3645 79.0165 68.6932 76.6657 71.2216 76.6323C74.4804 76.6657 77.1013 83.4405 78.5133 83.3968C79.3106 83.7157 78.8991 82.193 78.9094 81.7995C78.8991 80.7784 77.9629 80.8786 77.8446 80.0787C77.4794 78.839 77.86 77.5299 77.3173 76.231C76.6512 74.3817 73.6496 73.9059 70.5528 72.5221C70.6094 72.5272 65.81 72.6301 65.6505 72.5221ZM128.65 72.5221C125.633 73.9059 122.627 74.3817 121.886 76.231C121.418 77.5299 121.793 78.839 121.482 80.0787C121.31 80.8812 120.384 80.7784 120.427 81.7995C120.384 82.193 119.962 83.7157 120.816 83.3968C122.171 83.4405 124.802 76.6657 128.115 76.6323C130.592 76.6657 129.913 79.0165 131.297 80.48C131.804 81.0999 130.33 82.1261 130.374 82.7305C130.33 83.8185 131.019 84.4384 131.032 85.5161C131.019 88.6154 127.429 91.172 128.511 94.9349V97.7179C128.946 98.7416 129.913 99.8784 129.97 100.372C129.913 101.671 128.807 102.119 128.511 103.816L128.65 106.471C129.916 105.889 129.774 104.642 130.767 103.685C132.4 102.222 132.4 100.91 132.359 98.114C132.4 96.113 132.4 94.5568 132.359 92.6767C132.4 89.2018 134.193 87.2985 134.214 83.7877C134.196 82.9518 134.268 82.1235 133.818 81.7995C134.126 81.0536 134.754 80.8118 134.749 79.6827C134.754 77.8771 133.506 77.6405 133.686 72.5221C133.47 72.6301 128.673 72.5272 128.65 72.5221ZM94.1668 79.8139C90.5402 79.8473 88.6729 84.6724 88.5906 85.9122C88.5675 88.2013 89.8072 93.3172 94.424 94.274C93.5418 92.4221 91.1987 90.8608 91.2501 88.1679C91.1987 86.4755 92.5104 86.3365 93.2357 86.3082C93.2692 86.3365 93.6807 82.4708 96.2862 82.3345C99.1643 82.175 98.655 86.6144 98.6756 88.829H100.527C100.589 86.6144 100.08 82.175 103.051 82.3345C105.564 82.4708 105.975 86.3365 105.967 86.3082C106.736 86.3365 108.048 86.4755 108.084 88.1679C108.048 90.8608 105.702 92.4221 104.905 94.274C109.429 93.3172 110.672 88.2013 110.605 85.9122C110.569 84.6724 108.704 79.8473 105.036 79.8139C103.146 79.8473 102.243 80.5391 99.599 80.8761C96.9935 80.5391 96.1036 79.8473 94.1668 79.8139ZM85.9362 93.2117C85.3215 94.0785 83.7372 96.2879 81.965 95.9972C81.3863 95.9252 81.9419 97.6511 81.8261 98.2453C81.106 100.982 80.9722 101.396 81.0339 103.685V110.318C83.5931 111.898 82.3586 113.101 83.4234 114.693C84.5474 116.466 85.6688 117.145 86.6024 118.935C87.3303 120.226 87.2891 122.461 88.4568 123.179C88.6035 122.5 88.8607 119.758 88.7295 118.935C87.8807 114.382 87.4615 113.829 85.2778 112.312C84.1564 111.556 84.982 108.029 83.6857 104.351C83.6265 103.971 84.8071 102.155 85.1441 101.558C85.9465 99.8373 86.3581 97.8722 86.3401 95.4622C86.3581 94.6212 86.1857 93.7312 85.9362 93.2117ZM113.39 93.2117C113.089 93.7312 112.92 94.6212 112.863 95.4622C112.92 97.8722 113.336 99.8373 114.19 101.558C114.476 102.155 115.651 103.971 115.515 104.351C114.301 108.029 115.119 111.556 114.049 112.312C111.814 113.829 111.397 114.382 110.605 118.935C110.422 119.758 110.679 122.5 110.877 123.179C111.989 122.461 111.95 120.226 112.59 118.935C113.609 117.145 114.736 116.471 115.911 114.693C116.919 113.101 115.685 111.898 118.3 110.318V103.685C118.311 101.396 118.172 100.982 117.508 98.2453C117.341 97.6511 117.891 95.9252 117.369 95.9972C115.546 96.2879 113.954 94.0785 113.39 93.2117ZM98.4622 98.6336C96.3068 98.7005 91.4687 99.2226 87.2634 102.227C87.2069 102.188 87.3278 106.784 91.2501 110.45V102.358C91.5999 102.438 95.0104 105.768 94.959 105.81C96.5845 99.7396 97.7471 100.565 97.8757 100.372L99.5964 100.233L101.459 100.372C101.497 100.565 102.657 99.7396 104.244 105.81C104.234 105.768 107.642 102.438 107.953 102.358L108.084 110.45C111.917 106.784 112.03 102.188 112.063 102.227C106.363 98.2195 99.6016 98.6285 99.5964 98.6413C99.599 98.6388 99.1798 98.6131 98.4622 98.6336ZM54.7733 99.9762C53.4075 100.017 55.3854 101.787 55.4317 101.831C56.9287 103.33 56.3783 104.953 56.7589 106.206C57.2733 107.749 59.9663 109.549 61.2652 111.116C61.867 111.867 62.2631 113.063 62.8624 113.762C63.4257 114.516 65.1592 115.115 66.1752 115.36C69.2256 116.039 71.7128 118.94 71.7463 118.006C71.7128 114.863 66.7796 113.639 65.6402 111.373C65.2184 110.509 63.0785 109.338 62.8624 108.456C62.492 106.885 62.4226 105.128 60.6067 104.879C57.4817 103.608 57.9678 100.017 54.7733 99.9762ZM144.561 99.9762C141.31 100.017 141.799 103.608 138.594 104.879C136.858 105.128 136.783 106.885 136.469 108.456C136.197 109.338 134.054 110.509 133.684 111.373C132.493 113.639 127.56 114.863 127.578 118.006C127.56 118.94 130.052 116.039 133.156 115.36C134.118 115.115 135.849 114.516 136.469 113.762C137.012 113.063 137.408 111.867 138.059 111.116C139.301 109.549 141.999 107.749 142.434 106.206C142.894 104.953 142.341 103.33 143.892 101.831C143.887 101.787 145.868 100.017 144.561 99.9762ZM90.98 118.276C91.4713 120.185 92.0269 123.5 91.7774 125.568C91.7491 125.573 96.3042 127.232 99.599 126.63C102.932 127.232 107.534 125.573 107.557 125.568C107.256 123.5 107.812 120.185 108.357 118.276C106.775 119.29 105.461 121.702 104.64 123.312C103.907 122.392 103.66 121.427 101.855 120.396C101.42 121.355 101.731 123.361 101.592 124.375C101.597 124.331 100.723 124.601 99.599 124.506C98.5136 124.601 97.688 124.331 97.7445 124.375C97.5516 123.361 97.8628 121.355 97.3484 120.396C95.6174 121.427 95.3757 122.392 94.6941 123.312C93.8222 121.702 92.5078 119.29 90.98 118.276ZM84.4856 125.568C84.9023 125.995 84.5319 126.317 84.4856 126.368C84.5319 129.91 86.3632 130.957 87.6672 131.535C87.7264 131.497 88.4671 135.118 88.4568 135.249C89.6863 137.97 91.1241 139.28 91.1112 140.021C91.4147 139.997 92.9657 140.689 92.9657 140.82L99.599 141.348L106.23 140.82C106.279 140.689 107.827 139.997 108.084 140.021C108.123 139.28 109.553 137.97 110.739 135.249C110.772 135.118 111.518 131.497 111.536 131.535C112.884 130.957 114.712 129.91 114.717 126.368C114.712 126.317 114.342 125.995 114.717 125.568H114.321C114.036 126.098 111.369 129.444 109.815 130.874C109.434 134.004 108.329 136.762 106.634 137.237C106.279 137.289 105.35 136.342 105.175 136.576C103.91 138.421 101.412 138.976 99.599 138.966C97.8243 138.976 95.3422 138.421 94.0279 136.576C93.9019 136.342 92.9683 137.289 92.5696 137.237C90.9183 136.762 89.8124 134.004 89.388 130.874C87.8782 129.444 85.2032 126.098 84.874 125.568H84.4856Z" fill="white"/>
</g>
<defs>
<clipPath id="clip0_15016_303902">
<rect width="200" height="200" fill="white" transform="translate(0 0.945312)"/>
</clipPath>
</defs>
</svg>
