<svg width="201" height="201" viewBox="0 0 201 201" fill="none" xmlns="http://www.w3.org/2000/svg">
<path d="M103.815 47.671C117.14 43.542 130.43 39.2959 143.736 35.1079C139.547 47.9534 135.338 60.7861 131.13 73.6189C133.046 72.6765 135.021 71.8347 137.07 71.2152C154.14 65.8731 171.172 60.4037 188.262 55.1252C185.165 64.7242 181.989 74.2966 178.896 83.9C168.652 87.1349 158.407 90.3592 148.167 93.5995C144.768 104.04 141.369 114.486 137.976 124.933C148.056 122.185 158.132 119.411 168.223 116.695C165.104 126.135 162.081 135.612 158.942 145.046C146.182 148.551 133.407 151.992 120.646 155.486C116.019 156.874 110.841 158.075 106.219 156.042C101.989 154.311 99.3255 149.848 99.2196 145.358C98.8437 139.418 101.396 133.896 103.1 128.342C94.2956 131.603 85.5492 135.007 76.7328 138.248C77.7175 135.018 78.8187 131.831 79.8989 128.638C77.6011 132.132 75.5097 135.759 73.2648 139.291C72.8783 140.005 72.0259 140.185 71.3482 140.508C64.3436 143.24 57.4026 146.115 50.4094 148.874C50.2612 142.483 50.1076 136.098 49.827 129.713C47.3068 137.22 44.9032 144.77 42.3882 152.284C32.6463 156.44 22.8726 160.528 13.1523 164.726C23.8419 131.849 34.6789 99.0228 45.3643 66.138C57.9228 62.1618 70.4859 58.2121 83.0508 54.2517C83.2997 62.8447 83.5485 71.4431 83.8238 80.0358C90.5744 69.3039 97.1228 58.4394 103.815 47.671ZM107.368 50.524C106.569 50.6775 105.971 51.1964 105.616 51.9059C97.2612 65.5709 88.7793 79.1562 80.4777 92.8489C80.0436 81.6933 79.7365 70.5269 79.4665 59.3618C69.0839 62.5915 58.7173 65.8581 48.3657 69.1724C38.7137 98.7841 28.9612 128.361 19.3417 157.976C26.0181 155.112 32.7316 152.338 39.3866 149.415C43.9081 135.533 48.4772 121.662 53.0147 107.785C53.3588 119.639 53.65 131.498 54.1054 143.353C58.7592 141.473 63.4132 139.599 68.0828 137.762C69.1311 137.322 70.4018 137.036 70.9417 135.909C78.4388 123.694 85.9518 111.485 93.4756 99.2814C89.8594 110.151 86.2909 121.036 82.7806 131.938C91.5482 128.676 100.289 125.341 109.057 122.069C107.691 126.511 106.187 130.911 104.774 135.337C103.588 138.863 102.486 142.622 103.116 146.37C103.492 148.854 104.938 151.236 107.241 152.364C110.306 153.947 113.933 153.391 117.131 152.539C130.087 148.996 143.042 145.46 156.003 141.955C158.116 135.358 160.34 128.803 162.431 122.201C152.355 124.885 142.301 127.649 132.246 130.413C136.587 117.103 140.992 103.813 145.392 90.525C155.547 87.2953 165.718 84.1188 175.878 80.8943C178.081 74.2444 180.236 67.5733 182.406 60.9075C167.508 65.5561 152.631 70.2841 137.748 74.9696C132.21 76.6374 127.312 80.1001 123.627 84.5209C128.327 69.985 133.108 55.472 137.868 40.9548C127.681 44.0836 117.538 47.3619 107.366 50.5208L107.368 50.524Z" fill="#FDB813"/>
<path d="M107.365 50.5247C117.536 47.364 127.68 44.0867 137.868 40.9575C133.108 55.4751 128.327 69.9877 123.626 84.5215C127.311 80.1005 132.208 76.638 137.746 74.9703C152.629 70.2847 167.507 65.5566 182.405 60.9082C180.234 67.574 178.079 74.2451 175.876 80.8949C165.716 84.1192 155.545 87.296 145.39 90.5257C140.991 103.815 136.586 117.103 132.244 130.414C142.298 127.65 152.353 124.886 162.429 122.202C160.338 128.804 158.114 135.359 156.002 141.956C143.041 145.46 130.085 148.997 117.129 152.539C113.931 153.392 110.305 153.948 107.239 152.364C104.936 151.237 103.491 148.854 103.115 146.371C102.485 142.623 103.586 138.863 104.772 135.337C106.185 130.911 107.689 126.511 109.055 122.069C100.287 125.342 91.5462 128.677 82.7788 131.938C86.2891 121.037 89.8575 110.152 93.4737 99.2821C85.9501 111.486 78.4373 123.695 70.9399 135.909C70.3999 137.037 69.1292 137.323 68.0809 137.762C63.4111 139.6 58.7573 141.474 54.1035 143.354C53.6482 131.499 53.357 119.64 53.0128 107.785C48.4756 121.662 43.9063 135.534 39.3848 149.416C32.7295 152.338 26.0161 155.113 19.3398 157.977C28.96 128.359 38.7125 98.7848 48.3638 69.173C58.7146 65.8586 69.0812 62.5919 79.4646 59.3624C79.7346 70.5286 80.0417 81.6948 80.4759 92.8495C88.7777 79.1579 97.2595 65.5722 105.614 51.9065C105.969 51.1971 106.566 50.6783 107.365 50.5247ZM107.721 52.8277C97.9103 68.6886 88.2321 84.6346 78.3422 100.439C78.041 87.7686 77.6444 75.0936 77.2207 62.4248C68.1989 65.2626 59.177 68.0952 50.1656 70.9596C41.1225 98.6129 32.0637 126.26 23.0315 153.919C27.8814 151.939 32.6729 149.806 37.5225 147.82C43.2989 130.179 49.0858 112.536 54.8462 94.8916C55.365 109.944 55.7674 125.002 56.2121 140.059C59.9766 138.571 63.7303 137.067 67.4788 135.553C68.1724 135.251 68.9719 134.992 69.3108 134.24C80.0375 116.816 90.7438 99.3698 101.481 81.9513C96.462 97.369 91.4057 112.776 86.3494 128.182C94.1642 125.222 102.016 122.342 109.82 119.351C117.995 94.3704 126.185 69.3963 134.333 44.4077C125.465 47.2349 116.575 49.967 107.722 52.8312M138.325 77.1656C131.897 79.1511 126.391 83.6938 122.987 89.4647C120.72 93.0543 119.566 97.1736 118.269 101.176C114.277 113.443 110.28 125.71 106.298 137.978C105.451 140.826 104.736 143.902 105.52 146.851C106.028 148.869 107.738 150.499 109.787 150.886C112.514 151.378 115.267 150.759 117.877 149.996C130.002 146.677 142.131 143.384 154.255 140.074C155.785 135.193 157.453 130.348 158.983 125.462C148.908 128.204 138.827 130.952 128.757 133.7C133.564 119.103 138.229 104.454 143.073 89.8658C143.343 88.701 144.587 88.4045 145.562 88.0763C155.076 85.1059 164.579 82.0829 174.089 79.0968C175.72 74.1994 177.287 69.2862 178.907 64.3833C165.369 68.6031 151.851 72.9035 138.325 77.1656Z" fill="white"/>
<path d="M130.807 47.8745C123.574 50.2253 116.295 52.4316 109.068 54.7931C115.119 54.2742 121.113 53.0882 127.017 51.6745C119.742 74.0181 112.397 96.3384 105.105 118.675C106.042 118.336 106.984 118.009 107.932 117.676C115.636 94.4384 123.192 71.1485 130.807 47.8745ZM75.1171 65.4978C67.3447 67.8591 59.6193 70.3688 51.863 72.7831C58.8941 71.9148 65.7719 70.0634 72.7296 68.7397C73.1743 81.9177 73.492 95.1041 73.8361 108.288C74.6674 106.541 76.4536 105.043 76.1466 102.947C75.7813 90.4674 75.3765 77.9822 75.1171 65.4978ZM175.381 67.8797C163.389 71.5594 151.465 75.4584 139.475 79.1434C140.645 79.0216 141.814 78.8553 142.963 78.5852C152.525 76.3721 162.111 74.2323 171.579 71.6115C170.89 73.7929 170.191 75.9699 169.466 78.1406C170.408 77.8494 171.358 77.5633 172.305 77.2774C173.327 74.1431 174.348 71.0086 175.381 67.8797ZM100.563 74.4834C88.2212 94.4694 75.9395 114.499 63.7243 134.559C65.1062 133.892 67.029 133.785 67.8392 132.297C77.5864 116.446 87.3416 100.601 97.0845 84.7442C98.6093 81.4723 99.4189 77.9091 100.563 74.4834ZM140.785 89.2972C139.054 89.8637 137.604 91.1429 137.096 92.9219C132.468 107.053 127.936 121.214 123.255 135.328C124.166 135.105 125.082 134.883 125.998 134.666C131.027 119.576 135.925 104.44 140.785 89.2972ZM51.7218 89.3881C50.9594 91.2358 50.3666 93.1511 49.7682 95.0572C44.0925 112.498 38.4024 129.932 32.748 147.377C33.7381 146.938 34.7317 146.498 35.7271 146.069C40.7622 130.641 45.7937 115.207 50.8816 99.8005C52.1576 96.4703 51.2612 92.8454 51.7218 89.3881ZM155.526 128.757C146.277 131.256 137.034 133.796 127.784 136.311C135.816 135.279 143.769 133.69 151.769 132.456C151.097 134.632 150.345 136.792 149.641 138.963C150.546 138.724 151.456 138.491 152.367 138.258C153.537 135.129 154.478 131.928 155.526 128.757Z" fill="#6280A7" stroke="#6280A7" stroke-width="2.08587"/>
<path d="M154.868 24.1074C136.258 29.9312 117.665 35.8071 99.0693 41.6892C96.115 46.4701 93.1669 51.256 90.2233 56.0422C90.2339 52.2143 90.0212 48.3858 89.9312 44.5579C73.1951 49.8198 56.474 55.1266 39.7329 60.3669C26.9678 99.3934 14.1761 138.408 1.4375 177.44C31.5535 164.58 61.5897 151.476 92.2872 140.05C91.6836 144.831 91.9646 149.918 94.3154 154.228C97.1214 159.734 102.894 163.423 108.983 164.096C114.41 164.864 119.73 163.22 124.887 161.769C138.113 158.174 151.321 154.534 164.558 150.976C169.456 136.088 174.285 121.176 179.177 106.282C169.081 108.993 159 111.761 148.914 114.509C150.513 109.458 152.232 104.451 153.794 99.3897C164.023 96.0648 174.307 92.8935 184.566 89.648C189.501 74.4368 194.475 59.2396 199.452 44.0387C180.454 50.0056 161.475 56.0203 142.478 61.9877C146.618 49.3656 150.781 36.7513 154.868 24.1074ZM143.735 35.1081C139.547 47.9525 135.337 60.7862 131.128 73.6212C133.044 72.6788 135.02 71.8361 137.07 71.2165C154.14 65.8744 171.17 60.4061 188.261 55.1274C185.164 64.7263 181.988 74.2976 178.896 83.9009C168.651 87.1358 158.408 90.3603 148.169 93.6005C144.77 104.041 141.37 114.489 137.976 124.934C148.057 122.186 158.131 119.411 168.223 116.695C165.105 126.135 162.082 135.613 158.942 145.047C146.182 148.551 133.407 151.995 120.647 155.489C116.019 156.876 110.841 158.077 106.219 156.044C101.989 154.313 99.3254 149.848 99.2195 145.358C98.8436 139.418 101.396 133.898 103.101 128.345C94.2957 131.606 85.5504 135.008 76.7346 138.249C77.7193 135.019 78.8184 131.832 79.8985 128.64C77.6007 132.134 75.5104 135.762 73.2655 139.293C72.8791 140.008 72.0254 140.187 71.3477 140.51C64.3431 143.242 57.4046 146.118 50.4097 148.876C50.2615 142.486 50.1062 136.099 49.8256 129.714C47.3055 137.222 44.9028 144.771 42.3879 152.284C32.6459 156.44 22.8705 160.53 13.1491 164.729C23.8388 131.85 34.6786 99.0206 45.3636 66.1365C57.9222 62.1603 70.4851 58.2133 83.0492 54.2531C83.2981 62.8461 83.5462 71.4428 83.8216 80.036C90.572 69.304 97.1222 58.4417 103.814 47.672C117.14 43.5422 130.43 39.296 143.735 35.1081ZM134.331 44.4052C125.462 47.2326 116.573 49.965 107.72 52.8294C97.9096 68.6864 88.2328 84.6335 78.342 100.437C78.0402 87.7677 77.6428 75.0916 77.2192 62.4211C68.1974 65.2589 59.1756 68.0914 50.1654 70.9557C41.1223 98.6093 32.0619 126.258 23.0301 153.917C27.8798 151.937 32.6697 149.801 37.5194 147.816C43.2957 130.174 49.0844 112.536 54.8453 94.8895C55.3641 109.942 55.7667 125 56.2114 140.058C59.9759 138.571 63.7298 137.065 67.4783 135.551C68.1719 135.249 68.9696 134.989 69.3086 134.237C80.0352 116.813 90.7433 99.3673 101.48 81.9483C96.4606 97.3659 91.4042 112.774 86.348 128.181C94.1628 125.221 102.012 122.342 109.816 119.351C117.991 94.372 126.182 69.3939 134.331 44.4052ZM130.806 47.8742C123.193 71.1482 115.635 94.4389 107.931 117.676C106.983 118.01 106.042 118.337 105.105 118.676C112.395 96.3389 119.741 74.0169 127.016 51.675C121.113 53.0886 115.119 54.2747 109.067 54.7936C116.294 52.4323 123.574 50.2251 130.806 47.8742ZM178.905 64.3819C165.367 68.6015 151.852 72.8989 138.325 77.161C131.897 79.1464 126.39 83.6888 122.985 89.4597C120.719 93.0494 119.564 97.1685 118.267 101.171C114.275 113.439 110.277 125.706 106.296 137.973C105.449 140.821 104.733 143.899 105.517 146.848C106.025 148.865 107.739 150.495 109.787 150.882C112.514 151.374 115.267 150.755 117.877 149.993C130.002 146.673 142.13 143.378 154.255 140.069C155.786 135.188 157.453 130.343 158.984 125.457C148.908 128.199 138.826 130.948 128.756 133.696C133.564 119.099 138.229 104.447 143.074 89.861C143.344 88.6963 144.588 88.4013 145.562 88.073C155.077 85.1027 164.581 82.08 174.09 79.0938C175.721 74.1965 177.284 69.2846 178.905 64.3819ZM75.1169 65.4982C75.3764 77.9827 75.7803 90.4669 76.1456 102.946C76.4527 105.043 74.6664 106.541 73.8352 108.288C73.491 95.1042 73.1733 81.9182 72.7286 68.7394C65.7716 70.063 58.8938 71.9145 51.8621 72.7828C59.6185 70.3685 67.3447 67.8596 75.1169 65.4982ZM175.381 67.8801C174.348 71.0091 173.326 74.1435 172.304 77.2777C171.356 77.5636 170.407 77.8497 169.465 78.1409C170.19 75.9702 170.889 73.7932 171.577 71.6118C162.111 74.2326 152.523 76.3724 142.962 78.5855C141.813 78.8556 140.643 79.0219 139.473 79.1437C151.465 75.4587 163.39 71.5597 175.381 67.8801ZM100.562 74.4838C99.4189 77.9093 98.6086 81.4726 97.0837 84.7448C87.3418 100.602 77.5862 116.446 67.8383 132.298C67.0283 133.786 65.1054 133.893 63.7235 134.56C75.9379 114.499 88.221 94.4697 100.562 74.4838ZM140.785 89.2975C135.925 104.44 131.027 119.578 125.997 134.668C125.081 134.885 124.166 135.107 123.255 135.33C127.936 121.214 132.468 107.055 137.096 92.9236C137.604 91.1447 139.054 89.8639 140.785 89.2975ZM51.7216 89.3884C51.261 92.8458 52.1572 96.4716 50.8812 99.8019C45.7932 115.209 40.7618 130.642 35.7267 146.071C34.7313 146.5 33.7377 146.939 32.7476 147.379C38.4021 129.933 44.0924 112.497 49.7678 95.0586C50.3661 93.1525 50.9592 91.2361 51.7216 89.3884ZM155.526 128.757C154.478 131.929 153.535 135.13 152.365 138.259C151.455 138.492 150.545 138.725 149.639 138.963C150.344 136.792 151.096 134.633 151.768 132.457C143.768 133.69 135.816 135.279 127.783 136.312C137.032 133.797 146.276 131.256 155.526 128.757Z" fill="#003768"/>
</svg>
