<svg width="201" height="201" viewBox="0 0 201 201" fill="none" xmlns="http://www.w3.org/2000/svg">
<g clip-path="url(#clip0_15016_302043)">
<path d="M133.09 24.7318H200.055L177.048 62.5113H173.108L173.019 137.714H177.048L200.055 175.672H101.397L124.315 137.892H128.433L128.344 114.079L100.098 162.242L71.4954 113.713V137.802H75.5242L98.3532 175.671H0.0566406L22.8853 137.802H27.0038V62.5113H22.975L0.0566406 24.7318H67.0223L100.057 81.1317L133.092 24.7318H133.09Z" fill="black"/>
<path d="M139.086 148.188H130.402L120.375 164.839H181.344L171.496 148.188H162.902L162.812 51.8575H171.317L181.344 35.0268H139.446L100.145 101.723L61.0227 35.0268H18.8564L28.9733 51.8575H37.4781L37.5674 148.188H28.9733L18.8564 164.839H79.9139L69.7077 148.097H61.2029L61.2922 75.1351L100.101 141.385L139 75.2277L139.09 148.19L139.086 148.188Z" fill="#B61E2E"/>
</g>
<defs>
<clipPath id="clip0_15016_302043">
<rect width="200" height="200" fill="white" transform="translate(0.0566406 0.203125)"/>
</clipPath>
</defs>
</svg>
