<svg width="200" height="200" viewBox="0 0 200 200" fill="none" xmlns="http://www.w3.org/2000/svg">
<path d="M139.862 44.4046L140.001 118.885C140.001 123.652 140.001 138.171 103.437 138.231H96.5665C59.9989 138.17 59.9989 123.653 59.9989 118.883L60.1379 44.4025H9.73633L9.78116 130.059C9.78116 153.754 76.2161 155.597 96.5827 155.597H103.425C123.785 155.597 190.223 153.756 190.223 130.061L190.264 44.4042H139.862L139.862 44.4046Z" fill="white"/>
<path d="M143.75 118.887L143.767 48.0413H186.515C186.515 48.0413 186.462 127.231 186.462 130.064C186.462 145.613 143.783 151.847 103.422 151.847C103.422 149.888 103.434 145.075 103.434 141.983C123.636 141.95 143.747 137.68 143.747 118.887" fill="#005030"/>
<path d="M56.2494 118.887L56.2331 48.0413H13.4844C13.4844 48.0413 13.5333 127.231 13.5333 130.064C13.5333 145.613 56.2207 151.847 96.582 151.847C96.582 149.888 96.5617 145.075 96.5617 141.983C76.3642 141.95 56.2527 137.68 56.2527 118.887" fill="#F05A00"/>
</svg>
