<svg width="201" height="201" viewBox="0 0 201 201" fill="none" xmlns="http://www.w3.org/2000/svg">
<path d="M132.467 43.0429L100.962 86.6018L69.5091 43.0429H20.9883V77.2699H33.0073V123.971H20.9883V158.196H82.8588V123.971H70.0393V97.1687L100.796 139.46L131.937 97.1328V123.971H119.118V158.196H180.988V123.971H168.969V77.2699H180.988V43.0429H132.467Z" fill="#00274C"/>
<path d="M178.408 74.6869V45.6133H133.78L100.956 90.9939L68.1895 45.6133H23.5615V74.6869H35.5806V126.541H23.5615V155.615H80.2803V126.541H67.4591V89.2424L100.803 135.092L134.51 89.2783V126.541H121.691V155.615H178.408V126.541H166.389V74.6869H178.408Z" fill="#F5C300"/>
</svg>
