<svg width="201" height="201" viewBox="0 0 201 201" fill="none" xmlns="http://www.w3.org/2000/svg">
<path d="M150.6 16.8352C133.847 11.3172 116.786 10.7301 99.4718 14.9109L99.4709 14.9112C65.3015 23.1491 43.0047 40.26 33.0935 66.4075L33.0929 66.4092C29.4755 75.973 27.7476 86.1687 27.9943 97.0241L27.9943 97.0244C28.191 105.627 29.4705 113.313 31.7685 120.107L31.7754 120.127C36.7061 134.297 38.1438 144.147 36.6513 150.203C36.6369 150.261 36.6248 150.319 36.6147 150.378C35.4669 157.128 33.2345 161.595 30.1693 164.299C29.2305 165.12 28.3429 165.671 27.4666 166.034L25.9916 166.481C24.7792 166.848 24.0468 168.079 24.3026 169.32C24.5585 170.561 25.7181 171.402 26.977 171.26C33.378 170.537 38.7547 168.199 42.9314 164.143C47.088 160.107 49.8832 154.538 51.4448 147.637C52.6724 142.263 52.992 134.316 52.5101 124.052C52.5083 124.012 52.5054 123.972 52.5016 123.932L51.3055 111.492C50.8866 105.46 51.0829 100.131 51.9882 95.4688L51.992 95.449C54.5778 81.5218 63.1032 69.6712 78.0251 59.9253C93.8839 49.5851 111.02 46.3486 129.673 50.1518C139.05 52.1216 146.706 55.097 152.765 59.061C153.343 59.4387 154.053 59.5554 154.721 59.3824C155.389 59.2095 155.953 58.7629 156.274 58.1525L171.384 29.4673C171.951 28.3917 171.643 27.0634 170.661 26.3466C165.579 22.6366 158.839 19.5168 150.6 16.8352Z" fill="#004F39" stroke="white" stroke-width="4.9" stroke-linejoin="round"/>
<path d="M118.592 49.3322C118.521 49.329 118.45 49.3287 118.379 49.3316L112.334 49.5714C111.013 49.6238 109.962 50.6952 109.934 52.0167L109.718 62.23L109.602 52.6628C109.593 51.9262 109.26 51.2311 108.691 50.7629C108.123 50.2947 107.377 50.1012 106.652 50.234L99.8459 51.4812C99.1919 51.601 98.6126 51.9764 98.2361 52.5243C97.8595 53.0723 97.7168 53.7477 97.8394 54.4011L99.3595 62.5052L97.3753 55.336C97.1916 54.6723 96.7423 54.1138 96.1334 53.7922C95.5245 53.4706 94.8099 53.4144 94.1582 53.6369L88.2564 55.6516C87.6134 55.8711 87.0874 56.3429 86.7995 56.9584C86.5117 57.5738 86.4867 58.28 86.7304 58.9142L90.9585 69.9175L85.3843 60.0936C85.0535 59.5106 84.5025 59.0849 83.8549 58.912C83.2073 58.7391 82.5174 58.8334 81.94 59.1739L77.4661 61.8122C76.87 62.1637 76.4463 62.7466 76.2958 63.422C76.1453 64.0975 76.2816 64.8051 76.6721 65.3764L77.6325 66.7815L76.6845 65.5278C76.2608 64.9675 75.6209 64.6112 74.9214 64.5463C74.2219 64.4814 73.5274 64.7138 73.0078 65.1866L68.1055 69.6477C67.5922 70.1148 67.2961 70.7744 67.2883 71.4684C67.2853 71.7298 67.3234 71.9873 67.3988 72.2323C67.0521 72.0994 66.6764 72.044 66.2984 72.0752C65.6006 72.1327 64.9589 72.4803 64.5295 73.0334L60.2459 78.5498C59.8119 79.1087 59.6351 79.8253 59.7594 80.522C59.8836 81.2186 60.2972 81.8299 60.8977 82.2044L66.3917 85.6305L61.0763 83.1845C60.4725 82.9066 59.783 82.8806 59.1601 83.1122C58.5372 83.3438 58.0321 83.8138 57.7564 84.4185L55.3291 89.743C55.0203 90.4202 55.0294 91.1997 55.3537 91.8696C55.6781 92.5394 56.284 93.0299 57.0067 93.2077L60.4673 94.0589L57.2022 93.4544C56.2705 93.282 55.3215 93.651 54.751 94.4075C54.186 95.1568 53.8898 96.1535 53.696 96.9745C53.4784 97.8962 53.297 99.0369 53.1401 100.361C52.8253 103.017 52.5843 106.63 52.3931 111.157L52.3922 111.184C52.3087 113.828 52.2575 115.907 52.2401 117.413C52.2241 118.797 52.229 119.954 52.3197 120.535C52.3342 120.627 52.366 120.814 52.4363 121.027C52.4708 121.131 52.5414 121.326 52.6723 121.546C52.7796 121.727 53.0846 122.198 53.6999 122.511C54.485 122.911 55.3474 122.844 56.0102 122.496C56.531 122.222 56.8133 121.841 56.9161 121.693C57.1342 121.378 57.2342 121.078 57.262 120.994L57.263 120.991C57.3892 120.613 57.4661 120.111 57.5194 119.74C57.6483 118.843 57.8076 117.38 57.9977 115.392C58.4415 110.974 60.4879 107.847 64.3205 105.809C66.332 104.798 68.2239 104.265 70.1498 104.059C71.1677 103.95 72.0162 103.231 72.2913 102.245L73.148 99.1749C73.3366 98.4991 73.2325 97.775 72.8611 97.1797C72.8429 97.1505 72.8241 97.1217 72.8048 97.0934L72.9986 97.1411C74.1288 97.4191 75.3012 96.8804 75.8266 95.8419L77.064 93.3955C77.2718 92.9848 77.3602 92.5288 77.326 92.078C78.1252 92.1174 78.9251 91.7721 79.4407 91.0944L81.63 88.2163C82.0728 87.6342 82.2234 86.9151 82.0976 86.2423C82.3433 86.3069 82.5997 86.3344 82.8584 86.3215C83.5426 86.2874 84.1828 85.974 84.6295 85.4546L87.1044 82.5765C87.4545 82.1694 87.6534 81.6761 87.6988 81.1708C88.5168 81.7033 89.6074 81.727 90.4658 81.1458L93.5119 79.0831C93.9176 78.8084 94.2184 78.4339 94.4016 78.0131C94.6022 78.1822 94.8301 78.3204 95.0784 78.4204C95.7218 78.6798 96.4441 78.6601 97.0725 78.366L101.07 76.4953C101.664 76.2177 102.103 75.7319 102.332 75.1596C102.406 75.2203 102.484 75.277 102.566 75.3293C103.147 75.701 103.856 75.8163 104.525 75.6478L107.951 74.7844C108.757 74.5814 109.387 74.0006 109.673 73.261C109.794 73.5748 109.979 73.864 110.219 74.1091C110.689 74.5894 111.333 74.8601 112.005 74.8601H113.623C114.777 74.8601 115.78 74.0708 116.053 72.9498C117.48 67.0703 121.087 62.7444 126.967 59.825L126.967 59.8249C130.062 58.2881 132.78 57.4616 135.253 57.2982C136.455 57.2188 137.429 56.2938 137.571 55.0978C137.713 53.9018 136.982 52.7747 135.832 52.4167C129.773 50.5303 124.041 49.5818 118.592 49.3322ZM176.94 147.268C169.141 137.929 162.848 125.09 158.151 108.473C156.505 102.616 153.237 97.0041 148.308 91.6823C138.357 80.6888 124.866 76.1876 108.279 77.8835C96.9251 79.0232 87.426 85.0573 79.8069 95.5467L79.7969 95.5607C76.9562 99.5286 74.7854 103.685 73.3641 108.078C72.0708 111.898 71.533 115.289 72.2254 118.051L73.062 125.686C73.0631 125.696 73.0644 125.707 73.0656 125.717C73.0663 125.723 73.0671 125.728 73.0678 125.734C73.4311 128.542 73.8382 130.886 74.2977 132.751C74.7413 134.552 75.2878 136.142 76.0424 137.265L76.0639 137.297C76.3149 137.658 76.7215 138.774 76.8778 141.189C77.0262 143.482 76.9313 146.582 76.5341 150.539L76.532 150.56C76.1588 154.627 75.6078 157.802 74.9133 160.121C74.1911 162.532 73.4261 163.626 72.9187 164.02C72.007 164.729 71.6989 165.969 72.1731 167.022C72.6474 168.074 73.7807 168.665 74.9152 168.452L113.004 161.277L126.053 171.735C126.077 171.755 126.103 171.774 126.128 171.793C137.172 179.972 146.998 185.731 155.63 188.963C156.525 189.298 157.533 189.093 158.226 188.435C158.92 187.778 159.178 186.782 158.891 185.871C153.885 169.964 152.049 152.782 153.25 134.254L155.801 143.987C156.048 144.927 156.816 145.639 157.772 145.813L164.028 146.951C168.567 148.066 171.62 149.394 173.487 150.844C174.495 151.628 175.932 151.525 176.819 150.606C177.706 149.687 177.758 148.248 176.94 147.268ZM150.024 121.943L152.138 130.01C151.873 129.858 151.577 129.752 151.258 129.704L141.725 128.284C136.411 126.909 133.601 125.003 132.321 122.911L132.755 122.486C134.012 121.479 135.473 120.626 137.01 120.014C141.439 118.259 145.685 118.79 150.024 121.943Z" fill="#004F39" stroke="white" stroke-width="5" stroke-linejoin="round"/>
</svg>
