<svg width="200" height="201" viewBox="0 0 200 201" fill="none" xmlns="http://www.w3.org/2000/svg">
<path d="M110.057 129.778L114.22 112.133H121.02L116.2 129.778H110.057ZM126.469 67.6693L135.504 35.6843H91.4927L75.1764 55.1625L71.1034 35.6843H26.5749L16.9113 73.7099H22.578L15.6335 100.167H8.37783L0 135.623H51.0632L57.3695 108.933H63.9077L57.5997 135.623H108.065L100.141 165.558H153.901L163.374 129.776H156.485L161.481 111.49H188.643L200 67.668H126.468L126.469 67.6693Z" fill="black"/>
<path d="M114.962 72.2009L115.814 69.1835H121.33L129.516 40.2131H93.5971L72.6497 65.2304L67.4194 40.2131H30.0909L22.7306 69.1835H28.4401L19.1226 104.7H11.9528L5.71631 131.097H47.4766L53.713 104.7H48.0654L51.0083 93.4886L55.221 104.43H69.6312L79.3821 94.4584L76.4694 104.7H69.5565L63.3168 131.097H105.083L110.626 107.606H126.943L119.649 134.309H113.092L106.02 161.034H150.413L157.491 134.309H150.554L158.022 106.968H185.136L194.144 72.2018L114.962 72.2009Z" fill="white"/>
<path d="M33.4929 44.564L28.3417 64.8346H34.0981L22.4959 109.048H15.415L11.231 126.749H44.054L48.2356 109.048H42.4469L48.1042 87.4925H53.3819L58.2282 100.074H67.8289L81.7058 85.8826L86.3636 85.8851L79.7762 109.047H73.0177L68.8337 126.748H101.662L105.838 109.047H100.05L112.545 64.8336H118.061L123.788 44.563H95.6502L70.2444 74.8997L63.9053 44.5643H33.4962L33.4929 44.564ZM114.203 76.5502L107.45 103.256H124.184L126.131 94.4989H135.054L122.991 138.653H116.458L111.689 156.681H147.083L151.855 138.653H144.873L156.984 94.3249H166.659L164.734 102.614H181.788L188.542 76.55L114.203 76.5502Z" fill="#0066CC"/>
</svg>
