<svg width="201" height="201" viewBox="0 0 201 201" fill="none" xmlns="http://www.w3.org/2000/svg">
<g clip-path="url(#clip0_15016_302109)">
<path fill-rule="evenodd" clip-rule="evenodd" d="M188.485 129.761L153.427 71.4815H163.086V41.115H104.729V71.4815H114.386L100.987 93.7468L87.5989 71.4815H97.2528V41.115H38.8985V71.4815H48.5524L13.4944 129.761H0.988281V160.127H60.5034V129.761H49.8128L68.0765 99.3999L75.1574 111.175H68.366V141.54H133.613V111.175H126.827L133.907 99.3999L152.169 129.761H141.476V160.127H200.988V129.761H188.485Z" fill="#5B0013"/>
<path fill-rule="evenodd" clip-rule="evenodd" d="M155.3 48.8941V63.6941H139.661L184.089 137.545H193.21V152.337H149.263V137.545H165.938L133.908 84.2957L113.058 118.956H125.829V133.751H76.1514V118.956H88.931L68.0779 84.2957L36.0445 137.545H52.7228V152.337H8.77913V137.545H17.8975L62.3261 63.6916H46.6869V48.8941H89.4698V63.6941H73.8306L100.991 108.842L128.159 63.6908H112.52V48.8933L155.3 48.8941ZM159.194 44.9997V67.5842H146.545L186.292 133.65H197.104V156.23H145.37V133.65H159.056L133.909 91.8471L119.941 115.063H129.723V137.645H72.258V115.065H82.045L68.0776 91.8495L42.9307 133.653H56.6139V156.229H4.88574V133.65H15.6955L55.4425 67.5834H42.796V44.9989H93.3633V67.5834H80.7143L100.991 101.291L121.274 67.5834H108.627V44.9989H159.194" fill="#FFB71E"/>
</g>
<defs>
<clipPath id="clip0_15016_302109">
<rect width="200" height="200" fill="white" transform="translate(0.988281 0.621094)"/>
</clipPath>
</defs>
</svg>
