<svg width="201" height="201" viewBox="0 0 201 201" fill="none" xmlns="http://www.w3.org/2000/svg">
<g clip-path="url(#clip0_15016_302497)">
<path d="M169.478 78.5196L174.139 92.459L170.474 76.8416C161.987 77.6656 154.389 79.3388 148.096 81.1616L169.478 78.5196Z" fill="white"/>
<path d="M117.926 83.6539L120.005 69.3242L118.059 71.0289L117.926 83.6539Z" fill="white"/>
<path d="M136.768 80.0355L150.338 73.1256L155.854 75.7798L150.403 71.8589L136.768 80.0355Z" fill="white"/>
<path d="M139.836 75.5347L135.248 73.4168L126.081 82.6937L135.698 74.8489L139.836 75.5347Z" fill="white"/>
<path d="M86.2967 77.2601C85.4334 76.2578 84.5814 75.2607 83.735 74.2589C83.4937 74.5073 83.2597 74.7632 83.0484 75.0504C84.0129 76.1179 84.9548 77.154 85.8594 78.144C86.0181 77.8945 86.1696 77.607 86.2967 77.2601Z" fill="white"/>
<path d="M88.7489 80.0855C88.7947 80.5013 88.8323 80.9373 88.8554 81.3937C94.5495 87.5243 98.379 91.3909 98.379 91.3909L99.0741 91.4451C95.6237 87.8206 92.1504 83.9803 88.7489 80.0855Z" fill="white"/>
<path d="M71.4452 60.0681L71.9523 59.9638C71.9705 60.0033 72.4139 60.9457 71.927 61.9894L71.8126 62.1979C72.6599 63.2001 73.5031 64.1901 74.3423 65.1659L74.8646 65.4777C75.5226 65.9494 76.0156 66.6225 76.3425 67.485C77.8346 69.1937 79.2953 70.8538 80.7125 72.4471C80.837 71.9157 80.8947 71.3883 80.8947 70.9287V70.8842C66.4699 53.5855 54.9786 37.7729 54.9786 37.7729L61.9703 39.0473C56.1974 36.9033 50.2695 33.7603 50.2695 33.7603C56.0061 42.6804 63.4968 52.2888 70.855 61.0591C71.2164 60.801 71.4452 60.469 71.4452 60.0681Z" fill="white"/>
<path d="M138.652 52.77C144.818 41.3371 151.262 26.7694 151.648 15.2308C144.53 21.0229 135.299 26.0827 130.364 28.615C139.43 25.7556 146.158 19.8779 149.163 19.8784C151.541 19.8779 143.226 41.3815 138.652 52.77Z" fill="white"/>
<path d="M114.949 93.3364C105.112 100.095 101.031 97.2418 101.031 97.2418C101.031 97.2418 103.848 103.183 114.949 93.3364Z" fill="white"/>
<path d="M110.953 126.673C111.493 126.786 112.035 126.896 112.573 127.005C115.301 126.012 124.373 122.21 125.429 115.158C119.85 123.847 113.168 126.134 110.953 126.673Z" fill="white"/>
<path d="M124.032 130.152C124.542 128.043 126.784 119.529 129.785 117.411C126.131 118.573 124.871 123.953 123.082 129.689C123.397 129.835 123.715 129.989 124.032 130.152Z" fill="white"/>
<path d="M96.4727 146.502C96.6164 146.173 96.7682 145.832 96.9191 145.475L90.6309 141.292L96.4727 146.502Z" fill="white"/>
<path d="M106.71 153.863L107.727 154.382C108.202 153.889 108.699 153.374 109.21 152.842L107.679 151.807C107.329 152.513 107.01 153.201 106.71 153.863Z" fill="white"/>
<path d="M98.4605 141.976L93.7109 139.71L98.1103 142.771L98.4605 141.976Z" fill="white"/>
<path d="M112.627 149.298L109.839 147.806C109.609 148.204 109.377 148.598 109.157 148.989L111.607 150.357C111.945 150.003 112.283 149.651 112.627 149.298Z" fill="white"/>
<path d="M114.429 98.1909C108.462 102.061 103.172 106.673 100.264 109.359C100.403 110.184 100.502 111.139 100.547 112.269C106.656 105.145 114.429 98.1909 114.429 98.1909Z" fill="white"/>
<path d="M90.1137 61.1867C88.4248 60.4653 87.7781 59.3865 87.5353 58.7307C86.5985 58.7338 85.724 58.7875 85.181 58.8641C84.2754 59.2287 83.061 61.67 86.8751 61.6702C88.2993 61.6705 89.3537 61.4677 90.1137 61.1867Z" fill="white"/>
<path d="M91.8427 59.638C91.8427 59.2554 91.1473 59.0185 90.1836 58.8818C90.3142 59.2493 90.6756 59.7807 91.6635 60.1219L91.8427 59.638Z" fill="white"/>
<path d="M109.424 68.5703L107.781 70.1535C108.553 69.8903 109.318 69.5755 110.023 69.2232L109.424 68.5703Z" fill="white"/>
<path d="M107.822 69.4013L109.073 68.1947L108.629 67.7139C108.332 68.3101 108.071 68.9033 107.822 69.4013Z" fill="white"/>
<path d="M109.928 65.7085L110.803 66.5307L112.467 64.9279L111.844 64.819C111.061 64.819 110.445 65.1747 109.928 65.7085Z" fill="white"/>
<path d="M108.879 67.221L109.449 67.8344L110.433 66.8857L109.596 66.1C109.329 66.4382 109.098 66.823 108.879 67.221Z" fill="white"/>
<path d="M111.756 68.123L110.81 67.2395L109.797 68.2124L110.491 68.9714C110.961 68.7104 111.387 68.4257 111.756 68.123Z" fill="white"/>
<path d="M113.056 65.8455L112.881 65.2429L111.18 66.8834L112.134 67.7761C112.703 67.1975 113.057 66.5571 113.056 65.8455Z" fill="white"/>
<path d="M78.3793 45.8661C78.1597 40.16 79.4604 26.3881 95.7397 18.6392C80.1154 23.1964 75.7312 38.5647 76.377 47.9717C76.377 47.9717 76.8639 46.6345 78.3793 45.8661Z" fill="white"/>
<path d="M123.563 30.7642C123.563 30.7642 123.466 29.1664 123.124 27.624C122.277 26.2001 121.031 24.4512 119.314 22.8018C117.422 21.58 116.197 21.4532 116.197 21.4532C116.197 21.4532 116.986 27.4281 123.563 30.7642Z" fill="white"/>
<path d="M110.181 22.2506C116.389 27.1763 113.23 37.387 113.23 37.387C110.878 38.2981 109.378 36.5357 109.378 36.5357C109.378 36.5357 112.59 28.2149 110.181 22.2506ZM111.626 38.1908C114.508 38.1908 115.534 37.3131 115.534 32.3753C115.534 25.6285 111.045 21.9985 109.44 20.9194C109.763 22.1078 109.903 23.2679 109.903 24.3804C109.903 27.3332 108.98 29.9489 108.302 31.8803C107.916 32.9745 107.613 33.84 107.613 34.3796C107.613 35.7239 109.138 38.1908 111.626 38.1908Z" fill="white"/>
<path d="M75.8512 46.9513C75.6973 45.7943 75.6477 44.5968 75.6943 43.3719C69.4233 42.4973 67.9312 35.8892 67.9312 35.8892C67.9312 35.8892 71.4002 40.9455 75.8482 41.4415C75.9119 40.9161 75.9878 40.3918 76.085 39.8634C71.1209 38.8876 68.496 35.869 67.4453 34.3232C67.668 36.8063 68.9161 43.2616 75.8512 46.9513Z" fill="white"/>
<path d="M103.504 54.6911C103.884 54.8035 104.308 54.7832 104.703 54.6527C105.577 53.9258 106.476 53.2294 107.377 52.5977C107.134 52.3184 106.838 51.9064 106.672 51.4407L105.482 51.7667L106.746 48.5993L107.238 49.0386C107.967 48.0122 109.186 47.0394 110.527 47.0394C111.648 47.0394 112.455 47.7105 112.858 48.1255C113.119 47.6184 113.368 47.2115 113.517 46.9776C113.065 46.7701 111.932 46.3521 110.094 46.3521C106.864 46.3521 102.553 51.8831 102.553 53.3327C102.553 54.0271 102.891 54.5069 103.504 54.6911Z" fill="white"/>
<path d="M106.135 51.1977C106.639 51.061 107.941 50.7057 108.391 50.5863C108.056 50.2877 107.206 49.5224 106.909 49.2612C106.763 49.6196 106.316 50.7412 106.135 51.1977Z" fill="white"/>
<path d="M109.812 50.3202L110.124 50.9012C110.794 50.5459 111.446 50.2493 112.067 50.0236L112.191 49.647C111.939 49.484 111.595 49.3828 111.216 49.3828C110.441 49.3828 109.812 49.8009 109.812 50.3202Z" fill="white"/>
<path d="M85.0088 89.1788C85.0088 88.6929 84.9045 88.2981 84.7972 87.8942C84.6899 87.4822 84.5745 87.052 84.5745 86.5276C84.5745 85.9942 84.447 85.6055 84.1949 85.3767L83.9105 85.2137L83.9247 85.3767C83.9247 85.9992 83.6817 86.5155 83.2262 86.8384C82.7373 87.1765 82.0813 87.2453 81.558 86.9994C81.0853 86.7767 80.8119 86.3434 80.8119 85.8069C80.8119 84.8989 81.3171 84.2288 81.8019 83.5799C82.2595 82.9624 82.6937 82.3814 82.6937 81.6343C82.6937 79.1047 80.8302 78.3718 79.8037 78.1582C80.6216 79.2353 80.654 80.4328 80.654 81.2254V81.3792L80.6571 81.6131L80.6601 81.9815C80.6601 82.7468 80.5811 83.7722 79.9282 84.3948C79.5729 84.7329 79.0951 84.9019 78.504 84.9019C78.0363 84.9019 77.6982 84.7744 77.5008 84.5223C77.0888 84.001 77.3854 83.1082 77.7296 82.0757C77.9816 81.3195 78.2398 80.5431 78.2398 79.8699C78.2398 79.4306 78.1092 79.1168 77.8541 78.9508C77.5869 78.7757 77.1941 78.7575 76.858 78.7929C77.183 79.0419 77.4168 79.3598 77.5292 79.7485L77.6142 80.3558C77.6142 81.2072 77.1738 82.2032 76.3357 83.2236C75.7192 83.9737 75.5188 84.4991 75.5188 84.8989C75.5188 85.2906 75.7101 85.567 75.8893 85.8302L76.1413 86.2574L76.2466 86.5003C76.4572 86.9609 76.7669 87.6421 76.7669 88.2212L76.5938 88.8376C76.3995 89.116 76.0583 89.2587 75.5856 89.2587C74.4093 89.2587 73.5661 88.1584 73.0883 87.3192C73.0296 87.8264 72.9517 88.2718 72.9375 88.369C72.9405 88.6656 73.1835 88.9976 73.4932 89.4106C74.0672 90.1809 74.8527 91.2398 74.8527 93.073V96.1654C74.8527 98.025 78.0282 100.293 78.5151 100.627H82.3334C82.0935 99.8724 81.9781 99.1496 81.9781 98.437C81.9781 96.3912 82.882 94.4335 84.1403 91.9929C84.8084 90.7002 85.0088 89.8489 85.0088 89.1788Z" fill="white"/>
<path d="M120.309 158.798L119.371 158.089C118.707 158.587 117.942 159.156 117.106 159.782L119.004 161.303C119.443 160.462 119.891 159.601 120.309 158.798Z" fill="white"/>
<path d="M22.9316 169.224C22.9316 169.224 71.1814 140.339 80.0884 130.128L46.1936 128.633L22.9316 169.224Z" fill="white"/>
<path d="M75.5547 154.745C75.5547 154.745 83.4048 150.398 86.8445 147.18L82.9584 146.127L75.5547 154.745Z" fill="white"/>
<path d="M191.607 159.823C191.607 159.823 177.319 171.463 167.817 171.463C158.315 171.463 154.857 162.314 154.857 162.314C158.446 165.674 165.824 166.795 165.824 166.795C177.058 157.928 175.7 150.042 175.089 147.987C162.073 156.033 150.803 159.511 150.803 159.511C150.803 159.511 169.412 149.179 174.463 142.581L176.803 136.374C176.803 136.374 182.615 134.526 191.477 135.57C187.512 139.28 183.339 142.512 179.235 145.297C180.634 147.657 184.775 156.638 174.264 166.484C174.264 166.484 183.965 164.556 191.607 159.823ZM161.435 119.422L172.734 121.166C162.1 135.733 140.833 176.694 140.833 176.694C140.833 176.694 149.074 138.224 161.435 119.422ZM124.53 170.387L119.655 165.405C119.655 165.405 127.897 156.688 134.009 142.744L142.164 144.574C142.164 144.574 133.701 158.806 126.387 165.654C126.387 165.654 133.564 164.574 141.008 160.176C141.008 160.176 135.605 165.654 124.53 170.387ZM96.3408 170.369L94.5471 165.953C94.5471 165.953 95.8195 155.096 102.327 142.557L109.507 144.517C109.507 144.517 102.25 153.625 100.754 164.061C100.754 164.061 116.606 151.873 123.599 142.661L129.172 144.588C119.726 155.229 96.3408 170.369 96.3408 170.369ZM73.4585 158.034L66.0548 166.721C66.0548 166.721 79.2163 164.971 89.4625 161.89C89.4625 161.89 77.9439 168.124 68.2241 171.065L61.867 167.845C61.867 167.845 65.0192 159.497 76.6745 142.696L85.9469 142.418L94.0238 148.37C94.0238 148.37 81.087 155.235 73.4585 158.034ZM10.7697 176.134L21.8693 169.785L36.4884 128.636L17.6825 129.194L16.6824 122.782C16.6824 122.782 25.9669 122.9 38.4107 123.257V122.545L42.1885 123.366C57.3118 123.829 75.894 124.615 88.3297 125.896L89.9251 131C62.8084 151.795 10.7697 176.134 10.7697 176.134ZM182.165 146.237L193.95 134.74C193.95 134.74 185.932 132.862 174.691 136.163L171.476 143.334L157.443 152.438L156.56 151.611L176.273 120.404L159.323 117.782L146.085 145.072L142.696 144.075L144.685 142.332C144.685 133.056 150.803 138.159 150.803 124.526C150.803 123.384 149.887 123.251 148.132 125.101C147.627 123.358 150.225 123.69 150.225 119.911C150.225 115.116 145.96 115.256 145.96 115.256C146.361 116.026 145.711 117.311 144.78 116.887C144.827 117.162 144.854 117.492 144.854 117.88C144.854 120.638 143.086 120.523 143.086 122.322C143.086 124.122 145.041 123.455 145.753 122.207C146.464 120.958 147.473 117.284 146.464 116.341C146.464 116.341 149.596 115.41 149.596 120.057C149.596 124.007 145.999 124.007 145.999 125.579C145.999 127.317 149.229 126.623 149.229 125.519C149.229 124.588 150.282 123.601 150.282 125.579C150.282 127.551 150.062 131.121 148.668 132.432C147.271 133.737 143.89 136.964 143.89 138.996C143.89 141.027 143.707 142.48 143.707 142.48C143.707 142.48 136.017 141.551 136.017 135.682C136.017 130.745 139.49 128.367 136.017 126.444C136.017 126.444 136.761 124.995 138.125 126.272C139.49 127.551 140.355 127.317 140.355 125.985C140.355 124.645 139.955 122.587 141.411 121.219C142.868 119.853 144.08 118.082 143.582 117.154C143.086 116.226 142.153 116.226 142.153 116.226C142.153 116.226 142.521 115.911 142.983 115.709C141.743 115.259 140.884 115.813 140.884 115.813C140.884 115.813 142.862 116.794 142.862 118.019C142.862 120.576 139.537 119.805 139.537 125.722C135.726 124.076 134.641 126.596 134.641 126.596C134.641 126.596 136.249 126.982 136.249 129.043C136.249 131.075 134.605 133.806 134.605 135.799C134.605 140.422 138.662 143.117 138.662 143.117L133.037 141.748L131.394 144.364L122.09 141.335L102.354 161.816C102.354 161.816 104.877 152.228 111.058 143.512L100.426 140.775L96.104 150.608L94.8407 148.183L86.0015 141.708L77.1361 142.088C82.1833 138.699 87.0938 135.137 91.7077 131.421L89.3926 124.526C89.3926 124.526 59.3525 121.866 14.8664 121.866L16.9405 130.469H32.6084L17.8819 170.716L7.24805 178.062C7.24805 178.062 39.9018 165.621 70.4065 146.46L60.4306 168.311L68.1441 172.863L93.5389 162.222L92.3242 167.913L95.9066 174.002L123.06 153.746L123.971 154.598L118.077 165.92L125.002 172.409L140.311 164.269L139.581 180.49L151.002 163.192C151.002 163.192 151.488 173.83 166.797 173.83C176.15 173.83 182.349 170.304 182.349 170.304L193.95 158.411L180.219 162.964C180.219 162.964 187.722 155.58 182.165 146.237Z" fill="white"/>
<path d="M39.0351 123.349V123.862L17.4961 123.444L18.4982 127.993L18.4122 124.526C18.4122 124.526 51.1095 124.651 84.1408 126.267C66.5952 124.589 42.1904 124.096 42.1904 124.096L39.0351 123.349Z" fill="white"/>
<path d="M77.0308 143.21L69.4844 155.206L77.6169 143.717H85.4802L91.814 147.798L85.5248 142.919L77.0308 143.21Z" fill="white"/>
<path d="M107.406 144.642L102.733 143.254C98.1034 151.039 95.4979 164.802 95.4979 164.802C95.4979 164.802 98.6529 151.973 103.362 144.6L107.406 144.642Z" fill="white"/>
<path d="M123.82 143.574C119.899 148.618 108.067 159.512 108.067 159.512C108.067 159.512 118.837 151.294 123.954 144.758L127.278 144.694L123.82 143.574Z" fill="white"/>
<path d="M140.035 144.945L134.389 143.578C130.267 153.536 122.093 163.872 122.093 163.872C122.093 163.872 130.4 155.529 135.385 144.945L140.035 144.945Z" fill="white"/>
<path d="M162.544 120.419C154.039 130.547 146.062 160.259 146.062 160.259C146.062 160.259 157.672 130.795 163.16 122.658L170.782 121.498L162.544 120.419Z" fill="white"/>
<path d="M176.3 143.099L178.892 137.806C178.892 137.806 181.554 136.895 185.698 135.919C179.612 136.267 177.67 136.996 177.67 136.996L175.362 142.832C174.028 145.057 163.98 152.513 163.98 152.513C163.98 152.513 172.985 146.576 176.3 143.099Z" fill="white"/>
<path d="M141.128 126.131C141.128 127.196 139.677 128.554 139.297 127.875C138.921 127.196 137.818 127.165 137.818 127.165C139.203 131.419 136.43 131.362 136.43 135.47C136.43 139.58 142.581 141.561 142.581 141.561C142.581 141.561 137.184 138.073 137.184 135.353C137.184 132.635 140.244 132.397 139.173 129.144C139.173 129.144 142.136 128.702 142.136 126.134C142.136 124.743 141.157 123.145 142.771 120.778C140.436 121.872 141.128 125.066 141.128 126.131Z" fill="white"/>
<path d="M115.214 146.614C114.015 146.424 112.645 146.037 111.27 145.521C110.765 146.28 110.291 147.045 109.839 147.807L112.627 149.298C113.5 148.391 114.375 147.486 115.214 146.614Z" fill="#EE3123"/>
<path d="M88.5371 139.425L90.6325 141.291L96.9227 145.478C97.1596 144.938 97.4046 144.381 97.6475 143.824L90.3592 138.497C89.7802 138.817 89.1718 139.123 88.5371 139.425Z" fill="#EE3123"/>
<path d="M107.679 151.807L109.21 152.841C109.731 152.299 110.272 151.738 110.823 151.169L108.563 150.071C108.255 150.659 107.957 151.24 107.679 151.807Z" fill="#EE3123"/>
<path d="M99.3807 139.88L93.6998 136.398C92.9406 136.947 92.1237 137.484 91.2461 137.997L93.7089 139.711L98.4615 141.976C98.8411 141.111 99.1691 140.366 99.3807 139.88Z" fill="#EE3123"/>
<path d="M128.275 116.683L128.138 115.253C124.514 117.344 122.521 124.642 114.422 127.374C115.238 127.534 116.015 127.682 116.727 127.813C118.574 128.154 120.546 128.604 122.581 129.471C124.17 124.257 125.232 120.259 128.275 116.683Z" fill="#EE3123"/>
<path d="M99.7096 139.299L103.26 140.215C101.721 138.489 100.408 137.86 99.5969 137.86C98.6612 137.86 99.0322 138.392 99.4357 138.769L99.7096 139.299Z" fill="#EE3123"/>
<path d="M135.567 124.197C136.246 123.945 136.99 123.871 137.794 123.957C137.51 122.601 136.094 117.18 131.329 117.18C130.772 117.18 130.262 117.266 129.787 117.415C126.786 119.529 124.546 128.046 124.033 130.152C127.462 131.935 131.021 135.033 134.413 140.798L134.823 140.896C133.975 139.568 133.277 137.859 133.277 135.801C133.277 134.612 133.726 133.313 134.158 132.067C134.532 130.985 134.92 129.867 134.92 129.046C134.92 128.076 134.422 127.836 134.271 127.791L132.859 127.418L133.408 126.13C133.471 125.994 134.033 124.769 135.567 124.197Z" fill="#EE3123"/>
<path d="M121.696 139.888C121.696 139.888 129.175 142.322 130.8 142.851C131.103 142.37 131.642 141.512 132.01 140.925C126.809 134.143 120.646 130.273 118.659 129.623C116.862 129.033 105.248 126.035 102.544 125.338C101.917 126.925 100.938 128.847 99.4228 130.851C108.41 134.799 113.252 140.463 113.252 140.463C110.628 138.532 107.835 137.91 107.835 137.91C104.222 134.143 99.5929 132.898 98.0016 132.569C97.6402 132.966 97.2576 133.361 96.8496 133.757C99.0948 135.199 104.519 135.893 107.929 139.461C109.015 140.599 110.115 141.518 111.191 142.254L113.185 142.768L112.834 143.26C114.353 144.079 115.779 144.544 116.993 144.763C119.693 141.964 121.696 139.888 121.696 139.888Z" fill="#EE3123"/>
<path d="M102.702 101.972C100.369 101.972 98.9511 101.308 98.2324 100.837C98.1656 101.142 98.123 101.491 98.123 101.895C98.123 103.903 99.0037 104.917 99.7072 107.064C101.672 105.395 108.079 100.222 114.434 98.1915C114.434 98.1915 106.661 105.146 100.548 112.269C100.561 112.658 100.571 113.067 100.571 113.5C100.571 117.026 98.6302 119.319 98.6302 119.319C98.6302 119.319 99.4825 119.283 99.4825 120.152C99.4825 121.026 101.075 119.935 101.075 119.935C101.075 119.935 100.455 122.117 103.636 121.353C103.636 121.353 103.499 122.783 102.705 124.927C103.974 125.202 107.414 125.947 110.955 126.673C113.17 126.133 119.851 123.846 125.433 115.16C125.433 115.16 127.153 112.797 129.357 111.51C129.357 111.51 121.915 103.194 124.526 97.6307C124.526 97.6307 124.662 104.731 128.031 107.883C128.031 107.883 125.593 99.4194 129.804 95.1456C129.804 95.1456 127.453 100.952 129.579 104.686C129.579 104.686 129.226 96.8452 135.386 92.5299C135.386 92.5299 129.449 101.45 131.222 106.803C131.222 106.803 133.612 99.5439 139.816 97.1327C139.816 97.1327 132.77 103.028 132.77 108.547C132.77 108.547 138.441 103.153 143.494 100.039C143.494 100.039 132.592 109.087 132.592 112.696C132.592 112.696 137.097 114.226 138.499 122.998C138.992 120.908 140.018 119.938 140.768 119.236C141.364 118.681 141.533 118.494 141.533 118.022C141.519 117.806 140.914 117.242 140.259 116.916L138.339 115.947L140.128 114.79C140.872 114.31 142.622 113.858 144.479 115.063C144.286 114.579 144.084 114.069 144.084 114.069L145.919 114.01C145.997 114.01 146.282 114.004 146.679 114.055C149.455 111.976 156.32 109.781 156.32 103.921C156.32 94.4633 151.753 89.4931 150.078 87.9868C145.045 88.3006 137.883 89.6024 135.715 89.6024C133.257 89.6024 128.541 89.1044 124.282 90.5367C115.25 95.8278 107.669 101.972 102.702 101.972Z" fill="#EE3123"/>
<path d="M161.832 107.156C164.091 106.723 169.412 99.1278 165.023 93.7749C165.688 101.868 161.832 107.156 161.832 107.156Z" fill="#EE3123"/>
<path d="M159.377 103.609C159.377 103.609 161.969 100.371 161.97 92.0308L159.947 88.9233C158.315 88.2795 156.283 88.3273 155.557 88.3741C157.07 90.3231 160.243 95.4749 159.377 103.609Z" fill="#EE3123"/>
<path d="M153.473 126.834L152.111 125.834C152.044 127.978 151.809 129.637 151.471 130.962C152.13 129.6 152.812 128.201 153.473 126.834Z" fill="#EE3123"/>
<path d="M149.698 113.396L147.883 114.328C148.381 114.497 148.92 114.752 149.437 115.138L149.698 113.396Z" fill="#EE3123"/>
<path d="M153.546 115.484C152.912 116.786 151.833 117.276 151.15 117.459C151.415 118.18 151.55 118.995 151.55 119.912C151.55 121.077 151.322 121.94 151.014 122.604C151.364 122.761 151.936 123.147 152.093 124.04C154.104 120.487 153.546 115.484 153.546 115.484Z" fill="#EE3123"/>
<path d="M154.359 121.507L156.551 118.023L156.021 114.535C155.821 117.056 154.359 121.507 154.359 121.507Z" fill="#EE3123"/>
<path d="M95.4398 73.1055C94.2049 73.1055 96.3721 75.5582 97.2447 76.4986C98.1922 77.0584 98.9301 77.7234 99.5162 78.7489C100.356 80.2197 100.139 81.3413 102.063 81.3413C103.991 81.3413 103.884 79.912 103.884 79.829C103.884 79.746 103.108 75.6149 101.51 75.6149C100.232 75.6149 100.107 76.3943 98.9332 76.3943C97.0676 76.3943 96.4541 73.1055 95.4398 73.1055Z" fill="#EE3123"/>
<path d="M97.2209 55.1814C100.807 55.1814 100.553 42.6515 108.807 39.0478L108.57 40.134C108.57 40.134 111.672 37.9272 115.088 39.1197L113.606 40.054L115.088 40.5693L113.351 41.3679L115.107 42.7942H111.112C103.731 42.7942 101.425 56.7645 97.1703 56.7645C95.581 56.7645 95.5304 54.4606 95.5304 54.4606C95.5304 54.4606 96.0942 55.1814 97.2209 55.1814ZM104.116 62.6519C103.897 60.2174 103.431 57.219 102.64 56.474C103.072 56.0681 103.526 55.6652 103.986 55.2644L103.345 55.1662C102.912 55.0386 102.572 54.7866 102.345 54.4515L101.788 59.1494L101.622 53.7723L102.086 53.8472L102.019 53.334C102.019 52.1769 104.03 49.2201 106.436 47.3879C108.529 45.4271 111.02 44.3653 111.02 44.3653L109.525 45.9049L110.095 45.8543C112.705 45.8543 113.986 46.6459 114.036 46.6823L114.255 46.818L114.111 47.0225C114.105 47.0407 113.215 48.3303 112.686 49.8254C113.935 49.4691 115.039 49.4489 115.872 49.9054C110.664 49.9054 105.64 57.5511 104.116 62.6519ZM102.475 69.8522C102.475 69.8522 105.546 66.6878 101.694 65.5197C101.694 65.5197 104.46 65.0803 104.46 67.2304C104.46 69.2893 102.475 69.8522 102.475 69.8522ZM100.886 70.0809C100.225 70.0809 100.338 69.0039 99.5623 69.0039C98.7848 69.0039 97.5104 67.7942 99.7728 67.7942C102.716 67.7942 102.555 70.0809 100.886 70.0809ZM121.927 51.436L118.903 56.8597L117.93 64.063L117.672 56.5752L121.927 51.436ZM121.761 40.1431C121.761 39.395 124.792 33.0876 125.139 32.3729L125.522 32.4407C125.522 32.462 125.646 34.775 125.646 37.1711C125.646 39.2563 124.89 41.0916 124.282 42.5685C123.911 43.4704 123.588 44.2529 123.588 44.7783C123.899 45.3654 124.045 46.0112 123.645 46.5184L123.327 46.2997C123.956 45.499 122.613 43.9745 122.041 43.4552L122.319 43.185C122.361 43.2234 122.841 43.6688 123.259 44.2559C123.372 43.7488 123.618 43.1465 123.911 42.4349C124.505 40.9883 125.249 39.1875 125.249 37.1711C125.249 35.6233 125.193 34.1221 125.157 33.2475C123.876 35.9341 122.159 39.6825 122.159 40.1431C122.159 40.6442 122.545 41.3527 122.737 41.6757C123.861 40.9225 123.939 39.5884 123.939 38.1408V37.58H124.342V37.8624C124.342 39.5944 124.348 41.2313 122.779 42.112L122.613 42.2041L122.506 42.0492C122.473 42.0047 121.761 40.9165 121.761 40.1431ZM95.6994 63.9415C95.6994 66.294 95.0556 69.2175 98.6431 70.2591C98.6431 70.2591 99.1067 71.163 98.6431 71.9344C98.6431 71.9344 98.6057 71.1307 97.2432 71.1307C95.8816 71.1307 95.5942 71.3999 95.5942 71.3999C95.5942 71.3999 94.015 70.7632 94.015 69.6214C94.015 68.4765 94.9139 68.109 94.9139 64.5469C94.9139 60.9877 92.5442 60.683 92.5442 60.683C92.5442 60.683 90.3941 62.1954 87.2359 62.1954C84.4764 62.1954 83.7597 61.1537 83.7597 61.1537C83.7597 61.1537 83.2242 60.1253 84.276 59.1403L80.9072 58.8711C80.9072 58.8711 82.5723 58.0198 88.5731 58.3933C88.5731 58.3933 86.6234 56.9609 83.3002 56.9609C79.9789 56.9609 78.9363 58.4105 81.5297 59.8256C84.1201 61.2367 84.2537 62.8118 84.3428 63.7877C84.4299 64.7665 84.4967 66.1746 86.9332 67.5007C89.3707 68.8318 90.9205 68.767 92.4713 71.569C93.9604 74.2596 94.2266 74.9975 95.6934 75.7122C95.0202 75.1433 94.427 74.3689 94.427 73.4174C94.427 72.4861 94.8593 71.9516 95.8209 71.9516C96.7866 71.9516 97.2847 72.4861 98.4963 72.4861C100.774 72.4861 102.105 70.8816 103.98 70.4929C105.86 70.1042 107.438 69.2772 108.203 67.7497C108.965 66.2252 109.662 64.2978 111.773 64.2978C113.885 64.2978 114.679 66.3649 112.239 68.2477C109.798 70.1336 109.745 70.7865 108.998 71.9516C108.251 73.1238 107.106 74.4762 105.729 74.4762C104.347 74.4762 103.617 74.3335 103.617 75.0066C103.617 75.6737 103.683 77.4948 104.928 78.6599C106.174 79.8291 106.423 79.7815 107.272 79.7815C108.12 79.7815 110.278 79.33 110.478 76.8419C110.676 74.3517 110.065 72.8748 112.188 70.8816C114.315 68.8885 114.664 68.2659 114.664 66.5987C114.664 64.9356 113.95 63.7522 111.791 63.7522C107.123 63.7522 108.701 68.4826 104.614 69.76C104.614 69.76 105.91 68.4967 106.886 66.5248C107.871 64.5469 108.965 62.9131 111.708 62.9131C114.449 62.9131 115.48 64.5175 115.48 66.7739C115.48 71.0203 111.791 72.1419 111.624 73.7757C111.458 75.4095 111.225 77.7145 111.56 78.7257C111.56 78.7257 112.96 76.6344 113.923 74.7991C114.881 72.9598 115.575 71.16 117.959 68.4228C120.347 65.6857 122.693 62.5861 122.693 61.7236V58.4439C122.693 58.4439 125.305 60.7863 122.342 64.0276C119.383 67.2689 117.23 70.6883 117.23 70.6883C117.23 70.6883 123.001 66.4064 125.729 64.7837C125.729 64.7837 125.923 60.2467 125.611 59.4551L124.386 60.3176C124.386 60.3176 124.958 50.3417 122.539 48.6836C122.539 48.6836 124.807 48.0337 124.807 46.163C124.807 43.0635 126.346 41.5481 126.346 38.9213C126.346 35.3176 125.576 30.8545 125.576 30.0234C123.645 34.0928 120.364 37.7845 120.364 40.4002C120.364 43.0159 121.827 47.5833 121.827 48.8678C121.827 48.8678 118.989 49.2029 117.349 52.4796C118.236 48.1613 117.129 43.93 115.041 41.4803C115.041 41.4803 116.284 40.5875 116.284 38.651C116.284 38.0102 116.127 37.0972 115.685 36.1659C115.139 38.0548 113.932 38.6925 111.624 38.6925C108.683 38.6925 107.078 35.843 107.078 34.3833C107.078 33.8792 107.289 33.1908 107.579 32.3425C99.4347 33.0076 93.6324 43.022 94.4817 57.3496C88.5123 51.7589 83.9055 46.0416 80.3676 46.0416C78.4291 46.0416 76.7285 48.0813 76.7285 48.7818C76.7285 50.119 78.3623 54.6418 78.3623 54.6418C83.2212 56.3171 95.6994 56.4507 95.6994 63.9415Z" fill="#EE3123"/>
<path d="M90.7523 60.8958L91.3018 60.5194C90.0721 60.0391 89.7179 59.2731 89.6167 58.8173C89.1357 58.7725 88.6207 58.7462 88.104 58.737C88.3831 59.3593 89.0715 60.3086 90.7523 60.8958Z" fill="#EE3123"/>
<path d="M100.787 73.7661C102.149 73.7661 103.563 72.518 104.734 71.856C105.906 71.1919 106.12 70.2222 106.12 70.2222C106.12 70.2222 105.74 70.5815 104.162 70.9135C102.584 71.2425 101.44 72.8257 100.051 72.8257C98.6655 72.8257 97.793 73.2559 97.793 73.92C97.793 74.914 99.4278 73.7661 100.787 73.7661Z" fill="#EE3123"/>
<path d="M98.7454 75.8069C99.8356 75.8069 102.529 73.8198 105.115 73.8198C107.703 73.8198 108.542 71.8064 109.221 70.1514C109.221 70.1514 106.025 71.5635 105.33 72.2123C104.637 72.8622 103.942 73.1791 102.718 73.5921C101.498 73.998 99.6169 74.4576 99.0187 74.6833C98.4204 74.9141 97.6582 74.5051 97.6582 74.5051C97.6582 74.5051 97.6582 75.8069 98.7454 75.8069Z" fill="#EE3123"/>
<path d="M110.527 47.417C109.269 47.417 108.172 48.3665 107.531 49.3028L109.162 50.7625L107.057 51.3375C107.205 51.7495 107.481 52.123 107.697 52.3781C108.395 51.9044 109.091 51.4742 109.767 51.0976C109.545 50.8779 109.411 50.6107 109.411 50.3202C109.411 49.5994 110.218 49.0093 111.215 49.0093C111.636 49.0093 112.016 49.1166 112.323 49.2887C112.434 49.0123 112.549 48.7481 112.668 48.4991C112.377 48.164 111.606 47.417 110.527 47.417Z" fill="#EE3123"/>
<path d="M121.503 156.496C121.031 156.852 120.296 157.401 119.371 158.088L120.307 158.797C120.759 157.931 121.174 157.131 121.503 156.496Z" fill="#EE3123"/>
<path d="M46.1919 128.633L80.0857 130.128C71.1818 140.338 22.931 169.224 22.931 169.224L46.1919 128.633ZM18.4973 127.993L17.4951 123.443L39.0342 123.865V123.351L42.1894 124.099C42.1894 124.099 66.5972 124.585 84.1398 126.27C51.1115 124.65 18.4143 124.526 18.4143 124.526L18.4973 127.993ZM10.7676 176.134C10.7676 176.134 62.8073 151.792 89.9229 131L88.3276 125.896C75.8929 124.615 57.3127 123.829 42.1894 123.367L38.4086 122.542V123.256C25.9648 122.904 16.6843 122.782 16.6843 122.782L17.6804 129.197L36.4903 128.633L21.8681 169.784L10.7676 176.134Z" fill="#EE3123"/>
<path d="M77.0319 143.21L85.5259 142.92L91.8151 147.798L85.4813 143.717H77.618L69.4855 155.206L77.0319 143.21ZM75.556 154.744L82.9577 146.128L86.8469 147.178C83.4062 150.401 75.556 154.744 75.556 154.744ZM94.0269 148.371L85.948 142.418L76.6756 142.697C65.0213 159.497 61.8691 167.843 61.8691 167.843L68.2252 171.067C77.945 168.124 89.4636 161.89 89.4636 161.89C79.2194 164.972 66.0579 166.722 66.0579 166.722L73.4616 158.036C81.0891 155.236 94.0269 148.371 94.0269 148.371Z" fill="#EE3123"/>
<path d="M108.069 159.512C108.069 159.512 119.899 148.619 123.82 143.575L127.277 144.695L123.955 144.761C118.834 151.294 108.069 159.512 108.069 159.512ZM95.4993 164.803C95.4993 164.803 98.1039 151.036 102.733 143.254L107.408 144.643L103.363 144.598C98.6546 151.973 95.4993 164.803 95.4993 164.803ZM129.175 144.586L123.6 142.661C116.607 151.875 100.755 164.061 100.755 164.061C102.25 153.625 109.504 144.517 109.504 144.517L102.326 142.554C95.8202 155.093 94.5488 165.95 94.5488 165.95L96.3426 170.366C96.3426 170.366 119.73 155.227 129.175 144.586Z" fill="#EE3123"/>
<path d="M122.094 163.872C122.094 163.872 130.267 153.536 134.389 143.575L140.036 144.945H135.386C130.397 155.529 122.094 163.872 122.094 163.872ZM126.388 165.657C133.701 158.809 142.162 144.572 142.162 144.572L134.009 142.748C127.894 156.692 119.656 165.408 119.656 165.408L124.528 170.388C135.606 165.657 141.011 160.18 141.011 160.18C133.565 164.574 126.388 165.657 126.388 165.657Z" fill="#EE3123"/>
<path d="M146.061 160.26C146.061 160.26 154.036 130.545 162.541 120.417L170.783 121.499L163.165 122.658C157.669 130.794 146.061 160.26 146.061 160.26ZM161.436 119.42C149.075 138.222 140.836 176.695 140.836 176.695C140.836 176.695 162.1 135.732 172.735 121.164L161.436 119.42Z" fill="#EE3123"/>
<path d="M163.981 152.513C163.981 152.513 174.031 145.057 175.362 142.833L177.667 136.997C177.667 136.997 179.609 136.27 185.695 135.917C181.555 136.896 178.891 137.807 178.891 137.807L176.3 143.103C172.987 146.576 163.981 152.513 163.981 152.513ZM174.262 166.484C184.776 156.638 180.635 147.661 179.235 145.3C183.34 142.513 187.516 139.277 191.478 135.567C182.616 134.529 176.804 136.371 176.804 136.371L174.462 142.58C169.413 149.179 150.801 159.512 150.801 159.512C150.801 159.512 162.076 156.036 175.09 147.987C175.701 150.043 177.062 157.928 165.822 166.795C165.822 166.795 158.446 165.674 154.858 162.312C154.858 162.312 158.313 171.467 167.818 171.467C177.32 171.467 191.608 159.823 191.608 159.823C183.969 164.554 174.262 166.484 174.262 166.484Z" fill="#EE3123"/>
<path d="M137.816 127.166C137.816 127.166 138.92 127.195 139.296 127.874C139.676 128.551 141.126 127.195 141.126 126.128C141.126 125.066 140.435 121.873 142.769 120.78C141.159 123.144 142.135 124.74 142.135 126.131C142.135 128.702 139.172 129.144 139.172 129.144C140.242 132.397 137.182 132.634 137.182 135.354C137.182 138.073 142.579 141.561 142.579 141.561C142.579 141.561 136.422 139.58 136.422 135.469C136.422 131.363 139.204 131.421 137.816 127.166ZM143.706 142.483C143.706 142.483 143.89 141.027 143.89 138.996C143.89 136.961 147.271 133.737 148.665 132.43C150.065 131.125 150.28 127.554 150.28 125.577C150.28 123.599 149.223 124.589 149.223 125.52C149.223 126.623 145.998 127.32 145.998 125.577C145.998 124.007 149.596 124.007 149.596 120.058C149.596 115.41 146.464 116.342 146.464 116.342C147.475 117.284 146.464 120.959 145.752 122.208C145.041 123.456 143.086 124.123 143.086 122.323C143.086 120.522 144.854 120.639 144.854 117.88C144.854 117.492 144.827 117.163 144.78 116.887C144.525 115.372 143.653 115.421 142.983 115.71C142.519 115.911 142.155 116.222 142.155 116.222C142.155 116.222 143.086 116.222 143.581 117.15C144.08 118.085 142.87 119.855 141.411 121.22C139.957 122.584 140.355 124.648 140.355 125.982C140.355 127.32 139.489 127.554 138.125 126.273C136.761 124.994 136.02 126.448 136.02 126.448C139.489 128.367 136.02 130.748 136.02 135.683C136.02 141.552 143.706 142.483 143.706 142.483Z" fill="#EE3123"/>
<path d="M67.0043 68.4491C68.6249 69.0423 70.4622 69.7155 70.4622 71.907C70.4622 72.6956 70.031 73.5742 69.6878 74.1492C70.7143 73.722 72.4908 72.7138 72.4908 70.8806C72.4908 69.0575 71.0068 68.3428 69.9227 67.8205L69.3295 67.5239C68.5925 67.1058 67.8475 65.9812 67.8475 65.0003L67.8597 64.7898C67.9113 64.3504 68.1552 63.7694 69.0167 63.5022C70.2739 63.1084 71.0878 62.5324 71.438 61.8005L71.6131 61.0464C70.9845 61.8208 69.621 62.2247 68.2635 62.2247C66.6632 62.2247 64.1973 63.817 64.1973 65.9377C64.1973 67.4227 65.498 67.9005 67.0043 68.4491Z" fill="#EE3123"/>
<path d="M58.9684 73.5175C59.1385 73.5175 59.4756 73.4021 59.8005 73.2887C60.5445 73.0336 61.3857 72.7401 61.9324 73.0964C62.2199 73.2887 62.3666 73.6268 62.3666 74.1077L62.3272 75.0066C62.3059 75.291 62.2867 75.5633 62.2867 75.8164C62.2867 76.3347 62.3666 76.774 62.6825 77.0908C62.9851 77.3935 63.5054 77.5747 64.2515 77.6395C63.9154 77.2659 63.5591 76.6788 63.5591 75.8214C63.5591 75.374 63.8111 74.7869 64.0602 74.2139C64.2768 73.7129 64.5005 73.1976 64.5005 72.8859C64.5005 71.9485 64.1553 70.834 62.5185 70.834C61.3999 70.834 60.8573 71.4383 60.3775 71.9758C60.0465 72.3463 59.7337 72.6935 59.2812 72.6935L58.7134 72.4384L58.519 71.744L58.522 71.6823C58.2386 72.0113 57.9805 72.405 57.9805 72.737C57.9805 73.3363 58.2123 73.5175 58.9684 73.5175Z" fill="#EE3123"/>
<path d="M74.4835 69.997C74.4835 72.0428 73.779 73.1401 73.2111 74.0248C72.8437 74.6028 72.5511 75.0563 72.5511 75.6262C72.5511 76.3024 72.8923 77.0434 73.2557 77.8258C73.6838 78.7571 74.1707 79.8069 74.1707 80.9548C74.1707 82.1675 73.9673 82.785 73.5077 82.9661C72.9945 83.1646 72.3973 82.6868 71.9923 82.3072C71.4154 81.7615 71.0155 81.0438 70.6268 80.3474C70.4203 79.9759 70.2067 79.5963 69.9668 79.241C70.152 80.0235 70.3565 81.0438 70.3565 81.7879C70.3565 82.3072 70.6562 83.2202 71.0064 84.276C71.4852 85.7327 72.0814 87.5477 72.0814 89.0276C72.0814 90.3648 71.8142 91.533 71.555 92.6546L71.4245 93.2235C71.2554 94.0039 71.1157 94.754 71.1157 95.5102L71.1218 95.6286C71.1542 96.0649 71.3516 96.5397 71.6735 97.0316C71.9802 97.5033 72.3973 97.9923 72.8821 98.4822C74.4137 100.024 76.6113 101.569 78.1459 102.566C79.141 102.726 80.216 102.993 81.3315 103.459C82.5857 103.304 84.2347 103.096 84.5708 103.058C84.3562 102.42 83.8723 100.789 83.8723 99.0541C83.8723 96.4415 84.7905 94.7095 85.7622 92.8712C86.982 90.5663 88.3638 87.9506 88.3638 82.9125C88.3638 79.3392 87.6683 76.8591 87.1673 75.5401C87.0367 77.429 86.2896 78.9292 85.0577 79.6651C84.3339 80.0954 83.5302 80.1753 82.8864 79.8878C83.0959 80.3616 83.2265 80.9376 83.2265 81.634C83.2265 82.539 82.7224 83.2121 82.2355 83.864C81.7779 84.4785 81.3427 85.0565 81.3427 85.8066C81.3427 86.1507 81.5046 86.4149 81.7952 86.5516C82.1363 86.7146 82.5827 86.664 82.9046 86.4352C83.3227 86.1447 83.4816 85.6173 83.351 84.9522L83.2984 84.6738L83.597 84.6587C83.6172 84.6556 84.1244 84.6323 84.5505 85.0059C84.921 85.3349 85.1063 85.845 85.1063 86.5273C85.1063 86.996 85.2055 87.3725 85.3128 87.7754C85.579 88.7816 85.8523 89.8192 84.6204 92.2092C82.8671 95.6053 81.8782 97.8799 82.9431 100.798L83.0615 101.124H78.3433L78.2735 101.083C78.1115 100.976 74.3216 98.4255 74.3216 96.1661V93.0726C74.3216 91.3973 73.618 90.4539 73.0552 89.6947C72.707 89.223 72.4033 88.8171 72.4033 88.3636V88.3393L72.4064 88.319C72.4064 88.3069 72.6341 87.0375 72.6341 86.3107L73.1504 86.2307C73.1595 86.255 74.107 88.7604 75.5849 88.7604C75.8714 88.7604 76.0596 88.6925 76.1497 88.565C76.4301 88.1733 75.9766 87.1711 75.759 86.6933L75.6456 86.4352L75.4401 86.0971C75.0545 85.5343 74.4684 84.6799 75.9129 82.9216C76.8452 81.7858 77.246 80.6764 77.0162 79.8818C76.8857 79.4303 76.5668 79.1043 76.0627 78.915L75.4219 78.6681L76.0718 78.4494C76.1234 78.4312 77.3645 78.0222 78.1581 78.5435C78.564 78.8077 78.7715 79.2582 78.7715 79.8696C78.7715 80.6167 78.4891 81.471 78.237 82.2242C77.9607 83.0512 77.6772 83.9086 77.9293 84.2295C78.0214 84.3479 78.2158 84.4066 78.5033 84.4066C78.9527 84.4066 79.2969 84.2851 79.552 84.0422C80.1583 83.4642 80.1371 82.3102 80.1229 81.6219V81.3789V81.3081C80.1229 80.4719 80.1229 79.078 78.9689 77.9979L78.4941 77.5505L79.1663 77.5708C79.1896 77.5708 80.624 77.6305 81.78 78.499C81.7172 78.25 81.6808 77.9746 81.6808 77.6781C81.6808 75.6049 82.691 74.5785 83.5879 73.6715C84.3279 72.9214 84.9686 72.2655 84.9686 71.1206C84.9686 66.0582 80.7201 64.7149 79.0651 64.3799C79.8425 65.4033 81.4287 67.8702 81.4287 70.9282C81.4287 72.9538 80.3658 76.1657 77.5082 76.1657C76.9069 76.1657 76.4544 75.9997 76.1619 75.6728C75.5434 74.9763 75.7985 73.6836 76.0434 72.4345C76.168 71.7907 76.3026 71.1236 76.3026 70.5871C76.3026 68.3004 75.7094 66.7142 74.5473 65.878C73.6636 65.2403 72.6301 65.1775 71.9863 65.2191C72.87 65.8861 74.4835 67.4521 74.4835 69.997Z" fill="#EE3123"/>
<path d="M124.019 66.8185L123.156 78.3961L126.478 73.2923C126.478 70.7566 125.35 69.1225 125.35 65.5727L124.019 66.8185Z" fill="#00703D"/>
<path d="M120.005 82.4114V69.3237L117.926 83.6544L118.059 71.0294L114.602 88.4617C114.602 88.4617 117.437 86.3734 120.005 82.4114Z" fill="#00703D"/>
<path d="M114.95 93.3364C103.85 103.183 101.033 97.2417 101.033 97.2417C101.033 97.2417 105.113 100.095 114.95 93.3364ZM78.2474 64.1932L77.8192 63.7184L78.4741 63.7842C78.544 63.7903 85.5013 64.5161 85.5013 71.1242C85.5013 72.4614 84.7644 73.2115 83.9768 74.0092L83.7339 74.2582C84.5822 75.2613 85.4345 76.2574 86.298 77.2596C86.5642 76.5327 86.7322 75.5751 86.6431 74.3179L87.1412 74.1843C87.2019 74.2825 88.3377 76.2635 88.7517 80.0889C92.1519 83.98 95.626 87.8206 99.0768 91.4445C101.661 91.8413 103.064 94.3092 102.204 93.8496C101.633 93.5409 100.601 93.5024 99.8907 93.5176C100.419 94.0511 100.765 94.7425 100.765 95.6434C100.765 97.8916 99.5141 98.4251 98.7327 99.6266C99.2337 99.9496 100.309 100.309 102.62 100.309C106.803 100.309 111.525 97.5717 114.319 95.5786C117.109 93.5854 119.698 91.4091 126.543 88.5474C133.388 85.6816 142.094 80.8865 144.023 80.264C145.953 79.6414 154.292 77.2454 155.855 75.7827L150.339 73.1285L136.769 80.0352L121.958 88.9179L136.581 76.8415H138.043L139.835 75.5336L135.701 74.8483L126.083 82.6924L119.499 89.3531L129.401 75.2846H131.33V74.4131C131.33 74.4131 129.337 73.167 129.802 70.4925C122.05 83.4789 113.453 94.1877 107.337 94.1877C103.441 94.1877 100.516 90.4535 100.516 89.2914C100.516 88.7934 103.126 93.4407 107.16 93.4407C110.822 93.4407 113.326 89.9018 113.326 89.9018L107.381 81.9697L106.181 82.3158C106.181 82.3158 106.51 85.2403 103.482 89.6234C102.895 90.4717 102.735 89.422 103.138 88.6213C103.536 87.8206 105.11 84.0661 105.11 82.4434C100.726 83.9061 99.4625 81.8208 98.6972 79.8601C97.932 77.8973 96.5705 77.0581 95.0429 76.2189C93.5134 75.3767 92.7512 73.7278 91.7187 71.9219C90.6882 70.118 89.1607 69.6797 86.6016 68.3425C84.0436 67.0043 83.91 64.7651 83.5132 63.0514C83.1113 61.3376 77.3606 58.1672 75.3068 56.2449H75.8989L73.8582 54.3357H75.2551L75.0982 53.9379L77.4659 54.3357C77.4659 54.3357 76.1702 51.1238 75.6317 47.4017C72.3428 45.6667 70.2788 43.3212 68.9963 41.0436L61.9721 39.0474L54.9824 37.772C54.9824 37.772 66.4737 53.5826 80.8985 70.8833C80.8763 67.1318 78.2747 64.2195 78.2474 64.1932Z" fill="#00703D"/>
<path d="M129.889 49.1755L126.609 60.0027C126.609 64.4132 127.253 67.4854 127.253 71.5598C127.253 71.5598 132.831 63.5649 138.652 52.7701C143.226 41.382 151.542 19.8784 149.16 19.8784C146.155 19.8784 139.43 25.7557 130.367 28.6143C128.225 29.7116 126.897 30.3321 126.897 30.3321L127.253 38.6206L129.889 49.1755Z" fill="#00703D"/>
<path d="M17.6551 112.542H18.4264C18.7757 112.542 19.0692 112.768 19.1583 113.068L19.1887 113.26V116.955C19.1887 117.346 18.8455 117.669 18.4264 117.669H18.1855H17.6551V112.542ZM20.5441 119.449C22.1202 119.449 23.4129 118.239 23.4129 116.759V113.452C23.4129 112.839 23.1892 112.272 22.8156 111.818C22.2893 111.181 21.4663 110.763 20.5441 110.763H13.2305V119.449H20.5441Z" fill="#00703D"/>
<path d="M33.0336 119.449V118.405V117.907H30.3309H29.7994V115.707H32.2137V114.651V114.153H30.3309H29.7994V112.326H33.0336V111.261V110.76H25.4355V119.449H33.0336Z" fill="#00703D"/>
<path d="M41.453 119.449V118.405V117.907H39.4599H38.9264V111.261V110.76H34.5625V119.449H41.453Z" fill="#00703D"/>
<path d="M43.356 112.284V119.449H47.5195V112.284H50.2263V111.261V110.76H40.6543V112.284H43.356Z" fill="#00703D"/>
<path d="M55.188 111.795L55.4887 113.978L55.8167 116.363H55.1587H54.5594L55.188 111.795ZM50.4213 119.45H54.1333L54.3499 117.875H56.0232L56.093 118.373L56.2428 119.45H60.627L58.3311 111.262L58.1925 110.761H52.1826L49.7461 119.45H50.4213Z" fill="#00703D"/>
<path d="M80.7521 45.3376C79.6457 37.3721 86.7801 18.1572 106.454 18.1572C112.833 18.1572 115.582 21.3104 115.582 21.3104C115.582 21.3104 112.833 19.7323 109.378 19.7323C94.1343 19.7323 85.8043 35.8355 87.2438 49.0385L93.5269 55.1182C93.0653 46.7346 95.5403 32.2358 107.94 31.3187C108.891 28.5937 110.137 24.658 108.749 20.4176L108.553 19.8214L109.135 20.1301C109.206 20.1655 116.068 23.9079 116.068 32.3745C116.068 32.8402 116.056 33.2734 116.039 33.6763C117.86 35.8091 117.548 38.9381 116.142 41.2835L116.501 41.906L119.544 39.7114C119.544 39.7114 119.389 37.4308 124.627 30.6223C124.627 30.6223 124.17 29.365 123.13 27.6239C123.468 29.1687 123.565 30.765 123.565 30.765C116.987 27.4316 116.199 21.4521 116.199 21.4521C116.199 21.4521 117.427 21.5797 119.315 22.8045C116.311 19.9105 111.86 17.3271 105.57 17.3271C101.884 17.3271 98.6227 17.7989 95.7448 18.638C79.4604 26.387 78.1617 40.1599 78.3793 45.8681C78.9938 45.5573 79.7671 45.3376 80.7521 45.3376Z" fill="#00703D"/>
<path d="M109.051 81.5304C115.089 80.3055 114.614 75.0954 116.96 71.4087C114.133 74.6469 114.561 78.9471 109.051 81.5304Z" fill="#00703D"/>
<path d="M125.693 58.1853L128.152 48.7399L126.814 41.6904C126.814 41.6904 125.789 43.9326 125.789 45.8539C125.789 47.7823 124.389 49.0628 124.389 49.0628C124.389 49.0628 125.773 50.813 125.693 58.1853Z" fill="#00703D"/>
<path d="M66.0782 91.2939C65.2319 90.2178 62.3398 92.9044 62.3398 92.9044C63.6436 94.9775 65.2046 99.3455 66.9234 99.9862C66.9234 99.9862 67.9347 96.1244 66.8951 96.1244C65.8605 96.1244 64.9879 97.5041 64.9879 96.5071C64.9879 95.508 66.9234 92.3679 66.0782 91.2939Z" fill="#00703D"/>
<path d="M149.484 135.057C147.912 138.295 146.569 141.066 146.02 142.196C146.045 138.607 147.028 137.61 148.281 136.356C148.677 135.956 149.086 135.541 149.484 135.057ZM182.35 170.306C182.35 170.306 176.151 173.833 166.798 173.833C151.492 173.833 151.006 163.192 151.006 163.192L139.585 180.488L140.314 164.271L125.006 172.409L118.079 165.923L123.974 154.601L123.06 153.747L95.9089 174.002L92.3214 167.913L93.5361 162.226L68.1454 172.863L60.4289 168.314L70.4058 146.457C39.9041 165.621 7.24937 178.064 7.24937 178.064L17.8812 170.718L32.6057 130.47H16.9429L14.8687 121.869C59.3508 121.869 89.3919 124.527 89.3919 124.527L91.709 131.418C87.0961 135.137 82.1825 138.702 77.1374 142.088L86.0018 141.709L94.843 148.183L96.1063 150.609L100.424 140.773L111.059 143.513C104.881 152.228 102.352 161.817 102.352 161.817L122.093 141.335L131.397 144.366L133.034 141.75L138.665 143.121C138.665 143.121 134.609 140.422 134.609 135.801C134.609 133.803 136.252 131.074 136.252 129.046C136.252 126.979 134.644 126.594 134.644 126.594C134.644 126.594 135.726 124.075 139.538 125.718C139.538 119.808 142.865 120.576 142.865 118.023C142.865 116.795 140.884 115.813 140.884 115.813C140.884 115.813 141.744 115.258 142.983 115.71C143.654 115.422 144.526 115.375 144.781 116.89C145.709 117.314 146.358 116.03 145.964 115.255C145.964 115.255 150.22 115.117 150.22 119.909C150.22 123.69 147.628 123.357 148.132 125.105C149.89 123.251 150.801 123.385 150.801 124.527C150.801 138.162 144.689 133.055 144.689 142.332L142.693 144.073L146.083 145.07L159.324 117.785L176.276 120.401L156.563 151.614L157.444 152.439L171.472 143.335L174.695 136.164C185.935 132.863 193.951 134.74 193.951 134.74L182.165 146.238C187.726 155.577 180.223 162.963 180.223 162.963L193.951 158.411L182.35 170.306ZM78.097 115.968C78.097 115.968 83.5461 120.235 87.8391 123.15C87.1285 123.094 86.1932 123.022 85.0483 122.936C81.3474 120.422 78.097 115.968 78.097 115.968ZM67.6666 107.851C74.0561 109.146 70.1021 112.142 76.5786 115.114C67.7334 112.515 73.0286 110.214 67.6666 107.851ZM86.2478 109.547C86.9432 110.199 87.3117 111.602 88.4201 111.602C89.5255 111.602 89.6804 112.865 90.8759 112.865C92.0724 112.865 92.3154 111.554 92.3154 110.769C92.3154 109.98 91.0318 108.859 91.0318 107.634C91.0318 106.412 93.2942 104.814 93.2942 102.842C93.2942 100.87 92.0724 99.146 93.6455 97.1569C95.2196 95.1668 94.9979 94.9562 96.085 95.9736C96.085 95.9736 95.2196 95.8278 95.2196 96.6791C95.2196 97.5335 93.5787 98.7138 93.9127 100.271C94.2447 101.828 94.0443 102.326 95.1062 101.554C95.1062 101.554 95.7287 102.388 94.2225 103.796C92.7162 105.208 92.5158 106.184 92.5158 107.159C92.5158 108.696 93.8682 108.696 92.9389 115.707C92.4955 115.086 91.4316 114.277 90.6755 114.277C87.4848 114.277 87.91 111.685 85.9816 111.685C83.7374 112.664 83.2363 111.828 83.2363 111.828C83.2363 111.828 85.3611 110.374 86.2478 109.547ZM96.5639 125.908C96.5639 125.544 97.068 125.544 97.5721 125.65C98.0792 125.76 98.5631 125.609 98.5631 124.939C98.5631 124.939 98.6532 126.273 97.8494 126.273C97.0447 126.273 96.4495 127.239 96.4495 127.239C96.4495 127.239 96.5639 126.273 96.5639 125.908ZM97.4607 123.411C97.4607 123.411 97.9193 124.164 96.6307 124.597C96.6307 124.597 96.2642 123.586 97.4607 123.411ZM94.7094 125.36C94.7094 125.36 94.5545 123.616 94.1354 123.222C93.7123 122.827 94.2225 121.537 92.7385 122.204C91.2525 122.869 89.9477 120.817 91.3193 119.073C91.3193 119.073 91.2322 122.1 93.8459 120.751C93.8459 120.751 93.7376 122.887 95.1062 122.887C96.4829 122.887 94.7094 125.36 94.7094 125.36ZM90.8557 115.003C93.7123 118.364 89.3484 117.471 90.1238 116.993C90.9012 116.52 90.8557 115.003 90.8557 115.003ZM188.984 158.735C186.854 159.444 184.852 160.108 183.577 160.532C183.912 159.933 184.241 159.269 184.529 158.533C185.081 157.116 185.54 155.324 185.54 153.275C185.54 151.223 185.072 148.91 183.785 146.454C184.672 145.585 191.525 138.907 194.784 135.724C195.822 134.71 196.495 134.052 196.495 134.052L194.274 133.533C193.93 133.453 185.76 131.611 174.298 134.977L173.708 135.149C173.708 135.149 170.671 141.908 170.401 142.516C170.22 142.631 169.137 143.338 167.67 144.286C165.131 145.932 161.442 148.328 159.306 149.714C161.561 146.14 173.393 127.409 177.213 121.359C177.963 120.173 178.405 119.47 178.405 119.47L167.385 117.768L161.063 116.792L175.326 97.5092L174.143 92.462L169.479 78.52L148.096 81.1631C136.349 84.5703 129.134 88.5172 129.134 88.5172C129.134 88.5172 134.941 87.758 137.064 87.758C139.187 87.758 149.68 87.0555 150.801 87.0555C151.925 87.0555 155.919 86.0624 161.913 87.7023C167.907 89.3361 172.904 94.8348 172.904 96.6498C172.904 98.4617 172.028 101.092 171.217 101.092C170.404 101.092 171.217 99.8637 171.217 97.2925C171.217 94.7153 167.907 93.4905 167.907 93.4905C171.403 103.55 159.105 114.716 159.105 114.716L158.915 116.46L158.535 116.403C158.535 116.403 156.139 121.347 153.476 126.834C152.812 128.201 152.132 129.597 151.471 130.962C151.809 129.637 152.043 127.978 152.112 125.834C152.123 125.416 152.132 124.983 152.132 124.527L152.088 124.04C151.94 123.147 151.367 122.762 151.015 122.604C151.323 121.94 151.551 121.08 151.551 119.909C151.551 118.996 151.415 118.183 151.15 117.459C150.855 116.664 150.406 115.982 149.799 115.43L149.437 115.14C148.92 114.754 148.381 114.496 147.883 114.327C147.432 114.179 147.016 114.099 146.679 114.055C146.281 114.004 145.997 114.01 145.92 114.01L144.084 114.07C144.084 114.07 144.285 114.58 144.479 115.063C142.622 113.859 140.872 114.31 140.128 114.791L138.339 115.947L140.258 116.916C140.913 117.242 141.519 117.806 141.534 118.023C141.534 118.495 141.365 118.681 140.769 119.235C140.021 119.938 138.992 120.908 138.499 122.999C138.422 123.316 138.36 123.657 138.31 124.034L137.794 123.957C136.99 123.871 136.246 123.945 135.567 124.197C134.033 124.773 133.47 125.994 133.41 126.131L132.859 127.418L134.271 127.791C134.422 127.836 134.92 128.077 134.92 129.046C134.92 129.867 134.532 130.986 134.157 132.068C133.725 133.313 133.277 134.613 133.277 135.801C133.277 137.86 133.974 139.568 134.823 140.897L134.413 140.799C133.653 140.615 132.399 140.309 132.399 140.309C132.399 140.309 132.236 140.564 132.01 140.926C131.643 141.514 131.103 142.374 130.801 142.854C129.175 142.323 121.696 139.886 121.696 139.886C121.696 139.886 119.691 141.967 116.995 144.767C116.43 145.357 115.83 145.971 115.214 146.614C114.377 147.483 113.499 148.391 112.628 149.301C112.286 149.654 111.945 150.004 111.607 150.357L110.825 151.173C110.276 151.738 109.735 152.299 109.211 152.845C108.701 153.373 108.203 153.889 107.725 154.384C106.921 155.218 106.174 155.992 105.521 156.671C105.866 155.802 106.263 154.859 106.711 153.862C107.007 153.201 107.333 152.51 107.681 151.81C107.96 151.24 108.256 150.662 108.564 150.075C108.758 149.714 108.956 149.355 109.157 148.99C109.377 148.598 109.603 148.201 109.84 147.807C110.287 147.045 110.765 146.279 111.266 145.52C111.56 145.078 111.856 144.639 112.168 144.2L112.835 143.261L113.185 142.768L111.189 142.254L103.262 140.215L99.711 139.301L99.6442 139.283C99.6442 139.283 99.546 139.503 99.383 139.877C99.1694 140.366 98.8415 141.113 98.4588 141.976L98.1106 142.771C97.9608 143.115 97.8069 143.468 97.648 143.823C97.4061 144.381 97.1601 144.939 96.9232 145.479C96.7683 145.832 96.6155 146.172 96.4738 146.502C96.3057 146.885 96.1458 147.246 96.002 147.569L95.9028 147.383L86.4361 140.446L86.1456 140.455C85.6415 140.478 84.53 140.522 83.3092 140.576C83.3608 139.998 83.4722 139.529 83.625 139.135C84.4571 138.541 85.2831 137.946 86.094 137.347L86.1608 137.35V139.342C98.4781 133.204 101.639 123.07 101.639 123.07L99.3678 123.379L99.1188 121.872L96.7643 122.681L97.5053 121.484C96.9293 120.944 96.4768 119.861 96.4768 119.861C96.4768 119.861 99.2008 116.996 99.2008 113.595C99.2008 107.323 96.7228 107.634 96.7228 100.478C96.7228 97.8827 99.1188 98.7371 99.1188 96.0292C99.1188 94.5199 96.8888 93.0106 95.1527 93.0106C93.4187 93.0106 92.6565 94.5027 91.1472 95.9108C89.6409 97.3259 90.3627 99.5114 90.3627 102.258C90.3627 105.004 89.3707 106.667 86.8096 106.667C84.2506 106.667 81.5266 105.547 80.2441 104.888C78.9656 104.233 76.9805 103.767 74.9995 103.767C73.0165 103.767 69.4239 102.293 66.7404 101.098C64.0559 99.8941 64.2198 99.0488 63.3118 97.0344C62.4028 95.024 60.8753 91.5813 59.3458 91.5813C57.8183 91.5813 57.7363 92.9337 57.7363 94.0928C57.7363 96.3795 59.5948 101.018 60.8753 102.682C62.1538 104.342 65.4163 106.205 65.4163 106.205L61.2134 104.648C58.7779 103.527 58.3345 98.8383 57.8911 98.8383C57.4478 98.8383 57.2828 101.16 57.2828 103.286C57.2828 105.205 62.8371 108.794 67.284 110.926C67.284 110.926 70.3805 112.741 71.5962 114.153C72.8079 115.564 73.5297 116.824 76.3144 118.332C76.3144 118.332 71.7906 117.717 70.5121 115.535C69.2326 113.355 67.9247 112.249 66.1836 111.451C64.4476 110.65 59.4966 107.735 58.7748 106.415C58.7748 106.415 58.8265 107.904 60.0867 109.087C61.3501 110.268 62.087 111.513 63.8251 113.538C65.5611 115.564 66.0207 116.086 67.7274 116.641C69.3915 117.181 70.7216 117.513 74.2808 122.252C73.5904 122.214 72.8808 122.172 72.1449 122.133C58.9388 121.413 38.9567 120.623 14.8687 120.623H13.2045L15.88 131.715H30.7482C30.654 131.973 30.4749 132.463 30.2289 133.133C27.5838 140.363 16.9914 169.313 16.7606 169.948L1.12109 181.347L7.75044 179.218C7.82636 179.189 9.67273 178.478 12.8401 177.17C22.6976 173.094 45.3643 163.192 67.448 149.77C66.8497 151.08 66.0014 152.943 65.0661 154.992C62.2945 161.065 58.7627 168.8 58.7627 168.8L68.0391 174.272C68.0391 174.272 68.3894 174.127 68.9967 173.872C72.9992 172.195 88.3685 165.754 91.7303 164.346C91.4691 165.562 91.1442 167.086 90.9974 167.766L90.9215 168.115L95.502 175.897C95.502 175.897 96.3493 175.266 97.731 174.233C101.97 171.072 111.292 164.117 117.106 159.782C117.942 159.156 118.707 158.586 119.371 158.088C120.293 157.4 121.029 156.848 121.503 156.499C121.174 157.134 120.759 157.931 120.309 158.797C119.891 159.601 119.442 160.461 119.007 161.303C118.552 162.166 118.117 163.011 117.731 163.747C116.995 165.161 116.471 166.175 116.471 166.175L124.781 173.961C124.781 173.961 125.403 173.629 126.393 173.103C129.567 171.419 136.513 167.724 138.882 166.463C138.849 167.196 138.791 168.513 138.719 170.117C138.461 175.82 138.043 185.191 138.043 185.191C138.043 185.191 140.03 182.181 142.45 178.519C145.456 173.964 149.131 168.397 150.475 166.36C150.949 167.531 151.714 168.895 152.924 170.188C154.579 171.958 157.07 173.601 160.825 174.459C162.541 174.848 164.514 175.075 166.798 175.075C176.413 175.075 182.774 171.52 183.037 171.368L183.204 171.273L193.103 161.128L198.518 155.577C198.518 155.577 193.47 157.252 188.984 158.735Z" fill="#00703D"/>
<path d="M146.02 142.193C146.568 141.063 147.911 138.298 149.484 135.057C149.086 135.541 148.677 135.959 148.279 136.356C147.028 137.611 146.043 138.607 146.02 142.193Z" fill="#231F20"/>
<path d="M161.834 107.156C161.834 107.156 165.689 101.868 165.024 93.7749C169.414 99.1278 164.093 106.723 161.834 107.156ZM155.556 88.3744C156.287 88.3299 158.316 88.2803 159.948 88.9231L161.97 92.0318C161.97 100.374 159.378 103.609 159.378 103.609C160.244 95.4745 157.071 90.32 155.556 88.3744ZM154.36 121.507C154.36 121.507 155.82 117.058 156.021 114.535L156.552 118.019L154.36 121.507ZM114.316 95.5777C111.525 97.5709 106.807 100.308 102.62 100.308C100.31 100.308 99.235 99.9497 98.734 99.6268C99.5144 98.4222 100.766 97.8948 100.766 95.6405C100.766 94.7416 100.42 94.0543 99.891 93.5168C100.603 93.4996 101.631 93.5441 102.205 93.8488C103.063 94.3094 101.661 91.8384 99.0761 91.4447L98.3807 91.391C98.3807 91.391 94.5492 87.5231 88.8583 81.3938C88.8299 80.9373 88.7945 80.5041 88.752 80.086C88.339 76.2626 87.2002 74.2847 87.1425 74.1845L86.6444 74.3201C86.7295 75.5753 86.5665 76.5329 86.2972 77.2597C86.1697 77.6069 86.0188 77.8975 85.8619 78.1434C84.9529 77.1524 84.0146 76.1179 83.0488 75.05C83.2604 74.7625 83.4953 74.5043 83.7352 74.2584L83.9781 74.0093C84.7616 73.2147 85.5026 72.4616 85.5026 71.1234C85.5026 64.5163 78.5453 63.7895 78.4754 63.7834L77.8185 63.7217L78.2477 64.1934C78.276 64.2197 80.8775 67.132 80.8988 70.8835V70.928C80.8988 71.3876 80.8411 71.916 80.7135 72.4464C79.2954 70.8541 77.8357 69.193 76.3466 67.4853C76.0186 66.6218 75.5236 65.9517 74.8677 65.4769L74.3464 65.1662C73.5042 64.1873 72.663 63.1993 71.8117 62.1941L71.9281 61.9897C72.417 60.946 71.9736 60.0056 71.9524 59.9641L71.4462 60.0674C71.4462 60.4682 71.2205 60.8002 70.8561 61.0584C63.5009 52.2891 56.0071 42.6806 50.2696 33.7595C50.2696 33.7595 56.1984 36.9036 61.9734 39.0476L68.9945 41.0428C70.2791 43.3234 72.3411 45.6638 75.633 47.4049C76.1705 51.126 77.4642 54.3349 77.4642 54.3349L75.0975 53.9411L75.2564 54.3349H73.8595L75.9002 56.245H75.308C77.3609 58.1663 83.1126 61.3368 83.5094 63.0515C83.9113 64.7623 84.0419 67.0044 86.6019 68.3416C89.1599 69.6799 90.6895 70.1182 91.7189 71.921C92.7474 73.7279 93.5147 75.3759 95.0422 76.2181C96.5717 77.0613 97.9322 77.8975 98.6965 79.8603C99.4638 81.821 100.727 83.9053 105.113 82.4436C105.113 84.0683 103.538 87.8228 103.138 88.6235C102.734 89.4211 102.894 90.4749 103.481 89.6236C106.507 85.2405 106.18 82.316 106.18 82.316L107.385 81.9658L113.328 89.905C113.328 89.905 110.824 93.4398 107.159 93.4398C103.126 93.4398 100.514 88.7925 100.514 89.2916C100.514 90.4506 103.44 94.1869 107.337 94.1869C113.452 94.1869 122.047 83.4781 129.805 70.4917C129.336 73.1671 131.329 74.4122 131.329 74.4122V75.2818H129.402L119.5 89.3533L126.083 82.6926L135.25 73.4161L139.838 75.5308L138.043 76.8417H136.582L121.957 88.917L136.768 80.0354L150.404 71.8593L155.855 75.7798C154.292 77.2445 145.953 79.6406 144.025 80.2641C142.094 80.8867 133.39 85.6818 126.546 88.5435C119.698 91.4082 117.106 93.5856 114.316 95.5777ZM94.9005 91.7848C93.872 91.7848 92.4842 92.796 91.0994 94.0239C91.9011 92.3547 92.6371 90.3706 92.878 87.4796C94.4855 89.1164 96.1 90.7148 97.7197 92.2686C96.5778 91.8921 95.4329 91.7848 94.9005 91.7848ZM88.7307 103.832C88.592 103.153 88.4726 102.346 88.4726 101.533C88.4726 100.217 88.7105 99.143 89.0789 98.1519C89.0152 99.4426 89.1569 100.777 89.1569 101.75C89.1569 102.361 89.0344 103.14 88.7307 103.832ZM72.9646 102.26C71.6153 101.975 72.5506 100.428 72.8199 99.1217C74.0893 100.347 75.6856 101.525 77.0177 102.429C75.1896 102.272 73.738 102.423 72.9646 102.26ZM82.2411 78.0665L82.2137 77.6778C82.2137 77.1231 82.2957 76.6514 82.4263 76.2424C82.7725 76.6311 83.1157 77.0198 83.4659 77.4045C83.1217 77.7193 82.7178 77.9562 82.2411 78.0665ZM81.5618 86.9957C82.0831 87.2417 82.7391 87.1769 83.228 86.8358C83.6835 86.5149 83.9265 85.9966 83.9265 85.3731L83.9113 85.2101L84.1937 85.3731C84.4488 85.6049 84.5764 85.9905 84.5764 86.524C84.5764 87.0555 84.6918 87.4816 84.798 87.8946C84.9064 88.2975 85.0106 88.6893 85.0106 89.1782C85.0106 89.8513 84.8102 90.6996 84.1421 91.9953C82.8859 94.4339 81.9799 96.3876 81.9799 98.4374C81.9799 99.149 82.0953 99.8728 82.3352 100.629H78.5169C78.029 100.291 74.8566 98.0244 74.8566 96.1689V93.0724C74.8566 91.2422 74.069 90.1803 73.4951 89.41C73.1853 88.995 72.9424 88.665 72.9363 88.3684C72.9555 88.2682 73.0304 87.8288 73.0912 87.3186C73.5649 88.1548 74.4132 89.2551 75.5874 89.2551C76.0622 89.2551 76.4013 89.1164 76.5956 88.8401L76.7687 88.2206C76.7687 87.6426 76.459 86.9603 76.2505 86.4977L76.1432 86.2548L75.8881 85.8306C75.7119 85.5695 75.5206 85.2931 75.5206 84.8993C75.5206 84.4954 75.721 83.9741 76.3375 83.223C77.1757 82.2006 77.616 81.2066 77.616 80.3583L77.531 79.7509C77.4186 79.3592 77.1817 79.0423 76.8598 78.7923C77.1979 78.7569 77.5887 78.7751 77.8559 78.9502C78.111 79.1193 78.2416 79.427 78.2416 79.8724C78.2416 80.5425 77.9835 81.3199 77.7314 82.0761C77.3893 83.1046 77.0906 83.9974 77.5026 84.5258C77.702 84.7779 78.0381 84.9054 78.5058 84.9054C79.099 84.9054 79.5747 84.7333 79.93 84.3983C80.583 83.7717 80.6619 82.7462 80.6619 81.981L80.6589 81.6165L80.6558 81.3817V81.2248C80.6558 80.4332 80.6224 79.2377 79.8055 78.1556C80.832 78.3692 82.6925 79.1041 82.6925 81.6338C82.6925 82.3838 82.2633 82.9629 81.8027 83.5763C81.3158 84.2262 80.8138 84.8993 80.8138 85.8063C80.8138 86.3428 81.0871 86.773 81.5618 86.9957ZM78.0179 72.4727C78.0179 73.9527 77.619 74.9022 77.1919 75.6431C76.9175 75.6077 76.7141 75.5095 76.5744 75.3557L76.4863 75.2342C76.8477 74.721 77.0876 74.0984 77.0876 73.3564C77.0876 72.7339 76.9398 72.2267 76.7019 71.8026C76.7778 71.3785 76.8355 70.9574 76.8355 70.5838C76.8355 70.2994 76.8264 70.0261 76.8072 69.7629C77.123 70.1364 77.447 70.513 77.7658 70.8895C77.9227 71.3643 78.0179 71.8917 78.0179 72.4727ZM71.1243 95.6284L71.1183 95.5069C71.1183 94.7538 71.2569 94.0006 71.426 93.2232L71.5566 92.6574C71.8167 91.5297 72.0829 90.3676 72.0829 89.0274C72.0829 87.5444 71.4877 85.7324 71.0079 84.2758C70.6587 83.2179 70.3591 82.3069 70.3591 81.7876C70.3591 81.0406 70.1546 80.0232 69.9693 79.2438C70.2092 79.5991 70.4228 79.9787 70.6283 80.3502C71.017 81.0436 71.4179 81.7643 71.9949 82.3039C72.3988 82.6835 72.997 83.1673 73.5102 82.9659C73.9698 82.7877 74.1723 82.1672 74.1723 80.9545C74.1723 79.8066 73.6864 78.7569 73.2582 77.8286C72.8948 77.0431 72.5536 76.3021 72.5536 75.6229C72.5536 75.056 72.8452 74.5995 73.2136 74.0245C73.7815 73.1398 74.4851 72.0425 74.4851 69.9997C74.4851 67.4519 72.8725 65.8839 71.9888 65.2158C72.6316 65.1773 73.6651 65.237 74.5488 65.8748C75.7119 66.717 76.3031 68.3001 76.3031 70.5838C76.3031 71.1264 76.1705 71.7904 76.045 72.4342C75.801 73.6834 75.5439 74.9761 76.1644 75.6725C76.4559 75.9995 76.9084 76.1624 77.5107 76.1624C80.3673 76.1624 81.4312 72.9535 81.4312 70.928C81.4312 67.8669 79.844 65.403 79.0676 64.3796C80.7227 64.7147 84.9701 66.061 84.9701 71.1234C84.9701 72.2682 84.3304 72.9181 83.5904 73.6712C82.6925 74.5782 81.6813 75.6047 81.6813 77.6778C81.6813 77.9744 81.7187 78.2497 81.7825 78.4988C80.6255 77.6302 79.1921 77.5735 79.1678 77.5735L78.4967 77.5503L78.9714 77.9946C80.1244 79.0747 80.1244 80.4747 80.1244 81.3078V81.6216C80.1396 82.3099 80.1598 83.4639 79.5535 84.045C79.2984 84.2879 78.9542 84.4064 78.5058 84.4064C78.2173 84.4064 78.0239 84.3446 77.9318 84.2292C77.6798 83.9083 77.9652 83.0509 78.2385 82.2239C78.4906 81.4708 78.774 80.6195 78.774 79.8724C78.774 79.2579 78.5665 78.8075 78.1596 78.5403C77.367 78.022 76.1259 78.4309 76.0733 78.4522L75.4244 78.6678L76.0652 78.9148C76.5693 79.1071 76.8872 79.43 77.0177 79.8815C77.2475 80.6761 76.8477 81.7856 75.9154 82.9214C74.4689 84.6827 75.056 85.5371 75.4416 86.0968L75.6482 86.4349L75.7605 86.6961C75.9792 87.1709 76.4327 88.17 76.1523 88.5648C76.0622 88.6923 75.8739 88.7571 75.5874 88.7571C74.1085 88.7571 73.161 86.2548 73.1529 86.2274L72.6367 86.3104C72.6367 87.0342 72.4109 88.3066 72.4079 88.3218L72.4048 88.3421V88.3633C72.4048 88.8168 72.7095 89.2227 73.0578 89.6944C73.6196 90.4506 74.3241 91.3971 74.3241 93.0724V96.1689C74.3241 98.4253 78.114 100.976 78.276 101.082L78.3448 101.127H83.064L82.9446 100.798C81.8807 97.8766 82.8697 95.6051 84.6219 92.2089C85.8538 89.819 85.5815 88.7814 85.3173 87.7752C85.208 87.3723 85.1088 86.9927 85.1088 86.524C85.1088 85.8448 84.9226 85.3316 84.5521 85.0026C84.1269 84.6321 83.6198 84.6584 83.5985 84.6614L83.3009 84.6766L83.3525 84.952C83.4831 85.617 83.3242 86.1414 82.9061 86.438C82.5842 86.6637 82.1388 86.7113 81.7977 86.5534C81.5061 86.4147 81.3452 86.1505 81.3452 85.8063C81.3452 85.0593 81.7795 84.4752 82.238 83.8638C82.7239 83.2119 83.228 82.5387 83.228 81.6338C83.228 80.9373 83.0974 80.3613 82.8889 79.8845C83.5317 80.172 84.3354 80.0951 85.0592 79.6619C86.2922 78.9259 87.0392 77.4257 87.1698 75.5399C87.6709 76.8589 88.3663 79.3389 88.3663 82.9122C88.3663 87.9533 86.9845 90.566 85.7638 92.8709C84.793 94.7062 83.8749 96.4443 83.8749 99.0539C83.8749 100.789 84.3577 102.42 84.5733 103.054C84.2362 103.093 82.5872 103.3 81.3361 103.458C80.2185 102.993 79.1435 102.722 78.1485 102.565C76.6128 101.568 74.4162 100.024 72.8836 98.4789C72.3988 97.992 71.9827 97.5031 71.676 97.0314C71.3541 96.5394 71.1567 96.0647 71.1243 95.6284ZM70.1303 97.494C70.1303 96.9747 70.4097 96.6548 70.7194 96.2489C70.8115 96.5273 70.9472 96.8147 71.1274 97.1053C70.5858 97.2358 70.1303 97.494 70.1303 97.494ZM69.6029 77.9916L68.8913 77.3245L69.1595 78.2356C69.1656 78.2497 69.4895 79.3713 69.6869 80.4777L69.1767 80.1862C69.1342 80.1629 68.1564 79.596 68.1564 78.2973C68.1564 77.9481 68.3922 77.4045 68.621 76.8771C68.8639 76.3102 69.0988 75.7707 69.0988 75.3617L69.0674 74.8961L69.1221 74.8839C69.2526 74.8485 71.8613 74.1369 72.7359 72.2065L73.3706 72.7106C73.1762 73.1165 72.9586 73.4546 72.7561 73.7694C72.3623 74.3829 72.0222 74.9194 72.0222 75.6229C72.0222 76.2303 72.2409 76.8417 72.5213 77.4764L72.4625 77.5503L72.5445 77.529L72.7703 78.028C73.1215 78.7872 73.4768 79.5667 73.5963 80.3998L72.9555 79.8015L73.2217 80.7116C73.2278 80.7207 73.3908 81.2865 73.5558 82.0073C73.4768 82.399 73.3554 82.4851 73.3068 82.5053C73.2491 82.5266 73.0082 82.5529 72.3714 81.9516C71.8491 81.4647 71.4877 80.8098 71.099 80.1184C70.687 79.3744 70.2578 78.6061 69.6029 77.9916ZM68.6756 66.0347C68.4702 65.6399 68.3456 65.2097 68.3892 64.8422C68.4418 64.409 68.6999 64.1215 69.1858 63.9737C70.0149 63.7125 70.6668 63.3744 71.1567 62.9625C71.4928 63.3775 71.8339 63.7925 72.174 64.2075C71.0292 64.2642 69.5998 64.9556 68.6756 66.0347ZM73.6682 69.5726C73.0426 69.2193 72.3593 68.1139 72.4544 67.3213L72.7672 66.7048C73.3463 67.4316 73.8747 68.4307 73.9445 69.7092L73.6682 69.5726ZM70.4643 71.9069C70.4643 69.7123 68.6271 69.0421 67.0064 68.449C65.4971 67.8973 64.1964 67.4225 64.1964 65.9395C64.1964 63.8188 66.6653 62.2235 68.2647 62.2235C69.6231 62.2235 70.9856 61.8206 71.6153 61.0462L71.4371 61.7963C71.0899 62.5353 70.276 63.1072 69.0158 63.499C68.1564 63.7723 67.9134 64.3503 67.8618 64.7886L67.8496 64.9991C67.8496 65.981 68.5916 67.1057 69.3286 67.5207L69.9218 67.8234C71.0049 68.3417 72.4899 69.0563 72.4899 70.8804C72.4899 72.7136 70.7133 73.7188 69.6869 74.1521C70.0331 73.5731 70.4643 72.6954 70.4643 71.9069ZM67.4447 34.3233C68.4965 35.8681 71.1243 38.8877 76.0855 39.8625C75.9873 40.3909 75.9124 40.9152 75.8486 41.4406C71.4027 40.9456 67.9316 35.8893 67.9316 35.8893C67.9316 35.8893 69.4227 42.4964 75.6937 43.371C75.6482 44.5958 75.6967 45.7944 75.8516 46.9504C68.9186 43.2617 67.6674 36.8054 67.4447 34.3233ZM95.7427 18.6382C98.6216 17.7991 101.883 17.3243 105.567 17.3243C111.857 17.3243 116.308 19.9127 119.318 22.8047C121.029 24.4537 122.278 26.1999 123.13 27.6242C124.17 29.3642 124.627 30.6225 124.627 30.6225C119.395 37.431 119.544 39.7117 119.544 39.7117L116.501 41.9063L116.139 41.2867C117.545 38.9373 117.86 35.8124 116.039 33.6795C116.056 33.2736 116.065 32.8404 116.065 32.3747C116.065 23.9051 109.206 20.1647 109.134 20.1324L108.553 19.8216L108.749 20.4198C110.14 24.6582 108.891 28.5969 107.943 31.3159C95.5402 32.232 93.0632 46.7368 93.5268 55.1184L87.2417 49.0357C85.8042 35.8357 94.1332 19.7325 109.375 19.7325C112.83 19.7325 115.579 21.3096 115.579 21.3096C115.579 21.3096 112.83 18.1544 106.45 18.1544C86.7811 18.1544 79.6476 37.3723 80.75 45.3409C79.7691 45.3409 78.9917 45.5565 78.3813 45.8652C76.8659 46.6335 76.381 47.9708 76.381 47.9708C75.7322 38.5637 80.1183 23.1965 95.7427 18.6382ZM109.437 20.9189C111.044 21.998 115.535 25.628 115.535 32.3747C115.535 37.3126 114.508 38.1902 111.628 38.1902C109.137 38.1902 107.614 35.7233 107.614 34.379C107.614 33.8395 107.912 32.974 108.304 31.8797C108.983 29.9493 109.905 27.3357 109.905 24.3798C109.905 23.2674 109.761 22.1043 109.437 20.9189ZM90.1125 61.1859C89.3533 61.4643 88.3025 61.6667 86.8793 61.6667C83.061 61.6667 84.2747 59.2312 85.1807 58.8668C85.7263 58.7868 86.5989 58.7362 87.5342 58.7332C87.7802 59.3861 88.427 60.4652 90.1125 61.1859ZM90.1853 58.882C91.148 59.0176 91.8434 59.2555 91.8434 59.6382L91.6643 60.118C90.6783 59.7799 90.3159 59.2495 90.1853 58.882ZM91.3039 60.5188L90.7532 60.8954C89.0739 60.3083 88.3835 59.3588 88.1051 58.7362C88.6214 58.7453 89.1376 58.7717 89.6175 58.8162C89.7187 59.2727 90.073 60.038 91.3039 60.5188ZM98.9344 76.3932C100.11 76.3932 100.234 75.6138 101.513 75.6138C103.108 75.6138 103.879 79.7449 103.879 79.8279C103.879 79.9109 103.992 81.3402 102.066 81.3402C100.137 81.3402 100.36 80.2226 99.5164 78.7488C98.9313 77.7223 98.1924 77.0613 97.2449 76.4975C96.3723 75.5601 94.2051 73.1044 95.4421 73.1044C96.4533 73.1044 97.0678 76.3932 98.9344 76.3932ZM109.426 68.5704L110.024 69.2223C109.318 69.5786 108.553 69.8904 107.783 70.1536L109.426 68.5704ZM109.075 68.1908L107.824 69.4005C108.076 68.9024 108.336 68.3062 108.63 67.713L109.075 68.1908ZM110.434 66.886L109.449 67.8375L108.882 67.2241C109.096 66.8263 109.333 66.4406 109.597 66.0995L110.434 66.886ZM110.807 66.5266L109.93 65.7087C110.445 65.1743 111.062 64.819 111.845 64.819L112.467 64.9283L110.807 66.5266ZM111.753 68.122C111.388 68.4247 110.961 68.7101 110.496 68.9703L109.799 68.2141L110.813 67.2383L111.753 68.122ZM111.181 66.8799L112.886 65.2401L113.058 65.8444C113.058 66.557 112.705 67.1998 112.135 67.7728L111.181 66.8799ZM97.7956 73.9203C97.7956 73.2562 98.6671 72.826 100.055 72.826C101.443 72.826 102.589 71.2448 104.164 70.9128C105.742 70.5778 106.121 70.2255 106.121 70.2255C106.121 70.2255 105.908 71.1922 104.734 71.8562C103.564 72.5173 102.15 73.7694 100.789 73.7694C99.4294 73.7694 97.7956 74.9163 97.7956 73.9203ZM99.0204 74.6855C99.6177 74.4537 101.498 73.9942 102.722 73.5882C103.947 73.1813 104.639 72.8614 105.333 72.2116C106.026 71.5627 109.226 70.1475 109.226 70.1475C108.547 71.8026 107.702 73.819 105.113 73.819C102.53 73.819 99.8353 75.8092 98.7461 75.8092C97.6589 75.8092 97.6589 74.5043 97.6589 74.5043C97.6589 74.5043 98.4212 74.9163 99.0204 74.6855ZM109.051 81.5305C114.559 78.9472 114.135 74.6471 116.961 71.4088C114.609 75.0945 115.089 80.3056 109.051 81.5305ZM118.061 71.0292L120.007 69.3235V82.4142C117.439 86.3732 114.603 88.4605 114.603 88.4605L118.061 71.0292ZM126.477 73.2916L123.156 78.3955L124.019 66.8172L125.351 65.5721C125.351 69.1221 126.477 70.7559 126.477 73.2916ZM126.347 38.9201C126.347 41.5499 124.808 43.0633 124.808 46.1588C124.808 48.0335 122.539 48.6793 122.539 48.6793C124.959 50.3374 124.384 60.3174 124.384 60.3174L125.618 59.4509C125.922 60.2455 125.73 64.7805 125.73 64.7805C123.002 66.4021 117.23 70.6911 117.23 70.6911C117.23 70.6911 119.386 67.2686 122.343 64.0274C125.309 60.7851 122.693 58.4427 122.693 58.4427V61.7194C122.693 62.5859 120.348 65.6844 117.96 68.4186C115.576 71.1588 114.888 72.9596 113.924 74.7979C112.96 76.6342 111.56 78.7245 111.56 78.7245C111.222 77.7132 111.459 75.4063 111.625 73.7745C111.791 72.1407 115.481 71.0201 115.481 66.7706C115.481 64.5132 114.448 62.9118 111.708 62.9118C108.968 62.9118 107.868 64.5456 106.893 66.5206C105.908 68.4996 104.615 69.7598 104.615 69.7598C108.702 68.4844 107.124 63.751 111.791 63.751C113.95 63.751 114.665 64.9343 114.665 66.5985C114.665 68.2647 114.316 68.8873 112.189 70.8804C110.065 72.8705 110.677 74.3505 110.478 76.8417C110.279 79.3298 108.12 79.7803 107.272 79.7803C106.424 79.7803 106.175 79.8279 104.929 78.6597C103.684 77.4936 103.618 75.6725 103.618 75.0024C103.618 74.3353 104.348 74.475 105.73 74.475C107.106 74.475 108.25 73.1196 108.998 71.9544C109.748 70.7853 109.799 70.1334 112.237 68.2495C114.683 66.3667 113.886 64.2966 111.774 64.2966C109.662 64.2966 108.968 66.227 108.204 67.7515C107.438 69.276 105.86 70.103 103.981 70.4917C102.104 70.8804 100.775 72.4818 98.4971 72.4818C97.2854 72.4818 96.7874 71.9544 95.8247 71.9544C94.859 71.9544 94.4278 72.4818 94.4278 73.4161C94.4278 74.3677 95.023 75.139 95.6941 75.712C94.2273 74.9963 93.9611 74.2553 92.4721 71.5688C90.9243 68.7688 89.3715 68.8285 86.9319 67.5025C84.4974 66.1713 84.4306 64.7623 84.3435 63.7895C84.2545 62.8137 84.1208 61.2335 81.5304 59.8214C78.937 58.4133 79.9796 56.9627 83.3009 56.9627C86.6242 56.9627 88.5718 58.3921 88.5718 58.3921C82.5731 58.0185 80.9079 58.8699 80.9079 58.8699L84.2747 59.1391C83.225 60.1241 83.7595 61.1535 83.7595 61.1535C83.7595 61.1535 84.4772 62.1941 87.2396 62.1941C90.3949 62.1941 92.5449 60.6818 92.5449 60.6818C92.5449 60.6818 94.9147 60.9845 94.9147 64.5456C94.9147 68.1078 94.0168 68.4783 94.0168 69.6201C94.0168 70.762 95.5929 71.3997 95.5929 71.3997C95.5929 71.3997 95.8824 71.1325 97.2419 71.1325C98.6064 71.1325 98.6439 71.9362 98.6439 71.9362C99.1105 71.1618 98.6439 70.2579 98.6439 70.2579C95.0564 69.2173 95.7032 66.2928 95.7032 63.9413C95.7032 56.4495 83.2219 56.3159 78.3631 54.6406C78.3631 54.6406 76.7293 50.1178 76.7293 48.7806C76.7293 48.0781 78.4329 46.0404 80.3704 46.0404C83.9062 46.0404 88.5141 51.7607 94.4824 57.3514C93.6321 43.0218 99.4355 33.0064 107.58 32.3423C107.29 33.1906 107.082 33.878 107.082 34.379C107.082 35.8448 108.684 38.6882 111.628 38.6882C113.933 38.6882 115.137 38.0505 115.688 36.1616C116.128 37.099 116.282 38.009 116.282 38.6498C116.282 40.5863 115.045 41.4791 115.045 41.4791C117.13 43.9288 118.236 48.1611 117.35 52.4784C118.992 49.1986 121.828 48.8696 121.828 48.8696C121.828 47.582 120.365 43.0187 120.365 40.403C120.365 37.7873 123.645 34.0915 125.576 30.0232C125.576 30.8503 126.347 35.3194 126.347 38.9201ZM128.15 48.7421L125.695 58.1845C125.772 50.8122 124.39 49.062 124.39 49.062C124.39 49.062 125.79 47.7784 125.79 45.8561C125.79 43.9318 126.815 41.6866 126.815 41.6866L128.15 48.7421ZM130.365 28.6142C135.3 26.0845 144.532 21.0221 151.649 15.2299C151.265 26.7698 144.82 41.3374 138.655 52.7689C132.83 63.5648 127.255 71.5597 127.255 71.5597C127.255 67.4853 126.614 64.412 126.614 60.0026L129.891 49.1754L127.255 38.6204L126.898 30.331C126.898 30.331 128.227 29.7084 130.365 28.6142ZM128.138 115.249L128.275 116.682C125.232 120.261 124.17 124.259 122.581 129.47C120.546 128.606 118.574 128.15 116.726 127.814C116.014 127.681 115.238 127.53 114.422 127.373C122.521 124.641 124.514 117.343 128.138 115.249ZM66.9264 99.9852C65.2076 99.3444 63.6457 94.9765 62.3409 92.9033C62.3409 92.9033 65.236 90.2198 66.0792 91.2928C66.9264 92.3699 64.99 95.5069 64.99 96.506C64.99 97.5031 65.8595 96.1244 66.8991 96.1244C67.9347 96.1244 66.9264 99.9852 66.9264 99.9852ZM65.1114 77.7102C65.074 77.6869 64.2915 77.2324 64.1265 76.207C64.6772 76.0167 65.3898 75.7859 65.6935 75.9843C65.8302 76.0734 65.903 76.2748 65.903 76.5835L65.8595 77.449L65.8241 78.1111L65.1114 77.7102ZM62.684 77.0907C62.3682 76.7728 62.2862 76.3345 62.2862 75.8152C62.2862 75.5632 62.3075 75.2909 62.3297 75.0054L62.3682 74.1075C62.3682 73.6237 62.2224 73.2886 61.9309 73.0963C61.3873 72.74 60.5451 73.0335 59.8031 73.2886C59.4731 73.3979 59.1401 73.5174 58.971 73.5174C58.2149 73.5174 57.983 73.3362 57.983 72.7369C57.983 72.4049 58.2412 72.0101 58.5226 71.6811L58.5175 71.7439L58.7109 72.4373L59.2818 72.6924C59.7333 72.6924 60.044 72.3421 60.3761 71.9747C60.8589 71.4382 61.4025 70.8328 62.5211 70.8328C64.1559 70.8328 64.5 71.9484 64.5 72.8857C64.5 73.1965 64.2773 73.7127 64.0627 74.2138C63.8137 74.7858 63.5617 75.3739 63.5617 75.8213C63.5617 76.6787 63.918 77.2658 64.2541 77.6393C63.507 77.5735 62.9847 77.3934 62.684 77.0907ZM167.907 93.4874C167.907 93.4874 171.217 94.7153 171.217 97.2895C171.217 99.8637 170.405 101.092 171.217 101.092C172.029 101.092 172.902 98.4607 172.902 96.6457C172.902 94.8337 167.907 89.3381 161.917 87.7013C155.92 86.0614 151.929 87.0585 150.802 87.0585C149.68 87.0585 139.188 87.758 137.065 87.758C134.942 87.758 129.134 88.5172 129.134 88.5172C129.134 88.5172 136.353 84.5724 148.097 81.162C154.393 79.3389 161.988 77.6626 170.475 76.8417L174.144 92.4579L175.327 97.5092L161.062 116.792L167.385 117.767L180.256 99.7483L175.25 78.683L172.326 78.8784L171.368 75.9104L157.059 75.2463L150.217 70.7114L141.039 74.6612L135.074 72.5112L136.448 67.2535C158.115 32.888 156.196 14.0891 156.196 14.0891L152.053 19.1839L152.373 13.2793C144.188 20.9482 127.527 28.6384 127.527 28.6384C127.527 28.6384 121.009 16.2058 104.814 16.2058C88.5141 16.2058 78.4754 28.0979 76.1836 39.3675C75.8121 39.2936 75.4599 39.2075 75.1167 39.1154C72.1437 36.9654 70.5068 33.8223 70.5068 33.8223C70.5068 33.8223 70.3884 35.3761 70.7508 37.0038C68.3568 35.2303 67.3921 33.223 67.3729 33.1906L66.8657 33.2797C66.8627 33.3323 66.7898 36.3519 68.372 39.819C58.9741 37.6659 47.5 31.6338 47.5 31.6338C47.5 31.6338 56.8655 45.3044 69.9541 61.4825C69.4379 61.6455 68.8467 61.7255 68.2647 61.7255C66.4132 61.7255 63.6649 63.4929 63.6649 65.9395C63.6649 67.7636 65.2623 68.3477 66.81 68.9116C67.1815 69.0482 67.549 69.1839 67.8962 69.3327C68.209 70.1243 68.9307 70.5899 69.7659 70.9573C69.8721 71.2307 69.9329 71.5445 69.9329 71.9069C69.9329 72.8139 69.2294 73.9294 68.9459 74.3383C68.6271 73.3564 67.8071 72.8139 66.5863 72.8139C65.897 72.8139 65.3838 73.0102 64.9758 73.2704L65.0315 72.8857C65.0315 71.2661 64.1174 70.3348 62.5211 70.3348C61.1565 70.3348 60.4702 71.097 59.9722 71.6578C59.711 71.9453 59.4873 72.1943 59.2818 72.1943L59.1401 72.1377C58.9832 71.9423 59.0672 71.343 59.1735 70.9958L59.4235 70.187L58.7423 70.7407C58.6117 70.848 57.4526 71.8208 57.4526 72.7369C57.4526 73.8696 58.2624 74.0124 58.971 74.0124C59.2352 74.0124 59.5804 73.8909 59.9853 73.7542C60.5431 73.5639 61.3104 73.3008 61.6282 73.5052C61.7669 73.5973 61.8368 73.8018 61.8368 74.1075L61.8287 74.3059C61.6485 74.5904 61.5149 74.9022 61.5149 75.2129C61.5149 75.6016 61.612 75.8719 61.7669 76.0642C61.7942 76.5775 61.9218 77.0613 62.2953 77.4318C62.7934 77.9299 63.671 78.1698 64.9728 78.1698H65.8241C65.813 78.8227 65.9 79.4452 66.3616 79.9078C66.8596 80.4059 67.7342 80.6488 69.0411 80.6488H69.7142C69.78 81.0588 69.8266 81.4556 69.8266 81.7876C69.8266 82.3808 70.1394 83.3273 70.4977 84.4215C70.9654 85.8478 71.5515 87.6213 71.5515 89.0274C71.5515 90.3109 71.2873 91.4497 71.0383 92.5531L70.9937 92.7434C69.8873 92.1472 67.4498 93.2769 67.4498 93.2769C68.7303 90.7654 66.8657 89.6408 65.7431 89.6408C64.6154 89.6408 62.0139 91.4558 62.0139 91.4558C62.0139 91.4558 61.199 90.4769 59.0642 90.4769C56.1923 90.4769 55.8796 94.8752 56.4221 96.2215C56.9657 97.5679 57.1601 98.2592 55.996 100.552C54.8308 102.841 56.0334 104.478 56.8685 105.261C57.7027 106.041 57.3544 105.715 57.3544 107.752C57.3544 109.787 61.1241 112.624 62.6344 115.026C64.1498 117.427 64.6944 117.571 66.9082 118.191C68.5947 118.66 71.0636 121.026 72.1467 122.133C72.8806 122.171 73.5902 122.21 74.2826 122.251C70.7225 117.51 69.3923 117.18 67.7282 116.637C66.0215 116.088 65.5629 115.567 63.8259 113.538C62.0888 111.513 61.3478 110.27 60.0876 109.086C58.8242 107.903 58.7746 106.415 58.7746 106.415C59.4984 107.734 64.4484 110.652 66.1865 111.447C67.9225 112.251 69.2344 113.354 70.5129 115.537C71.7914 117.717 76.3173 118.331 76.3173 118.331C73.5325 116.824 72.8087 115.567 71.5971 114.155C70.3823 112.741 67.2848 110.929 67.2848 110.929C62.8399 108.79 57.2846 105.204 57.2846 103.286C57.2846 101.159 57.4476 98.8372 57.8909 98.8372C58.3343 98.8372 58.7777 103.526 61.2142 104.647L65.4161 106.205C65.4161 106.205 62.1556 104.345 60.8751 102.681C59.5946 101.018 57.7371 96.3764 57.7371 94.0958C57.7371 92.9327 57.8191 91.5773 59.3456 91.5773C60.8751 91.5773 62.4016 95.021 63.3126 97.0344C64.2196 99.0448 64.0536 99.8961 66.7412 101.095C69.4227 102.295 73.0193 103.766 75.0013 103.766C76.9813 103.766 78.9654 104.229 80.2428 104.888C81.5274 105.546 84.2514 106.667 86.8125 106.667C89.3715 106.667 90.3645 105 90.3645 102.26C90.3645 99.5104 89.6387 97.3249 91.148 95.9138C92.6573 94.4987 93.4195 93.0127 95.1525 93.0127C96.8876 93.0127 99.1196 94.5199 99.1196 96.0262C99.1196 98.737 96.7236 97.8827 96.7236 100.477C96.7236 107.634 99.2006 107.325 99.2006 113.591C99.2006 116.996 96.4746 119.861 96.4746 119.861C96.4746 119.861 96.9311 120.94 97.5081 121.486L96.7661 122.681L99.1196 121.871L99.3656 123.378L101.637 123.07C101.637 123.07 98.4758 133.201 86.1585 139.342V137.349L86.0948 137.346C85.2829 137.945 84.4579 138.538 83.6228 139.135C83.471 139.526 83.3616 140 83.31 140.573C84.5268 140.526 85.6423 140.478 86.1464 140.457L86.4359 140.443L95.9037 147.379L96.0039 147.572C96.1466 147.243 96.3055 146.881 96.4746 146.498L90.6348 141.291L88.5394 139.422C89.1711 139.126 89.7774 138.817 90.3625 138.497L97.6498 143.823C97.8077 143.464 97.9626 143.117 98.1114 142.771L93.7121 139.713L91.2492 137.996C92.1269 137.48 92.9417 136.946 93.701 136.397L99.3838 139.879C99.5478 139.505 99.644 139.282 99.644 139.282L99.7108 139.298L99.4385 138.767C99.0346 138.39 98.6611 137.859 99.6005 137.859C100.406 137.859 101.722 138.488 103.263 140.214L111.193 142.258C110.116 141.516 109.022 140.599 107.93 139.464C104.52 135.896 99.0953 135.199 96.8511 133.761C97.2591 133.361 97.6437 132.963 98.0011 132.566C99.5944 132.901 104.223 134.146 107.835 137.91C107.835 137.91 110.629 138.532 113.254 140.463C113.254 140.463 108.416 134.802 99.4233 130.854C100.942 128.85 101.917 126.928 102.545 125.338C105.25 126.035 116.863 129.033 118.66 129.62C120.645 130.273 126.809 134.146 132.011 140.922C132.24 140.564 132.397 140.306 132.397 140.306C132.397 140.306 133.651 140.615 134.413 140.795C131.021 135.036 127.462 131.931 124.034 130.152C123.72 129.989 123.399 129.834 123.085 129.689C124.87 123.954 126.133 118.573 129.787 117.411C130.262 117.263 130.771 117.18 131.329 117.18C136.098 117.18 137.51 122.598 137.788 123.957L138.314 124.034C138.361 123.66 138.423 123.316 138.5 122.998C137.097 114.223 132.592 112.699 132.592 112.699C132.592 109.09 143.494 100.039 143.494 100.039C138.441 103.153 132.77 108.544 132.77 108.544C132.77 103.028 139.817 97.1356 139.817 97.1356C133.613 99.5408 131.217 106.803 131.217 106.803C129.449 101.45 135.386 92.5298 135.386 92.5298C129.227 96.8441 129.58 104.688 129.58 104.688C127.453 100.952 129.805 95.1425 129.805 95.1425C125.593 99.4163 128.031 107.883 128.031 107.883C124.662 104.731 124.529 97.6337 124.529 97.6337C121.916 103.194 129.357 111.513 129.357 111.513C127.153 112.796 125.431 115.16 125.431 115.16C124.372 122.21 115.303 126.012 112.575 127.005C112.038 126.895 111.495 126.786 110.955 126.676C107.414 125.947 103.974 125.202 102.705 124.926C103.5 122.784 103.639 121.355 103.639 121.355C100.456 122.117 101.075 119.935 101.075 119.935C101.075 119.935 99.484 121.026 99.484 120.152C99.484 119.28 98.6277 119.315 98.6277 119.315C98.6277 119.315 100.571 117.023 100.571 113.5C100.571 113.067 100.562 112.658 100.548 112.269C100.504 111.142 100.403 110.181 100.268 109.36C103.171 106.675 108.461 102.061 114.434 98.1935C108.081 100.222 101.67 105.395 99.7078 107.064C99.0042 104.917 98.1236 103.906 98.1236 101.895C98.1236 101.494 98.163 101.142 98.2329 100.833C98.9486 101.308 100.371 101.969 102.705 101.969C107.669 101.969 115.249 95.8278 124.286 90.5367C128.541 89.1043 133.259 89.6023 135.718 89.6023C137.883 89.6023 145.045 88.2975 150.081 87.9888C151.754 89.493 156.321 94.4632 156.321 103.921C156.321 109.781 149.455 111.972 146.682 114.057C147.017 114.095 147.435 114.179 147.884 114.327L149.702 113.396L149.437 115.137L149.799 115.433C150.41 115.985 150.858 116.664 151.148 117.459C151.834 117.272 152.911 116.786 153.547 115.481C153.547 115.481 154.105 120.487 152.089 124.04L152.133 124.529C152.133 124.979 152.124 125.418 152.112 125.833L153.476 126.833C156.134 121.349 158.536 116.4 158.536 116.4L158.915 116.459L159.106 114.716C159.106 114.716 171.407 103.549 167.907 93.4874Z" fill="#231F20"/>
<path d="M116.993 144.764C115.78 144.544 114.357 144.079 112.836 143.264L112.164 144.203C111.857 144.636 111.56 145.079 111.27 145.52C112.645 146.033 114.016 146.425 115.213 146.614C115.831 145.974 116.426 145.354 116.993 144.764Z" fill="#231F20"/>
<path d="M108.566 150.072L110.823 151.169L111.606 150.357L109.157 148.99C108.955 149.354 108.759 149.716 108.566 150.072Z" fill="#231F20"/>
<path d="M105.521 156.671C106.174 155.992 106.921 155.218 107.728 154.382L106.708 153.863C106.259 154.859 105.869 155.8 105.521 156.671Z" fill="#231F20"/>
<path d="M183.576 160.532C184.852 160.105 186.856 159.444 188.986 158.736C189.333 157.558 189.582 156.197 189.582 154.693C189.582 152.641 189.11 150.328 187.823 147.872C188.784 146.941 196.652 139.262 199.507 136.478L198.316 136.196C198.182 136.17 196.922 135.885 194.783 135.725C191.525 138.907 184.673 145.585 183.781 146.455C185.071 148.91 185.539 151.223 185.539 153.275C185.539 155.324 185.082 157.116 184.526 158.533C184.237 159.269 183.908 159.933 183.576 160.532Z" fill="#231F20"/>
<path d="M97.7305 174.23L99.5465 177.314C99.5465 177.314 109.94 169.559 117.731 163.747C118.117 163.011 118.552 162.169 119.006 161.3L117.105 159.782C111.292 164.114 101.97 171.069 97.7305 174.23Z" fill="#231F20"/>
<path d="M72.0821 175.69C72.0821 175.69 83.8244 170.77 90.9978 167.766C91.1443 167.086 91.4683 165.562 91.7295 164.346C88.3673 165.754 72.9976 172.196 68.9961 173.872L72.0821 175.69Z" fill="#231F20"/>
<path d="M128.823 175.378C128.823 175.378 134.386 172.421 138.719 170.12C138.794 168.513 138.849 167.192 138.885 166.466C136.513 167.726 129.564 171.418 126.395 173.103L128.823 175.378Z" fill="#231F20"/>
<path d="M5.16016 182.768L11.7895 180.637C12.082 180.526 38.0396 170.562 65.0642 154.99C66.0005 152.94 66.8468 151.08 67.446 149.77C45.3624 163.192 22.6947 173.094 12.8382 177.17L5.16016 182.768Z" fill="#231F20"/>
<path d="M187.242 172.694L201.122 158.468L193.102 161.128L183.203 171.277L183.037 171.368C182.77 171.52 176.415 175.078 166.798 175.078C164.517 175.078 162.542 174.847 160.824 174.456C163.248 175.668 166.489 176.496 170.84 176.496C180.457 176.496 186.815 172.94 187.082 172.789L187.242 172.694Z" fill="#231F20"/>
<path d="M181.715 122.055L177.216 121.359C173.393 127.409 161.561 146.139 159.306 149.713C161.44 148.328 165.131 145.932 167.67 144.286C172.444 136.726 179.45 125.641 181.715 122.055Z" fill="#231F20"/>
<path d="M19.9222 133.133H30.2291C30.4751 132.46 30.6553 131.973 30.7484 131.716H19.5801L19.9222 133.133Z" fill="#231F20"/>
<path d="M142.446 178.519C142.254 182.775 142.082 186.612 142.082 186.612C142.082 186.612 149.253 175.753 152.925 170.189C151.714 168.895 150.954 167.531 150.475 166.359C149.132 168.397 145.457 173.963 142.446 178.519Z" fill="#231F20"/>
<path d="M18.1868 113.041H18.9581L19.1575 113.067C19.0705 112.767 18.7759 112.542 18.4226 112.542H17.6543V117.67H18.1868V113.041Z" fill="#231F20"/>
<path d="M23.9441 117.258V113.951C23.9441 113.082 23.5008 112.311 22.8144 111.819C23.188 112.272 23.4107 112.839 23.4107 113.453V116.76C23.4107 118.24 22.119 119.449 20.5399 119.449H13.7617V119.944H21.0723C22.6545 119.944 23.9441 118.738 23.9441 117.258Z" fill="#231F20"/>
<path d="M33.5668 118.405H33.0364V119.449H25.9688V119.947H33.5668V118.405Z" fill="#231F20"/>
<path d="M30.3313 116.208H32.7455V114.651H32.2131V115.71H29.7988V117.907H30.3313V116.208Z" fill="#231F20"/>
<path d="M30.3313 112.824H33.5655V111.261H33.033V112.326H29.7988V114.153H30.3313V112.824Z" fill="#231F20"/>
</g>
<defs>
<clipPath id="clip0_15016_302497">
<rect width="200" height="200" fill="white" transform="translate(0.203125 0.277344)"/>
</clipPath>
</defs>
</svg>
