<svg width="200" height="201" viewBox="0 0 200 201" fill="none" xmlns="http://www.w3.org/2000/svg">
<path d="M30.9368 15.5327L31.4801 15.4109C37.2876 14.0434 42.7767 12.7507 49.2305 16.6567C51.1227 17.7901 53.2771 20.0665 55.0475 22.0898C57.5297 19.4576 61.9135 15.6547 67.0372 14.8304V14.8021L67.7772 14.7177L71.7676 14.2495C79.383 13.3315 87.2606 12.3855 95.1945 13.4065L96.6089 13.5843L96.7681 13.6032L96.8993 13.6875C96.9274 13.6969 98.8195 14.8584 99.9998 15.5047C101.18 14.8584 103.072 13.7063 103.091 13.6875L103.213 13.6032L103.391 13.5843L104.805 13.4065C112.739 12.3855 120.607 13.3315 128.223 14.2495L132.222 14.7177C132.222 14.7177 132.962 14.8021 132.962 14.8115V14.8304C138.086 15.6547 142.46 19.4576 144.952 22.0898C146.732 20.0665 148.867 17.7901 150.75 16.6567C157.213 12.7507 162.702 14.0434 168.529 15.4109L169.053 15.5327C178.149 17.659 188.246 28.0658 191.122 31.2038L192.602 32.8243L193.108 34.9599C197.566 53.9937 197.154 58.3775 196.321 61.2438C195.543 63.9883 193.323 67.2011 191.337 69.3836C192.593 70.8448 193.998 72.2313 195.15 73.3647C196.358 74.545 196.995 75.1913 197.276 75.6222C197.445 75.9032 197.688 76.2498 197.951 76.6338C199.056 78.17 200.414 80.0997 199.88 81.6077C199.374 83.0784 197.351 83.6683 195.562 84.2022C194.916 84.3895 194.307 84.5675 193.848 84.7642C193.754 84.8204 193.623 84.8487 192.967 84.9986C194.906 97.6909 196.386 117.867 196.367 119.844C196.367 120.116 196.386 120.443 196.414 120.79C196.508 122.579 196.677 125.586 193.82 126.232C192.18 126.597 190.007 126.007 187.038 124.377C180.856 138.55 170.842 160 168.941 163.157C166.965 166.407 164.492 168.009 162.019 167.662C160.379 167.437 157.363 164.075 156.38 162.923C155.424 163.251 153.457 163.981 151.05 164.871C144.212 167.409 132.822 171.643 127.173 173.142L120.823 178.875L120.626 179.062H120.326H109.545L99.9998 187.895L90.4548 179.062H79.3829L72.8167 173.142C67.1778 171.643 55.7875 167.409 48.9495 164.871C46.5422 163.981 44.5751 163.251 43.6103 162.923C42.6362 164.075 39.62 167.437 37.9808 167.662C35.4985 168.009 33.035 166.407 31.068 163.157C29.1477 160 19.1438 138.55 12.9615 124.377C9.9922 126.007 7.81906 126.597 6.1892 126.232C3.32289 125.586 3.49143 122.579 3.57574 120.79C3.60384 120.443 3.61326 120.116 3.61326 119.844C3.61326 117.867 5.08386 97.6909 7.02283 84.9986C6.37651 84.8394 6.24535 84.8204 6.14232 84.7642C5.68333 84.5675 5.08386 84.3895 4.42817 84.2022C2.64844 83.6683 0.625171 83.0784 0.119353 81.6077C-0.414567 80.0997 0.953034 78.17 2.03961 76.6338C2.30188 76.2498 2.55477 75.9125 2.73274 75.6222C2.98565 75.1913 3.64133 74.545 4.8403 73.3647C6.00181 72.2313 7.40691 70.8448 8.66209 69.3836C6.66691 67.2011 4.44689 63.9883 3.66943 61.2438C2.84513 58.3775 2.42363 53.9937 6.8917 34.9599L7.38816 32.8243L8.86812 31.2038C11.7532 28.0658 21.8508 17.659 30.9368 15.5327Z" fill="black"/>
<path d="M100.027 180.392L93.4237 173.432H82.6329H81.5745L80.7876 172.739L75.6077 168.056C62.5313 164.73 49.6143 160.122 41.8865 157.967C41.5961 158.295 41.3245 158.576 41.184 158.726C40.7625 159.157 38.9827 160.89 38.43 161.302C38.0741 161.564 37.2029 161.62 36.847 161.227C36.107 160.44 20.7451 131.871 15.0875 117.792C15.0313 117.811 11.8933 119.684 11.0503 119.759C10.3852 119.815 9.57964 119.703 9.41103 118.916C9.25179 118.083 10.5257 93.9062 12.1462 80.6988C11.8652 80.5676 8.26829 79.2655 7.91235 79.1157C7.5283 78.9471 6.82575 78.5443 7.18169 77.8699C7.56574 77.1767 13.2984 70.9478 16.1366 67.9878L15.9305 67.7442C12.3054 66.6577 10.0105 62.8733 9.10195 59.6979C8.50246 57.5997 8.43687 53.1692 12.3991 36.2524L12.5678 35.5592L13.0548 35.0252C14.1882 33.7794 24.3702 22.8575 32.2478 21.031L32.7817 20.8998C38.0554 19.654 41.8677 18.7643 46.3545 21.4901C49.2583 23.2323 52.8365 25.8924 55.2813 28.4121C56.3117 27.6909 57.4451 26.1734 58.5597 25.2274C61.5665 22.6702 64.6108 20.647 68.5263 20.3192H68.4606L72.451 19.8601C79.7385 18.9796 87.2603 18.0803 94.5197 18.9982L100.027 22.5952L105.526 18.9982C112.785 18.0803 120.316 18.9796 127.585 19.8601L131.594 20.3192H131.519C135.435 20.647 138.488 22.6702 141.495 25.2274C142.591 26.1734 143.734 27.6815 144.764 28.4121C147.209 25.8924 150.797 23.2323 153.691 21.4901C158.187 18.7643 161.99 19.654 167.264 20.8998L167.798 21.031C175.675 22.8575 185.867 33.7794 186.991 35.0252L187.478 35.5592L187.646 36.2524C191.618 53.1692 191.534 57.5997 190.944 59.6979C190.035 62.8733 187.74 66.6577 184.115 67.7442L183.909 67.9878C186.747 70.9478 192.489 77.1767 192.864 77.8699C193.229 78.5443 192.527 78.9471 192.143 79.1157C191.787 79.2655 188.199 80.577 187.899 80.6988C189.51 93.9062 190.803 118.083 190.635 118.916C190.466 119.703 189.66 119.815 189.005 119.759C188.152 119.684 185.024 117.82 184.958 117.792C179.3 131.871 163.948 160.44 163.208 161.227C162.843 161.62 161.971 161.555 161.625 161.302C161.082 160.89 159.293 159.157 158.862 158.726C158.721 158.576 158.459 158.295 158.15 157.967C150.431 160.122 137.514 164.73 124.447 168.056L119.258 172.739L118.48 173.432H117.413H106.622L100.027 180.392Z" fill="white"/>
<path d="M87.7482 20.8456C81.4086 20.943 74.9116 22.1045 68.7369 22.7939C66.4888 22.9813 64.4281 24.2777 62.4273 25.8663C59.9694 27.7997 55.6606 33.8545 55.6606 33.8545C54.8213 32.7455 52.3559 29.0736 50.8497 27.8147C49.0287 26.286 46.908 24.7798 44.9072 23.5658C41.2429 21.3552 38.2304 22.1795 32.8575 23.4384C27.4696 24.7048 19.5639 31.6664 15.0302 36.6047C13.2917 44.0158 10.8113 55.481 11.7256 58.6808C12.2351 60.4568 14.0186 64.5858 17.4057 65.0054C17.4057 65.0054 33.4495 52.4536 38.2604 49.4262C38.2904 49.4637 38.0281 47.3055 38.0281 47.3055C38.0281 47.3055 34.8808 48.9766 34.5885 48.6694C34.2738 48.3621 33.8767 42.7269 37.8483 39.8419C35.6077 39.5197 35.0681 39.5197 31.5237 41.2357C30.0025 41.9701 27.6794 44.1282 26.8252 46.0616C25.6936 48.6544 28.219 49.711 28.219 49.711L24.5171 52.1089C23.6853 50.0931 23.2357 48.8942 23.0934 46.796C23.0934 46.796 30.1448 37.9385 39.0622 33.6971C40.6734 34.6189 41.8424 45.9867 41.7449 49.696C28.1365 58.5834 14.663 72.7613 12.0778 76.6355C11.6731 77.2425 12.2951 77.4898 12.2951 77.4898C12.2951 77.4898 14.708 78.2766 15.4274 78.4415C13.539 92.417 12.355 110.439 12.8946 115.07C12.9845 115.812 13.6139 115.587 13.6139 115.587C13.6139 115.587 16.0344 114.463 16.7013 114.119C21.5647 127.367 34.6035 152.441 37.2338 156.27C37.6459 156.885 38.1105 156.39 38.1105 156.39C38.1105 156.39 39.7891 154.479 40.2237 153.857C46.5034 156.367 62.6521 161.68 76.9124 165.292L69.5237 147.45L49.0062 142.16C43.1837 134.022 31.149 110.537 29.2306 106.34C28.8035 106.617 26.5404 106.97 26.5404 106.97C26.5404 106.97 26.1283 107.104 26.0383 106.662C26.7053 96.6134 29.95 87.2314 32.7901 74.8895C32.4079 74.7996 29.4629 74.5373 29.4629 74.5373C29.4629 74.5373 28.9908 74.3574 29.2756 74.0127C35.2555 66.7364 54.1244 52.3937 64.8252 47.4179C66.4813 47.6502 99.9927 64.1886 99.9927 64.1886C99.9927 64.1886 133.512 47.6502 135.168 47.4179C145.876 52.3937 164.73 66.7364 170.717 74.0127C170.995 74.3574 170.53 74.5373 170.53 74.5373C170.53 74.5373 167.593 74.7996 167.203 74.8895C170.05 87.2314 173.288 96.6134 173.955 106.662C173.857 107.104 173.453 106.97 173.453 106.97C173.453 106.97 171.197 106.617 170.762 106.34C168.836 110.537 156.817 134.022 151.002 142.16L130.469 147.443L123.081 165.285C137.333 161.673 153.49 156.36 159.784 153.85C160.211 154.472 161.875 156.382 161.875 156.382C161.875 156.382 162.34 156.877 162.752 156.263C165.382 152.433 178.436 127.36 183.292 114.111C183.951 114.456 186.379 115.58 186.379 115.58C186.379 115.58 187.016 115.805 187.091 115.063C187.63 110.432 186.454 92.4095 184.566 78.434C185.3 78.2691 187.683 77.4823 187.683 77.4823C187.683 77.4823 188.312 77.235 187.915 76.6355C185.345 72.7538 171.849 58.5759 158.248 49.6885C158.151 45.9792 159.32 34.6114 160.923 33.6896C169.848 37.931 176.892 46.7885 176.892 46.7885C176.75 48.8942 176.3 50.0857 175.476 52.1014L171.774 49.7035C171.774 49.7035 174.307 48.6469 173.175 46.0541C172.314 44.1207 169.991 41.9626 168.462 41.2282C164.925 39.5122 164.385 39.5122 162.137 39.8344C166.109 42.7194 165.719 48.3546 165.419 48.6619C165.112 48.9691 161.965 47.298 161.965 47.298C161.965 47.298 161.695 49.4562 161.733 49.4262C166.536 52.4461 182.587 64.9979 182.587 64.9979C185.974 64.5858 187.758 60.4493 188.267 58.6733C189.174 55.481 186.671 44.0158 184.933 36.6047C180.414 31.6664 172.516 24.7048 167.135 23.4384C161.763 22.1795 158.743 21.3552 155.078 23.5658C153.077 24.7798 150.949 26.286 149.136 27.8147C147.622 29.0736 145.157 32.7455 144.317 33.8545C144.317 33.8545 140.009 27.7997 137.558 25.8663C135.542 24.2777 133.482 22.9813 131.249 22.7939C123.006 21.8797 114.208 20.1112 105.973 21.1678L102.271 24.5624C101.402 36.2824 100.292 50.5578 100.292 50.5578H99.678C99.678 50.5578 98.5914 36.2824 97.7147 24.5624L94.0128 21.1678C91.9521 20.9056 89.8464 20.8156 87.7332 20.8456H87.7482ZM61.9852 52.4911C57.9086 52.9557 41.108 66.6165 35.3004 78.8011C32.0033 85.7702 31.2689 93.616 32.6852 102.721C33.2922 106.655 48.7964 138.728 48.7964 138.728L72.716 146.543C72.716 146.543 79.4528 163.509 82.6076 170.425H93.3384L99.9927 175.476L106.655 170.425H117.385C120.548 163.509 127.277 146.543 127.277 146.543L151.189 138.728C151.189 138.728 166.693 106.655 167.308 102.721C168.717 93.616 167.975 85.7702 164.67 78.8086C158.877 66.6165 142.069 52.9557 137.993 52.4911C129.645 52.3712 104.968 66.7889 104.968 66.7889C104.968 66.7889 107.389 71.6747 107.666 72.4091L128.386 64.6832C133.219 65.2302 142.601 65.7922 142.601 65.7922C142.601 65.7922 154.381 82.5479 155.685 85.1108C155.895 85.5229 155.498 85.6428 155.498 85.6428L146.506 74.7771C141.17 69.9812 138.39 68.445 135.138 67.6357C133.047 67.1261 127.772 66.7439 123.995 68.9246C128.139 69.2768 130.986 71.982 130.986 71.982L131.001 72.7538C131.001 72.7538 127.921 74.9419 124.489 74.882C128.956 77.2874 143.006 88.6253 144.325 91.1956C144.527 91.5927 144.115 91.7126 144.115 91.7126C144.115 91.7126 142.646 91.9075 142.287 92.0049C142.234 96.0964 139.199 107.569 136.082 114.673C133.399 115.76 130.162 116.554 127.224 117.558C125.351 122.339 114.41 158.616 113.129 161.186C107.779 161.808 103.56 162.182 103.56 162.182L99.9927 165.465L96.4183 162.182C96.4183 162.182 92.2069 161.808 86.8489 161.186C85.56 158.616 74.6419 122.331 72.761 117.551C69.8385 116.554 66.5787 115.752 63.896 114.666C60.7787 107.562 57.7513 96.0889 57.6988 91.9974C57.3316 91.9075 55.8554 91.7051 55.8554 91.7051C55.8554 91.7051 55.4507 91.5927 55.6681 91.1956C56.9869 88.6178 71.0299 77.2799 75.4961 74.8745C72.0716 74.9344 68.9692 72.7538 68.9692 72.7538L68.9842 71.9745C68.9842 71.9745 71.8318 69.2693 75.9832 68.9171C72.1915 66.7439 66.9384 67.1186 64.8552 67.6282C61.588 68.4375 58.8004 69.9737 53.4649 74.7696L44.4801 85.6353C44.4801 85.6353 44.0754 85.5154 44.2778 85.1033C45.5966 82.5405 57.3916 65.7848 57.3916 65.7848C57.3916 65.7848 66.7661 65.2227 71.5995 64.6757L92.3118 72.4016C92.5891 71.6672 95.002 66.7814 95.002 66.7814C95.002 66.7814 70.3256 52.3637 61.9702 52.4836L61.9852 52.4911ZM88.1828 74.7921C81.2737 74.7621 74.3796 78.329 71.0749 80.7795C67.3056 83.5821 64.5555 86.3997 62.1425 90.3488C61.7753 97.1305 64.2707 111.983 64.2707 111.983C64.2707 111.983 76.7775 115.782 79.5502 116.419C80.5019 125.381 82.4727 139.694 88.2278 159.02H111.78C117.528 139.694 119.491 125.381 120.443 116.419C123.215 115.782 135.737 111.983 135.737 111.983C135.737 111.983 138.218 97.1305 137.843 90.3488C135.445 86.3997 132.71 83.5821 128.933 80.7795C125.156 77.9843 116.688 73.7205 108.85 75.0469L119.536 94.2155C118.112 98.337 116.464 100.578 114.088 104.377C113.556 104.197 113.706 104.1 112.859 103.777C114.59 100.188 115.422 96.9806 116.037 94.163C116.194 93.4736 116.299 93.069 116.299 92.9041C116.299 92.3796 116.096 91.9599 115.729 91.6302C111.293 87.4188 105.718 83.9717 100 83.9717C94.2751 83.9717 88.6999 87.4188 84.2487 91.6302C83.904 91.9599 83.6941 92.3796 83.6941 92.9041C83.6941 93.069 83.814 93.4736 83.9714 94.163C84.5784 96.9806 85.4102 100.188 87.1487 103.777C86.3019 104.1 86.4593 104.197 85.9197 104.377C83.5368 100.585 81.8807 98.337 80.4569 94.223L91.1278 75.0469C90.1461 74.882 89.172 74.8071 88.1828 74.7996V74.7921Z" fill="#5A0009"/>
<path d="M94.567 94.9947C94.0424 94.7474 90.8951 95.3769 89.7486 97.3327C90.1308 99.7082 91.8018 102.301 91.8018 102.301L94.9192 101.754C94.9192 101.754 93.5254 99.6033 93.323 97.2503C93.3155 97.1828 94.552 95.0547 94.567 94.9947ZM105.41 94.9947C105.448 95.0547 106.684 97.1828 106.684 97.2503C106.482 99.6033 105.073 101.754 105.073 101.754L108.19 102.301C108.19 102.301 109.861 99.7082 110.244 97.3327C109.105 95.3769 105.957 94.7474 105.41 94.9947ZM99.9998 115.415C97.1148 115.415 93.3455 115.677 88.04 118.779C88.9692 122.669 89.8535 125.681 91.5545 129.563C91.577 129.713 91.9292 129.69 91.9742 129.533C92.4538 127.629 93.0383 120.113 93.1057 119.469L93.338 119.454L95.8259 123.186L96.1481 123.036L97.7892 119.184L98.0965 119.199L99.775 122.699H100.217L101.903 119.199L102.225 119.184L103.874 123.036L104.166 123.186L106.654 119.454L106.909 119.469C106.969 120.106 107.538 127.629 108.018 129.533C108.055 129.683 108.423 129.705 108.46 129.563C110.146 125.681 111.023 122.669 111.952 118.779C106.639 115.677 102.87 115.415 99.9998 115.415ZM91.9067 144.423L91.7569 144.467C92.3189 147.772 93.413 152.253 93.413 152.253C93.413 152.253 96.7326 151.152 99.9998 151.152C103.245 151.152 106.594 152.253 106.594 152.253C106.594 152.253 107.681 147.772 108.25 144.467L108.093 144.423C105.92 146.139 103.672 149.443 103.672 149.443L102.233 146.176L102.121 146.146L99.9998 149.031L97.8717 146.146L97.7592 146.176L96.3055 149.443C96.3055 149.443 94.0724 146.139 91.9067 144.423Z" fill="white"/>
</svg>
