<svg width="200" height="200" viewBox="0 0 200 200" fill="none" xmlns="http://www.w3.org/2000/svg">
<g clip-path="url(#clip0_15016_302090)">
<path d="M27.1015 38.2344V56.9605L33.7532 67.6387C33.7532 67.6387 14.7391 75.3546 2.05814 84.7488L9.75564 101.576L-1.44922 137.402C-1.44922 137.402 8.26835 130.648 20.2261 123.549V139.315C20.2261 139.315 26.5779 135.266 32.7292 132.214L27.1128 140.811V160.002H80.2059V120.369L98.5506 149.286L116.901 120.369V160.002H169.994V140.811L164.377 132.214C170.525 135.263 176.875 139.315 176.875 139.315V123.549C188.837 130.647 198.551 137.402 198.551 137.402L187.345 101.576L195.042 84.7488C182.365 75.3544 163.358 67.6387 163.358 67.6387L170 56.9615V38.2354H121.583L103.6 66.1906C98.2883 66.0534 93.5073 66.1906 93.5073 66.1906L75.5212 38.2354H27.104L27.1015 38.2344ZM183.63 140.347C180.973 140.347 178.85 142.412 178.85 144.986C178.85 147.616 180.973 149.676 183.63 149.676C186.318 149.676 188.383 147.616 188.383 144.986C188.383 142.412 186.318 140.347 183.63 140.347ZM183.63 141.278C185.695 141.278 187.191 142.947 187.191 145.012C187.191 147.047 185.696 148.688 183.661 148.688C181.566 148.688 180.037 147.05 180.037 144.985C180.037 142.951 181.565 141.278 183.63 141.278ZM183.604 142.638C182.841 142.638 182.246 142.695 181.821 142.779V147.417H182.893V145.55H183.4C183.996 145.55 184.28 145.779 184.367 146.288C184.508 146.823 184.589 147.246 184.733 147.417H185.889C185.775 147.246 185.695 146.966 185.554 146.256C185.41 145.637 185.154 145.292 184.702 145.121V145.069C185.268 144.902 185.664 144.501 185.664 143.992C185.664 143.54 185.464 143.175 185.209 142.977C184.871 142.78 184.481 142.638 183.604 142.638ZM183.515 143.401C184.194 143.401 184.503 143.685 184.503 144.107C184.503 144.589 184.024 144.787 183.431 144.787H182.924V143.459C183.038 143.429 183.234 143.401 183.515 143.401Z" fill="#C1C6C8"/>
<path d="M191.694 127.225L183.541 101.161L190.395 86.1745L190.215 85.552C180.663 79.2735 170.61 74.1564 159.294 69.8458V66.4958L165.944 55.8197V42.3121H123.806L107.463 67.7074C104.485 67.5266 101.513 67.4262 98.5543 67.4262C95.5957 67.4262 92.6239 67.5266 89.6452 67.7074L73.3071 42.3121H31.1684V55.8197L37.8183 66.4958V69.8458C26.4997 74.153 16.4456 79.2735 6.89389 85.552L6.71651 86.1745L13.5706 101.161L5.41455 127.225L6.16757 127.794C11.8235 124.073 17.7607 120.672 23.8657 117.603V132.678C28.2733 130.057 32.9454 127.681 37.8186 125.539V131.878L31.1787 142.038V155.958H76.1453V114.759C77.7718 114.528 79.4084 114.324 81.0583 114.14L98.5551 141.723L116.055 114.143C117.705 114.324 119.341 114.528 120.964 114.759V155.957H165.935V142.038L159.295 131.877V125.538C164.168 127.68 168.837 130.057 173.244 132.677V117.603C179.348 120.668 185.285 124.072 190.945 127.794L191.694 127.225Z" fill="#5D1725"/>
<path d="M98.5558 72.4045C74.8245 72.4045 50.1372 78.515 28.8632 89.5987V124.8C50.2919 114.061 74.8858 108.165 98.5558 108.165C122.224 108.165 146.82 114.06 168.247 124.8V89.5987C146.969 78.5144 122.28 72.4045 98.5558 72.4045ZM37.8123 74.6493C28.5754 78.274 20.1982 82.4652 12.2397 87.4483L18.3698 100.841L12.8883 118.369C16.4692 116.314 20.1378 114.389 23.8593 112.575V86.8754L24.1275 86.4353L25.3175 85.8025C29.367 83.6439 33.545 81.6773 37.812 79.8834L37.8123 74.6493ZM159.293 74.6493V79.8835C163.56 81.674 167.735 83.6441 171.784 85.8027L172.977 86.4355L173.237 86.8756V112.575C176.959 114.389 180.629 116.314 184.214 118.369L178.735 100.841L184.857 87.4485C176.898 82.4685 168.53 78.2772 159.293 74.6493ZM99.7264 77.1361L107.052 98.5128L107.177 98.8644L107.549 98.8956C108.135 98.9358 108.771 98.9808 109.447 99.031V103.466C106.285 103.222 103.092 103.076 99.9294 103.036V98.5961L101.216 98.6222L102.02 98.6326C102.027 98.6326 100.619 94.6067 100.619 94.6067L100.216 94.5963C97.6356 94.5628 95.0333 94.5911 92.4765 94.6848L92.1015 94.7005L90.6146 98.7577C90.6179 98.7577 91.4635 98.7264 91.4635 98.7264L92.7499 98.6795V103.12C89.7411 103.22 86.7161 103.421 83.7242 103.705V99.2759L85.4482 99.1092L85.8101 99.078C85.8134 99.0746 85.9351 98.742 85.9351 98.742L93.5911 77.188C95.6157 77.1277 97.6714 77.1128 99.7264 77.1361ZM108.039 77.4695H108.041C115.973 78.0081 123.912 79.1986 131.677 81.0057V88.4352C130.254 88.1039 128.822 87.7968 127.393 87.5056V84.5083L126.94 84.425C125.785 84.1941 124.602 83.9766 123.331 83.7558L122.672 83.6412V100.651C122.675 100.655 123.138 100.735 123.138 100.735L124.862 101.05V105.469C121.569 104.863 118.226 104.364 114.896 103.982V99.5551L116.464 99.7426L117.091 99.8155C117.098 99.8222 117.096 99.188 117.096 99.188V82.8218L116.607 82.7593C115.459 82.6154 114.248 82.4743 113.023 82.3505L112.401 82.2932V85.2852C110.952 85.1447 109.492 85.0169 108.039 84.9232L108.039 77.4695ZM85.282 77.67V85.1203C83.8229 85.2474 82.366 85.3964 80.9202 85.5604V82.5631L80.2926 82.636C79.1347 82.7733 77.9187 82.9371 76.6703 83.1178L76.1833 83.1855V100.188C76.1867 100.188 76.8318 100.097 76.8318 100.097L78.3786 99.8882V104.318C75.0588 104.753 71.7254 105.314 68.4388 105.977V101.557L70.1653 101.216L70.6132 101.128C70.62 101.128 70.6211 100.662 70.6211 100.662V84.1127L69.9492 84.2429C68.7009 84.4839 67.5429 84.7132 66.4051 84.9642L65.9598 85.058V88.0552C64.5375 88.3631 63.1115 88.703 61.6891 89.0578V81.6283C69.4302 79.6771 77.3569 78.3527 85.282 77.67ZM135.608 81.9772L135.611 81.9798C142.623 83.8174 149.568 86.1896 156.272 89.0343V94.9925C154.525 94.2562 152.76 93.544 150.996 92.878V91.2948C150.996 91.2981 150.629 91.1593 150.629 91.1593C148.417 90.3294 146.177 89.5479 143.978 88.8417L143.241 88.6073V94.8989L143.626 95.0238C145.929 95.7702 148.251 96.5777 150.53 97.4378V101.404C148.368 100.601 146.173 99.8217 143.978 99.1121L143.241 98.8778V105.654L143.626 105.779C145.842 106.491 148.068 107.267 150.233 108.081L150.996 108.367V106.401C152.758 107.073 154.526 107.782 156.269 108.518V114.838C149.556 112.01 142.612 109.66 135.609 107.836V103.44L137.101 103.836L137.812 104.026C137.816 104.026 137.817 103.292 137.817 103.292V86.9921C137.821 86.9921 137.398 86.8827 137.398 86.8827L135.609 86.4062L135.608 81.9772ZM96.4644 82.5839L95.9201 84.0865L93.8238 89.9328L93.5451 90.7062L94.368 90.6853C95.7268 90.6484 97.1006 90.6318 98.446 90.6385H99.2455L98.9851 89.8911L96.9878 84.097L96.4644 82.5839ZM54.0283 83.7766C55.3972 84.6602 56.787 85.5876 58.1793 86.5213V88.9171C56.3587 89.4191 54.5429 89.9601 52.7524 90.5291V88.6203L52.0206 88.8599C49.8319 89.5627 47.576 90.3464 45.3203 91.1932L44.9557 91.3286V97.1538L45.7187 96.8648C49.0922 95.6031 52.1448 94.5646 55.0466 93.6878L58.1793 95.7372V104.094L53.7341 109.708C50.3404 110.759 46.9415 111.947 43.625 113.239C42.2998 112.406 40.9791 111.588 39.6773 110.802V107.68C41.4142 106.943 43.1795 106.233 44.9531 105.557V108.612L45.7187 108.323C47.874 107.513 50.1069 106.736 52.3592 106.013L52.7524 105.888V98.3933L52.0181 98.6329C48.7016 99.7005 45.5139 100.846 42.5184 102.034L39.6772 100.12V93.2426L43.9402 87.2922C47.2266 86.0138 50.6214 84.8342 54.0283 83.7766Z" fill="white"/>
</g>
<defs>
<clipPath id="clip0_15016_302090">
<rect width="200" height="200" fill="white" transform="translate(-0.00390625)"/>
</clipPath>
</defs>
</svg>
