<svg width="200" height="200" viewBox="0 0 200 200" fill="none" xmlns="http://www.w3.org/2000/svg">
<g clip-path="url(#clip0_15016_302054)">
<ellipse cx="99.9922" cy="99.9999" rx="100" ry="58.9105" fill="white"/>
<path d="M100.577 46.0992C47.5342 46.0992 4.53906 70.4421 4.53906 100.465C4.53906 130.502 47.538 154.836 100.577 154.836C111.108 154.836 121.247 153.874 130.728 152.098L130.608 152.481C132.509 152.295 134.635 151.655 136.636 150.871C139.104 150.306 141.517 149.682 143.879 149.006L143.836 149.217C144.03 149.101 144.22 148.979 144.404 148.857C175.404 139.841 196.611 121.561 196.611 100.465C196.611 70.4421 153.613 46.0992 100.58 46.0992" fill="black"/>
<path d="M148.014 143.373C149.599 141.452 150.639 139.471 151.329 137.744C172.845 129.36 186.833 115.789 186.833 100.467C186.833 78.4751 158.002 60.0834 119.431 55.4819C117.461 54.5345 115.532 53.6462 114.036 53.0094C107.736 50.3079 106.295 51.5277 104.732 53.0094C104.236 53.4794 103.847 53.9486 103.531 54.4021C102.541 54.3864 101.547 54.3729 100.55 54.3729C61.699 54.3729 28.8503 68.089 18.0316 86.95C23.4967 91.5574 37.7718 103.063 49.1173 108.586L48.9788 108.245C48.5688 107.83 38.6766 97.8921 36.0035 84.6556H36.2071C37.0355 85.6845 41.6422 94.003 61.131 106.392C62.6419 107.349 77.833 116.502 84.2888 118.216L83.5083 117.36C82.8902 116.674 73.2824 105.568 68.7498 96.9282C68.7498 96.9282 63.8721 88.9039 60.4463 79.1688C60.4463 79.1688 66.9635 84.4483 67.5831 84.6556L67.6535 84.3076C67.4469 83.8354 61.9938 71.4034 61.0068 64.5479C62.5887 64.1648 69.522 62.9098 72.7354 62.7183C72.7354 62.7183 74.0577 73.5548 82.7076 78.7206C82.7076 80.0354 83.1783 93.4739 86.8511 98.4481C86.7546 96.575 85.7204 89.9059 91.4623 82.8581L91.746 83.1335C90.9864 86.0512 88.9218 97.8921 91.746 107.66C92.4913 110.289 97.6675 123.163 102.556 126.456C101.995 123.355 95.0334 108.974 102.37 93.7568C102.419 94.2672 102.532 95.433 102.827 97.1123C103.66 101.862 105.954 110.763 112.42 120.858C112.431 120.874 112.657 121.196 112.765 121.352C112.302 114.848 114.641 110.926 115.961 109.13C120.371 103.279 129.564 103.034 136.299 104.51C139.02 105.09 141.134 105.423 143.538 106.154C143.618 106.081 143.672 106.011 143.729 105.927C137.682 102.675 123.132 99.9649 123.132 99.9649C125.597 99.5197 128.05 99.73 130.559 99.7083C136.742 100.027 143.208 100.173 149.04 101.962C149.137 101.862 149.281 101.741 149.369 101.649C147.418 100.769 145.267 100.262 143.249 99.5818C135.285 97.4977 126.82 96.1567 118.309 95.4952L118.274 95.4308C122.43 94.7693 127.063 94.6451 131.501 94.5964C137.346 94.4669 143.274 95.0252 149.153 95.5543L149.256 95.3305C147.057 94.7072 142.176 93.7515 142.176 93.7515C132.236 92.2594 121.794 91.2469 111.571 91.0987C111.604 91.0336 114.048 90.2913 116.621 89.9111C123.632 88.7909 131.623 88.6614 138.607 88.5858C139.947 87.5142 140.634 87.2066 142.166 86.5504C136.594 84.8449 130.717 84.9093 124.982 84.2507C120.21 84.0539 115.645 83.0983 111.345 81.4146C109.789 79.7383 108.199 78.092 106.934 76.3431C107.19 76.1568 107.295 76.2698 107.295 76.2698C107.295 76.2698 109.631 77.0069 110.85 77.3197C112.502 78.0516 114.004 78.9503 115.787 79.5759C116.554 79.9082 117.709 80.224 118.506 80.3213C117.641 77.765 117.842 76.2406 117.881 76.0378C117.92 75.8298 118.008 75.6816 118.008 75.6816C118.742 75.8679 119.182 75.9892 119.881 76.2054C119.881 76.2054 119.81 76.4808 119.962 77.3766L122.382 77.6871C122.178 78.0269 120.94 78.6906 120.534 79.0124C120.534 79.0124 120.709 79.5976 120.935 79.9972C121.238 80.5345 121.512 80.9124 122.133 81.0524C124.465 80.7074 126.239 78.6719 126.239 78.6719L128.629 79.3417C128.629 79.3417 128.432 79.9351 127.754 80.7583C129.358 80.9282 132.24 80.6827 134.169 80.6587C134.602 80.6475 134.727 80.6475 134.971 80.4342C135.329 80.0219 135.797 79.6515 136.058 79.1875C134.788 78.9608 134.215 78.7423 134.294 78.7745C133.955 78.7505 133.616 78.7341 133.282 78.6936C129.394 77.649 125.56 76.1807 121.991 74.6669C118.224 73.1365 113.5 74.5913 109.543 73.4254C107.378 72.7721 105.049 72.4563 102.915 71.8217C102.903 71.8165 102.847 71.7948 102.77 71.7678C102.774 71.7731 102.779 71.7761 102.784 71.7813C102.778 71.7761 102.769 71.7648 102.767 71.7648V71.7626C102.659 71.7244 102.513 71.6683 102.37 71.6144C102.372 71.7544 102.373 71.9003 102.374 72.0432C103.04 72.8559 104.137 74.1782 104.429 74.4454C103.997 74.3324 103.284 74.0996 102.397 73.8325C100.787 73.3468 98.5954 72.7452 96.4111 72.5319C95.3739 72.4316 94.2491 72.3455 92.9216 72.0732C93.0915 72.3291 95.6066 75.2902 95.6066 75.2902C87.5837 73.6761 82.9665 71.8165 79.7809 69.4383C76.6005 67.0526 75.1936 64.3077 74.9295 63.7817C74.3802 62.6614 74.1512 61.2523 74.8397 60.6125C75.6943 59.8492 77.5165 60.2967 77.9093 60.394C78.5387 60.5563 78.7834 60.6207 79.2152 60.7232C79.6021 60.8123 80.1244 60.8691 82.8678 61.4334C86.1237 62.1106 94.8306 62.9877 102.288 63.1635C103.151 63.1822 103.997 63.1927 104.816 63.1927C108.455 63.1927 112.469 63.5631 114.723 64.1917C114.723 64.1917 110.704 64.3077 109.344 64.6048L109.957 65.0718C111.716 65.0718 120.871 65.9458 125.635 66.9501L123.425 67.2494L123.88 67.6677C125.387 67.7949 131.41 69.3283 139.561 71.7087L140.367 71.4902C140.367 71.4902 132.797 66.1591 131.54 65.5305C130.73 66.0296 130.551 66.1269 129.84 66.5183C129.564 66.6724 129.124 66.7637 128.749 66.5774C126.958 65.6787 121.934 63.2062 120.62 62.6913C120.62 62.6913 118.626 63.5871 117.86 63.3169L109.33 60.3079C108.626 60.4374 105.616 60.8287 102.274 61.1445C99.0901 61.4498 95.6074 61.6841 93.527 61.5629C95.2048 61.0877 99.2764 60.1485 102.264 59.6277C102.404 59.603 102.549 59.579 102.686 59.5551C104.063 59.3066 106.446 59.1794 110.963 59.4309C115.479 59.6786 129.114 61.6003 133.914 62.5589C135.795 62.9368 138.636 64.0084 141.823 66.3185C143.196 67.3227 149.913 71.5441 150.32 73.0557C150.531 73.8325 150.772 74.729 150.539 76.7397L149.891 76.5616C149.891 76.5616 149.281 75.2146 149.029 74.9557C147.878 73.7299 145.392 74.0944 145.392 74.0944C145.392 74.0944 144.883 75.9435 148.798 77.9191C149.299 78.1758 151.701 78.8964 152.596 79.0985C153.725 79.3552 158.588 81.0337 158.433 80.9364C158.449 80.9476 158.475 80.9581 158.505 80.9768C161.12 81.9915 163.779 83.1095 165.836 84.8741C166.459 85.4788 167.03 86.81 167.337 88.9039C167.532 90.3317 167.764 91.6517 167.84 92.9875C166.806 93.8167 163.227 95.1629 163.227 95.1629L163.444 95.5925C163.444 95.5925 166.405 95.4308 167.666 95.0873C167.742 96.4186 167.406 97.9594 167.221 99.2091C166.047 99.584 163.181 100.154 163.181 100.154L163.432 100.723L166.933 100.713C166.827 102.038 166.127 103.711 165.794 104.178C164.96 104.561 164.437 104.729 163.261 104.893C162.806 104.95 162.497 105.004 161.938 105.053C162.061 105.274 162.087 105.347 162.165 105.482C163.084 105.606 164.719 105.671 165.276 105.714C164.986 106.54 164.66 106.945 164.32 107.43C163.813 108.14 163.114 108.937 161.963 109.749C159.956 108.972 159.079 106.308 159.036 104.78C158.823 102.235 159.389 96.2076 160.008 94.4722C161.042 92.2077 163.349 90.8099 164.094 90.3399C164.652 88.4698 165.958 86.92 165.953 86.8609C165.91 86.5287 165.691 86.2428 165.691 86.2428C165.691 86.2428 165.129 86.4239 164.88 86.5212C164.532 86.6858 163.667 86.9066 162.911 87.7005C162.828 87.8083 162.669 87.9565 162.556 88.1054C162.397 87.8465 161.627 86.5212 161.627 86.5212L156.435 86.6424C156.435 86.6424 155.959 87.5733 155.097 88.0485C155.01 87.943 154.779 87.7357 154.593 87.5868L154.16 87.4873C153.24 87.3249 152.558 87.3009 151.524 87.277C150.709 87.277 149.005 87.2658 149.005 87.2658L148.988 87.7574C148.988 87.7574 150.421 87.9647 151.634 90.6318C152.784 90.8256 153.838 91.1743 154.899 91.5657C156.925 92.6695 158.505 94.9661 158.298 97.7409C158.448 102.011 155.873 105.142 152.489 107.355C150.494 108.661 145.472 109.727 141.042 109.417C139.82 109.228 138.695 109.034 137.026 108.491C134.869 107.805 132.253 106.945 129.231 106.799C124.663 106.721 119.708 107.984 117.368 112.081C114.849 116.496 115.883 121.633 115.883 121.633C117.89 120.254 121.038 119.454 123.609 120.245C124.599 120.637 125.33 120.88 126.132 121.344C126.049 120.796 125.267 119.868 124.389 119.22C126.57 118.942 128.485 119.984 130.168 121.042C130.804 121.482 131.161 121.814 131.845 122.451C131.758 119.916 132.816 117.069 134.03 115.735C138.22 111.15 144.059 110.375 151.443 109.347C153.025 109.13 154.817 108.715 156.229 108.016C156.988 108.524 157.55 108.801 158.425 109.179C159.051 109.52 159.716 109.795 160.411 109.997C160.698 112.794 158.564 115.568 157.052 116.92C156.328 117.573 155.209 118.472 153.194 119.252C153.4 118.988 154.278 117.635 154.458 117.376C155.164 116.11 155.677 114.875 155.826 113.43C155.834 112.812 155.741 111.905 155.17 111.438C153.255 110.758 150.811 110.831 148.868 111.355C148.521 112.362 148.469 112.885 147.649 114.373C147.209 115.098 147.099 115.32 146.628 115.886C145.534 117.233 144.066 118.629 141.996 119.817C141.807 119.921 142.127 119.422 142.148 119.179C142.696 117.101 143.272 114.737 143.099 112.564C139.68 112.713 137.193 115.636 135.797 118.164C135.416 118.856 135.069 119.984 134.995 120.977C134.929 122.189 135.301 124.361 136.707 125.223C135.611 126.632 133.982 127.924 132.178 128.534C128.915 129.56 127.646 125.506 125 124.772C123.001 124.022 120.048 123.46 117.136 124.642L116.81 124.813C117.056 126.407 117.607 128.046 118.241 129.46L118.652 129.962C121.235 128.224 124.198 129.975 126.386 131.08C131.428 132.345 135.438 128.494 138.6 125.384C138.953 125.085 139.02 124.912 139.519 124.413C140.421 126.273 139.617 128.329 138.554 129.889C137.965 130.758 137.306 131.628 136.551 132.37C136.811 132.664 137.25 132.734 137.611 132.826C138.993 133.131 140.854 132.71 141.58 132.493C144.212 131.46 148.086 128.58 149.864 126.599C150.354 128.726 149.527 131.36 147.893 133.468C149.644 133.611 150.301 133.644 151.27 133.724C150.996 135.166 150.372 136.507 149.668 138.033C148.403 140.257 146.935 142.421 144.972 144.054C144.486 144.448 144.796 144.178 143.943 144.88C144.059 143.827 144.113 143.465 144.024 142.631C142.356 144.14 135.803 148.086 131.47 149.26C131.47 149.26 132.32 147.223 132.603 145.997C129.403 147.738 125.409 149.007 122.862 149.659C123.481 148.561 124.31 146.634 124.31 146.634C122.116 147.463 119.453 148.08 116.987 148.574C117.597 147.319 118.224 145.606 118.39 144.472C116.368 144.842 113.167 145.026 113.167 145.026C113.005 144.305 112.875 143.959 112.63 143.141C112.05 141.678 111.711 141.033 110.893 140.04C109.28 138.351 107.256 137.117 105.079 136.167C103.836 135.622 102.546 135.171 101.252 134.783C99.2136 134.329 96.982 134.016 94.9286 133.986C94.071 133.995 93.8787 134.021 93.0016 134.121C93.6699 134.31 93.9012 134.329 94.5073 134.504C97.4752 135.293 100.686 136.032 104.406 138.162L102.417 138.334C95.0326 139.13 86.1148 142.407 79.596 145.201C86.3033 146.091 93.3197 146.57 100.548 146.57C104.144 146.57 107.685 146.451 111.169 146.221C111.221 146.461 111.265 146.704 111.302 146.931C112.782 146.931 114.744 146.834 116.495 146.707C116.339 147.371 115.568 148.96 115.03 150.191C110.314 150.613 105.476 150.833 100.548 150.833C50.5092 150.833 9.93994 128.283 9.93994 100.467C9.93994 72.6613 50.5077 50.1052 100.548 50.1052C150.585 50.1052 191.148 72.6613 191.148 100.467C191.148 118.61 173.895 134.507 148.013 143.373" fill="#F1B82D"/>
<path d="M14.2876 100.462C14.2876 118.016 32.6411 133.272 59.6521 141.061C64.2207 139.906 68.5648 138.503 68.1682 138.416C64.4834 137.561 58.5873 136.052 56.3977 134.994C58.3732 134.9 70.1325 133.685 73.5217 132.553C69.477 131.712 54.3323 126.538 48.1211 123.064C50.8503 123.158 63.2614 123.987 67.7005 123.059L65.8079 122.5C58.6973 120.748 28.6384 107.645 14.5151 97.1178C14.3654 98.2246 14.2876 99.3396 14.2876 100.462Z" fill="black"/>
<path d="M108.674 53.993C108.409 53.988 108.181 54.0065 107.983 54.0456C106.27 54.4475 105.981 57.4227 105.88 58.6537C106.013 58.6507 106.142 58.6537 106.27 58.6537C106.27 58.6537 106.432 55.0561 110.999 56.0357L122.537 58.4503L122.583 58.4479L122.339 58.0995C120.6 57.7949 113.944 55.4144 112.179 54.794C110.58 54.2395 109.466 54.0079 108.674 53.993ZM76.5762 60.1784C75.9646 60.1497 75.296 60.2278 74.869 60.6098C74.1799 61.2497 74.4094 62.6583 74.9579 63.7786C75.2221 64.3054 76.6288 67.0498 79.8092 69.4355C82.9956 71.8137 87.6122 73.6743 95.6355 75.2877C95.6355 75.2877 93.1215 72.3265 92.9508 72.0698C91.5477 71.7623 85.8136 70.3783 81.5343 67.795C78.743 66.3163 75.6504 63.5097 75.9078 61.3959C75.909 61.3128 76.1279 60.3481 77.9388 60.3915C77.7424 60.3429 77.1878 60.2071 76.5762 60.1784ZM100.666 68.9009C100.666 68.9009 100.69 69.86 101.899 71.4008C101.886 71.4008 101.877 71.395 101.877 71.395C101.877 71.395 102.095 71.6625 102.402 72.0404C102.402 71.8975 102.401 71.7512 102.399 71.6113C102.542 71.6651 102.687 71.7216 102.794 71.7598V71.7621C102.797 71.7621 102.806 71.7732 102.812 71.7785C102.808 71.7733 102.802 71.7697 102.799 71.7644C102.875 71.7914 102.931 71.8142 102.944 71.8194C105.078 72.454 107.406 72.7692 109.571 73.4224C113.528 74.5883 118.252 73.1339 122.018 74.6642C125.588 76.1781 129.422 77.6465 133.31 78.6912C133.643 78.7316 133.982 78.7479 134.322 78.7718C132.502 77.9674 128.379 76.0922 126.009 74.6023C126.009 74.6023 121.28 71.8354 115.242 71.5084C115.242 71.5084 107.021 71.3435 100.666 68.9009ZM118.04 75.679C118.04 75.679 117.953 75.8264 117.914 76.0345C117.875 76.2365 117.673 77.7623 118.537 80.3186C117.741 80.2214 116.587 79.9049 115.819 79.5726C114.037 78.9463 112.534 78.0483 110.882 77.3171C109.663 77.0043 107.327 76.2671 107.327 76.2671C107.327 76.2671 107.222 76.1533 106.966 76.3396C108.231 78.0884 109.82 79.7352 111.377 81.4107C115.677 83.0952 120.242 84.0505 125.014 84.2474C130.749 84.9059 136.627 84.8419 142.198 86.5473C140.665 87.2029 139.979 87.511 138.639 88.5818C131.656 88.6574 123.663 88.7883 116.653 89.9077C114.08 90.2886 111.636 91.0302 111.603 91.0945C121.825 91.2435 132.268 92.2558 142.207 93.7488C142.207 93.7488 147.089 94.7039 149.287 95.3273L149.185 95.5518C143.305 95.0227 137.378 94.4635 131.533 94.593C127.095 94.6416 122.461 94.7659 118.305 95.4267L118.341 95.4921C126.852 96.1529 135.316 97.4954 143.279 99.5787C145.298 100.259 147.45 100.766 149.401 101.646C149.312 101.738 149.168 101.859 149.071 101.959C143.239 100.169 136.773 100.024 130.591 99.705C128.082 99.7267 125.629 99.5163 123.165 99.9623C123.165 99.9623 137.714 102.672 143.76 105.924C143.703 106.008 143.649 106.078 143.57 106.151C141.165 105.419 139.052 105.088 136.331 104.507C129.596 103.031 120.401 103.277 115.992 109.128C114.672 110.923 112.333 114.844 112.797 121.348C112.797 121.348 106.932 118.095 103.83 111.903C103.83 111.903 103.83 117.276 105.135 120.209C105.135 120.209 103.178 118.909 102.034 116.467C102.034 116.467 104.332 128.615 105.474 131.713C105.474 131.713 94.1704 125.551 86.7038 106.688C86.7038 106.688 86.0528 108.159 86.5354 111.903C86.5354 111.903 78.7223 106.591 75.7966 101.632C77.0755 103.856 84.9783 117.433 90.0616 122.064C90.0616 122.064 68.7647 116.961 60.2864 111.579C60.2864 111.579 61.2587 113.371 63.7065 115.652C63.7065 115.652 52.7809 114.185 47.7275 112.55C47.7275 112.55 61.2711 119.22 74.6429 123.295C74.6429 123.295 68.603 125.103 62.7295 125.913C62.7295 125.913 70.2307 129.66 79.6944 132.269C79.6944 132.269 75.9417 134.87 68.2767 136.342C68.2767 136.342 69.578 137.311 73.1677 138.291L71.3355 139.098C71.3213 139.092 71.2184 139.146 71.0186 139.244C69.5496 139.865 67.5881 140.634 65.9919 141.063L63.1062 142.013C63.1795 142.034 63.2621 142.053 63.3377 142.074C66.7164 143.005 73.409 144.388 79.6142 145.2C79.6178 145.2 79.6233 145.198 79.627 145.198C86.1459 142.404 95.063 139.128 102.448 138.331L104.438 138.158C100.717 136.029 97.5063 135.289 94.5387 134.501C93.9326 134.326 93.7021 134.307 93.0338 134.117C93.9102 134.018 94.102 133.991 94.9596 133.983C97.0138 134.012 99.2457 134.326 101.284 134.779C102.578 135.168 103.868 135.618 105.111 136.164C107.287 137.113 109.311 138.348 110.923 140.037C111.742 141.03 112.082 141.675 112.661 143.138C112.907 143.956 113.036 144.301 113.199 145.022C113.199 145.022 116.399 144.839 118.421 144.469C118.255 145.603 117.628 147.316 117.018 148.571C119.484 148.077 122.148 147.459 124.342 146.631C124.342 146.631 123.512 148.557 122.893 149.656C125.439 149.003 129.433 147.734 132.633 145.994C132.351 147.219 131.501 149.257 131.501 149.257C135.835 148.083 142.386 144.136 144.055 142.628C144.145 143.462 144.09 143.824 143.975 144.877C144.828 144.175 144.518 144.444 145.004 144.05C146.967 142.418 148.435 140.253 149.7 138.029C150.403 136.503 151.027 135.162 151.302 133.721C150.333 133.64 149.675 133.608 147.925 133.465C149.558 131.357 150.385 128.722 149.894 126.595C148.118 128.576 144.244 131.456 141.611 132.489C140.885 132.706 139.023 133.127 137.643 132.823C137.28 132.731 136.843 132.66 136.583 132.366C137.337 131.623 137.997 130.754 138.586 129.885C139.649 128.325 140.452 126.269 139.55 124.41C139.052 124.909 138.985 125.081 138.632 125.38C135.47 128.49 131.459 132.342 126.418 131.076C124.23 129.972 121.267 128.22 118.684 129.958L118.274 129.456C117.639 128.042 117.088 126.404 116.841 124.809L117.168 124.638C120.079 123.455 123.033 124.018 125.032 124.768C127.678 125.502 128.947 129.556 132.21 128.53C134.013 127.92 135.643 126.627 136.739 125.219C135.334 124.358 134.961 122.186 135.027 120.973C135.101 119.98 135.448 118.852 135.829 118.161C137.224 115.632 139.711 112.709 143.131 112.56C143.304 114.733 142.728 117.097 142.179 119.175C142.158 119.418 141.839 119.918 142.028 119.812C144.097 118.625 145.566 117.229 146.66 115.882C147.131 115.315 147.24 115.095 147.681 114.368C148.502 112.881 148.553 112.358 148.899 111.352C150.842 110.828 153.286 110.754 155.201 111.435C155.773 111.901 155.866 112.809 155.858 113.427C155.708 114.87 155.196 116.107 154.49 117.373C154.309 117.632 153.431 118.985 153.224 119.249C155.24 118.469 156.359 117.569 157.084 116.916C158.596 115.564 160.73 112.79 160.443 109.994C159.748 109.791 159.083 109.516 158.456 109.176H158.452C157.577 108.798 157.015 108.52 156.257 108.012C154.845 108.712 153.053 109.128 151.47 109.344C144.086 110.372 138.247 111.146 134.056 115.732C132.843 117.065 131.785 119.913 131.872 122.447C131.188 121.81 130.832 121.478 130.196 121.038C128.513 119.98 126.598 118.939 124.417 119.216C125.294 119.864 126.078 120.792 126.16 121.341C125.359 120.876 124.626 120.633 123.637 120.242C121.065 119.451 117.918 120.251 115.909 121.63C115.909 121.63 114.876 116.493 117.395 112.077C119.735 107.98 124.691 106.717 129.258 106.795C132.281 106.941 134.897 107.802 137.054 108.487C138.722 109.03 139.847 109.225 141.069 109.413C145.498 109.724 150.521 108.658 152.517 107.352C155.9 105.138 158.475 102.007 158.325 97.7379C158.531 94.9631 156.952 92.6664 154.926 91.5621C153.864 91.1707 152.811 90.8224 151.66 90.6279C150.447 87.9615 149.015 87.7538 149.015 87.7538L149.032 87.2627C149.032 87.2627 150.735 87.2732 151.55 87.2732C152.585 87.2979 153.266 87.3213 154.187 87.4837C152.535 85.9047 149.648 83.7834 146.068 83.8859L147.535 82.7447C147.535 82.7447 145.118 81.303 141.01 81.6023L142.368 80.5722C142.368 80.5722 141.32 79.6401 138.24 79.4672C138.114 79.4538 138.002 79.4403 137.891 79.4298C137.373 79.3647 136.788 79.2223 136.089 79.1714V79.1843C135.829 79.6482 135.36 80.0176 135.002 80.4307C134.758 80.644 134.633 80.6447 134.199 80.6552C132.27 80.6799 129.389 80.9256 127.785 80.7557C128.463 79.9326 128.659 79.3374 128.659 79.3374L126.271 78.6747C126.271 78.6747 124.497 80.7096 122.165 81.0554C121.543 80.9154 121.271 80.538 120.967 80.0007C120.741 79.6011 120.566 79.015 120.566 79.015C120.972 78.694 122.209 78.0295 122.414 77.6891L119.994 77.3792C119.842 76.4827 119.913 76.2076 119.913 76.2076C119.214 75.9921 118.774 75.8706 118.04 75.685L118.04 75.679ZM158.373 80.915C159.007 81.3333 159.573 81.7186 160.095 82.0831C160.449 82.339 160.885 82.6531 161.35 82.9928C163.607 84.6825 164.509 85.7376 164.909 86.5181C165.158 86.4209 165.719 86.2399 165.719 86.2399C165.719 86.2399 165.938 86.5261 165.981 86.8584C165.989 86.9175 164.68 88.4669 164.122 90.3369C163.378 90.8069 161.07 92.2047 160.036 94.4691C159.417 96.2045 158.851 102.231 159.064 104.776C159.107 106.304 159.985 108.969 161.992 109.746C163.142 108.934 163.841 108.137 164.348 107.427C164.688 106.941 165.014 106.537 165.304 105.711C164.748 105.668 163.113 105.603 162.193 105.479C162.115 105.344 162.089 105.271 161.967 105.05C162.525 105.001 162.835 104.948 163.29 104.891C164.465 104.726 164.989 104.558 165.822 104.175C166.155 103.708 166.855 102.035 166.961 100.71L163.46 100.72L163.209 100.151C163.209 100.151 166.075 99.5809 167.249 99.206C167.434 97.9562 167.77 96.416 167.694 95.0855C166.433 95.4282 163.472 95.5894 163.472 95.5894L163.256 95.1603C163.256 95.1603 166.834 93.8134 167.869 92.9843C167.792 91.6485 167.56 90.329 167.366 88.9012C167.059 86.8074 166.488 85.4758 165.864 84.8719C163.807 83.1065 161.149 81.989 158.533 80.9736C158.478 80.9549 158.425 80.9367 158.373 80.915Z" fill="white"/>
</g>
<defs>
<clipPath id="clip0_15016_302054">
<rect width="200" height="200" fill="white" transform="translate(-0.0078125)"/>
</clipPath>
</defs>
</svg>
