<svg width="201" height="201" viewBox="0 0 201 201" fill="none" xmlns="http://www.w3.org/2000/svg">
<g clip-path="url(#clip0_15016_302246)">
<path d="M177.045 123.068C176.316 112.484 172.668 105.299 170.892 102.371C176.012 104.979 176.676 105.267 176.676 105.267L176.717 104.755C177.981 84.9787 162.556 75.2583 161.412 74.5623C155.148 62.2258 144.579 54.7775 141.907 53.0334C145.435 51.1133 149.219 49.1452 149.971 48.7532L150.339 48.5612L150.091 48.2252C138.619 32.7606 121.17 31.0885 114.21 31.0885C112.794 31.0885 111.73 31.1525 111.122 31.2085C112.162 26.8803 113.186 23.8002 113.194 23.7682L113.33 23.3682L112.906 23.3042C109.01 22.7522 105.242 22.4722 101.714 22.4722C88.417 22.4722 80.1767 26.4643 75.6085 29.8165C72.0723 32.4086 70.1203 35.0327 69.2802 36.3607C68.6162 32.5526 68.4082 30.9125 68.4002 30.8405L68.3442 30.3845L67.9122 30.5525C55.1277 35.6807 52.5596 46.4891 52.0795 49.7133C51.4395 47.7772 50.9995 46.3131 50.9835 46.2411L50.8155 45.6731L50.3915 46.0891C47.2633 49.1532 45.2953 53.0894 44.5512 57.7936C40.087 59.5697 33.8308 63.3538 29.1586 71.3221C28.8786 71.7701 28.1266 73.0102 27.2945 74.9303C25.1345 79.7945 22.0703 89.8509 25.8065 102.555C26.9025 106.292 28.5986 109.98 30.7827 113.348L35.9669 120.7L41.8231 103.995H61.8319C62.5519 105.043 62.4479 107.076 58.2958 110.884C58.2958 110.884 53.3516 115.38 53.2956 115.428C51.7035 116.836 49.0234 119.476 46.6793 123.068H7.66175L0.605469 151.469H45.4473C45.4473 152.237 45.4633 153.005 45.5113 153.781L45.5433 154.237L46.0393 154.077C47.1593 153.709 50.1995 152.709 53.9836 151.469H65.064C59.5678 156.63 54.9836 160.606 54.9196 160.654L54.4556 161.062L55.0396 161.262C62.0239 163.686 69.3842 164.918 76.9205 164.918C86.2649 164.918 93.4012 163.03 96.4413 162.062C93.1132 167.414 85.5929 176.678 85.5209 176.774L85.1049 177.278L85.7529 177.35C88.361 177.638 90.9691 177.782 93.5052 177.782C104.81 177.782 115.234 175.022 124.49 169.582C132.531 164.854 136.875 159.758 138.299 157.886C139.987 165.422 141.099 170.038 141.227 170.55L141.339 171.03L141.755 170.774C151.163 164.942 156.684 157.902 159.924 151.469H193.549L200.605 123.068H177.045Z" fill="#041E42"/>
<path d="M89.2968 92.8994C87.7848 82.779 76.4483 80.6509 67.976 80.8829C68.744 76.7948 68.512 72.1466 66.6559 68.3784C64.2158 63.4422 59.0956 61.5621 53.8554 61.5942C45.3511 61.9782 37.9268 67.3784 33.7266 74.5867C33.7266 74.5867 23.7662 89.5633 34.7347 109.476C35.1507 106.164 35.8147 102.844 36.9187 99.6917C37.9268 96.8116 39.7269 92.4834 43.295 92.1874C49.6553 91.8114 56.0395 91.6594 62.4078 91.6754C71.3121 91.7074 80.7605 91.6994 89.4088 94.0594C89.3928 93.7314 89.3608 93.3394 89.2968 92.8994ZM59.5516 74.3227C59.2396 74.7707 58.6156 75.3547 57.6156 74.9947C55.8315 74.3147 54.1914 72.9946 53.4154 71.2185C53.4154 71.2185 51.7433 68.1464 54.3514 67.4344C55.1435 70.2025 57.2636 72.5786 59.7997 73.8826C59.7997 73.8826 59.7197 74.0907 59.5516 74.3227Z" fill="#A2AAAD"/>
<path d="M123.482 90.8682C123.89 92.1242 124.362 93.7963 124.77 95.8363V95.8604C125.082 97.4044 125.354 99.1565 125.538 101.101C125.538 101.109 125.546 101.125 125.546 101.141C126.218 108.205 125.506 115.381 123.658 122.221C118.465 112.837 110.577 103.973 101.201 98.6525C101.209 98.6285 101.209 98.6125 101.209 98.5885C102.297 92.9082 107.665 90.2441 112.945 89.6201C115.473 89.4121 118.105 89.3321 119.978 89.6121C119.722 84.6039 117.297 79.5717 113.865 75.9796C116.905 74.8675 120.058 73.7235 123.282 73.2674C121.282 67.5792 116.537 62.731 111.073 60.3069C112.353 57.7468 113.705 55.1067 115.481 52.8426C115.481 52.8426 103.513 46.4664 91.5844 55.2667C91.8804 52.4746 92.3204 49.4585 92.9444 47.4344C92.9444 47.4344 76.2398 45.3703 69.0235 63.115C65.9674 59.5469 61.1592 57.7788 56.631 57.0428C56.471 50.7865 58.6551 44.0183 64.3593 40.7541C64.3593 40.7541 65.7273 46.5624 67.6554 48.6185C67.6554 48.6185 78.9039 28.0416 103.241 29.6817C103.241 29.6817 102.417 32.4258 101.321 38.4581C101.321 38.4581 124.098 33.2498 138.634 46.6904C138.634 46.6904 133.802 49.4585 128.554 52.4346C145.059 59.4509 151.083 71.7394 151.083 71.7394C141.266 71.2194 129.93 74.4835 126.266 75.6355C136.002 81.0198 147.787 90.3881 152.259 105.461C152.267 105.485 142.018 94.2763 123.482 90.8682ZM150.819 91.0682C161.819 105.037 162.867 118.725 162.867 118.725C165.091 120.269 167.067 121.805 168.619 123.061H171.788C169.171 99.8445 150.819 91.0682 150.819 91.0682ZM148.035 77.4756C158.155 84.5319 160.859 91.0122 160.859 91.0122C165.819 93.0922 169.772 95.6203 169.772 95.6203C165.315 77.4276 148.035 77.4756 148.035 77.4756ZM131.594 112.973C131.354 116.381 130.802 119.765 129.922 123.069H135.874C134.882 119.901 133.482 116.541 131.594 112.973ZM111.361 151.471C109.361 158.295 105.945 164.735 101.481 170.271C112.905 167.479 125.394 161.223 132.354 151.471H111.361ZM77.3598 151.471C75.2317 153.455 72.9276 155.463 70.4075 157.487C80.5119 157.303 91.1364 155.639 100.417 151.471H77.3598ZM114.825 120.853C111.193 115.573 106.649 110.893 101.433 107.165C101.393 110.853 100.713 116.349 98.0326 123.069H116.265C115.793 122.309 115.313 121.565 114.825 120.853ZM131.834 99.4205C135.138 103.149 141.13 111.269 143.634 123.069H156.155C151.507 110.677 138.45 102.757 131.834 99.4205ZM144.482 151.471C144.955 153.959 145.363 156.455 145.699 158.967C147.947 156.391 149.827 153.887 151.395 151.471H144.482ZM71.5996 123.069H89.7923C90.6723 121.141 91.4244 119.109 91.7924 117.021C84.7281 117.669 77.8078 119.605 71.5996 123.069ZM53.2148 123.069H57.207C58.287 120.981 59.4871 118.949 60.7671 116.973C57.951 118.541 55.3349 120.637 53.2148 123.069Z" fill="#1F355E"/>
<path d="M85.1281 99.5388H64.6393C63.0232 99.4908 61.6072 99.4748 60.4391 99.5308C60.3991 99.5388 60.3511 99.5388 60.3031 99.5388H42.6224C43.2385 96.3547 45.3985 96.2267 45.3985 96.2267C46.2226 96.0667 48.7107 96.0347 50.2867 95.9627C56.511 95.8587 62.7512 95.8667 68.9755 96.2187C71.9756 96.3867 74.9837 96.6187 77.9518 97.0907C80.1759 97.4427 83.04 97.7867 84.8481 99.2748C84.9521 99.3548 85.0481 99.4508 85.1281 99.5388ZM27.1818 125.892C25.8138 125.892 25.2137 126.5 24.6377 127.54L20.7096 135.02L20.3495 128.276C20.2775 126.804 19.8615 125.892 17.9894 125.892H9.86912L4.21289 148.637H11.8372L14.1973 139.124L14.7173 146.333C14.8213 147.757 15.2453 148.645 16.9894 148.645H18.7095C19.9335 148.645 20.5255 148.029 21.0936 147.029L25.4057 139.46L23.1336 148.637H30.878L36.5342 125.892H27.1818ZM54.8709 127.244C53.9349 126.308 52.4148 125.892 49.9267 125.892H44.3985C42.1424 125.892 40.4143 126.228 38.7583 127.876C37.6462 128.988 36.0222 131.084 34.7421 136.412C33.4381 141.893 33.6941 145.453 35.5261 147.285C36.4622 148.221 37.9902 148.637 40.4703 148.637H45.9986C48.2547 148.637 49.9827 148.301 51.6388 146.653C52.7508 145.541 54.3829 143.445 55.655 138.116C56.967 132.636 56.711 129.076 54.8709 127.244ZM47.6466 137.076C46.9266 139.972 46.3506 141.66 45.9266 142.077C45.8706 142.109 45.6866 142.157 44.9665 142.157H42.9424C42.3664 142.157 42.0944 142.133 41.9744 142.109C41.9344 141.804 41.9184 140.748 42.7424 137.46C43.4625 134.556 44.0465 132.876 44.4625 132.452C44.5185 132.42 44.7025 132.38 45.4225 132.38H47.4466C48.0146 132.38 48.2867 132.404 48.4067 132.428C48.4547 132.748 48.4467 133.812 47.6466 137.076ZM81.072 125.892L75.4157 148.637H70.9836C68.9595 148.637 67.9754 147.997 67.3354 146.269L64.2953 137.82L61.6312 148.637H53.8549L59.5111 125.892H64.9993C66.9594 125.892 67.9914 126.572 68.5595 128.244L70.9996 135.356L73.2877 125.892H81.072ZM109.049 125.892L103.393 148.637H95.6566L97.9286 139.452L93.6085 147.021C93.0484 148.013 92.4484 148.637 91.2244 148.637H89.5043C87.7522 148.637 87.3362 147.757 87.2322 146.325L86.7122 139.116L84.3521 148.629H76.7278L82.384 125.884H90.5043C92.3764 125.884 92.8004 126.796 92.8724 128.268L93.2245 135.012L97.1526 127.532C97.7286 126.484 98.3287 125.884 99.6967 125.884H109.049V125.892ZM127.386 127.244C126.45 126.308 124.93 125.892 122.442 125.892H116.913C114.657 125.892 112.929 126.228 111.273 127.876C110.161 128.988 108.537 131.084 107.257 136.412C105.953 141.893 106.201 145.453 108.041 147.285C108.977 148.221 110.497 148.637 112.985 148.637H118.513C120.77 148.637 122.498 148.301 124.154 146.653C125.266 145.541 126.898 143.445 128.17 138.116C129.482 132.636 129.226 129.076 127.386 127.244ZM120.162 137.076C119.441 139.972 118.857 141.66 118.441 142.077C118.385 142.109 118.201 142.157 117.481 142.157H115.457C114.881 142.157 114.617 142.133 114.489 142.109C114.449 141.804 114.433 140.748 115.257 137.46C115.977 134.556 116.553 132.876 116.977 132.452C117.033 132.42 117.217 132.38 117.937 132.38H119.962C120.53 132.38 120.802 132.404 120.922 132.428C120.97 132.748 120.962 133.812 120.162 137.076ZM153.035 125.892L149.643 139.54C148.403 144.493 147.507 145.677 146.475 146.709C144.859 148.325 143.018 148.637 140.202 148.637H135.61C132.37 148.637 130.602 148.181 129.49 147.069C128.082 145.661 127.922 143.141 128.978 138.908L132.21 125.884H140.346L136.962 139.5C136.642 140.836 136.586 141.38 136.594 141.588C136.81 141.636 137.274 141.66 137.97 141.66H139.418C140.098 141.66 140.69 141.66 140.818 141.532C140.978 141.372 141.178 140.908 141.61 139.156L144.907 125.892H153.035ZM174.556 125.892C174.012 128.06 173.452 130.228 172.916 132.404H166.659C165.315 137.812 163.979 143.229 162.635 148.637H154.499C155.835 143.229 157.179 137.812 158.523 132.404H152.411C152.955 130.236 153.499 128.06 154.051 125.892H174.556ZM196.997 125.892C195.109 133.476 193.228 141.06 191.34 148.637H183.204C183.876 145.909 184.556 143.173 185.228 140.444H179.972C179.3 143.173 178.612 145.901 177.948 148.637H169.812C171.724 141.06 173.58 133.468 175.468 125.892H183.604C182.932 128.548 182.276 131.212 181.604 133.868H186.86C187.524 131.212 188.188 128.548 188.852 125.892H196.997Z" fill="#55565A"/>
<path d="M102.53 68.8349C100.274 76.0992 93.9538 80.3553 86.2255 80.2113C83.0094 78.3713 79.6173 77.2672 76.8011 76.6112C76.0091 75.8032 75.2971 74.8431 74.8491 73.8031C75.7371 73.3231 76.6331 72.867 77.5372 72.427C78.3852 75.4832 80.9533 76.8112 83.2894 76.8192C87.2496 76.8432 90.9057 72.651 88.5776 68.0749C93.2258 66.6988 98.266 65.7468 103.114 66.5148C102.962 67.3388 102.762 68.1069 102.53 68.8349ZM15.5107 146.278C15.5987 147.486 15.8467 147.846 16.9908 147.846H18.7108C19.4949 147.846 19.8869 147.542 20.4069 146.638L27.0232 135.03H27.3272L24.151 147.846H30.2553L35.5115 126.685H27.1752C26.2391 126.685 25.8471 126.989 25.3351 127.925L20.3189 137.478H20.0469L19.5589 128.317C19.5029 127.045 19.2228 126.685 17.9908 126.685H10.4945L5.23828 147.846H11.2225L14.3986 135.03H14.7027L15.5107 146.278ZM40.4717 147.846C37.7836 147.846 36.6955 147.334 36.0875 146.726C34.6955 145.334 34.1194 142.438 35.5115 136.598C36.7835 131.309 38.3836 129.373 39.3196 128.437C40.7437 127.013 42.1918 126.685 44.3998 126.685H49.9361C52.6242 126.685 53.7122 127.197 54.3202 127.805C55.7123 129.197 56.2803 132.093 54.8963 137.934C53.6242 143.222 52.0242 145.158 51.0881 146.094C49.6641 147.518 48.216 147.846 46.0079 147.846H40.4717ZM41.3757 142.678C41.5597 142.862 41.8317 142.95 42.9438 142.95H44.9679C45.9039 142.95 46.2399 142.894 46.4799 142.646C46.7199 142.406 47.264 141.894 48.416 137.262C49.5041 132.821 49.232 132.061 49.024 131.853C48.84 131.669 48.568 131.581 47.448 131.581H45.4239C44.4879 131.581 44.1518 131.645 43.9118 131.885C43.6718 132.125 43.1278 132.637 41.9758 137.27C40.8637 141.71 41.1677 142.47 41.3757 142.678ZM74.8011 147.846H70.9929C69.3048 147.846 68.6088 147.39 68.0888 146.006L64.2486 135.334H64.0966L61.0165 147.846H54.8803L60.1365 126.685H65.0007C66.6327 126.685 67.3608 127.173 67.8088 128.501L71.0409 137.934H71.1929L73.913 126.693H80.0493L74.8011 147.846ZM87.2096 135.03H86.9055L83.7294 147.846H77.7452L83.0014 126.685H90.4977C91.7377 126.685 92.0098 127.045 92.0658 128.317L92.5538 137.478H92.8258L97.842 127.925C98.354 126.989 98.754 126.685 99.6901 126.685H108.034L102.778 147.846H96.6739L99.8501 135.03H99.5461L92.9298 146.638C92.4178 147.542 92.0258 147.846 91.2337 147.846H89.5137C88.3616 147.846 88.1216 147.486 88.0336 146.278L87.2096 135.03ZM112.987 147.846C110.298 147.846 109.21 147.334 108.602 146.726C107.21 145.334 106.634 142.438 108.026 136.598C109.298 131.309 110.899 129.373 111.835 128.437C113.259 127.013 114.707 126.685 116.915 126.685H122.443C125.131 126.685 126.219 127.197 126.827 127.805C128.219 129.197 128.787 132.093 127.403 137.934C126.131 143.222 124.531 145.158 123.595 146.094C122.179 147.518 120.723 147.846 118.515 147.846H112.987ZM113.891 142.678C114.075 142.862 114.347 142.95 115.467 142.95H117.491C118.427 142.95 118.763 142.894 119.003 142.646C119.243 142.406 119.787 141.894 120.939 137.262C122.027 132.821 121.755 132.061 121.547 131.853C121.363 131.669 121.091 131.581 119.971 131.581H117.947C117.011 131.581 116.675 131.645 116.435 131.885C116.195 132.125 115.651 132.637 114.499 137.27C113.379 141.71 113.683 142.47 113.891 142.678ZM136.18 139.326C135.723 141.198 135.7 141.894 135.972 142.166C136.212 142.406 136.756 142.47 137.964 142.47H139.412C140.444 142.47 141.012 142.47 141.38 142.11C141.684 141.806 141.892 141.326 142.38 139.358L145.524 126.693H152.02L148.876 139.358C147.7 144.046 146.884 145.19 145.916 146.158C144.492 147.582 142.924 147.846 140.204 147.846H135.612C132.651 147.846 130.987 147.454 130.051 146.518C128.939 145.398 128.723 143.222 129.747 139.11L132.827 126.685H139.324L136.18 139.326ZM166.045 131.613L162.029 147.846H155.524L159.54 131.613H153.436L154.676 126.685H173.533L172.293 131.613H166.045ZM190.726 147.846H184.221L186.246 139.654H179.357L177.333 147.846H170.837L176.093 126.685H182.589L180.597 134.67H187.494L189.486 126.685H195.982L190.726 147.846Z" fill="white"/>
</g>
<defs>
<clipPath id="clip0_15016_302246">
<rect width="200" height="200" fill="white" transform="translate(0.605469 0.128906)"/>
</clipPath>
</defs>
</svg>
