<svg width="200" height="200" viewBox="0 0 200 200" fill="none" xmlns="http://www.w3.org/2000/svg">
<path d="M65.7379 27.2104C65.7379 27.2104 48.2609 27.7066 23.2016 58.7009C-1.85921 89.6983 -9.44293 122.999 14.6287 132.56C38.7003 142.123 68.7055 106.841 72.3309 88.7061C72.3309 88.7061 72.4973 86.0683 75.961 86.0683L79.0102 85.8202C79.0102 85.8202 80.8222 86.2332 81.5648 83.8434C82.306 81.4536 87.6663 70.736 87.6663 70.736C87.6663 70.736 87.9975 69.1705 84.7003 69.7468C84.7003 69.7468 50.0759 76.0131 40.6771 84.0914C31.2799 92.1683 38.3721 97.7751 41.6678 96.4547L46.7771 93.9818C46.7771 93.9818 51.3933 92.4995 48.4257 97.4454C48.4257 97.4454 40.0162 115.745 24.4086 118.165C24.4086 118.165 16.0565 118.605 16.9352 105.524C16.9352 105.524 21.5545 76.5092 52.8786 50.4593C52.8786 50.4593 73.9811 33.6432 65.4097 62.3294C65.4097 62.3294 64.5824 64.8024 73.6514 64.8024C82.7189 64.8024 83.8729 61.1769 84.2042 58.7009C84.5324 56.228 88.6555 27.2104 65.7379 27.2104ZM156.431 37.8661C155.055 37.8041 153.572 37.8963 152.06 38.1641C145.969 39.2379 141.494 42.7122 142.061 45.9247C142.629 49.1373 148.021 50.8737 154.117 49.7983C160.197 48.7259 164.674 45.2487 164.099 42.0376C163.676 39.6282 160.545 38.0521 156.431 37.8661ZM112.409 47.3284C112.043 47.3284 111.652 47.3465 111.24 47.3813C98.0512 48.4794 98.2705 66.9456 98.2705 66.9456L72.5533 116.845C73.3216 118.495 75.4089 116.734 75.4089 116.734L84.5309 114.097C87.8281 113.109 87.1702 112.008 87.1702 112.008C88.5965 105.304 103.66 78.7039 103.66 78.7039C103.66 78.7039 107.836 70.7919 112.124 71.8885C116.409 72.9896 107.834 82.8814 107.834 82.8814C103.328 87.1664 98.7106 98.2682 98.7106 98.2682C96.4041 105.524 98.874 112.117 106.13 112.776C113.384 113.437 117.507 106.347 119.322 103.707C121.135 101.072 121.627 103.545 121.627 103.545C121.627 103.545 121.958 109.316 128.386 110.798C134.817 112.282 144.711 105.028 148.669 102.555C152.62 100.082 158.896 98.2682 158.896 98.2682C168.94 97.4439 166.973 101.897 166.973 101.897C148.504 106.511 119.154 145.918 143.227 147.402C167.291 148.886 179.83 107.665 179.83 107.665C185.925 106.841 188.239 110.963 188.239 110.963C188.239 110.963 190.553 118.385 186.424 120.856C182.31 123.329 178.181 119.867 178.181 119.867C174.884 130.252 167.079 138.389 167.079 138.389C180.268 140.585 188.844 133.551 188.844 133.551C206.873 124.099 197.632 106.676 197.632 106.676C194.909 98.1049 183.46 96.7028 183.46 96.7028C178.347 96.5394 178.423 94.313 178.423 94.313C177.273 92.0049 175.383 91.2623 173.311 90.686C171.254 90.1097 167.291 91.0989 167.291 91.0989C164.659 90.934 167.382 88.9542 167.382 88.9542L180.48 76.7543C187.906 69.5018 185.108 65.3771 185.108 65.3771C183.127 59.8535 175.958 61.4219 175.958 61.4219C171.753 61.3387 163.994 64.388 163.994 64.388C161.861 64.9642 160.454 67.7669 160.454 67.7669L154.767 78.3197C152.952 81.2888 155.1 80.6293 155.1 80.6293C166.474 70.736 167.956 73.2089 167.956 73.2089C174.052 77.0023 167.79 79.9683 163.676 85.0791C159.547 90.1899 143.555 96.9508 143.555 96.9508C132.508 102.721 134.982 94.313 134.982 94.313C142.074 79.144 153.951 61.915 153.951 61.915C155.433 59.6901 153.285 60.0183 153.285 60.0183L140.506 61.5051C138.199 61.5868 138.113 62.4081 138.113 62.4081L136.964 64.636C129.543 79.6386 118.608 96.184 118.608 96.184C114.649 101.237 110.693 100.8 110.912 96.4018C111.133 92.0049 125.42 72.9911 125.42 72.9911C133.335 58.3727 115.419 63.6468 115.419 63.6468C113.662 64.087 113.662 62.7666 113.662 62.7666C113.662 62.7666 123.77 47.2951 112.409 47.3284ZM168.561 110.312C169.136 110.42 169.393 111.007 168.773 112.614C168.773 112.614 158.564 134.376 152.952 137.342C152.952 137.342 146.852 143.116 144.544 136.52C144.544 136.52 143.557 130.913 150.986 123.825C158.397 116.734 165.809 111.294 165.809 111.294C165.809 111.294 167.624 110.135 168.561 110.312ZM142.015 114.868C63.758 118.823 0.889024 157.07 0.889024 157.07C0.889024 157.07 21.0584 156.963 31.9394 157.129C42.8204 157.294 55.0218 160.095 62.4406 162.237C69.8595 164.382 75.9579 172.79 75.9579 172.79C97.3902 151.029 131.467 140.806 131.467 140.806C130.59 130.253 142.015 114.868 142.015 114.868ZM163.343 116.898C162.814 116.798 161.8 117.45 161.8 117.45C161.8 117.45 158.443 121.484 154.268 125.471C149.843 129.704 148.173 135.364 148.173 135.364C149.47 139.073 154.571 132.103 154.571 132.103C157.248 128.606 163.464 118.191 163.464 118.191C163.812 117.288 163.661 116.958 163.343 116.898Z" fill="#660033"/>
</svg>
