<svg width="200" height="200" viewBox="0 0 200 200" fill="none" xmlns="http://www.w3.org/2000/svg">
<g clip-path="url(#clip0_15016_303947)">
<path d="M196.004 114.464C192.621 122.247 186.445 124.616 179.593 125.63C177.14 128.338 172.065 131.722 165.381 133.16V133.244C165.466 133.498 167.411 139.842 162.167 146.272C161.913 148.978 160.56 152.108 157.26 154.055C154.807 155.492 150.408 157.185 145.755 157.439C130.782 157.439 131.713 144.834 119.024 140.942C117.924 140.604 116.824 140.435 115.64 140.435C100.751 140.773 98.8056 158.877 103.459 175.118C95.0838 167.758 79.6877 155.324 78.1653 134.175C62.5154 133.837 46.358 134.429 31.2156 138.827C32.4845 136.29 33.6688 133.667 35.0223 131.129C23.2637 132.314 11.505 134.005 0 136.628C18.1872 101.521 54.6477 72.7598 98.5483 63.2004C104.555 54.4023 117.498 47.2968 124.773 43.5742C142.961 34.2686 136.616 25.725 136.362 24.8787C136.362 24.8787 144.906 29.0238 148.12 35.2835C150.574 40.0208 152.519 47.634 148.206 56.9396C147.697 57.9547 147.275 58.9699 146.936 59.985C157.934 62.9458 168.254 68.36 176.883 75.8043C180.605 79.0189 183.143 82.9102 183.988 86.8018C188.049 89.5087 196.762 97.2066 199.808 105.412C200.315 107.189 200.061 111.249 196.001 114.463L196.004 114.464Z" fill="white"/>
<path d="M140.85 31.3958C140.85 31.3958 142.457 38.163 126.299 46.115C118.009 50.1755 105.659 57.5356 100.582 65.7412C33.8377 79.7835 5.83984 132.232 5.83984 132.232C5.83984 132.232 19.4607 129.356 40.6936 127.579C39.4246 129.694 38.1546 131.894 37.055 134.178C40.9462 133.078 60.3186 130.455 81.2135 131.216C81.298 147.966 92.0415 160.994 99.3164 167.338C94.4946 144.413 109.298 134.77 120.041 138.07C134.169 142.384 132.647 155.073 146.266 154.396C150.327 154.227 153.794 152.704 155.909 151.434C158.955 149.658 159.462 146.614 159.378 145.091C164.453 139.677 162.677 134.179 162.677 134.179C160.309 135.194 154.811 138.07 150.158 135.617C147.028 133.586 147.027 131.725 148.465 124.789C148.719 123.604 148.972 122.334 149.142 121.15C149.142 121.15 155.487 115.99 165.977 120.474C165.723 125.718 164.707 130.286 164.707 130.286C164.707 130.286 173.843 128.51 178.158 122.758C184.84 121.996 190.762 119.968 193.638 112.523C197.952 109.562 197.107 106.261 197.107 106.261C194.231 98.5634 185.771 91.6273 182.641 89.5131C181.372 88.6672 181.373 88.5825 181.035 87.1444C180.612 85.0295 179.173 81.6449 175.028 78.0917C166.314 70.5629 155.233 64.8114 143.221 62.1889C143.729 60.1586 144.575 58.0435 145.59 55.7594C152.95 39.8558 140.853 31.3965 140.853 31.3965L140.85 31.3958ZM176.77 103.428C179.934 103.433 182.872 104.114 184.585 105.415C186.869 106.853 189.238 111.336 185.938 114.128C181.963 117.427 175.957 117.68 175.704 117.68C174.265 120.556 171.05 123.433 169.105 124.534C169.867 121.911 170.035 118.866 169.951 116.666C162.337 111.421 150.071 112.437 141.95 119.035C147.194 121.065 138.48 134.346 146.686 139.76C151.508 142.382 156.499 139.845 159.206 138.746C159.291 138.999 157.854 142.213 153.539 144.412L153.624 144.497C153.624 144.497 154.892 145.85 153.2 146.866C151.508 147.881 149.308 148.642 145.925 149.149C141.864 149.742 137.465 146.612 134.927 142.72C131.797 137.983 125.707 132.993 117.755 131.555C119.786 130.455 122.07 129.608 122.07 129.608C116.318 128.847 111.664 129.439 107.773 130.539C117.417 119.372 131.544 115.65 131.544 115.65C130.276 115.059 128.413 114.551 126.468 114.213C138.819 107.868 152.355 105.922 163.69 109.306C165.594 105.287 171.496 103.419 176.77 103.428Z" fill="#00205C"/>
<path d="M131.627 115.565C130.357 114.973 128.497 114.465 126.551 114.127C138.902 107.782 152.437 105.837 163.772 109.22C166.818 102.791 180.099 101.861 184.667 105.329C186.613 104.737 189.319 105.668 191.181 106.513C188.896 102.115 182.298 95.6011 179.761 93.9092C173.923 90.018 177.392 87.0572 171.64 82.0662C163.434 74.9604 153.283 69.8001 142.286 67.5164C142.201 69.885 142.539 71.8307 143.3 73.5226C140.34 71.6615 138.986 69.2929 138.479 66.8397C136.956 58.5495 145.5 48.5673 139.325 48.3979C131.711 48.1441 113.693 57.9572 107.095 69.8002C104.387 74.6221 103.626 79.6976 106.164 84.6889C100.158 80.5438 98.0427 76.1453 98.4659 71.9153C65.4742 81.2209 40.1807 102.369 27.1533 121.403C34.09 120.642 40.0113 120.049 46.0175 119.881C54.4768 109.137 64.4593 102.37 72.9186 98.2246C63.1906 105.923 58.115 114.636 55.7463 119.796C63.106 119.965 71.4805 120.642 82.3085 121.911C84.6774 110.321 91.6984 99.409 102.441 91.8795C108.279 87.819 114.116 85.112 120.291 83.9277C108.025 88.6649 98.4659 98.3089 94.1515 110.068C98.0427 105.922 102.865 102.369 108.194 99.6627C100.411 107.276 95.2516 117.258 94.0672 128.509C93.644 132.231 93.8978 136.207 94.659 139.929C96.2665 137.645 100.411 132.739 108.11 130.455C117.499 119.204 131.627 115.566 131.627 115.566V115.565ZM170.878 89.4254C172.147 94.4164 176.462 97.8846 176.462 97.8846C174.939 97.8001 173.839 97.5463 172.993 97.2925C171.301 96.4466 171.216 95.0085 169.778 94.0779C170.032 94.9238 169.778 95.4314 168.933 95.4314C168.51 95.3469 168.171 95.2622 167.833 95.1777C167.748 95.1777 167.748 95.1777 167.663 95.093C164.195 93.8242 164.111 90.0175 159.289 89.7636C159.289 89.7636 163.095 88.8331 165.887 89.4253C159.965 84.5188 146.938 81.6426 146.938 81.6426C146.938 81.6426 160.642 81.7273 170.878 89.4254ZM115.977 77.9204C107.686 70.5607 125.959 58.8025 128.074 58.3793C123.336 63.6242 122.237 67.685 122.744 70.8149C120.714 70.2227 120.122 68.4463 120.122 68.4463C118.768 73.6911 122.406 76.9899 125.028 78.5132C122.321 79.1899 118.176 79.7814 115.977 77.9204Z" fill="#BC955C"/>
</g>
<defs>
<clipPath id="clip0_15016_303947">
<rect width="200" height="200" fill="white"/>
</clipPath>
</defs>
</svg>
