<svg width="201" height="201" viewBox="0 0 201 201" fill="none" xmlns="http://www.w3.org/2000/svg">
<g clip-path="url(#clip0_15016_304134)">
<path d="M186.665 81.919C190.875 78.6341 195.038 76.9266 200.156 73.6373C194.962 70.1683 173.006 56.1272 168.871 53.251C168.878 53.2395 177.356 34.5934 179.774 31.3218C175.384 31.174 170.452 32.2251 170.452 32.2251C170.452 32.2251 171.11 27.9519 172.287 24.8537C158.856 28.6358 149.52 22.4225 136.004 18.2653C122.839 14.2125 101.418 14.631 99.6936 2.69539L99.5724 2.59366C97.9153 14.8592 77.1495 14.262 63.9161 18.337C50.3978 22.4924 40.8651 28.1147 27.4353 24.3326C28.4429 26.6373 30.1088 31.919 30.1088 31.919C30.1088 31.919 25.2217 31.7659 20.9353 32.3781C23.2488 36.6964 31.6341 53.3094 31.6394 53.3209C27.5034 56.1979 5.35035 70.2382 0.15625 73.7071C5.27427 76.9973 9.2404 78.7039 13.4516 81.9897C7.59043 87.206 7.38428 97.1032 6.54027 102.371C5.69715 107.636 7.0481 125.462 7.0481 125.462C7.0481 125.462 14.4752 122.262 17.1789 120.712C24.8271 126.241 33.7441 124.38 40.1476 125.593C44.5569 126.429 60.4418 129.79 69.8285 139.551C78.7791 148.86 97.733 194.388 99.5175 198.598L99.6493 198.765C101.417 194.557 121.14 148.79 130.09 139.481C139.476 129.72 155.318 125.297 159.772 124.734C168.151 123.676 175.712 125.584 182.741 120.444C185.444 121.995 192.87 125.194 192.87 125.194C192.87 125.194 194.221 107.567 193.377 102.299C192.535 97.0315 192.525 87.1352 186.665 81.919Z" fill="#005EB8"/>
<path d="M99.5577 9.58643C98.021 20.8868 78.7397 17.9442 66.3441 21.7617C53.6831 25.6544 46.7851 32.2127 34.2063 28.6704C35.8705 29.6444 41.4468 40.3273 42.6703 41.0404C38.1211 39.9911 32.3325 38.3438 29.0414 38.0518C31.9415 41.1208 37.7699 54.518 37.7752 54.5295C33.9011 57.2234 13.1521 70.3745 8.28711 73.624C13.0804 76.7046 16.6104 78.3041 20.5544 81.3811C15.0657 86.2656 13.3954 95.5355 12.6054 100.47C11.8153 105.403 12.5266 116.929 12.5266 116.929C12.5266 116.929 20.036 113.931 22.5689 112.479C25.093 119.669 38.0849 119.054 44.0823 120.19C48.213 120.973 63.0902 126.151 71.8815 135.295C80.6737 144.439 99.5984 190.338 99.5984 190.338L99.6604 190.272C99.6604 190.272 119.533 144.372 128.324 135.229C137.116 126.085 151.993 120.907 156.125 120.124C162.121 118.988 175.114 119.602 177.637 112.413C180.17 113.866 187.679 116.862 187.679 116.862C187.679 116.862 188.391 105.336 187.6 100.403C186.81 95.4692 185.14 86.2001 179.652 81.3148C183.596 78.2378 187.125 76.6391 191.918 73.5568C187.054 70.3091 166.305 57.157 162.431 54.4631C162.437 54.4525 168.265 41.0545 171.166 37.9855C167.875 38.2774 162.086 39.9256 157.536 40.9749C158.76 40.2618 164.337 29.5781 166.001 28.604C153.421 32.1473 146.523 25.589 133.862 21.6963C121.53 17.8982 101.294 20.6488 99.6701 9.67401" fill="black"/>
<path d="M148.711 91.8453C144.954 89.9361 129.272 91.1367 126.567 89.807C120.87 86.8556 123.597 73.2886 118.796 66.3897C114.379 60.0304 103.608 59.5677 99.6238 53.3005C95.6435 59.5677 84.8731 60.0304 80.4575 66.3897C75.6598 73.2886 78.3838 86.8556 72.6907 89.807C69.9782 91.1367 54.295 89.9361 50.5395 91.8453C46.3389 93.9863 43.8785 96.6705 46.5981 99.5688C50.2758 103.492 73.1366 102.451 81.505 117.306C87.1831 127.381 99.6123 173.727 99.6123 173.727C99.6123 173.727 111.01 129.263 117.747 117.306C126.116 102.451 148.972 103.492 152.657 99.5688C155.377 96.6705 152.918 93.9863 148.711 91.8453Z" fill="#FFCF00"/>
<path d="M103.842 66.5965C103.493 66.5774 103.197 66.6482 102.978 66.8301C101.768 67.8415 102.171 71.4879 102.012 72.8489C101.739 75.1371 102.605 77.2031 102.605 79.5762L103.604 70.7023C106.057 66.0176 107.677 75.1789 109.951 72.6953C111.276 71.2402 106.282 66.7282 103.842 66.5965ZM94.8846 66.8188C92.4436 66.9504 87.446 71.4617 88.7759 72.9105C91.0507 75.4004 92.6693 66.2412 95.1225 70.9231L96.1204 79.7992C96.1204 77.4253 96.9846 75.3572 96.7192 73.0712C96.5564 71.7052 96.9612 68.0595 95.7488 67.0523C95.5301 66.8704 95.2329 66.8004 94.8846 66.8188ZM53.0975 95.6771C50.6947 95.6842 48.6627 95.8689 47.9953 96.3665C45.8387 97.9745 56.2025 98.7771 57.6166 98.9506C62.8314 99.5904 65.4954 99.9372 70.2651 101.585C75.315 103.329 78.1956 108.703 80.4901 111.167L78.5615 98.7248C78.5615 98.7248 66.2485 97.0757 63.6177 96.4797C62.1414 96.1436 57.1028 95.6644 53.0975 95.6771ZM145.701 95.9893C141.695 95.9772 136.654 96.455 135.18 96.7897C132.547 97.3864 120.237 99.0348 120.237 99.0348L118.307 111.477C120.604 109.01 123.484 103.643 128.537 101.898C133.307 100.246 135.97 99.9039 141.184 99.2641C142.596 99.0871 152.962 98.2845 150.802 96.6779C150.136 96.1811 148.104 95.997 145.701 95.9893H145.701Z" fill="black"/>
<path d="M99.524 17.4512C99.524 17.4512 95.3411 24.9924 70.5446 28.3592C59.1934 29.9007 53.7253 37.9148 42.9071 34.6767C44.3382 35.5664 49.1347 45.335 50.1864 45.9861C46.7078 48.5072 40.2084 44.2917 37.378 44.0242C39.8708 46.8326 45.9724 58.309 45.9767 58.3175C45.5265 57.4172 20.3429 73.4233 19.168 72.9717C23.2447 74.5387 27.4934 75.1984 31.3627 77.1213C26.8295 84.8749 22.2949 92.598 23.193 102.208C26.4155 101.002 30.3959 98.9219 34.1372 99.239C28.7921 111.662 35.0063 112.779 44.9079 114.622C54.8619 116.477 67.9457 121.584 79.9019 134.596C75.3305 103.297 31.7223 113.847 38.4043 92.3949C40.5877 85.3824 60.5127 79.9453 65.0155 82.218C64.9738 82.1946 58.0738 78.6968 54.1379 75.1969C45.8259 67.8086 52.733 59.8455 46.1536 52.0566C53.0649 59.5377 65.4536 60.9355 74.6659 68.8787C80.1581 54.928 94.8994 55.2769 99.5565 41.3311C104.209 55.3463 118.958 54.8586 124.449 68.8136C133.661 60.8718 145.58 59.7096 152.487 52.2307C145.909 60.0175 152.816 67.9813 144.505 75.3711C140.567 78.8681 133.667 82.3659 133.625 82.3878C138.129 80.1187 159.213 84.8848 160.822 92.0297C166.398 116.782 124.104 102.243 118.979 134.786C125.748 124.268 143.78 116.651 153.733 114.798C163.635 112.95 169.85 111.837 164.505 99.4074C168.249 99.0974 172.227 101.171 175.45 102.378C176.349 92.7672 171.815 85.0504 167.282 77.2962C171.15 75.3732 175.4 74.7086 179.478 73.1451C178.302 73.5953 153.119 57.592 152.666 58.488C152.674 58.4824 158.773 47.0067 161.265 44.1969C158.438 44.4637 151.936 48.6777 148.457 46.1553C149.508 45.5084 154.302 35.7426 155.737 34.8459C144.916 38.0882 140.535 30.0621 128.101 28.2941C103.723 24.8282 99.5225 17.4512 99.5225 17.4512H99.524ZM56.2081 61.765C55.9625 64.7249 55.8988 69.1413 59.3548 70.818C63.0012 72.5888 68.2302 71.937 70.0442 68.9693C69.4256 68.8724 68.6952 68.9028 68.1559 69.021C66.0177 70.7557 61.1249 70.7317 59.5912 68.4916C58.7016 67.1985 59.6294 65.7575 59.255 64.5132C58.9146 63.3759 57.4099 62.5902 56.2081 61.765ZM68.1559 69.021C68.1941 68.9898 68.2373 68.963 68.2733 68.9311L67.8239 69.1052C67.9188 69.0712 68.0391 69.0465 68.1559 69.021ZM142.718 61.765C141.524 62.5902 140.024 63.3759 139.675 64.5132C139.304 65.7575 140.23 67.1985 139.343 68.4916C137.806 70.7317 132.911 70.7557 130.771 69.0196C130.232 68.9021 129.505 68.8724 128.886 68.9693C130.702 71.937 135.927 72.5888 139.579 70.818C143.03 69.1413 142.974 64.7249 142.718 61.765ZM130.771 69.0196C130.891 69.0451 131.012 69.0705 131.108 69.1052L130.655 68.9311C130.69 68.9622 130.734 68.9891 130.771 69.0196ZM99.4815 73.5273L97.1289 139.894L96.4983 148.839L99.6181 162.602L102.82 148.694C102.82 148.694 102.574 143.17 102.43 139.894L99.4815 73.5273Z" fill="white"/>
</g>
<defs>
<clipPath id="clip0_15016_304134">
<rect width="200" height="200" fill="white" transform="translate(0.15625 0.726562)"/>
</clipPath>
</defs>
</svg>
