<svg width="200" height="201" viewBox="0 0 200 201" fill="none" xmlns="http://www.w3.org/2000/svg">
<path d="M173.183 119.219C165.319 113.507 155.79 104.427 157.774 93.6103C155.286 91.1862 152.958 88.8901 152.262 85.33L153.894 85.434C156.07 75.6016 154.054 65.7612 149.822 56.6648C152.534 51.4646 152.662 44.7364 149.19 39.8562C144.27 32.9359 135.741 31.6638 127.821 35.416C121.069 33.0799 113.373 32.1519 106.532 34.632C106.276 34.536 106.012 34.44 105.836 34.384C99.156 32.2079 91.7557 33.1519 85.2274 35.408C78.5071 31.9759 70.1708 32.7519 64.9466 38.4801C60.4504 43.4163 60.1864 50.8886 63.2025 56.6648C58.9624 65.7532 57.0103 75.2896 59.1224 85.426L60.7544 85.33C60.0584 88.8901 58.4183 90.7302 55.2422 93.6103L55.4742 94.9464C55.0182 102.291 52.1621 107.459 45.6498 113.187L0 113.115L23.5369 125.26L18.4807 143.356C17.4007 146.9 18.6567 150.365 22.3449 151.501C23.873 151.973 25.545 151.829 27.1291 151.821H39.9216L41.5537 153.221L36.9055 156.941L43.3617 160.741L38.0255 167.861H176.943L171.607 160.741L178.063 156.941L174.719 154.269L177.671 151.781H181.647C188.352 151.733 190.048 152.069 191.896 151.053C194.536 149.725 195.176 147.132 195.592 144.324C196.12 141.324 196.648 138.332 197.168 135.332C198.112 129.956 199.056 124.588 200 119.211H173.183V119.219Z" fill="#FFBA36"/>
<path d="M108.02 36.7921C109.956 36.1601 112.372 35.7121 115.252 35.7041C117.661 35.7041 120.389 36.0081 123.429 36.7601C124.957 37.1362 126.405 37.5842 127.781 38.0962L128.013 38.1842L128.277 38.0562C130.261 36.8961 133.149 35.8721 136.261 35.8401C139.173 35.8241 142.286 36.6721 145.054 39.0802C151.158 44.3844 149.518 52.3688 147.174 56.1769L146.942 56.5449L147.07 56.8089C150.814 64.5133 151.974 71.1295 152.19 75.8097C152.358 79.3778 151.99 81.826 151.806 82.77L149.718 82.642H149.422L149.43 83.21C149.446 84.3781 149.862 86.9701 150.47 88.3782C152.038 92.0024 154.302 93.8024 155.014 94.4985C154.91 95.0585 154.958 101.155 157.246 105.603C161.59 114.011 167.231 118.059 172.055 121.564H197.216L193.024 145.412C192.6 147.917 191.4 149.469 188.503 149.469H174.199L169.743 153.301L173.943 156.661L168.159 160.061L172.271 165.541H42.6816L46.7937 160.061L41.0095 156.661L45.2097 153.301L40.7935 149.509L24.4568 149.517C22.6488 149.517 20.4487 148.533 20.4487 145.781C20.4487 145.3 20.5767 144.58 20.7367 143.964L26.3049 124.06L9.24023 115.475L46.8177 115.531C49.4658 113.411 52.25 110.507 55.0421 105.963C57.6582 101.699 58.0902 95.0665 57.9942 94.5065C58.7062 93.8104 60.9703 92.0104 62.5384 88.3862C63.1464 86.9782 63.5704 84.3781 63.5784 83.218L63.5864 82.65L61.2023 82.786C61.0183 81.8499 60.6423 79.4019 60.8183 75.8177C61.0423 71.1375 62.1944 64.5213 65.9385 56.8169L66.0665 56.5529L65.8345 56.1849C63.4904 52.3768 61.8423 44.3924 67.9546 39.0882C73.7148 34.088 80.9311 35.8161 84.7793 38.0722L84.9953 38.2002L85.2273 38.1122C86.6033 37.6002 88.0514 37.1602 89.5795 36.7761C96.3237 35.1041 101.476 35.6561 105.044 36.8081C105.5 36.9522 106.516 37.3602 106.516 37.3602C106.516 37.3602 107.564 36.9442 108.02 36.7921Z" fill="black"/>
<path d="M141.501 43.2324C138.181 40.3523 133.669 41.2164 130.941 42.8804C129.981 43.4645 129.197 44.0965 128.637 44.5925C126.597 43.4885 124.365 42.6404 121.925 42.0484C109.868 39.1363 106.532 43.9285 106.532 43.9285C106.532 43.9285 103.332 39.0403 91.2913 42.0084C88.9392 42.5844 86.7392 43.4084 84.6911 44.4725C84.1551 44.0245 83.315 43.3764 82.211 42.7044C79.4829 41.0404 74.8747 40.3443 71.5625 43.2244C69.4105 45.0965 68.9464 47.7526 69.3385 50.0807C69.9065 48.8167 71.3945 46.3046 74.4907 45.4405C74.1787 45.8965 73.9066 46.3846 73.7386 46.8886C73.3466 48.0806 73.5226 48.5527 73.5226 48.5527C73.5226 48.5527 74.5067 46.8566 77.7548 46.1526C79.3709 45.8005 80.5469 46.2566 81.4189 46.4566C77.3148 49.3927 73.7466 53.5849 71.0345 58.7691C66.4983 67.4094 66.6664 76.8418 66.6664 76.8418L68.8104 76.6418C68.9864 77.8178 69.6025 82.09 69.1305 85.7541C68.2744 92.3944 63.8902 96.1226 63.8902 96.1226C63.8902 96.1226 63.9062 103.067 59.8821 109.483C57.242 113.683 54.3299 116.859 52.0098 119.035C52.0658 119.379 52.0978 119.74 52.1058 120.116L52.1538 124.492C54.0338 122.22 55.7219 121.564 60.4581 121.564H78.5308C80.6989 121.564 81.907 121.948 83.107 123.348C83.179 123.428 83.251 123.516 83.315 123.604C84.4191 122.236 85.6191 121.732 87.3792 121.604C82.403 112.787 83.243 108.019 83.243 108.019C83.243 108.019 85.4271 110.571 87.6512 111.843C90.2193 113.307 91.1233 113.667 91.1233 113.667L91.2993 109.539C93.8674 112.491 97.9556 116.443 104.772 116.283C105.036 114.619 103.94 113.299 102.068 112.251C100.82 111.555 99.9397 111.139 99.0116 110.203C95.6435 106.763 96.2515 103.091 96.6996 99.6427C97.3076 94.9305 96.7236 93.7705 95.7395 89.6023C95.0435 86.6342 93.4674 83.4501 93.4674 83.4501L91.8114 84.1461C91.8114 84.1461 88.9312 79.5219 89.3633 74.5457C89.7873 69.7055 92.2914 66.9934 92.2914 66.9934C92.2914 66.9934 91.7714 70.7455 92.7714 74.6337C93.5874 77.8018 94.2595 78.2578 94.2595 78.2578C94.2595 78.2578 96.7076 77.1218 100.716 76.6018C103.836 76.1938 108.964 76.1218 112.372 76.6018C117.124 77.2738 118.812 78.2578 118.812 78.2578C118.812 78.2578 119.508 77.6338 120.317 74.4577C121.061 71.5376 120.981 68.6895 120.837 67.0734L120.629 66.1614L120.188 64.7213L120.06 64.3373C119.868 63.9373 118.956 62.1452 117.564 61.1452C115.068 59.3451 113.548 59.1371 113.548 59.1371L114.38 55.3369C114.38 55.3369 114.844 56.993 116.084 57.561C117.876 58.393 119.228 55.993 121.669 58.001C123.213 59.2651 122.901 61.4652 122.229 62.4892C122.461 62.5772 122.701 62.6652 122.941 62.7532C127.221 64.4093 130.277 61.6172 130.277 61.6172L127.701 60.2651C127.701 60.2651 129.509 59.9211 131.845 58.6491C133.941 57.513 134.685 56.425 134.685 56.425L132.245 55.7289C132.245 55.7289 134.037 54.7209 135.301 52.8888C135.901 52.0168 136.173 51.2328 136.309 50.4967C135.893 50.0247 135.701 49.6727 135.301 49.3127C133.701 47.8566 132.461 47.0406 132.461 47.0406C132.461 47.0406 134.005 44.6405 137.045 44.2885C139.789 43.9685 141.669 44.3285 142.957 44.9925C142.581 44.3525 142.109 43.7605 141.501 43.2324ZM93.0354 64.7453C93.0354 64.7453 91.8114 64.1373 90.9393 62.8652C90.2433 61.8572 89.8993 59.6091 91.4593 58.329C93.8994 56.321 95.2595 58.7211 97.0436 57.889C98.2836 57.313 98.7476 55.6649 98.7476 55.6649L99.5797 59.4651C99.5797 59.4651 98.0596 59.6731 95.5635 61.4732C93.9954 62.6092 93.0354 64.7453 93.0354 64.7453ZM114.636 65.0493C114.772 67.2254 113.172 69.3695 113.172 69.3695L110.276 73.1696C110.276 73.1696 108.532 72.8256 106.612 72.7776C104.868 72.7376 102.548 73.1696 102.548 73.1696L99.8037 69.3695C99.8037 69.3695 98.1316 67.1774 98.2676 65.0093C98.3716 63.4012 99.0196 62.9132 100.276 62.1692C102.196 61.0332 104.172 60.8171 106.644 60.8171C109.348 60.8171 110.748 60.9932 112.668 62.1292C113.924 62.8732 114.532 63.4492 114.636 65.0493Z" fill="#E3BA81"/>
<path d="M97.6123 82.162C97.6123 82.162 100.844 80.7219 106.525 80.7219C112.189 80.7219 115.437 82.162 115.437 82.162C115.437 82.162 115.325 83.73 114.933 85.0901C114.293 87.2982 112.909 89.8503 112.909 89.8503C112.909 89.8503 112.821 86.9702 112.341 84.6101C112.109 83.474 111.293 81.946 111.293 81.946L110.069 84.0821C110.069 84.0821 109.077 83.018 106.509 82.994C104.077 82.97 102.973 84.0821 102.973 84.0821L101.748 81.946C101.748 81.946 100.932 83.466 100.7 84.6101C100.22 86.9702 100.132 89.8503 100.132 89.8503C100.132 89.8503 98.7964 87.1142 98.1643 85.0501C97.7483 83.602 97.6123 82.162 97.6123 82.162ZM103.917 105.291L103.085 106.907C103.085 106.907 102.132 105.339 101.724 103.811C101.116 101.499 100.756 100.579 100.756 100.579C100.756 100.579 100.236 101.539 100.028 103.899C99.9324 105.027 100.228 106.739 100.228 106.739C100.228 106.739 102.196 109.475 106.525 109.403C110.845 109.475 112.821 106.739 112.821 106.739C112.821 106.739 113.117 105.035 113.021 103.907C112.821 101.547 112.293 100.587 112.293 100.587C112.293 100.587 111.973 101.515 111.325 103.819C110.789 105.739 109.965 106.915 109.965 106.915L109.133 105.299C109.133 105.299 108.597 106.435 106.549 106.475C104.861 106.507 103.917 105.291 103.917 105.291Z" fill="white"/>
<path d="M35.6013 118.267C37.1454 118.267 37.3694 118.563 37.4334 120.531L37.9774 132.06L41.3535 121.899C41.6095 121.171 41.7055 120.707 41.7055 120.363C41.7055 119.811 41.4175 119.467 40.8415 119.339L41.0015 118.275H47.6498C49.0018 118.275 49.3219 118.659 49.3539 120.155L49.5779 142.828C49.6099 145.044 49.8339 145.516 50.9299 145.692L50.7379 146.757H44.7937C43.6016 146.757 43.3136 146.284 43.3456 144.452L43.4416 130.02L38.3934 146.757H33.0572L32.4172 130.02L29.233 143.3C29.073 143.9 29.009 144.364 29.009 144.628C29.009 145.228 29.297 145.612 29.9051 145.692L29.7131 146.757H24.4409C23.5448 146.757 23.1848 146.46 23.1848 145.772C23.1848 145.476 23.2808 145.044 23.3768 144.66L29.5531 122.564L20.5127 118.235L35.6013 118.267ZM132.821 140.516C130.989 140.516 130.509 140.22 130.509 138.812H129.613L128.845 143.252C128.781 143.676 128.621 144.708 128.621 144.964C128.621 145.732 128.973 146.284 129.525 146.548C129.877 146.716 130.261 146.764 131.197 146.764H137.557C140.285 146.764 141.542 146.084 142.766 143.82C143.798 141.98 144.854 137.204 144.854 134.468C144.854 133.188 144.566 132.116 143.99 131.348C143.574 130.796 142.926 130.284 141.614 129.468L139.525 128.188C138.461 127.548 138.205 127.164 138.205 126.268C138.205 125.244 138.525 124.428 139.109 124.052C139.493 123.796 139.909 123.708 141.07 123.708H143.798C145.118 123.708 145.374 123.364 145.726 121.443L146.238 118.283L125.805 118.251L133.029 121.675C132.917 122.26 132.757 123.036 132.581 123.748C132.101 125.756 131.717 128.316 131.717 129.516C131.717 131.564 132.549 132.892 134.773 134.3L136.893 135.58C138.117 136.26 138.469 136.82 138.469 137.884C138.469 138.74 138.181 139.548 137.701 139.972C137.221 140.396 136.837 140.524 135.261 140.524H132.821V140.516ZM57.4582 132.636C56.6501 136.012 56.2021 138.82 56.2021 140.324C56.2021 141.628 56.6821 142.332 57.6102 142.332C58.7382 142.332 59.3463 141.396 60.0743 138.524C60.8023 135.58 61.3063 132.108 61.3063 130.94C61.3063 129.54 60.8263 128.804 59.9223 128.804C58.7382 128.796 58.1382 129.732 57.4582 132.636ZM65.6825 137.956C64.1464 145.14 62.2664 147.045 56.8582 147.045C54.6981 147.045 53.338 146.708 52.41 145.94C51.3539 145.068 50.8019 143.564 50.8019 141.596C50.8019 137.652 51.986 131.468 53.314 128.3C54.5941 125.292 56.7301 124.092 60.6823 124.092C65.0825 124.092 66.7705 125.66 66.7705 129.876C66.7625 131.868 66.3545 134.748 65.6825 137.956ZM76.1469 132.372C76.4989 131.772 76.6989 130.9 76.6989 129.996C76.6989 128.964 76.3709 128.66 75.1869 128.66H73.8828L73.1068 133.204H74.6189C75.3389 133.204 75.7949 132.94 76.1469 132.372ZM68.8026 127.228C68.9066 126.66 68.9306 126.492 68.9306 126.292C68.9306 125.724 68.6826 125.388 68.1226 125.26L68.2746 124.42H78.531C79.8671 124.42 80.5711 124.652 81.0751 125.188C81.6031 125.788 81.9072 126.924 81.9072 128.228C81.9072 130.5 81.2751 133.172 80.3951 134.812C79.7391 135.98 79.059 136.548 77.851 136.916L78.883 140.388C79.3391 141.924 79.4111 142.028 80.3391 142.028H80.7231L80.1951 145.004C79.9471 146.444 79.7151 146.708 78.611 146.708H76.2749C75.3229 146.708 75.2189 146.572 74.8669 145.108L72.9548 136.924H72.4748L71.2187 144.212C71.1707 144.476 71.1467 144.676 71.1467 144.844C71.1467 145.444 71.3947 145.748 71.9548 145.876L71.8027 146.708H66.9226C66.0665 146.708 65.6665 146.372 65.6665 145.636C65.6665 145.468 65.7145 145.204 65.7705 144.9L68.8026 127.228ZM90.4755 136.58H91.0515L90.4195 140.22C90.1955 141.492 89.7155 142.028 88.7074 142.028C87.4994 142.028 86.9714 141.396 86.9714 139.988C86.9714 139.356 87.0994 138.388 87.3954 136.476C87.7474 134.308 88.2034 132.068 88.4994 130.964C88.9234 129.324 89.4035 128.86 90.6115 128.86H94.6597C95.7397 128.86 96.0437 128.524 96.2437 127.092L96.6997 124.42H88.5794C84.7073 124.42 83.5232 126.556 81.9872 136.052C81.5631 138.692 81.3871 140.396 81.3871 141.796C81.3871 144.436 82.1952 146.108 83.7472 146.604C84.6033 146.869 86.0353 147.037 87.8194 147.037C91.8436 147.037 92.2676 146.836 92.6996 146.7C93.7076 146.396 94.0596 145.668 94.3316 144.092L95.9877 134.532C96.0597 133.996 96.0917 133.828 96.0917 133.628C96.0917 132.86 95.7397 132.556 94.8597 132.556H89.6755L89.2995 134.764C89.2514 134.996 89.2274 135.3 89.2274 135.5C89.2354 136.252 89.6195 136.58 90.4755 136.58ZM104.604 137.588L104.428 129.468L101.66 137.588H104.604ZM101.484 127.46C101.764 126.692 101.884 126.292 101.884 126.02C101.884 125.588 101.636 125.316 101.156 125.252L101.308 124.412H108.044C108.676 124.412 108.948 124.548 109.124 124.916C109.228 125.18 109.252 125.42 109.276 126.484L109.932 144.396C109.98 145.3 110.26 145.7 110.916 145.868L112.26 146.7H106.116C104.956 146.7 104.78 146.468 104.756 145.028L104.684 141.452H100.356L99.4759 144.06C99.3479 144.428 99.2758 144.732 99.2758 144.964C99.2758 145.468 99.4999 145.732 100.004 145.868L99.8759 146.7H95.4757C94.7957 146.7 94.4917 146.436 94.4917 145.828C94.4917 145.564 94.5397 145.292 94.6917 144.924L101.484 127.46ZM110.828 144.9C110.78 145.132 110.676 145.78 110.676 145.98C110.676 146.684 111.124 146.708 111.98 146.708H116.005L116.133 145.876C115.604 145.74 115.356 145.444 115.356 144.844C115.356 144.644 115.38 144.476 115.484 143.908L116.941 135.452L119.709 145.34C120.061 146.612 120.165 146.708 121.221 146.708H124.437L127.957 126.228C128.005 125.964 128.029 125.66 128.029 125.46C128.029 124.756 127.653 124.428 126.797 124.428H122.773L122.621 125.268C123.173 125.404 123.429 125.732 123.429 126.3C123.429 126.5 123.405 126.668 123.301 127.236L122.093 134.252L119.605 125.3C119.405 124.532 119.253 124.428 118.301 124.428H113.348L113.196 125.268C113.748 125.404 114.004 125.732 114.004 126.3C114.004 126.5 113.98 126.668 113.876 127.236L110.828 144.9ZM145.502 144.9C145.454 145.204 145.43 145.468 145.43 145.636C145.43 146.372 145.806 146.708 146.662 146.708H151.542L151.694 145.876C151.166 145.74 150.918 145.444 150.918 144.844C150.918 144.644 150.918 144.476 151.022 143.908L153.614 128.876H156.03C157.11 128.876 157.262 128.708 157.566 126.908L158.198 123.364H157.446C157.198 124.196 156.87 124.436 155.99 124.436H146.862C145.582 124.436 145.43 124.604 145.102 126.508L144.502 130.02H145.206C145.486 129.084 145.734 128.884 146.718 128.916L148.302 128.884L145.502 144.9ZM162.966 137.588L162.79 129.468L160.022 137.588H162.966ZM159.846 127.46C160.126 126.692 160.246 126.292 160.246 126.02C160.246 125.588 159.998 125.316 159.518 125.252L159.67 124.412H166.407C167.039 124.412 167.311 124.548 167.487 124.916C167.591 125.18 167.615 125.42 167.639 126.484L168.295 144.396C168.343 145.3 168.623 145.7 169.279 145.868L169.127 146.7H164.47C163.31 146.7 163.134 146.468 163.11 145.028L163.038 141.452H158.71L157.83 144.06C157.702 144.428 157.63 144.732 157.63 144.964C157.63 145.468 157.854 145.732 158.358 145.868L158.23 146.7H153.83C153.15 146.7 152.846 146.436 152.846 145.828C152.846 145.564 152.894 145.292 153.046 144.924L159.846 127.46ZM169.999 144.9C169.951 145.204 169.927 145.468 169.927 145.636C169.927 146.372 170.303 146.708 171.159 146.708H176.039L176.191 145.876C175.663 145.74 175.415 145.444 175.415 144.844C175.415 144.644 175.415 144.476 175.519 143.908L178.111 128.876H180.231C181.311 128.876 181.463 128.708 181.767 126.908L182.399 123.364H181.647C181.399 124.196 181.071 124.436 180.191 124.436H171.359C170.079 124.436 169.927 124.604 169.599 126.508L168.999 130.02H169.703C169.983 129.084 170.231 128.884 171.215 128.916L172.799 128.884L169.999 144.9ZM179.783 144.9C179.735 145.164 179.711 145.468 179.711 145.668C179.711 146.372 180.087 146.7 180.943 146.7H188.527C189.783 146.7 190.087 146.436 190.335 144.932L191.064 140.692H190.359C190.079 141.796 189.759 142.028 188.319 142.028H185.607L186.487 136.884H189.983C191.24 136.884 191.52 136.652 191.768 135.148L192.248 132.444H187.271L187.903 128.668H191.728C192.984 128.668 193.264 128.404 193.536 126.9L193.96 124.428H183.311L179.783 144.9Z" fill="#F47937"/>
<path fill-rule="evenodd" clip-rule="evenodd" d="M48.1777 162.789L50.8338 159.245L45.8336 156.309L49.5138 153.365L44.8096 149.324H170.159L165.454 153.365L169.135 156.309L164.134 159.245L166.79 162.789H48.1777Z" fill="#1B4383"/>
<path fill-rule="evenodd" clip-rule="evenodd" d="M62.2505 156.781H62.6825C63.3865 156.781 64.4986 156.773 64.4986 157.477C64.4986 158.173 63.4585 158.189 62.7385 158.189H62.2425V156.781H62.2505ZM62.2505 154.997V153.781H62.5545C63.1945 153.781 64.0106 153.733 64.0106 154.365C64.0106 154.949 63.2905 154.997 62.6505 154.997H62.2505ZM58.1943 160.205H64.1466C66.2507 160.205 68.5548 159.613 68.5548 157.869C68.5548 156.861 67.7227 156.181 66.4187 155.861V155.797C67.4747 155.565 68.0027 154.829 68.0027 154.093C68.0027 152.141 65.6266 151.749 63.2905 151.749H58.1943V160.205ZM80.8112 160.205H89.0356V157.893H85.2194V157.061H88.5876V154.861H85.2194V154.053H88.9076V151.741H80.8112V160.205ZM106.716 157.141L107.516 154.557H107.676C107.756 154.917 107.836 155.285 107.964 155.645L108.476 157.141H106.716ZM105.932 159.149H109.236L109.636 160.205H114.269L109.972 151.733H105.132L100.948 160.205H105.58L105.932 159.149ZM130.357 154.053H130.693C131.445 154.053 132.101 154.133 132.101 154.781C132.101 155.413 131.381 155.485 130.661 155.485H130.357V154.053ZM126.077 160.205H130.357V157.485H130.437L132.349 160.205H137.398L134.781 157.453C134.541 157.205 134.269 157.069 134.045 156.949V156.885C135.677 156.501 136.373 155.965 136.373 154.685C136.373 152.549 134.077 151.741 131.357 151.741H126.069V160.205H126.077ZM148.15 159.565C149.51 160.045 151.262 160.341 152.782 160.341C155.382 160.341 158.006 159.341 158.006 157.317C158.006 155.877 156.662 155.181 154.814 154.893L153.822 154.733C153.486 154.677 152.942 154.629 152.942 154.317C152.942 153.973 153.502 153.869 153.886 153.869C154.83 153.869 155.678 154.149 156.422 154.509L157.606 152.341C156.422 151.837 155.166 151.597 153.79 151.597C151.174 151.597 148.566 152.717 148.566 154.733C148.566 156.061 150.006 156.765 151.71 156.981L152.59 157.093C152.99 157.149 153.566 157.181 153.566 157.565C153.566 157.949 152.878 158.069 152.446 158.069C151.438 158.069 150.494 157.725 149.718 157.293L149.494 157.173L148.15 159.565Z" fill="white"/>
</svg>
