<svg width="201" height="201" viewBox="0 0 201 201" fill="none" xmlns="http://www.w3.org/2000/svg">
<path d="M180.324 52.3211H128.678C123.769 35.8318 114.704 28.4382 114.305 28.122L113.806 27.7273L112.955 27.4896C111.98 21.2657 106.904 16.5063 100.813 16.5063C94.7132 16.5063 89.64 21.2657 88.67 27.4896L87.8284 27.7179L87.3197 28.122C86.9203 28.4358 77.8555 35.8294 72.9439 52.3211H20.9346C20.9346 52.3211 32.2626 64.9543 31.0097 80.5045L23.7778 170.318H84.6619C84.6619 170.318 75.7015 157.645 76.0795 145.149L76.2032 141.403L85.9433 164.558H88.4015L85.8909 177.436L86.8657 178.494C87.2271 178.891 90.4959 182.381 93.5151 183.755L95.1792 184.511L96.6769 183.487C97.1072 183.189 100.951 180.524 102.756 178.411L103.702 177.298L103.353 175.915C102.397 172.123 101.831 168.26 101.501 164.558H115.434L125.048 141.453L125.177 145.149C125.555 157.645 116.594 170.318 116.594 170.318H177.478L170.249 80.5045C168.994 64.9543 180.324 52.3211 180.324 52.3211Z" fill="#ECAC00"/>
<path d="M173.454 55.4587L128.26 55.4562L121.123 67.0292C120.441 64.2739 119.552 61.8608 118.744 60.0112C123.636 58.1426 126.275 55.0237 126.275 55.0237C121.725 37.8164 112.327 30.3514 112.327 30.3514L110.038 29.7167C110.038 29.7001 110.042 29.6787 110.042 29.6597C110.042 24.0111 105.906 19.4204 100.821 19.4204C95.738 19.4204 91.599 24.0111 91.599 29.6597C91.599 29.6882 91.6061 29.7095 91.6061 29.7381L89.3191 30.3514C89.3191 30.3514 79.9168 37.8164 75.3689 55.0237C75.3689 55.0237 78.0243 58.1664 82.9431 60.0255C82.092 61.982 81.1387 64.5591 80.4517 67.5142L73.0129 55.4562L27.8242 55.4587C27.8242 55.4587 36.0903 66.1092 34.7875 80.7109L27.8242 167.18H78.3738C78.3738 167.18 71.6673 156.883 72.3425 141.714L73.1008 125.341L88.09 161.289H92.2123C92.1648 161.474 92.1316 161.655 92.0793 161.843L89.2074 176.582C89.2074 176.582 92.3359 179.977 94.8702 181.13C94.8702 181.13 98.7619 178.458 100.36 176.582C99.0567 171.407 98.4243 166.12 98.1699 161.289H113.185L128.196 125.36L128.935 141.714C129.608 156.883 122.904 167.18 122.904 167.18H173.458L166.49 80.7109C165.19 66.1092 173.458 55.4587 173.458 55.4587" fill="#002144"/>
<path d="M123.078 69.3198L123.116 69.353C123.071 69.1961 123.066 69.2009 123.078 69.3198Z" fill="#002144"/>
<path d="M100.825 22.5752C97.5748 22.5752 94.9293 25.7627 94.9293 29.6768C94.9293 29.8195 94.9407 29.9564 94.9483 30.0971C95.9886 31.1603 98.2252 31.8982 100.821 31.8982C103.419 31.8982 105.65 31.1584 106.694 30.0933C106.696 29.9526 106.713 29.8195 106.713 29.6768C106.713 29.5836 106.702 29.4923 106.698 29.4029C105.618 29.7015 103.695 30.0382 100.825 29.8898V22.5752ZM89.6173 34.8747C89.6173 34.8747 82.7858 41.1642 79.5507 53.5549C79.5507 53.5549 79.7618 55.0745 82.7763 56.1472C82.7763 56.1472 83.7291 52.2788 86.9281 50.8733H83.6701C83.6701 50.8733 85.5663 41.2402 91.6276 35.2912L89.6173 34.8747ZM91.175 39.2756C91.175 39.2756 89.3111 43.3951 90.7508 48.2068C91.4089 46.2631 92.4701 44.869 93.3811 43.9599C92.5063 42.6343 91.7151 41.0881 91.175 39.2756ZM110.747 39.2756C110.182 41.1661 109.347 42.777 108.421 44.1425C109.368 45.1277 110.433 46.6092 111.029 48.6557C112.725 43.6537 110.747 39.2756 110.747 39.2756ZM99.064 48.5853C94.7144 49.1045 92.7725 51.1966 92.3104 52.0277C92.3104 52.0277 93.8566 51.0806 95.6349 53.3609C97.4112 55.6394 98.4706 55.0041 98.4706 55.0041C98.4706 55.0041 98.2918 55.8486 97.1069 56.6645C97.1906 57.0772 97.3009 57.6154 97.415 58.2088C98.3431 57.7904 99.4691 57.5336 100.817 57.5336C102.166 57.5336 103.288 57.7866 104.216 58.2088C104.332 57.6154 104.439 57.081 104.524 56.6683C103.336 55.8524 103.161 55.0041 103.161 55.0041C103.161 55.0041 104.216 55.6394 105.996 53.3609C107.773 51.0806 109.598 52.0429 109.598 52.0429C109.134 51.208 106.915 49.1045 102.567 48.5853C102.033 50.8542 100.814 51.1928 100.814 51.1928C100.814 51.1928 99.5984 50.8542 99.064 48.5853ZM68.0025 61.7425L38.7306 61.7463C40.6154 64.0609 43.1392 70.0556 42.3233 81.136L36.0908 160.279H67.4871C66.4429 157.968 64.5486 151.433 64.7959 140.906L66.9032 94.7116L90.4161 150.197C90.2963 143.113 87.9532 138.105 87.9532 138.105C87.9532 138.105 88.2936 137.43 88.4553 136.14C88.5504 134.683 88.2955 132.31 86.8349 128.664C84.0638 121.739 83.3525 116.051 83.2498 114.685C82.9531 114.099 82.7591 113.472 82.6412 112.806C79.0067 106.758 78.2003 99.2647 78.168 94.0288C75.5567 92.65 75.2448 91.157 75.2448 91.157C75.2448 88.0892 76.5971 86.2083 78.0539 85.0577C77.7591 82.1516 77.7819 79.2246 77.9208 76.6856L68.0025 61.7406V61.7425ZM133.279 61.7425L123.785 76.0427C123.979 79.0877 124.02 82.7792 123.539 86.3395C124.855 87.4198 125.998 89.0992 125.998 91.7085C125.998 91.7085 125.658 93.0893 122.708 94.3236C122.408 99.3522 121.297 106.285 117.721 111.34C117.7 111.385 117.685 111.414 117.685 111.414C118.379 114.868 116.54 120.054 116.54 120.054C116.54 120.054 116.312 120.303 115.947 120.745C115.768 122.057 115.593 122.886 115.576 122.97L115.519 123.23L115.363 123.453C115.317 123.525 112.436 126.349 110.627 130.225C109.985 132.447 109.802 134.778 110.565 136.96C111.658 140.07 111.169 142.061 110.23 143.337C110.209 144.965 109.863 146.367 109.245 147.561C108.18 149.621 105.015 150.838 105.015 150.838C99.9655 148.162 101.339 143.607 102.236 141.256C102.316 141.049 102.392 140.849 102.47 140.644C103.14 138.831 102.333 137.544 102.322 137.534L101.913 136.945L102.162 136.279C105.517 127.336 103.201 123.611 103.18 123.535L102.898 122.599L105.681 120.577C105.241 116.216 103.102 115.362 102.105 115.202C95.9468 120.646 97.6813 136.256 98.8433 141.939L98.8947 142.219C98.8947 142.219 98.0883 147.521 98.0331 155.034H108.809L134.437 94.7078L136.487 140.899C136.734 151.426 134.838 157.964 133.798 160.275H165.19L158.96 81.1341C158.136 70.0537 160.658 64.059 162.545 61.7444L133.281 61.7406L133.279 61.7425ZM100.814 62.6858C97.5653 62.6858 96.1218 66.5714 96.1218 66.5714C96.1218 66.5714 97.4778 66.2595 98.2024 67.935C96.0038 67.1153 95.6139 68.9012 95.6139 68.9012C95.6139 68.9012 98.229 67.9065 97.1773 72.3284H104.454C103.4 67.9065 106.019 68.9012 106.019 68.9012C106.019 68.9012 105.629 67.1153 103.433 67.935C104.157 66.2595 105.509 66.5714 105.509 66.5714C105.509 66.5714 104.062 62.6858 100.814 62.6858ZM96.7988 78.4201C96.4603 79.5726 97.0213 81.1664 100.814 81.1664C104.602 81.1664 105.167 79.5726 104.832 78.4201C104.832 78.4201 104.399 79.4205 100.814 79.4205C97.2286 79.4205 96.7988 78.4201 96.7988 78.4201ZM85.5549 81.3889C82.7706 90.2003 83.9231 99.7801 85.2906 106.039C85.9619 110.069 87.2076 112.907 87.2076 112.907L89.1723 111.908C89.1723 111.908 86.1445 118.808 92.5272 133.2C91.0742 122.315 94.4291 113.476 94.4291 113.476C94.1267 113.228 93.8395 112.966 93.5561 112.709C91.0456 109.936 91.9072 104.52 92.5082 101.929C92.7402 101.024 92.8981 100.486 92.8981 100.486C96.3043 106.886 100.785 100.486 100.785 100.486V86.02C89.4024 111.927 85.5549 81.3889 85.5549 81.3889ZM110.747 104.508C110.747 104.508 109.231 108.633 105.312 110.63C105.312 110.63 108.634 114.04 108.939 121.657L107.501 123.006L111.044 122.082C111.044 122.082 111.12 117.102 109.54 111.269C109.54 111.269 111.124 108.418 110.747 104.508Z" fill="#ECAC00"/>
<path d="M95.9068 32.9468L96.7398 36.7258C97.6014 40.6018 100.821 40.2842 100.821 40.2842C99.8114 39.7175 99.4253 38.5973 99.4253 38.5973H100.783V38.0058C99.7086 38.0058 98.9669 37.439 98.9669 37.439C98.9669 37.0187 99.4081 36.9236 99.9597 37.1214C100.509 37.3154 100.825 37.2755 100.825 37.2755V37.0796C99.7144 36.5451 99.4386 35.5524 99.4386 35.5524C99.9939 35.8966 100.774 36.0773 100.774 36.0773V33.3386C98.8014 33.3386 98.4743 34.5729 98.4743 34.5729C97.0802 34.4321 96.0818 33.2187 95.9334 32.9867C95.9125 32.9639 95.9068 32.9487 95.9068 32.9487V32.9468ZM100.962 44.649C94.313 44.649 92.7763 48.1371 93.0464 49.2059C93.0464 49.2059 95.3952 46.6099 100.962 46.6099C106.533 46.6099 108.881 49.2059 108.881 49.2059C109.148 48.1371 107.615 44.649 100.962 44.649ZM88.4153 52.2623C88.052 52.287 87.7801 52.3326 87.7116 52.3364C85.1479 53.5099 84.7294 56.7089 84.7294 56.7089C84.7294 56.7089 85.745 57.4221 86.7797 56.5567C87.8143 55.6952 88.5731 56.085 88.5731 56.085C87.3502 57.2699 87.4263 58.3882 87.4263 58.3882C89.5298 57.4411 90.6043 55.7161 90.6043 55.7161L91.2719 54.2592C91.426 52.3079 89.5013 52.19 88.4153 52.2623ZM100.817 57.5343C93.7976 57.5343 92.8276 64.3164 94.2731 66.2829C94.2731 66.2829 95.5245 60.5012 100.817 60.5012C106.118 60.5012 107.369 66.2829 107.369 66.2829C108.807 64.3164 107.843 57.5343 100.817 57.5343ZM85.9733 58.489C85.8877 68.2285 88.2669 72.5648 90.4008 74.5028C90.3951 73.7801 90.4465 73.0441 90.5397 72.3043C90.4674 71.9144 90.4218 71.5131 90.4046 71.108C87.6602 65.5431 85.9733 58.489 85.9733 58.489ZM115.664 58.489C115.664 58.489 113.98 65.5526 111.228 71.1175C111.209 71.5226 111.16 71.9125 111.091 72.3043C111.185 73.0441 111.24 73.782 111.232 74.5028C113.368 72.5686 115.747 68.2362 115.664 58.489ZM68.0005 61.7431L38.7287 61.7469C40.6153 64.0615 43.1372 70.0563 42.3213 81.1366L36.0889 160.28H42.4507L48.7326 80.3378C49.2613 72.8349 47.5819 67.3252 47.5819 67.3252H65.1096L77.3425 85.7049C77.5746 85.471 77.8085 85.2504 78.0519 85.0583C77.7571 82.1541 77.78 79.2271 77.9188 76.6862L68.0005 61.7431ZM133.269 61.7431L123.779 76.0358C123.975 79.0655 124.018 82.7361 123.545 86.2812L136.16 67.3252H153.69C153.69 67.3252 152.008 72.8368 152.533 80.3378L158.819 160.28H165.183L158.95 81.1366C158.131 70.0563 160.651 64.0615 162.537 61.7469L133.269 61.7431ZM96.8444 73.8562C96.8444 74.2803 96.9756 75.1343 100.812 75.1343C104.646 75.1343 104.783 74.2803 104.783 73.8562H100.812H96.8444ZM105.005 141.559C105.005 141.559 102.231 144.73 105.994 147.25L106.392 143.887C106.392 143.887 105.401 142.955 105.005 141.559ZM93.48 169.504L92.4739 174.161C92.4739 174.161 92.7953 175.027 94.7942 177.193L94.6934 172.064L93.48 169.504Z" fill="white"/>
</svg>
