<svg width="201" height="201" viewBox="0 0 201 201" fill="none" xmlns="http://www.w3.org/2000/svg">
<g clip-path="url(#clip0_15016_302040)">
<path d="M165.167 0.233612L161.4 11.2141H149.409L159.241 18.4732L155.657 30.0961L165.352 23.113L175.091 30.0043L171.416 18.4732L180.604 11.2141H168.935L165.167 0.233612ZM42.2266 41.5355V59.729H51.048V122.029H42.2266V141.049H82.4719V122.029H73.9268V78.2009L111.141 141.049H138.982V59.7324H147.252V41.5388H107.281V59.7324H116.377V98.3252L82.4706 41.5382L42.2266 41.5355Z" fill="#B5A67C" stroke="#10234E" stroke-width="2.96558"/>
<path d="M35.0873 149.835V156.548H37.4474V174.002H35.0645V180.738H49.2589V174.002H46.8863V166.9L54.8446 180.738H64.6468V156.548H67.0307V149.835H52.859V156.548H55.2429V163.673L47.2354 149.835H35.0873ZM75.8372 149.835L68.5808 174.002H66.249V180.738H80.4207V174.002H78.26L78.5988 172.855H85.5382L85.8829 174.002H83.7733V180.738H97.9443V174.002H95.554L88.3088 149.835H75.8372ZM92.1287 149.835V156.548H95.0071L103.126 180.738H112.427L120.51 156.548H123.387V149.835H109.228V156.548H110.768L110.438 157.536C110.097 158.555 109.717 159.691 109.309 160.936C108.726 162.638 108.219 164.142 107.755 165.55C107.542 164.913 107.337 164.296 107.138 163.697C106.809 162.706 106.497 161.767 106.196 160.88L106.026 160.375C105.558 158.988 105.13 157.716 104.745 156.548H106.288V149.835L92.1287 149.835ZM124.812 149.835V156.548H128.175L134.878 169.294V174.002H132.576V180.738H146.748V174.002H144.47V169.321L151.358 156.548H154.277V149.835H140.424V156.548H141.468L139.698 160.102L137.89 156.548H138.995V149.835L124.812 149.835ZM82.0814 161.327L83.5134 166.143H80.6355L82.0814 161.327Z" fill="#10234E"/>
<path d="M36.3372 151.087V155.301H38.6969V175.255H36.3145V179.492H48.0095V175.255H45.6375V162.225L55.5689 179.492H63.3979V155.301H65.7818V151.087H54.1091V155.301H56.493V168.33L46.5158 151.087H36.3372ZM76.7654 151.087L69.5071 175.255H67.4961V179.492H79.1688V175.255H76.585L77.6634 171.61H86.4645L87.5607 175.255H85.0206V179.492H96.6926V175.255H94.6221L87.3766 151.087H76.7654ZM93.3756 151.087V155.301H95.9029L104.022 179.492H111.526L119.609 155.301H122.136V151.087H110.475V155.301H112.497L111.622 157.936C111.281 158.953 110.902 160.085 110.492 161.337C109.654 163.78 108.977 165.808 108.357 167.729L107.778 169.524L107.171 167.739C106.734 166.453 106.332 165.238 105.951 164.094C105.623 163.105 105.311 162.169 105.01 161.284L104.84 160.777C104.26 159.055 103.738 157.509 103.286 156.119L103.019 155.301H105.037V151.088L93.3756 151.087ZM126.059 151.087V155.301H128.928L136.125 168.988V175.254H133.824V179.492H145.497V175.254H143.219V169.008L150.61 155.301H153.025V151.087H141.671V155.301H143.484L139.707 162.886L135.851 155.301H137.743V151.087H126.059ZM82.0859 156.965L85.1861 167.395H78.9531L82.0859 156.965Z" fill="#B5A67C"/>
</g>
<defs>
<clipPath id="clip0_15016_302040">
<rect width="200" height="200" fill="white" transform="translate(0.453125 0.230469)"/>
</clipPath>
</defs>
</svg>
