<svg width="200" height="201" viewBox="0 0 200 201" fill="none" xmlns="http://www.w3.org/2000/svg">
<path d="M61.093 25.5182L38.3858 49.2212L38.3853 95.8315L59.6395 117.487H38.3853L38.3858 151.65L61.1703 174.671H138.825L161.626 151.65V102.576L141.979 82.6931H161.626V49.2212L138.903 25.5182L61.0941 25.5183L61.093 25.5182ZM63.4019 30.9248H136.593L156.213 51.3969V77.2792H127.245V85.4281H137.181L156.213 104.945V149.422L136.575 169.259H63.4314L43.796 149.422L43.7962 122.887H71.618V113.616H63.4203L43.7962 93.6212L43.7965 51.3969L63.4019 30.9248ZM94.6944 59.1172L112.528 73.0718V59.1172H94.6944ZM86.416 71.4405V85.4281H104.591L86.416 71.4405ZM86.4387 119.645V134.188H112.528V129.114H123.015V124.469H112.528V119.645L86.4387 119.645Z" fill="black"/>
<path d="M64.5583 33.6331L46.502 52.4841V92.5109L64.5583 110.913H72.6253L80.989 104.951H117.976L127.262 111.679V124.469H125.714V129.114H127.262V142.589L118.103 149.182H81.1402L71.6192 142.248V125.594H46.502V148.307L64.5583 166.553H135.44L153.509 148.307V106.039L135.962 88.1319H127.247V92.3882H113.647L108.107 88.1319H86.4174V92.3222L71.6192 92.3018V52.2465H85.9138L91.2364 56.4141H112.529V52.2465H127.247V74.5762H153.509V52.4841L135.44 33.6331L64.5583 33.6331ZM74.3237 54.9487V89.6245H83.7163V65.9499L114.561 89.6859H124.538V54.9487H115.238V78.6336L84.9816 54.9487H74.3237ZM81.8553 107.66L74.3237 113.023V140.872L81.9326 146.488H117.237L124.571 141.213V131.823H115.238V136.893H83.7379V116.942H115.238V121.764H124.571V113.049L117.099 107.66H81.8553Z" fill="#CC0000"/>
<path d="M165.672 153.323V101.057L151.837 86.7513H165.672V47.5907L140.634 21.4571L59.3618 21.457L34.3262 47.5907L34.3263 97.4944L49.9691 113.429H34.3263L34.3264 153.323L59.4834 178.732H140.523L165.672 153.323ZM61.093 25.5204H138.901L161.625 49.2234V82.6953H141.978L161.625 102.579V151.652L138.824 174.673H61.1703L38.3858 151.652L38.3852 117.489H59.6395L38.3852 95.8337L38.3858 49.2234L61.093 25.5204ZM63.4019 30.927L43.796 51.3991L43.7962 93.6235L63.4203 113.618H71.618V122.889H43.7962L43.7965 149.424L63.4319 169.262H136.576L156.214 149.424V104.947L137.182 85.4303H127.246V77.2815H156.214V51.3991L136.593 30.927H63.4019ZM64.5569 33.6362H135.439L153.507 52.4872V74.5793H127.245V52.2473H112.528V56.4172H91.235L85.9124 52.2473H71.6178V92.3026L86.416 92.3253V88.135H108.106L113.645 92.3913H127.245V88.135H135.96L153.507 106.042V148.31L135.439 166.556H64.5569L46.5005 148.31V125.597H71.6178V142.251L81.1388 149.185H118.102L127.26 142.592V129.117H125.713V124.472H127.26V111.682L117.975 104.954H80.9876L72.6239 110.916H64.5569L46.5006 92.514V52.4872L64.5569 33.6362ZM74.3223 54.9519H84.9802L115.237 78.6367V54.9518H124.536V89.689H114.56L83.7149 65.953V89.6276H74.3223V54.9519ZM94.6944 59.1195H112.528V73.0742L94.6944 59.1195ZM86.416 71.4428L104.591 85.4304H86.416V71.4428ZM81.8539 107.664H117.098L124.569 113.052V121.767H115.237V116.945H83.7365V136.896H115.237V131.826H124.569V141.216L117.236 146.491H81.9312L74.3223 140.875V113.026L81.8539 107.664ZM86.4387 119.647H112.528V124.472H123.015V129.117H112.528V134.19H86.4387V119.647Z" fill="white"/>
</svg>
