<svg width="201" height="201" viewBox="0 0 201 201" fill="none" xmlns="http://www.w3.org/2000/svg">
<path d="M31.6621 31.8589V72.5743H40.7094V128.675H36.1853H31.6621V169.388H89.5685V164.863V133.199V128.675H85.0453H80.5213V106.253L119.227 167.288L120.559 169.388H169.192V164.864V133.199V128.675H164.668H160.144V72.5752H169.192V68.0511V36.3837V31.8597H164.668H115.809H111.285V72.5752H120.332V94.999L81.6334 33.9494L80.3013 31.8491H77.8132H36.1943H31.6703L31.6621 31.8589Z" fill="#E41C38"/>
<path d="M33.4707 33.6685V70.7635H42.5188V130.484H36.1853H33.4707V167.58H87.759V164.864V133.199V130.484H85.0445H78.7118V100.023L120.754 166.318L121.554 167.579H167.382V164.863V133.199V130.484H164.668H158.335V70.7635H167.382V68.0505V36.3831V33.6685H164.668H115.808H113.094V70.7635H122.141V101.232L80.0976 34.9281L79.2984 33.6677H77.805H36.1853L33.4707 33.6685Z" fill="white"/>
<path d="M36.1846 36.3818V68.0492H45.2318V133.196H36.1846V164.864H85.0438V133.196H75.9973V90.6734L123.047 164.864H164.668V133.196H155.62V68.0492H164.668V36.3818H115.808V68.0492H124.856V110.581L77.8043 36.3818H36.1846Z" fill="#E41C38"/>
</svg>
