<svg width="201" height="201" viewBox="0 0 201 201" fill="none" xmlns="http://www.w3.org/2000/svg">
<g clip-path="url(#clip0_15016_302065)">
<path d="M99.0563 36.9149C95.7168 36.9464 92.3764 37.0754 89.049 37.2988V42.2666C89.8885 42.3174 90.474 42.4625 90.8184 42.7012C91.1571 42.9375 91.3321 43.3125 91.3321 43.8222C91.3321 44.0916 91.32 44.3149 91.3014 44.4883C91.2837 44.6666 91.2595 44.8287 91.2176 44.9795C89.7675 50.7529 88.324 56.5408 86.8804 62.3449C85.2982 56.7126 83.7224 51.1029 82.1514 45.5093C82.0909 45.3432 82.049 45.1819 82.0191 45.0319C81.9949 44.8787 81.9764 44.7158 81.9764 44.5391C81.9764 44.0698 82.1514 43.6867 82.4901 43.3956C82.8345 43.1053 83.4022 42.8561 84.199 42.6585V37.6931C79.2006 38.1706 74.2175 38.8649 69.2707 39.7706V44.7383C70.0255 44.7883 70.5933 44.9633 70.9683 45.2512C71.3425 45.5432 71.6626 46.1254 71.928 46.9972C74.1449 54.3021 76.3675 61.6489 78.5901 69.0409C83.5611 68.4038 88.5554 67.9836 93.5563 67.7763C95.6764 59.9989 97.8023 52.2577 99.9281 44.5585C100.158 43.7883 100.466 43.198 100.847 42.7803C101.226 42.3633 101.74 42.0625 102.386 41.8803V36.9141C101.275 36.9036 100.164 36.9036 99.0523 36.9141L99.0563 36.9149ZM110.243 37.1673C108.195 44.4948 106.142 51.8626 104.094 59.2634C103.774 60.4416 103.423 61.232 103.056 61.6376C102.681 62.0449 102.155 62.3174 101.467 62.4626V67.6312C105.918 67.6473 110.369 67.8392 114.808 68.1997V63.0279C113.987 62.9368 113.395 62.7602 113.02 62.4916C112.652 62.2223 112.464 61.8328 112.464 61.3215C112.464 61.2005 112.477 61.0707 112.495 60.9295C112.519 60.7892 112.543 60.6118 112.58 60.3989C112.706 60.019 112.827 59.6376 112.954 59.2561C115.75 59.4513 118.541 59.7166 121.331 60.0497C121.452 60.4932 121.573 60.9376 121.699 61.3852C121.735 61.5626 121.766 61.7328 121.784 61.89C121.802 62.0465 121.814 62.1787 121.814 62.2844C121.814 62.7037 121.614 63.0142 121.228 63.2239C120.835 63.4352 120.31 63.5207 119.652 63.4892V68.6562C124.562 69.1933 129.46 69.9384 134.323 70.8973V65.7271C133.664 65.4529 133.156 65.0957 132.8 64.6594C132.444 64.2207 132.124 63.5142 131.84 62.5336C129.614 54.5182 127.381 46.5504 125.131 38.623C120.195 37.9246 115.22 37.4375 110.244 37.1673H110.243ZM65.8683 40.4327C55.8126 42.4867 45.9012 45.4424 36.2576 49.2932V54.2577C37.0673 54.069 37.6206 54.1045 37.9206 54.3601C38.2165 54.615 38.3657 55.3706 38.3657 56.6206V70.8296C38.3657 72.082 38.2165 72.9497 37.9206 73.4336C37.6206 73.9223 37.0673 74.3901 36.2576 74.8473V80.0143C45.9012 76.1643 55.8126 73.2086 65.8683 71.1554V60.8602C62.7699 61.4924 59.6908 62.2102 56.6263 63.0118V64.1231C56.6263 65.4013 56.3061 66.3562 55.665 66.9917C55.0255 67.6287 53.8819 68.1691 52.2359 68.6449C50.815 69.0578 49.3972 69.4884 47.9835 69.9384V62.5521C51.8021 61.3384 55.6529 60.2545 59.5271 59.3126V54.1432C55.6537 55.0884 51.8021 56.169 47.9835 57.3827V50.9682C49.1771 50.5851 50.3746 50.2198 51.573 49.8666C53.4561 49.3109 54.7714 49.1924 55.5134 49.4617C56.2545 49.7359 56.6263 50.4658 56.6263 51.6472V51.9714C59.6908 51.1698 62.7707 50.4505 65.8683 49.8182V40.4311V40.4327ZM137.783 40.8915V45.8553C138.629 46.1746 139.202 46.5569 139.51 46.9996C139.819 47.4383 139.969 48.2835 139.969 49.5367V63.7449C139.969 64.9957 139.819 65.7739 139.51 66.0707C139.202 66.3707 138.629 66.4949 137.783 66.4441V71.6126C142.519 72.6425 147.223 73.8739 151.873 75.303C158.312 77.2933 162.546 78.1554 164.69 77.3772C166.834 76.6135 167.898 73.9489 167.898 69.3191V61.9691C167.898 57.5747 166.78 54.061 164.528 51.5077C162.274 48.9658 158.095 46.5012 151.873 44.5811C147.223 43.1504 142.519 41.9214 137.783 40.8915ZM116.97 43.4569C117.961 47.4666 118.945 51.4835 119.936 55.5069C117.973 55.2908 116.004 55.1045 114.035 54.9545C115.019 51.1158 115.992 47.2803 116.97 43.4569ZM149.773 50.0271C150.708 50.2884 151.639 50.5537 152.569 50.8303C152.75 50.89 152.931 50.948 153.119 51.0045C155.136 51.6456 156.513 52.4287 157.249 53.3166C157.992 54.2021 158.355 55.6739 158.355 57.7174V66.9844C158.355 68.7465 157.974 69.7675 157.207 70.0562C156.44 70.3465 154.918 70.0981 152.623 69.3779C151.675 69.0836 150.727 68.7941 149.773 68.5175V50.0271ZM31.0996 51.4513C26.7971 53.3303 22.556 55.3932 18.3834 57.6376V62.6029C19.1624 62.2924 19.7108 62.2755 20.031 62.5457C20.356 62.815 20.5157 63.4957 20.5157 64.5828V73.7893C17.1874 69.761 13.9019 65.8489 10.6672 62.0489C7.30512 64.0876 3.99704 66.2457 0.742994 68.532C0.753478 70.1812 0.75993 71.8304 0.767188 73.4804C1.47203 73.1223 1.96397 73.0296 2.243 73.2014C2.52203 73.3739 2.66155 73.9086 2.66155 74.8127V89.6474C2.66155 90.8603 2.52445 91.753 2.2559 92.3289C1.98252 92.9055 1.48735 93.4837 0.767188 94.0676C0.75993 95.7958 0.753478 97.5224 0.742188 99.2563C4.64785 96.5095 8.63899 93.9434 12.7011 91.5547C12.693 89.8385 12.685 88.12 12.6777 86.4038C11.9092 86.7595 11.3858 86.8191 11.0995 86.5748C10.81 86.3304 10.668 85.6377 10.668 84.4941V75.3288C13.9019 79.182 17.1874 83.149 20.5157 87.2312C23.285 85.7909 26.085 84.4272 28.9149 83.1441V60.8207C28.9149 59.5021 29.0673 58.5747 29.3802 58.0481C29.6899 57.5166 30.2609 56.9706 31.0996 56.4142V51.4513ZM179.223 55.611C177.345 62.1037 175.454 68.6344 173.552 75.1973C173.256 76.2425 172.929 76.8917 172.585 77.1465C172.24 77.4006 171.745 77.4578 171.105 77.3191V82.4885C175.261 84.3264 179.356 86.3337 183.384 88.5119V83.3449C182.641 82.9183 182.103 82.4949 181.765 82.0772C181.427 81.6554 181.258 81.1933 181.258 80.6788C181.258 80.5578 181.264 80.432 181.282 80.2998C181.3 80.1683 181.324 80.003 181.361 79.8062C181.475 79.4756 181.584 79.1449 181.699 78.8143C184.248 80.1554 186.772 81.5651 189.266 83.0409C189.375 83.5377 189.484 84.0328 189.599 84.5288C189.629 84.7248 189.659 84.9062 189.671 85.07C189.69 85.232 189.702 85.3708 189.702 85.4764C189.702 85.8933 189.526 86.1272 189.176 86.1772C188.832 86.2264 188.361 86.0974 187.763 85.7925V90.9587C192.178 93.5143 196.508 96.2797 200.742 99.2563V94.0845C200.168 93.5353 199.728 92.9716 199.413 92.3829C199.105 91.7998 198.821 90.9579 198.574 89.8619C196.623 80.9248 194.654 72.0312 192.661 63.1803C188.27 60.444 183.782 57.9223 179.223 55.611ZM185.347 64.6626C186.241 69.0755 187.128 73.4957 188.016 77.928C186.253 76.903 184.478 75.9118 182.683 74.9538C183.578 71.5143 184.465 68.0836 185.347 64.6626ZM114.658 79.3183C113.836 79.4369 111.71 79.4022 112.115 82.2256C112.297 83.507 112.532 86.0788 112.87 87.5692C112.87 87.5692 90.8369 87.6216 79.8506 85.7925L83.0216 88.8079C83.0216 88.8079 58.84 91.9353 48.6577 91.2256L52.4771 94.4902C52.4771 94.4902 39.6149 97.9458 17.4914 100.724C17.4914 100.724 32.4859 102.451 41.0077 108.37C72.107 101.739 102.751 102.476 102.751 102.476C102.751 102.476 77.3368 105.676 58.7408 110.677C58.7408 110.677 62.9432 111.264 64.4594 112.822C64.4594 112.822 39.2157 118.56 14.5922 129.298C14.5922 129.298 28.6834 130.005 40.8198 132.01L42.1811 132.258C72.0271 120.679 99.5982 118.621 99.5982 118.621C74.0207 123.531 53.4158 134.475 53.4158 134.475C58.1448 135.623 59.4295 135.948 63.9884 137.41C63.9884 137.41 90.8837 124.388 116.927 122.256C116.927 122.256 113.472 124.31 112.614 127.873C112.614 127.873 122.797 124.643 133.373 125.27C133.373 125.27 122.798 127.004 114.269 131.588C109.697 134.046 102.909 139.79 102.909 139.79C102.909 139.79 102.909 134.269 105.119 130.634C105.119 130.634 90.5998 133.382 78.9546 143.764C78.9546 143.764 93.5885 151.338 96.5789 162.541C96.5789 162.541 96.8506 163.792 96.8748 164.064L96.899 164.336C117.736 131.189 170.107 142.514 170.107 142.514C170.107 142.514 171.882 142.773 174.986 140.835C174.986 140.835 175.857 140.255 175.832 139.536C175.827 139.294 175.512 139.101 175.059 138.956C175.216 137.972 175.216 137.362 175.161 137.193C175.083 136.939 174.95 137.144 174.95 137.144C174.606 137.706 174.244 138.225 173.894 138.69C173.543 138.636 173.186 138.588 172.843 138.557C173.03 137.271 173.084 136.178 173.03 136.009C172.951 135.755 172.819 135.967 172.819 135.967C172.232 136.915 171.604 137.742 171.049 138.401C169.925 138.05 169.201 137.724 168.675 137.404C168.832 136.523 168.857 135.586 168.911 134.505C168.923 134.294 168.959 134.264 168.911 134.221C168.832 134.143 168.621 134.366 168.621 134.366C168.132 134.97 167.57 135.519 167.05 135.973C166.682 135.616 166.223 135.223 165.474 134.777C165.758 133.496 165.764 133.061 165.661 131.702C165.643 131.497 165.625 131.352 165.516 131.346C165.395 131.328 165.184 131.6 165.184 131.6C164.393 132.427 163.427 133.068 162.696 133.49C162.219 133.327 161.76 133.188 161.294 133.073C161.282 132.952 161.277 132.832 161.265 132.705C161.095 131.207 160.751 130.319 160.576 130.223C160.401 130.126 160.147 130.482 160.147 130.482C159.591 131.328 158.715 132.052 157.888 132.602C156.879 132.56 155.895 132.59 154.928 132.639C154.928 132.639 153.969 132.627 153.678 132.077C152.821 130.47 154.59 128.743 154.59 128.743C155.852 127.692 158.577 125.735 162.515 125.464C162.641 125.796 162.811 126.152 163.046 126.617C163.046 126.617 163.403 127.402 163.607 127.451C163.813 127.493 164.55 127.094 165.371 126.146C165.504 125.995 165.625 125.814 165.74 125.627C166.271 125.711 166.821 125.838 167.389 125.995C167.268 126.454 167.123 126.949 166.923 127.463C166.923 127.463 166.682 128 167.038 127.903C167.292 127.837 168.144 127.42 169.146 126.593C169.521 126.738 169.901 126.901 170.288 127.082C170.167 127.614 169.998 128.199 169.769 128.803C169.769 128.803 169.527 129.341 169.877 129.244C170.131 129.178 170.97 128.773 171.961 127.958C171.985 127.97 172.009 127.982 172.033 128C172.583 128.32 173.12 128.592 173.634 128.827C173.241 130.452 172.734 132.185 172.13 133.478C172.13 133.478 172.063 133.611 172.154 133.665C172.244 133.72 172.359 133.617 172.359 133.617C172.492 133.623 174.34 131.914 175.941 129.649C176.69 129.836 177.39 129.945 178.043 129.987C177.922 130.591 177.735 131.346 177.469 132.035C177.469 132.035 177.42 132.192 177.487 132.21C177.59 132.228 178.502 131.6 179.873 129.945C181.903 129.715 183.219 128.924 183.665 128.647C184.324 128.23 184.421 128.103 184.421 128.103C184.832 127.747 185.133 127.348 185.502 126.792C188.22 122.727 184.861 121.235 184.861 121.235C182.971 120.378 181.086 119.762 181.086 119.762C177.904 118.306 169.224 115.002 165.341 110.177C159.911 103.425 157.128 101.812 157.128 101.812C151.921 98.8103 142.771 93.7353 138.307 92.0353C137.885 91.8474 137.305 91.578 136.876 91.4014C121.571 84.8925 115.477 79.1973 114.656 79.3191L114.658 79.3183ZM113.456 90.47C114.392 90.499 115.51 91.0127 115.51 91.0127C115.51 91.0127 122.951 94.2748 128.736 98.0305C128.736 98.0305 129.431 98.5015 129.123 98.8877C128.978 99.0692 128.598 99.166 128.598 99.166C126.152 99.9869 120.86 99.691 120.86 99.691C120.86 99.691 122.485 102.27 124.75 103.485C124.75 103.485 122.328 104.016 121.38 103.961C121.38 103.961 123.639 105.079 120.999 106.377C120.999 106.377 119.931 107.102 118.958 105.858C117.985 104.619 113.516 100.023 112.23 93.0329C112.23 93.0329 111.819 91.1369 112.628 90.6401C112.852 90.5047 113.143 90.4603 113.456 90.47ZM153.868 107.525C154.025 107.501 154.164 107.627 154.164 107.627L170.374 118.378C158.844 112.078 156.616 115.992 156.616 115.992C156.616 115.992 156.507 116.071 156.441 115.992C156.375 115.914 156.453 115.997 156.429 115.781C155.982 112.036 153.736 108.098 153.736 108.098C153.736 108.098 153.518 107.826 153.717 107.615C153.765 107.56 153.82 107.531 153.868 107.525ZM157.969 111.728C157.969 111.728 158.857 112.918 158.664 113.879C158.664 113.879 160.379 114.555 161.025 113.486C161.025 113.486 159.497 112.206 157.969 111.728ZM181.04 121.187C181.615 121.168 182.152 121.248 182.503 121.374C183.426 121.724 186.126 122.703 185.003 125.101C183.879 127.498 182.762 127.77 182.762 127.77C182.762 127.77 182.219 127.879 182.007 127.626C181.795 127.365 181.711 127.148 181.911 127.027C182.11 126.913 183.626 126.224 183.704 125.319C183.782 124.412 183.239 124.152 183.034 124.147C182.828 124.141 182.297 124.279 182.563 124.95C182.828 125.614 182.207 126.067 182.207 126.067C182.207 126.067 181.753 126.435 181.457 126.122C181.156 125.814 179.446 124.443 179.132 124.237C179.132 124.237 178.099 123.5 178.685 122.28C179.048 121.513 180.086 121.223 181.04 121.187ZM161.605 121.966C162.463 121.936 163.32 122.093 164.136 122.395C164.758 122.624 166.032 123.138 166.256 123.851C166.261 123.868 166.261 123.881 166.25 123.899C166.099 124.068 164.517 123.639 164.444 123.621C163.544 123.458 162.626 123.427 161.714 123.518C160.79 123.609 159.884 123.827 159.003 124.123C158.374 124.339 157.523 124.95 156.846 124.798C156.84 124.327 157.462 123.754 157.843 123.452C158.507 122.914 159.256 122.48 160.077 122.22C160.579 122.063 161.091 121.978 161.605 121.966Z" fill="#16457C"/>
</g>
<defs>
<clipPath id="clip0_15016_302065">
<rect width="200" height="200" fill="white" transform="translate(0.742188 0.621094)"/>
</clipPath>
</defs>
</svg>
