<svg width="201" height="201" viewBox="0 0 201 201" fill="none" xmlns="http://www.w3.org/2000/svg">
<g clip-path="url(#clip0_15016_302038)">
<path d="M197.166 154.388H192.204L192.629 152.264L197.443 152.236L200.711 133.517H196.967C197.639 132.936 198.185 132.186 198.572 131.303C199.261 129.699 199.28 127.916 198.649 126.386C198.396 124.128 196.881 122.152 194.846 121.379C193.52 120.05 191.637 119.285 189.631 119.285C189.245 119.285 188.854 119.314 188.483 119.372C187.992 119.45 187.406 119.623 186.848 119.908L180.133 118.693C178.961 117.809 177.682 117.595 176.999 117.482L167.847 115.996L167.688 115.98C167.115 115.916 166.581 115.937 166.054 116.028C164.903 115.411 163.722 115.238 162.607 115.16L162.188 115.132L161.781 115.233C161.154 115.389 160.372 115.717 159.048 116.388C156.389 115.732 153.729 115.072 151.218 114.457C151.516 110.892 151.473 106.063 150.299 100.462C150.869 96.481 150.534 93.4354 150.081 90.7316C149.457 87.062 147.184 83.4371 144.004 81.0452C142.385 79.824 140.335 78.7276 137.779 77.7174C137.355 77.1796 136.756 76.7651 136.026 76.5259C135.007 76.1827 133.991 75.8604 132.996 75.5632C132.256 74.0033 130.916 72.4434 128.138 72.5771H128.132C127.832 72.5771 127.778 72.5715 126.905 71.4421C126.849 71.3715 126.792 71.299 126.733 71.2222C127.003 68.8452 127.4 64.6854 127.608 60.4216C135.452 55.4596 139.656 48.9674 140.146 45.7733C140.256 45.0572 140.598 42.8763 139.218 41.2718C138.662 40.6256 137.643 39.8545 135.89 39.8545C135.259 39.8545 134.566 39.9548 133.766 40.1635C132.43 40.5112 130.779 41.5036 128.878 42.6445C128.046 43.1467 127.169 43.6756 126.323 44.145C126.061 43.2299 125.853 42.4811 125.667 41.8274C125.445 41.0193 125.253 40.3463 125.052 39.6584C125.013 39.5321 118.783 26.7483 114.579 26.7334C112.959 26.7334 111.994 27.6753 111.414 28.2339C110.948 28.6826 110.79 28.8371 110.153 28.8995C109.921 28.8995 109.471 28.6855 108.952 28.4389C107.687 27.8372 105.952 27.0112 103.144 27.0112L102.885 27.0131C98.5174 27.0891 88.6231 38.5713 88.0437 40.0867L87.8089 40.6943C87.4093 41.7402 86.9057 43.0564 86.3084 44.6461C83.8423 43.3669 81.2721 42.2393 78.9694 41.8085C74.7799 41.0211 69.5208 43.621 69.4613 48.4641C69.3853 53.9016 74.5125 60.9583 84.4663 64.3604L84.7649 64.9487C84.8112 65.077 84.8317 65.2176 84.8614 65.3647C84.9617 65.8386 85.0962 66.4819 85.426 67.1772C85.4148 67.8234 85.4334 68.6064 85.4631 69.4354C82.2244 69.2571 78.7778 69.1026 75.1231 69.1531C74.2703 69.1605 73.6404 69.4086 73.1918 69.7028C69.8194 69.9227 65.511 70.5258 61.0244 72.7632C60.3722 72.9355 59.7527 73.0915 59.1525 73.246C55.8247 74.0943 52.9574 74.8208 49.2136 76.6333C44.3705 78.9657 41.4289 81.2982 38.8439 83.3632C37.7371 84.2457 36.6897 85.0717 35.6201 85.7996C32.114 88.1469 28.4296 91.5045 27.7908 98.4572C27.412 102.483 28.3583 106.391 30.5392 109.748C31.9446 111.917 34.2979 114.71 36.5709 117.399C37.7 118.736 38.7696 120.014 39.7056 121.173L39.7594 122.076L42.0472 124.483C43.6814 126.191 45.3602 127.959 46.3556 129.088C46.571 129.333 46.8102 129.528 47.0523 129.681C47.1618 129.861 47.2722 130.046 47.3851 130.231C47.5352 130.73 47.7922 131.576 48.0537 132.429C48.1762 132.83 48.2988 133.234 48.4117 133.61H8.00243L4.76375 151.438H6.60594L5.79181 155.954H3.94962L0.710938 173.782H91.7803C93.7711 173.782 95.5539 173.613 97.1583 173.097L97.0116 173.782H193.726L197.143 154.469L197.166 154.388Z" fill="white"/>
<path d="M115.158 29.27C113.892 29.2626 113.643 31.1568 111.073 31.4094C108.829 31.656 107.7 29.4632 103.511 29.5375C100.851 29.5857 91.5662 39.7141 91.1205 40.9026C90.4936 42.5368 89.5458 44.9732 88.3424 48.3307C85.4603 46.6965 81.8799 44.8098 79.0572 44.2898C76.2642 43.7669 72.7432 45.3951 72.6987 48.3604C72.6392 52.5796 77.1407 59.057 86.9459 61.954C87.2193 62.5126 87.5238 63.095 87.7674 63.5882C88.1537 64.3444 88.0319 65.371 88.7257 66.3218C88.6236 67.4048 88.7896 70.3627 88.7896 70.5707C88.329 71.0015 87.9249 71.4591 87.5743 71.9805C83.8305 71.774 80.0124 71.5512 75.7635 71.6121C75.3936 71.6158 75.0876 71.7105 75.0965 72.0964C74.9286 72.1021 74.7607 72.1102 74.5943 72.1196C71.1179 72.3098 66.9433 72.8312 62.5904 75.0612C58.2523 76.2125 55.2365 76.7845 50.9876 78.8198C44.2874 82.0288 41.3904 85.3269 37.7209 87.793C34.3485 90.0512 31.5852 92.8293 31.0504 98.4896C30.6626 102.62 31.9299 105.829 33.3828 108.072C35.4776 111.311 40.0533 116.288 42.9355 119.972C42.9429 120.192 42.9554 120.481 42.9702 120.727C44.9015 122.777 47.5608 125.525 48.9722 127.1C49.1022 127.249 49.3599 127.344 49.5382 127.381C49.8294 127.886 50.1384 128.388 50.4578 128.911C50.6613 129.609 51.8365 133.457 52.0474 134.155C52.2718 134.845 52.6432 135.469 53.0978 136.057H27.6934L26.805 141.405L25.1708 136.057H10.8493L8.57629 148.625H10.4185L8.63572 158.475H6.79353L4.52051 171.044H20.1197L20.9546 165.859L22.5591 171.044H47.8149L48.8741 165.012L51.3254 171.593L55.1584 166.29L54.2997 171.044H92.4805C97.8436 171.044 100.488 169.674 102.509 164.15L101.026 171.044H192.244L194.769 157.257H189.54L190.959 149.487H195.742L198.223 136.057H173.413C173.632 135.715 173.837 135.344 174.008 134.913C175.835 134.794 176.964 134.026 177.588 132.774C178.252 132.081 178.851 131.214 179.341 130.263C179.824 130.174 180.344 129.955 180.729 129.66L188.588 131.09L189.005 132.725L192.719 132.496L194.755 131.965C196.76 131.469 197.696 128.742 196.671 126.944C196.68 125.354 195.491 123.839 193.997 123.601C193.036 122.284 191.219 121.611 189.54 121.878C189.069 121.95 188.418 122.215 188.103 122.597L179.546 121.052C178.91 120.336 178.109 120.134 177.199 119.981L168.047 118.495C167.359 118.425 166.773 118.547 166.235 118.829C165.312 117.987 164.333 117.767 163.041 117.681C162.42 117.837 161.199 118.451 159.995 119.085C156.192 118.142 152.344 117.183 148.927 116.366C149.539 112.058 149.554 106.546 148.208 100.47C148.85 96.429 148.47 93.5023 148.069 91.1105C147.461 87.5301 145.127 84.7074 143.018 83.1178C141.413 81.904 139.289 80.815 136.451 79.7602C136.453 79.4423 136.286 79.1496 135.799 78.9877C133.021 78.0517 130.198 77.2644 127.598 76.581C128.473 76.3002 129.366 75.6762 130.109 75.021C126.855 75.6881 126.41 74.1059 124.582 71.9606C124.595 71.8512 124.607 71.7452 124.62 71.6531C124.953 68.9344 125.451 63.6753 125.633 58.8172C133.76 54.0781 137.771 47.6453 138.142 45.298C138.581 42.4753 137.223 42.1187 135.082 42.6684C133.047 43.2032 128.411 46.7539 125.247 47.7938C124.07 43.7529 123.628 42.089 123.123 40.3359C122.843 39.3822 116.853 29.3422 115.219 29.3274L115.158 29.27ZM97.0333 54.6744C97.7019 54.8586 98.4774 55.0577 99.4401 55.2954C99.966 55.4202 100.484 55.5375 101 55.6519C101.117 55.6787 101.23 55.7022 101.345 55.7274C102.385 55.9503 103.41 56.1523 104.405 56.3246C104.5 56.3439 104.595 56.3561 104.689 56.374C105.699 56.5448 106.694 56.6859 107.66 56.8033C107.748 56.8137 107.838 56.8248 107.922 56.8323C108.893 56.9437 109.853 57.0269 110.774 57.0819C110.857 57.0833 110.94 57.0905 111.024 57.0964C111.952 57.144 112.866 57.1619 113.757 57.1515C113.84 57.1501 113.925 57.1503 114.007 57.1486C117.349 57.0877 120.44 56.5929 123.247 55.6035C123.247 55.7209 123.245 55.8472 123.242 55.9838C121.444 55.9095 118.725 57.9152 117.106 59.9059C116.984 60.053 116.873 60.2015 116.764 60.3501C116.792 60.3323 116.819 60.3156 116.848 60.2978L120.652 61.6958L121.486 59.9576C121.96 59.9249 122.127 59.9046 122.708 59.9982C122.024 58.9939 121.656 58.5749 121.177 58.3045C121.846 58.1084 122.528 57.9732 123.198 57.9302C123.186 58.3625 123.172 58.7829 123.157 59.1573C123.061 61.3115 122.706 66.6597 122.348 69.8093C121.756 69.3606 121.072 68.9135 120.253 68.4752C119.916 68.2969 119.605 68.1885 119.315 68.138C119.666 67.8393 119.672 67.2599 119.608 66.5483C119.51 65.4727 118.631 64.0376 118.093 64.1416C118.057 64.149 118.024 64.1614 117.988 64.1822C117.28 62.6965 116.767 61.7903 115.953 60.4086C116.035 60.2957 116.112 60.1873 116.188 60.0833C116.195 60.0744 116.205 60.0604 116.214 60.0485C116.287 59.9475 116.354 59.8584 116.426 59.7648C116.434 59.7544 116.446 59.7404 116.455 59.727C116.527 59.6334 116.596 59.5473 116.668 59.4596C116.677 59.4477 116.689 59.4382 116.7 59.4249C116.773 59.3372 116.848 59.2496 116.929 59.1604C116.931 59.1589 116.933 59.1531 116.934 59.1516C117.38 58.6614 117.967 58.1266 119.059 57.2203C117.986 57.8027 117.246 58.241 116.697 58.6272C116.633 58.6733 116.566 58.7205 116.502 58.7666C116.471 58.7874 116.442 58.811 116.412 58.8333C116.347 58.8808 116.284 58.9251 116.226 58.9697C116.202 58.989 116.18 59.0084 116.157 59.0248C116.084 59.0827 116.016 59.1395 115.944 59.1956C115.94 59.2001 115.931 59.2028 115.927 59.2072C115.771 59.3379 115.622 59.4687 115.48 59.6024C115.472 59.6054 115.465 59.6125 115.459 59.6169C115.392 59.6793 115.327 59.7388 115.262 59.8027C115.257 59.8071 115.25 59.8156 115.247 59.82C115.103 59.9537 114.962 60.0993 114.806 60.2494C116.045 62.4036 116.544 63.6218 117.213 65.5531C117.511 64.008 119.322 68.153 117.32 67.529C117.348 68.0891 117.038 68.765 116.081 68.9106C115.918 68.9344 115.754 68.9525 115.603 68.9629C115.551 68.9689 115.502 68.9672 115.451 68.9717C115.35 68.9732 115.252 68.9775 115.155 68.9775C115.1 68.9775 115.045 68.9777 114.993 68.9745C114.906 68.9715 114.826 68.9646 114.744 68.9571C114.69 68.9512 114.638 68.9485 114.588 68.9426C114.511 68.9337 114.432 68.9197 114.356 68.9078C114.312 68.9004 114.267 68.8936 114.22 68.8817C114.144 68.8668 114.067 68.8472 113.994 68.8294C113.957 68.8175 113.918 68.8108 113.881 68.7974C113.786 68.7722 113.697 68.7416 113.607 68.7104C113.597 68.7089 113.586 68.7018 113.575 68.6988C113.479 68.6616 113.384 68.6257 113.296 68.5856C113.263 68.5707 113.232 68.5556 113.2 68.5392C113.146 68.5125 113.09 68.4892 113.039 68.4609C113.006 68.4416 112.974 68.4235 112.943 68.4086C112.894 68.3819 112.851 68.3569 112.806 68.3332C112.775 68.3124 112.743 68.2929 112.714 68.2751C112.674 68.2513 112.633 68.2278 112.595 68.2026C112.562 68.1803 112.534 68.1623 112.505 68.1445C112.473 68.1237 112.444 68.1042 112.415 68.0864C112.269 67.9854 112.137 67.8992 112.028 67.8309C112.018 67.8264 112.011 67.8223 112.002 67.8163C111.863 67.7391 111.751 67.6897 111.649 67.7031C108.915 69.0105 110.542 63.5433 112.98 65.9649C113.001 65.4019 112.623 64.8373 112.133 64.6472C112.096 64.0692 112.172 63.2521 112.292 62.4187C111.711 63.2447 111.377 63.9638 111.12 64.558C110.368 64.5283 108.951 65.7896 108.891 67.3064C108.882 67.6526 108.914 67.9378 108.978 68.1741C108.888 68.1919 108.791 68.2097 108.695 68.235C103.747 68.9674 102.485 74.8163 95.4278 73.1376C98.1465 75.5889 101.296 75.9008 103.465 75.8266C103.905 75.8176 104.304 75.7869 104.667 75.7483C105.459 76.8194 106.554 76.9442 106.955 76.9754C109.168 77.1789 109.837 75.0738 114.918 74.5538V74.5508C114.955 74.5479 114.995 74.548 115.028 74.5421C115.205 74.5243 115.389 74.5091 115.576 74.4957C115.624 74.4913 115.67 74.4871 115.716 74.4841C115.955 74.4693 116.206 74.4568 116.464 74.4494C116.867 74.5504 117.277 74.6663 117.692 74.7836C117.916 74.846 118.145 74.9111 118.373 74.9812C118.5 75.0154 118.622 75.05 118.748 75.0857C119.705 75.3635 120.679 75.6517 121.645 75.9043C121.223 79.2618 120.819 81.8468 120.1 83.0947C119.664 83.6177 118.599 83.8138 117.247 83.9163C117.228 83.9163 117.204 83.9191 117.183 83.9221C116.989 83.9355 116.791 83.9464 116.583 83.9568C116.568 83.9583 116.546 83.9597 116.531 83.9626C116.002 83.9894 115.445 84.0071 114.867 84.0293C114.684 84.0353 114.502 84.0408 114.319 84.0497C111.764 84.1552 108.124 84.0418 106.846 83.757C106.611 83.6991 106.29 83.6055 105.915 83.4866C105.839 83.4629 105.767 83.4409 105.689 83.4141C104.283 82.9491 102.183 82.1068 100.207 80.9777C98.0081 79.7327 95.9133 78.467 93.6106 76.3425C92.8351 75.6294 91.8724 69.5235 91.709 68.6469C91.3821 71.4845 91.7937 76.2385 92.4488 76.9962C93.7562 78.5561 96.2075 80.532 99.0005 82.3296C102.313 84.4392 104.824 85.39 105.864 85.702C106.273 85.8283 107.13 85.9873 108.241 86.1284C108.246 86.1284 108.253 86.1297 108.256 86.1314C108.452 86.1566 108.654 86.1773 108.862 86.201C108.903 86.204 108.949 86.2097 108.992 86.2156C109.168 86.2349 109.35 86.253 109.541 86.2679C109.6 86.2738 109.658 86.2765 109.717 86.2825C109.905 86.2973 110.096 86.3141 110.289 86.326C110.346 86.3319 110.398 86.3391 110.457 86.3405C110.69 86.3569 110.934 86.3707 111.179 86.3811C111.274 86.387 111.372 86.3942 111.469 86.3957C111.622 86.4031 111.772 86.4071 111.928 86.413C112.048 86.4145 112.169 86.4188 112.288 86.4218C112.429 86.4248 112.567 86.4261 112.705 86.4276C112.827 86.4306 112.95 86.4334 113.076 86.4334C113.225 86.4334 113.372 86.4291 113.521 86.4276C113.632 86.4276 113.748 86.4246 113.858 86.4246C114.115 86.4142 114.376 86.409 114.632 86.3957C114.963 86.3793 115.924 86.3484 116.207 86.3232C116.086 86.5564 115.932 86.8521 115.592 87.525C115.13 87.7613 114.061 88.0435 113.631 88.0732C113.314 88.0926 113.005 88.1064 112.696 88.1138C112.595 88.1168 112.496 88.1181 112.397 88.1196C112.184 88.1241 111.965 88.1254 111.756 88.1254C111.644 88.1254 111.537 88.1196 111.427 88.1196C111.209 88.1151 110.989 88.1067 110.772 88.0992C110.682 88.0933 110.592 88.0906 110.499 88.0877C110.211 88.0728 109.928 88.0533 109.64 88.0296C109.529 88.0177 109.414 88.0082 109.303 87.9948C109.12 87.977 108.939 87.9605 108.755 87.9397C108.625 87.9248 108.495 87.9067 108.365 87.8874C108.199 87.8666 108.034 87.8416 107.869 87.8149C107.74 87.7971 107.614 87.7806 107.489 87.7598C107.467 87.7538 107.449 87.7526 107.428 87.7482V87.7452C99.1679 86.3324 92.7203 81.1341 91.0861 74.9688C90.7325 73.6941 90.5646 69.4868 90.7057 67.8674C91.2257 68.2299 91.7709 68.4126 92.1854 68.2418C93.0248 67.8956 93.0248 66.5036 92.432 65.4785C92.4707 66.4174 92.3502 67.1721 91.8809 67.2167C91.1232 67.2375 89.6376 66.4769 89.2067 63.9929C89.0032 62.7658 87.4537 60.6651 87.5874 58.5406C87.629 57.624 88.036 56.4756 89.1176 56.6093C90.3418 56.7296 91.3609 59.2389 92.594 63.1015C93.4096 63.5517 94.555 64.1845 95.6247 64.7654C95.3751 62.7598 95.2785 58.5406 96.785 55.2574H96.782C96.8741 55.0538 96.9721 54.8577 97.0776 54.6631L97.0333 54.6744ZM100.45 56.004C100.392 56.1229 100.342 56.2492 100.299 56.3754C100.288 56.4052 100.276 56.4371 100.267 56.4683C100.225 56.5931 100.189 56.7194 100.157 56.8546C100.042 57.3522 99.9843 57.9227 99.9308 58.6076C101.296 58.2986 102.813 58.3759 104.269 58.6482C103.578 58.9171 103.06 59.3316 102.1 60.3566C102.908 60.2616 103.141 60.2819 103.793 60.3131L104.957 62.0513L110.26 60.6504C110.156 60.5285 110.039 60.4082 109.923 60.2849C109.864 60.221 109.797 60.1588 109.734 60.0932C109.657 60.019 109.586 59.9456 109.506 59.8704C109.442 59.808 109.369 59.7471 109.299 59.6817C109.217 59.6089 109.134 59.5355 109.05 59.4618C108.975 59.3995 108.903 59.3385 108.827 59.2791C108.736 59.2019 108.643 59.1276 108.547 59.0533C108.473 58.9968 108.393 58.9371 108.316 58.8795C108.216 58.8052 108.115 58.7309 108.011 58.6566C107.928 58.5987 107.849 58.5448 107.768 58.4888C107.662 58.4174 107.551 58.3469 107.442 58.2733C107.357 58.2213 107.274 58.1673 107.187 58.1114C107.075 58.0446 106.961 57.9752 106.845 57.9079C106.76 57.8559 106.668 57.8046 106.578 57.7534C106.462 57.6895 106.346 57.6228 106.227 57.5588C106.135 57.5127 106.04 57.4626 105.948 57.4166C105.827 57.3572 105.702 57.2989 105.582 57.2428C105.483 57.1952 105.389 57.1495 105.289 57.1034C105.169 57.0499 105.047 57.0016 104.924 56.9474C104.826 56.9103 104.72 56.867 104.622 56.8284C104.496 56.7779 104.37 56.7351 104.245 56.692C104.144 56.6549 104.039 56.6158 103.938 56.5846C103.81 56.5401 103.679 56.5028 103.554 56.4656C103.45 56.4344 103.348 56.4008 103.244 56.3756C103.113 56.3399 102.982 56.3096 102.849 56.2799C102.746 56.2547 102.644 56.2312 102.541 56.2074C102.406 56.1822 102.275 56.163 102.138 56.1377C102.039 56.1229 101.935 56.1018 101.837 56.0884C101.688 56.0676 101.541 56.0584 101.39 56.0421C101.305 56.0361 101.22 56.0219 101.137 56.0159C100.902 56.0011 100.668 55.9971 100.437 56.0014L100.45 56.004ZM88.8772 57.7719C88.0542 57.9874 88.6544 60.3124 88.8425 60.8621C89.1158 61.6792 89.9641 64.0413 90.7441 64.8138C89.9596 63.0162 89.5169 61.694 89.2287 60.3421C89.1262 59.8667 88.9687 58.8773 89.191 58.7227C89.3856 58.5831 89.7808 58.624 90.5399 59.4953C89.9085 58.0899 89.3095 57.6531 88.8772 57.7719ZM91.2839 61.8871C91.2052 61.9079 91.125 61.9849 91.0522 62.1486C90.7298 62.8602 90.4995 63.3416 90.6927 63.7234C90.8665 64.077 91.844 64.4112 91.6182 64.0042C91.2958 63.4322 91.2988 62.933 91.6212 62.4294C91.7252 62.2734 91.5178 61.8248 91.2839 61.8842V61.8871ZM112.677 73.8614C113.563 73.8508 114.564 74.0087 115.648 74.2565C112.529 73.9148 109.602 75.0038 108.19 75.3975C107.911 75.4773 107.364 75.5225 106.951 75.2699C108.511 74.7217 109.492 73.9744 112.493 73.8689C112.551 73.8667 112.611 73.8639 112.67 73.8631L112.677 73.8614ZM76.4276 75.0335C76.5791 75.555 76.6861 75.9962 76.7069 76.1938C76.8748 77.7686 76.6108 79.4919 76.4395 81.0073C75.3089 90.9759 73.5128 102.549 70.6009 108.789C66.4709 103.054 64.1236 95.6408 63.1133 87.6926C62.7078 89.2823 62.3497 91.8821 62.3765 94.5117C62.378 94.7642 62.3849 95.0168 62.3938 95.2664C62.3968 95.3243 62.3982 95.3768 62.3996 95.4343C62.4145 95.7329 62.4368 96.0315 62.4606 96.3286C62.468 96.4029 62.475 96.472 62.4809 96.5455C62.5047 96.7773 62.5295 97.009 62.5622 97.2363C62.5711 97.3151 62.5837 97.3953 62.5941 97.477C62.6372 97.7637 62.6856 98.0505 62.7456 98.3298C61.2154 99.6743 58.6007 100.811 56.7437 101.494C55.2432 100.279 53.713 99.2954 52.1828 98.5675C51.7401 97.3998 50.8338 95.6556 49.4938 94.7048C49.5681 94.941 49.629 95.1921 49.6825 95.4387C49.7894 95.9111 49.8563 96.3613 49.8771 96.7624C49.9009 97.1398 49.883 97.4622 49.8162 97.6731C49.5413 97.5959 49.268 97.5265 49.0006 97.4666C48.9902 97.4622 48.9833 97.4623 48.9744 97.4608C48.7263 97.4073 48.4797 97.3573 48.2346 97.3186C48.19 97.3112 48.1427 97.3057 48.0952 97.2983C47.8872 97.2671 47.6763 97.2421 47.4683 97.2258C47.397 97.2198 47.3234 97.2143 47.2514 97.2084C47.0597 97.195 46.8681 97.1881 46.6764 97.1881C46.6051 97.1881 46.5331 97.1893 46.4595 97.191C46.2515 97.1955 46.0421 97.2007 45.8326 97.22C45.791 97.2215 45.7509 97.2301 45.7108 97.2346C44.9234 97.3088 44.1063 97.4812 43.2298 97.7768C46.0673 98.0294 48.6969 98.9371 51.1333 100.332V100.326C51.1779 100.352 51.2208 100.379 51.261 100.405C51.4987 100.543 51.7334 100.684 51.9637 100.828C52.0142 100.861 52.0611 100.888 52.1116 100.918C52.3894 101.096 52.6702 101.285 52.9421 101.475C53.0089 101.523 53.0768 101.573 53.1456 101.62C53.3536 101.769 53.5601 101.923 53.7637 102.076C53.8483 102.142 53.93 102.203 54.0162 102.268C54.2301 102.437 54.4441 102.605 54.655 102.782C54.7011 102.821 54.7498 102.857 54.7944 102.895C56.6514 106.698 57.8548 110.056 61.034 112.715C60.3878 112.781 59.8634 112.837 59.1621 112.846C59.0745 112.846 58.9764 112.843 58.8754 112.831C58.8502 112.83 58.8254 112.824 58.7971 112.823C58.7169 112.811 58.6307 112.8 58.5416 112.785C58.5178 112.782 58.4915 112.778 58.4633 112.773C58.2107 112.732 57.9285 112.675 57.6299 112.608C57.5288 112.592 57.4293 112.57 57.3253 112.547C57.2807 112.539 57.238 112.529 57.1919 112.521C57.0597 112.496 56.923 112.468 56.7833 112.443C56.7715 112.439 56.7576 112.437 56.7428 112.434C56.5883 112.407 56.4308 112.381 56.2704 112.359C56.2421 112.357 56.2145 112.352 56.1863 112.347C56.06 112.329 55.9307 112.314 55.8 112.301C55.0438 112.225 54.2401 112.234 53.4676 112.446C51.3728 113.013 49.8426 114.719 48.6541 117.393C48.1237 118.592 47.8311 120.171 47.7865 121.449C47.0229 120.477 46.5178 119.948 45.9592 119.384C45.6472 114.392 48.5739 110.648 54.769 110.5H54.8299C54.8759 110.498 54.9158 110.5 54.9633 110.5C55.1609 110.498 55.36 110.497 55.5575 110.5H55.5779C55.8022 110.506 56.0177 110.515 56.2331 110.529C56.2628 110.53 56.2934 110.53 56.3231 110.535C56.5653 110.551 56.7985 110.567 57.0109 110.593H57.0197C57.3094 110.622 57.5739 110.653 57.7804 110.683C57.2931 110.478 56.7998 110.323 56.3259 110.198C56.3215 110.197 56.3216 110.198 56.3201 110.198C56.1671 110.16 56.0126 110.124 55.8581 110.088C55.8299 110.084 55.8036 110.079 55.7768 110.074C55.6416 110.044 55.5064 110.021 55.3683 109.995C55.3401 109.991 55.3109 109.984 55.2842 109.981C55.1267 109.954 54.9692 109.933 54.8088 109.917C54.7865 109.911 54.7615 109.908 54.7363 109.908C50.2348 109.396 45.2728 111.513 44.7528 117.351C43.9105 116.31 42.9404 115.152 42.0787 114.112C40.6629 109.745 40.2365 106.253 40.2662 101.232C39.1431 104.322 38.8623 107.085 38.8935 110.369C38.1076 108.541 37.9471 106.877 37.965 104.812C37.3559 105.998 37.1226 106.952 36.9324 107.873C34.6594 104.812 33.7086 101.945 34.0949 98.3201C34.3668 95.854 35.2671 92.7787 39.3986 90.164C43.5584 87.5344 48.6392 81.3393 60.3461 78.6206C59.6374 79.4481 59.4502 80.2399 59.1531 81.5324C62.674 77.135 68.468 75.3819 73.846 75.0254C74.7092 74.9644 75.5694 74.9301 76.4162 74.9093L76.4276 75.0335ZM88.7435 75.7942C90.4371 81.603 95.5774 86.7433 103.184 89.2243C104.224 89.5616 105.442 89.8884 106.779 90.135C106.784 90.135 106.785 90.1408 106.785 90.1408C107.213 90.2195 107.65 90.2908 108.097 90.3503C108.165 90.3607 108.234 90.369 108.306 90.3764C108.45 90.3957 108.602 90.4137 108.747 90.4315C108.844 90.4419 108.939 90.4486 109.037 90.4605C109.159 90.4739 109.282 90.4849 109.403 90.4953C109.51 90.5057 109.621 90.5125 109.731 90.5214C109.845 90.5288 109.96 90.5358 110.073 90.5418C110.188 90.5492 110.3 90.5547 110.414 90.5592C110.53 90.5636 110.646 90.5664 110.762 90.5679C110.873 90.5694 110.986 90.5752 111.099 90.5767C111.228 90.5811 111.356 90.5767 111.485 90.5767C111.584 90.5767 111.685 90.5754 111.784 90.5737C112.013 90.5678 112.242 90.5609 112.469 90.5476C114.668 90.4287 115.277 90.3931 116.629 89.7899C116.032 91.5429 114.534 93.4445 111.86 95.6879C108.175 98.778 103.823 100.605 99.5588 102.418C104.773 101.384 108.948 99.8328 113.033 97.2626C110.775 100.635 107.061 104.498 101.505 107.157C97.1818 109.237 91.6701 110.262 88.1491 110.663C89.5411 107.989 90.6153 104.646 90.9272 102.18C91.2823 99.3871 91.2556 97.4706 91.1768 95.6581C91.0119 91.9441 90.0997 86.7146 89.2455 82.436C88.8667 80.5344 88.265 77.2214 88.7523 75.8249L88.7435 75.7942ZM90.4223 82.0784C91.3107 87.3376 96.3054 87.8427 97.7762 90.6654C99.189 93.3692 99.2172 95.7908 99.1697 98.4947C100.152 96.8159 101.25 93.2652 99.2857 89.7889C97.7109 86.9959 92.9421 86.5947 90.4313 82.0784H90.4223ZM134.1 82.1046C137.844 83.3896 140.964 84.853 142.375 86.3832C143.95 88.0768 144.767 89.5624 145.108 91.3006C145.171 91.5978 145.225 91.8993 145.273 92.2024C145.474 93.4102 145.596 94.6537 145.615 95.9016C145.673 99.3335 144.99 102.81 143.268 105.841C144.947 104.756 145.377 104.325 145.808 103.746C146.224 105.737 146.397 108.366 146.386 110.817C146.379 112.719 146.259 114.517 146.055 115.779C145.878 115.638 145.688 115.49 145.492 115.338C145.455 115.311 145.422 115.285 145.384 115.257C145.322 115.209 145.26 115.162 145.193 115.115C145.139 115.075 145.085 115.04 145.031 114.999C144.982 114.966 144.932 114.928 144.879 114.894C144.82 114.851 144.757 114.81 144.694 114.767C144.646 114.735 144.596 114.705 144.548 114.674C144.482 114.631 144.416 114.591 144.351 114.552C144.299 114.522 144.246 114.49 144.195 114.459C144.131 114.422 144.067 114.389 144 114.352C143.939 114.318 143.877 114.289 143.814 114.256C143.758 114.225 143.697 114.196 143.635 114.166C143.56 114.132 143.489 114.094 143.409 114.064C143.352 114.038 143.294 114.014 143.232 113.989C143.179 113.968 143.122 113.946 143.061 113.925C143.012 113.906 142.964 113.889 142.916 113.873C142.834 113.845 142.754 113.817 142.67 113.794C142.665 113.79 142.664 113.792 142.664 113.792C142.116 113.634 141.457 113.524 140.718 113.569C140.468 113.581 140.212 113.612 139.944 113.664C140.111 113.716 140.291 113.782 140.477 113.856C140.541 113.884 140.602 113.912 140.663 113.94C140.781 113.992 140.903 114.053 141.022 114.117C141.077 114.147 141.133 114.174 141.184 114.204C141.306 114.278 141.429 114.357 141.549 114.442C141.572 114.456 141.595 114.469 141.619 114.488C141.881 114.677 142.135 114.899 142.359 115.158L142.368 115.17C142.46 115.275 142.545 115.388 142.629 115.504C142.652 115.539 142.672 115.573 142.693 115.608C142.732 115.663 142.768 115.727 142.803 115.791C142.836 115.847 142.869 115.903 142.896 115.962C142.941 116.052 142.979 116.151 143.018 116.249H143.015C142.783 116.269 142.552 116.293 142.324 116.321C142.298 116.326 142.274 116.325 142.246 116.33C142.023 116.358 141.8 116.391 141.582 116.429C141.561 116.431 141.543 116.436 141.524 116.437C141.304 116.474 141.087 116.514 140.872 116.565C140.858 116.569 140.843 116.572 140.834 116.574C140.608 116.624 140.391 116.68 140.173 116.739C140.165 116.742 140.157 116.741 140.152 116.744C139.933 116.805 139.723 116.87 139.514 116.945C139.5 116.946 139.485 116.952 139.476 116.954C139.278 117.022 139.09 117.098 138.898 117.177C138.87 117.19 138.841 117.198 138.808 117.211C138.643 117.286 138.475 117.363 138.312 117.443C138.26 117.467 138.213 117.492 138.167 117.519C138.019 117.593 137.877 117.67 137.74 117.756C137.675 117.795 137.608 117.832 137.543 117.875C137.418 117.952 137.292 118.036 137.171 118.122C137.097 118.172 137.028 118.225 136.956 118.278C136.837 118.367 136.723 118.462 136.611 118.557C136.544 118.615 136.476 118.676 136.408 118.737C136.293 118.841 136.177 118.948 136.07 119.059C136.014 119.114 135.963 119.175 135.911 119.233C135.809 119.345 135.705 119.463 135.607 119.578C135.564 119.634 135.524 119.684 135.482 119.74C135.369 119.882 135.261 120.031 135.157 120.187C135.133 120.22 135.109 120.251 135.087 120.288C134.967 120.473 134.854 120.666 134.742 120.866C134.729 120.893 134.714 120.924 134.699 120.95C134.587 121.163 134.479 121.384 134.376 121.615C134.37 121.629 134.366 121.646 134.359 121.661C134.255 121.9 134.155 122.15 134.066 122.413C138.048 118.847 140.781 118.238 145.58 118.595C147.031 118.994 150.052 119.681 153.082 120.437C153.424 120.526 153.796 120.617 153.944 120.649C150.824 121.089 149.502 123.769 148.834 125.908C147.988 128.612 149.114 131.673 150.393 134.317C150.453 134.449 150.514 134.579 150.588 134.712C150.618 134.778 150.648 134.843 150.678 134.907C150.782 135.107 150.884 135.308 150.974 135.501C150.899 135.667 150.736 135.988 150.602 136.265C150.528 136.407 150.47 136.54 150.425 136.63C149.296 136.583 148.732 136.582 147.528 136.471C147.417 136.159 147.317 135.864 147.221 135.577C147.209 135.529 147.192 135.485 147.177 135.438C146.993 134.866 146.836 134.337 146.714 133.892H146.723C144.435 125.409 147.565 121.725 149.842 121.027C145.311 121.213 143.944 127.4 145.534 133.818H145.54C145.559 133.915 145.587 134.031 145.618 134.146C145.632 134.194 145.645 134.241 145.659 134.289C145.775 134.714 145.941 135.247 146.149 135.893C145.669 135.878 145.206 135.862 144.745 135.847C144.649 135.841 144.553 135.837 144.458 135.835C143.981 135.814 143.512 135.801 143.051 135.783H142.996C142.536 135.767 142.086 135.746 141.644 135.728C141.613 135.728 141.578 135.723 141.549 135.722C141.087 135.703 140.637 135.68 140.197 135.658H140.176C139.835 135.639 139.502 135.618 139.175 135.6C138.897 135.585 138.628 135.566 138.36 135.548C138.263 135.537 138.163 135.535 138.067 135.527H138.052C138.048 135.527 138.042 135.526 138.035 135.524C137.986 135.521 137.939 135.52 137.893 135.516C137.876 135.514 137.86 135.514 137.843 135.51C137.777 135.505 137.704 135.503 137.637 135.498H137.634C137.537 135.491 137.456 135.484 137.364 135.475H137.358C137.19 135.463 137.024 135.443 136.862 135.432C136.847 135.429 136.836 135.432 136.818 135.432C136.776 135.426 136.725 135.423 136.685 135.417C136.634 135.413 136.583 135.41 136.533 135.405H136.527C136.475 135.399 136.423 135.394 136.373 135.391H136.358C136.236 135.38 136.128 135.365 136.011 135.353C135.816 135.334 135.618 135.313 135.433 135.292C135.419 135.288 135.404 135.291 135.389 135.289C135.382 135.289 135.371 135.283 135.36 135.283C135.002 135.243 134.66 135.201 134.331 135.15H134.325C134.296 135.144 134.276 135.141 134.252 135.138H134.249C134.243 135.135 134.238 135.135 134.232 135.135C134.082 135.113 133.932 135.09 133.785 135.066C133.626 135.039 133.47 135.013 133.318 134.985C133.305 134.98 133.292 134.977 133.28 134.973C133.092 134.937 132.915 134.901 132.741 134.863C132.708 134.855 132.672 134.848 132.64 134.84C132.487 134.807 132.338 134.768 132.192 134.729C132.139 134.714 132.086 134.698 132.033 134.683C131.915 134.649 131.799 134.617 131.689 134.581C131.525 134.529 131.371 134.474 131.227 134.416C131.222 134.413 131.215 134.412 131.209 134.411C131.052 134.348 130.906 134.277 130.771 134.21C130.749 134.201 130.731 134.189 130.71 134.178C130.584 134.11 130.471 134.045 130.365 133.972C130.346 133.96 130.33 133.947 130.313 133.934C130.206 133.86 130.111 133.779 130.029 133.696C128.276 131.973 127.489 128.184 127.296 123.683C129.287 121.351 131.203 116.255 131.812 111.397C134.264 107.014 134.947 103.776 134.442 100.834C132.748 104.919 130.208 108.292 127.103 111.1C126.901 105.796 127.923 100.017 128.886 94.7577C129.453 91.6379 130.349 86.5867 132.659 83.8234C132.831 83.6125 133.412 82.831 133.755 82.4834C133.874 82.3586 133.986 82.2442 134.097 82.1298L134.1 82.1046ZM94.7306 91.9395C95.6294 94.9404 95.8344 97.6294 95.2238 99.7093C94.5627 101.967 93.9967 103.81 89.6973 109.366C93.7828 106.766 97.586 100.913 97.3632 97.4809C97.173 94.5987 95.9488 93.0834 94.7336 91.9246L94.7306 91.9395ZM63.3837 101.596C63.7566 102.635 64.5841 104.448 64.7995 104.894C64.9303 107.137 65.0417 109.396 65.1219 111.669C64.7565 111.609 64.3628 111.594 63.9735 111.631C60.6011 108.868 59.9623 107.144 58.4618 104.084C60.3931 103.325 61.9085 102.583 63.3793 101.603L63.3837 101.596ZM67.9892 109.856C68.3472 110.351 68.7409 110.814 69.1643 111.247C69.0009 111.474 68.836 111.681 68.6592 111.877C68.6444 111.893 68.6233 111.913 68.6069 111.929C68.5341 112.009 68.4622 112.082 68.387 112.155C68.3514 112.189 68.3125 112.221 68.2768 112.256C68.2174 112.308 68.1621 112.364 68.103 112.412C68.0985 112.418 68.0929 112.421 68.0914 112.427C68.0706 111.848 68.0513 111.302 68.0305 110.793C68.0156 110.482 68.0063 110.166 67.9899 109.861L67.9892 109.856ZM128.455 113.615C128.348 114.471 128.181 115.219 127.883 116.036C127.831 115.888 127.786 115.741 127.743 115.592C127.633 115.2 127.541 114.799 127.454 114.383C127.795 114.136 128.132 113.881 128.455 113.619L128.455 113.615ZM54.9156 114.439C55.7892 114.445 56.7578 114.679 57.9017 114.915C59.5211 115.246 61.3335 114.766 62.4478 114.81C62.5726 115.314 63.0034 115.59 63.1564 115.797C63.4372 116.179 63.822 116.36 63.7284 117.609C63.0405 118.773 62.6899 119.882 62.5845 120.417C62.2977 121.821 62.7523 123.284 63.1327 125.008C63.8146 126.216 64.7371 128.38 66.2228 129.821H66.217C66.8736 130.564 67.1262 131.589 67.3045 132.54C67.3609 132.864 67.4079 133.188 67.4524 133.515C67.1093 133.482 66.8017 133.419 66.5507 133.329C64.1885 132.445 61.5886 130.67 59.7762 129.318C60.3764 130.625 61.7966 131.873 63.9359 133.032C64.5658 133.37 65.3413 133.801 66.3872 134.131C66.7319 134.239 67.1271 134.305 67.5564 134.329C67.5802 134.513 67.6008 134.706 67.6231 134.889C65.1421 134.702 61.5469 133.91 59.6304 133.314C61.5617 135.334 66.9249 135.825 69.0939 135.84C68.8874 136.205 68.5918 136.569 68.1743 136.93C66.3321 137.076 64.4751 137.051 63.2866 136.82C61.2958 136.439 60.5084 135.968 58.7702 135.346C59.9573 136.557 61.6375 137.485 63.0786 137.693C64.3221 137.879 66.2727 137.941 68.0257 137.754C67.6528 138.485 66.8239 139.032 65.9013 139.433C64.9208 139.861 63.8363 140.127 63.0637 140.263C62.5541 140.357 62.1827 140.397 62.0862 140.391C60.6213 140.321 56.1585 136.751 54.6283 134.76C53.5319 133.346 52.7564 128.788 52.2364 127.927C51.449 126.628 49.8 124.316 49.6217 121.419C49.5801 120.654 50.369 117.126 52.489 115.299C53.2585 114.632 54.034 114.412 54.9106 114.419L54.9156 114.439ZM158.761 122.596V122.598C159.148 122.591 159.521 122.6 159.907 122.648C161.214 122.802 162.923 123.163 164.275 123.917C164.319 123.958 164.35 124.015 164.365 124.076C164.379 124.111 164.393 124.151 164.408 124.192C164.423 124.218 164.423 124.243 164.423 124.273C164.438 124.317 164.452 124.364 164.452 124.415C164.482 124.669 164.484 124.96 164.484 125.216C164.469 125.676 164.467 126.226 164.556 126.865L164.585 127.021C164.6 127.122 164.617 127.224 164.632 127.325C164.647 127.404 164.66 127.483 164.69 127.563C164.705 127.639 164.721 127.713 164.736 127.789C164.781 127.958 164.839 128.138 164.898 128.328C164.913 128.399 164.926 128.469 164.956 128.538C165.001 128.704 165.062 128.881 165.121 129.068C165.062 129.046 164.986 129.022 164.912 129.001C164.897 129.001 164.897 129.004 164.897 129.001C164.822 128.983 164.762 128.968 164.687 128.955C164.658 128.948 164.612 128.943 164.583 128.938C164.553 128.933 164.511 128.925 164.481 128.92C164.437 128.916 164.375 128.91 164.316 128.909C164.301 128.904 164.288 128.906 164.258 128.906C163.411 128.864 162.565 129.191 162.178 130.066C162.728 129.732 163.59 129.44 164.407 129.567V129.561C164.436 129.564 164.467 129.575 164.497 129.581C164.541 129.589 164.586 129.596 164.616 129.607C164.66 129.618 164.69 129.629 164.735 129.639C164.779 129.656 164.824 129.668 164.854 129.686C164.883 129.698 164.926 129.71 164.955 129.723C165.015 129.747 165.061 129.775 165.12 129.802C165.135 129.817 165.163 129.825 165.178 129.837C165.253 129.883 165.327 129.932 165.401 129.988C165.446 130.15 165.477 130.307 165.491 130.458C165.506 130.478 165.506 130.501 165.506 130.521C165.521 130.566 165.521 130.607 165.521 130.649C165.536 130.7 165.536 130.748 165.536 130.797C165.55 130.885 165.55 130.972 165.55 131.055C165.536 131.253 165.522 131.427 165.492 131.589C165.403 131.975 165.21 132.262 164.779 132.471C164.735 132.494 164.69 132.51 164.646 132.526C164.631 132.532 164.631 132.538 164.617 132.544C164.453 132.612 164.245 132.672 164.023 132.724C162.448 133.071 161.512 131.089 160.858 129.262C160.502 128.249 159.983 126.796 158.555 126.766C158.392 126.768 158.243 126.774 158.08 126.815C155.956 127.505 154.544 129.386 152.613 128.791C152.643 128.857 152.67 128.919 152.714 128.977C152.729 128.985 152.732 128.99 152.732 128.997C152.762 129.043 152.804 129.089 152.833 129.131C152.848 129.146 152.865 129.158 152.88 129.171C152.924 129.203 152.955 129.232 152.984 129.258C153.014 129.276 153.027 129.293 153.057 129.308C153.086 129.33 153.117 129.347 153.147 129.366C153.176 129.384 153.207 129.403 153.237 129.418C153.266 129.432 153.294 129.438 153.324 129.453C153.353 129.468 153.398 129.483 153.443 129.499C153.457 129.508 153.488 129.517 153.518 129.525C153.548 129.539 153.593 129.545 153.623 129.557C153.667 129.565 153.697 129.57 153.727 129.578C153.757 129.585 153.784 129.594 153.829 129.598C153.873 129.605 153.906 129.612 153.965 129.618C153.98 129.62 154.008 129.624 154.023 129.627C154.082 129.633 154.141 129.637 154.2 129.639C154.2 129.639 154.217 129.645 154.232 129.645C154.44 129.656 154.648 129.645 154.841 129.627C154.841 129.624 154.858 129.624 154.858 129.624C154.918 129.62 154.962 129.614 154.992 129.607C155.036 129.605 155.064 129.598 155.093 129.595C155.108 129.589 155.139 129.585 155.154 129.584C155.273 129.563 155.392 129.538 155.496 129.508C155.496 129.608 155.478 129.706 155.478 129.81C155.478 129.914 155.493 130.027 155.507 130.147C155.299 130.16 155.105 130.181 154.926 130.257C153.723 130.755 153.457 131.704 153.635 132.813C153.635 132.813 152.906 134.071 152.698 134.462C152.401 133.931 152.119 133.35 151.821 132.694C151.287 131.516 150.172 128.46 150.664 126.811C151.556 123.795 152.893 122.413 155.329 122.68C156.488 122.808 157.617 122.623 158.761 122.602L158.761 122.596ZM124.592 127.26C124.678 127.977 124.801 128.74 124.969 129.519C125.497 132 126.485 134.614 128.282 136.1H119.755L122.964 130.232C123.469 129.269 124.002 128.286 124.583 127.26H124.592ZM158.019 128.351C158.524 128.394 159.09 128.703 159.579 129.346C159.623 129.429 159.653 129.513 159.698 129.593C160.188 130.663 160.736 132.044 161.525 132.891C161.777 133.157 162.031 133.362 162.314 133.512C162.67 133.912 163.042 134.313 163.443 134.687C163.502 134.751 163.575 134.816 163.649 134.876C163.724 134.953 163.813 135.022 163.887 135.093C163.946 135.139 163.993 135.185 164.039 135.229C164.143 135.3 164.232 135.371 164.306 135.442C164.351 135.473 164.395 135.507 164.439 135.54C164.558 135.634 164.692 135.723 164.811 135.808C164.855 135.83 164.885 135.856 164.93 135.88C165.019 135.941 165.121 136.004 165.211 136.057C165.255 136.079 165.3 136.101 165.33 136.124C165.463 136.19 165.597 136.257 165.731 136.309C164.498 137.239 164.247 138.107 164.455 139.429C164.499 139.698 164.542 139.98 164.631 140.297C164.914 141.49 164.172 142.882 162.819 142.911C162.076 142.928 160.798 142.409 159.684 141.705C159.491 141.576 159.286 141.458 159.093 141.319C159.598 141.136 159.819 140.866 160.027 140.481C159.344 140.784 158.898 140.848 158.438 140.768C157.487 139.86 157.117 138.851 158.261 138.183C158.989 137.765 160.356 138.842 161.589 139.44C161.916 139.597 162.241 139.732 162.538 139.78C162.687 139.803 162.837 139.792 162.97 139.748C163 139.742 163.031 139.728 163.046 139.716C163.209 139.661 163.342 139.558 163.46 139.44C163.564 139.346 163.654 139.251 163.713 139.132C163.728 139.119 163.742 139.1 163.742 139.086C163.772 139.023 163.817 138.958 163.846 138.891C163.876 138.803 163.907 138.713 163.936 138.618C163.639 138.922 163.104 139.16 162.807 139.111C162.718 139.098 162.613 139.075 162.509 139.044C162.464 139.035 162.434 139.014 162.39 138.998C162.33 138.981 162.272 138.961 162.213 138.937C162.153 138.916 162.107 138.893 162.048 138.864C162.003 138.844 161.945 138.821 161.9 138.798C161.841 138.768 161.768 138.735 161.708 138.705C161.664 138.68 161.619 138.659 161.589 138.635C161.515 138.595 161.426 138.555 161.352 138.51C161.322 138.491 161.292 138.477 161.262 138.458C161.039 138.327 160.803 138.191 160.58 138.055C160.52 138.027 160.474 137.997 160.428 137.968C159.374 137.365 158.274 136.848 157.19 137.31C156.417 136.478 155.541 135.379 155.05 134.19C155.511 134.253 156.224 134.071 156.432 133.91C155.897 133.877 155.242 133.737 154.857 133.515C154.575 132.62 154.279 131.509 155.304 131.152C155.676 131.02 156.731 131.053 157.043 131.776C157.161 132.047 157.399 132.788 157.667 133.381C158.172 134.491 161.351 137.125 162.109 137.333C162.822 137.423 163.862 137.261 164.619 136.738C164.055 136.792 163.015 136.975 162.287 136.582C162.213 136.539 162.138 136.492 162.049 136.44C162.019 136.422 161.992 136.403 161.962 136.382C161.903 136.345 161.842 136.31 161.782 136.272C161.753 136.25 161.725 136.229 161.695 136.208C161.636 136.163 161.56 136.116 161.501 136.069C161.471 136.051 161.44 136.028 161.425 136.008C161.395 135.997 161.382 135.985 161.382 135.976C160.089 135.013 158.574 133.524 158.336 133.079C158.202 132.844 158.085 132.422 157.922 131.985C158.174 131.948 158.501 131.773 158.694 131.599C158.204 131.541 157.953 131.502 157.626 131.312C157.388 130.852 157.06 130.491 156.599 130.494C156.362 129.684 156.423 128.711 157.537 128.414C157.685 128.372 157.849 128.355 158.027 128.37L158.019 128.351ZM166.516 131.471C166.814 131.616 167.111 131.769 167.393 131.927C167.408 131.939 167.436 131.954 167.451 131.967C167.496 131.988 167.526 132.012 167.57 132.031C167.63 132.071 167.691 132.107 167.75 132.147C167.794 132.164 167.807 132.182 167.837 132.202C167.911 132.247 167.985 132.299 168.06 132.345C168.075 132.356 168.088 132.365 168.103 132.377C168.192 132.436 168.267 132.497 168.356 132.556C168.356 132.564 168.373 132.575 168.373 132.582C168.447 132.634 168.505 132.684 168.565 132.737C168.595 132.758 168.611 132.777 168.64 132.795C168.685 132.837 168.729 132.881 168.774 132.926C168.789 132.946 168.817 132.966 168.832 132.989C168.876 133.033 168.906 133.073 168.951 133.114C168.966 133.137 168.997 133.162 169.012 133.184C169.041 133.229 169.086 133.273 169.116 133.32C169.131 133.338 169.145 133.356 169.16 133.375C169.189 133.442 169.234 133.509 169.264 133.576C169.279 133.583 169.279 133.593 169.279 133.605C169.309 133.658 169.34 133.718 169.354 133.776C169.369 133.798 169.369 133.822 169.383 133.846C169.398 133.889 169.412 133.937 169.427 133.982C169.427 134.007 169.426 134.032 169.442 134.06C169.442 134.102 169.441 134.152 169.457 134.197V134.422C169.442 134.445 169.442 134.467 169.442 134.492C169.442 134.563 169.428 134.637 169.398 134.712C169.205 135.441 167.437 136.227 166.308 135.908C166.249 135.887 166.16 135.856 166.085 135.821C166.056 135.804 166.011 135.789 165.981 135.771C165.921 135.742 165.878 135.714 165.819 135.681C165.774 135.656 165.73 135.628 165.686 135.603C165.626 135.566 165.565 135.536 165.506 135.496C165.461 135.465 165.417 135.431 165.358 135.394C165.298 135.354 165.241 135.307 165.166 135.258C165.122 135.225 165.077 135.19 165.033 135.153C164.929 135.07 164.808 134.982 164.704 134.892C164.66 134.853 164.601 134.812 164.556 134.767C164.497 134.708 164.422 134.647 164.347 134.587C164.302 134.54 164.258 134.492 164.199 134.448C164.169 134.415 164.139 134.382 164.095 134.349C164.095 134.349 164.094 134.351 164.109 134.352C163.916 134.17 163.74 133.985 163.576 133.792C163.74 133.779 163.903 133.748 164.066 133.699C164.542 133.561 165.062 133.364 165.433 133.108C166.102 132.653 166.414 132.093 166.518 131.474L166.516 131.471ZM86.2922 139.701H102.04L100.844 145.926H93.1039L93.4054 144.217H88.6217L87.8937 148.333L97.0452 153.8C98.5606 154.718 99.1845 155.924 98.9171 157.276L97.7212 163.56C97.4003 165.388 94.126 167.468 91.5707 167.468H76.8035L77.9637 160.886H85.689L85.3845 162.624H90.1534L91.073 157.425L81.9215 151.958C81.7699 151.868 81.6169 151.764 81.4461 151.632C81.3124 151.533 81.1861 151.423 81.0227 151.267C80.9053 151.154 80.7998 151.035 80.6602 150.866C80.5755 150.76 80.4967 150.65 80.4106 150.518L80.3816 150.466C80.0785 149.949 79.9686 149.441 80.0533 148.95L81.0516 143.29C81.3086 141.834 83.1612 139.68 86.3256 139.68L86.2922 139.701ZM104.417 139.701H128.187L127.039 145.926H122.121L122.289 145H118.887L115.752 162.085H117.595L116.611 167.463H105.736L106.717 162.085H108.559L111.694 145H108.291L108.124 145.926H103.206L104.417 139.701ZM167.111 139.701H171.761L170.603 145.926H165.686L165.848 145H164.125C164.303 144.937 164.484 144.863 164.648 144.775C165.286 144.451 165.805 143.99 166.207 143.399C167.455 141.319 167.338 140.22 167.115 139.7L167.111 139.701ZM174.346 139.701H193.808L192.664 145.926H186.736L186.913 145H182.263L181.178 150.928H186.957L186.111 155.623H180.317L179.13 162.115H183.78L184.002 160.916H190.361L189.159 167.497H169.252L170.232 162.119H172.074L175.209 145.035H173.367L174.346 139.701ZM13.8972 139.704H22.5436L27.8919 157.235L30.7889 139.704H38.9005L37.9348 145.052H36.0926L33.0025 162.137H34.8447L33.8761 167.5H25.2742L19.9111 150.118L17.1181 167.5H8.88768L9.85334 162.137H11.6955L14.7856 145.052H12.9435L13.8972 139.704ZM41.3815 139.704H49.9833L54.5442 152.882L61.6158 142.883C61.757 142.892 61.9025 142.898 62.0541 142.898C63.6734 142.898 66.2881 142.344 69.4971 139.704H72.2753L71.3066 145.052H69.4644L66.3892 162.137H68.2314L67.2687 167.485H58.6668L61.5787 151.292L52.4123 163.994L47.6731 151.262L44.8356 167.455H36.3675L37.3302 162.107H39.2169L42.2922 145.022H40.4054L41.3815 139.704ZM132.302 139.704H144.187L144.06 162.137H145.932L144.948 167.515H136.733L136.994 160.592H131.735L129.507 167.515H121.261L122.245 162.137H124.295L132.302 139.704ZM149.387 139.838C149.595 140.344 150.295 141.605 152.403 142.616C152.923 142.822 153.471 142.994 154.067 143.149L154.29 143.207C155.151 143.425 156.043 143.651 156.934 143.795C157.692 143.92 158.273 143.965 158.836 143.95C159.549 144.347 160.366 144.748 161.45 145.037C161.807 145.132 162.147 145.19 162.474 145.214L159.384 162.15H161.241L160.246 167.528H149.386L150.366 162.15H152.208L155.343 145.066H151.941L151.779 145.988H146.847L147.949 140.016L149.387 139.838ZM137.279 143.477L133.03 156.194H137.249L137.279 143.477Z" fill="black"/>
<path d="M79.0576 74.4623C80.0471 75.6374 79.5107 79.3649 79.0576 83.0344C78.7635 85.4114 78.3817 88.4718 77.8765 91.7402L84.4282 95.7217L88.5731 94.7531C88.0635 87.5626 85.9138 81.0407 86.0327 76.4798C86.1188 75.8513 86.2214 75.2823 86.3521 74.7713C84.1682 74.6851 81.1524 74.4771 79.0576 74.4028V74.4623ZM123.775 78.5626C123.419 80.8951 123.004 82.6927 122.484 83.8218C121.94 85.1336 120.85 85.5897 120.167 85.8274C120.128 86.0264 120.065 86.3191 120.021 86.5122C119.011 91.1326 117.392 94.9209 115.386 98.0408L118.462 99.2501L125.607 96.2194C125.957 94.2583 126.327 92.3716 126.667 90.6482C127.588 85.9685 129.742 81.8979 131.629 80.6796C129.816 80.1448 126.028 79.1049 123.785 78.5552L123.775 78.5626ZM77.572 94.3103C76.1384 102.645 73.8282 111.692 69.9507 114.664L74.3333 117.976C75.0226 118.523 75.5396 119.23 75.8635 120.056L78.5971 122.404C79.7143 122.726 80.8255 123.811 81.3009 124.736L83.2471 126.474C84.2098 127.642 84.8516 129.891 84.0627 131.407C84.0152 132.824 83.1535 134.036 81.7154 134.512L81.6254 137.097L81.6224 137.137C82.9313 136.414 84.4897 135.95 86.3022 135.95H86.9752C88.443 129.146 90.9864 118.717 92.5909 112.329C89.8573 112.846 86.8415 113.205 83.5434 113.379C86.7672 108.981 88.4608 104.272 88.7579 99.7556C88.8456 98.3101 88.841 96.8735 88.7667 95.4621L84.2355 98.1214L77.572 94.3103ZM114.861 98.8415C112.187 102.734 108.904 105.542 105.532 107.666C102.857 109.345 99.4405 110.756 95.2808 111.781C93.5277 118.125 90.8536 129.015 88.8034 135.997H117.179C119.318 130.5 122.26 125.122 126.241 119.061C123.419 114.708 123.998 106.552 125.2 99.0049L118.515 101.709L114.861 98.8415ZM94.2111 123.949C94.3585 123.942 94.5112 123.959 94.6612 123.998C94.3136 124.34 93.9749 124.652 93.7907 125.246C93.6079 125.84 93.6317 126.374 93.8923 126.895C93.096 126.686 92.6191 125.86 92.8301 125.068C92.9875 124.469 93.4882 124.053 94.0661 123.971C94.1139 123.964 94.1621 123.959 94.2112 123.957L94.2111 123.949ZM73.7093 130.114C74.1283 131.808 72.9814 133.516 71.8374 134.72C71.6309 134.901 71.3368 135.556 71.1852 136.037H79.7425L76.5632 133.467L76.5603 132.643L73.7093 130.114ZM153.934 134.021C153.027 135.611 152.255 137.349 151.453 139.191C152.106 140.263 153.547 140.624 156.014 141.227C156.608 141.374 157.247 141.497 157.841 141.555C156.905 140.708 156.103 139.445 156.741 138.257C155.642 137.049 154.944 136.236 154.305 134.988C154.156 134.687 154.038 134.363 153.934 134.03V134.021ZM81.1375 137.186L81.1114 137.325H81.2911C81.2941 137.321 81.2983 137.321 81.3027 137.319L81.1925 137.226H81.1895L81.1375 137.186Z" fill="#7E141B"/>
<path d="M104.016 33.3101C108.532 36.8013 101.802 41.3325 94.508 41.9565C100.525 43.1019 111.89 36.7122 104.016 33.3101ZM116.02 33.4809C114.995 34.3351 115.195 35.9916 116.345 37.6704C117.341 39.1352 118.945 40.508 120.758 41.1022C118.425 38.9629 115.753 36.2145 116.02 33.4809ZM135.63 44.9946C130.743 49.3623 124.741 52.8684 113.049 54.6661C119.615 54.6765 129.985 52.9576 135.63 44.9946ZM78.1363 46.6288C76.3684 46.6243 75.1056 47.3968 75.1502 48.6195C76.7695 46.7922 79.2208 47.6241 82.7269 49.3475C85.5348 50.7247 88.9963 52.185 92.3836 53.0319C89.0706 51.6175 85.0445 49.2881 83.2023 48.3818C81.5087 47.5469 79.1911 46.6436 78.1363 46.6436V46.6288ZM123.003 48.6938C119.556 49.5659 113.168 50.0012 108.963 50.0977C100.659 50.2894 95.5925 49.985 90.5414 49.4099C94.9537 51.0292 102.01 51.7423 109.26 51.9355C114.312 52.0662 119.675 51.8172 123.508 50.9193C123.282 49.9165 123.138 49.3742 122.977 48.6908L123.003 48.6938ZM92.3984 53.9084C90.3482 53.8519 88.5358 54.3808 87.481 55.9586C88.1243 55.5144 89.8134 54.5353 90.4522 54.4581C90.3898 54.935 90.5509 55.3123 90.9217 55.7119C91.1876 55.0568 91.5546 54.6155 92.0359 54.2753C92.0389 54.7552 92.1582 55.7758 92.6361 56.6226C93.0566 55.8427 93.4191 54.8547 94.0638 54.4388C93.997 54.7775 94.0191 55.2871 94.3773 55.9987C94.9611 54.8458 95.3043 54.5635 96.264 54.5591C94.9552 54.204 93.6345 53.9604 92.4014 53.9262L92.3984 53.9084ZM111.117 68.6904C110.366 68.6295 109.424 68.9059 108.785 69.0039C105.814 69.46 103.942 72.51 100.926 73.6688C103.511 73.186 104.313 72.1683 105.279 71.2324C105.383 71.4924 105.738 71.8043 105.946 72.048C106.193 71.268 106.427 70.8476 107.066 70.0424C107.13 70.6233 107.286 71.0422 107.617 71.6023C107.889 70.7941 108.09 70.3722 108.804 69.5967C108.844 70.0394 109.101 70.5178 109.568 71.2755C109.792 70.5326 110.034 70.0647 110.52 69.4481C110.651 69.9904 110.927 70.5579 111.385 71.008C111.556 70.4866 111.713 70.0023 111.896 69.7393C112.539 69.9235 113.165 70.2652 114.659 69.8757C113.264 69.7955 112.594 69.3735 111.792 68.8803C111.603 68.7644 111.373 68.7065 111.122 68.6857L111.117 68.6904ZM118.234 68.7166C117.938 68.7834 117.752 68.987 117.5 69.2648C116.996 69.8115 116.247 69.9244 115.42 69.8977C116.388 70.1398 116.492 70.9138 116.017 72.6164C116.451 72.2554 117.058 71.5601 117.216 70.1799C117.506 70.379 117.715 70.8722 117.861 71.1664C118.254 70.5528 118.271 70.1146 118.235 69.6213C118.569 69.6392 118.817 69.8888 119.14 70.3151C119.303 70.0032 119.339 69.7298 119.285 69.4386C119.734 69.397 120.078 69.4694 120.785 69.5838C120.512 69.3579 119.781 69.0341 119.628 68.9746C118.933 68.7072 118.526 68.6359 118.23 68.7043L118.234 68.7166ZM64.1565 113.583C63.8846 113.617 63.6039 113.7 63.3825 113.859C63.3335 114.009 63.3599 114.483 63.5219 114.645C64.4979 115.617 64.7772 116.22 64.743 117.156L68.68 120.276C69.4154 120.859 69.353 121.313 69.2683 121.633L66.7724 119.672C64.9451 119.834 64.0834 121.321 64.2171 122.866C63.504 121.504 64.1241 119.509 66.1039 119.152L64.6182 117.977C64.0374 119.044 63.66 119.79 63.5159 120.8C63.3837 121.72 63.6674 122.746 63.8992 123.727L66.1425 126.059C66.0801 125.778 66.1633 125.542 66.2064 125.356C65.5037 124.728 65.2764 123.955 65.6151 123.039C65.7622 122.639 66.2688 121.884 67.3533 121.494C67.2211 121.118 67.1765 120.897 67.301 120.414C67.5105 120.993 67.8076 121.44 68.2756 121.743C66.9861 122.082 66.4334 122.681 66.2551 123.274C65.8317 124.584 66.7751 124.789 66.8821 125.205C67.0128 125.717 66.3428 126.468 67.46 127.522C68.1344 128.16 69.7478 128.063 70.1193 126.658C70.3272 128.589 68.0839 128.842 67.1183 128.007L64.4144 125.169C65.1231 126.512 65.805 127.888 66.8806 128.972L66.8748 128.978C68.1331 130.205 68.3753 132.514 68.5684 134.119C68.9814 134.252 69.6143 134.219 70.0689 133.945C70.372 132.767 70.5532 129.28 70.5324 127.898V127.863C72.122 128.022 72.8054 127.47 73.0728 126.792C71.9348 125.714 71.5278 125.158 71.0821 124.178L78.644 130.878L78.6498 132.512L79.6659 133.334L79.6921 132.545C80.5968 133.197 82.3959 132.433 81.876 130.955C82.809 130.355 82.0721 128.4 81.6932 127.954L80.1779 126.602V127.138C80.1408 127.956 78.098 126.528 77.682 125.4C78.5288 126.063 79.1677 126.731 79.4648 126.607L79.4996 126.003C79.5278 125.476 78.0644 124.176 77.7614 124.503L74.0473 121.309C73.9418 120.67 73.4708 120.001 73.0549 119.689L68.0631 115.916C67.5268 115.509 66.5181 115.882 66.0575 115.986C65.4529 114.996 65.7663 114.158 64.9136 113.653C64.7294 113.609 64.4679 113.59 64.1945 113.624L64.1565 113.583ZM67.3506 116.316C68.7546 117.358 70.2328 118.872 70.723 119.822L66.4741 116.495C66.7192 116.397 67.0743 116.325 67.3477 116.324L67.3506 116.316ZM163.323 119.733C163.04 119.824 162.727 119.983 162.4 120.154C164.005 120.586 164.584 121.654 164.45 122.56C164.985 122.883 165.386 123.348 165.46 124.006C165.535 124.652 165.489 125.312 165.504 125.967C165.534 127.075 165.862 127.943 166.174 128.923C166.219 129.051 166.278 129.21 166.307 129.325C166.411 129.663 166.483 129.999 166.527 130.323C167.107 130.587 167.85 130.96 168.488 131.388C169.142 131.816 169.649 132.274 170.004 132.813C170.435 133.474 170.611 134.432 170.21 135.205C169.958 135.729 169.216 136.289 168.309 136.603C169.631 136.748 170.938 136.111 171.636 135.151C172.008 134.621 172.155 134.035 172.289 133.487C171.635 133.321 170.876 133.059 169.986 132.403C170.818 132.52 171.724 132.666 172.437 132.771C174.339 133.018 175.572 132.673 175.854 131.581C176.894 130.632 177.503 129.382 178.112 128.149C179.271 128.439 179.732 127.895 179.984 127.404C179.717 127.212 179.451 127.123 179.183 127.078L177.875 126.841C177.28 126.849 177.206 127.505 177.727 127.958C176.954 127.944 176.479 127.199 176.731 126.627L174.696 126.231C174.711 126.294 174.742 126.358 174.771 126.423C174.875 126.732 175.009 127.374 174.994 127.735C174.994 129.024 174.312 130.676 173.226 130.513L167.254 129.605C167.239 129.317 167.314 129.066 167.225 128.865L173.168 129.8C173.896 129.913 174.252 128.285 174.252 127.675C174.252 127.029 173.97 126.263 173.762 125.447C173.747 125.643 173.716 125.875 173.686 126.144C173.627 126.545 173.3 126.955 172.944 127.049C172.899 127.273 172.869 127.502 172.825 127.803C173.701 126.833 173.925 127.643 173.851 128.044C173.717 128.94 172.841 129.495 172.618 128.561C170.375 128.335 169.602 128.071 169.379 127.145C169.186 126.318 171.043 126.821 172.722 127.055C172.559 126.488 172.438 125.823 172.884 125.228C171.621 125.044 170.017 124.767 170.225 123.683C170.358 123.036 172.26 123.542 173.582 123.77C173.582 123.675 173.599 123.583 173.614 123.486L168.444 122.606C167.568 123.615 166.795 125.622 166.498 127.717C165.696 125.607 166.602 123.542 167.597 122.458L166.202 122.179C166.648 121.868 167.419 121.726 168 121.813L176.349 123.223L174.314 123.571C174.314 124.625 174.389 125.16 174.523 125.636L176.559 126.031C175.727 124.868 176.413 122.792 177.928 122.866C176.517 123.441 176.71 125.451 177.438 126.179L179.206 126.554C179.682 126.65 179.933 127.02 179.992 127.404L190.258 129.276L190.586 130.532L192.413 130.419L192.204 129.601L194.076 129.948C194.908 130.082 195.606 128.091 194.505 127.497C194.966 126.626 194.269 125.744 193.808 125.595L192.618 125.352C192.589 124.023 189.187 122.93 189.261 124.829L178.312 122.853C178.119 122.221 177.805 122.098 176.899 121.954L167.837 120.48C167.153 120.373 166.486 121.176 166.069 121.385C165.029 120.865 165.162 119.825 163.32 119.721L163.323 119.733ZM71.8075 120.259C72.4449 120.261 73.1847 120.504 73.6646 121.118C72.8742 120.7 72.1047 120.677 71.555 120.831C70.0396 121.249 69.7128 123.312 70.6057 124.278C70.2298 125.012 70.5251 126.313 72.225 126.789C69.9074 127.08 69.4766 124.813 69.8777 124.144C68.8288 122.93 69.7009 120.757 71.2088 120.341C71.3841 120.292 71.5862 120.265 71.7971 120.265L71.8075 120.259ZM68.0489 122.577C68.0646 122.576 68.0823 122.577 68.0982 122.577C67.9422 123.104 68.3716 123.507 68.893 123.499C68.8247 124.007 68.3552 124.422 67.8486 124.422C67.342 124.422 66.9825 124.007 67.0508 123.499C67.1199 123.006 67.5586 122.602 68.0489 122.577ZM68.7575 125.132C68.7733 125.131 68.7881 125.132 68.8039 125.132C69.3105 125.132 69.6685 125.548 69.5987 126.055C69.5318 126.564 69.0594 126.977 68.5513 126.977C68.0447 126.977 67.6882 126.564 67.7595 126.055C67.8257 125.564 68.2688 125.157 68.7575 125.132ZM193.551 126.278C193.558 126.277 193.567 126.278 193.574 126.278C193.812 126.278 194.018 126.671 194.018 127.157C194.018 127.641 193.812 128.034 193.574 128.034C193.336 128.034 193.142 127.641 193.142 127.157C193.142 126.686 193.324 126.301 193.551 126.278ZM73.6601 127.687C73.2709 128.184 72.8074 128.475 72.2651 128.643C73.2605 128.958 74.2113 129.042 74.6718 128.579L73.6601 127.687ZM194.294 128.117C194.298 128.116 194.303 128.117 194.309 128.117C194.487 128.117 194.622 128.4 194.622 128.744C194.622 129.091 194.487 129.371 194.309 129.371C194.145 129.371 193.998 129.091 193.998 128.744C193.998 128.411 194.137 128.135 194.294 128.117ZM80.494 128.929C80.5098 128.929 80.5276 128.929 80.5434 128.929C81.0529 128.929 81.4065 129.339 81.3382 129.846C81.2683 130.356 80.8033 130.772 80.2938 130.772C79.7857 130.772 79.4276 130.356 79.496 129.846C79.5636 129.356 80.0053 128.953 80.494 128.929ZM71.402 130.171C71.3693 130.838 71.3164 131.51 71.2504 132.177C71.6961 131.476 72.0036 130.647 71.5089 130.246C71.4762 130.219 71.4386 130.194 71.4015 130.173L71.402 130.171ZM81.1774 131.079C81.1789 131.418 81.1192 131.81 80.754 131.898C80.3068 132.006 80.136 131.664 80.1301 131.398C80.451 131.47 80.9561 131.368 81.1774 131.079Z" fill="#8A8A8A"/>
</g>
<defs>
<clipPath id="clip0_15016_302038">
<rect width="200" height="200" fill="white" transform="translate(0.710938 0.257812)"/>
</clipPath>
</defs>
</svg>
