<svg width="201" height="201" viewBox="0 0 201 201" fill="none" xmlns="http://www.w3.org/2000/svg">
<g clip-path="url(#clip0_15016_302818)">
<path d="M54.6446 46.7156C54.6446 46.7156 54.7673 49.1905 55.7834 52.3989H55.7887C58.3544 52.9963 59.0665 52.967 67.2754 56.8901C76.5832 61.344 95.8682 57.8476 95.8682 57.8476L95.7749 57.8022L95.6495 57.7436C90.6276 57.6182 76.2445 57.1008 71.604 55.2686C65.6966 52.9457 63.0109 49.8093 54.6446 46.7156ZM114.716 47.305C98.0711 47.209 85.0509 50.9801 79.1675 53.0603C81.2638 53.7191 83.5521 54.3698 85.787 54.9619C91.4944 52.9483 104.283 49.6279 114.004 49.4626C136.913 49.0652 155.702 57.6476 154.758 57.1248C153.816 56.6101 137.625 47.449 114.716 47.305ZM129.224 60.3545C129.296 60.3599 129.379 60.3625 129.464 60.3786C131.606 60.6399 135.825 61.52 136.598 64.379C137.636 68.2435 139.271 72.476 144.335 74.2415C144.775 74.3936 145.197 74.5002 145.61 74.5856C147.757 75.039 149.517 74.6176 150.872 73.8148C150.883 73.8095 150.893 73.8068 150.904 73.7988C151.054 73.7108 151.195 73.6121 151.331 73.5161C151.358 73.4975 151.392 73.4735 151.419 73.4548C151.542 73.3641 151.656 73.2734 151.774 73.1774C151.811 73.1454 151.854 73.1081 151.894 73.0734C151.992 72.9827 152.088 72.8974 152.184 72.8094C152.232 72.764 152.278 72.7107 152.326 72.668C152.408 72.5854 152.488 72.4973 152.566 72.4067C152.619 72.348 152.667 72.284 152.72 72.2253C152.784 72.1453 152.848 72.0706 152.91 71.9906C152.966 71.9133 153.022 71.8386 153.075 71.7612C153.123 71.6919 153.168 71.6279 153.211 71.5639C153.27 71.4625 153.328 71.3719 153.382 71.2705C153.414 71.2225 153.44 71.1745 153.472 71.1212C153.552 70.9772 153.632 70.8278 153.696 70.6891C153.678 70.6758 153.662 70.6731 153.643 70.6678C153.206 70.5398 152.776 70.4064 152.347 70.2597C152.347 70.2597 152.086 70.8465 151.419 71.4172C150.485 72.2146 148.717 72.9934 145.642 72.1213C140.375 70.6331 139.3 65.2298 138.897 64.443C138.873 64.3924 138.841 64.331 138.809 64.2457C138.788 64.2057 138.767 64.155 138.74 64.1043C138.729 64.0803 138.719 64.0563 138.708 64.0377C138.676 63.9736 138.636 63.891 138.599 63.8163C138.593 63.795 138.583 63.7816 138.569 63.7603C138.524 63.6776 138.473 63.5896 138.417 63.5043C138.407 63.4856 138.396 63.4696 138.385 63.4536C138.327 63.3576 138.26 63.2562 138.183 63.1549C138.172 63.1415 138.159 63.1335 138.148 63.1149C138.063 63.0109 137.977 62.9095 137.881 62.7975C137.871 62.7895 137.86 62.7815 137.849 62.7708C137.745 62.6562 137.633 62.5441 137.5 62.4268C137.497 62.4241 137.497 62.4241 137.489 62.4161C137.084 62.0588 136.55 61.704 135.854 61.3893C135.852 61.384 135.844 61.3867 135.844 61.3787C135.617 61.28 135.369 61.184 135.11 61.088C135.094 61.088 135.081 61.0906 135.062 61.0826C134.806 60.9893 134.529 60.9039 134.23 60.8266C134.209 60.8239 134.187 60.8239 134.166 60.8159C133.867 60.7413 133.553 60.6719 133.209 60.6132C133.185 60.6106 133.163 60.6079 133.142 60.6026C132.795 60.5439 132.427 60.4932 132.041 60.4586C132.022 60.4586 131.995 60.4532 131.974 60.4532C131.576 60.4132 131.163 60.3812 130.712 60.3599H130.678C130.222 60.3492 129.731 60.3465 129.224 60.3545ZM54.3726 66.5046C48.0945 70.1611 37.4265 76.0844 23.3262 82.8292C24.0143 83.36 24.8197 83.9921 25.7078 84.6988C25.8811 84.8428 26.0492 84.9842 26.2332 85.1282C26.3532 85.2269 26.4759 85.3175 26.6039 85.4242C26.9373 85.6909 27.268 85.963 27.62 86.251C27.6254 86.259 27.6334 86.2643 27.6387 86.267C36.7731 81.4104 51.1588 73.7135 59.2825 68.8276C58.5837 68.5342 57.8743 68.2115 57.1836 67.8434C56.0848 67.2514 55.17 66.8193 54.3726 66.5046ZM148.904 68.5209C148.632 69.9744 146.024 70.5931 146.024 70.5931C149.267 71.4119 150.533 69.1609 150.533 69.1609C149.728 68.9849 148.904 68.5209 148.904 68.5209ZM174.558 72.2306C181.868 75.247 185.652 79.7675 185.652 79.7675C185.652 79.7675 184.087 76.6472 182.14 74.975C180.19 73.3134 174.558 72.2306 174.558 72.2306ZM135.142 75.079C126.035 74.999 107.888 76.7565 93.2572 92.0144C78.4261 107.475 68.8436 125.226 66.5394 128.869C66.5287 128.901 66.518 128.915 66.5074 128.944C66.5074 128.944 86.0857 114.636 95.4442 113.686C95.4442 113.686 81.3091 124.469 72.6868 149.925C72.6868 149.925 73.0548 149.427 73.7562 148.602C76.5432 144.965 81.8772 138.425 86.3097 135.398C92.6172 131.091 104.104 126.056 116.228 126.869C128.36 127.675 142.54 131.504 155.201 132.179C167.858 132.854 165.434 132.201 167.338 132.12L167.749 129.755C167.749 129.755 111.385 131.518 111.569 106.035C111.569 106.035 110.809 96.3669 119.756 89.9954C129.384 83.1413 137.145 83.9147 143.983 85.4429C143.983 85.4429 141.98 81.5198 132.355 82.7412C132.355 82.7412 133.801 82.0105 136.081 81.5064C145.469 78.8981 152.243 85.1415 152.243 85.1415C152.243 85.1415 156.604 88.942 164.556 93.5639C170.755 97.159 176.334 94.2653 178.507 92.7984C179.057 91.5583 179.308 90.1821 179.081 88.694C178.15 82.4345 170.539 78.6527 170.539 78.6527C170.539 78.6527 170.709 78.6661 170.397 78.5727C170.168 78.5167 170.122 78.5061 169.896 78.4474C169.89 78.4474 169.885 78.4394 169.877 78.4394C166.146 77.2286 162.607 76.3991 158.182 76.2391C158.182 76.2391 159.385 77.4153 160.719 79.3275C162.596 82.0185 162.959 85.2615 162.959 85.2615C162.959 85.2615 152.243 76.0044 138.455 75.1937C137.561 75.1403 136.444 75.0896 135.142 75.079ZM188.799 81.9198C188.799 81.9198 187.306 82.3359 185.746 83.8294C183.089 86.363 181.684 89.6807 181.684 89.6807C181.684 89.6807 181.62 90.9902 181.329 92.2837C182.239 92.6944 185.495 94.0439 187.935 93.7105C190.184 93.4038 191.664 92.5291 192.309 91.3716C193.232 86.9524 188.799 81.9198 188.799 81.9198ZM158.244 97.0656C158.244 97.0656 158.58 104.146 155.387 109.011C155.387 109.011 161.996 104.397 162.484 100.613C162.484 100.613 159.353 98.7805 158.244 97.0656ZM183.756 98.5085C183.756 98.5085 182.359 104.112 180.286 106.92C180.286 106.92 186.004 102.754 187.346 99.3272C187.346 99.3272 184.679 98.9245 183.756 98.5085ZM155.206 119.73C155.206 119.73 151.52 123.824 146.248 126.136C147.765 126.357 150.013 126.627 153.08 126.851C153.299 126.501 155.059 123.586 155.206 119.73ZM168.432 120.73C166.735 123.679 161.697 126.328 159.884 127.216C161.719 127.277 163.722 127.32 165.906 127.341C168.045 124.306 168.432 120.73 168.432 120.73Z" fill="white"/>
<path d="M108.725 23.6621C108.725 23.6621 108.595 28.0013 109.539 32.2045C110.486 36.4156 110.528 36.0956 110.632 36.4877C100.551 37.0077 89.8138 38.8186 78.6071 41.9203C76.0041 42.6351 76.7749 42.3817 71.7956 44.6166C62.8719 38.7973 57.2979 37.3784 57.1832 37.2531L38.9196 31.039C38.9196 31.039 43.6882 36.0023 44.1976 42.2883C44.7097 48.5718 45.2697 54.4205 46.2245 56.2607C35.8393 61.4693 27.3236 66.2619 14.5541 72.9214L0.816406 80.0822L7.47854 83.8533C7.65723 83.9574 25.7021 94.2546 34.5298 104.378C42.0747 113.028 50.369 125.074 53.1 129.104C52.5373 131.987 51.3451 138.401 50.0943 147.586L48.3021 160.78L57.7059 150.971C59.2848 149.328 61.9704 146.597 64.9974 143.674C62.0878 151.686 59.2234 161.948 58.0073 173.661L58.674 193.096L66.5923 175.339C66.6536 175.144 73.2651 155.809 94.9077 145.831C112.878 137.561 127.786 139.617 139.764 141.263L143.959 141.826C160.206 143.839 170.698 141.788 171.138 141.695L174.059 141.1L177.256 123.298C177.256 123.298 175.88 123.261 174.512 123.223C174.805 121.821 174.939 120.562 174.939 119.495C174.939 118.716 174.869 118.06 174.779 117.473C175.405 117.14 177.112 116.223 177.112 116.223C186.193 111.393 191.445 104.789 193.175 102.352C193.709 102.029 194.354 101.613 194.914 101.181C198.365 98.5138 200.502 94.4119 200.787 89.9287C200.808 89.598 200.816 89.2513 200.816 88.9126C200.816 84.9921 199.363 81.2504 196.661 78.1727C195.946 75.3803 193.549 69.6036 185.665 66.0245C185.559 65.6992 185.449 65.3605 185.3 65.0004C185.297 64.9897 185.289 64.9684 185.289 64.9684C184.324 62.5388 182.321 57.4555 176.315 54.9352L174.299 54.0978C174.299 54.0978 172.536 55.0419 172.402 55.1192C172.394 55.1219 171.362 55.6019 170.413 55.4313C169.581 55.0499 168.65 54.5192 167.615 53.8364C162.719 49.6386 154.662 42.8271 143.671 39.8614C138.417 38.4399 133.243 37.4878 127.893 36.917C120.073 33.778 118.038 31.8844 118.017 31.8604C117.612 31.391 108.725 23.6621 108.725 23.6621ZM114.707 34.6368C114.707 34.6368 116.556 36.997 126.717 41.0189C132.683 41.6189 137.897 42.6804 142.476 43.9152C152.232 46.5475 159.355 52.3989 164.924 57.1861C166.508 58.2503 167.834 58.9624 168.946 59.4317C171.874 60.2745 174.547 58.797 174.547 58.797C178.907 60.6185 180.313 64.275 181.203 66.5206C181.806 67.9981 181.902 69.0729 181.902 69.0729C191.97 72.6227 192.583 80.1009 192.583 80.1009C198.389 85.8322 197.083 94.0946 192.157 97.9057C191.327 98.5458 190.026 99.2685 190.026 99.2685C190.026 99.2685 185.156 107.133 174.984 112.558C174.984 112.558 177.04 109.376 178.88 104.36C180.718 99.3352 180.817 97.5403 180.817 97.5403C179.851 96.9696 179.715 96.8896 179.702 96.8789C179.71 96.8842 179.694 96.8789 179.694 96.8789C179.673 96.8576 174.947 102.162 165.748 101.447C162.15 108.278 149.898 114.828 149.898 114.828C150.024 114.612 154.219 108.654 155.262 102.36C155.608 97.7243 154.824 94.0146 153.341 92.6011C151.861 91.1796 149.797 89.1446 144.98 89.9714C140.164 90.7955 138.401 95.244 138.401 95.244C140.228 97.1136 141.212 99.8713 139.75 103.962C138.34 107.923 135.825 110.11 133.563 112.63C131.309 115.153 132.323 118.353 134.35 120.455C136.371 122.565 141.172 124.032 143.57 124.336C148.325 122.434 155.008 118.26 157.606 113.777C157.606 113.777 158.315 120.783 156.304 126.106C156.304 126.106 160.601 124.528 163.519 122.725C166.439 120.919 170.109 116.74 170.109 116.74C170.109 116.74 171.77 120.434 168.509 127.277L172.066 127.371L170.234 137.577C170.234 137.577 160.214 139.596 144.527 137.649C131.752 136.065 114.406 132.195 93.0008 142.044C69.2299 152.99 62.3918 174.08 62.3918 174.08C64.9308 149.653 74.844 131.619 76.6708 128.464L76.6762 128.469C76.8629 128.141 76.9562 127.976 76.9562 127.976C69.8727 132.043 54.4602 148.128 54.4602 148.128C56.1564 135.668 57.7566 128.251 57.7566 128.251C57.7566 128.251 47.3447 112.513 37.9115 101.687C28.4811 90.8595 9.72147 80.2369 9.72147 80.2369C25.582 71.9692 40.8639 63.9523 53.3774 57.7062C51.3478 54.5245 49.9156 50.82 49.3182 46.9289C48.6115 42.2803 46.9953 38.4559 46.9953 38.4559C56.1404 40.5468 64.8348 46.1021 70.6808 49.4625C74.5106 47.777 77.6256 46.5769 79.8339 45.9555C93.8969 42.0643 105.781 40.5948 115.878 40.5281C115.339 39.4773 114.278 37.037 114.707 34.6368ZM117.364 43.9552C105.154 43.7659 92.214 45.2194 77.4203 50.3987C76.7855 50.62 75.8974 51.0147 74.7986 51.5348C76.0628 52.0389 77.5509 52.5509 79.1645 53.0603C85.0532 50.9827 98.0654 47.2063 114.71 47.305C137.622 47.449 153.816 56.6101 154.758 57.1248C155.702 57.6475 136.915 49.0652 114.003 49.4625C104.282 49.6279 91.494 52.9483 85.7866 54.9619C91.814 56.5647 97.388 57.7809 97.388 57.7809C97.3293 57.7835 96.7506 57.7889 95.7771 57.7969L95.8651 57.8422C95.8651 57.8422 76.5828 61.344 67.2724 56.8901C59.0661 52.967 58.3486 52.999 55.7883 52.3989C55.791 52.4149 55.791 52.4282 55.799 52.4416C56.5324 54.7485 57.7326 57.4235 59.6688 59.8478C61.245 61.8214 63.3146 63.6269 66.0296 64.9257C66.0296 64.9257 63.6053 65.7312 60.9756 65.5258C60.9756 65.5258 74.1932 73.0947 94.2463 68.5475C94.2463 68.5475 73.5505 75.831 58.4927 73.4068C58.4927 73.4068 62.3278 72.284 64.5361 70.4731C64.5361 70.4731 62.0131 69.9557 59.2848 68.8275C51.1611 73.7108 36.7754 81.4077 27.641 86.2616C27.6303 86.2616 27.6276 86.259 27.6196 86.251C31.5481 89.462 36.5274 93.7372 40.7519 98.0817C48.8435 106.392 59.7781 120.97 60.7969 122.325C60.8049 122.306 60.8129 122.285 60.8263 122.261C60.8903 122.149 60.9596 122.029 61.0263 121.911C61.029 121.909 61.0316 121.903 61.0343 121.885C66.8083 102.648 97.8947 73.7935 115.817 68.2675C115.817 68.2675 115.806 68.2781 115.788 68.2861C115.708 68.3341 115.443 68.4622 115.03 68.6995C114.958 68.7395 114.889 68.7822 114.801 68.8302C114.675 68.9022 114.534 68.9822 114.379 69.0676C107.312 73.1347 76.0894 92.8624 66.515 128.912L66.5416 128.872C68.8459 125.226 78.4257 107.472 93.2595 92.009C109.982 74.5776 131.293 74.7776 138.457 75.1936C152.245 76.0044 162.959 85.2615 162.959 85.2615C162.959 85.2615 162.596 82.0211 160.718 79.3301C159.385 77.4152 158.182 76.2418 158.182 76.2418C151.264 76.0177 145.639 74.5909 145.612 74.5856C145.604 74.5856 145.602 74.5856 145.599 74.5802C145.188 74.4976 144.772 74.3909 144.338 74.2415C139.273 72.4733 137.643 68.2435 136.609 64.379C135.835 61.52 131.611 60.6372 129.467 60.3785C128.866 60.3625 128.221 60.3785 127.528 60.4265C127.528 60.4265 127.701 60.3065 128.024 60.1492C127.928 60.1545 127.872 60.1545 127.872 60.1545C128.325 59.8478 128.797 59.6104 129.274 59.3997C129.2 59.4264 129.136 59.4477 129.069 59.4797C137.097 54.8685 146.943 62.5468 146.943 62.5468C162.804 69.953 173.874 66.7393 177.064 65.4938C177.051 65.5071 177.107 65.5631 176.992 65.3445C176.379 64.1576 175.312 62.9042 173.461 62.0561C172.101 62.9175 165.26 66.0539 147.391 57.1515C147.391 57.1515 159.19 61.2826 164.793 60.7439C163.953 60.3225 163.031 59.8211 162.038 59.2077C157.022 56.1273 148.506 46.3182 129.373 44.6193C125.418 44.2646 121.434 44.0192 117.364 43.9552ZM50.449 65.7925C49.4596 65.8965 48.6221 66.2139 47.4433 66.3632C38.9276 71.0891 29.5985 76.2258 20.7468 80.8663C20.7468 80.8663 23.1284 82.6772 23.3258 82.8292C37.4235 76.0844 48.0941 70.161 54.3722 66.5046C52.5826 65.7952 51.4385 65.6858 50.449 65.7925ZM154.181 70.8171C156.606 72.876 159.222 73.4308 163.745 75.183C166.692 76.3298 169.071 77.5326 171.002 78.7301C171.002 78.7407 171.007 78.7514 171.007 78.7621C170.863 78.7194 171.365 78.8794 171.221 78.8447C171.536 78.9248 171.218 78.8394 171.554 78.9648C171.581 78.9754 171.616 78.9834 171.642 78.9914C172.504 79.2421 182.001 81.9464 187.311 80.2209C187.311 80.2209 186.489 72.2226 174.997 71.2038C174.997 71.2038 163.836 73.3988 154.181 70.8171ZM174.555 72.2306C174.555 72.2306 180.19 73.3134 182.139 74.9749C184.086 76.6471 185.649 79.7675 185.649 79.7675C185.649 79.7675 181.865 75.247 174.555 72.2306ZM141.055 80.877C139.505 80.8423 137.836 81.0183 136.075 81.5064C135.811 81.5811 135.55 81.6557 135.283 81.7464C139.286 80.789 146.69 80.4796 153.131 88.1845C153.131 88.1845 164.839 103.738 174.565 97.2469C174.755 97.1243 174.944 96.9883 175.131 96.8469C175.181 96.8149 175.227 96.7722 175.277 96.7376C175.419 96.6255 175.555 96.5135 175.688 96.3988C175.736 96.3588 175.784 96.3215 175.829 96.2788C175.976 96.1562 176.12 96.0281 176.256 95.8948C176.291 95.8681 176.32 95.8388 176.349 95.8041C177.056 95.1214 177.678 94.3346 178.158 93.4705H178.168C178.283 93.2651 178.382 93.0571 178.475 92.8464C178.483 92.8278 178.488 92.8171 178.502 92.8011C176.328 94.2679 170.749 97.1589 164.553 93.5665C156.598 88.942 152.245 85.1415 152.245 85.1415C152.245 85.1415 147.77 81.0237 141.055 80.877ZM192.306 91.3769C191.658 92.5317 190.178 93.4092 187.93 93.7105C185.489 94.0439 182.236 92.6917 181.326 92.2837C181.323 92.2997 181.318 92.3184 181.315 92.3317C181.278 92.497 181.238 92.6651 181.19 92.8198C181.097 93.1531 180.979 93.4732 180.846 93.7532C180.83 93.7825 180.819 93.8119 180.806 93.8412C180.734 93.9692 180.662 94.0919 180.582 94.2012C180.582 94.2012 186.396 97.4656 189.836 94.9827C190.026 94.8493 190.202 94.708 190.367 94.5666C190.452 94.4946 190.527 94.4173 190.602 94.3426C190.677 94.2679 190.754 94.2013 190.826 94.1292C190.911 94.0412 190.986 93.9506 191.066 93.8679C191.117 93.8039 191.173 93.7372 191.223 93.6759C191.298 93.5745 191.367 93.4812 191.437 93.3772C191.474 93.3238 191.509 93.2731 191.546 93.2171C191.615 93.1078 191.679 93.0038 191.743 92.8944C191.767 92.8464 191.797 92.7984 191.815 92.7531C191.879 92.6357 191.933 92.5104 191.983 92.3877C191.997 92.3584 192.015 92.321 192.029 92.2837C192.079 92.1503 192.13 92.0197 192.17 91.8836C192.181 91.8623 192.186 91.841 192.191 91.8143C192.234 91.673 192.277 91.5236 192.306 91.3769ZM122.82 93.1691C122.602 93.1638 122.471 93.1798 122.471 93.1798C116.238 97.287 112.707 112.654 123.572 118.876C135.446 125.666 138.468 124.746 138.468 124.746C134.427 123.901 129.872 121.034 128.832 118.324C128.058 116.308 128.624 113.548 130.704 111.361C131.805 110.211 135.001 107.934 136.694 104.354C137.489 102.666 138.854 98.4524 136.246 96.4735C133.104 94.0919 130.171 96.1748 130.171 96.1748C132.99 100.77 125.394 108.078 125.394 108.078C130.184 94.2306 124.354 93.2091 122.823 93.1718L122.82 93.1691ZM111.72 126.829C101.314 127.309 91.8247 131.624 86.3067 135.393C81.8768 138.42 76.5402 144.967 73.7532 148.608C73.4625 148.979 72.9477 149.571 72.7157 149.869C72.7797 149.811 73.0891 149.501 73.1691 149.427C75.6174 146.912 87.3281 135.686 104.589 131.19C115.459 128.349 131.485 131.736 144.103 133.403C160.598 135.59 167.023 133.939 167.023 133.939L167.338 132.118C165.433 132.198 167.858 132.857 155.2 132.182C142.54 131.507 128.357 127.677 116.228 126.872C114.713 126.771 113.209 126.762 111.723 126.832L111.72 126.829Z" fill="#A3A9AC"/>
<path d="M170.336 78.3353C169.829 77.9552 166.706 76.3384 163.742 75.1782C159.221 73.4047 156.601 72.8746 154.181 70.8177C163.835 73.398 174.993 71.2011 174.993 71.2011C186.485 72.2245 187.311 80.2188 187.311 80.2188C181.997 81.9424 172.5 79.2421 171.64 78.9887C171.633 78.9887 171.329 78.8654 171.026 78.7587L170.336 78.3353ZM170.583 78.652C172.733 79.8421 178.277 83.3592 179.07 88.6898C179.297 90.18 179.047 91.5569 178.497 92.797H178.5C178.487 92.817 178.48 92.827 178.474 92.8437C178.38 93.0537 178.277 93.2637 178.164 93.4671L178.157 93.4704C177.677 94.3305 177.057 95.1173 176.347 95.804C176.317 95.8374 176.287 95.864 176.253 95.8907C176.117 96.0274 175.973 96.1574 175.827 96.2774C175.78 96.3207 175.733 96.3608 175.687 96.3975C175.553 96.5108 175.413 96.6242 175.273 96.7342C175.223 96.7708 175.177 96.8108 175.127 96.8441C174.94 96.9808 174.75 97.1242 174.56 97.2475C164.835 103.738 153.124 88.1831 153.124 88.1831C146.683 80.4789 139.286 80.7855 135.282 81.7423C135.549 81.6523 135.809 81.5757 136.072 81.5023C133.795 82.0057 132.348 82.7392 132.348 82.7392C141.973 81.5223 143.973 85.4428 143.973 85.4428C137.139 83.9126 129.374 83.1425 119.75 89.9967C110.802 96.3641 111.559 106.035 111.559 106.035C111.376 131.512 167.746 129.751 167.746 129.751L167.332 132.112L167.016 133.935C167.016 133.935 160.592 135.582 144.1 133.399C131.481 131.728 115.456 128.345 104.585 131.185C86.7694 135.826 74.8579 147.65 72.961 149.63C72.8277 149.724 72.6844 149.924 72.6844 149.924C81.3021 124.468 95.4371 113.683 95.4371 113.683C86.0826 114.63 66.5036 128.941 66.5036 128.941C66.5136 128.911 66.5269 128.895 66.5369 128.865C66.5303 128.875 66.5203 128.898 66.5103 128.908C76.0847 92.857 107.308 73.1313 114.373 69.0642C114.526 68.9775 114.666 68.8975 114.793 68.8241C114.879 68.7774 114.953 68.7374 115.026 68.6941C115.436 68.4607 115.699 68.3274 115.783 68.284C115.8 68.2707 115.809 68.264 115.809 68.264C97.8873 73.7914 66.8036 102.648 61.0329 121.884C61.0296 121.9 61.0229 121.904 61.0229 121.907C60.9729 122.081 60.9196 122.257 60.8729 122.427C60.8729 122.427 60.8563 122.367 60.8229 122.257C60.8129 122.277 60.7996 122.301 60.7929 122.317C59.7761 120.964 48.8381 106.389 40.7438 98.081C36.52 93.7371 31.5461 89.4599 27.6156 86.2496C27.2656 85.9595 26.9289 85.6895 26.5955 85.4228C26.4755 85.3228 26.3488 85.2228 26.2288 85.1228C26.0454 84.9794 25.8754 84.8427 25.702 84.6994C22.7517 82.3491 20.7481 80.8656 20.7481 80.8656C29.5958 76.225 38.9236 71.0877 47.438 66.3638C49.7983 66.0605 50.7917 65.0837 54.3655 66.5038C55.1656 66.8172 56.0824 67.2439 57.1792 67.8407C57.8692 68.2074 58.5826 68.5307 59.2794 68.8241C62.0064 69.9476 64.5334 70.4743 64.5334 70.4743C62.3231 72.2812 58.486 73.4047 58.486 73.4047C73.5444 75.825 94.2403 68.5474 94.2403 68.5474C74.1879 73.0947 60.9729 65.5237 60.9729 65.5237C63.6066 65.7304 66.0269 64.9203 66.0269 64.9203C63.3132 63.6235 61.243 61.82 59.6694 59.8464C57.7292 57.4194 56.5324 54.7424 55.7956 52.4388C55.789 52.4222 55.789 52.4122 55.7857 52.3955H55.779C54.7622 49.1851 54.6388 46.7148 54.6388 46.7148C63.0065 49.8085 65.6902 52.9456 71.5975 55.2692C76.2381 57.0994 90.6232 57.6128 95.6404 57.7395L95.7671 57.7961C96.7406 57.7895 97.3239 57.7795 97.3806 57.7761C97.3806 57.7761 91.81 56.5627 85.7859 54.9558C83.5523 54.3657 81.2587 53.719 79.1618 53.0589C77.5482 52.5489 76.0614 52.0388 74.8013 51.5354C75.8981 51.012 76.7881 50.6186 77.4216 50.3986C97.1406 43.4911 113.563 43.2077 129.364 44.6146C148.5 46.3148 157.011 56.1259 162.028 59.2063C163.025 59.8164 163.942 60.3165 164.782 60.7398C159.178 61.2766 147.38 57.1427 147.38 57.1427C165.249 66.0471 172.09 62.9167 173.45 62.0566C175.243 62.8767 176.3 64.0802 176.923 65.227C177.06 65.4871 177.094 65.507 177.054 65.4904C176.96 65.5237 176.864 65.5637 176.757 65.6004C173.22 66.9139 162.335 69.7409 146.93 62.5434C146.93 62.5434 137.085 54.8624 129.058 59.4763C129.124 59.4463 129.191 59.423 129.264 59.3964C128.788 59.6064 127.914 60.1497 128.011 60.1464C127.688 60.3064 127.521 60.4264 127.521 60.4264C128.691 60.3398 129.731 60.3298 130.668 60.3598H130.708C131.155 60.3798 131.571 60.4098 131.968 60.4464C131.991 60.4464 132.015 60.4565 132.035 60.4565C132.425 60.4931 132.788 60.5431 133.135 60.5998C133.158 60.6065 133.178 60.6098 133.202 60.6131C133.545 60.6665 133.862 60.7398 134.162 60.8165L134.222 60.8265C134.522 60.9032 134.802 60.9832 135.058 61.0765C135.075 61.0832 135.089 61.0832 135.105 61.0865C135.365 61.1799 135.612 61.2766 135.839 61.3766C135.839 61.3799 135.845 61.3799 135.849 61.3866C136.545 61.7 137.075 62.0566 137.482 62.4167C137.489 62.42 137.492 62.4234 137.495 62.4267C137.629 62.5401 137.742 62.6501 137.845 62.7634C137.859 62.7734 137.865 62.7834 137.875 62.7901C137.972 62.9034 138.059 63.0101 138.142 63.1101C138.156 63.1301 138.166 63.1435 138.176 63.1535C138.252 63.2568 138.319 63.3535 138.379 63.4501C138.389 63.4668 138.399 63.4801 138.412 63.5001C138.466 63.5868 138.519 63.6769 138.562 63.7569C138.576 63.7802 138.586 63.7935 138.592 63.8135C138.632 63.8902 138.669 63.9702 138.702 64.0369C138.712 64.0536 138.722 64.0802 138.732 64.1035C138.762 64.1535 138.782 64.2002 138.802 64.2436C138.836 64.3269 138.869 64.3902 138.889 64.4402C139.292 65.227 140.372 70.631 145.636 72.1212C148.71 72.9913 150.477 72.2079 151.41 71.4111C152.081 70.841 152.337 70.2609 152.337 70.2609C152.767 70.4076 153.201 70.5377 153.641 70.6643C153.657 70.671 153.671 70.671 153.687 70.6843C153.624 70.8243 153.547 70.971 153.467 71.1177C153.437 71.1711 153.407 71.2177 153.377 71.2677C153.324 71.3678 153.264 71.4611 153.204 71.5578C153.161 71.6211 153.114 71.6912 153.067 71.7612C153.014 71.8378 152.957 71.9112 152.904 71.9878C152.841 72.0645 152.777 72.1412 152.714 72.2245C152.661 72.2812 152.614 72.3412 152.561 72.4012C152.484 72.4912 152.404 72.5779 152.321 72.6612C152.274 72.7046 152.227 72.7579 152.181 72.8046C152.084 72.8946 151.987 72.978 151.887 73.068C151.847 73.1013 151.807 73.1413 151.767 73.1747C151.65 73.2713 151.534 73.358 151.41 73.4513C151.384 73.4713 151.35 73.4947 151.324 73.5147C151.187 73.608 151.047 73.708 150.897 73.7914C150.887 73.8014 150.874 73.8047 150.864 73.8081C149.514 74.6115 147.75 75.0315 145.603 74.5815C145.596 74.5815 145.59 74.5815 145.586 74.5748C145.586 74.5748 151.24 76.0183 158.171 76.2383C163.482 76.4084 167.239 77.6419 169.636 78.3486C169.646 78.3486 170.583 78.652 170.583 78.652ZM146.016 70.591C146.016 70.591 148.627 69.9709 148.9 68.5174C148.9 68.5174 149.72 68.9841 150.53 69.1608C150.53 69.1608 149.26 71.4078 146.016 70.591ZM192.302 91.3702V91.3768C192.272 91.5235 192.232 91.6702 192.185 91.8136C192.179 91.8402 192.175 91.8602 192.169 91.8802C192.129 92.0169 192.079 92.1469 192.029 92.2803C192.012 92.317 191.995 92.357 191.982 92.387C191.932 92.5103 191.875 92.6336 191.812 92.7503C191.789 92.797 191.765 92.8437 191.739 92.8904C191.679 93.0004 191.615 93.1037 191.545 93.2137C191.509 93.2704 191.469 93.3237 191.432 93.3771C191.362 93.4804 191.295 93.5738 191.219 93.6738C191.165 93.7371 191.109 93.8005 191.062 93.8638C190.982 93.9471 190.909 94.0405 190.825 94.1272C190.752 94.2005 190.668 94.2672 190.598 94.3405C190.522 94.4172 190.445 94.4905 190.365 94.5605C190.198 94.7039 190.025 94.8439 189.832 94.9773C186.395 97.4609 180.581 94.2005 180.581 94.2005C180.657 94.0905 180.731 93.9638 180.801 93.8371C180.811 93.8071 180.827 93.7805 180.841 93.7505C180.977 93.4704 181.091 93.1537 181.187 92.8203C181.234 92.6636 181.277 92.497 181.314 92.3303C181.617 91.0201 181.674 89.6766 181.674 89.6766C181.674 89.6766 183.081 86.3596 185.738 83.8226C187.298 82.3291 188.795 81.919 188.795 81.919C188.795 81.919 193.225 86.9496 192.302 91.3702ZM180.277 106.919C182.348 104.108 183.754 98.5043 183.754 98.5043C184.678 98.9211 187.338 99.3244 187.338 99.3244C186.001 102.752 180.277 106.919 180.277 106.919ZM155.384 109.009C158.575 104.148 158.238 97.0608 158.238 97.0608C159.348 98.7744 162.478 100.608 162.478 100.608C161.995 104.392 155.384 109.009 155.384 109.009ZM136.689 104.355C134.995 107.935 131.798 110.206 130.695 111.359C128.614 113.543 128.054 116.303 128.828 118.32C129.868 121.03 134.425 123.891 138.466 124.738C138.466 124.738 135.442 125.661 123.567 118.87C112.702 112.646 116.233 97.2809 122.467 93.1737C122.467 93.1737 130.865 92.2536 125.391 108.076C125.391 108.076 132.982 100.768 130.165 96.1707C130.165 96.1707 133.098 94.0905 136.239 96.4708C138.849 98.451 137.485 102.668 136.689 104.355ZM155.198 119.724C155.051 123.581 153.291 126.494 153.074 126.841C150.007 126.621 147.757 126.351 146.24 126.131C151.514 123.817 155.198 119.724 155.198 119.724ZM168.426 120.724C168.426 120.724 168.039 124.301 165.896 127.331C163.712 127.314 161.715 127.271 159.878 127.208C161.695 126.321 166.726 123.674 168.426 120.724ZM37.9102 101.685C47.3446 112.509 57.7559 128.245 57.7559 128.245C57.7559 128.245 56.1523 135.662 54.4588 148.124C54.4588 148.124 69.8673 132.038 76.9548 127.971C76.9548 127.971 76.8582 128.135 76.6715 128.465L76.6681 128.458C74.8413 131.612 64.9234 149.651 62.3864 174.077C62.3864 174.077 69.2273 152.984 93.0001 142.04C114.399 132.188 131.748 136.059 144.52 137.642C160.208 139.589 170.223 137.572 170.223 137.572L172.06 127.364L168.506 127.271C171.766 120.427 170.106 116.733 170.106 116.733C170.106 116.733 166.436 120.91 163.515 122.717C160.598 124.521 156.301 126.101 156.301 126.101C158.311 120.777 157.598 113.77 157.598 113.77C155.001 118.253 148.323 122.431 143.566 124.331C141.169 124.027 136.365 122.557 134.338 120.447C132.312 118.347 131.298 115.146 133.555 112.623C135.819 110.106 138.336 107.922 139.746 103.962C141.206 99.8712 140.222 97.1109 138.392 95.2407C138.392 95.2407 140.159 90.7934 144.973 89.97C149.794 89.1432 151.857 91.1768 153.337 92.6003C154.821 94.0138 155.601 97.7243 155.258 102.358C154.214 108.652 150.02 114.606 149.894 114.823C149.894 114.823 162.142 108.272 165.742 101.445C174.937 102.161 179.664 96.8575 179.687 96.8775C179.687 96.8775 179.707 96.8842 179.701 96.8775C179.714 96.8875 179.847 96.9675 180.811 97.5376C180.811 97.5376 180.714 99.3311 178.877 104.355C177.037 109.372 174.973 112.549 174.973 112.549C185.145 107.129 190.025 99.2645 190.025 99.2645C190.025 99.2645 191.319 98.541 192.149 97.9009C197.073 94.0905 198.386 85.8295 192.582 80.0988C192.582 80.0988 191.962 72.6213 181.894 69.0708C181.894 69.0708 181.801 67.9974 181.197 66.5205C180.307 64.2736 178.897 60.6164 174.54 58.7929C174.54 58.7929 171.866 60.2731 168.943 59.4297C167.829 58.9596 166.502 58.2462 164.919 57.1827C159.348 52.3955 152.227 46.5448 142.469 43.9111C137.892 42.6777 132.678 41.6142 126.714 41.0141C116.553 36.9936 114.699 34.6333 114.699 34.6333C114.273 37.0336 115.333 39.4739 115.873 40.524C105.775 40.5907 93.8935 42.0609 79.8285 45.9514C77.6216 46.5715 74.5112 47.7749 70.6774 49.4585C64.8334 46.0981 56.1357 40.544 46.9913 38.4538C46.9913 38.4538 48.6081 42.2776 49.3182 46.9282C49.9149 50.8186 51.3418 54.5191 53.3753 57.7028C40.8605 63.9469 25.5787 71.9678 9.7168 80.2355C9.7168 80.2355 28.4757 90.8568 37.9102 101.685Z" fill="#001D52"/>
</g>
<defs>
<clipPath id="clip0_15016_302818">
<rect width="200" height="200" fill="white" transform="translate(0.816406 0.378906)"/>
</clipPath>
</defs>
</svg>
