<svg width="201" height="201" viewBox="0 0 201 201" fill="none" xmlns="http://www.w3.org/2000/svg">
<g clip-path="url(#clip0_15016_304236)">
<path d="M105.881 52.2713V81.3494L82.9438 52.2793H42.7177V83.6054H49.7345V93.1277L40.9041 93.1309C35.973 82.2454 28.2418 83.2214 28.2418 83.2214V93.1269H10.2444C9.32918 92.4773 8.21239 92.0438 6.9372 92.0438C2.35243 92.0438 0.28125 96.9069 0.28125 100.46C0.28125 104.014 2.48603 108.875 7.07239 108.875C9.84917 114.099 14.6619 117.928 20.5555 117.928C23.3995 117.928 26.001 117.029 28.2402 115.515V117.727C28.2402 117.727 35.9818 118.704 40.9057 107.794L49.7273 107.788V118.591H42.6841V149.621H90.2093V119.352L114.008 149.621H154.119V118.591H146.674L146.694 107.695C193.827 107.163 198.126 93.1013 200.281 89.9462C191.673 91.8118 175.685 92.6925 169.932 92.8701C161.746 93.1253 153.34 93.1269 146.712 93.1253C146.716 89.343 146.715 85.9598 146.715 83.5774C149.99 83.5118 154.119 83.4246 154.119 83.4246L154.104 52.2681H105.866L105.881 52.2713Z" fill="#B0B7BB"/>
<path d="M108.745 55.1431V80.7429H116.173L116.19 95.9955H113.776L81.548 55.1487H45.5811V80.7357H52.5979V95.9971H38.91C37.3036 90.6628 33.1964 86.8324 31.1245 86.8324V95.9971H9.19824C8.57024 95.3179 7.79425 94.9187 6.95426 94.9187C4.86147 94.9187 3.16309 97.4011 3.16309 100.465C3.16309 103.527 4.86147 106.011 6.95426 106.011C7.56785 106.011 8.14465 105.798 8.65664 105.419C10.8542 111.14 15.3654 115.064 20.5725 115.064C24.8661 115.064 28.6845 112.396 31.1261 108.252V114.095C33.198 114.095 37.3068 110.264 38.9252 104.93L52.6131 104.923V121.462H45.5699V146.751H87.3544V121.462H80.7825L80.8441 104.906H82.5144L115.417 146.752H151.262V121.463H143.814C143.82 119.335 143.834 112.439 143.844 104.869H144.781C162.302 104.555 182.361 102.819 193.669 93.654C182.034 96.0971 158.581 95.9979 144.781 95.9979H143.855C143.862 89.0356 143.865 82.8604 143.858 80.7661C146.72 80.7133 151.262 80.6197 151.262 80.6197V55.1455H108.759L108.745 55.1431Z" fill="black"/>
<path d="M112.306 58.6963V77.1889H119.733L119.762 109.317L116.258 104.876L113.542 104.879L121.901 115.477L121.863 75.057H114.439V60.8331H145.565V75.0458C145.565 75.0458 138.357 75.197 138.106 75.0658C138.25 75.9602 138.103 127.153 138.103 127.153H145.565V141.064H118.171L89.7393 104.905H87.0266L117.133 143.197H147.696V125.021H140.241C140.252 120.849 140.313 81.8217 140.269 77.2553L147.696 77.1353V58.6979H112.304L112.306 58.6963ZM49.1421 58.7051V77.1801H56.162V125.019H49.1157V143.198H83.7898V125.019H77.3474L77.3234 92.5616L80.025 95.9984H82.7378L75.2147 86.4265L75.3083 127.15H81.657V141.064H51.2508V127.15H58.294V75.0442H51.274V60.8371H78.7946L106.534 95.9968H109.253L79.829 58.7035H49.1421V58.7051ZM33.2774 90.628V94.8088C34.9158 95.2384 36.311 96.4 37.1886 97.9728C36.5534 94.684 34.7702 92.1352 33.2774 90.628ZM182.292 97.3696C178.458 97.6656 174.304 97.8656 170.092 97.9968C161.026 98.2776 151.689 98.2544 144.773 98.2544H143.841L143.837 100.51H151.264C167.408 100.51 179.127 98.5472 182.292 97.3696ZM7.08559 97.8768C6.2888 97.8768 5.6416 98.5488 5.6416 99.38C5.6416 100.21 6.2888 100.886 7.08559 100.886C7.45119 100.886 7.78558 100.745 8.04078 100.51V99.6144L9.48237 100.355L10.924 99.6144L12.3679 100.355L13.8095 99.6144L15.2511 100.355L16.6959 99.6144L18.1367 100.355L19.5783 99.6144L21.0199 100.355L22.4615 99.6144L23.9031 100.355L25.3478 99.6144L26.7886 100.355L28.2334 99.6144L29.675 100.355L31.1166 99.6144V98.2544H8.04078C7.78478 98.02 7.45039 97.8768 7.08479 97.8768H7.08559ZM39.4253 98.2544C39.5341 98.9744 39.5925 99.712 39.5925 100.464V100.51H52.6036V98.2544H39.4253ZM80.841 98.2544V100.51H116.178V98.2544H80.841Z" fill="white"/>
<path d="M10.8398 104.931C13.2718 108.334 16.7254 110.456 20.5582 110.456C24.3893 110.456 27.8445 108.334 30.2765 104.931H10.8398Z" fill="#B0B7BB"/>
<path d="M114.433 60.8307V75.0546H121.857L121.895 115.474L113.534 104.877L89.7357 104.9L118.167 141.062H145.561V127.149H138.098C138.098 127.149 138.246 75.9602 138.102 75.065C138.353 75.1946 145.561 75.0418 145.561 75.0418V60.8291H114.435L114.433 60.8307ZM51.2696 60.8363V75.0434H58.2895V127.149H51.2432V141.063H81.6509V127.149H75.299L75.2086 86.4257L82.7317 95.9944H106.528L78.7893 60.8355H51.2688L51.2696 60.8363Z" fill="#C41230"/>
</g>
<defs>
<clipPath id="clip0_15016_304236">
<rect width="200" height="200" fill="white" transform="translate(0.28125 0.945312)"/>
</clipPath>
</defs>
</svg>
