<svg width="201" height="201" viewBox="0 0 201 201" fill="none" xmlns="http://www.w3.org/2000/svg">
<path d="M175.932 75.2241C175.886 75.1561 171.239 68.4549 169.495 64.4924L168.928 63.2007L143.085 58.1589L143.304 57.7892L124.76 34.5157L121.429 43.4158C119.969 43.2416 118.367 43.1248 116.601 43.0823C115.664 41.4229 113.99 38.4738 112.246 35.5206C110.907 33.2599 109.53 30.9951 108.404 29.289C107.799 28.3711 107.259 27.6063 106.83 27.0624C106.601 26.7756 106.339 26.4675 106.063 26.2061C105.319 25.4965 104.58 25.2968 104.113 25.2543C100.63 24.9356 96.0049 27.3704 93.2174 36.6042C91.3009 34.1459 88.8703 30.5786 86.7902 26.119C84.0282 20.2018 79.3922 23.767 77.6287 25.7345C77.0912 26.3336 76.1648 27.2684 75.0876 28.6686C73.9573 30.1367 72.6825 32.0808 71.5097 34.6325C69.2703 39.5065 67.4665 46.4626 67.6216 56.3551C65.0252 58.144 58.9742 62.6738 52.7213 69.9018C44.8686 78.9848 36.6206 92.4318 34.6447 110.107H23.5625L29.2098 122.604V149.568L23.7006 161.592H37.6001L33.2531 171.344H158.816L153.311 161.409L167.557 161.592L162.122 148.958V122.589L166.896 110.107H138.751C138.885 107.46 139.41 105.469 139.945 104.079C140.281 103.21 140.65 102.524 140.927 102.071L153.507 99.8914C159.802 99.2476 173.846 94.9452 176.387 77.1448L176.538 76.0953L175.932 75.2241ZM43.2305 110.107C45.8608 107.621 48.3934 105.908 50.5096 104.748C49.8488 106.656 49.4132 108.462 49.1328 110.107H43.2305Z" fill="#9EA2A2"/>
<path d="M139.367 99.5944L153.124 97.2105C158.782 96.6602 171.396 92.8762 173.699 76.7585C173.699 76.7585 168.878 69.8258 167.006 65.5722L138.791 60.0672L140.015 58.0062L125.599 39.9147L123.173 46.3971C120.906 45.9934 118.218 45.7534 114.99 45.7534C114.99 45.7534 105.138 28.0507 103.849 27.9338C101.977 27.7638 97.001 29.1236 94.6192 42.3092C94.6192 42.3092 88.7382 36.7086 84.3252 27.2539C83.1354 24.7001 81.5525 25.3715 79.6191 27.528C77.5794 29.8057 69.6141 37.1039 70.3365 57.7726C70.3365 57.7726 39.9156 77.6126 36.5692 113.207H28.3574L32.2987 121.929V150.24L28.5232 158.479H40.689V160.95L37.9099 168.232H154.159L150.188 161.088V158.479H162.821L158.996 149.594V122.01L162.364 113.207H136.056C135.508 103.763 139.367 99.5944 139.367 99.5944ZM65.2437 109.251C64.9675 110.354 64.7614 111.711 64.6148 113.207H58.4192C62.0057 110.685 65.2437 109.251 65.2437 109.251ZM37.4467 113.207C46.1706 102.905 55.7549 99.7643 55.7549 99.7643C52.9461 104.541 51.7648 109.406 51.2974 113.207H37.4467ZM130.683 113.207C130.857 111.665 130.976 110.534 130.976 110.534C131.718 111.471 133.171 112.48 134.344 113.207H130.683Z" fill="black"/>
<path d="M34.6074 117.138L36.3139 120.026V151.726L34.8828 154.641H48.6506L47.2194 151.726V131.144L78.5641 149.1V151.702L77.4117 154.641H90.5489L89.1177 151.726V120.052L90.5489 117.136H77.1329L78.3584 119.627L78.593 119.992V135.043L47.1055 117.223L34.6074 117.136V117.138ZM93.2141 117.138L94.4362 119.628L94.6707 119.992L94.6452 151.702L93.4894 154.641H106.628L105.195 151.726V120.052L106.628 117.136H93.2141V117.138ZM109.435 117.138L110.815 119.992L110.789 133.736V147.971L119.278 154.704H145.729L154.214 147.971L154.194 119.992L155.575 117.138H142.117L143.552 120.052L143.557 143.047L141.918 145.122L138.648 146.156H126.357L123.088 145.122L121.448 143.047L121.455 136.79V120.052L122.888 117.136H109.433L109.435 117.138Z" fill="#BA0C2F"/>
<path d="M101.591 100.633C98.8634 104.251 97.0978 107.697 95.959 110.546C104.751 108.233 113.264 108.881 113.264 108.881C110.906 113.002 110.226 113.967 110.226 113.967L122.392 113.661L127.406 103.792L117.998 107.459L123.966 97.5541L114.854 98.5421L120.252 91.7389C114.786 92.1065 106.684 93.8806 101.591 100.633Z" fill="#9EA2A2"/>
<path fill-rule="evenodd" clip-rule="evenodd" d="M80.1536 36.8042C80.1536 36.8042 75.4437 43.9499 75.5916 55.1596C75.5916 55.1596 80.9882 51.3811 88.4075 49.3567C88.4075 49.3567 82.8783 45.4456 80.1536 36.8042ZM126.342 48.8587L125.973 53.6026C124.124 52.576 121.467 50.968 117.92 51.4304C107.563 52.7867 110.506 59.4599 111.021 60.6497C109.788 59.7964 108.179 59.2797 106.42 59.2797C102.544 59.2797 99.4014 61.7817 99.4014 64.8701C99.4014 65.3919 99.4932 65.8984 99.6614 66.3761C79.3905 60.082 72.5559 75.3472 72.5559 75.3472C79.7202 73.2651 86.8863 75.7875 86.8863 75.7875C74.5156 79.8396 69.7003 93.0975 69.7003 93.0975C74.0125 90.689 84.51 89.6759 84.51 89.6759C72.289 97.8839 72.1105 109.84 72.1105 109.84C83.6177 99.2522 98.3968 97.2873 98.3968 97.2873C87.5611 107.562 85.1644 115.434 85.1644 115.434C88.3854 113.078 92.2013 111.545 95.9645 110.557C97.1033 107.708 98.8694 104.263 101.597 100.644C106.69 93.8896 114.791 92.115 120.259 91.7462L120.289 91.7105L155.067 90.5258C156.415 89.732 163.78 86.1422 165.166 79.039C165.166 79.039 166.406 81.0209 166.5 83.5943C168.155 80.6198 168.963 78.2793 168.963 78.2793L166.488 73.1631C166.488 73.1631 165.138 77.0521 164.975 76.571C164.526 75.2537 163.173 72.9948 161.754 73.1631C158.146 73.5914 158.674 78.6396 158.674 78.6396C151.491 74.6673 158.526 68.7999 158.528 68.7999L133.265 63.3591L135.191 60.6327C135.191 60.6327 130.892 53.98 126.344 48.8587H126.342ZM114.413 55.7137L130.469 64.3245L132.198 71.0979C132.198 71.0979 129.043 66.8673 124.799 65.5194C123.949 67.4044 121.18 68.4208 118.464 67.8004C115.642 67.1579 113.943 64.9908 114.67 62.9647C114.915 62.2814 115.403 61.7018 116.05 61.2582L114.413 55.7137ZM79.3531 118.524L79.9752 119.586V135.597L81.4522 136.43V118.524H79.3531ZM95.4342 118.524L96.0563 119.586L96.0257 151.968L95.5209 153.259H104.405L103.535 151.782H97.6421L97.6388 118.525L95.4342 118.524ZM111.762 118.524L112.382 119.583L112.35 147.098L120.568 153.086H142.943L145.328 151.532L121.581 151.685L114.158 146.411L114.184 118.525H111.76L111.762 118.524ZM144.618 118.524L145.238 119.586L145.235 143.556L143.638 145.621L145.178 145.133L147.296 142.796L147.303 118.525L144.618 118.524ZM37.04 118.541L37.6978 119.652V152.051L37.1029 153.259H46.4242L45.5591 151.782H39.1307L39.1715 118.554L37.04 118.541ZM47.1755 127.553V129.492L79.948 148.481V151.968L79.4398 153.259H88.3225L87.454 151.781H81.4148L81.4216 147.207L47.1755 127.553ZM44.512 158.897L44.9438 159.666V164.843L44.512 165.611H48.656L48.2243 164.843V162.926L48.3959 162.829H50.4679L50.6413 162.926V164.843L50.2095 165.611H54.3484L53.92 164.843V159.666L54.3484 158.897H50.2095L50.6413 159.666V161.102L50.4679 161.199H48.3959L48.2243 161.102V159.666L48.656 158.897H44.512ZM61.698 158.897L62.1297 159.666V163.884L61.9581 164.362L64.2017 165.611H69.2907L71.5343 164.362L71.3627 163.884V159.666L71.7944 158.897H67.8272L68.2589 159.666V163.453L67.9105 163.838L67.2221 164.027H66.532L65.8419 163.838L65.4969 163.453V159.666L65.9286 158.897H61.698ZM81.2092 158.897L78.9655 160.143V161.726L80.5191 162.589L83.1945 162.926L83.6262 163.164V163.55L83.3678 163.838L82.8494 163.981H80.3831L78.5712 163.641L79.7457 165.611H84.8347L87.0783 164.362V162.492L85.4381 161.583L82.7627 161.248L82.4177 161.054V160.862L82.676 160.573L83.1945 160.431H85.6438L87.1276 160.719L86.0432 158.897H81.2092ZM94.4297 158.897L94.8614 159.666V164.843L94.4297 165.611H98.5685L98.1368 164.843V163.068L98.3101 162.878L99.1736 162.397H99.432L100.863 164.748L101.038 165.611H105.35L104.385 164.699L101.936 160.959L105.301 159.091L104.953 158.897H101.244L100.899 159.472L98.3968 160.864L98.1368 161.056V159.666L98.5685 158.897H94.4297ZM111.699 158.897L112.131 159.666V164.843L111.699 165.611H115.928L115.496 164.843V159.666L115.928 158.897H111.699ZM123.536 158.897L123.968 159.666V164.843L123.536 165.611H131.042L132.218 163.645L130.404 163.981H127.506L127.248 163.835V162.926L127.421 162.829H128.54L129.833 163.068V161.056L128.54 161.296H127.421L127.248 161.199V160.527L127.384 160.432H130.352L131.873 160.721L130.783 158.897H123.536ZM140.805 158.897L138.561 160.143V161.726L140.115 162.589L142.79 162.926L143.219 163.164V163.55L142.96 163.838L142.445 163.981H139.976L138.164 163.641L139.338 165.611H144.431L146.673 164.362V162.494L145.032 161.583L142.36 161.248L142.014 161.056V160.864L142.274 160.575L142.79 160.432H145.238L146.725 160.721L145.636 158.897H140.805Z" fill="white"/>
</svg>
