<svg width="200" height="201" viewBox="0 0 200 201" fill="none" xmlns="http://www.w3.org/2000/svg">
<g clip-path="url(#clip0_15016_304042)">
<path d="M150.223 150.157C177.837 122.543 177.837 77.7715 150.223 50.1572C122.608 22.543 77.8369 22.543 50.2227 50.1572C22.6084 77.7715 22.6084 122.543 50.2227 150.157C77.8369 177.771 122.608 177.771 150.223 150.157Z" fill="white"/>
<path d="M100.222 163.942C65.0638 163.942 36.4375 135.315 36.4375 100.158C36.4375 64.9998 65.0638 36.3735 100.222 36.3735C135.379 36.3735 164.006 64.9998 164.006 100.158C164.006 135.315 135.379 163.942 100.222 163.942ZM100.222 37.5472C65.6761 37.5472 37.6111 65.6122 37.6111 100.158C37.6111 134.703 65.6761 162.768 100.222 162.768C134.767 162.768 162.832 134.703 162.832 100.158C162.832 65.6122 134.767 37.5472 100.222 37.5472Z" fill="#007A53"/>
<path d="M99.9665 150.369C72.1056 150.369 49.3984 127.661 49.3984 99.8005C49.3984 71.9396 72.0546 49.2324 99.9665 49.2324C127.878 49.2324 150.535 71.8885 150.535 99.8005C150.535 127.661 127.827 150.369 99.9665 150.369ZM99.9665 50.406C72.7179 50.406 50.5721 72.5519 50.5721 99.8005C50.5721 127.049 72.7179 149.195 99.9665 149.195C127.215 149.195 149.361 127.049 149.361 99.8005C149.361 72.5519 127.215 50.406 99.9665 50.406Z" fill="black"/>
<mask id="mask0_15016_304042" style="mask-type:luminance" maskUnits="userSpaceOnUse" x="92" y="95" width="33" height="37">
<path fill-rule="evenodd" clip-rule="evenodd" d="M118.799 98.5804C115.074 97.2537 110.047 95.8708 104.996 96.126L108.011 105.199L104.48 106.418L105.368 104.045L102.944 95.9219L102.266 95.9729L102.878 106.791L101.755 106.995L102.572 108.985L101.347 110.005L102.164 111.128L101.041 113.169C102.021 116.312 101.067 116.904 99.5409 116.986L99.6481 116.772L97.9285 116.945V117.302C96.3364 117.119 94.4586 117.098 92.4736 117.027C92.8512 118.211 93.9636 119.94 94.0759 120.083C95.4383 121.793 97.0355 123.308 98.5867 124.344C97.8723 126.385 97.0559 127.916 95.6781 128.988L102.919 126.038L100.995 126.11C103.649 125.242 104.547 124.941 105.873 123.563C108.068 128.768 112.752 131.738 118.824 131.993L118.86 121.058C117.584 119.068 115.793 117.353 114.16 115.363C115.283 116.027 116.793 117.399 118.426 117.399L118.395 114.613L116.314 113.695L116.691 113.679L115.028 113.036C114.344 113.246 113.405 113.082 112.476 112.256C114.364 111.847 116.069 110.653 117.395 109.429C119.232 107.796 121.33 107.556 122.35 110.312L123.983 115.874L124.6 115.751L118.799 98.5804Z" fill="white"/>
</mask>
<g mask="url(#mask0_15016_304042)">
<path fill-rule="evenodd" clip-rule="evenodd" d="M91.5469 95.4124H124.97V132.458H91.5469V95.4124Z" fill="url(#paint0_radial_15016_304042)"/>
</g>
<mask id="mask1_15016_304042" style="mask-type:luminance" maskUnits="userSpaceOnUse" x="65" y="81" width="38" height="35">
<path fill-rule="evenodd" clip-rule="evenodd" d="M102.877 95.7125L100.208 86.8185C96.3303 83.0425 90.5132 81.0218 84.7471 81.0218C83.4459 80.9963 82.109 81.1238 80.7823 81.328C73.8426 82.3995 67.6173 86.4817 65.6782 93.6766V93.7786H65.5762C65.4231 93.7786 65.3211 93.8296 65.168 93.8296V94.3858L65.5047 94.3552C65.3006 99.3049 68.7909 104.433 70.6279 105.147L70.2962 106.836C69.2246 109.235 67.3621 111.072 65.27 112.552L73.1793 110.898H71.7199C73.5569 110.388 75.603 110.072 76.4195 109.153C79.3791 115.327 82.8693 114.929 96.1875 115.899V104.234C94.2994 101.479 92.7176 100.024 90.7786 97.8302C92.6666 99.1059 94.4015 100.249 96.5447 101.269L96.4426 99.0803L94.8454 97.4832H95.7231L94.3199 96.3657C93.7994 96.2177 93.335 95.9677 92.4676 95.2023C93.8963 95.5084 94.9118 95.5544 96.1364 94.942C98.8409 93.2071 100.372 93.9725 102.26 95.4013V95.7585L102.877 95.7125Z" fill="white"/>
</mask>
<g mask="url(#mask1_15016_304042)">
<path fill-rule="evenodd" clip-rule="evenodd" d="M64.3975 79.7666H103.28V116.251H64.3975V79.7666Z" fill="url(#paint1_radial_15016_304042)"/>
</g>
<path d="M101.904 86.7368C105.068 82.0934 108.946 78.5214 113.13 75.766C120.733 75.4088 129.306 76.3783 134.256 78.6745C130.735 81.379 127.877 83.9814 124.969 87.5022C118.08 85.4101 110.477 84.3386 102.21 87.5533L101.904 86.7368Z" fill="#FFEBB7"/>
<path d="M104.508 94.5949L102.824 89.5942C109.254 86.3284 119.255 88.2164 123.745 89.3901L119.204 97.0952C115.224 95.5644 108.437 94.2887 104.508 94.5949Z" fill="#FFEBB7"/>
<path d="M120.275 98.7285V98.8306L125.888 115.925H124.918L118.948 98.4223V98.3713H118.897C115.131 96.9987 110.1 95.6261 104.966 95.871L104.624 94.8504C108.559 94.6004 115.33 95.871 119.254 97.4018H119.356L119.407 97.2997L124.102 89.3395L124.204 89.1864L124 89.1354C119.621 87.9618 109.452 85.9309 102.767 89.2681L102.303 87.8801C110.533 84.7062 118.055 85.7268 124.918 87.8597L125.02 87.9107L125.071 87.8597C128.031 84.2368 130.939 81.5833 134.562 78.8279L134.766 78.6748L134.562 78.5727C129.618 76.2306 121.081 75.2151 113.437 75.5162C115.07 74.4497 116.743 73.5006 118.432 72.6536C126.377 72.9699 133.659 75.21 141.349 77.9604C132.419 82.5018 123.642 89.9008 120.275 98.7285Z" fill="#F3CC2F"/>
<path d="M101.599 86.788L107.671 105.056L104.865 106.025L105.681 104.239V104.137L100.528 86.839V86.788L100.477 86.737C95.629 81.9914 87.8728 80.0524 80.8311 81.175C73.8403 82.2976 67.513 86.3798 65.5229 93.6767C61.0835 94.289 60.165 95.3606 57.9709 96.4321C57.4606 77.399 68.0232 63.6726 82.4639 58.0086C96.9047 52.3446 115.223 54.7428 130.225 67.9589C120.53 70.7144 109.1 75.7661 101.65 86.6859L101.599 86.737V86.788Z" fill="#F3CC2F"/>
<path d="M65.3692 75.0515C73.3805 63.6724 84.9127 59.5902 95.9346 59.4881C106.854 59.3351 117.315 63.1111 123.438 67.4994C119.356 69.0813 115.07 71.2244 110.171 74.4902C102.772 69.8977 92.4647 67.4994 83.4329 69.7957C74.401 72.0919 66.6449 79.0316 64.5017 92.962C62.4096 93.3703 60.5726 93.6254 58.6336 94.9011C58.5315 86.4305 61.287 81.2258 65.3692 75.0515Z" fill="#FFEBB7"/>
<path d="M79.7608 73.6742C87.2618 70.3575 96.957 70.7657 107.316 77.1951C104.662 79.8996 102.774 82.8591 100.988 85.8698C99.1001 83.1143 92.4156 80.1037 85.0676 80.0526C77.8217 79.9506 69.9635 82.7571 65.5752 91.4828C67.3612 83.4204 72.5659 76.8379 79.7608 73.6742Z" fill="#FFEBB7"/>
<path d="M126.144 116.129V116.282H126.348L126.297 116.078L126.144 116.129Z" fill="#007A53"/>
<path d="M141.759 77.8069C134.12 75.0565 126.889 72.8164 118.944 72.4031C122.853 70.4947 126.823 69.117 130.533 68.0607L130.788 68.0097L130.584 67.8566C115.48 54.3854 96.9566 51.9361 82.3628 57.6511C67.769 63.4172 57.0533 77.2966 57.6656 96.636V96.8401L57.8697 96.738C60.319 95.6154 61.0334 94.5438 65.6259 93.8805H65.7279V93.7784C67.6669 86.5836 73.8923 82.5014 80.832 81.4298C87.7717 80.3072 95.3748 82.1952 100.171 86.8387L105.325 104.035L104.509 106.229L104.407 106.484L104.713 106.382L107.927 105.26L108.081 105.209L108.03 105.055L105.07 96.1767C110.101 95.9318 115.03 97.3044 118.745 98.626L124.664 116.179L124.715 116.281H124.818V116.23H126.042V116.077L126.195 116.026L120.531 98.7791C123.899 89.9514 132.778 82.5524 141.759 78.062L142.065 77.909L141.759 77.8069ZM107.672 105.055L104.866 106.025L105.682 104.239V104.137L100.529 86.8387V86.7877L100.477 86.7367C95.6299 81.9911 87.8738 80.0521 80.832 81.1747C73.8412 82.2973 67.5139 86.3795 65.5238 93.6764C61.0844 94.2887 60.1659 95.3603 57.9718 96.4319C57.4615 77.3987 68.0241 63.6723 82.4649 58.0083C96.9056 52.3443 115.224 54.7426 130.226 67.9586C120.531 70.7141 109.101 75.7658 101.651 86.6856L101.6 86.7367V86.7877L107.672 105.055ZM112.979 75.8219C120.572 75.4698 129.267 76.4343 134.207 78.7254C130.737 81.3788 127.828 84.0322 124.92 87.5531C118.041 85.4151 110.453 84.3945 102.207 87.5888L101.906 86.6856C105.029 82.1034 108.866 78.5774 112.979 75.8219ZM102.855 89.5279C109.285 86.2315 119.261 88.1654 123.746 89.3391L119.205 97.0442C115.229 95.5134 108.458 94.2938 104.524 94.5438L102.855 89.5279ZM120.276 98.7281V98.8301L125.889 115.924H124.92L118.949 98.4219V98.3709H118.898C115.133 96.9983 110.101 95.6256 104.968 95.8706L104.626 94.85C108.56 94.6 115.332 95.8706 119.256 97.4014H119.358L119.409 97.2993L124.103 89.3391L124.205 89.186L124.001 89.135C119.623 87.9613 109.453 85.9304 102.769 89.2676L102.304 87.8797C110.535 84.7058 118.056 85.7263 124.92 87.8593L125.022 87.9103L125.073 87.8593C128.032 84.2363 130.941 81.5829 134.564 78.8274L134.768 78.6744L134.564 78.5723C129.619 76.2302 121.082 75.2147 113.438 75.5158C115.071 74.4493 116.745 73.5002 118.434 72.6531C126.379 72.9695 133.661 75.2096 141.35 77.96C132.421 82.5014 123.644 89.9004 120.276 98.7281Z" fill="#007A53"/>
<path d="M107.622 77.0417C97.1616 70.5102 87.3133 70.051 79.6592 73.4188C72.0051 76.7866 66.5962 83.9814 65.0654 92.6051L65.3206 92.6561C69.5048 83.216 77.5671 80.2565 85.0171 80.3075C92.4671 80.4095 99.3047 83.5732 100.836 86.2266L100.938 86.1756L100.968 86.1858L100.887 86.2266L101.04 86.4308L101.142 86.2266L101.101 86.2113C102.938 83.1038 104.872 80.0472 107.622 77.2969L107.775 77.1438L107.622 77.0417ZM100.989 85.8695C99.1006 83.114 92.4161 80.1544 85.0681 80.0523C77.8223 80.0013 69.964 82.7568 65.5757 91.5335C67.3617 83.4712 72.5664 76.8887 79.7613 73.725C82.7719 72.3983 86.0887 71.6328 89.6606 71.6328C95.1205 71.6328 101.091 73.3678 107.316 77.1948C104.612 79.8993 102.724 82.8588 100.989 85.8695Z" fill="#007A53"/>
<path d="M94.1494 135.672L94.4556 137.611C100.375 136.539 105.018 138.376 108.335 144.551C107.876 139.142 104.304 136.692 100.12 135.672H94.1494Z" fill="#007A53"/>
<path d="M123.848 67.4483C117.725 62.9069 107.111 59.0288 95.987 59.1819C84.8631 59.2839 73.2288 63.4171 65.1155 74.8983C61.0333 81.1236 58.2268 86.4304 58.3289 95.1561L58.3799 95.4112L58.5636 95.2735L58.584 95.3092C60.5741 93.9315 62.4621 93.6253 64.6562 93.2171H64.7583V93.115C66.8504 79.2356 74.5045 72.3469 83.4853 70.1017C92.4661 67.8055 102.774 70.2038 110.071 74.7962L110.173 74.8473L110.275 74.7962C115.275 71.4795 119.664 69.3363 123.797 67.7034L124.052 67.6014L123.848 67.4483ZM110.173 74.4901C102.825 69.8976 92.4661 67.4993 83.4343 69.7955C74.4025 72.0407 66.6463 79.0315 64.5032 92.9619C62.411 93.3702 60.5741 93.6253 58.635 94.901C58.584 86.4304 61.3395 81.2257 65.3706 75.0514C73.3819 63.7233 84.9141 59.5901 95.936 59.488C106.856 59.335 117.316 63.111 123.44 67.4993C119.358 69.1322 115.071 71.2243 110.173 74.4901Z" fill="#007A53"/>
<path d="M111.705 131.794C109.612 129.855 107.673 130.008 105.428 125.977L100.887 126.13C103.54 125.262 104.561 124.905 105.887 123.527C108.082 128.732 112.725 131.692 118.797 131.947V121.129C117.522 119.139 115.583 117.149 113.95 115.159C115.072 115.822 116.756 117.353 118.389 117.353L118.338 114.649L116.246 113.679L119.971 113.526L119.818 132.916C114.154 131.182 112.368 132.865 109.153 135.978L111.705 131.794Z" fill="#007A53"/>
<path d="M97.0095 124.905L93.7948 119.649C95.2235 121.537 96.9585 123.221 98.6424 124.344C97.3667 127.967 95.7338 130.008 91.3965 130.824C93.5907 129.089 96.3972 127.865 97.0095 124.905Z" fill="#007A53"/>
<path d="M121.603 111.893C120.991 110.26 120.021 109.035 118.388 110.464C117.061 111.842 115.02 114.546 112.418 112.25C114.306 111.842 116.092 110.566 117.419 109.342C119.256 107.709 121.399 107.556 122.419 110.311L124.818 118.526L123.542 118.833L121.603 111.893Z" fill="#007A53"/>
<path d="M122.573 132.049L121.655 130.416L123.185 127.099L122.369 125.619L123.389 123.986L122.573 121.333L124.767 120.261L124.155 122.252L124.818 124.242L124.155 125.517L124.818 126.997L123.185 130.518L124.665 133.069H120.991L122.573 132.049Z" fill="#007A53"/>
<path d="M58.4307 118.731L59.7063 121.129C63.9926 120.21 70.269 119.292 75.0656 129.548C74.7594 119.496 64.605 117.506 58.4307 118.731Z" fill="#007A53"/>
<path d="M81.0889 120.976C84.4567 120.772 86.5998 119.241 86.3957 116.945L88.6409 117.251L87.5183 118.22C87.4162 120.874 86.0385 121.894 83.7933 121.792C90.9371 127.252 93.5906 136.845 94.1519 143.938C90.733 135.927 89.1512 127.813 81.0889 120.976Z" fill="#007A53"/>
<path d="M69.046 106.229C66.1885 104.545 64.2494 99.5446 64.3515 94.4419L65.5251 94.3398C65.321 99.3405 68.8419 104.392 70.6789 105.107L70.3217 106.842C69.1481 109.546 66.8518 111.587 64.4536 113.118C65.219 110.209 69.1481 110.209 69.046 106.229Z" fill="#007A53"/>
<path d="M75.9335 110.924H71.4941C73.3311 110.413 75.6274 109.954 76.4438 109.087C79.4034 115.261 82.8222 114.853 96.1403 115.822V104.239C94.2523 101.484 92.4664 99.7996 90.5273 97.6055C92.4153 98.8812 94.3544 100.106 96.4975 101.126L96.3955 99.0853L94.7626 97.4524H97.9773V117.404C91.4458 116.69 80.1688 117.965 75.9335 110.924Z" fill="#007A53"/>
<path d="M100.479 114.853L99.5606 112.965L100.683 111.383L100.224 109.903L101.091 108.78L100.326 106.739L101.806 105.974L101.244 96.0236C100.326 95.3603 98.7441 94.9521 97.4174 95.6664C95.1212 96.8401 94.1517 96.8401 92.2637 95.1051C93.6924 95.4113 94.9681 95.5134 96.1928 94.901C98.8972 93.1661 100.428 93.9315 102.316 95.3603L102.979 106.79L101.857 106.994L102.724 108.985L101.5 110.005L102.316 111.128L101.193 113.169C102.214 116.435 101.142 116.945 99.5095 116.996L100.479 114.853Z" fill="#007A53"/>
<path d="M47.2569 99.0342L46.8487 98.9832L46.8997 98.3708C46.8997 98.2178 46.8997 98.1157 46.7976 98.0137C46.7466 97.9626 46.5935 97.9116 46.3894 97.8606L40.2151 97.2993C40.062 97.2993 39.909 97.2993 39.8579 97.3503C39.8069 97.4013 39.7559 97.5544 39.7559 97.7585L39.7048 98.2178L39.3477 98.1667L39.6028 95.003L44.3994 92.0945L40.8274 91.7883C40.5723 91.7883 40.4192 91.7883 40.3682 91.8393C40.2661 91.8904 40.2151 92.0435 40.2151 92.2986L40.1641 92.8089L39.8069 92.7578L40.011 90.2575L40.3682 90.3085L40.3172 90.7678C40.3172 90.9719 40.3172 91.125 40.4192 91.176C40.5213 91.2781 40.6233 91.3291 40.8785 91.3291L47.9713 91.9414L47.9202 92.2476L40.4192 96.789L46.4915 97.2993C46.6446 97.2993 46.7466 97.2993 46.7976 97.1972C46.8997 97.1462 46.9507 97.0441 46.9507 96.8911L47.0017 96.1767L47.41 96.2277L47.2569 99.0342ZM47.1548 78.113L47.563 77.1945C47.7672 76.7863 47.8182 76.4801 47.7161 76.225C47.6141 76.0209 47.3079 75.7658 46.7466 75.5106C46.0322 75.2045 45.624 75.0514 45.4199 75.1024C45.2158 75.1534 45.0117 75.4086 44.8076 75.8678L44.3994 76.7863L47.1548 78.113ZM49.6041 82.4503L50.0124 81.5829L43.5319 78.5723L43.1237 79.4397L42.8175 79.2866L44.6545 75.3065C45.0117 74.4901 45.4709 73.9288 45.9302 73.6226C46.3894 73.3164 46.8997 73.2654 47.41 73.5206C47.9202 73.7757 48.2264 74.1329 48.3285 74.6942C48.4305 75.2555 48.3285 75.9188 48.0223 76.6842L48.1243 76.7353C48.5836 76.0209 49.0939 75.5616 49.6041 75.4086C50.1144 75.2555 50.8288 75.4086 51.6452 75.7658C52.0024 75.9188 52.2065 76.0209 52.3596 75.9699C52.5127 75.9699 52.6148 75.8678 52.7168 75.6637C52.7678 75.6127 52.7678 75.5106 52.8189 75.4086C52.8189 75.3065 52.8699 75.2045 52.8699 75.1024L53.2271 75.1534C53.2271 75.4596 53.1761 75.7147 53.1761 75.9699C53.125 76.225 53.074 76.4291 53.023 76.5822C52.8699 76.8884 52.7168 77.1435 52.5127 77.3476C52.3086 77.5517 52.1045 77.7048 51.8493 77.7558C51.3901 77.9089 50.7778 77.7558 49.9103 77.3986C49.8083 77.3476 49.7062 77.2966 49.6552 77.2966C49.1449 77.0925 48.7367 77.0414 48.4815 77.1435C48.1754 77.2455 47.9202 77.5517 47.7161 78.062L47.6141 78.2661L50.9309 79.7969L51.3391 78.8784L51.6963 79.0315L50.0124 82.6034L49.6041 82.4503ZM53.3291 75.4596L52.9719 75.2555L53.4312 74.439L47.2569 70.8671L46.7976 71.6836L46.4915 71.4795L49.8593 65.6624L51.9004 66.7339L51.6963 67.0911C50.9819 66.887 50.4206 66.887 50.0124 66.9891C49.6041 67.1421 49.2469 67.4483 48.9408 68.0096L48.3285 69.0812L51.135 70.7141L51.186 70.612C51.186 70.561 51.237 70.5099 51.288 70.4589C51.4922 70.1017 51.5432 69.7445 51.4922 69.4384C51.3901 69.1322 51.135 68.826 50.7778 68.5199L50.9819 68.1627L53.8904 69.8466L53.6863 70.2038C53.1761 69.9486 52.7678 69.8976 52.4617 69.9486C52.1555 70.0507 51.8493 70.2548 51.6452 70.663L51.5432 70.8671L54.5538 72.6021L55.1151 71.5815L55.4723 71.7856L53.3291 75.4596ZM44.0932 89.9513C43.5829 89.7983 43.1237 89.5942 42.6644 89.288C42.2562 88.9818 41.899 88.5736 41.5929 88.1144C41.2867 87.6041 41.0826 87.0938 40.9805 86.5835C40.8785 86.0733 40.9295 85.563 41.0316 85.0017C41.1846 84.4404 41.3887 83.9811 41.6949 83.5729C42.0011 83.1647 42.4093 82.8075 42.9196 82.5014C43.4298 82.1952 43.9401 82.0421 44.4504 81.9401C44.9607 81.838 45.4709 81.889 45.9812 81.9911C46.4915 82.1442 46.9507 82.3483 47.41 82.6544C47.8182 82.9606 48.1754 83.3688 48.4815 83.8791C48.7877 84.3894 48.9918 84.8996 49.0428 85.3589C49.1449 85.8692 49.0939 86.3794 48.9408 86.9407C48.7877 87.502 48.5836 87.9613 48.2774 88.3695C47.9713 88.7777 47.563 89.1349 47.0528 89.4411C46.5935 89.7472 46.0833 89.9003 45.522 90.0024C45.1137 90.1044 44.6035 90.0534 44.0932 89.9513ZM44.6545 87.6551C45.624 87.9103 46.2874 88.0633 46.6956 88.1144C47.0528 88.1654 47.3589 88.1654 47.563 88.1654C47.8692 88.1144 48.1243 88.0123 48.2774 87.8082C48.4305 87.6041 48.5836 87.3489 48.6856 86.9407C48.7877 86.5325 48.7877 86.2263 48.7367 85.9712C48.6857 85.7161 48.5326 85.512 48.2774 85.3079C48.1243 85.1548 47.8182 85.0527 47.461 84.8996C47.0528 84.7466 46.4404 84.5935 45.522 84.3383C44.6035 84.1342 43.9401 83.9811 43.5319 83.8791C43.1237 83.8281 42.8175 83.8281 42.5624 83.8281C42.2562 83.8791 42.0011 83.9811 41.848 84.1853C41.6439 84.3894 41.5418 84.6955 41.4398 85.0527C41.3377 85.4609 41.3377 85.7671 41.3887 86.0222C41.4398 86.2774 41.5929 86.4815 41.848 86.6856C42.0011 86.8387 42.2562 86.9407 42.6134 87.0428C43.0216 87.2469 43.685 87.4 44.6545 87.6551ZM62.2589 63.111L62.0038 62.8048L62.6161 62.2435L57.7685 57.0387L57.1562 57.6L56.901 57.3449L59.7586 54.6915L60.0137 54.9466L59.1973 55.712L64.0449 60.9168L64.8613 60.1514C65.3205 59.6922 65.5757 59.2329 65.6267 58.7226C65.6777 58.2124 65.4736 57.6 65.0654 56.8857L65.3205 56.6305L67.0555 58.6206L62.2589 63.111ZM53.7374 67.1932C53.3291 66.836 52.9719 66.4788 52.7678 66.0195C52.5127 65.5603 52.3596 65.05 52.3086 64.4887C52.2576 63.8764 52.2576 63.3661 52.4106 62.8559C52.5637 62.3456 52.7678 61.8863 53.125 61.4781C53.4822 61.0189 53.8904 60.7127 54.3497 60.4576C54.8089 60.2024 55.3192 60.1004 55.9315 59.9983C56.4928 59.9473 57.0541 59.9983 57.5134 60.1514C58.0236 60.3045 58.4829 60.5596 58.8911 60.8658C59.2993 61.223 59.6565 61.6312 59.9117 62.0904C60.1668 62.5497 60.3199 63.06 60.3709 63.6213C60.4219 64.1826 60.4219 64.7439 60.2688 65.2541C60.1158 65.7644 59.8606 66.2237 59.5545 66.6319C59.1973 67.0911 58.7891 67.3973 58.3298 67.6524C57.8706 67.9076 57.3603 68.0606 56.799 68.1117C56.2377 68.1627 55.7274 68.1117 55.2171 67.9586C54.6048 67.7545 54.1456 67.5504 53.7374 67.1932ZM55.2171 65.3562C55.9826 65.9685 56.5439 66.4278 56.85 66.6319C57.1562 66.836 57.4113 66.9891 57.6154 67.0401C57.9216 67.1421 58.1767 67.0911 58.4319 66.9891C58.687 66.887 58.9421 66.6829 59.1973 66.3767C59.4524 66.0706 59.6055 65.7644 59.6565 65.5093C59.7075 65.2541 59.6565 64.999 59.5034 64.6928C59.4014 64.4887 59.1973 64.2846 58.9421 63.9785C58.636 63.6723 58.1257 63.2641 57.4113 62.6517C56.6969 62.0394 56.1356 61.6312 55.8295 61.4271C55.4723 61.223 55.2171 61.0699 55.013 61.0189C54.7069 60.9168 54.4517 60.9168 54.1966 61.0189C53.9415 61.1209 53.6863 61.325 53.4312 61.6312C53.1761 61.9374 53.023 62.2435 52.9719 62.4987C52.9209 62.7538 52.9719 63.0089 53.125 63.3151C53.2271 63.5192 53.3802 63.7233 53.6863 63.9785C53.9415 64.2846 54.4517 64.7439 55.2171 65.3562ZM78.2815 51.936L77.465 49.7929L77.8733 49.6398C78.2815 50.2011 78.7407 50.5583 79.251 50.7624C79.7613 50.9155 80.2715 50.9155 80.7818 50.7114C81.2411 50.5073 81.5983 50.2521 81.8534 49.8439C82.0575 49.4867 82.1085 49.0785 81.9554 48.6703C81.8534 48.4662 81.7513 48.3131 81.6493 48.211C81.4962 48.109 81.3431 48.0069 81.139 47.9559C80.8839 47.9049 80.4246 47.9049 79.7613 48.0069C79.5061 48.0579 79.3531 48.0579 79.2 48.0579C78.4346 48.16 77.8222 48.109 77.363 47.8538C76.9037 47.6497 76.5465 47.2415 76.3424 46.6292C76.0873 45.9148 76.0873 45.3025 76.3424 44.6901C76.5976 44.0778 77.1078 43.6696 77.7712 43.4145C78.0774 43.3124 78.3325 43.2614 78.5876 43.2103C78.8428 43.2103 79.1489 43.2103 79.4041 43.3124L79.6592 42.8532L80.0164 42.7001L80.7818 44.6391L80.4246 44.7922C80.0674 44.2819 79.6592 43.9247 79.2 43.7716C78.7407 43.6186 78.2815 43.6186 77.7712 43.8227C77.363 43.9758 77.0568 44.2309 76.8527 44.5371C76.6486 44.8432 76.6486 45.1494 76.7507 45.4555C76.9548 45.9148 77.5671 46.0679 78.6387 45.9148C78.7917 45.9148 78.8938 45.8638 78.9448 45.8638C79.9654 45.7107 80.6798 45.7617 81.2411 46.0168C81.7513 46.272 82.1595 46.7312 82.4147 47.4966C82.7209 48.262 82.7209 48.9254 82.4147 49.6398C82.1085 50.3031 81.6493 50.7624 80.8839 51.0686C80.5267 51.2216 80.1695 51.2727 79.8633 51.3237C79.5572 51.3747 79.251 51.3237 78.9448 51.2216L78.5876 51.834L78.2815 51.936ZM66.8003 58.4165L67.5657 57.8552L63.4836 52.0381L62.7182 52.5994L62.514 52.2932L65.7288 50.048L65.9329 50.3542L65.1675 50.9155L69.2496 56.7326L70.0151 56.1713L70.2192 56.4774L67.0044 58.7226L66.8003 58.4165ZM67.1065 53.4158L67.7699 49.4867V49.3336L67.7188 49.2316L67.6168 49.1805L67.4637 49.2316L66.8003 49.6908L66.5962 49.3847L68.9945 47.7008L69.1986 48.0069L68.7904 48.2621C68.5863 48.4151 68.4332 48.5682 68.3822 48.7213C68.2801 48.8744 68.2291 49.1295 68.127 49.4867L67.7188 51.834L73.1787 53.9261L73.9442 53.3648L74.1483 53.6709L70.6784 56.0692L70.5253 55.7631L71.2907 55.2018L67.2086 53.6199L67.1065 53.4158ZM85.1702 49.3847L85.0681 49.0275L85.9866 48.7723L84.1496 41.8836L83.7414 41.9857C83.2311 42.1388 82.8739 42.3939 82.6698 42.7511C82.4657 43.1593 82.3637 43.7716 82.3637 44.5881L82.0575 44.6901L81.4962 42.1898L88.589 40.3018L89.3544 42.7511L89.0482 42.8532C88.64 42.1388 88.2318 41.6795 87.8746 41.4244C87.5174 41.1693 87.0582 41.1182 86.5989 41.2713L86.1907 41.3734L88.0277 48.2621L88.9462 48.0069L89.0482 48.3641L85.1702 49.3847ZM97.978 47.2925V46.8843H98.9475L98.8455 39.7405H98.4373C97.927 39.7405 97.5188 39.8936 97.2126 40.2508C96.9064 40.5569 96.6513 41.1693 96.4472 41.9857H96.141L96.1921 39.4343L103.54 39.3323L103.693 41.8836H103.387C103.132 41.1182 102.877 40.5569 102.57 40.1997C102.264 39.8936 101.856 39.7405 101.346 39.7405H100.887L100.989 46.8843H101.958V47.2925H97.978ZM89.5075 48.211L89.4565 47.8028L89.9157 47.7518C90.0688 47.7518 90.1198 47.7008 90.2219 47.5987C90.2729 47.4966 90.3749 47.3436 90.426 47.0884L92.263 39.7915L92.7222 39.7405L96.6003 46.9864L97.3147 46.8843L97.3657 47.2925L93.5897 47.7518L93.5386 47.3436L94.5082 47.2415L93.5897 45.5066L91.1914 45.8127L90.8342 47.1905V47.4456C90.8342 47.4966 90.8852 47.5477 90.9362 47.5987C90.9873 47.6497 91.0893 47.6497 91.1914 47.6497L91.9058 47.5477L91.9568 47.9559L89.5075 48.211ZM91.2424 45.3535L93.3856 45.0984L92.0078 42.496L91.2424 45.3535ZM103.591 47.3946L103.642 46.9864L104.612 47.0884L105.479 39.9956L104.612 39.9446L104.663 39.5874L111.194 40.4038L110.99 42.4449L110.582 42.3939C110.378 41.6795 110.174 41.2203 109.918 40.9651C109.663 40.71 109.306 40.5569 108.745 40.4549L107.418 40.3018L107.01 43.5165H107.265C107.673 43.5675 108.03 43.5165 108.286 43.3124C108.541 43.1083 108.694 42.7511 108.847 42.2919L109.255 42.3429L108.847 45.6597L108.439 45.6086C108.439 45.0473 108.388 44.6391 108.183 44.384C107.979 44.1288 107.673 43.9758 107.163 43.9247L106.959 43.8737L106.551 47.3436L107.877 47.4966C108.541 47.5987 109.051 47.4456 109.459 47.1905C109.867 46.8843 110.225 46.374 110.531 45.6086L110.888 45.6597L110.48 48.2621L103.591 47.3946ZM116.552 47.6497L118.491 42.598L117.624 42.2919L117.777 41.9347L121.451 43.3634L121.297 43.7206L120.328 43.3634L118.389 48.3641C118.134 48.9764 118.083 49.4867 118.236 49.8439C118.389 50.2011 118.695 50.5073 119.205 50.7114C119.46 50.8134 119.767 50.8644 120.022 50.8644C120.277 50.8644 120.532 50.8134 120.736 50.7624C120.991 50.6603 121.195 50.5073 121.349 50.3031C121.502 50.099 121.706 49.6908 121.961 49.0785L122.012 48.9764L123.441 45.2514C123.543 44.9963 123.543 44.8432 123.543 44.7412C123.492 44.6391 123.39 44.5371 123.134 44.486L122.777 44.3329L122.93 43.9758L125.278 44.8942L125.125 45.2514L124.767 45.0984C124.512 44.9963 124.308 44.9453 124.206 44.9963C124.104 45.0473 124.002 45.2004 123.9 45.4045L122.42 49.2316C122.216 49.7929 122.012 50.1501 121.859 50.4052C121.706 50.6093 121.553 50.8134 121.349 50.9155C120.991 51.1196 120.634 51.2727 120.175 51.2727C119.716 51.2727 119.205 51.1706 118.644 50.9665C117.675 50.6093 117.062 50.1501 116.705 49.5888C116.348 48.9764 116.297 48.3131 116.552 47.6497ZM122.267 52.2422L122.471 51.885L122.981 52.1912C123.134 52.2932 123.237 52.2932 123.339 52.2422C123.441 52.1912 123.543 52.0891 123.594 51.936L126.604 46.5271C126.706 46.374 126.706 46.272 126.706 46.1699C126.655 46.0679 126.553 46.0168 126.4 45.9148L125.992 45.6597L126.145 45.3535L128.952 46.8843L129.666 52.4463L131.401 49.3336C131.503 49.1295 131.554 48.9764 131.554 48.8744C131.503 48.7723 131.401 48.6703 131.197 48.5682L130.738 48.3131L130.891 48.0069L133.085 49.2316L132.932 49.5377L132.523 49.3336C132.37 49.2316 132.217 49.1805 132.115 49.2316C132.013 49.2826 131.911 49.3847 131.809 49.5888L128.288 55.7631L127.982 55.61L126.91 46.9353L123.951 52.2422C123.9 52.3442 123.849 52.4973 123.9 52.5994C123.951 52.7014 124.002 52.8035 124.155 52.8545L124.767 53.2117L124.563 53.5689L122.267 52.2422ZM129.105 56.1203L129.309 55.8141L130.125 56.3754L134.207 50.5073L133.391 49.997L133.646 49.6908L136.861 51.936L136.657 52.2422L135.891 51.6809L131.809 57.549L132.575 58.1103L132.37 58.4165L129.105 56.1203ZM134.922 60.9168L137.422 53.0076L136.912 52.5994L137.167 52.3442L140.024 54.7425L139.769 54.9977L139.055 54.4364L137.473 59.4881L141.198 57.2939C141.3 57.2429 141.402 57.1918 141.453 57.1408C141.504 57.0898 141.555 57.0387 141.606 56.9877C141.657 56.8857 141.708 56.8346 141.657 56.7326C141.606 56.6305 141.504 56.5285 141.3 56.3754L140.943 56.0692L141.198 55.8141L143.137 57.447L142.882 57.7021L142.627 57.498C142.474 57.3449 142.321 57.2939 142.168 57.3449C142.015 57.3449 141.759 57.447 141.453 57.6511L135.177 61.325L134.922 60.9168ZM137.83 63.3661L138.136 63.111L138.749 63.8254L144.107 59.1309L143.545 58.5185L143.801 58.2634L148.087 63.213L146.556 64.5908L146.301 64.2846C146.607 63.6213 146.811 63.162 146.811 62.7538C146.811 62.3966 146.658 62.0394 146.301 61.6312L145.382 60.6107L142.933 62.7538L142.984 62.8559C142.984 62.9069 143.035 62.9579 143.086 63.0089C143.392 63.3151 143.647 63.5192 144.005 63.5192C144.311 63.5192 144.719 63.4172 145.127 63.111L145.382 63.4172L142.831 65.6113L142.576 65.3052C142.984 64.8969 143.188 64.5398 143.188 64.2336C143.239 63.9274 143.086 63.5702 142.78 63.213L142.627 63.06L139.973 65.3562L140.841 66.3767C141.249 66.887 141.708 67.1421 142.219 67.1932C142.729 67.2442 143.341 67.0911 144.107 66.7339L144.362 67.0401L142.321 68.724L137.83 63.3661ZM146.607 75.8168L148.699 74.8473L148.903 75.2555C148.393 75.7147 148.036 76.225 147.883 76.6842C147.73 77.1945 147.781 77.7048 148.036 78.2151C148.24 78.6743 148.546 79.0315 148.954 79.1846C149.362 79.3887 149.72 79.3887 150.128 79.1846C150.332 79.0825 150.485 78.9805 150.587 78.8274C150.689 78.6743 150.74 78.5212 150.791 78.2661C150.842 78.011 150.791 77.5517 150.638 76.8884C150.587 76.6332 150.536 76.4801 150.536 76.3271C150.383 75.5616 150.434 74.9493 150.587 74.439C150.791 73.9798 151.148 73.6226 151.71 73.3164C152.373 73.0103 153.036 72.9593 153.649 73.1634C154.261 73.3675 154.72 73.8267 155.027 74.4901C155.18 74.7452 155.231 75.0514 155.282 75.3065C155.333 75.5616 155.282 75.8678 155.231 76.1229L155.741 76.3781L155.894 76.7353L154.006 77.6538L153.853 77.2966C154.363 76.8884 154.669 76.4801 154.771 76.0209C154.924 75.5616 154.873 75.1024 154.618 74.5921C154.414 74.1839 154.159 73.8777 153.853 73.7247C153.547 73.5716 153.241 73.5206 152.934 73.6736C152.475 73.8777 152.373 74.4901 152.628 75.5616C152.679 75.7147 152.679 75.8168 152.679 75.8678C152.883 76.8373 152.883 77.6027 152.679 78.164C152.475 78.6743 152.016 79.1336 151.302 79.4397C150.587 79.7969 149.873 79.8479 149.158 79.5928C148.444 79.3377 147.934 78.8784 147.628 78.2151C147.474 77.8579 147.372 77.5517 147.321 77.2455C147.27 76.9394 147.27 76.6332 147.372 76.3271L146.709 76.0209L146.607 75.8168ZM147.832 68.8771L148.393 69.6935C148.648 70.0507 148.903 70.2548 149.107 70.3058C149.362 70.3569 149.72 70.2038 150.23 69.8466C150.893 69.4384 151.199 69.1322 151.302 68.9281C151.353 68.724 151.25 68.4178 150.944 68.0096L150.383 67.1932L147.832 68.8771ZM142.831 68.673L143.341 69.4384L149.311 65.5603L148.801 64.7949L149.107 64.5908L151.506 68.2647C152.016 69.0302 152.271 69.6935 152.271 70.2548C152.271 70.8161 152.067 71.2754 151.608 71.5815C151.148 71.8877 150.638 71.9387 150.128 71.7346C149.618 71.5305 149.107 71.0712 148.597 70.4079L148.495 70.4589C148.852 71.2243 148.954 71.8877 148.801 72.398C148.648 72.9082 148.189 73.4185 147.423 73.9288C147.117 74.1329 146.913 74.286 146.862 74.439C146.811 74.5921 146.811 74.6942 146.913 74.8473C146.964 74.8983 147.015 74.9493 147.066 75.0514C147.117 75.1024 147.219 75.2045 147.27 75.2555L147.066 75.5106C146.811 75.3575 146.607 75.2045 146.454 75.0514C146.25 74.8983 146.148 74.7452 146.046 74.5921C145.893 74.337 145.74 74.0308 145.689 73.7757C145.637 73.5206 145.637 73.2654 145.689 73.0103C145.791 72.551 146.25 72.0918 147.015 71.5305C147.117 71.4795 147.168 71.4284 147.27 71.3774C147.73 71.0712 147.985 70.7651 148.036 70.4589C148.087 70.1528 147.985 69.7445 147.679 69.2853L147.577 69.1322L144.515 71.1223L145.076 71.9897L144.77 72.1938L142.627 68.8771L142.831 68.673ZM149.056 80.9705L149.414 80.8685L149.771 81.787L156.506 79.4397L156.149 78.5212L156.506 78.4192L157.782 82.1952L157.476 82.2972L157.17 81.3788L150.434 83.675L150.74 84.5935L150.383 84.7466L149.056 80.9705ZM150.689 86.2774L151.046 86.1753L151.302 87.0938L158.19 85.3589L158.088 84.9507C157.986 84.4404 157.731 84.0832 157.323 83.8791C156.915 83.675 156.302 83.5729 155.486 83.5219L155.384 83.2157L157.884 82.7055L159.67 89.8493L157.221 90.5637L157.119 90.2575C157.833 89.8493 158.343 89.4921 158.547 89.0839C158.803 88.7267 158.854 88.2674 158.752 87.8082L158.649 87.3489L151.761 89.0839L152.016 90.0024L151.659 90.1044L150.689 86.2774ZM152.169 93.4212L152.577 93.3702L152.679 94.3397L156.047 94.0335L159.619 91.4311L159.568 90.6657L159.925 90.6147L160.282 94.5438L159.925 94.5948L159.823 93.6253L156.812 95.8195L159.466 96.9421C159.568 96.9931 159.67 97.0441 159.772 97.0441C159.823 97.0441 159.874 97.0952 159.925 97.0441C160.027 97.0441 160.078 96.9931 160.078 96.9421C160.129 96.8911 160.129 96.789 160.129 96.6359L160.078 95.9726L160.435 95.9215L160.64 98.4729L160.282 98.5239L160.231 98.2178C160.231 98.0137 160.129 97.8606 160.027 97.7075C159.925 97.6054 159.67 97.4524 159.313 97.2993L156.404 96.0746L152.934 96.3808L153.036 97.3503L152.628 97.4013L152.169 93.4212Z" fill="#007A53"/>
<path d="M73.6387 154.603L74.6082 152.511L75.0164 152.715C74.9144 153.429 74.9654 153.99 75.1695 154.45C75.3736 154.909 75.7308 155.266 76.2921 155.521C76.7513 155.725 77.2106 155.776 77.6188 155.674C78.027 155.572 78.3332 155.317 78.5373 154.96C78.6393 154.756 78.6904 154.552 78.6904 154.399C78.6904 154.246 78.5883 154.041 78.4863 153.837C78.3332 153.633 78.027 153.276 77.5167 152.868C77.3126 152.715 77.1596 152.613 77.0575 152.511C76.4452 152 76.088 151.541 75.9349 151.031C75.7818 150.521 75.8328 150.01 76.088 149.449C76.3941 148.786 76.8534 148.326 77.4657 148.122C78.078 147.918 78.7414 147.969 79.4048 148.275C79.6599 148.428 79.915 148.582 80.1191 148.735C80.3232 148.939 80.4763 149.143 80.6294 149.398L81.1907 149.245L81.5479 149.398L80.7315 151.286L80.3232 151.184C80.4253 150.572 80.4253 150.01 80.2212 149.602C80.0171 149.143 79.7109 148.837 79.2006 148.582C78.7924 148.377 78.4352 148.326 78.078 148.429C77.7209 148.531 77.4657 148.684 77.3637 148.99C77.1596 149.449 77.4657 150.01 78.3332 150.674C78.4352 150.776 78.5373 150.827 78.5883 150.878C79.4048 151.49 79.864 152.102 80.0681 152.613C80.2722 153.174 80.1702 153.786 79.864 154.501C79.5068 155.215 78.9965 155.725 78.3332 155.981C77.6698 156.236 76.9554 156.185 76.2411 155.878C75.8839 155.725 75.5777 155.521 75.3736 155.317C75.1185 155.113 74.9654 154.858 74.8123 154.603L74.0979 154.807L73.6387 154.603ZM84.5075 158.634L84.5585 158.226L85.0178 158.328C85.1708 158.379 85.2729 158.328 85.3749 158.277C85.477 158.226 85.5791 158.073 85.7321 157.869L89.7123 151.49L90.1715 151.592L91.6003 159.655L92.2636 159.808L92.1616 160.216L88.4366 159.501L88.4876 159.093L89.4061 159.297L89.0999 157.358L86.7527 156.899L85.9873 158.124L85.9362 158.226C85.9362 158.277 85.8852 158.328 85.8852 158.379C85.8852 158.43 85.8852 158.481 85.9362 158.532C85.9873 158.583 86.0893 158.634 86.1914 158.634L86.9058 158.787L86.8547 159.195L84.5075 158.634ZM87.0588 156.44L89.151 156.848L88.6407 153.939L87.0588 156.44ZM95.3253 155.827L96.2948 155.93C96.754 155.981 97.0602 155.878 97.2133 155.725C97.3664 155.572 97.5194 155.164 97.5705 154.552C97.6215 153.786 97.6215 153.327 97.5194 153.174C97.4174 153.021 97.1112 152.919 96.601 152.868L95.6314 152.766L95.3253 155.827ZM92.0595 159.603L92.978 159.706L93.5903 152.613L92.6719 152.511L92.7229 152.153L97.1112 152.562C98.0297 152.664 98.6931 152.868 99.1523 153.174C99.6116 153.531 99.8157 153.939 99.7646 154.501C99.7136 155.062 99.4585 155.47 98.9482 155.776C98.489 156.083 97.8256 156.185 96.9581 156.185V156.287C97.7746 156.491 98.3869 156.797 98.6931 157.256C98.9992 157.715 99.1523 158.379 99.0503 159.297C98.9992 159.654 99.0503 159.91 99.1013 160.063C99.1523 160.216 99.3054 160.267 99.4585 160.267H99.7136C99.8157 160.267 99.9177 160.216 100.02 160.216L100.122 160.573C99.8667 160.675 99.6116 160.726 99.3564 160.777C99.1013 160.828 98.8972 160.828 98.7441 160.828C98.4379 160.777 98.1318 160.726 97.8766 160.624C97.6215 160.522 97.4174 160.369 97.2643 160.165C97.0092 159.808 96.8561 159.144 96.9071 158.226V157.92C96.9071 157.358 96.8561 157.001 96.601 156.746C96.3968 156.491 95.9886 156.389 95.4783 156.338H95.2742L94.9681 159.961L95.9886 160.063L95.9376 160.471L92.0085 160.114L92.0595 159.603ZM101.357 160.573V160.165L102.326 160.114L102.071 152.97H101.663C101.153 152.97 100.744 153.174 100.438 153.48C100.132 153.786 99.9279 154.399 99.7238 155.215H99.4177V152.664L106.766 152.409L106.97 154.96H106.664C106.408 154.195 106.153 153.633 105.847 153.327C105.541 153.021 105.133 152.868 104.622 152.868H104.163L104.418 159.961L105.388 159.91V160.318L101.357 160.573ZM84.1503 150.521L83.0277 153.786L84.0993 154.144C84.5075 154.297 84.8136 154.297 85.0178 154.144C85.2219 153.99 85.426 153.531 85.7321 152.766C85.9873 152.051 86.0383 151.592 85.9873 151.388C85.8852 151.184 85.6301 150.98 85.1708 150.827L84.1503 150.521ZM79.0476 156.338L79.9661 156.644L82.2623 149.908L81.3438 149.602L81.4458 149.245L85.3239 150.572C86.3955 150.929 87.1099 151.337 87.5181 151.847C87.9263 152.358 88.0284 152.919 87.7732 153.531C87.5181 154.195 87.1099 154.603 86.4465 154.756C85.7832 154.909 84.9667 154.807 83.8952 154.45L82.8746 154.093L81.803 157.256L82.8746 157.613L82.7215 157.971L78.8945 156.644L79.0476 156.338ZM113.21 158.92L113.108 158.563L113.67 158.409C113.823 158.358 113.925 158.307 113.976 158.205C114.027 158.103 114.027 158.001 113.976 157.797L112.241 151.827C112.19 151.674 112.139 151.572 112.037 151.521C111.935 151.47 111.833 151.521 111.628 151.572L111.169 151.725L111.067 151.368L114.129 150.5L118.568 153.919L117.599 150.449C117.548 150.194 117.446 150.092 117.344 150.041C117.241 149.99 117.088 149.99 116.884 150.041L116.374 150.194L116.272 149.837L118.67 149.122L118.772 149.48L118.313 149.633C118.109 149.684 118.007 149.786 117.956 149.837C117.905 149.939 117.905 150.092 117.956 150.296L119.895 157.134L119.589 157.236L112.7 151.827L114.384 157.695C114.435 157.848 114.486 157.899 114.588 157.95C114.69 158.001 114.792 158.001 114.945 157.95L115.609 157.746L115.711 158.103L113.21 158.92ZM105.837 160.42L105.735 160.012L106.194 159.91C106.347 159.91 106.398 159.808 106.5 159.706C106.551 159.603 106.602 159.45 106.653 159.195L107.98 151.745L108.439 151.643L112.777 158.583L113.44 158.43L113.491 158.838L109.766 159.552L109.715 159.144L110.633 158.94L109.613 157.256L107.266 157.715L107.011 159.144V159.246C107.011 159.297 107.011 159.348 107.062 159.399C107.062 159.45 107.113 159.501 107.164 159.552C107.215 159.552 107.317 159.603 107.419 159.552L108.133 159.399L108.184 159.808L105.837 160.42ZM107.419 157.46L109.511 157.052L107.98 154.552L107.419 157.46ZM121.247 156.899L120.278 154.807L120.686 154.603C121.145 155.113 121.655 155.47 122.115 155.623C122.625 155.776 123.135 155.725 123.645 155.47C124.105 155.266 124.462 154.96 124.615 154.552C124.819 154.144 124.819 153.786 124.615 153.378C124.513 153.174 124.411 153.021 124.258 152.919C124.105 152.817 123.952 152.766 123.696 152.715C123.441 152.664 122.982 152.715 122.319 152.868C122.064 152.919 121.91 152.97 121.757 152.97C120.992 153.123 120.38 153.072 119.869 152.919C119.41 152.715 119.053 152.358 118.747 151.796C118.441 151.133 118.39 150.47 118.594 149.857C118.798 149.245 119.257 148.786 119.92 148.48C120.176 148.326 120.482 148.275 120.737 148.224C120.992 148.173 121.298 148.224 121.553 148.275L121.808 147.765L122.166 147.612L123.084 149.5L122.727 149.653C122.319 149.143 121.91 148.837 121.451 148.735C120.992 148.582 120.533 148.633 120.022 148.888C119.614 149.092 119.308 149.347 119.155 149.653C119.002 149.959 119.002 150.265 119.104 150.572C119.308 151.031 119.92 151.133 120.992 150.878C121.145 150.827 121.247 150.827 121.298 150.827C122.268 150.623 123.033 150.623 123.594 150.827C124.105 151.031 124.564 151.49 124.87 152.205C125.227 152.919 125.278 153.633 125.023 154.348C124.768 155.062 124.309 155.572 123.645 155.878C123.288 156.032 122.982 156.134 122.676 156.185C122.37 156.236 122.064 156.236 121.757 156.134L121.451 156.797L121.247 156.899Z" fill="#007A53"/>
</g>
<defs>
<radialGradient id="paint0_radial_15016_304042" cx="0" cy="0" r="1" gradientUnits="userSpaceOnUse" gradientTransform="translate(108.258 113.935) scale(17.6404)">
<stop stop-color="#B2D9CF"/>
<stop offset="0.13" stop-color="#ABD5CB"/>
<stop offset="0.31" stop-color="#98CBBF"/>
<stop offset="0.53" stop-color="#78BCAB"/>
<stop offset="0.77" stop-color="#4CA690"/>
<stop offset="1" stop-color="#1C8E72"/>
</radialGradient>
<radialGradient id="paint1_radial_15016_304042" cx="0" cy="0" r="1" gradientUnits="userSpaceOnUse" gradientTransform="translate(83.8379 98.0094) scale(18.8514 18.8514)">
<stop stop-color="#C7E3DC"/>
<stop offset="0.11" stop-color="#BDDED6"/>
<stop offset="0.31" stop-color="#A3D1C6"/>
<stop offset="0.55" stop-color="#79BCAC"/>
<stop offset="0.84" stop-color="#3F9F88"/>
<stop offset="1" stop-color="#1C8E72"/>
</radialGradient>
<clipPath id="clip0_15016_304042">
<rect width="200" height="200" fill="white" transform="translate(0 0.507812)"/>
</clipPath>
</defs>
</svg>
