<svg width="201" height="201" viewBox="0 0 201 201" fill="none" xmlns="http://www.w3.org/2000/svg">
<g clip-path="url(#clip0_15016_304263)">
<path d="M198.399 165.445C198.399 165.445 187.4 160.603 186.984 160.434C186.655 160.186 182.053 157.236 181.075 156.578C180.747 156.001 180.338 155.344 179.929 154.606C180.009 153.869 180.009 153.291 180.089 152.305C181.564 151.319 184.771 149.347 184.771 149.347C184.771 149.347 188.876 143.928 189.453 143.022C190.19 142.613 192.98 141.05 192.98 141.05L193.718 137.434C193.718 137.434 192.812 136.2 192.812 136.12C193.06 135.542 193.878 133.41 193.878 133.41L191.577 129.883L188.707 129.802C188.707 129.802 186.246 131.197 185.917 131.366C185.509 131.526 179.183 133.915 179.183 133.915C179.183 133.915 176.963 137.939 176.474 138.845C176.225 139.006 176.065 139.094 175.736 139.422C175.159 139.262 174.83 139.094 174.59 139.014C174.261 138.853 173.852 138.525 173.195 138.108C173.115 137.859 173.115 137.779 172.946 137.37L175.079 135.807L176.394 133.258L175.576 130.628L179.191 131.366C179.111 130.789 177.716 121.345 177.716 121.345C177.716 121.345 172.874 116.583 171.479 115.268V107.628C171.728 106.891 173.451 101.303 173.451 101.303L171.07 98.1045H110.312V85.5504H114.417V76.4355C118.69 74.4634 122.794 72.5795 126.402 70.8559C136.094 66.3425 142.659 63.3042 142.659 63.3042V51.6399C142.579 51.6399 136.054 54.7424 126.329 59.2317C126.578 58.2617 126.81 57.46 126.979 56.8908C127.227 56.5621 127.388 56.2335 127.716 55.8246C128.622 55.3356 132.398 53.3635 132.398 53.3635L132.558 48.1927C132.558 48.1927 130.666 46.389 130.177 45.9721C129.849 45.3949 128.783 43.3426 128.286 42.5249C128.286 41.2904 128.037 35.2137 128.037 35.2137C128.037 35.2137 124.919 29.1371 124.341 27.9025C124.261 27.2452 124.59 23.1406 124.59 23.1406H29.4239V63.705L30.8989 66.8235C30.8989 66.8235 34.8431 70.2707 35.5807 70.928C35.9895 71.6656 37.2241 74.1267 37.9616 75.6899C37.4726 76.8363 36.238 79.6341 36.238 79.6341L37.3043 81.9349C37.3043 81.9349 38.8675 83.1695 39.5249 83.6585C39.9337 84.6445 40.9999 87.274 40.9999 87.274C40.9999 87.274 41.489 87.9314 41.7375 88.2601C41.6573 88.8373 41.489 90.8094 41.489 90.8094C41.489 90.8094 42.7235 92.0439 42.8839 92.2844C43.1324 92.7735 44.4471 94.9941 44.856 95.6514C44.9361 95.9721 45.0163 96.5333 45.0965 97.1666C45.0724 97.1826 45.0484 97.1906 45.0243 97.2067C43.7096 97.864 42.8037 98.2729 42.3948 98.4412C40.9999 95.7316 37.4646 88.7491 37.4646 88.7491L34.9153 89.8955L12.9897 99.9163L11.7551 100.494L4.03506 104.109L0.587891 105.672C0.587891 105.672 21.7679 109.288 23.3312 109.616C23.1709 109.865 19.8039 114.627 19.8039 114.627L22.9223 114.875C23.1709 114.467 23.3312 114.138 23.4114 113.97C23.4114 113.889 23.4915 113.561 23.4915 113.152H23.1628L23.4915 112.663V107.652C23.0025 106.747 22.5055 105.849 22.257 105.352C22.6658 105.191 23.0747 104.943 23.4915 104.774V104.694H23.74C25.0548 104.037 26.5299 103.299 28.9108 102.145C28.502 102.722 27.3476 104.366 26.121 106.001C26.2012 106.081 26.2012 106.081 26.2813 106.161C26.3615 106.241 26.4417 106.322 26.5299 106.322C26.7784 106.322 27.0189 107.139 27.1071 107.717L29.8969 103.861C29.8969 103.861 31.0432 105.336 31.2918 105.664C32.358 105.175 35.8933 103.532 37.2 102.874C36.5427 101.64 35.0676 98.6898 34.4102 97.4552C32.847 98.1927 21.4393 103.861 19.7157 104.678C19.9642 105.167 21.3591 107.636 21.3591 107.636L6.57635 105.087L36.8152 91.0579C36.8152 91.0579 40.9999 99.267 41.7455 100.75C42.0742 100.59 46.3471 98.6176 52.8326 95.5793V96.7257L41.1763 101.985L36.238 92.2844L10.0476 104.438L19.3229 106.001L18.2566 104.029L34.8431 95.9L38.5388 103.211L32.4622 106.081H32.5424C33.6086 105.921 34.8431 106.49 35.9094 107.316L35.9895 107.396C36.5667 107.885 37.1359 108.382 37.7131 108.959L40.5831 107.644L43.7817 115.196L26.8665 122.668L26.0569 120.535L21.295 128.664L47.4053 116.431L43.1324 106.41L52.6562 101.977V103.123C47.8141 105.344 44.7758 106.739 44.5273 106.899C45.1847 108.462 48.8002 116.92 48.8002 116.92L18.6655 130.957L24.4134 121.185L21.5435 122.499L14.2323 134.981L39.5249 123.237L39.581 123.213C39.597 123.622 39.6852 124.167 39.6852 124.471C39.5249 124.96 39.0278 126.035 39.0278 126.035L38.9477 129.482C38.9477 129.482 40.1822 131.534 40.8396 132.6C40.1822 134.404 38.619 138.925 38.2903 139.823C37.6329 140.481 35.741 142.453 35.741 142.453C35.741 142.453 35.0836 144.176 34.8351 144.754C34.6748 144.914 33.3601 146.477 33.3601 146.477L34.755 150.093L36.4785 152.225C36.4785 152.225 58.2358 149.596 59.7189 149.355C61.0336 149.932 68.9942 153.211 68.9942 153.211L86.3182 157.067L96.9082 156.41L99.9465 154.686C98.6318 153.211 96.7479 151.071 96.6597 150.991C98.6318 149.267 100.436 147.624 101.261 146.886H101.838C101.999 147.295 102.328 148.281 102.328 148.281L103.394 149.844L107.747 150.75C107.747 150.75 108.893 150.261 109.142 150.173H109.222C109.142 150.333 109.142 150.502 109.062 150.662L109.879 152.466L110.945 153.203C110.945 153.203 111.434 153.452 111.603 153.532C112.092 154.35 113.166 156.241 113.166 156.241L118.096 158.703C118.096 158.703 121.135 159.28 122.53 159.608C123.676 161.172 130.001 169.541 130.001 169.541C130.001 169.541 134.354 170.527 135.581 170.776C135.99 171.185 137.384 172.419 137.384 172.419L143.87 172.09C143.87 172.09 147.317 168.475 148.383 167.329H148.544C148.704 167.489 150.347 169.301 150.347 169.301C150.347 169.301 153.217 168.066 154.043 167.737C154.292 167.818 154.292 167.818 154.532 167.898C155.189 169.044 156.993 172.002 156.993 172.002L160.36 172.411L166.766 168.387L166.357 165.268C166.028 165.02 165.779 164.779 165.699 164.691C166.188 162.887 166.766 160.835 167.094 159.432C167.503 159.184 167.583 159.184 168.16 158.855C168.489 159.184 168.649 159.264 168.898 159.432C169.227 160.17 170.373 162.551 170.373 162.551C170.373 162.551 181.789 167.721 184.33 168.876C184.579 170.68 185.316 177.333 185.316 177.333C185.316 177.333 195.906 173.229 196.155 173.06C196.403 172.98 198.864 172.323 198.864 172.323L200.588 168.379L198.399 165.445ZM140.759 54.5179V62.1578C140.759 62.1578 129.344 67.4969 114.32 74.4714V73.325L139.693 61.5004V56.1613L114.24 67.9859H111.691C128.037 60.4262 140.759 54.5179 140.759 54.5179ZM33.5284 99.6758C34.0174 100.662 34.1056 100.91 34.6748 101.896C33.3601 102.554 32.871 102.714 31.7166 103.291C31.3078 102.802 30.7306 101.977 30.2416 101.319C31.7247 100.494 32.7107 100.085 33.5284 99.6758ZM168.024 130.388C168.024 130.388 165.643 131.951 165.475 132.031C165.315 132.111 162.926 133.506 162.028 134.003C160.881 134.083 156.857 134.164 156.119 134.252C155.711 134.172 154.885 133.923 153.987 133.763C153.41 133.025 153.001 132.528 152.424 131.71C152.504 131.053 152.504 130.893 152.584 130.235C153.899 129.089 157.346 126.051 157.755 125.634C158.003 125.473 158.492 125.225 159.15 124.896C159.807 125.145 160.216 125.225 160.464 125.305C160.873 125.465 167.936 129.081 167.936 129.081C167.936 129.081 171.303 129.819 173.932 130.396L172.289 130.724L168.024 130.388ZM32.7107 115.605C32.6305 115.116 32.4622 114.459 32.2217 113.801L30.6584 113.641C30.8188 113.97 30.907 114.547 30.907 115.036V115.445L32.7107 115.605ZM27.4518 121.185C29.1754 120.447 40.8316 115.276 42.3948 114.619C41.9058 113.384 40.5911 110.346 40.0139 109.039C39.605 109.2 39.0278 109.448 38.4506 109.777C39.108 110.514 39.6852 111.34 40.1742 111.997C40.7514 112.903 41.1603 113.473 41.1603 113.473L27.0349 120.038C27.2033 120.535 27.3716 121.024 27.4518 121.185ZM30.8188 106.739L29.7526 105.424L27.7003 108.294C28.4378 108.703 29.5922 109.689 29.5922 109.689C29.5922 109.689 29.4319 111.412 29.5121 112.478L31.893 112.639C31.6445 111.653 31.404 110.667 31.2356 109.769C31.2356 109.689 31.2356 109.608 31.1555 109.44C30.907 108.045 30.9951 106.891 31.6445 106.241L30.8188 106.739Z" fill="#492F92"/>
<path d="M129.351 49.5074L129.271 51.4795L125.495 53.4516L124.02 55.6723L122.633 60.9713C122.601 60.9873 122.577 60.9953 122.545 61.0114C119.675 62.3261 116.549 63.8012 113.35 65.2842C111.458 66.1901 109.494 67.088 107.522 67.9939H87.9772V85.5664H91.8332V101.48C83.5359 89.1659 69.2422 67.9859 69.2422 67.9859H48.6393V85.8871H52.7439V93.527C52.4954 93.6873 52.1667 93.7755 51.9262 93.9358C50.4832 94.5772 49.1925 95.2265 47.974 95.7877L47.7335 94.5852L46.1702 91.9557L45.2643 90.3925L44.607 89.7351L44.9356 87.1858L43.6209 85.5424L41.9775 81.5982L39.6847 79.8024L39.5244 79.5539L41.3281 75.6097L38.1295 68.9559L33.4477 64.8513L32.5419 62.9594V26.2671H121.222L121.062 28.5679L124.918 36.0394L125.167 43.3506L127.628 47.864L129.351 49.5074ZM197.092 168.643L196.603 169.709L195.128 170.118L187.905 172.988L187.167 166.831L172.633 160.266L171.318 157.556L168.36 155.175L164.336 157.396L162.115 165.853L163.35 166.92L159.654 169.301L158.837 169.22L156.536 165.276L153.746 164.539L151.036 165.685L149.641 164.21L146.852 164.539L142.418 169.22L138.474 169.469L136.999 168.154L131.748 167.008L124.277 156.987L119.106 156.001L115.41 154.109L113.767 151.319L112.372 150.742L112.292 150.662L113.029 148.361L109.005 147.046L107.442 147.704L105.141 147.215L104.981 147.054C104.9 146.726 103.914 143.856 103.914 143.856L99.8899 144.104L92.1699 150.918L94.5508 153.628L86.4219 154.117L69.7553 150.421L59.9829 146.317L37.6485 149.026L37.3198 148.618L36.7426 147.143L37.4 146.325L38.3058 144.104L40.9353 141.475L44.2222 132.199L42.0897 128.584L42.1699 126.612L42.8273 124.888L42.6669 122.259L42.8273 121.682L47.1001 119.709L47.9178 121.682V139.831H75.9201V136.713C78.0525 137.531 79.4474 137.45 81.8284 137.947C84.7865 138.276 85.9329 138.108 87.0873 138.108C88.2417 138.108 89.2197 136.464 90.6146 137.041C91.6809 137.531 92.8353 139.014 93.2441 139.591C93.3243 139.751 93.4044 139.839 93.4044 139.839H115.162V120.383H114.095C114.753 119.565 116.148 117.425 116.476 112.254C116.885 105.768 116.068 102.73 115.899 101.087H169.435L169.924 101.744L168.28 107.003V116.447L174.686 122.772L175.343 127.373L169.018 125.978L161.707 122.283L158.917 121.377L156.047 123.02L149.722 128.6L149.313 132.544L152.271 136.4L155.886 137.306L162.949 137.058L167.134 134.677L168.857 133.53L172.553 133.779L169.186 136.24L170.501 140.096L173.21 141.819L176.169 142.805L178.798 140.914L181.347 136.4L187.256 134.18L189.556 132.945H189.965L190.454 133.683L189.308 136.392L190.374 138.036L190.214 139.022L187.344 140.665L182.582 147.07L177.082 150.518L176.674 155.279L178.726 158.807L185.54 163.16L196.379 167.922L197.092 168.643ZM29.5837 112.815C29.5837 112.735 29.5837 112.655 29.5035 112.567L31.8845 112.727C31.9647 113.056 32.133 113.464 32.2132 113.793L30.6499 113.633C30.4896 113.304 30.2411 113.056 29.9124 113.224C29.7521 113.304 29.6719 113.144 29.5837 112.815ZM23.3467 112.567V113.056H23.0181L23.3467 112.567ZM19.651 104.518C19.8996 105.007 21.2945 107.476 21.2945 107.476L6.51172 104.927L36.7266 90.8895C36.7266 90.8895 40.9113 99.0986 41.6568 100.582C41.9855 100.421 46.2584 98.4492 52.7439 95.4109V96.5573L41.1678 101.977L36.2375 92.2844L10.0471 104.438L19.4105 105.913L18.3443 103.941L34.9308 95.8117L38.6265 103.123L32.5499 105.993H32.4697C32.2212 106.073 31.9807 106.153 31.8123 106.322L30.9946 106.73L29.9284 105.416L27.8762 108.286C27.5475 108.125 27.3871 108.037 27.299 108.125C27.2188 108.286 27.1386 107.965 27.0504 107.548L29.8402 103.692C29.8402 103.692 30.9866 105.167 31.2351 105.496C32.3014 105.007 35.8367 103.363 37.1434 102.706C36.4861 101.472 34.9228 98.5214 34.3536 97.2868C32.7904 98.1125 21.2945 103.7 19.651 104.518ZM44.5348 106.899C45.1922 108.462 48.8077 116.92 48.7195 116.92L18.5047 130.957L24.2526 121.185L26.8821 119.95C27.1306 120.439 27.2909 120.936 27.3711 121.096C29.0145 120.359 40.7509 115.268 42.3142 114.531C41.737 113.296 40.5104 110.258 39.9332 108.951C39.5244 109.111 39.0274 109.36 38.37 109.689C38.1215 109.44 37.881 109.111 37.6324 108.871L40.5024 107.556L43.7011 115.108L26.7859 122.579L25.9682 120.447L21.2063 128.576L47.3968 116.423L43.1239 106.402L52.6477 101.969V103.115C47.9018 105.344 44.8635 106.738 44.5348 106.899ZM139.693 61.4122V56.0731L114.24 67.8977H111.69C128.028 60.346 140.759 54.4297 140.759 54.4297V62.1497C140.759 62.1497 129.343 67.4888 114.32 74.4633V73.317L139.693 61.4122ZM108.492 83.8268V122.996H112.596V137.45H94.615C94.615 137.45 75.9762 109.777 69.4907 100.173V123.325H73.3547V137.531H50.3629V123.325H54.4675V84.1555H50.3629V69.7094H68.4245C68.4245 69.7094 87.0633 97.383 93.5487 106.987V83.8268H89.6927V69.6213H112.685V83.8268H108.492ZM106.111 125.538V81.3657H110.215V72.1706H92.1538V81.3657H96.0099V115.116L67.0296 72.1706H52.824V81.6944H56.9286V125.786H52.824V134.981H70.8856V125.786H67.0296V92.0359L95.9297 135.061H110.135V125.538H106.111Z" fill="white"/>
<path d="M47.9822 95.6514C49.1286 95.0742 50.5315 94.5051 52.0066 93.7595C52.2551 93.6793 52.4956 93.511 52.8243 93.3507V85.7108H48.7198V67.9859H69.3307C69.3307 67.9859 83.6164 89.166 91.9136 101.488V85.5504H88.0576V67.9859H107.602C109.574 67.08 111.546 66.1822 113.43 65.2763C113.35 65.1961 113.27 65.1159 113.27 65.1159C112.693 64.1299 111.546 60.6025 110.232 60.0253C107.771 59.1195 107.602 54.4457 106.536 54.6061C105.47 54.6862 105.47 55.3436 105.301 58.5503C105.301 63.0637 106.207 61.7489 106.207 63.6409C106.207 65.5328 105.718 65.8615 105.718 65.8615C105.558 61.0996 102.68 58.7186 102.6 57.3237C104.163 56.3377 103.746 53.628 103.009 53.7964C102.191 53.9567 99.4814 56.3457 99.7219 59.873C99.8822 63.4004 99.3932 66.3585 98.1586 66.5269C98.5675 65.3805 96.7637 63.24 95.7777 61.1878C94.7916 59.2157 90.7672 58.4781 90.9356 56.5862C91.0959 54.8626 90.5267 53.3875 89.6208 53.2994C89.7812 53.139 89.8694 52.9707 90.1099 52.8905C90.8474 52.4817 90.9276 49.8522 91.0959 47.2227C91.2643 44.5932 89.1238 43.3667 89.1238 43.3667C89.1238 43.3667 89.4525 45.3388 88.6348 45.1705C87.8171 45.0101 89.2922 47.1426 88.6348 47.1426C87.9774 47.1426 87.6488 49.275 87.8171 50.8382C87.9774 52.4817 87.4884 53.7082 88.3061 54.2052H88.3863C88.3061 54.6943 88.3061 55.4398 88.226 56.6664C88.0656 59.9532 89.3723 61.9253 89.7892 63.8894C90.1179 65.4526 89.709 66.9277 89.212 67.4167H87.4082V77.6781L84.5383 78.9928L83.2235 78.5038C81.8286 75.2169 80.1852 68.7315 78.8705 66.8475C77.5558 64.9556 77.5558 61.2679 76.7381 61.3481C75.0145 61.6768 72.385 69.2285 71.3989 69.7255C70.4129 68.3306 69.9239 67.5049 69.9239 67.5049H68.8577L68.9378 67.2564C70.0842 64.7071 67.7914 60.1937 67.7914 60.1937C67.7914 60.1937 66.9737 59.0473 65.8193 60.354C66.5569 62.3261 62.7009 66.591 62.7009 66.591C62.7009 66.591 61.795 67.6572 60.3199 66.1822C61.0574 61.5004 55.4778 56.49 54.4918 57.9731C55.6382 62.6548 53.9146 64.7873 53.0969 66.102C52.6079 66.8395 52.191 67.1682 51.9505 67.3366H48.1746V86.793H49.9784L50.0586 87.6107C50.0586 87.6107 49.0725 89.9917 46.443 91.9638L48.0063 94.5932L47.9822 95.6514ZM25.0706 86.6167C25.8883 86.288 26.0566 83.8269 26.5457 82.4319C27.0347 80.9569 23.9964 78.4076 23.9964 78.4076C23.339 78.8966 21.8639 82.432 22.3529 84.7327C22.858 86.9453 24.2529 86.9453 25.0706 86.6167ZM11.5224 88.5086C10.2077 88.6689 9.06129 94.9941 9.06129 95.9801C9.06129 96.9662 10.5364 98.8501 11.7709 98.6898C13.0857 98.5294 12.2599 95.1624 13.246 93.3507C14.232 91.6271 11.5224 88.5086 11.5224 88.5086ZM34.7627 88.8373C34.7627 88.8373 33.7767 86.2078 32.959 85.6386C32.1413 84.9813 29.2633 81.7826 28.7743 80.9569C28.2853 80.1392 26.1448 89.3343 25.247 89.3343C24.2609 89.3343 25.5756 94.016 24.7579 94.1764C23.9402 94.3367 23.9402 93.519 23.4432 93.1903C22.9542 92.8616 23.4432 88.8373 23.4432 88.3483C23.4432 87.8592 22.1285 84.4922 21.1424 84.4922C20.1564 84.4922 19.1703 90.8174 18.4328 90.9777C17.6151 91.1381 18.5931 92.9498 18.1041 93.4388C17.6151 93.9279 17.118 92.4528 15.4746 92.9498C13.8312 93.4388 12.4363 97.7919 12.9253 99.764V100.013L34.8509 89.8313L34.7627 88.8373ZM11.3621 100.494C10.7047 100.654 8.73261 94.9941 6.84869 95.4831C4.87659 95.9721 6.68836 97.7839 5.53395 98.3531C4.38757 99.0104 4.71625 100.814 4.21922 100.902C3.7302 101.063 5.03692 103.203 4.21922 103.612C4.13905 103.692 4.05889 103.861 3.9707 103.941L11.6908 100.325C11.6026 100.494 11.4422 100.494 11.3621 100.494ZM59.887 61.0835C60.8731 62.8873 60.8731 63.9535 61.8591 63.7932C62.8452 63.6329 62.6768 63.4645 63.1738 61.9894C63.6629 60.5144 63.1738 58.1334 63.1738 56.1613C63.1738 54.1892 60.7127 52.1369 60.7127 52.1369C60.7127 52.1369 59.398 53.9407 60.0554 55.3356C60.7047 56.8187 58.901 59.2798 59.887 61.0835ZM69.8998 62.1498C70.1484 62.2299 70.477 62.3983 70.3889 62.6388C70.2285 63.2962 70.7175 64.7712 71.3749 64.4425C72.0323 64.1139 72.85 62.3101 73.347 58.6144C73.844 54.9187 70.966 52.7061 70.966 52.7061C70.966 52.7061 71.1264 56.1533 70.6374 55.4959C70.1483 54.8386 70.966 57.7165 70.966 57.7165C70.966 57.7165 70.6374 57.7967 69.98 57.7967C69.3226 57.7967 70.0682 61.2519 69.8998 62.1498ZM81.7244 67.4889C81.2354 68.3066 82.0531 69.461 83.0392 69.461C84.0252 69.461 83.0392 67.9859 83.6965 67.1602C84.3539 66.3425 84.0252 65.3564 84.1855 63.1358C84.3459 60.835 81.4759 58.1254 81.4759 58.1254L80.9869 63.2962H80.4979C80.0089 63.2962 80.9869 65.7573 80.9869 65.7573C80.9869 65.7573 82.1413 66.7513 81.7244 67.4889ZM85.0914 61.5806C85.5804 61.5806 86.5665 59.9372 85.7488 59.1195C84.9311 58.3018 86.8952 56.0811 85.7488 55.5921C84.6024 55.1031 85.4201 53.7884 85.0914 52.9627C84.7627 52.1369 84.1054 48.1206 84.1054 48.1206C84.1054 48.1206 81.9729 52.3053 81.9729 55.2634C81.9729 58.1254 84.6024 61.5806 85.0914 61.5806ZM92.2343 55.5841C91.7453 56.4018 93.052 57.7165 94.038 57.5562C95.0241 57.3959 94.6954 55.2554 95.0241 54.6862C95.3528 54.0289 95.3528 50.1729 95.1844 48.8581C95.0241 47.5434 93.7094 46.0683 93.7094 46.0683C92.7233 46.397 92.2343 50.5817 92.0659 51.8964C91.9056 53.123 92.6512 54.7664 92.2343 55.5841ZM97.9822 61.2519C98.9683 60.9232 99.1286 57.5562 99.297 55.7525C99.4653 53.9487 98.3109 51.0707 98.3109 51.0707C96.6675 51.0707 96.9962 55.2554 96.5072 55.4238C96.0182 55.5841 97.1645 58.6224 96.5072 59.7768C95.93 60.9232 97.0844 61.4924 97.9822 61.2519ZM126.313 70.8559C122.698 72.4993 118.673 74.3832 114.328 76.4355V85.5504H110.224V121.353H114.328V139.254H93.7174C93.7174 139.254 79.4317 118.074 71.1344 105.752V121.682H74.9904V139.254H48.6396V121.682H52.7441V105.095C52.4956 105.255 52.1669 105.344 51.9264 105.504C50.6117 106.161 46.916 107.885 46.916 107.885C48.3109 111.172 51.0206 117.906 51.0206 117.906L46.916 119.798L47.7337 121.77V140.08H75.736V136.961C77.8684 137.779 79.2633 137.699 81.6443 138.196C84.6826 138.605 85.7488 138.356 86.9032 138.356C88.0576 138.356 89.0356 136.633 90.4305 137.29C91.4968 137.779 92.6512 139.262 93.06 139.839C93.1402 140 93.2203 140.088 93.2203 140.088H114.978V120.631H113.911C114.649 119.814 115.964 117.761 116.292 112.503C116.781 106.017 115.883 102.979 115.715 101.335V100.678L116.453 98.9543C116.533 98.7058 116.533 98.4653 116.613 98.2168C116.862 96.3248 115.378 96.4932 115.875 95.6675C116.533 94.6013 118.176 95.6675 118.994 92.549C119.651 87.9474 118.665 89.1018 118.417 87.4584C118.168 85.815 121.046 84.3399 121.704 82.1995C122.361 79.9788 122.032 77.9266 121.784 76.3713C123.098 74.6478 123.836 73.7419 125.56 72.844C127.051 72.0904 126.562 71.1846 126.313 70.8559ZM38.4584 109.777C38.2099 109.528 37.9694 109.2 37.7209 108.959C37.1437 108.382 36.5745 107.813 35.9973 107.396L35.9171 107.316C34.8509 106.498 33.6164 105.921 32.5501 106.081H32.47H32.3898C32.1413 106.161 31.9008 106.241 31.7324 106.41C31.0751 106.987 30.9949 108.214 31.2434 109.608C31.2434 109.689 31.2434 109.857 31.3236 109.937C31.4839 110.843 31.7324 111.829 31.981 112.807C32.0611 113.216 32.2295 113.545 32.3096 113.873C32.47 114.531 32.6383 115.108 32.7987 115.677C32.959 116.495 33.0472 117.072 32.7987 117.24C32.47 117.489 32.2215 117.569 32.0611 117.649C31.5721 117.81 31.4038 117.569 31.0751 117.729C30.6662 117.89 30.9949 116.495 31.0751 115.509V115.1C31.0751 114.611 30.9949 114.114 30.8266 113.705C30.6662 113.376 30.4177 113.128 30.089 113.296C29.9287 113.376 29.8405 113.216 29.7603 112.887V112.559C29.6802 111.492 29.8405 109.769 29.8405 109.769C29.8405 109.769 28.6941 108.783 27.9486 108.294C27.7001 108.133 27.4596 108.045 27.3714 108.133C27.2912 108.294 27.211 107.973 27.1229 107.556C26.9625 106.979 26.7942 106.161 26.5457 106.161C26.4655 106.161 26.3853 106.081 26.2971 106.001C26.217 105.921 26.217 105.921 26.1368 105.841C25.8081 105.352 25.3993 104.526 24.9022 104.526H23.6677H23.4192V113.064C23.4192 113.473 23.4192 113.801 23.339 113.881C23.2588 114.042 23.0905 114.37 22.85 114.787C22.2728 115.693 21.3749 116.92 21.3749 116.92C21.3749 116.92 20.8859 122.259 20.8859 122.748L21.5433 122.499L24.4132 121.185L27.0427 119.95L41.1681 113.384C41.1681 113.384 40.8394 112.807 40.182 111.909C39.685 111.332 39.1158 110.514 38.4584 109.777Z" fill="#F78426"/>
</g>
<defs>
<clipPath id="clip0_15016_304263">
<rect width="200" height="200" fill="white" transform="translate(0.5625 0.140625)"/>
</clipPath>
</defs>
</svg>
