<svg width="201" height="201" viewBox="0 0 201 201" fill="none" xmlns="http://www.w3.org/2000/svg">
<path d="M147.478 27.8436H144.233H113.023H109.778V31.0886V49.6126V50.5048L110.236 51.2734L130.431 85.2001V113.472L80.9411 29.441L80.002 27.8436H78.1473H56.619H53.374V31.0886V170.154V173.399H56.619H87.8253H91.0703V170.154V151.626V150.734L90.6157 149.969L70.4208 116.042V87.77L119.907 171.801L120.85 173.399H122.704H144.233H147.478V170.154V31.0886V27.8436ZM144.233 31.0886V170.154H122.704L67.176 75.8662V116.934L87.8253 151.626V170.154H56.619V31.0886H78.1473L133.676 125.376V84.3078L113.023 49.6126V31.0886H144.233Z" fill="white"/>
<path d="M113.021 31.0854V49.6094L133.674 84.3046V125.373L78.1421 31.0854H56.6172V170.151H87.8235V151.623L67.1741 116.931V75.8631L122.703 170.151H144.231V31.0854H113.021Z" fill="#59118E"/>
<path d="M113.021 31.0854V49.6094L133.674 84.3046V125.373L78.1421 31.0854H56.6172V170.151H87.8235V151.623L67.1741 116.931V75.8631L122.703 170.151H144.231V31.0854H113.021Z" fill="#59118E"/>
</svg>
