<svg width="201" height="201" viewBox="0 0 201 201" fill="none" xmlns="http://www.w3.org/2000/svg">
<g clip-path="url(#clip0_15016_302868)">
<path d="M200.191 116.036C200.191 116.036 200.88 112.87 198.671 109.861C196.288 106.611 192.155 106.877 192.155 106.877C191.092 105.624 188.41 104.211 185.149 105.597C181.888 106.984 181.826 110.611 181.826 110.611L176.803 110.074C176.736 108.68 176.548 107.162 176.467 105.51C176.332 102.759 176.732 100.948 177.076 99.9357C181.337 99.5399 183.47 97.6205 183.47 97.6205C182.168 96.3969 181.281 95.3268 180.693 94.5235C184.056 94.3642 187.084 92.8679 187.084 92.8679C181.804 89.8627 180.909 86.927 180.909 86.927C184.148 85.7533 186.089 84.2687 187.097 83.311C183.287 83.009 179.011 79.9354 175.171 70.7342C168.803 55.469 154.765 55.3458 149.679 55.8452C152.17 57.7226 152.827 59.2462 152.827 59.2462C142.008 58.567 133.838 63.8532 133.838 63.8532C121.408 51.4817 103.781 50.9167 97.2091 51.1865C98.6868 52.8478 99.5849 54.3021 99.5849 54.3021C72.7046 50.9441 54.9677 65.8683 50.8455 69.7677C54.4664 69.7198 57.3621 70.0189 57.3621 70.0189C46.3197 77.9887 28.1313 77.8313 28.1313 77.8313C29.0891 80.168 31.5264 83.7439 31.5264 83.7439L28.2359 95.8223L25.1398 84.2062H12.1301L8.9774 95.3815H11.5799L6.97982 111.988H4.35189L1.29688 123.16L16.825 123.176L20.2563 110.936L23.4335 123.201H50.7957C60.0926 123.201 63.6285 120.258 63.6285 120.258C104.822 129.872 87.6268 149.589 87.6268 149.589C114.692 145.329 121.859 135.353 121.859 135.353C121.58 139.878 119.528 143.091 119.528 143.091C141.736 137.312 142.804 120.11 142.804 120.11C147.86 122.185 144.619 127.539 144.619 127.539C146.005 128.028 147.536 128.135 147.536 128.135C146.73 129.399 145.12 130.83 145.12 130.83C157.054 133.184 160.507 125.043 160.507 125.043C164.812 124.034 166.347 120.511 166.347 120.511C170.397 120.134 172.751 118.363 172.751 118.363L176.744 120.967C176.744 120.967 175.406 122.881 176.096 125.658C176.786 128.433 179.526 129.521 179.526 129.521C179.939 130.886 182.176 134.613 186.914 134.613C191.653 134.613 193.554 130.731 193.554 130.731C193.554 130.731 197.674 130.008 200.063 125.643C202.762 120.717 200.191 116.036 200.191 116.036Z" fill="#FFC82E"/>
<path d="M196.145 116.983L196.109 116.925L196.128 116.861C196.246 116.417 196.304 115.967 196.304 115.525C196.304 112.877 194.321 110.722 191.882 110.722C191.404 110.722 190.932 110.808 190.47 110.976L190.335 111.026L190.272 110.897C189.718 109.747 188.634 109.034 187.444 109.034C185.815 109.034 184.471 110.364 184.275 112.076L191.313 113.048C191.313 113.048 192.088 113.851 191.481 115.652L189.539 116.577L176.97 113.143C176.862 113.662 176.718 114.172 176.538 114.672L193.734 121.197L193.775 122.938L191.421 123.464L175.964 115.962C175.764 116.334 175.54 116.696 175.282 117.044L187.943 123.968C187.337 125.638 185.643 125.637 185.643 125.637L179.952 121.516C179.94 121.63 179.929 121.744 179.929 121.86C179.929 123.534 181.288 124.889 182.961 124.889C183.012 124.889 183.057 124.877 183.108 124.874C183.627 126.978 185.521 128.537 187.785 128.537C189.04 128.537 190.179 128.058 191.035 127.274L191.047 127.242L191.152 127.24C194.502 127.14 197.125 124.218 197.125 120.586C197.125 119.31 196.785 118.062 196.145 116.983Z" fill="white"/>
<path d="M101.954 53.3503C104.503 56.1864 105.426 58.6533 105.426 58.6533C85.0355 50.7091 65.0034 61.5726 55.8301 67.8765C61.6399 66.8242 64.374 67.7272 64.374 67.7272C51.1118 79.4383 31.8896 79.5767 31.8896 79.5767C31.8896 79.5767 32.9084 81.1685 35.3899 83.5241L58.712 83.5484C61.9589 83.5515 64.5171 83.8087 66.5303 84.3333C68.8562 84.9361 70.7803 86.1777 72.2471 88.0228C73.3096 89.3715 74.0812 90.975 74.5558 92.8037L74.5574 92.8068C74.763 92.233 75.003 91.674 75.2813 91.1392C76.2086 89.3566 77.4931 87.8273 79.1014 86.592C80.6572 85.4029 82.4789 84.4764 84.5351 83.8431C86.5366 83.2255 88.7883 82.9135 91.212 82.9135C96.8333 82.9182 100.273 84.7094 102.15 86.1706L102.83 83.5929L140.022 83.6312L136.48 96.2078L133.923 96.2047L129.201 113.226C127.2 120.071 120.077 124.647 111.461 124.647C111.25 124.647 111.039 124.641 110.82 124.638C104.511 124.466 101.321 121.936 99.7496 119.847C98.7176 118.46 98.0608 116.822 97.8028 115.062C97.6777 115.354 97.5448 115.639 97.3963 115.921C96.4346 117.756 95.1368 119.341 93.534 120.634C91.9703 121.9 90.1174 122.889 88.0455 123.582C86.4115 124.128 84.7228 124.443 82.9324 124.555C89.7421 128.653 93.8624 134.001 93.8624 139.849C93.8624 142.194 93.2056 144.462 91.9703 146.596C113.721 142.343 121.273 133.977 123.9 128.622C126.09 134.955 123.416 139.653 123.416 139.653C136.973 133.907 140.381 124.91 140.882 118.441C143.18 118.303 145.104 118.934 146.488 120.318C148.77 122.589 147.66 125.411 147.262 126.221L147.113 126.528L147.434 126.641C148.028 126.851 148.739 126.96 149.498 126.96C149.943 126.96 150.428 126.908 150.928 126.821C150.78 127.519 150.42 128.278 149.693 129.052C149.693 129.052 157.355 129.044 159.184 123.314C161.014 123.351 163.61 122.597 165.15 118.586C166.229 118.712 170.568 118.962 173.195 115.102C175.181 112.181 175.024 110.452 174.813 108.059C174.61 105.772 174.352 102.934 175.65 97.7363C175.97 97.8035 176.51 97.8934 177.174 97.8934C178.199 97.8934 179.137 97.6847 179.966 97.2766L180.349 97.0889L180.052 96.7895C179.035 95.7653 177.769 94.0992 177.229 91.8139C178.801 92.7239 180.497 92.9624 182.209 92.5152L182.913 92.3354L182.295 91.9624C182.264 91.9429 179.246 90.0767 177.769 84.9549C179.637 85.3677 181.326 85.1269 182.71 84.2434L183.226 83.9104L182.647 83.7016C182.593 83.6821 177.339 81.686 173.062 70.6591C168.895 59.8784 160.435 59.0426 157.949 59.0426C157.707 59.0426 157.472 59.0512 157.253 59.0629L156.432 59.1059L157.081 59.6063C157.808 60.1724 158.825 61.0981 159.794 62.4631C153.571 60.2763 147.043 60.3874 141.046 62.8603L140.045 63.2715L141.108 63.4436C141.14 63.4475 143.696 63.8697 146.089 65.2613C142.954 65.6327 139.365 66.8281 136.449 69.8561C124.964 55.6401 109.39 53.4879 101.954 53.3503ZM187.776 106.489C185.024 106.489 182.788 108.899 182.765 111.863L177.253 111.102C177.229 111.506 177.182 111.909 177.128 112.31L191.482 115.648C192.092 113.847 191.318 113.045 191.318 113.045L184.281 112.074C184.477 110.36 185.821 109.03 187.448 109.03C188.636 109.03 189.723 109.743 190.278 110.895L190.34 111.023L190.473 110.972C190.935 110.804 191.412 110.719 191.889 110.719C194.328 110.719 196.306 112.874 196.306 115.522C196.306 115.964 196.251 116.414 196.134 116.858L196.11 116.922L196.149 116.98C196.791 118.059 197.127 119.306 197.127 120.582C197.127 124.215 194.508 127.136 191.154 127.237L191.052 127.238L191.013 127.336C190.317 129.107 188.722 130.248 186.947 130.248C184.829 130.248 182.999 128.598 182.608 126.336L182.585 126.211L182.46 126.206C180.716 126.152 179.356 124.628 179.356 122.736C179.356 122.23 179.465 121.742 179.653 121.292L185.649 125.633C185.649 125.633 187.338 125.635 187.948 123.965L175.29 117.042C175.118 117.277 174.923 117.501 174.727 117.723L178.746 120.636C177.917 121.464 177.417 122.637 177.417 123.896C177.417 125.958 178.699 127.723 180.544 128.208C181.451 131.108 183.945 133.055 186.783 133.055C189.293 133.055 191.545 131.546 192.663 129.122C196.65 128.724 199.762 125.047 199.762 120.707C199.762 119.153 199.363 117.629 198.604 116.297C198.683 115.871 198.722 115.439 198.722 115.011C198.722 111.416 196.017 108.491 192.694 108.491C192.381 108.491 192.061 108.52 191.724 108.583C190.77 107.251 189.332 106.489 187.776 106.489ZM176.69 114.242C176.572 114.604 176.439 114.959 176.283 115.309L193.781 122.935C194.781 121.7 194.437 120.453 194.437 120.453L176.69 114.242Z" fill="#005643"/>
<path d="M172.006 88.4745C171.968 88.0328 171.915 87.6067 171.849 87.2031C172.823 87.4699 173.818 87.6683 174.798 87.809C173.749 86.3216 172.889 84.7638 172.148 83.2421C170.915 80.7109 169.29 79.546 167.784 79.0574C167.79 79.0378 167.797 79.0173 167.804 78.9978C168.085 78.4251 168.245 77.7908 168.245 77.1213C168.245 76.2887 167.998 75.5098 167.575 74.8374C167.301 74.339 166.942 73.9657 166.547 73.6911C165.68 72.9933 164.55 72.5681 163.308 72.5681C160.582 72.5681 158.37 74.6077 158.37 77.1213C158.37 78.7153 159.259 80.1148 160.601 80.9279C160.67 85.6033 156.929 88.6847 152.583 88.6847C149.028 88.6847 145.992 87.4904 144.523 85.6248C144.523 85.6248 145.195 86.9978 145.379 89.1156C144.226 88.9866 142.88 89.1733 141.338 89.8994C141.338 89.8994 143.819 91.0966 144.325 94.137C144.604 95.812 144.654 97.0386 145.121 97.8693C143.663 98.7439 142.235 100.161 141.758 102.433C141.758 102.433 147.333 97.9631 153.707 101.624C153.707 101.624 147.908 101.14 146.038 107.054C146.038 107.054 149.803 104.06 154.247 105.55C154.247 105.55 148.649 107.483 148.649 113.331C148.649 117.845 153.636 119.347 152.464 122.286C153.983 121.448 155.654 119.802 156.227 116.551C156.227 116.551 156.722 119.028 159.201 119.028C160.515 119.028 161.252 118.165 161.607 117.132L157.042 112.552L154.039 112.595C153.999 111.712 154.214 111.052 154.531 110.556C154.875 109.854 155.619 108.956 157.238 108.723C159.994 108.326 161.481 111.958 161.728 112.571C161.973 113.181 162.77 115.906 166.533 115.215C170.302 114.52 169.311 108.822 166.089 111.298C166.089 111.298 159.448 106.295 166.188 103.173C166.188 103.173 166.555 105.426 170.714 106.915C170.392 104.809 171.039 101.457 171.737 96.6818C171.886 95.6703 171.986 94.7145 172.051 93.8086C173.991 95.1533 175.892 94.7077 175.892 94.7077C173.697 92.5626 172.581 90.2659 172.006 88.4745Z" fill="#FFC82E"/>
<path d="M95.4728 64.137C86.2003 64.137 72.4518 66.7256 58.5195 78.7275C63.7093 75.834 76.5267 69.5934 90.5473 69.5934C94.4252 69.5934 98.1623 70.0703 101.673 71.0116C103.698 68.7568 105.949 67.0516 108.397 65.9328C106.708 65.4051 101.97 64.137 95.4728 64.137ZM157.144 66.4246C150.913 66.5552 145.745 70.9326 145.338 76.669C145.182 78.9238 145.792 81.0714 146.949 82.9119C147.254 78.2709 150.076 76.2999 150.076 76.2999C150.076 76.2999 148.489 80.4726 152.265 84.1151C152.703 84.5381 153.297 84.8172 153.954 84.8649C155.432 84.9681 156.722 83.8548 156.823 82.374C156.878 81.6328 156.628 80.9495 156.174 80.4303C155.048 79.0973 154.454 77.5469 154.572 75.9192C154.853 71.856 159.536 68.8405 165.22 68.8905C163.328 67.5293 160.983 66.6396 158.41 66.4567C157.98 66.4269 157.566 66.416 157.144 66.4246ZM163.93 90.8615C162.601 90.9632 161.483 91.9866 161.311 93.3595C161.123 94.9255 162.233 96.3516 163.797 96.5478C164.696 96.6596 165.548 96.3289 166.143 95.7402C166.064 95.6174 165.978 95.5025 165.9 95.3649C165.666 95.4063 165.423 95.4251 165.165 95.3938C163.774 95.2164 162.781 93.9498 162.953 92.555C163.039 91.8529 163.406 91.2603 163.93 90.8615Z" fill="white"/>
<path d="M162.468 84.3916C162.882 85.0483 163.281 85.9013 163.625 86.9833C161.436 87.074 159.677 88.7479 159.56 91.0113C159.466 92.7705 160.388 94.4146 161.819 95.3466C161.428 94.7876 161.225 94.091 161.311 93.36C161.483 91.9863 162.601 90.9629 163.93 90.862C163.805 90.9574 163.688 91.0668 163.578 91.1841C163.57 91.1951 163.563 91.2068 163.555 91.2177C163.453 91.3327 163.359 91.4562 163.281 91.5899C163.281 91.5938 163.281 91.5946 163.273 91.5961C163.203 91.7259 163.14 91.8651 163.086 92.009C163.078 92.0402 163.07 92.0707 163.054 92.102C163.007 92.2474 162.968 92.396 162.953 92.5555C162.781 93.951 163.774 95.2184 165.165 95.3958C165.423 95.4271 165.666 95.4068 165.9 95.3654C165.978 95.503 166.064 95.6179 166.143 95.7406C166.119 95.768 166.088 95.7922 166.057 95.8188C166.088 95.8032 166.127 95.7868 166.166 95.768C167.136 97.2253 168.285 97.6999 169.207 97.782C169.207 97.782 167.394 93.9409 168.183 89.2553C168.183 89.2553 167.503 89.3914 166.768 89.8738C165.611 84.6206 163 84.383 162.468 84.3916ZM91.2352 85.4822C89.0461 85.4791 87.0681 85.7519 85.2933 86.2992C83.5186 86.8434 81.9784 87.6221 80.6649 88.6291C79.3514 89.6377 78.3116 90.8714 77.5563 92.3248C76.8003 93.779 76.3609 95.4146 76.2374 97.2292C76.1685 98.2566 76.2389 99.1643 76.4539 99.9524C76.6697 100.742 76.9856 101.449 77.396 102.085C77.8112 102.718 78.2881 103.277 78.851 103.758C79.3983 104.238 79.9847 104.681 80.6023 105.094L83.9798 107.354C84.9493 108.007 85.6921 108.563 86.2159 109.027C86.7397 109.488 86.9743 110.115 86.9195 110.903C86.857 111.794 86.4583 112.547 85.7311 113.161C84.9962 113.777 83.8782 114.084 82.3615 114.083C81.5874 114.081 80.9072 114.003 80.3287 113.848C79.7501 113.695 79.1872 113.498 78.6321 113.257L79.9143 108.563L72.6441 108.556L69.8177 118.736C71.7418 120.056 75.6056 122.039 81.4623 122.045C83.5811 122.046 85.4419 121.749 87.2323 121.152C89.0227 120.554 90.5863 119.716 91.9233 118.638C93.2602 117.562 94.3235 116.261 95.1209 114.738C95.9106 113.217 96.3797 111.529 96.5048 109.679C96.5752 108.653 96.4813 107.711 96.2155 106.854C95.9497 106 95.5822 105.23 95.1131 104.543C94.6362 103.856 94.0733 103.252 93.4166 102.719C92.7598 102.188 92.0953 101.698 91.4151 101.253L89.0539 99.7077C88.147 99.1244 87.3417 98.5771 86.6381 98.0635C85.9344 97.5482 85.606 96.9314 85.653 96.2113C85.7077 95.3904 86.0908 94.6711 86.8101 94.0566C87.5294 93.4413 88.5536 93.1324 89.9061 93.1324C90.8834 93.1332 91.8138 93.3068 92.6973 93.65L91.7278 96.9376L98.9676 96.9439L101.258 88.7894C99.9683 87.5408 96.9739 85.4869 91.2352 85.4822ZM13.536 86.0702L11.4368 93.5171L14.0246 93.5187L8.39152 113.853L5.76831 113.849L3.73438 121.297L15.4087 121.31L19.6861 106.058C19.8174 105.578 19.9394 105.041 20.0465 104.442C20.1536 103.844 20.2389 103.356 20.2983 102.977C20.3991 103.459 20.4937 103.962 20.5743 104.493C20.6548 105.025 20.7642 105.528 20.8995 106.01L24.8728 121.32L32.1297 121.328L39.8363 93.5445L42.4476 93.5476L44.5499 86.1022L32.8138 86.0897L28.9102 100.419C28.7718 100.966 28.6428 101.488 28.5255 101.984C28.4074 102.483 28.2964 102.985 28.1924 103.501C28.1275 102.985 28.0447 102.496 27.9391 102.035C27.8383 101.573 27.7046 101.051 27.5404 100.467L23.7032 86.0811L13.536 86.0702ZM47.4089 86.1038L45.3073 93.5507L47.8959 93.5539L42.2628 113.888L39.2942 113.885L37.1927 121.33L49.734 121.344C50.981 121.346 52.2539 121.312 53.5564 121.245C54.8582 121.178 56.1325 121.006 57.3788 120.735C58.6274 120.463 59.8306 120.07 60.9955 119.558C62.1581 119.046 63.2597 118.347 64.2956 117.456C65.4051 116.498 66.4324 115.283 67.3745 113.811C68.3166 112.339 69.1485 110.739 69.874 109.011C70.5972 107.28 71.1836 105.479 71.6331 103.596C72.0819 101.712 72.3649 99.8961 72.4853 98.1502C72.5964 96.5076 72.4595 94.94 72.0725 93.4483C71.6871 91.9589 71.0749 90.6853 70.2376 89.622C69.1211 88.2163 67.67 87.2796 65.8836 86.8168C64.0994 86.3516 61.707 86.1186 58.7118 86.1155L47.4089 86.1038ZM104.8 86.1616L102.83 93.6086L105.457 93.6117L100.602 110.675C99.2412 115.84 101.555 121.82 110.891 122.074C118.224 122.274 124.956 118.613 126.73 112.544L131.977 93.6399L134.541 93.6406L136.636 86.1968L124.447 86.1812L117.919 110C116.942 113.362 114.714 114.217 112.712 114.216C110.226 114.213 109.96 112.997 110.382 110.835L117.216 86.1757L104.8 86.1616ZM57.4734 93.8713L58.7329 93.8728C60.3161 93.8744 61.3997 94.1762 61.9822 94.7759C62.5631 95.3763 62.8016 96.4802 62.6905 98.0893C62.6069 99.3238 62.4247 100.59 62.1519 101.89C61.879 103.191 61.5405 104.441 61.1394 105.637C60.736 106.836 60.2833 107.93 59.7774 108.923C59.2724 109.915 58.7611 110.735 58.2474 111.387C57.6931 112.072 56.9675 112.591 56.0684 112.95C55.1662 113.311 53.8246 113.506 52.0373 113.54L57.4734 93.8713ZM162.724 100.206C158.447 100.407 160.566 105.509 160.566 105.509C161.176 101.271 166.813 100.972 166.813 100.972C165.046 100.374 163.717 100.159 162.724 100.206Z" fill="#005643"/>
</g>
<defs>
<clipPath id="clip0_15016_302868">
<rect width="200" height="200" fill="white" transform="translate(0.878906 0.429688)"/>
</clipPath>
</defs>
</svg>
