<svg width="201" height="201" viewBox="0 0 201 201" fill="none" xmlns="http://www.w3.org/2000/svg">
<g clip-path="url(#clip0_15016_302882)">
<path d="M169.534 102.836L169.564 102.831L169.584 102.829C175.41 102.021 179.627 102.162 181.476 103.143C183.937 104.45 182.442 106.278 182.442 106.278C182.442 106.278 185.657 104.454 185.657 100.275C185.657 96.0939 182.867 91.72 177.677 88.4823C172.231 85.0858 170.712 84.3128 167.28 82.1148C162.224 78.8749 154.269 76.4069 146.133 74.3499C139.52 72.6783 131.618 70.9601 123.164 69.2741C120.442 68.731 117.662 68.1912 114.85 67.658C100.448 64.9246 85.1808 62.3489 72.3168 60.2797C54.5735 57.4252 41.4062 55.537 41.4062 55.537C41.4062 55.537 56.0474 71.1522 81.9742 77.9452L56.5283 74.7709C56.5283 74.7709 74.1061 88.6256 97.1007 94.0436L72.8865 92.0132C72.8865 92.0132 89.9612 106.125 110.52 110.072C111.185 110.201 111.854 110.317 112.526 110.423C112.526 110.423 111.682 110.568 110.315 110.739C108.19 111.004 104.791 111.329 101.24 111.267L96.4854 126.531H110.428C110.428 126.531 137.048 107.946 169.534 102.836Z" fill="white"/>
<path d="M41.4126 55.5393C41.6916 58.2787 43.0742 60.2824 43.0742 60.2824H1.23047L27.951 76.4789L12.3596 126.536H38.1089L47.301 97.096L91.1217 143.783L101.251 111.271C104.797 111.333 108.191 111.008 110.323 110.743C111.692 110.573 112.527 110.426 112.527 110.426C111.861 110.32 111.194 110.205 110.528 110.077C89.9666 106.13 72.894 92.0161 72.894 92.0161L97.1106 94.0465C74.1122 88.629 56.534 74.7738 56.534 74.7738L81.9803 77.9468C56.0532 71.1547 41.4126 55.5393 41.4126 55.5393ZM72.3235 60.2824C85.1862 62.3509 100.452 64.9286 114.855 67.6609L117.13 60.2824H72.3235ZM125.953 60.2824L123.172 69.2754C131.622 70.9628 139.521 72.6821 146.141 74.3535C154.271 76.4096 162.233 78.8762 167.288 82.115C170.718 84.3142 172.238 85.0863 177.684 88.4824C182.874 91.7203 185.664 96.0982 185.664 100.279C185.664 104.458 182.447 106.28 182.447 106.28C182.447 106.28 183.94 104.453 181.479 103.145C179.63 102.163 175.419 102.025 169.59 102.833C169.137 102.912 150.406 106.406 128.903 126.535H159.211C159.62 126.535 160.02 126.53 160.429 126.52C164.676 126.422 168.879 125.755 172.86 124.479C173.428 124.297 173.997 124.103 174.557 123.895C175.303 123.619 176.041 123.322 176.769 123.001C177.125 122.84 177.489 122.672 177.844 122.501C184.357 119.376 189.173 114.976 190.657 110.112L200.769 77.6083C201.711 74.509 201.178 71.5812 199.472 69.0444C199.365 68.8862 199.259 68.7299 199.143 68.5744C198.903 68.2634 198.654 67.9595 198.388 67.6618C196.655 65.7266 194.176 64.0765 191.119 62.8317C187.183 61.2252 182.287 60.2913 176.778 60.2824H125.953Z" fill="#009A44"/>
<path d="M140.507 81.3464L146.736 85.1299C146.736 85.1299 149.952 85.1868 151.934 85.4924C151.934 85.4924 149.304 86.9345 151.037 88.8103C152.183 90.0454 154.289 90.4123 156.155 90.4052C156.777 90.4034 157.372 90.3608 157.896 90.2942C158.314 90.24 158.687 90.1671 159.025 90.0898C159.353 90.016 159.647 89.9387 159.931 89.8605C160.624 89.6722 161.237 89.4927 161.983 89.434C162.152 89.4216 162.321 89.4136 162.508 89.4145C163.272 89.418 164.187 89.5522 165.422 89.9112C165.422 89.9112 164.116 88.6397 160.926 87.0252C160.748 86.9328 160.553 86.8395 160.357 86.7435C159.94 86.5418 159.504 86.3357 159.025 86.126C156.954 85.2152 154.333 84.2538 151.045 83.3821C149.775 83.0453 148.415 82.7228 146.949 82.4207C144.985 82.0191 142.844 81.6539 140.507 81.3464ZM169.589 102.833L169.572 102.835L169.536 102.839C137.051 107.948 110.43 126.535 110.43 126.535H128.903C150.406 106.406 169.136 102.912 169.589 102.833Z" fill="black"/>
</g>
<defs>
<clipPath id="clip0_15016_302882">
<rect width="200" height="200" fill="white" transform="translate(0.628906 0.429688)"/>
</clipPath>
</defs>
</svg>
