<svg width="201" height="201" viewBox="0 0 201 201" fill="none" xmlns="http://www.w3.org/2000/svg">
<path d="M45.4802 22.3447C45.4802 22.3447 42.2375 23.804 41.1566 26.0739C40.0217 28.2897 34.1307 41.4228 34.1307 41.4228L34.0767 41.4768C33.6983 42.5037 33.32 43.9088 33.32 45.4762C33.32 47.5839 34.0226 50.016 36.1304 52.394C35.2116 54.3396 31.9689 60.9332 31.9689 60.9332L31.9148 60.9872C31.3744 62.2843 31.1582 63.5273 31.1582 64.6623C31.1582 68.9859 34.509 72.0665 36.9411 73.796C35.644 76.6063 33.1579 81.9028 33.1579 81.9028C32.6715 82.9296 32.4553 83.9025 32.4553 84.8212C32.4553 89.307 37.5356 92.2795 39.6974 93.5225L40.2919 93.8468C41.4809 94.5494 70.0709 111.628 97.2558 127.787C86.3386 127.787 69.8547 127.787 69.8547 127.787C65.6932 127.787 65.8013 127.733 64.0178 127.247C61.5858 126.598 57.5324 125.085 57.5324 125.085C57.5324 125.085 57.6945 128.436 60.4508 131.03C63.2071 133.624 65.5311 135.786 65.5311 135.786L65.8554 136.11C66.558 136.813 67.801 138.056 69.4764 138.975C69.8007 139.785 70.5033 140.434 70.9897 140.92L72.8272 142.758L75.5835 145.46L76.0159 145.839C76.8266 146.541 77.8534 147.406 79.2046 148L78.7722 148.487L83.7984 153.405C86.825 156.323 89.8515 157.512 97.0936 155.513C99.3095 154.864 108.659 151.946 111.794 150.973C113.199 151.567 117.523 153.459 118.496 153.891C124.819 162.43 132.061 167.997 135.574 170.429C135.466 170.97 135.358 171.51 135.358 172.051C135.358 173.672 135.574 174.537 136.331 175.455C137.087 176.374 138.979 177.725 138.979 177.725L141.357 175.077C143.032 173.402 144.924 172.267 146.653 172.267C146.653 172.321 146.653 172.429 146.653 172.483C146.653 172.591 146.653 172.699 146.653 172.753C146.653 174.699 148.167 175.347 148.491 175.509L150.436 176.266L151.734 174.591C155.517 169.781 154.49 166.538 153.031 164.646C150.977 161.998 147.626 162.16 145.302 162.647C144.437 161.133 143.897 160.052 142.924 158.323C144.167 157.62 145.14 157.08 146.329 156.377C148.112 156.702 149.68 157.026 150.599 157.188L151.355 158.485L152.706 158.647C155.355 159.026 157.787 158.863 158.651 159.512C159.57 160.215 156.652 164.16 156.652 164.16C157.138 164.052 165.947 163.403 168.65 160.809C169.028 160.485 170.271 159.242 170.325 157.188C170.325 157.134 170.325 157.026 170.325 156.972C170.325 155.891 169.947 154.27 168.38 152.702L168.325 152.648C168.325 152.648 167.136 151.513 166.11 150.595C166.218 150 166.272 149.406 166.272 148.757C166.272 146.433 165.461 143.623 162.867 141.191L151.896 131.03L147.302 126.815C147.032 126.544 146.815 126.328 146.545 126.112C149.896 104.386 135.196 87.8478 129.575 81.5245L128.656 80.4976C128.656 80.4976 127.575 81.4164 126.494 82.3892C127.575 81.4704 128.656 80.4976 128.656 80.4976C127.575 79.2546 89.7434 36.7749 88.1221 34.9373C86.7169 33.37 86.4467 32.181 86.4467 31.5324C85.9062 28.8302 86.0684 24.2904 86.0684 24.2904C86.0684 24.2904 83.1499 25.2091 81.3664 28.5599C80.7179 30.0732 76.6644 39.2069 76.6644 39.2069V39.4231C76.3402 40.3419 76.178 41.2066 76.178 41.9632C76.178 44.8276 77.9615 46.8273 79.1505 48.1784L79.4748 48.5568C79.5289 48.6108 79.5829 48.6648 79.691 48.7729C78.8803 50.5564 75.9619 57.204 75.9619 57.204L75.9078 57.3662C75.6916 58.0688 75.5835 58.7713 75.5835 59.4199C75.5835 59.582 75.5835 59.6901 75.5835 59.7982C63.7476 48.7189 48.1825 34.1807 48.1825 34.1807C46.6152 32.3431 46.1828 31.046 45.9126 29.4787C45.6424 27.9114 45.4802 22.3447 45.4802 22.3447ZM168.704 160.971L168.65 161.025L168.758 160.917C168.704 160.971 168.704 160.971 168.704 160.971ZM159.246 160.161C159.3 160.161 159.354 160.215 159.354 160.215C159.354 160.215 159.246 160.215 159.246 160.161Z" fill="black"/>
<path d="M43.6973 27.2095L36.7795 42.5043C34.9419 47.3144 37.8063 50.3409 39.806 51.9623C41.8057 53.5836 107.525 106.764 107.525 106.764L107.579 108.98L42.184 58.826C38.9413 56.394 39.3196 52.3946 39.3196 52.3946L34.6176 62.1228C32.3477 67.6354 37.9685 71.1484 40.3465 72.7157C42.7245 74.3371 107.849 119.681 107.849 119.681L108.444 122.383C108.444 122.383 45.3186 80.3902 42.9947 78.9309C40.1843 77.2015 40.4005 73.2562 40.4005 73.2562L35.7526 83.2005C33.807 87.2539 39.3196 90.0643 41.7516 91.5235C43.1568 92.3883 78.5025 113.466 107.579 130.761H69.8012C64.2345 130.761 62.397 129.085 62.397 129.085L67.4773 133.841C68.342 134.652 70.6119 137.516 73.9627 137.516C76.3407 137.516 87.9064 137.516 87.9064 137.516L90.6628 138.705L78.5025 139.678C76.0705 139.786 75.4219 140.056 72.1792 138.273C72.1252 138.273 77.5838 143.569 77.5838 143.569C79.097 144.866 80.286 146.109 82.8802 145.893C85.4744 145.677 100.715 143.137 100.715 143.137L103.147 144.218L87.1498 147.731C83.4747 148.541 80.8805 146.65 80.8805 146.65C80.8805 146.65 83.9071 149.622 85.9068 151.568C87.9605 153.568 89.8521 154.811 96.4456 152.973C99.0398 152.217 112.065 148.109 112.065 148.109L120.442 151.784C128.873 163.458 139.358 169.619 139.358 169.619C137.358 171.997 139.033 174.753 139.033 174.753C140.763 171.241 144.654 169.295 147.627 169.727C150.167 170.106 149.518 173.24 149.572 173.132C151.14 171.132 152.437 168.7 150.869 166.701C148.924 164.215 144.006 166.376 144.006 166.376L139.196 157.567L145.735 153.838C149.302 131.085 131.089 115.574 131.089 115.574L46.1834 36.2351C42.13 32.2357 43.6973 27.2095 43.6973 27.2095ZM83.9071 30.0739L79.3132 40.3425C78.2864 43.1529 80.1779 44.9904 81.5831 46.6118C82.9883 48.2331 124.387 91.4695 124.387 91.4695L124.117 93.8475L84.9339 54.7726C81.7993 51.5299 82.664 49.0979 82.7721 48.7736L78.5566 58.2315C77.5838 61.15 80.6103 63.0956 82.664 65.0953C84.8799 67.2031 128.495 108.007 132.062 111.25C139.682 118.222 143.411 127.41 143.411 127.41C147.789 104.873 130.71 87.4701 126.441 82.552C125.36 81.3089 85.9608 37.0457 85.9608 37.0457C82.61 33.2626 83.853 30.2901 83.9071 30.0739ZM143.519 127.41C144.33 130.004 148.924 138.273 146.492 153.676L152.437 154.811L153.139 156C153.139 156 159.895 156.918 160.976 157.891C160.976 157.891 163.3 159.513 160.814 161.729C160.814 161.729 164.651 160.972 166.813 158.864C166.813 158.864 168.758 157.189 166.488 154.811L163.03 151.622C161.895 151.244 159.895 152.054 159.895 152.054C159.409 149.19 156.22 145.299 156.22 145.299C156.22 145.299 162.597 151.244 162.976 151.622C163.03 151.46 165.029 147.19 161.03 143.461C154.977 137.84 143.465 127.356 143.519 127.41Z" fill="#00853E"/>
</svg>
