<svg width="200" height="201" viewBox="0 0 200 201" fill="none" xmlns="http://www.w3.org/2000/svg">
<path d="M59.4628 51.8935C71.0695 51.5227 82.7047 52.0255 94.242 53.3431C101.266 54.1678 108.25 55.3318 115.174 56.7712C121.497 58.1104 127.769 59.7484 133.854 61.9396C140.734 64.4353 147.459 67.618 153.218 72.1874C156.044 74.5819 159.484 76.138 163.004 77.2159C168.088 79.0341 173.039 81.2268 177.816 83.7411C182.353 86.1537 186.756 88.875 190.685 92.2014C193.723 94.7969 196.53 97.7836 198.325 101.388C199.539 103.83 200.194 106.587 199.949 109.32C199.717 112.138 198.565 114.812 196.984 117.132C194.475 120.782 191.054 123.698 187.458 126.236C185.969 127.288 184.426 128.259 182.868 129.203C183.563 126.253 183.972 123.184 183.565 120.161C183.269 117.934 182.458 115.745 181.045 113.98C179.494 112.011 177.299 110.642 174.971 109.773C172.101 108.707 169.037 108.279 165.991 108.143C160.032 107.91 154.087 108.73 148.261 109.918C144.846 110.637 141.455 111.487 138.125 112.536C143.032 113.712 147.778 115.757 151.782 118.858C155.375 121.659 158.461 125.268 160.154 129.534C158.331 127.74 156.076 126.465 153.76 125.416C150.233 123.853 146.512 122.751 142.737 121.979C143.441 123.68 144.761 125.042 146.165 126.191C148.401 127.972 151.016 129.213 153.703 130.147C158.86 131.912 164.315 132.615 169.738 132.898C171.792 132.998 173.847 133.034 175.903 133.008C170.2 135.808 163.79 137.075 157.453 136.931C151.564 136.816 145.776 135.532 140.126 133.952C134.7 132.453 129.355 130.636 123.833 129.507C120.636 128.85 117.363 128.496 114.097 128.66C107.87 128.954 101.7 130.122 95.7291 131.9C84.9346 135.134 74.7937 140.747 66.648 148.571C68.9276 142.99 70.1546 136.948 69.9347 130.909C69.728 124.456 67.9031 118.12 65.029 112.361C61.737 105.746 57.1726 99.8334 52.0493 94.5371C45.0096 87.2969 36.9371 81.1119 28.3675 75.7929C26.0493 74.3627 23.695 72.989 21.2755 71.7343C27.2804 72.1434 33.2451 73.1186 39.0874 74.5576C44.8348 75.9848 50.47 77.9455 55.7363 80.6732C51.8187 77.456 47.5679 74.6603 43.157 72.1715C33.1704 66.5776 22.3452 62.5853 11.2708 59.7628C7.55077 58.8118 3.78373 58.049 0 57.4063C3.40114 56.6256 6.85575 56.0951 10.3088 55.612C24.5353 53.7063 38.9327 53.2779 53.2672 53.8167C60.4513 54.0995 67.6255 54.6452 74.7725 55.4425C75.8887 55.5426 76.9959 55.7455 78.1175 55.7895C75.5767 54.9064 72.957 54.2743 70.3241 53.7367C66.728 52.9844 63.0922 52.4498 59.4628 51.8935ZM93.0992 57.8688C95.0159 58.2719 96.9019 58.8134 98.7784 59.3707C103.946 60.9579 109.047 62.8894 113.721 65.6346C108.371 64.4288 102.979 63.4206 97.57 62.5212C88.0157 60.9447 78.3988 59.7495 68.746 58.9908C54.9317 57.9265 41.0132 57.7115 27.2148 59.1163C33.856 61.2112 40.2063 64.1752 46.2101 67.6912C54.8718 72.7876 62.7972 79.1956 69.3625 86.8195C73.7893 91.9546 77.584 97.6406 80.5825 103.723C80.6625 103.926 80.8574 104.099 80.8559 104.328C80.689 104.264 80.6371 104.047 80.5332 103.918C80.1608 103.413 79.729 102.956 79.3168 102.485C76.9064 99.819 74.2322 97.3995 71.4111 95.1756C64.2179 89.531 55.9934 85.2282 47.2971 82.4166C49.0989 83.4863 50.8037 84.7121 52.4481 86.0085C61.6077 93.2552 68.8461 103.056 72.5411 114.175C74.7255 120.681 75.6605 127.579 75.4777 134.433C77.2026 133.027 79.1405 131.912 81.1012 130.876C86.1619 128.263 91.5598 126.365 97.035 124.831C97.3941 124.705 97.846 124.704 98.0823 124.36C102.085 119.924 106.605 115.925 111.686 112.761C116.41 109.787 121.464 107.385 126.538 105.073C128.964 103.992 131.373 102.864 133.848 101.898C136.484 100.819 139.078 99.6271 141.553 98.2132C143.954 96.83 146.266 95.2454 148.21 93.2578C149.793 91.6361 151.123 89.7073 151.771 87.5172C152.557 84.9373 152.235 82.1216 151.213 79.6544C150.45 77.8374 149.482 76.069 148.086 74.6577C144.426 70.8148 139.652 68.1659 134.637 66.5306C133.538 66.1067 132.435 65.6903 131.318 65.3116C122.445 62.304 113.249 60.3111 103.979 59.0014C100.366 58.521 96.7404 58.0675 93.0992 57.8688ZM159.247 81.292C159.206 84.0573 158.688 86.8381 157.523 89.3577C155.902 92.9177 153.138 95.8278 150.055 98.1756C146.014 101.24 141.434 103.507 136.764 105.441C127.502 109.188 118.503 113.785 110.567 119.902C108.703 121.38 106.837 122.886 105.242 124.657C108.651 123.57 112.275 123.42 115.826 123.561C119.097 123.713 122.348 124.162 125.556 124.811C130.937 125.911 136.212 127.557 141.234 129.786C146.058 131.922 151.225 133.406 156.51 133.695C158.043 133.731 159.597 133.798 161.111 133.502C154.682 133.35 148.451 130.761 143.481 126.741C142.44 125.921 141.538 124.939 140.514 124.099C135.066 119.465 127.726 116.984 120.583 117.801C121.011 117.415 121.507 117.113 121.976 116.778C130.57 110.843 140.534 106.924 150.854 105.35C156.977 104.4 163.231 104.234 169.381 105.005C166.627 103.952 163.867 102.92 161.117 101.857C161.321 101.846 161.527 101.846 161.736 101.854C165.096 102.056 168.454 102.47 171.725 103.289C175.788 104.316 179.833 105.992 182.874 108.958C184.615 110.652 185.935 112.787 186.616 115.122C187.458 117.958 187.405 121.016 186.653 123.865C189.927 121.047 192.988 117.76 194.636 113.705C195.657 111.184 195.936 108.342 195.262 105.696C194.613 103.073 193.161 100.718 191.409 98.6879C188.696 95.5639 185.316 93.0963 181.805 90.9464C177.27 88.2027 172.432 85.9873 167.492 84.0797C164.779 83.0555 162.045 82.0617 159.247 81.292ZM131.716 115.29C130.681 115.518 129.627 115.689 128.62 116.023C133.262 116.002 137.893 116.768 142.314 118.16C146.321 119.429 150.182 121.179 153.722 123.449C152.618 122.446 151.379 121.6 150.168 120.735C147.947 119.199 145.627 117.793 143.169 116.671C141.266 115.81 139.269 115.103 137.19 114.827C135.355 114.552 133.515 114.955 131.716 115.29ZM75.0258 67.8846C77.1571 67.9434 79.2899 67.8099 81.4227 67.8338C89.6564 67.794 97.9033 68.1273 106.08 69.1305C111.76 69.8453 117.42 70.8671 122.897 72.5571C124.618 73.0879 126.314 73.7041 127.976 74.4044C126.781 72.8957 125.223 71.718 123.578 70.7405C121.477 69.5052 119.21 68.5701 116.88 67.8645C119.675 68.282 122.47 68.897 125.053 70.072C129.301 71.9701 132.884 75.0592 136.062 78.4058C139.18 81.6765 143.06 84.3985 147.497 85.4788C144.761 85.7313 142.089 86.4953 139.557 87.5517C138.162 88.1212 136.87 88.9095 135.473 89.4764C129.785 91.9053 123.385 92.3853 117.321 91.3385C114.71 90.8706 112.109 90.2116 109.683 89.1245C112.847 89.7725 116.079 90.138 119.311 90.0899C121.953 90.0326 124.615 89.694 127.118 88.8162C128.355 88.3734 129.564 87.8076 130.598 86.9875C128.74 86.2967 126.914 85.4284 125.392 84.1373C124.394 83.2902 123.546 82.2418 123.041 81.0281C122.452 79.6263 122.358 78.0137 122.827 76.5626C120.581 75.1662 118.089 74.2228 115.581 73.4201C110.023 71.6979 104.271 70.6965 98.5172 69.8934C91.741 68.9755 84.9198 68.4086 78.091 68.0674C77.0691 68.0063 76.0419 68.0165 75.0258 67.8846ZM126.308 81.6374C127.842 83.6235 130.125 85.1083 132.653 85.3734C131.644 84.6962 130.63 83.8958 130.128 82.7541C129.886 82.2206 129.819 81.5017 130.274 81.0588C130.666 80.6922 131.234 80.7104 131.737 80.7145C129.778 79.3366 127.773 78.0217 125.697 76.8265C124.82 78.3591 125.263 80.305 126.308 81.6374ZM134.138 83.713C133.879 84.1559 133.345 84.2613 132.887 84.3773C134.029 84.744 135.473 85.0723 136.486 84.2253C135.684 83.5462 134.835 82.9262 134.019 82.2672C134.212 82.7127 134.406 83.2553 134.138 83.713ZM161.992 85.4538C167.361 86.7846 172.606 88.7203 177.407 91.4837C181.033 93.5809 184.44 96.1255 187.222 99.2733C187.636 99.7708 188.087 100.249 188.407 100.815C185.075 97.6046 181.129 95.0801 176.919 93.1778C172.088 91.0037 166.952 89.4764 161.705 88.7283C162.307 87.7451 162.337 86.5302 161.992 85.4538ZM79.3301 145.022C80.5385 145.018 81.748 145.022 82.9565 145.019C82.9565 145.336 82.9564 145.652 82.9595 145.97C82.5378 145.97 82.1189 145.97 81.6991 145.972V149.238H80.5904C80.5889 148.15 80.5904 147.06 80.5904 145.972C80.1692 145.97 79.7502 145.97 79.3312 145.97C79.3301 145.653 79.3301 145.337 79.3301 145.022ZM83.7918 145.013C84.3344 145.011 84.8773 145.011 85.4203 145.013C85.6671 145.952 85.8965 146.895 86.1551 147.831C86.383 146.888 86.6355 145.952 86.8767 145.013C87.4185 145.011 87.96 145.011 88.5014 145.013V149.239C88.153 149.238 87.8053 149.238 87.4595 149.238C87.4557 148.188 87.4636 147.139 87.4557 146.09C87.1356 147.134 86.8699 148.193 86.5661 149.241C86.2833 149.237 86.0016 149.238 85.7217 149.238C85.4229 148.18 85.1469 147.118 84.8333 146.065C84.8333 147.123 84.8345 148.18 84.8333 149.238H83.7918C83.7902 147.83 83.7918 146.421 83.7918 145.013Z" fill="#363639"/>
<path d="M48.1758 65.0234C50.6434 65.3757 53.0496 66.0893 55.3944 66.9216C60.4696 68.7594 65.191 71.467 69.5742 74.5963C75.959 79.1767 81.6587 84.6507 86.887 90.4998C87.4311 91.0784 87.9115 91.7162 88.4837 92.2667C85.7802 85.8258 81.4118 80.2023 76.4034 75.3861C74.5068 73.5589 72.4741 71.8781 70.3731 70.2924C72.5844 70.8444 74.6842 71.7806 76.706 72.8226C83.0699 76.1665 88.5038 81.1176 92.8282 86.8317C95.6678 90.609 98.8062 94.1876 102.411 97.2554C105.698 100.038 109.399 102.437 113.534 103.73C115.9 104.451 118.433 104.859 120.894 104.413C115.806 106.641 110.863 109.246 106.311 112.442C103.152 114.69 100.131 117.204 97.7165 120.258C97.2816 120.82 96.8694 121.401 96.516 122.02C91.6862 122.693 86.9166 123.992 82.5338 126.153C81.1745 126.825 79.847 127.569 78.6147 128.452C79.1455 122.743 77.8973 117.005 75.7736 111.723C73.7185 106.659 70.9161 101.901 67.5282 97.6141C70.6173 98.7759 73.2328 100.884 75.6454 103.086C79.4951 106.683 82.8549 110.775 85.9164 115.055C85.6001 108.896 83.7248 102.885 80.8795 97.4367C77.6345 91.213 73.2222 85.6605 68.2869 80.6933C64.7697 77.1572 60.9686 73.9096 56.9763 70.9229C54.1431 68.8117 51.2194 66.8177 48.1758 65.0234ZM123.805 67.8687C124.505 67.802 125.197 68.0435 125.886 68.1512C130.308 69.0984 134.603 71.0393 137.906 74.1777C138.966 75.1689 139.822 76.3477 140.825 77.3946C143.052 79.7663 145.53 81.9165 148.257 83.693C147.269 83.6209 146.323 83.2823 145.405 82.9301C142.942 81.9473 140.742 80.3934 138.823 78.5791C137.481 77.3442 136.392 75.8715 135.07 74.6191C131.892 71.5565 128.009 69.217 123.805 67.8687Z" fill="#9A8C88"/>
<path d="M126.308 81.6373C125.263 80.3049 124.82 78.359 125.698 76.8264C127.773 78.0216 129.778 79.3365 131.737 80.7144C131.234 80.7102 130.666 80.692 130.274 81.0587C129.819 81.5016 129.886 82.2205 130.129 82.754C130.63 83.8956 131.644 84.6961 132.653 85.3733C130.125 85.1082 127.843 83.6234 126.308 81.6373ZM159.248 81.2919C162.045 82.0616 164.779 83.0554 167.492 84.0795C172.432 85.9871 177.27 88.2026 181.805 90.9463C185.316 93.0962 188.696 95.5638 191.409 98.6878C193.162 100.718 194.613 103.073 195.262 105.696C195.936 108.342 195.657 111.184 194.636 113.705C192.988 117.76 189.927 121.047 186.653 123.865C187.405 121.016 187.458 117.958 186.616 115.122C185.935 112.786 184.615 110.652 182.874 108.958C179.833 105.992 175.788 104.316 171.725 103.289C168.455 102.47 165.096 102.056 161.736 101.854C161.528 101.846 161.321 101.846 161.117 101.857C163.867 102.92 166.627 103.952 169.381 105.005C163.231 104.234 156.978 104.4 150.854 105.35C140.534 106.924 130.57 110.843 121.976 116.778C121.507 117.113 121.011 117.415 120.583 117.801C127.727 116.984 135.066 119.465 140.514 124.099C141.538 124.939 142.44 125.92 143.481 126.741C148.451 130.761 154.682 133.35 161.111 133.502C159.597 133.798 158.043 133.731 156.51 133.695C151.225 133.406 146.059 131.922 141.234 129.786C136.212 127.557 130.937 125.911 125.556 124.811C122.348 124.162 119.097 123.713 115.826 123.561C112.275 123.419 108.651 123.57 105.242 124.657C106.837 122.886 108.703 121.38 110.567 119.902C118.503 113.785 127.502 109.188 136.764 105.441C141.434 103.507 146.014 101.24 150.055 98.1755C153.138 95.8277 155.903 92.9176 157.524 89.3576C158.688 86.838 159.206 84.0572 159.248 81.2919ZM161.992 85.4536C162.337 86.5301 162.307 87.745 161.705 88.7281C166.952 89.4762 172.088 91.0035 176.919 93.1777C181.129 95.08 185.075 97.6045 188.407 100.815C188.087 100.248 187.636 99.7707 187.222 99.2732C184.44 96.1254 181.033 93.5807 177.407 91.4836C172.606 88.7202 167.361 86.7845 161.992 85.4536ZM131.716 115.29C133.515 114.955 135.355 114.552 137.19 114.827C139.269 115.103 141.266 115.81 143.169 116.671C145.627 117.793 147.947 119.199 150.168 120.735C151.379 121.6 152.619 122.446 153.722 123.449C150.182 121.179 146.321 119.429 142.314 118.16C137.893 116.768 133.262 116.002 128.62 116.023C129.627 115.689 130.681 115.518 131.716 115.29Z" fill="#A02C46"/>
<path d="M134.138 83.7128C134.406 83.2551 134.213 82.7126 134.019 82.267C134.835 82.926 135.684 83.546 136.486 84.2251C135.473 85.0721 134.029 84.7438 132.887 84.3771C133.345 84.2611 133.879 84.1557 134.138 83.7128ZM123.805 67.8685C128.009 69.2168 131.892 71.5563 135.07 74.6188C136.392 75.8712 137.482 77.3439 138.824 78.5789C140.742 80.3932 142.942 81.947 145.405 82.9298C146.324 83.2821 147.269 83.6207 148.258 83.6927C145.53 81.9163 143.052 79.766 140.826 77.3943C139.823 76.3474 138.967 75.1686 137.906 74.1775C134.603 71.0391 130.309 69.0981 125.886 68.151C125.197 68.0433 124.505 67.8017 123.805 67.8685ZM75.0258 67.8844C76.0419 68.0163 77.0691 68.0061 78.091 68.0672C84.9198 68.4084 91.741 68.9753 98.5172 69.8932C104.271 70.6963 110.023 71.6977 115.581 73.4199C118.089 74.2226 120.581 75.166 122.827 76.5624C122.358 78.0135 122.452 79.6261 123.041 81.0279C123.546 82.2416 124.394 83.29 125.392 84.1371C126.914 85.4282 128.74 86.2965 130.598 86.9873C129.564 87.8074 128.355 88.3732 127.118 88.816C124.615 89.6938 121.953 90.0324 119.311 90.0897C116.08 90.1378 112.847 89.7723 109.683 89.1243C112.109 90.2114 114.71 90.8704 117.321 91.3383C123.385 92.3851 129.785 91.9051 135.473 89.4762C136.87 88.9093 138.162 88.121 139.557 87.5515C142.089 86.4951 144.761 85.7311 147.497 85.4786C143.06 84.3983 139.18 81.6763 136.062 78.4056C132.884 75.059 129.301 71.9699 125.053 70.0718C122.47 68.8968 119.675 68.2818 116.88 67.8643C119.21 68.5699 121.477 69.505 123.578 70.7403C125.223 71.7178 126.781 72.8955 127.976 74.4042C126.314 73.7039 124.618 73.0877 122.897 72.5569C117.42 70.8669 111.76 69.8451 106.08 69.1303C97.9033 68.1271 89.6564 67.7938 81.4227 67.8336C79.2899 67.8097 77.1571 67.9432 75.0258 67.8844ZM48.1761 65.0232C51.2196 66.8174 54.1434 68.8115 56.9766 70.9227C60.9688 73.9094 64.77 77.157 68.2872 80.6931C73.2224 85.6602 77.6348 91.2128 80.8797 97.4364C83.725 102.885 85.6004 108.895 85.9166 115.055C82.8552 110.774 79.4954 106.682 75.6457 103.085C73.233 100.884 70.6175 98.7757 67.5285 97.6139C70.9163 101.901 73.7188 106.659 75.7739 111.723C77.8976 117.005 79.1458 122.743 78.615 128.452C79.8473 127.569 81.1747 126.824 82.5341 126.152C86.9169 123.992 91.6864 122.692 96.5163 122.02C96.8697 121.401 97.2818 120.82 97.7167 120.258C100.131 117.204 103.152 114.689 106.312 112.442C110.863 109.246 115.806 106.641 120.895 104.412C118.433 104.859 115.901 104.451 113.535 103.729C109.4 102.437 105.698 100.038 102.412 97.2552C98.8065 94.1873 95.6681 90.6087 92.8285 86.8315C88.5041 81.1174 83.0702 76.1662 76.7062 72.8223C74.6845 71.7804 72.5847 70.8442 70.3734 70.2921C72.4743 71.8778 74.507 73.5587 76.4037 75.3859C81.4121 80.2021 85.7805 85.8255 88.484 92.2665C87.9118 91.7159 87.4314 91.0782 86.8873 90.4995C81.6589 84.6505 75.9593 79.1764 69.5744 74.5961C65.1913 71.4668 60.4698 68.7591 55.3947 66.9213C53.0499 66.089 50.6437 65.3754 48.1761 65.0232ZM93.0992 57.8687C96.7404 58.0673 100.366 58.5208 103.979 59.0012C113.249 60.3109 122.445 62.3038 131.318 65.3114C132.435 65.6901 133.538 66.1065 134.637 66.5304C139.652 68.1657 144.426 70.8146 148.086 74.6575C149.482 76.0688 150.45 77.8372 151.213 79.6542C152.235 82.1214 152.557 84.9371 151.771 87.517C151.123 89.7071 149.793 91.6359 148.21 93.2576C146.266 95.2452 143.954 96.8298 141.553 98.213C139.078 99.6269 136.484 100.819 133.848 101.898C131.373 102.864 128.964 103.992 126.538 105.073C121.464 107.384 116.41 109.786 111.686 112.761C106.605 115.924 102.085 119.923 98.0823 124.36C97.846 124.704 97.3941 124.705 97.035 124.831C91.5598 126.364 86.1619 128.262 81.1012 130.875C79.1405 131.912 77.2026 133.027 75.4777 134.433C75.6605 127.579 74.7255 120.681 72.5411 114.174C68.8461 103.056 61.6077 93.255 52.4482 86.0083C50.8037 84.7119 49.099 83.4861 47.2971 82.4164C55.9934 85.228 64.2179 89.5308 71.4111 95.1754C74.2322 97.3993 76.9064 99.8188 79.3168 102.485C79.729 102.956 80.1608 103.413 80.5332 103.918C80.6371 104.047 80.689 104.264 80.8559 104.328C80.8574 104.099 80.6625 103.926 80.5825 103.723C77.584 97.6404 73.7893 91.9544 69.3625 86.8193C62.7972 79.1954 54.8718 72.7874 46.2101 67.691C40.2063 64.175 33.856 61.211 27.2148 59.1161C41.0132 57.7113 54.9317 57.9263 68.746 58.9906C78.3988 59.7493 88.0157 60.9445 97.57 62.5211C102.979 63.4204 108.371 64.4287 113.721 65.6344C109.047 62.8892 103.946 60.9577 98.7784 59.3705C96.9019 58.8132 95.0159 58.2717 93.0992 57.8687Z" fill="white"/>
</svg>
