<svg width="200" height="201" viewBox="0 0 200 201" fill="none" xmlns="http://www.w3.org/2000/svg">
<g clip-path="url(#clip0_15016_302860)">
<path d="M112.527 71.8087C112.529 74.015 112.559 76.1608 112.588 78.1975L112.602 78.9774C111.524 79.1057 110.439 79.2437 109.352 79.389C110.381 76.8921 111.457 74.3323 112.527 71.8087ZM181.176 109.432C181.176 109.432 176.742 104.266 175.059 102.196L178.914 93.8595C178.914 93.8595 170.264 87.7492 157.135 83.0872C161.874 83.2495 169.094 83.8138 178.309 85.5018L200.469 31.7734H171.891L151.465 81.2684C150.412 80.9632 149.341 80.6702 148.249 80.399L168.287 31.7734H142.991C142.991 31.7734 136.101 48.3557 135.21 50.654L134.96 31.7734H103.784L82.1258 84.3078C80.5952 84.642 79.1348 84.9714 77.7568 85.2886C78.1055 84.6032 78.4349 83.9058 78.7182 83.1889L99.9094 31.7709H71.4237L52.0006 78.7739C51.1772 80.7235 49.0459 82.3364 47.1424 82.4478L46.9413 82.4527C46.5054 82.4527 45.9169 82.3631 45.5876 81.9466C45.2872 81.5591 45.2194 80.91 45.4034 80.164C45.464 79.9267 45.5439 79.6918 45.6578 79.4278L65.34 31.7709H36.8156L17.3441 78.9168C16.7483 80.3384 16.2736 81.84 15.966 83.2616C14.6873 89.1975 15.8644 94.7943 19.2816 99.0253C21.8051 102.149 25.3095 104.206 29.383 105.019C11.1248 110.192 0.46875 113.61 0.46875 113.61C0.46875 113.61 21.5581 115.612 45.6771 118.17C40.8722 119.841 36.3531 121.64 32.3813 123.571C32.3813 123.571 78.7159 125.208 91.6291 136.801C97.1799 141.785 101.733 145.319 107.197 147.685C110.817 156.483 118.448 169.104 132.471 169.104C145.539 169.104 150.104 160.855 151.623 156.401C154.006 154.413 157.936 150.061 155.723 144.239C155.723 144.239 164.517 143.875 170.07 136.556C177.115 136.075 182.688 130.221 182.688 123.052C182.688 120.376 181.903 117.891 180.566 115.792C183.16 111.268 181.176 109.432 181.176 109.432Z" fill="#FFCC00"/>
<path fill-rule="evenodd" clip-rule="evenodd" d="M179.467 124.46C178.658 129.909 174.19 133.687 168.682 133.583C167.135 135.864 165.941 137.024 163.613 138.509C161.477 139.867 160.068 140.432 157.581 140.921C158.348 139.754 158.69 139.008 159.07 137.668C159.349 136.697 159.448 136.123 159.504 135.113C156.384 135.879 154.546 137.124 152.689 139.746C151.248 141.774 150.717 143.265 150.543 145.748L152.587 144.045C153.674 146.346 153.689 148.254 152.64 150.572C151.826 152.384 150.904 153.357 149.143 154.273C148.755 155.97 148.39 156.915 147.544 158.433C144.001 164.769 135.581 167.278 128.475 165.815C116.453 163.345 109.103 145.099 109.016 145.055C105.579 143.229 99.1999 139.819 95.1554 135.462C91.3629 131.667 83.5161 125.528 45.6943 121.353L61.3297 116.516L14.7529 112.159C48.075 103.048 65.7204 98.149 83.4458 94.0343L73.8433 89.3625C97.8921 84.1144 108.175 82.2085 121.425 81.1089C148.547 78.8566 163.306 88.8104 175.011 95.1168L171.53 102.622C172.087 103.383 178.883 111.232 178.876 111.413C178.745 113.758 178.062 114.334 176.769 115.649C179.195 118.299 179.995 120.905 179.467 124.46Z" fill="#4B116F"/>
<path fill-rule="evenodd" clip-rule="evenodd" d="M129.21 83.1703C126.979 83.1664 124.617 83.2575 122.092 83.457C107.023 84.6486 104.109 85.9409 83.9241 89.8449L93.7548 94.8435C70.4335 99.5865 54.0852 104.357 30.1826 110.429L72.3303 114.034L58.6091 119.763C88.5624 123.623 96.2173 132.138 96.973 133.054C102.404 139.597 111.62 143.168 111.62 143.168C113.761 149.184 116.146 152.72 118.882 155.899C121.991 159.522 128.434 162.854 134.726 162.097C139.351 161.539 142.195 160.121 145.408 156.75C141.035 158.137 137.573 157.647 133.758 155.097C130.129 152.671 128.906 149.827 127.847 145.594C127.021 142.3 128.145 140.858 126.159 138.109C124.047 135.193 117.411 133.661 114.077 135.009C119.089 131.307 127.577 129.168 133.758 128.342C138.187 127.749 147.471 127.899 152.47 130.001C160.685 133.455 171.118 127.93 169.399 120.569C168.041 114.734 161.279 111.26 155.746 113.54L155.913 110.961C159.088 109.754 160.975 109.256 164.337 108.753C167.681 108.249 169.632 108.166 173.013 108.381C171.56 105.967 170.457 104.703 168.264 102.932C165.232 100.482 163.025 99.4547 159.201 98.701L165.1 97.99L167.514 94.7021C154.055 88.0159 144.836 83.1974 129.21 83.1703ZM173.825 119.422L170.982 122.9C171.372 124.047 171.43 124.801 171.209 125.994C170.934 127.515 170.426 128.418 169.275 129.456C172.399 129.408 174.851 127.209 175.229 124.115C175.464 122.218 175.065 120.877 173.825 119.422Z" fill="#FFCC00"/>
<path d="M124.141 89.2583C119.098 89.3454 113.989 90.0061 109.55 90.847C116.997 90.847 119.774 91.3778 123.616 92.7399C126.958 93.9217 131.385 96.1537 136.701 99.5617C135.177 97.5293 134.146 96.1246 132.739 95.0106C130.616 93.3308 128.196 92.2187 125.586 91.5018C131.862 90.5021 137.655 92.0773 139.902 92.6934C142.702 93.4645 145.372 94.3615 148.16 95.6868C145.221 93.8384 142.527 92.5733 138.329 91.1085C134.16 89.6535 129.184 89.1691 124.141 89.2583ZM144.198 130.228C142.882 130.228 146.678 131.584 147.561 133.655C148.443 135.717 148.307 136.804 148.307 136.804C148.307 136.804 153.588 132.737 152.36 131.813C151.103 130.865 147.576 130.22 144.198 130.228ZM166.411 133.671C165.481 133.921 163.776 134.285 161.435 134.485C161.427 135.444 161.294 137.18 160.554 138.435C161.542 137.953 164.812 136.211 166.411 133.671ZM142.812 143.296C141.892 144.885 141.02 145.759 139.315 146.822C138.228 147.5 137.523 147.809 136.273 148.163C135.661 149.089 135.694 149.959 136.357 150.721C137.052 151.523 138.112 151.763 139.342 151.404C141.258 150.023 142.165 148.799 142.748 146.807C143.153 145.437 143.169 144.592 142.812 143.296ZM151.091 146.381C150.161 147.433 149.487 147.979 148.193 148.704C147.044 149.357 146.302 149.643 145.004 149.948C144.329 150.703 144.112 151.333 144.209 152.201C144.302 153.04 144.632 153.543 145.397 154.024C147.456 153.669 148.795 152.912 150.047 151.401C151.461 149.701 151.779 148.163 151.091 146.381Z" fill="white"/>
<path fill-rule="evenodd" clip-rule="evenodd" d="M38.6768 34.5561L19.9085 79.9975C19.397 81.222 18.9611 82.5588 18.6821 83.855C16.4463 94.2302 23.0492 102.635 33.4224 102.635C34.9685 102.635 36.4836 102.449 37.9967 102.098C46.4809 99.7849 53.7503 97.8261 60.3377 96.0921C67.3591 94.234 73.4931 88.844 76.1474 82.1365L95.7565 34.5542H73.2819L54.5582 79.858C53.3415 82.739 50.3113 85.0504 47.3082 85.2267C43.9351 85.4263 41.8736 82.8688 42.7067 79.5015C42.8016 79.1198 42.9295 78.7401 43.0884 78.3739L61.1882 34.5561H38.6768ZM105.643 34.56L85.6449 83.0742C94.4081 81.2588 100.691 80.1118 106.496 79.2652C107.823 76.0257 109.162 72.6429 110.549 69.3647C112.087 65.7416 113.535 62.3201 114.848 59.0884L115.862 56.5871L115.67 59.2763C115.228 65.5072 115.277 72.0074 115.37 78.1589C116.664 78.031 117.968 77.9109 119.303 77.8004C121.957 77.5815 124.6 77.4672 127.153 77.4672C133.731 77.4672 139.694 78.1007 145.734 79.4318L164.167 34.56H144.811L132.751 63.8119L131.559 66.7782L131.929 63.6027C132.315 60.3555 132.493 57.1955 132.464 54.2137L132.216 34.5619H105.643V34.56ZM173.769 34.56L154.917 80.3656C154.917 80.3656 163.624 80.0556 176.688 82.398L196.404 34.56H173.769ZM130.158 91.1786C128.699 91.1631 127.159 91.2503 125.592 91.5003C128.199 92.2171 130.617 93.3312 132.739 95.009C134.178 96.1502 135.221 97.5897 136.8 99.6977L153.635 98.7735C148.694 95.5399 144.468 93.9473 139.9 92.6918C138.214 92.2288 134.539 91.229 130.158 91.1786ZM132.1 107.969C125.896 107.862 119.609 108.226 111.638 109.04C101.272 110.096 95.3613 111.158 85.1528 113.777L95.772 117.259L95.0939 114.781C104.103 112.94 109.243 112.13 118.309 111.133C131.518 109.681 139.028 109.375 152.063 109.74C144.424 108.657 138.305 108.075 132.1 107.969ZM150.223 112.136C138.464 112.043 131.681 112.514 119.826 114.25C111.216 115.513 106.345 116.496 97.8664 118.697L106.736 122.424L107.118 119.7C112.57 118.094 115.689 117.3 121.225 116.108C132.45 113.686 138.927 112.801 150.223 112.136ZM145.96 114.944C137.811 115.668 133.155 116.447 125.109 118.441C118.83 119.991 115.309 121.091 109.243 123.381L116.441 127.084L116.838 124.183C120.839 122.349 123.162 121.403 127.32 119.935C134.423 117.424 138.59 116.31 145.96 114.944Z" fill="#4B116F"/>
</g>
<defs>
<clipPath id="clip0_15016_302860">
<rect width="200" height="200" fill="white" transform="translate(0 0.351562)"/>
</clipPath>
</defs>
</svg>
