<svg width="201" height="200" viewBox="0 0 201 200" fill="none" xmlns="http://www.w3.org/2000/svg">
<path d="M167.723 126.167L159.353 125.216C159.084 124.691 154.735 111.965 149.48 96.4702L152.577 95.8535L143.301 49.8945H133.802C132.844 47.0212 132.05 44.6269 131.467 42.8622V18H73.2404V41.5699L70.1704 49.8945H44.5931L34.7007 95.9323L51.9599 99.2188L41.3066 125.275C40.5194 125.452 32.6934 127.19 32.6934 127.19V150.249H70.0392C70.0392 150.249 70.0261 156.251 69.9998 156.769L60.2845 156.914V181.999H127.288V156.92L117.573 156.776C117.546 156.251 117.527 150.236 117.527 150.236H167.73V126.167H167.723Z" fill="#004684"/>
<path d="M156.644 136.065V139.155H114.031V136.065C120.82 135.514 120.807 129.282 120.807 129.282C108.592 111.833 87.9219 106.618 70.8857 111.433C70.8595 111.439 70.8398 111.446 70.8201 111.452L67.6123 120.636C64.3717 130.339 63.6632 135.265 70.9448 136.072V139.162H43.7734V136.079C50.4449 134.596 53.0427 127.682 55.3846 122.001L73.208 73.7261C73.4113 73.7196 74.3953 73.6933 75.4449 73.6933L77.426 77.1504V92.5204L75.6745 97.5388C75.7073 97.5322 75.7335 97.5322 75.7598 97.5322C88.2696 95.8857 101.475 98.2801 113.165 105.253L113.171 105.26L110.134 95.8857V73.6933C128.653 72.8471 132.307 85.4816 134.714 91.8972L136.092 91.6217C136.899 94.0095 144.305 115.933 146.391 122.112C148.247 127.295 150.097 135.318 156.644 136.065ZM102.833 57.2869H124.586C123.713 54.6564 117.547 35.7375 117.547 35.2586C117.547 33.1594 118.537 32.4181 120.387 32.1688V29.0791H84.3205V32.1688C88.7682 32.8052 86.8592 37.3118 84.9371 41.9235L79.2694 57.2869H81.4932L86.9642 42.5008L89.3454 44.882L84.76 57.2869H89.7259L93.8324 45.5118L97.6438 57.2869H99.8348H99.8414L95.4528 43.7472L97.0009 39.2733L102.833 57.2869ZM106.441 154.86V120.289C103.397 118.275 96.1219 114.004 85.5866 113.447V157.241L83.2053 154.86V113.394C82.51 113.394 81.8146 113.414 81.1193 113.453V154.86C81.1193 161.649 80.6797 167.684 71.3646 167.829V170.912H116.202V167.829C109.55 167.73 106.441 165.447 106.441 154.86ZM133.835 58.9991C131.985 61.5968 125.563 60.9802 122.847 60.9802H63.7288C61.1376 60.9802 55.4567 61.7214 53.9742 58.9991L47.9259 87.1609L50.5171 87.6529C53.4822 76.4092 62.1282 70.2363 73.7327 69.987H81.1193V93.3732C81.8146 93.347 82.5165 93.3273 83.2053 93.3273C83.9335 93.2814 84.7141 93.2814 85.5931 93.3732C94.6065 93.7012 101.376 95.7742 106.447 97.8077V69.9935H113.834C125.937 70.7348 132.851 76.665 137.056 87.6595L139.529 87.1675L133.835 58.9991Z" fill="#FDB927"/>
<path d="M117.258 31.1692C116.497 31.7399 115.953 32.5664 115.684 33.5504H89.6669C92.8288 35.9776 91.4512 39.848 89.3454 44.886L84.7534 57.2843H81.4997L86.9642 42.4982C89.6603 36.0498 89.9621 33.2224 87.2856 31.1626H117.258V31.1692ZM97.0009 39.2773L95.4527 43.7512L99.8348 57.2909H102.833L97.0009 39.2773ZM83.2053 69.9975V93.3378L85.5866 93.3838V69.9975H83.2053ZM110.14 79.8375V89.1132L116.871 109.895C105.293 102.227 92.2121 97.4509 75.9631 99.6092L74.9726 102.443C90.9132 99.6289 108.632 105.671 122.06 116.632L110.14 79.8375ZM75.4383 73.6908L57.0311 123.481C54.9909 128.434 52.5113 134.429 47.1387 137.08H52.8721C56.034 134.036 57.8576 129.647 59.4123 125.862L77.426 77.1544V73.6908H75.4383ZM83.2053 113.398V154.864C83.2053 161.798 82.077 166.757 77.2882 168.836H82.8576C84.9896 166.232 85.5866 162.257 85.5866 157.251V113.457L83.2053 113.398ZM123.411 137.067C125.55 134.233 125.307 131.051 125.307 131.051C125.307 131.051 121.922 126.544 120.236 124.78L120.394 125.265C120.446 125.331 122.926 128.663 122.926 128.663C122.926 128.663 123.359 134.2 118.17 137.067H123.411ZM126.547 65.4777C128.43 65.5302 130.798 65.5827 132.963 65.2022L132.392 62.3749C129.833 63.2408 126.586 63.1621 124.166 63.0965C123.654 63.0833 62.876 63.0899 62.3643 63.1096C60.2914 63.1883 57.5624 63.2867 55.3452 62.5389L51.6913 79.5685C53.1082 77.2594 53.9938 76.2557 55.6338 74.7141L57.6608 65.2678C59.5763 65.6352 61.6755 65.5696 63.3483 65.504C63.8534 65.4712 126.035 65.4646 126.547 65.4777Z" fill="white"/>
</svg>
