<svg width="198" height="200" viewBox="0 0 198 200" fill="none" xmlns="http://www.w3.org/2000/svg">
<path d="M161.673 0.00467622C154.514 0.00467622 147.27 2.11365 140.571 6.12585C134.872 4.44293 127.738 3.46352 120.918 3.46352C118.348 3.46352 115.842 3.59757 113.418 3.86256C112.519 3.06137 111.348 2.56309 110.06 2.52204C110.003 2.52048 109.946 2.51841 109.889 2.51841C109.825 2.51841 109.759 2.52048 109.694 2.5236C109.504 2.52984 109.32 2.54698 109.137 2.57244C105.216 3.07851 101.624 4.52658 99.0032 5.72993C96.3596 4.51723 92.7319 3.05513 88.7742 2.56101C88.5534 2.53295 88.3347 2.51996 88.1154 2.51841C86.8123 2.51841 85.557 2.99954 84.59 3.86256C82.1641 3.59757 79.6561 3.46352 77.0868 3.46352C70.2683 3.46352 63.134 4.44293 57.4337 6.12585C50.7326 2.11365 43.4881 0.00467622 36.3304 0.00467622C24.8778 0.00467622 14.7392 5.49352 9.20933 14.6859C5.96195 20.0828 4.40373 26.6228 4.70301 33.6013C4.9841 40.161 6.84992 47.0714 10.2552 54.1829C8.28708 57.6635 6.79172 61.1837 6.71275 61.3687C6.08509 62.8526 6.17342 64.522 6.90863 65.9119C4.43075 71.1919 1.13557 79.8398 0.0299042 90.2797C-0.124931 91.7314 0.328143 93.1571 1.23481 94.2384C0.24605 103.055 0.62898 111.751 2.38464 120.162C5.14154 133.372 11.2476 145.494 20.5346 156.194C21.5551 157.371 23.0234 158.021 24.539 158.021C24.9853 158.021 25.4363 157.964 25.8811 157.847C25.9253 157.836 25.9694 157.824 26.0136 157.811C31.6791 163.174 43.1733 171.231 65.8618 179.404C66.3476 179.579 66.8526 179.68 67.3571 179.708C70.7484 184.95 74.9186 187.201 78.7089 189.248C82.1127 191.085 85.0514 192.672 88.0037 196.538C89.0049 197.848 90.5569 198.618 92.205 198.622H92.218C92.934 198.622 93.6313 198.478 94.2745 198.206C94.6185 198.596 95.0237 198.94 95.481 199.219C96.3315 199.74 97.2901 200 98.2508 200C99.2381 200 100.226 199.726 101.091 199.175C102.268 198.429 103.603 197.522 104.912 196.434C105.448 196.61 106.01 196.702 106.576 196.702C107.194 196.702 107.817 196.593 108.416 196.371C122.208 191.262 126.056 185.637 129.585 179.688C129.768 179.707 129.953 179.716 130.137 179.716C130.744 179.716 131.351 179.614 131.935 179.404C154.684 171.208 166.24 163.144 171.939 157.798C171.997 157.816 172.057 157.831 172.118 157.847C172.562 157.964 173.013 158.021 173.461 158.021C174.975 158.021 176.444 157.371 177.466 156.194C186.751 145.495 192.857 133.373 195.614 120.162C197.37 111.749 197.754 103.053 196.764 94.2378C197.67 93.154 198.124 91.7298 197.97 90.2776C196.863 79.8346 193.567 71.1841 191.088 65.9067C191.824 64.5158 191.914 62.85 191.287 61.3671C191.208 61.1827 189.712 57.6609 187.745 54.1813C191.15 47.0709 193.017 40.1573 193.297 33.5976C193.596 26.6197 192.038 20.0792 188.791 14.6797C183.257 5.48729 173.12 0 161.669 0L161.673 0.00467622Z" fill="white"/>
<path d="M190.722 89.509C193.702 106.255 192.7 130.555 173.462 152.721C172.93 150.14 172.326 149.226 172.326 149.226C172.326 149.226 166.296 161.392 130.137 174.416C130.137 174.416 129.919 173.621 128.337 171.58C122.789 179.837 122.337 185.561 106.574 191.402C107.036 189.793 106.948 187.831 105.678 186.809C104.602 190.211 101.225 192.812 98.2505 194.7C98.5961 191.024 93.4792 187.364 93.4792 187.364C93.4792 187.364 94.3786 190.52 92.2177 193.322C83.735 182.218 74.4605 185.867 69.2543 171.568C67.6722 173.609 67.6577 174.416 67.6577 174.416C31.499 161.392 25.6735 149.227 25.6735 149.227C25.6735 149.227 25.0676 150.14 24.5377 152.721C5.30801 130.551 4.30522 106.25 7.28398 89.5095L5.30957 90.8391C7.01795 74.7519 14.3633 63.1782 14.3633 63.1782C13.5496 63.0187 11.6079 63.4385 11.6079 63.4385C11.6079 63.4385 13.851 58.1326 16.3273 54.429C-4.18992 15.7426 29.2357 -6.62065 56.7096 11.9429C64.0331 9.28059 77.233 7.46465 89.1511 9.93682C88.5645 8.88311 88.1244 7.82316 88.1244 7.82316C92.5076 8.37028 96.6149 10.4569 99.0128 11.5958C101.409 10.4569 105.515 8.37028 109.898 7.82316C109.898 7.82316 109.46 8.88311 108.872 9.93682C120.79 7.46517 133.99 9.28059 141.313 11.9429C168.788 -6.62013 202.213 15.7442 181.697 54.428C184.174 58.131 186.417 63.4375 186.417 63.4375C186.417 63.4375 184.473 63.0177 183.66 63.1772C183.66 63.1772 191.005 74.7493 192.71 90.8396L190.735 89.51L190.722 89.509Z" fill="#013C65"/>
<path d="M38.9906 14.9671C26.1803 15.0814 16.9297 26.2425 21.6397 38.9364C20.6442 27.4344 32.9665 17.951 45.2234 28.445C45.2234 28.445 31.9617 25.2589 30.0138 34.0253C33.5724 29.6026 42.5419 33.5665 39.7834 36.6201C32.9032 42.3219 26.9586 52.6512 25.8197 56.0139C25.8197 56.0139 29.8911 54.5679 32.0344 54.6355C25.6919 60.009 20.9933 71.5057 20.9933 71.5057C20.9933 71.5057 22.1811 70.6713 25.8197 69.668C25.561 70.0706 12.7008 94.9055 27.765 124.119L27.7681 124.107C28.9102 126.296 30.1909 128.376 31.5819 130.297C31.5819 130.297 33.1448 123.902 36.3516 120.507C37.6287 137.909 64.3954 149.951 64.3954 149.951C43.804 129.883 55.9117 109.773 55.9117 109.773C55.9117 109.773 54.5567 117.789 59.9354 124.12C64.8703 102.418 76.443 95.289 76.443 95.289C71.8764 101.271 70.9058 119.261 71.5667 127.044C72.0068 132.22 76.0876 136.07 80.359 136.018C86.33 135.945 91.6298 133.232 93.1553 131.688C93.1553 131.688 86.646 129.327 85.003 126.298C86.3295 126.545 87.9818 121.191 79.2554 121.005C78.6387 120.798 78.5504 120.36 78.7603 119.804L78.7509 119.806C81.552 105.554 86.8262 104.037 99.0405 104.037C111.255 104.037 116.529 105.554 119.331 119.806L119.32 119.804C119.53 120.36 119.442 120.798 118.825 121.005C110.098 121.191 111.751 126.545 113.078 126.298C111.434 129.327 104.926 131.688 104.926 131.688C106.451 133.232 111.751 135.946 117.72 136.018C121.992 136.07 126.074 132.22 126.514 127.044C127.175 119.261 126.204 101.271 121.638 95.289C121.638 95.289 133.209 102.419 138.145 124.12C143.525 117.788 142.17 109.773 142.17 109.773C142.17 109.773 154.277 129.883 133.686 149.951C133.686 149.951 160.452 137.909 161.729 120.507C164.936 123.901 166.499 130.297 166.499 130.297C167.89 128.376 169.171 126.296 170.312 124.107L170.316 124.119C185.367 94.918 172.522 70.0888 172.254 69.6732C175.885 70.6765 177.071 71.5088 177.071 71.5088C177.071 71.5088 172.373 60.0126 166.03 54.6386C168.174 54.571 172.245 56.017 172.245 56.017C171.106 52.6538 165.162 42.3251 158.282 36.6232C155.521 33.5696 164.493 29.6057 168.051 34.0284C166.103 25.262 152.841 28.4481 152.841 28.4481C165.096 17.9552 177.42 27.438 176.425 38.939C183.273 20.4757 160.589 5.253 140.376 22.554C140.376 22.554 126.781 18.826 115.277 20.9994C116.199 19.9 118.69 18.0383 118.69 18.0383C117.639 18.1724 108.018 18.5039 103.276 25.8663C103.276 25.8663 120.909 23.0741 129.975 31.3785C129.975 31.3785 118.118 27.4557 107.992 33.2225C107.992 33.2225 113.107 33.7748 115.01 35.3502C115.01 35.3502 110.038 35.7981 108.116 37.4446C115.917 37.4446 118.863 40.4301 118.863 40.4301C108.018 40.3688 100.012 46.7919 99.0343 47.8596C98.0559 46.7919 90.0502 40.3688 79.203 40.4301C79.203 40.4301 82.1511 37.4446 89.952 37.4446C88.0296 35.7981 83.0567 35.3502 83.0567 35.3502C84.9604 33.7748 90.0752 33.2225 90.0752 33.2225C79.9475 27.4557 68.0928 31.3785 68.0928 31.3785C77.1537 23.0715 94.7883 25.8632 94.7883 25.8632C90.0445 18.5007 80.4271 18.1692 79.3723 18.0352C79.3723 18.0352 81.8643 19.8974 82.7855 20.9963C71.2825 18.8229 57.6861 22.5509 57.6861 22.5509C51.3727 17.1452 44.8145 14.9151 38.9916 14.9671H38.9906ZM120.844 145.291C120.753 145.293 120.659 145.31 120.565 145.342C117.576 146.37 115.98 148.407 115.331 151.34C114.015 157.28 105.312 159.22 98.7693 159.22C92.2252 159.22 83.5212 157.281 82.2072 151.34C81.5681 148.457 80.013 146.44 77.122 145.396C76.3614 145.121 75.6511 145.928 76.0044 146.673C79.0835 153.164 78.6834 164.346 86.0916 167.351C89.0204 169.435 91.2458 167.475 93.4852 170.839C95.0278 169.143 93.7408 166.56 93.5184 166.147L93.5683 166.141C94.2323 166.585 98.8005 168.525 97.4267 172.242C100.754 170.873 103.456 168.158 104.315 165.224C105.329 166.104 105.428 167.96 105.033 169.46C105.033 169.46 109.116 169.619 114.409 164.46C119.095 159.892 119.059 152.441 121.687 146.598C121.981 145.946 121.479 145.276 120.844 145.291Z" fill="#F6B000"/>
<path d="M73.3576 68.6944C70.1642 68.5707 63.9376 70.9073 63.7334 77.3854C63.7334 77.3854 64.9196 74.9948 68.2464 74.6098C67.6629 79.1478 71.7791 80.9554 75.1667 80.4286C76.7099 80.1891 78.4131 79.868 78.6386 82.7319C81.7519 77.9782 86.8786 75.5861 85.1292 71.6222C80.7917 79.0512 74.5141 68.8934 74.5141 68.8934C74.2081 68.7801 73.8137 68.712 73.3576 68.6944ZM124.726 68.6944C124.27 68.712 123.875 68.7801 123.569 68.8934C123.569 68.8934 117.29 79.0501 112.954 71.6212C111.205 75.5845 116.332 77.9782 119.445 82.7319C119.669 79.868 121.374 80.188 122.915 80.4275C126.304 80.9544 130.419 79.1463 129.835 74.6088C133.161 74.9938 134.349 77.3854 134.349 77.3854H134.35C134.147 70.9062 127.918 68.5681 124.727 68.6928L124.726 68.6944ZM38.0874 70.3747C38.0874 70.3747 28.1525 81.6153 36.0496 105.578C37.1205 104.37 38.4121 103.258 39.9122 102.57C38.0573 113.365 45.6068 123.975 45.6068 123.975C46.9317 105.3 54.8709 99.465 54.8709 99.465C54.8709 99.465 50.9257 99.1761 47.6861 101.072V101.071C35.5996 89.4381 38.0858 70.3747 38.0858 70.3747H38.0874ZM159.917 70.3768C159.917 70.3768 162.404 89.4391 150.318 101.075C147.078 99.1787 143.132 99.4681 143.132 99.4681C143.132 99.4681 151.072 105.304 152.397 123.978C152.397 123.978 159.947 113.368 158.092 102.574C159.592 103.261 160.883 104.373 161.954 105.581C169.852 81.6184 159.917 70.3773 159.917 70.3773L159.917 70.3768Z" fill="#013C65"/>
<path d="M74.5032 73.1992C73.8974 73.5318 73.4698 74.1552 73.4334 74.8951C73.3752 76.0304 74.2486 76.9968 75.3839 77.0535C76.3098 77.1007 77.1162 76.5219 77.4155 75.6927C76.1856 75.2022 75.1657 74.3189 74.5032 73.1992ZM123.577 73.1992C122.914 74.3189 121.893 75.2022 120.663 75.6927C120.963 76.5219 121.768 77.1007 122.694 77.0535C123.83 76.9963 124.702 76.0304 124.646 74.8946C124.608 74.1552 124.18 73.5318 123.577 73.1992ZM90.2725 110.085C87.3208 110.151 84.5166 111.158 82.7931 114.056C87.3306 109.435 96.5724 115.371 98.645 115.371C100.718 115.371 109.96 109.435 114.496 114.056C111.048 108.26 103.282 110.024 98.645 111.764C96.3266 110.894 93.2253 110.019 90.273 110.085H90.2725ZM84.4631 142.112C84.2693 142.106 84.0729 142.182 84.0152 142.342C82.2694 147.165 85.3048 151.087 87.9292 151.286C89.9041 151.436 91.1745 150.612 91.269 149.375C92.1788 150.136 92.6823 151.161 92.8621 152.083C94.7237 152.477 96.7646 152.698 98.9064 152.698C101.05 152.698 103.08 152.473 104.922 152.077C105.061 151.156 105.515 150.135 106.387 149.375C106.541 150.612 107.867 151.441 109.817 151.286C112.408 151.081 115.387 147.165 113.38 142.342C113.248 142.022 112.575 142.041 112.508 142.367C112.1 144.348 109.149 146.91 107.566 147.549C106.936 147.805 106.576 148.221 106.437 148.69C104.429 149.384 101.855 149.866 98.8393 149.866C95.8268 149.866 93.2279 149.387 91.1864 148.693C91.0259 148.224 90.6471 147.805 90.0033 147.549C88.39 146.91 85.4045 144.348 84.8886 142.367C84.846 142.204 84.6563 142.117 84.4631 142.112Z" fill="white"/>
</svg>
