<svg width="201" height="201" viewBox="0 0 201 201" fill="none" xmlns="http://www.w3.org/2000/svg">
<g clip-path="url(#clip0_15016_302614)">
<path d="M30.3707 29.3814V48.7852H37.1566V36.4275L46.7609 48.7852H55.0861V29.3814H48.3002V41.7392L39.0644 29.3814H30.3707ZM64.3002 29.3814C62.0346 29.3814 60.2026 31.2134 60.2026 33.479V44.6443C60.2026 46.9099 62.0346 48.7418 64.3002 48.7418H81.1023C83.3679 48.7418 85.1999 46.9099 85.1999 44.6443V33.479C85.1999 31.2134 83.3679 29.3814 81.1023 29.3814H64.3002ZM90.2081 29.3814V48.7852H97.6118V42.6497H101.872L106.783 48.7852H115.346L110.436 42.6497H111.244C113.51 42.6497 115.353 40.8177 115.353 38.5522V33.5441C115.353 31.2785 113.51 29.4465 111.244 29.4465H90.2145L90.2081 29.3814ZM118.934 29.3814V33.9451H127.054V48.6876H134.457V33.9451H142.577V29.3814H118.945H118.934ZM146.143 29.3814V48.7852H153.547V41.8801H163.455V48.7852H170.858V29.3814H163.455V36.8936H153.547V29.3814H146.143ZM97.5793 33.5657H107.119C107.552 33.5657 107.905 33.9169 107.905 34.3516V37.4193C107.905 37.8529 107.552 38.2053 107.119 38.2053H97.5793V33.5657ZM68.311 33.828H76.8856C77.3203 33.828 77.6715 34.1792 77.6715 34.6128V43.2958C77.6715 43.7294 77.3203 44.0816 76.8856 44.0816H68.311C67.8763 44.0816 67.5251 43.7294 67.5251 43.2958V34.6128C67.5251 34.1792 67.8763 33.828 68.311 33.828ZM4.67959 53.9907C2.41401 53.9907 0.582031 55.8335 0.582031 58.099V73.3836H7.98584V67.7033H17.8937V73.3836H25.2975V58.099C25.2975 55.8335 23.4655 53.9907 21.1999 53.9907H4.72296H4.67959ZM30.3707 53.9907V73.3944H50.6417V68.6573H37.8503V54.0231H30.4465L30.3707 53.9907ZM57.6877 53.9907C55.4222 53.9907 53.5902 55.8335 53.5902 58.099V73.3836H60.994V67.7033H70.9018V73.3836H78.3056V58.099C78.3056 55.8335 76.4736 53.9907 74.2081 53.9907H57.7311H57.6877ZM83.3788 53.9907V73.3944H104.409C106.674 73.3944 108.506 71.5624 108.506 69.2968V67.5733C108.506 65.828 107.411 64.3429 105.883 63.7467C107.422 63.1527 108.506 61.6654 108.506 59.9202V58.1424C108.506 55.8768 106.674 54.034 104.409 54.034H83.3788V53.9907ZM117.634 53.9907C115.368 53.9907 113.536 55.8335 113.536 58.099V73.3836H120.94V67.7033H130.848V73.3836H138.251V58.099C138.251 55.8335 136.419 53.9907 134.154 53.9907H117.677H117.634ZM143.325 53.9907V73.3944H150.533V61.6871L157.059 69.3727L163.585 61.6871V73.3944H170.793V53.9907H163.39L157.059 61.698L150.728 53.9907H143.325ZM179.964 53.9907C177.699 53.9907 175.867 55.8335 175.867 58.099V73.3836H183.27V67.7033H193.178V73.3836H200.582V58.099C200.582 55.8335 198.75 53.9907 196.484 53.9907H180.008H179.964ZM90.7501 57.8714H100.246C100.675 57.8714 101.024 58.2194 101.024 58.6497V61.0237C101.024 61.454 100.675 61.802 100.246 61.802H90.7501V57.8779V57.8714ZM8.69044 58.4416H17.0265C17.4612 58.4416 17.8124 58.7928 17.8124 59.2275V63.4118H7.90453V59.2275C7.90453 58.7928 8.25684 58.4416 8.69044 58.4416ZM61.6986 58.4416H70.0346C70.4693 58.4416 70.8205 58.7928 70.8205 59.2275V63.4118H60.9126V59.2275C60.9126 58.7928 61.265 58.4416 61.6986 58.4416ZM121.644 58.4416H129.98C130.415 58.4416 130.766 58.7928 130.766 59.2275V63.4118H120.858V59.2275C120.858 58.7928 121.211 58.4416 121.644 58.4416ZM183.975 58.4416H192.311C192.746 58.4416 193.097 58.7928 193.097 59.2275V63.4118H183.189V59.2275C183.189 58.7928 183.54 58.4416 183.974 58.4416H183.975ZM90.7501 65.596H100.246C100.675 65.596 101.024 65.944 101.024 66.3744V68.4882C101.024 68.9185 100.675 69.2665 100.246 69.2665H90.7501V65.5917V65.596ZM100.517 80.8806C65.395 80.8806 36.9939 101.368 36.9939 126.734C36.9939 152.1 65.395 172.588 100.517 172.588C135.639 172.588 164.04 152.1 164.04 126.734C164.04 101.368 135.639 80.8806 100.517 80.8806Z" fill="#592B8A"/>
<path d="M100.832 84.6664C67.8776 84.6664 40.9941 103.637 40.9941 126.834C40.9941 150.141 67.8776 169.002 100.832 169.002C133.785 169.002 160.669 150.032 160.669 126.834C160.669 103.528 133.785 84.6664 100.832 84.6664ZM103.216 89.0025C114.924 89.2247 122.945 93.9997 121.428 100.168C121.258 100.878 120.963 101.577 120.567 102.26C114.594 96.2545 104.957 92.3954 93.1416 92.1136C90.2364 92.0462 87.3421 92.1996 84.4912 92.5483C89.0874 90.532 94.8326 89.2095 100.86 89.0144C101.671 88.9877 102.464 88.9821 103.245 88.9969L103.216 89.0025ZM130.425 94.4117C145.71 101.273 155.899 113.273 155.899 126.824C155.899 147.311 132.918 164.005 104.084 165.306C106.739 162.748 110.685 155.051 100.636 141.675C92.6364 131.051 96.6473 123.355 100.107 119.452C99.9687 119.929 99.8635 120.412 99.8028 120.905C99.044 127.116 105.147 131.962 113.461 131.745C114.719 131.712 115.944 131.556 117.136 131.308L110.329 136.847C114.372 139.568 116.952 144.175 116.757 149.205C116.736 149.717 116.687 150.221 116.613 150.712C118.564 151.484 121.035 152.143 123.973 152.327C127.127 150.809 130.26 148.522 132.287 145.097C131.934 145.215 131.577 145.321 131.217 145.414C129.418 145.878 127.77 145.951 126.372 145.691C123.922 143.685 122.567 141.355 121.852 139.198C122.705 134.721 127.662 130.059 133.234 128.628C136.984 127.662 140.074 128.403 141.635 130.309C141.644 130.453 141.654 130.597 141.654 130.747C141.654 132.112 141.293 133.522 140.676 134.812C143.256 134.012 145.728 132.026 146.92 129.587C147.147 129.12 147.308 128.665 147.419 128.221C145.879 125.608 143.516 124.579 143.516 124.579L144.064 123.321L145.037 123.296C145.034 123.294 145.031 123.292 145.028 123.291L149.006 123.171C149.006 123.171 142.849 117.621 137.841 114.477L140.312 112.472C136.106 108.493 131.152 106.195 127.629 104.948C129.418 103.117 130.643 100.851 130.946 98.4228C131.135 96.9268 130.954 95.5285 130.479 94.2602L130.425 94.4117ZM86.3058 96.287H86.3074C98.2315 96.2874 108.855 100.146 116.334 106.303C114.557 106.158 112.822 106.15 111.131 106.251L111.134 106.237C101.996 100.968 96.3918 104.09 96.3918 104.09C96.0276 104.938 95.9485 105.933 96.2347 107.028C96.7897 109.163 98.5653 111.223 100.907 112.708C100.713 112.757 100.519 112.807 100.318 112.84C98.4428 113.152 96.5349 112.75 94.8872 111.845C88.123 116.788 83.8303 124.637 83.7219 134.501C83.5203 145.666 88.6759 156.94 96.9469 165.612C78.5187 163.173 64.1013 149.677 63.0173 132.658C63.0027 132.43 63.0049 132.203 62.9951 131.974C60.8596 136.701 59.8081 141.893 60.1333 147.259C60.2721 149.557 60.6623 151.79 61.2607 153.936C51.7106 146.944 45.8678 137.459 45.8678 126.944C45.8678 110.034 64.0791 96.3754 86.4097 96.3754L86.3058 96.287ZM100.29 106.52L108.474 109.967C108.474 109.967 102.772 113.881 100.29 106.52ZM120.669 110.661C125.926 111.205 130.935 113.544 134.002 117.273H126.295C125.892 116.213 125.305 115.171 124.528 114.152C123.492 112.807 122.197 111.637 120.723 110.65L120.669 110.661Z" fill="white"/>
</g>
<defs>
<clipPath id="clip0_15016_302614">
<rect width="200" height="200" fill="white" transform="translate(0.78125 0.984375)"/>
</clipPath>
</defs>
</svg>
