<svg width="200" height="200" viewBox="0 0 200 200" fill="none" xmlns="http://www.w3.org/2000/svg">
<path d="M19.6338 78.1573L23.3413 82.2581V115.592H37.2295V92.9377L57.7777 115.592H65.2968L72.5142 102.711V78.1573H54.9172L58.6282 82.2581V98.7335L39.5014 78.1573H19.6338ZM84.1692 78.1573L87.882 82.2581L69.1209 115.592H79.991L89.9102 97.9912L93.182 97.9894L100.054 85.7927L113.293 109.335L98.8442 109.337L102.359 115.592H131.058L109.923 78.1571H84.1782L84.1692 78.1573ZM122.909 78.1573L126.614 82.2581V100.737L134.992 115.592H174.27V78.1573H156.613L160.325 82.2581V106.976H140.495V78.1573H122.909Z" fill="#002454"/>
<path d="M177.684 39.9915C177.685 39.992 177.685 39.9926 177.686 39.9932L177.69 39.9915H177.684ZM177.69 39.9915L177.688 39.995C177.687 39.9944 177.687 39.9938 177.686 39.9932C177.668 40.0039 131.115 67.4734 2.7543 57.1938C2.7543 57.1938 -7.08635 88.5661 10.4338 115.946C7.20765 84.4816 11.9048 66.9776 11.9048 66.9776C134.197 74.004 174.113 53.7559 174.113 53.7559L176.106 46.0834L174.114 53.7577C196.897 82.0397 186.744 125.705 174.4 143.383L177.593 160.006C199.346 137.097 214.589 76.0606 177.688 39.9986L177.69 39.9934L177.69 39.9915ZM174.402 143.383C174.402 143.383 148.736 125.907 103.224 126.48C100.189 126.519 97.0667 126.636 93.8579 126.845C93.8579 126.845 129.252 128.185 177.591 160.008L174.402 143.383ZM100.063 91.6221L94.9391 100.706H91.662L88.1308 106.975H108.714L100.063 91.6221Z" fill="#FAC01A"/>
</svg>
