<svg width="201" height="201" viewBox="0 0 201 201" fill="none" xmlns="http://www.w3.org/2000/svg">
<path d="M48.6422 28.5228V54.2881H60.6981V57.5489H20.7129V83.3141H29.4292V117.931H20.7129V143.696H60.6981V146.953H48.6422V172.722H98.4481V146.953H86.4585V143.696H112.26L127.196 172.722H149.709V143.696H164.48L180.975 127.202V73.991L164.476 57.5502H149.709V54.2893H161.732V28.5241H111.892V54.2893H123.948V57.5502H98.155L83.2156 28.522H48.6391L48.6422 28.5228ZM55.1972 83.3141H60.6981V117.931H55.1972V83.3141ZM111.413 83.3141H123.948V107.674L111.413 83.3141ZM149.709 83.3141H153.85L155.177 84.6532V116.538L153.801 117.931H149.709L149.709 83.3141ZM86.4578 93.5639L99.0012 117.933H86.4578V93.5639Z" fill="#C99700"/>
<path d="M51.9197 31.7971V51.007H63.9714V60.8228H23.9883V80.0369H32.7046V121.201H23.9883V140.415H63.9714V150.231H51.9197V169.441H95.17V150.231H83.1844V140.415H114.261L129.197 169.441H146.436V140.415H163.125L177.697 125.842V75.3464L163.125 60.8232H146.436V51.0074H158.455V31.7975H115.17V51.0074H127.226V60.8232H96.154L81.2218 31.7971H51.9197ZM51.9197 80.0371H63.9714V121.201H51.9197V80.0371ZM83.1846 80.0371L104.375 121.201H83.1846V80.0371ZM106.04 80.0371H127.226V121.201L106.04 80.0371ZM146.436 80.0371H155.218L158.455 83.3022V117.887L155.169 121.202H146.436V80.0371Z" fill="#0C2340"/>
</svg>
