<svg width="201" height="200" viewBox="0 0 201 200" fill="none" xmlns="http://www.w3.org/2000/svg">
<path d="M157.999 46.7446L126.851 15.6547C126.826 15.6297 126.795 15.6172 126.759 15.6172H77.4005C77.3612 15.6172 77.3236 15.6324 77.2955 15.6597L45.7071 46.6821C45.6887 46.7005 45.6783 46.7252 45.6783 46.7508L45.7333 71.0389C45.7333 71.0614 45.7262 71.0833 45.7129 71.1015C45.6997 71.1197 45.681 71.1332 45.6596 71.1401C35.4575 74.3792 25.4278 78.1456 15.9618 83.1817C15.9235 83.2025 15.9043 83.2346 15.9043 83.2779V88.284C15.9041 88.2902 15.9056 88.2963 15.9086 88.3018C15.9116 88.3072 15.916 88.3118 15.9214 88.315C15.9267 88.3182 15.9328 88.3199 15.9391 88.3199C15.9453 88.3199 15.9514 88.3183 15.9568 88.3152C20.503 85.7322 25.2741 83.5791 30.1228 81.6384C36.8525 78.945 43.6935 76.574 50.6456 74.5254C50.6865 74.5137 50.7069 74.4866 50.7069 74.4442V49.0689C50.7069 49.0192 50.7267 48.9716 50.7619 48.9364L79.4449 20.7332C79.4749 20.7032 79.5112 20.6882 79.5537 20.6882L124.51 20.6445C124.593 20.6445 124.673 20.6773 124.732 20.7357L153.056 48.7315C153.078 48.7533 153.096 48.7792 153.107 48.8078C153.119 48.8363 153.125 48.8668 153.125 48.8977L153.085 74.3354C153.085 74.3779 153.106 74.405 153.146 74.4167C162.205 77.0692 171.026 80.3575 179.61 84.2813C182.162 85.4477 184.653 86.6944 187.084 88.0215C187.14 88.0524 187.168 88.0357 187.168 87.9715V83.0667C187.168 83.024 187.156 82.9822 187.134 82.9456C187.112 82.9091 187.081 82.8792 187.043 82.8593C177.836 77.9794 168.083 74.2792 158.144 71.1663C158.105 71.1547 158.086 71.1289 158.086 71.0889L158.044 46.852C158.044 46.8322 158.04 46.8125 158.032 46.7941C158.024 46.7756 158.013 46.7588 157.999 46.7446Z" stroke="#D8DBDE" stroke-width="2"/>
<path d="M65.7878 70.7303C69.5384 70.0155 73.3086 69.3745 77.0983 68.8071C77.1458 68.8005 77.1695 68.773 77.1695 68.7246V60.0746C77.1696 60.0501 77.1744 60.0258 77.1839 60.0033C77.1933 59.9808 77.2071 59.9604 77.2245 59.9434L90.3445 47.1395C90.3822 47.1027 90.4325 47.0821 90.4845 47.0821L113.622 47.0833C113.664 47.0833 113.705 47.0999 113.735 47.1295L126.573 59.9934C126.626 60.0463 126.655 60.1178 126.655 60.1921V68.6684C126.656 68.6897 126.663 68.7103 126.677 68.7263C126.691 68.7424 126.711 68.7529 126.732 68.7559C134.063 69.7889 141.302 71.2672 148.449 73.1909C148.499 73.2042 148.524 73.185 148.524 73.1334V51.1434C148.524 51.1092 148.512 51.0801 148.488 51.0559L122.744 25.3058C122.733 25.2943 122.719 25.2852 122.704 25.279C122.688 25.2727 122.672 25.2695 122.655 25.2695H81.4233C81.384 25.2695 81.3464 25.2848 81.3184 25.312L55.3895 50.851C55.3515 50.8882 55.3213 50.9326 55.3007 50.9818C55.2801 51.0309 55.2695 51.0837 55.2695 51.1372V73.1609C55.2695 73.1707 55.2718 73.1805 55.2762 73.1893C55.2806 73.1981 55.287 73.2058 55.2949 73.2117C55.3028 73.2177 55.3119 73.2217 55.3216 73.2235C55.3313 73.2253 55.3413 73.2248 55.3508 73.2221C58.7823 72.2707 62.2521 71.4509 65.7603 70.7628C65.7653 70.762 65.7682 70.7591 65.769 70.7541C65.7699 70.7516 65.7703 70.7491 65.7703 70.7466C65.7728 70.7374 65.7786 70.732 65.7878 70.7303Z" stroke="#E7879E" stroke-width="2"/>
<path d="M109.661 56.6729C109.673 56.673 109.683 56.6775 109.691 56.6854L117.052 63.9984C117.06 64.0063 117.064 64.0171 117.064 64.0284V67.5448C117.064 67.5553 117.068 67.5654 117.075 67.5733C117.082 67.5811 117.091 67.5861 117.102 67.5873L122.046 68.1934C122.052 68.1941 122.058 68.1936 122.064 68.1918C122.07 68.1901 122.075 68.1872 122.079 68.1833C122.084 68.1794 122.087 68.1746 122.09 68.1693C122.092 68.1639 122.094 68.1581 122.094 68.1522V62.0427C122.094 62.0314 122.089 62.0206 122.081 62.0127L111.792 51.6844C111.784 51.6764 111.773 51.6719 111.762 51.6719H92.3412C92.3299 51.6719 92.3192 51.6764 92.3112 51.6844L81.7742 62.0014C81.7662 62.0094 81.7617 62.0202 81.7617 62.0314V68.0847C81.7617 68.0906 81.7629 68.0965 81.7653 68.1019C81.7676 68.1073 81.7711 68.1121 81.7755 68.1161C81.7798 68.1201 81.7849 68.1232 81.7905 68.1251C81.7961 68.127 81.8021 68.1277 81.808 68.1272L86.6903 67.6786C86.7009 67.6776 86.7108 67.6727 86.718 67.6649C86.7251 67.657 86.7291 67.6467 86.7291 67.6361V64.0646C86.7291 64.0533 86.7336 64.0425 86.7415 64.0346L94.2731 56.6779C94.2811 56.67 94.2919 56.6655 94.3031 56.6654L109.661 56.6729Z" stroke="#D8DBDE" stroke-width="2"/>
<path d="M98.3596 132.054C98.349 132.054 98.3388 132.05 98.3313 132.042C98.3238 132.035 98.3196 132.025 98.3196 132.014V112.506C98.3196 112.495 98.3154 112.485 98.3079 112.478C98.3004 112.47 98.2902 112.466 98.2796 112.466H91.3616C91.3563 112.466 91.3511 112.467 91.3463 112.469C91.3414 112.471 91.337 112.474 91.3333 112.478C91.3296 112.481 91.3266 112.486 91.3246 112.491C91.3226 112.495 91.3216 112.501 91.3216 112.506V133.86C91.322 133.87 91.3265 133.88 91.3341 133.887L96.1327 138.598C96.1401 138.606 96.1499 138.61 96.1602 138.61L107.794 138.687C107.805 138.687 107.815 138.682 107.822 138.675L112.539 133.905C112.546 133.897 112.55 133.888 112.551 133.877L112.417 99.7133C112.417 99.7079 112.416 99.7026 112.413 99.6976C112.411 99.6927 112.408 99.6882 112.404 99.6845L107.318 94.8072C107.311 94.8 107.301 94.796 107.291 94.7959L98.517 94.7822C98.5118 94.7822 98.5066 94.7811 98.5017 94.7791C98.4969 94.7771 98.4924 94.7742 98.4887 94.7705C98.485 94.7667 98.4821 94.7623 98.4801 94.7575C98.4781 94.7526 98.477 94.7474 98.477 94.7422L98.4758 68.6096C98.4758 68.599 98.48 68.5889 98.4875 68.5814C98.495 68.5739 98.5052 68.5696 98.5158 68.5696L105.478 68.5759C105.488 68.5759 105.498 68.5801 105.506 68.5876C105.513 68.5951 105.518 68.6053 105.518 68.6159L105.544 85.3711C105.544 85.3764 105.545 85.3816 105.547 85.3864C105.549 85.3913 105.552 85.3957 105.555 85.3994C105.559 85.4031 105.564 85.406 105.568 85.408C105.573 85.4101 105.578 85.4111 105.584 85.4111H112.429C112.435 85.4111 112.44 85.4101 112.445 85.408C112.449 85.406 112.454 85.4031 112.458 85.3994C112.461 85.3957 112.464 85.3913 112.466 85.3864C112.468 85.3816 112.469 85.3764 112.469 85.3711L112.473 65.9804C112.473 65.9701 112.469 65.9603 112.462 65.9529L107.771 61.3042C107.763 61.2971 107.753 61.293 107.743 61.293H96.1414C96.1312 61.293 96.1213 61.2971 96.1139 61.3042L91.3378 66.0041C91.3302 66.0113 91.3257 66.0212 91.3253 66.0316L91.3203 97.945C91.3204 97.9504 91.3215 97.9557 91.3236 97.9607C91.3258 97.9656 91.3289 97.9701 91.3328 97.9738L96.5126 102.895C96.52 102.902 96.5298 102.906 96.5401 102.906L105.238 102.909C105.248 102.909 105.258 102.913 105.266 102.92C105.273 102.928 105.278 102.938 105.278 102.949L105.335 132.015C105.335 132.026 105.331 132.036 105.323 132.044C105.316 132.051 105.306 132.055 105.295 132.055L98.3596 132.054Z" stroke="#808080" stroke-width="2"/>
<path d="M119.688 123.965L120.597 124.084" stroke="#E7879E" stroke-width="2"/>
<path d="M120.598 124.082L122.718 124.404" stroke="#808080" stroke-width="2"/>
<path d="M122.717 124.402C122.95 124.482 123.18 124.508 123.408 124.48" stroke="#D8DBDE" stroke-width="2"/>
<path d="M123.407 124.482L125.759 124.864C125.807 124.872 125.831 124.852 125.831 124.804L125.616 79.6896C125.616 79.6038 125.658 79.5676 125.743 79.5809L130.62 80.3394C130.628 80.3405 130.635 80.3401 130.642 80.338C130.649 80.336 130.655 80.3325 130.661 80.3277C130.666 80.323 130.671 80.3171 130.674 80.3105C130.676 80.3039 130.678 80.2967 130.678 80.2895L130.684 73.6976C130.684 73.6426 130.657 73.611 130.604 73.6026C125.121 72.6804 119.606 72.0043 114.061 71.5745C114.054 71.5738 114.047 71.5746 114.04 71.577C114.033 71.5794 114.026 71.5832 114.021 71.5883C114.016 71.5934 114.011 71.5995 114.008 71.6064C114.005 71.6133 114.004 71.6207 114.004 71.6282L114.043 78.1738C114.043 78.1886 114.048 78.2028 114.058 78.2137C114.069 78.2246 114.083 78.2313 114.098 78.2326L118.738 78.7262C118.79 78.732 118.816 78.7612 118.816 78.8136L118.811 123.775C118.811 123.82 118.834 123.847 118.879 123.853L119.686 123.963" stroke="#808080" stroke-width="2"/>
<path d="M123.408 124.48L122.717 124.402" stroke="#585C5E" stroke-width="2"/>
<path d="M120.597 124.084L119.688 123.965" stroke="#67081F" stroke-width="2"/>
<path d="M69.2572 123.373C70.2419 124.274 71.2283 125.164 72.2163 126.042C72.2348 126.059 72.2572 126.071 72.2816 126.077C72.306 126.083 72.3316 126.083 72.3563 126.077C75.7778 125.284 79.2281 124.64 82.7071 124.146C82.7621 124.137 82.8066 124.111 82.8408 124.067L85.9037 120.04C85.9287 120.008 85.9412 119.971 85.9412 119.93L86.0849 76.789C86.0849 76.7677 86.0805 76.7465 86.0722 76.7267C86.0638 76.707 86.0516 76.6891 86.0361 76.6741L81.7474 72.4528C81.7099 72.4161 81.6653 72.4011 81.6137 72.4078C78.6153 72.7752 75.6262 73.2071 72.6462 73.7037C72.6078 73.7101 72.5733 73.7312 72.55 73.7624L68.8248 78.6535C68.8015 78.6827 68.7898 78.716 68.7898 78.7535C68.7998 93.411 68.8152 108.068 68.836 122.723C68.8373 123.12 68.9972 123.137 69.2572 123.373ZM142.671 105.388L142.684 129.257C142.684 129.297 142.702 129.323 142.74 129.337L148.882 131.643C148.914 131.655 148.929 131.644 148.929 131.611V83.4696C148.929 83.2868 148.883 83.1071 148.794 82.9473L145.339 76.7216C145.326 76.6979 145.308 76.6772 145.286 76.6609C145.264 76.6445 145.239 76.6329 145.213 76.6266C142.329 75.916 139.429 75.2749 136.514 74.7034C136.473 74.6951 136.438 74.7051 136.407 74.7334L132.293 78.5023C132.262 78.5306 132.247 78.5656 132.247 78.6073V126.189C132.247 126.22 132.263 126.24 132.294 126.249L138.471 127.857C138.511 127.868 138.531 127.852 138.531 127.811L138.56 104.174C138.56 104.17 138.561 104.167 138.562 104.163C138.564 104.16 138.567 104.157 138.57 104.155C138.573 104.153 138.576 104.151 138.58 104.151C138.584 104.15 138.587 104.15 138.591 104.151L142.596 105.29C142.646 105.304 142.671 105.337 142.671 105.388ZM58.9939 76.6391L58.8576 129.958C58.8576 129.996 58.8756 130.009 58.9114 129.998L65.2808 127.919C65.3125 127.909 65.3283 127.887 65.3283 127.853V91.936C65.3283 91.9179 65.3326 91.9004 65.3408 91.8847C65.3533 91.8622 65.3595 91.8381 65.3595 91.8123V75.142C65.3595 75.1357 65.358 75.1295 65.3553 75.1238C65.3526 75.1182 65.3486 75.1132 65.3437 75.1092C65.3388 75.1053 65.3331 75.1025 65.3269 75.101C65.3208 75.0996 65.3145 75.0995 65.3083 75.1008L59.0826 76.5279C59.0573 76.5335 59.0348 76.5477 59.0187 76.5679C59.0025 76.5881 58.9938 76.6132 58.9939 76.6391ZM49.2929 108.351L49.3591 133.904C49.3592 133.906 49.3597 133.907 49.3606 133.909C49.3614 133.91 49.3626 133.912 49.3641 133.913C49.3655 133.914 49.3672 133.914 49.3689 133.915C49.3707 133.915 49.3724 133.915 49.3741 133.914L55.4536 131.291C55.4699 131.284 55.4839 131.272 55.4936 131.257C55.5034 131.242 55.5086 131.225 55.5086 131.207L55.5236 77.6001C55.5236 77.5476 55.4982 77.5276 55.4474 77.5401C53.2705 78.0824 51.1157 78.7006 48.983 79.3945C48.9455 79.407 48.9267 79.4333 48.9267 79.4733V101.092C48.9267 101.138 48.9055 101.169 48.863 101.186L44.7317 102.775C44.7209 102.78 44.7093 102.781 44.6977 102.78C44.6862 102.778 44.6752 102.774 44.6656 102.768C44.656 102.761 44.6481 102.752 44.6426 102.742C44.6372 102.731 44.6343 102.72 44.6342 102.708L44.5492 80.7841C44.5493 80.7795 44.5483 80.7748 44.5461 80.7707C44.544 80.7665 44.5409 80.7629 44.5371 80.7602C44.5333 80.7575 44.5289 80.7557 44.5242 80.7551C44.5196 80.7545 44.5149 80.755 44.5105 80.7567L38.1585 82.9748C38.1375 82.982 38.1191 82.9957 38.1062 83.0138C38.0932 83.032 38.0861 83.0537 38.0861 83.076V140.295C38.0861 140.332 38.1019 140.341 38.1336 140.321C40.3638 138.913 42.6306 137.566 44.9341 136.281C44.9534 136.27 44.9695 136.255 44.9807 136.236C44.9919 136.217 44.9978 136.195 44.9978 136.173L44.9254 110.07C44.9245 110.02 44.9474 109.985 44.9941 109.967L49.2154 108.299C49.267 108.278 49.2929 108.295 49.2929 108.351ZM162.729 89.0093L168.668 91.3236C168.713 91.342 168.736 91.3266 168.736 91.2774V84.2519C168.736 84.2086 168.716 84.1786 168.676 84.1619C162.939 81.7676 157.201 80.0181 151.1 78.2186C151.066 78.2086 151.049 78.2216 151.049 78.2574L151.095 85.0942C151.095 85.1333 151.114 85.1587 151.151 85.1704L156.192 86.7275C156.204 86.7307 156.213 86.7376 156.22 86.747C156.227 86.7565 156.231 86.768 156.231 86.7799L156.269 134.797C156.269 134.839 156.287 134.87 156.325 134.889C158.463 135.933 160.536 137.091 162.546 138.363C162.585 138.388 162.604 138.377 162.604 138.331L162.651 89.063C162.651 89.0072 162.677 88.9893 162.729 89.0093ZM178.046 154.603V128.142C178.046 128.08 178.073 128.064 178.127 128.094L187.089 133.129C187.121 133.148 187.137 133.138 187.137 133.1V124.959C187.137 124.915 187.118 124.882 187.08 124.859C184.032 123.07 180.944 121.351 177.819 119.701C177.783 119.681 177.765 119.652 177.765 119.612V95.5574C177.765 95.5083 177.787 95.4945 177.831 95.5162C180.944 97.0558 184.027 98.6516 187.08 100.304C187.116 100.323 187.135 100.311 187.136 100.27C187.149 97.9297 187.162 95.5895 187.175 93.2493C187.176 93.1735 187.161 92.9998 187.131 92.7282C187.127 92.6891 187.108 92.6595 187.074 92.6395C181.908 89.6904 176.856 87.5922 170.941 85.0942C170.907 85.08 170.891 85.0913 170.891 85.1279L171.063 157.8C171.063 157.876 171.094 157.938 171.154 157.985C176.554 162.106 181.864 166.341 187.082 170.69C187.087 170.694 187.093 170.696 187.099 170.697C187.106 170.698 187.112 170.697 187.118 170.694C187.123 170.692 187.128 170.688 187.132 170.682C187.135 170.677 187.137 170.671 187.137 170.665V162.075C187.137 162.031 187.121 161.996 187.087 161.97L178.096 154.708C178.063 154.681 178.046 154.646 178.046 154.603ZM15.8687 165.887L21.0222 169.344C21.0597 169.368 21.0972 169.369 21.1347 169.346L30.7069 163.549C30.7574 163.519 30.7975 163.475 30.8219 163.422C31.7908 161.35 32.7651 159.263 33.7448 157.161C33.8298 156.979 33.8727 156.787 33.8735 156.585C33.9152 134.434 33.9348 112.282 33.9323 90.129C33.9323 90.0757 33.9106 90.0332 33.8673 90.0015L29.1736 86.5725C29.1551 86.5585 29.1329 86.5498 29.1096 86.5474C29.0863 86.545 29.0626 86.5489 29.0411 86.5588C25.7296 88.0508 22.4705 89.6504 19.2639 91.3574C19.1866 91.3989 19.1239 91.4625 19.084 91.5398C18.0393 93.5409 16.9896 95.5424 15.9349 97.5444C15.8524 97.701 15.8112 97.868 15.8112 98.0455C15.8103 120.623 15.8103 143.202 15.8112 165.781C15.8112 165.827 15.8303 165.862 15.8687 165.887Z" stroke="#808080" stroke-width="2"/>
<path d="M81.7617 137.913C81.7617 137.925 81.764 137.936 81.7685 137.947C81.7731 137.958 81.7797 137.967 81.788 137.975L92.16 148.14C92.1761 148.156 92.1975 148.165 92.22 148.165L111.707 148.304C111.719 148.304 111.73 148.301 111.741 148.297C111.752 148.292 111.761 148.286 111.769 148.277L122.091 137.857C122.107 137.84 122.116 137.818 122.116 137.795L122.148 128.324C122.148 128.303 122.14 128.283 122.127 128.267C122.113 128.251 122.094 128.24 122.073 128.237L117.308 127.532C117.295 127.53 117.283 127.531 117.271 127.535C117.259 127.538 117.248 127.544 117.238 127.552C117.229 127.561 117.221 127.571 117.216 127.582C117.211 127.594 117.208 127.606 117.208 127.618L117.224 135.73C117.224 135.741 117.222 135.753 117.218 135.764C117.214 135.774 117.207 135.784 117.199 135.792L109.867 143.143C109.851 143.159 109.829 143.168 109.806 143.168L94.2881 143.215C94.2653 143.215 94.2433 143.206 94.2269 143.19L86.7553 135.922C86.7468 135.914 86.7401 135.904 86.7356 135.893C86.7311 135.882 86.7289 135.87 86.7291 135.859V127.662C86.729 127.65 86.7263 127.638 86.7212 127.627C86.7161 127.615 86.7087 127.605 86.6995 127.597C86.6903 127.589 86.6795 127.583 86.6678 127.579C86.6561 127.576 86.6438 127.574 86.6316 127.576L81.8392 128.117C81.8178 128.119 81.798 128.13 81.7837 128.146C81.7694 128.162 81.7616 128.183 81.7617 128.204V137.913Z" stroke="#D8DBDE" stroke-width="2"/>
<path d="M90.2495 152.707L77.2145 139.841C77.1836 139.811 77.1682 139.775 77.1682 139.733L77.1695 129.088C77.1695 129.034 77.1428 129.012 77.0895 129.022C69.6816 130.474 62.3375 132.572 55.3669 135.513C55.3319 135.528 55.3145 135.554 55.3145 135.593L55.3369 148.904C55.3369 148.947 55.3524 148.984 55.3832 149.015L81.2283 174.473C81.2378 174.482 81.2491 174.49 81.2616 174.495C81.274 174.5 81.2873 174.503 81.3008 174.503L122.754 174.829C122.796 174.83 122.833 174.815 122.863 174.784L148.489 148.875C148.512 148.851 148.524 148.822 148.524 148.789V135.558C148.524 135.521 148.507 135.496 148.474 135.483C141.457 132.549 134.211 130.372 126.737 128.951C126.703 128.944 126.687 128.958 126.687 128.992V139.642C126.687 139.707 126.661 139.77 126.614 139.818L113.91 152.827C113.85 152.888 113.777 152.919 113.69 152.918L90.3507 152.749C90.3116 152.748 90.2778 152.734 90.2495 152.707Z" stroke="#E7879E" stroke-width="2"/>
<path d="M38.1909 150.849C40.6202 148.92 42.9883 146.988 45.6213 145.328C45.6268 145.325 45.6333 145.323 45.6399 145.322C45.6465 145.322 45.6531 145.324 45.6589 145.327C45.6647 145.33 45.6695 145.335 45.6728 145.341C45.6761 145.346 45.6777 145.353 45.6775 145.36V152.743C45.6775 152.791 45.6968 152.839 45.7313 152.874L77.3885 184.357C77.4193 184.387 77.4555 184.402 77.4972 184.402L126.478 184.427C126.525 184.427 126.572 184.418 126.615 184.4C126.659 184.382 126.699 184.356 126.732 184.322L158.005 153.002C158.02 152.988 158.032 152.971 158.04 152.952C158.048 152.933 158.052 152.913 158.052 152.892V145.668C158.052 145.661 158.054 145.654 158.057 145.648C158.061 145.641 158.066 145.636 158.073 145.633C158.079 145.629 158.086 145.627 158.094 145.627C158.101 145.628 158.108 145.63 158.114 145.633C161.447 147.601 164.609 149.813 167.599 152.27C167.649 152.311 167.674 152.299 167.674 152.234V146.604C167.674 146.583 167.669 146.562 167.66 146.543C167.65 146.524 167.637 146.507 167.62 146.494C163.094 143.053 158.368 140.014 153.228 137.526C153.164 137.495 153.132 137.515 153.132 137.587L153.108 150.702C153.108 150.735 153.095 150.766 153.072 150.791L124.736 179.396C124.707 179.425 124.672 179.439 124.632 179.439C109.76 179.454 94.8872 179.447 80.014 179.42C79.6991 179.419 79.5079 179.546 79.2392 179.279C69.7352 169.829 60.2413 160.385 50.7573 150.946C50.724 150.912 50.7073 150.873 50.7073 150.827V137.576C50.7074 137.569 50.7057 137.562 50.7024 137.556C50.6992 137.55 50.6944 137.545 50.6887 137.542C50.6829 137.538 50.6763 137.536 50.6695 137.535C50.6627 137.535 50.656 137.536 50.6499 137.539C46.2478 139.633 42.0769 142.115 38.1372 144.985C38.103 145.01 38.0859 145.043 38.0859 145.086V150.798C38.0859 150.888 38.1209 150.905 38.1909 150.849Z" stroke="#D8DBDE" stroke-width="2"/>
<path d="M75.3509 80.3155C75.3414 80.317 75.3328 80.3218 75.3266 80.3292C75.3204 80.3365 75.317 80.3458 75.3172 80.3554L75.1672 118.691C75.1671 118.697 75.1683 118.703 75.1708 118.708C75.1732 118.713 75.1769 118.718 75.1814 118.722C75.186 118.726 75.1913 118.729 75.1971 118.73C75.2028 118.732 75.2088 118.732 75.2147 118.731L79.5859 117.912C79.5952 117.91 79.6035 117.905 79.6095 117.898C79.6154 117.891 79.6186 117.882 79.6184 117.872L79.451 79.7669C79.451 79.7612 79.4498 79.7555 79.4475 79.7503C79.4452 79.7451 79.4418 79.7404 79.4375 79.7367C79.4333 79.7329 79.4283 79.73 79.4228 79.7284C79.4174 79.7267 79.4116 79.7262 79.406 79.7269L75.3509 80.3155ZM138.62 97.2294C138.62 97.2379 138.623 97.2462 138.628 97.253C138.634 97.2598 138.641 97.2647 138.649 97.2669L142.477 98.2378C142.482 98.2394 142.489 98.2396 142.494 98.2384C142.5 98.2372 142.506 98.2347 142.51 98.2311C142.515 98.2275 142.519 98.2228 142.522 98.2175C142.524 98.2122 142.525 98.2063 142.525 98.2004V82.9772C142.525 82.9685 142.522 82.96 142.517 82.9532C142.512 82.9464 142.504 82.9417 142.495 82.9397L138.668 81.9862C138.662 81.9849 138.656 81.9849 138.651 81.9862C138.645 81.9874 138.64 81.99 138.635 81.9936C138.631 81.9972 138.627 82.0017 138.624 82.007C138.622 82.0122 138.62 82.0179 138.62 82.0237V97.2294ZM22.6222 97.1769C22.6157 97.1802 22.6103 97.1852 22.6066 97.1914C22.6028 97.1975 22.6009 97.2047 22.6009 97.2119L22.5859 160.986C22.5859 160.993 22.5878 161 22.5914 161.006C22.5949 161.012 22.6001 161.017 22.6062 161.02C22.6124 161.024 22.6193 161.025 22.6263 161.025C22.6333 161.025 22.6401 161.023 22.6459 161.019L27.4158 157.777C27.421 157.774 27.4253 157.769 27.4284 157.764C27.4314 157.758 27.4331 157.752 27.4333 157.746V94.7001C27.4332 94.6936 27.4314 94.6871 27.4281 94.6815C27.4248 94.6758 27.4201 94.6711 27.4145 94.6677C27.4089 94.6643 27.4025 94.6624 27.396 94.6622C27.3894 94.662 27.3829 94.6634 27.3771 94.6664L22.6222 97.1769Z" stroke="#808080" stroke-width="2"/>
<path d="M40.4061 154.992L34.3341 166.772C34.3124 166.813 34.282 166.845 34.2429 166.868L21.0441 174.837C21.0058 174.86 20.9683 174.859 20.9317 174.835L10.9508 168.344C10.9133 168.32 10.8945 168.286 10.8945 168.241C10.9362 148.964 10.9599 134.983 10.9658 126.299C10.9683 122.456 10.9749 118.613 10.9858 114.771C11.0157 104.216 11.032 93.6373 11.0345 83.0337C11.0345 82.4763 11.092 81.3879 11.0345 80.5631C11.0315 80.521 11.0411 80.4788 11.0623 80.4421C11.0834 80.4054 11.1151 80.3757 11.1532 80.3569C20.8596 75.5441 30.8288 71.3553 41.0609 67.7905C41.0805 67.7839 41.0974 67.7713 41.1093 67.7544C41.1212 67.7376 41.1275 67.7174 41.1272 67.6968L41.0797 44.8533C41.0797 44.8075 41.0963 44.7683 41.1297 44.7358L75.4236 11.0567C75.4528 11.0275 75.4882 11.0096 75.5298 11.003C75.6936 10.978 75.8385 11.0292 75.9747 11.0292H128.585C128.685 11.0292 128.792 11.0925 128.906 11.2192C129.014 11.34 129.072 11.4045 129.081 11.4128C140.26 22.5522 151.432 33.6998 162.596 44.8558C162.622 44.8816 162.635 44.9129 162.635 44.9495L162.679 67.753C162.679 67.7897 162.696 67.8138 162.731 67.8255C165.84 68.8594 168.757 69.9337 171.48 71.0483C178.263 73.8242 185.004 76.8604 191.702 80.157C191.745 80.1786 191.767 80.2136 191.767 80.262L191.75 180.577C191.75 180.588 191.747 180.599 191.741 180.608C191.735 180.617 191.727 180.624 191.717 180.629C191.707 180.634 191.696 180.635 191.685 180.634C191.674 180.633 191.664 180.629 191.655 180.622C183.522 174.069 175.365 167.516 167.059 161.176C167.024 161.149 166.995 161.154 166.971 161.193C161 157.182 160.836 157.511 155.753 161.825C159.545 158.426 155.743 161.814 155.736 161.811C155.729 161.808 155.722 161.806 155.715 161.805C155.707 161.805 155.693 161.809 155.693 161.809C155.686 161.812 158.536 159.106 155.674 161.821L128.635 188.727C128.55 188.811 128.452 188.853 128.342 188.853L75.6061 188.998C75.5588 188.998 75.5135 188.98 75.4799 188.947L40.5048 154.976C40.4978 154.969 40.4894 154.964 40.4801 154.961C40.4708 154.958 40.461 154.957 40.4514 154.959C40.4418 154.961 40.4327 154.964 40.4249 154.97C40.417 154.976 40.4106 154.983 40.4061 154.992ZM158 46.749L126.853 15.6591C126.827 15.6341 126.796 15.6216 126.76 15.6216H77.4018C77.3625 15.6217 77.3249 15.6369 77.2968 15.6641L45.7084 46.6865C45.69 46.705 45.6796 46.7297 45.6796 46.7553L45.7346 71.0433C45.7346 71.0658 45.7275 71.0878 45.7142 71.106C45.701 71.1242 45.6823 71.1377 45.6609 71.1446C35.4588 74.3836 25.4291 78.1501 15.9631 83.1861C15.9248 83.2069 15.9056 83.239 15.9056 83.2823V88.2884C15.9054 88.2946 15.9069 88.3008 15.9099 88.3062C15.9129 88.3117 15.9173 88.3162 15.9227 88.3194C15.928 88.3226 15.9341 88.3243 15.9404 88.3243C15.9466 88.3244 15.9527 88.3228 15.9581 88.3197C20.5043 85.7366 25.2754 83.5835 30.124 81.6428C36.8538 78.9494 43.6948 76.5784 50.6469 74.5298C50.6878 74.5182 50.7082 74.4911 50.7082 74.4486V49.0734C50.7082 49.0237 50.728 48.976 50.7632 48.9409L79.4462 20.7377C79.4762 20.7077 79.5125 20.6927 79.5549 20.6927L124.511 20.649C124.594 20.649 124.674 20.6818 124.733 20.7402L153.058 48.736C153.08 48.7578 153.097 48.7837 153.109 48.8122C153.12 48.8407 153.126 48.8713 153.126 48.9022L153.086 74.3399C153.086 74.3824 153.107 74.4095 153.148 74.4211C162.206 77.0737 171.027 80.3619 179.611 84.2858C182.163 85.4521 184.655 86.6989 187.086 88.026C187.141 88.0568 187.169 88.0401 187.169 87.976V83.0712C187.169 83.0285 187.158 82.9866 187.136 82.9501C187.114 82.9136 187.082 82.8837 187.044 82.8637C177.837 77.9839 168.085 74.2837 158.145 71.1708C158.107 71.1591 158.088 71.1333 158.088 71.0933L158.045 46.8565C158.045 46.8367 158.041 46.817 158.033 46.7985C158.026 46.7801 158.014 46.7633 158 46.749ZM65.7876 70.7359C69.5382 70.0211 73.3084 69.3801 77.0981 68.8127C77.1456 68.8061 77.1694 68.7786 77.1694 68.7302V60.0802C77.1694 60.0557 77.1743 60.0314 77.1837 60.0089C77.1932 59.9864 77.207 59.966 77.2244 59.949L90.3444 47.1452C90.3821 47.1083 90.4323 47.0877 90.4843 47.0877L113.621 47.0889C113.664 47.0889 113.705 47.1055 113.735 47.1352L126.573 59.999C126.626 60.0519 126.655 60.1234 126.655 60.1977V68.674C126.655 68.6953 126.663 68.7159 126.677 68.7319C126.691 68.748 126.71 68.7585 126.731 68.7615C134.063 69.7945 141.302 71.2729 148.449 73.1965C148.499 73.2098 148.524 73.1906 148.524 73.139V51.149C148.524 51.1149 148.512 51.0857 148.488 51.0615L122.744 25.3114C122.732 25.2999 122.719 25.2908 122.703 25.2846C122.688 25.2783 122.672 25.2751 122.655 25.2751H81.4232C81.3839 25.2752 81.3462 25.2904 81.3182 25.3176L55.3893 50.8566C55.3513 50.8938 55.3212 50.9382 55.3006 50.9874C55.2799 51.0365 55.2693 51.0894 55.2694 51.1428V73.1665C55.2694 73.1763 55.2717 73.1861 55.2761 73.1949C55.2805 73.2037 55.2869 73.2114 55.2947 73.2173C55.3026 73.2233 55.3118 73.2273 55.3215 73.2291C55.3311 73.2309 55.3411 73.2304 55.3506 73.2277C58.7821 72.2763 62.252 71.4566 65.7601 70.7684C65.7651 70.7676 65.768 70.7647 65.7689 70.7597C65.7697 70.7572 65.7701 70.7547 65.7701 70.7522C65.7726 70.743 65.7785 70.7376 65.7876 70.7359ZM109.661 56.6749C109.673 56.675 109.683 56.6795 109.691 56.6874L117.052 64.0003C117.06 64.0083 117.064 64.0191 117.064 64.0303V67.5468C117.064 67.5573 117.068 67.5674 117.075 67.5752C117.082 67.5831 117.091 67.5881 117.102 67.5893L122.047 68.1954C122.052 68.1961 122.058 68.1956 122.064 68.1938C122.07 68.1921 122.075 68.1892 122.079 68.1853C122.084 68.1814 122.088 68.1766 122.09 68.1713C122.093 68.1659 122.094 68.1601 122.094 68.1542V62.0447C122.094 62.0334 122.09 62.0226 122.082 62.0147L111.792 51.6864C111.784 51.6784 111.773 51.6739 111.762 51.6739H92.3413C92.33 51.6739 92.3193 51.6784 92.3113 51.6864L81.7743 62.0034C81.7663 62.0114 81.7618 62.0222 81.7618 62.0334V68.0867C81.7618 68.0926 81.763 68.0984 81.7654 68.1039C81.7677 68.1093 81.7712 68.1141 81.7756 68.1181C81.7799 68.1221 81.785 68.1252 81.7906 68.1271C81.7962 68.129 81.8022 68.1297 81.8081 68.1292L86.6904 67.6805C86.701 67.6796 86.7109 67.6747 86.7181 67.6669C86.7252 67.659 86.7292 67.6487 86.7291 67.6381V64.0666C86.7292 64.0553 86.7337 64.0445 86.7416 64.0366L94.2732 56.6799C94.2812 56.672 94.292 56.6675 94.3032 56.6674L109.661 56.6749ZM98.3596 132.057C98.349 132.057 98.3388 132.053 98.3313 132.045C98.3238 132.038 98.3196 132.028 98.3196 132.017V112.509C98.3196 112.498 98.3154 112.488 98.3079 112.481C98.3004 112.473 98.2902 112.469 98.2796 112.469H91.3616C91.3563 112.469 91.3511 112.47 91.3463 112.472C91.3414 112.474 91.337 112.477 91.3333 112.481C91.3296 112.484 91.3266 112.489 91.3246 112.494C91.3226 112.499 91.3216 112.504 91.3216 112.509V133.863C91.322 133.873 91.3265 133.883 91.3341 133.89L96.1327 138.602C96.1401 138.609 96.1499 138.613 96.1602 138.613L107.794 138.69C107.805 138.69 107.815 138.685 107.822 138.678L112.539 133.908C112.546 133.901 112.55 133.891 112.551 133.88L112.417 99.7164C112.417 99.711 112.416 99.7057 112.414 99.7008C112.411 99.6958 112.408 99.6914 112.404 99.6877L107.318 94.8103C107.311 94.8032 107.301 94.7991 107.291 94.7991L98.517 94.7853C98.5118 94.7853 98.5066 94.7843 98.5017 94.7823C98.4969 94.7803 98.4925 94.7773 98.4888 94.7736C98.485 94.7699 98.4821 94.7655 98.4801 94.7606C98.4781 94.7558 98.4771 94.7506 98.4771 94.7453L98.4758 68.6128C98.4758 68.6022 98.48 68.592 98.4875 68.5845C98.495 68.577 98.5052 68.5728 98.5158 68.5728L105.478 68.579C105.488 68.579 105.498 68.5833 105.506 68.5908C105.513 68.5983 105.518 68.6084 105.518 68.619L105.544 85.3742C105.544 85.3795 105.545 85.3847 105.547 85.3895C105.549 85.3944 105.552 85.3988 105.556 85.4025C105.559 85.4062 105.564 85.4092 105.568 85.4112C105.573 85.4132 105.579 85.4142 105.584 85.4142H112.429C112.435 85.4142 112.44 85.4132 112.445 85.4112C112.449 85.4092 112.454 85.4062 112.458 85.4025C112.461 85.3988 112.464 85.3944 112.466 85.3895C112.468 85.3847 112.469 85.3795 112.469 85.3742L112.473 65.9835C112.473 65.9733 112.469 65.9634 112.462 65.956L107.771 61.3074C107.763 61.3002 107.753 61.2962 107.743 61.2961H96.1415C96.1312 61.2962 96.1214 61.3002 96.114 61.3074L91.3378 66.0073C91.3302 66.0145 91.3258 66.0243 91.3253 66.0348L91.3203 97.9482C91.3204 97.9535 91.3215 97.9589 91.3237 97.9638C91.3258 97.9688 91.3289 97.9732 91.3328 97.9769L96.5126 102.898C96.52 102.905 96.5298 102.909 96.5401 102.909L105.238 102.912C105.248 102.912 105.258 102.916 105.266 102.923C105.273 102.931 105.278 102.941 105.278 102.952L105.335 132.018C105.335 132.029 105.331 132.039 105.323 132.047C105.316 132.054 105.306 132.058 105.295 132.058L98.3596 132.057ZM119.687 123.967L120.597 124.086L122.718 124.408C122.951 124.488 123.181 124.514 123.409 124.486L125.761 124.868C125.808 124.875 125.832 124.855 125.832 124.808L125.617 79.6934C125.617 79.6076 125.659 79.5713 125.744 79.5846L130.622 80.3432C130.629 80.3443 130.636 80.3438 130.643 80.3418C130.65 80.3397 130.656 80.3362 130.662 80.3315C130.667 80.3267 130.672 80.3208 130.675 80.3142C130.678 80.3076 130.679 80.3004 130.679 80.2932L130.685 73.7013C130.685 73.6463 130.659 73.6147 130.605 73.6064C125.122 72.6841 119.608 72.0081 114.063 71.5782C114.055 71.5775 114.048 71.5784 114.041 71.5807C114.034 71.5831 114.028 71.587 114.022 71.592C114.017 71.5971 114.013 71.6033 114.01 71.6101C114.007 71.617 114.005 71.6244 114.005 71.6319L114.044 78.1776C114.044 78.1923 114.049 78.2065 114.06 78.2174C114.07 78.2283 114.084 78.235 114.099 78.2363L118.739 78.7299C118.791 78.7357 118.817 78.7649 118.817 78.8174L118.812 123.778C118.812 123.824 118.835 123.85 118.88 123.857L119.687 123.967ZM69.2579 123.38C70.2426 124.28 71.229 125.17 72.217 126.049C72.2355 126.066 72.2579 126.077 72.2823 126.083C72.3067 126.09 72.3323 126.09 72.357 126.084C75.7785 125.29 79.2288 124.646 82.7078 124.152C82.7628 124.144 82.8074 124.117 82.8415 124.073L85.9044 120.047C85.9294 120.014 85.9419 119.978 85.9419 119.937L86.0856 76.7954C86.0856 76.7741 86.0813 76.7529 86.0729 76.7331C86.0645 76.7134 86.0523 76.6955 86.0368 76.6805L81.7481 72.4592C81.7106 72.4225 81.666 72.4075 81.6144 72.4142C78.6161 72.7816 75.6269 73.2136 72.6469 73.7101C72.6085 73.7165 72.574 73.7376 72.5507 73.7688L68.8255 78.6599C68.8022 78.6891 68.7905 78.7224 68.7905 78.7599C68.8005 93.4174 68.8159 108.074 68.8368 122.73C68.838 123.126 68.998 123.143 69.2579 123.38ZM142.672 105.395L142.684 129.263C142.684 129.303 142.703 129.33 142.741 129.343L148.883 131.65C148.914 131.661 148.93 131.651 148.93 131.617V83.476C148.93 83.2932 148.884 83.1135 148.795 82.9537L145.34 76.728C145.326 76.7043 145.308 76.6836 145.287 76.6673C145.265 76.6509 145.24 76.6393 145.214 76.633C142.33 75.9224 139.43 75.2813 136.515 74.7098C136.474 74.7015 136.438 74.7115 136.407 74.7398L132.294 78.5087C132.263 78.537 132.247 78.572 132.247 78.6137V126.195C132.247 126.227 132.263 126.247 132.295 126.255L138.472 127.863C138.512 127.874 138.532 127.859 138.532 127.817L138.561 104.18C138.561 104.177 138.562 104.173 138.563 104.17C138.565 104.167 138.567 104.164 138.57 104.162C138.573 104.159 138.577 104.158 138.581 104.157C138.584 104.157 138.588 104.157 138.592 104.158L142.597 105.296C142.647 105.31 142.672 105.343 142.672 105.395ZM58.9946 76.6455L58.8584 129.964C58.8584 130.002 58.8763 130.016 58.9121 130.004L65.2815 127.926C65.3132 127.915 65.329 127.893 65.329 127.86V91.9424C65.329 91.9243 65.3333 91.9068 65.3415 91.8911C65.354 91.8686 65.3602 91.8445 65.3602 91.8187V75.1484C65.3602 75.1421 65.3588 75.1359 65.356 75.1302C65.3533 75.1246 65.3493 75.1196 65.3444 75.1157C65.3395 75.1117 65.3338 75.1089 65.3277 75.1074C65.3215 75.106 65.3152 75.1059 65.309 75.1072L59.0833 76.5343C59.0581 76.54 59.0355 76.5541 59.0194 76.5743C59.0033 76.5945 58.9945 76.6196 58.9946 76.6455ZM49.2936 108.358L49.3598 133.91L49.3613 133.915L49.3648 133.919L49.3697 133.921L49.3748 133.92L55.4543 131.297C55.4707 131.29 55.4846 131.279 55.4943 131.264C55.5041 131.249 55.5093 131.231 55.5093 131.214L55.5243 77.6065C55.5243 77.554 55.4989 77.534 55.4481 77.5465C53.2712 78.0888 51.1164 78.707 48.9837 79.401C48.9462 79.4135 48.9274 79.4397 48.9274 79.4797V101.099C48.9274 101.144 48.9062 101.176 48.8637 101.192L44.7324 102.782C44.7216 102.786 44.71 102.788 44.6985 102.786C44.6869 102.785 44.6759 102.781 44.6663 102.774C44.6567 102.767 44.6488 102.758 44.6434 102.748C44.6379 102.738 44.635 102.726 44.6349 102.714L44.5499 80.7906C44.55 80.7859 44.549 80.7812 44.5469 80.7771C44.5447 80.7729 44.5416 80.7693 44.5378 80.7666C44.534 80.7639 44.5296 80.7621 44.5249 80.7615C44.5203 80.7609 44.5156 80.7614 44.5112 80.7631L38.1593 82.9812C38.1382 82.9884 38.1199 83.0021 38.1069 83.0202C38.0939 83.0384 38.0869 83.0601 38.0868 83.0824V140.301C38.0868 140.339 38.1026 140.347 38.1343 140.327C40.3645 138.919 42.6313 137.573 44.9348 136.287C44.9541 136.277 44.9702 136.261 44.9814 136.242C44.9926 136.223 44.9986 136.202 44.9986 136.18L44.9261 110.076C44.9252 110.026 44.9482 109.992 44.9948 109.973L49.2161 108.305C49.2678 108.284 49.2936 108.302 49.2936 108.358ZM162.73 89.0157L168.668 91.33C168.714 91.3484 168.737 91.333 168.737 91.2838V84.2583C168.737 84.215 168.717 84.185 168.677 84.1683C162.94 81.774 157.202 80.0245 151.101 78.225C151.067 78.215 151.05 78.228 151.05 78.2638L151.096 85.1006C151.096 85.1397 151.115 85.1651 151.152 85.1768L156.193 86.7339C156.204 86.7371 156.214 86.744 156.221 86.7534C156.228 86.7629 156.232 86.7745 156.232 86.7863L156.269 134.804C156.269 134.846 156.288 134.876 156.326 134.895C158.463 135.939 160.537 137.097 162.546 138.369C162.585 138.394 162.605 138.384 162.605 138.338L162.651 89.0694C162.651 89.0136 162.678 88.9957 162.73 89.0157ZM178.047 154.609V128.148C178.047 128.087 178.074 128.071 178.128 128.101L187.089 133.136C187.122 133.154 187.138 133.144 187.138 133.107V124.965C187.138 124.921 187.119 124.888 187.081 124.865C184.032 123.077 180.945 121.357 177.819 119.707C177.784 119.688 177.766 119.658 177.766 119.618V95.5638C177.766 95.5147 177.788 95.5009 177.832 95.5226C180.944 97.0622 184.027 98.658 187.081 100.31C187.117 100.329 187.136 100.318 187.137 100.276C187.15 97.9361 187.163 95.5959 187.176 93.2557C187.176 93.1799 187.162 93.0062 187.132 92.7346C187.128 92.6955 187.108 92.6659 187.074 92.6459C181.908 89.6968 176.857 87.5986 170.941 85.1006C170.908 85.0864 170.891 85.0977 170.891 85.1343L171.064 157.806C171.064 157.883 171.094 157.944 171.155 157.991C176.555 162.112 181.865 166.347 187.083 170.696C187.088 170.7 187.094 170.703 187.1 170.703C187.106 170.704 187.113 170.703 187.118 170.701C187.124 170.698 187.129 170.694 187.132 170.689C187.136 170.684 187.138 170.677 187.138 170.671V162.081C187.138 162.038 187.121 162.003 187.088 161.976L178.097 154.714C178.064 154.688 178.047 154.653 178.047 154.609ZM15.8694 165.894L21.0229 169.35C21.0604 169.374 21.0979 169.375 21.1354 169.353L30.7076 163.556C30.7581 163.526 30.7982 163.481 30.8226 163.428C31.7915 161.356 32.7658 159.269 33.7455 157.168C33.8305 156.985 33.8734 156.793 33.8742 156.591C33.9159 134.44 33.9355 112.288 33.933 90.1354C33.933 90.0821 33.9113 90.0396 33.868 90.0079L29.1743 86.5789C29.1558 86.5649 29.1337 86.5562 29.1103 86.5538C29.087 86.5514 29.0634 86.5553 29.0419 86.5652C25.7303 88.0572 22.4712 89.6568 19.2646 91.3638C19.1873 91.4053 19.1246 91.4689 19.0847 91.5462C18.04 93.5473 16.9903 95.5488 15.9356 97.5508C15.8531 97.7074 15.8119 97.8744 15.8119 98.0519C15.811 120.63 15.811 143.208 15.8119 165.788C15.8119 165.833 15.831 165.869 15.8694 165.894ZM81.7618 137.916C81.7618 137.927 81.7641 137.939 81.7686 137.949C81.7731 137.96 81.7798 137.97 81.7881 137.978L92.1601 148.143C92.1761 148.158 92.1976 148.167 92.2201 148.168L111.707 148.306C111.719 148.306 111.73 148.304 111.741 148.299C111.752 148.295 111.761 148.288 111.77 148.28L122.092 137.859C122.108 137.843 122.117 137.821 122.117 137.798L122.148 128.327C122.148 128.306 122.141 128.285 122.127 128.269C122.113 128.253 122.094 128.243 122.073 128.24L117.308 127.535C117.296 127.533 117.283 127.534 117.271 127.537C117.259 127.541 117.248 127.547 117.238 127.555C117.229 127.563 117.221 127.573 117.216 127.585C117.211 127.596 117.208 127.608 117.208 127.621L117.224 135.732C117.224 135.744 117.222 135.755 117.218 135.766C117.214 135.777 117.207 135.787 117.199 135.795L109.868 143.145C109.851 143.161 109.829 143.17 109.806 143.17L94.2882 143.218C94.2654 143.218 94.2434 143.209 94.227 143.193L86.7554 135.925C86.7469 135.917 86.7402 135.907 86.7357 135.896C86.7312 135.885 86.729 135.873 86.7291 135.861V127.665C86.7291 127.652 86.7264 127.64 86.7213 127.629C86.7162 127.618 86.7088 127.608 86.6996 127.6C86.6904 127.592 86.6796 127.586 86.6679 127.582C86.6562 127.578 86.6439 127.577 86.6317 127.578L81.8393 128.12C81.8179 128.122 81.7981 128.132 81.7838 128.148C81.7695 128.165 81.7617 128.185 81.7618 128.207V137.916ZM90.2494 152.713L77.2144 139.847C77.1835 139.817 77.1681 139.781 77.1681 139.739L77.1694 129.094C77.1694 129.04 77.1427 129.018 77.0894 129.028C69.6815 130.48 62.3374 132.578 55.3669 135.519C55.3319 135.534 55.3144 135.56 55.3144 135.599L55.3369 148.91C55.3369 148.953 55.3523 148.99 55.3831 149.021L81.2282 174.479C81.2377 174.488 81.249 174.496 81.2615 174.501C81.2739 174.506 81.2872 174.509 81.3007 174.509L122.754 174.835C122.796 174.836 122.833 174.821 122.863 174.79L148.489 148.881C148.512 148.857 148.524 148.828 148.524 148.795V135.564C148.524 135.527 148.507 135.502 148.474 135.489C141.457 132.555 134.211 130.378 126.736 128.957C126.703 128.95 126.687 128.964 126.687 128.998V139.648C126.686 139.713 126.66 139.776 126.614 139.824L113.91 152.833C113.85 152.894 113.777 152.925 113.69 152.924L90.3506 152.755C90.3115 152.754 90.2777 152.74 90.2494 152.713ZM38.1917 150.856C40.6211 148.926 42.9891 146.994 45.6221 145.335C45.6277 145.331 45.6341 145.329 45.6407 145.329C45.6474 145.328 45.6539 145.33 45.6597 145.333C45.6655 145.336 45.6703 145.341 45.6736 145.347C45.6769 145.353 45.6786 145.359 45.6784 145.366V152.749C45.6783 152.798 45.6976 152.845 45.7321 152.88L77.3893 184.364C77.4201 184.394 77.4564 184.409 77.498 184.409L126.479 184.434C126.526 184.434 126.573 184.424 126.616 184.406C126.66 184.388 126.699 184.362 126.733 184.329L158.006 153.009C158.021 152.994 158.033 152.977 158.041 152.959C158.049 152.94 158.053 152.919 158.053 152.899V145.675C158.053 145.667 158.055 145.66 158.058 145.654C158.062 145.648 158.067 145.642 158.074 145.639C158.08 145.635 158.087 145.634 158.094 145.634C158.102 145.634 158.109 145.636 158.115 145.64C161.448 147.607 164.61 149.82 167.6 152.276C167.65 152.317 167.675 152.305 167.675 152.24V146.611C167.675 146.589 167.67 146.568 167.661 146.549C167.651 146.53 167.638 146.513 167.621 146.501C163.095 143.059 158.369 140.02 153.229 137.532C153.165 137.501 153.133 137.521 153.133 137.593L153.109 150.708C153.109 150.741 153.096 150.773 153.073 150.797L124.737 179.402C124.708 179.431 124.673 179.445 124.633 179.445C109.761 179.46 94.8881 179.454 80.0148 179.426C79.6999 179.425 79.5087 179.552 79.24 179.285C69.7361 169.835 60.2421 160.391 50.7582 150.952C50.7248 150.918 50.7082 150.879 50.7082 150.833V137.582C50.7082 137.575 50.7065 137.568 50.7033 137.562C50.7 137.556 50.6953 137.551 50.6895 137.548C50.6838 137.544 50.6772 137.542 50.6704 137.542C50.6636 137.541 50.6568 137.543 50.6507 137.546C46.2486 139.639 42.0777 142.121 38.138 144.991C38.1039 145.016 38.0868 145.05 38.0868 145.092V150.804C38.0868 150.894 38.1218 150.911 38.1917 150.856Z" fill="white"/>
<path d="M126.851 15.6586L157.999 46.7485C158.013 46.7627 158.024 46.7795 158.032 46.798C158.04 46.8164 158.044 46.8361 158.044 46.8559L158.086 71.0928C158.086 71.1328 158.105 71.1586 158.144 71.1702C168.083 74.2831 177.836 77.9833 187.043 82.8632C187.081 82.8831 187.112 82.913 187.134 82.9495C187.156 82.9861 187.168 83.0279 187.168 83.0706V87.9755C187.168 88.0396 187.14 88.0563 187.084 88.0254C184.653 86.6983 182.162 85.4516 179.61 84.2853C171.026 80.3614 162.205 77.0732 153.146 74.4206C153.106 74.4089 153.085 74.3818 153.085 74.3393L153.125 48.9016C153.125 48.8707 153.119 48.8402 153.107 48.8117C153.096 48.7831 153.078 48.7572 153.056 48.7354L124.732 20.7396C124.673 20.6812 124.593 20.6485 124.51 20.6484L79.5537 20.6921C79.5112 20.6921 79.4749 20.7071 79.4449 20.7371L50.7619 48.9403C50.7267 48.9755 50.7069 49.0231 50.7069 49.0728V74.4481C50.7069 74.4906 50.6865 74.5176 50.6456 74.5293C43.6935 76.5779 36.8525 78.9489 30.1228 81.6423C25.2741 83.583 20.503 85.7361 15.9568 88.3191C15.9514 88.3222 15.9453 88.3238 15.9391 88.3238C15.9328 88.3238 15.9267 88.3221 15.9214 88.3189C15.916 88.3157 15.9116 88.3111 15.9086 88.3057C15.9056 88.3002 15.9041 88.2941 15.9043 88.2879V83.2818C15.9043 83.2385 15.9235 83.2064 15.9618 83.1856C25.4278 78.1495 35.4575 74.3831 45.6596 71.144C45.681 71.1371 45.6997 71.1236 45.7129 71.1054C45.7262 71.0872 45.7333 71.0653 45.7333 71.0428L45.6783 46.7547C45.6783 46.7291 45.6887 46.7044 45.7071 46.686L77.2955 15.6636C77.3236 15.6363 77.3612 15.6211 77.4005 15.6211H126.759C126.795 15.6211 126.826 15.6336 126.851 15.6586Z" fill="#B0B7BC"/>
<path d="M65.7703 70.7505C65.7703 70.753 65.7699 70.7555 65.769 70.758C65.7682 70.763 65.7653 70.7659 65.7603 70.7667C62.2521 71.4548 58.7823 72.2746 55.3508 73.226C55.3413 73.2287 55.3313 73.2292 55.3216 73.2274C55.3119 73.2256 55.3028 73.2216 55.2949 73.2156C55.287 73.2097 55.2806 73.202 55.2762 73.1932C55.2718 73.1844 55.2695 73.1746 55.2695 73.1648V51.1411C55.2695 51.0877 55.2801 51.0348 55.3007 50.9857C55.3213 50.9365 55.3515 50.8921 55.3895 50.8549L81.3184 25.3159C81.3464 25.2887 81.384 25.2734 81.4233 25.2734H122.655C122.672 25.2734 122.688 25.2766 122.704 25.2829C122.719 25.2891 122.733 25.2982 122.744 25.3097L148.488 51.0598C148.512 51.084 148.524 51.1131 148.524 51.1473V73.1373C148.524 73.1889 148.499 73.2081 148.449 73.1948C141.302 71.2712 134.063 69.7928 126.732 68.7598C126.711 68.7568 126.691 68.7463 126.677 68.7302C126.663 68.7142 126.656 68.6936 126.655 68.6723V60.196C126.655 60.1217 126.626 60.0502 126.573 59.9973L113.735 47.1335C113.705 47.1038 113.664 47.0872 113.622 47.0872L90.4845 47.086C90.4325 47.086 90.3822 47.1066 90.3445 47.1435L77.2245 59.9473C77.2071 59.9643 77.1933 59.9847 77.1839 60.0072C77.1744 60.0297 77.1696 60.054 77.1695 60.0785V68.7285C77.1695 68.7769 77.1458 68.8044 77.0983 68.811C73.3086 69.3784 69.5384 70.0194 65.7878 70.7342C65.7786 70.7359 65.7728 70.7413 65.7703 70.7505Z" fill="#CE0F3D"/>
<path d="M109.661 56.6729L94.3031 56.6655C94.2919 56.6655 94.2811 56.67 94.2731 56.6779L86.7415 64.0346C86.7336 64.0425 86.7291 64.0533 86.7291 64.0646V67.6361C86.7291 67.6467 86.7251 67.657 86.718 67.6649C86.7108 67.6727 86.7009 67.6776 86.6903 67.6786L81.808 68.1272C81.8021 68.1277 81.7961 68.127 81.7905 68.1251C81.7849 68.1232 81.7798 68.1201 81.7755 68.1161C81.7711 68.1121 81.7676 68.1073 81.7653 68.1019C81.7629 68.0965 81.7617 68.0906 81.7617 68.0847V62.0314C81.7617 62.0202 81.7662 62.0094 81.7742 62.0014L92.3112 51.6844C92.3192 51.6764 92.3299 51.6719 92.3412 51.6719H111.762C111.773 51.6719 111.784 51.6764 111.792 51.6844L122.081 62.0127C122.089 62.0206 122.094 62.0314 122.094 62.0427V68.1522C122.094 68.1581 122.092 68.1639 122.09 68.1693C122.087 68.1746 122.084 68.1794 122.079 68.1833C122.075 68.1872 122.07 68.1901 122.064 68.1918C122.058 68.1936 122.052 68.1941 122.046 68.1934L117.102 67.5873C117.091 67.5861 117.082 67.5811 117.075 67.5733C117.068 67.5654 117.064 67.5553 117.064 67.5448V64.0284C117.064 64.0171 117.06 64.0063 117.052 63.9984L109.691 56.6854C109.683 56.6775 109.673 56.673 109.661 56.6729Z" fill="#B0B7BC"/>
<path d="M98.3587 132.058L105.294 132.059C105.305 132.059 105.315 132.055 105.323 132.047C105.33 132.04 105.334 132.03 105.334 132.019L105.277 102.952C105.277 102.942 105.273 102.932 105.265 102.924C105.258 102.917 105.247 102.913 105.237 102.913L96.5393 102.91C96.529 102.91 96.5191 102.906 96.5118 102.899L91.332 97.9777C91.3281 97.974 91.325 97.9695 91.3228 97.9646C91.3207 97.9596 91.3195 97.9543 91.3195 97.9489L91.3245 66.0355C91.3249 66.0251 91.3294 66.0152 91.337 66.008L96.1131 61.3081C96.1205 61.301 96.1304 61.297 96.1406 61.2969H107.742C107.753 61.297 107.762 61.301 107.77 61.3081L112.461 65.9568C112.468 65.9642 112.472 65.974 112.472 65.9843L112.468 85.375C112.468 85.3856 112.464 85.3958 112.457 85.4033C112.449 85.4108 112.439 85.415 112.428 85.415H105.583C105.572 85.415 105.562 85.4108 105.555 85.4033C105.547 85.3958 105.543 85.3856 105.543 85.375L105.517 68.6198C105.517 68.6092 105.512 68.599 105.505 68.5915C105.497 68.584 105.487 68.5798 105.477 68.5798L98.515 68.5736C98.5097 68.5736 98.5045 68.5746 98.4997 68.5766C98.4948 68.5786 98.4904 68.5815 98.4867 68.5853C98.483 68.589 98.48 68.5934 98.478 68.5982C98.476 68.6031 98.475 68.6083 98.475 68.6135L98.4762 94.7461C98.4762 94.7513 98.4772 94.7565 98.4793 94.7614C98.4813 94.7662 98.4842 94.7706 98.4879 94.7744C98.4916 94.7781 98.496 94.781 98.5009 94.783C98.5057 94.785 98.511 94.7861 98.5162 94.7861L107.29 94.7998C107.3 94.7999 107.31 94.8039 107.317 94.8111L112.403 99.6884C112.407 99.6921 112.411 99.6966 112.413 99.7015C112.415 99.7065 112.416 99.7118 112.416 99.7172L112.55 133.881C112.55 133.891 112.546 133.901 112.538 133.909L107.821 138.679C107.814 138.686 107.804 138.691 107.794 138.691L96.1594 138.614C96.1491 138.613 96.1393 138.609 96.1319 138.602L91.3332 133.891C91.3256 133.884 91.3212 133.874 91.3208 133.864V112.51C91.3208 112.505 91.3218 112.499 91.3238 112.494C91.3258 112.49 91.3288 112.485 91.3325 112.481C91.3362 112.478 91.3406 112.475 91.3454 112.473C91.3503 112.471 91.3555 112.47 91.3607 112.47H98.2788C98.2894 112.47 98.2995 112.474 98.307 112.481C98.3145 112.489 98.3188 112.499 98.3188 112.51V132.018C98.3188 132.029 98.323 132.039 98.3305 132.046C98.338 132.054 98.3481 132.058 98.3587 132.058ZM123.408 124.486L122.717 124.409L120.596 124.086L119.686 123.968L118.879 123.858C118.834 123.851 118.812 123.825 118.812 123.779L118.817 78.8181C118.817 78.7656 118.79 78.7365 118.738 78.7307L114.098 78.237C114.083 78.2358 114.069 78.229 114.059 78.2182C114.049 78.2073 114.043 78.1931 114.043 78.1783L114.004 71.6327C114.004 71.6252 114.006 71.6178 114.009 71.6109C114.012 71.604 114.016 71.5979 114.021 71.5928C114.027 71.5877 114.033 71.5839 114.04 71.5815C114.047 71.5791 114.054 71.5782 114.062 71.5789C119.607 72.0088 125.121 72.6849 130.605 73.6071C130.658 73.6154 130.685 73.6471 130.685 73.7021L130.678 80.294C130.678 80.3012 130.677 80.3084 130.674 80.315C130.671 80.3216 130.667 80.3275 130.661 80.3322C130.656 80.337 130.649 80.3405 130.642 80.3425C130.635 80.3445 130.628 80.345 130.621 80.3439L125.743 79.5854C125.658 79.5721 125.616 79.6083 125.616 79.6941L125.831 124.809C125.831 124.856 125.807 124.876 125.76 124.869L123.408 124.486ZM69.257 123.38C68.9971 123.144 68.8372 123.127 68.8359 122.731C68.8151 108.075 68.7997 93.4181 68.7897 78.7606C68.7897 78.7232 68.8013 78.6898 68.8247 78.6607L72.5499 73.7696C72.5732 73.7383 72.6076 73.7173 72.6461 73.7108C75.6261 73.2143 78.6152 72.7823 81.6135 72.415C81.6652 72.4083 81.7097 72.4233 81.7472 72.4599L86.036 76.6812C86.0514 76.6962 86.0637 76.7141 86.0721 76.7339C86.0804 76.7536 86.0847 76.7748 86.0847 76.7962L85.941 119.938C85.941 119.978 85.9285 120.015 85.9036 120.048L82.8407 124.074C82.8065 124.118 82.7619 124.144 82.707 124.153C79.228 124.647 75.7777 125.291 72.3562 126.085C72.3315 126.09 72.3058 126.09 72.2815 126.084C72.2571 126.078 72.2347 126.066 72.2162 126.05C71.2281 125.171 70.2418 124.281 69.257 123.38ZM75.3503 80.3202C75.3408 80.3217 75.3322 80.3266 75.326 80.3339C75.3198 80.3413 75.3164 80.3506 75.3166 80.3602L75.1666 118.696C75.1665 118.701 75.1677 118.707 75.1702 118.713C75.1726 118.718 75.1763 118.723 75.1808 118.727C75.1854 118.731 75.1907 118.733 75.1965 118.735C75.2022 118.736 75.2083 118.737 75.2141 118.735L79.5854 117.917C79.5946 117.915 79.6029 117.91 79.6089 117.903C79.6148 117.896 79.618 117.886 79.6178 117.877L79.4504 79.7716C79.4504 79.7659 79.4493 79.7603 79.4469 79.7551C79.4446 79.7498 79.4412 79.7452 79.437 79.7414C79.4327 79.7376 79.4277 79.7348 79.4222 79.7331C79.4168 79.7314 79.4111 79.7309 79.4054 79.7316L75.3503 80.3202ZM142.596 105.297L138.591 104.158C138.587 104.157 138.583 104.157 138.58 104.158C138.576 104.159 138.573 104.16 138.569 104.162C138.566 104.164 138.564 104.167 138.562 104.17C138.561 104.174 138.56 104.177 138.56 104.181L138.531 127.818C138.531 127.86 138.511 127.875 138.471 127.864L132.294 126.256C132.262 126.248 132.247 126.228 132.247 126.196V78.6144C132.247 78.5728 132.262 78.5378 132.293 78.5095L136.407 74.7405C136.437 74.7122 136.473 74.7022 136.514 74.7106C139.429 75.2821 142.329 75.9231 145.213 76.6337C145.239 76.64 145.264 76.6517 145.286 76.668C145.307 76.6844 145.326 76.705 145.339 76.7287L148.794 82.9544C148.883 83.1143 148.929 83.294 148.929 83.4768V131.618C148.929 131.651 148.913 131.662 148.882 131.651L142.74 129.344C142.702 129.33 142.684 129.304 142.684 129.264L142.671 105.396C142.671 105.344 142.646 105.311 142.596 105.297ZM138.62 97.2341C138.62 97.2427 138.623 97.251 138.628 97.2578C138.633 97.2645 138.64 97.2694 138.648 97.2716L142.476 98.2426C142.482 98.2441 142.488 98.2443 142.494 98.2431C142.5 98.242 142.505 98.2395 142.51 98.2359C142.514 98.2322 142.518 98.2276 142.521 98.2222C142.524 98.2169 142.525 98.211 142.525 98.2051V82.9819C142.525 82.9732 142.522 82.9648 142.516 82.958C142.511 82.9512 142.503 82.9464 142.495 82.9444L138.667 81.991C138.662 81.9897 138.656 81.9896 138.65 81.9909C138.644 81.9922 138.639 81.9947 138.634 81.9983C138.63 82.0019 138.626 82.0065 138.624 82.0117C138.621 82.0169 138.62 82.0227 138.62 82.0285V97.2341ZM58.8575 129.965L58.9937 76.6462C58.9937 76.6204 59.0024 76.5953 59.0185 76.575C59.0347 76.5548 59.0572 76.5407 59.0824 76.535L65.3082 75.1079C65.3143 75.1066 65.3207 75.1067 65.3268 75.1082C65.3329 75.1097 65.3387 75.1125 65.3436 75.1164C65.3485 75.1204 65.3524 75.1253 65.3552 75.131C65.3579 75.1367 65.3594 75.1429 65.3594 75.1492V91.8194C65.3594 91.8452 65.3532 91.8694 65.3407 91.8919C65.3325 91.9075 65.3282 91.9251 65.3282 91.9431V127.86C65.3282 127.894 65.3123 127.916 65.2807 127.927L58.9112 130.005C58.8754 130.016 58.8575 130.003 58.8575 129.965ZM49.2153 108.306L44.994 109.974C44.9473 109.993 44.9244 110.027 44.9252 110.077L44.9977 136.181C44.9977 136.202 44.9918 136.224 44.9806 136.243C44.9694 136.262 44.9533 136.277 44.934 136.288C42.6305 137.573 40.3636 138.92 38.1334 140.328C38.1018 140.348 38.0859 140.339 38.0859 140.302V83.0832C38.086 83.0609 38.093 83.0391 38.106 83.021C38.119 83.0028 38.1373 82.9892 38.1584 82.9819L44.5104 80.7638C44.5147 80.7622 44.5195 80.7617 44.5241 80.7623C44.5287 80.7629 44.5332 80.7646 44.537 80.7673C44.5408 80.77 44.5439 80.7736 44.546 80.7778C44.5481 80.782 44.5492 80.7866 44.5491 80.7913L44.6341 102.715C44.6341 102.727 44.637 102.738 44.6425 102.749C44.648 102.759 44.6559 102.768 44.6655 102.775C44.6751 102.781 44.6861 102.786 44.6976 102.787C44.7091 102.788 44.7208 102.787 44.7315 102.783L48.8629 101.193C48.9054 101.176 48.9266 101.145 48.9266 101.099V79.4804C48.9266 79.4405 48.9453 79.4142 48.9828 79.4017C51.1156 78.7077 53.2704 78.0896 55.4472 77.5472C55.4981 77.5347 55.5235 77.5547 55.5235 77.6072L55.5085 131.214C55.5085 131.232 55.5033 131.25 55.4935 131.265C55.4837 131.279 55.4698 131.291 55.4535 131.298L49.374 133.921C49.3723 133.922 49.3706 133.922 49.3688 133.922C49.3671 133.922 49.3654 133.921 49.364 133.92C49.3625 133.919 49.3613 133.918 49.3604 133.916C49.3596 133.915 49.3591 133.913 49.359 133.911L49.2927 108.358C49.2927 108.303 49.2669 108.285 49.2153 108.306ZM162.65 89.0702L162.604 138.339C162.604 138.384 162.585 138.395 162.545 138.37C160.536 137.098 158.462 135.94 156.325 134.896C156.287 134.877 156.268 134.846 156.268 134.805L156.231 86.7871C156.231 86.7752 156.227 86.7637 156.22 86.7542C156.213 86.7447 156.203 86.7379 156.192 86.7346L151.151 85.1776C151.114 85.1659 151.095 85.1405 151.095 85.1013L151.049 78.2645C151.049 78.2287 151.066 78.2158 151.1 78.2258C157.201 80.0253 162.939 81.7748 168.676 84.1691C168.716 84.1858 168.736 84.2158 168.736 84.2591V91.2846C168.736 91.3337 168.713 91.3491 168.667 91.3308L162.729 89.0165C162.677 88.9965 162.65 89.0144 162.65 89.0702Z" fill="black"/>
<path d="M75.3517 80.3194L79.4068 79.7308C79.4124 79.7301 79.4182 79.7306 79.4236 79.7323C79.4291 79.734 79.4341 79.7368 79.4383 79.7406C79.4426 79.7444 79.446 79.749 79.4483 79.7542C79.4506 79.7594 79.4518 79.7651 79.4518 79.7708L79.6192 117.876C79.6194 117.886 79.6162 117.895 79.6103 117.902C79.6043 117.909 79.596 117.914 79.5867 117.916L75.2155 118.735C75.2096 118.736 75.2036 118.736 75.1979 118.734C75.1921 118.733 75.1867 118.73 75.1822 118.726C75.1777 118.722 75.174 118.717 75.1716 118.712C75.1691 118.707 75.1679 118.701 75.168 118.695L75.3179 80.3593C75.3178 80.3497 75.3212 80.3404 75.3274 80.3331C75.3336 80.3257 75.3422 80.3209 75.3517 80.3194ZM138.621 97.2333V82.0276C138.621 82.0218 138.623 82.0161 138.625 82.0109C138.628 82.0057 138.631 82.0011 138.636 81.9975C138.64 81.9939 138.646 81.9913 138.651 81.9901C138.657 81.9888 138.663 81.9888 138.669 81.9901L142.496 82.9436C142.505 82.9456 142.512 82.9503 142.518 82.9571C142.523 82.964 142.526 82.9724 142.526 82.9811V98.2043C142.526 98.2102 142.525 98.2161 142.522 98.2214C142.52 98.2267 142.516 98.2314 142.511 98.235C142.506 98.2387 142.501 98.2411 142.495 98.2423C142.489 98.2435 142.483 98.2433 142.478 98.2418L138.65 97.2708C138.642 97.2686 138.634 97.2637 138.629 97.2569C138.624 97.2501 138.621 97.2418 138.621 97.2333Z" fill="white"/>
<path d="M178.096 154.714L187.087 161.975C187.121 162.002 187.137 162.037 187.137 162.08V170.67C187.137 170.677 187.135 170.683 187.132 170.688C187.128 170.693 187.123 170.697 187.118 170.7C187.112 170.702 187.105 170.703 187.099 170.703C187.093 170.702 187.087 170.699 187.082 170.695C181.864 166.346 176.554 162.111 171.154 157.99C171.094 157.943 171.063 157.882 171.063 157.805L170.891 85.1334C170.891 85.0968 170.907 85.0855 170.941 85.0997C176.856 87.5977 181.908 89.6959 187.074 92.645C187.108 92.665 187.127 92.6946 187.131 92.7337C187.161 93.0053 187.176 93.179 187.175 93.2548C187.162 95.595 187.149 97.9352 187.136 100.275C187.135 100.317 187.116 100.328 187.08 100.309C184.027 98.6571 180.944 97.0613 177.831 95.5217C177.787 95.5 177.765 95.5138 177.765 95.5629V119.617C177.765 119.657 177.783 119.687 177.819 119.706C180.944 121.356 184.032 123.076 187.08 124.865C187.118 124.887 187.137 124.92 187.137 124.965V133.106C187.137 133.143 187.121 133.153 187.089 133.135L178.127 128.1C178.073 128.07 178.046 128.086 178.046 128.147V154.609C178.046 154.652 178.063 154.687 178.096 154.714ZM21.0222 169.349L15.8687 165.893C15.8303 165.868 15.8112 165.832 15.8112 165.787C15.8103 143.207 15.8103 120.629 15.8112 98.051C15.8112 97.8735 15.8524 97.7065 15.9349 97.5499C16.9896 95.5479 18.0393 93.5464 19.084 91.5453C19.1239 91.468 19.1866 91.4044 19.2639 91.3629C22.4705 89.6559 25.7296 88.0563 29.0411 86.5643C29.0626 86.5544 29.0863 86.5505 29.1096 86.5529C29.1329 86.5553 29.1551 86.564 29.1736 86.578L33.8673 90.007C33.9106 90.0387 33.9323 90.0812 33.9323 90.1345C33.9348 112.287 33.9152 134.439 33.8735 156.591C33.8727 156.792 33.8298 156.984 33.7448 157.167C32.7651 159.269 31.7908 161.355 30.8219 163.427C30.7975 163.48 30.7574 163.525 30.7069 163.555L21.1347 169.352C21.0972 169.374 21.0597 169.374 21.0222 169.349ZM22.6217 97.18C22.6153 97.1832 22.6099 97.1882 22.6061 97.1944C22.6024 97.2006 22.6004 97.2077 22.6005 97.215L22.5855 160.989C22.5855 160.996 22.5873 161.003 22.5909 161.009C22.5945 161.015 22.5996 161.02 22.6058 161.023C22.6119 161.027 22.6189 161.028 22.6259 161.028C22.6328 161.028 22.6396 161.026 22.6455 161.022L27.4154 157.78C27.4206 157.777 27.4249 157.772 27.4279 157.767C27.431 157.761 27.4327 157.755 27.4329 157.749V94.7032C27.4327 94.6966 27.4309 94.6902 27.4276 94.6846C27.4243 94.6789 27.4197 94.6742 27.4141 94.6708C27.4084 94.6674 27.4021 94.6655 27.3955 94.6653C27.389 94.6651 27.3825 94.6665 27.3766 94.6694L22.6217 97.18Z" fill="black"/>
<path d="M22.6222 97.1827L27.3771 94.6722C27.3829 94.6692 27.3894 94.6678 27.396 94.668C27.4025 94.6682 27.4089 94.6701 27.4145 94.6735C27.4201 94.6769 27.4248 94.6816 27.4281 94.6873C27.4314 94.6929 27.4332 94.6993 27.4333 94.7059V157.752C27.4331 157.758 27.4314 157.764 27.4284 157.769C27.4253 157.775 27.421 157.779 27.4158 157.783L22.6459 161.024C22.6401 161.028 22.6333 161.03 22.6263 161.031C22.6193 161.031 22.6124 161.029 22.6062 161.026C22.6001 161.023 22.5949 161.018 22.5914 161.012C22.5878 161.006 22.5859 160.999 22.5859 160.992L22.6009 97.2177C22.6009 97.2104 22.6028 97.2033 22.6066 97.1971C22.6103 97.191 22.6157 97.1859 22.6222 97.1827Z" fill="white"/>
<path d="M122.718 124.41L123.409 124.488C123.181 124.516 122.951 124.49 122.718 124.41ZM81.7617 137.918V128.209C81.7616 128.188 81.7694 128.167 81.7837 128.151C81.798 128.134 81.8178 128.124 81.8392 128.122L86.6316 127.581C86.6438 127.579 86.6561 127.58 86.6678 127.584C86.6795 127.588 86.6903 127.594 86.6995 127.602C86.7087 127.61 86.7161 127.62 86.7212 127.631C86.7263 127.642 86.729 127.654 86.7291 127.667V135.863C86.7289 135.875 86.7311 135.887 86.7356 135.898C86.7401 135.909 86.7468 135.919 86.7553 135.927L94.2269 143.195C94.2433 143.211 94.2653 143.22 94.2881 143.22L109.806 143.172C109.829 143.172 109.851 143.163 109.867 143.147L117.199 135.797C117.207 135.789 117.214 135.779 117.218 135.768C117.222 135.757 117.224 135.746 117.224 135.734L117.208 127.623C117.208 127.61 117.211 127.598 117.216 127.587C117.221 127.575 117.229 127.565 117.238 127.557C117.248 127.549 117.259 127.543 117.271 127.539C117.283 127.536 117.295 127.535 117.308 127.537L122.073 128.242C122.094 128.245 122.113 128.255 122.127 128.271C122.14 128.287 122.148 128.308 122.148 128.329L122.116 137.8C122.116 137.823 122.107 137.845 122.091 137.861L111.769 148.282C111.761 148.29 111.752 148.297 111.741 148.302C111.73 148.306 111.719 148.308 111.707 148.308L92.22 148.17C92.1975 148.169 92.1761 148.16 92.16 148.145L81.788 137.98C81.7797 137.972 81.7731 137.962 81.7685 137.951C81.764 137.941 81.7617 137.929 81.7617 137.918Z" fill="#B0B7BC"/>
<path d="M77.2145 139.849L90.2495 152.714C90.2778 152.742 90.3116 152.756 90.3507 152.757L113.69 152.926C113.777 152.926 113.85 152.896 113.91 152.834L126.614 139.826C126.661 139.778 126.687 139.715 126.687 139.649V129C126.687 128.966 126.703 128.952 126.737 128.959C134.211 130.38 141.457 132.557 148.474 135.491C148.507 135.504 148.524 135.529 148.524 135.566V148.797C148.524 148.83 148.512 148.859 148.489 148.883L122.863 174.792C122.833 174.823 122.796 174.838 122.754 174.837L81.3008 174.511C81.2873 174.511 81.274 174.508 81.2616 174.503C81.2491 174.498 81.2378 174.49 81.2283 174.481L55.3832 149.023C55.3524 148.992 55.3369 148.955 55.3369 148.912L55.3145 135.601C55.3145 135.562 55.3319 135.536 55.3669 135.521C62.3375 132.58 69.6816 130.482 77.0895 129.03C77.1428 129.02 77.1695 129.042 77.1695 129.096L77.1682 139.741C77.1682 139.783 77.1836 139.819 77.2145 139.849Z" fill="#CE0F3D"/>
<path d="M38.0859 150.806V145.094C38.0859 145.051 38.103 145.018 38.1372 144.993C42.0769 142.123 46.2478 139.641 50.6499 137.547C50.656 137.544 50.6627 137.543 50.6695 137.543C50.6763 137.544 50.6829 137.546 50.6887 137.549C50.6944 137.553 50.6992 137.558 50.7024 137.564C50.7057 137.57 50.7074 137.577 50.7073 137.583V150.835C50.7073 150.88 50.724 150.92 50.7573 150.953C60.2413 160.392 69.7352 169.837 79.2392 179.287C79.5079 179.554 79.6991 179.426 80.014 179.428C94.8872 179.455 109.76 179.461 124.632 179.446C124.672 179.446 124.707 179.432 124.736 179.404L153.072 150.798C153.095 150.774 153.108 150.742 153.108 150.71L153.132 137.595C153.132 137.523 153.164 137.503 153.228 137.533C158.368 140.021 163.094 143.061 167.62 146.502C167.637 146.515 167.65 146.532 167.66 146.551C167.669 146.57 167.674 146.591 167.674 146.612V152.242C167.674 152.307 167.649 152.319 167.599 152.278C164.609 149.821 161.447 147.609 158.114 145.641C158.108 145.637 158.101 145.635 158.094 145.635C158.086 145.635 158.079 145.637 158.073 145.64C158.066 145.644 158.061 145.649 158.057 145.655C158.054 145.662 158.052 145.669 158.052 145.676V152.9C158.052 152.921 158.048 152.941 158.04 152.96C158.032 152.979 158.02 152.996 158.005 153.01L126.732 184.33C126.699 184.363 126.659 184.39 126.616 184.408C126.572 184.426 126.525 184.435 126.478 184.435L77.4972 184.41C77.4555 184.41 77.4193 184.395 77.3885 184.365L45.7313 152.882C45.6968 152.846 45.6775 152.799 45.6775 152.75V145.367C45.6777 145.361 45.6761 145.354 45.6728 145.348C45.6695 145.343 45.6647 145.338 45.6589 145.335C45.6531 145.332 45.6465 145.33 45.6399 145.33C45.6333 145.33 45.6268 145.333 45.6213 145.336C42.9883 146.996 40.6202 148.928 38.1909 150.857C38.1209 150.913 38.0859 150.896 38.0859 150.806Z" fill="#B0B7BC"/>
</svg>
