<svg width="201" height="201" viewBox="0 0 201 201" fill="none" xmlns="http://www.w3.org/2000/svg">
<path d="M120.628 153.352C120.628 153.352 120.536 158.453 118.169 161.02C116.524 172.039 104.827 176.282 95.2391 171.638C90.5044 169.344 85.6573 163.823 84.9106 155.512C75.4609 158.776 70.5339 169.818 69.7493 171.771C68.4734 174.945 67.2437 173.471 65.4529 171.65C57.2452 163.304 55.5547 156.048 55.6489 149.241C49.0876 151.946 42.5892 155.505 36.6926 160.18C34.5163 161.905 31.9708 159.548 33.7466 157.453C33.9682 157.191 45.2744 143.996 72.8666 137.459C44.2601 139.842 26.1426 151.058 25.8255 151.278C23.036 153.217 20.8882 149.951 23.3599 148.13C38.7022 137.583 57.4722 132.387 76.0714 130.717C52.2076 130.668 29.0377 141.097 28.2802 141.44C28.06 141.542 27.8622 141.606 27.6711 141.647C17.8223 144.813 9.26562 140.504 9.26562 129.771V62.141C9.26562 53.2001 16.4422 44.115 25.3044 40.9046C30.7607 38.5532 37.734 36.1056 46.231 33.5785C50.7482 32.0355 55.2837 32.2394 58.9079 33.9202C59.5685 32.0637 61.4277 30.261 63.3051 29.8591C74.7509 27.4109 86.9094 26.575 99.3776 26.575C111.782 26.575 126.135 28.002 134.64 29.7309C137.324 30.2764 139.029 32.0342 139.679 33.9651C143.298 32.2951 147.821 32.0977 152.328 33.6362C160.824 36.1614 167.797 38.4275 173.253 40.7757C182.097 43.9772 189.292 53.0001 189.292 61.9603V126.836C189.292 131.726 186.022 138.142 180.807 140.837C183.06 142.267 185.345 143.826 187.657 145.524C189.929 147.193 187.541 150.243 185.191 148.672C185.176 148.662 172.075 139.931 154.425 135.561C166.441 139.778 179.48 146.539 190.119 156.601C192.15 158.522 189.52 161.234 187.321 159.487C187.321 159.487 180.246 153.865 168.967 148.288C162.785 145.232 155.385 142.21 147.23 140.124C157.74 144.662 170.07 151.964 181.774 163.71C183.747 165.69 180.885 168.355 178.822 166.458C178.822 166.458 174.88 162.835 167.99 158.253C161.546 153.967 152.557 148.864 141.826 145.085C141.128 151.754 139.321 159.755 135.308 165.272C134.261 166.712 132.66 166.631 131.781 165.094C129.188 160.563 125.506 155.923 120.628 153.349" fill="white"/>
<path d="M98.9489 135.961C55.1464 130.814 25.2708 149.215 24.5723 149.71C56.0022 128.106 98.2314 132.44 98.2314 132.44C67.8849 121.063 27.3543 139.682 27.3543 139.682C35.7097 135.328 43.3673 132.193 50.3237 129.988C54.4052 120.949 60.4678 115.391 60.4678 115.391C60.4678 115.391 55.3246 115.036 44.8925 123.056C49.0871 106.066 62.9958 96.2805 62.9958 96.2805C62.9958 96.2805 55.7149 93.0335 54.4201 89.075C47.8994 90.0949 46.6737 85.7389 46.339 84.6382C46.5924 85.1478 47.5132 86.03 50.8535 86.03C56.284 86.03 58.5009 82.8503 65.2364 82.8503C69.9047 82.8503 73.8968 83.6945 77.3062 85.0824C80.7047 83.5657 89.9722 80.1565 98.848 83.3631C111.643 78.3526 118.023 85.7325 118.023 85.7325C118.023 85.7325 123.023 82.715 128.598 83.1221C134.172 83.5292 136.786 86.0043 141.557 86.0043C144.6 86.0043 145.931 83.9946 145.931 83.9946C145.931 83.9946 145.054 89.8186 140.584 89.718C139.823 91.5392 137.716 95.2074 132.219 98.9435C145.553 108.676 145.84 121.699 145.84 121.699C145.84 121.699 142.219 117.103 137.65 115.934C142.659 120.673 143.338 126.266 143.417 128.552C154.636 130.047 169.795 134.883 186.383 147.071C186.383 147.071 157.208 127.564 126.717 131.763C140.316 132.169 168.802 139.211 188.652 157.986C188.652 157.986 159.784 135.013 125.429 135.42C135.593 137.315 158.974 143.684 180.263 165.053C180.263 165.053 164.137 150.201 139.963 142.375C139.963 142.375 139.41 156.17 133.599 164.16C126.505 151.762 118.222 150.31 118.222 150.31C118.222 150.31 119.756 156.116 116.228 160.18C115.23 165.406 111.318 171.356 102.966 171.146C87.1041 170.747 86.7572 153.127 86.7572 153.127C83.318 153.515 74.4103 156.012 67.7094 171.011C58.3695 162.293 57.0991 152.977 57.9237 146.222C50.18 149.11 42.3693 153.116 35.3588 158.674C35.3588 158.674 52.9979 137.857 98.9455 135.961" fill="black"/>
<path fill-rule="evenodd" clip-rule="evenodd" d="M42.8785 122.615C45.338 112.653 51.4366 103.474 59.376 96.6215C57.0094 95.2349 54.5736 93.4925 53.1568 91.1783C48.4987 91.3937 45.5541 89.1384 44.3508 85.185C43.6299 82.2464 44.9179 81.788 48.2148 83.8086C48.5401 83.9445 49.3551 84.0753 50.8559 84.0753C54.3141 84.0753 57.1483 82.5047 60.5434 81.5713V46.2463C60.5434 39.753 54.9801 36.4374 48.1166 38.8401C39.7449 41.3268 32.8922 43.7256 27.5606 46.036C20.6971 48.4387 15.1338 55.65 15.1338 62.1433V129.773C15.1338 136.267 20.6971 139.583 27.5606 137.18C37.7156 132.45 44.6523 129.523 48.368 128.399C48.5455 128.337 48.7223 128.271 48.8971 128.203C50.6025 124.651 52.5823 121.659 54.3297 119.351C49.6357 121.701 45.5955 125.049 41.5004 128.197C42.142 125.598 42.0749 124.967 42.8785 122.617M37.8267 60.0336C36.1383 60.5855 34.7697 62.7876 34.7697 64.9518V111.638C34.7697 113.803 36.1383 115.11 37.8267 114.558C39.5152 114.006 40.8832 111.804 40.8832 109.64V62.953C40.8832 60.7888 39.5152 59.4816 37.8267 60.0336ZM110.399 32.4667V79.9033C106.602 79.3289 102.573 79.909 98.8124 81.2745C96.0846 80.3962 93.3521 80.0674 90.7632 80.0808V71.2489C88.5504 71.3425 86.3511 71.4727 84.166 71.6381V80.811C81.2803 81.4181 78.8696 82.2874 77.2659 82.9541C73.7874 81.6598 69.7966 80.8976 65.2381 80.8976C64.9983 80.8976 64.7625 80.9027 64.5308 80.9129V35.2264C70.9132 34.0821 77.4698 33.2456 84.166 32.7385V52.7691C86.3511 52.6037 88.5504 52.4735 90.7632 52.3793V32.3493C93.6116 32.2288 96.4837 32.1673 99.3748 32.1673C103.085 32.1673 106.761 32.2679 110.399 32.4667ZM134.024 35.1918V82.2207C128.592 80.6309 124.123 80.6174 118.367 83.3272L118.133 83.1432C116.958 82.2393 115.701 81.5284 114.388 80.9924V32.7237C121.084 33.2238 127.64 34.0539 134.024 35.1918ZM148.066 127.373C148.904 113.447 141.714 104.142 135.533 98.9941C139.086 96.392 140.983 93.4778 141.982 91.5661C145.913 90.7314 147.6 86.8126 147.754 84.7805C148.083 80.4251 145.335 81.8021 144.455 82.8208C143.835 83.54 142.513 84.0484 141.559 84.0484C140.267 84.0484 139.162 83.8368 138.012 83.5035V46.304C138.012 39.8107 143.576 36.4945 150.438 38.8972C158.811 41.3832 165.663 43.5955 170.995 45.9065C177.857 48.3092 183.421 55.4673 183.421 61.9613V126.837C183.421 132.885 177.194 138.453 172.176 135.885C163.281 131.331 155.109 128.741 148.066 127.371M160.729 59.8509C159.041 59.2989 157.671 60.606 157.671 62.7703V108.838C157.671 111.002 159.041 113.091 160.729 113.503C162.418 113.915 163.785 112.495 163.785 110.331V64.7691C163.785 62.6049 162.418 60.4028 160.729 59.8509Z" fill="#00694E"/>
<path fill-rule="evenodd" clip-rule="evenodd" d="M107.696 84.8509C105.83 84.8781 104.434 85.3684 103.742 85.6525C115.756 93.3006 115.638 108.007 115.638 108.007C115.638 108.007 111.527 90.3158 98.5678 86.6715C90.4417 84.3857 85.2739 86.8751 83.212 88.2485C93.9546 96.0884 96.3872 109.499 96.3872 109.499C96.3872 109.499 87.2469 83.4031 62.9952 86.5561C61.4303 86.7597 59.7273 87.469 57.8643 88.0839C61.2076 88.4316 66.2571 89.6425 70.3809 93.5432C58.68 100.108 55.926 109.519 55.3313 112.484C55.2126 113.08 55.1807 113.416 55.1807 113.416C55.1807 113.416 55.9314 113.008 57.3315 112.484C60.1495 111.429 65.5975 109.899 72.8532 110.262C71.4677 110.973 70.1831 111.718 68.9901 112.484L73.8895 112.486L77.5613 112.484C75.9807 110.523 75.0939 108.957 75.0939 108.957C75.0939 108.957 77.0333 111.34 84.0782 112.484H84.1031C84.095 112.483 84.0863 112.482 84.0782 112.481L100.308 112.483L116.537 112.481C116.128 111.191 115.826 110.242 115.826 110.242C126.165 107.855 128.598 105.26 128.598 105.26C128.598 105.26 127.776 109.676 125.94 112.484L132.304 112.482C131.287 111.202 130.108 109.958 128.741 108.821C131.777 109.178 135.668 111.162 137.984 112.484L139.441 112.482C137.93 109.31 133.169 100.681 124.403 96.4254C128.652 91.9985 133.757 89.9968 137.17 89.1045C133.963 88.1362 130.851 86.0746 127.594 85.8771C121.876 85.5304 116.732 88.4624 116.732 88.4624C113.272 85.5458 110.096 84.816 107.697 84.8504L107.696 84.8509ZM137.984 112.485C139.197 113.178 139.978 113.688 139.978 113.688C139.978 113.688 139.802 113.241 139.44 112.485H137.984ZM125.94 112.484C125.606 112.996 125.236 113.456 124.834 113.824C122.627 115.842 119.689 115.672 119.689 115.672L120.52 119.122C124.626 119.596 129.059 121.758 131.501 128.09C132.794 128.032 134.233 128.012 135.807 128.05C135.445 126.389 134.958 124.715 134.316 123.066C136.699 123.474 138.312 125.541 138.312 125.541C138.312 125.541 137.172 118.603 132.305 112.485H125.94L125.94 112.484ZM100.308 112.483L84.1031 112.484C87.2735 112.996 91.4742 113.256 96.9954 112.936L99.3451 120.868C99.3451 120.868 105.246 119.041 107.822 125.542C110.479 124.835 115.667 123.963 119.31 124.831C119.632 119.55 115.229 118.229 115.229 118.229C116.67 118.16 117.788 118.515 118.657 119.106C118.308 118.047 117.256 114.742 116.538 112.485L100.307 112.483L100.308 112.483ZM77.5613 112.484C77.5618 112.485 77.5624 112.487 77.5634 112.487L73.8895 112.486L68.9901 112.488C60.9468 117.682 57.1217 124.019 55.3032 128.936C69.9733 125.202 81.2715 125.453 89.0492 126.719C91.645 124.243 94.212 122.703 96.5059 121.721C96.4794 121.721 95.5823 119.233 95.5823 119.233C95.5823 119.233 92.9843 120.81 88.4844 119.996C83.7416 119.137 79.8964 115.382 77.5634 112.485H77.5613V112.484ZM108.552 113.162C111.383 113.141 114.038 114.053 115.297 115.131C110.381 115.025 105.64 115.255 100.746 116.784C102.712 114.135 105.72 113.183 108.552 113.162ZM120.389 121.036C121.636 123.209 121.672 125.846 121.672 125.846C120.829 128.089 119.715 129.794 118.614 131.064L123.579 131.063C123.635 130.648 123.679 130.235 123.71 129.824L123.805 129.044C123.805 129.044 125.223 128.669 127.812 128.375C127.049 126.061 125.141 122.619 120.39 121.036H120.389ZM101.454 122.854C100.421 122.842 99.1885 123.2 97.7304 124.12C93.5432 126.76 93.1507 127.543 93.1507 127.543C98.8448 128.917 101.744 130.642 101.744 130.642C101.714 130.783 101.686 130.924 101.661 131.064L108.806 131.063C107.856 130.051 106.949 128.948 106.104 127.776C105.863 126.253 104.555 122.888 101.454 122.854ZM108.807 131.064L101.661 131.066C101.164 133.857 101.476 136.559 102.469 138.79C98.4854 138.827 94.5606 138.999 90.7094 139.301C91.0731 141.723 93.1974 142.396 93.1974 142.396C100.152 138.834 112.161 137.123 112.161 137.123L112.555 134.386C111.262 133.457 110.004 132.336 108.816 131.071L108.807 131.064ZM123.579 131.064C123.398 132.383 123.079 133.722 122.568 135.05C121.922 136.728 122.143 137.006 121.083 138.29C123.159 138.484 125.034 138.779 127.058 139.051C126.727 139.449 125.546 140.842 124.977 141.227L114.402 137.53V134.376C114.402 134.376 116.486 133.528 118.614 131.067L123.579 131.064ZM87.7163 139.561C83.2185 139.994 78.828 140.603 74.5682 141.374C73.9188 141.506 73.264 141.645 72.6033 141.792C71.7534 145.213 72.3632 147.854 73.1919 149.643L75.5888 149.641C76.2262 147.39 77.6757 144.339 80.9555 142.803C80.8325 146.284 82.1333 148.382 83.6418 149.643H87.0024C87.0019 149.644 87.0019 149.645 87.0014 149.647H87.0035C87.1298 148.94 87.3775 148.052 87.854 147.076C87.9044 147.967 87.9748 148.823 88.0654 149.643C89.7104 164.554 97.7477 168.196 104.203 167.731C110.998 167.242 113.397 161.507 113.397 161.507C113.397 161.507 111.874 160.066 106.443 160.066C103.25 160.066 102.248 161.507 100.725 162.051C99.202 162.593 97.248 162.186 95.1509 160.201C92.8895 158.063 92.0233 153.131 91.5138 149.643C91.2878 148.099 91.1317 146.838 90.9555 146.229C90.478 144.578 88.4009 140.788 87.7163 139.561ZM87.0014 149.647L83.6429 149.643C84.7796 150.594 86.0349 151.067 86.8886 151.3C86.8886 151.3 86.8214 150.66 87.0014 149.647ZM130.276 139.643C132.437 139.99 134.504 140.792 136.597 141.225C136.259 144.954 135.551 147.806 135.551 147.806C135.551 147.806 134.028 143.431 131.644 142.668C132.488 145.552 132.401 147.862 131.936 149.643H131.935C131.085 152.898 128.973 154.385 128.973 154.385C128.973 154.385 129.065 152.138 128.511 149.643L130.794 149.643L128.511 149.642C128.088 147.736 127.288 145.688 125.782 144.381C128.65 142.81 129.702 141.226 130.276 139.643V139.643ZM130.793 149.642L131.935 149.643C131.935 149.643 131.934 149.643 131.935 149.642H130.793ZM67.4914 143.053C66.2826 143.378 65.0625 143.727 63.8359 144.102C64.7183 147.046 66.1964 148.979 66.1964 148.979C66.1964 148.979 66.0777 146.017 67.4914 143.053ZM75.5997 149.647L73.2028 149.649C74.0413 151.462 75.1053 152.404 75.1053 152.404C75.1053 152.404 75.1536 151.221 75.5997 149.647Z" fill="#E4BB85"/>
<path fill-rule="evenodd" clip-rule="evenodd" d="M119.924 110.937L122.164 110.122C122.164 110.122 122.308 113.469 119.924 114.227C120.21 112.843 119.924 110.937 119.924 110.937ZM91.8192 114.989L89.0596 114.634C89.0596 114.634 89.7222 117.788 93.4866 118.686C92.3938 116.973 91.8192 114.989 91.8192 114.989ZM120.928 141.901L113.113 138.611C103.263 140.055 99.3481 142.256 99.3481 142.256C99.3481 142.256 97.9469 145.345 102.403 147.935C102.403 147.935 102.343 142.9 104.228 141.231L106.214 142.45L107.878 140.266L109.864 141.434L111.421 139.657L113.461 141.028L115.232 140.216C115.232 140.216 118.721 141.942 117.487 146.462C120.922 144.735 120.928 141.901 120.928 141.901ZM110.64 156.229C114.978 154.245 114.696 148.291 114.696 148.291C118.453 155.909 113.4 159.164 113.4 159.164C113.4 159.164 109.636 158.077 106.302 158.213C102.968 158.349 100.01 160.197 100.01 160.197C100.01 160.197 94.1899 158.957 97.7328 148.087C97.7328 148.087 97.8216 155.265 101.964 156.908L103.112 154.924L104.348 156.5L105.728 154.38L107.246 156.092L109.061 154.109L110.64 156.229Z" fill="white"/>
</svg>
