<svg width="201" height="201" viewBox="0 0 201 201" fill="none" xmlns="http://www.w3.org/2000/svg">
<g clip-path="url(#clip0_15016_302074)">
<path d="M79.0172 65.187H42.7204C32.9395 65.187 24.1865 71.2976 20.8101 80.491L0.863281 134.955H53.4003L51.9871 138.827L69.9521 151.856H96.9271C108.873 151.856 119.553 144.405 123.682 133.175L124.049 132.166L128.141 134.973H159.025C168.97 134.973 177.852 128.753 181.229 119.394L200.863 65.2053H148.639L150.033 61.4252L131.903 48.3047H104.671C93.8626 48.3047 82.724 55.0576 78.9989 65.187" fill="#FE5C00"/>
<path d="M25.508 82.4002L16.4246 107.136L21.948 111.027H14.9933L8.0752 129.854H60.5755L57.9881 136.919L71.5489 146.755H97.0927C107.002 146.755 115.847 140.534 119.223 131.212L121.682 124.422L129.664 129.872H158.933C166.75 129.872 173.705 124.973 176.366 117.651L193.634 69.9954H141.28L143.721 63.2424L130.197 53.4434H105.057C95.2026 53.4434 86.3943 59.5907 82.9995 68.8393L82.5776 69.9954H43.3079C35.3623 69.9954 28.2423 74.9499 25.508 82.4184" fill="#231F20"/>
<path d="M133.645 75.5548L137.462 65.1685L128.507 58.6725H104.964C97.385 58.6725 90.6139 63.4069 87.9897 70.5268L79.053 94.8592L103.881 114.604L98.853 128.734H82.5396L87.0171 116.384H18.7173L15.6895 124.624H68.0978L64.2994 134.991L73.2544 141.524H96.9629C104.45 141.524 111.13 136.863 113.717 129.835L122.763 105.227L98.1557 85.6475L103.312 71.4443H119.24L114.745 84.0877H182.989L186.035 75.5914H133.645V75.5548ZM59.1799 111.025C64.1711 111.025 68.6486 107.906 70.3735 103.208L78.5761 80.8757L70.7774 75.1503H43.7105C37.7468 75.1503 32.4069 78.8756 30.3517 84.4722L22.7362 105.208L30.6269 110.989H59.1799V111.025ZM46.3898 80.5087H64.2447L55.2161 105.832H37.2514L46.3898 80.5087ZM157.391 114.861C156.401 117.613 153.795 119.448 150.877 119.448H137.683L148.73 89.2252H134.362L123.517 119.301L131.573 124.788H158.364C164.255 124.788 169.521 121.1 171.54 115.576L181.118 89.2435H166.585L157.391 114.879V114.861Z" fill="#FE5C00"/>
</g>
<defs>
<clipPath id="clip0_15016_302074">
<rect width="200" height="200" fill="white" transform="translate(0.863281 0.078125)"/>
</clipPath>
</defs>
</svg>
