<svg width="201" height="200" viewBox="0 0 201 200" fill="none" xmlns="http://www.w3.org/2000/svg">
<path d="M70.3362 108.623V69.6295H98.591V108.623L103.386 104.152V51.2236L97.6907 45.9109H71.2375L65.5409 51.2236V104.152L70.3362 108.623ZM95.8504 182.35L70.3362 158.558V137.72H62.7993L37.2852 113.927V41.446L62.7993 17.6538H106.129L131.643 41.446V113.927L106.129 137.72H98.5913V148.781L104.288 154.094H130.743L136.438 148.781V69.6295H164.695V158.559L139.181 182.351H95.8512L95.8504 182.35Z" fill="white"/>
<path d="M98.5887 43.0931H98.7857L98.9297 43.2275L106.011 49.8317L106.17 49.98V50.1973V105.114V105.331L106.011 105.479L98.9297 112.082L98.7856 112.217H98.5887H96.3026H95.8026V111.717V72.383H73.1182V111.717V112.217H72.6182H70.3347H70.1377L69.9937 112.082L62.9114 105.479L62.7523 105.331V105.114V50.1973V49.9799L62.9113 49.8317L69.9937 43.2275L70.1377 43.0931H70.3347H98.5887ZM96.3027 134.901H105.029L128.855 112.684V42.6251L105.029 20.4071H63.8933L40.0674 42.6251V112.684L63.8933 134.901H72.6192H73.1192V135.401V157.313L96.9459 179.532H138.08L161.906 157.313V72.3861H139.221V149.743V149.96L139.062 150.108L131.98 156.713L131.836 156.847H131.639H103.384H103.187L103.043 156.713L95.9617 150.108L95.8027 149.96V149.743V135.401V134.901H96.3027Z" fill="#841617" stroke="white"/>
</svg>
