<svg width="201" height="201" viewBox="0 0 201 201" fill="none" xmlns="http://www.w3.org/2000/svg">
<g clip-path="url(#clip0_15016_302031)">
<mask id="mask0_15016_302031" style="mask-type:luminance" maskUnits="userSpaceOnUse" x="1" y="18" width="201" height="165">
<path d="M1.07812 18.0391H201.078V182.816H1.07812V18.0391Z" fill="white"/>
</mask>
<g mask="url(#mask0_15016_302031)">
<path fill-rule="evenodd" clip-rule="evenodd" d="M174.405 78.9502L178.243 79.0069V93.0032C186.428 92.5098 199.744 91.3377 199.744 91.3377L196.001 116.022C195.917 121.192 195.536 149.007 195.422 157.349C196.199 158.763 197.103 160.551 197.66 162.005C198.606 164.461 199.178 167.338 199.502 169.213C199.834 171.147 201.08 182.419 201.08 182.419C201.08 182.419 178.25 182.464 174.829 182.438C171.466 182.413 157.413 182.336 154.951 182.323C153.125 182.453 146.965 182.701 139.394 180.824C136.457 180.087 133.695 178.777 131.267 176.967H121.694C116.805 179.694 111.401 181.375 105.827 181.901C101.284 182.345 96.5923 182.043 91.9628 181.64C90.6944 181.531 87.3617 181.629 84.3447 181.723C82.6679 181.773 81.0838 181.831 79.9137 181.878L78.4997 181.935L78.1254 181.954C77.8204 181.966 77.515 181.962 77.2104 181.943L58.2785 182.818L58.8777 179.878C54.023 181.411 48.9527 182.149 43.8626 182.066C18.4694 181.735 1.07812 159.867 1.07812 138.461C1.07812 120.754 12.6566 103.958 28.7284 96.4474L28.7794 78.8595L32.4656 78.9124C29.3787 73.6005 27.0536 68.1827 27.0536 61.3623C27.0536 44.7536 40.4846 31.2905 57.0536 31.2905C61.1311 31.2905 65.0346 32.1128 68.5942 33.6005C72.2504 32.0727 76.1741 31.2874 80.1367 31.2905C81.3711 31.2905 82.5885 31.3661 83.7851 31.5117C86.7473 23.6383 94.3277 18.0391 103.222 18.0391C112.156 18.0391 119.766 23.6893 122.698 31.6194C128.109 30.8129 133.638 31.4972 138.689 33.5986C142.344 32.0724 146.266 31.2879 150.227 31.2905C166.796 31.2905 180.227 44.7517 180.227 61.3604C180.227 68.4531 177.568 73.765 174.401 78.9502" fill="white"/>
</g>
<path fill-rule="evenodd" clip-rule="evenodd" d="M174.826 96.6052C181.869 96.3481 195.712 95.1307 195.712 95.1307L192.586 115.739C192.51 120.428 192.089 151.159 191.99 158.225L192.425 158.997C193.134 160.286 193.96 161.911 194.472 163.238C195.287 165.363 195.818 167.964 196.134 169.8C196.459 171.69 197.262 179.01 197.262 179.01C197.262 179.01 178.268 179.048 174.85 179.019C171.419 178.993 156.854 178.913 154.831 178.904C153.423 179.014 147.523 179.32 140.209 177.505C134.538 176.099 130.363 172.273 127.642 168.256C121.726 174.106 113.933 177.681 105.491 178.497C101.155 178.923 96.6745 178.62 92.253 178.235C90.9184 178.119 87.4118 178.208 84.2378 178.305C82.5498 178.358 80.9524 178.416 79.7728 178.463L78.3588 178.52L77.9732 178.539C77.7373 178.549 77.5011 178.542 77.2662 178.518L62.4949 179.199C62.4949 179.199 62.9675 176.877 63.4968 174.371C58.355 176.853 51.8106 178.749 43.9032 178.649C20.5894 178.344 4.48926 158.218 4.48926 138.465C4.48926 121.486 16.1528 105.189 32.132 98.696L32.1792 82.3349L38.7388 82.4294C38.1792 81.6355 37.7653 81.0419 37.648 80.8547C33.5157 74.3009 30.4647 68.7394 30.4647 61.3651C30.4647 46.6468 42.3664 34.7167 57.0507 34.7167C61.1755 34.7167 65.0961 35.6657 68.5913 37.3557C72.19 35.6152 76.1364 34.7129 80.1339 34.7167C82.2189 34.7167 84.2511 34.9587 86.2057 35.4162C87.7993 27.4578 94.8106 21.4653 103.219 21.4653C111.697 21.4653 118.756 27.558 120.27 35.6185C122.511 35.0175 124.821 34.7137 127.141 34.7149C131.268 34.7149 135.189 35.6619 138.684 37.3538C142.283 35.6134 146.229 34.7112 150.227 34.7149C164.909 34.7149 176.812 46.6468 176.812 61.3651C176.812 68.6355 173.665 73.747 169.748 79.9568C169.295 80.6752 168.714 81.5069 168.149 82.2876L174.826 82.3822V96.6052Z" fill="#A1D0F0"/>
<path fill-rule="evenodd" clip-rule="evenodd" d="M166.17 77.6831C165.561 78.6472 164.696 79.8381 164 80.7738L159.796 86.4127L170.59 86.5678V100.8C172.151 100.863 173.395 100.895 174.036 100.88C180.813 100.702 190.716 99.8343 190.716 99.8343L188.357 115.381C188.295 119.171 187.79 155.834 187.741 159.343C187.934 159.664 188.301 160.29 188.718 161.048C189.342 162.178 190.074 163.6 190.522 164.764C191.18 166.477 191.656 168.734 191.96 170.52C192.272 172.324 192.539 174.764 192.539 174.764C192.539 174.764 178.299 174.793 174.89 174.766C171.312 174.74 155.639 174.655 154.673 174.649C154.068 174.706 148.397 175.154 141.236 173.377C134.548 171.717 130.178 165.547 128.524 160.592C123.168 168.466 114.635 173.341 105.089 174.265C101.006 174.664 96.7864 174.36 92.6257 173.999C91.2079 173.876 87.4839 173.951 84.1153 174.055C82.4121 174.107 80.7977 174.165 79.6087 174.214L78.1871 174.271L77.7958 174.29C77.7039 174.294 77.612 174.28 77.5255 174.248L67.7391 174.702C67.7391 174.702 68.8318 169.288 69.7032 166.681C69.9036 166.076 70.1569 165.409 70.4291 164.732C65.7996 168.804 56.9376 174.562 43.9641 174.396C23.2268 174.125 8.73535 156.156 8.73535 138.46C8.73535 122.42 20.5425 106.74 36.3686 101.674L36.4121 86.6415L47.087 86.7927C47.087 86.7927 41.707 79.3258 41.2401 78.5829C37.1361 72.0725 34.7089 67.4165 34.7089 61.3617C34.7089 48.9912 44.7146 38.9628 57.0567 38.961C60.6257 38.961 64.0038 39.8059 67 41.2974L68.5974 42.0952L70.1928 41.2974C73.2824 39.7578 76.6879 38.9585 80.1399 38.9628C82.104 38.9628 84.0076 39.218 85.8223 39.6944L89.6522 40.702L90.2722 36.7833C91.2609 30.5073 96.6862 25.7114 103.223 25.7114C109.824 25.7114 115.289 30.598 116.202 36.9591L116.794 41.0744L120.771 39.8872C122.792 39.2861 124.932 38.961 127.147 38.961C130.72 38.961 134.098 39.8041 137.095 41.2974L138.69 42.0952L140.287 41.2974C143.376 39.7581 146.78 38.9582 150.231 38.961C162.575 38.961 172.578 48.9893 172.578 61.3617C172.578 67.2464 170.144 71.3863 166.17 77.6831Z" fill="#003767"/>
<path fill-rule="evenodd" clip-rule="evenodd" d="M44.8965 94.2959H161.815L161.789 100.355C157.948 100.137 154.728 99.9348 154.728 99.9348C154.728 99.9348 142.7 101.116 135.902 101.116C129.116 101.116 117.866 99.7742 117.866 99.7742L120.689 109.198C120.212 108.882 119.728 108.576 119.237 108.279C108.167 101.629 94.5014 100.721 89.1876 100.638C86.0969 100.589 82.1649 100.755 79.2594 100.693C74.9664 100.598 62.4541 98.2014 62.4296 98.1976L61.7944 98.0766C61.7944 98.0766 62.2027 101.417 62.4749 103.613C57.3577 101.245 51.9248 99.9764 46.94 99.9764C46.2557 99.9802 45.5751 100.005 44.8984 100.048L44.8965 94.2959ZM94.7074 159.464C102.118 159.782 105.605 158.007 110.275 153.266C115.367 147.98 115.337 139.742 113.715 134.362C111.607 127.362 105.293 123.5 97.9929 121.636C97.4069 121.504 95.8322 121.428 94.923 121.319C94.904 133.812 94.5127 146.625 94.7074 159.464ZM69.8757 106.596C69.8757 106.596 74.2802 107.606 79.1044 107.712C82.0212 107.776 85.9721 107.61 89.0761 107.659C99.1536 107.818 137.471 111.275 126.103 149.481C123.04 159.778 114.534 166.3 104.405 167.279C100.745 167.638 96.957 167.33 93.2254 167.007C86.9551 166.46 77.2519 167.468 77.2443 167.47L76.647 167.57C76.647 167.57 77.4825 164.521 79.3691 162.527C81.4579 160.319 83.4541 159.445 83.4541 159.445L80.7698 118.916C80.7698 118.916 78.647 118.268 77.0005 117.169C70.7245 112.976 69.8757 106.596 69.8757 106.596Z" fill="#95999C"/>
<path fill-rule="evenodd" clip-rule="evenodd" d="M94.7087 159.466C102.119 159.783 105.607 158.008 110.276 153.267C114.603 148.776 115.23 142.156 114.329 136.965L117.145 132.882C117.145 132.882 122.813 152.927 105.892 160.477C100.936 162.689 92.1019 162.048 92.1019 162.048L94.7068 159.439L94.7087 159.466ZM81.3344 164.069C80.1511 164.693 78.1208 166.315 76.6577 167.536C76.7579 167.188 77.6028 164.398 79.3722 162.528C81.4592 160.32 83.4554 159.447 83.4554 159.447L80.7692 118.918L84.2909 116.386L86.6388 161.783C86.6388 161.783 84.4649 162.42 81.3344 164.069ZM69.877 106.598C69.877 106.598 74.2796 107.608 79.1057 107.713C82.0225 107.778 85.9734 107.611 89.0792 107.661C96.8391 107.783 121.344 109.861 127.013 128.256L122.835 127.727C122.835 127.727 118.894 116.169 100.688 112.506C87.6444 109.88 82.4233 112.218 77.5442 110.836C73.3911 109.661 71.1038 107.946 69.8788 106.617L69.877 106.598Z" fill="white"/>
<path fill-rule="evenodd" clip-rule="evenodd" d="M140.629 50.7309C143.244 48.3629 146.648 47.0535 150.175 47.0579C158.058 47.0579 164.448 53.4606 164.448 61.3604C164.45 63.3546 164.035 65.3272 163.229 67.1513C162.424 68.9755 161.245 70.6108 159.769 71.952L140.629 92.7025V66.0541C139.844 68.3145 138.505 70.3422 136.735 71.952L117.599 92.7025V63.1033C117.363 65.0597 116.723 66.9459 115.72 68.642L103.225 92.7025L90.8806 68.1694C90.3427 67.1746 89.9252 66.1193 89.6367 65.0258V92.7025L70.4969 71.9539C68.7264 70.3442 67.3876 68.3165 66.6027 66.056V92.7025L47.4647 71.9539C45.9882 70.6128 44.8089 68.9773 44.0028 67.1527C43.1966 65.3282 42.7815 63.3551 42.7842 61.3604C42.7842 53.4606 49.1736 47.0579 57.0564 47.0579C60.7237 47.0579 64.0734 48.4473 66.6027 50.7309V56.6666C67.5729 53.8622 69.3928 51.4299 71.8094 49.7078C74.226 47.9857 77.1192 47.0595 80.0866 47.0579C83.7577 47.0579 87.1056 48.4473 89.633 50.7309V57.6968C91.2511 51.5721 96.8163 47.0579 103.433 47.0579C110.726 47.0579 116.741 52.5399 117.597 59.6174V50.7328C120.212 48.3648 123.615 47.0554 127.143 47.0598C133.385 47.0598 138.692 51.0749 140.629 56.6685V50.7309ZM98.2643 38.2129C98.2634 37.5511 98.3928 36.8956 98.6453 36.2839C98.8978 35.6721 99.2685 35.1162 99.736 34.6478C100.204 34.1794 100.759 33.8077 101.37 33.554C101.981 33.3004 102.637 33.1697 103.298 33.1694C104.635 33.1719 105.917 33.7048 106.861 34.6511C107.806 35.5974 108.336 36.8797 108.336 38.2167C108.337 38.8785 108.208 39.534 107.955 40.1457C107.703 40.7575 107.332 41.3134 106.865 41.7818C106.397 42.2502 105.842 42.6219 105.23 42.8756C104.619 43.1292 103.964 43.2599 103.302 43.2602C101.965 43.2582 100.683 42.7255 99.7388 41.7791C98.7941 40.8327 98.2638 39.55 98.2643 38.2129Z" fill="#95999C"/>
<path fill-rule="evenodd" clip-rule="evenodd" d="M98.2643 38.2129C98.2634 37.5511 98.3928 36.8956 98.6453 36.2839C98.8978 35.6721 99.2685 35.1162 99.736 34.6478C100.204 34.1794 100.759 33.8077 101.37 33.554C101.981 33.3004 102.637 33.1697 103.298 33.1694C105.459 33.1694 107.306 34.5362 108.019 36.453C106.476 36.0466 104.434 35.9955 102.654 37.5607C101.049 38.9728 100.739 40.9691 100.828 42.6099C100.05 42.1693 99.4023 41.5302 98.952 40.7577C98.5016 39.9852 98.2644 39.1071 98.2643 38.2129ZM89.6349 57.695C91.2492 51.5702 96.8144 47.0579 103.433 47.0579C110.699 47.0579 116.697 52.5021 117.588 59.5437C115.886 57.1108 111.402 52.1864 103.44 53.1052C96.9959 53.85 93.8201 58.1562 93.2965 62.8122C92.8617 66.6798 93.1301 70.4473 93.7747 73.9237L90.8787 68.1694C90.341 67.1745 89.9234 66.1192 89.6349 65.0258V57.695ZM117.597 50.7309C120.213 48.3625 123.617 47.0531 127.145 47.0579C130.094 47.0595 132.97 47.9743 135.378 49.6765C137.786 51.3788 139.608 53.785 140.593 56.5645C139.3 55.1751 134.837 51.3415 126.211 53.1052C121.813 54.005 119.06 56.5078 117.597 59.4946V50.7309ZM140.629 50.7309C143.244 48.3629 146.648 47.0535 150.175 47.0579C153.125 47.0591 156.001 47.9737 158.41 49.676C160.818 51.3783 162.64 53.7847 163.625 56.5645C162.332 55.1751 157.869 51.3415 149.242 53.1052C144.869 53.9993 142.109 56.3585 140.629 59.245V50.7309ZM66.6027 50.7328V56.8443C65.3702 55.3623 61.563 52.712 57.1793 53.1052C51.4137 53.6231 48.3551 57.4171 47.7577 62.0919C47.2625 65.9483 47.9052 69.952 49.0885 73.7139L47.4628 71.9539C45.9866 70.6127 44.8075 68.9771 44.0017 67.1526C43.1959 65.328 42.7812 63.3549 42.7842 61.3604C42.7842 53.4606 49.1736 47.0579 57.0564 47.0579C60.7256 47.0579 64.0734 48.4492 66.6027 50.7328ZM89.6349 50.7328L89.633 56.8443C88.4042 55.3623 84.5952 52.712 80.2095 53.1052C74.4458 53.6231 71.3891 57.4171 70.7899 62.0919C70.2946 65.9483 70.9373 69.952 72.1207 73.7139L70.495 71.9539C68.7253 70.3439 67.3872 68.3162 66.6027 66.056V56.6666C68.5403 51.073 73.8447 47.0579 80.0866 47.0579C83.7577 47.0579 87.1056 48.4473 89.633 50.7309" fill="white"/>
<path fill-rule="evenodd" clip-rule="evenodd" d="M180.648 161.899C181.153 162.366 182.013 163.192 183.081 165.181C183.659 166.258 184.109 168.001 184.109 168.001C184.109 168.001 178.425 167.708 174.937 167.682C171.109 167.653 165.34 168.037 165.34 168.037C165.34 168.037 166.134 166.557 167.423 164.875C168.185 163.88 169.754 162.5 169.754 162.5C169.754 162.5 169.682 162.082 169.625 161.873C161.336 168.627 151.963 169.056 143.12 166.551C139.198 165.44 136.064 161.353 135.077 157.886C133.663 152.927 132.839 125.737 133.001 115.02C133.001 115.02 131.841 113.65 131.247 112.604C130.523 111.324 129.423 107.678 129.423 107.678C129.423 107.678 133.26 108.251 136.901 108.326C139.786 108.385 145.839 107.668 145.839 107.668C145.839 107.668 144.878 139.217 145.791 151.512C146.565 155.126 148.854 159.065 155.128 158.78C163.357 158.4 168.224 154.521 169.101 148.03C169.349 143.502 168.861 116.702 168.55 115.6C168.398 115.453 166.999 113.729 166.323 112.349C165.561 110.793 165.047 108.09 165.047 108.09C165.047 108.09 170.103 108.608 173.347 108.563C177.412 108.502 182.438 107.98 182.474 107.973L181.296 115.171C181.296 115.171 180.767 144.665 180.648 161.899Z" fill="#95999C"/>
<path fill-rule="evenodd" clip-rule="evenodd" d="M145.239 167.094C144.529 166.934 143.824 166.754 143.124 166.555C139.201 165.444 136.069 161.357 135.079 157.89C133.666 152.931 132.663 127.156 132.825 116.442C132.825 116.442 130.16 114.088 129.305 112.485C128.305 110.606 127.385 107.351 127.385 107.351C127.385 107.351 133.322 108.156 136.963 108.211C140.85 108.272 145.842 107.644 145.842 107.644C145.067 109.117 143.651 110.037 141.893 111.066C140.29 112.007 138.907 112.378 137.436 112.758C137.436 129.534 137.489 148.24 138.264 154.822C139.082 161.784 144.971 163.436 144.971 163.436L145.239 167.094ZM151.614 158.429C152.617 158.712 153.782 158.844 155.131 158.786C163.36 158.402 168.228 154.525 169.105 148.035C169.353 143.506 168.033 115.478 168.033 115.478C168.033 115.478 166.268 113.943 165.368 112.697C164.3 111.224 163.553 108.1 163.553 108.1C163.553 108.1 170.107 108.614 173.351 108.567C177.415 108.508 182.441 107.981 182.477 107.977L182.458 108.094C181.581 108.742 179.334 110.351 177.591 111.103C176.003 111.788 173.351 112.402 173.351 112.402L173.47 139.24C173.515 150.081 172.534 158.937 159.689 161.432C152.096 162.905 148.623 160.958 148.623 160.958L151.614 158.429ZM169.757 162.504C169.757 162.504 169.691 162.115 169.634 161.899L173.351 158.95V164.618C171.706 165.045 170.791 165.361 169.23 166.035C167.648 166.716 166.5 167.302 165.343 168.039C165.343 168.039 166.137 166.563 167.426 164.878C168.188 163.884 169.757 162.504 169.757 162.504Z" fill="white"/>
<path fill-rule="evenodd" clip-rule="evenodd" d="M64.7987 140.009C64.1257 127.774 52.7949 118.663 41.5738 118.517C33.0161 117.95 27.4717 123.64 27.0653 133.218C26.4717 147.169 38.8724 156.173 53.001 156.101C61.4566 156.058 65.3375 149.825 64.7987 140.009ZM76.6361 134.22C76.725 152.296 62.0482 167.315 44.0199 167.169C27.6985 167.037 15.9424 152.667 15.9424 138.466C15.9424 122.825 30.2486 107.3 46.9556 107.211C60.207 107.211 76.5435 118.2 76.6361 134.22Z" fill="#95999C"/>
<path fill-rule="evenodd" clip-rule="evenodd" d="M64.804 140.004C64.5771 135.915 63.1631 132.176 60.9609 129.002L62.2047 123.796C69.2028 130.843 72.5299 147.042 63.3805 155.811C56.2444 162.648 41.8493 160.391 33.6943 154.138L38.2142 152.444C42.4769 154.83 47.6149 156.125 53.0062 156.096C61.4618 156.053 65.3427 149.82 64.804 140.004Z" fill="white"/>
<path fill-rule="evenodd" clip-rule="evenodd" d="M28.7571 162.332C20.863 156.905 15.9424 147.644 15.9424 138.461C15.9424 122.82 30.2505 107.294 46.9575 107.204C54.6796 107.204 63.4471 110.935 69.4395 117.219L65.0388 118.364C54.9915 109.763 39.4944 107.79 28.3885 118.912C11.7212 135.614 24.4377 153.78 29.2675 157.079L28.7571 162.332Z" fill="white"/>
<path fill-rule="evenodd" clip-rule="evenodd" d="M130.203 172.214H129.273L128.678 174.029L128.082 172.214H127.152V175.28H127.729V172.806H127.742L128.508 175.282H128.848L129.613 172.806H129.625V175.282H130.201L130.203 172.214ZM126.831 172.214H124.587V172.806H125.392V175.282H126.025V172.806H126.831V172.214Z" fill="#003767"/>
</g>
<defs>
<clipPath id="clip0_15016_302031">
<rect width="200" height="200" fill="white" transform="translate(0.84375 0.621094)"/>
</clipPath>
</defs>
</svg>
