<svg width="200" height="200" viewBox="0 0 200 200" fill="none" xmlns="http://www.w3.org/2000/svg">
<g clip-path="url(#clip0_15016_302072)">
<mask id="path-1-outside-1_15016_302072" maskUnits="userSpaceOnUse" x="-1" y="66.8904" width="202" height="67" fill="black">
<rect fill="white" x="-1" y="66.8904" width="202" height="67"/>
<path d="M101.434 67.8904C98.6963 67.8904 95.9425 68.663 93.6751 69.5522C93.3186 68.7531 92.5964 68.2508 91.6555 68.1833L91.3891 68.1647L91.144 68.2349C87.713 69.2341 84.624 70.9582 81.6317 72.6253L80.6894 73.2177C79.4636 74.0923 77.7899 75.2903 77.4692 77.0793C76.8424 80.5646 77.6441 83.6272 79.7287 85.6958L80.0732 85.9463C81.2845 86.5797 82.717 86.7825 84.2039 86.0192C88.7122 82.9977 92.4639 80.7104 95.8458 78.9015C96.2725 78.7398 96.678 78.5278 97.0835 78.3118C97.1471 78.28 97.2041 78.2455 97.2677 78.2124L95.1938 83.6272C91.625 90.3552 87.7051 98.4867 84.2529 105.659C81.8675 110.612 79.8121 114.89 78.2749 117.857C77.8787 118.636 76.7297 123.663 80.765 128.738C81.4528 129.606 82.4679 130.121 83.4816 130.121C84.3271 130.121 85.9107 129.754 86.9789 127.29C88.422 123.953 90.2004 120.648 91.9205 117.449C93.1198 115.224 94.3139 112.996 95.3621 110.848C97.599 107.111 99.6968 103.684 101.893 100.472C98.0509 107.763 94.0594 115.614 93.2086 118.953L93.1675 119.261C93.0761 122.22 93.2934 126.501 96.3639 129.621C96.7323 129.915 97.7077 130.603 98.8487 130.603C99.4291 130.603 99.9698 130.424 100.412 130.082C102.139 128.741 104.413 124.408 107.204 118.883C107.967 117.367 108.631 116.06 109.049 115.326L109.882 114.003C112.62 109.637 115.418 105.18 118.621 100.958C116.791 104.401 114.954 107.969 113.858 110.402C113.585 111.002 113.293 111.606 113.007 112.208C111.071 116.276 109.066 120.482 110.031 125.496C110.375 128.151 112.706 129.638 114.615 130.603C115.577 130.937 116.567 131.105 117.562 131.105C120.529 131.105 123.113 129.62 125.396 128.309C125.688 128.142 125.976 127.975 126.262 127.812C127.501 129.502 129.188 130.574 131.072 130.823C135.814 131.268 140.439 129.462 144.335 125.804C147.621 128.921 151.637 130.5 156.302 130.5C161.51 130.496 166.453 128.538 169.925 126.704C173.304 129.679 177.465 131.242 182.05 131.242C187.099 131.242 191.857 129.322 194.454 127.307C194.706 127.062 200.577 121.263 199.954 115.494C199.768 113.907 197.767 112.719 196.256 113.387C194.785 114.037 193.659 115.59 192.48 117.237C191.671 118.362 190.836 119.51 189.962 120.29C190.889 118.793 191.724 117.082 192.559 115.032C194.295 110.012 193.169 104.306 191.95 100.501C191.618 99.1108 192.215 97.7618 192.93 96.1994C193.235 95.5288 193.54 94.8596 193.765 94.1877L193.858 93.6285L193.765 93.2402C193.633 92.5551 193.381 91.4074 192.228 90.7554C189.856 89.421 186.688 89.4117 184.939 90.9158C181.308 94.0101 177.611 100.078 174.033 105.946C171.939 109.389 169.699 113.065 167.579 115.877C169.355 111.702 168.48 107.09 167.712 102.98C167.5 101.881 167.287 100.797 167.102 99.5747C166.81 98.488 167.155 97.4424 167.539 96.2325C167.924 95.0663 168.348 93.7411 168.202 92.241L168.162 91.7811L167.844 91.4339C166.837 90.2929 165.313 89.6608 163.537 89.6608C163.087 89.6608 162.636 89.7006 161.987 89.8212C157.905 91.0629 155.904 94.3189 154.141 97.1933C153.426 98.3661 152.737 99.474 151.875 100.537L151.213 101.49C146.853 107.783 142.334 114.283 136.119 119.678C136.066 119.05 136.185 118.234 136.477 117.599C139.498 110.942 142.665 106.863 144.971 103.884C146.376 102.093 147.476 100.677 148.072 99.2871C148.178 99.0578 148.615 97.677 148.337 96.6566C148.191 96.1543 147.913 95.7077 147.529 95.334C148.324 95.2452 149 95.0186 149.57 94.6489C152.034 93.0348 152.896 90.5964 151.889 87.893C151.147 86.1292 149.278 85.0226 146.893 84.9404L146.628 84.9325C144.348 84.9325 142.387 86.047 141.287 88.1156C140.664 89.9192 140.744 91.5082 141.459 92.6213C141.791 93.2216 142.241 93.7093 142.731 94.0897C141.579 94.2367 140.611 94.686 139.988 95.3446C133.853 100.314 129.128 106.793 125.928 114.604C125.677 115.216 125.468 115.842 125.255 116.468C124.921 117.477 124.596 118.44 124.095 119.282C123.757 119.429 123.45 119.548 123.132 119.625C124.099 114.691 126.441 110.143 128.804 105.832C130.508 102.254 134.661 95.8111 138.319 90.1246C143.328 82.355 146.164 77.8731 146.495 76.1119L146.522 75.9251L146.508 75.7356C146.336 73.4337 144.852 71.7586 143.328 70.2095C141.817 68.7703 139.339 68.3012 137.431 69.1069L137.205 69.2235C133.561 71.5665 130.272 74.4289 127.139 77.4106C127.367 77.033 127.588 76.65 127.816 76.2696C129.208 74.1652 127.559 72.3788 126.768 71.5228L126.401 71.1106C124.465 68.9307 121.021 68.1355 118.085 69.1493L117.836 69.2606C114.493 71.1756 111.776 73.7624 109.252 76.4353C109.576 74.7072 109.582 72.9063 108.842 71.0828L108.731 70.8058L107.47 69.5601L107.186 69.3428C105.546 68.3794 103.61 67.8904 101.434 67.8904ZM32.3023 68.329C30.7306 68.329 29.2225 68.553 27.6773 69.0433C18.3558 73.1249 11.1998 80.5527 6.39854 91.1318C4.6877 94.894 -3.57627 114.209 1.78418 124.736C3.53743 128.166 6.51251 130.327 10.6312 131.17C12.2029 131.488 13.7362 131.653 15.1992 131.653C25.7134 131.653 31.4992 123.618 35.3158 115.791C34.8838 119.238 34.9726 122.478 35.8896 125.187C36.9166 128.218 38.8766 130.375 41.7139 131.604C42.4958 131.943 43.3757 132.11 44.3179 132.11C48.7189 132.11 53.8899 128.267 56.0393 126.496C58.9641 129.055 61.6754 130.301 64.2993 130.301C68.7335 130.301 71.531 126.7 73.3823 124.319L73.8792 123.683C78.3438 118.059 75.6232 115.509 75.2985 115.237L75.0414 115.02L74.7101 114.936C74.4742 114.879 74.2238 114.852 73.976 114.852C71.9908 114.852 70.4589 116.629 68.8395 118.512C67.5156 120.05 65.8803 121.981 64.6956 121.627C64.3775 121.535 64.0767 121.27 63.8978 120.954C72.2757 115.623 77.1405 109.975 78.7838 103.571C79.1085 101.372 79.7883 96.7984 75.8445 94.4448C74.6704 93.8352 73.3915 93.5238 72.0345 93.5238C69.1893 93.5238 66.5164 94.8384 63.976 96.3067C62.8177 97.082 61.7377 97.9129 60.7292 98.7941C67.8867 85.3446 68.5758 74.0353 67.5288 70.5421L67.4122 70.175L67.1406 69.9126C66.2103 69.0234 64.8784 68.5517 63.2842 68.5517C61.8583 68.5517 60.2826 68.9505 59.0807 69.6184L58.8633 69.7629C52.8509 74.698 49.1509 81.32 46.1811 86.638C45.8406 87.2569 45.3025 88.2389 44.6519 89.5005C44.7804 88.879 44.8983 88.2535 45.0057 87.6187C45.0627 87.0475 45.1303 86.4697 45.1978 85.8893C45.4814 83.4509 45.7796 80.9291 45.0468 78.5106C44.7393 77.3722 43.9336 76.4499 42.6482 75.7488C42.8655 75.4639 43.0656 75.1432 43.2352 74.7708C43.7322 73.3648 43.2432 71.9376 41.8901 70.8602L41.6516 70.7091C38.658 69.1745 35.341 68.329 32.3023 68.329ZM33.063 82.3921C32.8178 86.7003 31.4886 90.6547 30.0945 94.8265C29.4809 96.6566 28.8435 98.5476 28.3452 100.359C25.8936 107.283 23.324 113.99 19.0198 119.769C18.1239 120.659 16.5827 121.714 14.9633 121.353C12.676 120.186 12.7794 117.682 13.2008 114.021C13.2856 113.283 13.3691 112.567 13.3956 112.009C14.2517 105.721 16.6039 99.8 18.8899 94.0777L19.3458 92.8824C19.6042 92.4384 19.8308 91.9773 20.0521 91.5227C20.3012 91.0165 20.5438 90.5315 20.8181 90.0836C21.4369 90.2704 22.1062 90.4202 22.8324 90.4202C23.332 90.4202 23.813 90.3473 24.2716 90.1975L24.5326 90.0769C26.5377 88.932 27.9357 87.3682 29.2901 85.8628C30.4695 84.5482 31.5986 83.2892 33.063 82.3921ZM68.1345 105.26C67.2399 107.001 65.8949 108.7 64.139 110.306C64.0078 110.41 63.8819 110.51 63.7507 110.62C64.5882 108.891 65.9253 107.192 67.7263 105.562L68.1345 105.26ZM52.6203 111.063C51.8278 113.662 51.4568 116.391 51.5442 119.197C51.482 119.25 51.413 119.307 51.3547 119.363C50.504 120.13 49.4451 121.084 48.6632 121.084C48.4923 121.084 48.3227 121.039 48.1371 120.937C47.0518 120.341 47.0889 118.117 47.2241 117.199C49.192 115.154 50.9903 113.105 52.6203 111.063ZM181.958 112.1C181.825 113.666 181.268 115.563 179.85 117.554C179.519 117.436 179.135 117.315 178.711 117.206C179.956 115.543 181.017 113.823 181.958 112.1ZM156.302 112.519C155.877 113.878 155.241 115.403 154.42 117.018C154.022 116.829 153.611 116.662 153.201 116.527C154.261 115.229 155.308 113.896 156.302 112.519Z"/>
</mask>
<path d="M101.434 67.8904C98.6963 67.8904 95.9425 68.663 93.6751 69.5522C93.3186 68.7531 92.5964 68.2508 91.6555 68.1833L91.3891 68.1647L91.144 68.2349C87.713 69.2341 84.624 70.9582 81.6317 72.6253L80.6894 73.2177C79.4636 74.0923 77.7899 75.2903 77.4692 77.0793C76.8424 80.5646 77.6441 83.6272 79.7287 85.6958L80.0732 85.9463C81.2845 86.5797 82.717 86.7825 84.2039 86.0192C88.7122 82.9977 92.4639 80.7104 95.8458 78.9015C96.2725 78.7398 96.678 78.5278 97.0835 78.3118C97.1471 78.28 97.2041 78.2455 97.2677 78.2124L95.1938 83.6272C91.625 90.3552 87.7051 98.4867 84.2529 105.659C81.8675 110.612 79.8121 114.89 78.2749 117.857C77.8787 118.636 76.7297 123.663 80.765 128.738C81.4528 129.606 82.4679 130.121 83.4816 130.121C84.3271 130.121 85.9107 129.754 86.9789 127.29C88.422 123.953 90.2004 120.648 91.9205 117.449C93.1198 115.224 94.3139 112.996 95.3621 110.848C97.599 107.111 99.6968 103.684 101.893 100.472C98.0509 107.763 94.0594 115.614 93.2086 118.953L93.1675 119.261C93.0761 122.22 93.2934 126.501 96.3639 129.621C96.7323 129.915 97.7077 130.603 98.8487 130.603C99.4291 130.603 99.9698 130.424 100.412 130.082C102.139 128.741 104.413 124.408 107.204 118.883C107.967 117.367 108.631 116.06 109.049 115.326L109.882 114.003C112.62 109.637 115.418 105.18 118.621 100.958C116.791 104.401 114.954 107.969 113.858 110.402C113.585 111.002 113.293 111.606 113.007 112.208C111.071 116.276 109.066 120.482 110.031 125.496C110.375 128.151 112.706 129.638 114.615 130.603C115.577 130.937 116.567 131.105 117.562 131.105C120.529 131.105 123.113 129.62 125.396 128.309C125.688 128.142 125.976 127.975 126.262 127.812C127.501 129.502 129.188 130.574 131.072 130.823C135.814 131.268 140.439 129.462 144.335 125.804C147.621 128.921 151.637 130.5 156.302 130.5C161.51 130.496 166.453 128.538 169.925 126.704C173.304 129.679 177.465 131.242 182.05 131.242C187.099 131.242 191.857 129.322 194.454 127.307C194.706 127.062 200.577 121.263 199.954 115.494C199.768 113.907 197.767 112.719 196.256 113.387C194.785 114.037 193.659 115.59 192.48 117.237C191.671 118.362 190.836 119.51 189.962 120.29C190.889 118.793 191.724 117.082 192.559 115.032C194.295 110.012 193.169 104.306 191.95 100.501C191.618 99.1108 192.215 97.7618 192.93 96.1994C193.235 95.5288 193.54 94.8596 193.765 94.1877L193.858 93.6285L193.765 93.2402C193.633 92.5551 193.381 91.4074 192.228 90.7554C189.856 89.421 186.688 89.4117 184.939 90.9158C181.308 94.0101 177.611 100.078 174.033 105.946C171.939 109.389 169.699 113.065 167.579 115.877C169.355 111.702 168.48 107.09 167.712 102.98C167.5 101.881 167.287 100.797 167.102 99.5747C166.81 98.488 167.155 97.4424 167.539 96.2325C167.924 95.0663 168.348 93.7411 168.202 92.241L168.162 91.7811L167.844 91.4339C166.837 90.2929 165.313 89.6608 163.537 89.6608C163.087 89.6608 162.636 89.7006 161.987 89.8212C157.905 91.0629 155.904 94.3189 154.141 97.1933C153.426 98.3661 152.737 99.474 151.875 100.537L151.213 101.49C146.853 107.783 142.334 114.283 136.119 119.678C136.066 119.05 136.185 118.234 136.477 117.599C139.498 110.942 142.665 106.863 144.971 103.884C146.376 102.093 147.476 100.677 148.072 99.2871C148.178 99.0578 148.615 97.677 148.337 96.6566C148.191 96.1543 147.913 95.7077 147.529 95.334C148.324 95.2452 149 95.0186 149.57 94.6489C152.034 93.0348 152.896 90.5964 151.889 87.893C151.147 86.1292 149.278 85.0226 146.893 84.9404L146.628 84.9325C144.348 84.9325 142.387 86.047 141.287 88.1156C140.664 89.9192 140.744 91.5082 141.459 92.6213C141.791 93.2216 142.241 93.7093 142.731 94.0897C141.579 94.2367 140.611 94.686 139.988 95.3446C133.853 100.314 129.128 106.793 125.928 114.604C125.677 115.216 125.468 115.842 125.255 116.468C124.921 117.477 124.596 118.44 124.095 119.282C123.757 119.429 123.45 119.548 123.132 119.625C124.099 114.691 126.441 110.143 128.804 105.832C130.508 102.254 134.661 95.8111 138.319 90.1246C143.328 82.355 146.164 77.8731 146.495 76.1119L146.522 75.9251L146.508 75.7356C146.336 73.4337 144.852 71.7586 143.328 70.2095C141.817 68.7703 139.339 68.3012 137.431 69.1069L137.205 69.2235C133.561 71.5665 130.272 74.4289 127.139 77.4106C127.367 77.033 127.588 76.65 127.816 76.2696C129.208 74.1652 127.559 72.3788 126.768 71.5228L126.401 71.1106C124.465 68.9307 121.021 68.1355 118.085 69.1493L117.836 69.2606C114.493 71.1756 111.776 73.7624 109.252 76.4353C109.576 74.7072 109.582 72.9063 108.842 71.0828L108.731 70.8058L107.47 69.5601L107.186 69.3428C105.546 68.3794 103.61 67.8904 101.434 67.8904ZM32.3023 68.329C30.7306 68.329 29.2225 68.553 27.6773 69.0433C18.3558 73.1249 11.1998 80.5527 6.39854 91.1318C4.6877 94.894 -3.57627 114.209 1.78418 124.736C3.53743 128.166 6.51251 130.327 10.6312 131.17C12.2029 131.488 13.7362 131.653 15.1992 131.653C25.7134 131.653 31.4992 123.618 35.3158 115.791C34.8838 119.238 34.9726 122.478 35.8896 125.187C36.9166 128.218 38.8766 130.375 41.7139 131.604C42.4958 131.943 43.3757 132.11 44.3179 132.11C48.7189 132.11 53.8899 128.267 56.0393 126.496C58.9641 129.055 61.6754 130.301 64.2993 130.301C68.7335 130.301 71.531 126.7 73.3823 124.319L73.8792 123.683C78.3438 118.059 75.6232 115.509 75.2985 115.237L75.0414 115.02L74.7101 114.936C74.4742 114.879 74.2238 114.852 73.976 114.852C71.9908 114.852 70.4589 116.629 68.8395 118.512C67.5156 120.05 65.8803 121.981 64.6956 121.627C64.3775 121.535 64.0767 121.27 63.8978 120.954C72.2757 115.623 77.1405 109.975 78.7838 103.571C79.1085 101.372 79.7883 96.7984 75.8445 94.4448C74.6704 93.8352 73.3915 93.5238 72.0345 93.5238C69.1893 93.5238 66.5164 94.8384 63.976 96.3067C62.8177 97.082 61.7377 97.9129 60.7292 98.7941C67.8867 85.3446 68.5758 74.0353 67.5288 70.5421L67.4122 70.175L67.1406 69.9126C66.2103 69.0234 64.8784 68.5517 63.2842 68.5517C61.8583 68.5517 60.2826 68.9505 59.0807 69.6184L58.8633 69.7629C52.8509 74.698 49.1509 81.32 46.1811 86.638C45.8406 87.2569 45.3025 88.2389 44.6519 89.5005C44.7804 88.879 44.8983 88.2535 45.0057 87.6187C45.0627 87.0475 45.1303 86.4697 45.1978 85.8893C45.4814 83.4509 45.7796 80.9291 45.0468 78.5106C44.7393 77.3722 43.9336 76.4499 42.6482 75.7488C42.8655 75.4639 43.0656 75.1432 43.2352 74.7708C43.7322 73.3648 43.2432 71.9376 41.8901 70.8602L41.6516 70.7091C38.658 69.1745 35.341 68.329 32.3023 68.329ZM33.063 82.3921C32.8178 86.7003 31.4886 90.6547 30.0945 94.8265C29.4809 96.6566 28.8435 98.5476 28.3452 100.359C25.8936 107.283 23.324 113.99 19.0198 119.769C18.1239 120.659 16.5827 121.714 14.9633 121.353C12.676 120.186 12.7794 117.682 13.2008 114.021C13.2856 113.283 13.3691 112.567 13.3956 112.009C14.2517 105.721 16.6039 99.8 18.8899 94.0777L19.3458 92.8824C19.6042 92.4384 19.8308 91.9773 20.0521 91.5227C20.3012 91.0165 20.5438 90.5315 20.8181 90.0836C21.4369 90.2704 22.1062 90.4202 22.8324 90.4202C23.332 90.4202 23.813 90.3473 24.2716 90.1975L24.5326 90.0769C26.5377 88.932 27.9357 87.3682 29.2901 85.8628C30.4695 84.5482 31.5986 83.2892 33.063 82.3921ZM68.1345 105.26C67.2399 107.001 65.8949 108.7 64.139 110.306C64.0078 110.41 63.8819 110.51 63.7507 110.62C64.5882 108.891 65.9253 107.192 67.7263 105.562L68.1345 105.26ZM52.6203 111.063C51.8278 113.662 51.4568 116.391 51.5442 119.197C51.482 119.25 51.413 119.307 51.3547 119.363C50.504 120.13 49.4451 121.084 48.6632 121.084C48.4923 121.084 48.3227 121.039 48.1371 120.937C47.0518 120.341 47.0889 118.117 47.2241 117.199C49.192 115.154 50.9903 113.105 52.6203 111.063ZM181.958 112.1C181.825 113.666 181.268 115.563 179.85 117.554C179.519 117.436 179.135 117.315 178.711 117.206C179.956 115.543 181.017 113.823 181.958 112.1ZM156.302 112.519C155.877 113.878 155.241 115.403 154.42 117.018C154.022 116.829 153.611 116.662 153.201 116.527C154.261 115.229 155.308 113.896 156.302 112.519Z" fill="white"/>
<path d="M101.434 67.8904C98.6963 67.8904 95.9425 68.663 93.6751 69.5522C93.3186 68.7531 92.5964 68.2508 91.6555 68.1833L91.3891 68.1647L91.144 68.2349C87.713 69.2341 84.624 70.9582 81.6317 72.6253L80.6894 73.2177C79.4636 74.0923 77.7899 75.2903 77.4692 77.0793C76.8424 80.5646 77.6441 83.6272 79.7287 85.6958L80.0732 85.9463C81.2845 86.5797 82.717 86.7825 84.2039 86.0192C88.7122 82.9977 92.4639 80.7104 95.8458 78.9015C96.2725 78.7398 96.678 78.5278 97.0835 78.3118C97.1471 78.28 97.2041 78.2455 97.2677 78.2124L95.1938 83.6272C91.625 90.3552 87.7051 98.4867 84.2529 105.659C81.8675 110.612 79.8121 114.89 78.2749 117.857C77.8787 118.636 76.7297 123.663 80.765 128.738C81.4528 129.606 82.4679 130.121 83.4816 130.121C84.3271 130.121 85.9107 129.754 86.9789 127.29C88.422 123.953 90.2004 120.648 91.9205 117.449C93.1198 115.224 94.3139 112.996 95.3621 110.848C97.599 107.111 99.6968 103.684 101.893 100.472C98.0509 107.763 94.0594 115.614 93.2086 118.953L93.1675 119.261C93.0761 122.22 93.2934 126.501 96.3639 129.621C96.7323 129.915 97.7077 130.603 98.8487 130.603C99.4291 130.603 99.9698 130.424 100.412 130.082C102.139 128.741 104.413 124.408 107.204 118.883C107.967 117.367 108.631 116.06 109.049 115.326L109.882 114.003C112.62 109.637 115.418 105.18 118.621 100.958C116.791 104.401 114.954 107.969 113.858 110.402C113.585 111.002 113.293 111.606 113.007 112.208C111.071 116.276 109.066 120.482 110.031 125.496C110.375 128.151 112.706 129.638 114.615 130.603C115.577 130.937 116.567 131.105 117.562 131.105C120.529 131.105 123.113 129.62 125.396 128.309C125.688 128.142 125.976 127.975 126.262 127.812C127.501 129.502 129.188 130.574 131.072 130.823C135.814 131.268 140.439 129.462 144.335 125.804C147.621 128.921 151.637 130.5 156.302 130.5C161.51 130.496 166.453 128.538 169.925 126.704C173.304 129.679 177.465 131.242 182.05 131.242C187.099 131.242 191.857 129.322 194.454 127.307C194.706 127.062 200.577 121.263 199.954 115.494C199.768 113.907 197.767 112.719 196.256 113.387C194.785 114.037 193.659 115.59 192.48 117.237C191.671 118.362 190.836 119.51 189.962 120.29C190.889 118.793 191.724 117.082 192.559 115.032C194.295 110.012 193.169 104.306 191.95 100.501C191.618 99.1108 192.215 97.7618 192.93 96.1994C193.235 95.5288 193.54 94.8596 193.765 94.1877L193.858 93.6285L193.765 93.2402C193.633 92.5551 193.381 91.4074 192.228 90.7554C189.856 89.421 186.688 89.4117 184.939 90.9158C181.308 94.0101 177.611 100.078 174.033 105.946C171.939 109.389 169.699 113.065 167.579 115.877C169.355 111.702 168.48 107.09 167.712 102.98C167.5 101.881 167.287 100.797 167.102 99.5747C166.81 98.488 167.155 97.4424 167.539 96.2325C167.924 95.0663 168.348 93.7411 168.202 92.241L168.162 91.7811L167.844 91.4339C166.837 90.2929 165.313 89.6608 163.537 89.6608C163.087 89.6608 162.636 89.7006 161.987 89.8212C157.905 91.0629 155.904 94.3189 154.141 97.1933C153.426 98.3661 152.737 99.474 151.875 100.537L151.213 101.49C146.853 107.783 142.334 114.283 136.119 119.678C136.066 119.05 136.185 118.234 136.477 117.599C139.498 110.942 142.665 106.863 144.971 103.884C146.376 102.093 147.476 100.677 148.072 99.2871C148.178 99.0578 148.615 97.677 148.337 96.6566C148.191 96.1543 147.913 95.7077 147.529 95.334C148.324 95.2452 149 95.0186 149.57 94.6489C152.034 93.0348 152.896 90.5964 151.889 87.893C151.147 86.1292 149.278 85.0226 146.893 84.9404L146.628 84.9325C144.348 84.9325 142.387 86.047 141.287 88.1156C140.664 89.9192 140.744 91.5082 141.459 92.6213C141.791 93.2216 142.241 93.7093 142.731 94.0897C141.579 94.2367 140.611 94.686 139.988 95.3446C133.853 100.314 129.128 106.793 125.928 114.604C125.677 115.216 125.468 115.842 125.255 116.468C124.921 117.477 124.596 118.44 124.095 119.282C123.757 119.429 123.45 119.548 123.132 119.625C124.099 114.691 126.441 110.143 128.804 105.832C130.508 102.254 134.661 95.8111 138.319 90.1246C143.328 82.355 146.164 77.8731 146.495 76.1119L146.522 75.9251L146.508 75.7356C146.336 73.4337 144.852 71.7586 143.328 70.2095C141.817 68.7703 139.339 68.3012 137.431 69.1069L137.205 69.2235C133.561 71.5665 130.272 74.4289 127.139 77.4106C127.367 77.033 127.588 76.65 127.816 76.2696C129.208 74.1652 127.559 72.3788 126.768 71.5228L126.401 71.1106C124.465 68.9307 121.021 68.1355 118.085 69.1493L117.836 69.2606C114.493 71.1756 111.776 73.7624 109.252 76.4353C109.576 74.7072 109.582 72.9063 108.842 71.0828L108.731 70.8058L107.47 69.5601L107.186 69.3428C105.546 68.3794 103.61 67.8904 101.434 67.8904ZM32.3023 68.329C30.7306 68.329 29.2225 68.553 27.6773 69.0433C18.3558 73.1249 11.1998 80.5527 6.39854 91.1318C4.6877 94.894 -3.57627 114.209 1.78418 124.736C3.53743 128.166 6.51251 130.327 10.6312 131.17C12.2029 131.488 13.7362 131.653 15.1992 131.653C25.7134 131.653 31.4992 123.618 35.3158 115.791C34.8838 119.238 34.9726 122.478 35.8896 125.187C36.9166 128.218 38.8766 130.375 41.7139 131.604C42.4958 131.943 43.3757 132.11 44.3179 132.11C48.7189 132.11 53.8899 128.267 56.0393 126.496C58.9641 129.055 61.6754 130.301 64.2993 130.301C68.7335 130.301 71.531 126.7 73.3823 124.319L73.8792 123.683C78.3438 118.059 75.6232 115.509 75.2985 115.237L75.0414 115.02L74.7101 114.936C74.4742 114.879 74.2238 114.852 73.976 114.852C71.9908 114.852 70.4589 116.629 68.8395 118.512C67.5156 120.05 65.8803 121.981 64.6956 121.627C64.3775 121.535 64.0767 121.27 63.8978 120.954C72.2757 115.623 77.1405 109.975 78.7838 103.571C79.1085 101.372 79.7883 96.7984 75.8445 94.4448C74.6704 93.8352 73.3915 93.5238 72.0345 93.5238C69.1893 93.5238 66.5164 94.8384 63.976 96.3067C62.8177 97.082 61.7377 97.9129 60.7292 98.7941C67.8867 85.3446 68.5758 74.0353 67.5288 70.5421L67.4122 70.175L67.1406 69.9126C66.2103 69.0234 64.8784 68.5517 63.2842 68.5517C61.8583 68.5517 60.2826 68.9505 59.0807 69.6184L58.8633 69.7629C52.8509 74.698 49.1509 81.32 46.1811 86.638C45.8406 87.2569 45.3025 88.2389 44.6519 89.5005C44.7804 88.879 44.8983 88.2535 45.0057 87.6187C45.0627 87.0475 45.1303 86.4697 45.1978 85.8893C45.4814 83.4509 45.7796 80.9291 45.0468 78.5106C44.7393 77.3722 43.9336 76.4499 42.6482 75.7488C42.8655 75.4639 43.0656 75.1432 43.2352 74.7708C43.7322 73.3648 43.2432 71.9376 41.8901 70.8602L41.6516 70.7091C38.658 69.1745 35.341 68.329 32.3023 68.329ZM33.063 82.3921C32.8178 86.7003 31.4886 90.6547 30.0945 94.8265C29.4809 96.6566 28.8435 98.5476 28.3452 100.359C25.8936 107.283 23.324 113.99 19.0198 119.769C18.1239 120.659 16.5827 121.714 14.9633 121.353C12.676 120.186 12.7794 117.682 13.2008 114.021C13.2856 113.283 13.3691 112.567 13.3956 112.009C14.2517 105.721 16.6039 99.8 18.8899 94.0777L19.3458 92.8824C19.6042 92.4384 19.8308 91.9773 20.0521 91.5227C20.3012 91.0165 20.5438 90.5315 20.8181 90.0836C21.4369 90.2704 22.1062 90.4202 22.8324 90.4202C23.332 90.4202 23.813 90.3473 24.2716 90.1975L24.5326 90.0769C26.5377 88.932 27.9357 87.3682 29.2901 85.8628C30.4695 84.5482 31.5986 83.2892 33.063 82.3921ZM68.1345 105.26C67.2399 107.001 65.8949 108.7 64.139 110.306C64.0078 110.41 63.8819 110.51 63.7507 110.62C64.5882 108.891 65.9253 107.192 67.7263 105.562L68.1345 105.26ZM52.6203 111.063C51.8278 113.662 51.4568 116.391 51.5442 119.197C51.482 119.25 51.413 119.307 51.3547 119.363C50.504 120.13 49.4451 121.084 48.6632 121.084C48.4923 121.084 48.3227 121.039 48.1371 120.937C47.0518 120.341 47.0889 118.117 47.2241 117.199C49.192 115.154 50.9903 113.105 52.6203 111.063ZM181.958 112.1C181.825 113.666 181.268 115.563 179.85 117.554C179.519 117.436 179.135 117.315 178.711 117.206C179.956 115.543 181.017 113.823 181.958 112.1ZM156.302 112.519C155.877 113.878 155.241 115.403 154.42 117.018C154.022 116.829 153.611 116.662 153.201 116.527C154.261 115.229 155.308 113.896 156.302 112.519Z" stroke="white" stroke-width="2" mask="url(#path-1-outside-1_15016_302072)"/>
<mask id="path-2-outside-2_15016_302072" maskUnits="userSpaceOnUse" x="0.432129" y="68.3292" width="200" height="64" fill="black">
<rect fill="white" x="0.432129" y="68.3292" width="200" height="64"/>
<path d="M101.061 69.3343C97.8899 69.4217 94.5968 70.6065 92.0285 71.8455L91.782 71.6958C92.2485 71.3446 92.2061 70.8079 92.4314 70.3626C92.3294 69.9147 92.0643 69.6563 91.5435 69.6192C88.0953 70.621 84.9321 72.4352 81.8695 74.1434C80.7988 74.9227 79.1317 75.9802 78.8878 77.3319C78.4227 79.9081 78.7844 82.7268 80.7404 84.6722C81.4892 85.0631 82.6143 85.2115 83.4015 84.8206C87.1929 82.2828 91.1817 79.761 95.3336 77.5545C96.4653 77.1265 97.389 76.277 98.7208 76.2942C99.1608 76.4042 99.1223 76.8495 99.2032 77.1821L96.464 84.3051C90.4555 95.6303 83.3246 111.233 79.557 118.507C79.4351 118.748 78.1815 123.181 81.8867 127.841C82.6713 128.824 84.4696 129.456 85.653 126.72C88.1099 121.038 91.403 115.675 94.125 110.108C98.4571 102.879 102.832 95.7217 109.041 89.3448L109.439 89.2667C106.982 94.2163 95.9988 113.835 94.606 119.304C94.5067 122.562 94.891 126.072 97.2671 128.498C97.87 128.984 98.8692 129.452 99.5292 128.943C101.756 127.215 106.175 117.431 107.829 114.559C112.887 106.513 117.867 98.2979 125.164 91.4175H125.404C125.062 92.1781 117.822 105.083 115.165 110.999C113.091 115.54 110.43 119.952 111.456 125.311C111.7 127.182 113.392 128.368 115.084 129.237C119.58 130.799 123.248 127.683 126.773 125.905C127.621 127.535 129.132 129.113 131.212 129.389C136.463 129.888 141.101 127.222 144.348 123.754C152.829 133.148 165.087 127.777 170.149 124.938C178.445 133.102 189.723 129.15 193.446 126.274C193.446 126.274 199.078 120.789 198.522 115.654C198.442 114.965 197.488 114.423 196.839 114.708C193.791 116.049 191.578 124.105 186.516 122.492C188.676 120.084 190.067 117.358 191.193 114.559C192.731 110.145 191.883 104.992 190.544 100.837C189.921 98.2621 191.618 96.0186 192.399 93.722C192.267 93.0925 192.174 92.3809 191.512 92.0151C189.948 91.1286 187.417 90.6899 185.879 92.0151C177.584 99.0798 168.413 123.27 161.363 122.048C163.298 120.36 164.689 118.393 165.789 116.26C168.559 111.239 166.465 105.193 165.71 99.9491C164.968 97.2046 167.022 95.0366 166.77 92.3862C165.736 91.22 164.067 90.9192 162.41 91.2001C157.348 92.7374 155.956 97.8142 153.054 101.354C148.323 108.176 143.526 115.296 136.608 121.158C136.131 121.416 135.376 121.345 134.992 120.935C134.448 119.862 134.647 118.149 135.151 117.006C140.014 106.276 145.302 102.058 146.746 98.7167C146.852 98.4861 147.077 97.5253 146.945 97.0443C146.759 96.3949 146.044 95.898 144.997 95.6475C143.592 95.3149 141.909 95.4063 140.889 96.4652C134.541 101.619 130.102 108.216 127.26 115.149C126.534 116.912 126.174 118.801 125.08 120.417C124.197 120.825 123.29 121.232 122.182 121.158C121.759 120.899 121.676 120.361 121.612 119.897C122.541 114.612 124.94 109.887 127.5 105.213C131.092 97.687 144.507 78.9049 145.076 75.8463C144.931 74.0268 143.685 72.6221 142.333 71.2505C141.233 70.193 139.431 69.8259 137.987 70.4368C130.927 74.9783 125.201 81.5208 119.114 87.2709C121.695 83.3377 124.253 79.4641 126.612 75.4766C127.516 74.1077 126.11 72.9945 125.322 72.0655C123.67 70.2116 120.91 69.6947 118.55 70.5097C113.69 73.29 110.169 77.6247 106.455 81.5593C106.355 81.5407 106.194 81.6149 106.137 81.4837C107.203 78.4252 108.852 74.9598 107.503 71.6229L106.455 70.5826C104.822 69.6232 102.964 69.2826 101.061 69.3343ZM32.7906 69.7742C32.3745 69.761 31.9571 69.7636 31.541 69.7848V69.7875C30.4304 69.8431 29.3252 70.0273 28.2518 70.3626C18.2213 74.757 11.7888 82.74 7.7085 91.7262C5.36686 96.8707 -6.86211 126.125 10.9208 129.758C28.4108 133.335 34.1171 114.889 38.167 105.584C40.1044 99.5953 42.4832 93.7909 43.5725 87.4882C43.8335 84.6152 44.4763 81.6136 43.6533 78.885C43.2504 77.4034 41.4959 76.6772 40.1044 76.2916C40.7312 75.6966 41.4972 75.1029 41.8802 74.2879C42.2035 73.3788 41.7384 72.581 40.9923 71.99C38.6003 70.7589 35.71 69.8657 32.7919 69.7742H32.7906ZM63.053 69.9995C61.8735 70.0406 60.6663 70.3865 59.7797 70.8768C54.1741 75.4753 50.6835 81.5301 47.4407 87.3411C41.6152 97.7758 29.1715 124.61 42.2844 130.28C47.4222 132.501 56.0705 124.573 56.0705 124.573C65.3853 133.495 69.9771 126.276 72.7534 122.786C76.4733 118.1 74.3702 116.339 74.3702 116.339C71.2705 115.581 68.1616 124.123 64.2934 123.012C63.1007 122.67 62.2539 121.436 62.279 120.271C68.868 116.209 75.4794 110.65 77.3546 103.362C77.7561 100.657 77.9999 97.406 75.1759 95.723C71.6111 93.8704 67.7389 95.7959 64.7744 97.5041C56.7755 102.862 52.5017 110.886 53.0053 119.823C51.4535 121.14 49.5584 123.367 47.4407 122.197C45.0222 120.866 45.8306 116.574 45.9115 116.489C64.9215 96.9343 67.6567 75.9788 66.146 70.955C65.3787 70.2222 64.2311 69.9571 63.053 69.9995ZM33.8985 80.3706C34.5227 80.3308 34.6061 80.9483 34.5465 81.4108C34.4259 88.3655 31.476 94.4217 29.7029 100.837C27.2473 107.77 24.6247 114.652 20.0329 120.789C18.6017 122.214 16.6616 123.289 14.4657 122.715C10.1933 120.695 11.7451 115.486 11.9664 111.814C12.9112 104.844 15.5749 98.5232 18.0968 92.1635C18.823 90.9033 19.2855 89.5449 20.2741 88.3788C21.3594 88.7485 22.5919 89.2309 23.8177 88.824C27.833 86.5235 29.3623 82.149 33.8985 80.3706ZM57.2738 84.1553C56.5489 91.9793 52.3413 98.6491 48.0874 105.213C47.8025 105.584 47.3599 105.993 46.9544 106.254C48.591 98.2807 52.8595 91.0875 57.2738 84.1553ZM146.839 86.3804C145.076 86.3088 143.446 87.1092 142.651 88.5908C142.293 89.6417 142.081 90.9457 142.731 91.9436C143.208 92.8526 144.268 93.4583 145.209 93.7935C146.362 93.995 147.806 94.0785 148.774 93.4424C150.881 92.0642 151.225 90.234 150.563 88.4517C149.98 87.0602 148.363 86.4334 146.839 86.3804ZM69.6167 102.47C70.1547 102.47 70.441 102.896 70.4224 103.36C69.573 106.42 67.5759 109.108 65.0182 111.444C63.8719 112.334 62.7561 113.649 61.3063 114.037C61.6257 110.239 63.9674 107.012 66.8709 104.398C67.776 103.733 68.6652 103.006 69.6167 102.47ZM157.971 107.069C159.362 110.211 156.619 115.985 155.241 118.562L154.83 118.858C153.558 118.153 152.286 117.508 150.642 117.674L150.483 117.523C153.319 114.17 156.089 110.775 157.971 107.069ZM182.725 107.437C182.725 107.437 185.429 113.167 180.314 119.304C180.314 119.304 178.206 118.213 175.954 118.339C178.896 114.965 180.883 111.24 182.725 107.437Z"/>
</mask>
<path d="M101.061 69.3343C97.8899 69.4217 94.5968 70.6065 92.0285 71.8455L91.782 71.6958C92.2485 71.3446 92.2061 70.8079 92.4314 70.3626C92.3294 69.9147 92.0643 69.6563 91.5435 69.6192C88.0953 70.621 84.9321 72.4352 81.8695 74.1434C80.7988 74.9227 79.1317 75.9802 78.8878 77.3319C78.4227 79.9081 78.7844 82.7268 80.7404 84.6722C81.4892 85.0631 82.6143 85.2115 83.4015 84.8206C87.1929 82.2828 91.1817 79.761 95.3336 77.5545C96.4653 77.1265 97.389 76.277 98.7208 76.2942C99.1608 76.4042 99.1223 76.8495 99.2032 77.1821L96.464 84.3051C90.4555 95.6303 83.3246 111.233 79.557 118.507C79.4351 118.748 78.1815 123.181 81.8867 127.841C82.6713 128.824 84.4696 129.456 85.653 126.72C88.1099 121.038 91.403 115.675 94.125 110.108C98.4571 102.879 102.832 95.7217 109.041 89.3448L109.439 89.2667C106.982 94.2163 95.9988 113.835 94.606 119.304C94.5067 122.562 94.891 126.072 97.2671 128.498C97.87 128.984 98.8692 129.452 99.5292 128.943C101.756 127.215 106.175 117.431 107.829 114.559C112.887 106.513 117.867 98.2979 125.164 91.4175H125.404C125.062 92.1781 117.822 105.083 115.165 110.999C113.091 115.54 110.43 119.952 111.456 125.311C111.7 127.182 113.392 128.368 115.084 129.237C119.58 130.799 123.248 127.683 126.773 125.905C127.621 127.535 129.132 129.113 131.212 129.389C136.463 129.888 141.101 127.222 144.348 123.754C152.829 133.148 165.087 127.777 170.149 124.938C178.445 133.102 189.723 129.15 193.446 126.274C193.446 126.274 199.078 120.789 198.522 115.654C198.442 114.965 197.488 114.423 196.839 114.708C193.791 116.049 191.578 124.105 186.516 122.492C188.676 120.084 190.067 117.358 191.193 114.559C192.731 110.145 191.883 104.992 190.544 100.837C189.921 98.2621 191.618 96.0186 192.399 93.722C192.267 93.0925 192.174 92.3809 191.512 92.0151C189.948 91.1286 187.417 90.6899 185.879 92.0151C177.584 99.0798 168.413 123.27 161.363 122.048C163.298 120.36 164.689 118.393 165.789 116.26C168.559 111.239 166.465 105.193 165.71 99.9491C164.968 97.2046 167.022 95.0366 166.77 92.3862C165.736 91.22 164.067 90.9192 162.41 91.2001C157.348 92.7374 155.956 97.8142 153.054 101.354C148.323 108.176 143.526 115.296 136.608 121.158C136.131 121.416 135.376 121.345 134.992 120.935C134.448 119.862 134.647 118.149 135.151 117.006C140.014 106.276 145.302 102.058 146.746 98.7167C146.852 98.4861 147.077 97.5253 146.945 97.0443C146.759 96.3949 146.044 95.898 144.997 95.6475C143.592 95.3149 141.909 95.4063 140.889 96.4652C134.541 101.619 130.102 108.216 127.26 115.149C126.534 116.912 126.174 118.801 125.08 120.417C124.197 120.825 123.29 121.232 122.182 121.158C121.759 120.899 121.676 120.361 121.612 119.897C122.541 114.612 124.94 109.887 127.5 105.213C131.092 97.687 144.507 78.9049 145.076 75.8463C144.931 74.0268 143.685 72.6221 142.333 71.2505C141.233 70.193 139.431 69.8259 137.987 70.4368C130.927 74.9783 125.201 81.5208 119.114 87.2709C121.695 83.3377 124.253 79.4641 126.612 75.4766C127.516 74.1077 126.11 72.9945 125.322 72.0655C123.67 70.2116 120.91 69.6947 118.55 70.5097C113.69 73.29 110.169 77.6247 106.455 81.5593C106.355 81.5407 106.194 81.6149 106.137 81.4837C107.203 78.4252 108.852 74.9598 107.503 71.6229L106.455 70.5826C104.822 69.6232 102.964 69.2826 101.061 69.3343ZM32.7906 69.7742C32.3745 69.761 31.9571 69.7636 31.541 69.7848V69.7875C30.4304 69.8431 29.3252 70.0273 28.2518 70.3626C18.2213 74.757 11.7888 82.74 7.7085 91.7262C5.36686 96.8707 -6.86211 126.125 10.9208 129.758C28.4108 133.335 34.1171 114.889 38.167 105.584C40.1044 99.5953 42.4832 93.7909 43.5725 87.4882C43.8335 84.6152 44.4763 81.6136 43.6533 78.885C43.2504 77.4034 41.4959 76.6772 40.1044 76.2916C40.7312 75.6966 41.4972 75.1029 41.8802 74.2879C42.2035 73.3788 41.7384 72.581 40.9923 71.99C38.6003 70.7589 35.71 69.8657 32.7919 69.7742H32.7906ZM63.053 69.9995C61.8735 70.0406 60.6663 70.3865 59.7797 70.8768C54.1741 75.4753 50.6835 81.5301 47.4407 87.3411C41.6152 97.7758 29.1715 124.61 42.2844 130.28C47.4222 132.501 56.0705 124.573 56.0705 124.573C65.3853 133.495 69.9771 126.276 72.7534 122.786C76.4733 118.1 74.3702 116.339 74.3702 116.339C71.2705 115.581 68.1616 124.123 64.2934 123.012C63.1007 122.67 62.2539 121.436 62.279 120.271C68.868 116.209 75.4794 110.65 77.3546 103.362C77.7561 100.657 77.9999 97.406 75.1759 95.723C71.6111 93.8704 67.7389 95.7959 64.7744 97.5041C56.7755 102.862 52.5017 110.886 53.0053 119.823C51.4535 121.14 49.5584 123.367 47.4407 122.197C45.0222 120.866 45.8306 116.574 45.9115 116.489C64.9215 96.9343 67.6567 75.9788 66.146 70.955C65.3787 70.2222 64.2311 69.9571 63.053 69.9995ZM33.8985 80.3706C34.5227 80.3308 34.6061 80.9483 34.5465 81.4108C34.4259 88.3655 31.476 94.4217 29.7029 100.837C27.2473 107.77 24.6247 114.652 20.0329 120.789C18.6017 122.214 16.6616 123.289 14.4657 122.715C10.1933 120.695 11.7451 115.486 11.9664 111.814C12.9112 104.844 15.5749 98.5232 18.0968 92.1635C18.823 90.9033 19.2855 89.5449 20.2741 88.3788C21.3594 88.7485 22.5919 89.2309 23.8177 88.824C27.833 86.5235 29.3623 82.149 33.8985 80.3706ZM57.2738 84.1553C56.5489 91.9793 52.3413 98.6491 48.0874 105.213C47.8025 105.584 47.3599 105.993 46.9544 106.254C48.591 98.2807 52.8595 91.0875 57.2738 84.1553ZM146.839 86.3804C145.076 86.3088 143.446 87.1092 142.651 88.5908C142.293 89.6417 142.081 90.9457 142.731 91.9436C143.208 92.8526 144.268 93.4583 145.209 93.7935C146.362 93.995 147.806 94.0785 148.774 93.4424C150.881 92.0642 151.225 90.234 150.563 88.4517C149.98 87.0602 148.363 86.4334 146.839 86.3804ZM69.6167 102.47C70.1547 102.47 70.441 102.896 70.4224 103.36C69.573 106.42 67.5759 109.108 65.0182 111.444C63.8719 112.334 62.7561 113.649 61.3063 114.037C61.6257 110.239 63.9674 107.012 66.8709 104.398C67.776 103.733 68.6652 103.006 69.6167 102.47ZM157.971 107.069C159.362 110.211 156.619 115.985 155.241 118.562L154.83 118.858C153.558 118.153 152.286 117.508 150.642 117.674L150.483 117.523C153.319 114.17 156.089 110.775 157.971 107.069ZM182.725 107.437C182.725 107.437 185.429 113.167 180.314 119.304C180.314 119.304 178.206 118.213 175.954 118.339C178.896 114.965 180.883 111.24 182.725 107.437Z" fill="#CE1126"/>
<path d="M101.061 69.3343C97.8899 69.4217 94.5968 70.6065 92.0285 71.8455L91.782 71.6958C92.2485 71.3446 92.2061 70.8079 92.4314 70.3626C92.3294 69.9147 92.0643 69.6563 91.5435 69.6192C88.0953 70.621 84.9321 72.4352 81.8695 74.1434C80.7988 74.9227 79.1317 75.9802 78.8878 77.3319C78.4227 79.9081 78.7844 82.7268 80.7404 84.6722C81.4892 85.0631 82.6143 85.2115 83.4015 84.8206C87.1929 82.2828 91.1817 79.761 95.3336 77.5545C96.4653 77.1265 97.389 76.277 98.7208 76.2942C99.1608 76.4042 99.1223 76.8495 99.2032 77.1821L96.464 84.3051C90.4555 95.6303 83.3246 111.233 79.557 118.507C79.4351 118.748 78.1815 123.181 81.8867 127.841C82.6713 128.824 84.4696 129.456 85.653 126.72C88.1099 121.038 91.403 115.675 94.125 110.108C98.4571 102.879 102.832 95.7217 109.041 89.3448L109.439 89.2667C106.982 94.2163 95.9988 113.835 94.606 119.304C94.5067 122.562 94.891 126.072 97.2671 128.498C97.87 128.984 98.8692 129.452 99.5292 128.943C101.756 127.215 106.175 117.431 107.829 114.559C112.887 106.513 117.867 98.2979 125.164 91.4175H125.404C125.062 92.1781 117.822 105.083 115.165 110.999C113.091 115.54 110.43 119.952 111.456 125.311C111.7 127.182 113.392 128.368 115.084 129.237C119.58 130.799 123.248 127.683 126.773 125.905C127.621 127.535 129.132 129.113 131.212 129.389C136.463 129.888 141.101 127.222 144.348 123.754C152.829 133.148 165.087 127.777 170.149 124.938C178.445 133.102 189.723 129.15 193.446 126.274C193.446 126.274 199.078 120.789 198.522 115.654C198.442 114.965 197.488 114.423 196.839 114.708C193.791 116.049 191.578 124.105 186.516 122.492C188.676 120.084 190.067 117.358 191.193 114.559C192.731 110.145 191.883 104.992 190.544 100.837C189.921 98.2621 191.618 96.0186 192.399 93.722C192.267 93.0925 192.174 92.3809 191.512 92.0151C189.948 91.1286 187.417 90.6899 185.879 92.0151C177.584 99.0798 168.413 123.27 161.363 122.048C163.298 120.36 164.689 118.393 165.789 116.26C168.559 111.239 166.465 105.193 165.71 99.9491C164.968 97.2046 167.022 95.0366 166.77 92.3862C165.736 91.22 164.067 90.9192 162.41 91.2001C157.348 92.7374 155.956 97.8142 153.054 101.354C148.323 108.176 143.526 115.296 136.608 121.158C136.131 121.416 135.376 121.345 134.992 120.935C134.448 119.862 134.647 118.149 135.151 117.006C140.014 106.276 145.302 102.058 146.746 98.7167C146.852 98.4861 147.077 97.5253 146.945 97.0443C146.759 96.3949 146.044 95.898 144.997 95.6475C143.592 95.3149 141.909 95.4063 140.889 96.4652C134.541 101.619 130.102 108.216 127.26 115.149C126.534 116.912 126.174 118.801 125.08 120.417C124.197 120.825 123.29 121.232 122.182 121.158C121.759 120.899 121.676 120.361 121.612 119.897C122.541 114.612 124.94 109.887 127.5 105.213C131.092 97.687 144.507 78.9049 145.076 75.8463C144.931 74.0268 143.685 72.6221 142.333 71.2505C141.233 70.193 139.431 69.8259 137.987 70.4368C130.927 74.9783 125.201 81.5208 119.114 87.2709C121.695 83.3377 124.253 79.4641 126.612 75.4766C127.516 74.1077 126.11 72.9945 125.322 72.0655C123.67 70.2116 120.91 69.6947 118.55 70.5097C113.69 73.29 110.169 77.6247 106.455 81.5593C106.355 81.5407 106.194 81.6149 106.137 81.4837C107.203 78.4252 108.852 74.9598 107.503 71.6229L106.455 70.5826C104.822 69.6232 102.964 69.2826 101.061 69.3343ZM32.7906 69.7742C32.3745 69.761 31.9571 69.7636 31.541 69.7848V69.7875C30.4304 69.8431 29.3252 70.0273 28.2518 70.3626C18.2213 74.757 11.7888 82.74 7.7085 91.7262C5.36686 96.8707 -6.86211 126.125 10.9208 129.758C28.4108 133.335 34.1171 114.889 38.167 105.584C40.1044 99.5953 42.4832 93.7909 43.5725 87.4882C43.8335 84.6152 44.4763 81.6136 43.6533 78.885C43.2504 77.4034 41.4959 76.6772 40.1044 76.2916C40.7312 75.6966 41.4972 75.1029 41.8802 74.2879C42.2035 73.3788 41.7384 72.581 40.9923 71.99C38.6003 70.7589 35.71 69.8657 32.7919 69.7742H32.7906ZM63.053 69.9995C61.8735 70.0406 60.6663 70.3865 59.7797 70.8768C54.1741 75.4753 50.6835 81.5301 47.4407 87.3411C41.6152 97.7758 29.1715 124.61 42.2844 130.28C47.4222 132.501 56.0705 124.573 56.0705 124.573C65.3853 133.495 69.9771 126.276 72.7534 122.786C76.4733 118.1 74.3702 116.339 74.3702 116.339C71.2705 115.581 68.1616 124.123 64.2934 123.012C63.1007 122.67 62.2539 121.436 62.279 120.271C68.868 116.209 75.4794 110.65 77.3546 103.362C77.7561 100.657 77.9999 97.406 75.1759 95.723C71.6111 93.8704 67.7389 95.7959 64.7744 97.5041C56.7755 102.862 52.5017 110.886 53.0053 119.823C51.4535 121.14 49.5584 123.367 47.4407 122.197C45.0222 120.866 45.8306 116.574 45.9115 116.489C64.9215 96.9343 67.6567 75.9788 66.146 70.955C65.3787 70.2222 64.2311 69.9571 63.053 69.9995ZM33.8985 80.3706C34.5227 80.3308 34.6061 80.9483 34.5465 81.4108C34.4259 88.3655 31.476 94.4217 29.7029 100.837C27.2473 107.77 24.6247 114.652 20.0329 120.789C18.6017 122.214 16.6616 123.289 14.4657 122.715C10.1933 120.695 11.7451 115.486 11.9664 111.814C12.9112 104.844 15.5749 98.5232 18.0968 92.1635C18.823 90.9033 19.2855 89.5449 20.2741 88.3788C21.3594 88.7485 22.5919 89.2309 23.8177 88.824C27.833 86.5235 29.3623 82.149 33.8985 80.3706ZM57.2738 84.1553C56.5489 91.9793 52.3413 98.6491 48.0874 105.213C47.8025 105.584 47.3599 105.993 46.9544 106.254C48.591 98.2807 52.8595 91.0875 57.2738 84.1553ZM146.839 86.3804C145.076 86.3088 143.446 87.1092 142.651 88.5908C142.293 89.6417 142.081 90.9457 142.731 91.9436C143.208 92.8526 144.268 93.4583 145.209 93.7935C146.362 93.995 147.806 94.0785 148.774 93.4424C150.881 92.0642 151.225 90.234 150.563 88.4517C149.98 87.0602 148.363 86.4334 146.839 86.3804ZM69.6167 102.47C70.1547 102.47 70.441 102.896 70.4224 103.36C69.573 106.42 67.5759 109.108 65.0182 111.444C63.8719 112.334 62.7561 113.649 61.3063 114.037C61.6257 110.239 63.9674 107.012 66.8709 104.398C67.776 103.733 68.6652 103.006 69.6167 102.47ZM157.971 107.069C159.362 110.211 156.619 115.985 155.241 118.562L154.83 118.858C153.558 118.153 152.286 117.508 150.642 117.674L150.483 117.523C153.319 114.17 156.089 110.775 157.971 107.069ZM182.725 107.437C182.725 107.437 185.429 113.167 180.314 119.304C180.314 119.304 178.206 118.213 175.954 118.339C178.896 114.965 180.883 111.24 182.725 107.437Z" stroke="white" stroke-width="2" mask="url(#path-2-outside-2_15016_302072)"/>
</g>
<defs>
<clipPath id="clip0_15016_302072">
<rect width="200" height="200" fill="white"/>
</clipPath>
</defs>
</svg>
