<svg width="201" height="201" viewBox="0 0 201 201" fill="none" xmlns="http://www.w3.org/2000/svg">
<path d="M176.802 121.658C174.249 138.253 160.335 150.546 144.34 156.686C130.449 161.807 115.743 164.359 100.939 164.217C86.0858 164.344 71.3318 161.792 57.384 156.686C41.3766 150.546 27.5137 138.278 24.9224 121.658C23.7974 114.702 23.2297 107.668 23.2246 100.621C23.2621 93.5679 23.8296 86.5273 24.9224 79.5589C27.4754 62.9643 41.3766 50.697 57.384 44.5443C71.3141 39.4553 86.0447 36.9087 100.875 37.0256C115.699 36.8779 130.427 39.4255 144.34 44.5443C160.335 50.697 174.197 62.9388 176.802 79.5589C177.907 86.5258 178.475 93.5674 178.499 100.621C178.476 107.667 177.908 114.7 176.802 121.658ZM139.923 82.5587C139.527 75.4486 138.774 67.8789 134.817 62.1346C126.967 50.914 113.716 46.3058 100.875 46.408C88.033 46.5101 74.7446 50.914 66.9451 62.2239C62.9751 67.9427 62.1965 75.5124 61.839 82.6481C61.5582 87.8818 61.354 94.2516 61.3412 100.711C61.3284 107.17 61.4944 113.54 61.7625 118.748C62.1709 125.883 63.039 133.415 66.9706 139.172C74.7446 150.303 87.9692 154.72 100.875 154.822C113.78 154.924 126.967 150.303 134.804 139.07C138.774 133.326 139.591 125.794 139.91 118.646C140.204 113.438 140.115 107.157 140.127 100.775C140.14 94.392 140.127 87.8435 139.872 82.6098" fill="#007030"/>
</svg>
