<svg width="201" height="201" viewBox="0 0 201 201" fill="none" xmlns="http://www.w3.org/2000/svg">
<g clip-path="url(#clip0_15016_302023)">
<path d="M85.6496 45.5757C64.1841 45.5757 42.3854 49.5261 20.9199 57.2366C18.6353 58.0933 16.3508 58.95 14.1614 59.8067C12.9715 60.2351 11.7816 60.711 10.5441 61.187L0.691895 65.1374L11.0677 67.4696C11.1153 67.4696 14.9229 68.3739 20.4916 70.8964C27.4881 74.0853 37.0548 79.7968 45.5267 89.411C43.7181 89.3158 41.5763 89.0779 39.6725 88.6971C39.2441 88.6019 38.8158 88.5067 38.3874 88.4115L31.9621 86.6029L34.437 92.7903C34.4846 92.8855 34.8654 93.885 35.7697 95.4556C37.9115 99.2633 42.2427 105.451 50.0959 111.305L41.2907 109.972L48.0493 117.016C48.1921 117.159 48.3825 117.397 48.668 117.683C48.9536 118.016 49.2868 118.397 49.7151 118.825C54.6175 124.203 61.7092 130.486 71.1806 135.293L61.8995 134.531L76.3685 142.099C77.3204 142.623 78.3199 143.099 79.4146 143.622L79.5098 143.67C86.9347 148.191 103.831 155.664 133.816 155.664C139.48 155.664 145.429 155.378 151.522 154.855L151.95 154.807L152.378 154.759L152.712 154.712L153.568 154.617H153.949L154.473 154.426C154.663 154.379 154.901 154.284 155.091 154.188C159.898 152.237 166.181 145.478 174.177 133.484C184.791 117.683 195.405 97.3119 198.451 91.41C199.117 90.125 199.498 89.411 199.498 89.411L200.688 87.0313L198.641 85.3654C190.455 78.7021 181.65 72.8002 172.416 67.7551C167.133 64.8994 161.659 62.2341 156.091 59.9019C141.336 53.7145 125.392 49.3833 108.686 47.0035C100.975 46.0516 93.3125 45.5757 85.6496 45.5757Z" fill="#DC4405"/>
<path d="M85.6488 48.8613C66.2775 48.8613 44.9071 52.0502 22.0138 60.3318C19.8244 61.1409 17.635 61.9977 15.398 62.8544C14.2081 63.3303 12.9706 63.7587 11.7808 64.2346C11.7808 64.2346 15.874 65.1389 21.8234 67.8519C30.343 71.7547 42.6702 79.2748 52.4748 92.887C51.8561 92.887 51.1421 92.9346 50.4282 92.9346C49.3335 92.9346 48.096 92.887 46.9061 92.8394C44.6216 92.7443 41.6231 92.5063 39.0053 91.9827C38.4818 91.8875 38.0058 91.7448 37.5299 91.602C37.5299 91.602 37.863 92.4587 38.6721 93.8865C41.0995 98.2177 47.8581 107.88 62.2319 114.876C62.2319 114.876 61.6131 115.019 60.5184 115.114C59.8997 115.162 59.1858 115.257 58.2814 115.257C57.9007 115.257 57.4723 115.257 57.044 115.257C56.9012 115.257 56.7584 115.257 56.6156 115.257C54.8546 115.257 52.808 115.114 50.4282 114.733C50.7138 115.019 51.2849 115.685 52.1416 116.637C56.806 121.73 69.7043 134.676 90.6939 138.436C90.7891 138.436 90.8367 138.483 90.9319 138.483C90.9319 138.483 88.2189 139.055 84.2685 139.245C83.4118 139.293 82.5075 139.293 81.6032 139.293C80.6989 139.293 79.7469 139.293 78.795 139.197C78.5095 139.197 78.1763 139.15 77.8907 139.15C78.8426 139.673 79.8421 140.149 80.8416 140.625C80.9368 140.673 81.032 140.72 81.0796 140.768C87.4574 144.671 103.83 152.381 133.768 152.381C139.146 152.381 144.905 152.143 151.188 151.572C151.473 151.525 151.711 151.525 151.997 151.477C152.425 151.429 152.901 151.382 153.329 151.334C153.472 151.287 153.615 151.239 153.758 151.191C158.47 149.288 164.895 141.339 171.368 131.725C181.791 116.209 192.215 96.3139 195.404 89.9837C196.07 88.6987 196.403 87.9847 196.403 87.9847C188.026 81.1786 179.412 75.4671 170.654 70.7076C165.895 68.1375 160.564 65.5197 154.662 62.9972C138.956 56.3814 123.106 52.4786 108.114 50.3368C100.974 49.3849 93.502 48.8613 85.6488 48.8613Z" fill="black" stroke="black" stroke-width="1.58686" stroke-miterlimit="4.1142"/>
<path d="M81.4579 55.9529C83.0761 57.7615 83.9328 60.3793 84.0756 60.76C83.3141 60.6648 67.5124 58.761 53.6146 61.0932C53.6146 61.0932 51.9963 61.3312 49.8069 61.8547H49.7594C49.1406 61.9975 48.4743 62.1403 47.8079 62.3307C45.0474 62.9494 40.7638 64.0441 37.5273 65.7575C37.5273 65.7575 44.9998 67.0426 57.8982 81.0356H63.0385C61.5154 78.0847 58.6121 71.3738 59.8496 65.0436C60.7063 65.1864 61.325 65.3292 61.563 65.3768C66.9413 66.5666 77.8882 70.4695 82.0766 83.1298C82.0766 83.1298 83.4569 80.0837 83.4569 75.6574C98.2114 69.5652 113.204 65.7099 118.963 73.2776C107.778 69.1844 101.21 75.7526 103.59 82.6539C105.494 74.6103 115.774 72.6113 123.009 80.988C129.244 88.2225 139.81 87.2706 139.81 87.2706C139.81 87.2706 138.572 85.6524 138.144 83.939C138.144 83.939 143.57 86.5567 149.995 85.7952C149.995 85.7952 149.852 80.2265 164.607 85.4144C164.607 85.4144 160.895 88.7461 147.425 90.174C147.425 90.174 148.853 91.459 151.233 92.173C151.233 92.173 136.478 96.2662 126.15 92.9821C126.15 92.9821 128.672 90.9831 129.148 89.1744C129.148 89.1744 120.534 93.5056 113.823 89.1269C107.778 85.224 104.208 86.4615 104.208 86.4615C104.208 86.4615 109.158 88.5081 109.872 92.8869C109.872 92.8869 84.4564 97.1229 69.3686 88.1274C69.3686 88.1274 73.9378 98.5507 87.8833 101.359C95.5461 100.312 106.779 97.5988 124.008 102.739C118.773 102.882 116.44 106.309 115.108 107.832C106.921 108.593 88.7876 108.974 66.6081 107.213C66.6081 107.213 123.913 119.112 145.378 104.595C137.573 114.638 118.63 115.114 112.014 115.209C111.633 116.494 111.586 120.207 111.824 120.54C107.873 121.825 91.9289 122.539 81.9338 122.634C81.9338 122.634 129.006 127.251 147.33 114.59C145.378 117.97 137.43 126.965 113.109 126.537C117.392 137.198 128.863 139.721 142.475 125.87C168.986 102.311 179.076 111.639 181.646 100.169C183.122 93.6484 170.985 92.7917 171.746 86.3663C171.746 86.3663 180.551 89.3172 187.12 86.6519C187.12 86.6519 160.657 67.3758 121.343 57.5711C123.342 59.4749 124.579 62.8542 124.579 62.8542C124.579 62.8542 105.732 55.9053 81.4579 55.9529ZM146.806 132.486C135.145 141.291 120.867 140.101 120.867 140.101C127.102 143.195 138.81 143.338 138.81 143.338C145.95 140.006 146.806 132.486 146.806 132.486Z" fill="#DC4405"/>
<path d="M111.919 79.0376C111.824 79.0376 111.729 79.0376 111.633 79.0852C110.11 79.3232 109.063 80.7034 109.301 82.2265C109.539 83.7495 110.92 84.7966 112.443 84.5587C113.966 84.3207 115.013 82.9404 114.775 81.4174C114.584 80.0847 113.49 79.1328 112.157 79.0376C112.109 79.0376 112.014 79.0376 111.919 79.0376ZM117.155 82.5121C117.059 82.5121 117.012 82.5121 116.917 82.5121C116.298 82.6072 115.869 83.1784 115.965 83.7971C116.06 84.4159 116.631 84.8442 117.25 84.749C117.868 84.6538 118.297 84.0827 118.202 83.464C118.154 82.9404 117.678 82.5597 117.155 82.5121ZM175.697 115.353L172.508 116.067L169.176 120.684L168.653 116.733C162.37 116.067 157.896 119.922 157.896 119.922L155.897 125.681C155.897 125.681 154.469 129.441 153.565 132.535C150.757 141.768 147.092 144.053 145.664 144.624H148.805C150.186 144.1 152.851 142.863 154.422 140.531C154.422 140.531 154.089 141.911 153.47 143.006H154.993C155.516 142.72 155.992 142.435 156.421 142.149C161.418 138.579 175.697 115.353 175.697 115.353Z" fill="white"/>
<path d="M162.941 91.8408C162.941 91.8408 158.943 92.0312 155.421 95.2677C155.421 95.2677 157.563 96.3148 161.228 95.4581C158.277 94.3634 160.514 92.7451 162.941 91.8408ZM175.268 97.4571C175.268 97.4571 171.413 97.6475 167.986 100.789C167.986 100.789 170.08 101.788 173.602 100.979C170.747 99.932 172.936 98.3614 175.268 97.4571ZM165.13 101.455C165.13 101.455 160.18 102.169 156.278 106.595C156.278 106.595 159.133 107.595 163.607 106.167C159.704 105.168 162.275 102.883 165.13 101.455Z" fill="black" stroke="black" stroke-width="1.58686" stroke-miterlimit="4.1142"/>
</g>
<defs>
<clipPath id="clip0_15016_302023">
<rect width="200" height="200" fill="white" transform="translate(0.6875 0.621094)"/>
</clipPath>
</defs>
</svg>
