<svg width="201" height="200" viewBox="0 0 201 200" fill="none" xmlns="http://www.w3.org/2000/svg">
<path d="M160.823 20.6315H35.957L35.9696 63.7162V90.8644C35.9696 127.751 77.9555 165.384 98.2874 177.828L100.809 179.368L103.356 177.828C123.69 165.388 165.676 127.756 165.676 90.8644L165.653 20.6315H160.823Z" fill="white"/>
<path d="M160.824 25.4602H40.7891L40.7998 63.7137V90.8636C40.7998 125.559 82.0346 162.217 100.81 173.71V173.728C100.815 173.728 100.821 173.722 100.824 173.722C100.828 173.722 100.833 173.728 100.833 173.728V173.71C119.614 162.217 160.845 125.559 160.845 90.8636L160.824 25.4602Z" fill="#011F5B"/>
<path d="M115.825 92.3403C115.82 92.3348 115.82 92.3239 115.814 92.3148C115.816 92.3276 115.82 92.3348 115.825 92.3403Z" fill="#154281"/>
<path d="M99.2034 34.0385V37.3372C100.898 37.3372 102.17 37.8538 102.17 39.4876V50.5406C102.17 52.5004 101.19 53.7098 98.9725 53.7098V56.8368H110.42C110.42 56.8368 110.456 55.0461 110.456 53.6141C108.105 53.6141 106.997 52.6643 106.997 50.5406C106.997 49.5642 107.031 46.0091 107.031 46.0091L115.055 56.8369H120.859C120.859 56.8369 120.828 43.1121 120.828 40.1434C120.828 37.4648 121.835 37.3372 123.992 37.3372V34.0385H112.381V37.3653C115.119 37.3653 115.804 38.5414 115.804 40.467V46.5972L106.769 34.0385H99.2034ZM127.026 34.0385V37.3372C128.723 37.3372 129.993 37.8538 129.993 39.4876V50.5406C129.993 52.5004 129.011 53.7098 126.795 53.7098V56.8368H138.243C138.243 56.8368 138.279 55.0461 138.279 53.6141C135.928 53.6141 134.817 52.6643 134.817 50.5406C134.817 49.5642 134.851 46.0091 134.851 46.0091L142.875 56.8369H148.682C148.682 56.8369 148.651 43.1121 148.651 40.1434C148.651 37.4648 149.662 37.3372 151.815 37.3372V34.0385H140.202V37.3653C142.943 37.3653 143.627 38.5414 143.627 40.467V46.5972L134.592 34.0385H127.026ZM74.4096 34.0722C74.4096 34.0722 74.4433 35.6725 74.4433 37.4018C75.1297 37.4018 77.5422 37.7241 77.5422 39.4227L77.576 51.002C77.576 53.0232 75.6202 53.6787 74.1197 53.6787V56.8733L94.3395 56.8367V50.6418H89.8418C89.8075 52.7278 88.5652 53.4114 87.1312 53.4114H84.069V46.4677H85.6001C87.0988 46.4677 87.2635 48.0326 87.2635 48.0326H90.0359V41.8038H87.2635C87.2635 41.8038 87.2626 43.3996 85.6648 43.3996H84.069V37.2694H87.0665C89.8406 37.2694 89.7095 39.6478 89.7095 39.6478H94.3395V34.0721L74.4096 34.0722ZM51.1894 34.075V37.3653C52.4287 37.3653 54.2232 37.8235 54.1926 39.4537V51.0021C54.1584 52.6666 52.9802 53.676 50.9248 53.676C50.8942 53.676 50.8629 56.8369 50.8629 56.8369H63.9734V53.676C61.4948 53.676 60.7141 52.8259 60.7141 51.3596L60.7479 47.8077H63.191C69.0939 47.8077 72.2916 44.7702 72.3581 40.501C72.423 35.9652 68.903 34.0752 63.9115 34.0752L51.1894 34.075ZM60.7141 38.1478H62.7998C63.9436 38.1478 65.2781 38.833 65.2457 40.9568C65.2151 43.1112 63.7117 43.6307 62.1805 43.6307H60.7479L60.7141 38.1478ZM46.793 69.3616V90.8654C46.793 119.57 80.3759 152.867 100.819 166.578C121.257 152.867 154.848 119.57 154.848 90.8654V69.3616C145.099 69.4103 56.5361 69.4103 46.793 69.3616Z" fill="white"/>
<path d="M104.585 89.981H110.16C111.009 89.981 112.221 90.2422 113.352 90.9844L121.737 79.045C118.589 77.6562 114.654 77.3121 110.346 77.3121H81.1367C81.1367 77.3121 81.2088 86.0576 81.1367 85.9856C84.3503 85.9856 89.2644 87.4429 89.2644 92.2201V124.911L104.585 103.333V89.981Z" fill="#990000"/>
<path d="M115.825 92.327L125.821 80.1589C129.957 83.6553 131.248 89.0432 131.248 94.1969C131.248 106.678 123.859 112.92 109.086 112.92H104.549V125.672C104.549 129.999 106.941 133.023 113.154 133.023V141.365H81.1383C81.1383 141.365 81.104 133.056 81.1383 133.023C86.3442 133.023 89.2605 129.487 89.2659 124.677L106.024 104.266H108.234C112.412 104.266 116.456 102.696 116.456 96.1621C116.454 95.0507 116.266 93.4709 115.825 92.327Z" fill="#011F5B"/>
</svg>
