<svg width="201" height="201" viewBox="0 0 201 201" fill="none" xmlns="http://www.w3.org/2000/svg">
<ellipse cx="99.8991" cy="100.621" rx="96.2487" ry="64.9624" fill="white"/>
<path d="M100.766 39.9814C51.3773 39.9814 11.3379 67.2318 11.3379 100.848C11.3379 114.107 17.5709 126.374 28.1461 136.369C22.7635 128.065 19.5709 118.649 19.0484 108.915C17.6326 82.4912 41.3056 61.9774 71.7817 55.7207C72.3186 55.6114 72.5561 56.3668 72.0573 56.5853C47.8522 67.2603 31.0915 88.5769 32.3362 111.856C33.6237 135.932 51.1207 152.902 77.4589 159.62C84.8891 160.983 92.6993 161.71 100.761 161.71C150.15 161.71 190.185 134.46 190.185 100.843C190.19 67.2318 150.155 39.9814 100.766 39.9814ZM173.272 112.331C173.272 112.331 164.811 120.336 134.701 132.16L135.703 133.068L163.357 123.153C163.357 123.153 159.628 132.612 156.991 136.346C154.355 140.075 153.081 141.804 146.074 141.714L118.42 137.438C118.42 137.438 90.2194 146.17 80.2096 144.536C80.2096 144.536 63.4727 143.99 64.4703 125.704C64.4703 125.704 69.6534 134.892 83.2121 137.529C96.766 140.165 111.593 137.438 117.237 136.075C117.237 136.075 141.798 127.614 150.169 121.794C158.54 115.97 157.082 108.877 155.628 105.148C154.174 101.418 148.35 94.5059 138.069 90.3204C127.788 86.135 119.237 84.9521 115.417 85.4082L131.703 78.0397C131.703 78.0397 134.34 77.3129 134.525 81.5886C134.525 81.5886 134.615 84.2252 133.618 84.6813C133.618 84.6813 159.091 89.0472 166.184 104.696C166.184 104.696 168.36 108.506 166.365 113.428C166.365 113.428 171.643 113.428 174.189 103.423C174.189 103.423 175.643 100.786 169.548 94.9619C163.452 89.1375 147.442 79.9495 147.442 79.9495C147.442 79.9495 143.623 77.9495 141.984 74.8567C140.345 71.764 137.708 69.5786 132.43 69.2176C127.152 68.8518 96.861 67.3078 74.7557 82.8618C74.7557 82.8618 79.2167 47.4971 89.4023 43.744C89.4023 43.744 94.6804 41.9245 102.5 55.8442C102.5 55.8442 118.786 58.7564 136.159 65.5785C136.159 65.5785 139.708 66.2151 142.981 70.5811C146.255 74.947 145.803 75.1275 152.806 79.6787C159.808 84.2252 171.909 90.8668 176.37 97.8741C176.365 97.8646 180.275 102.777 173.272 112.331Z" fill="#1E3160"/>
<path d="M90.1181 47.4659C83.7521 51.105 79.9277 74.5737 79.9277 74.5737C91.1158 58.1076 98.3939 56.1076 98.3939 56.1076C98.5744 55.1052 96.5744 53.1051 96.5744 53.1051C93.3961 47.4659 90.1181 47.4659 90.1181 47.4659Z" fill="#1E3160"/>
</svg>
