<svg width="200" height="200" viewBox="0 0 200 200" fill="none" xmlns="http://www.w3.org/2000/svg">
<path d="M59.7248 35.8053C56.3077 35.7872 52.8478 35.8656 51.1909 36.0482C46.016 36.6186 39.7413 37.9437 34.9192 39.4846C17.4258 45.074 4.03347 56.2674 0.591319 68.1756C0.335761 69.0606 0.0811725 70.2274 0.0269927 70.7684C-0.204277 73.0785 1.07288 76.3979 3.00131 78.5021C6.93496 82.7953 13.1251 83.7562 17.2576 80.7145C18.6392 79.6971 19.5855 78.595 21.1923 76.133C23.1512 73.1318 26.7468 68.7126 27.0116 68.9799C27.06 69.0291 27.0487 69.5927 26.9866 70.2322C26.9236 70.8709 26.9672 72.9226 27.0843 74.7911C27.5066 81.5615 28.0484 92.2691 28.7476 107.693C29.1408 116.346 29.5397 124.8 29.6342 126.471C29.7287 128.142 29.8579 130.67 29.92 132.099C30.1195 136.685 30.784 139.213 32.3811 141.449C33.5116 143.032 34.2003 143.589 36.3102 144.606C38.4741 145.648 40.303 146.27 42.7682 146.803C45.155 147.311 50.1046 147.368 52.1984 146.899C54.7975 146.326 57.1537 145.333 58.7306 144.154C59.6261 143.484 61.0488 141.191 61.5866 139.56C62.0476 138.155 62.0734 137.88 62.1518 133.617C62.2196 129.903 62.151 126.568 61.7569 114.503L61.74 113.981L63.9758 113.659C73.1815 112.333 82.3339 108.592 89.3184 103.308L90.5296 102.39L90.5861 107.277C90.6668 115.242 90.2146 118.518 88.5513 121.731C86.5973 125.51 84.8209 126.221 79.7542 125.236C78.4509 124.977 76.9442 124.767 76.4081 124.767C74.2506 124.767 72.2917 126.051 71.2687 128.126C70.6913 129.297 70.6808 129.362 70.6833 131.736C70.6857 134.029 70.7164 134.231 71.2412 135.531C72.8012 139.398 76.7738 142.846 82.0836 144.962C83.9085 145.688 86.5327 146.367 88.0426 146.504C91.4743 146.827 96.3432 145.325 100.162 142.757C100.841 142.305 101.446 141.934 101.503 141.934C101.567 141.942 102.141 142.386 102.779 142.935C105.815 145.527 109.279 147.231 112.912 147.917C115.068 148.329 118.831 148.175 121.108 147.586C124.257 146.762 127.486 144.954 130.442 142.354L131.491 141.433L132.468 142.24C133.89 143.427 135.214 144.291 136.885 145.131C144.58 148.999 153.228 147.57 159.93 141.328L161.335 140.02L162.465 140.981C171.63 148.757 183.967 148.312 192.688 139.899C194.254 138.389 196.136 136.177 197.137 134.691C200.084 130.29 200.803 125.591 199.075 121.949C197.169 117.944 192.712 116.491 188.699 118.574C187.633 119.123 186.535 120.141 183.774 123.096C182.336 124.638 181.481 125.211 180.907 125.034C180.423 124.88 179.906 123.798 179.486 122.046C179.171 120.714 179.131 119.931 179.131 114.219C179.131 110.727 179.179 106.981 179.244 105.891L179.357 103.908L181.077 104.676C183.491 105.758 184.791 106.059 186.576 105.947C189.184 105.785 190.766 104.731 192.171 102.208C194.408 98.1942 194.949 92.521 193.407 89.3647C192.195 86.8963 186.035 81.5801 182.013 79.5381L181.23 79.1408L181.327 78.1283C181.384 77.5711 181.529 75.0236 181.65 72.4664C181.86 67.8866 181.86 67.797 181.472 66.3936C180.94 64.4735 180.148 63.0572 178.945 61.8501C177.217 60.1205 175.094 59.3252 172.219 59.3252C169.361 59.3252 166.672 60.0236 163.216 61.67C161.407 62.5308 157.96 64.7149 156.886 65.6839L156.361 66.1506L156.474 71.202L156.579 76.2534L154.754 76.5715C153.753 76.7467 151.984 77.123 150.822 77.4064C149.659 77.6898 148.625 77.9199 148.521 77.9199C148.391 77.9199 148.367 76.825 148.456 74.389C148.577 70.7385 148.367 66.4194 148.012 65.4836C147.269 63.4844 144.717 61.5877 141.754 60.8295C140.05 60.3926 136.845 60.5582 134.697 61.1936C130.983 62.291 126.97 64.681 123.942 67.6015C122.222 69.2568 122.093 69.4312 122.173 69.9448C122.303 70.6957 123.118 79.8594 123.272 82.2567C123.336 83.3145 123.336 84.1793 123.272 84.1793C123.199 84.1793 122.569 83.8636 121.859 83.4792C119.493 82.1946 117.498 82.1171 115.286 83.2241C113.719 84.0081 112.258 85.5503 111.717 86.99C111.483 87.6117 111.289 88.6525 111.233 89.6013C111.136 91.0991 111.103 91.1742 110.748 91.0692C108.059 90.2795 107.615 90.2141 104.442 90.1261L101.188 90.0365L101.963 88.4943C103.433 85.5608 104.571 81.979 105.128 78.5465C105.435 76.653 105.435 70.4559 105.12 68.2653C103.982 60.2279 100.485 53.3549 94.696 47.7795C88.1556 41.4815 79.4158 37.6686 67.9993 36.1361C66.5152 35.937 63.1411 35.8234 59.7248 35.8053ZM55.4712 58.2596C57.25 58.2887 58.9432 58.3799 59.7515 58.5212C67.9261 59.9464 74.8298 65.7543 76.8605 72.9148C77.4079 74.843 77.5331 78.3037 77.1253 80.1786C76.2969 83.993 73.7018 87.1727 69.7832 89.1776C68.0383 90.0699 65.6862 90.8515 63.322 91.3254C62.3232 91.5257 61.3147 91.6896 61.0805 91.6896H60.655L60.3393 85.834C59.7264 74.4433 59.3582 70.5708 58.6033 67.5937C57.6537 63.8488 55.4639 61.3643 51.3976 59.4151L49.4597 58.4849L50.6814 58.3694C51.8288 58.2612 53.6924 58.2297 55.4712 58.2596ZM157.492 98.1242V103.981C157.492 107.203 157.412 110.731 157.315 111.821C156.903 116.451 155.231 120.367 153.067 121.74C151.816 122.539 151.186 122.466 150.169 121.409C149.272 120.48 148.731 119.277 148.279 117.169C147.956 115.684 147.69 107.572 147.803 102.664L147.876 99.4233L150.136 99.043C152.244 98.691 153.94 98.4706 156.467 98.2235L157.492 98.1242ZM115.448 101.354L116.845 102.054C118.541 102.899 120.382 103.421 122.538 103.664C123.426 103.764 124.217 103.847 124.298 103.847C124.476 103.849 124.306 109.895 124.04 113.505C123.515 120.48 122.263 124.856 120.277 126.641C119.897 126.988 119.461 127.271 119.308 127.271C118.589 127.271 117.362 125.454 116.66 123.338C115.675 120.367 115.594 119.479 115.521 110.067L115.448 101.354Z" fill="#FFB81C"/>
<path d="M61.58 39.1452C57.7462 39.0939 52.6916 39.2918 50.0294 39.6499C34.7412 41.7064 21.063 47.7268 12.2319 56.2841C8.02673 60.3601 5.47197 64.1616 4.09285 68.3959C3.39279 70.5461 3.2862 71.3245 3.54418 72.4291C4.52661 76.6334 8.74698 79.646 12.7443 78.9952C14.8283 78.6561 16.1727 77.5483 18.1493 74.5389C18.897 73.4004 19.9951 71.8275 20.591 71.0443C26.1527 63.7256 33.9277 58.5248 42.6772 56.2688C48.4496 54.7807 55.3695 54.3382 60.4919 55.1303C65.721 55.9385 70.6779 58.5095 74.3922 62.3384C77.5775 65.6231 79.5752 69.305 80.5344 73.6604C80.9139 75.3867 80.9301 79.0235 80.5586 80.6973C78.6732 89.266 70.9597 94.5419 59.1039 95.3735L57.3598 95.4946V94.8891C57.3582 93.9823 56.4999 78.9242 56.2859 76.0448C55.8862 70.668 55.2758 67.6151 54.2923 66.0777C53.1659 64.3166 50.9866 62.7784 48.2413 61.8055C47.1658 61.4243 46.7976 61.3945 43.3239 61.4001C40.0271 61.4066 39.3949 61.4558 38.1482 61.799C35.0686 62.6476 32.3636 64.533 31.3987 66.504C30.8077 67.7111 30.3604 69.8476 30.3604 71.4634C30.3604 72.1481 30.4791 74.6665 30.6244 77.059C31.0903 84.7305 31.4181 91.2499 32.1432 107.247C33.2801 132.334 33.44 135.056 33.8631 136.654C34.2175 137.987 34.6956 138.947 35.5127 139.949C36.6359 141.338 40.7199 143.017 44.4867 143.639C46.6143 143.994 50.3924 143.865 52.264 143.388C53.0513 143.179 54.3731 142.67 55.2023 142.25C56.8737 141.41 57.5092 140.684 58.2868 138.762L58.7018 137.736L58.6639 129.331C58.6429 124.704 58.5226 118.656 58.3958 115.887L58.1657 110.843L59.3276 110.737C65.9923 110.136 70.3081 109.174 75.5105 107.127C87.7207 102.322 97.2809 93.0642 100.616 82.804C102.481 77.0792 102.497 69.9978 100.656 63.7958C97.5877 53.4258 89.4567 45.5935 77.8254 41.8058C73.7195 40.4687 69.8503 39.715 64.8731 39.2822C64.0003 39.2064 62.8573 39.1623 61.58 39.1452ZM171.974 62.8228C169.883 62.8317 169.617 62.8745 167.84 63.4817C165.587 64.2496 163.133 65.4479 161.187 66.7228L159.79 67.6409L159.919 73.4981L160.048 79.3537H159.548C157.707 79.3537 152.604 80.3994 148.042 81.7115C146.338 82.2016 144.925 82.5755 144.901 82.5424C144.876 82.5093 144.909 79.9876 144.981 76.9387C145.119 71.1218 144.989 66.9998 144.658 66.3716C144.376 65.8508 143.366 65.1128 142.155 64.5451C141.211 64.1027 140.952 64.0663 138.893 64.0704C136.842 64.0752 136.519 64.1236 134.961 64.6614C132.03 65.6723 129.018 67.4851 126.886 69.519L125.667 70.6809L126.006 74.2579C126.588 80.2888 127.129 87.752 127.016 88.0556C126.919 88.2995 126.685 88.3277 125.433 88.2429C123.754 88.1291 122.276 87.6624 120.774 86.7669C118.747 85.5598 117.463 85.5654 116.034 86.7895C114.775 87.8723 114.662 88.2098 114.678 91.065C114.686 93.6682 114.904 94.9335 115.655 96.6646C115.937 97.3308 116.252 97.6707 117.132 98.2593C119.409 99.7927 121.509 100.337 125.158 100.344L127.605 100.349L127.734 101.875C127.904 103.862 127.54 113.445 127.177 116.549C126.434 122.887 125.126 126.602 122.817 128.895C120.952 130.76 119.434 131.107 117.455 130.114C115.671 129.226 114.234 127.086 113.257 123.872C112.272 120.618 112.231 120.069 112.07 109.035C111.892 96.1882 111.795 95.4058 110.301 94.6492C108.573 93.7724 107.411 93.5802 103.85 93.5737C100.168 93.5681 98.6822 93.8055 96.7766 94.7058C95.6785 95.2233 94.5562 96.2924 94.54 96.8382C94.5319 97.007 94.4512 97.5875 94.3543 98.1285C94.2655 98.6695 94.1121 102.813 94.0313 107.337C93.8618 116.274 93.7326 117.542 92.7475 120.522C91.3829 124.656 89.4692 127.126 86.5705 128.483C85.5935 128.935 85.3593 128.976 83.1954 128.976C81.4513 128.976 80.3612 128.871 78.823 128.548C77.6393 128.305 76.4822 128.168 76.0785 128.225C74.6251 128.418 73.8903 129.799 74.0227 132.076C74.265 136.267 78.215 140.126 84.3581 142.169C85.3916 142.516 86.8531 142.896 87.604 143.017C91.3506 143.615 96.599 141.644 100.604 138.14L101.742 137.147L103.559 138.972C106.66 142.08 109.801 143.857 113.41 144.535C117.068 145.213 121.21 144.454 124.521 142.508C126.386 141.41 128.558 139.577 129.987 137.898C130.689 137.074 131.279 136.396 131.287 136.396C131.295 136.396 132.199 137.26 133.289 138.318C136.439 141.378 139.45 142.993 143.213 143.655C146.055 144.147 149.148 143.752 152.119 142.5C154.751 141.394 158.143 138.697 160.081 136.154C160.573 135.508 161.041 134.975 161.114 134.975C161.187 134.967 161.865 135.613 162.624 136.404C164.296 138.156 165.797 139.375 167.703 140.514C172.976 143.687 179.589 143.946 185.136 141.192C189.811 138.875 194.962 133.11 196.222 128.798C196.642 127.344 196.642 125.132 196.214 123.889C195.463 121.676 193.194 120.497 191.087 121.224C189.964 121.612 189.173 122.241 187.623 124.002C184.005 128.112 181.454 129.444 179.298 128.346C177.909 127.635 176.625 125.205 175.995 122.088C175.737 120.804 175.689 119.601 175.713 114.222C175.737 108.054 176.004 98.6897 176.157 98.5395C176.197 98.4992 177.756 99.2299 179.629 100.166C183.892 102.3 184.926 102.666 186.403 102.55C187.881 102.434 188.39 102.033 189.302 100.284C190.4 98.1754 190.796 96.5096 190.812 93.9274C190.828 91.8757 190.804 91.7384 190.303 90.8268C189.044 88.5377 183.149 83.8141 179.249 81.9731L177.683 81.2303L177.78 80.158C178.014 77.5652 178.256 72.7553 178.289 70.1327L178.321 67.284L177.764 66.1059C177.11 64.7195 176.173 63.7207 175.035 63.1935C174.332 62.8689 173.888 62.8148 171.974 62.8228ZM160.888 94.6743V102.437C160.888 110.478 160.751 113.049 160.178 115.661C159.209 120.102 156.907 123.703 154.178 125.027C153.379 125.415 152.789 125.56 151.861 125.6C150.206 125.673 149.333 125.342 148.001 124.107C146.16 122.395 145.038 119.569 144.602 115.509C144.384 113.511 144.295 96.9569 144.505 96.7535C144.691 96.5669 148.47 95.8273 151.683 95.3509C153.427 95.0917 156.027 94.8511 157.804 94.7865L160.888 94.6743Z" fill="#003594"/>
</svg>
