<svg width="200" height="200" viewBox="0 0 200 200" fill="none" xmlns="http://www.w3.org/2000/svg">
<path d="M100 51.6105L22.9346 0V45.7771L32.5106 52.156V133.454C32.5106 146.096 37.7707 157.933 47.7934 167.338C53.5016 173.044 62.5832 179.352 68.0828 182.477C83.143 191.034 100 200 100 200C100 200 116.859 191.034 131.921 182.477C137.419 179.352 146.499 173.044 152.207 167.338C162.23 157.933 167.492 146.096 167.492 133.454V52.156L177.066 45.7771V0L100 51.6105Z" fill="#154734"/>
<path d="M32.502 17.9016V40.6283L41.4695 46.6214C41.4707 81.3579 41.467 133.054 41.467 133.054C41.467 145.776 48.7669 157.228 60.4133 165.208H60.4158V112.485L95.2128 89.1535V59.9306L32.502 17.9016ZM167.508 17.9152L104.8 59.9219V89.1609L139.596 112.49V133.251C139.481 140.233 134.354 147.949 123.742 152.506V113.977L104.792 101.28L104.785 176.615C118.591 175.972 130.025 171.765 139.596 165.212C151.246 157.23 158.547 145.777 158.547 133.053L158.544 102.381L121.814 77.7531V71.3236L139.596 59.399V78.3193L158.544 91.0227V46.6363L167.507 40.653V17.9127L167.508 17.9152ZM60.4219 59.4052L78.2049 71.326V77.7531L60.4219 89.6727V59.4052Z" fill="white"/>
</svg>
