<svg width="201" height="201" viewBox="0 0 201 201" fill="none" xmlns="http://www.w3.org/2000/svg">
<g clip-path="url(#clip0_15016_302455)">
<path d="M134.958 63.9439C136.942 63.9439 138.102 64.8779 138.518 64.3271C139.326 63.2415 139.198 61.3337 138.566 60.6152C138.342 60.3678 137.982 60.248 137.55 60.248C136.742 60.248 135.686 60.6631 134.87 61.4294C134.862 61.4215 132.974 63.9439 134.958 63.9439Z" fill="url(#paint0_radial_15016_302455)"/>
<path d="M134.959 63.9439C134.151 62.2357 135.135 61.0623 135.135 61.0623C135.135 61.0623 136.407 60.28 137.367 60.248C137.367 60.248 138.415 61.5412 137.599 64.2472C137.607 64.2472 136.399 64.3031 134.959 63.9439Z" fill="#9E28B5"/>
<path d="M135.815 60.68C135.815 60.68 135.255 62.5399 135.791 64.1604L136.319 64.2162L136.791 64.2482C137.511 62.5399 136.823 60.2969 136.823 60.2969C136.823 60.2969 136.543 60.3448 136.207 60.4725C135.863 60.6162 135.815 60.68 135.815 60.68Z" fill="url(#paint1_radial_15016_302455)"/>
<path d="M148.485 76.7641C148.573 76.7321 150.757 75.9099 157.861 75.5986L148.797 77.5064L148.485 76.7641ZM148.453 82.3518C148.533 82.3597 152.109 84.4831 162.749 83.597L148.453 82.3518Z" fill="#6D6E71"/>
<path d="M148.517 75.0482C148.517 75.0482 148.517 74.0424 146.837 72.3661C145.157 70.6898 143.981 70.1869 142.973 68.1753C142.485 67.1935 141.461 66.1558 140.237 65.3336C140.421 64.0245 140.101 62.9229 139.877 62.1486C139.645 61.3424 140.229 60.6559 140.229 60.6559L140.869 60.2488C136.037 54.8686 131.061 48.7381 124.677 46.7266C118.293 44.715 110.565 42.5358 104.349 41.1948C98.1334 39.8537 96.2934 40.5242 93.7654 41.3624C91.2454 42.2005 90.4213 42.1287 88.3253 42.1287C86.0213 42.1287 82.3414 41.53 82.3414 41.53C77.2774 41.3704 53.9973 55.0443 49.0853 55.8186C44.1733 56.5928 48.3093 57.6226 50.6373 58.6603C52.9653 59.69 58.2453 63.4577 60.8373 63.9686C60.8373 63.9686 55.8373 69.9953 49.3413 79.5583C43.9173 87.5726 35.6613 93.5754 24.2773 95.3794L90.2374 127.006C90.8614 118.425 101.069 111.871 102.997 112.087C108.709 112.749 115.925 117.786 118.117 119.462C120.293 121.139 127.109 125.673 131.813 121.809C136.517 117.954 135.581 112.925 135.581 112.925C135.581 112.925 136.173 109.652 137.445 105.294C138.741 100.831 140.805 97.8061 142.173 94.3896C143.453 91.2046 145.829 90.127 145.997 88.4587C146.165 86.7824 146.837 86.6147 150.029 83.0945C153.229 79.5822 148.517 75.0482 148.517 75.0482ZM135.781 60.9752C136.261 60.6479 137.493 60.6319 138.581 60.6479C139.197 61.3903 139.317 63.2582 138.517 64.3278C138.493 64.3597 138.437 64.3597 138.405 64.3837C137.613 64.0724 136.797 63.8648 136.037 63.8648C133.349 63.8648 134.005 62.1805 135.781 60.9752Z" fill="black"/>
<path d="M107.064 60.0967C107.064 60.0967 106.08 63.6728 107.344 65.381C108.6 67.0973 110.32 67.5443 112.76 66.6423C115.2 65.7403 115.736 62.8586 115.736 62.8586C115.736 62.8586 113.48 61.5096 111.128 61.1504C108.792 60.7912 107.064 60.0967 107.064 60.0967Z" fill="url(#paint2_radial_15016_302455)"/>
<path d="M109.373 60.8555C109.373 60.8555 107.957 64.5433 110.501 65.2937C112.933 66.0121 114.557 63.8569 114.109 62.0528C114.109 62.0528 113.269 61.5499 112.069 61.2785C110.869 61.0151 109.373 60.8555 109.373 60.8555Z" fill="#9E28B5"/>
<path d="M110.935 64.3359C112.655 64.9745 113.799 63.0906 113.471 61.7017C113.471 61.7017 112.527 61.3425 111.863 61.2148C111.199 61.0791 110.191 60.9434 110.191 60.9434C110.191 60.9434 109.047 63.6334 110.935 64.3359Z" fill="url(#paint3_radial_15016_302455)"/>
<path d="M107.501 62.2917C107.941 62.5391 108.637 62.2278 109.389 62.3555C110.149 62.4832 112.285 63.2336 111.589 63.1139C110.901 62.9861 108.693 63.3613 108.445 63.1139C108.197 62.8584 106.837 61.9165 107.501 62.2917ZM135.149 62.0761C134.709 61.5732 135.605 62.8185 135.773 63.1458C135.941 63.4731 137.389 62.9782 137.845 63.1458C138.301 63.3134 136.893 62.3236 136.397 62.156C135.901 61.9883 135.437 62.4034 135.149 62.0761Z" fill="white"/>
<path d="M149.43 79.3027C149.478 79.3027 150.678 79.8615 154.214 80.4762C157.702 81.0828 161.414 81.9928 161.414 81.9928C161.382 81.9928 157.614 81.8811 154.062 81.2664C150.574 80.6518 149.43 79.3027 149.43 79.3027Z" fill="#6D6E71"/>
<path d="M161.213 88.6423C160.949 88.5465 154.757 86.3114 152.597 84.5234C150.621 82.879 148.445 81.3145 148.445 81.3145C148.549 81.3304 150.973 82.1127 153.173 83.9407C155.197 85.625 161.213 88.6423 161.213 88.6423Z" fill="#6D6E71"/>
<path d="M153.093 87.4524C149.045 85.792 148.397 82.9742 148.293 82.8545L153.093 87.4524Z" fill="#6D6E71"/>
<path d="M124.288 64.2637C124.168 64.543 123.824 64.6787 123.28 64.7027C122.912 64.7586 119.784 65.2215 117.136 64.1838C116.472 63.9204 115.84 63.4894 115.104 62.9944C112.792 61.4139 104.536 58.8356 98.3203 61.2702C98.3203 61.2702 100.4 60.2325 103.728 59.6817C104.24 59.4183 104.816 59.0831 105.36 58.668C108.44 56.3291 114.32 60.6157 115.656 59.5939C116.032 59.3066 116.512 59.1948 116.968 59.1389C115.36 57.6542 114.8 56.2094 111.544 55.6027C107.344 54.8284 107.808 51.7153 102.672 50.3184C97.5363 48.9214 106.256 50.1587 109.832 52.0266C113.416 53.8865 118.088 56.84 118.088 56.84C118.416 57.1034 118.696 57.4147 118.984 57.726C122.528 60.1607 124.992 62.6113 124.832 63.3776C124.752 63.7368 124.56 64.0322 124.288 64.2637ZM115.592 50.1587C111.696 47.6762 119.016 54.0462 122.6 56.5287C126.184 59.0112 124.624 61.9647 127.112 61.8051C129.608 61.6534 128.512 60.4081 125.712 57.1433C122.912 53.8945 115.592 50.1587 115.592 50.1587ZM126.024 51.2523C128.8 54.0222 131.784 56.2254 131.632 59.0192C131.472 61.813 132.408 63.0583 130.384 60.1048C128.36 57.1513 124.776 50.0071 126.024 51.2523ZM133.016 57.5824C134.616 54.8843 133.768 56.5766 134.24 58.4125C134.6 59.8254 135.44 59.8973 137.248 59.3225C139.568 58.5882 142 60.7753 140.576 60.5997C139.576 60.48 135.536 60.9749 134.08 62.0366C132.616 63.0982 132.872 63.2978 132.744 62.1004C132.592 60.911 132.168 59.0112 133.016 57.5824Z" fill="#6D6E71"/>
<path d="M139.182 77.9459C138.046 77.3153 135.774 75.8066 133.638 76.0621C131.494 76.3175 129.862 76.0621 128.35 77.3233C128.35 77.3233 131.622 78.0736 133.262 78.832C133.262 78.832 132.382 79.71 129.478 80.3407C129.478 80.3407 130.486 80.5961 131.622 81.7216C132.758 82.8551 131.742 82.8551 130.99 83.358C130.238 83.8609 129.222 87.006 127.086 86.8783C127.086 86.8783 131.75 87.5089 134.142 86.7585C136.534 86.0002 140.814 83.1106 141.574 81.4742C142.334 79.8298 140.318 78.5686 139.182 77.9459ZM136.27 77.459L126.934 76.4532C122.174 75.7268 115.174 77.028 115.174 77.028C115.238 77.028 122.11 76.5251 126.686 77.2275L136.27 77.459ZM105.814 77.8661C105.814 77.8661 116.462 79.5185 121.398 79.4147C126.27 79.3109 131.822 78.385 131.822 78.385C131.766 78.385 126.302 78.5207 121.366 78.6244C116.478 78.7282 105.918 77.8741 105.814 77.8661ZM111.446 84.8747C111.446 84.8747 133.166 80.3806 133.742 80.3486C133.742 80.3486 119.958 81.075 111.446 84.8747ZM139.11 81.2427C139.006 81.2746 125.47 85.0104 120.55 88.7382L139.11 81.2427ZM135.198 84.5873C135.198 84.5873 127.31 84.4835 122.046 83.9806C116.694 83.4698 110.094 82.5438 110.03 82.5358C110.03 82.5358 116.502 84.252 121.886 84.7709C127.358 85.2898 134.878 84.6352 135.198 84.5873ZM147.71 73.827C148.646 75.0723 148.374 77.0599 147.398 78.8C146.278 80.7957 145.35 80.3965 145.35 80.3965C144.39 79.3029 141.998 78.2812 143.654 78.0736C145.318 77.8661 142.83 77.0359 140.958 76.2058C139.238 75.4474 137.91 73.4917 138.678 73.4119C140.182 73.2602 141.894 72.8931 144.286 73.1006C146.678 73.3081 147.71 73.827 147.71 73.827ZM142.366 70.9773C137.694 69.732 138.318 66.3155 135.206 65.7009C132.094 65.0783 126.022 65.0783 129.294 65.3896C132.566 65.7009 134.294 68.9418 136.926 71.1369C138.31 72.2864 144.038 71.4722 144.038 71.4722C143.958 71.3684 142.654 71.0571 142.366 70.9773ZM97.4862 65.5013C97.4862 65.5013 100.006 66.8823 101.014 70.1551C102.022 73.4199 101.134 73.9228 101.766 76.565C102.398 79.2071 106.43 78.3211 109.822 78.5765C113.222 78.832 114.11 77.5708 115.118 76.3095C116.126 75.0563 117.006 73.1724 118.27 71.6558C119.526 70.1471 123.438 68.1355 123.438 68.1355C123.438 68.1355 122.054 68.1355 119.91 68.6384C117.766 69.1413 115.75 71.2726 113.862 72.031C111.974 72.7813 110.214 75.5512 108.318 75.168C106.43 74.7929 103.534 72.909 103.534 72.909C103.91 73.4119 105.55 71.9032 107.694 72.1507C109.83 72.4061 109.83 72.2784 110.718 71.1449C111.598 70.0114 113.486 68.8779 113.486 68.8779C111.726 69.6282 110.342 69.1254 107.438 68.9976C104.542 68.8779 104.79 69.756 103.278 68.1196C101.774 66.5071 97.4862 65.5013 97.4862 65.5013ZM148.846 77.8182L147.07 80.3167C146.83 80.4764 147.798 82.4879 148.366 82.9748C148.366 82.9748 148.206 81.5221 148.606 81.2028C149.006 80.8755 150.382 80.7238 150.382 80.7238L149.094 79.7579C149.174 79.5105 149.574 78.6244 148.846 77.8182ZM91.0622 72.4141C91.0622 72.4141 88.9182 75.6789 87.5342 77.443C86.1502 79.2071 86.1102 79.7659 87.5342 82.3442C88.9182 84.8587 90.9342 86.3674 91.3102 87.7483C91.6862 89.1373 94.7102 89.3847 97.2302 91.3963C99.7502 93.4079 100.886 95.4194 103.526 97.6785C106.174 99.9455 107.558 102.58 107.558 102.58C107.558 102.58 106.798 100.568 105.918 96.9201C105.038 93.2802 104.91 94.1582 102.518 90.7657C100.126 87.3732 98.1102 87.8761 95.4622 83.7252C92.8142 79.5743 91.3662 79.9814 91.0862 77.1397C90.8142 74.298 91.0622 72.4141 91.0622 72.4141ZM84.6382 83.9727C84.6382 83.9727 83.6302 87.2454 83.6302 88.6264C83.6302 90.0074 84.6382 92.0189 86.6542 93.3999C88.6702 94.7809 90.3102 94.278 92.8302 96.6647C95.3502 99.0514 98.9422 105.677 102.838 104.424C102.838 104.424 100.83 103.793 98.5582 101.031C96.2862 98.2692 97.4862 96.7924 94.5902 94.278C91.6942 91.7635 89.9262 91.5081 88.4222 89.1213C86.9102 86.7426 85.0142 86.4871 84.6382 83.9727ZM76.4782 56.1459C74.4862 58.1336 75.8942 58.1336 70.3902 59.1793C64.8942 60.2329 65.5902 58.9478 60.5582 58.2453C55.5262 57.5429 56.6942 57.6626 61.0302 57.1916C65.3582 56.7207 80.1102 52.2824 76.8302 55.9065M82.8782 57.8063C82.9182 56.2657 80.8862 56.6967 79.9822 57.7584C79.0782 58.82 77.8702 59.9136 77.8222 60.0972C77.7822 60.2808 77.8222 60.0972 78.2862 58.844C78.7502 57.5908 77.8782 58.9478 74.9342 60.4485C71.9902 61.9412 68.7982 61.4463 68.7982 61.4463C70.1102 60.7598 69.9582 61.0152 68.0222 61.4702C66.0782 61.9252 66.4462 61.135 64.7902 61.1589C63.1342 61.1908 65.0542 60.8316 64.0862 60.8157C63.1262 60.7997 61.7502 60.8875 61.7502 60.8875C59.8542 61.1589 58.8062 61.8534 61.3662 61.7735C64.6382 61.6778 63.6222 62.5478 66.0222 62.6835C68.4142 62.8113 70.3262 62.0609 70.3262 62.0609C69.6302 62.5877 67.8782 63.0827 69.6862 62.7953C71.4942 62.4999 72.3582 62.1088 72.3582 62.1088C72.3582 62.1088 73.0622 61.9731 72.5982 62.3563C72.1262 62.7394 71.4302 63.2663 72.7022 62.7634C73.9822 62.2605 76.1902 60.9992 76.1902 60.9992C75.2782 62.5478 75.1102 63.7691 76.1902 62.3563C77.2702 60.9434 76.9102 60.3846 77.0622 62.3483C77.2142 64.3199 77.3422 64.6313 77.8702 61.7496C78.3982 58.8679 79.0142 60.9354 79.2702 62.4361C79.5262 63.9448 80.0782 64.5434 80.0462 62.8991C80.0142 61.2467 80.6222 60.217 80.6222 60.217C82.1822 61.0392 82.6542 61.135 81.9102 60.4964C81.1822 59.8578 81.3502 58.6365 81.7102 59.1952C82.0702 59.754 82.8382 59.3389 82.8382 59.3389C82.2702 58.3491 82.8782 57.8063 82.8782 57.8063ZM67.8862 65.8765C67.8862 65.8765 66.7502 66.8823 65.3662 68.0158C63.9822 69.1493 62.8462 70.7777 62.8462 73.0447C62.8462 75.3117 62.5982 77.1956 63.3502 81.2187C64.1022 85.2419 63.7342 89.0096 63.7342 89.0096C63.7342 89.0096 64.2782 87.5408 64.7422 85.7368C65.2062 83.9407 65.7502 81.7136 65.7502 79.4546C65.7502 77.1876 66.1342 74.6811 67.0142 73.4199C67.8942 72.1667 68.3982 71.2886 67.8942 69.5245C67.3822 67.7604 67.8862 65.8765 67.8862 65.8765ZM82.7422 43.5098C82.7422 43.5098 79.1102 43.5098 74.7822 46.4473C70.4622 49.3848 60.4222 54.0386 48.3182 56.8085C48.3182 56.8085 56.7902 55.9464 59.9022 55.4275C63.0142 54.9087 77.2062 45.9284 82.7422 43.5098ZM58.9182 72.0868C58.9182 72.0868 56.9662 77.2754 53.4862 80.6041C50.0062 83.9327 47.7982 86.2796 45.8702 88.7382C44.6942 90.2389 38.7422 93.2722 38.7422 93.2722C38.7422 93.2722 45.0222 94.8607 47.8702 91.7236C52.9342 86.1439 56.8222 85.3616 57.3982 79.6621C57.9742 73.9467 59.2862 70.7218 58.9182 72.0868ZM124.686 88.5865C125.294 89.0894 126.718 89.2969 126.718 89.2969C123.246 92.6017 120.75 104.719 120.75 104.719C121.246 93.1604 124.686 88.5865 124.686 88.5865Z" fill="#6D6E71"/>
<path d="M139.006 95.0762L130.326 122.624L121.334 95.0762H101.238V103.33L99.2219 95.0762H32.8619V96.7126C30.6379 95.6509 28.1579 95.0762 25.4779 95.0762H0.421875V115.36H3.73387V141.909H0.477875V161.626H26.5899V141.909H23.3899V141.239H25.2459C32.1259 141.239 37.8219 137.487 41.1179 131.444L48.5499 161.618H84.4779L87.1499 149.62H92.5179L95.1899 161.618H159.31V155.535C163.214 159.335 168.358 161.482 174.366 161.482C187.374 161.482 196.814 150.011 196.814 134.206V115.36H200.014V95.0762H139.006ZM23.3979 120.875V115.383C23.9419 115.479 24.5499 115.942 24.5499 118.121C24.5499 119.407 24.1099 120.796 23.3979 120.875Z" fill="black"/>
<path d="M25.487 99.0195H4.375V111.416H7.687V145.844H4.431V157.682H22.647V145.844H19.447V137.295H25.255C33.951 137.295 40.263 129.393 40.263 118.513C40.263 107.034 34.183 99.0195 25.487 99.0195ZM23.335 124.819H19.447V111.416H22.983C26.439 111.416 28.495 113.923 28.495 118.121C28.503 122.065 26.375 124.819 23.335 124.819Z" fill="#FFC425"/>
<path d="M78.9204 99.0195V111.416H75.4244L64.2004 157.674H51.6564L40.2644 111.416H36.8164V99.0195H54.6244V111.416H52.1364L57.8884 137.391L63.7284 111.416H61.1284V99.0195H78.9204ZM196.072 99.0195V111.416H192.872V134.206C192.872 147.944 185.264 157.539 174.376 157.539C162.752 157.539 155.24 148.04 155.24 133.344V111.416H152.12V145.286H155.376V157.682H141.296L141.232 135.3L134.408 157.682H126.32L119.376 135.116V157.682H110.832H98.3604L95.6964 145.685H83.9924L81.3204 157.682H68.7364V145.286H72.2404L83.6404 99.0195H96.1284L107.408 145.286H108.392V111.416H105.192V99.0195H118.472L130.4 135.555L141.912 99.0195H170.264V111.416H167.008V133.815C167.008 140.273 169.656 144.28 173.92 144.28C180.424 144.28 181.12 136.96 181.12 133.815V111.416H177.92V99.0195H196.072ZM93.1524 133.831L89.8884 118.904L86.5524 133.831H93.1524Z" fill="#FFC425"/>
<path d="M9.38231 109.723V147.528H6.12631V155.989H20.9503V147.528H17.7503V135.602H25.2543C33.0463 135.602 38.5663 128.546 38.5663 118.504C38.5663 107.919 33.2783 100.703 25.4863 100.703H6.07831H6.07031V109.715H9.38231V109.723ZM17.7503 109.723H22.9823C27.4063 109.723 30.1983 112.94 30.1983 118.121C30.1983 122.982 27.3503 126.51 23.3343 126.51H17.7503V109.723Z" fill="url(#paint4_linear_15016_302455)"/>
<path d="M41.5917 109.723L52.9837 155.989H62.8717L74.0877 109.723H77.2317V100.711H62.8077V109.723H65.8317L57.8637 145.165L50.0237 109.723H52.9277V100.711H38.5197H38.5117V109.723H41.5917Z" fill="url(#paint5_linear_15016_302455)"/>
<path d="M179.614 109.723H182.814V133.814C182.814 141.421 179.446 145.963 173.918 145.963C168.806 145.963 165.31 141.421 165.31 133.814V109.723H168.566V100.711H143.15L130.422 141.094L117.238 100.711H106.878V109.723H110.078V146.969H106.07L94.7897 100.703H84.9657L73.5657 146.969H70.4297V155.989H79.9657L82.6377 143.992H97.0537L99.7257 155.989H117.694V123.852L127.582 155.989H133.158L142.902 124.036L142.99 155.989H153.686V146.969H150.43V109.723H156.942V133.343C156.942 147.065 163.75 155.846 174.382 155.846C184.27 155.846 191.182 146.913 191.182 134.205V109.723H194.382V100.711H179.614V109.723ZM84.4377 135.522L89.9017 111.056L95.2457 135.522H84.4377Z" fill="url(#paint6_linear_15016_302455)"/>
<path d="M136.495 89.2808C136.495 89.2808 135.527 93.8627 132.295 96.4171C132.295 96.4171 133.135 91.6436 132.927 89.3766C132.927 89.3766 135.151 88.9615 135.823 88.6262C136.495 88.291 136.543 88.714 136.495 89.2808ZM127.391 90.7176C127.007 91.5957 127.719 91.5159 128.159 91.9789C128.591 92.4498 128.815 91.931 129.151 91.5957C129.487 91.2604 129.855 91.0768 129.855 91.0768C129.855 91.0768 130.031 91.3882 130.447 91.5957C130.863 91.8032 131.159 91.8032 131.375 91.6356C131.583 91.468 132.215 90.6697 132.295 90.3345C132.383 89.9992 132.591 89.664 132.087 89.5841C131.583 89.4963 129.655 89.9992 129.655 89.9992C129.319 89.9673 127.391 90.7176 127.391 90.7176ZM123.647 108.949C123.567 109.045 123.767 110.626 124.487 110.921C125.199 111.216 125.663 110.921 126.079 110.546C126.503 110.171 127.031 108.207 127.087 107.449C127.215 105.772 126.671 103.178 126.671 103.178C126.671 103.178 125.535 105.812 125.159 106.611C124.815 107.337 124.231 108.231 123.647 108.949ZM127.807 109.285C127.511 109.995 127.199 110.682 127.815 111.137C128.439 111.592 129.191 111.656 129.575 111.336C129.575 111.336 130.023 111.56 130.415 111.544C131.055 111.52 131.463 111.121 131.463 111.121C131.463 111.121 131.871 111.392 132.479 111.344C133.039 111.296 133.343 110.953 133.343 110.953C133.343 110.953 133.391 111.161 134.151 111.161C134.903 111.161 135.159 110.738 135.159 110.362C135.159 109.987 137.095 108.558 136.167 103.202C136.167 103.202 134.527 106.89 133.815 107.728C133.103 108.566 133.519 109.069 133.519 109.069L133.167 109.572L132.607 108.758C132.399 108.542 132.079 108.55 131.871 108.926C131.663 109.301 131.447 109.66 131.447 109.66C131.447 109.66 130.967 108.822 130.543 108.734C130.127 108.646 129.487 110.243 129.487 110.243C129.487 110.243 129.359 109.572 129.023 109.197C128.687 108.822 128.519 108.191 128.183 108.614C127.847 109.029 127.807 109.285 127.807 109.285ZM122.495 101.023C122.439 102.085 122.335 105.876 122.895 106.754C123.447 107.632 123.847 106.754 124.007 106.196C124.167 105.637 124.247 105.006 123.367 104.368C123.367 104.368 123.447 103.729 123.607 102.939C123.767 102.14 122.895 101.749 122.895 101.749C122.895 101.749 122.975 101.51 123.207 101.031C123.447 100.552 122.575 99.5143 122.495 101.023ZM144.599 88.8338C144.519 88.746 144.471 88.3788 144.055 88.291C143.639 88.2112 143.343 88.4586 143.343 88.4586C143.175 88.2431 142.711 88.1233 142.375 88.1233C142.039 88.1233 141.495 88.5384 141.495 88.5384C141.367 88.3708 140.951 87.9956 140.567 88.0755C140.191 88.1633 139.583 88.4666 139.583 88.4666C139.479 88.0595 138.551 88.2431 137.879 88.3708C137.207 88.4985 137.207 89.209 137.079 89.6719C136.951 90.1349 137.623 90.5979 137.791 90.7575L138.591 90.4622L139.343 89.4564C139.263 89.7917 139.343 90.2547 139.463 90.6298C139.591 91.005 140.103 90.7735 140.471 90.5899C140.839 90.4063 141.183 89.8715 141.183 89.8715L141.135 90.542C141.135 90.7895 141.471 91.1247 141.807 91.2525C142.143 91.3802 142.271 91.1247 142.271 91.1247C142.311 91.8352 142.023 93.0964 141.807 93.8068C141.599 94.5173 140.631 97.1195 140.631 97.1195C142.607 96.2415 143.855 93.7031 144.279 92.8489C144.743 91.923 145.159 90.4143 145.159 90.4143C145.159 90.4143 145.199 90.2467 145.415 89.9513C145.623 89.656 145.711 89.3606 145.623 89.1132C145.567 88.8817 144.983 89.2329 144.599 88.8338Z" fill="#D1D3D4"/>
<path d="M136.152 89.0808C136.152 89.0808 135.632 92.7447 133.168 95.2911C133.168 95.2911 133.856 92.4015 134.288 89.7274C134.288 89.7274 135.072 89.4719 136.152 89.0808ZM131.912 90.374C131.648 90.6773 130.496 90.9966 130.496 90.9966L131.176 91.4995C131.696 91.0205 131.912 90.374 131.912 90.374ZM129.232 91.1483C128.752 91.276 128.32 91.5394 128.32 91.5394L128.624 91.9305L129.232 91.1483ZM134.424 110.953C135.656 110.442 134.072 108.622 134.072 108.622C134.352 109.596 134.272 110.298 134.272 110.298C134.192 110.641 134.424 110.953 134.424 110.953ZM132.776 111.072C132.776 111.072 133.216 111.08 133.096 110.226C132.976 109.364 132.2 108.773 132.2 108.773C132.2 108.773 132.576 109.843 132.352 110.49L132.776 111.072ZM130.92 111.224C130.92 111.224 132.08 110.41 130.48 108.909C130.48 108.909 130.472 110.194 130.288 110.498C130.296 110.506 130.488 111.064 130.92 111.224ZM128.984 111.296C129.952 110.761 128.512 108.853 128.512 108.853C128.44 109.412 128.104 110.394 128.104 110.394C128.304 110.849 128.984 111.296 128.984 111.296ZM136.104 104.303C135.752 106.602 134.664 108.989 134.664 108.989L135.096 109.883C136.512 107.552 136.104 104.303 136.104 104.303ZM126.592 104.072C126.304 107.153 124.568 109.508 124.568 109.508C124.768 110.202 125.576 110.37 125.576 110.37C126.24 110.194 126.584 108.757 126.784 107.608C126.992 106.459 126.592 104.072 126.592 104.072ZM123.424 104.647C122.736 105.253 123.536 106.259 123.536 106.259L123.912 105.509L123.424 104.647ZM123.144 102.372C123.048 102.922 122.816 102.954 122.816 102.954L123.152 103.345L123.448 102.842L123.144 102.372ZM144.64 91.1642C144.64 91.1642 143.952 91.5394 143.576 91.4516C143.576 91.4516 143.072 93.9501 142.44 95.3071C142.44 95.3071 144.216 92.8964 144.64 91.1642ZM144.928 89.5119C144.928 89.5119 144.544 90.7092 143.456 91.2121C143.456 91.2121 144.576 91.0684 145.232 89.7753C145.232 89.7753 145.352 89.5757 145.336 89.2883L144.928 89.5119ZM144.24 88.6897C144.24 88.6897 143.896 88.9052 143.808 89.3362C143.808 89.3362 143.552 90.1744 142.856 91.0924C142.856 91.0924 145.104 89.9748 144.24 88.6897ZM142.856 88.538L142.336 89.1127C142.456 89.887 141.904 91.0285 141.904 91.0285C141.904 91.0285 142.768 90.5097 143.024 89.5598C143.288 88.6019 142.856 88.538 142.856 88.538ZM140.976 88.4502C140.52 88.4821 140.176 88.9691 140.176 88.9691C140.256 89.3123 139.912 90.5496 139.912 90.5496C141.856 89.5518 140.976 88.4502 140.976 88.4502ZM139.104 88.4741C139.104 88.4741 138.32 88.6977 138.008 89.0569C138.008 89.0569 138.048 90.0307 137.96 90.5496C137.968 90.5496 139.88 89.2085 139.104 88.4741Z" fill="white"/>
</g>
<defs>
<radialGradient id="paint0_radial_15016_302455" cx="0" cy="0" r="1" gradientUnits="userSpaceOnUse" gradientTransform="translate(136.55 62.3425) scale(2.33248 2.32735)">
<stop stop-color="white"/>
<stop offset="0.4788" stop-color="white"/>
<stop offset="0.5848" stop-color="#FFFEFC"/>
<stop offset="0.6586" stop-color="#FFFCF3"/>
<stop offset="0.7226" stop-color="#FFF8E4"/>
<stop offset="0.781" stop-color="#FFF2CE"/>
<stop offset="0.8357" stop-color="#FFEAB1"/>
<stop offset="0.8875" stop-color="#FFE18F"/>
<stop offset="0.9371" stop-color="#FFD566"/>
<stop offset="0.9838" stop-color="#FFC937"/>
<stop offset="1" stop-color="#FFC425"/>
</radialGradient>
<radialGradient id="paint1_radial_15016_302455" cx="0" cy="0" r="1" gradientUnits="userSpaceOnUse" gradientTransform="translate(136.364 62.2991) scale(1.5034 1.5001)">
<stop stop-color="#6D6E71"/>
<stop offset="1" stop-color="#231F20"/>
</radialGradient>
<radialGradient id="paint2_radial_15016_302455" cx="0" cy="0" r="1" gradientUnits="userSpaceOnUse" gradientTransform="translate(111.22 63.5787) scale(4.04615 4.03725)">
<stop stop-color="white"/>
<stop offset="0.4727" stop-color="white"/>
<stop offset="0.6033" stop-color="#FFFEFD"/>
<stop offset="0.679" stop-color="#FFFCF4"/>
<stop offset="0.7406" stop-color="#FFF8E6"/>
<stop offset="0.7948" stop-color="#FFF3D2"/>
<stop offset="0.8439" stop-color="#FFECB8"/>
<stop offset="0.8895" stop-color="#FFE399"/>
<stop offset="0.9324" stop-color="#FFD973"/>
<stop offset="0.9719" stop-color="#FFCE48"/>
<stop offset="1" stop-color="#FFC425"/>
</radialGradient>
<radialGradient id="paint3_radial_15016_302455" cx="0" cy="0" r="1" gradientUnits="userSpaceOnUse" gradientTransform="translate(111.682 62.6931) scale(1.80358 1.79961)">
<stop stop-color="#6D6E71"/>
<stop offset="1" stop-color="#231F20"/>
</radialGradient>
<linearGradient id="paint4_linear_15016_302455" x1="25.7804" y1="155.153" x2="15.8994" y2="98.9908" gradientUnits="userSpaceOnUse">
<stop stop-color="#4F2582"/>
<stop offset="0.4848" stop-color="#FDFDFE"/>
<stop offset="1" stop-color="#FDFDFE"/>
</linearGradient>
<linearGradient id="paint5_linear_15016_302455" x1="66.7404" y1="155.332" x2="56.5745" y2="97.5511" gradientUnits="userSpaceOnUse">
<stop stop-color="#4F2582"/>
<stop offset="0.1099" stop-color="#4F2582"/>
<stop offset="0.5989" stop-color="#FDFDFE"/>
<stop offset="1" stop-color="#FDFDFE"/>
</linearGradient>
<linearGradient id="paint6_linear_15016_302455" x1="138.389" y1="162.433" x2="126.253" y2="93.4564" gradientUnits="userSpaceOnUse">
<stop stop-color="#4F2582"/>
<stop offset="0.3077" stop-color="#4F2582"/>
<stop offset="0.7692" stop-color="#FDFDFE"/>
<stop offset="1" stop-color="#FDFDFE"/>
</linearGradient>
<clipPath id="clip0_15016_302455">
<rect width="200" height="200" fill="white" transform="translate(0.222656 0.613281)"/>
</clipPath>
</defs>
</svg>
