<svg width="201" height="201" viewBox="0 0 201 201" fill="none" xmlns="http://www.w3.org/2000/svg">
<path d="M185.566 95.7658V68.8084L164.659 49.8783H139.011L139.018 29.0824L117.637 12.6448H13.3301V41.294L23.4113 41.287L23.4948 123.169H13.3301V151.47H65.4487L65.3721 123.169H55.2074V111.27H68.5538V167.009L91.1042 186.698H163.719L185.56 166.961V140.358H154.174L154.195 158.112H100.983V111.27H114.956L139.011 88.0239V77.9984H154.174V95.7588H185.566V95.7658ZM105.321 81.8415H100.921V78.0054H105.321V81.8415ZM105.321 49.941H91.0345L68.5468 73.3964V81.8345H55.1447L55.1308 41.294L105.321 41.2801V49.941Z" fill="#9D2235"/>
<path d="M115.59 18.6676L133.003 32.0558L132.996 52.3922V55.9011H162.348L179.552 71.4824V89.7441H160.211V75.4926V71.9837H156.702H136.512H133.003V85.4763L112.534 105.256H98.4774H94.9685V164.135H160.232V160.626L160.218 146.381H179.552V164.295L161.408 180.684H93.3602L74.5764 164.281V108.772V105.263H71.0675H52.7013H49.1924V129.199H59.3641L59.4059 145.455H19.3527V129.199H29.5244L29.5174 125.69L29.4269 38.7743V35.2654H25.918H19.3527V18.6676H115.59ZM49.1228 87.8643H74.5764V84.3554V75.8268L93.6109 55.9638H111.343V52.4549V38.7812V35.2723H107.835L52.6247 35.2862H49.1158V38.7952L49.1228 84.3554V87.8643ZM94.9058 87.8643H111.343V84.3554V75.4926V71.9837H107.835H98.4147H94.9058V87.8643ZM116.781 15.1587H15.8438V38.7882L25.918 38.7812L26.0085 125.69H15.8438V148.971H62.9287L62.873 125.69H52.7083V108.772H71.0744V165.875L92.0513 184.193H162.766L183.067 165.854V142.872H156.709L156.723 160.626H98.4774V108.765H113.947L136.505 86.9662V75.4926H156.695V93.253H183.053V69.9299L163.692 52.3992H136.498L136.505 30.3292L116.781 15.1587ZM52.6317 84.3554L52.6247 38.7952L107.835 38.7812V52.4549H92.114L71.0675 74.4135V84.3554H52.6317ZM98.4147 75.4926H107.835V84.3554H98.4147V75.4926Z" fill="#B2B4B2"/>
<path d="M181.264 91.4636V70.7233L163.002 54.1882H134.708L134.715 31.2132L116.175 16.9478H17.6328V36.9918L27.707 36.9848L27.7975 127.472H17.6328V147.168H61.1253L61.0766 127.472H50.9049V106.968H72.8565V165.053L92.7265 182.396H162.076L181.271 165.046V144.661H158.505L158.519 162.415H96.6949V106.968H113.23L134.722 86.2002V73.7031H158.498V91.4636H181.264ZM72.8565 75.1304V86.1445H50.8422L50.8283 36.9987L109.624 36.9848V54.2439H92.8727L72.8565 75.1304ZM109.624 86.1445H96.6183V73.7031H109.624V86.1445Z" fill="white"/>
<path d="M158.49 71.0709H161.122V88.8313H178.631V71.8854L161.992 56.8124H132.083C132.083 48.7085 132.09 40.6045 132.09 32.5006L115.276 19.5789H20.2637V34.3595C23.6194 34.3595 26.9752 34.3525 30.3379 34.3525C30.3518 45.1647 30.3588 55.9769 30.3727 66.7891C30.3866 83.8116 30.4075 100.834 30.4214 117.863C30.4284 121.943 30.4284 126.03 30.4354 130.11H20.2637V144.542H58.4858L58.4441 130.11H48.2654V104.343H75.4804V163.862L93.7003 179.771H161.045L178.618 163.89V147.292H161.115C161.122 153.21 161.129 159.128 161.129 165.046H94.0345V104.343H112.136L132.055 85.0926V71.0709H158.49ZM112.254 73.7025V88.7825H93.9858V71.0709H112.254V73.7025ZM112.254 36.9842V56.875H93.9927L75.4874 76.188V88.7756H48.2097C48.2097 73.0551 48.2027 57.3345 48.2027 41.614V34.3734C66.7568 34.3734 85.311 34.3664 103.865 34.3595H112.261V36.9842H112.254Z" fill="#0060A9"/>
</svg>
