<svg width="201" height="200" viewBox="0 0 201 200" fill="none" xmlns="http://www.w3.org/2000/svg">
<path d="M33.9492 23.6615V58.1534H50.3694V141.867H33.9492V176.341H112.018V141.867H95.5976V117.982H112.554C127.992 117.982 141.909 113.304 151.737 104.803C161.591 96.2846 167.012 84.2151 167.012 70.8217C167.012 57.4304 161.591 45.3604 151.737 36.8437C141.911 28.3478 127.993 23.6653 112.556 23.6653H41.3658H33.9492L33.9492 23.6615ZM40.0075 29.0388H41.3665H112.555C141.052 29.0388 160.954 46.2179 160.954 70.8226C160.954 95.4273 141.052 112.609 112.555 112.609H89.5374V147.246H105.961V170.971H40.008V147.246H56.4341V52.7809H40.008V29.0403L40.0075 29.0388ZM89.5369 52.7794V89.0011H106.702C121.432 89.0011 130.951 81.8935 130.951 70.8932C130.951 59.8882 121.432 52.7794 106.702 52.7794H92.5722H89.5369ZM95.5982 58.1539H106.702C118.092 58.1539 124.89 62.9152 124.89 70.8929C124.89 78.8667 118.093 83.629 106.702 83.629H95.5982V58.1539Z" fill="white"/>
<path d="M36.9776 26.3505V42.0387C57.4855 53.6941 76.9955 69.3636 92.571 83.4348V70.8924V66.7097C77.6613 50.1152 61.6905 36.4348 49.068 26.3506H41.3659L36.9776 26.3505ZM68.3436 26.3505C78.5645 34.85 89.3655 44.7484 100.064 55.4682H106.701C119.988 55.4682 127.917 61.5187 127.917 70.8935C127.917 74.8895 126.469 78.2786 123.784 80.8557C131.163 89.3059 138.216 97.9581 144.673 106.586C151.121 102.403 156.186 96.8557 159.508 90.2605C138.608 61.6252 111.028 40.8904 85.5814 26.3503L68.3436 26.3505ZM120.103 29.8287C143.871 52.5518 155.794 72.0017 161.722 84.9713C163.2 80.5953 163.982 75.8559 163.982 70.8233C163.982 69.613 163.938 68.4183 163.85 67.2423C141.355 39.4456 120.103 29.8287 120.103 29.8287ZM58.7073 71.0338C71.2696 86.0653 83.0595 101.035 93.6862 115.299H106.082C81.4079 90.3785 58.7073 71.0338 58.7073 71.0338ZM108.443 86.2742C107.872 86.2977 107.293 86.3124 106.702 86.3124H95.7272C108.965 98.496 118.988 109.139 123.788 114.402C124.261 114.325 124.73 114.244 125.194 114.156C120.505 104.327 114.77 95.0088 108.443 86.2742ZM53.4008 86.4797V106.178C65.5737 117.386 77.9603 130.41 90.2612 145.501C90.2612 145.501 77.6882 116.197 53.4008 86.4797ZM53.4008 128.199V136.523C66.3771 150.161 75.8834 162.234 83.3075 173.663H103.875C85.9961 154.82 68.031 139.505 53.3993 128.199L53.4008 128.199ZM36.9746 144.554V155.526C43.0379 161.143 49.0774 167.183 55.0178 173.663H61.132C56.7061 165.693 50.3851 155.519 41.9001 144.553H36.9748L36.9746 144.554Z" fill="black"/>
<path d="M49.0695 26.3511C61.6926 36.4352 77.6643 50.1157 92.5725 66.7101V55.4681H100.066C89.3674 44.7482 78.5679 34.8505 68.3486 26.3503L49.0695 26.3511ZM85.5873 26.3511C111.034 40.8918 138.611 61.626 159.511 90.2598C160.365 88.5643 161.107 86.7986 161.724 84.9705C155.795 72.0024 143.872 52.5525 120.104 29.8279C120.104 29.8279 141.356 39.445 163.851 67.2414C162.01 42.9854 141.433 26.3503 112.555 26.3503L85.5873 26.3511ZM36.9761 42.0409V55.4726H53.3993V65.8869V86.4804C77.6868 116.198 90.2627 145.502 90.2627 145.502C77.9603 130.41 65.5708 117.385 53.3978 106.175V115.436V128.199C68.0304 139.505 85.9961 154.82 103.875 173.663H108.989V144.554H92.5715V115.298H93.6869C83.0617 101.036 71.2704 86.0661 58.7081 71.0346C58.7081 71.0346 81.4101 90.3793 106.082 115.298H112.555C116.46 115.298 120.212 114.989 123.788 114.403C118.988 109.141 108.964 98.4981 95.7251 86.3145H92.5697V83.4379C76.9956 69.3667 57.4826 53.6965 36.9747 42.0419L36.9761 42.0409ZM123.788 80.8565C120.457 84.0527 115.215 85.9926 108.443 86.275C114.771 95.0093 120.502 104.327 125.192 114.157C132.553 112.78 139.126 110.19 144.676 106.587C138.218 97.9589 131.168 89.3076 123.79 80.8571L123.788 80.8565ZM53.4008 136.524V144.554H41.9005C50.3854 155.52 56.7067 165.694 61.1325 173.663H83.3085C75.8829 162.234 66.3779 150.16 53.4008 136.524ZM36.9746 155.527V173.663H55.0178C49.0771 167.183 43.0389 161.143 36.9761 155.526L36.9746 155.527Z" fill="#FF6000"/>
</svg>
