<svg width="201" height="201" viewBox="0 0 201 201" fill="none" xmlns="http://www.w3.org/2000/svg">
<g clip-path="url(#clip0_15016_302057)">
<path d="M0.425781 154.137L17.1734 114.704H38.7931L50.8209 86.5373H29.2012L45.9489 47.1042H164.857C175.362 47.1042 189.978 48.3223 196.982 58.8276C203.985 69.3329 198.657 81.6653 195.459 89.1256C186.933 109.07 174.601 122.316 142.324 122.316H119.943L106.545 154.137H0.425781Z" fill="black"/>
<path d="M190.892 62.9375C187.086 57.152 178.864 54.5637 165.009 54.5637H50.8208L40.3155 79.3807H61.7829L43.665 122.011H22.0454L11.54 146.828H101.673L112.178 122.011H90.4061L93.2989 115.16H142.324C173.84 115.16 182.366 101.457 188.76 86.3842C192.262 78.1626 195.307 69.6366 190.892 62.9375ZM108.524 79.3807H144.607C147.196 79.3807 148.414 79.9897 148.718 80.4464C149.023 80.7509 148.871 81.8167 148.262 83.4914C146.435 87.7545 142.019 90.495 136.69 90.495H103.804L108.524 79.3807Z" fill="#9D9795"/>
<path d="M165.009 58.3696H53.4087L46.1007 75.574H67.5681L46.1007 125.817H24.6332L17.3252 143.021H99.2363L106.544 125.817H84.6202L90.8625 111.353H142.476C172.012 111.353 179.473 98.8684 185.41 84.8613C191.348 70.8542 194.545 58.3696 165.009 58.3696ZM136.69 94.1486H98.1705L106.088 75.574H144.607C151.458 75.574 154.199 79.0758 151.763 84.8613C149.175 90.6469 143.541 94.1486 136.69 94.1486Z" fill="#CFB991"/>
</g>
<defs>
<clipPath id="clip0_15016_302057">
<rect width="200" height="200" fill="white" transform="translate(0.425781 0.621094)"/>
</clipPath>
</defs>
</svg>
