<svg width="200" height="201" viewBox="0 0 200 201" fill="none" xmlns="http://www.w3.org/2000/svg">
<path d="M30.0039 13.1289V40.1977H42.8706V146.122H30.2127V171.69H75.9238V193.129H128.183V168.68H115.493V106.836L139.607 172.04H169.997V146.653H158.781L141.494 99.0276L168.126 79.5937V39.599L143.756 13.1289H30.0039ZM70.7196 39.725H131.346L141.167 50.8741V67.5465L132 77.1511H117.01V72.3921H129.514V45.9811H75.8883V72.5734H87.0768V77.1511H70.7196V39.725ZM71.2633 104.492H87.3644V168.869H79.6704V146.5H71.2633V104.492Z" fill="#002147"/>
<path d="M133.065 79.7079L143.674 68.5905V49.9561L132.47 37.2392H68.1838V79.7079H89.5836V70.0914H78.3913V48.5379H126.978V69.9063H114.474V79.7079H133.065ZM78.4267 190.647V171.422H89.8713V102.01H68.7275V149.057H77.1385V169.204H32.7196V148.678H45.3775V37.712H32.5068V15.6857H142.634L165.594 40.6193V78.3489L138.466 98.1452L157.002 149.21H167.462V169.554H141.35L116.148 101.427H112.957V171.237H125.651V190.647H78.4267Z" fill="white"/>
<path d="M161.563 39.7258L146.025 53.9997L145.877 69.402L133.935 82.0938H116.018L92.3113 105.047V173.738H80.7383V187.927H122.923V173.555H110.232V98.7031H117.698L142.892 166.833H164.734V151.528H155.033L135.24 97.0201L162.868 76.862V41.3993L161.563 39.7258ZM66.1871 130.409L48.254 146.082V146.117L47.9105 146.413L47.8443 150.993H43.0159L42.6409 151.38L42.4928 151.368L40.4631 152.445L40.7467 153.344L35.5433 158.742V158.774L35.3164 158.884V166.426H35.5433V166.48H74.7785V151.374H66.3762L66.1871 130.409Z" fill="#68ABE8"/>
<path d="M35.127 18.1872V34.9857H48.0961L47.9101 146.413L66.1867 130.409V99.4689H92.5189V105.047L115.756 82.3931H111.836V67.1832H124.53V51.0308H80.8577V67.4605H92.0525V82.3931H65.5469V34.7052H133.585L146.186 48.9822V53.9997L161.402 40.0252L141.521 18.1841L35.127 18.1872ZM35.3098 151.273L35.2184 159.483L42.6847 151.273H35.3098Z" fill="#002147"/>
<path fill-rule="evenodd" clip-rule="evenodd" d="M32.5068 15.6941V37.718H45.3783V148.685H32.718V169.215H77.1377V149.067H68.729V102.018H89.8736V171.428H78.4299V190.653H125.648V171.245H112.956V101.435H116.149L141.35 169.559H167.465V149.221H157.004L138.463 98.1545L165.593 78.3557V40.627L142.633 15.6909H32.51L32.5068 15.6941ZM35.0313 18.2123H141.53L163.074 41.6071V77.0761L135.447 97.231L155.239 151.739H164.946V167.041H143.099L117.905 98.9172H110.438V173.763H123.13V188.138H80.9449V173.949H92.3886V99.4971H66.2108V151.585H74.6195V166.691H35.2425V151.203H47.8965V35.1935H35.0313V18.2091V18.2123ZM65.6687 34.727V82.2354H92.1081V67.5769H80.9102V51.0622H124.46V67.3878H111.957V82.2354H134.142L146.194 69.6098V49.0136L133.606 34.727H65.6687ZM68.1869 37.2452H132.468L143.67 49.9622V68.6012L133.064 79.7172H114.476V69.9123H126.978V48.5471H78.3921V70.0983H89.5805V79.7172H68.1838V37.2421L68.1869 37.2452Z" stroke="#002147" stroke-width="0.810468"/>
</svg>
