<svg width="201" height="201" viewBox="0 0 201 201" fill="none" xmlns="http://www.w3.org/2000/svg">
<path d="M130.563 20.8001C130.427 20.7342 130.284 20.6801 130.135 20.6391L130.134 20.6388C129.404 20.438 128.655 20.5826 128.069 20.9795L110.473 32.1784C110.46 32.1867 110.447 32.1951 110.434 32.2036L93.0465 43.7278C94.0988 42.6287 95.0658 41.3445 95.9343 40.0364C97.3082 37.9671 98.5481 35.6635 99.5832 33.5405C100.621 31.4111 101.473 29.4237 102.064 27.9703C102.36 27.2423 102.593 26.6452 102.752 26.2275C102.831 26.0186 102.893 25.8543 102.935 25.7408C102.956 25.684 102.972 25.6398 102.983 25.6091L102.996 25.5732L103 25.563L103.001 25.5598L103.001 25.5587C103.002 25.5586 103.002 25.5585 102.923 25.5301C103.011 25.0617 103.076 24.3248 102.926 23.6703C101.619 22.4029 99.5051 22.4867 99.2306 22.6515C99.1475 22.7114 99.0286 22.8067 98.9908 22.8396C98.9689 22.8594 98.9329 22.8927 98.9187 22.9063C98.9051 22.9194 98.8932 22.9312 98.8835 22.9408C98.874 22.9503 98.8668 22.9577 98.8626 22.9619C98.8231 23.0023 98.7851 23.0439 98.7486 23.0867C98.7387 23.0977 98.7254 23.1122 98.709 23.1301C98.6855 23.1557 98.6554 23.1882 98.6189 23.2271C98.4895 23.3653 98.2869 23.5772 98.0224 23.841C97.4918 24.3703 96.7251 25.0963 95.813 25.8509C93.9002 27.4335 91.6931 28.8493 89.8242 29.2154C89.8029 29.2196 89.7817 29.224 89.7606 29.2287C89.7435 29.2325 89.7264 29.2365 89.7094 29.2407C86.385 30.0558 81.4274 29.2301 76.633 27.8851C74.312 27.234 72.1551 26.4994 70.4273 25.88C69.8005 25.6552 69.1955 25.4323 68.6529 25.2324C67.7931 24.9156 67.09 24.6565 66.7054 24.5395L66.7042 24.5392C63.8226 23.6641 59.5681 23.1534 57.7617 23.1364M130.563 20.8001L57.7382 25.6363M130.563 20.8001C150.199 29.9655 149.698 53.4825 149.606 52.8779L149.607 52.8803C150.047 55.8095 149.793 60.5991 148.71 65.8048C147.618 71.0553 145.631 76.9859 142.418 82.1621C141.361 83.864 136.906 89.7768 129.918 95.7149C130.092 95.8492 130.261 95.9842 130.425 96.1179C132.04 97.4326 133.586 98.9853 134.104 99.5429L134.105 99.5435C137.042 102.706 139.37 106.994 141.165 111.093C142.974 115.225 144.318 119.345 145.217 122.286L130.563 20.8001ZM57.7617 23.1364L57.7382 25.6363M57.7617 23.1364C57.7619 23.1364 57.7621 23.1365 57.7624 23.1365L57.7382 25.6363M57.7617 23.1364C57.7168 23.136 57.6653 23.1352 57.6074 23.1343C56.3227 23.1147 51.8855 23.0469 47.1627 25.6785C42.1213 28.4877 37.1441 34.1376 34.901 45.0303M57.7382 25.6363C57.695 25.6359 57.6462 25.6352 57.5919 25.6344C55.132 25.5982 41.4876 25.3974 37.3457 45.5538M34.901 45.0303C34.9029 45.022 34.9047 45.0137 34.9066 45.0054L37.3457 45.5538M34.901 45.0303C34.6939 45.9682 34.566 47.4859 34.4886 48.5963C34.4469 49.195 34.4157 49.7455 34.395 50.1458C34.3846 50.3463 34.3768 50.51 34.3715 50.6243L34.3656 50.7574L34.364 50.7933L34.3636 50.8031L34.3635 50.8059L34.3635 50.8068L34.3635 50.8071C34.3635 50.8072 34.3635 50.8073 35.2652 50.8445M34.901 45.0303C34.8997 45.0371 34.8983 45.0438 34.8969 45.0506L37.3457 45.5538M37.3457 45.5538L35.2652 50.8445M98.3792 23.8909L98.2983 23.8617L98.3792 23.8909ZM98.3792 23.8909C98.3792 23.8908 98.3792 23.8907 98.3793 23.8907L98.3792 23.8909ZM35.2652 50.8445L35.3367 50.9104L36.8613 52.3147M35.2652 50.8445L35.0225 50.621C35.0195 50.6242 35.8741 49.5737 37.0136 48.3438C36.9122 49.679 36.8613 50.9104 36.8613 50.9104V52.3147M39.3613 50.9643V50.9104H38.0619C38.4529 50.4659 38.9217 49.9498 39.4456 49.409C39.4215 49.7885 39.4024 50.1323 39.3883 50.4045C39.3785 50.5941 39.3711 50.748 39.3663 50.8538L39.3613 50.9643ZM39.3613 50.9643L39.3609 50.9746L39.3596 51.0049L39.3593 51.012L39.3592 51.0134L39.3592 51.0136C39.3592 51.0136 39.3592 51.0135 38.0199 50.9582C37.6328 51.3994 37.325 51.7665 37.1193 52.0118C36.9931 52.1622 36.9054 52.2669 36.8613 52.3147M39.3613 50.9643V52.3147H36.8613M89.0472 46.938C87.9772 48.0489 87.0834 49.2788 86.1811 50.8123L86.1805 50.8134C84.8737 53.0367 84.2321 56.1195 83.8961 58.3858C83.55 60.7198 83.4675 62.6486 83.4675 62.8498L83.4675 97.9619L83.4675 97.9671L83.4674 97.9809L83.4671 98.0562L83.4657 98.3499L83.4605 99.465L83.4417 103.448C83.426 106.746 83.4049 111.146 83.3829 115.558C83.361 119.969 83.3382 124.391 83.3193 127.732C83.3099 129.403 83.3014 130.802 83.2946 131.794C83.2918 132.197 83.2892 132.51 83.2872 132.742C83.284 133.127 83.2827 133.288 83.2854 133.258M89.0472 46.938L83.2856 133.255C83.2856 133.256 83.2855 133.257 83.2854 133.258M89.0472 46.938C87.5503 47.9692 85.5043 49.2039 82.8059 50.2185C82.9179 50.2913 83.0249 50.3736 83.1257 50.4653C83.84 51.1148 84.1165 52.1174 83.836 53.0412C83.7813 53.2216 83.6703 53.4989 83.5218 53.8701C82.9861 55.2087 81.9619 57.7685 81.3219 61.4094L81.3188 61.427C81.226 61.9335 81.1232 63.5464 81.0437 65.1271C81.0204 65.5895 81.0023 65.9775 80.9866 66.3125C80.9757 66.5455 80.9661 66.7529 80.9567 66.942C80.9498 67.0803 80.9406 67.2671 80.929 67.4042V97.6171V128.17C80.929 128.153 82.1439 137.785 73.1396 145.306M89.0472 46.938L73.4035 52.1435C74.2398 52.0958 75.0435 52.0213 75.8156 51.9238L67.7278 55.2454L67.6957 55.2573C67.6592 55.2708 67.6105 55.2889 67.5519 55.3111C67.4344 55.3555 67.2797 55.4151 67.0938 55.4899C66.7225 55.6395 66.2282 55.8494 65.653 56.1224C64.5095 56.6651 63.0148 57.4718 61.5197 58.5711C58.593 60.723 55.2382 64.3317 55.2382 69.5958C55.2382 70.0214 55.2382 70.3618 55.2385 70.7021C55.2401 72.3936 55.2503 74.085 55.3129 86.2378C55.1531 86.2431 54.989 86.2483 54.8219 86.2534C53.253 86.3015 51.4894 86.3385 50.6449 86.3385C50.5799 86.3385 50.514 86.3384 50.4473 86.3384C48.524 86.3373 45.9178 86.3358 43.4689 87.2179C40.7494 88.1976 38.3675 90.1938 36.867 93.8266L36.8668 93.8271C35.7899 96.4361 35.3067 100.007 35.3603 103.48C35.4139 106.959 36.0115 110.698 37.382 113.62C38.5947 116.207 39.9074 117.827 41.04 118.833C41.6041 119.334 42.1131 119.673 42.5254 119.9C42.7309 120.013 42.9107 120.097 43.0593 120.159C43.1335 120.19 43.1998 120.215 43.2574 120.236C43.2862 120.246 43.3129 120.255 43.3372 120.263L43.3721 120.274L43.3882 120.279L43.396 120.282L43.3998 120.283C43.4016 120.284 43.4035 120.284 44.1241 117.89L43.4035 120.284C44.2983 120.553 45.2686 120.301 45.9191 119.63C46.5591 118.97 46.7843 118.013 46.5083 117.138C46.506 117.13 46.5012 117.111 46.4953 117.084C46.4795 117.011 46.4587 116.893 46.4499 116.747C46.4316 116.44 46.4728 116.132 46.6043 115.874C46.7382 115.611 47.5813 114.206 52.4855 114.396C52.5643 114.399 52.6431 114.398 52.7218 114.394C52.7102 114.395 52.752 114.395 52.8511 114.394C52.9749 114.394 53.1882 114.393 53.498 114.394C53.9869 114.395 54.6149 114.397 55.2379 114.4V146.771C55.2379 149.414 54.3893 151.068 53.639 152.043C53.2527 152.545 52.8727 152.891 52.6042 153.104C52.5012 153.186 52.4149 153.248 52.3514 153.291C52.2991 153.321 52.227 153.363 52.1506 153.413C52.15 153.414 52.1489 153.415 52.1474 153.416C52.1225 153.431 51.9796 153.523 51.811 153.675C51.7674 153.714 51.7157 153.763 51.6614 153.82L51.6614 153.82C51.6426 153.84 51.6237 153.861 51.605 153.882C50.7019 154.905 50.7855 156.463 51.793 157.383C52.6508 158.166 53.9085 158.241 54.8415 157.634C54.8653 157.619 54.8941 157.601 54.9274 157.58C54.9592 157.563 54.9994 157.542 55.0499 157.515C55.1199 157.479 55.2099 157.432 55.3151 157.377C55.5261 157.268 55.7979 157.127 56.0909 156.972C57.0074 156.488 58.3192 155.773 59.958 154.787C63.2351 152.814 67.8007 149.766 73.1396 145.306M83.2854 133.258C83.2756 133.387 83.2678 133.521 83.2598 133.659C83.215 134.425 83.1617 135.34 82.7159 136.509C82.207 137.844 81.1271 139.602 78.6468 141.388C78.6464 141.388 78.646 141.388 78.6456 141.389C77.5252 142.195 77.2704 143.757 78.0765 144.878C78.146 144.974 78.2211 145.064 78.3011 145.148C64.5277 149.952 52.9677 161.743 47.1581 170.382C46.2426 171.54 45.3693 173.017 44.7522 174.135C44.4266 174.725 44.1542 175.249 43.9627 175.626C43.8667 175.815 43.7906 175.968 43.7377 176.075C43.7112 176.129 43.6905 176.171 43.676 176.201L43.659 176.236L43.654 176.247L43.6525 176.25L43.6519 176.251L43.6517 176.251C43.6516 176.252 43.6515 176.252 45.9055 177.333L43.6515 176.252C43.168 177.26 43.4121 178.466 44.2494 179.206C45.0866 179.946 46.3135 180.041 47.2544 179.438L47.2547 179.438M83.2854 133.258L47.2547 179.438M47.2547 179.438L47.255 179.438L47.2594 179.435L47.2799 179.422L47.3672 179.367C47.4455 179.317 47.5635 179.243 47.7177 179.147C48.0261 178.955 48.4792 178.677 49.05 178.335C50.1925 177.651 51.801 176.716 53.6603 175.717C57.4267 173.693 62.0426 171.504 65.8666 170.513L65.867 170.513C71.0421 169.172 79.9372 168.237 88.6872 170.889C88.71 170.896 88.7329 170.902 88.7558 170.909C91.4175 171.633 95.972 173.824 100.063 175.969C102.062 177.018 103.882 178.018 105.201 178.757C105.861 179.126 106.394 179.429 106.762 179.639C106.946 179.744 107.088 179.826 107.184 179.881L107.292 179.944L107.319 179.959L107.325 179.963L107.327 179.964L107.327 179.964C108.436 180.608 109.854 180.309 110.607 179.27L120.565 165.537L120.624 165.461C120.677 165.392 120.756 165.29 120.857 165.16C121.06 164.901 121.349 164.53 121.698 164.088C122.396 163.202 123.326 162.034 124.262 160.897C124.569 160.522 124.874 160.156 125.168 159.806C125.674 161.239 126.284 162.816 127.015 164.399C128.489 167.592 130.567 171.066 133.506 173.43L133.507 173.43C137.794 176.876 141.964 178.317 145.112 178.88C146.68 179.161 147.989 179.223 148.927 179.212C149.397 179.206 149.775 179.182 150.049 179.157C150.185 179.145 150.296 179.132 150.379 179.122C150.421 179.117 150.455 179.112 150.483 179.108L150.519 179.103L150.533 179.101L150.539 179.1L150.541 179.099C150.543 179.099 150.544 179.099 150.15 176.63M47.2547 179.438L145.218 122.287C145.269 122.456 145.746 124.291 146.414 126.855C146.957 128.945 147.627 131.519 148.295 134.071C149.05 136.952 149.812 139.846 150.414 142.083C150.715 143.203 150.973 144.151 151.17 144.847C151.298 145.301 151.38 145.579 151.424 145.724C151.458 145.837 151.467 145.869 151.455 145.841L151.455 145.842C152.43 148.108 152.973 149.276 153.56 150.063C154.023 150.683 154.544 151.104 155.713 151.563C157.285 152.178 158.626 152.033 163.192 149.607C164.19 149.077 165.421 149.282 166.192 150.109C166.964 150.936 167.085 152.177 166.487 153.137L164.365 151.815L166.487 153.137L166.486 153.137L166.486 153.138L166.482 153.144L166.469 153.165L166.417 153.249L166.216 153.572C166.042 153.852 165.791 154.257 165.485 154.752C164.872 155.742 164.037 157.095 163.148 158.548C161.353 161.482 159.39 164.737 158.557 166.275L158.556 166.276C157.577 168.082 156.027 170.964 154.72 173.398C154.067 174.615 153.475 175.718 153.047 176.517L152.539 177.463L152.401 177.721L152.366 177.788L152.356 177.805L152.354 177.809L152.354 177.81L152.353 177.81L150.15 176.63M150.15 176.63L150.544 179.099C151.315 178.976 151.985 178.499 152.353 177.811L150.15 176.63ZM73.1396 145.306L71.5369 143.387L73.1396 145.306ZM53.8551 45.0889C54.1272 45.1589 54.381 45.23 54.6136 45.2993C54.261 46.3013 54.2958 47.3684 54.6431 47.7967C54.7678 47.8929 54.95 48.0128 55.0024 48.0432C55.0701 48.0815 55.1264 48.1088 55.1344 48.1127L55.1351 48.113C55.1533 48.1219 55.1677 48.1286 55.1747 48.1319C55.1895 48.1387 55.2007 48.1438 55.2049 48.1456L55.2111 48.1486C55.2095 48.1479 55.2078 48.1472 55.206 48.1464C54.0443 47.6253 53.4563 46.3056 53.8551 45.0889ZM119.829 149.794C119.844 149.8 119.872 149.812 119.905 149.826C120.428 150.013 120.96 150.194 121.503 150.375C121.499 150.36 121.494 150.345 121.49 150.33C121.186 149.297 120.793 147.85 120.367 146.078L120.367 146.078C119.798 143.71 119.293 139.766 119.259 139.413L119.259 139.406C119.26 139.425 119.236 139.276 119.187 138.968C119.131 138.622 119.043 138.077 118.923 137.347C118.713 136.063 118.432 134.364 118.141 132.632C117.548 129.093 116.947 125.609 116.809 125.025C116.796 124.968 116.785 124.91 116.775 124.852C116.553 123.485 115.912 120.905 115.032 118.204C114.139 115.468 113.092 112.895 112.133 111.407C112.085 111.332 112.04 111.254 112 111.174C111.879 110.933 111.491 110.429 110.845 109.838C110.67 109.678 110.495 109.53 110.327 109.394L110.22 112.754L110.238 122.823V122.827C110.238 124.074 109.994 129.43 105.854 132.901C100.979 138.083 93.8045 141.66 90.8878 142.924C92.1706 142.891 93.5778 142.91 95.1505 142.997L95.1507 142.997C99.8578 143.26 106.281 145.08 111.253 146.707C113.782 147.534 116.012 148.339 117.572 148.922C118.352 149.214 118.968 149.452 119.373 149.611C119.573 149.69 119.728 149.753 119.829 149.794ZM127.148 68.3554C127.176 67.7203 127.138 66.8621 127.003 64.5169C126.981 64.2409 126.96 63.8908 126.935 63.4771C126.793 61.1185 126.526 56.6918 125.344 52.1303C124.037 47.0816 121.799 42.649 118.102 40.564C118.053 40.5923 118.002 40.6216 117.95 40.6519C117.188 41.097 116.159 41.7383 115.087 42.5241C112.95 44.0917 111.104 45.9059 110.397 47.5962L110.22 73.9702V73.9709V73.974V73.9864L110.22 74.0356L110.22 74.2279L110.221 74.9616C110.221 75.5957 110.222 76.5057 110.223 77.6094C110.226 79.8169 110.231 82.7983 110.243 85.8948C110.26 90.7004 110.291 95.7112 110.344 98.5706C111.796 97.9873 113.886 96.7062 116.123 94.5938C120.764 90.2117 125.76 82.5073 126.794 71.0525C126.798 71.0093 126.803 70.9663 126.809 70.9233C126.88 70.4305 126.936 70.0573 126.982 69.7583C127.083 69.0902 127.128 68.7919 127.148 68.3554Z" fill="#00205B" stroke="white" stroke-width="5" stroke-linejoin="round"/>
</svg>
