<svg width="200" height="201" viewBox="0 0 200 201" fill="none" xmlns="http://www.w3.org/2000/svg">
<g clip-path="url(#clip0_15016_302943)">
<path d="M171.749 116.366C170.841 114.797 169.586 112.779 169.586 112.779L167.379 110.715L166.177 107.743C166.177 107.743 165.207 106.006 163.627 105.23C162.047 104.456 159.734 103.179 159.734 103.179C159.734 103.179 158.427 101.556 157.118 99.3725C155.81 97.1876 154.396 96.3549 154.396 96.3549L152.707 95.8041L149.429 93.9153L148.969 92.5702L145.388 91.2089L146.499 90.0992L142.302 88.456L139.154 88.5904C139.154 88.5904 139.709 87.4606 137.793 86.8006C135.872 86.1397 133.515 86.3813 133.515 86.3813C133.515 86.3813 132.887 85.0927 130.299 85.2241C127.712 85.3555 123.112 86.738 123.112 86.738L121.305 85.8507L113.831 88.544C113.831 88.544 113.921 87.6789 116.054 86.7653C118.183 85.8507 120.103 82.8775 121.166 82.1397C122.23 81.401 122.61 79.204 122.61 79.204C122.61 79.204 124.461 78.5723 125.626 76.4824C126.791 74.3935 128.276 72.9867 128.276 72.9867L126.831 72.3127L128.506 70.6128C128.506 70.6128 129.115 69.0899 129.444 67.8509C129.77 66.6119 131.002 65.8145 131.002 65.8145L132.56 63.2152C132.56 63.2152 131.986 61.5326 131.317 62.3239C130.646 63.1182 130.78 61.7276 130.78 61.7276L132.416 58.9424L133.832 56.9859L135.387 53.4305L133.387 54.5422C133.387 54.5422 133.999 52.5756 133.824 51.5084C133.649 50.4392 133.814 49.8197 133.973 48.6393C134.133 47.4549 133.277 46.0562 133.277 46.0562L134.051 43.9137L133.986 42.6202L133.137 41.7823L132.036 37.46L132.463 34.306L132.218 31.3853L131.977 29.0225L132.247 27.6147L131.668 25.3702L130.928 24.306L131.016 23.5652C131.016 23.5652 130.943 22.3182 129.165 22.0958C129.884 21.1176 128.984 19.7078 128.984 19.7078L126.273 14.0868L125.562 15.7442L125.538 17.8766L126.064 20.5173L126.018 22.0352C126.018 22.0352 125.186 23.448 125.646 24.7952C126.105 26.1413 127.58 29.5116 127.58 29.5116C127.579 29.5116 126.856 30.6981 126.934 33.1165C127.005 35.5338 127.772 39.2903 127.772 39.2903L127.914 43.0012L128.546 46.0966C128.546 46.0966 127.192 45.9946 127.546 48.128C127.9 50.2644 127.832 52.3189 127.832 52.3189C127.832 52.3189 126.217 53.7438 125.772 54.6463C125.331 55.5498 124.974 58.2147 124.974 58.2147C124.974 58.2147 123.077 58.5594 123.487 60.8625C123.896 63.1667 123.114 63.6205 123.114 63.6205L120.938 66.055C120.938 66.055 120.828 67.9681 120.498 69.2091C120.168 70.4481 118.276 73.4314 118.276 73.4314C118.276 73.4314 116.873 73.7215 116.485 74.7937C116.102 75.8649 116.105 76.4268 116.105 76.4268C116.105 76.4268 115.199 75.4202 114.535 76.7765C113.866 78.1297 113.316 79.8235 113.316 79.8235C113.316 79.8235 112.022 79.8881 111.302 81.0736C110.575 82.26 108.72 82.543 108.72 82.543L110.497 79.6536L110.163 77.4384L109.756 75.6962L111.298 72.0923C111.298 72.0923 111.071 70.7391 111.011 70.0075C110.948 69.2768 112.497 67.6538 112.497 67.6538C112.497 67.6538 112.051 65.8943 111.811 64.0975C111.574 62.2986 111.45 60.8373 111.45 60.8373C111.45 60.8373 111.672 56.7171 111.386 55.8742C111.099 55.0334 110.859 56.905 110.859 56.905L110.227 55.0526L109.649 52.8071L108.115 50.5119L108.72 48.4271L107.638 46.9152L106.547 43.7187C106.547 43.7187 107.151 41.6328 106.244 40.6262C105.333 39.6217 104.602 39.1195 104.602 39.1195C104.602 39.1195 104.535 37.8269 104.073 35.9178C103.607 34.0078 103.319 33.168 102.472 32.3292C101.623 31.4924 100.493 30.9376 100.493 30.9376L98.6055 26.5071L98.5923 25.3328C98.5923 25.3328 98.5853 24.8042 97.1158 23.8017C95.6444 22.8012 94.8036 21.9806 94.8036 21.9806C94.8036 21.9806 94.9632 20.7972 93.9425 19.4552C92.9208 18.1111 91.6273 18.1777 91.6273 18.1777L90.8158 16.3657C90.8158 16.3657 90.6136 14.0828 89.3858 13.8736C88.7188 14.9842 87.8496 12.3688 87.8496 12.3688L85.8719 10.9772C85.8719 10.9772 86.4287 10.4103 85.2382 9.12579C84.0498 7.8403 82.0164 6.8428 82.0164 6.8428C82.0164 6.8428 80.1499 5.22488 79.5829 4.66702C79.017 4.10815 77.7972 3.41586 77.7972 3.41586C77.7972 3.41586 75.5597 3.35121 75.9023 4.36182C76.2469 5.37141 76.2095 4.69125 77.112 5.1339C78.0145 5.57755 79.8699 8.71646 79.8699 8.71646L82.6652 10.9428L82.8461 12.0545C82.8461 12.0545 82.8744 13.4592 83.497 14.1869C84.1225 14.9135 84.4712 16.486 85.0371 17.0439C85.6051 17.6037 86.5581 17.6532 86.5581 17.6532C86.5581 17.6532 87.5636 19.3137 88.36 20.5446C89.1574 21.7765 89.6111 22.5607 90.6328 23.9028C91.6566 25.2459 92.1871 25.8795 92.1871 25.8795L93.1533 27.0529C93.1533 27.0529 92.7632 27.5622 93.4453 28.4576C94.1255 29.3509 94.7531 30.6415 94.7531 30.6415C94.7531 30.6415 95.1563 31.8188 96.0598 32.2625C96.9622 32.7061 96.9127 33.6622 96.9127 33.6622C96.9127 33.6622 97.1987 34.505 98.1103 36.0725C99.0229 37.6409 99.9961 39.94 99.9961 39.94C99.9961 39.94 98.2598 38.9719 98.7187 40.319C99.1805 41.6641 101.388 44.4261 101.388 44.4261L101.86 45.846C101.86 45.846 101.573 47.8581 101.974 49.0375C102.374 50.2158 103.451 51.1628 103.451 51.1628L104.033 53.9713C104.033 53.9713 103.306 54.5968 103.427 55.4952C103.544 56.3947 104.227 57.4649 104.227 57.4649V59.8327C104.227 59.8327 103.635 61.0616 103.921 61.9044C104.207 62.7453 104.353 62.7675 104.702 64.339C105.051 65.9115 104.298 67.4132 104.298 67.4132C104.298 67.4132 103.121 67.8145 103.071 68.7725C103.023 69.7275 103.203 71.3587 103.203 71.3587C103.203 71.3587 103.099 72.7088 102.995 73.4971C102.886 74.2843 103.338 74.5056 102.669 75.298C101.998 76.0903 102.004 76.6532 102.406 77.8306C102.807 79.0099 102.241 80.0387 102.241 80.0387C102.241 80.0387 101.713 79.1403 100.864 77.7962C99.9556 76.3561 97.4503 75.4253 97.4503 75.4253L98.4407 73.9226L99.1633 72.0974L99.1421 69.9246L99.3038 68.7422L98.7894 67.7902L97.5605 63.9337C97.5605 63.9337 95.9567 63.0363 95.3392 62.6008C93.4494 61.2678 93.7839 63.4901 93.7839 63.4901L94.8935 64.6008C94.8935 64.6008 95.4878 65.6366 95.3857 66.9868C95.2826 68.3369 94.9228 67.9742 95.608 69.4304C96.2932 70.8887 93.9991 74.1236 93.9991 74.1236C93.9991 74.1236 93.1967 72.9685 91.2877 73.4334C89.3777 73.8983 89.4858 75.5193 89.4858 75.5193L88.0386 74.2793L85.8294 72.7644C85.8294 72.7644 85.6718 70.8241 85.2746 70.2086C84.8775 69.5932 84.9533 68.4219 84.9533 68.4219L85.1756 65.3102L83.6637 65.4487C83.6637 65.4476 82.4419 67.2141 82.1084 67.8923C81.7769 68.5694 81.9255 69.0373 82.0437 69.9357C82.164 70.8342 82.739 72.5178 82.739 72.5178L82.2378 73.2525C82.2378 73.2525 82.6966 74.5976 83.6617 75.773C84.6248 76.9473 85.9416 77.9862 85.9416 77.9862L86.3853 79.3202C86.3853 79.3202 85.601 80.735 84.9411 82.6531C84.2792 84.5702 85.1786 86.5419 84.2741 86.0983C83.3707 85.6556 81.8669 84.2782 81.8669 84.2782L80.6673 81.8689C80.6673 81.8689 80.9967 80.6299 79.9215 79.681C78.8462 78.733 77.9437 78.2884 77.9437 78.2884C77.9437 78.2884 78.0488 77.5011 77.0908 76.8897C76.1287 76.2772 74.9473 76.1176 74.9473 76.1176C74.9473 76.1176 75.4425 74.8199 74.5946 73.9821C73.7447 73.1444 73.1231 72.9797 73.1231 72.9797L71.7528 70.0661C71.7528 70.0661 70.8978 68.1773 70.1004 66.9443C69.3011 65.7134 69.5153 64.0641 69.5153 64.0641L68.5401 61.2011C68.5401 61.2011 69.1464 59.6792 68.5138 57.8287C67.8812 55.9773 66.245 55.0324 66.245 55.0324C66.245 55.0324 67.1313 53.2264 66.7311 52.0471C66.3289 50.8697 65.1333 49.0213 65.1333 49.0213L64.8261 45.368L65.1192 43.4782C65.1192 43.4782 65.5214 42.2816 65.1192 41.1032C64.717 39.9249 64.2137 38.6222 64.2137 38.6222L64.2561 36.5424L64.527 35.1347L63.4527 34.1857L63.3284 32.7244C63.3284 32.7244 63.9439 32.3262 63.5912 30.1908C63.2395 28.0554 61.765 26.493 61.765 26.493L61.575 23.7391L62.2935 21.9887C62.2935 21.9887 61.3678 19.9483 62.0328 18.5941C62.6978 17.2399 62.2208 17.057 62.2693 16.0999C62.3198 15.1429 62.9888 13.0156 62.9888 13.0156C62.9888 13.0156 64.5421 9.13487 61.5598 11.5947L60.6129 14.4345L59.861 16.6416L59.5174 18.9903L59.0899 22.1433L57.7711 25.4601L58.718 27.8351L58.9303 31.2186L58.7979 33.7693L59.5599 35.263L58.6028 37.5944L57.6064 36.984L59.1597 42.1654L59.1758 44.415L59.6407 46.511L60.1804 48.8323L60.4229 51.0051L60.0662 53.6327L60.4957 56.7635L61.5598 61.0162L60.052 60.5412L62.052 63.6528L62.9888 66.9433L63.8478 68.3804L64.6088 69.8731L65.3648 70.6179L65.6053 72.7907L66.4471 75.2585L68.6371 77.2686L69.4698 78.2378L69.6335 80.1863L70.3935 81.681L71.3839 83.8477L72.3632 84.5167L72.823 85.8628L74.0377 87.9537L76.446 89.1362L78.2742 92.0982L75.8295 92.3195L73.6072 92.0982L70.0509 90.7653L69.6184 92.075L67.0141 90.645L65.1384 91.2423C65.1384 91.2423 64.3784 89.7476 63.096 88.931C61.8155 88.1175 60.9161 88.4237 60.9161 88.4237L60.4755 89.3262L56.0197 85.0846L54.9222 86.3833C54.9222 86.3833 53.9126 84.0498 53.0859 83.8305C52.2593 83.6112 48.9495 81.9841 48.9495 81.9841C48.9495 81.9841 49.0142 80.7097 47.7277 79.1453C46.4422 77.5779 44.7 75.4182 44.7 75.4182L43.558 72.7988C43.558 72.7988 42.3473 71.4587 41.2205 71.0918C40.0906 70.726 40.3837 69.3728 40.3008 68.3996C40.22 67.4244 38.4949 63.2071 38.4949 63.2071L37.7218 64.5179L36.8153 63.3244L37.0346 62.4977L35.9724 60.8555L34.8385 59.7387L34.1493 57.7186L33.0103 55.853L31.4136 52.6393L30.2726 51.3002C30.2726 51.3002 30.8002 50.8454 30.4939 49.946C30.1877 49.0496 29.4823 47.0082 27.9048 46.794C26.3303 46.5807 27.262 49.2952 27.262 49.2952L27.4318 51.0627L28.4192 53.4104L28.8083 55.283L30.7931 60.3684L30.4313 62.246C30.4313 62.246 31.2701 63.9641 32.1726 64.4077C33.075 64.8503 33.6056 65.672 33.6056 65.672L34.4383 66.6412L34.1533 68.7432C34.1533 68.7432 34.69 70.3137 35.1437 70.9109C35.5995 71.5072 36.1291 72.3288 36.1291 72.3288L37.4145 73.8942L38.4716 74.7866L39.4671 77.7042L40.8314 79.493L42.9476 82.0286C42.9476 82.0286 44.0764 82.3954 44.0815 83.1453C44.0855 83.8952 42.4948 83.6526 42.4948 83.6526C42.4948 83.6526 44.3998 85.5425 45.7561 86.5834C47.1133 87.6243 48.9354 90.7592 48.9354 90.7592L49.7641 90.9775L50.901 92.844L52.5584 94.0325L57.377 96.3974L58.5745 96.2386C58.5745 96.2386 58.5523 97.705 59.9035 97.9941C61.2546 98.2841 63.6983 98.4751 63.6983 98.4751L65.8296 99.1856C65.8296 99.1856 66.7493 100.452 67.7245 100.37C68.6997 100.287 71.2839 99.896 71.2839 99.896L76.4965 99.8758L69.3819 103.448L68.9079 105.105L66.0661 107.244C66.0661 107.244 64.2147 109.097 63.9974 109.922C63.7791 110.75 62.8868 111.806 62.8868 111.806L61.1728 113.393L59.5306 114.456L57.9702 116.492L55.1587 119.328C53.6064 119.655 55.0041 121.013 54.3361 121.992C53.6681 122.971 51.3578 125.014 50.3887 125.845C49.4195 126.677 49.5741 127.126 49.8035 127.799L50.0329 128.471L49.0698 130.053L49.5286 131.399L49.6105 132.376C49.6105 132.376 48.8727 133.882 48.4291 134.785C47.9854 135.684 46.7212 137.121 46.7212 137.121C46.7212 137.121 46.4311 138.472 46.7373 139.37C47.0425 140.268 47.6469 140.563 47.6469 140.563L46.4564 142.221C46.4564 142.221 46.0138 143.123 46.6221 144.17C47.2285 145.215 47.4589 145.89 47.4589 145.89C47.4589 145.89 46.8778 148.594 46.2806 149.047C45.6853 149.501 46.4402 150.246 46.1502 151.598C45.8601 152.95 45.3619 156.629 45.3619 156.629C45.3619 156.629 45.0709 157.979 45.3781 158.877C45.6843 159.775 47.2113 163.514 47.7095 159.836C48.2068 156.158 47.6004 155.112 47.6004 155.112L48.6342 153.006L49.2386 150.859C49.2386 150.859 50.7909 150.513 51.2345 149.612C51.6782 148.707 50.4584 145.867 51.3447 144.061C52.232 142.254 53.1961 140.672 53.1961 140.672L54.1511 138.341L53.8358 135.943C53.8358 135.943 54.8019 134.363 55.6923 133.306C56.5857 132.249 57.2456 130.52 57.2456 130.52C57.2456 130.52 58.5998 130.81 58.7403 129.759C58.8828 128.707 59.2274 124.581 59.2274 124.581C59.2274 124.581 60.3502 126.412 60.9403 125.21C61.5315 124.004 62.3532 121.259 63.3284 121.176C64.3026 121.094 65.8731 120.558 66.6836 118.527C67.4951 116.498 67.6416 116.196 68.4683 116.415C69.295 116.634 70.1025 114.844 71.3839 112.765C73.0423 110.078 74.9412 110.319 74.9412 110.319L80.7178 106.543C80.7178 106.543 79.016 109.182 78.0518 110.765C77.0877 112.346 75.8659 112.406 75.1625 114.986C77.6446 114.184 73.4324 118.479 73.4374 119.228C73.4445 119.979 71.8235 124.038 71.8235 124.038C71.8235 124.038 71.0777 124.795 71.4627 125.918C71.8458 127.041 71.9266 128.014 71.9266 128.014L70.0873 132.903C70.0873 132.903 69.868 133.729 69.8741 134.479C69.8801 135.227 70.1853 136.126 70.1853 136.126L69.676 138.305C69.676 138.305 68.8614 139.585 69.0191 140.783C69.1778 141.983 69.8629 143.252 69.8629 143.252C69.8629 143.252 69.7255 145.053 69.8074 146.03C69.8912 147.003 70.4168 148.212 70.4168 148.212L69.771 152.192L69.4203 155.568C69.4203 155.568 68.917 156.761 70.0509 157.878C71.1828 158.993 71.2465 159.456 71.2465 159.456L71.3839 162.101C72.4956 163.434 73.3566 165.291 72.2025 166.258L73.3536 169.625L74.7149 171.414L74.4955 175.212L75.8295 173.656L76.6411 178.523L77.6304 180.692L79.3666 182.105L79.1544 183.681L80.2145 185.322L81.1938 185.992C81.1938 185.992 81.5778 187.113 81.8851 188.01C82.1903 188.91 82.8744 190.178 82.8744 190.178L83.6395 192.424L84.2499 193.467L85.6051 194.51L85.9881 195.63C85.9881 195.63 86.5995 197.425 87.1321 198.248C87.6637 199.067 88.5348 199.765 88.5348 199.765L91.7859 203.415C91.7859 203.415 95.4574 203.164 93.4928 201.079C91.5272 198.994 89.5697 197.657 89.5697 197.657L89.8911 196.053L89.509 194.931L88.8249 193.66L87.5374 192.095L87.7577 191.267L86.454 187.453L85.6223 186.485L83.9427 182.296L83.2635 181.775L81.6435 175.565C81.6435 175.565 82.8482 176.155 82.1589 174.135C81.4687 172.117 80.7855 170.846 80.7855 170.846C80.7855 170.846 79.111 167.407 79.1777 166.132C79.2433 164.857 80.0528 162.826 79.4394 161.031C78.827 159.236 78.0609 156.991 78.0609 156.991C78.0609 156.991 79.7618 158.707 79.8295 157.434C79.8952 156.157 77.7931 151.069 77.7931 151.069L78.4551 149.34C78.4551 149.34 80.2469 147.975 78.9584 146.411C78.4227 145.76 78.1762 145.536 78.068 145.489L78.1964 144.541L78.2378 142.46L78.6714 140.432L79.5091 139.582L79.7234 138.006L80.5076 137.552L80.3237 135.36L80.7188 132.545L81.6072 129.21L82.4965 126.988L82.7168 124.205C82.7168 124.205 83.6738 124.255 83.7759 122.905C83.88 121.554 84.6905 118.574 84.6905 118.574L86.078 116.275C85.8294 116.988 87.1058 118.106 87.4504 119.119C87.7941 120.126 88.4307 121.034 88.4307 121.034L88.7804 122.7C88.7804 122.7 90.4085 124.594 91.027 124.759C91.6475 124.923 91.8193 126.212 92.4964 126.543C93.1735 126.879 94.0426 127.994 94.0426 127.994L96.0173 127.935C96.0173 127.935 96.1376 128.834 97.2644 129.388C98.3942 129.942 99.4574 129.202 99.4574 129.202C99.4574 129.202 100.031 130.853 100.985 130.902C101.941 130.951 103.83 132.1 103.83 132.1L106.425 132.263L110.72 130.988C112.29 130.556 113.609 128.321 113.609 128.321L113.831 127.004L115.831 125.654L116.288 123.652L116.959 122.084L118.053 120.099L118.785 117.429C118.785 117.429 119.394 114.336 119.387 113.21C119.377 112.086 118.617 111.005 118.72 109.654C118.825 108.302 118.154 106.471 119.165 106.688C120.18 106.906 121.095 106.803 121.836 107.867C122.574 108.93 123.155 108.334 123.666 109.288C124.182 110.239 125.584 109.949 125.584 109.949L127.292 112.747C127.292 112.747 128.368 113.697 128.989 113.858C129.607 114.025 130.124 115.539 130.124 115.539C130.124 115.539 131.249 115.531 131.638 115.023C132.031 114.513 132.821 115.182 132.821 115.182C132.821 115.182 132.997 116.25 133.791 116.919C134.583 117.589 135.991 117.86 135.991 117.86C135.991 117.86 136.622 119.712 136.965 120.158C137.302 120.606 137.759 121.389 138.605 121.664C139.451 121.939 139.9 121.598 139.9 121.598C139.9 121.598 140.36 123.509 140.988 124.234C141.611 124.963 142.745 126.079 142.745 126.079C142.745 126.079 143.146 127.256 143.763 127.421L144.386 127.583L145.753 129.938C145.753 129.938 146.599 130.211 146.828 130.885C147.058 131.558 148.655 134.584 149.114 135.932C149.575 137.277 149.534 139.359 149.534 139.359C149.534 139.359 150.841 141.543 150.961 142.442C151.078 143.342 150.133 144.979 150.133 144.979C150.133 144.979 150.878 146.604 151.165 147.446C151.452 148.289 151.634 149.918 151.634 149.918C151.634 149.918 150.458 150.882 150.635 151.949C150.811 153.017 151.33 154.532 151.33 154.532C151.33 154.532 150.893 156.559 151.289 157.176C151.69 157.792 153.158 158.794 153.158 158.794C153.158 158.794 152.279 161.162 152.677 162.34C153.081 163.517 153.546 165.428 153.546 165.428L154.297 168.177L153.804 170.037L153.474 171.277L154.176 174.984L153.507 175.777L153.08 178.928L153.604 181.569L152.951 184.611C152.951 184.611 152.739 186.188 153.976 186.517C155.217 186.845 155.547 185.605 155.705 184.423C155.866 183.241 156.409 180.424 156.409 180.424L157.285 176.93L156.766 175.416L157.217 167.933L156.755 166.024L157.307 164.895L156.501 161.977L158.055 162.101L156.639 157.418L155.943 154.837C155.943 154.837 157.684 154.43 157.448 153.195L156.584 150.108L156.117 147.636L155.655 146.289L155.931 145.444L155.808 143.983L156.138 142.742L155.904 141.507L156.282 139.312L154.973 137.127L154.049 133.87L153.312 133.37L153.643 132.131L153.121 130.052L152.054 128.543L153.388 127.877C152.499 126.987 152.054 124.32 151.05 123.431C149.352 121.928 148.275 120.808 148.275 120.808C148.275 120.808 147.935 120.359 147.646 119.518C147.358 118.677 147.694 118.564 146.73 117.388C145.763 116.214 145.262 116.386 145.262 116.386L145.083 115.32C145.083 115.32 145.243 114.136 144.113 113.02C142.979 111.902 142.017 111.292 142.017 111.292L141.214 108.936L137.707 106.373C137.707 106.373 138.878 104.846 136.902 104.016C134.929 103.188 132.844 102.584 132.844 102.584L131.432 101.749C131.432 101.749 132.153 100.563 130.067 99.9607C127.982 99.3564 127.421 99.3604 127.421 99.3604L126.289 98.2437C126.289 98.2437 126.448 98.9713 124.643 98.084C122.835 97.1977 121.165 96.7652 121.165 96.7652C119.387 96.5418 116.383 95.7364 118.55 95.5212C118.55 95.5212 120.068 93.789 122.712 93.8264C125.355 93.8648 126.361 92.9552 126.361 92.9552L128.555 92.7733L130.129 92.9845C130.129 92.9845 131.543 93.8193 132.388 94.0941C133.232 94.369 134.848 95.1462 135.523 94.9148C136.193 94.6853 137.402 95.0138 137.402 95.0138C137.402 95.0138 139.485 95.6181 140.389 96.0628C141.291 96.5064 142.022 96.4448 142.754 96.3811L143.484 96.3195L146.476 97.9284L148.128 100.561L149.362 100.327L151.242 103.632L153.44 104.009L154.963 104.617C154.963 104.617 155.249 105.458 156.382 106.575C157.515 107.693 158.867 107.796 158.867 107.796L160.119 109.811C160.119 109.81 160.635 111.327 161.478 111.039L162.319 110.751L164.916 112.307C164.916 112.307 165.04 113.769 166.115 114.719C167.19 115.665 167.581 115.157 167.581 115.157C167.581 115.157 168.443 117.681 168.782 118.128C169.125 118.577 170.822 122 171.834 121.655C172.842 121.31 172.66 117.933 171.749 116.366Z" fill="#C32032"/>
</g>
<defs>
<clipPath id="clip0_15016_302943">
<rect width="200" height="200" fill="white" transform="translate(0 0.507812)"/>
</clipPath>
</defs>
</svg>
