<svg width="201" height="201" viewBox="0 0 201 201" fill="none" xmlns="http://www.w3.org/2000/svg">
<path d="M157.56 139.135H169.571V161.275H105.849V139.135H115.328H116.234L115.751 138.369L97.4173 109.257L97.2702 109.023H96.9942H82.4044H81.9044V109.523V138.635V139.135H82.4044H91.4094V161.275H32.1543V139.135H40.8549H41.3549V138.635V62.6146V62.1146H40.8549H32.1543V39.9668H113.879C127.826 39.9668 139.036 43.3659 147.263 50.0431C155.279 56.6431 159.138 64.5748 159.138 74.3196C159.138 81.0388 157.12 86.9018 153.121 91.8976C149.117 96.9007 143.104 101.06 135.077 104.322L134.513 104.551L134.848 105.06L157.142 138.91L157.29 139.135H157.56ZM82.4011 62.1135H81.901L81.9011 62.6135L81.9013 87.2297L81.9013 87.7297H82.4013H96.7941C104.034 87.7297 109.643 86.3006 113.35 83.3991L113.359 83.3924L113.367 83.3852C116.234 80.9313 117.67 78.1012 117.693 74.7418C117.737 73.294 117.481 71.8528 116.941 70.5087L116.941 70.5086C116.401 69.1637 115.587 67.9449 114.552 66.93C114.552 66.9293 114.551 66.9287 114.55 66.928L114.512 66.8898C114.511 66.8889 114.51 66.888 114.509 66.887C111.412 63.6934 106.787 62.1135 100.856 62.1135H82.4011Z" fill="black" stroke="black"/>
<path d="M129.67 102.95L130.256 102.73L132.205 101.999L129.67 102.95ZM129.67 102.95L130.014 103.473M129.67 102.95L130.014 103.473M130.014 103.473L155.43 142.088L155.578 142.313H155.848H166.383M130.014 103.473L166.383 142.313M166.383 142.313V158.082H109.029V142.313H121.068H121.973L121.491 141.547L99.1499 106.051L99.0028 105.818H98.7268H79.1952H78.6952V106.318V141.813V142.313H79.1952H88.2277V158.082H35.3447V142.313H44.0453H44.5453V141.813V59.4229V58.9229H44.0453H35.3447V43.1196H113.859C127.057 43.1196 137.596 46.2891 145.233 52.4845C152.444 58.4288 155.929 65.5479 155.929 74.29C155.929 80.6095 154 86.0135 150.093 90.5926C146.176 95.1817 140.248 98.9703 132.206 101.999L166.383 142.313ZM115.357 85.8583L115.967 85.3514L115.946 85.3419C119.191 82.3852 120.863 78.8157 120.871 74.736C120.916 72.8666 120.576 71.0079 119.873 69.2748C119.171 67.5423 118.12 65.9724 116.786 64.6626C113.098 60.8372 107.719 58.9224 100.86 58.9224H79.1959H78.6959V59.4224V90.4092V90.9092H79.1959H96.7509C104.757 90.9092 111.018 89.247 115.304 85.9018L115.31 85.8971L115.316 85.8922L115.357 85.8583Z" fill="#CC0033" stroke="black"/>
</svg>
