<svg width="200" height="201" viewBox="0 0 200 201" fill="none" xmlns="http://www.w3.org/2000/svg">
<path d="M199.996 61.1101H188.171L188.175 61.0991H74.445L72.7048 66.153L67.5526 61.0991H40.1423L19.1474 73.5881L9.5991 101.318L13.4122 104.546H7.88176L0 127.435L13.9637 140.447H42.1673L48.3385 136.918L47.1228 140.447H109.829L111.588 135.341L118.239 140.447H142.762L165.053 128.26L185.157 69.8737H197.048L200 61.1104" fill="#B2B1B1"/>
<path d="M40.6476 62.9512L20.6759 74.8334L11.7605 100.722L18.4642 106.399H9.19966L2.1416 126.9L14.6892 138.594H41.6722L51.6916 132.864L49.7179 138.594H108.504L110.672 132.303L118.867 138.594H142.285L163.532 126.978L185.577 62.9513H134.551H75.7643L73.4993 69.5304L66.7925 62.9513H40.649L40.6476 62.9512ZM187.519 63.1827L187.26 63.9293H188.705L187.408 67.697H188.304L189.601 63.9293H191.045L191.302 63.1827H187.519ZM191.9 63.1827L190.014 67.697H190.877L191.956 65.0413C192.115 64.6266 192.282 64.1948 192.425 63.7796H192.474C192.436 64.178 192.387 64.7088 192.349 65.0571L192.277 67.6292H193.206L194.882 65.1248C195.157 64.7097 195.473 64.178 195.726 63.7796H195.775C195.627 64.2608 195.479 64.6926 195.375 65.0413L194.627 67.697H195.523L196.728 63.1827H195.435L193.888 65.4067C193.675 65.7387 193.444 66.1198 193.186 66.5345H193.168C193.212 66.07 193.244 65.7377 193.264 65.3894L193.244 63.1827H191.9Z" fill="#3C3C3C"/>
<path d="M56.4073 92.2993H68.498L65.7156 100.378L56.4073 92.2993ZM130.731 65.7852H77.628L74.409 75.1326L64.8839 65.7852H40.6158L23.0251 76.2479L15.1296 99.1813L27.0036 109.234H11.0621L5.48828 125.421L16.5689 135.747H41.7403L56.4298 127.345L53.5365 135.747H106.639L109.566 127.247L120.637 135.747H142.391L161.21 125.46L181.757 65.7854H130.728" fill="white"/>
<path d="M40.582 68.5933L25.3417 77.6594L18.4475 97.6787L29.0523 106.654L41.0136 107.46L36.438 120.746H32.0781L35.0772 112.039H12.8982L8.78711 123.979L18.4202 132.955H41.8105L57.504 123.979L64.4895 103.691L54.0387 94.6247L41.3831 93.7269L45.8327 80.8003H50.1942L47.1968 89.5091H68.1645L72.244 77.6599L63.0029 68.5938H40.5827L40.582 68.5933ZM79.4618 68.5933L57.3005 132.955H78.8699L87.9884 106.476H92.3515L83.233 132.955H104.807L126.968 68.5933H105.396L96.5547 94.2658H92.1917L101.031 68.5933H79.4618ZM129.763 68.5933L110.692 123.979L122.387 132.955H142.505L158.925 123.979L177.996 68.5933H156.424L138.466 120.746H133.982L151.941 68.5933H129.763Z" fill="#CD1041"/>
<path d="M40.5551 71.0515L27.3761 78.8908L21.3656 96.3472L22.8824 97.6325L28.6631 80.8495L41.8405 73.0117H63.3485L61.3497 71.0508L40.5551 71.0515ZM81.0745 71.0515L60.6043 130.496H62.5653L82.3596 73.0128H97.0508L97.7249 71.0518L81.0745 71.0515ZM107.008 71.0515L98.1672 96.7241H90.8462L90.172 98.685H99.4527L108.294 73.0125H122.987L123.662 71.0515H107.008ZM131.377 71.0515L113.63 122.595L115.18 123.784L132.662 73.0125H147.958L148.634 71.0515H131.377ZM158.037 71.0515L140.078 123.206H132.635L131.961 125.167H141.364L159.322 73.0125H174.015L174.691 71.0515H158.037ZM52.8277 80.3023L50.506 87.0469H52.467L54.7903 80.3023H52.8277ZM40.0487 96.1571L39.4202 97.9827L54.8009 99.1262L52.3894 97.0345L40.0487 96.1571ZM94.985 105.976L86.5422 130.496H88.5016L96.946 105.976H94.985ZM43.6398 106.989L38.0561 123.206H30.7351L30.0594 125.167H39.34L45.5553 107.118L43.6398 106.989ZM14.5132 114.499L11.6875 122.703L13.1712 124.086L15.7985 116.459H31.0977L31.7734 114.499L14.5132 114.499Z" fill="white"/>
</svg>
