<svg width="200" height="200" viewBox="0 0 200 200" fill="none" xmlns="http://www.w3.org/2000/svg">
<path d="M194.996 107.321C194.905 99.327 192.797 91.3293 188.9 84.1962C185.136 77.3044 179.77 71.318 173.382 66.8825L153.743 53.2483L179.481 21.3201L163.278 18.3337C152.46 16.7896 139.949 15.9385 128.051 15.9385C112.745 15.9385 90.7479 17.3366 72.8838 24.0042C72.8838 24.0042 53.4297 29.5863 31.6958 45.0042C19.7416 53.481 15.8124 59.1446 11.2716 67.5229C7.01283 75.3797 4.90636 83.6934 5.00319 92.2331C5.09153 100.227 7.19968 108.223 11.0966 115.357C14.8611 122.248 20.2274 128.236 26.6148 132.67L37.1284 139.97L8.58757 177.453L21.2195 179.695C22.2218 179.874 46.1216 184.061 73.6992 184.061C92.7729 184.061 108.954 182.038 121.786 178.049C123.274 177.587 124.718 177.096 126.118 176.581L125.681 176.916C125.681 176.916 167.647 164.09 188.725 132.03C193.633 124.564 195.092 115.861 194.996 107.321Z" fill="white"/>
<path d="M165.531 74.6472C165.315 90.784 148.125 99.9764 127.634 98.0411C129.618 98.987 140.487 104.39 149.947 113.157C163.463 110.284 172.121 93.7548 165.531 74.6472ZM50.0482 86.3836C36.5329 89.2565 27.8774 105.781 34.4618 124.894C34.6779 108.751 51.8693 99.5605 72.3645 101.497C70.3776 100.547 59.5096 95.1451 50.0482 86.3836Z" fill="#C4B681"/>
<path d="M129.227 23.7628C92.7408 23.5902 50.7285 31.3542 49.2377 60.6136C48.107 82.0845 78.6859 99.0055 85.5367 103.443C95.2196 109.704 127.465 126.497 124.306 142.672C121.493 157.065 100.898 159.957 100.898 159.957C100.898 159.957 122.084 148.515 112.396 132.031C112.108 132.433 110.174 154.014 59.7781 146.765L61.9634 120.264L22.5835 171.983C22.5835 171.983 131.606 191.339 148.979 147.381C159.401 121.011 121.44 101.332 113.572 96.1489C105.904 91.1002 73.8968 74.4388 75.5235 58.6023C78.5106 29.5196 162.16 26.0772 162.16 26.0772C152.931 24.7603 141.385 23.8212 129.222 23.7628H129.227ZM162.595 29.4611C131.273 33.7637 114.599 38.5202 114.599 38.5202C109.454 40.1687 58.9314 53.7031 104.404 84.8433C103.409 83.574 94.4232 73.1939 102.899 64.0777C102.899 64.0777 112.128 53.0154 143.96 52.9801L162.592 29.4611H162.595ZM36.3026 51.3234C2.04347 76.2857 9.72185 111.408 31.0759 126.235C19.5529 96.4859 33.6227 81.8141 43.8859 79.8435C32.3194 65.8322 35.808 53.2641 36.3026 51.3234ZM168.914 73.3067C180.436 103.051 166.368 117.731 156.104 119.7C167.67 133.713 164.18 146.277 163.685 148.216C197.947 123.258 190.271 88.1335 168.914 73.3067Z" fill="#004E38"/>
</svg>
