<svg width="200" height="201" viewBox="0 0 200 201" fill="none" xmlns="http://www.w3.org/2000/svg">
<path d="M78.7813 42.4637L78.5402 43.4933C76.3966 42.8423 74.0409 42.5224 71.4185 42.5224H40.4766C28.9372 42.5224 20.5107 49.0787 17.9253 60.1074L13.2559 80.8439C11.6727 87.6071 13.2353 93.9866 17.6876 98.8422L21.8513 103.307H8.0777L0.664624 134.75C-2.36213 147.668 5.78415 153.456 8.35286 154.923L8.70687 155.119C9.43448 155.514 10.2024 155.863 11.0144 156.168L11.298 156.272C11.6453 156.395 12.0043 156.509 12.3471 156.609C12.5149 156.66 12.6855 156.707 12.9349 156.772L13.063 156.806C13.3644 156.882 13.6664 156.957 13.9187 157.009C14.4002 157.111 14.9007 157.199 15.4097 157.273C15.5914 157.299 15.7799 157.321 15.941 157.339L16.0036 157.347C16.3699 157.391 16.7463 157.426 17.102 157.453C17.2715 157.466 17.4404 157.478 17.6551 157.49C18.2211 157.52 18.7457 157.536 19.2597 157.536H49.9612C50.559 157.536 51.1692 157.516 51.8185 157.477L51.7995 157.56H92.0448L101.517 117.3H108.056C105.908 126.691 104.661 132.23 104.253 134.16C101.636 146.583 107.536 152.385 111.283 154.738C115.768 157.56 120.74 157.56 122.373 157.56H143.472L156.348 157.536C162.736 157.536 174.07 154.927 178.208 137.455C179.341 132.672 192.653 74.5538 196.706 56.853L200 42.467L78.7846 42.4676" fill="black"/>
<path d="M102.975 86.3879L105.997 73.1283H123.964C123.009 77.2618 121.971 81.7589 120.904 86.3879H102.975ZM69.2477 103.668L56.5015 89.9924H73.3869L69.9809 104.52C69.7382 104.215 69.4921 103.928 69.2477 103.668ZM51.1174 84.2163L47.6914 80.5397L49.4754 72.9007H53.7952L51.1174 84.2163ZM39.6514 114.186L43.3034 118.102L41.1334 127.303H36.7096L39.6514 114.186ZM164.597 47.5044L147.832 118.268L141.888 120.767L158.563 47.5083H83.3474L82.2686 52.1116C82.1444 51.9757 82.0203 51.8415 81.8911 51.7151L81.777 51.6044C81.1003 50.9584 80.3274 50.393 79.4773 49.9215L79.2077 49.7767C79.2043 49.775 79.2004 49.7728 79.1976 49.7717L79.1557 49.7498C77.0227 48.6503 74.492 48.1157 71.4227 48.1157H40.4807C31.5862 48.1157 25.3599 52.9153 23.3857 61.3373L18.7057 82.1196C17.2326 88.4102 19.5463 92.5902 21.7822 95.0286L34.7186 108.9H12.509L6.11439 136.025C4.02385 144.918 8.93421 148.811 11.1243 150.06L11.3693 150.197C11.8715 150.469 12.4022 150.71 12.9525 150.917L13.1651 150.996C13.4145 151.084 13.6734 151.166 13.9329 151.242C14.0549 151.278 14.179 151.312 14.3395 151.355L14.4508 151.383C14.6661 151.439 14.882 151.493 15.0789 151.533C15.4368 151.61 15.8087 151.675 16.1974 151.73C16.3277 151.749 16.4631 151.766 16.5973 151.781L16.6571 151.787C16.944 151.821 17.2388 151.851 17.5251 151.871C17.6616 151.882 17.7963 151.891 17.9602 151.901C18.3791 151.924 18.8081 151.938 19.2583 151.938H49.9597C50.5 151.938 51.0554 151.918 51.6577 151.877L51.8892 151.857C52.3322 151.822 52.7773 151.773 53.2197 151.71L53.4306 151.681C53.5016 151.671 53.5709 151.658 53.6397 151.645C55.6766 151.314 57.5484 150.687 59.2106 149.777L59.3879 149.679L58.8526 151.962H87.614L97.0858 111.703H115.073C112.414 123.298 110.273 132.7 109.724 135.308C107.903 143.954 111.183 148.069 114.254 149.998C117.05 151.758 120.227 151.962 122.369 151.962H143.468L143.474 151.938H156.343C162.128 151.938 169.674 149.201 172.762 136.161C174.021 130.842 190.672 58.1209 191.38 55.0282L193.103 47.5033H164.589" fill="#BD1F25"/>
<path d="M88.2228 53.6577L66.6173 145.811H82.7451L92.2169 105.552H114.504L117.389 92.5415H95.262L101.087 66.9776H127.057L130.237 53.6581H88.2219L88.2228 53.6577ZM134.781 53.6577C134.781 53.6577 117.442 128.541 115.75 136.577C114.759 141.281 115.703 143.641 117.532 144.789L121.67 142.215H135.486L137.178 133.758L127.45 138.268L146.34 57.3493L150.852 53.6572H134.781L134.781 53.6577ZM169.46 53.6577L154.658 116.134L160.578 114.444C160.578 114.444 151.656 126.384 142.916 142.215H152.261C158.041 142.215 161.425 139.678 163.187 132.347C164.949 125.016 180.597 57.3515 180.597 57.3515L185.39 53.6595H169.46V53.6577ZM40.4794 54.2653C34.3999 54.2653 30.7025 57.0723 29.3858 62.6865L24.6942 83.5198C24.0003 86.4835 24.5291 88.9196 26.2803 90.8297L50.0455 116.313L46.0022 133.456H29.0243L33.1512 115.049H17.3781L12.1026 137.425C10.7958 143.002 13.1827 145.786 19.263 145.786H49.9641C56.0865 145.786 59.8009 143.003 61.1091 137.425L66.3032 115.29C67.0257 112.21 66.5063 109.735 64.7462 107.862L40.9527 82.3351L44.5933 66.749H61.5713L57.5263 83.8406H73.5405L78.6594 62.5684C79.9569 57.033 77.544 54.2639 71.4211 54.2639H40.4789L40.4794 54.2653Z" fill="white"/>
<path d="M130.235 53.6576L125.372 57.5L123.99 63.2823H98.0044L96.7687 68.5238L90.9716 93.9677L90.2597 96.3148L95.3289 92.5405H95.2605L101.086 66.9766H127.056L130.235 53.6571L130.235 53.6576ZM150.848 53.6576L146.336 57.3496L127.446 138.269L137.174 133.758L135.482 142.215H121.666L117.528 144.789C118.823 145.602 120.56 145.811 122.371 145.811H138.583L142.952 126.991L133.226 131.08L150.848 53.6594L150.848 53.6576ZM185.386 53.6576L180.593 57.3496C180.593 57.3496 164.945 125.016 163.183 132.345C161.422 139.676 158.037 142.213 152.257 142.213H142.912C142.266 143.383 141.621 144.574 140.98 145.784H156.346C162.972 145.784 165.508 140.099 166.777 134.741C168.046 129.384 185.386 53.6562 185.386 53.6562V53.6576ZM76.3783 55.2383L73.2987 57.6449C74.6938 59.0243 75.0584 61.1728 74.3712 64.1047L70.561 79.9373H62.4517L57.5247 83.8419H73.539L78.6579 62.5696C79.5129 58.9214 78.746 56.483 76.3778 55.2388L76.3783 55.2383ZM41.5602 62.7973L40.3087 68.2862L36.6681 83.8718L60.4593 109.4C62.2199 111.273 62.7385 113.749 62.0168 116.829L57.331 136.798C54.8926 141.8 51.282 141.734 45.8039 141.91H18.0915L14.1973 144.732C15.4241 145.432 17.1068 145.788 19.2629 145.788H49.9639C50.8708 145.788 51.7173 145.722 52.5173 145.6C57.1265 144.895 59.9949 142.177 61.109 137.427L66.303 115.292C67.0256 112.212 66.5061 109.736 64.746 107.864L40.9526 82.3368L44.5932 66.7507H61.5712L66.2609 62.7982H41.5579L41.5602 62.7973ZM117.392 92.5409L112.548 96.4629L111.328 101.969H88.99L87.9032 107.099L79.627 142.278H71.5807L66.6207 145.811H82.7486L92.2203 105.552H114.508L117.392 92.5409ZM33.1533 115.05L28.4067 118.637L24.7392 134.992L24.2766 136.797L26.8416 134.992L29.0263 133.457L33.1533 115.05Z" fill="#8E908F"/>
</svg>
