<svg width="201" height="201" viewBox="0 0 201 201" fill="none" xmlns="http://www.w3.org/2000/svg">
<path d="M100.74 25.3708C85.6281 25.3708 70.5159 25.3708 55.4036 25.3752C53.1616 25.3752 50.9448 25.6329 48.7632 26.1471C41.9802 27.7454 36.2022 31.1043 31.4197 36.1538C27.8899 39.8841 25.3425 44.1952 24.1672 49.2284C23.2967 52.9587 22.5701 56.7217 21.7624 60.4677C21.1792 63.1697 21.0006 65.8944 21.4758 68.6222C22.6354 75.2556 26.3544 79.9664 32.3902 82.8614C35.7924 84.4943 39.4321 85.0763 43.1819 85.0719C47.5797 85.0675 51.9762 85.0675 56.374 85.0719C56.7455 85.0719 57.1182 85.092 57.4878 85.131C60.3193 85.4333 62.3488 87.6131 62.2168 90.4427C62.1521 91.8204 61.7096 93.1818 61.4871 94.5557C60.824 98.6537 56.6487 101.501 53.0202 101.479C47.4836 101.446 41.9488 101.471 36.4146 101.471H35.6893V91.7588H15.1095C12.887 102.217 10.6708 112.646 8.45215 123.088H62.3984C62.3808 122.975 62.3777 122.903 62.3563 122.834C60.9931 118.497 61.6109 114.381 63.7906 110.461C65.5662 107.27 68.1432 104.819 71.0721 102.706C71.2299 102.594 71.387 102.475 71.5529 102.352C69.2437 100.292 68.2224 98.5557 67.773 95.8298C67.3883 93.4929 67.7887 91.2283 68.5706 89.0247C70.0778 84.7759 72.9262 81.571 76.5403 79.001C80.5641 76.1393 85.0492 74.3084 89.9052 73.1073C88.8644 71.3707 87.6054 69.8886 86.1083 68.6184C82.1492 65.2489 77.4912 63.6399 72.3675 63.4884C67.4901 63.3457 62.6015 63.4532 57.7203 63.4381C57.1823 63.4381 56.6399 63.4016 56.1082 63.3237C53.4237 62.9372 51.4847 60.8134 51.6494 58.1264C51.755 56.3986 52.1617 54.6664 52.6192 52.9876C53.5356 49.6332 57.1609 47.0204 60.7574 47.0097C65.0602 46.9965 69.3625 47.0034 73.6673 47.0053C73.8118 47.0053 73.9558 47.0198 74.2455 47.0348V56.7173C74.4441 56.7386 74.5032 56.7468 74.5573 56.7468C81.1737 56.7487 87.7865 56.7443 94.4029 56.7594C94.7958 56.7594 94.8442 56.5784 94.9089 56.2742C96.8272 47.2322 98.7561 38.1909 100.681 29.1508C100.942 27.9176 101.193 26.682 101.465 25.3708H100.74ZM124.737 67.9094C120.183 67.9358 115.728 68.6341 111.376 69.9559C107.76 71.0552 104.331 72.5655 101.317 74.8961C98.7404 76.8898 96.7379 79.3033 95.8416 82.5069C94.7788 86.3038 96.3488 88.9933 100.178 89.9656C101.887 90.3999 103.612 90.3742 105.338 90.1517C107.909 89.8185 110.188 88.8764 111.899 86.8356C113.188 85.295 113.807 83.461 114.244 81.5321C114.626 79.8325 114.944 78.0915 115.573 76.4781C116.813 73.2921 119.243 71.1074 122.129 69.4028C123.047 68.861 124.029 68.4217 125.035 67.9094H124.737ZM141.055 76.8747C139.973 76.974 138.886 77.0362 137.811 77.1827C136.727 77.3298 135.64 77.5145 134.574 77.7653C130.652 78.6874 126.933 80.1022 123.673 82.5365C121.353 84.2687 119.551 86.3975 118.767 89.2573C117.948 92.2421 119.184 94.4043 122.172 95.2056C123.641 95.5985 125.121 95.5249 126.602 95.2987C130.047 94.7713 132.293 92.7179 133.077 89.3245C133.319 88.2768 133.398 87.1913 133.588 86.131C134.312 82.0789 136.459 79.0972 140.241 77.3599C140.522 77.2304 140.804 77.1079 141.085 76.9803C141.076 76.9457 141.068 76.9118 141.055 76.8747H141.055ZM92.4834 77.3348C91.457 77.5617 90.5155 77.7427 89.5891 77.9803C85.6903 78.9803 81.9745 80.4114 78.6961 82.8023C75.7477 84.9519 73.5799 87.6564 72.8062 91.3201C72.018 95.0636 73.8043 98.3696 77.3881 99.374C81.0989 100.415 84.5376 99.5745 87.4841 97.1333C89.5055 95.4596 90.09 93.2063 89.3402 90.674C89.036 89.6438 88.6299 88.6413 88.2434 87.6369C87.6387 86.0618 87.6331 84.4912 88.3785 82.9833C88.8857 81.9551 89.4678 80.9463 90.1422 80.0217C90.8134 79.0991 91.6387 78.2939 92.4834 77.3348ZM151.154 81.5748C149.893 87.515 148.634 93.4395 147.366 99.408C150.068 99.8485 152.718 100.282 155.399 100.72C154.148 106.606 152.909 112.438 151.665 118.287H150.994C145.311 118.287 139.629 118.28 133.946 118.295C133.613 118.295 133.244 118.401 132.954 118.565C130.38 120.036 127.635 120.888 124.656 120.797C123.313 120.758 121.973 120.526 120.644 120.384C120.048 121.453 119.462 122.619 118.766 123.716C118.069 124.814 117.329 125.895 116.493 126.889C112.171 132.023 106.76 135.042 99.9384 135.229C99.621 135.238 99.5367 135.368 99.4783 135.643C98.027 142.503 96.5676 149.362 95.1245 156.222C95.0509 156.575 94.9026 156.721 94.5632 156.771C92.0233 157.147 89.491 157.543 86.9486 157.906C86.5552 157.962 86.3811 158.105 86.2987 158.496C85.3094 163.21 84.3038 167.918 83.3032 172.629C83.0807 173.677 82.8701 174.728 82.6451 175.815C82.8569 175.832 82.9984 175.852 83.1429 175.852C96.7473 175.854 110.351 175.859 123.952 175.865C124.304 175.865 124.467 175.784 124.547 175.397C125.344 171.576 126.169 167.758 126.981 163.938C127.398 161.979 127.808 160.02 128.234 158.002C125.543 157.562 122.89 157.127 120.227 156.69C120.253 156.496 120.264 156.369 120.291 156.243C121.468 150.716 122.658 145.185 123.813 139.651C123.91 139.177 124.108 139.123 124.514 139.123C131.892 139.134 139.271 139.131 146.65 139.131H147.232C144.629 151.381 142.038 163.58 139.44 175.823H172.942C174.201 169.889 175.456 163.986 176.726 158.007C174.019 157.562 171.361 157.124 168.698 156.686C169.879 151.117 171.035 145.64 172.199 140.165C173.97 131.835 175.748 123.508 177.52 115.177C178.505 110.539 179.486 105.901 180.46 101.259C180.54 100.877 180.679 100.693 181.118 100.63C183.66 100.27 186.193 99.8542 188.733 99.4827C189.096 99.4287 189.212 99.2885 189.286 98.9428C190.158 94.7958 191.052 90.6488 191.935 86.5018C192.283 84.8689 192.621 83.2354 192.969 81.5742L151.154 81.5748ZM109.569 94.5809C107.062 94.6199 104.704 95.2433 102.436 96.2433C99.971 97.3319 97.5412 98.4997 95.0484 99.5173C91.5645 100.938 87.8619 101.515 84.1718 102.15C79.7288 102.914 75.6038 104.52 72.0727 107.402C69.1589 109.78 67.0011 112.632 66.6554 116.553C66.3594 119.892 67.5033 122.394 70.7603 123.746C71.5121 124.059 72.3027 124.314 73.0978 124.484C77.0029 125.32 80.9362 125.203 84.877 124.775C85.9285 124.661 86.987 124.518 88.041 124.543C89.689 124.584 90.9586 125.497 92.0321 126.653C95.3105 130.184 99.4085 130.935 103.899 130.037C107.388 129.339 110.232 127.402 112.598 124.792C115.644 121.433 117.374 117.532 117.117 112.916C116.998 110.804 117.31 108.772 117.906 106.757C118.159 105.901 118.355 105.026 118.543 104.153C119.264 100.814 117.844 97.5859 114.906 95.8379C113.256 94.8549 111.457 94.4897 109.569 94.5809ZM141.806 97.8467C139.84 98.1188 137.854 98.2911 135.912 98.682C131.896 99.4871 128.131 100.947 124.854 103.475C122.603 105.209 120.889 107.34 120.213 110.173C119.574 112.848 120.832 114.98 123.491 115.662C125.474 116.17 127.443 115.985 129.368 115.35C131.753 114.562 133.31 112.943 133.979 110.523C134.217 109.669 134.404 108.779 134.469 107.896C134.648 105.418 135.433 103.211 137.131 101.365C138.457 99.9215 140.044 98.8429 141.843 98.0698C141.832 97.9938 141.818 97.9196 141.805 97.8461L141.806 97.8467Z" fill="#F56423"/>
</svg>
