<svg width="200" height="201" viewBox="0 0 200 201" fill="none" xmlns="http://www.w3.org/2000/svg">
<path d="M65.0476 40.228C65.0476 40.228 63.3615 42.6003 62.7416 43.2247C62.3189 43.6488 61.9228 44.0508 61.5076 44.3733C61.2543 44.5691 60.9509 44.7517 60.6299 44.9447C59.901 45.3864 57.9896 46.136 56.8911 46.5439C57.6008 48.1534 58.7053 49.651 59.4254 50.4358C59.7537 50.7922 60.0748 51.4328 60.3649 51.8009C60.7816 52.3296 61.2027 53.2882 61.2027 53.2882C61.2027 53.2882 60.5209 54.5958 59.7405 55.6561C59.3385 56.2009 58.9203 56.7178 58.5153 57.22C57.271 58.7647 56.0959 60.224 55.4244 62.3401C54.6498 64.7786 54.1271 66.0259 52.4042 67.7267C51.6105 68.5072 50.9434 69.2493 50.2955 69.9665C48.8568 71.5627 47.6124 72.944 45.57 74.1309C42.9459 75.655 40.2408 77.1423 37.6211 78.5839C36.7537 79.0581 35.8894 79.5352 35.0235 80.0138C33.3801 80.9224 32.9663 80.9665 31.2905 81.0372L31.2508 81.0402C29.4822 81.1153 26.6578 81.5452 24.7303 82.3228C24.7303 82.3228 24.3533 85.0117 24.1324 86.1706C24.0514 86.5888 23.9748 86.9864 23.8703 87.353C23.6273 88.2057 23.162 88.8668 22.6245 89.634C22.1812 90.2673 21.7248 90.9225 21.3389 91.756C20.4878 93.6085 19.9827 94.9147 19.6396 96.9704C19.5071 97.7597 19.3848 98.5077 19.2346 99.2249C18.999 100.359 18.7723 102.356 18.5749 103.6C18.1479 106.281 17.8976 109.057 16.933 111.322C16.6297 112.035 15.9965 112.814 15.3279 113.638C14.4812 114.678 13.6094 115.488 13.2369 116.644L11.8056 122.393C11.7496 122.633 11.5817 123.138 11.4021 123.672C10.4493 126.535 9.98988 131.365 9.98988 131.365H10.6466L9.87796 131.418C7.29214 131.936 4.43389 134.376 3.80658 137.001C3.45464 138.123 3.1454 139.323 2.9304 140.558C2.92746 140.524 2.92746 140.505 2.92746 140.505L2.84205 141.087L2.80524 141.352L0 161.027H36.6418C35.3268 159.064 33.6054 157.639 35.3136 156.005L41.2996 156.057L42.1301 161.027L75.2422 160.975L78.4745 154.101C78.5849 154.936 78.6394 155.821 78.6217 156.633C77.7706 158.379 77.4024 159.226 76.5189 161.027L103.14 160.975C103.698 157.549 104.312 154.171 104.926 150.673L113.589 150.67C113.58 152.351 113.719 153.858 114.081 155.212C115.467 159.643 120.197 161.304 124.407 161.6C130.446 161.822 136.56 161.693 140.752 157.167L140.143 160.996H153.303L154.301 155.664C154.301 155.664 155.076 156.462 154.833 157.538C154.531 158.878 153.773 160.996 153.773 160.996H186.979C188.555 160.996 190.395 160.542 191.849 159.9C197.5 157.393 198.676 150.427 199.393 146.219C200.107 142.007 200.497 138.059 198.78 134.829C197.265 132.169 194.847 131.24 191.506 131.24H169.028L171.301 135.175V135.543C170.011 132.496 167.319 131.24 163.802 131.24H142.396L144.613 135.226V135.485C144.258 134.951 143.837 134.378 143.376 133.842C141.363 131.903 138.811 131.275 136.19 130.833C130.537 130.33 124.336 130.205 119.958 133.718L120.472 131.24H89.6144C89.7499 128.111 88.2744 123.868 88.2744 123.868C88.2744 123.868 85.3057 121.973 85.0303 121.257C84.8124 120.296 84.3412 119.654 84.4148 118.726C85.1275 116.075 86.0729 113.574 87.5116 110.368C87.6397 110.088 87.787 109.821 87.8827 109.542C88.5866 107.44 89.1034 104.495 89.4097 101.167C89.6497 98.549 90.1578 96.212 90.6732 93.6777C91.3491 90.3424 91.4743 89.3057 92.1767 84.9749C92.0073 83.0399 91.6672 81.4171 91.1709 79.544C90.685 77.7122 89.7131 73.5669 89.5776 72.9808C90.0032 72.274 90.414 71.5804 90.8057 70.9163C91.4404 70.0754 92.2871 69.1831 93.2708 68.7251C94.789 68.0183 97.3807 66.5472 97.3807 66.5472C97.8549 65.1571 97.849 64.2942 97.7768 62.7539C97.659 60.1945 96.4 56.4189 95.4899 54.8904C94.7537 53.6519 93.9732 52.761 93.2266 51.8628C92.5743 51.0749 91.0266 48.7512 91.0045 48.3536C90.978 47.8603 91.3859 46.7088 91.3859 46.7088C91.3859 46.7088 90.1445 45.7693 89.0386 45.1066C86.4955 43.5796 83.0718 42.8801 80.0663 42.6843C79.1268 42.0864 78.2978 41.8199 77.4142 41.6034C76.7884 41.4488 75.9726 41.5136 75.1818 41.5136C74.6576 41.5136 74.1363 41.546 73.6327 41.5769C73.1246 41.6063 72.646 41.6373 72.1601 41.6373C71.493 41.6373 70.9452 41.5813 70.4313 41.4591C70.0573 41.3707 69.7068 41.2691 69.3696 41.1719C68.6304 40.954 65.0564 40.2295 65.0564 40.2295L65.0476 40.228ZM32.9531 105.041C33.7512 105.848 34.1017 106.658 34.2681 107.515C34.4757 108.599 34.3373 109.892 33.9647 111.058C33.6923 111.92 33.2461 112.743 32.7749 113.618C32.1991 114.69 31.6042 115.797 31.3111 117.024C31.0078 118.309 30.0344 119.761 29.9961 121.125C29.9785 121.841 29.9593 122.515 29.9048 123.156C29.8842 123.387 29.7929 123.896 29.6913 124.438C29.1627 127.311 29.0316 130.948 29.0213 131.24H23.4992C23.4918 131.015 23.3505 126.202 22.7423 124.64C22.5037 124.023 22.2534 123.382 22.1297 122.749C21.5377 119.719 22.76 118.305 25.8685 116.361C30.4232 113.512 32.152 110.12 32.9531 105.041ZM74.9727 111.337C74.9977 112.827 74.8902 112.046 74.9491 113.5C75.0139 115.089 75.0802 117.623 75.0993 119.23C75.1096 120.23 74.0612 125.766 74.0612 125.766C74.0612 125.766 74.8947 126.014 75.2378 126.014H75.2687C75.3349 126.992 75.0669 130.97 75.0537 131.182H59.2531C59.2575 130.81 59.1544 127.268 59.1544 127.268C59.0778 127.065 58.4181 125.363 58.3577 125.186C57.8512 123.746 57.4536 123.512 57.4256 121.942C57.4153 121.356 57.3299 120.773 57.2445 120.21C57.1414 119.524 57.0427 118.876 57.0928 118.295C57.1252 117.919 57.726 114.815 57.726 114.815C57.726 114.815 60.3369 114.246 61.5385 114.188C62.1452 114.157 72.3412 111.842 74.9727 111.337ZM44.121 113.983C44.2447 115.999 45.4095 118.645 45.5361 120.051C45.7128 121.995 44.3257 125.283 44.3257 125.283L44.0282 131.182H42.4555C42.4378 130.529 42.2773 125.728 41.2598 123.238C40.8328 122.192 40.8475 121.138 40.765 120.495C40.4042 117.664 41.8532 115.881 44.121 113.983ZM75.2171 131.3H77.8368C77.1609 132.779 76.3981 134.288 75.6516 135.709C75.4542 134.272 75.3585 132.777 75.2171 131.3ZM92.1207 131.369L94.465 135.54L92.9026 144.157L92.1207 131.369ZM58.6375 131.372C58.9468 132.651 59.3606 133.886 59.7302 135.135V135.672C57.9204 140.047 56.2034 144.518 54.2832 148.843C53.2244 143.053 52.3615 137.177 51.3086 131.387C54.5467 131.4 57.8998 131.408 58.6375 131.372ZM30.7221 131.424H35.0279C35.3047 132.671 35.9438 133.799 35.9792 135.099L28.9388 147.66C29.0493 146.664 28.9256 145.293 28.3896 144.444L30.7221 131.424ZM157.26 138.837C157.729 138.8 158.62 138.94 158.234 140.651C157.74 142.855 156.37 142.483 156.37 142.483L156.992 138.88C156.992 138.88 157.104 138.85 157.26 138.837ZM131.272 138.888C132.886 138.972 131.781 145.033 131.781 145.033C131.038 149.955 129.935 152.909 128.779 152.944C127.668 152.975 127.431 151.256 128.577 145.111C129.147 142.065 129.979 138.818 131.272 138.888ZM184.52 139.682H185.34C185.852 139.682 186.835 140.47 185.877 145.667C184.723 151.934 183.642 152.06 182.875 152.06H182.268L184.52 139.682ZM18.9445 139.993C19.51 139.993 20.1211 139.999 20.8721 139.999C21.7203 139.999 22.4345 140.015 23.2709 140.309C24.5344 140.756 25.2869 141.997 25.2869 141.997C25.2869 141.997 24.8819 141.786 24.424 141.638C23.8128 141.44 22.6289 141.424 22.6289 141.424L18.1508 141.393C18.1508 141.393 16.6577 141.38 16.8049 140.815C17.0273 139.959 18.2068 139.993 18.9445 139.993ZM106.643 140.024C106.643 140.024 111.576 140.022 112.675 140.044C113.773 140.065 114.588 141.379 114.588 141.379L106.399 141.358L106.643 140.024ZM40.2054 145.166L40.6575 147.775H38.6519L40.2054 145.166ZM169.719 146.257L168.738 151.865L167.335 148.358C167.335 148.358 167.967 147.937 168.457 147.658C168.947 147.376 169.719 146.257 169.719 146.257ZM5.85197 148.98C6.06255 149.077 6.29963 149.167 6.60004 149.235C7.37313 149.404 8.45841 149.478 8.45841 149.478L12.9365 149.509C12.9365 149.509 14.5254 149.397 14.3472 150.173C14.197 150.832 12.427 150.748 12.427 150.748C10.8881 150.748 9.00621 150.757 8.24489 150.61C7.4821 150.463 6.76349 150.081 6.23189 149.469C6.09936 149.316 5.97272 149.151 5.85197 148.98ZM63.6737 154.306L64.2083 160.74L62.3852 157.415L63.6737 154.306Z" fill="#0C2340"/>
<path d="M66.8453 41.689C66.5876 41.7758 62.4482 47.4894 61.3629 48.3332L61.4586 46.3393L59.5193 47.1478C59.5193 47.1478 60.4293 49.199 61.5912 50.6716C61.7046 50.8174 62.1787 51.3122 62.5277 51.7068C63.7691 49.0665 65.57 45.6796 67.1295 44.4736C67.3857 44.2763 65.7909 47.6175 64.7204 51.3667C65.6334 51.0103 66.4315 50.1297 67.2164 49.7056C64.4141 53.5269 63.6807 63.4859 70.5782 68.7621C64.7469 66.8065 62.3422 60.4995 61.4645 57.2024C61.3291 57.4012 61.1965 57.5882 61.0728 57.7576C59.4618 59.9444 58.1616 65.2058 59.453 68.7621C59.453 68.7621 56.7258 68.3748 55.5272 67.0244C52.9796 69.5381 49.821 75.5977 47.7299 83.4008C46.0409 81.0668 46.06 78.4869 46.1454 76.7625C44.3798 77.7388 33.6802 82.2184 31.8365 82.6469C31.8365 82.6469 30.8425 82.8722 29.6689 83.4008C27.9313 84.2358 23.8685 91.4131 23.0512 93.1846C21.9247 95.6275 22.8097 99.412 22.2649 102.023C21.5109 105.642 17.0255 106.896 19.8984 114.074C18.8102 114.198 18.0725 113.911 18.0725 113.911C18.0798 113.842 14.1613 119.988 14.1613 119.988C14.1613 119.988 13.5679 122.36 13.1261 124.285C12.8876 125.32 11.4047 127.778 11.1926 129.024L14.1098 129.249L15.1612 127.491L15.55 129.361L18.0725 129.557L18.8058 126.151L19.6805 129.364L20.9116 129.125L21.7598 127.454C21.7244 126.615 21.1413 124.771 21.1413 124.771L19.4096 123.821L20.6583 115.107C32.9454 114.073 28.9341 101.334 28.6764 95.2565C28.6764 95.2565 41.6954 103.846 42.9676 103.407L47.0408 93.6779C47.1394 97.5905 46.7212 116.473 47.0746 120.368C47.2646 122.458 45.6536 125.553 45.6536 125.553L45.2398 129.131L48.3661 129.488L49.2835 127.601L50.0257 125.048L50.5661 129.488H52.7204L53.7247 127.632V125.499L54.4065 129.352C54.4065 129.352 55.8776 129.439 56.3871 129.488L57.5932 127.756L57.3281 125.778L55.8673 123.516L52.0298 123.259C52.0298 123.259 55.3858 119.351 55.4874 118.165L54.7658 118.368C54.5508 118.398 54.2637 118.417 53.7247 118.449C54.4051 116.576 54.7585 112.808 55.2518 111.357C56.5314 107.604 59.4692 97.8953 60.8137 97.7127C60.9079 97.6994 66.5257 95.2138 70.5782 92.541C69.7948 96.034 63.4996 104.937 63.6675 104.918C69.0262 103.575 76.495 101.164 80.7949 96.5508C81.1277 98.4107 80.3664 100.029 79.9717 100.597C86.423 96.4831 89.3829 88.923 89.8895 84.1975C89.349 82.3759 87.8647 77.3236 87.4759 76.4179L82.7298 83.3434C82.7092 83.3213 82.6901 83.2933 82.6695 83.2712C82.5296 83.1166 82.375 82.962 82.213 82.8059C80.948 81.1566 78.0191 77.2396 71.8697 74.0471C74.5262 74.2739 79.0794 75.2443 80.6535 74.963C79.6139 74.3696 78.1266 73.5523 76.8057 72.2786C87.2919 71.8456 92.1675 64.5991 92.3884 64.3031C93.3794 62.9675 93.8521 60.1829 94.0067 58.8767C94.1731 57.4675 93.6813 56.0656 93.5326 55.6813L93.5296 55.6754C93.5061 55.6121 93.4899 55.5753 93.4899 55.5753C93.4899 55.5753 91.9672 55.1217 91.873 55.1467C90.6684 55.4648 89.4565 56.2512 89.4565 56.2512C89.4565 56.2512 89.1679 60.0842 88.9426 63.0956C88.6805 66.5915 83.9521 69.6058 80.6211 69.9931C79.4637 70.1286 75.5128 70.2891 74.3289 69.9062C73.4218 69.0654 71.5104 67.2615 70.5782 65.3825C73.6824 66.9022 77.4654 68.1406 82.4162 67.2777C88.6613 66.1895 87.6276 59.3023 88.8984 55.5944C89.3358 55.291 89.9631 54.7271 90.6994 54.3898H90.7023C90.7023 54.3884 90.7038 54.3854 90.7053 54.3839C91.2369 53.1647 91.0189 51.698 89.1385 51.1679C89.106 51.159 89.0737 51.1517 89.0427 51.1428C88.9632 51.1222 88.8896 51.1016 88.8042 51.0854C88.252 50.9676 87.6438 50.9293 87.0327 50.9647C87.018 50.9808 86.99 50.9926 86.9723 51.0074C85.2877 51.6111 83.2482 51.7068 82.344 55.1453C82.6459 50.3285 86.5688 51.5669 85.5572 49.1578C87.096 48.6409 88.3668 48.8147 88.9706 48.9561C88.9765 48.959 88.9824 48.9575 88.9882 48.959C89.1723 49.0076 89.1723 48.8442 89.1267 48.7632C89.0884 48.6969 88.8837 48.5762 88.7644 48.5187C88.7585 48.5172 88.7556 48.5114 88.7526 48.5114C88.7482 48.5084 88.7423 48.5069 88.7379 48.5055C88.732 48.5025 88.7247 48.501 88.7202 48.4996C88.0532 48.2316 86.9193 47.9371 85.6234 48.289C85.0108 48.4554 84.329 48.7632 83.6796 49.1343C82.908 49.5495 82.2571 50.0281 81.7285 50.5406C81.4973 50.757 81.3044 50.9676 81.1601 51.162C81.1542 51.1679 81.1483 51.1723 81.1424 51.1796C81.1704 51.0928 81.1984 51.0177 81.2264 50.9381C81.2705 50.8203 81.3176 50.6966 81.3721 50.5641C81.3824 50.5435 81.3898 50.5185 81.4016 50.4978C81.409 50.4816 81.4163 50.4625 81.4237 50.4463C81.6328 50.0576 81.8389 49.7277 82.0422 49.442C82.5104 48.878 83.2629 48.2566 84.5529 47.616C84.4837 47.616 84.41 47.6219 84.3379 47.6278C84.4042 47.6013 84.4675 47.5763 84.5308 47.5527C84.2451 47.5748 83.9683 47.647 83.6958 47.7368C82.827 47.965 81.8507 48.5482 80.9922 49.6703C80.8862 49.8028 80.7934 49.9309 80.7286 50.0384C80.7213 50.0502 80.7154 50.0649 80.708 50.0782C79.9349 51.24 79.2855 52.8775 78.9512 55.1453C78.8055 54.2072 78.5964 51.4005 77.1194 54.8346C76.8337 55.4972 76.4317 56.288 76.04 57.4115C75.878 55.0466 76.7718 53.2898 77.1105 52.4505C76.5348 52.3179 75.0813 52.1044 74.7 51.6258C74.2258 52.0779 74.32 52.2443 73.6191 53.1382C73.7693 49.9707 75.7926 47.4084 78.8437 47.5792C82.5458 47.7883 84.5558 46.7369 83.0258 45.6929L81.7005 44.6562C81.7005 44.6562 86.3803 46.999 87.6718 47.4761C88.1504 47.6396 89.0457 47.7662 89.3505 47.5984C89.3505 47.2744 89.6215 46.5956 89.6215 46.5956C89.5846 46.5573 89.5198 46.5131 89.4433 46.4689C89.4389 46.4674 89.4315 46.4645 89.4285 46.463C89.3417 46.413 89.2386 46.3644 89.1267 46.3099C88.8866 46.1891 88.5862 46.0316 88.2284 45.8593C85.6441 44.3116 81.9052 43.724 80.602 43.9155C79.9688 43.6666 79.1913 43.3397 78.5389 43.0953C75.7926 42.0601 71.746 44.291 70.1895 45.8534C70.9228 43.9125 70.886 42.3546 70.2499 42.2117C68.5476 41.8303 66.8453 41.689 66.8453 41.689ZM89.8733 49.7041C89.7024 49.6997 89.6332 49.8131 89.7672 50.0752C89.7746 50.087 89.7849 50.0929 89.7893 50.1047C89.7952 50.115 89.7952 50.1253 89.8011 50.1356C90.0073 50.514 90.2767 50.8807 90.5948 51.0339C92.0011 51.6302 91.6845 53.0969 92.2058 54.2441C92.2191 54.2514 92.2264 54.2558 92.2323 54.2632C92.8685 54.5665 93.8992 55.2528 93.8992 55.2528C95.3424 58.2921 95.2776 63.0117 94.2512 64.9084C94.2482 64.9128 94.0332 65.2971 93.6636 65.9554C94.4132 65.7757 95.1171 65.3619 95.603 65.141C95.9903 64.3532 96.2671 63.6994 96.1979 61.249C96.1449 59.2846 95.2172 57.1052 94.4412 55.2837C94.3189 54.9995 94.1834 54.7447 94.0436 54.5018C94.0082 54.4414 93.9685 54.381 93.9316 54.3206C93.8507 54.1881 93.7711 54.057 93.6842 53.9348C93.6651 53.9054 93.6474 53.8759 93.6268 53.8465C93.6121 53.8244 93.6003 53.7964 93.5841 53.7743C93.5797 53.7684 93.5723 53.7625 93.5694 53.7566C93.537 53.7125 93.5061 53.6727 93.4766 53.63C93.1232 53.1573 92.7448 52.7361 92.3693 52.29C92.0276 51.885 91.6904 51.4594 91.3738 50.9529C91.3473 50.9072 91.3164 50.866 91.2884 50.8174C91.2516 50.757 91.2103 50.6966 91.1676 50.6392C91.1456 50.6053 91.1205 50.5715 91.0984 50.5361C90.7215 50.0458 90.1575 49.7115 89.8733 49.7041ZM30.2255 82.1536C30.2255 82.1536 26.9933 82.3583 25.9257 82.6484C26.7105 82.8059 26.9285 82.9708 27.1891 83.2727C28.2567 82.8737 30.2255 82.1536 30.2255 82.1536ZM87.1932 101.337C84.413 103.89 81.1262 107.638 79.2148 109.308C78.2621 112.64 77.2121 114.846 76.6113 117.706L78.1413 117.112C77.4963 118.695 76.8941 121.258 76.4935 122.77C77.0001 122.577 77.9146 122.123 77.9146 122.123C77.5287 124.533 76.4935 128.85 76.4935 128.85L81.2705 129.1C81.5488 128.701 81.7638 128.298 82.344 127.232L82.453 125.959C82.453 125.959 80.9156 124.387 80.923 124.387C81.4531 124.375 83.1009 125.658 83.1009 125.658L82.8506 128.85L84.4778 129.1L85.3157 127.232L85.4276 126.11L83.9403 125.057L86.0313 125.94L86.2552 128.946L86.9885 129.1L87.7763 127.254L87.5378 124.775C87.5378 124.775 84.329 122.97 83.4426 122.35C83.4426 122.35 82.6886 120.723 82.4309 120.054C82.992 116.012 87.2595 105.539 87.1932 101.337ZM40.1079 116.379C38.1877 118.586 32.7834 122.006 31.9455 123.938C31.5405 124.879 30.1504 128.575 30.1504 128.575L35.5032 129.393L36.107 126.68L36.9846 129.251L38.0434 129.184L38.7797 126.934L39.6014 129.031L40.3318 129.006L40.9738 127.193C40.9738 127.193 40.669 125.211 40.3318 124.004C40.0048 122.835 37.7238 121.774 37.637 121.094C37.5309 120.258 39.9327 118.234 40.1079 116.379ZM41.2359 127.803L40.7632 128.988L41.5378 129.264L41.2359 127.803ZM21.9085 128.126L21.4358 129.314L22.2104 129.586L21.9085 128.126ZM85.5572 128.177C85.5572 128.177 84.9181 130 85.0712 129.891L86.0048 130.027C86.1477 129.648 85.591 128.298 85.5572 128.177ZM15.089 128.243L14.3086 129.561L14.5766 129.972L15.2864 129.507L15.089 128.243ZM39.0065 128.273L38.5338 129.457L39.1301 130.066L39.4777 129.728L39.0065 128.273ZM49.5721 128.304L49.1009 129.759L49.4484 130.099L50.0448 129.492L49.5721 128.304ZM53.7203 128.304L53.2506 129.492L53.844 130.099L54.1915 129.759L53.7203 128.304ZM19.0179 128.352L18.5481 129.538L19.1415 130.15L19.4891 129.809L19.0179 128.352ZM88.0267 128.394C88.0267 128.394 87.4332 129.726 87.5554 129.653L88.2505 129.812C88.3609 129.441 88.0267 128.394 88.0267 128.394ZM57.5829 128.422C57.5829 128.422 56.9894 129.756 57.1116 129.682L57.8067 129.84C57.9171 129.47 57.5829 128.422 57.5829 128.422ZM82.4265 128.473C82.4265 128.473 81.8949 129.656 81.998 129.592L82.5929 129.728C82.6871 129.413 82.4265 128.473 82.4265 128.473ZM36.2483 128.5L35.7771 129.685L36.372 130.295L36.7196 129.954L36.2483 128.5ZM132.391 132.224C131.267 132.209 130.316 132.25 129.699 132.29C127.758 132.452 126.387 132.617 124.919 133.104C120.288 134.698 118.615 137.951 117.641 140.717C116.624 143.48 114.938 150.051 116.097 154.312C116.443 155.58 117.403 156.819 118.41 157.565C121.648 159.973 129.155 159.808 132.768 159.158C136.508 158.475 139.129 156.752 140.837 153.987C143.296 149.956 145.81 139.38 142.623 135.315C140.658 132.802 135.758 132.266 132.391 132.224ZM13.3426 132.83C11.2545 132.863 8.8277 133.14 7.15929 134.824C5.11978 136.937 4.0669 144.287 5.04174 146.369C6.0151 148.448 9.89089 148.385 10.9894 148.385H11.8008C13.347 148.385 15.5514 148.279 16.1876 149.233C16.4909 149.69 16.4526 150.182 16.1125 150.734C15.6015 151.548 14.5059 151.791 13.6297 151.922C12.2882 152.149 9.48152 152.025 8.4036 151.922C5.63371 151.656 5.31269 150.766 3.68698 149.242L2.38965 158.859H16.6235C19.146 158.859 22.1824 159.153 24.2911 156.648C25.9993 154.565 27.251 146.835 26.3763 145.112C25.1864 142.867 22.6919 142.725 20.2504 142.725H19.4375C18.0563 142.725 15.8548 142.915 15.198 141.651C15.0729 141.413 14.9727 140.832 15.3217 140.245C16.0153 139.074 16.7692 138.946 17.7235 138.847C18.8897 138.685 20.7643 138.651 22.5255 138.815C24.6916 138.977 25.3631 139.562 26.7311 141.024L28.1257 132.836H15.2746C14.6959 132.836 14.0376 132.82 13.3426 132.83ZM95.3807 132.833C96.3997 134.653 96.2789 134.653 95.8666 136.998L92.0099 158.854H101.772L103.543 148.967H113.951L115.064 142.564H104.656L105.432 138.491H110.192C114.218 138.491 114.331 138.298 116.859 140.576L118.519 132.833H95.3807ZM145.856 132.833C146.91 134.689 146.702 134.951 146.399 136.674L142.485 158.857H152.244L153.995 148.933L155.944 153.782C157.13 156.745 157.225 156.449 156.312 158.857H168.711L164.541 147.472C167.152 146.497 168.147 145.229 169.037 143.178C169.938 141.065 170.627 136.933 168.95 134.916C167.242 132.833 163.83 132.833 161.714 132.833H145.856ZM37.7121 132.839C38.3085 134.759 38.1921 134.952 36.8315 137.36L24.7859 158.859H32.9203C31.9573 157.17 32.4094 156.455 33.6934 154.244L43.1267 154.258L43.9381 158.859H60.6576C59.7078 157.106 59.9051 156.913 60.9963 154.181L64.8161 144.975L65.9028 158.859H74.3215L80.6918 145.331L81.1866 154.275C81.3015 156.845 81.4723 157.041 80.1749 158.859H91.3561L89.807 132.839H79.7229L74.6749 143.252L73.7472 132.839H61.6265C62.2656 134.988 62.3702 135.085 61.4513 137.298L53.5731 156.415L49.6251 132.839H37.7121ZM172.662 132.839C173.724 134.659 173.509 134.951 173.194 136.743L169.295 158.861H183.608C187.064 158.861 190.896 159.023 193.864 155.802C197.22 151.996 199.439 139.635 197.253 135.667C195.603 132.577 191.57 132.839 188.031 132.839H172.662ZM131.905 136.846C132.152 136.867 132.382 136.911 132.575 136.976C134.916 137.984 134.203 141.79 133.719 145.009C133.448 146.767 133.271 147.547 132.961 149.076C132.373 151.937 131.815 154.18 129.563 154.963C128.79 155.188 127.696 155.191 126.998 154.77C125.409 153.859 125.587 151.224 125.948 148.488C126.209 146.082 126.449 144.717 127.047 142.245C127.478 140.26 128.061 138.114 129.681 137.235C130.254 136.918 131.163 136.784 131.905 136.846ZM157.131 137.254C158.196 137.264 159.174 137.381 159.561 138.138C159.948 138.918 159.367 142.006 158.635 142.917C157.651 144.121 156.458 143.962 154.874 143.962L156.055 137.257C156.411 137.257 156.776 137.251 157.131 137.254ZM184.564 137.484C185.808 137.501 187.169 137.677 187.79 138.822C188.903 140.806 187.222 150.83 185.251 153.006C184.033 154.373 181.745 154.209 179.872 154.209L182.82 137.49H183.39C183.746 137.49 184.148 137.478 184.564 137.484ZM40.9517 141.231L42.2741 149.17H36.5016L40.9517 141.231Z" fill="#C1C6C8"/>
<path d="M78.9498 55.8652C78.2709 58.7529 77.6407 58.4717 76.3095 60.6422C75.582 61.8276 74.9312 63.6168 75.4039 64.3502C75.8088 64.6388 77.3624 64.9583 78.268 64.9303C77.8792 64.6506 76.8308 63.3341 77.517 60.8558C77.9072 59.4436 79.1707 57.6618 78.9498 55.8652ZM92.4046 56.251C91.7272 56.2393 90.9527 56.5853 89.9027 57.2347C89.8674 58.2891 89.8659 58.9002 90.2017 59.9501C90.4358 58.7088 91.9982 57.1257 92.948 57.0197C93.0113 56.7326 93.0319 56.4528 93.057 56.3836C92.8479 56.2967 92.6299 56.2555 92.4046 56.251Z" fill="#0C2340"/>
<path d="M66.8453 41.689L62.3363 48.0166L62.6028 51.0339C62.6028 51.0339 66.0059 43.7432 67.6449 43.7432L67.6243 44.9566C67.6125 45.7253 66.9542 48.9251 66.9542 48.9251L69.758 46.1214C70.1144 45.6443 70.6224 44.1658 70.5635 43.5724L70.5208 43.1188C70.4737 42.6314 70.0952 42.2426 69.6093 42.1837L66.8453 41.689ZM76.3713 43.2131C75.4657 43.2484 74.7736 43.4767 74.3686 43.7432C70.4796 46.2951 69.7565 48.4304 69.7565 48.4304C70.3691 47.6087 78.2709 44.0436 76.0841 47.2111C78.0839 46.3644 80.2309 46.9269 81.8934 47.0182C82.1158 47.03 83.2865 46.8164 83.2644 46.5794C83.3807 46.4439 83.3998 46.2569 83.2364 46.0949C83.1834 46.0433 83.1304 45.9918 83.0759 45.9432H83.0729C83.0685 45.9403 83.067 45.9373 83.0626 45.9344C82.8329 45.7223 82.5914 45.5368 82.3411 45.3704C79.982 43.6342 77.8807 43.1556 76.3713 43.2131ZM81.4988 43.9302C81.1719 43.9287 80.9068 43.9508 80.7286 43.9965C81.8772 44.3352 83.1539 44.9507 85.0859 45.874C86.3582 46.4851 88.0988 47.4172 88.9573 47.3893L89.4432 46.4719C89.4374 46.4689 89.4344 46.4674 89.4285 46.463C89.3416 46.4218 89.2386 46.3688 89.1266 46.3113C88.8616 46.1862 88.5553 46.0595 88.358 45.9373C88.3182 45.9123 88.2711 45.8858 88.2284 45.8593C87.5407 45.5235 86.6365 45.1127 85.4762 44.6886C84.0257 44.157 82.481 43.9332 81.4988 43.9302ZM84.3379 47.6278C84.1332 47.6425 83.9197 47.6794 83.6958 47.7383C82.5354 48.1211 81.5223 49.0061 80.9922 49.6703C80.895 49.7969 80.8022 49.9368 80.708 50.0782C80.2412 50.866 79.8907 51.7937 79.636 52.7656C80.1734 51.6509 81.0614 51.9012 80.8199 52.5373C80.6093 53.0969 80.3752 54.1233 80.3752 54.1233C81.1822 52.773 83.363 50.6908 85.3642 50.059C85.8369 49.9073 85.3039 49.1446 85.3819 49.1181C86.7661 48.663 87.7498 48.6321 88.9426 48.9089C89.2798 48.9855 88.8778 48.582 88.7644 48.5172C88.7556 48.5128 88.7452 48.5099 88.7379 48.5055C87.4715 47.9665 85.9326 48.2198 85.3098 48.4274C84.7148 48.6292 84.1759 48.8692 83.6796 49.1357C82.9404 49.5569 82.2439 50.0634 81.7285 50.542C81.5208 50.7452 81.3279 50.9499 81.1586 51.1605C81.138 51.1885 81.1144 51.2165 81.0953 51.2444C81.1395 51.1502 81.1807 51.0501 81.2249 50.9396C81.272 50.7997 81.3221 50.6731 81.3721 50.5656C81.381 50.5435 81.3913 50.5185 81.4001 50.4993C81.4075 50.4846 81.4163 50.4625 81.4237 50.4478C81.5577 50.1459 81.7403 49.8072 82.0421 49.4435C82.8977 48.2507 83.7076 47.8767 84.3364 47.6293L84.3379 47.6278ZM78.773 48.6925C78.6435 48.6925 78.5389 48.8 78.5389 48.9281C78.5389 49.0547 78.6435 49.1578 78.773 49.1578C78.9012 49.1578 79.0028 49.0547 79.0028 48.9281C79.0028 48.8 78.9012 48.6925 78.773 48.6925ZM76.6761 49.1534C76.3536 49.3478 76.093 49.6173 75.7926 50.1017C76.0444 50.8763 77.0384 51.4683 77.9734 51.3726C77.1768 51.2312 76.5745 50.5391 76.5745 49.7041C76.5745 49.5098 76.6143 49.3272 76.6746 49.1519L76.6761 49.1534ZM89.7908 49.794C89.7216 49.8381 89.7142 49.9383 89.7908 50.1047C90.0043 50.4713 90.4623 50.8041 90.7715 50.9529C92.1793 51.5478 91.9554 52.8319 92.4738 53.979C92.4885 53.9849 94.0273 54.9715 94.0273 54.9715C95.4719 58.0109 96.2332 63.639 96.167 61.1887C96.1125 59.2257 95.1833 57.0434 94.4073 55.2248C94.2998 54.9715 94.1775 54.7329 94.045 54.5018C94.0097 54.4399 93.9684 54.3795 93.9316 54.3206C93.8536 54.1881 93.7711 54.06 93.6842 53.9333C93.6209 53.8391 93.5532 53.7522 93.4869 53.6624C93.2469 53.3649 93.0083 53.0704 92.7727 52.7877L92.6122 52.5948C92.1881 52.1015 91.7655 51.5905 91.3753 50.9529C91.3738 50.9514 91.3679 50.9455 91.3664 50.9411C91.2987 50.8424 91.2324 50.7408 91.1676 50.6392C90.7273 50.0384 89.9969 49.6629 89.7908 49.794ZM87.0842 50.9705L86.9752 51.0074C86.8736 51.0928 86.7411 51.1693 86.5717 51.2415C86.2169 51.324 85.8811 51.455 85.566 51.6141C84.1258 52.3165 83.3174 53.4518 82.8624 54.5945C83.7032 54.1763 84.1715 54.0718 84.4041 54.1483C83.7695 54.864 83.6384 56.2512 83.6384 56.2512C86.1609 54.1233 86.3744 59.401 87.2918 60.7896C87.6246 57.7517 87.6997 57.1067 88.7217 55.425C88.732 55.4089 88.7408 55.3956 88.7526 55.3765C89.2813 55.0613 89.5787 54.6107 90.6993 54.3898C90.7008 54.3884 90.7038 54.3854 90.7052 54.3839C91.3649 52.5447 90.4932 51.5669 89.1414 51.1693C89.109 51.159 89.0766 51.1517 89.0427 51.1428C88.9647 51.1222 88.8851 51.1016 88.8042 51.0854C88.3256 50.9897 87.7586 50.9426 87.0842 50.9705ZM91.9157 55.3161L89.5669 56.3513L92.0894 55.9832L93.188 56.1819L93.0584 57.2628C93.0584 57.2628 92.7359 57.4719 91.2059 59.4982C90.6743 60.2021 90.6125 61.1798 90.8009 62.0177C92.2382 62.539 92.434 62.5051 92.2382 64.0248C92.5445 63.9262 92.8272 63.2046 93.0584 62.4462C93.5488 60.8191 93.9081 59.3318 93.9125 58.27C93.9169 56.7077 93.5429 55.7107 93.5326 55.6813C93.5311 55.6798 93.5311 55.6783 93.5296 55.6754L91.9157 55.3161ZM61.4262 61.8543C59.8697 64.9363 59.9861 69.7428 62.675 71.0313C66.0678 72.6555 75.7926 74.134 75.7926 74.134C75.7926 74.134 69.4414 71.8795 65.2313 69.1994C62.9047 67.718 61.5072 62.9823 61.4262 61.8543ZM55.0589 68.3571C55.0589 68.3571 52.5143 71.9516 51.0491 74.7584C47.4486 81.6558 47.9464 89.6946 47.9464 89.6946C47.9464 89.6946 49.8313 80.7532 55.0589 74.5198C57.9466 71.0769 59.7534 71.7411 61.5912 71.8486C56.8053 69.5219 55.0589 68.3571 55.0589 68.3571ZM65.2313 73.4875C65.2313 73.4875 74.6499 81.3451 76.495 89.2661C77.514 93.6455 72.3482 99.2839 71.1599 100.687C75.6615 99.1573 82.5016 93.3318 84.5072 91.5677C84.4851 92.5057 84.3482 93.4143 84.0272 94.2212C88.0708 91.31 89.8865 84.2019 89.8865 84.2019L87.4759 76.4179C85.7898 79.1113 84.0846 81.6765 82.7328 83.3493C82.718 83.367 82.7048 83.3846 82.6901 83.4023C82.5678 83.2668 82.4088 83.0607 82.213 82.8059C77.6421 78.3926 65.2313 73.4875 65.2313 73.4875ZM59.3676 97.6464L53.3875 101.334L50.9975 123.215L55.4874 118.164C55.1693 118.28 55.0176 118.332 54.7658 118.368L53.5362 118.711L54.486 112.51L59.3676 97.6464ZM28.4702 98.3459C28.4702 98.3459 27.5941 104.158 26.0714 108.32C25.2306 110.621 21.6655 113.005 20.782 113.368C23.4561 113.84 27.2627 112.49 27.8974 109.942C28.6985 106.728 28.4702 98.3459 28.4702 98.3459ZM86.8957 102.8L82.2998 108.06L81.4516 120.446L82.1349 120.118L86.8957 102.8ZM37.6163 121.72L40.1064 127.584L40.3141 128.5L40.7691 126.454L40.2301 124.568C40.102 124.114 39.8443 123.706 39.4939 123.394L37.6163 121.72ZM19.0193 122.143L17.2964 127.383L17.9237 128.62L18.551 126.422L19.0193 122.143ZM83.5765 122.867L83.7061 124.337L86.6454 125.615L87.5422 126.843V124.774L83.5765 122.867ZM49.575 123.503L48.4412 126.687L49.1038 127.432L50.0271 125.048L49.575 123.503ZM52.074 123.742L52.7705 126.928L53.4317 127.671V125.799L52.074 123.742ZM55.7392 123.82L56.4342 127.006L57.0984 127.749V125.875L55.7392 123.82ZM80.1175 123.901L81.4737 126.454L82.1364 127.199V125.971L80.1175 123.901ZM81.7653 124.128L84.385 126.454L85.0462 127.199V125.971L81.7653 124.128ZM20.4639 125.203L20.1871 128.192L20.8482 128.935L21.4387 127.23L20.4639 125.203ZM132.235 133.515C132.235 133.515 127.187 133.467 124.851 134.475C124.851 134.475 120.556 135.824 118.8 141.324C117.578 145.147 117.223 147.694 117.117 150.245C117.117 150.245 116.867 153.355 118.141 155.336C118.141 155.336 118.983 156.93 121.635 157.674C124.291 158.416 126.131 158.298 127.935 158.263C129.74 158.229 131.967 157.992 133.203 157.637C133.203 157.637 136.455 157.003 138.084 155.233C139.711 153.461 140.172 152.402 141.233 149.819C141.233 149.819 142.067 147.066 142.643 142.988C143.21 138.993 142.002 136.781 141.067 135.804C139.899 134.581 138.187 134.257 138.187 134.257C135.747 133.514 132.235 133.515 132.235 133.515ZM97.345 133.947C97.345 133.947 97.4614 134.484 97.4938 134.743C97.535 135.07 97.4098 134.991 93.7063 157.254L100.649 157.231L102.467 147.472H113.028L113.683 143.842H103.103L104.331 137.173H113.312C113.312 137.173 114.877 137.222 115.634 137.828C115.892 138.034 116.128 138.244 116.128 138.244L117.023 133.947H97.345ZM160.729 134.059C158.697 134.069 155.134 134.094 147.883 134.061C147.883 134.061 148.135 134.391 148.028 134.873C147.931 135.315 147.786 135.229 144.174 157.246H151.206L153.559 145.056L158.016 155.465C158.016 155.465 158.375 156.297 158.297 156.687C158.214 157.122 158.163 157.3 158.163 157.3H166.722L162.862 146.776C162.862 146.776 165.482 146.132 166.447 144.953C167.413 143.775 168.056 142.863 168.43 140.396C168.806 137.93 168.48 136.799 167.95 135.954C167.567 135.344 166.968 134.359 164.395 134.144C163.261 134.05 162.761 134.047 160.729 134.059ZM63.261 134.142C63.261 134.142 63.3155 134.363 63.373 134.536C63.5438 135.038 63.4186 136.035 63.4186 136.035L54.4801 157.269H58.6563C58.6563 157.269 58.5091 156.985 58.7241 156.449C58.9729 155.822 59.0834 155.629 65.3374 141.056L67.1722 157.269H73.5366L81.4237 140.974C81.4237 140.974 82.7092 155.624 82.7725 156.375C82.8344 157.145 82.5708 157.447 82.5192 157.391H89.8983L88.3977 134.144H80.6609L73.8827 147.77L72.5014 134.144L63.261 134.142ZM174.727 134.153C174.727 134.153 175.048 134.614 174.939 135.197C174.834 135.783 171.172 157.44 171.172 157.44H185.672C185.672 157.44 190.239 157.438 192.256 155.421C192.256 155.421 194.755 153.831 196.294 145.39C197.92 136.488 194.879 135.058 194.879 135.058C194.879 135.058 193.794 134.207 191.725 134.207C190.446 134.207 174.727 134.153 174.727 134.153ZM39.3083 134.156C39.3083 134.156 39.3569 134.302 39.4173 134.637C39.5071 135.148 39.1272 136.138 39.1272 136.138L27.2392 157.294L31.1135 157.268L31.1488 156.696C30.9883 155.57 32.9395 152.928 32.9395 152.928H44.1825L45.1235 157.288H52.3906L48.3881 134.156H39.3083ZM13.6135 134.2C13.1968 134.195 12.5489 134.216 11.6256 134.318C9.23412 134.581 8.24897 135.466 7.45526 137.001C6.66007 138.54 6.14173 141.305 6.05485 143.883C5.95471 146.758 9.28124 146.973 9.28124 146.973C9.28124 146.973 13.1114 147.044 13.6415 147.044C14.1716 147.044 16.1007 147.372 16.5233 147.637C16.9474 147.902 17.828 148.328 17.7426 149.705C17.6822 150.691 17.5571 151.012 17.1653 151.663C16.5263 152.728 15.0787 153.18 14.0612 153.368C13.1394 153.541 11.8936 153.418 8.23424 153.418C5.44079 153.418 4.72512 152.016 4.72512 152.016L3.97559 157.338H18.2182C20.6553 157.338 21.7921 156.935 22.6492 156.291C23.5239 155.636 23.8272 154.722 24.2837 153.622C24.9626 151.981 25.2821 149.046 25.2821 149.046C25.7106 146.83 25.1378 145.577 24.5797 145.019C23.7713 144.207 22.3252 144.153 21.6375 144.079C20.9513 144.006 19.9161 144.041 17.3774 144.041C16.5557 144.041 15.3659 143.751 14.8299 143.392C14.2924 143.037 13.1644 142.242 13.5031 140.688C13.7372 139.606 13.9625 139.289 14.5589 138.597C15.3806 137.644 17.0181 137.49 17.7838 137.49C18.8235 137.49 22.4386 137.412 24.0039 137.599C25.182 137.743 25.9345 138.277 25.9345 138.277L26.656 134.234H14.2143C14.2143 134.234 14.0288 134.204 13.6135 134.2ZM131.316 135.565C131.989 135.534 132.654 135.589 133.081 135.755C136.013 136.899 135.708 141.2 135.158 144.844C134.853 146.832 134.65 147.717 134.301 149.445C133.636 152.682 132.709 155.741 129.675 156.262C128.78 156.415 127.462 156.409 126.615 156.041C124.053 154.926 124.241 151.872 124.648 148.781C124.947 146.058 125.219 144.514 125.897 141.717C126.387 139.472 127.306 136.742 129.494 135.896C129.956 135.718 130.641 135.597 131.316 135.565ZM155.1 136.192C155.1 136.192 158.437 136.167 159.35 136.382C160.26 136.594 161.281 137.716 160.746 140.664C160.173 143.814 158.626 144.526 157.982 144.792C157.526 144.982 153.523 145.003 153.523 145.003L155.1 136.192ZM181.797 136.406H185.728C185.728 136.406 188.139 136.404 188.852 137.936C189.354 139.024 189.81 140.399 189.112 145.157C188.143 151.769 186.802 153.215 185.518 154.464C184.463 155.49 182.171 155.495 182.171 155.495H178.405L181.797 136.406ZM41.4435 137.895L43.7319 150.357H34.3502L41.4435 137.895Z" fill="white"/>
</svg>
