<svg width="201" height="201" viewBox="0 0 201 201" fill="none" xmlns="http://www.w3.org/2000/svg">
<path d="M142.77 39.7026C132.335 30.6286 120.236 24.4281 107.608 21.101C107.306 21.0254 107.003 20.9498 106.625 20.7985L102.164 19.8155C98.6099 19.0594 91.0483 17.7739 80.7645 18.1519L76.4544 18.3788C73.5053 18.6056 65.5656 19.6643 55.3574 23.2939L51.4254 24.9574C48.4764 26.1673 42.2002 29.1919 34.0337 35.09L30.8578 37.7366C28.8918 39.4001 23.7499 43.7859 19.3641 49.4571L17.02 52.4061L47.4177 71.6882L50.2155 74.1836L54.8281 78.4937C51.3498 81.9721 48.9301 85.2236 47.3421 88.3994C46.964 89.1556 37.5876 107.833 30.1772 131.349L28.06 138.155L42.7295 132.484L30.1016 183.222L36.4534 180.576C36.6802 180.5 62.3141 169.762 79.5546 164.469L91.9557 160.915H92.0313L92.1069 160.84C94.7535 158.269 96.6439 154.715 97.5513 150.329L102.618 160.84L102.92 160.764C104.432 160.235 106.02 159.932 107.684 159.932C125.076 159.554 144.963 166.889 145.114 166.965L155.7 170.897L130.671 136.113L150.709 157.815L153.205 154.79C153.356 154.564 157.742 149.195 162.052 140.272L163.715 136.643C163.942 136.189 164.094 135.735 164.32 135.13C178.688 101.557 170.975 64.051 142.77 39.7026Z" fill="white"/>
<path d="M100.047 70.403C100.198 70.4786 100.425 70.5542 100.576 70.5542C100.425 70.4786 100.274 70.403 100.047 70.403Z" fill="#0074B8"/>
<path d="M81.2643 41.7817L76.3303 56.9806C80.1868 56.2433 84.1566 55.9031 88.2399 56.0732L81.2643 41.7817ZM100.49 42.8593L91.1889 56.3C93.2306 56.5269 95.3289 56.8105 97.4273 57.2642C99.3555 57.7179 101.284 58.2283 103.098 58.8521L100.49 42.8593ZM63.2298 45.9217L62.6627 61.6877C66.1789 59.9296 69.8651 58.5118 73.6649 57.6044L63.2298 45.9217ZM118.638 49.4379L105.651 59.7595C109.564 61.2907 113.193 63.2756 116.539 65.6008L118.638 49.4379ZM46.3296 54.4286L50.4696 70.1945C53.3619 67.5291 56.8781 64.9203 60.3375 62.9921L46.3296 54.4286ZM133.326 60.1565L117.957 66.565C121.303 69.0603 124.252 71.9526 126.861 75.1285L133.326 60.1565ZM145.122 75.412L128.449 77.1701C130.887 80.4594 132.986 84.089 134.63 87.8887L145.122 75.412ZM84.4969 78.4178C59.0331 78.8148 52.171 104.505 52.171 104.505C54.326 102.35 83.4194 103.711 83.4194 103.711C78.769 122.54 56.6512 122.88 56.6512 122.88L45.9326 165.414L81.0942 153.335C89.2607 150.329 94.1947 135.3 94.1947 135.3L97.7108 142.729C97.7108 142.729 101.624 148.741 110.755 149.989H110.811C116.823 150.159 123.401 150.839 130.264 152.314L109.053 123.391C111.265 124.355 114.838 126.396 117.787 128.154C119.829 123.788 120.112 115.961 119.999 112.332C117.22 80.4027 88.3533 78.5312 88.3533 78.5312C87.0489 78.4178 85.7446 78.3611 84.4969 78.4178ZM136.218 90.781C137.466 94.5808 138.317 98.4939 138.714 102.577L151.361 93.5032L136.218 90.781ZM138.884 106.944C139.054 110.857 138.714 113.976 137.92 117.946L153.402 114.033L138.884 106.944ZM137.296 122.256C136.218 125.886 135.311 127.757 133.439 130.877L148.525 132.748L137.296 122.256Z" fill="#FFB81A"/>
<path d="M83.4196 21.8194C82.6256 21.8194 81.8317 21.8194 80.981 21.8761L90.7355 46.0922L103.042 23.8043C102.985 23.7476 95.3859 21.6492 83.4196 21.8194ZM78.1454 21.9895C78.1454 21.9895 69.1849 22.3298 56.5948 26.8101L73.2114 46.9429L78.1454 21.9895ZM105.537 24.258L107.636 50.2322L126.01 32.5947C126.01 32.6514 118.468 27.7742 105.537 24.258ZM54.2128 27.8876C54.2128 27.8876 46.9537 30.3262 36.1217 38.1525L56.538 53.1812L54.2128 27.8876ZM128.279 33.9558L122.551 59.3628L145.349 47.9637C145.349 48.0204 139.565 41.1582 128.279 33.9558ZM34.1367 39.8538C34.1367 39.8538 27.5581 44.9012 22.1138 51.8768L43.7778 65.6579L34.1367 39.8538ZM146.484 49.5516L133.496 72.1798L158.677 67.9831C158.677 67.9264 155.217 59.7031 146.484 49.5516ZM85.518 60.4404C71.2265 60.6672 59.6005 68.5502 54.0994 73.4275L59.8841 78.8718C56.7082 81.7641 52.6816 85.7907 50.4698 90.3277C50.4698 90.3277 40.9989 108.929 33.5129 132.805L40.9422 129.969C40.9422 129.969 41.2258 128.892 41.8496 127.077C47.0104 112.219 48.7118 111.595 48.7118 111.595C50.8668 108.986 55.9142 108.929 55.9142 108.929L73.7218 108.476C73.7218 108.476 70.546 117.493 50.1296 117.776L35.1009 177.551C35.1009 177.551 75.7635 160.594 89.7147 158.552H89.7714H89.8281C97.6544 150.953 94.3083 135.3 94.3083 135.3C94.3083 135.3 89.3744 150.329 81.2078 153.335L46.0463 165.415L56.7649 122.88C56.7649 122.88 78.8826 122.483 83.533 103.712C83.533 103.712 54.4397 102.407 52.2846 104.506C52.2846 104.506 59.8274 76.2063 88.5237 78.5315C88.5237 78.5315 117.39 80.3463 120.169 112.332C120.283 115.962 119.999 123.788 117.957 128.155C115.008 126.397 111.435 124.412 109.224 123.391L130.491 152.314C123.629 150.783 116.993 150.159 111.038 149.989H110.982C101.794 148.741 97.9379 142.73 97.9379 142.73L104.573 156.794C123.402 155.377 146.54 163.94 146.54 163.94L124.026 132.578C127.315 122.03 126.748 113.013 126.748 113.013C125.613 95.6019 116.313 79.5524 97.9379 73.711C97.9379 73.711 85.0076 69.2875 74.2322 73.1439C74.2322 73.1439 82.1719 65.6579 99.9796 70.4784L100.83 70.7053C119.489 76.6033 127.031 90.5545 130.15 101.84C131.115 105.527 133.099 114.203 131.001 130.026C131.001 130.026 135.878 120.896 135.481 108.646C135.141 82.5581 113.874 60.8374 87.1626 60.3837C86.4821 60.4404 86.0284 60.4404 85.518 60.4404ZM159.811 69.571L140.642 87.2652L165.936 90.7247C165.936 90.7247 165.085 81.8209 159.811 69.571ZM166.276 93.1066L143.705 104.619L166.446 114.43C166.446 114.43 167.977 105.924 166.276 93.1066ZM166.106 116.869L141.096 121.009L159.754 137.285C159.754 137.229 163.781 129.572 166.106 116.869ZM132.986 134.166L150.51 152.768C150.51 152.768 154.764 147.607 158.96 138.93L132.986 134.166Z" fill="#0038A8"/>
</svg>
