<svg width="201" height="201" viewBox="0 0 201 201" fill="none" xmlns="http://www.w3.org/2000/svg">
<g clip-path="url(#clip0_15016_302138)">
<path d="M55.8243 31.3903L57.7423 58.3799L22.6948 58.3621L30.1633 90.1981C29.1409 90.3134 28.2505 90.573 27.4916 90.9709C26.3382 90.3826 24.9328 90.0655 23.4075 90.0655C21.6862 90.0655 20.053 90.4576 18.7601 91.1842C18.6442 91.1669 18.1511 91.0228 18.1511 91.0228C15.0475 90.3307 8.6596 90.5787 8.38107 90.5787H8.35511C6.02534 90.5903 3.39102 90.6018 1.68181 92.401C-0.693295 94.898 0.524878 99.5287 0.716623 100.186C1.27231 102.13 2.60957 106.201 6.20065 106.345H6.2018C6.31079 106.351 6.72889 106.339 6.75484 106.339C6.89324 106.328 10.1284 106.062 12.8076 106.062C14.1386 106.062 15.8588 106.299 16.2498 106.299C16.8922 106.299 17.7198 106.184 18.6217 105.757C19.9705 106.426 21.3407 106.518 21.8632 106.524C21.8742 106.524 28.5555 106.53 30.6939 106.524L22.6948 141.903L58.8207 141.874L56.0348 166.677L55.7228 169.509L55.6744 169.906H126.006L125.977 169.526L125.81 166.81L123.791 137.86C127.626 136.696 131.208 135.3 134.472 133.668C140.469 130.675 145.371 126.932 149.038 122.55C152.966 117.867 155.457 112.464 156.472 106.483L158.778 106.495L162.925 109.944L169.562 110.924L171.506 110.03L173.259 110.716L181.707 108.646L183.149 107.666L184.567 107.735C184.567 107.735 190.138 105.03 191.516 104.281C192.699 103.64 194.388 102.712 195.686 101.922C196.332 101.524 200.386 99.5403 200.23 98.1736C200.149 96.8876 196.118 95.1345 195.426 94.7481C194.354 94.1541 192.872 93.3929 191.026 92.476C187.918 90.942 184.769 89.483 184.735 89.4715C184.394 89.31 182.728 89.5292 182.728 89.5292L181.448 88.4738L173.005 86.4739L171.09 87.3118L169.337 86.6146L162.388 87.768L159.107 91.4034L155.889 91.3745C154.54 86.1965 151.945 81.4678 148.162 77.2909C144.327 73.0541 139.298 69.4095 133.209 66.458C129.881 64.8468 126.283 63.4645 122.448 62.3135L125.833 31.3903H55.8243ZM87.3605 51.45H98.5076V58.4693C97.3312 58.4278 96.149 58.3996 94.961 58.3996L87.3605 58.3961V51.45ZM94.4593 77.0862C95.4512 77.0862 96.3854 77.1029 97.3024 77.1231L90.0247 84.5674H120.006L120.208 82.7053C122.146 84.1119 123.691 85.7883 124.879 87.7876C126.794 91.0285 127.774 95.1691 127.774 100.105C127.774 102.989 127.434 105.642 126.753 107.983C126.13 110.122 125.214 112.071 124.026 113.761C123.489 114.522 122.901 115.232 122.261 115.906L120.329 88.2201L87.3605 88.2259V77.1075C89.6037 77.1012 94.0614 77.0862 94.4593 77.0862ZM59.0744 77.1917L61.4504 110.636H99.5283V124.199C95.7857 124.505 91.9393 124.58 88.1563 124.58H85.048L94.0557 117.608H61.5426L60.7583 124.58H54.8468L57.2175 100.359C57.2348 100.186 57.2348 100.013 57.2175 99.8459L54.8768 77.2044C54.8768 77.2044 58.319 77.1946 59.0744 77.1917ZM99.5283 141.745V149.565H82.8278V141.849L94.961 141.837C96.495 141.837 98.0174 141.803 99.5283 141.745Z" fill="white"/>
<path d="M58.9302 34.2985L60.4872 58.4036L84.4539 58.3927V48.5407H101.414L101.42 77.0649L96.9332 81.6604H117.405L122.59 34.2985H58.9302ZM84.4539 77.1889L61.9001 77.1998L64.1376 107.696V107.73H102.435V123.906C106.771 123.387 110.912 122.493 114.591 120.959C116.483 120.163 118.155 119.247 119.614 118.191L117.63 91.1508L84.4539 91.1335V77.1889ZM64.1376 120.515L58.9302 167.001H122.907L121.044 138.79C115.029 140.295 108.703 141.201 102.435 141.587V152.475H79.927L79.9155 124.881L85.5554 120.515H64.1376Z" fill="#C41230"/>
<path d="M183.66 91.799L181.589 93.9111L181.217 93.7792L180.834 90.965L173.003 89.0411L171.29 92.1292L170.779 92.1032L169.336 89.1816L163.756 90.0856L160.22 93.9111L153.825 93.9241C150.954 79.0739 137.817 69.7116 122.167 64.9057L120.536 79.8005C126.402 83.5136 130.355 89.7417 130.355 100.103C130.355 125.959 105.051 127.15 88.1612 127.15H82.8255L82.8298 139.26H94.9667C122.201 139.26 150.333 129.429 154.016 105.557C154.016 105.557 154.129 104.86 154.246 103.887L159.867 103.921L163.628 107.469L169.561 108.342L170.801 105.401L171.241 105.341L173.259 108.136L181.075 106.149L181.3 103.231L181.784 103.072L183.971 105.223C184.558 105.082 196.187 99.0882 196.15 98.3558C196.104 97.5593 183.66 91.799 183.66 91.799ZM54.657 100.103L52.0194 74.627L98.5039 74.604L98.5075 60.9381L25.9111 60.9663L33.4266 92.8118C32.7685 92.7383 32.1486 92.6857 31.5964 92.6857C29.7777 92.6857 28.0491 93.529 27.6389 93.9969C27.5827 94.0574 27.3802 93.9673 27.0983 93.7756C26.2679 93.0497 24.9307 92.6352 23.4083 92.6352C22.0293 92.6352 20.7102 92.9711 19.7824 93.5651C19.4292 93.6927 19.1027 93.7525 18.7747 93.7525C18.3581 93.7525 17.4296 93.488 17.4296 93.488L17.4188 93.4858C16.9084 93.3323 16.3217 93.1571 15.6527 93.1571C15.6527 93.1571 14.3076 93.1362 13.6163 93.1138H13.6084C13.6084 93.1138 9.93783 93.0764 9.51686 93.1174C9.28691 93.1441 4.77081 92.9257 3.54537 94.1699C2.95572 94.7747 2.71929 95.75 2.80147 97.1232C2.85481 98.0473 3.04222 98.9621 3.18495 99.4667C4.18836 102.929 5.4549 103.722 6.34875 103.77C6.79999 103.846 10.0986 103.56 12.8082 103.483C14.0784 103.447 15.0292 103.537 15.6376 103.643C15.7803 103.68 15.9829 103.722 16.2503 103.722C16.8363 103.722 17.7266 103.523 18.6622 102.594L18.6925 102.598C19.6844 103.853 21.5406 103.943 21.9089 103.947H21.9125C22.3638 103.949 23.6267 103.95 25.4786 103.95C28.1464 103.95 31.4724 103.947 33.9218 103.937L25.9111 139.26H59.1089L60.4728 127.15H52.0108L54.6562 100.103" fill="black"/>
</g>
<defs>
<clipPath id="clip0_15016_302138">
<rect width="200" height="200" fill="white" transform="translate(0.234375 0.648438)"/>
</clipPath>
</defs>
</svg>
