<svg width="200" height="201" viewBox="0 0 200 201" fill="none" xmlns="http://www.w3.org/2000/svg">
<g clip-path="url(#clip0_15016_302079)">
<path d="M126.821 114.019C125.732 115.656 123.354 119.234 122.922 120.052C122.485 120.87 121.652 122.149 124.043 122.416C126.435 122.684 129.653 123.119 130.937 122.876C132.377 122.605 133.423 121.991 132.434 120.174C131.705 118.842 128.976 114.662 128.585 114.141C128.189 113.618 127.592 112.86 126.821 114.019ZM108.12 115.821C108.413 117.436 110.049 117.602 111.65 117.614C113.747 114.883 114.837 112.394 115.408 110.715C115.096 110.024 114.513 108.173 114.15 107.209C113.783 106.246 112.739 106.671 111.669 106.856C104.204 108.159 96.3616 102.798 89.9443 101.733C87.607 101.349 88.1037 102.716 88.4061 104.223C88.7061 105.73 90.6667 113.071 92.26 116.853C93.5319 119.88 96.1476 120.938 99.2168 121.473C103.001 122.138 103.904 124.571 105.845 125.538C106.637 125.005 107.609 123.911 107.928 123.114C107.541 121.862 106.387 121.804 104.962 121.307C102.478 120.446 101.888 119.399 100.767 118.598C97.3402 116.133 98.1369 114.194 100.002 114.348C101.869 114.504 105.283 114.494 106.375 114.329C107.265 114.195 107.825 114.206 108.12 115.821ZM199.503 92.8227C200.209 93.833 199.935 94.0226 199.998 95.124C200.079 96.6142 198.416 96.8662 197.351 99.1147C196.765 100.351 196.333 101.037 194.963 101.44C193.595 101.843 190.147 101.006 188.729 99.4746C187.306 97.9435 188.402 95.9829 187.718 94.7543C186.151 91.9347 183.399 90.874 182.221 89.8157C181.04 88.7599 179.706 88.3735 178.031 87.9536C173.392 86.7896 172.783 84.3348 171.117 81.9927C169.452 79.653 168.446 80.0657 167.863 80.2049C160.64 81.9807 152.087 85.2587 148.145 87.6801C141.48 91.774 138.706 96.4582 137.397 103.809C140.646 109.088 139.254 110.727 139.151 112.83C138.865 118.426 141.054 121.221 141.553 122.625C142.059 124.029 142.016 124.689 141.311 125.474C140.603 126.261 139.667 127.761 138.536 128.805C137.413 129.846 136.326 129.366 135.237 129.088C129.511 127.626 124.861 127.019 119.25 126.779C115.466 126.618 112.005 130.35 111.05 131.394C110.09 132.435 111.523 133.088 112.303 133.604C114.484 135.041 115.384 136.798 117.253 137.631C119.125 138.463 120.81 139.008 121.76 140.95C122.442 142.349 121.544 143.524 120.853 144.096C121.755 144.612 123.821 146.239 124.779 147.112C125.734 147.983 125.938 149.797 124.618 150.215C123.301 150.632 120.999 151.264 119.66 151.427C118.016 151.626 117.841 150.532 117.51 150.054C116.051 147.95 112.939 144.691 110.22 144.031C105.365 142.85 105.12 140.292 101.977 137.47C100.155 135.836 99.8938 137.201 97.6525 139.001C93.3402 142.469 93.1698 139.69 89.3374 142.053C82.9926 145.967 82.7718 143.534 83.1053 142.514C83.4316 141.494 84.2283 139.93 85.733 136.829C87.4344 133.321 90.0692 136.32 92.289 134.333C94 132.802 95.2767 130.681 95.2767 130.681C92.1642 127.417 91.3868 129.073 85.2939 128.8C79.6305 128.543 79.3473 126.58 78.0515 122.62C74.7086 112.41 69.0693 110.005 61.0828 104.728C54.3996 100.308 57.2649 98.0809 53.2285 94.1819C51.16 92.1829 51.1335 90.9087 50.7064 88.7417C50.2841 86.5772 49.9409 86.5796 48.0092 86.2916C46.0726 86.0037 38.6191 85.2285 34.7814 81.893C30.6491 78.3005 30.5675 79.738 25.7129 79.9708C9.94181 80.7243 0.29771 69.7067 0.0114213 63.9789C-0.144566 60.8593 1.4728 60.173 3.11191 61.7184C4.75091 63.2638 9.5648 66.8514 16.8598 67.6385C26.6651 68.692 30.1733 66.0714 33.1944 66.6186C39.1361 67.6865 38.8554 70.3118 42.1862 75.3897C44.1108 78.3221 55.8333 73.2755 57.4513 72.4476C64.8784 68.6537 73.2153 63.6575 87.0953 65.822C103.188 68.3297 115.17 65.45 121.285 63.259C125.993 61.5745 123.644 61.2073 122.549 60.4011C121.46 59.5972 118.081 57.1494 118.782 55.6855C119.823 53.5042 131.904 60.053 133.785 57.7276C134.67 56.631 125.506 52.0931 127.677 49.4414C129.835 46.8066 132.755 52.2107 140.197 54.284C144.432 55.4647 145.908 55.9854 146.46 55.2991C147.568 53.9169 145.373 52.9186 146.484 51.9251C147.957 50.6101 152.025 53.629 155.567 55.2056C159.305 56.8686 155.327 50.7326 161.868 55.2225C166.718 58.5437 170.003 58.9828 173.598 59.0188C175.943 59.0428 175.084 58.2605 175.41 56.5639C175.736 54.8649 176.706 49.9501 177.922 49.1487C180.349 47.5626 180.735 52.9907 181.484 56.9527C182.23 60.9098 183.912 63.7127 188.284 67.6099C191.651 70.6071 191.226 72.6493 192.117 75.6129C193.636 80.6668 195.109 86.5546 199.503 92.8227Z" fill="#CC0035"/>
</g>
<defs>
<clipPath id="clip0_15016_302079">
<rect width="200" height="200" fill="white" transform="translate(0 0.09375)"/>
</clipPath>
</defs>
</svg>
