<svg width="201" height="201" viewBox="0 0 201 201" fill="none" xmlns="http://www.w3.org/2000/svg">
<g clip-path="url(#clip0_15016_304243)">
<path d="M80.5145 160.62C80.5145 160.62 85.3391 154.755 88.2994 153.955C88.2994 153.955 89.9076 140.09 88.8355 137.417C88.8355 137.417 86.9552 132.889 79.1703 133.425C79.1703 133.425 73.5297 134.481 72.7296 137.417C72.7296 137.417 71.1134 142.49 71.9215 145.146C71.9215 145.146 72.7296 151.555 80.5145 160.62ZM115.183 67.5451C149.067 70.1214 157.98 80.0425 157.98 80.0425C163.044 81.8427 164.492 78.4903 164.492 78.4903C166.925 71.6495 160.076 66.5849 160.076 66.5849C157.347 64.0326 153.907 62.4245 150.619 60.6562C148.234 59.3841 145.45 57.5199 145.45 57.5199C127.176 45.3985 142.418 34.3012 142.418 34.3012C142.762 30.0607 148.122 30.1967 148.122 30.1967C150.675 29.6606 151.939 27.6924 151.939 27.6924L152.675 29.8686C154.347 28.9325 156.923 30.2127 156.923 30.2127C158.98 30.8368 161.028 29.7406 161.028 29.7406L159.996 31.4688C162.34 31.2448 163.292 33.5331 163.292 33.5331C159.7 34.0371 159.564 35.2693 159.564 35.2693C161.836 36.1014 161.58 38.7577 161.58 38.7577C158.092 37.4935 155.651 39.3257 155.651 39.3257C145.042 43.9823 142.77 38.2616 142.77 38.2616C134.513 47.4547 149.707 54.9596 149.707 54.9596C152.171 56.5998 156.603 58.208 159.012 59.3921C166.661 62.8565 169.349 65.6568 169.349 65.6568C181.806 77.4662 166.733 92.652 166.733 92.652C169.197 102.333 167.749 110.39 167.749 110.39L171.669 110.398C172.069 127.8 159.372 139.281 159.372 139.281C154.931 133.865 139.145 121.911 139.145 121.911L144.378 138.449C150.627 144.242 153.531 148.379 153.531 148.379C155.075 150.867 152.787 151.259 152.531 151.331C140.009 154.835 126.816 153.875 122.423 152.643C119.911 152.243 121.119 150.243 121.119 150.243C123.127 145.138 127.056 142.85 127.056 142.85C125.44 137.849 120.855 133.529 120.855 133.529C118.919 133.361 117.783 134.209 117.783 134.209L113.358 155.859C118.471 160.268 120.855 169.749 120.855 169.749C122.911 175.718 117.783 175.838 117.783 175.838H99.3887L53.1433 176.638C-4.91152 133.113 25.22 86.4753 25.22 86.4753C37.0214 68.9212 115.183 67.5371 115.183 67.5451Z" fill="black"/>
<path d="M122.007 73.5538C120.527 73.5378 118.991 73.5698 117.407 73.6418L86.811 106.31L89.7553 114.575L92.9797 115.911L93.2437 135.369L99.9165 123.736L92.1716 155.899C92.1716 155.899 84.2667 160.316 82.4344 165.861C81.4743 165.269 80.1062 164.621 78.21 163.9C78.21 163.9 72.4093 156.668 70.6971 152.699C70.6971 152.699 60.0638 146.586 58.0876 140.698C58.8957 141.226 62.1121 143.362 66.9366 143.898C66.9366 143.898 64.7604 138.601 66.5366 131.161C66.5366 131.161 54.8632 122.416 50.5667 112.438C50.5667 112.438 56.6314 114.319 61.0399 115.103L55.9433 105.238L40.9176 88.9716L26.6199 93.8362C26.6199 93.8362 10.482 130.28 62.9202 171.365C62.9202 171.365 83.4986 171.365 84.1786 167.989L89.8913 172.173H117.607C117.607 172.173 115.814 160.172 108.838 156.972L123.247 108.886C123.247 108.886 130.92 122.904 146.45 105.806C146.45 105.806 146.674 112.446 144.266 115.911L151.739 123.84L163.596 126.304L157.115 130C157.115 130 172.013 130.056 167.132 114.047C167.132 114.047 165.476 119.111 163.06 121.519C163.06 121.519 165.74 107.918 161.98 95.9085C161.98 95.9085 160.82 88.1075 155.003 83.379C154.995 83.371 144.266 73.7699 122.007 73.5538Z" fill="#EAAA00"/>
<path d="M88.619 123.232C88.619 123.232 80.6421 116.871 69.0887 125.64C69.0887 125.64 66.0724 123.192 64.7842 122.36C64.7842 122.36 50.8386 110.318 52.2068 102.549C52.2068 102.549 69.1288 118.167 94.0517 114.223C94.0597 114.231 93.4516 120.439 88.619 123.232Z" fill="white"/>
<path d="M51.1428 156.235C50.9508 152.403 163.252 126.76 163.252 126.76C163.252 126.76 155.499 161.26 104.357 173.493C104.365 173.485 52.1749 177.814 51.1428 156.235Z" fill="#EAAA00"/>
<path d="M158.108 130.849C158.108 130.849 151.011 159.452 104.741 166.997C73.3456 172.117 57.0157 158.684 57.0157 158.684L31.1406 160.628C31.1406 160.628 56.3916 199.985 124.824 181.071C124.824 181.071 168.149 168.285 176.31 132.449L158.108 130.849Z" fill="black"/>
<path d="M66.5445 170.797L64.8963 174.582C64.6803 175.094 64.3763 175.51 64.0002 175.782C63.6242 176.062 63.2881 176.142 62.9841 176.022L59.3517 174.566C59.0556 174.446 58.8796 174.158 58.8316 173.693C58.7916 173.245 58.8636 172.749 59.0957 172.237L60.7598 168.461C60.8239 168.293 60.8159 168.165 60.7038 168.069C60.6078 167.981 60.5678 167.901 60.6078 167.845C60.6238 167.789 60.6558 167.757 60.6958 167.741C60.7358 167.725 60.7839 167.733 60.8479 167.757L63.3922 168.765C63.5282 168.821 63.5522 168.901 63.5122 168.997C63.4802 169.053 63.3922 169.085 63.2561 169.085C63.1201 169.077 63.0161 169.157 62.9281 169.333L61.2799 173.101C61.2159 173.285 61.1759 173.445 61.2079 173.589C61.2319 173.741 61.2719 173.837 61.3759 173.877L62.104 174.174C62.2 174.206 62.312 174.174 62.44 174.085C62.5681 173.997 62.6721 173.861 62.7441 173.685L64.4083 169.917C64.4723 169.741 64.4643 169.605 64.3523 169.517C64.2483 169.429 64.2163 169.349 64.2403 169.293C64.2963 169.189 64.3763 169.157 64.4963 169.205L67.0406 170.213C67.1606 170.269 67.1926 170.349 67.1366 170.445C67.1286 170.517 67.0406 170.541 66.8886 170.533L66.8806 170.549C66.7366 170.541 66.6325 170.629 66.5445 170.797ZM59.1037 169.253L57.7115 171.605C57.4155 172.109 57.0714 172.461 56.6554 172.693C56.2633 172.925 55.9193 172.965 55.6232 172.805L52.2068 170.893C51.9188 170.741 51.7668 170.429 51.7988 169.973C51.7988 169.517 51.9428 169.045 52.2308 168.565L53.631 166.213C53.919 165.709 54.2711 165.356 54.6791 165.124C54.8792 165.004 55.0712 164.932 55.2392 164.916C55.4072 164.9 55.5672 164.924 55.7033 165.004L59.1277 166.909C59.4157 167.077 59.5437 167.373 59.5357 167.845C59.5437 168.277 59.4077 168.765 59.1037 169.253ZM57.2074 167.629C57.2074 167.485 57.1514 167.373 57.0634 167.317L56.3753 166.941C56.3273 166.917 56.2793 166.909 56.2233 166.917C56.1673 166.925 56.1033 166.949 56.0393 166.989C55.9033 167.061 55.7673 167.181 55.6873 167.349L54.2791 169.701C54.1831 169.869 54.1351 170.029 54.1351 170.181C54.1351 170.325 54.1751 170.421 54.2791 170.485L54.9512 170.853C55.0472 170.917 55.1672 170.893 55.3032 170.821C55.4392 170.749 55.5512 170.629 55.6473 170.477L57.0554 168.117C57.1514 167.941 57.2074 167.781 57.2074 167.629ZM50.5587 168.213L49.4465 167.405C49.4065 167.381 49.3905 167.317 49.4065 167.245C49.4065 167.165 49.4385 167.093 49.4945 167.029L52.1828 163.492C52.3109 163.34 52.4229 163.292 52.5669 163.332C52.6949 163.364 52.7829 163.356 52.8229 163.3C52.9029 163.22 52.8869 163.132 52.7669 163.052L50.5427 161.428C50.4866 161.396 50.4386 161.38 50.3906 161.388C50.3426 161.396 50.3106 161.42 50.2786 161.46C50.2386 161.516 50.2706 161.596 50.3346 161.708C50.4146 161.82 50.3986 161.956 50.2946 162.108L46.9662 166.461C46.8622 166.597 46.7342 166.653 46.6062 166.605C46.4702 166.565 46.3902 166.581 46.3342 166.637C46.2701 166.717 46.2781 166.797 46.3902 166.877L49.7426 169.309C49.8226 169.381 49.9426 169.381 50.0786 169.309C50.2226 169.253 50.3586 169.157 50.4786 169.013L50.4866 169.005L50.4786 168.997C50.6147 168.853 50.6707 168.693 50.6867 168.549C50.6787 168.389 50.6467 168.285 50.5587 168.213ZM70.217 171.837C70.289 171.669 70.385 171.565 70.521 171.557C70.657 171.557 70.737 171.509 70.761 171.445C70.793 171.349 70.761 171.269 70.633 171.229L68.0167 170.453C67.8807 170.421 67.8087 170.453 67.7607 170.573C67.7447 170.621 67.7847 170.693 67.8967 170.781C68.0167 170.861 68.0487 170.989 67.9847 171.173L66.2325 176.398C66.1685 176.566 66.0725 176.654 65.9365 176.654C65.7844 176.67 65.7124 176.702 65.6964 176.782C65.6564 176.878 65.6964 176.942 65.8164 176.982L68.4327 177.774C68.5688 177.798 68.6488 177.774 68.6808 177.654C68.6968 177.59 68.6648 177.518 68.5528 177.446C68.4327 177.366 68.4087 177.222 68.4648 177.054L70.217 171.837ZM81.8103 173.429C81.8423 173.325 81.7863 173.253 81.6583 173.245L78.946 172.901C78.818 172.885 78.754 172.933 78.722 173.053C78.706 173.109 78.762 173.165 78.882 173.245C79.01 173.309 79.058 173.429 79.026 173.621L78.0979 179.054C78.0739 179.246 77.9779 179.334 77.8578 179.366C77.7218 179.398 77.6418 179.446 77.6338 179.526C77.6098 179.622 77.6578 179.694 77.7858 179.71L80.4982 180.054C80.6342 180.078 80.7142 180.03 80.7222 179.902C80.7302 179.846 80.6822 179.79 80.5622 179.726C80.4342 179.662 80.3942 179.534 80.4262 179.35L81.3383 173.925C81.3703 173.733 81.4583 173.629 81.6023 173.597C81.7383 173.557 81.8103 173.493 81.8103 173.429ZM77.7538 173.501C77.7458 173.509 77.7538 173.509 77.7538 173.501C77.8338 173.117 77.6818 172.781 77.4658 172.741L72.9533 171.805C72.8733 171.789 72.7933 171.789 72.7132 171.797C72.4732 171.829 72.2332 171.973 71.9932 172.221C71.6651 172.573 71.4331 173.021 71.2971 173.589C71.1691 174.133 71.1611 174.622 71.2891 175.062C71.4091 175.51 71.6411 175.758 71.9532 175.822L74.2494 176.286C74.3454 176.31 74.4254 176.406 74.4575 176.542C74.4975 176.694 74.4975 176.854 74.4575 177.046C74.4174 177.23 74.3374 177.39 74.2254 177.486C74.1134 177.598 74.0094 177.654 73.9054 177.63L70.857 177.006C70.753 176.982 70.641 177.03 70.537 177.142C70.433 177.262 70.353 177.414 70.305 177.598C70.265 177.782 70.249 177.95 70.305 178.086C70.337 178.23 70.409 178.31 70.513 178.342L75.1055 179.286C75.4256 179.35 75.7456 179.206 76.0576 178.87C76.3777 178.526 76.6097 178.086 76.7457 177.51C76.8817 176.95 76.8817 176.47 76.7537 176.03C76.6257 175.59 76.4177 175.334 76.0816 175.27L73.8014 174.798C73.6814 174.774 73.6174 174.694 73.5694 174.55C73.5213 174.414 73.5213 174.238 73.5773 174.061C73.6254 173.869 73.6974 173.709 73.8094 173.605C73.9134 173.501 74.0174 173.429 74.1214 173.461L77.1058 174.077C77.3218 174.117 77.6338 173.877 77.7298 173.509L77.7538 173.501ZM126.624 173.013L125.087 167.733C125.023 167.549 125.055 167.413 125.175 167.325C125.279 167.237 125.319 167.157 125.303 167.093C125.295 167.037 125.271 167.005 125.231 166.981C125.191 166.965 125.143 166.965 125.087 166.997L122.503 167.925C122.383 167.981 122.335 168.053 122.367 168.173C122.383 168.229 122.455 168.261 122.591 168.269C122.727 168.261 122.831 168.349 122.887 168.525L124.415 173.829C124.463 173.989 124.447 174.133 124.327 174.222C124.207 174.318 124.167 174.39 124.191 174.462C124.223 174.558 124.295 174.59 124.423 174.55L126.992 173.613C127.12 173.573 127.16 173.501 127.128 173.373C127.104 173.333 127.032 173.293 126.896 173.285C126.768 173.277 126.68 173.189 126.624 173.013ZM140.721 165.765C140.601 165.677 140.497 165.661 140.385 165.709L137.465 167.309C137.425 167.333 137.369 167.317 137.305 167.277C137.241 167.237 137.193 167.165 137.161 167.085L136.865 166.469C136.777 166.245 136.777 166.117 136.889 166.061L139.145 164.836C139.233 164.78 139.297 164.676 139.305 164.524C139.321 164.372 139.273 164.196 139.185 164.036C139.113 163.844 139.017 163.708 138.889 163.628C138.769 163.556 138.657 163.532 138.569 163.588L136.329 164.796C136.281 164.82 136.225 164.82 136.161 164.764C136.105 164.74 136.049 164.676 136.017 164.58L135.729 163.964C135.633 163.748 135.641 163.604 135.761 163.556L138.617 161.996C138.817 161.884 138.889 161.492 138.745 161.14C138.745 161.148 138.753 161.148 138.753 161.156V161.148L138.745 161.14C138.625 160.884 138.417 160.732 138.233 160.716C138.169 160.708 138.113 160.724 138.065 160.748L132.8 163.62C132.696 163.692 132.648 163.764 132.704 163.868C132.728 163.932 132.808 163.94 132.944 163.932C133.08 163.908 133.192 163.988 133.264 164.156L135.545 169.157C135.609 169.325 135.601 169.453 135.489 169.565C135.401 169.677 135.369 169.757 135.401 169.821C135.433 169.917 135.513 169.949 135.625 169.885L140.961 166.973C141.057 166.909 141.105 166.813 141.113 166.661C141.137 166.509 141.105 166.325 141.025 166.165C140.937 165.981 140.841 165.853 140.721 165.765ZM132.072 164.756C132.008 164.572 132.016 164.444 132.128 164.34C132.24 164.236 132.272 164.172 132.256 164.092C132.24 164.036 132.216 164.004 132.176 163.996C132.136 163.98 132.088 163.996 132.024 164.02L129.52 165.116C129.4 165.164 129.368 165.252 129.4 165.364C129.424 165.42 129.488 165.46 129.64 165.452C129.776 165.436 129.872 165.524 129.944 165.693L131.328 169.581C131.4 169.757 131.416 169.933 131.392 170.085C131.368 170.237 131.296 170.333 131.208 170.381L130.312 170.773C130.264 170.797 130.224 170.781 130.144 170.733C130.096 170.693 130.056 170.613 130.008 170.541L128.496 166.325C128.44 166.149 128.464 166.005 128.552 165.917C128.656 165.829 128.688 165.741 128.672 165.661C128.648 165.564 128.56 165.532 128.456 165.596L125.935 166.693C125.831 166.741 125.775 166.821 125.831 166.941C125.847 166.981 125.911 167.021 126.048 167.013C126.184 166.997 126.288 167.093 126.36 167.261L128.208 172.445C128.28 172.605 128.264 172.749 128.152 172.853C128.04 172.941 128 173.013 128.032 173.085C128.056 173.189 128.136 173.229 128.256 173.173L133.104 171.045C133.4 170.909 133.576 170.613 133.664 170.157C133.728 169.685 133.688 169.173 133.472 168.637L132.072 164.756ZM114.43 171.053C114.406 170.869 114.446 170.741 114.566 170.653C114.678 170.573 114.734 170.517 114.71 170.437C114.71 170.325 114.638 170.285 114.518 170.317L111.846 170.917C111.726 170.949 111.67 171.021 111.694 171.141C111.702 171.197 111.774 171.237 111.91 171.261C112.046 171.285 112.118 171.381 112.158 171.565L112.83 175.646C112.854 175.838 112.838 176.014 112.79 176.15C112.726 176.294 112.662 176.374 112.558 176.406L111.79 176.582C111.694 176.606 111.582 176.558 111.502 176.446C111.406 176.334 111.334 176.182 111.302 175.998L110.638 171.901C110.614 171.709 110.654 171.589 110.774 171.509C110.894 171.429 110.942 171.365 110.934 171.301C110.91 171.181 110.846 171.133 110.71 171.165L108.053 171.773C107.933 171.805 107.893 171.869 107.901 171.989C107.909 172.045 107.981 172.093 108.101 172.109C108.245 172.133 108.325 172.245 108.357 172.413L109.03 176.51C109.118 177.062 109.318 177.51 109.598 177.862C109.878 178.222 110.182 178.358 110.494 178.294L114.294 177.422C114.614 177.35 114.854 177.094 115.006 176.646C115.166 176.198 115.198 175.702 115.102 175.126L114.43 171.053ZM88.5071 174.294C88.6991 174.702 88.7631 175.198 88.7071 175.766L88.2991 179.878C88.2831 180.054 88.3311 180.182 88.4591 180.23C88.5791 180.278 88.6431 180.342 88.6351 180.422C88.6191 180.526 88.5471 180.582 88.4271 180.574L85.7068 180.438C85.5788 180.43 85.5148 180.374 85.5388 180.262C85.5468 180.182 85.6108 180.126 85.7468 180.094C85.8908 180.054 85.9628 179.942 85.9788 179.75L86.0668 178.726C86.0748 178.622 86.0668 178.542 86.0348 178.486C86.0028 178.406 85.9708 178.374 85.9148 178.374L84.7467 178.286C84.6266 178.286 84.5466 178.398 84.5146 178.63L84.4186 179.662C84.3946 179.854 84.4426 179.966 84.5706 180.022C84.6907 180.078 84.7467 180.15 84.7467 180.206C84.7307 180.326 84.6747 180.374 84.5386 180.366L81.8183 180.23C81.6823 180.222 81.6263 180.166 81.6503 180.054C81.6503 179.982 81.7303 179.926 81.8503 179.894C81.9863 179.854 82.0743 179.726 82.0903 179.558L82.4984 175.43C82.5544 174.862 82.7064 174.382 82.9865 173.989C83.2505 173.597 83.5545 173.397 83.8666 173.429L87.755 173.629C88.067 173.653 88.3231 173.869 88.5071 174.294ZM86.3788 175.638C86.3869 175.438 86.3708 175.286 86.3068 175.134C86.2428 175.006 86.1628 174.926 86.0508 174.918L85.2827 174.87C85.1707 174.87 85.0747 174.934 84.9867 175.062C84.8907 175.19 84.8427 175.35 84.8187 175.55L84.7147 176.558C84.7067 176.662 84.7147 176.75 84.7547 176.814C84.7867 176.878 84.8267 176.926 84.8747 176.934L86.0428 176.998C86.1628 177.006 86.2508 176.886 86.2748 176.662L86.3709 175.622H86.3788V175.638ZM153.299 155.659C152.971 155.195 152.611 154.875 152.203 154.699C151.803 154.491 151.474 154.499 151.218 154.707L149.386 156.187C149.29 156.259 149.186 156.259 149.058 156.195C148.922 156.147 148.794 156.027 148.69 155.875C148.586 155.707 148.514 155.547 148.506 155.387C148.49 155.235 148.514 155.131 148.602 155.051L150.994 153.123C151.17 152.979 151.186 152.595 150.978 152.275C150.818 152.035 150.578 151.923 150.394 151.931C150.33 151.939 150.282 151.955 150.242 151.987L146.61 154.923C146.354 155.123 146.25 155.459 146.306 155.931C146.354 156.419 146.538 156.883 146.866 157.356C147.186 157.82 147.546 158.148 147.954 158.324C148.362 158.508 148.69 158.508 148.946 158.3L150.794 156.819C150.874 156.747 150.978 156.747 151.114 156.811C151.25 156.883 151.386 156.995 151.482 157.148C151.586 157.292 151.65 157.452 151.666 157.62C151.674 157.772 151.642 157.892 151.562 157.956L149.114 159.932C149.026 159.996 148.994 160.116 149.01 160.268C149.042 160.436 149.098 160.588 149.202 160.748C149.298 160.9 149.426 161.02 149.554 161.076C149.69 161.132 149.794 161.132 149.882 161.068L153.555 158.1C153.811 157.9 153.923 157.556 153.867 157.076C153.811 156.603 153.627 156.139 153.299 155.659ZM148.306 162.02C148.362 162.116 148.338 162.204 148.234 162.276L145.938 163.804C145.842 163.868 145.754 163.844 145.698 163.764C145.666 163.692 145.698 163.62 145.786 163.492C145.874 163.38 145.858 163.252 145.786 163.092L145.442 162.492C145.346 162.324 145.242 162.196 145.106 162.14C144.978 162.068 144.858 162.044 144.77 162.116L143.954 162.644C143.842 162.716 143.842 162.844 143.962 163.052L144.458 163.932C144.546 164.108 144.666 164.172 144.794 164.14C144.93 164.108 145.002 164.116 145.042 164.172C145.09 164.276 145.066 164.364 144.97 164.436L142.673 165.949C142.561 166.037 142.489 166.005 142.433 165.917C142.393 165.861 142.425 165.781 142.505 165.653C142.593 165.548 142.593 165.404 142.505 165.252L139.817 160.46C139.737 160.3 139.609 160.228 139.465 160.268C139.329 160.292 139.265 160.276 139.233 160.228C139.177 160.124 139.201 160.044 139.305 159.972L143.722 157.043C143.858 156.955 144.018 156.915 144.178 156.931C144.346 156.947 144.522 157.003 144.714 157.124C145.106 157.34 145.442 157.692 145.714 158.196L146.058 158.796C146.234 159.124 146.33 159.452 146.33 159.764C146.346 160.092 146.25 160.308 146.074 160.428C146.25 160.308 146.466 160.308 146.73 160.46C146.994 160.62 147.218 160.86 147.394 161.188L147.73 161.772C147.834 161.932 147.93 162.004 148.066 161.972C148.202 161.94 148.274 161.964 148.322 162.012H148.306V162.02ZM144.218 160.564C144.226 160.412 144.17 160.252 144.082 160.084L143.746 159.5L143.754 159.492C143.658 159.324 143.538 159.212 143.402 159.124C143.338 159.092 143.282 159.068 143.234 159.068C143.178 159.068 143.129 159.076 143.081 159.116L142.265 159.644C142.153 159.724 142.161 159.86 142.273 160.068L142.937 161.26C142.977 161.332 143.041 161.396 143.106 161.436C143.186 161.46 143.226 161.476 143.274 161.444L144.106 160.9C144.186 160.852 144.226 160.724 144.218 160.564ZM157.371 154.131C157.251 154.195 157.139 154.147 157.011 153.995L153.587 149.747C153.467 149.603 153.435 149.475 153.515 149.339C153.579 149.219 153.603 149.139 153.547 149.075C153.515 149.035 153.483 149.011 153.443 149.011C153.403 149.011 153.363 149.035 153.315 149.075L151.306 150.971C151.21 151.051 151.202 151.155 151.274 151.243C151.306 151.283 151.394 151.299 151.514 151.235C151.65 151.187 151.771 151.227 151.891 151.371L155.299 155.643C155.419 155.779 155.443 155.915 155.371 156.043C155.299 156.171 155.283 156.259 155.339 156.315C155.395 156.403 155.483 156.411 155.571 156.315L157.587 154.427C157.683 154.347 157.699 154.243 157.619 154.147C157.587 154.099 157.499 154.099 157.371 154.131ZM123.335 174.726V174.718C123.311 174.654 123.247 174.614 123.111 174.598C122.975 174.582 122.895 174.494 122.855 174.31L121.943 170.285C121.815 169.725 121.599 169.285 121.295 168.957C121.063 168.701 120.831 168.565 120.599 168.557V168.565C120.519 168.565 120.447 168.573 120.367 168.605L116.622 169.693C116.318 169.781 116.102 170.061 115.966 170.509C115.838 170.981 115.83 171.493 115.958 172.053L116.87 176.086C116.91 176.27 116.87 176.39 116.758 176.478C116.646 176.566 116.59 176.638 116.614 176.702C116.63 176.814 116.702 176.854 116.822 176.814L119.447 176.046C119.575 176.014 119.623 175.926 119.591 175.814C119.575 175.758 119.503 175.718 119.367 175.702C119.231 175.686 119.151 175.59 119.111 175.414L118.207 171.373C118.159 171.181 118.159 171.013 118.215 170.861C118.255 170.717 118.327 170.613 118.423 170.581L119.167 170.365C119.271 170.341 119.375 170.373 119.479 170.485C119.583 170.605 119.655 170.757 119.711 170.933L120.615 174.974C120.647 175.15 120.615 175.286 120.495 175.374C120.383 175.454 120.335 175.526 120.351 175.59C120.367 175.702 120.439 175.734 120.567 175.702L123.191 174.934C123.311 174.902 123.359 174.838 123.335 174.726C123.335 174.734 123.343 174.734 123.343 174.734L123.335 174.726ZM104.549 179.238C104.557 179.358 104.493 179.422 104.365 179.43L101.653 179.758C101.533 179.774 101.469 179.718 101.469 179.614C101.453 179.542 101.517 179.486 101.645 179.422C101.789 179.358 101.829 179.23 101.821 179.062L101.749 178.014C101.749 177.934 101.717 177.846 101.685 177.79C101.645 177.734 101.597 177.702 101.541 177.702L100.38 177.838C100.252 177.854 100.196 177.974 100.204 178.214L100.276 179.238C100.292 179.422 100.356 179.534 100.485 179.566C100.621 179.598 100.685 179.654 100.685 179.702C100.693 179.822 100.637 179.894 100.501 179.91L97.7962 180.238C97.6682 180.254 97.6042 180.198 97.6042 180.094C97.5962 180.014 97.6522 179.958 97.7882 179.894C97.9082 179.83 97.9722 179.702 97.9642 179.534L97.6922 175.398C97.6522 174.814 97.7482 174.326 97.9402 173.893C98.1322 173.461 98.4043 173.229 98.7163 173.181L102.589 172.717C102.917 172.677 103.205 172.845 103.453 173.229C103.701 173.597 103.853 174.069 103.885 174.654L104.149 178.774C104.165 178.966 104.237 179.086 104.365 179.118C104.477 179.118 104.533 179.174 104.549 179.238ZM101.637 175.934L101.565 174.902H101.573C101.557 174.718 101.525 174.55 101.429 174.422C101.341 174.31 101.245 174.246 101.133 174.254L100.372 174.35C100.268 174.358 100.18 174.446 100.116 174.582C100.06 174.718 100.028 174.894 100.028 175.086L100.092 176.126C100.1 176.214 100.124 176.286 100.18 176.366C100.212 176.43 100.268 176.454 100.316 176.454L101.485 176.318C101.589 176.294 101.653 176.174 101.637 175.934ZM166.652 143.25C166.532 143.346 166.404 143.314 166.268 143.194L164.98 142.098C164.804 141.946 164.756 141.81 164.836 141.714L165.188 141.226C165.388 140.97 165.396 140.618 165.228 140.17C165.06 139.729 164.764 139.321 164.332 138.961L163.3 138.081C163.164 137.961 163.116 137.833 163.156 137.689H163.164C163.204 137.553 163.196 137.465 163.14 137.417C163.1 137.377 163.06 137.361 163.02 137.369C162.98 137.377 162.94 137.409 162.9 137.465L161.268 139.705C161.18 139.817 161.18 139.897 161.276 139.977C161.316 140.009 161.404 140.001 161.516 139.921C161.636 139.849 161.764 139.857 161.9 139.985L162.94 140.874C163.076 140.994 163.188 141.13 163.236 141.266C163.292 141.41 163.276 141.538 163.228 141.618L162.764 142.266C162.692 142.362 162.588 142.386 162.436 142.37C162.3 142.338 162.156 142.266 162.012 142.154L160.972 141.274C160.836 141.138 160.788 141.01 160.836 140.874C160.868 140.738 160.86 140.658 160.804 140.618C160.732 140.546 160.652 140.546 160.572 140.674L158.939 142.914C158.867 143.018 158.859 143.098 158.947 143.186C158.995 143.226 159.075 143.218 159.195 143.13C159.315 143.042 159.443 143.066 159.579 143.186L160.62 144.066C161.044 144.434 161.468 144.658 161.908 144.722C162.356 144.794 162.676 144.69 162.868 144.426L163.212 143.946C163.244 143.914 163.3 143.89 163.38 143.914C163.444 143.922 163.516 143.946 163.588 144.01L164.892 145.106C165.028 145.226 165.068 145.354 165.036 145.498C164.98 145.634 164.996 145.714 165.044 145.77C165.124 145.842 165.204 145.826 165.284 145.714L166.916 143.474C166.988 143.362 166.988 143.274 166.908 143.186C166.844 143.162 166.764 143.186 166.652 143.25ZM96.444 180.006C96.316 179.966 96.268 179.846 96.268 179.662L96.324 175.518C96.332 174.942 96.22 174.47 96.004 174.069C95.7799 173.669 95.5079 173.477 95.1879 173.485L91.2914 173.629C90.9794 173.645 90.6994 173.853 90.4673 174.262C90.2193 174.694 90.0993 175.174 90.0993 175.758L90.0433 179.902C90.0433 180.078 89.9713 180.198 89.8353 180.246C89.7152 180.302 89.6512 180.366 89.6512 180.43C89.6432 180.534 89.7072 180.59 89.8353 180.59L92.5556 180.486C92.6996 180.486 92.7476 180.414 92.7476 180.302C92.7476 180.246 92.6916 180.19 92.5556 180.15C92.4276 180.11 92.3716 179.99 92.3716 179.798L92.4276 175.67C92.4356 175.462 92.4756 175.31 92.5636 175.166C92.6356 175.038 92.7236 174.958 92.8356 174.95L93.6037 174.918C93.7237 174.918 93.8117 174.99 93.8917 175.11C93.9477 175.246 94.0037 175.414 94.0037 175.598L93.9397 179.742C93.9317 179.926 93.8757 180.038 93.7477 180.094C93.6037 180.142 93.5557 180.206 93.5557 180.286C93.5397 180.382 93.6037 180.446 93.7237 180.438L96.452 180.326C96.572 180.326 96.6361 180.27 96.6441 180.166C96.6361 180.094 96.572 180.038 96.444 180.006ZM161.564 149.739C161.444 149.803 161.316 149.771 161.196 149.627L158.171 146.402C158.011 146.234 157.979 146.098 158.059 146.002L158.939 145.034C159.099 144.866 159.043 144.466 158.787 144.186C158.787 144.186 158.795 144.186 158.795 144.194L158.787 144.186C158.659 144.05 158.507 143.97 158.363 143.938C158.219 143.914 158.091 143.946 158.011 144.026L154.323 148.066C154.259 148.146 154.243 148.258 154.275 148.402C154.307 148.571 154.403 148.715 154.523 148.851C154.651 148.987 154.795 149.075 154.931 149.107C155.075 149.147 155.163 149.139 155.251 149.051L156.195 148.026C156.219 147.994 156.275 147.97 156.347 148.002C156.419 148.01 156.491 148.058 156.555 148.122L159.587 151.363C159.715 151.499 159.747 151.635 159.691 151.763C159.627 151.899 159.627 151.979 159.683 152.035C159.755 152.123 159.835 152.123 159.923 152.011L161.796 149.963C161.868 149.867 161.884 149.779 161.804 149.691C161.772 149.675 161.676 149.675 161.564 149.739Z" fill="white"/>
<path d="M139.057 91.3958C139.057 91.3958 128.663 118.783 92.1311 110.902C92.1311 110.902 91.0589 114.126 99.3319 116.487C99.3319 116.487 55.8628 126.144 39.6209 91.4118C39.6209 91.4118 34.2283 94.3881 33.1962 102.269C33.1962 102.269 14.1859 90.1636 23.587 67.793C23.587 67.793 18.9385 70.3053 17.7623 72.9136C17.7623 72.9136 12.7778 60.8402 24.0751 49.2068C24.0751 49.2068 19.6026 49.8069 17.4023 51.8952C17.4023 51.8952 16.6262 39.6537 28.3796 33.309C28.3796 33.309 24.4911 32.1328 22.2349 32.6289C22.2349 32.6289 28.6436 24.988 43.9654 22.3957C43.9654 22.3957 40.541 20.2915 38.6368 19.8754C38.6368 19.8754 48.75 15.3469 59.8313 18.6033C59.8313 18.6033 58.2471 14.8108 56.5429 14.2347C56.5429 14.2347 68.2403 12.4985 79.3136 20.2595C79.3136 20.2595 77.8814 15.5229 76.1052 14.4268C76.1052 14.4268 86.1864 14.8268 94.7874 23.4758C94.7874 23.4758 94.7154 22.2357 93.8433 18.4352C93.8433 18.4352 104.861 22.6677 104.164 34.5651C104.164 34.5651 113.254 37.2774 108.213 46.8306C108.213 46.8306 114.566 51.4231 116.902 56.6797C116.902 56.6797 111.861 54.3114 110.149 59.44C110.149 59.44 119.23 65.7928 120.438 78.7223C120.438 78.7223 111.557 77.9142 113.398 86.1712C113.406 86.1552 117.158 98.1166 139.057 91.3958Z" fill="black"/>
<path d="M66.7442 19.3872C66.7442 19.3872 70.0486 23.3797 70.0486 27.1081C70.0486 27.1081 60.3195 20.5553 49.8142 22.6116C49.8142 22.6116 53.3827 24.7878 53.6067 26.9801C53.6067 26.9801 44.1016 27.0681 37.6048 29.6124C37.6048 29.6124 45.8618 31.0686 47.1739 33.2608C47.1739 33.2608 35.5006 32.5327 26.1475 43.046C26.1475 43.046 36.9487 40.7097 40.6052 43.9901C40.6052 43.9901 30.0999 45.5183 36.6687 54.2793C36.6687 54.2793 28.0917 59.0079 27.8997 69.177C27.8997 69.177 32.7722 65.1766 39.429 66.5207C39.429 66.5207 26.4275 71.7773 31.028 90.3955C31.028 90.3955 34.1404 83.0507 44.2136 82.3946C44.2136 82.3946 55.2629 81.4745 55.6389 87.0831C55.3669 90.6356 51.6785 90.8276 48.6621 89.7955C48.6621 89.7955 52.8306 109.822 85.3304 112.734C85.3304 112.734 80.6898 109.086 81.1139 101.997C81.1139 101.997 107.045 112.99 127.071 97.5484C127.071 97.5484 112.19 100.365 108.381 87.3232C108.381 87.3232 105.469 78.5941 115.47 74.6817C115.47 74.6817 112.31 64.8325 104.397 61.5442C104.397 61.5442 100.956 55.7115 108.989 52.8151C108.989 52.8151 104.181 48.4546 102.828 47.9906C102.828 47.9906 108.925 44.2301 105.645 39.1895C105.645 39.1895 103.437 35.8451 98.86 36.3412C98.86 36.3412 102.244 33.4769 98.2919 25.1639C98.2919 25.1639 97.1078 29.3404 95.3556 29.6364C95.3556 29.6364 91.7231 23.6357 84.7143 20.3473C84.7143 20.3473 86.8906 23.7957 85.4984 27.5882C85.5064 27.5642 78.5696 22.2355 66.7442 19.3872ZM151.114 29.4044C151.114 29.4044 150.994 30.6605 147.73 31.4206C147.73 31.4206 150.922 31.2526 152.57 31.9167C154.635 32.7488 158.059 31.7167 158.611 30.7965C158.611 30.7965 156.147 31.9727 153.914 31.2606C151.674 30.5405 151.29 30.7965 151.29 30.7965C151.29 30.7965 151.586 30.1245 151.114 29.4044ZM148.85 32.2047C148.658 32.2047 148.554 32.2207 148.554 32.2207C143.153 32.7168 144.329 36.2212 144.329 36.2212C147.85 32.3327 152.21 36.5252 152.21 36.5252C154.33 38.7815 157.563 35.5491 157.563 35.5491C156.371 35.9251 153.802 35.125 153.802 35.125C157.083 34.501 157.995 32.7648 157.995 32.7648C157.771 33.1168 154.523 34.1489 152.378 33.0848C150.762 32.2847 149.418 32.1967 148.85 32.2047ZM144.369 36.6612C144.369 36.6612 144.193 42.7499 156.363 37.8774C156.355 37.8774 148.954 39.9896 144.369 36.6612ZM139.729 38.5415C130.736 51.3189 155.707 61.0081 155.707 61.0081C174.781 69.9851 164.092 82.7226 164.092 82.7226C180.053 68.409 155.643 59.7839 155.643 59.7839C132.8 50.3108 139.721 38.5335 139.721 38.5335L139.729 38.5415ZM171.516 74.9777C171.516 74.9777 169.14 85.787 160.979 83.8588C160.979 83.8588 162.819 86.6751 164.012 89.6434C164.012 89.6514 173.149 83.4507 171.516 74.9777Z" fill="#EAAA00"/>
<path d="M73.1936 60.136C64.7126 61.3201 66.0167 56.7676 66.0167 56.7676C64.9046 56.2475 60 56.4555 60 56.4555C62.9204 53.3192 67.6729 52.8471 67.6729 52.8471C74.0097 53.6392 75.8979 57.1516 75.8979 57.1516C78.3702 58.8238 77.01 60.832 77.01 60.832C76.962 59.0798 73.1936 60.136 73.1936 60.136ZM100.949 53.8472C100.949 53.8472 99.3727 52.3991 96.7083 52.4711C96.3243 52.4791 95.9242 52.5191 95.5002 52.5991C94.7481 53.0231 94.268 54.9834 94.124 56.5435C93.1159 58.4958 95.8202 59.4079 95.8202 59.4079C94.084 57.7997 96.3563 58.0077 96.3563 58.0077C99.9007 58.1997 99.0206 54.7193 99.0206 54.7193C99.2606 54.2153 100.949 53.8472 100.949 53.8472ZM96.9484 62.1602C96.6283 62.1682 96.3003 62.2162 95.9482 62.2962C95.9482 62.2962 87.8593 66.2967 81.8746 63.3523C81.8746 63.3523 76.402 64.4245 75.7379 73.1695C75.7379 73.1695 80.2824 72.3614 79.6263 76.8419C79.6263 76.8419 78.8262 78.3141 78.4902 80.9384C78.4902 80.9384 81.8506 85.3869 80.6265 92.2357L81.7706 92.6998L97.8765 93.7559C97.8765 93.7559 99.2846 88.9233 98.1725 84.2508C98.1725 84.2508 98.5726 79.3862 99.9087 77.298C99.9087 77.298 101.029 73.7056 100.733 71.4413C100.733 71.4413 100.661 69.313 102.821 69.385C102.821 69.4011 101.709 62.0082 96.9484 62.1602ZM42.0619 49.3187C42.702 48.2626 43.9982 47.8785 45.4943 47.8385C47.6546 47.7825 50.1989 48.4706 51.6871 48.9427C52.0071 48.9507 52.2951 48.9667 52.5672 48.9827C52.3591 48.6066 50.4869 45.6303 44.6142 45.7103C44.1982 45.7183 43.7581 45.7343 43.3021 45.7743C42.51 45.9183 36.9493 46.6544 39.3016 51.2469C39.3016 51.2469 41.2538 54.7913 45.7264 54.7913C40.6218 52.271 42.0619 49.3187 42.0619 49.3187ZM104.117 42.4539C103.253 40.1096 101.157 39.5976 99.4927 39.6056C98.1965 39.6056 97.1644 39.9176 97.1644 39.9176C92.8119 40.9897 91.5957 43.9741 91.4197 44.4781C91.4277 44.4701 91.4437 44.4701 91.4517 44.4621C92.5639 42.5179 95.5002 41.6138 98.0205 41.6298C99.7487 41.6378 101.277 42.0778 101.909 42.9019C101.909 42.9019 103.301 44.2301 100.293 46.4464C99.4767 47.0464 98.6526 47.4625 97.8525 47.7265C103.941 47.0864 104.589 43.8301 104.117 42.4539Z" fill="white"/>
<path d="M98.5485 77.8742C96.3002 82.4588 97.6204 89.2916 97.6204 89.2916C98.2924 90.8758 97.7084 94.0841 97.7084 94.0841C95.2201 102.421 81.3144 92.66 81.3144 92.66C82.7386 86.5873 80.4904 81.9707 80.4904 81.9707C79.3462 80.1385 81.0264 77.1782 81.0264 77.1782C83.5787 73.8018 82.6586 71.8495 82.6586 71.8495C82.3146 68.7212 85.2029 69.7293 85.2029 69.7293C87.3632 70.3134 89.1634 70.4094 90.4915 70.3534C90.6595 69.6333 90.8036 67.9531 89.0674 66.3849C89.0674 66.3849 82.4266 62.7685 84.5628 66.2889C84.5468 66.2809 79.3862 64.8007 82.3306 62.9845C82.3306 62.9845 87.8992 62.2884 97.8044 62.1204C97.8044 62.1204 100.773 62.6164 97.1323 65.8408C97.1323 65.8408 99.1085 61.9204 93.0918 66.3449C93.0918 66.3449 92.1797 68.1211 92.2837 70.1613C92.6758 70.0893 92.8998 70.0173 92.8998 70.0173C95.4281 68.6892 97.0043 68.5451 97.0043 68.5451C99.9566 68.2571 99.4926 69.9053 99.4926 69.9053H99.5006C100.205 75.1939 98.5485 77.8742 98.5485 77.8742ZM49.4627 60.6082C49.4627 60.6082 54.5673 76.6661 69.8971 70.6814C69.8971 70.6814 70.7772 86.2992 81.4185 92.2839C81.4185 92.2839 97.2843 100.165 97.6044 89.2996C97.6124 89.3396 99.6766 99.3008 93.9159 100.389C93.9159 100.389 94.564 99.1407 93.9799 97.3965C93.9799 97.3965 91.6517 100.317 83.7547 99.7328C83.7547 99.7328 86.5311 98.7087 86.5311 96.8125C86.5311 96.8125 79.8183 93.9961 72.8095 101.973C72.8095 101.973 71.0172 96.0044 75.4178 90.4197C75.4178 90.4197 70.7772 90.4517 66.2487 97.0525C66.2487 97.0525 66.1127 90.0917 70.7772 85.4191C70.7772 85.4191 68.881 75.498 61.2801 74.3298C61.2801 74.3298 58.9998 73.9218 60.8481 75.498C60.8481 75.498 66.4567 80.9786 66.4247 86.7793C66.4247 86.7793 61.8402 78.0903 44.1821 80.5866C44.1821 80.5866 49.7428 76.226 53.6872 75.498C53.6872 75.498 46.6864 73.0177 38.3574 75.0579C38.3574 75.0579 43.7661 70.0893 49.3107 68.6332C49.3187 68.6332 49.1747 63.2325 49.4627 60.6082ZM61.2001 28.0044C71.2653 32.3809 73.9136 41.286 73.9136 41.286C65.1766 40.3418 55.8475 45.5665 55.8475 45.5665C57.0636 39.4937 45.7823 37.6455 45.7823 37.6455C52.4871 34.8212 63.1683 38.0696 63.1683 38.0696C65.1366 35.0132 61.2001 28.0044 61.2001 28.0044ZM77.618 28.4444C77.618 28.4444 84.6268 29.7566 86.6031 38.5176C86.6031 38.5176 88.5713 37.6375 91.4196 37.2055C91.4196 37.2055 88.3553 40.9259 88.7873 42.4621C88.7873 42.4621 83.1867 41.1179 81.6105 41.1339C81.6105 41.1259 83.7547 34.1331 77.618 28.4444ZM78.2981 54.3195C78.2981 54.3195 80.2343 58.592 83.9148 58.536C83.9148 58.536 80.3063 59.8401 77.514 55.6236C77.514 55.6236 77.378 54.4795 74.7137 53.9994C74.7137 53.9994 72.0094 53.3114 70.5852 52.0152C70.5852 52.0152 74.2576 53.1753 77.154 52.9593C77.154 52.9593 79.4822 52.3432 78.7942 48.5348C78.7942 48.5428 80.5864 51.8072 78.2981 54.3195ZM87.8032 48.7988C89.2274 51.8232 92.3877 52.6233 92.3877 52.6233C94.26 52.8713 93.4679 50.7191 93.4679 50.7191C95.5241 51.9912 93.0038 53.7434 93.0038 53.7434C93.0038 53.7434 94.268 52.7513 92.9958 53.9274C91.7157 55.0956 92.6278 56.9038 92.6278 56.9038C91.0996 56.5677 91.3956 55.2076 91.3956 55.2076C91.6917 54.5675 91.2436 54.1355 91.2436 54.1355C87.4752 50.239 87.8032 48.7988 87.8032 48.7988ZM99.4526 55.5116C103.221 57.0318 104.317 59.5041 104.317 59.5041C105.773 60.9763 107.726 62.8165 107.726 62.8165C102.341 60.2482 101.541 63.7846 101.421 64.7047C102.085 64.6647 102.741 64.6487 103.365 64.6647C110.534 64.8247 114.95 68.0491 114.95 68.0491C106.605 64.3607 99.3886 65.8168 99.3886 65.8168L100.125 64.8087C100.501 64.7687 100.869 64.7527 101.237 64.7287C100.877 64.3127 100.469 64.1846 100.469 64.1846C101.309 61.7924 98.6045 59.9361 98.6045 59.9361C103.085 62.1044 99.4526 55.5116 99.4526 55.5116ZM75.2497 65.2808C76.7059 65.2488 78.2821 65.3528 79.9623 65.6408L80.6584 66.6889C80.6584 66.6889 73.5375 64.7847 64.9845 67.9371C64.9845 67.9371 68.961 65.4008 75.2497 65.2808ZM103.821 66.6969C110.982 66.8489 115.398 70.0733 115.398 70.0733C107.069 66.3929 99.8526 67.8491 99.8526 67.8491L100.589 66.8409C101.725 66.7129 102.805 66.6729 103.821 66.6969ZM76.1618 67.417C77.618 67.385 79.1942 67.489 80.8744 67.7771L81.5625 68.8332C81.5625 68.8332 74.4496 66.921 65.8886 70.0813C65.8886 70.0733 69.8651 67.537 76.1618 67.417ZM104.325 68.7772C111.486 68.9292 115.903 72.1616 115.903 72.1616C107.566 68.4651 100.341 69.9213 100.341 69.9213L101.093 68.9212C102.229 68.7932 103.309 68.7532 104.325 68.7772ZM76.6499 69.6893C78.1061 69.6573 79.6823 69.7613 81.3705 70.0493L82.0665 71.0974C82.0665 71.0974 74.9457 69.1932 66.3847 72.3456C66.3847 72.3456 70.3532 69.8093 76.6579 69.6893H76.6499ZM103.749 85.6351C106.429 96.3964 113.526 98.5887 113.526 98.5887C107.902 101.525 100.093 100.301 100.093 100.301C104.621 96.6444 103.749 85.6351 103.749 85.6351ZM45.7183 52.0152C47.6225 51.6552 48.2066 51.8712 49.3667 52.0152C48.9507 50.9031 46.7584 49.2789 46.0943 49.0389C47.1505 48.9589 48.1826 48.9268 49.1427 48.9108C50.0868 48.9028 50.9509 48.9188 51.687 48.9429C50.1988 48.4708 47.6545 47.7827 45.4943 47.8387C44.0061 47.8787 42.7019 48.2628 42.0619 49.3189C42.0619 49.3189 40.5737 52.3672 45.9663 54.9195C47.1344 53.4794 45.7183 52.0152 45.7183 52.0152ZM101.909 42.9021C101.277 42.078 99.7486 41.638 98.0204 41.63C95.5001 41.614 92.5638 42.5101 91.4516 44.4623C92.1957 44.1583 93.4519 43.7102 95.3401 43.2782C95.3401 43.2782 94.0039 44.6943 94.212 45.3584C94.212 45.3584 97.0923 44.4383 99.7566 44.9664C99.7566 44.9664 97.5404 45.6865 97.4043 47.8627C98.3404 47.6147 99.3166 47.1586 100.293 46.4466C103.301 44.2303 101.909 42.9021 101.909 42.9021Z" fill="black"/>
<path d="M76.8179 57.5438C76.8179 57.5438 74.1856 52.5672 63.6004 51.247C63.6004 51.247 67.9289 52.7192 68.1049 53.8953C68.1049 53.8953 64.0004 54.5594 62.2002 55.7355C62.2002 55.7355 65.7526 55.2395 66.8807 55.8796C66.8807 55.8796 68.969 58.9759 73.4975 58.1678C73.4975 58.1678 78.2821 57.3997 77.0099 60.8161C77.0099 60.8161 76.8339 62.6083 77.578 64.3205C77.578 64.3205 79.4262 61.7682 81.5305 61.8403C81.5305 61.8483 78.0261 59.424 76.8179 57.5438ZM68.2409 55.1355C69.081 54.8794 69.8331 54.7594 70.5052 54.7354C71.0812 54.7194 71.5933 54.7674 72.0494 54.8634L71.3773 56.4236L73.9936 55.6875C74.5056 56.0476 74.7617 56.3676 74.7617 56.3676C71.9293 58.6719 68.2409 55.1355 68.2409 55.1355ZM95.2921 53.3513C95.2921 53.3513 94.796 52.8312 97.6684 51.063C97.6684 51.063 92.5077 52.4231 93.5159 55.8235C93.5159 55.8235 92.5157 57.8238 94.868 58.9039C94.868 58.9039 93.1238 57.2477 94.78 56.5436C94.78 56.5436 97.3003 57.6398 98.3964 54.7114C98.4845 54.4874 98.4844 54.4794 98.5485 54.3194C98.7565 54.0553 99.2605 53.6713 100.405 53.7673C100.405 53.7673 97.8844 52.3271 95.2921 53.3513ZM94.628 55.8716C94.628 55.8716 94.588 55.3355 94.964 54.8074L96.7322 55.1515L96.1962 54.0073C96.5322 53.9113 96.9403 53.8473 97.4443 53.8473C97.6443 53.8473 97.8524 53.8553 98.0844 53.8713C98.0764 53.8793 96.7402 56.7437 94.628 55.8716Z" fill="black"/>
<path d="M95.8038 89.1155C95.8038 89.1155 94.4436 92.2919 93.0915 92.7319L92.2514 92.2279L91.2833 92.8279L90.4112 92.3319L89.5791 92.8039L88.667 92.2839L87.7309 92.7319C87.7309 92.7319 86.5547 91.4278 85.1626 89.7556C85.1626 89.7556 84.6985 91.9238 86.4667 93.676C86.4667 93.676 92.0034 94.7242 94.6517 93.492C94.6517 93.492 96.4199 92.8919 95.8038 89.1155ZM97.828 70.1453C97.9721 75.0579 96.6679 78.1862 96.6679 78.1862C96.8599 73.8417 95.5878 72.0895 95.5878 72.0895L94.9797 74.2738L93.8196 72.5376L93.3795 74.0017L92.5714 72.7376L92.0674 74.0177L91.2833 72.7696L90.7152 74.0017L89.9391 72.8496L89.267 74.0497L88.3469 72.9456L87.6748 74.8898L86.7227 73.3136C85.9546 77.8982 84.8985 79.0743 84.8665 79.3704C84.8985 75.3379 83.8584 71.4734 83.8584 71.4734C85.0345 70.8894 86.6907 71.2894 86.6907 71.2894L86.7787 71.8575C92.4514 73.5537 95.1877 70.9454 95.1877 70.9454L95.2277 70.4573C95.7398 70.0733 96.2359 69.9373 96.6519 69.9133C97.34 69.8652 97.828 70.1453 97.828 70.1453Z" fill="white"/>
<path d="M93.6044 80.0344C93.2523 80.0424 92.8523 80.1464 92.4042 80.4104C92.4042 80.4104 90.62 81.4666 90.34 83.0267C90.34 83.0267 88.9878 80.5225 86.1395 82.5467C86.1395 82.5467 85.7635 82.7547 85.9395 83.1148C85.9395 83.1148 88.4118 89.8195 92.7643 87.0272C92.7643 87.0272 93.1483 86.8592 93.0843 86.1871C93.0843 86.1871 92.9643 83.8348 95.1086 81.7786C95.1086 81.7786 95.6286 81.3385 95.2526 80.8905C95.2446 80.8905 94.6525 80.0184 93.6044 80.0344Z" fill="#EAAA00"/>
<path d="M11.7861 169.597C9.57787 169.597 7.41761 168.885 5.64141 167.533C3.52916 165.933 2.12899 163.548 1.71295 160.892C0.992861 159.644 0.520805 158.244 0.360787 156.756C0.144761 154.955 0.368788 153.083 1.03287 151.187C1.41691 150.051 1.93697 148.955 2.61705 147.843C2.78507 147.579 2.96109 147.315 3.14511 147.067C3.26513 146.907 3.39314 146.747 3.52116 146.594C3.53716 144.674 3.9132 142.634 4.66529 140.394C5.45738 138.025 6.51351 135.897 7.87367 133.913C8.72977 132.673 11.2661 129.016 15.9146 127.912L25.0997 125.704C25.1557 125.688 25.2117 125.68 25.2597 125.664C26.0998 125.48 26.9559 125.4 27.796 125.424C28.5881 125.008 29.4762 124.656 30.4523 124.416L38.1252 122.576C38.8613 122.4 39.5974 122.296 40.3335 122.272C40.8935 122.008 41.4856 121.792 42.0937 121.624C42.1897 121.6 42.2937 121.568 42.3897 121.552L47.7503 120.271L47.8463 120.247C48.2064 120.167 48.5664 120.103 48.9265 120.055C49.2625 119.935 49.6066 119.831 49.9666 119.743L55.4072 118.431C55.4872 118.415 55.5673 118.391 55.6553 118.375C56.0473 118.295 56.4394 118.231 56.8314 118.191C57.2314 118.039 57.6075 117.919 57.9515 117.831C58.0075 117.815 58.0635 117.799 58.1196 117.791L68.8648 115.207L69.2969 115.111C69.6169 115.047 69.9369 114.999 70.257 114.967C70.625 114.823 71.0011 114.703 71.3931 114.607C71.4491 114.591 71.5051 114.575 71.5611 114.567L76.9218 113.279C77.0338 113.255 77.1538 113.223 77.2658 113.199C77.5458 113.143 77.8179 113.095 78.0979 113.063C78.3299 112.983 78.562 112.903 78.794 112.839C78.946 112.799 79.09 112.759 79.242 112.719L84.6267 111.438C85.9388 111.118 87.323 111.062 88.6831 111.286L99.6684 108.662C100.557 108.446 101.477 108.35 102.365 108.374C103.205 107.934 104.085 107.598 105.013 107.374L112.726 105.526C113.894 105.238 115.102 105.15 116.278 105.262C117.246 104.67 118.375 104.174 119.655 103.869L128.84 101.661C128.904 101.645 128.96 101.629 129.024 101.621C129.616 101.493 130.216 101.413 130.816 101.389C131.48 101.085 132.112 100.885 132.664 100.749L143.426 98.1648C143.49 98.1488 143.554 98.1328 143.618 98.1248C144.01 98.0368 144.402 97.9808 144.794 97.9408C145.226 97.7728 145.666 97.6367 146.122 97.5327L158.011 94.6764C158.155 94.6444 158.299 94.6124 158.443 94.5804C158.755 94.5244 159.059 94.4764 159.371 94.4444C159.803 94.2764 160.252 94.1403 160.716 94.0283L171.045 91.556C172.229 91.276 173.421 91.196 174.581 91.3C175.629 90.6519 176.741 90.1879 177.934 89.8998L185.646 88.0516C186.375 87.8756 187.151 87.7716 187.919 87.7476C192.591 87.6356 197.672 90.6999 198.776 96.8367C199.488 98.1088 200.056 99.709 200.224 101.701C200.432 104.053 200.072 106.574 199.128 109.398L195.56 119.967C196.144 121.776 196.2 123.752 195.704 125.696C195.664 125.856 195.616 126.016 195.568 126.176C195.512 126.352 195.456 126.528 195.392 126.696C195.328 126.872 195.256 127.056 195.184 127.224C193.863 130.345 191.215 132.641 187.943 133.457L186.055 133.937C185.999 133.953 185.935 133.969 185.879 133.977C183.374 134.569 180.942 134.393 178.806 133.593C177.39 135.233 175.493 136.417 173.349 136.953L171.445 137.433C171.413 137.441 171.381 137.449 171.349 137.457C167.396 138.418 163.572 137.401 160.796 134.993L160.516 135.057C160.044 135.177 159.571 135.257 159.099 135.305C158.691 135.457 158.307 135.577 157.955 135.665C157.907 135.673 157.859 135.689 157.811 135.697L147.786 138.105C147.778 138.129 147.77 138.145 147.762 138.169C146.49 141.538 143.73 144.018 140.329 144.858L138.481 145.338C138.441 145.346 138.393 145.362 138.353 145.37C134.368 146.338 130.536 145.322 127.752 142.89C127.536 142.954 127.32 143.01 127.096 143.066L122.455 144.178C122.351 144.45 122.247 144.714 122.127 144.978C120.783 147.955 118.207 150.131 115.022 150.931L113.15 151.411C113.078 151.427 113.014 151.443 112.942 151.459C108.942 152.403 105.149 151.403 102.405 148.987L102.173 149.043C102.125 149.051 102.077 149.067 102.029 149.075C101.605 149.171 101.181 149.235 100.757 149.283C100.365 149.435 99.9805 149.555 99.6364 149.643C99.5804 149.659 99.5244 149.675 99.4604 149.691L91.2594 151.659C89.8753 154.579 87.299 156.724 84.1706 157.5L82.2824 157.972C78.77 158.836 75.3696 158.164 72.7053 156.348C71.3051 159.132 68.8088 161.156 65.7765 161.916L63.9042 162.396C63.8482 162.412 63.8002 162.42 63.7442 162.436C59.7997 163.372 55.9833 162.348 53.215 159.94C52.991 160.004 52.7669 160.068 52.5349 160.124L44.886 161.956C44.838 161.964 44.79 161.98 44.742 161.988C43.6139 162.244 42.4697 162.316 41.3576 162.212C40.3015 162.86 39.1813 163.324 37.9812 163.612L30.2923 165.453C30.2603 165.461 30.2283 165.469 30.1963 165.477C29.0521 165.741 27.892 165.813 26.7639 165.709C25.7398 166.333 24.6596 166.789 23.5075 167.085C23.4675 167.093 23.4275 167.109 23.3875 167.117L14.1544 169.317C14.0584 169.341 13.9544 169.365 13.8584 169.381C13.1703 169.525 12.4742 169.597 11.7861 169.597Z" fill="black"/>
<path d="M10.474 162.972C9.00186 162.972 7.55369 162.516 6.32955 161.652C4.63335 160.444 3.53722 158.548 3.3052 156.411C3.14518 155.059 3.3212 153.627 3.83326 152.155C4.14529 151.219 4.57735 150.323 5.14541 149.395C5.25743 149.211 5.37744 149.035 5.51346 148.858C5.69748 148.61 6.03352 148.17 6.52957 147.682C6.36956 145.786 6.68159 143.714 7.48169 141.338C8.18577 139.233 9.11388 137.345 10.322 135.585C11.0181 134.585 13.0823 131.608 16.6508 130.784L25.7958 128.584L25.8918 128.56C26.7479 128.368 27.628 128.328 28.4841 128.448C29.2602 127.952 30.1483 127.536 31.1645 127.296L38.8134 125.464C39.3494 125.328 39.9015 125.256 40.4375 125.232C40.6456 125.224 40.8616 125.224 41.0696 125.232C41.6377 124.904 42.2458 124.648 42.9018 124.48C42.9658 124.464 43.0299 124.448 43.0939 124.432L48.4545 123.151C48.8385 123.063 49.2226 122.999 49.6066 122.975C49.9507 122.831 50.3187 122.711 50.6868 122.623L56.1114 121.319C56.1674 121.303 56.2234 121.295 56.2794 121.279C56.6955 121.191 57.1035 121.135 57.5196 121.119C57.9036 120.951 58.3036 120.807 58.7197 120.703L58.8157 120.679L69.561 118.095C69.657 118.071 69.745 118.055 69.841 118.031C70.209 117.959 70.5771 117.911 70.9451 117.895C71.3212 117.727 71.7212 117.591 72.1293 117.479C72.1693 117.471 72.2093 117.463 72.2493 117.447L77.6099 116.159C77.6899 116.143 77.7699 116.119 77.8499 116.103C78.162 116.039 78.474 115.999 78.778 115.975C79.0501 115.863 79.3221 115.767 79.6021 115.687C79.7061 115.655 79.8102 115.631 79.9142 115.607L85.2988 114.326C86.2589 114.094 87.259 114.054 88.2431 114.222C88.2672 114.23 88.2912 114.23 88.3232 114.238C88.4592 114.262 88.5952 114.294 88.7312 114.326L100.349 111.558C101.237 111.342 102.157 111.294 103.061 111.414C103.901 110.878 104.781 110.494 105.709 110.262L113.406 108.422C113.918 108.294 114.478 108.214 115.03 108.198C115.678 108.174 116.334 108.238 116.983 108.382C117.911 107.678 119.047 107.054 120.391 106.75L129.536 104.549C129.584 104.541 129.632 104.525 129.688 104.517C130.288 104.389 130.896 104.325 131.512 104.357C132.096 104.037 132.712 103.797 133.368 103.637L144.13 101.061C144.178 101.053 144.218 101.037 144.266 101.029C144.674 100.941 145.09 100.885 145.506 100.869C145.946 100.669 146.41 100.517 146.898 100.405L158.731 97.5645C158.827 97.5405 158.931 97.5165 159.027 97.5005C159.379 97.4285 159.74 97.3885 160.092 97.3725C160.532 97.1724 161.004 97.0204 161.492 96.9084L171.773 94.4441C172.341 94.3081 172.869 94.2441 173.397 94.2201H173.413C174.061 94.2041 174.709 94.2601 175.349 94.4041C176.389 93.604 177.494 93.068 178.678 92.7799L186.375 90.9397C186.919 90.8117 187.487 90.7317 188.055 90.7157C191.615 90.6357 195.536 93.196 196.008 98.2766C196.192 100.221 195.88 102.373 195.04 104.829L191.143 116.391C191.879 117.967 192.023 119.791 191.495 121.575C191.471 121.671 191.439 121.767 191.407 121.855C190.559 124.36 188.551 126.24 186.039 126.904L184.078 127.4C184.038 127.408 183.998 127.424 183.95 127.432C181.198 128.08 178.574 127.504 176.566 126C175.597 128.192 173.741 129.792 171.461 130.392L169.485 130.896C169.453 130.904 169.429 130.912 169.397 130.92C165.884 131.768 162.572 130.608 160.476 128.056L158.595 128.512C158.123 128.632 157.643 128.696 157.163 128.72C156.683 128.936 156.227 129.072 155.811 129.168L144.122 131.977C144.058 132.393 143.954 132.809 143.818 133.225C143.802 133.265 143.794 133.305 143.778 133.345C142.898 135.825 140.969 137.633 138.489 138.305C138.449 138.313 138.417 138.329 138.377 138.337L136.465 138.817C132.784 139.729 129.352 138.465 127.272 135.721C126.608 136.081 125.912 136.345 125.191 136.521L118.799 138.049C118.735 138.449 118.639 138.849 118.511 139.249C117.671 141.842 115.638 143.762 113.038 144.402L111.142 144.882C111.118 144.89 111.086 144.898 111.062 144.906C107.533 145.754 104.221 144.594 102.141 142.042L100.261 142.498C99.7885 142.618 99.3084 142.682 98.8364 142.706C98.3563 142.922 97.9003 143.066 97.5002 143.154L87.8111 145.474C87.7391 145.746 87.6431 146.018 87.5391 146.282C87.5311 146.298 87.5311 146.306 87.5231 146.322V146.33C87.4911 146.41 87.4591 146.482 87.4191 146.562C86.4429 148.746 84.6027 150.331 82.3305 150.931L80.3302 151.435C80.2982 151.443 80.2662 151.451 80.2342 151.459C76.7378 152.291 73.4334 151.131 71.3452 148.594L69.577 149.019C69.505 149.483 69.3929 149.939 69.2249 150.387C68.3288 152.899 66.3206 154.747 63.8083 155.363L61.9521 155.843C61.9201 155.851 61.8961 155.859 61.8641 155.867C58.2156 156.755 54.7992 155.491 52.719 152.755C52.0389 153.123 51.3348 153.387 50.5907 153.563L42.9498 155.387C41.7737 155.675 40.5576 155.691 39.3974 155.427C38.3573 156.219 37.2452 156.763 36.045 157.051L28.3561 158.9C28.3321 158.908 28.3001 158.916 28.2761 158.916C27.108 159.18 25.9238 159.18 24.7957 158.932C23.7636 159.724 22.6595 160.26 21.4673 160.548L12.2582 162.748C11.6422 162.9 11.0581 162.972 10.474 162.972Z" fill="#EDB11E"/>
<path d="M10.4741 161.508C9.29795 161.508 8.15381 161.148 7.1777 160.452C5.82554 159.492 4.95344 157.972 4.76142 156.252C4.6174 155.099 4.76942 153.907 5.22547 152.619C5.5055 151.795 5.88155 150.987 6.39361 150.163C6.48162 150.019 6.57763 149.875 6.68164 149.739C6.89767 149.451 7.35372 148.851 8.0658 148.275C8.0338 148.091 8.0178 147.891 7.9938 147.691C7.82578 145.962 8.11381 144.042 8.8659 141.802C9.52998 139.826 10.4021 138.057 11.5302 136.417C12.1383 135.537 13.9625 132.913 16.9788 132.217L26.1399 130.017C26.1639 130.009 26.1879 130.009 26.2119 130.001C27.076 129.801 27.9721 129.809 28.8202 130.017C29.5803 129.448 30.4684 128.984 31.5086 128.736L39.1814 126.896C39.5735 126.8 40.0376 126.728 40.5096 126.712C40.8136 126.704 41.1257 126.712 41.4297 126.752C41.9898 126.376 42.6059 126.088 43.2779 125.912C43.3259 125.896 43.3739 125.888 43.43 125.872L48.7906 124.592C49.1746 124.504 49.5667 124.448 49.9507 124.44C50.2948 124.28 50.6628 124.152 51.0388 124.064L56.4555 122.76C56.5035 122.752 56.5435 122.736 56.5915 122.728C57.0155 122.632 57.4316 122.576 57.8716 122.592C58.2557 122.4 58.6637 122.248 59.0878 122.136L69.9051 119.535C69.9771 119.519 70.0571 119.503 70.1291 119.487C70.5211 119.407 70.8892 119.391 71.2892 119.375C71.6733 119.183 72.0733 119.031 72.4974 118.919L72.5934 118.895L77.954 117.607C78.018 117.591 78.082 117.575 78.146 117.567C78.4821 117.503 78.8101 117.463 79.1381 117.447C79.4182 117.319 79.7142 117.207 80.0182 117.119C80.0982 117.095 80.1783 117.071 80.2663 117.055L85.6509 115.775C86.419 115.583 87.2271 115.559 88.0112 115.695C88.0352 115.695 88.0512 115.703 88.0752 115.703C88.2992 115.743 88.5152 115.799 88.7233 115.863C88.7633 115.855 88.7953 115.847 88.8353 115.839L100.717 113.007C101.605 112.791 102.533 112.783 103.421 112.991C104.261 112.366 105.149 111.942 106.085 111.71L113.774 109.87C114.198 109.766 114.654 109.702 115.102 109.686C115.846 109.662 116.607 109.774 117.335 110.03C118.239 109.222 119.359 108.526 120.743 108.206L129.904 106.006C129.944 105.998 129.984 105.99 130.024 105.982C130.64 105.846 131.272 105.814 131.896 105.886C132.464 105.518 133.08 105.254 133.737 105.094L144.49 102.517C144.522 102.509 144.562 102.501 144.594 102.493C145.018 102.397 145.426 102.341 145.874 102.357C146.306 102.141 146.762 101.973 147.234 101.869L159.076 99.0289C159.156 99.0129 159.228 98.9969 159.308 98.9809C159.684 98.9089 160.068 98.8689 160.436 98.8689H160.444C160.876 98.6529 161.332 98.4928 161.82 98.3808L172.109 95.9165C172.573 95.8045 173.013 95.7485 173.437 95.7325H173.445C174.181 95.7085 174.949 95.8285 175.677 96.0766C176.718 95.1484 177.822 94.5484 179.014 94.2523L186.711 92.4121C187.159 92.3001 187.631 92.2441 188.095 92.2281C190.951 92.1641 194.144 94.0843 194.544 98.4608C194.712 100.197 194.416 102.149 193.648 104.406L189.551 116.567C190.359 117.927 190.567 119.583 190.087 121.216C190.063 121.288 190.039 121.368 190.015 121.44C189.311 123.504 187.727 125 185.655 125.544L183.702 126.04C183.67 126.048 183.638 126.056 183.606 126.064C180.382 126.824 177.446 125.648 175.757 123.128C175.741 123.712 175.637 124.304 175.445 124.896C174.741 126.992 173.149 128.488 171.085 129.032L169.117 129.536C165.756 130.345 162.748 129.104 161.068 126.464L158.243 127.144C157.771 127.256 157.299 127.32 156.827 127.32C156.395 127.536 155.939 127.696 155.459 127.808L143.626 130.649C143.33 130.721 143.042 130.769 142.746 130.801C142.754 131.473 142.65 132.153 142.426 132.825C142.418 132.857 142.402 132.889 142.394 132.921C141.673 134.945 140.113 136.417 138.097 136.953C138.065 136.961 138.041 136.969 138.009 136.977L136.097 137.457C132.56 138.338 129.296 136.801 127.704 133.745C126.808 134.441 125.856 134.913 124.831 135.161L117.415 136.937C117.415 137.569 117.319 138.217 117.111 138.858C116.431 140.97 114.774 142.53 112.662 143.05L110.766 143.53C107.405 144.338 104.397 143.106 102.725 140.458L99.9006 141.138C99.4285 141.25 98.9565 141.314 98.4844 141.314C98.0604 141.522 97.6123 141.69 97.1482 141.794L86.547 144.338C86.531 144.426 86.523 144.522 86.507 144.61C86.443 145.01 86.331 145.41 86.171 145.794C86.163 145.802 86.163 145.818 86.155 145.826C86.155 145.834 86.1469 145.842 86.1469 145.85C86.1229 145.906 86.0989 145.97 86.0669 146.026C85.2748 147.787 83.7947 149.075 81.9705 149.571C81.9385 149.579 81.9065 149.587 81.8745 149.595L79.9222 150.035C76.5778 150.827 73.5775 149.595 71.8893 146.963L69.0409 147.651C68.9929 147.659 68.9529 147.675 68.9049 147.683C68.6569 147.739 68.4009 147.771 68.1448 147.795C68.1608 148.483 68.0488 149.187 67.8088 149.867C67.0967 151.947 65.4565 153.467 63.3843 153.971L61.5281 154.451C57.9036 155.34 54.6793 153.835 53.0951 150.747C52.191 151.451 51.2229 151.923 50.1907 152.163L42.5498 153.987C41.3657 154.283 40.1256 154.227 38.9974 153.835C37.9573 154.763 36.8452 155.364 35.637 155.66L27.9641 157.508C26.732 157.788 25.5078 157.724 24.4037 157.348C23.3636 158.268 22.2675 158.868 21.0753 159.156L11.8662 161.356C11.4102 161.452 10.9381 161.508 10.4741 161.508Z" fill="#006341"/>
<path d="M91.0675 122.656L102.957 119.807C103.013 119.791 103.061 119.791 103.101 119.799C103.229 119.831 103.293 119.967 103.325 120.199C103.357 120.503 103.269 120.919 103.093 121.447C102.925 121.943 102.701 122.383 102.445 122.768C102.173 123.144 101.941 123.368 101.717 123.424L95.212 124.976C94.956 125.04 94.7239 125.384 94.5159 125.992L93.9079 127.792C93.8198 128.04 93.7878 128.248 93.8118 128.384C93.8198 128.544 93.8918 128.624 94.0039 128.584L98.9804 127.4C99.1965 127.344 99.3085 127.488 99.3485 127.792C99.3725 128.096 99.2925 128.512 99.1085 129.032C98.9484 129.536 98.7404 129.976 98.4684 130.352C98.2124 130.736 97.9723 130.96 97.7563 131.009L92.7477 132.209C92.4997 132.273 92.2837 132.609 92.0676 133.233L91.4756 135.017C91.3876 135.265 91.3475 135.473 91.3636 135.617C91.3716 135.777 91.4356 135.849 91.5396 135.817L98.0603 134.265C98.2684 134.209 98.3804 134.361 98.4284 134.657C98.4604 134.961 98.3884 135.377 98.2204 135.905C98.0443 136.401 97.8203 136.841 97.5483 137.209C97.2922 137.601 97.0522 137.825 96.8362 137.865L84.9308 140.722C84.6828 140.794 84.6028 140.666 84.7228 140.378C84.7788 140.194 84.9548 140.01 85.2508 139.818C85.5469 139.634 85.7869 139.289 85.9389 138.833L90.8195 124.368C90.9795 123.888 90.9555 123.6 90.7315 123.544C90.5155 123.48 90.4434 123.344 90.5075 123.192C90.6435 122.912 90.8195 122.72 91.0675 122.656ZM100.541 135.353L104.205 124.52C104.709 123 105.365 121.671 106.189 120.495C106.989 119.343 107.717 118.679 108.342 118.519L115.998 116.687C116.078 116.671 116.158 116.655 116.23 116.655C116.743 116.639 117.023 117.047 117.103 117.903C117.183 118.847 116.999 120.063 116.47 121.575L112.198 134.249C111.782 135.481 111.598 136.497 111.678 137.305C111.758 138.073 112.07 138.401 112.59 138.273C112.854 138.209 112.934 138.329 112.83 138.625C112.83 138.617 112.838 138.609 112.838 138.601L112.83 138.633H112.822V138.617C112.718 138.913 112.542 139.097 112.286 139.161L110.366 139.65C109.094 139.954 108.286 139.417 107.933 138.017C107.565 136.657 107.781 134.841 108.526 132.625L109.11 130.808C109.198 130.56 109.246 130.352 109.222 130.216C109.206 130.056 109.166 129.968 109.054 130L106.773 130.512C106.517 130.584 106.277 130.928 106.061 131.529L105.157 134.225C104.989 134.721 105.005 135.001 105.221 135.065C105.421 135.121 105.501 135.257 105.453 135.409C105.357 135.713 105.173 135.897 104.909 135.961L99.5485 137.249C99.2925 137.321 99.2205 137.185 99.3325 136.905C99.3805 136.721 99.5645 136.545 99.8685 136.353C100.173 136.161 100.389 135.817 100.541 135.353ZM107.805 126.688C107.813 126.856 107.869 126.92 107.981 126.912L110.278 126.352C110.526 126.304 110.766 125.96 110.95 125.376L111.878 122.648L111.886 122.64C112.054 122.151 112.11 121.735 112.094 121.399C112.07 121.167 111.982 121.031 111.854 121.007C111.814 120.999 111.766 120.999 111.71 121.015L110.182 121.383C109.982 121.415 109.742 121.655 109.478 122.031C109.206 122.407 108.982 122.864 108.798 123.384L107.885 126.08C107.813 126.328 107.797 126.536 107.805 126.688ZM135.713 133.585L137.625 133.097C137.889 133.033 138.057 132.857 138.169 132.537C138.257 132.249 138.201 132.129 137.929 132.193C137.401 132.321 137.089 131.993 137.017 131.217C136.945 130.408 137.113 129.408 137.545 128.168L142.13 114.599C142.314 113.983 142.546 113.646 142.802 113.582L145.482 112.942C145.706 112.894 145.946 112.662 146.218 112.286C146.482 111.902 146.69 111.454 146.866 110.966C147.05 110.438 147.13 110.03 147.098 109.718C147.058 109.414 146.946 109.278 146.722 109.318L135.977 111.886C135.777 111.942 135.529 112.174 135.281 112.542C134.993 112.95 134.769 113.414 134.593 113.902C134.441 114.399 134.369 114.815 134.409 115.111C134.441 115.415 134.553 115.559 134.761 115.511L137.457 114.871C137.553 114.847 137.617 114.911 137.625 115.087C137.657 115.223 137.625 115.415 137.537 115.671L133.857 126.552C133.104 128.784 132.904 130.592 133.264 131.953C133.617 133.337 134.449 133.889 135.713 133.585ZM149.106 109.582C149.338 109.638 149.354 109.91 149.194 110.406L144.322 124.872C144.154 125.328 143.922 125.68 143.626 125.856C143.322 126.048 143.154 126.224 143.098 126.416C142.986 126.696 143.05 126.824 143.306 126.76L155.195 123.904C155.411 123.864 155.659 123.64 155.915 123.264C156.179 122.872 156.403 122.431 156.587 121.943C156.755 121.423 156.827 120.999 156.795 120.695C156.755 120.399 156.635 120.247 156.427 120.295L149.914 121.855C149.802 121.879 149.73 121.815 149.73 121.655C149.706 121.519 149.754 121.303 149.85 121.055L150.442 119.271C150.651 118.647 150.867 118.303 151.115 118.247L156.123 117.055C156.331 116.999 156.571 116.767 156.835 116.391C157.107 116.015 157.307 115.567 157.475 115.071C157.659 114.551 157.739 114.135 157.707 113.83C157.667 113.518 157.547 113.382 157.339 113.43L152.363 114.615C152.251 114.647 152.179 114.575 152.179 114.415C152.163 114.279 152.203 114.071 152.275 113.822L152.891 112.03C153.099 111.406 153.331 111.062 153.579 110.998L160.1 109.446C160.316 109.39 160.564 109.166 160.828 108.79C161.076 108.406 161.308 107.958 161.476 107.47C161.652 106.942 161.74 106.534 161.708 106.222C161.676 105.99 161.604 105.854 161.484 105.822C161.444 105.814 161.396 105.814 161.34 105.83L149.442 108.678C149.194 108.742 149.026 108.918 148.906 109.238C148.818 109.398 148.89 109.51 149.106 109.582ZM119.279 125.88L123.879 124.784C124.087 124.728 124.199 124.872 124.231 125.184C124.239 125.52 124.183 125.928 124.015 126.424C123.863 126.928 123.639 127.368 123.359 127.744C123.079 128.128 122.839 128.352 122.639 128.408L116.503 129.872C116.294 129.928 116.054 130.16 115.774 130.528C115.51 130.936 115.278 131.385 115.126 131.881C114.942 132.385 114.87 132.793 114.91 133.089C114.942 133.393 115.054 133.545 115.262 133.489L124.479 131.281C125.12 131.121 125.856 130.464 126.656 129.312C127.448 128.16 128.112 126.824 128.608 125.32C129.12 123.808 129.32 122.6 129.224 121.655C129.144 120.679 128.784 120.287 128.136 120.439L123.551 121.535C123.335 121.591 123.215 121.455 123.183 121.143C123.143 120.847 123.223 120.415 123.391 119.927C123.575 119.407 123.791 118.951 124.063 118.567C124.311 118.199 124.551 117.967 124.767 117.927L130.896 116.455C131.12 116.399 131.352 116.175 131.624 115.799C131.88 115.415 132.096 114.967 132.264 114.479C132.448 113.951 132.536 113.542 132.504 113.23C132.472 113.006 132.4 112.862 132.272 112.83C132.232 112.822 132.184 112.822 132.128 112.83L122.927 115.039C122.295 115.183 121.575 115.847 120.767 117.007C119.935 118.199 119.295 119.511 118.783 121.039C118.287 122.52 118.087 123.736 118.175 124.672C118.263 125.632 118.631 126.032 119.279 125.88ZM163.476 105.742C163.58 105.43 163.764 105.245 164.004 105.181L174.349 102.701C174.429 102.685 174.509 102.669 174.581 102.669C175.085 102.653 175.381 103.061 175.445 103.917C175.533 104.861 175.349 106.07 174.821 107.598L174.221 109.382C173.885 110.374 173.437 111.278 172.909 112.054C172.365 112.83 171.909 113.262 171.469 113.374C171.893 113.262 172.157 113.51 172.197 114.159C172.253 114.791 172.117 115.623 171.781 116.607L170.541 120.255C170.133 121.487 169.957 122.488 170.037 123.312C170.117 124.08 170.421 124.416 170.957 124.272C171.205 124.208 171.285 124.336 171.189 124.624C171.077 124.928 170.909 125.112 170.653 125.176L168.725 125.664C167.46 125.968 166.636 125.424 166.276 124.032C165.916 122.672 166.148 120.855 166.884 118.639L167.188 117.711C167.348 117.223 167.436 116.799 167.38 116.503C167.34 116.207 167.228 116.055 167.02 116.103L165.132 116.527C164.876 116.599 164.628 116.943 164.412 117.543L163.508 120.239C163.348 120.735 163.364 121.023 163.572 121.071C163.788 121.135 163.86 121.263 163.812 121.415C163.716 121.727 163.532 121.903 163.268 121.975L157.899 123.264C157.659 123.336 157.571 123.2 157.691 122.92C157.739 122.736 157.923 122.552 158.227 122.367C158.523 122.175 158.755 121.839 158.899 121.375L163.788 106.91C163.948 106.406 163.924 106.142 163.7 106.078C163.484 106.022 163.42 105.894 163.476 105.742ZM166.148 112.71C166.156 112.878 166.228 112.95 166.324 112.934L168.245 112.47C168.453 112.422 168.693 112.19 168.965 111.79C169.237 111.422 169.461 110.958 169.613 110.47L170.221 108.678L170.229 108.67C170.397 108.182 170.453 107.766 170.437 107.43C170.405 107.206 170.333 107.062 170.205 107.03C170.165 107.022 170.117 107.022 170.061 107.03L168.157 107.494C167.901 107.558 167.66 107.894 167.46 108.51L166.236 112.102C166.156 112.342 166.132 112.55 166.148 112.71ZM35.349 151.803L27.6761 153.651C27.036 153.803 26.684 153.403 26.604 152.427C26.5159 151.491 26.708 150.267 27.204 148.787L29.6443 141.57C30.1564 140.05 30.8125 138.729 31.6365 137.545C32.4446 136.393 33.1647 135.721 33.7808 135.577L41.4617 133.737C41.5417 133.721 41.6137 133.705 41.6857 133.705C42.1818 133.689 42.4618 134.105 42.5418 134.961C42.6378 135.897 42.4378 137.105 41.9178 138.625L39.4775 145.858C38.9734 147.378 38.3093 148.691 37.5092 149.851C36.7091 150.995 35.9891 151.659 35.349 151.803ZM34.8769 146.946L37.3092 139.714H37.3172C37.4692 139.217 37.5492 138.801 37.5252 138.465C37.4932 138.249 37.4212 138.105 37.2932 138.073V138.065C37.2532 138.057 37.1972 138.057 37.1412 138.065L35.629 138.433C35.413 138.473 35.165 138.705 34.9089 139.081C34.6369 139.457 34.4209 139.914 34.2289 140.45L31.7806 147.682C31.6205 148.163 31.5645 148.579 31.6045 148.883C31.6285 149.203 31.7406 149.339 31.9486 149.283L33.4928 148.923C33.6928 148.875 33.9328 148.643 34.1968 148.275C34.4849 147.898 34.7009 147.45 34.8769 146.946ZM189.399 104.109C189.919 102.597 190.119 101.389 190.023 100.445C189.959 99.5888 189.671 99.1808 189.167 99.2048V99.1968C189.095 99.1968 189.023 99.2128 188.935 99.2368L181.27 101.061C180.646 101.213 179.91 101.869 179.126 103.021C178.302 104.213 177.646 105.534 177.134 107.054L173.477 117.903C173.325 118.375 173.093 118.711 172.797 118.895C172.493 119.079 172.317 119.263 172.261 119.455C172.149 119.735 172.229 119.863 172.469 119.799L177.838 118.511C178.102 118.447 178.278 118.263 178.39 117.959C178.43 117.807 178.366 117.679 178.15 117.615C177.942 117.551 177.934 117.263 178.086 116.775L181.742 105.958C181.926 105.438 182.142 104.981 182.422 104.613C182.678 104.229 182.918 104.005 183.126 103.949L184.646 103.597C184.863 103.533 184.983 103.677 185.023 103.981C185.047 104.325 184.983 104.733 184.814 105.221L181.462 115.183C180.694 117.415 180.478 119.223 180.854 120.583C181.206 121.975 182.03 122.512 183.302 122.215L185.215 121.727C185.479 121.663 185.647 121.495 185.751 121.199V121.191C185.751 121.183 185.759 121.175 185.759 121.167L185.751 121.159C185.831 120.887 185.759 120.759 185.511 120.823C184.975 120.959 184.67 120.631 184.59 119.855C184.51 119.039 184.686 118.039 185.111 116.799L189.399 104.109ZM24.4117 144.458L19.8272 145.554C19.6031 145.61 19.4911 145.466 19.4591 145.162C19.4111 144.866 19.4911 144.434 19.6671 143.946C19.8432 143.426 20.0592 142.97 20.3312 142.586C20.5953 142.218 20.8353 141.994 21.0513 141.938L27.18 140.474C27.3881 140.41 27.6361 140.186 27.9001 139.81C28.1481 139.425 28.3882 138.977 28.5322 138.489C28.7242 137.961 28.8122 137.545 28.7802 137.241C28.7402 137.017 28.6762 136.873 28.5562 136.841C28.5162 136.833 28.4682 136.833 28.4122 136.841L19.2031 139.057C18.571 139.193 17.8589 139.85 17.0508 141.018C16.2267 142.21 15.5707 143.514 15.0666 145.042C14.5706 146.522 14.3785 147.73 14.4585 148.667C14.5385 149.651 14.9066 150.051 15.5547 149.891L20.1472 148.787C20.3472 148.731 20.4672 148.875 20.4992 149.187C20.5152 149.523 20.4592 149.931 20.2912 150.427C20.1312 150.923 19.9072 151.371 19.6351 151.739C19.3551 152.131 19.1231 152.355 18.9071 152.403L12.7783 153.875C12.5703 153.915 12.3223 154.163 12.0583 154.531C11.7942 154.939 11.5622 155.387 11.4022 155.891C11.2182 156.387 11.1461 156.796 11.1942 157.092C11.2182 157.396 11.3302 157.548 11.5462 157.492L20.7633 155.283C21.4033 155.123 22.1314 154.467 22.9315 153.315C23.7316 152.163 24.3877 150.843 24.8918 149.323C25.3958 147.81 25.5958 146.61 25.5078 145.658C25.4198 144.698 25.0518 144.306 24.4117 144.458ZM74.3216 126.272C74.4256 125.968 74.6016 125.776 74.8496 125.72L80.2182 124.432C80.4823 124.368 80.5543 124.496 80.4423 124.776C80.3863 124.968 80.2102 125.136 79.9302 125.312C79.6342 125.504 79.3861 125.848 79.2181 126.344L77.706 130.856C77.6179 131.105 77.5699 131.321 77.5939 131.449C77.6019 131.633 77.674 131.681 77.786 131.657L80.0822 131.105C80.3303 131.049 80.5703 130.712 80.7703 130.12L82.2985 125.608C82.4745 125.104 82.4345 124.832 82.2105 124.768C82.0025 124.704 81.9224 124.584 81.9865 124.424C82.0905 124.12 82.2745 123.936 82.5225 123.864L87.8911 122.592C87.9552 122.576 88.0112 122.568 88.0512 122.576C88.1792 122.592 88.1952 122.72 88.1072 122.936C88.0512 123.12 87.8751 123.304 87.5791 123.496C87.2831 123.672 87.0591 124.008 86.883 124.504L81.3944 140.794C80.9783 142.034 80.8023 143.042 80.8663 143.85C80.9543 144.626 81.2504 144.954 81.7944 144.826C82.0505 144.762 82.1145 144.874 82.0265 145.162L82.0185 145.194C82.0265 145.178 82.0265 145.17 82.0265 145.162H82.0185C81.9064 145.474 81.7304 145.658 81.4744 145.722L79.5542 146.21C78.282 146.514 77.4579 145.97 77.1059 144.586C76.7458 143.218 76.9459 141.41 77.714 139.185L78.9221 135.545C79.0181 135.297 79.0501 135.089 79.0261 134.945C79.0181 134.777 78.9621 134.705 78.8421 134.745L76.5458 135.289C76.2978 135.353 76.0658 135.689 75.8417 136.321L74.3376 140.794C74.1855 141.282 74.1935 141.57 74.4016 141.626C74.6176 141.69 74.6896 141.81 74.6416 141.97C74.5376 142.282 74.3616 142.466 74.0975 142.53L68.7209 143.818C68.4729 143.882 68.4009 143.754 68.5209 143.466C68.5769 143.282 68.7449 143.098 69.0409 142.914C69.345 142.722 69.577 142.386 69.737 141.922L74.6176 127.456C74.7776 126.96 74.7536 126.688 74.5296 126.624C74.3376 126.552 74.2575 126.44 74.3216 126.272ZM45.3742 133.609C45.5902 133.673 45.6222 133.945 45.4622 134.441L41.7897 145.306C41.2937 146.778 41.0857 148.002 41.1817 148.931C41.2537 149.915 41.6137 150.307 42.2538 150.147L49.9267 148.315C50.5668 148.155 51.2949 147.498 52.0949 146.346C52.895 145.186 53.5511 143.874 54.0552 142.354L57.7116 131.513C57.8876 131.009 58.1117 130.672 58.4077 130.496H58.4157C58.7117 130.304 58.8877 130.12 58.9437 129.936C59.0238 129.72 59.0078 129.592 58.8797 129.576C58.8397 129.568 58.7837 129.576 58.7197 129.592L53.3511 130.88C53.1031 130.936 52.919 131.121 52.815 131.433C52.751 131.585 52.831 131.713 53.0391 131.785C53.2631 131.833 53.2871 132.113 53.1271 132.617L49.4546 143.45C49.2786 143.954 49.0546 144.402 48.7826 144.786C48.5265 145.146 48.2865 145.394 48.0705 145.434L46.5423 145.802C46.3343 145.858 46.2143 145.714 46.1903 145.402C46.1502 145.106 46.2143 144.682 46.3743 144.186L50.0467 133.345C50.2147 132.841 50.4308 132.521 50.7348 132.329C51.0388 132.137 51.2148 131.961 51.2709 131.769C51.3829 131.489 51.3109 131.361 51.0468 131.425L45.6782 132.705C45.4222 132.769 45.2461 132.945 45.1421 133.257C45.0941 133.425 45.1661 133.545 45.3742 133.609ZM59.2958 143.602C58.5517 145.818 58.3517 147.642 58.7117 148.995C59.0638 150.379 59.8879 150.931 61.152 150.627L63.0642 150.139C63.3203 150.075 63.4963 149.891 63.6083 149.579C63.6963 149.315 63.6403 149.171 63.3683 149.235C62.8402 149.363 62.5362 149.035 62.4642 148.259C62.3842 147.45 62.5522 146.45 62.9842 145.21L67.5528 131.641C67.7528 131.025 67.9848 130.68 68.2408 130.632L70.9212 129.984C71.1452 129.928 71.3772 129.704 71.6492 129.328C71.9133 128.944 72.1213 128.496 72.2973 128.008C72.4733 127.48 72.5613 127.072 72.5293 126.76C72.4973 126.536 72.4253 126.392 72.2973 126.36C72.2573 126.352 72.2093 126.352 72.1533 126.36L61.408 128.928C61.208 128.984 60.968 129.208 60.704 129.584C60.4239 129.992 60.1919 130.44 60.0319 130.944C59.8639 131.441 59.7999 131.857 59.8479 132.153C59.8719 132.457 59.9759 132.601 60.1919 132.553L62.8722 131.913C62.9762 131.881 63.0402 131.953 63.0562 132.121C63.0882 132.257 63.0562 132.457 62.9682 132.705L59.2958 143.602Z" fill="black"/>
<path d="M183.838 114.918C183.43 116.167 183.246 117.159 183.31 117.975C183.406 118.759 183.71 119.079 184.238 118.943C184.502 118.879 184.582 119.007 184.47 119.319L184.478 119.287C184.374 119.599 184.19 119.791 183.926 119.847L182.014 120.335C180.742 120.631 179.925 120.103 179.565 118.703C179.205 117.343 179.413 115.534 180.173 113.302L183.526 103.341C183.694 102.861 183.758 102.445 183.742 102.101C183.702 101.797 183.582 101.661 183.35 101.709L181.83 102.077C181.63 102.133 181.382 102.357 181.134 102.733C180.854 103.109 180.63 103.565 180.446 104.077L176.797 114.894C176.637 115.382 176.653 115.671 176.861 115.735C177.077 115.791 177.149 115.919 177.101 116.079C176.997 116.375 176.813 116.567 176.565 116.639L171.188 117.927C170.94 117.983 170.86 117.863 170.98 117.567C171.036 117.383 171.22 117.207 171.508 117.015C171.813 116.823 172.037 116.495 172.197 116.023L175.853 105.181C176.357 103.669 177.013 102.349 177.829 101.149C178.629 99.9967 179.357 99.3406 179.989 99.1886L187.654 97.3484C187.734 97.3324 187.806 97.3164 187.878 97.3164C188.382 97.3004 188.671 97.7164 188.743 98.5645C188.831 99.5006 188.639 100.717 188.118 102.229L183.838 114.918ZM50.7903 144.482C51.5904 143.322 52.2465 142.01 52.7506 140.489L56.391 129.648C56.575 129.144 56.799 128.808 57.1031 128.632C57.3991 128.44 57.5671 128.256 57.6231 128.072C57.7112 127.856 57.6951 127.736 57.5751 127.712C57.5351 127.704 57.4791 127.704 57.4151 127.72L52.0305 129.008C51.7825 129.072 51.6144 129.248 51.4944 129.568C51.4464 129.72 51.5104 129.856 51.7345 129.912C51.9665 129.968 51.9905 130.256 51.8225 130.752L48.158 141.586C47.974 142.09 47.758 142.538 47.486 142.922C47.2379 143.29 46.9899 143.53 46.7819 143.57L45.2537 143.93C45.0377 143.97 44.9337 143.85 44.8937 143.53C44.8536 143.226 44.9257 142.818 45.0777 142.322L48.7501 131.472C48.9181 130.976 49.1421 130.64 49.4382 130.464C49.7342 130.272 49.9262 130.096 49.9822 129.904C50.0783 129.624 50.0143 129.496 49.7422 129.56L44.3816 130.84C44.1336 130.904 43.9495 131.088 43.8535 131.392C43.7895 131.56 43.8615 131.672 44.0696 131.744C44.2936 131.808 44.3256 132.08 44.1656 132.576L40.4931 143.426C39.9971 144.922 39.7971 146.138 39.8851 147.066C39.9571 148.05 40.3171 148.442 40.9652 148.29L48.6221 146.458C49.2622 146.29 49.9902 145.634 50.7903 144.482ZM23.0911 142.602L18.5146 143.698C18.2825 143.754 18.1785 143.61 18.1385 143.306C18.0985 143.002 18.1865 142.578 18.3545 142.09C18.5306 141.57 18.7386 141.113 19.0186 140.729C19.2746 140.353 19.5147 140.137 19.7307 140.081L25.8594 138.609C26.0834 138.553 26.3155 138.329 26.5875 137.945C26.8355 137.569 27.0596 137.121 27.2276 136.633C27.4036 136.097 27.4916 135.681 27.4596 135.377C27.4196 135.145 27.3556 135.009 27.2356 134.977C27.1956 134.969 27.1476 134.969 27.0916 134.985L17.8825 137.193C17.2504 137.345 16.5303 138.001 15.7222 139.153C14.8981 140.345 14.2421 141.666 13.738 143.186C13.2419 144.666 13.0499 145.882 13.1379 146.81C13.2179 147.794 13.586 148.186 14.2261 148.034L18.8346 146.938C19.0346 146.882 19.1626 147.026 19.1866 147.33C19.1946 147.666 19.1386 148.074 18.9706 148.562C18.8266 149.066 18.5946 149.514 18.3145 149.891C18.0345 150.267 17.8025 150.499 17.5944 150.555L11.4497 152.019C11.2497 152.059 11.0097 152.299 10.7376 152.683C10.4736 153.083 10.2416 153.531 10.0896 154.043C9.90555 154.531 9.84154 154.931 9.88155 155.243C9.90555 155.547 10.0176 155.691 10.2256 155.643L19.4427 153.443C20.0827 153.283 20.8108 152.619 21.6109 151.467C22.411 150.307 23.0671 148.994 23.5711 147.474C24.0832 145.954 24.2832 144.754 24.1872 143.802C24.1072 142.842 23.7392 142.45 23.0911 142.602ZM134.416 131.744L136.32 131.248C136.584 131.184 136.752 131 136.864 130.68C136.96 130.408 136.888 130.288 136.624 130.344C136.104 130.472 135.808 130.144 135.72 129.368C135.648 128.568 135.816 127.56 136.248 126.312L140.825 112.75C141.017 112.134 141.249 111.798 141.497 111.742L144.177 111.094C144.401 111.038 144.641 110.806 144.905 110.438H144.913C145.177 110.054 145.401 109.606 145.561 109.118C145.745 108.582 145.817 108.166 145.801 107.862C145.753 107.566 145.641 107.414 145.425 107.462L134.68 110.038C134.472 110.094 134.232 110.318 133.976 110.694C133.688 111.102 133.472 111.558 133.296 112.054C133.136 112.55 133.064 112.958 133.12 113.254C133.144 113.558 133.256 113.71 133.464 113.654L136.152 113.014C136.24 112.99 136.312 113.054 136.32 113.222C136.352 113.366 136.32 113.566 136.232 113.814L132.56 124.696C131.816 126.92 131.608 128.736 131.976 130.096C132.32 131.488 133.144 132.04 134.416 131.744ZM117.974 124.023L122.575 122.927C122.783 122.871 122.895 123.015 122.927 123.327C122.943 123.663 122.887 124.071 122.727 124.568C122.567 125.072 122.335 125.512 122.055 125.896C121.783 126.272 121.543 126.512 121.343 126.552L115.206 128.016C114.99 128.064 114.758 128.304 114.486 128.672C114.222 129.08 113.99 129.528 113.83 130.024C113.654 130.528 113.574 130.936 113.622 131.232C113.646 131.536 113.766 131.688 113.974 131.64L123.183 129.432C123.831 129.272 124.551 128.616 125.359 127.464C126.159 126.312 126.815 124.976 127.311 123.471C127.823 121.959 128.023 120.751 127.935 119.799C127.847 118.831 127.479 118.431 126.839 118.591L122.255 119.695C122.031 119.751 121.919 119.607 121.887 119.303C121.847 119.007 121.927 118.575 122.103 118.079C122.271 117.567 122.495 117.111 122.767 116.727C123.023 116.359 123.271 116.127 123.479 116.087L129.6 114.606C129.824 114.55 130.064 114.326 130.336 113.95C130.6 113.566 130.824 113.118 130.976 112.63C131.168 112.102 131.248 111.686 131.216 111.382C131.184 111.158 131.112 111.014 130.992 110.982C130.952 110.974 130.904 110.974 130.848 110.982L121.639 113.19C121.015 113.334 120.294 113.99 119.494 115.15C118.67 116.351 118.014 117.679 117.502 119.191C116.998 120.671 116.806 121.887 116.902 122.823C116.974 123.783 117.334 124.184 117.974 124.023ZM73.241 124.768C73.457 124.832 73.489 125.104 73.329 125.592L68.4324 140.065C68.2884 140.521 68.0564 140.857 67.7523 141.049C67.4563 141.234 67.2643 141.418 67.2243 141.602C67.1123 141.89 67.1843 142.018 67.4323 141.954L72.8009 140.665C73.0649 140.601 73.249 140.417 73.345 140.105C73.401 139.953 73.329 139.833 73.113 139.761C72.9049 139.697 72.8889 139.409 73.049 138.921L74.5611 134.449C74.7772 133.825 75.0092 133.481 75.2652 133.417L77.5535 132.865C77.6735 132.833 77.7295 132.905 77.7455 133.073C77.7615 133.217 77.7215 133.417 77.6335 133.673L76.4253 137.313C75.6573 139.545 75.4492 141.354 75.8093 142.714C76.1693 144.114 76.9934 144.642 78.2576 144.346L80.1778 143.858C80.4338 143.794 80.5938 143.618 80.7138 143.33V143.322C80.7138 143.314 80.7218 143.306 80.7299 143.298H80.7218L80.7138 143.322C80.8099 143.018 80.7459 142.89 80.4818 142.954C79.9538 143.09 79.6577 142.762 79.5697 141.986C79.4897 141.178 79.6657 140.169 80.0898 138.929L85.5624 122.647C85.7464 122.151 85.9705 121.815 86.2745 121.639C86.5705 121.447 86.7466 121.263 86.8026 121.079C86.8906 120.863 86.8666 120.743 86.7386 120.719C86.6986 120.711 86.6425 120.719 86.5785 120.735L81.2099 122.007C80.9619 122.079 80.7779 122.255 80.6738 122.567C80.6018 122.727 80.6818 122.847 80.8899 122.919C81.1299 122.983 81.1539 123.255 80.9859 123.743L79.4577 128.264C79.2657 128.864 79.0176 129.2 78.7776 129.256L76.4814 129.808C76.3613 129.832 76.2973 129.776 76.2813 129.6C76.2653 129.464 76.3133 129.256 76.4093 129.008L77.9135 124.496C78.0895 123.999 78.3296 123.663 78.6336 123.463C78.9216 123.287 79.0977 123.119 79.1377 122.927C79.2577 122.639 79.1777 122.511 78.9216 122.575L73.545 123.863C73.305 123.927 73.129 124.103 73.0169 124.416C72.9609 124.592 73.0329 124.696 73.241 124.768ZM40.5971 136.761L38.1569 143.986C37.6528 145.514 36.9967 146.826 36.1966 147.978C35.4045 149.13 34.6685 149.795 34.0284 149.947L26.3555 151.787C25.7154 151.939 25.3634 151.547 25.2994 150.563C25.2033 149.626 25.3874 148.402 25.8994 146.922L28.3317 139.705C28.8438 138.185 29.4918 136.865 30.3159 135.681C31.124 134.529 31.8441 133.857 32.4682 133.713L40.1411 131.872C40.2211 131.856 40.2931 131.84 40.3651 131.84C40.8692 131.824 41.1572 132.24 41.2292 133.089C41.3172 134.025 41.1172 135.241 40.5971 136.761ZM36.2126 136.609C36.1806 136.385 36.1086 136.249 35.9806 136.217C35.9406 136.209 35.8846 136.209 35.8286 136.225L34.3164 136.593C34.1004 136.633 33.8604 136.865 33.5963 137.241C33.3243 137.617 33.1083 138.073 32.9162 138.609L30.476 145.842C30.2999 146.322 30.2439 146.738 30.2919 147.042C30.3159 147.354 30.428 147.49 30.636 147.442L32.1722 147.082C32.3802 147.034 32.6282 146.802 32.8922 146.434C33.1643 146.042 33.3883 145.602 33.5563 145.106L35.9966 137.873H36.0046C36.1566 137.361 36.2366 136.945 36.2126 136.609ZM57.9912 141.746C57.2311 143.962 57.0391 145.786 57.3991 147.146C57.7512 148.53 58.5672 149.082 59.8314 148.778L61.7516 148.282C62.0077 148.218 62.1837 148.042 62.2957 147.722C62.3837 147.458 62.3197 147.33 62.0557 147.378C61.5276 147.506 61.2236 147.178 61.1516 146.402C61.0715 145.594 61.2396 144.594 61.6636 143.354L66.2402 129.784C66.4402 129.168 66.6722 128.824 66.9282 128.776L69.6085 128.136C69.8326 128.072 70.0646 127.848 70.3286 127.472C70.5847 127.088 70.8087 126.64 70.9847 126.152C71.1527 125.624 71.2407 125.208 71.2087 124.904C71.1767 124.68 71.1047 124.536 70.9847 124.504C70.9447 124.496 70.8967 124.496 70.8407 124.504L60.0954 127.072C59.8794 127.128 59.6554 127.352 59.3913 127.728C59.1113 128.136 58.8793 128.584 58.7033 129.088C58.5513 129.584 58.4792 130 58.5272 130.296C58.5513 130.6 58.6633 130.744 58.8713 130.696L61.5596 130.056C61.6556 130.024 61.7196 130.096 61.7356 130.264C61.7676 130.4 61.7436 130.608 61.6396 130.848L57.9912 141.746ZM170.892 112.318C170.94 112.95 170.796 113.774 170.46 114.766L169.236 118.407C168.828 119.655 168.66 120.647 168.724 121.463C168.812 122.239 169.116 122.559 169.644 122.431C169.9 122.367 169.988 122.503 169.884 122.807H169.876L169.884 122.775C169.78 123.087 169.604 123.263 169.34 123.335L167.412 123.831C166.148 124.136 165.332 123.591 164.964 122.191C164.612 120.831 164.844 119.007 165.572 116.799L165.884 115.871C166.044 115.382 166.108 114.966 166.076 114.662C166.036 114.358 165.916 114.214 165.716 114.262L163.82 114.694C163.556 114.75 163.316 115.094 163.108 115.703L162.203 118.399C162.035 118.895 162.059 119.167 162.267 119.239C162.475 119.295 162.547 119.431 162.507 119.583C162.411 119.879 162.219 120.071 161.963 120.127L156.595 121.423C156.331 121.487 156.267 121.359 156.387 121.071C156.435 120.887 156.611 120.711 156.915 120.519C157.219 120.327 157.443 119.999 157.595 119.527L162.483 105.069C162.651 104.573 162.627 104.293 162.395 104.229C162.187 104.165 162.115 104.045 162.179 103.885C162.275 103.581 162.467 103.397 162.699 103.325L173.053 100.845C173.133 100.829 173.213 100.813 173.285 100.813C173.789 100.797 174.085 101.205 174.149 102.061C174.237 102.997 174.037 104.213 173.525 105.733L172.925 107.526C172.581 108.51 172.141 109.406 171.613 110.19C171.076 110.974 170.612 111.398 170.172 111.502C170.588 111.422 170.828 111.662 170.892 112.318ZM169.148 105.573C169.108 105.341 169.036 105.205 168.908 105.173C168.868 105.165 168.82 105.165 168.764 105.181L166.86 105.645C166.596 105.717 166.372 106.045 166.156 106.669L164.94 110.246C164.86 110.502 164.828 110.71 164.852 110.862C164.86 111.046 164.924 111.102 165.02 111.094L166.94 110.638C167.156 110.582 167.396 110.35 167.66 109.942C167.932 109.574 168.156 109.126 168.316 108.63L168.924 106.837L168.932 106.829C169.1 106.325 169.164 105.909 169.148 105.573ZM147.81 107.742C148.034 107.798 148.058 108.078 147.898 108.566L143.017 123.039C142.857 123.487 142.633 123.839 142.321 124.023C142.025 124.208 141.857 124.392 141.801 124.584C141.681 124.872 141.753 124.992 142.001 124.928L153.898 122.063C154.114 122.031 154.354 121.791 154.619 121.431C154.883 121.039 155.107 120.599 155.291 120.095C155.459 119.583 155.531 119.151 155.499 118.855C155.459 118.559 155.331 118.415 155.131 118.463L148.61 120.007C148.514 120.039 148.434 119.975 148.434 119.807C148.418 119.679 148.458 119.455 148.546 119.207L149.138 117.423C149.354 116.807 149.578 116.479 149.81 116.407L154.827 115.206C155.035 115.15 155.283 114.918 155.539 114.55C155.819 114.174 156.019 113.718 156.179 113.238C156.371 112.71 156.451 112.294 156.419 111.982C156.379 111.678 156.259 111.542 156.051 111.59L151.074 112.766C150.962 112.806 150.89 112.742 150.882 112.566C150.866 112.43 150.906 112.222 150.986 111.974L151.594 110.182C151.81 109.558 152.042 109.222 152.298 109.166L158.803 107.598C159.027 107.542 159.259 107.318 159.531 106.941C159.787 106.565 160.003 106.109 160.179 105.621C160.363 105.101 160.451 104.685 160.419 104.373C160.371 104.069 160.259 103.933 160.035 103.973L148.114 106.829C147.874 106.893 147.698 107.078 147.594 107.382C147.522 107.542 147.602 107.662 147.81 107.742ZM90.787 131.4C91.0031 130.776 91.2191 130.44 91.4591 130.376L96.4757 129.184C96.6837 129.128 96.9237 128.904 97.1878 128.528C97.4678 128.144 97.6678 127.696 97.8279 127.2C98.0119 126.68 98.0999 126.264 98.0679 125.96C98.0199 125.656 97.8999 125.512 97.6998 125.56L92.7233 126.76C92.6112 126.784 92.5392 126.72 92.5312 126.552C92.5072 126.408 92.5392 126.2 92.6192 125.952L93.2353 124.16C93.4513 123.535 93.6754 123.191 93.9394 123.135L100.444 121.575C100.668 121.519 100.9 121.295 101.172 120.919H101.18C101.436 120.535 101.652 120.087 101.82 119.599C102.004 119.071 102.092 118.655 102.06 118.351C102.028 118.127 101.956 117.983 101.828 117.951C101.788 117.943 101.74 117.943 101.684 117.951L89.7869 120.799C89.5389 120.863 89.3629 121.055 89.2508 121.359C89.1868 121.519 89.2669 121.647 89.4749 121.703C89.6989 121.767 89.7229 122.055 89.5629 122.535L84.6743 137.009C84.5223 137.457 84.2903 137.801 83.9942 137.993C83.6902 138.185 83.5222 138.361 83.4662 138.553C83.3462 138.833 83.4262 138.961 83.6662 138.897L95.5556 136.041C95.7796 136.001 96.0196 135.769 96.2757 135.401C96.5477 135.009 96.7637 134.569 96.9477 134.081C97.1158 133.561 97.1798 133.137 97.1478 132.833C97.1078 132.528 96.9878 132.384 96.7877 132.432L90.267 133.985C90.155 134.009 90.0989 133.945 90.0909 133.785C90.0669 133.649 90.1149 133.433 90.203 133.185L90.787 131.4ZM106.637 136.169C106.269 134.809 106.477 133.001 107.229 130.776L107.821 128.968C107.909 128.72 107.941 128.512 107.917 128.368C107.901 128.208 107.861 128.128 107.749 128.152L105.469 128.672C105.213 128.736 104.965 129.08 104.749 129.68L103.853 132.376C103.693 132.873 103.709 133.153 103.917 133.209C104.125 133.281 104.197 133.409 104.157 133.561C104.053 133.857 103.869 134.049 103.613 134.105L98.2439 135.401C97.9959 135.465 97.9239 135.337 98.0279 135.057C98.0839 134.873 98.2679 134.697 98.5639 134.505C98.868 134.313 99.092 133.977 99.236 133.521L102.9 122.663C103.413 121.151 104.069 119.823 104.893 118.639C105.685 117.487 106.413 116.831 107.037 116.671L114.702 114.838C114.782 114.822 114.862 114.806 114.934 114.806C115.438 114.79 115.726 115.198 115.798 116.055C115.878 116.999 115.694 118.207 115.166 119.727L110.901 132.392C110.477 133.633 110.293 134.633 110.381 135.449C110.461 136.225 110.773 136.545 111.301 136.417C111.573 136.361 111.637 136.489 111.533 136.793V136.761C111.437 137.073 111.261 137.265 110.997 137.321L109.069 137.817C107.797 138.113 106.981 137.569 106.637 136.169ZM108.989 124.504C109.229 124.448 109.461 124.111 109.653 123.527L110.581 120.799H110.589C110.765 120.311 110.813 119.887 110.805 119.559C110.773 119.335 110.693 119.191 110.565 119.167C110.525 119.159 110.477 119.159 110.421 119.175L108.893 119.535C108.685 119.575 108.453 119.815 108.189 120.191C107.909 120.567 107.685 121.015 107.517 121.551L106.605 124.232C106.509 124.488 106.485 124.688 106.509 124.856C106.517 125.016 106.565 125.08 106.677 125.072L108.989 124.504Z" fill="white"/>
</g>
<defs>
<clipPath id="clip0_15016_304243">
<rect width="200" height="200" fill="white" transform="translate(0.28125 0.140625)"/>
</clipPath>
</defs>
</svg>
