<svg width="201" height="201" viewBox="0 0 201 201" fill="none" xmlns="http://www.w3.org/2000/svg">
<g clip-path="url(#clip0_15016_302032)">
<path d="M198.54 109.031C194.541 97.0832 183.853 87.9127 176.312 82.6697L183.374 73.8661L181.312 72.1554C180.066 71.1191 150.314 46.8183 107.417 46.8183L106.395 46.8244C63.4939 47.2075 33.689 72.6706 32.441 73.7492L27.1587 78.34L36.3443 78.6202C26.3351 85.828 14.2694 96.9068 3.97081 113.206L0.84375 118.159L6.64726 117.384C6.77126 117.366 18.8037 115.771 28.4651 115.771C29.194 115.771 29.8986 115.781 30.567 115.798C28.318 118.734 25.4802 122.629 23.7937 125.658L20.7463 131.133L26.8361 129.65C26.9107 129.63 34.6719 127.771 45.7537 127.771C62.1169 127.771 88.1485 131.754 106.208 150.716L107.966 152.564L109.934 150.94C110.076 150.82 121.561 139.194 139.606 134.343C143.648 133.418 147.673 132.952 151.563 132.952H152.023C152.272 132.952 152.526 132.956 152.777 132.964C154.796 133.134 156.846 133.444 158.871 133.877C177.837 137.947 178.584 148.845 178.61 149.424L178.682 154.424L182.864 151.639C183.602 151.152 200.844 139.458 200.844 121.451C200.844 117.232 200.05 113.019 198.527 109.022" fill="white"/>
<path d="M106.416 49.5611C64.0443 49.9499 34.2439 75.8309 34.2439 75.8309L45.0223 76.1616C34.6866 82.4584 19.0872 94.4296 6.2959 114.679C6.2959 114.679 26.1244 112.023 35.8472 113.473C35.4342 113.997 34.9923 114.571 34.5278 115.186C32.3931 117.881 28.3091 123.2 26.1938 126.995C26.1938 126.995 76.322 115.365 108.194 148.834C108.202 148.834 120.033 136.786 139.008 131.681C143.129 130.745 147.492 130.181 152.041 130.221C152.339 130.221 152.638 130.229 152.944 130.237C155.049 130.415 157.21 130.729 159.46 131.205C181.162 135.866 181.364 149.367 181.364 149.367C181.364 149.367 198.121 138.205 198.121 121.46C198.121 117.318 197.299 113.456 195.944 109.9C191.718 97.2683 179.372 87.8053 172.041 83.1109L174.614 80.4898L179.565 74.2615C179.565 74.2615 149.355 49.1708 106.42 49.5611H106.416ZM115.916 81.5326C117.835 81.6616 120.497 81.9907 122.311 82.6649C122.844 88.3125 128.924 91.5029 128.924 91.5029C121.465 91.6134 117.126 84.3939 115.916 81.5326Z" fill="black"/>
<path d="M105.23 57.7035C78.3485 58.0075 61.4152 68.5294 61.4152 68.5294C70.021 68.7931 76.934 69.3504 76.934 69.3504C51.0828 76.4852 33.1228 95.7613 28.3574 101.841C54.9901 82.5716 81.2945 74.6868 97.2706 73.1876C99.6254 73.0464 101.795 72.969 103.803 72.9505C103.061 72.1892 101.625 71.4908 99.9319 70.8827C99.8593 70.8577 99.8029 70.8335 99.7383 70.8101C99.7222 70.8085 99.7141 70.8069 99.7061 70.8069C96.077 69.5488 91.5124 68.6762 89.7059 68.3496C89.4075 68.298 89.2382 68.273 89.2382 68.273H89.2462C89.0285 68.231 88.9075 68.2125 88.9075 68.2125C92.8995 67.656 96.8109 67.552 100.609 67.8036C104.23 68.0149 107.666 68.5585 110.884 69.331C126.763 72.9827 139.262 81.699 144.311 85.6442C150.206 86.8313 156.206 85.2877 161.537 81.4175C156.666 77.5191 144.972 69.6069 144.972 69.6069C153.585 72.2787 161.722 76.9465 164.755 78.9151C166.561 77.5159 167.835 75.9352 167.835 75.9352C159.061 69.7383 149.875 65.7512 140.94 63.2826C127.795 59.0301 115.747 57.5849 105.23 57.7035ZM104.158 81.7861C74.5339 82.0579 52.9642 99.1493 52.9642 99.1493C81.4961 89.0749 103.924 89.7112 103.924 89.7112C113.222 98.5081 124.295 98.1 130.553 96.8855C114.819 94.7927 111.077 85.8281 110.19 81.9659C108.15 81.8248 106.134 81.7683 104.158 81.7861ZM166.392 87.0934C161.956 90.4878 156.44 93.9548 149.964 96.6024C139.956 100.694 133.399 106.332 128.02 114.006C157.311 110.524 174.473 125.104 181.206 132.076C181.384 132.189 181.553 132.31 181.723 132.431C184.52 128.746 188.48 121.291 185.907 110.45C185.907 110.45 189.246 113.538 191.061 118.235C190.682 102.833 172.674 90.8201 166.392 87.0934ZM140.383 119.87C132.706 119.736 126.352 121.212 122.819 122.615C121.392 125.284 119.674 129.601 118.271 132.657C135.141 121.958 149.625 123.426 165.868 126.787C157.045 121.748 148.053 120.004 140.383 119.87Z" fill="#FFD046"/>
</g>
<defs>
<clipPath id="clip0_15016_302032">
<rect width="200" height="200" fill="white" transform="translate(0.84375 0.621094)"/>
</clipPath>
</defs>
</svg>
