<svg width="201" height="201" viewBox="0 0 201 201" fill="none" xmlns="http://www.w3.org/2000/svg">
<g clip-path="url(#clip0_15016_302260)">
<path d="M156.166 160.554L157.355 157.064L160.962 146.478L166.207 131.079C166.257 130.874 170.91 112.69 193.865 107.824C193.869 107.824 193.928 107.81 193.928 107.81L193.989 107.797L194.038 107.759L194.087 107.72C194.165 107.659 201.661 101.071 200.425 95.9011C199.789 93.2433 196.964 91.3614 192.043 90.297C191.81 89.6397 190.972 88.1281 188.098 88.0944V88.0992H188.093V88.3605C188.093 88.3605 187.992 88.3557 187.833 88.3493L188.09 88.0992C188.038 88.0912 187.985 88.0896 187.934 88.0864L187.468 88.0656L185.967 87.9966L182.793 87.854C182.776 87.8091 182.755 87.7626 182.721 87.7129C182.12 86.8553 180.087 86.493 176.508 86.6084C176.49 86.6084 165.154 87.3154 164.2 87.3763C164.125 87.341 164.028 87.2993 163.874 87.2352C163.047 86.8905 160.935 85.9993 159.609 84.6688C161.415 83.6508 166.043 80.3278 168.474 72.0787C169.512 71.6042 175.221 68.7299 176.163 62.5695C177.582 62.0502 185.485 58.703 184.714 48.6745V48.6729C184.712 48.6521 184.712 48.6489 184.712 48.6489L184.711 48.6313L184.706 48.6136L184.701 48.5912C184.65 48.3812 183.423 43.4792 179.629 40.6578C179.95 39.5181 180.735 35.5859 177.277 32.9537C177.319 31.9807 177.224 29.1305 175.051 25.9373C172.722 22.5181 167.435 18.145 155.478 16.7328L155.334 16.7151L155.188 16.6975L155.095 16.8113L155.002 16.9251C154.938 17.0053 153.49 18.7975 152.993 20.16C151.421 19.8442 145.711 18.8584 140.937 19.9805C139.916 18.8327 134.853 14.7498 115.619 16.7119C115.026 16.3144 112.028 14.3907 107.612 13.2205C101.642 11.64 95.7749 12.0504 90.1724 14.4388C89.4462 14.3347 85.0187 13.7816 79.1708 14.7963C73.2685 15.8174 64.6074 18.6852 56.8312 26.5256C55.2313 27.0995 28.9322 36.732 13.8702 55.2068C5.6996 65.2321 1.11337 76.1359 0.610018 86.7415C0.0537702 98.4836 4.38352 109.197 13.471 118.589L0.62604 157.106L0.566736 157.281L0.711002 157.398L1.09734 157.712L1.2384 157.826L1.3971 157.736C1.67763 157.577 8.37665 153.85 16.6322 156.014C24.8284 158.159 37.0964 160.03 40.9084 160.455C40.3954 162.202 39.4784 166.957 42.6156 172.054C45.0217 175.962 49.2793 179.239 55.2698 181.789C62.7447 184.968 72.9623 187.026 85.6406 187.898C98.1057 188.759 109.409 188.142 119.235 186.063C127.321 184.353 134.451 181.645 140.43 178.021C150.244 172.07 154.718 164.857 155.715 161.875L155.689 161.87L156.166 160.554Z" fill="#79BDE8"/>
<path d="M89.275 73.1196C87.8643 73.1196 86.5238 73.1375 85.2173 73.1647C84.4959 74.5048 83.4794 75.9441 82.0238 77.4879C82.0238 77.4879 82.5035 75.6671 82.3945 73.2449C80.1535 73.3282 78.043 73.4557 76.02 73.6256C75.5263 75.3007 74.5924 77.2111 72.9317 79.3865C72.9317 79.3865 73.2329 76.8413 72.7664 73.9462C67.2071 74.565 62.1214 75.5186 56.3732 76.7865C36.3368 81.2029 30.0529 88.3606 28.3076 93.5836L26.0633 100.339C25.1993 102.936 25.3542 105.348 26.5292 107.512C28.6629 111.437 34.0889 114.549 42.6569 116.765C42.6569 116.765 42.8392 116.812 42.8472 116.815C51.8658 119.144 56.8307 120.429 70.4243 120.429C88.0075 120.429 96.1996 122.908 99.5211 124.384L100.017 124.605L99.8467 125.118L96.9738 133.699L96.8837 133.967L96.6207 134.07C94.7755 134.775 92.1413 135.674 88.1322 136.432L82.3813 153.537C86.5877 152.908 90.6728 152.084 95.421 151.037C115.463 146.621 121.749 139.462 123.497 134.237L126.355 125.686C127.222 123.094 127.065 120.683 125.891 118.52C123.758 114.595 118.33 111.48 109.759 109.263C100.36 106.834 88.927 105.601 75.7797 105.601C59.6007 105.601 55.9304 103.478 52.9386 101.749C52.9257 101.739 52.8923 101.72 52.8233 101.683L52.3925 101.443L52.5478 100.972L55.1427 93.1699L55.2303 92.9019L55.4958 92.8017C60.4908 90.8717 67.7237 88.8969 83.5089 88.8969C119.742 88.8969 129.16 99.8251 131.419 103.918C133.184 98.5253 139.215 80.1034 139.218 80.1008L139.597 78.9611C138.763 79.0974 137.7 79.269 137.718 79.2642C137.68 79.2738 133.22 79.9482 128.168 78.35C119.967 75.7563 108.39 74.4173 99.9967 73.7488C99.4036 75.1161 98.6133 76.6219 97.512 78.3099C97.512 78.3099 98.0152 76.1605 98.1883 73.6085C96.3673 73.4755 94.7507 73.3776 93.3993 73.3054C92.8879 74.4612 92.2113 75.7097 91.2928 77.0675C91.2928 77.0675 91.5516 75.3767 91.4506 73.2077C90.2114 73.1516 89.437 73.126 89.275 73.1196ZM131.356 110.47C133.913 112.315 137.937 116.459 135.644 123.317L123.364 159.619L123.273 159.887L123.008 159.987C122.447 160.197 121.908 160.435 121.337 160.688C118.122 162.118 114.117 163.897 99.4235 163.897C83.0098 163.897 78.7573 161.704 75.6539 160.1L75.3834 159.959L74.93 159.724L75.0928 159.238L86.4041 125.777C81.781 125.154 76.3373 124.835 70.1956 124.835C66.9062 124.835 64.0352 124.759 61.419 124.605C60.0453 128.672 49.2637 160.542 49.2637 160.54C48.398 163.132 48.552 165.541 49.727 167.706C51.8574 171.631 57.2852 174.746 65.8547 176.963C75.6844 179.504 80.573 180.627 93.4292 180.627C143.123 180.627 148.542 160.417 148.608 160.159C148.608 160.159 161.206 122.93 161.206 122.934C163.446 116.23 168.398 112.261 171.178 110.471H131.355L131.356 110.47ZM20.2989 123.029L11.7559 148.872C12.5894 148.734 13.652 148.561 13.6343 148.564C13.6744 148.556 18.1097 147.872 23.1849 149.478C28.7538 151.238 36.5143 152.629 46.2389 153.613L51.7643 137.168C28.9873 134.455 22.1751 126.4 20.3002 123.034L20.2989 123.029Z" fill="white"/>
<path d="M173.606 49.079C173.606 49.079 172.183 43.5325 166.877 39.0505C166.877 39.0505 166.732 32.8404 161.954 28.3647C161.519 28.5699 160.993 28.6228 160.474 28.4353C159.163 27.9576 158.765 28.9514 158.765 28.9514C158.765 28.9514 158.47 29.6504 156.899 29.155C155.325 28.6597 155.106 26.8034 155.179 26.5405C155.232 26.3321 155.615 25.5546 155.596 24.8092C152.058 23.7529 147.421 23.4771 141.315 24.6121L140.811 27.7299C140.811 27.7299 137.966 19.8799 119.876 21.943C119.876 21.943 119.225 29.2656 127.24 34.1741L126.251 34.9371C126.251 34.9371 115.328 31.6734 115.925 21.1111C115.925 21.1111 103.161 15.6464 93.8301 19.5385C93.8301 19.5385 96.7332 20.9171 99.4695 25.0561C99.4695 25.0561 99.8014 25.6027 99.3717 26.0083C98.9437 26.4122 98.4468 26.1269 98.3506 26.0788C98.3506 26.0788 94.1716 23.7609 88.1089 22.4143C87.9406 23.0908 87.4789 23.6599 86.6983 23.6326C84.9333 23.5669 84.3418 24.8445 84.3418 24.8445C84.3418 24.8445 84.3691 26.401 82.2178 27.1416C78.5998 28.3824 77.0785 27.1817 75.2142 26.1943C73.4862 25.2821 73.8228 22.9113 75.6054 21.7587C68.4334 22.7317 60.7838 26.3914 54.6186 35.5976C54.6186 35.5976 46.9065 47.718 39.1944 52.1247C39.1944 52.1247 36.0877 53.6123 36.4308 57.2287C36.7722 60.8468 39.85 60.3081 40.193 60.4556C40.5361 60.6031 44.8113 60.9846 47.7721 69.3524C48.8958 72.5295 50.2167 72.7251 50.2167 72.7251C50.2167 72.7251 63.501 69.4213 68.9272 69.0286C68.9272 69.0286 70.1487 70.9842 70.4404 72.8421L72.5051 72.677C72.5051 72.677 72.029 70.2853 70.5799 68.4499C70.5799 68.4499 71.1361 65.5676 73.7715 64.9296C73.7715 64.9296 75.7272 66.4189 76.0686 68.3777C76.067 68.3777 78.7152 68.1998 79.2282 68.1998C79.2282 68.1998 80.2509 70.3286 80.3343 71.9461C80.3343 71.9461 81.8587 71.8691 82.1986 71.9541C82.1986 71.9541 81.9838 69.4694 80.9402 67.69C80.9402 67.69 81.9453 64.5193 84.8388 62.7431C84.8388 62.7431 86.6261 64.46 86.6261 67.8664L88.2612 67.9513C88.2612 67.9513 89.2823 69.9102 89.3689 71.8675C89.3689 71.8675 90.8854 71.8691 91.2252 71.9541C91.2252 71.9541 91.3855 69.7756 89.8594 67.1178C89.8594 67.1194 90.475 64.0624 92.8106 62.6854C92.8106 62.6854 94.8047 64.29 94.7198 68.2062L95.7489 68.2992C95.7489 68.3008 96.3468 70.5146 96.2635 72.3019L98.1246 72.4654C98.1246 72.4654 98.4628 69.7595 97.4834 67.4929C97.4834 67.4929 98.0909 64.9825 100.236 63.7851C100.236 63.7851 101.784 65.7376 101.361 68.7192L103.32 68.8041C103.32 68.8041 107.834 61.9897 99.0624 60.6271C99.0624 60.6271 97.6982 62.7559 96.932 63.1839L96.5921 62.8425C96.5921 62.8425 98.0412 59.093 93.5271 58.8382C93.5271 58.8382 90.6305 58.5833 90.2057 58.6682C90.2057 58.6682 90.0326 60.6271 89.3529 61.6499H88.8399C88.8399 61.6499 88.5017 58.0735 83.1347 58.6682L77.7694 59.2646C77.7694 59.2646 79.6434 60.9686 78.1109 62.671C78.1109 62.671 78.3674 58.5849 57.1626 63.6087V62.9259C57.1626 62.9275 64.2287 58.8398 74.7045 56.8809C74.7029 56.8809 70.1022 54.2407 68.7428 52.1968C67.3803 50.153 61.7601 47.0015 57.4175 45.7239V45.1275C57.4175 45.1275 68.5729 45.1291 74.7045 51.5156C74.7029 51.5156 77.6861 49.4717 82.0287 49.4717C86.3713 49.4717 90.0325 45.7239 90.0325 45.7239L90.459 46.0653C90.459 46.0653 88.4167 51.0892 83.2213 52.7066C78.0259 54.3257 78.8755 53.4744 78.1109 53.9858C78.1109 53.9858 80.836 55.6033 81.3458 55.8581C81.3458 55.8581 88.8399 54.1573 90.3724 55.9447L95.4828 55.8581C95.4828 55.8581 99.4872 55.6882 99.827 57.9869C99.827 57.9886 111.922 59.3495 106.726 69.144C106.726 69.144 117.201 69.8253 129.464 73.1467C129.464 73.1467 132.615 74.0829 133.723 74.0829C133.723 74.0829 129.89 70.8464 125.886 69.8253C121.885 68.8041 106.597 62.6822 110.58 44.2811L112.262 46.3202C112.262 46.3202 114.148 40.5637 118.571 37.3961C118.571 37.3961 111.582 47.2884 117.797 56.1996C122.907 63.5238 127.591 64.2051 127.591 64.2051C127.591 64.2051 134.742 65.6526 136.703 69.9118C138.663 74.1694 143.687 79.873 151.18 80.386C158.674 80.8957 160.599 76.6605 161.298 74.8187C161.298 74.8187 150.907 77.8051 147.294 71.829C144.537 67.2717 141.727 66.087 141.727 66.087C141.727 66.087 144.88 66.079 145.646 66.5054C145.646 66.5054 136.62 59.7743 143.774 50.4079C143.774 50.4079 147.214 65.0547 166.612 56.6661C166.612 56.6661 161.72 54.4074 158.921 48.8722C158.921 48.8722 168.351 52.4341 173.606 49.079Z" stroke="#79BDE8" stroke-width="0.415006" stroke-miterlimit="2"/>
<path d="M101.226 18.1425C98.7174 18.1775 96.17 18.5646 93.8373 19.5376C93.8373 19.5376 96.739 20.9165 99.4754 25.0555C99.4754 25.0555 99.8073 25.6017 99.3777 26.0073C98.9497 26.4113 98.4545 26.1255 98.3583 26.0774C98.3583 26.0774 94.1792 23.7596 88.1165 22.413C87.9482 23.0895 87.4871 23.6601 86.7064 23.6328C84.9415 23.5671 84.3494 24.8426 84.3494 24.8426C84.3494 24.8426 84.3767 26.3988 82.2255 27.1394C78.6076 28.3802 77.0866 27.1801 75.2224 26.1927C73.4943 25.2805 73.8306 22.9094 75.6131 21.7568C68.4412 22.7298 60.7909 26.3892 54.6264 35.5953C54.6264 35.5953 46.9144 47.7172 39.2027 52.1244C39.2027 52.1244 36.0944 53.6126 36.4376 57.229C36.779 60.847 39.8566 60.3076 40.1997 60.4551C40.5427 60.6026 44.8182 60.9841 47.779 69.3519C48.9027 72.5291 50.2236 72.7258 50.2236 72.7258C50.2236 72.7258 63.5081 69.4215 68.934 69.0288C68.934 69.0288 70.1576 70.9831 70.4493 72.8411L72.5132 72.6757C72.5132 72.6757 72.0363 70.2857 70.5871 68.4503C70.5871 68.4503 71.1452 65.5667 73.7805 64.9287C73.7805 64.9287 75.736 66.4188 76.0773 68.3777C76.0758 68.3777 78.7228 68.1999 79.2358 68.1999C79.2358 68.1999 80.2595 70.327 80.3429 71.9444C80.3429 71.9444 81.8665 71.8695 82.2064 71.9544C82.2064 71.9544 81.9926 69.4682 80.949 67.6889C80.949 67.6889 81.9529 64.5182 84.8464 62.7421C84.8464 62.7421 86.6347 64.4602 86.6347 67.8667L88.2703 67.9519C88.2703 67.9519 89.2908 69.9095 89.3774 71.8667C89.3774 71.8667 90.8936 71.8694 91.2334 71.9544C91.2334 71.9544 91.3944 69.7756 89.8683 67.1178C89.8683 67.1193 90.4833 64.0614 92.8189 62.6844C92.8189 62.6844 94.8124 64.2886 94.7275 68.2049L95.7569 68.2975C95.7569 68.2991 96.3538 70.5152 96.2704 72.3025L98.1315 72.4653C98.1315 72.4653 98.4697 69.7601 97.4902 67.4934C97.4902 67.4934 98.0981 64.9814 100.243 63.7839C100.243 63.7839 101.793 65.7366 101.37 68.7182L103.329 68.8034C103.329 68.8034 107.842 61.988 99.0707 60.6254C99.0707 60.6254 97.7054 62.7548 96.9392 63.1827L96.6011 62.8421C96.6011 62.8421 98.0494 59.0919 93.5353 58.8371C93.5353 58.8371 90.6389 58.5818 90.2141 58.6668C90.2141 58.6668 90.0397 60.6272 89.36 61.6499H88.849C88.849 61.6499 88.5102 58.0721 83.1433 58.6668L77.7782 59.2629C77.7782 59.2629 79.6513 60.9668 78.1188 62.6692C78.1188 62.6692 78.3766 58.5846 57.1718 63.6085V62.9247C57.1718 62.9263 64.2367 58.8397 74.7127 56.8808C74.7112 56.8808 70.1109 54.2408 68.7515 52.197C67.389 50.1531 61.7678 46.9999 57.4252 45.7224V45.1263C57.4252 45.1263 68.5812 45.1293 74.7122 51.5158C74.7107 51.5158 77.6935 49.4719 82.036 49.4719C86.3786 49.4719 90.0411 45.7223 90.0411 45.7223L90.4669 46.0655C90.4669 46.0655 88.4236 51.0881 83.2283 52.7054C78.033 54.3245 78.8833 53.474 78.1186 53.9854C78.1186 53.9854 80.8449 55.6015 81.3547 55.8564C81.3547 55.8564 88.8467 54.1567 90.3792 55.9441L95.4913 55.8564C95.4913 55.8564 99.4946 55.6867 99.8344 57.9855C99.8344 57.987 111.93 59.3496 106.735 69.144C106.735 69.144 117.207 69.8251 129.471 73.1466C129.471 73.1466 132.624 74.0834 133.731 74.0834C133.731 74.0834 129.899 70.8464 125.894 69.8253C121.893 68.8042 106.604 62.6807 110.587 44.2796L112.271 46.3184C112.271 46.3184 114.157 40.5642 118.58 37.3966C118.58 37.3966 111.591 47.2884 117.806 56.1994C122.916 63.5236 127.599 64.2045 127.599 64.2045C127.599 64.2045 134.751 65.6511 136.712 69.9102C138.672 74.1679 143.696 79.8721 151.189 80.385C158.683 80.8948 160.606 76.659 161.305 74.817C161.305 74.817 150.915 77.8049 147.301 71.8289C144.544 67.2714 141.733 66.0856 141.733 66.0856C141.733 66.0856 144.887 66.0775 145.653 66.5038C145.653 66.5038 136.628 59.7724 143.782 50.4057C143.782 50.4057 147.222 65.0534 166.621 56.665C166.621 56.665 161.728 54.4055 158.929 48.8704C158.929 48.8704 168.359 52.4334 173.614 49.0783C173.614 49.0783 172.189 43.5314 166.884 39.0494C166.884 39.0494 166.74 32.8399 161.962 28.3643C161.527 28.5695 161.001 28.622 160.482 28.4344C159.17 27.9567 158.773 28.9504 158.773 28.9504C158.773 28.9504 158.478 29.6486 156.907 29.1533C155.333 28.6579 155.113 26.8012 155.187 26.5383C155.24 26.3299 155.624 25.5529 155.605 24.8075C152.067 23.7511 147.429 23.4773 141.323 24.6122L140.819 27.7281C140.819 27.7281 137.975 19.879 119.885 21.9422C119.885 21.9422 119.234 29.2643 127.249 34.1727L126.259 34.9367C126.259 34.9367 115.336 31.6729 115.933 21.1109C115.933 21.1109 108.753 18.0375 101.226 18.1425ZM79.034 21.4888C78.8993 21.5369 78.7343 21.567 78.5355 21.559C77.7308 21.5301 77.6169 22.8887 78.3126 23.1018C79.0067 23.315 79.2971 24.2426 79.3996 24.4093C79.5006 24.576 80.609 25.3708 81.7616 24.7825C82.9126 24.1958 82.7084 23.6979 82.7084 23.6979C82.7084 23.6979 82.4074 23.0008 83.3997 22.5408C83.7892 22.3596 84.0567 22.0622 84.1962 21.7368C82.5483 21.5396 80.8182 21.4423 79.034 21.4888ZM164.457 23.0043C171.72 28.1243 172.052 32.9197 171.961 34.3832C174.066 35.252 175.481 37.0449 176.324 38.4909C175.965 35.6326 173.998 34.4752 173.897 34.4207L173.617 34.2729V33.9548C173.617 28.6168 168.679 25.0674 164.457 23.0043ZM48.1405 35.4527C48.1405 35.4527 45.019 37.0802 40.5162 40.0539C41.0788 41.075 40.6339 42.8245 39.2713 42.7764C37.5048 42.7123 36.9144 43.9887 36.9144 43.9887C36.9144 43.9887 36.9391 45.5466 34.7879 46.2855C33.6289 46.6831 32.2882 46.8985 31.1259 46.9418C28.6028 48.9952 26.0203 51.2886 23.5292 53.8022C23.5436 53.8166 23.5738 53.8404 23.5818 53.8548C23.8014 54.2203 24.4407 56.2446 25.9587 56.7126C27.4799 57.1791 27.2311 60.1522 25.4678 60.0866C23.7013 60.024 23.1109 61.3013 23.1109 61.3013C23.1109 61.3013 23.1356 62.8551 20.9844 63.5957C18.3505 64.4982 16.8303 64.1052 15.4789 63.4479C8.03605 74.3564 4.48376 87.7446 12.8741 102.304C12.8741 102.304 7.3892 87.1226 19.2836 70.5666C19.2836 70.5666 19.5875 70.0527 20.1277 70.2836C20.6663 70.5144 20.3181 71.1703 20.3181 71.1703C20.3181 71.1703 16.8162 81.4904 20.3957 90.4245C20.3957 90.4245 25.7445 80.333 43.5497 74.2635C43.5497 74.2635 44.7624 66.4396 35.9955 64.4149C27.2287 62.3919 31.8131 53.3567 34.1069 51.197C36.4024 49.0394 45.581 43.3135 48.1405 35.4527ZM177.126 49.8222C174.165 54.7819 168.254 56.367 168.254 56.367C168.254 56.367 170.818 58.775 174.018 56.5548C178.309 53.5732 177.126 49.8222 177.126 49.8222ZM21.2098 56.2418C20.0428 57.5242 18.9148 58.8564 17.8359 60.2318C18.0074 60.5107 18.1052 60.7821 18.1565 60.8655C18.2559 61.0306 19.3675 61.8254 20.5184 61.2387C21.671 60.652 21.4677 60.1542 21.4677 60.1542C21.4677 60.1542 21.1636 59.4561 22.159 58.9945C23.1561 58.5344 23.3935 57.2959 22.5423 56.8454C22.1094 56.6146 21.7132 56.362 21.2098 56.2418ZM139.595 78.9573C138.761 79.0919 137.699 79.2635 137.716 79.2603C137.686 79.2667 135.025 79.6665 131.492 79.1151L126.634 93.9731C118.763 90.9114 105.651 90.4188 104.222 90.3739C109.765 91.2652 114.216 92.4902 117.789 93.8655C121.037 95.0838 123.531 96.3927 125.429 97.6526L125.396 97.7503C128.9 100.137 130.62 102.461 131.423 103.917C133.189 98.5244 139.221 80.0986 139.222 80.0973L139.6 78.9577L139.595 78.9573ZM144.882 85.5748L138.403 105.042H162.954H163.145L163.26 105.195C163.462 105.466 163.52 106.237 163.52 107.058L164.542 106.672C165.265 102.791 162.181 99.3162 162.15 99.2809L162.028 99.1457L162.055 98.9678C162.405 96.7829 165.424 94.6752 165.552 94.5871L165.785 94.4268L166.008 94.6047C167.747 96.0009 168.7 97.6392 168.843 99.4763C169.029 101.874 167.79 103.951 167.062 104.952H172.001H172.38V105.332C172.38 105.52 172.322 106.009 172.259 106.472C172.498 106.26 173.42 106.023 173.672 105.791C174.826 100.909 172.681 98.0182 172.66 97.991L172.533 97.8282L172.6 97.6328C173.474 95.0759 176.587 93.6654 176.72 93.6077L176.983 93.4925L177.169 93.7104C180.837 98.0593 177.973 102.596 176.678 104.243H181.399H181.677L181.765 104.501C181.924 104.985 181.977 105.871 181.993 106.585L182.967 106.206C183.701 102.503 181.542 98.948 181.519 98.9127L181.427 98.7599L181.479 98.5921C182.262 96.2421 184.531 94.3241 184.63 94.2439L184.881 94.0311L185.126 94.2489C188.775 97.4838 186.506 102.46 185.567 104.153H188.142H188.425L188.507 104.426C188.641 104.87 189.297 105.552 189.254 106.174C190.658 103.479 189.094 99.9422 189.076 99.9022L189.013 99.7645L189.064 99.6242C189.621 97.9522 191.966 95.8391 192.067 95.7494L192.365 95.4814L192.618 95.7945C195.013 98.7536 193.406 102.608 192.648 104.065H192.996C196.883 100.572 195.762 96.4802 195.711 96.3054L195.698 96.2603L195.693 96.2127C195.634 94.8084 192.71 93.9647 191.307 93.6954C190.597 94.9682 188.911 95.5584 188.835 95.5841L188.001 95.8596L188.369 95.0631C188.733 94.2696 188.743 93.6313 188.399 93.1119C187.466 91.7076 184.131 91.4305 182.576 91.4337C182.347 93.306 181.358 94.076 181.314 94.1113L180.745 94.5245L180.705 93.8232C180.668 93.1483 180.381 92.5969 179.828 92.14C177.677 90.3543 172.385 90.6668 170.583 90.835C170.872 91.3464 170.986 91.8537 170.922 92.3554C170.797 93.2899 170.078 93.8208 170.047 93.8432L169.597 94.1688L169.454 93.6328C168.87 91.4094 156.721 91.8168 149.198 92.5959L148.777 92.6384V92.2177V91.9396V91.7142L148.975 91.6065C150.692 90.6752 155.283 89.8269 157.238 89.495C155.584 88.1934 154.801 86.6863 154.521 86.0209C151.119 87.087 146.24 85.9371 144.882 85.5748ZM73.2426 87.5435C64.0997 87.4971 53.4023 88.6116 45.3923 92.9437L43.0596 100.229C45.3921 110.514 76.6435 105.682 76.6435 105.682C71.8296 105.754 67.9063 105.521 64.721 105.133C59.8173 104.638 57.0941 103.807 55.1881 102.932C53.1603 102.127 52.3802 101.459 52.3802 101.459L55.2381 92.9004C55.2396 92.9004 55.2424 92.8979 55.2456 92.8979L55.5036 92.7977C60.4986 90.8661 67.7315 88.8928 83.5167 88.8928C86.4486 88.8928 89.1868 88.9695 91.7773 89.1057C89.9843 88.7972 82.3953 87.5893 73.2528 87.5427L73.2426 87.5435ZM98.3779 107.13C98.3779 107.13 120.383 111.65 116.825 123.034L113.068 134.01C113.068 134.01 112.213 137.439 107.027 141.189C102.898 143.35 97.0241 145.411 88.6103 147.268C87.1083 147.596 85.638 147.906 84.1744 148.207L82.3811 153.537C86.5889 152.905 90.6741 152.079 95.4207 151.032C115.462 146.616 121.747 139.457 123.494 134.233L126.354 125.684C127.222 123.09 127.062 120.678 125.889 118.515C123.757 114.59 118.331 111.475 109.758 109.258C106.876 108.514 103.783 107.895 100.526 107.377C99.1923 107.202 98.3795 107.129 98.3795 107.129L98.3779 107.13ZM160.82 110.469C158.329 112.628 155.5 115.887 153.982 120.425L141.381 157.647C141.381 157.647 136.518 178.524 85.6381 178.524C74.8498 178.524 69.5656 177.715 62.6444 176.036C63.6623 176.359 64.7286 176.668 65.8554 176.958C75.6852 179.501 80.5712 180.623 93.4274 180.623C143.121 180.623 148.542 160.412 148.606 160.154C148.606 160.154 161.207 122.927 161.207 122.929C163.447 116.227 168.394 112.257 171.174 110.468L160.82 110.469ZM76.0587 124.952L64.803 160.257C64.803 160.257 81.3102 169.651 108.813 163.573C106.279 163.772 103.211 163.889 99.4277 163.889C83.0153 163.889 78.7628 161.696 75.6581 160.092L75.3876 159.952L74.9342 159.716L75.097 159.23L86.4083 125.769C83.3203 125.36 79.8372 125.094 76.058 124.954L76.0587 124.952ZM16.8175 144.612C15.3565 144.581 14.0994 144.692 13.0654 144.917L11.763 148.857C12.5966 148.721 13.6592 148.547 13.6415 148.552C13.6816 148.544 18.1169 147.86 23.192 149.466C28.7609 151.226 36.5215 152.617 46.246 153.601L48.1746 147.853C42.9311 147.936 32.71 147.98 25.7221 146.06C22.2535 145.107 19.2526 144.663 16.8175 144.612Z" fill="#FFC52F"/>
<path d="M146.85 24.69C146.709 24.6778 146.559 24.6799 146.399 24.7026C145.111 24.8805 145.086 25.3964 145.086 25.3964C145.086 25.3964 145.063 26.12 143.974 26.2355C142.884 26.3477 142.143 27.4007 142.717 28.0739C143.287 28.7456 143.674 29.4596 145.399 29.4515C146.422 29.4498 146.717 28.8003 146.717 28.8003C146.717 28.8003 147.207 28.3508 147.917 28.6249C148.628 28.9007 149.308 27.7037 148.776 27.295C148.245 26.8878 148.377 25.9548 148.357 25.7721C148.339 25.6122 147.834 24.7752 146.85 24.69ZM105.96 25.777C105.054 25.7356 103.99 25.8835 102.678 26.3331C100.572 27.0593 100.235 28.492 100.179 28.9906C100.051 29.1974 99.553 29.8523 98.4005 29.8122C97.3697 29.7737 96.5456 30.5152 96.3515 31.6582C96.1752 32.7082 96.5865 33.9553 97.7167 34.3032C98.7282 34.6142 99.3106 35.9055 99.5927 36.5274C99.6681 36.6974 99.7204 36.8193 99.7781 36.9107C100.171 37.5471 102.929 39.3574 105.704 37.9451C108.614 36.4624 108.113 35.0017 108.041 34.8318L108.046 34.8418C108.005 34.7344 107.688 33.7808 109.274 33.0435C110.641 32.4103 111.546 31.1314 111.583 29.7848C111.61 28.714 111.085 27.8138 110.138 27.3152C110.139 27.3152 109.589 27.0171 109.589 27.0171C108.536 26.4362 107.464 25.845 105.955 25.7757L105.96 25.777ZM123.774 26.4131C123.774 26.4131 125.73 30.5996 130.068 33.509C131.367 32.7572 133.17 31.893 135.22 31.4426C135.22 31.4426 134.986 27.5623 126.729 26.6486L123.774 26.4131ZM152.45 27.3299C152.255 27.3566 152.065 27.4476 151.901 27.6179C151.241 28.2992 150.538 28.8072 150.591 30.5209C150.625 31.5436 151.28 31.7232 151.28 31.7232C151.28 31.7232 151.743 32.1328 151.483 32.8879C151.231 33.6413 152.448 34.1154 152.841 33.519C153.233 32.9211 154.171 32.895 154.353 32.8453C154.539 32.794 155.585 31.9634 155.37 30.7162C155.157 29.4707 154.639 29.529 154.639 29.529C154.639 29.529 153.914 29.625 153.77 28.5621C153.664 27.7626 153.035 27.2498 152.45 27.3299ZM64.1503 29.0983C63.495 29.1175 62.7999 29.2714 62.1036 29.6267C59.191 31.1063 59.6937 32.5669 59.7642 32.74C59.8113 32.8649 60.1057 33.7968 58.5319 34.5259C57.1693 35.1575 56.2628 36.4355 56.2275 37.7821C56.197 38.8529 56.7219 39.7549 57.6676 40.2567L58.2112 40.5523C59.8911 41.4788 61.6304 42.4368 65.1217 41.2361C67.2298 40.5131 67.5678 39.0755 67.624 38.5785C67.7522 38.3701 68.2498 37.7185 69.4023 37.757C70.4331 37.7955 71.2539 37.0506 71.4462 35.9059C71.621 34.8576 71.2104 33.6148 70.0787 33.2685C69.0736 32.9591 68.4941 31.6681 68.2152 31.0493C68.135 30.8762 68.08 30.7522 68.0223 30.6561C67.7338 30.1824 66.116 29.0397 64.1503 29.0983ZM103.727 30.7113C104.26 30.6836 104.7 30.9646 104.809 31.062C104.817 31.0796 104.823 31.0912 104.834 31.1121C104.998 31.4744 105.38 32.3225 106.199 32.5774C106.218 32.5902 106.26 32.6727 106.252 32.7978C106.244 32.918 106.198 32.9911 106.179 33.0007C106.179 33.0007 106.173 33.0032 106.162 33.0032C105.225 32.9696 104.704 33.5437 104.544 33.8899L104.489 34.0101L104.491 34.1404C104.486 34.15 104.451 34.4488 103.907 34.6363C102.657 35.0643 102.138 34.7793 101.42 34.3833L101.16 34.241C101.008 34.1608 100.935 34.0368 100.939 33.8653C100.946 33.6184 101.127 33.2909 101.513 33.1114C102.521 32.6449 102.673 31.848 102.527 31.343C102.558 31.2901 102.681 31.1097 103.171 30.8596C103.361 30.7635 103.549 30.7206 103.727 30.7113ZM82.0913 31.2217C81.8639 31.2061 81.6221 31.2269 81.3725 31.2893C80.2552 31.5699 79.1349 32.6472 79.276 33.8942C79.401 34.981 78.4581 36.1936 78.0061 36.7771C77.8843 36.9294 77.7983 37.0407 77.7406 37.1352C77.3286 37.8021 76.8128 41.1715 79.1933 42.9237C81.6918 44.7552 82.7859 43.5917 82.9178 43.4321L82.9228 43.4271C83.0576 43.2671 83.7583 42.5679 84.9767 43.5474C86.0171 44.3809 87.4032 44.5759 88.5911 44.0533C89.6715 43.5788 90.3635 42.6003 90.4421 41.4333L90.4948 40.7896C90.6599 38.8147 90.828 36.7714 88.3657 34.2724C87.0271 32.9194 85.622 33.0844 84.9342 33.4083C84.6921 33.4018 83.981 33.2943 83.5866 32.3037C83.3289 31.6561 82.7749 31.27 82.0926 31.2226L82.0913 31.2217ZM145.116 31.6876C144.354 34.908 145.882 37.0653 145.882 37.0653C145.882 37.0653 143.472 40.213 147.377 41.8368C151.279 43.4575 155.197 41.0152 155.197 41.0152L161.547 45.4987L157.832 39.4624C147.746 38.2825 145.116 31.6876 145.116 31.6876ZM139.445 31.8755C139.056 31.8629 138.626 31.9953 138.493 32.2662C138.224 32.8096 137.21 33.0813 137.025 33.1679C136.838 33.2544 135.919 34.1467 136.487 34.9964C137.059 35.8476 137.612 35.6651 137.612 35.6651C137.612 35.6651 138.38 35.3952 138.819 36.131C139.264 36.8684 140.588 36.9819 141.121 36.3038C141.651 35.6273 142.282 35.0669 141.759 33.8341C141.45 33.1 140.682 33.1478 140.682 33.1478C140.682 33.1478 140.065 32.9735 140.144 32.3563C140.181 32.0462 139.834 31.8881 139.445 31.8755ZM161.264 32.166C160.691 32.1234 160.548 32.3864 160.548 32.3864C160.548 32.3864 160.2 33.0476 159.213 32.6644C158.222 32.2781 157.109 32.919 157.297 33.7991C157.486 34.6775 157.498 35.5125 158.987 36.2788C159.872 36.7356 160.415 36.2662 160.415 36.2662C160.415 36.2662 161.041 36.0721 161.53 36.6444C162.015 37.2199 163.144 36.4134 162.867 35.7978C162.596 35.1807 163.132 34.3802 163.198 34.2024C163.264 34.0228 163.18 32.7417 161.991 32.3313C161.694 32.2283 161.455 32.1802 161.264 32.166ZM64.2992 33.8567C65.0048 33.7757 65.4313 34.0106 65.9724 34.3076C66.0557 34.3541 66.1481 34.4023 66.2379 34.4504C66.3853 34.5289 66.4556 34.6495 66.4508 34.821C66.4444 35.0695 66.2644 35.3979 65.8797 35.5775C64.8714 36.0455 64.716 36.8409 64.8603 37.3458C64.8362 37.3955 64.7128 37.58 64.2191 37.8317C63.4641 38.2164 62.7319 37.7562 62.586 37.6263C62.5796 37.6103 62.5757 37.6039 62.566 37.5862C62.4025 37.2208 62.0224 36.3651 61.1984 36.1135C61.1856 36.1039 61.1385 36.0339 61.1433 35.9056C61.1449 35.7774 61.1958 35.6989 61.2135 35.6877H61.236C62.1738 35.7214 62.6904 35.1448 62.849 34.7985L62.9016 34.6833V34.5556C62.9048 34.5443 62.9418 34.2413 63.4852 34.0521C63.797 33.9455 64.064 33.8838 64.2992 33.8567ZM127.288 36.0934C126.629 36.157 125.924 37.035 126.233 37.6914C126.637 38.5635 126.009 39.7756 125.945 40.0434C125.875 40.3079 126.091 42.1614 127.663 42.6583C129.236 43.1537 129.532 42.453 129.532 42.453C129.532 42.453 129.924 41.4625 131.24 41.937C132.553 42.4131 133.938 41.3824 133.619 40.1161C133.299 38.8561 133.209 37.642 131.215 36.6546C130.032 36.0663 129.366 36.7974 129.366 36.7974C129.366 36.7974 128.574 37.1325 127.891 36.339C127.721 36.141 127.507 36.0722 127.288 36.0934ZM85.1462 36.6945C85.2852 36.7078 85.4341 36.7602 85.572 36.8724C86.0641 37.2651 86.5046 37.3086 86.7868 37.2781C87.2084 37.2284 87.4842 37.0056 87.6108 36.8774C87.6605 36.8742 87.8461 36.8869 88.242 37.1754C88.8736 37.6419 88.7248 38.5669 88.6703 38.7384C88.6575 38.7561 88.6479 38.7752 88.6302 38.7961C88.3529 39.1503 87.7742 39.8847 87.8688 40.7247C87.872 40.7487 87.8463 40.8128 87.7661 40.885C87.6587 40.9828 87.5392 41.0177 87.4831 41.0177C87.116 40.1569 86.3518 39.989 85.9928 40.0259L85.8675 40.0384L85.7573 40.1036C85.7076 40.126 85.4689 40.2075 85.1387 39.8756C84.2811 39.0052 84.3308 38.3944 84.3998 37.5512L84.4248 37.2432C84.4457 36.9386 84.6578 36.8042 84.778 36.7497C84.879 36.7065 85.0071 36.6813 85.1462 36.6945ZM138.009 40.9625C137.35 41.0259 136.647 41.9016 136.952 42.558C137.36 43.4316 136.735 44.6429 136.666 44.9074C136.594 45.1719 136.811 47.0295 138.387 47.5248C139.958 48.0233 140.25 47.3219 140.25 47.3219C140.25 47.3219 140.644 46.3289 141.959 46.8034C143.275 47.2795 144.662 46.2498 144.343 44.985C144.022 43.7234 143.938 42.5075 141.944 41.5185C140.757 40.9302 140.09 41.6612 140.09 41.6612C140.09 41.6612 139.296 41.9998 138.615 41.2079C138.444 41.0103 138.228 40.9414 138.009 40.9625ZM122.164 43.3495C121.806 43.3568 121.423 43.4383 121.037 43.635C119.492 44.4221 119.767 45.0878 119.767 45.0878C119.767 45.0878 120.177 46.0185 118.843 46.6356C117.511 47.2544 117.188 48.9133 118.33 49.5161C119.469 50.1188 120.4 50.8545 122.61 50.0947C123.926 49.6426 123.913 48.692 123.913 48.692C123.913 48.692 124.274 47.9112 125.353 47.9481C126.435 47.9881 126.583 46.1704 125.653 45.8867C124.727 45.5982 124.334 44.3604 124.198 44.1359C124.093 43.9705 123.235 43.3293 122.16 43.3511L122.164 43.3495ZM133.313 48.131C132.572 48.0762 132.386 48.414 132.386 48.414C132.386 48.414 131.935 49.265 130.655 48.7697C129.379 48.2728 127.941 49.1009 128.183 50.2374C128.429 51.374 128.445 52.4537 130.367 53.446C131.51 54.0359 132.216 53.4285 132.216 53.4285C132.216 53.4285 133.023 53.1756 133.651 53.9194C134.284 54.66 135.739 53.619 135.387 52.8223C135.033 52.024 135.724 50.9909 135.808 50.7584C135.894 50.5276 135.785 48.8744 134.252 48.3439C133.868 48.2112 133.56 48.1493 133.313 48.131ZM46.4844 50.4028C46.0385 50.4181 45.5672 50.5247 45.0942 50.766C43.1065 51.7743 43.4122 52.8153 43.4988 53.0252L43.4912 53.0126C43.5201 53.0944 43.6307 53.5244 42.8099 53.9043C41.8658 54.3419 41.2376 55.2326 41.2119 56.1736C41.1895 56.9302 41.577 57.5936 42.2439 57.9494C42.3625 58.012 42.4816 58.0773 42.597 58.1398C43.6614 58.7249 44.8672 59.3906 47.1932 58.5907C48.5782 58.1162 48.8647 57.1728 48.924 56.7672C48.9993 56.655 49.2509 56.3465 49.8632 56.3689C50.6311 56.3962 51.2425 55.8498 51.3835 55.0114C51.5118 54.2515 51.205 53.3474 50.3666 53.0877C49.8072 52.9162 49.4588 52.1431 49.2921 51.7727C49.2408 51.6573 49.2051 51.5728 49.1619 51.5022C48.9298 51.1259 47.8222 50.3569 46.4844 50.4028ZM59.6843 50.9538C58.9938 50.9541 58.2702 51.23 57.9961 51.7854C57.8118 52.1637 56.9471 52.4783 56.6186 52.5969C56.5015 52.6402 56.4145 52.6701 56.3455 52.7021C56.0586 52.8384 55.3875 53.4621 55.1583 54.2876C54.9996 54.8663 55.0911 55.4319 55.4213 55.9256C56.374 57.3443 57.4021 57.0654 57.5402 57.0202L57.5478 57.0176C57.6903 56.9735 58.148 56.8813 58.452 57.3833C58.8271 58.0085 59.5552 58.4133 60.4032 58.4678C61.2143 58.5175 61.9607 58.2212 62.392 57.6713C62.3888 57.6729 62.5949 57.4184 62.5949 57.4184C63.2457 56.6233 64.0548 55.6323 63.3062 53.8642C62.9022 52.9104 62.057 52.6536 61.5103 52.6343C61.3885 52.5911 61.2018 52.4817 61.2323 52.2236C61.2852 51.7972 61.0798 51.2644 60.3456 51.0463C60.1408 50.985 59.9145 50.9538 59.6843 50.9538ZM148.792 51.0565C148.058 51.0004 147.443 51.2283 147.419 51.565C147.397 51.9032 147.974 52.2227 148.707 52.2788C149.441 52.3381 150.053 52.107 150.079 51.7704C150.103 51.4321 149.527 51.1142 148.792 51.0565ZM152.717 51.1442C151.797 51.1025 151.026 51.4098 150.996 51.833C150.964 52.2562 151.69 52.6311 152.612 52.6696C153.53 52.7112 154.298 52.404 154.33 51.9808C154.359 51.5592 153.635 51.1827 152.717 51.1442ZM157.471 51.312C156.302 51.3024 155.322 51.7137 155.279 52.2362C155.236 52.7556 156.146 53.1903 157.313 53.2031C158.475 53.2142 159.461 52.8014 159.499 52.2788C159.546 51.7579 158.634 51.3248 157.471 51.312ZM159.747 54.0847C158.614 54.1793 157.669 54.6951 157.633 55.2369C157.595 55.7771 158.485 56.1396 159.612 56.0434C160.744 55.9488 161.691 55.4331 161.726 54.8912C161.763 54.3494 160.879 53.9885 159.747 54.0847ZM155.136 54.3452C154.24 54.3901 153.499 54.7776 153.471 55.2169C153.448 55.6529 154.15 55.9724 155.046 55.9307C155.939 55.8874 156.682 55.4976 156.704 55.0616C156.73 54.6223 156.027 54.3035 155.136 54.3452ZM151.329 54.6182C150.616 54.6278 150.02 54.9175 149.999 55.2669C149.98 55.6196 150.541 55.8936 151.256 55.8856C151.967 55.876 152.565 55.5845 152.584 55.2319C152.603 54.884 152.044 54.6102 151.329 54.6182ZM128.951 55.8301C128.291 55.8937 127.584 56.7692 127.891 57.4256C128.3 58.2976 127.672 59.513 127.603 59.7775C127.534 60.042 127.751 61.8997 129.321 62.3949C130.896 62.8919 131.193 62.1895 131.193 62.1895C131.193 62.1895 131.585 61.1991 132.901 61.6736C134.217 62.1481 135.602 61.1183 135.283 59.8551C134.96 58.5919 134.872 57.3761 132.878 56.3886C131.693 55.7987 131.027 56.5314 131.027 56.5314C131.027 56.5314 130.236 56.8706 129.554 56.0755C129.384 55.8775 129.171 55.8089 128.951 55.8301ZM50.9684 60.4263C50.5573 60.4691 49.9824 60.6542 49.5231 61.0149C49.0213 61.4092 48.735 61.9495 48.6965 62.5779C48.5923 64.3605 49.5925 64.7261 49.7159 64.7645L49.7059 64.762C49.8278 64.8053 50.2325 64.9873 50.1668 65.6061C50.0835 66.3787 50.4424 67.1931 51.1061 67.73C51.6992 68.2109 52.4395 68.3758 53.0823 68.1658C53.1833 68.1338 53.2862 68.0986 53.3904 68.0681C54.349 67.7764 55.5478 67.4116 56.0078 65.5007C56.2546 64.4732 55.7603 63.7608 55.3515 63.4194C55.289 63.3216 55.1898 63.0915 55.3966 62.8558C55.7814 62.415 55.7507 61.8108 55.3115 61.2754C54.7921 60.6454 53.7994 60.2152 53.0972 60.6191C52.7366 60.8275 51.8993 60.5887 51.5819 60.4989C51.4697 60.4652 51.3861 60.4416 51.3139 60.4288C51.2242 60.4127 51.1054 60.4121 50.9684 60.4263ZM29.2596 64.9263C28.6043 64.9452 27.9097 65.0984 27.2133 65.4523C24.3006 66.9367 24.8033 68.3966 24.8739 68.5682L24.8689 68.5582C24.9122 68.664 25.2334 69.6167 23.6416 70.3541C22.279 70.9857 21.3725 72.2661 21.3372 73.6127C21.3067 74.6835 21.8341 75.5831 22.7799 76.0848C22.9659 76.1826 23.1523 76.286 23.3334 76.3854C25.0102 77.3087 26.7467 78.2615 30.2364 77.0642C32.3445 76.3412 32.6807 74.9052 32.7337 74.4066C32.8635 74.1998 33.3595 73.5443 34.512 73.5876C35.5428 73.626 36.3636 72.882 36.5559 71.7391C36.7323 70.6891 36.3201 69.4454 35.1884 69.0991C34.1833 68.7865 33.6012 67.4944 33.3223 66.8724C33.2454 66.7025 33.1906 66.5788 33.1345 66.4842C32.8435 66.0093 31.2254 64.8696 29.2596 64.9263ZM29.4099 69.6852C30.1174 69.6038 30.5432 69.8417 31.0831 70.1411L31.3411 70.2788C31.4933 70.359 31.5647 70.4805 31.5615 70.652C31.5534 70.8973 31.3742 71.228 30.9879 71.406C29.9796 71.8756 29.8283 72.6725 29.971 73.1743C29.9453 73.2256 29.8251 73.4076 29.3298 73.6577C28.5763 74.044 27.8442 73.5872 27.6967 73.4573C27.6903 73.4413 27.6863 73.4315 27.6767 73.4122C27.5132 73.0467 27.129 72.1943 26.3066 71.9395C26.2905 71.9283 26.2466 71.8493 26.2514 71.7291C26.2547 71.6057 26.3064 71.5299 26.3241 71.5187C26.3241 71.5187 26.3288 71.5161 26.3416 71.5161C27.281 71.5498 27.7984 70.9757 27.9572 70.6295L28.0123 70.5092L28.0097 70.3815C28.0129 70.3703 28.0515 70.0706 28.5933 69.8831C28.9063 69.7757 29.174 69.7123 29.4099 69.6852ZM188.083 88.102L188.078 88.107H188.083V88.102Z" fill="#79BDE8"/>
<path d="M151.735 39.4751L150.66 41.6141L149.566 39.5828C149.088 39.9002 148.74 40.3698 148.697 40.9228C148.617 41.8766 149.417 42.6561 150.483 42.6561C151.55 42.6561 152.481 41.8766 152.557 40.9228C152.611 40.2992 152.264 39.7797 151.735 39.4751ZM171.943 39.8283L170.881 41.7869L169.789 39.8733C169.391 40.1586 169.105 40.571 169.065 41.0455C168.995 41.9063 169.715 42.6033 170.676 42.6033C171.634 42.6033 172.473 41.9062 172.542 41.0455C172.585 40.5421 172.334 40.1136 171.943 39.8283ZM167.277 58.8962C159.231 61.9532 149.83 60.3014 149.83 60.3014C152.289 61.5981 155.007 62.1367 157.572 62.265C157.791 63.791 158.416 64.9553 158.992 65.744H158.994C159.124 65.9235 159.25 66.0754 159.37 66.2149C159.638 66.4521 159.979 66.5117 160.149 65.5211L160.152 65.5236C160.278 64.4673 160.555 63.2508 160.768 62.4028C161.058 62.6977 161.475 63.102 161.792 63.3521C161.993 63.4002 162.2 63.3536 162.403 63.1517C162.634 62.6916 162.962 62.0221 162.962 62.0221L164.342 62.8261C164.456 62.8372 164.57 62.8377 164.69 62.8185L166.033 61.6338L166.922 62.5756C167.14 62.6942 167.38 62.7374 167.623 62.6332L168.332 61.8016C168.568 62.8243 168.507 63.9317 168.39 64.7797H168.392C168.392 64.7797 168.388 64.795 168.384 64.7998C168.356 65.0178 168.325 65.2095 168.292 65.3859C168.293 65.7289 168.484 65.9367 169.351 65.0903C171.688 62.5896 171.969 59.2469 171.969 59.2469C170.494 59.598 167.277 58.8962 167.277 58.8962ZM154.781 68.1485C154.733 68.1609 154.689 68.187 154.658 68.2286C154.586 68.32 153.061 70.3489 152.987 71.8829C150.368 71.1872 148.779 70.0013 148.765 69.9869C148.683 69.9244 148.568 69.9252 148.487 69.9895C148.405 70.052 148.374 70.1638 148.414 70.26C148.44 70.3241 149.094 71.8554 151.197 72.9951C153.111 74.0322 156.642 74.9233 162.618 73.2706C162.674 73.2562 162.719 73.2219 162.751 73.1754C162.8 73.0969 163.987 71.2772 164.193 68.7798C164.201 68.6707 164.136 68.5723 164.033 68.5418C163.929 68.5097 163.818 68.5533 163.765 68.6495C163.749 68.6784 162.095 71.6194 159.953 72.0634C158.667 72.3295 157.401 72.4189 156.083 72.3564C154.681 70.7983 155.062 68.4331 155.066 68.4091C155.081 68.3049 155.029 68.2019 154.931 68.1586C154.883 68.1378 154.829 68.136 154.781 68.1485Z" fill="white"/>
</g>
<defs>
<clipPath id="clip0_15016_302260">
<rect width="200" height="200" fill="white" transform="translate(0.5625 0.277344)"/>
</clipPath>
</defs>
</svg>
