<svg width="201" height="201" viewBox="0 0 201 201" fill="none" xmlns="http://www.w3.org/2000/svg">
<g clip-path="url(#clip0_15016_302638)">
<path d="M30.0216 161.089C30.0216 160.89 33.8557 157.093 38.5427 152.649C43.229 148.206 47.0639 144.538 47.0639 144.499C47.0639 144.459 46.7518 144.499 46.3704 144.586C42.7559 145.409 0.89005 153.086 0.512498 152.995C0.067912 152.888 3.15074 149.041 19.5927 129.185L24.0255 123.831L17.245 126.758C13.5165 128.368 10.382 129.602 10.2795 129.499C10.0468 129.267 8.87642 130.754 22.2995 114.234C36.7166 96.4896 38.1398 94.7228 38.4834 94.1418C38.6367 93.8814 37.4039 94.2952 35.7435 95.0626C34.0822 95.83 32.6352 96.3701 32.5273 96.2623C32.3509 96.0858 37.2306 90.0989 50.6683 74.0083C55.6643 68.026 64.177 59.4703 68.6899 55.8982C84.7011 43.224 102.7 37.3804 122.957 38.2865C138.048 38.9615 148.648 41.7276 156.717 47.0966C161.936 50.5693 165.761 55.6254 166.581 60.1383C166.814 61.4197 167.592 62.483 170.642 65.6868C179.645 75.1348 182.573 81.2704 181.404 88.195C180.326 94.5903 174.12 102.604 166.233 107.775L163.263 109.725L181.756 112.247C191.927 113.634 200.324 114.828 200.414 114.899C200.505 114.971 200.489 115.12 200.378 115.231C199.978 115.631 76.6801 159.832 76.4875 159.643C76.3804 159.536 78.8159 156.295 81.8995 152.439C84.9824 148.583 87.4573 145.381 87.3995 145.323C87.3109 145.235 33.687 160.277 30.9162 161.166C30.4254 161.324 30.0247 161.291 30.0247 161.092L30.0216 161.089Z" fill="#C41425"/>
<path d="M42.3117 153.961C42.3133 153.798 45.7058 150.456 49.8512 146.534C53.9966 142.612 57.2435 139.355 57.0663 139.296C56.8128 139.211 12.1084 147.434 9.31449 148.079C8.93309 148.167 8.62411 148.123 8.62797 147.979C8.63182 147.836 14.6064 140.515 21.9047 131.71C29.203 122.904 35.1745 115.644 35.1745 115.574C35.1745 115.504 34.3277 115.813 33.2921 116.259C26.6472 119.126 21.9686 120.99 21.6758 120.888C21.4894 120.822 24.8265 116.489 29.092 111.257C38.6996 99.4731 48.2532 87.4369 48.2532 87.1156C48.2532 86.9823 47.0049 87.5023 45.4785 88.2713C43.9529 89.0395 42.7047 89.5149 42.7047 89.3277C42.7047 88.897 51.1696 78.4311 55.6794 73.2848C70.793 56.0377 87.0231 46.0364 105.381 42.6561C112.704 41.3078 126.638 41.5258 136.237 43.1393C151.266 45.665 161.289 52.4987 163.228 61.543C163.646 63.4893 164.024 64.0079 167.758 67.7402C172.587 72.5698 175.141 75.8445 176.819 79.3549C177.898 81.6156 178.049 82.3461 178.049 85.3203C178.049 88.4331 177.93 88.9501 176.581 91.6616C173.402 98.0661 167.452 103.403 156.872 109.326L152.736 111.644L160.042 112.68C164.061 113.25 171.681 114.307 176.975 115.03C182.269 115.752 186.461 116.479 186.289 116.644C185.882 117.035 86.6009 152.716 86.4236 152.535C86.3481 152.46 88.6111 149.492 91.4536 145.94C94.2952 142.388 96.5459 139.406 96.4542 139.315C96.3625 139.224 84.2377 142.549 69.5101 146.706C54.7825 150.862 42.6377 154.263 42.5205 154.263C42.4042 154.263 42.3102 154.129 42.3117 153.965V153.961Z" fill="black" stroke="black" stroke-width="1.25216"/>
<path d="M117.387 47.5503C115.098 47.541 113.026 47.5973 111.739 47.7314C108.618 48.0565 104.565 48.9881 100.358 50.3465C88.0772 54.3177 78.3533 60.5373 66.5414 71.9856C63.0525 75.3674 62.292 76.2681 63.2551 75.8728C63.4816 75.7804 64.1165 75.6494 64.6667 75.5823C65.5405 75.4752 65.6668 75.5169 65.6668 75.9152C65.6668 76.1656 65.1051 77.054 64.4178 77.8877C59.0242 84.4379 43.8936 103.73 44.0431 103.866C44.0917 103.91 47.8387 102.163 52.3701 99.983C56.9007 97.8032 60.8457 96.0141 61.137 96.0087C62.3228 95.9863 62.02 96.4132 56.3698 102.731C50.9739 108.765 41.5559 119.549 41.4634 119.795C41.364 120.065 41.7308 120.073 42.0251 119.803C42.5953 119.294 63.0717 108.699 63.7621 108.561C64.5041 108.412 64.5365 108.433 64.3716 108.969C64.276 109.279 63.6288 110.458 62.9346 111.588C61.2302 114.358 59.5482 117.723 59.5482 118.37C59.5482 118.84 59.636 118.878 60.3834 118.755C61.3936 118.593 64.8331 116.875 68.4499 114.725C71.2839 113.044 73.3465 112.011 73.8782 112.008C74.1317 112.005 74.1687 112.262 74.0462 113.181C73.9606 113.828 73.9506 114.358 74.0238 114.358C74.097 114.358 74.6865 114.09 75.3344 113.762C75.9825 113.434 76.6035 113.22 76.7129 113.288C76.82 113.356 76.9818 113.881 77.0666 114.456C77.1513 115.033 77.4364 115.773 77.6984 116.104C79.2702 118.1 85.9429 115.18 91.3904 110.107C92.5308 109.047 93.4246 108.143 93.3783 108.096C93.3321 108.049 92.4383 108.16 91.3904 108.345C90.3502 108.528 89.2715 108.62 89.0018 108.55C88.5472 108.431 88.5318 108.372 88.84 107.643C89.0172 107.214 89.6953 106.081 90.3425 105.124L91.5137 103.384L89.8032 102.376C86.4514 100.401 82.5603 96.5365 81.1657 93.8096C80.4414 92.3788 79.7942 89.4886 79.7942 87.6548C79.7942 81.4999 84.4789 75.8189 90.381 74.8211C91.2209 74.6785 93.2242 74.4874 94.8346 74.395L97.7464 74.2262L95.8286 72.8239C93.9177 71.4239 93.5479 71.0217 94.3261 71.1742C94.5495 71.2189 95.7438 71.306 96.9759 71.3684C99.064 71.4747 99.1564 71.4609 98.4398 71.1457C97.6924 70.8183 94.1643 70.3475 92.4999 70.3544L91.6755 70.3575L92.3227 70.9277C92.6849 71.2413 92.97 71.5464 92.97 71.6065C92.97 71.6666 92.1532 71.7845 91.1516 71.87C86.2665 72.2861 83.955 73.5097 78.7155 78.4479C77.1282 79.945 75.7629 81.1701 75.6866 81.1701C75.2666 81.1701 76.0017 78.827 77.1667 76.463C77.891 74.9744 78.5305 73.6769 78.5691 73.5798C78.6153 73.4827 78.3225 73.4033 77.9141 73.4033C77.2515 73.4033 77.1899 73.344 77.3285 72.874C77.5597 72.0935 81.0501 68.647 83.0843 67.1868C88.6166 63.2156 93.3706 61.9427 100.366 62.5576C103.641 62.845 105.713 63.4506 113.095 66.2638C119.737 68.7964 121.91 69.4121 126.255 69.9946C131.017 70.6318 132.111 70.3991 138.869 67.3432C145.595 64.3013 146.828 63.9892 152.383 63.906C157.084 63.8359 157.13 63.8135 157.076 61.5675C157.022 59.3569 156.298 57.7172 154.51 55.7886C151.836 52.9015 148.87 51.362 142.868 49.7463C139.994 48.9727 139.262 48.8733 135.101 48.6806C132.581 48.5635 129.299 48.2938 127.804 48.0819C125.562 47.7622 121.185 47.5657 117.387 47.5503ZM150.634 67.5582C145.41 67.6738 142.151 68.9374 134.962 73.1884C130.932 75.5662 125.261 78.3708 122.881 79.1629C119.768 80.197 111.816 81.1054 108.225 80.8372C105.775 80.6546 104.149 80.1284 101.892 78.7846C100.197 77.7822 100.197 77.7799 97.4459 77.682C94.1643 77.5649 91.2748 77.9116 89.8186 78.5935C89.2407 78.8663 88.1543 79.6222 87.4146 80.2717C82.8839 84.2368 81.9054 87.8505 84.1399 92.3819C86.0199 96.1974 90.9512 99.1963 96.6376 99.9876C99.1564 100.338 101.414 100.021 107.917 98.4042L113.326 97.0573L118.512 97.0635C125.978 97.0712 128.906 97.7431 132.866 100.364C134.924 101.721 136.496 102.284 138.869 102.504C140.456 102.651 142.359 102.153 142.059 101.669C141.735 101.136 130.678 97.2276 124.714 95.5317C118.558 93.7819 116.239 93.785 106.854 95.5494C101.268 96.6012 97.1531 96.9356 95.1428 96.5033C94.4648 96.3577 93.1318 95.8715 92.1917 95.4231C87.0293 92.9736 85.5884 88.7319 88.7476 85.2993C90.4658 83.4393 93.4246 82.6456 97.6693 82.9022C102.516 83.1958 108.017 84.817 117.333 88.705C125.785 92.2331 128.112 93.0414 137.929 95.8731C150.349 99.4567 153.285 100.85 154.764 103.872L155.381 105.142L156.837 104.299C162.562 100.976 167.116 96.8377 170.398 91.9604C174.69 85.5952 173.696 81.4313 166.06 73.7223C163.14 70.772 160.559 68.9575 158.201 68.1885C156.968 67.7886 155.874 67.6584 153.015 67.5736C152.168 67.5482 151.382 67.542 150.634 67.5582ZM108.256 68.8588C107.894 68.8827 107.524 69.0022 107.054 69.2063C104.966 70.1048 103.556 72.3916 103.918 74.3048C104.226 75.9607 106.23 77.0224 109.751 77.4008C111.824 77.6234 114.752 77.4832 117.564 77.024C119.652 76.685 124.591 75.1709 125.862 74.4805L126.51 74.1268L125.685 74.1245C125.238 74.1222 124.229 74.3927 123.451 74.7248C119.621 76.3621 117.864 76.5809 115.907 75.6694C114.505 75.0152 113.588 73.9966 112.802 72.2268C112.101 70.6418 111.716 70.1941 110.514 69.5808C109.458 69.0422 108.865 68.818 108.256 68.8588ZM120.523 72.8948C120.199 72.9433 119.929 73.2015 119.706 73.6638C119.228 74.6855 119.567 74.848 120.8 74.1862C121.763 73.6722 121.786 73.1599 120.862 72.9171C120.739 72.8863 120.631 72.8786 120.523 72.8948ZM96.6908 85.3162C96.4065 85.3109 96.1368 85.3132 95.8748 85.3224C94.6189 85.3663 93.571 85.5774 92.7234 85.9542L91.2517 86.6122L93.0316 86.9158C94.0179 87.083 95.6205 87.2356 96.6068 87.2549C97.5846 87.2733 98.8251 87.4051 99.3567 87.5477C100.251 87.7881 100.266 87.8297 99.5571 88.1094C99.1025 88.285 100.274 88.423 102.346 88.4407L105.914 88.4707L104.727 89.447L103.541 90.4224L109.088 90.1813C112.14 90.0495 114.69 89.8962 114.759 89.8399C114.99 89.6512 108.734 87.7033 104.011 86.4944C101.083 85.7454 98.6556 85.3532 96.6908 85.3162ZM89.8648 88.4676V89.625C89.8648 91.1799 91.7757 93.0476 94.1488 93.8112C96.9065 94.698 101.391 94.3282 108.395 92.6361C111.716 91.8325 114.436 91.0882 114.436 90.9811C114.436 90.8732 112.787 90.8917 110.768 91.0211C108.757 91.1513 105.675 91.3501 103.934 91.4634L100.767 91.6714L102.346 90.2491L103.934 88.829L102.346 89.024C101.476 89.1318 99.5109 89.3221 97.9852 89.447C95.4048 89.6589 95.2815 89.6342 96.2061 89.0848C97.13 88.5331 96.9605 88.4938 93.5324 88.4807L89.8648 88.4676ZM130.825 114.64C130.547 114.679 129.946 114.825 129.291 115.026C126.849 115.758 101.021 123.255 93.517 125.405C89.8725 126.452 86.6672 127.308 86.3975 127.308C85.1955 127.308 85.7271 126.614 91.4058 120.766C93.0778 119.048 94.4031 117.599 94.3569 117.545C94.2798 117.468 75.9262 123.779 43.0592 135.175C28.3601 140.275 27.8585 140.453 28.2776 140.468C28.4911 140.476 30.8219 140.067 33.4563 139.551C57.8392 134.797 68.8529 132.748 69.0324 132.925C69.3591 133.256 68.9107 133.88 67.1601 135.537C66.2732 136.377 63.5417 139.004 61.0877 141.362C58.6336 143.727 56.7181 145.661 56.8321 145.661C56.9454 145.661 60.808 144.598 65.4141 143.288C92.6155 135.583 104.565 132.247 104.966 132.247C105.213 132.247 105.49 132.362 105.575 132.509C105.783 132.84 104.026 135.367 100.574 139.713C99.0871 141.585 97.9313 143.173 98.0084 143.242C98.1548 143.396 98.9021 143.134 121.332 135.059C142.721 127.362 159.642 121.205 159.78 121.067C160.027 120.812 158.447 121.043 141.25 123.756C122.372 126.738 120.276 127.023 120.276 126.66C120.276 126.375 122.149 124.272 127.149 118.94C129.314 116.628 131.048 114.694 130.986 114.64C130.979 114.625 130.917 114.625 130.825 114.64Z" fill="white"/>
<path d="M136.04 80.159C135.825 79.4779 135.368 79.3677 132.348 79.2675L128.902 79.1535L130.487 78.6203C132.702 77.8768 138.612 77.5216 138.612 78.1326C138.612 79.0156 137.401 80.9365 136.845 80.9365C136.538 80.9365 136.176 80.5867 136.04 80.159Z" fill="black" stroke="black" stroke-width="1.25216"/>
</g>
<defs>
<clipPath id="clip0_15016_302638">
<rect width="200" height="200" fill="white" transform="translate(0.78125 0.195312)"/>
</clipPath>
</defs>
</svg>
