<svg width="200" height="201" viewBox="0 0 200 201" fill="none" xmlns="http://www.w3.org/2000/svg">
<g clip-path="url(#clip0_15016_304168)">
<path d="M90.5836 22.6453L90.5872 22.6416L90.5801 22.656L90.5836 22.6453Z" fill="black"/>
<path d="M172.541 78.0007L171.725 73.2137L171.692 73.0382C171.467 71.9175 170.181 66.0741 167.274 61.2726C163.11 54.3909 159.608 51.3438 158.634 50.5704L151.022 44.5948L147.155 48.8984C143.449 38.4576 137.581 31.8982 134.172 28.7473L134.079 28.2281C133.9 27.1933 132.822 21.769 129.095 16.5486C125.157 11.0597 119.94 8.77536 118.934 8.37077L110.151 4.85472L105.725 13.5802C105.31 14.393 103.219 18.79 102.703 25.3996C102.288 30.6665 102.732 34.4942 103.101 36.5386C102.714 36.9898 102.335 37.4515 101.962 37.9241C101.096 36.3523 100.132 34.9165 99.0941 33.6275C99.8389 28.1099 99.2588 21.7259 99.1872 20.974L99.1264 20.4906C98.3028 14.5863 96.0257 10.3829 95.5781 9.59523L90.3219 0.507812L81.4064 5.53503C80.5507 6.0184 77.475 7.92673 73.7227 12.1589C69.8199 16.5665 67.7468 22.3204 67.3673 23.4411L66.175 27.1075C62.9597 30.2404 57.2667 36.5636 52.766 45.7154L51.2729 41.6945L40.0803 50.2625C39.3284 50.8425 35.3433 54.0722 30.8927 60.6854C26.3777 67.406 16.7103 86.4437 24.4656 118.006C27.0723 128.611 32.6185 137.419 39.7652 142.371C31.0359 152.93 30.5203 166.045 38.1718 182.43C43.7753 194.424 53.2601 200.508 66.3683 200.508C71.9288 200.508 77.3605 199.516 83.1143 198.463C88.1485 197.543 93.351 196.591 97.9591 196.544H98.3458C102.549 196.544 107.297 197.486 111.905 198.399C116.918 199.394 122.099 200.422 127.284 200.422C140.009 200.422 149.257 193.97 154.771 181.241C160.668 167.635 160.582 156.306 154.492 146.653C164.045 141.777 172.022 131.418 175.957 118.7C182.208 98.5027 175.037 82.616 172.541 78.0007Z" fill="black"/>
<path d="M167.385 80.0419L166.397 74.2415C166.279 73.6579 165.183 68.4411 162.709 64.3485C158.924 58.0934 155.952 55.5942 155.397 55.1538L151.649 52.2106L148.43 55.7911C148.107 56.1491 145.991 58.6842 144.849 63.2637C144.838 63.1599 144.831 63.0668 144.821 62.9665C142.755 44.7131 133.205 35.1101 129.206 31.8268L128.751 29.2561C128.665 28.7584 127.81 24.2469 124.777 20.0004C121.669 15.668 117.48 13.8993 117.011 13.7131L112.685 11.9801L110.501 16.2838C110.301 16.6776 108.539 20.2941 108.102 25.8832C107.601 32.2529 108.525 36.0518 108.632 36.4672L109.094 38.2574C106.087 41.2328 103.154 45.2108 100.895 50.4992C99.4484 44.4875 97.0316 39.0846 93.3078 35.5148L93.6408 33.4525C94.4285 28.5651 93.87 22.2848 93.8019 21.5866L93.7697 21.3287C93.0751 16.3554 91.1667 12.9468 90.9518 12.5708L88.3632 8.09172L83.977 10.5693C83.5008 10.8378 80.9623 12.3632 77.6861 16.0583C74.4601 19.7032 72.7092 24.6693 72.4943 25.2995L70.8473 30.3661C67.4924 33.431 56.9228 44.1652 53.0701 60.9649C52.8983 61.7097 52.7658 62.4438 52.6404 63.1778C52.1929 59.9411 51.4123 57.7283 51.2691 57.3416L48.7878 50.6603L43.281 54.878C42.8943 55.1752 39.3962 57.9324 35.318 63.9906C32.1993 68.6273 22.1489 85.8029 29.7145 116.584C32.9906 129.908 40.7353 138.644 49.5075 140.66C40.7245 147.753 32.9298 158.28 43.0376 179.92C47.7173 189.938 55.3473 194.808 66.3681 194.808C71.4596 194.808 76.6728 193.859 82.1904 192.849C87.443 191.89 92.871 190.898 97.9625 190.848H98.3492C103.079 190.848 108.07 191.84 112.897 192.796C117.67 193.744 122.604 194.725 127.287 194.725C137.846 194.725 145.229 189.544 149.848 178.878C157.693 160.772 152.05 150.782 145.068 143.825C155.942 142.235 166.261 131.641 170.808 116.943C177.303 95.9609 167.385 80.0456 167.385 80.0456" fill="white"/>
<path d="M75.1324 33.8198C75.1324 33.8198 62.3314 44.2692 58.2095 62.2519C55.5599 73.8012 58.6936 84.1159 71.7868 90.6267C83.4678 96.4328 92.7027 92.2594 95.8535 81.0653C98.6377 71.2032 98.42 47.4257 89.5948 39.3682C83.9806 34.238 75.1324 33.8198 75.1324 33.8198ZM124.738 35.2291C124.738 35.2291 109.124 38.4 103.814 58.3076C101.508 66.9753 102.029 73.2455 104.788 83.1191C107.111 91.4402 118.835 96.725 128.342 93.557C139.719 89.776 141.764 82.5749 139.624 63.6039C137.324 43.2895 124.738 35.2291 124.738 35.2291ZM43.2774 82.022C37.8808 82.108 33.2806 84.6516 33.2806 84.6516C33.2806 84.6516 30.0696 97.888 34.7844 115.029C39.3818 131.748 51.4152 141.931 63.8324 130.989V131.47H69.143C69.5726 130.92 70.0252 130.39 70.4062 129.797C72.4571 126.629 74.5538 122.121 76.8568 117.44V107.656H69.2203C65.6226 98.6299 57.8515 90.1369 53.0307 85.6111C50.0431 82.8069 46.517 81.9733 43.2802 82.0249L43.2774 82.022ZM76.8568 117.44V131.473L69.143 131.47C58.3928 145.202 33.5957 147.09 47.7831 177.461C52.0969 186.699 58.6736 189.254 66.4017 189.254C75.8743 189.254 87.0885 185.407 97.9932 185.292H98.3771C108.451 185.292 118.614 189.168 127.313 189.168C134.569 189.168 140.805 186.47 145.093 176.565C156.682 149.825 135.248 146.508 126.571 133.452C115.592 116.928 118.737 96.387 98.9156 95.522C98.7237 95.5105 98.5317 95.5048 98.3398 95.5048C88.3345 95.5048 82.0156 106.962 76.8568 117.44ZM160.454 82.4918C156.441 82.5777 147.679 83.46 141.83 89.1229C135.342 95.3931 113.782 111.729 126.087 128.474C141.346 149.244 159.947 134.234 165.837 115.206C171.797 95.9488 162.603 82.529 162.603 82.529C162.603 82.529 161.792 82.4632 160.454 82.4918Z" fill="#AD0000"/>
<path d="M86.4728 15.4363C86.4728 15.4363 84.3961 16.6107 81.5489 19.8217C78.9652 22.7376 77.4815 27.0772 77.4815 27.0772L76.8456 29.0537C79.3004 29.1654 83.0728 29.5578 86.8824 31.5142L88.4693 32.511C89.1625 28.2201 88.5867 22.1218 88.5867 22.1218C88.0225 18.1174 86.4728 15.4363 86.4728 15.4363ZM115.157 18.8764C115.157 18.8764 113.722 21.7122 113.361 26.3239C112.923 31.9066 113.719 34.9944 113.719 34.9944C113.719 34.9944 116.861 32.8232 118.514 32.1128C120.863 31.1017 123.593 30.251 123.593 30.251C123.593 30.251 122.968 26.6447 120.594 23.3248C118.311 20.1425 115.157 18.8764 115.157 18.8764ZM46.3826 59.3476C46.3826 59.3476 43.3206 61.6878 39.6255 67.1817C37.0704 70.9742 35.876 77.4191 35.876 77.4191C35.876 77.4191 38.2592 76.6286 41.2525 76.345C44.2458 76.0585 46.5774 76.8033 46.5774 76.8033C46.5774 76.8033 46.8209 76.5025 47.5341 70.6706C48.2932 64.4949 46.3826 59.3476 46.3826 59.3476ZM152.271 59.5825C152.271 59.5825 149.369 62.8107 149.389 69.3444C149.412 75.1591 150.263 78.5649 150.28 78.6336C155.133 77.0124 159.822 76.8978 161.721 76.9322C161.537 76.2734 161.171 74.9529 161.082 74.5862C160.721 73.1082 159.813 69.8313 158.286 67.3078C154.829 61.5933 152.271 59.5825 152.271 59.5825ZM72.1193 64.2887L59.0834 78.0235V80.6416L55.7206 84.182V100.564L74.4137 116.581V126.484H59.0834V134.321H55.7206V143.764L67.1667 155.938H74.4137V173.612H82.4798V173.637H115.123C115.123 173.637 115.953 172.769 117.153 171.506H122.318L123.106 170.673C123.538 170.223 133.546 159.696 134.698 158.473L135.494 157.628L135.483 156.431C135.474 155.569 135.477 118.563 135.483 99.1141V97.9225L122.307 84.1992H116.901V78.0149L103.739 64.2858L72.1193 64.2887ZM98.34 105.671H113.765V118.919L98.34 105.671ZM113.765 143.26V152.171H105.295L113.765 143.26Z" fill="black"/>
<path d="M119.585 155.161H93.1679V151.083H102.363L113.931 138.906V123.101L93.1679 105.267V100.813H119.585V155.161ZM132.514 99.2446L120.938 87.1853H80.228V94.1532L74.4705 89.2083V80.8945H100.995V84.482H113.931V79.337L102.363 67.267H72.981L61.5342 79.3333V95.7035L80.228 111.726V134.735H93.1644V122.815L100.995 129.528V137.452H74.4705V129.468H61.5342V138.906L72.981 151.079H80.228V168.76H88.2949V168.781H120.935C120.935 168.781 131.358 157.825 132.511 156.593C132.5 155.526 132.511 99.2409 132.511 99.2409" fill="white"/>
</g>
<defs>
<clipPath id="clip0_15016_304168">
<rect width="200" height="200" fill="white" transform="translate(0 0.507812)"/>
</clipPath>
</defs>
</svg>
