<svg width="200" height="201" viewBox="0 0 200 201" fill="none" xmlns="http://www.w3.org/2000/svg">
<path d="M25.6011 22.4855C28.5293 26.1236 31.744 29.5788 35.5418 32.3242C36.7769 33.1444 37.9676 34.037 39.3016 34.6958C42.4538 36.5353 45.9205 37.7738 49.4482 38.6681C57.3581 40.9719 65.3768 42.8841 73.4203 44.6694C88.2358 47.9286 103.155 50.7053 118.12 53.1937C125.189 54.3318 132.19 55.9441 138.998 58.1722C143.922 59.7995 148.715 61.8365 153.275 64.3103C157.348 66.5384 161.219 69.2179 164.45 72.5727C167.378 75.5587 169.965 79.0483 171.189 83.0932C174.771 83.8967 178.292 85.1914 181.298 87.3355C185.058 89.9822 188.057 93.9265 188.999 98.4802C189.445 102.877 189.381 107.378 188.294 111.683C187.386 115.234 185.66 118.684 182.895 121.148C185.496 121.156 188.098 121.148 190.698 121.153C190.097 124.101 189.493 127.049 188.887 129.997C192.003 130.447 195.094 131.655 197.393 133.857C198.07 134.505 197.905 135.517 197.925 136.362C197.933 139.923 197.902 143.485 197.94 147.044C198.412 148.169 199.066 149.228 199.391 150.422C200.221 153.245 200.244 156.352 199.206 159.127C198.845 159.967 198.537 160.835 198.096 161.639C196.527 164.503 193.674 166.678 190.426 167.21C188.895 167.434 187.388 167.895 185.83 167.869C184.62 167.793 183.396 167.767 182.213 167.462C181.235 167.214 180.224 167.304 179.228 167.293C167.416 167.291 155.604 167.292 143.792 167.291C142.463 169.756 141.169 172.238 139.881 174.723C137.804 170.795 135.772 166.84 133.679 162.922C133.641 162.915 133.565 162.9 133.527 162.894C131.437 166.822 129.39 170.777 127.325 174.72C125.861 171.983 124.443 169.223 123.038 166.456C119.738 168.156 116.444 169.867 113.148 171.574C112.216 172.032 111.329 172.581 110.364 172.968C109.644 170.026 108.932 167.084 108.183 164.149H106.207C105.314 167.026 104.484 169.921 103.629 172.81C100.406 171.201 97.2114 169.537 94.0131 167.877C93.5537 167.666 93.1354 167.289 92.6067 167.293C83.3676 167.286 74.1301 167.301 64.891 167.286C64.9536 167.008 65.0145 166.731 65.0755 166.454C62.4355 167.345 59.6292 167.452 56.8673 167.388C55.2006 167.39 53.5325 167.385 51.8658 167.391C51.8642 168.503 51.8675 169.615 51.8625 170.728C47.9594 169.906 44.0546 169.086 40.1531 168.254C40.1514 167.932 40.1498 167.611 40.1465 167.291C39.1748 167.289 38.2032 167.294 37.2315 167.288C33.0171 170.947 28.9196 174.736 24.7332 178.429C24.7167 174.717 24.7332 171.004 24.7249 167.294C16.4838 167.284 8.24274 167.301 0 167.286C0.833332 163.388 1.64196 159.486 2.47694 155.59C2.82608 155.587 3.17522 155.587 3.52437 155.585C3.52931 151.054 3.52766 146.523 3.52601 141.991C3.17522 141.988 2.82443 141.986 2.47381 141.986C1.64196 138.091 0.811922 134.195 0 130.297C3.83563 130.285 7.66962 130.298 11.5052 130.29C10.8613 127.247 10.2075 124.206 9.6179 121.153C19.6607 121.151 29.7018 121.153 39.7446 121.151C40.3622 121.13 40.9897 121.207 41.6024 121.11C42.5147 120.481 43.3728 119.773 44.2176 119.055C38.493 117.599 33.0599 115.165 27.9397 112.247C22.1508 108.927 16.688 105.056 11.5217 100.837C7.50822 97.6039 3.8274 93.9908 0.0197633 90.524C3.27074 91.0692 6.50361 91.7427 9.76941 92.1956C10.2915 91.8679 10.6785 91.3622 11.1825 91.0082C14.6014 88.5296 17.9315 85.9028 21.6287 83.8409C26.1478 81.3212 30.9436 79.2741 35.9453 77.9302C40.6076 76.5927 45.4413 75.9274 50.2848 75.753C48.7861 74.8371 47.2644 73.9562 45.746 73.0702C43.5638 71.9452 41.4031 70.7759 39.1732 69.7433C33.7713 67.2237 28.2229 65.0183 22.5823 63.0931C20.7641 62.502 18.9179 61.9963 17.0998 61.4017C19.6887 60.4154 22.304 59.4866 24.9489 58.6531C30.6258 56.9749 36.5398 56.2553 42.4373 55.9572C37.7091 50.5818 33.7302 44.5523 30.6044 38.1114C28.1307 33.2167 26.0046 28.0108 25.6011 22.4855Z" fill="white"/>
<path d="M28.6556 28.5973C29.8249 30.18 31.2066 31.5963 32.7481 32.8183C37.0054 36.1449 42.0251 38.3567 47.147 39.979C62.9175 44.6248 79.0275 47.9927 95.1605 51.0987C103.395 52.6633 111.649 54.1274 119.925 55.4582C126.374 56.5994 132.764 58.1195 138.981 60.1898C144.599 62.0786 150.086 64.4404 155.131 67.5712C158.768 69.8472 162.173 72.5514 164.952 75.837C167.127 78.444 168.98 81.4429 169.68 84.8027C173.486 85.5059 177.267 86.7592 180.423 89.0567C183.721 91.4232 186.292 94.9491 187.122 98.9611C187.488 103.032 187.443 107.196 186.419 111.176C185.668 114.088 184.354 116.919 182.251 119.104C181.287 120.112 180.167 120.985 178.886 121.548C178.535 119.292 178.191 117.036 177.845 114.781C174.532 116.288 171.016 117.447 167.368 117.731C163.817 118.004 160.065 117.525 156.986 115.634C148.173 116.267 139.447 117.775 130.821 119.654C126.903 120.517 123.001 121.463 119.13 122.522C118.645 122.66 118.141 122.757 117.708 123.027C128.056 123.095 138.406 123.037 148.754 123.057H188.417C187.811 125.97 187.21 128.885 186.605 131.8C189.817 131.817 193.117 132.708 195.619 134.788C195.777 134.951 196.065 135.076 196.019 135.354C196.027 138.645 196.019 141.937 196.024 145.229C195.358 145.394 194.693 145.557 194.026 145.708C195.464 146.92 196.669 148.442 197.34 150.213C198.451 153.156 198.387 156.57 197.025 159.422C196.266 160.975 195.148 162.38 193.721 163.37C191.702 164.916 189.199 165.838 186.655 165.949C185.803 166.001 184.955 165.896 184.108 165.855C183.071 165.797 182.086 165.354 181.042 165.39C176.959 165.397 172.878 165.389 168.796 165.394C168.132 164.709 167.478 164.012 166.814 163.329C166.936 164.015 167.063 164.704 167.192 165.392C160.782 165.394 154.373 165.392 147.963 165.392C148.533 162.76 149.103 160.129 149.673 157.497C150.116 157.497 150.562 157.495 151.009 157.497C151.009 154.811 151.01 152.123 151.009 149.437C147.296 156.505 143.609 163.587 139.877 170.646C137.782 166.65 135.692 162.652 133.598 158.656C131.504 162.652 129.414 166.65 127.32 170.646C126.144 168.389 124.969 166.135 123.797 163.879C119.769 165.977 115.739 168.072 111.71 170.169C111.045 167.53 110.378 164.891 109.713 162.253H104.775C104.008 164.89 103.252 167.53 102.486 170.168C99.4491 168.592 96.4484 166.934 93.3901 165.409C84.6533 165.371 75.9116 165.404 67.1731 165.392C67.3312 164.605 67.4844 163.816 67.6425 163.029C66.0746 163.956 64.3931 164.728 62.5947 165.068C60.1804 165.644 57.6804 165.465 55.2215 165.496H49.9516V168.352C47.3199 167.813 44.6898 167.274 42.058 166.738C42.0564 166.288 42.0564 165.84 42.0564 165.392C40.1921 165.39 38.3278 165.395 36.4635 165.39C33.1812 168.307 29.9154 171.242 26.6381 174.165C26.6365 171.24 26.6381 168.317 26.6381 165.394C18.5518 165.392 10.4656 165.394 2.37927 165.392C2.91616 162.76 3.4547 160.129 3.99488 157.497C4.47083 157.497 4.94679 157.495 5.42274 157.497C5.42439 151.692 5.42439 145.886 5.42274 140.083C4.94514 140.081 4.46919 140.081 3.99159 140.083C3.45305 137.451 2.91451 134.819 2.37598 132.187C6.18032 132.191 9.9863 132.166 13.7923 132.1C13.1879 129.086 12.5835 126.071 11.9774 123.057C22.0663 123.055 32.1552 123.055 42.2425 123.057C44.395 121.332 46.5705 119.635 48.8021 118.016C44.0887 117.332 39.535 115.812 35.2119 113.839C28.8186 110.896 22.8535 107.092 17.231 102.872C13.3246 99.9674 9.59928 96.8234 5.98763 93.5593C14.6734 95.0711 23.6226 95.669 32.3594 94.2164C34.4098 93.8738 36.4454 93.4209 38.4316 92.7984C31.2083 90.9983 23.8038 89.987 16.3763 89.5606C25.3255 82.7688 36.2725 78.724 47.4582 77.8281C50.4358 77.5843 53.4398 77.5364 56.4139 77.8543C53.8629 75.7826 51.1094 73.9775 48.2784 72.3174C43.9141 69.7714 39.3423 67.599 34.698 65.6178C30.8674 64.0005 26.9774 62.5183 23.033 61.2059C24.428 60.799 25.8081 60.3396 27.2112 59.9592C29.1315 59.5473 31.0452 59.0845 32.9902 58.7982C37.5916 58.1032 42.2458 57.759 46.8983 57.7771C42.226 53.3171 38.3212 48.1015 35.0917 42.5184C32.5439 38.0818 30.3107 33.4441 28.6556 28.5973ZM43.4793 46.769C44.3901 47.899 45.5429 48.7949 46.5755 49.8059C50.589 53.4274 54.9037 56.7196 59.4738 59.6066C63.9633 62.3981 68.7031 64.8174 73.7031 66.5468C75.6052 67.1446 77.4926 67.8164 79.4722 68.1196C78.4988 68.0982 77.57 67.7752 76.6033 67.6995C66.987 66.1252 57.3543 64.615 47.6559 63.64C46.1671 63.5559 44.6881 63.3072 43.1944 63.3255C47.2622 65.4137 51.2659 67.6287 55.1441 70.0514C59.5727 72.8279 63.8974 75.8154 67.7429 79.3696C69.683 81.2322 71.5819 83.2052 72.8467 85.6064C69.8888 85.1337 66.9327 84.6281 63.9501 84.3152C58.6488 83.7551 53.3031 83.4159 47.9737 83.7321C43.364 84.0038 38.7214 84.7037 34.4345 86.4873C42.4171 88.35 50.4441 90.3445 57.9126 93.793C60.4966 95.0858 63.1975 96.4544 65.0371 98.752C64.6418 98.9675 64.207 99.0927 63.7772 99.2213C56.9771 101.278 49.9632 102.696 42.8683 103.161C41.8225 103.169 40.78 103.227 39.7376 103.306C37.0597 103.154 34.3538 103.236 31.7056 102.729C30.0752 102.515 28.4859 102.092 26.9 101.667C31.3482 104.679 36.1638 107.12 41.0995 109.221C45.8196 111.206 50.729 112.772 55.7667 113.711C59.8082 114.513 63.9617 114.753 68.0723 114.48C69.487 114.383 70.8819 114.093 72.2983 114.035C71.0664 114.314 69.907 114.826 68.7064 115.209C64.8543 116.566 61.068 118.119 57.4086 119.938C55.5114 120.914 53.583 121.853 51.8143 123.054C53.5534 123.106 55.2924 123.065 57.0315 123.078C74.4491 123.081 91.8684 123.07 109.288 123.085C110.707 122.085 112.102 121.041 113.398 119.885C112.42 120.091 111.49 120.468 110.521 120.71C108.216 121.355 105.856 121.84 103.466 122.011C101.233 122.28 98.9286 122.118 96.7943 121.387C96.791 121.334 96.786 121.23 96.7827 121.178C100.065 120.084 103.268 118.757 106.345 117.176C111.417 114.562 116.249 111.293 120.016 106.963C120.233 106.741 120.366 106.459 120.467 106.17C115.317 105.509 110.032 105.601 104.961 106.786C104.177 106.963 103.416 107.227 102.626 107.373C104.989 102.642 107.445 97.9532 110.045 93.3501C109.08 93.2562 108.133 93.0537 107.193 92.8248C102.965 91.7444 98.8512 89.7895 95.76 86.6522C96.6427 86.624 97.4975 86.8908 98.3753 86.9371C102.978 87.3801 107.725 85.7166 111.047 82.4985C111.193 82.3684 111.603 81.9272 111.213 81.8531C108.464 81.1349 105.646 80.6822 102.82 80.3806C100.74 80.2062 98.652 80.0249 96.5637 80.1682C95.317 80.2933 94.0588 80.3345 92.8269 80.5898C92.1204 80.6787 91.4468 80.9588 90.7304 80.962C95.3713 78.0519 100.482 75.9671 105.683 74.2955C105.605 74.0384 105.478 73.8047 105.223 73.6942C102.059 71.9421 99.3519 69.2393 97.9191 65.8881C102.85 69.3515 108.973 71.0378 114.978 70.6855C116.412 70.478 117.865 70.3971 119.274 70.0348C117.651 69.2016 116.032 68.3551 114.493 67.3719C114.097 67.1084 113.626 66.8795 113.443 66.4035C114.915 66.5977 116.348 67.0061 117.807 67.2779C124.576 68.7273 131.333 70.2342 138.069 71.8316C143.238 73.0521 148.393 74.3332 153.505 75.776C156.065 76.5237 158.634 77.2797 161.073 78.3698C157.999 75.1008 154.223 72.5811 150.327 70.4006C146.206 68.126 141.853 66.2881 137.4 64.7731C125.048 60.6145 112.013 58.854 99.034 58.2991C97.0018 58.1606 94.958 58.2991 92.929 58.0948C85.9988 57.9103 79.1312 56.7741 72.3576 55.3512C63.4379 53.4029 54.6682 50.7973 46.0831 47.6946C45.2168 47.3835 44.3637 47.0294 43.4793 46.769ZM132.769 76.8152C132.45 76.9188 132.15 77.0755 131.853 77.2286C136.827 77.5201 141.817 78.3518 146.475 80.1716C148.897 81.158 151.262 82.3867 153.229 84.1339C153.632 84.475 153.94 84.9262 154.375 85.2325C156.91 85.4401 159.542 84.1242 160.881 81.9618C160.276 81.2815 159.436 80.8452 158.672 80.3625C156.072 78.8673 153.247 77.8182 150.401 76.8976C144.732 74.9557 138.469 75.0382 132.769 76.8152ZM139.077 82.6748C138.115 83.6892 137.428 84.9789 137.191 86.3623C137.043 87.7194 137.148 89.1504 137.786 90.3808C138.698 92.3223 140.554 93.709 142.595 94.2806C145.281 95.0514 148.347 94.4404 150.475 92.6107C151.896 91.4298 152.817 89.6905 153.016 87.8544C151.527 87.2747 150.157 86.448 148.823 85.5799C147.54 84.7237 146.05 84.2675 144.586 83.8309C142.959 83.3862 141.325 82.9547 139.673 82.6171C139.479 82.6089 139.222 82.4969 139.077 82.6748ZM158.46 89.5804C157.294 90.8007 156.358 92.2121 155.457 93.6301C151.573 95.8485 147.054 96.4578 142.7 97.1166C140.235 97.5034 137.725 97.9977 135.533 99.2459C133.655 100.384 132.211 102.072 130.839 103.755C129.237 105.852 127.786 108.067 126.552 110.402C128.324 109.854 130.123 109.389 131.954 109.089C137.245 108.167 142.647 108.656 147.919 109.452C151.965 110.088 156.052 110.404 160.115 110.919C162.527 111.219 164.999 111.196 167.366 110.593C170.558 109.837 173.805 108.692 176.238 106.407C174.78 106.957 173.196 107.304 171.641 107.018C169.392 106.636 167.508 105.055 166.319 103.162C163.758 102.533 161.108 102.418 158.483 102.365C150.536 102.299 142.623 103.185 134.739 104.058C136.987 102.951 139.437 102.357 141.858 101.758C146.737 100.615 151.694 99.8126 156.673 99.2475C159.466 98.9807 162.31 98.625 165.092 99.167C167.241 99.582 169.314 100.588 170.813 102.209C171.58 99.4715 173.063 96.9025 175.278 95.0858C176.628 96.1694 177.918 97.3437 179.024 98.6795C179.892 99.7037 180.597 100.903 180.818 102.243C181.516 106.061 181.911 109.954 181.748 113.837C183.04 110.124 183.96 106.229 183.944 102.28C183.893 100.463 183.555 98.5576 182.425 97.0804C181.383 95.7495 179.957 94.7877 178.509 93.9479C174.467 91.6767 170.021 90.2357 165.563 89.027C165.331 88.9743 165.222 88.7403 165.083 88.5756C164.552 87.8198 164.016 87.0672 163.478 86.3179C161.47 86.7607 159.835 88.1178 158.46 89.5804ZM18.2735 126.641C18.3031 127.342 18.1549 128.087 18.3937 128.757C18.957 129.73 20.2004 129.363 21.121 129.429V130.756C20.7735 130.755 20.4277 130.755 20.0802 130.756C20.0802 130.535 20.0818 130.316 20.0834 130.099C19.5087 130.096 18.9356 130.096 18.3608 130.097C18.3624 130.794 18.3608 131.491 18.3624 132.187C19.4527 132.179 20.5429 132.202 21.6332 132.179C22.2936 132.164 22.9326 131.641 22.9244 130.949C22.9211 130.223 23.0528 129.452 22.8074 128.757C22.2211 127.829 20.9958 128.157 20.0818 128.101V126.856C20.4277 126.855 20.7735 126.855 21.1193 126.855C21.1193 127.046 21.121 127.238 21.121 127.433C21.6628 127.431 22.2047 127.431 22.7481 127.431C22.7481 126.795 22.7465 126.161 22.7465 125.527C21.6513 125.539 20.5561 125.504 19.4609 125.54C18.8746 125.56 18.2241 125.988 18.2735 126.641ZM28.9355 125.588C28.4645 125.667 28.1088 126.102 28.1006 126.576C28.0264 127.8 28.089 129.03 28.066 130.257C28.0742 130.787 27.9985 131.441 28.4629 131.818C28.9767 132.281 29.7145 132.171 30.3486 132.191C30.9925 132.161 31.7616 132.322 32.2672 131.815C32.7778 131.071 32.6197 130.12 32.6493 129.27C32.6147 128.312 32.7366 127.337 32.5455 126.392C32.4616 125.903 32.0054 125.563 31.5212 125.557C30.6615 125.521 29.7903 125.478 28.9355 125.588ZM40.8212 125.526C40.8212 127.268 40.8196 129.012 40.8229 130.755C40.5067 130.755 40.1905 130.755 39.8759 130.756C39.8759 129.014 39.8743 127.271 39.8759 125.527C39.1101 125.526 38.3443 125.526 37.5785 125.527C37.5785 125.968 37.5785 126.412 37.5801 126.855C37.697 126.855 37.9342 126.856 38.0528 126.856C38.061 128.207 38.0347 129.557 38.0643 130.908C38.0297 131.496 38.4365 132.145 39.0656 132.174C39.8446 132.199 40.6269 132.199 41.4075 132.174C42.1634 132.179 42.641 131.377 42.6295 130.692C42.6427 129.412 42.6279 128.134 42.6345 126.855C42.7283 126.855 42.9194 126.856 43.0149 126.856V125.527C42.2837 125.526 41.5524 125.527 40.8212 125.526ZM47.6657 125.527V127.998C48.1153 127.996 48.5649 127.998 49.0145 127.998C49.0145 127.616 49.0145 127.233 49.0162 126.853C49.2319 126.853 49.4477 126.855 49.6634 126.858C49.6618 128.157 49.6634 129.455 49.6634 130.755C49.5448 130.756 49.3077 130.758 49.1891 130.758V132.187H51.867C51.8653 131.711 51.8653 131.237 51.8686 130.763C51.7731 130.759 51.5788 130.753 51.4832 130.75C51.4882 129.45 51.4833 128.152 51.4865 126.855C51.6512 126.855 51.979 126.856 52.1437 126.856C52.142 127.235 52.1437 127.617 52.1437 127.999C52.5587 127.996 52.9737 127.998 53.3904 127.998V125.527H47.6657ZM58.041 125.527V126.853C58.1975 126.853 58.3556 126.855 58.5154 126.856V130.756C58.3968 130.756 58.1596 130.756 58.041 130.758V132.187C58.8036 132.187 59.5644 132.186 60.3269 132.189C60.3269 131.298 60.3253 130.409 60.3286 129.521C60.6431 129.519 60.9577 129.519 61.2739 129.521C61.2739 130.409 61.2739 131.296 61.2723 132.186C62.0381 132.189 62.8039 132.186 63.5697 132.187C63.5697 131.71 63.5697 131.234 63.5713 130.758C63.4528 130.758 63.2156 130.756 63.097 130.755C63.097 129.455 63.0954 128.154 63.097 126.855C63.214 126.856 63.4511 126.856 63.5697 126.856V125.526C62.8039 125.526 62.0381 125.527 61.2739 125.526C61.2723 126.383 61.2739 127.242 61.2739 128.1C60.9577 128.1 60.6415 128.1 60.3269 128.101C60.3253 127.243 60.3269 126.385 60.3269 125.527C59.5644 125.526 58.8036 125.526 58.041 125.527ZM68.4066 125.527C68.405 125.968 68.405 126.412 68.4066 126.855H68.8908V130.756H68.4066V132.187C70.0305 132.186 71.6527 132.187 73.2765 132.187C73.2749 131.425 73.2765 130.662 73.2749 129.901H71.6494C71.6477 130.185 71.6477 130.47 71.6494 130.756C71.3019 130.755 70.956 130.755 70.6102 130.756V129.336C71.0861 129.335 71.5637 129.335 72.0413 129.336C72.0397 128.954 72.0397 128.572 72.0413 128.194C71.5637 128.192 71.0861 128.192 70.6102 128.194V126.856C70.956 126.855 71.3019 126.855 71.6494 126.855C71.6477 127.143 71.6477 127.429 71.6494 127.719H73.1728C73.1711 126.988 73.1728 126.257 73.1728 125.526C71.5835 125.527 69.9959 125.526 68.4066 125.527ZM79.2564 125.527C78.9402 127.27 78.6257 129.012 78.3094 130.756C78.1909 130.756 77.9537 130.756 77.8351 130.758V132.187H79.9333C79.9975 131.649 80.0601 131.11 80.1194 130.572C80.4949 130.57 80.8737 130.57 81.2525 130.572C81.3463 131.11 81.4435 131.647 81.539 132.187C82.2077 132.187 82.878 132.186 83.5482 132.187V130.756H83.0723C82.761 129.012 82.4399 127.27 82.1286 125.527C81.1701 125.526 80.2133 125.526 79.2564 125.527ZM88.1118 126.812C88.1414 127.476 87.9833 128.2 88.2781 128.819C88.8825 129.704 90.0584 129.368 90.9593 129.427C90.9576 129.87 90.9576 130.313 90.9593 130.756C90.6151 130.755 90.2725 130.755 89.93 130.756C89.9283 130.535 89.93 130.316 89.9316 130.097C89.3536 130.096 88.7755 130.096 88.1991 130.097C88.2007 130.794 88.1991 131.491 88.2007 132.187C89.2317 132.184 90.2643 132.191 91.2969 132.187C91.7547 132.189 92.2752 132.085 92.5568 131.688C92.8697 131.163 92.7445 130.522 92.7742 129.943C92.7577 129.444 92.8631 128.824 92.4135 128.475C91.73 127.881 90.7501 128.167 89.93 128.1V126.856C90.2725 126.855 90.6134 126.855 90.9576 126.855C90.9576 127.046 90.9576 127.238 90.9609 127.433C91.5044 127.431 92.0512 127.431 92.5963 127.433V125.527C91.5505 125.532 90.5064 125.516 89.4623 125.53C88.7673 125.494 88.0459 126.082 88.1118 126.812ZM97.2373 125.527V127.998H98.5861C98.5861 127.616 98.5861 127.235 98.5877 126.855C98.8051 126.853 99.0242 126.855 99.2465 126.856C99.2432 128.156 99.2449 129.455 99.2449 130.755C99.123 130.756 98.8809 130.758 98.7607 130.758V132.187H101.439C101.437 131.711 101.437 131.237 101.44 130.764C101.345 130.759 101.15 130.753 101.055 130.748C101.06 129.45 101.055 128.152 101.058 126.855C101.223 126.855 101.551 126.856 101.715 126.856C101.714 127.235 101.714 127.616 101.715 127.996C102.129 127.996 102.544 127.998 102.959 127.999C102.962 127.174 102.96 126.351 102.962 125.527H97.2373ZM111.042 125.527C111.04 125.968 111.04 126.412 111.042 126.855C111.16 126.855 111.396 126.856 111.514 126.856C111.514 128.156 111.513 129.455 111.516 130.755C111.397 130.756 111.16 130.756 111.042 130.758C111.04 131.234 111.04 131.71 111.042 132.187C111.776 132.186 112.509 132.187 113.245 132.187C113.24 131.043 113.248 129.898 113.24 128.755C113.729 129.658 114.248 130.544 114.752 131.44C115.259 130.534 115.795 129.643 116.284 128.725C116.254 129.878 116.277 131.031 116.269 132.186C117 132.189 117.731 132.186 118.463 132.187C118.461 131.71 118.461 131.234 118.463 130.758C118.37 130.756 118.184 130.755 118.092 130.755C118.092 129.453 118.092 128.154 118.094 126.855C118.186 126.855 118.37 126.855 118.463 126.856C118.461 126.412 118.461 125.968 118.463 125.527C117.766 125.527 117.069 125.526 116.374 125.527C115.837 126.538 115.184 127.492 114.778 128.569C114.465 127.467 113.751 126.548 113.25 125.532C112.514 125.522 111.778 125.527 111.042 125.527ZM122.931 125.527C122.931 125.955 122.909 126.387 122.947 126.817C123.038 126.838 123.222 126.881 123.313 126.902C123.306 128.185 123.311 129.468 123.311 130.753C123.215 130.755 123.023 130.758 122.927 130.761C122.929 131.235 122.929 131.711 122.929 132.187C123.82 132.187 124.713 132.186 125.605 132.189C125.605 131.711 125.605 131.234 125.607 130.758C125.508 130.758 125.312 130.756 125.215 130.755V126.856C125.314 126.855 125.508 126.855 125.607 126.855C125.605 126.41 125.605 125.967 125.603 125.526C124.713 125.527 123.822 125.526 122.931 125.527ZM130.072 126.813C130.129 127.518 129.907 128.31 130.281 128.951C130.902 129.707 131.989 129.345 132.832 129.429C132.83 129.87 132.83 130.313 132.832 130.756C132.514 130.755 132.198 130.755 131.885 130.756C131.883 130.535 131.883 130.316 131.886 130.097C131.312 130.096 130.739 130.097 130.165 130.097C130.164 130.794 130.164 131.491 130.165 132.187C131.331 132.163 132.502 132.235 133.667 132.153C134.548 132.018 134.762 131.018 134.75 130.27C134.711 129.689 134.904 128.93 134.363 128.526C133.701 127.879 132.71 128.157 131.885 128.101C131.883 127.685 131.883 127.268 131.885 126.855C132.199 126.853 132.516 126.855 132.833 126.856C132.832 127.001 132.83 127.288 132.828 127.431C133.37 127.431 133.914 127.431 134.457 127.433C134.457 126.797 134.457 126.161 134.459 125.527C133.347 125.547 132.234 125.483 131.126 125.558C130.506 125.615 129.973 126.169 130.072 126.813ZM139.306 126.81C139.327 127.632 139.123 128.706 139.925 129.238C140.608 129.587 141.419 129.371 142.156 129.429C142.156 129.87 142.156 130.313 142.158 130.756C141.809 130.755 141.461 130.755 141.117 130.756C141.116 130.535 141.117 130.316 141.119 130.099C140.544 130.096 139.971 130.096 139.398 130.097V132.187C140.213 132.187 141.03 132.186 141.847 132.189C142.435 132.177 143.122 132.271 143.601 131.848C144.077 131.405 143.955 130.687 143.985 130.104C143.95 129.562 144.098 128.88 143.622 128.488C142.935 127.877 141.947 128.166 141.117 128.101V126.856C141.463 126.855 141.809 126.855 142.156 126.855C142.156 126.999 142.158 127.288 142.158 127.431H143.784V125.527C142.7 125.535 141.615 125.507 140.533 125.537C139.885 125.555 139.23 126.128 139.306 126.81ZM149.51 125.606C148.927 125.756 148.673 126.397 148.642 126.944C148.594 128.1 148.632 129.259 148.619 130.419C148.629 130.898 148.607 131.473 149.014 131.813C149.53 132.278 150.269 132.174 150.91 132.191C151.578 132.166 152.387 132.319 152.903 131.776C153.43 131.115 153.266 130.221 153.296 129.439C153.262 128.449 153.369 127.448 153.22 126.466C153.148 125.909 152.593 125.568 152.066 125.557C151.216 125.526 150.351 125.465 149.51 125.606ZM157.669 125.527C157.667 125.968 157.667 126.412 157.669 126.855C157.788 126.855 158.025 126.856 158.143 126.856C158.16 128.271 158.107 129.687 158.17 131.102C158.185 131.687 158.695 132.209 159.291 132.181C160.07 132.186 160.853 132.215 161.632 132.161C162.315 132.09 162.707 131.351 162.712 130.723C162.742 129.434 162.714 128.144 162.723 126.856C162.842 126.856 163.079 126.855 163.198 126.855C163.196 126.412 163.196 125.968 163.198 125.527C162.432 125.526 161.666 125.527 160.902 125.526C160.9 127.27 160.9 129.012 160.902 130.756C160.587 130.755 160.275 130.755 159.965 130.756V125.527C159.199 125.527 158.433 125.526 157.669 125.527ZM167.56 125.527C167.559 125.968 167.559 126.413 167.562 126.856C167.681 126.856 167.916 126.855 168.035 126.855V130.756C167.916 130.756 167.679 130.756 167.56 130.758C167.559 131.234 167.559 131.71 167.562 132.187C168.321 132.187 169.084 132.186 169.846 132.187C169.846 131.268 169.845 130.348 169.846 129.429C170.194 129.429 170.545 129.427 170.895 129.429C170.938 130.254 170.795 131.102 170.989 131.911C171.544 132.426 172.402 132.097 173.089 132.186C173.087 131.71 173.087 131.234 173.091 130.758C172.972 130.758 172.737 130.756 172.62 130.755C172.621 130.204 172.638 129.643 172.447 129.119C172.231 129.024 172.017 128.933 171.804 128.844C172.15 128.64 172.549 128.399 172.633 127.971C172.73 127.429 172.756 126.861 172.639 126.324C172.488 125.751 171.862 125.524 171.325 125.53C170.07 125.517 168.815 125.53 167.56 125.527ZM177.463 125.527C177.462 125.968 177.462 126.41 177.463 126.855C177.559 126.855 177.748 126.856 177.844 126.856C177.844 128.154 177.84 129.452 177.847 130.75C177.75 130.753 177.557 130.759 177.46 130.763C177.462 131.237 177.462 131.711 177.463 132.187C178.351 132.186 179.24 132.187 180.13 132.186C180.128 131.71 180.128 131.234 180.13 130.759C180.034 130.758 179.843 130.755 179.746 130.751C179.749 129.453 179.747 128.156 179.747 126.856C179.843 126.856 180.034 126.855 180.13 126.853C180.128 126.41 180.128 125.967 180.13 125.526C179.239 125.527 178.351 125.526 177.463 125.527ZM93.7294 157.187C93.7261 151.069 93.7294 144.951 93.7277 138.833C93.736 138.508 93.7294 138.177 93.8216 137.866C94.342 137.589 94.9728 137.744 95.541 137.703C95.7649 136.659 95.9823 135.611 96.2113 134.567C92.0215 134.559 87.8318 134.567 83.6405 134.564C83.6388 135.609 83.6405 136.655 83.6405 137.701C84.2317 137.747 85.3351 137.49 85.4257 138.34C85.4652 140.507 85.429 142.678 85.4422 144.847H80.9857V139.819C80.989 139.154 80.9511 138.487 81.0614 137.83C81.6263 137.688 82.2093 137.693 82.7874 137.701C82.7857 136.655 82.7874 135.609 82.7874 134.564C78.5664 134.564 74.3454 134.565 70.1244 134.564C70.3483 135.609 70.569 136.657 70.7963 137.704C71.3809 137.696 71.9722 137.683 72.5469 137.815C72.6573 140.083 72.5667 142.357 72.5963 144.628C72.2044 143.717 71.9508 142.739 71.4139 141.897C69.5693 138.558 66.3118 136.048 62.6425 135.036C60.7238 134.46 58.6998 134.449 56.7153 134.488C53.672 134.528 50.6285 134.556 47.585 134.564C47.5834 133.771 47.585 132.981 47.5834 132.189C46.5343 132.413 45.4852 132.637 44.4362 132.861C44.4263 133.361 44.4757 133.872 44.3571 134.366C44.199 134.664 43.8301 134.643 43.5419 134.658C38.7297 134.656 33.9191 134.658 29.1085 134.656C29.1068 137.512 29.1085 140.367 29.1068 143.223C28.2554 143.068 27.4056 142.909 26.5558 142.752C26.2198 139.249 23.7083 136.033 20.3091 135.035C19.2007 134.641 18.0116 134.592 16.8473 134.562C13.0051 134.567 9.16121 134.562 5.31899 134.564C5.54297 135.609 5.7653 136.655 5.98763 137.703C6.49652 137.716 7.02353 137.647 7.51595 137.807C7.85686 137.93 7.76463 138.378 7.80087 138.663C7.80087 145.47 7.79922 152.274 7.80087 159.08C7.77781 159.322 7.82557 159.605 7.66582 159.814C7.11905 159.939 6.54757 159.852 5.99092 159.875C5.76694 160.921 5.54478 161.968 5.32063 163.016C9.73268 163.016 14.1431 163.014 18.5551 163.016C18.369 161.968 18.1796 160.921 17.9886 159.875C17.3842 159.827 16.7353 159.992 16.1605 159.768C16.0057 158.841 16.1243 157.891 16.0881 156.955C17.483 158.946 18.8746 160.941 20.2712 162.932C23.2159 162.951 26.1622 162.996 29.1068 163.017C29.1085 164.924 29.1068 166.83 29.1085 168.737C31.2461 166.804 33.3723 164.859 35.5067 162.922C38.1285 162.925 40.7488 162.919 43.3706 162.925C43.7049 162.953 44.1512 162.876 44.3555 163.217C44.4773 163.712 44.4263 164.231 44.4345 164.74C45.4836 164.959 46.5343 165.178 47.5834 165.4C47.585 164.605 47.5834 163.809 47.585 163.014C50.8426 163.044 54.1017 163.085 57.3609 163.108C58.4659 163.096 59.5776 163.151 60.6777 163.001C65.1474 162.436 69.2729 159.625 71.404 155.651C71.9541 154.804 72.1994 153.813 72.5947 152.894C72.5585 155.183 72.6754 157.482 72.5354 159.766C71.9969 160 71.3694 159.822 70.7963 159.873C70.5723 160.921 70.35 161.968 70.126 163.016H82.7857C82.7874 161.968 82.7857 160.921 82.7874 159.875C82.2274 159.812 81.5835 160.023 81.0812 159.728C80.9379 159.364 80.9988 158.959 80.9824 158.579C80.989 156.283 80.984 153.987 80.9857 151.693C82.4712 151.692 83.9567 151.693 85.4422 151.692C85.4405 154.154 85.4438 156.617 85.4405 159.08C85.4059 159.335 85.4784 159.717 85.1869 159.847C84.6731 159.906 84.1543 159.865 83.6405 159.873V163.016C87.1204 163.03 90.6036 162.984 94.0818 163.037C96.3941 164.198 98.6651 165.45 100.961 166.649C101.249 165.624 101.541 164.603 101.819 163.577C101.351 163.294 100.694 163.226 100.426 162.698C100.648 161.652 101.307 160.758 101.73 159.783C105.37 159.781 109.011 159.783 112.652 159.783C112.889 160.351 113.125 160.924 113.446 161.453C113.67 161.83 113.93 162.222 113.934 162.68C113.581 163.116 113.024 163.304 112.563 163.6C112.824 164.613 113.072 165.631 113.327 166.645C117.165 164.648 121 162.648 124.834 160.646C125.666 162.228 126.485 163.819 127.32 165.4C129.418 161.416 131.496 157.424 133.594 153.441C135.706 157.419 137.779 161.42 139.877 165.407C144.413 156.817 148.945 148.223 153.481 139.633C153.476 146.067 153.486 152.502 153.476 158.935C153.436 159.241 153.502 159.696 153.148 159.831C152.629 159.921 152.099 159.86 151.577 159.875C151.387 160.921 151.198 161.968 151.01 163.016C155.423 163.014 159.835 163.016 164.247 163.016C164.021 161.968 163.802 160.921 163.575 159.875C162.994 159.84 162.361 159.982 161.821 159.715C161.696 158.131 161.801 156.532 161.768 154.942C164.453 157.592 167.073 160.315 169.795 162.92C173.273 162.966 176.752 162.989 180.23 163.016C180.134 162.704 180.037 162.39 179.947 162.08C183.259 163.917 187.524 164.132 190.904 162.35C193.423 161.015 195.378 158.485 195.671 155.605C195.849 153.6 195.541 151.492 194.466 149.763C193.596 148.315 192.249 147.232 190.828 146.356C189.392 145.476 187.944 144.618 186.505 143.745C186.057 143.459 185.543 143.144 185.395 142.597C185.268 142.131 185.54 141.654 185.951 141.438C187.096 140.822 188.6 140.978 189.637 141.744C190.354 142.242 190.612 143.113 190.879 143.897C191.768 143.709 192.658 143.516 193.548 143.332C193.576 141.01 193.614 138.689 193.646 136.369C191.039 134.355 187.537 133.839 184.359 134.445C182.908 134.753 181.467 135.313 180.36 136.328C176.666 139.274 176.36 145.44 179.626 148.818C181.515 150.825 184.11 151.914 186.363 153.436C186.902 153.795 187.369 154.424 187.223 155.104C187.121 155.626 186.602 155.919 186.132 156.056C184.538 156.392 182.765 155.891 181.635 154.704C180.836 153.911 180.51 152.815 180.13 151.79C179.174 151.823 178.219 151.858 177.264 151.893C177.302 154.363 177.325 156.833 177.361 159.305C173.209 155.119 169.057 150.934 164.906 146.748C167.58 144.093 170.237 141.418 172.933 138.786C173.344 138.432 173.705 137.994 174.207 137.764C174.593 137.647 174.995 137.828 175.377 137.897C175.657 136.789 175.943 135.682 176.226 134.574C172.99 134.59 169.754 134.641 166.518 134.656C165.531 135.632 164.563 136.626 163.58 137.605C163.802 136.594 164.023 135.585 164.247 134.575C157.488 134.588 150.729 134.643 143.97 134.658C143.968 135.666 143.968 136.673 143.968 137.683C144.357 137.685 144.755 137.726 145.088 137.95C144.981 138.253 144.876 138.561 144.726 138.847C143.103 141.981 141.494 145.122 139.877 148.258C139.273 147.09 138.673 145.918 138.072 144.748C139.246 142.578 140.435 140.414 141.597 138.235C141.86 137.648 142.578 137.706 143.115 137.691C143.115 136.68 143.113 135.669 143.117 134.658C140.165 134.656 137.214 134.658 134.265 134.658C134.042 135.071 133.82 135.483 133.599 135.898C133.375 135.483 133.153 135.069 132.931 134.656C129.978 134.658 127.025 134.656 124.072 134.658C124.07 135.669 124.072 136.682 124.07 137.695C124.622 137.699 125.353 137.653 125.613 138.261C126.769 140.43 127.947 142.586 129.115 144.748C128.515 145.916 127.927 147.09 127.315 148.251C126.308 146.296 125.302 144.341 124.297 142.385C123.571 140.903 122.713 139.48 122.089 137.95C122.395 137.639 122.833 137.708 123.23 137.695C123.227 136.682 123.229 135.669 123.229 134.658C118.912 134.641 114.596 134.59 110.281 134.574C110.533 135.616 110.785 136.659 111.04 137.703C111.602 137.741 112.257 137.577 112.744 137.94C113.163 138.383 113.41 138.956 113.703 139.485C116.903 145.618 120.108 151.749 123.309 157.881C122.84 158.108 122.4 158.394 121.919 158.594C121.429 158.77 121.198 158.202 120.992 157.877C116.371 149.256 111.766 140.626 107.147 132.004C102.652 140.387 98.1925 148.788 93.7294 157.187ZM97.5354 140.083C97.0923 140.081 96.651 140.081 96.2096 140.083C96.2113 142.546 96.2063 145.01 96.2113 147.474C98.4955 143.205 100.768 138.931 103.044 134.658H98.68C98.2979 136.466 97.9191 138.274 97.5354 140.083ZM82.7874 140.081C82.7857 140.873 82.7857 141.665 82.7874 142.459C83.1003 142.457 83.4165 142.457 83.7327 142.459V140.083C83.4165 140.081 83.1019 140.081 82.7874 140.081ZM174.66 140.519C172.554 142.632 170.442 144.74 168.333 146.85C170.52 149.033 172.702 151.221 174.889 153.403C174.846 152.136 174.795 150.868 174.795 149.6C175.521 149.554 176.251 149.516 176.981 149.514C175.158 146.851 174.614 143.447 175.26 140.308C175.034 140.316 174.797 140.311 174.66 140.519ZM82.7857 153.977C82.7874 155.152 82.7857 156.324 82.7857 157.498C83.1003 157.495 83.4165 157.495 83.7327 157.497V153.977C83.4165 153.976 83.1003 153.976 82.7857 153.977ZM144.248 85.9226C144.877 85.72 145.584 85.5404 146.221 85.8221C147.382 86.2668 148.005 87.6716 147.657 88.8458C147.292 89.926 146.091 90.621 144.974 90.4878C144.23 90.3808 143.621 89.8552 143.288 89.1981C142.814 89.1818 142.338 89.1703 141.87 89.096L142.021 89.1026C142.59 89.1207 143.235 89.2212 143.726 88.8574C144.61 88.304 144.864 87.0557 144.358 86.1629L144.248 85.9226ZM29.8809 126.856C30.1954 126.855 30.5116 126.855 30.8262 126.855C30.8262 128.156 30.8262 129.455 30.8278 130.756C30.5116 130.755 30.1954 130.755 29.8792 130.756C29.8809 129.455 29.8792 128.156 29.8809 126.856ZM80.6892 126.644C80.8572 127.571 81.0021 128.5 81.1602 129.429C80.8786 129.427 80.597 129.427 80.317 129.429C80.4405 128.5 80.5624 127.571 80.6892 126.644ZM150.444 126.855C150.788 126.855 151.135 126.855 151.483 126.856C151.481 128.156 151.483 129.455 151.483 130.756C151.134 130.755 150.788 130.755 150.444 130.756C150.444 129.455 150.442 128.154 150.444 126.855ZM169.846 126.855H170.895C170.894 127.299 170.894 127.746 170.895 128.192C170.543 128.192 170.194 128.192 169.846 128.194C169.845 127.746 169.845 127.299 169.846 126.855ZM47.585 137.704C48.1499 137.726 48.751 137.62 49.2896 137.839C49.6058 137.978 49.5547 138.368 49.5728 138.651C49.5663 145.463 49.5778 152.273 49.5663 159.085C49.5333 159.356 49.5959 159.786 49.2286 159.84C48.6835 159.91 48.1318 159.863 47.585 159.875V154.542C46.5821 154.542 45.5808 154.545 44.5794 154.541C44.4032 154.799 44.2418 155.15 43.8696 155.107C41.7155 155.138 39.5597 155.111 37.4039 155.12C37.4055 154.261 37.4039 153.403 37.4055 152.546C39.4872 152.555 41.5689 152.531 43.6506 152.558C43.9355 152.587 44.3489 152.533 44.4773 152.864C44.535 153.134 44.5251 153.412 44.5432 153.691C45.5561 153.686 46.5705 153.689 47.5834 153.689C47.585 150.423 47.585 147.156 47.5834 143.89C46.5738 143.889 45.5659 143.894 44.5564 143.887C44.5185 144.343 44.5004 145.101 43.868 145.101C41.7155 145.157 39.5597 145.109 37.4055 145.125C37.4039 144.236 37.4055 143.347 37.4039 142.459C39.6157 142.484 41.8308 142.408 44.0393 142.5C44.3703 142.482 44.4757 142.802 44.5992 143.044C45.5939 143.027 46.5887 143.039 47.585 143.035V137.704ZM161.897 137.948C162.305 137.545 162.961 137.762 163.478 137.701C162.91 138.276 162.336 138.847 161.763 139.417C161.783 138.928 161.712 138.412 161.897 137.948ZM16.0881 140.927C16.6645 140.978 17.2705 141.025 17.7679 141.356C19.1217 142.051 19.2929 144.122 18.2257 145.144C17.6592 145.707 16.8638 145.871 16.0947 145.914C16.0782 144.252 16.0897 142.589 16.0881 140.927ZM57.8599 141.884C59.492 141.86 61.1619 142.258 62.4696 143.273C64.4014 144.684 65.49 147.163 65.2034 149.541C65.0552 151.477 63.9913 153.305 62.4251 154.445C61.124 155.433 59.4722 155.838 57.8566 155.797C57.8599 151.159 57.8517 146.522 57.8599 141.884ZM60.3286 144.748C60.3253 147.476 60.3269 150.203 60.3286 152.932C60.8144 152.624 61.2986 152.297 61.6741 151.855C62.9257 150.618 63.2057 148.595 62.5107 147.008C62.0875 146.019 61.2558 145.26 60.3286 144.748ZM22.2722 151.316C23.8796 150.251 25.1707 148.739 25.9645 146.981C25.9728 149.666 25.9662 152.35 25.9678 155.035C27.0153 154.781 28.061 154.526 29.1068 154.276C29.1068 156.122 29.1101 157.968 29.1052 159.814C28.8235 159.814 28.4711 159.975 28.2471 159.735C27.7646 159.266 27.4155 158.683 27.0136 158.147C25.4293 155.873 23.8548 153.592 22.2722 151.316ZM105.445 152.166C106.012 151.033 106.582 149.9 107.145 148.765C107.716 149.896 108.28 151.031 108.848 152.166H105.445Z" fill="black"/>
<path d="M158.46 89.5804C159.835 88.1178 161.471 86.7607 163.478 86.3179C164.017 87.0672 164.552 87.8198 165.084 88.5756C165.222 88.7403 165.331 88.9743 165.563 89.027C170.022 90.2357 174.468 91.6767 178.51 93.948C179.957 94.7877 181.383 95.7495 182.426 97.0804C183.556 98.5576 183.893 100.463 183.944 102.28C183.961 106.229 183.04 110.124 181.749 113.837C181.912 109.954 181.517 106.061 180.819 102.243C180.598 100.903 179.893 99.7037 179.025 98.6795C177.918 97.3437 176.629 96.1695 175.278 95.0858C173.063 96.9025 171.581 99.4715 170.814 102.209C169.315 100.588 167.242 99.582 165.092 99.167C162.311 98.625 159.467 98.9807 156.673 99.2475C151.694 99.8126 146.737 100.615 141.859 101.758C139.438 102.357 136.987 102.951 134.739 104.058C142.623 103.185 150.537 102.299 158.483 102.365C161.108 102.418 163.758 102.533 166.319 103.162C167.508 105.055 169.392 106.636 171.642 107.018C173.197 107.304 174.781 106.957 176.239 106.407C173.806 108.692 170.558 109.837 167.367 110.593C165 111.196 162.528 111.219 160.115 110.919C156.053 110.404 151.966 110.088 147.92 109.452C142.648 108.656 137.246 108.167 131.955 109.089C130.123 109.389 128.325 109.854 126.553 110.402C127.786 108.067 129.237 105.852 130.84 103.755C132.211 102.072 133.656 100.384 135.533 99.2459C137.725 97.9977 140.235 97.5035 142.701 97.1166C147.055 96.4578 151.574 95.8485 155.458 93.6301C156.359 92.2121 157.294 90.8007 158.46 89.5804Z" fill="#B4B5B9"/>
<path d="M45.2288 135.746C45.7591 135.34 45.8513 134.635 46.0357 134.035C46.0571 134.602 46.0571 135.168 46.0637 135.736C45.7393 136.039 45.4214 136.374 44.9982 136.535C44.2686 136.825 43.4649 136.743 42.6975 136.754C38.8371 136.756 34.9752 136.743 31.1148 136.761C31.1132 140.221 31.1329 143.681 31.1049 147.141C30.1646 147.12 29.099 147.116 28.4073 146.372C29.1402 146.514 29.8862 146.571 30.6323 146.558C30.629 143.108 30.6339 139.658 30.629 136.207C34.7676 136.183 38.9047 136.224 43.0417 136.204C43.7795 136.163 44.6029 136.207 45.2288 135.746ZM106.977 135.572C107.21 135.051 107.539 135.824 107.295 136.066C103.361 143.622 99.3144 151.122 95.3092 158.643C94.8118 159.616 94.0806 160.68 92.8751 160.738C92.8619 160.549 92.8504 160.361 92.8405 160.176C93.9143 160.107 94.4923 159.126 94.9255 158.269C98.9406 150.703 102.949 143.131 106.977 135.572ZM184.983 135.885C187.291 135.572 189.812 135.708 191.825 136.99C190.043 136.486 188.182 136.173 186.326 136.328C184.695 136.4 183.022 136.835 181.723 137.858C180.459 138.841 179.735 140.386 179.54 141.952C179.303 144.02 179.712 146.206 180.902 147.938C179.605 146.692 178.931 144.885 178.929 143.1C178.842 141.369 179.387 139.603 180.491 138.259C181.606 136.917 183.282 136.151 184.983 135.885ZM7.19524 136.112C9.69853 136.074 12.2018 136.104 14.7051 136.094C16.2565 136.115 17.8326 135.99 19.3576 136.346C20.5779 136.655 21.7604 137.235 22.6448 138.146C21.8922 137.627 21.0951 137.151 20.2074 136.907C19.0183 136.524 17.7535 136.566 16.5216 136.581C14.104 136.601 11.688 136.637 9.27198 136.657C8.53581 136.695 7.88529 136.3 7.19524 136.112ZM48.9079 136.11C51.342 136.079 53.7776 136.062 56.2118 136.038C57.75 135.988 59.2981 135.942 60.8247 136.161C63.3593 136.54 65.7572 137.734 67.61 139.498C66.0322 138.274 64.2338 137.296 62.2674 136.881C60.5003 136.45 58.6722 136.598 56.8738 136.593C54.9502 136.622 53.0268 136.634 51.1032 136.657C50.3259 136.715 49.6424 136.283 48.9079 136.11ZM71.9463 136.109C75.1775 136.086 78.4087 136.084 81.6399 136.109C80.9037 136.291 80.217 136.715 79.4364 136.659C77.6775 136.649 75.9169 136.647 74.1564 136.66C73.3741 136.716 72.6907 136.268 71.9463 136.109ZM84.7921 136.113C88.0217 136.077 91.2512 136.09 94.4808 136.107C93.7364 136.252 93.0546 136.678 92.2822 136.659C90.4656 136.647 88.6508 136.65 86.8359 136.657C86.1145 136.675 85.4805 136.27 84.7921 136.113ZM112.168 136.115C114.654 136.069 117.139 136.105 119.622 136.095C120.459 136.099 121.297 136.061 122.131 136.148C121.712 136.387 121.287 136.701 120.778 136.655C118.636 136.654 116.492 136.645 114.349 136.659C113.582 136.685 112.911 136.243 112.168 136.115ZM145.047 136.125C150.82 136.066 156.596 136.092 162.37 136.112C161.676 136.303 161.021 136.698 160.282 136.659C158.416 136.644 156.548 136.657 154.682 136.654C154.374 136.673 154.104 136.527 153.835 136.407C153.718 136.486 153.603 136.566 153.491 136.649C151.146 136.655 148.802 136.649 146.459 136.655C145.927 136.701 145.457 136.425 145.047 136.125ZM167.212 136.237C169.578 136.191 171.948 136.159 174.315 136.115C173.812 136.282 173.338 136.547 172.814 136.639C171.001 136.703 169.173 136.65 167.368 136.8C166.588 137.457 165.921 138.243 165.186 138.951C163.719 140.389 162.284 141.861 160.82 143.304C160.853 142.988 160.743 142.597 161.019 142.367C162.439 140.922 163.887 139.508 165.311 138.067C165.955 137.469 166.508 136.764 167.212 136.237ZM125.219 136.141C127.513 136.107 129.805 136.222 132.099 136.216C132.136 136.351 132.208 136.621 132.244 136.754C131.004 136.734 129.762 136.729 128.522 136.677C127.404 136.621 126.184 136.861 125.219 136.141ZM135.191 136.214C137.452 136.234 139.711 136.104 141.972 136.138C141.52 136.377 141.06 136.655 140.533 136.672C138.921 136.762 137.307 136.738 135.693 136.754C135.176 137.764 134.695 138.793 134.155 139.791C134 139.537 133.845 139.284 133.693 139.033C134.216 138.104 134.719 137.167 135.191 136.214ZM73.8879 137.023C74.6011 137.698 74.7098 138.709 74.7048 139.638C74.7015 146.173 74.7114 152.708 74.6982 159.241C74.7196 160.082 74.3985 160.901 73.7891 161.486C73.1765 161.479 72.5638 161.481 71.9528 161.466C72.5853 161.309 73.3313 161.222 73.7315 160.641C74.1218 160.038 74.1004 159.285 74.1185 158.595C74.1169 152.611 74.1185 146.626 74.1185 140.641C74.1021 139.432 74.2124 138.203 73.8879 137.023ZM9.14517 137.085C9.71994 137.681 9.89945 138.513 9.88463 139.32C9.89451 145.855 9.88627 152.39 9.88792 158.925C9.91427 159.87 9.60795 160.835 8.89978 161.489C8.32501 161.481 7.7486 161.479 7.17383 161.461C7.81941 161.313 8.58028 161.202 8.96895 160.596C9.27692 160.036 9.31151 159.378 9.33456 158.753C9.33786 152.164 9.33127 145.575 9.33786 138.986C9.34609 138.347 9.23739 137.714 9.14517 137.085ZM50.8315 137.074C51.7653 137.876 51.6714 139.19 51.6681 140.305C51.6648 146.454 51.6648 152.604 51.6681 158.753C51.6665 159.546 51.5677 160.387 51.0802 161.043C50.6256 161.804 49.6177 161.382 48.9013 161.466C49.5733 161.318 50.3753 161.209 50.7607 160.56C51.1625 159.809 51.0538 158.923 51.1115 158.103C51.123 152.611 51.1345 147.118 51.1148 141.624C51.0884 140.107 51.2646 138.553 50.8315 137.074ZM86.7255 137.1C87.7697 138.031 87.5095 139.546 87.5523 140.796C87.549 142.841 87.5539 144.888 87.549 146.934C85.0144 146.938 82.4782 146.934 79.9436 146.937C79.9453 146.792 79.9453 146.502 79.9469 146.357C82.2855 146.361 84.6241 146.357 86.9627 146.359C86.9643 143.846 86.9643 141.334 86.9643 138.823C86.9808 138.238 86.8589 137.665 86.7255 137.1ZM114.137 137.149C114.917 137.602 115.411 138.378 115.82 139.159C119.739 146.619 123.698 154.058 127.607 161.527C127.508 161.729 127.411 161.934 127.317 162.139C122.91 153.816 118.575 145.455 114.137 137.149ZM154.7 137.102C155.426 137.739 155.51 138.744 155.478 139.648C155.473 145.853 155.474 152.059 155.478 158.266C155.466 158.951 155.525 159.661 155.3 160.323C155.145 160.784 154.799 161.138 154.476 161.487C153.911 161.479 153.349 161.479 152.788 161.463C153.427 161.298 154.178 161.202 154.594 160.624C154.976 160.027 154.988 159.285 155.001 158.602C155.001 152.064 155.003 145.527 154.999 138.989C155.013 138.345 154.887 137.714 154.7 137.102ZM126.791 137.162C127.35 137.502 127.819 137.974 128.112 138.562C129.217 140.621 130.306 142.688 131.404 144.75C130.235 147.059 129.064 149.368 127.895 151.677C127.794 151.459 127.692 151.242 127.595 151.028C128.682 148.938 129.766 146.848 130.834 144.75C129.5 142.214 128.028 139.75 126.791 137.162ZM146.554 137.135C146.765 137.451 147.137 137.744 147.098 138.169C147.075 138.732 146.768 139.223 146.529 139.717C144.492 143.712 142.481 147.721 140.421 151.706C140.307 151.413 140.133 151.094 140.342 150.801C142.345 146.871 144.344 142.94 146.322 138.999C146.651 138.431 146.615 137.762 146.554 137.135ZM19.6475 140.954C20.2058 141.565 20.7443 142.258 20.8612 143.105C21.1988 145.061 19.822 147.021 18.0137 147.691C17.0964 148.053 16.0934 147.973 15.1284 147.971C15.13 147.836 15.1349 147.563 15.1366 147.426C16.1807 147.434 17.2891 147.489 18.241 146.98C19.6689 146.286 20.5796 144.674 20.4264 143.091C20.405 142.311 20.018 141.616 19.6475 140.954ZM64.9173 143.401C66.2743 144.735 67.1702 146.552 67.3086 148.459C67.577 150.646 66.6943 152.841 65.2845 154.485C63.7299 156.326 61.4374 157.561 59.023 157.726C58.3182 157.8 57.61 157.798 56.9035 157.774C56.9051 157.66 56.9101 157.434 56.9133 157.321C58.8765 157.4 60.94 157.195 62.638 156.122C64.9502 154.752 66.5543 152.225 66.7404 149.537C66.9496 147.35 66.2233 145.147 64.9173 143.401ZM27.4653 144.557C27.6119 145.236 28.0401 145.848 27.9841 146.565C27.9709 148.103 27.9775 149.643 27.9808 151.181C28.0022 151.835 27.5987 152.392 27.4768 153.017C27.5015 150.198 27.5246 147.377 27.4653 144.557ZM189.05 147.625C187.669 146.716 186.024 146.058 185.117 144.597C186.843 145.842 188.733 146.83 190.515 147.989C191.153 148.404 191.716 148.92 192.258 149.45C191.23 148.768 190.074 148.314 189.05 147.625ZM44.9027 146.278C45.4346 146.043 45.7031 145.491 46.0226 145.041C46.0407 145.39 46.0571 145.745 46.0736 146.097C45.3852 146.744 44.4695 147.108 43.5242 147.113C41.1724 147.134 38.8207 147.111 36.4689 147.123C36.4672 146.981 36.4639 146.696 36.4623 146.555C38.488 146.606 40.5137 146.558 42.5394 146.58C43.3315 146.565 44.1599 146.601 44.9027 146.278ZM107.598 146.22C107.366 145.899 107.593 145.545 107.694 145.224C109.207 148.225 110.676 151.248 112.183 154.253C109.308 154.251 106.431 154.262 103.555 154.244C103.687 154.075 103.7 153.697 103.975 153.712C106.429 153.683 108.883 153.714 111.337 153.699C110.098 151.202 108.845 148.712 107.598 146.22ZM134.15 150.171C136.116 153.861 138.013 157.589 139.996 161.272C140.194 161.507 140.167 161.961 139.818 162.021C137.814 158.261 135.9 154.452 133.914 150.682C133.992 150.511 134.069 150.339 134.15 150.171ZM86.9577 150.773C87.1554 150.768 87.3547 150.763 87.5556 150.763C87.544 153.536 87.5572 156.311 87.549 159.085C87.5589 159.961 87.2707 160.901 86.5394 161.438C85.963 161.538 85.3718 161.466 84.7904 161.468C85.3932 161.316 86.0865 161.238 86.5098 160.731C86.9429 160.171 86.9429 159.422 86.9627 158.748C86.9627 156.089 86.9709 153.431 86.9577 150.773ZM30.6306 151.53C30.7525 151.529 30.9995 151.524 31.1214 151.522C31.1115 155.852 31.1198 160.18 31.1181 164.509C31.1708 164.859 30.8398 165.064 30.6504 165.305C30.6059 160.713 30.6438 156.122 30.6306 151.53ZM15.1333 151.953C17.3583 155.059 19.4515 158.259 21.6698 161.372C21.4492 161.369 21.2285 161.367 21.0078 161.367C19.1336 158.63 17.2529 155.896 15.3622 153.172C15.0707 152.828 15.1349 152.367 15.1333 151.953ZM188.122 152.983C188.546 153.381 189.069 153.763 189.193 154.371C189.308 155.01 189.255 155.703 188.931 156.278C188.414 157.256 187.38 157.872 186.314 158.075C184.376 158.399 182.292 157.69 181.014 156.183C182.327 157.298 184.101 157.806 185.807 157.663C187.004 157.546 188.284 156.873 188.666 155.662C188.961 154.733 188.631 153.767 188.122 152.983ZM178.817 157.275C178.824 155.942 178.738 154.608 178.852 153.279C179.293 153.594 179.4 154.129 179.363 154.639C179.341 156.326 179.384 158.012 179.335 159.699C178.659 159.063 178.86 158.103 178.817 157.275ZM44.7182 156.471C45.1925 156.28 45.5515 155.883 46.0423 155.722C46.0489 155.865 46.0588 156.148 46.0637 156.291C45.4181 156.874 44.5683 157.197 43.6971 157.192C41.2894 157.215 38.88 157.186 36.4722 157.207C36.4672 157.021 36.4623 156.837 36.459 156.654C38.5934 156.662 40.7278 156.65 42.8638 156.66C43.4847 156.659 44.1187 156.65 44.7182 156.471ZM113.827 158.834C114.041 158.831 114.257 158.829 114.474 158.831C114.889 159.72 115.339 160.593 115.739 161.491C116.045 162.141 115.961 162.879 115.917 163.577C115.388 163.87 114.853 164.157 114.3 164.404C114.808 163.963 115.456 163.475 115.41 162.721C115.299 161.286 114.398 160.107 113.827 158.834ZM121.457 160.652C121.213 160.43 120.973 160.211 120.726 159.997C121.319 160.272 121.969 160.191 122.593 160.106C122.211 160.283 121.833 160.466 121.457 160.652ZM27.6184 161.283C27.7881 161.16 28.1965 161.295 28.1405 161.537C27.9709 161.677 27.569 161.515 27.6184 161.283ZM80.3323 161.258C80.7687 161.295 81.2002 161.374 81.6267 161.484C81.1837 161.496 80.7127 161.523 80.3323 161.258ZM161.289 161.293C161.553 161.188 161.864 161.295 162.126 161.384C162.363 161.542 161.914 161.573 161.831 161.543C161.663 161.507 161.281 161.523 161.289 161.293Z" fill="#E4A4A9"/>
<path d="M111.606 135.618C115.227 135.614 118.847 135.614 122.469 135.618C122.465 135.964 122.465 136.311 122.465 136.66C122.063 136.804 121.599 136.893 121.337 137.265C120.944 137.668 121.08 138.299 121.326 138.747C123.327 142.672 125.311 146.606 127.317 150.529C128.315 148.612 129.275 146.675 130.258 144.75C129.199 142.756 128.139 140.763 127.082 138.767C126.772 138.205 126.508 137.597 126.039 137.149C125.739 136.861 125.323 136.772 124.942 136.654C124.941 136.31 124.941 135.965 124.942 135.624C127.424 135.657 129.908 135.651 132.391 135.728C132.78 136.545 133.192 137.352 133.6 138.159C134.015 137.352 134.422 136.54 134.82 135.723C137.299 135.657 139.777 135.654 142.256 135.624C142.258 135.964 142.259 136.305 142.263 136.647C141.388 136.779 140.761 137.439 140.412 138.215C139.252 140.394 138.089 142.571 136.93 144.75C137.912 146.68 138.893 148.61 139.878 150.539C141.862 146.639 143.844 142.737 145.825 138.836C146.037 138.414 146.214 137.905 146.019 137.444C145.747 136.968 145.206 136.805 144.72 136.649C144.721 136.303 144.723 135.959 144.726 135.616C150.818 135.616 156.911 135.614 163.001 135.618C162.94 135.952 162.882 136.288 162.828 136.627C162.207 136.716 161.491 136.767 161.054 137.278C160.751 137.726 160.741 138.294 160.725 138.816C160.718 139.837 160.725 140.858 160.727 141.881C162.792 139.837 164.827 137.764 166.889 135.717C169.557 135.667 172.227 135.647 174.896 135.624C174.834 135.955 174.775 136.288 174.717 136.622C173.367 136.631 172.527 137.797 171.659 138.656C168.946 141.362 166.214 144.05 163.488 146.744C165.845 149.134 168.215 151.514 170.577 153.9C172.645 155.955 174.653 158.073 176.769 160.081C177.293 160.613 177.979 160.946 178.73 160.992C178.78 161.319 178.829 161.647 178.884 161.976C176.202 161.958 173.523 161.915 170.842 161.902C170.565 161.883 170.239 161.935 170.046 161.695C166.932 158.628 163.842 155.539 160.727 152.474C160.725 154.616 160.718 156.761 160.727 158.903C160.756 159.421 160.758 160.004 161.095 160.43C161.543 160.894 162.227 160.883 162.823 160.96C162.879 161.296 162.938 161.634 163.001 161.973C159.419 161.978 155.835 161.976 152.253 161.975C152.307 161.635 152.361 161.296 152.421 160.96C152.987 160.87 153.643 160.888 154.078 160.448C154.417 160.02 154.404 159.439 154.428 158.921C154.427 152.167 154.432 145.415 154.425 138.663C154.445 138.054 154.329 137.423 153.872 136.986C153.341 137.553 153.037 138.273 152.674 138.946C148.409 147.036 144.152 155.13 139.878 163.217C137.777 159.229 135.7 155.231 133.6 151.242C131.499 155.229 129.423 159.229 127.32 163.215C123.065 155.176 118.834 147.126 114.586 139.085C114.251 138.48 114.002 137.823 113.582 137.271C113.177 136.758 112.474 136.723 111.882 136.627C111.792 136.29 111.698 135.952 111.606 135.618ZM56.9137 140.85C56.9104 146.145 56.912 151.438 56.9137 156.733C58.6479 156.78 60.4677 156.71 62.0207 155.847C64.0085 154.855 65.4957 152.963 66.0491 150.819C66.5563 148.81 66.2763 146.596 65.2207 144.804C64.2045 143.016 62.4522 141.654 60.4562 141.142C59.305 140.834 58.0978 140.842 56.9137 140.85ZM48.3385 135.618C50.4679 135.593 52.5957 135.58 54.725 135.555C56.7638 135.565 58.8142 135.394 60.8432 135.674C63.5293 136.069 66.0853 137.313 68.0484 139.19C70.3096 141.328 71.8181 144.275 72.1294 147.38C72.4637 150.213 71.833 153.156 70.3475 155.593C68.6215 158.506 65.7296 160.692 62.4654 161.581C61.1281 161.965 59.7299 162.079 58.3448 162.074C55.0082 162.052 51.6734 162 48.3368 161.972C48.3961 161.632 48.4554 161.295 48.5163 160.959C49.1207 160.885 49.8256 160.888 50.2736 160.407C50.6392 159.878 50.5832 159.198 50.6243 158.589C50.6293 152.115 50.6243 145.641 50.626 139.167C50.5947 138.544 50.6491 137.867 50.3147 137.313C49.8865 136.767 49.1388 136.721 48.5064 136.626C48.4488 136.29 48.3928 135.952 48.3385 135.618ZM27.6188 161.283C27.5694 161.515 27.9712 161.677 28.1409 161.537C28.1969 161.295 27.7884 161.16 27.6188 161.283ZM15.1386 139.901C15.1369 142.247 15.1353 144.592 15.1402 146.937C16.0197 146.927 16.9502 147.034 17.7736 146.652C18.8721 146.189 19.661 145.114 19.8355 143.943C20.0661 142.54 19.3398 141.053 18.1096 140.349C17.2153 139.811 16.1383 139.896 15.1386 139.901ZM6.56152 135.619C10.1551 135.614 13.7486 135.611 17.3405 135.621C19.2114 135.629 21.1086 136.191 22.5727 137.38C24.3316 138.74 25.4712 140.881 25.5569 143.109C25.8237 146.389 23.765 149.626 20.771 150.927C22.8675 153.969 25.0266 156.968 27.156 159.987C27.5068 160.555 28.0849 160.912 28.7469 160.995C28.7453 161.319 28.7436 161.645 28.7436 161.975C26.2585 161.958 23.7733 161.919 21.2865 161.899C21.0757 161.856 20.7693 161.948 20.6392 161.726C18.7996 159.076 17.0095 156.39 15.1485 153.755C15.1238 155.363 15.1435 156.972 15.1369 158.579C15.1485 159.169 15.1353 159.804 15.4334 160.335C15.8319 160.866 16.55 160.873 17.1478 160.962C17.2071 161.298 17.2631 161.635 17.3191 161.975C13.7338 161.975 10.1485 161.98 6.56317 161.972C6.62575 161.632 6.68998 161.295 6.74927 160.959C7.34215 160.881 8.03056 160.898 8.47193 160.425C8.83589 159.954 8.81778 159.318 8.84248 158.755V138.829C8.82272 138.273 8.82272 137.647 8.44393 137.201C7.99597 136.754 7.33227 136.72 6.74598 136.624C6.68669 136.288 6.62427 135.952 6.56152 135.619ZM181.925 136.433C183.203 135.702 184.673 135.348 186.138 135.288C188.373 135.153 190.741 135.529 192.599 136.853C192.601 138.758 192.601 140.662 192.599 142.568C192.245 142.63 191.893 142.69 191.54 142.746C191.206 141.869 190.628 141.09 189.822 140.598C188.749 139.976 187.42 139.86 186.235 140.204C185.664 140.41 185.068 140.69 184.742 141.23C184.16 142.072 184.416 143.287 185.158 143.95C185.806 144.542 186.608 144.926 187.345 145.392C188.528 146.123 189.743 146.8 190.896 147.581C192.459 148.655 193.828 150.152 194.34 152.018C194.839 153.88 194.842 155.947 194.017 157.721C192.757 160.428 189.921 162.191 186.99 162.467C185.028 162.658 182.996 162.4 181.204 161.557C180.092 161.036 179.132 160.244 178.325 159.328C178.315 157.194 178.32 155.061 178.322 152.927C178.671 152.899 179.019 152.872 179.371 152.849C179.75 153.903 180.318 154.913 181.174 155.654C182.555 156.869 184.524 157.34 186.318 156.978C186.934 156.79 187.599 156.502 187.935 155.916C188.424 155.107 188.192 154.027 187.625 153.319C186.983 152.555 186.069 152.112 185.239 151.593C184.086 150.885 182.899 150.232 181.794 149.452C180.447 148.488 179.304 147.163 178.814 145.559C178.281 143.831 178.291 141.929 178.852 140.211C179.384 138.64 180.486 137.265 181.925 136.433ZM103.824 153.215C106.069 153.216 108.313 153.218 110.56 153.213C109.425 150.967 108.29 148.722 107.139 146.484C106.041 148.73 104.922 150.967 103.824 153.215ZM94.3362 158.192C98.6033 150.191 102.864 142.184 107.147 134.193C110.993 141.324 114.819 148.464 118.658 155.6C119.335 156.79 119.901 158.048 120.642 159.2C121.156 159.97 122.19 159.654 122.885 159.343C123.091 159.621 123.3 159.898 123.509 160.178C120.333 161.845 117.174 163.549 113.992 165.211C113.9 164.862 113.808 164.516 113.722 164.168C114.178 163.824 114.743 163.5 114.888 162.9C114.962 162.227 114.633 161.611 114.369 161.018C114.018 160.323 113.689 159.618 113.325 158.931C113.236 158.656 112.907 158.752 112.699 158.725C108.839 158.742 104.978 158.709 101.12 158.742C100.736 159.259 100.555 159.895 100.262 160.465C99.9324 161.249 99.4383 162.023 99.4745 162.905C99.6195 163.508 100.151 163.885 100.66 164.177C100.542 164.519 100.422 164.864 100.301 165.208C98.4057 164.203 96.5381 163.147 94.6524 162.126C94.435 161.988 94.1781 161.965 93.9294 161.973C90.7542 161.978 87.579 161.975 84.4021 161.975C84.4005 161.635 84.3988 161.296 84.3955 160.959C85.0065 160.878 85.7361 160.891 86.1676 160.374C86.5068 159.847 86.4739 159.19 86.4887 158.59C86.4838 155.939 86.4953 153.287 86.4821 150.637C84.3017 150.636 82.1211 150.637 79.9407 150.636C79.9275 153.289 79.9357 155.944 79.9357 158.599C79.9588 159.197 79.9225 159.854 80.2635 160.379C80.6702 160.87 81.3586 160.866 81.9367 160.964C81.9351 161.298 81.9351 161.634 81.9367 161.973C78.4403 161.978 74.9456 161.978 71.4509 161.972C71.5168 161.632 71.5826 161.298 71.6469 160.962C72.1953 160.873 72.8145 160.868 73.246 160.466C73.6429 159.993 73.6248 159.33 73.6413 158.748V138.831C73.6264 138.289 73.6297 137.686 73.2822 137.238C72.8606 136.787 72.215 136.733 71.6436 136.627C71.581 136.29 71.5151 135.952 71.4509 135.618C74.9456 135.616 78.442 135.609 81.9383 135.621C81.9351 135.954 81.9351 136.29 81.9367 136.624C81.3669 136.731 80.7213 136.789 80.303 137.238C79.9522 137.683 79.9604 138.282 79.9374 138.823C79.9291 141.176 79.9357 143.529 79.9357 145.883C82.1195 145.88 84.3033 145.881 86.4887 145.883C86.4871 143.528 86.4904 141.173 86.4871 138.818C86.4739 138.284 86.4739 137.691 86.1346 137.247C85.69 136.766 84.9999 136.718 84.3922 136.629C84.3972 136.29 84.4005 135.952 84.4038 135.614C87.9281 135.619 91.4525 135.611 94.9752 135.618C94.911 135.951 94.8484 136.286 94.7908 136.622C94.1831 136.721 93.4485 136.759 93.0566 137.309C92.7404 137.866 92.8079 138.536 92.7799 139.154C92.7931 146.016 92.7535 152.879 92.7997 159.74C93.5721 159.554 94.0233 158.87 94.3362 158.192ZM45.5025 133.712C45.8763 133.617 46.2502 133.52 46.624 133.424C46.596 136.344 46.573 139.264 46.5367 142.184C46.1349 142.184 45.7331 142.184 45.3329 142.177C44.8849 141.646 44.185 141.52 43.5246 141.529C41.1695 141.499 38.8144 141.527 36.4594 141.515C36.4577 143.04 36.4495 144.565 36.4643 146.09H43.0255C43.6333 146.066 44.2904 146.067 44.8256 145.731C45.2093 145.499 45.3526 145.05 45.5124 144.659C45.8813 144.653 46.2518 144.651 46.6224 144.649C46.6257 147.383 46.6273 150.117 46.6224 152.851C46.2452 152.839 45.8697 152.825 45.4943 152.807C45.4004 152.077 44.768 151.55 44.04 151.556C41.5137 151.466 38.9824 151.538 36.4528 151.519C36.4626 153.068 36.4495 154.62 36.4594 156.171C38.8128 156.166 41.1645 156.178 43.518 156.166C44.1998 156.169 45.0167 156.034 45.3114 155.325C45.7182 155.313 46.1267 155.311 46.5351 155.31C46.5779 158.259 46.5927 161.209 46.6257 164.159C46.2502 164.101 45.8747 164.04 45.5025 163.977C45.4481 163.295 45.4201 162.352 44.6642 162.062C43.49 161.751 42.2548 161.901 41.0559 161.865C39.0812 161.897 37.0984 161.797 35.1287 161.914C33.4307 163.375 31.8283 164.952 30.16 166.453C30.1468 161.471 30.1633 156.489 30.1517 151.507C29.5934 151.556 28.9215 151.519 28.5131 151.975C28.1244 152.386 28.1293 152.981 28.0618 153.51C27.6847 153.607 27.3092 153.704 26.932 153.8C26.9271 150.468 26.9271 147.134 26.932 143.803C27.3075 143.895 27.683 143.989 28.0602 144.083C28.131 144.56 28.1096 145.099 28.4357 145.491C28.821 146.034 29.5605 145.995 30.1501 146.087C30.1633 142.629 30.1517 139.172 30.155 135.713C34.5572 135.708 38.9577 135.713 43.3582 135.712C43.9083 135.679 44.5292 135.7 44.9854 135.338C45.4218 134.916 45.4366 134.274 45.5025 133.712ZM150.922 118.169C152.809 118.027 154.703 117.732 156.59 117.688C159.824 119.332 163.53 119.956 167.136 119.687C170.328 119.518 173.437 118.658 176.422 117.546C176.603 118.808 176.787 120.069 176.983 121.329C162.016 121.328 147.05 121.346 132.083 121.319C138.312 119.989 144.593 118.9 150.922 118.169ZM141.444 85.5669C140.724 86.0033 140.435 86.9748 140.7 87.7571C140.874 88.3996 141.443 88.8343 142.022 89.1026L141.871 89.096C142.338 89.1703 142.814 89.1818 143.289 89.1981C143.621 89.8553 144.231 90.3808 144.975 90.4878C146.092 90.6211 147.292 89.9261 147.658 88.8459C148.005 87.6716 147.383 86.2668 146.222 85.8222C145.584 85.5404 144.878 85.7201 144.249 85.9226L144.359 86.1629C143.743 85.2342 142.368 84.9444 141.444 85.5669ZM139.078 82.6748C139.222 82.4969 139.479 82.6089 139.674 82.6171C141.326 82.9547 142.959 83.3862 144.586 83.8309C146.051 84.2675 147.541 84.7237 148.824 85.5799C150.158 86.448 151.528 87.2747 153.017 87.8544C152.818 89.6906 151.897 91.4299 150.476 92.6107C148.348 94.4404 145.281 95.0514 142.595 94.2806C140.555 93.709 138.699 92.3223 137.786 90.3808C137.149 89.1504 137.044 87.7194 137.192 86.3623C137.429 84.9789 138.116 83.6893 139.078 82.6748ZM132.77 76.8153C138.47 75.0383 144.733 74.9557 150.402 76.8976C153.247 77.8182 156.072 78.8673 158.673 80.3625C159.437 80.8452 160.277 81.2815 160.881 81.9618C159.542 84.1242 156.911 85.4401 154.376 85.2326C153.941 84.9262 153.633 84.475 153.229 84.1339C151.263 82.3867 148.898 81.158 146.475 80.1716C141.818 78.3518 136.828 77.5201 131.854 77.2286C132.151 77.0755 132.45 76.9189 132.77 76.8153ZM43.4801 46.769C44.3645 47.0294 45.2176 47.3835 46.0838 47.6946C54.669 50.7974 63.4387 53.4029 72.3583 55.3512C79.132 56.7741 85.9996 57.9103 92.9298 58.0948C94.9587 58.2992 97.0025 58.1607 99.0348 58.2992C112.014 58.854 125.049 60.6145 137.401 64.7731C141.854 66.2881 146.207 68.126 150.328 70.4006C154.224 72.5811 157.999 75.1008 161.074 78.3698C158.635 77.2797 156.066 76.5238 153.506 75.7761C148.394 74.3332 143.239 73.0521 138.07 71.8316C131.334 70.2342 124.577 68.7273 117.808 67.2779C116.349 67.0062 114.916 66.5977 113.444 66.4036C113.626 66.8795 114.097 67.1084 114.494 67.3719C116.032 68.3551 117.651 69.2016 119.275 70.0348C117.865 70.3971 116.413 70.478 114.978 70.6855C108.974 71.0378 102.851 69.3515 97.9199 65.8881C99.3527 69.2394 102.06 71.9421 105.224 73.6942C105.479 73.8047 105.606 74.0384 105.683 74.2955C100.482 75.9671 95.3721 78.0519 90.7311 80.962C91.4475 80.9589 92.1211 80.6787 92.8276 80.5898C94.0595 80.3345 95.3178 80.2934 96.5645 80.1682C98.6527 80.0249 100.741 80.2062 102.821 80.3806C105.647 80.6822 108.465 81.1349 111.214 81.8531C111.604 81.9272 111.194 82.3684 111.047 82.4986C107.726 85.7166 102.979 87.3801 98.3761 86.9371C97.4983 86.8908 96.6435 86.624 95.7608 86.6522C98.852 89.7895 102.966 91.7444 107.194 92.8248C108.134 93.0537 109.081 93.2563 110.046 93.3501C107.446 97.9532 104.99 102.642 102.627 107.373C103.417 107.227 104.178 106.963 104.962 106.786C110.033 105.601 115.318 105.509 120.468 106.17C120.367 106.459 120.234 106.741 120.016 106.963C116.25 111.293 111.418 114.562 106.345 117.176C103.269 118.757 100.066 120.084 96.7835 121.178C96.7868 121.23 96.7917 121.334 96.795 121.387C98.9294 122.118 101.233 122.28 103.467 122.011C105.856 121.84 108.216 121.356 110.522 120.71C111.49 120.468 112.421 120.091 113.399 119.885C112.103 121.041 110.708 122.085 109.288 123.085C91.8692 123.07 74.4499 123.081 57.0323 123.078C55.2931 123.065 53.5542 123.106 51.8151 123.054C53.5838 121.853 55.5122 120.914 57.4094 119.938C61.0688 118.119 64.855 116.566 68.7071 115.209C69.9077 114.826 71.0672 114.314 72.299 114.035C70.8827 114.093 69.4878 114.383 68.0731 114.48C63.9624 114.753 59.8089 114.513 55.7674 113.711C50.7297 112.772 45.8203 111.206 41.1003 109.221C36.1646 107.12 31.349 104.679 26.9007 101.667C28.4867 102.092 30.076 102.515 31.7064 102.729C34.3546 103.236 37.0605 103.154 39.7383 103.306C40.7808 103.227 41.8233 103.169 42.8691 103.161C49.9639 102.696 56.9779 101.278 63.778 99.2213C64.2078 99.0927 64.6426 98.9676 65.0379 98.752C63.1983 96.4544 60.4973 95.0858 57.9134 93.793C50.4448 90.3445 42.4178 88.35 34.4353 86.4873C38.7222 84.7038 43.3648 84.0038 47.9745 83.7321C53.3039 83.4159 58.6495 83.7551 63.9509 84.3153C66.9334 84.6282 69.8896 85.1338 72.8475 85.6064C71.5826 83.2052 69.6838 81.2323 67.7437 79.3696C63.8982 75.8154 59.5734 72.8279 55.1449 70.0514C51.2666 67.6287 47.263 65.4138 43.1952 63.3255C44.6889 63.3072 46.1678 63.5559 47.6566 63.6401C57.3551 64.615 66.9878 66.1252 76.604 67.6995C77.5708 67.7753 78.4996 68.0982 79.4729 68.1196C77.4934 67.8164 75.606 67.1447 73.7038 66.5468C68.7039 64.8174 63.9641 62.3981 59.4746 59.6066C54.9045 56.7196 50.5898 53.4275 46.5763 49.8059C45.5437 48.7949 44.3908 47.899 43.4801 46.769Z" fill="#C70D18"/>
</svg>
