<svg width="201" height="200" viewBox="0 0 201 200" fill="none" xmlns="http://www.w3.org/2000/svg">
<path d="M126.385 64.3478C125.983 65.6772 125.955 66.9413 126.124 68.1367C126.292 69.7546 127.494 70.6375 127.494 70.6375C127.992 69.2325 128.879 69.181 129.195 67.7794C129.555 65.4882 128.721 65.2787 128.697 63.9905C128.673 62.7023 128.934 61.1807 128.934 61.1807C128.934 61.1807 126.79 63.015 126.385 64.3478Z" fill="black"/>
<path d="M89.7329 66.8526C89.2588 68.6011 89.9527 70.2499 90.7496 71.0708C91.5431 71.9021 93.7347 73.0117 93.7347 73.0117C93.7347 73.0117 92.1787 71.4521 92.2164 69.2022C92.2405 67.5224 94.5626 66.6293 94.0198 64.345C93.4805 62.0607 91.8592 60.8859 91.8592 60.8859C91.8592 60.8859 92.4019 62.2221 92.1477 63.3007C91.7012 64.6301 90.2103 65.111 89.7329 66.8526Z" fill="black"/>
<path d="M116.857 76.3704C112.289 73.9843 113.095 68.3136 116.857 76.3704V76.3704ZM61.2981 96.6513L61.2745 96.8571L61.2981 96.6513ZM84.2755 82.7625C84.6568 77.5516 84.2514 73.8249 82.3965 69.8468C81.0671 66.5937 78.6076 63.5056 75.3305 61.7778C74.877 61.527 74.3515 61.3278 73.9015 60.9808C73.4515 59.1705 72.6511 57.3946 71.1224 56.0859C69.6179 54.8148 67.787 54.1381 65.8358 54.042C60.2951 54.413 56.1452 57.3053 52.8062 60.8263L52.5074 60.9225C50.1235 61.2282 47.9456 62.0526 45.991 63.406C41.1544 67.8201 35.7886 71.5713 29.7296 73.4744C29.678 73.5534 29.678 73.732 29.7296 73.8042C31.9864 75.5595 35.4421 75.508 38.1214 74.6835C41.7076 73.251 43.6554 72.5434 46.8331 70.0599C47.4583 69.6305 48.0697 68.7614 48.2415 68.8885C47.5751 70.0599 46.4037 72.2515 46.0087 74.364C45.6205 76.4801 43.4323 78.122 40.8045 79.8877C41.1583 80.2724 42.0961 79.7262 42.4121 79.6472C42.7247 79.5682 44.4491 79.0289 46.2835 77.8919C48.1212 76.7583 48.6228 76.1538 49.9006 74.979C52.9372 71.7843 55.2078 67.8718 56.4581 65.6012C59.6631 65.2645 65.4961 63.097 67.3646 64.2615L67.8833 64.5466C67.4952 65.1718 66.8562 66.508 66.8562 66.508L65.3585 69.9706C65.3585 69.9706 62.4593 69.6099 61.0956 69.0123C58.1105 67.7447 57.3822 66.2882 57.3822 66.2882C57.3822 66.2882 57.1555 68.2531 57.4097 69.1463C57.6674 70.0291 58.6498 71.2966 59.4433 71.8703C60.2368 72.4474 63.2562 74.0619 63.4417 74.7283C63.2081 75.3501 60.8482 83.7967 59.9723 88.1627C59.9483 88.2863 59.8692 88.5852 59.6734 88.4615C57.8426 86.1256 56.046 84.3222 52.7552 83.7966C49.4644 83.2848 45.9847 85.6791 43.632 88.6401C41.729 90.9656 40.7431 94.308 40.7259 95.0671C40.5817 98.7873 37.1569 99.4983 37.1569 99.4983C35.058 99.622 33.7252 97.9388 33.7252 97.9388C33.7252 97.9388 33.0313 101.656 36.3908 102.93C37.2015 103.16 39.1217 102.841 40.3927 100.501C41.0282 99.0346 41.1038 97.5403 41.2996 96.3999C41.4919 95.2561 41.9934 94.2324 42.7079 93.1469C44.5629 90.7629 47.3453 89.5607 50.3784 90.1137C54.3116 90.9656 56.9154 94.5484 59.5227 97.3789C59.6189 97.4545 59.6944 97.664 59.5467 97.7259C58.5918 97.6331 57.6677 97.403 56.6406 97.403C53.3842 97.3308 50.6292 98.5297 48.0976 100.216C44.2881 102.538 42.0072 106.654 41.5297 110.958C41.5846 111.088 41.5091 111.438 41.7564 111.339C43.735 106.973 48.1972 104.019 53.006 103.947C56.3896 103.771 59.3197 105.173 62.1503 106.53C62.2499 106.626 62.2739 106.753 62.1503 106.849C59.4194 107.625 56.6541 108.412 54.5107 110.559C52.3706 112.696 51.7008 115.588 51.6286 118.625C51.7282 118.923 51.505 119.504 51.9034 119.604C53.7068 115.773 57.5919 112.582 61.8757 112.263C62.4253 112.314 63.1535 112.136 63.6035 112.514L63.5554 112.613C61.1474 114.142 58.7428 116.608 57.6162 118.748C56.4894 120.895 54.9643 121.51 55.0364 121.582C57.8154 122.032 58.7428 121.939 61.3466 120.991C62.4287 120.545 64.2699 118.319 65.5408 118.071C65.8431 118.12 67.6362 117.56 68.653 118.006C69.3503 118.57 66.7465 121.369 66.2381 121.246C61.6008 121.18 60.9035 122.135 59.6359 123.973C58.3649 125.814 56.9394 127.669 54.6104 128.421C54.0849 128.7 53.4837 128.796 52.9788 129.102C52.9616 129.297 57.8154 129.225 59.7185 128.394C61.4498 127.82 62.7001 126.189 64.4795 125.866C64.4795 125.866 64.9054 127.721 61.7279 130.448C61.8069 130.623 65.1527 130.019 66.5576 128.738C77.4354 121.021 69.9808 126.747 68.0175 131.966C67.7873 133.663 66.4202 137.404 66.5988 137.634C66.7808 137.865 69.5701 135.391 71.1674 134.574C72.7648 133.746 72.3594 129.83 72.9743 128.823C75.6848 125.868 75.6351 129.41 74.4514 131.853C76.5121 130.8 79.1097 127.599 77.3815 133.114C76.5605 135.391 75.5574 136.903 75.5574 136.903C75.5574 136.903 78.1131 135.58 79.8513 133.062C81.5861 130.555 82.0429 129.136 82.1769 128.363C82.7883 129.191 82.5307 129.122 83.0494 130.555C83.6402 132.197 83.4582 133.712 83.4582 133.712C83.4582 133.712 84.4647 133.021 85.0142 131.063C85.4539 129.483 85.3681 129.267 85.3131 129.246C87.3157 129.15 86.8142 132.674 86.8142 132.674C86.8142 132.674 88.281 132.791 88.463 130.641C88.3359 129.878 96.7553 130.07 98.5929 132.447C100.438 134.831 100.943 134.804 101.925 135.312C102.911 135.814 104.721 135.725 106.298 136.12C107.768 136.357 110.568 137.621 111.643 138.328C113.141 140.091 109.221 146.325 107.589 148.417C107.555 148.465 107.514 148.517 107.483 148.554C107.596 148.493 107.713 148.438 107.826 148.365C110.403 146.957 113.996 143.934 114.436 138.771C114.456 138.5 116.088 138.575 116.342 138.895C117.376 139.846 117.579 142.227 118.307 143.663C119.042 145.088 122.501 146.229 124.164 145.109C124.164 145.109 125.675 144.298 125.26 143.254C124.593 143.697 124.184 143.755 123.36 143.834C122.532 143.907 122.247 143.632 121.581 143.213C120.914 142.797 120.815 142.673 120.378 141.887C119.935 141.09 119.959 139.152 120.529 138.582C121.103 138.008 122.597 137.562 124.116 137.754C125.644 137.947 125.562 139.035 125.562 139.035C125.562 139.035 126.008 140.653 124.676 141.121C125.716 141.749 126.737 141.041 126.737 141.041C126.737 141.041 127.139 141.591 126.634 143.367C128.379 143.411 128.818 141.563 128.818 141.563C128.818 141.563 129.234 141.725 129.292 141.91C129.677 141.752 129.643 141.055 129.643 141.055C129.643 141.055 129.99 140.962 130.151 141.313C130.883 141.532 129.99 136.133 129.708 135.531C129.423 134.93 124.689 131.372 123.831 131.378C122.975 131.385 121.77 132.196 120.468 132.804C119.169 133.405 117.579 134.896 115.772 134.522C114.69 133.591 112.11 133.986 112.11 133.986L110.138 133.477C110.138 133.477 108.359 132.698 108.311 132.381C108.27 132.062 108.675 131.286 108.953 130.238C109.225 129.176 109.135 128.589 109.544 128.27C109.956 127.954 111.007 127.998 111.787 127.538C113.598 125.902 114.333 126.001 115.772 127.085C117.153 128.132 122.024 129.733 124.459 130.025C126.898 130.313 129.79 130.307 130.632 130.262C131.474 130.217 130.01 129.032 129.88 128.785C129.88 128.785 135.201 130.262 138.756 130.513C142.315 130.77 148.917 130.389 150.593 128.74C150.593 128.74 149.466 128.421 149.01 128.043L149.089 127.974C150.868 127.517 160.033 129.115 158.563 124.993C158.185 124.546 157.735 124.714 157.36 124.439C157.46 124.309 167.841 121.973 165.178 121.245C162.994 121.066 155.691 119.675 152.561 118.816C149.435 117.961 145.272 116.721 143.167 115.996C142.923 115.896 142.562 112.362 142.936 112.551C143.565 113.409 144.025 113.99 144.984 114.564C146.835 115.065 149.552 115.113 150.889 115.12C152.232 115.12 152.641 113.217 153.108 112.121C152.908 112.362 152.232 112.75 152.053 112.75C150.786 113.066 147.862 112.643 147.515 112.513C147.162 112.389 146.327 110.995 146.567 110.287C146.808 109.583 148.237 108.765 148.237 108.765C148.237 108.765 149.941 108.604 150.528 108.765C151.115 108.916 152.462 109.737 152.661 110.112C152.857 110.479 153.345 111.283 153.304 111.97C154.046 110.799 153.551 110.105 153.857 109.974C154.015 109.974 154.403 110.091 154.478 110.521C154.815 110.345 154.633 108.669 154.791 108.446C154.791 108.446 155.107 108.645 155.378 108.834C155.598 108.549 155.554 106.955 155.303 106.354C155.045 105.746 153.493 104.231 153.207 104.028C152.915 103.846 152.727 103.812 152.727 103.812C152.727 103.812 152.696 103.633 153.273 102.974C153.843 102.307 157.075 101.734 158.078 101.019C158.645 100.59 158.027 100.638 158.7 99.968C159.367 99.305 162.317 99.0679 163.193 95.2962C155.55 97.3951 150.789 98.0684 144.6 98.0684C138.413 98.0684 129.932 97.3023 128.368 96.2786C127.795 95.8218 127.547 94.8531 127.74 93.9393C127.929 93.0187 129.038 92.366 129.742 92.0638C130.254 91.9676 130.024 93.9703 130.024 93.9703C130.024 93.9703 133.741 91.497 135.551 90.8272C137.358 90.1608 143.074 89.4016 143.074 89.4016C141.36 91.497 142.497 93.9188 143.898 93.9703C144.503 94.0046 147.011 94.7638 149.841 91.9058C150.442 91.3046 151.428 90.7928 151.428 90.7928C152.507 91.047 153.238 91.0779 153.238 91.0779L155.605 91.0194C154.001 90.2191 153.022 89.8274 152.984 89.1371C153.056 89.0718 154.537 89.7382 154.729 89.3294C154.001 88.9138 153.616 88.3195 153.616 88.3195C153.616 88.3195 155.774 88.1546 157.876 89.0168C156.57 86.7943 155.983 86.8836 154.949 86.2515C154.424 85.9561 153.427 85.6504 152.984 85.3275C152.727 85.0767 153.05 84.0496 152.644 83.3489C151.7 80.9649 150.46 79.9138 149.123 79.2474C147.787 78.581 146.842 78.4883 145.935 78.581C145.029 78.6841 144.187 78.9864 144.026 79.773C143.871 80.5699 144.417 80.9546 144.764 81.3463C144.792 81.4218 144.026 81.3944 143.27 81.2776C142.5 81.1573 139.989 81.5043 138.316 80.728C135.531 79.8486 132.892 74.0605 132.429 73.2498C132.484 74.538 131.807 75.4276 131.807 75.4276C130.952 75.6303 128.884 72.1987 128.884 72.1987C128.691 73.9677 128.973 76.0597 128.973 76.0597C126.816 74.167 126.314 71.1991 126.314 71.1991C124.542 71.8655 126.218 75.8502 126.17 75.8708C124.792 73.8132 123.975 73.2944 122.783 70.1067C121.594 66.9189 121.371 64.9781 121.261 64.3908C121.261 64.3908 121.979 63.532 122.309 63.1679C122.646 62.8072 123.707 62.1718 123.707 62.1718C123.707 62.1718 122.883 61.9691 122.185 62.0722C121.478 62.1889 120.88 62.3435 120.88 62.3435C120.88 62.3435 120.739 61.5844 121.1 58.2729C118.884 59.2142 118.039 62.4191 117.881 64.0164C116.514 65.1706 115.789 66.3557 115.789 66.3557C115.789 66.3557 115.672 64.4561 114.501 63.0786C113.326 61.6908 112.543 61.6359 111.767 60.4095C110.99 59.4787 111.076 56.8405 111.021 56.9092C110.898 57.5378 110.31 58.3416 110.358 59.5301C110.338 60.7427 110.612 61.1652 111.069 62.7728C111.526 64.377 111.385 66.1839 110.31 67.9632C107.718 72.843 109.584 66.6667 109.609 65.3044C109.609 63.1128 109.201 61.519 107.579 59.7121C107.057 59.229 106.057 58.0545 106.057 58.0545C107.977 62.3139 105.799 66.7552 105.799 66.7552C105.799 66.7552 105.167 64.3059 103.899 63.0728C102.628 61.8293 101.23 60.785 101.23 60.785C102.439 64.0793 101.632 68.4453 101.354 68.7235C100.931 68.3422 100.148 66.7552 99.1658 65.8277C98.1833 64.9105 96.8024 64.3781 96.8024 64.3781C96.8024 64.3781 97.5479 66.5285 97.6131 68.2151C97.6715 69.8948 96.8505 71.104 96.7853 73.481C96.7234 75.8649 100.976 80.3375 100.976 80.3375C96.9983 80.5711 91.7324 74.8551 91.7324 74.8551C92.0965 79.7878 97.7094 83.6798 97.7094 83.6798C96.672 83.958 88.4623 78.5581 87.356 78.0084C88.4861 82.9 93.6972 87.3246 93.6972 87.3246C92.4159 87.8777 88.8125 86.4006 88.8125 86.4006C91.6396 92.4429 97.9087 91.8658 97.9087 91.8658C97.9122 92.783 89.6302 92.0307 89.6302 92.0307C92.0965 94.7307 98.1766 95.1875 98.1766 95.1875C96.6686 95.8849 92.0072 95.6856 92.0072 95.6856C92.7594 96.7917 94.6075 97.5406 95.432 98.2482C94.4289 98.5436 92.1514 100.278 90.0389 102.308C87.9263 104.342 85.7004 110.611 81.8633 110.058C79.397 110.017 75.0069 103.84 80.9736 93.9339C83.5122 89.616 83.89 87.9637 84.2782 82.756" fill="black"/>
<path d="M141.444 18.4117H64.32L27.0601 53.3943L29.1552 71.6583L29.4265 71.593C34.5466 69.9851 39.8533 66.6638 45.2673 61.7237C47.3284 60.2981 49.6333 59.3775 52.134 59.0031C53.1199 57.9382 54.2913 56.9008 55.5863 55.9665L57.4719 48.2235L144.083 48.014L145.13 61.38L175.132 62.8466L174.713 50.5599L141.444 18.4117Z" fill="black"/>
<path d="M144.505 151.945L57.2618 151.313L55.5848 130.596C54.8462 130.582 54.1523 130.537 53.5855 130.476C51.679 130.283 49.9581 128.761 49.9581 128.761C49.9478 128.741 52.5412 128.277 54.5473 127.037C54.9492 126.786 55.2859 126.549 55.5847 126.319V123.269C55.2412 123.217 54.877 123.155 54.4854 123.076C53.4686 122.908 52.6339 122.221 52.6339 122.221C52.6339 122.221 52.4209 122.596 51.8473 123.935C51.8473 123.935 51.1774 123.004 50.748 121.737C50.3186 120.479 50.1778 118.463 50.1778 118.463C50.2774 114.417 51.3904 111.387 53.5682 109.202C54.2003 108.567 54.8804 108.048 55.5846 107.598V105.654C54.8632 105.523 54.1281 105.465 53.369 105.506C49.185 105.565 45.561 107.65 43.1733 111.847C41.837 114.812 41.1707 117.392 41.1707 117.392C41.0401 117.398 40.3737 114.125 40.3153 110.807C40.1195 106.221 43.3897 101.071 47.4569 98.5747C50.2393 96.7335 52.8636 95.7545 55.5842 95.5587V95.0949C54.0075 93.4564 52.3071 92.0411 50.277 91.598C48.0202 91.1893 45.8286 92.0652 44.3103 94.0129C43.7126 94.9437 43.3657 95.7167 43.2351 96.4999C43.1939 96.7335 43.1595 96.9843 43.1252 97.2591C42.9775 98.3239 42.7988 99.6499 42.208 101.01C40.4183 104.332 37.605 104.847 36.1347 104.411C32.274 102.969 31.9237 99.2296 32.2534 97.4496L32.9542 93.7466L35.29 96.6939C35.29 96.6939 36.0664 97.6042 37.1518 97.6145C37.6671 97.4599 39.1717 96.845 39.2507 94.8458C39.2747 93.6058 40.4358 89.9336 42.5483 87.3539C45.7086 83.3829 49.7346 81.3321 53.2929 81.8955C54.1414 82.0294 54.8937 82.239 55.5841 82.5035V70.7935C54.4196 72.2568 52.1147 75.3896 51.2387 76.0869C51.2043 76.1144 47.9273 78.4434 46.7113 79.175C45.4952 79.9067 42.1563 80.6556 41.2563 80.7586C40.3598 80.8685 38.6869 80.8204 38.6869 80.8204C39.6694 79.7384 40.9575 78.1136 40.9575 78.1136C40.9575 78.1136 42.5273 76.104 44.1796 73.6961C44.1796 73.6961 43.5098 74.2457 38.9892 76.0389C36.0187 76.963 32.0167 77.1384 29.1519 75.0979L27.9717 145.778L63.1363 183.05H141.445L174.511 149.458V137.657L144.503 137.448L144.505 151.945Z" fill="black"/>
<path d="M139.227 114.091C139.096 114.139 138.584 114.448 138.619 114.465C138.578 114.606 139.735 114.998 139.835 114.95C139.924 114.902 139.79 114.146 139.759 113.991C139.732 113.837 139.357 114.036 139.227 114.091Z" fill="white"/>
<path d="M113.855 73.9149C114.353 76.2198 116.85 76.3641 116.85 76.3641C115.734 75.8626 114.257 72.8878 114.707 70.4558C114.707 70.4558 113.374 71.5343 113.855 73.9149Z" fill="white"/>
<path d="M69.4138 81.3538C68.5241 79.4542 68.2527 79.6775 68.2527 79.6775C68.2527 79.6775 66.7482 82.4359 65.8585 85.4862C64.9412 88.1999 65.0306 92.0885 65.3466 94.187C66.2363 97.8625 66.1779 99.2022 68.3352 102.438C68.2047 100.133 67.1294 94.5683 67.8886 91.1294C68.6512 87.708 70.8119 83.7679 69.4138 81.3527" fill="white"/>
<path d="M67.5316 57.6533C66.7896 56.7293 65.4946 56.0663 64.9107 56.0491C63.8939 55.9701 62.4065 56.8358 61.7813 57.4541C61.1562 58.0793 60.136 59.2575 60.2973 59.7247C60.6855 60.2743 62.7191 59.7762 64.519 59.8071C66.2606 59.8312 68.04 60.4323 68.356 59.8827C68.5484 59.5254 68.277 58.5705 67.5316 57.6533Z" fill="white"/>
<path d="M76.5274 74.8456C76.0293 72.819 75.2014 70.909 74.1743 69.1365C74.0232 68.9098 73.6213 68.4083 73.398 68.9098C72.9239 70.2632 72.1236 71.5136 71.4949 72.7674C71.3438 73.0181 71.2167 73.3445 71.4675 73.5712C72.2678 74.0727 74.2053 76.1441 74.8751 80.3899C75.5415 84.6288 74.59 88.9127 74.59 88.9127C74.59 88.9127 78.1109 82.7669 76.5274 74.8456Z" fill="white"/>
<path d="M118.603 131.852C117.764 132.357 117.143 133.092 116.226 132.748C114.377 131.996 112.632 132.223 112.632 132.223C112.632 132.223 110.554 131.948 110.407 131.512C110.262 131.082 110.609 130.921 110.702 130.57C110.812 130.127 110.65 129.797 110.894 129.547C111.138 129.303 112.093 129.303 112.749 128.915C113.316 128.581 113.749 128.162 114.099 127.815C114.223 127.699 114.062 127.767 114.831 128.344C115.824 129.097 118.386 130.271 120.629 130.756C120.437 130.852 119.011 131.604 118.603 131.852ZM129.19 67.7668C128.874 69.1684 127.984 69.2199 127.489 70.6249C127.489 70.6249 126.287 69.7421 126.119 68.1241C125.95 66.9287 125.974 65.6645 126.38 64.3352C126.785 63.0024 128.929 61.168 128.929 61.168C128.929 61.168 128.668 62.6898 128.692 63.9779C128.716 65.2661 129.55 65.4756 129.19 67.7668ZM124.539 68.0382C124.597 68.5706 124.975 69.4844 124.975 69.4844L124.686 69.7695C123.862 67.5539 123.357 65.4585 123.199 64.5688C123.168 64.3936 125.023 63.133 125.023 63.133C125.023 63.133 124.882 63.5349 124.865 63.5692C124.425 65.0154 124.322 66.4993 124.539 68.0382ZM95.5772 71.7275C95.1307 71.4699 94.2891 70.1852 94.3062 68.9657C94.3062 68.8043 95.6425 66.8737 95.9276 66.1593C96.0581 66.7158 96.2642 67.5058 96.2814 68.0177C96.302 68.5913 95.6872 71.0543 95.5772 71.7275ZM93.7326 73.0019C93.7326 73.0019 91.541 71.8924 90.7475 71.0611C89.9506 70.2401 89.2567 68.5913 89.7307 66.8429C90.2048 65.1013 91.699 64.6203 92.1456 63.291C92.3998 62.2124 91.857 60.8761 91.857 60.8761C91.857 60.8761 93.4784 62.0509 94.0177 64.3352C94.5604 66.6196 92.2383 67.5127 92.2108 69.1924C92.1765 71.4425 93.7326 73.0019 93.7326 73.0019ZM89.1914 84.3376L86.3231 83.1593C86.3265 83.0425 86.4536 80.4765 86.4674 79.5319C87.6524 82.7368 89.1914 84.3376 89.1914 84.3376ZM89.7582 90.0913L85.7323 89.7203L88.7277 93.0008C88.951 93.2687 89.425 93.6535 89.425 93.6535L88.6349 93.626C88.6349 93.626 90.0467 95.5599 90.665 96.295C91.2902 97.037 91.8845 97.5111 92.5784 98.0194C91.4208 98.8885 90.1945 99.9602 89.212 100.905C88.4322 101.664 87.7212 102.76 86.9654 103.928C85.6636 105.934 83.8395 108.424 82.249 108.191C82.0429 108.163 81.3182 107.71 80.7376 106.508C80.0574 105.089 78.8895 101.09 82.7952 94.6154C85.2203 90.4968 85.8386 88.3155 86.2234 83.9973L87.618 86.9172C89.0435 89.49 89.7582 90.0913 89.7582 90.0913ZM55.5824 117.022C56.2111 116.342 56.9599 115.689 57.8083 115.243C57.0938 116.098 56.4858 116.971 56.0393 117.816C55.895 118.094 55.7404 118.324 55.5824 118.547C55.0156 119.351 54.4282 119.829 54.2049 119.983C53.9164 120.176 53.4938 120.086 53.4389 120.128C53.4389 120.128 54.2187 118.499 55.5824 117.022ZM69.5943 127.073C70.0855 127.032 70.5698 126.939 71.013 126.839C70.9546 126.963 70.8894 127.073 70.831 127.176C70.6661 127.337 69.11 128.244 68.7768 128.464C68.8764 128.292 69.4294 127.324 69.5943 127.073ZM166.197 119.467C164.352 119.323 159.104 118.403 154.408 116.932L152.766 116.424C153.937 115.895 154.59 114.754 155.023 113.988C155.153 113.755 155.909 112.384 156.012 112.133C156.115 111.883 155.304 111.883 155.528 111.611C155.72 111.56 155.902 111.484 156.081 111.391C157.362 110.722 156.761 109.918 157.145 109.622C157.307 109.506 157.431 109.368 157.52 109.255C158.351 108.176 157.815 106.455 157.427 105.524C156.974 104.449 156.002 103.666 156.002 103.666C156.249 103.584 156.503 103.505 156.716 103.439C157.853 103.082 158.925 102.745 159.66 102.216C160.309 101.736 160.57 100.997 160.57 100.997C160.649 100.959 160.735 100.918 160.814 100.884C162.037 100.327 164.579 99.1661 165.438 95.5042L166.084 92.6944L163.305 93.4501C155.892 95.4837 151.306 96.102 145.116 96.1638C138.112 96.2462 131.451 95.2054 131.451 95.2054C132.44 94.5459 135.302 92.7321 136.635 92.2443C137.823 91.8012 139.922 91.2481 141.001 91.3718C140.983 92.052 141.121 92.7184 141.402 93.347C141.983 94.6248 143.113 95.4492 144.302 95.4905C144.326 95.4972 148.468 96.0745 151.581 92.9244C151.879 92.6256 152.034 92.368 152.24 92.4092C153.071 92.5603 153.645 92.5947 153.82 92.5981L160.264 92.4538L157.771 90.4031L162.47 92.3301L159.904 87.9401C158.701 85.8927 157.884 85.3603 156.853 84.8313C156.695 84.7454 155.112 84.3744 155.119 83.9828C155.129 83.5328 155.026 82.9625 154.744 82.406C153.769 80.0118 152.439 78.4935 150.416 77.4836C148.96 76.7554 147.678 76.4943 146.27 76.6454C143.687 76.9168 143.113 78.0367 142.728 79.3042C141.797 79.318 140.877 79.4244 139.328 78.8611C137.775 78.308 132.698 69.4765 132.619 69.3459C132.619 69.3459 132.382 70.8229 131.997 72.7844C131.626 72.2932 130.386 70.4005 130.386 70.4005C130.767 69.7925 131.197 68.8341 131.362 67.7796C131.63 66.0517 131.368 65.138 131.039 64.2895C130.925 63.9838 130.884 63.8704 130.884 63.6781C130.86 62.5788 131.901 56.4987 131.901 56.4987C131.901 56.4987 128.112 59.7414 126.889 60.7926C125.92 60.5522 123.825 60.0506 123.114 60.0506L123.258 58.1683L123.585 55.2416L120.878 56.3992C118.178 57.5568 117.161 60.6896 116.8 62.4277C116.526 62.0808 116.24 61.6857 116.24 61.6857C115.577 60.9094 115.011 60.4663 114.557 60.1159C114.176 59.8239 113.637 59.1747 113.53 59.0476C113.465 58.924 112.878 56.9866 112.912 54.3209C112.878 53.3316 112.768 51.4354 112.768 51.4354C112.768 51.4354 109.669 56.5331 109.618 56.6636C109.377 57.2579 109.154 58.1544 109.154 58.1544C109.154 58.1544 108.055 56.8491 107.052 56.0556C106.049 55.2587 102.167 52.8198 102.167 52.8198L104.898 58.4807C105.86 60.2876 105.575 61.6411 105.575 61.6411C104.231 60.3323 102.717 59.1781 102.655 59.13L98.0208 55.6606L100.01 61.0983C100.36 62.0636 100.504 63.1594 100.542 64.1692C99.5529 63.3895 97.983 62.5788 97.8078 62.5067C97.8078 62.5067 96.183 61.8471 95.1628 61.4486C94.3727 60.1571 93.3903 59.3189 93.2425 59.2124C93.2425 59.2124 88.4918 55.767 88.4953 55.7807L90.6353 61.2357C90.7762 61.5998 90.9273 62.2799 90.8895 62.4792C90.8105 62.7162 90.5495 62.9807 90.2231 63.3173C89.6289 63.9185 88.8216 64.7601 88.4472 66.1341C87.798 68.494 88.5743 70.6856 90.2301 72.3413L90.8072 77.6383C89.4503 76.9169 86.2213 75.1478 86.2213 75.1478C85.895 73.0009 85.2457 70.8952 84.3285 68.9441C82.745 65.0487 79.8251 61.2976 75.7062 59.5865C75.0535 57.4155 74.0196 55.7392 72.5494 54.4889C70.794 52.9911 68.6059 52.1427 66.0949 52.0156C64.0647 52.0636 62.0312 52.5789 60.1041 53.3862C58.4965 54.0697 56.9679 54.9525 55.5801 55.9625C54.2851 56.8968 53.1172 57.9308 52.1278 58.9991C49.6305 59.3735 47.3221 60.2941 45.2611 61.7197C39.8474 66.6593 34.5401 69.981 29.4186 71.5891L29.1473 71.6543L26.1484 72.3997C26.7427 73.3032 28.8793 74.9176 28.8793 74.9176C28.9652 74.9829 29.0648 75.0275 29.1473 75.0894C32.0121 77.1264 36.014 76.9546 38.9854 76.0306C43.506 74.2375 44.1758 73.6845 44.1758 73.6845C42.5236 76.0959 40.9537 78.1054 40.9537 78.1054C40.9537 78.1054 39.6656 79.7268 38.6831 80.8123C38.6831 80.8123 40.356 80.8569 41.2492 80.7505C42.1526 80.6474 45.4915 79.8985 46.7076 79.1669C47.9236 78.4318 51.2007 76.1062 51.235 76.0788C52.111 75.3814 54.4124 72.2452 55.5804 70.7853C55.9823 70.2666 56.2605 69.954 56.2846 70.009C56.8308 71.1906 57.8682 72.3998 58.7235 73.0146C58.8506 73.1074 59.462 73.4749 60.1043 73.8769C60.8532 74.3406 61.6604 74.849 61.8047 75.0001C61.3822 76.5425 60.6814 79.2837 60.1043 81.4924C59.6853 83.1035 59.3349 84.4328 59.2043 84.8107C58.215 83.873 57.0471 83.0554 55.5803 82.4955C54.8898 82.231 54.1341 82.018 53.2891 81.884C49.7304 81.3241 45.7044 83.3748 42.5412 87.3458C40.432 89.9256 39.271 93.5942 39.2435 94.8377C39.1679 96.8369 37.6599 97.4484 37.1481 97.603C36.0626 97.5927 35.2863 96.6858 35.2863 96.6858L32.947 93.735L32.2497 97.4381C31.9199 99.2209 32.2703 102.958 36.1313 104.404C37.6016 104.841 40.4149 104.322 42.2045 101.004C42.7954 99.6434 42.974 98.3141 43.1217 97.2526C43.1561 96.9778 43.1905 96.7236 43.2317 96.4934C43.3622 95.7102 43.7091 94.9374 44.3069 94.003C45.8217 92.0588 48.0168 91.1794 50.2702 91.5882C52.3037 92.0313 54.0041 93.4465 55.5808 95.0885C55.7148 95.2328 55.8488 95.3736 55.9827 95.5179C55.8488 95.5179 55.7148 95.5386 55.5808 95.5522C52.8602 95.7446 50.2359 96.7236 47.4535 98.5683C43.3863 101.062 40.1161 106.211 40.3119 110.797C40.3703 114.119 41.0367 117.392 41.1672 117.385C41.1672 117.385 41.8336 114.802 43.1699 111.841C45.5572 107.64 49.1813 105.558 53.3656 105.497C54.1213 105.455 54.8598 105.517 55.5812 105.644C56.4193 105.789 57.2507 106.022 58.0647 106.314C57.2197 106.661 56.385 107.08 55.5812 107.592C54.877 108.038 54.1968 108.561 53.5648 109.193C51.387 111.381 50.274 114.411 50.1744 118.458C50.1744 118.458 50.3152 120.474 50.7446 121.731C51.174 122.999 51.8404 123.926 51.8404 123.926C52.4141 122.59 52.6305 122.212 52.6305 122.212C52.6305 122.212 53.4652 122.903 54.482 123.067C54.8736 123.15 55.2377 123.208 55.5812 123.263C56.6186 123.414 57.4534 123.459 58.1163 123.449C57.2919 124.596 56.7732 125.407 55.5812 126.314C55.2824 126.54 54.9458 126.777 54.5439 127.032C52.5378 128.272 49.9443 128.735 49.9547 128.756C49.9547 128.756 51.6757 130.278 53.5821 130.47C54.1489 130.528 54.8393 130.576 55.5813 130.59C57.0206 130.611 58.6695 130.449 60.1053 129.766C60.4248 129.618 60.7374 129.439 61.0328 129.226C61.0328 129.226 61.1702 130.085 60.1053 131.239C59.9336 131.422 59.7412 131.61 59.5076 131.81L60.1053 131.878L61.6992 132.06C62.5579 132.246 65.1033 131.72 66.9033 130.7C66.7694 130.992 66.6663 131.308 66.6217 131.652C66.522 132.383 66.1167 133.757 65.7904 134.853C65.1171 137.138 64.7598 139.738 64.7598 139.738C64.7598 139.738 68.0712 139.013 69.672 137.818C70.5273 137.168 71.5923 136.371 72.2758 136.021C73.2617 135.513 73.7941 134.602 74.1101 133.586C74.1101 133.586 75.4017 133.4 75.7865 133.256C75.1304 134.839 74.4571 135.87 74.4537 135.877L70.7541 141.418L76.6761 138.354C76.7929 138.292 79.6405 136.797 81.602 133.953C81.7806 133.696 81.9524 133.448 82.1138 133.197C82.1104 133.335 81.6467 137.179 81.6467 137.179L84.776 135.045C84.8963 134.956 85.2466 134.692 85.6554 134.194L87.0397 134.307C88.1149 134.382 89.7053 133.771 90.3168 131.858C92.3194 131.731 96.7816 132.325 97.6266 133.414C99.3201 135.616 100.131 136.093 101.178 136.584C102.034 137.024 103.398 137.302 104.462 137.419C105.084 137.495 105.737 137.567 106.427 137.728C107.619 137.931 110.601 139.164 110.608 139.432C110.591 140.047 110.261 141.641 108.251 145.248C107.939 145.811 107.77 146.161 106.417 148.631C106.417 148.631 106.925 148.542 107.585 148.411C109.22 146.319 113.136 140.088 111.638 138.326C110.563 137.618 107.764 136.354 106.293 136.114C104.717 135.719 102.906 135.808 101.924 135.31C100.938 134.798 100.433 134.826 98.5885 132.445C96.7507 130.068 88.3313 129.876 88.462 130.638C88.2765 132.789 86.8097 132.669 86.8097 132.669C86.8097 132.669 87.3147 129.144 85.312 129.24C85.3635 129.261 85.4494 129.481 85.0097 131.061C84.4635 133.019 83.457 133.706 83.457 133.706C83.457 133.706 83.6357 132.195 83.0448 130.549C82.5261 129.117 82.7838 129.189 82.1758 128.358C82.0384 129.13 81.5815 130.549 79.8468 133.06C78.1086 135.575 75.5529 136.901 75.5529 136.901C75.5529 136.901 76.5559 135.386 77.3769 133.108C78.2013 130.824 77.6071 129.045 77.6071 129.045C77.6071 129.045 77.2567 130.024 76.2021 130.896C75.1544 131.765 74.4468 131.848 74.4468 131.848C74.9586 130.824 75.6284 129.069 75.5528 127.488C75.4017 127.289 75.1029 127.413 74.9002 127.488C74.2235 127.87 73.5879 127.815 72.9696 128.818C72.3548 129.824 72.7601 133.744 71.1628 134.568C69.5689 135.386 66.7762 137.859 66.5941 137.632C66.4155 137.399 67.7827 133.658 68.0129 131.961C68.2396 130.278 71.5304 129.268 72.214 128.313C72.8976 127.351 73.4368 125.221 73.1586 124.792C72.8769 124.376 70.8674 125.493 69.0262 125.493C68.2018 125.561 67.3808 128.024 66.5529 128.735C65.1479 130.017 61.8022 130.621 61.7232 130.446C64.9006 127.719 64.4747 125.864 64.4747 125.864C62.6988 126.186 61.4449 127.815 59.7137 128.388C57.8107 129.22 52.9569 129.295 52.9775 129.096C53.479 128.79 54.0801 128.694 54.6058 128.416C56.9348 127.664 58.3604 125.809 59.6313 123.967C60.8988 122.13 61.5961 121.178 66.2335 121.24C66.7419 121.364 69.3457 118.567 68.6484 118.004C67.6316 117.557 65.8385 118.114 65.5362 118.066C64.2652 118.317 62.424 120.539 61.342 120.986C58.7382 121.934 57.8107 122.03 55.0318 121.58C54.9596 121.504 56.4848 120.893 57.6115 118.746C58.7383 116.606 61.1428 114.14 63.5508 112.608L63.5989 112.508C63.1489 112.133 62.4241 112.312 61.871 112.261C57.5875 112.58 53.7024 115.768 51.8988 119.601C51.5003 119.498 51.7236 118.918 51.624 118.619C51.6961 115.586 52.366 112.693 54.506 110.557C56.6496 108.41 59.4182 107.62 62.1456 106.847C62.2727 106.747 62.2453 106.62 62.1456 106.524C59.3151 105.167 56.385 103.766 53.0014 103.941C48.1923 104.016 43.7298 106.971 41.7517 111.333C41.5044 111.436 41.58 111.082 41.525 110.952C42.0025 106.648 44.2834 102.536 48.093 100.211C50.6246 98.5274 53.3796 97.3251 56.636 97.4007C57.6631 97.4007 58.5871 97.6275 59.5421 97.7202C59.6932 97.6584 59.6142 97.4488 59.5181 97.3733C56.9108 94.5462 54.3071 90.9634 50.3738 90.1115C47.3407 89.5584 44.5582 90.7573 42.7033 93.1413C41.9888 94.2302 41.4872 95.2539 41.2949 96.3977C41.0991 97.5382 41.0236 99.029 40.3881 100.496C39.1171 102.838 37.1969 103.158 36.3862 102.924C33.0267 101.65 33.7206 97.9332 33.7206 97.9332C33.7206 97.9332 35.0534 99.6164 37.1522 99.4928C37.1522 99.4928 40.577 98.7817 40.7213 95.0615C40.7385 94.3024 41.7243 90.9634 43.6274 88.6345C45.9804 85.6769 49.4601 83.2792 52.7506 83.7945C56.0414 84.3166 57.8413 86.1235 59.6688 88.4559C59.8646 88.5796 59.9436 88.2807 59.9677 88.1571C60.847 83.7945 63.2035 75.3475 63.4371 74.7228C63.2516 74.0598 60.2322 72.4419 59.4387 71.8647C58.6452 71.2911 57.6628 70.0236 57.4085 69.1407C57.1509 68.2476 57.3776 66.2827 57.3776 66.2827C57.3776 66.2827 58.1059 67.7392 61.091 69.0067C62.4547 69.6078 65.3539 69.9651 65.3539 69.9651L66.855 66.5059C66.855 66.5059 67.4905 65.1663 67.8786 64.5411L67.3592 64.2485C65.4906 63.084 59.6577 65.2515 56.4527 65.5881C55.2024 67.8587 52.9318 71.7747 49.8952 74.9659C48.6174 76.1407 48.1158 76.7453 46.2781 77.8789C44.4437 79.0159 42.7194 79.5552 42.4067 79.6376C42.0941 79.7132 41.1529 80.2594 40.8025 79.8746C43.4269 78.109 45.6151 76.467 46.0032 74.3545C46.3982 72.2384 47.5696 70.0503 48.236 68.8755C48.0642 68.7518 47.4528 69.6209 46.8276 70.0503C43.6502 72.5304 41.7025 73.238 38.116 74.6705C35.4366 75.4983 31.9809 75.5465 29.7241 73.7945C29.6725 73.719 29.6725 73.5403 29.7241 73.4613C35.7874 71.5583 41.15 67.807 45.9864 63.3929C47.9409 62.043 50.1188 61.215 52.5025 60.9123L52.8013 60.8127C56.1402 57.2951 60.2898 54.3994 65.8309 54.0319C67.782 54.1246 69.613 54.8014 71.1175 56.0724C72.6461 57.3811 73.4466 59.1605 73.8966 60.9673C74.3466 61.3177 74.8756 61.5135 75.3256 61.7677C78.6027 63.4955 81.0622 66.5802 82.3916 69.8333C84.2466 73.8111 84.6519 77.5381 84.2706 82.749C83.8858 87.96 83.5046 89.6089 80.966 93.927C74.9993 103.837 79.3893 110.013 81.8557 110.051C85.6927 110.604 87.9187 104.335 90.0312 102.302C92.1438 100.275 94.4213 98.5401 95.4244 98.2447C94.5999 97.537 92.7553 96.7848 91.9996 95.6821C91.9996 95.6821 96.661 95.8779 98.169 95.1806C98.169 95.1806 92.0888 94.7237 89.6226 92.0237C89.6226 92.0237 97.9079 92.776 97.9011 91.8588C97.9011 91.8588 91.6321 92.4359 88.8049 86.3971C88.8049 86.3971 92.4083 87.8707 93.6896 87.3177C93.6896 87.3177 88.4786 82.8933 87.3484 78.0014C88.4545 78.551 96.6647 83.9544 97.7018 83.6762C97.7018 83.6762 92.0888 79.7842 91.7248 74.8481C91.7248 74.8481 96.9907 80.5641 100.968 80.334C100.968 80.334 96.7159 75.8581 96.7777 73.4775C96.8429 71.097 97.6639 69.8913 97.6055 68.2116C97.5402 66.5215 96.7948 64.3711 96.7948 64.3711C96.7948 64.3711 98.1757 64.907 99.1582 65.8207C100.141 66.7516 100.924 68.3386 101.35 68.7165C101.628 68.4383 102.432 64.0757 101.223 60.7815C101.223 60.7815 102.621 61.8223 103.892 63.0693C105.159 64.299 105.791 66.7517 105.791 66.7517C105.791 66.7517 107.969 62.3101 106.049 58.051C106.049 58.051 107.049 59.2223 107.574 59.6998C109.195 61.5066 109.604 63.1005 109.604 65.2921C109.604 67.4767 108.45 68.9847 108.924 70.1939C108.924 70.1939 109.223 69.7336 110.305 67.9508C111.38 66.1749 111.521 64.3646 111.064 62.7639C110.607 61.1563 110.332 60.7338 110.353 59.5177C110.305 58.3327 110.892 57.5254 111.016 56.9002C111.071 56.828 110.985 59.4696 111.761 60.3971C112.538 61.6269 113.321 61.6784 114.496 63.0696C115.667 64.4471 115.784 66.3467 115.784 66.3467C115.784 66.3467 116.509 65.1582 117.876 64.004C118.034 62.4067 118.879 59.2052 121.098 58.2606C120.734 61.572 120.875 62.3345 120.875 62.3345C120.875 62.3345 121.472 62.18 122.18 62.0632C122.877 61.9567 123.702 62.1628 123.702 62.1628C123.702 62.1628 122.64 62.7948 122.304 63.159C121.974 63.5197 121.256 64.3785 121.256 64.3785C121.366 64.9659 121.589 66.9101 122.778 70.0944C123.97 73.2822 124.787 73.8043 126.165 75.8585C126.213 75.8379 124.54 71.8531 126.309 71.1902C126.309 71.1902 126.811 74.1547 128.971 76.0509C128.971 76.0509 128.69 73.9555 128.878 72.1898C128.878 72.1898 130.946 75.6215 131.802 75.4154C131.802 75.4154 132.478 74.5257 132.423 73.2376C132.887 74.0517 135.525 79.8363 138.311 80.7158C139.988 81.4955 142.495 81.1451 143.265 81.2654C144.02 81.3856 144.786 81.4096 144.759 81.3375C144.412 80.9459 143.866 80.5578 144.02 79.7643C144.182 78.9742 145.023 78.6754 145.93 78.5689C146.837 78.4796 147.782 78.5689 149.118 79.2387C150.454 79.9051 151.694 80.9563 152.639 83.3402C153.044 84.0375 152.721 85.068 152.979 85.3153C153.422 85.6417 154.418 85.9474 154.944 86.2428C155.978 86.8714 156.565 86.7856 157.87 89.0046C155.768 88.1424 153.611 88.3073 153.611 88.3073C153.611 88.3073 153.996 88.9016 154.724 89.3173C154.532 89.7261 153.051 89.0597 152.979 89.1249C153.02 89.8188 153.996 90.2104 155.6 91.0073L153.233 91.0691C153.233 91.0691 152.501 91.0348 151.423 90.784C151.423 90.784 150.44 91.2924 149.836 91.8935C147.009 94.7516 144.498 93.9924 143.893 93.9614C142.492 93.9064 141.354 91.4848 143.069 89.3928C143.069 89.3928 137.353 90.1485 135.546 90.8183C133.736 91.4847 130.019 93.9614 130.019 93.9614C130.019 93.9614 130.249 91.9588 129.737 92.0515C129.033 92.3538 127.923 93.0065 127.734 93.9271C127.546 94.8443 127.789 95.813 128.363 96.2698C129.926 97.29 138.407 98.0561 144.594 98.0561C150.784 98.0561 155.545 97.3862 163.188 95.2839C162.315 99.0556 159.361 99.2927 158.695 99.9591C158.025 100.626 158.64 100.577 158.073 101.007C157.07 101.721 153.838 102.295 153.267 102.965C152.69 103.621 152.721 103.8 152.721 103.8C152.721 103.8 152.91 103.837 153.202 104.016C153.487 104.219 155.04 105.734 155.298 106.342C155.548 106.943 155.596 108.54 155.373 108.825C155.102 108.633 154.786 108.437 154.786 108.437C154.628 108.657 154.81 110.333 154.473 110.508C154.398 110.079 154.009 109.962 153.851 109.962C153.546 110.093 154.04 110.787 153.302 111.958C153.34 111.274 152.852 110.467 152.656 110.1C152.457 109.729 151.11 108.904 150.523 108.753C149.935 108.592 148.232 108.753 148.232 108.753C148.232 108.753 146.803 109.574 146.562 110.278C146.322 110.986 147.156 112.377 147.51 112.501C147.86 112.631 150.78 113.054 152.048 112.741C152.226 112.741 152.903 112.35 153.102 112.113C152.635 113.205 152.226 115.108 150.883 115.108C149.547 115.101 146.83 115.053 144.978 114.555C144.02 113.981 143.56 113.401 142.931 112.542C142.557 112.349 142.917 115.888 143.161 115.987C145.267 116.712 149.43 117.949 152.556 118.804C155.685 119.663 162.988 121.054 165.173 121.233C167.835 121.961 157.458 124.3 157.355 124.431C157.729 124.702 158.179 124.534 158.557 124.98C160.031 129.102 150.866 127.505 149.083 127.962L149.008 128.034C149.461 128.409 150.591 128.731 150.591 128.731C148.912 130.377 142.309 130.762 138.751 130.501C135.195 130.25 129.874 128.773 129.874 128.773C130.005 129.023 131.468 130.205 130.627 130.25C129.785 130.298 126.893 130.305 124.454 130.016C122.018 129.724 117.147 128.12 115.767 127.072C114.382 126.028 114.066 125.911 113.603 126.059C113.149 126.203 112.555 127.069 111.782 127.526C111.002 127.986 109.951 127.941 109.539 128.257C109.13 128.58 109.223 129.168 108.948 130.226C108.67 131.273 108.264 132.053 108.306 132.369C108.357 132.685 110.133 133.469 110.133 133.469L112.105 133.973C112.105 133.973 114.685 133.578 115.767 134.509C117.574 134.887 119.164 133.393 120.462 132.792C121.764 132.187 122.97 131.373 123.825 131.366C124.684 131.36 129.418 134.922 129.703 135.519C129.984 136.12 130.878 141.52 130.146 141.3C129.984 140.95 129.638 141.046 129.638 141.046C129.638 141.046 129.672 141.744 129.287 141.902C129.229 141.713 128.813 141.551 128.813 141.551C128.813 141.551 128.373 143.399 126.628 143.358C127.133 141.579 126.731 141.033 126.731 141.033C126.731 141.033 125.711 141.737 124.674 141.108C126.003 140.645 125.557 139.027 125.557 139.027C125.557 139.027 125.639 137.934 124.11 137.745C122.592 137.55 121.101 137.996 120.528 138.57C119.957 139.14 119.93 141.081 120.373 141.874C120.813 142.661 120.909 142.788 121.575 143.204C122.245 143.623 122.53 143.898 123.355 143.822C124.179 143.746 124.588 143.685 125.258 143.242C125.67 144.286 124.158 145.097 124.158 145.097C122.496 146.22 119.037 145.08 118.302 143.654C117.573 142.218 117.374 139.834 116.337 138.886C116.086 138.563 114.451 138.491 114.43 138.762C113.991 143.925 110.397 146.948 107.821 148.357C108.659 148.188 109.683 147.945 110.312 147.694C111.514 147.196 111.184 147.247 112.283 146.536C113.379 145.822 115.901 142.541 116.131 141.198C116.182 140.872 116.862 143.671 117.223 144.379C117.817 145.547 119.246 146.519 121.033 146.979C122.784 147.429 124.444 147.244 125.584 146.471L127.037 145.059L128.184 144.788C129.933 144.382 130.232 142.912 130.376 142.957C130.699 143.053 131.242 143.197 131.338 143.17L132.069 142.318C133.461 140.707 131.76 134.761 131.736 134.709C131.52 134.256 130.135 132.971 128.686 131.875C129.716 131.889 130.84 131.896 131.2 131.875C132.021 131.827 132.712 131.047 132.712 131.047C134.601 131.484 137.112 131.985 139.139 132.133C141.763 132.318 149.835 132.308 152.326 129.876C152.326 129.876 152.45 129.519 152.628 129.519C155.672 129.57 158.98 129.533 160.399 127.568C160.852 126.929 160.945 125.283 160.945 125.283C166.455 123.796 167.897 123.095 167.904 121.436C167.904 121.082 167.788 119.897 166.197 119.461" fill="white"/>
<path d="M150.55 107.603C149.688 107.486 148.764 108.19 148.764 108.19C148.764 108.19 150.159 108.142 150.509 108.263C150.86 108.383 152.134 108.95 152.879 109.733C153.072 109.936 153.192 110.087 153.347 110.571C153.522 109.949 153.367 109.558 153.23 109.358C152.914 108.819 151.409 107.713 150.55 107.603Z" fill="white"/>
<path d="M148.83 105.335C149.146 105.267 151.846 105.205 152.29 105.528C152.729 105.844 154.739 107.314 154.952 108.015C155.065 107.311 155.065 106.881 154.794 106.51C154.485 105.94 153.11 104.652 152.698 104.387C152.29 104.116 147.817 103.996 147.199 104.446C146.58 104.899 144.609 106.902 144.609 106.902C144.609 106.902 142.826 108.668 142.379 108.808C141.929 108.942 141.936 108.881 141.713 108.98C141.49 109.073 142.091 112.161 142.318 112.161C142.537 112.161 143.218 111.646 143.485 111.852C143.757 112.055 144.128 112.57 144.128 112.57C144.128 112.57 145.066 113.535 145.56 113.964C145.66 114.116 149.397 114.603 151.146 114.569C151.455 114.569 152.094 113.332 152.094 113.332C151.156 113.923 147.456 113.343 147.01 113.185C146.567 113.016 145.502 110.993 145.639 110.21C145.777 109.42 147.755 108.128 147.755 108.128C147.755 108.128 148.765 107.428 149.078 107.311C149.631 107.077 150.373 107.077 150.373 107.077C150.373 107.077 151.05 107.142 151.651 107.338C152.255 107.531 154.062 108.867 154.248 109.66C154.406 108.953 154.406 108.283 154.131 108.101C153.818 107.623 152.255 106.222 151.877 106.029C151.493 105.847 148.477 105.868 148.415 105.779C148.353 105.686 148.511 105.394 148.83 105.335Z" fill="white"/>
<path d="M140.98 109.114C140.626 109.045 139.843 109.406 139.184 109.498C138.672 109.574 138.236 110.367 138.112 110.649C137.981 110.931 138.366 111.364 138.534 112.054C138.699 112.751 138.442 113.641 138.723 113.641C139.012 113.641 139.328 113.133 139.799 112.975C140.283 112.813 141.197 112.751 141.454 112.624C141.709 112.497 141.454 111.735 141.389 111.164C141.327 110.598 141.327 109.179 140.98 109.114Z" fill="white"/>
<path d="M140.694 115.184C140.57 115.562 142.092 115.878 142.343 115.755C142.597 115.624 142.295 113.597 142.219 113.185C142.14 112.763 140.852 113.213 140.502 113.343C140.155 113.463 140.601 115.116 140.694 115.184Z" fill="white"/>
<path d="M137.743 113.983C137.997 112.516 137.698 111.166 137.193 111.132C136.588 111.008 133.26 111.651 133.095 111.943C132.944 112.228 137.646 114.327 137.743 113.983Z" fill="white"/>
<path d="M109.454 133.737C108.719 133.366 108.104 132.824 107.788 132.824C107.465 132.824 106.026 134.885 106.074 135.163C106.122 135.431 107.585 135.702 108.458 136.066C109.323 136.427 110.515 136.966 110.79 136.966C111.065 136.966 111.965 134.812 111.646 134.448C111.505 134.17 110.189 134.095 109.454 133.737Z" fill="white"/>
<path d="M113.881 138.64C113.881 138.64 112.981 138.888 112.404 138.585C113.046 141.32 109.209 146.823 109.209 146.823C110.144 146.589 113.565 143.463 113.881 138.64Z" fill="white"/>
<path d="M115.55 137.92C115.869 138.041 116.804 137.786 117.498 139.25C118.198 140.521 118.562 143.121 119.263 143.729C119.961 144.33 120.026 144.519 121.74 144.87C123.42 145.028 124.117 144.79 124.213 144.341C122.186 144.756 121.211 143.822 121.211 143.822C121.211 143.822 120.153 143.166 119.741 142.249C119.325 141.331 119.201 139.789 119.455 139.154C119.71 138.521 119.933 137.786 120.785 137.436C121.389 137.189 122.169 136.866 123.217 136.866C124.261 136.866 125.233 136.866 126.027 137.728C126.291 138.106 126.367 138.917 126.367 139.095C126.501 140.119 126.034 140.586 126.034 140.586C126.034 140.586 126.92 140.737 127.098 139.854C127.36 140.558 127.49 140.95 127.518 142.334C127.518 142.334 128.878 141.228 128.431 139.669C128.431 139.669 128.026 137.47 127.205 136.488C126.415 135.54 124.388 134.592 123.657 134.557C122.928 134.53 120.441 135.887 120.201 135.571C119.96 135.262 122.949 133.517 123.973 133.561C124.989 133.623 127.147 135.32 127.782 136.017C128.448 136.91 128.94 138.851 129.043 140.411C130.376 140.534 129.551 136.433 128.885 135.584C128.438 135.076 124.656 131.881 123.55 132.112C122.437 132.328 119.009 134.42 118.026 134.87C116.958 135.351 115.89 134.976 115.687 135.062C115.467 135.155 115.879 135.756 115.687 136.577C115.498 137.405 115.23 137.786 115.55 137.92Z" fill="white"/>
<path d="M114.598 137.923C115.004 137.778 115.296 135.741 115.168 135.109C115.041 134.477 112.836 134.391 112.451 134.58C112.166 134.615 112.087 135.573 111.929 136.061C111.709 136.768 111.263 137.191 111.452 137.438C111.744 138.166 113.709 138.232 114.598 137.923Z" fill="white"/>
<path d="M153.788 87.8424C154.197 87.7909 155.306 87.9695 155.818 88.0382C156.323 88.0932 157.13 88.4126 157.13 88.4126C157.13 88.4126 156.897 87.6431 155.433 86.9115C154.709 86.5646 153.87 86.0733 153.365 86.197C152.857 86.3275 151.816 87.7668 151.624 88.3646C151.432 88.9657 151.449 90.1783 152.531 90.5561C153.733 90.8412 154.434 90.7244 154.434 90.7244C154.434 90.7244 152.878 90.4874 152.338 89.1512C152.053 88.1996 153.386 87.8904 153.788 87.8424Z" fill="white"/>
<path d="M62.4459 15.6831L24.6328 52.411V147.589L62.4459 184.317H143.318L177.344 151.266V135.282H141.87V149.27H60.1077V131.878L59.5099 131.812C59.747 131.609 59.936 131.421 60.1077 131.242V129.765C58.6719 130.448 57.0265 130.611 55.5872 130.59V153.667H146.389V139.672H172.828V149.448L141.444 179.917H64.32L29.152 145.769V75.0887C29.0695 75.0269 28.9729 74.9862 28.8835 74.9175C28.8835 74.9175 26.7474 73.3028 26.1531 72.4028L29.1519 71.6535V54.2318L64.3199 20.0832H141.444L172.828 50.5564V60.3288H146.389V46.3337H55.5872V55.9662C56.9715 54.9562 58.5001 54.0741 60.1077 53.3905V50.7309H141.87V64.7226H177.344V48.7385L143.313 15.6826H62.4433L62.4459 15.6831ZM66.558 55.1985C66.3098 55.1844 66.1569 55.2274 66.1612 55.3451C66.0856 55.8157 68.9024 55.7332 69.8402 60.666C70.2558 62.909 69.6072 63.7188 68.666 65.8074C68.1885 66.6318 67.7868 67.5108 67.4605 68.4143C64.8842 74.2746 62.8573 80.3899 61.7032 86.8815C61.2773 88.0804 61.2861 92.1963 61.5369 93.426C62.588 98.589 64.2474 101.621 67.1295 106.001C68.8298 108.708 73.1656 111.273 77.0334 112.098C68.8545 107.206 67.7619 104.091 67.7619 104.091C67.7619 104.091 61.4133 94.1903 65.5354 83.1396C67.1362 78.8629 68.8173 74.5561 70.9436 70.492C72.0978 68.5821 72.9252 66.5312 73.073 64.1747C72.9493 62.8042 73.0998 61.352 72.4472 60.1153C71.3719 57.7966 70.6825 57.027 69.6657 56.3193C68.9031 55.7886 67.3027 55.2408 66.558 55.1985ZM59.7582 57.9026C59.3116 57.9052 58.0237 58.2791 57.5548 58.5136C56.9262 58.8261 56.0504 59.3583 54.8309 60.5194C53.1786 61.969 51.5667 65.2052 51.2918 65.6723C51.0205 66.1429 47.7329 71.3512 47.5371 73.6561C47.0287 76.5142 45.3847 77.4142 45.3847 77.4142C47.061 76.6138 49.7665 73.7727 51.2161 71.8216C53.3322 69.149 54.6549 66.4599 56.29 63.4508C57.0904 62.0699 58.7301 59.2998 59.8636 58.0426C59.9633 57.9421 59.9071 57.9017 59.7582 57.9026ZM120.216 59.9134C120.216 59.9134 119.626 60.5338 119.293 61.3445C118.963 62.1552 118.736 63.4376 118.736 63.4376C119.262 63.0391 119.595 62.8607 120.217 62.5927C120.217 62.5927 120.137 62.0841 120.116 61.4384C120.102 60.7891 120.216 59.9134 120.216 59.9134ZM64.1554 60.7405C62.9051 60.7955 59.7136 60.8233 59.3598 61.0534C59.0026 61.2905 58.6857 61.6659 58.1807 62.3906C58.1361 62.5143 57.1716 63.9054 57.3227 64.0325C60.5551 64.1081 65.3026 61.5314 68.3599 63.4035C68.6828 63.3313 68.6375 62.4997 68.6959 62.2524C68.6169 61.8711 68.7687 61.2461 68.3187 61.0469C67.0169 60.8682 65.5604 60.7715 64.1554 60.7405ZM111.645 61.7682C112.091 63.2006 112.248 63.6435 112.149 64.5332C111.994 66.7248 111.901 67.5837 110.153 70.0913C107.36 72.8737 112.6 77.9681 112.6 77.9681C112.6 77.9681 109.79 75.4836 108.405 73.5496C106.946 71.0111 108.563 66.5971 108.429 65.1095C108.288 63.6152 107.992 62.3757 107.992 62.3757C107.992 62.3757 107.897 65.4498 107.254 66.7827C106.605 68.1189 106.228 69.1878 106.121 70.5687C105.874 73.5228 106.755 75.7414 106.755 75.7414C105.392 74.2163 104.63 69.7672 104.661 67.6752C104.688 65.3566 102.994 63.904 102.994 63.904C102.994 63.904 103.105 65.4265 102.964 66.9655C102.83 68.501 102.437 68.747 102.276 70.9146C101.963 73.0718 106.821 78.7848 106.821 78.7848C106.821 78.7848 103.324 76.3778 102.022 72.5993C101.644 70.9162 98.5936 66.9754 98.5936 66.9754C98.5936 66.9754 99.0713 67.7064 98.9476 69.2316C98.8171 70.7567 97.8652 72.1834 98.4355 74.1276C99.387 76.1268 102.829 81.9591 108.545 82.5363C105.588 84.1714 96.7053 80.2934 94.8815 79.4897C95.7505 81.3137 103.16 86.2351 108.69 87.1556C104.486 88.9762 93.8511 83.683 89.6428 80.8697C92.4734 84.8784 96.7868 88.2046 96.7868 88.2046C95.643 89.0669 91.6866 88.4451 91.6866 88.4451C93.6824 91.1966 101.974 91.3023 101.974 91.3023C101.339 93.4012 94.6441 93.2093 94.6441 93.2093C98.1617 94.9372 101.689 94.3934 101.689 94.3934C101.373 95.2144 100.96 95.8296 99.3146 96.1456C96.9409 96.6918 94.2144 96.4454 94.2144 96.4454L97.4405 97.9736C97.4405 97.9736 93.1019 100.763 90.7248 103.089C88.3512 105.421 85.8049 111.545 83.3833 110.954C81.5936 111.6 79.925 110.893 79.3238 110.061C78.7158 109.24 76.8638 106.795 76.6543 104.604C76.4516 102.409 77.5407 96.7269 79.4506 93.8068C81.3537 90.887 82.879 88.9841 83.0061 79.3244C82.7828 72.4886 80.0689 67.3943 77.0116 64.8833C76.2868 64.1551 74.8782 63.1515 74.4969 63.0553C74.1157 62.9626 74.438 64.1817 74.3487 64.8652C74.2526 65.6381 73.8778 66.4141 74.1561 66.713C74.6679 67.5545 76.0668 67.7275 77.7363 74.4432C79.6874 84.9171 74.9752 88.8252 74.879 92.6651C74.1164 96.6017 74.3661 99.7756 74.6237 102.066C72.2089 96.7249 73.1644 90.9129 73.9716 85.8665C74.7788 80.8204 72.2505 75.5545 71.1753 74.8226C70.9726 74.723 70.6497 74.4688 70.4951 74.8226C69.9215 76.0558 69.3956 76.9018 69.0213 78.2003C73.5934 83.1983 69.6699 88.2813 69.0345 91.9019C68.399 95.5156 69.7983 102.698 70.6845 104.223C71.5743 105.742 76.6024 112.211 82.6239 112.602C80.3121 113.736 79.1371 113.791 76.9078 113.238C69.6735 111.407 66.3478 108.089 64.1117 108.157C61.2572 108.25 60.149 108.661 59.0017 109.108C57.8612 109.558 56.5898 110.124 55.573 111.272C54.5562 112.416 53.8686 113.622 53.666 114.824C53.666 114.824 55.0641 113.106 57.5442 111.907C61.9206 110.248 64.0194 110.441 67.0629 112.416C69.6048 113.423 73.4146 117.424 77.0966 116.538C77.2203 116.49 79.0518 116.528 79.0037 116.731C79.0037 116.831 77.1757 117.188 77.0966 117.236C74.1803 117.745 71.1747 116.012 68.2138 114.384C67.3894 113.934 65.6679 112.918 64.9053 113.175C64.1462 113.423 62.1167 114.701 60.6499 116.415C59.19 118.122 58.0463 120.476 58.0463 120.476C60.3341 120.919 60.7145 120.605 64.9053 117.108C66.3652 116.414 69.4538 116.469 72.3358 117.744C72.5248 118.067 72.6512 118.449 72.2699 118.761C70.8409 118.782 70.4573 118.441 69.6053 119.015C68.7569 119.592 68.6531 121.24 68.9038 121.11C69.4156 121.24 70.3051 120.417 72.5894 120.606C73.7985 120.919 68.9862 122.306 67.3854 122.378C63.8678 122.309 62.9368 122.193 61.6693 123.402C60.3983 124.601 59.8252 126.068 58.616 127.401C59.3202 127.322 62.4902 125.308 63.1909 124.985C63.8883 124.665 68.0176 124.986 70.6214 124.408C73.2252 123.842 74.4966 123.082 75.1321 122.508C75.1321 122.508 74.936 124.35 73.8196 126.8C73.8711 126.978 78.2512 122.965 78.5707 122.137C78.4677 122.385 77.4742 124.707 78.3879 127.486C78.6662 129.637 79.0726 129.73 78.4818 133.155C80.6287 131.101 81.7718 128.17 81.8611 126.212C81.9504 124.243 81.5868 122.138 82.0883 120.087C82.4559 118.627 83.8084 116.206 83.8702 116.247C83.7122 117.068 82.5481 119.035 82.5001 121.505C82.4554 123.975 83.462 127.716 84.0563 128.218C84.3723 128.448 84.922 127.264 84.6953 126.436C84.4686 124.199 84.1457 120.974 84.6953 120.682C84.9186 120.754 85.7873 121.729 86.021 123.058C86.5225 124.15 86.0218 125.157 86.8428 125.981C86.8702 125.954 87.3891 125.112 87.4784 123.511C87.5712 121.914 87.0727 121.227 86.8872 120.496C86.7017 119.771 86.6534 116.8 86.6534 116.8C86.6534 116.8 89.1669 118.7 90.115 119.084C91.07 119.459 94.7354 122.093 95.8312 123.776C96.7209 122.378 95.4307 121.004 93.5174 119.129C92.6002 117.895 90.3602 117.067 89.766 114.422C88.6152 110.235 94.3792 101.081 97.5291 101.129C96.3475 103.32 97.2574 106.013 97.2574 106.013C97.2574 106.013 97.7391 102.821 100.278 100.664C103.582 97.3528 107.701 95.6591 108.882 95.1061C107.786 95.0134 107.5 95.0626 107.308 94.6779C106.93 93.9669 108.115 91.5543 112.145 90.3451C110.527 91.1077 109.094 91.675 108.62 93.0146C108.239 94.0142 108.785 94.3913 108.785 94.3913C108.785 94.3913 109.738 93.4885 110.359 93.059C110.981 92.6296 112.681 92.3201 112.695 92.3476C112.839 92.6774 112.739 92.9597 112.546 93.2517C112.354 93.5369 111.821 93.537 111.389 94.248C111.134 94.6912 110.99 95.46 111.231 95.7417C111.471 96.0337 112.502 95.8032 113.072 95.2296C113.79 94.1372 113.642 94.5396 113.834 93.2995C114.071 91.8189 115.168 91.534 115.168 91.534C115.168 91.534 114.979 94.1032 115.409 94.5395C115.642 93.1517 116.357 93.2517 116.357 93.2517C116.357 93.2517 116.312 95.7218 116.93 95.9657C117.023 94.6329 117.838 94.7257 117.838 94.7257C117.838 94.7257 117.981 96.8684 118.376 97.023C118.548 96.3016 119.022 95.5837 119.022 95.5837C119.022 95.5837 119.552 97.4396 119.881 97.7213C120.122 97.2507 120.787 96.5323 120.787 96.5323C120.787 96.5323 121.045 99.751 123.188 100.891C122.432 96.0067 122.9 95.6764 123.577 95.3845C123.577 95.3845 124.027 99.7506 128.616 102.141C128.616 102.141 127.421 99.8739 126.999 98.4311C126.58 97.0021 125.85 93.6877 127.108 92.4202C127.458 91.9702 125.456 92.6503 126.342 92.1419C127.235 91.6335 130.839 90.2286 131.011 90.5C131.234 90.8297 131.055 91.7332 130.979 92.0595C130.979 92.0595 133.553 90.3451 135.167 89.8676C136.792 89.397 143.314 88.5864 143.314 88.5864C143.599 88.5864 145.032 87.1547 144.984 86.7699C144.932 86.3921 144.153 85.4885 144.221 85.2515C144.379 84.7122 147.997 82.5989 146.743 82.6298C143.218 82.1488 139.406 82.5032 137.173 81.2974C134.528 79.8651 133.953 77.4809 133.029 75.8218C133.211 76.3851 132.267 77.1541 132.267 77.1541C132.267 77.1541 130.281 75.8455 129.742 74.8699C130.12 75.9451 129.742 77.1969 129.742 77.1969C126.757 75.3214 126.551 74.0564 126.551 74.0564C126.423 74.503 127.359 77.4818 127.359 77.4818C127.359 77.4818 124.439 75.966 122.453 71.5829C121.629 70.0749 120.647 65.4336 120.647 65.4336C119.455 67.3092 119.309 67.9187 119.309 67.9187C119.309 67.9187 118.306 71.4793 119.594 73.6744C120.597 75.1515 122.978 77.008 123.552 77.1969C124.929 78.2 123.833 78.0549 123.833 78.0549C123.833 78.0549 119.88 76.9139 118.784 76.8693C117.692 76.8177 117.167 77.1554 115.642 76.726C114.12 76.2966 113 74.4897 113.124 72.7275C113.261 70.5668 114.03 70.3604 114.264 69.5359C115.064 68.2031 115.295 65.3217 113.89 63.6798C113.45 63.1096 112.722 62.4291 111.643 61.7662L111.645 61.7682ZM92.594 62.1552C92.594 62.1552 92.8828 62.9762 92.3091 64.1545C91.7664 65.1094 90.2752 65.6397 90.1172 67.8038C89.8974 70.6927 92.4672 71.8978 92.4672 71.8978C92.4672 71.8978 91.5453 70.4996 91.7377 69.1427C92.119 67.1675 93.5797 66.4091 93.6381 65.1656C93.7068 63.9324 92.594 62.1552 92.594 62.1552ZM128.337 62.3891C128.337 62.3891 127.197 63.7741 126.857 64.5333C126.53 65.3027 126.383 66.2984 126.603 68.1052C126.792 69.4587 127.362 69.8261 127.362 69.8261C127.778 68.7509 128.8 68.644 128.79 67.1566C128.838 65.8204 128.482 65.6727 128.293 64.436C128.148 63.5292 128.337 62.3891 128.337 62.3891ZM121.521 62.8633C121.521 62.8633 119.313 63.8177 118.262 64.996C117.135 66.0231 116.365 67.4191 116.169 67.8038C115.492 68.8619 115.205 70.916 115.421 72.3244C115.641 73.7293 116.663 75.7417 117.457 76.0577C118.25 76.3772 118.835 76.0926 119.882 76.443C120.933 76.7831 122.074 77.1084 122.074 77.1084C121.205 76.308 118.766 74.3814 118.567 73.3783C118.532 73.289 117.958 71.7083 118.25 69.2316C118.563 66.5007 121.521 62.8633 121.521 62.8633ZM50.4749 63.0132C49.1043 63.0922 47.2701 64.3553 45.3911 65.6366C42.0591 68.7659 38.404 71.5207 34.3953 73.2004C33.8937 73.5233 33.2653 73.5477 32.7913 73.874C35.5669 73.9977 38.0233 73.1017 40.3832 72.0197C43.966 70.4704 48.8343 66.5298 49.6514 65.5954C50.0807 65.2073 50.4167 64.1283 50.8667 63.3244C50.8667 63.3244 51.1379 62.9754 50.4749 63.0132ZM58.2561 68.0097C58.2561 68.0097 58.2862 68.5834 58.3961 69.0093C58.5576 69.607 59.3986 70.4113 59.9688 70.9163C60.7314 71.6102 63.92 73.4858 63.9887 73.235C64.2086 72.4656 64.4149 71.9949 64.8237 71.1979C65.0813 70.8819 62.2565 70.4858 60.7313 69.8228C59.3676 69.2251 58.2561 68.0097 58.2561 68.0097ZM56.2931 70.0105C56.2657 69.9521 55.9902 70.2675 55.5883 70.7862V82.4971C57.0551 83.057 58.2236 83.8747 59.2129 84.8125C59.3435 84.4347 59.6897 83.1052 60.1088 81.4942V73.8793C59.4699 73.4774 58.8591 73.1091 58.7321 73.0164C57.8768 72.4015 56.8359 71.1923 56.2931 70.0105ZM146.193 79.1362C145.467 79.1356 144.931 79.3603 144.839 79.9679C144.695 80.9366 145.838 81.5406 145.838 81.5406C145.838 81.5406 147.312 81.6359 149.122 82.7214C150.933 83.8206 151.932 84.9314 151.932 84.9314C151.932 84.2787 151.85 83.4874 151.602 82.9618C151.125 81.5397 149.026 79.682 147.648 79.3454C147.131 79.2178 146.628 79.1366 146.193 79.1362ZM148.03 83.1973C147.491 83.3004 145.076 85.2035 145.076 85.3958C144.98 85.729 145.41 86.3932 145.699 86.7264C145.984 87.0631 146.455 87.4569 146.843 87.395C147.221 87.3332 147.804 86.7592 147.872 86.6424C147.993 86.481 147.756 86.5463 147.54 86.481C146.698 86.3368 146.671 84.946 147.65 84.5098C148.258 84.235 149.247 84.293 150.016 85.4781C150.515 86.1445 151.401 86.578 151.576 86.6226C151.755 86.6501 152.054 86.2748 152.006 86.0825C151.91 85.6805 151.16 85.258 150.779 84.8424C150.398 84.4267 148.559 83.108 148.03 83.1973ZM51.9758 84.7968C48.7365 84.8243 45.8123 87.1838 44.16 90.0041L44.3115 90.0354C45.6134 89.3587 46.9431 88.7328 48.5438 88.7328C54.0606 88.6847 57.8145 93.0884 61.2741 96.8533L61.2988 96.6441C60.975 95.5716 58.4194 84.8169 51.975 84.7967L51.9758 84.7968ZM148.697 86.7582C148.387 86.8254 147.809 87.3664 147.361 87.7331C146.128 88.4442 145.651 87.3127 145.459 87.4432C145.27 87.5669 144.565 88.4741 144.792 88.6356C145.012 88.7902 147.139 88.5336 148.217 88.5714C149.299 88.6023 150.22 88.7912 150.571 88.5714C150.917 88.3446 150.676 88.1032 151.239 87.3132C151.816 86.5128 150.09 87.1342 148.812 86.7598C148.78 86.7482 148.741 86.7486 148.697 86.7582ZM148.229 89.1708C147.864 89.1635 147.544 89.1654 147.331 89.1758C146.476 89.2101 144.535 89.361 143.965 89.7423C143.649 89.9003 142.759 91.8403 143.175 92.5995C143.583 93.3587 144.191 93.4624 145.424 93.4246C147.52 93.4933 149.742 90.8232 150.79 90.4076C151.236 90.126 151.14 89.6771 150.951 89.4607C150.807 89.2933 149.322 89.1928 148.229 89.1708ZM55.5891 95.0895V95.5522C55.7231 95.5385 55.8569 95.5176 55.9909 95.5176C55.8569 95.3734 55.7231 95.2337 55.5891 95.0895ZM112.003 96.6325C111.811 96.6146 111.613 96.6157 111.405 96.6342C109.739 96.7785 108.354 98.2521 107.169 99.1144C107.169 99.1144 107.678 97.9326 108.273 97.1562C108.273 97.1562 103.322 98.8941 100.532 102.443C99.0039 104.352 98.1174 106.506 97.2586 108.852C96.4788 107.701 95.6577 104.878 96.0218 103.05C95.4275 102.817 93.5216 105.074 93.2914 106.441C93.0612 107.815 94.6895 109.873 94.6895 109.873C93.0372 109.426 92.2753 107.777 92.2753 107.777C92.2753 107.777 91.705 108.859 91.9558 109.937C92.2168 111.016 93.4807 112.284 93.4807 112.284C92.3884 112.878 91.1307 111.079 91.1307 111.079C91.1307 111.079 90.2417 113.681 91.1966 115.141C93.6732 117.683 94.8126 118.378 96.7843 121.366C97.7358 122.699 99.0686 123.085 98.945 126.07C98.6255 131.528 100.149 130.699 100.149 130.699C100.149 130.699 99.9588 128.668 100.532 128.545C100.532 128.545 100.976 130.511 101.801 131.72C102.625 132.926 103.96 134.13 104.977 133.941C105.991 133.749 106.142 133.155 106.688 132.286C107.513 130.967 107.139 126.893 107.2 126.577C107.262 126.257 108.657 125.942 107.434 125.317C106.459 124.815 105.923 124.118 105.992 123.72C105.992 123.72 108.213 124.795 108.213 122.954C108.464 121.243 106.565 120.857 106.053 120.418C103.638 118.449 101.677 114.95 101.038 114.95C101.038 114.95 100.147 115.083 100.024 114.568C99.8931 114.067 100.849 113.809 101.608 114.451C102.374 115.083 103.322 116.54 104.724 117.811C106.122 119.085 106.881 119.652 107.836 119.652C107.836 119.652 106.565 118.7 106.881 117.811C106.881 117.811 108.532 119.91 109.546 120.607C110.569 121.301 112.851 121.875 112.851 121.875C112.535 122.452 110.693 121.875 110.693 121.875C110.693 121.875 115.902 125.941 119.076 127.343C122.25 128.734 126.172 129.164 127.741 128.683C129.314 128.212 126.028 127.876 125.162 127.44C123.046 126.602 121.458 125.877 118.26 124.111C115.069 122.353 112.452 119.212 112.452 119.212C112.452 119.212 116.07 121.535 118.12 121.401C118.028 121.875 116.742 121.967 116.742 121.967C116.742 121.967 117.674 122.634 121.603 124.359C125.536 126.083 129.35 127.062 134.313 128.35C139.274 129.645 143.839 129.493 145.999 128.611C143.203 128.48 137.381 126.801 133.427 125.561C128.604 123.908 124.784 122.129 121.882 120.332C121.346 120.04 121.513 119.466 122.056 119.652C122.602 119.834 123.833 120.352 126.949 121.62C130.064 122.891 136.79 124.725 141.935 125.495C145.806 126.316 152.724 126.484 155.458 126.542C158.715 126.559 157.366 125.289 156.6 125.21C155.833 125.131 148.218 124.259 142.317 123.112C136.409 121.968 130.346 119.683 126.44 118.003C125.932 117.746 126.059 116.86 126.949 117.111C129.295 118.004 134.501 119.652 137.617 120.477C140.726 121.301 144.536 122.129 148.352 122.634C152.161 123.143 154.51 123.605 159.14 122.825C159.566 122.825 162.57 122.225 160.952 121.875C159.334 121.528 153.868 120.505 151.858 119.989C149.849 119.474 143.838 117.98 138.634 116.077C132.028 113.792 128.775 111.223 126.113 108.873C123.32 106.63 120.468 102.067 117.246 99.7797C114.427 97.7809 113.344 96.7582 112.001 96.6326L112.003 96.6325ZM159.891 97.2518C158.177 97.7361 150.596 99.1105 147.01 99.2823C143.252 99.351 139.495 99.3033 135.788 99.032C133.761 98.8774 128.254 97.3869 128.772 98.3831C129.562 99.7812 132.214 102.457 132.527 104.336C132.836 106.219 132.454 108.859 132.214 110.851C132.417 111.281 135.592 110.264 136.55 110.127C137.546 109.787 137.447 109.005 138.423 108.458C139.048 108.218 141.129 107.83 142.125 107.775C142.362 107.878 143.877 106.383 144.114 105.954C144.396 105.662 141.731 106.091 140.824 105.902C140.209 105.854 140.881 105.277 141.214 105.277C141.547 105.277 144.396 105.569 144.681 105.38C144.969 105.191 146.368 103.959 145.99 103.814C145.609 103.67 143.747 103.875 143.269 103.73C142.792 103.583 143.217 103.254 143.839 103.254C144.457 103.254 150.145 103.439 151.052 103.347C151.763 103.347 152.825 102.554 153.086 101.774C153.23 101.348 148.919 101.557 147.889 101.629C146.858 101.718 142.526 101.834 139.771 101.611L139.546 101.461C139.518 101.385 139.546 101.316 139.625 101.316C145.111 101.44 153.134 100.485 158.17 99.111C159.478 98.6095 159.747 98.1724 159.891 97.2518ZM40.4381 98.3504C40.4381 98.3504 39.2937 100.205 37.0094 100.35C35.735 100.411 34.4848 99.6761 34.4848 99.6761C34.4848 99.6761 35.0068 102.012 37.0094 102.115C38.9605 102.067 40.153 100.013 40.4381 98.3504ZM56.6827 98.7407C55.7355 98.7707 54.7899 98.904 53.9407 99.159C50.9281 100.08 49.149 100.939 46.2944 103.512C45.8857 104.041 45.1885 104.597 45.0099 105.242L45.4381 105.017C49.4022 102.217 55.3142 100.41 66.746 107.652C66.746 107.652 63.6578 101.697 62.428 100.282C61.653 99.3976 59.7109 98.8271 57.6259 98.744C57.3131 98.7315 56.9984 98.7307 56.6827 98.7407ZM55.5826 105.648V107.591C56.3864 107.082 57.2227 106.663 58.0677 106.316C57.2536 106.021 56.4208 105.792 55.5826 105.648ZM92.4597 114.451C92.4597 114.451 93.7317 115.393 94.8756 115.393C94.8756 115.393 94.1129 115.965 93.4774 115.584C92.8454 115.203 92.4597 114.451 92.4597 114.451ZM57.8069 115.248C56.9584 115.695 56.2123 116.352 55.5837 117.028V118.553C55.7417 118.33 55.8972 118.102 56.0415 117.82C56.4881 116.975 57.0924 116.103 57.8069 115.248ZM55.5837 123.263V126.313C56.7757 125.406 57.2955 124.595 58.1165 123.448C57.457 123.458 56.621 123.414 55.5837 123.263Z" fill="#73000A"/>
<path d="M55.5859 117.026C54.2222 118.506 53.4424 120.131 53.4424 120.131C53.4973 120.093 53.9199 120.179 54.2084 119.987C54.4317 119.832 55.0191 119.358 55.5859 118.551V117.026Z" fill="black"/>
<path d="M113.956 101.879C113.956 101.879 113.776 102.925 114.027 103.379C113.913 103.152 114.378 104.214 115.402 104.65C115.845 104.846 117.006 104.517 117.006 104.517C116.106 104.39 115.758 104.063 115.181 103.575C114.278 102.764 113.956 101.879 113.956 101.879ZM111.487 104.836C111.487 104.836 111.37 106.486 111.82 107.18C111.737 107.029 113.143 108.955 114.774 109.471C115.513 109.701 116.752 108.53 116.752 108.53C115.32 108.726 115.285 108.472 113.709 107.338C112.132 106.191 111.487 104.836 111.487 104.836ZM115.222 105.472C115.154 105.568 116.014 106.221 116.106 106.682C116.223 107.311 116.508 107.638 117.315 108.156C118.123 108.665 117.079 107.581 116.986 106.832C116.886 106.083 116.141 105.774 115.663 105.589C115.371 105.47 115.245 105.44 115.222 105.472ZM108.371 106.318C108.296 106.388 109.437 107.145 109.504 107.931C109.601 108.975 110.026 109.168 111.077 109.834C112.128 110.501 110.599 109.268 110.647 108.117C110.702 106.976 109.56 106.738 108.938 106.501C108.557 106.348 108.397 106.295 108.371 106.318ZM121.07 108.293C120.782 108.54 120.741 110.233 123.547 111.583C125.928 112.731 128.021 112.587 127.925 112.058C127.925 112.058 125.591 111.584 124.022 110.732C122.448 109.87 121.07 108.293 121.07 108.293ZM107.486 110.23C107.283 110.25 107.125 110.32 107.066 110.473C107.066 110.473 107.588 110.999 107.636 111.387C107.687 111.765 107.973 112.099 107.066 112.143C106.159 112.191 102.728 110.954 102.728 110.954C102.728 110.954 106.067 113.239 107.689 113.339C109.403 113.239 108.403 111.526 108.211 111.048C108.018 110.571 109.116 110.571 109.116 110.571C109.116 110.571 108.096 110.17 107.486 110.23ZM115.733 112.588C115.733 112.588 116.021 113.585 116.835 114.204C117.783 115.014 121.209 116.395 122.164 116.395C123.119 116.395 123.449 114.824 123.449 114.824C121.831 115.584 121.352 115.155 119.071 114.396C116.78 113.637 115.733 112.588 115.733 112.588ZM92.46 114.449C92.46 114.449 92.8406 115.202 93.4761 115.584C94.1116 115.965 94.8742 115.391 94.8742 115.391C93.7304 115.391 92.46 114.449 92.46 114.449ZM112.161 115.584C112.02 116.539 112.498 116.867 113.827 117.492C114.686 117.918 115.593 118.54 116.877 117.492C116.877 117.492 116.021 117.445 114.452 116.916C112.875 116.394 112.161 115.584 112.161 115.584ZM96.6758 118.291C96.6758 118.291 96.9529 119.311 97.1831 119.531C97.4098 119.744 97.8022 119.861 98.0048 119.775C98.3483 119.771 98.96 118.857 98.96 118.857C98.96 118.857 98.5542 119.376 97.7298 119.129C96.9054 118.878 96.6758 118.291 96.6758 118.291ZM101.211 121.884C101.187 122.138 101.176 123.646 100.592 123.536C100.011 123.433 99.1147 122.268 99.1147 122.268C99.1147 122.268 99.7647 123.914 100.778 124.223C101.888 124.422 101.239 121.644 101.211 121.884ZM103.905 127.513C103.94 127.76 103.986 128.818 103.392 128.849C102.804 128.883 101.234 127.808 101.234 127.808C101.234 127.808 102.676 129.409 103.737 129.475C104.854 129.409 103.878 127.266 103.905 127.513Z" fill="black"/>
<path d="M121.621 79.6191C121.621 79.6191 117.949 79.6878 116.215 80.4607C114.875 81.0618 112.364 82.7386 112.495 83.2504C112.625 83.7519 113.475 83.8237 115.11 83.8993C116.748 83.9817 119.066 83.0923 119.066 83.0923C119.066 83.0923 116.167 83.1606 116.126 82.6213C116.085 82.0717 116.868 81.4121 117.916 80.8625C118.967 80.3198 121.621 79.6191 121.621 79.6191ZM128.184 81.2495C128.184 81.2495 125.095 82.6135 123.174 83.0429C121.261 83.4723 119.387 83.3558 119.387 83.3558C119.387 83.3558 120.045 83.8672 120.045 84.4477C120.045 85.0351 119.108 86.8801 119.108 86.8801C119.108 86.8801 121.963 85.8596 124.072 84.8051C125.954 83.8982 128.263 82.572 128.184 81.2495ZM128.253 85.5988C127.895 85.5547 127.15 85.76 126.908 85.943C125.75 86.6059 124.364 87.6703 122.977 88.1546C121.596 88.6458 116.788 89.2086 116.788 89.2086C119.388 89.4078 122.198 90.7583 122.198 90.7583C122.198 90.7583 121.164 92.0024 119.742 93.3042C119.742 93.3042 122.837 92.0777 124.503 90.8274C125.925 89.8071 128.205 86.2661 128.449 85.7371C128.449 85.6572 128.373 85.6135 128.253 85.5988Z" fill="black"/>
<path d="M70.1786 93.8707C69.9863 99.6554 72.5867 100.48 72.5867 100.48C70.9962 95.7188 71.5081 89.1095 73.0332 84.7916C73.0332 84.7916 70.3676 88.0925 70.1786 93.8707Z" fill="white"/>
<path d="M79.3837 89.9336C80.5757 88.082 81.4791 84.8565 81.4928 79.7278C81.51 74.5992 79.6344 68.8491 76.2749 66.5026C79.3184 71.1983 81.2248 80.092 78.5592 86.6941C78.2501 87.491 74.4955 94.1929 76.1478 97.1748C76.9035 94.1279 77.9203 92.1561 79.3837 89.9336Z" fill="white"/>
<path d="M48.2334 87.0539C51.3868 86.5078 53.8532 87.1432 57.1854 89.6543C57.1854 89.6543 54.9973 85.9134 52.0259 85.6833C49.7896 85.5975 48.2334 87.0539 48.2334 87.0539Z" fill="white"/>
<path d="M50.0182 101.774C53.3984 100.994 58.2418 100.674 61.031 102.196C61.031 102.196 59.6569 99.8534 56.9604 99.8087C54.2638 99.7606 50.0182 101.774 50.0182 101.774Z" fill="white"/>
</svg>
