<svg width="201" height="201" viewBox="0 0 201 201" fill="none" xmlns="http://www.w3.org/2000/svg">
<g clip-path="url(#clip0_15016_302839)">
<path d="M106.181 46.0278C104.609 46.0213 103.109 46.0899 101.697 46.2391C99.3345 46.4875 97.1006 46.7036 96.7296 46.7205C95.4553 46.7762 96.0683 47.5576 98.028 48.3617C99.9474 49.1521 99.8668 49.169 94.1327 49.1892C87.2454 49.2117 84.4147 49.9545 77.804 53.4748C67.0093 59.2209 64.5866 60.2403 60.8647 60.6137L57.2339 60.9774L59.8203 62.9904C61.2438 64.0977 62.6486 65.005 62.9422 65.005C63.6374 65.005 55.1186 70.9084 51.3725 73.023C46.8981 75.5481 42.5391 76.8505 37.3994 77.1973C34.8155 77.3715 32.7009 77.6917 32.7009 77.9086C32.7009 78.5296 36.7599 82.037 38.5479 82.962C39.4366 83.4217 40.7302 83.7967 41.4213 83.7967C43.6803 83.7967 48.9982 82.1902 53.0282 80.2893C57.3331 78.2586 59.3397 76.8231 65.4528 71.402C69.0908 68.1761 73.503 65.005 74.3514 65.005C74.5313 65.005 73.4917 65.9429 72.0417 67.0889C68.6956 69.7342 65.7842 73.0956 63.7503 76.661C59.034 84.9298 40.7641 88.7703 24.7023 84.8709C22.2223 84.2693 20.0965 83.8741 19.9771 83.9935C19.4731 84.4975 25.5491 91.0486 28.5927 93.2825C30.4097 94.6156 31.9823 95.9415 32.0864 96.2294C32.4017 97.0947 22.4361 106.481 19.1464 108.418C14.8713 110.935 10.2824 112.703 5.14679 113.813L0.753906 114.761L3.43786 115.97C8.69368 118.334 17.1109 120.87 22.2828 121.646C25.1708 122.079 27.6128 122.354 27.7096 122.258C27.8064 122.161 28.2475 120.656 28.6903 118.913C29.8 114.548 32.7735 108.703 35.3566 105.811L37.5148 103.395L35.9034 107.031C33.6017 112.222 32.5598 117.135 32.5186 122.993C32.4622 131.014 34.5243 137.377 39.3826 144.191C41.6722 147.393 48.7288 154.393 49.199 153.926C49.3216 153.805 49.128 152.216 48.7708 150.401C48.0474 146.724 48.3603 139.853 49.3805 137.022L50.0321 135.215L52.529 140.046C55.129 145.079 56.5267 147.127 60.5639 151.853L62.9736 154.676H74.6192L74.2522 151.909L73.8853 149.143L76.5499 151.909C79.1379 154.595 79.3056 154.676 82.2291 154.676H85.2453L84.7373 152.926C82.6243 145.708 82.0275 132.03 83.455 123.735C84.3179 118.741 85.8341 112.792 86.2373 112.792C86.3663 112.792 87.5841 113.444 88.9471 114.243C91.1407 115.528 91.3746 115.574 90.9713 114.646C90.7213 114.069 90.4068 111.726 90.2778 109.44L90.0358 105.285L92.5843 104.193C96.907 102.341 104.165 101.355 111.061 101.683L117.206 101.976L114.335 100.404C95.6812 90.205 98.149 75.5916 118.746 74.2827C121.327 74.119 123.44 73.7956 123.44 73.5649C123.44 73.0198 118.884 71.5471 116.464 71.3124L114.585 71.1294L116.19 70.3874C117.077 69.9793 119.924 69.543 122.513 69.4188L127.223 69.1922L130.303 66.1082C132.247 64.1662 134.182 62.7783 135.529 62.3622C136.707 61.9984 137.989 61.6008 138.376 61.4766C138.916 61.3073 138.804 60.8508 137.941 59.6371C137.312 58.7499 136.892 58.0241 137.013 58.0241C137.755 58.0241 143.521 60.2621 146.005 61.5097C150.788 63.917 153.731 66.3631 156.917 70.5971C159.828 74.4738 162.917 77.3546 164.151 77.3546C165.248 77.3546 157.111 65.3445 153.885 62.1984C151.53 59.9016 149.215 58.3846 144.739 56.2079C131.634 49.8359 117.182 46.0713 106.181 46.0278ZM103.109 54.1603C105.94 54.195 108.746 54.5587 110.827 55.2442L114.045 56.3071L111.899 56.3684C109.415 56.4402 103.851 57.6806 101.778 58.6241C99.9555 59.4532 99.9232 60.3976 101.73 59.9443C102.488 59.754 103.915 59.7516 104.915 59.9379L106.722 60.2782L102.488 63.4727C95.4392 68.7841 89.2616 76.8142 85.2937 85.8161C84.1646 88.3977 82.6243 92.5631 81.8904 95.0737C80.7371 98.9787 80.5436 99.34 80.5194 97.5746C80.471 94.3463 82.5517 85.0008 84.2695 80.7095C86.2292 75.8086 89.0197 71.3697 92.1891 68.1051C93.544 66.7091 94.5118 65.43 94.3424 65.2623C93.8424 64.755 89.0197 66.1203 85.4873 67.7712C83.6646 68.6253 80.9146 70.3148 79.3774 71.5278L76.5878 73.7335L77.5975 71.9689C80.6162 66.7002 87.7132 61.1549 93.915 59.2169L96.8667 58.2935L94.1811 58.1451C92.7053 58.0636 90.2294 58.3306 88.6729 58.7378C87.1244 59.1451 85.8583 59.3967 85.8583 59.2967C85.8583 58.8395 92.4069 55.8773 95.2376 55.0547C97.4151 54.4216 100.27 54.1256 103.109 54.1603ZM147.578 65.7469C147.215 65.7026 147.094 65.9002 147.296 66.3865C147.465 66.8083 147.739 67.4857 147.901 67.8922C148.118 68.4107 147.602 68.7438 146.199 69.0075C145.094 69.2148 143.231 69.7697 142.054 70.2414L139.908 71.0995L142.578 71.9673C144.038 72.4455 146.191 73.4254 147.36 74.1456C148.522 74.8666 150.328 75.5126 151.36 75.5827C152.401 75.6521 154.215 76.0626 155.393 76.4941C156.57 76.9263 157.732 77.2965 157.973 77.3167C159.062 77.411 155.135 71.6165 152.377 69.0664C150.272 67.1155 148.36 65.8445 147.578 65.7469ZM76.7418 80.3539L73.8708 86.0032C70.8207 92.0067 68.119 99.7351 66.7593 106.348C65.6883 111.554 65.1616 128.449 65.9052 133.715C66.2165 135.917 66.3996 137.796 66.3117 137.885C65.9536 138.24 63.7084 129.659 62.9438 125.017C61.847 118.349 62.2527 107.684 63.8261 101.853C65.9149 94.1108 69.9852 86.8242 74.8031 82.2088L76.7418 80.3539ZM185.592 90.8615C185.52 90.8469 185.471 90.8502 185.447 90.8752C185.318 91.001 186.294 92.7043 187.6 94.6608C189.81 97.948 189.947 98.3464 189.399 99.9198C189.052 100.903 188.939 102.944 189.133 104.753L189.455 107.884L187.528 108.52C183.294 109.919 177.108 107.996 161.559 100.445C155.51 97.5044 149.107 94.5938 147.333 93.9769C142.728 92.3744 137.268 92.0397 133.518 93.1293C129.55 94.2833 125.364 97.7577 127.945 97.7577C128.373 97.7577 128.84 98.5835 129.058 99.7343C129.647 102.863 134.365 107.043 141.978 111.181C147.752 114.314 149.043 115.312 154.656 120.936C160.616 126.917 160.809 127.167 158.696 126.417C155.68 125.357 154.398 124.454 150.018 120.32C140.946 111.754 132.824 108.352 121.292 108.284C116.259 108.255 114.372 108.478 111.106 109.497C106.565 110.911 102.856 112.677 100.88 114.357L99.549 115.497L103.307 115.195C105.372 115.028 107.727 115.084 108.533 115.319L110.001 115.745L107.34 117.892C105.88 119.074 102.106 122.41 98.9603 125.305C95.807 128.199 91.7826 131.546 90.0245 132.739L86.8228 134.917L87.1777 137.409C87.9599 142.877 92.1456 149.353 97.3473 153.143C98.6377 154.087 100.114 154.676 101.202 154.676H102.968L101.162 150.772C100.17 148.627 99.178 146.159 98.9603 145.288L98.5651 143.708L100.896 145.554C103.138 147.329 103.21 147.345 102.831 146.071C102.614 145.337 102.299 141.514 102.122 137.578L101.807 130.417L106.848 125.329C115.993 116.103 120.001 114.107 128.542 114.534C135.211 114.869 138.542 116.247 143.357 120.66C148.422 125.311 152.97 128.175 157.244 129.417C161.543 130.667 166.406 131.223 167.398 130.578C167.898 130.255 168.761 130.522 170.043 131.393C172.535 133.086 173.043 132.514 173.059 127.965C173.084 122.238 172.027 120.63 166.6 118.132C161.72 115.887 158.244 113.01 154.962 108.497C153.785 106.872 151.841 104.516 150.639 103.261C149.438 102.006 148.76 100.979 149.139 100.979C150.93 100.979 158.551 104.03 165.721 107.618C179.705 114.612 184.318 115.798 190.383 113.952C197.109 111.902 200.754 108.689 200.754 104.809C200.754 103.513 199.988 102.501 196.592 99.3609C192.576 95.635 186.649 91.084 185.592 90.8615ZM135.47 96.1479C136.494 96.1479 136.703 96.3665 136.478 97.2205C136.155 98.4528 135.736 98.5633 134.824 97.6504C133.832 96.6584 134.05 96.1479 135.47 96.1479ZM141.373 97.2205C141.413 97.2205 141.889 98.0391 142.429 99.04C143.357 100.763 143.365 100.931 142.494 102.261C141.986 103.032 141.421 103.657 141.228 103.645C140.784 103.622 136.728 99.3166 136.953 99.1061C137.115 98.9577 141.179 97.2205 141.373 97.2205ZM145.034 103.759C145.139 103.766 145.22 103.788 145.26 103.825C145.405 103.975 145.454 104.872 145.357 105.818L145.188 107.538L143.583 106.046L141.978 104.554L143.478 104.053C144.099 103.847 144.704 103.737 145.034 103.759ZM148.236 108.513C149.228 108.501 149.785 108.84 150.026 109.61C150.567 111.296 150.035 111.381 148.333 109.883L146.792 108.53L148.236 108.513ZM167.535 122.171C168.148 122.185 168.124 122.754 167.656 124.006C167.196 125.227 167.253 125.625 167.946 126.102C168.696 126.61 168.648 126.691 167.6 126.723C166.938 126.739 166.39 126.53 166.39 126.255C166.39 125.973 165.93 125.604 165.366 125.425C163.47 124.821 163.616 123.584 165.688 122.717C166.559 122.353 167.164 122.162 167.535 122.171Z" fill="#630000"/>
</g>
<defs>
<clipPath id="clip0_15016_302839">
<rect width="200" height="200" fill="white" transform="translate(0.753906 0.351562)"/>
</clipPath>
</defs>
</svg>
