<svg width="201" height="201" viewBox="0 0 201 201" fill="none" xmlns="http://www.w3.org/2000/svg">
<g clip-path="url(#clip0_15016_302039)">
<path d="M59.9552 31.271C24.1175 45.4966 0.0433915 72.8536 0.864101 103.493C1.68481 135.228 28.7682 162.037 67.3416 173.801C33.9661 160.122 10.9862 133.86 10.1655 103.22C9.61834 73.4008 29.3154 46.8645 59.9552 31.271Z" fill="#BF0D3E" stroke="#BF0D3E" stroke-width="2.09516" stroke-miterlimit="15.5025"/>
<path d="M103.178 27.9881C96.8861 27.9881 81.8397 28.5352 65.9726 34.2802C58.8598 32.0916 58.3127 35.9216 58.3127 37.563C42.1721 45.4965 26.5786 59.7222 20.2865 85.7113C20.2865 85.7113 6.06084 149.453 75.5476 170.518C75.5476 170.518 72.2648 163.952 72.5383 156.019C72.8119 148.359 78.2833 139.878 79.3776 140.425C84.849 142.887 90.0468 145.897 93.3297 147.812C96.6125 149.727 110.565 159.849 127.526 162.584C134.912 163.952 131.903 163.679 139.289 164.226C145.308 164.773 153.789 164.773 160.354 159.849C163.364 157.387 168.288 147.265 169.929 143.435C169.929 143.435 169.109 122.37 183.061 101.852C183.061 101.852 196.466 95.5598 195.371 85.4378C195.371 85.4378 199.201 80.5135 200.843 76.1364C200.843 76.1364 191.268 67.6557 180.872 60.2693C180.872 60.2693 181.146 58.9015 181.693 56.9865C181.693 56.9865 174.58 49.8737 157.071 40.5723C157.071 40.5723 134.912 27.7145 106.187 27.4409C106.187 27.9881 105.093 27.9881 103.178 27.9881Z" fill="#00205B" stroke="#00205B" stroke-width="4.19032" stroke-miterlimit="15.5025"/>
<path d="M101.263 31.2706C101.263 31.2706 86.4899 31.2706 74.1793 35.3741C74.1793 35.3741 95.2442 38.3834 96.0649 38.3834C96.0649 38.3834 77.4621 37.8363 75.5471 37.5627C75.5471 37.5627 63.2365 35.9213 62.1422 35.9213C62.1422 35.9213 59.4065 35.3741 60.2272 38.657C60.2272 38.657 62.9629 46.3169 70.3493 55.8919C70.3493 55.8919 74.4529 62.184 75 63.5518C75 63.5518 74.1793 64.3726 73.3586 63.2783C73.3586 63.2783 61.3215 47.9584 58.8594 41.6662C58.8594 41.6662 30.1345 54.524 23.2953 90.9088C23.2953 90.9088 16.1825 139.057 59.6801 160.943C59.6801 160.943 22.7481 134.954 57.7651 101.578C57.7651 101.578 46.2752 121.002 63.5101 129.482C63.5101 129.482 79.3771 133.859 90.3199 140.972C90.3199 140.972 110.838 154.377 122.875 158.207C122.875 158.207 134.091 162.037 140.657 162.584C140.657 162.584 149.958 164.499 157.345 160.122C157.345 160.122 165.005 154.924 167.467 142.34C167.467 142.34 145.855 152.736 117.403 142.887C117.403 142.887 103.998 138.784 104.819 126.747C104.819 126.747 108.102 105.955 141.751 101.304C141.751 101.304 145.581 100.757 151.6 101.578C151.6 101.578 170.476 103.493 177.315 101.304C177.315 101.304 179.23 101.031 180.872 99.9366C180.872 99.9366 188.805 92.8238 190.447 82.7017L182.787 76.4096L195.371 77.5039L190.72 82.9753C190.72 82.9753 190.994 92.8238 183.881 99.3895C183.881 99.3895 193.182 96.1067 194.003 85.1639C194.003 85.1639 198.654 78.8718 198.927 77.5039C198.927 77.5039 179.504 62.184 178.683 61.9104C178.683 61.9104 179.23 58.354 179.777 58.0804C179.777 58.0804 155.977 43.0341 151.873 41.3927C151.873 41.1191 129.988 30.997 101.263 31.2706ZM68.7079 40.2984C70.6229 40.572 90.0464 46.0434 90.0464 46.0434C72.5379 40.0248 89.4992 74.4946 78.83 61.0897C68.1608 47.4112 67.34 40.2984 68.7079 40.2984ZM131.903 51.2412L143.119 57.2597L141.751 61.0897L148.59 60.269L160.354 66.5611L128.346 60.5426L131.903 51.2412ZM37.2473 80.7868C37.7945 80.7868 38.0681 81.3339 38.6152 82.9753C39.1623 85.1639 38.0681 86.5317 38.0681 86.5317C38.0681 88.1731 35.8795 89.2674 35.0588 88.4467C34.2381 87.3524 33.6909 85.9846 33.9645 84.8903C34.2381 83.796 35.6059 81.6075 36.7002 81.0603C36.9738 80.7868 37.2473 80.7868 37.2473 80.7868ZM148.864 84.6167C166.099 84.8903 177.862 87.0789 177.862 87.0789C176.494 88.4467 174.306 90.9088 174.306 90.9088C122.054 78.3246 70.8965 102.399 70.8965 102.399C96.0649 87.0789 126.705 84.0696 148.864 84.6167ZM144.76 91.456C159.26 91.1824 169.655 93.0974 169.655 93.0974L166.646 95.5595C133.544 87.3524 94.697 103.219 94.697 103.219C111.385 94.1917 130.261 91.7295 144.76 91.456ZM41.6245 93.371C41.898 93.371 42.4452 93.9181 42.9923 94.7388C44.0866 96.1067 43.813 98.0217 43.813 98.0217C44.3602 99.3895 42.9923 101.304 41.898 100.757C40.8038 100.21 39.983 99.3895 39.7095 98.2952C39.7095 97.2009 39.7095 95.0124 40.5302 94.1917C41.0773 93.371 41.3509 93.0974 41.6245 93.371ZM30.6817 94.7388C30.9552 94.7388 31.5024 95.286 32.0495 95.8331C33.4174 97.201 33.1438 98.8424 33.1438 98.8424C33.6909 99.9366 32.3231 101.852 31.2288 101.304C30.1345 100.757 29.0403 99.9366 28.7667 98.8424C28.4931 98.0217 28.7667 95.8331 29.5874 95.0124C30.1345 94.7388 30.4081 94.7388 30.6817 94.7388ZM141.751 102.399L157.892 108.144L158.165 120.181L166.372 106.776L167.467 110.059L169.655 106.502L170.749 109.512L172.938 106.229L172.391 114.436L180.324 102.672C167.467 107.049 141.751 102.399 141.751 102.399ZM39.7095 105.134C40.2566 105.134 40.5302 105.408 41.0773 106.502C41.898 107.87 41.0773 108.964 41.0773 108.964C41.3509 110.059 39.983 110.879 39.1623 110.059C38.3416 109.512 37.7945 108.417 37.7945 107.87C37.7945 107.049 38.3416 105.682 39.1623 105.408C39.4359 105.408 39.7095 105.134 39.7095 105.134ZM31.7759 108.144C32.0495 108.144 32.5967 108.691 33.4174 109.512C34.7852 111.153 34.2381 113.068 34.2381 113.068C34.7852 114.436 33.4174 116.624 32.0495 116.077C30.9552 115.53 29.861 114.436 29.5874 113.342C29.3138 112.247 29.5874 109.512 30.4081 108.691C30.9552 108.144 31.2288 107.87 31.7759 108.144ZM117.677 123.464C116.856 123.464 116.309 123.737 116.309 123.737C110.564 125.379 115.488 130.029 115.488 130.029C108.923 127.841 107.008 125.652 107.008 125.652C107.555 144.802 134.912 139.878 134.912 139.878C121.233 135.774 120.139 125.105 120.139 125.105C119.318 124.011 118.498 123.737 117.677 123.464ZM155.703 128.661L151.326 140.699C151.326 140.699 149.137 142.066 145.855 142.614C142.572 143.161 137.921 142.614 137.921 142.614L119.318 142.066C119.318 142.066 149.685 150 166.099 139.878L167.193 129.756L162.269 137.142L161.722 135.774L160.08 137.416L158.439 135.501L157.071 138.236L155.703 128.661ZM60.2272 131.671C58.0387 131.397 55.5765 132.218 53.6615 136.048C53.6615 136.048 49.558 144.529 55.5765 151.368C55.5765 151.368 62.9629 159.575 67.8872 162.037C67.8872 162.037 57.7651 148.632 75.5471 137.963L63.7836 132.765C64.0572 133.039 62.1422 131.944 60.2272 131.671Z" fill="white"/>
</g>
<defs>
<clipPath id="clip0_15016_302039">
<rect width="200" height="200" fill="white" transform="translate(0.84375 0.621094)"/>
</clipPath>
</defs>
</svg>
