<svg width="200" height="201" viewBox="0 0 200 201" fill="none" xmlns="http://www.w3.org/2000/svg">
<path d="M168.775 108.526L134.761 86.0006L77.7158 81.1014V48.3832H114.489V73.1612H167.254V40.4993L129.355 16.1719H71.6903L33.1718 40.4993V90.8436L67.5794 114.889L114.601 118.212V148.959H87.1765V127.335H31.1445L31.8203 158.758L69.3814 184.38L131.157 184.437L169 159.828L168.775 108.526Z" fill="#001A72"/>
<path d="M68.5342 112.244L35.8723 89.3803V41.9643L72.4761 18.8757H128.564L164.492 41.9643V70.4589H117.133V51.7065H119.498V67.6996H161.958V44.2168L127.044 21.2972H73.9403L38.3501 44.2168V87.8598L74.4471 111.793L92.2422 113.877L68.5342 112.244ZM166.069 109.991L133.576 88.4792L79.0648 83.8615V85.8888L131.211 91.0134L163.535 111.399L163.648 156.393L128.79 179.595H71.8004L37.2239 155.38L36.5481 132.798H81.43V154.929H120.849V117.368L117.358 116.974V151.719H84.4709V130.095H33.9014L34.5208 157.351L70.2236 181.734L130.366 181.791L166.238 158.421L166.069 109.991Z" fill="white"/>
<path d="M160.776 112.919L130.029 93.4348L76.3056 88.3666L76.9251 48.9471H122.314V64.9402H159.255V45.681L126.199 24.0002H74.7288L41.0533 45.681V86.4519L75.6298 109.428L123.496 114.89V157.576H78.7271V135.557H39.3076L39.8708 154.028L72.6452 176.948H127.945L160.945 155.042L160.776 112.919Z" fill="#862633"/>
<path d="M71.0132 45.3428C71.6889 44.4418 72.7026 43.766 74.1104 43.2592C78.1087 41.6824 80.5301 44.3854 80.5865 43.3718C81.2622 38.4162 87.4567 36.6705 89.3151 37.0084C89.9908 37.121 89.5966 35.319 91.9618 34.8685C93.5386 34.5869 95.4532 35.15 95.7911 36.8394C102.661 35.4316 104.126 38.3599 108.574 45.1175C108.8 45.4554 108.631 45.7933 108.968 45.737C110.771 45.4554 113.586 45.3991 114.656 46.8632C115.219 47.5953 115.67 47.2574 116.289 47.4827C118.711 48.3837 119.95 51.5936 119.049 53.7898C118.091 56.2113 115.895 57.9007 114.656 60.5474C114.262 61.4484 115.107 61.899 115.445 62.8C115.445 64.2641 114.825 65.8409 114.487 67.305C114.206 69.3886 115.557 71.3033 116.289 73.3869C117.528 76.6531 114.881 78.3425 116.289 78.8493C127.721 83.2418 127.101 82.2844 132.282 84.7059C132.902 84.9875 133.296 84.4807 133.915 84.7622C137.576 89.0421 139.209 93.9977 141.011 99.1785C141.968 102.501 141.349 105.542 141.968 108.921C141.011 108.921 140.391 109.033 140.166 109.991C141.123 110.329 141.236 110.723 141.968 110.385C144.052 109.371 145.741 111.342 147.825 111.68C148.782 111.68 149.289 111.286 149.908 111.286C149.289 114.721 145.854 115.735 146.755 118.044C147.036 118.663 144.277 119.62 142.588 119.17C141.518 118.888 140.673 118.269 140.222 117.706C139.772 117.03 139.547 116.298 138.589 116.073C135.943 115.622 133.521 115.791 132.508 111.061C132.395 110.385 131.381 111.455 131.1 110.835C130.48 109.371 130.086 107.231 129.129 106.049C126.369 103.627 123.723 102.557 121.921 98.9532C121.695 98.5591 119.668 98.8969 119.668 98.9532C119.668 101.544 119.33 102.219 119.049 104.021C118.429 106.443 117.472 108.864 116.289 110.723C115.726 111.511 114.712 111.962 114.487 112.806C114.487 113.426 113.868 113.764 114.487 114.045C117.866 115.284 121.583 117.818 122.934 120.803C123.159 121.253 123.835 121.366 124.173 121.141C125.13 120.521 126.426 120.127 127.214 120.521C129.016 121.422 132.339 121.985 132.001 123.788C131.663 124.689 128.397 124.689 128.171 125.533C128.115 126.153 128.397 126.772 128.509 127.504C128.791 128.743 129.129 130.095 129.579 131.221C129.861 131.897 130.649 132.122 131.156 132.572C132.17 133.53 133.296 134.206 134.647 133.699C138.026 132.46 139.153 134.994 140.391 137.753C140.504 138.091 143.658 139.048 146.079 140.118C147.768 140.851 148.838 141.752 149.514 142.202C150.753 143.103 152.274 144.624 151.992 146.482C151.654 147.101 151.373 147.946 150.415 148.284C151.373 150.367 151.654 152.564 151.373 154.985C147.093 155.774 143.207 155.323 139.209 155.323C137.97 155.323 134.197 155.21 134.704 154.084C135.042 153.408 135.605 153.296 136.337 152.17C137.125 151.043 138.083 148.903 138.589 149.016C140.166 149.241 142.588 149.692 142.024 148.228C141.236 145.862 138.871 143.272 135.886 143.779C133.521 144.173 128.847 145.243 123.779 146.482C122.878 146.707 118.823 144.736 114.938 144.173C113.023 143.891 111.334 140.118 109.757 140.062C107.166 139.837 104.463 138.654 101.422 139.274C97.1426 139.893 93.4259 139.612 89.484 141.639C89.0898 141.864 90.4976 144.117 88.6956 145.356C87.2314 146.369 86.4431 146.482 84.9789 146.257C77.3203 144.792 69.3801 145.13 61.7214 146.031C60.4262 145.468 60.5952 145.13 60.1446 144.117C58.7368 144.342 55.6396 142.146 55.0201 141.357C54.288 140.569 53.9502 139.781 52.5986 138.992C52.8802 138.711 53.3307 138.316 53.3307 137.979C53.3307 136.852 53.2744 136.176 53.9502 135.388V135.219C53.8375 134.318 54.0065 132.967 54.4007 131.953C57.4416 132.572 60.3699 131.277 63.1293 133.079C64.3682 134.318 65.2129 135.67 66.1702 137.134C66.4518 137.472 66.9586 137.584 67.578 137.584C70.619 136.965 72.9841 136.514 76.0251 136.909C76.6445 136.965 77.3203 137.134 77.6018 136.514C78.5592 132.572 77.5455 127.504 81.769 125.364C78.9534 122.267 75.9124 118.719 73.4346 114.777C70.9568 116.523 68.4227 117.255 66.6207 116.073C64.9313 115.115 64.3118 113.989 62.4535 111.399C62.2282 111.117 62.2282 110.779 62.003 110.666C58.8494 109.033 58.6805 108.583 58.3989 107.963C57.8358 106.33 59.0747 107.682 58.061 102.276C58.0047 101.994 59.131 101.544 59.0184 101.262C56.259 95.0676 58.3989 94.6171 58.3989 94.3919C58.4552 93.3219 58.3989 92.1393 57.8358 91.1257C56.428 87.9721 56.2027 85.2691 58.2863 83.0728C60.5388 80.764 63.974 79.9193 64.9313 81.665C64.9876 81.8903 65.3255 81.9466 65.4944 81.7213C66.4518 80.1445 67.9159 80.4261 69.1548 80.7077C71.2947 81.6087 72.5899 83.2981 73.5473 85.5506C73.8851 86.339 75.0114 85.6633 75.3493 86.2827C75.6872 86.9022 75.9687 87.6342 75.7998 88.0847C76.7571 88.3663 76.7571 87.6342 76.8698 86.7895C76.9261 86.508 76.6445 86.0574 76.4193 86.0574C74.8425 85.7196 73.9415 84.6496 73.4346 83.3544C71.8015 79.4125 71.4073 77.6667 70.0558 74.5132C69.8306 74.0627 69.9432 73.4432 69.9432 73.218C70.1685 71.1907 71.351 68.1497 72.0831 68.4313C72.3084 68.4876 72.1957 67.474 72.1957 67.3614C72.5336 64.602 74.5609 59.3648 76.4756 59.1396C76.5882 59.1396 76.4193 58.8017 76.2503 58.6891C75.1804 57.6191 74.1667 54.7471 75.3493 52.6635C74.3357 52.0441 71.4073 51.7625 70.1685 48.6653C69.8869 47.9332 70.2248 46.469 71.0132 45.3428Z" fill="white"/>
<path d="M79.9117 63.4753C79.9117 63.4753 79.1233 63.8131 79.1233 64.2637C79.1233 64.2637 77.997 64.32 79.067 63.3063C79.067 63.3626 79.9117 62.6869 79.9117 63.4753ZM82.84 72.2039C83.1216 72.2039 82.84 71.2465 82.84 71.2465C82.5021 70.796 82.9526 70.8523 82.9526 70.8523C83.5721 71.1339 84.5294 71.1902 84.5294 71.1902C85.4304 70.7397 84.7547 70.5145 84.7547 70.5145C83.741 70.5145 83.2905 70.2329 83.2905 70.2329C81.2069 69.3319 80.1369 70.1203 80.1369 70.1203C77.997 71.3592 76.6455 71.697 76.6455 71.697C75.9134 72.1475 76.8708 72.3728 76.8708 72.3728C77.265 72.1475 77.6028 72.0912 77.6028 72.0912C79.4049 73.1612 79.2922 76.2584 79.2922 76.2584C79.8554 77.0468 79.968 76.2584 79.968 76.2584L79.7991 74.9632C79.5738 74.0059 79.9117 74.2311 79.9117 74.2311C80.5311 74.1185 79.6864 72.9923 79.6864 72.9923C79.2359 72.0349 79.1233 71.6407 79.1233 71.6407C79.2359 70.965 79.7428 72.0349 79.7428 72.0349C80.1369 73.3864 80.4185 73.3301 80.4185 73.3301C81.0943 73.4428 80.7564 72.767 80.7564 72.767C80.0806 71.6407 80.1369 71.3028 80.1369 71.3028C80.4185 70.0639 80.9253 71.3592 80.9253 71.3592C81.4885 72.767 81.8263 72.5981 81.8263 72.5981C82.3895 72.3728 81.6011 71.2465 81.6011 71.2465C81.2632 70.5708 81.6011 70.6271 81.6011 70.6271C81.939 70.4018 82.2205 71.3592 82.2205 71.3592C82.5584 72.5417 82.84 72.2039 82.84 72.2039ZM89.6539 81.6645C89.6539 81.6645 90.0481 82.115 91.7938 82.4529C91.7938 82.4529 92.5259 82.5655 92.5822 82.115C92.5822 82.115 92.8638 81.4393 91.6249 81.7208C91.6249 81.7208 89.6539 81.3267 88.9219 79.8062C88.9219 79.8062 88.8092 77.1595 88.1898 77.5536C88.1898 77.5536 87.514 77.1595 88.0771 79.9188C88.1335 80.0314 88.5277 81.1577 89.6539 81.6645ZM112.574 69.2192L112.968 70.0076C113.756 70.796 113.869 70.0639 113.869 70.0639C113.418 69.3882 113.306 68.7687 113.306 68.7687L113.418 67.1356C113.812 65.5589 112.799 67.023 112.799 67.023C112.517 68.1493 112.348 67.3609 112.348 67.3609C112.236 66.4036 112.742 65.6152 112.742 65.6152C113.08 64.6579 112.179 65.3336 112.179 65.3336C111.166 67.0793 111.729 67.8114 111.729 67.8114C112.123 68.7687 112.574 69.2192 112.574 69.2192ZM101.198 63.7005C100.917 63.9821 101.649 64.8268 101.649 64.8268C101.874 65.221 102.212 65.052 102.212 65.052C102.493 64.8268 102.099 64.2637 102.099 64.2637C101.48 63.1937 101.198 63.7005 101.198 63.7005ZM139.548 139.161C139.491 139.048 139.266 139.048 139.154 139.104C139.041 139.217 139.041 139.386 139.097 139.499C139.21 139.724 142.758 143.947 146.136 144.285C146.249 144.285 146.418 144.173 146.418 144.004C146.418 143.891 146.305 143.666 146.136 143.666C142.983 143.44 139.548 139.161 139.548 139.161ZM149.797 147.889C150.698 149.973 151.036 152.056 150.698 154.534C146.531 155.323 142.589 154.985 138.647 154.985C137.408 154.985 134.648 154.985 135.155 153.915C135.437 153.239 136.169 153.295 136.845 152.225C137.577 151.099 138.196 149.41 138.647 149.466C140.111 149.691 142.645 150.142 142.363 148.678C142.082 145.975 138.253 142.708 135.324 143.497C133.015 144.116 129.017 145.13 124.061 146.312C123.16 146.538 118.599 144.341 114.657 143.891C112.742 143.609 111.166 139.893 109.533 139.78C107.055 139.555 104.352 138.372 101.311 138.992C97.1436 139.611 92.6385 139.611 88.8092 141.638C88.415 141.864 90.0481 143.722 88.8092 145.017C87.5703 146.312 86.3314 146.256 84.811 145.918C77.3213 144.454 69.8316 144.679 62.2292 145.637C60.9903 145.074 61.103 144.736 60.7651 143.722C59.3573 143.947 56.3163 141.807 55.6969 140.963C54.9648 140.174 54.6269 139.386 53.2754 138.598C53.557 138.316 54.0075 137.922 54.0075 137.64C54.0075 136.514 53.9512 135.838 54.6269 135.05V134.937C54.5143 134.036 54.4017 133.473 54.8522 132.459C57.8368 133.079 60.4835 131.784 63.1866 133.586C64.4255 134.825 64.9886 136.007 65.8896 137.528C66.1712 137.809 67.1285 138.147 67.6917 138.147C70.6763 137.528 73.3793 137.077 76.4203 137.415C77.0397 137.471 77.6591 137.528 77.997 136.964C78.898 133.022 78.2223 127.785 82.3895 125.589C79.5738 122.492 76.0824 118.381 73.7172 114.495C71.2957 116.241 68.9869 117.255 67.2411 116.072C65.6081 115.115 64.9323 113.988 63.1303 111.454C62.905 111.173 62.905 110.835 62.6798 110.722C59.5825 109.146 59.4136 108.639 59.1883 108.019C58.6252 106.442 59.8641 107.738 58.9067 102.388C58.8504 102.106 59.9767 101.656 59.8641 101.374C57.161 95.2361 59.2446 94.8419 59.2446 94.5603C59.3009 93.4904 59.2446 92.4204 58.7941 91.2941C57.3863 88.1406 57.161 85.4939 59.2446 83.4103C61.3845 81.1577 64.5944 80.8198 65.5517 82.6219C65.6081 82.8471 65.8333 82.6782 65.9459 82.5092C66.9033 80.9325 68.2548 81.214 69.4374 81.4956C71.521 82.3966 72.7036 83.9171 73.6046 86.2259C73.9425 87.0143 75.0687 86.2259 75.4066 86.8454C75.6882 87.4648 76.0261 88.4222 75.6882 88.9853C76.5892 89.2669 77.4902 88.0843 77.6028 87.3522C77.6591 87.0706 77.4902 86.2822 77.2086 86.2822C75.7445 86.0007 74.5619 85.2123 74.0551 83.9171C72.4783 79.9751 72.0841 78.2857 70.6763 75.1322C70.451 74.6817 70.5636 74.0622 70.5636 73.837C70.7889 71.8097 71.9715 68.7687 72.7036 69.1066C72.9288 69.1629 72.8162 68.1493 72.8162 68.0367C73.1541 65.2773 75.1814 59.9275 76.9834 59.6459C77.096 59.6459 76.9271 59.5333 76.8708 59.4207C75.8008 58.2944 74.393 55.0282 75.9134 52.9446C74.8998 52.3252 71.8025 51.5368 70.9015 49.4532C70.62 48.5522 70.3384 47.6512 71.1268 46.5249C72.0278 45.286 73.1541 44.385 74.5056 43.8782C78.5039 42.414 81.038 45.1734 81.038 44.1597C81.3195 39.0915 87.7393 37.2895 89.5976 37.6837C90.2734 37.7963 89.8792 35.8816 92.2444 35.3748C93.7085 35.0933 95.5668 35.6564 95.9047 37.4584C102.324 35.769 104.295 39.1478 108.688 45.8491C108.913 46.187 108.744 46.5249 109.082 46.4686C110.884 46.187 113.587 46.1307 114.601 47.5949C115.164 48.3269 115.558 47.989 116.178 48.2143C118.599 49.1153 119.782 52.0436 118.824 54.1835C117.923 56.605 115.333 58.2381 114.432 60.9412C114.15 61.8422 115.051 62.4053 115.333 63.3626C115.333 64.8268 114.713 66.3473 114.432 67.8677C114.15 69.9513 115.446 71.866 116.234 73.8933C117.473 77.1595 114.826 78.7362 116.234 79.2994C127.497 83.6355 126.933 82.6782 132.058 85.0997C132.677 85.3812 133.015 84.8744 133.635 85.156C137.239 89.3232 138.816 94.3351 140.618 99.4033C141.519 102.726 140.899 105.71 141.519 108.977C140.618 108.977 139.717 109.258 139.435 110.215C140.336 110.497 140.674 111.68 141.519 111.454C143.602 110.553 144.222 111.229 147.263 112.355C148.164 112.693 149.065 112.243 149.684 112.243C149.29 114.214 147.882 115.678 146.643 116.635C146.193 117.029 146.756 117.761 146.756 118.606C146.981 118.944 145.123 119.958 143.152 119.676C140.787 119.338 139.66 116.354 139.154 116.354C135.212 116.297 133.41 114.552 132.79 111.229C132.509 110.61 131.551 111.229 131.326 110.61C130.706 109.146 130.425 107.287 129.524 106.105C126.821 103.683 123.78 102.106 122.034 98.6149C121.809 98.2207 119.556 98.6149 119.556 98.6712C119.556 101.262 119.331 102.444 119.106 104.303C118.486 106.724 117.642 109.089 116.403 110.948C115.84 111.736 114.939 112.186 114.601 113.031C114.601 113.651 114.319 114.495 114.882 114.833C118.205 116.072 121.527 118.156 122.992 121.478C123.273 121.478 123.893 122.098 124.456 121.76C125.357 121.14 126.539 120.859 127.44 121.14C129.242 122.041 132.227 122.379 131.945 124.125C131.664 125.026 127.609 125.082 127.947 125.927C128.51 127.56 128.736 128.855 129.073 130.601C129.355 132.178 130.2 132.741 131.382 133.304C132.396 133.755 133.072 135.219 134.311 134.656C137.577 133.248 138.816 135.05 140.111 137.753C140.561 138.71 141.744 139.048 142.589 139.499C144.616 140.512 146.981 140.625 149.065 142.483C150.191 143.497 151.768 144.567 151.486 146.425C151.036 146.65 150.698 147.608 149.797 147.889ZM135.944 114.608C137.971 116.072 139.266 115.058 139.266 115.058C141.857 119.169 144.391 118.663 144.391 118.663C146.418 118.212 145.123 116.523 145.123 116.523C142.307 116.804 141.406 115.847 141.406 115.847C140.73 114.608 142.026 115.171 142.026 115.171C146.08 117.649 147.995 113.087 147.995 113.087C146.193 112.862 144.616 112.018 144.616 112.018C142.927 111.06 141.913 111.736 141.913 111.736L142.026 112.299C142.42 114.101 141.35 113.087 141.35 113.087C141.124 112.13 140.449 111.68 140.449 111.68C139.548 111.117 138.421 109.934 138.421 109.934C136.507 110.835 133.691 111.229 133.691 111.229C133.41 113.482 135.944 114.608 135.944 114.608ZM72.8162 92.4204C72.3657 92.533 70.2258 92.8709 70.2258 92.8709L70.1131 96.475C70.7326 99.2907 71.1831 98.446 71.1831 98.446L72.8162 92.4204ZM74.7308 87.0143L73.4356 86.7327C72.6472 88.6474 70.5073 88.3095 70.5073 88.3095C69.8316 91.4631 67.0722 90.9 67.0722 90.9C65.8333 93.4904 62.905 92.9836 62.905 92.9836C61.4409 92.8709 61.6098 89.8863 61.6098 89.8863C61.0467 87.859 59.8078 88.8727 59.8078 88.8727C59.132 88.9853 59.3573 88.4785 59.3573 88.4785C62.1166 86.1696 62.5108 90.9 62.5108 90.9C62.5671 92.0262 62.8487 92.1388 62.8487 92.1388C66.6217 92.5894 66.2838 89.8863 66.2838 89.8863C66.0022 88.76 64.4818 87.1269 64.4818 87.1269C63.1866 85.8317 64.3692 86.0007 64.3692 86.0007C65.9459 86.9017 67.0159 89.4921 67.0159 89.4921C67.2411 90.4494 67.9732 90.3931 67.9732 90.3931C70.1131 89.7174 69.6626 88.3095 69.6626 88.3095C69.0432 85.6628 67.0159 85.3249 67.0159 85.3249C65.0449 84.8744 65.7207 84.3113 65.7207 84.3113C67.5227 83.9171 69.3247 85.7754 69.3247 85.7754C70.2821 87.859 70.62 87.859 70.62 87.859C74.5619 87.2396 71.5773 84.255 71.5773 84.255C69.2684 80.9888 67.4101 81.8898 67.4101 81.8898C66.3401 82.0024 65.7207 83.6918 65.7207 83.6918C63.9186 81.2703 61.9477 82.2277 61.9477 82.2277C59.8078 83.185 58.6252 84.9307 58.6252 84.9307C57.0484 87.1833 59.2446 91.0689 59.2446 91.0689C59.4699 91.4068 59.8078 94.7856 59.8078 94.7856L63.1303 96.1371C65.4954 96.8129 65.9459 94.8419 65.9459 94.8419C66.6217 93.2088 67.1848 93.5467 67.1848 93.5467C68.8179 94.504 69.2684 92.7583 69.2684 92.7583C69.1558 91.5194 69.4937 91.7447 69.4937 91.7447C74.6182 92.702 74.8998 88.4222 74.8998 88.4222C75.125 87.1269 74.7308 87.0143 74.7308 87.0143ZM123.836 122.154C125.3 123.055 126.652 124.519 126.652 124.519C127.384 125.758 128.285 124.744 128.285 124.744C129.749 124.012 131.439 123.787 131.439 123.787C130.312 122.436 129.468 122.548 129.468 122.548C127.44 122.098 127.215 121.647 127.215 121.647C126.258 121.197 125.244 121.703 125.244 121.703C124.85 121.985 123.836 122.154 123.836 122.154ZM115.558 76.2584C115.108 76.5963 115.108 78.0042 115.108 78.0042C115.446 78.1168 115.671 76.7089 115.671 76.7089C115.84 75.9206 115.558 76.2584 115.558 76.2584ZM90.6676 51.7621L89.9918 53.3388C90.7239 53.902 91.0618 53.3951 91.0618 53.3951C91.3997 53.1136 90.7802 52.4941 90.7802 52.4941L90.8365 52.1562C91.287 52.0436 91.456 51.8747 91.456 51.8747C91.1744 51.3679 90.6676 51.7621 90.6676 51.7621ZM85.543 51.03C85.6557 51.3115 86.3314 51.2552 86.3314 51.2552C86.6693 51.1426 86.7256 50.5795 86.7256 50.5795L85.9372 50.2416C85.6557 50.2979 85.543 51.03 85.543 51.03ZM83.6284 50.1853C84.0789 50.6358 84.8673 50.9173 84.8673 50.9173C85.4304 50.5795 85.2052 50.129 85.2052 50.129C83.7973 49.8474 83.6284 50.1853 83.6284 50.1853ZM74.1677 64.0384C74.224 64.32 74.4493 64.0384 74.4493 64.0384C75.5755 62.9684 78.166 61.3917 78.166 61.3917C79.4612 60.7722 78.5602 60.6033 78.5602 60.6033C77.9407 60.2091 77.4902 59.7023 77.4902 59.7023C75.6319 59.6459 74.1677 64.0384 74.1677 64.0384ZM81.1506 56.4924C81.1506 56.4924 81.2069 55.704 80.7001 56.4361L78.7291 56.774C78.7291 56.774 78.6165 56.4361 77.7718 58.0692C77.7718 58.0692 78.0533 60.0965 79.5738 59.8149C79.5738 59.8149 79.3486 58.0129 81.1506 56.4924ZM72.7036 71.3592C72.9851 71.0776 72.7599 70.965 72.7599 70.965C72.0841 71.1902 72.7036 71.3592 72.7036 71.3592ZM71.2394 74.0622C71.6336 72.3728 71.6899 71.9223 71.6899 71.9223C71.9715 70.2329 72.6472 70.5708 72.6472 70.5708L72.422 69.4445C70.7889 71.1339 70.8452 74.1185 70.8452 74.1185C70.9578 74.569 71.2394 74.0622 71.2394 74.0622ZM71.7462 75.4137C71.8589 74.1185 72.3657 72.4291 72.3657 72.4291C72.422 70.7397 71.9152 72.767 71.9152 72.767L71.521 74.7943C71.2957 76.3711 71.7462 75.4137 71.7462 75.4137ZM72.7036 78.2857C72.7036 78.2857 72.6472 77.9478 72.422 77.8915C72.1967 77.8352 72.5346 76.9342 72.5346 76.9342C71.7462 77.61 72.4783 78.511 72.4783 78.511L72.7036 78.2857ZM72.9288 76.0895C73.323 74.6253 74.1677 73.3864 74.1677 73.3864C74.7872 73.1049 74.393 72.7107 74.393 72.7107C74.4493 72.1475 74.1114 72.0912 74.1114 72.0912C73.3793 71.4718 73.323 71.8097 73.323 71.8097C73.3793 72.5981 73.8861 72.4291 73.8861 72.4291C74.1114 72.7107 73.8298 72.8233 73.8298 72.8233C73.4356 73.2738 73.0414 74.8506 73.0414 74.8506C72.3657 76.54 72.9288 76.0895 72.9288 76.0895ZM77.7718 81.9461C78.1097 80.2567 77.3213 82.3966 77.3213 82.3966C77.4902 82.6782 77.7718 81.9461 77.7718 81.9461ZM77.4902 80.8198C77.4902 80.8198 77.8281 79.8625 77.3776 80.0314C77.3776 80.0314 77.1523 80.2567 77.096 80.7635C77.096 80.7072 76.4202 83.0161 77.4902 80.8198ZM78.5039 83.0161C79.1233 81.8898 78.3912 81.9461 78.3912 81.9461L77.7155 83.0161C77.4902 83.6918 77.7718 83.6918 77.7718 83.6918C78.0533 84.1986 78.5039 83.0161 78.5039 83.0161ZM80.7001 84.1423L79.4612 83.0724C79.0107 82.4529 78.5039 84.4802 78.5039 84.4802C79.067 84.8744 80.1933 85.3812 80.1933 85.3812C80.6438 85.0433 80.5875 84.7055 80.5875 84.7055L80.7001 84.1423ZM82.5584 83.0724C82.2205 82.7908 82.2205 82.0024 82.2205 82.0024C82.6711 81.383 82.7837 82.284 82.7837 82.284L83.3468 83.2413C83.9099 84.1423 84.1352 83.2976 84.1352 83.2976C83.7973 82.3403 84.3605 82.5655 84.3605 82.5655L84.7547 83.185C85.712 83.9734 85.4867 82.6219 85.4867 82.6219L84.5294 80.5383C84.0789 79.2994 84.9799 80.0314 84.9799 80.0314C85.3741 80.5946 86.3877 82.8471 86.3877 82.8471C87.1198 83.8608 88.3587 84.255 88.3587 84.255C89.485 84.8181 92.9764 83.9734 92.9764 83.9734C94.5532 83.0161 95.961 82.6782 95.961 82.6782C96.9747 82.4529 97.5378 81.9461 97.5378 81.9461C98.833 81.2703 97.5941 80.5946 97.5941 80.5946C97.3689 79.6936 96.0174 79.3557 96.0174 79.3557C94.3843 78.342 96.4116 78.7362 96.4116 78.7362C97.1999 79.2994 97.1436 78.9615 97.1436 78.9615C97.2563 78.0605 97.8757 79.1867 97.8757 79.1867C98.6641 80.0878 98.4388 79.0741 98.4388 79.0741C98.5515 77.2721 99.1709 79.7499 99.1709 79.7499C99.2835 80.1441 99.9593 80.8761 99.9593 80.8761C100.748 81.6645 100.241 80.4256 100.241 80.4256C100.185 78.3983 101.255 81.4393 101.255 81.4393C102.888 83.2413 101.93 81.383 101.93 81.383C101.255 79.8062 102.156 80.7072 102.156 80.7072C102.775 82.115 103.282 81.7772 103.282 81.7772C104.295 80.9888 104.859 80.7635 104.859 80.7635C106.21 80.3693 105.76 80.1441 105.76 80.1441C103.676 78.6799 103.338 76.7653 103.338 76.7653C103.113 75.8642 102.324 74.6253 102.324 74.6253C100.748 72.6544 101.987 73.2175 101.987 73.2175C102.606 73.6117 103.676 75.5264 103.676 75.5264C104.07 76.5963 104.127 75.9206 104.127 75.9206C104.746 74.2875 104.802 75.47 104.802 75.47V78.0605C105.365 79.0741 105.422 76.9342 105.422 76.9342C106.097 75.6953 106.21 76.3148 106.21 76.3148L105.929 78.2857C105.929 78.2857 106.548 78.6236 106.154 78.9052C105.76 79.1867 105.872 79.3557 105.872 79.3557C106.323 79.9188 106.435 78.4547 106.435 78.4547C106.435 76.8779 106.717 76.7089 106.717 76.7089C107.393 75.6953 107.28 77.1595 107.28 77.1595C106.717 78.8489 107.336 77.8915 107.336 77.8915C107.449 76.8216 107.618 76.8779 107.618 76.8779C108.237 76.5963 107.843 78.7925 107.843 78.7925C107.787 80.0314 108.294 79.1304 108.294 79.1304V78.0605C108.744 77.0468 108.969 78.342 108.969 78.342C109.195 77.61 109.589 77.7226 109.589 77.7226C109.927 78.0042 109.533 78.9615 109.533 78.9615C109.87 79.5246 110.208 78.6799 110.208 78.6799C110.828 77.0468 110.772 78.4547 110.772 78.4547C110.715 79.1304 111.222 78.8489 111.222 78.8489C111.673 79.0741 111.673 78.2294 111.673 78.2294C112.236 77.3284 112.236 78.342 112.236 78.342C111.954 79.1304 113.024 78.7362 113.024 78.7362C113.475 78.8489 113.643 77.8352 113.643 77.8352C114.77 75.2448 114.263 78.1168 114.263 78.1168C113.925 80.0314 114.995 78.0042 114.995 78.0042C115.22 76.2021 116.065 74.9632 116.065 74.9632C116.178 74.569 114.826 71.4718 114.826 71.4718C113.869 69.5571 114.207 67.4735 114.207 67.4735C114.995 65.8967 114.939 64.4889 114.939 64.4889C114.657 62.8558 113.812 61.5606 113.812 61.5606C113.193 60.547 113.08 60.7722 113.08 60.7722C112.686 60.6596 112.799 61.5606 112.799 61.5606C112.123 63.1374 112.179 60.9412 112.179 60.9412C112.292 60.2091 112.123 60.2654 112.123 60.2654C111.504 59.8149 111.56 60.547 111.56 60.547C111.335 62.5742 110.94 60.2091 110.94 60.2091C110.603 58.1255 110.377 60.1528 110.377 60.1528C110.265 60.9412 109.983 60.6033 109.983 60.6033L109.87 59.3081C109.814 58.6323 109.476 58.6323 109.476 58.6323L109.195 58.3507C108.913 58.2381 109.307 56.2671 109.307 56.2671C109.645 55.1409 108.744 55.1409 108.744 55.1409L107.956 54.9156C107.28 54.1272 107.167 54.3525 107.167 54.3525L106.435 54.634C105.534 54.9719 105.872 54.1835 105.872 54.1835C106.492 53.5641 106.154 53.3951 106.154 53.3951C105.196 52.4378 107.393 52.7194 107.393 52.7194L109.533 50.3542C112.01 48.2143 112.517 50.4668 112.517 50.4668C112.067 52.4378 112.405 52.4941 112.405 52.4941C112.855 52.6068 112.742 53.3951 112.742 53.3951L110.434 56.6613C109.758 57.9565 110.321 58.0692 110.321 58.0692L113.643 60.0401C113.925 60.4906 114.545 60.0965 114.545 60.0965C115.277 58.407 117.923 54.9156 117.923 54.9156C119.669 51.4242 117.248 49.5658 117.248 49.5658C115.277 47.989 115.502 49.5095 115.502 49.5095C115.896 51.0863 115.896 51.8747 115.896 51.8747C115.783 53.9583 115.164 52.5504 115.164 52.5504L115.051 50.1853C115.051 46.9191 111.898 46.8628 111.898 46.8628C108.463 46.7501 106.379 49.6221 106.379 49.6221C105.985 50.6921 105.309 50.861 105.309 50.861C104.521 50.9737 104.014 51.6494 104.014 51.6494C103.676 52.7757 103.113 52.3815 103.113 52.3815C103.057 51.7057 102.493 51.9873 102.493 51.9873C101.423 52.3815 101.874 51.5368 101.874 51.5368C104.971 49.6221 103.282 48.5522 103.282 48.5522C100.241 47.7638 96.8057 51.1426 96.8057 51.1426C96.13 52.0436 95.7921 51.931 95.7921 51.931C95.1163 51.7057 95.3416 52.832 95.3416 52.832C95.6232 52.4941 97.1436 52.4941 97.1436 52.4941C98.7204 52.2126 96.7494 53.2825 96.7494 53.2825C96.13 53.5641 95.7358 53.5641 95.7358 53.5641C94.6658 53.8457 95.6232 53.9583 95.6232 53.9583C98.6078 53.0573 100.579 54.5777 100.579 54.5777C101.592 55.1409 100.635 55.3661 100.635 55.3661C99.3399 54.5777 98.3262 54.3525 98.3262 54.3525C94.0464 54.5777 92.1317 56.0982 92.1317 56.0982C89.1471 57.7876 87.8519 57.506 87.8519 57.506C87.5703 57.7876 87.1198 57.7313 87.1198 57.7313C86.0499 57.3934 87.5703 56.8303 87.5703 56.8303C90.2734 56.4924 91.0618 55.7603 91.0618 55.7603C93.7648 54.1272 94.5532 54.1272 94.5532 54.1272L93.9901 53.0573C93.8774 52.4378 93.4269 52.7194 93.4269 52.7194L91.6249 52.9446C91.3997 54.5777 90.7239 54.4088 90.7239 54.4088C88.2461 54.3525 87.2888 54.1272 87.2888 54.1272L83.7973 53.0009C81.9953 52.0999 83.4031 51.9873 83.4031 51.9873L84.9799 52.4378C88.9219 54.0146 89.485 53.2262 89.485 53.2262L90.1044 51.9873C90.4423 51.1989 89.6539 51.3679 89.6539 51.3679L89.2034 52.6068C88.8655 53.5078 88.7529 52.832 88.7529 52.832L89.0345 52.0436C89.4287 51.2552 88.9782 51.1426 88.9782 51.1426L87.683 50.7484C86.7819 50.4105 87.0635 50.861 87.0635 50.861C86.6693 51.1426 87.0072 51.3115 87.0072 51.3115C88.3587 51.4242 87.683 51.931 87.683 51.931C86.6693 52.5504 85.3178 51.8747 85.3178 51.8747C81.9953 49.9037 81.4885 49.9037 81.4885 49.9037C78.7291 49.96 78.7291 50.9173 78.7291 50.9173C81.038 50.9737 83.1216 53.5078 83.1216 53.5078C84.3605 54.803 85.0362 54.7467 85.0362 54.7467C86.613 55.0282 85.4867 55.5351 85.4867 55.5351C84.0226 55.4787 82.5584 54.1835 82.5584 54.1835C78.9544 50.3542 77.6028 51.7057 77.6028 51.7057C74.4493 54.634 76.0261 56.7176 76.0261 56.7176C76.7581 56.605 77.0397 57.3371 77.0397 57.3371L77.6028 56.8866C77.6028 56.8866 77.997 56.6613 76.9271 55.4787C76.9271 55.4787 76.3076 54.4088 77.3776 54.7467L78.7854 55.8729C78.7854 55.8729 79.7428 56.2671 79.4612 55.2535C79.4612 55.2535 79.3486 54.3525 80.1933 55.0282C80.1933 55.0282 80.5311 55.2535 81.5448 55.4224C81.5448 55.4224 85.0362 56.2108 85.4867 58.4634C85.4867 58.4634 85.7683 58.8576 84.9236 60.4343C84.9236 60.4343 84.8673 61.1664 85.9935 60.8285C85.9935 60.8285 88.0772 59.5896 91.0618 61.279C91.0618 61.279 93.5396 63.0811 99.6214 62.6869C99.6214 62.6869 101.536 62.0111 100.522 63.0811C100.522 63.0811 99.903 63.419 99.1146 63.4753C99.1146 63.4753 99.0583 63.7568 101.198 65.052C101.198 65.052 102.493 65.6715 103 66.6851C103 66.6851 103.62 67.8114 102.268 66.6288C102.268 66.6288 101.198 65.8404 100.522 65.5026C99.8467 65.1647 98.3825 64.151 98.101 63.5879C98.101 63.5879 98.4952 63.3626 95.7921 63.3626C95.7921 63.3626 95.3979 63.1374 96.0737 64.0384C96.0737 64.0384 96.8057 65.8404 100.579 68.1493C100.579 68.1493 101.874 68.5435 100.691 68.7687C100.691 68.7687 98.4388 68.7124 94.8911 63.9258C94.8911 63.9258 95.0037 63.0248 94.4969 63.1937C94.4969 63.1937 92.5822 62.4616 93.258 63.4753C93.258 63.4753 94.3843 65.3899 94.2716 66.1783C94.2716 66.1783 95.3979 66.2346 95.3416 66.8541C95.229 67.4735 95.9047 67.0793 95.9047 67.0793C95.9047 67.0793 96.1863 66.2909 96.8057 67.3609C96.8057 67.3609 97.5941 67.7551 97.5941 68.994C97.5941 68.994 98.0446 69.7824 97.3689 69.9513C97.3689 69.9513 97.0873 70.0076 96.9184 68.7124L96.6931 68.1493L96.3552 67.6425C96.3552 67.6425 96.13 67.6425 95.961 68.093C95.961 68.093 95.3979 68.8814 95.1726 67.8114C95.1726 67.8114 94.8911 66.4036 94.4406 67.1356C94.4406 67.1356 93.7085 68.093 93.6522 66.4036C93.6522 66.4036 93.9338 64.8268 91.9065 63.0248C91.9065 63.0248 91.7938 62.2364 91.0055 62.1237C91.0055 62.1237 90.386 61.8985 89.5413 61.3917C89.5413 61.3917 89.316 60.9412 86.8946 61.279C86.8946 61.279 86.1625 61.5606 87.3451 61.7295C87.3451 61.7295 88.584 62.0111 88.1335 63.419C88.1335 63.419 87.683 63.8695 88.0208 64.4326C88.0208 64.4326 87.9082 65.3899 86.4441 65.1647C86.4441 65.1647 86.2188 65.3899 85.3178 64.6015C85.3178 64.6015 84.642 64.3763 83.9099 65.3336C83.9099 65.3336 83.2905 65.6152 83.1779 65.1084C83.1779 65.1084 82.4458 64.0384 81.2632 63.8695C81.2632 63.8695 80.2496 63.25 81.1506 62.2927L81.3758 61.8985C81.038 61.3354 82.6711 60.6033 82.6711 60.6033C82.2769 60.547 80.9253 60.8848 80.9253 60.8848C79.968 61.1101 78.898 62.0111 78.898 62.0111C74.7872 64.2637 74.1677 66.0094 74.1677 66.0094C72.422 68.7687 74.1114 71.0776 74.1114 71.0776C74.7872 71.4718 75.125 70.8523 75.125 70.8523L75.2377 70.5708C75.8008 70.2892 75.6319 69.895 75.6319 69.895C75.0124 69.2192 75.5192 67.8114 75.5192 67.8114C76.3076 64.6579 78.2223 64.2073 78.2223 64.2073L78.2786 64.9394C77.4902 66.6851 78.166 67.023 78.166 67.023C79.6301 65.7841 80.4748 67.0793 80.4748 67.0793C81.6011 65.7841 82.9526 67.192 82.9526 67.192C84.4168 65.8404 85.6557 67.5862 85.6557 67.5862C86.8946 66.6288 88.0771 68.3182 88.0771 68.3182L89.316 67.3609C90.5549 66.4036 90.9491 66.4036 90.9491 66.4036L90.8928 66.8541C90.3297 67.4735 90.1608 68.093 90.1608 68.093L90.2171 69.5571C91.1181 70.2329 94.0464 70.3455 94.0464 70.3455C95.1726 70.4581 94.6095 69.895 94.6095 69.895C93.6522 68.9377 92.9764 68.6561 92.9764 68.6561C92.357 67.6988 93.5396 68.0367 93.5396 68.0367C96.9747 69.4445 96.9184 73.7806 96.9184 73.7806C97.3689 75.4137 98.1573 75.7516 98.1573 75.7516L100.973 77.2158C102.099 77.9478 100.635 78.0042 100.635 78.0042C98.1573 77.7789 96.4679 75.9769 96.4679 75.9769C94.2153 76.8779 93.6522 76.5963 93.6522 76.5963C91.1744 76.4837 89.316 71.9223 89.316 71.9223C87.9082 69.895 86.3314 69.6698 86.3314 69.6698C80.8127 68.7687 78.7291 69.895 78.7291 69.895C75.6319 70.3455 75.4629 71.2465 75.4629 71.2465C74.6745 72.6544 75.4066 73.3864 75.4066 73.3864C75.8008 74.5127 75.1814 74.2875 75.1814 74.2875L74.8998 74.0059C74.2803 74.3438 74.5056 74.6253 74.5056 74.6253C74.8435 75.5827 74.0551 77.0468 74.0551 77.0468C72.8162 80.4819 73.9988 82.115 73.9988 82.115C75.125 84.0297 76.9271 84.1986 76.9271 84.1986C77.4902 84.3113 77.2086 83.8044 77.2086 83.8044C76.5329 83.8608 76.7581 82.6782 76.7581 82.6782C75.6882 82.3966 76.195 80.5946 76.195 80.5946C76.3076 79.6372 77.1523 78.342 77.1523 78.342C77.4339 77.6663 77.096 77.9478 77.096 77.9478L76.0261 79.9751L75.4629 79.3557C75.6882 77.7789 75.9134 77.3284 75.9134 77.3284C76.5329 75.7516 76.7018 76.0332 76.7018 76.0332C77.096 75.9769 77.096 75.8079 77.096 75.8079C76.8708 75.0195 76.3639 74.3438 76.3639 74.3438C75.4066 73.0486 76.5892 73.5554 76.5892 73.5554C77.8844 74.9632 78.0533 76.8216 78.0533 76.8216C78.4475 79.9751 78.6728 80.313 78.6728 80.313C78.9544 81.383 79.1233 81.0451 79.1233 81.0451C79.7427 80.4819 79.7428 81.1577 79.7428 81.1577C79.7991 82.2277 80.6438 83.0724 80.6438 83.0724C81.2069 83.5229 81.4322 83.2976 81.4322 83.2976L81.1506 82.3966C80.7564 81.1577 81.4322 81.7772 81.4322 81.7772L82.2205 83.4103C82.7274 83.7481 82.5584 83.0724 82.5584 83.0724ZM76.8708 66.0657C74.7872 68.4872 76.0824 69.8387 76.0824 69.8387L77.4902 69.5008C76.6455 67.9804 76.8708 66.0657 76.8708 66.0657ZM78.1097 69.2192C79.067 69.1066 79.8554 68.7687 79.8554 68.7687C79.6301 67.023 78.898 67.192 78.898 67.192C77.6591 67.7551 78.1097 69.2192 78.1097 69.2192ZM80.4748 68.5998C80.7564 68.7124 82.1079 68.4872 82.1079 68.4872C81.9953 67.1356 81.3195 67.1356 81.3195 67.1356C80.0243 67.3046 80.4748 68.5998 80.4748 68.5998ZM83.0652 68.5998L84.6983 68.5435C84.7547 67.5862 83.7973 67.5298 83.7973 67.5298C82.5021 67.4735 83.0652 68.5998 83.0652 68.5998ZM85.5994 68.6561L86.613 68.994C87.4014 68.5998 86.0499 67.9803 86.0499 67.9803C85.4304 67.9803 85.5994 68.6561 85.5994 68.6561ZM89.2597 67.924C88.4713 68.3182 88.0208 69.5008 88.0208 69.5008C88.3587 69.9513 89.2597 70.7397 89.2597 70.7397C88.8092 69.5571 89.2597 67.924 89.2597 67.924ZM83.5158 62.0111C83.5158 62.0111 83.8536 62.0674 83.8536 61.7859C83.8536 61.7859 82.9526 61.1664 82.0516 61.7295C82.0516 61.7295 81.8263 61.7859 81.939 62.4616C81.939 62.4616 81.8827 62.5742 81.4885 63.0811C81.4885 63.0811 81.3758 63.4753 82.0516 63.419C82.0516 63.419 82.5021 64.0947 82.84 63.4753C82.84 63.4753 83.0652 63.0811 82.7837 62.7995C82.6147 62.7432 82.1642 62.1801 83.5158 62.0111ZM102.719 137.696C100.297 135.894 99.9593 136.063 99.9593 136.063C98.5515 136.176 97.5378 135.838 97.5378 135.838C97.3126 135.726 96.9747 135.444 96.9747 135.444C94.7221 134.824 92.188 132.797 92.188 132.797C91.1181 131.784 91.2307 132.572 91.2307 132.572C90.7802 133.473 90.6113 132.628 90.6113 132.628C90.8928 132.178 90.7239 131.896 90.7239 131.896C90.2734 131.615 89.9355 132.347 89.9355 132.347C88.8092 133.642 89.5976 131.727 89.5976 131.727C90.2734 130.319 89.2034 131.502 89.2034 131.502C88.3024 133.304 88.4713 132.065 88.4713 132.065C88.9219 131.277 88.1898 131.84 88.1898 131.84C86.5004 133.867 87.9082 131.446 87.9082 131.446C88.0208 130.995 88.5277 130.657 88.5277 130.657C89.2597 129.193 88.2461 130.376 88.2461 130.376L86.7819 132.009C85.9936 133.304 86.3314 132.065 86.3314 132.065C86.5567 131.446 86.2188 131.671 86.2188 131.671C85.9936 131.953 85.9372 131.558 85.9372 131.558C85.9936 130.995 85.5994 131.615 85.5994 131.615C84.5294 132.854 84.9799 131.671 84.9799 131.671C85.2615 130.995 84.6983 131.671 84.6983 131.671C84.0226 132.797 84.2478 131.615 84.2478 131.615C84.6983 130.939 85.3178 129.813 85.3178 129.813C86.7819 128.236 85.3178 129.249 85.3178 129.249C83.9663 129.982 84.1915 130.319 84.1915 130.319C84.1915 131.051 83.7973 131.22 83.7973 131.22C82.7274 132.516 83.4031 130.77 83.4031 130.77C83.7973 129.869 83.0089 130.488 83.0089 130.488C82.7837 131.051 82.1079 131.164 82.1079 131.164C81.038 132.628 81.4885 131.164 81.4885 131.164C81.77 130.77 81.77 130.376 81.77 130.376C82.0516 129.644 83.0652 128.912 83.0652 128.912C83.741 128.011 82.7837 128.63 82.7837 128.63C81.4322 129.756 80.8127 131.671 80.8127 131.671C79.9117 133.642 80.3622 131.784 80.3622 131.784C80.9253 129.756 81.6574 129.024 81.6574 129.024C82.6147 127.616 83.1216 127.56 83.1216 127.56C83.4031 127.335 84.0789 127.335 84.0789 127.335C84.6983 126.603 83.5158 126.884 83.5158 126.884C81.7137 127.842 80.5875 129.925 80.5875 129.925C80.0243 130.826 80.0243 130.207 80.0243 130.207C80.8127 127.954 82.7274 126.772 82.7274 126.772C83.8536 125.814 82.2769 126.546 82.2769 126.546C78.5039 129.306 79.1233 135.331 79.1233 135.331C79.3486 138.091 77.3776 137.922 77.3776 137.922C72.253 137.021 67.1848 138.71 67.1848 138.71C65.6081 137.753 64.2002 135.557 64.2002 135.557C62.2292 132.178 59.4136 133.191 59.4136 133.191C56.6542 133.642 56.1474 133.135 56.1474 133.135C54.8522 132.91 55.359 133.529 55.359 133.529C55.1337 134.205 55.359 134.318 55.359 134.318C55.9784 134.599 56.9921 134.43 56.9921 134.43C61.9477 133.698 61.7224 134.656 61.7224 134.656C62.8487 135.106 61.9477 135.557 61.9477 135.557C60.5961 134.768 59.6951 134.825 59.6951 134.825C57.2173 135.444 55.6969 135.444 55.6969 135.444C54.7395 135.162 54.7959 136.007 54.7959 136.007C54.5706 137.133 55.0211 137.302 55.0211 137.302C58.4562 135.275 61.7787 136.739 61.7787 136.739C63.0739 137.19 61.835 137.64 61.835 137.64C57.7242 135.838 54.458 138.429 54.458 138.429C55.9221 139.724 56.8231 140.85 56.8231 140.85C59.2446 143.103 61.6661 143.215 61.6661 143.215C63.0739 142.652 63.0176 143.215 63.0176 143.215C63.0176 143.44 62.6798 143.609 62.6798 143.609C61.2719 143.722 61.8914 144.341 61.8914 144.341C62.5108 145.074 62.9613 145.017 62.9613 145.017C65.9459 144.623 72.253 144.229 72.253 144.229C78.2223 143.497 83.1779 144.961 83.1779 144.961C86.4441 145.975 87.9645 145.074 87.9645 145.074C89.8792 143.272 88.9782 142.089 88.9782 142.089C87.3451 141.075 89.5413 140.456 89.5413 140.456C95.8484 138.654 102.268 137.978 102.268 137.978C103.901 138.485 102.719 137.696 102.719 137.696ZM150.304 144.454C149.234 142.652 147.713 142.145 147.713 142.145C139.717 138.654 139.604 137.753 139.604 137.753C139.322 135.444 136.619 134.261 136.619 134.261C135.944 134.149 134.311 134.712 134.311 134.712C133.353 135.162 132.903 134.768 132.903 134.768C130.875 132.854 129.974 132.854 129.974 132.854C129.017 132.234 128.567 129.756 128.567 129.756C128.848 126.152 123.78 122.773 123.78 122.773C122.766 121.197 122.541 122.492 122.541 122.492L122.091 124.294C120.401 127.673 117.98 129.982 117.98 129.982C114.713 133.36 110.208 134.374 110.208 134.374C106.548 135.331 104.352 135.5 104.352 135.5C101.367 135.726 102.381 136.176 102.381 136.176C102.831 136.627 104.633 137.753 104.633 137.753C106.379 138.823 108.632 139.048 108.632 139.048C110.434 139.273 108.913 138.091 108.913 138.091C108.575 137.753 107.449 137.077 107.449 137.077C106.21 136.345 107.167 136.176 107.167 136.176C110.434 138.26 110.772 139.33 110.772 139.33C111.166 139.78 112.123 140.906 112.123 140.906C114.15 143.328 115.783 143.497 115.783 143.497C118.599 143.778 121.302 144.623 121.302 144.623C124.23 146.2 126.258 145.074 126.258 145.074C128.679 143.666 134.367 143.328 134.367 143.328C136.169 142.877 136.507 141.526 136.507 141.526C137.07 140.4 137.126 141.413 137.126 141.413L136.845 142.427C136.901 143.384 137.577 142.708 137.577 142.708L137.915 142.258C138.703 141.301 138.365 142.314 138.365 142.314C137.746 143.215 138.084 143.328 138.084 143.328C139.717 143.891 141.744 146.031 141.744 146.031C143.546 147.608 142.701 149.297 142.701 149.297C141.293 150.423 140.899 149.973 140.899 149.973C138.985 149.353 138.872 149.917 138.872 149.917C137.802 150.986 137.239 152.563 137.239 152.563C135.155 153.915 135.944 154.027 135.944 154.027C137.014 155.379 138.196 153.577 138.196 153.577C138.421 152.563 140.167 150.761 140.167 150.761C140.618 150.311 140.618 151.155 140.618 151.155L139.041 153.07C138.027 154.478 138.759 154.478 138.759 154.478C140.787 155.266 142.251 154.027 142.251 154.027C142.814 150.649 144.672 149.41 144.672 149.41C145.461 149.072 145.404 149.466 145.404 149.466C145.855 149.917 144.672 150.142 144.672 150.142C142.758 152.056 142.701 154.478 142.701 154.478C146.812 154.027 147.826 154.422 147.826 154.422C150.191 154.534 150.416 153.802 150.416 153.802V152.225C150.473 151.212 149.74 149.522 149.74 149.522C149.065 148.452 149.74 147.439 149.74 147.439C151.542 146.256 150.304 144.454 150.304 144.454ZM100.635 60.7159C100.635 60.7159 101.536 62.0674 100.185 61.3917C100.185 61.3917 99.734 60.9412 98.7204 61.1101C98.7204 61.1101 97.5941 61.0538 95.9047 61.0538C95.6232 61.0538 92.9764 61.7295 92.9764 61.7295C92.9764 61.7295 92.2444 61.9548 92.6949 61.0538C92.6949 61.0538 93.1454 60.9975 93.4832 60.7722C93.4832 60.7722 93.7648 60.7159 93.7648 60.547C93.7648 60.547 93.4269 59.8712 93.3706 59.4207C93.3706 59.4207 92.2444 58.6886 91.1181 58.8576C91.1181 58.8576 89.9918 58.1818 92.1317 58.1255C92.1317 58.1255 93.7085 58.7449 94.2716 58.7449C94.2716 58.7449 95.5105 58.5197 96.5242 57.4497C96.5242 57.4497 99.2835 55.3661 100.354 55.7603C100.354 55.7603 101.029 55.7603 101.818 56.5487C101.818 56.5487 102.043 57.3371 101.142 56.9429C101.142 56.9429 100.579 55.9856 98.7204 56.8866C98.7204 56.8866 98.6641 56.9429 99.1709 57.1682C99.1709 57.1682 100.804 57.9565 100.297 59.9275C100.297 59.9275 101.255 58.8012 101.93 58.6323C101.93 58.6323 103 58.576 102.268 59.3081C102.381 59.1954 101.649 59.3081 100.635 60.7159ZM95.6795 60.1528L95.2853 59.2518L94.2153 59.4207C94.2153 59.4207 93.8774 59.3644 94.2716 60.0401L94.5532 60.4906C94.5532 60.4343 94.8911 60.6596 95.6795 60.1528ZM70.7326 141.976C70.62 141.976 70.451 142.202 70.451 142.314C70.451 142.427 70.6763 142.596 70.7889 142.596C73.1541 142.202 79.5738 141.582 80.9253 143.159C80.9816 143.215 81.038 143.215 81.1506 143.215C81.2069 143.215 81.2632 143.215 81.3758 143.159C81.4885 143.046 81.4885 142.877 81.3758 142.765C79.5738 140.568 71.1268 141.92 70.7326 141.976ZM103.845 61.5043C103.057 60.7159 102.099 60.8285 102.099 60.8285C101.086 61.1101 101.874 61.5043 101.874 61.5043C103.113 61.3917 103.507 61.8985 103.507 61.8985C104.014 62.0111 103.845 61.5043 103.845 61.5043ZM115.164 54.4651C115.896 54.4651 115.502 54.1272 115.502 54.1272L115.108 54.0709C114.713 53.7893 114.376 53.3388 114.376 53.3388C113.7 52.8883 113.981 53.4515 113.981 53.4515C114.207 54.1272 115.164 54.4651 115.164 54.4651ZM114.488 55.6477C115.164 55.5351 114.601 55.1972 114.601 55.1972C114.207 55.1409 113.925 54.803 113.925 54.803C113.812 54.5214 113.643 54.4651 113.643 54.4651C112.911 54.4088 113.869 55.4224 113.869 55.4224C113.981 55.5914 114.488 55.6477 114.488 55.6477ZM108.181 65.9531C108.294 66.5725 108.068 67.023 108.068 67.023C107.393 68.2619 108.181 68.1493 108.181 68.1493C108.575 68.2056 108.801 67.0793 108.801 67.0793C109.42 65.8404 108.575 65.2773 108.575 65.2773L107.674 64.9394C106.773 64.6015 107.224 65.3336 107.224 65.3336L108.181 65.9531ZM109.814 71.5281C109.87 71.6407 110.208 71.5844 109.87 71.8097C109.533 72.0349 109.758 72.3728 109.758 72.3728L110.434 72.8233C110.828 73.1612 110.715 73.4428 110.715 73.4428C110.434 74.5127 111.335 74.4564 111.335 74.4564C112.01 75.2448 112.01 74.5127 112.01 74.5127C111.785 74.2311 112.067 73.7806 112.067 73.7806C112.179 73.3301 111.729 73.4428 111.729 73.4428C111.335 73.5554 111.504 72.6544 111.504 72.6544C111.898 72.0349 111.447 71.9786 111.447 71.9786C111.109 72.3165 111.109 71.7534 111.109 71.7534C111.391 71.3028 110.997 71.1902 110.997 71.1902C110.771 71.1339 110.715 70.9087 110.715 70.9087C110.997 70.2329 110.603 70.1766 110.603 70.1766C110.49 70.2892 110.265 70.1766 110.265 70.1766C110.208 69.4445 109.645 69.9513 109.645 69.9513C109.138 71.3592 109.814 71.5281 109.814 71.5281ZM105.14 61.2227C105.534 61.8422 105.872 61.1101 105.872 61.1101C106.942 58.9702 106.154 57.7313 106.154 57.7313C105.929 57.1682 105.253 56.8303 105.253 56.8303C104.521 56.5487 104.859 57.3934 104.859 57.3934C106.492 58.1255 105.14 61.2227 105.14 61.2227ZM106.266 66.7978C106.379 67.023 106.83 66.8541 106.83 66.8541C107.28 66.122 106.83 65.9531 106.83 65.9531C105.872 66.122 106.266 66.7978 106.266 66.7978ZM92.9764 57.9565C93.5396 58.2944 93.9901 57.8439 93.9901 57.8439L95.229 56.8303C96.1863 56.0419 96.6368 55.8729 96.6368 55.8729C97.2563 55.4224 96.5242 55.3098 96.5242 55.3098C95.5669 55.3661 94.3843 56.605 94.3843 56.605C94.1027 56.8866 93.9901 56.9992 93.9901 56.9992C92.4133 57.8439 92.9764 57.9565 92.9764 57.9565ZM113.812 56.605C114.094 56.2671 113.587 56.1545 113.587 56.1545C112.63 55.8729 113.306 56.5487 113.306 56.5487C113.587 56.6613 113.812 56.605 113.812 56.605Z" fill="black"/>
<path d="M59.7488 104.245C59.7488 104.245 59.073 101.993 60.4245 101.655L62.846 100.979L65.4928 101.035C65.4928 101.035 67.4074 99.3459 68.1395 99.6838C68.1395 99.6838 70.392 98.3886 70.561 99.6838C70.561 99.6838 71.5183 99.9654 70.9552 101.43C70.9552 101.43 71.1804 108.412 72.5319 111.341L72.9261 113.987C72.9261 113.987 71.6309 115.452 69.1531 115.958C69.1531 115.958 66.9006 116.071 65.4364 113.818C65.4364 113.818 64.5354 112.523 63.9723 112.129C63.9723 112.129 63.2965 111.228 62.9023 110.102C62.9023 110.102 62.0013 109.144 61.1003 109.088C61.1003 109.088 59.4672 108.469 59.6362 107.117C59.6362 107.117 59.2983 106.723 60.0867 105.54C60.0867 105.484 60.0867 104.977 59.7488 104.245ZM59.1293 97.9944C59.4672 98.4449 60.0303 100.81 60.0303 100.81C60.4809 101.43 60.6498 100.697 60.6498 100.697C59.8614 98.276 59.5798 96.305 59.5798 96.305C59.5235 95.235 59.1293 95.404 59.1293 95.404C58.2846 95.9108 59.1293 97.9944 59.1293 97.9944ZM60.5935 98.276C60.5372 99.008 60.9877 100.416 60.9877 100.416C61.3256 100.866 61.6071 100.191 61.6071 100.191C61.1566 98.5575 61.2692 96.8118 61.2692 96.8118L61.4945 96.4176C61.6071 96.0234 61.1003 95.7419 61.1003 95.7419C59.8051 94.503 60.3119 97.0371 60.3119 97.0371L60.5935 98.276ZM62.1139 98.1633C62.1139 98.2196 62.0576 98.4449 62.0576 98.4449C61.6634 98.7828 61.945 99.0644 61.945 99.0644C62.5081 99.1207 62.3392 99.9654 62.3392 99.9654C62.5645 100.585 63.2965 100.416 63.2965 100.416C64.0849 100.134 63.3528 99.4022 63.3528 99.4022C63.4092 98.7828 63.1276 98.6702 63.1276 98.6702C63.3528 97.8818 63.015 97.7691 63.015 97.7691V97.1497C63.015 96.4739 62.5645 96.5302 62.5645 96.5302C62.0013 96.3613 62.1139 98.1633 62.1139 98.1633ZM64.2539 100.078C64.5354 100.641 64.817 100.078 64.817 100.078L64.5917 98.3323C64.5354 96.5302 63.9723 96.7555 63.9723 96.7555C63.2402 96.8118 63.5781 97.8255 63.5781 97.8255L64.2539 100.078ZM65.0423 96.9244C64.9859 97.8255 65.2675 98.0507 65.2675 98.0507C65.0422 99.0644 65.2675 99.177 65.2675 99.177L65.4928 100.078L66.0559 100.022C66.619 99.7401 66.1122 98.6702 66.1122 98.6702C66.3375 97.5439 65.887 97.6565 65.887 97.6565L65.8306 97.0934C65.887 95.6855 65.0423 96.9244 65.0423 96.9244ZM66.3938 96.9807C66.3938 99.3459 66.8443 99.2896 66.8443 99.2896C67.7453 99.6838 68.0832 99.0644 68.0832 99.0644C67.8016 98.6702 67.689 97.9944 67.689 97.9944C67.7453 96.7555 67.4637 96.7555 67.4637 96.7555L67.4074 95.0098C67.1822 93.3767 66.3938 95.2913 66.3938 95.2913V96.9807ZM68.0269 94.6719C68.1395 95.0098 68.0832 95.3477 68.0832 95.3477C68.0832 96.4739 68.3647 97.9944 68.3647 97.9944C68.4774 99.2333 69.0968 98.5575 69.0968 98.5575C70.1668 97.8818 69.7163 97.6565 69.7163 97.6565C69.3221 97.0371 69.6036 95.0098 69.6036 95.0098C69.7163 93.6583 69.2658 94.0524 69.2658 94.0524L68.0269 94.6719ZM81.7111 87.5201C81.9926 87.7453 82.1616 87.5201 82.1616 87.5201L82.3868 86.2249C82.6121 85.3239 82.4994 85.1549 82.4994 85.1549H82.2742C81.88 85.1549 81.8237 86.2812 81.8237 86.2812L81.7111 87.5201ZM82.7247 87.9143C82.4994 88.59 83.0626 88.6464 83.0626 88.6464C83.9636 89.2095 83.851 88.6464 83.851 88.6464C83.851 88.6464 84.0762 85.6054 84.1325 85.3802C84.2452 84.817 83.5131 85.0423 83.5131 85.0423L83.1752 85.4928L82.7247 87.9143ZM84.5267 88.4774C84.4141 89.1532 84.583 89.2095 84.583 89.2095L85.2588 89.3221C86.2161 89.3221 85.9346 88.8716 85.9346 88.8716L85.9909 86.2812C86.1035 85.2112 85.5404 85.3802 85.5404 85.3802C84.752 85.4365 84.8646 86.3938 84.8646 86.3938L84.5267 88.4774ZM86.7793 87.0696C86.554 87.1822 86.4977 87.6327 86.4977 87.6327C86.6103 87.9143 86.7793 88.7027 86.7793 88.7027C86.6666 89.66 87.455 89.3221 87.455 89.3221C88.2434 89.2658 87.8492 88.7027 87.8492 88.7027L87.7366 85.9433C87.3424 84.986 86.7793 85.9996 86.7793 85.9996V87.0696ZM88.4687 86.788C88.0182 89.4911 89.0881 89.1532 89.0881 89.1532C90.3833 88.759 90.2144 88.4774 90.2144 88.4774C90.2144 88.0269 89.9891 87.0696 89.9891 87.0696C89.9891 87.0696 89.7639 86.1122 89.8765 85.9996C90.1018 85.2112 88.9192 85.3802 88.9192 85.3802C88.1871 85.3802 88.356 85.7744 88.356 85.7744L88.4687 86.788ZM90.8338 88.0269C90.7212 88.59 91.228 88.8153 91.228 88.8153L92.1854 88.4211C92.4669 88.0269 92.2417 87.0133 92.2417 87.0133L92.0164 86.3938C92.1291 85.4365 91.5659 85.4928 91.5659 85.4928C90.5523 85.4928 90.7775 86.0559 90.7775 86.0559L90.8338 88.0269ZM92.9174 85.3802C92.5233 85.4365 92.8048 86.6754 92.8048 86.6754C93.0864 87.4075 93.0301 87.689 93.0301 87.689C93.0301 88.6463 93.4806 88.4211 93.4806 88.4211C93.4806 88.4211 94.4379 87.858 94.4942 87.8016C95.1137 87.1822 94.3816 86.0559 94.3816 86.0559C94.3816 85.2675 94.1563 85.1549 94.1563 85.1549L92.9174 85.3802ZM95.1137 84.7044C94.7195 85.6617 95.2263 86.6191 95.2263 86.6191C95.6205 87.5764 96.2399 86.9569 96.2399 86.9569C96.972 86.5064 96.8031 86.3375 96.8031 86.3375L96.4652 84.7607C96.1836 83.9723 96.071 84.1413 96.071 84.1413L95.1137 84.7044ZM97.141 83.5218C96.9157 83.7471 97.0846 83.9723 97.0846 83.9723L97.4225 85.5491C97.5352 86.1686 97.873 85.9433 97.873 85.9433L98.6051 85.2675C98.8304 85.0423 98.4925 84.2539 98.4925 84.2539C98.6051 83.8597 98.2672 83.2966 98.2672 83.2966C98.3235 82.5082 97.8167 82.8461 97.8167 82.8461L97.141 83.5218ZM99.1683 84.3102C99.2246 84.9297 99.6188 84.5355 99.6188 84.5355C100.069 84.3102 99.844 83.4655 99.844 83.4655C99.6188 83.015 99.7314 82.5082 99.7314 82.5082C98.9993 81.4945 98.8304 82.2829 98.8304 82.2829L99.1119 83.4092L99.1683 84.3102ZM100.295 83.015C100.689 83.6344 100.858 83.0713 100.858 83.0713C101.421 82.6208 100.463 82.6771 100.463 82.6771C100.013 82.6208 100.295 83.015 100.295 83.015ZM140.39 103.626C140.39 103.626 137.687 106.216 131.605 106.441C131.605 106.441 129.69 103.738 127.156 102.443C127.156 102.443 124.735 100.641 123.102 97.9944C123.102 97.9944 128.226 95.8545 129.409 93.4893C129.409 93.4893 130.873 91.4057 132.393 93.2077C132.393 93.2077 132.956 93.6583 133.294 93.6019C133.294 93.6019 133.97 93.2077 132.675 92.363L131.267 91.631C131.267 91.631 131.154 90.7299 132.9 89.9979C132.9 89.9979 133.857 89.2095 132.112 89.3784C132.112 89.3784 130.873 89.8289 129.296 92.1941C129.296 92.1941 126.706 95.8545 121.637 97.3186C121.637 97.3186 115.443 98.4449 110.149 93.7146C110.149 93.7146 109.361 93.6019 110.713 94.9535C110.713 94.9535 112.458 96.2487 110.938 96.2487C110.938 96.2487 109.586 96.5302 110.037 96.8118C110.037 96.8118 110.318 96.9244 111.839 96.5302C111.839 96.5302 112.965 96.136 114.823 97.206C114.823 97.206 116.175 98.1633 118.484 98.5012C118.484 98.5012 119.948 103.344 114.542 111.228C114.542 111.228 112.852 113.818 110.375 115.001C110.375 115.001 107.953 117.479 107.559 118.943C107.559 118.943 107.841 120.351 108.629 119.337C108.629 119.337 110.375 115.733 113.359 114.382C113.359 114.382 113.81 114.438 113.81 115.789C113.81 115.789 114.542 117.704 116.4 119.168C116.4 119.168 116.851 119.844 115.724 121.252C115.724 121.252 113.416 125.701 109.755 127.108L109.079 127.446C109.079 127.446 107.672 127.39 106.94 127.728L105.926 128.178C105.926 128.178 104.011 128.404 103.899 128.516C103.842 128.629 102.998 128.516 102.998 128.798C102.998 129.079 100.069 128.516 99.6188 128.911C99.6188 128.911 98.5488 128.967 98.6051 129.192C98.6051 129.192 95.4516 129.248 95.5079 129.643L93.1427 129.924L91.1154 129.699C91.1154 129.699 88.4124 129.643 82.4431 124.349C82.4431 124.349 77.6565 119.619 75.0661 115.283C75.0661 115.283 69.3221 105.597 73.264 94.1088C73.264 94.1088 75.6292 87.689 80.7537 87.5764C80.7537 87.5764 82.0489 90.9552 88.8629 89.9416C88.8629 89.9416 93.1427 89.8852 98.8867 86.3375C98.8867 86.3375 100.689 84.7044 101.139 84.0286C101.139 84.0286 102.491 82.4519 104.8 81.6635C104.8 81.6635 105.701 80.9877 106.376 80.4246C106.376 80.4246 107.503 80.1993 108.178 80.143C108.178 80.143 110.881 78.6789 114.204 79.4672C114.204 79.4672 117.808 79.7488 129.071 84.5918C129.071 84.5918 130.873 85.8307 133.351 85.9433C133.351 85.9433 133.632 86.2249 133.801 87.2385L136.054 91.4057C136.11 91.2931 140.333 95.9671 140.39 103.626ZM107.784 124.743C107.784 124.969 108.009 125.138 108.235 125.138C108.516 125.138 108.629 124.912 108.629 124.687C108.404 121.59 110.318 120.689 110.375 120.632C112.177 119.957 113.303 119.056 113.697 118.155C113.979 117.423 113.697 116.803 113.697 116.747C113.585 116.522 113.303 116.465 113.078 116.522C112.852 116.634 112.74 116.916 112.852 117.141C112.852 117.141 112.965 117.423 112.796 117.817C112.571 118.267 112.008 119.056 110.037 119.788C109.98 119.9 107.559 120.97 107.784 124.743ZM132.224 110.383C131.436 107.737 131.436 107.624 131.436 107.624C130.648 107.342 130.816 107.906 130.816 107.906C131.549 110.327 132.224 110.383 132.224 110.383ZM132.055 107.68C132.618 110.045 132.956 110.271 132.956 110.271C133.182 110.552 133.632 110.327 133.632 110.327C133.407 109.989 132.844 107.399 132.844 107.399C132.168 106.723 132.055 107.68 132.055 107.68ZM133.632 108.469C134.026 110.609 134.589 110.44 134.589 110.44C135.265 110.102 134.477 108.863 134.477 108.863C134.421 108.131 134.083 107.23 134.083 107.23C133.125 106.779 133.632 108.469 133.632 108.469ZM134.815 107.342C135.04 109.144 135.434 109.933 135.434 109.933C136.11 110.383 136.166 109.595 136.166 109.595C136.11 109.482 135.716 107.23 135.716 107.23C135.603 106.61 135.265 106.667 135.265 106.667C134.646 106.779 134.815 107.342 134.815 107.342ZM136.898 109.482C137.18 110.045 137.574 109.539 137.574 109.539V107.061C137.518 105.822 137.011 106.047 137.011 106.047C136.279 106.16 136.448 106.836 136.448 106.836L136.898 109.482ZM138.137 106.329C138.081 109.426 138.419 109.257 138.419 109.257C139.658 109.482 139.32 108.694 139.32 108.694C138.757 107.568 138.869 106.61 138.869 106.61C138.982 105.878 138.757 105.653 138.757 105.653C138.025 105.484 138.137 106.329 138.137 106.329ZM139.601 105.259C139.376 107.962 139.939 108.694 139.939 108.694C140.559 108.976 140.84 108.131 140.84 108.131L140.446 105.203C140.502 104.245 139.601 105.259 139.601 105.259ZM115.837 117.31C116.569 116.747 115.443 116.24 115.443 116.24C115.274 117.141 115.837 117.31 115.837 117.31ZM117.526 116.859C117.526 116.859 121.187 119.562 121.581 120.801C121.581 120.801 122.313 121.027 121.806 120.126C121.806 120.126 119.666 116.972 116.625 115.846C116.625 115.846 116.175 115.564 116.738 116.803C116.738 116.803 117.301 118.211 117.132 118.549C117.132 118.549 117.02 118.549 117.864 118.999C117.864 118.999 119.216 119.957 120.342 121.702C120.342 121.702 121.243 122.941 121.637 122.434C121.637 122.434 122.257 122.209 121.074 121.139C121.074 121.139 120.061 119.788 117.639 117.648C117.639 117.648 116.851 116.634 117.526 116.859ZM121.468 123.167C121.468 123.167 120.004 122.603 118.653 120.576C118.653 120.576 117.639 118.999 117.02 119.506L116.794 120.463C116.794 120.463 116.344 120.351 117.583 121.139C117.583 121.139 120.624 124.293 120.849 123.955C120.793 124.011 121.412 124.574 121.468 123.167ZM115.837 122.322C115.95 122.716 116.231 122.941 116.231 122.941C117.132 123.279 118.822 125.306 118.822 125.306C119.441 125.87 120.061 126.095 120.061 126.095L120.68 125.194C121.299 124.236 120.455 124.462 120.455 124.462C119.666 124.349 117.189 121.533 117.189 121.533C116.513 120.576 115.837 122.322 115.837 122.322ZM114.992 124.011C115.443 125.025 116.4 125.813 116.4 125.813C116.682 126.095 118.484 127.108 118.484 127.108C119.216 127.559 119.272 127.165 119.272 127.165C120.061 126.602 119.328 126.376 119.328 126.376C118.54 126.039 116.4 123.955 116.4 123.955C115.33 122.603 115.33 122.998 115.33 122.998C114.654 123.561 114.992 124.011 114.992 124.011ZM113.922 125.701C115.95 128.178 116.738 128.122 116.738 128.122C117.358 128.573 117.864 128.742 117.864 128.742C118.991 128.122 118.146 127.672 118.146 127.672C115.781 126.714 114.654 124.969 114.654 124.969C114.26 124.18 113.922 124.687 113.922 124.687C113.247 125.25 113.922 125.701 113.922 125.701ZM112.852 126.94C115.274 129.586 116.457 129.868 116.457 129.868C117.752 130.093 117.358 129.248 117.358 129.248C115.33 128.291 114.035 126.658 114.035 126.658C113.078 125.419 112.909 125.757 112.909 125.757C111.839 126.545 112.852 126.94 112.852 126.94ZM113.021 129.079C114.26 130.994 115.049 130.994 115.049 130.994C115.781 131.557 115.95 130.938 115.95 130.938C116.569 130.487 115.33 130.262 115.33 130.262C115.274 129.699 113.585 128.629 113.585 128.629C111.501 126.376 111.445 126.827 111.445 126.827C110.262 126.883 113.021 129.079 113.021 129.079ZM109.643 127.672C109.53 128.01 109.699 128.235 109.699 128.235C111.388 130.318 113.641 132.008 113.641 132.008C114.88 132.12 114.598 131.332 114.598 131.332C114.204 131.219 113.359 130.375 113.359 130.375C113.078 129.812 110.769 127.615 110.769 127.615C110.487 126.94 109.643 127.672 109.643 127.672ZM107.841 128.122C107.784 128.742 109.53 130.262 109.53 130.262C110.318 131.557 112.233 132.627 112.233 132.627C113.134 133.19 113.19 132.233 113.19 132.233C109.192 128.629 109.023 128.404 109.023 128.404C109.192 127.277 107.841 128.122 107.841 128.122ZM106.151 128.629C105.701 129.248 107.615 131.332 107.615 131.332C107.953 131.895 110.262 133.134 110.262 133.134C110.938 133.753 111.332 133.19 111.332 133.19C112.12 132.852 110.206 132.12 110.206 132.12C109.98 131.895 109.136 130.769 109.136 130.769C107.446 129.305 107.559 129.136 107.559 129.136C107.615 128.178 107.334 128.178 107.334 128.178L106.151 128.629ZM108.122 133.753C108.235 134.486 109.699 133.753 109.699 133.753C109.812 133.303 108.742 132.965 108.742 132.965C107.503 131.67 108.122 133.753 108.122 133.753ZM105.081 130.375C105.532 130.994 106.771 133.359 106.771 133.359C107.559 134.317 107.503 133.472 107.503 133.472C107.728 132.402 106.151 130.881 106.151 130.881C105.87 129.812 105.419 129.474 105.419 129.474C105.475 129.023 105.363 128.854 105.363 128.854C104.405 128.573 104.293 129.305 104.293 129.305L105.081 130.375ZM103.054 129.586C103.054 129.586 102.829 129.812 103.167 130.149C103.561 130.487 103.955 130.938 103.955 130.938L105.025 132.684C106.602 134.767 105.701 133.078 105.701 133.078C105.475 132.852 105.25 132.064 105.25 132.064C105.306 131.388 104.293 130.487 104.293 130.487C103.955 130.149 103.842 129.417 103.842 129.417C103.335 128.573 103.054 129.586 103.054 129.586ZM101.083 129.305C100.52 129.305 100.858 129.868 100.858 129.868C100.632 130.206 102.885 132.852 102.885 132.852C104.293 134.767 104.518 134.767 104.518 134.767C105.926 134.88 105.588 134.373 105.588 134.373C103.561 130.938 102.491 130.262 102.491 130.262C102.772 128.742 101.083 129.305 101.083 129.305ZM99.3935 129.699C99.1682 131.332 101.308 133.81 101.308 133.81C101.702 134.767 102.097 135.105 102.097 135.105C103.786 135.218 103.504 134.711 103.504 134.711C100.182 130.769 100.351 130.262 100.351 130.262V129.586C100.013 128.911 99.3935 129.699 99.3935 129.699ZM96.1273 130.037C96.1836 130.375 96.7468 131.107 96.7468 131.107C97.141 132.233 99.6751 133.528 99.6751 133.528C101.139 134.429 99.6188 132.627 99.6188 132.627C99.3935 131.67 99.1683 131.332 99.1683 131.332C98.7741 130.769 98.7741 130.431 98.7741 130.431C98.8867 129.474 98.4925 129.699 98.4925 129.699L96.1273 130.037ZM94.2127 130.375C93.0864 129.98 93.8185 131.107 93.8185 131.107C94.4379 132.796 97.8167 134.88 97.8167 134.88C98.4362 135.443 99.7877 135.33 99.7877 135.33C102.04 135.612 100.407 134.88 100.407 134.88C98.7741 133.979 96.972 132.571 96.972 132.571C96.2963 132.008 95.6768 130.825 95.6768 130.825C95.3952 129.924 94.2127 130.375 94.2127 130.375ZM91.0591 130.149C89.7639 129.868 90.9465 130.713 90.9465 130.713C91.5096 131.445 93.5369 132.965 93.5369 132.965C96.1273 134.373 94.1 132.571 94.1 132.571C92.9738 131.445 92.9738 131.107 92.9738 131.107C93.199 130.431 92.5233 130.375 92.5233 130.375L91.0591 130.149Z" fill="#862633"/>
<path d="M96.5798 49.3394C96.5798 49.3394 93.7642 50.7473 86.6687 48.3821L82.5015 46.6364C82.5015 46.6364 78.3343 44.4965 76.7012 43.9334C76.7012 43.9334 77.9964 43.5955 80.3616 44.6654C80.3616 44.6654 84.8103 46.8053 85.3735 47.0306C85.655 47.1995 87.5697 48.9453 96.5798 49.3394ZM108.518 46.2985L106.829 47.4248L105.083 48.8889C105.083 48.8889 104.52 47.9316 103.788 47.5374C103.788 47.5374 101.366 45.9043 97.9877 48.2132C97.9877 48.2132 94.4962 49.0016 88.4144 47.4811C88.4144 47.4811 86.1055 42.3566 92.4126 38.6399L95.5662 38.302C95.5662 38.302 97.9314 38.6962 100.297 41.7934C100.297 41.7934 101.31 40.7235 96.5235 37.6825C96.5235 37.6825 98.8324 36.6126 101.704 37.9078C101.704 37.9078 103.169 38.5836 104.689 41.2303C104.689 41.2303 105.815 42.5255 106.716 43.3702C106.716 43.4828 109.194 45.848 108.518 46.2985ZM92.3 42.6381L91.7369 42.976C92.4126 44.046 92.1311 46.6927 92.1311 46.6927L92.7505 46.749C92.8632 46.6364 93.0884 43.9334 92.3 42.6381ZM93.2573 40.7235L92.6942 41.005C94.4962 44.3839 93.4263 46.2985 93.4263 46.2985L93.9894 46.5801C94.0457 46.5238 95.2846 44.4402 93.2573 40.7235ZM97.0304 46.5801C97.0304 46.4675 96.8051 43.145 95.2283 40.4419L94.6652 40.7798C96.2983 43.4265 96.4109 46.5801 96.4109 46.6364L97.0304 46.5801ZM100.015 45.848L99.114 43.5955L98.5508 43.8207L99.4518 46.0733L100.015 45.848ZM104.52 47.1995L103.056 44.2149L102.493 44.4965L103.957 47.4811L104.52 47.1995ZM105.027 46.6364C104.576 43.3702 101.423 40.273 101.31 40.1603L100.916 40.5545C100.916 40.5545 104.013 43.6518 104.407 46.6927L105.027 46.6364ZM106.209 45.9043C106.097 45.1159 104.126 41.9624 103.901 41.5682L103.337 41.9061C104.126 43.2576 105.421 45.5101 105.59 46.017L106.209 45.9043ZM87.2881 43.9334C87.2881 43.9334 87.0065 45.6228 87.2318 47.0306L81.7131 44.7217C81.7131 44.7217 79.6295 39.2593 89.597 37.6262C89.597 37.6262 89.2591 38.0767 91.2301 38.302C91.1737 38.4146 87.2318 41.8498 87.2881 43.9334ZM82.5578 43.8207C82.5578 43.8207 83.5714 41.5119 84.9793 40.6672L84.6977 40.2167C83.1209 41.174 82.051 43.5392 81.9946 43.6518L82.5578 43.8207ZM83.7967 44.1586C84.1346 43.5955 85.0919 42.1876 85.5424 41.8498L85.2045 41.3992C84.5851 41.8498 83.4588 43.7081 83.2899 43.877L83.7967 44.1586ZM87.0065 41.1177L86.9502 40.8361L86.8939 40.5545C86.6687 40.6109 85.8803 41.005 84.5851 44.6654L85.1482 44.8907C86.3308 41.5119 87.0065 41.174 87.0065 41.1177Z" fill="#001A72"/>
<path d="M87.1201 110.215L87.1765 110.44L87.0638 110.553C86.4444 111.454 85.7686 112.355 85.1492 113.312L85.0365 113.537H84.755C83.3471 113.537 81.9393 113.594 80.4751 113.594H80.3625L80.2499 113.481C79.2363 112.58 78.1663 111.735 77.1527 110.778L77.04 110.665V110.553C76.8148 109.427 76.7021 108.244 76.5895 107.118L76.5332 106.667H81.2635L81.3199 107.061C81.3762 107.737 81.4325 108.469 81.6014 109.145H82.2772C82.1646 108.131 81.9956 107.061 81.9393 106.048L79.4615 105.822L79.3489 105.71C78.3915 104.753 77.5468 103.795 76.7021 102.894L76.5895 102.782V102.556C76.6458 100.585 76.9274 98.6144 77.2653 96.6997V96.5871L77.3779 96.5308C78.3915 95.6297 79.4615 94.7287 80.5315 93.8277L80.6441 93.7151L85.0365 93.7714L85.1492 93.9967C85.7686 94.8977 86.4444 95.7987 87.1201 96.756L87.2328 96.8686L87.1765 97.0939C86.9512 98.1639 86.8386 99.2338 86.7259 100.416L86.6696 100.811H81.8267L81.883 100.36C81.9393 99.6843 81.9956 98.9522 82.1646 98.2765H81.4888C81.3762 99.2901 81.2072 100.304 81.1509 101.317C81.883 101.374 82.7277 101.43 83.4598 101.543H83.685L83.7976 101.655C84.586 102.556 85.4307 103.457 86.3881 104.415L86.5007 104.527V104.753C86.557 106.442 86.7823 108.357 87.1201 110.215ZM98.2702 110.102C97.9323 108.413 97.7071 106.667 97.5945 104.978V104.584H92.9768V105.034C93.0331 106.386 93.202 107.737 93.3709 109.032H92.6389C92.0194 105.428 92.0194 101.824 92.5826 98.2202H93.3146C93.202 99.2338 93.0331 100.304 92.9768 101.374V101.824H97.5945V101.43C97.6508 99.9659 97.876 98.4454 98.1576 97.0376L98.2139 96.8123L98.1013 96.6997C97.4255 95.7987 96.8061 94.8977 96.1866 93.9967L96.074 93.7714L91.7379 93.7151H91.6252L91.5126 93.8277C90.4426 94.7287 89.429 95.5734 88.4154 96.5308L88.3027 96.5871V96.6997C87.4017 101.205 87.4017 105.766 88.3027 110.271V110.384L88.4154 110.44C89.4853 111.341 90.5553 112.186 91.7942 113.087L91.9068 113.143L96.2429 113.087L96.3556 112.862C96.9187 111.961 97.4818 111.116 98.2702 110.159L98.3829 110.046L98.2702 110.102Z" fill="black"/>
<path d="M77.8284 110.214C77.7158 109.257 77.5469 108.412 77.4342 107.511H80.3625C80.4189 108.243 80.4752 108.919 80.6441 109.651L80.7004 110.045H83.1782L83.1219 109.482C82.8967 108.187 82.784 106.836 82.7277 105.54V105.146L79.7431 104.865C78.9547 104.076 78.11 103.175 77.3779 102.387C77.4342 100.585 77.6595 98.7264 78.0537 96.9807C79.011 96.1923 79.9684 95.2913 80.982 94.5029L84.5861 94.5592C85.1492 95.3476 85.7123 96.1923 86.3318 96.9807C86.1065 97.8817 85.9939 98.7828 85.9376 99.7401H82.953C83.0093 99.0643 83.1782 98.3886 83.2345 97.7128L83.2909 97.1497H80.8131L80.7567 97.5439C80.5315 98.8391 80.3625 100.191 80.3062 101.486V101.88L80.7004 101.936C81.6014 101.993 82.3898 102.162 83.2909 102.218C84.0229 103.006 84.8676 103.907 85.656 104.696C85.7123 106.498 85.9376 108.356 86.2755 110.158C85.7123 110.946 85.2055 111.791 84.6424 112.58C83.3472 112.58 82.052 112.636 80.8131 112.636C79.7431 111.904 78.7858 111.059 77.8284 110.214ZM96.7498 105.428H93.9341C93.9904 106.723 94.1594 108.074 94.3846 109.37L94.4409 109.933H91.8505L91.7942 109.539C91.1184 105.597 91.1184 101.655 91.7379 97.6565L91.7942 97.2623H94.3846L94.3283 97.8254C94.2157 98.8391 94.0467 99.909 93.9904 100.923H96.7498C96.8061 99.6275 97.0314 98.3323 97.2003 97.0934C96.5808 96.305 96.074 95.5166 95.5672 94.7282L91.8505 94.6719C90.8932 95.4603 89.9358 96.305 89.0348 97.0934C88.2464 101.429 88.2464 105.766 89.0348 110.045C90.0485 110.834 91.0621 111.679 92.1321 112.467L95.7361 112.411C96.1866 111.679 96.7498 110.834 97.3692 110.045C97.0314 108.525 96.8061 107.005 96.7498 105.428Z" fill="white"/>
</svg>
