<svg width="201" height="201" viewBox="0 0 201 201" fill="none" xmlns="http://www.w3.org/2000/svg">
<path d="M181.127 21.6771C158.518 35.0621 122.535 33.1793 100.653 8.23204C78.7707 33.1793 42.7879 35.0621 20.179 21.6771C12.1568 82.9639 25.1292 171.06 100.653 193.286C176.176 171.06 189.149 82.9639 181.127 21.6771Z" fill="#412784"/>
<path d="M61.6563 36.682C49.6172 38.2667 37.2914 36.832 26.4568 32.794C25.8586 39.6756 25.5352 46.5698 25.5352 53.4034C25.5352 77.2536 29.1364 100.363 36.0646 119.618C48.3153 153.665 70.0554 176.936 100.653 186.632C131.249 176.936 152.99 153.665 165.241 119.618C172.168 100.363 175.77 77.2536 175.77 53.4034C175.77 46.5698 175.447 39.6756 174.848 32.794C164.013 36.832 151.688 38.2667 139.649 36.682C124.916 34.7426 111.338 28.4504 100.653 18.7635C89.9677 28.4504 76.3898 34.7426 61.6563 36.682Z" fill="white"/>
<path d="M62.4615 42.81C52.2399 44.1548 41.8837 43.5167 32.0792 41.0044C31.8465 45.2175 31.7148 49.3705 31.7148 53.4034C31.7148 76.8724 35.2297 99.0453 41.8788 117.525C53.1728 148.912 72.9547 170.69 100.652 180.089C128.348 170.69 148.13 148.912 159.424 117.525C166.074 99.0453 169.588 76.8724 169.588 53.4034C169.588 49.3705 169.456 45.2169 169.224 41.0044C159.42 43.5167 149.063 44.1548 138.841 42.81C124.7 40.9483 111.61 35.4425 100.652 26.8263C89.693 35.4425 76.6033 40.9483 62.4615 42.81Z" fill="#412784"/>
<path d="M45.9316 52.9106V77.1373H57.9494L57.9494 66.6452H93.8114V108.421L107.165 108.421V66.6452L143.028 66.6452V77.1373H155.046V52.9106L45.9316 52.9106Z" fill="white"/>
<path d="M91.6965 81.5748H71.4926L64.1484 88.9194L64.1484 114.576L72.3991 122.826H124.905V136.704H108.881V148.913H129.483L136.827 141.569V117.056L130.294 110.522H77.5967V95.5H91.7125L91.6965 81.5748Z" fill="white"/>
<path d="M109.191 81.5516V95.4293H124.571V100.938H137.304V88.9912L129.936 81.531L109.191 81.5516Z" fill="white"/>
<path d="M91.6662 136.562H77.7885V130.839H64.1973V141.069L72.1014 148.973H91.6662V136.562Z" fill="white"/>
<path d="M107.117 156.448V124.686H93.8116V156.448H88.375V165.461H112.554V156.448H107.117Z" fill="white"/>
</svg>
