<svg width="200" height="201" viewBox="0 0 200 201" fill="none" xmlns="http://www.w3.org/2000/svg">
<path d="M71.1334 21.9559L49.1816 43.4465V101.192L68.2641 120.671H77.0149C76.8018 121.257 76.5225 122.161 77.13 123.045C77.7906 124.025 78.9308 124.025 79.3677 124.025C79.8792 124.025 80.5931 123.961 81.6907 123.812H81.7036C81.7036 123.812 82.1618 124.219 80.7659 124.677C79.6151 125.082 78.6113 125.752 78.2809 126.902C78.2591 126.987 78.2511 127.075 78.2298 127.149H49.1903L49.1818 156.665L71.1335 178.232H128.866L150.818 156.695V101.383L131.732 81.9336H115.548C115.537 81.9336 115.522 81.9251 115.522 81.9251C114.808 81.4989 114.075 81.0492 113.404 80.6123L113.157 80.4546L113.114 80.429C112.752 80.2053 112.37 79.9303 111.955 79.5681C111.592 79.2803 111.292 78.9927 111.068 78.7369L111.004 78.6729C110.578 78.2254 110.205 77.797 109.917 77.4241C112.443 78.1487 115.194 78.332 116.515 78.3746H116.673C116.758 78.3746 116.846 78.3875 116.92 78.3875L117.035 78.396C117.355 78.4178 117.6 78.4704 117.76 78.5238C117.93 78.5877 118.082 78.6646 118.22 78.7284L118.902 78.9842C119.062 79.0267 119.232 79.0353 119.414 79.0353C120.405 79.0353 121.332 78.4386 121.758 77.5009C121.896 77.1812 122.109 76.544 121.95 75.7022L150.815 75.7236V43.4801L128.868 21.9552H71.1349L71.1334 21.9559Z" fill="#8C1515"/>
<path d="M148.196 44.6211L127.806 24.6201H72.1929L51.7975 44.5887V100.095L69.3472 117.997L80.6635 118.008C79.3954 119.148 79.0012 120.331 78.7987 120.906C78.3619 122.174 77.9036 122.536 81.8782 121.982C83.1356 121.801 85.4266 120.991 86.5027 120.267C87.5576 119.542 89.646 120.128 89.4649 121.695C88.4846 124.092 85.97 125.595 83.5722 125.893C78.0526 126.586 80.4395 128.642 80.4395 128.642C81.0469 129.058 81.4838 129.463 81.7928 129.825H79.1076V129.814H51.8073L51.7964 155.526L72.1811 175.559H127.805L148.189 155.558V102.493L130.639 84.6128H116.457C115.327 83.8562 113.804 83.0144 112.418 82.1087C112.418 82.0978 112.418 82.0978 112.407 82.0978C111.875 81.7888 111.352 81.4052 110.852 80.9683C110.436 80.638 110.063 80.2864 109.743 79.9347C108.518 78.656 107.602 77.324 107.357 76.706C106.898 75.5765 107.005 74.1486 108.039 74.7346C110.66 76.2478 114.965 76.5355 116.563 76.5888C116.744 76.5888 118.034 76.738 118.343 76.8337C118.662 76.9617 119.152 77.196 119.152 77.196C119.802 77.4731 120.975 76.578 119.621 74.9263C119.27 74.3616 118.737 73.7116 118.108 73.0509H148.188V44.6213" fill="white"/>
<path d="M73.2411 27.2834L54.4131 45.7288V98.9808L70.4395 115.329H85.4851C88.053 114.201 88.5967 114.297 89.3102 112.859C89.4169 112.63 89.5226 111.97 89.5338 111.324C89.5658 111.141 89.886 109.2 88.9479 109.673C87.339 110.481 84.0887 108.346 81.6591 109.617C79.2295 110.872 81.0091 107.955 81.3501 107.452C81.3501 107.452 82.65 105.74 84.6106 104.606C84.6853 104.566 84.7493 104.525 84.8022 104.479C84.9942 104.373 85.1863 104.281 85.3891 104.185C86.8806 103.488 91.1315 100.658 91.8989 99.7735C92.3572 99.2603 93.1673 98.0864 93.1993 97.4359C93.3375 96.8718 93.4447 95.9774 92.9015 95.6268C92.0915 95.0932 91.441 96.135 90.1731 96.7041C88.9047 97.2682 87.9457 97.502 86.8161 97.5426C85.7296 97.5782 84.6853 97.1615 84.0353 97.258C83.3848 97.3648 83.0012 96.8718 84.1949 95.6674C84.7381 95.1237 84.9734 94.8798 85.229 94.6968C88.0636 92.8775 90.6101 92.8572 92.0381 89.6252C92.0381 89.6252 93.1464 86.7286 91.0045 87.9635C89.8326 88.6444 89.1933 89.6252 85.8363 89.6252C82.4904 89.6252 81.1793 91.2158 80.6148 91.9069C80.6148 91.9069 78.3351 95.0932 78.8997 90.6263C79.4754 86.1747 80.3378 83.9031 82.4371 82.1651C84.2482 80.6762 88.7446 78.674 90.3647 76.4685C91.1955 75.6452 93.2847 73.2568 92.0696 71.2347C91.5579 70.382 90.3118 72.5911 89.0226 72.8756C87.5519 73.2619 85.6874 73.7395 84.2594 73.4499C82.4904 73.0992 81.3608 73.77 80.7001 74.0699C80.0395 74.3697 78.7924 73.4194 80.316 71.6824C82.3619 69.3489 87.307 66.3018 90.6315 64.4795C91.0898 64.2874 92.2078 63.7975 93.2308 63.1476C93.2521 63.1364 93.2735 63.1257 93.2847 63.1257C93.5403 63.0083 93.9133 62.7842 94.1262 62.4966C94.8509 61.8888 95.3519 61.2079 95.1812 60.5152C95.0323 59.8866 94.7223 59.6732 93.742 59.5664C92.9645 59.4917 91.6758 60.3978 90.5888 60.313C88.9265 60.1742 86.4857 60.5574 87.2958 59.3749C88.052 58.2772 89.2772 57.5734 89.6288 57.3818C90.3108 57.0728 91.2276 56.6683 92.5808 56.0605C94.7015 55.1016 94.4027 52.6938 93.5825 52.609C92.3034 52.4702 88.8513 53.5776 91.2804 50.8075C91.2804 50.8075 92.4319 49.6463 93.5931 48.8896C94.5094 48.357 95.2661 48.1543 96.1716 47.8235C96.7367 47.6212 98.2186 46.3106 94.702 46.1719C94.702 46.1719 92.7409 46.2252 93.1139 45.3197C93.4229 44.7231 95.1497 43.6361 95.1497 43.6361C95.1497 43.6361 96.534 42.6873 97.0991 42.1227C97.6423 41.6003 98.026 41.1851 97.994 40.7161C97.9726 40.1835 96.5873 39.5229 96.0009 38.7769C95.5857 38.2438 95.9374 38.0527 96.1716 37.9887C96.2997 37.9679 96.4491 37.946 96.6305 37.946C98.058 37.9567 98.463 36.5287 99.2964 32.8205C99.5403 31.7122 99.5607 31.4784 99.9215 31.4677C99.957 31.4677 99.9774 31.4784 99.9977 31.4784C99.9977 31.4784 100.348 33.3536 100.862 35.4529C101.299 36.6141 101.776 37.1045 102.62 37.0933C102.788 37.0933 102.94 37.1141 103.067 37.136C103.301 37.2 103.662 37.3926 103.235 37.9252C102.915 38.3409 101.959 39.0122 101.883 39.4172C101.609 40.5677 102.706 40.9834 103.824 41.0688C105.41 41.175 104.749 42.1659 103.037 43.4338C101.385 44.659 105.613 47.2807 105.613 47.2807C108.022 49.1457 106.304 49.6244 105.816 49.8912C105.323 50.1469 103.972 50.9782 105.323 51.5108C106.69 52.0332 108.566 53.9191 108.566 53.9191C110.985 56.6891 107.539 55.5925 106.264 55.7206C105.44 55.8054 105.146 58.2238 107.265 59.1726C110.492 60.6321 111.208 60.8775 112.346 61.7303C114.476 63.3071 113.348 64.6498 110.685 64.1807C110.685 64.1807 108.982 63.7549 107.788 63.9891C107.041 64.1279 106.528 64.2981 106.177 64.4795C105.994 64.7565 105.572 65.8536 109.277 66.9935C111.046 67.5474 113.241 68.8803 115.192 70.4039L145.586 70.3723L145.581 45.7476L126.753 27.2814H73.2421L73.2411 27.2834ZM119.136 87.2738C120.01 88.7222 120.518 90.6177 120.894 93.4025C120.904 95.0744 118.699 94.2613 117.982 93.8243C117.484 93.4838 116.823 93.1687 115.97 92.9655C114.359 92.5792 110.527 90.8972 109.48 90.5211C108.413 90.1298 107.636 90.9175 107.509 91.2173H107.519C107.244 91.7255 107.808 92.752 107.808 92.752C109.313 96.1619 112.082 95.979 115.126 98.1641C119.314 101.147 117.078 101.777 116.214 101.33C115.365 100.873 113.957 101.157 113.957 101.157C110.578 102.087 109.567 100.68 107.585 100.156C105.613 99.6226 107.234 102.077 107.946 102.895C108.703 103.779 112.966 106.615 114.445 107.306C117.677 108.81 119.359 111.25 120.36 114.35C121.311 117.282 120.274 116.641 119.507 116.281C118.739 115.915 118.516 115.127 116.61 115.173C114.694 115.214 113.617 115.076 112.25 113.999C111.889 113.719 111.599 113.399 111.355 113.135C111.335 113.125 111.325 113.115 111.315 113.105C110.004 112.103 110.258 115.427 110.527 115.971C111.472 117.876 112.113 117.099 117.571 120.011C120.157 121.393 120.767 123.248 121.041 124.025C121.478 125.286 121.926 125.646 117.962 125.092C116.696 124.92 114.415 124.112 113.327 123.375C112.285 122.653 110.187 123.238 110.375 124.803C111.355 127.201 113.871 128.706 116.27 129C118.368 129.27 119.319 129.727 119.7 130.195C120.848 131.506 118.719 133.427 118.719 133.427C117.652 134.661 118.805 136.11 119.593 136.537C120.874 137.187 123.354 138.676 124.177 140.81C128.481 151.889 124.314 148.713 122.276 147.447C120.233 146.177 116.341 142.919 112.794 143.204C109.247 143.483 108.062 143.677 105.954 142C103.855 140.328 104.058 143.036 104.058 143.036V156.396C104.185 159.389 104.739 162.245 107.117 164.664C109.064 166.661 110.547 166.285 113.297 169.644C114.562 171.189 118.699 172.851 121.458 172.882L126.753 172.892L145.581 154.425V103.586L129.569 87.2738H119.136ZM54.4243 132.486L54.4136 154.384L73.2416 172.861H79.294C84.9846 172.582 87.1154 168.171 88.8417 165.457C90.1416 163.399 92.4436 161.651 93.9036 160.157C95.4485 158.592 95.726 155.009 95.7681 151.132V143.036L95.7793 143.118V141.181H95.79V139.891H95.791V139.591V136.1C95.791 135.287 94.8534 135.226 92.8075 137.441C90.7509 139.647 87.3095 139.464 85.3169 139.647C83.3244 139.825 77.5916 142.813 75.9502 144.952C74.9379 146.284 73.4992 145.186 74.0852 142.564H74.0638C74.3408 141.385 74.852 139.794 75.6727 137.695C76.8019 134.768 81.0432 133.051 81.0432 133.051C81.0432 133.051 81.4802 132.857 81.8639 132.486H54.4243Z" fill="#8C1515"/>
</svg>
