<svg width="200" height="200" viewBox="0 0 200 200" fill="none" xmlns="http://www.w3.org/2000/svg">
<g clip-path="url(#clip0_15016_304358)">
<path fill-rule="evenodd" clip-rule="evenodd" d="M24.7419 -0.924545L85.9026 -0.478119L104.205 16.9328V37.0224L157.776 36.576V77.647H172.509L172.062 113.807L190.365 158.004L201.079 157.557V198.628L81.8832 198.182L83.2225 169.164L76.5262 158.897L49.7406 158.45V119.611L24.2935 120.058L1.97191 98.1825V68.2716H14.4719L1.5255 55.7715L1.0791 20.503L24.7419 -0.924545Z" fill="#3F2A55"/>
<path d="M187.895 161.039L167.216 111.512H168.577V81.3159H103.948V72.1732H116.041V78.5269H154.01V40.442H100.656V18.2766L85.0854 3.29901H26.3113L5.82246 21.9992V53.4611L21.3977 70.1569H61.3136V82.6279H42.6457V72.9955H5.82129V96.851L26.3101 116.017H62.9171V123.81H54.2268V154.836H99.0433L95.8975 162.36H86.5057V194.635H139.158V170.162H144.935V194.635H197.276V161.04H187.893" fill="#B1B3B3"/>
<path d="M27.6793 7.16748L9.91309 23.7107V51.7108L22.65 66.1654H56.0858V61.6986H25.0295L14.6759 49.6755V25.8635L29.5626 11.595H81.3978L93.1662 22.3495V31.1478H74.8822V24.8443H33.9372V49.1659H56.0859V44.5292H38.8578V29.512H69.9929V35.8287H96.9004V20.4514L83.4733 7.16762L27.6793 7.16748ZM60.157 44.5263V66.16H67.0205V127.677H58.1532V150.79H100.778L107.625 135.655V127.677H99.4004V105.895H116.365V101.45H95.0179V132.214H102.731V146.171H63.1474L63.1687 132.214H71.906V61.6341H64.9549V48.9156H145.058V69.9445H125.128V63.5614H95.0179V90.0626H116.365V85.4604H99.8718V68.2011H120.202V74.7461H149.934V44.5296H60.1567L60.157 44.5263ZM9.91309 76.9918V95.0584L27.6793 112.125H62.9795V107.509H29.5641L14.6937 92.6388V81.6084H33.577V91.187H62.9795V86.5848H38.8644V76.9929L9.91309 76.9918ZM120.358 85.0232V108.002H124.554L98.7618 165.784H90.5394V190.453H135.032V165.784H149.081V190.453H192.947V164.534H185.128L161.278 108.001H164.532V85.0218H120.357L120.358 85.0232Z" fill="white"/>
<path d="M131.925 150.168H151.953L142.923 127.649L131.925 150.168Z" fill="white"/>
<path d="M29.5668 11.5947L33.609 17.9911H77.1685L84.6026 25.0139L93.1674 22.3492L81.4017 11.5947H29.5668ZM84.6026 25.0139L74.883 24.844V31.1475H84.6022L84.6026 25.0139ZM33.609 17.9911L23.5 27.5538V47.213L29.7637 55.3424L33.9387 49.1637V24.8394L33.609 17.9911ZM29.7625 55.3418L25.0308 61.696H56.0871V55.342L29.7637 55.3424L29.7625 55.3418ZM73.125 56.0876L64.9582 61.632H71.9067V132.217H63.1747L63.1535 146.173L72.0049 138.744H83.4893L83.3857 94.3763L95.0213 101.45H116.371L116.416 94.3233H83.3853L83.3004 56.0907L95.0209 63.5593H125.129V69.9425L135.05 62.9542V56.0881H83.3001L73.125 56.0876ZM33.5756 81.6063L24.188 81.6488V90.9196L32.2353 98.7094L29.5626 107.508H59.0235V98.7094H32.2383L33.5759 91.1797L33.5756 81.6063ZM125.301 89.6695V102.927L132.319 96.5144H152.869L159.483 89.6695H125.301ZM131.716 102.927L102.155 170.05H95.4479V185.529L104.031 178.718H122.034L130.121 170.05L113.318 170.095L120.532 154.927L142.776 102.928L131.716 102.927ZM142.776 102.928L142.914 127.647L151.943 150.161L165.02 155.028L120.532 154.925L128.163 161.191H156.782L160.787 170.048H153.977V185.527L162.054 178.717H180.407L188.016 170.048H171.573L142.777 102.926L142.776 102.928Z" fill="#5F259F"/>
<path d="M29.5645 11.5949L14.6777 25.8634V49.6808L25.0313 61.6986L29.7636 55.3421L23.4998 47.2152V27.556L33.6094 17.9959L33.9385 24.8435H74.8835L84.6027 25.0134L77.1686 17.9906H33.6091V17.9933L29.5645 11.5949ZM84.6027 25.0134L84.6026 31.1477H93.1673V22.3494L84.6027 25.0134ZM29.7636 55.3421L56.0929 55.3419V49.1606H33.9388L29.7636 55.3421ZM43.1064 33.3658V40.439H65.815V33.3658H43.1064ZM64.9575 48.913V61.6315L73.1268 56.087H135.052V62.9506L125.131 69.9414H145.06V48.9125L64.9575 48.913ZM83.3027 56.0923L83.3876 94.3222H116.372V90.0598H95.0225V63.5612L83.3027 56.0923ZM14.7 81.6057V92.6334L29.5677 107.507L32.2377 98.7082L24.1904 90.9185V81.6477L14.7 81.6057ZM32.2377 98.7082L59.0259 98.7088V107.507H62.9806V91.1786H33.5781L32.2377 98.7082ZM159.487 89.6662L152.873 96.5086H132.322L125.304 102.924H142.773H142.779L171.575 170.048H181.785L153.975 102.924H159.485L159.487 89.6662ZM142.773 102.924L120.53 154.926L165.023 155.029L151.943 150.162H131.913L142.912 127.648L142.774 102.925L142.773 102.924ZM120.53 154.926L113.321 170.094L123.747 170.065L128.166 161.192L120.53 154.926ZM83.3883 94.3747L83.4865 138.748H72.0075L63.1507 146.172H102.74V132.216H95.0241V101.446L83.3885 94.3731L83.3883 94.3747ZM103.58 109.723V123.677H111.808V125.951L118.239 112.287H116.192V109.724L103.58 109.723ZM130.124 170.049L122.036 178.717H104.034L95.4504 185.528H130.124L130.124 170.049ZM188.018 170.049L180.409 178.717H162.053L153.976 185.528H188.018V170.049Z" fill="#3F2A55"/>
<path d="M139.942 145.497L142.918 139.159L145.591 145.497H139.942Z" fill="#B1B3B3"/>
</g>
<defs>
<clipPath id="clip0_15016_304358">
<rect width="200" height="199.56" fill="white" transform="translate(0 0.140625)"/>
</clipPath>
</defs>
</svg>
