<svg width="201" height="201" viewBox="0 0 201 201" fill="none" xmlns="http://www.w3.org/2000/svg">
<path d="M180.478 8.87012H180.543C174.359 33.4171 168.192 57.9695 162.029 82.5237C156.768 81.0266 151.608 79.1869 146.543 77.1295C146.197 72.2378 145.831 67.3477 145.476 62.456C145.315 60.3135 144.674 58.1721 143.415 56.4125C142.014 54.4222 140.018 52.9172 137.893 51.7721C131.551 48.9445 125.203 46.1321 118.856 43.3129C121.302 45.9513 123.848 48.4957 126.301 51.1291C128.1 53.0913 129.945 55.0384 131.409 57.2732C127.784 56.5581 124.326 55.0531 121.279 52.9692C119.104 51.504 117.239 49.6475 115.198 48.0121C110.343 44.0176 105.222 40.2677 99.5572 37.4988C98.3235 36.9128 97.0761 36.3168 95.73 36.0387C93.0216 35.4397 90.1353 35.8965 87.6727 37.1423C84.4836 38.7157 81.9975 41.5264 80.5747 44.7626C76.6859 52.1286 72.7782 59.4863 68.8794 66.8473C62.3086 65.2601 55.5604 64.3042 48.7921 64.3243C49.9355 59.9016 51.0739 55.4801 52.2106 51.0573C52.6326 49.4466 53.0139 47.8263 53.5495 46.2491C55.2974 40.9124 58.0948 35.9234 61.721 31.6378C65.7574 26.8597 70.8282 22.9609 76.4816 20.2856C82.0126 17.6556 88.1014 16.211 94.2254 16.0684C105.716 16.0667 117.207 16.0684 128.7 16.0684C135.845 16.0537 143 16.1791 150.135 15.6938C157.347 15.2081 164.567 14.2958 171.552 12.3755C174.623 11.49 177.701 10.4838 180.478 8.87012ZM37.2809 72.4974C47.5299 70.286 58.2256 71.2852 68.2934 73.9286C80.9765 77.2935 92.8677 83.1344 104.018 89.9698C106.987 91.7743 109.865 93.7198 112.791 95.5897C118.471 99.2327 124.233 102.746 130.111 106.063C139.677 111.435 149.541 116.367 159.923 119.966C167.592 122.585 175.628 124.488 183.778 124.342V124.413C181.417 125.698 178.918 126.721 176.358 127.538C168.856 129.905 160.846 130.23 153.063 129.411C151.121 137.132 149.209 144.862 147.222 152.571C144.691 161.549 139.19 169.65 131.789 175.325C126.331 179.535 119.874 182.442 113.099 183.709C109.525 184.409 105.874 184.528 102.243 184.483C87.0133 184.481 71.7841 184.486 56.5549 184.481C50.6805 184.573 44.8026 184.901 38.9718 185.651C33.9177 186.309 28.8838 187.25 24.0169 188.79C21.6734 189.56 19.3278 190.407 17.207 191.688C17.6588 189.547 18.2615 187.441 18.7754 185.314C24.9879 160.568 31.2072 135.825 37.4265 111.082C50.9116 114.959 63.7851 120.744 76.0311 127.553C73.8684 136.135 71.7304 144.721 69.561 153.301C77.7253 153.304 85.8883 153.299 94.051 153.304C96.6843 153.383 99.3231 152.563 101.491 151.074C104.042 149.325 105.934 146.628 106.669 143.618C108.857 134.901 111.058 126.185 113.236 117.467C107.4 114.817 101.675 111.929 96.04 108.876C84.174 102.566 72.1642 96.5004 59.8326 91.1468C52.3663 87.9325 44.7842 84.9393 36.9663 82.6893C31.5906 81.1827 26.0659 79.9386 20.4545 79.9704C25.3965 76.2339 31.2441 73.7981 37.2809 72.4974ZM140.586 186.491C142.441 186.491 144.298 186.49 146.152 186.493C146.152 186.965 146.151 187.439 146.152 187.915C145.524 187.915 144.898 187.915 144.272 187.913C144.266 189.615 144.271 191.318 144.269 193.021H142.469V187.916C141.842 187.913 141.214 187.913 140.586 187.915C140.584 187.439 140.584 186.965 140.586 186.491ZM147.115 186.491C148.086 186.493 149.055 186.485 150.026 186.496C150.446 187.536 150.873 188.572 151.305 189.609C151.754 188.569 152.193 187.528 152.644 186.491C153.577 186.491 154.511 186.49 155.445 186.493C155.443 188.668 155.443 190.844 155.443 193.021H153.644C153.63 191.302 153.671 189.584 153.622 187.866C152.944 189.023 152.495 190.3 151.92 191.51C151.494 191.512 151.071 191.512 150.647 191.516C150.06 190.263 149.561 188.967 148.918 187.744C148.72 189.49 148.884 191.263 148.831 193.021H147.115V186.491Z" fill="#0C5741"/>
<path d="M81.1992 71.3438C88.52 71.6734 95.7082 73.3945 102.671 75.6058C115.92 79.9199 128.419 86.3318 140.075 93.9239C140.814 94.4562 141.665 94.8715 142.334 95.4776C142.402 98.6315 142.551 101.784 142.595 104.938C133.447 100.574 124.635 95.5325 116.059 90.1404C113.631 88.622 111.249 87.0348 108.838 85.4899C100.099 79.9166 90.8803 75.0635 81.1992 71.3438Z" fill="#4C8D40"/>
</svg>
