<svg width="201" height="201" viewBox="0 0 201 201" fill="none" xmlns="http://www.w3.org/2000/svg">
<path d="M193.835 32.7023H141.695H7.64453L8.7507 54.6187C9.38054 67.0692 17.3309 77.9117 29.1899 82.7664C32.7631 89.4729 38.7033 94.7967 45.9348 97.7814C49.4945 104.488 55.4177 109.816 62.6352 112.81C62.6663 112.868 62.701 112.921 62.7309 112.978C62.3252 115.988 57.3663 152.789 57.3663 152.789L60.7214 154.3C74.1794 160.364 87.635 165.809 104.179 165.809C115.004 165.809 128.079 164.653 142.959 156.08C154.224 149.542 163.356 139.522 168.688 127.855C171.816 121.01 173.391 114.104 173.391 107.538C173.391 103.121 172.633 98.8754 171.201 94.8892L193.836 32.7036" fill="white"/>
<path d="M141.693 37.6356H12.832L13.6769 54.3634C14.2513 65.7279 22.0292 75.1687 32.706 78.8302C35.8375 85.8272 41.9288 91.299 49.4734 93.8848C52.6031 100.882 58.6937 106.353 66.2366 108.94C66.708 109.993 67.241 111.01 67.8404 111.99L62.7475 149.8C77.182 156.303 89.2658 160.872 104.177 160.872C114.351 160.872 126.615 159.798 140.495 151.804C161.688 139.502 174.023 113.742 165.948 94.8862C171.709 79.058 177.216 63.931 182.624 49.0701C168.837 42.9039 160.315 37.6393 141.695 37.6393" fill="#231F20"/>
<path d="M106.858 124.3C95.1513 124.3 88.4107 116.79 87.8893 116.181C94.3497 117.764 105.284 116.787 115.175 116.787C117.132 118.062 117.713 118.748 117.881 119.022C117.769 119.72 116.126 124.3 106.858 124.3ZM141.697 46.4839H22.1438C21.6724 65.2694 32.4624 70.3775 39.5923 71.4051C41.134 79.1166 47.9921 85.2542 56.3566 86.459C57.8996 94.1718 64.7583 100.309 73.1228 101.514C73.7216 104.509 75.1183 107.266 77.0992 109.589L72.3998 144.442C85.2304 150.222 92.8396 152.023 104.181 152.023C113.185 152.023 124.011 151.087 136.057 144.149C156.32 132.389 166.478 108.013 154.039 92.0441C146.449 82.3024 135.485 80.2636 132.605 77.4105C135.06 72.5557 147.311 71.561 160.122 85.0355L171.498 53.7819C162.422 49.7226 156.155 46.4839 141.698 46.4839" fill="#B9B8B8"/>
<path d="M25.7472 50.0197C25.7064 65.4739 35.9732 67.3116 42.5664 68.2625C44.077 75.8156 48.0778 81.6955 56.8571 82.9594L59.3301 83.3158C60.7488 90.4012 64.5047 96.7001 73.6245 98.0146L76.0982 98.371C77.8768 107.27 82.2741 111.104 88.7302 112.745C94.3159 114.114 103.905 113.249 115.174 113.249C118.017 113.249 121.371 116.378 121.371 119.581C121.316 119.918 119.894 127.834 106.857 127.834C93.5557 127.834 86.0129 119.43 85.1967 118.471C85.1967 118.471 82.3393 115.116 80.2488 112.663C79.6981 116.756 76.8145 138.143 76.2565 142.28C87.1763 147.005 94.0278 148.487 104.178 148.487C112.715 148.487 122.966 147.608 134.29 141.086C145.235 134.733 153.332 124.124 155.412 113.402C156.391 108.347 156.466 100.915 151.248 94.2167C143.955 84.8575 133.819 83.5936 130.114 79.9217L128.286 78.1114C129.835 75.0487 132.461 71.4719 137.37 70.7507C143.835 69.8005 151.517 72.795 158.624 78.807C160.894 72.5678 165.548 59.7822 167.049 55.6602C159.657 52.3515 153.777 50.0197 141.696 50.0197H25.7484" fill="white"/>
<path d="M140.434 66.8746C147.09 66.8746 152.645 69.5365 156.926 73.1297L162.594 57.5544C156.643 54.8949 149.14 53.5609 141.687 53.5609H29.5039C29.8085 59.6412 35.6518 64.5611 42.552 64.5526H109.763C108.314 65.8196 106.956 67.1852 105.715 68.627H46.2774C46.5844 74.7073 52.4259 79.6248 59.3243 79.6163H99.2007C98.6952 81.0502 98.3132 82.4055 98.0428 83.6907H63.0527C63.3597 89.7704 69.2025 94.6934 76.1027 94.6818H98.7439C99.3743 96.1845 100.223 97.5289 101.233 98.7563H79.8299C80.1345 104.835 85.9784 109.755 92.8774 109.746H117.149C122.569 112.929 126.465 116.225 124.37 121.979C121.656 129.433 112.812 131.428 106.822 131.428C97.2387 131.428 87.8746 127.169 82.6496 121.047L80.0669 140.219C87.1571 143.413 95.3602 145.01 104.144 145.01C113.595 145.01 122.55 143.813 132.485 138.089C141.429 132.898 147.832 125.178 150.983 116.526C154.081 108.009 152.8 102.017 148.447 96.427C144.818 91.7684 139.749 89.2405 134.379 86.444C130.229 84.3139 123.429 81.7848 125.754 75.395C128.032 69.1418 135.244 66.8801 140.433 66.8801" fill="#2F2975"/>
<path d="M32.5542 55.9888C32.8173 56.6271 33.1667 57.2333 33.5819 57.801H142.927C148.707 57.801 154.287 58.628 159.058 60.1547C159.221 59.7069 159.374 59.2888 159.506 58.9204C154.391 57.0228 148.157 55.9888 141.681 55.9888H32.5498H32.5542ZM114.158 63.9328C109.474 67.6533 106.827 71.0556 106.827 71.0556H49.3305C49.5951 71.694 49.944 72.2997 50.3592 72.8669H107.666C111.744 67.9413 117.011 63.9328 117.011 63.9328H114.162H114.158ZM122.312 77.4943C121.843 86.5382 129.831 88.809 132.411 90.208C140.774 94.2887 145.067 97.365 147.785 103.889C148.196 94.4222 133.222 88.522 132.07 87.8617C128.837 86.3783 123.582 82.4512 122.312 77.4943ZM101.991 78.9962C100.583 82.6368 100.012 86.1181 100.012 86.1181H66.1029C66.368 86.757 66.7154 87.3636 67.1311 87.9304H101.491C102.342 82.7445 103.875 78.9962 103.875 78.9962H101.991ZM82.8807 101.185C83.1443 101.823 83.4932 102.429 83.9084 102.996H107.613L106.128 101.185H82.8807ZM126.192 114.541C127.412 116.749 127.866 119.469 126.65 122.808C123.687 130.953 114.464 133.856 106.82 133.856C98.6502 133.856 90.3705 130.871 84.423 126.059C83.7934 130.726 83.0171 136.482 82.7199 138.685C83.1843 138.874 83.9703 139.299 84.4449 139.473C84.808 136.774 85.2894 133.275 85.8211 129.336C92.6949 133.785 99.8967 135.667 108.066 135.667C115.661 135.667 125.435 131.383 127.896 124.619C129.469 120.302 128.252 117.015 126.192 114.541V114.541Z" fill="#8271B2"/>
</svg>
