<svg width="201" height="201" viewBox="0 0 201 201" fill="none" xmlns="http://www.w3.org/2000/svg">
<g clip-path="url(#clip0_15016_302998)">
<path d="M199.13 127.399C197.464 125.717 193.83 123.227 191.851 121.468C189.871 119.709 186.496 115.96 186.431 115.897C186.042 115.474 185.022 113.874 184.298 112.54C184.298 112.54 183.873 111.765 183.764 111.562C183.764 111.545 184.159 108.849 184.159 108.849C184.159 108.849 182.478 106.753 182.466 106.739C182.784 106.589 186.265 104.964 186.265 104.964L185.474 100.657C185.296 99.6951 184.814 97.2243 184.074 94.2344H184.173C183.817 92.9642 183.435 91.6648 183.04 90.3906C182.29 87.8331 181.394 85.2122 180.363 83.0005C180.274 82.8079 180.19 82.6426 180.106 82.4661C180.036 82.327 179.974 82.1869 179.904 82.0559C180.465 78.1698 180.784 74.5669 180.784 71.3693C180.784 58.1737 176.565 50.5195 172.758 45.6011C171.475 43.847 170.142 42.3188 168.838 41.0093L160.238 31.3379L159.104 44.4589C158.609 50.3359 157.141 55.3098 155.777 58.4761C151.843 56.3511 145.416 55.7211 139.715 55.6515C135.643 55.2967 132.096 55.2271 130.145 55.2211C130.145 55.2211 128.838 55.2181 127.522 55.215C121.395 39.0436 103.802 28.7754 103.802 28.7754C103.802 28.7754 106.504 44.1404 100.752 59.7624C74.094 60.9812 61.1171 67.0911 61.1171 67.0911C61.1171 67.0911 67.0919 72.072 69.9629 73.5004C31.7309 80.447 7.80233 108.854 7.80233 108.854L19.9042 108.308C5.39708 120.52 0.816406 133.495 0.816406 133.495C0.816406 133.495 8.85375 128.6 12.0866 127.803C3.07751 139.807 2.54222 151.311 2.54222 151.311C2.54222 151.311 39.362 125.096 78.2936 129.294L72.5315 147.36L87.0689 141.507C85.6414 144.206 75.6293 167.281 75.6293 167.281C98.5084 150.504 129.523 148.163 137.662 156.391L139.695 158.5C145.555 164.644 153.581 173.06 164.312 172.722C174.212 172.415 182.69 163.736 184.56 155.66C186.852 152.889 189.36 149.684 190.94 147.154C198.446 143.831 200.703 135.723 200.774 131.483L200.816 129.091L199.129 127.397" fill="#990000"/>
<path d="M190.097 127.217L188.272 130.368L188.43 125.979C187.14 125.004 184.378 122.158 184.378 122.158L182.678 124.902L182.417 119.895C181.189 118.683 179.321 115.248 179.321 115.248L176.949 118.99L178.196 110.465L173.538 104.645L179.897 101.681C179.897 101.681 177.37 87.9641 174.047 83.207C178.206 58.5608 169.404 50.228 164.75 44.9366C164.171 51.7653 162.255 58.5758 159.985 62.8027C159.949 62.8712 159.912 62.9347 159.876 62.9993C162.038 64.6767 164.887 67.9439 166.599 74.1133C166.599 74.1133 162.921 67.2211 151.89 63.4579C151.845 63.4448 151.799 63.4327 151.754 63.4186C144.607 61.3098 134.142 60.9549 131.033 60.8944C130.816 60.8894 130.293 60.8803 129.721 60.8692C133.774 63.6616 141.196 69.1677 143.464 73.4963C143.464 73.4963 136.674 70.3421 126.996 68.5084C126.358 68.4398 126.003 68.4146 126.003 68.4146C120.228 47.9155 110.288 42.4205 110.288 42.4205C110.288 42.4205 108.707 59.8198 106.489 66.9731C106.489 66.9731 88.152 65.092 74.5632 69.222L87.2477 77.1555C87.2477 77.1555 52.3413 78.9247 25.822 103.309L35.4944 103.94C35.4944 103.94 24.3401 111.37 17.5125 120.18L27.6476 117.682C27.6476 117.682 17.8935 128.501 13.5195 137.521C13.5195 137.521 50.3383 116.167 87.6651 123.999C85.5965 127.546 83.8324 131.628 82.8697 136.162C82.8697 136.162 90.3052 131.899 97.396 128.939C95.5189 133.864 90.5068 147.052 87.5008 155.352C87.8002 155.494 124.373 134.897 141.693 152.402C147.061 157.828 154.773 167.347 164.137 167.054C171.889 166.812 178.827 159.087 179.329 153.079C179.329 153.079 186.08 145.044 186.984 142.597C194.949 140.616 195.109 131.385 195.109 131.385C195.109 131.385 191.66 127.912 190.097 127.215" fill="#002244"/>
<path d="M151.749 100.039C151.112 100.839 150.701 102.207 150.919 103.448C151.185 104.885 152.604 106.282 154.37 106.043C155.314 105.914 155.782 105.743 156.225 105.114L155.274 101.43L151.749 100.039ZM140.443 119.832C134.564 120.808 130.838 124.695 130.838 124.695L139.773 122.533L141.072 127.896L148.87 126.662L149.564 133.646L155.604 132.904L155.08 139.985L160.846 140.453L160.386 145.324C162.83 143.009 163.564 138.106 163.564 138.106L157.056 137.09L157.249 130.146L151.015 131.058L151.032 123.195L142.306 125.421L140.443 119.832Z" fill="#990000"/>
<path d="M152.242 84.6631L155.564 94.7075L134.822 88.1768L142.363 98.0777C143.226 111.001 155.548 108.501 155.548 108.501C145.951 106.924 148.008 99.2156 148.008 99.2156L143.959 94.5672L156.976 99.1583L159.177 104.694L167.46 106.478L161.701 101.091L160.08 94.8002L152.242 84.6631ZM90.9753 89.1647C78.4438 89.3147 63.3622 91.7115 48.0928 99.3551C62.6525 95.6494 79.7333 97.1583 79.7333 97.1583C52.3493 104.329 27.3516 125.509 27.3516 125.509C66.2292 111.888 90.9027 118.219 90.9027 118.219C96.8463 108.848 104.258 106.681 104.258 106.681C104.258 106.681 103.258 106.258 101.5 105.796L94.2253 103.457C94.2253 103.457 105.177 96.1704 122.137 93.5212C122.137 93.5212 109.282 88.9446 90.9753 89.1647ZM137.209 102.87C137.209 102.87 114.064 103.983 101.983 121.05C108.645 118.977 111.048 119.162 111.58 119.267L103.048 130.646L116.201 127.445L96.2979 147.703C96.2979 147.703 118.338 133.848 133.306 140.743C137.363 142.614 143.419 144.905 148.556 153.445C154.032 162.542 167.782 166.292 172.395 157.34C172.395 157.34 164.976 156.542 162.29 154.396C160.524 152.985 152.951 146.171 149.193 141.001C145.427 135.816 138.951 132.025 135.484 130.582C132 129.138 124.548 129.243 124.548 129.243C124.548 129.243 125 117.558 145.314 116.356C149.564 116.106 156.032 118.687 160.734 127.283C165.411 135.872 169.605 139.493 173.419 140.332C176.774 141.066 181.508 141.759 185.145 140.38C185.339 138.913 185.395 136.904 184.468 136.219C184.468 136.219 183.25 135.904 181.274 135.872C181.274 135.872 182.145 137.929 182.637 139.227C182.637 139.227 178.29 138.542 177.347 136.227C176.847 135.001 178.048 131.267 178.048 131.267L184.71 131.211L174.661 128.163C174.661 128.163 173.589 127.05 172.572 125.509L179.355 126.162C179.355 126.162 171.298 123.179 170.411 123.042C170.411 123.042 168.322 120.953 167.419 119.267C167.419 119.267 173.572 120.662 174.782 120.493C174.782 120.493 167.008 117.219 165.572 116.469L162.927 111.904L170.564 113.662C169.234 111.711 165.072 109.711 162.339 110.058C159.597 110.404 156.492 113.235 155.758 116.509C151.371 113.001 144.242 109.082 138.072 110.066C131.975 111.041 122.266 113.445 122.266 113.445C122.266 113.445 126.137 107.33 137.209 102.87Z" fill="#BEBEBE"/>
<path d="M114.121 55.375C114.242 58.6049 111.065 76.0727 105.653 84.4534L110.637 81.5364L113.129 85.1905L117.484 81.3074L121.686 87.0082C121.686 87.0082 122.484 70.2541 114.121 55.375ZM122.137 93.5212C122.137 93.5212 73.0444 96.8696 47.1895 117.09C47.1895 117.09 69.6557 106.612 87.6856 114.299C87.6856 114.299 82.7501 111.049 76.6864 108.155C87.4034 103.1 97.1212 104.629 101.613 105.833L94.226 103.457C94.226 103.457 105.178 96.1704 122.137 93.5212ZM101.613 105.833L104.258 106.683C104.258 106.683 103.282 106.28 101.613 105.833ZM144.186 119.412C143.646 119.42 143.065 119.453 142.452 119.525L143.799 123.396L151.009 121.17C150.097 120.679 147.992 119.364 144.186 119.412ZM152.847 122.203L152.734 128.533L157.88 128.509C157.88 128.509 154.517 123.211 152.871 122.461L152.847 122.203ZM138.041 124.558L130 126.727L131.307 126.703C134.783 126.751 139.533 128.929 139.533 128.929L138.041 124.558ZM147.371 129.154L141.299 129.945C143.839 130.912 147.25 134.662 147.25 134.662L147.371 129.154ZM158.92 130.461L158.525 135.751L162.896 136.421C162.896 136.421 160.404 133.3 158.92 130.461ZM153.194 135.695L148.525 136.082C148.888 136.993 152.638 141.437 152.638 141.437L153.194 135.695ZM166.097 140.042C164.646 145.154 159.799 149.203 159.799 149.203C164.863 149.816 169.92 145.025 171.025 142.816C171.025 142.816 167.775 142.227 166.097 140.042ZM153.549 142.493L153.88 142.816C154.307 143.267 157.549 146.695 158.113 147.259C158.226 146.493 158.742 143.316 158.742 143.316L153.549 142.493ZM184.122 142.848C184.122 142.848 181.549 143.808 179.493 143.284C179.493 143.284 179.993 146.429 178.767 149.171C181.799 147.163 184.122 142.848 184.122 142.848ZM173.847 143.163C173.847 143.163 174.033 146.606 173.259 148.655C176.323 147.316 177.936 143.308 177.936 143.308C177.936 143.308 175.009 143.421 173.847 143.163ZM171.638 148.243C171.638 148.243 167.517 150.937 162.186 151.453C162.186 151.453 164.896 153.848 168.162 153.695C169.847 152.082 171.638 148.243 171.638 148.243ZM177.089 148.284C175.307 151.251 170.097 154.396 170.097 154.396C170.791 154.646 173.96 155.058 173.96 155.058C173.96 155.058 177.202 151.646 177.089 148.284Z" fill="white"/>
</g>
<defs>
<clipPath id="clip0_15016_302998">
<rect width="200" height="200" fill="white" transform="translate(0.816406 0.753906)"/>
</clipPath>
</defs>
</svg>
