<svg width="200" height="201" viewBox="0 0 200 201" fill="none" xmlns="http://www.w3.org/2000/svg">
<path d="M156.71 76.1087V45.0886L133.885 23.1821H133.059H65.4025L43.2861 45.1074V96.5152L64.5643 118.046H114.008V140.226H86.299V124.074L43.2861 124.075V155.077L65.4025 177.005H133.887L156.713 155.095V103.671L135.437 82.1371H86.3024V59.9578H114.011V76.1115L156.714 76.1066L156.71 76.1087Z" fill="#000E54"/>
<path d="M117.093 73.0389C118.981 73.0389 151.751 73.0339 153.64 73.0339V46.3988C153.039 45.8221 133.23 26.8061 132.657 26.2583H66.6789C66.099 26.8254 46.949 45.8096 46.3677 46.3909V95.249C46.9332 95.824 65.2759 114.389 65.8509 114.969H117.087V143.297H83.225V127.149C81.3331 127.149 48.2573 127.149 46.3677 127.151V153.792C46.9474 154.37 66.0982 173.358 66.6715 173.927H132.65C133.22 173.38 153.031 154.363 153.634 153.78V104.935C153.069 104.36 134.724 85.7946 134.149 85.2133H83.2245V56.8848H117.086V73.0362L117.093 73.0389Z" fill="#FF431B"/>
</svg>
