<svg width="201" height="201" viewBox="0 0 201 201" fill="none" xmlns="http://www.w3.org/2000/svg">
<path d="M65.9199 175.833L71.8164 169.937H121.686L127.582 175.833H65.9199Z" fill="#482783"/>
<path d="M121.688 144.28L127.584 138.383V175.832L121.688 169.936V144.28Z" fill="url(#paint0_linear_15016_302644)"/>
<path d="M115.605 56.585L109.709 50.6885V144.28L115.605 138.383V56.585Z" fill="url(#paint1_linear_15016_302644)"/>
<path d="M127.587 138.383H115.605L109.709 144.28H121.69L127.587 138.383Z" fill="url(#paint2_linear_15016_302644)"/>
<path d="M140.819 50.689H109.705L115.602 56.5855H134.922L140.819 50.689Z" fill="#482783"/>
<path d="M134.922 66.2457V56.5855L140.818 50.689V60.3492L134.922 66.2457Z" fill="#482783"/>
<path d="M172.434 66.2461L166.537 60.3496H140.818L134.922 66.2461H172.434Z" fill="#482783"/>
<path d="M166.539 24.9073L172.436 19.0107V66.2456L166.539 60.3491V24.9073Z" fill="url(#paint3_linear_15016_302644)"/>
<path d="M21.0703 19.0107L26.9668 24.9073H166.539L172.435 19.0107H21.0703Z" fill="url(#paint4_linear_15016_302644)"/>
<path d="M71.8164 144.342L65.9199 138.446V175.832L71.8164 169.936V144.342Z" fill="url(#paint5_linear_15016_302644)"/>
<path d="M77.9023 56.585L83.7989 50.6885L83.8616 144.343L77.9651 138.446L77.9023 56.585Z" fill="url(#paint6_linear_15016_302644)"/>
<path d="M65.9199 138.446H77.9639L83.8604 144.342H71.8164L65.9199 138.446Z" fill="url(#paint7_linear_15016_302644)"/>
<path d="M52.8105 50.6885H83.7986L77.9021 56.585H58.7071L52.8105 50.6885Z" fill="#482783"/>
<path d="M21.0703 66.3089L26.9668 60.4123L52.8111 60.3496L58.7076 66.3089H21.0703Z" fill="#482783"/>
<path d="M26.9668 24.9073L21.0703 19.0107V66.3083L26.9668 60.4118V24.9073Z" fill="url(#paint8_linear_15016_302644)"/>
<path d="M58.7071 66.308V56.585L52.8105 50.6885V60.3487L58.7071 66.308Z" fill="url(#paint9_linear_15016_302644)"/>
<path d="M166.54 24.9067V60.3485H140.822V50.6883H109.708V144.28H121.689V169.936H71.8199V144.343H83.8638V50.6883H52.813V60.3485H26.9688V24.9067H166.54Z" fill="url(#paint10_linear_15016_302644)"/>
<defs>
<linearGradient id="paint0_linear_15016_302644" x1="124.633" y1="138.378" x2="124.633" y2="175.833" gradientUnits="userSpaceOnUse">
<stop stop-color="#482783"/>
<stop offset="0.1" stop-color="#53368A"/>
<stop offset="0.28" stop-color="#674F97"/>
<stop offset="0.47" stop-color="#7763A3"/>
<stop offset="0.65" stop-color="#8371AC"/>
<stop offset="0.83" stop-color="#8B7AB1"/>
<stop offset="1" stop-color="#C8C1DC"/>
</linearGradient>
<linearGradient id="paint1_linear_15016_302644" x1="112.64" y1="50.7129" x2="112.64" y2="144.277" gradientUnits="userSpaceOnUse">
<stop stop-color="#482783"/>
<stop offset="0.31" stop-color="#492884"/>
<stop offset="0.48" stop-color="#4D2D86"/>
<stop offset="0.61" stop-color="#54378A"/>
<stop offset="0.73" stop-color="#5E4491"/>
<stop offset="0.83" stop-color="#6C559B"/>
<stop offset="0.93" stop-color="#7D69A7"/>
<stop offset="1" stop-color="#8E7DB3"/>
</linearGradient>
<linearGradient id="paint2_linear_15016_302644" x1="127.585" y1="141.328" x2="109.69" y2="141.328" gradientUnits="userSpaceOnUse">
<stop stop-color="#482783"/>
<stop offset="0.02" stop-color="#4D2D86"/>
<stop offset="0.07" stop-color="#5D4290"/>
<stop offset="0.14" stop-color="#6B549B"/>
<stop offset="0.22" stop-color="#7763A3"/>
<stop offset="0.31" stop-color="#816EAA"/>
<stop offset="0.42" stop-color="#8977B0"/>
<stop offset="0.57" stop-color="#8D7CB3"/>
<stop offset="1" stop-color="#C8C1DC"/>
</linearGradient>
<linearGradient id="paint3_linear_15016_302644" x1="169.505" y1="19.0107" x2="169.505" y2="66.2753" gradientUnits="userSpaceOnUse">
<stop stop-color="#482783"/>
<stop offset="0.29" stop-color="#604693"/>
<stop offset="0.61" stop-color="#7863A4"/>
<stop offset="0.86" stop-color="#8876AF"/>
<stop offset="1" stop-color="#C8C1DC"/>
</linearGradient>
<linearGradient id="paint4_linear_15016_302644" x1="21.0703" y1="21.9604" x2="172.454" y2="21.9604" gradientUnits="userSpaceOnUse">
<stop stop-color="#C8C1DC"/>
<stop offset="0.03" stop-color="#B4A9CF"/>
<stop offset="0.12" stop-color="#8D7CB3"/>
<stop offset="0.21" stop-color="#725DA0"/>
<stop offset="0.29" stop-color="#5F4592"/>
<stop offset="0.37" stop-color="#523589"/>
<stop offset="0.44" stop-color="#4B2A85"/>
<stop offset="0.49" stop-color="#482783"/>
<stop offset="1" stop-color="#C8C1DC"/>
</linearGradient>
<linearGradient id="paint5_linear_15016_302644" x1="71.8391" y1="157.153" x2="65.9397" y2="157.153" gradientUnits="userSpaceOnUse">
<stop stop-color="#482783"/>
<stop offset="0.14" stop-color="#4C2C85"/>
<stop offset="0.36" stop-color="#583C8D"/>
<stop offset="0.64" stop-color="#6B559B"/>
<stop offset="0.96" stop-color="#8977B0"/>
<stop offset="1" stop-color="#C8C1DC"/>
</linearGradient>
<linearGradient id="paint6_linear_15016_302644" x1="80.8789" y1="144.373" x2="80.8789" y2="50.6853" gradientUnits="userSpaceOnUse">
<stop stop-color="#482783"/>
<stop offset="0.23" stop-color="#492884"/>
<stop offset="0.36" stop-color="#4D2D86"/>
<stop offset="0.46" stop-color="#54378A"/>
<stop offset="0.55" stop-color="#5E4491"/>
<stop offset="0.63" stop-color="#6C559B"/>
<stop offset="0.7" stop-color="#7D69A7"/>
<stop offset="0.76" stop-color="#8E7DB3"/>
<stop offset="1" stop-color="#482783"/>
</linearGradient>
<linearGradient id="paint7_linear_15016_302644" x1="83.834" y1="141.423" x2="65.9396" y2="141.423" gradientUnits="userSpaceOnUse">
<stop stop-color="#482783"/>
<stop offset="0.05" stop-color="#4D2D86"/>
<stop offset="0.26" stop-color="#634994"/>
<stop offset="0.46" stop-color="#745FA1"/>
<stop offset="0.66" stop-color="#826FAB"/>
<stop offset="0.84" stop-color="#8B79B1"/>
<stop offset="1" stop-color="#C8C1DC"/>
</linearGradient>
<linearGradient id="paint8_linear_15016_302644" x1="24.0331" y1="19.0146" x2="24.0331" y2="66.28" gradientUnits="userSpaceOnUse">
<stop stop-color="#482783"/>
<stop offset="1" stop-color="#C8C1DC"/>
</linearGradient>
<linearGradient id="paint9_linear_15016_302644" x1="55.7656" y1="50.6972" x2="55.7656" y2="66.277" gradientUnits="userSpaceOnUse">
<stop stop-color="#482783"/>
<stop offset="0.31" stop-color="#492884"/>
<stop offset="0.48" stop-color="#4D2D86"/>
<stop offset="0.61" stop-color="#54378A"/>
<stop offset="0.73" stop-color="#5E4491"/>
<stop offset="0.83" stop-color="#6C559B"/>
<stop offset="0.93" stop-color="#7D69A7"/>
<stop offset="1" stop-color="#C8C1DC"/>
</linearGradient>
<linearGradient id="paint10_linear_15016_302644" x1="36.8294" y1="134.92" x2="156.698" y2="15.0514" gradientUnits="userSpaceOnUse">
<stop stop-color="#492884"/>
<stop offset="0.11" stop-color="#604692"/>
<stop offset="0.21" stop-color="#735DA0"/>
<stop offset="0.3" stop-color="#816EAA"/>
<stop offset="0.38" stop-color="#8B79B1"/>
<stop offset="0.45" stop-color="#8E7DB3"/>
<stop offset="0.53" stop-color="#8A79B1"/>
<stop offset="0.64" stop-color="#816DAA"/>
<stop offset="0.75" stop-color="#715C9F"/>
<stop offset="0.88" stop-color="#5E4391"/>
<stop offset="1" stop-color="#482783"/>
</linearGradient>
</defs>
</svg>
