<svg width="201" height="201" viewBox="0 0 201 201" fill="none" xmlns="http://www.w3.org/2000/svg">
<g clip-path="url(#clip0_15016_302133)">
<path d="M98.4051 51.8602C92.2356 51.8602 87.4614 52.2416 86.4695 52.3279L86.163 52.3469L85.1469 52.4051L84.4372 53.1375L69.8249 68.1813L69.083 68.945V70.0119V111.543V112.591L69.8007 113.351L83.5662 127.937L84.4452 128.861L85.7033 128.753L86.1388 128.715C86.6791 128.671 91.6631 128.269 98.1389 128.269C102.445 128.269 106.381 128.445 109.849 128.798L110.252 128.854L111.558 129.024L112.478 128.084L126.817 113.383L127.559 112.614V111.543V99.7204V97.3703L125.228 97.1066L110.744 95.4735L107.825 95.1413V98.0849V103.949C106.744 105.024 104.857 106.908 103.768 107.994C102.034 107.927 100.244 107.893 98.4131 107.893C95.9938 107.893 93.8486 107.955 92.2356 108.023C91.3163 107.054 89.9614 105.624 89.1066 104.729V77.1693C89.5582 76.7015 90.1711 76.0725 90.8243 75.3967C91.9615 74.2225 93.1953 72.945 93.9695 72.141C95.4938 72.0974 96.9938 72.0749 98.4615 72.0749C99.9051 72.0749 101.341 72.0974 102.728 72.1394C103.994 73.3942 106.534 75.912 107.825 77.1975V82.271V84.6508L110.187 84.8855L124.672 86.3347L127.559 86.6242V83.7186V70.0119V68.9579L126.833 68.1942L112.518 53.2513L111.808 52.5075L110.776 52.4429L110.494 52.4287C106.833 52.0499 102.76 51.8602 98.4051 51.8602ZM65.0506 53.4573L62.078 53.8496L61.0369 53.9866C29.2567 58.2374 3.76522 69.4464 2.69585 69.9215L2.13391 70.1787L0.591797 70.8779L0.591837 72.5715V100.299V104.44L4.34059 102.678L5.64488 102.067C7.26942 101.298 11.7452 99.25 18.3337 96.7226L18.8958 96.5177L20.6338 95.8895V94.0451V84.8128C21.6249 84.4571 22.5814 84.1192 23.5048 83.7974V122.012C21.2677 122.926 19.2152 123.795 17.2692 124.658L16.7257 124.895L15.1627 125.59V127.3V144.243V148.452L18.9467 146.605L20.241 145.968C29.6629 141.452 39.4138 137.549 49.214 134.379L49.8204 134.202L51.7059 133.646V131.678V115.977V112.455L48.3252 113.457L47.1599 113.803C45.8704 114.174 44.555 114.566 43.2332 114.975V77.9062C44.2833 77.6433 45.2768 77.399 46.226 77.1723V84.6603V87.9588L49.439 87.2233L50.5624 86.9676C54.6277 86.0394 58.506 85.2684 62.0923 84.6789L62.8544 84.5482L65.0504 84.1813V81.9555V56.456L65.0506 53.4573ZM131.123 53.7409V56.8029V72.0418V74.337L133.397 74.6507L134.196 74.7588L134.22 74.7636L134.252 74.7652C134.72 74.8201 135.583 74.9418 136.801 75.137V115.079V115.812L137.18 116.438L148.059 134.476L148.607 135.38L149.623 135.654L149.962 135.751C151.712 136.243 161.035 138.976 170.664 143.815L171.212 144.089L172.777 144.88L174.108 143.727L192.487 127.839L193.398 127.051V125.85V92.3437C194.068 92.6783 194.745 93.0187 195.422 93.3663L195.439 93.3743L195.455 93.3816L196.793 94.0542L200.592 95.9542V91.6993V75.162V73.5136L199.108 72.795V72.7966L198.592 72.5458C191.374 68.9514 182.745 65.6329 172.979 62.7014L171.777 62.3522L168.414 61.3772V64.8772V80.6564V82.5516L170.212 83.1516C171.245 83.4919 172.559 83.9258 173.6 84.2726V117.884C172.575 118.775 170.938 120.2 169.809 121.184C167.519 120.325 163.301 118.75 161.486 118.071C160.478 116.397 158.156 112.518 157.261 111.021V79.4371C158.833 79.8346 160.382 80.2266 160.503 80.2564L163.777 81.083V77.7064V62.1772V60.0739L161.72 59.611L161.067 59.465C148.994 56.4723 138.938 54.8985 135.18 54.3598L134.147 54.2038L131.123 53.7409Z" fill="#4D1979"/>
</g>
<defs>
<clipPath id="clip0_15016_302133">
<rect width="200" height="200" fill="white" transform="translate(0.591797 0.15625)"/>
</clipPath>
</defs>
</svg>
