<svg width="200" height="201" viewBox="0 0 200 201" fill="none" xmlns="http://www.w3.org/2000/svg">
<path d="M174.835 68.9244V110.766H153.47V85.2547L153.446 84.9003C151.971 73.8462 142.568 69.8569 137.801 69.2909L77.6629 69.2723L77.4055 69.3236C62.1942 72.3292 58.8254 84.2393 59.1603 90.2517C58.7927 101.648 68.8227 108.042 74.1992 109.834L74.3901 109.897L77.11 110.368H53.714C53.5198 110.24 53.39 110.126 53.3072 110.042V49.8155H27.6962V68.5777H0V91.8003L27.8696 91.8505V115.157L27.9066 115.376C29.9187 127.451 40.0927 132.37 45.19 133.282L45.3983 133.319L45.6099 133.325C49.0725 133.393 69.6952 133.785 85.5379 133.785C94.6049 133.785 102.107 133.656 103.927 133.265C109.225 132.123 114.989 128.179 115.233 128.012L115.353 127.923C122.75 122.188 122.741 113.186 122.72 112.293C122.708 105.836 119.435 101.187 119.083 100.705C115.68 95.9565 109.522 93.4863 109.26 93.3838L109.054 93.3009L105.246 92.4885H128.974V115.158L128.995 115.488C130.768 129.853 146.268 133.485 146.926 133.631L147.215 133.697H181.803L182.064 133.644C196.53 130.735 199.794 117.822 199.926 117.274L200 116.965V68.9244H174.835Z" fill="#171796"/>
<path d="M29.8876 51.8888V70.6499H2.19141V89.7088L30.0599 89.7582V114.924L30.0697 115.022C32.3457 128.68 45.5318 131.194 45.6649 131.218L45.7591 131.229C47.179 131.257 69.5947 131.692 86.1855 131.692C94.8512 131.692 101.929 131.574 103.593 131.215C108.492 130.16 113.925 126.442 114.182 126.264C120.97 121.001 120.752 112.65 120.739 112.319C120.739 106.308 117.627 102.086 117.503 101.921C114.458 97.6564 108.838 95.4038 108.6 95.3101L85.5986 90.3914H130.63C130.753 90.4644 130.985 90.7477 131.164 91.0367V115.148L131.168 115.22C132.764 128.144 147.339 131.554 147.486 131.586L147.551 131.601H181.64L181.758 131.589C194.932 128.939 197.974 116.896 198.003 116.774L198.019 70.9973H177.025V112.691C177.025 112.791 176.901 112.827 176.835 112.838H151.489V85.2421L151.482 85.1637C149.852 72.9352 137.781 71.3637 137.66 71.3484L78.03 71.3451L77.9134 71.3562C60.9441 74.7108 61.3149 89.3627 61.352 90.2068C60.8634 102.994 74.8206 107.798 74.9612 107.845L99.6256 112.126C99.7608 112.16 99.8604 112.193 99.9323 112.222C99.8473 112.294 99.7332 112.374 99.6176 112.442H53.2574C51.7023 111.628 51.3746 110.745 51.3277 110.588V51.8886L29.8876 51.8888ZM31.0777 53.0789H50.1365V110.655L50.1442 110.744C50.1693 110.908 50.4583 112.374 52.8488 113.57L52.975 113.632H99.9121L100.038 113.57C100.429 113.374 101.331 112.834 101.245 112.052C101.159 111.279 100.223 111.046 99.8739 110.961L75.3033 106.701C74.5061 106.418 62.0878 101.811 62.5469 90.2287L62.548 90.1951L62.5469 90.1648C62.5087 89.5792 61.8101 75.7856 78.0919 72.5346H137.553C138.212 72.6273 148.809 74.2905 150.3 85.2812V112.699C150.207 112.928 150.178 113.224 150.324 113.496C150.512 113.85 150.906 114.028 151.492 114.028H176.879L176.938 114.025C177.452 113.974 178.219 113.575 178.219 112.688V72.1875H196.832V116.558C196.583 117.477 193.49 127.981 181.584 130.408H147.689C146.691 130.162 133.822 126.77 132.355 115.108V90.7206L132.282 90.5881C131.996 90.0689 131.408 89.1982 130.681 89.1982H82.9205L82.8071 89.2095C82.2411 89.3185 81.8948 89.6096 81.8566 90.0066C81.7977 90.6184 82.4749 90.8901 82.6985 90.9795L108.208 96.4334C108.73 96.6494 113.831 98.827 116.542 102.622C116.573 102.663 119.552 106.718 119.552 112.338C119.555 112.419 119.765 120.428 113.48 125.302C113.426 125.339 108.013 129.044 103.344 130.048C98.6902 131.051 47.707 130.074 45.8312 130.037C44.8901 129.856 33.3671 127.388 31.2525 114.874V88.5669L3.38181 88.5191V71.8399H31.078L31.0777 53.0789Z" fill="white"/>
</svg>
