<svg width="200" height="201" viewBox="0 0 200 201" fill="none" xmlns="http://www.w3.org/2000/svg">
<path d="M103.428 60.5068C103.158 60.8421 102.98 61.2587 102.94 61.7201C102.832 62.9548 103.746 64.0436 104.981 64.152C106.195 64.2581 107.267 63.3779 107.406 62.1747L106.516 61.8015L105.119 63.0308L104.457 60.9384L103.428 60.5068ZM113.274 60.8114C108.698 62.4523 104.44 66.8677 105.045 70.8318L122.037 71.1057C119.407 68.776 108.99 68.8427 108.99 68.8427L106.88 69.784L108.615 67.2671L117.555 67.802C126.585 68.3394 127.85 73.4351 127.85 73.4351C127.85 73.4351 131.808 68.5319 126.81 64.1008C123.007 60.7298 113.272 60.8142 113.272 60.8142L113.274 60.8114ZM116.704 62.2705C116.91 62.2719 117.125 62.2783 117.348 62.2907L117.033 64.0051L112.475 63.39C112.475 63.39 113.615 62.2491 116.704 62.2705ZM117.42 111.433C102.793 111.49 98.1556 114.108 98.0993 124.975C98.0993 134.285 106.687 134.739 117.778 135.222C122.683 135.436 127.595 135.656 132.512 135.656L134.926 135.632L134.985 128.112C131.856 129.13 129.5 129.496 126.043 129.496C123.523 129.496 117.839 129.462 115.764 128.325C114.165 127.45 114.068 125.96 114.068 124.646C114.068 119.484 116.023 117.495 123.677 117.495C128.927 117.495 131.487 117.56 135.409 120.185L135.472 111.714C129.939 111.57 124.405 111.436 118.867 111.436C118.375 111.432 117.892 111.431 117.42 111.433ZM22.4448 111.991L22.4414 125.898C25.3558 121.924 26.7425 120.012 33.3297 120.012V141.056C38.8933 139.586 46.0606 138.606 51.7749 137.457C50.6452 136.635 48.3695 135.611 48.3695 133.404C48.097 127.844 48.4233 125.576 48.3233 120.012C50.1036 119.907 51.6423 119.974 53.4309 119.974C55.9988 119.974 57.9437 120.748 59.157 121.851V111.992H22.4448V111.991ZM95.9061 111.991C95.9061 111.991 72.4096 112.011 60.6124 112.06C61.1559 112.514 61.8465 113.133 62.1913 113.684C62.3515 113.939 62.6245 115.744 62.6245 115.744C62.6245 115.744 62.6161 134.467 62.6313 136.765C73.5753 135.38 84.8821 134.739 95.9939 134.507V126.56C94.9414 127.028 93.5927 127.784 92.4503 128.141C90.1665 128.856 80.4879 128.887 77.2728 129.062L77.2157 126.071C82.4485 125.837 86.3313 125.612 91.5735 125.531V120.748C86.3065 120.802 82.5493 121.008 77.2866 121.162L77.2728 117.804C80.7882 117.731 84.3605 117.795 87.8779 117.795C91.5197 117.795 92.9506 118.29 95.9939 119.644L95.9069 111.991H95.9061ZM160.821 111.991C162.133 113.303 162.915 114.209 162.915 115.851C162.915 117.862 162.863 119.876 162.848 121.887C160.007 121.649 157.164 121.435 154.317 121.243L154.259 112.096L137.43 112.023C137.924 112.439 138.485 112.859 138.841 113.345C139.175 113.802 139.281 114.286 139.281 114.797C139.281 121.849 139.227 128.902 139.201 135.954C144.332 136.495 149.376 137.17 154.423 138.018L154.362 128.336C157.22 128.664 160.237 129.024 163.075 129.43V139.658C168.159 140.864 172.944 141.788 177.79 143.41L177.809 111.992H160.821L160.821 111.991ZM134.45 112.705L134.407 118.382C131.011 116.521 128.273 116.478 123.679 116.478C115.699 116.478 113.053 118.712 113.053 124.646C113.053 125.45 113.08 126.534 113.588 127.525C111.429 126.344 111.358 124.269 111.358 122.951C111.358 117.017 114.004 114.783 121.984 114.783C126.578 114.783 129.316 114.826 132.712 116.687L132.742 114.235L134.45 112.705ZM58.1396 113.009V119.955C56.858 119.325 55.2675 118.957 53.4307 118.957C51.6209 118.957 50.0647 118.891 48.2631 118.996L47.2885 119.054L47.306 120.03C47.4068 125.6 47.0814 127.874 47.3522 133.43C47.3623 134.961 48.2631 136.036 49.133 136.764C49.2256 136.841 49.319 136.915 49.4133 136.988C44.5701 137.859 38.9555 138.65 34.3459 139.752L36.2646 137.457C40.5122 136.547 41.9178 136.359 46.1814 135.592C46.0874 135.52 45.9418 134.772 45.8422 134.236C45.6634 133.274 45.6679 133.266 45.6575 131.735C45.387 126.179 45.7116 123.905 45.6113 118.335L45.5936 117.359L46.5685 117.301C48.3701 117.195 49.9265 117.262 51.7357 117.262C53.5723 117.262 55.163 117.164 56.445 117.794V114.319L58.1399 113.009H58.1396ZM176.789 113.009L176.772 142.013C172.6 140.717 168.449 139.87 164.09 138.852L165.344 137.796C169.09 138.651 171.449 139.192 175.077 140.319L175.09 114.658L176.789 113.008V113.009ZM94.8972 113.013L94.9549 118.09C92.6874 117.156 91.0631 116.778 87.8737 116.778C84.3492 116.778 80.7697 116.715 77.2478 116.787L76.2479 116.808L76.2625 121.219L74.5746 122.286L74.5521 115.113L75.5528 115.093C79.0744 115.02 82.6543 115.083 86.1787 115.083C89.3682 115.083 90.9924 114.912 93.2594 115.844L93.2169 114.234L94.8972 113.013V113.013ZM153.245 113.108L153.292 121.353L151.607 122.624L151.612 114.403L153.245 113.108ZM30.942 117.288C31.161 117.29 31.3898 117.294 31.6302 117.3H35.8376L34.4813 119.002C27.7857 118.557 25.5098 120.449 23.4551 122.896L24.989 119.15C26.6589 117.796 27.6557 117.267 30.9417 117.288L30.942 117.288ZM90.5508 121.777V124.531C85.7911 124.625 82.0699 124.837 77.1644 125.055L76.1744 125.1L76.1803 129.405L74.5189 131.015L74.4792 123.404L75.4695 123.36C80.3744 123.142 84.0962 122.929 88.8558 122.836C88.8558 122.836 89.9703 121.786 90.551 121.777H90.5508ZM151.638 125.499L152.779 125.63C155.646 125.959 158.672 126.321 161.519 126.729L165.51 127.371L163.985 128.656C161.382 128.296 157.066 127.623 154.473 127.325L153.333 127.194L153.395 136.818C149.024 136.107 144.651 135.523 140.217 135.04L141.695 133.643C145.548 134.086 147.889 134.503 151.699 135.123L151.638 125.499H151.638ZM94.9704 128.174V133.512C84.5311 133.753 73.9342 134.362 63.6402 135.615L65.671 133.643C75.4332 132.525 83.4085 132.044 93.2766 131.817L93.216 130.083C93.6763 129.907 94.9715 128.174 94.9715 128.174H94.9704ZM133.954 129.49L133.914 134.625L132.499 134.64C127.6 134.639 122.705 134.419 117.819 134.207C109.081 133.826 102.854 133.403 100.343 129.686C103.464 131.857 108.947 132.198 116.124 132.511C121.011 132.724 125.906 132.944 130.803 132.944L132.219 132.93L132.242 131.1C132.88 130.506 133.303 130.252 133.955 129.49L133.954 129.49Z" fill="white"/>
<path d="M9.18721 24.1974C-0.362494 32.6901 -0.745901 41.6391 0.526774 55.5895C2.22227 74.1653 8.01813 91.1084 16.6746 105.723H15.65V150.83L28.4457 162.757L29.6063 162.416C41.2079 159.011 55.1718 156.03 73.2407 154.503C84.2652 159.488 90.4537 164.279 93.948 167.737C97.8955 171.643 100.356 176.717 100.356 176.717C100.356 176.717 102.524 171.478 106.348 167.719C109.818 164.306 115.909 159.449 127.009 154.434C144.666 155.852 159.893 158.881 171.386 162.067L184.836 149.578L184.822 105.724L183.419 105.724C192.075 91.1107 197.872 74.1662 199.566 55.5904C200.84 41.6408 199.331 33.0259 194.742 28.2179L190.907 24.1991L190.93 26.9764C190.93 27.0299 190.953 30.5574 190.723 31.8594C190.475 33.2534 189.964 35.2177 188.909 37.4275C186.821 41.7995 182.543 47.2641 173.631 51.1643L147.977 61.7477L150.3 56.2851L132.975 61.6894C130.201 57.8663 123.203 56.0717 122.51 55.8671C123.059 55.051 123.536 49.2895 113.501 46.7734C94.4373 41.9949 79.2491 54.3892 76.0599 59.1055C77.4396 59.7952 78.5698 60.2056 78.5698 60.2056C78.5698 60.2056 76.8861 61.8966 75.1757 64.291L49.794 56.2851L52.117 61.7479L26.5061 51.1792C17.5678 47.2779 7.9759 37.8134 9.18946 24.1971L9.18721 24.1974ZM6.94279 29.7346C6.94279 29.7346 6.73617 44.9518 25.6242 53.1953L56.2424 65.8269L53.6796 59.7988L74.258 66.221C72.9972 68.0539 71.6938 70.0928 70.6781 72.0158L64.1115 70.0514L68.6195 78.0712L23.0456 59.2688C16.8385 56.5593 12.2666 53.1269 8.94287 49.5473C9.00198 51.1536 9.11571 52.8969 9.28799 54.7889C9.44676 56.5258 9.64381 58.2475 9.87858 59.9522L59.3201 79.4176L11.1651 67.423C11.5321 69.1951 11.94 70.9472 12.3871 72.6784L61.5135 86.7449L14.7855 80.6982C15.4464 82.6358 16.1572 84.5438 16.9159 86.4211L41.971 90.182C50.7278 91.2399 62.4157 92.3462 76.0374 92.887C76.6595 88.223 76.597 84.2778 76.597 84.2778L72.6388 86.3043C74.1868 78.4549 77.1195 73.4129 77.1195 73.4129L73.3766 72.5579C76.3808 65.7284 83.1178 58.9712 83.1178 58.9712L80.3582 58.0515C80.3582 58.0515 92.0645 46.8849 107.857 48.9111C123.648 50.9377 119.974 57.3543 119.974 57.3543C124.046 58.7103 135.364 60.658 132.753 71.4981C130.983 78.8518 125.162 81.2536 125.162 81.2536C126.432 75.4988 120.258 74.6073 118.232 75.8771C117.121 76.573 112.761 78.7116 118.137 88.2351C118.895 89.5779 119.601 91.0051 120.256 92.4864L122.56 92.3631C121.788 90.5542 120.943 88.8066 120.02 87.1722C117.449 82.6177 117.519 80.3578 117.818 79.381C117.966 78.8994 118.211 78.5824 118.465 78.3462C118.598 78.2226 118.741 78.1154 118.89 78.0157C119.084 77.8862 119.255 77.788 119.38 77.7097C120.646 76.9162 123.699 77.846 123.049 80.7874L122.157 84.8334L125.987 83.2528C126.201 83.1644 132.839 80.3803 134.857 72.0045C135.685 68.5634 135.302 65.8007 134.209 63.6025L146.414 59.7954L143.85 65.8233L174.468 53.1917C193.356 44.9481 193.149 29.7309 193.149 29.7309C197.006 33.7719 198.645 41.4614 197.375 55.386C195.584 75.0115 189.122 92.7544 179.524 107.795L182.745 107.794V148.703L182.544 148.633L170.804 159.792C159.01 156.523 144.545 153.707 126.401 152.298C102.92 162.89 100.231 172.873 100.231 172.873C100.231 172.873 97.4952 162.963 73.8591 152.363C55.2706 153.881 40.93 156.924 29.0202 160.419L17.817 149.852L17.7246 149.881V149.765V107.795H20.5301C10.9511 92.7516 4.5061 75.0005 2.71687 55.3888C1.44616 41.4651 3.08564 33.7753 6.94194 29.7346H6.94279ZM105.609 52.3235C96.5395 52.1591 89.567 58.3449 89.567 58.3449L92.6331 59.1958C85.0126 64.2896 82.6367 69.6649 82.6367 69.6649L85.6085 69.2866C82.0697 74.7573 81.0293 79.6611 81.0293 79.6611L83.9068 78.4324C83.2436 84.5365 82.5871 89.3231 81.6765 93.0775C87.1283 93.2228 92.8473 93.2712 98.7772 93.1873C102.516 93.135 106.131 93.0488 109.617 92.9357C106.042 87.6397 107.089 82.0364 107.089 82.0364C104.659 82.4477 103.095 88.326 103.095 88.326C101.828 84.1531 102.853 80.254 102.853 80.254C100.37 81.0768 98.6683 84.1528 98.6683 84.1528C97.5746 79.0973 101.637 75.3947 101.637 75.3947C99.9356 75.2573 97.279 75.6691 97.279 75.6691C98.6713 71.5623 102.902 70.8335 102.902 70.8335C102.902 70.8335 102.096 68.5578 103.694 66.3747C103.694 66.3747 100.731 66.1515 100.72 62.7394C100.714 60.5338 101.991 59.4841 101.991 59.4841L98.02 55.2514C98.02 55.2514 105.834 58.1076 109.884 59.1013C112.537 59.7518 112.478 56.5072 112.478 56.5072C114.505 59.5739 116.775 57.3582 116.775 57.3582C116.775 57.3582 116.869 53.0219 106.494 52.3601C106.197 52.3412 105.903 52.3291 105.61 52.3238L105.609 52.3235ZM190.572 59.9525L141.131 79.419L189.286 67.4261C189.794 64.9723 190.225 62.4801 190.572 59.9525ZM188.063 72.6821L138.937 86.7468L185.662 80.7018C186.555 78.081 187.357 75.407 188.061 72.6821H188.063ZM183.534 86.4245L173.242 87.9694L173.288 94.2393L179.939 94.3905C181.233 91.8023 182.434 89.1458 183.534 86.4245ZM29.8498 92.5458L29.836 97.2604C30.4705 96.8759 31.116 96.4829 31.8834 96.4829C32.6398 96.4829 33.3934 96.6022 34.1453 96.6726L34.1227 108.082L40.968 108.317C39.6391 106.835 40.0056 99.5864 39.929 97.2762C42.0119 97.4693 42.5211 97.346 44.3047 98.6065L44.2118 94.4744C39.4068 93.9536 34.6185 93.323 29.8473 92.5433L29.8498 92.5458ZM168.094 92.8616C163.456 93.5037 158.808 94.0563 154.15 94.5329C154.383 94.7592 154.565 95.0281 154.736 95.3025C155.044 95.7991 154.886 106.723 154.887 108.321L168.101 108.322L168.118 103.315C166.653 104.494 165.062 104.762 163.23 104.762C162.404 104.762 161.577 104.741 160.751 104.766L160.754 101.984L167.025 101.631L167.033 98.7875L160.756 99.29L160.758 97.058C162.361 96.9091 163.997 96.5994 165.607 96.5994C166.55 96.5994 167.32 97.0417 168.079 97.554L168.094 92.8613L168.094 92.8616ZM25.0051 94.2888L20.5146 94.3905C21.4247 96.2107 22.3813 97.9965 23.3817 99.7475H25.1473L25.0054 94.2886L25.0051 94.2888ZM152.893 94.6554C148.268 95.0841 143.636 95.4441 139.001 95.7456C139.232 95.9542 139.414 96.2056 139.586 96.4632C139.897 96.9302 139.739 106.829 139.741 108.32L152.959 108.321L152.955 103.895C151.461 104.951 149.76 105.135 147.981 105.135C147.188 105.135 146.395 105.111 145.602 105.125L145.6 102.626L151.857 102.393L151.857 99.8733L145.597 100.204L145.594 98.1992C147.115 98.1069 148.642 97.9008 150.167 97.9008C151.311 97.9008 151.944 98.2175 152.895 98.803L152.893 94.6554H152.893ZM45.3657 94.8946C45.5892 95.1638 45.8113 95.4374 45.9675 95.7518C46.2994 96.421 46.3706 106.638 46.4086 108.318H59.6249L59.5216 104.322C58.4007 105.005 58.0392 105.249 56.6801 105.249C55.1834 105.249 53.6858 105.198 52.189 105.17L52.124 102.708L58.3897 102.896L58.3297 100.592L52.061 100.323L52.0092 98.3464C54.6671 98.5035 56.9827 98.1826 59.3477 99.7176L59.2514 95.9689C54.6167 95.6876 49.9877 95.3366 45.3654 94.8949L45.3657 94.8946ZM137.256 95.8523C134.924 95.986 126.348 95.9308 124.922 97.317C124.221 97.9988 124.172 99.0181 124.172 99.9358C124.172 104.422 127.14 103.615 130.485 103.615C131.199 103.615 131.878 103.702 131.878 104.577C131.878 105.413 131.217 105.546 130.529 105.546L128.383 105.547C126.897 105.547 125.712 105.03 124.421 104.346L124.556 108.32L134.067 108.32C137.259 108.32 138.132 107.348 138.132 104.208C138.132 99.8992 135.136 100.884 132.046 100.884C131.504 100.884 130.218 100.902 130.218 100.114C130.218 98.8717 131.721 98.8058 132.636 98.8058C134.458 98.8058 135.686 98.7369 137.259 99.797L137.256 95.8523ZM60.6845 96.0494C60.9145 96.2768 61.1028 96.5395 61.2816 96.808C61.6073 97.2975 61.6855 106.841 61.7213 108.318H66.2104C65.414 107.506 65.3527 106.211 65.3527 105.142C65.3527 104.433 65.407 103.722 65.3918 103.012C67.0715 104.729 68.7501 106.448 70.4465 108.148L70.6165 108.319L75.3274 108.319L75.1751 96.6169L71.3416 96.5051L71.4219 101.259C71.0064 100.807 66.9516 96.3613 66.9139 96.3441C66.866 96.3224 61.2712 96.0786 60.6842 96.0497L60.6845 96.0494ZM121.859 96.5397C119.583 96.6076 110.923 96.368 109.524 97.6635C108.823 98.3115 108.767 99.2934 108.767 100.187C108.767 104.535 111.775 103.812 115.018 103.812C115.71 103.812 116.463 103.866 116.463 104.744C116.463 105.548 115.797 105.662 115.14 105.662L113.451 105.662C111.661 105.662 110.583 105.288 109.003 104.467L109.131 108.32L118.448 108.321C121.547 108.321 122.718 107.707 122.718 104.441C122.718 100.405 119.675 101.22 116.773 101.22C116.239 101.22 114.81 101.249 114.81 100.455C114.81 99.3415 116.074 99.2515 116.911 99.2515C118.77 99.2515 120.245 99.2118 121.853 100.268L121.859 96.54L121.859 96.5397ZM76.8957 96.6585C77.1237 96.8669 77.3101 97.1123 77.4869 97.3643C77.8168 97.8349 77.741 106.907 77.7593 108.319H82.2473C81.7209 107.797 81.4864 107.114 81.4864 106.381L81.5126 103.222L86.4291 108.098L86.6529 108.319H91.3672L91.3832 96.8567L87.5658 96.8274L87.5714 101.452C87.1551 101.012 83.2019 96.799 83.1448 96.7748C83.0854 96.7495 77.4899 96.6695 76.8954 96.6583L76.8957 96.6585ZM106.939 96.8393C102.306 96.8773 97.6712 96.8809 93.0368 96.8646C93.2665 97.0642 93.4506 97.3054 93.6251 97.5523C93.9266 97.9791 93.7422 107.011 93.74 108.319L106.954 108.32L106.968 104.603C105.867 105.235 105.418 105.511 104.103 105.511L99.615 105.515L99.6231 103.32L105.879 103.308L105.881 103.13L105.887 101.177L99.631 101.195L99.6386 99.4344L103.541 99.4091C105.031 99.4091 105.64 99.5898 106.928 100.324L106.939 96.8393ZM173.321 99.7483L173.365 105.769C174.657 103.812 175.892 101.804 177.066 99.7483H173.321H173.321ZM134.441 112.706L132.734 114.235L132.704 116.687C129.307 114.827 126.569 114.783 121.976 114.783C113.996 114.783 111.35 117.018 111.35 122.951C111.35 124.269 111.421 126.344 113.58 127.526C113.072 126.534 113.045 125.45 113.045 124.647C113.045 118.713 115.69 116.479 123.671 116.479C128.265 116.479 131.003 116.522 134.399 118.383L134.441 112.706ZM58.1313 113.009L56.4363 114.319V117.795C55.1544 117.164 53.5636 117.263 51.7274 117.263C49.9176 117.263 48.3614 117.196 46.5598 117.302L45.585 117.359L45.6027 118.336C45.7029 123.905 45.3784 126.179 45.6489 131.736C45.6593 133.267 45.6548 133.275 45.8335 134.237C45.9332 134.772 46.0787 135.521 46.1728 135.593C41.9094 136.359 40.5036 136.548 36.256 137.458L34.3372 139.752C38.9469 138.65 44.5614 137.86 49.4047 136.989C49.3104 136.916 49.2169 136.842 49.1243 136.764C48.2545 136.037 47.3539 134.962 47.3435 133.431C47.0727 127.874 47.3981 125.601 47.2974 120.031L47.2799 119.054L48.2547 118.997C50.0561 118.891 51.6125 118.958 53.422 118.958C55.2588 118.958 56.8493 119.326 58.131 119.956V113.009H58.1313ZM176.781 113.009L175.082 114.659L175.069 140.32C171.441 139.193 169.082 138.652 165.335 137.797L164.082 138.853C168.44 139.871 172.592 140.718 176.763 142.014L176.781 113.009L176.781 113.009ZM94.8888 113.014L93.2085 114.235L93.251 115.845C90.9838 114.912 89.3598 115.083 86.1704 115.083C82.646 115.083 79.0661 115.021 75.5445 115.093L74.5437 115.114L74.5663 122.286L76.2542 121.22L76.2395 116.809L77.2394 116.788C80.7613 116.715 84.3409 116.778 87.8653 116.778C91.0547 116.778 92.679 117.157 94.9465 118.09L94.8888 113.014ZM153.237 113.109L151.603 114.404L151.598 122.625L153.284 121.354L153.237 113.109ZM30.9336 117.289C27.6476 117.268 26.6508 117.797 24.9809 119.15L23.447 122.897C25.5017 120.45 27.7777 118.557 34.4732 119.003L35.8295 117.301H31.6221C31.3817 117.294 31.1529 117.29 30.9336 117.289V117.289ZM90.5424 121.778C89.9619 121.787 88.8475 122.836 88.8475 122.836C84.0878 122.93 80.3661 123.142 75.4612 123.361L74.4708 123.405L74.5105 131.016L76.1719 129.405L76.1658 125.1L77.1561 125.056C82.0613 124.837 85.7827 124.625 90.5424 124.532V121.778ZM151.629 125.499L151.69 135.124C147.88 134.504 145.539 134.087 141.686 133.644L140.208 135.041C144.643 135.523 149.016 136.108 153.386 136.818L153.324 127.195L154.465 127.326C157.058 127.624 161.373 128.296 163.976 128.657L165.502 127.371L161.511 126.729C158.664 126.322 155.637 125.96 152.77 125.631L151.629 125.499H151.629ZM94.962 128.175C94.962 128.175 93.6668 129.908 93.2065 130.084L93.2671 131.818C83.399 132.045 75.4237 132.525 65.6615 133.644L63.6304 135.616C73.9261 134.363 84.523 133.753 94.9609 133.513V128.175H94.962ZM133.946 129.491C133.295 130.253 132.871 130.508 132.234 131.101L132.21 132.931L130.794 132.945C125.897 132.945 121.002 132.725 116.115 132.512C108.939 132.199 103.456 131.858 100.334 129.687C102.846 133.403 109.072 133.827 117.81 134.208C122.697 134.42 127.592 134.64 132.49 134.641L133.905 134.626L133.946 129.491ZM101.028 138.814C69.7683 138.814 42.7224 142.59 22.2129 148.694L30.2107 156.04C47.379 151.173 69.3663 147.891 101.029 147.891C131.334 147.891 152.711 151.32 169.688 155.884L177.552 148.031C157.288 142.316 130.49 138.814 101.028 138.814L101.028 138.814ZM97.0845 141.001L97.1988 146.494L96.1615 146.509L91.2968 143.183C91.1043 143.048 90.9247 142.912 90.7437 142.744C90.8033 143.169 90.8214 143.457 90.8245 143.617L90.8867 146.587L89.5205 146.607L89.4068 141.114L90.4436 141.099L95.1025 144.267C95.3721 144.444 95.6291 144.632 95.8614 144.853C95.8138 144.395 95.7817 144.076 95.7784 143.905L95.7184 141.021L97.0845 141.001V141.001ZM107.558 141.147L114.234 141.348L114.193 142.284L109.035 142.129L108.983 143.353L111.992 143.443L111.952 144.379L108.943 144.289L108.885 145.651L114.107 145.808L114.063 146.84L107.324 146.638L107.558 141.147ZM85.3402 141.258L85.4112 142.193L80.2597 142.468L80.352 143.691L83.357 143.53L83.4274 144.465L80.4224 144.626L80.5251 145.986L85.7397 145.707L85.8174 146.738L79.0878 147.097L78.6739 141.614L85.3402 141.258V141.258ZM120.679 141.654L122.143 141.734L125.454 147.422L123.75 147.328L123.061 146.085L118.933 145.858L118.082 147.017L116.566 146.933L120.679 141.654ZM71.8512 142.188C73.7507 142.233 74.8556 143.098 75.0471 144.58C75.1794 145.607 74.7602 146.502 73.9146 147.05C73.3279 147.436 72.4601 147.612 71.3031 147.717L67.5166 148.063L66.8131 142.601L70.9886 142.22C71.2921 142.192 71.5798 142.182 71.8512 142.188ZM129.96 142.261C130.088 142.263 130.228 142.271 130.381 142.284L134.862 142.667C136.045 142.768 136.442 143.059 136.323 144.044C136.318 144.086 136.313 144.129 136.308 144.171L134.808 144.268L134.882 143.653L130.163 143.249L129.744 146.713L134.464 147.117L134.612 145.899L132.145 145.688L132.257 144.756L136.197 145.093L135.969 146.979C135.845 148.006 135.423 148.237 134.202 148.132L129.721 147.749C128.5 147.645 128.142 147.347 128.266 146.319L128.614 143.438C128.722 142.539 129.059 142.25 129.96 142.261V142.261ZM121.279 142.754L119.654 144.905L122.507 145.061L121.279 142.754ZM71.6316 143.175C71.4734 143.171 71.3056 143.176 71.128 143.193L68.4492 143.437L68.8951 146.899L70.8448 146.721C72.7565 146.546 73.6607 146.056 73.4858 144.702C73.3603 143.729 72.7376 143.204 71.6316 143.175ZM140.853 143.274L142.356 143.458L141.594 147.873L146.44 148.465L146.263 149.487L139.916 148.712L140.853 143.274ZM58.5786 143.591L59.3747 148.001L64.2157 147.382L64.4003 148.403L58.0587 149.214L57.0776 143.782L58.5786 143.591ZM150.618 144.548L157.17 145.645L156.953 146.564L151.89 145.717L151.607 146.918L154.56 147.412L154.342 148.331L151.389 147.836L151.073 149.173L156.198 150.031L155.959 151.044L149.345 149.937L150.618 144.548ZM51.9157 144.589C52.5603 144.607 52.8556 144.908 53.0344 145.668L53.7024 148.509C53.9411 149.523 53.6179 149.848 52.4137 150.049L47.6977 150.834C46.4937 151.035 46.0475 150.837 45.8091 149.824L45.141 146.983C44.9029 145.969 45.2261 145.645 46.4298 145.444L51.1461 144.659C51.447 144.609 51.7009 144.583 51.9157 144.589ZM51.4715 145.603L46.557 146.422L47.3601 149.838L52.2746 149.018L51.4715 145.603ZM162.115 146.716C162.33 146.725 162.58 146.768 162.875 146.839L166.439 147.699C167.558 147.969 167.912 148.32 167.602 149.231L167.563 149.343L166.187 149.288L166.393 148.685L162.282 147.693L161.895 148.829L165.811 149.774C166.991 150.058 167.293 150.408 166.955 151.401L166.708 152.127C166.37 153.12 165.893 153.283 164.713 152.998L160.834 152.063C159.654 151.778 159.352 151.429 159.69 150.435L159.739 150.292L161.105 150.378L160.892 151.002L165.331 152.072L165.742 150.865L161.827 149.92C160.647 149.636 160.357 149.289 160.695 148.296L160.893 147.712C161.147 146.968 161.471 146.689 162.115 146.716H162.115ZM39.7725 146.746C40.4107 146.732 40.742 147.001 40.9596 147.721C40.972 147.762 40.9844 147.803 40.997 147.844L39.6281 148.369L39.4465 147.77L34.8493 148.755L35.8692 152.129L40.467 151.144L40.1081 149.957L37.7054 150.472L37.4304 149.564L41.2687 148.742L41.8232 150.579C42.1259 151.58 41.8244 151.919 40.6353 152.174L36.2698 153.109C35.0807 153.363 34.6224 153.187 34.3198 152.186L33.4713 149.38C33.1687 148.379 33.4708 148.039 34.6601 147.784L39.0254 146.849C39.3137 146.787 39.5597 146.751 39.7725 146.746ZM100.471 151.342C95.7226 151.342 91.1966 151.429 86.8758 151.596C92.9509 155.123 97.1873 158.514 100.138 161.485C100.138 161.485 100.34 161.74 100.657 162.041C102.553 158.426 104.116 154.856 105.398 151.375C103.78 151.353 102.138 151.342 100.471 151.342Z" fill="#FFDD00"/>
<path d="M6.94252 29.7346C3.08649 33.7755 1.44702 41.4653 2.71744 55.389C4.50696 75.0008 10.9517 92.7518 20.5315 107.798H17.7258V149.884L17.8181 149.855L29.0214 160.421C40.9298 156.927 55.2704 153.884 73.8605 152.366C97.4964 162.967 100.233 172.876 100.233 172.876C100.233 172.876 102.921 162.893 126.402 152.3C144.547 153.71 159.013 156.526 170.805 159.795L182.546 148.636L182.746 148.706V107.797L179.525 107.798C189.123 92.7586 195.586 75.0149 197.376 55.389C198.647 41.4648 197.007 33.7747 193.151 29.734C193.151 29.734 193.357 44.9512 174.469 53.1947L143.851 65.8263L146.415 59.7982L134.21 63.6055C135.303 65.8035 135.686 68.5665 134.858 72.0076C132.841 80.3834 126.203 83.1675 125.988 83.2559L122.159 84.8365L123.051 80.7905C123.7 77.849 120.647 76.9195 119.382 77.7125C119.256 77.791 119.085 77.8893 118.891 78.0188C118.742 78.1184 118.599 78.2257 118.466 78.3493C118.212 78.5854 117.968 78.9021 117.82 79.3841C117.52 80.3609 117.45 82.6205 120.022 87.1752C120.944 88.8096 121.789 90.5572 122.561 92.3661L120.257 92.4894C119.602 91.0085 118.897 89.581 118.138 88.2382C112.762 78.7144 117.122 76.5761 118.233 75.8802C120.259 74.6103 126.433 75.5019 125.163 81.2566C125.163 81.2566 130.984 78.8548 132.755 71.5011C135.365 60.6607 124.048 58.7133 119.976 57.3573C119.976 57.3573 123.65 50.9407 107.858 48.9142C92.0659 46.8877 80.3596 58.0546 80.3596 58.0546L83.1189 58.9743C83.1189 58.9743 76.382 65.7309 73.3778 72.561L77.1209 73.4159C77.1209 73.4159 74.1879 78.4579 72.64 86.3074L76.5984 84.2808C76.5984 84.2808 76.6609 88.2261 76.0388 92.89C62.4175 92.3493 50.7297 91.2427 41.9725 90.1851L16.9173 86.4188C16.1586 84.5415 15.4476 82.6332 14.7869 80.6959L61.5147 86.7423L12.3885 72.6761C11.9406 70.9449 11.5327 69.1942 11.1656 67.4208L59.3206 79.4133L9.87916 59.9471C9.64438 58.2424 9.44733 56.5207 9.28885 54.7838C9.11629 52.8915 9.00256 51.1485 8.94344 49.5422C12.2674 53.1215 16.8388 56.5542 23.0462 59.2636L68.6201 78.0658L64.1121 70.0461L70.679 72.0107C71.6944 70.0877 72.9977 68.0485 74.2586 66.2156L53.6805 59.7937L56.243 65.8215L25.6219 53.1939C6.73477 44.9495 6.94168 29.7323 6.94168 29.7323L6.94252 29.7346ZM105.609 52.3238C105.901 52.3288 106.196 52.3409 106.492 52.3601C116.867 53.0219 116.773 57.3582 116.773 57.3582C116.773 57.3582 114.503 59.5736 112.477 56.5072C112.477 56.5072 112.535 59.7515 109.883 59.1009C105.833 58.1072 98.0186 55.2514 98.0186 55.2514L101.989 59.4841C101.989 59.4841 100.713 60.5338 100.719 62.7394C100.729 66.1512 103.693 66.3744 103.693 66.3744C102.095 68.5575 102.9 70.8334 102.9 70.8334C102.9 70.8334 98.67 71.5622 97.2777 75.6688C97.2777 75.6688 99.9342 75.2572 101.636 75.3946C101.636 75.3946 97.5732 79.0969 98.6666 84.1527C98.6666 84.1527 100.368 81.0768 102.851 80.2539C102.851 80.2539 101.826 84.153 103.094 88.326C103.094 88.326 104.657 82.448 107.087 82.0364C107.087 82.0364 106.04 87.6394 109.616 92.9356C106.129 93.0488 102.515 93.1349 98.7755 93.1873C92.8459 93.2712 87.1267 93.2228 81.6748 93.0772C82.5855 89.3228 83.2422 84.5361 83.9054 78.432L81.0276 79.6608C81.0276 79.6608 82.0678 74.7573 85.6068 69.2863L82.6353 69.6646C82.6353 69.6646 85.0109 64.2896 92.6317 59.1955L89.5653 58.3445C89.5653 58.3445 96.5404 52.1596 105.608 52.3238H105.609ZM190.572 59.9528C190.225 62.4801 189.794 64.9725 189.286 67.4267L141.13 79.4193L190.572 59.9531L190.572 59.9528ZM103.427 60.5079L104.456 60.9397L105.119 63.0321L106.515 61.8028L107.405 62.1761C107.267 63.3792 106.194 64.2595 104.98 64.1531C103.745 64.0447 102.831 62.9561 102.939 61.7215C102.979 61.2601 103.157 60.8434 103.427 60.5079ZM113.273 60.8125C113.273 60.8125 123.008 60.728 126.811 64.0993C131.809 68.5302 127.851 73.4337 127.851 73.4337C127.851 73.4337 126.586 68.3376 117.556 67.8005L108.614 67.2682L106.88 69.7851L108.99 68.8438C108.99 68.8438 119.406 68.777 122.036 71.1068L105.045 70.8331C104.439 66.869 108.697 62.4536 113.273 60.8125ZM116.703 62.2718C113.615 62.2501 112.475 63.391 112.475 63.391L117.032 64.0064L117.348 62.2921C117.124 62.2797 116.909 62.2732 116.703 62.2718ZM188.062 72.682C187.358 75.407 186.557 78.081 185.663 80.7018L138.935 86.751L188.059 72.6849L188.062 72.682ZM183.533 86.4245C182.433 89.1457 181.232 91.8023 179.938 94.3904L173.287 94.2393L173.242 87.9696L183.533 86.4247V86.4245ZM29.8459 92.5497C34.6168 93.3289 39.4043 93.9609 44.2096 94.4805L44.3008 98.6107C42.5172 97.3499 42.0082 97.4734 39.9251 97.2801C40.0017 99.5901 39.6351 106.839 40.9641 108.321L34.1188 108.086L34.1413 96.6765C33.3894 96.6061 32.6359 96.4871 31.8795 96.4871C31.1121 96.4871 30.4663 96.8798 29.8321 97.2643L29.8459 92.55V92.5497ZM168.09 92.8652L168.075 97.5579C167.316 97.0456 166.546 96.6033 165.603 96.6033C163.993 96.6033 162.358 96.913 160.754 97.0619L160.752 99.2939L167.029 98.7915L167.021 101.635L160.75 101.988L160.748 104.769C161.573 104.745 162.4 104.766 163.225 104.766C165.058 104.766 166.649 104.498 168.114 103.319L168.097 108.326L154.883 108.325C154.882 106.726 155.04 95.803 154.732 95.3064C154.562 95.032 154.379 94.7631 154.146 94.5368C158.804 94.0605 163.452 93.5076 168.09 92.8655V92.8652ZM25.0012 94.2925L25.1431 99.7516H23.3778C22.3773 98.0004 21.4208 96.2146 20.5104 94.3944L25.0012 94.2928V94.2925ZM152.889 94.6593L152.891 98.8069C151.941 98.2214 151.307 97.9047 150.164 97.9047C148.638 97.9047 147.112 98.1105 145.591 98.2031L145.593 100.208L151.853 99.8772L151.854 102.397L145.597 102.629L145.6 105.129C146.392 105.114 147.185 105.139 147.978 105.139C149.757 105.139 151.458 104.955 152.952 103.899L152.956 108.325L139.738 108.324C139.736 106.833 139.894 96.9341 139.583 96.4671C139.411 96.2095 139.229 95.9581 138.998 95.7495C143.633 95.448 148.264 95.0877 152.89 94.6593H152.889ZM45.3646 94.8985C49.9869 95.3402 54.6159 95.6913 59.2505 95.9722L59.3468 99.7213C56.9819 98.1859 54.6663 98.5069 52.0083 98.3501L52.0601 100.326L58.3289 100.595L58.3889 102.899L52.1232 102.712L52.1882 105.173C53.685 105.202 55.1826 105.253 56.6793 105.253C58.0384 105.253 58.3996 105.009 59.5208 104.326L59.6241 108.321H46.4078C46.3698 106.641 46.2986 96.4249 45.9667 95.7554C45.8105 95.4407 45.5884 95.1674 45.3649 94.8983L45.3646 94.8985ZM137.255 95.8562L137.258 99.8012C135.685 98.7411 134.457 98.8097 132.635 98.8097C131.72 98.8097 130.217 98.8756 130.217 100.118C130.217 100.906 131.502 100.889 132.045 100.889C135.135 100.889 138.131 99.9034 138.131 104.212C138.131 107.352 137.257 108.324 134.066 108.324L124.555 108.325L124.42 104.349C125.711 105.034 126.896 105.551 128.382 105.551L130.528 105.55C131.216 105.55 131.877 105.417 131.877 104.582C131.877 103.706 131.198 103.619 130.484 103.619C127.139 103.619 124.171 104.426 124.171 99.9397C124.171 99.022 124.22 98.0027 124.921 97.3212C126.347 95.9348 134.922 95.9902 137.255 95.8565V95.8562ZM60.6834 96.053C61.2703 96.0823 66.8652 96.326 66.9131 96.3477C66.9508 96.3652 71.0053 100.81 71.421 101.263L71.3408 96.5087L75.1743 96.6205L75.3266 108.323L70.6157 108.322L70.4456 108.152C68.7493 106.451 67.0707 104.733 65.391 103.015C65.4062 103.726 65.3518 104.436 65.3518 105.146C65.3518 106.215 65.4132 107.51 66.2096 108.321H61.7207C61.6847 106.845 61.6067 97.3012 61.2807 96.8116C61.102 96.5431 60.9139 96.2804 60.6837 96.0527L60.6834 96.053ZM121.858 96.5436L121.852 100.271C120.244 99.2151 118.768 99.2551 116.909 99.2551C116.072 99.2551 114.809 99.3449 114.809 100.458C114.809 101.252 116.237 101.223 116.772 101.223C119.674 101.223 122.716 100.409 122.716 104.444C122.716 107.71 121.545 108.324 118.447 108.324L109.13 108.324L109.002 104.47C110.582 105.291 111.66 105.665 113.449 105.665L115.138 105.666C115.796 105.666 116.462 105.552 116.462 104.748C116.462 103.869 115.709 103.815 115.017 103.815C111.774 103.815 108.766 104.538 108.766 100.191C108.766 99.297 108.822 98.3151 109.522 97.6668C110.922 96.3714 119.581 96.6112 121.857 96.5431L121.858 96.5436ZM76.8946 96.6622C77.4894 96.6734 83.0846 96.7534 83.144 96.7787C83.2011 96.8032 87.1542 101.016 87.5706 101.456L87.565 96.8313L91.3824 96.8606L91.3664 108.323H86.652L86.4282 108.102L81.5121 103.226L81.4856 106.385C81.4856 107.117 81.7201 107.801 82.2465 108.323H77.7585C77.7402 106.911 77.8159 97.8386 77.486 97.3682C77.3092 97.1165 77.1229 96.8708 76.8949 96.6624L76.8946 96.6622ZM106.939 96.8432L106.927 100.328C105.639 99.5937 105.03 99.413 103.54 99.413L99.6378 99.4381L99.6302 101.199L105.886 101.181L105.88 103.134L105.878 103.312L99.6226 103.324L99.6141 105.518L104.102 105.515C105.418 105.515 105.866 105.239 106.967 104.607L106.953 108.324L93.7392 108.323C93.7414 107.014 93.9258 97.983 93.6243 97.5562C93.4498 97.3093 93.266 97.0678 93.036 96.8685C97.6701 96.8846 102.305 96.8812 106.939 96.8432H106.939ZM173.32 99.7522H177.065C175.89 101.808 174.656 103.815 173.365 105.772L173.32 99.7522ZM117.413 111.438C117.885 111.436 118.367 111.437 118.86 111.44C124.397 111.44 129.932 111.575 135.465 111.718L135.401 120.19C131.479 117.565 128.919 117.5 123.67 117.5C116.015 117.5 114.061 119.489 114.061 124.651C114.061 125.965 114.157 127.455 115.756 128.33C117.832 129.467 123.515 129.501 126.036 129.501C129.492 129.501 131.848 129.135 134.978 128.117L134.918 135.637L132.504 135.661C127.588 135.661 122.675 135.441 117.77 135.228C106.68 134.744 98.0915 134.289 98.0915 124.98C98.1478 114.113 102.785 111.495 117.413 111.438L117.413 111.438ZM22.437 111.996H59.1492V121.855C57.9356 120.752 55.9913 119.978 53.4232 119.978C51.6345 119.978 50.0958 119.911 48.3156 120.016C48.4155 125.58 48.0892 127.848 48.3617 133.408C48.3617 135.616 50.6371 136.64 51.7671 137.461C46.0528 138.61 38.8855 139.59 33.3216 141.06V120.016C26.7347 120.016 25.348 121.929 22.4336 125.902L22.4367 111.996L22.437 111.996ZM95.8983 111.996L95.985 119.649C92.9419 118.295 91.5108 117.8 87.869 117.8C84.3519 117.8 80.7793 117.736 77.2642 117.809L77.2777 121.166C82.5407 121.012 86.2976 120.806 91.5648 120.753V125.535C86.3227 125.617 82.4399 125.842 77.2071 126.076L77.2642 129.067C80.479 128.892 90.1576 128.86 92.4417 128.146C93.5838 127.789 94.9327 127.033 95.985 126.565V134.512C84.8744 134.743 73.5672 135.384 62.6224 136.77C62.6075 134.472 62.6159 115.749 62.6159 115.749C62.6159 115.749 62.3429 113.944 62.1827 113.688C61.8378 113.138 61.1473 112.519 60.6037 112.064C72.401 112.016 95.8974 111.996 95.8974 111.996L95.8983 111.996ZM160.813 111.996H177.801L177.782 143.414C172.936 141.792 168.151 140.868 163.068 139.661V129.434C160.229 129.028 157.212 128.668 154.354 128.339L154.416 138.022C149.368 137.174 144.325 136.498 139.193 135.958C139.22 128.906 139.274 121.853 139.274 114.801C139.274 114.289 139.167 113.806 138.833 113.349C138.477 112.863 137.917 112.443 137.423 112.027L154.251 112.1L154.309 121.246C157.156 121.439 160 121.653 162.84 121.891C162.856 119.879 162.908 117.866 162.908 115.855C162.908 114.213 162.125 113.307 160.814 111.995L160.813 111.996ZM101.024 138.817C130.485 138.817 157.284 142.32 177.548 148.033L169.684 155.886C152.708 151.323 131.33 147.894 101.024 147.894C69.3621 147.894 47.3748 151.176 30.2065 156.043L22.2115 148.701C42.7215 142.596 69.7669 138.821 101.027 138.821L101.024 138.817ZM97.0806 141.004L95.7142 141.023L95.7741 143.908C95.7778 144.079 95.8096 144.398 95.8572 144.855C95.625 144.635 95.3679 144.446 95.0985 144.27L90.4397 141.101L89.4026 141.117L89.5163 146.61L90.8828 146.59L90.8205 143.619C90.8174 143.46 90.7991 143.172 90.7397 142.747C90.9205 142.915 91.1003 143.051 91.2929 143.186L96.1573 146.512L97.1946 146.496L97.0803 141.003L97.0806 141.004ZM107.554 141.15L107.32 146.641L114.059 146.843L114.103 145.811L108.881 145.654L108.939 144.292L111.948 144.383L111.988 143.446L108.979 143.356L109.031 142.132L114.189 142.287L114.229 141.351L107.554 141.15ZM85.3363 141.262L78.67 141.617L79.0841 147.1L85.8134 146.741L85.7357 145.71L80.5212 145.989L80.4184 144.629L83.4235 144.468L83.3531 143.533L80.3481 143.694L80.2557 142.472L85.4072 142.196L85.3363 141.262ZM120.675 141.657L116.563 146.936L118.078 147.02L118.929 145.861L123.057 146.088L123.746 147.331L125.451 147.425L122.139 141.737L120.675 141.657ZM71.8472 142.191C71.5759 142.185 71.2879 142.195 70.9844 142.223L66.8089 142.604L67.5127 148.066L71.2989 147.72C72.4558 147.615 73.324 147.439 73.9104 147.053C74.756 146.505 75.1754 145.61 75.0431 144.583C74.8517 143.101 73.7468 142.236 71.847 142.191H71.8472ZM129.956 142.264C129.056 142.252 128.718 142.542 128.61 143.441L128.262 146.322C128.138 147.349 128.496 147.648 129.717 147.752L134.198 148.135C135.419 148.24 135.841 148.009 135.965 146.981L136.193 145.096L132.253 144.759L132.141 145.691L134.608 145.902L134.461 147.12L129.74 146.716L130.159 143.252L134.878 143.656L134.804 144.271L136.304 144.174C136.309 144.131 136.314 144.089 136.319 144.047C136.438 143.062 136.041 142.771 134.858 142.67L130.377 142.286C130.224 142.274 130.085 142.266 129.956 142.264V142.264ZM121.275 142.757L122.503 145.064L119.65 144.908L121.275 142.757ZM71.6277 143.178C72.7337 143.207 73.3564 143.733 73.4819 144.705C73.6565 146.059 72.7526 146.549 70.8409 146.724L68.8912 146.902L68.4453 143.44L71.1241 143.195C71.3017 143.179 71.4695 143.174 71.6277 143.178ZM140.85 143.277L139.912 148.714L146.259 149.49L146.436 148.468L141.59 147.876L142.352 143.46L140.85 143.277V143.277ZM58.5747 143.594L57.074 143.785L58.0547 149.217L64.3964 148.406L64.2118 147.385L59.3707 148.004L58.5747 143.593V143.594ZM150.615 144.551L149.341 149.94L155.955 151.047L156.194 150.034L151.069 149.176L151.386 147.839L154.338 148.334L154.556 147.415L151.603 146.921L151.886 145.72L156.949 146.567L157.166 145.648L150.615 144.551ZM51.9118 144.592C51.697 144.586 51.4431 144.612 51.1421 144.662L46.4258 145.447C45.2221 145.648 44.899 145.972 45.1371 146.986L45.8051 149.827C46.0436 150.84 46.4897 151.038 47.6937 150.837L52.41 150.051C53.614 149.851 53.9372 149.526 53.6987 148.512L53.0307 145.671C52.8517 144.911 52.5564 144.61 51.9118 144.592ZM51.4676 145.606L52.2707 149.021L47.3562 149.84L46.5531 146.425L51.4676 145.606ZM162.111 146.719C161.467 146.692 161.143 146.971 160.89 147.716L160.691 148.299C160.353 149.292 160.643 149.639 161.823 149.923L165.738 150.868L165.328 152.075L160.888 151.005L161.101 150.381L159.735 150.295L159.686 150.439C159.348 151.432 159.65 151.781 160.83 152.065L164.71 153.001C165.889 153.286 166.366 153.123 166.704 152.13L166.951 151.404C167.289 150.411 166.987 150.061 165.808 149.777L161.892 148.832L162.279 147.696L166.389 148.688L166.183 149.291L167.559 149.346L167.598 149.234C167.908 148.322 167.554 147.971 166.435 147.702L162.871 146.842C162.576 146.771 162.326 146.728 162.111 146.719ZM39.7686 146.749C39.556 146.754 39.3097 146.791 39.0215 146.852L34.6562 147.788C33.4669 148.042 33.1648 148.382 33.4674 149.383L34.3159 152.189C34.6185 153.19 35.0765 153.366 36.2658 153.112L40.6314 152.177C41.8207 151.922 42.1219 151.583 41.8193 150.582L41.2648 148.745L37.4265 149.567L37.7015 150.475L40.1041 149.96L40.463 151.147L35.865 152.132L34.8454 148.758L39.4426 147.773L39.6242 148.372L40.9931 147.848C40.9804 147.806 40.9681 147.766 40.9557 147.724C40.7378 147.004 40.4067 146.735 39.7686 146.75V146.749ZM100.467 151.345C102.134 151.345 103.776 151.356 105.395 151.378C104.112 154.858 102.549 158.429 100.653 162.044C100.336 161.743 100.134 161.488 100.134 161.488C97.1834 158.517 92.947 155.126 86.8719 151.599C91.193 151.433 95.7187 151.345 100.467 151.345Z" fill="#4F2984"/>
</svg>
