<svg width="201" height="201" viewBox="0 0 201 201" fill="none" xmlns="http://www.w3.org/2000/svg">
<path d="M167.781 72.9818H148.751L148.779 100.989H123.3V133.591H135.966V178.339H66.1809V133.543H78.8747L78.8957 100.989H53.2136V72.9818H33.9443V21.7578H167.781L167.781 72.9818Z" fill="black"/>
<path d="M142.394 94.4786H129.51L126.476 97.5695H145.344V72.9125L142.394 75.8769L142.394 94.4786ZM107.636 88.1633V149.145H107.685L110.811 146.16H110.796V91.0151H117.098V139.831H129.848V172.018H72.6027L69.6101 174.975H132.91V136.944H120.195V91.016H126.475L129.51 88.164L107.636 88.1633ZM117.084 162.014H85.7315L82.6406 165.161H120.321V146.16H120.307L117.096 149.153H117.082L117.084 162.014ZM117.098 54.5271V72.9116H120.196V57.696H132.89L135.763 54.5278L117.098 54.5271ZM161.663 66.2023H135.763L132.89 69.5602H164.726V25.1141L161.663 28.472L161.663 66.2023ZM66.4839 54.5904V66.2023H41.1812L37.5635 69.5602H69.547V57.6953H82.606L85.6548 54.5972L66.4839 54.5904ZM85.6542 91.0141H76.2973V97.5681H57.296L60.1972 94.4771H73.1509V88.1619H94.9558L91.9491 91.0139L85.6542 91.0141Z" fill="#CCCCCC"/>
<path d="M82.6367 146.165H91.9516V91.0206H85.6574V139.786H72.5984V172.023L82.6367 161.641V146.165ZM85.7277 149.2V162.02L91.8252 155.487H101.21V82.0983L94.9512 88.1607V149.198L85.7277 149.2ZM110.827 146.158H120.318V148.827L129.85 139.913V139.836H117.086L110.785 146.165H110.806L110.827 146.158ZM85.6576 54.6044V72.9187H101.534V40.9136L85.6576 54.6044ZM148.776 40.913L135.752 54.5341V66.2093L148.776 53.8737V40.913ZM53.3306 40.913H148.776L161.652 28.4791H41.1777V66.2084L53.3306 54.1046V40.913ZM136.231 82.0987L129.508 88.1611V94.4833L136.231 88.1681V82.0987ZM117.082 149.171V149.15H107.676L101.213 155.487H111.005L117.082 149.171ZM66.8271 88.1681L60.1957 94.4833V75.8813H142.393L136.231 82.0987L66.8266 82.0982L66.8271 88.1681Z" fill="#E90802"/>
<path d="M82.6398 146.167V165.168L85.7308 162.021V149.201H94.9543V88.1631L91.9547 91.0221V146.166L82.6398 146.167ZM117.082 149.152H117.096L120.306 146.167L120.314 146.159H110.83L110.809 146.167L107.683 149.152H107.676H117.082ZM129.509 88.1633L126.474 91.0223V97.5764L129.509 94.4854V88.1633ZM72.6 139.788H85.659V91.0227H82.5189V136.909H69.6074V174.984L72.6 172.026V139.788ZM101.535 72.9187H85.6594V54.6044L82.6036 57.7024V72.918H57.2938V97.5751L60.195 94.4841V75.882H142.392L145.335 72.9177L101.535 72.9187ZM37.5611 69.5679L41.1788 66.21V28.4808H161.653L164.723 25.1229H37.5605L37.5611 69.5679ZM135.754 66.21L132.881 69.5679V57.703L135.754 54.5348V66.21Z" fill="white"/>
<path d="M140.568 175.572V174.574H141.228C141.573 174.574 141.931 174.645 141.931 175.045C141.931 175.537 141.566 175.572 141.151 175.572H140.568ZM140.568 175.979H141.13L141.973 177.377H142.521L141.601 175.958C142.085 175.909 142.444 175.649 142.444 175.08C142.444 174.441 142.064 174.16 141.306 174.16H140.083V177.377H140.568V175.979ZM141.158 178.557C142.682 178.557 143.975 177.377 143.975 175.761C143.975 174.16 142.682 172.98 141.158 172.98C139.627 172.98 138.327 174.16 138.327 175.761C138.327 177.377 139.627 178.557 141.158 178.557ZM138.882 175.761C138.882 174.441 139.88 173.443 141.158 173.443C142.416 173.443 143.413 174.441 143.413 175.761C143.413 177.103 142.416 178.094 141.158 178.094C139.88 178.094 138.882 177.103 138.882 175.761Z" fill="white"/>
</svg>
