<svg width="199" height="199" viewBox="0 0 199 199" fill="none" xmlns="http://www.w3.org/2000/svg">
<path d="M189.766 99.7717C189.766 149.59 149.381 189.977 99.5607 189.977C49.7445 189.977 9.35938 149.591 9.35938 99.7717C9.35938 49.9554 49.7445 9.57031 99.5607 9.57031C149.379 9.57031 189.766 49.9554 189.766 99.7717Z" fill="#0A2846"/>
<path fill-rule="evenodd" clip-rule="evenodd" d="M5.83594 99.7715C5.83594 151.538 47.7987 193.5 99.5614 193.5C151.327 193.5 193.29 151.536 193.29 99.7715C193.29 48.0088 151.326 6.04607 99.5614 6.04607C47.7988 6.04607 5.83594 48.009 5.83594 99.7715ZM99.5614 186.452C51.6915 186.452 12.8841 147.645 12.8841 99.7715C12.8841 51.9016 51.6914 13.0942 99.5614 13.0942C147.434 13.0942 186.242 51.9017 186.242 99.7715C186.242 147.644 147.435 186.452 99.5614 186.452Z" fill="#EDAC09"/>
<path d="M116.529 27.8592C118.796 29.5043 120.821 31.3819 122.553 33.4577C114.822 30.2279 106.1 28.3748 97.2781 28.1326C82.4444 27.7322 68.5428 32.022 56.8954 39.7028C60.8854 38.9896 64.9847 38.6113 69.1702 38.6146C62.9737 41.007 25.6307 57.2974 27.9321 101.491C32.8737 85.8236 43.5231 72.6852 57.4483 64.53C44.3642 76.5448 36.1582 93.791 36.1582 112.951C36.1582 133.648 45.728 152.104 60.6759 164.152C56.0902 158.177 53.3637 150.702 53.3637 142.583C53.3637 140.03 53.6356 137.542 54.1469 135.139C55.745 144.6 61.1475 152.761 68.7243 158.007C65.2691 148.206 62.4402 133.913 66.1274 117.592C66.1274 117.592 67.2616 135.15 85.1469 149.616C97.1877 159.353 97.1629 168.845 94.9823 175.143C112.682 170.87 116.157 162.369 116.157 162.369C116.358 166.998 115.459 171.054 113.854 174.607C120.889 170.129 125.219 164.041 125.219 157.333C125.219 149.343 119.087 142.235 109.56 137.683C123.727 141.791 133.594 150.959 133.594 161.617C133.594 163.209 133.368 164.766 132.948 166.28C145.355 150.228 134.47 139.695 129.073 136.963C126.002 135.066 122.266 133.2 117.734 131.433C90.8233 120.963 103.36 96.3998 104.44 94.5355C104.44 94.5355 103.049 106.869 110.128 115.405C109.812 112.498 110.353 109.157 112.268 105.349C112.268 105.349 111.803 118.551 132.985 127.06L132.958 127.07C138.388 129.401 143.893 132.318 147.866 136.18C152.152 140.93 150.274 145.295 150.274 145.295C150.274 145.295 156.546 142.155 159.331 135.628C162.117 129.094 158.89 123.185 158.89 123.185C160.622 120.776 161.36 118.332 161.676 116.777C161.212 116.952 151.381 120.733 146.247 121.887C137.799 123.788 137.188 115.317 137.11 115.3C137.077 115.293 139.194 116.698 141.216 116.977C146.108 117.647 159.141 114.107 159.141 114.107C161.708 113.37 165.171 110.795 165.171 110.795C165.053 111.845 164.797 112.911 164.488 113.907C165.043 113.672 165.688 113.205 166.354 112.341C167.568 110.766 168.769 108.927 169.597 107.615C167.935 107.817 166.233 108.845 166.233 108.845C166.071 106.349 161.329 105.575 159.741 104.266C158.153 102.961 158.484 99.9661 158.484 99.9661C162.458 101.847 167.874 100.514 171.295 100.749L157.518 83.2658C157.518 83.2658 156.043 81.5107 155.841 79.1287C155.357 73.3286 150.923 68.1471 147.031 64.4828C147.037 64.4658 147.041 64.4523 147.041 64.4355C144.662 62.2655 139.225 57.6235 132.863 54.3636C132.863 54.3636 143.259 56.3376 147.619 59.5573C147.625 59.2948 147.64 59.0364 147.64 58.774C147.64 42.9077 134.077 29.8203 116.529 27.8592Z" fill="#EDAC09"/>
<path d="M105.163 48.9463C96.4188 48.9491 93.4067 55.9667 93.1515 62.4568C92.8992 68.9432 91.9437 75.5846 88.4883 77.438C88.4883 77.438 101.685 76.8737 106.118 67.982C106.297 67.6418 106.467 67.3176 106.647 66.9981C106.127 66.9613 105.598 66.9348 105.069 66.9348C102.403 66.9348 99.8609 67.3951 97.4613 68.2325C101.042 64.2828 105.787 61.5382 111.117 60.6327C108.934 60.0779 105.891 59.8436 103.764 60.1696C108.254 58.1943 113.291 57.5412 118.338 58.5875C118.962 58.7189 119.576 58.8852 120.181 59.06C119.378 57.8654 113.112 48.9463 105.163 48.9463ZM135.52 75.6035C134.802 75.6243 134.055 75.681 133.337 75.8029C129.528 76.4484 127.572 77.7999 127.572 77.7999C128.29 77.6894 129.169 77.7574 130.048 77.9058C129.944 78.1544 129.821 78.6364 130.18 79.246C131.683 81.5228 135.246 82.6305 138.98 81.7317C140.87 83.7372 145.614 88.2936 150.775 89.3701C147.958 87.9411 144.972 84.6332 142.883 81.1343C142.59 80.6429 142.306 80.1524 142.051 79.6609C140.964 77.5552 140.104 76.4276 139.518 75.8246C139.518 75.8246 137.656 75.5402 135.52 75.6035Z" fill="#0A2846"/>
</svg>
