<svg width="200" height="200" viewBox="0 0 200 200" fill="none" xmlns="http://www.w3.org/2000/svg">
<g clip-path="url(#clip0_15016_302044)">
<path d="M199.103 50.2626C191.91 48.3073 183.199 49.7582 176.195 51.9039C162.816 56.1959 151.395 65.2837 138.962 71.7836C132.398 74.5603 123.372 75.1284 117.314 71.3415C115.863 70.3115 113.234 71.0472 113.234 71.0472C112.393 70.4169 111.45 70.1765 110.309 70.5838C107.28 72.7939 104.124 69.3854 100.907 71.1526C97.6901 69.3854 94.5349 72.7939 91.5056 70.5838C90.3642 70.1765 89.4222 70.4169 88.581 71.0472C88.581 71.0472 85.95 70.3115 84.4991 71.3415C78.4421 75.1284 69.4172 74.5603 62.8536 71.7836C50.4195 65.2837 38.9988 56.1959 25.6197 51.9039C18.6146 49.7582 9.90456 48.3073 2.71065 50.2626C1.7641 50.8936 0.690138 52.0305 0.942703 53.4185C1.44783 54.2391 1.9537 55.3753 3.02615 55.5649C28.7756 51.715 42.6583 77.2741 64.2423 84.0266C64.284 84.3004 63.022 85.3516 61.6537 86.088C58.604 87.7718 54.0806 87.1188 53.7658 91.2842C54.5857 93.8728 57.7409 94.8193 60.0132 95.8281C65.3777 98.8596 71.8162 96.3347 76.6741 93.8728C77.2414 93.304 78.1887 93.6195 78.6294 94.1883C78.2509 105.865 87.1498 113.627 88.7904 124.482C89.7377 129.531 86.5818 133.252 86.2033 137.987C86.1616 139.733 87.5283 138.577 88.2648 144.361C88.581 145.413 91.2106 148.358 93.5876 149.599C95.7818 150.463 98.3249 150.715 100.907 150.647C103.489 150.715 106.032 150.463 108.226 149.599C110.603 148.358 113.234 145.413 113.547 144.361C114.286 138.577 115.652 139.733 115.611 137.987C115.232 133.252 112.076 129.531 113.023 124.482C114.664 113.627 123.562 105.865 123.183 94.1883C123.626 93.6195 124.573 93.304 125.141 93.8728C129.999 96.3347 136.436 98.8596 141.802 95.8281C144.073 94.8193 147.228 93.8728 148.049 91.2842C147.733 87.1188 143.209 87.7718 140.161 86.088C138.792 85.3516 137.53 84.3004 137.571 84.0266C159.156 77.2741 173.04 51.715 198.789 55.5649C199.861 55.3753 200.366 54.2391 200.87 53.4185C201.115 52.032 200.043 50.8951 199.097 50.2641" fill="#BF5700"/>
</g>
<defs>
<clipPath id="clip0_15016_302044">
<rect width="200" height="200" fill="white" transform="translate(-0.0078125)"/>
</clipPath>
</defs>
</svg>
