<svg width="201" height="201" viewBox="0 0 201 201" fill="none" xmlns="http://www.w3.org/2000/svg">
<g clip-path="url(#clip0_15016_302487)">
<path d="M140.813 167.891C141.154 168.117 142.652 169.154 143.648 168.889V169.137C142.878 170.027 143.495 171.882 143.025 173.12C142.781 173.762 142.08 173.801 141.905 174.487C142.239 174.982 142.194 175.583 142.403 176.231C142.909 177.793 143.307 179.436 143.77 181.207V183.57L145.389 185.188C145.83 185.969 145.36 187.083 145.638 188.05C145.887 188.918 146.704 189.271 147.131 189.917C147.35 190.246 147.279 191.169 147.381 191.285C147.961 191.698 146.791 191.903 146.454 192.921C146.265 193.156 145.7 194.224 145.265 194.52C144.83 194.816 142.314 191.905 140.288 191.037C137.856 189.992 134.54 191.405 132.199 190.788C131.271 190.542 130.983 189.922 130.334 189.543C129.787 189.225 129.237 189.237 128.716 188.921C127.303 188.065 124.799 187.755 123.987 187.428C123.177 187.101 121.964 185.508 120.629 185.064C119.44 184.668 117.908 184.769 117.02 184.068C116.739 183.652 116.833 183.129 116.647 182.576C116.285 181.495 115.757 180.425 115.278 179.341C114.817 178.294 113.948 177.338 113.412 176.355C112.985 175.568 112.813 174.711 112.293 173.991C111.549 172.964 111.317 174.172 111.296 171.875C112.556 169.899 110.129 169.006 109.802 168.017C109.512 167.141 110.039 166.002 110.177 165.404C110.39 164.474 110.3 163.523 109.802 163.165C109.305 162.808 108.531 162.741 107.687 162.419C106.928 162.128 104.896 160.218 104.453 159.557C103.976 158.844 104.169 157.834 103.831 156.943C103.646 156.459 103.155 155.876 102.836 155.451C101.995 154.331 99.855 152.508 98.729 151.593C98.4957 151.404 97.9898 151.236 97.8581 150.972V150.225C97.5927 149.602 96.9312 148.95 96.7383 148.233C96.7798 147.82 96.8213 147.405 96.8627 146.989C96.7964 146.739 96.3713 146.451 96.2406 146.244C95.3313 144.79 94.5309 143.283 93.6278 141.889C93.2794 141.35 92.565 139.923 92.3836 139.401C91.9523 138.163 92.394 137.056 91.7615 136.039C90.8501 134.573 89.1466 133.587 87.779 132.556C86.6613 131.712 86.1034 130.092 84.9183 129.32C84.2537 129.114 83.7975 128.212 83.052 127.578C82.3055 126.944 81.0872 125.782 80.5626 125.09C80.1904 124.799 80.2349 124.335 79.4428 124.219C78.6507 124.103 78.2587 124.458 77.7009 124.592C76.5086 124.883 72.7531 124.36 71.7287 124.095C70.0314 123.657 67.009 122.842 66.502 123.099C65.9981 123.359 65.797 123.86 65.5077 124.468C63.9524 123.912 62.1939 124.771 61.0275 125.09C59.7677 127.7 58.0113 130.375 57.7926 134.049C57.0274 134.467 55.9408 130.18 55.4286 130.859C54.511 132.071 53.9635 133.868 51.9448 133.969C50.5689 132.877 48.7658 132.449 47.2158 131.48C45.898 130.657 44.3831 133.478 43.1099 132.805C41.6832 132.049 39.5473 132.208 38.2585 131.312C37.5327 130.808 37.6167 129.571 37.0133 128.948C35.74 127.633 33.7524 127.094 32.6586 125.588C32.1422 124.878 31.9763 124.169 31.5377 123.349C31.0193 122.375 30.8545 121.776 30.5496 120.483C30.1484 118.789 30.5133 117.231 29.9203 115.633C29.406 114.246 27.9026 113.528 27.3085 112.15C26.563 110.423 26.7133 108.459 25.3177 107.422C24.6998 106.964 23.9574 106.76 23.326 106.303C23.0274 106.084 22.6334 105.171 22.4561 105.058C22.1243 105.017 21.7914 104.975 21.4607 104.933C21.0356 104.777 20.3523 104.461 19.9666 104.187C18.5389 103.172 17.782 101.486 16.7317 100.08C16.1199 99.2624 14.9556 99.0685 14.1188 98.4641C13.0333 97.6771 12.4361 96.0628 11.6294 94.9782C10.6994 93.7278 9.0881 93.7547 7.77235 92.8641C6.50948 92.0097 6.47941 90.0791 5.65719 88.7592C4.58821 87.0391 1.39475 87.1345 1.05363 84.7757C0.955127 84.5932 1.20812 83.9348 1.30247 83.5326H8.89317C9.48935 83.8975 11.1514 83.6559 12.0037 83.6559C14.575 83.6974 17.1464 83.7389 19.7178 83.7814C20.9288 84.0416 22.707 83.6124 24.0735 83.9048C25.5376 84.221 27.9015 84.1422 29.4226 84.1546H32.783C34.7177 84.5704 37.6219 84.4035 39.7505 84.4035H42.1145C43.704 84.7446 45.9083 84.4657 47.7145 84.5269C50.2734 84.614 53.2906 84.6492 56.0507 84.6523C56.5484 70.9256 57.046 57.1937 57.5437 43.467C57.7096 36.7483 57.8755 30.0285 58.0414 23.3098C58.509 21.148 57.8102 18.1879 58.2892 15.968C58.4738 15.1157 58.198 13.7419 58.4147 12.7341C58.8315 10.8035 58.6573 8.39078 58.6635 6.26319C60.1659 5.76861 62.7528 6.13871 64.5113 6.13871H77.3277C77.9155 6.50056 83.1111 6.26319 84.2952 6.26319C90.1015 6.34613 95.9099 6.42907 101.716 6.51202C101.865 17.2257 102.074 28.9554 102.089 39.8578C102.473 39.8464 102.876 39.8401 103.084 39.9832C104.274 40.3171 104.782 41.5904 105.449 42.4717C105.822 42.7609 106.195 43.0523 106.569 43.3416H108.062C108.185 43.1352 108.31 42.9268 108.434 42.7194H108.559V43.2182C110.118 43.2233 111.248 43.2182 112.914 43.2182C113.102 43.5054 113.689 43.9263 113.785 44.2125C113.859 44.4302 113.728 45.2701 113.785 45.5811C113.989 45.7066 114.196 46.0063 114.406 46.0788C115.361 46.1203 116.316 46.1628 117.27 46.2043C118.183 46.4863 118.994 47.2017 120.005 47.4485C121.216 47.7419 121.882 46.9892 122.993 47.1997C123.401 48.0602 123.91 48.7072 125.233 48.6916C125.561 48.3153 125.993 47.5211 126.476 47.3241C126.984 47.0141 128.794 47.6082 129.711 47.4485C129.705 47.9866 129.757 48.4324 129.835 48.816C130.413 49.153 131.694 49.6559 131.952 50.3102C132.097 50.5673 131.983 50.8296 131.952 51.3055C132.243 51.5118 132.531 51.7202 132.823 51.9286C135.095 51.9286 135.031 50.1048 136.929 49.8124C137.342 50.25 137.398 50.9613 138.172 51.0567C138.964 50.6513 139.904 52.2242 141.159 52.3009C141.584 51.6052 141.989 51.0577 143.15 51.0567C143.192 51.1811 143.233 51.3055 143.274 51.4299C143.525 51.8312 143.557 52.9852 143.648 53.4207C144.105 53.7172 144.201 53.9028 145.016 53.9183C145.057 53.8769 145.1 53.8354 145.141 53.7949C145.223 53.1718 145.307 52.5487 145.389 51.9286H146.26C146.391 51.6 146.576 50.5041 146.883 50.3102C147.105 50.1049 147.195 50.0914 147.629 50.0603C148.005 50.8669 147.828 51.5771 149.124 51.5543C149.632 51.9815 150.449 51.9038 150.989 51.6777C151.158 51.1832 151.138 50.8089 151.735 50.6834C151.863 50.783 151.77 50.728 151.984 50.8078C151.98 51.2215 152.018 51.5492 152.11 51.8032C152.481 51.9691 153.104 52.0603 153.476 52.3009C153.586 52.3704 153.641 52.7467 153.727 52.7975C154.141 52.8411 154.556 52.8805 154.971 52.923C155.582 53.2952 155.581 53.8375 156.589 53.9183C156.966 53.1988 157.146 52.9976 158.33 53.0474C158.531 52.6907 158.796 51.855 159.201 51.6777C160.202 50.7923 161.989 51.6062 163.555 51.1811C164.456 50.9374 164.975 50.1639 165.919 49.9369C166.941 49.6911 167.968 50.3568 168.657 50.559C169.743 50.8773 170.676 50.5041 171.519 50.3102C171.804 49.7959 171.941 49.2298 172.763 49.1904C173.228 49.5087 173.9 49.5149 174.381 49.8124C175.406 50.446 176.28 51.4911 177.367 52.0521C177.84 52.2967 178.377 52.1651 178.859 52.4253C179.218 52.6171 179.563 53.1127 179.98 53.2952C180.893 53.6965 181.864 53.6871 182.842 54.0428C183.832 54.4036 184.52 55.2973 185.579 55.4114C186.543 54.7074 188.492 54.6348 189.685 54.9147C189.726 54.9552 189.768 54.9977 189.81 55.0382C190.119 57.6769 189.981 61.3421 190.557 63.9964C190.91 65.6305 190.609 67.3713 190.93 68.8499C191.284 70.4881 190.98 72.2092 191.302 73.7023V75.9418C191.393 77.5665 191.265 79.7781 191.675 81.2919C192.339 83.7327 195.072 84.1671 195.783 86.3942C196.104 87.4041 195.147 88.6047 195.533 89.1314C195.919 89.6592 196.938 89.6457 197.275 90.1268C197.612 90.6059 198.415 94.3084 199.514 95.7268C199.764 96.0461 200.359 95.8813 200.51 95.9756C201.136 96.9886 200.213 97.8596 200.387 98.7108C200.412 98.8373 200.732 99.1401 200.759 99.2096L200.76 99.2085C201.123 100.158 201.022 100.336 201.008 100.952C200.996 101.568 200.467 103.628 200.387 103.813C200.151 103.966 200.054 104.684 200.014 104.684C199.791 104.89 198.973 106.19 199.017 106.427C199.097 106.842 198.68 109.811 198.644 110.905C200.079 112.511 200.304 115.56 199.017 116.878C198.406 117.504 195.765 119.214 196.779 120.859C196.979 121.411 198.597 122.546 198.272 122.974C197.676 123.33 196.761 123.161 196.032 123.348C194.561 123.728 193.104 124.091 191.801 124.718C190.093 125.538 188.319 126.675 186.7 127.703C185.93 128.191 184.08 129.625 183.035 129.837C183.035 129.797 184.21 129.113 184.21 129.072C184.636 128.637 183.761 129.165 183.329 129.44C183.508 129.266 182.385 129.507 182.562 129.245C182.379 129.138 182.682 127.763 182.541 127.615C181.399 127.545 183.655 126.517 182.548 126.927V126.553C183.133 126.096 183.519 124.969 183.508 123.921C182.96 123.276 184.462 122.243 183.215 122.228C183.087 122.328 183.181 122.272 182.966 122.353C182.619 122.884 182.217 123.176 182.096 123.971C180.633 123.921 180.576 122.938 179.482 122.602V122.726C180.603 123.975 179.894 126.223 181.722 127.081C181.552 127.396 181.483 127.517 181.473 128.077C181.975 128.387 182.402 128.81 182.468 129.57C182.589 129.82 182.438 130.06 182.344 130.441C180.841 130.502 180.36 131.976 179.608 132.804H178.611C178.131 136.66 175.397 138.524 172.763 140.271C172.273 140.595 171.572 141.325 171.022 141.515C170.358 141.515 170.303 142.868 169.639 142.868C168.413 143.154 169.132 144.308 168.379 145.012C168.458 145.231 167.026 146.166 167.026 145.96C166.837 145.892 158.174 146.266 159.449 147.113V147.362C157.925 147.88 157.358 149.274 155.218 149.354C154.677 148.896 154.313 148.665 153.975 147.985C153.599 148.077 153.39 148.901 153.476 149.231C154.159 151.783 151.948 153.121 149.869 153.086C149.707 152.785 149.644 152.733 149.62 152.215C148.666 152.326 147.671 153.253 147.629 153.46C147.118 153.601 146.467 154.454 146.51 154.454C146.757 154.621 147.319 154.593 147.754 154.579C148.227 154.19 149.148 153.776 149.745 153.583V153.832C149.96 154.218 149.512 154.991 149.371 155.325V155.948C148.913 157.157 148.006 158.001 147.131 158.81C145.484 158.48 146.117 160.761 146.26 161.422C145.483 162.456 144.83 165.082 144.395 166.401C144.221 166.919 144.306 167.287 144.02 167.643C143.873 167.744 143.812 167.739 143.523 167.769C142.947 168.065 142.712 167.374 142.279 167.395C142.088 167.405 141.706 167.876 140.813 167.891ZM140.813 167.891C140.803 167.891 140.796 167.893 140.785 167.893C140.717 167.829 140.733 167.838 140.813 167.891ZM183.272 129.482C183.297 129.466 183.314 129.452 183.328 129.441C183.099 129.585 182.992 129.66 183.272 129.482Z" stroke="#6F263D" stroke-width="7.67052"/>
<path d="M200.759 99.2095C200.732 99.1401 200.412 98.8373 200.387 98.7108C200.213 97.8596 201.136 96.9886 200.51 95.9756C200.359 95.8813 199.764 96.0462 199.514 95.7268C198.415 94.3084 197.612 90.6059 197.275 90.1268C196.938 89.6457 195.919 89.6592 195.533 89.1314C195.147 88.6047 196.104 87.4041 195.783 86.3942C195.072 84.1671 192.339 83.7327 191.675 81.2919C191.265 79.7782 191.393 77.5665 191.302 75.9418V73.7023C190.98 72.2092 191.284 70.4881 190.93 68.8499C190.609 67.3713 190.91 65.6304 190.557 63.9964C189.981 61.3421 190.119 57.6769 189.81 55.0381C189.768 54.9977 189.726 54.9552 189.685 54.9147C188.492 54.6348 186.543 54.7074 185.579 55.4114C184.52 55.2973 183.832 54.4036 182.842 54.0428C181.864 53.6871 180.893 53.6965 179.98 53.2952C179.563 53.1127 179.218 52.6171 178.859 52.4253C178.377 52.1651 177.84 52.2968 177.367 52.052C176.28 51.4911 175.406 50.446 174.381 49.8124C173.9 49.5149 173.228 49.5087 172.763 49.1904C171.941 49.2298 171.804 49.7959 171.519 50.3102C170.676 50.5041 169.743 50.8773 168.657 50.559C167.968 50.3568 166.941 49.6911 165.919 49.9369C164.975 50.1639 164.456 50.9374 163.555 51.1811C161.989 51.6062 160.202 50.7923 159.201 51.6777C158.796 51.855 158.531 52.6907 158.33 53.0474C157.146 52.9976 156.966 53.1988 156.589 53.9184C155.581 53.8375 155.582 53.2952 154.971 52.923C154.556 52.8804 154.141 52.8411 153.727 52.7975C153.641 52.7467 153.586 52.3703 153.476 52.3009C153.104 52.0603 152.481 51.9691 152.11 51.8032C152.018 51.5492 151.98 51.2215 151.984 50.8078C151.77 50.728 151.863 50.783 151.735 50.6834C151.138 50.8089 151.158 51.1832 150.989 51.6777C150.449 51.9038 149.632 51.9815 149.124 51.5543C147.827 51.5771 148.005 50.8669 147.629 50.0603C147.195 50.0914 147.105 50.1049 146.883 50.3102C146.576 50.5041 146.391 51.6 146.26 51.9286H145.389C145.307 52.5487 145.223 53.1718 145.141 53.795C145.1 53.8354 145.057 53.8769 145.016 53.9184C144.201 53.9028 144.105 53.7172 143.648 53.4207C143.557 52.9852 143.525 51.8312 143.274 51.4299C143.233 51.3055 143.192 51.1811 143.15 51.0567C141.989 51.0577 141.584 51.6052 141.159 52.3009C139.904 52.2242 138.964 50.6513 138.172 51.0567C137.398 50.9613 137.342 50.25 136.929 49.8124C135.031 50.1048 135.095 51.9286 132.823 51.9286C132.531 51.7202 132.243 51.5118 131.952 51.3055C131.983 50.8296 132.097 50.5673 131.952 50.3102C131.694 49.6559 130.413 49.153 129.835 48.816C129.757 48.4324 129.705 47.9866 129.711 47.4485C128.794 47.6082 126.984 47.0141 126.476 47.3241C125.993 47.5211 125.561 48.3153 125.233 48.6916C123.91 48.7072 123.401 48.0602 122.993 47.1996C121.882 46.9892 121.216 47.7419 120.005 47.4485C118.994 47.2017 118.183 46.4863 117.27 46.2043C116.316 46.1628 115.361 46.1203 114.406 46.0788C114.196 46.0063 113.989 45.7066 113.785 45.5811C113.728 45.2701 113.859 44.4302 113.785 44.2125C113.689 43.9263 113.102 43.5054 112.914 43.2182C111.248 43.2182 110.118 43.2233 108.559 43.2182V42.7194H108.434C108.31 42.9268 108.185 43.1352 108.062 43.3416H106.569C106.195 43.0523 105.822 42.761 105.449 42.4717C104.782 41.5904 104.274 40.3171 103.084 39.9832C102.876 39.8401 102.473 39.8464 102.089 39.8578C102.074 28.9554 101.865 17.2257 101.716 6.51202C95.9099 6.42908 90.1015 6.34613 84.2952 6.26318C83.1111 6.26318 77.9155 6.50056 77.3277 6.1387H64.5113C62.7528 6.1387 60.1659 5.76862 58.6635 6.26318C58.6573 8.39078 58.8315 10.8035 58.4147 12.7341C58.198 13.7419 58.4738 15.1157 58.2892 15.968C57.8102 18.1879 58.509 21.148 58.0414 23.3098C57.8755 30.0285 57.7096 36.7483 57.5437 43.467C57.046 57.1937 56.5484 70.9256 56.0507 84.6523C53.2906 84.6492 50.2734 84.614 47.7145 84.5269C45.9083 84.4657 43.704 84.7446 42.1145 84.4035H39.7505C37.6219 84.4035 34.7177 84.5704 32.783 84.1546H29.4226C27.9015 84.1422 25.5376 84.221 24.0735 83.9048C22.707 83.6124 20.9288 84.0416 19.7178 83.7814C17.1464 83.7389 14.575 83.6974 12.0037 83.6559C11.1514 83.6559 9.48935 83.8975 8.89317 83.5326H1.30247C1.20812 83.9348 0.955127 84.5932 1.05363 84.7757C1.39475 87.1345 4.58821 87.0391 5.65719 88.7592C6.47941 90.0791 6.50948 92.0098 7.77235 92.8641C9.0881 93.7547 10.6994 93.7278 11.6294 94.9782C12.4361 96.0628 13.0333 97.6771 14.1188 98.4641C14.9556 99.0686 16.1199 99.2624 16.7317 100.08C17.782 101.486 18.5389 103.172 19.9666 104.187C20.3523 104.461 21.0356 104.777 21.4607 104.933C21.7914 104.975 22.1243 105.017 22.4561 105.058C22.6334 105.171 23.0274 106.084 23.326 106.303C23.9574 106.76 24.6998 106.964 25.3177 107.422C26.7133 108.459 26.563 110.423 27.3085 112.15C27.9026 113.528 29.406 114.246 29.9203 115.633C30.5133 117.231 30.1484 118.789 30.5496 120.483C30.8545 121.776 31.0193 122.375 31.5377 123.349C31.9763 124.169 32.1422 124.878 32.6586 125.588C33.7524 127.094 35.74 127.633 37.0133 128.948C37.6167 129.571 37.5327 130.808 38.2585 131.312C39.5473 132.208 41.6832 132.049 43.1099 132.805C44.3831 133.478 45.8979 130.657 47.2158 131.48C48.7658 132.449 50.5689 132.877 51.9448 133.969C53.9635 133.868 54.511 132.071 55.4286 130.859C55.9408 130.18 57.0274 134.467 57.7926 134.049C58.0113 130.375 59.7677 127.7 61.0275 125.09C62.1939 124.771 63.9524 123.912 65.5077 124.468C65.797 123.86 65.9981 123.359 66.502 123.099C67.009 122.842 70.0314 123.657 71.7287 124.095C72.7531 124.36 76.5086 124.883 77.7009 124.592C78.2587 124.458 78.6507 124.103 79.4428 124.219C80.2349 124.335 80.1904 124.799 80.5626 125.09C81.0872 125.782 82.3055 126.944 83.052 127.578C83.7975 128.212 84.2537 129.114 84.9183 129.32C86.1034 130.092 86.6613 131.712 87.779 132.556C89.1466 133.587 90.8501 134.573 91.7615 136.039C92.394 137.056 91.9523 138.163 92.3836 139.401C92.565 139.923 93.2794 141.35 93.6278 141.889C94.5309 143.283 95.3313 144.79 96.2406 146.244C96.3713 146.451 96.7964 146.739 96.8627 146.989C96.8213 147.405 96.7798 147.82 96.7383 148.233C96.9312 148.95 97.5927 149.602 97.8581 150.225V150.972C97.9898 151.236 98.4958 151.404 98.729 151.593C99.855 152.508 101.995 154.331 102.836 155.451C103.155 155.876 103.646 156.459 103.831 156.943C104.169 157.834 103.976 158.844 104.453 159.557C104.896 160.218 106.928 162.128 107.687 162.419C108.531 162.741 109.305 162.808 109.802 163.165C110.3 163.523 110.39 164.474 110.177 165.404C110.039 166.002 109.512 167.141 109.802 168.017C110.129 169.006 112.556 169.899 111.296 171.875C111.317 174.172 111.549 172.964 112.293 173.991C112.813 174.711 112.985 175.568 113.412 176.354C113.948 177.338 114.817 178.294 115.278 179.341C115.757 180.425 116.285 181.495 116.647 182.576C116.833 183.129 116.739 183.652 117.02 184.068C117.908 184.769 119.44 184.668 120.629 185.064C121.964 185.508 123.177 187.101 123.987 187.428C124.799 187.755 127.303 188.065 128.716 188.921C129.237 189.237 129.786 189.225 130.334 189.543C130.983 189.922 131.271 190.542 132.199 190.788C134.54 191.405 137.856 189.992 140.288 191.037C142.314 191.905 144.83 194.816 145.265 194.52C145.7 194.224 146.265 193.156 146.454 192.921C146.791 191.903 147.961 191.698 147.381 191.285C147.279 191.169 147.35 190.246 147.131 189.917C146.704 189.271 145.887 188.918 145.638 188.05C145.36 187.083 145.83 185.969 145.389 185.188L143.77 183.57V181.207C143.307 179.436 142.909 177.793 142.403 176.231C142.194 175.583 142.239 174.982 141.905 174.487C142.08 173.801 142.781 173.762 143.025 173.12C143.495 171.882 142.878 170.027 143.648 169.137V168.889C142.652 169.154 141.154 168.117 140.813 167.891C140.803 167.891 140.796 167.893 140.785 167.893C140.717 167.829 140.733 167.838 140.813 167.891C141.706 167.876 142.088 167.405 142.279 167.395C142.712 167.374 142.947 168.065 143.523 167.769C143.812 167.739 143.873 167.744 144.02 167.643C144.306 167.287 144.221 166.919 144.395 166.401C144.83 165.082 145.483 162.456 146.26 161.422C146.117 160.761 145.484 158.48 147.131 158.81C148.006 158.001 148.913 157.157 149.371 155.948V155.325C149.512 154.991 149.96 154.218 149.745 153.832V153.583C149.148 153.776 148.227 154.19 147.754 154.579C147.319 154.593 146.757 154.621 146.51 154.454C146.467 154.454 147.118 153.601 147.629 153.46C147.671 153.253 148.666 152.326 149.62 152.215C149.644 152.733 149.707 152.785 149.869 153.086C151.948 153.121 154.159 151.783 153.476 149.231C153.39 148.901 153.599 148.077 153.975 147.985C154.313 148.665 154.677 148.896 155.218 149.354C157.358 149.274 157.925 147.88 159.449 147.362V147.113C158.174 146.266 166.837 145.892 167.026 145.96C167.026 146.166 168.458 145.231 168.379 145.012C169.132 144.308 168.413 143.154 169.639 142.868C170.303 142.868 170.358 141.515 171.022 141.515C171.572 141.325 172.273 140.595 172.763 140.271C175.397 138.524 178.131 136.66 178.611 132.804H179.608C180.36 131.976 180.841 130.502 182.344 130.441C182.438 130.06 182.589 129.82 182.468 129.57C182.402 128.81 181.975 128.387 181.473 128.077C181.483 127.517 181.552 127.396 181.722 127.081C179.894 126.223 180.603 123.975 179.482 122.726V122.602C180.576 122.938 180.633 123.921 182.096 123.971C182.217 123.176 182.619 122.884 182.966 122.353C183.181 122.272 183.087 122.328 183.215 122.228C184.462 122.243 182.96 123.276 183.508 123.921C183.519 124.969 183.133 126.096 182.548 126.553V126.927C183.655 126.517 181.399 127.545 182.541 127.615C182.682 127.763 182.379 129.138 182.562 129.245C182.385 129.507 183.508 129.266 183.329 129.44C183.761 129.165 184.636 128.637 184.21 129.072C184.21 129.113 183.035 129.797 183.035 129.837C184.08 129.625 185.93 128.191 186.7 127.703C188.319 126.675 190.093 125.538 191.801 124.718C193.104 124.091 194.561 123.728 196.032 123.348C196.761 123.161 197.676 123.33 198.272 122.974C198.597 122.546 196.979 121.411 196.779 120.859C195.765 119.214 198.406 117.504 199.017 116.878C200.304 115.56 200.079 112.511 198.644 110.905C198.68 109.811 199.097 106.842 199.017 106.427C198.973 106.19 199.791 104.89 200.014 104.684C200.054 104.684 200.151 103.966 200.387 103.813C200.467 103.628 200.996 101.568 201.008 100.952C201.021 100.336 201.123 100.158 200.76 99.2085L200.759 99.2095ZM183.272 129.482C183.297 129.466 183.314 129.452 183.328 129.441C183.099 129.585 182.992 129.66 183.272 129.482Z" fill="#A2AAAD"/>
<path d="M140.813 167.891C141.154 168.117 142.652 169.154 143.648 168.889V169.137C142.878 170.027 143.495 171.882 143.025 173.12C142.781 173.762 142.08 173.801 141.905 174.487C142.239 174.982 142.194 175.583 142.403 176.231C142.909 177.793 143.307 179.436 143.77 181.207V183.57L145.389 185.188C145.83 185.969 145.36 187.083 145.638 188.05C145.887 188.918 146.704 189.271 147.131 189.917C147.35 190.246 147.279 191.169 147.381 191.285C147.961 191.698 146.791 191.903 146.454 192.921C146.265 193.156 145.7 194.224 145.265 194.52C144.83 194.816 142.314 191.905 140.288 191.037C137.856 189.992 134.54 191.405 132.199 190.788C131.271 190.542 130.983 189.922 130.334 189.543C129.787 189.225 129.237 189.237 128.716 188.921C127.303 188.065 124.799 187.755 123.987 187.428C123.177 187.101 121.964 185.508 120.629 185.064C119.44 184.668 117.908 184.769 117.02 184.068C116.739 183.652 116.833 183.129 116.647 182.576C116.285 181.495 115.757 180.425 115.278 179.341C114.817 178.294 113.948 177.338 113.412 176.355C112.985 175.568 112.813 174.711 112.293 173.991C111.549 172.964 111.317 174.172 111.296 171.875C112.556 169.899 110.129 169.006 109.802 168.017C109.512 167.141 110.039 166.002 110.177 165.404C110.39 164.474 110.3 163.523 109.802 163.165C109.305 162.808 108.531 162.741 107.687 162.419C106.928 162.128 104.896 160.218 104.453 159.557C103.976 158.844 104.169 157.834 103.831 156.943C103.646 156.459 103.155 155.876 102.836 155.451C101.995 154.331 99.855 152.508 98.729 151.593C98.4957 151.404 97.9898 151.236 97.8581 150.972V150.225C97.5927 149.602 96.9312 148.95 96.7383 148.233C96.7798 147.82 96.8213 147.405 96.8627 146.989C96.7964 146.739 96.3713 146.451 96.2406 146.244C95.3313 144.79 94.5309 143.283 93.6278 141.889C93.2794 141.35 92.565 139.923 92.3836 139.401C91.9523 138.163 92.394 137.056 91.7615 136.039C90.8501 134.573 89.1466 133.587 87.779 132.556C86.6613 131.712 86.1034 130.092 84.9183 129.32C84.2537 129.114 83.7975 128.212 83.052 127.578C82.3055 126.944 81.0872 125.782 80.5626 125.09C80.1904 124.799 80.2349 124.335 79.4428 124.219C78.6507 124.103 78.2587 124.458 77.7009 124.592C76.5086 124.883 72.7531 124.36 71.7287 124.095C70.0314 123.657 67.009 122.842 66.502 123.099C65.9981 123.359 65.797 123.86 65.5077 124.468C63.9524 123.912 62.1939 124.771 61.0275 125.09C59.7677 127.7 58.0113 130.375 57.7926 134.049C57.0274 134.467 55.9408 130.18 55.4286 130.859C54.511 132.071 53.9635 133.868 51.9448 133.969C50.5689 132.877 48.7658 132.449 47.2158 131.48C45.898 130.657 44.3831 133.478 43.1099 132.805C41.6832 132.049 39.5473 132.208 38.2585 131.312C37.5327 130.808 37.6167 129.571 37.0133 128.948C35.74 127.633 33.7524 127.094 32.6586 125.588C32.1422 124.878 31.9763 124.169 31.5377 123.349C31.0193 122.375 30.8545 121.776 30.5496 120.483C30.1484 118.789 30.5133 117.231 29.9203 115.633C29.406 114.246 27.9026 113.528 27.3085 112.15C26.563 110.423 26.7133 108.459 25.3177 107.422C24.6998 106.964 23.9574 106.76 23.326 106.303C23.0274 106.084 22.6334 105.171 22.4561 105.058C22.1243 105.017 21.7914 104.975 21.4607 104.933C21.0356 104.777 20.3523 104.461 19.9666 104.187C18.5389 103.172 17.782 101.486 16.7317 100.08C16.1199 99.2624 14.9556 99.0685 14.1188 98.4641C13.0333 97.6771 12.4361 96.0628 11.6294 94.9782C10.6994 93.7278 9.0881 93.7547 7.77235 92.8641C6.50948 92.0097 6.47941 90.0791 5.65719 88.7592C4.58821 87.0391 1.39475 87.1345 1.05363 84.7757C0.955127 84.5932 1.20812 83.9348 1.30247 83.5326H8.89317C9.48935 83.8975 11.1514 83.6559 12.0037 83.6559C14.575 83.6974 17.1464 83.7389 19.7178 83.7814C20.9288 84.0416 22.707 83.6124 24.0735 83.9048C25.5376 84.221 27.9015 84.1422 29.4226 84.1546H32.783C34.7177 84.5704 37.6219 84.4035 39.7505 84.4035H42.1145C43.704 84.7446 45.9083 84.4657 47.7145 84.5269C50.2734 84.614 53.2906 84.6492 56.0507 84.6523C56.5484 70.9256 57.046 57.1937 57.5437 43.467C57.7096 36.7483 57.8755 30.0285 58.0414 23.3098C58.509 21.148 57.8102 18.1879 58.2892 15.968C58.4738 15.1157 58.198 13.7419 58.4147 12.7341C58.8315 10.8035 58.6573 8.39078 58.6635 6.26319C60.1659 5.76861 62.7528 6.13871 64.5113 6.13871H77.3277C77.9155 6.50056 83.1111 6.26319 84.2952 6.26319C90.1015 6.34613 95.9099 6.42907 101.716 6.51202C101.865 17.2257 102.074 28.9554 102.089 39.8578C102.473 39.8464 102.876 39.8401 103.084 39.9832C104.274 40.3171 104.782 41.5904 105.449 42.4717C105.822 42.7609 106.195 43.0523 106.569 43.3416H108.062C108.185 43.1352 108.31 42.9268 108.434 42.7194H108.559V43.2182C110.118 43.2233 111.248 43.2182 112.914 43.2182C113.102 43.5054 113.689 43.9263 113.785 44.2125C113.859 44.4302 113.728 45.2701 113.785 45.5811C113.989 45.7066 114.196 46.0063 114.406 46.0788C115.361 46.1203 116.316 46.1628 117.27 46.2043C118.183 46.4863 118.994 47.2017 120.005 47.4485C121.216 47.7419 121.882 46.9892 122.993 47.1997C123.401 48.0602 123.91 48.7072 125.233 48.6916C125.561 48.3153 125.993 47.5211 126.476 47.3241C126.984 47.0141 128.794 47.6082 129.711 47.4485C129.705 47.9866 129.757 48.4324 129.835 48.816C130.413 49.153 131.694 49.6559 131.952 50.3102C132.097 50.5673 131.983 50.8296 131.952 51.3055C132.243 51.5118 132.531 51.7202 132.823 51.9286C135.095 51.9286 135.031 50.1048 136.929 49.8124C137.342 50.25 137.398 50.9613 138.172 51.0567C138.964 50.6513 139.904 52.2242 141.159 52.3009C141.584 51.6052 141.989 51.0577 143.15 51.0567C143.192 51.1811 143.233 51.3055 143.274 51.4299C143.525 51.8312 143.557 52.9852 143.648 53.4207C144.105 53.7172 144.201 53.9028 145.016 53.9183C145.057 53.8769 145.1 53.8354 145.141 53.7949C145.223 53.1718 145.307 52.5487 145.389 51.9286H146.26C146.391 51.6 146.576 50.5041 146.883 50.3102C147.105 50.1049 147.195 50.0914 147.629 50.0603C148.005 50.8669 147.828 51.5771 149.124 51.5543C149.632 51.9815 150.449 51.9038 150.989 51.6777C151.158 51.1832 151.138 50.8089 151.735 50.6834C151.863 50.783 151.77 50.728 151.984 50.8078C151.98 51.2215 152.018 51.5492 152.11 51.8032C152.481 51.9691 153.104 52.0603 153.476 52.3009C153.586 52.3704 153.641 52.7467 153.727 52.7975C154.141 52.8411 154.556 52.8805 154.971 52.923C155.582 53.2952 155.581 53.8375 156.589 53.9183C156.966 53.1988 157.146 52.9976 158.33 53.0474C158.531 52.6907 158.796 51.855 159.201 51.6777C160.202 50.7923 161.989 51.6062 163.555 51.1811C164.456 50.9374 164.975 50.1639 165.919 49.9369C166.941 49.6911 167.968 50.3568 168.657 50.559C169.743 50.8773 170.676 50.5041 171.519 50.3102C171.804 49.7959 171.941 49.2298 172.763 49.1904C173.228 49.5087 173.9 49.5149 174.381 49.8124C175.406 50.446 176.28 51.4911 177.367 52.0521C177.84 52.2967 178.377 52.1651 178.859 52.4253C179.218 52.6171 179.563 53.1127 179.98 53.2952C180.893 53.6965 181.864 53.6871 182.842 54.0428C183.832 54.4036 184.52 55.2973 185.579 55.4114C186.543 54.7074 188.492 54.6348 189.685 54.9147C189.726 54.9552 189.768 54.9977 189.81 55.0382C190.119 57.6769 189.981 61.3421 190.557 63.9964C190.91 65.6305 190.609 67.3713 190.93 68.8499C191.284 70.4881 190.98 72.2092 191.302 73.7023V75.9418C191.393 77.5665 191.265 79.7781 191.675 81.2919C192.339 83.7327 195.072 84.1671 195.783 86.3942C196.104 87.4041 195.147 88.6047 195.533 89.1314C195.919 89.6592 196.938 89.6457 197.275 90.1268C197.612 90.6059 198.415 94.3084 199.514 95.7268C199.764 96.0461 200.359 95.8813 200.51 95.9756C201.136 96.9886 200.213 97.8596 200.387 98.7108C200.412 98.8373 200.732 99.1401 200.759 99.2096L200.76 99.2085C201.123 100.158 201.022 100.336 201.008 100.952C200.996 101.568 200.467 103.628 200.387 103.813C200.151 103.966 200.054 104.684 200.014 104.684C199.791 104.89 198.973 106.19 199.017 106.427C199.097 106.842 198.68 109.811 198.644 110.905C200.079 112.511 200.304 115.56 199.017 116.878C198.406 117.504 195.765 119.214 196.779 120.859C196.979 121.411 198.597 122.546 198.272 122.974C197.676 123.33 196.761 123.161 196.032 123.348C194.561 123.728 193.104 124.091 191.801 124.718C190.093 125.538 188.319 126.675 186.7 127.703C185.93 128.191 184.08 129.625 183.035 129.837C183.035 129.797 184.21 129.113 184.21 129.072C184.636 128.637 183.761 129.165 183.329 129.44C183.508 129.266 182.385 129.507 182.562 129.245C182.379 129.138 182.682 127.763 182.541 127.615C181.399 127.545 183.655 126.517 182.548 126.927V126.553C183.133 126.096 183.519 124.969 183.508 123.921C182.96 123.276 184.462 122.243 183.215 122.228C183.087 122.328 183.181 122.272 182.966 122.353C182.619 122.884 182.217 123.176 182.096 123.971C180.633 123.921 180.576 122.938 179.482 122.602V122.726C180.603 123.975 179.894 126.223 181.722 127.081C181.552 127.396 181.483 127.517 181.473 128.077C181.975 128.387 182.402 128.81 182.468 129.57C182.589 129.82 182.438 130.06 182.344 130.441C180.841 130.502 180.36 131.976 179.608 132.804H178.611C178.131 136.66 175.397 138.524 172.763 140.271C172.273 140.595 171.572 141.325 171.022 141.515C170.358 141.515 170.303 142.868 169.639 142.868C168.413 143.154 169.132 144.308 168.379 145.012C168.458 145.231 167.026 146.166 167.026 145.96C166.837 145.892 158.174 146.266 159.449 147.113V147.362C157.925 147.88 157.358 149.274 155.218 149.354C154.677 148.896 154.313 148.665 153.975 147.985C153.599 148.077 153.39 148.901 153.476 149.231C154.159 151.783 151.948 153.121 149.869 153.086C149.707 152.785 149.644 152.733 149.62 152.215C148.666 152.326 147.671 153.253 147.629 153.46C147.118 153.601 146.467 154.454 146.51 154.454C146.757 154.621 147.319 154.593 147.754 154.579C148.227 154.19 149.148 153.776 149.745 153.583V153.832C149.96 154.218 149.512 154.991 149.371 155.325V155.948C148.913 157.157 148.006 158.001 147.131 158.81C145.484 158.48 146.117 160.761 146.26 161.422C145.483 162.456 144.83 165.082 144.395 166.401C144.221 166.919 144.306 167.287 144.02 167.643C143.873 167.744 143.812 167.739 143.523 167.769C142.947 168.065 142.712 167.374 142.279 167.395C142.088 167.405 141.706 167.876 140.813 167.891ZM140.813 167.891C140.803 167.891 140.796 167.893 140.785 167.893C140.717 167.829 140.733 167.838 140.813 167.891ZM183.272 129.482C183.297 129.466 183.314 129.452 183.328 129.441C183.099 129.585 182.992 129.66 183.272 129.482Z" stroke="white" stroke-width="1.91763"/>
<path fill-rule="evenodd" clip-rule="evenodd" d="M50.4003 41.9034V66.3282H72.5782V58.1673H94.7593V139.975H83.6693V156.239H128.184V139.975H116.939V58.1673L140.087 41.9034H50.4003ZM39.2273 103.61L31.1348 109.602V127.684L39.2273 133.674H61.6282V148.754H41.2512V144.995H31.1348V150.249L39.2263 156.239H63.6511L71.7467 150.249V132.177L63.6511 126.187H41.2512V111.097H61.6292V114.853H71.7467V109.602L63.6521 103.61H39.2273ZM135.213 104.084V111.503H140.29V150.302L148.382 156.238H172.808L180.9 150.302V111.503H185.977V104.084H165.707V111.503H170.785V148.82H150.408V111.503H155.483V104.084H135.214H135.213Z" stroke="#6F263D" stroke-width="10.8619"/>
<path fill-rule="evenodd" clip-rule="evenodd" d="M50.4003 41.9034V66.3282H72.5782V58.1673H94.7593V139.975H83.6693V156.239H128.184V139.975H116.939V58.1673L161.612 41.9034H50.4023H50.4003ZM39.2273 103.61L31.1348 109.602V127.684L39.2273 133.674H61.6282V148.754H41.2512V144.995H31.1348V150.249L39.2263 156.239H63.6511L71.7467 150.249V132.177L63.6511 126.187H41.2512V111.097H61.6292V114.853H71.7467V109.602L63.6521 103.61H39.2273ZM135.213 104.084V111.503H140.29V150.302L148.382 156.238H172.808L180.9 150.302V111.503H185.977V104.084H165.707V111.503H170.785V148.82H150.408V111.503H155.483V104.084H135.214H135.213Z" stroke="#A2AAAD" stroke-width="3.83526"/>
<path d="M150.847 34.6559L147.378 35.2148C147.378 35.2148 144.986 35.109 144.142 34.8156C143.298 34.5211 137.853 35.8545 136.728 35.8545L131.204 38.7307L122.527 37.9323L122.261 41.8961H50.3912V66.3199H72.5702V58.159H94.7503V139.967H83.6602V156.23H128.176V139.967H116.93V103.317L127.073 92.8433L136.363 86.0925L139.066 84.644L153.579 85.5689L157.535 87.5586L157.051 90.4296L160.788 93.3877L168.204 91.709L168.833 87.0743L172.045 84.2988L173.331 79.4183L170.824 81.4827L171.174 79.0305L169.189 80.7196L166.626 81.5501L165.225 78.5318L160.017 73.7375C160.017 73.7375 163.244 67.896 164.793 65.253C166.341 62.6112 169.016 61.5847 169.016 61.5847L175.705 68.8581L174.593 72.6924L171.855 77.1808L177.513 75.4887L179.248 74.1305L180.107 71.4025L179.169 70.4548L181.692 69.895L183.373 65.4002L185.874 64.0607L186.505 61.5847L188.016 59.5297L189.707 57.1823L187.293 54.6327L179.431 48.083L173.519 45.7345L168.755 38.9702L158.038 37.9562L153.675 35.4636L150.847 34.6559ZM39.2234 103.602L31.1309 109.592V127.675L39.2234 133.665H61.6243V148.744H41.2473V144.987H31.1309V150.24L39.2224 156.229H63.6472L71.7428 150.24V132.168L63.6472 126.178H41.2473V111.089H61.6253V114.845H71.7428V109.591L63.6482 103.602H39.2234ZM135.209 104.075V111.495H140.286V150.294L148.378 156.229H172.805L180.896 150.294V111.495H185.973V104.075H165.703V111.495H170.781V148.812H150.404V111.495H155.479V104.075H135.209Z" fill="white"/>
<path d="M151.709 34.0649C150.358 34.0743 148.551 34.4703 147.18 34.2837C145.351 34.0359 143.631 34.1997 142.623 34.2215C139.565 34.2827 133.93 35.5352 130.453 38.3471C130.453 38.3471 128.296 37.7841 125.048 37.613C123.491 37.5311 122.029 37.3694 121.88 37.7851C121.633 38.4694 121.364 39.7966 121.471 41.9978C121.471 41.9978 120.57 42.3348 117.564 43.6318C114.559 44.9289 111.68 45.8414 111.68 45.8414C111.68 45.8414 112.438 45.9803 113.609 46.028C115.526 46.1058 116.603 46.0166 116.631 46.0093C119.278 45.2877 121.459 44.1212 121.771 44.002C122.172 45.2348 122.883 46.9985 123.994 48.7155C123.454 50.0333 121.929 53.4456 116.33 55.3917C116.33 55.3917 120.901 56.8494 119.623 59.0175C117.699 62.2752 116.015 64.0057 115.386 66.1012C114.54 68.9121 114.955 71.837 115.004 71.837C115.151 71.837 115.278 68.4383 118.343 64.518C120.102 62.267 122.5 60.9129 123.926 57.2414C124.5 55.7619 125.367 51.3657 125.652 50.0105C125.727 50.1349 128.637 52.9499 131.693 52.8929C131.617 53.0059 127.656 57.4332 127.134 60.9585C126.867 62.7543 127.032 64.857 127.532 66.6787C128.031 68.4984 128.827 72.1957 127.237 74.6116C124.855 78.2301 120.254 78.3597 118.206 82.8067C116.882 85.6798 116.718 87.2081 116.768 88.5301C116.796 89.2549 116.843 89.8769 116.845 90.7137C117.035 87.7348 119.803 83.1613 122.804 82.1514C126.691 80.844 131.304 77.4805 132.323 74.907C133.34 72.3346 133.761 67.9385 131.962 66.0649C130.648 64.6942 129.325 62.183 129.787 59.875C130.249 57.567 131.252 56.02 131.693 55.4528C133.366 53.2921 133.176 53.0909 134.65 51.0981C134.65 51.0981 133.41 51.2827 132.491 51.1811C131.454 51.067 130.056 51.4144 127.6 49.8218C125.836 48.6771 124.408 47.1447 123.283 43.3291C122.299 39.9957 122.973 38.7504 122.973 38.7504C122.973 38.7504 126.843 38.8313 129.015 39.1579C136.089 40.2206 139.27 40.4933 139.449 42.6811C139.449 42.6811 139.61 40.7557 138.305 40.0496C136.998 39.3446 135.55 39.2222 135.55 39.2222C137.168 37.5332 138.562 37.8639 139.897 37.8183C142.804 37.7208 144.302 36.5969 145.261 35.5352C147.12 36.5969 150.864 35.0592 151.823 35.4346C147.235 39.7509 145.567 38.3637 143.534 39.9272C142.518 40.7339 141.51 42.5597 141.51 42.5597C144.147 39.9967 147.028 41.2274 148.466 39.9345C150.505 38.0993 151.578 36.9111 154.041 36.4331C155.439 37.1412 155.284 37.2066 155.284 37.2066L156.952 38.2828C156.952 38.2828 154.769 39.2999 154.321 40.6945C154.076 41.4648 152.22 41.0771 150.421 42.37C150.039 42.6448 147.962 45.3841 147.783 46.4531C147.783 46.4531 149.697 44.3348 151.661 43.3685C153.146 42.6375 154.519 42.6272 155.381 42.2404C159.57 43.5147 160.095 40.682 161.613 40.5078C163.187 40.3274 165.028 42.4851 166.911 42.6427C167.983 42.734 168.608 44.4914 168.816 45.8134C168.748 46.3504 168.562 46.7642 168.087 46.787C167.017 46.2592 165.959 45.5811 165.509 45.3323C165.509 45.3323 164.066 43.8475 162.8 43.7791C161.191 43.6899 159.471 45.6049 158.19 45.4411C156.908 45.2763 156.633 44.6397 156.633 44.6397C156.633 44.6397 156.712 46.4323 159.146 46.5423C159.146 46.5423 160.479 48.4635 162.846 48.2987C165.213 48.1338 164.746 47.8995 165.509 47.6382C165.751 47.5563 166.283 47.5107 166.872 47.4775C168.673 47.7108 166.503 49.0867 164.662 50.6896C164.101 50.9156 163.564 51.0702 163.107 51.0152C161.825 50.8597 159.91 49.5553 159.91 49.5553C159.91 49.5553 160.727 52.1878 163.663 52.4533C163.262 54.4678 163.786 57.4633 161.571 59.8719C160.193 61.3722 157.292 61.0342 155.776 61.0808C154.261 61.1275 163.489 63.3712 163.61 62.4339C163.61 62.4339 163.071 64.7471 161.392 66.3096C160.256 67.3672 159.037 68.9681 158.265 70.5969C154.984 75.581 156.579 80.7807 160.571 83.237C158.532 81.0005 157.977 78.8429 158.061 75.5032C158.432 75.9729 163.22 82.1307 163.001 87.5357C163.001 87.5357 163.402 87.8613 164.294 87.8147C165.186 87.767 166.931 88.4762 168.223 87.6861C168.223 87.6861 166.893 89.7836 167.774 91.3638C167.365 91.4706 167.128 92.3384 164.799 91.8148C163.135 91.4395 160.857 92.8506 160.857 92.8506C160.444 92.1611 159.913 91.8293 159.433 91.6603C158.49 91.3327 157.605 90.1175 157.605 90.1175C157.605 90.1175 158.229 89.8769 157.965 87.0712C157.965 87.0712 156.7 86.7685 156.361 86.3745C156.907 84.4211 156.811 83.1655 156.587 81.996C155.558 76.6044 150.721 73.9086 155.947 69.5943C154.824 69.4388 152.936 68.8167 152.129 67.2241C150.923 64.8477 151.062 59.9382 154.952 56.7935C157.449 54.7758 155.322 52.6171 158.652 50.1992C154.241 50.9012 155.335 55.0713 152.779 55.6976C141.144 58.5489 143.235 67.277 144.006 70.065C144.161 69.9365 144.297 58.9875 151.918 57.7899C148.208 62.4588 149.789 65.1494 150.534 66.4195C145.461 69.0894 144.951 74.1481 147.241 76.9921C147.318 76.9278 145.544 68.5813 152.664 69.9862C152.052 71.5913 151.22 73.6691 151.439 75.2793C151.714 77.2793 153.782 78.5609 154.848 80.6314C155.848 82.5714 156.379 84.7259 156.351 86.3652C156.34 86.3527 156.323 86.3403 156.315 86.3268C156.048 85.909 154.595 84.7073 153.364 84.5808C152.902 84.5341 151.175 84.3869 149.592 84.2532C148.457 82.5517 146.683 82.2468 145.509 79.692C143.861 76.1087 144.2 74.708 144.408 72.0568C140.806 78.5111 145.869 83.7565 145.869 83.8519C140.179 83.911 139.178 76.1315 139.578 73.0065C139.902 70.4725 137.38 69.0334 138.03 65.8534C139.71 57.6644 144.99 56.8785 148.549 52.4927C150.188 50.474 149.94 49.49 149.989 47.6786C149.493 49.5937 148.282 51.2879 146.167 52.3704C142.311 54.3435 137.114 57.6385 135.755 61.453C134.373 65.3308 134.672 69.6669 136.867 74.7681C138.477 78.5091 138.448 80.3629 137.326 83.2204C136.789 83.9327 136.168 84.6761 135.455 85.403C132.701 88.219 129.295 88.9407 129.295 88.9407C129.295 88.9407 132.813 84.5227 130.734 79.3551C131.214 85.2724 125.197 92.1466 115.093 98.9005C115.093 101.85 115.15 107.112 115.15 107.112C115.15 107.112 122.822 97.6802 128.459 92.6505C132.401 89.1346 138.046 86.0634 140.192 85.6995C141.406 85.4942 143.728 85.573 145.602 85.6891C145.203 86.1059 145.124 86.6368 145.283 86.9385C146.162 86.0624 147.008 85.7721 147.558 85.7721C148.198 85.8104 149.495 85.7503 149.039 85.7721C148.771 85.7856 147.88 86.8981 148.52 87.065C149.039 86.1485 150.897 85.9629 151.158 85.9816C152.17 86.051 152.941 85.9618 153.309 86.2718C154.803 87.5274 156.742 88.1143 156.742 88.1143C156.742 88.1143 156.534 89.9485 155.946 90.5022C157.191 91.2974 157.398 92.438 158.271 92.7075C159.65 93.1326 160.317 94.7045 161.722 94.7905C161.375 94.0637 161.531 93.7444 162.052 93.4738C163.374 92.7843 164.857 93.2425 165.356 93.2435C166.182 93.2467 167.246 92.9294 167.594 92.6692C167.594 92.6692 168.374 92.1383 168.718 91.4924C167.984 89.6063 169.24 89.4477 169.24 89.4477C169.24 89.4477 168.606 88.1527 169.269 87.1791C169.269 87.1791 174.564 84.166 173.569 78.1689L171.349 80.5309C171.349 80.5309 171.619 79.6454 171.321 78.5526C171.321 78.5526 168.364 81.5501 166.667 80.9996C166.667 80.9996 167.357 79.1249 160.731 73.7997C160.731 73.7997 163.897 66.0545 169.233 62.6215C169.233 62.6215 169.989 63.3836 170.922 64.3946C169.772 65.055 169.03 65.6947 169.051 65.7072C169.033 65.6896 169.84 65.0996 171.048 64.5294C171.672 65.2106 172.36 65.9881 172.95 66.7181C171.446 67.9167 170.424 69.1371 170.424 69.1298C170.42 69.1392 171.549 67.9893 173.118 66.9276C173.683 67.6409 174.068 68.3283 174.31 68.7441C175.716 71.1724 172.898 75.3 170.913 77.0958C170.913 77.0958 172.198 78.2768 175.489 76.3524C175.489 76.3524 178.052 75.7936 179 74.7007C179.948 73.609 180.616 72.3709 180.364 71.0541C180.364 71.0541 181.62 71.2045 182.72 68.8809C183.335 67.5818 183.802 66.1914 183.802 66.1914C183.802 66.1914 185.682 64.8041 185.966 64.5418C186.154 64.3686 186.346 63.6439 186.502 62.8632C186.714 62.3561 186.829 61.93 186.829 61.93C186.829 61.93 188.525 60.6827 189.025 60.0575C189.523 59.4333 190.102 58.3498 190.22 57.6157C190.317 57.0112 188.631 54.6182 187.628 54.2336C186.915 53.9598 186.281 53.5575 185.432 52.9862C184.585 52.4139 181.84 49.0327 180.543 48.1493C179.247 47.2649 175.008 45.6526 173.911 44.6635C172.814 43.6764 171.101 39.8484 169.503 38.8489C168.018 37.921 166.352 37.5352 163.508 37.4316C160.665 37.3268 157.898 36.966 157.898 36.966C157.898 36.966 154.316 34.7637 152.876 34.2225C152.561 34.1043 152.16 34.0639 151.71 34.067L151.709 34.0649ZM142.366 35.3226C143.434 35.2936 144.423 35.4087 144.423 35.4087C144.423 35.4087 143.504 36.0816 140.405 36.5958C138.843 36.855 138.251 36.3667 137.828 36.2216C137.828 36.2216 139.627 35.6596 141.304 35.4087C141.644 35.3579 142.009 35.332 142.366 35.3226ZM137.527 36.4082C135.203 37.5829 134.715 38.9039 134.59 39.0335C133.691 38.7214 132.433 38.6602 132.433 38.6602C133.997 37.4295 136.255 36.5285 137.527 36.4082ZM160.928 38.513C161.217 38.5057 161.516 38.5078 161.828 38.513C162.909 38.5306 163.805 38.5399 164.784 38.6789C165.613 38.7981 166.171 38.8676 167.317 39.2201C167.303 39.9386 167.089 41.1621 165.743 41.1113C163.846 41.0418 163.429 39.6307 161.391 39.6971C159.717 39.753 159.226 40.2279 158.079 41.2907C157.359 41.9584 156.323 42.0859 155.625 42.1004C155.826 41.9719 156 41.8184 156.113 41.5976C157.425 39.0273 158.905 38.5606 160.928 38.513ZM167.6 39.3082C167.732 39.3518 167.833 39.3787 167.983 39.4296C169.655 39.9946 172.006 44.8667 173.165 45.7958C174.322 46.7258 178.19 48.3453 179.437 48.9954C180.688 49.6476 184.361 53.5897 185.966 54.472C187.27 55.1905 189.437 57.0454 188.577 57.9641C187.714 58.8837 186.379 57.4229 185.981 56.8505C185.581 56.2792 184.744 56.1714 184.274 56.2803C183.803 56.3912 183.616 56.7614 183.297 57.1035C182.682 57.764 183.997 58.5561 184.181 59.1046C184.363 59.6531 183.431 60.1694 183.87 60.1041C184.419 60.0212 185.708 59.8449 185.953 61.2612C185.999 61.5329 185.877 62.3976 185.864 62.7024C185.574 63.3743 185.128 64.012 184.711 64.2494C184.221 64.5273 183.061 64.9461 183.061 64.9461C183.061 64.9461 181.738 68.4206 181.47 68.7928C181.336 68.9815 181.067 69.2107 180.678 69.3527C180.032 69.502 179.55 69.4824 179.228 69.4077C178.025 69.1278 178.291 68.433 177.489 68.1997C176.685 67.9675 175.84 68.0142 175.171 67.503C174.979 67.3558 174.588 66.9068 174.123 66.2961C174.196 66.2567 174.268 66.2153 174.341 66.1759C176.531 65.0177 179.018 64.6724 179.237 64.6838C179.358 64.6683 179.738 64.715 179.84 64.715C180.052 64.715 180.227 64.5345 180.227 64.3137C180.227 64.0908 180.052 63.9124 179.84 63.9124C179.787 63.9124 179.35 63.8948 179.144 63.9207C178.896 63.9103 176.314 64.4754 174.162 65.8399C174.076 65.8948 173.993 65.9529 173.909 66.0089C173.46 65.4034 172.961 64.6786 172.507 63.9415C172.822 63.8378 173.153 63.7434 173.489 63.6688C175.878 62.9222 178.376 63.3888 178.616 63.394C179.09 63.4344 179.489 63.3017 179.512 63.0891C179.531 62.8787 179.158 62.6672 178.676 62.6246C178.473 62.6195 175.774 62.3437 173.385 63.2986C173.026 63.4096 172.681 63.5402 172.348 63.6802C171.73 62.6516 171.218 61.6262 171.069 60.9025C170.999 60.5583 170.975 60.1694 170.997 59.7599C171.224 59.7702 171.452 59.7837 171.681 59.8045C174.57 59.9185 177.279 61.084 177.489 61.2374C177.98 61.4603 178.422 61.538 178.533 61.3638C178.65 61.1845 178.315 60.7729 177.786 60.5344C177.546 60.3592 174.622 59.3358 171.694 59.4208C171.47 59.4157 171.246 59.4167 171.025 59.4208C171.138 56.0947 173.94 55.3315 173.958 55.3481C171.084 55.5752 170.052 57.8179 169.926 59.5391C167.834 59.7247 166.025 60.1549 166.041 60.1902C166.029 60.1539 167.781 59.8771 169.846 59.8304C169.834 60.3229 169.886 60.9149 169.955 61.228C169.955 61.228 168.527 60.7169 166.835 60.9491C165.141 61.1804 165 61.3234 164.6 61.1845C164.2 61.0445 163.605 60.551 164.005 59.5753C164.407 58.5997 165.026 57.8915 165.307 56.4327C165.527 54.0075 164.825 53.8903 165.625 52.0157C166.425 50.1401 168.082 49.4921 169.061 49.3065C170.041 49.1219 173.209 50.166 174.546 50.9095C175.884 51.6529 177.577 52.9541 178.29 53.0941C178.29 53.0941 175.43 49.4713 175.365 48.0705C173.87 48.3256 171.292 47.8881 170.712 47.747C170.165 47.6537 169.731 46.6625 169.411 45.6734C168.901 42.3472 168.046 40.2486 167.6 39.3082ZM124.501 40.2414C124.501 40.2414 132.134 41.61 134.104 44.2146L128.781 44.4354C128.781 44.4354 129.353 45.3872 130.287 46.2623C131.224 47.1384 132.521 47.6195 132.521 47.6195L129.815 47.6341C129.815 47.6341 131.093 50.8742 133.799 49.376C133.799 49.376 131.804 49.4983 131.281 48.3028C132.638 48.6761 134.352 48.8762 135.753 48.2209C132.853 47.1696 131.824 45.971 131.824 45.971L137.75 46.8834L137.025 45.5604L138.844 46.1068C138.844 46.1068 136.311 42.6095 133.919 41.6681C130.58 40.3544 124.501 40.2414 124.501 40.2414ZM148.281 42.8646C148.281 42.8646 146.527 43.0585 145.357 43.6349C144.189 44.2125 142.12 46.0799 141.326 47.0026C139.937 48.6201 140.009 50.5133 137.471 52.8711C137.471 52.8711 141.232 51.2153 141.908 49.3708C143.466 45.1208 148.281 42.8646 148.281 42.8646ZM162.794 44.6117C161.912 45.7626 163.059 47.5511 163.059 47.5511C161.68 47.4899 160.287 45.8963 160.287 45.8963C160.287 45.8963 160.652 45.4442 161.494 45.0523C162.334 44.6604 162.794 44.6117 162.794 44.6117ZM164.261 45.6755C164.432 45.7594 164.538 45.8704 164.657 46.1503C164.667 46.6667 164.311 46.9383 164.311 46.9383L164.051 47.0026C163.44 46.2292 164.261 45.6755 164.261 45.6755ZM177.818 51.4714C177.837 51.4621 178.574 53.4373 178.914 55.5669C179.301 57.6842 179.487 59.8801 179.51 60.0834C179.56 60.495 179.731 60.8112 179.898 60.7936C180.066 60.777 180.171 60.4214 180.12 60.0036C180.096 59.7962 179.753 57.595 179.212 55.4954C178.718 53.3771 177.835 51.4579 177.818 51.4714ZM172.276 52.6067C172.287 52.5891 173.869 53.9805 175.173 55.7017C176.512 57.3855 177.711 59.2363 177.828 59.4043C178.065 59.7433 178.365 59.9403 178.505 59.847C178.646 59.7526 178.568 59.3908 178.328 59.0465C178.208 58.8744 176.87 57.0921 175.404 55.4954C173.968 53.8603 172.284 52.586 172.276 52.6067ZM180.683 52.9665C180.68 52.9613 181.302 54.8805 181.435 56.9065C181.551 58.9398 181.096 60.9605 181.031 61.1306C180.946 61.5049 180.997 61.8543 181.16 61.8989C181.324 61.9425 181.539 61.6718 181.629 61.2778C181.701 61.086 182.018 58.9377 181.742 56.8713C181.449 54.8121 180.679 52.9644 180.683 52.9665ZM176.766 69.4533C177.01 69.4491 177.268 69.5393 177.515 69.6845C178.709 70.3844 178.374 71.4792 177.691 72.8499C176.825 74.5908 174.574 76.3472 172.23 76.7174C172.23 76.7174 173.766 75.5665 174.307 74.4591C174.849 73.3507 175.38 71.8712 175.783 70.4715C175.995 69.7343 176.361 69.4605 176.766 69.4533ZM179.131 71.0593C179.131 71.0593 179.686 71.1153 179.759 71.4668C179.85 71.8981 179.434 72.6924 179.071 73.3394C178.235 74.8324 176.386 75.5084 176.386 75.5084C177.868 74.512 179.09 71.9438 179.131 71.0593ZM170.991 79.4039C170.991 79.4039 170.725 80.9217 170.339 81.3686C169.956 81.8155 167.495 82.6647 167.292 82.5703C167.088 82.476 166.662 81.7751 167.102 81.7077C168.797 81.4474 170.178 80.7206 170.991 79.4039ZM172.965 79.8455C172.965 79.8455 172.514 82.2168 171.34 83.9358C170.167 85.6529 168.135 86.8525 166.802 86.8058C166.012 86.7581 165.763 85.628 165.763 85.628C165.538 84.6865 165.946 83.7233 166.758 83.4641C167.57 83.2049 168.791 82.9218 169.776 82.4324C171.012 81.8165 172.424 80.3867 172.965 79.8455Z" fill="#6F263D"/>
<path d="M163.176 44.6926C162.456 46.1224 163.479 47.3427 163.479 47.3427C162.805 45.7056 163.596 44.9901 163.596 44.9901L163.176 44.6926ZM159.174 74.3202C159.165 74.3928 159.482 75.018 162.174 78.8357C164.173 81.6683 164.174 85.5845 164.174 85.5845C164.892 82.0841 165.452 79.6693 164.013 77.7512C163.669 77.295 162.516 76.7983 162.094 76.2508C160.751 74.5048 159.218 74.3337 159.218 74.3337C159.218 74.3337 159.177 74.2954 159.174 74.3202Z" fill="white"/>
</g>
<defs>
<clipPath id="clip0_15016_302487">
<rect width="200" height="200" fill="white" transform="translate(0.542969 0.277344)"/>
</clipPath>
</defs>
</svg>
