<svg width="200" height="200" viewBox="0 0 200 200" fill="none" xmlns="http://www.w3.org/2000/svg">
<path d="M165.92 75.9286L153.258 102.368L140.595 75.9286H121.461V87.8957H125.844V124.423H121.252V136.39H142.821V124.423H138.159V98.5409L153.362 129.85L168.564 98.5409V124.423H163.972V136.39H185.541V124.423H180.949V87.8957H185.541V75.859L165.92 75.9286Z" fill="#500000"/>
<path d="M33.3779 75.6492H59.0515V87.5467H55.9206L71.9231 124.422H78.4633V136.32H55.1552V124.492H58.634L56.0597 118.369H36.8567L34.2824 124.492H37.7612V136.389H14.4531V124.492H20.9933L36.9958 87.6163H33.517V75.7187L33.3779 75.6492ZM46.4582 96.1742L41.9357 106.471H50.9806L46.4582 96.1742Z" fill="#500000"/>
<path d="M33.3769 29.7285H166.268V67.7867H140.107V53.3844H112.624V144.321H127.235V170.273H72.1309V144.321H86.7419V53.3844H59.2593V67.7867H33.0986V29.7285H33.3769Z" fill="#500000"/>
<path d="M38.3179 35.0845H158.267L151.031 40.6506H44.0231L38.3179 35.0845Z" fill="white"/>
<path d="M101.771 42.6023L107.268 48.0292V150.028L101.771 155.455V42.6023Z" fill="white"/>
<path d="M161.051 37.9388V62.9167L155.554 57.6289V43.5745L161.051 37.9388Z" fill="white"/>
<path d="M121.914 149.538V165.053L116.348 159.835V155.313L121.914 149.538Z" fill="white"/>
</svg>
