<svg width="201" height="201" viewBox="0 0 201 201" fill="none" xmlns="http://www.w3.org/2000/svg">
<g clip-path="url(#clip0_15016_302068)">
<path d="M50.1032 0.619629C48.193 23.0419 54.4205 34.2782 54.6387 34.6643C54.6387 34.6643 49.509 31.6361 45.3697 25.6806C47.7364 40.7407 59.0399 47.0051 59.0399 47.0051C64.4012 63.7068 72.0018 71.5121 72.0018 71.5121C23.3872 88.1064 18.0729 147.027 18.0729 147.027C18.0729 147.027 33.5626 125.995 59.8389 121.795C19.1706 135.529 15.3301 179.128 15.3301 179.128C15.3301 179.128 34.5362 154.947 76.4198 159.096C76.1478 158.848 85.9103 144.506 97.5059 140.259C97.5059 140.259 86.6288 150.391 81.0895 160.218C81.0895 160.218 90.8252 161.94 94.7463 163.105C98.6742 164.27 108.863 167.442 108.326 173.3C107.473 182.539 88.9888 185.742 88.9284 185.507C101.467 194.111 114.587 190.277 114.731 190.083C112.788 194.46 99.7417 197.455 99.7417 197.455C99.7417 197.455 138.08 212.055 140.95 178.537C151.16 171.121 149.958 160.009 149.958 160.009C149.958 160.009 145.13 166.764 135.737 165.485C132.715 165.069 118.975 155.581 123.248 146.96C124.662 144.093 135.196 137.433 149.659 139.434C156.192 140.595 159.086 150.512 159.025 150.895C158.065 156.884 151.572 167.006 151.572 167.006C151.572 167.006 159.17 167.905 168.378 160.449C171.893 161.852 172.568 162.853 174.941 161.268C179.416 158.274 180.551 151.227 180.934 150.428C183.123 149.246 187.03 145.537 186.258 135.442C185.637 127.294 181.236 117.978 174.841 111.049C170.241 89.4056 163.061 79.3242 126.434 63.0219C81.7509 43.6849 68.2183 38.958 50.1032 0.6297V0.619629Z" fill="#8C734A"/>
<path d="M58.5538 23.538C58.5538 23.538 59.0675 52.1374 77.4377 74.2676C77.0147 74.3683 76.6051 74.4657 76.2123 74.5765C76.115 74.5026 46.6998 78.9273 30.7199 130.268C30.7199 130.268 44.7124 112.203 95.6736 117.078C77.3672 115.332 39.0623 127.539 27.252 164.709C27.252 164.709 39.9117 151.445 72.7713 154.087C76.8502 148.02 89.436 135.941 111.241 132.024C111.241 132.024 98.8662 139.225 90.2921 156.803C89.9396 156.769 94.1998 157.558 99.8163 159.589C99.8163 159.589 126.949 168.969 103.647 186.738C103.647 186.738 117.928 188.487 121.329 180.833C125.653 187.332 117.099 193.731 115.017 195.06C142.603 196.957 137.708 176.7 137.708 176.7C143.278 174.193 146.37 165.746 146.37 165.746C139.877 170.668 134.408 168.828 132.129 168.025C130.128 166.83 112.258 151.894 117.31 142.867C121.873 136.348 137.242 131.789 147.065 133.42C156.743 134.928 161.786 148.866 161.863 149.098C163.172 152.824 157.072 163.309 156.421 164.054C156.421 164.054 163.316 163.574 167.771 156.782C172.971 161.164 176.248 157.608 178.165 148.85C180.824 135.716 174.808 134.914 174.808 134.914C174.808 134.914 174.472 138.221 173.069 139.117C171.672 140.02 174.224 133.252 171.686 129.073C171.686 129.073 181.166 129.929 181.364 141.333C181.384 142.35 180.985 144.217 180.512 145.949C183.463 144.116 183.251 137.419 183.251 137.419C181.891 120.918 171.575 112.938 171.575 112.938C167.687 94.1418 163.414 83.9361 125.304 66.6402C96.9459 53.7723 67.9605 44.1004 58.5572 23.5347L58.5538 23.538Z" fill="#501214"/>
<path d="M74.6488 52.9599C74.6488 53.0505 73.655 59.9897 82.9946 73.0691C94.0966 71.263 108.371 71.8102 123.418 78.4036C107.102 64.3473 92.079 64.3809 74.6488 52.9565V52.9599ZM146.193 98.8754C146.193 105.308 147.733 110.894 151.802 113.798C154.471 115.701 158.701 115.225 160.262 111.837C161.155 109.904 159.739 107.288 159.739 107.157C158.177 111.579 153.575 113.204 153.575 113.204C153.575 113.204 156.291 108.252 156.485 103.904C151.906 100.04 146.193 98.8754 146.193 98.8754Z" fill="#8C734A"/>
</g>
<defs>
<clipPath id="clip0_15016_302068">
<rect width="200" height="200" fill="white" transform="translate(0.84375 0.621094)"/>
</clipPath>
</defs>
</svg>
