<svg width="201" height="200" viewBox="0 0 201 200" fill="none" xmlns="http://www.w3.org/2000/svg">
<path fill-rule="evenodd" clip-rule="evenodd" d="M124.216 63.548L100.613 64.9638L93.4263 118.577L117.918 117.108L119.209 107.481L107.001 108.213L108.797 94.8106L119.304 94.1806L120.533 84.9972L110.027 85.6288L111.248 76.7294L106.563 74.1446L111.636 73.8393L122.927 73.1752L124.216 63.548ZM40.1864 64.3014L4.5459 74.4654L4.90636 86.1069L15.2946 83.1454L16.9425 136.337L31.8085 132.098L30.2515 81.8499L24.9859 80.3804L30.1605 78.9045L40.5471 75.943L40.1864 64.3014ZM130.843 64.8696L119.606 117.452L135.294 117.509C146.551 117.551 150.621 115.169 154.315 97.8839L157.124 84.7388C160.819 67.4537 157.789 64.9701 146.531 64.9286L130.843 64.8696ZM84.1193 66.0306L71.6413 68.1966L68.8794 121.886L92.203 118.796L92.7209 109.001L81.8941 110.296L76.7212 111.04L82.0484 107.356L84.1193 66.0306ZM177.272 67.31C170.217 67.2724 165.688 69.6213 163.512 76.6087L153.481 108.822C150.803 117.421 155.638 120.367 165.769 121.621C175.899 122.874 182.142 121.301 184.819 112.701L194.85 80.4895C197.528 71.8896 192.693 68.9446 182.562 67.6904C180.663 67.4552 178.9 67.3187 177.272 67.31ZM59.3399 70.8968C57.0679 70.8854 54.3108 71.3439 51.0998 72.1389C40.8248 74.6837 35.2072 78.3663 35.2072 87.088V119.761C35.2072 128.484 40.8246 129.384 51.0998 126.84C61.3749 124.295 66.9935 120.613 66.9935 111.891V79.218C66.9935 73.2212 64.3383 70.9219 59.3399 70.8968ZM135.967 73.9022L140.983 73.9201L144.167 73.9314C146.781 73.9418 147.113 75.1063 146.274 79.0281L141.153 102.995C140.315 106.917 139.486 108.076 136.872 108.067L133.676 108.054L140.34 76.7552L135.967 73.9022ZM171.696 75.7369L179.743 76.7338C182.003 77.0133 182.72 77.6249 182.107 79.5931L172.484 110.495C171.871 112.462 170.839 112.864 168.579 112.585C166.32 112.305 165.603 111.687 166.216 109.719L175.733 79.1599L171.696 75.7369ZM52.5688 81.0593C53.7851 80.9956 54.2834 81.534 54.2834 83.0304V114.373C54.2834 116.369 53.3956 117.107 51.1043 117.674C48.8129 118.241 47.9268 117.942 47.9268 115.946V84.9519L42.9438 83.3299L51.1043 81.31C51.6771 81.1682 52.1634 81.0805 52.5688 81.0593Z" fill="#FFCE00"/>
<path fill-rule="evenodd" clip-rule="evenodd" d="M16.4774 136.973L32.304 132.459L30.7243 81.4785L26.7694 80.3749L30.2931 79.3698L39.0498 76.873C39.0274 76.8921 39.0051 76.9113 38.9829 76.9305C36.1747 79.363 34.7225 82.6047 34.7225 87.0875V119.76C34.7225 121.987 35.0801 123.767 35.819 125.135C36.5653 126.515 37.6835 127.442 39.1315 127.979C40.5652 128.511 42.3073 128.656 44.315 128.516C46.3258 128.377 48.6337 127.949 51.2159 127.31C56.371 126.033 60.4378 124.454 63.2166 122.048C66.0251 119.615 67.4776 116.374 67.4776 111.89V79.2175C67.4776 76.1592 66.8019 73.9365 65.3884 72.4802C63.9718 71.0208 61.9057 70.4248 59.342 70.4119C57.0106 70.4002 54.2081 70.8698 50.9831 71.6682C46.9695 72.6623 43.6158 73.8394 41.0161 75.4478L40.651 63.6646L4.0498 74.1026L4.44118 86.7426L14.8294 83.7811L16.4774 136.973ZM40.051 75.5802L30.0274 78.4383L23.2019 80.385L29.7781 82.2202L31.3124 131.735L17.4071 135.7L15.7591 82.5087L5.37095 85.4703L5.04141 74.8272L39.7213 64.9371L40.051 75.5802ZM36.6712 124.674C36.0359 123.499 35.6912 121.895 35.6912 119.76V87.0875C35.6912 82.8487 37.0479 79.8882 39.6172 77.6627C42.2162 75.4115 46.0961 73.8766 51.216 72.6085C54.4129 71.817 57.1246 71.3695 59.3372 71.3806C61.7719 71.3929 63.5326 71.9591 64.6933 73.1549C65.8569 74.3538 66.5089 76.279 66.5089 79.2175V111.89C66.5089 116.13 65.152 119.09 62.5824 121.315C59.9831 123.566 56.103 125.101 50.9831 126.369C48.4277 127.002 46.1802 127.416 44.2478 127.55C42.3124 127.685 40.7235 127.536 39.4684 127.071C38.2277 126.611 37.2993 125.836 36.6712 124.674ZM177.903 120.408C174.862 121.67 170.874 121.764 165.828 121.14C160.764 120.513 157.166 119.473 155.149 117.619C154.158 116.708 153.543 115.593 153.325 114.198C153.105 112.791 153.287 111.073 153.943 108.966L163.974 76.7523C165.037 73.3384 166.656 71.1127 168.822 69.7331C170.999 68.3469 173.79 67.7754 177.269 67.7939C178.873 67.8025 180.616 67.937 182.503 68.1706C187.567 68.7976 191.165 69.8375 193.182 71.6914C194.172 72.6023 194.788 73.7171 195.006 75.1122C195.226 76.5195 195.044 78.2374 194.388 80.345L184.357 112.556C183.051 116.749 180.905 119.163 177.903 120.408ZM178.274 121.303C181.595 119.925 183.909 117.251 185.282 112.844L195.313 80.633C195.995 78.4406 196.213 76.5655 195.963 74.9627C195.711 73.3477 194.987 72.0353 193.837 70.9783C191.573 68.8962 187.688 67.8365 182.622 67.2092C180.71 66.9725 178.927 66.834 177.275 66.8252C173.699 66.8062 170.698 67.3903 168.302 68.916C165.896 70.4482 164.162 72.8907 163.049 76.4642L153.018 108.678C152.336 110.87 152.117 112.745 152.368 114.348C152.62 115.963 153.344 117.275 154.494 118.332C156.758 120.414 160.643 121.474 165.709 122.101C170.793 122.73 174.992 122.665 178.274 121.303ZM68.3655 122.442L92.6652 119.223L93.2347 108.451L81.8249 109.816L78.6892 110.267L82.52 107.618L84.6331 65.4492L71.1771 67.785L68.3655 122.442ZM69.3928 121.329L72.1048 68.6071L83.6049 66.6109L81.5763 107.093L76.4454 110.641L76.7898 111.519L81.9571 110.776L92.2066 109.549L91.7403 118.368L69.3928 121.329ZM92.8678 119.096L118.345 117.567L119.767 106.962L107.559 107.694L109.223 95.2697L119.731 94.6397L121.091 84.4779L110.586 85.1094L111.772 76.4655L108.26 74.5272L111.664 74.3223L123.354 73.6348L124.773 63.0288L100.185 64.5037L92.8678 119.096ZM93.9842 118.058L101.039 65.4229L123.657 64.0662L122.5 72.7147L111.607 73.3553L104.866 73.761L110.722 76.9924L109.466 86.1472L119.975 85.5155L118.877 93.7205L108.369 94.3505L106.442 108.732L118.65 107.999L117.491 116.648L93.9842 118.058ZM49.6653 118.407C50.1157 118.384 50.6352 118.289 51.2204 118.144C52.3794 117.857 53.2865 117.506 53.8941 116.903C54.5275 116.274 54.7675 115.443 54.7675 114.373V83.0299C54.7675 82.2538 54.6438 81.591 54.2452 81.139C53.8253 80.6628 53.213 80.54 52.5432 80.5751C52.0933 80.5987 51.5731 80.6944 50.9876 80.8394C50.9876 80.8394 50.9876 80.8394 50.9876 80.8394L41.1838 83.266L47.4421 85.3031V115.946C47.4421 116.975 47.6653 117.818 48.4398 118.204C48.7977 118.383 49.2173 118.43 49.6653 118.407ZM48.8722 117.337C48.6308 117.217 48.4109 116.912 48.4109 115.946V84.5997L44.7032 83.3928L51.2204 81.7797C51.7805 81.641 52.2328 81.5614 52.5939 81.5425C53.1404 81.5139 53.3853 81.6285 53.5186 81.7797C53.6733 81.955 53.7988 82.3096 53.7988 83.0299V114.373C53.7988 115.298 53.5949 115.835 53.2115 116.215C52.8024 116.621 52.1199 116.923 50.9876 117.203C50.4271 117.342 49.9766 117.422 49.6164 117.44C49.2538 117.458 49.0222 117.412 48.8722 117.337ZM147.306 113.843C144.569 116.452 140.915 117.045 135.295 117.024L120.204 116.97L131.235 65.355L146.529 65.4124C149.336 65.4228 151.581 65.5865 153.324 66.0765C155.051 66.5621 156.25 67.358 157.021 68.6194C157.803 69.8988 158.185 71.7229 158.126 74.3458C158.068 76.9646 157.572 80.326 156.65 84.6371L153.842 97.7822C151.994 106.428 150.074 111.206 147.306 113.843ZM147.975 114.544C150.98 111.68 152.942 106.624 154.789 97.9847L157.598 84.8395C158.523 80.5081 159.034 77.077 159.095 74.3675C159.155 71.662 158.769 69.6216 157.848 68.1143C156.916 66.589 155.478 65.6758 153.586 65.144C151.71 64.6165 149.355 64.4541 146.533 64.4437L130.452 64.3833L119.007 117.934L135.292 117.993C140.929 118.014 144.939 117.437 147.975 114.544ZM171.367 112.814C172.151 112.419 172.621 111.682 172.946 110.639L182.569 79.7366C182.885 78.7228 182.931 77.8463 182.364 77.2082C182.096 76.9057 181.728 76.7052 181.307 76.5626C180.887 76.4198 180.381 76.3242 179.802 76.2526L170.145 75.0562L175.175 79.3215L165.754 109.574C165.438 110.589 165.392 111.466 165.957 112.105C166.225 112.409 166.593 112.61 167.014 112.754C167.434 112.897 167.94 112.993 168.519 113.065C169.663 113.206 170.612 113.195 171.367 112.814ZM170.93 111.95C170.451 112.192 169.754 112.242 168.638 112.104C168.087 112.035 167.656 111.949 167.326 111.837C166.996 111.724 166.8 111.596 166.683 111.464C166.479 111.232 166.381 110.816 166.679 109.863L176.29 78.9973L173.247 76.4166L179.683 77.214C180.234 77.2822 180.666 77.3679 180.996 77.4799C181.327 77.5921 181.523 77.7199 181.64 77.8513C181.844 78.0809 181.942 78.4942 181.644 79.4486L172.021 110.351C171.733 111.275 171.38 111.722 170.93 111.95ZM140.053 107.312C140.775 106.431 141.209 105.049 141.627 103.096L146.748 79.1288C146.959 78.1412 147.101 77.3069 147.149 76.6118C147.197 75.9223 147.157 75.3254 146.967 74.8367C146.767 74.3238 146.413 73.9604 145.914 73.7378C145.438 73.5254 144.848 73.4492 144.168 73.4465L134.329 73.4115L139.797 76.9788L133.078 108.536L136.87 108.551C138.254 108.556 139.286 108.247 140.053 107.312ZM136.873 107.582C138.103 107.587 138.793 107.32 139.304 106.698C139.859 106.02 140.259 104.861 140.679 102.893L145.8 78.9264C146.009 77.953 146.139 77.1712 146.183 76.5446C146.227 75.9125 146.178 75.4822 146.064 75.1883C145.959 74.9185 145.791 74.7437 145.52 74.6225C145.225 74.491 144.793 74.4178 144.165 74.4152C144.165 74.4152 144.165 74.4152 144.165 74.4152L137.605 74.3919L140.883 76.5306L134.274 107.572L136.873 107.582Z" fill="#002569"/>
</svg>
