<svg width="201" height="201" viewBox="0 0 201 201" fill="none" xmlns="http://www.w3.org/2000/svg">
<path d="M167.946 48.2493L167.706 47.2343L166.773 46.7643C166.318 46.5351 159.186 43.0571 141.822 40.5232C143.404 37.7116 144.456 34.2632 145.007 30.0827C145.251 28.2249 144.86 26.6965 143.844 25.5379C142.699 24.2303 140.859 23.566 138.374 23.5639C130.942 23.5564 126.531 23.1414 121.2 22.3767C117.104 19.9474 112.592 18.7148 107.777 18.7148C104.397 18.7148 101.773 19.3486 100.571 19.7024C98.0773 19.0898 95.4664 18.7793 92.7963 18.7793C85.1463 18.7793 79.0953 21.2951 77.3378 22.1084C77.1508 22.1116 76.9607 22.1116 76.7727 22.1116C71.3048 22.1116 65.5971 21.7704 61.9025 21.2254C61.6321 21.1821 61.3744 21.1388 61.1283 21.0987C59.9865 20.9086 59.0011 20.7438 57.9058 20.7438C57.3915 20.7438 56.8898 20.7797 56.3701 20.8558C55.5875 20.9698 54.1373 21.4663 53.2142 23.4994C51.6869 26.8655 52.1179 33.9199 55.1724 38.6918C55.5558 39.3413 56.0828 40.0743 56.669 40.8148C40.7046 43.3158 34.0854 46.5436 33.6492 46.7643L32.7155 47.2343L32.4757 48.2493C26.8853 71.8955 28.0798 95.4244 35.9263 116.295C43.3218 135.958 56.3775 152.911 73.6865 165.323C83.8091 172.953 92.265 177.551 99.2043 181.042L100.198 181.543L101.198 181.053C110.576 176.451 118.214 171.746 126.736 165.323C144.045 152.911 157.1 135.958 164.495 116.295C172.343 95.4244 173.536 71.8955 167.946 48.2493Z" fill="white"/>
<path d="M126.729 98.0258C126.733 98.0248 126.737 98.0238 126.729 98.0258V98.0258Z" fill="black"/>
<path d="M140.603 113.992C143.246 116.791 145.809 120.407 147.285 125.17C147.379 125.471 147.611 126.384 147.789 127.316C149.134 123.698 150.274 120.015 151.221 116.284C149.286 113.607 146.127 110.927 144.099 109.087C139.393 104.816 135.432 100.848 135.18 94.3655C135.15 93.6061 135.036 92.2542 135.001 91.8275C135.983 90.7914 136.633 90.0035 137.29 89.0275C138.231 90.163 139.195 91.0459 139.79 91.6416C143.144 94.9993 144.183 98.3707 146.498 102.435C147.708 104.558 150.106 107.71 152.565 110.344C152.923 108.53 153.24 106.707 153.515 104.878C150.346 101.897 146.363 96.7589 144.861 93.8533C147.834 96.5097 151.251 99.3888 154.059 100.818C154.675 95.5791 154.966 90.296 154.966 85.014C154.966 73.7443 154.028 60.1859 150.858 44.4116C147.265 43.668 142.952 42.9266 137.849 42.2749C139.896 39.9819 141.925 36.3211 142.785 29.7896C143.159 26.9389 141.43 25.8077 138.372 25.8045C130.881 25.7971 126.381 25.3947 120.429 24.5297C110.457 18.3784 100.638 22.0328 100.638 22.0328C88.6152 18.7956 77.8557 24.3459 77.8557 24.3459C72.2441 24.3934 65.872 24.0755 61.549 23.4376C59.576 23.1218 58.3434 22.8334 56.6937 23.0721C53.9243 23.4788 53.7226 32.3118 57.0834 37.5199C57.8069 38.7662 59.4197 40.7265 61.1022 42.4523C56.587 43.0586 52.7213 43.7356 49.4524 44.4116C46.2817 60.1859 45.3438 73.7443 45.3438 85.014C45.3438 104.562 49.3182 124.124 59.0289 141.371C58.2769 133.806 58.4913 126.325 59.255 120.585C60.0281 114.767 61.286 109.909 62.4468 106.152C62.4468 106.152 61.1244 108.228 60.0291 110.203C61.6166 104.359 64.6204 98.8607 66.8089 95.0067C68.0827 97.0092 69.8264 99.1755 71.9726 100.944C68.4893 107.73 64.9743 119.002 65.1274 126.553C65.7189 124.181 66.5068 122.446 66.5068 122.446C65.5288 133.256 68.8854 148.282 74.1231 157.373C76.7076 161.963 79.6322 165.968 83.5718 169.546C84.5731 170.202 85.5606 170.831 86.5355 171.436C82.2188 158.992 83.9436 152.2 90.9282 135.303C85.831 140.399 81.8787 142.544 79.4695 150.755C79.5931 148.736 79.9638 146.841 80.3758 145.852C77.58 142.516 75.6545 138.52 74.6469 132.757C74.0174 133.798 73.4323 134.9 72.9338 136.365C73.0056 133.961 73.3689 132.799 74.3227 130.582C74.2942 130.35 74.2614 130.126 74.235 129.888C73.634 130.892 73.0626 131.846 72.844 132.67C70.4749 125.708 69.3807 114.78 71.6516 106.752C72.2356 118.669 75.6641 126.01 81.4584 132.205C81.9548 131.43 82.5114 130.743 83.2201 130.051C82.6741 130.952 82.2843 131.776 81.9664 132.574C81.5048 133.568 81.2598 134.393 80.7634 136.144C81.8777 134.316 82.4734 133.337 83.1493 132.349C88.8718 124.367 96.9771 121.733 102.4 116.311C102.4 116.311 99.3039 117.531 96.7542 119.463C100.627 115.759 104.853 114.623 108.321 109.397C108.617 108.953 108.976 108.423 109.354 107.813C109.404 108.51 109.283 109.451 109.039 110.214C110.501 108.996 111.596 107.602 112.019 106.716C111.957 107.589 111.446 109.917 111.097 110.988C112.555 109.717 113.396 108.13 114.024 106.904C114.411 107.197 114.774 107.924 114.94 108.551C116.228 107.991 117.419 107.064 118.245 105.712C118.586 105.974 119.048 106.632 119.171 106.931C120.195 106.203 121.089 104.98 121.378 103.676C121.545 103.931 121.731 104.236 121.817 104.518C122.88 104.246 124.16 103.041 124.643 102.478C125.937 100.972 126.55 98.7773 126.728 98.0242C128.335 97.3028 129.918 96.3206 131.384 95.2063C131.122 95.8337 130.928 96.5772 130.846 97.4581C130.831 97.6155 130.821 97.7665 130.809 97.9175C130.287 104.78 132.737 106.94 137.323 110.88C138.38 111.789 139.499 112.821 140.603 113.992Z" fill="black"/>
<path d="M112.145 147.7C125.24 133.9 128.13 122.175 123.102 108.925C123.216 119.749 99.4834 135.76 95.8226 141.688C97.09 140.74 101.416 138.043 102.316 137.443C99.0281 140.074 97.2442 141.756 94.9649 145.138C97.203 142.918 99.2742 141.788 101.051 140.571C92.1987 148.32 89.5899 161.097 92.2315 174.805C94.8804 176.297 97.4597 177.651 100.01 178.939C99.0081 166.051 105.096 155.13 112.145 147.7Z" fill="black"/>
<path d="M42.7934 91.6623C41.7129 73.6319 43.631 58.7005 46.0718 45.1653C44.853 45.4515 43.7355 45.7367 42.7269 46.0102C34.2456 84.1464 39.8065 118.649 57.614 144.329C48.7715 129.262 43.7112 111.506 42.7934 91.6623Z" fill="#FFD200"/>
<path d="M57.6122 144.325C57.6016 144.307 57.6227 144.343 57.6122 144.325C39.8057 118.646 34.2448 84.1432 42.7261 46.0071C37.0976 47.5375 34.6557 48.7648 34.6557 48.7648C24.2553 92.7565 38.3376 131.26 65.5727 155.901C62.6344 152.229 60.0023 148.402 57.6122 144.325Z" fill="black"/>
<path d="M157.629 91.6623C158.71 73.6319 156.792 58.7005 154.351 45.1653C155.57 45.4515 156.687 45.7367 157.696 46.0102C166.177 84.1464 160.616 118.649 142.809 144.329C151.651 129.262 156.711 111.506 157.629 91.6623Z" fill="#FFD200"/>
<path d="M142.808 144.325C142.798 144.343 142.819 144.307 142.808 144.325C160.615 118.646 166.176 84.1432 157.694 46.0071C163.323 47.5375 165.765 48.7648 165.765 48.7648C176.165 92.7565 162.083 131.26 134.848 155.901C137.786 152.229 140.418 148.402 142.808 144.325Z" fill="black"/>
<path d="M58.9661 82.5018C59.4192 85.4972 60.2726 88.3067 61.5685 90.6884C62.5973 88.4778 64.4488 86.7425 65.7933 85.8278C65.8577 86.0591 65.9032 86.2133 65.975 86.4372C64.7942 87.6423 63.8362 89.0482 62.9574 90.6314C64.1055 89.271 65.2145 88.4113 66.3584 87.5304C68.1043 92.0129 71.3151 94.8573 74.8196 96.7795C75.6508 92.5093 77.1549 88.8179 79.0106 87.0087C79.0961 87.1554 79.2113 87.3709 79.2968 87.5093C77.9502 89.6502 77.5478 90.7687 76.9933 92.9783C78.1213 91.0613 79.0106 89.8561 80.0721 88.6827C81.0575 90.0621 82.0091 91.0148 82.8879 91.8925C86.0406 88.7397 92.6609 88.6024 96.252 88.2518C92.0557 84.8857 76.4493 87.8472 70.1628 78.8917C70.542 78.164 71.0352 77.5102 71.8042 76.6906C70.222 77.6412 67.4938 80.0863 65.8387 82.0614C66.2116 81.0253 66.6098 80.1993 67.0671 79.4864C64.4942 74.555 64.9124 68.2917 65.4321 63.6022C66.1619 63.0636 66.9382 62.5714 67.799 62.1605C65.4891 62.6992 63.7897 63.4977 61.6319 65.008C60.8207 58.8546 63.3894 52.171 65.4839 47.6103C64.528 47.7856 63.8309 48.1215 62.9849 48.6612C64.0432 43.5799 65.919 39.2674 69.6157 35.2222C65.1057 39.1428 61.6699 44.2041 59.8258 50.5191C60.8419 50.011 61.2633 49.8505 62.0533 49.6361C61.9783 49.7702 61.8431 49.9794 61.765 50.1135C60.299 50.9173 59.4223 51.5637 58.1031 53.0423C59.4107 52.1974 60.1712 51.7982 61.0267 51.4559C57.7377 57.3411 54.7508 63.5959 56.1766 72.7827C57.0733 71.6695 58.4876 70.5837 59.2132 70.2383C59.1805 70.4084 59.1572 70.5826 59.1287 70.7537C57.5814 72.2039 56.503 73.9276 55.8027 75.514C56.692 74.3321 57.6152 73.3752 58.8594 72.6C58.4622 75.9133 58.4834 79.3121 58.9661 82.5018Z" fill="white"/>
<path d="M125.948 74.5488C125.777 75.493 125.75 76.5408 125.79 77.2981C127.637 77.7871 129.78 74.947 130.711 70.7042C131.547 71.4171 132.335 72.1586 133.221 73.1905C132.542 71.509 131.96 70.606 130.937 69.4526C130.967 69.2488 131.083 68.9657 131.108 68.7577C131.108 68.7577 131.885 69.3079 132.457 70.1254C132.908 68.8178 133.26 65.8689 133.478 61.8047C132.775 63.1672 131.539 64.1991 130.301 64.817C129.249 70.3726 127.393 73.5591 125.948 74.5488Z" fill="#FFD200"/>
<path d="M133.809 49.7053C133.809 48.4337 133.722 47.5064 133.402 46.4142C133.702 46.505 134.158 46.7226 134.397 46.8441C134.192 44.193 134.388 42.8031 133.343 40.396C133.309 41.7669 133.253 43.5361 132.396 44.3018C131.691 44.9345 130.967 45.4235 130.229 45.7552C131.487 46.6233 132.906 47.9901 133.809 49.7053Z" fill="#FFD200"/>
<path d="M70.1753 72.7884C70.978 72.0903 71.8102 71.6731 72.7503 71.3647C72.7978 71.4608 72.8495 71.5538 72.9002 71.6488C71.3381 72.6839 70.3823 73.5563 69.0684 75.317C70.753 74.0781 72.1387 73.362 73.5582 72.7198C76.4639 76.9087 82.6944 80.2505 89.6273 81.1356C88.6862 79.1594 85.1279 76.6784 83.8498 74.7202C81.429 71.0172 82.8517 66.6414 84.9462 63.9988C79.9197 66.2274 78.6048 67.7831 77.9531 71.2094C71.8958 65.2789 71.148 50.3569 72.2095 42.1165C68.8434 48.2297 66.1543 52.6446 66.1543 61.2664C67.1302 60.846 68.2054 60.4362 69.381 60.2831C68.7452 63.5562 68.8951 68.8182 70.1753 72.7884Z" fill="#FFD200"/>
<path d="M87.1513 37.9288C89.1422 39.5955 90.1086 40.8111 94.1771 41.6614C94.8731 41.8072 95.8353 41.805 96.6264 41.7438C95.0041 42.9373 92.7914 43.4252 90.4889 43.6988C87.4829 44.0611 82.8092 41.7395 79.4231 41.0805C78.1609 39.7581 77.9296 38.3967 78.52 37.5021C78.7651 37.1292 79.0956 36.2463 79.9068 35.5122C80.0726 35.5101 80.2448 35.509 80.4117 35.5238C81.489 35.6189 82.5674 35.7498 83.6236 35.9959C84.8456 36.2822 86.2018 37.1535 87.1513 37.9288Z" fill="white"/>
<path d="M90.3914 50.7369C93.5452 50.9228 96.2406 51.7392 98.5853 52.3096C98.9529 52.3962 99.3131 52.4965 99.6817 52.5968C103.846 53.7565 107.781 55.0314 111.23 56.3168C112.505 57.1638 106.368 55.6112 99.7165 53.7999C99.8443 54.3881 100.151 54.9511 100.717 55.4517C101.336 56.001 101.779 56.5196 102.108 57.0128C100.306 56.5069 98.4544 56.0738 96.6314 55.7855C94.3362 55.4243 92.0918 55.2891 90.0449 55.5183C92.6622 55.6947 95.9417 56.1087 99.3279 56.9589C99.3986 56.9737 99.4683 56.9896 99.537 57.0022C99.613 57.0192 99.6891 57.035 99.7641 57.0498C104.029 57.9159 108.089 58.9171 111.675 59.967C112.866 60.6282 108.497 59.9733 102.945 58.933C103.39 60.6789 103.147 61.9843 106.214 62.9265C109.989 64.0862 115.887 63.4704 118.236 62.4501C119.798 61.7721 121.434 60.3187 121.725 59.6808C121.83 59.4505 121.92 59.2477 122 59.0565C119.867 58.3679 120.602 55.8362 118.181 54.3353C116.445 53.2612 116.431 52.2198 115.521 50.4982C115.188 49.8624 114.691 49.1325 114.02 48.2749C111.515 45.3091 110.491 44.8707 108.046 45.1095C106.419 45.2658 103.838 45.8519 101.874 48.3203C101.272 48.0752 100.667 47.8429 100.06 47.6179C96.8574 46.4455 93.5864 45.5974 90.3692 45.5393C93.7068 45.9914 95.9459 46.6863 100.08 48.1629C104.39 49.5993 108.412 51.1329 111.899 52.6507C113.048 53.52 107.291 51.8311 100.867 49.7293C100.416 50.4369 99.9922 51.2555 99.782 52.0878C98.8716 51.8205 97.9622 51.5797 97.0539 51.378C94.7957 50.8731 92.5576 50.6027 90.3914 50.7369Z" fill="white"/>
<path d="M103.128 37.0384C102.945 36.9423 102.761 36.8304 102.579 36.711C102.555 36.88 102.511 37.0617 102.435 37.2708C100.541 37.3976 98.0376 34.7402 96.8578 33.6692C95.0918 32.0637 93.2171 31.6582 90.6051 31.41C89.3789 31.4966 89.1782 31.0836 90.6727 30.7012C92.4112 30.4488 93.8962 30.5407 95.2133 30.8702C94.2912 30.0792 93.3153 29.3725 92.1271 28.9543C91.2282 28.6364 90.2386 28.253 89.2827 28.1991C88.7039 28.1706 87.9583 28.3449 87.3193 28.5434C86.2071 28.8888 84.8763 29.4972 84.0429 29.9714C84.0725 31.1808 83.6257 32.3891 83.7905 33.61C83.876 34.2532 83.7356 34.662 84.2827 35.0158C84.6069 35.225 84.9333 35.5693 85.2512 35.7393C85.585 35.9221 86.3338 35.8143 86.8862 35.7858C88.2244 35.5471 89.2827 35.0803 90.4129 35.0074C93.4072 34.8109 96.2927 35.2387 98.2351 36.6403C100.143 38.1136 102.504 39.5701 103.095 39.8881C103.307 40.0032 103.601 40.263 103.947 40.2419C104.167 40.1088 104.384 39.9821 104.602 39.8585C104.617 39.7349 104.621 39.6208 104.621 39.5269C104.621 38.9417 104.304 37.6468 103.128 37.0384Z" fill="white"/>
<path d="M129.516 34.6403C129.385 33.976 129.14 32.8839 128.874 32.453C128.319 31.5563 127.846 30.9109 127.253 30.31C126.175 29.6171 124.798 29.126 122.897 28.5968C122.012 28.3507 120.201 28.1754 119.87 28.244C119.317 28.3507 119.053 28.7257 118.868 29.0964C118.587 29.6541 119.768 31.0313 120.621 32.3368C121.302 31.3999 122.204 30.9669 123.893 30.8222C125.12 30.8623 125.132 31.2331 124.209 31.3862C123.653 31.4654 122.689 32.0907 122.016 33.7183C121.567 34.8062 121.561 36.5077 119.814 36.9809C119.657 36.8003 119.54 36.6207 119.457 36.4454C119.224 36.8246 118.795 37.5386 119.145 38.2473L119.579 38.6243C119.74 38.7057 119.901 38.7944 120.068 38.8905C119.93 37.5861 121.733 36.4697 122.437 35.7811C123.969 34.2855 126.099 34.8136 127.077 35.1632C127.79 35.4198 128.365 36.0683 129.013 36.3641C129.599 36.4919 129.615 35.8064 129.705 35.5371C129.8 35.2508 129.572 34.9287 129.516 34.6403Z" fill="white"/>
<path d="M103.352 93.0542C103.298 93.9414 103.685 94.9733 104.258 95.964C104.824 96.94 105.646 97.7617 106.571 98.0701C106.759 98.7925 106.823 99.4548 106.759 100.211C108.046 100.519 108.965 100.211 110.098 99.6438C110.382 100.211 110.444 100.967 110.35 101.974C111.421 101.881 112.114 101.691 112.947 101.082C112.996 101.565 112.966 102.29 112.807 102.888C113.343 102.1 113.594 101.532 113.723 100.824C113.831 100.781 113.938 100.736 114.047 100.685C114.161 101.532 114.194 102.258 113.973 103.644C114.792 102.163 115.075 101.313 115.232 99.9269C115.33 99.8572 115.365 99.8889 115.465 99.8149C115.668 100.552 115.833 101.246 115.8 102.303C118.038 101.863 119.17 100.714 119.984 98.8411C120.337 99.1844 120.82 99.7695 121.122 100.337C123.011 99.4368 123.752 97.185 124.083 95.7074C124.262 94.9068 124.435 93.464 124.261 92.9074C124.455 92.9877 124.639 93.0817 124.817 93.181C125.573 91.6062 125.186 89.404 126.129 88.0774C126.883 87.0138 126.311 85.9587 125.97 84.7356C125.654 91.1879 123.237 88.3657 122.646 88.0563C120.513 86.942 112.968 87.0328 109.926 87.8535C108.664 88.1936 107.722 88.3858 107.014 89.0702C104.836 91.1721 104.103 90.3419 103.711 88.4545C103.653 87.6951 103.56 87.0465 103.407 86.4086C103.392 86.2829 103.376 86.1562 103.362 86.0284C103.372 86.1129 103.369 86.1879 103.37 86.265C103.404 87.9242 101.584 87.9612 101.482 89.4969C101.467 89.7092 101.484 89.95 101.545 90.2289C101.717 90.8721 103.425 92.1121 103.352 93.0542Z" fill="white"/>
<path d="M96.0189 38.046C95.4306 37.9457 94.9965 37.6067 95.0493 37.2993C95.1042 36.9867 95.6249 36.8209 96.2132 36.9233C96.8057 37.0258 97.2398 37.3595 97.186 37.67C97.1321 37.9774 96.6103 38.1496 96.0189 38.046Z" fill="white"/>
<path d="M125.778 36.7062C125.857 36.9765 125.501 37.3219 124.98 37.4751C124.462 37.6261 123.979 37.531 123.898 37.2586C123.818 36.985 124.172 36.6396 124.689 36.4875C125.211 36.3333 125.697 36.4316 125.778 36.7062Z" fill="white"/>
<path d="M130.602 42.634C130.807 41.9432 131.319 41.1807 131.378 40.5301C131.439 39.871 131.147 38.7577 130.843 37.6234C130.836 37.6223 130.831 37.6213 130.825 37.6202C129.297 37.2674 128.921 37.7047 128.343 38.4166C127.238 39.777 127.037 40.1234 125.782 40.7582C124.876 41.2166 124.035 41.1986 123.188 41.0201C124.257 41.9126 125.556 42.5273 126.813 42.6541C128.15 42.7914 129.491 43.2582 130.602 42.634Z" fill="white"/>
<path d="M131.443 35.714C131.445 36.4744 132.167 37.3173 131.891 37.6743C131.646 37.7609 131.238 37.7134 130.843 37.6225C131.146 38.7558 131.437 39.8701 131.378 40.5292C131.319 41.1788 130.806 41.9424 130.602 42.6321C130.618 42.6237 130.638 42.6162 130.654 42.6057C130.821 42.5075 130.978 42.3839 131.121 42.2318C132.5 40.7478 133.074 39.9853 132.9 38.3334C132.777 37.894 133.931 38.4379 134.732 39.8406C133.997 38.2827 133.237 36.8758 132.524 35.7562C132.266 35.3602 132.049 35.0211 131.84 34.7C131.57 34.4402 131.441 35.1457 131.443 35.714Z" fill="#FFD200"/>
<path d="M126.454 36.7104C126.429 36.628 126.4 36.5498 126.369 36.4717C126.257 36.4643 126.145 36.459 126.036 36.4558C126.283 37.5596 125.6 38.6886 124.46 39.0245C123.27 39.3752 122.033 38.733 121.698 37.5902C121.691 37.5712 121.688 37.5511 121.684 37.531L121.683 37.5321C121.435 37.7771 121.215 38.0274 121.084 38.282C121.086 38.2852 121.086 38.2873 121.087 38.2894C121.522 39.7723 123.075 40.6162 124.558 40.181C126.04 39.7448 126.888 38.1912 126.454 36.7104Z" fill="#7E5300"/>
<path d="M98.1293 37.4536C97.8525 38.9165 96.4013 39.8808 94.8709 39.6136C93.3309 39.3464 92.2821 37.9258 92.5388 36.4408C92.5525 36.3742 92.5684 36.3087 92.5853 36.2454C92.2262 36.2602 91.8966 36.2886 91.6083 36.3203C91.5449 36.5041 91.4889 36.6953 91.4551 36.8949C91.1203 38.8183 92.4131 40.6497 94.3364 40.9835C96.2651 41.3193 98.0944 40.0255 98.4292 38.1032C98.4546 37.9627 98.4662 37.8233 98.4736 37.686C98.3585 37.6026 98.2433 37.5244 98.1293 37.4536Z" fill="#7E5300"/>
<path d="M108.415 85.3595C107.057 86.1633 107.425 85.0025 107.11 84.2125C106.567 82.8553 105.495 81.6533 105.276 78.6273C105.11 77.3208 105.036 75.1492 106.386 74.7426C108.482 74.111 111.595 76.1632 113.374 76.1632C115.15 76.1632 116.899 74.3243 118.65 74.6497C119.845 74.8704 120.311 76.3818 120.694 77.8415C121.114 79.4385 120.962 80.6045 121.125 81.6808C121.233 82.4043 121.316 82.6102 121.546 82.944C121.528 82.9694 121.104 83.5186 121.087 83.5439C121.065 83.5207 121.045 83.5027 121.084 83.5503C120.915 83.3844 120.69 83.2926 120.452 83.2926C120.207 83.2926 119.966 83.3918 119.775 83.5682C119.635 83.6971 119.51 83.8703 119.406 84.0615C119.293 84.0034 119.165 83.9738 119.032 83.9738C118.818 83.9738 118.603 84.0583 118.433 84.2125C118.43 84.2146 118.429 84.2157 118.429 84.2157C118.288 84.1111 118.117 84.0541 117.935 84.0541C117.735 84.0541 117.539 84.1248 117.379 84.2547C117.23 84.1248 117.04 84.0541 116.839 84.0541C116.657 84.0541 116.479 84.1121 116.329 84.2188C116.324 84.2146 116.32 84.2114 116.317 84.2062C116.162 84.0551 115.959 83.9738 115.74 83.9738C115.595 83.9738 115.452 84.0108 115.321 84.0836C115.21 83.9072 115.065 83.7288 114.884 83.5503C114.716 83.3844 114.492 83.2926 114.254 83.2926C114.01 83.2926 113.77 83.3918 113.576 83.5682C113.506 83.6347 113.436 83.7118 113.375 83.7995C112.915 82.3567 112.661 81.2974 112.414 80.2644C112.327 79.9085 112.243 79.5589 112.15 79.1955C111.935 78.34 111.631 77.5468 110.879 77.5468C109.996 77.5468 109.668 78.6189 109.473 79.2431C108.981 80.8907 108.532 83.6717 108.415 85.3595Z" fill="#D71920"/>
<path d="M109.625 65.3274C109.625 64.7254 111.209 64.3515 111.92 64.3515C112.634 64.3515 114.081 64.8268 114.009 65.5133C113.314 68.6016 113.211 70.3264 112.955 72.3332C112.707 74.2703 112.036 74.1699 111.329 72.3057C110.702 70.657 110.062 68.7464 109.625 65.3274ZM115.163 64.567C115.157 64.3843 115.689 64.1815 116.044 64.1815C116.4 64.1804 116.96 64.3684 116.967 64.5902C116.96 65.0021 116.789 65.5947 116.208 66.1671C116.101 66.2738 115.947 66.2601 115.801 66.128C115.434 65.789 115.159 64.925 115.163 64.567ZM117.235 64.4075C117.233 64.2934 117.562 64.1677 117.782 64.1677C118.001 64.1677 118.35 64.2839 118.353 64.4212C118.349 64.6758 118.244 65.0423 117.883 65.3982C117.816 65.4637 117.72 65.4563 117.631 65.3739C117.405 65.1648 117.234 64.6282 117.235 64.4075ZM118.52 64.3145C118.515 64.1994 118.845 64.0748 119.064 64.0737C119.284 64.0737 119.632 64.191 119.638 64.3272C119.63 64.5817 119.525 64.9493 119.167 65.3042C119.098 65.3686 119.004 65.3634 118.915 65.2788C118.687 65.0697 118.518 64.5353 118.52 64.3145ZM119.803 64.3145C119.798 64.1994 120.128 64.0748 120.349 64.0737C120.569 64.0737 120.916 64.191 120.921 64.3272C120.916 64.5817 120.81 64.9493 120.451 65.3042C120.382 65.3686 120.288 65.3634 120.2 65.2788C119.97 65.0697 119.801 64.5353 119.803 64.3145ZM128.898 65.4616C128.258 68.063 127.42 69.9694 126.413 71.6625C125.114 73.8446 124.746 73.4834 124.864 72.1494C125.022 70.3623 125.33 68.5436 124.975 65.469C124.975 64.9271 126.178 64.4011 126.939 64.4011C127.701 64.4011 128.984 64.8521 128.898 65.4616ZM113.054 84.9653C113.186 85.5325 112.092 85.8293 111.557 85.8293C111.021 85.8293 109.797 85.6138 109.731 85.1185C109.676 82.2995 110.019 80.7247 110.3 79.3643C110.625 77.8244 111.092 77.743 111.498 79.3411C111.915 80.9961 112.185 82.4188 113.054 84.9653ZM121.468 84.9664C122.973 82.384 123.463 80.8578 124.056 79.359C124.497 78.2395 124.926 77.9363 125.057 79.7699C125.157 81.1915 125.208 82.7927 124.661 84.9791C124.483 85.4892 123.464 85.7881 122.894 85.7881C122.319 85.7881 121.251 85.4237 121.468 84.9664ZM123.293 64.1815C123.651 64.1804 124.21 64.3684 124.216 64.5902C124.208 65.0021 124.038 65.5947 123.456 66.1671C123.348 66.2738 123.194 66.2601 123.049 66.128C122.682 65.789 122.409 64.925 122.413 64.567C122.406 64.3843 122.937 64.1815 123.293 64.1815ZM121.087 64.4075C121.083 64.2934 121.412 64.1677 121.632 64.1677C121.853 64.1677 122.2 64.2839 122.205 64.4212C122.198 64.6758 122.092 65.0423 121.732 65.3982C121.667 65.4637 121.571 65.4563 121.48 65.3739C121.254 65.1648 121.084 64.6282 121.087 64.4075ZM119.524 85.4734C119.519 85.5927 119.223 85.692 119.034 85.692C118.846 85.692 118.564 85.5853 118.567 85.4871C118.566 85.2991 118.711 84.8418 118.905 84.6612C118.98 84.5893 119.064 84.5841 119.12 84.64C119.43 84.9442 119.519 85.2569 119.524 85.4734ZM118.426 85.5568C118.422 85.674 118.126 85.7723 117.936 85.7723C117.748 85.7723 117.468 85.6645 117.47 85.5674C117.468 85.3772 117.613 84.922 117.807 84.7404C117.884 84.6707 117.967 84.6643 118.024 84.7203C118.332 85.0245 118.422 85.3371 118.426 85.5568ZM116.926 84.7203C117.235 85.0245 117.325 85.3371 117.329 85.5568C117.325 85.674 117.028 85.7723 116.84 85.7723C116.651 85.7723 116.368 85.6645 116.373 85.5674C116.372 85.3772 116.516 84.922 116.711 84.7404C116.787 84.6707 116.868 84.6643 116.926 84.7203ZM116.232 85.4734C116.227 85.5927 115.929 85.692 115.741 85.692C115.553 85.692 115.272 85.5853 115.278 85.4871C115.275 85.2991 115.419 84.8418 115.615 84.6612C115.691 84.5893 115.771 84.5841 115.829 84.64C116.136 84.9442 116.226 85.2569 116.232 85.4734ZM115.046 85.3308C115.041 85.5209 114.562 85.6815 114.257 85.6815C113.953 85.6815 113.498 85.5072 113.503 85.3498C113.501 85.0477 113.735 84.3063 114.048 84.0158C114.172 83.9018 114.304 83.8901 114.397 83.982C114.893 84.4721 115.039 84.9791 115.046 85.3308ZM120.247 84.0158C120.371 83.9018 120.502 83.8901 120.595 83.982C121.091 84.4721 121.237 84.9791 121.244 85.3308C121.237 85.5209 120.757 85.6815 120.455 85.6815C120.151 85.6815 119.696 85.5072 119.7 85.3498C119.698 85.0477 119.932 84.3063 120.247 84.0158Z" fill="white"/>
<path d="M147.788 127.316C147.611 126.384 147.379 125.472 147.285 125.17C145.809 120.409 143.245 116.791 140.603 113.992C139.498 112.821 138.379 111.789 137.323 110.881C132.736 106.94 130.286 104.781 130.809 97.918C130.82 97.767 130.831 97.616 130.845 97.4586C130.927 96.5777 131.121 95.8342 131.383 95.2068C129.917 96.3211 128.334 97.3033 126.727 98.0258C126.563 98.7334 125.964 100.942 124.642 102.479C126.102 107.401 129.76 112.588 131.676 114.937C130.66 112.907 130.37 111.671 129.571 109.42C132.531 113.269 136.015 118.702 136.332 124.341C134.458 122.361 132.506 120.696 131.13 120.017C133.732 125.886 133.454 129.652 131.853 135.285C128.653 146.555 123.086 148.316 116.128 160.389C117.747 158.625 119.17 157.269 120.807 156.241C117.482 159.939 114.386 165.932 114.432 171.54C130.881 159.42 141.549 144.082 147.788 127.316Z" fill="#FFD200"/>
<path d="M146.5 102.434C144.183 98.3695 143.144 94.9981 139.792 91.6405C139.196 91.0448 138.233 90.1618 137.291 89.0264C136.634 90.0034 135.984 90.7902 135.002 91.8274C135.038 92.2531 135.151 93.605 135.182 94.3644C135.433 100.847 139.394 104.814 144.1 109.086C146.128 110.927 149.288 113.606 151.222 116.283C151.724 114.316 152.169 112.334 152.564 110.34C150.107 107.708 147.709 104.557 146.5 102.434Z" fill="#FFD200"/>
<path d="M144.861 93.8535C146.362 96.7591 150.345 101.895 153.515 104.877C153.719 103.526 153.901 102.174 154.061 100.818C151.25 99.388 147.836 96.5099 144.861 93.8535Z" fill="#FFD200"/>
<path d="M69.6957 98.7762C68.5645 97.5458 67.5949 96.2467 66.8081 95.0088C64.6207 98.8618 61.6169 104.359 60.0305 110.202C61.1257 108.227 62.447 106.151 62.447 106.151C61.2873 109.91 60.0283 114.766 59.2563 120.584C58.4916 126.324 58.2782 133.804 59.0292 141.37C61.2916 145.386 63.8666 149.279 66.7753 153.017C60.7825 134.827 60.4181 115.269 69.6957 98.7762Z" fill="#FFD200"/>
<path d="M101.89 105.971C101.181 105.114 100.563 104.2 100.059 103.351C98.4565 102.621 97.113 101.893 96.1328 101.134C94.3373 102.087 92.4752 103.378 90.2023 105.168C91.6883 103.358 93.3508 101.817 95.2361 100.486C94.3394 99.7799 93.6053 99.0185 93.0191 98.2337C91.1909 99.0976 89.5601 99.7557 87.6146 101.302C89.0489 99.2107 90.1484 98.5653 92.3368 97.1004C92.2745 96.9895 92.0812 96.7423 92.0263 96.6304C88.994 97.7204 86.5225 99.0449 84.8727 100.512C83.9717 99.612 82.8965 98.1608 81.9396 96.6811C81.3439 97.9939 80.7577 99.4568 80.2867 101.004C79.9487 102.257 79.6941 103.312 79.6107 103.789C79.6033 103.813 79.5959 103.837 79.5875 103.858C79.5505 104.066 79.5146 104.274 79.4818 104.482C78.5439 104.346 76.8604 103.832 75.4788 103.227C74.9751 107.433 75.5359 112.855 77.5332 118.286C77.3166 116.376 77.2987 115.35 77.4529 113.894C78.4066 117.999 79.4745 120.554 81.515 122.696C84.5453 118.178 90.4632 113.393 96.2817 111.158C94.0616 111.525 92.3992 111.989 90.0998 112.822C93.0635 110.826 95.3829 109.79 98.184 108.3C99.6774 107.504 100.944 106.701 101.89 105.971Z" fill="#FFD200"/>
<path d="M138.746 86.395C141.536 82.1829 141.282 74.5846 140.478 68.7185C141.064 69.0301 141.636 69.4367 142.248 69.988C141.646 68.8051 141.142 68.1788 140.268 67.3761C140.239 67.1828 140.208 66.886 140.167 66.6811C140.686 67.0486 141.076 67.3539 141.432 67.7426C141.857 62.639 141.7 58.6297 140.08 54.0584C140.08 54.0584 140.602 53.9782 141.075 54.1672C140.963 53.8388 140.795 53.3571 140.588 52.7815C139.858 53.1776 139.096 53.5156 138.244 53.8388C138.411 54.7048 138.555 55.5973 138.666 56.4888C137.221 56.4909 135.643 56.8574 134.025 57.4119C134.03 57.3506 134.039 57.2894 134.042 57.2281C134.07 56.4666 134.061 55.8086 134.023 55.2203C130.937 56.1898 128.213 56.8806 128.908 56.2448C130.163 55.6332 131.528 55.0555 132.949 54.5295C133.046 54.4947 133.138 54.4556 133.235 54.4218C133.459 54.3415 133.684 54.2655 133.909 54.1894C136.33 53.354 138.883 52.6917 141.354 52.34C141.039 52.2766 140.714 52.245 140.387 52.228C140.046 51.2923 139.631 50.1801 139.201 49.0669C138.661 49.3921 138.033 49.7344 137.336 50.0956C137.548 50.8064 137.756 51.5975 137.948 52.4382C136.628 52.7107 135.245 53.204 133.843 53.8176C133.7 53.1026 133.488 52.4995 133.217 51.9281C130.929 52.8206 129.266 53.3392 129.79 52.7889C133.3 50.7314 136.218 49.2042 140.42 48.1089C140.52 48.0846 140.611 48.0624 140.69 48.0402C140.164 47.9853 139.315 48.0423 138.836 48.1258C138.692 47.7635 138.551 47.4055 138.411 47.0601C138.359 46.9312 138.056 46.1855 138.004 46.0546L138.411 46.1084C136.553 40.9637 133.736 35.7302 129.805 31.7441C131.161 33.6115 131.575 34.2927 132.524 35.7545C134.432 38.7552 136.691 43.8007 137.855 48.3529C136.133 48.8472 134.483 49.8125 132.69 50.949C132.562 50.7335 132.427 50.5128 132.282 50.2836C131.967 49.7829 130.843 48.8081 129.966 48.337C130.271 48.9823 130.389 49.915 130.065 50.9923C129.486 52.9209 128.573 54.0046 127.488 55.3217C126.562 56.4455 125.439 59.0279 123.365 59.2159C123.351 59.4292 123.346 59.6257 123.346 59.7419C123.346 61.0008 124.761 62.695 125.535 63.0657C127.036 63.7808 127.306 63.8336 129.079 63.4343C130.855 63.0277 131.834 61.85 132.432 61.1054C132.907 60.516 133.326 59.8274 133.618 59.0965C130.456 59.9066 127.581 60.4664 128.319 59.8464C129.681 59.2623 131.162 58.7258 132.702 58.2653C132.727 58.2568 132.751 58.2505 132.775 58.2431C135.325 57.4848 138.031 56.9366 140.613 56.7465C140.056 57.0771 139.442 57.339 138.785 57.5735C138.949 59.332 138.957 61.0198 138.735 62.3992C139.344 62.9474 139.852 63.6276 140.409 64.6246C139.98 64.2645 139.552 63.9371 139.126 63.6371C137.636 62.5471 136.567 62.019 134.89 61.7286C135.835 62.1722 136.659 62.7488 137.417 63.371C137.315 67.8514 136.708 74.2509 135.252 77.468C134.734 76.7414 134.253 76.2481 133.465 75.683C133.449 75.7454 133.335 75.9587 133.318 76.021C134.423 77.3233 135.004 78.2528 135.665 80.0663C134.62 78.858 133.764 77.9518 132.955 77.2061C131.396 81.6379 129.335 82.5578 127.595 82.6856C127.595 82.6856 129.255 86.1173 127.76 89.4453C127.64 89.7104 127.581 90.0632 127.546 90.4477C127.988 91.3454 127.866 91.8841 128.195 92.9572C130.961 91.8017 134.2 88.443 136.094 85.7666C136.928 86.5292 137.731 87.3488 138.808 88.5529C138.175 86.9189 137.621 86.0116 136.679 84.9005C136.782 84.74 136.858 84.6935 136.958 84.5298C137.703 85.0769 138.142 85.4835 138.746 86.395Z" fill="white"/>
<path d="M139.948 30.0341C137.271 30.3541 134.313 30.0637 131.949 28.7751C133.945 28.8374 135.42 28.4804 139.051 27.3851C137.941 27.476 126.941 27.7992 120.521 26.1546C117.71 24.8999 108.608 21.274 103.128 24.2788C94.1541 21.3373 82.8443 24.3866 79.5395 26.8919C73.5244 26.8919 67.1746 26.4578 63.5856 25.2896C66.507 27.3376 68.8148 27.6788 70.5681 28.0579C66.1585 28.2375 62.9962 27.5911 58.2539 26.555C59.8329 28.097 60.9715 28.735 63.3247 29.4394C61.9316 29.5641 60.4983 29.4912 58.9732 29.2176C60.7846 30.7111 65.3748 33.19 69.2785 31.4652C70.4065 30.9688 73.9987 29.0465 77.0405 28.7064C75.3622 29.6084 72.6869 32.0324 71.168 33.7751C71.1152 33.8607 71.0624 33.9473 71.0117 34.036C72.4122 33.0421 74.0388 32.2595 75.6664 31.9574C73.2287 33.7688 72.1672 35.6446 72.0679 37.6324C72.9203 36.7198 73.5751 35.7777 74.5436 35.4756C74.7729 35.4038 74.9619 35.651 75.152 36.0734C75.5027 36.5709 75.753 37.7359 76.2262 38.8058C76.7405 39.8778 77.4545 40.8242 78.5804 40.9467C78.8508 40.9752 79.1328 41.0238 79.4222 41.0787C78.1611 39.7575 77.9288 38.395 78.5192 37.5003C78.7663 37.1275 79.0948 36.2456 79.906 35.5105C79.399 35.5157 78.9195 35.5274 78.5995 35.0817C78.3333 34.7162 78.1664 34.2441 78.0428 33.8111C77.9182 33.3791 77.4831 32.6017 77.6013 32.194C78.6533 32.2046 79.6747 32.5109 80.7097 32.213C82.3109 31.7546 81.8969 30.1281 83.8171 28.7762C83.9692 29.1765 84.0315 29.5746 84.0421 29.9728C84.8764 29.4986 86.2062 28.8902 87.3205 28.5448C87.9584 28.3463 88.7041 28.171 89.2829 28.2005C90.2388 28.2544 91.2274 28.6378 92.1273 28.9557C93.3144 29.3739 94.2914 30.0805 95.2135 30.8716C97.9649 31.5592 99.9716 33.3009 101.962 35.2306C102.416 35.7038 102.667 36.0924 102.579 36.7124C102.761 36.8318 102.945 36.9437 103.128 37.0398C104.304 37.6482 104.62 38.9421 104.62 39.5282C104.62 39.6222 104.616 39.7363 104.601 39.8599C107.612 38.1478 110.132 37.1222 113.199 38.4921C110.342 38.2756 107.551 39.7479 105.228 41.7336C103.678 43.0581 100.471 45.9784 98.0578 46.0946C97.8212 45.0448 98.2014 44.504 98.9735 43.771C99.9769 42.9862 100.997 42.2152 102.019 41.5044C101.462 41.385 100.85 41.3966 100.186 41.459C99.3231 42.6483 98.0472 43.3179 97.234 43.7097C94.4097 44.992 92.9711 45.5824 87.6268 45.1705C84.229 44.9085 81.7364 45.4451 79.9429 45.4451C78.1442 45.4451 77.2454 45.0374 76.2156 44.1428C75.19 43.245 74.7243 41.9269 74.211 40.3901C74.1053 44.9761 75.3717 56.3482 80.0538 58.9391C80.7985 58.4131 82.2243 58.0244 83.478 58.0403C81.6413 58.9232 79.6789 60.685 78.59 62.8407C82.8369 59.1419 86.053 58.2092 91.3457 58.1913C89.1498 61.9608 88.6693 65.1971 88.758 68.3994C88.8118 70.3988 89.077 71.9366 89.5015 73.1872C90.337 75.8446 91.747 78.5569 93.5003 80.5531C93.0778 79.5825 92.706 78.6065 92.3945 77.6475H92.3955C93.6471 78.9794 95.1332 80.3725 96.709 82.525C98.7105 85.2743 100.057 85.681 101.48 89.4949C101.582 87.9592 103.402 87.9222 103.369 86.2629C103.097 85.2025 102.65 84.1505 101.893 82.637C100.456 79.7684 95.5198 69.8496 95.3138 63.7859C95.243 61.6862 96.6013 60.4906 97.0618 59.5707C97.3702 58.9528 97.3776 58.3698 97.2583 57.7804C94.7266 57.1689 91.8579 56.3049 90.0465 55.5181C92.0924 55.2888 94.3368 55.424 96.6309 55.7853C96.3774 54.9656 96.2063 54.0626 96.4439 52.9916C96.4555 52.9462 96.4693 52.9018 96.4809 52.8553C94.2692 52.1773 92.3174 51.514 90.3919 50.7366C92.5571 50.6025 94.7973 50.8729 97.0544 51.3767C97.4706 50.5835 98.0451 49.7924 98.7285 49.014C94.922 47.6926 92.0977 46.4294 90.3697 45.5391C93.5869 45.5972 96.858 46.4453 100.059 47.6177C100.778 46.9237 101.64 46.1918 102.543 45.4979C103.373 44.843 104.271 43.9326 105.118 43.3316C107.711 41.5392 111.231 39.2452 114.263 41.1685C113.766 41.1928 113.237 41.2308 112.698 41.3048C110.909 41.4949 111.972 44.1143 113.995 46.1992C115.09 47.3293 116.153 48.94 117.42 50.7556C118.262 51.9544 118.344 52.3252 119.27 52.6061C120.848 53.0867 122.552 53.8535 122.185 54.822C121.917 55.5244 120.768 55.2286 121.003 56.081C121.503 57.8997 122.813 58.2546 123.914 58.0455C124.096 57.9916 124.277 57.9409 124.447 57.8945C124.62 57.8301 124.782 57.7519 124.927 57.6684C125.455 57.3178 125.685 56.7665 126.254 55.8676C126.482 55.311 126.081 55.3438 126.081 54.8685C126.081 54.5379 126.691 53.7764 127.515 53.0793C128.534 52.2164 129.172 50.4958 129.172 49.7544C129.172 48.8207 129.196 48.1986 128.792 47.5353C127.217 45.3057 123.061 42.775 122.55 42.3874C121.135 41.3122 119.792 41.1611 118.277 41.0576C119.061 40.3426 119.712 40.3975 120.321 40.6003C119.862 40.1482 119.625 39.8979 119.263 39.6465C117.982 38.7636 116.529 38.4541 114.712 38.3421C116.72 37.4148 117.86 37.4739 119.579 38.6241L119.144 38.2471C118.794 37.5384 119.224 36.8244 119.456 36.4452C119.199 35.9097 119.244 35.4006 119.388 34.9528C119.808 33.8079 120.165 32.9619 120.619 32.3376C119.767 31.0311 118.587 29.6549 118.868 29.0962C119.052 28.7255 119.317 28.3505 119.869 28.2449C120.201 28.1752 122.011 28.3505 122.896 28.5966C124.798 29.1257 126.175 29.6169 127.252 30.3098C127.129 30.1851 126.997 30.0615 126.86 29.939C125.803 29.0919 124.528 28.2406 122.931 27.3651C124.872 28.2311 127.199 29.2905 128.525 29.9591C131.091 31.2519 133.098 33.2544 137.568 32.9914C136.41 32.7485 134.567 31.8866 132.799 30.6192C133.599 30.6467 135.882 31.3205 139.948 30.0341ZM91.07 48.6137C89.4688 49.7871 87.0163 50.762 84.6473 50.3142C84.3346 51.2996 84.4677 53.0318 85.2113 55.0396C81.2104 53.2514 78.7938 50.2434 78.5371 47.9821C81.1069 46.7484 86.5473 48.564 91.07 48.6137ZM124.499 49.991C125.534 50.0459 127.092 50.0057 128.015 49.5452C128.065 50.2254 125.562 51.3492 125.026 51.3841C124.436 51.4189 123.787 50.9626 123.225 50.8243C122.491 50.6479 121.727 50.4747 121.266 50.3986C120.895 50.3395 120.385 50.1631 120.329 49.6456C121.734 49.7174 123.095 49.916 124.499 49.991ZM93.5003 25.0478C97.5487 24.2598 103.066 24.8323 105.073 26.3743C106.65 25.2632 109.406 24.545 114.083 25.3203C110.198 25.5854 109.123 25.8167 108.222 26.5053C109.374 26.2465 110.621 26.18 112.802 26.6944C110.234 26.876 107.034 27.6069 107.044 29.0624C105.323 27.8076 101.633 26.7334 98.3007 26.7334C99.9854 26.2307 101.252 26.2529 102.253 26.5053C100.177 25.5368 98.3715 25.1333 93.5003 25.0478ZM110.695 33.698C108.798 31.7198 106.426 30.408 101.809 29.6401C104.322 29.1965 107.809 29.7616 109.478 30.7871C111.273 29.375 113.134 29.0296 115.311 29.3391C113.206 29.9633 110.266 31.6828 110.695 33.698Z" fill="#FFD200"/>
</svg>
