<svg width="201" height="201" viewBox="0 0 201 201" fill="none" xmlns="http://www.w3.org/2000/svg">
<path d="M100.793 17.5015C59.6211 17.5015 27.9111 17.1554 27.9111 17.1554C31.4181 43.7149 49.0177 53.5652 59.7373 63.1981V45.1006C67.5207 42.5933 75.6544 40.8128 83.9612 39.8002C83.9607 54.8923 83.9594 153.33 83.9594 153.33C83.9594 166.056 98.018 178.76 100.918 182.926C104.304 178.03 117.77 165.902 117.77 153.33L117.768 39.8091C126.064 40.8225 134.187 42.6018 141.96 45.106V63.2036C155.927 51.4452 170.692 41.4761 173.786 17.1609C173.786 17.1609 141.965 17.507 100.793 17.507" fill="black"/>
<path d="M100.793 22.0432C61.7977 22.0432 33.3975 22.3116 33.3975 22.3116C36.0775 35.6029 43.9468 44.5528 55.3769 53.963L55.3796 41.9633C66.1525 38.1996 77.2402 35.9346 88.2437 34.9705C88.2316 34.9785 88.2059 153.326 88.2059 153.326C88.2059 161.985 96.9994 171.509 100.831 176.29C106.788 168.942 113.524 161.548 113.524 153.156L113.522 35.0042C125.097 36.0345 136.204 38.4307 146.318 41.9648L146.321 53.9646C157.751 44.5543 165.621 35.6044 168.301 22.3131C168.301 22.3131 139.789 22.0446 100.793 22.0446" fill="white"/>
<path d="M33.3975 22.3096C36.0775 35.601 43.9482 44.5507 55.3782 53.961C46.3682 42.9795 47.9742 35.1461 47.9742 35.1461C39.4375 30.6305 33.3975 22.3096 33.3975 22.3096ZM47.9742 35.1461C47.9742 35.1461 48.9572 39.7081 55.381 41.9615C66.1539 38.1977 77.2418 35.9314 88.2453 34.9673C93.8248 31.1679 100.829 28.2409 100.832 28.2392C74.3698 28.2428 47.9742 35.1461 47.9742 35.1461ZM100.831 28.2393V176.291C106.788 168.944 113.524 161.549 113.524 153.157L113.522 35.0039C125.098 36.0342 136.204 38.4307 146.319 41.9648C152.742 39.7114 153.726 35.1495 153.726 35.1495C153.726 35.1495 127.319 28.2427 100.85 28.2427H100.832L100.831 28.2393ZM153.725 35.1461C153.725 35.1461 155.331 42.9802 146.321 53.961C157.751 44.5507 165.622 35.601 168.301 22.3096C168.301 22.3096 162.261 30.6305 153.725 35.1461Z" fill="#999999"/>
</svg>
