<svg width="201" height="201" viewBox="0 0 201 201" fill="none" xmlns="http://www.w3.org/2000/svg">
<g clip-path="url(#clip0_15016_302059)">
<path d="M183.956 52.1175C173.886 40.8136 158.471 34.6478 140.59 34.6478C129.081 34.6478 117.469 37.3196 108.015 42.2522C94.8609 49.0346 85.8178 61.0579 80.5768 69.9983C85.715 65.1684 93.4222 59.722 104.007 56.9474C107.912 55.9197 112.022 55.3032 116.03 55.3032C134.425 55.3032 147.065 66.0933 147.681 66.6071L149.325 68.0458L149.942 68.5596L149.634 69.3817L148.914 71.3342C148.503 72.5673 147.373 76.6779 151.689 78.4248C152.305 78.6304 152.819 78.7331 153.333 78.7331C155.902 78.7331 158.266 75.8558 159.293 74.2115C161.246 71.2314 165.048 65.6822 171.522 65.6822C172.961 65.6822 174.297 65.9905 175.633 66.5043C179.538 67.943 181.798 70.9231 182.415 75.6502C183.237 81.0967 181.182 85.31 179.846 87.2625C180.668 87.5707 181.696 87.6735 182.723 87.6735C185.292 87.6735 187.759 86.6459 189.403 84.8989C190.122 84.3851 201.734 71.9508 183.956 52.1175ZM191.869 83.974C191.664 84.3851 191.355 84.5906 191.15 85.0017C191.355 84.6934 191.561 84.3851 191.869 83.974ZM140.693 30.3317C159.807 30.3317 176.352 37.0113 187.245 49.2401C197.11 60.2358 198.857 69.7927 198.241 75.8558C197.727 80.7884 195.569 85.2072 192.486 87.9818C189.711 90.5509 186.423 91.373 183.751 91.784C183.443 91.8868 183.134 91.8868 182.826 91.8868C180.976 91.8868 178.51 91.373 176.969 90.3453C175.427 89.3177 174.4 88.0846 174.4 88.0846C175.633 86.9542 176.352 85.9265 176.969 84.8989C178.613 82.0215 176.558 78.4248 173.269 78.4248H173.166C170.083 78.4248 169.261 80.4801 168.85 82.0215C167.001 90.3454 163.609 93.0172 160.835 95.278C160.218 95.7918 159.602 96.2028 159.088 96.7167C155.697 99.9023 151.997 104.424 153.128 110.898C153.744 114.392 155.594 116.139 157.341 117.064C157.855 114.906 159.088 113.056 160.629 111.617C159.088 109.768 159.191 107.301 160.218 105.863C161.76 103.705 163.918 103.602 164.945 103.602C168.336 103.602 170.392 106.068 171.008 107.507L171.83 109.357C175.119 110.384 177.688 112.953 178.921 116.55C182.209 126.004 174.194 131.656 169.364 133.403C169.364 133.403 158.78 137.103 150.867 137.103C149.942 137.103 149.12 137 148.298 136.897C150.456 138.85 152.1 140.802 153.436 142.446C153.641 142.138 153.95 141.83 154.258 141.419C156.313 139.055 160.013 137.514 163.712 137.514C166.59 137.514 169.159 138.336 171.317 139.98C173.783 141.727 175.324 144.501 175.838 147.687C176.352 151.078 175.53 154.675 173.475 157.45C170.392 161.663 163.918 164.335 157.033 164.335C154.155 164.335 151.381 163.821 148.914 162.896C148.914 162.896 142.954 160.635 137.713 158.477C132.472 156.319 126.204 154.983 118.188 152.106C106.473 147.893 97.1217 147.071 91.367 147.071C88.4896 147.071 86.3316 147.276 85.0984 147.482C86.7426 149.126 87.9758 150.359 88.9007 151.284L89.9283 152.311C90.3393 152.209 90.7504 152.209 91.0587 152.209C92.4974 152.209 93.936 152.62 94.9637 153.442C98.3548 156.011 98.2521 161.663 94.7581 166.287C92.3946 169.267 89.3117 171.014 86.3316 171.014C84.8929 171.014 83.4542 170.603 82.4266 169.781C81.0907 168.754 80.2685 167.212 79.9603 165.465L78.8299 164.951L57.1469 154.881L55.5027 155.908C54.064 156.833 52.5225 157.963 50.9811 159.197C45.4319 163.41 38.5467 168.445 30.3257 168.445C29.1953 168.445 27.9622 168.342 26.729 168.137C15.4251 166.082 12.7532 156.525 12.9587 151.695C12.9587 151.695 12.856 145.837 14.0891 142.138C14.9113 139.774 16.5555 138.027 18.6107 137.103C18.6107 137.103 16.8638 136.075 14.7057 135.253C11.5201 134.122 8.53994 134.225 7.30678 133.609C3.9156 131.862 2.37416 130.012 1.75758 126.723C1.14101 123.332 1.86035 119.016 3.81284 114.597C5.35429 111.001 7.71784 107.301 10.1842 104.321C17.2748 95.9973 23.0295 92.2978 28.9898 92.2978C29.9147 92.2978 30.7368 92.4006 31.6616 92.6061C33.8197 93.0172 35.4639 94.2503 36.4915 96.2028C37.1081 97.436 37.5191 98.8747 37.7246 100.313C38.0329 100.622 50.2617 112.748 50.2617 112.748L57.2496 101.547C58.38 97.0249 60.8463 92.8117 64.5458 89.0094L68.7591 84.6934L72.4586 76.5751C76.2608 68.4568 87.0509 48.5208 106.165 38.5528C116.236 33.2091 128.464 30.3317 140.693 30.3317ZM140.693 28.7903C128.259 28.7903 115.722 31.7704 105.343 37.0113C85.715 47.1849 74.7194 67.5319 70.9171 75.753L67.3204 83.563L63.3126 87.6735C59.5104 91.5785 56.9413 95.8946 55.7082 100.622L49.8507 109.973C46.9733 107.096 40.7048 100.93 39.1633 99.2857C38.9578 97.7443 38.5468 96.4084 37.8274 95.1752C36.4915 92.8117 34.539 91.2702 31.9699 90.7564C30.9423 90.5509 30.0174 90.4481 28.9898 90.4481C22.5157 90.4481 16.3499 94.3531 9.05376 103.088C6.48468 106.171 4.01837 110.076 2.47692 113.775C0.421661 118.605 -0.297678 123.127 0.3189 126.826C0.935478 130.628 2.78521 132.889 6.69021 134.842C7.51231 135.253 8.43718 135.356 9.7731 135.561C11.109 135.767 12.7532 135.972 14.2947 136.589C14.8085 136.794 15.2195 137 15.7334 137.103C14.3974 138.233 13.3698 139.774 12.7532 141.521C11.5201 145.324 11.5201 150.976 11.5201 151.592C11.3145 156.833 14.1919 167.315 26.5235 169.576C27.7566 169.781 29.0926 169.884 30.3257 169.884C39.0606 169.884 46.1512 164.54 51.9059 160.327C53.5502 159.197 54.9888 157.963 56.3248 157.141L57.2496 156.525L78.1105 166.184L78.5216 166.39C78.9326 168.24 79.9603 169.781 81.3989 170.809C82.8376 171.836 84.4818 172.453 86.3316 172.453C89.7228 172.453 93.4222 170.501 95.9913 167.109C99.9991 161.868 99.999 155.189 95.8885 152.106C94.4498 151.078 92.8056 150.462 90.9559 150.462C90.7504 150.462 90.5449 150.462 90.3393 150.462L89.8255 149.948L88.6951 148.818L88.3868 148.509C89.2089 148.406 90.1338 148.406 91.2642 148.406C96.9162 148.406 106.062 149.229 117.572 153.339C121.374 154.675 124.765 155.703 127.745 156.525C131.239 157.552 134.322 158.477 136.994 159.608C142.132 161.766 148.195 164.026 148.195 164.129C150.867 165.157 153.847 165.671 156.827 165.671C164.226 165.671 171.111 162.691 174.502 158.169C176.763 155.086 177.791 151.078 177.174 147.276C176.66 143.679 174.811 140.596 172.036 138.644C170.083 137.205 167.823 136.28 165.459 136.075C167.925 135.458 169.57 134.842 169.775 134.739C171.008 134.328 175.222 132.581 178.305 128.676C181.285 124.976 181.901 120.558 180.257 115.831C178.921 112.028 176.352 109.151 172.858 107.815L172.344 106.582C171.522 104.835 169.056 101.752 164.843 101.752C163.712 101.752 160.835 101.752 158.78 104.629C157.752 106.171 157.238 108.637 158.574 111.001C157.752 111.926 157.033 112.953 156.519 114.186C155.594 113.159 154.977 111.926 154.669 110.281C153.641 104.527 156.827 100.622 160.115 97.5388C160.526 97.1277 161.143 96.6139 161.76 96.2028C164.637 93.9421 168.439 90.9619 170.392 82.1243C170.7 80.5829 171.317 79.7608 173.166 79.7608H173.269C174.194 79.7608 175.119 80.2746 175.633 81.1994C176.146 82.1243 176.146 83.1519 175.735 84.0768C175.324 84.8989 174.708 85.8238 173.475 86.9542L172.344 87.9818L173.372 89.1122C173.475 89.215 174.605 90.5509 176.352 91.5785C178.407 92.9144 181.285 93.3255 183.032 93.3255C183.443 93.3255 183.854 93.3255 184.162 93.2227C188.17 92.7089 191.355 91.373 193.822 89.0094C197.11 85.9265 199.474 80.9939 199.988 75.8558C200.501 70.8204 199.782 60.4413 188.581 48.007C177.174 35.6754 160.218 28.7903 140.693 28.7903ZM29.8119 144.399C29.8119 144.399 28.6815 143.988 27.6539 143.988C27.0373 143.988 26.5235 144.193 26.2152 144.604C26.0097 144.913 26.0097 145.426 26.4207 145.837C26.5235 145.94 26.729 146.146 26.9345 146.248C27.6539 146.66 28.476 146.865 29.2981 146.865C30.7368 146.865 32.1754 146.248 33.2031 145.015C33.6141 144.501 34.0252 143.988 34.3335 143.577L29.0926 141.008C29.6064 142.446 29.8119 144.399 29.8119 144.399Z" fill="#3A8DDE"/>
<path d="M34.0253 117.682L37.0054 114.496L28.8871 106.995L25.8042 110.9L28.065 112.852L20.255 123.745L23.9545 126.314L31.8672 116.038L34.0253 117.682ZM86.0234 165.158C86.2289 166.083 86.64 166.803 86.8455 166.905C86.8455 166.905 86.7427 165.98 87.051 165.158C87.9759 164.85 89.209 164.028 90.2367 162.692C91.5726 160.945 91.8809 159.404 91.7781 158.582C92.2919 157.862 92.9085 157.451 92.9085 157.451C91.9836 157.451 90.6477 157.965 89.7228 158.582C89.0035 158.993 88.2842 159.712 87.5648 160.534C85.9206 162.795 85.8178 164.542 86.0234 165.158ZM43.4795 120.251C43.4795 120.251 37.7247 127.547 35.9778 128.369C34.5391 129.089 34.3336 127.239 35.0529 126.417C35.5667 125.8 41.1159 118.298 41.1159 118.298L38.2386 115.832C38.2386 115.832 32.4838 122.82 31.4562 124.361C30.3258 125.903 28.3733 129.5 32.0728 132.171C35.7722 134.843 39.1634 131.658 39.5745 131.041C39.9855 130.527 46.2541 123.026 46.2541 123.026L43.4795 120.251ZM142.749 87.9833C138.021 90.0386 130.623 97.1292 130.623 97.1292C130.828 97.1292 131.136 97.232 132.061 97.3348C132.986 97.4375 133.603 97.3348 133.603 97.3348C133.603 97.3348 134.733 98.7735 138.021 99.8011C141.31 100.829 144.804 100.109 147.27 98.7735C150.764 96.821 151.483 93.5325 152.1 91.58C152.717 89.6275 153.23 88.4972 153.23 88.4972C154.155 88.5999 154.361 88.9082 156.313 89.422C157.958 89.8331 158.574 89.1137 158.574 89.1137C153.847 84.5922 147.27 86.0308 142.749 87.9833ZM147.681 94.2519C147.681 94.2519 141.413 91.2718 138.433 97.1292C138.433 97.1292 137.816 97.232 137.302 97.0265C136.788 96.821 136.48 96.7182 136.377 96.821C136.377 96.821 138.33 91.9911 148.092 89.422C148.092 89.5248 149.428 91.7856 147.681 94.2519ZM132.883 108.125C132.883 108.125 131.753 100.829 120.86 97.7458C109.967 94.6629 101.438 96.7182 97.8411 101.137C93.4223 106.583 97.8411 112.646 104.623 112.338C109.864 112.133 113.461 108.947 117.674 108.125C122.093 107.406 125.69 107.714 129.595 110.077C133.603 112.441 134.836 113.366 135.452 114.702C136.069 115.935 136.377 117.065 137.816 117.476C137.919 117.579 138.433 112.544 132.883 108.125ZM103.082 108.433C103.082 108.433 101.335 108.639 100.718 107.303C100.718 107.303 100.821 106.686 101.541 106.275C102.363 105.864 103.699 105.659 103.904 105.659C104.007 105.453 103.596 107.303 103.082 108.433ZM104.212 103.809C103.185 104.22 102.568 104.22 101.643 104.631C101.643 104.631 101.335 101.754 105.446 101.343C105.446 101.24 105.857 103.09 104.212 103.809ZM110.275 107.817C108.631 109.358 106.576 109.461 104.932 108.947C104.932 108.947 105.857 105.967 106.473 104.836C106.473 104.836 109.351 103.912 111.509 104.22C111.406 104.22 111.817 106.275 110.275 107.817ZM108.837 102.678C108.323 102.678 107.295 102.781 107.09 102.781C107.09 102.781 106.473 100.418 109.042 99.9039C111.303 99.4928 113.153 100.109 113.153 100.109C113.153 100.109 112.845 101.651 112.228 102.473C112.331 102.473 109.248 102.678 108.837 102.678ZM118.394 105.864C117.674 106.275 116.75 106.686 115.105 106.789C113.461 106.995 112.845 107.2 112.845 107.2C112.845 107.2 112.331 105.248 113.872 104.425C115.516 103.501 117.777 103.809 119.319 104.631C119.319 104.528 119.113 105.453 118.394 105.864ZM119.627 102.678C118.599 103.09 116.75 102.576 116.441 102.576C116.133 102.473 115.208 102.37 114.694 102.37C114.694 102.37 114.592 100.315 116.647 100.007C118.702 99.6983 120.449 101.034 120.552 101.24C120.449 101.24 120.655 102.37 119.627 102.678ZM123.429 105.761C123.429 105.761 122.71 105.864 122.504 105.761C122.299 105.761 121.785 105.761 121.374 105.453C121.374 105.453 121.374 104.939 122.299 104.836C123.121 104.631 123.635 105.145 123.429 105.761ZM123.326 103.398C122.504 102.987 121.99 102.678 121.99 102.678C121.99 102.678 122.196 101.856 123.018 101.856C123.84 101.856 124.971 102.781 125.176 103.809C125.176 103.912 124.148 103.912 123.326 103.398ZM123.84 112.338C117.777 111.208 109.864 114.496 109.864 114.496C112.228 114.804 113.667 114.907 116.441 114.599C119.216 114.188 121.785 113.777 127.026 117.065C132.37 120.354 135.144 118.607 135.144 118.607C131.856 115.216 130.109 113.571 123.84 112.338ZM187.245 49.2417C176.352 37.0129 159.807 30.436 140.693 30.436C128.465 30.436 116.236 33.3134 106.165 38.5543C86.9482 48.5223 76.1581 68.4584 72.4587 76.5766L68.7592 84.6949L64.5459 89.011C60.8464 92.8132 58.4829 97.0265 57.2497 101.548L50.2618 112.749C50.2618 112.749 38.033 100.623 37.7247 100.315C37.5192 98.8762 37.2109 97.4375 36.4916 96.2044C35.464 94.2519 33.8197 93.0187 31.6617 92.6077C30.7369 92.4022 29.9148 92.2994 28.9899 92.2994C23.0296 92.2994 17.2749 95.9989 10.1842 104.323C7.71793 107.303 5.35439 111.002 3.81294 114.599C1.86044 119.121 1.1411 123.334 1.75768 126.725C2.37426 130.013 3.9157 131.863 7.30688 133.61C8.54003 134.227 11.5202 134.124 14.7058 135.254C16.9666 136.076 18.6108 137.104 18.6108 137.104C16.6583 138.029 14.9113 139.776 14.0892 142.139C12.8561 145.839 12.9588 151.696 12.9588 151.696C12.7533 156.424 15.3224 165.98 26.7291 168.139C27.8595 168.344 29.0926 168.447 30.3258 168.447C38.5468 168.447 45.432 163.309 50.9812 159.198C52.6254 157.965 54.0641 156.835 55.5027 155.91L57.147 154.882L78.83 164.953L79.9604 165.467C80.2686 167.214 81.0908 168.755 82.4267 169.783C83.5571 170.605 84.893 171.016 86.3317 171.016C89.3118 171.016 92.4975 169.269 94.7582 166.289C98.2522 161.664 98.3549 156.115 94.9638 153.443C93.8334 152.621 92.4974 152.21 91.0588 152.21C90.6477 152.21 90.2367 152.313 89.9284 152.313L88.9007 151.285C87.9759 150.361 86.6399 149.025 85.0985 147.483C86.3317 147.278 88.4897 147.072 91.3671 147.072C97.1218 147.072 106.473 147.997 118.188 152.107C126.204 154.985 132.472 156.321 137.713 158.479C142.954 160.637 148.914 162.898 148.914 162.898C151.381 163.822 154.155 164.336 157.033 164.336C163.918 164.336 170.392 161.664 173.475 157.451C175.53 154.677 176.455 151.08 175.838 147.689C175.324 144.503 173.68 141.831 171.317 139.981C169.159 138.337 166.487 137.515 163.712 137.515C160.013 137.515 156.313 139.057 154.258 141.42C153.95 141.728 153.744 142.037 153.436 142.448C152.1 140.804 150.456 138.851 148.298 136.899C156.211 137.926 169.364 133.302 169.364 133.302C174.091 131.555 182.21 125.903 178.921 116.449C177.688 112.749 175.119 110.283 171.831 109.255L171.008 107.406C170.392 105.967 168.337 103.501 164.945 103.501C163.815 103.501 161.657 103.603 160.218 105.761C159.191 107.2 159.191 109.564 160.629 111.516C159.088 112.955 157.855 114.804 157.341 116.963C155.594 116.038 153.744 114.291 153.128 110.797C151.997 104.323 155.697 99.8011 159.088 96.6154C159.602 96.1016 160.218 95.6906 160.835 95.1768C163.609 93.0187 167.103 90.2441 168.85 81.9203C169.159 80.3789 169.981 78.3236 173.166 78.3236H173.269C176.558 78.4264 178.51 82.0231 176.969 84.7977C176.352 85.8253 175.633 86.9557 174.4 87.9833C174.4 87.9833 175.427 89.2165 176.969 90.2441C178.921 91.4773 182.004 91.9911 183.751 91.7856C186.32 91.4773 189.711 90.6552 192.486 87.9833C195.466 85.2087 197.624 80.7899 198.241 75.8573C198.857 69.7943 197.007 60.2373 187.245 49.2417ZM58.3801 117.476C58.7912 118.401 59.2022 119.326 59.6133 120.148C59.5105 120.148 59.5105 120.148 59.5105 120.251C59.2022 120.354 58.9967 120.456 58.8939 120.559C58.6884 120.662 58.4829 120.765 58.1746 120.765C57.9691 120.559 57.8663 120.456 57.7635 120.354C57.4552 120.045 57.0442 119.634 56.7359 119.326C56.7359 119.223 56.7359 119.223 56.7359 119.121C56.8387 118.709 57.0442 118.196 57.4552 117.99C57.4552 117.785 57.7635 117.579 58.3801 117.476ZM56.4276 108.433C56.5304 109.975 56.6331 111.516 56.9414 113.058C57.0442 113.571 57.147 113.982 57.3525 114.496C56.6331 114.804 56.1193 115.01 55.9138 115.113C55.2972 115.524 54.6806 116.038 54.2696 116.654C53.653 116.038 53.0364 115.421 52.4199 114.804C53.7558 112.646 55.0917 110.591 56.4276 108.433ZM4.84057 126.211C3.71018 120.045 8.23175 111.311 12.5478 106.275C19.844 97.7458 25.3932 94.4574 31.0451 95.485C32.2783 95.7933 33.2032 96.5127 33.717 97.5403C32.8949 97.232 31.97 97.1292 30.9424 97.1292C29.7092 97.1292 28.3733 97.4375 27.0374 97.9514C19.844 100.623 11.6229 110.077 8.23175 119.429C6.6903 123.745 6.6903 127.342 8.12899 130.116C8.23175 130.322 8.33451 130.527 8.43728 130.63C6.9986 130.219 5.35439 128.986 4.84057 126.211ZM21.3854 139.57C24.7766 139.057 25.907 141.728 25.907 141.728C23.0296 142.037 22.6186 144.606 23.2352 146.456C24.0573 149.127 27.9623 150.155 27.9623 150.155C24.2628 152.724 20.4606 152.005 17.9942 149.23C15.2196 145.942 17.3777 140.084 21.3854 139.57ZM28.9899 141.112L34.2308 143.681C33.9225 144.092 33.5115 144.606 33.1004 145.12C31.559 146.969 28.8871 147.483 26.9346 146.353C26.7291 146.147 26.5236 146.044 26.4208 145.942C26.1125 145.531 26.1125 145.017 26.2153 144.709C26.7291 143.27 29.812 144.503 29.812 144.503C29.812 144.503 29.5037 142.448 28.9899 141.112ZM27.4484 165.158C15.8362 163 16.2473 151.902 16.2473 151.902C22.413 157.554 28.9899 154.368 33.8197 149.127C34.9501 147.997 35.9778 146.661 36.7999 145.428L53.8585 153.341C46.8707 157.965 38.1358 167.214 27.4484 165.158ZM93.114 155.91C95.0665 157.451 94.7582 161.253 92.2919 164.439C89.8256 167.625 86.3317 168.858 84.2764 167.419C82.3239 165.878 82.6322 162.076 85.0985 158.89C87.5648 155.704 91.1615 154.471 93.114 155.91ZM86.6399 153.443C85.0985 154.266 83.7626 155.396 82.6322 157.04C81.399 158.684 80.5769 160.431 80.1659 162.178L13.5754 131.349C13.5754 131.349 7.92346 129.602 11.1091 120.559C14.2948 111.516 22.2075 103.09 28.065 100.931C33.1004 99.0817 34.7446 101.856 37.2109 104.117C38.9579 105.659 80.4742 147.278 86.6399 153.443ZM68.9647 121.484C68.8619 121.381 68.862 121.176 68.862 121.073C68.7592 120.868 68.7592 120.662 68.6564 120.559C68.5536 120.456 68.5537 120.354 68.5537 120.251C68.4509 119.943 68.4509 119.634 68.3481 119.326C68.4509 119.429 68.5537 119.429 68.5537 119.532C72.7669 122.717 73.4863 127.547 70.4034 131.863C70.1979 132.171 69.9923 132.274 69.5813 132.377C68.9647 131.76 68.3481 131.144 67.7316 130.527C67.8343 130.322 67.8343 130.219 67.9371 130.116C68.3481 129.602 68.7592 128.78 69.0675 127.855C69.0675 127.753 69.1702 127.65 69.1702 127.547C69.273 127.033 69.3758 126.519 69.273 126.006C69.5813 124.773 69.3758 123.334 68.9647 121.484ZM69.1702 115.935C70.7117 115.318 73.178 114.907 75.4388 117.065C77.6996 119.326 75.5415 122.717 75.1305 123.334C74.5139 120.868 72.8697 118.709 70.5061 116.86C70.1979 116.551 69.684 116.243 69.1702 115.935ZM156.519 143.475C158.882 140.804 165.048 139.262 169.467 142.448C173.475 145.428 173.886 151.491 171.008 155.396C167.514 160.123 157.649 162.692 150.045 159.815C150.045 159.815 158.574 158.89 161.143 156.012C163.712 153.135 162.479 150.052 161.04 149.23C159.807 148.408 158.163 147.997 154.361 149.538C154.464 149.641 154.155 146.147 156.519 143.475ZM162.787 107.097C166.692 105.35 168.131 108.741 168.131 108.741C165.048 108.947 163.096 109.666 163.096 109.666C162.068 108.536 162.787 107.097 162.787 107.097ZM166.384 111.927C169.878 111.413 174.194 112.338 176.044 117.579C179.229 126.622 168.337 130.424 168.337 130.424C168.337 130.424 170.392 127.342 170.289 124.773C170.084 120.765 167.823 121.587 166.179 123.334C165.048 124.67 162.376 125.081 161.04 123.128C160.527 122.306 160.218 121.587 160.116 120.251C159.602 116.038 162.89 112.441 166.384 111.927ZM165.87 81.201C163.918 90.3469 160.013 91.3745 156.93 94.2519C154.258 96.821 148.503 102.576 150.148 111.208C151.175 116.963 154.772 119.223 157.135 120.148C157.135 120.354 157.135 120.456 157.238 120.662C157.444 122.306 157.855 123.437 158.677 124.67C159.807 126.417 161.657 127.547 163.815 127.547C165.562 127.444 167.206 126.622 167.206 126.622C166.59 128.266 165.562 129.705 163.918 130.836C157.135 135.46 145.318 134.741 138.227 130.116C129.492 124.361 125.176 126.622 125.176 126.622C139.768 131.349 148.195 140.187 152.306 145.633C151.278 149.333 152.203 152.724 152.511 153.854L155.902 152.416C157.444 151.799 157.855 151.696 158.266 151.594C158.574 151.594 159.191 151.696 159.499 152.21C159.807 152.724 159.396 153.546 158.985 153.957C157.752 155.293 152.306 157.143 146.345 156.424C140.282 155.601 131.958 153.341 119.524 148.922C97.6356 141.112 83.4543 144.4 83.4543 144.4C80.8852 142.653 74.5139 135.768 72.8697 133.918C73.0752 133.713 73.2808 133.507 73.4863 133.302C74.7194 131.658 75.4388 129.911 75.7471 128.061L77.9051 125.184C80.1659 122.306 81.0908 117.785 78.0079 114.702C76.2609 113.058 74.2056 112.133 71.9448 112.133C71.1227 112.133 70.0951 112.235 68.9647 112.441C71.431 98.4652 87.8731 102.37 87.8731 102.37C84.4819 98.8762 74.0001 97.8486 68.5537 105.659C63.21 113.263 66.6012 123.026 66.6012 123.026C66.4984 123.026 66.4984 122.923 66.4984 122.923V123.026C62.9017 121.587 53.1392 105.248 67.0122 90.9635V91.0662L67.115 90.9635C79.4465 78.2209 99.177 85.0032 99.177 85.0032C91.5726 76.6794 76.5692 81.9203 76.5692 81.9203C76.5692 81.9203 85.7151 66.3003 105.548 61.0594C128.156 54.9964 145.318 69.897 145.318 69.897C144.084 73.2882 143.879 79.7623 150.559 82.4341C156.827 84.9004 161.349 79.6595 163.301 76.6794C165.254 73.6993 168.85 68.4584 174.708 70.6164C179.641 72.4661 178.613 77.1932 178.613 77.1932C177.585 75.2407 167.72 72.5689 165.87 81.201ZM190.533 85.7226C187.142 89.3193 181.49 89.6276 178.407 87.6751C178.407 87.6751 182.621 82.9479 181.593 75.7545C181.182 72.8772 179.949 69.1777 175.53 67.5335C174.297 67.1224 173.064 66.9169 171.831 66.9169C165.87 66.9169 162.376 72.0551 160.527 74.9324C158.985 77.1932 156.519 79.9678 153.539 79.9678C152.922 79.9678 152.203 79.7623 151.381 79.5568C150.456 79.1457 145.729 76.9877 147.99 71.0274L148.709 69.0749L147.065 67.6363C146.551 67.2252 134.116 56.6406 116.236 56.6406C112.331 56.6406 108.323 57.1544 104.418 58.1821C88.2842 62.4981 78.9327 72.9799 75.2333 77.9126C78.6244 70.4109 89.209 50.8859 107.604 41.4317C130.725 29.4084 165.87 30.1277 184.881 51.3997C201.015 69.2805 193.925 82.2286 190.533 85.7226ZM45.6375 135.049L52.0088 126.931L48.7204 124.464L40.0883 136.076L46.1513 139.673L47.8983 136.899L45.6375 135.049ZM71.6366 155.088L73.0752 153.443L71.1227 152.005L71.7393 151.388L72.9725 152.21L74.4111 150.566L73.178 149.641L73.7946 148.819L76.0554 150.361L77.494 148.511L73.0752 145.222L67.4233 152.519L71.6366 155.088ZM60.3326 148.202L62.4906 145.839L62.6962 149.949L64.8542 151.183L71.02 143.578L68.6564 141.523L66.9094 142.551L66.6012 139.468L64.3404 137.721L57.2497 146.558L60.3326 148.202ZM46.7679 139.981L49.748 142.139L51.906 140.804L53.9613 142.345L53.5502 144.092L56.6331 145.839L61.5658 135.152L57.6608 131.76L46.7679 139.981ZM56.3249 139.879L54.3724 138.234L57.6608 136.179L56.3249 139.879ZM117.161 91.0662C119.216 92.6077 121.682 93.6353 124.662 93.327C124.662 93.327 125.176 93.327 126.101 94.2519C126.409 94.5602 127.129 95.1768 127.951 95.074C127.951 95.074 128.362 84.1811 125.998 75.9601C122.71 64.3478 113.564 64.4506 113.564 64.4506C113.564 64.4506 119.01 67.328 120.655 71.8495C120.655 71.8495 114.283 73.6993 112.845 79.454C111.406 84.6949 114.797 89.3193 117.161 91.0662ZM117.263 79.1457C119.319 75.549 122.813 76.6794 122.813 76.6794C122.813 76.6794 123.737 79.2485 124.354 85.0032C124.354 85.0032 120.449 83.8728 117.058 86.3391C117.161 86.4419 115.208 82.8452 117.263 79.1457Z" fill="black"/>
<path d="M174.399 70.5107C168.645 68.3527 165.048 73.5936 162.993 76.5737C161.04 79.5539 156.518 84.7948 150.25 82.3285C143.57 79.7594 143.776 73.2853 145.009 69.7914C145.009 69.7914 127.848 54.9935 105.24 60.9538C85.3037 66.2974 76.2605 81.8146 76.2605 81.8146C76.2605 81.8146 91.3667 76.5737 98.8684 84.8975C98.8684 84.8975 79.1379 78.1152 66.7036 90.9606L66.6008 91.0633V90.9606C52.8305 105.245 62.593 121.584 66.087 123.023C66.087 123.023 66.087 123.023 66.087 122.92C66.1897 122.92 66.1898 123.023 66.1898 123.023C66.1898 123.023 62.9013 113.26 68.1422 105.656C73.5887 97.8457 84.0705 98.8733 87.4617 102.367C87.4617 102.367 71.1224 98.4623 68.5533 112.438C69.6837 112.233 70.7113 112.13 71.5334 112.13C73.7942 112.13 75.8495 113.055 77.5965 114.699C80.6793 117.782 79.7545 122.303 77.4937 125.181L75.3357 128.058C75.0274 129.805 74.308 131.655 73.0749 133.299C72.8693 133.504 72.6638 133.71 72.4583 133.916C74.1025 135.765 80.4738 142.65 83.0429 144.397C83.0429 144.397 97.2242 141.212 119.113 148.919C131.65 153.338 139.974 155.599 145.934 156.421C151.791 157.037 157.238 155.29 158.574 153.954C158.985 153.543 159.396 152.721 159.088 152.207C158.779 151.694 158.163 151.591 157.854 151.591C157.546 151.694 157.032 151.694 155.491 152.413L152.1 153.852C151.791 152.721 150.867 149.227 151.894 145.631C147.886 140.184 139.357 131.346 124.765 126.619C124.765 126.619 129.081 124.359 137.816 130.113C144.906 134.738 156.724 135.457 163.506 130.833C165.151 129.702 166.178 128.264 166.795 126.619C166.795 126.619 165.151 127.544 163.404 127.544C161.246 127.647 159.396 126.517 158.265 124.667C157.443 123.434 157.032 122.201 156.827 120.659C156.827 120.454 156.827 120.351 156.724 120.145C154.36 119.22 150.764 116.96 149.736 111.205C148.195 102.47 153.949 96.8181 156.518 94.249C159.499 91.3716 163.506 90.344 165.459 81.1981C167.309 72.566 177.277 75.2378 177.996 76.9848C178.304 76.9848 179.332 72.2577 174.399 70.5107ZM112.741 79.4511C114.283 73.6964 120.551 71.8466 120.551 71.8466C119.01 67.3251 113.461 64.4477 113.461 64.4477C113.461 64.4477 122.607 64.3449 125.895 75.9572C128.259 84.1782 127.848 95.0711 127.848 95.0711C127.025 95.1738 126.306 94.5573 125.998 94.249C125.176 93.3241 124.559 93.3241 124.559 93.3241C121.579 93.6324 119.113 92.6048 117.057 91.0633C114.797 89.3164 111.405 84.692 112.741 79.4511ZM127.128 117.165C121.785 113.877 119.318 114.288 116.544 114.699C113.769 115.11 112.33 114.904 109.967 114.596C109.967 114.596 117.88 111.308 123.943 112.438C130.211 113.671 131.855 115.213 135.247 118.707C135.247 118.604 132.369 120.454 127.128 117.165ZM137.918 117.576C136.48 117.165 136.171 116.035 135.555 114.802C134.938 113.568 133.705 112.541 129.697 110.177C125.69 107.814 122.196 107.505 117.777 108.225C113.461 108.944 109.864 112.13 104.726 112.438C97.9435 112.746 93.5247 106.683 97.9435 101.237C101.54 96.8181 109.967 94.66 120.962 97.8457C131.855 100.929 132.986 108.225 132.986 108.225C138.432 112.541 137.918 117.576 137.918 117.576ZM156.313 89.5219C154.36 89.0081 154.155 88.6998 153.23 88.597C153.23 88.597 152.613 89.6246 152.1 91.6799C151.483 93.6324 150.764 96.9208 147.27 98.8733C144.803 100.209 141.31 100.826 138.021 99.9009C134.733 98.8733 133.602 97.4346 133.602 97.4346C133.602 97.4346 132.883 97.6402 132.061 97.4346C131.239 97.2291 130.93 97.2291 130.622 97.2291C130.622 97.2291 138.021 90.1385 142.748 88.0832C147.27 86.1307 153.847 84.692 158.471 89.2136C158.471 89.2136 157.957 89.9329 156.313 89.5219ZM56.4273 108.43C55.0913 110.486 53.8582 112.644 52.5223 114.802C53.1388 115.418 53.7554 116.035 54.372 116.651C54.7831 116.035 55.2969 115.521 56.0162 115.11C56.2217 115.007 56.6328 114.802 57.4549 114.493C57.3521 113.979 57.1466 113.568 57.0438 113.055C56.6328 111.513 56.4273 109.972 56.4273 108.43ZM33.8194 149.227C28.9895 154.468 22.4127 157.654 16.2469 152.002C16.2469 152.002 15.8359 163.1 27.4481 165.258C38.2382 167.211 46.8703 158.065 53.9609 153.543L36.9023 145.631C35.8747 146.761 34.847 147.994 33.8194 149.227Z" fill="#006548"/>
<path d="M162.788 107.096C162.788 107.096 161.966 108.534 163.199 109.665C163.199 109.665 165.151 108.945 168.234 108.74C168.131 108.74 166.693 105.451 162.788 107.096ZM166.384 111.926C162.993 112.439 159.705 116.036 160.219 120.352C160.424 121.585 160.63 122.305 161.144 123.229C162.377 125.182 165.049 124.771 166.282 123.435C167.926 121.585 170.187 120.866 170.392 124.874C170.495 127.443 168.44 130.526 168.44 130.526C168.44 130.526 179.23 126.621 176.147 117.68C174.194 112.337 169.776 111.412 166.384 111.926ZM169.467 142.549C165.049 139.26 158.883 140.905 156.519 143.577C154.156 146.248 154.361 149.64 154.361 149.64C158.163 147.995 159.808 148.509 161.041 149.331C162.377 150.256 163.61 153.339 161.144 156.114C158.574 158.991 150.045 159.916 150.045 159.916C157.65 162.896 167.515 160.224 171.009 155.497C173.886 151.592 173.578 145.529 169.467 142.549ZM75.1309 123.332C75.5419 122.716 77.7 119.324 75.4392 117.064C73.1784 114.803 70.7121 115.317 69.1706 115.933C69.5817 116.242 70.0955 116.55 70.6093 116.858C72.9729 118.708 74.5143 120.969 75.1309 123.332ZM105.446 101.238C101.335 101.649 101.644 104.527 101.644 104.527C102.569 104.218 103.082 104.218 104.213 103.704C105.857 103.088 105.446 101.238 105.446 101.238ZM123.018 101.957C122.196 101.957 121.991 102.78 121.991 102.78C121.991 102.78 122.505 103.088 123.327 103.499C124.149 103.91 125.176 103.91 125.176 103.91C124.971 102.882 123.841 101.957 123.018 101.957ZM113.873 104.424C112.228 105.349 112.845 107.198 112.845 107.198C112.845 107.198 113.462 106.993 115.106 106.787C116.75 106.582 117.675 106.274 118.394 105.862C119.113 105.451 119.319 104.527 119.319 104.527C117.778 103.807 115.517 103.499 113.873 104.424ZM124.354 85.1044C123.841 79.3496 122.813 76.7805 122.813 76.7805C122.813 76.7805 119.319 75.5474 117.264 79.2469C115.106 82.9463 117.058 86.543 117.058 86.543C120.449 83.974 124.354 85.1044 124.354 85.1044ZM122.299 104.732C121.374 104.835 121.374 105.349 121.374 105.349C121.785 105.657 122.299 105.657 122.505 105.657C122.71 105.657 123.43 105.657 123.43 105.657C123.635 105.143 123.121 104.629 122.299 104.732ZM136.48 96.9221C136.686 96.9221 136.891 97.0249 137.405 97.1276C137.919 97.3332 138.536 97.2304 138.536 97.2304C141.413 91.3729 147.784 94.353 147.784 94.353C149.531 91.8867 148.195 89.6259 148.195 89.6259C138.33 92.0922 136.48 96.9221 136.48 96.9221ZM116.544 100.108C114.489 100.416 114.592 102.471 114.592 102.471C115.208 102.369 116.031 102.677 116.339 102.677C116.647 102.677 118.497 103.191 119.525 102.78C120.552 102.369 120.449 101.341 120.449 101.341C120.347 101.033 118.6 99.7995 116.544 100.108ZM106.371 104.835C105.754 105.965 104.829 108.945 104.829 108.945C106.474 109.459 108.529 109.356 110.173 107.815C111.817 106.274 111.303 104.218 111.303 104.218C109.145 103.91 106.371 104.835 106.371 104.835ZM109.043 99.9022C106.371 100.416 107.09 102.78 107.09 102.78C107.398 102.677 108.323 102.677 108.837 102.677C109.351 102.677 112.331 102.471 112.331 102.471C112.845 101.649 113.256 100.108 113.256 100.108C113.256 100.108 111.303 99.4912 109.043 99.9022ZM100.822 107.198C101.438 108.637 103.185 108.329 103.185 108.329C103.699 107.301 104.007 105.451 104.007 105.451C103.802 105.451 102.466 105.657 101.644 106.068C100.822 106.479 100.822 107.198 100.822 107.198ZM56.7363 118.913C56.7363 119.016 56.7363 119.016 56.7363 119.119C57.0446 119.427 57.3529 119.735 57.7639 120.147C57.9695 120.352 58.0722 120.455 58.175 120.558C58.3805 120.558 58.6888 120.455 58.8943 120.352C58.9971 120.352 59.2026 120.249 59.5109 120.044C59.6137 120.044 59.6137 120.044 59.6137 119.941C59.2026 119.119 58.6888 118.194 58.3805 117.269C57.8667 117.475 57.5584 117.68 57.4556 117.68C57.0446 118.091 56.7363 118.502 56.7363 118.913ZM8.23214 119.53C11.5206 110.179 19.7416 100.724 27.0378 98.0525C28.4765 97.5387 29.7096 97.2304 30.9428 97.2304C31.9704 97.2304 32.8953 97.4359 33.7174 97.6414C33.2036 96.6138 32.2787 95.8945 31.0455 95.5862C25.4963 94.4558 19.8444 97.7442 12.5482 106.376C8.23215 111.412 3.71057 120.044 4.84096 126.312C5.35478 129.087 6.99899 130.32 8.43767 130.834C8.33491 130.628 8.23214 130.526 8.12938 130.32C6.6907 127.34 6.79346 123.743 8.23214 119.53ZM69.3762 127.751C69.0679 128.676 68.5541 129.498 68.2458 130.012C68.143 130.115 68.0402 130.32 68.0402 130.423C68.6568 131.039 69.2734 131.656 69.89 132.273C70.1983 132.17 70.4038 131.964 70.7121 131.759C73.795 127.443 73.0756 122.613 68.8623 119.427C68.7596 119.324 68.6568 119.324 68.6568 119.222C68.7596 119.53 68.7596 119.838 68.8623 120.147C68.8623 120.249 68.8623 120.352 68.9651 120.455C69.0679 120.66 69.0679 120.866 69.1706 120.969C69.2734 121.174 69.2734 121.277 69.2734 121.38C69.6844 123.332 69.7872 124.771 69.7872 125.799C69.89 126.312 69.7872 126.826 69.6844 127.34C69.3761 127.545 69.3762 127.648 69.3762 127.751ZM86.6403 153.442C80.4746 147.173 38.8555 105.554 37.2113 104.116C34.745 101.855 33.1008 98.9774 28.0654 100.93C22.2079 103.191 14.3979 111.514 11.1095 120.558C7.92385 129.601 13.5758 131.348 13.5758 131.348L80.0635 162.177C80.4746 160.43 81.2967 158.58 82.5298 157.038C83.763 155.497 85.2017 154.264 86.6403 153.442ZM20.2554 123.743L28.0654 112.85L25.8046 110.898L28.8875 106.993L37.0058 114.495L34.0257 117.68L31.8676 116.036L23.9549 126.312L20.2554 123.743ZM32.1759 131.964C28.3737 129.292 30.429 125.696 31.5594 124.154C32.6898 122.613 38.3417 115.625 38.3417 115.625L41.1163 118.091C41.1163 118.091 35.4643 125.593 35.0533 126.21C34.4367 127.134 34.5395 128.881 35.9782 128.162C37.7251 127.237 43.4799 120.044 43.4799 120.044L46.3572 122.613C46.3572 122.613 40.0887 130.115 39.6776 130.628C39.2666 131.348 35.8754 134.533 32.1759 131.964ZM39.9859 136.075L48.618 124.463L51.9064 126.929L45.5351 135.047L47.7959 136.794L46.0489 139.569L39.9859 136.075ZM53.4479 144.09L53.8589 142.343L51.8037 140.802L49.6457 142.138L46.6655 139.98L57.4556 131.862L61.3606 135.253L56.428 145.94L53.4479 144.09ZM62.6966 149.948L62.491 145.837L60.333 148.201L57.3529 146.557L64.4435 137.719L66.7043 139.466L67.0126 142.549L68.7596 141.521L71.1231 143.577L64.9573 151.181L62.6966 149.948ZM75.953 150.256L73.6922 148.715L73.0756 149.537L74.3088 150.462L72.8701 152.106L71.6369 151.284L71.0204 151.9L72.9729 153.339L71.5342 154.983L67.1154 152.209L72.8701 144.912L77.2889 148.201L75.953 150.256ZM54.3727 138.336L56.3252 139.98L57.7639 136.28L54.3727 138.336ZM25.9074 141.727C25.9074 141.727 24.8798 139.055 21.3858 139.569C17.3781 140.185 15.22 146.043 18.0974 149.228C20.5637 152.106 24.2632 152.825 28.0654 150.153C28.0654 150.153 24.1604 149.228 23.3383 146.454C22.619 144.604 23.03 142.035 25.9074 141.727ZM93.1144 155.908C91.1619 154.367 87.4624 155.703 85.0989 158.888C82.6326 162.074 82.3243 165.876 84.2768 167.418C86.2293 168.959 89.9288 167.623 92.2923 164.437C94.7586 161.252 95.1697 157.552 93.1144 155.908ZM91.7785 158.683C91.8813 159.505 91.573 161.046 90.237 162.793C89.2094 164.129 87.9763 164.951 87.0514 165.26C86.8459 166.082 86.8459 167.007 86.8459 167.007C86.6404 166.801 86.2293 166.184 86.0238 165.26C85.8182 164.746 85.921 162.896 87.5652 160.841C88.1818 159.916 89.0039 159.299 89.7232 158.888C90.6481 158.169 91.984 157.758 92.9089 157.758C92.9089 157.655 92.2923 157.963 91.7785 158.683ZM140.694 34.6477C158.574 34.6477 173.989 40.8135 184.06 52.1174C201.735 71.9507 190.123 84.385 189.712 84.8988C187.965 86.6458 185.498 87.6734 183.032 87.6734C182.004 87.6734 181.08 87.4679 180.155 87.2624C181.388 85.3099 183.443 81.1994 182.724 75.6502C182.107 70.9231 179.744 67.9429 175.941 66.5042C174.606 65.9904 173.167 65.6821 171.831 65.6821C165.254 65.6821 161.555 71.1286 159.602 74.2115C158.472 75.8557 156.211 78.733 153.642 78.733C153.128 78.733 152.614 78.6303 151.998 78.4248C147.682 76.7806 148.812 72.5673 149.223 71.3341L149.942 69.3816L150.251 68.5595L149.634 68.0457L147.99 66.607C147.476 66.196 134.733 55.3031 116.339 55.3031C112.331 55.3031 108.221 55.8169 104.316 56.9473C93.731 59.8247 86.0238 65.1683 80.8856 69.9982C86.1265 60.955 95.1697 49.0345 108.323 42.2522C117.572 37.3195 129.184 34.6477 140.694 34.6477ZM140.694 33.4146C128.979 33.4146 117.161 36.1892 107.604 41.2245C89.2094 50.7815 78.7276 70.3065 75.2337 77.7054C78.9331 72.7728 88.2846 62.291 104.418 57.9749C108.221 56.9473 112.228 56.4335 116.236 56.4335C134.117 56.4335 146.551 67.0181 147.065 67.4291L148.709 68.8678L147.99 70.8203C145.832 76.8833 150.456 79.0413 151.381 79.3496C152.1 79.6579 152.82 79.7607 153.539 79.7607C156.519 79.7607 158.986 77.0888 160.527 74.7253C162.377 71.9507 165.871 66.7098 171.831 66.7098C173.064 66.7098 174.297 66.9153 175.53 67.3264C180.052 68.9706 181.182 72.67 181.593 75.5474C182.621 82.7408 178.408 87.4679 178.408 87.4679C179.641 88.29 181.285 88.5983 183.032 88.5983C185.601 88.5983 188.479 87.6734 190.534 85.5154C193.925 81.9187 201.016 69.0733 184.882 51.0898C173.783 38.861 157.239 33.4146 140.694 33.4146Z" fill="white"/>
<path d="M180.565 165.158C180.052 165.672 179.332 165.98 178.51 165.98C177.688 165.98 176.969 165.672 176.455 165.158C175.941 164.644 175.633 163.925 175.633 163.102C175.633 162.28 175.941 161.561 176.558 160.944C177.071 160.431 177.791 160.122 178.51 160.122C179.332 160.122 180.052 160.431 180.565 160.944C181.079 161.458 181.388 162.178 181.388 163C181.49 163.925 181.182 164.541 180.565 165.158ZM176.866 161.355C176.455 161.767 176.249 162.383 176.249 163C176.249 163.616 176.455 164.233 176.969 164.747C177.38 165.158 177.996 165.466 178.613 165.466C179.23 165.466 179.846 165.26 180.257 164.747C180.668 164.233 180.976 163.719 180.976 163C180.976 162.383 180.771 161.767 180.257 161.355C179.846 160.842 179.23 160.636 178.613 160.636C177.996 160.636 177.38 160.842 176.866 161.355ZM177.38 164.644V161.458C177.585 161.458 177.894 161.458 178.305 161.458C178.716 161.458 178.921 161.458 178.921 161.458C179.23 161.458 179.332 161.561 179.538 161.664C179.846 161.869 179.949 162.075 179.949 162.486C179.949 162.794 179.846 162.897 179.743 163.102C179.538 163.205 179.435 163.308 179.23 163.308C179.435 163.411 179.538 163.411 179.641 163.513C179.846 163.719 179.949 163.925 179.949 164.233V164.541C179.949 164.644 179.949 164.644 179.949 164.644V164.747L180.052 164.849H179.23C179.23 164.747 179.127 164.541 179.127 164.438C179.127 164.233 179.127 164.13 179.024 164.027C178.921 163.925 178.921 163.822 178.818 163.822C178.716 163.822 178.613 163.719 178.51 163.719H178.305H178.099V164.849L177.38 164.644ZM178.818 162.075C178.716 161.972 178.51 161.972 178.305 161.972H178.099V162.897H178.407C178.613 162.897 178.716 162.794 178.818 162.794C178.921 162.794 179.024 162.589 179.024 162.383C179.127 162.28 179.024 162.178 178.818 162.075Z" fill="#3A8DDE"/>
</g>
<defs>
<clipPath id="clip0_15016_302059">
<rect width="200" height="200" fill="white" transform="translate(0.105469 0.621094)"/>
</clipPath>
</defs>
</svg>
