<svg width="201" height="201" viewBox="0 0 201 201" fill="none" xmlns="http://www.w3.org/2000/svg">
<g clip-path="url(#clip0_15016_302034)">
<path d="M42.0948 66.5941C33.9465 66.5982 23.7945 67.7576 17.4306 76.6677C16.556 77.8917 16.4217 79.4474 17.0805 80.7287C17.7104 81.951 18.9667 82.71 20.3584 82.71C20.5426 82.71 20.7292 82.6976 20.9134 82.6711C24.9597 82.0943 28.8991 81.8011 32.6234 81.8011C35.9867 81.8011 39.1332 82.0346 42.002 82.4935C36.4114 90.5171 29.5822 101.373 26.9181 105.606L26.3268 106.544C26.2223 106.71 26.0937 106.917 25.9443 107.158C20.3711 116.139 17.0498 118.941 15.246 119.711C13.9224 120.276 12.6459 120.55 11.3406 120.55C9.76556 120.55 8.14511 120.154 6.3875 119.339C5.74355 119.041 5.09382 118.888 4.45816 118.888C3.07398 118.888 1.8585 119.597 1.20624 120.783C0.513292 122.043 0.601753 123.643 1.43574 124.958C4.63561 129.998 12.8318 134.256 19.3344 134.256C20.2 134.256 21.0302 134.181 21.8019 134.03C26.088 133.191 28.9332 131.574 34.4659 124.208C38.153 119.301 42.3647 112.875 45.7571 107.592C46.5604 108.092 47.5013 108.487 48.3983 108.753C48.0141 109.318 47.6961 109.783 47.4712 110.106C42.854 116.738 42.8952 121.461 43.7408 124.255C44.5848 127.039 46.5632 129.167 49.3125 130.247C50.778 130.822 52.4271 131.114 54.2137 131.114C58.5828 131.114 62.6588 129.428 64.7102 128.417C66.4595 129.823 69.2889 131.285 73.478 131.285C78.0222 131.285 83.2196 129.531 88.9402 126.069C90.6995 128.278 94.2084 131.181 100.494 131.181C106.18 131.181 112.915 128.73 120.526 123.894C124.816 128.642 131.555 131.145 140.091 131.145C147.435 131.145 153.667 129.342 156.538 128.351C158.01 129.716 159.788 130.629 161.611 130.948C162.438 131.09 163.3 131.164 164.174 131.164C167.753 131.164 171.042 129.987 173.378 128.854C174.679 130.293 176.497 131.074 178.589 131.074C180.93 131.074 183.59 130.071 186.494 128.094C188.525 126.711 190.144 125.106 191.439 123.186C192.882 121.047 192.396 119.408 191.979 118.622C191.339 117.419 190.099 116.7 188.659 116.7C187.999 116.7 187.311 116.846 186.568 117.145C186.781 116.853 187.017 116.541 187.278 116.21L187.311 116.169C187.32 116.158 187.327 116.146 187.335 116.134L199.848 98.676C200.835 97.3574 201.02 95.7351 200.328 94.3543C199.603 92.9054 198.023 92.0048 196.207 92.0048H192.234C191.046 92.0048 189.984 92.2357 189.065 92.6946C187.374 91.561 185.127 90.9649 182.51 90.9649C179.021 90.9649 175.106 92.0042 171.767 93.8175C166.402 96.7293 160.988 102.561 156.109 110.679C155.399 111.86 154.667 112.876 153.921 113.718C154.303 108.613 153.454 103.283 152.585 99.4445L152.572 99.3875C152.553 99.3037 152.538 99.2386 152.529 99.193C152.48 98.9598 152.544 98.8691 152.61 98.8027C153.168 98.2392 153.585 97.9437 154.161 97.5346C154.487 97.3039 154.852 97.0469 155.27 96.7216C156.93 95.4295 157.059 93.6253 156.664 92.4751C155.589 89.345 151.053 89.1026 149.689 89.1026C145.783 89.1026 141.209 91.3179 135.292 96.0746C123.015 105.946 109.241 116.321 102.768 117.783C102.577 117.827 102.315 117.692 102.641 117.426C102.793 117.304 103.315 116.917 103.55 116.753C124.458 102.22 136.919 88.1049 137.736 78.0293C137.998 74.8037 137.068 72.0641 135.047 70.108C133.266 68.3819 130.852 67.4706 128.069 67.4706C123.573 67.4706 115.943 69.9079 105.126 81.5182C96.534 90.7393 91.3591 99.0537 87.3088 110.16C83.5605 113.978 79.9299 116.003 77.3713 116.936C77.6012 116.598 77.8125 116.295 77.9768 116.057C81.0398 111.633 89.2082 100.34 90.4298 98.6898C91.4264 97.3579 91.6107 95.7347 90.9186 94.3539C90.1933 92.905 88.6144 92.0044 86.7979 92.0044H82.4231C78.8532 92.0044 77.3676 94.08 76.5702 95.1953L76.3355 95.5195C76.3247 95.5344 76.3135 95.5491 76.3044 95.5649L76.2732 95.6128C75.2492 97.1796 70.6219 103.49 66.1465 109.593L66.092 109.667L65.353 110.673C63.2983 113.477 60.945 115.43 59.3418 116.253C58.9152 116.472 59.0789 116.163 59.2108 115.977C60.9427 113.528 68.7772 102.452 71.5131 98.6462C72.4956 97.2794 72.667 95.6541 71.9708 94.2973C71.2355 92.8626 69.6943 92.0049 67.8488 92.0049H63.5556C61.091 92.0049 59.0874 92.7046 57.4278 94.1444C57.1954 94.346 56.9545 94.5576 56.7055 94.7758C55.206 96.0936 53.4572 97.6303 51.2415 99.0028C51.288 98.9281 51.3364 98.8554 51.3829 98.7824C55.9453 91.6995 58.5368 87.7714 60.0444 85.9431C63.6418 86.7812 69.3984 87.6222 75.5259 87.6222C89.6173 87.6222 98.4833 83.3506 101.16 75.2682C101.763 73.4509 101.151 72.2091 100.733 71.6299C100.05 70.6839 98.9483 70.1413 97.711 70.1413C97.1509 70.1413 96.557 70.2501 95.9438 70.4642C92.7679 71.5737 89.0275 72.1122 84.5099 72.1122C76.8355 72.1122 68.17 70.4946 60.5248 69.0664C53.7241 67.7968 47.2991 66.5962 42.1581 66.5938H42.0933L42.0948 66.5941ZM179.649 104.576C177.999 106.828 175.601 110.054 173.961 112.055C172.476 113.867 170.429 115.346 168.82 116.136C168.308 116.386 168.416 116.071 168.485 115.892C168.972 114.645 170.01 112.719 172.224 110.087C174.594 107.268 177.579 105.472 179.649 104.576ZM140.621 108.84C140.89 112.07 140.515 114.599 139.549 115.926C138.835 116.904 137.725 117.4 136.247 117.4C134.74 117.4 133.083 116.825 131.769 115.883C134.027 114.068 137.394 111.374 140.621 108.84Z" fill="#F5002E"/>
<path d="M42.1437 67.6678C34.2443 67.6678 24.395 68.7609 18.304 77.2899C17.6634 78.1854 17.5609 79.3152 18.0356 80.2372C18.4796 81.1002 19.3703 81.6376 20.3578 81.6376C20.4864 81.6376 20.6204 81.6277 20.7598 81.6077C24.8575 81.0235 28.8491 80.7286 32.6225 80.7286C37.5011 80.7286 41.2535 81.2186 43.846 81.7322C38.1193 89.8155 30.7212 101.573 27.826 106.176L27.2348 107.116C27.1302 107.281 27.0034 107.486 26.8549 107.724C22.2617 115.126 18.4974 119.491 15.666 120.7C14.2062 121.321 12.7922 121.624 11.3391 121.624C9.60473 121.624 7.8371 121.196 5.93345 120.313C5.43305 120.081 4.93538 119.962 4.4566 119.962C3.46995 119.962 2.60525 120.463 2.14472 121.3C1.64018 122.218 1.71564 123.399 2.34051 124.383C5.31632 129.07 13.2566 133.184 19.333 133.185H19.3343C20.1293 133.185 20.8893 133.115 21.593 132.977C26.582 132.002 29.2203 129.403 33.6065 123.565C37.4171 118.492 41.7894 111.795 45.4732 106.043C46.5537 107.046 48.6212 107.863 50.1813 108.034C49.3887 109.203 48.7346 110.166 48.3504 110.718C43.9796 116.997 43.9882 121.376 44.7666 123.943C45.5126 126.407 47.2661 128.29 49.7041 129.248C51.0435 129.774 52.5603 130.04 54.2125 130.04C58.2812 130.04 62.323 128.479 64.8604 127.134C66.3283 128.475 69.0791 130.213 73.4768 130.213C78.0459 130.213 83.3333 128.337 89.2192 124.635C91.1768 127.562 94.8579 130.109 100.493 130.109C106.168 130.109 112.969 127.545 120.731 122.486C124.773 127.459 131.414 130.073 140.089 130.073C146.477 130.073 152.658 128.632 156.811 127.115C158.208 128.586 159.962 129.572 161.794 129.891C162.559 130.023 163.358 130.091 164.172 130.091C167.97 130.091 171.447 128.676 173.674 127.503C174.649 128.927 176.289 130.002 178.587 130.002C180.708 130.002 183.165 129.062 185.889 127.208C187.806 125.903 189.329 124.391 190.547 122.586C191.677 120.912 191.334 119.699 191.029 119.126C190.578 118.278 189.692 117.773 188.658 117.773C188.023 117.773 187.335 117.952 186.557 118.319C186.063 118.552 185.02 118.867 184.06 119.054C184.528 118.183 185.31 116.97 186.434 115.547L186.462 115.509L198.974 98.0528C199.726 97.0487 199.873 95.8458 199.367 94.8359C198.824 93.7513 197.612 93.0777 196.205 93.0777H192.233C190.781 93.0777 189.755 93.4597 188.994 93.9776C187.463 92.7236 185.226 92.0378 182.508 92.0378C179.193 92.0378 175.463 93.0305 172.278 94.7607C167.08 97.5814 161.808 103.278 157.028 111.232C155.362 114.003 153.775 115.562 152.497 116.438C153.518 110.833 152.618 104.461 151.537 99.6832C151.509 99.5637 151.487 99.4715 151.476 99.4109C151.334 98.7379 151.599 98.2997 151.845 98.0508C152.47 97.4193 152.944 97.0849 153.541 96.6608C153.855 96.4384 154.209 96.1875 154.607 95.8763C155.822 94.9311 155.941 93.6809 155.647 92.8254C154.781 90.3043 150.531 90.1764 149.688 90.1764C146.039 90.1764 141.679 92.3167 135.963 96.912C121.754 108.337 107.7 118.984 101.411 118.948C101.411 118.948 101.396 118.953 101.385 118.953C100.809 118.946 100.509 118.547 100.738 117.969C100.982 117.352 101.946 116.562 102.937 115.872C123.581 101.523 135.874 87.6983 136.666 77.9433C136.9 75.0481 136.082 72.6067 134.299 70.8804C132.722 69.3518 130.566 68.5452 128.068 68.5452C123.785 68.5452 116.464 70.9224 105.91 82.2508C97.3854 91.399 92.2444 99.6815 88.2379 110.744C83.0116 116.135 77.7142 118.351 74.9724 118.647C75.6155 117.583 76.5826 116.186 77.0963 115.444C80.1567 111.024 88.3476 99.7006 89.5684 98.0528C90.3194 97.0487 90.4649 95.8458 89.9587 94.8359C89.416 93.7513 88.2041 93.0777 86.7976 93.0777H82.4228C79.4047 93.0777 78.2228 94.7298 77.4411 95.8227C77.3747 95.9165 77.2038 96.152 77.2038 96.152L77.1714 96.2C76.1266 97.7983 71.4651 104.155 66.9564 110.303L66.2187 111.309C63.1018 115.559 59.8107 117.183 57.9322 117.676C57.8891 117.687 57.8471 117.691 57.8064 117.691C57.4753 117.691 57.2288 117.338 57.3798 117.012C57.5832 116.569 57.904 115.995 58.4094 115.276C60.6417 112.101 67.6943 102.121 70.6432 98.0205C71.3967 96.9716 71.5328 95.7934 71.0167 94.7867C70.469 93.7171 69.2838 93.0778 67.849 93.0778H63.5559C61.361 93.0778 59.5872 93.6923 58.1308 94.9553C57.8992 95.1561 57.6602 95.3667 57.4137 95.5842C55.12 97.599 52.3181 100.053 48.1918 101.782C49.0275 100.47 49.7991 99.2588 50.4804 98.2007C55.6063 90.2442 58.1701 86.3811 59.6604 84.7467C63.1325 85.6197 69.1153 86.549 75.5257 86.549C89.1112 86.549 97.6234 82.5317 100.141 74.9312C100.571 73.635 100.228 72.7613 99.8633 72.2576C99.3845 71.5937 98.5988 71.2138 97.7109 71.2138C97.2711 71.2138 96.7971 71.3019 96.2976 71.477C93.0055 72.6271 89.1496 73.1859 84.5098 73.1859H84.5072C76.7372 73.1859 68.0192 71.5572 60.3276 70.1207C53.5694 68.8585 47.1856 67.6675 42.1421 67.6675L42.1437 67.6678ZM122.539 82.7841C121.553 84.1758 120.151 85.9575 118.185 88.169C114.516 92.2966 110.879 95.7876 107.158 98.7518C109.409 95.5926 111.816 92.6407 115.274 89.1436C118.056 86.3313 120.58 84.2239 122.539 82.7841ZM181.471 102.866C181.775 102.866 181.972 103.219 181.781 103.482C180.541 105.192 176.996 110.053 174.797 112.736C172.71 115.282 169.406 117.291 167.567 117.823C167.526 117.834 167.483 117.841 167.443 117.841C167.194 117.841 166.979 117.631 167.003 117.367C167.115 116.117 167.978 113.477 171.409 109.397C174.774 105.397 179.443 103.228 181.397 102.872C181.423 102.867 181.447 102.866 181.471 102.866L181.471 102.866ZM141.472 106.815C141.938 109.992 142.086 114.28 140.423 116.559C139.268 118.141 137.518 118.473 136.254 118.473C134.023 118.473 131.661 117.432 130.092 115.86C132.501 113.921 137.291 110.077 141.472 106.815Z" fill="white"/>
<path d="M184.123 103.74C183.694 104.325 179.439 110.304 176.378 114.039C173.278 117.822 167.609 120.8 165.92 119.83C164.327 118.917 164.076 114.932 169.837 108.083C175.377 101.495 181.549 100.135 183.88 101.124C185.559 101.837 184.552 103.156 184.123 103.74ZM142.074 117.771C138.546 122.605 130.223 120.587 127.244 115.526C127.244 115.526 136.643 107.914 142.823 103.178C142.823 103.178 145.514 113.057 142.074 117.771ZM103.374 100.638C106.618 95.7739 109.449 92.1193 113.811 87.7071C120.188 81.26 125.831 77.8386 126.539 78.466C127.287 79.129 125.799 82.6857 119.712 89.5343C115.8 93.935 110.846 98.8684 104.688 103.149C103.071 104.273 101.652 104.9 101.447 104.743C101.141 104.51 102.061 102.609 103.374 100.638ZM197.337 96.8287C198.057 95.8652 197.292 95.1325 196.208 95.1325H192.235C190.213 95.1325 189.59 96.0859 188.859 97.1058C187.147 93.0247 179.213 93.335 173.259 96.5673C168.671 99.0576 163.648 104.203 158.787 112.293C154.091 120.107 149.483 119.609 149.483 119.609C152.528 112.101 149.709 100.965 149.473 99.8368C149.131 98.2037 149.918 97.0917 150.392 96.6129C151.503 95.4901 152.234 95.1325 153.351 94.2636C154.722 93.1964 152.207 92.2305 149.691 92.2305C147.642 92.2305 144.051 93.0454 137.251 98.5141C119.661 112.657 104.959 123.447 99.1275 120.527C96.1857 119.054 98.9266 116.171 101.771 114.194C131.753 93.3533 138.439 77.7423 132.877 72.3575C129.208 68.8049 120.379 69.7368 107.413 83.6533C99.1963 92.4703 94.1044 100.43 90.0216 111.852C83.4874 118.746 75.9848 121.565 72.9136 120.527C71.5942 120.082 72.4124 118.618 75.4139 114.282C78.4163 109.947 86.635 98.5771 87.9288 96.8287C88.6499 95.8652 87.8839 95.1325 86.801 95.1325H82.4261C80.2594 95.1325 79.6984 96.2279 78.8901 97.3257C77.7566 99.0601 72.6198 106.056 67.8748 112.525C63.2078 118.89 58.0246 120.092 56.4022 119.89C54.9002 119.702 54.0181 117.969 56.7359 114.103C58.8893 111.04 66.0193 100.947 68.9802 96.8287C69.732 95.7831 68.9353 95.1325 67.8524 95.1325H63.5588C62.2111 95.1325 60.7614 95.3938 59.4776 96.5083C56.847 98.7904 53.2447 102.248 47.4209 104.282C47.0342 104.418 46.8748 104.924 47.6698 105.271C48.9992 105.848 52.0539 106.56 54.2123 105.742C52.4165 108.393 50.766 110.845 50.0357 111.894C44.07 120.463 46.4085 125.755 50.4564 127.345C55.4239 129.296 62.3912 126.414 65.2666 124.532C65.2666 124.532 71.3759 134.367 89.9917 121.684C91.8564 126.707 100.366 133.996 121.238 119.687C128.754 131.562 148.657 128.34 157.457 124.67C158.616 126.346 160.318 127.558 162.147 127.875C167.127 128.742 172.354 126.098 174.68 124.532C174.968 126.9 177.633 130.355 184.739 125.517C187.017 123.967 188.222 122.378 188.852 121.444C189.769 120.084 189.196 119.347 187.435 120.177C186.099 120.807 182.329 121.726 181.692 121.005C180.543 119.708 184.441 114.771 184.827 114.282L197.337 96.8287ZM58.2055 83.3039C58.7673 82.6973 59.5847 82.6184 60.1341 82.757C68.8134 84.9461 93.8455 87.4149 98.1947 74.2918C98.6163 73.018 97.5516 73.2139 96.9715 73.4163C80.7382 79.0883 55.9201 69.7211 42.1423 69.7211C33.0065 69.7211 25.0251 71.4081 19.9689 78.4867C19.5839 79.0252 19.8428 79.6734 20.4693 79.5837C33.8297 77.6801 42.4584 79.2601 45.8633 80.0816C46.4533 80.2235 47.2217 80.553 46.6101 81.3961C40.3573 90.014 31.2224 104.637 28.9669 108.214C27.5354 110.483 21.7049 120.355 16.4695 122.589C13.0613 124.042 9.37266 124.172 5.06993 122.176C3.92558 121.645 3.59614 122.545 4.06915 123.289C7.01757 127.934 15.7699 132.031 21.1979 130.97C25.4376 130.141 27.6499 128.085 31.9667 122.338C37.6993 114.707 44.748 103.318 48.7561 97.0958C54.3857 88.3568 56.6637 84.9677 58.2055 83.3039Z" fill="#003366"/>
</g>
<defs>
<clipPath id="clip0_15016_302034">
<rect width="200" height="200" fill="white" transform="translate(0.742188 0.425781)"/>
</clipPath>
</defs>
</svg>
