<svg width="201" height="201" viewBox="0 0 201 201" fill="none" xmlns="http://www.w3.org/2000/svg">
<path d="M7.99184 78.3527C7.4695 87.7743 10.5904 97.9999 14.8564 104.606C22.1389 115.886 29.8663 124.721 45.0257 133.938L45.805 132.657L45.0258 133.938C56.888 141.151 68.755 146.157 79.4914 150.686C83.3728 152.323 87.1065 153.899 90.6387 155.493C104.05 161.546 114.557 167.868 120.3 178.848C120.617 179.455 121.306 179.77 121.974 179.612C122.641 179.455 123.116 178.865 123.129 178.18C123.491 158.299 114.442 134.512 89.0436 118.459C83.8252 115.16 76.7991 110.486 70.7479 105.61C67.7215 103.171 64.9671 100.704 62.8121 98.3529C61.4197 96.8336 60.3211 95.409 59.556 94.1114C61.3793 94.293 63.4792 94.6919 65.5979 95.2244C68.6913 96.0018 71.6918 97.0298 73.7359 97.9639C77.0747 99.4906 83.9798 103.919 87.6135 111.213C87.7826 111.553 88.0741 111.816 88.4293 111.949L88.9561 110.544C88.4293 111.949 88.4296 111.949 88.43 111.949L88.4307 111.949L88.4324 111.95L88.4365 111.952L88.447 111.955L88.4776 111.966C88.5023 111.975 88.5353 111.987 88.5763 112.001C88.6582 112.028 88.772 112.065 88.9134 112.106C89.1956 112.189 89.5924 112.292 90.0692 112.381C90.4966 112.46 91.002 112.531 91.5566 112.561C91.4262 112.736 91.2599 112.877 91.0511 112.994C90.5674 113.265 90.2729 113.782 90.2855 114.336C90.2981 114.891 90.6157 115.393 91.1112 115.642C91.7152 115.946 92.4114 116.076 93.0435 116.13C93.6959 116.186 94.391 116.168 95.0592 116.108C95.6623 116.054 96.2776 115.961 96.8573 115.84C96.8544 115.871 96.8514 115.902 96.8481 115.933C96.805 116.344 96.7317 116.745 96.6437 117.067C96.56 117.374 96.4945 117.49 96.4976 117.492C96.4983 117.492 96.5027 117.487 96.5113 117.476C96.1693 117.904 96.0878 118.484 96.2986 118.99C96.5095 119.495 96.9792 119.846 97.524 119.904C98.6643 120.026 100.155 119.755 101.534 119.349C102.229 119.144 102.946 118.89 103.639 118.598C103.587 119.529 103.362 120.506 103.002 121.315C102.766 121.845 102.857 122.463 103.235 122.902C103.613 123.342 104.21 123.524 104.769 123.371C107.006 122.758 109.116 121.696 110.897 119.995C111.439 120.054 112.09 120.096 112.741 120.1C113.703 120.106 114.992 120.038 115.91 119.62C116.409 119.394 117.031 118.907 117.542 118.504C117.689 118.387 117.839 118.268 117.993 118.145C118.457 117.777 118.95 117.384 119.477 116.992C120.175 116.472 120.88 115.994 121.546 115.639C122.232 115.275 122.767 115.101 123.146 115.074C123.825 115.026 124.386 114.528 124.514 113.86C124.676 113.012 124.61 112.152 124.491 111.408C124.431 111.029 124.352 110.651 124.27 110.293C124.623 109.989 124.935 109.67 125.217 109.369C125.392 109.182 125.551 109.008 125.702 108.842C126.017 108.495 126.3 108.183 126.636 107.865C126.753 107.754 126.852 107.624 126.928 107.48C130.44 100.865 132.812 92.7022 134.315 85.6262C135.657 79.3105 136.329 73.7486 136.482 70.7817C136.598 70.7193 136.716 70.6533 136.833 70.5858C137.086 70.4403 137.356 70.2744 137.588 70.1105C137.703 70.0293 137.829 69.935 137.946 69.8328C138.036 69.7536 138.23 69.5787 138.379 69.3295C138.464 69.1884 138.525 69.0343 138.559 68.8734C138.758 67.9491 138.87 66.9838 138.977 66.0626C139.018 65.7055 139.058 65.355 139.103 65.0161C139.165 64.5447 139 64.0718 138.658 63.7415C137.899 63.0093 137.24 61.8097 136.941 60.5755C137.008 58.472 137.157 56.0957 137.453 54.1664C137.48 53.9966 137.476 53.8235 137.444 53.6549C136.999 51.3451 136.492 48.9642 135.832 46.7178C135.815 46.6601 135.795 46.6036 135.771 46.5484C135.381 45.6399 134.577 45.0747 133.836 44.7648C133.068 44.4433 132.169 44.3068 131.287 44.3937C131.211 44.4011 131.136 44.4143 131.063 44.433C130.444 44.5909 129.779 44.7408 129.088 44.8968C127.469 45.2618 125.704 45.6598 124.045 46.2689C124.011 46.2024 123.974 46.132 123.935 46.0572C123.616 45.4465 123.2 44.6827 122.618 43.86C121.437 42.1928 119.62 40.3547 116.567 38.8373C116.355 38.7321 116.122 38.6785 115.885 38.6807C109.962 38.7365 105.539 41.9671 103.558 43.5729C103.254 43.1236 102.925 42.5743 102.582 41.9813C102.437 41.7307 102.284 41.4629 102.131 41.195C101.916 40.8177 101.701 40.4402 101.508 40.1106C101.179 39.5523 100.821 38.971 100.487 38.5691C100.312 38.3575 100.081 38.1983 99.821 38.1089C97.9712 37.4734 96.2035 36.9322 94.5583 37.9439C94.5053 37.9765 94.4543 38.0124 94.4057 38.0514C93.8147 38.5252 93.2768 38.8463 92.6535 39.2088C91.819 37.955 90.7567 36.5858 89.7221 35.3629C88.3335 33.7217 86.8448 32.1662 85.8958 31.4807M7.99184 78.3527L85.0175 32.6967M7.99184 78.3527C7.72985 78.3162 7.4373 78.3087 7.08614 78.3435C6.56713 78.395 6.05867 78.1731 5.74338 77.7576C5.42809 77.3422 5.35124 76.7928 5.54043 76.3067C6.2558 74.4689 7.13764 72.7819 8.14537 71.1977C7.74455 71.1882 7.3163 71.2062 6.87502 71.2545C6.35059 71.3119 5.83458 71.0895 5.51609 70.669C5.19761 70.2484 5.12348 69.6914 5.32087 69.2022C5.91005 67.7419 6.95406 66.1611 8.13782 64.7961C8.67878 64.1723 9.27106 63.568 9.89054 63.0256C9.44839 62.9053 8.97594 62.8137 8.49091 62.7568C7.9275 62.6908 7.44954 62.3125 7.25577 61.7794C7.06201 61.2462 7.18559 60.6493 7.57514 60.237C7.63412 60.1745 7.69333 60.1118 7.75281 60.0488C9.52882 58.1671 11.5334 56.0433 14.1792 54.5936C13.4874 54.1696 12.6519 53.8393 11.7581 53.6471C11.225 53.5324 10.7962 53.1376 10.638 52.6158C10.4798 52.094 10.6172 51.5275 10.9968 51.1362C12.4721 49.6154 14.8437 48.5906 17.0592 48.0226C17.8101 47.8301 18.586 47.6792 19.3509 47.5806C18.9492 47.2607 18.5222 46.9111 18.1371 46.5512C17.7829 46.2202 17.6105 45.7383 17.6744 45.2577C17.7382 44.777 18.0305 44.3569 18.4589 44.1299C20.7368 42.9229 24.3979 42.4104 27.7975 42.288C29.7751 42.2168 31.7861 42.2744 33.5561 42.445C33.4127 42.3198 33.2636 42.202 33.11 42.0938C32.633 41.7578 32.3941 41.1758 32.4976 40.6016C32.601 40.0274 33.028 39.5652 33.5923 39.4168C35.7175 38.8579 38.3287 39.0663 40.9403 39.6923C40.8608 39.511 40.78 39.3248 40.6984 39.1343C39.8342 37.1164 38.825 34.4983 38.4456 32.4304L7.99184 78.3527ZM85.8958 31.4807L85.0175 32.6967M85.8958 31.4807C85.8958 31.4807 85.8959 31.4808 85.8959 31.4808L85.0175 32.6967M85.8958 31.4807C84.9019 30.7628 83.5979 30.0491 82.3615 29.4745C81.1535 28.9131 79.9 28.4332 78.9649 28.2173M85.0175 32.6967C83.2381 31.4112 80.1691 30.0256 78.5954 29.6716M78.9649 28.2173C78.9841 28.2225 79.0034 28.2279 79.0226 28.2337L78.5954 29.6716M78.9649 28.2173C78.9514 28.2142 78.938 28.2111 78.9246 28.2081L78.5954 29.6716M78.9649 28.2173L78.5954 29.6716M62.7031 35.8933C62.4594 36.1569 62.2018 36.4459 61.9469 36.7414C62.0388 38.2171 61.7755 39.3502 61.7755 39.3502C62.1936 38.7685 62.8526 37.9713 63.466 37.2843C63.4653 37.1852 63.4633 37.0841 63.4599 36.9811C63.457 36.896 63.4532 36.809 63.4483 36.7205M62.7031 35.8933C62.2426 34.8204 61.7616 33.4564 61.4727 32.0136C61.4647 31.9739 61.4569 31.934 61.4492 31.894C61.4134 31.7079 61.3805 31.5181 61.3511 31.3255C61.4717 31.461 61.5809 31.5901 61.6779 31.7122C62.5849 32.8532 63.0491 34.1306 63.2743 35.2977M62.7031 35.8933C62.8577 36.2534 63.0099 36.5808 63.1518 36.8673L63.4483 36.7205M62.7031 35.8933C62.9064 35.6734 63.1001 35.4712 63.2743 35.2977M63.2743 35.2977C63.3404 35.2319 63.4037 35.1703 63.4636 35.1134L64.496 36.2016L63.4483 36.7205M63.2743 35.2977C63.371 35.7988 63.4236 36.2796 63.4483 36.7205M77.254 30.6539C77.2477 30.6855 77.243 30.7171 77.24 30.7485C76.9435 30.7047 76.6077 30.6739 76.2499 30.6538L75.7468 30.6056C75.8002 30.0475 76.0423 29.5487 76.3598 29.1578C76.7516 29.1804 77.1243 29.2151 77.4596 29.2647L77.254 30.6539ZM96.8443 114.657C96.8407 114.644 96.8404 114.647 96.8453 114.661C96.8449 114.659 96.8446 114.658 96.8443 114.657ZM72.3417 29.2329C72.4951 29.2204 72.6598 29.2082 72.8335 29.1968C72.9641 29.2791 73.0935 29.3581 73.2227 29.4338L72.4642 30.7279L72.3417 29.2329ZM92.1529 41.252C91.9313 40.8558 91.6637 40.4261 91.3628 39.977L92.1529 41.252Z" fill="#1D1818" stroke="white" stroke-width="3" stroke-linejoin="round"/>
<path d="M114.448 68.4338C114.81 68.1299 115.295 68.0149 115.755 68.1234C119.266 68.9508 123.113 70.939 126.417 72.9217C128.872 74.395 131.129 75.9296 132.78 77.0518C133.355 77.4428 133.856 77.7837 134.266 78.0545L134.267 78.0547C135.947 79.1636 138.745 81.6848 141.275 84.1635C142.754 85.6116 144.212 87.116 145.361 88.3945C145.335 87.6541 145.171 86.9942 144.981 86.6153C144.698 86.0506 144.799 85.3689 145.233 84.9104C145.668 84.4519 146.343 84.3149 146.922 84.5679C149.847 85.8459 151.408 87.6029 152.74 89.2159C152.832 89.3262 152.921 89.4353 153.01 89.5431C154.207 90.9988 155.213 92.2216 157.013 93.2008L156.296 94.5184L157.013 93.2008C160.417 95.0535 162.685 95.6267 166.172 95.6663L166.173 95.6663C167.94 95.6866 170.435 94.8485 172.675 93.0196C174.883 91.2171 176.754 88.5203 177.385 84.9372C177.487 84.3609 177.914 83.8962 178.48 83.7469C179.045 83.5976 179.646 83.7909 180.019 84.242C181.597 86.1522 182.2 89.2474 181.832 91.9367C181.828 91.9652 181.823 91.9935 181.818 92.0217C181.691 92.6688 181.372 93.364 181.021 93.9893C180.655 94.6401 180.192 95.3221 179.691 95.962C179.679 95.9778 179.666 95.9936 179.654 96.0094C181.802 96.2035 183.45 96.8142 184.699 97.5685C185.669 98.1549 186.362 98.8062 186.841 99.3563C187.08 99.6309 187.264 99.8777 187.401 100.074C187.469 100.171 187.524 100.255 187.566 100.319L187.615 100.394C187.615 100.394 187.615 100.394 187.615 100.394C188.662 101.746 189.465 103.369 189.997 104.61C190.271 105.247 190.482 105.803 190.625 106.203C190.697 106.403 190.752 106.564 190.79 106.678C190.808 106.735 190.823 106.779 190.833 106.811L190.845 106.849L190.849 106.86L190.85 106.863L190.85 106.865L190.85 106.865C190.85 106.865 190.85 106.866 189.418 107.311L190.85 106.866C191.034 107.454 190.838 108.094 190.358 108.48C189.878 108.867 189.21 108.92 188.675 108.614C187.11 107.722 184.317 106.862 182.41 106.567C182.327 106.554 182.245 106.534 182.165 106.508C179.637 105.664 177.277 105.909 174.308 106.217C174.212 106.227 174.116 106.237 174.019 106.247C173.977 106.252 173.935 106.254 173.893 106.255C173.207 106.268 172.259 106.456 171.233 106.751C170.229 107.04 169.245 107.403 168.523 107.706C168.466 107.729 168.408 107.75 168.349 107.766C167.038 108.135 165.244 108.722 163.251 109.375C162.625 109.58 161.979 109.792 161.323 110.005C158.618 110.883 155.743 111.785 153.499 112.296C153.417 112.314 153.333 112.326 153.249 112.331C149.879 112.517 145.131 111.945 141.886 110.682C140.843 110.359 139.929 109.802 139.113 109.231C139.107 109.494 139.095 109.763 139.076 110.033C139.01 110.975 138.855 111.983 138.562 112.917C138.274 113.835 137.819 114.792 137.079 115.514C136.694 115.891 136.136 116.032 135.618 115.883C135.1 115.735 134.701 115.32 134.573 114.796C134.561 114.746 134.549 114.696 134.537 114.645C134.035 112.581 133.494 110.36 131.739 108.655L131.738 108.655C128.424 105.434 121.352 101.408 117.326 99.4679C114.372 98.0443 109.708 96.1663 106.075 95.207C105.438 95.0388 104.986 94.4747 104.96 93.8164C104.939 93.2937 104.831 92.6455 104.665 91.9759C104.249 92.5087 103.802 93.0401 103.348 93.5459C102.145 94.884 100.756 96.1909 99.5736 96.9144C99.0701 97.2224 98.4328 97.2066 97.9453 96.874C97.4578 96.5413 97.2106 95.9537 97.3138 95.3726C97.4414 94.6543 97.381 93.1188 97.1303 91.4713C97.058 90.996 96.9729 90.5322 96.8788 90.1008C96.6429 90.2959 96.4004 90.4836 96.1587 90.6603C95.6433 91.037 95.1084 91.3803 94.6178 91.6479C94.1711 91.8916 93.6201 92.1519 93.1127 92.2407C92.6271 92.3256 92.1308 92.1665 91.7851 91.8151C91.4394 91.4638 91.2883 90.965 91.3811 90.4808C91.5595 89.5494 91.4471 88.3717 91.0575 87.2271C90.8531 86.6266 90.587 86.078 90.2841 85.6104C89.2285 86.5034 88.031 87.1433 87.0084 87.4922C86.5232 87.6577 85.987 87.5639 85.5868 87.2435C85.1865 86.9231 84.9776 86.4205 85.0329 85.9108C85.1675 84.6699 84.8663 83.1451 84.2572 81.7503C83.9914 81.1415 83.6876 80.6042 83.3734 80.1549C83.1548 80.513 82.9183 80.8624 82.6753 81.1944C81.9452 82.1917 81.0694 83.1501 80.2285 83.8478C79.7803 84.2197 79.1574 84.2986 78.6306 84.0501C78.1039 83.8016 77.7687 83.2706 77.7707 82.6882C77.7759 81.2082 77.2901 79.4428 76.2477 78.1035C75.9361 78.5842 75.5891 79.0255 75.2474 79.4147C74.4332 80.342 73.5268 81.111 72.8513 81.5694C72.4517 81.8406 71.9459 81.9028 71.4925 81.7365C71.039 81.5702 70.6934 81.1957 70.5639 80.7304C70.3438 79.9397 69.8962 78.7867 69.2851 77.7832C68.9982 77.3122 68.7125 76.9353 68.4409 76.6482C68.0567 77.1936 67.6028 77.74 67.1022 78.233C66.1743 79.1468 64.8763 80.0839 63.3795 80.2335C61.442 80.4276 60.1686 79.2744 59.5192 78.0028C58.9017 76.7934 58.7298 75.3223 58.8527 74.1387C58.9369 73.3223 59.3391 71.5814 59.8601 69.9262C60.1256 69.0826 60.4365 68.2141 60.7761 67.4562C61.0953 66.744 61.5111 65.9628 62.0398 65.4363C62.4472 65.0306 63.0507 64.8935 63.5934 65.0833C64.3461 65.3465 64.9357 65.8962 65.3639 66.4093C65.8119 66.946 66.1986 67.5823 66.5141 68.2169C66.8576 68.9081 67.1571 69.6805 67.3578 70.4213C68.5677 70.1908 69.4324 69.7414 70.1067 69.2146C71.0457 68.4812 71.6997 67.5396 72.4113 66.4759C72.6469 66.1239 73.0203 65.8878 73.4394 65.8261C73.8585 65.7643 74.2842 65.8827 74.6113 66.1519C75.9816 67.2798 76.651 68.8031 76.784 70.4458C77.3778 70.2351 77.9941 69.916 78.6066 69.4953C79.7791 68.6902 80.8323 67.5832 81.561 66.4065C81.801 66.0188 82.2044 65.7614 82.6571 65.707C83.1098 65.6525 83.5627 65.8069 83.8878 66.1266C84.5559 66.7834 84.8606 67.5546 84.9813 68.2781C85.5575 68.0455 86.1357 67.7347 86.6854 67.3671C87.7897 66.6288 88.6274 65.7637 89.0281 65.1006C89.2816 64.6811 89.724 64.4119 90.213 64.3796C90.7021 64.3473 91.1761 64.556 91.4825 64.9385C91.9491 65.5208 92.1433 66.2586 92.2361 66.8457C92.3355 67.4742 92.3509 68.1502 92.3195 68.7767C92.3138 68.8922 92.3063 69.0076 92.2973 69.1223C92.8047 68.85 93.3274 68.4985 93.859 68.0802C95.1288 67.0811 96.2574 65.8581 97.139 64.8916C97.4617 64.5378 97.934 64.3594 98.41 64.4114C98.8861 64.4633 99.3087 64.7395 99.5474 65.1546C99.862 65.7015 99.987 66.3644 100.043 66.9072C100.103 67.4907 100.1 68.125 100.052 68.7294C100.046 68.8049 100.039 68.8807 100.032 68.9564C100.347 68.8125 100.681 68.6501 101.025 68.4726C102.613 67.6553 104.27 66.6034 105.261 65.776C105.643 65.4572 106.158 65.3483 106.636 65.4854C107.114 65.6226 107.493 65.9878 107.648 66.4604L107.679 66.5561C108.505 69.0778 109.337 71.6203 111.499 73.5934C111.714 73.0151 111.973 72.4175 112.244 71.8501C112.584 71.1412 112.956 70.4538 113.309 69.884C113.626 69.3715 114.029 68.7849 114.448 68.4338Z" fill="#D82342" stroke="white" stroke-width="3" stroke-linejoin="round"/>
<path d="M76.6556 40.4884L76.6571 40.4884C78.211 40.5483 80.0813 41.1231 82.1023 42.2197C82.9513 42.6792 83.7216 43.3989 84.3385 43.9903C84.4344 44.0823 84.5273 44.1718 84.6176 44.2589C85.1686 44.7899 85.6219 45.2268 86.073 45.5513C86.5777 45.9143 86.8061 46.551 86.6474 47.152C86.4886 47.7531 85.9755 48.1939 85.3574 48.2604C83.757 48.4324 82.2067 48.5177 80.788 48.5958C80.2787 48.6238 79.7863 48.6509 79.3147 48.6808C77.4824 48.7967 75.9484 48.9542 74.6466 49.3243L76.6556 40.4884ZM76.6556 40.4884C75.7296 40.4536 74.8101 40.5987 74.0444 41.0411L76.6556 40.4884ZM108.116 84.3822C103.086 81.5519 97.0866 80.6031 91.1038 79.6821C91.0724 79.6773 91.0412 79.6715 91.0102 79.6647C90.034 79.4503 87.7299 78.9971 86.6412 78.783C86.3546 78.7266 86.1522 78.6868 86.0805 78.6723C85.9185 78.6395 85.7642 78.5804 85.6233 78.4984L85.6191 78.4978C85.5577 78.4893 85.4565 78.4754 85.3568 78.4567L85.3496 78.4554C85.1898 78.4256 84.6508 78.3251 84.2264 77.8892C83.6492 77.2963 83.6694 76.5536 83.8037 76.0695C83.9382 75.5847 84.3067 75.1997 84.7851 75.0441C85.0563 74.9559 85.2194 74.8918 85.311 74.8521C85.3734 74.7732 85.457 74.6805 85.565 74.5886C85.7589 74.4236 85.9627 74.3183 86.1387 74.2452C86.4402 74.1198 86.8358 74.0195 87.3394 73.9156C88.1275 73.6678 89.3208 73.4979 90.5816 73.3809C91.9419 73.2547 93.5283 73.178 95.0897 73.1621M108.116 84.3822L109.97 74.7951C107.341 74.2999 102.898 73.7299 100.701 73.4481C100.549 73.4287 100.409 73.4107 100.28 73.3941L100.278 73.3939C98.8307 73.2093 96.9498 73.1424 95.0897 73.1621M108.116 84.3822C109.251 85.0421 110.598 85.966 111.806 86.9304C113.042 87.9161 114.025 88.8593 114.518 89.5453C115.673 91.1646 116.481 92.6417 116.068 94.8666C115.989 95.2918 116.097 95.7303 116.365 96.0698C116.633 96.4092 117.035 96.6165 117.467 96.6385C121.368 96.8369 124.377 94.3734 125.887 91.9016M108.116 84.3822L125.887 91.9016M95.0897 73.1621L95.1051 74.662M95.0897 73.1621C95.0896 73.1621 95.0894 73.1621 95.0892 73.1621L95.1051 74.662M95.1051 74.662C92.0525 74.6932 88.9256 74.9621 87.7224 75.3683L95.1051 74.662ZM125.887 91.9016C126.34 92.1479 126.705 92.4008 127.126 92.6912C127.448 92.9141 127.803 93.1591 128.253 93.4403L128.254 93.4407C130.182 94.6434 132.032 96.309 133.995 98.0771L134.039 98.1161C135.97 99.855 138.023 101.7 140.205 103.007L140.207 103.007C143.547 105.002 147.576 104.724 150.768 103.848C152.392 103.403 153.877 102.783 155.07 102.145C156.213 101.532 157.24 100.822 157.807 100.131C158.157 99.7039 158.245 99.1181 158.034 98.607C157.823 98.0958 157.348 97.7422 156.797 97.6869C154.569 97.4627 151.748 96.7111 149.043 95.7297C147.328 95.1079 145.709 94.4118 144.362 93.7327C144.676 93.3538 144.926 92.9128 145.087 92.4051C145.225 91.9693 145.157 91.4944 144.902 91.1151C144.647 90.7357 144.233 90.4933 143.777 90.4567C143.731 90.453 143.554 90.4188 143.211 90.2753C142.889 90.1406 142.5 89.9433 142.053 89.6892C141.161 89.181 140.132 88.4979 139.106 87.7768C138.085 87.0586 137.093 86.3217 136.274 85.7111C136.215 85.6669 136.156 85.623 136.097 85.5795C135.391 85.0525 134.761 84.5834 134.429 84.3768L134.426 84.3754C131.347 82.472 127.344 80.501 124.145 79.0184C122.539 78.2739 121.122 77.6463 120.106 77.2048C119.883 77.1078 119.679 77.0197 119.497 76.9413C119.495 76.767 119.487 76.5997 119.474 76.4466C119.449 76.1347 119.4 75.8017 119.318 75.4893C119.247 75.2196 119.11 74.7905 118.811 74.4287C118.544 74.1053 118.153 73.9085 117.734 73.8861C117.315 73.8637 116.906 74.0177 116.606 74.3107C116.57 74.3462 116.371 74.489 115.872 74.6395C115.408 74.7797 114.81 74.8892 114.126 74.9548C112.753 75.0865 111.196 75.0258 109.97 74.7952L125.887 91.9016ZM74.0437 41.0415C73.2522 41.4988 71.8451 42.6098 70.8342 44.0016C69.863 45.3386 68.8712 47.5243 70.2522 49.6297C70.6518 50.2389 71.4314 50.4729 72.1004 50.1844L72.1006 50.1843L74.0437 41.0415ZM85.9007 75.5063C85.9007 75.5063 85.9021 75.5065 85.9047 75.5072C85.902 75.5066 85.9007 75.5063 85.9007 75.5063ZM85.7517 78.5179C85.7792 78.5236 85.7708 78.5247 85.7382 78.5154C85.7439 78.5164 85.7482 78.5172 85.7517 78.5179ZM180.056 84.2844C179.631 83.7274 178.878 83.5378 178.241 83.8277C177.604 84.1176 177.252 84.8097 177.393 85.4955C177.884 87.8831 178.175 92.3369 174.498 96.6459C174.152 97.0505 174.047 97.6079 174.221 98.1106C174.395 98.6133 174.823 98.9862 175.345 99.0905C175.786 99.1788 176.208 99.1434 176.551 99.0768C180.729 98.9443 182.976 100.588 184.22 102.151C184.224 102.157 184.229 102.163 184.234 102.169C180.254 100.947 176.348 101.344 171.917 102.311C169.646 102.804 168.306 102.981 167.149 102.775C166.056 102.58 164.948 102.004 163.29 100.526C162.789 100.079 162.052 100.019 161.486 100.38C160.919 100.741 160.662 101.435 160.856 102.078C161.18 103.153 161.665 104.102 162.266 104.915C160.287 105.283 158.443 106.071 156.718 106.808C156.518 106.893 156.32 106.978 156.124 107.061C152.757 108.486 149.558 109.681 145.553 108.673C144.805 108.484 144.036 108.894 143.775 109.62C143.514 110.345 143.847 111.151 144.543 111.482C150.601 114.36 156.464 112.18 160.6 110.642C160.687 110.61 160.773 110.578 160.859 110.546C162.022 110.117 163.521 109.999 165.312 110.072C166.687 110.128 168.12 110.288 169.606 110.453C170.057 110.504 170.512 110.555 170.973 110.603C172.898 110.807 174.902 110.97 176.711 110.807C178.521 110.643 180.336 110.135 181.711 108.819C182.119 108.43 182.27 107.848 182.114 107.314C185.59 108.541 188.371 110.974 189.722 112.695C190.114 113.194 190.778 113.393 191.38 113.19C191.981 112.988 192.391 112.429 192.401 111.794C192.474 107.538 191.025 103.165 188.39 100.018C186.472 97.727 183.895 96.0631 180.843 95.6274C181.338 94.8085 181.737 93.8812 181.987 92.8847C182.636 90.2997 182.291 87.22 180.056 84.2844Z" fill="#CFC580" stroke="white" stroke-width="3" stroke-linejoin="round"/>
<path d="M74.2816 49.8231C73.7862 49.8358 73.3165 49.603 73.0266 49.2011C72.7367 48.7991 72.664 48.28 72.8324 47.8139C73.6182 45.6392 74.9361 43.2367 76.4894 41.7842C76.9679 41.3367 77.6815 41.2515 78.2518 41.5738C78.8222 41.8961 79.1175 42.5514 78.981 43.1922C78.6877 44.5696 78.8116 45.9911 79.337 47.3509C79.5007 47.7745 79.4636 48.2496 79.2362 48.6428C79.0087 49.0359 78.6153 49.3048 78.1664 49.374L77.9378 47.8915C78.1664 49.374 78.1663 49.374 78.1663 49.374L78.1661 49.3741L78.1656 49.3741L78.1639 49.3744L78.1576 49.3754L78.1342 49.379L78.0463 49.3923C77.9705 49.4037 77.8616 49.4199 77.7277 49.4395C77.4604 49.4785 77.092 49.5309 76.6887 49.5843C75.9116 49.6872 74.9093 49.807 74.2816 49.8231Z" fill="#1D1818" stroke="white" stroke-width="3" stroke-linejoin="round"/>
<path d="M68.1621 76.5091C68.6569 76.466 69.141 76.6707 69.4548 77.0557C70.0997 77.8469 70.727 78.9612 71.0097 80.1457C71.1306 80.652 71.1978 81.2227 71.1497 81.8052C71.7634 81.581 72.4268 81.2221 73.0401 80.7706C73.9259 80.1185 74.5066 79.4225 74.7142 78.9312C74.928 78.4251 75.4014 78.0763 75.9481 78.0222C76.4949 77.968 77.0274 78.2171 77.3364 78.6715C78.1241 79.8301 78.3098 81.3591 78.3327 82.5296C78.3438 83.0948 78.3174 83.645 78.273 84.1378C78.3083 84.1357 78.3429 84.1326 78.377 84.1287C78.7288 84.0885 79.1091 83.9556 79.663 83.709L79.6632 83.7089C79.729 83.6797 79.9137 83.5587 80.1986 83.2617C80.4632 82.9859 80.7357 82.6418 80.9897 82.2868C81.2408 81.9357 81.457 81.5976 81.611 81.346C81.6876 81.2209 81.7476 81.1191 81.7876 81.0501C81.8076 81.0156 81.8225 80.9895 81.8319 80.9728L81.8419 80.9552L81.8432 80.9528C81.8433 80.9527 81.8434 80.9526 81.8434 80.9525M68.1621 76.5091L83.8929 83.3514C83.9982 83.1891 84.0913 83.0403 84.1698 82.912C84.2602 82.7644 84.3324 82.642 84.3828 82.5551C84.408 82.5115 84.4279 82.4767 84.442 82.4519L84.4587 82.4223L84.4637 82.4134L84.4653 82.4105L84.4659 82.4094L84.4662 82.4089C84.4663 82.4087 84.4664 82.4085 83.1548 81.6807C81.8432 80.9528 81.8433 80.9526 81.8434 80.9525M68.1621 76.5091C67.6673 76.5521 67.2258 76.8374 66.9832 77.2708C66.7663 77.6584 66.0717 78.3149 65.0577 78.9657C64.0669 79.6017 63.1178 80.0116 62.6375 80.1017C61.933 80.2338 61.4204 80.846 61.4141 81.5628C61.4079 82.2796 61.9096 82.9007 62.6118 83.0452C64.6384 83.4621 66.7196 83.8938 68.6389 84.4944C68.9522 84.5925 69.2813 84.5832 69.5791 84.4798L68.1621 76.5091ZM81.8434 80.9525C82.0841 80.519 82.5234 80.2325 83.0171 80.187C83.5109 80.1415 83.9953 80.343 84.3112 80.7253C85.2026 81.8042 85.538 83.4676 85.6029 84.8512C85.6385 85.6105 85.5993 86.4324 85.4591 87.21C85.8931 87.1984 86.3657 87.1188 86.8572 86.9763C87.9059 86.6721 88.7153 86.1757 88.9663 85.9454C89.2847 85.6532 89.7135 85.5126 90.143 85.5594C90.5726 85.6062 90.961 85.836 91.209 86.1899C91.6638 86.8392 91.8545 87.632 91.9396 88.3105C92.0285 89.019 92.0219 89.7722 91.9669 90.4682C91.9263 90.9822 91.8575 91.487 91.7715 91.9488C92.1514 91.9178 92.5614 91.8463 92.9853 91.7335C94.045 91.4516 94.8619 91.0011 95.178 90.7085C95.5635 90.3516 96.1076 90.2224 96.6124 90.3679C97.1172 90.5134 97.5091 90.9123 97.6456 91.4197C98.1438 93.2722 98.1219 95.5195 97.3981 97.4966M81.8434 80.9525L97.3981 97.4966M97.3981 97.4966C97.8969 97.3434 98.5195 97.0375 99.2564 96.5231C100.532 95.6328 101.83 94.3385 102.861 93.0485C103.212 92.6084 103.781 92.4023 104.333 92.5149C104.885 92.6276 105.327 93.0399 105.478 93.5826C106.551 97.441 105.368 101.799 102.836 104.603C102.768 104.679 102.691 104.748 102.609 104.808C101.419 105.679 99.9593 105.436 99.2099 105.283C99.1924 105.279 99.1749 105.275 99.1575 105.271C98.5018 105.113 97.9303 104.898 97.4114 104.58C96.8896 104.26 96.4862 103.877 96.1272 103.463C95.8156 103.103 95.5078 102.683 95.1938 102.254C95.164 102.214 95.1341 102.173 95.1041 102.132C94.7463 101.644 94.3355 101.09 93.7977 100.435C92.7533 99.1641 90.3616 96.795 87.3941 94.3344C84.4303 91.8769 80.9975 89.4166 77.8895 87.903L77.8644 87.8905C76.4103 87.1486 74.5199 86.4065 72.9585 85.8408C72.1849 85.5606 71.5053 85.3284 71.0198 85.1664C70.7772 85.0855 70.5834 85.0223 70.4511 84.9796C70.385 84.9582 70.3343 84.9419 70.3005 84.9312L70.2627 84.9192L70.2537 84.9163L70.2518 84.9157L70.2515 84.9157L97.3981 97.4966ZM97.3981 97.4966C97.0099 97.6158 96.6967 97.6425 96.4628 97.6031C96.438 97.593 96.4156 97.5826 96.4011 97.5745C96.4003 97.574 96.3995 97.5736 96.3988 97.5732M97.3981 97.4966L95.5744 97.9025M95.5744 97.9025C96.2871 96.5923 96.5642 94.9905 96.4676 93.4793C96.7478 93.3001 97.0007 93.1093 97.2161 92.9099L96.197 91.8092L94.7485 92.1988C94.7884 92.3471 94.8233 92.4983 94.8532 92.6516C93.8529 93.1133 92.5641 93.4625 91.3704 93.4666L95.5744 97.9025ZM95.5744 97.9025C95.7249 98.0706 95.8639 98.2302 95.9904 98.3803L96.2211 98.3721L96.4023 97.5911C96.4116 97.5932 96.4211 97.5953 96.4307 97.5972C96.4161 97.5852 96.405 97.5773 96.3988 97.5732M96.3988 97.5732C96.3952 97.5708 96.3932 97.5697 96.3931 97.5697C96.393 97.5697 96.3948 97.5709 96.3988 97.5732ZM79.4501 43.313L79.7746 41.8485C78.992 41.6751 78.2114 42.1476 78.0021 42.9214C77.7928 43.6951 78.2289 44.4967 78.9922 44.7414C79.4971 44.9033 79.7155 45.0859 79.8052 45.1847C79.8888 45.2769 79.9183 45.3589 79.9313 45.4398C79.9469 45.5371 79.9385 45.6461 79.9175 45.7442C79.9077 45.7897 79.8973 45.8229 79.892 45.8385C79.8914 45.8402 79.891 45.8415 79.8906 45.8426C79.6283 46.4733 79.8254 47.2036 80.3729 47.6162C80.929 48.0353 81.7003 48.0166 82.2354 47.5711C83.0298 46.9098 83.7088 45.9882 83.5589 44.8391C83.4203 43.7776 82.6364 43.133 82.1468 42.8117C81.6021 42.4542 80.9947 42.2176 80.5724 42.076C80.3518 42.0021 80.16 41.947 80.0212 41.9099C79.9514 41.8912 79.8941 41.8768 79.8522 41.8667C79.8313 41.8616 79.8141 41.8575 79.801 41.8545L79.7846 41.8507L79.7788 41.8494L79.7765 41.8489L79.7755 41.8487C79.775 41.8486 79.7746 41.8485 79.4501 43.313ZM79.9024 45.8151C79.9023 45.8153 79.9022 45.8155 79.9021 45.8158L79.9023 45.8151C79.9023 45.8151 79.9024 45.8151 79.9024 45.8151ZM103.458 56.1211L103.456 56.1211L101.923 57.6959L101.77 56.2037C101.77 56.2037 101.77 56.2037 101.769 56.2038C100.545 56.3296 95.9819 57.2344 91.5137 58.1328C90.6508 58.3063 89.7879 58.4803 88.9466 58.65C85.3447 59.3764 82.1389 60.0229 81.0168 60.208C80.1842 60.3449 78.9419 60.5911 77.4657 60.8837C73.5552 61.6587 68.0033 62.7591 64.0794 63.0143C63.3909 63.059 62.8217 63.5677 62.7002 64.2469C62.5786 64.926 62.936 65.6005 63.5663 65.8813C65.1732 66.5972 66.2077 68.2891 66.2888 69.5309C66.3216 70.0327 66.6036 70.4848 67.04 70.7347C67.4764 70.9847 68.0091 70.9993 68.4585 70.7737C69.6532 70.174 71.7149 68.7892 73.4261 65.9364C75.0124 66.9519 75.8064 68.2172 75.9458 69.2405C76.0074 69.6921 76.2709 70.0913 76.6621 70.3253C77.0533 70.5593 77.5296 70.6027 77.9566 70.4433C79.7947 69.7572 81.5417 67.894 83.001 65.0197C83.0739 65.1261 83.1457 65.2354 83.2156 65.3467C83.4627 65.7404 83.65 66.1048 83.7616 66.3929C83.8302 66.5703 83.8492 66.6649 83.8549 66.6931C83.8007 67.1823 83.9902 67.6697 84.3661 67.9939C84.7667 68.3395 85.3197 68.4485 85.8215 68.2807C87.1404 67.8397 88.3924 66.8312 89.3964 65.7094C89.9071 65.1388 90.3854 64.5035 90.8034 63.8344C90.9408 64.0504 91.0531 64.2663 91.1469 64.4876C91.4561 65.2175 91.6178 66.1316 91.66 67.5338C91.6767 68.0901 92.0001 68.5915 92.5001 68.8361C93.0001 69.0807 93.5944 69.0283 94.0439 68.7001C95.3984 67.7109 97.305 65.7019 98.7636 63.3555C99.2727 64.7434 99.4507 66.3252 99.3161 67.7419C99.2612 68.3193 99.5441 68.8765 100.043 69.173C100.541 69.4695 101.166 69.452 101.647 69.1282C102.381 68.6342 103.007 67.8623 103.518 67.0804C104.046 66.2723 104.531 65.3308 104.947 64.3754C105.767 62.4942 106.402 60.3725 106.537 58.8765L106.537 58.8723C106.578 58.4034 106.5 57.9169 106.248 57.4726C106 57.0366 105.646 56.7478 105.309 56.5617C104.684 56.217 103.965 56.1402 103.458 56.1211ZM112.879 57.3296L112.874 57.33C112.596 57.3475 112.299 57.3884 112.005 57.4649C109.922 58.0048 108.825 59.5608 108.366 60.5597C108.33 60.6387 108.301 60.7207 108.279 60.8048C107.272 64.6361 107.348 69.5415 110.111 72.8304C110.451 73.2352 110.979 73.4311 111.501 73.346C112.023 73.261 112.461 72.9075 112.655 72.4157C113.11 71.2615 114.142 69.0815 115.344 67.0378C115.933 66.0364 116.546 65.0975 117.133 64.3411C117.215 64.5319 117.3 64.718 117.386 64.8975C117.852 65.8698 118.439 66.8322 118.982 67.4462C119.452 67.9764 120.228 68.1061 120.844 67.7572C121.185 67.5646 121.511 67.3402 121.817 67.0989C122.039 67.5354 122.282 67.9577 122.539 68.3111C122.942 68.8666 123.672 69.077 124.309 68.822C124.833 68.6124 125.337 68.2293 125.739 67.8677C125.955 68.3612 126.139 68.876 126.289 69.3227C126.458 69.8241 126.878 70.1995 127.396 70.3107C127.913 70.4218 128.45 70.2523 128.81 69.8646C128.878 69.7918 128.95 69.7175 129.025 69.6423C129.095 70.0829 129.188 70.5169 129.296 70.9319C129.692 72.4479 130.362 74.0003 131.189 75.0687C131.51 75.4833 132.025 75.7001 132.546 75.6404C133.067 75.5808 133.519 75.2533 133.738 74.7769C134.356 73.4339 134.778 71.6021 134.882 69.9372C134.935 69.0983 134.911 68.2393 134.761 67.4642C134.617 66.7235 134.322 65.8662 133.675 65.2434C133.493 65.068 133.27 64.9416 133.025 64.8758C130.263 64.1313 126.305 62.8601 124.713 62.2681C123.198 61.7047 120.068 60.0981 117.921 58.7761C117.347 58.4219 116.556 58.046 115.706 57.7666C114.867 57.4911 113.858 57.2718 112.879 57.3296ZM90.1669 92.2767C90.416 91.2741 90.5971 89.788 90.4607 88.5765C90.664 88.4358 90.8437 88.2942 90.9946 88.1558L89.9804 87.0506L89.1751 87.6147C88.1521 88.2031 86.543 88.795 85.0242 88.7017L90.1669 92.2767ZM96.2647 98.3705C96.413 97.8685 96.463 97.6995 96.48 97.6426C96.4841 97.6468 96.4882 97.6511 96.4925 97.6557C96.5652 97.7331 96.754 97.9697 96.7677 98.3526L96.2647 98.3705ZM110.894 102.493C110.868 101.963 110.564 101.485 110.094 101.238C109.624 100.991 109.059 101.01 108.607 101.289C108.163 101.563 107.011 102.292 105.878 103.144C105.312 103.569 104.727 104.043 104.229 104.522C103.764 104.968 103.243 105.541 102.961 106.171C102.695 106.764 102.842 107.46 103.323 107.896C103.733 108.267 104.308 108.515 104.778 108.678C105.302 108.859 105.916 109.008 106.55 109.095C107.181 109.182 107.875 109.215 108.55 109.138C108.911 109.097 109.296 109.021 109.677 108.888C111.122 109.54 113.126 109.588 114.979 108.651C115.334 108.851 115.725 109.059 116.129 109.245C116.836 109.57 117.725 109.897 118.625 109.925L118.628 109.925C119.963 109.964 121.228 109.391 122.226 108.741C123.25 108.074 124.167 107.212 124.849 106.413C125.337 105.841 125.326 104.996 124.823 104.437C124.401 103.967 123.737 103.435 122.974 102.994C122.209 102.551 121.235 102.136 120.185 102.012C119.621 101.945 119.068 102.202 118.756 102.677C118.757 102.675 118.751 102.684 118.734 102.704C118.718 102.724 118.694 102.75 118.662 102.782C118.596 102.848 118.507 102.927 118.394 103.014C118.167 103.19 117.88 103.372 117.57 103.528C117.4 103.614 117.233 103.687 117.075 103.745C116.836 103.204 116.53 102.732 116.265 102.37C116.004 102.013 115.599 101.79 115.158 101.76C114.716 101.729 114.284 101.895 113.977 102.213C113.502 102.704 112.782 103.309 112.072 103.757C111.789 103.935 111.532 104.074 111.312 104.17C111.297 104.134 111.281 104.096 111.265 104.057C111.065 103.565 110.917 102.977 110.894 102.493Z" fill="white" stroke="white" stroke-width="3" stroke-linejoin="round"/>
<mask id="path-6-outside-1_15016_302016" maskUnits="userSpaceOnUse" x="8.29395" y="22.3545" width="128" height="141" fill="black">
<rect fill="white" x="8.29395" y="22.3545" width="128" height="141"/>
<path d="M42.3819 25.3545C43.9186 26.8554 45.8318 28.9655 45.6402 30.5901C45.2377 30.9451 44.3783 31.2103 43.3534 31.1962C44.8492 32.3296 46.6221 34.8363 46.8962 35.8063C47.1717 36.7748 46.3584 36.8825 45.3283 37.4878C45.6395 37.7567 50.7167 38.2758 51.2656 40.7446C52.168 41.0039 52.8914 41.168 53.7998 41.5215C53.9149 40.8702 53.7938 40.0041 53.7894 39.2458C53.2858 38.0025 49.4601 37.132 48.2888 36.9976C49.3271 36.2222 50.3164 35.6288 51.5761 35.6146C50.713 34.6394 49.1956 33.6494 47.1836 32.972C47.6114 32.5271 50.1352 32.5108 51.6466 33.1443C50.976 31.6693 48.0726 29.0965 45.6982 27.1185C50.0527 28.5042 55.462 33.1221 57.5119 35.4608C55.9232 37.3443 56.132 41.2815 57.0552 42.6852C57.0566 40.2543 57.4429 37.0138 58.5896 35.4028C56.123 31.6699 48.6022 26.0623 42.3819 25.3545ZM78.1471 34.6935C75.0024 34.5717 70.2682 35.3746 68.8719 35.7266C65.4546 38.1479 66.8264 43.6545 63.941 46.41C65.5571 46.3833 66.3481 47.6348 67.3166 47.3065C67.2179 45.3672 69.677 41.1738 71.6267 39.8592C73.0943 39.1744 75.1219 39.1246 77.3055 39.366C77.2989 38.5304 76.4351 37.4587 76.4351 37.4587C79.6749 37.608 85.5461 42.2916 87.1949 43.5453C88.8215 44.7812 90.2178 45.5054 90.2178 45.5054C89.6014 44.4462 89.4602 41.9945 88.4501 41.1129C86.6527 39.7448 82.746 36.0052 80.5773 35.1755C80.067 34.8777 79.1958 34.7344 78.1471 34.6935ZM39.7415 43.1346C40.1062 44.0897 40.8132 45.033 40.9039 46.078C41.6377 44.8792 42.1063 43.9924 42.1063 43.9924C41.8055 43.7421 40.554 43.2155 39.7415 43.1346ZM96.2042 44.0838C95.5506 44.1699 94.7336 44.7374 94.2508 45.3687C95.3798 45.6777 96.5607 45.6866 97.801 45.8143L97.8605 45.723L96.2042 44.0838ZM114.691 44.1209C113.071 44.0726 111.185 44.5695 111.185 44.5695C109.803 44.7426 108.051 46.9061 106.781 47.3503C106.81 47.9838 108.177 49.5309 108.288 49.8644C108.207 50.0739 108.036 50.3442 107.865 50.4645C106.097 49.7627 102.451 48.9791 100.75 48.7734C97.3554 48.3619 88.9998 48.9835 86.3779 49.0578C81.424 48.5134 74.7261 49.4827 71.5598 50.2083C68.6721 50.8693 65.0283 52.3191 63.049 53.3084C63.6431 52.3228 63.8407 51.2645 63.8117 50.391C61.334 48.0967 54.1422 45.062 48.7894 46.0097C47.8097 46.5793 46.6526 47.6986 46.0287 48.6909C45.0356 50.3427 44.3694 52.0443 43.9691 53.9405C43.3912 59.4433 47.4807 63.8648 50.0587 65.8649C49.6576 66.0417 48.9981 66.3715 47.8884 66.1227C47.3492 67.6252 47.1502 69.8682 47.555 71.731C47.018 72.3749 45.8304 72.9023 44.9569 73.131C44.9569 73.131 53.2524 83.7111 55.8029 86.864C59.6859 86.8878 64.6027 87.6736 67.6665 88.4044C70.731 89.136 78.7516 92.2317 84.8628 96.0731C77.827 89.2623 67.8655 85.4357 65.6975 84.8171C63.5288 84.1984 59.7869 83.6346 58.1544 83.4727C58.1544 83.4727 54.0716 77.9112 53.5562 75.6882C53.04 73.466 55.6752 64.2295 56.4238 61.0922L56.4253 61.0877C60.2533 62.4432 65.6849 62.0377 70.8981 61.1954C76.2895 60.325 100.207 54.6476 108.363 54.6149C111.928 54.8704 115.322 55.7602 118.226 57.8598C120.974 59.8385 127.569 62.545 132.91 62.9334C132.353 62.386 132.07 61.1427 132.271 60.351C132.568 59.1656 132.449 57.1907 132.367 56.6403C132.293 56.0899 132.1 55.2061 131.907 54.8429C131.565 54.9305 131.253 55.0486 131.031 55.3799C131.476 56.1947 131.952 56.9545 131.922 57.9505C131.892 58.0998 131.751 58.1599 131.64 58.2186C130.585 56.7888 127.919 54.216 126.671 53.301C127.235 52.4899 128.141 52.0443 128.877 51.1731C129.864 50.5158 130.964 51.1553 132.004 50.6487C132.189 49.6795 130.793 49.8458 130.34 49.8785C128.609 49.9996 123.069 52.9282 123.284 55.0575C123.254 55.3591 122.913 55.3272 122.771 55.3257C122.214 54.3274 122.333 51.6707 121.576 50.7913C119.815 48.5468 118.159 46.5764 116.139 44.3913C115.738 44.2153 115.225 44.1373 114.691 44.1209ZM29.151 46.1812C27.6128 46.1738 26.0679 46.3365 24.705 46.5407C26.0672 46.996 26.7668 48.4265 27.2043 49.3594C29.3396 48.5869 31.3814 47.4327 33.5628 46.8423C32.2221 46.3662 30.6899 46.1887 29.151 46.1812ZM114.275 47.3986C116.607 48.6508 119.355 52.2857 119.897 52.9282C120.246 53.3381 121.056 54.531 120.491 55.1608C119.31 54.6394 118.531 53.5483 117.491 52.5768C117.298 52.2738 116.963 51.8208 116.481 51.7576C116.287 52.3362 117.431 53.3612 117.09 53.7823C116.079 53.2327 115.366 52.438 114.171 51.8921C112.975 51.3447 111.437 50.9005 110.316 50.6302C111.556 49.5228 112.663 47.7796 114.275 47.3986ZM35.3602 49.912C34.5402 49.9394 33.8888 50.0107 33.8888 50.0107C33.8888 50.0107 29.558 52.4513 27.5645 53.63C26.9288 54.9016 26.5203 56.2192 26.2469 57.6281H28.8368C30.701 56.0833 33.5546 54.655 35.736 53.4733C35.736 53.4733 37.3031 51.3929 37.8475 50.0761C37.1702 49.9008 36.1801 49.8845 35.3602 49.912ZM21.5848 51.5311C20.2561 51.5504 19.0804 51.6529 17.7509 51.8571L20.6579 53.8113C21.3865 53.1309 22.3409 52.1765 22.976 51.54C22.4873 51.5281 22.0275 51.5244 21.5848 51.5311ZM24.5223 55.2217C23.5672 56.0847 20.496 59.1797 19.5728 60.4334C20.4314 60.1705 21.3553 59.7739 21.3553 59.7739L23.9928 57.4655C23.9928 57.4655 24.3248 55.8812 24.5223 55.2217ZM37.7866 55.674C35.7427 56.6292 33.1587 57.9482 31.2507 59.3126C31.0241 60.9474 30.9863 62.4128 31.0167 63.9888C31.9719 64.306 32.7435 65.0338 33.744 65.1698L39.9688 61.3536C40.2852 60.172 41.0576 58.8536 41.377 57.5368C40.222 56.5408 39.1659 56.1464 37.7866 55.674ZM17.0691 57.8547C15.8421 58.1272 14.7971 58.9903 13.7075 59.6268L15.5703 60.2626L17.0691 57.8547ZM27.2652 60.1489C26.1095 60.1415 24.786 60.4334 24.786 60.4334C24.786 60.4334 20.3749 64.8452 18.9333 66.8958L18.8412 70.53L20.8852 70.3035C22.7955 68.3501 24.9286 66.214 27.338 64.7145C27.4739 64.3973 27.5564 61.2905 27.7472 60.1727C27.5927 60.1571 27.4308 60.1504 27.2652 60.1489ZM13.8182 65.1512C13.4542 65.5597 11.5656 67.1707 11.2939 67.6245L12.4805 68.0701C12.6164 67.5234 13.6369 65.6956 13.8182 65.1512ZM28.8086 66.6351C27.8319 67.1083 24.5877 70.1312 24.5877 70.1312C24.5877 70.1312 24.3894 71.1866 24.4555 71.9791C25.8414 70.5278 29.3508 67.4291 30.9863 66.702L28.8086 66.6351ZM16.206 68.8953C14.5706 71.1219 14.07 73.8485 13.2537 76.3923C13.8917 74.3001 16.2751 71.1205 16.2751 71.1205C16.2751 71.1205 16.3761 69.6239 16.206 68.8953ZM20.4344 73.2298C19.7459 73.2305 19.0455 73.2981 18.4513 73.4296C17.0423 75.7469 15.2747 78.4526 14.3203 80.998C14.1843 82.496 14.6263 84.315 15.1848 85.7209C16.8032 81.5446 18.5174 77.6512 22.3432 73.4296C21.798 73.2937 21.1229 73.2283 20.4344 73.2298ZM38.1803 74.3223C37.2994 75.7514 36.5426 79.6499 36.3175 81.1079C39.079 81.0329 43.3229 80.6868 44.7482 81.1576C43.2568 79.6975 40.2228 77.4448 38.1803 74.3223ZM42.8773 84.133C40.023 84.1077 37.2623 84.5794 36.2856 85.4603C36.3264 87.4203 36.3948 89.4791 37.1353 91.2201C41.2678 89.5066 45.6083 88.0048 50.2496 89.3291C49.7207 88.0746 49.1682 86.304 47.7496 84.7331C46.3354 84.3417 44.59 84.1479 42.8773 84.133ZM48.265 91.9881C45.0312 91.9695 40.5852 92.8266 38.112 94.6077C38.64 98.3012 41.4334 103.032 41.4334 103.032C41.4334 103.032 49.0946 99.3856 55.9024 99.3188C54.0516 97.1277 52.532 94.6604 50.976 92.2956C50.2852 92.0965 49.3427 91.994 48.265 91.9881ZM58.5139 102.193C53.219 102.468 47.8714 103.887 43.4618 106.887C44.8477 110.2 47.572 113.23 49.9057 116.104C54.3316 112.458 60.1545 111.21 65.2155 109.011C62.8298 107.006 60.7057 104.533 58.5139 102.193ZM93.9381 105.498C94.7477 107.37 96.3223 108.751 98.2979 109.524C101.469 110.415 105.02 112.012 107.589 112.48C110.152 112.955 112.87 113.267 114.177 113.252C115.485 113.245 118.002 112.77 120.357 111.329C118.797 111.492 116.666 110.928 115.321 110.111C114.059 111.299 110.657 111.529 109.676 110.148C106.78 110.883 104.247 109.88 102.784 108.848C100.675 108.952 96.909 107.994 93.9381 105.498ZM67.6702 112.198C61.7804 113.067 57.2995 115.555 52.705 119.803C54.0909 122.425 57.2342 124.824 59.5581 127.008C65.9374 122.767 73.0906 121.043 80.5394 120.836C77.4274 118.095 71.0956 114.21 67.6702 112.198ZM82.0025 124.074C76.0251 124.155 68.7315 126.569 62.5565 130.008C62.5565 130.008 66.435 134.591 73.3112 136.886C80.8365 132.652 89.8606 132.088 95.0002 132.652C92.5344 129.481 87.7735 125.596 84.4832 124.185C83.6885 124.096 82.8567 124.066 82.0025 124.074ZM95.9658 136.507C90.4993 136.448 82.2402 138.23 78.0735 140.235C78.0735 140.235 89.0064 144.818 95.0002 148.346C98.2831 148.094 104.247 147.588 106.817 147.7C106.817 147.7 104.463 140.651 98.1197 136.648C97.4735 136.559 96.7456 136.514 95.9658 136.507ZM106.966 152.26C104.923 152.253 102.257 152.572 100.385 152.669C105.874 154.986 110.575 157.927 112.692 160.044C112.462 157.69 110.828 154.02 108.755 152.401C108.265 152.305 107.649 152.268 106.966 152.26Z"/>
</mask>
<path d="M42.3819 25.3545C43.9186 26.8554 45.8318 28.9655 45.6402 30.5901C45.2377 30.9451 44.3783 31.2103 43.3534 31.1962C44.8492 32.3296 46.6221 34.8363 46.8962 35.8063C47.1717 36.7748 46.3584 36.8825 45.3283 37.4878C45.6395 37.7567 50.7167 38.2758 51.2656 40.7446C52.168 41.0039 52.8914 41.168 53.7998 41.5215C53.9149 40.8702 53.7938 40.0041 53.7894 39.2458C53.2858 38.0025 49.4601 37.132 48.2888 36.9976C49.3271 36.2222 50.3164 35.6288 51.5761 35.6146C50.713 34.6394 49.1956 33.6494 47.1836 32.972C47.6114 32.5271 50.1352 32.5108 51.6466 33.1443C50.976 31.6693 48.0726 29.0965 45.6982 27.1185C50.0527 28.5042 55.462 33.1221 57.5119 35.4608C55.9232 37.3443 56.132 41.2815 57.0552 42.6852C57.0566 40.2543 57.4429 37.0138 58.5896 35.4028C56.123 31.6699 48.6022 26.0623 42.3819 25.3545ZM78.1471 34.6935C75.0024 34.5717 70.2682 35.3746 68.8719 35.7266C65.4546 38.1479 66.8264 43.6545 63.941 46.41C65.5571 46.3833 66.3481 47.6348 67.3166 47.3065C67.2179 45.3672 69.677 41.1738 71.6267 39.8592C73.0943 39.1744 75.1219 39.1246 77.3055 39.366C77.2989 38.5304 76.4351 37.4587 76.4351 37.4587C79.6749 37.608 85.5461 42.2916 87.1949 43.5453C88.8215 44.7812 90.2178 45.5054 90.2178 45.5054C89.6014 44.4462 89.4602 41.9945 88.4501 41.1129C86.6527 39.7448 82.746 36.0052 80.5773 35.1755C80.067 34.8777 79.1958 34.7344 78.1471 34.6935ZM39.7415 43.1346C40.1062 44.0897 40.8132 45.033 40.9039 46.078C41.6377 44.8792 42.1063 43.9924 42.1063 43.9924C41.8055 43.7421 40.554 43.2155 39.7415 43.1346ZM96.2042 44.0838C95.5506 44.1699 94.7336 44.7374 94.2508 45.3687C95.3798 45.6777 96.5607 45.6866 97.801 45.8143L97.8605 45.723L96.2042 44.0838ZM114.691 44.1209C113.071 44.0726 111.185 44.5695 111.185 44.5695C109.803 44.7426 108.051 46.9061 106.781 47.3503C106.81 47.9838 108.177 49.5309 108.288 49.8644C108.207 50.0739 108.036 50.3442 107.865 50.4645C106.097 49.7627 102.451 48.9791 100.75 48.7734C97.3554 48.3619 88.9998 48.9835 86.3779 49.0578C81.424 48.5134 74.7261 49.4827 71.5598 50.2083C68.6721 50.8693 65.0283 52.3191 63.049 53.3084C63.6431 52.3228 63.8407 51.2645 63.8117 50.391C61.334 48.0967 54.1422 45.062 48.7894 46.0097C47.8097 46.5793 46.6526 47.6986 46.0287 48.6909C45.0356 50.3427 44.3694 52.0443 43.9691 53.9405C43.3912 59.4433 47.4807 63.8648 50.0587 65.8649C49.6576 66.0417 48.9981 66.3715 47.8884 66.1227C47.3492 67.6252 47.1502 69.8682 47.555 71.731C47.018 72.3749 45.8304 72.9023 44.9569 73.131C44.9569 73.131 53.2524 83.7111 55.8029 86.864C59.6859 86.8878 64.6027 87.6736 67.6665 88.4044C70.731 89.136 78.7516 92.2317 84.8628 96.0731C77.827 89.2623 67.8655 85.4357 65.6975 84.8171C63.5288 84.1984 59.7869 83.6346 58.1544 83.4727C58.1544 83.4727 54.0716 77.9112 53.5562 75.6882C53.04 73.466 55.6752 64.2295 56.4238 61.0922L56.4253 61.0877C60.2533 62.4432 65.6849 62.0377 70.8981 61.1954C76.2895 60.325 100.207 54.6476 108.363 54.6149C111.928 54.8704 115.322 55.7602 118.226 57.8598C120.974 59.8385 127.569 62.545 132.91 62.9334C132.353 62.386 132.07 61.1427 132.271 60.351C132.568 59.1656 132.449 57.1907 132.367 56.6403C132.293 56.0899 132.1 55.2061 131.907 54.8429C131.565 54.9305 131.253 55.0486 131.031 55.3799C131.476 56.1947 131.952 56.9545 131.922 57.9505C131.892 58.0998 131.751 58.1599 131.64 58.2186C130.585 56.7888 127.919 54.216 126.671 53.301C127.235 52.4899 128.141 52.0443 128.877 51.1731C129.864 50.5158 130.964 51.1553 132.004 50.6487C132.189 49.6795 130.793 49.8458 130.34 49.8785C128.609 49.9996 123.069 52.9282 123.284 55.0575C123.254 55.3591 122.913 55.3272 122.771 55.3257C122.214 54.3274 122.333 51.6707 121.576 50.7913C119.815 48.5468 118.159 46.5764 116.139 44.3913C115.738 44.2153 115.225 44.1373 114.691 44.1209ZM29.151 46.1812C27.6128 46.1738 26.0679 46.3365 24.705 46.5407C26.0672 46.996 26.7668 48.4265 27.2043 49.3594C29.3396 48.5869 31.3814 47.4327 33.5628 46.8423C32.2221 46.3662 30.6899 46.1887 29.151 46.1812ZM114.275 47.3986C116.607 48.6508 119.355 52.2857 119.897 52.9282C120.246 53.3381 121.056 54.531 120.491 55.1608C119.31 54.6394 118.531 53.5483 117.491 52.5768C117.298 52.2738 116.963 51.8208 116.481 51.7576C116.287 52.3362 117.431 53.3612 117.09 53.7823C116.079 53.2327 115.366 52.438 114.171 51.8921C112.975 51.3447 111.437 50.9005 110.316 50.6302C111.556 49.5228 112.663 47.7796 114.275 47.3986ZM35.3602 49.912C34.5402 49.9394 33.8888 50.0107 33.8888 50.0107C33.8888 50.0107 29.558 52.4513 27.5645 53.63C26.9288 54.9016 26.5203 56.2192 26.2469 57.6281H28.8368C30.701 56.0833 33.5546 54.655 35.736 53.4733C35.736 53.4733 37.3031 51.3929 37.8475 50.0761C37.1702 49.9008 36.1801 49.8845 35.3602 49.912ZM21.5848 51.5311C20.2561 51.5504 19.0804 51.6529 17.7509 51.8571L20.6579 53.8113C21.3865 53.1309 22.3409 52.1765 22.976 51.54C22.4873 51.5281 22.0275 51.5244 21.5848 51.5311ZM24.5223 55.2217C23.5672 56.0847 20.496 59.1797 19.5728 60.4334C20.4314 60.1705 21.3553 59.7739 21.3553 59.7739L23.9928 57.4655C23.9928 57.4655 24.3248 55.8812 24.5223 55.2217ZM37.7866 55.674C35.7427 56.6292 33.1587 57.9482 31.2507 59.3126C31.0241 60.9474 30.9863 62.4128 31.0167 63.9888C31.9719 64.306 32.7435 65.0338 33.744 65.1698L39.9688 61.3536C40.2852 60.172 41.0576 58.8536 41.377 57.5368C40.222 56.5408 39.1659 56.1464 37.7866 55.674ZM17.0691 57.8547C15.8421 58.1272 14.7971 58.9903 13.7075 59.6268L15.5703 60.2626L17.0691 57.8547ZM27.2652 60.1489C26.1095 60.1415 24.786 60.4334 24.786 60.4334C24.786 60.4334 20.3749 64.8452 18.9333 66.8958L18.8412 70.53L20.8852 70.3035C22.7955 68.3501 24.9286 66.214 27.338 64.7145C27.4739 64.3973 27.5564 61.2905 27.7472 60.1727C27.5927 60.1571 27.4308 60.1504 27.2652 60.1489ZM13.8182 65.1512C13.4542 65.5597 11.5656 67.1707 11.2939 67.6245L12.4805 68.0701C12.6164 67.5234 13.6369 65.6956 13.8182 65.1512ZM28.8086 66.6351C27.8319 67.1083 24.5877 70.1312 24.5877 70.1312C24.5877 70.1312 24.3894 71.1866 24.4555 71.9791C25.8414 70.5278 29.3508 67.4291 30.9863 66.702L28.8086 66.6351ZM16.206 68.8953C14.5706 71.1219 14.07 73.8485 13.2537 76.3923C13.8917 74.3001 16.2751 71.1205 16.2751 71.1205C16.2751 71.1205 16.3761 69.6239 16.206 68.8953ZM20.4344 73.2298C19.7459 73.2305 19.0455 73.2981 18.4513 73.4296C17.0423 75.7469 15.2747 78.4526 14.3203 80.998C14.1843 82.496 14.6263 84.315 15.1848 85.7209C16.8032 81.5446 18.5174 77.6512 22.3432 73.4296C21.798 73.2937 21.1229 73.2283 20.4344 73.2298ZM38.1803 74.3223C37.2994 75.7514 36.5426 79.6499 36.3175 81.1079C39.079 81.0329 43.3229 80.6868 44.7482 81.1576C43.2568 79.6975 40.2228 77.4448 38.1803 74.3223ZM42.8773 84.133C40.023 84.1077 37.2623 84.5794 36.2856 85.4603C36.3264 87.4203 36.3948 89.4791 37.1353 91.2201C41.2678 89.5066 45.6083 88.0048 50.2496 89.3291C49.7207 88.0746 49.1682 86.304 47.7496 84.7331C46.3354 84.3417 44.59 84.1479 42.8773 84.133ZM48.265 91.9881C45.0312 91.9695 40.5852 92.8266 38.112 94.6077C38.64 98.3012 41.4334 103.032 41.4334 103.032C41.4334 103.032 49.0946 99.3856 55.9024 99.3188C54.0516 97.1277 52.532 94.6604 50.976 92.2956C50.2852 92.0965 49.3427 91.994 48.265 91.9881ZM58.5139 102.193C53.219 102.468 47.8714 103.887 43.4618 106.887C44.8477 110.2 47.572 113.23 49.9057 116.104C54.3316 112.458 60.1545 111.21 65.2155 109.011C62.8298 107.006 60.7057 104.533 58.5139 102.193ZM93.9381 105.498C94.7477 107.37 96.3223 108.751 98.2979 109.524C101.469 110.415 105.02 112.012 107.589 112.48C110.152 112.955 112.87 113.267 114.177 113.252C115.485 113.245 118.002 112.77 120.357 111.329C118.797 111.492 116.666 110.928 115.321 110.111C114.059 111.299 110.657 111.529 109.676 110.148C106.78 110.883 104.247 109.88 102.784 108.848C100.675 108.952 96.909 107.994 93.9381 105.498ZM67.6702 112.198C61.7804 113.067 57.2995 115.555 52.705 119.803C54.0909 122.425 57.2342 124.824 59.5581 127.008C65.9374 122.767 73.0906 121.043 80.5394 120.836C77.4274 118.095 71.0956 114.21 67.6702 112.198ZM82.0025 124.074C76.0251 124.155 68.7315 126.569 62.5565 130.008C62.5565 130.008 66.435 134.591 73.3112 136.886C80.8365 132.652 89.8606 132.088 95.0002 132.652C92.5344 129.481 87.7735 125.596 84.4832 124.185C83.6885 124.096 82.8567 124.066 82.0025 124.074ZM95.9658 136.507C90.4993 136.448 82.2402 138.23 78.0735 140.235C78.0735 140.235 89.0064 144.818 95.0002 148.346C98.2831 148.094 104.247 147.588 106.817 147.7C106.817 147.7 104.463 140.651 98.1197 136.648C97.4735 136.559 96.7456 136.514 95.9658 136.507ZM106.966 152.26C104.923 152.253 102.257 152.572 100.385 152.669C105.874 154.986 110.575 157.927 112.692 160.044C112.462 157.69 110.828 154.02 108.755 152.401C108.265 152.305 107.649 152.268 106.966 152.26Z" fill="#00704A"/>
<path d="M42.3819 25.3545C43.9186 26.8554 45.8318 28.9655 45.6402 30.5901C45.2377 30.9451 44.3783 31.2103 43.3534 31.1962C44.8492 32.3296 46.6221 34.8363 46.8962 35.8063C47.1717 36.7748 46.3584 36.8825 45.3283 37.4878C45.6395 37.7567 50.7167 38.2758 51.2656 40.7446C52.168 41.0039 52.8914 41.168 53.7998 41.5215C53.9149 40.8702 53.7938 40.0041 53.7894 39.2458C53.2858 38.0025 49.4601 37.132 48.2888 36.9976C49.3271 36.2222 50.3164 35.6288 51.5761 35.6146C50.713 34.6394 49.1956 33.6494 47.1836 32.972C47.6114 32.5271 50.1352 32.5108 51.6466 33.1443C50.976 31.6693 48.0726 29.0965 45.6982 27.1185C50.0527 28.5042 55.462 33.1221 57.5119 35.4608C55.9232 37.3443 56.132 41.2815 57.0552 42.6852C57.0566 40.2543 57.4429 37.0138 58.5896 35.4028C56.123 31.6699 48.6022 26.0623 42.3819 25.3545ZM78.1471 34.6935C75.0024 34.5717 70.2682 35.3746 68.8719 35.7266C65.4546 38.1479 66.8264 43.6545 63.941 46.41C65.5571 46.3833 66.3481 47.6348 67.3166 47.3065C67.2179 45.3672 69.677 41.1738 71.6267 39.8592C73.0943 39.1744 75.1219 39.1246 77.3055 39.366C77.2989 38.5304 76.4351 37.4587 76.4351 37.4587C79.6749 37.608 85.5461 42.2916 87.1949 43.5453C88.8215 44.7812 90.2178 45.5054 90.2178 45.5054C89.6014 44.4462 89.4602 41.9945 88.4501 41.1129C86.6527 39.7448 82.746 36.0052 80.5773 35.1755C80.067 34.8777 79.1958 34.7344 78.1471 34.6935ZM39.7415 43.1346C40.1062 44.0897 40.8132 45.033 40.9039 46.078C41.6377 44.8792 42.1063 43.9924 42.1063 43.9924C41.8055 43.7421 40.554 43.2155 39.7415 43.1346ZM96.2042 44.0838C95.5506 44.1699 94.7336 44.7374 94.2508 45.3687C95.3798 45.6777 96.5607 45.6866 97.801 45.8143L97.8605 45.723L96.2042 44.0838ZM114.691 44.1209C113.071 44.0726 111.185 44.5695 111.185 44.5695C109.803 44.7426 108.051 46.9061 106.781 47.3503C106.81 47.9838 108.177 49.5309 108.288 49.8644C108.207 50.0739 108.036 50.3442 107.865 50.4645C106.097 49.7627 102.451 48.9791 100.75 48.7734C97.3554 48.3619 88.9998 48.9835 86.3779 49.0578C81.424 48.5134 74.7261 49.4827 71.5598 50.2083C68.6721 50.8693 65.0283 52.3191 63.049 53.3084C63.6431 52.3228 63.8407 51.2645 63.8117 50.391C61.334 48.0967 54.1422 45.062 48.7894 46.0097C47.8097 46.5793 46.6526 47.6986 46.0287 48.6909C45.0356 50.3427 44.3694 52.0443 43.9691 53.9405C43.3912 59.4433 47.4807 63.8648 50.0587 65.8649C49.6576 66.0417 48.9981 66.3715 47.8884 66.1227C47.3492 67.6252 47.1502 69.8682 47.555 71.731C47.018 72.3749 45.8304 72.9023 44.9569 73.131C44.9569 73.131 53.2524 83.7111 55.8029 86.864C59.6859 86.8878 64.6027 87.6736 67.6665 88.4044C70.731 89.136 78.7516 92.2317 84.8628 96.0731C77.827 89.2623 67.8655 85.4357 65.6975 84.8171C63.5288 84.1984 59.7869 83.6346 58.1544 83.4727C58.1544 83.4727 54.0716 77.9112 53.5562 75.6882C53.04 73.466 55.6752 64.2295 56.4238 61.0922L56.4253 61.0877C60.2533 62.4432 65.6849 62.0377 70.8981 61.1954C76.2895 60.325 100.207 54.6476 108.363 54.6149C111.928 54.8704 115.322 55.7602 118.226 57.8598C120.974 59.8385 127.569 62.545 132.91 62.9334C132.353 62.386 132.07 61.1427 132.271 60.351C132.568 59.1656 132.449 57.1907 132.367 56.6403C132.293 56.0899 132.1 55.2061 131.907 54.8429C131.565 54.9305 131.253 55.0486 131.031 55.3799C131.476 56.1947 131.952 56.9545 131.922 57.9505C131.892 58.0998 131.751 58.1599 131.64 58.2186C130.585 56.7888 127.919 54.216 126.671 53.301C127.235 52.4899 128.141 52.0443 128.877 51.1731C129.864 50.5158 130.964 51.1553 132.004 50.6487C132.189 49.6795 130.793 49.8458 130.34 49.8785C128.609 49.9996 123.069 52.9282 123.284 55.0575C123.254 55.3591 122.913 55.3272 122.771 55.3257C122.214 54.3274 122.333 51.6707 121.576 50.7913C119.815 48.5468 118.159 46.5764 116.139 44.3913C115.738 44.2153 115.225 44.1373 114.691 44.1209ZM29.151 46.1812C27.6128 46.1738 26.0679 46.3365 24.705 46.5407C26.0672 46.996 26.7668 48.4265 27.2043 49.3594C29.3396 48.5869 31.3814 47.4327 33.5628 46.8423C32.2221 46.3662 30.6899 46.1887 29.151 46.1812ZM114.275 47.3986C116.607 48.6508 119.355 52.2857 119.897 52.9282C120.246 53.3381 121.056 54.531 120.491 55.1608C119.31 54.6394 118.531 53.5483 117.491 52.5768C117.298 52.2738 116.963 51.8208 116.481 51.7576C116.287 52.3362 117.431 53.3612 117.09 53.7823C116.079 53.2327 115.366 52.438 114.171 51.8921C112.975 51.3447 111.437 50.9005 110.316 50.6302C111.556 49.5228 112.663 47.7796 114.275 47.3986ZM35.3602 49.912C34.5402 49.9394 33.8888 50.0107 33.8888 50.0107C33.8888 50.0107 29.558 52.4513 27.5645 53.63C26.9288 54.9016 26.5203 56.2192 26.2469 57.6281H28.8368C30.701 56.0833 33.5546 54.655 35.736 53.4733C35.736 53.4733 37.3031 51.3929 37.8475 50.0761C37.1702 49.9008 36.1801 49.8845 35.3602 49.912ZM21.5848 51.5311C20.2561 51.5504 19.0804 51.6529 17.7509 51.8571L20.6579 53.8113C21.3865 53.1309 22.3409 52.1765 22.976 51.54C22.4873 51.5281 22.0275 51.5244 21.5848 51.5311ZM24.5223 55.2217C23.5672 56.0847 20.496 59.1797 19.5728 60.4334C20.4314 60.1705 21.3553 59.7739 21.3553 59.7739L23.9928 57.4655C23.9928 57.4655 24.3248 55.8812 24.5223 55.2217ZM37.7866 55.674C35.7427 56.6292 33.1587 57.9482 31.2507 59.3126C31.0241 60.9474 30.9863 62.4128 31.0167 63.9888C31.9719 64.306 32.7435 65.0338 33.744 65.1698L39.9688 61.3536C40.2852 60.172 41.0576 58.8536 41.377 57.5368C40.222 56.5408 39.1659 56.1464 37.7866 55.674ZM17.0691 57.8547C15.8421 58.1272 14.7971 58.9903 13.7075 59.6268L15.5703 60.2626L17.0691 57.8547ZM27.2652 60.1489C26.1095 60.1415 24.786 60.4334 24.786 60.4334C24.786 60.4334 20.3749 64.8452 18.9333 66.8958L18.8412 70.53L20.8852 70.3035C22.7955 68.3501 24.9286 66.214 27.338 64.7145C27.4739 64.3973 27.5564 61.2905 27.7472 60.1727C27.5927 60.1571 27.4308 60.1504 27.2652 60.1489ZM13.8182 65.1512C13.4542 65.5597 11.5656 67.1707 11.2939 67.6245L12.4805 68.0701C12.6164 67.5234 13.6369 65.6956 13.8182 65.1512ZM28.8086 66.6351C27.8319 67.1083 24.5877 70.1312 24.5877 70.1312C24.5877 70.1312 24.3894 71.1866 24.4555 71.9791C25.8414 70.5278 29.3508 67.4291 30.9863 66.702L28.8086 66.6351ZM16.206 68.8953C14.5706 71.1219 14.07 73.8485 13.2537 76.3923C13.8917 74.3001 16.2751 71.1205 16.2751 71.1205C16.2751 71.1205 16.3761 69.6239 16.206 68.8953ZM20.4344 73.2298C19.7459 73.2305 19.0455 73.2981 18.4513 73.4296C17.0423 75.7469 15.2747 78.4526 14.3203 80.998C14.1843 82.496 14.6263 84.315 15.1848 85.7209C16.8032 81.5446 18.5174 77.6512 22.3432 73.4296C21.798 73.2937 21.1229 73.2283 20.4344 73.2298ZM38.1803 74.3223C37.2994 75.7514 36.5426 79.6499 36.3175 81.1079C39.079 81.0329 43.3229 80.6868 44.7482 81.1576C43.2568 79.6975 40.2228 77.4448 38.1803 74.3223ZM42.8773 84.133C40.023 84.1077 37.2623 84.5794 36.2856 85.4603C36.3264 87.4203 36.3948 89.4791 37.1353 91.2201C41.2678 89.5066 45.6083 88.0048 50.2496 89.3291C49.7207 88.0746 49.1682 86.304 47.7496 84.7331C46.3354 84.3417 44.59 84.1479 42.8773 84.133ZM48.265 91.9881C45.0312 91.9695 40.5852 92.8266 38.112 94.6077C38.64 98.3012 41.4334 103.032 41.4334 103.032C41.4334 103.032 49.0946 99.3856 55.9024 99.3188C54.0516 97.1277 52.532 94.6604 50.976 92.2956C50.2852 92.0965 49.3427 91.994 48.265 91.9881ZM58.5139 102.193C53.219 102.468 47.8714 103.887 43.4618 106.887C44.8477 110.2 47.572 113.23 49.9057 116.104C54.3316 112.458 60.1545 111.21 65.2155 109.011C62.8298 107.006 60.7057 104.533 58.5139 102.193ZM93.9381 105.498C94.7477 107.37 96.3223 108.751 98.2979 109.524C101.469 110.415 105.02 112.012 107.589 112.48C110.152 112.955 112.87 113.267 114.177 113.252C115.485 113.245 118.002 112.77 120.357 111.329C118.797 111.492 116.666 110.928 115.321 110.111C114.059 111.299 110.657 111.529 109.676 110.148C106.78 110.883 104.247 109.88 102.784 108.848C100.675 108.952 96.909 107.994 93.9381 105.498ZM67.6702 112.198C61.7804 113.067 57.2995 115.555 52.705 119.803C54.0909 122.425 57.2342 124.824 59.5581 127.008C65.9374 122.767 73.0906 121.043 80.5394 120.836C77.4274 118.095 71.0956 114.21 67.6702 112.198ZM82.0025 124.074C76.0251 124.155 68.7315 126.569 62.5565 130.008C62.5565 130.008 66.435 134.591 73.3112 136.886C80.8365 132.652 89.8606 132.088 95.0002 132.652C92.5344 129.481 87.7735 125.596 84.4832 124.185C83.6885 124.096 82.8567 124.066 82.0025 124.074ZM95.9658 136.507C90.4993 136.448 82.2402 138.23 78.0735 140.235C78.0735 140.235 89.0064 144.818 95.0002 148.346C98.2831 148.094 104.247 147.588 106.817 147.7C106.817 147.7 104.463 140.651 98.1197 136.648C97.4735 136.559 96.7456 136.514 95.9658 136.507ZM106.966 152.26C104.923 152.253 102.257 152.572 100.385 152.669C105.874 154.986 110.575 157.927 112.692 160.044C112.462 157.69 110.828 154.02 108.755 152.401C108.265 152.305 107.649 152.268 106.966 152.26Z" stroke="white" stroke-width="6" stroke-linejoin="round" mask="url(#path-6-outside-1_15016_302016)"/>
<path d="M88.2422 119.727C77.7688 113.106 59.9147 100.89 57.161 92.5086C61.9957 92.3783 70.0668 94.6379 74.3597 96.5998C77.876 98.2077 85.1144 102.832 88.9561 110.544C88.9561 110.544 91.154 111.369 93.4602 110.966C93.43 112.259 93.1323 113.546 91.7851 114.302C93.2311 115.029 96.5965 114.534 98.1262 113.921C98.664 114.496 98.3059 117.633 97.6831 118.412C99.3678 118.592 102.732 117.602 104.902 116.287C105.404 117.998 105.107 120.274 104.373 121.925C106.629 121.306 108.69 120.203 110.36 118.404C111.341 118.592 114.112 118.79 115.289 118.255C116.466 117.721 120.308 113.771 123.041 113.578C123.271 112.373 122.883 110.922 122.578 109.684C123.736 108.968 124.529 107.796 125.603 106.777C132.438 93.901 134.951 74.7414 135.015 69.8116C135.294 69.7526 136.896 68.8869 137.093 68.5577C137.352 67.3532 137.442 66.1459 137.616 64.8206C136.579 63.8191 135.766 62.2619 135.436 60.7212C135.5 58.5508 135.651 56.0169 135.971 53.9384C135.529 51.6431 135.032 49.3177 134.393 47.1404C134.03 46.2939 132.715 45.7602 131.434 45.8865C128.783 46.5628 125.908 46.9964 123.396 48.157C122.423 46.8481 121.528 42.978 115.899 40.1806C109.051 40.2451 104.511 44.8685 103.381 45.6436C102.201 44.852 100.316 40.7101 99.3336 39.5275C97.3649 38.8512 96.2989 38.6344 95.3441 39.2216C94.2987 40.0599 93.2532 40.5647 92.1529 41.252C90.5602 38.4039 86.5883 33.8313 85.0175 32.6967C83.2381 31.4112 80.1691 30.0256 78.5954 29.6716C77.9767 29.4877 77.2976 30.1463 77.24 30.7485C75.9146 30.5524 73.8033 30.6182 72.4642 30.7279C69.9783 29.2709 67.5527 26.7809 63.3203 26.6149C61.7974 29.5631 63.4465 34.0824 64.496 36.2016C63.7744 36.8862 62.4559 38.4036 61.7755 39.3502C61.7755 39.3502 62.6933 35.4004 60.5037 32.6455C58.3154 29.8921 48.0667 22.0812 42.2846 22.3096C40.3379 22.3865 39.2006 28.2432 39.9208 32.1591C40.6136 35.936 43.7142 42.0958 43.7142 42.0958L43.7128 42.0967C40.1966 40.8194 36.5458 40.1911 33.9738 40.8675C35.1989 41.7305 36.2896 43.1394 36.6079 44.4565C32.6101 43.4111 23.0708 43.3837 19.1613 45.4553C20.5236 46.7284 22.0698 47.5462 23.0686 49.1362C20.3082 48.4448 14.4624 49.7179 12.0735 52.1806C13.9681 52.5881 15.8476 53.5772 16.8437 55.0425C13.3727 56.2484 10.9828 58.814 8.66556 61.267C10.2103 61.4481 11.7895 61.9557 12.8458 62.7665C10.4709 63.9999 7.7326 67.2336 6.71191 69.7634C8.12913 69.6084 9.61355 69.7072 10.6644 70.1723C9.16625 72.2164 7.89312 74.3978 6.93826 76.8508C8.12913 76.7329 8.8933 76.9866 9.57512 77.2596C8.72589 86.6495 11.8306 97.1554 16.1165 103.793C23.2958 114.912 30.8679 123.574 45.805 132.657C77.8991 152.171 109.639 155.228 121.629 178.152C121.983 158.754 113.164 135.479 88.2422 119.727Z" fill="#1D1818"/>
<path d="M115.411 69.5834C114.555 70.3009 112.429 74.4579 112.414 76.1248C108.371 73.7156 107.231 70.0059 106.222 66.9273C104.018 68.7685 99.1841 71.3656 97.8699 71.12C98.5737 70.3009 98.8714 66.9877 98.2472 65.9025C96.4939 67.8246 93.4289 71.1432 90.2763 71.2667C90.7921 70.5026 91.2023 66.9877 90.3119 65.8764C89.2226 67.6791 86.2441 69.9291 83.4413 70.2117C83.5839 69.3611 83.7307 68.0756 82.8362 67.1962C81.1583 69.9058 78.0413 72.2312 75.211 72.2477C75.5389 70.2323 75.0615 68.4653 73.658 67.3101C72.2517 69.4119 70.5685 71.8526 66.1219 72.0706C66.0835 70.4668 64.632 67.0356 63.0982 66.4992C61.8128 67.7792 60.482 72.9609 60.3448 74.2931C60.1458 76.2069 60.9429 78.9701 63.23 78.7409C65.2097 78.5434 67.1962 76.1316 67.9494 74.5483C70.0169 75.1917 71.5069 78.5242 72.009 80.3283C73.145 79.5572 75.2536 77.5926 75.7571 75.6225C78.2636 77.2716 79.2789 80.3626 79.2707 82.6935C80.729 81.4834 82.4454 79.2416 82.9255 77.5981C85.0041 78.9082 86.8644 82.9349 86.5241 86.0725C87.7547 85.6527 89.3064 84.7156 90.3505 83.4096C92.208 84.9804 93.3303 88.2786 92.8543 90.7631C93.8585 90.5875 96.7602 88.6091 97.4778 87.2413C98.4093 88.675 99.1364 93.688 98.7907 95.6349C100.784 94.4152 103.886 90.9182 105.055 88.7107C105.667 89.7959 106.393 92.1049 106.458 93.7567C110.209 94.7472 114.966 96.6652 117.977 98.1167C122.022 100.066 129.284 104.178 132.783 107.579C134.941 109.674 135.535 112.408 136.031 114.441C138.01 112.507 137.784 107.151 137.226 106.005C139.098 107.262 140.597 108.73 142.379 109.264C145.385 110.448 149.945 111.012 153.166 110.833C157.503 109.845 164.42 107.311 167.943 106.322C169.479 105.679 172.1 104.788 173.865 104.755C176.899 104.441 179.668 104.093 182.64 105.085C184.673 105.399 187.653 106.304 189.418 107.311C189.418 107.311 188.293 103.698 186.4 101.275C186.054 100.781 183.728 96.5253 175.64 97.6255C177.345 96.9204 180.02 93.3917 180.346 91.7331C180.675 89.3295 180.1 86.6954 178.862 85.1972C177.463 93.1462 170.528 97.2164 166.155 97.1662C162.413 97.1237 159.906 96.483 156.296 94.5184C151.833 92.0901 151.519 88.213 146.322 85.9424C147.031 87.3556 147.163 90.1927 145.998 91.5235C144.26 89.0046 136.529 81.3454 133.44 79.3066C130.142 77.1307 121.961 71.1272 115.411 69.5834Z" fill="#D82342"/>
<path d="M76.5993 41.9873C75.8477 41.9591 75.2364 42.0846 74.7945 42.3401C73.5378 43.0657 69.8227 46.2401 71.5065 48.807C71.5065 48.807 72.5188 48.3703 74.236 47.8816C77.1749 47.046 80.9339 47.2272 85.1971 46.769C83.927 45.8554 82.6793 44.237 81.3869 43.5381C79.4952 42.5117 77.8523 42.0356 76.5993 41.9873ZM95.1051 74.662C92.0525 74.6932 88.9256 74.9621 87.7224 75.3683C85.5536 75.8073 87.3362 75.7917 85.2491 76.4705C85.0486 77.1932 86.0958 76.8686 86.378 77.2021C86.69 77.2652 90.0842 77.9255 91.332 78.1996C97.2664 79.1132 103.55 80.0891 108.86 83.08C111.274 84.4816 114.505 86.9556 115.738 88.672C116.963 90.3899 118.07 92.3002 117.543 95.1404C121.368 95.335 124.272 92.3656 125.193 89.9413C127.042 90.6506 127.778 91.3748 129.048 92.168C133.199 94.7579 136.906 99.2833 140.976 101.719C146.635 105.099 155.147 101.006 156.647 99.1793C151.849 98.6966 144.845 96.0005 141.518 93.8481C142.61 93.4871 143.375 92.8424 143.657 91.9519C141.421 91.7721 134.796 86.3703 133.638 85.6514C127.636 81.9422 117.892 77.8891 117.892 77.8891C118.092 77.2868 118.003 75.8065 117.654 75.3839C116.488 76.5225 112.448 76.7877 109.692 76.2693C106.937 75.7501 102.109 75.1418 100.089 74.8819C98.737 74.7095 96.9322 74.6427 95.1051 74.662ZM178.862 85.1931C179.404 87.8275 179.731 92.8246 175.639 97.6196C175.862 97.6642 176.114 97.6419 176.367 97.5825C185.881 97.2037 187.285 105.136 187.285 105.136C182.39 102.328 177.919 102.536 172.237 103.777C167.721 104.757 165.798 104.772 162.292 101.645C163.057 104.185 164.869 105.842 166.86 106.517C159.633 104.557 154.241 112.407 145.187 110.127C150.72 112.756 156.098 110.714 160.339 109.139C166.11 107.008 176.567 111.665 180.674 107.736C177.659 107.75 172.668 106.681 169.897 105.871C169.897 105.871 171.22 105.203 177.444 105.047C183.66 104.883 188.837 109.139 190.902 111.769C191.035 103.918 185.524 95.7131 177.34 97.1888C179.932 95.6202 182.754 90.3045 178.862 85.1931Z" fill="#CFC580"/>
<path d="M74.2432 48.3236C74.9868 46.2657 76.2009 44.1076 77.5139 42.8797C77.1572 44.5549 77.3122 46.2726 77.9378 47.8915C77.9378 47.8915 75.3133 48.2962 74.2432 48.3236Z" fill="#1D1818"/>
<path d="M79.4501 43.313C82.2487 44.2102 81.2757 46.4183 81.2757 46.4183C83.8381 44.2852 79.4501 43.313 79.4501 43.313ZM103.401 57.6201C102.867 57.6008 102.317 57.655 101.923 57.6959C99.6656 57.9276 84.0981 61.2201 81.2608 61.688C78.4147 62.1559 69.6706 64.1538 64.1767 64.5111C66.2823 65.4492 67.6675 67.6246 67.7856 69.4331C68.9145 68.8664 71.1642 67.3609 72.8124 63.9102C75.5188 65.1179 77.1677 67.0973 77.4321 69.038C79.0817 68.4223 80.9935 66.3055 82.568 62.3186C83.801 63.2202 85.5241 65.8525 85.3458 66.8581C87.2918 66.2075 89.52 63.6585 90.4484 61.2164C92.4686 62.9796 93.0702 64.5252 93.1593 67.4887C94.7784 66.3063 97.4225 63.3369 98.6926 60.2456C100.445 62.2926 101.047 65.3823 100.809 67.8838C102.763 66.5692 104.813 61.2921 105.043 58.7416C105.117 57.8927 104.293 57.6535 103.401 57.6201ZM112.968 58.827C112.767 58.8397 112.567 58.8686 112.381 58.9169C110.888 59.3039 110.079 60.4261 109.73 61.1859C108.779 64.8052 108.95 69.116 111.26 71.8656C112.232 69.3975 115.53 62.8652 117.862 61.5647C118.041 63.1467 119.274 65.5123 120.105 66.4518C121.004 65.9431 121.821 65.1276 122.289 64.4762C122.683 65.4239 123.195 66.6628 123.752 67.4293C124.465 67.1441 125.498 66.0619 125.951 65.3801C126.76 66.1852 127.354 67.785 127.711 68.8442C128.402 68.0999 129.56 67.1106 130.541 66.6836C129.976 68.7639 131.046 72.4337 132.375 74.1502C133.43 71.8566 133.927 67.5682 132.635 66.3241C129.835 65.5695 125.832 64.2846 124.19 63.674C122.549 63.0635 119.326 61.4028 117.134 60.0533C116.199 59.4754 114.401 58.7424 112.968 58.827ZM68.2921 78.0034C67.4781 79.4577 64.4344 81.2907 62.9141 81.5759C64.9283 81.9904 67.0837 82.436 69.0868 83.0629C70.3257 81.6606 69.3498 79.301 68.2921 78.0034ZM76.0959 79.5149C75.3859 81.1957 72.8265 83.0807 70.7015 83.4847C70.7015 83.4847 75.4676 84.9836 78.5462 86.5544C85.071 89.7318 92.6988 96.735 94.9567 99.483C97.2146 102.231 97.326 103.286 99.5096 103.813C100.275 103.969 101.114 104.043 101.723 103.598C103.929 101.154 104.961 97.3217 104.033 93.9846C101.842 96.7275 98.4327 99.6019 96.0634 99.0523C96.0634 99.0523 95.2835 98.822 95.2686 98.4061C96.5238 96.5493 96.7615 93.9081 96.197 91.8092C95.0755 92.8475 91.9041 93.9594 89.8319 93.2345C90.3369 92.3566 90.9831 88.4818 89.9804 87.0506C89.052 87.9025 85.8435 89.4117 83.5336 88.3422C84.41 86.7089 84.306 83.074 83.1548 81.6807C83.1548 81.6807 81.5951 84.4911 80.273 85.0794C79.1151 85.5948 78.0523 85.9365 76.6025 85.2784C76.8275 84.145 77.161 81.0813 76.0959 79.5149ZM109.395 102.565C108.541 103.093 104.961 105.373 104.33 106.784C105.035 107.423 108.289 108.21 109.737 107.193C110.784 107.995 113.012 108.284 114.973 106.91C115.991 107.519 117.476 108.388 118.672 108.425C120.462 108.477 122.497 106.858 123.708 105.44C123.113 104.779 121.576 103.687 120.009 103.501C119.437 104.37 117.224 105.655 115.976 105.365C115.924 104.63 115.5 103.865 115.055 103.256C113.948 104.4 111.809 105.982 110.65 105.804C110.19 105.588 109.462 103.947 109.395 102.565Z" fill="white"/>
<path d="M42.3819 25.3545C43.9186 26.8554 45.8318 28.9655 45.6402 30.5901C45.2377 30.9451 44.3783 31.2103 43.3534 31.1962C44.8492 32.3296 46.6221 34.8363 46.8962 35.8063C47.1717 36.7748 46.3584 36.8825 45.3283 37.4878C45.6395 37.7567 50.7167 38.2758 51.2656 40.7446C52.168 41.0039 52.8914 41.168 53.7998 41.5215C53.9149 40.8702 53.7938 40.0041 53.7894 39.2458C53.2858 38.0025 49.4601 37.132 48.2888 36.9976C49.3271 36.2222 50.3164 35.6288 51.5761 35.6146C50.713 34.6394 49.1956 33.6494 47.1836 32.972C47.6114 32.5271 50.1352 32.5108 51.6466 33.1443C50.976 31.6693 48.0726 29.0965 45.6982 27.1185C50.0527 28.5042 55.462 33.1221 57.5119 35.4608C55.9232 37.3443 56.132 41.2815 57.0552 42.6852C57.0566 40.2543 57.4429 37.0138 58.5896 35.4028C56.123 31.6699 48.6022 26.0623 42.3819 25.3545ZM78.1471 34.6935C75.0024 34.5717 70.2682 35.3746 68.8719 35.7266C65.4546 38.1479 66.8264 43.6545 63.941 46.41C65.5571 46.3833 66.3481 47.6348 67.3166 47.3065C67.2179 45.3672 69.677 41.1738 71.6267 39.8592C73.0943 39.1744 75.1219 39.1246 77.3055 39.366C77.2989 38.5304 76.4351 37.4587 76.4351 37.4587C79.6749 37.608 85.5461 42.2916 87.1949 43.5453C88.8215 44.7812 90.2178 45.5054 90.2178 45.5054C89.6014 44.4462 89.4602 41.9945 88.4501 41.1129C86.6527 39.7448 82.746 36.0052 80.5773 35.1755C80.067 34.8777 79.1958 34.7344 78.1471 34.6935ZM39.7415 43.1346C40.1062 44.0897 40.8132 45.033 40.9039 46.078C41.6377 44.8792 42.1063 43.9924 42.1063 43.9924C41.8055 43.7421 40.554 43.2155 39.7415 43.1346ZM96.2042 44.0838C95.5506 44.1699 94.7336 44.7374 94.2508 45.3687C95.3798 45.6777 96.5607 45.6866 97.801 45.8143L97.8605 45.723L96.2042 44.0838ZM114.691 44.1209C113.071 44.0726 111.185 44.5695 111.185 44.5695C109.803 44.7426 108.051 46.9061 106.781 47.3503C106.81 47.9838 108.177 49.5309 108.288 49.8644C108.207 50.0739 108.036 50.3442 107.865 50.4645C106.097 49.7627 102.451 48.9791 100.75 48.7734C97.3554 48.3619 88.9998 48.9835 86.3779 49.0578C81.424 48.5134 74.7261 49.4827 71.5598 50.2083C68.6721 50.8693 65.0283 52.3191 63.049 53.3084C63.6431 52.3228 63.8407 51.2645 63.8117 50.391C61.334 48.0967 54.1422 45.062 48.7894 46.0097C47.8097 46.5793 46.6526 47.6986 46.0287 48.6909C45.0356 50.3427 44.3694 52.0443 43.9691 53.9405C43.3912 59.4433 47.4807 63.8648 50.0587 65.8649C49.6576 66.0417 48.9981 66.3715 47.8884 66.1227C47.3492 67.6252 47.1502 69.8682 47.555 71.731C47.018 72.3749 45.8304 72.9023 44.9569 73.131C44.9569 73.131 53.2524 83.7111 55.8029 86.864C59.6859 86.8878 64.6027 87.6736 67.6665 88.4044C70.731 89.136 78.7516 92.2317 84.8628 96.0731C77.827 89.2623 67.8655 85.4357 65.6975 84.8171C63.5288 84.1984 59.7869 83.6346 58.1544 83.4727C58.1544 83.4727 54.0716 77.9112 53.5562 75.6882C53.04 73.466 55.6752 64.2295 56.4238 61.0922L56.4253 61.0877C60.2533 62.4432 65.6849 62.0377 70.8981 61.1954C76.2895 60.325 100.207 54.6476 108.363 54.6149C111.928 54.8704 115.322 55.7602 118.226 57.8598C120.974 59.8385 127.569 62.545 132.91 62.9334C132.353 62.386 132.07 61.1427 132.271 60.351C132.568 59.1656 132.449 57.1907 132.367 56.6403C132.293 56.0899 132.1 55.2061 131.907 54.8429C131.565 54.9305 131.253 55.0486 131.031 55.3799C131.476 56.1947 131.952 56.9545 131.922 57.9505C131.892 58.0998 131.751 58.1599 131.64 58.2186C130.585 56.7888 127.919 54.216 126.671 53.301C127.235 52.4899 128.141 52.0443 128.877 51.1731C129.864 50.5158 130.964 51.1553 132.004 50.6487C132.189 49.6795 130.793 49.8458 130.34 49.8785C128.609 49.9996 123.069 52.9282 123.284 55.0575C123.254 55.3591 122.913 55.3272 122.771 55.3257C122.214 54.3274 122.333 51.6707 121.576 50.7913C119.815 48.5468 118.159 46.5764 116.139 44.3913C115.738 44.2153 115.225 44.1373 114.691 44.1209ZM29.151 46.1812C27.6128 46.1738 26.0679 46.3365 24.705 46.5407C26.0672 46.996 26.7668 48.4265 27.2043 49.3594C29.3396 48.5869 31.3814 47.4327 33.5628 46.8423C32.2221 46.3662 30.6899 46.1887 29.151 46.1812ZM114.275 47.3986C116.607 48.6508 119.355 52.2857 119.897 52.9282C120.246 53.3381 121.056 54.531 120.491 55.1608C119.31 54.6394 118.531 53.5483 117.491 52.5768C117.298 52.2738 116.963 51.8208 116.481 51.7576C116.287 52.3362 117.431 53.3612 117.09 53.7823C116.079 53.2327 115.366 52.438 114.171 51.8921C112.975 51.3447 111.437 50.9005 110.316 50.6302C111.556 49.5228 112.663 47.7796 114.275 47.3986ZM35.3602 49.912C34.5402 49.9394 33.8888 50.0107 33.8888 50.0107C33.8888 50.0107 29.558 52.4513 27.5645 53.63C26.9288 54.9016 26.5203 56.2192 26.2469 57.6281H28.8368C30.701 56.0833 33.5546 54.655 35.736 53.4733C35.736 53.4733 37.3031 51.3929 37.8475 50.0761C37.1702 49.9008 36.1801 49.8845 35.3602 49.912ZM21.5848 51.5311C20.2561 51.5504 19.0804 51.6529 17.7509 51.8571L20.6579 53.8113C21.3865 53.1309 22.3409 52.1765 22.976 51.54C22.4873 51.5281 22.0275 51.5244 21.5848 51.5311ZM24.5223 55.2217C23.5672 56.0847 20.496 59.1797 19.5728 60.4334C20.4314 60.1705 21.3553 59.7739 21.3553 59.7739L23.9928 57.4655C23.9928 57.4655 24.3248 55.8812 24.5223 55.2217ZM37.7866 55.674C35.7427 56.6292 33.1587 57.9482 31.2507 59.3126C31.0241 60.9474 30.9863 62.4128 31.0167 63.9888C31.9719 64.306 32.7435 65.0338 33.744 65.1698L39.9688 61.3536C40.2852 60.172 41.0576 58.8536 41.377 57.5368C40.222 56.5408 39.1659 56.1464 37.7866 55.674ZM17.0691 57.8547C15.8421 58.1272 14.7971 58.9903 13.7075 59.6268L15.5703 60.2626L17.0691 57.8547ZM27.2652 60.1489C26.1095 60.1415 24.786 60.4334 24.786 60.4334C24.786 60.4334 20.3749 64.8452 18.9333 66.8958L18.8412 70.53L20.8852 70.3035C22.7955 68.3501 24.9286 66.214 27.338 64.7145C27.4739 64.3973 27.5564 61.2905 27.7472 60.1727C27.5927 60.1571 27.4308 60.1504 27.2652 60.1489ZM13.8182 65.1512C13.4542 65.5597 11.5656 67.1707 11.2939 67.6245L12.4805 68.0701C12.6164 67.5234 13.6369 65.6956 13.8182 65.1512ZM28.8086 66.6351C27.8319 67.1083 24.5877 70.1312 24.5877 70.1312C24.5877 70.1312 24.3894 71.1866 24.4555 71.9791C25.8414 70.5278 29.3508 67.4291 30.9863 66.702L28.8086 66.6351ZM16.206 68.8953C14.5706 71.1219 14.07 73.8485 13.2537 76.3923C13.8917 74.3001 16.2751 71.1205 16.2751 71.1205C16.2751 71.1205 16.3761 69.6239 16.206 68.8953ZM20.4344 73.2298C19.7459 73.2305 19.0455 73.2981 18.4513 73.4296C17.0423 75.7469 15.2747 78.4526 14.3203 80.998C14.1843 82.496 14.6263 84.315 15.1848 85.7209C16.8032 81.5446 18.5174 77.6512 22.3432 73.4296C21.798 73.2937 21.1229 73.2283 20.4344 73.2298ZM38.1803 74.3223C37.2994 75.7514 36.5426 79.6499 36.3175 81.1079C39.079 81.0329 43.3229 80.6868 44.7482 81.1576C43.2568 79.6975 40.2228 77.4448 38.1803 74.3223ZM42.8773 84.133C40.023 84.1077 37.2623 84.5794 36.2856 85.4603C36.3264 87.4203 36.3948 89.4791 37.1353 91.2201C41.2678 89.5066 45.6083 88.0048 50.2496 89.3291C49.7207 88.0746 49.1682 86.304 47.7496 84.7331C46.3354 84.3417 44.59 84.1479 42.8773 84.133ZM48.265 91.9881C45.0312 91.9695 40.5852 92.8266 38.112 94.6077C38.64 98.3012 41.4334 103.032 41.4334 103.032C41.4334 103.032 49.0946 99.3856 55.9024 99.3188C54.0516 97.1277 52.532 94.6604 50.976 92.2956C50.2852 92.0965 49.3427 91.994 48.265 91.9881ZM58.5139 102.193C53.219 102.468 47.8714 103.887 43.4618 106.887C44.8477 110.2 47.572 113.23 49.9057 116.104C54.3316 112.458 60.1545 111.21 65.2155 109.011C62.8298 107.006 60.7057 104.533 58.5139 102.193ZM93.9381 105.498C94.7477 107.37 96.3223 108.751 98.2979 109.524C101.469 110.415 105.02 112.012 107.589 112.48C110.152 112.955 112.87 113.267 114.177 113.252C115.485 113.245 118.002 112.77 120.357 111.329C118.797 111.492 116.666 110.928 115.321 110.111C114.059 111.299 110.657 111.529 109.676 110.148C106.78 110.883 104.247 109.88 102.784 108.848C100.675 108.952 96.909 107.994 93.9381 105.498ZM67.6702 112.198C61.7804 113.067 57.2995 115.555 52.705 119.803C54.0909 122.425 57.2342 124.824 59.5581 127.008C65.9374 122.767 73.0906 121.043 80.5394 120.836C77.4274 118.095 71.0956 114.21 67.6702 112.198ZM82.0025 124.074C76.0251 124.155 68.7315 126.569 62.5565 130.008C62.5565 130.008 66.435 134.591 73.3112 136.886C80.8365 132.652 89.8606 132.088 95.0002 132.652C92.5344 129.481 87.7735 125.596 84.4832 124.185C83.6885 124.096 82.8567 124.066 82.0025 124.074ZM95.9658 136.507C90.4993 136.448 82.2402 138.23 78.0735 140.235C78.0735 140.235 89.0064 144.818 95.0002 148.346C98.2831 148.094 104.247 147.588 106.817 147.7C106.817 147.7 104.463 140.651 98.1197 136.648C97.4735 136.559 96.7456 136.514 95.9658 136.507ZM106.966 152.26C104.923 152.253 102.257 152.572 100.385 152.669C105.874 154.986 110.575 157.927 112.692 160.044C112.462 157.69 110.828 154.02 108.755 152.401C108.265 152.305 107.649 152.268 106.966 152.26Z" fill="#00704A"/>
</svg>
