<svg width="200" height="201" viewBox="0 0 200 201" fill="none" xmlns="http://www.w3.org/2000/svg">
<g clip-path="url(#clip0_15016_302769)">
<path d="M153.341 84.9826C153.341 71.7049 146.853 60.7994 145.833 59.168C143.685 54.7613 129.299 17.9781 127.71 11.6713C127.573 10.2568 127.361 9.04164 127.063 7.96574C125.516 2.37172 121.409 0.378906 118.083 0.378906C114.863 0.378906 110.839 2.18875 109.201 7.26863C108.559 9.2587 108.272 11.7472 108.272 15.3379V65.4583H91.7272V15.3379C91.7272 11.7472 91.4414 9.25871 90.7991 7.2693C89.1602 2.18877 85.1364 0.378906 81.9172 0.378906C78.5899 0.378906 74.4836 2.3716 72.9363 7.96574C72.6393 9.04164 72.4268 10.2561 72.2895 11.6713C70.7007 17.9776 56.3136 54.7618 54.1668 59.168C53.147 60.7997 46.6592 71.7049 46.6592 84.9826C46.6592 89.0467 48.5365 95.1213 50.5206 99.2834C49.6401 101.709 48.9219 104.835 49.308 108.054C49.7245 111.527 51.3523 114.305 52.5418 116.333C52.9602 117.047 53.5272 118.014 53.6526 118.426V132.092C53.6526 133.256 54.2032 135.178 55.2923 137.821C52.8104 141.851 47.9067 151.953 50.7635 165.37C52.8282 175.308 61.0427 182.044 62.6516 183.281C63.6318 184.043 64.6305 184.77 65.3553 185.285C66.3183 188.163 68.991 194.624 74.4405 198.109C75.9283 199.162 78.4418 200.379 82.1118 200.379C84.3336 200.379 87.7402 199.554 91.2234 197.337C91.6616 197.45 92.1105 197.527 92.5626 197.564C95.1851 197.786 97.696 197.561 100 196.902C102.304 197.561 104.815 197.785 107.438 197.565C107.89 197.527 108.338 197.45 108.777 197.337C112.26 199.554 115.666 200.379 117.888 200.379C121.559 200.379 124.072 199.162 125.561 198.109C131.009 194.624 133.681 188.164 134.644 185.285C135.367 184.771 136.361 184.049 137.332 183.294C138.957 182.044 147.172 175.308 149.233 165.388C152.092 151.956 147.189 141.852 144.708 137.822C145.797 135.179 146.348 133.256 146.348 132.092V118.426C146.473 118.014 147.039 117.047 147.459 116.333C148.647 114.305 150.276 111.527 150.692 108.054C151.078 104.835 150.36 101.709 149.48 99.2835C151.464 95.1211 153.341 89.0464 153.341 84.9826Z" fill="white"/>
<path d="M81.9243 4.06909C80.9685 4.06909 77.7527 4.42149 76.5005 8.94949C76.2424 9.88084 76.0611 10.9868 75.9476 12.2753C74.5139 18.5367 59.3502 57.1438 57.3927 60.9843C57.1056 61.4265 50.3564 71.9588 50.3564 84.9848C50.3564 88.6197 52.3911 95.1675 54.5798 99.0984C53.7871 100.887 52.5789 104.274 52.9803 107.616C53.5624 112.472 57.3495 115.873 57.3495 118.301V132.093C57.3495 133.454 59.4876 138.213 59.4876 138.213C59.4876 138.213 51.0365 148.898 54.3843 164.62C56.2226 173.468 64.039 179.689 64.9242 180.37C66.6746 181.732 68.5208 182.994 68.5208 182.994C68.5208 182.994 70.7318 191.415 76.5106 195.05C77.5357 195.794 79.3465 196.69 82.1188 196.69C84.0692 196.69 87.524 195.688 90.7722 193.148C91.3874 193.56 92.107 193.825 92.8799 193.89C93.4456 193.937 93.988 193.959 94.5067 193.959C96.7951 193.959 98.6278 193.533 100.007 193.024C101.386 193.533 103.216 193.959 105.505 193.959C106.024 193.959 106.568 193.937 107.133 193.89C107.906 193.825 108.626 193.56 109.241 193.148C112.489 195.688 115.944 196.69 117.894 196.69C120.667 196.69 122.477 195.794 123.501 195.05C129.28 191.415 131.492 182.994 131.492 182.994C131.492 182.994 133.338 181.732 135.089 180.37C135.974 179.689 143.791 173.468 145.629 164.62C148.976 148.898 140.526 138.213 140.526 138.213C140.526 138.213 142.662 133.454 142.662 132.093V118.301C142.662 115.873 146.45 112.472 147.033 107.616C147.434 104.274 146.226 100.887 145.433 99.0984C147.623 95.1671 149.657 88.6193 149.657 84.9848C149.657 71.9599 142.908 61.4274 142.62 60.9843C140.663 57.1447 125.5 18.5372 124.067 12.2753C123.952 10.9868 123.77 9.88084 123.512 8.94949C122.259 4.4214 119.044 4.06909 118.088 4.06909C117.157 4.06909 114.016 4.38162 112.719 8.40144C112.207 9.98753 111.969 12.1924 111.969 15.3382V68.9479H88.0439V15.3382C88.0439 12.1924 87.8044 9.98753 87.2922 8.40144C85.9958 4.3817 82.8556 4.06909 81.9243 4.06909ZM75.7568 109.753C76.5614 109.753 77.2122 110.406 77.2122 111.21C77.2122 112.015 76.5615 112.666 75.7568 112.666C74.9522 112.666 74.2983 112.015 74.2983 111.21C74.2983 110.406 74.9522 109.753 75.7568 109.753ZM124.256 109.753C125.06 109.753 125.714 110.406 125.714 111.21C125.714 112.015 125.06 112.666 124.256 112.666C123.451 112.666 122.799 112.015 122.799 111.21C122.799 110.406 123.451 109.753 124.256 109.753ZM73.1768 113.417C73.7524 114.089 74.5831 114.532 75.5184 114.597C75.6445 115.07 76.0189 116.388 77.578 117.524C74.0215 117.202 73.3062 114.711 73.1768 113.417ZM126.837 113.417C126.707 114.711 125.992 117.202 122.436 117.524C123.995 116.388 124.369 115.07 124.495 114.597C125.43 114.532 126.261 114.089 126.837 113.417Z" fill="#46166B"/>
<path d="M60.2159 148.991C59.8272 150.011 58.7109 151.855 58.7109 156.226C58.7109 161.472 61.8684 165.989 61.8684 165.989C61.8684 165.989 59.8758 164.823 58.759 163.707C60.3128 171.186 67.6464 176.82 67.6464 176.82C67.6464 176.82 67.2582 172.886 67.8404 168.029C66.8694 166.961 60.2159 160.987 60.2159 148.991ZM139.799 148.991C139.799 160.988 133.145 166.961 132.174 168.029C132.757 172.885 132.368 176.82 132.368 176.82C132.368 176.82 139.7 171.185 141.254 163.706C140.137 164.823 138.147 165.989 138.147 165.989C138.147 165.989 141.304 161.472 141.304 156.226C141.304 151.855 140.188 150.011 139.799 148.991Z" fill="#EEB211"/>
<path d="M81.9246 8.53322C81.1477 8.53322 80.2738 10.3799 80.2738 15.8195C80.2738 48.2626 66.9654 58.9471 66.9654 67.2026C66.9654 69.534 67.2562 70.7962 67.645 72.2529C68.0331 73.7104 64.7311 76.528 64.7311 79.8309C64.7311 83.1332 66.4797 85.8525 66.4797 85.8525C66.4797 85.8525 63.9537 86.5321 62.0111 82.5493C60.8454 84.5896 59.9724 88.0869 59.9724 88.0869C59.9724 88.0869 58.1259 83.9106 58.1259 80.0248C58.1259 73.0314 61.1375 63.4132 61.1375 63.4132C61.1375 63.4132 54.8242 73.1268 54.8242 84.977C54.8242 88.1829 57.2525 95.5663 59.2928 98.1891C69.6855 81.3849 82.2156 75.4589 82.2156 75.4589V83.133C82.2156 83.133 85.4209 80.5104 91.7345 79.4418C82.118 84.4933 74.8329 94.0128 74.8329 94.0128C74.8329 94.0128 74.639 88.2815 76.5815 83.9105C67.6455 89.1554 60.7489 107.709 60.7489 107.709C60.7489 107.709 64.0509 105.474 67.5479 105.474C64.3427 107.514 63.3711 112.274 63.3711 115.091C63.3711 127.816 70.0738 132.381 71.9187 140.831C76.9695 134.809 83.379 132.865 83.379 132.865C83.379 132.865 81.1458 135.78 80.5629 137.82C81.5345 137.237 82.5229 136.766 85.3215 136.267C88.0416 135.781 90.2757 136.557 90.2757 136.557C90.2757 136.557 82.7005 140.637 81.9236 149.67C81.6325 152.099 81.7766 157.634 82.6994 161.52C79.9317 157.975 79.5916 152.001 79.5916 152.001C79.5916 152.001 77.7469 155.207 77.7469 159.869C77.7469 161.23 78.7174 167.252 82.7972 170.263C79.0091 168.806 77.1635 165.989 77.1635 165.989C77.1635 165.989 76.5808 168.32 76.6778 171.137C77.2118 172.205 80.563 175.12 80.563 175.12C80.563 175.12 78.1347 174.537 76.4839 173.76C76.1922 175.703 76.3861 178.617 76.3861 178.617C76.3861 178.617 78.2312 179.88 81.7282 180.172C79.1058 181.24 76.7755 180.947 76.7755 180.947C76.7755 180.947 77.2607 185.804 82.3116 185.804C84.3512 185.804 86.8773 185.222 88.237 184.445C84.7406 190.369 78.912 191.244 78.912 191.244C78.912 191.244 79.7869 192.215 82.1176 192.215C84.4489 192.215 94.1611 188.622 94.1611 175.12C94.1611 173.822 94.3402 170.709 93.3837 169.582C92.1211 168.222 91.4411 166.184 91.4411 166.184C91.4411 166.184 86.5847 163.852 86.5847 156.47C86.5847 147.63 95.3263 145.882 95.3263 145.882C95.3263 145.882 96.5906 147.145 99.5047 147.145H100.506C103.421 147.145 104.685 145.882 104.685 145.882C104.685 145.882 113.425 147.63 113.425 156.47C113.425 163.852 108.57 166.184 108.57 166.184C108.57 166.184 107.89 168.222 106.627 169.582C105.671 170.709 105.848 173.822 105.848 175.12C105.848 188.622 115.563 192.215 117.893 192.215C120.224 192.215 121.099 191.244 121.099 191.244C121.099 191.244 115.27 190.369 111.774 184.445C113.133 185.222 115.659 185.804 117.699 185.804C122.75 185.804 123.235 180.947 123.235 180.947C123.235 180.947 120.905 181.24 118.282 180.172C121.779 179.88 123.623 178.617 123.623 178.617C123.623 178.617 123.819 175.703 123.527 173.76C121.876 174.537 119.448 175.12 119.448 175.12C119.448 175.12 122.798 172.205 123.333 171.137C123.43 168.32 122.847 165.989 122.847 165.989C122.847 165.989 121.002 168.807 117.214 170.263C121.293 167.252 122.264 161.23 122.264 159.869C122.264 155.207 120.419 152.001 120.419 152.001C120.419 152.001 120.078 157.975 117.31 161.52C118.232 157.635 118.378 152.099 118.087 149.67C117.309 140.637 109.733 136.557 109.733 136.557C109.733 136.557 111.968 135.781 114.687 136.267C117.487 136.766 118.476 137.237 119.448 137.82C118.865 135.78 116.63 132.865 116.63 132.865C116.63 132.865 123.041 134.809 128.091 140.831C129.937 132.381 136.639 127.815 136.639 115.091C136.639 112.274 135.667 107.514 132.462 105.474C135.959 105.474 139.261 107.709 139.261 107.709C139.261 107.709 132.365 89.1559 123.429 83.9105C125.371 88.2815 125.177 94.0128 125.177 94.0128C125.177 94.0128 117.892 84.4934 108.276 79.4418C114.589 80.5105 117.795 83.133 117.795 83.133V75.4589C117.795 75.4589 130.325 81.3849 140.717 98.1891C142.757 95.5666 145.186 88.1832 145.186 84.977C145.186 73.1272 138.873 63.4132 138.873 63.4132C138.873 63.4132 141.884 73.031 141.884 80.0248C141.884 83.9106 140.038 88.0869 140.038 88.0869C140.038 88.0869 139.165 84.5895 137.999 82.5493C136.056 86.5322 133.53 85.8525 133.53 85.8525C133.53 85.8525 135.279 83.1332 135.279 79.8309C135.279 76.528 131.976 73.7104 132.365 72.2529C132.754 70.7962 133.045 69.534 133.045 67.2026C133.045 58.9465 119.736 48.2615 119.736 15.8195C119.736 10.3799 118.862 8.53322 118.086 8.53322C117.308 8.53322 116.435 9.56194 116.435 15.3323V70.8273L113.715 73.5471H101.71L100.004 94.3133L98.3533 73.5471H86.2923L83.5725 70.8273V15.3323C83.5725 9.56195 82.6985 8.53322 81.9216 8.53322H81.9246ZM78.5252 53.1183V70.2146C78.5252 70.2146 72.6974 67.0409 72.6974 64.4831C72.6974 61.9247 77.6505 56.9385 78.5252 53.1183ZM121.488 53.1183C122.361 56.9387 127.315 61.9252 127.315 64.4834C127.315 67.0411 121.488 70.215 121.488 70.215V53.1183ZM82.7005 100.035C86.1976 100.035 88.723 107.32 90.5685 107.32C92.414 107.32 94.162 106.058 94.162 106.058C94.162 106.058 93.3848 109.991 89.3055 111.788C90.3735 112.226 91.589 112.42 93.0945 112.517C87.849 117.957 84.7408 125.874 84.7408 125.874C84.7408 125.874 83.479 120.532 84.3529 116.355C77.1654 129.662 71.6288 133.158 71.6288 133.158C71.6288 133.158 71.1435 128.787 68.8128 123.833C66.4815 118.879 66.2868 116.45 66.2868 115.188C66.2868 111.594 72.6001 105.183 72.6001 105.183C72.6001 105.183 71.4836 101.929 70.2697 100.229C77.0201 102.949 80.5649 107.563 85.0332 109.846C84.6445 109.117 82.2644 104.842 78.3304 101.2C79.3509 100.666 80.4669 100.035 82.7005 100.035ZM117.311 100.035C119.545 100.035 120.662 100.666 121.682 101.2C117.749 104.842 115.369 109.117 114.981 109.846C119.449 107.563 122.993 102.949 129.744 100.229C128.53 101.929 127.414 105.183 127.414 105.183C127.414 105.183 133.727 111.594 133.727 115.188C133.727 116.45 133.532 118.879 131.201 123.833C128.87 128.787 128.385 133.158 128.385 133.158C128.385 133.158 122.848 129.662 115.661 116.355C116.535 120.532 115.273 125.874 115.273 125.874C115.273 125.874 112.164 117.958 106.919 112.517C108.425 112.42 109.64 112.226 110.708 111.788C106.629 109.991 105.85 106.058 105.85 106.058C105.85 106.058 107.6 107.32 109.445 107.32C111.291 107.32 113.815 100.035 117.311 100.035ZM65.0713 145.835C65.0713 145.835 64.2944 148.797 65.1194 152.925C65.9451 157.053 68.9564 159.628 68.9564 159.628C68.9564 159.628 69.1035 157.248 69.8315 153.411C67.8408 149.137 65.0713 145.835 65.0713 145.835ZM134.941 145.835C134.941 145.835 132.172 149.137 130.181 153.411C130.909 157.248 131.056 159.628 131.056 159.628C131.056 159.628 134.066 157.053 134.892 152.925C135.717 148.797 134.941 145.835 134.941 145.835ZM104.782 148.829C101.609 150.124 99.9895 149.736 99.9895 149.736C99.9895 149.736 102.709 151.356 104.782 153.169C103.357 153.492 102.451 153.881 100.573 154.204C98.695 154.528 95.1988 154.204 95.1988 155.046C95.1988 155.887 97.8536 155.971 99.7315 155.971C101.609 155.971 103.616 155.176 106.595 155.176C109.574 155.176 110.61 156.86 110.61 156.86C110.61 156.86 110.221 150.124 104.782 148.829ZM100.006 184.625C100.006 184.625 96.6886 187.23 93.2562 189.432C97.1335 189.759 99.391 188.479 100.006 188.068C100.62 188.479 102.879 189.759 106.756 189.432C103.325 187.23 100.006 184.625 100.006 184.625Z" fill="#A2AAAD"/>
</g>
<defs>
<clipPath id="clip0_15016_302769">
<rect width="200" height="200" fill="white" transform="translate(0 0.378906)"/>
</clipPath>
</defs>
</svg>
