<svg width="200" height="200" viewBox="0 0 200 200" fill="none" xmlns="http://www.w3.org/2000/svg">
<path fill-rule="evenodd" clip-rule="evenodd" d="M119.459 102.545H106.848L113.115 83.9799H113.269L119.459 102.545ZM123.557 114.149L127.35 124.284H143.516L121.545 65.9521H104.992L82.5566 124.284H98.6476L102.67 114.149H123.557Z" fill="#00264F"/>
<path fill-rule="evenodd" clip-rule="evenodd" d="M200 125.029C185.91 151.055 157.44 172.102 113.324 172.102C71.2602 172.102 48.5063 151.055 26.4578 125.029C16.7754 113.597 9.02799 104.821 0 97.3097C9.35614 91.9159 20.6567 80.4268 27.4235 73.0905C51.72 46.7514 73.5138 27.8977 113.32 27.8977C150.771 27.8977 183.768 41.4614 199.894 76.0137H173.542C162.472 60.3434 140.012 49.6935 114.58 49.6935C78.1854 49.6935 48.6855 71.6062 48.6855 98.6355C48.6855 125.663 78.1854 147.574 114.58 147.574C137.689 147.574 158.66 138.097 170.423 124.727L200 125.029Z" fill="#00264F"/>
</svg>
