<svg width="201" height="201" viewBox="0 0 201 201" fill="none" xmlns="http://www.w3.org/2000/svg">
<g clip-path="url(#clip0_15016_302136)">
<path d="M152.391 84.4797L156.444 67.1982L132.358 49.4913H107.532L114.282 20.4857L0.59082 20.4757L27.564 42.8883L14.6223 98.5081L38.1348 116.066H62.7228L59.9547 127.879L82.9963 145.852H106.428L98.2878 180.837H143.722L149.725 155.04C149.725 155.04 152.679 156.592 155.403 154.306C157.698 152.38 157.227 149.435 157.227 149.435H176.004L182.416 121.868H191.893L200.593 84.4797H152.387H152.391Z" fill="white"/>
<path d="M13.3369 25.1331L32.5364 41.0882L19.633 96.5391L39.5454 111.41H68.3692L64.9539 125.983L84.455 141.193H112.068L103.923 176.177H140.262L147.569 144.774H172.545L178.956 117.209H188.432L194.965 89.1365H146.754L151.432 69.187L130.972 54.1481H102.818L101.77 54.7215L108.649 25.1404L13.3409 25.1327L13.3369 25.1331ZM152.146 146.248C150.008 146.248 148.323 147.95 148.323 150.127C148.323 152.304 150.008 154.03 152.121 154.03C154.226 154.03 155.896 152.304 155.896 150.127C155.896 147.95 154.234 146.248 152.146 146.248ZM152.097 147.03C153.734 147.03 154.952 148.425 154.952 150.151C154.952 151.853 153.734 153.256 152.146 153.232C150.5 153.232 149.266 151.853 149.266 150.127C149.266 148.425 150.5 147.03 152.097 147.03ZM152.097 148.143C151.492 148.143 151.017 148.216 150.686 148.256V152.143H151.533V150.603H151.936C152.412 150.603 152.638 150.788 152.702 151.192C152.815 151.667 152.888 151.998 153 152.143H153.896C153.823 151.998 153.734 151.78 153.621 151.192C153.517 150.675 153.331 150.369 152.976 150.248V150.2C153.404 150.054 153.734 149.748 153.734 149.272C153.734 148.901 153.581 148.611 153.355 148.45C153.105 148.256 152.791 148.143 152.097 148.143ZM152.033 148.804C152.565 148.804 152.815 149.038 152.815 149.393C152.815 149.796 152.436 149.966 151.96 149.966H151.557V148.853C151.646 148.829 151.807 148.804 152.033 148.804Z" fill="black"/>
<path d="M128.197 102.825H114.551L110.431 120.4H95.2568L104.459 81.1615L96.9186 74.9199H121.092L117.822 88.8687H139.605L143.486 72.3261L128.774 61.5114H104.527L91.7353 68.512L100.205 32.1163L69.2771 32.1193L76.814 38.3821L64.5497 91.0855H49.6573L63.3783 32.1159L32.4514 32.1098L39.9905 38.3743L27.1455 93.5777L41.6568 104.414H67.2863L78.7804 97.7225L72.8646 122.968L86.766 133.812H112.632L122.269 128.295L112.844 168.797H134.777L142.084 137.395H167.058L170.16 124.062H145.185L147.043 116.088L139.503 109.828H182.948L186.049 96.4995H120.673L128.196 102.825L128.197 102.825Z" fill="#B7A369"/>
<path d="M40.9694 35.2356L43.3098 37.1808L30.4902 92.2736L33.1612 94.268L46.1929 38.4711L58.8584 38.4744L59.6092 35.2404L40.9694 35.2356ZM96.4389 35.2404L77.791 35.2437C77.9611 35.384 80.1321 37.1889 80.1321 37.1889L66.8642 94.2099H49.0244L48.272 97.4454H69.2481L82.9709 38.4768L95.6808 38.4752L96.4389 35.2404ZM105.245 64.6353L87.2693 74.4717L76.2022 121.71L78.8587 123.783L89.9468 76.6758L106.012 67.8708H132.246L127.843 64.6353H105.245ZM124.101 75.0515L121.592 85.7654H124.73L127.246 75.0515H124.101ZM129.189 99.6237L131.528 101.573L116.609 165.695H119.746L134.383 102.855H181.529L182.287 99.6237H129.189ZM116.859 105.952L112.737 123.525H94.6243L93.8662 126.759H115.125L119.246 109.186H125.528L126.286 105.952H116.859ZM144.553 127.186L143.802 130.42H165.642C165.867 129.444 166.109 128.388 166.392 127.186H144.553Z" fill="white"/>
</g>
<defs>
<clipPath id="clip0_15016_302136">
<rect width="200" height="200" fill="white" transform="translate(0.591797 0.078125)"/>
</clipPath>
</defs>
</svg>
