<svg width="201" height="201" viewBox="0 0 201 201" fill="none" xmlns="http://www.w3.org/2000/svg">
<g clip-path="url(#clip0_15016_302026)">
<path d="M146.926 43.5943C139.621 43.8184 134.218 48.7563 130.91 53.6744C125.716 61.6742 114.629 90.1557 109.015 118.935C105.85 121.817 101.443 123.761 98.6464 125.22C83.7997 132.972 80.3943 116.152 90.2955 100.344C94.0303 94.3805 101.798 94.679 101.286 100.646C98.2536 96.5344 92.5425 98.4392 91.8525 104.498C91.503 111.943 107.606 113.497 108.051 99.2423C108.707 78.051 68.7956 84.648 68.1383 118.622C68.1383 118.622 65.4998 125.716 59.1311 126.949C54.5378 127.841 54.5144 119.457 57.3632 107.569C59.7303 96.6843 59.6777 98.4765 61.9866 88.7067C63.7037 81.4597 71.6846 52.8557 72.0831 50.4659C72.4725 48.0805 71.0527 45.7712 68.1305 45.0905C65.7636 44.5386 62.7378 44.3044 59.454 45.905C55.8844 47.6466 54.7348 51.3672 54.3078 53.566C49.8499 71.467 48.0055 76.1927 44.8409 89.9983C43.1883 97.0632 37.1179 127.393 27.2722 126.291C22.1301 125.719 21.7398 120.276 24.1198 109.651C27.9555 94.7305 31.9913 82.7881 34.7608 70.6334C38.937 54.7466 29.6285 39.2713 10.3264 47.4588C-1.22167 52.356 -2.21939 70.8089 5.00788 70.7199C9.09829 70.6709 8.39646 65.597 8.697 62.3503C9.51567 57.7019 12.0736 55.6268 15.189 55.8202C19.8222 57.0283 20.125 60.2572 18.6961 69.1253C15.6575 79.4617 11.4469 93.1637 7.49418 110.876C0.904899 140.739 20.138 141.88 28.9199 138.122C34.0069 135.944 36.2103 133.881 39.6564 127.049C43.566 145.183 60.2705 141.248 70.2232 128.305C71.9373 134.296 77.5362 138.257 82.2922 138.922C94.6494 141.32 105.726 131.984 109.371 128.525C112.042 146.73 136.065 139.106 143.363 128.616C150.977 146.045 165.321 139.108 169.316 128.477C169.218 139.408 177.499 142.055 186.027 137.456C191.007 134.957 191.996 134.129 198.287 128.138C202.639 123.737 200.573 114.832 190.027 124.022C186.593 127.018 179.296 130.088 183.684 118.872C184.613 116.097 192.355 97.0762 192.83 95.3616C197.626 82.3088 179.967 85.0831 177.565 94.8154C166.11 73.6518 140.611 97.8977 140.9 118.939C140.9 118.939 132.116 128.524 126.321 126.801C120.526 125.081 126.187 108.173 126.187 108.173C140.46 93.2376 149.6 76.5294 153.295 68.4734C159.344 55.4695 160.789 43.8986 148.418 43.6218C147.915 43.5926 147.415 43.5867 146.929 43.6017L146.926 43.5943ZM150.366 54.3643C151.854 54.6066 152.214 57.2104 150.443 61.7379C144.694 76.4106 137.169 84.1434 131.859 91.9496C131.951 91.3639 136.64 72.8557 145.326 58.2965C147.369 55.4137 149.209 54.1747 150.366 54.3631V54.3643ZM169.789 95.9355C172.701 96.0444 174.16 99.9072 173.105 104.617C172.764 106.135 166.56 121.146 166.56 121.146C163.911 126.04 161.2 127.251 158.655 126.742C154.957 125.595 155.569 120.227 156.71 114.965C159.242 103.025 165.25 97.836 166.43 97.1861C167.685 96.2815 168.819 95.8992 169.789 95.9355Z" fill="#2D68C4" stroke="#F2A900" stroke-width="3.0306"/>
</g>
<defs>
<clipPath id="clip0_15016_302026">
<rect width="200" height="200" fill="white" transform="translate(0.425781 0.621094)"/>
</clipPath>
</defs>
</svg>
