<svg width="201" height="201" viewBox="0 0 201 201" fill="none" xmlns="http://www.w3.org/2000/svg">
<path d="M175.775 94.9045C171.441 87.5588 166.076 81.111 163.164 77.8229L165.526 76.5653L164.636 74.544C162.518 69.7226 159.09 64.7354 157.983 63.178C151.727 20.3592 132.295 7.78407 131.46 7.26803L129.919 6.30859L128.587 7.54561C118.769 16.5941 114.633 28.9699 113.309 33.8714C108.253 33.4261 101.285 33.1113 100.95 33.1001L100.857 33.0927L100.745 33.1001C100.41 33.1113 93.4477 33.4261 88.3841 33.8714C87.0595 28.968 82.933 16.5941 73.1076 7.54561L71.7812 6.30859L70.2275 7.26803C69.4096 7.78407 49.962 20.3592 43.721 63.178C42.6125 64.7354 39.1734 69.7245 37.0608 74.544L36.1703 76.5653L38.5214 77.8229C35.6151 81.111 30.2516 87.5588 25.922 94.9045L25.4209 95.7522L25.6724 96.7209C26.004 97.9561 33.8043 127.371 45.4312 147.66L48.1101 152.314L50.0663 146.278C54.4145 153.292 63.7052 166.437 76.4685 174.29C78.0259 177.953 85.2356 192.756 100.52 194.887L100.855 194.934L101.175 194.887C116.461 192.756 123.661 177.953 125.219 174.29C137.982 166.437 147.277 153.292 151.621 146.278L153.577 152.314L156.249 147.66C167.881 127.373 175.689 97.958 176.017 96.7209L176.261 95.7522L175.769 94.9045H175.775Z" fill="#A2AAAD"/>
<path d="M71.4892 9.27417C71.4892 9.27417 52.0508 21.3985 45.9887 64.0905C45.9887 64.0905 41.6591 69.9757 39.2354 75.4939L42.3465 77.1538C42.3465 77.1538 34.0414 85.7961 27.9736 96.1077C27.9736 96.1077 35.8932 126.223 47.4958 146.455L49.4501 140.45C49.4501 140.45 60.7081 162.167 78.3747 172.648C78.3747 172.648 84.9548 190.322 100.85 192.519C116.732 190.322 123.319 172.648 123.319 172.648C140.98 162.167 152.229 140.45 152.229 140.45L154.194 146.455C165.795 126.223 173.718 96.1077 173.718 96.1077C167.645 85.7961 159.334 77.1538 159.334 77.1538L162.449 75.4939C160.025 69.9757 155.696 64.0905 155.696 64.0905C149.634 21.3985 130.194 9.27417 130.194 9.27417C118.382 20.1857 115.137 36.4402 115.137 36.4402C110.193 35.8887 100.852 35.477 100.852 35.477C100.852 35.477 91.4957 35.8887 86.5532 36.4402C86.5532 36.4402 83.306 20.1857 71.4892 9.27417Z" fill="#000E2F"/>
<path d="M70.9503 17.9962V18C70.9503 18 56.0092 28.3451 51.9926 60.0959C51.9926 60.0959 54.8691 52.7539 59.3998 42.5503C63.9269 32.3412 70.5572 23.6578 70.5572 23.6578C73.933 28.904 74.326 36.2181 74.326 36.2181C69.5177 42.9881 67.569 49.3279 67.569 49.3279L70.6914 48.9124C68.4912 53.0557 67.4461 60.0903 67.4461 60.0903C76.5318 50.7065 86.4093 45.7323 86.4093 45.7323C86.4093 45.7323 82.3853 45.1902 80.567 45.1902L83.6857 43.2508C83.6857 43.2508 80.8148 26.8361 70.9503 17.9962ZM130.961 17.9962V18C121.092 26.8342 118.229 43.2527 118.229 43.2527L121.344 45.1921C119.531 45.1921 115.505 45.7379 115.505 45.7379C115.505 45.7379 125.381 50.7065 134.465 60.0922C134.465 60.0922 133.424 53.0594 131.223 48.9143L134.335 49.3279C134.335 49.3279 132.391 42.9826 127.585 36.2143C127.585 36.2143 127.972 28.8984 131.352 23.6541C131.352 23.6541 137.982 32.3356 142.507 42.5466C147.036 52.7483 149.918 60.0922 149.918 60.0922C145.896 28.3395 130.961 17.9962 130.961 17.9962ZM100.859 59.0116C96.9743 77.0882 95.8863 100.5 95.8863 100.5C87.9649 106.158 83.1659 113.835 83.1659 113.835C81.8581 107.898 82.1208 101.329 82.1208 101.329C71.2093 98.1547 70.8274 89.4602 70.8274 89.4602C70.8274 89.4602 74.9744 88.9125 79.2574 89.6018L78.2178 86.2894C78.2178 86.2894 83.6819 88.7653 88.3617 99.5371C88.3617 99.5371 92.7696 96.3551 91.6071 79.2473C91.6071 79.2473 87.7023 73.8577 81.9903 71.6576C79.3896 74.8246 77.1913 78.694 77.1913 78.694L79.1344 79.6591C73.8137 86.7049 66.4065 88.076 66.4065 88.076C66.0153 96.6383 68.2993 107.376 68.2993 107.376C62.9712 101.441 61.2069 91.8001 61.2069 91.8001C54.5896 89.4546 49.9098 88.9106 49.9098 88.9106L43.5421 94.2853L49.9098 98.4342L39.3877 99.8035C42.8882 114.707 49.5223 130.31 49.5223 130.31L51.4654 125.481C59.914 142.028 67.828 147.138 67.828 147.138C65.4974 138.866 61.7286 129.753 61.7286 129.753C73.5492 138.311 80.6304 156.731 83.6801 166.463C88.3617 181.37 100.961 180.994 100.961 180.994C100.961 180.994 113.555 181.37 118.233 166.463C121.279 156.731 128.364 138.311 140.181 129.753C140.181 129.753 136.412 138.866 134.079 147.138C134.079 147.138 141.997 142.028 150.442 125.481L152.389 130.31C152.389 130.31 159.015 114.707 162.529 99.8035L151.999 98.4361L158.371 94.2872L151.999 88.9125C151.999 88.9125 147.323 89.4565 140.704 91.802C140.704 91.802 138.931 101.443 133.61 107.378C133.61 107.378 135.898 96.6383 135.508 88.076C135.508 88.076 128.103 86.7067 122.777 79.6609L124.727 78.6959C124.727 78.6959 122.516 74.8265 119.917 71.6594C114.211 73.8596 110.308 79.2492 110.308 79.2492C109.14 96.357 113.553 99.5389 113.553 99.5389C118.233 88.7672 123.691 86.2913 123.691 86.2913L122.65 89.6055C126.933 88.9162 131.084 89.4639 131.084 89.4639C131.084 89.4639 130.698 98.1585 119.79 101.333C119.79 101.333 120.053 107.904 118.76 113.839C118.76 113.839 113.942 106.162 106.021 100.504C106.021 100.504 104.76 77.09 100.862 59.0135L100.859 59.0116Z" fill="white"/>
<path d="M100.959 125.888C107.315 125.888 111.082 130.305 111.082 130.305C110.952 143.007 102.516 144.928 102.516 144.928C102.516 144.928 101.734 148.525 108.62 148.242C115.507 147.968 117.715 144.242 123.166 133.754C125.291 129.653 127.011 128.39 128.315 128.39C123.786 136.286 120.729 146.016 119.768 149.295C118.696 152.402 117.716 155.731 116.93 159.144C113.426 174.195 100.959 175.289 100.959 175.289C100.959 175.289 88.49 174.195 84.9895 159.144C84.2368 155.957 83.3482 152.851 82.3552 149.925C81.6584 147.471 78.5044 136.869 73.6309 128.39C74.9312 128.411 76.6228 129.685 78.7466 133.754C84.1958 144.242 86.4109 147.968 93.2928 148.242C100.176 148.525 99.4015 144.928 99.4015 144.928C99.4015 144.928 90.9584 143.007 90.8299 130.304C90.8299 130.304 94.5857 125.888 100.959 125.888Z" fill="#000E2F"/>
<path d="M76.362 92.6597C76.362 92.6597 75.4734 96.4098 78.8864 97.4326C82.3031 98.4591 83.188 95.2064 83.188 95.2064C82.0087 94.3252 80.8127 93.7532 79.7787 93.3751C79.993 94.0345 80.3171 94.8058 80.7866 95.5119C80.4438 95.646 80.006 95.6907 79.4546 95.5231C77.6754 94.994 77.9418 93.185 77.9921 92.8739C76.9992 92.669 76.362 92.6597 76.362 92.6597ZM125.543 92.6597C125.543 92.6597 124.904 92.669 123.903 92.8739C123.963 93.185 124.229 94.9958 122.45 95.5268C121.893 95.6945 121.461 95.6498 121.122 95.5119C121.584 94.8058 121.906 94.0364 122.134 93.3751C121.081 93.7551 119.9 94.3252 118.713 95.2064C118.713 95.2064 119.589 98.4591 123.022 97.4326C126.433 96.4098 125.543 92.6597 125.543 92.6597Z" fill="#A4C8E1"/>
<path d="M100.85 161.204C104.013 161.099 107.555 157.923 107.674 153.034C101.614 153.034 102.674 157.604 100.85 157.604C99.013 157.604 100.108 153.034 94.0146 153.034C94.1208 157.923 97.668 161.099 100.85 161.204Z" fill="#E4002B" stroke="#E4002B" stroke-width="0.247016"/>
<path d="M100.838 128.856C98.0941 128.856 95.214 130.074 94.2098 131.824C95.7077 130.583 98.4146 129.8 100.838 129.8C103.277 129.8 105.976 130.583 107.465 131.824C106.455 130.076 103.586 128.856 100.838 128.856ZM90.5174 153.76C87.1864 156.324 87.7322 164.608 92.5387 166.518C97.4719 167.966 96.8739 168.759 100.835 168.953C104.799 168.759 104.195 167.966 109.121 166.518C113.926 164.608 114.477 156.324 111.156 153.76C112.594 159.258 107.485 164.387 107.439 164.247C107.271 163.157 106.209 162.785 106.209 162.773C106.198 162.703 105.295 165.913 100.836 166.019C96.3653 165.913 95.4692 162.703 95.4692 162.773C95.4692 162.785 94.3905 163.157 94.221 164.247C94.18 164.387 89.0699 159.258 90.5174 153.76Z" fill="white"/>
</svg>
