<svg width="201" height="201" viewBox="0 0 201 201" fill="none" xmlns="http://www.w3.org/2000/svg">
<path fill-rule="evenodd" clip-rule="evenodd" d="M21.3521 67.4878H55.1532L41.4879 137.652H6.52734L12.6152 110.038H16.0934L19.2672 95.1923H15.6121L21.3521 67.4878ZM36.7301 81.7558L27.8306 123.384H29.7307L37.8383 81.7558H36.7301ZM189.578 107.326L195.142 80.8489H164.89V91.4034H162.076L157.927 111.073H175.557L173.37 121.448C173.294 121.737 173.012 122.291 172.399 122.801C171.802 123.297 171.364 123.367 171.314 123.376C171.31 123.376 171.308 123.376 171.31 123.376H148.224V137.644H171.31C175.298 137.644 178.885 135.965 181.524 133.769C184.178 131.561 186.425 128.381 187.289 124.588L187.302 124.532L189.567 113.782L189.572 113.756C189.992 111.688 190.031 109.475 189.578 107.326ZM186.806 101.488C186.806 101.488 186.806 101.488 186.806 101.488V101.488ZM186.806 101.488C185.805 100.269 184.644 99.3026 183.388 98.5719V95.1168H186.353V87.9829L179.372 86.5156" fill="white"/>
<path fill-rule="evenodd" clip-rule="evenodd" d="M51.6623 25.855H188.32L177.117 81.0165H168.678L155.119 144.402L155.114 144.428C153.211 153.138 148.237 161.716 141.777 168.181C135.375 174.587 126.184 180.187 115.399 180.187H54.3284V177.908C49.7585 176.07 45.6495 173.124 42.3805 169.099C42.3801 169.098 42.3797 169.098 42.3793 169.097M48.6624 81.009H40.0447L51.6623 25.855M48.6624 81.009L36.044 139.79L36.0369 139.824C33.9191 149.973 35.6885 160.859 42.3793 169.097M69.575 57.0509H78.3093L59.4837 144.747C58.5646 149.188 59.6448 152.354 60.9773 153.994L60.9785 153.996C61.9963 155.249 63.6533 156.222 66.3074 156.222H78.2864V156.229H115.399C117.733 156.229 121.186 154.892 124.83 151.246C128.408 147.665 130.878 143.085 131.703 139.336C131.705 139.328 131.706 139.321 131.708 139.313L149.302 57.0585H157.536L159.007 49.813H134.304L113.437 148.788H75.2276L96.1029 49.813H71.0996L69.575 57.0509Z" fill="white"/>
<path fill-rule="evenodd" clip-rule="evenodd" d="M117.909 29.593H183.744L174.063 77.2626H165.655L151.465 143.603L151.461 143.621C149.727 151.555 145.144 159.51 139.134 165.525C133.163 171.5 124.869 176.433 115.406 176.433H66.307C58.0918 176.433 50.469 173.117 45.2886 166.738C39.4275 159.524 37.7615 149.849 39.7051 140.58L39.7091 140.561L50.9264 88.3077L43.7619 90.9618L38.7676 77.48L45.1024 75.1332L54.6934 29.6006H117.908L117.909 29.593ZM64.9497 60.7965H73.6734L55.8207 143.96C55.8195 143.966 55.8182 143.972 55.817 143.978C54.7039 149.307 55.8895 153.673 58.0682 156.354L58.0699 156.357C59.8605 158.562 62.6181 159.967 66.307 159.967H115.406C119.062 159.967 123.412 157.964 127.487 153.886C131.517 149.853 134.378 144.647 135.371 140.122C135.372 140.116 135.373 140.111 135.375 140.105L152.339 60.7965H160.605L163.598 46.0591H131.265L110.39 145.034H79.8379L100.713 46.0667H68.0524L64.9497 60.7965Z" fill="black"/>
<path d="M66.307 168.2C60.362 168.2 55.1639 165.839 51.6784 161.546C47.6648 156.604 46.2389 149.573 47.7629 142.27L63.4854 69.0295H54.8093L61.3805 37.8335H110.872L89.9963 136.808H103.719L124.587 37.8335H173.663L167.326 69.037H158.99L143.41 141.87C140.687 154.334 128.518 168.208 115.398 168.208H66.307V168.2Z" fill="#881C1C"/>
<path fill-rule="evenodd" clip-rule="evenodd" d="M59.1533 35.0916H114.255L93.3797 134.066H101.493L122.36 35.0916H177.021L169.569 71.7843H161.209L146.093 142.453L146.091 142.459C144.605 149.258 140.596 156.299 135.244 161.655C129.905 166.998 122.926 170.955 115.398 170.955H63.5619V170.794C57.978 170.16 53.0362 167.576 49.5473 163.279C44.9203 157.582 43.4157 149.667 45.0757 141.712L45.0773 141.704L60.0886 71.7767H51.4259L59.1533 35.0916ZM69.0511 165.466H115.398C120.989 165.466 126.654 162.486 131.361 157.775C136.053 153.08 139.488 146.956 140.727 141.293C140.728 141.291 140.728 141.289 140.729 141.287L156.769 66.2951H165.082L170.305 40.5808H126.813L105.945 139.555H86.612L107.487 40.5808H63.6067L58.1919 66.2875H66.8812L50.4492 142.833C50.4486 142.836 50.4481 142.839 50.4476 142.841C49.0624 149.489 50.4097 155.634 53.8084 159.818C56.7285 163.415 61.1155 165.458 66.3065 165.458H69.0511V165.466Z" fill="white"/>
<path fill-rule="evenodd" clip-rule="evenodd" d="M24.3926 71.2295H48.8461L55.6383 89.5552L69.8114 71.2295H94.8012L90.6146 91.4249L87.1143 91.44L82.4244 113.772H83.2028L94.5995 84.5906H107.016L108.815 79.4867L108.562 84.5906H120.606L120.411 97.0697L120.954 94.4675L120.956 94.459C121.663 91.1623 123.763 88.6749 126.176 87.0634C128.572 85.4637 131.472 84.583 134.229 84.583H159.87L159.656 85.5979C161.349 84.935 163.149 84.583 164.889 84.583H190.528L186.139 105.469H184.979C186.171 107.748 186.422 110.441 185.902 113L185.899 113.012L183.643 123.719L183.637 123.746C182.983 126.617 181.252 129.113 179.128 130.88C177.012 132.64 174.246 133.889 171.309 133.889H149.482L149.331 134.604V133.889H144.045L144.171 133.294C143.048 133.668 141.863 133.881 140.649 133.881H120.172L120.169 133.896H98.3631L98.8786 128.8L97.1056 133.896H81.681L81.6794 133.904H54.849L58.0361 118.906L48.7778 130.821L45.7026 123.947L45.6996 123.94C44.5495 121.354 43.3693 118.697 42.1839 116.005L38.3398 133.904H11.1797L15.6164 113.78H19.1142L23.8892 91.4443H20.2043L24.3926 71.2295ZM28.531 84.666H32.2698L24.5966 120.558H21.0631L19.6151 127.126H32.8627L40.0113 93.8409L44.2023 103.645C46.2194 108.363 48.3145 113.123 50.3607 117.737L70.8054 91.4254L63.2191 127.126H76.223L77.4739 121.404L77.6523 120.55H74.0747L81.6067 84.6854L85.0924 84.6704L86.4736 78.0078H73.138L53.5275 103.364L44.1294 78.0078H29.9105L28.531 84.666ZM83.2047 127.118H92.2869L95.7121 117.273H106.857L105.862 127.118H114.686L115.531 123.161H113.223L113.721 91.3689H108.226L107.073 114.613H96.434L104.627 91.3689H99.2291L86.7658 123.282H84.0064L83.2047 127.118ZM121.749 127.103H140.649C141.683 127.103 142.965 126.636 144.134 125.663C145.289 124.703 146.083 123.456 146.362 122.257L148.599 111.643C148.6 111.64 148.6 111.636 148.601 111.632C148.929 110.005 148.546 108.799 148.01 108.146L148.008 108.143C147.603 107.649 146.979 107.31 146.073 107.31H131.884L134.452 95.1301H145.488L144.742 98.6834H149.972L151.515 91.3613H134.229C132.843 91.3613 131.248 91.8274 129.941 92.7002C128.654 93.5597 127.846 94.6682 127.586 95.8727C127.585 95.8751 127.585 95.8776 127.584 95.88L125.593 105.407L125.589 105.422C125.202 107.194 125.598 108.579 126.246 109.392C126.743 110.003 127.496 110.4 128.548 110.4H142.269L139.466 123.146H128.667L129.542 119.215H123.413L121.749 127.103ZM152.402 127.111H171.309C172.341 127.111 173.623 126.643 174.793 125.669C175.95 124.707 176.744 123.459 177.023 122.263L179.259 111.651C179.26 111.647 179.261 111.643 179.261 111.64C179.589 110.013 179.206 108.806 178.671 108.153L178.669 108.151C178.263 107.656 177.639 107.318 176.734 107.318H162.544L165.113 95.1376H176.149L175.402 98.691H180.637L182.177 91.3613H164.889C163.508 91.3613 161.912 91.827 160.603 92.7007C159.314 93.5611 158.506 94.6698 158.246 95.8727C158.245 95.8751 158.245 95.8776 158.244 95.88L156.253 105.408L156.249 105.424C155.86 107.2 156.257 108.588 156.905 109.391L156.906 109.393C157.4 110.006 158.157 110.407 159.216 110.407H172.93L170.126 123.153H159.327L160.202 119.223H154.066L152.402 127.111Z" fill="black"/>
<path d="M173.625 97.0576H130.992V121.328H173.625V97.0576Z" fill="#881C1C"/>
<path d="M171.226 102.08L171.973 98.5265H167.862L166.722 103.928H176.734C178.582 103.928 180.197 104.668 181.291 106.003C182.603 107.602 183.071 109.911 182.581 112.325L180.332 122.993C179.404 127.067 175.278 130.5 171.309 130.5H148.224L151.317 115.833H164.429L163.554 119.764H167.401L168.714 113.796H159.216C157.209 113.796 155.451 112.989 154.267 111.518C152.856 109.768 152.373 107.278 152.939 104.698L154.931 95.1693C155.896 90.6653 160.755 87.9719 164.889 87.9719H186.353L183.388 102.08H171.226ZM152.72 102.08L155.693 87.9719H134.229C130.087 87.9719 125.236 90.6653 124.27 95.1693L122.279 104.698C121.713 107.286 122.203 109.768 123.606 111.518C124.791 112.982 126.541 113.789 128.548 113.789H138.054L136.741 119.756H132.893L133.769 115.826H120.664L117.571 130.492H140.649C144.617 130.492 148.744 127.067 149.672 122.985L151.92 112.318C152.411 109.903 151.943 107.595 150.63 105.995C149.536 104.66 147.922 103.921 146.073 103.921H136.062L137.201 98.519H141.313L140.566 102.072H152.72V102.08ZM117.427 130.507L119.721 119.771H116.665L117.163 87.9795H96.9144L84.4511 119.892H81.2522L79.0342 130.507H94.6963L98.1214 120.662H103.108L102.112 130.507H117.427ZM101.222 111.224L104.278 102.555L103.848 111.224H101.222ZM78.9512 130.515L81.8709 117.161H78.2496L84.3605 88.0625L87.8536 88.0474L90.6374 74.6184H71.4747L54.5829 96.4593L46.4878 74.6184H27.1516L24.3677 88.0549H28.0795L21.8554 117.169H18.3398L15.3975 130.515H35.6013L41.086 104.977C43.6209 110.907 46.2766 116.897 48.7964 122.563L49.5659 124.283L64.4208 105.166L59.0341 130.515H78.9512Z" fill="white"/>
<path fill-rule="evenodd" clip-rule="evenodd" d="M26.2301 73.49H47.2735L54.934 94.1581L70.9188 73.49H92.0255L88.7737 89.1764L85.2782 89.1915L79.6414 116.033H83.2745L82.6773 118.764H83.6777L96.141 86.8511H118.311L117.813 118.643H118.914L119.746 114.697H126.637C125.095 114.322 123.739 113.483 122.726 112.232L122.723 112.227C121.07 110.165 120.548 107.32 121.172 104.464C121.172 104.462 121.172 104.46 121.173 104.459L123.162 94.9402L123.164 94.9345C123.721 92.334 125.391 90.3051 127.429 88.9436C129.462 87.586 131.928 86.8435 134.228 86.8435H157.085L156.339 90.384C156.875 89.8427 157.466 89.3616 158.093 88.9435C160.126 87.5861 162.592 86.8435 164.888 86.8435H187.745L184.305 103.213H179.204C180.356 103.62 181.371 104.321 182.164 105.288C183.735 107.203 184.231 109.878 183.688 112.553L183.686 112.561L181.436 123.237L181.434 123.246C180.906 125.562 179.487 127.645 177.683 129.145C175.882 130.644 173.61 131.633 171.308 131.633H146.828L147.428 128.788C147.296 128.909 147.16 129.027 147.022 129.141C145.221 130.639 142.949 131.625 140.648 131.625H118.344L118.341 131.64H100.861L101.856 121.795H98.9242L95.4991 131.64H79.862L79.8604 131.648H57.6368L62.2896 109.752L49.3019 126.466L47.7632 123.027L47.7622 123.025C45.7026 118.394 43.5502 113.541 41.4465 108.681L36.5139 131.648H13.9893L17.4301 116.04H20.9398L26.6805 89.1879H22.9777L26.2301 73.49ZM80.3625 118.764H80.3323L79.6816 121.878L78.04 129.386H60.4293L66.5498 100.584L49.8278 122.104C49.8277 122.104 49.8278 122.104 49.8278 122.104C47.3082 116.439 44.6558 110.456 42.1247 104.535L40.7264 101.264L34.6866 129.386H16.8035L19.2473 118.302H22.7689L29.4765 86.9265H25.7556L28.071 75.7514H45.7L54.2297 98.7651L72.0286 75.7514H89.2472L86.9313 86.9229L83.4407 86.938L76.8557 118.294H80.4652L80.3625 118.764ZM80.4245 129.379H93.8914L97.3166 119.533H104.358L103.362 129.379H116.512L118.322 120.904H115.516L116.014 89.1125H97.6856L85.2223 121.025H82.1829L81.8929 122.351L80.4245 129.379ZM118.964 129.364H140.648C142.315 129.364 144.091 128.637 145.577 127.402C147.058 126.171 148.164 124.505 148.567 122.745C148.567 122.743 148.568 122.74 148.568 122.737L150.811 112.095C150.811 112.093 150.812 112.092 150.812 112.09C151.248 109.939 150.808 107.998 149.755 106.715L149.755 106.714C148.89 105.659 147.606 105.054 146.072 105.054H134.667L136.283 97.3905H142.705L141.958 100.944H151.803L154.298 89.1049H134.228C132.386 89.1049 130.355 89.7091 128.685 90.8242C127.022 91.9347 125.784 93.5034 125.375 95.4054C125.375 95.4064 125.375 95.4075 125.375 95.4086L123.384 104.931L123.382 104.942C122.876 107.258 123.335 109.374 124.486 110.811C125.441 111.99 126.858 112.66 128.547 112.66H139.459L137.649 120.889H131.482L132.357 116.959H121.58L118.964 129.364ZM151.588 103.205H148.544C149.695 103.612 150.711 104.313 151.503 105.28C151.532 105.315 151.56 105.351 151.588 105.386V103.205ZM153.138 111.905C153.107 112.118 153.071 112.332 153.027 112.545L153.026 112.553L152.572 114.705H157.305C155.76 114.329 154.399 113.488 153.385 112.229C153.299 112.123 153.217 112.015 153.138 111.905ZM165.788 114.929L164.963 118.635H166.491L167.307 114.929H165.788ZM152.233 116.966L149.617 129.371H171.308C172.975 129.371 174.751 128.643 176.237 127.407C177.718 126.175 178.825 124.508 179.227 122.753C179.228 122.75 179.228 122.747 179.229 122.744L181.471 112.102C181.472 112.101 181.472 112.099 181.472 112.098C181.908 109.946 181.469 108.006 180.415 106.723L180.415 106.722C179.551 105.667 178.267 105.061 176.733 105.061H165.327L166.943 97.3981H173.365L172.618 100.951H182.469L184.959 89.1049H164.888C163.05 89.1049 161.019 89.709 159.348 90.8243C157.684 91.9352 156.444 93.5039 156.036 95.4054C156.036 95.4064 156.035 95.4075 156.035 95.4086L154.043 104.937L154.042 104.942C153.535 107.254 153.99 109.376 155.146 110.811C156.1 111.996 157.524 112.668 159.215 112.668H170.12L168.309 120.897H162.143L163.018 116.966H152.233ZM139.259 102.792L139.919 99.652H138.117L137.455 102.792H139.259ZM169.919 102.8L170.579 99.6595H168.778L168.115 102.8H169.919ZM135.128 114.922L134.303 118.628H135.831L136.646 114.922H135.128ZM105.791 94.8612L104.923 112.357H99.6237L105.791 94.8612Z" fill="#881C1C"/>
<path d="M166.858 79.8733L166.972 79.3452H169.665L169.552 79.8733H168.518L167.952 82.5063H167.326L167.892 79.8733H166.858ZM171.106 79.3452L171.43 81.6085L172.728 79.3452H173.626L172.947 82.4988H172.366L172.909 79.9488L171.491 82.4988H170.985L170.653 79.9488L170.102 82.4988H169.522L170.201 79.3452H171.106Z" fill="black"/>
</svg>
