<svg width="201" height="201" viewBox="0 0 201 201" fill="none" xmlns="http://www.w3.org/2000/svg">
<g clip-path="url(#clip0_15016_302060)">
<path d="M195.009 72.0123L189.006 68.7331C186.073 67.3966 180.232 64.3149 178.822 63.5553C176.531 62.7785 174.675 61.2249 172.219 60.6194C170.014 59.4542 167.598 58.763 165.265 57.8577C163.411 56.9495 161.209 56.7752 159.353 55.7843C153.007 54.0564 146.704 52.1601 140.318 50.6036C139.929 50.6493 139.798 50.001 139.455 50.4751C139.192 55.9556 139.192 62.821 139.064 68.605C139.064 68.605 142.46 69.7131 143.596 70.0729C144.978 70.5042 145.107 72.1892 145.281 73.2658C145.627 74.8223 145.798 76.3731 146.318 77.841C146.92 82.8046 148 88.3305 148.603 93.252C148.777 94.1173 149.122 95.1539 148.691 95.9708C147.18 95.7137 145.97 94.8512 144.544 94.4171C143.122 93.943 141.568 93.2947 140.318 92.9491C139.841 98.9951 140.489 105.772 139.281 111.598C138.761 112.806 139.021 114.274 138.244 115.354C135.957 115.571 134.229 114.231 132.027 113.669C131.51 113.497 130.864 113.629 130.473 113.152C130.347 97.1817 131.036 83.2819 131.076 67.8709L131.293 66.9656C133.583 67.1369 135.828 67.8281 138.03 67.9994C138.376 62.3447 138.201 56.13 138.547 50.4753L138.244 49.8699C136.819 49.827 135.482 49.6128 134.189 49.2644C130.907 49.1816 128.831 48.102 125.467 48.2306C121.711 47.411 117.827 47.411 114.072 46.8483L108.2 46.5456C100.56 46.2457 92.8747 46.7198 85.281 46.5456L84.9782 46.7626L84.8897 51.1237C84.9326 53.02 84.8469 54.8335 84.587 56.6042C84.4156 56.6498 84.3728 56.4756 84.2443 56.39C83.813 53.6254 82.3022 51.1665 81.5654 48.4019C81.3512 47.9707 81.3083 47.4109 81.0485 46.9797C69.8704 48.0135 59.5977 49.2245 49.0188 51.7263C48.4133 52.1147 47.508 51.8576 46.9454 52.3746C39.3058 54.0567 32.1859 56.9926 25.0201 59.8C24.1119 60.0142 23.4208 60.6625 22.5154 60.8338C17.9831 62.5617 13.7963 65.2377 9.26419 66.9655C8.53022 67.6109 7.45063 67.6109 6.88802 68.302C6.71667 75.0363 6.37109 83.0216 6.37109 90.0581C8.18465 89.0214 10.041 88.116 11.8545 86.9479H12.4571C12.4571 91.4831 12.4571 96.5749 12.1543 101.239C12.1543 106.936 11.8088 113.799 11.6374 119.282C11.2918 126.707 10.9034 134.776 11.9401 141.769C12.5427 146.43 14.402 151.568 18.9772 153.556C21.1334 154.933 24.1578 154.461 26.5739 153.984C33.9108 151.308 40.043 145.482 45.0034 139.265C47.8964 135.035 50.661 130.763 51.8234 125.796C52.3432 124.89 52.4288 123.508 52.9915 122.474C53.3799 126.661 52.6888 132.187 52.7745 136.374C56.0559 135.163 59.2489 133.784 62.6192 132.747C69.2221 130.2 76.2138 128.603 83.2074 127.05C83.2074 121.655 83.6387 117.076 83.6387 111.379L83.8557 111.079L84.0699 111.293C85.495 115.826 87.3513 120.144 88.8193 124.676C89.2077 125.281 88.7765 126.575 89.9417 126.529C95.0367 125.841 100.3 126.529 105.612 126.315C106.906 126.361 108.157 126.575 109.322 126.921C113.078 127.395 116.576 128.474 120.201 129.208C121.066 129.682 122.188 129.508 123.008 130.156C126.938 130.89 130.348 132.789 134.189 133.652C140.015 136.16 145.841 138.616 151.496 141.554C152.316 141.554 152.833 142.328 153.655 142.374C153.612 140.386 153.698 138.359 153.958 136.242C154.389 137.97 154.472 139.741 154.692 141.637C155.255 145.524 155.597 149.968 156.46 153.983C162.331 154.029 167.469 154.286 173.252 154.2C173.424 153.509 173.727 152.864 173.769 152.13C174.072 151.004 178.045 135.508 178.216 134.172C178.95 131.282 187.843 91.004 188.574 90.4876C190.733 91.4386 192.59 93.078 194.789 93.8976C195.137 86.992 195.052 78.9613 195.009 72.0123ZM38.36 106.648C38.2343 109.064 38.1029 111.611 37.9744 114.33C37.6717 116.229 37.369 118.948 36.5921 121.065C35.7297 124 33.702 126.848 31.1116 128.704C30.4205 128.793 29.8578 128.704 29.6866 127.973C29.8151 121.97 29.7722 116.706 30.075 110.358C30.1606 99.6969 30.7204 89.8549 30.8089 79.2789C31.066 78.4164 30.7661 77.037 31.9313 76.82C34.1732 75.6547 36.5494 75.0064 38.8798 74.1012L39.0968 74.9608C39.0112 85.8421 38.4485 95.3812 38.36 106.648ZM60.5506 108.289C60.5506 108.289 60.3336 112.648 60.1165 114.718C59.6425 115.495 58.6086 115.366 57.9603 115.972C56.621 116.315 55.37 116.923 54.1192 117.44C54.5504 115.409 54.7646 96.417 55.2415 87.4814C55.3272 81.741 55.4986 75.5235 55.7584 69.2659C56.2754 68.4863 57.572 68.6176 58.4773 68.3149C59.3426 68.0122 60.2479 67.8836 61.1533 67.7123L61.3703 68.0122C60.9386 81.0029 60.9814 94.5546 60.5506 108.287M76.6063 110.272C76.909 104.055 76.7805 98.6564 77.1261 92.5709C77.6858 93.0907 81.8298 105.309 83.1264 109.449C81.7441 110.055 76.9518 110.789 76.6063 110.272ZM91.326 68.0093C91.3717 70.4711 91.1546 72.7587 91.1118 75.132C90.809 74.4866 90.3778 73.7098 90.2921 72.8873C89.2125 70.0399 88.133 67.2754 87.2705 64.3823C88.4358 63.9967 89.9036 64.2538 91.1974 64.1681C91.7143 65.6361 91.1118 66.5443 91.326 68.0093ZM112.651 82.8145C112.306 91.7935 112.52 99.65 112.003 108.803V109.149C110.406 109.018 108.507 108.932 106.736 108.803C106.348 107.375 106.608 105.262 106.522 104.054C106.736 90.2854 106.954 78.0679 107.342 64.382L107.47 64.2535C109.155 64.6448 111.097 64.3821 112.737 64.9018C113.254 71.0735 112.565 76.6891 112.651 82.8145ZM168.293 100.341C167.905 98.3989 165.269 80.7008 164.752 78.2387L164.838 77.7217C166.694 78.1102 168.379 78.9727 170.018 79.7923C170.667 80.3549 171.615 80.4006 172.003 81.2631C172.134 84.1533 168.724 98.5273 168.293 100.341Z" fill="black"/>
<path fill-rule="evenodd" clip-rule="evenodd" d="M200.669 71.9762C200.657 69.9186 199.528 68.03 197.723 67.0436L191.54 63.6661L191.353 63.5811C188.615 62.3331 182.93 59.3372 181.505 58.5703L181.088 58.3457L180.64 58.1936C180.088 58.0065 179.581 57.737 178.551 57.1895C178.451 57.1364 178.346 57.0806 178.236 57.022C177.281 56.5153 175.921 55.8062 174.273 55.3132C172.487 54.4369 170.452 53.7118 168.879 53.1511C168.358 52.9655 167.888 52.7979 167.494 52.6489C166.195 52.0475 164.872 51.6846 164.032 51.454C163.958 51.4336 163.887 51.4142 163.821 51.3959C162.753 51.0999 162.319 50.9499 162.019 50.7896L161.456 50.4892L160.84 50.3215C158.836 49.776 156.787 49.1989 154.711 48.6141C150.645 47.469 146.475 46.2944 142.336 45.2697C142.309 45.2558 142.281 45.242 142.253 45.2282L141.795 44.3126L138.415 44.2109C137.461 44.1822 136.562 44.0402 135.661 43.7976L135.008 43.6217L134.332 43.6047C133.327 43.5793 132.524 43.4216 131.213 43.1643C131.126 43.1473 131.037 43.1299 130.946 43.1121C129.664 42.8611 128.018 42.5566 125.995 42.5586C123.985 42.1635 122.024 41.9624 120.279 41.8045C119.889 41.7692 119.512 41.7362 119.147 41.7042C117.601 41.5687 116.257 41.4509 114.911 41.2492L114.638 41.2085L108.457 40.8898L108.422 40.8884C104.43 40.7317 100.458 40.7784 96.6359 40.8376C96.2978 40.8428 95.961 40.8482 95.6255 40.8535C92.122 40.9089 88.7538 40.9622 85.411 40.8855L83.5203 40.8421L83.1628 41.0985L80.5274 41.3422C69.281 42.3824 58.6905 43.6214 47.7163 46.2166L46.7759 46.439L46.7383 46.4632C46.4587 46.5129 46.1007 46.5901 45.7204 46.71C45.4573 46.7929 45.1678 46.9005 44.8637 47.0413C37.7821 48.689 31.1392 51.3059 24.9437 53.7466C24.3681 53.9734 23.7964 54.1986 23.2285 54.4214C22.7562 54.563 22.3552 54.7267 22.0382 54.8702C21.6813 55.0318 21.347 55.2085 21.1768 55.2984C21.1596 55.3075 21.1441 55.3157 21.1304 55.3229C21.1189 55.3289 21.108 55.3347 21.0976 55.3401L20.9691 55.3644L20.4993 55.5435C17.9575 56.5125 15.5564 57.7254 13.4483 58.7903L13.338 58.846C11.1129 59.9699 9.19403 60.9333 7.24805 61.6752L6.29358 62.0391L5.94447 62.3461C5.71261 62.4357 5.18538 62.6407 4.63063 62.951C4.01016 63.298 3.21261 63.8501 2.49854 64.7272L1.27884 66.2255L1.22969 68.1568C1.18023 70.1007 1.11473 72.185 1.04698 74.3409C0.885359 79.4837 0.710938 85.0338 0.710938 90.0569V99.8124L6.70743 96.3846C6.66436 97.9104 6.60056 99.415 6.50607 100.871L6.49418 101.054V101.237C6.49418 105.18 6.32587 109.645 6.16473 113.92C6.09829 115.682 6.03307 117.413 5.98138 119.061C5.97471 119.204 5.968 119.348 5.96127 119.492C5.62725 126.654 5.23425 135.08 6.33363 142.547C6.98575 147.526 9.17575 155.233 16.3449 158.577C18.5681 159.857 20.9046 160.132 22.7011 160.124C24.6121 160.117 26.4297 159.781 27.6704 159.536L28.1012 159.451L28.5137 159.301C36.7528 156.296 43.36 150.142 48.4443 144.004L54.7343 141.683C56.0309 141.205 57.2021 140.748 58.3146 140.314C60.3634 139.515 62.2136 138.793 64.2836 138.156L64.4725 138.098L64.6569 138.027C70.8074 135.654 77.3999 134.137 84.4351 132.574L87.7372 131.841C88.6018 132.133 89.449 132.212 90.1635 132.184L90.4327 132.174L90.6997 132.138C92.7796 131.857 94.9944 131.844 97.5675 131.902C98.0498 131.913 98.5509 131.927 99.0668 131.941C101.096 131.997 103.354 132.059 105.595 131.979C106.332 132.02 107.046 132.148 107.713 132.346L108.155 132.477L108.613 132.535C110.193 132.735 111.777 133.069 113.52 133.477C113.959 133.58 114.421 133.691 114.899 133.805C116.035 134.078 117.259 134.371 118.476 134.63C118.871 134.781 119.225 134.882 119.505 134.952C119.745 135.013 119.962 135.059 120.124 135.091L120.594 135.462L121.969 135.719C123.405 135.987 124.827 136.483 126.669 137.164C126.799 137.212 126.931 137.261 127.066 137.311C128.58 137.873 130.424 138.557 132.406 139.046C132.741 139.19 133.075 139.333 133.409 139.477C138.775 141.783 143.905 143.987 148.886 146.576L149.662 146.979C149.986 149.636 150.37 152.582 150.926 155.171L151.879 159.607L156.416 159.642C158.512 159.658 160.62 159.706 162.747 159.754C166.217 159.832 169.738 159.912 173.337 159.859L177.697 159.794L178.747 155.561C178.747 155.561 178.747 155.561 178.747 155.561C178.747 155.559 178.75 155.547 178.758 155.521C178.767 155.49 178.78 155.447 178.8 155.384C178.805 155.367 178.814 155.338 178.826 155.302C178.865 155.18 178.931 154.971 178.978 154.815C179.09 154.446 179.253 153.869 179.351 153.16C179.694 151.845 180.624 148.218 181.531 144.61C182.059 142.513 182.586 140.396 182.993 138.713C183.285 137.507 183.605 136.172 183.759 135.335C184.034 134.2 184.803 130.803 185.799 126.401C186.714 122.358 187.821 117.467 188.914 112.703C190.068 107.669 191.217 102.728 192.137 98.9299C192.357 99.0241 192.582 99.1147 192.812 99.2004L200.053 101.899L200.442 94.1817C200.772 87.6392 200.723 80.1494 200.68 73.6312C200.676 73.072 200.673 72.5199 200.669 71.9762ZM188.379 90.9315C188.467 90.6681 188.534 90.5153 188.575 90.4865C188.804 90.5873 189.029 90.6959 189.252 90.8104C189.994 91.1917 190.707 91.6389 191.419 92.0856C192.097 92.5107 192.774 92.9353 193.475 93.3022C193.503 93.317 193.531 93.3317 193.56 93.3463C193.96 93.5526 194.368 93.7396 194.789 93.8964C194.89 91.8894 194.955 89.7873 194.995 87.6444C195.081 82.9841 195.049 78.1306 195.019 73.6411C195.016 73.092 195.012 72.5483 195.009 72.0111L189.006 68.7319C186.073 67.3954 180.233 64.3137 178.822 63.5541C177.807 63.21 176.878 62.7135 175.944 62.2144C174.769 61.5869 173.587 60.9554 172.219 60.6182C170.692 59.8111 169.063 59.2314 167.431 58.6504C166.707 58.3927 165.982 58.1347 165.265 57.8565C164.382 57.4237 163.419 57.1576 162.453 56.8904C161.391 56.5968 160.325 56.3019 159.353 55.7831C157.247 55.2095 155.145 54.6175 153.043 54.0254C150.386 53.2767 147.728 52.5281 145.062 51.817C144.759 51.7364 144.457 51.6562 144.154 51.5766C142.878 51.2409 141.6 50.9148 140.318 50.6024C140.249 50.6105 140.188 50.5966 140.132 50.571C140.092 50.5525 140.055 50.5278 140.019 50.5009C139.99 50.4789 139.963 50.4554 139.936 50.4325C139.785 50.3044 139.657 50.1952 139.455 50.4739C139.454 50.4924 139.454 50.5109 139.453 50.5295C139.389 51.8722 139.341 53.2972 139.302 54.7685C139.292 55.1573 139.283 55.5494 139.274 55.944C139.272 56.0203 139.271 56.0966 139.269 56.1731C139.269 56.1755 139.269 56.178 139.269 56.1804C139.224 58.2444 139.194 60.3745 139.165 62.4763C139.139 64.3853 139.113 66.2708 139.076 68.0621C139.072 68.2437 139.068 68.4242 139.064 68.6038C139.064 68.6038 142.417 69.698 143.575 70.0649C143.582 70.0672 143.589 70.0695 143.596 70.0717C144.858 70.4654 145.075 71.9044 145.236 72.9711C145.251 73.0727 145.266 73.171 145.281 73.2646C145.393 73.7665 145.486 74.2678 145.579 74.7659C145.774 75.8126 145.966 76.8452 146.318 77.8398C146.622 80.3437 147.047 82.9907 147.472 85.6311C147.693 87.0085 147.914 88.3841 148.117 89.7365C148.297 90.9308 148.463 92.1071 148.603 93.2508C148.63 93.3844 148.661 93.5221 148.692 93.6624C148.775 94.0319 148.863 94.4198 148.89 94.7997C148.92 95.2099 148.881 95.6109 148.691 95.9696C147.807 95.8191 147.026 95.4614 146.244 95.1035C146.118 95.0456 145.991 94.9877 145.864 94.9307C145.435 94.7378 145.001 94.5549 144.545 94.4159C144.335 94.3459 144.122 94.2721 143.907 94.1961C143.739 94.1364 143.57 94.0754 143.401 94.0137C143.315 93.9824 143.229 93.9509 143.143 93.9193C143.087 93.8986 143.031 93.8779 142.974 93.8572C142.922 93.8378 142.869 93.8184 142.816 93.799C141.937 93.4749 141.072 93.1564 140.318 92.9479C140.167 94.8553 140.129 96.8354 140.109 98.8355C140.105 99.2298 140.102 99.6248 140.098 100.02C140.066 103.977 140.033 107.971 139.281 111.597C139.059 112.114 138.979 112.678 138.9 113.24C138.794 113.99 138.689 114.735 138.244 115.353C136.763 115.493 135.516 114.981 134.223 114.449C133.52 114.16 132.803 113.866 132.027 113.668C131.855 113.611 131.669 113.587 131.483 113.564C131.109 113.516 130.735 113.469 130.473 113.151C130.403 104.243 130.586 95.9801 130.769 87.7394C130.88 82.7387 130.99 77.7463 131.044 72.6234C131.053 71.7507 131.061 70.8741 131.066 69.9931C131.071 69.2883 131.074 68.5806 131.076 67.8697L131.293 66.9644C131.668 66.9924 132.041 67.0343 132.413 67.0856C132.753 67.1325 133.092 67.1871 133.43 67.2461C133.872 67.3232 134.312 67.4077 134.75 67.4919C135.854 67.7039 136.947 67.9139 138.03 67.9982C138.143 66.1567 138.2 64.2558 138.238 62.3341C138.259 61.3054 138.274 60.2708 138.289 59.2362C138.305 58.1362 138.32 57.0361 138.343 55.9433C138.344 55.8926 138.345 55.8419 138.346 55.7912C138.384 53.9878 138.441 52.2047 138.547 50.4741L138.244 49.8687C136.819 49.8258 135.483 49.6117 134.189 49.2632C134.074 49.2603 133.96 49.2562 133.847 49.2509C132.495 49.1874 131.342 48.9598 130.201 48.7344C128.737 48.4452 127.291 48.1597 125.467 48.2294C123.246 47.7446 120.979 47.5466 118.721 47.3492C117.162 47.2129 115.606 47.077 114.072 46.8471L108.2 46.5444C104.04 46.3811 99.867 46.4473 95.7021 46.5134C92.7733 46.5598 89.8488 46.6062 86.9363 46.5726C86.3912 46.5664 85.8464 46.5573 85.3021 46.5449C85.2952 46.5447 85.2882 46.5446 85.2812 46.5444L84.9785 46.7614L84.8899 51.1225C84.9255 52.6973 84.8724 54.2151 84.7046 55.6986C84.6807 55.9095 84.6545 56.1197 84.6259 56.3293C84.6135 56.4206 84.6006 56.5118 84.5872 56.603C84.526 56.6193 84.4812 56.6075 84.443 56.5818C84.4104 56.5598 84.3826 56.5276 84.3536 56.4939C84.3215 56.4567 84.2878 56.4177 84.2445 56.3888C83.9975 54.8055 83.3964 53.3224 82.7894 51.8248C82.7019 51.6089 82.6143 51.3927 82.5276 51.1758C82.514 51.1418 82.5004 51.1077 82.4868 51.0737C82.1397 50.2015 81.8101 49.3179 81.5656 48.4007C81.4691 48.2065 81.4074 47.9862 81.345 47.7634C81.2688 47.4914 81.1915 47.2155 81.0487 46.9785C80.4665 47.0324 79.8867 47.0867 79.3092 47.1417C68.7997 48.142 59.0469 49.3536 49.019 51.7251C48.7433 51.9019 48.4054 51.945 48.066 51.9882C47.6601 52.0399 47.252 52.0918 46.9456 52.3734C40.0039 53.9019 33.4911 56.4655 26.9832 59.0273C26.329 59.2848 25.6748 59.5423 25.0203 59.7988C24.5827 59.902 24.1955 60.106 23.8105 60.3088C23.3964 60.527 22.9848 60.7438 22.5156 60.8326C20.2494 61.6966 18.0696 62.7976 15.8898 63.8985C13.7101 64.9995 11.5304 66.1004 9.26441 66.9643C8.92196 67.2654 8.50429 67.426 8.09899 67.5819C7.63559 67.7601 7.18836 67.9322 6.88824 68.3008C6.83695 70.3167 6.77004 72.4446 6.70147 74.6256C6.60939 77.5543 6.5143 80.5788 6.44996 83.5562C6.40214 85.7686 6.37131 87.9551 6.37131 90.0569C6.51201 89.9764 6.65296 89.8968 6.79413 89.8178C7.29125 89.5395 7.79107 89.2687 8.29184 88.9974C9.4819 88.3527 10.6773 87.7051 11.8547 86.9467H12.4573C12.4573 87.256 12.4573 87.5679 12.4572 87.8821C12.4567 89.415 12.454 91.0021 12.4378 92.6071C12.4358 92.7988 12.4337 92.9908 12.4314 93.183C12.3985 95.8869 12.3239 98.6291 12.1546 101.237C12.1546 105.293 11.9795 109.938 11.8168 114.256C11.7509 116.005 11.687 117.7 11.6376 119.281L11.628 119.488C11.285 126.856 10.9133 134.84 11.9404 141.768C12.543 146.429 14.4022 151.567 18.9774 153.555C21.1336 154.931 24.1581 154.46 26.5742 153.983C33.911 151.307 40.0432 145.481 45.0036 139.264C45.721 138.215 46.4304 137.163 47.1095 136.099C49.1691 132.872 50.9494 129.53 51.8236 125.795C52.0677 125.369 52.216 124.839 52.363 124.289C52.3713 124.258 52.3797 124.227 52.388 124.195C52.5458 123.603 52.7082 122.994 52.9917 122.473C53.0371 122.962 53.0677 123.469 53.0866 123.99C53.1112 124.671 53.1158 125.376 53.1069 126.095C53.1051 126.239 53.1028 126.383 53.1 126.527C53.0764 127.747 53.0182 129.002 52.9571 130.247C52.9496 130.398 52.9421 130.549 52.9347 130.7C52.836 132.693 52.7394 134.647 52.7747 136.373C53.106 136.251 53.4363 136.127 53.7661 136.002C54.5147 135.717 55.26 135.427 56.0053 135.137C56.8188 134.82 57.6322 134.503 58.4497 134.195C59.8215 133.677 61.2048 133.181 62.6194 132.746C69.2223 130.198 76.214 128.602 83.2076 127.048C83.2076 126.612 83.2105 126.18 83.2157 125.753C83.2421 123.579 83.33 121.516 83.4189 119.43C83.4774 118.057 83.5363 116.673 83.5784 115.241C83.6118 114.106 83.6347 112.94 83.6384 111.724C83.6387 111.625 83.6388 111.527 83.6389 111.428C83.6389 111.411 83.6389 111.394 83.6389 111.378L83.8559 111.078L84.0701 111.292C84.0791 111.321 84.0881 111.349 84.0971 111.378C84.1426 111.522 84.1885 111.666 84.2348 111.809C84.3069 112.033 84.38 112.256 84.4539 112.478C84.702 113.225 84.9601 113.967 85.2243 114.706C85.6513 115.901 86.0943 117.088 86.5376 118.275C87.3273 120.391 88.1178 122.508 88.8195 124.675C88.8478 124.719 88.8718 124.767 88.8923 124.817C88.9674 125.002 88.9968 125.226 89.0262 125.449C89.0991 126.004 89.172 126.558 89.9419 126.528C93.0134 126.113 96.1462 126.199 99.3139 126.285C101.401 126.342 103.503 126.399 105.612 126.314C106.906 126.36 108.157 126.574 109.322 126.919C111.725 127.223 114.022 127.774 116.314 128.323C117.605 128.633 118.895 128.943 120.201 129.207C120.583 129.417 121.016 129.499 121.451 129.583C121.999 129.688 122.551 129.793 123.008 130.155C125.097 130.545 127.039 131.265 128.977 131.983C130.685 132.615 132.39 133.247 134.189 133.651C134.683 133.863 135.177 134.076 135.671 134.288C139.812 136.067 143.946 137.843 148.01 139.808C148.291 139.944 148.572 140.08 148.852 140.218C149.737 140.653 150.619 141.097 151.496 141.553C151.869 141.553 152.179 141.713 152.484 141.892C152.513 141.909 152.541 141.926 152.57 141.943C152.58 141.949 152.589 141.954 152.598 141.96C152.925 142.155 153.254 142.35 153.655 142.373C153.651 142.178 153.648 141.983 153.647 141.787C153.646 141.777 153.646 141.767 153.646 141.757C153.634 140.199 153.703 138.614 153.874 136.977C153.893 136.799 153.913 136.62 153.934 136.441C153.938 136.406 153.942 136.37 153.947 136.335C153.951 136.303 153.954 136.272 153.958 136.241C153.967 136.277 153.976 136.313 153.984 136.349C153.995 136.394 154.006 136.439 154.016 136.484C154.028 136.535 154.04 136.586 154.051 136.637C154.058 136.668 154.064 136.698 154.071 136.728C154.309 137.848 154.422 138.99 154.539 140.174C154.587 140.654 154.635 141.141 154.692 141.636C154.726 141.871 154.759 142.109 154.792 142.348C154.939 143.429 155.074 144.548 155.21 145.683C155.308 146.498 155.407 147.321 155.512 148.145C155.765 150.117 156.055 152.097 156.46 153.982C158.747 154 160.923 154.05 163.069 154.099C166.432 154.176 169.722 154.251 173.253 154.199C173.31 153.967 173.383 153.739 173.455 153.512C173.598 153.064 173.741 152.616 173.77 152.128C174.072 151.003 178.045 135.507 178.216 134.171C178.411 133.405 179.179 130.011 180.216 125.428C182.208 116.627 185.192 103.437 187.018 96.0342C187.627 93.5609 188.108 91.7335 188.379 90.9315ZM77.5051 110.446C77.0239 110.446 76.6889 110.394 76.6065 110.271C76.6443 109.496 76.6753 108.734 76.7014 107.981C76.7746 105.87 76.8088 103.836 76.8429 101.814C76.894 98.7769 76.9447 95.7682 77.1263 92.5697C77.5322 92.9467 79.8232 99.4759 81.5462 104.615C81.8499 105.521 82.136 106.384 82.3909 107.162C82.6841 108.057 82.9361 108.84 83.1266 109.448C82.9187 109.539 82.6336 109.633 82.298 109.725C82.2245 109.746 82.1486 109.766 82.0705 109.786C82.0336 109.795 81.9963 109.804 81.9585 109.814C81.8417 109.843 81.7208 109.871 81.5964 109.9C80.7015 110.102 79.6307 110.279 78.7093 110.373C78.4517 110.399 78.2057 110.419 77.9785 110.432C77.8093 110.441 77.6506 110.446 77.5051 110.446ZM60.5509 108.288C60.5509 108.288 60.3338 112.646 60.1168 114.717C60.0809 114.776 60.0418 114.829 59.9999 114.878C59.7326 115.192 59.3512 115.323 58.9625 115.457C58.6495 115.565 58.3318 115.674 58.0649 115.882C58.0292 115.91 57.9944 115.939 57.9606 115.971C56.9308 116.234 55.9533 116.655 54.9879 117.07C54.6977 117.195 54.4085 117.319 54.1194 117.439C54.2421 116.861 54.3472 114.91 54.4458 112.208C54.4542 111.98 54.4624 111.747 54.4706 111.508C54.4746 111.393 54.4786 111.276 54.4826 111.158C54.5187 110.087 54.5542 108.922 54.5895 107.696C54.6335 106.167 54.6773 104.542 54.722 102.884C54.8716 97.3399 55.031 91.4284 55.2417 87.4802C55.2898 84.2599 55.3648 80.8894 55.4673 77.446C55.5475 74.7513 55.6446 72.0119 55.7587 69.2647C56.1081 68.7377 56.8137 68.627 57.5139 68.517C57.8496 68.4643 58.1841 68.4118 58.4775 68.3137C58.9161 68.1603 59.3649 68.0516 59.8188 67.9594C60.0895 67.9044 60.362 67.8553 60.6352 67.8061C60.8078 67.775 60.9807 67.7438 61.1535 67.7111L61.3706 68.011C61.3626 68.2517 61.3547 68.4926 61.347 68.7336C61.339 68.9875 61.331 69.2416 61.3233 69.4958C61.2832 70.8105 61.2477 72.1307 61.2156 73.4561C61.1824 74.8271 61.1529 76.2036 61.1261 77.5852C61.0585 81.0657 61.0078 84.5786 60.9568 88.117C60.8608 94.7653 60.7636 101.504 60.5508 108.286L60.4266 108.282C60.4677 108.284 60.5092 108.286 60.5509 108.288ZM87.5959 65.4352C87.4845 65.0855 87.376 64.7343 87.2707 64.3811C87.3331 64.3605 87.3963 64.3417 87.4603 64.3246C88.1768 64.1332 88.9926 64.1533 89.8053 64.1734C90.2771 64.1851 90.7479 64.1967 91.1976 64.1669C91.4941 65.009 91.4223 65.6669 91.3476 66.3513C91.3465 66.3614 91.3454 66.3715 91.3443 66.3815C91.2898 66.8808 91.2367 67.3958 91.3262 68.0081C91.3376 68.6247 91.3326 69.2304 91.3179 69.8292C91.2973 70.6726 91.2576 71.5023 91.218 72.33C91.2146 72.3996 91.2113 72.4693 91.208 72.5389C91.2039 72.6233 91.1999 72.7076 91.196 72.792C91.1594 73.5685 91.1262 74.3449 91.112 75.1308C91.0665 75.0339 91.0182 74.9341 90.9686 74.8316C90.6876 74.2511 90.3651 73.5851 90.2923 72.8861C90.1781 72.5849 90.0639 72.2846 89.95 71.985C89.6747 71.2611 89.4009 70.5412 89.1322 69.8217C88.9559 69.3496 88.7819 68.8778 88.611 68.4051C88.5739 68.3024 88.537 68.1997 88.5002 68.097C88.4959 68.0849 88.4916 68.0729 88.4873 68.0608C88.1763 67.1912 87.877 66.3181 87.5959 65.4352ZM139.822 74.8028C139.597 74.7297 139.372 74.6566 139.155 74.5861C138.974 74.5275 138.799 74.4703 138.632 74.416C138.339 74.3208 138.074 74.2344 137.859 74.1645L137.309 73.9851L136.693 73.7842C136.643 77.9839 136.559 82.018 136.47 86.0126L141.825 87.4919C141.899 87.5124 141.973 87.5335 142.048 87.555C141.99 87.1953 141.932 86.8328 141.873 86.4677L141.872 86.4591C141.484 84.0485 141.078 81.5207 140.769 79.083C140.496 78.1993 140.317 77.3697 140.181 76.6806C140.1 76.2694 140.041 75.9488 139.988 75.6649C139.931 75.3573 139.882 75.0927 139.822 74.8028ZM137.777 109.718C137.777 109.717 137.772 109.717 137.763 109.716C137.773 109.718 137.777 109.718 137.777 109.718ZM29.7772 122.157C29.825 118.346 29.8732 114.593 30.0752 110.356C30.1183 104.996 30.2812 99.8434 30.4438 94.7C30.6046 89.6135 30.7651 84.5363 30.8092 79.2777C30.8806 79.038 30.909 78.7583 30.9378 78.4748C31.0127 77.7382 31.0902 76.9755 31.9315 76.8188C32.4237 76.563 32.9222 76.3321 33.4254 76.118C33.4634 76.1018 33.5013 76.0857 33.5394 76.0698C34.5357 75.6512 35.5493 75.2956 36.5655 74.9397C36.5742 74.9366 36.5828 74.9336 36.5914 74.9306C37.355 74.6632 38.1199 74.3952 38.88 74.1L39.0971 74.9596C39.0834 76.6975 39.0575 78.4012 39.0234 80.0832C38.9516 83.6201 38.8431 87.0608 38.734 90.5217C38.5702 95.7198 38.4049 100.963 38.3602 106.647C38.2345 109.063 38.1032 111.61 37.9746 114.329C37.921 114.666 37.8673 115.028 37.811 115.408C37.5497 117.173 37.2315 119.322 36.5924 121.063C36.3147 122.009 35.9162 122.945 35.417 123.842C35.1559 124.311 34.8673 124.769 34.554 125.212C34.0459 125.931 33.473 126.61 32.8475 127.231C32.5704 127.506 32.283 127.77 31.9864 128.021C31.703 128.261 31.4112 128.488 31.1118 128.703C30.4207 128.791 29.858 128.703 29.6868 127.972C29.6956 127.561 29.7036 127.153 29.7109 126.748C29.7388 125.214 29.7576 123.721 29.7762 122.238C29.7765 122.211 29.7769 122.184 29.7772 122.157ZM106.539 104.432C106.536 104.298 106.531 104.171 106.522 104.053C106.707 92.1789 106.894 81.4586 107.191 69.9553C107.208 69.3023 107.225 68.6466 107.243 67.9881C107.266 67.1157 107.29 66.2382 107.315 65.3548C107.319 65.1917 107.324 65.0283 107.328 64.8648C107.333 64.7037 107.338 64.5424 107.342 64.3809L107.471 64.2523C107.783 64.325 108.105 64.375 108.432 64.4118C108.907 64.4652 109.393 64.4904 109.879 64.5157C110.861 64.5666 111.844 64.6175 112.737 64.9007C112.824 65.9424 112.877 66.9682 112.905 67.9834C112.978 70.6204 112.884 73.1851 112.789 75.7674C112.703 78.0804 112.618 80.4075 112.651 82.8133C112.502 86.7005 112.457 90.3773 112.413 94.04C112.375 97.1591 112.337 100.268 112.234 103.488C112.224 103.822 112.213 104.157 112.201 104.493C112.167 105.434 112.127 106.385 112.08 107.349C112.056 107.83 112.031 108.314 112.003 108.802V109.148C111.112 109.074 110.127 109.015 109.122 108.955C108.327 108.907 107.519 108.859 106.737 108.802C106.71 108.705 106.687 108.604 106.666 108.501C106.486 107.605 106.509 106.507 106.529 105.536C106.537 105.139 106.545 104.764 106.539 104.432ZM167.879 78.7557C167.236 78.4678 166.578 78.2055 165.9 77.9965C165.552 77.8892 165.198 77.7959 164.838 77.7206L164.752 78.2375C164.912 79.0001 165.276 81.2247 165.713 83.99C165.758 84.2777 165.804 84.5713 165.851 84.8697C166.16 86.8363 166.498 89.0122 166.822 91.1002C167.501 95.4805 168.12 99.4743 168.293 100.34C168.623 98.9549 170.689 90.2463 171.589 84.9194C171.867 83.2702 172.034 81.9452 172.003 81.2619C171.765 80.7317 171.314 80.5102 170.852 80.2875C170.847 80.285 170.842 80.2825 170.837 80.28C170.552 80.1428 170.264 80.004 170.018 79.7911L169.847 79.7055C169.201 79.3823 168.548 79.0552 167.879 78.7557Z" fill="white"/>
<path d="M96.0513 50.1756C93.6092 50.1664 91.2279 50.2327 88.915 50.4758C88.9987 53.2375 88.7781 55.8707 88.915 58.678C91.1974 58.8926 94.0428 57.988 95.3362 60.2323C95.7774 71.5105 95.2981 98.9525 94.8264 100.332C94.8264 100.332 84.2437 70.5937 79.5853 57.8594C79.1517 55.4834 77.9861 53.4125 77.4269 51.1252C72.7199 51.7735 68.3201 52.2905 63.6564 53.0673C62.1911 53.3699 60.6345 53.3266 59.2978 53.9291L59.081 62.3025L59.2978 62.8221C61.1542 62.6053 63.3993 61.4405 65.0814 62.6053C65.3842 63.0367 65.4694 63.5129 65.7296 63.9443C65.9008 76.1163 65.4268 86.2152 65.2982 98.8643C64.8212 104.996 65.9442 110.953 64.3906 116.997C62.8797 119.284 60.0312 119.284 57.958 120.621C57.8721 122.434 57.6552 124.077 57.7435 125.713C57.7435 126.923 57.2672 128.52 57.7435 129.426C63.7013 127.052 70.0898 125.066 76.4782 123.423C77.1241 123.126 77.9876 123.294 78.5499 122.784C78.4616 120.361 78.6784 117.557 78.7636 114.924L78.5499 114.492C76.5193 114.706 74.8364 115.786 72.8515 115.141C71.0803 112.679 72.0321 99.5132 71.9431 96.8801C72.4635 93.2557 71.7727 89.7141 72.2466 85.7017C72.6346 79.2668 72.3326 73.3562 72.767 66.5356C73.8436 68.9519 74.7938 71.585 75.5706 74.2181L75.7874 74.435C81.097 90.1029 86.9217 105.556 92.4527 121.141C95.1231 121.312 98.5772 120.838 101.042 121.141L101.346 120.924C101.468 107.327 101.902 91.0082 102.206 78.3622C102.549 71.585 101.773 65.8866 103.112 59.9295C104.359 58.2474 106.824 58.764 108.719 58.678L108.81 50.6927L108.597 50.3911C104.329 50.4179 100.122 50.191 96.0513 50.1756ZM111.397 50.6065C111.009 53.411 111.275 56.1742 111.184 58.9814C112.827 59.11 114.508 59.0659 115.847 59.8001C116.92 60.3623 117.316 61.5704 117.399 62.6903C117.483 72.0604 117.361 80.8659 117.011 90.2762C116.707 98.0044 117.224 105.516 116.152 112.635C114.851 114.578 111.83 113.284 110.149 113.37V121.741C121.759 124.031 132.851 127.569 143.426 132.317C143.731 132.278 147.489 134.257 149.125 134.698C149.513 129.25 149.17 123.385 149.429 117.601C149.513 112.247 149.642 106.98 149.733 101.454C148.394 100.246 146.409 100.072 144.857 99.1669C144.857 102.577 144.507 105.943 144.332 109.139C143.472 112.763 143.989 117.339 140.322 119.501C134.966 120.232 130.478 117.125 125.471 116.176C125.297 106.552 125.776 97.6986 125.905 88.0744C126.377 78.9669 125.73 70.9785 126.856 62.5192C128.15 60.1029 131.17 61.7857 133.369 61.874C133.544 59.0666 133.452 55.9595 133.452 53.1948C130.09 52.678 126.248 52.1604 123.014 51.6406C118.959 51.4265 115.33 50.778 111.397 50.6065ZM56.7925 54.3186C50.1903 56.2176 43.7585 57.5551 37.3244 59.9311C37.0239 63.0382 37.3251 66.3157 37.0254 69.4259C38.8361 69.0805 40.6491 67.7445 42.5054 68.3904C43.197 68.6498 43.1536 69.3825 43.4534 69.8572C43.8018 80.087 43.0684 89.8442 43.0258 99.9028C42.9368 112.723 44.361 128.695 30.5928 134.515C29.813 134.432 29.2964 135.04 28.4337 134.827C25.4551 133.747 25.1957 130.072 25.1097 127.356C24.7643 118.246 25.3243 108.578 25.4125 99.816C25.5441 91.5256 25.4977 83.8879 26.2319 76.3742C27.0513 73.1386 30.5472 72.4911 32.9657 71.197C33.0517 68.0442 33.2701 65.1502 33.181 61.6573L32.9657 61.356C25.6263 64.4632 18.1613 67.6121 11.1239 71.3248C11.0383 75.2095 10.8215 78.6194 10.91 82.2035C12.5494 81.5127 13.8461 80.1296 15.7853 80.2186C16.779 80.6499 16.8642 81.9471 16.9075 82.8068C16.7356 100.68 16.5195 117.211 16.3027 134.827C16.8223 140.092 16.5621 145.783 20.8804 149.412C22.9513 150.576 24.9378 149.891 27.1829 149.199C37.1524 143.584 45.0533 133.869 47.8151 122.776C48.5059 121.011 48.4632 118.723 49.0255 116.996C49.5428 113.068 49.714 108.839 49.7597 104.477C49.7597 104.477 49.628 100.376 49.8875 97.914C49.9308 87.3815 50.1028 78.5334 50.7076 67.7011C50.7936 65.9733 52.3045 64.766 53.8147 64.2463C54.7231 63.9435 55.7144 63.6856 56.708 63.4254L56.7925 56.6916C56.9667 55.8288 56.9667 55.1806 56.7925 54.3186ZM144.117 55.5694C144.072 58.3311 143.859 61.5698 143.95 64.6769C145.669 65.1083 147.48 65.5846 148.606 67.2667C151.109 73.1812 151.33 80.0444 152.402 86.5188C155.856 106.333 157.85 126.664 159.873 146.612C160.003 147.342 160.003 148.552 160.307 149.199C163.152 149.625 166.393 149.283 169.323 149.541C169.885 148.895 169.931 147.639 170.235 146.734C174.77 130.072 178.346 113.415 182.363 96.5788C183.618 92.5633 183.443 87.8159 186.075 84.4486C187.719 84.1032 189.096 84.9226 190.351 85.828C190.564 82.1183 190.777 78.4056 190.564 74.5187C187.498 72.7506 184.348 71.108 181.244 69.4259C178.308 68.2611 175.63 66.4473 172.609 65.4111C171.962 65.1083 171.27 64.4639 170.54 64.5925C170.357 67.6996 170.494 71.5424 170.448 74.5187C172.176 75.6005 174.116 76.1179 175.63 77.628C177.57 79.2676 176.923 81.9007 176.756 84.1458C174.032 97.3115 170.844 110.307 167.77 123.294C167.474 124.252 167.512 125.325 166.911 126.101C166.302 122.175 165.701 118.246 165.054 114.319C163.845 105.469 162.46 96.3186 161.121 87.1677C160.87 86.7371 161.212 86.0882 160.824 85.7001C160.391 82.2469 160.003 79.0941 159.569 75.7725C159.531 74.2615 159.052 72.1024 160.391 70.8942C162.506 70.5914 164.278 72.1465 166.089 72.5345C166.18 69.3848 166.393 66.4047 166.302 63.0382L166.089 62.6068C158.884 60.0596 151.459 57.5977 144.117 55.5694Z" fill="#CF0A2C"/>
<path fill-rule="evenodd" clip-rule="evenodd" d="M83.0981 45.397L88.3231 44.8477C90.9199 44.5747 93.5264 44.5069 96.0726 44.5165L96.0513 50.1768C93.6091 50.1676 91.2278 50.2339 88.915 50.477C88.9534 51.7459 88.9276 52.9875 88.9018 54.2315C88.8714 55.695 88.8409 57.1617 88.915 58.6792C89.5133 58.7355 90.1503 58.7148 90.7879 58.6941C92.5825 58.6359 94.3818 58.5775 95.3361 60.2335C95.5665 66.1226 95.5459 76.4189 95.4065 85.1105C95.2789 93.0641 95.0518 99.674 94.8264 100.333C94.8264 100.333 92.5946 94.0617 89.7297 86.0456C86.3561 76.606 82.1044 64.747 79.5853 57.8606C79.346 56.5495 78.8838 55.3313 78.4237 54.1184C78.0499 53.1333 77.6775 52.1516 77.4269 51.1264C76.0749 51.3126 74.7482 51.488 73.4333 51.6618C70.1705 52.0931 66.9805 52.5148 63.6564 53.0685C63.2278 53.157 62.7914 53.2159 62.3549 53.2701C62.2739 53.2801 62.1929 53.29 62.112 53.2999C61.8608 53.3305 61.6101 53.3611 61.3613 53.3964C60.9043 53.4612 60.454 53.5418 60.0194 53.6676C59.7732 53.7389 59.5321 53.8247 59.2978 53.9303L59.0809 62.3037L59.2978 62.8233C59.8177 62.7626 60.3681 62.6275 60.9281 62.49C61.1 62.4479 61.2728 62.4055 61.4458 62.3649C61.7589 62.2916 62.073 62.2243 62.3845 62.1755C63.2104 62.0459 64.018 62.0459 64.7406 62.405C64.8565 62.4626 64.9701 62.5295 65.0814 62.6065C65.2478 62.8436 65.3485 63.0943 65.4487 63.3436C65.5307 63.5479 65.6124 63.7512 65.7296 63.9455C65.8378 71.645 65.688 78.515 65.5307 85.7257C65.4393 89.9142 65.3454 94.2177 65.2982 98.8655C65.1196 101.162 65.1653 103.433 65.2108 105.694C65.2869 109.471 65.3623 113.218 64.3906 116.998C63.4365 118.442 61.9491 118.975 60.4603 119.507C59.5914 119.818 58.7221 120.129 57.958 120.622C57.9305 121.202 57.8896 121.764 57.8496 122.315C57.8244 122.661 57.7996 123.003 57.7786 123.342C57.7289 124.146 57.7012 124.931 57.7435 125.714C57.7435 126.114 57.6913 126.557 57.6388 127.003C57.5483 127.772 57.4566 128.55 57.6286 129.139C57.6585 129.241 57.6963 129.337 57.7435 129.427C59.4737 128.737 61.2403 128.081 63.0326 127.456C63.1201 127.425 63.2076 127.395 63.2952 127.365C67.593 125.875 72.0356 124.567 76.4782 123.424C76.7413 123.303 77.0407 123.259 77.341 123.215C77.7777 123.151 78.2167 123.087 78.5498 122.785C78.5203 121.974 78.5249 121.12 78.5474 120.243C78.5718 119.291 78.6174 118.312 78.6628 117.333C78.682 116.921 78.7012 116.508 78.7188 116.098C78.7356 115.704 78.7511 115.313 78.7636 114.925L78.5498 114.493C77.926 114.559 77.335 114.706 76.758 114.86C76.6832 114.88 76.6087 114.9 76.5344 114.92C75.39 115.229 74.2915 115.525 73.0893 115.212C73.0105 115.191 72.9312 115.168 72.8514 115.142C71.4909 113.251 71.7371 105.043 71.884 100.146C71.9284 98.6681 71.9637 97.4917 71.943 96.8813C72.2072 95.0416 72.1593 93.2234 72.11 91.354C72.0622 89.5404 72.0132 87.6787 72.2466 85.7029C72.3216 84.458 72.3709 83.2328 72.4046 82.0169C72.4443 80.5865 72.4626 79.169 72.4762 77.7473C72.4776 77.6014 72.4789 77.4555 72.4802 77.3096C72.4825 77.0569 72.4847 76.8039 72.4869 76.5508C72.4898 76.2183 72.4927 75.8853 72.4958 75.5516C72.4971 75.4096 72.4984 75.2675 72.4998 75.1252C72.5274 72.357 72.576 69.5348 72.767 66.5368C73.8435 68.9531 74.7937 71.5862 75.5705 74.2193L75.7873 74.4362C76.5447 76.6709 77.3125 78.9013 78.0884 81.1283C80.7646 88.8094 83.5376 96.4506 86.311 104.093C88.3711 109.77 90.4315 115.447 92.4527 121.142C93.6659 121.22 95.041 121.165 96.4115 121.11C98.0575 121.043 99.6971 120.977 101.042 121.142L101.346 120.926C101.354 120.113 101.362 119.291 101.372 118.461C101.383 117.481 101.395 116.489 101.409 115.488C101.552 105.103 101.831 93.7067 102.074 83.8028C102.12 81.9307 102.164 80.112 102.206 78.3634C102.325 76.0101 102.309 73.7868 102.294 71.6376C102.265 67.5975 102.237 63.8192 103.111 59.9307C103.706 59.1298 104.576 58.8274 105.529 58.721C106.15 58.6517 106.806 58.6656 107.444 58.6791C107.883 58.6885 108.314 58.6976 108.719 58.6792L108.81 50.6939L108.597 50.3923C107.635 50.3983 106.676 50.3915 105.72 50.3771C104.34 50.3563 102.968 50.3196 101.607 50.2833C99.7318 50.2332 97.8778 50.1837 96.0513 50.1768L96.0726 44.5165C97.9682 44.5236 99.8893 44.575 101.755 44.6248C101.97 44.6306 102.185 44.6363 102.399 44.642C104.493 44.6973 106.529 44.7448 108.561 44.732L111.516 44.7134L111.686 44.9546C113.851 45.0507 115.903 45.2754 117.781 45.4825L117.888 45.4944C119.783 45.7035 121.509 45.8941 123.313 45.9893L123.614 46.0053L123.912 46.0532C125.754 46.3492 127.671 46.6264 129.632 46.9102C131.17 47.1325 132.734 47.3588 134.312 47.6013L138.577 48.2567L138.578 48.168L145.624 50.1146C153.145 52.1923 160.708 54.702 167.976 57.2713L170.145 58.0384L170.58 58.918C172.369 58.8776 173.723 59.5573 174.256 59.8394C174.531 59.9852 174.802 60.1478 174.95 60.2377C176.691 60.8782 178.262 61.6759 179.55 62.3396C179.684 62.4084 179.814 62.4756 179.942 62.5414C181.266 63.2248 182.284 63.7501 183.331 64.1654L183.645 64.2898L183.941 64.4504C184.742 64.8843 185.564 65.3251 186.399 65.773C188.691 67.0022 191.081 68.2841 193.392 69.6164L196.048 71.1483L196.216 74.2101C196.446 78.417 196.218 82.3985 196.009 86.0339L195.41 96.457L189.143 91.9366C189.089 92.2189 189.031 92.5371 188.969 92.8811C188.694 94.3894 188.329 96.3957 187.827 98.066C186.677 102.89 185.556 107.732 184.432 112.584C181.686 124.441 178.925 136.36 175.697 148.221L175.654 148.381L175.613 148.502C175.609 148.52 175.595 148.573 175.573 148.676C175.554 148.761 175.455 149.241 175.385 149.536C175.299 149.898 175.158 150.448 174.923 151.042C174.689 151.633 174.29 152.457 173.592 153.259L171.698 155.435L168.825 155.181C167.81 155.091 166.737 155.092 165.356 155.094C165.171 155.094 164.98 155.094 164.783 155.094C163.263 155.094 161.356 155.081 159.469 154.798L156.475 154.35L155.185 151.61C154.844 150.885 154.676 150.208 154.587 149.777C154.491 149.317 154.436 148.889 154.401 148.58C154.369 148.299 154.335 147.944 154.321 147.806C154.305 147.642 154.297 147.585 154.297 147.585L154.263 147.394L154.242 147.185C154.155 146.333 154.069 145.482 153.983 144.63C153.887 143.685 153.791 142.74 153.696 141.795L147.65 140.164C146.853 139.949 146.018 139.616 145.393 139.353C144.712 139.067 144.007 138.746 143.407 138.469C143.21 138.378 143.029 138.295 142.863 138.218C142.789 138.184 142.718 138.151 142.65 138.119L142.555 138.131L141.108 137.482C130.927 132.911 120.245 129.504 109.054 127.296L104.489 126.396V125.637L102.535 127.029L100.352 126.761C99.6496 126.674 98.6283 126.687 97.047 126.749C96.91 126.755 96.7676 126.76 96.6207 126.766C95.3041 126.82 93.6205 126.889 92.0906 126.791L88.3664 126.553L87.1183 123.036C86.2249 120.518 85.3203 117.995 84.4089 115.466C84.3784 116.326 84.341 117.125 84.3056 117.879C84.2239 119.621 84.1535 121.125 84.2064 122.579L84.3023 125.21L82.3517 126.979C80.7847 128.399 79.0005 128.684 78.4738 128.768L78.4435 128.773C78.4115 128.778 78.378 128.784 78.3448 128.789L77.8883 128.906C71.6737 130.505 65.5228 132.42 59.8385 134.685L55.1058 136.571L52.7339 132.062C52.1271 130.908 51.9539 129.799 51.8982 129.061C51.8905 128.959 51.8847 128.858 51.8805 128.759C47.8941 139.506 39.7822 148.601 29.9605 154.132L29.4313 154.43L28.8508 154.609C28.7285 154.647 28.59 154.692 28.4366 154.741C26.5335 155.359 22.3315 156.722 18.1069 154.347L17.6446 154.088L17.2387 153.746C13.7923 150.85 12.3294 147.194 11.6308 143.913C11.1633 141.718 10.9699 139.177 10.8182 137.184C10.7669 136.51 10.7204 135.899 10.6696 135.384L10.6388 135.072L10.6427 134.759C10.6802 131.708 10.7178 128.69 10.755 125.693C10.9109 113.158 11.0623 100.979 11.193 88.2278L5.45621 90.6452L5.25129 82.3444C5.18709 79.7437 5.27678 77.1103 5.36407 74.5477C5.40264 73.4154 5.44073 72.297 5.46487 71.2013L5.53821 67.873L8.48267 66.3196C15.6303 62.5487 23.1683 59.3579 30.3357 56.3239C30.4769 56.2641 30.618 56.2044 30.759 56.1447L34.9346 54.377L35.1629 54.6965L35.3635 54.6224C39.9124 52.9426 44.6906 51.6904 49.1877 50.5119C51.2789 49.9639 53.3094 49.4318 55.2278 48.88L61.125 47.1838L61.23 47.7035C61.4137 47.6804 61.5634 47.6627 61.6922 47.6475C62.0277 47.6078 62.2222 47.5848 62.5114 47.5251L62.6185 47.503L62.7264 47.485C66.1504 46.9147 69.4859 46.4738 72.7852 46.0376C74.0795 45.8665 75.3683 45.6961 76.6546 45.5189L81.7128 44.8223L82.9253 49.7822C83.0116 50.135 83.1208 50.4828 83.2636 50.8885C83.2618 50.8085 83.2596 50.7285 83.2572 50.6485L83.0981 45.397ZM87.9322 64.2722L88.3852 64.3148C88.8739 64.3607 89.356 64.3752 89.7864 64.3759C89.8154 65.9738 89.8339 67.7296 89.8432 69.5801C89.1886 67.7588 88.5464 65.9749 87.9322 64.2722ZM51.1895 55.8425C50.8787 55.924 50.5681 56.0052 50.2579 56.0864C46.3374 57.112 42.458 58.1268 38.5818 59.4807C38.1627 59.6271 37.7435 59.7775 37.3243 59.9323C37.2724 60.4689 37.2385 61.0106 37.2163 61.5557C37.1908 62.1806 37.1808 62.8099 37.1769 63.441C37.1744 63.854 37.1745 64.2678 37.1745 64.6816C37.1748 66.2771 37.1751 67.873 37.0253 69.4271C37.5872 69.3199 38.1493 69.1173 38.7128 68.9082C38.7509 68.8941 38.7889 68.8799 38.827 68.8658C40.0419 68.414 41.264 67.9597 42.5054 68.3916C42.6066 68.4296 42.692 68.4777 42.7652 68.5336C43.0294 68.7358 43.1321 69.0405 43.233 69.3394C43.2949 69.5229 43.356 69.7043 43.4533 69.8584C43.666 76.1017 43.4757 82.169 43.2854 88.2361C43.1639 92.1102 43.0424 95.9842 43.0258 99.904C43.0177 101.06 43.022 102.241 43.0263 103.439C43.0701 115.522 43.1196 129.221 30.5928 134.517C30.2386 134.479 29.9387 134.583 29.6361 134.689C29.2723 134.816 28.9045 134.945 28.4336 134.829C25.4551 133.748 25.1956 130.074 25.1097 127.357C24.8797 121.293 25.051 114.982 25.2172 108.855C25.3007 105.778 25.383 102.747 25.4125 99.8172C25.436 98.3365 25.4538 96.8767 25.4714 95.4346C25.5524 88.8025 25.6288 82.5472 26.2319 76.3754C26.854 73.9185 29.0193 72.9539 31.0844 72.0653C31.1165 72.0515 31.1486 72.0378 31.1806 72.024C31.8021 71.7567 32.4121 71.4944 32.9657 71.1982C32.9856 70.4695 33.0125 69.7547 33.0411 69.0431C33.0497 68.8276 33.0585 68.6125 33.0674 68.3974C33.0803 68.0803 33.0933 67.7631 33.1058 67.445C33.1754 65.6727 33.2301 63.8713 33.1862 61.8781C33.1846 61.8052 33.1829 61.732 33.181 61.6585L32.9657 61.3572L32.6366 61.4966C32.4893 61.5589 32.342 61.6213 32.1946 61.6837C31.9762 61.7761 31.7577 61.8686 31.5392 61.9612C30.2085 62.5248 28.8749 63.091 27.5417 63.6626C21.9841 66.0457 16.4323 68.5254 11.1239 71.326C11.0964 72.5749 11.0553 73.7748 11.0151 74.9471C11.0064 75.2016 10.9978 75.4548 10.9893 75.7069C10.9153 77.9058 10.8561 80.023 10.9099 82.2047C11.4441 81.9796 11.9419 81.681 12.4375 81.3838C13.4626 80.7688 14.4779 80.1598 15.7853 80.2198C16.1469 80.3768 16.3882 80.6484 16.5509 80.9719C16.8354 81.5373 16.8799 82.2612 16.9075 82.808C16.7653 97.5871 16.5929 111.449 16.4149 125.766C16.3777 128.762 16.3402 131.779 16.3026 134.829C16.3787 135.599 16.4381 136.379 16.4976 137.161C16.8442 141.715 17.1943 146.315 20.8804 149.413C22.8742 150.534 24.7897 149.941 26.9332 149.277C27.0161 149.252 27.0993 149.226 27.1829 149.2C37.1524 143.585 45.0533 133.87 47.815 122.777C48.1889 121.822 48.3479 120.714 48.5043 119.624C48.6369 118.7 48.7675 117.789 49.0254 116.997C49.5428 113.07 49.714 108.84 49.7596 104.479C49.7596 104.479 49.628 100.377 49.8874 97.9152C49.9308 87.3827 50.1027 78.5346 50.7076 67.7023C50.7926 65.9932 52.272 64.7933 53.7658 64.2646C53.7821 64.2588 53.7984 64.2531 53.8147 64.2475C54.4595 64.0326 55.1462 63.8402 55.8458 63.6537C56.1074 63.5839 56.3708 63.5149 56.6345 63.4459L56.708 63.4266L56.7924 56.6928C56.9667 55.83 56.9667 55.1818 56.7924 54.3198C55.7249 54.6269 54.6619 54.9192 53.6025 55.2037C52.9988 55.3658 52.3963 55.5253 51.7949 55.6836C51.593 55.7367 51.3912 55.7896 51.1895 55.8425ZM55.6098 69.6206C55.6097 69.6202 55.6141 69.6174 55.6232 69.6131C55.6144 69.6188 55.6098 69.6209 55.6098 69.6206ZM56.2834 69.4061C55.7469 79.4868 55.589 87.9224 55.5478 97.9385L55.5466 98.2243L55.5166 98.5084C55.4202 99.4232 55.3861 100.811 55.3866 102.118C55.3868 102.74 55.3946 103.293 55.4024 103.688C55.4063 103.886 55.4101 104.043 55.4129 104.148L55.4161 104.266L55.4169 104.293L55.4171 104.297L55.4171 104.298L55.4209 104.417L55.4197 104.538C55.3798 108.345 55.2461 112.186 54.856 115.887L54.8907 115.865C55.8855 115.223 56.8665 114.81 57.5949 114.53C57.9351 114.399 58.2729 114.278 58.5415 114.182L58.5986 114.162C58.8643 114.067 59.069 113.993 59.2543 113.922C59.5445 112.123 59.6075 110.208 59.5879 108.015C59.5824 107.391 59.5687 106.721 59.5543 106.017C59.5083 103.761 59.4553 101.163 59.64 98.6239C59.6893 93.9011 59.7835 89.6005 59.8744 85.4499C59.9998 79.7279 60.1188 74.2911 60.1054 68.4268C60.0553 68.4333 60.005 68.4396 59.9545 68.4455L59.8321 68.4597L58.1419 68.9024C57.4217 69.091 56.8179 69.2495 56.2834 69.4061ZM37.7695 75.0475L35.6362 76.189C34.8547 76.6072 34.0179 76.9661 33.4296 77.2186C33.366 77.2458 33.3054 77.2718 33.248 77.2965C32.5552 77.595 32.1333 77.7878 31.7998 77.9776C31.7883 77.9842 31.7771 77.9907 31.7662 77.997C31.2791 83.5577 31.2096 89.1987 31.1329 95.4178C31.1149 96.8749 31.0966 98.3637 31.0724 99.8907C31.0407 103.023 30.9552 106.152 30.8699 109.272C30.7058 115.279 30.5426 121.252 30.766 127.143L30.7667 127.161L30.7672 127.178C30.7765 127.47 30.7871 127.744 30.8012 128.004C33.8702 125.919 35.5005 122.802 36.4081 118.632C37.3915 114.113 37.378 109.115 37.3634 103.708C37.36 102.451 37.3565 101.173 37.3655 99.8726C37.3837 95.6057 37.5112 91.6221 37.6358 87.727C37.772 83.4718 37.9048 79.3224 37.8881 75.0249L37.7695 75.0475ZM41.7304 73.8552C41.7302 73.8554 41.7231 73.8571 41.7097 73.8594C41.7239 73.8561 41.7306 73.855 41.7304 73.8552ZM37.3655 99.8726C37.3655 99.87 37.3655 99.8673 37.3655 99.8647L43.0258 99.904L37.3654 99.88C37.3655 99.8775 37.3655 99.8751 37.3655 99.8726ZM81.8708 108.452C81.5888 107.674 81.3064 106.896 81.0239 106.117C79.9004 103.021 78.7746 99.9187 77.6543 96.8113C77.6403 96.9446 77.6251 97.0784 77.6087 97.2126C77.6115 98.0198 77.5781 99.122 77.5447 100.223C77.5402 100.371 77.5357 100.52 77.5313 100.668C77.4823 102.311 77.4294 104.209 77.4268 106.084C77.4254 107.087 77.4387 108.046 77.4712 108.924C77.6289 108.902 77.7911 108.881 77.9572 108.864L81.8708 108.452ZM77.838 112.541C77.8509 112.575 77.8563 112.595 77.8558 112.596C77.8552 112.596 77.8488 112.579 77.838 112.541ZM107.195 107.854L109.86 107.718C110.276 107.696 110.662 107.707 110.991 107.729C111.129 105.783 111.185 103.756 111.21 101.62C111.222 100.525 111.226 99.3773 111.23 98.1977C111.239 95.5737 111.248 92.7901 111.355 90.0585C111.677 81.3946 111.804 73.2521 111.754 64.6923C111.451 64.6744 111.083 64.6524 110.742 64.6258L108.131 64.4215C108 65.811 107.954 67.2711 107.945 68.8699C107.941 69.656 107.947 70.5081 107.954 71.408C107.969 73.5998 107.986 76.0754 107.863 78.5727C107.821 80.304 107.777 82.102 107.732 83.9505C107.549 91.4434 107.345 99.7671 107.195 107.854ZM117.399 62.6915C117.483 72.0616 117.361 80.8671 117.011 90.2774C116.908 92.9075 116.899 95.5125 116.891 98.0854C116.875 103.073 116.859 107.94 116.152 112.637C115.93 112.968 115.658 113.205 115.351 113.371C114.37 113.902 113.032 113.703 111.834 113.526C111.359 113.455 110.906 113.388 110.506 113.371C110.381 113.365 110.262 113.365 110.149 113.371V121.743C121.759 124.033 132.851 127.57 143.426 132.318C143.453 132.314 143.508 132.327 143.585 132.353C143.883 132.452 144.523 132.749 145.287 133.102C146.567 133.695 148.191 134.447 149.125 134.699C149.263 132.752 149.309 130.751 149.322 128.72C149.329 127.635 149.326 126.542 149.324 125.443C149.318 122.844 149.312 120.215 149.429 117.602C149.457 115.838 149.489 114.083 149.524 112.325C149.536 111.677 149.549 111.03 149.562 110.381C149.569 110.063 149.575 109.745 149.582 109.427C149.583 109.361 149.584 109.294 149.586 109.228C149.608 108.154 149.629 107.076 149.651 105.992C149.68 104.494 149.708 102.985 149.733 101.455C149.489 101.235 149.224 101.049 148.943 100.887C148.319 100.526 147.621 100.282 146.92 100.038C146.209 99.7899 145.496 99.5411 144.857 99.1681C144.857 99.9058 144.84 100.641 144.813 101.374C144.764 102.668 144.681 103.953 144.593 105.219C144.573 105.503 144.553 105.785 144.533 106.067C144.46 107.106 144.387 108.131 144.332 109.14C144.124 110.016 143.996 110.949 143.871 111.889C143.867 111.921 143.862 111.954 143.858 111.987C143.469 114.903 143.072 117.881 140.322 119.502C136.9 119.969 133.831 118.869 130.756 117.766C129.018 117.144 127.279 116.52 125.471 116.177C125.358 109.965 125.518 104.074 125.68 98.0901C125.769 94.803 125.859 91.4878 125.905 88.0756C126.087 84.5598 126.103 81.2107 126.118 77.937C126.142 72.7303 126.165 67.7141 126.856 62.5204C127.11 62.0459 127.431 61.7295 127.798 61.528C128.788 60.9861 130.119 61.2758 131.418 61.5582C132.014 61.6879 132.603 61.8161 133.149 61.8615C133.223 61.8677 133.296 61.8723 133.369 61.8752C133.413 61.1641 133.44 60.4337 133.456 59.6945C133.481 58.538 133.478 57.3598 133.47 56.2001C133.468 55.9103 133.466 55.6215 133.464 55.3346C133.458 54.6069 133.452 53.8906 133.452 53.196C132 52.9728 130.459 52.7496 128.916 52.526C126.885 52.2318 124.851 51.9372 123.014 51.6418C121.046 51.5379 119.179 51.3317 117.329 51.1274C116.375 51.0221 115.425 50.9173 114.469 50.8272C114.174 50.7994 113.878 50.773 113.581 50.7484C112.861 50.6888 112.134 50.6399 111.397 50.6077C111.391 50.6463 111.386 50.6848 111.381 50.7233C111.171 52.315 111.167 53.8938 111.185 55.4752C111.187 55.6561 111.189 55.8369 111.191 56.0179C111.192 56.1001 111.193 56.1824 111.194 56.2647C111.204 57.0769 111.212 57.8904 111.191 58.7075C111.189 58.7992 111.187 58.8909 111.184 58.9826C111.479 59.0057 111.775 59.0233 112.071 59.0407C112.859 59.0873 113.64 59.1335 114.372 59.2838C114.894 59.3909 115.391 59.5508 115.847 59.8013C116.92 60.3635 117.316 61.5716 117.399 62.6915ZM129.104 66.8815C129.103 66.881 129.114 66.8813 129.138 66.8835C129.116 66.883 129.104 66.8819 129.104 66.8815ZM132.051 67.4328C132.397 67.4794 132.767 67.516 133.142 67.531L138.377 67.7412L138.418 69.126L142.572 70.1684C143.01 70.278 143.313 70.3566 143.585 70.4399C143.667 70.4649 143.737 70.488 143.798 70.5091C144.545 72.5763 145.039 74.9003 145.446 77.5445C145.662 78.9525 145.845 80.3785 146.037 81.8884C146.056 82.035 146.075 82.1823 146.094 82.3305C146.304 83.9743 146.531 85.7116 146.818 87.4452L146.822 87.4686L146.826 87.492C147.226 89.7874 147.606 92.0902 147.969 94.3993C147.847 94.3523 147.781 94.3209 147.709 94.2788L139.196 89.3132V99.1681C139.196 101.304 139.055 103.283 138.903 105.418C138.836 106.36 138.767 107.333 138.706 108.364C138.496 109.374 138.364 110.365 138.261 111.136L138.248 111.236C138.111 112.26 138.013 112.962 137.868 113.581C137.84 113.699 137.813 113.805 137.787 113.898C136.871 113.791 135.836 113.525 134.552 113.098C134.125 112.957 133.621 112.776 133.06 112.574C132.46 112.359 131.796 112.12 131.093 111.882C131.092 107.331 131.211 102.95 131.334 98.4334C131.424 95.1532 131.515 91.801 131.564 88.2593C131.748 84.6353 131.764 81.1444 131.779 77.8824C131.783 76.937 131.787 76.0109 131.795 75.1063C131.819 72.452 131.877 69.9253 132.051 67.4328ZM154.226 97.885C154.406 99.1014 154.581 100.319 154.753 101.538C154.946 102.915 155.135 104.293 155.318 105.672C157.018 118.431 158.32 131.282 159.608 143.994C159.696 144.868 159.785 145.741 159.873 146.613C159.916 146.854 159.944 147.146 159.974 147.453C160.036 148.079 160.103 148.766 160.307 149.2C161.904 149.439 163.625 149.436 165.345 149.433C166.691 149.431 168.037 149.429 169.322 149.542C169.694 149.116 169.84 148.423 169.984 147.742C170.058 147.391 170.132 147.043 170.235 146.735C173.434 134.982 176.155 123.232 178.891 111.419C180.034 106.485 181.179 101.54 182.363 96.58C182.787 95.2217 183.048 93.7796 183.31 92.3356C183.741 89.9541 184.172 87.5672 185.341 85.5415C185.559 85.1643 185.802 84.7996 186.075 84.4498C187.719 84.1044 189.096 84.9238 190.351 85.8292C190.472 83.7259 190.593 81.6216 190.636 79.4851C190.669 77.8534 190.656 76.203 190.564 74.5199C188.335 73.2347 186.063 72.0159 183.795 70.8C182.943 70.3431 182.092 69.8865 181.244 69.4271C179.921 68.9023 178.651 68.2457 177.377 67.588C176.958 67.371 176.538 67.154 176.115 66.9415C174.976 66.3681 173.82 65.8277 172.609 65.4123C172.426 65.3267 172.24 65.2137 172.05 65.0986C172.027 65.0852 172.005 65.0718 171.983 65.0584C171.691 64.8821 171.391 64.7078 171.084 64.6256C170.905 64.5779 170.723 64.5613 170.54 64.5937C170.441 66.2766 170.436 68.1753 170.444 70.0353C170.445 70.0996 170.445 70.1638 170.445 70.228C170.446 70.3692 170.447 70.51 170.448 70.6505C170.449 70.7814 170.449 70.912 170.45 71.0422C170.454 71.5921 170.457 72.1344 170.458 72.6623C170.459 73.3072 170.457 73.9305 170.448 74.5199C170.848 74.7704 171.26 74.9906 171.675 75.2C171.9 75.3139 172.127 75.4246 172.354 75.5352C173.509 76.0987 174.657 76.6591 175.63 77.6292C177.278 79.0225 177.059 81.1333 176.853 83.1137C176.817 83.4638 176.781 83.8098 176.755 84.147C174.82 93.5051 172.649 102.777 170.452 112.021C170.335 112.511 170.219 113 170.103 113.489C170.091 113.538 170.079 113.586 170.068 113.635C169.863 114.494 169.659 115.352 169.454 116.211C168.892 118.573 168.329 120.934 167.77 123.295C167.67 123.62 167.608 123.958 167.546 124.293C167.426 124.947 167.308 125.589 166.911 126.102C166.82 125.515 166.729 124.927 166.638 124.34C166.568 123.886 166.497 123.431 166.427 122.977C166.422 122.943 166.416 122.908 166.411 122.874C165.969 120.023 165.524 117.171 165.054 114.32C164.937 113.465 164.819 112.607 164.699 111.746C163.899 106.01 163.036 100.161 162.168 94.28C161.818 91.9132 161.468 89.5411 161.121 87.1689C161.008 86.9759 161.015 86.7391 161.022 86.5015C161.03 86.209 161.038 85.9154 160.824 85.7013C160.717 84.8456 160.612 84.0083 160.509 83.1823C160.196 80.6751 159.895 78.2722 159.569 75.7737C159.562 75.4959 159.54 75.1962 159.517 74.8846C159.416 73.501 159.298 71.8815 160.391 70.8954C160.421 70.8911 160.451 70.8871 160.481 70.8836C161.777 70.7295 162.945 71.2627 164.074 71.7782C164.315 71.8883 164.555 71.9976 164.793 72.0992C165.226 72.2838 165.657 72.443 166.089 72.5357C166.115 71.6326 166.151 70.7436 166.188 69.8553C166.232 68.7679 166.276 67.6818 166.302 66.5729C166.319 65.8427 166.328 65.1027 166.323 64.3459C166.321 63.9162 166.314 63.4811 166.302 63.0394L166.089 62.608C165.729 62.4809 165.369 62.354 165.009 62.2273C159.984 60.4628 154.861 58.7479 149.74 57.1997C147.864 56.6324 145.988 56.0874 144.117 55.5706C144.102 56.4949 144.068 57.4726 144.033 58.4809C144 59.4331 143.966 60.4126 143.945 61.4001C143.923 62.4916 143.918 63.5929 143.95 64.6781C145.669 65.1095 147.48 65.5858 148.606 67.2679C150.426 71.5688 151.039 76.3714 151.651 81.1613C151.88 82.9584 152.11 84.7536 152.402 86.52C153.06 90.2916 153.664 94.0821 154.226 97.885ZM165.59 78.2177L165.74 78.2498L167.444 79.3168C168.099 79.7271 168.728 80.0552 169.242 80.3124C169.57 80.4762 169.768 80.5726 169.942 80.6567C170.13 80.7479 170.289 80.8248 170.55 80.9578C170.917 81.1447 171.158 81.2849 171.324 81.3944C171.317 81.5298 171.305 81.6943 171.286 81.896C171.268 82.0924 171.248 82.2829 171.225 82.5092C171.218 82.5726 171.211 82.6389 171.204 82.709C171.185 82.8983 171.163 83.1111 171.143 83.3355C170.22 87.7845 169.244 92.2124 168.237 96.6334C168.079 95.5662 167.922 94.4982 167.764 93.43C167.415 91.0684 167.067 88.7058 166.722 86.3494L166.682 86.0757C166.671 85.7577 166.635 85.3176 166.532 84.8383C166.482 84.6079 166.416 84.3641 166.33 84.1123C166.262 83.5673 166.194 83.0279 166.127 82.4926C165.947 81.0501 165.77 79.6364 165.59 78.2177ZM113.749 108.053C113.749 108.054 113.742 108.054 113.726 108.054C113.741 108.053 113.749 108.053 113.749 108.053Z" fill="white"/>
<path d="M195.069 72.0145L189.066 68.7331C186.132 67.3966 180.292 64.3149 178.881 63.5553C176.591 62.7784 174.734 61.2248 172.278 60.6193C170.074 59.4542 167.657 58.763 165.324 57.8576C163.471 56.9495 161.269 56.7752 159.412 55.7843C153.067 54.0564 146.763 52.1601 140.377 50.6036C139.989 50.6492 139.857 50.001 139.515 50.4751C139.252 55.9556 139.252 62.821 139.123 68.6049C139.123 68.6049 142.519 69.713 143.656 70.0729C145.038 70.5041 145.167 72.1892 145.341 73.2658C145.686 74.8223 145.858 76.3731 146.377 77.841C146.98 82.8046 148.06 88.3305 148.662 93.2519C148.836 94.1173 149.182 95.1539 148.751 95.9707C147.24 95.7137 146.029 94.8512 144.604 94.4171C143.182 93.943 141.628 93.2947 140.377 92.9491C139.9 98.9951 140.548 105.772 139.34 111.598C138.821 112.806 139.081 114.274 138.304 115.354C136.016 115.571 134.288 114.231 132.086 113.669C131.569 113.497 130.924 113.629 130.533 113.152C130.407 97.1817 131.095 83.2819 131.135 67.8709L131.352 66.9656C133.643 67.1369 135.888 67.8281 138.09 67.9994C138.435 62.3447 138.261 56.13 138.606 50.4753L138.304 49.8699C136.879 49.827 135.542 49.6128 134.248 49.2644C130.967 49.1816 128.891 48.102 125.526 48.2306C121.771 47.4109 117.887 47.4109 114.131 46.8483L108.26 46.5456C100.62 46.2457 92.9343 46.7198 85.3405 46.5456L85.0378 46.7626L84.9493 51.1236C84.9921 53.0199 84.9064 54.8335 84.6465 56.6041C84.4752 56.6498 84.4324 56.4756 84.3038 56.39C83.8726 53.6254 82.3618 51.1665 81.625 48.4019C81.4108 47.9707 81.3679 47.4109 81.108 46.9797C69.93 48.0135 59.6573 49.2245 49.0783 51.7263C48.4729 52.1147 47.5676 51.8576 47.005 52.3746C39.3654 54.0567 32.2454 56.9926 25.0797 59.8C24.1715 60.0142 23.4804 60.6624 22.575 60.8338C18.0426 62.5617 13.8558 65.2377 9.32376 66.9655C8.58979 67.6109 7.5102 67.6109 6.94759 68.302C6.77624 75.0363 6.43066 83.0216 6.43066 90.058C8.24422 89.0214 10.1006 88.116 11.914 86.9479H12.5166C12.5166 91.4831 12.5166 96.5749 12.2139 101.239C12.2139 106.936 11.8683 113.799 11.697 119.282C11.3514 126.707 10.963 134.776 11.9997 141.769C12.6023 146.43 14.4616 151.568 19.0367 153.556C21.1929 154.933 24.2174 154.461 26.6335 153.984C33.9704 151.308 40.1025 145.482 45.063 139.265C47.956 135.035 50.7206 130.763 51.883 125.796C52.4027 124.89 52.4884 123.508 53.0511 122.474C53.4395 126.661 52.7483 132.187 52.834 136.374C56.1155 135.163 59.3084 133.784 62.6788 132.747C69.2817 130.2 76.2733 128.603 83.267 127.05C83.267 121.655 83.6982 117.076 83.6982 111.379L83.9153 111.079L84.1295 111.293C85.5546 115.826 87.4109 120.144 88.8789 124.676C89.2673 125.281 88.836 126.575 90.0012 126.529C95.0962 125.841 100.36 126.529 105.672 126.315C106.966 126.361 108.216 126.575 109.382 126.921C113.137 127.395 116.636 128.474 120.26 129.208C121.126 129.682 122.248 129.508 123.068 130.156C126.997 130.89 130.407 132.789 134.248 133.652C140.075 136.16 145.901 138.616 151.556 141.554C152.375 141.554 152.892 142.328 153.715 142.374C153.672 140.386 153.758 138.359 154.017 136.242C154.449 137.97 154.532 139.741 154.751 141.637C155.314 145.524 155.657 149.968 156.519 153.983C162.391 154.029 167.529 154.286 173.312 154.2C173.483 153.509 173.786 152.864 173.829 152.13C174.132 151.004 178.104 135.508 178.276 134.172C179.01 131.282 187.903 91.004 188.634 90.4876C190.793 91.4386 192.649 93.078 194.848 93.8976C195.197 86.992 195.111 78.9612 195.068 72.0123M38.4195 106.648C38.2939 109.064 38.1625 111.611 38.034 114.33C37.7313 116.229 37.4285 118.948 36.6517 121.065C35.7892 124 33.7615 126.848 31.1712 128.704C30.4801 128.793 29.9174 128.704 29.7461 127.973C29.8746 121.97 29.8318 116.706 30.1345 110.358C30.2202 99.6968 30.78 89.8549 30.8685 79.2789C31.1255 78.4164 30.8257 77.037 31.9909 76.82C34.2328 75.6547 36.6089 75.0064 38.9394 74.1012L39.1564 74.9608C39.0707 85.8421 38.5081 95.3812 38.4195 106.648ZM60.6102 108.289C60.6102 108.289 60.3932 112.648 60.1761 114.718C59.702 115.495 58.6682 115.366 58.0199 115.972C56.6805 116.315 55.4296 116.923 54.1787 117.44C54.61 115.409 54.8242 96.417 55.3011 87.4814C55.3868 81.7409 55.5581 75.5235 55.818 69.2659C56.3349 68.4862 57.6316 68.6176 58.5368 68.3149C59.4022 68.0122 60.3075 67.8836 61.2129 67.7123L61.4299 68.0122C60.9981 81.0028 61.0409 94.5546 60.6101 108.287M76.6659 110.272C76.9686 104.055 76.8401 98.6564 77.1857 92.5709C77.7454 93.0907 81.8894 105.309 83.186 109.449C81.8037 110.055 77.0114 110.789 76.6659 110.272ZM91.3855 68.0093C91.4312 70.4711 91.2142 72.7587 91.1713 75.132C90.8686 74.4865 90.4374 73.7098 90.3517 72.8873C89.2721 70.0399 88.1926 67.2754 87.3301 64.3823C88.4953 63.9967 89.9632 64.2538 91.2569 64.1681C91.7739 65.6361 91.1713 66.5443 91.3855 68.0093ZM112.711 82.8144C112.365 91.7935 112.579 99.65 112.062 108.803V109.149C110.466 109.018 108.567 108.932 106.796 108.803C106.408 107.375 106.668 105.262 106.582 104.054C106.796 90.2854 107.013 78.0679 107.401 64.382L107.53 64.2535C109.215 64.6448 111.157 64.382 112.796 64.9018C113.313 71.0734 112.625 76.689 112.711 82.8144ZM168.353 100.341C167.964 98.3988 165.328 80.7008 164.811 78.2387L164.897 77.7217C166.753 78.1101 168.438 78.9727 170.078 79.7923C170.726 80.3549 171.674 80.4006 172.063 81.2631C172.194 84.1533 168.784 98.5273 168.353 100.341Z" fill="black"/>
<path d="M96.1114 50.1756C93.6692 50.1664 91.2879 50.2327 88.9751 50.4758C89.0588 53.2375 88.8381 55.8707 88.9751 58.678C91.2575 58.8926 94.1029 57.988 95.3962 60.2323C95.8375 71.5105 95.3582 98.9525 94.8865 100.332C94.8865 100.332 84.3038 70.5937 79.6454 57.8594C79.2117 55.4834 78.0462 53.4125 77.487 51.1252C72.7799 51.7735 68.3802 52.2905 63.7165 53.0673C62.2512 53.3699 60.6946 53.3266 59.3579 53.9291L59.141 62.3025L59.3579 62.8221C61.2142 62.6053 63.4593 61.4405 65.1415 62.6053C65.4443 63.0367 65.5295 63.5129 65.7897 63.9443C65.9609 76.1163 65.4869 86.2152 65.3583 98.8643C64.8813 104.996 66.0042 110.953 64.4507 116.997C62.9397 119.284 60.0913 119.284 58.0181 120.621C57.9321 122.434 57.7153 124.077 57.8036 125.713C57.8036 126.923 57.3273 128.52 57.8036 129.426C63.7614 127.052 70.1498 125.066 76.5383 123.423C77.1842 123.126 78.0477 123.294 78.6099 122.784C78.5217 120.361 78.7385 117.557 78.8237 114.924L78.6099 114.492C76.5794 114.706 74.8965 115.786 72.9115 115.141C71.1404 112.679 72.0921 99.5132 72.0031 96.8801C72.5235 93.2557 71.8327 89.7141 72.3067 85.7017C72.6947 79.2668 72.3927 73.3562 72.8271 66.5356C73.9036 68.9519 74.8539 71.585 75.6306 74.2181L75.8475 74.435C81.1571 90.1029 86.9818 105.556 92.5128 121.141C95.1832 121.312 98.6372 120.838 101.102 121.141L101.407 120.924C101.528 107.327 101.962 91.0082 102.266 78.3622C102.609 71.585 101.833 65.8866 103.172 59.9295C104.419 58.2474 106.884 58.764 108.779 58.678L108.87 50.6927L108.657 50.3911C104.389 50.4179 100.182 50.191 96.1114 50.1756ZM111.457 50.6065C111.069 53.411 111.335 56.1742 111.244 58.9814C112.887 59.11 114.568 59.0659 115.907 59.8001C116.98 60.3623 117.376 61.5704 117.459 62.6903C117.543 72.0604 117.421 80.8659 117.071 90.2762C116.767 98.0044 117.284 105.516 116.212 112.635C114.911 114.578 111.89 113.284 110.209 113.37V121.741C121.819 124.031 132.911 127.569 143.486 132.317C143.791 132.278 147.549 134.257 149.185 134.698C149.573 129.25 149.23 123.385 149.489 117.601C149.573 112.247 149.702 106.98 149.793 101.454C148.454 100.246 146.469 100.072 144.917 99.1669C144.917 102.577 144.567 105.943 144.392 109.139C143.532 112.763 144.049 117.339 140.382 119.501C135.026 120.232 130.538 117.125 125.532 116.176C125.357 106.552 125.836 97.6986 125.965 88.0744C126.437 78.9669 125.79 70.9785 126.916 62.5192C128.21 60.1029 131.23 61.7857 133.429 61.874C133.604 59.0666 133.512 55.9595 133.512 53.1948C130.15 52.678 126.308 52.1604 123.074 51.6406C119.019 51.4265 115.39 50.778 111.457 50.6065ZM56.8526 54.3186C50.2503 56.2176 43.8185 57.5551 37.3844 59.9311C37.0839 63.0382 37.3852 66.3157 37.0854 69.4259C38.8961 69.0805 40.7091 67.7445 42.5655 68.3904C43.257 68.6498 43.2137 69.3825 43.5134 69.8572C43.8619 80.087 43.1285 89.8442 43.0859 99.9028C42.9969 112.723 44.4211 128.695 30.6529 134.515C29.873 134.432 29.3565 135.04 28.4937 134.827C25.5152 133.747 25.2557 130.072 25.1698 127.356C24.8244 118.246 25.3843 108.578 25.4726 99.816C25.6042 91.5256 25.5578 83.8879 26.292 76.3742C27.1113 73.1386 30.6072 72.4911 33.0258 71.197C33.1118 68.0442 33.3301 65.1502 33.2411 61.6573L33.0258 61.356C25.6864 64.4632 18.2214 67.6121 11.184 71.3248C11.0984 75.2095 10.8816 78.6194 10.97 82.2035C12.6094 81.5127 13.9061 80.1296 15.8454 80.2186C16.839 80.6499 16.9242 81.9471 16.9676 82.8068C16.7956 100.68 16.5796 117.211 16.3627 134.827C16.8824 140.092 16.6222 145.783 20.9405 149.412C23.0114 150.576 24.9978 149.891 27.243 149.199C37.2125 143.584 45.1134 133.869 47.8751 122.776C48.5659 121.011 48.5233 118.723 49.0855 116.996C49.6029 113.068 49.7741 108.839 49.8197 104.477C49.8197 104.477 49.6881 100.376 49.9475 97.914C49.9909 87.3815 50.1628 78.5334 50.7677 67.7011C50.8536 65.9733 52.3646 64.766 53.8748 64.2463C54.7832 63.9435 55.7745 63.6856 56.7681 63.4254L56.8526 56.6916C57.0268 55.8288 57.0268 55.1806 56.8526 54.3186ZM144.177 55.5694C144.132 58.3311 143.919 61.5698 144.01 64.6769C145.729 65.1083 147.54 65.5846 148.666 67.2667C151.169 73.1812 151.39 80.0444 152.462 86.5188C155.916 106.333 157.91 126.664 159.933 146.612C160.063 147.342 160.063 148.552 160.367 149.199C163.212 149.625 166.453 149.283 169.383 149.541C169.946 148.895 169.991 147.639 170.296 146.734C174.83 130.072 178.406 113.415 182.423 96.5788C183.678 92.5633 183.503 87.8159 186.135 84.4486C187.779 84.1032 189.156 84.9226 190.411 85.828C190.624 82.1183 190.837 78.4056 190.624 74.5187C187.558 72.7506 184.408 71.108 181.304 69.4259C178.368 68.2611 175.69 66.4473 172.669 65.4111C172.023 65.1083 171.33 64.4639 170.6 64.5925C170.417 67.6996 170.554 71.5424 170.509 74.5187C172.236 75.6005 174.176 76.1179 175.69 77.628C177.63 79.2676 176.983 81.9007 176.816 84.1458C174.092 97.3115 170.904 110.307 167.831 123.294C167.534 124.252 167.572 125.325 166.971 126.101C166.362 122.175 165.761 118.246 165.114 114.319C163.905 105.469 162.52 96.3186 161.181 87.1677C160.93 86.7371 161.272 86.0882 160.884 85.7001C160.451 82.2469 160.063 79.0941 159.629 75.7725C159.591 74.2615 159.112 72.1024 160.451 70.8942C162.566 70.5914 164.338 72.1465 166.149 72.5345C166.24 69.3848 166.453 66.4047 166.362 63.0382L166.149 62.6068C158.944 60.0596 151.519 57.5977 144.177 55.5694Z" fill="#CF0A2C"/>
</g>
<defs>
<clipPath id="clip0_15016_302060">
<rect width="200" height="200" fill="white" transform="translate(0.710938 0.453125)"/>
</clipPath>
</defs>
</svg>
