<svg width="201" height="201" viewBox="0 0 201 201" fill="none" xmlns="http://www.w3.org/2000/svg">
<path d="M58.6835 10.621L40.8457 28.4589L40.8459 65.9155L58.6797 83.7553H86.6234L71.6266 98.7532V104.348H68.7876V88.3743H40.8459L40.8461 112.782L58.6839 130.622H71.6268V172.781L89.4626 190.621H143.291L161.131 172.781V148.372H133.185V164.351H99.5645V130.622H112.507L130.345 112.782V107.186H133.185V123.162H161.131V98.7571L143.291 80.9153H130.345V75.3254L112.509 57.4856L68.7878 57.4836V36.8918H102.406V52.8646H130.345V28.4609L112.507 10.621H58.6835Z" fill="#FFC72C"/>
<path d="M59.8605 13.4581L43.6826 29.6329L43.6829 64.7405L59.8568 80.9164H105.241V107.185H99.5653V127.781H111.329L127.507 111.601V76.5004L111.333 60.3246L65.9467 60.3226V34.0499H105.241V50.0257H127.507V29.6349L111.333 13.4581H59.8605ZM90.6371 83.7543L74.4623 99.9272V99.9292V171.6L90.6351 187.78H142.111L158.29 171.6V151.211H136.02V167.19H96.7251V104.347H102.405V83.7563L90.6371 83.7543ZM130.344 83.7543V104.347H136.022V120.321H158.29V99.9312L142.111 83.7543H130.344ZM43.6826 91.2133V111.601L59.8565 127.781H71.6263V107.185H65.9464V91.2133H43.6826Z" fill="#9D2235"/>
</svg>
