<svg width="200" height="201" viewBox="0 0 200 201" fill="none" xmlns="http://www.w3.org/2000/svg">
<path d="M155.714 50.2791C157.612 51.189 159.533 52.2188 161.349 53.6696C162.383 57.0324 162.833 60.5301 163.285 64.155C175.055 62.4699 187.709 60.7146 200 58.8874C181.152 84.4393 162.244 110.011 143.717 135.652L143.656 135.951C139.411 133.843 133.568 135.222 130.083 138.559C117.791 150.595 109.088 165.296 101.669 180.008C101.091 180.357 100.41 180.417 99.8505 180.179C98.6545 178.42 97.8959 176.449 96.8808 174.729C90.0259 162.542 82.5914 150.602 72.4031 140.318C68.553 136.687 63.1802 133.747 57.9864 135.591C57.8812 135.644 57.7298 135.722 57.7427 135.892C38.4275 110.451 19.3319 84.7106 0 59.3046C12.3053 61.3201 24.4647 62.804 36.842 64.5814C37.1558 60.9362 38.2281 56.5397 38.8409 54.1569C38.9258 53.8394 43.1174 51.309 44.8413 50.3972C60.6977 27.326 90.0683 16.4732 117.3 23.7434C132.207 27.4477 146.242 36.9568 155.714 50.2791Z" fill="#002649"/>
<path d="M100.161 64.9077C99.0376 66.3355 97.8003 67.5006 96.4064 68.7172L100.276 91.8638L103.919 68.8413C102.462 67.6792 101.04 66.3813 100.161 64.9077ZM92.8272 71.0812C91.1956 71.8165 89.6054 72.5578 87.9797 73.141L93.502 87.7427C93.3809 82.1421 93.1196 76.6006 92.8272 71.0812ZM107.371 71.1388L106.945 88.0454C108.703 83.0679 110.575 78.1584 112.34 73.2001L107.371 71.1388ZM84.591 74.2322C83.3536 74.4492 82.1724 74.6929 81.0147 74.9572C81.9893 77.4186 83.299 80.0365 84.3459 82.2898C84.4728 79.6881 84.4728 76.8856 84.591 74.2322ZM115.792 74.2322C115.726 76.9638 115.724 80.0365 116.034 82.5939C117.087 80.0055 118.389 77.4319 119.365 74.8966C118.131 74.8258 116.951 74.3872 115.792 74.2322ZM124.034 75.2628C123.751 76.1281 123.708 77.0539 123.792 77.869L125.912 75.2628H124.034ZM74.5326 75.3809L76.5969 77.9265L76.4123 75.3809H74.5326ZM158.144 86.3488C153.576 87.818 148.883 89.1809 144.033 89.3152C143.509 90.464 143.144 92.041 142.934 93.3152C148.656 92.6951 153.759 90.1835 158.144 86.3488ZM42.4795 86.5305C46.8324 90.5467 52.2085 92.7881 57.9332 93.4998C57.5123 92.1931 57.2096 90.876 57.0206 89.5633C51.9693 89.1528 47.0716 88.0616 42.4795 86.5305ZM157.723 93.6814C152.508 95.2717 147.125 96.7217 141.481 96.6493C140.647 98.2351 139.631 99.7649 138.635 101.318C145.855 101.321 152.123 98.0904 157.723 93.6814ZM42.7187 93.7434L43.1484 94.1037L43.0849 94.1613C48.2602 98.2794 54.3924 101.204 61.44 101.495C61.657 101.38 61.6438 101.113 61.9937 101.253C60.901 99.7796 60.0328 98.4138 59.3226 96.8885C53.344 96.8147 47.925 95.2953 42.7202 93.742L42.7187 93.7434ZM44.6633 101.865C51.9516 107.307 60.87 110.653 70.5341 109.256C68.3488 107.729 66.2772 105.956 64.4108 104.041C57.536 104.824 50.8826 103.548 44.6633 101.865ZM156.085 101.865C149.732 103.441 143.039 104.794 136.393 103.859C134.561 105.85 132.259 107.515 130.394 109.069C139.918 110.556 148.795 107.183 156.085 101.865ZM152.69 110.225C144.238 112.27 135.184 113.457 126.518 111.306L124.152 112.522C125.111 113.996 125.976 115.571 126.763 117.247C136.395 118.132 145.25 115.162 152.69 110.225ZM48.8449 110.527C56.2071 115.561 64.8508 118.465 74.289 117.244C74.9343 115.664 75.7995 114.194 76.715 112.766C75.8453 112.302 75.0273 111.876 74.2255 111.493C65.9273 113.411 56.7785 112.344 48.8449 110.527ZM146.81 119.433C140.755 120.614 134.107 121.646 128.033 120.642C128.448 122.052 128.883 123.616 129.18 125.123C135.618 124.866 141.465 122.718 146.81 119.433ZM54.3599 119.493C59.5854 122.659 65.158 125.097 71.6858 125.374L72.8981 120.76C66.7187 121.317 60.0683 121.131 54.3584 119.493H54.3599Z" fill="#FF8200"/>
<path d="M124.898 37.2636C119.16 37.1174 113.419 38.1643 108.34 40.3673C100.811 43.4887 92.2674 40.9889 85.4384 38.2986C79.5543 36.9151 73.18 36.9786 67.5646 38.244C60.0223 40.0041 50.4232 44.0159 48.8448 52.7187C48.833 56.2196 50.7126 59.2894 53.6288 61.3241C63.0153 67.1979 76.266 66.5334 86.2829 62.3606C89.3453 60.5519 92.7296 58.6574 94.9489 55.4533C96.9924 52.7527 97.6318 48.6213 96.043 45.5722C95.9072 45.1189 95.2397 45.0199 95.4952 44.546C98.28 44.7615 101.534 45.4555 104.34 44.4219L104.518 44.546C104.34 44.7158 104.433 44.9919 104.282 45.1484C102.481 47.9228 102.995 52.2403 105.006 54.845C110.439 62.2307 119.327 64.4426 128.089 65.3256C136.267 65.423 146.307 64.4278 150.386 56.0587C151.712 52.5371 150.383 48.6626 148.024 45.9989L145.601 43.8165C139.646 39.6098 132.273 37.4526 124.898 37.2636ZM149.174 71.629C144.914 73.7405 140.524 75.3426 135.971 76.4736C129.515 77.4777 123.541 80.007 118.941 84.7763C111.953 90.5172 110.986 99.2348 104.282 104.946C102.488 106.473 99.6163 106.548 97.617 105.615C93.6657 103.185 91.3446 98.9144 89.3778 95.0753C86.1412 88.698 80.672 82.9749 74.3523 79.567C67.0788 76.1443 58.6565 75.9775 51.569 72.1118C52.4077 73.3138 53.4959 74.6028 54.7185 75.564C59.9751 80.2625 66.9725 80.8516 72.5317 85.0125C79.8274 89.4998 82.562 97.9915 89.3763 103.251C91.7123 105.193 94.1058 106.731 96.9496 107.707C89.2464 111.453 84.2984 119.468 82.2844 127.245C81.6702 129.547 81.1696 132.531 81.2553 135.366C76.7237 133.135 71.572 130.854 66.2874 131.85C68.7119 132.593 71.0124 133.714 73.1386 135.427C80.5185 141.433 87.2132 148.578 93.1283 155.966L99.1895 109.676C99.2959 109.181 99.7698 108.775 100.278 108.767C100.777 108.76 101.326 109.045 101.616 109.612C103.578 124.732 105.967 140.494 108.217 155.54C111.727 151.044 115.362 146.79 119.427 142.759C123.963 138.403 128.515 133.485 134.516 131.849C129.081 130.703 124.278 133.163 119.851 135.365L119.73 135.241C119.751 123.991 113.654 112.674 103.508 107.716C103.702 107.641 103.892 107.564 104.099 107.493C109.552 105.724 114.457 101.021 117.853 96.2876C121.329 90.4876 126.887 84.3658 133.366 82.0461C139.181 80.0233 145.459 76.9948 149.174 71.629ZM66.7185 85.8069L66.4158 86.588C65.6569 91.7368 69.7543 96.1 74.1072 98.4699C76.0149 99.254 78.6211 99.9169 80.5347 98.6486C79.8008 97.2665 78.9961 95.9199 78.0526 94.7756C77.5757 95.0576 77.0279 95.1122 76.5332 95.254C74.5738 95.313 72.9688 94.3739 71.8717 92.8294C70.9267 91.3426 70.4719 89.4112 71.3269 87.8047C69.9094 86.7475 68.3649 86.0816 66.7185 85.8069ZM133.97 85.9221C132.235 86.1864 130.642 86.7283 129.305 87.7412L129.728 89.3167C129.84 91.533 128.507 93.6637 126.521 94.7121C125.313 95.3145 123.619 95.3145 122.518 94.7121C121.599 95.9287 120.771 97.2074 120.158 98.5851C122.27 99.8992 125.328 99.0576 127.353 97.9398C131.052 95.7516 134.457 91.9406 134.273 87.0753L133.97 85.9221Z" fill="white"/>
<path d="M121.854 40.543C116.185 41.0007 110.051 42.0019 107.252 47.3928C106.491 49.68 107.311 52.134 109.011 53.8158C109.186 53.4053 108.795 52.9816 108.886 52.5356C108.489 50.8479 109.702 49.4983 111.064 48.6006C117.452 44.9904 126.099 45.6504 133.183 47.3322C137.318 48.6036 142.192 50.1067 144.451 54.4788C144.78 55.8874 144.355 57.4275 143.177 58.4153C143.125 58.4743 143.067 58.5984 143.243 58.6634C145.052 57.7951 146.871 55.7516 147.237 53.6918C147.597 51.344 146.187 49.271 144.754 47.5744C138.545 42.0358 130.447 40.4323 121.854 40.543ZM76.2397 40.766C73.486 40.7822 70.7218 41.1041 68.1098 41.6371C62.5048 42.9852 56.6443 45.0318 53.3206 50.3607C52.4066 51.9509 52.4406 54.3149 53.4446 55.8741C54.332 57.1322 55.6624 58.5526 57.0843 58.966V58.7815C56.1172 57.9915 55.6329 56.9166 55.5664 55.7501C55.6329 54.1761 56.8599 52.983 57.9319 51.9347C63.1397 47.9391 69.5937 46.5305 76.2279 46.2396C81.5657 46.2425 87.4468 46.275 91.0083 50.6663C91.3804 51.5596 91.5044 52.7409 91.1323 53.6342H91.311C92.0183 52.4529 92.7713 51.285 92.9529 49.8793C93.0459 48.1222 92.3785 46.5762 91.1929 45.3315L89.1951 43.6955C85.3929 41.5604 80.8304 40.7379 76.2397 40.766ZM108.089 114.423L109.538 121.984L111.614 117.392C110.85 115.855 110.016 115.059 108.089 114.423ZM92.2456 114.877C90.3497 115.608 89.5627 116.453 88.8776 118.033L91.1929 122.499L92.2456 114.877Z" fill="#002649"/>
</svg>
