<svg width="201" height="201" viewBox="0 0 201 201" fill="none" xmlns="http://www.w3.org/2000/svg">
<path d="M98.0874 25.8615V52.4384H106.321V113.633H93.7743V86.6767H101.999V60.1016H59.0733V86.6767H67.3014V113.633H54.4721V52.4384H62.6959V25.8615H19.7715V52.4384H27.9995V123.303L45.0117 140.206H67.3021V157.546L84.3142 174.447H155.082L172.088 157.544V86.6759H180.32V60.1007H137.392V86.6759H145.625V147.872H93.7752V140.205H115.777L132.783 123.303V52.4378H141.016V25.8609L98.0874 25.8615Z" fill="#BE0000"/>
<path fill-rule="evenodd" clip-rule="evenodd" d="M91.6148 19.3887V53.6287H69.171V19.3886H13.2988V58.9133H21.5269V125.998L42.3436 146.681H60.8294V160.241L81.6463 180.922H157.753L178.563 160.239V93.1508H186.795V53.6279H147.491V19.3879L91.6148 19.3887ZM180.321 60.1018V86.6769H172.089V157.545L155.083 174.448H84.3155L67.3033 157.547V140.207H45.0129L28.0008 123.305V52.4394H19.7727V25.8625H62.6971V52.4394H54.4734V113.634H67.3026V86.6778H59.0746V60.1026H102.001V86.6778H93.7755V113.634H106.323V52.4394H98.0887V25.8625L141.017 25.8619V52.4388H132.785V123.304L115.779 140.206H93.7765V147.873H145.626V86.6769H137.394V60.1018H180.321ZM139.152 126.103L123.762 141.399H139.152V126.103Z" fill="white"/>
</svg>
