<svg width="201" height="201" viewBox="0 0 201 201" fill="none" xmlns="http://www.w3.org/2000/svg">
<g clip-path="url(#clip0_15016_302618)">
<path d="M198.517 89.7281C197.195 82.62 194.232 75.9184 189.865 70.156C188.572 68.3584 185.103 64.4524 186.766 70.8112C190.705 85.318 187.69 89.938 187.69 89.938C187.69 89.938 189.563 78.892 182.196 66.418C174.829 53.944 164.514 50.3236 164.514 50.3236L163.859 52.3396C157.794 49.366 147.328 43.234 123.934 44.242C96.4321 45.8296 75.4237 60.9916 75.4237 60.9916C75.4237 60.9916 85.7473 62.2936 85.6717 62.3608C50.0809 77.0944 12.9025 110.241 12.9025 110.241C33.9781 106.125 58.1617 102.513 58.1617 102.513C44.9569 108.754 30.2653 118.834 24.9565 122.429C19.6477 126.024 13.4737 130.829 12.9025 131.308C12.3313 131.787 4.95605 138.238 4.95605 138.238C20.6221 132.896 24.0913 131.888 40.9081 128.057C51.9107 125.632 63.0498 123.873 74.2645 122.79C54.0541 132.87 37.3045 148.133 37.3045 148.133C51.6193 144.181 66.1883 141.214 80.9089 139.254C99.8257 136.869 110.939 136.65 110.939 136.65C110.796 136.793 108.923 138.33 108.419 138.742C108.178 138.964 107.913 139.158 107.629 139.322C105.089 140.895 102.272 141.973 99.3301 142.497C97.8275 142.793 96.3063 142.987 94.7773 143.076L88.2085 143.513C97.2301 148.713 103.077 149.939 103.077 149.939C102.505 150.3 99.9013 151.309 99.9013 151.309C98.8177 151.745 90.2329 154.778 90.2329 154.778C108.209 158.238 120.767 156.29 120.767 156.29L120.263 158.163L123.01 158.02C132.468 157.592 137.231 153.333 137.231 153.333C138.664 154.646 140.555 155.346 142.498 155.282H156.148C157.046 155.274 157.931 155.069 158.741 154.681C159.551 154.294 160.266 153.733 160.835 153.039C160.835 153.039 166.329 146.319 167.194 145.168C168.059 144.017 168.781 142.648 168.345 139.901C167.912 138.574 167.99 137.134 168.563 135.861C168.563 135.861 171.595 127.461 173.687 121.782C175.493 114.92 174.342 113.114 174.342 113.114C179.752 110.3 182.137 107.561 182.137 107.561C191.151 106.234 200.533 100.774 198.517 89.7281ZM161.305 139.834L157.769 141.514L149.033 135.953L158.206 139.313L163.977 138.524L161.305 139.834ZM177.047 108.141C174.568 109.713 171.742 110.656 168.815 110.888H167.975C161.953 110.663 155.984 109.664 150.217 107.914C148.05 97.3049 140.255 96.4397 140.255 96.4397C142.108 97.9472 143.588 99.8616 144.581 102.034L131.015 99.2201C131.015 99.2201 136.567 102.034 140.616 104.26C136.282 112.131 144.732 115.306 148.773 114.222C148.766 114.278 148.739 114.329 148.697 114.365C147.711 116.373 146.338 118.166 144.657 119.64C144.657 119.64 150.646 117.473 154.476 112.778C157.479 112.579 160.49 112.531 163.498 112.635C164.514 112.71 165.522 112.853 166.387 112.996C167.689 113.29 168.697 113.643 169.42 113.836C169.7 113.905 169.952 114.057 170.142 114.273C170.982 115.499 169.924 120.195 169.302 121.488C168.798 122.648 165.262 132.03 164.262 135.642L161.448 135.206L148.848 133.19C148.098 133.08 147.334 133.227 146.678 133.607C146.022 133.986 145.514 134.576 145.236 135.281L143.22 140.766C143.009 141.332 142.957 141.945 143.071 142.537C143.186 143.13 143.461 143.68 143.867 144.126L148.126 146.873C148.782 147.337 149.565 147.589 150.369 147.596L156.719 147.739L159.609 147.814C158.525 149.041 157.441 150.334 156.643 151.426H142.489C137.004 151.426 133.468 141.245 133.468 141.245C133.358 143.154 133.479 145.069 133.829 146.949C133.89 147.187 133.937 147.428 133.972 147.671L134.257 148.898C134.333 149.116 134.409 149.326 134.476 149.545C134.551 149.763 134.619 149.906 134.694 150.124C131.998 152.216 128.772 153.516 125.379 153.879L126.219 150.771L122.665 151.812C122.59 151.812 117.39 153.333 106.638 152.652C107.829 152.048 108.975 151.358 110.065 150.586L115.702 146.613C115.702 146.613 107.898 146.688 102.774 145.462C105.445 144.622 112.854 140.262 116.214 136.583C118.965 133.715 122.04 131.178 125.379 129.023C123.863 129.158 122.363 129.44 120.901 129.863C120.114 130.093 119.342 130.373 118.591 130.703L118.087 130.922C117.143 131.355 116.248 131.887 115.416 132.509C94.8815 133.075 74.4398 135.493 54.3397 139.733C55.1797 139.154 56.0197 138.574 56.9353 137.927C66.0095 131.642 75.7134 126.318 85.8901 122.043L96.8605 117.566L92.7445 117.784L85.0249 118.145C60.6649 119.229 37.5901 124.428 24.3769 127.965L28.4929 125.075C39.7573 117.347 56.5069 106.881 72.9625 100.715L89.1409 94.6505L72.0301 96.7421C56.0029 98.6909 37.6657 101.782 27.5101 103.605L31.8361 100.245C45.9145 89.4929 71.6941 71.374 94.6513 63.646L103.169 60.7564L87.7885 58.8076C113.493 45.5944 145.48 45.0904 164.464 58.0852L165.909 59.3116L166.555 57.1444L166.774 56.3548C174.502 60.5548 183.381 72.0208 183.305 87.544C183.355 97.4477 181.407 104.957 177.072 108.132L177.047 108.141ZM149.419 111.274C145.74 113.156 140.322 109.686 144.799 104.134L145.455 104.277C146.099 106.214 146.486 108.228 146.605 110.266C147.529 110.594 148.468 110.874 149.419 111.106V111.274ZM195.485 92.4329C195.342 99.3629 190 102.11 184.8 103.412C185.432 101.946 185.916 100.421 186.245 98.8589C186.606 97.2409 186.87 95.6028 187.035 93.9533C194.326 93.2309 190.395 77.4136 190.395 77.4136L191.554 79.5136C191.697 79.732 191.764 80.0176 191.915 80.236L192.419 81.244C194.511 85.6456 195.376 89.2576 195.451 92.1641L195.485 92.4329Z" fill="#003058"/>
<path d="M87.9795 117.808L92.8179 117.59L96.8583 117.447L87.9795 117.808Z" fill="#0C233F"/>
<path d="M145.522 104.311L144.875 104.168C140.398 109.72 145.816 113.114 149.495 111.308V111.165C148.655 110.947 147.689 110.661 146.681 110.376C146.514 108.318 146.126 106.285 145.522 104.311Z" fill="#BA1C21"/>
<path d="M118.164 82.8651C118.593 74.6331 125.724 69.6519 130.504 67.1991C131.52 66.8379 132.528 66.5523 133.469 66.2583C124.8 68.8623 114.552 73.6251 113.469 81.2019V81.3531C113.15 82.9511 113.2 84.6005 113.613 86.1766C114.026 87.7527 114.793 89.2141 115.854 90.4503C118.089 93.1887 121.482 94.9947 124.254 94.9947C125.985 94.9947 128.076 93.5499 129.739 91.7439C120.693 91.5255 117.946 86.2587 118.164 82.8651Z" fill="white"/>
<path d="M190.5 77.447C190.718 77.8082 190.861 78.1022 191.004 78.3878C190.82 78.0828 190.652 77.7688 190.5 77.447C190.424 77.3798 194.397 93.2642 187.14 93.9866C186.921 95.7926 186.636 97.3466 186.342 98.8922C190.424 97.5902 197.136 93.1214 190.5 77.447Z" fill="white"/>
<path d="M177.795 84.956C176.131 70.9532 165.379 66.7532 165.379 66.7532C165.379 66.7532 171.444 68.2736 174.04 69.2732C167.32 62.9984 160.398 58.3532 146.748 55.9928L154.837 55.6988C131.225 44.9468 101.842 56.2784 101.842 56.2784L114.988 58.8824C99.3156 64.3935 84.0227 70.9288 69.2078 78.446L81.8078 77.144C81.8078 77.144 61.589 83.024 31.8445 99.9585C30.9037 100.681 30.0385 101.328 29.2489 101.983V102.033C40.9418 97.7744 63.2522 91.5668 89.1662 94.3136L77.1122 95.8256L89.2418 94.3136L73.1054 100.412C56.7254 106.62 39.9002 117.086 28.6357 124.814C42.612 119.005 57.0855 114.473 71.879 111.273L62.429 116.977C62.429 116.977 75.785 115.297 97.0034 117.271H96.9362L88.0574 117.632L97.0034 117.271L86.033 121.748C75.8573 126.02 66.1558 131.344 57.0866 137.632C68.1998 133.004 84.227 127.09 98.8094 124.344C98.8094 124.344 93.6182 128.678 91.0898 130.845C101.842 128.964 117.222 129.468 121.053 129.619C122.512 129.198 124.009 128.917 125.521 128.779C122.205 130.963 119.132 133.498 116.357 136.339C112.997 140.094 105.597 144.42 102.917 145.218C114.618 144.999 119.238 143.05 119.238 143.05C118.734 146.083 115.987 148.93 115.987 148.93C121.234 148.422 126.283 146.665 130.713 143.806L130.066 148.645C131.449 148.212 132.728 147.497 133.821 146.545V146.696C133.471 144.816 133.349 142.901 133.459 140.992C133.459 140.992 137.937 148.284 141.112 148.788C143.422 149.149 151.36 149.216 155.551 149.216C156.07 148.727 156.509 148.16 156.853 147.536L150.495 147.385C149.691 147.394 148.906 147.14 148.26 146.662L144.01 144.033C143.601 143.589 143.323 143.039 143.207 142.446C143.091 141.853 143.142 141.239 143.355 140.673L145.379 135.18C145.648 134.468 146.154 133.872 146.813 133.491C147.471 133.109 148.24 132.967 148.991 133.088L161.549 135.112C162.129 133.012 164.153 125.032 166.102 121.034C168.051 117.036 166.463 112.802 166.463 112.802C165.518 112.566 164.548 112.444 163.573 112.441C160.037 112.298 154.552 112.584 154.552 112.584C151.878 115.627 148.51 117.981 144.732 119.446C146.414 117.972 147.787 116.179 148.773 114.171C138.592 116.481 135.559 110.274 135.559 110.274C136.923 110.487 138.312 110.487 139.675 110.274C135.055 109.266 132.309 104.931 132.309 104.931L139.39 105.435C134.98 104.352 131.082 99.0093 131.082 99.0093L144.657 101.832C143.65 99.6771 142.161 97.783 140.305 96.296C140.305 96.296 148.109 97.136 150.268 107.77C156.318 109.588 162.584 110.586 168.899 110.736H168.059C169.353 109.838 170.539 108.796 171.595 107.628H166.396C166.396 107.628 170.873 106.326 173.326 105.536C176.283 101.496 178.945 94.8512 177.795 84.956ZM143.43 63.662C140.473 66.1148 130.074 72.1796 127.327 77.8832C129.051 77.2395 130.895 76.9811 132.729 77.1262C134.564 77.2713 136.344 77.8164 137.945 78.7232C134.763 78.6855 131.626 79.482 128.848 81.0332C129.434 81.2125 130.041 81.3114 130.654 81.3272C133.535 81.47 136.534 83.0576 136.425 86.8796C136.282 91.8608 129.931 99.0093 124.228 99.0093C121.32 98.9156 118.505 97.9627 116.139 96.2708C114.108 99.8974 112.74 103.857 112.098 107.964L117.869 103.268C117.031 107.711 117.057 112.274 117.945 116.708C117.945 116.708 121.775 112.735 122.926 111.366C120.33 119.379 120.255 121.622 119.566 127.174C113.215 117.716 113.862 111.147 113.862 111.147L108.881 114.978C108.248 108.743 109.323 102.454 111.989 96.7832L107.293 97.2873C107.707 95.8677 108.36 94.5296 109.225 93.3308C109.791 92.4936 110.417 91.699 111.099 90.9536C110.105 89.4079 109.433 87.6775 109.124 85.866C108.816 84.0545 108.876 82.1993 109.301 80.4116C110.309 73.8428 115.727 68.2064 126.051 64.67C131.931 62.654 139.692 61.7804 142.582 61.9988C143.665 62.1416 144.077 63.158 143.43 63.662ZM155.274 106.233C155.274 106.233 153.594 101.109 148.554 94.1036C155.341 99.3705 157.005 103.78 157.005 103.78C159.376 105.19 161.863 106.395 164.439 107.384C161.305 108.35 155.274 106.233 155.274 106.233Z" fill="white"/>
<path d="M123.724 75.7916C125.404 72.9776 128.916 69.6512 134.409 65.8963C133.107 66.2575 131.805 66.6944 130.436 67.1228C125.673 69.584 118.592 74.5652 118.088 82.7888C117.87 86.258 120.608 91.4576 129.638 91.676C131.083 90.0884 132.158 88.2068 132.158 86.762C132.158 86.258 132.234 85.5356 130.285 85.4684C128.12 85.4235 126.031 84.6613 124.346 83.3012C124.085 84.5097 123.964 85.7442 123.985 86.9804C119.785 82.0748 123.699 75.7916 123.699 75.7916H123.724ZM164.439 107.409C161.864 106.421 159.377 105.215 157.005 103.806C157.005 103.806 155.426 99.3956 148.555 94.1288C153.679 101.059 155.275 106.258 155.275 106.258C155.275 106.258 161.306 108.35 164.439 107.409ZM131.016 99.1856C131.016 99.1856 134.838 104.528 139.315 105.603L132.242 105.099C132.242 105.099 134.98 109.509 139.6 110.442C138.243 110.7 136.85 110.7 135.493 110.442C135.493 110.442 138.525 116.582 148.698 114.339C148.707 114.285 148.734 114.235 148.773 114.196C144.733 115.28 136.358 112.18 140.617 104.234C136.568 102.033 131.016 99.1856 131.016 99.1856ZM89.1416 94.4144C63.1015 91.676 40.7659 97.9508 29.0731 102.21C28.8547 102.428 28.5691 102.571 28.3507 102.789H28.2751C28.0567 103.008 27.7711 103.15 27.5527 103.369C37.7335 101.563 56.0035 98.4632 72.0728 96.5144L89.1416 94.4144ZM118.088 130.879C118.231 130.803 118.592 130.66 118.592 130.66C118.752 130.571 118.921 130.498 119.096 130.442C119.096 130.442 120.776 129.862 120.902 129.795C120.902 129.795 103.262 128.955 90.9476 131.022C93.4676 128.93 98.6672 124.52 98.6672 124.52C84.0848 127.267 68.1331 133.189 56.9359 137.809C56.0035 138.456 55.1299 139.035 54.3403 139.615C74.4392 135.367 94.8816 132.949 115.417 132.391C116.255 131.8 117.15 131.294 118.088 130.879ZM96.8612 117.439C75.71 115.473 62.3539 117.153 62.3539 117.153L71.8124 111.374C57.0172 114.531 42.5465 119.053 28.5859 124.881C28.0735 125.242 27.6451 125.536 27.2083 125.822C27.1987 125.822 27.1892 125.824 27.1805 125.828C27.1717 125.832 27.1639 125.837 27.1576 125.845C27.1512 125.852 27.1464 125.86 27.1436 125.869C27.1408 125.878 27.1399 125.888 27.1411 125.898C27.1411 125.898 27.0655 125.898 27.0655 125.965C27.0655 126.032 26.9983 126.04 26.9227 126.04C26.7454 126.185 26.5507 126.306 26.3431 126.402C26.2053 126.472 26.0826 126.569 25.9819 126.687C25.9147 126.763 25.8391 126.763 25.8391 126.83C25.7324 126.886 25.6359 126.96 25.5535 127.048C25.1923 127.267 24.8983 127.552 24.5371 127.771C37.7503 124.234 60.7831 119.035 85.1852 117.951L96.8612 117.439ZM134.476 149.493C134.409 149.275 134.334 149.065 134.258 148.846C134.258 148.771 134.191 148.704 134.191 148.628C134.115 148.41 134.048 148.124 133.972 147.906C133.972 147.83 133.897 147.687 133.897 147.62C133.83 147.402 133.83 147.183 133.754 146.898V146.746C132.664 147.702 131.384 148.418 129.999 148.846L130.654 144.008C126.222 146.867 121.171 148.624 115.921 149.132C115.921 149.132 118.592 146.242 119.172 143.21C119.172 143.21 114.552 145.159 102.859 145.377C107.983 146.679 115.778 146.536 115.778 146.536L110.15 150.501C109.045 151.283 107.885 151.984 106.681 152.601C117.441 153.248 122.641 151.761 122.708 151.761L126.244 150.678L125.455 153.777C128.853 153.435 132.085 152.133 134.77 150.022C134.63 149.883 134.528 149.709 134.476 149.518V149.493ZM166.825 56.1523L166.606 56.9503L165.96 59.1091L164.515 57.8827C145.522 44.8207 113.468 45.3919 87.8396 58.6051L103.22 60.5539L94.694 63.4435C71.7367 71.1716 45.8899 89.2904 31.8871 100.051C61.6315 83.0828 81.8504 77.2364 81.8504 77.2364L69.2504 78.53C84.0672 71.0169 99.3599 64.4817 115.03 58.9663L101.884 56.3707C101.884 56.3707 131.301 45.0307 154.838 55.8331L146.749 56.1187C160.399 58.5043 167.329 63.1243 174.04 69.4076C171.445 68.3996 165.38 66.8876 165.38 66.8876C165.38 66.8876 176.132 71.0876 177.795 85.082C178.954 94.9688 176.283 101.613 173.251 105.805C170.865 106.594 166.321 107.896 166.321 107.896H171.512C170.461 109.066 169.273 110.107 167.976 110.996H168.816C171.638 110.635 174.88 109.845 177.048 108.258C181.382 105.082 183.331 97.5728 183.331 87.4676C183.423 71.894 174.544 60.4111 166.825 56.1523ZM195.486 92.18C195.486 89.2904 194.646 85.6784 192.453 81.26C192.322 80.9864 192.176 80.72 192.016 80.462C192.016 80.3948 191.949 80.3948 191.949 80.3192C191.798 80.1008 191.731 79.8152 191.588 79.5968C191.512 79.5296 191.512 79.454 191.445 79.3868C191.308 79.1547 191.187 78.9133 191.084 78.6644C191.008 78.5888 191.008 78.5132 190.933 78.446C190.79 78.152 190.572 77.8664 190.429 77.5052C197.073 93.1712 190.362 97.6652 186.229 98.9504C185.891 100.508 185.422 102.034 184.826 103.512C190.026 102.218 195.368 99.4712 195.511 92.5412V92.18H195.486ZM169.857 114.02C169.782 114.02 169.706 113.944 169.639 113.944H169.563C169.496 113.944 169.42 113.877 169.345 113.877H169.278C168.305 113.475 167.287 113.192 166.245 113.037C166.245 113.037 167.833 117.363 165.884 121.269C163.935 125.175 161.911 133.18 161.331 135.348L164.154 135.776C165.237 132.164 168.698 122.781 169.194 121.63C169.773 120.328 170.874 115.633 169.992 114.406C169.996 114.341 169.987 114.276 169.964 114.215C169.94 114.154 169.904 114.099 169.857 114.054V114.02ZM148.992 135.86L157.728 141.421L161.264 139.741L163.86 138.514L158.089 139.354L148.992 135.86ZM155.485 149.367C151.285 149.367 143.355 149.292 141.045 148.93C137.87 148.426 133.393 141.135 133.393 141.135C133.393 141.135 136.862 151.316 142.423 151.316H156.644C157.434 150.232 158.517 148.93 159.601 147.704L156.711 147.628C156.429 148.307 156.011 148.921 155.485 149.434V149.367Z" fill="#C2C5C7"/>
<path d="M142.566 62.0754C139.676 61.857 131.948 62.7222 126.035 64.7466C115.711 68.283 110.293 73.911 109.285 80.4798C108.502 84.0942 109.146 87.8711 111.083 91.0218C110.411 91.7743 109.79 92.5713 109.226 93.4074C108.366 94.6176 107.707 95.9594 107.277 97.3806L111.973 96.8682C109.275 102.529 108.199 108.827 108.865 115.063L113.829 111.274C113.829 111.274 113.183 117.843 119.533 127.301C119.95 121.907 121.079 116.591 122.893 111.493C121.667 112.786 117.912 116.835 117.912 116.835C117.032 112.429 117.007 107.895 117.836 103.479L112.065 108.166C112.735 104.067 114.102 100.112 116.106 96.4734C118.466 98.1784 121.284 99.1353 124.195 99.2202C129.899 99.2202 136.249 92.0718 136.392 87.0906C136.535 83.2602 133.502 81.7482 130.621 81.5298C130.013 81.4748 129.409 81.3766 128.815 81.2358C131.592 79.6794 134.729 78.8826 137.912 78.9258C136.311 78.019 134.531 77.4739 132.696 77.3288C130.862 77.1837 129.018 77.4421 127.295 78.0858C130.041 72.3822 140.441 66.3258 143.397 63.8646C144.078 63.159 143.666 62.1426 142.566 62.0754ZM123.725 75.7926C123.725 75.7926 119.819 82.0002 124.153 86.9814C124.138 85.7455 124.259 84.5116 124.514 83.3022C126.179 84.6856 128.271 85.4512 130.436 85.4694C132.309 85.6122 132.309 86.259 132.309 86.763C132.242 89.7282 127.547 94.9194 124.296 94.9194C121.557 94.9194 118.164 93.1218 115.896 90.375C114.602 88.7874 112.536 85.4694 113.519 81.2778V81.135C114.695 73.2642 125.673 68.4342 134.477 65.9142C128.849 69.7278 125.379 72.9786 123.725 75.7926Z" fill="#003058"/>
<path d="M197.652 81.0337C195.817 76.5164 193.363 72.2759 190.361 68.4337C188.337 65.9725 187.177 65.4013 185.951 66.0481C185.592 66.2598 185.3 66.5682 185.108 66.9382C184.917 67.3081 184.833 67.7245 184.867 68.1397C182.515 63.3446 179.284 59.0336 175.342 55.4305C171.919 52.3298 167.955 49.8841 163.649 48.2149L163.069 50.0881C158.231 47.6353 146.538 41.7889 126.319 42.5869C112.758 43.165 99.4621 46.5305 87.2592 52.4737C82.278 54.7165 71.0136 61.8565 71.0136 61.8565L80.1864 63.0157C70.9615 67.3465 62.0374 72.2912 53.4744 77.8165C46.83 81.8737 36.9852 88.8541 33.0372 91.8866C27.048 96.221 19.11 102.807 19.11 102.807L7.48434 112.609L13.1879 111.459C13.1879 111.459 22.5036 109.72 26.4684 108.997C30.4332 108.275 49.434 105.1 49.434 105.1C44.5452 107.561 34.9188 113.693 30.9456 116.314C26.9724 118.935 17.7324 125.268 11.3063 130.543C7.37176 133.649 3.70231 137.077 0.335938 140.791C4.30914 139.708 11.0207 137.431 15.3552 136.029C19.6896 134.626 24.738 133.063 37.59 130.039C50.442 127.015 66.7548 124.84 66.7548 124.84C60.8748 128.158 55.2048 131.988 52.9704 133.5C48.1992 136.751 43.2936 140.791 43.2936 140.791L31.3068 150.871C31.3068 150.871 45.1668 147.335 51.3072 145.831C57.4476 144.328 65.9652 142.799 71.0136 141.934C76.062 141.069 81.6312 140.422 88.8468 139.548C96.0624 138.675 106.319 138.112 106.319 138.112C101.842 140.85 95.928 141.211 95.928 141.211L83.4372 142.009C83.4372 142.009 88.3428 145.109 90.006 145.907C92.834 147.453 95.7772 148.779 98.8092 149.872L84.9492 154.861L88.9896 155.701C93.6118 156.674 98.2919 157.348 103.001 157.717C108.284 158.216 113.602 158.216 118.885 157.717L118.448 159.456C118.448 159.456 120.691 159.381 124.152 159.238C128.869 159.066 133.445 157.583 137.365 154.954C138.949 156.001 140.809 156.554 142.708 156.541H155.56C156.668 156.649 157.786 156.511 158.834 156.136C159.883 155.761 160.836 155.16 161.624 154.374C162.082 153.936 162.493 153.452 162.851 152.929L167.252 147.587C168.108 146.567 168.881 145.48 169.562 144.336C170.789 142.026 170.142 139.573 169.924 138.456C169.769 137.83 169.819 137.17 170.066 136.575C170.066 136.575 172.671 129.359 174.762 123.58C175.998 120.411 176.54 117.014 176.35 113.617C178.795 112.28 181.054 110.628 183.07 108.703C193.225 107.267 199.105 100.984 200.105 95.7926C200.97 91.0214 199.24 85.1077 197.652 81.0337ZM182.196 107.603C182.196 107.603 179.819 110.274 174.401 113.155C174.401 113.155 175.484 114.961 173.754 121.824C171.663 127.528 168.63 135.903 168.63 135.903C168.052 137.174 167.975 138.617 168.412 139.943C168.625 140.852 168.631 141.797 168.43 142.708C168.23 143.62 167.827 144.474 167.252 145.21C166.412 146.445 160.902 153.081 160.902 153.081C160.339 153.784 159.624 154.351 158.811 154.739C157.998 155.128 157.108 155.327 156.206 155.323H142.565C140.619 155.388 138.726 154.688 137.29 153.375C137.29 153.375 132.527 157.633 123.068 158.062L120.33 158.205L120.834 156.331C120.834 156.331 108.234 158.28 90.2916 154.819C90.2916 154.819 98.8092 151.787 99.9684 151.35C99.9684 151.35 102.488 150.342 103.144 149.981C103.144 149.981 97.2636 148.755 88.2756 143.555L94.8444 143.118C96.3743 143.071 97.896 142.877 99.3888 142.539C102.334 142.015 105.153 140.937 107.696 139.363C107.696 139.363 107.982 139.145 108.486 138.784C108.99 138.423 110.872 136.835 111.006 136.692C111.006 136.692 99.96 136.911 80.9676 139.296C66.2411 141.221 51.6697 144.188 37.3632 148.175C37.3632 148.175 54.1128 132.937 74.3232 122.832C63.1146 123.907 51.9812 125.657 40.9836 128.074C24.234 131.904 20.6976 132.912 5.03154 138.255C5.03154 138.255 12.3899 131.761 12.9695 131.325C13.5491 130.888 19.7568 126.058 25.0236 122.446C30.2904 118.834 45.024 108.754 58.2372 102.504C58.2372 102.504 34.1208 106.116 12.9695 110.232C12.9695 110.232 50.148 77.1613 85.7472 62.3521C85.8144 62.3521 75.4908 60.9829 75.4908 60.9829C75.4908 60.9829 96.5748 45.8629 124.009 44.2333C147.328 43.1497 157.87 49.3573 163.934 52.3141L164.581 50.2981C164.581 50.2981 174.905 53.9101 182.272 66.3925C189.639 78.8749 187.757 89.9126 187.757 89.9126C187.757 89.9126 190.789 85.2925 186.816 70.7857C185.136 64.4269 188.622 68.3329 189.924 70.1305C194.325 75.8738 197.294 82.5832 198.585 89.7025C200.533 100.774 191.226 106.234 182.196 107.561V107.603Z" fill="#BA1C21"/>
</g>
<defs>
<clipPath id="clip0_15016_302618">
<rect width="200" height="200" fill="white" transform="translate(0.335938 0.984375)"/>
</clipPath>
</defs>
</svg>
