<svg width="201" height="201" viewBox="0 0 201 201" fill="none" xmlns="http://www.w3.org/2000/svg">
<path d="M20.1927 26.5986V28.5211V69.007L80.4509 69.0075V28.5216V26.5989H78.5321H22.1155H20.1944L20.1927 26.5986ZM123.603 26.5986V28.5211V69.007L183.861 69.0075V28.5216V26.5989H181.937H125.522L123.603 26.5986ZM80.4509 117.48C60.2181 118.625 40.0621 121.396 20.1927 125.799L20.1944 139.953C20.121 141.641 20.1549 149.79 27.0375 157.804C35.8727 168.087 51.8185 173.646 74.4403 174.307H74.4686H74.4968H129.585H129.614H129.642H129.726C152.279 173.641 168.183 168.087 177.015 157.804C183.737 149.982 183.963 142.228 183.861 139.953V125.844C163.995 121.43 143.836 118.654 123.603 117.491V131.346C123.603 136.815 123.603 140.771 121.701 143.04C119.692 145.422 115.07 146.494 106.7 146.494H97.3539C88.9843 146.494 84.3564 145.422 82.3585 143.04C80.4509 140.771 80.4509 136.815 80.4509 131.346V117.48Z" fill="#00263A"/>
<path d="M23.8115 30.3003V69.0225H76.8384V30.3003H23.8115ZM127.216 30.3003V69.0225H180.245V30.3003H127.216ZM76.8401 117.699C59.0454 118.884 41.3207 121.334 23.8132 125.03V140.037C23.7681 140.844 23.5491 148.13 29.7578 155.366C37.8983 164.847 52.9473 169.977 74.4979 170.609H129.586H129.626C151.129 169.977 166.158 164.847 174.296 155.366C180.358 148.305 180.318 141.363 180.245 140.06V125.064C162.738 121.356 145.016 118.901 127.216 117.716V131.34C127.216 143.096 127.216 150.179 106.701 150.179H97.3551C76.8401 150.179 76.8401 143.096 76.8401 131.34V117.699Z" fill="#8A8D8F"/>
<path d="M175.409 107.395C175.399 105.656 175.391 103.921 175.383 102.181C182.265 103.015 189.134 103.963 195.979 105.029C195.976 100.651 195.973 96.271 195.969 91.8936C189.096 91.2685 182.214 90.7105 175.316 90.2209C175.31 88.7493 175.302 87.2749 175.295 85.8047C182.628 86.1877 189.954 86.6301 197.268 87.1331V86.5144C197.268 82.1094 197.264 77.7045 197.264 73.2982V73.1655C136.422 73.1867 72.0226 73.1895 11.1831 73.2276C6.31822 73.1895 2.21663 77.2855 2.21875 82.1715V97.5006C2.21875 100.109 4.42193 102.766 7.05403 103.811C5.48718 104.042 3.92034 104.279 2.35561 104.521V115.881C2.35702 119.853 6.33445 123.63 10.9997 122.503C19.1055 120.622 27.2565 119.006 35.4392 117.654C39.5408 116.93 45.8787 112.7 45.9062 108.625C45.938 104.164 45.9676 99.6982 45.9979 95.2354C45.962 92.175 43.1923 90.5242 39.8717 89.8174C41.7136 89.713 43.5591 89.6093 45.4039 89.5098C45.4138 87.9874 45.4244 86.4664 45.4357 84.9426C49.5175 84.7867 53.6001 84.6491 57.6868 84.5306C57.6198 94.575 57.5563 104.619 57.4921 114.665C63.3327 114.026 69.1831 113.522 75.0392 113.15C80.2265 112.837 85.4181 112.628 90.6089 112.522C91.6875 110.083 92.7641 107.654 93.8392 105.232C99.145 105.18 104.452 105.218 109.758 105.345C110.86 107.793 111.964 110.25 113.069 112.719C124.706 113.16 136.33 114.124 147.901 115.613C147.832 105.326 147.76 95.0392 147.691 84.7493C149.978 84.8311 155.823 84.9165 158.114 85.0075C158.184 95.5274 158.255 106.043 158.328 116.56C171.722 118.529 185.036 121.204 198.219 124.583V111.169C190.646 109.738 183.041 108.481 175.411 107.395M27.2628 107.424C24.8988 107.743 22.5376 108.077 20.1764 108.428C20.1835 106.854 20.1905 105.28 20.1976 103.707C22.5588 103.585 24.9221 103.471 27.2854 103.366C27.2784 104.719 27.2713 106.071 27.2628 107.424ZM27.5126 89.2015C24.5715 89.138 21.5852 89.0745 19.7052 89.0378C19.7108 87.7313 19.7165 86.4234 19.7235 85.119C22.3274 84.9835 24.9341 84.853 27.5394 84.7302C27.5302 86.2195 27.5232 87.7094 27.5126 89.2015ZM130.215 84.2442C130.26 92.6033 130.306 100.959 130.353 109.317C126.109 100.65 121.875 92.259 117.661 84.0177C121.845 84.0728 126.03 84.1503 130.215 84.2442ZM105.315 94.7091C103.012 94.6837 100.709 94.6745 98.4078 94.6745C99.6008 92.0424 100.794 89.4138 101.984 86.7831C103.091 89.4202 104.202 92.0594 105.315 94.7091ZM87.6537 83.9782C83.4759 92.0728 79.2776 100.259 75.0653 108.66C75.0999 100.485 75.1345 92.3041 75.1711 84.1292C79.332 84.0593 83.4928 84.01 87.6537 83.9782Z" fill="#8A8D8F"/>
<path d="M26.1461 32.7124V69.0197H74.496V32.7124H26.1461ZM129.551 32.7124V69.0197H177.901V32.7124H129.551ZM94.6837 74.7972C88.4699 86.8099 82.2054 98.8875 75.9126 111.439C80.2922 111.191 84.6773 111.022 89.0625 110.92C90.1405 108.476 91.2184 106.044 92.2908 103.617C98.623 103.538 104.955 103.583 111.282 103.741C112.382 106.196 113.489 108.657 114.595 111.134C119.55 111.332 124.5 111.62 129.443 112.004C123.139 99.1358 116.858 86.8776 110.622 74.8023C105.311 74.7966 99.9945 74.7927 94.6837 74.7972ZM113.048 74.8068C114.307 77.312 115.571 79.8269 116.835 82.3553C121.999 82.4134 127.169 82.4924 132.339 82.5997C132.395 92.4819 132.452 102.37 132.508 112.252C136.927 112.619 141.335 113.07 145.743 113.589C145.675 103.369 145.607 93.1478 145.534 82.9214C149.247 83.0286 156.517 83.1471 160.224 83.2769C160.298 93.8759 160.371 104.464 160.439 115.062C172.409 116.812 184.306 119.103 196.107 121.937C196.102 118.917 196.102 115.903 196.102 112.89C188.528 111.411 180.92 110.119 173.284 109.001C173.273 106.01 173.25 103.019 173.239 100.022C180.13 100.772 187.004 101.642 193.855 102.612C193.855 99.672 193.85 96.7316 193.85 93.7912C186.976 93.1083 180.09 92.5044 173.194 91.9739C173.177 89.248 173.16 86.5164 173.149 83.7849C180.485 84.1009 187.822 84.4677 195.142 84.8854V84.2702C195.142 81.3129 195.137 78.355 195.137 75.3932V75.269C168.972 75.0015 139.235 74.8469 113.048 74.8068ZM92.3133 74.8457C76.7084 74.857 61.1035 74.9084 45.5053 75.0009C45.4867 77.7195 45.468 80.4392 45.4494 83.1584C50.2393 83.006 55.0308 82.8706 59.8223 82.7577C59.7602 92.7471 59.6982 102.742 59.6361 112.732C64.0495 112.303 68.4742 111.953 72.8989 111.671C72.944 101.946 72.9892 92.2222 73.0343 82.4981C78.204 82.4213 83.3736 82.3649 88.5433 82.3333C89.8019 79.8325 91.0548 77.3374 92.3133 74.8457ZM36.7355 75.0286C28.2134 75.0833 19.6925 75.1567 11.1744 75.2391C7.44956 75.251 4.30826 78.4402 4.30826 82.0821C4.30555 87.1372 4.3016 92.194 4.29736 97.2508C4.29595 99.6212 7.54155 102.432 10.0811 102.251C10.4152 102.183 29.3685 101.354 29.3798 101.405C29.3652 103.532 29.3556 105.66 29.3415 107.788C29.3375 108.482 28.4582 109.125 27.9678 109.199C25.1679 109.605 22.3714 110.034 19.5784 110.491C18.7611 110.626 18.0766 110.085 18.0782 109.407C18.0839 107.68 18.0912 105.959 18.0991 104.232C13.5345 104.859 8.97997 105.541 4.4362 106.281C4.43185 109.334 4.4305 112.387 4.42835 115.446C4.42835 118.285 7.54308 121.282 11.0016 120.486C19.1105 118.686 27.2624 117.139 35.448 115.841C38.6853 115.294 43.7776 111.738 43.7991 108.866C43.8301 104.384 43.8595 99.8977 43.8905 95.411C43.8566 91.9683 38.6159 91.2797 36.0587 91.2459C34.6218 91.1612 17.5935 90.9468 17.5975 90.958C17.6076 88.8416 17.6138 86.7252 17.6229 84.6088C17.6245 84.1009 18.1793 83.2487 19.0016 83.2092C21.9697 83.0794 24.9417 82.9552 27.912 82.8367C28.7659 82.8085 29.6389 83.4349 29.6344 84.1009C29.6254 85.6021 29.6175 87.109 29.609 88.6102C34.1731 88.3281 38.7366 88.0797 43.3075 87.854C43.3256 85.4272 43.3408 83.0004 43.3572 80.5685C43.3752 77.8273 40.6308 75.0156 36.7355 75.0286ZM101.943 81.8316H102.141C104.167 86.6632 106.204 91.5055 108.247 96.376C103.964 96.3139 99.6745 96.2914 95.3909 96.3083C97.5806 91.4773 99.7648 86.6519 101.943 81.8316ZM74.4977 117.856C58.2833 119.03 42.1292 121.237 26.1478 124.499V140.126C26.1478 140.126 23.9535 166.703 74.4977 168.198H129.552C180.103 166.703 177.902 140.126 177.902 140.126V124.606C161.925 121.321 145.773 119.086 129.552 117.901V131.345C129.552 143.202 129.552 152.599 106.701 152.599H97.3549C74.4977 152.599 74.4977 143.202 74.4977 131.345V117.856Z" fill="#00263A"/>
</svg>
