<svg width="201" height="201" viewBox="0 0 201 201" fill="none" xmlns="http://www.w3.org/2000/svg">
<g clip-path="url(#clip0_15016_302114)">
<path d="M112.999 27.2783L110.159 27.3336L92.9016 27.6779C92.9016 27.6779 91.691 31.5571 91.1828 33.1734C88.728 33.1685 79.6862 33.1558 79.6862 33.1558C79.6862 33.1558 78.9657 35.1424 78.8049 35.5781C78.1886 35.6071 77.5634 35.6385 77.5634 35.6385C40.3898 36.4666 15.6147 57.5021 14.5777 58.4001L9.20997 63.0355C9.20997 63.0355 64.3232 58.0463 70.5823 57.4802C70.3468 58.4979 69.4437 62.4527 69.4437 62.4527C69.4437 62.4527 81.1925 62.2417 85.0328 62.1684C83.8337 67.5462 60.0506 173.963 60.0506 173.963L85.4304 165.999C85.4304 165.999 105.416 65.2613 106.105 61.7799C108.726 61.7323 117.773 61.5637 117.773 61.5637C117.773 61.5637 118.904 57.5343 119.379 55.8347C122.743 55.9093 198.682 57.56 198.682 57.56L184.156 49.9925L184.092 49.9616C175.858 46.2345 154.373 36.548 125.19 35.0788C125.428 34.2245 125.759 33.0356 125.759 33.0356C125.759 33.0356 115.38 33.0661 111.839 33.0758C112.14 31.5722 112.999 27.2783 112.999 27.2783ZM198.515 61.0335C198.412 61.0335 187.656 60.9949 179.126 61.2741C179.139 61.2741 157.744 61.8273 157.744 61.8273L155.878 61.8775L152.083 83.3822C152.083 83.3822 156.65 83.2999 158.387 83.2664C157.538 88.1386 149.51 133.771 149.51 133.771L169.786 128.14C169.786 128.14 173.362 110.329 173.838 107.967C191.619 103.038 200.29 81.6672 200.792 63.3725L200.856 61.04L198.515 61.0335ZM153.524 62.5285L150.681 62.6482L107.777 64.4725L103.311 87.6433C103.311 87.6433 107.81 87.229 109.29 87.09C108.32 91.8889 103.511 115.702 102.973 118.373C101.24 118.593 96.9414 119.139 96.9414 119.139L91.1944 148.908L147.426 134.465L151.44 112.191C151.44 112.191 131.241 114.764 126.479 115.372C126.852 113.387 127.071 112.211 127.312 110.945C129.684 110.557 139.192 109.01 139.192 109.01L143.334 86.1908C143.334 86.1908 135.023 87.202 131.678 87.606C131.858 86.6398 131.91 86.4005 132.051 85.6504C134.895 85.4613 149.574 84.4526 149.574 84.4526L153.524 62.5285ZM79.91 65.6999L76.9394 65.8054L53.631 66.621L41.4319 118.86C38.707 130.676 35.5613 136.885 32.0812 137.32C31.8625 137.349 31.2051 137.424 30.7548 134.689C30.3392 132.167 31.9539 125.549 32.5611 123.059L46.1805 66.8655L7.03081 68.3206L0.85498 91.5891C0.85498 91.5891 9.22836 91.2006 12.5848 91.0462C11.2628 96.0599 4.19448 122.91 4.19448 122.91C2.9352 127.97 1.68674 133.99 1.68674 139.864C1.68674 142.763 1.99036 145.622 2.74454 148.317C4.44922 154.405 10.5587 168.238 30.3835 165.266C46.284 162.899 58.2669 158.164 67.6909 118.689C67.6973 118.671 79.91 65.6999 79.91 65.6999Z" fill="#B1B3B3"/>
<path d="M182.124 81.4466C180.998 81.5544 179.71 81.6589 178.388 81.7441C178.119 83.3073 177.778 85.2855 177.269 88.2478C178.935 86.9661 180.828 84.8721 182.124 81.4466Z" fill="white"/>
<path d="M110.21 29.6123L104.428 34.0449L97.0727 34.1931L95.3385 39.7263L83.7672 39.7031L82.9155 42.0511L80.1533 42.181C43.1779 43.3325 16.0677 60.1207 16.0677 60.1207L73.9251 54.8831L79.393 48.8672L78.2968 54.335L72.3169 60.1207L87.8906 59.8312L95.0516 53.217L70.9519 163.796L63.1374 170.602L83.4585 164.221L104.226 59.5301L116.036 59.314L117.663 53.5142L188.968 55.0671C188.968 55.0671 162.787 43.1511 124.705 41.4798L125.233 39.5925L103.882 39.9746L109.056 35.3591L110.21 29.6123ZM198.373 66.0345C194.552 66.0461 188.197 66.0899 182.716 66.2738L161.578 66.8284L159.108 80.9714L161.115 80.9328L165.772 77.6032L157.757 124.396L152.379 130.601L167.83 126.312L171.87 106.157C188.119 102.609 197.099 84.0012 198.373 66.0345ZM150.243 67.8872L114.094 69.4426L112.169 79.5588L106.124 85.0896L112.134 84.539L118.042 80.4735L109.363 123.196L103.414 123.963L100.55 138.978L94.115 145.801L145.444 132.614L148.043 118.203L120.233 121.819L123.661 118.027L125.361 108.944L137.236 107.014L139.925 92.1682L125.042 93.6735L128.861 90.2436L130.135 83.4943L147.644 82.2953L150.243 67.8872ZM77.0206 68.0776L72.9113 71.1409L60.509 71.5757C60.509 71.5757 54.1843 98.7824 48.8695 122.113C44.723 140.329 34.2067 139.078 34.1746 139.075C33.4991 139.386 32.8893 139.508 32.3631 139.579C30.2043 139.847 29.0284 138.231 28.5086 135.052C27.9901 131.914 29.7656 124.905 30.4577 122.05L43.2538 69.2561L38.4768 72.4171L14.3565 73.2765L11.7204 83.3502L3.85791 89.1629L15.5801 88.6174L22.4399 84.7873L12.0547 126.234C10.5638 132.293 8.38348 142.382 10.6173 150.44C11.8428 154.854 14.2279 159.383 18.3461 162.432C21.5599 163.41 25.4106 163.706 30.0486 163.011C43.9125 160.939 56.0343 157.697 65.4738 118.155L77.0206 68.0776ZM190.113 74.1437C187.129 92.7395 178.56 96.1321 169.619 97.0649L174.25 92.3484L176.437 79.5806L177.454 79.5266C181.275 79.3079 185.263 78.8396 185.263 78.8396L190.113 74.1437Z" fill="#041E42"/>
<path d="M110.21 29.6124L94.5903 29.9215L92.856 35.4522L81.2822 35.432L80.4305 37.7791L77.6747 37.9072C46.9082 37.7367 16.0683 60.1182 16.0683 60.1182C16.0683 60.1182 43.1785 43.33 80.1539 42.1786L82.9161 42.0486L83.7678 39.7032L95.3391 39.7238L97.0733 34.1906L104.429 34.0424L110.21 29.6124ZM122.752 35.3191L109.056 35.3568L103.883 39.9723L125.233 39.5901L124.706 41.4775C162.788 43.1487 188.969 55.0648 188.969 55.0648L183.154 52.0362C173.762 47.7842 151.968 38.1196 122.224 37.2062L122.752 35.3191ZM79.3936 48.8651L73.9257 54.8785L72.9608 57.2908L72.2867 58.98L72.3176 60.1186L78.2974 54.333L79.3936 48.8651ZM95.0522 53.215L87.8912 59.8291L63.138 170.6L70.9499 163.794L95.0522 53.215ZM198.515 63.3092C198.515 63.3092 187.785 63.2655 179.204 63.5485L157.796 64.103L154.811 81.0469L159.108 80.9697L161.578 66.8267L182.716 66.2722C188.197 66.0882 194.553 66.0432 198.374 66.0329V65.9634C198.438 65.0757 198.49 64.1905 198.515 63.3092ZM150.784 64.9252L109.678 66.6684L106.124 85.0854L112.17 79.5597L114.097 69.4409L150.244 67.8855L150.784 64.9252ZM77.0212 68.0785L55.456 68.8298C55.456 68.8298 49.0426 96.0378 43.6584 119.367C43.4731 120.17 43.2853 120.922 43.1013 121.663C43.0562 121.843 43.0112 122.018 42.9675 122.195C42.7874 122.891 42.6098 123.562 42.4297 124.202C42.3911 124.343 42.3538 124.471 42.3165 124.602C42.1595 125.145 42.0051 125.671 41.8495 126.179C41.807 126.314 41.7607 126.46 41.7182 126.601C41.542 127.158 41.3657 127.697 41.1907 128.209C41.1393 128.355 41.0917 128.495 41.0402 128.639C40.8833 129.092 40.7224 129.534 40.5629 129.951C40.5359 130.017 40.5076 130.094 40.4819 130.16C40.3043 130.622 40.1255 131.055 39.9467 131.469C39.8991 131.586 39.8502 131.698 39.7987 131.813C39.625 132.217 39.4488 132.598 39.2738 132.967C39.2429 133.022 39.2133 133.081 39.1837 133.142C39.0242 133.467 38.866 133.77 38.709 134.064C38.6704 134.139 38.6318 134.212 38.5932 134.283C38.4157 134.598 38.242 134.898 38.0683 135.177C38.0361 135.231 37.9988 135.283 37.9641 135.338C37.7968 135.601 37.6283 135.85 37.4675 136.082C37.452 136.1 37.4353 136.124 37.4224 136.15C37.2423 136.396 37.0648 136.625 36.8911 136.843C36.8615 136.869 36.8358 136.904 36.8088 136.939C36.446 137.363 36.0922 137.734 35.7461 138.032C35.7345 138.04 35.7242 138.053 35.7126 138.063C35.1736 138.526 34.6602 138.852 34.1752 139.075C34.2086 139.078 44.7249 140.327 48.8727 122.111C54.1862 98.7833 60.5096 71.5766 60.5096 71.5766L72.9119 71.1392L77.0212 68.0785ZM43.257 69.2544L8.80313 70.5307L3.85596 89.1638L11.7185 83.3486L14.3572 73.2749L38.4774 72.4155L43.257 69.2544ZM190.117 74.1446L185.266 78.8379C182.539 89.1856 176.261 90.7938 174.254 92.3467L169.622 97.0606C178.563 96.1304 187.132 92.7404 190.117 74.1446ZM165.775 77.6015L161.118 80.9337L152.382 130.6L157.76 124.395L165.775 77.6015ZM118.045 80.4718L112.138 84.5373L104.888 120.423L98.8694 121.191L94.1181 145.799L100.553 138.976L103.417 123.961L109.366 123.194L118.045 80.4718ZM22.4431 84.7856L15.5833 88.6183L6.40153 123.481C4.89626 129.543 2.68623 139.636 4.94412 147.694C5.07754 148.173 5.23051 148.646 5.39133 149.123C5.43957 149.269 5.4882 149.406 5.53967 149.548C5.67154 149.92 5.81627 150.288 5.96423 150.661C6.01569 150.781 6.06265 150.908 6.11257 151.026C6.30555 151.478 6.51564 151.928 6.74079 152.38C6.81155 152.52 6.89042 152.665 6.96439 152.8C7.13319 153.125 7.31047 153.445 7.49702 153.763C7.59197 153.924 7.6864 154.084 7.78611 154.248C8.03532 154.647 8.29687 155.045 8.57502 155.431C8.67319 155.573 8.77869 155.702 8.88161 155.83C9.10676 156.139 9.33988 156.422 9.58265 156.718C9.72417 156.885 9.8711 157.04 10.0174 157.207C10.2474 157.464 10.4866 157.709 10.731 157.94C10.8725 158.082 11.0087 158.236 11.1582 158.365C11.5152 158.699 11.8932 159.008 12.2839 159.317C12.4659 159.458 12.6576 159.6 12.8468 159.728C13.1144 159.921 13.3858 160.114 13.6663 160.295C13.867 160.423 14.0677 160.552 14.2761 160.681C14.7225 160.938 15.1831 161.182 15.663 161.414C15.856 161.504 16.0631 161.594 16.2587 161.671C16.6099 161.826 16.9676 161.967 17.3317 162.096C17.5735 162.186 17.8154 162.263 18.0637 162.353C18.1744 162.392 18.276 162.43 18.3879 162.456C18.3751 162.456 18.3622 162.443 18.3493 162.43C14.2311 159.381 11.8475 154.852 10.6205 150.438C8.38835 142.379 10.5661 132.29 12.0553 126.232L22.4431 84.7856ZM140.533 88.8267L128.864 90.2445L125.046 93.6718L139.928 92.1691L140.533 88.8267ZM148.651 114.837L123.664 118.025L120.236 121.818L148.046 118.201L148.651 114.837Z" fill="#FF8200"/>
</g>
<defs>
<clipPath id="clip0_15016_302114">
<rect width="200" height="200" fill="white" transform="translate(0.855469 0.621094)"/>
</clipPath>
</defs>
</svg>
