<svg width="201" height="201" viewBox="0 0 201 201" fill="none" xmlns="http://www.w3.org/2000/svg">
<g clip-path="url(#clip0_15016_302105)">
<path d="M32.8357 107.886C32.5027 107.592 32.235 107.226 32.0522 106.815C31.8693 106.404 31.7714 105.96 31.7779 105.516C31.804 104.843 32.0195 104.19 32.3982 103.635C32.7835 103.08 33.3124 102.649 33.9327 102.388C26.1495 98.7314 12.9794 95.7409 0.46875 94.2652C19.5154 86.7367 35.7544 87.0566 35.7544 87.0566C26.8742 83.818 5.31367 82.8842 5.31367 82.8842C19.5285 78.3658 32.8161 74.7419 43.6486 75.212C34.8729 72.1105 20.1553 69.4203 20.1553 69.4203C20.1553 69.4203 47.0701 61.6828 62.408 64.0008L40.3708 54.9704C102.526 50.2691 122.499 67.0697 135.226 86.815L135.82 87.7422L143.192 84.3468L142.062 92.9854L143.322 93.1421C163.165 95.7213 190.465 101.422 200.469 127.638C167.547 121.128 129.799 131.366 97.204 147.07C73.6062 128.963 50.0868 120.769 14.8468 114.422L32.8422 107.879L32.8357 107.886Z" fill="white"/>
<path fill-rule="evenodd" clip-rule="evenodd" d="M35.4802 104.583H36.1985V103.839H33.8936V104.583H34.6118V107.208H35.4802V104.583Z" fill="#0A2240"/>
<path fill-rule="evenodd" clip-rule="evenodd" d="M36.4004 107.208H37.2688L37.5561 105.269H37.5626L38.3266 107.208H38.6727L39.4823 105.269H39.4889L39.737 107.208H40.6054L40.0961 103.839H39.2277L38.5094 105.634L37.8369 103.839H36.975L36.4069 107.208H36.4004Z" fill="#0A2240"/>
<path d="M25.7837 113.605L45.2418 107.212C37.1909 95.6094 14.9316 93.5134 14.9316 93.5134C33.0577 87.8784 50.8507 91.894 50.8507 91.894C42.3753 82.7592 24.4713 81.1595 24.4713 81.1595C49.6427 74.0292 65.7838 84.2479 65.7838 84.2479C59.3913 74.6691 35.8131 69.4063 35.8131 69.4063C66.835 62.0148 82.7736 74.3687 82.7736 74.3687C76.3094 65.4037 57.2562 57.9796 57.2562 57.9796C111.131 55.6812 129.094 81.5708 134.226 92.2989L138.81 90.1833L137.929 96.1317C158.497 98.835 183.636 103.079 193.789 123.158C164.073 118.639 129.042 128.473 97.6022 143.027C88.722 136.432 61.7877 118.189 25.7642 113.624" fill="#0A2240"/>
<path d="M123.061 103.89C119.77 106.75 113.782 109.91 107.906 105.764C103.146 102.44 105.294 96.7332 108.428 94.9702L113.482 98.0587C112.966 98.5092 112.535 99.0512 112.209 99.6519C110.974 102.035 112.124 104.543 114.788 105.241C116.002 105.522 117.269 105.457 118.438 105.039C119.613 104.621 120.638 103.877 121.409 102.891L123.054 103.89H123.061Z" fill="white"/>
<path d="M88.6768 82.5704C88.6768 82.5704 108.337 80.2329 120.678 89.3416L123.486 83.6347L127.227 101.33C127.227 101.33 118.608 88.2577 88.7029 82.5182" fill="#E04403"/>
<path d="M113.895 116.021C117.133 113.357 125.667 107.297 141.58 101.91C159.621 104.346 175.253 108.44 183.558 117.248C183.558 117.248 141.821 112.495 113.895 116.021Z" fill="white"/>
<path d="M141.037 104.642C139.137 105.145 133.175 108.083 132.059 108.703C132.059 108.703 143.753 106.633 153.88 107.195C149.839 105.406 145.457 104.531 141.037 104.635" fill="#0A2240"/>
<path d="M113.691 119.737H150.903C141.925 121.075 134.122 123.106 125.144 125.652C120.926 124.588 117.008 122.57 113.685 119.75" fill="white"/>
<path d="M98.6204 98.4248C96.4983 106.43 102.512 110.465 110.596 111.393C106.384 113.56 96.8183 114.677 90.6609 109.884C87.592 107.507 87.2982 102.852 87.8467 101.814C82.832 101.872 69.8904 102.858 53.9648 112.15C64.1313 98.1637 86.2861 89.0811 102.891 92.9466C100.743 94.6442 99.0514 96.6619 98.5878 98.4118" fill="#E04403"/>
<path d="M90.5573 131.025L105.229 122.191L100.273 119.331L90.5508 131.025H90.5573Z" fill="#E04403"/>
<path d="M95.9893 136.251L116.29 129.153L107.951 124.119L95.9893 136.251Z" fill="#E04403"/>
</g>
<defs>
<clipPath id="clip0_15016_302105">
<rect width="200" height="200" fill="white" transform="translate(0.46875 0.621094)"/>
</clipPath>
</defs>
</svg>
