<svg width="201" height="201" viewBox="0 0 201 201" fill="none" xmlns="http://www.w3.org/2000/svg">
<path d="M87.2482 17.748C84.2889 17.748 81.6159 19.5824 80.5403 22.3241C79.5991 22.5164 75.4657 23.7205 74.3262 29.856L74.2224 30.4085L75.6188 29.8454C75.1968 31.6126 74.3601 36.9633 77.3347 43.7139C76.9001 45.0857 76.7916 46.7244 76.8109 47.8679C76.0315 48.5382 75.045 49.6823 75.045 49.6823L75.9283 54.0567L74.7435 55.9157L77.3227 64.709L78.3498 65.5037L78.9062 67.8759C78.9062 67.8759 78.206 67.4326 77.6143 67.4227C75.4491 67.388 73.2539 71.8569 73.2539 71.8569L82.398 77.5092L90.1216 79.506L94.3881 80.4631L94.3442 115.777L86.1619 128.111L141.992 131.894L144.931 132.362C144.931 132.362 147.071 122.873 144.768 114.217C150.07 104.935 142.977 93.3738 141.344 89.2997C139.091 83.6574 136.482 78.5282 134.228 74.948C132.093 71.5501 130.323 69.3662 130.323 69.3662C130.323 69.3662 125.444 68.0337 123.506 67.595C123.496 67.4965 122.901 65.2135 120.222 64.4195C118.689 63.9655 117.613 64.1226 116.686 64.4035C115.029 64.0634 113.731 64.058 112.78 64.3542C112.459 64.4527 111.962 64.5672 111.666 64.7303C111.138 64.6211 109.534 64.0787 108.78 64.0787C108.774 64.0787 107.459 64.1233 105.876 64.7742C105.876 64.7742 105.667 64.5226 105.549 64.1233C105.431 63.7232 105.426 63.3638 105.426 63.3638C106.452 58.8264 106.965 53.6374 106.965 53.6374L105.494 52.9664L105.381 47.2063L105.307 47.0878C105.283 47.0486 105.604 46.7277 105.096 46.17C104.893 45.1696 104.691 44.4054 104.183 42.985C102.925 39.4833 99.8434 35.2567 94.8181 33.7225L94.0766 33.0722C95.5143 29.9153 95.5989 25.2507 95.5989 25.047L95.6082 24.2091L94.5985 25.3725C94.5339 24.0506 94.08 22.6003 93.5867 21.7323C92.1424 19.2031 89.8327 17.7487 87.2402 17.7487L87.2482 17.748Z" fill="white"/>
<path d="M87.2476 18.3652C84.486 18.3652 81.9999 20.1111 81.0581 22.701L80.9935 22.884L80.8012 22.9033C80.6181 22.9279 76.3922 23.4944 75.0457 29.4122L76.5853 28.7966L76.3716 29.4282C76.3523 29.4921 74.434 35.3068 77.8918 43.1982C79.06 40.3674 80.929 38.0444 83.4543 36.2939C83.4496 36.2739 82.8925 33.2907 84.1552 31.6826C84.4607 31.3026 84.8647 31.0902 85.2987 31.0902C86.1866 31.0902 87.0299 31.9182 87.8093 33.5563L87.9964 33.2115L88.6866 32.9539C87.9917 29.763 86.8382 28.0764 85.3339 28.0764C83.7312 28.0764 82.0885 29.7337 82.0738 29.7484L81.309 30.5817L81.95 29.4921C82.0286 29.369 83.6413 26.5388 85.8658 26.5388C86.2951 26.5388 86.7097 26.6467 87.1044 26.8583C89.1958 27.9925 90.2215 31.0956 90.5469 32.269L90.7786 32.1845L93.5501 32.7529C94.5465 30.5092 94.8527 27.4061 94.9413 25.9125L93.8463 27.1692L93.9595 26.1881C94.1073 24.8562 93.614 23.0364 93.0469 22.0394C91.7257 19.7071 89.6151 18.3659 87.2476 18.3659V18.3652ZM99.5645 127.657C84.8367 127.579 67.752 128.189 50.3698 130.298C40.879 131.513 31.3149 133.117 21.918 135.065V149.763C22.8804 149.567 23.8469 149.369 24.808 149.179C27.1962 160.056 29.5897 170.954 31.9919 181.881C32.113 182.447 32.2375 183.01 32.3673 183.582C46.9779 180.258 70.5449 178.035 97.3767 177.852C98.3851 177.842 99.3881 177.84 100.395 177.84H101.517C102.761 177.84 103.997 177.846 105.224 177.852C105.846 177.858 106.461 177.869 107.079 177.875C107.877 177.884 108.677 177.89 109.467 177.902C118.809 178.055 127.689 178.455 135.874 179.059V164.532C135.036 164.461 134.202 164.393 133.367 164.325V163.015C136.616 163.274 139.861 163.573 143.098 163.915C144.118 163.174 145.139 162.433 146.162 161.698V173.925C147.846 175.522 149.527 177.141 151.213 178.764C151.917 179.438 152.62 180.105 153.324 180.786C160.609 181.721 166.908 182.844 171.947 184.116C172.003 184.126 172.066 184.136 172.123 184.149C172.788 183.718 173.45 183.307 174.114 182.883C175.988 181.683 177.863 180.485 179.731 179.314V141.477C177.2 138.835 174.666 136.217 172.129 133.622C166.024 132.489 159.902 131.512 153.759 130.683C152.558 131.528 151.36 132.387 150.16 133.246L148.56 134.356L144.165 130.075C144.165 130.075 132.867 128.692 115.61 128.015V142.215C116.439 142.241 117.265 142.269 118.094 142.301V163.423C114.084 163.269 107.258 163.129 103.245 163.101V141.982C104.07 141.985 104.897 141.99 105.727 142.005V127.73C103.725 127.693 101.668 127.669 99.5645 127.657ZM87.2728 129.223H103.894V140.159C103.064 140.153 102.24 140.149 101.41 140.145V164.92C105.363 164.926 110.92 165.027 115.655 165.172V176.3C110.876 176.168 105.992 176.094 101.044 176.094C96.3756 176.094 91.771 176.158 87.2522 176.277V165.157C88.2919 165.137 89.2277 165.17 89.7535 165.157V140.311C88.9269 140.338 88.0989 140.362 87.2728 140.392V129.225V129.223ZM117.447 129.402C125.786 129.707 134.121 130.292 142.436 131.157C144.445 133.033 146.455 134.926 148.463 136.834C150.451 135.404 152.435 133.994 154.421 132.596C160.123 133.377 165.807 134.287 171.476 135.328C173.63 137.522 175.776 139.733 177.923 141.966V178.085C175.778 179.438 173.629 180.809 171.477 182.199C168.537 181.489 165.045 180.786 160.89 180.111C158.71 179.759 156.421 179.431 154.058 179.122C152.033 177.159 150.011 175.213 147.986 173.282V158.01C146.139 159.334 144.288 160.67 142.436 162.022C138.805 161.647 135.174 161.321 131.538 161.051V166.007C132.374 166.071 133.209 166.138 134.045 166.208V177.173C131.087 176.972 128.057 176.797 124.971 176.652C122.502 176.532 119.997 176.432 117.459 176.352V165.233C118.327 165.263 119.16 165.294 119.924 165.327V140.554C119.099 140.518 118.272 140.481 117.447 140.452V129.402ZM85.4384 129.455V142.288C86.2651 142.253 87.0945 142.221 87.9178 142.191V163.332H84.2384C82.3467 154.559 77.0978 129.878 77.0978 129.878L85.4371 129.46L85.4384 129.455ZM75.093 130.075C75.093 130.075 80.7832 156.184 82.7148 165.156C83.2706 165.131 84.3349 165.175 85.4491 165.156V176.328C79.7169 176.498 74.1392 176.764 68.7924 177.123V166.033C68.8756 166.027 70.6607 165.899 70.911 165.879C70.893 165.783 70.7639 165.159 70.7226 164.945C68.8483 165.084 66.9353 165.242 64.9286 165.425L64.7375 166.377C64.9146 166.357 66.8754 166.19 66.8754 166.19H66.9027V177.263C61.0674 177.679 55.5169 178.202 50.3538 178.831V169.326C49.6816 172.58 49.0073 175.834 48.3364 179.086C45.8597 179.406 43.4689 179.752 41.1945 180.116C38.4562 180.561 36.0194 181.017 33.8263 181.483C31.305 169.986 28.7843 158.514 26.2703 147.069C25.4177 147.234 24.5717 147.402 23.7231 147.571V136.525C29.1797 135.413 34.6536 134.435 40.1468 133.576V144.629C39.4313 144.739 38.7145 144.854 37.9983 144.971C38.1207 145.545 38.2432 146.116 38.3697 146.691C38.9541 149.296 39.5338 151.902 40.1149 154.51C40.4317 155.965 40.7445 157.422 41.0634 158.873C41.3829 157.324 41.7037 155.776 42.0232 154.224C42.5969 151.436 43.168 148.646 43.7431 145.857C43.8656 145.251 43.9907 144.639 44.1118 144.031C43.4169 144.13 42.7154 144.235 42.0192 144.342V133.29C62.1563 130.131 75.0903 130.071 75.0903 130.071L75.093 130.075ZM131.538 141.238V150.002C133.49 150.145 135.438 150.305 137.389 150.483V141.717C135.438 141.54 133.49 141.383 131.538 141.238ZM58.1354 142.237L55.9895 142.536L50.7479 167.894L52.8445 167.594L58.1354 142.237ZM133.368 143.203C134.101 143.257 134.831 143.322 135.562 143.386V148.495C134.831 148.435 134.101 148.373 133.368 148.318V143.203ZM159.537 144.384V169.158C161.832 169.499 164.125 169.868 166.416 170.258V145.483C164.125 145.097 161.832 144.728 159.537 144.384ZM41.8787 146.193C41.6112 147.506 41.3403 148.821 41.0687 150.135C40.7945 148.905 40.5202 147.673 40.246 146.443C40.7925 146.359 41.3363 146.273 41.8787 146.193ZM161.361 146.489C162.444 146.656 163.523 146.83 164.603 147.008V168.132C163.523 167.949 162.444 167.78 161.361 167.609V146.489ZM67.7906 150.691L66.8182 155.463L68.8656 155.319L67.7906 150.691Z" fill="#FFCC00"/>
<path d="M91.0318 32.9573L88.4579 33.8412L87.974 34.598C82.6186 36.9735 78.7295 41.1515 77.8156 45.5039C77.5507 46.4996 77.4315 47.5553 77.4508 48.7227C76.6768 49.385 76.2488 49.8237 76.2301 49.843L76.0438 50.034L76.937 54.0902L75.8933 55.9079L75.9453 56.1056C76.6555 58.76 77.2745 60.8813 77.773 62.5846C77.9274 63.1137 78.0732 63.6083 78.207 64.0742L78.2602 64.2592L79.23 64.8583C79.3525 65.5958 80.0534 69.5215 80.0534 69.5215C79.2446 68.997 78.589 68.2708 78.0066 68.2529C77.9907 68.2522 77.9753 68.2529 77.9587 68.2529C76.4132 68.2529 74.9648 70.3808 74.1421 71.8591C71.0631 69.8809 69.1068 68.1131 68.8379 67.8628L67.7996 66.8757L66.7546 67.8655C66.4218 68.1737 63.3634 70.9619 58.6283 73.5384C57.6638 74.0662 56.7506 74.5175 55.8421 74.9282C54.7644 75.4167 53.6342 75.8734 52.3869 76.3246C46.5549 78.4226 41.4311 79.1395 41.3798 79.1468L40.0992 79.2872V115.655L41.065 117.311C41.9143 118.743 42.7916 120.136 43.6795 121.454L43.7574 121.576C46.302 125.346 49.0902 128.795 52.0867 131.894C49.2306 132.239 46.0936 132.621 43.2741 133.035L41.9702 133.226V144.425L43.7214 144.164C43.8146 144.15 43.9078 144.136 44.001 144.122C43.8971 144.636 43.7933 145.149 43.6901 145.663L43.4106 147.016C42.9307 149.345 42.4495 151.677 41.9689 154.01L41.0251 158.577C41.0244 158.584 41.0244 158.589 41.0231 158.594C40.7475 157.33 40.4726 156.066 40.1971 154.802L40.1804 154.727C39.5973 152.111 39.0149 149.503 38.4305 146.894C38.2981 146.278 38.1656 145.662 38.0325 145.043C38.3327 144.994 38.6309 144.946 38.9298 144.898L40.2157 144.693V133.494L38.4485 133.777C33.9204 134.502 29.3584 135.318 24.8895 136.202L23.6602 136.445V147.663L25.4826 147.301C25.7501 147.247 26.0191 147.196 26.2873 147.143C28.6921 158.109 31.1029 169.092 33.5204 180.103L33.8412 181.564L35.3095 181.272C37.0747 180.918 39.0083 180.571 41.2201 180.208C43.2023 179.888 45.2656 179.586 47.3496 179.308L48.4239 179.166L48.6436 178.105C49.2765 175.036 49.7138 172.937 50.3036 170.081V178.93L52.0055 178.734C56.0071 178.27 60.2417 177.863 64.5921 177.525C64.7831 177.508 64.9595 177.49 65.1352 177.472C65.2816 177.457 65.4281 177.443 65.5758 177.43L66.9643 177.303V166.139L65.3056 166.284C65.1485 166.297 64.9914 166.311 64.835 166.325C64.8916 166.046 64.9475 165.766 65.0027 165.492C66.9523 165.318 68.834 165.163 70.7003 165.026C70.7329 165.182 70.7655 165.34 70.7981 165.499C70.8214 165.613 70.8461 165.727 70.8694 165.842C70.6317 165.86 70.3928 165.877 70.1545 165.895L68.7441 166.001V177.164L70.3821 177.045C74.9102 176.712 79.4856 176.456 83.9804 176.287L85.4481 176.231V165.107H82.7657C81.7007 160.195 80.5912 155.083 79.4883 150.011C78.599 145.917 77.7158 141.851 76.8651 137.917C77.1447 137.698 77.4182 137.487 77.7118 137.25C80.8754 134.666 83.6323 131.908 86.0138 129.186L87.2266 129.305V140.463L88.8007 140.414C89.1036 140.404 89.4064 140.395 89.7099 140.386V165.127H87.2266V176.289L88.802 176.238C92.7837 176.109 96.8325 176.044 100.836 176.044C105.221 176.044 109.679 176.122 114.083 176.277L115.662 176.331V165.173L114.191 165.12C111.383 165.02 108.443 164.951 105.451 164.913C104.13 164.896 102.79 164.886 101.462 164.883V140.222C101.779 140.222 102.096 140.222 102.413 140.224L103.945 140.23V130.937L116.516 132.165L117.401 132.252V140.516L118.858 140.58L119.683 140.616L119.88 140.625V165.285C119.582 165.272 119.283 165.261 118.986 165.25L117.401 165.188V176.347L118.865 176.406C122.058 176.536 125.432 176.725 129.483 177.004C130.497 177.063 131.484 177.127 132.47 177.192L134.097 177.3V166.164L132.687 166.057C132.322 166.029 131.956 166.001 131.59 165.973V161.131C135.047 161.391 138.457 161.693 141.746 162.033L142.33 162.094L142.804 161.747C144.054 160.833 145.519 159.791 146.936 158.782C147.284 158.534 147.599 158.309 147.933 158.071V173.441L148.405 173.891C150.145 175.553 151.912 177.265 153.562 178.869L153.923 179.221L154.425 179.287C156.673 179.584 158.843 179.9 160.876 180.229C164.532 180.825 167.818 181.461 170.643 182.117L171.273 182.263L171.818 181.912C173.485 180.832 175.273 179.684 177.285 178.401L177.991 177.952V141.769L177.565 141.327C175.94 139.64 174.184 137.836 172.039 135.651L171.7 135.307L171.224 135.22C165.88 134.246 160.477 133.381 155.163 132.65L154.571 132.569L154.079 132.912C152.387 134.098 150.589 135.374 148.581 136.81C148.185 136.433 147.79 136.058 147.367 135.655C146.172 134.519 145.001 133.413 143.877 132.358L144.155 131.196C145.547 124.514 144.074 115.628 143.73 114.285C147.414 105.593 145.112 100.399 139.598 87.954L139.333 87.3563C133.582 74.4064 129.489 70.3528 129.316 70.1864L129.237 70.1106L129.135 70.0746C127.477 69.4929 124.865 68.8779 122.945 68.4466C122.933 68.346 122.916 68.2462 122.892 68.1517C122.603 66.9709 121.487 65.7955 119.906 65.2696C118.814 64.9029 117.58 64.9295 116.661 65.2097C115.021 64.8703 113.714 64.8443 112.773 65.1345C112.456 65.235 112.156 65.3635 111.865 65.5246C111.342 65.4187 110.859 65.3016 110.39 65.1891C109.442 64.9595 109.422 64.8629 108.67 64.8629H108.659C107.46 64.8669 106.429 65.3342 105.431 65.7855L105.368 65.8141C104.911 65.2543 104.625 64.399 104.609 63.7913L104.585 63.6768C104.842 62.6818 105.033 61.8025 105.297 60.3814C105.975 56.6534 106.116 54.4849 106.121 54.395L106.142 54.0689L105.454 53.7188C105.202 53.589 104.977 53.4718 104.731 53.3587V47.5779L104.656 47.4581C104.634 47.4222 104.926 47.1047 104.424 46.5509C104.223 45.5611 104.026 44.8023 103.523 43.3959C102.275 39.9321 99.1721 35.7135 94.1921 34.192L93.593 33.5284L91.0305 32.9839L91.0318 32.9573ZM90.52 34.3091C91.7673 35.3694 93.4586 38.9098 93.9571 42.4015C93.9618 42.4408 93.9664 42.4801 93.9764 42.52C93.651 42.4954 93.3355 42.4854 93.0246 42.4761C93.0153 42.4461 93.0047 42.4215 93 42.3875C92.2945 38.9643 90.4254 35.8866 89.2027 34.7278L90.52 34.3091ZM91.3579 34.373L92.6892 34.6146C93.7987 36.1335 94.9682 39.2253 95.279 42.6877C95.0474 42.6578 94.8251 42.6138 94.5888 42.5839C94.5742 42.4907 94.5642 42.4022 94.5495 42.3083C94.017 38.9544 92.5913 35.6796 91.3579 34.373ZM93.217 43.4279C93.5079 43.4379 93.7987 43.4525 94.1002 43.4771C94.1542 43.4864 94.2134 43.4878 94.268 43.4931C94.4157 43.5024 94.5642 43.5224 94.7073 43.537C94.9289 43.5663 95.1412 43.5909 95.3582 43.6256C95.4321 44.5674 95.4661 45.4793 95.486 46.3179C95.486 46.5196 95.4967 46.7133 95.5013 46.9103C95.5013 47.4088 95.4714 48.2016 95.4221 48.6409C95.3236 49.5388 95.1798 50.0273 94.9282 50.2097C94.9282 50.2144 94.9242 50.2137 94.9189 50.2137C94.8896 50.2383 94.8497 50.2536 94.8151 50.2683C94.7559 50.2829 94.7019 50.2982 94.6327 50.2982C94.5888 50.2982 94.5542 50.2783 94.5196 50.2683C94.2587 50.1897 94.1242 49.8736 94.031 49.4103C93.9764 49.1095 93.9325 48.76 93.8879 48.3753C93.8533 47.8921 93.7688 47.2757 93.7102 46.7179C93.6902 46.5263 93.6709 46.3186 93.6463 46.1162C93.5478 45.2776 93.4047 44.3697 93.217 43.4279ZM91.4518 43.4678C91.6541 43.7394 92.0043 44.2912 92.359 45.239C90.0015 45.3914 83.1404 46.2846 77.4249 51.5023C77.3463 50.7382 77.7564 49.8742 78.5897 49.0748C79.9362 47.9906 81.6961 46.7126 83.812 45.647C85.9872 44.5468 88.5518 43.6748 91.4525 43.4685L91.4518 43.4678ZM96.5217 43.8565C97.0296 43.9803 97.4988 44.1241 97.9428 44.2765C99.25 44.7258 100.3 45.2976 101.212 45.9186C102.051 46.5256 103.002 47.4421 103.258 47.8961C103.268 47.906 103.273 47.9114 103.284 47.926L103.323 49.4549C102.411 48.3946 100.344 46.5941 96.4332 45.6823C96.4878 44.8629 96.5117 44.2313 96.5217 43.8565ZM92.8023 46.6986C93.0193 47.8774 93.2516 49.011 93.4346 50.7275C93.1291 50.7568 92.8229 50.7861 92.5221 50.8154C91.8019 49.6666 89.9822 48.0991 86.5743 49.1893C82.0515 50.629 79.7638 52.7004 79.7638 52.7004L79.9954 53.8499C79.5116 54.0476 78.6929 54.3817 78.3128 54.5494C77.6865 52.3742 78.8912 51.294 79.626 50.7275C82.0375 49.1833 85.3615 47.4421 90.4015 46.8557C91.2302 46.7373 92.0282 46.6986 92.803 46.6986H92.8023ZM96.3154 47.0587C99.6347 47.759 102.144 49.3012 103.368 50.436L103.476 53.0611C103.323 53.0066 103.17 52.9473 103.017 52.8881C102.933 51.6155 102.968 51.4138 101.799 50.5452C100.24 49.3817 98.3761 48.6069 96.5856 51.0084C96.2894 50.9445 96.0138 50.8893 95.7776 50.8407C96.0338 49.4596 96.1969 48.1683 96.3154 47.0587ZM94.5981 51.931C100.654 52.8781 104.374 54.8663 104.408 54.8809C104.171 58.2934 103.736 60.8966 103.14 62.8448C99.1648 67.2738 94.435 68.9651 94.435 68.9651C93.9518 68.9111 93.4686 68.8472 92.9947 68.7687C85.7429 67.5793 80.9053 63.8645 79.4057 62.8289L77.7337 56.0876C87.2325 52.118 94.6001 51.9303 94.6001 51.9303L94.5981 51.931ZM93.5578 53.4652L91.6042 53.79L91.8458 67.0528L93.637 67.5407L93.5578 53.4658V53.4652ZM95.6691 53.6276L95.5106 67.2152L97.2173 65.9971L97.3797 53.9524L95.6691 53.6276ZM89.5681 54.0323L87.6985 54.5208L88.3501 66.2387L90.1399 66.6481L89.5681 54.0323ZM99.0077 54.4416L98.5192 65.3462L100.148 64.1228C100.148 64.1228 100.556 55.9066 100.798 55.0932L99.0077 54.4416ZM85.667 55.008L83.7095 55.6597L84.6061 64.3697L86.4758 65.1838L85.667 55.008ZM102.263 55.4972L101.775 62.6578C101.775 62.6578 102.342 63.1464 103.319 55.8274L102.263 55.4972ZM81.7606 56.2314L80.05 56.883L80.9466 62.0062L82.7331 63.2296L81.7606 56.2314ZM103.055 64.4177C103.09 65.4633 103.312 66.4844 103.435 66.9829C102.868 67.2984 102.543 67.4994 101.813 68.0172C101.477 68.2642 101.009 68.6289 100.481 69.0429C100.329 69.1814 100.2 69.2845 100.116 69.3291C100.417 68.0712 101.014 66.6321 101.245 66.1283C101.847 65.6257 102.484 65.0686 103.055 64.4177ZM81.1283 65.685C81.1283 65.685 82.3071 66.4344 83.1457 66.8138C84.67 69.5654 86.3706 70.9579 87.9887 71.5689C86.2321 72.3829 84.5016 72.0228 82.9381 71.3027L81.1283 65.685ZM118.27 66.1183C118.671 66.1289 119.109 66.2061 119.553 66.3559C120.736 66.7506 121.565 67.5247 121.683 68.2349C121.708 68.388 121.713 68.5404 121.659 68.6828C121.393 69.4916 120.007 69.7585 118.576 69.2799C118.364 69.206 118.177 69.1221 117.979 69.0236C116.9 68.4905 116.243 67.6325 116.48 66.9476C116.5 66.8684 116.54 66.7952 116.594 66.7306C116.633 66.6814 116.668 66.6321 116.717 66.5875C117.035 66.2674 117.601 66.1003 118.27 66.1183ZM113.861 66.5356C114.599 66.5037 115.31 66.6135 115.583 66.6614C115.533 66.7353 115.495 66.8138 115.455 66.893C114.912 68.0964 115.835 69.7192 117.551 70.7309C117.748 70.8441 117.945 70.9525 118.158 71.0464C119.011 71.4311 119.874 71.6088 120.643 71.5935C121.778 71.5689 122.705 71.1343 123.071 70.3355C123.115 70.237 123.144 70.1339 123.173 70.0353C124.15 70.474 124.944 71.4404 125.491 72.353C125.816 72.9893 125.694 73.5364 125.408 73.9065C125.265 74.1035 125.077 74.2526 124.889 74.3458C124.711 74.425 124.524 74.4842 124.328 74.5381C123.292 74.819 121.926 74.8044 120.431 74.4836C119.554 74.2965 118.631 74.0043 117.694 73.6103C117.58 73.5604 117.462 73.5125 117.344 73.4579C116.017 72.8608 114.858 72.1213 113.931 71.3326C113.61 71.0657 113.329 70.7895 113.067 70.5133C112.545 69.9508 112.135 69.3837 111.874 68.8313C111.328 67.0375 112.631 66.5889 113.861 66.5356ZM67.7943 68.7201L67.9161 68.8319C68.378 69.2666 72.6286 73.1763 79.204 76.1469C85.2664 78.8899 91.5836 80.0966 94.0343 80.4873L94.0696 80.5046L94.1202 115.053L89.8537 122.03C86.6921 126.531 82.4142 131.648 76.8704 136.182C76.7566 136.273 76.6548 136.35 76.5443 136.438L76.3579 135.579L74.4643 136.962C74.429 136.988 71.1716 139.357 67.6006 141.363C63.9531 139.39 61.0431 137.815 61.0431 137.815L60.2656 137.394C60.0327 137.216 59.7851 137.032 59.5581 136.858L58.6875 136.165L58.6589 136.142V135.879L58.171 135.427L54.6273 132.133L54.1088 131.65L53.7787 131.691C50.5578 128.455 47.5659 124.816 44.8529 120.8L44.7837 120.696C43.8718 119.339 43.0099 117.966 42.2205 116.622L41.4584 115.234V80.482L41.5742 80.4747C41.6481 80.4627 49.1421 79.425 56.3839 76.1496C63.2515 73.0465 67.6399 68.8679 67.6851 68.8239L67.7943 68.7201ZM111.409 70.7841C111.622 71.1056 111.877 71.4258 112.158 71.7413C111.803 71.8797 111.438 72.0375 111.083 72.2498C106.61 74.9222 103.004 77.5959 98.9305 76.324C94.5848 74.9728 90.3156 76.5702 88.1897 77.6212C86.764 77.2558 85.1459 76.7819 83.4639 76.1948C96.139 72.0328 100.366 76.6388 104.671 73.8526C106.663 72.56 108.844 71.3566 111.409 70.7841H111.409ZM113.81 73.2455C114.269 73.5957 114.763 73.9271 115.28 74.218C113.042 75.0021 111.024 76.294 109.416 77.6605C108.785 78.1876 108.183 78.7155 107.605 79.2386C101.06 80.0513 97.0628 82.1846 95.4581 83.0565V79.3478C96.2601 78.5524 97.4342 77.7497 99.1282 78.1384C103.636 79.1794 106.102 78.4193 110.546 74.9222C111.823 73.9265 112.902 73.4279 113.81 73.2455ZM126.289 74.5142C133.278 79.5448 136.976 88.836 138.604 99.9036C140.079 109.975 138.974 117.659 137.829 122.241C137.573 120.238 137.113 118.532 136.581 117.112C141.138 102.356 134.254 90.1139 132.459 87.2924C132.567 84.614 131.92 81.6508 129.652 78.8839C128.355 77.3057 127.018 76.1323 125.672 75.279C126.037 75.072 126.25 74.815 126.289 74.5142ZM123.789 77.9134C125.291 77.8602 126.761 78.3128 128.113 79.4656C131.891 82.6811 131.399 87.4056 130.061 90.7496C129.954 90.2663 129.84 89.8031 129.737 89.3937C130.013 88.4566 130.273 86.7193 129.933 85.0427C129.08 80.8507 126.2 80.0221 124.192 79.9974C123.462 79.9921 122.826 80.0919 122.397 80.1858C120.163 80.5705 117.095 82.325 114.186 85.472C114.186 85.472 118.905 82.6019 124.78 82.8682C125.514 84.0816 125.953 85.0726 126.447 86.2221C119.956 85.6943 110.788 90.7842 108.025 92.7024C107.931 92.3177 107.873 91.943 107.824 91.5783C109.263 89.7192 111.166 87.3024 113.09 84.9402C115.905 81.4837 119.952 78.0499 123.789 77.9134ZM104.741 81.9603C100.598 86.0784 98.201 89.3531 98.201 89.3531L98.812 101.382C97.7244 102.235 96.3846 102.145 95.4581 101.709V87.9986C98.1611 84.65 101.995 82.8635 104.74 81.9596L104.741 81.9603ZM125.338 88.0306C125.986 88.0199 126.612 88.0619 127.205 88.1657L127.221 88.1757C127.448 88.2249 127.703 88.5504 127.802 88.8559C127.906 89.1714 127.931 89.8131 127.788 89.9415C121.347 89.2213 111.577 93.5511 108.849 95.0008C108.825 94.9568 108.804 94.9123 108.779 94.863C108.73 94.7645 108.69 94.66 108.642 94.5562C110.657 93.1264 119.066 88.1318 125.338 88.0306ZM103.61 88.372C104.261 88.372 104.789 88.8999 104.789 89.5462C104.789 90.1918 104.261 90.7203 103.61 90.7203C102.964 90.7203 102.438 90.1925 102.438 89.5462C102.438 88.8999 102.964 88.372 103.61 88.372ZM131.975 90.5719C133.548 94.9615 132.187 99.0789 131.175 101.21C130.391 99.7345 129.682 98.5311 129.208 97.7424C130.525 97.387 131.339 97.142 131.339 97.142C131.176 96.0864 130.969 94.9961 130.752 93.9358C131.18 93.0186 131.634 91.8744 131.975 90.5719ZM98.8912 91.2528C99.5369 92.4362 100.774 93.8466 103.093 94.4923L103.784 100.835C103.409 101.196 102.901 101.679 102.146 101.783C101.618 101.852 100.765 101.615 100.321 101.467L98.8912 91.2528ZM125.945 91.7433C126.772 91.7253 127.56 91.7759 128.286 91.9084C128.596 93.3235 128.676 94.2027 128.676 94.2027C128.676 94.2027 125.352 94.3405 120.927 95.3169C117.939 95.9726 114.16 97.373 111.448 97.2891C110.55 97.2592 110.067 96.8405 109.889 96.5736C112.366 95.275 120.149 91.8651 125.944 91.7433H125.945ZM105.993 93.9558C106.333 95.4501 106.871 97.2199 107.724 98.438C107.981 98.808 108.355 99.1042 108.789 99.3505C108.676 99.5974 108.514 99.863 108.272 100.154C107.966 100.465 107.408 100.885 106.54 100.969C106.003 101.024 105.539 100.949 105.169 100.841L103.903 94.676C104.337 94.7598 104.809 94.8191 105.322 94.8384C105.322 94.8384 105.564 94.5182 105.993 93.9558ZM134.51 97.7684C135.141 97.8575 135.639 99.6474 135.974 102.33C136.6 107.253 135.338 111.695 134.736 113.456C133.933 112.233 133.301 111.637 133.301 111.637L134.53 108.495C134.194 107.612 133.835 106.743 133.465 105.905C133.839 104.727 133.987 103.292 134.106 102.311C134.416 99.7805 134.032 97.6991 134.51 97.7684ZM109.263 102.127C109.258 102.266 109.248 102.409 109.237 102.542C109.208 103.662 109.293 104.682 109.446 105.584C108.937 105.648 106.234 105.964 103.502 106.235C101.001 106.486 96.9969 106.729 95.8474 106.803C95.8528 106.769 95.8528 106.729 95.8528 106.694C95.8182 105.609 96.0944 105.071 96.6861 104.391C97.4209 103.538 99.7193 103.459 99.7193 103.459C102.338 105.007 104.514 102.834 104.514 102.834C105.387 103.1 106.136 103.169 106.768 103.124C107.824 103.045 108.622 102.606 109.075 102.27C109.115 102.241 109.164 102.207 109.204 102.172C109.223 102.157 109.238 102.142 109.263 102.127ZM109.776 107.005C109.805 107.113 109.834 107.223 109.87 107.326C110.264 108.638 110.777 109.605 111.137 110.191C111.142 110.216 111.152 110.241 111.156 110.266C110.969 110.192 110.639 110.157 110.21 110.132C109.09 110.077 107.315 110.192 105.792 110.389C103.843 110.63 102.003 110.789 100.489 110.892L100.499 110.873C96.7207 111.198 96.109 109.215 95.9167 108.085C97.1494 108.026 101.18 107.814 103.453 107.602C106.589 107.311 109.578 107.025 109.776 107.005ZM115.17 112.611C117.113 112.564 119.281 113.244 121.13 114.892C126.994 120.132 127.681 127.165 127.681 127.165C127.681 127.165 127.771 127.679 127.81 128.033V128.066C127.662 128.057 127.518 128.042 127.37 128.033L123.756 127.823C123.055 127.785 122.35 127.756 121.649 127.723C121.406 126.021 119.923 117.758 113.32 112.89C113.897 112.722 114.522 112.626 115.169 112.611H115.17ZM107.975 113.341C109.597 113.401 110.962 114.128 112.009 114.95C115.509 118.044 117.858 122.812 118.049 127.555L115.895 127.47L115.88 127.46C115.78 127.456 115.67 127.446 115.57 127.437C112.738 127.223 109.057 126.878 105.792 126.335C103.56 125.963 101.52 125.501 100.075 124.915C96.5343 123.487 93.7548 121.765 92.9581 119.89C93.5371 118.986 94.0816 118.111 94.5555 117.304L95.4581 115.718V115.686C96.7154 114.634 98.4413 114.262 101.134 113.93C102.936 113.716 104.558 113.592 107.266 113.358C107.507 113.337 107.744 113.332 107.975 113.341V113.341ZM119.641 115.097C119.369 115.15 119.131 115.284 118.969 115.503C118.549 116.061 118.76 116.986 119.466 117.515C120.171 118.045 121.148 117.993 121.568 117.43C121.73 117.215 121.759 116.948 121.725 116.661C121.696 116.743 121.544 116.853 121.462 116.896C121.076 117.091 120.572 117.091 120.043 116.675C119.476 116.223 119.432 115.756 119.489 115.389C119.503 115.303 119.57 115.145 119.641 115.097ZM132.914 116.586C133.186 116.584 133.466 116.588 133.754 116.599C134.888 116.642 136.883 122.388 135.528 125.725C135.199 126.545 134.58 127.67 134.007 128.514L133.539 128.476C132.686 128.409 131.832 128.352 130.983 128.29C130.969 128.252 130.964 128.214 130.955 128.17C130.855 127.732 130.746 127.27 130.746 127.27C129.287 121.601 126.497 118.054 126.497 118.054C126.497 118.054 128.832 116.616 132.914 116.586ZM123.909 121.918C123.654 121.926 123.413 121.996 123.198 122.139C122.469 122.63 122.331 123.813 122.941 124.714C123.561 125.615 124.744 125.944 125.468 125.448C125.754 125.258 125.897 124.948 125.978 124.599C125.906 124.685 125.683 124.756 125.569 124.775C125.034 124.846 124.434 124.651 123.981 123.946C123.49 123.192 123.638 122.625 123.861 122.215C123.914 122.115 124.062 121.958 124.167 121.929C124.08 121.918 123.993 121.915 123.909 121.918ZM58.6343 137.852L58.7181 137.918C58.808 137.987 58.8852 138.043 58.9717 138.11L58.8173 138.849L58.6056 139.868C58.611 139.494 58.613 139.134 58.6209 138.76C58.6276 138.455 58.6283 138.158 58.6343 137.852ZM131.578 141.303C133.499 141.445 135.423 141.604 137.327 141.777V150.418C135.434 150.248 133.51 150.09 131.578 149.945V141.303ZM58.0885 142.336L58.0232 142.65C56.3166 150.834 54.5528 159.287 52.8349 167.583C52.4302 167.632 52.0262 167.683 51.6235 167.733L50.7535 167.842C52.5773 159.014 54.4143 150.119 55.9825 142.571C56.3978 142.525 56.8138 142.478 57.2305 142.431L58.0885 142.336ZM159.586 144.468C161.855 144.812 164.116 145.175 166.339 145.551V170.172C164.03 169.783 161.768 169.422 159.586 169.094V144.468ZM67.8262 151.009L68.8127 155.276L66.9057 155.424L67.8262 151.009Z" fill="#613318"/>
<path d="M67.7955 68.0546L67.6837 68.1598C67.6404 68.205 63.1862 72.4456 56.2154 75.5959C48.8651 78.9199 41.2573 79.9729 41.1834 79.9835L41.0629 79.9942V115.271L41.839 116.679C42.6391 118.043 43.515 119.434 44.4389 120.813L44.5101 120.921C47.5765 125.458 50.9884 129.531 54.6865 133.079C51.833 133.438 46.0297 134.172 43.491 134.545V142.657C44.2971 142.537 45.1105 142.419 45.9218 142.307C45.6762 143.524 45.426 144.744 45.181 145.965C44.6073 148.746 44.0322 151.531 43.4584 154.32C42.6584 158.196 41.8577 162.069 41.0576 165.953C40.2669 162.315 39.4755 158.685 38.6847 155.054C38.1037 152.446 37.5219 149.839 36.9375 147.23C36.6906 146.086 36.4456 144.944 36.1994 143.798C37.03 143.658 37.8587 143.525 38.6847 143.394V135.285C34.1719 136.007 29.6711 136.811 25.1816 137.699V145.806C25.9371 145.657 26.6919 145.51 27.454 145.363C29.9653 156.812 32.4813 168.28 35.0059 179.777C36.8397 179.411 38.8145 179.057 40.9691 178.704C42.9479 178.385 45.0119 178.082 47.1459 177.798C49.6692 165.565 52.1918 153.359 54.7224 141.178C55.5038 141.089 56.2886 140.999 57.0727 140.913C57.0727 139.954 57.0733 137.329 57.074 135.25C57.478 135.601 57.8807 135.957 58.2907 136.297L58.555 136.519L59.4376 137.218C59.9421 137.607 60.4553 138.001 61.013 138.413L61.1921 138.549C61.9589 139.102 62.5659 139.526 63.145 139.914C64.2812 140.678 65.408 141.379 66.491 142.016L67.7649 142.79L70.3861 141.234C71.0656 140.816 71.7532 140.37 72.4348 139.914C73.103 139.466 73.748 139.009 74.3863 138.549C75.2097 137.951 76.067 137.293 77.0081 136.532C85.0772 129.935 90.5631 122.09 93.7447 116.672L94.5195 115.355V80.0414L94.431 80.0008C91.9483 79.5981 85.5358 78.3741 79.3823 75.5899C72.7083 72.5734 68.3912 68.6064 67.9213 68.1644L67.7995 68.0513L67.7955 68.0546ZM88.7487 130.667V138.869C89.5754 138.843 90.4027 138.82 91.2321 138.798V166.632H88.7487V174.693C97.2059 174.42 105.676 174.435 114.134 174.732V166.625C111.233 166.522 108.331 166.455 105.428 166.419C103.598 166.395 101.763 166.385 99.9342 166.39V138.675C100.758 138.675 101.585 138.675 102.415 138.679V130.666H88.7494L88.7487 130.667ZM118.923 130.925V139.038C119.748 139.074 120.575 139.108 121.403 139.147V166.866C120.575 166.823 119.748 166.788 118.923 166.756V174.864C122.481 175.008 126.03 175.219 129.583 175.463C130.587 175.522 131.578 175.585 132.569 175.651V167.559C131.733 167.495 130.897 167.433 130.062 167.376V159.47C134.011 159.751 137.959 160.09 141.9 160.498C143.769 159.129 146.142 157.458 148.007 156.122V138.354C146.142 136.584 143.769 134.311 141.9 132.573C134.259 131.789 126.592 131.241 118.923 130.927V130.925ZM154.952 134.142C153.119 135.426 151.289 136.726 149.454 138.037V172.769C151.18 174.417 152.9 176.081 154.621 177.754C156.866 178.05 159.036 178.367 161.115 178.703C164.897 179.32 168.164 179.956 170.985 180.611C172.812 179.427 174.643 178.254 176.463 177.095V142.365C174.631 140.464 172.787 138.575 170.947 136.7C165.632 135.732 160.3 134.878 154.952 134.142ZM75.5185 138.811C75.5185 138.811 71.7459 141.564 67.7629 143.717C63.78 141.564 60.3201 139.157 60.3201 139.157C58.2614 149.031 56.1694 159.056 54.1181 168.966C53.3526 169.052 52.5878 169.146 51.8271 169.243V177.218C55.842 176.753 60.0659 176.346 64.4708 176.004C64.7937 175.976 65.1132 175.94 65.4373 175.91V167.803C64.6006 167.876 63.7673 167.952 62.9306 168.032C63.1789 166.821 63.4831 165.283 63.7314 164.074C66.4949 163.819 69.1554 163.6 71.9203 163.407C72.1685 164.572 72.4674 166.074 72.7183 167.241C71.9016 167.297 71.0849 167.354 70.2682 167.416V175.523C74.8163 175.187 79.367 174.932 83.9211 174.761V166.632H81.5329C79.5381 157.378 77.514 148.032 75.5192 138.81L75.5185 138.811ZM130.064 139.66C133.002 139.864 135.936 140.105 138.865 140.384V152.088C135.936 151.811 133.002 151.569 130.064 151.36V139.66ZM158.073 142.694C161.346 143.175 164.613 143.697 167.876 144.262V171.977C164.613 171.413 161.346 170.885 158.073 170.408V142.694ZM67.7636 143.902L70.7135 156.655L65.0113 157.1L67.7636 143.902Z" fill="white"/>
<path d="M88.1036 113.82C84.9167 119.247 79.3017 127.101 71.1334 133.118L88.1036 90.9114V113.82ZM62.02 92.9361L59.5646 86.6941C53.8424 86.2901 48.6201 85.4821 44.2324 84.3678V114.737L44.699 115.535C45.4026 116.735 46.2219 118.047 47.1404 119.419C47.1484 119.424 47.1524 119.427 47.1564 119.435C50.2149 123.981 54.486 129.257 60.0858 133.895C60.1749 133.965 60.2588 134.039 60.3493 134.115C60.4119 134.168 60.4758 134.217 60.5377 134.264C60.74 134.424 60.9384 134.584 61.1467 134.745C61.6339 135.125 62.1225 135.497 62.6317 135.876C62.649 135.885 62.665 135.897 62.6776 135.908C62.7175 135.933 62.7482 135.963 62.7814 135.989C63.3778 136.417 63.9815 136.846 64.6039 137.26C65.6462 137.962 66.7331 138.644 67.8573 139.301L67.856 139.293C67.8613 139.297 67.8613 139.301 67.866 139.301C68.9948 138.644 70.0804 137.962 71.1228 137.26C71.7484 136.846 72.3475 136.417 72.9425 135.989C73.7832 135.377 74.5899 134.75 75.376 134.115C82.8227 128.026 87.9552 120.768 91.027 115.535L91.4929 114.735V84.3672C87.7429 85.3217 83.3865 86.0505 78.6288 86.4938C78.7832 87.8763 78.8152 89.2913 78.7346 90.6957C78.702 91.1557 78.6601 91.6083 78.6101 92.0669C78.1109 96.5251 76.4769 101.092 73.5795 106.132C72.7681 107.537 71.8656 108.973 70.8585 110.457L70.3161 111.244L70.2102 111.392L70.0165 111.67C69.6039 112.25 69.2165 112.818 68.8504 113.352C65.9683 117.585 64.1666 120.848 63.3399 123.34C63.1402 123.945 63.0497 124.263 62.9192 124.9C62.8107 125.425 62.7435 125.761 62.6749 126.28C62.6164 126.681 62.5458 127.354 62.5145 127.806C62.9292 128.858 63.3179 129.85 63.6687 130.748C64.0141 131.628 64.3243 132.416 64.5965 133.115C64.5939 133.115 64.5939 133.115 64.5912 133.115C63.9815 132.667 63.3978 132.211 62.8234 131.75C55.734 126.041 50.746 119.09 47.7788 114.082C47.7262 113.994 47.6709 113.905 47.6217 113.819C47.617 113.813 47.6117 113.805 47.611 113.799V90.8907L54.8654 108.906C54.8654 108.906 55.3187 105.239 58.0849 99.704C59.7396 96.3973 62.02 92.9361 62.02 92.9361Z" fill="#613318"/>
<path d="M68.675 73.4179C68.8727 73.8739 69.0497 74.3245 69.2008 74.7738C69.5044 75.6717 69.7187 76.5589 69.8451 77.4269C70.3497 80.8188 69.6175 83.993 68.3542 86.9543C68.3216 87.0262 68.2923 87.0974 68.267 87.1686C66.9538 90.1865 62.0762 97.8868 61.8506 98.2815C61.6396 98.6483 61.4313 99.0184 61.2209 99.3964C60.9647 99.8757 60.7057 100.365 60.4515 100.863C59.7859 102.183 59.1695 103.564 58.6371 105.03C57.7192 107.575 57.0423 110.321 57.0449 113.041C57.0449 116.357 57.7052 119.745 59.2121 122.712C59.5263 123.324 59.8777 123.929 60.2718 124.502C60.3643 123.936 60.5167 123.317 60.7444 122.616C61.5524 120.183 63.2583 116.855 66.595 111.946C66.9731 111.395 67.3671 110.819 67.7957 110.22C67.8936 110.086 67.9874 109.944 68.0833 109.806L68.6198 109.032C72.7438 102.967 75.6831 96.8192 76.0565 90.5519C76.1324 89.2786 76.1031 88.0006 75.96 86.7253C75.9554 86.6714 75.9447 86.6228 75.9447 86.5696C75.9001 86.2308 75.8449 85.8913 75.789 85.5485C75.7404 85.2643 75.6865 84.9801 75.6246 84.6986C75.6192 84.6427 75.6066 84.5941 75.594 84.5481C75.5653 84.415 75.542 84.2839 75.5048 84.1455C75.4894 84.0616 75.4748 83.9804 75.4475 83.8939C75.2019 82.8615 74.8545 81.8271 74.4265 80.7855C72.5162 76.1722 68.7016 72.6006 67.9408 71.917L68.675 73.4179Z" fill="#FFCC00"/>
</svg>
