<svg width="200" height="200" viewBox="0 0 200 200" fill="none" xmlns="http://www.w3.org/2000/svg">
<path d="M69.7678 44.3403L69.6259 44.4822C69.6259 44.5532 69.484 44.837 69.2712 45.0498C69.1293 45.2627 68.8455 45.7593 68.7036 46.1141C68.4907 46.4688 68.2779 47.0364 68.136 47.3202C68.0651 47.604 67.8522 48.1716 67.7813 48.5973C67.6394 48.952 67.4975 49.5196 67.4975 49.8744C67.4265 50.1582 67.3556 50.7967 67.2846 51.2934C67.2846 51.79 67.2846 52.5704 67.2846 53.0671C67.2846 53.4928 67.3556 54.2023 67.4265 54.628C67.4265 55.0537 67.5684 55.7632 67.6394 56.2598C67.7103 56.7564 67.9232 57.6078 68.0651 58.1754C68.2779 58.814 68.5617 59.8073 68.7036 60.3748C68.9164 61.0134 69.3421 62.0776 69.555 62.7162C69.8388 63.3547 70.1935 64.2771 70.4064 64.7027C70.6192 65.1994 73.741 71.9396 77.4303 79.673C81.0488 87.4065 87.4342 101.029 91.5492 109.897C95.7352 118.766 99.3536 126.429 99.5665 126.925C99.7793 127.422 99.9922 127.777 99.9922 127.777C99.9922 127.777 104.391 118.482 109.712 107.13C114.962 95.8494 119.432 86.2713 119.574 85.9875C119.716 85.7037 119.929 85.278 120 85.0652C120.142 84.8523 122.27 80.2406 124.824 74.7775C127.379 69.3144 129.649 64.4899 129.862 63.9223C130.075 63.4257 130.429 62.5743 130.642 62.0776C130.784 61.581 131.139 60.7296 131.281 60.162C131.494 59.5944 131.706 58.6721 131.919 58.1045C132.061 57.5369 132.203 56.7564 132.274 56.3307C132.345 55.976 132.487 55.3375 132.487 54.9118C132.558 54.557 132.629 53.6347 132.629 52.9961C132.7 52.2157 132.629 51.4352 132.629 50.9386C132.558 50.5129 132.487 49.8034 132.345 49.3777C132.274 48.952 132.132 48.2425 131.99 47.8878C131.848 47.4621 131.565 46.6817 131.281 46.256C131.068 45.7593 130.713 45.1208 130.146 44.3403H173.992L173.283 45.2627C172.928 45.7593 172.36 46.5398 172.006 47.0364C171.651 47.533 171.083 48.3844 170.799 48.8811C170.445 49.4487 169.877 50.3001 169.593 50.8677C169.239 51.4352 168.671 52.3576 168.387 52.9252C168.032 53.4928 167.394 54.6989 166.968 55.5503C166.472 56.4726 165.904 57.6788 165.62 58.2464C165.336 58.814 162.924 63.8514 160.37 69.3854C157.745 74.9194 155.474 79.8149 155.262 80.2406C155.049 80.6663 154.552 81.8015 154.055 82.7238C153.63 83.7171 145.754 100.461 119.858 155.66H80.1264L67.0718 127.848C59.8349 112.522 49.6892 90.883 44.439 79.673C39.1178 68.4631 34.577 58.743 34.2932 58.1045C34.0094 57.4659 33.3709 56.3307 32.9452 55.4794C32.5195 54.6989 31.9519 53.5637 31.5972 52.9252C31.2424 52.2866 30.6748 51.2934 30.2491 50.6548C29.8944 50.0163 29.114 48.8101 28.6173 48.0297C28.0497 47.1783 27.2693 46.0431 26.8436 45.4755C26.4179 44.9079 26.0631 44.4113 25.9922 44.4113C25.9922 44.3403 35.8541 44.3403 69.7678 44.3403Z" fill="url(#paint0_linear_15016_302036)"/>
<defs>
<linearGradient id="paint0_linear_15016_302036" x1="99.9922" y1="155.66" x2="99.9922" y2="44.3403" gradientUnits="userSpaceOnUse">
<stop stop-color="#B99950"/>
<stop offset="1" stop-color="#FEEEB6"/>
</linearGradient>
</defs>
</svg>
