<svg width="200" height="201" viewBox="0 0 200 201" fill="none" xmlns="http://www.w3.org/2000/svg">
<path d="M188.332 31.5947L111.607 31.6259L111.616 48.9705L114.128 49.8878C115.363 50.3355 116.237 51.4378 116.64 52.3176C116.799 52.6636 116.875 53.0635 116.878 53.5351C116.878 54.2384 116.698 55.0706 116.348 56.0065C116.348 56.0065 116.505 55.8953 116.538 55.8735C116.027 56.8739 115.357 58.6315 114.13 61.8935L100.027 99.366C96.791 90.7874 83.6733 56.0213 83.6733 56.0213C83.3211 55.0843 83.1415 54.2512 83.1415 53.5427C83.1415 53.0762 83.2227 52.6701 83.3762 52.3335C83.7824 51.4505 84.654 50.3472 85.8829 49.9016L88.3947 48.9864L88.3856 31.6308L9.47656 31.662L9.4857 48.8305L11.5945 49.8943C11.7607 49.9836 16.3523 52.508 19.0606 60.4496C21.0198 66.2057 49.9975 143.055 58.8327 166.478C58.8327 166.471 59.0478 167.051 59.0478 167.051C61.4765 173.486 60.7681 173.82 59.3584 174.492C59.3493 174.497 57.18 175.537 57.18 175.537L57.1892 192.338L142.929 192.305L142.919 175.579L140.842 174.513C140.21 174.192 139.604 173.88 139.604 172.563C139.604 171.518 139.985 169.841 141.044 167.024L142.348 163.563C166.296 99.923 179.647 64.251 180.959 60.4C183.662 52.4457 188.401 49.841 188.448 49.8146L190.501 48.7778L190.523 46.4301V31.5995H188.335L188.332 31.5947Z" fill="#002664"/>
<path d="M153.289 39.0502L99.9234 173.312L47.5547 39.0502H40.3379L96.7721 184.792L102.789 184.65L160.564 39.0539H153.289L153.289 39.0502Z" fill="#3DB7E4"/>
<path d="M180.483 43.002C177.687 45.4141 173.928 49.7585 171.476 56.9793C170.199 60.7139 155.482 100.037 132.095 162.168L131.668 163.301L131.234 164.451C129.702 168.43 127.968 172.945 130.336 177.314C130.97 178.484 131.83 179.467 132.887 180.284V181.886L67.8189 181.911V180.308C68.8722 179.492 69.7334 178.509 70.3619 177.336C72.7304 172.958 70.9967 168.455 69.4654 164.479L69.024 163.324L68.6167 162.247C45.1754 100.107 30.4197 60.7726 29.143 57.0403C26.682 49.8173 22.9236 45.4775 20.1188 43.0675V41.9113L78.3633 41.8895V42.947C76.2181 44.5645 74.981 46.4271 74.2901 47.9355C73.1931 50.3227 72.3059 54.2796 74.3074 59.5886L94.2363 112.422L99.9353 128.626L106.431 112.419L126.328 59.5685C128.32 54.2601 127.436 50.2999 126.328 47.92C125.635 46.4075 124.403 44.5459 122.254 42.9305V41.8761L180.49 41.8564V43.0094L180.483 43.002ZM186.725 35.4165L115.456 35.4404V46.295C119.429 48.0299 121.935 52.0418 119.938 57.3477C112.093 78.2157 100.048 110.195 100.048 110.195C100.048 110.195 87.9833 78.2248 80.1181 57.365C78.1174 52.0577 80.1181 47.9385 84.5976 46.3069L84.5885 35.4504L13.3164 35.4774V46.4726C13.3164 46.4726 19.3468 49.4031 22.6891 59.218C24.8384 65.5258 60.2018 159.241 62.641 165.702C64.6438 171.012 66.0711 175.534 61.0152 177.938V188.512L139.118 188.482V177.911C134.457 175.533 135.489 170.986 137.487 165.675C139.921 159.209 175.214 65.4689 177.36 59.1633C180.695 49.348 186.72 46.4115 186.72 46.4115L186.711 35.419L186.725 35.4165Z" fill="white"/>
</svg>
