<svg width="200" height="200" viewBox="0 0 200 200" fill="none" xmlns="http://www.w3.org/2000/svg">
<g clip-path="url(#clip0_15016_302131)">
<path d="M191.383 103.411C191.257 103.499 191.132 103.587 190.994 103.687C190.994 103.687 190.981 103.687 190.969 103.687C177.404 112.877 162.76 120.964 147.475 127.813C132.204 134.674 116.292 140.27 100.217 144.489C68.0549 136.051 36.5829 122.054 9.45269 103.674C9.45269 103.674 9.44014 103.674 9.42759 103.674C9.30211 103.587 9.17662 103.499 9.03859 103.399C8.46135 103.011 8.04724 102.798 7.85901 102.748C7.5202 102.673 7.75862 103.061 8.69977 103.95C12.5773 107.856 22.3527 117.146 37.9758 126.548C43.2211 129.791 48.8303 132.921 54.4019 135.675C59.9735 138.43 65.52 140.809 70.6399 142.549C76.0484 144.539 81.1808 146.28 86.0873 147.832C76.2993 149.885 66.5114 151.425 56.7987 152.402C56.2591 150.662 54.8662 149.31 53.2977 149.172C51.3777 148.997 49.9095 150.774 50.0601 153.066C50.0601 153.228 50.0852 153.379 50.1103 153.529C42.7443 154.355 29.9446 154.593 29.5807 154.605H29.5556C29.6058 154.13 29.6686 153.679 29.7815 153.228C29.7815 153.228 29.794 153.128 29.794 153.091C29.794 152.665 29.4552 152.327 29.0286 152.327C28.6898 152.327 28.3886 152.552 28.3008 152.865C28.0498 153.404 27.8239 153.967 27.6357 154.543H25.8287L21.788 154.568C21.7378 154.305 21.5119 154.092 21.2233 154.092C21.0602 154.092 20.7339 154.092 20.5708 154.092C20.3198 154.092 20.0939 154.242 20.0061 154.48C19.8806 154.868 19.7802 155.269 19.6924 155.67H19.6422C19.3912 155.67 19.1904 155.845 19.1402 156.083C19.0148 156.709 18.9395 157.347 18.8893 157.998C18.8516 158.612 18.8642 159.213 18.8893 159.801C18.9018 160.064 19.1277 160.277 19.3912 160.29C19.4414 160.69 19.4916 161.103 19.5669 161.504C19.6171 161.779 19.8681 161.992 20.1441 161.992H20.7088C21.0351 161.992 21.2861 161.742 21.2986 161.429C23.3315 161.479 25.904 161.479 27.071 161.454C28.1878 167.914 33.8473 172.722 41.0502 172.722C48.7802 172.722 55.5815 167.213 57.1877 160.052C68.9333 158.587 82.8372 156.559 100.192 151.951C117.534 156.559 131.451 158.587 143.184 160.052C144.79 167.213 151.604 172.722 159.321 172.722C166.524 172.722 172.184 167.927 173.3 161.454C174.467 161.479 177.04 161.479 179.073 161.429C179.085 161.742 179.336 161.992 179.663 161.992H180.227C180.516 161.992 180.754 161.779 180.804 161.504C180.88 161.103 180.943 160.703 180.98 160.29C181.244 160.29 181.47 160.064 181.482 159.801C181.52 159.2 181.52 158.599 181.482 157.998C181.432 157.347 181.357 156.709 181.231 156.083C181.181 155.845 180.98 155.67 180.729 155.67C180.704 155.67 180.692 155.67 180.666 155.67C180.579 155.269 180.466 154.868 180.353 154.468C180.277 154.23 180.039 154.067 179.788 154.08C179.612 154.08 179.299 154.08 179.135 154.08C178.847 154.08 178.621 154.292 178.571 154.555H174.543L172.736 154.53C172.535 153.967 172.322 153.404 172.058 152.853C171.97 152.54 171.682 152.314 171.33 152.314C170.904 152.314 170.565 152.652 170.565 153.078C170.565 153.116 170.565 153.153 170.577 153.203C170.69 153.654 170.753 154.117 170.816 154.593H170.791C170.427 154.593 157.64 154.343 150.261 153.516C150.261 153.466 150.261 153.416 150.274 153.354C150.286 153.253 150.299 153.153 150.311 153.053C150.449 150.749 148.969 148.984 147.061 149.159C145.505 149.297 144.112 150.662 143.573 152.389C133.86 151.413 124.072 149.885 114.284 147.82C119.191 146.267 124.323 144.527 129.744 142.536C139.984 139.056 151.892 133.034 162.396 126.536C170.201 121.841 176.55 117.158 181.444 113.177C186.326 109.196 189.739 105.89 191.672 103.937C193.177 102.523 192.876 102.372 191.32 103.399L191.383 103.411ZM39.9459 165.736C36.4825 165.736 33.4081 164.083 31.5132 161.542C31.5132 161.542 47.5253 160.865 48.9935 160.628C47.199 163.682 43.8234 165.748 39.9459 165.748V165.736ZM168.933 161.542C167.039 164.083 163.964 165.736 160.501 165.736C156.623 165.736 153.248 163.682 151.453 160.615C152.921 160.865 168.933 161.529 168.933 161.529V161.542Z" fill="#13294B"/>
<path d="M158.067 27.2899C158.067 27.2899 153.549 29.1804 149.91 35.4904L100.205 134.335L50.5248 35.5029C46.8731 29.1929 42.3682 27.3024 42.3682 27.3024H83.716C81.6203 30.858 81.4697 36.0538 83.3269 39.8098L100.205 73.3757L117.083 39.8098C118.94 36.0413 118.789 30.858 116.694 27.2773H158.004L158.054 27.2899H158.067Z" fill="#13294B"/>
<path d="M44.0088 171.845C44.0088 171.845 53.5834 170.393 56.5449 160.164L54.9763 160.352C54.9763 160.352 53.2697 168.69 44.0088 171.845Z" fill="#003A70"/>
<path d="M7.79527 102.746C7.79527 102.746 7.70743 102.771 7.71998 102.809C9.47679 104.599 16.6295 110.17 23.707 114.828C44.5879 128.174 67.8029 138.866 93.0759 146.265C80.979 149.12 68.8193 151.198 56.7977 152.388L55.1413 152.563C55.1413 152.563 53.761 153.953 54.0119 156.457C100.58 151.974 141.903 137.076 176.725 114.815C183.79 110.17 190.918 104.612 192.7 102.809C192.7 102.809 192.712 102.809 192.712 102.796H192.7C192.7 102.771 192.674 102.771 192.662 102.759C192.637 102.759 192.624 102.759 192.587 102.759C192.574 102.759 192.536 102.771 192.511 102.784C192.298 102.846 191.934 103.047 191.382 103.41C191.256 103.497 191.118 103.585 190.993 103.673C190.993 103.673 190.98 103.673 190.968 103.685C163.838 122.052 132.366 136.049 100.203 144.488C68.0539 136.049 36.5693 122.052 9.43914 103.685C9.43914 103.685 9.42659 103.685 9.41404 103.673C9.28856 103.585 9.15052 103.497 9.02504 103.41C8.37251 102.971 7.94585 102.746 7.77017 102.746H7.79527Z" fill="#003A70"/>
<path d="M114.359 147.828C111.937 148.592 109.54 149.331 107.231 150.007C119.83 152.986 132.906 155.165 146.421 156.467C146.672 153.963 145.291 152.573 145.291 152.573L143.635 152.398C133.935 151.434 124.134 149.894 114.359 147.828Z" fill="#003A70"/>
<path d="M53.2983 149.082C51.3783 148.907 49.9101 150.672 50.0482 152.976C50.0482 153.126 50.0733 153.276 50.0984 153.427C50.0984 153.464 50.0984 153.477 50.0984 153.514C42.6068 154.341 29.5437 154.591 29.5437 154.591C29.5437 154.616 29.5437 154.641 29.5437 154.666C29.4935 155.455 29.5688 156.331 29.7319 157.195C34.9773 157.396 48.9439 156.306 50.2113 156.231C50.1988 156.732 50.0105 158.134 49.6341 159.111C49.6341 159.111 49.5839 159.223 49.5839 159.249C48.0655 163.03 44.326 165.646 39.9089 165.646C39.6705 165.646 39.432 165.621 39.2062 165.609C39.1434 165.609 39.0932 165.609 39.0305 165.609C38.8046 165.596 38.5913 165.571 38.3779 165.534C38.1144 165.496 37.8509 165.446 37.5999 165.396C37.4242 165.358 37.2486 165.308 37.0729 165.258C36.9097 165.208 36.7592 165.17 36.596 165.108C35.2282 164.657 33.9734 163.943 32.9318 163.017C32.844 162.942 32.7561 162.867 32.6809 162.804C32.6809 162.804 36.1066 166.735 41.5026 166.422C45.9573 166.16 49.3204 163.868 51.0897 159.812C51.3532 159.236 51.554 158.673 51.6921 158.097C51.7423 157.921 51.7673 157.746 51.805 157.558H51.8301C51.8552 157.408 51.8677 157.27 51.8928 157.12C51.9305 156.92 51.9556 156.719 51.9681 156.519C51.9807 156.381 51.9932 156.244 52.0058 156.106C52.0936 154.841 52.0058 153.677 51.9807 152.713C51.8677 149.834 54.0763 149.157 55.0927 149.846C54.5531 149.433 53.9383 149.17 53.2983 149.107V149.082Z" fill="#003A70"/>
<path d="M147.135 149.081C146.495 149.143 145.88 149.406 145.34 149.819C146.357 149.131 148.578 149.819 148.452 152.687C148.415 153.651 148.327 154.815 148.415 156.079C148.415 156.217 148.44 156.355 148.452 156.493C148.477 156.693 148.503 156.893 148.528 157.094C148.553 157.244 148.553 157.382 148.578 157.519H148.603C148.641 157.707 148.666 157.882 148.716 158.058C148.854 158.621 149.055 159.197 149.318 159.773C151.088 163.829 154.438 166.12 158.905 166.383C164.301 166.696 167.727 162.765 167.727 162.765C167.652 162.84 167.564 162.915 167.476 162.978C166.422 163.904 165.18 164.618 163.812 165.069C163.661 165.119 163.498 165.169 163.335 165.219C163.159 165.269 162.984 165.319 162.808 165.357C162.557 165.419 162.294 165.457 162.03 165.494C161.817 165.532 161.591 165.545 161.378 165.57C161.315 165.57 161.265 165.57 161.202 165.57C160.963 165.582 160.738 165.607 160.499 165.607C156.082 165.607 152.355 162.99 150.824 159.209C150.824 159.184 150.774 159.072 150.774 159.072C150.397 158.095 150.209 156.693 150.197 156.192C151.477 156.267 165.443 157.356 170.676 157.156C170.839 156.28 170.914 155.416 170.864 154.627C170.864 154.602 170.864 154.577 170.864 154.552C170.864 154.552 157.801 154.302 150.31 153.475C150.31 153.438 150.31 153.425 150.31 153.388C150.335 153.237 150.347 153.087 150.36 152.937C150.498 150.633 149.03 148.868 147.11 149.043L147.135 149.081Z" fill="#003A70"/>
<path d="M27.2721 154.543H25.8416L21.8135 154.568C21.8135 154.568 20.91 157.21 21.3366 161.441C21.7256 161.441 22.1397 161.454 22.5538 161.466C22.8299 155.945 26.8329 154.668 27.2847 154.543H27.2721Z" fill="#003A70"/>
<path d="M173.162 154.543C173.601 154.668 177.604 155.945 177.892 161.466C178.307 161.466 178.721 161.454 179.11 161.441C179.536 157.21 178.633 154.568 178.633 154.568H174.592L173.162 154.543Z" fill="#003A70"/>
<path d="M143.884 160.164C146.845 170.393 156.42 171.845 156.42 171.845C147.159 168.69 145.452 160.352 145.452 160.352L143.884 160.164Z" fill="#003A70"/>
<path d="M124.347 33.3633C124.648 36.1177 123.895 39.5857 122.251 42.8659L100.216 86.7232L78.1803 42.8659C76.5239 39.5857 75.7835 36.1177 76.0847 33.3633H56.1323L100.203 121.015L144.299 33.3633H124.347Z" fill="#FF6A13"/>
<path d="M83.7159 27.2773H42.4058C46.5845 27.3024 54.2768 29.6561 56.134 33.362H76.0863L83.7159 27.2773Z" fill="#003A70"/>
<path d="M116.72 27.2773L124.35 33.362H144.302C146.172 29.6561 153.852 27.3149 158.03 27.3024H116.72V27.2773Z" fill="#003A70"/>
<path d="M56.1323 33.3633L100.216 121.028V103.876L131.801 41.0505C133.432 37.908 139.004 33.3633 144.299 33.3633H124.347C124.648 36.1177 123.908 39.5857 122.251 42.8659L100.216 86.7232V103.876L68.6308 41.0505C66.9995 37.908 61.4279 33.3633 56.1323 33.3633Z" fill="#FA4616"/>
</g>
<defs>
<clipPath id="clip0_15016_302131">
<rect width="200" height="200" fill="white"/>
</clipPath>
</defs>
</svg>
