<svg width="200" height="200" viewBox="0 0 200 200" fill="none" xmlns="http://www.w3.org/2000/svg">
<path d="M66.4446 52.8936L50.2553 81.7695L34.7246 52.8936H0L50.4083 147.106L85.046 83.093H115.203L81.2236 146.199H116.236L149.96 82.8384H183.933L200 52.8936H66.4495H66.4446Z" fill="#CF4520"/>
<path d="M33.3752 55.1325L50.2074 86.4364L67.7619 55.1325H196.231L182.576 80.5828H148.601L114.877 143.946H84.9834L118.959 80.8387H83.6966L50.4106 142.355L3.74756 55.1325H33.3704H33.3752Z" fill="white"/>
<path d="M7.50488 57.3859H32.0332L50.1705 91.109L69.0816 57.3859H192.482L181.238 78.3367H147.26L113.534 141.696H88.753L122.729 78.5939H82.3632L50.4301 137.61L7.50488 57.3859Z" fill="#6A2C3E"/>
</svg>
