<svg width="200" height="201" viewBox="0 0 200 201" fill="none" xmlns="http://www.w3.org/2000/svg">
<g clip-path="url(#clip0_15016_303930)">
<path d="M135.809 32.9276V54.6679H147.427L93.9387 141.362L40.4504 54.6679H52.068V32.9276H5.59766V54.6679H17.2152L93.9387 179.019L170.662 54.6679H182.28V32.9276H135.809Z" fill="#FFD619"/>
<path fill-rule="evenodd" clip-rule="evenodd" d="M135.809 32.9276V54.6679H147.427L93.9387 141.362L40.4504 54.6679H52.068V32.9276H5.59766V54.6679H17.2152L93.9387 179.019L170.662 54.6679H182.28V32.9276H135.809Z" stroke="#231F20" stroke-width="2.08146"/>
<path fill-rule="evenodd" clip-rule="evenodd" d="M117.174 34.8565V13.1162H70.7041V34.8565H82.3217V179.03H70.7041V200.771H117.174V179.03H105.557V34.8565H117.174Z" fill="white"/>
<path fill-rule="evenodd" clip-rule="evenodd" d="M117.174 34.8565V13.1162H70.7041V34.8565H82.3217V179.03H70.7041V200.771H117.174V179.03H105.557V34.8565H117.174Z" stroke="#231F20" stroke-width="2.08146"/>
<path d="M57.6339 56.5732L51.2924 72.2266L66.7232 97.2362L69.9043 89.3784L93.9377 128.332L117.974 89.3784L121.155 97.2362L136.586 72.2266L130.244 56.5732H112.647L93.9377 86.8976L75.2309 56.5732H57.6339ZM42.0844 94.9602L16.048 159.194H5.59961V180.927H52.0699V159.194H41.6156L57.5122 119.967L42.0844 94.9572V94.9602ZM145.794 94.9602L130.366 119.97L146.263 159.197H135.811V180.93H182.276V159.197H171.827L145.794 94.9602Z" fill="#AE122A"/>
<path fill-rule="evenodd" clip-rule="evenodd" d="M57.6339 56.5732L51.2924 72.2266L66.7232 97.2362L69.9043 89.3784L93.9377 128.332L117.974 89.3784L121.155 97.2362L136.586 72.2266L130.244 56.5732H112.647L93.9377 86.8976L75.2309 56.5732H57.6339ZM42.0844 94.9602L16.048 159.194H5.59961V180.927H52.0699V159.194H41.6156L57.5122 119.967L42.0844 94.9572V94.9602ZM145.794 94.9602L130.366 119.97L146.263 159.197H135.811V180.93H182.276V159.197H171.827L145.794 94.9602Z" stroke="#231F20" stroke-width="2.04943"/>
</g>
<defs>
<clipPath id="clip0_15016_303930">
<rect width="200" height="200" fill="white" transform="translate(0 0.945312)"/>
</clipPath>
</defs>
</svg>
