<svg width="200" height="201" viewBox="0 0 200 201" fill="none" xmlns="http://www.w3.org/2000/svg">
<g clip-path="url(#clip0_15016_304308)">
<path d="M167.321 148.996C172.356 137.249 172.015 130.378 172.015 130.378V130.338C153.244 124.668 135.601 142.792 135.421 142.972L133.404 145.089L131.968 142.538C99.3607 84.7085 35.6011 98.5849 34.9534 98.7251L29.8315 99.8938L32.6362 95.453C39.955 83.8871 48.2021 78.4046 53.324 75.9205C44.5093 71.0123 11.0001 65.4029 11.0001 65.4029H61.6846C39.354 55.7669 2.19208 51.4797 0.0351562 51.453L109.965 51.3662C119.948 51.453 132.389 51.7201 145.431 55.4263C145.885 55.5265 190.319 65.8637 199.948 111.807L200.035 112.201C200.035 112.221 197.003 140.468 167.321 148.996Z" fill="#BABCBE"/>
<path d="M144.963 57.5431C132.014 53.877 115.373 53.3294 107.393 53.5231L28.208 53.6099C28.208 53.6099 54.2848 57.276 71.0661 67.5865H31.4C31.4 67.5865 49.1963 69.3495 58.7856 76.1608C58.7856 76.1608 45.5169 79.1658 34.4718 96.635C34.4718 96.635 100.034 81.5031 133.851 141.496C133.851 141.496 153.23 121.089 174.098 128.675C174.098 128.675 174.973 135.179 171.013 145.443C193.617 137.703 197.837 112.261 197.837 112.261C188.388 67.1458 144.963 57.5431 144.963 57.5431ZM181.617 128.688C182.011 126.725 181.67 124.835 181.337 123.627C171.961 118.678 160.622 118.905 160.622 118.905C160.622 118.905 163.327 117.677 173.243 114.745C179.013 113.069 183.62 110.765 186.498 105.971C187.701 109.002 187.881 109.89 188.742 113.189C188.355 115.446 188.682 121.637 181.617 128.688Z" fill="#00483A"/>
<path d="M175.401 101.57C175.427 101.369 169.451 102.431 165.164 99.68C163.047 92.4746 158.566 87.9738 158.566 87.9738C158.566 87.9738 171.154 93.5898 175.401 101.57ZM182.873 115.773C182.873 115.773 184.142 115.8 184.85 116.268C184.837 116.268 185.584 117.016 185.584 117.436C186.586 115.787 186.853 113.743 186.853 113.743C186.853 113.743 186.653 111.78 186.119 110.431C186.119 110.431 186.626 113.884 182.873 115.773ZM51.0869 89.6099C85.4575 88.3144 113.491 103.907 128.089 122.752C124.195 112.869 116.523 101.116 96.2288 91.8937C96.2288 91.8937 119.514 96.8152 135.474 110.338C129.731 98.6182 120.89 93.9771 120.89 93.9771C120.89 93.9771 142.352 97.6833 153.524 116.722C156.837 115.379 161.718 115.112 166.246 112.067C158.025 110.758 152.129 106.144 152.129 106.144C159.321 107.74 163.508 104.328 163.381 103.974C151.114 82.8052 119.695 73.2559 119.835 73.4429C158.346 72.8619 175.033 90.8586 181.391 101.069C181.177 101.65 180.629 102.097 179.501 102.184C179.501 102.184 180.77 104.708 183.254 104.001C189.204 102.324 186.119 96.6816 186.119 96.6816C177.658 80.0139 163.374 68.7017 143.401 63.0322C127.013 58.7851 111.08 59.2659 111.033 59.2526C92.1353 59.2793 63.2939 59.2659 63.2939 59.2659C84.3624 61.4229 96.2489 70.1975 97.8048 71.3795H79.3874C79.3874 71.3795 98.9734 77.4028 104.235 81.3227C70.8999 72.3811 51.0869 89.6099 51.0869 89.6099Z" fill="white"/>
</g>
<defs>
<clipPath id="clip0_15016_304308">
<rect width="200" height="200" fill="white" transform="translate(0 0.25)"/>
</clipPath>
</defs>
</svg>
