<svg width="200" height="200" viewBox="0 0 200 200" fill="none" xmlns="http://www.w3.org/2000/svg">
<path d="M117.81 62.6712L117.603 63.3225H118.287H193.333V97.7095H182.907V93.6259C182.907 87.3679 181.037 82.3797 177.476 78.9581C173.917 75.5393 168.737 73.7482 162.24 73.7482H160.911C157.166 73.7482 153.371 74.7336 150.499 76.8568C147.609 78.9928 145.68 82.2636 145.68 86.7426V107.185V107.685H146.18H155.211C155.532 107.685 155.835 107.539 156.089 107.364C156.353 107.183 156.621 106.932 156.883 106.639C157.408 106.051 157.955 105.242 158.45 104.326C159.435 102.504 160.265 100.162 160.265 98.1548V95.179H170.691V132.195H160.265V129.22C160.265 127.212 159.435 124.87 158.45 123.048C157.955 122.132 157.408 121.323 156.883 120.735C156.621 120.441 156.353 120.191 156.089 120.009C155.835 119.835 155.532 119.689 155.211 119.689H146.18H145.68V120.189V151.894C145.68 153.72 147.163 155.205 148.989 155.205H160.424V165.631H104.451V155.205H115.621C117.591 155.205 119.195 153.603 119.195 151.632V83.2791C119.195 79.2878 117.19 76.7278 114.419 75.2849L113.892 75.0102L113.712 75.577L94.3082 136.676H83.9223L68.2593 82.7963L67.8003 81.2174L67.3026 82.7845L50.1877 136.676H39.8017L13.754 47.0708C13.7539 47.0707 13.7539 47.0706 13.7539 47.0706C13.3642 45.7276 12.1174 44.7928 10.7203 44.7928H6.66797V34.3672H44.5386V44.7928H41.5628C40.3715 44.7928 39.2741 45.3408 38.5591 46.2941C37.8445 47.2469 37.6233 48.4527 37.9568 49.5979C37.9569 49.598 37.9569 49.5981 37.9569 49.5982L49.7179 90.0605L50.1768 91.6396L50.6745 90.0723L60.9129 57.8312L60.9589 57.6863L60.9165 57.5403L57.8734 47.0708C57.4838 45.7277 56.237 44.7928 54.8398 44.7928H50.7874V34.3672H88.6569V44.7928H85.6823C84.4909 44.7928 83.3937 45.3408 82.6777 46.2938L82.6774 46.2941C81.9625 47.2473 81.7429 48.4543 82.0752 49.5979L82.0752 49.5979L93.8373 90.0616L94.2963 91.6406L94.794 90.0734L106.32 53.7776C106.993 51.659 106.625 49.4104 105.313 47.617C104.001 45.8236 101.969 44.7928 99.7474 44.7928H94.9046V34.3672H129.843V44.7928H126.867C124.847 44.7928 123.077 46.0888 122.465 48.0135L122.942 48.1649L122.465 48.0135L117.81 62.6712Z" fill="black" stroke="white"/>
<path d="M113.054 66.1473L112.847 66.7986H113.531H117.951L189.853 66.7975V94.2341H186.378V93.6262C186.378 86.2631 184.058 80.4082 179.843 76.3961C175.631 72.3873 169.584 70.2738 162.235 70.2738H160.907C155.785 70.2738 151.113 71.7798 147.713 74.603C144.303 77.434 142.199 81.5675 142.199 86.7429V110.661V111.161H142.699H155.206C156.473 111.161 157.64 110.584 158.658 109.709C159.676 108.835 160.575 107.636 161.32 106.317C162.701 103.872 163.603 100.924 163.723 98.6551H167.212V128.721H163.723C163.603 126.452 162.701 123.504 161.32 121.059C160.575 119.741 159.676 118.542 158.658 117.667C157.64 116.792 156.473 116.216 155.206 116.216H142.699H142.199V116.716V151.896C142.199 155.643 145.237 158.681 148.985 158.681H156.942V162.156H107.92V158.681H115.614C119.507 158.681 122.663 155.525 122.663 151.632V83.2794C122.663 79.883 121.551 77.0956 119.652 74.9837C117.757 72.8774 115.106 71.4704 112.064 70.7782L111.616 70.6762L111.477 71.1144L91.759 133.202H86.5246L84.1005 124.863L68.3998 70.8523L67.9408 69.2733L67.4431 70.8405L47.6384 133.202H42.4052L39.9811 124.863L17.0852 46.1017C17.0851 46.1016 17.0851 46.1016 17.0851 46.1016C16.2617 43.2675 13.6658 41.3185 10.7144 41.3185H10.1367V37.8433H41.0569V41.3352C36.5018 41.6416 33.3146 46.104 34.6127 50.5687L49.5655 102.006L50.0245 103.585L50.5222 102.018L64.5404 57.8763L64.5864 57.7314L64.544 57.5854L62.696 51.2275L62.6959 51.2275L61.2057 46.1017C60.3823 43.2676 57.7864 41.3185 54.835 41.3185H54.2573V37.8433H85.1764V41.3352C80.6213 41.6416 77.434 46.104 78.7321 50.5686L93.685 102.006L94.1439 103.585L94.6416 102.018L109.627 54.8299C111.752 48.1417 106.76 41.3185 99.7415 41.3185H98.3745V37.8433H126.361V41.3338C123.043 41.538 120.164 43.7614 119.147 46.9629L113.054 66.1473Z" fill="#CEB888" stroke="white"/>
</svg>
