<svg width="200" height="201" viewBox="0 0 200 201" fill="none" xmlns="http://www.w3.org/2000/svg">
<path fill-rule="evenodd" clip-rule="evenodd" d="M118.409 182.753C118.409 182.753 126.897 179.137 131.532 165.109C135.626 173.66 134.556 182.445 134.556 182.445C130.804 183.294 118.409 182.753 118.409 182.753ZM163.947 102.55C163.947 102.55 169.125 130.733 150.817 131.696C133.144 132.622 124.813 106.036 124.813 106.036C124.813 106.036 129.079 157.992 153.841 154.57C181.759 150.72 163.947 102.55 163.947 102.55ZM29.3996 176.047C29.4101 176.042 29.4258 176.042 29.4383 176.042C50.0928 171.34 65.9033 147.224 70.5568 137.543L73.5057 131.411L75.2794 137.98C75.3777 138.34 77.2958 145.57 77.2958 155.131C77.2958 156.182 77.2665 157.274 77.2142 158.377C84.3404 158.643 89.4229 157.202 92.5905 153.914C97.1184 149.212 98.4913 140.317 96.7877 126.729C95.9715 120.226 93.5626 109.875 91.4352 100.745C90.348 96.0735 89.3225 91.6576 88.6988 88.5361C84.714 68.5608 89.6553 56.17 94.5034 49.2939C95.2659 48.2182 96.0909 47.1881 96.974 46.209C82.685 51.0205 70.7012 58.5014 58.3324 70.8504L67.0345 80.9526L70.5872 77.6229C73.9431 90.1549 71.5321 101.702 71.5321 101.702C66.9623 94.7216 61.5491 89.0666 61.5491 89.0666L63.9266 85.0986L56.0847 75.9894L55.169 74.9754C45.5324 88.2138 42.4088 99.0548 42.4088 99.0548L49.2515 105.303L53.2436 108.912L54.5705 105.079C61.9206 118.843 55.2078 131.712 55.2078 131.712C53.9991 127.014 49.1552 120.081 49.1552 120.081L51.0691 113.777L40.8947 104.559C30.3111 137.632 16.1602 148.353 16.1602 148.353C16.1602 148.353 31.4695 145.591 39.9874 142.725C39.9874 142.723 39.7509 160.15 29.3996 176.047Z" fill="#913140"/>
<path fill-rule="evenodd" clip-rule="evenodd" d="M183.828 56.7438L159.382 57.7756C159.404 60.6543 159.02 63.5686 158.079 66.3207C160.364 76.2974 158.79 81.7179 158.79 81.7179C154.699 72.2059 151.574 69.5615 151.574 69.5615C129.131 59.5796 116.533 82.1397 117.876 96.684C118.976 108.649 123.31 124.509 126.697 149.394C129.547 170.342 118.951 179.398 106.742 181.478C106.476 181.52 106.214 181.573 105.944 181.609C105.879 181.613 105.818 181.624 105.754 181.63C103.661 181.892 101.552 181.993 99.4439 181.933C99.3717 181.926 99.2932 181.926 99.22 181.921C98.9803 181.916 98.7334 181.895 98.4927 181.884C97.5517 181.827 96.6131 181.735 95.6788 181.609C86.1961 180.303 64.9326 176.443 42.9868 175.908C55.8977 168.37 65.9978 155.319 71.6329 146.07C71.9636 148.63 72.2346 151.761 72.2346 155.199C72.2346 156.926 72.1666 158.722 72.0054 160.563L71.7867 163.085L74.3065 163.303C84.4088 164.183 91.5852 162.259 96.2408 157.425C101.975 151.465 103.747 141.514 101.812 126.1C100.963 119.332 98.522 108.851 96.3684 99.5962C95.2906 94.9668 94.2745 90.5927 93.6655 87.5497C90.0344 69.3324 94.3677 58.2758 98.6434 52.2086C101.999 47.4494 106.62 43.9742 111.685 42.3051C111.775 42.2894 111.867 42.2685 111.957 42.2528L120.29 16.6445H122.906L117.3 41.2545C118.604 41.0306 119.925 40.8182 121.267 40.6141L128.457 17.9191H131.061L126.354 39.9025C133.789 38.9377 141.887 38.1958 150.845 37.5303C152.305 38.1278 153.866 39.7979 155.249 42.1492L178.768 34.8974L179.636 37.4309L157.164 46.1654C157.342 46.6279 157.507 47.1062 157.668 47.5907L182.251 44.5319L182.658 47.1805L158.796 51.9417C158.88 52.3812 158.958 52.8291 159.026 53.2822L183.844 54.067L183.828 56.7438ZM113.024 67.7292C117.956 64.2697 126.334 61.6139 134.193 62.2156C136.194 62.3715 137.879 61.8462 135.732 60.7098C129.844 57.6019 116.128 58.6556 111.276 61.9718C103.511 67.274 104.815 76.7087 105.01 76.9483C106.554 74.2339 109.186 70.4217 113.024 67.7292Z" fill="#913140"/>
</svg>
