<svg width="201" height="201" viewBox="0 0 201 201" fill="none" xmlns="http://www.w3.org/2000/svg">
<path d="M138.245 35.9339V66.8409H151.985C150.181 73.5527 145.599 90.5986 141.332 106.477C135.859 84.4474 123.808 35.9322 123.808 35.9322L94.6701 35.9339C94.6701 35.9339 81.6376 84.4542 75.725 106.451C71.7829 90.5135 67.5615 73.4583 65.9236 66.8409H80.4094V35.9339H7.76562V66.8409H22.8196C24.4607 73.4114 47.3132 164.829 47.3132 164.829L88.5374 164.831C88.5374 164.831 96.3128 135.276 101.04 117.303C105.538 135.285 112.93 164.829 112.93 164.829L154.148 164.831C154.148 164.831 178.221 73.3251 179.924 66.8426H194.906V35.9356L138.245 35.9339ZM190.231 62.1683H176.324C176.324 62.1683 150.851 159.001 150.549 160.156H116.57C116.28 158.989 101.158 98.4982 101.158 98.4982C101.158 98.4982 85.2371 159.007 84.9379 160.156H50.9591C50.6656 158.981 26.4604 62.1683 26.4604 62.1683H12.4374V40.6041H75.7368V62.1683H59.9562L75.5395 125.145C75.5395 125.145 97.9434 41.7556 98.2527 40.6024H120.153C120.448 41.7776 141.152 125.136 141.152 125.136L158.071 62.1632H142.914V40.599H190.23L190.231 62.1683Z" fill="#E8D3A2"/>
<path d="M142.914 40.6051V62.1693H158.071L141.152 125.137C141.152 125.137 120.447 41.7776 120.152 40.6025H98.2512C97.9438 41.7499 75.538 125.137 75.538 125.137L59.9547 62.1634H75.7369V40.5992H12.4351V62.1634H26.4614C26.4614 62.1634 50.6633 158.971 50.9584 160.151H84.938C85.2361 159.002 101.154 98.4933 101.154 98.4933C101.154 98.4933 116.282 158.984 116.569 160.151H150.548C150.851 158.993 176.321 62.1634 176.321 62.1634H190.234V40.5992L142.914 40.6051Z" fill="#33006F"/>
</svg>
