<svg width="200" height="200" viewBox="0 0 200 200" fill="none" xmlns="http://www.w3.org/2000/svg">
<path d="M193.098 132.641H189.522H118.004C113.597 132.641 109.771 134.387 107.36 137.298C105.946 135.634 104.116 134.304 101.871 133.555C100.042 132.973 98.0457 132.641 95.8004 132.641H12.2245H8.14969H0L6.48649 137.63L9.72973 140.125L12.474 142.204L16.2162 155.51L18.9605 165.572L19.8753 168.898C20.3742 170.645 21.0395 173.223 24.2827 173.223H24.6154H24.7817H24.8649C58.2952 167.401 90.894 166.819 103.368 166.819C106.445 166.819 108.358 166.902 108.94 166.902C109.522 166.902 113.347 167.152 115.26 167.152C150.353 167.568 173.056 171.31 180.457 172.557C182.703 172.89 183.285 173.056 183.867 173.056C184.532 173.056 185.114 172.973 185.613 172.724H185.696L185.863 172.641L186.029 172.557L186.112 172.474C187.775 171.476 187.859 169.647 187.942 167.734C187.942 167.069 188.025 166.237 188.108 165.156C188.274 162.994 188.524 160 188.773 156.84C189.189 151.435 189.688 144.865 189.938 142.204L192.266 140.042L194.844 137.63L200 132.807L193.098 132.641Z" fill="#A1A1A4"/>
<path d="M166.487 41.0818C166.487 40.9986 167.235 38.8365 167.235 38.8365C167.235 38.6701 167.901 35.5932 167.901 35.5932C167.901 35.5932 165.572 37.8385 161.664 40.0007C159.668 41.0818 153.098 43.4103 146.861 42.9113C140.624 42.4123 134.969 42.0797 131.643 42.4123C131.476 42.3292 131.393 42.1629 131.393 42.1629C129.73 40.9155 127.152 40.7491 124.74 40.0007C125.406 39.4186 127.402 37.5891 127.402 37.5891L120.167 37.0069C113.763 36.508 110.77 36.9238 105.863 39.0028C100.624 37.0901 91.1437 35.0111 85.572 36.508L78.9192 38.2543C78.9192 38.2543 80.5824 39.3354 81.2477 39.7512C78.8361 40.4997 78.0045 41.4144 75.0107 42.745C75.0107 42.745 72.9317 43.6597 72.599 43.8261C67.7758 43.3271 63.2851 43.4103 61.3724 43.4934C56.466 40.666 51.1437 38.5038 46.9857 36.9238C42.6614 35.4269 42.0793 32.9321 40.7487 31.4352L37.1729 26.7782C37.1729 26.7782 37.6718 34.8448 37.6718 36.0922C37.5887 39.4186 38.7529 46.2377 46.9026 54.2211H46.8194L50.4785 59.2107C52.0585 61.3728 54.3038 63.4519 56.9649 65.3645C54.2207 67.1109 49.1479 66.6951 47.0689 66.7783L39.6677 67.1109L45.0731 72.0173C46.4036 73.2647 49.3974 75.4269 51.4764 76.0922C51.1437 80.2502 49.8963 83.9924 49.2311 85.4061C48.5658 86.8198 43.0772 95.718 43.0772 95.718C43.0772 95.718 50.4785 93.3895 51.4764 93.14C43.1604 105.614 60.2082 133.057 60.2082 133.057L63.2851 127.069C63.2851 127.069 63.6178 126.404 63.7009 126.321C63.7841 127.485 64.283 130.562 64.9483 133.888L66.861 142.62L70.52 134.304C71.4348 132.142 72.6822 130.063 74.1791 127.818C74.1791 128.4 76.0086 140.708 76.0086 140.708L81.3309 131.477C83.9088 127.402 89.0647 123.992 91.4764 122.412C92.1417 123.992 106.362 129.98 117.838 121.747C119.501 123.826 123.826 126.57 124.907 129.148L129.065 139.128L132.308 127.069L137.547 139.211C137.547 139.211 144.283 122.994 146.029 112.017C146.778 113.514 149.772 123.078 149.772 123.078C149.772 123.078 152.1 115.427 152.35 109.19C152.433 107.194 152.516 104.782 151.102 100.874C151.601 101.622 155.426 106.778 155.426 106.778C155.426 106.778 154.844 90.8115 151.851 83.6597C150.271 80.0839 148.025 77.4227 146.778 75.1774C147.027 74.9279 148.358 75.0111 149.688 72.1005C150.853 69.5225 152.765 67.693 152.765 67.693L147.609 67.1941C145.946 67.1941 144.948 66.5288 143.119 65.7803C146.612 65.7803 150.437 63.2024 150.437 63.2024C153.264 60.1254 159.751 57.0485 166.487 41.0818Z" fill="black"/>
<path d="M153.264 55.2207C151.518 56.6344 146.777 59.0461 145.281 58.8798C145.364 58.9629 149.439 60.044 149.439 60.044C147.858 61.7904 146.445 62.5388 143.784 63.4536C140.956 64.4515 137.463 64.2852 134.553 63.7031C138.295 67.6116 142.037 69.9401 146.944 69.9401C145.447 71.6864 144.782 73.9317 142.37 74.3475C144.698 76.7592 149.189 81.6656 150.104 94.7218C148.69 92.8091 145.031 91.6448 142.037 89.4827C150.104 98.2145 149.938 104.95 149.522 113.017C148.441 110.772 147.027 107.778 144.865 104.368C144.698 116.177 137.048 131.562 137.048 131.562C137.048 131.562 134.47 119.254 129.314 115.761C130.728 120.418 129.646 125.075 128.399 128.734C126.403 123.828 121.497 121.25 117.838 117.923C107.193 126.156 93.9708 121.333 93.1392 118.173C87.9832 119.587 81.7462 125.325 78.8356 129.898C78.6693 125.408 75.8419 119.753 78.5862 116.011C72.5986 120.585 70.4365 126.905 67.7753 133.142C66.5279 124.826 64.6153 118.256 66.4448 110.439C61.9541 114.264 60.7899 125.574 60.7899 125.574C57.713 117.009 47.4011 100.959 59.0435 87.8195C57.3803 88.3184 52.3907 88.7342 51.3097 88.9837C55.2182 81.6656 54.8855 80.0856 56.4656 74.6802C54.3866 74.9297 50.2286 71.6864 48.0664 69.7737C53.3887 69.5243 59.4593 69.1916 64.6153 63.7031C63.3679 63.8694 136.05 45.8236 139.792 45.7405C148.357 45.4078 160.915 45.5742 163.742 41.832C163.825 42.1646 161.497 48.5679 153.264 55.2207Z" fill="white"/>
<path d="M112.932 114.513C112.433 114.845 111.601 114.929 110.437 114.762C110.354 114.762 110.271 114.679 110.188 114.596C110.188 114.679 110.188 114.762 110.188 114.929C109.772 115.427 107.693 115.511 107.526 115.095C107.443 115.261 107.36 115.344 107.194 115.427C105.281 115.594 104.616 115.261 104.616 114.762C104.616 114.929 104.533 115.095 104.533 115.261C103.951 115.677 102.786 115.178 102.204 115.178C101.955 115.095 101.872 114.929 101.872 114.762C101.705 115.012 101.456 115.178 101.123 115.261C99.9589 115.427 98.7115 115.677 98.2125 114.43C97.1314 111.935 97.3809 110.355 97.7135 108.109C98.3788 110.438 101.539 111.436 102.038 113.847V113.931C102.37 113.099 103.036 112.184 103.618 111.685C104.034 112.517 104.616 113.681 104.699 114.596C104.782 114.014 105.364 113.182 105.614 112.517C105.78 112.351 105.78 112.018 105.946 112.018C106.279 112.683 107.027 113.598 107.36 114.346C107.36 113.432 108.025 112.6 108.608 111.685C108.774 112.351 109.439 112.85 109.855 113.515C109.938 112.766 110.271 111.935 110.77 111.353C112.183 109.773 113.181 108.858 113.431 107.361C114.429 110.604 114.013 113.681 112.932 114.513ZM119.834 88.151C119.169 90.8953 117.589 94.9701 115.26 97.1323C116.092 94.0553 114.761 91.0616 114.928 88.0678C114.678 87.9847 114.429 87.9847 114.262 87.9015C113.93 88.4005 113.431 88.8994 113.015 89.6479C111.768 88.7331 111.352 87.3194 111.269 86.1551C111.185 86.1551 111.185 86.072 111.102 86.072C110.687 87.0699 109.772 87.9847 109.19 88.8163C108.192 87.7352 107.61 86.7373 107.443 85.6562H107.111C106.695 86.7373 105.78 87.9015 104.948 88.7331C104.2 88.2341 103.535 87.3194 103.202 86.3215C103.119 86.3215 103.036 86.4046 102.953 86.4046C102.454 87.5689 101.539 88.9826 101.123 89.9805C100.208 89.3152 99.7094 88.4836 99.5431 87.4857C99.3767 87.4857 99.2936 87.5689 99.1273 87.5689C98.8778 88.4005 98.7115 89.1489 98.6283 89.3984C98.2125 91.81 97.963 92.2258 98.2957 96.0512C96.2998 94.0553 94.0545 91.3942 93.2229 88.8163C90.2291 89.731 86.1543 89.2321 81.9963 86.9036C78.0046 86.5709 86.9859 103.12 92.8071 109.107C95.8009 112.85 96.1335 117.59 98.6283 117.59C103.951 118.504 105.198 118.255 112.433 117.423C117.173 115.261 115.26 110.188 116.508 106.613C118.254 100.459 118.919 97.4649 122.163 91.7269C123.743 88.4836 122.163 88.151 119.834 88.151Z" fill="black"/>
<path d="M40.5823 35.2612C40.5823 35.2612 40.0834 39.5024 42.994 44.9078C44.4909 47.6521 49.3973 54.8038 57.8796 57.7144C55.6343 57.4649 54.0543 57.2986 53.1395 57.5481C54.2206 58.7955 54.5532 60.5419 60.2913 64.0346C61.206 64.4504 63.9503 63.9514 64.283 63.7851C64.3661 63.7851 64.283 63.7851 64.1998 63.9514C62.204 65.1157 60.7902 66.5294 59.7091 67.9431C58.1291 70.1884 53.6385 71.7685 52.8069 71.8516C53.4721 72.5169 56.9649 74.6791 60.6239 74.0138C57.2975 76.7581 57.2975 82.1635 55.9669 86.3215C58.8775 85.4067 62.0376 85.9057 61.9545 85.9888C52.8069 101.041 59.4597 114.929 59.8755 117.673C59.8755 117.673 63.4514 109.606 68.5241 103.369C67.6094 110.438 68.6073 117.34 70.2705 123.744C72.6821 111.186 73.0979 104.534 81.2476 95.5523C79.6676 90.8953 77.3391 88.5668 80.915 85.8225C73.68 77.0907 77.6717 71.4358 83.6593 68.6916C81.1645 68.6916 78.337 68.2758 76.757 66.3631C74.9274 64.1178 75.5927 63.0367 76.6738 62.6209C77.7549 62.2051 80.7486 61.9556 82.1624 63.5356C84.9067 66.6125 84.6572 65.8641 85.4056 66.6957C85.7383 67.0284 86.1541 67.2778 86.653 67.4442C88.8983 66.7789 91.1437 66.5294 93.0563 66.5294C93.5553 66.5294 94.1374 66.4462 94.6364 66.3631C96.2996 66.2799 97.3807 66.2799 97.3807 66.2799C97.1312 66.1968 96.9649 66.1136 96.7986 66.0304C97.7133 65.8641 98.3786 65.6978 98.3786 65.6978L98.6281 60.0429C98.6281 60.0429 99.626 65.5315 100.125 67.5273C100.291 71.519 101.289 72.6832 101.289 72.6832C101.289 72.6832 108.358 70.6042 116.092 74.0138C116.84 71.4358 116.674 67.6936 116.341 64.6167L117.505 67.4442C117.505 67.4442 125.322 62.3714 133.888 62.8704C135.801 62.704 142.952 61.2903 146.279 59.2945C145.697 59.1282 143.618 57.6313 143.701 56.7165C143.701 56.467 150.52 54.2217 152.932 52.808C158.337 49.6479 163.742 41.914 163.742 41.914C163.742 41.914 161.331 44.1593 155.343 44.6583C145.863 45.5731 129.647 45.0741 127.318 47.1531C127.734 45.4067 128.067 45.0741 128.233 44.3257C128.15 44.3257 128.067 44.4088 127.984 44.4088C128.15 44.3256 128.233 44.2425 128.233 44.2425C128.233 44.2425 126.902 41.1656 118.337 41.7477C117.921 41.7477 120.499 40.0845 120.167 40.0013C117.173 39.0034 109.772 39.6687 106.029 42.3298C101.206 39.4192 91.8089 38.1718 86.4035 39.3361C85.9877 39.4192 88.732 40.9993 88.3162 40.9993C81.4971 41.2487 76.4243 45.4899 76.4243 45.4899C76.4243 45.4899 77.7549 46.571 77.838 47.7352C72.3495 46.1552 64.4493 45.9888 60.7071 46.4878C56.6322 43.2446 48.1499 40.4171 43.5761 37.9223C42.3287 36.6749 41.2476 35.4275 40.5823 35.2612ZM87.0688 58.3797C87.3183 58.3797 87.6509 58.4629 87.9836 58.546C90.4784 59.2945 93.7216 64.1178 93.7216 64.1178C93.7216 64.1178 89.231 62.2051 86.8193 61.2072C84.574 60.2924 85.1561 58.2965 87.0688 58.3797ZM125.655 60.9577C127.734 61.124 127.152 62.8704 125.406 63.4525C123.659 63.9514 120.416 65.1157 119.169 65.781C119.169 65.781 123.576 60.7082 125.655 60.9577ZM105.697 97.5481C105.281 97.5481 104.948 97.6313 104.532 97.7144C103.451 97.9639 105.281 103.203 105.281 103.868C104.449 103.037 102.37 97.8807 102.453 97.8807C97.2143 96.7165 96.7986 99.2113 96.7986 99.2113C96.5491 107.361 101.705 110.854 101.705 110.854L102.786 109.606L104.532 111.103L105.614 109.107L107.277 111.186C107.277 111.186 108.108 109.523 108.857 109.107C109.106 108.941 109.522 110.355 109.688 110.188C113.846 105.531 111.185 98.9618 111.185 98.9618C111.185 98.9618 108.358 97.4649 105.697 97.5481Z" fill="#A1A1A4"/>
<path d="M101.788 75.6774C101.788 75.6774 97.131 69.5236 104.283 70.6878C109.355 71.5194 109.605 72.1847 113.68 71.1036C117.838 70.0226 116.507 75.428 115.426 75.2616C113.513 71.8521 109.854 74.929 110.936 76.1764C111.767 77.0912 112.1 77.507 112.017 78.1722C111.933 78.8375 108.274 82.5797 108.69 83.0787C109.106 83.5776 112.432 83.6608 113.846 85.2408C110.852 84.825 105.696 83.6608 100.457 84.7419C99.9584 84.2429 104.782 83.1618 106.362 83.1618C107.942 83.1618 104.532 78.588 104.615 77.5901C105.031 76.5922 105.946 76.509 106.195 75.8438C106.611 74.7627 106.195 73.6816 104.782 73.6816C102.121 73.5153 101.871 74.8458 101.788 75.6774Z" fill="black"/>
<path d="M98.4614 56.1343C97.214 56.3838 96.8813 56.2175 95.8834 56.3006C95.2181 56.5501 94.4697 56.8827 94.8855 58.2133C95.2181 59.627 96.2992 62.205 96.8813 64.0345C92.8065 59.7102 91.7254 56.5501 81.4967 52.5584C85.4053 55.8848 88.3159 58.047 92.4739 63.4524C87.6506 61.8723 82.661 59.3775 78.503 57.4649C79.0851 58.4628 80.1662 59.5439 80.8315 60.3755C79.5841 60.7081 75.5092 60.5418 73.6797 63.8682C76.3408 63.2861 79.4177 63.0366 82.162 63.3692C82.4115 62.2881 83.9084 62.6208 84.5737 62.9534C83.7421 64.7829 84.0747 67.4441 85.9042 68.1093C88.1495 68.5251 89.3969 67.8599 91.9749 67.5272C94.636 67.3609 96.0497 67.8599 97.7129 68.2757C99.2098 68.6915 100.208 68.8578 100.208 68.8578C99.7919 65.864 98.9604 61.3734 98.4614 59.2112C99.7088 59.0449 101.871 58.7954 101.455 58.1301C99.5425 52.8079 98.5445 51.1447 97.4635 48.7331C97.6298 51.1447 97.8793 53.2237 98.4614 56.1343Z" fill="black"/>
<path d="M115.676 57.6316C116.674 57.9643 117.09 57.7979 117.921 57.9643C118.504 58.2137 118.836 59.378 118.337 60.4591C117.921 61.7065 117.838 62.5381 117.256 64.1181C119.335 60.2928 124.824 58.7127 130.395 56.3842C126.154 60.2096 123.909 61.2075 120.167 65.2824C123.992 63.7023 128.483 62.0391 132.724 60.8749C132.142 61.7065 131.144 62.6212 130.479 63.2865C131.56 63.7023 132.558 64.3676 133.556 64.9497C132.059 66.2803 131.809 66.2803 130.146 67.2782C130.063 65.6981 127.984 65.0329 127.069 64.6171C127.734 66.114 128.067 69.4404 125.073 70.0225C123.077 70.272 121.996 69.1077 120 68.9414C119.252 68.6088 119.501 67.5277 119.501 66.7792C118.753 67.6108 118.753 68.2761 118.005 68.8582L116.757 69.4404C116.341 66.0308 115.26 62.2886 115.177 60.4591C114.096 60.2096 111.851 59.5443 112.267 58.9622C114.262 54.4715 118.587 51.6441 120.666 49.8977C120.416 51.8104 116.341 55.1368 115.676 57.6316Z" fill="black"/>
<path d="M88.3157 61.9524C87.1515 61.9524 86.3199 63.283 86.403 64.6136C86.4862 66.1104 87.4841 67.6073 89.0642 67.6073C91.3927 67.5242 92.1411 66.2768 92.1411 64.6967C92.1411 64.1978 91.9748 63.283 91.559 63.1167C91.06 62.9504 90.5611 62.784 90.2284 62.6177C90.3116 62.6177 90.3116 62.7009 90.3116 62.7009C90.5611 62.8672 90.5611 64.1146 90.5611 64.2809C90.5611 65.4452 89.8126 66.7757 89.3137 66.6094C88.8979 66.5262 88.2326 65.5283 88.1494 64.6136C87.9831 63.5325 88.3157 62.2019 89.2305 62.2851C89.1473 62.2851 88.8979 62.1188 88.8147 62.1188C88.6484 62.0356 88.482 61.9524 88.3157 61.9524ZM124.241 63.782C124.158 63.782 124.158 63.782 124.075 63.782C123.991 63.782 123.908 63.8651 123.825 63.8651C124.158 63.8651 124.574 64.9462 124.574 65.1125C124.906 66.4431 124.657 68.1894 123.659 68.4389C123.243 68.6052 122.578 67.6073 122.411 66.6094C122.245 65.6115 122.328 64.6136 122.744 64.2809C122.495 64.3641 122.328 64.4472 122.079 64.5304C120.831 64.9462 120.748 67.2747 121.497 68.2726C122.328 69.2705 123.991 69.52 124.989 68.6884C125.987 67.7737 126.07 66.0273 125.405 64.9462C125.239 64.6136 124.657 63.8651 124.241 63.782ZM134.885 65.861C133.887 70.019 126.819 71.0169 127.401 71.0169C131.725 70.8506 136.632 80.0813 131.309 84.572C127.817 87.1499 128.399 86.5678 124.407 88.0647C126.653 88.9795 126.736 90.2269 123.077 95.8818C136.798 97.8776 136.05 120.081 136.549 123.491C140.208 118.085 141.372 112.846 142.536 102.202C142.619 101.37 144.116 101.204 145.779 103.034C145.613 101.62 144.698 95.2996 140.873 92.3059C140.374 88.73 139.459 87.5657 138.461 86.3183C138.212 86.0689 144.116 86.3183 147.526 89.9774C146.361 80.0813 139.792 74.4265 139.792 74.4265C139.792 74.4265 143.783 72.5138 144.033 71.599C139.875 71.6822 135.551 69.1042 134.885 65.861ZM70.0205 80.4971C68.0247 82.9088 66.0288 86.3183 64.4488 97.1292C66.6941 94.6344 67.7752 92.7217 67.7752 92.7217C67.7752 92.7217 64.4488 106.859 70.1037 123.99C71.85 116.256 72.0164 109.187 76.4238 101.952C72.1827 94.8007 71.0184 88.3142 70.0205 80.4971ZM8.14941 135.383L11.3927 137.878L14.8022 140.539L18.7939 154.759L21.6213 164.821L22.5361 168.148C23.0351 169.811 23.2014 170.393 24.1993 170.393H24.2825H24.3656C58.0455 164.572 90.8105 163.907 103.285 163.907C106.86 163.907 108.939 163.99 109.023 163.99C109.189 163.99 113.347 164.239 115.26 164.239C150.603 164.655 173.388 168.397 180.873 169.645C182.786 169.977 183.451 170.061 183.867 170.061C184.116 170.061 184.282 170.061 184.532 169.977L184.615 169.894L184.698 169.811C185.364 169.395 185.114 168.231 185.447 164.655C186.029 158.169 187.027 143.2 187.443 140.539L190.519 137.711L193.097 135.3H189.522H118.004C112.349 135.3 108.108 138.709 107.359 143.616C106.694 139.458 103.784 136.963 100.956 136.048C99.4592 135.549 97.7128 135.3 95.8001 135.3H12.2243L8.14941 135.383Z" fill="#4B2682"/>
<path d="M82.744 70.6029C82.744 70.6029 81.0808 71.2682 80.7482 72.9314C80.7482 72.9314 84.4904 72.3492 96.2159 74.1788C89.6463 70.3534 82.744 70.6029 82.744 70.6029ZM128.815 72.7651C128.815 72.7651 123.576 72.5156 118.586 76.1746C127.484 74.3451 130.312 74.9272 130.312 74.9272C130.062 73.4303 128.815 72.7651 128.815 72.7651ZM79.9997 74.1788C79.9997 74.1788 79.2513 75.5925 79.2513 77.0062C79.2513 77.0062 85.6546 76.0915 97.1307 77.921C91.8916 74.4283 79.9997 74.1788 79.9997 74.1788ZM130.894 76.0915C130.894 76.0915 121.912 76.4241 117.921 79.5842C126.653 77.8378 131.476 78.6694 131.476 78.6694C131.393 77.422 130.894 76.0915 130.894 76.0915ZM84.9893 78.3368C81.5798 78.2536 79.085 78.6694 79.085 78.6694C79.085 78.6694 79.1681 80.1663 79.5839 81.1642C79.5839 81.1642 87.0683 80.4158 96.7981 81.1642C92.8895 79.0852 88.3989 78.5031 84.9893 78.3368ZM128.898 80C126.237 79.9168 121.912 80.2495 118.17 82.7443C125.571 82.079 131.06 82.6611 131.06 82.6611C131.642 81.9127 131.476 80.3326 131.476 80.3326C131.476 80.3326 130.478 80.0831 128.898 80Z" fill="black"/>
<path d="M53.4717 50.8107C57.3802 54.1371 62.453 57.2971 67.4426 57.0477C66.4447 56.3824 65.5299 55.6339 64.4488 54.9687V54.636C66.1952 54.4697 67.7752 53.6381 69.3553 53.1391C63.4509 53.3055 58.9602 53.3055 53.4717 50.8107ZM155.509 50.8938C150.187 53.1391 145.031 55.7171 138.295 54.636C140.124 55.3845 141.289 56.2161 143.118 56.9645C140.291 59.7088 137.463 61.5383 133.721 62.952C137.547 62.7025 141.538 62.8689 144.865 60.6235C144.865 60.6235 146.611 59.7088 146.86 57.7129C150.104 56.715 154.095 52.8897 155.509 50.8938Z" fill="black"/>
<path d="M88.3991 62.0378C88.0664 62.0378 87.7338 62.121 87.5675 62.3705C87.1517 62.7863 88.9812 64.4495 88.9812 64.4495C88.9812 64.4495 89.3138 62.8694 88.898 62.0378C88.9812 62.0378 88.7317 61.9547 88.3991 62.0378ZM123.16 64.1168C123.16 64.1168 122.162 64.2 121.829 64.6158C121.497 65.0316 123.576 66.6948 123.576 66.6948C123.576 66.6948 123.659 64.8653 123.16 64.1168ZM145.197 139.377L140.208 151.185C137.131 158.42 136.466 159.917 135.717 160V160.416C136.299 160.416 137.131 160.499 138.461 160.583C139.543 160.666 140.624 160.666 141.622 160.749V160.333C140.624 160.25 141.123 158.42 142.204 155.676H148.524C149.605 158.42 150.353 160.749 149.355 160.832V161.248C150.353 161.331 151.518 161.414 152.682 161.497C154.012 161.58 155.01 161.747 155.676 161.747V161.248C154.844 161.165 153.929 158.337 150.935 151.185L146.029 139.377H145.197ZM117.838 139.543C113.68 139.543 111.351 142.121 111.351 145.198C111.351 147.277 112.266 148.857 114.179 150.271C114.927 150.853 115.676 151.435 116.341 152.017C117.256 152.765 117.838 153.514 117.838 154.429C117.838 155.926 116.674 156.757 115.01 156.757C114.179 156.757 113.347 156.591 112.765 156.258C112.266 155.926 111.933 155.427 111.767 154.761H111.268C111.185 156.757 111.185 158.005 111.102 159.252C112.017 159.668 113.597 160 115.177 160C119.335 160 121.829 157.589 121.829 154.346C121.829 152.1 120.665 150.603 118.919 149.19C117.838 148.275 117.006 147.693 116.341 147.111C115.676 146.528 115.26 145.863 115.26 145.032C115.26 143.701 116.341 142.786 117.921 142.786C118.586 142.786 119.085 142.953 119.501 143.202C119.917 143.452 120.249 143.867 120.416 144.449H120.832C120.832 142.703 120.915 141.456 120.915 140.042C120.249 139.709 118.919 139.543 117.838 139.543ZM65.6964 139.626C64.6153 139.626 63.4511 139.709 62.7026 139.709C62.0373 139.709 60.8731 139.709 60.291 139.709V140.125C61.2889 140.208 61.2889 141.04 61.2889 147.693V151.102C61.2889 158.254 61.2889 160.915 60.2078 160.915V161.331C61.1226 161.331 64.3658 160.998 65.1974 160.998C68.1912 160.832 69.9375 160.583 71.1849 159.668C72.8482 158.337 73.3471 156.009 73.3471 154.013C73.3471 151.435 71.4344 149.605 69.2723 149.273C71.1018 148.857 72.5155 147.111 72.5155 144.948C72.5155 141.955 70.5197 140.624 69.0228 140.125C68.1912 139.792 66.9438 139.626 65.6964 139.626ZM95.634 139.626C94.8024 139.626 93.555 139.626 92.8066 139.709C91.7255 139.709 90.8107 139.792 90.1454 139.792V140.208C91.2265 140.291 91.2265 141.123 91.2265 147.859V151.269C91.2265 158.42 91.2265 159.501 90.1454 159.668V160.084C90.8107 160.084 91.8918 160.084 93.056 160.084C94.1371 160.084 95.3014 160 95.8835 160V159.501C94.8856 159.418 94.8856 158.504 94.8856 153.181V152.1C95.1351 152.1 95.4677 152.1 95.7172 152.1C97.4635 154.678 99.1267 157.256 100.707 159.585C100.956 159.834 101.372 159.917 101.871 159.917H106.029V159.585C105.447 159.501 104.698 158.67 103.95 157.672C100.873 153.431 100.125 152.433 99.2931 151.435V151.352C99.792 151.185 100.374 150.853 100.873 150.437C101.871 149.689 103.035 148.192 103.035 145.863C103.035 142.703 101.206 141.04 99.3762 140.375C98.3783 139.792 97.1309 139.626 95.634 139.626ZM169.148 139.626V140.042C170.145 140.125 170.145 141.04 170.145 147.693V151.102C170.145 158.254 170.145 162.495 169.064 162.662V162.994C169.979 163.16 172.308 163.41 174.969 163.826C177.214 164.158 179.127 164.408 180.707 164.741C180.707 163.493 180.873 160.583 180.873 158.753H180.457C180.291 159.668 179.543 160 178.295 159.834C177.214 159.751 176.133 159.668 174.387 159.335C173.971 159.252 173.888 159.169 173.888 158.587V150.936H176.798C178.545 150.936 179.127 151.019 179.293 151.684H179.626C179.626 150.853 179.626 150.104 179.626 149.356C179.626 148.691 179.626 148.025 179.626 147.277H179.459C179.293 147.859 178.794 147.859 176.965 147.859H174.054V142.703H177.464C179.21 142.703 180.125 142.953 180.291 143.95H180.707C180.707 142.121 180.79 140.874 180.79 139.626C179.21 139.626 176.881 139.626 174.719 139.626C172.224 139.626 170.062 139.626 169.148 139.626ZM45.9043 139.626V140.042C46.9022 140.125 46.9022 141.04 46.9022 147.693V151.102C46.9022 158.254 46.9022 162.163 45.8211 162.246V162.662C47.4012 162.578 48.4822 162.412 51.975 162.079C54.054 161.83 55.634 161.747 57.713 161.58C57.713 160.333 57.6299 158.254 57.713 156.425H57.2972C57.1309 157.256 56.5488 157.672 55.1351 157.838C53.8876 158.005 52.5571 158.171 51.2265 158.088C50.7276 158.005 50.7276 157.921 50.7276 157.339V151.019H53.6382C55.3845 151.019 55.9666 151.102 56.133 151.768H56.4656C56.4656 150.936 56.4656 150.188 56.4656 149.439C56.4656 148.774 56.4656 148.108 56.4656 147.36H56.133C55.9666 147.942 55.4677 147.942 53.6382 147.942H50.7276V142.786H54.1371C55.8835 142.786 56.7983 143.036 56.9646 144.034H57.3804C57.3804 142.204 57.4635 140.957 57.4635 139.709C55.8835 139.709 53.555 139.709 51.3928 139.709C48.9812 139.709 46.819 139.626 45.9043 139.626ZM75.7588 139.626V140.042C76.7567 140.125 76.7567 141.04 76.7567 147.693V151.102C76.7567 158.254 76.7567 159.834 75.6756 159.917V160.333C76.5072 160.333 78.5862 160.25 81.58 160.167C83.4926 160.084 85.738 159.917 87.4843 160C87.4843 158.753 87.4012 157.256 87.4843 155.427H87.0685C86.9022 156.341 86.1538 156.508 84.9064 156.508C83.7421 156.508 82.3284 156.508 80.9978 156.508C80.4989 156.425 80.4989 156.341 80.4989 155.759V151.102H83.4095C85.1558 151.102 85.738 151.185 85.9043 151.851H86.2369C86.2369 151.019 86.2369 150.271 86.2369 149.522C86.2369 148.857 86.2369 148.192 86.2369 147.443H85.9043C85.738 148.025 85.239 148.025 83.4095 148.025H80.4989V142.869H83.9084C85.6548 142.869 86.5696 143.119 86.7359 144.117H87.1517C87.1517 142.287 87.2348 141.04 87.2348 139.792C85.6548 139.792 83.3263 139.792 81.1642 139.792C78.8357 139.709 76.6735 139.626 75.7588 139.626ZM18.7109 139.626V140.042C19.5425 140.125 19.792 141.04 21.7047 147.526L26.1122 165.655L27.1101 165.489C30.2702 153.431 31.3513 151.102 31.8502 149.772C32.3492 151.102 33.5966 152.932 37.7546 163.743L38.5862 163.659L42.4947 147.526C44.4074 141.04 44.2411 140.208 45.0727 140.042V139.626C44.3242 139.626 43.5758 139.626 42.4116 139.626C41.1642 139.626 40.1662 139.626 39.3346 139.626V140.042C40.582 140.125 40.3326 141.04 39.0852 145.447C38.1704 148.524 37.8378 149.772 37.5883 151.102H37.5051C37.0062 149.772 36.5072 148.607 35.1766 145.447C34.1787 143.452 33.264 141.539 32.4324 139.959H31.9334C31.1018 141.622 30.1039 143.618 29.2723 145.531C27.8585 148.774 27.3596 149.938 26.8606 151.269H26.7775C26.4448 149.938 26.1122 148.524 25.1974 145.364C23.95 141.04 23.7005 140.125 25.0311 140.042V139.626C23.8669 139.626 22.8689 139.626 21.7047 139.626C20.3741 139.709 19.3762 139.626 18.7109 139.626ZM122.994 139.626C122.994 140.874 122.994 142.37 122.994 144.117H123.409C123.659 143.119 124.241 142.786 125.572 142.786H129.064V151.102C129.064 158.254 129.064 159.501 127.9 159.668V160.084C128.732 160.084 129.73 160.167 130.977 160.167C132.141 160.167 133.306 160.25 134.22 160.333V159.917C132.973 159.917 132.973 158.337 132.973 151.102V142.786H136.466C137.713 142.786 138.295 143.036 138.545 144.117H138.96V139.626C137.048 139.626 134.719 139.626 132.474 139.626H129.563C127.484 139.709 125.073 139.709 122.994 139.626ZM152.1 139.626C152.1 140.874 152.1 142.37 152.1 144.117H152.516C152.765 143.119 153.347 142.786 154.678 142.786H158.17V151.102C158.17 158.254 158.17 161.248 157.006 161.414V161.83C157.921 161.913 158.919 162.079 160.166 162.163C161.414 162.246 162.495 162.412 163.326 162.495V162.079C162.079 162.079 162.079 158.42 162.079 151.185V142.869H165.572C166.819 142.869 167.401 143.119 167.651 144.2H168.066V139.709C166.154 139.709 163.825 139.709 161.58 139.709H158.669C156.59 139.709 154.179 139.709 152.1 139.626ZM66.029 142.703C67.6922 142.703 68.8565 143.618 68.8565 145.281C68.8565 146.695 67.9417 147.443 67.1101 147.693C66.6111 147.859 66.1122 147.942 65.6964 147.942C65.5301 147.942 65.2806 147.942 64.9479 147.942V142.786C65.1974 142.786 65.6964 142.703 66.029 142.703ZM96.0498 142.786C98.0457 142.786 99.2099 143.95 99.2099 145.78C99.2099 147.194 98.5446 148.025 97.7962 148.524C97.2972 148.857 96.5488 149.106 95.8003 149.106C95.5508 149.106 95.2182 149.106 94.9687 149.106V142.869C95.135 142.786 95.5508 142.786 96.0498 142.786ZM145.281 147.027C145.53 147.693 145.863 148.691 147.276 152.599V152.682H143.118V152.599C144.698 148.607 145.114 147.61 145.281 147.027ZM65.9459 150.936C66.528 150.936 67.1933 151.019 67.6091 151.185C68.5238 151.518 69.5217 152.35 69.5217 153.763C69.6049 155.759 68.7733 156.508 68.108 156.84C67.6091 157.09 66.8606 157.256 66.1953 157.256C65.8627 157.256 65.4469 157.256 65.1974 157.173C65.0311 157.09 64.9479 157.09 64.9479 156.674V150.936C65.2806 150.936 65.6964 150.936 65.9459 150.936Z" fill="white"/>
</svg>
