<svg width="200" height="201" viewBox="0 0 200 201" fill="none" xmlns="http://www.w3.org/2000/svg">
<path d="M117.5 24.3587C117.348 24.3587 117.195 24.36 117.042 24.364C113.312 24.4246 109.465 24.4866 106.438 27.2442C105.847 27.1876 105.232 27.1594 104.592 27.1594C100.728 27.1594 96.8042 28.184 94.9406 28.7482C94.4115 28.4533 93.7692 28.2056 93.0286 28.0117C92.9775 27.9915 92.9371 27.9807 92.9101 27.9726C92.7445 27.9188 91.2136 27.4502 88.8814 27.3358C88.732 27.3277 88.5731 27.3223 88.4061 27.3223C87.4259 27.3223 86.0807 27.4596 84.403 27.733C80.6059 28.149 75.119 29.1198 71.9884 30.2805C68.062 31.724 63.8973 33.7922 60.1487 36.1485C60.1352 36.1378 60.1204 36.127 60.107 36.1189C59.3637 35.6247 58.5248 35.0659 57.5378 34.7064C57.3318 34.6216 57.1366 34.5476 56.9616 34.4829C56.8283 34.4344 56.6451 34.3712 56.5199 34.3146L56.4499 33.8447L56.0082 33.3923C55.2017 32.5642 53.9037 31.4412 52.3 30.7908L52.0953 30.7101L51.8732 30.6724C51.169 30.5579 50.4594 30.5013 49.7646 30.5013C44.3759 30.5013 39.4828 33.8716 35.9361 40.0089C35.8567 40.0453 35.7718 40.0857 35.687 40.1247C33.1112 41.3419 27.0722 44.1884 23.3855 51.4958C21.1988 55.8261 19.5386 60.6425 22.1683 66.5038C22.991 68.3485 24.0197 70.2578 25.96 71.7161L26.0946 71.817L26.3074 71.9275C26.7854 72.1766 27.7818 72.6923 29.1498 72.6923C30.359 72.6923 31.5789 72.3018 32.819 71.5114C30.2095 75.4903 27.8612 80.2057 26.8487 85.6388C26.2347 88.2052 26.333 90.8281 26.4286 93.3649L26.4312 93.412C26.3882 94.0422 26.4676 94.6185 26.5834 95.1665L29.508 103.155L29.1161 103.497L28.9532 103.531C28.964 103.557 28.9761 103.582 28.9869 103.608L26.9537 105.378C26.947 105.695 26.9389 106.017 26.9389 106.342C26.9389 111.882 27.6606 117.413 29.069 122.792C28.6449 123.031 28.3311 123.315 28.082 123.598L28.0592 123.626L27.9662 123.705L27.8585 123.844C26.982 124.956 26.2831 126.548 25.6099 128.087L25.5399 128.25C25.0228 129.476 24.6 130.571 24.4317 131.013L24.425 131.037L24.324 131.316L24.254 131.644L24.2432 131.724C24.2109 131.953 24.1961 132.179 24.1961 132.409C24.2042 134.772 25.9559 136.807 28.28 137.177L28.3554 137.196C31.5789 137.897 33.9029 138.261 35.2588 138.274H35.2777C35.306 138.274 35.345 138.266 35.3746 138.266L35.6062 138.669C36.9783 141.037 38.5254 143.335 40.1924 145.521L40.0429 145.579L40.8293 146.382L40.7943 146.442L40.7552 146.528C40.2018 147.798 40.1035 149.068 40.0012 150.41L39.9742 150.755C39.88 152.258 39.8692 153.882 39.8692 154.971C39.8692 155.989 39.884 156.787 39.8908 157.109L39.9002 157.566L40.0079 157.956C40.6434 160.311 42.7844 161.958 45.2175 161.958C45.6282 161.958 46.0334 161.912 46.4199 161.822C46.8615 161.749 48.4275 161.48 50.1483 161.127C51.2861 160.894 52.3471 160.652 53.2102 160.426L53.3153 160.396C53.9845 160.206 54.5904 160.026 55.1882 159.772L55.6635 160.093C58.7968 162.197 62.1738 164.049 65.6962 165.592L66.1985 165.813C66.3223 166.618 66.5809 167.357 66.8354 168.083C67.7321 170.579 69.3116 173.827 69.7747 174.766L69.9511 175.125L70.2016 175.428C71.1684 176.582 72.5889 177.245 74.0929 177.245C75.2186 177.245 76.3227 176.865 77.2101 176.175L77.3259 176.096C77.785 175.775 79.0049 174.925 80.307 173.96C81.3357 173.193 82.1167 172.583 82.7711 172.031C83.3716 171.519 83.8631 171.082 84.2913 170.6L85.491 170.713C87.5632 170.908 89.618 171.008 91.6027 171.008C93.3854 171.008 95.2422 170.924 97.1219 170.768L97.5138 170.737C97.6417 170.997 97.7817 171.226 97.9191 171.42C97.9433 171.453 97.9689 171.487 97.9904 171.523L98.0483 171.612L98.1143 171.694C99.0676 172.894 100.635 174.169 102.306 175.489C102.327 175.505 104.262 176.991 105.057 177.537L105.054 177.539L105.411 177.809L105.819 177.964C106.43 178.205 107.066 178.326 107.707 178.326H107.712C109.732 178.326 111.562 177.141 112.394 175.299L112.417 175.252C112.638 174.826 113.307 173.532 113.983 172.098C114.438 171.148 114.854 170.209 115.186 169.39L115.228 169.288C115.577 168.389 115.879 167.612 115.986 166.658L116.028 166.213L116.293 166.105C117.793 165.488 119.342 164.765 120.898 163.972L121.124 165.031H121.569C121.803 165.288 122.029 165.445 122.165 165.539L122.245 165.614L122.41 165.713C123.414 166.318 124.734 166.688 126.014 167.045L126.168 167.087C126.983 167.307 127.969 167.562 128.541 167.663L128.538 167.671L128.848 167.73H129.209C131.433 167.686 133.215 165.921 133.293 163.704C133.359 162.832 133.472 161.165 133.472 159.772L133.469 159.655C133.458 158.878 133.452 158.143 133.219 157.341L132.846 156.13L132.824 156.121C136.536 153.041 139.907 149.571 142.834 145.774L143.191 145.31C145.441 146.275 147.794 146.779 150.139 146.779C153.162 146.779 156.085 145.967 158.822 144.37C161.399 142.873 162.991 140.452 163.695 139.174C165.68 138.48 170.473 136.401 173.021 131.815C174.911 128.413 175.165 124.422 173.776 119.961C173.732 119.821 173.702 119.663 173.67 119.481C175.055 118.95 176.282 118.041 177.11 116.892C179.864 113.196 180.761 108.967 179.638 104.995C178.951 102.478 177.129 100.081 174.77 98.522C174.416 92.9744 172.594 87.8861 169.586 84.093L169.326 83.7618L169.216 83.7039C168.925 83.3349 168.291 82.5876 167.204 82.5876C166.785 82.5876 166.379 82.7075 166.02 82.9323V82.8569C165.999 78.4727 162.299 76.2376 159.47 74.6177C159.683 73.8906 159.809 73.1878 159.922 72.5657C160.671 68.4374 159.769 64.849 157 60.9347C154.682 57.6587 151.668 55.5488 147.809 54.5025C146.7 52.7911 146.2 51.8728 145.855 51.244C145.683 50.933 145.538 50.6664 145.373 50.4079C145.955 49.095 146.184 47.6893 146.324 46.429L146.331 46.3576L146.333 46.2889C146.56 40.5219 144.671 35.8819 141.011 33.224L140.9 33.1432L140.781 33.0799C138.552 31.895 136.913 31.2917 134.145 31.2917C133.974 31.2917 133.796 31.2958 133.627 31.2998C133.536 31.3012 133.45 31.3025 133.369 31.3025C133.26 31.3025 133.158 31.3012 133.058 31.2998C132.776 31.0211 132.493 30.7585 132.191 30.4919C127.907 26.6989 123.956 24.3519 117.497 24.3519L117.5 24.3587ZM28.9505 103.532C28.2732 102.026 27.7212 100.395 27.3024 98.6459L27.2445 98.4008L27.2499 98.149C27.2607 97.632 27.0937 97.0637 26.8998 96.408C26.7854 96.0189 26.675 95.6014 26.5834 95.1665L26.5605 95.1113L26.9523 105.374C26.9604 105.063 26.9685 104.758 26.9793 104.455L26.9968 103.939L28.9505 103.532Z" fill="white"/>
<path d="M117.074 26.334C113.03 26.4 109.672 26.4916 107.154 29.3192C102.191 28.5261 95.9996 30.4624 94.8066 30.8542C94.5979 30.768 94.3959 30.6872 94.2074 30.6051C93.887 30.391 93.3322 30.1163 92.4193 29.8888C92.352 29.8605 92.3143 29.8497 92.3143 29.8497C92.3143 29.8497 90.9274 29.4067 88.777 29.3003C87.7281 29.2451 86.0814 29.4538 84.6662 29.6841C81.0105 30.0813 75.6515 31.0238 72.669 32.1293C68.4868 33.6684 64.0865 35.9143 60.2988 38.3918H60.0012C58.9456 37.7657 57.9653 36.9471 56.8195 36.5431C55.8756 36.1365 54.7849 36.0059 54.5964 34.7671C53.7643 33.9148 52.7086 33.084 51.5601 32.6194C45.144 31.5853 40.2765 36.1917 37.3532 41.4995C35.8573 42.333 29.0239 44.688 25.1433 52.3819C22.7937 57.0394 21.8309 60.9402 23.9678 65.7013C24.8336 67.6443 25.7169 69.0689 27.1442 70.1407C28.3291 70.752 31.7532 72.8014 37.9497 62.5169C38.1935 64.0721 38.3429 65.3876 38.689 66.8849C34.0072 72.6412 30.1239 78.7232 28.7748 86.0481C28.1971 88.4193 28.3089 90.9898 28.4018 93.4538C28.251 95.0238 29.2528 96.4875 29.2191 98.1868C29.9408 101.207 31.1607 104.127 32.9906 106.555C33.4713 107.072 33.5104 107.716 34.1001 108.257C36.54 112.289 40.1513 116.308 44.0938 119.06C44.9394 122.389 46.3465 125.573 48.3056 128.384C52.749 136.041 59.946 143.613 67.8432 147.624C72.2112 150.198 85.2331 154.992 94.1913 145.555C94.707 144.927 95.4112 143.924 96.0346 143.409C98.8165 144.813 101.425 146.826 104.252 147.848C112.377 152.285 123.292 152.846 131.634 148.513C135.111 147.036 138.072 144.295 140.959 141.855C145.975 145.24 152.14 145.987 157.832 142.665C160.863 140.904 162.316 137.542 162.316 137.542C162.316 137.542 176.069 133.962 171.89 120.54C171.614 119.647 171.748 118.869 171.002 118.315L171.297 118.021C172.966 117.894 174.592 117.021 175.517 115.727C177.701 112.806 178.778 109.198 177.734 105.51C177.053 103.017 175.052 100.831 172.848 99.6706C172.705 94.6711 171.295 89.4184 168.041 85.3143C167.714 85.1447 167.399 84.2775 167.004 84.6465C167.209 85.9781 166.67 87.0324 166.636 88.2726C166.433 88.7007 166.472 89.4184 165.971 89.5302C165.321 88.1231 164.381 86.7349 163.378 85.3143C164.047 84.6276 163.989 83.6824 164.049 82.8637C164.028 78.9454 159.812 77.1681 157.016 75.4688C157.56 74.4697 157.778 73.3427 157.981 72.2157C158.663 68.459 157.748 65.4092 155.388 62.0752C153.007 58.709 150.007 57.0057 146.585 56.2261C143.746 51.9281 144.12 51.7733 143.028 50.5803C143.92 49.3024 144.197 47.6961 144.361 46.2122C144.527 41.995 143.44 37.4237 139.852 34.8169C137.832 33.7424 136.452 33.1957 133.664 33.2684C133.082 33.2792 132.717 33.2509 132.236 33.2684C131.862 32.878 131.43 32.4498 130.884 31.9664C126.523 28.1114 122.889 26.2357 117.072 26.3327L117.074 26.334ZM28.9673 103.998C28.9431 104.776 28.9094 105.552 28.9094 106.342C28.9094 111.982 29.6675 117.438 31.0611 122.64C31.6145 122.646 32.7617 122.722 34.1796 123.245C35.6903 123.793 37.5593 124.991 38.7738 127.143C39.5642 128.515 39.8685 129.965 39.8631 131.224C39.8092 134.458 38.2433 136.43 38.0938 136.69L37.3694 137.667L37.3115 137.678C38.8182 140.277 40.5013 142.757 42.3514 145.107C42.5547 144.958 42.7944 144.826 43.0772 144.72C43.5835 144.509 45.1117 143.93 47.2823 143.916C49.1673 143.907 51.6247 144.432 53.8249 146.182C57.0241 148.711 57.6516 152.27 57.63 154.396C57.6246 155.88 57.3796 156.878 57.3405 157.054L57.0201 158.298L56.7615 158.458C59.8167 160.51 63.0752 162.29 66.4846 163.784C66.4899 163.757 66.494 163.739 66.5034 163.708C66.6152 163.322 66.8481 162.777 67.3261 162.282C67.6021 161.981 68.2969 161.274 69.4253 160.544C70.7462 159.684 72.7403 158.776 75.265 158.772C76.0379 158.772 76.8566 158.854 77.6954 159.06C80.997 159.826 83.045 162.072 84.0859 163.874C85.1496 165.702 85.4256 167.219 85.4741 167.442L85.7084 168.692L85.6747 168.747C87.6271 168.931 89.6011 169.032 91.5993 169.032C93.4022 169.032 95.189 168.953 96.9583 168.805C96.9691 168.612 97.0027 168.286 97.1091 167.955C97.2505 167.443 97.6248 166.25 98.5 164.885C99.5705 163.206 101.553 161.198 104.664 160.389C105.514 160.159 106.351 160.055 107.2 160.055C111.881 160.152 114.596 163.183 115.225 163.9L115.272 163.941L115.547 164.281C117.24 163.586 118.901 162.803 120.516 161.962C120.557 160.494 121.055 157.89 123.514 155.981C124.987 154.836 126.627 154.453 127.972 154.459H128.096C129.366 154.479 130.397 154.781 131.057 155.04C134.85 151.957 138.283 148.446 141.27 144.568C141.232 144.546 141.193 144.532 141.16 144.513C138.662 146.654 135.927 148.999 132.553 150.467C128.338 152.631 123.586 153.635 118.851 153.635C113.438 153.635 108.018 152.325 103.362 149.817C100.772 148.836 98.5687 147.312 96.5005 146.11C96.281 146.379 96.0602 146.67 95.8582 146.924L95.8138 146.977L95.7559 147.035C91.3071 151.741 85.7851 153.317 80.8678 153.304C74.8126 153.277 69.5653 151.102 66.8252 149.523C58.477 145.248 51.1319 137.492 46.4878 129.547C44.5462 126.746 43.1203 123.615 42.2046 120.358C38.3079 117.478 34.8501 113.58 32.3847 109.583C31.6845 108.816 31.4866 108.098 31.4085 108.024V108.016L31.3304 107.933L31.2671 107.848C30.3677 106.649 29.6096 105.347 28.97 103.997L28.9673 103.998ZM30.8241 124.272C30.8039 124.278 30.7878 124.278 30.7797 124.278C29.8223 124.404 29.6648 124.83 29.4049 125.064C28.659 126.007 28.0019 127.539 27.3556 129.013C26.7483 130.457 26.2716 131.721 26.2676 131.733L26.2245 131.857L26.1935 131.99C26.1693 132.164 26.1639 132.305 26.1639 132.401C26.1693 133.818 27.2128 135.036 28.6361 135.238C29.2555 135.371 33.3232 136.283 35.277 136.303C35.4749 136.303 35.6688 136.296 35.8815 136.261L36.4417 136.17L36.781 135.715C36.8497 135.602 38.2042 133.832 38.2271 131.228C38.2325 130.212 37.9888 129.064 37.3546 127.948C35.2702 124.392 31.6051 124.278 30.9453 124.272H30.9184H30.9089H30.8241ZM47.2311 145.62C45.1292 145.624 43.6683 146.29 43.5444 146.337L43.5471 146.343C42.9008 146.623 42.7055 147.058 42.5601 147.317C42.105 148.361 42.0525 149.458 41.9394 150.879C41.8519 152.26 41.8371 153.781 41.8371 154.971C41.8371 156.198 41.8559 157.08 41.8559 157.088L41.8613 157.272L41.9111 157.446C42.3231 158.978 43.6966 159.988 45.2167 159.988C45.4847 159.988 45.7553 159.957 46.026 159.888C46.3613 159.833 47.9838 159.56 49.7531 159.196C50.7522 158.993 51.7943 158.759 52.7059 158.519C53.635 158.254 54.3527 158.056 55.034 157.659L55.5564 157.333L55.7126 156.728C55.7369 156.641 55.955 155.759 55.959 154.471C55.9698 152.593 55.4339 149.637 52.7665 147.529C50.8976 146.046 48.8536 145.609 47.2311 145.62ZM127.992 156.596C127.031 156.591 125.871 156.855 124.825 157.669C122.933 159.132 122.648 161.169 122.653 162.226C122.653 162.702 122.707 163.012 122.717 163.059H122.723C122.87 163.759 123.24 163.858 123.426 164.025C124.23 164.509 125.469 164.845 126.679 165.185C127.863 165.505 128.904 165.735 128.909 165.735L129.036 165.758H129.166C130.347 165.735 131.298 164.785 131.323 163.602C131.337 163.403 131.5 161.379 131.5 159.773C131.489 159.029 131.488 158.46 131.323 157.887L131.197 157.479L130.821 157.277C130.739 157.238 129.604 156.6 127.992 156.596ZM75.0509 160.867C70.9589 160.902 68.5958 163.718 68.4976 163.815V163.82C68.0828 164.283 68.1111 164.702 68.0909 164.962C68.1111 165.744 68.3602 166.479 68.6901 167.415C69.6663 170.135 71.5433 173.9 71.5541 173.921L71.6174 174.049L71.7089 174.162C72.3216 174.895 73.2062 175.276 74.0922 175.276C74.7695 175.276 75.4629 175.051 76.0352 174.592C76.2722 174.425 77.6469 173.48 79.1281 172.38C79.9373 171.776 80.7775 171.13 81.4898 170.531C82.2142 169.914 82.7757 169.425 83.1824 168.838L83.4463 168.434L83.3547 167.947C83.3399 167.865 83.0948 166.541 82.1981 165.013C81.3121 163.496 79.695 161.726 77.041 161.101C76.3543 160.947 75.6851 160.87 75.0523 160.87L75.0509 160.867ZM107.165 162.198C106.539 162.198 105.88 162.277 105.208 162.455C102.727 163.105 101.169 164.69 100.298 166.039C99.5328 167.228 99.2298 168.262 99.149 168.577C99.0871 168.797 99.0885 168.96 99.0831 169.051C99.1423 169.874 99.4305 170.116 99.654 170.468C100.502 171.535 102.059 172.785 103.512 173.931C104.954 175.052 106.224 175.959 106.233 175.964L106.368 176.064L106.528 176.124C106.912 176.278 107.309 176.356 107.706 176.356H107.711C108.937 176.356 110.099 175.633 110.614 174.444C110.754 174.171 111.472 172.794 112.203 171.246C112.615 170.384 113.027 169.471 113.363 168.649C113.691 167.806 113.946 167.155 114.028 166.434L114.083 165.871L113.729 165.434C113.624 165.344 111.293 162.257 107.165 162.198Z" fill="#663399"/>
<path d="M118.407 30.0654C116.367 30.1017 114.492 30.5717 113.128 31.3338C115.042 32.3073 119.321 33.9527 121.238 34.9262C127.18 37.7956 133.042 41.9724 138.185 46.6339C138.65 46.914 138.724 47.7354 139.463 47.7354C140.424 45.6618 140.772 42.8409 139.604 40.7821C138.584 39.0397 136.8 38.0554 134.703 38.1497C134.703 38.1497 135.748 39.5474 135.297 42.4073C133.801 40.8804 131.864 40.3351 130.372 38.8095C130.372 37.7363 129.943 36.0694 128.986 34.6434C127.82 32.8997 126.579 32.3073 124.684 31.3984C122.651 30.4276 120.445 30.029 118.407 30.0654ZM104.069 32.1067C102.48 32.0811 100.8 32.2669 99.0334 32.7449C100.578 33.4949 101.978 34.2624 102.665 34.875C103.243 35.3934 103.813 35.897 104.329 36.3562C105.222 37.0213 106.116 37.7471 106.999 38.5469L104.201 38.9226C104.151 38.8755 104.103 38.8364 104.05 38.7933L103.94 38.8095C103.94 38.8095 97.8889 34.0402 91.4729 33.7103C91.3665 33.7036 91.2668 33.6969 91.1564 33.6915C90.8225 33.709 90.498 33.7332 90.2018 33.779C80.0869 33.9756 77.7925 36.2781 74.8679 37.2947C70.8339 39.3683 68.8074 40.5599 65.3819 43.7955L67.7719 46.6097C68.5152 47.9387 69.3473 49.3646 69.9923 50.6074C70.9752 53.6236 71.8801 57.2995 71.1786 60.3735C69.7351 60.9431 68.1261 61.0575 66.5857 61.4076C66.2962 60.9296 66.5345 60.5593 66.6651 60.0773C66.5143 53.6007 62.2971 47.5145 56.6015 44.8323C56.4103 46.2004 56.1706 47.9225 55.3385 49.1977C55.5041 50.5495 56.2433 51.585 56.2271 52.9692C57.0579 57.97 56.0858 62.7582 54.0849 67.11C53.8425 67.2756 50.7388 58.4319 45.2034 58.3026C44.0724 60.8556 44.071 64.1706 44.9799 66.7411C45.6828 70.0332 48.5495 72.9174 51.4861 74.6544C51.4861 74.6544 49.4745 76.2284 48.4565 76.8761C46.2779 76.0076 43.9593 74.9924 42.3179 73.3241C38.0253 77.0619 33.6479 80.758 33.8054 91.705C33.971 102.657 43.4799 109.325 44.4642 109.438C46.6469 103.74 50.0266 99.3665 54.9305 93.9846C60.2531 88.1462 70.7329 81.3114 70.7329 81.3114C75.381 80.7701 78.7216 80.5049 78.7216 80.5049C78.8145 80.929 59.4426 93.8796 54.1576 101.967C50.4897 105.457 50.0292 111.64 50.6015 116.316C50.6931 118.724 55.0705 130.917 61.9995 136.971C69.004 143.086 75.2759 146.274 84.2745 145.476C88.1565 145.136 90.4724 141.762 91.4513 138.522C93.1169 131.754 86.0142 117.475 87.6057 104.036C88.4863 96.5631 89.3791 91.0843 92.2686 85.3146C93.4885 83.6059 94.9158 82.0534 97.0002 81.4649C99.8898 80.6503 102.999 81.5013 105.362 83.0188C111.453 86.4577 116.43 93.0865 123.863 93.3046C125.614 89.1601 124.917 86.6058 125.567 86.1251C130.652 89.5802 133.188 97.8194 133.485 98.187C134.057 98.0995 144.955 96.0245 150.211 96.3396C150.301 93.5631 149.447 90.7301 147.768 88.5677C145.381 86.6058 143.482 84.9766 140.142 84.2791C135.891 83.3796 132.235 87.4528 129.185 86.3298C125.198 84.8621 125.616 79.4062 129.564 77.618C128.453 77.2477 127.531 76.5058 126.453 76.0628C124.605 77.0081 122.737 77.8765 120.61 78.1351C118.702 78.6319 113.737 79.1651 108.915 76.0628C105.101 73.6055 103.715 68.8645 103.958 64.518C103.958 64.518 105.054 58.5975 106.088 56.3421C106.088 56.3421 105.067 54.2793 103.958 53.4916C102.278 52.2878 100.788 52.0064 98.8355 52.5787C95.4167 53.5899 96.2771 62.5373 95.8193 62.7406C94.7798 61.817 93.4885 60.8542 92.7816 59.7084C92.8665 57.4772 93.3485 51.4207 97.2224 49.3444C100.002 47.8633 102.867 47.905 105.293 49.1236C109.007 51.1218 111.579 54.282 114.246 57.5567C117.63 61.2218 120.036 65.2182 123.789 68.5844C126.352 70.9111 131.026 74.75 133.335 73.6917C134.043 73.4156 134.056 72.5821 134.298 71.9897C134.357 70.2339 133.45 68.6773 132.67 67.1773C132.705 67.0319 134.221 67.6594 136.296 68.3663C136.907 70.1948 138.181 72.4906 136.665 74.3622C140.291 73.4897 143.597 73.2621 147.595 73.0601C147.595 73.0601 145.759 70.8277 146.361 68.3663C146.361 68.3663 148.027 67.3955 148.953 66.8192C148.953 68.2114 149.19 69.5458 149.874 70.9327C150.479 72.1607 151.192 73.4695 152.727 73.25C154.19 72.7532 154.222 71.1576 154.276 69.9646C154.464 65.9695 151.763 62.2236 148.433 60.3735C145.749 58.9839 142.416 59.9817 140.07 61.4076C139.241 60.9094 138.332 60.3937 137.701 59.5562C138.647 58.6527 139.646 57.7075 140.885 57.1891C135.801 48.6995 127.99 41.9562 119.279 37.7202C116.127 36.2983 110.955 32.2171 104.071 32.1053L104.069 32.1067ZM48.6033 37.673C48.4242 37.6798 48.2586 37.7094 48.1118 37.766C41.7497 40.1775 40.5634 43.0105 38.3229 51.1218C36.6721 51.5446 35.0536 52.0859 33.4365 52.6002C33.4365 52.6002 33.4338 50.3502 34.2699 46.9934C34.2699 46.9934 30.4755 50.2843 28.8193 52.5531C25.4625 57.1716 23.7336 66.2213 29.8844 65.3313C33.9683 64.7415 35.6097 59.1778 39.5145 55.4911C43.7358 51.5002 48.8188 48.4867 50.751 45.7183C51.6033 44.4944 52.9794 41.3315 52.3075 39.8692C51.7729 38.7112 49.8596 37.6273 48.6033 37.673ZM158.494 84.4945C156.846 84.7584 155.959 86.3487 154.573 87.2373C154.089 87.6978 154.051 88.4034 153.387 88.7198C152.113 91.0627 152.885 92.7229 153.539 96.0447L162.862 96.9334L164.935 92.7835C165.007 91.88 164.562 91.0115 164.193 90.1983C162.97 88.2539 161.807 85.701 159.454 84.7935C159.139 84.6844 158.77 84.7167 158.494 84.4945ZM153.858 99.0999C147.95 99.1645 141.841 99.7866 137.772 100.192C123.875 101.561 107.943 114.037 105.657 116.024C96.0832 124.343 95.2632 122.373 94.4055 122.313C94.8687 123.09 96.0994 126.544 96.638 129.38C97.1954 132.294 97.015 134.899 97.1456 136.973C98.1811 138.638 106.593 147.6 116.015 147.701C129.203 147.839 137.361 138.77 139.253 131.418L145.619 130.456C145.619 130.456 145.462 134.759 143.626 138.439C143.528 138.821 151.02 141.14 154.35 139.71C167.458 134.074 155.823 125.344 161.014 118.022C157.217 117.306 154.128 116.101 149.614 115.876C137.078 115.26 128.636 118.247 119.277 126.609C119.277 126.609 119.814 122.278 120.234 120.166C120.549 119.522 126.2 115.551 130.675 114.03C151.631 106.891 160.938 115.491 164.935 115.434C166.952 115.546 175.603 115.577 174.489 106.678C174.068 103.321 168.409 100.595 163.794 99.753C160.876 99.2238 157.404 99.0609 153.858 99.0999ZM163.967 118.613L163.375 120.838C162.398 124.628 164.812 129.058 163.646 132.741C165.496 132.79 172.268 129.267 168.038 118.691C166.634 118.779 165.318 118.857 163.967 118.613ZM30.8822 125.635C30.0689 125.533 27.5684 132.199 27.5684 132.199C27.5577 132.255 27.5631 132.316 27.5631 132.376L35.6999 127.936C33.8391 125.521 30.8822 125.635 30.8822 125.635ZM36.4068 129.125L29.9221 132.664L36.8094 130.627C36.7556 130.136 36.6344 129.634 36.4068 129.125ZM47.4628 147.18C45.5858 147.128 44.1936 147.759 44.1936 147.759C43.1823 148.034 43.4072 157.064 43.4072 157.064C43.4382 157.175 43.4745 157.275 43.523 157.372L51.1657 148.298C49.8892 147.491 48.5885 147.213 47.4628 147.18ZM52.4193 149.296L45.7851 157.169L53.619 150.952C53.3228 150.378 52.9417 149.814 52.4193 149.296ZM126.803 157.779C126.44 157.89 126.074 158.061 125.714 158.308L129.409 163.261L126.803 157.779ZM124.899 159.012C123.393 160.683 123.776 162.817 123.776 162.817C123.786 163.414 128.532 164.507 129.105 164.635L124.899 159.012ZM75.2046 162.124C71.6539 162.042 69.4133 164.638 69.4133 164.638C68.6202 165.31 72.6449 173.401 72.6449 173.401C72.7082 173.477 72.7809 173.539 72.8536 173.605L75.9303 162.176C75.6826 162.145 75.4415 162.129 75.2046 162.124ZM77.4869 162.536L74.8208 172.43L79.2723 163.523C78.7674 163.131 78.1803 162.782 77.4869 162.536ZM107.336 163.573C107.002 163.564 106.656 163.582 106.296 163.636L108.545 173.456L108.297 163.674C107.99 163.617 107.668 163.582 107.336 163.573ZM104.944 163.989C101.347 165.308 100.521 168.948 100.521 168.948C100.158 169.857 107.077 174.802 107.077 174.802C107.199 174.852 107.322 174.884 107.444 174.907L104.944 163.989Z" fill="#FFCC00"/>
<path d="M102.62 76.7856C102.142 75.2692 97.6199 72.1622 91.0002 74.9881C77.8585 80.6046 69.3789 99.4168 67.8389 103.062L71.9171 112.118C71.9171 112.118 76.3234 89.0421 91.0776 78.4923C94.225 76.0855 98.8502 75.2894 102.62 76.7856Z" fill="#663399"/>
<path d="M110.2 59.6836C109.521 60.7406 108.603 62.3483 108.321 63.482L109.353 63.1293L110.399 66.4376L111.507 63.482C114.688 65.6243 116.601 69.9654 114.097 75.6893C115.315 75.9882 116.558 76.2481 117.948 76.1337C120.11 76.0246 122.216 75.3567 124.009 74.1341C118.175 69.2302 113.454 63.5669 110.2 59.6836ZM146.987 76.0623C143.894 76.0892 140.812 76.71 138.064 77.8976C144.001 77.4707 151.242 77.2849 156.584 80.021C157.173 79.7126 157.814 79.3262 158.298 78.9559C154.961 76.9725 150.965 76.0273 146.987 76.0623ZM100.924 85.1767C100.053 85.1726 99.203 85.4904 98.5594 86.1246C96.0967 89.0505 95.3373 92.9136 95.0047 96.7094C98.7035 97.7058 101.9 98.4948 109.136 99.1492C109.214 99.4293 109.376 99.8359 109.216 100.041C104.399 100.611 99.5558 100.611 94.7798 99.743C93.1061 110.667 95.8826 116.388 97.5145 115.28C104.442 110.519 109.571 107.068 118.832 103.22C119.26 102.614 120.025 101.444 120.278 100.777L112.422 100.022C112.422 100.022 112.341 99.2596 112.617 98.9984C115.501 99.3121 118.539 99.0954 121.571 98.6362C121.851 97.8552 122.384 97.077 122.384 96.2637C118.094 95.34 114.113 93.6394 110.47 91.1565C107.829 89.4006 105.365 86.8652 102.476 85.5335C101.978 85.2979 101.446 85.1794 100.924 85.1767ZM168.672 90.9949C167.987 94.6115 166.107 97.2736 165.764 97.8525C167.197 98.3023 168.803 98.7103 170.392 98.962C170.716 93.7754 168.672 90.9949 168.672 90.9949ZM127.046 91.823C126.457 97.1335 124.677 99.0603 124.237 100.929C126.417 99.9867 128.807 99.506 131.045 98.7103C130.061 96.2637 129.026 93.7875 127.046 91.823Z" fill="white"/>
</svg>
