<svg width="201" height="201" viewBox="0 0 201 201" fill="none" xmlns="http://www.w3.org/2000/svg">
<g clip-path="url(#clip0_15016_302070)">
<path d="M81.3294 128.243C84.8048 126.338 87.9704 123.781 90.3019 121.626C91.4812 120.537 93.7392 118.542 95.193 116.914C73.0525 111.314 54.9064 111.548 45.9937 114.667L54.757 123.273L74.4492 131.294C76.7481 130.501 79.0523 129.49 81.3294 128.243ZM18.4729 154.891C18.4729 154.571 18.4974 154.258 18.549 153.954C16.5029 152.946 14.8154 151.15 13.9486 148.69L13.6796 148.609C12.965 148.381 11.7666 148.041 10.8291 147.364C8.74498 145.862 7.20432 143.375 7.20432 140.658C7.20432 140.566 7.313 139.941 7.2967 139.843C5.27231 138.253 3.82674 136.281 3.40012 133.59C3.34034 133.213 3.41643 132.142 3.40012 131.778C1.76703 130.688 1.20993 128.534 0.862114 126.341C0.318655 122.925 1.22353 120.45 3.85115 118.365C4.06582 118.194 4.72884 117.868 4.94079 117.73C4.8946 117.52 3.57941 112.928 3.57941 112.928C3.57941 112.928 4.65822 112.765 6.2098 112.48C5.09842 75.1007 31.1002 48.868 62.3002 37.6265C97.2853 25.0183 131.224 25.8986 155.449 29.8523C167.625 31.8414 178.75 35.1429 186.831 37.9471C194.918 40.7541 200.711 43.4117 200.711 43.4117L196.45 47.3381C196.439 47.349 195.986 47.7702 195.274 48.4957C194.543 49.2403 193.551 50.2945 192.488 51.5499C190.325 54.1069 188.048 57.2889 187.013 60.2317C185.005 65.938 183.975 69.8482 183.228 73.704C182.453 77.6848 181.967 81.6059 181.03 87.2687C180.144 92.63 178.293 99.6977 178.293 99.6977L176.486 100.13C176.182 101.437 175.785 103.111 175.399 104.654C174.69 107.488 172.5 113.512 172.5 113.512L170.696 114.178C170.321 115.184 169.799 116.553 169.209 118.056C168.095 120.893 164.897 126.482 164.897 126.482L162.71 126.939C161.824 128.58 160.4 131.129 159.093 133.055C157.569 135.311 155.867 137.414 154.544 138.954C153.218 140.501 152.273 141.484 152.264 141.49L149.993 143.854L147.294 141.992C147.205 141.93 127.515 128.36 114.347 123.183C109.79 121.393 104.896 119.607 100.359 118.276C100.505 122.034 100.158 128.343 99.4293 133.112C98.2744 140.658 95.2772 148.843 95.2772 148.843L92.5437 149.94C92.3535 150.473 92.1714 150.992 92.0165 151.438C91.4024 153.226 88.5981 159.625 88.5981 159.625L86.5439 160.459C86.3102 160.945 86.0276 161.508 85.7396 162.073C85.0929 163.339 84.4054 164.641 84.2016 165.054C82.7641 168 80.0712 172.45 80.0712 172.45L78.5442 172.842C78.3376 172.893 50.7816 179.861 28.2878 158.929C27.2471 159.978 25.8042 160.628 24.2119 160.628C21.0408 160.628 18.4729 158.06 18.4729 154.891Z" fill="white"/>
<path d="M82.6044 132.209C80.0719 133.597 77.3845 134.695 74.6319 135.51L52.6054 126.538L39.3722 113.541C50.6164 104.843 85.444 107.655 115.764 119.573C129.423 124.943 149.493 138.798 149.493 138.798C149.493 138.798 153.039 135.108 155.909 130.872C157.89 127.948 160.153 123.513 160.153 123.513L162.42 123.041C162.42 123.041 164.588 119.266 165.626 116.625C166.805 113.625 167.702 111.152 167.702 111.152L169.495 110.492C169.495 110.492 170.993 106.389 171.666 103.699C172.449 100.566 173.27 96.9056 173.27 96.9056L174.873 96.528C174.873 96.528 176.389 91.721 177.231 86.6206C179.12 75.2026 179.204 70.806 183.381 58.9314C185.883 51.8175 193.845 44.4808 193.845 44.4808C193.845 44.4808 131.358 16.7617 63.5752 41.2283C33.2013 52.1953 8.78905 77.4362 10.0879 112.859C10.1205 113.81 10.1831 114.745 10.27 115.666C8.87876 115.995 8.15866 116.092 8.15866 116.092C8.15866 116.092 8.21842 116.902 8.9059 118.394C9.27816 119.201 9.52549 119.497 9.83798 119.886L8.85158 119.984C8.85158 119.984 8.35699 120.019 7.82712 120.187C7.41138 120.318 6.83265 120.56 6.25386 121.013C4.89522 122.084 4.16153 123.839 4.50663 126C4.8164 127.959 5.66962 129.388 6.8598 130.274C7.02012 130.391 7.17502 130.494 7.3299 130.587C7.16958 131.241 7.13421 131.975 7.26464 132.785C7.57441 134.744 8.42772 136.173 9.61789 137.059C10.1532 137.459 10.683 137.69 11.1232 137.825C10.9738 138.437 10.9249 139.119 11.0091 139.866C11.2428 141.893 12.1911 143.312 13.3732 144.165C13.9193 144.556 14.4492 144.784 14.8595 144.915C15.1204 144.999 15.3948 145.053 15.6068 145.083C15.816 145.113 16.0796 145.132 16.0796 145.132L17.2154 145.042C17.2018 145.458 17.2344 145.89 17.3159 146.341C17.7371 148.632 19.0958 150.037 20.6582 150.651C21.3457 150.923 21.9734 151.004 22.4191 151.023C23.0006 151.05 23.3755 150.977 23.3755 150.977L25.8129 150.643C47.5839 176.756 77.5937 169.085 77.5937 169.085C77.5937 169.085 79.3735 166.148 80.743 163.341C81.1561 162.496 83.0582 158.941 83.6152 157.469L85.7021 156.621C85.7021 156.621 87.7863 151.874 88.3786 150.159C88.6966 149.238 89.1368 148.007 89.5063 146.985L92.1638 145.917C92.1638 145.917 94.8893 137.35 95.6528 132.298C96.5604 126.318 96.7425 120.321 96.7425 120.321C96.7425 120.321 90.3133 127.981 82.6044 132.209Z" fill="black"/>
<path d="M124.455 35.009C105.521 34.8199 84.1257 37.2894 62.7851 45.0217C37.5838 54.1561 11.9717 80.2226 13.713 112.791C13.7456 113.411 13.7934 114.047 13.8586 114.706C14.2021 114.602 14.5608 114.491 14.9368 114.371C19.3562 112.952 22.2735 110.265 22.2735 110.265L35.3491 112.511C48.9487 98.2807 93.6297 104.148 124.968 118.845C138.441 125.162 148.741 131.647 148.741 131.647C148.741 131.647 150.345 129.849 152.045 127.112C153.067 125.469 153.654 124.701 154.469 122.71C150.662 121.895 147.967 121.602 141.239 119.36C128.735 115.191 123.207 108.937 123.207 108.937C123.207 108.937 129.55 112.741 143.234 116.278C150.306 118.104 155.834 118.804 158.456 118.995C159.351 117.491 160.977 112.478 161.355 111.743C159.56 111.802 156.921 111.658 151.934 110.928C145.139 109.93 139.156 106.948 138.882 106.763C139.087 106.898 145.68 107.941 154.651 107.85C159.412 107.804 161.495 107.656 164.438 107.213C166.892 101.081 167.16 98.4241 167.16 98.4241C167.16 98.4241 164.536 99.0632 163.168 99.3328C159.001 100.148 154.286 99.8762 154.286 99.8762C154.286 99.8762 167.155 95.5242 170.51 92.6243C173.953 83.3812 173.327 81.1074 175.948 67.0687C177.218 60.2733 181.926 49.3976 186.863 46.0151C180.711 43.0196 156.008 35.3242 124.455 35.009ZM23.0191 122.015C23.0191 122.015 22.5648 122.932 21.1214 123.521C19.678 124.11 19.7888 124.006 19.7888 124.006C19.7888 124.006 20.391 124.999 20.3453 125.993C20.3149 126.608 20.0932 127.077 19.8649 127.397C21.1062 127.96 22.254 128.943 22.7561 130.632C22.8061 130.758 22.8518 130.888 22.8952 131.027C23.3887 132.638 23.0257 133.755 22.6279 134.412C23.6126 134.842 24.7278 135.638 25.3973 136.89C25.6169 137.216 25.8038 137.601 25.9408 138.053C26.2277 139.027 26.1799 139.777 26.0603 140.284C27.6625 140.701 28.9255 141.683 29.6689 143.657C29.7124 143.773 29.7493 143.881 29.7819 143.994C30.0211 144.77 30.0624 145.496 29.9776 146.155C29.9515 147.331 29.4928 148.431 28.4581 149.181L28.3863 149.255C33.0318 154.642 39.3142 158.655 39.3142 158.655C51.8333 168.059 71.35 165.707 74.0912 164.794C75.0042 163.359 76.5694 160.224 77.615 158.659C73.5912 159.681 69.324 160.424 61.8895 159.965C54.3811 159.505 50.3986 156.242 50.3986 156.242C50.3986 156.242 55.4962 158.202 65.7394 157.681C72.2913 157.348 77.0911 156.311 81.0062 155.007C81.7888 153.703 84.0083 148.477 84.0083 148.477C84.0083 148.477 73.4369 152.542 60.7113 152C50.5703 151.572 44.7901 146.196 44.7901 146.196C44.7901 146.196 54.7724 150.307 64.9524 149.394C77.9672 148.225 83.8778 145.609 88.0538 143.649C90.6167 138.721 92.3928 129.325 92.3928 129.325C92.3928 129.325 83.617 141.173 63.909 141.433C59.6591 141.49 54.8158 141.192 50.2203 139.838C48.7421 139.307 47.3726 138.786 46.1053 138.279L46.0161 138.24C45.0031 137.838 44.064 137.438 43.1858 137.042C41.0011 137.236 39.1294 136.716 37.0078 136.021C30.7276 133.969 27.1929 127.773 26.4951 123.197L23.017 122.012L23.0191 122.015Z" fill="#B01E24"/>
<path d="M143.335 98.6264C141.256 100.27 139.675 101.724 137.599 103.254C136.43 104.357 135.145 104.803 133.786 104.672C133.148 104.591 132.708 104.501 131.865 104.17C108.638 95.0178 90.8478 90.3875 67.6204 92.651C65.259 90.8984 63.3379 89.2218 60.9467 87.5697C59.6533 80.9205 57.8382 70.8502 57.8354 70.8448C56.7893 70.2252 55.7322 69.9697 55.7322 69.9697C54.4551 65.8096 53.3192 61.9945 52.0312 57.7936C82.7149 51.1933 118.268 48.6907 152.107 58.0545C150.881 63.3749 149.805 68.1627 148.512 73.3664C147.824 74.0348 147.267 74.6082 146.626 75.2549V88.1077C146.626 89.5941 146.637 90.844 146.476 92.363C146.272 94.0314 145.96 95.6346 144.938 97.1074C144.389 97.8655 143.919 98.2405 143.335 98.6264Z" fill="black"/>
<path fill-rule="evenodd" clip-rule="evenodd" d="M100.11 55.0039C98.5251 55.017 96.9447 55.0539 95.2426 55.13C95.51 57.6495 95.6991 59.9516 95.9643 62.4841C96.5708 62.4797 97.0903 62.4558 97.7012 62.471V76.864C97.1164 76.8184 95.9643 76.7488 95.9643 76.7488C95.3404 79.4617 94.7883 81.9356 94.16 84.655C97.5903 84.9811 101.573 85.6898 104.984 86.255V75.9553C107.453 79.2074 110.053 84.0877 112.396 87.5375C115.035 88.1201 118.748 89.1484 121.392 89.8309C120.722 86.3898 120.129 83.2746 119.47 79.8704C118.759 79.7661 117.677 79.5596 116.985 79.4204C114.724 75.9575 113.448 73.8272 111.159 70.4577C113.338 67.3252 115.048 65.5796 116.994 63.1602C117.681 63.1993 118.955 63.3428 118.955 63.3428C119.331 60.6537 119.661 58.1995 120.037 55.5126C117.327 55.3039 114.164 55.13 111.496 55.0626C109.062 59.1407 107.331 61.4776 104.903 65.2449C104.903 61.332 104.988 59.1668 104.988 55.0083C103.277 54.9952 101.692 54.9887 100.11 55.0039ZM94.6991 55.1387C90.5601 55.3974 86.5972 55.6713 82.4713 56.0734C82.4713 58.4799 83.1604 60.5298 83.1604 62.8928C84.0212 62.808 84.0778 62.8254 84.969 62.7515C84.4691 67.5187 83.8386 70.9447 83.2713 75.0054C82.2887 68.823 81.5344 63.5362 80.5105 56.2734C77.3563 56.6365 74.902 56.9582 71.7608 57.3777C70.7522 64.5492 69.8935 69.5338 68.8479 75.4836C68.2392 71.6555 67.8305 68.686 67.1675 64.5101C67.9631 64.434 68.2935 64.3797 69.1109 64.3275C69.1109 62.1471 69.4087 59.969 69.4087 57.7256C63.7481 58.4038 56.0614 59.9537 56.0592 59.9537C56.9026 62.7015 57.6352 65.2057 58.4765 67.9404C58.4765 67.9404 59.6699 67.7296 60.3047 67.6556C61.696 74.7989 62.109 77.8683 63.3829 84.4224C67.1762 83.9855 70.1087 83.8681 73.926 83.6964C74.6629 79.5204 75.2303 76.001 75.9976 71.1577C76.7519 75.9249 77.215 79.4813 78.0258 83.6399C81.8365 83.6029 84.8038 83.8051 88.6493 84.0355C89.821 77.3792 91.034 71.3055 92.1188 62.4797C92.7709 62.4754 93.7057 62.4515 93.7057 62.4515C94.0622 59.932 94.3491 57.6386 94.6991 55.1387ZM120.446 55.543C120.685 58.2842 120.926 60.7842 121.168 63.5297C121.168 63.5297 122.398 63.8145 123.061 63.8906C123.061 70.336 123.052 75.7901 123.052 82.3116C123.052 85.3463 123.042 86.9289 124.772 89.131C125.591 90.0592 126.307 90.5983 127.194 91.0787C128.074 91.5417 128.778 91.783 129.644 92.0896C132.05 92.9395 134.606 93.5786 137.03 94.4373C138.987 95.1677 141.071 96.0264 142.88 93.8525C143.491 92.9721 143.684 91.9874 143.869 90.6722C144.028 89.3831 143.989 88.2462 143.989 86.9897V70.5729C143.989 70.5729 145.926 71.1968 146.617 71.3881C147.36 67.5491 148.03 64.0362 148.782 60.1537C148.78 60.1537 139.321 58.1321 135.645 57.4538V86.3093C134.365 85.9789 133.346 85.6224 132.054 85.2659C132.054 75.2467 132.059 66.7426 132.059 56.8582C128.335 56.3039 124.129 55.893 120.446 55.543ZM22.7517 113.326C22.7517 113.326 20.6952 114.98 17.6693 116.291C14.4563 117.684 12.6347 117.663 12.6347 117.663C12.6347 117.663 14.0672 119.895 18.0475 119.276C21.6496 118.717 23.143 116.728 23.143 116.728L32.5296 119.028C33.2774 123.256 35.0165 126.177 39.3685 129.286C41.9749 131.147 45.2726 131.708 49.1268 131.771L56.2375 137.388C56.2375 137.388 58.183 137.884 61.8546 137.794C67.3805 137.655 69.0587 137.205 69.0587 137.205L50.8681 129.41L36.6968 116.108L22.7539 113.328L22.7517 113.326ZM12.7868 122.608C11.9064 122.645 9.02827 122.725 9.02827 122.725C9.02827 122.725 7.07834 122.932 7.45441 125.295C7.87613 127.949 9.88693 127.962 9.88693 127.962C9.88693 127.962 12.0064 127.819 13.8216 127.762C15.4672 127.71 16.4758 126.323 16.5237 125.443C16.6715 122.612 13.1477 122.591 12.7868 122.608ZM16.2976 129.608C15.8041 129.738 12.1716 129.869 12.1716 129.869C12.1716 129.869 10.0217 129.943 10.213 132.325C10.4304 135.029 12.2782 135.036 12.2782 135.036C12.2782 135.036 15.8519 134.929 17.5127 134.779C19.2192 134.625 20.0583 133.325 20.0344 132.445C19.9605 129.697 16.6476 129.514 16.2976 129.608ZM19.2192 136.797C18.7062 136.818 15.9367 137.081 15.9367 137.081C15.9367 137.081 13.7042 137.164 13.9759 139.54C14.252 141.966 16.0563 142.151 16.0563 142.151C16.0563 142.151 18.7453 141.927 20.5105 141.849C22.1539 141.775 22.9691 140.497 23.0147 139.616C23.1669 136.781 19.8388 136.773 19.2192 136.797ZM24.2169 143.264C22.843 143.192 21.5887 143.759 21.5887 143.759C21.5887 143.759 19.8692 143.968 20.254 146.066C20.7213 148.616 22.8995 148.294 22.8995 148.294L25.5016 147.933C25.5016 147.933 27.6189 146.938 26.8733 144.949C26.4168 143.731 25.7842 143.344 24.2169 143.264Z" fill="white"/>
</g>
<defs>
<clipPath id="clip0_15016_302070">
<rect width="200" height="200" fill="white" transform="translate(0.710938 0.621094)"/>
</clipPath>
</defs>
</svg>
