<svg width="200" height="201" viewBox="0 0 200 201" fill="none" xmlns="http://www.w3.org/2000/svg">
<g clip-path="url(#clip0_15016_303939)">
<path d="M89.0224 24.9461C89.0224 24.9461 93.3365 32.3523 94.7525 34.453C94.6382 36.013 94.5445 37.4897 94.4562 38.9075C92.6068 39.0063 90.7296 39.1519 88.8317 39.3408C84.5887 37.4776 79.2225 35.3855 73.3831 33.7337C59.7094 29.8703 46.4049 27.6534 29.256 34.4825L20.3193 38.0443C20.3193 38.0443 32.0223 41.0931 34.584 41.9546C35.5321 45.1923 36.9673 49.9727 38.6329 54.9662C13.2302 69.5325 -6.83228 94.9058 -5.71952 134.376L-5.34514 147.623L2.30028 136.8C4.89498 133.126 7.42381 130.023 9.82785 127.403C2.0403 143.791 4.52926 157.834 4.60206 158.218L6.56584 169.01L12.6271 159.867C15.7868 155.102 20.685 150.966 25.5052 147.694C17.2722 166.422 23.8413 180.576 24.1273 181.175L27.7931 188.809L31.9581 181.437C46.2108 156.185 85.9216 151.473 105.728 156.163C105.407 156.639 105.22 157.21 105.22 157.818C105.22 158.763 105.669 159.605 106.371 160.17C106.364 160.174 106.357 160.177 106.357 160.177L95.5914 166.148L107.697 168.381C111.371 169.058 115.196 169.02 118.611 168.694L115.073 172.889L124.681 172.807C159.488 172.52 176.656 150.58 167.444 137.657C168.966 135.06 169.824 132.226 170.331 129.996C170.567 128.952 170.741 127.973 170.869 127.112C183.962 123.527 187.463 116.594 188.127 112.056C197.421 105.461 195.349 93.8745 187.03 88.4927C187.213 87.8722 187.345 87.4094 187.345 87.4094C187.345 87.4094 185.466 85.3694 183.922 84.4837C182.736 83.8042 181.008 82.9913 178.573 82.2165L169.406 74.4238L176.705 65.8441L165.324 66.3225C161.48 53.2069 147.133 45.8284 135.54 47.2029C133.891 45.8804 131.941 44.7347 129.785 43.7537C125.627 36.3821 115.878 25.7382 94.6953 25.1142L89.0154 24.9443L89.0224 24.9461Z" fill="#C1A875"/>
<path d="M94.6099 28.2705C94.6099 28.2705 96.4714 31.4736 97.9811 33.576C97.7402 36.6387 97.5911 39.3651 97.416 41.9442C94.4608 42.0326 91.419 42.2354 88.3164 42.563C84.0751 40.6703 78.5651 38.4777 72.5247 36.7704C59.1525 32.9919 46.6436 30.9571 30.422 37.4169C30.422 37.4169 33.9855 38.346 37.1591 39.5125C38.1818 43.0448 40.1525 49.756 42.4664 56.4464C16.8141 70.3247 -3.67307 95.0185 -2.56551 134.286L-2.45978 138.069L-0.277606 134.979C7.96406 123.314 15.6355 117.09 21.1889 113.783C22.4663 113.024 23.638 112.419 24.6744 111.933C3.31025 133.332 7.67634 157.504 7.7058 157.653L8.26738 160.735L9.99371 158.125C16.0255 149.023 27.5915 142.297 34.0566 139.055C18.2336 161.401 26.874 179.609 26.9745 179.815L28.0196 181.992L29.2087 179.889C47.2415 147.947 102.512 146.935 116.425 157.239C113.236 159.964 107.923 162.921 107.887 162.94L104.817 164.642L108.273 165.281C113.279 166.205 118.747 165.665 122.904 164.923C124.238 164.685 125.45 164.425 126.478 164.179C125.131 165.866 123.696 167.569 123.682 167.585L121.912 169.679L124.654 169.656C162.464 169.344 171.837 146.025 163.474 137.872C165.525 135.341 166.641 132.012 167.256 129.301C167.7 127.332 167.901 125.598 167.991 124.578C183.641 121.024 185.119 113.096 185.102 110.259C194.269 104.902 192.234 93.9369 183.23 90.0353C183.618 88.9573 183.823 88.2449 183.823 88.2449C183.823 88.2449 182.157 86.5879 177.021 85.0418L164.954 74.7844L169.619 69.3038L162.828 69.588C160.548 56.1795 145.734 48.4006 134.577 50.5481C132.827 48.8859 130.438 47.4335 127.533 46.2184C124.148 39.6771 115.437 28.8858 94.6116 28.2722L94.6099 28.2705Z" fill="#592C88"/>
<path d="M109.208 66.4575C108.8 69.5254 111.137 74.5207 115.371 76.2071C119.9 78.0149 124.955 75.6958 126.809 72.8065C125.537 72.1218 122.065 71.4008 121.315 70.9883C120.75 72.4529 116.659 74.4011 116.659 74.4011C116.659 74.4011 115.16 69.8183 115.311 68.4178C114.288 68.1215 110.302 66.6551 109.208 66.4575ZM167.172 105.101C163.733 107.172 159.738 107.967 155.966 108.115L155.93 113.795C155.93 113.795 160.58 109.983 161.233 109.191L162.256 113.642L166.582 109.139L166.929 113.599C166.929 113.599 170.482 110.761 172.597 108.822C169.477 107.234 167.172 105.101 167.172 105.101ZM145.534 107.125C144.019 109.34 141.722 113.942 144.298 118.97C144.298 118.97 146.742 112.103 153.065 108.108C150.134 107.987 147.485 107.546 145.534 107.125ZM174.625 109.713C173.741 111.793 171.747 115.563 168.038 118.799C168.038 118.799 175.89 118.639 180.5 110.321C178.559 110.756 176.514 110.403 174.625 109.713ZM135.099 126.198C130.413 132.786 130.681 137.608 131.248 140.071C133.581 140.712 135.68 140.222 140.1 139.086C135.08 134.901 135.099 126.198 135.099 126.198ZM162.987 128.066C162.987 128.066 157.772 134.141 154.718 136.05C156.543 136.128 158.065 136.452 159.358 137.02C162.448 132.623 162.987 128.066 162.987 128.066ZM147.733 132.096L141.495 138.899C141.973 138.774 142.46 138.639 142.956 138.49C146.983 137.282 150.158 136.551 152.699 136.317L153.611 132.829L149.541 135.549L147.733 132.096Z" fill="white"/>
<path d="M43.4546 41.0171C44.6436 44.5529 46.207 49.3576 46.207 49.3576L50.9527 49.2328L47.8328 52.9471L52.5074 53.0009L49.1483 56.4327L49.6839 58.5456C49.6839 58.5456 41.0141 62.8233 37.3778 66.4718C37.3778 66.4718 54.5579 59.5041 69.1485 55.2853C59.7403 45.534 43.4546 41.0171 43.4546 41.0171ZM106.249 52.7305C101.411 52.7443 96.6103 53.5746 92.2373 55.6822C78.6225 62.2426 76.631 76.913 76.631 76.913C76.631 76.913 86.7307 64.8651 102.535 64.0504C102.535 64.0504 98.2309 61.7694 94.0953 60.2008C94.0953 60.2008 112.887 53.3701 133.849 66.2257C139.836 69.895 146.034 66.4614 146.034 66.4614C146.034 66.4614 147.22 72.4984 142.219 74.2819C142.219 74.2819 144.866 75.6581 149.449 73.4222C149.449 73.4222 148.116 80.4904 135.163 77.8645C116.467 74.0722 115.505 90.4238 115.505 90.4238C117.274 87.3923 124.979 81.9516 138.271 81.7158C123.065 85.3488 108.123 99.4471 112.248 123.004C116.525 101.203 136.803 99.9654 141.911 101.723C164.641 109.533 167.986 98.9514 165.26 94.0757C162.7 94.2508 162.124 97.5059 162.124 97.5059L159.514 96.998C159.514 96.998 156.992 89.4202 157.578 83.3676C157.578 83.3676 160.715 82.3485 167.847 83.1961L158.398 75.3253L152.212 74.8643C152.212 74.8643 159.646 70.1186 152.676 63.4611C145.707 56.8019 136.299 56.9718 136.299 56.9718C136.299 56.9718 139.164 59.4469 141.223 63.0711C141.223 63.0711 123.528 52.6837 106.252 52.7305H106.249ZM155.252 76.6391L163.183 81.5269C159.377 81.234 156.697 81.7678 156.697 81.7678L155.252 76.6391ZM113.7 92.4135C113.699 92.4153 113.697 92.4153 113.697 92.417H113.702L113.7 92.4135ZM113.697 92.417C98.7422 92.3303 52.4242 101.569 36.2685 117.593C36.2685 117.593 82.0231 96.3532 110.788 97.1401C111.591 95.5507 112.551 93.9665 113.697 92.417ZM181.402 94.3167C180.206 96.6687 178.611 99.0467 176.704 100.095L174.364 99.3102C174.59 98.1177 174.018 96.8888 173.585 96.147C170.049 96.1262 168.09 102.985 174.711 106.294C178.403 108.138 184.348 107.437 185.7 103.193C187.485 97.6151 183.464 95.1764 181.402 94.3167ZM109.506 100.014C98.3037 101.173 49.0652 110.289 28.623 131.384C28.623 131.384 80.6643 106.051 107.877 105.451C108.258 103.675 108.788 101.849 109.506 100.014ZM107.301 108.914C96.2602 110.327 54.8404 119.726 42.7266 133.258C42.7266 133.258 81.2397 115.386 107.027 114.377L107.024 113.987C107.013 112.407 107.09 110.703 107.301 108.914ZM107.301 117.315C103.51 121.959 101.923 133.412 105.745 140.629C112.187 152.792 129.054 151.762 129.054 151.762C127.677 154.995 123.972 158.83 123.972 158.83C132.784 157.345 140.493 153.353 140.493 153.353C140.644 156.66 136.687 161.15 136.687 161.15C136.687 161.15 159.146 156.485 158.985 145.566C158.933 142.054 155.657 138.186 148.56 140.394C144.251 141.734 129.281 145.562 119.122 142.096C117.955 141.855 114.078 139.414 113.35 138.402C109.537 133.771 107.32 125.765 107.301 117.315ZM151.088 121.964C150.355 121.964 149.568 122.052 148.726 122.255C139.658 124.425 139.795 132.468 139.795 132.468C139.795 132.468 143.349 128.848 149.447 130.013C158.862 131.814 158.444 128.223 158.573 127.167C158.673 126.334 156.221 121.962 151.088 121.964Z" fill="#C1A875"/>
<path d="M43.4546 41.0171C44.6436 44.5529 46.207 49.3576 46.207 49.3576L50.9527 49.2328L47.8328 52.9471L52.5074 53.0009L49.1483 56.4327L49.6839 58.5456C49.6839 58.5456 41.0141 62.8233 37.3778 66.4718C37.3778 66.4718 54.5579 59.5041 69.1485 55.2853C59.7403 45.534 43.4546 41.0171 43.4546 41.0171ZM106.249 52.7305C101.411 52.7443 96.6103 53.5746 92.2373 55.6822C78.6225 62.2426 76.631 76.913 76.631 76.913C76.631 76.913 86.7307 64.8651 102.535 64.0504C102.535 64.0504 98.2309 61.7694 94.0953 60.2008C94.0953 60.2008 112.887 53.3701 133.849 66.2257C139.836 69.895 146.034 66.4614 146.034 66.4614C146.034 66.4614 147.22 72.4984 142.219 74.2819C142.219 74.2819 144.866 75.6581 149.449 73.4222C149.449 73.4222 148.116 80.4904 135.163 77.8645C116.467 74.0722 115.505 90.4238 115.505 90.4238C117.274 87.3923 124.979 81.9516 138.271 81.7158C123.065 85.3488 108.123 99.4471 112.248 123.004C116.525 101.203 136.803 99.9654 141.911 101.723C164.641 109.533 167.986 98.9514 165.26 94.0757C162.7 94.2508 162.124 97.5059 162.124 97.5059L159.514 96.998C159.514 96.998 156.992 89.4202 157.578 83.3676C157.578 83.3676 160.715 82.3485 167.847 83.1961L158.398 75.3253L152.212 74.8643C152.212 74.8643 159.646 70.1186 152.676 63.4611C145.707 56.8019 136.299 56.9718 136.299 56.9718C136.299 56.9718 139.164 59.4469 141.223 63.0711C141.223 63.0711 123.528 52.6837 106.252 52.7305H106.249ZM155.252 76.6391L163.183 81.5269C159.377 81.234 156.697 81.7678 156.697 81.7678L155.252 76.6391ZM113.7 92.4135C113.699 92.4153 113.697 92.4153 113.697 92.417H113.702L113.7 92.4135ZM113.697 92.417C98.7422 92.3303 52.4242 101.569 36.2685 117.593C36.2685 117.593 82.0231 96.3532 110.788 97.1401C111.591 95.5507 112.551 93.9665 113.697 92.417ZM181.402 94.3167C180.206 96.6687 178.611 99.0467 176.704 100.095L174.364 99.3102C174.59 98.1177 174.018 96.8888 173.585 96.147C170.049 96.1262 168.09 102.985 174.711 106.294C178.403 108.138 184.348 107.437 185.7 103.193C187.485 97.6151 183.464 95.1764 181.402 94.3167ZM109.506 100.014C98.3037 101.173 49.0652 110.289 28.623 131.384C28.623 131.384 80.6643 106.051 107.877 105.451C108.258 103.675 108.788 101.849 109.506 100.014ZM107.301 108.914C96.2602 110.327 54.8404 119.726 42.7266 133.258C42.7266 133.258 81.2397 115.386 107.027 114.377L107.024 113.987C107.013 112.407 107.09 110.703 107.301 108.914ZM107.301 117.315C103.51 121.959 101.923 133.412 105.745 140.629C112.187 152.792 129.054 151.762 129.054 151.762C127.677 154.995 123.972 158.83 123.972 158.83C132.784 157.345 140.493 153.353 140.493 153.353C140.644 156.66 136.687 161.15 136.687 161.15C136.687 161.15 159.146 156.485 158.985 145.566C158.933 142.054 155.657 138.186 148.56 140.394C144.251 141.734 129.281 145.562 119.122 142.096C117.955 141.855 114.078 139.414 113.35 138.402C109.537 133.771 107.32 125.765 107.301 117.315ZM151.088 121.964C150.355 121.964 149.568 122.052 148.726 122.255C139.658 124.425 139.795 132.468 139.795 132.468C139.795 132.468 143.349 128.848 149.447 130.013C158.862 131.814 158.444 128.223 158.573 127.167C158.673 126.334 156.221 121.962 151.088 121.964Z" fill="#C1A875"/>
<path d="M155.256 76.6372L156.701 81.7659C156.701 81.7659 159.384 81.2338 163.191 81.5267L155.256 76.6372Z" fill="#592C88"/>
</g>
<defs>
<clipPath id="clip0_15016_303939">
<rect width="200" height="200" fill="white" transform="translate(0 0.945312)"/>
</clipPath>
</defs>
</svg>
