<svg width="201" height="201" viewBox="0 0 201 201" fill="none" xmlns="http://www.w3.org/2000/svg">
<path d="M11.9453 17.2058V45.3479H29.3458C32.9857 45.3479 34.6719 45.5252 37.2463 48.5436L38.3116 50.0542L73.4675 105.095C73.4675 105.095 74.6214 106.871 76.5745 106.871C78.7051 106.871 79.859 105.095 79.859 105.095L100.367 74.3776L121.672 105.007C121.672 105.007 122.916 106.782 124.691 106.871C126.644 106.96 127.71 105.095 127.71 105.095L162.332 50.0543L163.397 48.5437C165.173 45.7029 167.48 45.4367 171.12 45.4367L188.698 45.348V17.2059H188.52H158.958H157.182C151.768 17.1171 149.726 19.1587 148.128 21.6445L124.868 56.0905L102.674 22.3544L101.964 21.2891C101.964 21.2891 101.343 20.3126 100.277 20.3126C99.2117 20.3126 98.5903 21.2891 98.5903 21.2891L97.8801 22.3544L76.3963 56.0905L52.4263 21.6445C50.8284 19.1587 48.7856 17.1171 43.3701 17.2059H41.5947H11.9434L11.9453 17.2058ZM100.632 90.5333L81.8113 118.144L121.405 180.285C122.737 182.594 123.892 182.95 124.425 182.95C125.578 183.039 126.288 182.328 127.62 180.198L158.691 123.47C161.444 118.587 166.059 118.586 166.059 118.586H188.52V90.6217H153.543C147.152 90.6217 143.956 95.9479 143.956 95.9479L125.045 125.954L100.632 90.5333Z" fill="#002855"/>
</svg>
