<svg width="201" height="201" viewBox="0 0 201 201" fill="none" xmlns="http://www.w3.org/2000/svg">
<g clip-path="url(#clip0_15016_302632)">
<path d="M153.338 31.9668L50.3967 32.0001L58.3989 45.5981L10.8704 45.5325L23.1766 68.4577L23.1473 127.901C18.9771 129.624 15.0397 131.519 11.4188 133.555L0.460938 140.05L30.5688 169.437L36.643 156.866C37.1987 156.616 37.8159 156.345 38.3068 156.158C47.2969 152.266 67.5729 146.44 101.047 146.336C126.477 146.419 140.952 148.542 156.032 153.265V156.751C156.032 157.636 156.722 158.593 157.578 158.874L168.116 162.412L171.876 169.072L200.461 140.581L188.92 133.232C185.829 131.496 182.497 129.842 179.04 128.338L179.051 67.7375L188.607 45.468C188.607 45.468 157.714 45.3754 146.362 45.3525L153.338 31.9668Z" fill="#B0B7BC"/>
<path d="M148.753 34.7432L55.2588 34.7744L63.2641 48.3807L15.5226 48.313L25.9604 67.7646L25.9332 129.771C21.2282 131.631 16.8365 133.696 12.8156 135.96L4.99512 140.591L29.7421 164.743L34.5599 154.774C35.3286 154.399 36.421 153.901 37.267 153.589C46.6708 149.509 67.2694 143.661 101.045 143.567C133.557 143.661 156.889 149.915 166.978 154.026L172.566 164.462L196.043 141.06L187.479 135.607C183.98 133.641 180.23 131.827 176.252 130.17L176.263 67.1693L184.387 48.2319C184.387 48.2319 142.194 48.1028 141.777 48.1226L148.753 34.7432ZM158.152 152.801V153.738L159.071 154.071V157.401L160.188 157.796V154.456L161.107 154.789V153.842L158.152 152.801ZM161.985 154.154L161.254 158.181L162.371 158.566L162.726 156.235H162.737L163.729 159.045L164.168 159.201L165.202 157.109H165.212L165.525 159.68L166.643 160.075L165.995 155.569L164.878 155.174L163.959 157.14L163.092 154.539L161.985 154.154Z" fill="#0033A1"/>
<path d="M100.897 123.427C64.8243 123.443 36.1598 129.742 16.0206 141.06L14.876 141.695L15.864 142.558C19.3 145.555 27.9174 154.421 27.9174 154.421L30.5545 150.092C43.9938 142.975 66.7251 137.667 100.897 137.553C135.073 137.667 157.798 142.975 171.239 150.092L173.871 154.421C173.871 154.421 182.487 145.555 185.923 142.558L186.915 141.695L185.777 141.06C165.631 129.742 136.973 123.443 100.897 123.427Z" fill="#DB1A21"/>
<path d="M67.9993 41.5303L73.2087 49.8751L82.8934 117.472C87.801 116.956 92.8047 116.688 97.8711 116.699L102.196 78.6892L107.939 116.829C113.819 116.895 117.715 117.258 122.79 117.73L131.918 49.668L136.315 41.5303H120.2L114.717 90.4349L108.305 41.5303H96.2638L90.317 90.3235L84.6261 41.5303H67.9993ZM45.5813 55.5872L27.8213 55.6361L33.3409 65.9227L33.3086 115.671C33.3044 121.218 38.2047 126.444 44.0251 125.063C60.2947 121.204 64.3794 120.542 67.0562 113.022C67.6348 111.398 67.875 108.178 67.875 106.467L68.0149 63.8196L72.4087 55.6361H55.9104L55.9051 104.093C55.9051 105.818 56.0221 106.921 55.2587 108.467C53.8174 111.389 49.5239 112.457 47.8988 112.457C45.1865 112.585 45.5228 108.619 45.5176 107.053C45.4392 85.1058 45.5813 55.5872 45.5813 55.5872ZM144.096 55.5872C141.287 55.5872 139.407 56.0887 137.255 57.9015C134.937 59.8558 133.767 62.036 133.767 64.8498V108.081C133.767 108.081 133.642 113.744 136.817 117.209C141.151 121.666 161.38 124.94 168.889 128.082L169.046 90.0592L149.516 86.5002L158.038 98.0461L158.048 113.613C158.048 113.613 152.931 112.059 150.163 110.526C148.921 109.835 147.511 109.259 146.425 107.823C144.796 105.66 145.13 103.711 145.13 101.006C145.13 101.006 145.12 73.3653 145.12 68.9041C145.12 66.134 146.007 65.2588 148.785 65.2588C151.228 65.2588 158.038 65.2359 158.038 65.2359V74.7577L168.889 84.0204V55.5872H144.096ZM89.0292 127.179L87.565 127.232L87.7854 133.793L93.9671 133.567L93.9243 132.336L89.2068 132.507L89.0292 127.179ZM111.5 127.528L114.686 134.341L115.699 134.415L119.595 128.12L118.132 128.012L115.396 132.569L113.172 127.651L111.5 127.528ZM66.5204 129.346C66.3136 129.33 66.0682 129.35 65.7757 129.398L61.1961 130.155C60.0274 130.347 59.7015 130.724 59.8864 131.944L60.4065 135.357C60.5924 136.574 61.0112 136.835 62.1809 136.637L66.7606 135.877C67.9293 135.69 68.2562 135.315 68.0703 134.094L67.5502 130.677C67.4123 129.762 67.1397 129.393 66.5204 129.346ZM138.216 130.202L137.234 136.689L143.647 137.75L143.835 136.522L138.864 135.7L139.104 134.098L141.966 134.571L142.143 133.465L139.271 132.989L139.49 131.547L144.409 132.358L144.577 131.253L138.216 130.202ZM66.0473 130.539L66.6708 134.648L61.9 135.44L61.2754 131.326L66.0473 130.539ZM40.7875 135.086L39.5457 135.513L39.4005 140.185L36.472 136.554L35.4976 136.876L35.2135 141.601L32.3884 137.938L30.9482 138.427L35.2031 143.88L36.1681 143.557L36.4908 138.666L39.4841 142.433L40.424 142.111L40.7875 135.086ZM164.86 136.585C164.411 136.637 164.15 136.98 163.909 137.709L163.68 138.396C163.293 139.561 163.554 139.988 164.672 140.394L168.39 141.726L167.92 143.141L163.711 141.632L163.951 140.904L162.635 140.727L162.583 140.893C162.197 142.059 162.468 142.496 163.586 142.891L167.272 144.213C168.39 144.619 168.849 144.452 169.236 143.287L169.528 142.433C169.904 141.257 169.633 140.831 168.515 140.425L164.808 139.093L165.246 137.761L169.142 139.155L168.912 139.873L170.228 140.009L170.27 139.873C170.625 138.801 170.312 138.364 169.246 137.99L165.873 136.772C165.445 136.627 165.121 136.554 164.86 136.585Z" fill="white"/>
</g>
<defs>
<clipPath id="clip0_15016_302632">
<rect width="200" height="200" fill="white" transform="translate(0.890625 0.984375)"/>
</clipPath>
</defs>
</svg>
