<svg width="201" height="201" viewBox="0 0 201 201" fill="none" xmlns="http://www.w3.org/2000/svg">
<g clip-path="url(#clip0_15016_302042)">
<path d="M9.53727 27.7949V76.7182H21.0513L26.7085 103.981C25.2892 105.155 24.1126 106.149 22.9749 107.129L20.1878 107.178L18.993 108.093C16.3237 110.143 13.0895 114.143 10.2776 117.784L8.91895 119.548L9.4772 121.702C9.58157 122.104 10.1259 124.117 11.0658 126.198C10.9275 126.527 10.831 126.771 10.7927 126.868L9.76422 129.517L11.7005 131.612C11.7727 131.691 12.1629 132.138 12.7922 133.351L13.3911 134.506L13.9942 136.021C14.3741 136.971 14.7309 137.97 15.0003 138.835L15.7503 141.242L18.1963 141.884C18.3856 141.935 18.8717 142.082 19.524 142.28L19.7964 142.363C25.6703 144.147 27.6096 144.647 28.8165 144.694L30.0447 144.742L31.1121 144.174C32.2559 143.572 33.4203 142.933 34.6442 142.236L40.9052 172.408H96.598L98.8735 163.867L101.147 172.408H156.84L161.792 148.544C178.978 148.344 200.06 143.433 200.06 143.433C200.06 143.433 181.222 134.254 173.105 123.093C181.026 120.339 188.79 111.939 188.79 111.939C188.79 111.939 176.437 113.569 170.142 108.308L176.696 76.7188H188.21V27.7955H9.53727V27.7949Z" fill="#A9A8A9"/>
<path d="M13.672 31.9319V72.5839H24.4167L31.2644 105.586C29.0611 107.393 26.9215 109.162 24.5623 111.229C23.4009 111.261 21.7595 111.287 21.7595 111.287L21.6217 111.29L21.5131 111.374C18.9057 113.375 15.1563 118.235 13.5537 120.309L13.4287 120.469L13.4797 120.666C13.5155 120.803 14.3371 123.937 15.669 126.092C15.129 127.129 14.6678 128.314 14.6472 128.367L14.5537 128.607L14.7303 128.798C15.271 129.382 15.8541 130.274 16.4651 131.451L16.5695 131.652L18.697 131.857L18.9803 133.339L17.7085 134.17L17.8341 134.487C18.254 135.538 18.649 136.645 18.947 137.606L19.0173 137.825L19.24 137.884C19.4773 137.945 20.1314 138.144 20.9973 138.407C24.5234 139.478 28.0447 140.528 28.9768 140.564L29.0872 140.567L29.1867 140.515C32.0338 139.017 34.782 137.403 37.5193 135.737L44.2699 168.274H93.422L98.8735 147.794L104.326 168.274H153.478L158.427 144.417C158.774 144.42 159.112 144.43 159.462 144.43C168.42 144.43 177.401 143.548 186.914 141.734L188.043 141.516L187.039 140.961C182.069 138.214 178.683 135.059 175.642 132.067C173.153 129.556 170.933 126.93 168.976 124.613C167.681 123.084 166.448 121.625 165.276 120.363C166.735 120.342 173.707 119.652 179.363 115.74C176.196 116.313 172.889 115.138 169.162 112.806C167.917 111.796 166.722 110.858 165.572 109.979L173.33 72.5845H184.074V31.9325H123.285V48.9751L118.147 31.9325H79.59L74.4558 49.0151V31.9325H13.6666L13.672 31.9319Z" fill="#231F20"/>
<path d="M21.3102 39.5668V64.9432H30.6312L36.8273 94.8068C39.3109 93.248 42.4681 91.7328 45.3286 90.3663C45.7667 90.1569 46.1969 89.9506 46.6119 89.7522C46.0403 88.9888 44.2424 86.2789 45.3607 83.6793C46.53 80.9603 50.4688 79.3723 57.0665 78.959C58.322 78.2867 59.6812 77.7181 61.1242 77.243L58.7158 64.9432H66.8208V39.5668H21.3096H21.3102ZM85.273 39.5668L74.796 74.4268C76.8081 73.7715 78.5442 72.8425 80.378 71.3595L81.3064 70.6083L81.0442 71.7733C81.0266 71.8473 80.7074 73.2199 79.5436 74.638C81.8227 74.0931 83.8482 74.0391 85.8816 74.0391L86.793 74.0403C89.7809 74.0403 92.2913 73.902 95.1341 72.1598L95.6821 71.8243L95.7634 72.462C96.1778 75.6823 95.2227 77.6672 94.23 78.8237C97.1159 78.0573 102.055 77.0422 107.019 77.0422C108.091 77.0422 109.125 77.0913 110.092 77.1872C113.126 77.4906 116.404 78.4651 119.875 79.4991C121.552 79.9985 123.25 80.5033 124.952 80.9415L112.645 40.139L112.473 39.5668H85.273ZM130.926 39.5668V64.9432H139.222L135.782 82.2443C136.976 82.2285 138.126 82.1447 139.162 81.8165C137.816 82.9202 136.539 83.9257 135.276 84.7886L134.605 88.1606C135.307 88.3996 136.373 88.9276 137.77 89.6205C141.819 91.6266 148.596 94.9871 154.383 94.9871C157.057 94.9865 159.57 94.5156 161.274 93.0896L167.115 64.9432H176.437V39.5668H130.926H130.926ZM71.5284 77.8522C71.1758 78.01 70.8154 78.1605 70.4531 78.3061C70.3475 78.3486 70.2407 78.3874 70.1346 78.4293C69.873 78.5318 69.6121 78.6338 69.3487 78.7315C69.2875 78.7552 69.2256 78.7776 69.1643 78.8007C68.2328 79.1453 67.3056 79.4706 66.4228 79.8031C66.3475 79.8316 66.2692 79.8595 66.194 79.8881C65.9737 79.9718 65.7638 80.0586 65.5502 80.1441C65.4282 80.1939 65.302 80.2418 65.1819 80.2922C64.9962 80.3699 64.8202 80.4512 64.6424 80.5319C64.5071 80.5932 64.3687 80.6538 64.2383 80.7169C64.0799 80.7934 63.9324 80.8729 63.782 80.9524C63.6145 81.0416 63.4422 81.1277 63.2856 81.2206C61.1345 82.4979 59.7868 85.8675 59.7868 85.8675C63.8699 84.1751 66.8906 83.5932 66.8906 83.5932C66.907 80.3401 71.5284 77.8522 71.5284 77.8522ZM107.047 81.9864C106.781 81.9882 106.512 81.9943 106.243 82.0076C99.8289 82.3159 95.588 83.3086 90.6177 85.2024C90.5322 85.186 90.4527 85.1709 90.3689 85.1551C92.5055 85.5641 95.1183 86.1557 96.2968 86.4281C105.428 82.825 113.344 84.7667 115.89 85.5319C112.618 85.8444 106.727 87.1241 103.832 88.5283C108.035 89.8572 111.036 91.3954 114.859 93.2C126.346 91.2061 133.485 95.0138 133.463 95.0392C129.636 94.6284 125.731 95.2814 121.987 96.7462C121.982 96.7917 121.974 96.8384 121.966 96.8845C123.078 97.657 123.996 98.3123 124.853 98.9458C125.239 98.8402 126.756 98.4634 129.19 98.3305C128.843 98.3421 128.497 98.3542 128.18 98.3803C128.183 98.3627 128.185 98.3445 128.187 98.3269C136.664 94.7674 143.302 100.074 151.339 97.1527C144.985 97.6716 139.761 94.5101 136.529 92.95C132.61 91.0599 123.498 88.2661 111.208 91.3062C110.608 91.0544 109.593 90.5447 108.744 90.2619C108.744 90.2619 110.973 89.3972 114.771 88.8208C113.867 88.9263 112.953 89.0507 112.015 89.2164C118.267 86.774 124.74 87.3857 130.586 84.0908C122.102 86.9457 115.31 81.9251 107.047 81.9864ZM88.9114 84.8942C88.9702 84.9045 89.0279 84.9136 89.0892 84.9239C89.0267 84.9136 88.9702 84.9045 88.9114 84.8942ZM89.7172 85.0331C89.8198 85.0519 89.926 85.0726 90.0321 85.0926C89.9272 85.0726 89.8198 85.0519 89.7172 85.0331ZM161.259 93.1691C158.279 97.7353 153.35 99.7025 151.038 100.248C152.394 101.02 155.091 102.574 158.787 105.078L161.259 93.1691ZM141.195 93.5125C142.925 94.3196 144.652 95.0969 146.392 95.7492C144.822 95.1163 143.095 94.3329 141.195 93.5125ZM129.534 98.3148C129.486 98.3154 129.443 98.319 129.396 98.3208C129.441 98.3184 129.488 98.3166 129.534 98.3148ZM130.68 100.381C129.462 100.408 128.268 100.502 127.099 100.662C127.987 101.365 128.917 102.127 130.037 103.058C138.695 102.46 148.302 105.129 154.051 110.606C149.053 109.032 141.441 108.493 137.846 109.783C138.85 110.925 139.525 111.598 140.239 112.268C140.257 112.258 141.251 111.778 143.421 111.969C142.909 111.897 142.395 111.839 141.878 111.801C147.841 110.291 154.885 112.516 159.042 114.351C163.201 116.191 166.94 118.024 171.555 116.92C166.182 115.704 161.207 112.352 158.313 110.228C148.834 103.271 139.202 100.188 130.68 100.381ZM152.976 104.622C154.751 105.669 156.389 106.786 157.946 107.922C157.941 107.917 157.937 107.914 157.933 107.91C156.372 106.679 154.701 105.595 152.976 104.622ZM148.196 113.119C150.594 113.996 153.577 115.467 157.218 117.895C157.551 118.117 157.863 118.351 158.18 118.58C155.289 116.331 151.885 114.361 148.196 113.119ZM141.886 113.792C142.135 114.025 142.402 114.278 142.699 114.564C152.439 117 159.607 126.957 164.134 129.576C161.393 129.006 153.455 125.767 150.831 123.749C152.686 125.338 154.449 126.905 156.46 128.193C162.463 132.024 168.679 135.095 176.006 136.55C168.571 134.027 158.313 114.311 142.081 113.962C142.081 113.962 142.007 113.899 141.886 113.791V113.792ZM55.2224 124.047C50.6787 125.402 47.1405 126.87 43.8722 128.746L50.4888 160.639H87.5546L92.5746 141.779C83.4508 142.92 73.9544 145.022 63.5726 148.172L63.0016 148.347C63.0016 148.347 74.4356 138.269 75.6225 134.251C76.9702 129.695 73.7286 127.064 72.4908 126.252C71.0448 126.483 69.5781 126.6 68.1309 126.6C63.302 126.6 58.9403 125.29 55.2224 124.047ZM108.921 140.746C107.59 140.746 106.258 140.775 104.923 140.817L110.199 160.639H147.264L150.683 144.158C144.8 143.813 139.271 143.189 133.873 142.572C126.021 141.675 117.901 140.747 108.921 140.747V140.746Z" fill="#6C4023"/>
<path d="M57.0727 98.3488C56.6152 98.6091 56.171 98.87 55.7099 99.1473C55.864 99.373 55.938 99.6394 55.904 99.9428C55.8003 100.696 55.1055 101.275 54.2887 101.291C53.7936 101.287 53.4004 101.071 53.1686 100.726C52.688 101.035 52.2578 101.315 51.8555 101.582C52.3379 102.265 53.1316 102.692 54.1285 102.698C55.7936 102.668 57.2105 101.482 57.4283 99.9404C57.4975 99.3372 57.3652 98.8069 57.0727 98.3488Z" fill="#A9A8A9"/>
<path d="M17.959 36.2239V68.2909L21.3037 64.9462V39.5686H66.8149V64.9462L70.159 68.2909V36.2239H17.959ZM82.7774 36.2239L71.0231 75.3316C72.4132 75.0864 73.6463 74.8012 74.7883 74.4298L85.2665 39.5686H112.466L112.637 40.1408L124.944 80.9432C126.191 81.2642 127.441 81.5452 128.687 81.7661L114.951 36.2239H82.7774ZM127.573 36.2263V68.2933L130.919 64.9486V39.571H176.43V64.9486L179.774 68.2933V36.2263H127.573ZM139.215 64.945L135.139 68.2896L132.373 82.1963C132.781 82.2175 133.19 82.24 133.596 82.24C134.328 82.24 135.059 82.2545 135.774 82.2448L139.215 64.945ZM30.6217 64.9462L27.9008 68.2909L27.9457 68.5075L34.9985 102.505C35.2334 102.311 35.4597 102.125 35.7 101.925C34.9482 98.822 35.0422 96.3123 35.0471 96.2043L35.055 96.0065L35.214 95.8881C35.7 95.5265 36.2467 95.166 36.8177 94.808L30.6253 64.945L30.6217 64.9462ZM58.7062 64.9462L61.1146 77.2448C62.1498 76.9044 63.2275 76.6107 64.3525 76.3722L62.7742 68.289L58.7105 64.9462H58.7062ZM167.105 64.9486L161.266 93.0926C161.291 93.072 161.319 93.0556 161.344 93.0343C161.314 93.0823 161.28 93.126 161.249 93.1733L158.777 105.082C159.708 105.713 160.709 106.41 161.762 107.165L169.828 68.2927L167.105 64.9486ZM93.3909 75.3862C89.0105 78.1228 77.4175 74.5542 71.2081 82.0349C69.4818 83.9433 70.5637 85.9299 71.4023 87.4876C68.0146 88.2977 63.1444 89.4834 60.9374 90.1957C62.9108 88.7412 65.0983 87.8401 67.1013 86.3844C67.1013 86.3844 66.9351 85.9754 66.8974 85.7133C60.881 87.5489 51.1886 93.4361 46.4367 96.3869C46.7614 95.2079 47.1279 93.1964 47.5429 92.2722C45.515 93.2983 40.4949 97.629 40.4949 97.629L38.7122 97.1017C38.7122 97.1017 38.5623 98.7832 39.0071 100.412C40.7741 99.2407 44.4155 97.609 44.4155 97.609L27.9712 113.558L25.3183 113.887L22.442 117.158C23.7624 116.92 25.2436 116.919 26.3522 116.856C26.3522 116.856 21.7915 120.718 22.7964 123.418C23.1222 124.035 23.7127 124.424 24.3917 124.616C26.138 124.974 29.8529 123.197 31.1126 121.773C30.9099 122.763 30.4779 123.61 29.9427 124.474C33.0823 122.12 34.9154 118.681 34.9955 114.92C34.5301 113.849 32.9421 114.397 31.703 114.361C33.0962 113.623 36.8287 112.021 38.6988 111.621C38.6988 111.621 39.1011 112.479 39.2474 113.766C42.3967 111.636 44.9743 110.597 44.9743 110.597C44.9743 110.597 45.4622 111.212 45.4871 112.421C45.4871 112.421 44.302 113.659 43.1345 115.699C46.4901 113.741 48.978 112.215 52.1346 110.499C52.3009 109.267 51.4732 108.393 51.4732 108.393C53.4259 107.319 58.2875 104.812 60.2342 103.773C61.4356 104.215 64.9029 105.085 64.9029 105.085C62.8501 106.676 61.3282 108.362 61.1219 110.267C60.5837 112.873 61.3956 114.913 63.3288 116.425C65.8228 118.079 70.2961 118.32 74.1244 117.005C80.5517 113.484 81.4497 102.563 77.7355 97.2856C78.6087 97.0726 80.261 96.9003 80.261 96.9003C81.792 96.7243 83.5359 96.8232 83.5359 96.8232C84.596 98.2789 85.7447 101.46 85.7447 101.46C99.5475 101.819 117.054 113.095 125.803 124.813C138.817 142.24 168.708 139.149 168.708 139.149C168.708 139.149 168.574 139.098 168.334 139.003C137.817 129.13 140.659 113.489 109.531 96.7625C88.2204 85.314 73.6948 87.1884 72.7603 87.3237C72.744 87.3268 72.7276 87.328 72.7106 87.331C74.085 86.5822 76.9982 84.4184 78.2288 83.2278C78.437 78.1592 93.0093 80.6326 93.3928 75.3795L93.3909 75.3862ZM38.714 97.1029C39.2079 96.6782 39.836 96.2389 40.5259 95.8074C39.7328 96.2734 39.0841 96.717 38.714 97.1029ZM53.2013 82.0786C45.4847 83.3268 48.8991 88.041 48.8991 88.041L48.9762 88.0847C49.9744 85.6696 51.4343 83.6878 53.2013 82.0786ZM135.271 84.7946C133.995 85.6666 132.736 86.3802 131.446 86.8784L131.361 87.3086C132.346 87.5853 133.478 87.8923 134.235 88.0574C134.341 88.081 134.467 88.1199 134.601 88.1654L135.271 84.7946ZM58.8689 95.47C59.7718 95.4294 61.841 95.9003 61.841 95.9003C61.841 95.9003 62.4417 100.479 58.3725 102.695C56.8949 103.499 55.6025 104.294 52.5472 104.787C47.4683 105.608 42.9865 103.214 42.9865 103.214C46.1995 102.994 48.3506 101.571 48.3506 101.571C48.3506 101.571 48.3615 101.561 48.3815 101.544C51.0193 99.4155 56.9884 96.1521 58.563 95.5222C58.6346 95.4925 58.7402 95.4761 58.8689 95.47ZM86.4904 114.212C86.4904 114.212 85.6894 117.769 83.1779 119.875C89.6312 123.238 92.7144 128.553 93.5099 131.24C94.3048 133.93 93.1409 136.515 92.3151 137.015C94.6573 136.715 102.079 135.769 104.415 135.472C106.427 135.067 106.688 133.481 106.423 132.614C105.295 128.749 97.6046 117.707 86.4898 114.212H86.4904ZM31.7279 116.683C31.9585 116.684 32.0422 116.936 31.913 117.352C31.2 119.422 29.7339 121.866 27.2388 122.518C26.7206 122.576 25.7351 122.689 25.6672 122.129C25.5009 120.158 27.7904 119.644 29.112 118.64C29.1775 118.578 29.2528 118.508 29.3171 118.446C28.8183 118.171 27.8826 118.479 27.2952 118.499C28.493 117.38 29.9657 116.689 31.7279 116.683ZM43.4124 118.247C40.342 119.038 36.7813 121.522 36.7813 121.522C39.4537 120.751 41.0356 120.359 42.0362 121.055C43.0362 121.75 42.2055 124.905 42.2055 124.905C42.714 123.461 45.6534 119.642 45.6534 119.642C45.0484 118.97 43.4124 118.247 43.4124 118.247ZM43.8615 128.748C43.6849 128.849 43.5047 128.947 43.3293 129.051C43.1527 129.613 42.521 131.569 41.8469 132.987L41.7959 133.098L41.6916 133.162C41.5945 133.223 41.498 133.283 41.4003 133.343L47.7577 163.984L50.4786 160.64L43.8621 128.747L43.8615 128.748ZM104.912 140.82C103.774 140.854 102.634 140.903 101.491 140.969L107.618 163.985L110.19 160.642L104.912 140.82ZM96.1307 141.387C94.9474 141.504 93.7599 141.632 92.5645 141.782L87.5444 160.64L90.1148 163.984L96.1307 141.387ZM150.674 144.156L147.255 160.637L149.978 163.981L154.058 144.319C152.916 144.275 151.788 144.222 150.674 144.156Z" fill="#B5A268"/>
<path d="M71.5322 77.8535C69.1748 78.3323 69.3277 77.9555 67.0061 78.5174C62.2421 79.3335 57.2426 82.0987 54.7505 86.1758C55.9071 84.896 60.8774 81.4955 63.4448 81.1315C63.5522 81.0702 63.6729 81.0131 63.7864 80.9537C63.9369 80.8742 64.0837 80.7935 64.2421 80.717C64.3725 80.6545 64.5115 80.5944 64.6462 80.5331C64.8246 80.4524 65 80.3717 65.1857 80.2935C65.3058 80.2437 65.4314 80.1952 65.5546 80.1454C65.767 80.0592 65.9794 79.9737 66.199 79.8893C66.2737 79.8614 66.3507 79.8323 66.4266 79.8044C67.3095 79.4719 68.2367 79.1466 69.1681 78.8019C69.2294 78.7789 69.2919 78.757 69.3538 78.734C69.6165 78.6357 69.8774 78.5331 70.1384 78.4306C70.2446 78.3887 70.352 78.3499 70.4575 78.3074C70.8192 78.1618 71.1796 78.0113 71.5322 77.8535ZM107.199 80.3426C106.934 80.3444 106.665 80.3517 106.396 80.3651C98.7557 80.734 94.1998 82.0696 87.8211 84.7462C87.9613 84.7595 88.1276 84.7807 88.3023 84.8044C88.3618 84.8129 88.4243 84.8214 88.488 84.8305C88.6233 84.8505 88.7653 84.8724 88.9152 84.8966C88.9747 84.9057 89.0305 84.9142 89.093 84.924C89.292 84.9585 89.5032 84.9949 89.721 85.0344C89.823 85.0532 89.9304 85.0726 90.036 85.0926C90.147 85.1127 90.2587 85.1345 90.3715 85.1564C90.4559 85.1721 90.536 85.1873 90.6215 85.2037C95.593 83.3105 99.8328 82.3184 106.247 82.0089C114.878 81.5932 121.832 87.0393 130.59 84.0932C121.839 85.2571 115.439 80.2771 107.199 80.3426ZM81.2659 86.319C78.4758 86.3275 75.6305 86.6406 72.7148 87.3311C72.7148 87.3311 72.7337 87.3287 72.7658 87.3238C73.7003 87.1873 88.2253 85.3129 109.535 96.7626C140.664 113.488 137.823 129.131 168.339 139.003C168.496 139.054 168.648 139.106 168.807 139.156C140.346 125.865 136.96 107.099 109.805 94.4635C100.502 90.1339 91.2308 86.288 81.2659 86.319ZM122.404 88.3245C119.456 88.2723 116.877 88.5029 114.776 88.822C110.978 89.3985 108.748 90.2632 108.748 90.2632C109.597 90.5454 110.612 91.0557 111.213 91.3075C123.503 88.2674 132.616 91.0605 136.534 92.9513C139.766 94.5108 144.988 97.6716 151.342 97.154C149.671 96.8646 148.027 96.3634 146.395 95.7517C144.654 95.0994 142.927 94.3221 141.197 93.5144C136.932 91.5241 132.646 89.3942 128.083 88.765C126.073 88.4883 124.173 88.3554 122.404 88.3245ZM47.549 92.2662C47.549 92.2662 43.4628 93.9689 40.532 95.799C39.8408 96.2311 39.2134 96.6704 38.7201 97.0958L40.5022 97.6219C40.5022 97.6219 45.5217 93.2923 47.549 92.2662ZM80.2665 96.8992C80.2665 96.8992 78.6135 97.0727 77.7398 97.2863C81.4546 102.564 80.5559 113.484 74.1287 117.005C74.1226 117.008 74.1178 117.012 74.1117 117.016C74.1323 117.009 74.1517 116.998 74.1712 116.991C74.6087 116.839 75.0359 116.665 75.4521 116.473C75.5243 116.44 75.5953 116.404 75.6669 116.37C76.0868 116.166 76.4982 115.947 76.8866 115.699C84.3442 111.919 82.1027 98.9683 80.2665 96.8992ZM44.4228 97.603C44.4228 97.603 44.4143 97.6097 44.41 97.614C44.1188 97.8342 34.8517 104.884 25.3268 113.882L27.9779 113.552L44.4234 97.6037L44.4228 97.603ZM25.3262 113.881C25.3262 113.881 23.4948 113.911 22.1556 114.425C22.1556 114.425 18.4638 118.184 16.959 120.688C16.959 120.688 17.3661 123.013 18.5646 125.081L17.5719 127.522L19.3437 127.641L20.263 125.448L18.8316 121.266L22.4487 117.152L25.3262 113.881ZM131.243 98.2863C130.632 98.2802 130.059 98.2918 129.527 98.3148C129.482 98.3172 129.434 98.3185 129.389 98.3209C129.321 98.3239 129.252 98.3264 129.186 98.3306C126.751 98.4629 125.235 98.8385 124.849 98.9441C124.784 98.9623 124.747 98.9738 124.747 98.9738C125.94 99.7718 127.038 100.669 127.038 100.669C127.056 100.666 127.074 100.664 127.093 100.661C136.44 99.384 147.473 102.276 158.306 110.228C161.2 112.351 166.174 115.705 171.547 116.921C166.538 114.814 162.574 111.302 157.939 107.922C156.382 106.786 154.744 105.669 152.969 104.623C151.734 103.894 150.439 103.197 149.046 102.56C141.684 99.1929 135.522 98.327 131.243 98.2863ZM55.7026 99.1492C54.8051 99.6862 53.9599 100.216 53.1619 100.729C53.3931 101.073 53.7863 101.289 54.2815 101.293C55.0982 101.278 55.7936 100.697 55.8968 99.9441C55.9313 99.6401 55.8567 99.3761 55.7026 99.1492ZM142.657 111.922C141.013 111.887 140.252 112.257 140.236 112.265H140.234C140.968 112.975 141.582 113.525 141.881 113.788C142.002 113.894 142.078 113.958 142.078 113.958C158.31 114.306 168.567 134.023 176.001 136.546C169.141 132.056 166.011 124.246 158.175 118.576C157.857 118.347 157.547 118.115 157.213 117.892C153.572 115.464 150.589 113.993 148.192 113.115C146.208 112.389 144.629 112.072 143.417 111.965C143.146 111.942 142.892 111.928 142.657 111.923V111.922ZM36.6976 124.829C34.2467 125.306 29.8438 129.55 27.9239 132.1C25.4876 131.825 23.3941 131.466 21.3783 131.474C21.3783 131.474 21.6459 133.017 21.7715 133.664C24.0221 134.155 26.9014 134.632 28.4312 134.959C30.1241 134.385 34.9737 131.69 36.7783 130.282C36.7783 130.282 37.7103 127.637 38.1855 125.522C38.1855 125.522 34.6539 128.533 33.268 129.344C34.1296 127.712 36.6976 124.829 36.6976 124.829Z" fill="white"/>
</g>
<defs>
<clipPath id="clip0_15016_302042">
<rect width="200" height="200" fill="white" transform="translate(0.0605469 0.101562)"/>
</clipPath>
</defs>
</svg>
