<svg width="201" height="200" viewBox="0 0 201 200" fill="none" xmlns="http://www.w3.org/2000/svg">
<g clip-path="url(#clip0_15016_302191)">
<path d="M96.8017 79.8994L96.7712 79.8479C96.801 79.8924 96.8163 79.9204 96.8259 79.9388L96.8017 79.8994ZM181.865 153.749L170.338 85.8638L143.167 134.109L129.035 108.32C131.337 107.895 133.514 106.82 135.376 105.155C138.474 102.384 140.335 98.2364 140.324 94.0597C140.292 82.5357 126.805 78.8542 126.805 78.8542C126.805 78.8542 127.033 86.4609 123.123 87.9146C122.342 88.2053 121.353 88.6245 120.376 88.9349C122.475 85.7206 123.619 81.8124 123.599 77.7173C123.578 73.6239 121.656 67.0126 116.306 61.8514C111.553 57.265 105.176 54.9692 97.8474 55.1861C96.6293 55.2243 95.413 55.3445 94.2108 55.5449L95.651 46.8756C98.9792 32.5459 114.599 25.396 114.599 25.396L80.7818 25.4158C77.5682 25.4158 74.7412 27.8649 74.3214 31.0009L72.2134 45.7991L57.0539 21.0768L41.9556 45.8168L39.796 30.9855C39.3691 27.8565 36.546 25.415 33.3394 25.415L0.816406 25.396C0.816406 25.396 15.5509 33.8467 18.363 46.2506L30.0733 114.136L57.061 65.8899L74.0809 96.9501C69.2299 102.627 66.5054 109.897 66.5054 117.401C66.5054 134.765 80.631 148.891 97.9953 148.891C100.51 148.891 103.006 148.588 105.43 147.997L104.579 153.123C101.814 165.294 85.1739 174.604 85.1739 174.604L119.449 174.584C122.66 174.584 125.486 172.137 125.908 169.004L128.017 154.199L143.177 178.923L158.275 154.183L160.434 169.01C160.861 172.141 163.684 174.584 166.891 174.584L200.816 174.669C200.816 174.669 186.418 168.294 181.868 153.749" fill="#F0B323"/>
<path d="M177.189 154.728L167.893 98.8819L143.257 143.873H143.074L119.92 101.623C121.024 102.4 122.941 103.375 125.905 103.707C131.19 104.299 135.55 99.38 135.55 94.0619C135.55 90.0728 133.196 86.1015 129.656 85.1749C131.004 100.792 87.6465 89.3128 88.3271 115.908C89.023 130.004 109.083 129.948 107.635 117.403C95.7432 117.467 99.3464 104.107 108.357 105.94L108.51 106.058C111.515 108.848 113.258 112.99 113.258 117.404C113.258 125.823 106.409 132.671 97.9909 132.671C89.5716 132.671 82.7588 125.953 82.7233 117.404C82.6864 108.855 86.582 101.659 97.953 95.5332C95.2882 94.0154 88.5208 90.2018 88.3353 81.0511H88.3461C88.3461 75.7332 92.6857 71.406 97.9912 71.406C101.848 71.406 105.053 74.5019 105.053 78.2964C105.053 82.0908 101.966 85.2454 98.1712 85.1786C94.3424 85.1111 92.74 82.4096 92.7235 82.3815C92.7407 87.9195 97.7597 91.9782 102.794 92.425C112.554 93.292 118.868 86.3341 118.825 77.7413C118.796 72.0454 113.393 59.4802 97.9928 59.9552C94.4649 60.0646 91.1392 60.9825 88.2131 62.5276L90.9662 45.948C93.6518 34.1852 101.144 30.1756 101.144 30.1756L80.7784 30.1857C79.8656 30.1857 79.136 30.9154 79.045 31.645L75.0297 59.8382H74.8478L57.0609 29.2168L39.3555 59.8382H39.1729L35.0668 31.645C34.9765 30.9154 34.1546 30.1857 33.3341 30.1857L13.0117 30.1756C13.0117 30.1756 20.2215 34.0279 23.0334 45.2714L32.3284 101.118L56.9645 56.1269H57.147L79.9452 97.7281C74.6209 102.615 71.2727 109.622 71.2727 117.401C71.2727 132.134 83.258 144.119 97.9909 144.119C102.925 144.119 107.548 142.77 111.519 140.428L109.257 154.05C106.571 165.813 99.0788 169.823 99.0788 169.823L119.445 169.813C120.357 169.813 121.087 169.083 121.177 168.353L125.193 140.16H125.375L143.161 170.781L160.867 140.16H161.049L165.155 168.353C165.246 169.083 166.068 169.813 166.889 169.813L187.21 169.823C187.21 169.823 180.001 165.97 177.19 154.726" fill="#115740"/>
</g>
<defs>
<clipPath id="clip0_15016_302191">
<rect width="200" height="200" fill="white" transform="translate(0.816406)"/>
</clipPath>
</defs>
</svg>
