<svg width="201" height="201" viewBox="0 0 201 201" fill="none" xmlns="http://www.w3.org/2000/svg">
<path d="M153.698 29.6009C141.821 29.7412 130.817 30.9503 130.817 30.9503L130.413 34.4975H130.409L126.626 67.6289C126.626 67.6289 129.044 67.669 129.921 69.3212C130.796 70.9556 130.986 72.2583 130.233 74.6208L121.538 107.806L115.728 80.9291C115.194 78.7915 115.243 75.4157 116.171 73.4139C116.855 71.9331 117.848 71.3252 118.523 71.0759L122.589 31.6495C115.962 32.3603 109.371 33.3723 102.836 34.6823C93.2896 36.6374 85.1553 38.9843 85.1553 38.9843L80.5326 79.1923C80.5326 79.1923 82.3808 79.2323 83.4363 81.2319C84.6476 83.5143 84.1399 84.6188 83.4363 87.5714L75.3867 119.703L69.5326 93.1739C69.0116 90.9026 69.0494 87.2441 69.8845 85.4427C70.6638 83.7726 71.5745 82.8664 72.2671 82.3809L76.5001 41.3112C73.0375 42.5359 61.8438 46.6732 52.4203 52.1398C42.5225 57.8803 35.4816 64.0795 35.4816 64.0795L30.9502 106.069C30.9502 106.069 32.8607 104.889 35.2611 105.635C37.6415 106.369 38.2672 108.202 38.9575 110.369L56.366 163.238C64.3889 151.621 76.6158 145.876 90.2568 142.529C91.4254 142.242 92.5983 141.971 93.775 141.719L99.9363 110.803L106.095 139.287C106.095 139.287 111.722 138.53 120.569 138.984C130.56 139.496 137.911 141.171 141.489 142.155C143.079 142.592 143.932 142.894 143.932 142.894L164.874 75.9769C164.874 75.9769 165.827 71.0914 168.303 69.3769C170.063 68.1588 172.352 68.3348 172.352 68.3348L176.308 30.2133C176.308 30.2133 168.566 29.4272 153.698 29.5987" fill="#C5050C"/>
<path d="M130.402 34.5C127.834 34.7694 126.271 34.9674 126.231 34.974L125.661 35.048L121.982 70.0364L121.93 70.8236H122.739C122.93 70.8236 124.607 70.8554 125.231 72.0021C125.921 73.2781 125.875 75.0376 125.083 77.5516L119.516 98.492L121.534 107.807L130.228 74.62C130.98 72.2596 130.794 70.9551 129.919 69.3185C129.042 67.6707 126.622 67.6267 126.622 67.6267L130.406 34.5L130.402 34.5ZM84.7236 42.6848C83.2521 43.1436 81.7878 43.625 80.3311 44.1287L79.9005 44.2766L75.6254 81.2392L75.534 82.1699L76.4778 82.0264C76.5824 82.0108 77.6209 81.9412 78.574 83.2572C79.5805 84.6489 79.2492 86.0108 78.6479 88.4891L73.3247 110.378L75.3818 119.702L83.432 87.5712C84.1356 84.6185 84.6433 83.517 83.432 81.2346C82.3765 79.235 80.5311 79.1949 80.5311 79.1949L84.7236 42.6848ZM35.1228 67.4004C33.4548 68.7585 31.8345 70.1742 30.2649 71.645L30.0779 71.8233L25.668 112.1L26.9292 111.326C26.9537 111.312 29.2344 109.939 31.3609 109.939C31.7684 109.939 32.1488 109.99 32.4873 110.099C34.0704 110.594 34.5959 111.431 35.275 113.553L55.1978 171.665L56.0111 170.36C63.6597 158.055 73.2261 151.121 89.0332 146.419L89.4507 146.292L90.2553 142.53C76.6143 145.877 64.3863 151.624 56.3632 163.241L38.9538 110.37C38.268 108.203 37.6397 106.375 35.2571 105.638C34.546 105.42 33.7984 105.346 33.0583 105.42C32.3181 105.495 31.6004 105.717 30.9472 106.073L35.1228 67.4004ZM99.9336 110.804L97.7069 121.977L103.039 144.357L103.743 144.201C103.79 144.192 108.192 143.231 116.473 143.231C117.809 143.231 119.191 143.254 120.583 143.309C130.149 143.648 139.419 146.123 139.51 146.149L140.193 146.328L141.489 142.157C137.91 141.173 130.557 139.498 120.565 138.986C111.718 138.532 106.092 139.291 106.092 139.291L99.9336 110.804Z" fill="black"/>
</svg>
