<svg width="200" height="201" viewBox="0 0 200 201" fill="none" xmlns="http://www.w3.org/2000/svg">
<path fill-rule="evenodd" clip-rule="evenodd" d="M35.2127 118.539C33.6583 118.595 32.1408 118.906 31.249 119.452C31.1367 122.475 32.659 123.866 33.8717 125.563C36.2217 123.934 37.9799 121.715 39.4043 119.16C38.3632 118.687 36.7687 118.484 35.2127 118.539ZM27.7568 120.326C25.7356 122.925 18.4769 131.138 18.4416 134.299C18.4128 136.905 21.2248 141.945 23.1 145.071C35.0571 164.998 53.8607 177.444 76.0874 186.411C80.0833 188.023 83.9701 190.081 87.7334 190.487C105.353 192.385 122.467 187.938 133.441 181.461C122.917 184.913 124.737 169.877 134.025 173.312C134.113 169.924 133.916 166.815 132.277 165.156C126.882 165.862 121.908 168.604 116.263 170.399C110.805 172.134 104.131 174.715 97.9212 173.891C91.1822 173.001 82.9739 167.965 76.6697 164.577C55.9894 153.464 38.9856 139.625 27.7536 120.324L27.7568 120.326ZM26.512 131.972C30.3346 131.877 33.5204 135.658 32.7055 139.829C31.5168 145.928 22.0541 142.801 21.9338 136.919C21.9001 135.35 22.3332 133.074 24.8453 132.261C25.4067 132.078 25.9666 131.985 26.512 131.972ZM42.5404 148.611C46.4625 148.587 50.1423 152.208 49.0114 156.717C47.2437 163.766 35.7501 157.407 37.9478 151.184C38.2542 150.313 39.3578 149.288 40.8577 148.855C41.4159 148.695 41.9805 148.615 42.5404 148.611ZM60.9076 164.8C64.5666 164.893 68.7999 167.965 67.3514 173.02C63.4052 178.22 55.2418 173.649 56.2893 168.071C56.7224 165.764 58.71 164.746 60.9076 164.8ZM84.331 176.903C87.9178 176.802 91.1999 179.077 90.9352 182.92C90.5197 188.954 79.5443 188.187 79.2893 181.462C79.2187 179.656 79.5572 177.807 82.783 177.096C83.298 176.982 83.8177 176.918 84.331 176.903ZM111.025 177.678C113.966 177.752 115.73 179.253 115.972 181.462C116.709 188.152 105.494 189.111 104.326 183.792C103.306 179.132 106.861 177.576 111.025 177.678Z" fill="#886E4C" stroke="#886E4C" stroke-width="0.383808"/>
<path fill-rule="evenodd" clip-rule="evenodd" d="M116.648 52.6151C107.458 52.5429 98.9814 54.6539 91.5174 57.1515C100.132 57.3184 109.593 55.8618 117.137 58.6049C123.815 61.0351 127.552 69.2194 131.402 76.0754C133.807 80.3568 137.415 85.9183 137.519 90.0489C137.668 96.0836 130.945 101.992 127.329 105.481C123.778 108.905 119.973 112.215 116.555 116.256C110.23 123.732 102.948 133.49 101.997 145.077C101.211 154.639 105.897 163.319 115.972 161.96C123.188 160.991 125.284 152.475 132.569 150.024C138.149 148.142 140.235 151.995 144.797 152.063C151.555 152.161 152.546 143.447 160.224 143.04C164.061 142.836 168.482 145.338 171.582 142.744C174.224 140.534 173.278 132.504 170.708 130.519C169.117 137.537 156.245 140.082 147.707 139.835C144.487 139.741 140.56 138.481 136.935 138.963C126.059 140.41 125.389 155.701 115.392 156.431C113.633 156.559 111.221 156.113 110.149 154.974C105.093 149.594 115.558 142.955 118.593 140.709C125.419 135.662 132.965 131.179 141.303 128.772C146.253 127.345 151.382 127.5 156.151 126.153C162.919 124.242 165.835 117.417 161.975 110.431C159.957 108.565 156.159 108.479 152.654 108.1C153.979 107.094 155.541 106.328 155.567 104.024C154.049 101.886 150.445 102.386 149.452 104.606C148.637 106.433 150.148 107.734 149.452 108.974C146.255 107.651 143.708 105.84 143.048 102.569C140.995 92.3829 157.968 86.2808 166.922 90.9232C168.746 93.7336 169.319 96.2745 168.379 99.3641C167.293 102.932 162.785 106.522 162.554 109.265C162.506 109.847 163.323 112.045 163.721 113.633C164.611 117.196 165.429 121.883 168.668 122.659C175.792 124.366 181.307 113.352 181.77 106.937C182.215 100.787 179.303 94.5228 176.238 91.7974C172.943 88.8683 169.168 88.3004 164.595 87.431C164.402 81.2166 163.985 75.23 160.809 71.9993C159.77 72.9265 160.978 75.1225 161.098 76.6593C160.609 78.4463 157.744 79.2548 158.186 81.0225C159.842 80.9231 160.998 81.3209 161.68 82.1887C160.981 91.7317 153.669 82.9603 154.406 78.4078C155.015 74.6253 162.975 71.0401 162.846 67.3409C162.784 65.5716 160.459 63.568 158.77 63.8472C158.05 63.9659 156.584 65.8764 156.151 66.4699C153.202 70.5171 152.591 72.5431 149.744 76.3673C143.512 65.6117 136.786 54.0395 120.631 52.7851C119.29 52.6808 117.96 52.6263 116.648 52.6151ZM97.342 75.7834C94.2396 76.8566 89.7914 79.1024 87.4413 81.8952C91.7436 83.2218 96.6586 83.9388 100.544 85.6841C99.0424 94.6752 101.134 105.891 107.822 107.807C116.474 110.285 120.369 99.6287 123.833 94.125C124.978 94.6303 126.253 95.0041 127.326 95.5815C119.131 87.184 109.264 80.4547 97.342 75.7834ZM150.076 87.1182C150.969 87.1471 151.85 87.3347 152.654 87.7197C151.276 89.0143 149.15 88.9918 147.418 89.757C145.631 90.5446 144.275 91.4108 143.048 92.6701C142.084 89.8869 146.2 86.9995 150.076 87.1182ZM109.238 87.9652C111.981 87.9443 115.085 91.0451 118.303 91.5055C118.223 92.4936 118.528 93.8651 118.011 94.4153C116.333 94.8757 114.24 94.3913 112.482 95.2896C113.351 96.9418 115.773 97.0413 116.555 98.7834C113.204 105.025 104.607 101.979 104.912 94.7073C105.035 91.7156 106.696 88.355 108.693 88.0117C108.872 87.9812 109.055 87.9668 109.238 87.9652ZM168.198 123.873C166.711 123.959 165.196 124.786 164.303 125.566C161.561 123.957 159.5 126.591 157.604 127.606C154.839 126.804 153.08 127.911 151.204 128.771C148.344 127.369 145.78 129.226 143.34 130.519C140.99 129.225 138.311 131.921 135.77 132.847C133.29 133.753 130.316 133.606 130.82 136.05C131.478 139.231 135.254 136.155 136.062 134.595C136.531 135.388 136.248 136.931 136.937 137.507C140.243 137.706 141.548 134.36 143.048 133.721C143.096 135.226 142.869 137.006 143.34 138.089C147.899 138.283 148.483 134.499 150.618 132.265C151.33 133.009 150.491 135.306 151.204 136.05C154.298 135.843 155.293 133.542 156.735 131.682C157.051 133.649 155.997 134.243 156.151 136.05C159.903 137.767 162.447 134.007 164.013 131.682C163.615 132.565 163.541 134.085 164.303 134.595C169.707 134.565 170.1 129.522 170.708 124.695C169.974 124.039 169.091 123.824 168.198 123.873ZM26.3018 133.429C28.0422 135.473 30.7837 136.517 30.3778 140.709C33.3374 138.145 29.7298 133.346 26.3018 133.429ZM43.0632 150.322C42.6879 150.329 42.3334 150.419 42.0238 150.606C44.608 151.708 47.0704 152.935 46.9709 156.723C49.4092 154.248 45.6924 150.268 43.0632 150.322ZM61.2877 166.473C60.6557 166.482 60.0413 166.62 59.4927 166.911C63.3731 166.813 64.8713 169.1 66.1883 171.567C67.069 168.783 64.0275 166.426 61.2877 166.473ZM131.72 174.306C129.02 174.198 126.158 176.133 127.033 178.845C127.687 176.104 130.347 175.367 132.857 174.48C132.49 174.378 132.107 174.32 131.72 174.306ZM84.7528 178.027C84.0181 177.977 83.2498 178.051 82.4942 178.266C84.3085 178.587 88.2306 179.314 89.1866 181.468C88.8514 179.453 86.9569 178.178 84.7528 178.027ZM110.278 178.71C107.843 178.661 105.246 179.848 104.91 182.05C106.75 179.856 112.057 178.682 114.517 181.176C113.966 179.535 112.172 178.749 110.278 178.71Z" fill="white"/>
<path fill-rule="evenodd" clip-rule="evenodd" d="M130.673 8.60568C130.177 8.56879 129.781 8.86395 129.365 9.10938C125.942 11.137 122.779 14.1928 119.176 17.2631C115.918 20.0415 111.649 22.8487 109.275 25.9976C106.531 29.639 104.464 34.9213 102.58 39.3888C100.56 44.1723 98.8436 49.2381 96.755 53.9479C93.6591 54.7339 90.6096 55.5616 87.4415 56.2754C85.5214 48.8211 82.2746 40.8229 83.0735 32.1109C83.7536 24.7079 89.9536 18.4309 89.7723 11.7337C87.0324 11.6375 84.692 13.7164 82.7815 15.2275C76.7725 19.9773 69.6838 25.4185 65.603 32.1109C62.9305 36.4982 61.4162 43.1553 60.0735 49.2895C57.5743 60.6836 55.4488 71.3077 55.1264 83.3531C54.9612 89.4696 56.7915 95.9246 55.9975 101.695C55.0221 108.78 47.7988 112.089 43.1885 115.671C38.6649 115.326 32.9799 114.074 29.2118 115.671C26.3565 116.882 26.3067 119.659 24.2615 121.201C23.1931 121.127 21.3821 121.422 20.4789 122.075C18.3198 123.637 19.5534 125.859 18.732 129.063C18.4834 130.041 17.5691 130.907 17.2739 131.39C14.8228 135.431 18.0968 140.933 20.7709 145.364C33.328 166.176 51.7193 178.296 74.0471 188.167C79.0952 190.396 83.1665 192.748 88.6061 193.114C102.177 194.023 114.729 191.224 125.581 187.579C128.387 186.638 134.097 185.449 135.479 182.924C136.731 180.635 135.501 175.773 136.061 173.316C136.499 171.4 138.042 170.114 137.809 168.368C137.53 166.283 135.143 165.9 134.898 164C142.227 159.928 150.177 155.8 157.317 150.898C159.496 149.403 162.617 146.642 164.595 146.241C166.815 145.792 168.984 146.798 170.999 145.951C177.237 143.322 174.634 132.715 171.291 128.188C171.554 124.337 174.594 123.276 176.531 121.494C179.452 118.803 182.414 114.314 183.227 109.556C185.495 96.2935 176.817 87.3473 165.76 85.6854C166.082 80.9822 163.809 75.9179 163.429 71.4168C163.098 67.4979 163.785 63.6945 159.935 62.0984C153.871 63.9576 151.385 60.4317 147.415 57.7352C139.471 52.3405 130.698 49.1563 122.666 44.9231C121.654 34.031 122.75 23.3396 127.325 16.6824C129.012 14.2313 132.129 12.1957 131.696 9.11259C131.301 8.7693 130.968 8.62974 130.671 8.60729L130.673 8.60568ZM116.648 52.6148C117.962 52.6245 119.29 52.679 120.631 52.7833C136.786 54.0409 143.51 65.6098 149.742 76.3623C152.59 72.538 153.199 70.512 156.149 66.4648C156.581 65.8713 158.049 63.964 158.769 63.8453C160.458 63.5678 162.782 65.5681 162.845 67.3391C162.973 71.0366 155.014 74.6202 154.401 78.4027C153.668 82.9584 160.979 91.7298 161.679 82.1869C160.997 81.319 159.839 80.9244 158.187 81.0255C157.741 79.2561 160.609 78.4444 161.1 76.6574C160.978 75.1207 159.768 72.923 160.809 71.9991C163.982 75.2282 164.401 81.2164 164.593 87.4291C169.167 88.3018 172.945 88.8664 176.239 91.7972C179.305 94.521 182.215 100.788 181.769 106.935C181.304 113.352 175.793 124.364 168.67 122.654C165.431 121.879 164.609 117.194 163.719 113.631C163.323 112.043 162.507 109.847 162.555 109.263C162.784 106.523 167.292 102.933 168.379 99.3654C169.319 96.2743 168.747 93.7317 166.921 90.9229C157.967 86.2806 140.994 92.3811 143.047 102.569C143.706 105.838 146.255 107.651 149.454 108.973C150.15 107.736 148.64 106.432 149.454 104.604C150.445 102.384 154.05 101.885 155.567 104.025C155.541 106.327 153.982 107.094 152.656 108.101C156.161 108.478 159.954 108.563 161.974 110.429C165.833 117.417 162.917 124.239 156.149 126.151C151.379 127.497 146.252 127.343 141.302 128.771C132.963 131.177 125.418 135.66 118.594 140.707C115.557 142.953 105.09 149.592 110.149 154.972C111.219 156.11 113.632 156.556 115.39 156.429C125.387 155.697 126.058 140.407 136.935 138.958C140.56 138.476 144.486 139.738 147.707 139.833C156.244 140.08 169.114 137.534 170.707 130.518C173.278 132.502 174.221 140.535 171.581 142.747C168.48 145.338 164.062 142.831 160.227 143.035C152.548 143.444 151.554 152.16 144.795 152.061C140.235 151.994 138.148 148.144 132.567 150.022C125.284 152.476 123.188 160.988 115.971 161.958C105.895 163.314 101.211 154.639 101.997 145.075C102.947 133.49 110.23 123.727 116.553 116.25C119.973 112.21 123.777 108.904 127.325 105.479C130.942 101.99 137.67 96.0818 137.517 90.0487C137.413 85.9196 133.805 80.3549 131.401 76.0735C127.551 69.2207 123.813 61.0349 117.135 58.6062C109.593 55.8632 100.129 57.3165 91.516 57.1497C98.98 54.6537 107.458 52.5426 116.646 52.6132L116.648 52.6148ZM97.3421 75.7832C109.266 80.4544 119.131 87.1837 127.325 95.5813C126.253 95.0054 124.976 94.63 123.833 94.1247C120.369 99.6285 116.475 110.285 107.822 107.806C101.134 105.894 99.0409 94.675 100.544 85.6838C96.6572 83.9402 91.7438 83.2231 87.4399 81.8965C89.7915 79.1021 94.2398 76.858 97.3421 75.7832ZM150.076 87.1179C146.201 87.0008 142.084 89.885 143.048 92.6666C144.272 91.4074 145.631 90.5443 147.415 89.7567C149.151 88.9931 151.279 89.014 152.657 87.7195C151.854 87.3345 150.97 87.1452 150.076 87.1179ZM109.238 87.9649C109.055 87.9665 108.873 87.9809 108.693 88.0114C106.696 88.3547 105.032 91.7169 104.909 94.707C104.606 101.98 113.204 105.025 116.555 98.7831C115.774 97.041 113.348 96.9416 112.479 95.2893C114.238 94.391 116.333 94.8723 118.011 94.4151C118.526 93.8649 118.223 92.4933 118.303 91.5052C115.085 91.0448 111.981 87.9441 109.238 87.9649ZM35.2128 118.548C36.7672 118.493 38.3601 118.692 39.4012 119.165C37.9767 121.719 36.2202 123.941 33.8718 125.569C32.6574 123.87 31.1383 122.478 31.2522 119.454C32.1425 118.91 33.6584 118.604 35.2128 118.548ZM27.7569 120.328C38.9873 139.627 55.991 153.468 76.6698 164.583C82.974 167.972 91.1823 173.008 97.9228 173.898C104.132 174.719 110.806 172.143 116.264 170.404C121.909 168.612 126.884 165.869 132.277 165.165C133.918 166.824 134.113 169.926 134.025 173.316C124.737 169.88 122.915 184.92 133.44 181.468C122.466 187.944 105.355 192.393 87.7335 190.494C83.9702 190.088 80.085 188.03 76.0875 186.418C53.8608 177.451 35.0572 165.005 23.1017 145.077C21.2265 141.95 18.4144 136.91 18.4417 134.305C18.4786 131.143 25.7373 122.927 27.7569 120.328ZM168.198 123.875C169.091 123.824 169.974 124.038 170.708 124.695C170.1 129.52 169.711 134.563 164.305 134.592C163.544 134.083 163.618 132.564 164.013 131.682C162.447 134.006 159.901 137.767 156.153 136.05C155.995 134.244 157.051 133.65 156.735 131.682C155.293 133.541 154.298 135.845 151.204 136.05C150.493 135.306 151.331 133.009 150.618 132.264C148.483 134.496 147.903 138.281 143.34 138.089C142.869 137.006 143.1 135.224 143.048 133.721C141.549 134.359 140.243 137.704 136.937 137.507C136.25 136.931 136.531 135.384 136.063 134.592C135.254 136.153 131.48 139.231 130.823 136.05C130.32 133.607 133.289 133.751 135.769 132.843C138.31 131.92 140.989 129.223 143.339 130.519C145.78 129.225 148.342 127.372 151.204 128.772C153.081 127.914 154.839 126.806 157.604 127.609C159.499 126.594 161.562 123.961 164.303 125.569C165.197 124.791 166.709 123.96 168.198 123.875ZM26.512 131.977C25.965 131.99 25.4068 132.083 24.8438 132.264C22.3317 133.079 21.9018 135.356 21.9339 136.924C22.0558 142.807 31.5169 145.933 32.7056 139.834C33.5205 135.662 30.3347 131.883 26.512 131.977ZM26.3019 133.431C29.7299 133.346 33.3376 138.147 30.378 140.709C30.7822 136.519 28.0424 135.476 26.3019 133.431ZM42.5405 148.62C41.9806 148.623 41.4144 148.7 40.8577 148.861C39.3579 149.292 38.2558 150.32 37.9479 151.19C35.7502 157.414 47.2421 163.773 49.0099 156.722C50.1408 152.215 46.4641 148.594 42.5405 148.62ZM43.0602 150.32C45.6894 150.267 49.4093 154.246 46.971 156.722C47.0705 152.934 44.6098 151.706 42.0239 150.606C42.3335 150.418 42.6848 150.328 43.0602 150.32ZM60.9061 164.806C58.7116 164.751 56.7209 165.768 56.2878 168.076C55.2419 173.652 63.4053 178.226 67.3514 173.024C68.7984 167.967 64.5667 164.897 60.9061 164.806ZM61.2895 166.472C64.0293 166.426 67.0659 168.782 66.1852 171.567C64.8699 169.1 63.3732 166.816 59.4912 166.912C60.0398 166.62 60.6574 166.484 61.2895 166.472ZM131.722 174.305C132.107 174.321 132.49 174.377 132.859 174.48C130.349 175.366 127.687 176.107 127.034 178.848C126.159 176.136 129.02 174.198 131.722 174.305ZM84.3295 176.909C83.8178 176.923 83.2964 176.986 82.7815 177.1C79.5556 177.812 79.2188 179.661 79.2877 181.468C79.5428 188.192 90.5166 188.957 90.9337 182.924C91.1968 179.082 87.9163 176.808 84.3295 176.909ZM111.024 177.682C106.861 177.583 103.305 179.139 104.325 183.798C105.493 189.116 116.707 188.159 115.971 181.471C115.729 179.26 113.966 177.757 111.024 177.682ZM84.753 178.027C86.9571 178.179 88.8531 179.455 89.1868 181.468C88.2339 179.313 84.307 178.587 82.4912 178.266C83.2467 178.053 84.0183 177.977 84.753 178.027ZM110.278 178.71C112.172 178.749 113.966 179.536 114.518 181.176C112.058 178.68 106.749 179.857 104.909 182.05C105.242 179.848 107.844 178.66 110.278 178.71Z" fill="black"/>
</svg>
