<svg width="201" height="201" viewBox="0 0 201 201" fill="none" xmlns="http://www.w3.org/2000/svg">
<path d="M151.086 150.474C148.71 149.17 147.388 145.219 144.413 144.16C144.278 144.007 144.278 144.007 144.288 143.865C144.434 143.875 144.586 143.744 144.877 143.763C146.117 143.632 146.843 142.609 147.429 141.432C147.591 141.228 147.673 141.091 147.878 141.247C148.008 141.471 148.168 141.267 148.297 141.491C148.955 142.467 149.175 143.482 150.11 143.614C150.254 143.625 150.355 143.203 150.355 143.203C150.642 142.221 150.257 141.48 149.666 140.583C148.148 138.406 146.409 136.287 144.044 135.84C142.611 135.601 140.904 135.128 140.07 134.572L138.913 133.492C138.87 133.06 138.61 132.614 139.053 132.501C139.945 132.204 140.328 132.943 141.036 133.206C141.733 133.611 142.732 134.894 143.441 134.084C143.441 134.084 143.452 133.942 143.605 133.809C142.342 129.005 138.815 126.48 135.265 124.307C135.275 124.167 135.212 124.019 135.212 124.019L136.013 122.93L137.11 123.861L138.062 124.784C138.501 124.742 138.941 124.628 139.106 124.353C139.233 123.575 138.964 123.27 138.786 122.687C137.702 120.542 135.227 120.659 132.854 119.283C132.731 118.989 132.413 118.325 132.726 117.989C132.87 117.998 133.16 118.018 133.16 118.018L134.707 119.766L135.699 120.118C135.714 119.907 135.824 119.342 135.994 118.996C135.74 118.478 135.852 117.913 135.538 117.177C135.147 115.506 133.93 114.208 132.433 113.821C132.923 109.85 130.258 106.452 131.238 102.731C131.248 102.588 131.067 102.074 130.849 102.059C130.696 102.192 130.408 102.173 130.264 102.163L129.536 102.186L128.665 108.49L127.89 109.223C127.61 109.062 127.466 109.052 127.116 108.886C125.688 106.429 125.275 102.97 122.778 101.3C122.778 101.3 122.634 101.289 122.426 101.134C121.874 100.739 121.994 100.031 121.889 99.4526C122.053 99.1771 122.348 99.1275 122.572 98.9983C123.293 99.0469 124.282 98.3984 124.696 97.6403L125.041 95.8053C125.144 95.3831 125.476 94.762 125.769 94.7109C126.337 94.8928 126.725 95.5614 127.218 95.8095C127.539 96.4027 128.553 96.4006 129.016 96.0022C128.976 94.498 128.577 92.8986 128.006 91.7163C127.613 91.1174 127.084 90.366 126.747 89.9857C125.319 89.6757 124.161 90.6699 122.929 90.6575C122.659 90.3541 123.05 89.9511 123.224 89.5346C121.667 80.5623 123.624 70.0428 121.791 61.9102C121.356 59.807 120.13 58.6516 120.311 57.091C120.909 55.7733 119.89 54.7754 120.02 53.9264C120.304 54.0168 120.492 54.4576 120.483 54.6008C122.127 54.9268 124.065 54.1993 125.398 53.7895C125.821 53.961 126.229 54.3455 126.827 54.1C127.925 53.96 128.225 52.7653 128.63 52.1488L129.373 51.9121C129.217 52.0449 129.362 52.0547 129.666 51.861C130.108 51.7473 130.366 51.1923 131.352 51.6171C131.61 52.0625 132.357 51.7566 132.511 51.6243C133.11 50.3061 134.257 49.4534 135.635 48.4034C135.95 46.9947 135.088 45.7917 135.183 44.4404C133.725 43.4839 134.161 41.3678 132.665 40.9808C132.385 40.8196 132.261 40.5245 131.972 40.5049L131.813 39.6362C131.415 39.1097 130.726 38.5624 130.298 38.4627C130.154 38.4523 129.876 38.2901 129.741 38.1387C127.852 37.1532 124.891 36.9527 122.063 37.9775C121.162 38.4172 120.223 38.3536 119.763 38.7515L119.332 39.723C119.322 39.8667 119.24 40.0036 118.936 40.1974C117.766 40.3333 117.328 41.4479 117.335 42.3781L117.448 44.9593C117.293 45.0915 116.789 45.0569 116.35 45.0988C115.342 43.9578 115.483 41.8939 114.021 41.0092C113.597 40.8377 112.73 40.7788 112.475 41.3337C112.444 41.7606 112.473 42.4065 112.454 42.6902C111.717 42.8561 111.264 43.1098 110.702 42.8587C109.035 42.8168 108.296 45.1267 106.551 45.2233C105.049 43.8348 102.216 39.7101 101.384 38.0813C100.526 35.8076 103.782 34.8842 104.977 33.3195C106.807 32.0137 112.066 30.4386 112.206 29.447C114.963 30.4908 117.621 31.886 120.942 31.1088C123.238 30.406 125.472 29.5565 127.134 27.5236C126.968 26.7971 127.089 26.0917 127.286 25.3176C126.4 22.398 124.78 20.6441 122.107 19.4623C121.419 18.9166 120.48 18.8526 120.008 18.3203C119.317 16.7716 120.075 15.2498 119.908 13.4515C119.463 12.5632 118.928 11.8842 118.207 11.8356C117.904 12.0299 117.489 11.7147 117.181 11.9808C116.944 12.2501 116.24 11.9886 116.104 11.8356C115.97 11.6847 115.979 11.5416 115.915 11.3943C115.518 10.8667 114.459 10.4383 113.449 10.3701L111.45 12.0222L109.774 13.1957C106.718 12.2733 103.589 12.4206 100.366 13.9181C99.3105 14.4896 99.4397 15.7857 99.1348 17.0517C99.5926 20.9449 102.459 22.4956 104.392 24.9864C104.568 25.5693 104.25 25.977 103.999 26.4612C101.146 28.9132 98.8852 31.1915 95.8498 33.1329C94.7455 34.415 92.9793 34.7979 92.9705 37.0127C92.9906 40.9462 94.3946 44.7598 96.4807 47.1177C97.0332 48.5832 97.9468 49.0033 98.9508 50.2151C99.4076 50.9603 99.8794 51.4936 100.273 52.0919C101.833 58.9177 96.3883 67.4162 101.046 73.5221C101.495 74.3396 101.168 74.8889 100.757 75.5761C99.7259 76.8649 99.5838 78.9288 99.2536 80.5514C97.4636 80.2155 95.871 79.1066 94.0851 79.7732C93.4505 79.5153 93.3456 78.936 92.9426 78.4803C89.1124 73.0027 81.1137 74.3215 75.6154 73.0906L74.7395 72.1026C76.2469 69.201 77.2659 65.9817 77.1357 62.6125C77.2628 60.7615 76.7352 58.9384 76.4495 56.7737C76.1539 54.7522 74.7111 53.5823 73.6012 51.7912C72.9134 51.244 72.0488 51.1856 71.2778 50.7758C68.7385 49.7469 65.6303 48.5367 62.7101 49.84C60.3414 50.5381 59.9192 53.512 57.9674 55.5247C56.1598 57.5483 54.3471 59.6417 55.7774 63.0992C54.9227 64.9724 54.2995 66.6462 53.311 68.367C53.1684 69.3576 52.7353 70.4019 52.5855 71.5336C51.922 73.7779 49.2597 77.6726 51.6119 78.2612C51.8455 80.1354 51.1567 81.7337 50.8363 83.2127C50.5081 84.8358 50.5443 86.4098 50.2343 87.7482C49.2421 87.3952 51.2714 88.4623 50.7949 89.0742C51.5194 91.1959 48.8835 93.6639 49.9103 95.5919C50.0539 95.6012 50.1888 95.7537 50.333 95.764C53.3497 94.1073 52.8893 89.2152 56.5913 88.1073C58.0956 86.278 58.6382 83.6695 59.1084 81.0558C59.9001 79.0363 59.1048 76.9094 60.5031 74.5013C62.1045 72.3211 63.1251 69.1018 63.9798 66.1568C64.5766 65.9103 65.4587 65.7564 66.0421 65.7238L67.0446 68.0083L67.4859 68.9674C67.6637 69.5524 67.9314 69.8557 68.2394 70.6624C68.4967 72.1811 68.9241 73.3541 68.9463 75.1436C68.5267 75.972 67.1836 76.5249 66.1036 77.4535C65.6267 78.0643 64.773 78.8642 64.079 79.4616C62.8414 80.5938 61.795 82.0949 60.5987 83.6597C59.4737 86.3002 58.3586 88.7982 57.2858 91.7287C56.8797 93.418 56.8714 95.6327 57.6 97.6848C57.8635 99.1316 58.8573 100.487 58.9766 101.924C59.6825 103.259 60.2489 104.514 60.6721 105.756C60.2111 107.156 59.7543 107.482 58.386 108.392C56.642 109.488 56.0684 110.453 53.6055 112.502C51.9349 113.604 48.7533 116.606 49.192 119.71C50.4627 122.299 53.5828 122.295 55.9635 123.529C58.34 124.833 60.5289 125.697 62.7902 126.564L61.0007 129.374C60.6928 129.641 60.5047 130.271 60.6716 130.996C58.141 132.97 68.5975 140.183 71.1223 145.644C71.8318 147.982 72.7201 149.828 74.3789 151.014L73.4761 152.527C72.9258 154.205 74.5902 155.317 75.1659 156.43C75.9203 158.125 76.6112 159.675 78.5547 160.95C79.1846 161.276 79.7143 160.955 80.1871 160.416C82.1275 156.471 80.7411 152.374 79.7985 148.163C77.098 144.191 73.9944 139.762 71.2902 135.863C70.2857 134.65 70.156 133.354 71.0639 131.771C71.0009 131.625 71.1461 131.634 71.1461 131.634C71.6354 131.881 71.3523 131.791 71.6163 132.165C72.4529 132.651 73.5304 133.868 74.8605 133.53C75.1431 133.621 75.4175 133.853 75.3245 134.133C75.3245 134.133 75.1721 134.265 75.1524 134.551C74.4383 135.431 74.645 135.59 73.9985 136.545C73.8611 138.539 76.6314 139.369 77.3962 140.922C78.0307 141.181 78.0111 141.464 78.7294 141.584C79.2875 141.908 80.1918 142.469 80.6119 141.639C80.4863 141.345 80.9354 140.089 81.2682 139.468C80.4755 135.194 81.2279 133.744 79.4141 129.548C78.0333 128.524 75.3607 126.271 73.8792 125.67C77.2732 121.68 78.4415 118.398 82.05 113.422C83.2489 112.86 84.6182 114.026 85.5029 114.873C85.7716 116.247 86.5008 117.229 86.7839 118.392C86.7741 118.534 86.6212 118.666 86.6212 118.666L83.9232 119.915L82.4598 122.175L84.2188 125.083C84.5697 125.248 84.5506 125.534 84.8301 125.696L85.3045 126.157C85.6807 125.969 85.8259 125.979 85.9701 125.988C86.322 126.155 86.553 125.955 86.3116 126.298C86.1602 128.504 86.9705 130.418 87.9301 132.271C89.0845 133.421 88.929 134.625 89.7656 135.111C90.4921 135.089 91.2285 134.924 91.7742 134.389C92.0424 132.619 92.077 131.049 92.2041 129.198C92.0848 128.834 92.4987 128.074 92.8067 127.809C92.7974 127.949 93.0759 128.114 93.2102 128.265C94.2541 129.981 94.8049 131.447 96.4983 133.207C97.2331 134.114 98.0682 135.672 99.435 135.836C99.7042 136.14 100.128 136.312 100.31 136.825L99.9709 137.516C99.5384 137.487 99.5709 138.061 98.8159 138.512C96.9794 144.107 101.395 150.554 101.786 156.443C102.765 158.011 102.86 159.805 102.599 161.503C102.971 163.459 103.143 165.186 104.026 167.104C104.103 170.186 104.513 172.644 103.798 175.67C101.108 178.919 104.371 183.144 103.889 186.972C105.014 188.548 107.28 188.273 108.561 189.717C109.268 189.981 110.214 190.975 111.131 190.32C110.974 187.308 109.296 183.262 109.593 179.995C108.842 176.154 108.408 172.978 107.993 169.519C108.68 167.992 108.139 166.382 107.955 164.797C107.736 163.781 108.307 162.89 108.015 161.87C108.069 155.795 108.183 148.867 109.891 143.048C110.208 142.641 110.353 142.651 110.799 142.466C113.093 141.835 114.849 139.523 117.076 139.817C117.076 139.817 116.939 149.174 117.043 148.752C117.293 155.632 116.967 165.621 116.967 165.621C116.679 165.601 116.51 165.946 116 165.985C114.876 167.553 111.674 167.694 110.921 170.217C110.944 170.934 110.523 171.763 111.227 172.096C112.645 172.55 113.821 171.271 115.031 170.564C115.124 170.286 115.999 170.203 116.5 170.307C116.552 170.597 116.532 170.881 116.504 171.309C115.581 173.105 113.694 173.121 112.109 174.015C111.801 174.279 111.752 174.992 111.785 175.565C112.631 176.98 114.062 178.292 115.814 179.197C121.602 178.373 127.153 173.6 133.941 172.987C137.326 172.286 138.282 168.919 141.543 167.922L149.98 165.49C150.134 165.358 150.134 165.358 150.143 165.214L150.139 164.214L145.411 161.249C145.002 160.864 145.418 160.103 145.592 159.687C146.122 159.367 146.617 159.544 147.196 159.582C148.346 159.73 149.14 160.855 149.532 161.457C149.682 161.394 149.682 161.394 149.826 161.403L150.727 160.962C151.026 160.84 151.001 160.124 150.691 159.387C149.837 157.042 147.459 155.737 145.425 153.669C145.199 152.797 144.212 151.3 144.705 150.474C147.064 149.919 148.894 152.831 150.573 153.731C150.929 153.828 151.785 154.027 151.741 153.595C151.911 153.251 152.292 152.991 152.302 152.847C152.071 151.969 151.48 151.072 151.086 150.474ZM65.1554 120.712C63.7028 119.684 62.4616 118.741 61.0767 117.791C64.3033 116.223 66.3703 115.717 68.7308 114.09C67.487 116.365 66.3284 118.432 65.1554 120.712ZM114.685 92.4563C114.542 92.4459 114.542 92.446 114.395 92.4366C112.262 89.7191 114.467 86.1499 113.589 83.0886C112.428 79.9349 114.502 77.2153 114.977 74.5308C115.415 74.4879 115.704 74.508 115.655 74.1479L115.508 73.1366L115.785 74.3706C116.227 76.4019 115.097 78.0421 115.379 80.2775C115.909 83.1016 115.337 86.1369 116.857 88.313C116.854 89.3863 117.556 89.7196 117.845 90.8115C117.387 92.2093 115.745 91.8124 114.685 92.4563ZM122.907 160.507C122.055 161.309 121.06 163.1 120.129 163.965C119.546 160.852 120.064 155.454 120.085 151.952C120.067 149.089 119.966 145.293 120.393 142.248L120.671 142.409C123.291 145.449 125.1 149.718 127.152 153.643C125.892 156.133 123.608 157.693 122.907 160.507Z" fill="#492F24" stroke="#FFC425" stroke-width="2.99998"/>
</svg>
