<svg width="201" height="200" viewBox="0 0 201 200" fill="none" xmlns="http://www.w3.org/2000/svg">
<path d="M108.103 25.3895V58.6405H119.082L100.149 85.6782L81.2172 58.6405H92.1942V25.3895H18.7734V58.6405H40.6253L81.477 116.984V141.362H56.3286V174.613H143.969V141.362H118.82V116.984L159.674 58.6405H181.524V25.3895H108.103Z" fill="#0A2240"/>
<path d="M178.327 55.4403H158.008L115.622 115.975V144.56H140.77V171.413H59.5278V144.56H84.6763V115.975L42.2896 55.4403H21.9727V28.5872H88.9956V55.4403H75.0719L100.15 91.2548L125.226 55.4403H111.302V28.5872H178.327V55.4403Z" fill="white"/>
<path d="M100.148 96.8328L68.9262 52.243H85.7965V31.7879H25.1699V52.243H43.9535L87.8735 114.968V147.759H62.7251V168.216H137.571V147.759H112.423V114.968L156.343 52.243H175.126V31.7879H114.5V52.243H131.37L100.148 96.8328Z" fill="#0A2240"/>
</svg>
