<svg width="88" height="88" viewBox="0 0 88 88" fill="none" xmlns="http://www.w3.org/2000/svg">
<g clip-path="url(#clip0_208_6694)">
<path d="M80.6767 19.5804H7.33678C5.39255 19.5743 3.52422 20.3408 2.13655 21.714C1.4507 22.4067 0.908557 23.2302 0.541757 24.1365C0.174958 25.0428 -0.0091469 26.0137 0.000188325 26.9925V59.9934C-0.0103726 60.9687 0.172591 61.9362 0.538315 62.8392C0.90404 63.7421 1.44514 64.5622 2.12979 65.2511C2.81347 65.9404 3.62539 66.4867 4.51896 66.8587C5.41253 67.2308 6.37016 67.4213 7.33691 67.4193H80.6767C82.6232 67.4102 84.4869 66.6235 85.8594 65.2317C87.232 63.8399 88.0016 61.9563 87.9998 59.9934V26.9854C88.007 26.0126 87.8227 25.0481 87.4575 24.1477C87.0923 23.2473 86.5535 22.429 85.8723 21.7402C85.1911 21.0514 84.381 20.5058 83.4892 20.1351C82.5973 19.7644 81.6413 19.5758 80.6766 19.5805L80.6767 19.5804Z" fill="white"/>
<path d="M85.4238 26.9858C85.4311 26.3542 85.3135 25.7274 85.0778 25.1422C84.8421 24.5569 84.493 24.025 84.051 23.5773C83.609 23.1297 83.083 22.7755 82.5036 22.5352C81.9243 22.295 81.3032 22.1737 80.6768 22.1784H60.1781L71.9388 41.9969L73.0241 42.1355L73.7111 43.0429V43.888L74.4531 44.0404L75.1399 44.9825V45.7999L75.9095 45.9385L76.6856 46.7906V48.6748C77.6098 49.5161 78.6513 50.2163 79.7769 50.7529C80.8144 51.1546 80.931 52.8309 81.5562 53.7246C82.3394 55.0269 83.4109 55.5465 83.1842 56.2739C82.6621 58.2203 80.6837 61.5038 78.8427 61.6561H71.561V64.801H80.6837C81.3116 64.7983 81.9327 64.6706 82.5114 64.4252C83.0902 64.1798 83.6151 63.8215 84.0562 63.371C84.4973 62.9204 84.8457 62.3865 85.0816 61.7998C85.3175 61.2131 85.4361 60.5852 85.4307 59.9521V26.9857" fill="#BF0D3E"/>
<path d="M35.2758 61.7045H31.7516C31.7516 52.8239 34.7261 47.9125 38.2915 46.9358C38.7793 46.8458 38.5457 44.4213 37.9274 43.68H35.8666C35.537 43.68 35.7293 43.0567 35.7293 43.0567L37.3985 39.4615L37.1719 38.4778H31.0029L36.0726 34.9034C36.3064 25.4756 45.8963 24.7412 51.6736 28.6689C55.1083 30.9618 55.3694 35.5061 55.1083 38.6441C55.0671 38.845 54.2153 38.7134 54.2153 38.7134C54.2153 38.7134 53.6314 42.1769 55.1565 42.1769H61.8955C64.6434 42.066 67.295 43.9432 67.295 43.9432L67.9407 41.5672L53.178 22.1783H7.33711C6.06903 22.1708 4.84937 22.6688 3.9436 23.5637C3.50197 24.0144 3.15318 24.5488 2.91736 25.1361C2.68154 25.7234 2.56334 26.3519 2.56959 26.9855V59.9937C2.5617 60.6254 2.67919 61.2524 2.91516 61.8377C3.15113 62.423 3.5008 62.9548 3.9436 63.4018C4.8438 64.3094 6.06415 64.82 7.33711 64.8217H37.0962C36.368 63.5611 35.5368 62.1272 35.2825 61.7046" fill="#041E42"/>
<path d="M9.17822 54.7014C9.17822 51.7691 12.6996 50.3081 14.7466 52.3897C16.7939 54.4714 15.3147 58.0097 12.4077 57.9847C11.9811 57.9857 11.5586 57.9012 11.1646 57.7362C10.7707 57.5712 10.4132 57.3289 10.1128 57.0235C9.81244 56.718 9.57522 56.3555 9.4149 55.9569C9.25459 55.5583 9.17437 55.1315 9.1789 54.7014" fill="white"/>
</g>
<defs>
<clipPath id="clip0_208_6694">
<rect width="88" height="47.8389" fill="white" transform="translate(0 19.5806)"/>
</clipPath>
</defs>
</svg>
