<svg width="88" height="88" viewBox="0 0 88 88" fill="none" xmlns="http://www.w3.org/2000/svg">
<path d="M80.8818 9.5536V5.0249H7.51184V35.1077C7.49414 45.1476 10.5416 54.9536 16.2469 63.2149L7.11694 72.3449L13.5222 78.7502L22.078 70.1944C24.1306 72.2381 26.3573 74.099 28.733 75.756C33.0592 78.7775 37.8424 81.0849 42.8999 82.5903L44.1924 82.9753L45.4838 82.5903C55.7157 79.5549 64.6914 73.2918 71.0711 64.7358C77.4508 56.1799 80.8923 45.7902 80.8818 35.1176V9.5536Z" fill="white"/>
<path d="M76.3532 9.47876H12.0351V35.0703C12.0192 45.4886 15.6316 55.5873 22.2519 63.6318L76.3532 9.52826V9.47876Z" fill="url(#paint0_linear_208_6691)"/>
<path d="M44.1946 78.231C62.7923 72.6958 76.3553 55.461 76.3553 35.0703V9.52832L22.2496 63.6318C27.9466 70.576 35.5884 75.6598 44.1946 78.231Z" fill="white"/>
<path d="M22.5422 56.2674L22.1451 56.6634L23.2374 57.7568L22.9899 58.0087L21.8899 56.9164L21.4928 57.3124L21.2882 57.1078L22.3343 56.0628L22.5422 56.2674ZM24.2428 55.9968L23.6752 54.7241L24.0382 54.3611L25.3362 55.6591L25.0997 55.8956L24.0899 54.8814L24.0833 54.888L24.7103 56.2894L24.5332 56.4654L23.1318 55.8384L23.1252 55.845L24.1405 56.8592L23.904 57.0957L22.606 55.7977L22.9712 55.4325L24.2428 55.9968Z" fill="#1A2857"/>
<path d="M36.3769 35.035L37.1975 37.5606L35.0492 35.9997L32.9009 37.5606L33.7215 35.035L31.5732 33.4741H34.2297L35.0492 30.9474L35.8698 33.4741H38.5252L36.3769 35.035ZM24.0129 35.035L26.1612 33.4741H23.5058L22.6852 30.9474L21.8646 33.4741H19.2081L21.3575 35.035L20.5369 37.5606L22.6852 35.9997L24.8324 37.5606L24.0129 35.035ZM29.6878 41.6988L28.8672 39.1721L28.0466 41.6988H25.3912L27.5395 43.2597L26.7189 45.7853L28.8672 44.2244L31.0155 45.7853L30.1949 43.2597L32.3432 41.6988H29.6878ZM21.6512 25.1449L19.2158 19.5965H19.1399V27.0006C19.1417 27.0265 19.1379 27.0524 19.1289 27.0766C19.1199 27.1009 19.1058 27.123 19.0876 27.1414C19.0694 27.1598 19.0475 27.1741 19.0233 27.1834C18.9991 27.1927 18.9733 27.1968 18.9474 27.1953H16.7606C16.7346 27.1969 16.7086 27.193 16.6842 27.1838C16.6599 27.1746 16.6378 27.1603 16.6194 27.1419C16.6009 27.1235 16.5867 27.1013 16.5774 27.077C16.5682 27.0526 16.5643 27.0266 16.5659 27.0006V14.2406C16.5645 14.2147 16.5685 14.1888 16.5778 14.1646C16.5871 14.1404 16.6014 14.1184 16.6198 14.1001C16.6382 14.0818 16.6602 14.0676 16.6845 14.0585C16.7088 14.0493 16.7347 14.0454 16.7606 14.047H19.0607C19.1264 14.0403 19.1925 14.0557 19.2485 14.0908C19.3045 14.1258 19.3471 14.1786 19.3698 14.2406L22.6951 21.7415H22.7699L26.0358 14.2406C26.0588 14.1786 26.1018 14.1259 26.1579 14.0909C26.214 14.0559 26.2802 14.0404 26.346 14.047H28.6109C28.6367 14.0454 28.6625 14.0493 28.6867 14.0585C28.7109 14.0676 28.7328 14.0819 28.751 14.1002C28.7693 14.1185 28.7834 14.1405 28.7924 14.1647C28.8014 14.189 28.8052 14.2148 28.8034 14.2406V27.0006C28.8052 27.0265 28.8014 27.0524 28.7924 27.0766C28.7834 27.1009 28.7693 27.123 28.7511 27.1414C28.7329 27.1598 28.711 27.1741 28.6868 27.1834C28.6626 27.1927 28.6368 27.1968 28.6109 27.1953H26.4263C26.4005 27.1968 26.3746 27.1927 26.3504 27.1834C26.3263 27.1741 26.3043 27.1598 26.2861 27.1414C26.2679 27.123 26.2538 27.1009 26.2448 27.0766C26.2358 27.0524 26.232 27.0265 26.2338 27.0006V19.5965H26.1557L23.7203 25.1449C23.6947 25.2213 23.6449 25.2873 23.5784 25.3328C23.5119 25.3783 23.4323 25.4007 23.3518 25.3968H22.0186C21.9383 25.4003 21.8591 25.3776 21.7928 25.3322C21.7266 25.2868 21.6769 25.221 21.6512 25.1449ZM30.7669 27.1953H39.3315C39.3574 27.1966 39.3832 27.1924 39.4073 27.1831C39.4315 27.1737 39.4534 27.1594 39.4716 27.141C39.4899 27.1227 39.5041 27.1007 39.5133 27.0765C39.5225 27.0523 39.5265 27.0265 39.5251 27.0006V24.86C39.5264 24.8343 39.5222 24.8086 39.5129 24.7846C39.5036 24.7606 39.4894 24.7388 39.4712 24.7207C39.4529 24.7025 39.431 24.6884 39.407 24.6793C39.3829 24.6701 39.3572 24.6661 39.3315 24.6675H33.5312C33.5154 24.6697 33.4993 24.6682 33.4841 24.6631C33.469 24.658 33.4552 24.6495 33.4439 24.6382C33.4326 24.6269 33.4241 24.6132 33.419 24.598C33.4139 24.5829 33.4124 24.5667 33.4146 24.5509V14.2417C33.4162 14.216 33.4123 14.1902 33.4032 14.166C33.3941 14.1419 33.38 14.12 33.3618 14.1017C33.3437 14.0834 33.3218 14.0692 33.2977 14.0599C33.2736 14.0507 33.2479 14.0467 33.2221 14.0481H30.7669C30.7411 14.0465 30.7152 14.0504 30.691 14.0596C30.6667 14.0687 30.6447 14.0829 30.6264 14.1012C30.6081 14.1196 30.5939 14.1415 30.5848 14.1658C30.5756 14.19 30.5717 14.2159 30.5733 14.2417V27.0017C30.5717 27.0276 30.5756 27.0535 30.5848 27.0778C30.5939 27.1021 30.6081 27.1241 30.6264 27.1425C30.6447 27.1609 30.6667 27.1752 30.6909 27.1845C30.7151 27.1938 30.741 27.1979 30.7669 27.1964M46.6564 19.2874L45.9612 19.1906C44.4531 18.9783 43.9119 18.4954 43.9119 17.7408C43.9119 16.9092 44.5114 16.3108 45.6719 16.3108C46.7554 16.3108 47.7212 16.6584 48.7266 17.3162C48.7482 17.3302 48.7724 17.3398 48.7978 17.3444C48.8231 17.349 48.8491 17.3486 48.8743 17.3431C48.8995 17.3375 48.9233 17.3271 48.9444 17.3123C48.9655 17.2975 48.9834 17.2786 48.9972 17.2568L50.1764 15.4968C50.2732 15.3615 50.2534 15.2845 50.139 15.2075C49.039 14.3561 47.4121 13.8347 45.6719 13.8347C42.8306 13.8347 41.0134 15.4396 41.0134 17.8552C41.0134 20.1751 42.5017 21.4313 45.1703 21.7998L45.8655 21.8955C47.4319 22.1078 47.895 22.5918 47.895 23.3662C47.895 24.2924 47.125 24.9315 45.75 24.9315C44.3585 24.9315 43.1793 24.2715 42.3081 23.5785C42.2887 23.5591 42.2654 23.5439 42.2398 23.5342C42.2141 23.5245 42.1866 23.5204 42.1592 23.5222C42.1318 23.5239 42.1051 23.5316 42.0809 23.5445C42.0567 23.5574 42.0355 23.5754 42.0188 23.5972L40.5492 25.2791C40.509 25.3259 40.4886 25.3865 40.4923 25.4481C40.496 25.5097 40.5235 25.5674 40.569 25.6091C41.5931 26.5991 43.5841 27.4065 45.6345 27.4065C49.0357 27.4065 50.7957 25.6465 50.7957 23.2705C50.7957 20.8945 49.3657 19.6548 46.6575 19.2874" fill="white"/>
<path d="M32.187 70.7817C29.2789 68.7526 26.6286 66.3771 24.2945 63.7076L74.8428 13.1582V35.0702C74.8379 44.364 71.8606 53.4127 66.346 60.8937C60.8315 68.3747 53.0688 73.8958 44.1924 76.6502C39.9098 75.3269 35.859 73.3459 32.1848 70.7784M22.3409 61.3085C16.6166 53.7591 13.5254 44.5411 13.5409 35.0669V10.9857H72.7429L22.3761 61.3547L22.3431 61.3118M10.5258 7.96948V35.0702C10.5083 45.204 13.8136 55.0641 19.9352 63.14C20.0309 63.2654 20.1277 63.3886 20.2234 63.5129L11.386 72.3514L13.5211 74.4865L22.155 65.8526C24.6179 68.6439 27.4056 71.1307 30.4589 73.26C34.523 76.0992 39.017 78.2667 43.7689 79.6796L44.2001 79.8083L44.6302 79.6796C49.3822 78.2667 53.8762 76.0992 57.9402 73.26C64.0986 68.9766 69.1278 63.2653 72.5978 56.6146C76.0678 49.9639 77.8753 42.5717 77.8656 35.0702V7.96948H10.5258Z" fill="url(#paint1_radial_208_6691)"/>
<defs>
<linearGradient id="paint0_linear_208_6691" x1="12.0329" y1="36.5553" x2="76.3532" y2="36.5553" gradientUnits="userSpaceOnUse">
<stop stop-color="#E32726"/>
<stop offset="0.16" stop-color="#DB2727"/>
<stop offset="0.4" stop-color="#C62628"/>
<stop offset="0.7" stop-color="#A3242B"/>
<stop offset="1" stop-color="#79222E"/>
</linearGradient>
<radialGradient id="paint1_radial_208_6691" cx="0" cy="0" r="1" gradientUnits="userSpaceOnUse" gradientTransform="translate(44.1946 43.8878) scale(34.8128 34.8128)">
<stop stop-color="#0F98D5"/>
<stop offset="0.14" stop-color="#1091CD"/>
<stop offset="0.36" stop-color="#127EB8"/>
<stop offset="0.62" stop-color="#155F95"/>
<stop offset="0.92" stop-color="#193465"/>
<stop offset="1" stop-color="#1A2857"/>
</radialGradient>
</defs>
</svg>
