<svg width="88" height="88" viewBox="0 0 88 88" fill="none" xmlns="http://www.w3.org/2000/svg">
<path d="M24.491 8.20348C24.491 4.08474 27.8285 0.74585 31.9455 0.74585H55.0546C59.1716 0.74585 62.5091 4.08474 62.5091 8.20348V79.7967C62.5091 83.9154 59.1716 87.2543 55.0546 87.2543H31.9455C27.8285 87.2543 24.491 83.9154 24.491 79.7967V8.20348Z" fill="white"/>
<rect x="26.2284" y="2.09912" width="34.5433" height="83.8018" rx="10" fill="white"/>
<path d="M53.0043 79.3969C53.0845 78.0995 53.0577 77.6715 52.8826 77.4603C52.7494 77.2997 52.6553 76.7989 52.6515 76.2306C52.6457 75.37 52.5302 75.0486 51.5208 73.086C50.4435 70.9913 50.4048 70.8769 50.5962 70.3469C50.7747 69.8526 50.7494 69.6863 50.3591 68.7853C49.9698 67.8866 49.7946 67.6908 48.7519 66.9862C46.7291 65.6197 45.1032 64.2266 42.396 61.5401C39.3735 58.5399 36.864 55.2412 34.5369 51.209C33.7289 49.8091 33.6656 49.7507 32.9519 49.7472C32.416 49.7446 31.7724 49.2765 31.7749 48.8906C31.7755 48.7788 31.1197 47.3328 30.3175 45.6775C28.2356 41.3815 28.0575 40.4668 28.6941 37.3387C29.072 35.484 29.143 35.3172 29.931 34.4439C30.7676 33.5172 30.6364 33.2562 29.2662 33.1207C27.4356 32.9392 27.4543 32.9507 27.0748 31.7748C26.8882 31.1965 26.7356 30.5411 26.7356 30.3185C26.7356 29.5805 27.5726 27.2451 28.7235 24.7721C29.3479 23.43 30.1485 21.5997 30.5024 20.7049C31.7619 17.5204 33.4995 14.9741 34.9025 14.2575C35.4635 13.971 36.5536 13.7556 39.7979 13.2898C41.6037 13.0304 41.7309 12.8991 41.9903 11.0253C42.1413 9.93562 42.1262 9.76483 41.8412 9.3027C41.6355 8.96983 41.5245 8.49866 41.5245 7.95929C41.5245 7.20081 41.5669 7.10661 42.0121 6.87619C42.4424 6.65353 42.4997 6.53929 42.4997 5.90394C42.4997 4.38408 42.8061 3.53786 43.6582 2.70829C43.8944 2.47787 44.1048 2.26022 44.2504 2.09912H33.0917C29.3014 2.09912 26.2284 5.1752 26.2284 8.96967V79.0304C26.2284 82.8247 29.3012 85.901 33.0917 85.901H53.5079C53.439 85.7489 53.295 85.5026 53.128 85.259C52.6634 84.5819 52.6684 84.8196 53.0043 79.3969Z" fill="#0E499D"/>
<path d="M53.9293 2.09912H48.0375C48.0953 2.16816 48.1786 2.24237 48.28 2.30915C49.0086 2.7887 50.1138 3.94393 50.2901 4.41007C50.5556 5.11194 50.4959 6.04421 50.1212 7.05085C49.9059 7.62871 49.8153 8.14578 49.8761 8.45039C49.9907 9.02614 49.4278 10.2467 48.7616 10.8676C48.5214 11.0913 48.1809 11.5563 48.005 11.901C47.8291 12.2456 47.3927 12.8466 47.0352 13.2362C46.678 13.6259 46.4096 14.0692 46.4393 14.2214C46.4689 14.3737 46.8941 14.715 47.3842 14.98C47.8745 15.245 48.6081 15.765 49.0149 16.1355C49.4217 16.5061 50.2427 17.1561 50.8395 17.5799C52.984 19.1031 54.013 21.7077 54.0236 25.6395C54.0284 27.3818 54.874 31.4654 55.4799 32.6714C56.3097 34.3232 56.6101 35.2338 56.8698 36.8822C57.2032 39.0004 57.2132 39.0243 57.8836 39.3057C58.5243 39.5747 60.1835 40.9282 60.1835 41.1818C60.1835 41.2691 60.3476 41.5715 60.5479 41.854L60.7716 42.1689V8.97376C60.7713 5.17694 57.708 2.09912 53.9293 2.09912ZM60.6693 48.1331C60.6693 48.2156 60.3085 48.6794 59.8678 49.1642C56.7937 52.5435 51.5327 51.7906 49.6014 47.6945C49.1341 46.703 49.0854 46.454 49.0854 45.0534C49.0854 43.7161 49.1443 43.3807 49.5195 42.5759C50.1196 41.2895 51.2649 40.1112 52.517 39.4916C53.0866 39.2099 53.5864 38.9251 53.627 38.8584C53.6678 38.792 53.1537 37.6259 52.4843 36.2668C50.9423 33.1358 50.7597 32.5759 50.0599 28.836C49.7435 27.1456 49.4519 25.6712 49.4115 25.5591C49.282 25.1987 48.8294 25.3392 47.7099 26.0869L46.6149 26.8183L45.6224 29.3443C45.0766 30.7333 44.6299 32.0764 44.6299 32.3285C44.6299 32.6123 44.7903 32.9376 45.0503 33.1817C45.699 33.7908 45.8741 34.238 46.9734 38.0966C47.7834 40.939 47.964 41.7694 47.8348 42.0548C47.7107 42.3277 47.7913 42.9267 48.1642 44.5077C48.7125 46.834 48.9171 48.0668 49.1728 50.588C49.432 53.1474 49.7062 53.9581 51.1819 56.5298C52.163 58.2392 52.4642 59.2694 53.1531 63.2711C53.4691 65.1073 53.7884 66.7237 53.8625 66.8627C53.9367 67.0018 54.2577 67.5048 54.576 67.98C55.4512 69.2869 55.583 69.8882 55.2684 71.1457C55.1247 71.7202 54.9622 72.5857 54.9072 73.0691C54.7966 74.0366 55.1452 76.3799 55.5408 77.3319C55.6746 77.6532 55.7471 78.0566 55.7026 78.2286C55.6577 78.4007 55.8448 79.2605 56.1182 80.1392C56.9731 82.8875 56.9353 84.0533 55.9507 85.3026C55.7743 85.5264 55.6797 85.6536 55.6229 85.7395C58.5824 84.9822 60.7713 82.2869 60.7713 79.0775V47.9949C60.7118 48.017 60.6693 48.0704 60.6693 48.1331Z" fill="#D30529"/>
<path d="M28.6637 70.4475H31.4383L33.0389 77.5255H33.0657V70.4475H35.3867V81.933H32.6656L31.0115 74.8389H30.9847V81.933H28.6637V70.4475Z" fill="white"/>
<path d="M36.5879 70.4475H40.3365C42.1106 70.4475 42.9377 71.5896 42.9377 73.3108C42.9377 74.5333 42.4974 75.6272 41.4436 75.8845V75.9166C42.6975 76.0613 43.2046 77.3483 43.2046 78.5387C43.2046 80.5334 42.4042 81.9329 40.3365 81.9329H36.5879V70.4475ZM39.069 74.9517H39.6695C40.1764 74.9517 40.4566 74.4048 40.4566 73.7934C40.4566 73.15 40.1764 72.6031 39.6695 72.6031H39.069V74.9517ZM39.069 79.7774H39.7628C40.2164 79.7774 40.6432 79.2948 40.6432 78.3619C40.6432 77.4772 40.2162 76.9784 39.7628 76.9784H39.069V79.7774Z" fill="white"/>
<path d="M45.6738 70.4475H48.7953L51.1165 81.933H48.475L48.2216 79.9223H46.2473L45.9941 81.933H43.3523L45.6738 70.4475ZM47.2478 72.7961H47.2211L46.5408 77.6703H47.9282L47.2478 72.7961Z" fill="white"/>
</svg>
