<svg width="40" height="40" viewBox="0 0 40 40" fill="none" xmlns="http://www.w3.org/2000/svg">
<g clip-path="url(#clip0_81_4324)">
<path d="M37.528 19.8067H32.3703L31.7533 21.9665H32.5474L29.99 25.9788L29.6372 19.8067H24.4352L23.8624 21.9222H24.6558L21.2614 27.0809H18.4397C18.1312 27.0809 17.0292 26.8159 17.0292 25.4053C17.0292 23.9948 18.3518 21.9665 19.7181 21.9665H20.2915C20.2037 22.3193 19.9823 23.0249 19.9823 23.0249H22.4955L23.3775 19.7625H19.5424C17.1613 19.7625 15.2216 21.4815 14.6046 23.2456L15.6187 19.7625H12.18L11.5629 21.9229H12.4449L11.5629 25.0525L9.31402 19.7625H6.09667L5.47962 21.9665H6.36092L4.37695 29.197H6.93439C6.93439 29.197 7.90423 25.626 8.16848 24.7004C8.781 26.2012 9.39805 27.7 10.0196 29.197H12.8856L14.2082 24.6119C14.076 25.3108 14.076 26.0284 14.2082 26.7273C14.4725 28.2271 15.9272 29.197 17.5141 29.197H22.7161L23.5981 27.8301H27.2568L27.3447 29.1527H30.607L31.4447 27.8301H35.192L35.3241 29.197H37.6166L38.1015 28.1829L37.528 19.8067Z" fill="white"/>
<path d="M20.0273 0.18866C9.04978 0.18866 0.188354 9.04974 0.188354 20.027C0.188354 31.0049 9.05048 39.8653 20.0273 39.8653C23.6392 39.8732 27.1842 38.8912 30.2773 37.0261C33.3704 35.161 35.8934 32.484 37.5723 29.2859H35.28V29.1966L35.1483 27.8308H31.401L30.5637 29.1527H27.301L27.2131 27.8308H23.5537L22.6725 29.1966H17.4703C15.8827 29.1966 14.3843 28.227 14.1636 26.7286C14.0313 26.0292 14.0313 25.3112 14.1636 24.6119L12.8417 29.1966H9.9757C9.9757 29.1966 8.4768 25.5375 8.124 24.6998C7.90403 25.6261 6.9339 29.1966 6.9339 29.1966H4.37808L6.36155 21.9668H5.48033L6.09664 19.8515H9.31546L11.5638 25.1418L12.445 22.0106H11.5624L12.1801 19.8501H15.6185L14.6041 23.3339C15.2219 21.5698 17.1625 19.8501 19.5428 19.8501H23.3779L22.4953 23.1129H19.9834C19.9834 23.1129 20.2037 22.4088 20.2922 22.056H19.7185C18.3516 22.056 17.0295 24.0826 17.0295 25.4932C17.0295 26.9044 18.1756 27.1692 18.4405 27.1692H21.2613L24.6558 22.0107H23.8625L24.4362 19.8954H29.6371L29.9899 26.0669L32.5471 22.056H31.7537L32.37 19.8954H37.5283L38.1021 28.2715C39.2476 25.759 39.8645 22.9811 39.8645 20.0275C39.8645 9.05026 31.0041 0.18866 20.0273 0.18866ZM27.0797 22.5824L25.0812 25.5803H27.1676L27.0797 22.5824ZM25.0812 25.5803H25.0523V25.6243L25.0812 25.5803ZM35.015 22.5824L33.0316 25.5803H35.1029L35.015 22.5824Z" fill="#009CDE"/>
</g>
<defs>
<clipPath id="clip0_81_4324">
<rect width="40" height="40" fill="white"/>
</clipPath>
</defs>
</svg>
