<svg width="88" height="88" viewBox="0 0 88 88" fill="none" xmlns="http://www.w3.org/2000/svg">
<g clip-path="url(#clip0_208_6692)">
<path d="M73.7993 10.0114C71.1319 12.0138 65.7967 14.6833 59.1276 13.0148C47.3458 10.1226 44.0111 0 44.0111 0C44.0111 0 40.6545 10.1116 28.8947 13.0148C22.1257 14.6833 16.8905 11.9913 14.1117 10.0226H12V64.5287C12 65.9752 12.3333 68.6448 14.5674 71.4256C17.3352 74.7628 22.0035 76.9096 28.4613 77.844C33.6852 78.5893 37.4643 80.2137 40.1321 82.8053C42.1327 84.7072 44.0223 87.9999 44.0223 87.9999C44.0223 87.9999 45.9676 84.6408 47.8681 82.8053C50.5576 80.2137 54.3706 78.6004 59.5386 77.844C66.0078 76.9086 70.6537 74.7297 73.4325 71.3808C75.6667 68.6668 76 65.9416 76 64.5736V10.0669H73.8771" fill="white"/>
<path d="M74.0215 12.1248C74.0215 12.1248 67.608 17.1193 58.572 14.8613C48.046 12.2249 43.9 4.33813 43.9 4.33813C43.9 4.33813 39.8097 12.2361 29.2282 14.8613C20.3362 17.0861 13.8895 12.0803 13.8895 12.0803V64.4731C13.8906 66.2528 14.6341 73.8171 28.7835 75.8192C34.3522 76.6259 38.5093 78.4112 41.4548 81.2923C42.5306 82.3245 43.3443 83.3723 43.9666 84.3399C44.5923 83.3758 45.4117 82.3266 46.4784 81.2923C49.4689 78.4112 53.6255 76.6204 59.1501 75.8192C73.2661 73.7839 73.9328 66.2196 74.0439 64.4731V12.0803" fill="#013369"/>
<path d="M44.0111 79.1233C44.0111 79.1233 48.1015 74.073 58.6832 72.4378C70.9094 70.5581 70.4651 64.8406 70.4651 64.5512V37.0757H17.4463V64.5514C17.4463 64.8407 17.0862 70.5583 29.2282 72.4379C39.8541 74.0841 43.9 79.1233 43.9 79.1233" fill="white"/>
<path d="M31.5624 57.176L31.5605 44.1611L29.9266 43.2436V39.8617H37.3846V43.2436L35.8285 44.1611V70.7471L31.8494 69.5568L26.0917 52.5376L26.0907 63.7724L27.9246 65.174V68.6335L19.933 66.5975V63.6498L21.7669 62.9335V44.1342L19.8885 43.2056V39.824H25.935L31.5816 57.177M45.345 69.0783L46.9453 70.9918V74.3735L39.0205 71.4143V68.5449L40.7655 67.8283V44.1343L39.0317 43.2546V39.8285H52.8142V46.714H49.791L48.8749 43.8886H45.374V51.8531H47.9971L49.0307 50.3404H51.1425V57.4264H49.0307L48.0358 55.9911H45.3683V69.1175M54.1259 70.302V66.9204L56.0933 65.3075V44.1724L54.4146 43.2924V39.8664H62.3396V43.2924L60.784 44.1724V64.0839L64.1961 63.1614L64.8499 57.9558H68.1066V66.6546L54.1016 70.3921" fill="#D50A0A"/>
<path d="M18.8356 31.4802L16.4346 29.6781H19.3691L20.3372 26.8973L21.3052 29.6781H24.2397L21.8388 31.4913L22.7213 34.3167L20.3315 32.6371L17.9419 34.3167L18.8245 31.4913M29.2282 31.4802L26.8273 29.6782H29.7615L30.7298 26.8974L31.698 29.6782H34.6322L32.2313 31.4914L33.1138 34.3168L30.7242 32.6372L28.3344 34.3168L29.217 31.4914M18.8356 22.1364L16.4347 20.3342H19.3692L20.3373 17.5534L21.3053 20.3342H24.2398L21.8389 22.1475L22.7214 24.973L20.3316 23.2932L17.942 24.9731L18.8246 22.1475M29.2282 22.1364L26.8273 20.3342H29.7615L30.7298 17.5534L31.698 20.3342H34.6322L32.2314 22.1475L33.1139 24.973L30.7242 23.2932L28.3344 24.9731L29.217 22.1475M70.0202 34.2611L67.6305 32.5817L65.2407 34.2611L66.123 31.4357L63.7225 29.6225H66.657L67.625 26.8417L68.5928 29.6225H71.5273L69.1268 31.4357L70.0101 34.2611M59.5721 34.2611L57.1824 32.5817L54.7926 34.2611L55.6753 31.4357L53.2745 29.6225H56.2086L57.1769 26.8417L58.1461 29.6225H61.0802L58.6797 31.4357L59.5631 34.2611M70.0202 24.9173L67.6305 23.2376L65.2407 24.9172L66.123 22.0918L63.7225 20.2786H66.657L67.625 17.4978L68.5928 20.2786H71.5273L69.1268 22.0918L70.0101 24.9172M59.5721 24.9173L57.1824 23.2376L54.7925 24.9172L55.6752 22.0918L53.2744 20.2786H56.2085L57.1768 17.4978L58.146 20.2786H61.0801L58.6796 22.0918L59.563 24.9172M46.2341 20.0228C45.166 19.1418 43.9666 18.5769 42.6996 18.2988C43.0073 18.0073 43.3231 17.7571 43.5998 17.5258C45.1889 17.9083 46.2562 18.6214 46.99 19.2276C46.7301 19.4945 46.4777 19.7549 46.2386 20.0207L46.2342 20.0229L46.2341 20.0228ZM44.6894 21.8806C43.6711 21.025 42.4329 20.3899 41.0323 20.1007C41.2469 19.8237 41.4982 19.5289 41.7393 19.2552C42.8107 19.4454 44.1846 20.0106 45.3847 21.0018C45.1406 21.2954 44.9117 21.5935 44.6958 21.8771L44.6894 21.8806ZM43.2997 23.8271C42.2017 22.9117 40.9212 22.3479 39.6652 22.114C39.6652 22.114 40.0509 21.4846 40.2699 21.1584C41.8037 21.4635 43.0485 22.1821 43.9267 22.9161C43.7148 23.2174 43.5058 23.5207 43.2997 23.826V23.8271ZM50.5576 14.5276C50.5576 14.5276 49.313 15.1762 47.5792 16.8859C47.9705 17.1074 48.4104 17.4165 48.6628 17.6268C48.4003 17.8592 48.1327 18.1107 47.8839 18.3465C46.7499 17.4155 45.583 16.9449 44.6713 16.7223C44.9738 16.5055 45.295 16.292 45.612 16.085C46.1008 16.2094 46.5744 16.402 46.5744 16.402C48.5305 14.9113 50.2314 14.2662 50.2314 14.2662C50.2314 14.2662 50.0342 14.1698 49.5109 14.1769C41.8082 14.2763 34.7277 20.0278 36.0618 29.8611C36.2049 30.9058 36.6106 32.809 37.1263 33.6434C37.2977 32.0081 37.9134 28.3818 39.7385 24.4885C39.1038 24.2604 38.5825 24.167 38.5825 24.167C38.7693 23.7755 39.0283 23.2759 39.0283 23.2759C40.3842 23.5307 41.5736 24.0969 42.6073 24.9224C42.3593 25.3238 42.1915 25.5852 42.0726 25.7922C41.716 25.5096 41.3368 25.2566 40.939 25.0358C38.8826 28.6287 37.938 32.0215 37.5489 33.7903C37.5701 33.8997 37.7933 33.956 37.9735 33.9326C46.4098 32.839 50.311 28.5264 51.5339 23.8656C52.3239 20.8067 52.065 17.603 51.0069 14.9889C50.9325 14.8053 50.7878 14.5005 50.5422 14.5227" fill="white"/>
</g>
<defs>
<clipPath id="clip0_208_6692">
<rect width="64" height="88" fill="white" transform="translate(12)"/>
</clipPath>
</defs>
</svg>
