<svg width="88" height="88" viewBox="0 0 88 88" fill="none" xmlns="http://www.w3.org/2000/svg">
<g clip-path="url(#clip0_208_6695)">
<path d="M9.17586 53.2853C9.17586 45.2853 12.9385 42.2416 13.7241 34.694C12.6697 41.3367 8.24573 46.766 8.24573 53.3057C8.24573 55.8149 8.59735 58.1181 9.23797 60.1747C12.0289 69.3676 20.2775 74.4885 28.2782 76.5039C15.936 73.3984 9.17586 63.0951 9.17586 53.2853ZM79.6922 53.2853C79.6922 49.1105 78.5347 45.8406 77.2941 42.7969C75.785 39.1773 74.1516 35.9074 74.1516 31.8972C74.1516 41.6247 78.8237 44.3805 78.8237 53.2855C78.8237 63.095 72.0633 73.3781 59.7422 76.5039C70.8645 73.6864 79.692 65.6042 79.692 53.2854L79.6922 53.2853ZM75.2269 76.4626C73.5522 76.4626 72.2086 77.8199 72.2086 79.4652C72.2086 81.1312 73.5522 82.4678 75.2269 82.4678C76.9016 82.4678 78.2452 81.1105 78.2452 79.4652C78.2452 77.82 76.8807 76.4626 75.2269 76.4626ZM75.2269 81.8097C73.9243 81.8097 72.8494 80.7608 72.8494 79.4447C72.8494 78.1489 73.9038 77.0796 75.2269 77.0796C76.5499 77.0796 77.6043 78.1286 77.6043 79.4448C77.5838 80.7814 76.5293 81.8098 75.2269 81.8098V81.8097ZM76.4673 78.766C76.4673 78.2107 76.0125 77.7584 75.4543 77.7584H74.0071V81.1723H74.6686V79.7943H75.1234L75.785 81.1722H76.5084L75.8262 79.7323C76.1778 79.5884 76.4673 79.2183 76.4673 78.766ZM75.4336 79.1569H74.6274V78.4165H75.4337C75.6406 78.4165 75.8059 78.5812 75.8059 78.7867C75.8059 78.9922 75.6405 79.1569 75.4336 79.1569Z" fill="white"/>
<path d="M75.6195 14.5194C73.0975 13.7789 71.2782 11.887 70.1619 8.88441L67.5984 1.91284L66.42 6.3137C68.8387 17.1312 77.7902 17.9127 77.7902 17.9127L81.4287 16.2263L75.6197 14.5195L75.6195 14.5194ZM33.4258 53.9024L28.7537 46.7661L23.5439 50.653C23.5439 50.653 25.3631 50.6941 25.3631 52.6067V66.036L29.0222 63.3008V53.7994L33.2188 60.1543L37.1054 57.2545V40.5143L33.4463 43.2495V53.9024H33.4258ZM48.2897 38.3549L44.1549 41.4396V35.2493L38.5526 39.4241C38.5526 39.4241 40.3717 39.4652 40.3717 41.3778V54.807L44.1344 51.9895V45.861L48.2689 42.7762V48.9047L51.8454 46.2107V29.4705L48.2689 32.1644V38.3547H48.2898L48.2897 38.3549ZM58.7709 36.7919V24.3291L53.1685 28.5039C53.1685 28.5039 54.9878 28.545 54.9878 30.4576V43.8869L65.3863 36.1131C65.1592 33.4395 65.3863 31.8558 65.3863 31.8558L58.7709 36.7917V36.7919Z" fill="#E4E5E6"/>
<path d="M11.2432 31.9383C11.2432 41.4396 6.57129 43.3316 6.57129 53.3059C6.57129 56.3496 7.08807 59.2082 8.01846 61.82C8.30797 61.2234 8.74223 60.627 9.23835 60.1951C8.59748 58.1181 8.2669 55.8353 8.2669 53.3262C8.2669 46.8069 12.6908 41.3571 13.7453 34.7349C13.8278 33.8712 13.8899 32.9663 13.8899 31.9586C13.8899 24.3699 10.2514 17.9534 10.2514 17.9534L6.61287 16.2466L9.09347 21.8197C10.2926 24.5964 11.2435 28.0307 11.2435 31.9382L11.2432 31.9383Z" fill="url(#paint0_linear_208_6695)"/>
<path d="M74.1519 31.8971C74.1519 35.928 75.785 39.1981 77.2943 42.7968L79.2582 42.7352C78.0384 39.7326 76.7981 36.8534 76.7981 31.9177C76.7981 28.0308 77.7491 24.5759 78.9688 21.7789L81.4494 16.2056L77.8109 17.892C77.7904 17.9124 74.1519 24.3085 74.1519 31.8971Z" fill="url(#paint1_linear_208_6695)"/>
<path d="M41.1368 79.4037C38.1598 78.3342 34.1287 77.964 28.2574 76.4834C20.2568 74.4679 11.9876 69.3472 9.21745 60.1543C8.72133 60.6067 8.30785 61.1826 7.99768 61.779C11.1606 70.6428 19.0577 76.8742 27.6164 79.0541C33.0948 80.432 35.6376 80.5758 39.7309 81.7069C40.2684 82.2622 44.031 86.3137 44.031 86.3137V82.4268C44.0102 82.4268 41.5294 79.774 41.1366 79.4038L41.1368 79.4037Z" fill="url(#paint2_linear_208_6695)"/>
<path d="M28.9189 73.9333C35.4516 75.5786 39.7104 75.7635 42.5633 77.1414C42.5633 77.1414 43.6176 78.0874 44.0104 78.5194C44.4031 78.0875 45.4576 77.1415 45.4576 77.1415C48.3311 75.7842 52.5899 75.5786 59.1019 73.9334C67.3299 71.8561 76.2194 64.6376 76.2194 53.3059C76.2194 45.2033 71.5473 42.2211 71.5473 31.9179C71.5473 24.9667 74.1729 19.6402 74.1729 19.6402C74.1729 19.6402 68.0949 18.4268 65.2626 10.7559C65.2626 10.7559 61.2314 14.5194 55.6495 14.5194C48.662 14.5194 44.0313 9.64526 44.0313 9.64526C44.0313 9.64526 39.3799 14.5194 32.4131 14.5194C26.8519 14.5194 22.8207 10.7559 22.8207 10.7559C19.9885 18.4268 13.9106 19.6402 13.9106 19.6402C13.9106 19.6402 16.5362 24.9873 16.5362 31.9384C16.5362 42.242 11.864 45.2237 11.864 53.3268C11.8015 64.6375 20.691 71.8355 28.9189 73.9333ZM73.2009 53.2854C73.2009 62.91 65.4899 69.2239 58.337 71.0334C53.1686 72.329 46.8633 73.0282 44.9612 74.0976C44.5272 74.406 44.0103 74.9819 44.0103 74.9819C44.0103 74.9819 43.4936 74.4266 43.0388 74.118C41.1161 73.0486 34.8108 72.3699 29.6631 71.0538C29.477 71.0126 29.2704 70.951 29.0843 70.8891L69.728 40.5349C71.0921 45.3473 73.2009 48.4938 73.2009 53.2856V53.2854ZM70.3067 21.2443C69.4797 23.712 68.5287 27.5168 68.5287 31.8972C68.5287 33.7275 68.6528 35.3522 68.8804 36.8124L25.2805 69.3883C19.8227 66.5912 15.0472 61.2443 14.7991 53.8818L64.9108 16.4525C66.6681 18.8381 68.6528 20.3394 70.3065 21.2443H70.3067ZM19.4713 31.8973C19.4713 27.4964 18.4999 23.6917 17.6935 21.2444C19.6161 20.1954 22.0348 18.3446 23.9367 15.1363C26.0041 16.2878 28.919 17.4397 32.3715 17.4397C37.6019 17.4397 41.6746 15.1776 44.0107 13.4708C46.3261 15.1776 50.3986 17.4397 55.629 17.4397C56.4559 17.4397 57.2621 17.3781 58.027 17.2546L15.3367 49.1517C16.5563 44.36 19.4713 40.3703 19.4713 31.8973Z" fill="url(#paint3_linear_208_6695)"/>
<path d="M32.3918 11.8253C39.4208 11.8253 44.031 5.90246 44.031 5.90246V2.20054L40.3718 5.82011C38.4905 7.6712 35.4722 9.19292 32.4126 9.19292C30.1386 9.19292 27.9886 8.18516 26.1279 6.64276L20.4014 1.93335L21.6005 6.33433C21.5797 6.33433 26.9548 11.8254 32.3917 11.8254L32.3918 11.8253Z" fill="url(#paint4_linear_208_6695)"/>
<path d="M79.6922 53.2852C79.6922 65.5834 70.8647 73.6862 59.7425 76.5036C53.892 77.9845 49.84 78.3547 46.863 79.4239C46.4909 79.7737 44.0103 82.4469 44.0103 82.4469V86.3339C44.0103 86.3339 47.7726 82.2825 48.3102 81.7273C52.3828 80.5962 54.9463 80.4522 60.4039 79.0949C71.4642 76.257 81.4701 66.6735 81.4701 53.3263C81.4701 48.5345 80.3952 45.5936 79.2582 42.7761L77.3149 42.8378C78.5347 45.8404 79.6922 49.1104 79.6922 53.2852Z" fill="url(#paint5_linear_208_6695)"/>
<path d="M55.6287 11.8253C61.0657 11.8253 66.4201 6.33433 66.4201 6.33433L67.5986 1.93335L61.9136 6.62234C60.0528 8.16486 57.9029 9.17262 55.6288 9.17262C52.5899 9.17262 49.5509 7.6509 47.6695 5.79982L44.0105 2.18025V5.88177C44.0105 5.9022 48.6206 11.8253 55.6288 11.8253H55.6287Z" fill="url(#paint6_linear_208_6695)"/>
<path d="M21.5799 6.33409L20.3808 1.93311L17.8173 8.90467C16.7216 11.9073 14.8818 13.7994 12.3595 14.5396L6.57104 16.2467L10.2096 17.9331C10.2096 17.9127 19.1612 17.131 21.5799 6.33409Z" fill="url(#paint7_linear_208_6695)"/>
<path d="M15.3367 49.1517L58.0266 17.2752C57.2618 17.3986 56.4556 17.4807 55.6287 17.4807C50.419 17.4807 46.3464 15.2186 44.0104 13.5117C41.6743 15.2186 37.6224 17.4807 32.3921 17.4807C28.9603 17.4807 26.0248 16.3292 23.9574 15.1775C22.0348 18.3652 19.616 20.216 17.7142 21.2854C18.541 23.7531 19.492 27.5579 19.492 31.9383C19.4714 40.3703 16.5563 44.36 15.3367 49.1517ZM29.0636 70.8896C29.2703 70.9307 29.4563 71.013 29.6424 71.0543C34.8109 72.3498 41.1369 73.049 43.0387 74.1184C43.473 74.4268 44.0104 75.0027 44.0104 75.0027C44.0104 75.0027 44.5272 74.4474 44.9613 74.1391C46.8839 73.0697 53.1893 72.391 58.3576 71.0748C65.5104 69.2651 73.2214 62.9308 73.2214 53.3268C73.2214 48.535 71.1127 45.3884 69.7277 40.576L29.0636 70.8896ZM10.0649 31.9384C10.0649 41.0695 5.39282 43.1467 5.39282 53.3061C5.39282 67.9284 16.7632 77.4912 27.3272 80.1851C32.661 81.4808 34.2734 81.5631 39.0903 82.7354C39.4829 83.1672 44.0104 88.0001 44.0104 88.0001C44.0104 88.0001 48.5173 83.1467 48.91 82.7354C53.7475 81.5425 55.3393 81.4603 60.673 80.1852C71.2371 77.4912 82.6071 67.9076 82.6071 53.3062C82.6071 43.1467 77.9351 41.0903 77.9351 31.9383C77.9351 28.6274 78.638 25.3781 80.0025 22.252L83 15.5064L75.9505 13.4501C73.8003 12.8125 72.2292 11.1467 71.237 8.51432L68.1358 0.000488281L61.1896 5.73834C59.3497 7.26006 57.4684 8.04172 55.6492 8.04172C53.1891 8.04172 50.3774 6.84886 48.5169 4.99803L44.01 0.597048L39.524 5.01871C37.6427 6.84899 34.8519 8.0624 32.3917 8.0624C30.5519 8.0624 28.6706 7.30155 26.8514 5.75902L19.8639 0.000615872L16.7627 8.49377C15.7912 11.1261 14.1991 12.7921 12.0697 13.4295L5 15.4861L7.99777 22.2315C9.36191 25.3781 10.0649 28.6273 10.0649 31.9386V31.9384ZM12.3802 14.5194C14.9025 13.7789 16.7424 11.887 17.838 8.88441L20.4016 1.91285L26.0865 6.60184C27.9678 8.14398 30.0972 9.15186 32.3713 9.15186C35.4309 9.15186 38.4493 7.63015 40.3306 5.77906L43.9897 2.15949L47.6489 5.77906C49.5302 7.63015 52.5485 9.15186 55.6081 9.15186C57.8821 9.15186 60.0322 8.14411 61.8928 6.60171L67.5778 1.91272L70.1414 8.88429C71.2371 11.8869 73.077 13.7788 75.5993 14.5192L81.3877 16.2261L78.9276 21.7995C77.6872 24.5965 76.7569 28.0514 76.7569 31.9383C76.7569 36.8535 78.018 39.7327 79.2375 42.7558C80.3745 45.5733 81.4497 48.4935 81.4497 53.306C81.4497 66.6736 71.4646 76.2571 60.4044 79.0951C54.9466 80.4728 52.3832 80.6168 48.3107 81.7479C47.773 82.3032 44.0104 86.3546 44.0104 86.3546C44.0104 86.3546 40.2482 82.3035 39.7105 81.7482C35.6377 80.6171 33.0951 80.4731 27.5958 79.1158C19.0786 76.8945 11.1812 70.6838 8.0183 61.8203C7.08792 59.2084 6.57113 56.3498 6.57113 53.3061C6.57113 43.3319 11.2432 41.4397 11.2432 31.9384C11.2432 28.0516 10.3128 24.5967 9.07253 21.7996L6.61246 16.2469L12.3802 14.5194ZM25.2804 69.3883L68.8802 36.8124C68.6527 35.3522 68.5286 33.7276 68.5286 31.8972C68.5286 27.4962 69.5003 23.6916 70.3065 21.2443C68.6525 20.36 66.6679 18.8587 64.9107 16.4525L14.7992 53.8818C15.0471 61.2443 19.8227 66.5914 25.2804 69.3883ZM58.7709 24.3291V36.792L65.4071 31.8357C65.4071 31.8357 65.1797 33.4397 65.4071 36.0928L55.0086 43.8666V30.4372C55.0086 28.5245 53.1893 28.4834 53.1893 28.4834L58.7709 24.3293V24.3291ZM44.155 35.2495V41.4397L48.2898 38.3549V32.1647L51.8661 29.4706V46.2108L48.2895 48.905V42.7766L44.155 45.8614V51.9898L40.3924 54.8072V41.378C40.3924 39.486 38.5733 39.4242 38.5733 39.4242L44.1549 35.2495H44.155ZM28.7328 46.7661L33.4049 53.9024V43.2699L37.0641 40.5348V57.2749L33.1775 60.1748L28.9809 53.82V63.3213L25.3217 66.0566V52.6274C25.3217 50.7147 23.5025 50.6736 23.5025 50.6736L28.7328 46.7661ZM13.7241 34.6736C12.9592 42.2623 9.17609 45.2854 9.17609 53.2853C9.17609 63.0951 15.9361 73.3778 28.2779 76.5039C34.1284 77.9847 38.2012 78.3549 41.178 79.4241C41.5502 79.7739 44.0516 82.4471 44.0516 82.4471C44.0516 82.4471 46.5322 79.7739 46.9251 79.4241C49.9021 78.3547 53.954 77.9845 59.8045 76.5039C72.1464 73.3985 78.9066 63.1157 78.9066 53.306C78.9066 44.4011 74.2345 41.6454 74.2345 31.9176C74.2345 24.3291 77.8937 17.9126 77.8937 17.9126C77.8937 17.9126 68.9423 17.1311 66.5237 6.33426C66.5237 6.33426 61.1485 11.8458 55.7321 11.8458C48.7241 11.8458 44.1138 5.92294 44.1138 5.92294C44.1138 5.92294 39.5037 11.8458 32.4955 11.8458C27.0585 11.8458 21.7041 6.35481 21.7041 6.35481C19.2853 17.1723 10.3339 17.9538 10.3339 17.9538C10.3339 17.9538 13.9931 24.3703 13.9931 31.959C13.8483 32.8843 13.807 33.8305 13.7242 34.6735L13.7241 34.6736ZM13.8482 19.6198C13.8482 19.6198 19.9258 18.4063 22.7581 10.7354C22.7581 10.7354 26.8102 14.4988 32.3507 14.4988C39.3382 14.4988 43.9896 9.62472 43.9896 9.62472C43.9896 9.62472 48.6204 14.4988 55.6079 14.4988C61.1898 14.4988 65.221 10.7354 65.221 10.7354C68.0532 18.4061 74.1312 19.6195 74.1312 19.6195C74.1312 19.6195 71.5056 24.9666 71.5056 31.9178C71.5056 42.2213 76.1778 45.2031 76.1778 53.3061C76.1778 64.6581 67.2884 71.8561 59.0603 73.9537C52.5483 75.599 48.2897 75.784 45.416 77.1618C45.416 77.1618 44.3616 78.1078 43.9688 78.5398C43.5761 78.1078 42.5216 77.1618 42.5216 77.1618C39.6689 75.8045 35.3894 75.5989 28.8773 73.9537C20.6496 71.8764 11.7601 64.6579 11.7601 53.3263C11.7601 45.2236 16.4322 42.2415 16.4322 31.9382C16.4943 24.9666 13.8482 19.6194 13.8482 19.6194V19.6198Z" fill="#111111"/>
</g>
<defs>
<linearGradient id="paint0_linear_208_6695" x1="5.29186" y1="38.5356" x2="14.6722" y2="38.5356" gradientUnits="userSpaceOnUse">
<stop offset="0.11" stop-color="white"/>
<stop offset="0.24" stop-color="#DCDFE1"/>
<stop offset="0.44" stop-color="#A8AFB3"/>
<stop offset="0.54" stop-color="#949CA1"/>
</linearGradient>
<linearGradient id="paint1_linear_208_6695" x1="77.8142" y1="42.8459" x2="77.8142" y2="16.2538" gradientUnits="userSpaceOnUse">
<stop stop-color="white"/>
<stop offset="0.35" stop-color="white"/>
<stop offset="0.56" stop-color="#949CA1"/>
<stop offset="1" stop-color="#949CA1"/>
</linearGradient>
<linearGradient id="paint2_linear_208_6695" x1="8.009" y1="73.284" x2="44.0435" y2="73.284" gradientUnits="userSpaceOnUse">
<stop offset="0.15" stop-color="white"/>
<stop offset="0.21" stop-color="#FAFAFA"/>
<stop offset="0.29" stop-color="#EBECED"/>
<stop offset="0.37" stop-color="#D2D5D7"/>
<stop offset="0.45" stop-color="#AFB5B9"/>
<stop offset="0.51" stop-color="#949CA1"/>
</linearGradient>
<linearGradient id="paint3_linear_208_6695" x1="65.3913" y1="71.4968" x2="23.0127" y2="10.6783" gradientUnits="userSpaceOnUse">
<stop stop-color="#949CA1"/>
<stop offset="0.01" stop-color="#99A1A6"/>
<stop offset="0.12" stop-color="#C2C6C8"/>
<stop offset="0.2" stop-color="#DBDDDE"/>
<stop offset="0.25" stop-color="#E4E5E6"/>
<stop offset="0.75" stop-color="#E4E5E6"/>
<stop offset="0.8" stop-color="#DCDEDF"/>
<stop offset="0.87" stop-color="#C7CACD"/>
<stop offset="0.97" stop-color="#A3AAAE"/>
<stop offset="1" stop-color="#949CA1"/>
</linearGradient>
<linearGradient id="paint4_linear_208_6695" x1="20.4132" y1="6.92718" x2="44.0434" y2="6.92718" gradientUnits="userSpaceOnUse">
<stop offset="0.25" stop-color="white"/>
<stop offset="0.34" stop-color="#FAFAFA"/>
<stop offset="0.45" stop-color="#EBECED"/>
<stop offset="0.57" stop-color="#D2D5D7"/>
<stop offset="0.7" stop-color="#AFB5B9"/>
<stop offset="0.79" stop-color="#949CA1"/>
</linearGradient>
<linearGradient id="paint5_linear_208_6695" x1="44.0228" y1="64.6048" x2="81.4837" y2="64.6048" gradientUnits="userSpaceOnUse">
<stop offset="0.2" stop-color="white"/>
<stop offset="0.33" stop-color="#FAFBFB"/>
<stop offset="0.47" stop-color="#EDEEEF"/>
<stop offset="0.63" stop-color="#D7DADC"/>
<stop offset="0.79" stop-color="#B8BDC1"/>
<stop offset="0.93" stop-color="#949CA1"/>
</linearGradient>
<linearGradient id="paint6_linear_208_6695" x1="44.0227" y1="6.92718" x2="67.6116" y2="6.92718" gradientUnits="userSpaceOnUse">
<stop offset="0.25" stop-color="white"/>
<stop offset="0.34" stop-color="#FAFAFA"/>
<stop offset="0.45" stop-color="#EBECED"/>
<stop offset="0.57" stop-color="#D2D5D7"/>
<stop offset="0.7" stop-color="#AFB5B9"/>
<stop offset="0.79" stop-color="#949CA1"/>
</linearGradient>
<linearGradient id="paint7_linear_208_6695" x1="6.60318" y1="9.98114" x2="21.5917" y2="9.98114" gradientUnits="userSpaceOnUse">
<stop offset="0.39" stop-color="white"/>
<stop offset="0.47" stop-color="#FAFAFA"/>
<stop offset="0.57" stop-color="#EBECED"/>
<stop offset="0.67" stop-color="#D2D5D7"/>
<stop offset="0.79" stop-color="#AFB5B9"/>
<stop offset="0.87" stop-color="#949CA1"/>
</linearGradient>
<clipPath id="clip0_208_6695">
<rect width="78" height="88" fill="white" transform="translate(5)"/>
</clipPath>
</defs>
</svg>
