<svg width="200" height="200" viewBox="0 0 200 200" fill="none" xmlns="http://www.w3.org/2000/svg">
<path d="M121.227 44C67.4115 44 24.5781 73.4747 24.5781 73.4747C24.5781 73.4747 77.3948 69.1961 77.3948 80.1303C77.3948 89.7333 35.5598 105.326 35.5598 105.326C35.5598 105.326 68.5524 106.23 68.5524 114.169C68.5524 127.623 0 145.735 0 145.735C0 145.735 24.0076 156.764 61.5165 156.764C128.738 156.764 200 118.638 200 88.9727C200 61.6373 159.924 44 121.227 44Z" fill="#A4A9AD"/>
<path d="M121.226 46.377C82.3864 46.377 49.0134 62.2077 34.181 70.4796C34.181 70.4796 79.7717 67.2469 79.7717 80.1302C79.7717 88.1645 60.1853 97.815 46.4938 103.567C57.7132 104.661 70.9768 107.371 70.9768 114.169C70.9768 126.719 28.9516 140.125 7.79639 146.068C17.3519 149.253 36.4154 154.34 61.5164 154.34C129.07 154.34 197.623 116.308 197.623 88.9726C197.623 62.6831 157.975 46.377 121.226 46.377Z" fill="#111111"/>
<path d="M48.966 145.545L41.0269 147.636C47.0941 148.218 53.1872 148.488 59.2821 148.445C139.387 148.445 192.536 99.7162 192.536 91.9672C192.533 91.4356 192.453 90.9072 192.299 90.3984C163.917 124.152 107.535 147.446 48.966 145.545Z" fill="#F95602"/>
<path d="M122.225 52.9844C92.2749 52.9844 59.7102 64.5841 59.7102 64.5841C59.7102 64.5841 93.2257 62.9202 93.2257 76.9444C93.2257 90.0179 69.5509 99.6209 69.5509 99.6209C69.5509 99.6209 83.9079 102.949 83.9079 111.268C83.9079 130.141 37.3188 141.884 37.3188 141.884C135.108 146.638 190.968 94.344 190.968 84.6934C190.968 75.6609 163.775 52.9844 122.225 52.9844Z" fill="white"/>
<path d="M122.225 54.9336C103.447 54.9336 83.4798 59.5925 71.4522 62.9678C71.4522 62.9678 95.1746 63.9186 95.1746 76.9445C95.1746 87.4984 81.911 95.6277 74.7325 99.2882C79.4389 101.19 85.8568 104.945 85.8568 111.268C85.8568 125.34 63.4656 135.323 49.2036 140.268C137.913 140.268 189.066 93.1081 189.066 84.6935C189.066 77.0396 162.776 54.9336 122.225 54.9336Z" fill="#B5985A"/>
<path d="M105.824 69.0542C105.824 69.0542 132.018 74.9491 143.761 82.7932L92.6553 96.0093L141.098 94.4405C130.307 102.332 90.9438 121.205 90.9438 121.205C90.9438 121.205 139.339 114.027 169.907 86.0734C142.715 61.638 105.824 69.0542 105.824 69.0542Z" fill="white"/>
<path d="M117.043 70.0036C117.043 70.0036 137.295 75.1854 148.372 83.6L109.96 93.5358L147.278 92.2997C136.82 101.095 106.109 115.879 106.109 115.879C122.272 111.601 147.801 102.711 166.865 86.1196C149.893 71.9052 129.356 69.7183 117.043 70.0036Z" fill="#111111"/>
</svg>
