<svg width="200" height="200" viewBox="0 0 200 200" fill="none" xmlns="http://www.w3.org/2000/svg">
<path d="M185.787 189.3L185.772 179.879L164.119 168.335L160.41 158.088L146.692 140.77L150.447 137.467L153.301 139.139L161.308 131.947L163.841 154.729L172.981 132.368L187.968 158.669L183.88 121.489L166.45 102.274L157.854 109.242L157.227 108.715L156.323 93.7928L116.213 76.5451L112.27 73.2957L129.333 74.9172L110.663 61.0211L111.651 60.0373L109.537 25.3294L89.1811 49.4929L87.4271 49.4837L88.2498 30.8391L70.7684 0L73.37 28.5458L71.0215 32.6106L48.3562 19.8695L65.3204 42.0645L57.5828 55.079L53.1913 92.2707L33.6982 105.389L46.6942 127.133L14.4204 150.331L28.4526 170.358L12.6912 179.784L12.6792 189.441L9 199.67L78.5658 199.712L98.0405 183.026L104.655 183.658L116.402 173.959L115.263 168.244L120.634 163.476L137.4 181.71L137.431 192.513L140.38 199.949L190.876 200L185.787 189.3ZM80.0861 178.007L63.8701 177.967L54.0361 159.423L64.4323 153.121L83.7791 165.403L81.4113 169.698L84.542 174.153L80.0861 178.007ZM117.576 117.438L112.759 108.969L120.265 110.414L117.576 117.438ZM124.519 111.136L135.076 112.822L125.121 117.197L124.519 111.136ZM132.628 133.454L126.407 131.607L137.766 115.672L138.809 128.316L132.628 133.454Z" fill="#EDE1C6"/>
<path d="M83.0348 48.331L83.7917 31.8364L77.0283 19.959L77.8838 28.949L83.0348 48.331Z" fill="#791026"/>
<path d="M80.239 127.326L110.175 127.328L110.197 102.981L110.218 78.2453L97.9634 77.3535L105.208 87.6035L88.4331 83.7347L67.9636 106.234L54.3694 99.635L54.6823 96.6257L39.6699 106.725L42.0792 110.641L75.4822 113.709L80.239 127.326ZM79.882 102.981C81.0315 100.988 82.6852 99.3325 84.6772 98.1809C86.6691 97.0293 88.929 96.4222 91.2298 96.4206C91.6172 96.4206 91.9992 96.4408 92.3783 96.4739C92.4694 96.4721 92.5587 96.4684 92.6507 96.4684V96.4988C95.4628 96.802 98.1016 98.0057 100.174 99.9306C102.246 101.855 103.641 104.398 104.151 107.18C104.66 109.962 104.257 112.835 103.002 115.369C101.747 117.904 99.7058 119.965 97.1839 121.245C94.6619 122.525 91.7937 122.956 89.0068 122.474C86.2199 121.992 83.6633 120.622 81.7182 118.569C79.7731 116.516 78.5434 113.889 78.2125 111.08C77.8816 108.271 78.4672 105.43 79.882 102.981Z" fill="#791026"/>
<path d="M131.327 109.84L136.95 110.803L150.787 96.2335L137.91 90.6953L131.327 109.84Z" fill="#791026"/>
<path d="M117.958 107.537L122.704 84.1557L112.723 79.8594L112.716 106.61L117.958 107.537Z" fill="#791026"/>
<path d="M65.4821 149.972L82.1588 140.334L77.7773 127.789L52.2817 127.817L43.5621 113.177L43.5439 113.176L65.4821 149.972Z" fill="#791026"/>
<path d="M98.6597 145.491L110.133 145.467H110.146L110.151 143.293H110.133H98.6778L98.6597 145.491Z" fill="#791026"/>
<path d="M98.6597 149.842L110.131 149.818H110.146L110.151 147.646H110.132L98.6778 147.645L98.6597 149.842Z" fill="#791026"/>
<path d="M164.984 122.173L165.671 129.238L169.214 129.816L170.997 125.459L171.1 118.378L174.963 126.632L176.861 130.183L180.405 128.816L179.736 123.209L172.535 115.713L164.984 122.173Z" fill="#791026"/>
<path d="M86.6819 72.4788C87.2562 72.4791 87.8178 72.3091 88.2956 71.9903C88.7733 71.6714 89.1457 71.2181 89.3657 70.6875C89.5857 70.1569 89.6434 69.573 89.5315 69.0097C89.4196 68.4463 89.1432 67.9288 88.7371 67.5226C88.331 67.1164 87.8136 66.8398 87.2503 66.7277C86.687 66.6156 86.103 66.6731 85.5724 66.893C85.0418 67.1128 84.5883 67.4851 84.2693 67.9627C83.9503 68.4404 83.7801 69.0019 83.7803 69.5763C83.7807 70.3458 84.0865 71.0837 84.6305 71.6279C85.1746 72.1721 85.9124 72.4781 86.6819 72.4788Z" fill="#791026"/>
<path d="M70.409 180.317L70.4138 180.301L60.8332 180.315L55.8809 195.293L65.5655 195.306L70.409 180.317Z" fill="#791026"/>
<path d="M155.992 159.745L141.996 142.09L122.599 159.082L128.954 166.013L155.992 159.745Z" fill="#035130"/>
<path d="M112.482 129.988L112.464 150.4L130.567 135.265L112.482 129.988Z" fill="#035130"/>
<path d="M51.4434 158.141L63.2955 150.878L50.6873 129.688L20.4521 151.432L26.4484 159.913L51.4434 158.141Z" fill="#035130"/>
<path d="M176.84 130.182L181.51 138.66L180.415 128.826L176.84 130.182Z" fill="#035130"/>
<path d="M165.65 129.227L166.432 136.536L169.229 129.817L169.215 129.815L165.65 129.227Z" fill="#035130"/>
<path d="M81.6968 28.1574L77.0283 19.959L77.8838 28.9601L81.6968 28.1574Z" fill="#035130"/>
<path d="M70.3541 37.6128L63.6411 33.3496L69.0421 39.8174L70.3541 37.6128Z" fill="#035130"/>
<path d="M181.348 189.73V182.538L160.497 171.451L157.079 161.945L130.636 167.957L141.725 179.962V189.744L181.348 189.73Z" fill="#B95B27"/>
<path d="M139.488 111.494L141.07 127.348L152.718 133.732L162.605 124.898L162.005 118.724L153.025 110.936L152.093 98.3398L139.488 111.494Z" fill="#B95B27"/>
<path d="M123.8 130.845L135.063 115.33L123.234 120.439L122.16 112.248L117.768 122.442L112.537 113.249L112.566 127.513L123.8 130.845Z" fill="#B95B27"/>
<path d="M90.4125 168.733L101.447 159.544L82.7652 142.725L66.918 151.894L86.8526 164.585L84.0985 169.421L92.3466 182.047L95.2001 179.503L90.4125 168.733Z" fill="#B95B27"/>
<path d="M106.445 164.121L95.1157 173.195L97.4251 178.516L103.117 179.107L111.539 172.183L110.431 167.139L106.445 164.121Z" fill="#B95B27"/>
<path d="M61.1446 177.987L51.8999 160.451L27.9882 162.183L34.8187 171.712L17.2202 182.208L17.2242 189.847L38.1799 189.831L42.1987 177.942L61.1446 177.987Z" fill="#B95B27"/>
<path d="M77.4366 60.6304L78.9956 66.0683L66.3032 95.3006L67.6164 102.981L87.5697 81.1018L87.5826 81.088L99.6933 83.8442L93.1604 74.6001L108.209 75.7505L98.1859 67.4966L113.936 69.0178L103.922 61.5305L107.103 58.2893L105.821 36.709L91.2472 54.01L84.5973 53.7772L77.4366 60.6304ZM86.6872 64.2167C87.7438 64.2164 88.7769 64.5294 89.6556 65.1161C90.5344 65.7029 91.2194 66.5371 91.624 67.5132C92.0286 68.4894 92.1347 69.5636 91.9287 70.6C91.7228 71.6364 91.2142 72.5884 90.4671 73.3357C89.7201 74.083 88.7682 74.592 87.7319 74.7983C86.6956 75.0045 85.6213 74.8989 84.6451 74.4946C83.6688 74.0903 82.8344 73.4056 82.2473 72.527C81.6602 71.6485 81.3469 70.6155 81.3469 69.5589C81.3474 68.1425 81.9102 66.7844 82.9115 65.7827C83.9128 64.781 85.2708 64.2178 86.6872 64.2167Z" fill="#B95B27"/>
<path d="M131.233 102.98L129.117 109.468L131.393 109.864L133.738 102.98L137.923 90.6647L135.57 89.6523L131.233 102.98Z" fill="#4A3291"/>
<path d="M117.958 107.537L120.234 107.942L125.049 85.1382L122.71 84.125L117.958 107.537Z" fill="#4A3291"/>
<path d="M77.0584 125.732L51.0234 125.706L52.2818 127.818L77.7775 127.789H77.8335L77.1183 125.703H77.1081L77.1183 125.732H77.0584Z" fill="#4A3291"/>
<path d="M109.976 129.673L100.313 129.672L105.114 136.23L109.976 129.673Z" fill="#4A3291"/>
<path d="M83.9084 85.135L83.9147 85.1523L87.5976 81.0902L87.5724 81.087L82.4971 80.3301L83.9084 85.135Z" fill="#4A3291"/>
<path d="M78.166 84.3594L79.4583 90.056L79.4615 90.067L83.8713 85.203L83.8524 85.2007L78.166 84.3594Z" fill="#4A3291"/>
<path d="M72.6193 89.3887L73.7839 96.2144L66.303 95.2998H66.2998L66.3006 95.3061L66.6223 97.1834L67.6228 103.017L79.4214 90.1172L79.4095 90.1156L72.6193 89.3887Z" fill="#4A3291"/>
<path d="M94.6953 116.244C99.869 116.244 102.179 113.795 102.192 108.307C101.976 106.379 101.254 104.542 100.101 102.982C99.1854 101.736 98.0172 100.697 96.6728 99.9337C95.3283 99.1702 93.8379 98.6989 92.2989 98.5508C88.7586 98.6465 86.3972 100.187 85.4033 102.982C85.0309 104.088 84.8504 105.25 84.8695 106.417C84.8719 109.023 85.9079 111.52 87.75 113.363C89.5922 115.205 92.09 116.241 94.6953 116.244Z" fill="#4A3291"/>
<path d="M90.667 129.681L95.4491 136.279L100.313 129.671L90.7759 129.637L90.667 129.681L90.5496 129.627L80.9658 129.67L85.8007 136.257L90.667 129.681Z" fill="#4A3291"/>
<path d="M146.218 173.556L139.111 166.021L136.424 166.635L143.479 174.203L146.218 173.556Z" fill="#4A3291"/>
<path d="M151.55 172.34L144.449 164.811L141.759 165.421L148.814 172.988L151.55 172.34Z" fill="#4A3291"/>
<path d="M156.935 171.112L149.809 163.588L147.159 164.191L154.196 171.759L156.935 171.112Z" fill="#4A3291"/>
<path d="M72.5673 180.244L70.3959 180.258L65.5508 195.333H67.671L72.5673 180.244Z" fill="#4A3291"/>
<path d="M55.8804 195.296L58.368 187.787L50.8335 190.498L55.8804 195.296Z" fill="#4A3291"/>
<path d="M53.2578 183L58.3678 187.787L60.8333 180.314L53.2578 183Z" fill="#4A3291"/>
<path d="M41.2858 170.031L35.2879 161.631L32.5591 161.829L38.4859 170.294L41.2858 170.031Z" fill="#4A3291"/>
<path d="M46.8211 169.619L40.8541 161.229L38.1016 161.427L44.019 169.883L46.8211 169.619Z" fill="#4A3291"/>
<path d="M52.4349 169.208L46.471 160.822L43.7192 161.021L49.6358 169.472L52.4349 169.208Z" fill="#4A3291"/>
<path d="M103.949 45.0527L96.167 54.161L104.455 54.3037L103.949 45.0527Z" fill="#4A3291"/>
<path d="M183.739 189.762L183.727 181.108L162.461 169.77L158.599 159.095L143.881 140.515L150.207 134.954L153.048 136.617L162.9 127.764L164.987 146.521L172.679 127.703L184.855 149.071L181.918 122.37L166.233 105.08L157.822 111.895L155.234 109.711L154.357 95.1732L115.136 78.3084L105.812 70.6223L122.236 72.1858L107.531 61.2393L109.549 59.2377L107.804 30.5575L90.1274 51.5442L85.2887 51.5185L86.1804 31.3352L73.6648 9.25977L75.4667 29.0069L71.781 35.3843L56.0177 26.524L67.7889 41.9238L59.5654 55.7508L55.114 93.4422L36.4501 106.003L49.4167 127.696L17.257 150.812L31.3914 170.985L14.7345 180.945L14.7226 189.8L11.9111 197.626L77.8097 197.666L97.3718 180.907L104.007 181.541L114.159 173.16L113.026 167.493L120.782 160.613L139.44 180.909L139.473 192.117L141.768 197.905L187.639 197.951L183.739 189.762ZM172.536 115.713L179.736 123.21L181.505 138.564L181.457 138.537L174.963 126.633L171.101 118.379L170.999 125.459L166.433 136.538L164.986 122.174L172.536 115.713ZM165.976 108.351L170.968 113.833L165.568 118.518L159.615 113.513L165.976 108.351ZM152.094 98.3399L153.025 110.936L162.006 118.723L162.607 124.898L152.72 133.732L141.072 127.348L139.489 111.493L152.094 98.3399ZM112.723 79.86L150.787 96.2325L136.95 110.801L112.717 106.611L112.723 79.86ZM138.81 128.316L132.628 133.454L126.407 131.608L137.766 115.672L138.81 128.316ZM135.076 112.822L125.122 117.197L124.52 111.136L135.076 112.822ZM120.265 110.414L117.576 117.438L112.76 108.969L120.265 110.414ZM117.769 122.442L122.159 112.248L123.234 120.438L135.062 115.329L123.799 130.844L112.566 127.511L112.536 113.249L117.769 122.442ZM112.483 129.989L130.567 135.266L112.464 150.4L112.483 129.989ZM91.2474 54.0096L105.821 36.7077L107.104 58.2879L103.922 61.5291L113.937 69.0164L98.1863 67.4953L108.209 75.7491L93.1607 74.5988L99.6937 83.8429L87.5829 81.0867L67.6168 102.98L66.299 95.3085L66.2999 95.3057L66.299 95.2993L66.3026 95.3002L78.995 66.0679L77.4361 60.6301L84.5967 53.7777L91.2474 54.0096ZM83.7924 31.8376L83.035 48.3316L77.8842 28.9489L77.0284 19.9588L83.7924 31.8376ZM63.6413 33.3487L70.3537 37.6123L69.0414 39.8173L63.6413 33.3487ZM61.8605 56.5312L76.3492 32.2112L81.9086 53.082L74.4148 59.9242L76.2167 65.9189L63.7342 94.3698L56.9224 98.1227L61.8605 56.5312ZM42.0784 110.639L39.6692 106.724L54.6815 96.6245L54.3686 99.6338L67.9628 106.233L88.4324 83.7334L105.207 87.6022L97.9626 77.3522L110.217 78.244L110.196 102.98L110.175 127.326L80.2383 127.325L75.4814 113.706L42.0784 110.639ZM110.13 152.366L103.319 158.035L84.9998 141.541L80.9745 129.696L80.9625 129.681H80.969L80.9662 129.671L110.14 129.673L110.13 152.366ZM43.5444 113.175V113.146L73.6225 115.893L82.1589 140.333L65.4827 149.971L43.5444 113.175ZM84.5415 174.154L80.0864 178.007L63.8704 177.967L54.0364 159.423L64.4327 153.121L83.7795 165.404L81.4116 169.698L84.5415 174.154ZM26.4486 159.913L20.454 151.432L50.6885 129.688L63.2971 150.878L51.4449 158.141L26.4486 159.913ZM36.4501 195.237L15.4339 195.217L16.53 192.176L37.3593 192.194L36.4501 195.237ZM17.2248 189.847L17.222 182.208L34.8203 171.712L27.9901 162.183L51.9014 160.452L61.1464 177.986L42.1999 177.941L38.1811 189.831L17.2248 189.847ZM76.9686 195.292H38.9256L43.9024 180.319L80.945 180.315L85.7092 176.263L90.6051 183.652L76.9686 195.292ZM92.3472 182.047L84.0988 169.422L86.8532 164.586L66.9183 151.895L82.7653 142.725L101.448 159.545L90.4128 168.734L95.2 179.504L92.3472 182.047ZM103.117 179.107L97.4252 178.517L95.1153 173.196L106.445 164.122L110.43 167.14L111.538 172.184L103.117 179.107ZM111.876 165.308L106.41 161.089L94.0764 170.996L93.3438 169.362L105.317 159.48L140.626 129.805L147.895 133.804L111.876 165.308ZM128.955 166.012L122.599 159.081L141.997 142.09L155.993 159.746L128.955 166.012ZM141.725 189.745V179.963L130.636 167.957L157.079 161.945L160.498 171.45L181.348 182.537V189.729L141.725 189.745ZM141.894 192.132L182.453 192.124L184.081 195.532H143.326L141.894 192.132Z" fill="#010101"/>
<path d="M91.2286 122.64C94.5807 122.638 97.8045 121.351 100.237 119.045C102.67 116.739 104.127 113.589 104.309 110.242C104.491 106.894 103.384 103.605 101.216 101.049C99.0469 98.4924 95.9815 96.864 92.6495 96.4981V96.4678C92.5574 96.4678 92.4682 96.4715 92.3771 96.4733C91.9979 96.4402 91.616 96.4199 91.2286 96.4199C87.754 96.4237 84.4231 97.8067 81.9676 100.265C79.5121 102.723 78.1328 106.056 78.1328 109.53C78.1328 113.005 79.5121 116.337 81.9676 118.795C84.4231 121.253 87.754 122.636 91.2286 122.64ZM85.4014 102.981C86.3953 100.187 88.7577 98.6451 92.297 98.5494C94.5817 98.775 96.7393 99.7066 98.4702 101.215C100.201 102.723 101.419 104.733 101.955 106.965C102.061 107.407 102.14 107.854 102.19 108.305C102.177 113.794 99.8671 116.242 94.6934 116.242C92.088 116.24 89.5901 115.203 87.7478 113.361C85.9054 111.519 84.869 109.021 84.8658 106.416C84.848 105.249 85.0292 104.087 85.4014 102.981ZM82.3554 102.981C82.7947 102.387 83.2919 101.839 83.8398 101.344C83.5889 101.87 83.3857 102.418 83.2324 102.981C82.9323 104.101 82.7849 105.256 82.7943 106.416C82.7974 109.571 84.0521 112.596 86.283 114.828C88.514 117.059 91.539 118.314 94.6943 118.318C95.9986 118.336 97.2979 118.154 98.5465 117.777C96.5088 119.589 93.8718 120.582 91.1449 120.563C88.4179 120.545 85.7946 119.516 83.7815 117.677C81.7685 115.837 80.5086 113.317 80.2452 110.603C79.9818 107.888 80.7336 105.173 82.3554 102.981Z" fill="#010101"/>
<path d="M72.7327 63.5332L65.3165 61.0527L64.2749 63.8092L71.5792 66.1919L72.7327 63.5332Z" fill="#010101"/>
<path d="M74.2711 40.168L66.6719 52.9868H70.9855L74.2711 40.168Z" fill="#010101"/>
<path d="M62.8033 90.4883C62.5938 90.488 62.389 90.5499 62.2147 90.6661C62.0404 90.7823 61.9044 90.9476 61.8241 91.141C61.7438 91.3345 61.7226 91.5474 61.7634 91.7529C61.8041 91.9584 61.9049 92.1472 62.0529 92.2954C62.201 92.4436 62.3897 92.5445 62.5952 92.5854C62.8006 92.6263 63.0136 92.6054 63.2071 92.5252C63.4006 92.4451 63.5661 92.3093 63.6824 92.1351C63.7987 91.9609 63.8608 91.7561 63.8607 91.5466C63.8609 91.4076 63.8337 91.27 63.7807 91.1415C63.7277 91.0131 63.6498 90.8964 63.5516 90.7981C63.4533 90.6997 63.3367 90.6218 63.2083 90.5686C63.0799 90.5155 62.9423 90.4882 62.8033 90.4883Z" fill="#010101"/>
<path d="M63.3012 89.1126C63.5106 89.1119 63.715 89.0491 63.8888 88.9322C64.0625 88.8154 64.1977 88.6496 64.2773 88.456C64.3568 88.2623 64.3772 88.0494 64.3359 87.8441C64.2945 87.6389 64.1933 87.4505 64.0449 87.3028C63.8965 87.155 63.7077 87.0546 63.5022 87.0141C63.2968 86.9736 63.084 86.995 62.8907 87.0754C62.6974 87.1558 62.5322 87.2917 62.4161 87.4659C62.3 87.6402 62.2381 87.8449 62.2383 88.0543C62.2384 88.1936 62.2659 88.3316 62.3194 88.4603C62.3729 88.5889 62.4513 88.7058 62.55 88.8041C62.6488 88.9024 62.766 88.9803 62.8949 89.0332C63.0238 89.0862 63.1618 89.1131 63.3012 89.1126Z" fill="#010101"/>
<path d="M63.8004 85.6175C64.0097 85.6173 64.2143 85.5549 64.3882 85.4385C64.5621 85.322 64.6976 85.1566 64.7775 84.9631C64.8575 84.7696 64.8783 84.5568 64.8373 84.3515C64.7963 84.1463 64.6954 83.9577 64.5473 83.8098C64.3993 83.6618 64.2106 83.5611 64.0053 83.5203C63.8 83.4795 63.5872 83.5005 63.3938 83.5806C63.2004 83.6607 63.0351 83.7963 62.9188 83.9704C62.8025 84.1444 62.7403 84.349 62.7402 84.5583C62.7401 84.6975 62.7674 84.8354 62.8206 84.9641C62.8738 85.0927 62.9519 85.2096 63.0504 85.308C63.1489 85.4064 63.2658 85.4844 63.3945 85.5375C63.5232 85.5907 63.6612 85.6178 63.8004 85.6175Z" fill="#010101"/>
<path d="M59.8332 92.0273C59.6237 92.0275 59.419 92.0898 59.2449 92.2064C59.0708 92.3229 58.9352 92.4885 58.8552 92.6821C58.7752 92.8757 58.7544 93.0887 58.7954 93.2941C58.8365 93.4996 58.9375 93.6882 59.0858 93.8362C59.2341 93.9842 59.4229 94.0849 59.6284 94.1256C59.8339 94.1663 60.0469 94.1452 60.2403 94.0648C60.4338 93.9845 60.5991 93.8486 60.7154 93.6743C60.8316 93.5 60.8936 93.2951 60.8934 93.0856C60.8929 92.8048 60.781 92.5356 60.5822 92.3372C60.3835 92.1387 60.1141 92.0273 59.8332 92.0273Z" fill="#010101"/>
<path d="M60.3346 88.5332C60.1253 88.533 59.9206 88.5949 59.7465 88.711C59.5724 88.8272 59.4366 88.9923 59.3563 89.1857C59.276 89.379 59.2549 89.5917 59.2955 89.7971C59.3362 90.0024 59.4368 90.1911 59.5847 90.3392C59.7326 90.4873 59.9211 90.5883 60.1263 90.6293C60.3316 90.6703 60.5444 90.6495 60.7378 90.5696C60.9313 90.4897 61.0967 90.3542 61.2131 90.1802C61.3296 90.0063 61.3918 89.8018 61.392 89.5924C61.3916 89.312 61.2801 89.0431 61.082 88.8446C60.8838 88.6461 60.6151 88.5341 60.3346 88.5332Z" fill="#010101"/>
<path d="M60.8293 85.0391C60.6197 85.0392 60.4148 85.1014 60.2406 85.2179C60.0664 85.3344 59.9306 85.5 59.8505 85.6937C59.7704 85.8873 59.7495 86.1004 59.7905 86.3059C59.8314 86.5115 59.9325 86.7003 60.0807 86.8484C60.229 86.9965 60.4179 87.0974 60.6234 87.1382C60.829 87.179 61.0421 87.1579 61.2357 87.0776C61.4293 86.9973 61.5947 86.8614 61.7111 86.6871C61.8274 86.5128 61.8895 86.3079 61.8894 86.0983C61.8896 85.9591 61.8623 85.8212 61.8091 85.6925C61.7558 85.5639 61.6777 85.447 61.5792 85.3486C61.4807 85.2502 61.3638 85.1722 61.2351 85.1191C61.1064 85.066 60.9685 85.0388 60.8293 85.0391Z" fill="#010101"/>
<path d="M81.3472 69.557C81.3469 70.614 81.6601 71.6474 82.2473 72.5264C82.8344 73.4054 83.669 74.0905 84.6456 74.4951C85.6222 74.8996 86.6968 75.0055 87.7335 74.7992C88.7702 74.5929 89.7225 74.0838 90.4698 73.3362C91.2171 72.5886 91.7259 71.6362 91.9318 70.5994C92.1378 69.5626 92.0316 68.488 91.6267 67.5116C91.2218 66.5352 90.5364 65.7008 89.6572 65.1139C88.778 64.5271 87.7445 64.2142 86.6875 64.2148C85.2709 64.2152 83.9126 64.7782 82.9111 65.7801C81.9096 66.7819 81.3471 68.1404 81.3472 69.557ZM86.682 66.6729C87.2562 66.6725 87.8177 66.8424 88.2954 67.1612C88.7731 67.48 89.1456 67.9333 89.3656 68.4637C89.5857 68.9942 89.6435 69.578 89.5318 70.1413C89.42 70.7046 89.1437 71.2221 88.7378 71.6284C88.3319 72.0347 87.8147 72.3114 87.2515 72.4237C86.6883 72.536 86.1044 72.4787 85.5738 72.2592C85.0431 72.0396 84.5895 71.6676 84.2702 71.1902C83.951 70.7128 83.7805 70.1515 83.7803 69.5772C83.7803 68.8074 84.086 68.0691 84.63 67.5245C85.1741 66.9799 85.9121 66.6736 86.682 66.6729Z" fill="#010101"/>
</svg>
