<svg width="200" height="200" viewBox="0 0 200 200" fill="none" xmlns="http://www.w3.org/2000/svg">
<g clip-path="url(#clip0_18_2148)">
<path d="M100 200C119.778 200 139.112 194.135 155.557 183.147C172.002 172.159 184.819 156.541 192.388 138.268C199.957 119.996 201.937 99.8891 198.078 80.491C194.22 61.0929 184.696 43.2746 170.711 29.2894C156.725 15.3041 138.907 5.78004 119.509 1.92152C100.111 -1.937 80.0042 0.0433282 61.7316 7.61209C43.459 15.1809 27.8412 27.9981 16.853 44.443C5.8649 60.8879 0 80.2219 0 100C0.00156312 126.521 10.5377 151.956 29.291 170.709C48.0443 189.462 73.4788 199.998 100 200Z" fill="#FCB514"/>
<path d="M99.9997 196.289C119.044 196.289 137.66 190.641 153.495 180.061C169.33 169.481 181.671 154.442 188.959 136.848C196.247 119.253 198.154 99.893 194.438 81.2148C190.723 62.5366 181.552 45.3796 168.086 31.9133C154.62 18.4471 137.463 9.27647 118.785 5.56114C100.107 1.84582 80.7461 3.75266 63.1516 11.0405C45.5571 18.3284 30.5189 30.67 19.9385 46.5046C9.35818 62.3392 3.71094 80.9557 3.71094 99.9998C3.7151 125.536 13.8611 150.025 31.9179 168.082C49.9746 186.138 74.4636 196.284 99.9997 196.289Z" fill="#111111"/>
<path d="M94.5543 181.766C96.3696 181.887 98.1445 181.968 100 181.968C101.815 181.968 103.631 181.887 105.405 181.766V155.425H94.5543V181.766ZM137.314 145.017L153.973 161.677C156.707 159.293 159.268 156.719 161.638 153.972L145.099 137.434L137.314 145.017ZM140.339 99.9991L145.946 105.404H181.767C181.888 103.63 182.009 101.814 182.009 99.9991C182.009 98.1435 181.888 96.3282 181.807 94.5533H145.946L140.339 99.9991ZM60.9118 94.5533H18.1929C18.0719 96.3283 17.9912 98.1435 17.9912 99.9991C17.9912 101.814 18.0719 103.63 18.1929 105.404H60.9117L60.9118 94.5533ZM46.0267 161.677L54.0138 153.65V138.281L38.322 153.972C40.7055 156.719 43.2802 159.294 46.0267 161.677ZM54.0138 46.3081L45.9864 38.321C43.263 40.7015 40.7025 43.262 38.322 45.9854L54.0138 61.6772V46.3081ZM105.405 18.1919C103.631 18.0709 101.815 17.9902 100 17.9902C98.1445 17.9902 96.3696 18.0709 94.5543 18.1919V44.5332H105.405V18.1919ZM161.678 45.9854C159.284 43.2616 156.71 40.7011 153.973 38.321L137.314 54.9809L145.099 62.5646L161.678 45.9854Z" fill="#FCB514"/>
<path d="M65.1066 129.487L58.2085 136.183V151.229H124.889L141.791 134.811V107.22L134.329 99.999L141.791 92.7381V65.1865L124.889 48.7285H58.2085V63.7747L65.1066 70.511V129.487Z" fill="#FCB514"/>
<path d="M145.986 90.0768H181.363C179.583 75.2511 173.764 61.1994 164.542 49.4556L145.986 68.0115V90.0768ZM90.0766 44.5343V18.6367C75.251 20.4169 61.1993 26.2357 49.4554 35.458L58.572 44.5746H90.0766V44.5343ZM145.986 109.883V131.989L164.542 150.504C173.778 138.768 179.598 124.713 181.363 109.883L145.986 109.883ZM134.086 51.8759L150.504 35.458C138.76 26.2357 124.709 20.4169 109.883 18.6367V44.5746H126.583L134.086 51.8759ZM60.9117 74.9094L35.4578 49.4556C26.2342 61.2027 20.4029 75.2509 18.5962 90.0768H60.9117V74.9094ZM60.9117 125.051V109.883H18.5962C20.3936 124.711 26.226 138.762 35.4578 150.504L60.9117 125.051ZM126.583 155.426H109.883V181.364C124.723 179.591 138.79 173.772 150.545 164.542L134.127 148.124L126.583 155.426ZM90.0766 155.426H58.572L49.4554 164.542C61.196 173.77 75.2493 179.59 90.0766 181.364V155.426Z" fill="white"/>
<path d="M61.6787 137.677V147.761H123.518L138.322 133.319V108.713L129.367 99.9997L138.322 91.2861V66.6391L123.477 52.2383H61.6787V62.2827L68.6168 69.019V130.939L61.6787 137.677Z" fill="#111111"/>
<path d="M122.428 86.1646V73.2562L115.651 66.6406H83.3804V92.7802H115.611L122.428 86.1646ZM122.428 126.745V113.797L115.651 107.181H83.3804V133.321H115.611L122.428 126.745Z" fill="#FCB514"/>
<path d="M118.96 115.289L114.24 110.69H86.8901V129.851H114.24L118.96 125.253V115.289ZM118.96 74.708L114.24 70.1094H86.8901V89.3107H114.24L118.96 84.712V74.708Z" fill="#111111"/>
<path d="M114.764 123.478V117.024L112.505 114.886H91.085V125.656H112.505L114.764 123.478ZM114.764 82.9372V76.483L112.505 74.3047H91.085V85.1155H112.505L114.764 82.9372Z" fill="white"/>
</g>
<defs>
<clipPath id="clip0_18_2148">
<rect width="200" height="200" fill="white"/>
</clipPath>
</defs>
</svg>
