<svg width="200" height="200" viewBox="0 0 200 200" fill="none" xmlns="http://www.w3.org/2000/svg">
<g clip-path="url(#clip0_18_2135)">
<path d="M95.3688 0.042614C94.7486 0.0826259 93.6483 0.16265 92.9181 0.212665C92.1879 0.26268 90.8775 0.382715 90.0072 0.472742C89.137 0.562769 87.8466 0.712814 87.1464 0.802841C86.4361 0.892867 85.1458 1.07292 84.2755 1.21296C83.4053 1.353 81.6647 1.6731 80.4144 1.91317C79.154 2.16325 77.0233 2.64339 75.6729 2.98349C74.3325 3.32359 72.8121 3.72371 72.3119 3.86375C71.8118 4.0138 70.5214 4.41392 69.4511 4.75402C68.3708 5.09412 66.8403 5.61427 66.0401 5.90436C65.2398 6.18444 63.8194 6.73461 62.8791 7.10472C61.9488 7.48483 60.4484 8.10502 59.5581 8.50514C58.6679 8.89525 56.8373 9.76551 55.4869 10.4357C54.1365 11.1059 52.276 12.0862 51.3357 12.6064C50.3954 13.1365 49.2951 13.7667 48.885 14.0068C48.4748 14.2468 47.5746 14.807 46.8944 15.2371C46.2042 15.6673 45.0438 16.4275 44.3136 16.9076C43.5834 17.3978 42.7031 17.998 42.363 18.238C42.0229 18.4781 41.1827 19.0983 40.4925 19.5984C39.8023 20.1086 38.5319 21.0889 37.6716 21.7691C36.8014 22.4593 35.3409 23.6797 34.4306 24.4799C33.5104 25.2801 32.41 26.2704 31.9799 26.6706C31.5398 27.0707 30.4995 28.081 29.6592 28.9112C28.829 29.7315 27.5486 31.0519 26.8284 31.8221C26.1082 32.6023 24.9078 33.9427 24.1476 34.813C23.3974 35.6832 22.277 37.0336 21.6668 37.8039C21.0467 38.5841 20.1264 39.7745 19.6262 40.4647C19.1261 41.1549 18.3959 42.1552 18.0058 42.7053C17.6256 43.2555 16.8954 44.3358 16.3853 45.116C15.8851 45.8963 15.1849 46.9766 14.8448 47.5268C14.5047 48.0769 14.0846 48.7671 13.9145 49.0672C13.7345 49.3573 13.1643 50.3676 12.6342 51.3079C12.114 52.2482 11.1337 54.1087 10.4635 55.4591C9.79331 56.8095 8.92305 58.6401 8.53293 59.5303C8.13281 60.4206 7.51263 61.9211 7.13251 62.8513C6.7624 63.7916 6.21224 65.212 5.93215 66.0123C5.64207 66.8125 5.10191 68.423 4.7318 69.5833C4.36169 70.7537 3.87154 72.3742 3.64147 73.1944C3.42141 74.0247 3.03129 75.5351 2.78122 76.5654C2.53114 77.5957 2.15103 79.3162 1.94097 80.3866C1.7309 81.4569 1.46082 82.8973 1.35079 83.5875C1.24076 84.2677 1.07071 85.318 0.990682 85.9082C0.900655 86.5084 0.730604 87.8288 0.620572 88.8591C0.500536 89.8894 0.350491 91.4198 0.290473 92.2701C0.220452 93.1104 0.120423 94.6608 0.0704077 95.7111C0.00038683 96.9515 -0.0196191 98.8421 0.0203928 101.073C0.0403988 102.973 0.100417 105.114 0.150432 105.854C0.200446 106.584 0.320482 108.005 0.410509 109.005C0.500536 110.015 0.690593 111.716 0.830634 112.786C0.960673 113.857 1.19074 115.427 1.33078 116.277C1.47083 117.118 1.76091 118.728 1.99098 119.848C2.21105 120.969 2.62117 122.799 2.90125 123.92C3.18133 125.04 3.59146 126.61 3.82153 127.411C4.05159 128.211 4.48172 129.631 4.78181 130.562C5.0819 131.502 5.62206 133.092 5.98217 134.093C6.35228 135.103 7.04249 136.883 7.52263 138.044C8.01277 139.204 8.66297 140.745 8.99307 141.455C9.31316 142.155 10.0534 143.695 10.6336 144.856C11.2137 146.026 12.104 147.707 12.6041 148.597C13.0943 149.487 13.9445 150.948 14.4947 151.838C15.0349 152.728 15.9051 154.109 16.4253 154.909C16.9454 155.709 17.8257 156.999 18.3759 157.78C18.926 158.55 19.7363 159.65 20.1664 160.23C20.6065 160.801 21.3968 161.811 21.9169 162.471C22.4471 163.131 23.3073 164.182 23.8275 164.792C24.3576 165.412 25.2879 166.482 25.9081 167.162C26.5183 167.853 28.0187 169.403 29.2291 170.613C30.4395 171.824 32.14 173.454 33.0102 174.225C33.8705 175.005 35.1609 176.125 35.8711 176.715C36.5913 177.315 37.6716 178.196 38.2918 178.676C38.912 179.166 40.0823 180.056 40.9126 180.666C41.7328 181.267 43.4333 182.447 44.6837 183.277C45.9441 184.117 47.6246 185.188 48.4248 185.668C49.2251 186.148 50.6655 186.978 51.6258 187.508C52.5861 188.049 54.2866 188.939 55.4069 189.499C56.5272 190.059 58.1877 190.849 59.098 191.25C60.0183 191.65 61.3987 192.24 62.1789 192.56C62.9491 192.88 64.0395 193.31 64.5896 193.52C65.1298 193.72 66.3702 194.16 67.3305 194.501C68.2907 194.831 69.6912 195.291 70.4414 195.521C71.2016 195.751 72.3419 196.091 72.9821 196.271C73.6123 196.451 74.9627 196.811 75.973 197.061C76.9733 197.311 78.4138 197.652 79.164 197.812C79.9242 197.972 81.2646 198.232 82.1549 198.392C83.0451 198.562 84.5656 198.802 85.5259 198.942C86.4862 199.072 87.9366 199.262 88.7668 199.352C89.5871 199.442 90.9275 199.572 91.7577 199.642C92.578 199.712 94.0184 199.812 94.9487 199.872C95.889 199.932 98.1296 199.972 99.9402 199.972C101.741 199.972 104.081 199.932 105.132 199.872C106.182 199.812 107.803 199.692 108.743 199.602C109.683 199.512 110.933 199.382 111.524 199.312C112.124 199.242 113.284 199.092 114.104 198.982C114.925 198.862 116.155 198.682 116.845 198.562C117.525 198.452 118.936 198.182 119.956 197.982C120.986 197.772 122.917 197.331 124.237 196.991C125.568 196.661 127.488 196.131 128.519 195.831C129.549 195.521 130.949 195.091 131.63 194.861C132.32 194.621 133.57 194.18 134.42 193.87C135.261 193.57 136.641 193.03 137.491 192.69C138.332 192.35 139.772 191.74 140.692 191.33C141.603 190.93 143.383 190.089 144.633 189.469C145.894 188.839 147.574 187.969 148.375 187.518C149.175 187.068 150.575 186.258 151.486 185.708C152.406 185.158 153.726 184.338 154.436 183.877C155.147 183.417 156.287 182.657 156.977 182.177C157.657 181.697 158.878 180.816 159.668 180.226C160.468 179.626 161.649 178.726 162.289 178.226C162.929 177.726 163.829 176.985 164.279 176.605C164.739 176.215 165.68 175.405 166.36 174.805C167.05 174.205 168.301 173.034 169.141 172.214C169.991 171.394 171.351 170.033 172.172 169.193C172.992 168.353 174.072 167.192 174.582 166.622C175.093 166.052 175.913 165.102 176.423 164.502C176.923 163.911 177.743 162.901 178.254 162.261C178.754 161.621 179.654 160.44 180.254 159.64C180.844 158.85 181.725 157.63 182.205 156.949C182.685 156.259 183.445 155.119 183.905 154.409C184.365 153.698 185.186 152.378 185.736 151.458C186.286 150.547 187.096 149.147 187.546 148.347C187.996 147.547 188.867 145.866 189.497 144.606C190.117 143.355 190.957 141.575 191.357 140.665C191.768 139.744 192.378 138.304 192.718 137.464C193.058 136.613 193.598 135.233 193.898 134.393C194.208 133.542 194.648 132.292 194.888 131.602C195.119 130.922 195.549 129.521 195.859 128.491C196.159 127.461 196.679 125.54 197.019 124.21C197.359 122.889 197.799 120.959 198.009 119.928C198.209 118.908 198.48 117.498 198.59 116.817C198.71 116.127 198.89 114.897 199.01 114.077C199.12 113.256 199.27 112.096 199.34 111.496C199.41 110.906 199.54 109.655 199.63 108.715C199.72 107.775 199.84 106.154 199.9 105.104C199.96 104.054 200 101.713 200 99.9124C200 98.1018 199.96 95.8612 199.9 94.9209C199.84 93.9906 199.74 92.5502 199.67 91.7299C199.6 90.8997 199.47 89.5593 199.38 88.7391C199.29 87.9088 199.1 86.4584 198.97 85.4981C198.83 84.5378 198.59 83.0173 198.42 82.1271C198.259 81.2368 197.999 79.8964 197.839 79.1362C197.679 78.386 197.339 76.9455 197.089 75.9452C196.839 74.9349 196.479 73.5845 196.299 72.9543C196.119 72.3142 195.779 71.1738 195.549 70.4136C195.319 69.6634 194.858 68.2629 194.528 67.3027C194.188 66.3424 193.748 65.102 193.548 64.5618C193.338 64.0117 192.908 62.9214 192.588 62.1511C192.268 61.3709 191.678 59.9905 191.277 59.0702C190.877 58.1599 190.087 56.4994 189.527 55.3791C188.967 54.2588 188.076 52.5583 187.536 51.598C187.006 50.6377 186.176 49.1973 185.696 48.397C185.216 47.5968 184.145 45.9163 183.305 44.6559C182.475 43.4055 181.294 41.705 180.694 40.8848C180.084 40.0545 179.194 38.8842 178.704 38.264C178.224 37.6438 177.343 36.5635 176.743 35.8433C176.153 35.1331 175.033 33.8427 174.252 32.9824C173.482 32.1122 171.852 30.4117 170.641 29.2013C169.431 27.9909 167.88 26.4905 167.19 25.8803C166.51 25.2601 165.44 24.3299 164.82 23.7997C164.209 23.2795 163.159 22.4193 162.499 21.8891C161.839 21.369 160.828 20.5787 160.258 20.1386C159.678 19.7085 158.578 18.8982 157.807 18.3481C157.027 17.7979 155.737 16.9176 154.937 16.3975C154.136 15.8773 152.756 15.0071 151.866 14.4669C150.975 13.9167 149.515 13.0665 148.625 12.5764C147.734 12.0762 146.054 11.1859 144.884 10.6058C143.723 10.0256 142.183 9.28537 141.483 8.96527C140.772 8.63518 139.232 7.98498 138.072 7.49484C136.911 7.01469 135.131 6.32449 134.12 5.95438C133.12 5.59427 131.53 5.05411 130.589 4.75402C129.659 4.45393 128.239 4.0238 127.438 3.79373C126.638 3.56366 125.068 3.15354 123.947 2.87346C122.827 2.59337 120.996 2.18325 119.876 1.96319C118.756 1.73312 117.145 1.44303 116.305 1.30299C115.455 1.16295 113.884 0.932879 112.814 0.802841C111.744 0.662799 110.043 0.472742 109.033 0.382715C108.033 0.292689 106.612 0.172653 105.882 0.122638C105.142 0.0726229 102.731 0.022608 100.52 0.00260207C98.2997 -0.00740091 95.989 0.0126051 95.3688 0.042614Z" fill="#FFB81C"/>
<path d="M96.5696 5.86491C95.7493 5.89492 94.4089 5.96494 93.5787 6.02495C92.7584 6.07497 91.188 6.21501 90.0876 6.32504C88.9973 6.44508 87.3468 6.64514 86.4366 6.78518C85.5263 6.91522 84.0458 7.16529 83.1556 7.32534C82.2653 7.48539 80.8449 7.76547 79.9946 7.94553C79.1544 8.12558 77.714 8.46568 76.8037 8.69575C75.8834 8.93582 74.2729 9.37595 73.2226 9.68605C72.1723 10.0061 70.5518 10.5163 69.6115 10.8364C68.6713 11.1465 67.3109 11.6366 66.5806 11.9067C65.8504 12.1868 64.54 12.7069 63.6698 13.0671C62.7995 13.4372 61.3791 14.0573 60.5188 14.4575C59.6486 14.8576 58.2782 15.5178 57.4879 15.9179C56.6877 16.318 55.2273 17.0883 54.247 17.6384C53.2567 18.1886 51.8563 18.9988 51.126 19.449C50.3958 19.8891 49.1655 20.6693 48.3852 21.1795C47.605 21.6796 46.3346 22.5399 45.5644 23.09C44.7841 23.6402 43.5138 24.5805 42.7335 25.1707C41.9633 25.7608 40.6529 26.8112 39.8327 27.5014C39.0024 28.1816 37.682 29.3219 36.8818 30.0321C36.0816 30.7423 34.5311 32.2228 33.4308 33.3231C32.3304 34.4134 30.78 36.0439 29.9797 36.9342C29.1795 37.8244 27.9991 39.1948 27.359 39.9651C26.7188 40.7453 25.7085 42.0157 25.1183 42.7959C24.5181 43.5661 23.6078 44.8065 23.0877 45.5367C22.5675 46.2669 21.6873 47.5573 21.1371 48.3976C20.5869 49.2478 19.7167 50.6283 19.2065 51.4785C18.7064 52.3188 17.9261 53.6592 17.486 54.4394C17.0459 55.2296 16.3057 56.65 15.8255 57.6003C15.3554 58.5506 14.6552 60.001 14.2851 60.8213C13.9049 61.6415 13.3048 63.0219 12.9547 63.8922C12.5946 64.7625 12.0644 66.0929 11.7843 66.8431C11.5042 67.5933 10.9941 69.0137 10.664 70.004C10.3239 70.9843 9.84373 72.4748 9.59366 73.325C9.34358 74.1653 8.93346 75.6857 8.68339 76.686C8.43331 77.6963 8.0732 79.2068 7.88315 80.057C7.69309 80.8973 7.41301 82.2977 7.25296 83.1679C7.09291 84.0382 6.85284 85.5286 6.7228 86.4889C6.58276 87.4492 6.3927 88.9497 6.30268 89.8199C6.21265 90.6802 6.06261 92.3507 5.97258 93.511C5.88255 94.6814 5.79252 96.922 5.76252 98.4925C5.7225 100.283 5.74251 102.164 5.80253 103.484C5.85254 104.644 5.95257 106.315 6.02259 107.175C6.09261 108.045 6.22265 109.466 6.31268 110.336C6.40271 111.206 6.59276 112.697 6.7328 113.657C6.87285 114.617 7.13292 116.188 7.31298 117.148C7.49303 118.108 7.83313 119.739 8.0632 120.759C8.29327 121.789 8.70339 123.46 8.97347 124.46C9.24355 125.471 9.69369 127.021 9.97377 127.911C10.2539 128.802 10.734 130.262 11.0441 131.152C11.3542 132.043 11.8843 133.483 12.2244 134.343C12.5745 135.213 13.2047 136.744 13.6449 137.754C14.075 138.755 14.7552 140.255 15.1653 141.075C15.5654 141.895 16.2757 143.306 16.7558 144.196C17.2359 145.086 17.9962 146.467 18.4563 147.267C18.9164 148.067 19.6667 149.318 20.1168 150.048C20.5769 150.778 21.4172 152.068 21.9974 152.919C22.5675 153.759 23.5278 155.109 24.118 155.91C24.7082 156.71 25.7185 158.01 26.3587 158.811C26.9988 159.611 27.9891 160.811 28.5593 161.471C29.1295 162.132 30.1998 163.332 30.94 164.132C31.6802 164.932 33.1807 166.463 34.271 167.533C35.3613 168.603 36.9318 170.054 37.752 170.764C38.5723 171.474 39.8427 172.555 40.5729 173.155C41.3031 173.755 42.5635 174.725 43.3637 175.325C44.154 175.916 45.4343 176.826 46.1846 177.356C46.9348 177.886 48.2252 178.746 49.0454 179.267C49.8757 179.797 51.166 180.587 51.9163 181.037C52.6665 181.477 54.0869 182.287 55.0772 182.828C56.0575 183.358 57.4179 184.078 58.1081 184.428C58.7883 184.768 60.0787 185.378 60.969 185.779C61.8592 186.179 63.2697 186.779 64.0899 187.119C64.9101 187.459 66.4206 188.049 67.4509 188.429C68.4812 188.809 70.0117 189.34 70.8619 189.62C71.7022 189.9 73.0526 190.31 73.8528 190.54C74.653 190.77 76.1435 191.17 77.1738 191.42C78.2041 191.68 79.8446 192.06 80.8249 192.26C81.8152 192.461 83.3957 192.751 84.3559 192.911C85.3162 193.071 86.8367 193.301 87.7269 193.411C88.6172 193.531 90.1277 193.701 91.0879 193.791C92.0482 193.881 93.7587 194.011 94.8891 194.081C96.0194 194.151 98.2101 194.211 99.7505 194.211C101.291 194.211 103.582 194.151 104.842 194.081C106.092 194.021 107.743 193.901 108.493 193.831C109.253 193.761 110.354 193.651 110.944 193.581C111.544 193.511 112.564 193.381 113.235 193.281C113.895 193.191 115.275 192.971 116.305 192.781C117.336 192.601 118.786 192.32 119.546 192.16C120.297 192 121.817 191.65 122.907 191.37C124.008 191.1 125.538 190.69 126.318 190.46C127.089 190.23 128.479 189.8 129.389 189.5C130.3 189.2 131.69 188.719 132.46 188.429C133.241 188.139 134.441 187.689 135.121 187.409C135.811 187.139 136.802 186.729 137.322 186.499C137.852 186.269 138.862 185.809 139.562 185.478C140.273 185.148 141.413 184.598 142.103 184.258C142.783 183.918 143.874 183.348 144.514 183.008C145.154 182.668 146.294 182.027 147.045 181.597C147.795 181.157 149.065 180.397 149.865 179.897C150.666 179.387 151.976 178.536 152.776 178.006C153.577 177.476 155.277 176.246 156.557 175.285C157.838 174.325 159.458 173.055 160.169 172.465C160.879 171.874 161.999 170.904 162.659 170.314C163.329 169.734 165.09 168.033 166.57 166.543C168.061 165.062 169.781 163.262 170.402 162.552C171.012 161.841 171.932 160.781 172.432 160.181C172.932 159.581 173.773 158.53 174.303 157.85C174.833 157.17 175.653 156.09 176.123 155.449C176.583 154.809 177.404 153.629 177.944 152.829C178.484 152.028 179.334 150.728 179.834 149.928C180.335 149.128 181.025 147.987 181.375 147.387C181.715 146.797 182.365 145.637 182.815 144.816C183.255 143.996 184.006 142.556 184.466 141.615C184.926 140.675 185.566 139.335 185.876 138.624C186.186 137.914 186.676 136.774 186.967 136.094C187.247 135.404 187.777 134.083 188.127 133.143C188.477 132.203 189.027 130.672 189.337 129.732C189.647 128.802 190.147 127.191 190.438 126.161C190.738 125.13 191.188 123.45 191.438 122.43C191.698 121.399 192.108 119.529 192.358 118.268C192.608 117.018 192.948 115.087 193.108 113.997C193.268 112.897 193.468 111.306 193.558 110.466C193.659 109.616 193.789 108.255 193.859 107.425C193.929 106.605 194.029 104.984 194.079 103.814C194.139 102.534 194.149 100.543 194.119 98.7926C194.099 97.1921 194.029 95.2115 193.989 94.3813C193.939 93.561 193.829 92.1006 193.729 91.1403C193.639 90.19 193.468 88.6696 193.358 87.7793C193.238 86.8891 193.018 85.3886 192.858 84.4583C192.688 83.5181 192.378 81.8776 192.158 80.7972C191.938 79.7269 191.568 78.0864 191.328 77.1462C191.098 76.2059 190.698 74.7354 190.448 73.8652C190.187 72.9949 189.747 71.5545 189.457 70.6642C189.167 69.774 188.697 68.3935 188.397 67.5933C188.097 66.7931 187.557 65.3926 187.187 64.4724C186.826 63.5621 186.186 62.0817 185.776 61.1914C185.366 60.3011 184.636 58.7707 184.146 57.7904C183.646 56.8101 182.905 55.3797 182.495 54.6294C182.085 53.8792 181.335 52.5688 180.835 51.7186C180.335 50.8783 179.224 49.1378 178.374 47.8574C177.524 46.577 176.283 44.8065 175.623 43.9162C174.953 43.026 173.933 41.6956 173.342 40.9654C172.752 40.2352 171.782 39.0748 171.192 38.3846C170.592 37.7044 169.711 36.7141 169.231 36.1839C168.751 35.6638 167.811 34.6735 167.151 33.9933C166.49 33.3131 165.18 32.0427 164.24 31.1624C163.309 30.2922 161.999 29.1118 161.339 28.5417C160.669 27.9815 159.508 27.0212 158.758 26.421C158.008 25.8209 156.738 24.8406 155.937 24.2504C155.137 23.6602 153.827 22.7199 153.026 22.1798C152.226 21.6396 151.016 20.8394 150.326 20.4092C149.645 19.9891 148.335 19.1989 147.415 18.6587C146.504 18.1186 145.144 17.3483 144.384 16.9482C143.634 16.5481 142.193 15.8179 141.183 15.3277C140.183 14.8476 138.632 14.1274 137.742 13.7272C136.852 13.3371 135.391 12.737 134.501 12.3869C133.611 12.0267 132.06 11.4566 131.05 11.0965C130.05 10.7464 128.479 10.2262 127.559 9.94612C126.649 9.66604 125.138 9.23591 124.198 8.98584C123.258 8.74577 121.667 8.35565 120.667 8.12558C119.656 7.89551 118.126 7.56541 117.256 7.40537C116.395 7.24532 114.935 7.00525 114.025 6.8652C113.105 6.72516 111.534 6.5151 110.534 6.40507C109.523 6.29503 107.973 6.14499 107.083 6.07497C106.192 6.00495 104.492 5.90492 103.302 5.86491C102.111 5.81489 100.451 5.78488 99.6005 5.79489C98.7602 5.79489 97.3998 5.8349 96.5696 5.86491Z" fill="#003087"/>
<path d="M108.563 15.0958C108.573 15.1359 108.663 15.2159 108.763 15.2759C108.863 15.3359 109.433 15.596 110.033 15.8461C110.623 16.1061 111.784 16.5763 112.604 16.8964C113.434 17.2165 114.705 17.7066 115.435 17.9767C116.165 18.2568 117.696 18.817 118.836 19.2371C119.976 19.6572 122.397 20.5175 124.198 21.1577C125.998 21.7978 129.649 23.0482 132.3 23.9385C134.951 24.8287 138.332 25.9291 139.812 26.3892C141.303 26.8493 143.263 27.4195 144.173 27.6696C145.094 27.9197 146.284 28.2298 146.834 28.3398C147.384 28.4598 148.135 28.5599 148.515 28.5699C148.885 28.5799 149.225 28.5499 149.255 28.5198C149.295 28.4798 149.255 28.3498 149.155 28.2298C149.055 28.0997 148.565 27.7896 147.995 27.4995C147.444 27.2295 146.234 26.6993 145.304 26.3292C144.364 25.9491 142.683 25.3189 141.563 24.9288C140.442 24.5287 138.082 23.7184 136.331 23.1382C134.571 22.5481 131.58 21.5878 129.679 20.9876C127.789 20.3974 124.908 19.5172 123.287 19.027C121.657 18.5469 119.246 17.8367 117.926 17.4465C116.595 17.0664 114.615 16.5163 113.524 16.2162C112.424 15.9161 111.044 15.556 110.443 15.4059C109.853 15.2659 109.183 15.1159 108.953 15.0858C108.733 15.0558 108.553 15.0558 108.563 15.0958ZM83.0753 16.0361C82.5051 16.1061 81.6549 16.2162 81.2047 16.2862C80.7446 16.3562 79.7743 16.5463 79.0441 16.7163C78.3139 16.8764 77.1935 17.1765 76.5533 17.3865C75.9131 17.5866 74.9228 17.9467 74.3527 18.1668C73.7725 18.3868 72.6522 18.897 71.8519 19.3071C71.0517 19.7072 69.8313 20.3874 69.1311 20.8176C68.4309 21.2477 67.3006 22.0179 66.6304 22.5181C65.9602 23.0182 64.8999 23.8685 64.2897 24.3986C63.6795 24.9288 62.4991 26.0491 61.6789 26.8894C60.8487 27.7296 59.8584 28.7899 59.4682 29.2501C59.0781 29.7002 58.4179 30.5104 58.0078 31.0306C57.5977 31.5608 56.9275 32.461 56.5274 33.0312C56.1172 33.6014 55.5971 34.3316 55.357 34.6517C55.127 34.9718 54.8069 35.3519 54.6468 35.5019C54.4968 35.652 54.1767 35.872 53.9566 35.9721C53.7165 36.0921 52.6862 36.3622 51.5859 36.5923C50.5056 36.8223 48.9351 37.2024 48.0949 37.4225C47.2446 37.6526 46.0542 38.0127 45.4341 38.2227C44.8239 38.4328 43.7936 38.8529 43.1534 39.143C42.5132 39.4331 41.5929 39.9032 41.1128 40.1733C40.6326 40.4534 39.9024 40.9235 39.4923 41.2336C39.0822 41.5437 38.392 42.1439 37.9518 42.584C37.5217 43.0142 36.9215 43.7044 36.6214 44.1145C36.3313 44.5346 35.8812 45.2748 35.6311 45.785C35.3711 46.2851 35.031 47.1254 34.8609 47.6455C34.6909 48.1757 34.4808 48.9759 34.3908 49.4361C34.3007 49.8962 34.1807 50.7165 34.1307 51.2666C34.0707 51.9068 34.0507 52.8871 34.0807 54.0074C34.1107 54.9877 34.2007 56.3181 34.3007 57.0584C34.3908 57.7786 34.5608 58.8089 34.6709 59.339C34.7909 59.8792 34.9809 60.6394 35.091 61.0295C35.211 61.4097 35.4311 61.9898 35.5811 62.3099C35.7312 62.63 36.0313 63.1202 36.2313 63.3902C36.4414 63.6703 36.8515 64.1105 37.1416 64.3805C37.4317 64.6506 37.9518 65.0807 38.2919 65.3408C38.632 65.6009 39.4023 66.1411 39.9924 66.5412C40.5926 66.9513 41.2428 67.4114 41.4429 67.5815C41.753 67.8316 41.913 68.0916 42.4432 69.212C42.7933 69.9422 43.3434 70.9325 43.6635 71.4126C43.9936 71.9028 44.6438 72.693 45.154 73.2332C45.6541 73.7433 46.3243 74.3635 46.6444 74.6036C46.9645 74.8437 47.6147 75.2738 48.0949 75.5739C48.575 75.864 49.2052 76.3341 49.4953 76.6042C49.7854 76.8743 50.3655 77.5345 50.7757 78.0546C51.1858 78.5848 51.6759 79.1749 51.866 79.375C52.056 79.5751 52.3661 79.8451 52.5562 79.9752C52.7562 80.1052 53.1464 80.2753 53.4364 80.3553C53.7766 80.4353 54.0766 80.4653 54.3267 80.4253C54.5268 80.3953 54.9069 80.2753 55.157 80.1652C55.5271 79.9952 55.8972 79.6751 57.1876 78.3547C58.688 76.8343 58.8081 76.7242 59.4783 76.4141C59.8684 76.2241 60.4685 76.014 60.8287 75.944C61.1788 75.874 61.6889 75.8139 61.949 75.8139C62.2091 75.8139 62.5092 75.834 62.6092 75.854C62.7892 75.894 62.7692 75.934 62.3291 76.4141C62.069 76.7042 61.6589 77.1744 61.4288 77.4744C61.1888 77.7745 60.8086 78.3147 60.5886 78.6848C60.3585 79.0449 60.1284 79.535 60.0684 79.7651C59.9784 80.0752 59.9784 80.2253 60.0484 80.3653C60.1184 80.5053 60.2185 80.5453 60.4285 80.5453C60.5886 80.5453 61.1387 80.4553 61.6589 80.3353C62.2491 80.1952 62.8593 80.1052 63.2994 80.1052C63.6895 80.0952 64.5498 80.1852 65.21 80.2853C65.8802 80.3953 66.8004 80.4853 67.2906 80.4853C67.7707 80.4953 68.3809 80.4453 68.661 80.3953C68.9311 80.3353 69.4012 80.2152 69.6913 80.1152C69.9914 80.0252 70.5515 79.7851 70.9417 79.5951C71.3318 79.395 71.922 79.0449 72.2521 78.8148C72.5822 78.5848 73.1223 78.1346 73.4424 77.8245C73.9426 77.3544 74.0126 77.2644 73.8825 77.2144C73.7925 77.1844 73.4824 77.1243 73.1823 77.0643C72.8722 77.0143 72.3121 76.8042 71.8519 76.5842C71.2117 76.2641 70.9417 76.074 70.3915 75.5239C69.8713 75.0037 69.6513 74.7136 69.3812 74.1535C69.1911 73.7633 68.9711 73.2232 68.9011 72.9531C68.831 72.673 68.771 72.1529 68.771 71.7827C68.771 71.4226 68.811 70.9325 68.861 70.7024C68.9211 70.4724 69.0611 70.0822 69.1811 69.8322C69.3012 69.5821 69.6313 69.152 69.9014 68.8719C70.2715 68.4918 70.5315 68.3217 70.9017 68.1817C71.1717 68.0816 71.6219 67.9716 71.902 67.9516C72.172 67.9216 72.6022 67.9416 72.8522 67.9916C73.1023 68.0416 73.5324 68.2017 73.8125 68.3317C74.0826 68.4718 74.5227 68.7618 74.7828 68.9819C75.0429 69.192 75.423 69.6021 75.6431 69.8722C75.8531 70.1523 76.1932 70.7124 76.3933 71.1225C76.5933 71.5327 76.8534 72.2429 76.9735 72.703C77.1635 73.4132 77.1935 73.7133 77.2035 74.8136C77.2135 75.7839 77.1735 76.2841 77.0635 76.8142C76.9735 77.2044 76.8134 77.8145 76.7034 78.1847C76.5834 78.5448 76.3233 79.205 76.1232 79.6351C75.9131 80.0752 75.553 80.7254 75.303 81.0855C75.0629 81.4556 74.5627 82.0958 74.2026 82.5059L73.5324 83.2462C73.7825 83.7963 74.0126 84.1164 74.2026 84.3165C74.3927 84.5065 74.7628 84.7866 75.0129 84.9267C75.263 85.0767 75.7731 85.2768 76.1332 85.3668C76.5033 85.4568 77.2635 85.5969 77.8337 85.6569C78.4039 85.7269 79.1741 85.8269 79.5442 85.8769C79.9043 85.917 80.4845 86.037 80.8246 86.117C81.1747 86.207 81.7349 86.3871 82.075 86.5371C82.4151 86.6772 82.9452 86.9273 83.2353 87.0873C83.5354 87.2574 84.0556 87.5774 84.4057 87.8075C84.7458 88.0376 85.2659 88.4077 85.566 88.6278L86.1062 89.0479C87.7767 88.7678 88.5969 88.6578 89.0171 88.6078C89.4272 88.5677 90.3274 88.5277 91.0277 88.5277H92.298C92.298 88.1676 92.238 87.7375 92.168 87.3174C92.098 86.9072 91.9079 86.197 91.7579 85.7469C91.6078 85.2868 91.3477 84.6266 91.1677 84.2865C90.9976 83.9464 90.6675 83.3662 90.4275 82.9961C90.1874 82.636 89.7473 82.0458 89.4372 81.6957C89.1371 81.3356 88.797 80.9955 88.677 80.9255C88.4869 80.8154 88.4269 80.8154 88.0168 80.9655C87.7667 81.0555 87.2665 81.2756 86.9164 81.4556C86.5563 81.6357 86.1562 81.8657 86.0162 81.9558C85.8861 82.0558 85.7061 82.1258 85.626 82.1258C85.546 82.1258 85.2159 81.9558 84.8958 81.7357C84.5857 81.5156 84.1656 81.1555 83.9756 80.9255C83.7855 80.6954 83.5254 80.2853 83.3954 80.0052C83.2653 79.7351 83.1153 79.265 83.0653 78.9749C82.9853 78.5348 82.9853 78.3247 83.0753 77.8946C83.1353 77.5945 83.2954 77.1243 83.4254 76.8543C83.5654 76.5742 83.7855 76.1841 83.9255 75.984C84.0656 75.7739 84.4257 75.3538 84.7258 75.0337C85.0259 74.7236 85.456 74.3235 85.6861 74.1535C85.9161 73.9834 86.2862 73.7533 86.4963 73.6233L86.8964 73.4032C86.6063 72.9931 86.2962 72.653 86.0162 72.3829C85.7461 72.1128 85.1859 71.6327 84.7758 71.3326C84.3657 71.0225 83.7655 70.6024 83.4454 70.4023C83.1253 70.1923 82.5751 69.8722 82.225 69.6821C81.8649 69.4921 81.5848 69.312 81.5948 69.292C81.6048 69.262 81.995 69.282 82.4451 69.332C82.9052 69.372 83.7655 69.5121 84.3557 69.6221C84.9558 69.7421 85.8361 69.9522 86.3162 70.0922C86.7964 70.2323 87.6366 70.5324 88.1768 70.7524C88.727 70.9825 89.5672 71.3926 90.0474 71.6627C90.5275 71.9328 91.2177 72.3829 91.5878 72.663C91.9579 72.9331 92.5981 73.5033 93.0283 73.9234C93.4484 74.3435 94.0285 75.0137 94.2986 75.4038C94.5787 75.7839 94.9788 76.4841 95.1989 76.9343C95.419 77.3944 95.679 78.0446 95.7891 78.3947C95.8891 78.7348 96.0191 79.315 96.0892 79.6751C96.1492 80.0452 96.1992 80.8654 96.1992 81.5056C96.1992 82.1458 96.1592 83.0461 96.1192 83.4962C96.0692 83.9564 95.9491 84.7566 95.8591 85.2868C95.7691 85.8069 95.579 86.6872 95.439 87.2374L95.1789 88.2376C95.489 88.7978 95.7791 89.1579 96.0291 89.398C96.2792 89.6381 96.7093 89.9382 96.9894 90.0682C97.4296 90.2682 97.6096 90.2983 98.5199 90.3283C99.3801 90.3583 99.7803 90.3283 100.771 90.1482C101.431 90.0382 102.271 89.8781 102.641 89.8081C103.011 89.7381 104.002 89.6581 104.882 89.6381C106.132 89.5981 106.662 89.6181 107.413 89.7281C107.943 89.8081 108.853 89.9982 109.453 90.1482L110.533 90.4283C111.564 89.9182 112.274 89.6281 112.774 89.448C113.274 89.268 114.155 89.0279 114.725 88.9078C115.295 88.7878 115.875 88.6878 116.015 88.6778C116.225 88.6578 116.255 88.6178 116.235 88.4477C116.225 88.3277 116.135 87.9876 116.035 87.6975C115.945 87.3974 115.695 86.8172 115.485 86.4071C115.275 85.997 114.855 85.3468 114.555 84.9567C114.245 84.5666 113.744 83.9964 113.424 83.6963C113.114 83.3962 112.534 82.9161 112.154 82.626C111.764 82.3459 111.334 82.0558 111.194 81.9858C110.964 81.8757 110.904 81.8857 110.403 82.0858C110.113 82.2058 109.623 82.4659 109.323 82.666C109.033 82.866 108.583 83.2462 108.333 83.5162C108.003 83.8763 107.763 84.0564 107.473 84.1464C107.262 84.2265 106.752 84.3465 106.352 84.4165C105.952 84.4865 105.352 84.5365 105.002 84.5365C104.662 84.5365 104.142 84.4965 103.841 84.4465C103.541 84.4065 103.241 84.3465 103.161 84.3265C103.081 84.3065 103.011 84.2365 103.011 84.1664C103.011 84.0964 103.121 83.7463 103.271 83.3962C103.411 83.0461 103.651 82.5259 103.821 82.2559C103.982 81.9758 104.282 81.5456 104.482 81.2956C104.682 81.0455 105.132 80.5854 105.492 80.2853C105.842 79.9752 106.432 79.5251 106.802 79.285C107.182 79.0449 107.493 78.8148 107.493 78.7848C107.493 78.7548 107.373 78.6848 107.232 78.6448C107.082 78.5948 106.672 78.3747 106.332 78.1546C105.992 77.9346 105.462 77.4744 105.152 77.1343C104.842 76.7942 104.582 76.4841 104.582 76.4341C104.592 76.3841 105.212 76.3641 106.332 76.3741C107.293 76.3841 108.133 76.3641 108.203 76.3341C108.293 76.2841 108.203 76.094 107.783 75.4438C107.483 74.9837 106.942 74.0134 106.582 73.2832C106.222 72.553 105.802 71.5927 105.642 71.1626C105.482 70.7324 105.252 70.0322 105.132 69.6221C105.012 69.212 104.852 68.5118 104.772 68.0716C104.692 67.6315 104.652 67.2514 104.672 67.2214C104.692 67.1914 105.142 67.0413 105.672 66.8913C106.192 66.7312 107.042 66.5512 107.563 66.4712C108.073 66.4011 109.023 66.3411 109.683 66.3411C110.333 66.3411 111.204 66.4011 111.614 66.4612C112.024 66.5212 112.654 66.6512 113.024 66.7412C113.384 66.8413 114.135 67.0813 114.685 67.2814C115.235 67.4815 115.965 67.7816 116.305 67.9416C116.645 68.1016 117.676 68.5818 118.586 69.0219C119.506 69.4621 120.626 69.9522 121.077 70.1022C121.537 70.2623 122.207 70.4423 122.577 70.4924C122.987 70.5624 123.467 70.5724 123.827 70.5424C124.148 70.5124 124.668 70.4323 124.988 70.3623C125.308 70.2923 126.388 70.0022 127.398 69.7121C128.399 69.412 129.639 69.0819 130.139 68.9719C130.639 68.8619 131.35 68.7218 131.72 68.6618C132.08 68.6018 132.87 68.5618 133.46 68.5618C134.151 68.5618 134.781 68.6218 135.201 68.7118C135.571 68.7819 136.211 68.9619 136.621 69.0919C137.031 69.222 137.782 69.5121 138.282 69.7321C138.782 69.9522 139.602 70.3723 140.102 70.6624C140.612 70.9525 141.393 71.4326 141.853 71.7427C142.313 72.0528 143.073 72.603 143.553 72.9831C144.033 73.3532 144.704 73.9134 145.054 74.2235L145.674 74.7936C149.025 74.8737 150.215 74.9337 150.495 74.9737C150.765 75.0137 151.186 75.0837 151.426 75.1237L151.866 75.1938C151.866 74.8337 151.756 74.3135 151.626 73.8033C151.486 73.2832 151.226 72.473 151.036 71.9928C150.845 71.5127 150.515 70.8025 150.305 70.4123C150.105 70.0222 149.735 69.432 149.505 69.0919C149.275 68.7518 148.785 68.1617 148.415 67.7715C148.045 67.3914 147.695 67.0613 147.625 67.0413C147.555 67.0213 147.164 67.1013 146.754 67.2214C146.344 67.3314 145.684 67.5815 145.304 67.7615C144.914 67.9416 144.564 68.0616 144.524 68.0316C144.494 67.9916 144.444 67.7215 144.414 67.4214C144.384 67.0213 144.404 66.7612 144.524 66.4212L144.674 65.951C143.003 65.1008 141.973 64.5006 141.313 64.0704L140.102 63.2802C139.202 63.3902 138.102 63.4703 137.071 63.5203C135.601 63.6003 134.741 63.6003 133 63.5203C131.79 63.4703 130.729 63.3902 130.639 63.3602C130.539 63.3202 130.509 63.2802 130.549 63.2502C130.599 63.2302 131.16 63.0401 131.8 62.8301C132.44 62.62 133.58 62.2999 134.331 62.1199C135.091 61.9398 136.151 61.6897 136.701 61.5797C137.251 61.4597 138.312 61.2796 139.072 61.1596C139.822 61.0395 140.923 60.8895 141.523 60.8095C142.153 60.7295 143.573 60.6594 144.964 60.6294C146.534 60.5994 147.615 60.6194 148.165 60.6894C148.885 60.7695 149.085 60.8295 149.615 61.1296C149.965 61.3096 150.575 61.6897 150.996 61.9698C151.406 62.2399 152.016 62.68 152.366 62.9401C152.706 63.2002 153.356 63.7403 153.806 64.1505C154.267 64.5606 154.967 65.2608 155.377 65.7209C155.787 66.1811 156.347 66.8513 156.627 67.2114C156.897 67.5815 157.127 67.8816 157.127 67.8916C157.137 67.8916 157.758 67.9616 158.508 68.0416C159.268 68.1116 160.518 68.3017 161.289 68.4618C162.069 68.6218 162.989 68.8319 163.349 68.9419C163.829 69.0819 163.999 69.1019 164.029 69.0219C164.059 68.9619 164.079 68.4417 164.079 67.8616C164.069 67.2814 164.019 66.4111 163.949 65.931C163.879 65.4509 163.719 64.6406 163.579 64.1405C163.449 63.6403 163.209 62.9101 163.039 62.52C162.879 62.1299 162.599 61.5697 162.419 61.2796C162.239 60.9795 161.989 60.6094 161.859 60.4594L161.629 60.1793C160.148 60.3793 159.438 60.5394 159.088 60.6494C158.748 60.7595 158.448 60.8395 158.428 60.8095C158.408 60.7795 158.388 60.4594 158.388 60.0793C158.398 59.5691 158.438 59.309 158.578 59.0089L158.758 58.6188C158.088 58.3287 157.517 58.0687 157.057 57.8386C156.597 57.6185 155.967 57.2684 155.647 57.0584C155.327 56.8583 154.747 56.4382 154.357 56.1381C153.966 55.838 153.296 55.2378 152.856 54.8177L152.066 54.0375C151.106 54.1975 150.315 54.2475 149.705 54.2475C148.945 54.2375 148.405 54.1975 148.025 54.0975C147.715 54.0275 147.284 53.8774 147.064 53.7674C146.844 53.6573 146.544 53.4573 146.384 53.3272C146.234 53.1972 146.034 52.9471 145.944 52.7571C145.834 52.537 145.784 52.2569 145.784 51.9268C145.784 51.6567 145.894 50.9465 146.034 50.3464C146.174 49.7562 146.344 48.9159 146.414 48.4758C146.494 48.0457 146.574 47.1654 146.594 46.5252C146.624 45.845 146.604 44.9147 146.554 44.2845C146.494 43.6944 146.374 42.7541 146.284 42.2039C146.194 41.6638 145.974 40.6335 145.794 39.9232C145.614 39.213 145.464 38.6029 145.464 38.5728C145.464 38.5428 145.604 38.5328 145.774 38.5628C145.944 38.5828 146.554 38.6829 147.124 38.7729C147.695 38.8729 148.745 39.093 149.455 39.2631C150.165 39.4431 151.176 39.7332 151.696 39.9132C152.226 40.0933 152.856 40.3134 153.106 40.4134C153.356 40.5134 153.936 40.7735 154.397 40.9836C154.857 41.1936 155.507 41.5337 155.847 41.7338C156.197 41.9438 156.677 42.2639 156.917 42.454C157.157 42.6341 157.467 42.9541 157.597 43.1642C157.738 43.3643 157.848 43.6344 157.848 43.7444C157.848 43.8544 157.778 44.0645 157.698 44.2045C157.608 44.3346 157.257 44.7147 156.897 45.0348C156.487 45.4049 156.187 45.765 156.057 46.0251C155.937 46.2551 155.847 46.5252 155.847 46.6352C155.847 46.7353 155.907 46.9253 155.967 47.0454C156.027 47.1754 156.237 47.4155 156.427 47.5855C156.607 47.7556 156.977 48.0057 157.247 48.1357C157.507 48.2657 158.088 48.4958 158.528 48.6358C158.978 48.7759 159.758 48.9659 160.278 49.066C160.788 49.156 161.749 49.266 162.419 49.306C163.139 49.3561 164.029 49.3561 164.66 49.316C165.23 49.276 166 49.176 166.36 49.096C166.73 49.026 167.27 48.8759 167.56 48.7559C167.861 48.6458 168.261 48.4658 168.461 48.3558C168.651 48.2357 168.801 48.1357 168.791 48.1057C168.781 48.0857 168.361 48.0157 167.861 47.9456C167.35 47.8856 166.49 47.7256 165.95 47.6055C165.4 47.4955 164.61 47.2754 164.199 47.1354C163.789 46.9954 163.239 46.7753 162.979 46.6452C162.709 46.5152 162.409 46.3152 162.289 46.1951C162.159 46.0651 162.079 45.895 162.079 45.715C162.079 45.5549 162.159 45.3449 162.269 45.2048C162.369 45.0748 162.789 44.7447 163.199 44.4646C163.619 44.1945 164.059 43.8744 164.189 43.7544C164.319 43.6344 164.48 43.4343 164.54 43.3043C164.61 43.1842 164.66 42.9642 164.66 42.8341C164.66 42.6941 164.62 42.484 164.57 42.354C164.52 42.2239 164.38 42.0139 164.259 41.8838C164.139 41.7538 163.809 41.4937 163.539 41.3137C163.259 41.1236 162.629 40.7735 162.119 40.5434C161.619 40.3034 160.818 39.9533 160.338 39.7632C159.858 39.5631 159.168 39.3031 158.798 39.163C158.438 39.023 155.467 37.9827 152.196 36.8423C148.925 35.692 145.994 34.6717 145.674 34.5516C145.354 34.4416 143.573 33.8114 141.723 33.1512C139.872 32.501 136.791 31.3907 134.871 30.7005C132.95 30.0103 129.629 28.8099 127.479 28.0297C125.328 27.2495 123.017 26.4192 122.327 26.1691C121.647 25.9291 119.266 25.0888 117.055 24.2986C114.835 23.5184 111.214 22.238 108.993 21.4677C106.772 20.6975 103.771 19.6672 102.301 19.1871C100.841 18.7069 98.82 18.0767 97.8197 17.7766C96.8094 17.4866 95.429 17.1164 94.7488 16.9464C94.0586 16.7864 93.0082 16.5563 92.4181 16.4462C91.8279 16.3362 90.8676 16.1862 90.2974 16.1162C89.6172 16.0261 88.3869 15.9761 86.6864 15.9561C84.8358 15.9261 83.8155 15.9561 83.0753 16.0361Z" fill="white"/>
<path d="M44.5638 42.5841C44.1536 42.6641 43.4834 42.8542 43.0633 43.0042C42.6532 43.1443 42.093 43.3643 41.8229 43.5044C41.5429 43.6344 40.9727 43.9645 40.5326 44.2446C40.0524 44.5647 39.4122 45.0849 38.8921 45.605C38.4319 46.0651 38.0618 46.4753 38.0818 46.5053C38.1118 46.5453 38.2119 46.5353 38.3119 46.4953C38.4119 46.4553 38.9821 46.3152 39.5823 46.1952C40.4925 45.9951 40.8627 45.9651 42.033 45.9551C43.1233 45.9551 43.5134 45.9851 43.9436 46.1052C44.2337 46.1852 44.6238 46.3252 44.7938 46.4153C44.9639 46.4953 45.254 46.7053 45.444 46.8854C45.6341 47.0554 45.8641 47.3455 45.9542 47.5256C46.0442 47.7056 46.1442 48.0657 46.1642 48.3158C46.1942 48.5759 46.1642 48.946 46.1042 49.1861C46.0442 49.4161 45.8141 50.0063 45.5941 50.4965C45.364 50.9966 45.1439 51.6368 45.0939 51.9469C45.0139 52.427 45.0139 52.5871 45.1339 52.9872C45.224 53.3173 45.374 53.5674 45.5841 53.7774C45.7541 53.9575 46.1142 54.1876 46.3943 54.2976C46.8044 54.4677 47.0245 54.4977 47.6747 54.4877C48.1148 54.4877 48.715 54.4176 49.0051 54.3376C49.3052 54.2676 49.8053 54.0775 50.1254 53.9275C50.4455 53.7674 50.9557 53.4574 51.2558 53.2273C51.5458 53.0072 51.966 52.5971 52.166 52.327C52.3761 52.0669 52.6462 51.6768 52.7662 51.4768C52.8862 51.2667 53.1063 50.7465 53.2564 50.3064C53.5064 49.5662 53.5264 49.4462 53.5264 48.3958C53.5164 47.4155 53.4964 47.1955 53.3064 46.6153C53.1863 46.2452 52.9463 45.725 52.7862 45.445C52.6162 45.1749 52.3461 44.7848 52.176 44.5847C52.016 44.3746 51.6659 44.0445 51.4158 43.8445C51.1657 43.6544 50.6656 43.3443 50.2955 43.1643C49.9354 42.9842 49.3352 42.7542 48.9651 42.6541C48.4149 42.5041 48.0348 42.4641 46.8044 42.4441C45.5741 42.4241 45.1839 42.4441 44.5638 42.5841Z" fill="#003087"/>
<path d="M177.204 60.0516C176.223 61.2019 174.403 63.2425 173.172 64.5929C171.942 65.9433 169.731 68.304 168.261 69.8345C166.8 71.3649 164.13 74.0757 162.329 75.8563C160.519 77.6268 157.688 80.3776 156.017 81.9581C154.347 83.5386 151.726 85.9693 150.195 87.3697C148.665 88.7601 146.294 90.8908 144.924 92.1011C143.553 93.3215 141.313 95.2821 139.942 96.4724C138.572 97.6528 136.211 99.6734 134.711 100.954C133.2 102.234 130.79 104.255 129.349 105.435C127.909 106.625 125.648 108.476 124.318 109.556C122.997 110.627 120.507 112.627 118.796 113.998C117.086 115.368 114.525 117.389 113.104 118.489C111.694 119.589 109.463 121.3 108.163 122.3C106.863 123.31 104.482 125.111 102.891 126.311C101.111 127.642 99.9505 128.462 99.9005 128.422C99.8505 128.382 98.6401 127.462 97.1997 126.371C95.7592 125.281 93.5486 123.601 92.2982 122.64C91.0378 121.68 88.7572 119.929 87.2267 118.739C85.6962 117.549 83.0555 115.468 81.365 114.128C79.6744 112.777 77.2137 110.797 75.8833 109.726C74.5629 108.646 72.2822 106.775 70.8218 105.565C69.3514 104.355 66.8506 102.254 65.2501 100.904C63.6497 99.5533 61.1689 97.4227 59.7285 96.1723C58.2881 94.922 56.0774 92.9814 54.827 91.861C53.5667 90.7407 51.306 88.7001 49.7955 87.3297C48.2851 85.9593 45.8444 83.6886 44.3539 82.2982C42.8735 80.9078 39.7726 77.8969 37.4719 75.6062C35.1712 73.3255 32.2503 70.3746 30.9899 69.0442C29.7196 67.7238 27.769 65.6232 26.6486 64.3929C25.5283 63.1625 23.8278 61.2219 22.8575 60.0916C21.8872 58.9612 21.067 58.041 21.027 58.041C20.997 58.041 21.017 58.3711 21.077 58.7612C21.137 59.1613 21.287 59.9215 21.4271 60.4517C21.5571 60.9718 21.8172 61.8521 22.0073 62.4023C22.1973 62.9524 22.5374 63.8427 22.7675 64.3929C22.9976 64.943 23.4477 65.9133 23.7578 66.5535C24.0679 67.1937 24.628 68.244 25.0082 68.8842C25.3783 69.5144 26.0185 70.5447 26.4386 71.1649C26.8487 71.7851 27.4689 72.6553 27.809 73.1155C28.1591 73.5756 28.7893 74.3758 29.2294 74.896C29.6695 75.4261 31.09 76.9966 32.4004 78.387C33.7108 79.7874 36.6616 82.7983 38.9623 85.079C41.263 87.3697 44.2939 90.3006 45.6843 91.601C47.0747 92.9114 49.0053 94.6819 49.9656 95.5521C50.9259 96.4224 52.7764 98.0929 54.0768 99.2532C55.3772 100.414 57.3978 102.184 58.5582 103.194C59.7285 104.205 61.5591 105.775 62.6294 106.685C63.7097 107.606 65.4102 109.046 66.4105 109.886C67.4208 110.737 69.4014 112.377 70.8218 113.538C72.2322 114.708 75.0031 116.949 76.9636 118.529C78.9342 120.109 81.9851 122.54 83.7457 123.931C85.5062 125.321 88.6771 127.782 90.7778 129.402C92.8884 131.023 94.6189 132.373 94.6189 132.393C94.6289 132.413 93.0484 133.583 91.1179 134.974C89.1773 136.374 86.4365 138.335 85.026 139.335C83.6056 140.325 82.4353 141.146 82.4253 141.156C82.4153 141.156 82.4053 141.756 82.4053 142.486C82.4053 143.216 82.4453 144.097 82.5053 144.447C82.5553 144.787 82.6753 145.217 82.7654 145.397C82.8554 145.577 83.0955 145.977 83.2955 146.287C83.4956 146.597 83.8657 147.078 84.1358 147.358L84.6059 147.868C90.5277 143.516 93.9487 140.976 96.0293 139.415C98.1099 137.855 99.8605 136.554 99.9205 136.524C99.9805 136.484 101.771 137.775 104.572 139.855C107.073 141.726 110.534 144.287 112.274 145.567L115.435 147.878C116.125 147.118 116.465 146.687 116.635 146.437C116.806 146.187 117.046 145.777 117.176 145.517C117.356 145.167 117.426 144.837 117.526 144.027C117.586 143.456 117.626 142.576 117.616 142.086L117.596 141.176C112.954 137.895 110.284 135.984 108.663 134.824C107.043 133.654 105.632 132.633 105.522 132.543L105.342 132.393C111.484 127.672 114.435 125.381 115.845 124.261C117.266 123.14 120.297 120.73 122.577 118.899C124.858 117.079 127.699 114.778 128.889 113.798C130.079 112.807 132.06 111.167 133.29 110.136C134.531 109.106 137.392 106.675 139.652 104.735C141.913 102.794 144.774 100.304 146.004 99.2032C147.245 98.1029 149.165 96.3624 150.285 95.3421C151.406 94.3118 153.146 92.7113 154.147 91.771C155.147 90.8307 157.148 88.9202 158.588 87.5197C160.028 86.1193 162.279 83.8987 163.579 82.5783C164.88 81.2579 166.77 79.2973 167.771 78.227C168.781 77.1467 169.861 75.9763 170.181 75.6062C170.502 75.2461 171.012 74.6459 171.312 74.2758C171.612 73.9157 172.072 73.3155 172.352 72.9554C172.632 72.5853 173.122 71.8951 173.442 71.4149C173.762 70.9348 174.393 69.9445 174.833 69.2143C175.273 68.4841 175.903 67.3237 176.243 66.6335C176.583 65.9533 177.063 64.883 177.314 64.2728C177.564 63.6526 177.914 62.7124 178.104 62.1922C178.284 61.662 178.544 60.7318 178.684 60.1116C178.824 59.5014 178.964 58.7612 178.994 58.4711C179.024 58.191 179.034 57.9609 179.014 57.9609C179.004 57.9609 178.184 58.9012 177.204 60.0516Z" fill="white"/>
<path d="M51.0359 60.2598C50.8059 60.3398 50.4958 60.4999 50.3357 60.6199C50.1757 60.7299 49.9556 61 49.8356 61.2001C49.7156 61.4001 49.5255 61.8103 49.4055 62.1104C49.2954 62.4004 49.1554 62.8506 49.1054 63.1006C49.0554 63.3507 48.8953 64.291 48.7553 65.1813C48.6052 66.0715 48.4152 67.0418 48.3251 67.3419C48.2351 67.642 48.0851 68.0321 47.985 68.2122C47.895 68.3922 47.705 68.6923 47.5649 68.8724C47.4249 69.0424 47.1948 69.2425 47.0548 69.2925L46.8047 69.4025C47.2548 69.6226 47.5949 69.7026 47.845 69.7326C48.0951 69.7526 48.4752 69.7226 48.6752 69.6626C48.9453 69.5926 49.1754 69.4325 49.5155 69.0924C49.8356 68.7623 50.0357 68.4723 50.1857 68.0921C50.3057 67.792 50.4558 67.3119 50.5158 67.0318C50.5758 66.7417 50.6458 66.5017 50.6658 66.5017C50.6958 66.5017 50.8359 66.6317 50.9959 66.7818C51.146 66.9318 51.316 67.1419 51.376 67.2619C51.4361 67.3719 51.5061 67.592 51.5361 67.752C51.5661 67.9321 51.5361 68.2222 51.4561 68.4823C51.3761 68.7623 51.226 69.0324 51.0259 69.2325C50.8559 69.4025 50.6158 69.6126 50.5058 69.6926L50.2957 69.8427C50.8759 69.7926 51.246 69.6826 51.5061 69.5626C51.7562 69.4425 52.1163 69.1925 52.3063 69.0024C52.5064 68.8224 52.7865 68.4322 52.9265 68.1522C53.1366 67.732 53.1966 67.502 53.2266 66.9718C53.2566 66.4717 53.2266 66.1916 53.1166 65.8415C53.0365 65.5914 52.8865 65.2513 52.7765 65.0812C52.6664 64.9012 52.4364 64.6111 52.2463 64.431C52.0663 64.251 51.7262 64.0209 51.4961 63.9109C51.206 63.7809 51.086 63.6808 51.086 63.5608C51.086 63.4708 51.156 63.0906 51.256 62.7305C51.346 62.3604 51.5561 61.8203 51.7262 61.5202C51.8862 61.2301 52.1463 60.83 52.2963 60.6299C52.4964 60.3798 52.5464 60.2598 52.4764 60.2198C52.4164 60.1898 52.1663 60.1598 51.9162 60.1398C51.6161 60.1198 51.316 60.1598 51.0359 60.2598Z" fill="#003087"/>
<path d="M50.4754 67.1519C50.3954 67.512 50.2253 68.0222 50.0853 68.2922C49.9553 68.5723 49.7552 68.8924 49.6552 69.0025C49.5451 69.1125 49.3151 69.3226 49.135 69.4526C48.8349 69.6727 48.8149 69.7027 48.965 69.7527C49.055 69.7827 49.3151 69.8427 49.5451 69.8727C49.8752 69.9227 50.0353 69.9027 50.2954 69.7827C50.4754 69.6927 50.7855 69.4726 50.9856 69.2725C51.2256 69.0325 51.3757 68.7824 51.4557 68.4823C51.5357 68.2222 51.5657 67.9321 51.5357 67.7521C51.5057 67.592 51.4357 67.392 51.3957 67.302C51.3457 67.2119 51.1756 66.9919 51.0056 66.8218C50.8455 66.6518 50.6855 66.5117 50.6655 66.5117C50.6355 66.5117 50.5454 66.8018 50.4754 67.1519Z" fill="#C8102E"/>
<path d="M139.652 88.7494C139.211 88.8594 138.151 89.1395 137.281 89.3695C136.411 89.5996 134.71 90.0898 133.5 90.4499C132.289 90.82 129.809 91.5802 127.978 92.1504C126.148 92.7306 122.537 93.9009 119.956 94.7512C117.375 95.6114 113.584 96.9118 111.523 97.642C109.473 98.3822 106.982 99.2725 106.002 99.6426C105.021 100.003 103.341 100.663 102.26 101.093C101.19 101.523 99.7497 102.133 99.0595 102.443C98.3793 102.744 97.4991 103.174 97.1089 103.384C96.7188 103.594 96.2287 103.894 96.0186 104.054C95.7986 104.234 95.6185 104.434 95.5985 104.554C95.5785 104.684 95.6285 104.764 95.7585 104.814C95.8686 104.864 96.1287 104.894 96.3387 104.894C96.5588 104.894 97.0889 104.834 97.5291 104.764C97.9592 104.684 98.8995 104.484 99.5997 104.304C100.31 104.124 101.7 103.734 102.681 103.444C103.661 103.144 105.962 102.403 107.792 101.793C109.613 101.173 112.604 100.133 114.434 99.4726C116.265 98.8024 118.895 97.8321 120.296 97.3119C121.686 96.7818 123.877 95.9415 125.147 95.4414C126.428 94.9412 128.598 94.081 129.969 93.5308C131.339 92.9806 133.16 92.2504 134 91.8903C134.85 91.5402 136.251 90.94 137.111 90.5599C137.981 90.1798 139.161 89.6496 139.732 89.3695C140.302 89.0995 140.862 88.7994 140.982 88.6993L141.182 88.5293C140.612 88.5393 140.082 88.6293 139.652 88.7494Z" fill="white"/>
<path fill-rule="evenodd" clip-rule="evenodd" d="M81.0743 136.083C81.6945 136.093 81.9446 136.143 82.2247 136.283C82.4147 136.383 82.6448 136.583 82.7448 136.733C82.8348 136.883 82.8949 137.053 82.8849 137.123C82.8749 137.193 82.5448 137.353 82.1146 137.493C81.6045 137.663 81.2944 137.833 81.1243 138.003C80.9943 138.133 80.7842 138.453 80.6642 138.704C80.4641 139.144 80.4541 139.224 80.4641 140.574C80.4641 141.624 80.5141 142.245 80.6442 142.985C80.7442 143.535 81.1443 145.325 81.5344 146.976C81.9246 148.616 82.3547 150.527 82.4947 151.207C82.6248 151.897 82.8148 152.978 82.9049 153.618C83.0249 154.378 83.1049 155.429 83.1349 156.609C83.1649 157.859 83.1449 158.689 83.0749 159.23C83.0249 159.66 82.8949 160.37 82.8048 160.81C82.7148 161.24 82.4747 162.08 82.2647 162.681C82.0646 163.271 81.7245 164.111 81.5244 164.541C81.3144 164.981 81.0143 165.562 80.8542 165.832C80.6842 166.112 80.3241 166.672 80.054 167.082C79.7839 167.492 79.2138 168.242 78.7936 168.742C78.3735 169.243 77.7533 169.913 77.4132 170.233C77.0731 170.553 76.4229 171.113 75.9728 171.473C75.5127 171.833 74.7424 172.394 74.2623 172.704C73.7821 173.024 72.8919 173.534 72.2717 173.844C71.6515 174.154 70.7912 174.554 70.3611 174.724C69.921 174.894 69.1408 175.154 68.6106 175.304C68.0904 175.454 67.3602 175.645 67.0001 175.715C66.63 175.795 65.8298 175.905 65.2096 175.975C64.5894 176.035 63.6991 176.095 63.219 176.095C62.7388 176.085 61.9686 176.055 61.5085 176.015C61.0583 175.975 60.2881 175.865 59.808 175.765C59.3278 175.665 58.4876 175.434 57.9374 175.254C57.3873 175.074 56.547 174.734 56.0669 174.504C55.5867 174.274 54.9765 173.954 54.6964 173.794C54.4264 173.624 53.7662 173.174 53.246 172.784C52.7159 172.394 51.8556 171.643 51.3254 171.113C50.7953 170.583 50.1151 169.843 49.2548 168.782L48.9447 169.213C48.7747 169.453 48.4646 169.773 48.2645 169.923C48.0545 170.073 47.6844 170.283 47.4343 170.373C47.0642 170.513 46.8241 170.533 46.1739 170.513C45.4637 170.493 45.3237 170.453 44.7635 170.183C44.3434 169.973 44.0133 169.743 43.7332 169.433C43.5031 169.183 43.213 168.772 43.093 168.532C42.973 168.282 42.8329 167.912 42.7829 167.702C42.7329 167.502 42.6929 167.082 42.6929 166.792C42.6929 166.492 42.7529 166.022 42.8229 165.752C42.8929 165.482 43.073 165.031 43.223 164.761C43.3631 164.491 43.6732 164.101 43.9032 163.891C44.1333 163.681 44.5234 163.411 44.7735 163.291C45.0236 163.161 45.4537 163.021 45.7238 162.961C46.1539 162.871 46.314 162.881 46.8441 163.001C47.1942 163.071 47.6744 163.251 47.9244 163.401C48.1845 163.551 48.5646 163.821 48.7847 164.011C48.9947 164.191 49.665 164.921 50.2751 165.622C50.8753 166.332 51.8956 167.442 52.5358 168.072C53.176 168.722 54.0563 169.493 54.4964 169.803C54.9265 170.113 55.8068 170.623 56.447 170.943C57.0872 171.263 57.9474 171.623 58.3575 171.733C58.7677 171.853 59.5279 172.023 60.058 172.123C60.8283 172.274 61.3184 172.304 62.5488 172.304C63.6091 172.304 64.3493 172.254 64.9195 172.153C65.3796 172.083 66.1199 171.923 66.58 171.803C67.0401 171.693 67.8404 171.433 68.3705 171.223C68.8907 171.013 69.6809 170.653 70.111 170.423C70.5412 170.193 71.2714 169.763 71.7315 169.463C72.1917 169.163 72.7818 168.722 73.0619 168.492C73.332 168.262 73.8722 167.782 74.2523 167.412C74.6424 167.052 75.1626 166.482 75.4226 166.162C75.6927 165.842 76.1628 165.211 76.4729 164.751C76.783 164.301 77.2532 163.471 77.5133 162.931C77.7733 162.381 78.1234 161.54 78.2835 161.06C78.4435 160.58 78.6636 159.79 78.7636 159.31C78.9337 158.539 78.9537 158.219 78.9537 156.569C78.9537 155.088 78.9137 154.438 78.7636 153.418C78.6636 152.708 78.3935 151.227 78.1735 150.127C77.9434 149.037 77.6133 147.426 77.4332 146.556C77.2532 145.696 77.0131 144.455 76.9131 143.815C76.793 143.015 76.733 142.235 76.723 141.324C76.723 140.274 76.753 139.884 76.8731 139.454C76.9531 139.154 77.1331 138.674 77.2832 138.373C77.4432 138.033 77.7433 137.633 78.0834 137.283C78.4135 136.953 78.8336 136.633 79.1437 136.473C79.4338 136.333 79.8039 136.183 79.974 136.133C80.144 136.093 80.6442 136.063 81.0743 136.083ZM119.006 136.053C119.376 136.053 119.876 136.103 120.126 136.183C120.376 136.253 120.766 136.423 120.996 136.543C121.226 136.673 121.586 136.953 121.806 137.163C122.027 137.373 122.327 137.743 122.487 137.983C122.637 138.223 122.847 138.614 122.937 138.854C123.037 139.094 123.177 139.614 123.247 140.014C123.337 140.544 123.357 141.004 123.317 141.694C123.287 142.225 123.177 143.255 123.067 143.985C122.957 144.715 122.657 146.266 122.407 147.436C122.147 148.596 121.816 150.187 121.666 150.967C121.506 151.737 121.306 152.958 121.216 153.658C121.086 154.568 121.036 155.399 121.036 156.469C121.036 157.299 121.076 158.249 121.126 158.589C121.176 158.92 121.316 159.56 121.426 160.02C121.536 160.48 121.766 161.2 121.926 161.64C122.087 162.07 122.357 162.691 122.517 163.011C122.677 163.331 122.997 163.891 123.227 164.251C123.457 164.621 123.837 165.181 124.067 165.502C124.307 165.822 124.847 166.452 125.277 166.902C125.718 167.362 126.388 167.992 126.768 168.322C127.158 168.642 127.848 169.153 128.308 169.453C128.769 169.753 129.419 170.153 129.759 170.343C130.109 170.523 130.759 170.833 131.219 171.023C131.669 171.213 132.4 171.473 132.84 171.603C133.27 171.743 133.91 171.903 134.25 171.973C134.59 172.043 135.21 172.133 135.621 172.183C136.031 172.234 136.851 172.274 137.451 172.274C138.041 172.274 138.862 172.234 139.272 172.183C139.692 172.133 140.302 172.043 140.642 171.963C140.992 171.893 141.642 171.703 142.103 171.543C142.553 171.393 143.283 171.083 143.723 170.853C144.153 170.633 144.773 170.273 145.093 170.063C145.413 169.853 145.994 169.413 146.384 169.083C146.764 168.762 147.414 168.152 147.824 167.742C148.224 167.332 149.045 166.402 149.645 165.682C150.295 164.901 150.975 164.181 151.325 163.901C151.645 163.651 152.145 163.331 152.446 163.191C152.806 163.021 153.156 162.931 153.526 162.901C153.886 162.871 154.226 162.911 154.566 163.001C154.836 163.081 155.246 163.251 155.466 163.371C155.687 163.491 156.047 163.781 156.267 164.011C156.477 164.231 156.757 164.621 156.877 164.861C156.997 165.101 157.157 165.512 157.217 165.772C157.287 166.032 157.347 166.462 157.347 166.732C157.347 166.992 157.307 167.402 157.257 167.642C157.197 167.882 157.067 168.262 156.947 168.492C156.837 168.722 156.607 169.073 156.437 169.283C156.267 169.483 155.947 169.773 155.717 169.923C155.496 170.063 155.076 170.263 154.786 170.353C154.466 170.463 154.056 170.523 153.686 170.523C153.316 170.523 152.956 170.473 152.676 170.363C152.436 170.273 152.045 170.083 151.825 169.923C151.595 169.773 151.295 169.493 151.155 169.313C151.015 169.133 150.875 168.933 150.845 168.863C150.805 168.772 150.735 168.802 150.555 169.033C150.435 169.193 149.935 169.763 149.455 170.313C148.975 170.863 148.314 171.533 148.004 171.803C147.684 172.083 147.064 172.574 146.624 172.894C146.194 173.214 145.524 173.664 145.133 173.894C144.743 174.114 144.073 174.464 143.633 174.654C143.203 174.844 142.453 175.124 141.972 175.284C141.492 175.444 140.652 175.655 140.102 175.745C139.562 175.845 138.621 175.965 138.031 176.015C137.301 176.075 136.561 176.075 135.741 176.015C135.08 175.975 134.18 175.875 133.75 175.805C133.32 175.735 132.53 175.565 132.009 175.434C131.479 175.294 130.719 175.074 130.299 174.934C129.889 174.784 128.979 174.394 128.268 174.044C127.558 173.704 126.658 173.234 126.278 172.994C125.888 172.764 125.137 172.244 124.607 171.853C124.087 171.453 123.187 170.683 122.617 170.133C122.047 169.593 121.246 168.712 120.836 168.192C120.436 167.672 119.936 166.982 119.726 166.662C119.516 166.342 119.096 165.602 118.786 165.001C118.475 164.411 118.065 163.491 117.875 162.971C117.695 162.441 117.435 161.56 117.305 161.01C117.175 160.47 117.015 159.57 116.965 159.02C116.895 158.389 116.875 157.429 116.915 156.409C116.935 155.499 117.035 154.218 117.135 153.498C117.235 152.788 117.445 151.577 117.605 150.797C117.765 150.017 118.135 148.396 118.425 147.186C118.716 145.976 119.006 144.735 119.076 144.445C119.146 144.145 119.286 143.435 119.386 142.865C119.506 142.155 119.566 141.444 119.576 140.614C119.586 139.684 119.556 139.304 119.436 138.934C119.336 138.603 119.186 138.353 118.946 138.103C118.676 137.833 118.425 137.693 117.885 137.493C117.355 137.313 117.165 137.203 117.155 137.083C117.135 136.993 117.215 136.813 117.315 136.683C117.425 136.543 117.695 136.353 117.925 136.243C118.245 136.093 118.485 136.053 119.006 136.053ZM75.2226 145.566C75.2426 145.586 75.2326 145.686 75.2226 145.786C75.2026 145.906 74.8425 146.276 74.2123 146.816C73.6721 147.276 72.7018 148.046 72.0616 148.526C71.4214 149.007 70.001 150.027 68.9107 150.807C67.8104 151.587 66.0098 152.828 64.9195 153.558C63.8192 154.288 62.2287 155.328 61.3884 155.869C60.5382 156.409 59.1378 157.279 58.2675 157.799C57.4073 158.319 55.9468 159.17 55.0265 159.68C54.1163 160.2 52.6358 160.99 51.7456 161.45C50.8553 161.91 50.0051 162.311 49.855 162.341C49.715 162.361 49.5749 162.351 49.5449 162.301C49.5249 162.261 49.6249 162.13 49.775 162.02C49.925 161.91 51.5255 160.89 53.326 159.75C55.1366 158.609 57.9174 156.839 59.5179 155.809C61.1184 154.778 63.5891 153.178 64.9995 152.248C66.4199 151.317 69.2408 149.457 71.2714 148.096C73.312 146.736 75.0225 145.616 75.0925 145.586C75.1525 145.566 75.2126 145.556 75.2226 145.566ZM124.737 145.516C124.757 145.516 124.877 145.576 125.007 145.636C125.127 145.696 127.908 147.526 131.179 149.697C134.44 151.867 138.391 154.458 139.942 155.449C141.492 156.449 144.443 158.319 146.504 159.62C148.564 160.92 150.295 162.03 150.365 162.1C150.455 162.181 150.465 162.251 150.405 162.311C150.355 162.371 150.155 162.331 149.745 162.171C149.425 162.05 148.905 161.82 148.584 161.66C148.264 161.5 147.304 160.98 146.464 160.51C145.614 160.05 143.933 159.07 142.723 158.339C141.512 157.609 139.752 156.539 138.822 155.949C137.881 155.358 136.311 154.348 135.33 153.708C134.35 153.058 132.89 152.068 132.09 151.507C131.289 150.937 129.959 149.967 129.139 149.357C128.318 148.737 127.028 147.736 126.278 147.136C125.518 146.526 124.857 145.956 124.797 145.866C124.737 145.766 124.697 145.646 124.697 145.606C124.697 145.556 124.717 145.516 124.737 145.516ZM75.6127 148.436C76.0228 148.426 76.1228 148.456 76.3329 148.656C76.4629 148.787 76.613 149.057 76.673 149.257C76.733 149.467 76.823 149.877 76.8831 150.177C76.9531 150.467 77.0431 151.047 77.0831 151.457C77.1331 151.867 77.1732 152.508 77.1732 152.878C77.1732 153.388 77.1331 153.598 77.0031 153.808C76.9131 153.958 76.753 154.138 76.653 154.198C76.553 154.268 76.3329 154.358 76.1729 154.408C75.9828 154.458 75.7827 154.468 75.5727 154.408C75.4026 154.368 75.1425 154.228 74.7324 153.868L74.8024 154.408C74.8425 154.738 74.8325 155.058 74.7724 155.238C74.7324 155.398 74.5424 155.669 74.3523 155.839C74.0522 156.129 73.9722 156.159 73.5621 156.159C73.312 156.159 73.0219 156.109 72.9119 156.059C72.8119 156.009 72.6418 155.889 72.5418 155.789C72.4417 155.699 72.3417 155.639 72.3217 155.659C72.3017 155.679 72.3217 155.889 72.3517 156.109C72.3917 156.349 72.3917 156.669 72.3517 156.839C72.3017 157.009 72.1517 157.279 72.0016 157.449C71.8116 157.649 71.6215 157.759 71.3614 157.819C71.1313 157.859 70.8713 157.859 70.6912 157.819C70.5312 157.769 70.2811 157.619 69.851 157.189L69.911 157.819C69.961 158.359 69.941 158.489 69.7909 158.79C69.6909 158.99 69.4909 159.22 69.3408 159.31C69.1908 159.4 68.9607 159.5 68.8207 159.53C68.6906 159.56 68.4205 159.53 68.2405 159.48C68.0604 159.42 67.7803 159.26 67.3602 158.86L67.4202 159.48C67.4703 160.04 67.4603 160.13 67.2802 160.45C67.1702 160.65 66.9501 160.88 66.7901 160.97C66.61 161.07 66.3399 161.14 66.0798 161.14C65.7698 161.14 65.5897 161.09 65.3496 160.93C65.1796 160.82 65.0395 160.69 65.0395 160.64C65.0395 160.6 65.0195 160.57 64.9795 160.59C64.9495 160.61 64.9295 160.9 64.9495 161.24C64.9695 161.69 64.9495 161.92 64.8495 162.121C64.7494 162.301 64.5694 162.451 64.2693 162.591C64.0392 162.711 63.7491 162.801 63.6291 162.801C63.5191 162.801 63.269 162.731 63.089 162.651C62.9089 162.571 62.6688 162.391 62.3687 162.01L62.4188 162.681C62.4688 163.241 62.4488 163.391 62.3087 163.671C62.2187 163.861 62.0586 164.071 61.9586 164.141C61.8486 164.211 61.5885 164.321 61.3884 164.381C61.0984 164.461 60.9483 164.471 60.6982 164.391C60.5282 164.341 60.2781 164.201 60.1381 164.091C60.008 163.971 59.878 163.881 59.868 163.881C59.858 163.881 59.858 164.171 59.878 164.521C59.898 165.141 59.888 165.181 59.6479 165.482C59.4679 165.702 59.2678 165.832 58.9777 165.922C58.7377 165.992 58.4476 166.022 58.2875 165.992C58.1475 165.962 57.9474 165.902 57.8574 165.852C57.7674 165.812 57.5873 165.672 57.2272 165.331L57.2372 166.002C57.2372 166.572 57.2072 166.732 57.0071 167.112C56.8171 167.492 56.697 167.612 56.3169 167.802C55.9968 167.972 55.7468 168.042 55.4667 168.042C55.2466 168.032 54.9365 167.972 54.7565 167.902C54.5864 167.832 54.1863 167.552 53.8662 167.292C53.5461 167.032 52.9359 166.432 52.4958 165.972C52.0657 165.512 51.6455 164.991 51.5655 164.811C51.4855 164.641 51.4255 164.411 51.4155 164.301C51.4155 164.181 51.4955 163.971 51.5855 163.821C51.6756 163.671 51.8356 163.491 51.9356 163.421C52.0357 163.351 52.2757 163.261 52.4558 163.221C52.6558 163.171 52.9059 163.171 53.076 163.211C53.236 163.251 53.5861 163.461 53.8462 163.671C54.1063 163.881 54.3563 164.051 54.3864 164.051C54.4264 164.051 54.4264 163.731 54.3864 163.341C54.3363 162.751 54.3463 162.581 54.4764 162.281C54.5864 162.01 54.7165 161.88 54.9965 161.74C55.1966 161.64 55.4567 161.56 55.5667 161.56C55.6867 161.56 55.9068 161.64 56.0669 161.73C56.2269 161.82 56.477 162.05 56.8571 162.571L56.8971 161.66C56.9271 160.99 56.9771 160.7 57.0872 160.53C57.1672 160.41 57.3572 160.23 57.5073 160.14C57.7073 160.01 57.8674 159.98 58.1875 160.01C58.5476 160.04 58.6476 160.09 58.9377 160.41C59.1178 160.61 59.3178 160.85 59.3678 160.94C59.4479 161.07 59.4579 160.93 59.4279 160.25C59.3979 159.51 59.4179 159.35 59.5579 159.06C59.6479 158.88 59.848 158.659 59.998 158.569C60.1481 158.469 60.4082 158.399 60.5982 158.399C60.7883 158.399 61.0483 158.469 61.1984 158.569C61.3484 158.659 61.5685 158.89 61.9286 159.43L62.0086 157.389L62.3187 157.099C62.4888 156.949 62.7388 156.799 62.8589 156.769C62.9889 156.739 63.209 156.739 63.359 156.769C63.5091 156.799 63.7491 156.939 63.8992 157.089C64.0492 157.239 64.2393 157.449 64.3093 157.569C64.4494 157.769 64.4494 157.739 64.4594 156.859C64.4594 156.049 64.4794 155.919 64.6494 155.659C64.7494 155.499 64.9695 155.298 65.1296 155.218C65.3296 155.118 65.5197 155.078 65.7497 155.108C65.9298 155.128 66.1699 155.218 66.2899 155.308C66.3999 155.399 66.58 155.589 66.69 155.749C66.7901 155.899 66.9101 156.039 66.9401 156.049C66.9701 156.059 66.9801 155.739 66.9501 155.328C66.9301 154.918 66.9401 154.458 66.9701 154.308C67.0001 154.158 67.1402 153.928 67.2602 153.808C67.3902 153.678 67.6203 153.538 67.7803 153.488C67.9404 153.438 68.2005 153.418 68.3405 153.448C68.4906 153.478 68.7406 153.618 68.8907 153.768C69.0407 153.918 69.2208 154.128 69.3008 154.248C69.4408 154.448 69.4408 154.428 69.4308 153.578C69.4208 152.898 69.4408 152.648 69.5509 152.438C69.6309 152.288 69.801 152.088 69.921 151.997C70.051 151.897 70.2411 151.807 70.3611 151.777C70.4711 151.747 70.7112 151.777 70.8813 151.827C71.0813 151.887 71.3014 152.047 71.5015 152.298C71.6715 152.498 71.8316 152.668 71.8516 152.668C71.8816 152.668 71.8816 152.338 71.8616 151.937C71.8516 151.537 71.8516 151.107 71.8816 150.987C71.9116 150.857 72.0316 150.647 72.1416 150.507C72.2717 150.357 72.4918 150.227 72.6818 150.177C72.9019 150.117 73.1319 150.117 73.332 150.167C73.5121 150.217 73.7521 150.367 73.9122 150.537C74.0622 150.707 74.2123 150.837 74.2423 150.837C74.2823 150.837 74.2823 150.587 74.2423 150.277C74.2123 149.967 74.2123 149.567 74.2423 149.387C74.2823 149.207 74.4023 148.947 74.5224 148.817C74.6424 148.686 74.8325 148.546 74.9425 148.506C75.0525 148.466 75.3526 148.436 75.6127 148.436ZM124.607 148.486C124.767 148.506 125.027 148.586 125.187 148.666C125.338 148.737 125.548 148.917 125.638 149.047C125.798 149.267 125.818 149.407 125.778 151.047L126.048 150.727C126.198 150.547 126.418 150.347 126.548 150.287C126.668 150.227 126.888 150.177 127.018 150.177C127.158 150.177 127.378 150.227 127.498 150.287C127.628 150.347 127.838 150.527 127.968 150.677C128.198 150.957 128.208 150.967 128.178 151.857C128.158 152.348 128.158 152.748 128.188 152.748C128.208 152.758 128.338 152.598 128.478 152.418C128.608 152.228 128.849 152.017 128.999 151.957C129.139 151.887 129.359 151.837 129.469 151.837C129.589 151.837 129.769 151.867 129.869 151.907C129.969 151.947 130.139 152.058 130.239 152.138C130.329 152.218 130.469 152.428 130.549 152.608C130.649 152.848 130.669 153.098 130.629 153.728C130.589 154.518 130.589 154.528 130.729 154.328C130.819 154.208 130.999 153.998 131.129 153.858C131.269 153.718 131.509 153.568 131.669 153.538C131.829 153.508 132.08 153.508 132.21 153.538C132.35 153.568 132.6 153.728 133.08 154.198V156.199L133.33 155.839C133.47 155.649 133.71 155.419 133.85 155.328C134 155.228 134.25 155.158 134.39 155.158C134.54 155.158 134.77 155.208 134.89 155.278C135.02 155.338 135.21 155.489 135.33 155.609C135.521 155.819 135.541 155.909 135.621 157.829L135.891 157.449C136.041 157.229 136.281 157.019 136.451 156.949C136.611 156.879 136.831 156.819 136.951 156.819C137.061 156.819 137.281 156.869 137.431 156.929C137.571 156.989 137.771 157.149 137.861 157.279C138.001 157.479 138.041 157.709 138.111 159.49L138.381 159.11C138.531 158.9 138.752 158.669 138.882 158.589C139.022 158.489 139.232 158.449 139.482 158.459C139.752 158.469 139.942 158.549 140.142 158.709C140.302 158.84 140.482 159.07 140.552 159.23C140.632 159.44 140.652 159.7 140.612 160.21C140.582 160.58 140.592 160.91 140.622 160.93C140.662 160.95 140.802 160.82 140.942 160.64C141.072 160.47 141.292 160.26 141.412 160.19C141.542 160.12 141.802 160.06 141.992 160.06C142.193 160.06 142.433 160.11 142.533 160.17C142.633 160.22 142.813 160.4 142.933 160.56C143.123 160.83 143.143 160.92 143.143 161.76C143.153 162.501 143.163 162.651 143.253 162.521C143.303 162.431 143.463 162.231 143.593 162.07C143.733 161.91 143.973 161.72 144.133 161.66C144.313 161.59 144.523 161.57 144.673 161.6C144.813 161.63 145.033 161.72 145.163 161.79C145.293 161.87 145.474 162.07 145.554 162.241C145.694 162.511 145.704 162.661 145.604 164.171L145.974 163.871C146.174 163.711 146.464 163.491 146.624 163.391C146.804 163.291 147.054 163.221 147.254 163.221C147.434 163.221 147.744 163.291 147.934 163.381C148.134 163.471 148.364 163.671 148.464 163.821C148.574 164.011 148.624 164.191 148.604 164.421C148.584 164.661 148.474 164.891 148.204 165.241C148.004 165.512 147.384 166.172 146.834 166.702C146.234 167.282 145.674 167.742 145.423 167.872C145.133 168.012 144.873 168.072 144.543 168.072C144.173 168.072 144.003 168.022 143.683 167.832C143.463 167.692 143.213 167.482 143.123 167.372C143.033 167.252 142.913 166.972 142.863 166.752C142.803 166.512 142.773 166.142 142.803 165.892C142.823 165.652 142.843 165.431 142.823 165.411C142.813 165.391 142.713 165.472 142.603 165.582C142.483 165.702 142.263 165.852 142.103 165.922C141.942 165.982 141.722 166.042 141.622 166.042C141.522 166.042 141.282 166.002 141.102 165.952C140.912 165.892 140.632 165.712 140.102 165.191L140.232 163.711L140.002 163.961C139.882 164.091 139.672 164.241 139.542 164.291C139.422 164.341 139.142 164.381 138.922 164.381C138.651 164.381 138.441 164.331 138.241 164.191C138.091 164.091 137.881 163.901 137.791 163.771C137.641 163.561 137.621 163.441 137.661 162.01L137.471 162.261C137.371 162.391 137.131 162.571 136.951 162.651C136.771 162.731 136.521 162.801 136.411 162.801C136.291 162.801 136.001 162.711 135.771 162.591C135.471 162.451 135.29 162.301 135.19 162.121C135.09 161.9 135.07 161.71 135.11 161.14C135.17 160.45 135.17 160.44 135.02 160.62C134.94 160.72 134.76 160.88 134.62 160.97C134.46 161.08 134.23 161.14 133.96 161.14C133.66 161.14 133.46 161.09 133.26 160.96C133.1 160.85 132.88 160.64 132.77 160.48C132.59 160.21 132.58 160.12 132.62 159.6C132.64 159.28 132.64 158.99 132.61 158.96C132.57 158.93 132.51 158.96 132.46 159.04C132.41 159.12 132.23 159.25 132.06 159.33C131.889 159.41 131.579 159.48 131.359 159.48C131.129 159.48 130.879 159.42 130.749 159.33C130.629 159.25 130.439 159.08 130.329 158.94C130.159 158.729 130.139 158.599 130.139 158.009C130.139 157.629 130.119 157.319 130.099 157.319C130.069 157.309 129.999 157.369 129.929 157.449C129.859 157.529 129.699 157.639 129.579 157.699C129.449 157.769 129.169 157.819 128.949 157.819C128.678 157.819 128.468 157.759 128.278 157.629C128.118 157.529 127.918 157.339 127.818 157.209C127.668 156.999 127.648 156.869 127.688 155.529L127.478 155.759C127.368 155.889 127.178 156.029 127.058 156.069C126.948 156.119 126.708 156.159 126.528 156.159C126.338 156.159 126.038 156.079 125.858 155.989C125.628 155.879 125.468 155.709 125.348 155.469C125.227 155.228 125.177 154.978 125.177 154.678C125.187 154.438 125.207 154.208 125.237 154.158C125.257 154.118 125.237 154.058 125.197 154.038C125.147 154.018 125.067 154.058 125.007 154.128C124.947 154.208 124.777 154.318 124.637 154.378C124.487 154.438 124.237 154.488 124.097 154.488C123.947 154.488 123.677 154.408 123.487 154.298C123.307 154.198 123.077 153.968 122.967 153.788C122.787 153.468 122.787 153.428 122.877 152.288C122.917 151.647 123.047 150.677 123.167 150.127C123.307 149.417 123.427 149.057 123.567 148.867C123.687 148.717 123.897 148.566 124.047 148.516C124.197 148.476 124.447 148.456 124.607 148.486Z" fill="#FFB81C"/>
</g>
<defs>
<clipPath id="clip0_18_2135">
<rect width="200" height="200" fill="white"/>
</clipPath>
</defs>
</svg>
