<svg width="200" height="200" viewBox="0 0 200 200" fill="none" xmlns="http://www.w3.org/2000/svg">
<path fill-rule="evenodd" clip-rule="evenodd" d="M143.409 15.0247C147.611 15.0747 150.503 15.2148 151.974 15.4449C153.194 15.625 155.195 15.9952 156.416 16.2554C157.647 16.5155 159.648 17.0158 160.868 17.376C162.089 17.7262 163.79 18.2765 164.651 18.5867C165.501 18.9068 167.202 19.5872 168.423 20.0975C169.653 20.6078 171.855 21.7184 173.315 22.5688C174.786 23.4093 176.887 24.73 177.988 25.5005C179.088 26.2709 180.94 27.6917 182.1 28.6722C183.261 29.6427 185.042 31.3337 186.062 32.4243C187.083 33.5149 188.744 35.506 189.744 36.8567C190.755 38.2074 191.986 39.9584 192.476 40.7589C192.976 41.5493 193.897 43.2302 194.517 44.4909C195.147 45.7416 195.968 47.5526 196.348 48.5031C196.728 49.4436 197.309 51.0745 197.659 52.1151C197.999 53.1557 198.529 55.1668 198.849 56.5776C199.16 57.9883 199.55 60.0395 199.71 61.1401C199.89 62.4008 200 65.3424 200 69.0544C200 73.5969 199.9 75.598 199.59 77.7392C199.37 79.27 199.019 81.3212 198.439 84.0827L176.317 84.1427C164.15 84.1727 154.095 84.1627 153.975 84.1127C153.835 84.0527 153.945 83.2922 154.265 82.1616C154.545 81.1411 154.925 79.4001 155.125 78.2995C155.325 77.1889 155.486 74.9877 155.496 73.3968C155.506 71.7259 155.395 69.9249 155.225 69.1645C155.055 68.4241 154.605 67.1234 154.205 66.2629C153.805 65.4124 153.084 64.2518 152.594 63.7015C152.104 63.1512 151.113 62.3807 150.393 62.0005C149.672 61.6103 148.532 61.1801 147.861 61.03C147.061 60.8499 145.63 60.7899 143.749 60.8699C141.628 60.95 140.257 61.1401 138.636 61.5703C137.406 61.8905 135.404 62.6409 134.184 63.2212C132.963 63.8115 131.412 64.652 130.742 65.0822C130.062 65.5125 128.761 66.473 127.85 67.2134C126.93 67.9438 125.159 69.6147 123.898 70.9154C122.647 72.2162 120.896 74.2573 120.006 75.4579C119.116 76.6486 117.815 78.5496 117.114 79.6903C116.414 80.8209 115.153 83.1222 114.313 84.8131C113.472 86.494 112.412 88.8253 111.952 89.9959C111.491 91.1566 110.731 93.3078 110.251 94.7786C109.78 96.2494 109.14 98.5606 108.84 99.9014C108.54 101.252 108.139 103.403 107.959 104.694C107.769 105.985 107.619 108.636 107.619 110.597C107.619 112.618 107.759 115.08 107.939 116.28C108.119 117.441 108.48 119.202 108.73 120.183C108.99 121.153 109.58 122.764 110.031 123.744C110.491 124.725 111.201 126.026 111.611 126.636C112.022 127.246 112.672 128.117 113.042 128.567C113.422 129.017 114.383 129.908 115.173 130.548C115.974 131.199 117.325 132.059 118.175 132.459C119.035 132.87 120.536 133.42 121.507 133.67C122.828 134.02 124.018 134.15 126.069 134.17C128.07 134.19 129.251 134.09 130.292 133.81C131.092 133.6 132.443 133.08 133.293 132.659C134.154 132.239 135.655 131.259 136.635 130.468C137.606 129.688 138.996 128.357 139.707 127.507C140.417 126.666 141.528 125.165 142.178 124.185C142.819 123.204 143.899 121.303 144.57 119.952C145.24 118.612 145.98 117.021 146.641 115.37L194.547 115.39L194.427 116.45C194.357 117.031 194.097 118.352 193.847 119.402C193.606 120.443 193.116 122.194 192.766 123.294C192.416 124.395 191.615 126.556 190.985 128.087C190.355 129.618 189.164 132.279 188.324 133.99C187.483 135.701 185.962 138.513 184.942 140.224C183.921 141.945 182.64 143.996 182.11 144.796C181.57 145.587 180.159 147.548 178.978 149.138C177.798 150.729 175.837 153.191 174.626 154.591C173.415 156.002 171.224 158.344 169.763 159.804C168.293 161.265 165.881 163.476 164.4 164.717C162.92 165.948 160.718 167.669 159.508 168.529C158.297 169.39 156.306 170.71 155.085 171.461C153.865 172.201 151.964 173.282 150.863 173.852C149.762 174.432 147.811 175.353 146.521 175.903C145.24 176.453 143.239 177.244 142.078 177.644C140.917 178.054 138.816 178.685 137.406 179.065C136.005 179.435 133.654 179.945 132.183 180.196C130.712 180.446 128.361 180.756 126.96 180.876C125.549 181.006 123.198 181.106 121.737 181.106C120.266 181.096 118.115 180.996 116.954 180.876C115.794 180.756 113.843 180.456 112.622 180.206C111.391 179.965 109.49 179.515 108.39 179.215C107.289 178.915 105.638 178.405 104.728 178.084C103.807 177.764 100.705 176.574 97.8338 175.433C94.9622 174.292 91.9606 173.152 91.1601 172.902C90.3697 172.641 89.069 172.281 88.2685 172.101C87.4781 171.921 86.4776 171.711 86.0473 171.631C85.6171 171.551 84.2663 171.481 83.0457 171.481C81.5348 171.481 80.1841 171.631 78.8233 171.951C77.7227 172.221 76.0218 172.832 75.0413 173.312C74.0607 173.802 72.4999 174.773 71.5593 175.483C70.6288 176.183 68.7378 177.764 67.3671 178.995C65.9963 180.216 64.2053 181.706 63.3949 182.297C62.5844 182.897 61.2237 183.738 60.3632 184.168C59.5127 184.598 58.0619 185.148 57.1414 185.388C55.9208 185.719 54.7701 185.829 52.809 185.829C50.6979 185.829 49.6973 185.709 48.0264 185.278C46.8658 184.978 45.1148 184.398 44.1343 183.988C43.1537 183.577 41.4628 182.637 40.3622 181.896C39.2716 181.156 38.3511 180.446 38.3211 180.326C38.2911 180.206 39.3316 179.585 40.6423 178.955C41.9531 178.315 43.8241 177.264 44.8046 176.624C45.7852 175.973 47.286 174.733 48.1365 173.862C48.9969 173.002 49.9675 171.761 50.3077 171.131C50.6378 170.49 50.868 169.97 50.8079 169.97C50.7479 169.97 50.3177 170.21 49.8574 170.51C49.4072 170.81 48.2465 171.361 47.306 171.741C46.3555 172.111 44.6546 172.571 43.5239 172.751C42.3933 172.932 40.8124 173.082 40.022 173.082C39.2316 173.082 37.6807 172.892 36.5801 172.671C35.4795 172.441 33.8786 171.931 33.0182 171.541C32.1577 171.151 30.857 170.4 30.1266 169.87C29.3962 169.34 28.1855 168.269 27.4451 167.489C26.7047 166.708 25.6941 165.467 25.2039 164.737C24.7136 163.997 24.0032 162.846 23.633 162.176C23.2628 161.495 22.5924 160.044 22.1622 158.944C21.732 157.843 21.1716 156.132 20.9315 155.152C20.6814 154.171 20.3312 152.37 20.1511 151.14C19.961 149.919 19.7509 148.068 19.6708 147.027C19.5808 145.977 19.3206 144.426 19.0805 143.565C18.8404 142.715 18.3801 141.354 18.0699 140.564C17.7498 139.763 17.0894 138.413 16.5991 137.552C16.1189 136.702 15.3284 135.471 14.8582 134.821C14.0877 133.77 14.0477 133.63 14.3779 133.38C14.628 133.19 15.6586 133.1 17.6597 133.11C19.971 133.12 20.9215 133.22 22.2923 133.61C23.2328 133.88 24.4334 134.32 24.9537 134.59C25.6341 134.931 25.8642 134.981 25.7642 134.751C25.6941 134.58 25.454 133.83 25.2439 133.1C25.0338 132.359 24.5735 130.358 24.2133 128.647C23.8631 126.926 23.4229 124.175 23.2428 122.514C23.0527 120.863 22.8826 119.122 22.7925 117.781L21.2317 117.391C20.3812 117.171 18.9804 116.711 18.12 116.36C17.2695 116.01 16.369 115.6 16.1189 115.46C15.8787 115.32 15.7287 115.16 15.7887 115.11C15.8487 115.07 16.6492 114.589 17.5697 114.059C18.5402 113.489 19.931 112.378 20.9115 111.398C22.1122 110.197 22.8526 109.196 23.5029 107.926C24.0332 106.905 24.8537 104.624 25.444 102.583C26.0143 100.622 26.8848 98.1604 27.3751 97.1199C27.8753 96.0793 28.7058 94.6785 29.2261 93.9981C29.7464 93.3278 30.7069 92.3272 31.3673 91.7869C32.0376 91.2466 32.678 90.7163 32.798 90.6063C32.9181 90.5062 32.3178 90.6663 31.4573 90.9565C30.6068 91.2466 28.6257 91.7569 27.0749 92.0771C25.3539 92.4373 23.0727 92.7174 21.2917 92.8075C19.5908 92.8875 17.4096 92.8375 16.1189 92.6974C14.8982 92.5673 13.0972 92.2472 12.1167 91.997C11.1361 91.7469 9.68533 91.2866 8.89489 90.9665C8.09445 90.6563 6.79374 90.0159 6.0033 89.5457C5.21287 89.0854 3.96218 88.2049 3.22177 87.5946C2.49137 86.9843 1.47081 85.9437 0.950523 85.2833C0.430237 84.623 0.0100055 83.9826 0 83.8626C0 83.7425 0.670369 83.5624 1.50083 83.4623C2.32128 83.3623 4.30237 82.9421 5.89324 82.5318C7.48412 82.1216 9.55525 81.4813 10.5058 81.101C11.4563 80.7208 13.0072 80.0204 13.9477 79.5502C14.8982 79.0699 16.4791 78.0894 17.4496 77.359C18.4301 76.6386 19.6408 75.548 20.1411 74.9377C20.6313 74.3373 21.2617 73.5169 21.5218 73.1166C21.792 72.7164 22.0121 72.3462 22.0121 72.2762C22.0121 72.2162 21.5318 72.1661 20.9515 72.1761C20.3712 72.1761 18.9504 71.936 17.7898 71.6458C16.6291 71.3557 14.9282 70.7353 14.0077 70.2551C12.8771 69.6648 11.7965 68.8543 10.6559 67.7137C9.53524 66.5931 8.71479 65.5325 8.1845 64.4819C7.74426 63.6214 7.22397 62.3707 7.02386 61.7004C6.82375 61.02 6.66366 60.2996 6.66366 60.0795C6.67367 59.7793 6.86377 59.6893 7.50413 59.6893C7.96438 59.6893 8.98494 59.5292 9.78538 59.3291C10.5758 59.129 11.7765 58.6887 12.4468 58.3485C13.1272 58.0083 14.0777 57.438 14.568 57.0678C15.0483 56.7076 16.6492 55.3369 18.12 54.0161C19.5908 52.6954 21.6919 51.0245 22.7925 50.3041C23.8931 49.5837 25.8442 48.5331 29.4562 46.9523L30.3467 45.3914C30.837 44.5209 31.8675 43.0601 32.648 42.1196C33.4184 41.1891 34.7191 39.8383 35.5295 39.118C36.35 38.4076 37.8208 37.327 38.8013 36.7266C39.7819 36.1163 41.3327 35.3359 42.2432 34.9757C43.1637 34.6255 44.7646 34.1052 45.8052 33.815C47.4961 33.3548 48.1765 33.3048 52.4689 33.2947C56.351 33.2947 57.5917 33.3748 59.0325 33.705C60.013 33.9351 61.764 34.4254 62.9246 34.7956C64.0852 35.1658 65.8362 35.8361 66.8167 36.2864C67.7973 36.7466 69.2981 37.5471 70.1486 38.0774C71.2792 38.7678 71.6494 38.9178 71.5093 38.6177C71.3993 38.3875 71.0691 37.397 70.7789 36.4165C70.4087 35.1558 70.2586 34.0852 70.2586 32.7945C70.2586 31.6739 70.4187 30.4532 70.6589 29.6728C70.879 28.9724 71.3693 27.8918 71.7595 27.2814C72.1397 26.6711 72.77 25.8607 73.8406 24.8301L74.6511 25.8306C75.0913 26.3809 76.362 27.7417 77.4726 28.8623C78.5832 29.9829 80.1341 31.3137 80.9345 31.8139C81.765 32.3542 82.8956 32.8545 83.606 33.0046C84.5265 33.2047 85.2369 33.2047 86.4876 33.0146C87.4081 32.8845 89.0089 32.5043 90.0495 32.1741C91.0901 31.8439 92.8911 31.1736 94.0517 30.6833C95.2124 30.193 98.9144 28.4621 102.276 26.8312C105.638 25.2103 110.091 23.1292 112.172 22.1986C114.253 21.2781 117.004 20.1275 118.285 19.6372C119.576 19.147 121.927 18.3365 123.508 17.8362C125.099 17.336 127.7 16.6256 129.291 16.2754C130.882 15.9152 132.983 15.515 133.964 15.3749C134.944 15.2448 136.045 15.0947 136.405 15.0447C136.775 14.9947 139.927 14.9847 143.409 15.0247ZM35.1293 113.719C34.0887 114.79 32.818 115.95 32.2978 116.3L31.3472 116.951C33.0182 119.102 34.1988 120.263 35.0393 120.903C35.9498 121.603 37.3005 122.354 38.3511 122.764C39.3316 123.144 40.6323 123.544 41.2427 123.654C41.853 123.765 43.2538 123.855 44.3544 123.855C45.455 123.845 47.0059 123.704 47.8063 123.544C48.5967 123.374 49.9975 122.924 50.918 122.544C51.8385 122.154 53.3093 121.413 54.1998 120.893L55.8207 119.952C53.1392 119.012 51.0581 118.081 49.4672 117.291C47.8063 116.46 45.7852 115.23 44.6946 114.389C43.654 113.579 42.2032 112.468 41.4628 111.918C40.3922 111.108 39.962 110.917 39.2416 110.927C38.7513 110.927 38.0509 111.128 37.6907 111.358C37.3205 111.588 36.1699 112.648 35.1293 113.719Z" fill="#FAAF19"/>
<path fill-rule="evenodd" clip-rule="evenodd" d="M143.189 19.7068C145.99 19.7568 149.172 19.9369 150.413 20.127C151.643 20.3071 153.795 20.7173 155.195 21.0375C156.606 21.3477 159.058 22.048 160.648 22.5783C162.229 23.1186 164.481 23.9791 165.651 24.4994C166.812 25.0297 168.663 25.9502 169.763 26.5605C170.864 27.1709 172.765 28.3515 173.986 29.182C175.206 30.0124 177.308 31.6333 178.658 32.7839C179.999 33.9346 181.85 35.7256 182.771 36.7561C183.691 37.7967 185.012 39.3876 185.702 40.3081C186.393 41.2286 187.523 42.8795 188.214 43.9901C188.914 45.0907 190.015 47.0918 190.665 48.4426C191.315 49.7933 192.216 51.9445 192.656 53.2352C193.106 54.5159 193.717 56.577 194.017 57.7977C194.307 59.0284 194.707 61.1596 194.887 62.5303C195.067 63.9211 195.217 66.7426 195.217 68.8838C195.217 70.995 195.117 73.5764 194.987 74.617C194.867 75.6575 194.637 77.0883 194.217 79.0794H177.157C161.009 79.0794 160.098 79.0494 160.198 78.6892C160.258 78.4691 160.458 77.5886 160.638 76.7381C160.818 75.8777 160.969 74.0266 160.969 72.6159C160.979 70.8149 160.839 69.5041 160.528 68.2134C160.288 67.2029 159.808 65.7521 159.468 64.9817C159.118 64.2212 158.437 62.9906 157.937 62.2502C157.447 61.5198 156.346 60.2691 155.486 59.4686C154.575 58.6182 153.254 57.6776 152.284 57.1874C151.383 56.7271 149.842 56.1468 148.862 55.8967C147.661 55.5965 146.351 55.4564 144.86 55.4564C143.639 55.4564 141.708 55.6165 140.577 55.7966C139.447 55.9767 137.546 56.437 136.355 56.8172C135.164 57.1974 133.183 57.9878 131.963 58.5781C130.742 59.1685 128.841 60.239 127.74 60.9695C126.64 61.6898 124.839 63.0406 123.738 63.9611C122.638 64.8916 120.837 66.5925 119.736 67.7532C118.635 68.9138 116.934 70.9149 115.954 72.1856C114.983 73.4663 113.442 75.6575 112.552 77.0683C111.651 78.4791 110.291 80.8804 109.51 82.4112C108.73 83.9521 107.649 86.3034 107.099 87.6541C106.549 88.9949 105.738 91.2061 105.308 92.5568C104.878 93.8976 104.267 96.0087 103.957 97.2294C103.657 98.4601 103.177 100.761 102.907 102.352C102.496 104.774 102.406 106.104 102.406 110.377C102.396 114.419 102.486 115.97 102.807 117.731C103.037 118.951 103.457 120.802 103.757 121.853C104.057 122.894 104.648 124.544 105.068 125.525C105.498 126.506 106.309 128.086 106.889 129.047C107.469 130.007 108.6 131.498 109.39 132.369C110.191 133.239 111.491 134.45 112.282 135.05C113.082 135.651 114.633 136.591 115.734 137.121C116.834 137.662 118.735 138.372 119.956 138.702C121.947 139.232 122.587 139.303 126.069 139.323C129.191 139.333 130.272 139.253 131.512 138.922C132.373 138.692 133.974 138.092 135.074 137.572C136.175 137.061 137.726 136.191 138.516 135.651C139.317 135.11 140.707 133.97 141.608 133.109C142.508 132.239 143.909 130.688 144.72 129.647C145.53 128.617 146.791 126.756 147.531 125.525C148.272 124.304 149.172 122.613 150.193 120.272L169.033 120.282C186.833 120.292 187.883 120.312 187.883 120.682C187.883 120.892 187.623 122.023 187.303 123.184C186.983 124.344 186.323 126.305 185.842 127.526C185.352 128.757 184.421 130.858 183.771 132.209C183.121 133.559 181.8 135.961 180.84 137.552C179.879 139.152 178.398 141.454 177.548 142.684C176.697 143.905 174.996 146.156 173.766 147.687C172.545 149.218 170.084 151.969 168.313 153.79C166.542 155.612 164.04 158.013 162.76 159.123C161.469 160.234 159.318 161.965 157.977 162.966C156.626 163.966 154.375 165.507 152.974 166.387C151.563 167.268 149.262 168.569 147.861 169.289C146.451 170.009 144.399 170.97 143.299 171.43C142.198 171.88 140.447 172.551 139.407 172.901C138.366 173.261 136.365 173.842 134.964 174.202C133.554 174.552 131.452 175.002 130.292 175.192C129.131 175.382 126.68 175.643 124.849 175.773C122.417 175.953 120.726 175.943 118.625 175.763C117.034 175.622 114.683 175.312 113.392 175.062C112.112 174.812 109.911 174.262 108.5 173.832C107.099 173.401 103.197 171.971 99.835 170.64C96.4731 169.309 92.7211 167.918 91.4904 167.548C90.2697 167.178 88.6688 166.748 87.9384 166.588C87.158 166.417 85.1269 166.297 83.0457 166.307C80.1041 166.307 79.1436 166.397 77.4827 166.808C76.3821 167.088 74.5811 167.748 73.4805 168.278C72.3799 168.819 70.6789 169.849 69.7084 170.57C68.7279 171.3 66.6267 173.131 65.0358 174.642C63.445 176.153 61.5439 177.834 60.8135 178.384C60.0731 178.924 58.9025 179.665 58.2021 180.015C57.4917 180.375 56.241 180.825 55.4205 181.015C54.3399 181.276 53.3794 181.336 52.0287 181.246C50.9881 181.176 49.5873 180.955 48.917 180.755C48.2466 180.565 47.6262 180.335 47.5362 180.255C47.4461 180.175 47.8964 179.835 48.5367 179.495C49.1771 179.164 50.2877 178.364 51.0081 177.714C51.7285 177.073 52.689 175.993 53.1493 175.312C53.5995 174.642 54.3199 173.391 54.7502 172.531C55.1704 171.67 56.1009 169.419 56.8013 167.518C57.5117 165.617 58.4822 163.266 58.9625 162.285C59.4528 161.305 60.2732 159.894 60.8035 159.163C61.3238 158.433 62.2943 157.312 62.9547 156.692C63.605 156.072 64.8457 155.111 65.7062 154.551C66.5567 154.001 68.1075 153.2 69.1481 152.77C70.1887 152.33 71.2092 151.919 71.4293 151.839C71.6395 151.759 71.8196 151.629 71.8196 151.529C71.8296 151.439 71.1492 151.129 70.3187 150.839C69.2581 150.469 68.1275 150.289 66.4766 150.209C64.7357 150.128 63.0247 150.249 59.7029 150.679C56.7913 151.059 54.2199 151.259 52.2488 151.259C49.9976 151.249 48.7769 151.139 47.3561 150.799C46.3155 150.549 44.6646 149.958 43.6941 149.498C42.7135 149.048 41.3128 148.257 40.5824 147.757C39.842 147.257 38.6013 146.256 37.8209 145.546C37.0304 144.826 35.7797 143.435 35.0293 142.454C34.2789 141.474 33.3484 140.173 32.9582 139.563C32.578 138.942 31.7675 137.391 31.1572 136.111C30.5469 134.82 29.7764 132.969 29.4463 131.989C29.1261 131.008 28.6158 129.147 28.3156 127.866C27.9354 126.235 27.7353 124.534 27.5152 119.061L28.5057 120.402C29.046 121.133 30.0866 122.283 30.817 122.964C31.5474 123.634 32.7381 124.584 33.4685 125.065C34.1989 125.545 35.3995 126.215 36.1299 126.546C36.8603 126.886 38.3111 127.376 39.3517 127.656C40.8325 128.046 41.8831 128.166 44.1343 128.176C45.7852 128.186 47.6963 128.066 48.5868 127.886C49.4372 127.716 50.838 127.326 51.6985 127.026C52.549 126.726 54.8002 125.745 56.7012 124.855C58.5923 123.964 60.9436 122.974 61.9241 122.643C62.9047 122.323 64.5055 121.903 65.4761 121.723C66.4566 121.533 67.4872 121.333 67.7573 121.283C68.0375 121.223 68.2676 121.052 68.2676 120.902C68.2776 120.752 67.7973 120.162 67.217 119.602C66.6267 119.041 65.426 118.211 64.5355 117.761C63.6451 117.31 62.1442 116.68 61.2037 116.36C60.2532 116.04 57.9719 115.439 56.1409 115.029C53.7696 114.499 52.2988 114.029 51.0281 113.398C50.0476 112.918 48.3967 111.837 47.3561 110.997C46.3155 110.157 44.8647 108.986 44.1343 108.386C43.4039 107.785 42.1532 106.985 41.3528 106.615C40.2422 106.094 39.6018 105.944 38.5813 105.944C37.6708 105.954 36.9604 106.104 36.35 106.414C35.8598 106.675 35.0593 107.265 34.5791 107.745C34.0888 108.225 32.8881 109.436 31.9076 110.457C30.6969 111.717 29.7064 112.508 28.7959 112.958C27.9254 113.398 26.9549 113.668 24.5736 113.899L25.6842 112.888C26.2945 112.328 27.115 111.337 27.5152 110.677C27.9054 110.016 28.4357 108.886 28.6958 108.145C28.956 107.415 29.4563 105.504 29.8165 103.913C30.2767 101.872 30.747 100.461 31.4073 99.1404C31.9876 97.9798 32.8681 96.6991 33.7086 95.7986C34.5891 94.8381 35.5796 94.0576 36.5902 93.5173C37.4406 93.0571 38.7814 92.5368 39.5818 92.3467C40.3723 92.1566 41.8431 91.9965 42.8536 91.9965C43.8642 91.9965 45.4651 92.1566 46.4156 92.3467C47.3661 92.5368 49.037 92.9971 50.1376 93.3673C51.2382 93.7275 53.1893 94.4879 54.47 95.0382C55.7607 95.5985 57.5117 96.2989 58.3622 96.589C59.2226 96.8792 60.0931 97.1193 60.3132 97.1193C60.5233 97.1193 60.7034 97.0493 60.7034 96.9492C60.7134 96.8592 60.2332 96.439 59.6529 96.0087C59.0625 95.5885 57.6518 94.3378 56.5011 93.2272C55.3605 92.1166 53.6195 90.2155 52.649 88.9849C51.6685 87.7642 50.2577 86.1233 49.5073 85.3529C48.6568 84.4824 47.6262 83.6919 46.8058 83.2917C46.0654 82.9315 44.8647 82.5313 44.1343 82.3912C43.3939 82.2512 41.8631 82.1911 40.6924 82.2612C39.5018 82.3312 37.9409 82.5813 37.1305 82.8415C36.34 83.0916 34.389 84.0121 32.7981 84.8826C31.2072 85.7531 29.3062 86.7036 28.5758 86.9938C27.8354 87.2939 26.6347 87.6842 25.9043 87.8643C25.1739 88.0544 23.523 88.3145 22.2323 88.4546C20.9516 88.5946 19.1006 88.6447 18.12 88.5646C17.1395 88.4846 15.7387 88.2745 15.0083 88.0844C14.2779 87.8943 12.8971 87.374 11.9466 86.9237C10.9961 86.4635 10.2157 86.0132 10.2257 85.9232C10.2257 85.8331 10.6059 85.7031 11.0661 85.633C11.5164 85.563 12.7971 85.1427 13.8977 84.7125C14.9983 84.2723 16.4991 83.5719 17.2295 83.1416C17.9699 82.7114 19.1206 81.931 19.7909 81.4107C20.4613 80.8904 21.8621 79.5597 22.9027 78.4691C23.9432 77.3785 25.8943 75.2973 27.235 73.8465C28.5858 72.3957 30.2367 70.7949 30.9071 70.3046C31.5774 69.8143 32.8281 69.0339 33.6886 68.5836C34.539 68.1234 36.0399 67.503 37.0204 67.1929C38.001 66.8827 39.952 66.4625 41.3528 66.2524C43.3739 65.9622 44.8247 65.9022 48.2466 66.0022C51.5084 66.0923 53.0793 66.2323 54.5901 66.5825C55.6907 66.8327 58.7924 67.7832 61.4739 68.6937C64.2754 69.6442 67.2771 70.5047 68.4777 70.7048C69.6484 70.8949 70.9191 71.055 71.3193 71.055C71.7095 71.055 72.0397 70.975 72.0497 70.8849C72.0497 70.7949 71.2292 70.0645 70.2087 69.274C69.1981 68.4736 67.3071 66.7726 66.0164 65.4819C64.7257 64.2012 62.8746 62.1401 61.9041 60.9194C60.9336 59.6887 58.9925 57.0973 57.5917 55.1462C56.181 53.1952 54.3299 50.8539 53.4695 49.9434C52.619 49.0229 51.3183 47.8923 50.5879 47.412C49.8475 46.9317 48.4767 46.2914 47.5262 45.9912C46.5457 45.671 44.9648 45.3809 43.8542 45.3008C42.4734 45.2108 41.4328 45.2708 40.2422 45.531C39.3317 45.7211 37.9809 46.1613 37.2405 46.5115C36.5101 46.8517 35.4295 47.452 34.8492 47.8422C34.2689 48.2324 33.7486 48.5326 33.6886 48.5026C33.6386 48.4626 34.2189 47.5921 34.9893 46.5515C35.7697 45.511 36.9904 44.1202 37.7108 43.4598C38.4312 42.8095 39.5718 41.899 40.2422 41.4387C40.9126 40.9685 42.0132 40.3181 42.6935 39.9779C43.3639 39.6377 44.6146 39.1174 45.4651 38.8273C46.3255 38.5271 47.8764 38.1469 48.917 37.9668C49.9575 37.7767 51.9086 37.6366 53.2493 37.6366C54.7402 37.6366 56.4811 37.8067 57.7018 38.0569C58.8024 38.277 60.6534 38.8473 61.8141 39.3075C62.9747 39.7678 64.4755 40.4582 65.1459 40.8284C65.8163 41.1986 67.9674 42.4593 69.9285 43.6199C71.8796 44.7805 74.6811 46.3114 76.1519 47.0218C77.6227 47.7322 79.7739 48.6227 80.9346 49.0129C82.0952 49.4031 83.9963 49.9034 85.1569 50.1235C86.3175 50.3436 87.7383 50.5537 88.3086 50.5937C88.8789 50.6338 89.4192 50.5937 89.5093 50.5037C89.6093 50.4136 89.5093 50.3336 89.3092 50.3336C89.1091 50.3336 88.909 50.2636 88.8789 50.1735C88.8489 50.0735 88.2786 49.7133 87.6082 49.3531C86.9279 48.9929 85.6272 48.2024 84.7167 47.5921C83.7961 46.9818 82.1352 45.571 81.0346 44.4504C79.7939 43.2097 78.5733 41.6989 77.8629 40.5382C77.2225 39.4876 76.4121 37.8367 76.0619 36.8562C75.7117 35.8757 75.3515 34.5749 75.0914 32.844L75.9718 33.8545C76.4621 34.4048 77.5527 35.3253 78.3932 35.9057C79.2436 36.496 80.5344 37.1864 81.2648 37.4565C82.3353 37.8467 83.0557 37.9368 84.9368 37.9268C86.2175 37.9168 88.0185 37.7567 88.939 37.5566C89.8595 37.3665 91.7105 36.8362 93.0512 36.3859C94.392 35.9357 96.6932 35.0452 98.164 34.4048C99.6349 33.7645 103.937 31.7334 107.729 29.8924C111.521 28.0513 115.774 26.0502 117.174 25.4399C118.585 24.8296 120.987 23.869 122.507 23.3187C124.038 22.7684 126.39 22.008 127.74 21.6278C129.081 21.2576 131.232 20.7373 132.513 20.4872C133.804 20.237 135.605 19.9369 136.515 19.8268C137.436 19.7068 140.437 19.6567 143.189 19.7068ZM37.6908 50.8739C39.6419 50.9339 41.2928 51.104 42.1332 51.3342C42.8636 51.5443 44.4145 52.1546 45.5851 52.7049C46.7458 53.2552 48.3466 54.1757 49.1371 54.746C49.9375 55.3163 51.4083 56.557 52.4189 57.5176C53.4294 58.4681 54.2099 59.3185 54.1598 59.4186C54.0998 59.5086 53.3294 59.3986 52.4289 59.1885C51.5384 58.9683 49.9575 58.7282 48.917 58.6482C47.7263 58.5581 46.4856 58.6182 45.5851 58.7882C44.7847 58.9483 43.6341 59.2585 43.0237 59.4886C42.4134 59.7088 40.1621 61.0595 38.021 62.4803C35.5096 64.1512 33.4985 65.3018 32.3478 65.7421C31.3773 66.1223 29.6264 66.6226 28.4557 66.8727C27.0149 67.1629 25.434 67.3129 23.453 67.3129C21.4619 67.3229 20.0811 67.2129 19.0105 66.9527C18.15 66.7426 16.7593 66.2023 15.9088 65.7521C15.0583 65.3018 13.8777 64.4514 13.2974 63.871C12.707 63.2907 12.2268 62.7404 12.2268 62.6404C12.2268 62.5503 12.597 62.4102 13.0572 62.3202C13.5175 62.2301 14.6981 61.7599 15.6787 61.2696C16.6492 60.7794 18.2701 59.7488 19.2606 58.9784C20.2512 58.2079 21.9021 56.9272 22.9327 56.1368C23.9532 55.3364 25.444 54.2958 26.2345 53.8155C27.0349 53.3353 28.3857 52.6449 29.2361 52.2747C30.0966 51.9145 31.6475 51.4242 32.688 51.2041C34.1789 50.8739 35.2294 50.8039 37.6908 50.8739ZM22.6525 138.662C22.9727 138.752 23.7731 139.192 24.4435 139.633C25.1039 140.083 26.0844 140.953 26.6147 141.564C27.145 142.174 28.7459 144.435 30.1767 146.577C31.9676 149.278 33.3084 151.029 34.5591 152.28C35.8098 153.53 36.7903 154.291 37.8008 154.781C38.5913 155.171 39.9921 155.652 40.9126 155.842C42.0432 156.082 43.1238 156.152 44.2444 156.072C45.1649 156.002 46.8658 155.652 48.0265 155.291C49.1871 154.931 51.2883 154.231 52.699 153.73C54.0998 153.23 56.0009 152.72 56.9214 152.59C57.8419 152.46 59.0926 152.41 59.7029 152.48C60.3132 152.55 61.2838 152.73 61.8741 152.88C62.4544 153.03 62.9347 153.2 62.9347 153.26C62.9347 153.32 62.2543 153.77 61.4238 154.261C60.6034 154.751 59.1726 155.742 58.2521 156.472C57.3416 157.202 55.4906 158.953 54.1398 160.374C52.7991 161.795 50.9481 163.676 50.0276 164.576C49.067 165.507 47.7463 166.518 46.9159 166.958C46.1154 167.368 44.8147 167.888 44.0243 168.088C43.1638 168.318 41.723 168.469 40.4623 168.479C39.1716 168.479 37.7908 168.329 36.9104 168.098C36.1099 167.888 34.8592 167.388 34.1288 166.978C33.3984 166.568 32.2078 165.697 31.4874 165.037C30.767 164.376 29.6163 162.986 28.936 161.945C28.2456 160.904 27.3251 159.203 26.8748 158.163C26.4346 157.122 25.8543 155.561 25.6041 154.711C25.344 153.851 24.9338 152.15 24.6836 150.919C24.4335 149.698 24.1333 147.487 24.0233 146.016C23.8832 144.145 23.6431 142.814 23.2228 141.564C22.8926 140.583 22.5024 139.493 22.3524 139.142C22.0822 138.512 22.0922 138.502 22.6525 138.662Z" fill="#D2001C"/>
</svg>
