<svg width="200" height="200" viewBox="0 0 200 200" fill="none" xmlns="http://www.w3.org/2000/svg">
<path d="M199.525 75.1274C196.782 56.009 180.084 50.0799 170.081 48.2245L178.632 42.5777C178.632 42.5777 133.78 32.8572 75.7793 51.1689C22.7801 67.9076 -3.96147 94.1652 0.475314 125.102C3.21804 144.22 19.9164 150.149 29.9596 152.004L21.3684 157.651C21.3684 157.651 66.2201 167.412 124.221 149.1C177.22 132.321 203.961 106.104 199.525 75.1274Z" fill="#A4A9AD"/>
<path d="M196.863 75.9743C193.233 50.725 162.054 50.2813 162.054 50.2813L171.049 44.3522C171.049 44.3522 128.496 37.4551 76.1826 53.9518C29.9999 68.5527 -1.42046 92.5516 3.13732 124.254C6.7674 149.504 37.9457 149.947 37.9457 149.947L28.9512 155.876C28.9512 155.876 71.5038 162.773 123.817 146.277C170 131.676 201.42 107.677 196.863 75.9743Z" fill="white"/>
<path d="M192.022 77.5065C187.384 45.2391 137.45 52.0959 111.636 60.2434C103.836 62.6529 96.2084 65.5907 88.8071 69.0363C135.595 52.2976 168.427 64.2365 168.427 64.2365C152.858 63.1475 138.297 68.1893 138.297 68.1893C138.297 68.1893 153.987 71.3353 156.044 85.896C158.787 105.095 142.452 127.118 91.9935 143.05C75.5441 148.261 58.5669 151.629 41.374 153.093C41.374 153.093 74.0044 157.893 123.252 142.364C168.83 127.965 195.935 104.732 192.022 77.5065Z" fill="#CE1126"/>
<path d="M100.06 118.849C114.056 114.412 125.955 107.838 132.328 101.546C135.877 98.077 137.732 94.6889 137.329 91.7848C137.169 90.7062 136.676 89.7046 135.917 88.9211C131.037 83.6373 114.661 83.6776 95.8655 89.6068C74.1657 96.5039 57.4673 108.604 58.637 116.631C59.7663 124.738 78.3201 125.666 100.06 118.849Z" fill="#CE1126"/>
<path d="M98.1645 110.057C107.24 107.193 114.258 102.353 113.814 99.2069C113.371 96.1012 105.626 95.9398 96.5512 98.7632C87.5163 101.667 80.4981 106.467 80.9418 109.613C81.3855 112.719 89.1297 112.921 98.1645 110.057Z" fill="#111111"/>
<path d="M31.6133 135.992C47.142 137.081 61.7429 132.08 61.7429 132.08C61.7429 132.08 46.0529 128.893 43.9556 114.333C41.2128 95.1338 57.5885 73.1113 108.006 57.1792C124.457 51.9718 141.433 48.6035 158.626 47.136C158.626 47.136 125.995 42.3363 76.7473 57.865C31.1696 72.3046 4.10534 95.4968 7.97742 122.722C12.6159 154.99 62.5496 148.133 88.3635 139.985C96.1753 137.571 103.816 134.633 111.233 131.193C64.405 147.972 31.6133 135.992 31.6133 135.992Z" fill="#111111"/>
<path d="M92.921 77.5478C75.6176 82.9929 66.5827 89.9304 63.4367 97.1905L57.1445 111.751C57.1445 111.751 64.808 98.0779 95.7041 88.317C118.977 80.9359 133.215 82.8316 135.917 88.922C136.662 89.7312 137.152 90.7409 137.329 91.8261C137.732 94.6898 135.877 98.0779 132.328 101.547C126.479 109.734 115.347 118.568 105.586 124.537C113.37 122.077 148.461 105.459 145.92 87.712C143.54 71.2153 123.051 68.0289 92.921 77.5478Z" fill="#111111"/>
</svg>
