<svg width="200" height="200" viewBox="0 0 200 200" fill="none" xmlns="http://www.w3.org/2000/svg">
<path d="M198.899 126.459C198.899 119.172 206.045 92.114 154.081 51.1907L162.815 49.2437L158.31 34.418L149.646 40.2V31.2221H132.63C121.52 23.2168 116.181 13 98.7128 13C91.4165 13 83.7465 14.4475 82.0788 14.4475C80.7926 14.4475 76.9005 13.6254 70.2866 13.6254C51.1854 13.6254 49.4252 27.8739 51.8098 32.8771C26.6876 50.0893 14.2465 62.4852 14.2465 66.9791C14.2465 68.7038 15.2672 70.9517 15.2672 74.1947C15.2672 81.261 0 96.8291 0 105.076C0 112.756 9.79989 113.289 9.79989 113.289C10.3555 115.547 6.55686 123.088 9.96214 126.933C5.23723 132.064 10.7508 134.624 10.7508 138.701C10.7508 141.459 8.82836 142.315 8.82836 147.412C8.82836 153.227 11.5502 160.213 25.8892 160.213C31.5532 160.213 36.5701 159.333 40.5546 159.333C41.6795 171.369 46.8106 176.094 47.6562 179.106C48.3514 181.527 49.9277 186.752 53.1118 186.752C57.2713 186.752 80.2163 179.246 97.6371 168.67C106.359 171.903 117.469 170.848 121.5 170.848C125.913 170.848 127.72 173.536 130.326 173.536C131.889 173.536 143.716 160.296 142.998 131.338C150.422 143.895 154.813 152.061 155.241 156.741C164.879 153.299 172.976 130.539 169.477 116.037C169.477 116.037 181.605 135.717 200 132.822C199.941 132.865 198.899 129.239 198.899 126.459Z" fill="black"/>
<path d="M83.3176 144.447C87.7662 137.613 85.2302 125.856 76.7627 129.111C71.8756 121.13 66.3375 110.311 66.3375 96.9557C66.3375 82.72 69.2452 78.9903 69.2452 66.4105C69.2452 44.9817 59.3292 40.7416 52.971 36.4326C37.8179 46.6839 17.7215 60.7347 17.7215 68.2061C17.7215 70.4068 18.695 72.4806 18.695 74.6469C18.695 82.3837 3.63525 97.4071 3.63525 104.682C3.63525 107.415 5.81334 109.697 9.31105 109.697C12.8088 109.697 21.7168 108.435 25.064 108.042C28.4113 107.706 28.781 106.072 28.781 105.192C28.781 103.014 25.3413 99.9903 22.7355 99.9903C20.5574 99.9903 20.3608 101.266 20.3608 101.59C20.3608 103.016 22.411 103.419 22.411 103.419C25.0168 103.073 25.0286 105.354 22.5487 105.354C20.5112 105.354 18.2289 103.85 18.2289 101.254C18.2289 98.6481 20.3136 97.9991 21.8653 97.9991C28.3749 97.9991 32.1165 103.883 31.0397 107.636C39.1129 111.645 38.8808 117.518 37.5494 117.518C34.7567 117.518 36.691 110.092 26.185 110.092C23.2449 110.092 17.0813 110.972 15.6221 111.134C14.1962 111.297 13.7567 111.505 13.5836 112.722C13.3988 113.903 11.8805 118.248 11.8805 120.911C11.8805 124.849 14.5099 125.115 16.2013 125.115C20.6263 125.115 28.1193 124.05 28.1193 122.289C28.1193 121.131 26.2214 121.478 25.5252 121.478C24.1918 121.478 23.59 120.667 23.59 120.192C23.59 119.009 25.5016 118.453 27.7712 118.453C31.5353 118.453 31.9306 120.922 31.7438 122.055C31.3269 124.592 35.4038 123.978 35.4038 129.364C35.4038 129.978 35.3576 131.518 34.0714 131.518C32.7753 131.518 32.7635 129.909 32.7635 129.006C32.7635 128.125 31.2925 126.701 30.0299 126.701C28.6974 126.701 23.8545 129.19 13.4312 128.24C9.31892 133.419 14.1726 133.788 14.1726 139.013C14.1726 144.828 12.3889 144.47 12.3889 148.014C12.3889 155.091 20.1493 156.933 27.899 156.933C43.9303 156.933 62.0236 153.226 68.3946 141.748C66.2165 151.884 58.0499 155.509 44.1623 158.671C45.7376 169.92 48.0662 172.514 49.7575 175.549C51.4488 178.607 51.8195 182.858 54.8079 182.858C58.3872 182.858 79.4797 175.26 93.6692 166.699L83.3176 144.448V144.447Z" fill="#D18A00"/>
<path d="M63.2795 122.209C60.1987 118.861 55.577 109.131 64.7623 100.802C57.7433 98.9141 48.0821 117.702 63.2795 122.209ZM52.2858 57.3417C52.488 57.5809 52.7755 57.7317 53.0872 57.762C53.3989 57.7923 53.7101 57.6997 53.9545 57.504C54.3243 57.1795 54.5789 56.4026 54.0922 55.8362C53.9545 55.6622 50.8718 52.014 46.5628 48.4809C47.0722 48.0974 47.7448 47.6008 48.4626 47.0551C50.2916 48.5851 57.3814 54.6661 61.8418 60.215C62.2716 60.7244 63.0022 60.7952 63.5106 60.3891C64.0199 59.9839 64.0779 59.2543 63.6954 58.744C59.3294 53.3219 52.7608 47.6225 50.4106 45.5968C51.1855 45.0402 51.8561 44.5181 52.2052 44.2752C56.9891 47.7503 59.6982 51.0858 59.7346 51.1212C60.1397 51.6305 60.8811 51.7112 61.3797 51.306C61.889 50.8891 61.9933 50.1595 61.5881 49.6501C61.4377 49.4652 58.3795 45.7236 52.866 41.8542C52.449 41.5533 51.9043 41.5651 51.4755 41.8778L43.9698 47.4956C43.2746 48.0069 43.4142 48.9214 43.9462 49.3738C48.6396 53.0219 52.2534 57.2945 52.2878 57.3417H52.2858ZM50.0418 67.1868C42.895 67.1868 40.5429 59.5188 31.565 59.5188C26.7467 59.5188 24.2687 61.4068 24.2687 63.0057C24.2687 64.6046 26.1341 66.0049 26.1341 66.0049C27.0387 67.9755 20.7828 70.13 24.072 71.4496L28.1135 73.0249C26.8057 75.318 27.6514 79.5699 27.907 80.6359C19.6352 80.7047 20.4337 83.2761 27.6051 83.3794C27.6297 84.5623 26.7841 87.7237 28.0693 87.7237C29.4243 87.7237 31.1619 86.1366 31.8227 83.1247C37.8446 82.3833 44.6325 80.3104 44.6325 80.3104C45.8371 79.9761 47.0535 78.8747 44.725 77.4981L33.6526 70.9756C33.6526 70.9756 32.7027 70.42 33.3281 68.9716L34.1738 67.0128C34.4167 66.4228 35.0195 66.3412 35.3086 66.3412C38.4592 66.3412 43.1969 71.0553 49.4518 71.0553C52.1619 71.0553 55.1847 69.4672 55.1847 67.9381C55.1847 66.409 51.4677 67.1868 50.0418 67.1868Z" fill="black"/>
<path d="M32.9083 74.8906C32.2947 77.1818 32.7234 79.8122 32.8739 80.5074C39.9755 80.0787 42.8842 78.7817 42.8842 78.7817L32.9083 74.8906ZM21.9736 133.906C21.1968 134.29 24.3602 140.857 23.7928 143.799C24.2668 145.131 26.2364 150.019 29.56 148.328C32.8739 146.637 30.0714 142.202 29.2719 141.019C26.5383 139.731 22.7505 133.488 21.9756 133.905L21.9736 133.906ZM51.2445 87.3062C48.499 88.0368 45.9856 90.7577 41.0178 92.0911C39.1751 92.566 35.9537 92.1029 34.9939 92.1029C35.7472 93.1226 37.7276 94.8955 37.7276 94.8955C37.7276 94.8955 36.998 96.7019 36.8475 97.9409C37.6696 97.4552 40.0797 95.9959 41.9215 95.5219C46.9021 94.2121 50.4234 95.3587 53.1689 94.6409C54.4551 94.2819 56.817 93.6329 55.8681 89.9848C54.9163 86.3563 52.5189 86.9453 51.2445 87.3062Z" fill="white"/>
<path d="M80.4113 130.164C77.3767 129.285 73.7738 132.47 72.3725 137.266C70.9811 142.062 72.3135 146.66 75.3373 147.564C78.3719 148.444 81.963 145.282 83.3642 140.464C84.7665 135.668 83.4232 131.046 80.4103 130.165L80.4113 130.164ZM25.5069 132.274C24.0221 130.212 23.2236 132.065 21.6483 132.911C20.073 133.698 18.069 133.27 18.9147 135.668C19.8065 138.274 17.9185 143.568 18.7406 145.167C19.4112 146.452 20.8479 146.95 22.0181 146.371C23.0722 145.804 23.5816 144.876 23.79 143.789C24.3574 140.846 22.6553 136.78 23.4311 136.364C24.1952 135.958 26.5237 139.734 29.2455 140.996C30.2417 141.448 31.2958 141.588 32.3627 141.067C33.5329 140.453 33.9606 138.958 33.3116 137.674C32.4778 136.074 27.092 134.511 25.504 132.276L25.5069 132.274ZM46.9701 97.1294C46.1589 97.3506 44.9199 98.0459 42.8814 98.5896C40.8538 99.1344 38.305 99.1452 37.8999 97.5817C37.8556 97.4468 37.8514 97.302 37.8881 97.1648C38.0385 95.9032 39.8803 94.2246 39.8803 94.2246C39.8803 94.2246 37.4475 93.6789 36.6943 92.6483C36.6098 92.5358 36.5434 92.4107 36.4976 92.2776C36.0817 90.7259 38.3286 89.4751 40.3562 88.9412C42.3721 88.3964 43.8077 88.3964 44.6308 88.1997C46.2749 87.7592 47.6525 86.6707 47.3172 85.3736C46.6584 82.9517 43.5176 83.5427 41.7811 83.994C33.0923 86.2872 31.1709 89.8547 31.8071 92.3327C32.4561 94.8009 35.2685 95.4381 35.2685 95.4381C35.2685 95.4381 33.1386 97.3851 33.7866 99.8512C34.4238 102.307 37.8635 104.461 46.5502 102.18C48.3006 101.718 51.3351 100.685 50.7097 98.276C50.3488 96.9455 48.5995 96.7026 46.9672 97.1314L46.9701 97.1294ZM135.942 49.1172C110.596 68.0896 96.9627 96.3771 92.817 106.06C92.817 106.06 92.2722 107.195 92.9094 108.435L100.936 124.073C101.273 124.732 101.991 124.837 102.535 124.338L115.741 112.42C116.644 111.586 116.945 110.267 116.945 110.267C122.968 75.8048 131.088 58.9633 136.15 51.3297C135.978 50.7746 135.893 50.1966 135.896 49.6157C135.941 49.4407 135.941 49.2785 135.941 49.1162L135.942 49.1172Z" fill="#CF0A2C"/>
<path d="M156.977 39.0156L150.166 43.5213L151.753 48.7093L159.399 47.018L156.978 39.0137L156.977 39.0156ZM138.293 54.8375C137.795 54.4015 137.369 53.8898 137.03 53.3212C128.91 66.3405 118.543 98.9134 118.543 126.794C118.543 155.323 127.277 170.473 130.416 170.473C132.837 170.473 141.385 155.207 141.385 135.516C141.385 130.129 136.879 108.573 136.879 68.0888C136.891 59.4257 137.54 57.109 138.292 54.8384L138.293 54.8375ZM94.8203 106.905L102.013 122.451L115.102 110.323C115.102 110.323 121.415 73.5109 132.664 53.2169C102.974 82.0119 94.8203 106.905 94.8203 106.905ZM142.903 44.3453C142.208 44.3449 141.52 44.4815 140.877 44.7473C140.235 45.0132 139.651 45.403 139.16 45.8945C138.668 46.386 138.278 46.9695 138.012 47.6118C137.747 48.2541 137.61 48.9424 137.61 49.6376C137.61 52.5679 139.985 54.9299 142.903 54.9299C145.822 54.9299 148.197 52.5669 148.197 49.6366C148.197 46.7063 145.821 44.3424 142.902 44.3424L142.903 44.3453Z" fill="#00833E"/>
<path d="M122.228 54.0162C123.988 54.0162 123.768 51.6415 122.11 51.6415C96.7443 51.6415 82.2067 54.8619 79.9716 55.3949C78.5585 42.9655 71.4117 38.9929 71.4117 30.9541C71.4117 27.8252 73.4737 27.1998 75.1651 27.1998C81.0945 27.1998 85.5431 34.15 93.7668 34.15C101.412 34.15 103.056 28.7288 107.423 28.7288C113.957 28.7288 111.083 46.1269 122.667 46.1269C126.327 46.1269 128.724 44.6677 128.724 44.6677C130.312 43.7994 128.818 41.934 127.485 42.6292C127.485 42.6292 125.158 43.822 122.876 43.822C113.076 43.822 117.35 26.3659 107.182 26.3659C102.305 26.3659 100.673 31.7408 93.6419 31.7408C85.7752 31.7408 82.66 24.71 74.8642 24.71C70.4392 24.71 68.8521 27.6639 68.8521 30.6395C68.8521 39.5484 77.643 46.3236 77.643 58.5327C77.643 70.962 73.4049 81.8848 73.4049 99.1443C73.4049 119.263 92.5169 125.195 92.5169 143.949C92.5169 154.559 96.5938 161.092 101.135 161.092C103.636 161.092 105.965 159.621 107.077 155.729C107.736 155.995 108.316 156.134 108.837 156.134C110.125 156.134 114.873 154.756 114.873 149.162C114.873 133.164 87.3987 124.906 87.3987 99.8513C87.3987 87.8055 89.3329 68.5302 92.2858 68.5302C93.8395 68.5302 95.7737 75.2719 99.4681 75.2719C104.055 75.2719 102.457 61.9615 104.495 61.9615C106.14 61.9615 108.584 68.1821 111.491 68.1821C113.843 68.1821 114.62 63.352 115.627 59.5642C116.011 57.7922 113.519 57.3055 113.159 59.0892C112.523 61.9035 111.19 65.6343 111.19 65.6343C109.673 64.1396 107.275 59.575 104.356 59.575C99.7002 59.575 100.384 72.8598 99.3295 72.8598C97.3825 72.8598 96.1553 65.9568 91.9053 65.9568C86.438 65.9568 84.8273 84.9764 84.8273 99.9428C84.8273 126.271 112.326 135.097 112.326 148.893C112.326 152.357 109.789 153.55 108.769 153.55C108.364 153.55 107.958 153.434 107.53 153.307C107.668 152.356 107.739 151.291 107.739 150.121C107.739 142.001 103.268 140.461 101.45 140.461C99.6402 140.461 98.6106 142.048 98.6106 144.666C98.6106 148.176 101.715 152.067 104.737 154.302C104.275 156.492 103.325 158.508 101.285 158.508C97.3362 158.508 95.0903 149.343 95.0903 143.866C95.0903 124.07 75.9881 118.347 75.9881 98.574C75.9881 81.7324 80.239 70.9374 80.239 59.7481C80.239 59.0647 80.2272 58.393 80.1928 57.7224C82.8085 57.1383 99.1761 53.4783 122.226 54.0113L122.228 54.0162Z" fill="#FFD100"/>
<path d="M101.899 142.953C101.54 142.953 101.181 143.474 101.181 144.829C101.181 146.37 102.907 149.555 105.061 151.663C105.13 150.575 105.12 149.671 105.12 149.195C105.118 147.413 104.111 142.953 101.899 142.953Z" fill="black"/>
<path d="M135.003 60.2842C135.003 60.2842 120.548 90.7134 120.548 126.17C120.548 149.649 127.833 167.592 129.849 167.592C131.436 167.592 138.849 156.415 138.849 133.085C138.849 123.68 133.764 87.8873 135.003 60.2842Z" fill="#FFD100"/>
<path d="M128.111 104.949L122.887 108.98C122.273 114.03 121.867 119.254 121.798 124.617L127.544 120.701C127.59 116.115 127.741 110.867 128.111 104.948V104.949ZM131.981 81.1325C131.064 88.8418 130.361 96.5751 129.872 104.323L135.711 108.633C134.924 100.049 134.102 90.4358 133.742 81.2505C133.696 79.9426 132.247 78.7135 131.982 81.1344L131.981 81.1325ZM129.235 121.594L137.332 127.177C137.043 122.693 136.452 116.856 135.837 110.37L129.78 105.864C129.466 111.102 129.284 116.347 129.235 121.594ZM130.209 81.1915C130.415 79.6044 129.096 79.859 128.829 80.7863C126.64 88.2007 124.463 97.2473 123.106 107.161L128.192 103.246C128.682 95.8787 129.354 88.5251 130.208 81.1915H130.209ZM123.06 143.22C123.466 145.93 123.941 148.445 124.486 150.726C125.32 151.631 127.648 153.285 129.617 147.379C132.964 152.927 135.072 152.197 135.721 151.722C136.174 149.684 136.579 147.447 136.903 144.957L128.876 139.617L123.062 143.22H123.06ZM129.733 138.587L137.088 143.498C137.454 140.051 137.636 136.586 137.633 133.119C137.633 131.961 137.564 130.536 137.471 128.891L129.236 123.239C129.213 130.235 129.513 135.366 129.733 138.587ZM127.52 122.324L121.797 126.24C121.797 131.845 122.203 137.081 122.864 141.783L128.019 138.575C127.74 135.123 127.498 129.689 127.519 122.323L127.52 122.324Z" fill="#00833E"/>
<path d="M104.574 90.1902C101.064 95.9702 98.2151 102.108 96.9634 104.947C96.4658 106.163 96.2573 106.847 96.2573 106.847L102.431 120.167L113.806 109.58C113.944 108.988 114.964 103.324 116.724 95.6673C119.284 84.8251 123.559 68.9443 128.262 59.3076C117.883 70.5196 109.508 82.3225 104.573 90.1882L104.574 90.1902Z" fill="#CF0A2C"/>
<path d="M142.904 53.0075C144.772 53.0075 146.286 51.493 146.286 49.6249C146.286 47.7567 144.772 46.2422 142.904 46.2422C141.035 46.2422 139.521 47.7567 139.521 49.6249C139.521 51.493 141.035 53.0075 142.904 53.0075Z" fill="#CF0A2C"/>
<path d="M119.968 71.6448C119.679 71.4943 119.285 71.6104 119.157 71.9103C116.97 76.2508 114.91 80.6548 112.982 85.1165L105.754 88.3123C105.349 88.9514 104.977 89.5513 104.608 90.1668L112.254 86.7842C110.262 91.4649 108.652 95.7148 107.296 99.4102L97.6594 103.314C97.4289 103.848 97.2047 104.385 96.9868 104.924L106.74 100.961C103.75 109.477 102.523 114.711 102.489 114.792C102.42 115.104 102.616 115.475 102.951 115.51C103.03 115.528 103.112 115.529 103.192 115.514C103.271 115.5 103.348 115.469 103.416 115.425C103.483 115.381 103.542 115.323 103.588 115.256C103.633 115.189 103.665 115.114 103.681 115.034C103.705 114.966 104.886 109.951 107.758 101.713L112.936 110.412L113.817 109.578L113.84 109.554L108.291 100.218C109.496 96.8358 110.956 92.9792 112.728 88.7509L116.735 95.644C116.873 95.0638 116.978 94.4837 117.14 93.8937L113.341 87.325C115.288 82.7388 117.545 77.7346 120.244 72.4531C120.396 72.1758 120.257 71.8287 119.968 71.6428V71.6448Z" fill="white"/>
<path d="M146.75 34.0361H135.595L142.718 41.7504H146.75V34.0361ZM188.102 89.5895C175.951 70.0605 154.73 53.6467 149.865 50.0104C149.796 51.1333 148.706 52.9859 148.174 53.9014C147.515 54.6094 146.748 55.4423 146.366 55.6616C147.2 59.0344 148.497 63.8527 150.211 69.4479C152.772 75.6557 155.621 83.3129 158.042 91.2926C160.8 97.8937 164.009 104.473 167.635 110.3C182.682 134.486 197.705 131.161 197.705 131.161C195.122 127.051 202.697 113.091 188.103 89.5885L188.102 89.5895Z" fill="#FF671B"/>
<path d="M183.608 90.9776C174.017 75.5393 153.584 57.1785 148.951 53.0898C148.685 53.5992 148.313 54.0732 147.908 54.5029C150.827 62.7963 162.202 93.9326 172.685 110.775C182.912 127.246 192.909 126.436 192.909 126.436C192.909 126.436 196.268 111.388 183.607 90.9767L183.608 90.9776Z" fill="white"/>
<path d="M149.447 55.2207C151.081 59.7617 154.29 68.5055 158.274 78.1786L159.34 72.3179L154.14 63.9537C154.096 63.8841 154.067 63.8064 154.053 63.7251C154.04 63.6438 154.043 63.5607 154.063 63.4807C154.082 63.4007 154.117 63.3254 154.167 63.2594C154.216 63.1933 154.278 63.1378 154.349 63.0962C154.661 62.9222 155.032 63.0038 155.183 63.3047L160.188 71.2972L167.901 73.2088C160.534 65.3225 153.086 58.4519 149.449 55.2207H149.447Z" fill="#FF671B"/>
<path d="M161.066 72.8037L170.275 87.6068L182.23 91.1399C178.859 85.823 174.226 80.159 169.407 74.8658L161.066 72.8037ZM159.119 80.2869C161.355 85.6618 163.823 91.2559 166.359 96.504L169.346 88.4407L160.3 73.8814L159.12 80.2869H159.119ZM191.866 125.172C192.131 122.844 192.549 116.624 190.012 108.04L182.089 106.593L186.745 114.099C186.955 114.364 186.839 114.758 186.539 114.933C186.271 115.119 185.854 115.026 185.68 114.726L180.977 107.127L177.988 116.058C184.199 123.447 189.712 124.872 191.867 125.173L191.866 125.172ZM171.248 89.1821L181.199 105.181L189.597 106.709C188.265 102.516 186.25 97.7784 183.192 92.7162L171.249 89.1831L171.248 89.1821ZM177.063 114.945L180.144 105.781L170.193 89.7623L167.135 98.0439C169.314 102.469 171.525 106.604 173.715 110.125C174.85 111.932 175.962 113.543 177.063 114.943L177.063 114.945Z" fill="#FF671B"/>
<path d="M31.8895 65.5646L27.3829 66.7692C26.433 67.0131 26.3868 67.5579 27.2905 67.9984L30.7076 69.6435C30.7903 69.6834 30.8801 69.7064 30.9718 69.711C31.0635 69.7157 31.1553 69.7019 31.2416 69.6706C31.3279 69.6392 31.4071 69.5909 31.4744 69.5285C31.5418 69.4661 31.596 69.3909 31.6339 69.3072L32.804 66.6207C33.1403 65.8213 32.7234 65.3463 31.8895 65.5666V65.5646Z" fill="#D18A00"/>
<path d="M80.9482 139.766C81.8348 136.719 81.1843 133.851 79.4953 133.359C77.8063 132.868 75.7184 134.939 74.8318 137.986C73.9453 141.033 74.5957 143.901 76.2847 144.393C77.9737 144.884 80.0616 142.813 80.9482 139.766Z" fill="#D18A00"/>
<path d="M158.043 91.3019C155.622 83.334 152.772 75.6768 150.213 69.4572C148.498 63.8522 147.2 59.0319 146.366 55.6729C144.876 56.5152 143.131 56.7865 141.455 56.4359C140.796 56.2983 140.216 56.0652 139.626 55.7643C137.471 105.713 142.429 114.354 143.332 128.624C155.934 148.49 156.386 154.281 156.386 154.281C156.386 154.281 171.109 143.96 167.726 113.335C167.245 112.618 166.778 111.891 166.325 111.156C164.222 107.732 162.289 104.207 160.533 100.593" fill="#FFD100"/>
<path d="M162.201 108.991C161.757 106.17 161.197 103.368 160.522 100.593C159.804 97.4888 158.935 94.3726 158.031 91.3144C155.61 83.3455 152.738 75.6893 150.201 69.4687C147.688 63.376 145.52 58.6845 144.478 56.4258C143.957 56.5418 143.436 56.6106 142.892 56.6106C142.393 56.6106 141.896 56.5516 141.444 56.4602C140.97 61.8351 139.256 84.8166 142.533 105.504C147.212 135.181 158.483 145.929 158.483 145.929C158.483 145.929 166.279 134.719 162.201 108.991Z" fill="#001970"/>
<path d="M147.745 90.0979L143.853 65.4949C143.669 64.3837 142.198 64.5214 142.139 66.1321C141.825 73.6034 141.687 84.133 142.59 94.8818L147.744 90.0979H147.745ZM151.846 116.045L149.924 103.881L144.515 109.257C145.371 113.785 146.39 117.804 147.48 121.407L151.846 116.045ZM142.718 96.5161C142.983 99.4562 143.377 102.399 143.829 105.295C143.968 106.117 144.073 106.928 144.212 107.704L149.691 102.318L148 91.6486L142.718 96.5161ZM145.139 65.2982C145.139 65.2982 147.154 78.0402 149.076 90.2375L157.764 95.1247C154.53 83.5076 149.979 72.1442 146.724 64.5922C146.365 63.6305 144.916 63.839 145.137 65.2982H145.139ZM155.216 130.119C155.123 129.713 152.887 120.574 152.181 117.678L147.93 122.88C149.47 127.651 151.114 131.59 152.68 134.706C153.488 133.221 155.053 130.418 155.215 130.118L155.216 130.119ZM149.331 91.8708C149.898 95.4039 150.465 98.9134 150.963 102.147L160.694 107.693C160.079 104.16 159.246 100.534 158.272 96.8976L149.33 91.8708H149.331ZM151.209 103.766C152.133 109.512 152.864 114.098 153.13 115.825L162.049 120.643C161.933 117.251 161.597 113.496 160.96 109.325L151.208 103.766H151.209ZM160.914 135.343L156.096 131.208L153.386 136.12C155.402 139.85 157.162 142.317 158.273 143.672C158.991 142.131 160.08 139.397 160.914 135.343ZM162.061 122.137L153.465 117.505C154.123 120.157 156.002 127.906 156.476 129.852L161.181 133.906C161.748 130.686 162.131 126.77 162.061 122.137Z" fill="#FFD100"/>
</svg>
