<svg width="200" height="200" viewBox="0 0 200 200" fill="none" xmlns="http://www.w3.org/2000/svg">
<path d="M199.908 151.337L195.749 158.903C185.91 174.037 170.406 180.652 155.654 181.221C140.903 181.789 136.744 175.543 133.152 172.901C129.559 170.249 124.449 157.964 124.449 157.964L124.551 154.62C121.714 155.772 118.847 156.849 115.954 157.852C102.895 162.372 89.9514 165.16 77.7396 166.336L74.7068 174.047C74.7068 174.047 20.9856 177.256 0 181.428L16.7647 153.659C11.4179 149.417 7.49479 144.214 5.38946 138.113C-4.35442 109.984 27.7505 73.2469 77.3909 55.1707L100.048 18L110.256 33.8874C124.821 36.5399 127.278 45.1486 127.278 45.1486C158.773 44.1469 183.897 54.4695 190.638 73.9592C194.901 86.2637 191.143 100.22 181.41 113.547C181.41 113.547 199.525 124.664 200 150.863L199.907 151.336L199.908 151.337Z" fill="#236192"/>
<path d="M153.322 102.161L127.72 61.3037C128.982 59.0314 128.982 54.6445 128.982 54.6445C156.8 56.3603 178.065 67.5084 182.411 85.2321C184.455 93.5607 182.503 102.347 177.384 110.8C177.393 110.811 168.321 104.69 153.322 102.161Z" fill="white"/>
<path d="M188.883 141.18C186.799 144.039 184.62 146.692 184.62 146.692C183.989 147.486 182.845 148.766 181.75 149.891L180.853 160.689L179.109 160.42C178.633 159.377 176.527 156.074 175.671 155.331C163.77 164.29 151.765 165.208 151.765 165.208C138.19 167.738 129.354 162.37 129.354 162.37C130.945 166.407 135.342 171.578 135.342 171.578C141.783 179.404 152.911 178.97 152.911 178.97C183.641 178.371 195.656 155.032 195.656 155.032L193.612 154.93C193.478 150.265 189.462 142.305 188.884 141.18H188.883Z" fill="#111111"/>
<path d="M162.695 168.979C156.646 170.754 140.563 174.44 133.079 166.037C133.079 166.037 142.215 173.614 164.325 166.285L162.695 168.979Z" fill="#A2AAAD"/>
<path d="M167.691 170.763C145.559 178.102 136.423 170.516 136.423 170.516C145.744 180.983 168.402 172.704 168.402 172.704C171.85 171.642 175.349 169.66 177.343 168.431L178.488 165.426C175.576 168.038 167.69 170.763 167.69 170.763H167.691Z" fill="#A2AAAD"/>
<path d="M65.8168 68.6836C47.0293 80.7313 33.4448 95.9138 31 120.504C31 120.504 32.176 119.409 33.0126 118.822C33.0942 125.615 37.0684 141.687 56.3614 142.451C75.6544 143.215 84.3567 137.341 90.7886 136.205C97.2187 135.07 110.08 133.553 120.671 135.07C131.263 136.587 150.421 140.83 157.297 158.75C153.012 160.215 144.124 161.547 139.2 160.98C134.286 160.412 128.228 158.142 127.473 152.464C127.091 158.895 132.202 162.105 137.879 162.673C143.557 163.242 150.163 162.735 159.061 160.526C160.96 157.935 160.96 154.178 161.053 152.371C163.035 153.775 164.552 156.428 164.924 157.75C166.627 155.098 164.479 149.233 163.283 146.777C165.863 148.479 169.166 153.807 169.404 155.117L170.776 153.404C170.591 150.195 164.996 142.06 163.819 140.542L158.925 143.608C152.99 135.238 144.102 130.324 135.596 127.868C127.091 125.41 116.787 124.121 105.196 124.863C111.762 121.819 126.894 120.497 135.782 122.572C144.669 124.657 152.671 127.908 160.969 137.819L165.386 134.794C170.01 138.83 179.25 152.105 180.839 160.662L181.655 160.57C181.655 160.57 182.047 143.755 181.541 137.695C182.923 138.83 184.721 140.647 185.144 141.566C186.713 139.584 185.577 134.288 185.071 132.152C187.848 135.053 194.279 144.704 195.601 154.944C196.665 151.444 196.294 147.656 196.169 146.272C196.045 144.89 195.292 141.359 193.021 135.558C190.748 129.757 187.725 123.078 180.159 116.77C172.592 110.464 163.777 104.797 147.498 103.908C133.623 103.155 112.7 110.969 107.147 113.241C101.604 115.513 86.5947 122.066 76.3861 123.584C66.1776 125.101 60.9439 125.709 57.568 122.127L56.5663 123.686C52.3037 122.324 47.3799 115.264 46.7501 110.597C46.1408 105.953 45.6353 101.028 50.5592 90.5716C55.4747 80.1025 63.794 71.1525 65.8177 68.6855L65.8168 68.6836Z" fill="white"/>
<path d="M45.1303 92.539C41.3518 99.1351 36.057 113.639 40.9706 123.476C45.8843 133.314 60.7691 134.573 70.2246 132.684C79.68 130.795 91.0247 126.501 95.8243 124.488C100.613 122.475 110.163 118.057 120.473 116.354C130.784 114.651 138.631 114.94 146.858 118.812C155.084 122.693 160.018 125.314 166.915 132.511L169.713 131.054L175.432 137.083L176.66 127.968L180.128 122.663C178.839 119.287 172.189 109.532 158.533 107.415C162.755 109.263 171.365 112.659 176.897 122.549L174.439 126.843L174.131 131.292L170.146 126.998L168.041 128.319C164.934 124.365 157.872 118.316 147.787 115.416C137.702 112.515 125.335 111.752 113.743 114.91C104.029 117.563 98.103 120.206 95.3364 121.465C92.5596 122.725 87.6459 125.12 81.0907 127.019C74.5363 128.908 67.982 130.291 60.0336 129.166C52.0853 128.031 45.1591 124.252 43.2596 115.427C41.3602 106.601 42.59 102.467 45.1294 92.5371L45.1303 92.539Z" fill="#236192"/>
<path d="M83.4065 151.151L81.1343 157.2C90.023 157.582 110.359 153.608 122.653 149.354C117.635 146.423 104.774 143.77 83.4065 151.151Z" fill="white"/>
<path d="M51.128 103.245L100.14 23.3887L149.884 101.789C146.768 101.407 141.336 101.789 138.694 102.234C136.041 102.677 130.115 103.936 128.485 104.38C126.843 104.825 118.399 107.218 115.56 108.158C112.721 109.098 104.649 111.937 102.131 112.887C99.6007 113.826 93.294 116.479 90.8993 117.295C88.5046 118.111 83.9007 119.69 79.2346 120.64C74.5695 121.59 70.1613 122.467 65.5574 122.022C60.9535 121.579 58.5792 120.238 56.5462 118.368C55.0289 116.986 52.3968 113.61 51.6325 109.161C50.9926 105.507 51.0761 104.081 51.1271 103.246L51.128 103.245Z" fill="#A2AAAD"/>
<path d="M100.191 28.6426L146.385 101.634C143.609 101.654 140.502 101.923 138.695 102.233C136.042 102.678 130.116 103.936 128.485 104.381C126.844 104.826 118.4 107.219 115.561 108.159C112.722 109.1 104.651 111.938 102.132 112.887C99.6025 113.827 93.2958 116.479 90.9002 117.296C88.5074 118.112 83.9025 119.691 79.2365 120.641C74.5714 121.591 70.1631 122.468 65.5592 122.023C60.9553 121.58 58.581 120.238 56.5481 118.369C55.0317 116.987 52.3995 113.611 51.6353 109.162C51.5732 108.811 51.511 108.48 51.4702 108.171L100.192 28.6444L100.191 28.6426ZM67.3131 119.554C79.3088 121.071 105.972 108.654 105.972 108.654C130.633 99.1359 138.81 100.056 138.81 100.056C129.747 96.6179 106.707 106.042 106.707 106.042L100.502 86.1293L90.4801 112.772C73.0642 119.141 67.3149 119.554 67.3149 119.554H67.3131Z" fill="#6F263D"/>
<path d="M93.998 111.161L103.888 107.084L100.099 95.0586L93.998 111.161Z" fill="#236192"/>
<path d="M23.8038 142.295C18.7974 137.899 15.3501 132.612 13.8633 126.574C8.40247 104.296 31.4313 78.8725 67.3239 64.8438C67.3239 64.8438 39.4631 77.4572 27.6027 104.938C22.038 117.839 24.8259 131.414 27.727 136.08L23.8038 142.294V142.295Z" fill="white"/>
<path d="M68.749 64.9994L69.5957 63.6777C62.9783 66.5158 53.9866 72.8438 51.0558 75.2079C48.125 77.5729 42.4471 82.392 38.4832 87.1202C34.5192 91.8484 30.8242 97.721 28.4601 102.924C26.0951 108.127 24.5787 113.134 24.2068 121.835C23.8349 130.536 29.3171 138.95 29.3171 138.95L5.38867 177.908C5.38867 177.908 12.5728 176.773 14.5659 176.494C16.5479 176.216 24.4034 175.266 27.7061 174.884C31.0199 174.502 41.9825 173.469 46.246 173.181C50.4984 172.903 62.6991 171.859 72.7222 171.478L81.5173 148.314C85.3987 147.364 88.041 145.949 94.5648 144.629C101.089 143.307 107.707 142.833 118.018 144.536C128.332 146.239 138.158 152.195 140.336 154.177C137.88 149.924 132.678 145.951 124.358 143.205C116.038 140.458 106.954 140.458 102.04 140.655C97.1246 140.84 89.1762 142.637 84.8311 143.864C80.4859 145.091 76.2224 147.075 70.9266 148.211C65.6308 149.346 60.5205 150.193 55.3175 149.728C50.1144 149.264 42.3637 148.687 35.2723 141.78C28.181 134.875 26.4772 126.648 27.2313 117.1C27.9844 107.561 34.7047 94.41 42.6428 85.4294C50.581 76.4488 63.1647 67.7456 68.7508 65.0003L68.749 64.9994Z" fill="#A2AAAD"/>
<path d="M78.4212 149.067L70.9682 168.742C36.066 170.817 11.1582 174.151 11.1582 174.151L31.1941 141.418C32.908 143.876 37.728 148.418 43.3021 150.399C48.8761 152.381 52.4793 152.857 57.6712 152.577C62.8835 152.288 69.3776 151.535 78.4203 149.068L78.4212 149.067Z" fill="#6F263D"/>
<path d="M125.657 57.2793C130.746 33.6402 100.015 33.3926 100.015 33.3926L98.6213 40.1231L93.8931 41.5793L90.9837 52.1272L87.1746 55.225L81.6006 64.3187C81.5913 64.3094 116.686 38.13 125.657 57.2793Z" fill="white"/>
<path d="M95.5356 48.8335L96.0207 46.8933C96.0207 46.8933 114.086 40.9482 121.725 48.2251C121.725 48.2344 113.725 42.051 95.5366 48.8326L95.5356 48.8335Z" fill="#236192"/>
<path d="M89.6622 55.131C89.6622 55.131 115.304 38.6148 124.997 54.2536C124.997 54.2536 119.66 40.1933 87.7729 58.0098L89.6622 55.131Z" fill="#A2AAAD"/>
</svg>
