<svg width="200" height="200" viewBox="0 0 200 200" fill="none" xmlns="http://www.w3.org/2000/svg">
<path d="M161.073 138.365L200 48.8124C180.609 60.0115 160.458 69.838 139.693 78.2194L194.958 37.1545L160.145 43.1247C155.184 40.1396 137.878 31.1843 109.923 31.1843C109.923 31.1843 107.463 31.265 105.365 31.3053C104.357 28.28 99.4756 14 99.4756 14L90.5607 32.4752C39.6531 39.0101 0 69.1029 0 101.576C0 116.098 6.21218 135.178 34.8528 145.505L20.4115 181.245L58.6527 151.071C67.6668 152.249 76.7504 152.815 85.8411 152.766C97.1184 152.772 108.379 151.909 119.524 150.184L161.355 186.973L147.075 143.851C151.843 142.292 156.516 140.461 161.073 138.365Z" fill="#A4A9AD"/>
<path d="M192.82 56.9204C192.82 56.9204 160.024 76.0006 123.477 88.6267L122.186 85.0769L184.873 41.632L115.208 59.4617L154.175 43.7295C154.175 43.7295 137.676 34.5323 109.923 34.5323C107.624 34.5323 105.284 34.5726 102.985 34.6936L98.9512 22.834L77.2893 67.8118L44.1711 77.2108L74.9093 64.6251L84.9939 44.0926L87.0916 39.7764L88.9068 36.0652C42.6785 42.6808 3.34814 70.2322 3.34814 101.575C3.34814 119.163 13.0295 135.258 39.4917 143.528L25.8169 173.338L57.6846 147.521C67.0128 148.821 76.423 149.441 85.8411 149.377C97.4714 149.392 109.085 148.488 120.573 146.674L155.91 178.058L142.679 141.713C148.098 140.209 153.387 138.266 158.491 135.904L192.82 56.9204Z" fill="#002654"/>
<path d="M105.244 127.311C97.1673 125.861 89.1805 123.949 81.3231 121.583C81.3231 121.583 88.221 118.921 98.4267 114.242C107.543 110.046 119.282 104.278 131.101 97.3396C140.653 91.882 149.757 85.6774 158.33 78.7838C158.33 78.7838 110.448 104.923 70.714 104.923C44.0096 104.923 31.6659 92.499 31.6659 84.2295C31.6659 59.4615 75.2319 46.6741 84.9939 44.0924L87.0915 39.7761C45.2198 48.0456 29.649 64.4635 29.649 64.4635C29.649 64.4635 15.6514 72.9346 10.3267 88.6668C9.02726 92.5835 8.36003 96.6822 8.3501 100.809C8.3501 119.728 20.7341 144.496 84.3081 144.496C129.447 144.496 153.449 132.515 153.449 132.515C146.107 132.313 138.766 131.829 131.464 131.103C122.67 130.216 113.917 128.925 105.244 127.311ZM142.759 43.4469C142.759 43.4469 129.649 37.0734 104.074 37.8802L105.244 41.3493C117.784 40.2103 130.424 40.9171 142.759 43.4469Z" fill="#CE1126"/>
<path d="M59.9431 98.954L62.6458 92.9839L46.6717 88.5869C46.6717 88.5869 42.1134 96.695 59.9431 98.954Z" fill="#A4A9AD"/>
<path d="M45.9864 145.545C45.6248 145.399 45.2447 145.304 44.8569 145.263C44.5342 145.222 44.2115 145.182 43.8485 145.142L37.4346 158.01L49.4959 149.014C48.7294 147.602 47.842 146.19 45.9864 145.545ZM137.596 144.859C136.386 145.264 135.243 145.848 134.207 146.594C133.245 147.408 132.543 148.489 132.191 149.7C132.029 150.224 131.908 150.829 131.747 151.434L143.566 160.793L137.596 144.859ZM157.644 54.5405L106.696 66.8842L97.7412 38.8486L83.5419 72.7736L44.8569 82.455L71.9243 89.0705L66.7206 99.4376L68.1728 99.478C68.8182 99.478 69.4636 99.5183 70.1897 99.5183C72.0453 99.5183 73.9412 99.4376 75.8372 99.3166C80.7351 99.0092 85.6109 98.4165 90.4398 97.5417C94.2317 96.8559 98.0639 96.0088 101.936 95.0407C107.019 93.7902 112.142 92.2976 117.225 90.6841L114.28 82.8987L157.685 54.5405L157.644 54.5405Z" fill="#A4A9AD"/>
<path d="M62.646 118.841C74.7176 118.801 86.7372 117.256 98.4266 114.242C107.543 110.047 119.282 104.278 131.101 97.3804C121.178 101.132 89.8344 112.306 67.6077 112.306C33.9247 112.306 23.356 92.7817 23.356 81.7692C23.356 71.9266 29.6892 64.4639 29.6892 64.4639C29.6892 64.4639 18.0312 72.572 18.0312 86.0855C18.0312 108.353 40.2176 118.841 62.646 118.841Z" fill="white"/>
<path d="M154.417 102.503C152.4 98.2273 146.47 97.4609 141.146 100.849C135.861 104.197 133.199 110.369 135.216 114.645C137.273 118.921 143.163 119.647 148.487 116.299C153.812 112.911 156.434 106.779 154.457 102.503H154.417ZM75.6353 129.248C12.9891 129.248 10.2057 95.8876 10.3267 88.667C9.02726 92.5837 8.36003 96.6824 8.3501 100.809C8.3501 100.809 8.99552 137.719 80.5566 137.719C103.832 137.719 124.808 132.798 131.464 131.103C122.67 130.216 113.917 128.925 105.244 127.312C95.4373 128.702 85.5395 129.349 75.6353 129.248Z" fill="white"/>
<path d="M149.374 58.8565L90.4395 76.7669C90.4395 76.7669 112.101 81.4865 112.747 81.5672C113.433 81.6479 149.374 58.8565 149.374 58.8565ZM97.7408 43.6084L90.4395 76.7669L104.76 67.4487L97.7408 43.6084ZM138.806 122.188L137.354 123.963L135.095 124.205L136.466 125.012L135.014 126.787L137.434 125.577L139.088 126.787L138.846 124.851L141.065 123.641L138.806 123.802L138.806 122.188ZM165.51 95.5648L165.429 93.4269L163.533 95.8069L160.508 96.1699L162.364 97.2187L160.508 99.639L163.695 97.9851L165.913 99.5584L165.51 96.9363L168.495 95.2421L165.51 95.5648ZM160.548 109.562L160.508 107.586L158.733 109.764L155.95 110.127L157.684 111.055L155.95 113.274L158.894 111.741L160.952 113.193L160.589 110.813L163.291 109.24L160.548 109.562ZM154.78 123.762V121.583L152.803 123.963L149.778 124.286L151.633 125.335L149.697 127.715L152.924 126.142L155.103 127.755L154.82 125.133L157.805 123.479L154.78 123.762ZM174.223 78.9049L170.552 79.3083L170.23 76.6056L168.132 79.5906L164.421 80.0747L166.882 81.3656L164.824 84.4313L168.616 82.3337L171.521 84.3103L170.754 81.0428L174.223 78.9049ZM149.415 91.6923L147.963 94.3143L150.948 92.2974L153.61 93.6689L152.642 91.1276L155.385 89.151L152.319 89.756L151.754 87.6181L150.262 90.1998L147.237 90.8452L149.415 91.6923ZM133.804 100.93L133.763 99.155L132.19 101.132L129.689 101.454L131.222 102.301L129.689 104.278L132.311 102.907L134.167 104.238L133.844 102.059L136.264 100.688L133.804 100.97L133.804 100.93ZM124.364 122.39V120.978L123.074 122.511L121.097 122.753L122.307 123.439L121.057 124.972L123.195 123.923L124.566 125.012L124.364 123.278L126.301 122.229L124.364 122.39ZM112.908 120.817V119.405L111.658 120.938L109.681 121.14L110.891 121.825L109.641 123.358L111.738 122.35L113.15 123.399L112.949 121.704L114.885 120.615L112.908 120.817ZM128.882 112.144L128.842 110.732L127.592 112.265L125.615 112.547L126.825 113.193L125.615 114.766L127.672 113.677L129.124 114.685L128.923 113.032L130.819 111.902L128.882 112.144ZM117.305 110.894L117.265 109.361L115.893 111.055L113.715 111.337L115.087 112.063L113.715 113.798L116.055 112.628L117.588 113.758L117.346 111.862L119.443 110.652L117.305 110.894ZM101.412 118.437L101.371 116.904L100.04 118.558L97.9829 118.84L99.2737 119.526L97.9829 121.22L100.202 120.05L101.694 121.14L101.412 119.365L103.469 118.195L101.412 118.437Z" fill="white"/>
<path d="M68.1724 99.4786C68.8178 99.4786 69.4632 99.519 70.149 99.519C72.0046 99.519 73.9408 99.4383 75.8367 99.3173L90.4394 76.7276L73.3358 89.3536L68.1724 99.4786ZM101.936 95.0817L90.4394 76.7276L90.4394 97.5424C94.3119 96.8566 98.1442 96.0095 101.936 95.0817Z" fill="white"/>
<path d="M39.9761 154.863L45.9866 145.544C45.622 145.408 45.243 145.313 44.8571 145.262L39.9761 154.863ZM132.191 149.699L140.057 155.912L134.208 146.593C133.253 147.416 132.554 148.493 132.191 149.699ZM84.2681 73.3782L52.4811 81.9301L90.44 76.7264L84.2681 73.3379L84.2681 73.3782Z" fill="white"/>
<path d="M141.953 102.06C137.636 104.763 135.377 109.886 136.91 113.436C138.403 116.986 143.123 117.671 147.439 114.928C151.755 112.226 154.014 107.103 152.481 103.553C150.948 100.003 146.229 99.3575 141.953 102.06Z" fill="#CE1126"/>
</svg>
