<svg width="200" height="200" viewBox="0 0 200 200" fill="none" xmlns="http://www.w3.org/2000/svg">
<path d="M30.0121 145.874H13.6345L35.9419 108.48L0 79.5168H53.2876L58.9754 69.9161H75.8774L107.261 18L112.505 70.1985C121.339 71.0859 128.56 74.2727 133.562 79.5168H200L136.87 113.321C136.144 114.854 135.337 116.386 134.49 117.839C130.695 124.632 125.414 130.479 119.04 134.942L123.477 178.992L82.1702 145.672C80.1936 145.793 78.1364 145.874 76.1194 145.874L7.98709 182.34L30.0121 145.874Z" fill="#00843D"/>
<path d="M36.1035 142.405H19.6856L40.4601 107.674L9.76221 82.9458H55.2241L60.9522 73.3855H77.8138L104.841 28.6094L109.359 73.4258C119.323 73.8696 127.148 77.137 132.029 82.9458H186.245L134.167 110.82C133.363 112.643 132.461 114.42 131.465 116.145C127.575 123.073 122.049 128.945 115.369 133.248L119.202 171.127L83.2596 142.163C80.6779 142.325 77.9752 142.405 75.1918 142.405L17.4266 173.345L36.1035 142.405Z" fill="#010101"/>
<path d="M158.774 89.8449H128.399C125.172 83.8748 117.749 80.2846 107.14 80.2846H103.147L100.081 49.8691L81.7266 80.2846H64.865L59.1369 89.8449H29.2861L49.4556 106.061L31.8678 135.509H60.7101L45.9461 139.502L36.3051 155.436L73.4975 135.509H75.0304C78.7819 135.509 82.251 135.347 85.4782 135.105L110.69 155.436L108.471 134.258C101.654 134.984 95.0788 134.419 92.013 134.339C109.762 131.475 119.08 123.73 125.535 112.677C129.932 105.174 131.142 98.3968 129.69 93.072C132.11 95.954 133.613 99.4943 134.006 103.237L158.774 89.8449Z" fill="white"/>
<path d="M131.989 96.5412C133.092 98.6203 133.777 100.895 134.006 103.237L158.774 89.8449L131.989 96.5412ZM128.399 89.8449L117.83 95.0083C118.516 96.8236 119.484 101.099 116.862 107.473C113.877 114.774 104.962 127.642 80.5972 127.642H47.963L31.8678 135.509H60.7101L56.9989 136.517L36.3051 155.396L73.4975 135.508H75.0304C78.7819 135.508 82.2511 135.347 85.4782 135.105L92.0131 134.298C109.762 131.475 119.08 123.73 125.535 112.677C129.932 105.133 131.142 98.3967 129.69 93.0317C129.34 91.9384 128.909 90.8732 128.399 89.8449ZM69.867 95.089H94.8368C102.017 95.089 106.333 96.4202 107.423 100.091L117.83 95.0083C115.006 88.3927 106.898 87.6666 101.815 87.6666H71.8436L71.8033 87.6263L47.963 127.642L64.0986 119.736L76.1196 100.091L69.867 95.089ZM54.4576 97.6707L29.2861 89.8449L49.4556 106.061L54.4576 97.6707ZM100.081 49.8691L92.8602 80.2443H103.147L100.081 49.8691ZM108.471 134.218L110.69 155.396L99.6774 134.581C102.614 134.654 105.551 134.533 108.471 134.218Z" fill="#8D9093"/>
<path d="M94.8368 95.0859H69.8671L76.1196 100.088L64.0986 119.733H80.6376C86.164 119.733 92.4972 119.531 97.8219 116.425C104.478 112.472 108.471 105.574 107.544 100.733C106.777 96.5382 102.421 95.0859 94.8368 95.0859Z" fill="#010101"/>
</svg>
