<svg width="200" height="200" viewBox="0 0 200 200" fill="none" xmlns="http://www.w3.org/2000/svg">
<path d="M183.421 71.1937C191.851 64.0134 200 52.4362 200 39.1648C200.006 38.7769 199.891 38.3968 199.67 38.0781C199.448 37.7595 199.133 37.5185 198.767 37.3891C198.401 37.2598 198.004 37.2487 197.632 37.3574C197.259 37.4661 196.931 37.6891 196.692 37.9949C188.019 49.8142 179.871 54.3321 174.909 56.0263C183.138 49.8142 191.166 39.6488 193.263 28.1523C193.325 27.765 193.262 27.3681 193.085 27.0184C192.907 26.6686 192.624 26.3839 192.275 26.205C191.926 26.026 191.529 25.9619 191.142 26.0219C190.754 26.0818 190.395 26.2627 190.117 26.5388C180.072 36.5831 166.236 47.3132 129.044 47.3132C120.089 47.3132 109.802 47.0308 103.147 47.0308C72.9732 47.0308 61.8801 65.7076 59.3791 70.9113C52.324 69.8816 45.1324 70.3169 38.2531 72.1902C31.3738 74.0634 24.9544 77.3344 19.3955 81.799C13.8365 86.2636 9.25741 91.826 5.94385 98.139C2.63028 104.452 0.653381 111.38 0.136519 118.491C-0.380343 125.602 0.573923 132.744 2.93977 139.469C5.30561 146.195 9.03226 152.361 13.8872 157.583C18.7421 162.804 24.621 166.969 31.1571 169.818C37.6933 172.666 44.7463 174.137 51.8761 174.138C62.0952 174.165 72.0925 171.159 80.6019 165.501C89.1114 159.842 95.7501 151.785 99.6774 142.351C100.238 142.443 100.804 142.497 101.372 142.512C107.947 142.512 109.318 140.617 109.318 138.963C109.318 138.116 108.471 137.067 108.028 136.462C117.669 136.381 120.533 135.937 124.687 134.485C125.008 134.391 125.289 134.194 125.486 133.924C125.683 133.654 125.785 133.327 125.777 132.993C125.777 131.581 122.832 129.201 120.734 127.385C134.207 127.143 144.171 124.723 144.171 121.577C144.171 120.972 144.09 120.205 140.5 117.381C148.124 115.284 161.517 110.161 161.517 106.813C161.517 105.522 160.387 104.755 159.056 103.828C170.916 99.35 180.879 91.484 180.879 88.6603C180.879 86.4013 177.531 86.1996 175.877 86.0786C181.767 82.2868 189.996 75.8326 189.996 73.0492C189.996 70.1852 185.478 71.3147 183.421 71.1937Z" fill="#CE1126"/>
<path d="M179.951 71.9202C189.431 64.861 198.386 52.6384 198.386 39.1652C198.392 39.1164 198.382 39.0671 198.358 39.0239C198.335 38.9807 198.299 38.9458 198.255 38.9238C198.211 38.9019 198.161 38.8939 198.113 38.901C198.064 38.9081 198.019 38.9299 197.983 38.9635C183.38 58.8909 170.109 58.6891 170.109 58.6891C169.544 58.6891 169.423 57.8824 169.867 57.5597C179.306 51.9929 189.391 40.5771 191.65 27.8704C191.69 27.709 191.448 27.5073 191.287 27.6687C180.557 38.3988 165.833 48.9272 129.044 48.9272C117.305 48.9272 111.134 48.6852 103.147 48.6852C71.3194 48.6852 61.517 69.863 60.3472 72.6464C50.9754 71.0437 41.3413 72.13 32.5618 75.7795C23.7823 79.4289 16.2169 85.492 10.7427 93.2659C5.26856 101.04 2.10983 110.206 1.63272 119.702C1.15561 129.198 3.37967 138.634 8.04705 146.918C12.7144 155.201 19.634 161.992 28.0035 166.503C36.373 171.014 45.8497 173.061 55.3349 172.405C64.8202 171.75 73.9254 168.42 81.5952 162.801C89.2649 157.182 95.1849 149.504 98.669 140.657C99.5607 140.825 100.465 140.919 101.372 140.94C106.495 140.94 107.745 139.77 107.745 138.963C107.745 138.439 104.437 134.849 106.091 134.849C117.426 134.849 119.968 134.445 124.163 132.993C122.146 129.887 114.925 125.813 118.637 125.813C136.668 125.813 142.557 122.344 142.557 121.618C142.557 120.73 136.829 116.616 136.829 116.616C145.099 115.244 159.903 108.588 159.903 106.854C159.903 105.805 155.708 104.07 156.394 103.102C169.504 98.7455 179.306 90.234 179.306 88.7011C179.306 87.4506 171.601 87.5717 171.601 87.5717V86.7649C178.257 83.2958 188.423 74.9053 188.423 73.0901C188.423 71.8799 178.862 73.8565 179.951 71.9202Z" fill="white"/>
<path d="M28.8427 107.336L36.144 114.759C37.5172 111.875 39.6511 109.42 42.3158 107.659L34.0061 101.447C32.0239 103.18 30.2869 105.175 28.8427 107.377L28.8427 107.336ZM24.7282 118.47L35.2969 116.937C35.3372 116.776 35.4179 116.614 35.4583 116.413L27.9956 108.789C26.2879 111.787 25.1783 115.089 24.7282 118.51L24.7282 118.47ZM24.4458 122.221C24.4612 124.159 24.6638 126.091 25.0509 127.99L35.4583 128.071C34.8009 126.19 34.4601 124.213 34.4498 122.221C34.4487 121.029 34.5703 119.839 34.8128 118.672L24.5265 120.164C24.4861 120.85 24.4458 121.536 24.4458 122.221ZM65.3089 98.3409C62.3141 96.657 59.0304 95.5488 55.6276 95.0735L57.1605 105.642C57.3419 105.672 57.5184 105.726 57.6849 105.804L65.3089 98.3409ZM73.4573 139.123C70.4573 137.614 67.6189 135.803 64.9862 133.718C63.9342 134.898 62.7264 135.93 61.396 136.784L69.7461 142.996C71.1039 141.826 72.3466 140.53 73.4573 139.123ZM55.4259 105.199L53.9334 94.9121C53.2498 94.845 52.5628 94.8181 51.8761 94.8315C49.9372 94.8268 48.0034 95.0296 46.1077 95.4365L46.027 105.804C47.9133 105.169 49.8862 104.829 51.8761 104.795C53.0702 104.805 54.26 104.94 55.4259 105.199ZM43.889 106.772C44.0419 106.675 44.2041 106.594 44.3731 106.53L44.4941 95.8399C41.1769 96.7557 38.0677 98.3035 35.3373 100.398L43.889 106.772ZM67.0838 101.568C67.0838 100.842 67.0838 100.156 67.0434 99.4301C66.9594 99.3498 66.8643 99.2819 66.7611 99.2284L59.3388 106.489C61.5014 107.538 63.4346 109.005 65.0265 110.806C66.156 107.78 67.0838 104.432 67.0838 101.568ZM48.3263 139.285L49.8188 149.571C50.5046 149.611 51.1903 149.652 51.8761 149.652C53.8017 149.656 55.7221 149.454 57.6042 149.047L57.7252 138.639C55.8464 139.303 53.8688 139.644 51.8761 139.648C50.6835 139.649 49.494 139.527 48.3263 139.285ZM36.7894 118.389C35.9694 121.603 36.1955 124.994 37.4348 128.071L37.9996 128.111L41.4687 123.432C41.4284 123.109 41.4284 122.786 41.388 122.463L37.3138 118.309L36.7894 118.389ZM39.3308 118.026L41.5897 120.285C41.7689 119.337 42.0671 118.416 42.4772 117.542L39.3308 118.026ZM44.3328 115.001L44.3731 109.192L43.889 108.829C41.0415 110.54 38.81 113.111 37.5155 116.171L37.9189 116.574L43.647 115.727C43.889 115.485 44.0907 115.203 44.3328 115.001ZM44.6151 129.805L38.8063 129.765L38.4836 130.208C40.1898 133.045 42.7437 135.275 45.785 136.582L46.2287 136.179L45.3816 130.45C45.0992 130.249 44.8572 130.007 44.6151 129.805ZM43.2033 128.151C42.6775 127.342 42.2445 126.476 41.9124 125.57L40.0165 128.111L43.2033 128.151ZM59.3791 137.954L59.2581 148.643C62.5656 147.702 65.6702 146.157 68.4149 144.085L59.8631 137.711C59.7018 137.792 59.5404 137.873 59.3791 137.954ZM47.6809 134.767L49.9398 132.508C48.9887 132.341 48.0655 132.042 47.1968 131.62L47.6809 134.767ZM57.7252 136.098L53.0862 132.629C52.7522 132.677 52.4153 132.704 52.0778 132.709L47.9632 136.784L48.0439 137.348C49.2953 137.673 50.5832 137.836 51.8761 137.833C53.8807 137.84 55.8674 137.456 57.7252 136.703L57.7252 136.098ZM36.4264 130.249C36.3053 130.047 36.2247 129.886 36.144 129.724L25.4946 129.644C26.4188 132.958 27.9658 136.065 30.0529 138.801L36.4264 130.249ZM45.9463 113.589C46.7375 113.032 47.6077 112.597 48.528 112.298L45.9866 110.402L45.9463 113.589ZM60.4682 128.676L60.0648 128.716C59.8718 128.989 59.6559 129.246 59.4194 129.482L59.3791 135.291L59.8228 135.614C61.239 134.797 62.5073 133.747 63.5743 132.508C62.0414 131.136 60.9119 129.805 60.4682 128.676ZM46.5917 138.841C46.4304 138.76 46.2287 138.72 46.0673 138.639L38.4433 146.142C41.4403 147.814 44.7242 148.908 48.1246 149.369L46.5917 138.841ZM60.5086 116.332C60.929 116.922 61.2809 117.558 61.5574 118.228C61.7994 117.784 62.1221 117.139 62.5255 116.332H60.5086ZM36.9911 145.255L44.4134 137.954C41.5212 136.593 39.0634 134.457 37.3138 131.782L31.1017 140.091C32.8205 142.073 34.802 143.81 36.9911 145.255ZM57.7656 130.894C56.9748 131.427 56.1212 131.861 55.2242 132.185L57.7656 134.081V130.894ZM56.0713 109.716L53.8124 111.935C54.7603 112.134 55.6811 112.446 56.5554 112.863L56.0713 109.716ZM46.027 108.345L50.666 111.814C51.0009 111.78 51.3378 111.766 51.6744 111.774L55.789 107.7L55.7083 107.135C52.4947 106.315 49.1033 106.541 46.027 107.78L46.027 108.345ZM64.2198 112.742C62.569 110.609 60.4038 108.929 57.9269 107.861L57.5235 108.264L58.3706 114.033C58.644 114.226 58.9004 114.442 59.1371 114.678L63.3323 114.718C63.6147 114.073 63.9374 113.428 64.2198 112.742Z" fill="#CE1126"/>
<path d="M57.5238 122.222C57.5238 123.339 57.1926 124.43 56.5721 125.359C55.9515 126.288 55.0695 127.012 54.0376 127.439C53.0057 127.867 51.8701 127.978 50.7747 127.761C49.6792 127.543 48.6729 127.005 47.8831 126.215C47.0933 125.425 46.5554 124.419 46.3375 123.323C46.1196 122.228 46.2314 121.092 46.6589 120.06C47.0863 119.029 47.8102 118.147 48.7389 117.526C49.6676 116.905 50.7595 116.574 51.8764 116.574C53.3721 116.581 54.8047 117.178 55.8624 118.236C56.92 119.293 57.5172 120.726 57.5238 122.222Z" fill="#CE1126"/>
<path d="M51.8764 88.3381C46.0572 88.3374 40.3358 89.8345 35.2627 92.6853C30.1897 95.5361 25.9357 99.6446 22.9103 104.615C19.8849 109.586 18.1898 115.252 17.9881 121.068C17.7865 126.884 19.0851 132.653 21.759 137.822C24.4329 142.99 28.392 147.384 33.2555 150.579C38.1189 153.774 43.7229 155.664 49.5281 156.066C55.3334 156.469 61.1445 155.37 66.4022 152.876C71.66 150.382 76.1874 146.577 79.5487 141.827C78.2579 141.343 76.967 140.819 75.6762 140.214C72.2079 144.791 67.4909 148.269 62.0926 150.229C56.6943 152.189 50.8446 152.548 45.2474 151.262C39.6501 149.976 34.5437 147.1 30.5424 142.98C26.541 138.86 23.8152 133.672 22.6929 128.04C21.5706 122.407 22.0996 116.57 24.2161 111.232C26.3327 105.893 29.9468 101.279 34.6236 97.9459C39.3004 94.6125 44.8406 92.7015 50.5779 92.4426C56.3152 92.1837 62.0051 93.588 66.963 96.4865C66.8901 94.9535 66.9171 93.4174 67.0437 91.8879C62.3352 89.5346 57.1402 88.3187 51.8764 88.3381Z" fill="#CE1126"/>
<path d="M108.714 56.5508H134.329C167.084 56.5508 181.404 44.8525 187.051 34.4855C187.374 33.8805 186.971 33.7191 186.366 34.2838C179.226 40.6977 168.617 51.8715 125.172 51.8715H106.858C78.0563 51.8715 67.2052 64.8605 64.3815 73.493C65.8171 73.8572 67.2312 74.3016 68.6171 74.8242C73.7401 65.5866 83.502 56.5508 108.714 56.5508ZM9.92426 104.433C11.0134 105.32 10.126 106.853 10.8924 107.942C12.7756 102.56 15.7005 97.6005 19.5002 93.3483C23.2999 89.096 27.9 85.6338 33.0377 83.1593C38.1755 80.6848 43.7503 79.2464 49.4439 78.9264C55.1375 78.6064 60.8384 79.411 66.2211 81.2942C67.2495 81.654 68.2633 82.0521 69.2625 82.4885C69.6659 81.5607 70.1096 80.5926 70.634 79.5841C65.0203 77.1278 58.9778 75.8013 52.8515 75.6803C46.7251 75.5593 40.635 76.6461 34.9287 78.8788C29.2224 81.1114 24.0117 84.4461 19.5942 88.6925C15.1766 92.9389 11.6387 98.0138 9.18248 103.627C9.00725 104.028 8.83767 104.431 8.67375 104.836C9.07714 105.078 9.48053 104.029 9.92426 104.433ZM89.5528 143.118C87.3745 143.642 84.5508 143.319 81.5254 142.432C77.2129 148.772 70.9815 153.563 63.7459 156.102C56.5103 158.64 48.6516 158.792 41.3231 156.536C33.9946 154.28 27.5824 149.734 23.0275 143.565C18.4726 137.397 16.015 129.93 16.0154 122.262C16.0154 121.617 16.0154 120.972 16.0557 120.367C14.9666 122.02 15.2893 124.804 13.3127 124.804C11.7395 124.804 12.627 122.666 11.4572 122.666C10.7714 122.666 10.6504 123.674 9.80327 123.674C9.68225 123.674 9.60158 123.634 9.5209 123.634C9.31921 123.634 9.23853 124.037 8.87548 124.037C8.43176 124.037 8.10904 123.473 7.746 123.473C7.34262 123.473 7.18126 124.279 6.65686 124.279C6.09212 124.279 5.56771 123.352 5.32568 122.908C5.47924 133.651 9.343 144.011 16.2621 152.232C23.1811 160.452 32.7298 166.027 43.2896 168.012C53.8493 169.997 64.7706 168.269 74.2021 163.122C83.6336 157.974 90.9951 149.724 95.0389 139.769C91.5199 138.658 88.105 137.241 84.8332 135.534C85.1156 138.64 89.5528 143.118 89.5528 143.118Z" fill="#CE1126"/>
<path d="M108.149 63.1654C82.4934 63.1654 67.7295 80.7934 69.4237 97.6146C70.6742 110.16 63.6553 120.325 63.6553 120.325C63.6553 120.325 73.4576 115.888 73.4576 98.0583C73.4576 81.1161 90.2788 68.8128 104.478 68.8128C118.193 68.8128 134.087 68.8934 141.993 68.8934C183.824 68.8934 193.949 49.5712 195.401 45.7794C195.643 45.2146 195.28 45.3357 195.159 45.618C186.406 57.3969 174.183 64.1335 140.985 64.1335C119.645 64.1335 112.909 63.1654 108.109 63.1654L108.149 63.1654Z" fill="#CE1126"/>
<path d="M73.0542 113.469C74.9501 114.477 84.2684 113.146 89.109 110.12C84.1473 105.885 76.1603 104.392 76.1603 104.392C75.0711 107.377 73.9013 110.403 73.0542 113.469ZM111.174 76.5586C110.609 74.34 107.907 73.8962 106.051 72.8474C105.325 72.4037 104.478 72.6054 103.631 72.9685C101.816 73.7752 99.4357 72.4441 97.5801 73.7752C97.0154 74.1786 96.733 74.9047 96.0472 75.0661C95.1839 75.2625 94.3076 75.3973 93.4252 75.4695C93.1025 75.5098 92.4974 75.7115 92.5377 76.0745C92.7394 77.6477 91.2872 77.9704 90.1174 78.3738C88.9879 78.7772 89.3913 80.2697 89.351 81.3589C96.854 81.4396 104.599 80.3908 111.174 76.5586ZM86.729 83.1338C86.366 83.1742 86.1239 83.7389 85.8416 84.1423C85.1961 85.0701 83.1389 84.8684 83.1389 85.9172C83.1792 87.8131 81.0413 88.1762 80.6782 89.5477C80.4362 90.6368 79.8311 91.4436 79.7504 92.6134C87.4148 92.6538 95.3211 92.1697 102.138 88.2568C103.913 87.4501 92.7798 82.2464 86.729 83.1338ZM76.846 100.762C76.9671 101.73 76.725 103.303 76.9267 103.303C84.2036 104.068 91.5516 102.841 98.1852 99.7534C100.081 98.9466 90.9242 94.1866 83.3406 94.1866C81.889 94.1779 80.4592 94.5389 79.1857 95.2354C78.7419 95.4775 78.4192 96.4859 77.8948 97.212C77.5318 97.7768 78.2579 98.6239 77.9755 98.9869C77.4108 99.6727 76.725 100.076 76.846 100.762ZM117.669 77.8091C110.771 77.8091 110.085 79.7454 110.085 79.7454C109.843 80.0278 109.964 80.6732 109.48 80.8345C107.907 81.4396 106.132 80.1488 104.801 81.9237C103.954 82.9725 101.977 81.6816 100.686 82.4077C100.404 82.5691 100.686 83.3355 100.888 83.4162C101.493 83.6986 102.501 83.6179 102.905 83.9003C103.308 84.223 103.228 84.707 103.631 84.9894C104.075 85.3121 104.922 85.4735 105.325 85.9979C105.608 86.4013 105.729 87.2081 106.132 87.2081C116.539 87.8131 127.189 87.8131 137.072 83.981C138.161 82.2464 127.39 77.8091 117.669 77.8091Z" fill="#CE1126"/>
<path d="M178.822 62.8034C178.54 62.9647 178.621 63.9732 178.015 64.2556C177.007 64.7396 175.797 64.7396 174.708 65.0624C174.304 65.1834 174.304 65.7481 173.941 65.9901C173.376 66.3532 172.57 66.0305 172.166 66.3532C169.504 68.2894 166.317 67.4423 163.372 67.9264C163.413 70.145 159.903 68.7735 158.451 69.7416C156.878 70.8308 157.12 70.5081 154.74 70.5484C154.054 70.5484 154.417 71.6376 153.853 71.6376C151.957 71.6779 149.577 71.0728 148.165 71.4762C147.923 71.5569 147.842 72.7267 147.358 72.8477C146.35 73.1301 145.26 73.2511 144.292 73.5738C143.526 73.8158 144.494 75.2277 143.526 75.5504C141.791 76.0748 139.895 75.6714 138.201 76.6799C137.515 77.0429 136.507 76.6799 135.66 76.8412C134.893 77.0026 134.611 77.769 135.216 78.1321C135.781 78.4144 136.709 78.3338 137.233 78.6161C138.524 79.2616 139.532 80.149 140.904 80.2297C163.171 81.6012 191.932 65.7884 196.45 46.6275C196.612 45.8611 196.248 46.0225 196.087 46.4259C191.287 57.9224 178.822 62.8034 178.822 62.8034ZM184.026 75.147C182.704 74.8391 181.338 74.7708 179.992 74.9453C179.71 75.026 179.508 75.4697 179.226 75.5504C177.491 75.8328 176.24 76.6799 174.425 76.7202C173.854 76.8038 173.297 76.9667 172.771 77.2043C172.086 77.527 171.198 76.7605 170.674 77.3253C170.351 77.6883 170.916 78.6161 170.351 78.8985C168.778 79.6246 166.922 78.2934 165.389 79.3019C164.946 79.5842 165.873 80.5524 165.309 80.7541C163.09 81.4398 159.258 78.0111 157.846 81.5608C157.604 82.1256 156.918 81.8836 156.475 81.7625C156.071 81.6415 155.466 81.4398 155.224 81.6819C153.853 82.771 153.086 83.2147 151.19 82.65C150.706 82.529 150.666 83.9812 149.738 83.7391C148.689 83.4971 147.64 82.6903 146.672 83.1341C146.229 83.3358 146.551 84.5459 145.906 84.5863C143.243 84.8686 140.5 84.4652 138.04 85.5544C137.475 85.8368 137.394 86.9259 136.547 87.0469C134.692 87.3696 132.836 87.1679 131.102 87.7327C130.819 87.8134 130.859 88.6201 131.303 88.7008C132.392 88.8622 133.683 88.7008 134.53 89.1849C135.579 89.8303 136.265 91.6052 137.273 91.6455C158.33 92.0489 173.538 84.5056 183.986 75.7924C184.429 75.4294 184.228 75.3084 184.026 75.147ZM167.003 90.5967C166.156 90.8791 164.986 90.0723 164.26 90.5967C163.171 91.4035 161.88 91.2421 160.791 91.1211C160.266 91.0808 159.419 90.8791 158.935 91.2421C158.653 91.4842 159.097 91.8876 159.379 92.1296C156.555 93.0977 153.449 92.2103 150.787 93.2591C150.585 93.3801 150.464 94.3482 149.98 94.4289C147.519 94.913 145.26 93.9852 142.84 94.4289C142.235 94.5096 142.477 95.8407 141.872 95.8407C139.706 95.9079 137.538 95.8541 135.377 95.6794C132.796 95.5584 130.416 96.5265 127.995 97.2526C127.269 97.4946 127.027 98.6241 126.261 98.7451C124.163 99.0678 122.025 98.7048 120.089 99.6729C119.968 99.7132 119.968 100.359 120.089 100.439C122.429 101.771 125.131 102.698 126.745 104.836C143.163 104.675 160.791 102.537 174.425 91.3228C174.708 91.1211 173.094 90.7984 172.207 90.5564C171.345 90.463 170.494 90.2874 169.665 90.032C168.738 89.7496 167.89 90.274 167.003 90.5967ZM151.795 105.764C150.424 106.409 148.851 105.683 147.358 106.046C146.995 106.127 147.277 106.692 146.874 106.773C145.422 106.974 143.889 106.571 142.517 107.136C141.469 107.539 140.137 107.055 138.968 107.095C138.524 107.095 138.524 107.7 138.443 108.184C138.38 108.367 138.26 108.525 138.1 108.634C137.94 108.743 137.749 108.797 137.556 108.789C136.137 108.423 134.695 108.154 133.239 107.983C129.488 107.458 125.777 106.248 122.267 107.297C121.138 107.66 119.605 107.942 118.758 108.83C118.395 109.193 118.072 109.879 117.588 110.04C115.45 110.806 113.11 110.968 110.973 111.734C110.327 111.936 109.117 112.864 109.561 112.985C114.064 114.181 118.697 114.818 123.357 114.881C137.233 114.881 147.802 111.492 155.547 107.257C155.063 106.692 152.804 105.28 151.795 105.764ZM133.522 119.157C132.473 119.439 131.707 118.713 130.819 119.035C130.658 119.116 130.496 119.439 130.335 119.439C128.722 119.439 127.673 117.745 126.019 117.866C125.615 117.906 125.615 118.592 125.293 118.672C124.284 118.914 123.397 117.704 122.469 118.148C121.941 118.406 121.334 118.45 120.775 118.269C119.968 118.027 119.363 117.301 118.597 117.18C117.911 117.059 117.225 117.745 116.459 117.543C114.522 116.938 113.03 115.123 110.973 115.566C109.924 115.768 109.077 115.082 108.351 115.526C107.584 115.97 107.342 116.535 106.576 116.978C106.051 117.301 104.801 117.261 104.236 117.583C103.833 117.866 103.712 118.511 103.228 118.713C102.34 119.076 101.291 118.834 100.404 119.278C100.323 119.358 100.242 119.842 100.605 119.923C108.512 122.585 121.299 125.53 136.588 121.577C137.031 121.415 137.152 121.173 136.749 120.73C135.902 119.762 134.772 118.793 133.522 119.157ZM113.998 128.071C113.635 128.031 113.03 128.555 112.667 128.475C111.618 128.313 110.811 127.345 109.52 126.7C108.996 126.417 108.754 127.668 108.351 127.628C106.253 127.507 103.228 125.288 101.332 124.159C101.009 123.957 99.0323 124.36 98.6693 124.441C97.4994 124.683 95.9666 122.585 94.9984 122.142C94.3127 121.779 93.3042 121.456 92.6185 121.94C91.6907 122.626 90.6015 122.263 89.5931 122.263C89.1897 122.222 88.8266 123.069 88.3829 123.231C86.971 123.674 85.4382 122.706 84.107 123.392C84.0001 123.503 83.9297 123.644 83.9053 123.795C83.986 124.643 84.9138 124.764 85.5592 125.167C95.2405 131.298 110.206 133.275 118.516 131.419C118.718 131.379 118.435 130.653 117.87 130.209C117.3 129.884 116.707 129.601 116.096 129.362C115.208 128.757 114.764 128.192 113.998 128.071ZM101.533 135.695C100.722 135.387 99.9279 135.037 99.1533 134.647C98.6693 134.445 98.2255 135.211 97.7011 134.889C96.7229 134.212 95.7804 133.485 94.8774 132.71C94.232 132.146 92.9008 130.814 92.3361 131.097C92.094 131.218 91.7713 132.428 91.2469 132.025C90.0606 131.053 88.9293 130.016 87.8585 128.919C87.2938 128.434 86.7694 130.048 86.0433 129.685C84.4297 128.918 83.744 127.144 82.4935 125.893C81.0413 124.441 79.6294 122.706 77.6125 122.182C77.2495 122.101 77.4511 122.585 77.1284 122.827C75.5955 124.038 73.9013 121.98 72.4088 121.294C71.0373 120.649 69.8271 119.641 68.2539 119.52C67.9312 119.52 67.9716 120.004 68.0926 120.165C76.8864 130.572 89.109 138.398 102.542 138.075C102.865 138.075 103.51 138.116 102.986 137.47C102.542 136.946 102.058 135.816 101.533 135.695ZM82.9775 137.793C82.6951 137.228 81.9287 137.551 81.364 137.188C80.9606 136.986 80.7992 136.179 80.3958 135.857C80.1135 135.615 79.4277 136.139 79.0243 135.937C78.4999 135.655 78.1369 134.969 77.7335 134.526C77.2494 134.041 76.846 133.477 76.4023 132.993C76.0258 132.506 75.5604 132.095 75.0308 131.782C74.7484 131.621 74.1837 131.984 73.861 131.903C73.2156 131.702 72.8525 130.653 72.3684 130.209C72.0861 129.967 71.6423 129.927 71.4003 129.685C71.1179 129.443 71.0776 128.999 70.7953 128.676C70.4322 128.273 69.9078 128.152 69.5044 127.829C68.98 127.386 68.617 126.296 68.1732 125.691C67.7699 125.086 67.2051 125.006 66.8017 124.481C66.3177 123.836 66.0353 122.706 65.4302 122.02C64.8252 121.375 63.3326 122.424 62.8889 123.352C62.4842 124.084 62.3065 124.919 62.3784 125.753C62.4502 126.586 62.7683 127.379 63.2923 128.031C68.9397 134.324 76.2813 139.568 84.6718 140.939C84.0264 140.052 83.3809 138.479 82.9775 137.793ZM140.097 72.3636C140.379 72.1619 140.137 71.2341 139.895 71.1938C138.766 71.0324 137.475 70.5484 136.225 71.6779C135.821 72.0409 135.014 71.2341 134.45 71.5972C133.966 71.8796 133.522 72.646 133.078 72.8477C131.868 73.3721 130.698 72.1216 129.367 72.2829C129.004 72.3233 129.085 73.1704 128.722 73.2511C127.552 73.5334 126.584 72.2829 125.938 72.7267C124.93 73.3317 124.123 74.1385 122.953 73.6141C121.783 73.0897 120.291 72.0409 119.484 72.6863C118.153 73.8965 116.499 72.1619 115.289 72.6057C114.28 73.009 111.578 73.6545 113.433 74.7436C119.202 78.2127 131.223 77.527 140.097 72.3636ZM127.874 94.1868C128.722 93.6221 129.77 93.5818 130.254 92.8153C131.384 91.3631 120.735 89.0235 116.378 89.0235C112.102 89.0235 104.155 90.0723 102.824 90.5564C102.259 90.7984 102.219 91.9279 101.574 92.0489C100.283 92.1699 99.0323 92.3313 97.7415 92.4523C97.3381 92.4926 97.4188 93.1381 97.5801 93.2591C98.288 93.783 98.7881 94.5402 98.992 95.397C99.0323 95.4777 99.9198 95.397 100.081 95.5584C100.928 96.2845 101.533 97.2929 102.542 97.535C107.584 98.7451 112.465 99.1082 117.628 97.898C118.193 97.777 118.597 97.3333 119.081 97.2526C120.896 97.0106 122.792 96.9299 124.163 95.5987C125.172 94.6306 126.745 94.9129 127.874 94.1868ZM116.217 107.297C118.274 106.248 120.694 106.167 122.187 104.151C113.07 99.3502 102.461 99.8746 101.17 100.601C100.807 100.802 100.444 101.448 100.041 101.73C99.4357 102.134 98.8306 101.932 98.4272 102.335C98.1852 102.577 98.4676 103.263 98.2659 103.505C98.0642 103.828 97.5398 103.868 97.2171 104.029C96.8944 104.231 96.2489 103.949 95.7245 104.15C95.2405 104.352 95.2001 104.836 94.8774 104.998C93.6269 105.603 91.8924 104.917 91.0453 104.917C90.6015 104.917 90.7226 105.603 90.8436 105.724C91.4083 106.288 92.9815 106.45 92.9008 107.257C92.9008 107.418 92.5378 107.942 92.2958 107.983C93.1429 109.758 100.888 112.138 111.134 108.749C112.828 108.225 114.603 108.144 116.217 107.297ZM71.6423 115.244C70.7549 115.728 69.7061 117.099 70.5129 117.664C72.0054 118.632 74.466 120.891 85.7205 120.891C96.733 120.891 100.928 117.503 102.986 115.405C102.986 114.034 93.3446 111.25 92.0134 112.017C91.871 112.089 91.7507 112.198 91.6655 112.333C91.5803 112.468 91.5332 112.623 91.5294 112.783C91.0856 112.944 89.7544 112.985 89.4317 113.186C88.6653 113.751 88.8267 114.639 88.625 114.679C86.8904 115.123 84.7928 114.034 83.1389 114.8C82.7355 115.002 82.7355 116.212 82.1708 116.252C81.001 116.333 79.7101 115.607 78.5806 115.97C78.1792 116.068 77.7876 116.203 77.4108 116.373C76.8467 116.107 76.2499 115.917 75.6359 115.808C75.0712 115.647 74.4661 116.05 73.74 115.929C73.0542 115.808 72.2878 114.881 71.6423 115.244Z" fill="#CE1126"/>
</svg>
