<svg width="200" height="200" viewBox="0 0 200 200" fill="none" xmlns="http://www.w3.org/2000/svg">
<g clip-path="url(#clip0_18_2156)">
<path d="M99.9807 200C155.209 200 199.961 155.247 199.961 100.019C200 44.7911 155.209 0 99.9807 0C44.7526 0 0 44.7911 0 99.9807C0 155.209 44.7526 200 99.9807 200ZM99.9807 6.50876C106.297 22.2992 116.118 28.3073 116.118 39.5918C116.118 47.2944 109.763 54.8431 99.9807 54.8431C90.2369 54.8431 83.8436 47.333 83.8436 39.5918C83.8821 28.3073 93.6646 22.2992 99.9807 6.50876ZM94.4348 4.81417C83.0349 22.7229 77.8741 29.3087 77.8741 39.3222C77.8741 51.3383 87.9646 61.0822 100.019 61.0822C112.035 61.0822 122.164 51.3383 122.164 39.3222C122.164 29.3087 117.004 22.7229 105.604 4.81417C155.671 7.70268 195.417 49.2201 195.417 100.019C195.417 152.706 152.706 195.378 100.058 195.378C47.3329 195.378 4.62161 152.667 4.62161 99.9807C4.62161 49.1816 44.3674 7.66416 94.4348 4.81417Z" fill="white"/>
<path d="M40.0539 87.3867C38.0512 87.3867 36.4336 89.0043 36.4336 91.007V120.316C36.4336 122.318 38.0512 123.936 40.0539 123.936C42.0565 123.936 43.6741 122.318 43.6741 120.316V91.007C43.6741 89.0043 42.0565 87.3867 40.0539 87.3867Z" fill="white"/>
<path d="M134.026 98.286C135.759 98.286 137.146 96.8995 137.146 95.1664V90.5063C137.146 88.7732 135.759 87.3867 134.026 87.3867C132.293 87.3867 130.907 88.7732 130.907 90.5063V95.1664C130.907 96.8995 132.293 98.286 134.026 98.286Z" fill="white"/>
<path d="M99.9808 186.675C147.853 186.675 186.674 147.853 186.674 99.9809C186.674 59.8114 159.368 26.0352 122.28 16.1758C124.244 18.6406 130.792 27.6528 130.792 39.2838C130.792 56.0756 116.965 69.7479 99.9808 69.7479C82.9964 69.7479 69.1701 56.0756 69.1701 39.2838C69.1701 27.6528 75.7174 18.6406 77.6815 16.1758C40.6317 26.0352 13.3257 59.85 13.3257 99.9809C13.3257 147.853 52.1087 186.675 99.9808 186.675ZM150.01 110.38H156.249V120.239C156.249 122.28 157.905 123.898 159.908 123.898C161.949 123.898 163.566 122.242 163.566 120.239V116.041C163.566 115.04 162.95 113.653 162.218 112.998L151.358 103.332C150.587 102.677 150.01 101.29 150.01 100.289V81.3789C150.01 77.6046 153.091 74.5236 156.865 74.5236H164.953C168.727 74.5236 171.808 77.6046 171.808 81.3789V95.5134H163.566V90.0059C163.566 88.5424 162.372 87.3485 160.909 87.3485C159.445 87.3485 158.252 88.5424 158.252 90.0059V96.4377C158.252 97.439 158.868 98.8255 159.638 99.4802L170.499 109.186C171.231 109.84 171.847 111.227 171.847 112.228V115.001C171.847 134.373 163.489 151.82 150.01 164.337V110.38ZM120.008 123.936C121.471 123.936 122.665 122.742 122.665 121.317V90.0444C122.665 88.5809 121.471 87.387 120.008 87.387V74.5236H138.533C142.307 74.5236 145.388 77.6046 145.388 81.3789V98.2863C145.388 100.905 142.423 102.099 142.423 102.099C142.423 102.099 145.388 103.293 145.388 105.912V121.279C145.388 122.742 146.582 123.898 148.045 123.898V159.407C148.045 166.108 146.351 167.533 146.351 167.533C143.116 170.152 139.65 172.502 135.991 174.543C136.337 173.31 136.607 171.885 136.607 170.114V108.762C136.607 107.183 135.336 105.912 133.757 105.912C132.178 105.912 130.907 107.183 130.907 108.762V120.2C130.907 122.242 132.563 123.898 134.604 123.898V169.498C134.604 175.275 131.446 176.815 131.446 176.815C127.017 178.856 122.357 180.474 117.504 181.668C118.968 180.204 120.046 178.163 120.046 175.506V123.936H120.008ZM91.7389 74.485H118.044V95.5134H111.804V90.9688C111.804 88.9661 110.187 87.3485 108.184 87.3485C106.181 87.3485 104.564 88.9661 104.564 90.9688V98.2863H111.766V107.684H104.564V120.354C104.564 122.357 106.181 123.975 108.184 123.975C110.187 123.975 111.804 122.357 111.804 120.354V110.418H118.044V175.544C118.044 181.591 111.188 182.939 111.188 182.939C107.529 183.478 103.794 183.786 99.9808 183.786C96.8612 183.786 93.7801 183.593 90.7761 183.208C91.7389 182.592 93.7031 180.859 93.7031 177.085V123.936C95.1666 123.936 96.322 122.742 96.322 121.317V92.0086C96.322 89.4668 94.2423 87.387 91.7004 87.387V74.485H91.7389ZM69.3627 170.191V123.936C70.8262 123.936 71.9816 122.742 71.9816 121.317V90.0444C71.9816 88.5809 70.7877 87.387 69.3627 87.387V74.5236H82.8809V87.387C81.4174 87.387 80.2619 88.5809 80.2619 90.0444V121.317C80.2619 122.781 81.4559 123.936 82.8809 123.936C84.3444 123.936 85.4998 122.742 85.4998 121.317V110.418H91.7389V177.085C91.7389 183.324 85.4998 182.4 85.4998 182.4C78.6829 181.052 72.2126 178.818 66.2431 175.775C67.2829 175.352 69.3627 174.081 69.3627 170.191ZM53.8803 155.44V123.936C55.3438 123.936 56.4992 122.742 56.4992 121.317V90.0444C56.4992 88.5809 55.3053 87.387 53.8803 87.387V74.5236H67.3985V87.387C65.935 87.387 64.7796 88.5809 64.7796 90.0444V121.317C64.7796 122.781 65.9735 123.936 67.3985 123.936V170.191C67.3985 175.544 62.6998 173.773 62.6998 173.773C57.5776 170.807 52.8789 167.225 48.7195 163.143C50.4911 163.066 53.8803 162.026 53.8803 155.44ZM28.1533 81.3404C28.1533 77.5661 31.2344 74.485 35.0087 74.485H45.0222C48.7965 74.485 51.8776 77.5661 51.8776 81.3404V155.44C51.8776 162.758 47.1019 161.987 45.0222 159.292C34.4695 147.352 28.1148 131.909 28.1148 115.04V81.3404H28.1533Z" fill="white"/>
<path d="M181.976 176.853C181.976 174.003 179.665 171.73 176.853 171.73C174.003 171.73 171.731 174.041 171.731 176.853C171.731 179.703 174.042 182.014 176.853 182.014C179.665 181.975 181.976 179.664 181.976 176.853ZM172.809 176.853C172.809 174.619 174.619 172.809 176.853 172.809C179.087 172.809 180.897 174.619 180.897 176.853C180.897 179.087 179.087 180.897 176.853 180.897C174.619 180.897 172.809 179.087 172.809 176.853Z" fill="#00205B"/>
<path d="M178.971 179.781L177.816 177.278C178.509 177.047 178.971 176.392 178.971 175.622C178.971 174.659 178.201 173.889 177.238 173.889H174.773V179.781H175.89V177.393H176.699L177.816 179.781H178.971ZM177.2 176.277H175.813V175.006H177.2C177.546 175.006 177.855 175.275 177.855 175.66C177.855 176.007 177.546 176.277 177.2 176.277Z" fill="#00205B"/>
<path d="M116.118 39.6299C116.118 28.3454 106.336 22.2988 99.9809 6.54688C93.6647 22.3374 83.8438 28.3454 83.8438 39.6299C83.8438 47.3325 90.237 54.8812 99.9809 54.8812C109.763 54.8427 116.118 47.3325 116.118 39.6299Z" fill="#D14520"/>
<path d="M105.566 4.81641C116.966 22.7251 122.126 29.3109 122.126 39.3244C122.126 51.3406 112.036 61.0845 99.9812 61.0845C87.965 61.0845 77.836 51.3406 77.836 39.3244C77.836 29.3109 82.9968 22.7251 94.3968 4.81641C44.3679 7.6664 4.62207 49.1838 4.62207 99.983C4.62207 152.669 47.3334 195.342 99.9812 195.342C152.668 195.342 195.34 152.631 195.34 99.983C195.379 49.1838 155.633 7.6664 105.566 4.81641ZM99.9812 186.677C52.1091 186.677 13.2876 147.855 13.2876 99.983C13.2876 59.8135 40.5936 26.0373 77.682 16.1779C75.7178 18.6427 69.1705 27.6548 69.1705 39.2859C69.1705 56.0777 82.9968 69.75 99.9812 69.75C116.966 69.75 130.792 56.0777 130.792 39.2859C130.792 27.6548 124.245 18.6427 122.28 16.1779C159.369 26.0373 186.675 59.8135 186.675 99.983C186.675 147.855 147.853 186.677 99.9812 186.677Z" fill="#00205B"/>
<path d="M118.044 110.381H111.843V120.317C111.843 122.32 110.226 123.938 108.223 123.938C106.22 123.938 104.603 122.32 104.603 120.317V107.646H111.805V98.2491H104.603V90.9315C104.603 88.9289 106.22 87.3113 108.223 87.3113C110.226 87.3113 111.843 88.9289 111.843 90.9315V95.5146H118.044V74.4863H91.7393V87.3498C94.2811 87.3498 96.3609 89.391 96.3609 91.9714V121.28C96.3609 122.744 95.1669 123.899 93.742 123.899V177.009C93.742 180.822 91.7393 182.516 90.8149 183.133C93.819 183.518 96.9001 183.71 100.02 183.71C103.832 183.71 107.568 183.402 111.227 182.863C111.227 182.863 118.082 181.515 118.082 175.468V110.381H118.044Z" fill="#00205B"/>
<path d="M91.7395 110.381H85.5003V121.319C85.5003 122.782 84.3064 123.938 82.8814 123.938C81.4179 123.938 80.2625 122.744 80.2625 121.319V90.0072C80.2625 88.5437 81.4564 87.3498 82.8814 87.3498V74.4863H69.3632V87.3498C70.8267 87.3498 71.9821 88.5437 71.9821 90.0072V121.28C71.9821 122.744 70.7882 123.899 69.3632 123.899V170.154C69.3632 174.005 67.245 175.276 66.2437 175.661C72.2132 178.704 78.6835 180.976 85.5003 182.285C85.5003 182.285 91.7395 183.248 91.7395 176.97V110.381Z" fill="#00205B"/>
<path d="M67.3988 170.193V123.939C65.9353 123.939 64.7799 122.745 64.7799 121.32V90.0468C64.7799 88.5833 65.9738 87.4279 67.3988 87.4279V74.5645H53.8806V87.4279C55.3441 87.4279 56.4995 88.6218 56.4995 90.0468V121.32C56.4995 122.783 55.3056 123.939 53.8806 123.939V155.443C53.8806 162.028 50.4914 163.068 48.7583 163.145C52.9177 167.228 57.6164 170.809 62.7387 173.775C62.7387 173.813 67.3988 175.585 67.3988 170.193Z" fill="#00205B"/>
<path d="M171.809 95.5146V81.3417C171.809 77.5674 168.728 74.4863 164.953 74.4863H156.866C153.091 74.4863 150.01 77.5674 150.01 81.3417V100.252C150.01 101.253 150.626 102.64 151.358 103.294L162.18 113C162.912 113.654 163.528 115.041 163.528 116.042V120.24C163.528 122.281 161.872 123.899 159.87 123.899C157.828 123.899 156.211 122.243 156.211 120.24V110.381H149.972V164.338C163.413 151.86 171.809 134.375 171.809 115.002V112.229C171.809 111.228 171.193 109.842 170.461 109.187L159.639 99.4815C158.868 98.7883 158.252 97.4403 158.252 96.439V90.0072C158.252 88.5437 159.446 87.3498 160.909 87.3498C162.373 87.3498 163.567 88.5437 163.567 90.0072V95.5146H171.809Z" fill="#00205B"/>
<path d="M51.9166 155.441V81.3417C51.9166 77.5674 48.8356 74.4863 45.0612 74.4863H35.0478C31.2735 74.4863 28.1924 77.5674 28.1924 81.3417V115.041C28.1924 131.91 34.5471 147.354 45.0998 159.293C47.1025 161.989 51.9166 162.759 51.9166 155.441ZM43.6748 120.317C43.6748 122.32 42.0572 123.938 40.0545 123.938C38.0518 123.938 36.4342 122.32 36.4342 120.317V91.0086C36.4342 89.0059 38.0518 87.3883 40.0545 87.3883C42.0572 87.3883 43.6748 89.0059 43.6748 91.0086V120.317Z" fill="#00205B"/>
<path d="M145.389 121.281V105.952C145.389 103.333 142.423 102.101 142.423 102.101C142.423 102.101 145.389 100.907 145.389 98.2881V81.3808C145.389 77.6065 142.307 74.5254 138.533 74.5254H120.008V87.3889C121.472 87.3889 122.666 88.5828 122.666 90.0078V121.281C122.666 122.744 121.472 123.9 120.008 123.9V175.507C120.008 178.165 118.93 180.206 117.466 181.67C122.319 180.514 127.018 178.897 131.408 176.817C131.408 176.817 134.566 175.276 134.566 169.499V123.938C132.525 123.938 130.869 122.282 130.869 120.241V108.802C130.869 107.223 132.14 105.952 133.719 105.952C135.298 105.952 136.569 107.223 136.569 108.802V170.154C136.569 171.887 136.338 173.351 135.953 174.545C139.612 172.503 143.078 170.154 146.313 167.535C146.313 167.535 148.007 166.11 148.007 159.409V123.9C146.582 123.938 145.389 122.744 145.389 121.281ZM137.147 95.1686C137.147 96.9017 135.76 98.2881 134.027 98.2881C132.294 98.2881 130.907 96.9017 130.907 95.1686V90.5084C130.907 88.7753 132.294 87.3889 134.027 87.3889C135.76 87.3889 137.147 88.7753 137.147 90.5084V95.1686Z" fill="#00205B"/>
</g>
<defs>
<clipPath id="clip0_18_2156">
<rect width="200" height="200" fill="white"/>
</clipPath>
</defs>
</svg>
