<svg width="200" height="200" viewBox="0 0 200 200" fill="none" xmlns="http://www.w3.org/2000/svg">
<path d="M11 20.333V58.2386C11.2959 81.4594 16.4592 104.36 26.1566 125.461C42.8417 161.613 67.3877 182.904 100.309 200C132.96 183.041 157.671 161.844 174.462 125.461C184.16 104.36 189.323 81.4594 189.619 58.2386V20.3323C162.007 5.95763 130.435 0 100.309 0C70.4633 0 38.7915 5.86194 11 20.333Z" fill="#041E42"/>
<path d="M15.8472 23.2731V58.238C16.137 80.7581 21.1483 102.967 30.5574 123.429C46.0711 157.043 69.5995 178.588 100.31 194.538C131.143 178.524 154.602 156.926 170.062 123.429C179.47 102.967 184.482 80.758 184.772 58.238V23.2731C160.317 10.5416 128.31 4.8457 100.31 4.8457C72.2118 4.8457 40.2538 10.5647 15.8472 23.2731Z" fill="#B9975B"/>
<path d="M136.711 94.1434C140.7 91.8994 146.06 86.9125 146.06 86.9125C148.928 78.4357 151.405 67.0708 151.405 67.0708C151.405 65.9489 150.05 64.1253 150.05 64.1253C148.604 63.5643 147.098 63.1723 145.562 62.957C140.933 63.7049 134.903 68.2394 130.102 72.0054C132.404 71.8929 134.695 71.6237 136.96 71.1997C136.087 73.4437 132.97 79.3034 132.97 79.3034C134.944 79.2534 136.907 79.0027 138.83 78.5552C137.6 82.0559 136.143 85.4723 134.467 88.7827L136.711 94.1434ZM103.363 78.3683C102.738 78.1033 102.11 77.8456 101.478 77.595C99.6288 76.8587 98.0335 76.2801 98.0335 76.2801C98.0335 76.2801 97.6536 76.2826 96.9051 76.3677C96.7179 76.3892 96.5075 76.4162 96.2738 76.4486C95.7123 76.5289 95.1532 76.6242 94.5967 76.7344C89.676 77.8007 84.892 79.4207 80.336 81.5637L79.773 80.407L79.0226 78.8653L71.5107 89.2036C74.0267 89.648 76.5793 89.8559 79.134 89.8247C82.3667 89.8076 85.5924 89.5197 88.777 88.9641C91.2409 86.8575 93.5685 84.5966 95.7459 82.195C96.2249 81.6706 96.6974 81.1404 97.1633 80.6042C97.6623 80.0304 97.976 79.6531 98.064 79.5523C99.8099 79.0536 101.182 78.804 103.363 78.3683ZM114.836 85.191C110.598 81.8251 107.851 80.9118 107.851 80.9118C107.851 80.9118 108.105 85.7305 107.731 87.2577C104.91 91.06 101.895 94.7154 98.6995 98.2096L113.434 91.4553C114.287 88.3109 114.836 85.191 114.836 85.191Z" fill="#041E42"/>
<path d="M100.309 48.4199C54.6636 48.4199 24.371 63.2066 21.9351 64.4339C23.3807 92.9199 35.1801 144.369 83.835 177.969C90.3459 174.483 94.6858 168.62 97.2656 164.052C102.395 170.254 102.926 178.908 102.926 178.913C102.508 182.011 101.625 185.029 100.309 187.864C104.546 185.666 108.676 183.275 112.697 180.693C118.936 176.689 124.858 172.21 130.409 167.296C130.562 167.16 130.715 167.025 130.867 166.889C148.026 149.136 148.516 122.531 148.516 122.531C144.776 107.01 138.206 101.622 138.206 101.622C139.515 108.723 140.325 116.514 140.325 116.514C137.525 122.384 133.559 127.622 128.67 131.91C121.938 132.658 116.601 131.987 107.259 128.825C102.268 127.111 97.5218 124.754 93.1405 121.813C90.9262 121.711 88.7073 121.774 86.5021 121.999C83.4952 122.316 79.8637 123.121 79.8637 123.121C83.8841 116.015 86.2687 108.796 86.7028 105.512C84.0451 102.638 81.1253 100.018 77.9814 97.685C71.3234 97.9952 66.0263 98.3805 66.0263 98.3805L68.2703 89.2804C68.2703 89.2804 66.7389 90.5556 65.0277 92.2671C63.1906 94.1042 61.1643 96.3864 61.1643 96.3864C58.051 97.5207 54.8365 98.3554 51.5646 98.8792C49.5758 98.288 47.6854 97.4059 45.9548 96.2614C52.6869 86.2886 63.6575 82.2988 63.6575 82.2988C61.6624 79.9309 61.7873 78.0607 61.7873 78.0607C64.5841 76.2117 67.1393 74.689 69.3973 73.4434C69.0798 74.2435 68.8682 75.0816 68.7679 75.9365C70.7486 74.3327 72.8101 72.8314 74.9443 71.4384C77.5623 69.8675 80.1129 68.5239 80.1129 68.5239C81.8062 63.0682 84.709 58.6442 85.4572 58.0158C86.2245 57.8883 87.0026 57.8379 87.7798 57.8655C87.9285 59.6502 89.9666 62.4947 90.7954 63.5852C87.9768 64.5786 85.3157 65.9724 82.8941 67.7237C82.8941 67.7237 92.1974 65.2418 100.432 64.966C111.59 64.5919 118.466 67.1081 118.466 67.1081C117.237 68.8312 115.92 70.4897 114.52 72.0771C132.976 65.8208 134.903 61.0391 144.907 58.8889C147.267 59.2926 149.591 59.8866 151.856 60.665C153.239 62.0767 154.247 63.8125 154.786 65.7139C153.415 76.3726 149.114 88.3457 149.114 88.3457C145.748 92.4591 139.951 96.1992 139.951 96.1992C145.748 95.4516 154.35 92.8281 154.35 92.8281C159.698 96.7309 166.719 105.214 169.633 108.866C174.789 94.5728 177.838 79.6052 178.683 64.4339C176.248 63.2066 145.955 48.4199 100.309 48.4199Z" fill="#041E42"/>
<path d="M49.0719 120.071C50.3237 118.076 51.7558 116.199 53.3501 114.465L50.7539 107.163C49.8047 106.292 48.9293 105.343 48.1369 104.327C47.4761 103.466 46.8567 102.575 46.2789 101.654L43.7109 108.353C45.189 112.393 46.9815 116.311 49.0719 120.071ZM52.5625 123.931C53.6989 127.343 55.7725 130.368 58.5464 132.657C63.8373 130.673 69.373 129.417 75.0019 128.922C75.0019 128.922 62.5353 123.811 54.4326 118.076C53.2544 119.805 52.6046 121.839 52.5625 123.931ZM88.7774 88.9622C85.5925 89.518 82.3667 89.8059 79.1337 89.8228C76.579 89.8539 74.027 89.6459 71.5111 89.2017L76.9964 91.7674C81.4778 92.0591 85.978 91.7235 90.3666 90.7704C93.318 88.0385 95.9054 84.938 98.065 81.5454C98.1026 80.8809 98.1023 80.2148 98.064 79.5504C97.9757 79.6515 97.662 80.0285 97.163 80.6023C96.6969 81.1383 96.2243 81.6685 95.7453 82.1931C93.5683 84.5949 91.2413 86.8558 88.7774 88.9622ZM73.0072 121.567C73.0072 121.567 73.4551 120.862 74.0611 119.687C72.5115 118.275 70.8453 116.996 69.0803 115.864C71.2444 115.812 73.4074 116.006 75.5279 116.442C75.7077 115.983 75.8831 115.5 76.0529 115.001C74.1081 113.505 72.0153 112.212 69.8073 111.143C72.221 110.824 74.6634 110.782 77.0866 111.019C77.1637 110.579 77.2247 110.132 77.2751 109.683C74.6951 108.083 71.9058 106.849 68.9868 106.016C70.7946 105.436 72.6555 105.037 74.5421 104.825L72.0714 101.927C70.149 101.86 68.2243 101.896 66.3058 102.037C62.4479 102.296 58.9099 102.801 58.9099 102.801C58.3219 103.242 57.4273 103.953 56.769 104.468C55.8796 105.26 55.0754 106.142 54.3697 107.102L54.4901 114.225C56.7835 115.294 65.7792 119.409 73.0072 121.567ZM111.154 142.007C112.108 144.426 112.828 146.931 113.304 149.487C113.74 151.481 113.866 153.531 113.679 155.564C101.711 141.851 84.3518 133.411 84.3518 133.411C84.3518 133.411 108.412 153.232 102.926 178.912C102.508 182.01 101.625 185.028 100.309 187.863C104.546 185.665 108.676 183.274 112.697 180.692C118.937 176.688 124.858 172.209 130.409 167.295C123.661 152.169 111.154 142.007 111.154 142.007ZM80.3353 81.5615C84.8915 79.4187 89.6756 77.7987 94.5964 76.7325C95.1528 76.6223 95.7118 76.5271 96.2735 76.4468C96.4836 76.417 96.694 76.3901 96.9048 76.3662C97.6539 76.2804 98.0322 76.2782 98.0322 76.2782H98.0335C89.3339 74.7432 79.0219 78.8631 79.0219 78.8631L79.7727 80.4054L80.3353 81.5615Z" fill="white"/>
<path d="M83.6661 85.7902C83.0443 85.9779 82.3845 86.0014 81.7508 85.8585C81.1172 85.7156 80.5314 85.4111 80.0504 84.9746C79.5828 85.769 79.053 86.663 79.053 86.663C80.3158 87.1519 81.667 87.3712 83.0196 87.3068C84.3723 87.2423 85.6965 86.8956 86.9071 86.2889C87.6569 85.9426 88.3299 85.4498 88.8866 84.8397C89.4433 84.2296 89.8724 83.5144 90.1488 82.7361C88.618 82.8493 87.0946 83.0465 85.5854 83.3269C85.4714 83.8555 85.2396 84.3514 84.9072 84.7779C84.5748 85.2043 84.1508 85.5506 83.6661 85.7902ZM21.7713 58.0691C45.2856 47.3695 74.4244 42.496 100.309 42.496C126.108 42.496 155.287 47.3544 178.847 58.0736V26.8696C178.847 26.8696 147.931 10.7715 100.309 10.7715C52.6876 10.7715 21.771 26.8696 21.771 26.8696L21.7713 58.0691Z" fill="#C8102E"/>
<path d="M63.9836 36.0542C61.7467 36.4714 59.5175 36.9266 57.2958 37.42V21.1536C55.9301 21.4574 54.5665 21.7756 53.2051 22.1082V42.4862C56.7758 41.613 60.3686 40.8395 63.9836 40.1658V36.0542ZM100.457 28.6766C100.787 28.6766 101.115 28.6776 101.444 28.6799C102.548 31.3974 103.652 34.124 104.755 36.8596C106.233 36.8933 107.71 36.943 109.187 37.0086C108.084 34.2486 106.981 31.4973 105.877 28.7547C106.333 28.7675 106.789 28.782 107.245 28.798C107.891 27.6492 108.538 26.5011 109.186 25.3538V20.1478C108.542 18.9494 107.896 17.7519 107.248 16.5552C103.595 16.4272 99.9399 16.4003 96.2836 16.4743C96.2836 23.2668 96.2833 30.059 96.2829 36.8509C97.6742 36.8228 99.0657 36.8093 100.457 36.8105L100.457 28.6766ZM100.457 20.5441C101.976 20.5457 103.495 20.5643 105.015 20.6V24.6219C103.496 24.5858 101.977 24.5671 100.457 24.5657V20.5441ZM37.1394 39.0095C38.6914 38.4878 40.2497 37.9855 41.8142 37.5025V33.3906C40.2498 33.8736 38.6915 34.376 37.1394 34.8976V30.8759C39.3107 30.1463 41.4941 29.4542 43.6895 28.7996V24.6887C40.1421 25.7457 36.6263 26.9013 33.1422 28.1555C33.1422 34.948 33.142 41.7405 33.1416 48.5331C34.4691 48.0547 35.8017 47.5909 37.1395 47.1417L37.1394 39.0095ZM159.089 37.5911C160.558 38.0471 162.021 38.5198 163.479 39.0095V47.1417C164.815 47.5912 166.147 48.055 167.476 48.5331V31.6762C166.859 30.2823 166.24 28.8893 165.619 27.4972C162.745 26.4946 159.849 25.5587 156.93 24.6894C156.304 25.6752 155.677 26.6642 155.049 27.6565V44.5162C156.4 44.904 157.747 45.3061 159.089 45.7223L159.089 37.5911ZM159.089 29.4586C160.558 29.9142 162.021 30.3872 163.479 30.8776V34.8986C162.02 34.4085 160.557 33.9359 159.089 33.4805V29.4586ZM84.578 37.435C85.2223 36.2128 85.8683 34.9913 86.5159 33.7708V20.4343C85.871 19.3084 85.2249 18.1833 84.5777 17.0587C81.576 17.2971 78.5809 17.6043 75.5926 17.9803C74.9479 19.2357 74.3051 20.492 73.6639 21.7492V35.0909C74.3061 36.1763 74.949 37.2648 75.5926 38.3566C78.5802 37.9812 81.5756 37.674 84.578 37.435ZM77.8131 21.826C79.3249 21.6535 80.8381 21.4983 82.3526 21.3604V33.5126C80.8376 33.6501 79.3244 33.8052 77.8131 33.9779V21.826ZM123.1 17.7469C121.716 17.5867 120.331 17.4411 118.944 17.3098V37.6878C120.331 37.8188 121.716 37.9641 123.1 38.1238V17.7469ZM145.515 38.5114V25.1749C144.882 23.8553 144.247 22.5366 143.61 21.2188C140.028 20.4173 136.425 19.7155 132.803 19.1132V39.4905C136.424 40.0919 140.026 40.7935 143.61 41.5954C144.246 40.5646 144.881 39.5369 145.515 38.5114ZM141.417 37.0054C139.924 36.6886 138.428 36.3896 136.927 36.1082V23.9556C138.426 24.2375 139.923 24.5367 141.417 24.8531V37.0054Z" fill="white"/>
</svg>
