<svg width="200" height="200" viewBox="0 0 200 200" fill="none" xmlns="http://www.w3.org/2000/svg">
<path d="M16 0V139.322L100.071 200L183.918 139.322V0.000314239L16 0Z" fill="black"/>
<path d="M20.1558 4.15625V137.198L100.069 194.872L179.761 137.198V4.15625H20.1558Z" fill="#A2AAAD"/>
<path d="M100.071 190.065L175.865 135.206V8.05273H24.0522V135.207L90.8002 183.375L100.071 190.065ZM28.9006 12.5083H171.253V96.5159H28.9006V12.5083ZM28.9006 100.908H171.253V132.252L100.077 183.697L100.076 183.698L71.337 162.925L28.9003 132.252L28.9006 100.908Z" fill="white"/>
<path d="M33.3828 17.0071L33.3834 17.0059H166.765V89.9028H166.764V89.9038H33.3831L33.3828 17.0071Z" fill="#A2AAAD"/>
<path d="M33.3855 108.713H33.3842V129.952L100.074 178.15L100.075 178.149L166.769 129.952V108.714L33.3855 108.713ZM166.765 89.9029V17.0059H33.3833V89.9029H166.765Z" fill="black"/>
<path d="M100.071 190.065L175.865 135.206V8.05273H24.0522V135.207L90.8002 183.375L100.071 190.065ZM28.9006 12.5083H171.253V96.5159H28.9006V12.5083ZM28.9006 100.908H171.253V132.252L100.077 183.697L100.076 183.698L71.337 162.925L28.9003 132.252L28.9006 100.908Z" fill="white"/>
<path d="M166.765 89.9029V17.0059H33.3833V89.9029H166.765ZM33.3855 108.713H33.3842V129.952L100.074 178.15L100.075 178.149L166.769 129.952V108.714L33.3855 108.713Z" fill="black"/>
<path d="M151.586 36.4688H112.109V51.8721H151.586V36.4688ZM150.43 50.7183H113.266V37.6191H150.429L150.43 50.7183Z" fill="#A2AAAD"/>
<path d="M75.4518 69.2886H49.7273V53.4537C49.7273 36.8137 53.2312 29.8646 53.886 28.7114C53.9525 28.5939 53.9891 28.5374 53.9907 28.5352H37.3898C37.4064 28.5602 41.6556 35.133 41.6556 53.4527C41.6556 71.8075 37.3892 78.3684 37.3892 78.3684H91.6414L91.6446 78.3638C94.6347 73.7404 96.2052 68.3425 96.1623 62.8367C96.1076 62.8936 89.9138 69.2886 75.4518 69.2886ZM158.493 53.4527C158.493 51.3917 158.549 49.4872 158.645 47.7159C159.401 33.7151 162.766 28.5352 162.766 28.5352H100.922C100.938 28.5602 105.2 35.133 105.2 53.4527C105.2 67.2203 102.793 74.3526 101.589 77.0571C101.398 77.5093 101.175 77.9474 100.922 78.3681H113.263V59.8071H150.43V78.3681H162.765C162.753 78.3487 158.895 72.3881 158.524 56.0069C158.506 55.1797 158.493 54.334 158.493 53.4527ZM150.43 50.7192H113.266V37.62H150.429L150.43 50.7192Z" fill="#A2AAAD"/>
<path d="M86.6632 69.002C83.0061 69.9905 79.2308 70.4738 75.4426 70.4383H48.5712V53.4521C48.5275 48.5025 48.9026 43.558 49.6925 38.6716C50.076 36.3169 50.6392 33.995 51.3773 31.7262C51.6054 31.0394 51.86 30.3621 52.141 29.6946H39.2363C39.5177 30.3615 39.7726 31.0388 40.0011 31.7262C40.7397 33.9948 41.303 36.3168 41.6861 38.6716C42.4752 43.5581 42.8499 48.5025 42.8062 53.4521V53.453C42.8485 58.3598 42.4812 63.2616 41.708 68.1072C41.3065 70.6306 40.6941 73.1159 39.8773 75.537C39.6822 76.1019 39.4685 76.6598 39.2363 77.2109H91.0197C91.723 76.0719 92.3276 74.8749 92.827 73.6329C93.9135 70.9726 94.6008 68.1664 94.8668 65.3052C94.2577 65.7187 93.63 66.1028 92.9839 66.4575C90.9825 67.5473 88.8614 68.4012 86.6632 69.002ZM157.643 61.5491C157.453 59.1411 157.335 56.4616 157.335 53.4543C157.335 50.926 157.415 48.6181 157.554 46.5164C157.784 41.6391 158.609 36.8082 160.012 32.1313C160.333 31.1343 160.642 30.3202 160.908 29.6934H102.781C103.567 31.6065 104.184 33.585 104.624 35.6062C105.869 41.4719 106.45 47.4588 106.357 53.4543C106.453 59.4862 105.863 65.5095 104.599 71.4084C104.163 73.3917 103.554 75.3332 102.781 77.2109H112.109V58.6455L112.11 58.6433H151.587V77.2108H160.908C160.637 76.5733 160.322 75.7411 159.995 74.7204C158.71 70.4344 157.921 66.015 157.643 61.5491ZM151.587 51.8723H112.109V36.469H151.586L151.587 51.8723Z" fill="white"/>
<path d="M124.049 126.234C124.042 126.244 120.008 131.628 119.258 132.633L119.257 132.632L119.255 132.635C118.44 131.664 117.517 130.79 116.506 130.027C114.595 128.565 112.454 127.434 110.171 126.678L110.171 126.676C110.405 126.109 111.222 124.118 111.701 122.95L112.058 122.078L111.086 122.473C110.276 122.803 109.466 123.134 108.656 123.466L108.658 123.462L108.653 123.464C108.755 123.251 108.862 123.052 108.865 123.047L106.937 123.146C105.961 123.197 104.922 123.253 104.638 123.271C104.597 123.197 104.519 123.058 104.42 122.881C104.098 122.309 103.522 121.29 103.018 120.396C102.576 119.614 102.19 118.931 102.083 118.74C102.17 118.586 102.329 118.308 102.499 118.012C102.785 117.509 103.103 116.955 103.155 116.876C103.213 116.818 103.45 116.614 103.685 116.413C103.95 116.184 104.212 115.959 104.212 115.959L103.001 113.658L101.792 113.741L100.423 113.837L100.412 114.155C100.399 114.527 100.379 115.113 100.374 115.264L100.193 115.559L100.078 115.753L100.076 115.749L100.075 115.751L99.9128 115.485L99.7752 115.263C99.769 115.038 99.724 113.844 99.7237 113.837L98.6014 113.758L97.1445 113.658L96.6051 114.681L95.9341 115.959C95.9341 115.959 96.8654 116.755 96.9976 116.874C97.0782 117.003 97.832 118.324 98.0739 118.74C97.803 119.217 95.8082 122.745 95.5185 123.271C95.2034 123.252 94.0071 123.188 92.9649 123.133C92.0673 123.087 91.2839 123.047 91.2839 123.047C91.2839 123.047 91.3454 123.162 91.4214 123.314C91.4466 123.364 91.4715 123.414 91.4961 123.464L91.4967 123.465C91.2545 123.366 90.9342 123.235 90.5879 123.093C89.49 122.647 88.13 122.094 88.0953 122.08C88.1024 122.098 88.5009 123.074 88.9366 124.139C89.3584 125.168 89.8138 126.276 89.9791 126.676L89.9788 126.678C86.8199 127.702 83.9516 129.467 81.613 131.824C81.6037 131.834 81.5921 131.844 81.583 131.854C81.5602 131.877 81.543 131.9 81.5205 131.924C81.3029 132.153 81.0934 132.39 80.892 132.635L80.7189 132.403C79.6626 130.992 76.103 126.234 76.103 126.234L75.0786 126.678L80.0217 155.045C80.0217 155.045 87.0658 156.846 100.075 156.846C113.08 156.846 120.124 155.045 120.124 155.045L125.071 126.678L124.453 126.409L124.049 126.234Z" fill="white"/>
<path d="M91.4857 136.488C91.0697 136.488 90.6708 136.653 90.3761 136.947C90.0814 137.24 89.9149 137.639 89.9131 138.055C89.9126 138.261 89.953 138.467 90.0318 138.658C90.1106 138.849 90.2264 139.023 90.3724 139.169C90.5185 139.316 90.692 139.432 90.883 139.511C91.074 139.59 91.2787 139.631 91.4855 139.631C91.6923 139.631 91.897 139.59 92.088 139.511C92.279 139.432 92.4525 139.316 92.5986 139.169C92.7446 139.023 92.8604 138.849 92.9392 138.658C93.018 138.467 93.0584 138.262 93.0579 138.055C93.0579 137.849 93.0173 137.645 92.9384 137.455C92.8596 137.265 92.7441 137.092 92.5986 136.947C92.453 136.801 92.2802 136.686 92.0901 136.607C91.8999 136.529 91.6961 136.488 91.4904 136.488L91.4857 136.488ZM108.341 136.488C107.925 136.489 107.526 136.653 107.231 136.947C106.937 137.24 106.77 137.639 106.768 138.055C106.768 138.472 106.934 138.873 107.229 139.168C107.525 139.464 107.925 139.629 108.343 139.629C108.76 139.629 109.16 139.464 109.456 139.168C109.751 138.873 109.917 138.473 109.917 138.055C109.915 137.639 109.748 137.239 109.453 136.945C109.157 136.652 108.758 136.487 108.341 136.488Z" fill="black"/>
<path d="M119.228 134.478L119.219 134.465C118.972 134.065 118.702 133.681 118.41 133.315C118.112 132.941 117.793 132.584 117.456 132.244L117.43 132.218C117.084 131.872 116.722 131.542 116.343 131.231L116.29 131.187C115.904 130.873 115.505 130.575 115.093 130.295C115.062 130.274 115.031 130.253 114.999 130.231C114.537 129.922 114.062 129.632 113.575 129.363C113.071 129.085 112.557 128.827 112.032 128.59C111.49 128.344 110.94 128.119 110.38 127.915C109.857 127.723 109.327 127.549 108.792 127.391C108.765 127.383 108.74 127.374 108.713 127.367L108.714 127.365L109.546 125.337L110.043 124.127L110.044 124.125L103.222 127.186V125.507L100.077 120.084L100.076 120.086L96.9225 125.507V127.186L96.9203 127.185L90.1037 124.125L90.735 125.658L91.4378 127.367C88.1644 128.233 85.1602 129.905 82.6998 132.232C82.0205 132.909 81.4222 133.663 80.9169 134.478L76.513 128.577L76.5117 128.575L78.0274 137.391L80.8619 153.874C80.8619 153.874 86.4829 155.277 95.9612 155.543L95.9749 155.543C95.9749 155.543 89.5321 154.941 85.7035 153.479L85.6988 153.477C86.1383 153.539 86.5781 153.599 87.0182 153.656C88.2908 153.822 89.7865 153.993 91.3716 154.126C93.0123 154.265 94.738 154.363 96.4 154.363L96.4131 154.364C94.5811 154.155 92.7614 153.848 90.9619 153.446C89.859 153.204 88.7735 152.888 87.7127 152.501L87.7242 152.503C88.6055 152.621 89.6171 152.745 90.6944 152.858C92.9524 153.106 95.2216 153.24 97.4932 153.258H97.5025C94.5913 152.948 91.7189 152.344 88.9287 151.458L88.9277 151.457C89.8957 151.253 90.8687 151.074 91.8466 150.922C96.819 150.125 101.881 150.056 106.873 150.718C108.433 150.921 109.894 151.175 111.214 151.457L111.211 151.458C108.426 152.345 105.558 152.948 102.652 153.258H102.66C104.957 153.239 107.252 153.103 109.534 152.849C110.504 152.747 111.472 152.631 112.438 152.501C111.351 152.897 110.239 153.218 109.109 153.464C107.334 153.857 105.54 154.158 103.734 154.364L103.743 154.364C105.415 154.363 107.152 154.264 108.803 154.124C110.449 153.984 112.006 153.805 113.308 153.633C113.713 153.58 114.098 153.527 114.449 153.478L114.445 153.479C110.619 154.941 104.173 155.543 104.173 155.543L104.19 155.543C113.669 155.277 119.283 153.874 119.283 153.874L123.639 128.578L123.639 128.575L119.228 134.478ZM103.225 139.223V127.802L105.199 126.916L108.981 125.217L108.98 125.22L105.142 134.562L103.225 139.228V139.223ZM108.252 128.483L108.252 128.482C111.182 129.275 113.894 130.722 116.184 132.715C117.081 133.522 117.844 134.467 118.444 135.514L118.444 135.515L117.34 136.991L117.243 137.121C116.52 135.7 115.515 134.442 114.288 133.425C114.119 133.284 113.946 133.149 113.769 133.017C113.649 132.929 113.529 132.847 113.41 132.765C113.356 132.728 113.302 132.688 113.248 132.652C113.134 132.576 113.02 132.507 112.906 132.437C112.848 132.401 112.789 132.362 112.73 132.327C112.618 132.261 112.508 132.201 112.398 132.14C112.339 132.107 112.28 132.072 112.222 132.041C112.111 131.982 112.003 131.929 111.894 131.875C111.839 131.847 111.782 131.817 111.726 131.791C111.618 131.739 111.513 131.693 111.407 131.646C111.355 131.623 111.301 131.597 111.25 131.575C111.138 131.527 111.03 131.484 110.922 131.442C110.881 131.426 110.838 131.407 110.797 131.391C110.682 131.347 110.571 131.307 110.461 131.269C110.432 131.259 110.401 131.247 110.372 131.237C110.251 131.195 110.135 131.158 110.023 131.123C110.009 131.119 109.995 131.114 109.982 131.11C109.492 130.953 108.99 130.838 108.482 130.764L108.472 130.763C109.741 131.219 110.949 131.831 112.068 132.585C113.617 133.599 114.857 135.02 115.653 136.691C115.912 137.252 116.114 137.837 116.257 138.438L115.135 139.947C115.135 139.948 115.28 143.975 114.475 145.673C114.304 145.609 114.133 145.548 113.961 145.488C113.844 145.447 113.727 145.406 113.598 145.364V145.363C114.495 141.664 114.083 139.005 113.156 137.108C113.049 136.888 112.932 136.674 112.806 136.464C112.718 136.32 112.625 136.186 112.532 136.051C112.494 135.996 112.458 135.936 112.42 135.882C112.323 135.749 112.221 135.626 112.12 135.503C112.082 135.456 112.045 135.404 112.006 135.359C111.904 135.239 111.798 135.13 111.693 135.021C111.653 134.979 111.614 134.932 111.573 134.891C111.463 134.782 111.352 134.682 111.241 134.583C111.204 134.548 111.166 134.51 111.128 134.477C111.012 134.378 110.894 134.281 110.773 134.188C110.742 134.164 110.711 134.137 110.681 134.114C110.559 134.023 110.435 133.934 110.309 133.849C110.285 133.833 110.261 133.814 110.238 133.798C110.11 133.713 109.984 133.636 109.861 133.562C109.843 133.551 109.824 133.538 109.807 133.528C109.671 133.448 109.54 133.374 109.411 133.307L109.398 133.3C108.873 133.017 108.318 132.796 107.744 132.639L107.74 132.638C113.723 135.722 113.167 141.227 111.949 144.855L111.949 144.857C111.662 144.782 111.355 144.701 111.035 144.62C110.792 144.558 110.549 144.498 110.305 144.442L109.67 141.305L109.473 140.334C109.839 140.233 110.167 140.029 110.419 139.745C110.67 139.461 110.832 139.11 110.887 138.735C110.942 138.359 110.886 137.977 110.727 137.633C110.567 137.289 110.311 136.999 109.989 136.798C109.906 136.696 109.814 136.601 109.714 136.515C109.417 136.248 109.048 136.073 108.654 136.011C108.259 135.95 107.855 136.003 107.491 136.166C107.126 136.329 106.816 136.594 106.599 136.93C106.382 137.265 106.267 137.656 106.267 138.055C106.281 138.412 106.381 138.76 106.559 139.069C106.737 139.379 106.987 139.64 107.289 139.831L105.201 143.637C104.871 143.602 104.532 143.576 104.194 143.549C103.828 143.518 103.459 143.492 103.087 143.471C102.764 143.452 102.442 143.43 102.117 143.417L108.252 128.483ZM108.342 139.831C108.024 139.833 107.71 139.748 107.435 139.587C107.16 139.426 106.934 139.193 106.78 138.914C106.626 138.635 106.55 138.32 106.56 138.001C106.571 137.682 106.667 137.373 106.838 137.104C107.01 136.835 107.251 136.618 107.536 136.475C107.821 136.332 108.139 136.268 108.457 136.29C108.775 136.313 109.081 136.421 109.343 136.603C109.605 136.784 109.813 137.034 109.945 137.324C110.05 137.549 110.106 137.794 110.108 138.043C110.111 138.292 110.059 138.538 109.958 138.765C109.821 139.08 109.595 139.349 109.308 139.538C109.022 139.727 108.686 139.829 108.342 139.831ZM100.073 124.204L100.077 124.199L102.652 127.56L100.077 130.611L100.073 130.607L97.5025 127.56L100.073 124.204ZM91.1678 125.219L91.1671 125.217L96.3468 127.543L96.9224 127.802V139.228L96.5037 138.208L91.1678 125.219ZM81.7032 135.516C82.3635 134.367 83.2169 133.34 84.2258 132.481C86.4659 130.613 89.0815 129.249 91.8953 128.482L91.8962 128.484L98.0309 143.417C97.6284 143.433 97.2302 143.458 96.833 143.484C96.1936 143.524 95.5599 143.573 94.9439 143.637L94.9076 143.57L93.04 140.167L93.0394 140.166C93.2649 140.041 93.4635 139.872 93.6238 139.67C93.7841 139.468 93.9029 139.236 93.9733 138.988C94.0438 138.74 94.0646 138.48 94.0345 138.224C94.0044 137.968 93.924 137.72 93.7979 137.495C93.7947 137.49 93.7894 137.485 93.7863 137.48C93.6266 137.203 93.4024 136.969 93.1328 136.798C92.8207 136.389 92.3672 136.111 91.8609 136.018C91.3545 135.925 90.8318 136.024 90.3946 136.296C89.9574 136.567 89.6371 136.992 89.4963 137.487C89.3554 137.983 89.4042 138.512 89.633 138.973C89.8639 139.438 90.2591 139.8 90.7418 139.989L89.8361 144.442C89.7967 144.452 89.762 144.461 89.7233 144.47C89.1733 144.6 88.6654 144.734 88.196 144.857L88.1957 144.857C88.136 144.676 88.0793 144.495 88.0254 144.313C87.3666 142.123 87.0213 139.38 88.1198 136.903C89.0052 135.024 90.5213 133.515 92.4044 132.638L92.4 132.64C92.0466 132.733 91.7014 132.855 91.3677 133.004L91.3602 133.008C91.2434 133.059 91.1197 133.116 90.9893 133.179C90.9712 133.188 90.9512 133.199 90.9324 133.208C90.8158 133.267 90.6965 133.328 90.5721 133.397C90.5436 133.412 90.5133 133.432 90.4846 133.448C90.3671 133.515 90.2483 133.583 90.1261 133.66C90.0911 133.682 90.0552 133.708 90.0199 133.731C89.9011 133.808 89.782 133.886 89.6605 133.973C89.6236 134 89.5861 134.031 89.5489 134.059C89.4286 134.148 89.3076 134.238 89.1864 134.338C89.1482 134.37 89.1104 134.407 89.0726 134.439C88.9523 134.542 88.832 134.646 88.7132 134.759C88.6757 134.795 88.6392 134.837 88.602 134.874C88.4835 134.992 88.3651 135.11 88.2497 135.239C88.2135 135.28 88.1791 135.327 88.1435 135.369C88.0294 135.502 87.9153 135.635 87.806 135.781C87.7725 135.826 87.7422 135.877 87.7091 135.923C87.6009 136.074 87.4934 136.225 87.3922 136.388C87.3578 136.444 87.3281 136.506 87.295 136.563C87.1997 136.725 87.1037 136.888 87.0166 137.064C86.8957 137.308 86.7866 137.557 86.6894 137.811C85.9868 139.648 85.7549 142.099 86.5459 145.363C86.2531 145.461 85.962 145.565 85.6727 145.673C85.3936 144.981 85.2191 144.252 85.1549 143.508C85.0284 142.326 84.9808 141.136 85.0124 139.947L84.333 139.033L83.8908 138.439C83.8939 138.427 83.8977 138.415 83.9002 138.403C84.493 135.931 86.1362 133.408 89.7973 131.575C90.4072 131.27 91.0334 130.999 91.6731 130.763L91.6668 130.764C90.9971 130.862 90.3389 131.027 89.7023 131.258C89.6867 131.263 89.6689 131.271 89.653 131.276C89.2464 131.419 88.8474 131.582 88.4576 131.766C88.4323 131.777 88.4088 131.786 88.3832 131.799C88.3751 131.802 88.3663 131.808 88.3579 131.812C86.002 132.928 84.0838 134.796 82.9048 137.121L81.8225 135.676L81.7032 135.516ZM92.6316 139.399C92.3141 139.676 91.9075 139.829 91.4862 139.831C91.064 139.836 90.6535 139.692 90.3267 139.425C89.9999 139.158 89.7779 138.784 89.6995 138.369C89.6212 137.954 89.6916 137.525 89.8984 137.157C90.1051 136.788 90.435 136.505 90.8301 136.356C91.2252 136.207 91.6601 136.202 92.0584 136.342C92.4568 136.482 92.793 136.758 93.0081 137.121C93.2232 137.484 93.3034 137.912 93.2345 138.329C93.1657 138.745 92.9522 139.124 92.6316 139.399ZM79.6215 143.327L79.3637 141.819C79.3869 141.813 79.4107 141.81 79.4346 141.809C79.4771 141.799 79.5204 141.792 79.564 141.79H79.5665C79.6689 141.791 79.7697 141.815 79.8619 141.86C79.954 141.904 80.0351 141.969 80.0993 142.049C80.2209 142.191 80.2879 142.372 80.2884 142.56C80.2939 142.748 80.2286 142.931 80.1054 143.073C79.9823 143.215 79.8102 143.305 79.6234 143.326L79.6215 143.327ZM79.8693 144.754L79.8212 144.471C80.2768 144.392 80.6835 144.138 80.9544 143.764C81.2152 143.412 81.3546 142.985 81.3516 142.547C81.3486 142.109 81.2034 141.683 80.9378 141.335C80.7799 141.119 80.5738 140.942 80.3358 140.819C80.0978 140.696 79.8344 140.63 79.5665 140.627H79.565C79.4306 140.626 79.2968 140.643 79.1671 140.678L79.1121 140.395C79.2606 140.361 79.4123 140.342 79.5646 140.34H79.5665C79.8483 140.35 80.1255 140.415 80.3821 140.532C80.6388 140.648 80.8699 140.815 81.0623 141.021C81.2547 141.227 81.4046 141.469 81.5035 141.733C81.6023 141.997 81.6482 142.278 81.6385 142.56C81.651 143.076 81.4801 143.579 81.1562 143.981C80.8324 144.383 80.3762 144.657 79.8693 144.754ZM120.597 142.896L120.523 143.327H120.522C120.335 143.306 120.163 143.215 120.04 143.073C119.917 142.931 119.851 142.748 119.856 142.56C119.856 142.425 119.891 142.293 119.958 142.176C120.025 142.059 120.121 141.962 120.237 141.894C120.339 141.829 120.457 141.793 120.578 141.79L120.581 141.79C120.649 141.787 120.717 141.796 120.781 141.819L120.597 142.896ZM121.029 140.396L120.981 140.677V140.678C120.849 140.643 120.714 140.625 120.578 140.627C120.339 140.627 120.103 140.678 119.886 140.777C119.552 140.939 119.272 141.193 119.078 141.509C118.885 141.824 118.786 142.189 118.793 142.56C118.781 143.008 118.928 143.446 119.208 143.795C119.489 144.145 119.884 144.384 120.323 144.471L120.305 144.608L120.285 144.755L120.278 144.753C120.032 144.714 119.796 144.628 119.581 144.501C119.25 144.298 118.977 144.013 118.789 143.673C118.601 143.332 118.504 142.949 118.509 142.56C118.499 142.278 118.545 141.997 118.643 141.733C118.742 141.469 118.892 141.227 119.084 141.021C119.276 140.815 119.507 140.649 119.763 140.532C120.02 140.415 120.296 140.35 120.578 140.34C120.636 140.344 120.694 140.351 120.751 140.361C120.844 140.367 120.937 140.378 121.029 140.395L121.029 140.396ZM122.675 130.807L121.081 140.112L121.081 140.114C121.03 140.103 120.978 140.095 120.927 140.086C120.814 140.064 120.699 140.052 120.584 140.05C119.939 140.071 119.327 140.346 118.885 140.817C118.442 141.288 118.204 141.914 118.222 142.56C118.222 143.188 118.452 143.794 118.87 144.263C119.127 144.558 119.453 144.786 119.82 144.925C119.952 144.974 120.089 145.011 120.228 145.034L120.23 145.035L119.292 150.475L118.841 153.086L118.841 153.088C118.267 152.867 117.328 152.529 116.1 152.15C114.264 151.587 112.399 151.119 110.514 150.748C107.077 150.06 103.582 149.708 100.077 149.698C94.5452 149.726 89.0487 150.582 83.7698 152.235C82.9383 152.495 82.1151 152.779 81.3003 153.088L80.279 147.153L79.9146 145.035C80.2735 144.97 80.6128 144.823 80.9067 144.607C81.2005 144.391 81.4412 144.111 81.6104 143.788C81.8667 143.312 81.9686 142.769 81.9022 142.233C81.8357 141.698 81.6041 141.196 81.2394 140.798C81.0275 140.564 80.7694 140.377 80.4814 140.248C80.1934 140.12 79.8819 140.052 79.5665 140.05C79.4471 140.052 79.3282 140.065 79.2112 140.088C79.1649 140.097 79.1174 140.104 79.0737 140.114L79.073 140.112L77.4626 130.803L77.4623 130.802L84.4421 140.121C84.389 141.361 84.4541 142.603 84.6365 143.831C84.7373 144.722 84.9897 145.589 85.3828 146.395C85.3828 146.395 86.4044 145.983 87.8438 145.551C88.5854 145.328 89.4361 145.1 90.3196 144.919L90.9712 141.715L91.2734 140.23C91.3518 140.261 91.4318 140.287 91.5131 140.308C91.7031 140.371 91.9015 140.404 92.1016 140.407C92.2359 140.408 92.37 140.394 92.5013 140.366L92.5022 140.367L93.1966 141.631L94.6267 144.234L94.6279 144.236C94.6279 144.236 95.433 144.159 96.4043 144.086C97.2753 144.021 98.2794 143.959 98.9619 143.959L97.6665 139.947L98.5463 137.685L100.073 133.76L100.077 133.75L102.281 139.447L102.474 139.947L101.179 143.959H101.181C101.931 143.959 103.06 144.032 103.98 144.104C104.844 144.171 105.523 144.236 105.523 144.236L105.524 144.234L107.811 140.05L107.813 140.052C107.822 140.057 107.829 140.064 107.833 140.072C107.992 140.175 108.163 140.256 108.343 140.314C108.526 140.373 108.717 140.404 108.91 140.407L109.828 144.919C110.596 145.079 111.356 145.271 112.109 145.494L112.119 145.497L112.13 145.5C113.658 145.951 114.758 146.395 114.758 146.395L114.759 146.393C114.768 146.377 115.607 144.967 115.711 141.604C115.725 141.146 115.726 140.653 115.709 140.121L119.041 135.663L122.676 130.802L122.675 130.807Z" fill="black"/>
<path d="M96.6798 125.31L96.8154 125.077L100.07 119.462L100.073 119.467L101.315 121.599L103.476 125.31H106.17L106.502 124.672H103.817L100.434 118.83L102.103 115.991L102.496 115.585L102.495 115.584L102.466 115.54L102.219 115.176H102.216L101.825 115.205L101.604 115.221L101.603 115.222L101.58 115.341L101.504 115.721L100.072 118.204L100.07 118.208L99.3724 116.99L98.6455 115.72L98.5424 115.221L98.2955 115.203L97.9308 115.176L97.8536 115.288L97.6505 115.585L97.6498 115.585L97.7073 115.643L98.0558 115.991L98.7621 117.202L99.7121 118.83L96.3266 124.67L96.3254 124.672H93.6477L93.9696 125.31L96.6798 125.31ZM96.0604 146.227C96.0354 146.211 96.0138 146.19 95.9873 146.177L95.9879 146.177C96.0144 146.219 96.0382 146.262 96.0591 146.306C96.1554 146.458 96.2086 146.634 96.2129 146.814C96.2136 147.09 96.1048 147.354 95.9106 147.549C95.7163 147.744 95.4526 147.854 95.1772 147.855H95.156L95.1585 147.856C95.195 147.874 95.2341 147.886 95.2722 147.901C95.3266 147.921 95.3826 147.936 95.4397 147.946C95.4852 147.956 95.5316 147.963 95.5782 147.965C95.7821 147.963 95.98 147.896 96.1419 147.772C96.3038 147.648 96.4209 147.474 96.4754 147.278C96.53 147.081 96.5189 146.872 96.444 146.683C96.3691 146.493 96.2344 146.333 96.0604 146.227ZM87.9615 147.605L87.9584 147.603C88.0284 147.689 88.0831 147.786 88.1203 147.89C88.1269 147.908 88.1269 147.928 88.1328 147.946C88.1644 148.044 88.1816 148.145 88.1837 148.248C88.1805 148.522 88.0702 148.784 87.8764 148.979C87.6826 149.173 87.4206 149.284 87.1461 149.288H87.1299C87.2004 149.324 87.2752 149.35 87.3524 149.367C87.4146 149.382 87.4783 149.391 87.5424 149.392C87.6663 149.392 87.7891 149.367 87.9036 149.32C88.0181 149.273 88.1222 149.203 88.2099 149.115C88.2975 149.028 88.3671 148.924 88.4145 148.809C88.462 148.695 88.4865 148.572 88.4865 148.448V148.447C88.4847 148.272 88.4348 148.101 88.3422 147.953C88.2496 147.804 88.1179 147.684 87.9615 147.605ZM105.202 146.177C105.238 146.229 105.269 146.285 105.296 146.343C105.38 146.485 105.426 146.647 105.431 146.812L105.431 146.814C105.431 146.951 105.404 147.087 105.352 147.214C105.3 147.34 105.223 147.455 105.126 147.552C105.029 147.648 104.913 147.725 104.787 147.777C104.66 147.829 104.524 147.856 104.387 147.855H104.371L104.374 147.856C104.414 147.875 104.454 147.891 104.496 147.905C104.546 147.923 104.598 147.937 104.651 147.945C104.695 147.956 104.741 147.963 104.787 147.965C104.903 147.963 105.017 147.94 105.125 147.896C105.297 147.832 105.446 147.719 105.554 147.571C105.663 147.423 105.725 147.246 105.733 147.062C105.741 146.879 105.696 146.697 105.601 146.54C105.507 146.382 105.368 146.256 105.202 146.177ZM113.252 147.608L113.245 147.603C113.285 147.658 113.318 147.716 113.346 147.778C113.427 147.922 113.471 148.083 113.474 148.248C113.473 148.523 113.364 148.787 113.169 148.981C112.975 149.176 112.711 149.287 112.436 149.288H112.42C112.476 149.317 112.534 149.34 112.595 149.356C112.672 149.379 112.752 149.391 112.833 149.391C112.992 149.389 113.148 149.346 113.285 149.266C113.423 149.186 113.538 149.073 113.619 148.936C113.72 148.791 113.775 148.619 113.777 148.443C113.778 148.267 113.727 148.094 113.629 147.947C113.535 147.804 113.405 147.687 113.252 147.608ZM100.836 138.99L100.837 138.992C100.85 139.008 100.857 139.03 100.869 139.047C100.991 139.21 101.059 139.408 101.062 139.612C101.064 139.888 100.959 140.153 100.768 140.351C100.577 140.548 100.316 140.663 100.041 140.67C100.158 140.728 100.287 140.758 100.417 140.759C100.545 140.759 100.671 140.734 100.789 140.684C100.809 140.675 100.823 140.657 100.843 140.648C100.998 140.572 101.13 140.455 101.223 140.309C101.315 140.163 101.366 139.995 101.368 139.822C101.367 139.647 101.317 139.476 101.223 139.329C101.129 139.182 100.994 139.064 100.836 138.99ZM100.021 140.673C100.028 140.673 100.034 140.671 100.041 140.67C100.029 140.665 100.016 140.663 100.005 140.657L100.021 140.673Z" fill="black"/>
<path d="M96.0096 146.813C96.0087 146.592 95.92 146.38 95.763 146.223C95.606 146.067 95.3935 145.979 95.1719 145.979C94.9503 145.979 94.7378 146.067 94.5808 146.223C94.4238 146.38 94.3351 146.592 94.3342 146.813C94.332 147.034 94.4177 147.247 94.5724 147.405C94.727 147.562 94.938 147.652 95.1589 147.654C95.1632 147.654 95.1675 147.654 95.1717 147.654C95.393 147.655 95.6056 147.568 95.7628 147.412C95.9199 147.257 96.0087 147.045 96.0096 146.823C96.0096 146.82 96.0096 146.817 96.0096 146.813ZM87.1466 149.093C87.2799 149.091 87.4104 149.055 87.5263 148.989C87.6632 148.918 87.7784 148.812 87.8596 148.681C87.9407 148.55 87.9848 148.4 87.987 148.246C87.9864 148.042 87.9102 147.846 87.7731 147.696C87.636 147.545 87.4478 147.451 87.245 147.431C87.2136 147.423 87.1817 147.416 87.1494 147.412L87.146 147.412C87.0358 147.411 86.9266 147.432 86.8245 147.473C86.7225 147.515 86.6297 147.576 86.5515 147.653C86.4733 147.731 86.4113 147.823 86.3689 147.925C86.3266 148.027 86.3049 148.136 86.305 148.246C86.3065 148.469 86.3954 148.683 86.5526 148.841C86.7098 149 86.9234 149.09 87.1466 149.093ZM104.714 147.589C104.857 147.531 104.981 147.434 105.072 147.309C105.162 147.185 105.216 147.037 105.226 146.883C105.237 146.729 105.204 146.575 105.131 146.439C105.058 146.303 104.948 146.19 104.814 146.113C104.687 146.03 104.539 145.983 104.387 145.979C104.166 145.98 103.954 146.068 103.798 146.224C103.641 146.38 103.553 146.592 103.552 146.813C103.552 146.927 103.574 147.039 103.618 147.144C103.681 147.296 103.787 147.426 103.925 147.517C104.062 147.608 104.223 147.656 104.387 147.654C104.5 147.655 104.611 147.633 104.714 147.589ZM112.436 149.093C112.658 149.089 112.87 148.998 113.026 148.839C113.181 148.681 113.269 148.468 113.271 148.246C113.271 148.026 113.184 147.814 113.028 147.657C112.873 147.501 112.661 147.413 112.44 147.412H112.439L112.436 147.411C112.326 147.41 112.216 147.431 112.114 147.472C112.011 147.513 111.918 147.575 111.84 147.652C111.761 147.73 111.699 147.822 111.656 147.924C111.614 148.026 111.592 148.136 111.592 148.246C111.593 148.47 111.683 148.684 111.841 148.842C111.998 149.001 112.213 149.091 112.436 149.093ZM100.347 140.398C100.5 140.332 100.63 140.223 100.722 140.084C100.813 139.945 100.862 139.782 100.862 139.615C100.859 139.394 100.769 139.184 100.612 139.029C100.455 138.873 100.243 138.787 100.022 138.787C99.8016 138.787 99.5897 138.873 99.4326 139.029C99.2755 139.184 99.1858 139.394 99.1829 139.615C99.1824 139.781 99.2306 139.944 99.3215 140.083C99.4124 140.222 99.5421 140.332 99.6945 140.398C99.7975 140.443 99.9086 140.466 100.021 140.466C100.133 140.466 100.244 140.443 100.347 140.398ZM79.7515 138.487L79.7496 138.481L79.4965 139.048L79.1896 139.733L79.189 139.735L79.6549 139.752L80.1987 139.773H80.2006L80.0893 139.454L79.7515 138.487ZM80.6781 139.947L80.6806 139.948L81.04 140.18L81.5257 140.494L81.526 140.493L81.8094 139.154L81.7763 139.177L80.6781 139.947ZM82.3035 141.795L83.2373 140.777L83.238 140.777L81.862 140.887L82.3035 141.795ZM82.3926 142.296L82.3332 142.969L82.3023 143.315L83.6267 142.912L83.6239 142.911L82.3926 142.296ZM82.1757 143.66L82.1751 143.661L81.6248 144.518L82.9717 144.782L82.5835 144.235L82.1757 143.66ZM81.1307 144.922L80.6619 145.125L80.2044 145.324L80.3641 145.483L81.1788 146.295L81.1869 146.303L81.1322 144.921L81.1307 144.922ZM120.957 139.733L120.487 138.683L120.396 138.48L120.34 138.642L119.945 139.775L120.957 139.733ZM118.34 139.156L118.339 139.155L118.619 140.496L118.623 140.493L118.964 140.272L119.464 139.948L118.838 139.507L118.34 139.156ZM117.845 141.795L117.848 141.79L118.225 141.018L118.29 140.886L116.907 140.777L117.845 141.795ZM117.76 142.296L116.521 142.911L116.519 142.912L117.844 143.315L117.76 142.296ZM117.17 144.782L118.523 144.518L117.972 143.661L117.17 144.782ZM119.94 145.324L119.731 145.232L119.015 144.921V144.922L118.966 146.302V146.303L119.351 145.917L119.94 145.324ZM101.15 127.464C101.15 127.322 101.122 127.181 101.068 127.05C101.014 126.919 100.935 126.8 100.835 126.699C100.735 126.599 100.616 126.519 100.485 126.464C100.354 126.409 100.214 126.381 100.072 126.381H100.07C99.9287 126.38 99.7888 126.407 99.6582 126.461C99.5277 126.515 99.409 126.593 99.3089 126.693C99.2089 126.793 99.1295 126.911 99.0754 127.041C99.0212 127.172 98.9933 127.311 98.9933 127.452C98.9933 127.594 99.0212 127.733 99.0754 127.864C99.1295 127.994 99.2089 128.112 99.3089 128.212C99.409 128.312 99.5277 128.39 99.6582 128.444C99.7888 128.497 99.9287 128.525 100.07 128.524C100.353 128.526 100.627 128.415 100.829 128.216C101.031 128.018 101.146 127.747 101.15 127.464ZM100.07 128.386C99.8276 128.381 99.596 128.283 99.4246 128.111C99.2532 127.939 99.1555 127.707 99.152 127.464C99.1509 127.342 99.174 127.221 99.2199 127.108C99.2658 126.995 99.3336 126.892 99.4195 126.806C99.5053 126.719 99.6075 126.65 99.72 126.603C99.8326 126.556 99.9533 126.532 100.075 126.532C100.197 126.532 100.318 126.556 100.431 126.603C100.543 126.65 100.645 126.719 100.731 126.806C100.817 126.892 100.885 126.995 100.931 127.108C100.977 127.221 101 127.342 100.999 127.464C100.991 127.707 100.89 127.937 100.717 128.109C100.545 128.28 100.313 128.379 100.07 128.386ZM105.368 130.45C105.493 130.448 105.616 130.423 105.732 130.377C105.748 130.37 105.763 130.363 105.778 130.356C105.999 130.255 106.176 130.079 106.278 129.859C106.337 129.732 106.369 129.594 106.373 129.455C106.373 129.447 106.376 129.441 106.376 129.434C106.376 129.262 106.332 129.092 106.248 128.942C106.164 128.791 106.043 128.664 105.897 128.573C105.801 128.453 105.682 128.354 105.547 128.282C105.393 128.199 105.221 128.155 105.046 128.154C104.902 128.154 104.759 128.182 104.626 128.238C104.447 128.314 104.291 128.437 104.176 128.594C104.061 128.752 103.991 128.937 103.974 129.132C103.957 129.326 103.992 129.521 104.077 129.696C104.162 129.872 104.293 130.021 104.457 130.127C104.556 130.191 104.666 130.238 104.782 130.265C104.821 130.289 104.862 130.311 104.905 130.329C105.042 130.407 105.197 130.449 105.355 130.452C105.36 130.452 105.363 130.45 105.368 130.45ZM104.124 129.225C104.124 129.104 104.147 128.984 104.193 128.872C104.239 128.761 104.306 128.659 104.391 128.574C104.477 128.488 104.578 128.421 104.689 128.374C104.801 128.328 104.92 128.304 105.041 128.304C105.162 128.304 105.281 128.328 105.393 128.374C105.504 128.421 105.605 128.489 105.691 128.574C105.776 128.66 105.843 128.761 105.889 128.873C105.935 128.984 105.958 129.104 105.958 129.225C105.958 129.345 105.935 129.465 105.889 129.577C105.843 129.689 105.776 129.79 105.69 129.876C105.605 129.961 105.504 130.029 105.393 130.075C105.281 130.122 105.162 130.146 105.041 130.146C104.92 130.146 104.801 130.122 104.689 130.075C104.578 130.029 104.477 129.961 104.391 129.876C104.306 129.79 104.239 129.689 104.193 129.577C104.147 129.465 104.124 129.346 104.124 129.225ZM95.4877 128.573C95.4724 128.554 95.4524 128.539 95.4361 128.52C95.3342 128.401 95.2072 128.306 95.0643 128.241C94.9214 128.176 94.7659 128.144 94.6091 128.146C94.4522 128.148 94.2977 128.185 94.1565 128.253C94.0154 128.322 93.8911 128.42 93.7923 128.542C93.6936 128.664 93.6229 128.807 93.5853 128.959C93.5477 129.111 93.5441 129.27 93.5747 129.424C93.6053 129.578 93.6693 129.723 93.7624 129.849C93.8554 129.976 93.9751 130.08 94.113 130.155C94.1941 130.204 94.2816 130.241 94.373 130.265L94.3752 130.267C94.5409 130.388 94.7411 130.453 94.9464 130.452C94.9508 130.452 94.9546 130.45 94.9593 130.45C95.0851 130.448 95.2096 130.423 95.3265 130.376C95.3399 130.371 95.3521 130.365 95.3655 130.359C95.5396 130.28 95.688 130.153 95.7936 129.994C95.8993 129.835 95.958 129.649 95.963 129.458C95.963 129.449 95.968 129.443 95.968 129.434C95.9676 129.262 95.9233 129.092 95.8393 128.942C95.7552 128.791 95.6343 128.664 95.4877 128.573ZM95.5552 129.225C95.5552 129.47 95.4581 129.704 95.2853 129.877C95.1124 130.05 94.878 130.147 94.6336 130.147C94.3892 130.147 94.1548 130.05 93.9819 129.877C93.8091 129.704 93.712 129.47 93.712 129.225C93.7127 128.981 93.8102 128.747 93.983 128.574C94.1558 128.402 94.3899 128.305 94.6339 128.305C94.8779 128.305 95.112 128.402 95.2847 128.575C95.4575 128.747 95.5546 128.981 95.5552 129.225Z" fill="black"/>
<path d="M100.069 126.643C99.9616 126.643 99.8555 126.665 99.7567 126.707C99.6578 126.748 99.5681 126.809 99.4927 126.885C99.4174 126.962 99.3577 127.052 99.3173 127.151C99.2768 127.251 99.2563 127.357 99.257 127.464C99.2574 127.678 99.3428 127.883 99.4945 128.035C99.6462 128.186 99.8516 128.27 100.066 128.27H100.069C100.176 128.271 100.282 128.251 100.381 128.211C100.48 128.172 100.57 128.113 100.646 128.038C100.722 127.963 100.783 127.873 100.824 127.775C100.866 127.677 100.887 127.571 100.888 127.464C100.889 127.247 100.803 127.039 100.65 126.885C100.498 126.731 100.29 126.644 100.073 126.643L100.069 126.643ZM105.046 128.414C104.885 128.414 104.727 128.462 104.593 128.552C104.459 128.642 104.354 128.769 104.293 128.918C104.231 129.068 104.215 129.232 104.247 129.39C104.279 129.548 104.357 129.693 104.471 129.807C104.585 129.921 104.731 129.998 104.889 130.029C105.048 130.06 105.212 130.044 105.36 129.982C105.509 129.919 105.636 129.814 105.726 129.68C105.815 129.545 105.862 129.388 105.861 129.226C105.862 129.011 105.776 128.804 105.624 128.652C105.472 128.5 105.266 128.414 105.051 128.414L105.046 128.414ZM94.6342 128.414C94.5279 128.413 94.4225 128.434 94.324 128.474C94.2255 128.514 94.1358 128.572 94.0601 128.647C93.9844 128.722 93.9241 128.81 93.8827 128.908C93.8413 129.006 93.8196 129.111 93.8189 129.218V129.226C93.8184 129.333 93.8389 129.439 93.8794 129.538C93.9199 129.637 93.9795 129.727 94.0548 129.803C94.1301 129.879 94.2197 129.94 94.3183 129.981C94.417 130.023 94.5228 130.044 94.6298 130.045H94.6342C94.851 130.045 95.0591 129.959 95.2126 129.806C95.3661 129.653 95.4524 129.445 95.4527 129.228V129.226C95.4527 129.119 95.4316 129.014 95.3908 128.915C95.3499 128.816 95.29 128.727 95.2146 128.652C95.1391 128.576 95.0496 128.516 94.951 128.476C94.8525 128.435 94.7468 128.414 94.6402 128.414L94.6342 128.414Z" fill="black"/>
<path d="M96.9227 139.227V127.801L96.347 127.543L91.168 125.218L96.5036 138.208L96.9227 139.227ZM95.9632 129.457C95.9602 129.591 95.9304 129.723 95.8757 129.846C95.821 129.969 95.7423 130.079 95.6445 130.171C95.5623 130.248 95.4682 130.311 95.3657 130.358C95.238 130.416 95.0997 130.447 94.9594 130.448C94.9547 130.448 94.951 130.451 94.9466 130.451C94.7413 130.452 94.5411 130.387 94.3753 130.266C94.2831 130.241 94.1947 130.203 94.1128 130.154C93.9765 130.078 93.8585 129.974 93.7669 129.847C93.6753 129.721 93.6125 129.577 93.5828 129.424C93.5531 129.271 93.5572 129.113 93.5949 128.962C93.6326 128.811 93.7029 128.67 93.801 128.548C93.899 128.427 94.0224 128.329 94.1624 128.261C94.3025 128.192 94.4558 128.155 94.6116 128.153C94.7674 128.15 94.922 128.181 95.0644 128.244C95.2068 128.308 95.3337 128.401 95.436 128.519C95.4526 128.538 95.4726 128.553 95.4879 128.572C95.6344 128.663 95.7553 128.79 95.8393 128.941C95.9233 129.091 95.9675 129.261 95.9679 129.433C95.9679 129.442 95.9635 129.449 95.9632 129.457ZM108.98 125.219L105.199 126.915L103.225 127.801V139.222L105.142 134.561L108.98 125.219ZM104.783 130.266C104.667 130.239 104.556 130.192 104.456 130.126C104.262 130 104.114 129.814 104.035 129.596C103.955 129.378 103.948 129.141 104.014 128.919C104.081 128.697 104.217 128.502 104.403 128.364C104.59 128.226 104.815 128.152 105.047 128.153C105.222 128.153 105.394 128.197 105.547 128.281C105.682 128.353 105.801 128.452 105.897 128.572C106.043 128.663 106.164 128.79 106.248 128.941C106.332 129.091 106.376 129.261 106.377 129.433C106.377 129.44 106.373 129.447 106.373 129.454C106.367 129.702 106.27 129.939 106.101 130.121C106.01 130.219 105.9 130.299 105.778 130.355C105.763 130.362 105.748 130.369 105.733 130.376C105.617 130.422 105.493 130.447 105.368 130.449C105.363 130.449 105.36 130.451 105.355 130.451C105.197 130.449 105.042 130.406 104.905 130.328C104.863 130.311 104.822 130.29 104.783 130.266ZM102.648 127.56L100.073 124.203L97.5027 127.56L100.073 130.607L102.648 127.56ZM100.07 128.523C99.9292 128.524 99.7887 128.496 99.6581 128.443C99.5275 128.389 99.4088 128.31 99.3088 128.211C99.2088 128.111 99.1294 127.993 99.0753 127.863C99.0211 127.732 98.9932 127.593 98.9932 127.451C98.9932 127.31 99.0211 127.171 99.0753 127.04C99.1294 126.91 99.2088 126.792 99.3088 126.692C99.4088 126.592 99.5275 126.514 99.6581 126.46C99.7887 126.406 99.9286 126.379 100.07 126.38C100.212 126.38 100.353 126.408 100.484 126.462C100.615 126.517 100.734 126.596 100.834 126.697C100.934 126.797 101.014 126.916 101.068 127.047C101.122 127.178 101.15 127.319 101.15 127.461V127.463C101.147 127.746 101.031 128.017 100.829 128.215C100.627 128.414 100.354 128.525 100.07 128.523Z" fill="#A2AAAD"/>
<path d="M119.041 135.665L115.708 140.122C115.726 140.655 115.724 141.147 115.71 141.606C115.61 144.988 114.759 146.395 114.759 146.395L114.758 146.396C114.758 146.396 113.657 145.952 112.13 145.502L112.118 145.498L112.109 145.495C111.354 145.272 110.591 145.081 109.819 144.922L108.908 140.411C108.716 140.407 108.525 140.375 108.343 140.315C108.163 140.258 107.992 140.177 107.833 140.074C107.829 140.065 107.822 140.058 107.813 140.054L107.812 140.053L105.524 144.236L105.523 144.237C105.523 144.237 104.844 144.172 103.98 144.105C103.059 144.035 101.928 143.962 101.18 143.962L101.181 143.96H101.179L102.474 139.948L102.281 139.449L100.073 133.762L98.546 137.687L97.671 139.95L98.9632 143.962C98.2816 143.962 97.2769 144.023 96.4044 144.087C95.4331 144.16 94.6277 144.238 94.6277 144.238L94.6265 144.235L94.6196 144.236L93.1967 141.633L92.5023 140.369C92.3699 140.397 92.2348 140.411 92.0994 140.411C91.8999 140.407 91.7021 140.373 91.5128 140.31C91.4316 140.288 91.3516 140.262 91.2731 140.232L90.9713 141.717L90.324 144.922C89.4387 145.102 88.5864 145.33 87.8436 145.553C86.4041 145.985 85.3828 146.396 85.3828 146.396C84.9894 145.591 84.7369 144.723 84.6365 143.832C84.4518 142.605 84.3838 141.362 84.4334 140.121L77.4624 130.805L79.0731 140.114C79.1184 140.105 79.1647 140.098 79.2106 140.09C79.3277 140.066 79.4468 140.053 79.5663 140.051C79.8817 140.054 80.1932 140.121 80.4811 140.25C80.7691 140.378 81.0272 140.565 81.2392 140.799C81.6048 141.197 81.837 141.699 81.9035 142.235C81.97 142.771 81.8675 143.314 81.6101 143.789C81.441 144.113 81.2004 144.393 80.9065 144.609C80.6127 144.825 80.2733 144.971 79.9144 145.036L80.2788 147.154L81.3045 153.088C82.1175 152.779 82.9392 152.496 83.7696 152.237C89.0457 150.583 94.5394 149.727 100.069 149.698C103.576 149.708 107.074 150.061 110.514 150.749C112.399 151.121 114.264 151.589 116.1 152.152C117.327 152.53 118.266 152.868 118.841 153.087L119.291 150.477L120.227 145.036C120.088 145.012 119.952 144.976 119.82 144.927C119.453 144.789 119.126 144.561 118.87 144.265C118.452 143.796 118.221 143.19 118.222 142.562C118.204 141.916 118.442 141.289 118.885 140.819C119.327 140.348 119.938 140.072 120.584 140.051C120.699 140.053 120.814 140.065 120.927 140.087C120.978 140.096 121.03 140.104 121.081 140.114L122.675 130.809L119.041 135.665ZM81.1789 146.305L80.3638 145.484L80.2041 145.325L80.6614 145.127L81.1304 144.922H81.132L81.1867 146.305L81.1786 146.296L81.1789 146.305ZM80.1991 139.776L79.6547 139.754L79.1887 139.736L79.1894 139.734L79.184 139.734L79.4959 139.049L79.7491 138.482L79.7513 138.488L79.7544 138.481L80.0888 139.455L80.2004 139.774H80.1985L80.1991 139.776ZM81.5267 140.495L81.5258 140.494V140.495L81.0395 140.181L80.6791 139.95L80.6804 139.95L80.6779 139.948L81.7761 139.178L81.8104 139.154L81.5267 140.495ZM81.8617 140.888L83.2377 140.778L82.3033 141.797L81.8617 140.888ZM81.6233 144.519L82.1745 143.662L82.1755 143.661L82.5833 144.236L82.9736 144.784L81.6233 144.519ZM82.302 143.316L82.333 142.97L82.3905 142.296L83.6246 142.911H83.6237L83.6268 142.913L82.302 143.316ZM86.3048 148.247C86.3046 148.137 86.3263 148.028 86.3686 147.926C86.4109 147.825 86.473 147.732 86.5512 147.655C86.6294 147.577 86.7222 147.516 86.8242 147.474C86.9263 147.433 87.0356 147.412 87.1457 147.413L87.1492 147.413C87.1812 147.418 87.2135 147.424 87.2448 147.432C87.4475 147.452 87.6358 147.546 87.7729 147.697C87.91 147.847 87.9862 148.043 87.9867 148.247C87.9845 148.401 87.9404 148.551 87.8593 148.682C87.7781 148.813 87.663 148.919 87.5261 148.99C87.4115 149.056 87.2821 149.092 87.1498 149.095L87.1464 149.094H87.1454C86.9224 149.091 86.7094 149.001 86.5522 148.842C86.395 148.684 86.3064 148.471 86.3048 148.247ZM87.5461 149.395C87.4806 149.394 87.4154 149.385 87.352 149.369C87.2748 149.352 87.2001 149.325 87.1295 149.29H87.1314L87.1273 149.288H87.1498C87.4235 149.284 87.6846 149.173 87.8776 148.979C88.0706 148.785 88.1803 148.523 88.1833 148.249C88.1812 148.147 88.1639 148.045 88.132 147.948C88.1264 147.93 88.1264 147.909 88.1199 147.891C88.0826 147.787 88.0277 147.69 87.9576 147.605L87.9607 147.607L87.9586 147.603C88.1163 147.682 88.2491 147.803 88.3424 147.952C88.4356 148.102 88.4857 148.274 88.487 148.451C88.4869 148.7 88.3879 148.94 88.2116 149.117C88.0353 149.294 87.7959 149.394 87.5461 149.395ZM94.3339 146.815C94.3346 146.649 94.384 146.488 94.476 146.351C94.568 146.214 94.6985 146.107 94.8511 146.044C95.0036 145.981 95.1715 145.964 95.3335 145.996C95.4955 146.028 95.6444 146.107 95.7617 146.223C95.8789 146.34 95.9591 146.488 95.9923 146.65C96.0254 146.811 96.01 146.979 95.9481 147.132C95.8861 147.285 95.7802 147.417 95.6439 147.51C95.5075 147.603 95.3466 147.654 95.1815 147.656C95.1783 147.656 95.175 147.656 95.1718 147.656C95.0624 147.656 94.954 147.635 94.8527 147.594C94.7514 147.553 94.6592 147.492 94.5814 147.415C94.5036 147.338 94.4417 147.247 94.3992 147.146C94.3568 147.045 94.3346 146.937 94.3339 146.828C94.3339 146.823 94.3339 146.819 94.3339 146.815ZM95.5796 147.967C95.5323 147.965 95.4853 147.958 95.4393 147.947C95.3822 147.938 95.3261 147.923 95.2718 147.902C95.2334 147.888 95.1937 147.876 95.1574 147.858L95.1555 147.857H95.1718C95.4471 147.857 95.7115 147.749 95.9066 147.554C96.1018 147.36 96.2118 147.096 96.2124 146.821V146.816C96.2081 146.636 96.155 146.46 96.0587 146.308C96.0362 146.262 96.0107 146.218 95.9824 146.176L95.9874 146.179L95.9868 146.178C96.0134 146.191 96.0346 146.212 96.0599 146.228C96.1964 146.31 96.3095 146.425 96.3885 146.563C96.4674 146.702 96.5096 146.858 96.5109 147.017C96.5126 147.266 96.4156 147.506 96.2412 147.684C96.0667 147.862 95.8289 147.964 95.5796 147.967ZM99.1792 139.615C99.183 139.394 99.2735 139.184 99.4311 139.029C99.5887 138.874 99.8008 138.787 100.022 138.787C100.243 138.787 100.455 138.874 100.612 139.029C100.77 139.184 100.86 139.394 100.864 139.615C100.865 139.84 100.776 140.056 100.618 140.215C100.46 140.375 100.245 140.465 100.02 140.467C99.9083 140.467 99.7972 140.444 99.6942 140.399C99.5409 140.333 99.4103 140.224 99.3187 140.084C99.2271 139.945 99.1786 139.782 99.1792 139.615ZM100.842 140.65C100.823 140.659 100.809 140.677 100.788 140.685C100.671 140.735 100.544 140.761 100.417 140.761C100.286 140.76 100.157 140.73 100.04 140.672C100.034 140.672 100.027 140.674 100.02 140.674L100.004 140.658C100.015 140.665 100.029 140.666 100.04 140.672C100.315 140.665 100.576 140.55 100.767 140.352C100.958 140.154 101.064 139.889 101.061 139.614C101.058 139.41 100.991 139.212 100.868 139.049C100.856 139.031 100.85 139.009 100.835 138.993L100.837 138.994L100.836 138.992C100.994 139.066 101.128 139.183 101.222 139.33C101.317 139.477 101.367 139.648 101.367 139.823C101.365 139.996 101.315 140.165 101.222 140.311C101.129 140.457 100.998 140.574 100.842 140.65ZM103.618 147.146C103.574 147.04 103.552 146.928 103.552 146.814C103.553 146.593 103.642 146.381 103.798 146.225C103.954 146.069 104.166 145.981 104.387 145.98C104.605 145.991 104.812 146.083 104.968 146.236C105.123 146.39 105.217 146.595 105.231 146.814C105.232 146.98 105.183 147.142 105.091 147.281C104.999 147.419 104.867 147.527 104.714 147.59C104.61 147.634 104.499 147.656 104.387 147.656C104.222 147.657 104.061 147.609 103.924 147.518C103.787 147.427 103.68 147.298 103.618 147.146ZM105.124 147.898C105.017 147.942 104.902 147.966 104.786 147.967C104.74 147.965 104.695 147.958 104.65 147.947C104.598 147.938 104.546 147.925 104.496 147.907C104.453 147.891 104.409 147.877 104.37 147.858H104.373L104.371 147.857H104.387C104.523 147.858 104.658 147.832 104.784 147.78C104.91 147.729 105.025 147.653 105.122 147.557C105.219 147.462 105.296 147.348 105.349 147.222C105.402 147.097 105.43 146.962 105.43 146.826C105.43 146.822 105.43 146.818 105.43 146.814C105.425 146.649 105.379 146.487 105.295 146.345C105.268 146.286 105.235 146.229 105.198 146.176L105.202 146.178C105.368 146.257 105.506 146.384 105.601 146.541C105.695 146.699 105.741 146.881 105.733 147.064C105.724 147.247 105.662 147.424 105.554 147.573C105.446 147.721 105.296 147.834 105.124 147.898ZM111.591 148.247C111.591 148.137 111.613 148.027 111.656 147.926C111.699 147.824 111.761 147.731 111.839 147.654C111.918 147.576 112.011 147.515 112.113 147.473C112.216 147.432 112.325 147.411 112.436 147.413L112.439 147.413C112.548 147.413 112.655 147.434 112.756 147.475C112.857 147.516 112.948 147.577 113.025 147.653C113.103 147.73 113.164 147.821 113.206 147.921C113.248 148.021 113.27 148.129 113.271 148.237C113.271 148.241 113.271 148.244 113.271 148.248C113.27 148.47 113.183 148.682 113.028 148.841C112.872 148.999 112.661 149.091 112.439 149.095L112.436 149.094C112.213 149.092 111.999 149.002 111.841 148.843C111.683 148.685 111.593 148.471 111.591 148.247ZM113.619 148.938C113.539 149.075 113.425 149.189 113.287 149.27C113.15 149.35 112.994 149.393 112.836 149.395C112.754 149.394 112.673 149.382 112.595 149.358C112.534 149.342 112.475 149.319 112.42 149.29H112.424L112.42 149.288H112.439C112.714 149.287 112.976 149.176 113.17 148.981C113.363 148.786 113.471 148.522 113.471 148.248C113.467 148.084 113.424 147.923 113.345 147.78C113.318 147.718 113.284 147.66 113.244 147.605L113.252 147.61L113.248 147.603C113.403 147.683 113.534 147.802 113.628 147.949C113.726 148.096 113.778 148.268 113.776 148.445C113.775 148.621 113.72 148.793 113.619 148.938ZM119.013 144.922L119.015 144.923V144.922L119.73 145.234L119.941 145.325L119.35 145.918L118.966 146.304L118.966 146.303L118.965 146.305L119.013 144.922ZM116.519 142.912L117.759 142.296V142.297L117.843 143.316L116.519 142.913L116.521 142.912L116.519 142.912ZM118.523 144.519L117.17 144.784L117.972 143.662L118.523 144.519ZM118.225 141.019L117.853 141.797L117.847 141.791L117.845 141.796L116.907 140.778L118.29 140.887L118.225 141.019ZM118.963 140.273L118.623 140.495L118.619 140.497L118.339 139.156L118.34 139.157L118.339 139.154L118.837 139.508L119.463 139.949L118.963 140.273ZM120.957 139.735L119.945 139.776L120.339 138.643L120.395 138.48L120.396 138.482L120.487 138.684L120.959 139.734L120.957 139.735Z" fill="#A2AAAD"/>
</svg>
