<svg width="200" height="200" viewBox="0 0 200 200" fill="none" xmlns="http://www.w3.org/2000/svg">
<path d="M186.729 61.6241C186.809 61.6241 193.667 56.2187 193.667 56.2187C174.017 51.4907 153.784 49.6427 133.602 50.7326C133.602 50.7326 128.963 35.1618 106.979 35.0005C90.6414 34.9198 81.2424 45.0852 78.2977 53.0319C47.4385 59.7282 23.8806 75.299 23.8806 75.299L29.528 79.6152C14.9657 87.2393 0 99.4216 0 99.4216C0 99.4216 1.37152 106.763 10.2057 118.542C10.2057 118.542 16.1355 123.141 31.787 129.151C33.3291 128.788 34.8399 128.302 36.305 127.699C38.4562 128.432 40.6525 129.025 42.8802 129.474C42.7592 131.451 42.1541 134.274 45.7846 137.623L43.1222 139.034C43.1222 139.034 46.3493 147.183 64.3808 151.58C71.3191 149.966 102.703 144.238 113.393 164.044L168.374 110.757L156.716 110.676L200 65.2949C195.657 63.7965 191.224 62.5705 186.729 61.6241Z" fill="#E2D6B5"/>
<path d="M189.512 67.4725C184.461 65.6586 179.301 64.1631 174.062 62.9949L179.589 58.7997C149.819 52.5875 129.367 54.3624 129.367 54.3624C129.367 54.3624 125.373 38.7916 105.527 38.6706C86.3254 38.5495 80.4359 55.6532 80.4359 55.6532C54.0947 60.6552 29.246 75.5806 29.246 75.5806L35.2564 80.1792C19.6857 87.7226 3.50977 100.591 3.50977 100.591C5.7284 107.69 12.344 116.363 12.344 116.363C18.4755 120.679 31.989 126.045 31.989 126.045C33.4048 125.666 34.772 125.124 36.0632 124.431C40.5122 126.136 45.2174 127.077 49.9801 127.214C52.6021 127.255 55.5065 126.932 55.5469 125.924C55.5469 124.149 50.1818 123.584 50.1818 121.607C50.1818 120.115 53.4493 118.138 65.7526 118.219C73.0943 118.259 81.4444 118.824 81.4444 118.824C75.3936 118.784 63.4533 120.276 63.4533 123.059C63.413 125.278 71.5211 125.439 71.5211 128.384C71.4807 132.66 65.1475 134.072 57.7655 134.032C51.15 133.991 48.0035 132.095 46.511 132.055C45.9462 132.055 45.5832 132.337 45.5832 132.741C45.5832 134.274 48.4876 137.38 50.8676 138.267L47.6404 140.082C51.1903 144.842 64.4618 148.473 64.4618 148.473C102.501 140.445 114.079 159.485 114.079 159.485L158.895 113.701L148.447 113.62L189.512 67.4725Z" fill="#024930"/>
<path d="M86.688 63.6419C86.6815 62.8858 86.7355 62.1304 86.8494 61.3829C69.665 63.884 53.6102 68.6843 40.5404 75.6629C55.6066 70.8991 71.1257 67.7087 86.8494 66.1429C86.7341 65.3144 86.6802 64.4784 86.688 63.6419ZM123.154 59.5273C123.501 60.9666 123.664 62.4441 123.638 63.9243C123.645 64.6536 123.591 65.3822 123.477 66.1026C131.535 66.988 139.483 68.691 147.196 71.1853C138.523 71.4273 129.649 72.1937 121.057 73.2022C119.416 75.9822 117.072 78.2809 114.261 79.8672C111.45 81.4534 108.27 82.2712 105.042 82.2381C100.58 82.2434 96.2728 80.6065 92.9405 77.6395C75.0704 81.1086 62.525 84.5778 62.525 84.5778C71.3592 85.0618 76.3209 87.1191 76.3209 87.1191C53.4891 91.5967 32.1902 100.229 25.252 103.214C26.9058 105.836 29.0035 108.902 29.0035 108.902L25.5747 113.097C31.6658 114.267 39.2092 113.662 39.2092 113.662L50.5847 106.804L59.4593 109.548L62.162 105.877H59.2576L65.1874 96.4777L70.0281 105.957H67.8094L69.302 109.184L75.4335 108.136L78.0555 104.828H75.7159L79.2657 99.4628H76.6436L82.2104 90.1445L86.8897 99.8258H84.792L87.8981 105.473L85.3971 105.433L90.4798 114.792L95.6432 107.652H92.1337L97.4585 99.7452L94.07 99.7049L101.775 86.7158L108.269 99.9872H105.526L110.004 107.773L106.817 107.732L111.093 117.454L118.596 105.393L114.522 105.352L120.613 95.5903L116.902 95.55L125.091 79.1724L133.441 96.4374H130.456L135.901 105.514L132.15 105.473L136.264 114.469L143.162 104.102L139.492 104.061L147.519 92.6859H143.243L156.071 75.2192L162.686 87.3208L177.047 69.8944C160.669 63.6823 141.993 60.2535 123.154 59.5273Z" fill="#AF1E24"/>
<path d="M105.285 45.2874C100.779 45.2639 96.419 46.8863 93.0246 49.85C89.6302 52.8136 87.4345 56.9145 86.8499 61.3826C86.8499 61.3826 96.1681 57.268 121.38 54.9283C119.794 52.0374 117.468 49.6207 114.639 47.9264C111.81 46.232 108.582 45.3212 105.285 45.2874ZM105.043 82.2377C108.271 82.2757 111.453 81.4601 114.265 79.8734C117.077 78.2866 119.42 75.9852 121.057 73.2018C111.013 74.4523 101.412 76.0256 92.9814 77.6391C96.305 80.594 100.595 82.2298 105.043 82.2377ZM123.155 59.527C111.022 59.0455 98.8704 59.6666 86.8499 61.3826C86.7546 62.132 86.7006 62.8862 86.6885 63.6415C86.6885 64.4887 86.7692 65.3358 86.8498 66.1426C99.0245 64.8572 111.3 64.8437 123.478 66.1022C123.591 65.3818 123.645 64.6532 123.639 63.9239C123.644 62.4447 123.482 60.9697 123.155 59.527Z" fill="#EDAA00"/>
<path d="M107.261 70.459C91.788 71.0197 76.4161 73.1964 61.3957 76.9535C61.2344 75.8644 61.073 74.8156 60.9117 73.7668C60.1452 75.0173 59.4595 76.2274 58.693 77.4376C58.693 77.4376 47.7612 81.3908 40.5405 85.102C49.7781 81.9959 57.2812 80.1 57.2812 80.1C56.5147 81.6732 55.7886 83.2061 55.0222 84.8196C56.3937 83.5691 57.7249 82.3993 59.1367 81.1891L62.0411 82.7623C61.9201 81.5925 61.7991 80.463 61.6781 79.2528C61.6781 79.2528 86.0427 72.6373 107.261 70.459Z" fill="white"/>
</svg>
