<svg width="200" height="200" viewBox="0 0 200 200" fill="none" xmlns="http://www.w3.org/2000/svg">
<path d="M177.894 99.5679L192.215 84.5215L184.066 47.0467L147.923 36.2763L144.655 39.3017C132.553 35.7115 110.77 31.96 96.2485 32.0003C42.4365 32.081 0.161353 62.0124 0 100.133C0 132.726 28.1162 168.991 96.7326 168.991C151.109 168.991 200 132.767 200 132.767L177.894 99.5679Z" fill="white"/>
<path d="M173.094 99.1236L188.14 83.3511L180.879 49.9909L148.891 40.4709L145.623 43.5367C134.812 39.9868 111.738 35.7109 96.2887 35.7109C43.7675 35.8319 3.87235 64.6339 3.71099 100.132C3.54963 137.405 39.6933 165.239 96.7324 165.239C136.668 165.239 177.571 143.94 194.836 131.798L173.094 99.1236Z" fill="#192168"/>
<path d="M76.2002 77.4222V123.489C68.6165 123.489 44.4939 114.615 44.4939 100.617C44.4939 83.352 69.1813 78.5517 76.2002 77.4222ZM107.382 106.224V124.336C101.352 124.962 95.2801 125.084 89.2297 124.699V106.224H107.382ZM89.2297 94.3242V76.3734C95.286 76.0961 101.355 76.2849 107.382 76.9382V94.3242L89.2297 94.3242ZM167.487 102.594C167.487 102.594 144.857 118.084 119.847 122.723V78.8341C146.995 82.2629 163.05 99.9716 163.05 99.9716L181.122 81.2948L175.313 55.1148L150.625 47.8942L147.479 51.2827C137.475 47.3698 116.781 42.2871 93.8686 42.2871C48.0034 42.2871 10.4883 68.3057 10.4479 100.375C10.3672 131.638 42.1946 158.665 93.5459 158.665C140.944 158.665 175.192 136.075 185.922 130.024L167.487 102.594Z" fill="white"/>
<path d="M93.9088 111.79H102.622V119.172H93.9088V111.79ZM94.1105 89.0793H102.582V82.02L94.1105 81.6973V89.0793ZM155.708 101.947C147.356 94.59 137.351 89.359 126.543 86.6993V114.372C135.982 111.75 146.309 107.312 155.708 101.947ZM69.5441 115.421V85.4488C60.9116 87.9498 51.1899 92.8711 51.1899 100.616C51.1899 105.941 59.3787 112.355 69.5441 115.421Z" fill="white"/>
<path d="M166.196 109.128C136.547 126.514 116.781 129.903 92.7389 129.661C58.8946 129.379 39.6126 115.825 39.6126 99.6891C39.6126 85.1672 57.281 71.2906 93.4246 71.2906C117.709 71.2906 146.995 77.8255 162.646 93.2349L175.676 79.9635L171.238 58.9066L152.037 53.2995L148.527 57.2123C137.999 53.0171 120.21 47.168 92.8599 47.168C51.5529 47.168 15.3286 71.0486 15.3286 99.8908C15.3286 130.064 46.8736 153.703 91.6094 153.703C137.031 153.703 163.655 136.599 179.024 128.531L166.196 109.128Z" fill="#AF1E2D"/>
</svg>
