<svg width="200" height="200" viewBox="0 0 200 200" fill="none" xmlns="http://www.w3.org/2000/svg">
<path d="M2.22689 75.4467L8.38093 67.3745C8.70062 66.8949 9.26008 66.5753 9.81954 66.4953L67.7635 54.9065C66.9643 54.1073 66.9643 51.5498 69.3619 51.1502C69.7616 51.0703 78.9527 49.7915 89.5824 50.5907L128.345 42.8382C128.824 42.7583 129.304 42.8382 129.783 42.9981L158.236 55.3861C158.556 55.5459 158.795 55.7058 158.955 55.8656L163.511 60.4212L170.784 64.5772C171.343 64.8969 171.823 65.4563 171.983 66.1756L173.421 72.9691L178.057 78.7235L181.254 81.2011L191.564 86.1563C192.123 86.3961 192.523 86.8756 192.763 87.4351L198.117 100.542C198.597 101.661 198.117 102.7 197.558 103.18C197.558 103.18 193.802 106.936 190.285 113.969C189.885 114.849 188.926 115.328 187.967 115.328C187.887 115.328 183.252 115.168 176.219 119.084C175.899 119.244 175.419 119.404 175.02 119.404H167.907C150.164 141.383 124.589 153.531 89.9021 156.488C87.2646 156.728 86.1457 152.972 88.7032 151.853L92.2997 150.254C91.5005 149.775 91.1808 147.297 93.099 146.418C93.4187 146.258 126.347 131.632 135.938 103.659C129.624 104.938 116.996 107.656 107.325 110.852C101.011 112.93 97.0951 116.207 94.7774 118.925C95.7364 118.525 97.0152 117.966 98.1341 117.966C100.772 117.966 101.89 120.044 101.89 120.044C102.13 119.964 102.37 119.884 102.61 119.884C104.768 119.884 107.165 121.642 107.165 124.279C107.165 128.435 100.692 133.63 95.5766 135.868C94.9372 139.065 91.9801 142.981 81.5901 142.981C72.7986 142.981 66.8044 138.745 64.9662 137.307L41.3091 133.071C39.3909 132.751 38.8315 130.593 39.7905 129.315C39.8705 129.235 46.2643 120.044 46.2643 110.613C46.2643 85.1972 4.30488 79.4428 3.90526 79.3629C1.98712 79.0432 1.10797 76.8853 2.22689 75.4467ZM3.58557 80.9613C3.98518 81.0413 44.4261 86.7158 44.4261 110.533C44.4261 119.244 38.272 128.116 38.272 128.196C36.6736 130.433 37.6326 134.11 40.9095 134.669L64.167 138.905C66.6446 140.823 72.7187 144.66 81.4303 144.66C92.06 144.66 95.7364 140.664 96.8553 136.987C102.05 134.589 108.764 129.315 108.764 124.2C108.764 120.603 105.567 118.125 102.53 118.125C101.811 117.406 100.931 116.847 99.9723 116.527C102.37 114.769 105.007 113.41 107.805 112.531C115.957 109.813 126.267 107.496 133.14 106.057C122.59 131.393 92.6194 144.74 92.3797 144.899C89.3426 146.258 89.982 149.455 89.982 149.455L87.9839 150.334C83.748 152.252 85.3465 158.646 89.982 158.247C124.828 155.289 150.563 143.141 168.706 121.162H175.1C175.819 121.162 176.458 121.003 177.098 120.683C183.571 117.086 187.887 117.166 187.967 117.166C189.646 117.246 191.164 116.367 191.883 114.849C195.16 108.135 198.757 104.539 198.757 104.459C200.036 103.18 200.275 101.422 199.716 99.903L194.361 86.7957C193.961 85.8366 193.242 85.0374 192.363 84.6378L182.213 79.7625L179.336 77.5247L175.02 72.1698L173.581 65.6961C173.341 64.5772 172.622 63.5382 171.583 62.9787L164.55 58.9826L160.154 54.5869C159.754 54.1872 159.355 53.9475 158.875 53.7077L130.423 41.3197C129.624 41 128.824 40.9201 127.945 41.0799L89.4225 48.7525C79.1924 47.9533 70.1612 49.232 69.1222 49.312C65.9253 49.8714 65.4457 52.6687 65.6056 53.4679C62.089 54.1872 9.49985 64.6571 9.49985 64.6571C8.54078 64.817 7.58171 65.3764 7.02225 66.1756L0.8682 74.4077C-1.12987 76.9652 0.548509 80.5617 3.58557 80.9613Z" fill="white"/>
<path d="M180.375 90.7923C180.375 90.7923 186.768 94.8684 189.646 89.6734L179.815 85.0379C177.098 86.6363 174.38 87.4356 171.903 87.8352C176.698 89.1139 180.375 90.7923 180.375 90.7923ZM64.0072 71.3711C64.0072 71.3711 56.4145 74.4881 51.1396 82.3205C53.7771 81.6012 56.3346 80.9618 58.9721 80.3224C61.3698 74.9676 64.0072 71.3711 64.0072 71.3711Z" fill="white"/>
<path d="M166.388 70.5712L165.029 75.7661C165.029 71.8499 162.712 69.5322 155.838 65.536L166.388 70.5712ZM112.121 69.6121C106.446 69.8519 101.97 71.9298 98.5338 74.4874C103.169 74.1677 107.725 74.0878 112.36 74.0878C114.678 71.0507 116.037 67.6939 116.037 64.1773C116.037 58.1032 112.92 54.5866 112.92 54.5866L127.945 51.2299L132.581 53.5476C132.581 53.5476 121.552 57.7835 121.552 69.7719C121.552 71.4503 121.791 73.0488 122.191 74.4074C130.103 74.8071 138.335 75.6862 146.647 77.2047C146.647 77.2047 149.365 83.7584 156.797 83.7584C160.394 83.7584 163.111 81.7603 163.111 81.7603C171.184 87.8345 178.536 84.4777 178.536 84.4777L175.739 82.1599L173.102 83.5986L174.7 81.121L173.661 80.002L170.145 81.8403L172.382 78.4835L171.583 77.6044L168.546 78.8831L170.304 75.926L169.106 74.0878C167.987 79.043 163.591 79.6024 159.755 79.3626L159.595 77.2047C157.916 78.2437 155.838 78.3237 154.16 77.3646C152.482 76.4055 151.363 74.6472 151.363 72.6491C151.363 70.9708 142.971 63.458 142.971 63.458L153.76 66.8148C162.792 69.6121 162.392 74.0878 162.552 76.5654C164.07 77.2047 167.507 77.7642 169.026 74.1677L167.907 68.2534L160.714 64.7368L155.758 60.1013L128.105 48.9121L100.852 54.9862C107.245 56.5048 112.6 59.8615 112.6 59.8615C112.6 59.8615 114.838 64.4171 112.121 69.6121ZM145.129 88.5538C142.252 89.9924 139.694 91.9904 136.817 94.468L140.094 88.314C140.094 88.314 131.382 87.9943 123.07 88.1541L117.635 94.1483C115.557 93.509 113.399 93.1893 111.242 93.1093C111.082 90.0723 112.281 86.6356 114.918 83.3588C111.401 85.9962 109.243 89.4329 108.844 93.1893C107.325 93.2692 105.807 93.5889 104.368 93.9885C103.649 91.5109 103.729 88.3939 104.848 85.0372C102.77 88.1541 101.97 91.5109 102.37 94.6279C100.931 95.1873 99.4929 95.8267 98.2141 96.7059C96.9353 94.7877 96.1361 92.1503 96.0562 89.0333C95.3369 92.2302 95.4967 95.1873 96.6157 97.7449C91.9801 101.182 89.9022 105.417 89.9022 105.417C75.1964 102.78 66.245 115.088 65.9254 123.72C64.9663 117.726 66.8844 107.096 78.7929 102.061L82.7091 92.8696C82.9489 92.3101 83.2686 91.7507 83.6682 91.2711C70.5609 93.5889 62.3288 98.7839 62.3288 98.7839C62.3288 98.7839 58.7323 105.178 60.2508 111.651C60.2508 111.651 57.9331 108.455 56.5744 103.1C56.0949 103.579 55.5354 104.059 55.0559 104.618C55.5354 106.536 55.7752 108.455 55.7752 110.532C55.7752 120.203 51.779 126.277 51.779 126.277L65.286 128.995C65.286 128.995 70.401 136.427 81.3504 136.427C84.7871 136.427 89.3427 136.028 89.3427 133.87C89.3427 132.192 85.2666 129.954 85.2666 125.078C85.2666 117.246 95.0971 109.094 105.727 105.577C118.115 101.501 136.977 96.7858 146.487 96.7858C173.421 96.7858 172.542 114.609 172.542 114.609L173.821 114.529C179.815 111.172 185.17 110.532 186.689 110.373C189.406 100.702 184.451 91.9904 145.129 88.5538ZM38.9115 71.1306L73.7578 63.3781C73.7578 63.3781 75.1165 67.8538 81.1107 71.4503L81.0307 72.5692C78.2334 73.1287 73.9176 74.887 69.8416 78.1638C76.635 76.885 83.5083 75.926 90.3817 75.2866L92.14 71.1306C81.1906 72.7291 76.3153 63.458 76.3153 63.458L75.4361 60.6607L11.9775 74.7271C18.8509 75.2067 26.3636 77.3646 33.237 80.8812C34.9153 75.3665 38.9115 71.1306 38.9115 71.1306Z" fill="white"/>
<path d="M157.996 102.221C145.608 102.221 145.848 128.516 102.21 150.734C139.294 145.379 167.347 120.124 167.347 109.734C167.347 105.898 161.033 102.221 157.996 102.221ZM87.5041 126.038C88.3833 129.954 91.0207 131.073 91.2605 132.512C91.2605 132.512 98.0539 131.073 102.61 124.36C93.818 128.835 87.5041 126.038 87.5041 126.038ZM78.2331 62.4196C78.2331 62.4196 82.2293 69.213 89.3424 69.213L96.6953 68.7334L102.769 62.4196L111.001 61.1408C107.964 59.3026 104.448 57.9439 100.931 56.9848L94.0578 66.6555L98.4536 56.4254C97.1748 56.1856 95.896 55.9458 94.6173 55.7061L88.703 64.018L92.3794 55.3864C90.8609 55.2265 89.3424 55.0667 87.9038 54.9867L83.3482 61.3006L86.0655 54.8269C79.6717 54.5871 74.9563 55.0667 74.9563 55.0667L76.5547 56.4254L78.2331 62.4196ZM36.9131 82.8798C38.2718 83.679 39.5505 84.5581 40.7494 85.4373C41.8683 85.0377 43.227 84.6381 44.7455 84.1585C47.1432 75.2072 51.9386 69.2929 51.9386 69.2929C41.9482 72.9694 37.7922 81.1215 36.9131 82.8798Z" fill="white"/>
<path d="M188.127 112.93C188.127 112.93 182.932 112.61 175.099 117.006H168.546L167.347 116.367C149.604 139.225 124.428 151.133 89.742 154.09C89.742 154.09 101.491 148.895 107.884 145.538L94.1377 148.655C94.1377 148.655 131.462 132.511 139.614 100.542C139.614 100.542 120.352 104.059 106.686 108.614C93.0987 113.09 89.4223 122.92 89.4223 122.92C94.2177 122.441 96.7752 120.363 98.2138 120.363C99.9721 120.363 100.611 122.201 100.132 123.24C100.931 122.92 101.97 122.281 102.689 122.281C103.569 122.281 104.767 123 104.767 124.199C104.767 127.156 98.2138 132.511 93.3385 134.03C93.3385 135.868 92.6192 140.503 81.5899 140.503C72.0791 140.503 66.0849 134.989 66.0849 134.989L41.7884 130.593C41.7884 130.593 48.7416 120.842 48.7416 110.532C48.7416 82.6393 4.30463 76.8849 4.30463 76.8849L10.4587 68.8127L73.1181 56.2648L69.8412 53.4676C69.8412 53.4676 79.2721 52.1089 89.8219 52.988L128.824 45.1556L157.277 57.5436L162.072 62.339L169.585 66.6548L171.263 74.0876L176.458 80.4814L180.055 83.2787L190.604 88.3938L195.959 101.501C195.879 101.421 191.883 105.337 188.127 112.93ZM198.117 100.542L192.762 87.4347C192.523 86.8752 192.123 86.3957 191.563 86.1559L181.253 81.2007L178.057 78.7231L173.421 72.9687L171.902 66.0953C171.743 65.456 171.343 64.8965 170.704 64.4969L163.431 60.3409L158.875 55.7853C158.635 55.5455 158.396 55.3857 158.156 55.3058L129.703 42.9178C129.224 42.7579 128.744 42.678 128.265 42.7579L89.5022 50.5104C78.9524 49.7112 69.6814 50.99 69.2818 51.0699C66.8841 51.4695 66.8841 54.027 67.7632 54.8262L9.81929 66.415C9.25984 66.495 8.70038 66.8946 8.38069 67.2942L2.22664 75.4463C1.10772 76.8849 1.98687 79.0428 3.82509 79.2826C4.22471 79.3625 46.1841 85.037 46.1841 110.532C46.1841 119.883 39.7903 129.074 39.7104 129.234C38.7513 130.513 39.3108 132.671 41.2289 132.991L64.886 137.227C66.6443 138.665 72.7184 142.901 81.5099 142.901C91.8999 142.901 94.857 138.985 95.4964 135.788C100.611 133.63 107.085 128.435 107.085 124.199C107.085 121.562 104.767 119.803 102.53 119.803C102.29 119.803 102.05 119.883 101.81 119.963C101.81 119.963 100.691 117.885 98.0539 117.885C96.935 117.885 95.6563 118.445 94.6972 118.844C97.0949 116.127 101.011 112.85 107.245 110.772C116.916 107.575 129.543 104.858 135.857 103.579C126.267 131.472 93.3385 146.178 93.0188 146.338C91.1007 147.217 91.4204 149.694 92.2196 150.174L88.6231 151.772C86.0655 152.891 87.1845 156.648 89.8219 156.408C124.588 153.451 150.084 141.303 167.826 119.324H174.94C175.339 119.324 175.739 119.244 176.138 119.004C183.172 115.088 187.807 115.248 187.887 115.248C188.846 115.328 189.725 114.768 190.205 113.889C193.641 106.856 197.398 103.1 197.478 103.1C198.037 102.62 198.517 101.661 198.117 100.542Z" fill="#FFB81C"/>
<path d="M157.596 76.2453C158.715 76.2453 159.515 75.6859 159.515 75.6859C159.435 75.2862 159.355 74.8866 159.275 74.5669C159.035 74.7268 158.635 74.8866 158.156 74.8866C156.957 74.8866 156.158 73.9276 156.158 72.8886C156.158 72.0094 156.717 71.2102 157.596 70.9704C156.557 69.4519 155.439 68.8125 155.439 68.8125C155.439 68.8125 153.6 69.8515 153.6 72.1693C153.6 74.5669 155.598 76.2453 157.596 76.2453ZM43.9464 87.9939C44.1862 86.7152 44.426 85.4364 44.7456 84.2376C43.2271 84.7171 41.8684 85.1167 40.7495 85.5163C41.8684 86.2356 42.9873 87.1148 43.9464 87.9939ZM89.6622 85.5963L85.4263 86.5553L90.3016 75.1264C82.8688 75.8457 75.9954 76.8847 69.7614 78.0835C63.9271 82.719 58.4124 90.2318 58.4124 101.501C58.4124 107.095 60.2506 111.731 60.2506 111.731C58.812 105.177 62.3286 98.7835 62.3286 98.7835C62.3286 98.7835 70.5607 93.5086 83.7479 91.1109C84.707 89.992 86.0657 89.1928 87.9838 88.7133C97.4946 86.2356 107.165 80.8808 112.36 74.0874C107.645 74.0874 103.009 74.2472 98.5336 74.487C92.2996 79.2025 89.6622 85.5963 89.6622 85.5963ZM146.727 77.1245C138.415 75.6059 130.183 74.7268 122.271 74.3272C123.869 79.9218 127.705 82.9588 127.705 82.9588L123.07 87.9939C131.382 87.8341 140.093 88.1538 140.093 88.1538L136.817 94.3078L145.448 84.9569L146.727 77.1245ZM59.0518 80.3214C56.1746 80.9607 53.6171 81.6801 51.2194 82.3194C49.4611 85.0368 48.1024 87.9939 47.3032 91.1109C51.0595 95.1071 53.8568 99.6627 55.1356 104.618C55.6151 104.058 56.0947 103.579 56.6541 103.099C56.0147 100.542 55.6951 97.9044 55.6951 95.2669C55.6151 89.7522 57.2136 84.5573 59.0518 80.3214ZM180.374 90.7912C180.374 90.7912 176.698 89.1129 171.903 87.8341C164.55 88.8731 158.955 85.836 158.955 85.836C152.881 85.836 148.725 86.7951 145.129 88.6333C184.451 92.07 189.406 100.782 186.848 110.452C187.168 110.452 187.328 110.452 187.328 110.452C187.328 110.452 189.965 105.497 193.082 101.9C193.082 101.9 189.086 93.5086 175.02 92.7893L180.374 90.7912Z" fill="#FFB81C"/>
<path d="M36.9133 82.8798C37.7125 81.1215 41.9484 72.9693 51.9388 69.2929C51.9388 69.2929 47.1434 75.2072 44.8257 84.1585C44.506 85.4373 44.2662 86.6361 44.0264 87.9149C42.9874 87.0357 41.9484 86.1566 40.8295 85.4373C39.5508 84.5581 38.272 83.679 36.9133 82.8798ZM11.9774 74.7276L75.3561 60.5014L76.1554 63.2987C76.1554 63.2987 81.1106 72.5697 91.98 70.9713L90.2217 75.1273L85.4264 86.5562L89.6623 85.5971C89.6623 85.5971 92.2997 79.2033 98.5337 74.4879C101.97 71.9304 106.446 69.8524 112.121 69.6126C114.758 64.4176 112.76 59.7022 112.76 59.7022C112.76 59.7022 107.485 56.3454 101.011 54.8269L128.265 48.7528L155.918 59.9419L160.873 64.5775L168.066 68.0941L169.185 74.0083L170.384 75.8466L168.626 78.8037L171.663 77.5249L172.462 78.4041L170.224 81.7608L173.821 79.9226L174.86 81.0415L173.261 83.5191L175.899 82.0805L178.696 84.3983C178.696 84.3983 171.343 87.755 163.271 81.6809C163.271 81.6809 160.554 83.679 156.957 83.679C149.524 83.679 146.807 77.1253 146.807 77.1253L145.448 84.9577L136.897 94.3886C139.774 91.9909 142.251 89.9929 145.209 88.4743C148.805 86.716 152.961 85.6771 159.035 85.6771C159.035 85.6771 164.63 88.794 171.983 87.6751C174.46 87.3554 177.178 86.4763 179.895 84.8778L189.725 89.5133C186.848 94.7083 180.454 90.6323 180.454 90.6323L175.02 92.5504C189.086 93.2697 193.082 101.662 193.082 101.662C189.965 105.258 187.328 110.213 187.328 110.213C187.328 110.213 187.168 110.213 186.848 110.213C185.33 110.293 179.975 111.013 173.981 114.369L172.702 114.449C172.702 114.449 173.581 96.6265 146.647 96.6265C137.136 96.6265 118.275 101.342 105.887 105.418C95.3368 108.935 85.4264 117.087 85.4264 124.919C85.4264 129.714 89.5024 132.032 89.5024 133.711C89.5024 135.948 84.9469 136.268 81.5102 136.268C70.5608 136.268 65.4457 128.835 65.4457 128.835L51.9388 126.118C51.9388 126.118 55.9349 120.044 55.9349 110.373C55.9349 108.375 55.6951 106.377 55.2156 104.459C53.9368 99.5037 51.1396 94.8682 47.3832 90.952C48.1824 87.835 49.4612 84.8778 51.2994 82.1605C56.4145 74.4879 64.0071 71.3709 64.0071 71.3709C64.0071 71.3709 61.3697 74.9674 59.0519 80.3222C57.2137 84.5581 55.6152 89.7531 55.6152 95.3477C55.6152 98.3048 56.0148 100.942 56.5743 103.18C57.933 108.535 60.2507 111.732 60.2507 111.732C60.2507 111.732 58.4125 107.096 58.4125 101.502C58.4125 90.3126 63.8473 82.7199 69.7615 78.0844C73.9175 74.8875 78.2334 73.0493 80.9507 72.4898L81.0306 71.3709C75.1963 67.8543 73.7577 63.3786 73.7577 63.3786L38.9114 71.211C38.9114 71.211 34.8353 75.4469 33.2369 80.9616C26.3635 77.3651 18.8508 75.2072 11.9774 74.7276ZM85.9858 54.8269L83.2685 61.3006L87.8241 54.9867C89.3426 55.0667 90.8611 55.2265 92.2997 55.3864L88.6233 64.018L94.5376 55.706C95.8163 55.8659 97.0951 56.1057 98.3739 56.4253L93.9781 66.6555L100.851 56.9848C104.368 57.9439 107.805 59.3026 110.922 61.1408L102.69 62.4195L96.6156 68.7334L89.2627 69.213C82.1496 69.213 78.1534 62.4195 78.1534 62.4195L76.3951 56.4253L74.7967 55.0667C74.8766 55.0667 79.592 54.5871 85.9858 54.8269ZM102.21 150.654C145.768 128.436 145.608 102.141 157.996 102.141C161.033 102.141 167.347 105.818 167.347 109.654C167.347 120.044 139.374 145.299 102.21 150.654ZM102.61 124.36C98.0542 131.073 91.2607 132.512 91.2607 132.512C91.021 131.073 88.3835 129.954 87.5044 126.038C87.5044 126.038 93.8183 128.835 102.61 124.36ZM48.582 110.533C48.582 120.843 41.6288 130.594 41.6288 130.594L65.9253 134.989C65.9253 134.989 71.9994 140.504 81.4303 140.504C92.4596 140.504 93.1789 135.869 93.1789 134.03C98.0542 132.432 104.608 127.157 104.608 124.2C104.608 123.001 103.409 122.282 102.53 122.282C101.811 122.282 100.772 122.841 99.9723 123.241C100.452 122.202 99.8125 120.364 97.9743 120.364C96.5356 120.364 93.9781 122.441 89.1828 122.921C89.1828 122.921 92.8592 113.091 106.446 108.615C120.113 104.059 139.374 100.543 139.374 100.543C131.222 132.512 93.8982 148.656 93.8982 148.656L107.645 145.539C101.251 148.896 89.5024 154.091 89.5024 154.091C124.189 151.134 149.444 139.225 167.107 116.367L168.306 117.007H174.86C182.692 112.611 187.887 112.931 187.887 112.931C191.644 105.338 195.56 101.422 195.56 101.422L190.205 88.3145L179.655 83.1994L176.059 80.4022L170.864 74.0083L169.185 66.5755L161.673 62.2597L156.877 57.4643L128.744 45.1562L89.6623 52.9887C79.1125 52.1095 69.6816 53.4682 69.6816 53.4682L72.9585 56.2655L10.2991 68.8134L4.14502 76.8856C4.14502 76.8856 48.582 82.64 48.582 110.533Z" fill="#041E42"/>
<path d="M157.596 76.2465C155.598 76.2465 153.6 74.5681 153.6 72.2503C153.6 69.9326 155.518 68.8936 155.518 68.8936C155.518 68.8936 156.557 69.533 157.676 71.0515C156.797 71.2913 156.238 72.0905 156.238 72.9696C156.238 74.0086 156.957 74.9677 158.236 74.9677C158.715 74.9677 159.115 74.8078 159.355 74.648C159.435 75.0476 159.515 75.3673 159.594 75.7669C159.515 75.687 158.715 76.2465 157.596 76.2465ZM162.711 76.4862C162.632 74.0086 163.031 69.533 153.92 66.7357L143.13 63.3789C143.13 63.3789 151.522 70.8117 151.522 72.57C151.522 75.5272 153.92 77.9248 156.877 77.9248C157.916 77.9248 158.875 77.6051 159.754 77.1256L159.914 79.2835C163.67 79.6032 168.146 78.9638 169.265 74.0086C167.667 77.6051 164.23 77.1256 162.711 76.4862Z" fill="#041E42"/>
<path d="M66.0852 123.56C66.4049 114.929 75.3563 102.541 90.062 105.258C91.7404 102.221 94.0582 99.6635 96.7756 97.5855C95.6566 94.8681 95.4169 91.7511 96.2161 88.8739C96.2161 91.5913 96.9354 94.2287 98.374 96.5465C99.7327 95.7472 101.091 95.0279 102.53 94.4685C102.13 91.1117 103.01 87.6751 105.008 84.8778C103.889 87.755 103.729 90.872 104.528 93.8291C105.967 93.4295 107.485 93.1897 109.004 93.0299C109.483 89.2735 111.561 85.8368 115.078 83.1994C112.44 86.4762 111.242 89.9129 111.401 92.95C113.559 93.0299 115.717 93.3496 117.795 93.989L123.23 87.9947L127.865 82.9596C125.228 80.7218 123.31 77.6847 122.431 74.328C122.031 72.8094 121.791 71.2909 121.791 69.6925C121.791 57.7041 132.821 53.4681 132.821 53.4681L128.185 51.1504L113 54.5871C115.078 57.3844 116.197 60.7411 116.117 64.1778C116.037 67.7743 114.678 71.2909 112.44 74.0882C107.325 80.8816 97.5748 86.2365 88.064 88.7141C86.4655 89.0337 84.947 89.9129 83.8281 91.1117C83.4285 91.5913 83.1088 92.0708 82.869 92.6303L78.9528 101.821C67.0443 106.936 65.1262 117.566 66.0852 123.56ZM165.03 75.7666L166.388 70.5716L155.838 65.5365C162.712 69.5326 165.03 71.8504 165.03 75.7666Z" fill="#041E42"/>
</svg>
