<svg width="200" height="200" viewBox="0 0 200 200" fill="none" xmlns="http://www.w3.org/2000/svg">
<path d="M134.698 4L142.456 11.2335L149.529 4.35521H200L184.915 31.1323V161.791C184.915 164.698 184.343 167.576 183.231 170.262C182.119 172.947 180.489 175.388 178.434 177.443C176.378 179.499 173.938 181.129 171.253 182.242C168.568 183.355 165.69 183.928 162.783 183.928H121.381C116.992 183.979 112.696 185.201 108.937 187.468C105.179 189.735 102.093 192.964 100 196.822C97.9064 192.964 94.821 189.735 91.0624 187.469C87.3037 185.202 83.0082 183.979 78.6192 183.928H37.2203C34.3134 183.928 31.435 183.355 28.7494 182.243C26.0638 181.13 23.6236 179.5 21.5681 177.444C19.5127 175.389 17.8822 172.948 16.7699 170.263C15.6575 167.577 15.085 164.699 15.085 161.792V31.1323L0 4.35521H50.4724L57.5425 11.2335L65.3017 4H134.698Z" fill="#0033A0"/>
<path d="M183.653 30.8007L197.842 5.6164H150.04L142.474 12.9749L134.199 5.25977H65.7989L57.5254 12.9749L49.9594 5.6164H2.15674L16.3452 30.8007V161.791C16.345 167.327 18.544 172.636 22.4584 176.551C26.3729 180.466 31.6822 182.665 37.2183 182.666H78.6191C82.8707 182.708 87.0463 183.798 90.7757 185.84C94.505 187.882 97.6729 190.812 99.9985 194.372C102.324 190.813 105.493 187.882 109.222 185.84C112.952 183.798 117.127 182.708 121.379 182.666H162.78C168.314 182.659 173.62 180.458 177.533 176.544C181.446 172.631 183.647 167.325 183.653 161.791V30.8007Z" fill="white"/>
<path d="M178.106 30.8032V29.3482L178.82 28.0794L188.348 11.1658H152.294L146.344 16.9543L142.556 20.6371L138.691 17.0352L132.014 10.8105H67.9843L61.3092 17.0352L57.4445 20.6371L53.6566 16.9543L47.7061 11.1658H11.6523L21.1791 28.0794L21.8952 29.3482V161.793C21.8947 163.805 22.2906 165.798 23.0603 167.658C23.83 169.517 24.9584 171.207 26.3811 172.63C27.8038 174.053 29.4929 175.183 31.352 175.953C33.2111 176.724 35.2037 177.121 37.2161 177.121H78.6179C86.5461 177.121 94.5867 179.663 100 187.053C105.411 179.875 113.454 177.121 121.381 177.121H162.781C166.845 177.116 170.74 175.499 173.613 172.626C176.486 169.752 178.102 165.856 178.106 161.793V30.8032Z" fill="#0033A0"/>
<path d="M173.842 59.9336H26.1455V63.4928H173.842V59.9336Z" fill="white"/>
<path d="M75.3751 68.832H70.2529L173.848 143.007V139.341L75.3751 68.832Z" fill="white"/>
<path d="M173.848 132.066V68.832H85.5347L173.848 132.066Z" fill="#C8102E"/>
<path d="M26.1836 86.1775L145.729 172.753H150.812L26.1836 82.4961V86.1775Z" fill="white"/>
<path d="M124.847 172.766C124.791 172.76 124.703 172.758 124.639 172.752H124.501L124.847 172.766Z" fill="white"/>
<path d="M144.792 28.793H135.05V55.4848H139.321V42.3804H141.925L146.527 55.4848H150.797L146.107 42.2028C147.246 41.9511 148.266 41.3184 148.997 40.4091C149.729 39.4999 150.129 38.3685 150.131 37.2015V34.0657C150.049 32.6827 149.459 31.3789 148.473 30.4053C147.487 29.4318 146.176 28.8574 144.792 28.793ZM143.978 38.3225H139.321V33.064H143.91C143.91 33.064 145.86 33.0242 145.86 34.7989V36.5877C145.858 37.0509 145.672 37.4944 145.344 37.8207C145.015 38.147 144.57 38.3294 144.107 38.3277C144.064 38.3276 144.021 38.3258 143.978 38.3225Z" fill="white"/>
<path d="M150.92 133.391L146.501 130.163L145.424 129.376L143.054 127.643L127.308 149.197L130.755 151.717L137.794 142.081L139.898 143.62L136.575 155.968L140.023 158.488L143.382 145.942C144.45 146.41 145.646 146.501 146.773 146.198C147.9 145.896 148.89 145.218 149.58 144.278L152.122 140.798C152.871 139.633 153.163 138.232 152.941 136.864C152.719 135.497 151.999 134.26 150.92 133.391ZM143.949 141.554L140.189 138.805L143.983 133.612L147.69 136.321C148.098 136.576 148.389 136.982 148.498 137.451C148.607 137.92 148.525 138.412 148.27 138.821L148.238 138.87L146.492 141.264C146.356 141.449 146.185 141.605 145.988 141.723C145.791 141.842 145.573 141.92 145.346 141.955C145.119 141.989 144.888 141.978 144.665 141.923C144.442 141.868 144.232 141.769 144.048 141.633C144.014 141.608 143.981 141.581 143.949 141.554Z" fill="white"/>
<path d="M122.972 55.4863H124.572C124.572 55.4863 130.444 54.6835 130.511 49.6125V34.8656C130.559 33.3209 129.998 31.8192 128.95 30.6835C127.902 29.5479 126.45 28.869 124.906 28.793H122.972C117.299 28.793 117.032 34.5332 117.032 34.5332V49.1465C117.032 55.0188 122.972 55.4863 122.972 55.4863ZM124.105 51.2152H123.572C122.962 51.2069 122.38 50.9566 121.954 50.5194C121.529 50.0821 121.294 49.4937 121.303 48.8836L121.303 48.8794V35.3999C121.309 34.7938 121.548 34.2133 121.971 33.7786C122.393 33.3438 122.966 33.088 123.572 33.064H124.173C124.745 33.1574 125.266 33.4494 125.644 33.8889C126.022 34.3283 126.233 34.887 126.24 35.4666V48.8794C126.231 49.4625 126.009 50.0222 125.616 50.4526C125.222 50.883 124.685 51.1543 124.105 51.2152Z" fill="white"/>
<path d="M59.911 33.064V28.793H53.5045H51.1018H49.2349V55.4848H51.1018H53.5045H59.911V51.2152H53.5045V44.1409H59.911V39.8712H53.5045V33.064H59.911Z" fill="white"/>
<path d="M135.414 127.444L137.963 124.018L132.823 120.194L130.896 118.758L129.399 117.645L113.464 139.058L114.961 140.173L116.89 141.607L122.029 145.433L124.579 142.006L119.44 138.183L123.663 132.506L128.8 136.33L131.351 132.904L126.212 129.079L130.275 123.619L135.414 127.444Z" fill="white"/>
<path d="M39.225 28.793V45.5532L32.0171 28.793H27.7461V55.4848H32.0171V38.726L39.225 55.4848H43.4961V28.793H39.225Z" fill="white"/>
<path d="M110.226 28.793L106.624 38.5982L103.018 28.793H98.748L104.485 44.408V55.4848H108.758V44.408L114.497 28.793H110.226Z" fill="white"/>
<path d="M172.551 55.4848L164.489 37.2484L169.748 28.793H165.478L159.872 37.7784V28.793H155.602V55.4848H159.872V44.6751L161.973 41.2949L168.28 55.4848H172.551Z" fill="white"/>
<path d="M83.5342 28.793L80.8389 45.1269L78.0626 28.793H73.7915L71.0138 45.1269L68.3199 28.793H64.0488L68.4534 55.4848H69.2534H72.7245H73.5244L75.927 41.3546L78.3297 55.4848H79.1296H82.5993H83.4006L87.8052 28.793H83.5342Z" fill="white"/>
<path d="M104.261 99.7072L94.5085 113.339L98.4001 95.5143L94.9262 93.0293L79.395 114.738L82.869 117.223L92.6216 103.59L88.7313 121.418L92.2039 123.901L107.735 102.194L104.261 99.7072Z" fill="white"/>
<path d="M119.868 110.991L117.859 109.51L117.697 109.394C113.089 106.087 109.526 110.593 109.526 110.593L101.004 122.465C97.5779 127.235 102.132 131.079 102.132 131.079L104.031 132.478C104.957 132.929 105.952 133.223 106.974 133.348L106.889 134.426L108.757 135.76L111.65 131.894C111.88 131.672 112.091 131.43 112.281 131.172L115.076 127.281L117.019 124.571L113.541 122.095L110.067 119.628L108.125 122.342L111.596 124.804L109.24 128.085C108.893 128.553 108.386 128.878 107.815 128.998C107.244 129.119 106.65 129.026 106.143 128.737L105.108 127.96C104.865 127.78 104.66 127.554 104.504 127.295C104.348 127.035 104.245 126.748 104.201 126.449C104.156 126.15 104.171 125.845 104.244 125.551C104.317 125.258 104.447 124.982 104.627 124.739L104.628 124.737L112.49 113.788C112.848 113.3 113.381 112.968 113.977 112.861C114.574 112.755 115.188 112.882 115.694 113.216L116.782 114.033C117.193 114.442 117.446 114.983 117.497 115.56C117.548 116.138 117.394 116.715 117.062 117.19L115.327 119.605L118.785 122.113L120.883 119.192C121.821 117.964 122.241 116.418 122.051 114.884C121.861 113.35 121.078 111.953 119.868 110.991Z" fill="white"/>
<path d="M86.1286 86.5762L82.7868 84.0059L61.146 101.396L64.5901 103.922L69.205 100.411L74.9764 104.689L73.0683 110.122L76.5109 112.649L86.1286 86.5762ZM80.3969 91.0504L76.3262 101.06L72.122 98.0579L80.3969 91.0504Z" fill="white"/>
<path d="M165.585 142.288C168.535 144.758 169.55 147.319 167.933 150.511C167.31 151.617 166.61 152.678 165.838 153.686L162.475 151.178C162.475 151.178 165.851 147.987 163.17 145.638C162.685 145.177 162.086 144.852 161.434 144.697C160.782 144.543 160.101 144.563 159.46 144.758C157.217 146.039 157.204 148.347 157.95 150.911C159.433 154.887 161.527 160.425 158.298 164.27C156.482 166.083 153.413 167.271 151.278 166.205C148.437 165.195 146.083 163.15 144.685 160.479C143.203 156.555 147.647 152.11 147.647 152.11L150.532 154.139C150.532 154.139 147.421 157.863 148.648 159.492C149.089 160.746 152.372 163.095 154.509 162.026C159.498 158.25 149.463 149.868 154.374 143.571C155.54 142.103 157.151 141.053 158.966 140.58C161.635 139.941 163.556 141.061 165.585 142.288Z" fill="white"/>
<path d="M99.9997 181.027C92.4636 171.971 78.8392 172.683 75.3922 172.752H39.5516C24.6044 172.752 26.1843 158.788 26.1843 158.788V93.4766L135.646 172.752H121.591C118.077 172.751 108.125 172.188 99.9997 181.027Z" fill="white"/>
<path d="M69.962 74.9914L65.5432 71.7633L64.4662 70.9776L62.0963 69.2441L46.3491 90.7983L49.7975 93.3174L56.8363 83.6827L58.9406 85.22L55.6172 97.5685L59.0656 100.088L62.4231 87.5431C63.4914 88.0117 64.6875 88.1023 65.8141 87.7998C66.9408 87.4973 67.9308 86.8199 68.6208 85.8793L71.1641 82.3983C71.9137 81.2331 72.2056 79.8318 71.9837 78.4643C71.7617 77.0968 71.0416 75.8597 69.962 74.9914ZM62.9914 83.1541L59.2304 80.4062L63.0255 75.2131L66.731 77.9212C66.9334 78.0471 67.1089 78.2116 67.2476 78.4053C67.3864 78.5991 67.4856 78.8183 67.5396 79.0503C67.5937 79.2824 67.6015 79.5229 67.5626 79.758C67.5237 79.9931 67.4388 80.2182 67.3129 80.4205L67.2809 80.4702L65.5347 82.8643C65.3984 83.049 65.2271 83.205 65.0305 83.3235C64.8339 83.442 64.6159 83.5206 64.389 83.5548C64.162 83.5891 63.9305 83.5783 63.7077 83.523C63.4849 83.4678 63.2752 83.3693 63.0905 83.233C63.0565 83.2079 63.0235 83.1816 62.9914 83.1541Z" fill="white"/>
<path d="M116.049 117.372C115.636 117.919 114.515 117.769 113.535 117.035C112.557 116.301 112.099 115.265 112.511 114.719L113.683 113.149C114.093 112.605 115.214 112.754 116.193 113.489C117.172 114.218 117.634 115.257 117.222 115.805L116.049 117.372Z" fill="#0033A0"/>
<path d="M108.016 128.682C107.604 129.229 106.485 129.08 105.506 128.349C104.531 127.614 104.072 126.58 104.484 126.033L105.658 124.464C106.067 123.92 107.188 124.069 108.164 124.802C109.142 125.53 109.602 126.567 109.19 127.115L108.016 128.682Z" fill="#0033A0"/>
<path d="M106.038 132.848C105.704 133.29 104.297 132.792 102.883 131.734C101.474 130.674 100.599 129.461 100.934 129.022L101.877 127.756C102.21 127.316 103.619 127.813 105.03 128.874C106.44 129.927 107.321 131.142 106.984 131.584L106.038 132.848Z" fill="white"/>
<path d="M120.177 114.337C119.843 114.779 118.26 114.15 116.629 112.929C114.999 111.703 113.949 110.359 114.282 109.917L115.227 108.651C115.558 108.213 117.146 108.841 118.774 110.066C120.403 111.284 121.46 112.632 121.123 113.073L120.177 114.337Z" fill="white"/>
</svg>
