<svg width="200" height="200" viewBox="0 0 200 200" fill="none" xmlns="http://www.w3.org/2000/svg">
<path d="M197.584 27.6844C197.584 0.000935959 166.419 0.000936227 162.223 0.000936227L154.671 0C154.671 0 165.333 10.7187 165.333 14.59C165.333 15.0104 165.165 15.4134 164.868 15.7103C164.57 16.0073 164.167 16.1739 163.747 16.1734H136.591C136.171 16.1737 135.768 16.0071 135.47 15.7101C135.173 15.4132 135.005 15.0103 135.004 14.59C135.004 10.7191 145.667 0 145.667 0C135.318 0 120.479 2.31312 110.17 9.63968C107.259 9.34731 104.338 9.20096 101.408 9.20063C87.7025 9.20822 74.1934 12.4628 61.9878 18.6977C49.7821 24.9326 39.2272 33.9705 31.1878 45.0709C23.1484 56.1713 17.8531 69.0185 15.7358 82.5599C13.6186 96.1012 14.7395 109.952 19.0069 122.976C12.5953 130.812 2 146.856 2 167.307C2 184.982 10.7341 200 10.7341 200C10.7341 200 26.2859 177.23 61.1391 177.23C61.9485 177.237 62.7355 176.965 63.3671 176.458C63.9986 175.952 64.4358 175.243 64.6047 174.452C81.2287 182.237 99.8942 184.548 117.915 181.05C135.935 177.553 152.382 168.428 164.887 154.99C177.392 141.551 185.311 124.491 187.503 106.266C189.696 88.0406 186.05 69.5894 177.089 53.5681C186.69 50.6181 197.584 42.98 197.584 27.6844Z" fill="white"/>
<path d="M194.01 27.6838C194.01 10.4925 178.233 2.97532 162.355 3.5697C162.355 3.5697 168.911 9.89095 168.911 14.5859C168.911 17.0797 167.05 19.7431 161.836 19.7431H138.341C133.059 19.7431 129.906 17.9275 129.906 14.8838C129.906 9.89564 137.751 4.07095 137.751 4.07095C137.751 4.07095 121.848 5.02845 111.203 13.3675C107.952 12.9791 104.682 12.7809 101.408 12.7738C86.6534 12.7766 72.1652 16.705 59.4301 24.1559C46.695 31.6068 36.1716 42.312 28.9398 55.1728C21.708 68.0336 18.0282 82.5869 18.2781 97.3395C18.5279 112.092 22.6984 126.512 30.3615 139.121C29.0651 139.852 27.5996 140.231 26.1112 140.219C20.2893 140.219 20.2549 127.313 20.2549 127.313C20.2549 127.313 5.57178 144.433 5.57178 167.307C5.57178 181.39 11.5218 193.505 11.5218 193.505C11.5218 193.505 27.998 173.654 61.1386 173.654C61.1386 173.654 45.4212 167.34 45.4212 159.716C45.5092 159.082 45.7131 158.47 46.0227 157.91C60.9989 171.299 80.3168 178.811 100.404 179.059C120.491 179.306 139.987 172.271 155.288 159.254C170.589 146.238 180.659 128.121 183.636 108.255C186.613 88.3881 182.294 68.1156 171.48 51.1866C179.499 49.9069 194.01 44.4263 194.01 27.6838ZM27.0106 95.9181C27.0105 76.1866 34.8486 57.2631 48.8008 43.3105C62.7529 29.358 81.6762 21.5192 101.408 21.5188C102.373 21.5188 103.326 21.5556 104.281 21.591C102.62 24.931 101.778 28.6188 101.827 32.3488C101.827 51.4613 123.012 51.6472 123.012 51.6472L112.676 78.955L94.7168 56.21C88.3396 48.1366 81.7337 46.4394 77.3143 46.4394C68.2934 46.4394 61.3018 52.8278 56.5365 65.4244L33.5012 126.298C29.2155 116.744 27.0036 106.39 27.0112 95.9179L27.0106 95.9181ZM36.3006 131.918C42.8608 129.753 49.7151 128.61 56.6231 128.529C63.3378 128.602 70.0208 129.464 76.534 131.099L85.6833 106.931L94.3565 122.673L86.4924 130.898C81.7121 135.902 69.789 132.774 56.6231 132.774C47.484 132.774 41.9284 133.807 38.1746 135.107C37.5232 134.06 36.8985 132.997 36.3006 131.918ZM175.807 95.9181C175.811 109.9 171.874 123.6 164.447 135.447C157.02 147.293 146.404 156.806 133.817 162.894C121.23 168.982 107.181 171.399 93.2836 169.867C79.3857 168.336 66.201 162.917 55.2421 154.234C67.4968 154.767 74.1965 162.688 91.4565 162.688C116.807 162.688 131.657 147.323 137.102 132.936L165.44 58.0463C172.243 69.5066 175.824 82.5911 175.807 95.9181Z" fill="black"/>
<path d="M169.42 7.24414C171.333 9.21627 172.427 11.8402 172.481 14.587C172.481 19.0523 169.004 23.3188 161.836 23.3188H138.342C129.212 23.3188 126.335 18.6548 126.335 14.8848C126.275 12.7519 127.041 10.6781 128.473 9.0963C128.473 9.0963 105.398 13.5932 105.398 32.3497C105.398 48.1257 123.038 48.0779 123.038 48.0779H128.183L113.784 86.1238L91.9142 58.4238C90.5557 56.7051 85.2379 50.0126 77.3151 50.0126C66.2998 50.0126 61.511 62.371 59.8773 66.6873L36.6382 128.096C43.0928 126.002 49.8381 124.943 56.6239 124.958C62.5708 124.982 68.4986 125.633 74.3092 126.899L85.0798 98.4379L98.7476 123.247L89.0726 133.369C82.7082 140.027 69.4195 136.345 56.6239 136.345C32.7345 136.345 35.0414 143.789 26.1114 143.789C19.7857 143.789 18.1457 136.109 18.1457 136.109C18.1457 136.109 9.14355 151.031 9.14355 167.308C9.25241 174.091 10.5069 180.807 12.8539 187.172C12.8539 187.172 31.4704 171.325 50.2242 171.325C50.2242 171.325 41.8514 167.308 41.8514 159.717C41.8514 157.559 44.7164 150.638 53.9451 150.638C68.2373 150.638 74.1901 159.119 91.4573 159.119C115.62 159.119 129.042 144.149 133.765 131.675L165.396 48.0782C165.396 48.0782 190.441 48.1257 190.441 27.6848C190.441 8.93102 169.42 7.24414 169.42 7.24414Z" fill="#CC0000"/>
</svg>
