<svg width="200" height="200" viewBox="0 0 200 200" fill="none" xmlns="http://www.w3.org/2000/svg">
<path d="M100 4C44.7694 4 0 47.1932 0 100.475C0 153.755 44.7696 196.947 100.001 196.947C155.229 196.947 200 153.755 200 100.475C200 47.1929 155.229 4 100 4Z" fill="white"/>
<path d="M100.001 11.1094C48.7015 11.1094 7.11816 51.1205 7.11816 100.477C7.11816 149.83 48.7015 189.841 100.001 189.841C151.296 189.841 192.882 149.83 192.882 100.477C192.882 51.1205 151.296 11.1094 100.001 11.1094Z" fill="#F26924"/>
<path d="M32.1832 121.707V115.873L26.4189 110.811V122.071C28.1775 121.601 30.3439 122.201 32.1832 121.707Z" fill="#00468B"/>
<path d="M186.974 95.1681C178.794 98.0373 168.61 101.384 160.716 104.096C158.058 103.663 156.24 105.151 154.354 106.399C151.541 107.615 147.997 107.127 145.223 108.308C142.636 110.446 138.806 111.349 135.631 109.994C134.778 109.022 133.655 107.845 132.312 108.153C130.202 108.362 129.761 112.188 127.149 110.194C125.537 111.043 124.127 112.223 122.346 112.653L119.663 113.317L118.654 115.469L117.734 117.423L117.118 118.736L116.2 120.691L115.584 122.006L114.662 123.961L114.044 125.275L113.127 127.231L105.74 142.958C105.512 143.444 105.177 143.873 104.76 144.211C104.343 144.55 103.855 144.79 103.333 144.914L91.4246 147.752C91.4847 147.804 91.5362 147.864 91.5772 147.932L99.4566 164.293V149.355C99.4563 149.25 99.4783 149.146 99.5212 149.05C99.5642 148.954 99.627 148.868 99.7057 148.798C99.7843 148.728 99.8769 148.676 99.9773 148.644C100.078 148.613 100.184 148.603 100.288 148.616L104.564 149.12C104.745 149.141 104.912 149.227 105.034 149.363C105.155 149.5 105.221 149.676 105.221 149.858V176.875C105.221 177.065 105.148 177.247 105.018 177.385C104.887 177.523 104.709 177.605 104.52 177.616L99.753 177.9C99.609 177.909 99.4656 177.875 99.3404 177.803C99.2152 177.731 99.1137 177.625 99.0481 177.496L89.7249 159.318V176.634C89.7246 176.74 89.7018 176.845 89.6578 176.942C89.6138 177.038 89.5498 177.124 89.4699 177.194C89.39 177.264 89.2961 177.316 89.1945 177.347C89.0929 177.378 88.986 177.387 88.8807 177.373L84.6049 176.787C84.4262 176.762 84.2626 176.674 84.1443 176.538C84.0261 176.401 83.9612 176.227 83.9618 176.047V149.53L78.9693 150.72L82.9247 175.779C82.94 175.879 82.9294 175.982 82.8937 176.077C82.8581 176.173 82.7988 176.257 82.7213 176.323C82.6438 176.389 82.5507 176.434 82.451 176.453C82.3512 176.473 82.2481 176.467 82.1514 176.435L77.3591 174.876C77.2545 174.842 77.1614 174.78 77.0902 174.696C77.0191 174.613 76.9727 174.511 76.9563 174.402L76.0522 168.724L69.7814 166.68L68.5993 171.356C68.5793 171.435 68.5433 171.509 68.4936 171.574C68.4438 171.638 68.3813 171.692 68.31 171.731C68.2387 171.771 68.1601 171.795 68.079 171.803C67.998 171.81 67.9162 171.802 67.8387 171.776L63.2538 170.288C63.1097 170.241 62.9888 170.142 62.9157 170.009C62.8427 169.877 62.8231 169.721 62.861 169.575L66.9605 153.582L62.9887 154.531C62.8083 154.573 62.621 154.578 62.4386 154.544C62.2563 154.511 62.0829 154.44 61.9292 154.336C61.7756 154.232 61.645 154.098 61.5458 153.941C61.4466 153.785 61.3808 153.609 61.3526 153.426L58.9121 137.411C58.8588 137.06 58.9473 136.702 59.158 136.416C59.3687 136.13 59.6844 135.939 60.0357 135.886L60.0535 135.883L100.085 130.372C100.664 130.293 101.215 130.073 101.689 129.731C102.163 129.389 102.546 128.935 102.803 128.41L105.341 123.259L106.295 121.321L106.936 120.02L107.888 118.081L108.53 116.782L109.483 114.844L109.739 114.326C107.877 114.208 105.143 115.615 103.751 115.927C101.637 116.568 98.4369 115.486 97.6661 118.276C96.9819 118.749 96.1888 119.041 95.3611 119.124C94.5334 119.207 93.6982 119.078 92.9337 118.75C91.2111 116.107 88.2035 118.31 86.2117 118.343C83.0404 118.826 80.5204 116.181 77.5623 117.692C73.7374 119.996 69.1715 115.686 65.9523 119.324C63.9008 119.48 61.9758 118.508 59.7705 118.662C56.5386 118.652 53.7491 119.668 50.7376 120.208C47.3351 122.447 42.6585 121.366 38.7387 121.077C36.7658 121.873 34.3232 121.652 32.183 121.707V143.206C32.183 144.476 31.527 144.831 30.5041 143.358L26.4188 137.488V122.071C25.0838 121.378 23.9614 123.086 22.7253 123.615C21.489 124.2 20.4034 123.185 19.8809 122.17C19.8623 121.89 19.7668 121.62 19.6048 121.391C19.4429 121.161 19.2208 120.98 18.9629 120.869C18.0167 120.889 17.0853 121.108 16.2294 121.512C15.8204 120.011 15.4565 118.498 15.1377 116.975C15.9593 116.458 16.962 115.763 16.6738 114.836C16.1287 113.712 14.6421 113.819 14.2604 112.465C14.422 111.119 14.8167 109.353 16.4178 109.034C17.605 107.911 17.4525 105.65 17.0856 104.096C16.0129 102.695 14.5622 101.557 15.1498 99.5746C15.1498 99.0425 14.6065 98.3922 15.1546 97.9059C16.4516 97.3775 17.7386 98.6018 18.6548 99.473C19.514 99.6494 19.7365 98.6666 20.0983 98.183C20.1597 98.0144 20.1846 97.8347 20.1712 97.6558C20.1578 97.4768 20.1066 97.3028 20.0208 97.1452C19.9349 96.9877 19.8166 96.8501 19.6736 96.7418C19.5305 96.6335 19.3661 96.5569 19.1911 96.517C19.0604 96.5536 18.9232 96.5607 18.7894 96.5379C18.6556 96.5151 18.5285 96.4629 18.4173 96.3852C18.306 96.3074 18.2134 96.2059 18.146 96.0881C18.0787 95.9703 18.0383 95.839 18.0277 95.7036C18.2442 94.7974 18.5453 93.9361 19.5809 93.6831C20.1133 93.539 20.672 93.5218 21.2122 93.6329C21.7524 93.744 22.259 93.9803 22.6913 94.3229C23.7609 95.293 23.6494 96.8502 24.7311 97.6627C26.1218 96.3747 25.0627 93.7368 26.6829 92.5047C28.9937 91.4878 31.2397 89.7681 34.0441 90.2068C34.8008 91.6654 34.2934 94.3582 36.7101 94.4667C37.3718 93.8812 37.4246 92.369 38.663 92.9662C39.7475 93.4079 39.6778 95.2819 40.9666 95.0169C42.2687 92.6014 39.7984 90.6054 40.1153 88.3005C41.8488 87.1652 44.1469 88.1441 45.3782 89.4908C45.9296 90.6165 43.7662 91.2565 45.2616 92.1845C47.418 91.3771 48.3849 93.8577 50.286 93.3738C51.5091 91.1239 54.1389 90.8556 56.3382 91.454C59.5721 91.4109 61.4473 96.2551 64.8269 94.335C66.6702 93.0968 70.2502 94.8185 70.8104 91.8716C70.7318 91.265 70.8676 90.6501 71.1944 90.1331C71.5212 89.6162 72.0184 89.2296 72.6 89.0404C74.4173 88.486 76.1279 92.2572 77.6452 89.4151C80.4746 90.5517 83.8102 90.505 86.9226 91.0034C91.7107 93.5406 98.008 93.1837 103.412 93.351C108.111 95.8472 114.79 92.2883 120.168 93.1429L122.683 88.0305L101.613 42.6487V84.8434C101.613 85.1985 101.472 85.539 101.221 85.7902C100.97 86.0414 100.629 86.1827 100.274 86.1832H79.7857C79.5544 86.1833 79.327 86.1235 79.1257 86.0096C78.9244 85.8957 78.7561 85.7315 78.6371 85.5332L65.1857 63.0986V84.8434C65.1856 85.1985 65.0446 85.5391 64.7936 85.7903C64.5426 86.0415 64.2022 86.1828 63.8471 86.1832H45.5826C45.4067 86.1833 45.2325 86.1487 45.07 86.0814C44.9074 86.0142 44.7597 85.9156 44.6353 85.7913C44.5108 85.667 44.4121 85.5194 44.3447 85.3569C44.2773 85.1944 44.2426 85.0202 44.2425 84.8443V36.1895C25.051 51.533 12.832 74.6314 12.832 100.476C12.832 146.668 51.8549 184.113 99.9999 184.113C148.141 184.113 187.166 146.667 187.166 100.476C187.166 98.6909 187.089 96.9245 186.974 95.1681ZM49.0569 140.043C49.0569 141.05 48.4286 141.886 47.1446 140.728L44.1111 138.001C43.8445 137.791 43.6313 137.521 43.4892 137.213C43.3471 136.905 43.28 136.567 43.2935 136.228V135.062C43.2989 134.75 43.2401 134.441 43.1207 134.154C43.0014 133.866 42.824 133.606 42.5998 133.39L40.9839 131.937C39.9908 131.042 39.7686 132.282 39.7686 132.282V133.138C39.7859 133.756 39.9831 134.354 40.336 134.861L46.6791 143.113C48.1457 145.012 48.9775 147.324 49.0569 149.723V154.673C49.0569 158.984 47.2474 160.801 45.1539 158.934L36.5346 151.171C35.0826 149.841 34.1803 148.017 34.0052 146.056V141.564C34.0052 140.097 34.291 139.639 34.8626 140.189L38.6272 143.629C39.227 144.125 39.6315 144.817 39.7686 145.582V146.575C39.7686 147.373 39.7098 148.295 40.292 148.742L41.9209 150.133C42.5208 150.673 43.2938 150.753 43.2938 149.877V148.787C43.3146 148.146 43.1072 147.518 42.7086 147.016L35.1746 137.177C34.4019 136.278 33.9859 135.126 34.0055 133.94V126.196C34.0055 124.334 36.2503 121.789 39.4725 124.691L47.7958 132.183C48.2196 132.599 48.551 133.099 48.7683 133.652C48.9856 134.204 49.0839 134.796 49.0569 135.39V140.043ZM62.224 168.652C62.2235 168.783 62.1884 168.912 62.1223 169.025C62.0561 169.139 61.9612 169.233 61.8471 169.298C61.733 169.362 61.6038 169.396 61.4725 169.395C61.3412 169.394 61.2125 169.359 61.0994 169.292L51.8959 163.834C51.7849 163.767 51.693 163.673 51.6292 163.561C51.5654 163.448 51.5319 163.321 51.532 163.191V136.27C51.5322 136.139 51.5671 136.01 51.6331 135.896C51.6992 135.783 51.7941 135.689 51.9082 135.624C52.0223 135.559 52.1515 135.526 52.2828 135.527C52.4141 135.528 52.5427 135.564 52.6556 135.631L56.9294 138.165C57.0406 138.231 57.1327 138.324 57.1967 138.436C57.2607 138.548 57.2943 138.675 57.2942 138.804V161.563L61.8601 164.267C61.9711 164.334 62.063 164.428 62.1268 164.541C62.1906 164.654 62.224 164.781 62.2239 164.91L62.224 168.652ZM126.803 169.848C126.803 170.587 126.803 174.056 121.039 175.084L109.359 177.171C109.252 177.19 109.142 177.185 109.037 177.157C108.932 177.129 108.834 177.078 108.751 177.009C108.667 176.939 108.6 176.852 108.554 176.753C108.508 176.655 108.483 176.547 108.483 176.439V149.56C108.482 149.387 108.542 149.22 108.652 149.086C108.761 148.953 108.913 148.861 109.083 148.828L121.039 146.446C126.803 145.3 126.803 148.752 126.803 148.752V169.848ZM117.033 130.828V124.032C117.033 121.746 122.519 119.892 129.286 119.892C136.053 119.892 141.54 121.746 141.54 124.032V130.828C141.54 133.115 136.053 134.966 129.286 134.966C122.519 134.966 117.033 133.115 117.033 130.828ZM141.902 142.875C141.902 142.986 141.871 143.095 141.811 143.19C141.752 143.284 141.668 143.36 141.568 143.409L136.028 146.121C135.927 146.169 135.843 146.245 135.785 146.34C135.726 146.434 135.695 146.544 135.697 146.655V152.129C135.696 152.23 135.722 152.329 135.771 152.417C135.819 152.506 135.89 152.58 135.975 152.633C136.061 152.687 136.159 152.717 136.259 152.722C136.36 152.727 136.46 152.707 136.551 152.662L141.043 150.465C141.133 150.42 141.234 150.399 141.335 150.404C141.436 150.409 141.533 150.439 141.619 150.493C141.706 150.546 141.777 150.621 141.827 150.71C141.876 150.799 141.902 150.899 141.903 151V154.846C141.903 154.961 141.87 155.073 141.807 155.169C141.744 155.266 141.655 155.342 141.549 155.388L136.047 157.867C135.942 157.914 135.853 157.99 135.791 158.087C135.729 158.183 135.696 158.296 135.697 158.41V163.532C135.697 163.632 135.722 163.729 135.769 163.816C135.817 163.903 135.885 163.977 135.968 164.031C136.051 164.086 136.147 164.118 136.246 164.126C136.345 164.133 136.445 164.115 136.535 164.073L141.062 162.034C141.153 161.995 141.252 161.979 141.351 161.987C141.45 161.995 141.546 162.028 141.629 162.082C141.712 162.136 141.781 162.21 141.828 162.297C141.876 162.384 141.901 162.481 141.902 162.581V166.404C141.902 166.519 141.869 166.631 141.806 166.727C141.744 166.824 141.654 166.9 141.549 166.946L130.773 171.798C130.682 171.839 130.582 171.857 130.483 171.85C130.384 171.842 130.288 171.81 130.204 171.756C130.12 171.701 130.052 171.627 130.004 171.539C129.957 171.451 129.933 171.353 129.933 171.254V144.181C129.933 144.07 129.964 143.961 130.023 143.867C130.082 143.773 130.166 143.697 130.265 143.648L141.043 138.372C141.134 138.328 141.235 138.308 141.336 138.313C141.437 138.319 141.535 138.35 141.62 138.403C141.706 138.456 141.777 138.531 141.826 138.619C141.876 138.707 141.902 138.807 141.902 138.908L141.902 142.875ZM159.491 154.607L156.141 156.88C156.016 156.966 155.862 157 155.712 156.976C155.561 156.951 155.426 156.87 155.335 156.749L150.318 150.187L149.373 150.843V161.163C149.373 161.26 149.348 161.356 149.303 161.442C149.257 161.528 149.191 161.601 149.111 161.656L144.537 164.759C144.448 164.82 144.343 164.856 144.235 164.862C144.127 164.868 144.019 164.845 143.923 164.794C143.828 164.742 143.748 164.667 143.693 164.574C143.637 164.481 143.607 164.375 143.607 164.267V137.499C143.607 137.402 143.63 137.307 143.675 137.221C143.72 137.136 143.785 137.062 143.865 137.008L152.851 130.807C155.598 128.914 158.001 129.264 158.001 133.023V140.118C157.989 141.475 157.681 142.812 157.099 144.038C156.517 145.263 155.674 146.346 154.63 147.212L159.626 153.754C159.723 153.878 159.766 154.035 159.746 154.191C159.727 154.347 159.646 154.488 159.522 154.585C159.512 154.593 159.501 154.6 159.491 154.607ZM171.844 120.743C171.907 121.506 171.681 122.264 171.21 122.867L167.851 126.34C167.464 126.74 167.224 126.483 167.224 126.053V123.943C167.224 122.902 166.818 122.9 166.252 123.477L165.714 124.03C165.153 124.707 164.872 125.572 164.93 126.45V127.917C164.93 128.834 165.189 129.498 166.149 129.666L168.827 130.133C170.095 130.354 171.844 131.198 171.844 133.25C172.008 135.992 171.211 138.706 169.59 140.924L164.102 148.171C161.825 151.167 159.594 150.326 159.594 146.006V143.599C159.567 143.297 159.611 142.993 159.721 142.71C159.831 142.428 160.004 142.174 160.228 141.969L163.888 138.202C164.515 137.569 164.93 137.568 164.93 138.562V139.752C164.93 141.149 166.018 140.033 166.49 139.565C166.762 139.341 166.971 139.052 167.1 138.724C167.228 138.397 167.271 138.042 167.224 137.694V136.997C167.224 136.259 166.651 135.975 165.626 135.746L162.453 135.033C159.98 134.514 159.594 132.804 159.594 130.894V128.169C159.594 126.122 159.929 124.347 161.417 122.673L167.224 116.268C169.342 113.924 171.844 113.576 171.844 117.224L171.844 120.743Z" fill="#00468B"/>
<path d="M75.1366 162.966L73.4348 152.252L71.0561 161.637L75.1366 162.966ZM151.505 137.507L149.629 138.801C149.55 138.855 149.485 138.929 149.441 139.014C149.396 139.1 149.373 139.195 149.374 139.291V144.048C149.373 144.156 149.403 144.263 149.458 144.355C149.514 144.448 149.593 144.524 149.689 144.575C149.785 144.625 149.893 144.648 150.001 144.641C150.11 144.635 150.214 144.6 150.304 144.539L151.598 143.643C151.981 143.329 152.291 142.937 152.508 142.492C152.725 142.047 152.842 141.561 152.852 141.066V138.293C152.852 137.494 152.255 136.988 151.505 137.507ZM118.533 152.43L114.25 153.284V171.365L118.797 170.552C121.04 170.15 121.04 167.614 121.04 167.614V154.262C121.04 154.262 121.039 151.93 118.533 152.43ZM81.509 24.1176C81.509 23.7618 81.6503 23.4206 81.9019 23.169C82.1535 22.9174 82.4947 22.776 82.8505 22.776H115.019C115.275 22.7761 115.525 22.8493 115.74 22.987C115.956 23.1247 116.127 23.3212 116.234 23.5533L134.769 63.4808L150.211 32.1249C138.157 24.0428 124.331 18.9862 109.907 17.3839C95.4827 15.7816 80.8847 17.6808 67.3506 22.9204L81.509 50.2667L81.509 24.1176ZM142.706 82.7619C146.488 81.5747 149.96 79.5635 152.871 76.8731C155.729 75.8718 158.777 75.5287 161.787 75.8692L162.062 76.2551C161.855 77.3808 160.443 78.2418 159.471 78.8273C157.381 78.8689 154.85 78.5053 153.231 80.1053C150.971 82.4641 148.123 84.064 146.009 86.37C146.175 87.1186 147.03 87.7155 146.546 88.563C144.934 89.7014 142.354 88.8412 141.497 91.143C140.783 95.5576 135.254 92.1379 133.089 94.9929C132.034 96.3788 128.9 98.0617 126.532 98.6891L124.264 103.515C126.9 104.448 130.541 105.849 132.961 105.471C138.607 103.662 140.783 95.0689 147.384 95.5784C149.1 95.9055 150.869 95.8084 152.539 95.2955C154.208 94.7826 155.727 93.8695 156.963 92.6357C159.493 91.6755 159.69 95.7539 162.02 95.3252C162.222 93.835 162.352 91.9956 164.061 91.3643C164.871 91.0463 166.171 91.1551 166.276 92.2256C164.491 94.7508 168.364 95.5685 167.815 97.9402C168.127 98.955 169.307 98.955 170.124 98.7008C171.474 96.1208 174.271 95.8986 176.835 95.7539C178.845 92.8099 183.607 95.5576 184.71 91.4201L186.568 90.793C183.942 68.947 172.559 49.6683 155.855 36.2721L131.207 88.7384C134.952 87.4526 140.187 85.9573 142.706 82.7619Z" fill="#00468B"/>
<path d="M102.804 128.409C102.546 128.934 102.164 129.388 101.69 129.73C101.216 130.072 100.665 130.292 100.086 130.371L60.0543 135.882C59.8799 135.906 59.7121 135.964 59.5602 136.053C59.4084 136.142 59.2756 136.26 59.1694 136.401C59.0631 136.541 58.9856 136.701 58.9411 136.871C58.8967 137.041 58.8862 137.219 58.9103 137.393L58.9129 137.411L61.3533 153.425C61.3815 153.608 61.4473 153.784 61.5465 153.94C61.6458 154.097 61.7763 154.231 61.9299 154.335C62.0836 154.439 62.257 154.509 62.4394 154.543C62.6217 154.576 62.809 154.572 62.9895 154.53L66.9612 153.581L69.3278 144.341C69.3664 144.189 69.4637 144.058 69.5985 143.978C69.7332 143.898 69.8943 143.874 70.0465 143.912L77.8283 145.816C77.9419 145.843 78.045 145.903 78.1242 145.989C78.2034 146.075 78.2552 146.183 78.273 146.298L78.97 150.719L83.9625 149.529V147.523C83.962 147.418 83.984 147.314 84.027 147.218C84.0699 147.121 84.1329 147.036 84.2116 146.966C84.2904 146.896 84.3832 146.843 84.4837 146.812C84.5843 146.781 84.6904 146.772 84.7949 146.785L90.9948 147.518C91.1619 147.541 91.3149 147.624 91.4253 147.751L103.334 144.913C103.856 144.789 104.344 144.549 104.761 144.21C105.177 143.872 105.513 143.443 105.741 142.957L113.128 127.23L105.341 123.258L102.804 128.409ZM106.296 121.32L114.044 125.274L114.662 123.96L106.936 120.019L106.296 121.32ZM117.735 117.422L110.125 113.539L109.739 114.325L109.483 114.843L117.119 118.735L117.735 117.422ZM107.889 118.08L115.585 122.005L116.2 120.69L108.531 116.781L107.889 118.08ZM134.769 63.4805L116.234 23.5532C116.127 23.3211 115.956 23.1245 115.741 22.9866C115.525 22.8488 115.275 22.7755 115.019 22.7754H82.8508C82.6747 22.7754 82.5002 22.81 82.3374 22.8774C82.1746 22.9448 82.0267 23.0436 81.9021 23.1681C81.7775 23.2927 81.6787 23.4405 81.6112 23.6033C81.5437 23.766 81.509 23.9405 81.509 24.1167V50.2664L67.3506 22.9204C59.0189 26.1439 51.227 30.6182 44.2432 36.1891V84.8427C44.2431 85.0186 44.2777 85.1928 44.345 85.3553C44.4123 85.5179 44.5109 85.6656 44.6353 85.79C44.7596 85.9144 44.9073 86.0131 45.0698 86.0804C45.2323 86.1478 45.4064 86.1825 45.5823 86.1825H63.8477C64.2029 86.1822 64.5433 86.0409 64.7943 85.7897C65.0453 85.5385 65.1863 85.1979 65.1863 84.8427V63.0979L78.6377 85.5325C78.7567 85.7309 78.925 85.895 79.1263 86.0089C79.3276 86.1228 79.555 86.1826 79.7863 86.1825H100.275C100.63 86.1821 100.97 86.0407 101.221 85.7895C101.472 85.5383 101.613 85.1978 101.613 84.8427V42.648L122.684 88.0296L120.168 93.1415L111.078 111.601L118.655 115.468L119.664 113.316L124.264 103.515L126.532 98.6884L131.207 88.7381L155.855 36.2717C154.035 34.8132 152.15 33.4384 150.211 32.1246L134.769 63.4805Z" fill="white"/>
<path d="M129.287 128.171C136.054 128.171 141.54 126.318 141.54 124.032C141.54 121.746 136.054 119.893 129.287 119.893C122.519 119.893 117.033 121.746 117.033 124.032C117.033 126.318 122.519 128.171 129.287 128.171Z" fill="white"/>
</svg>
