<svg width="200" height="200" viewBox="0 0 200 200" fill="none" xmlns="http://www.w3.org/2000/svg">
<path d="M181.356 61.9322C169.573 50.0852 153.58 43.3838 136.871 43.2926C138.234 37.2645 140.115 31.3654 142.493 25.661L142.538 25.5443C142.781 24.9444 142.876 24.2944 142.813 23.65C142.751 23.0057 142.533 22.3861 142.178 21.8444C141.823 21.3027 141.343 20.855 140.777 20.5397C140.212 20.2244 139.578 20.0509 138.931 20.0341L138.814 20.032C138.066 20.0114 137.299 20 136.532 20C125.526 20.0294 114.611 21.988 104.282 25.787C90.1441 31.1061 78.8355 39.6849 70.6689 51.2878C65.8727 58.0905 62.3518 65.7077 60.2775 73.7686C59.9305 75.1453 59.6144 76.5386 59.3314 77.9278C58.8666 77.9361 58.4001 77.9406 57.9319 77.9412C51.2305 77.8435 44.5465 77.2299 37.9392 76.1059C31.1194 75.0214 19.7603 71.2226 17.3207 70.2993C15.6155 69.6548 13.839 68.9339 12.0295 68.1489L9.96791 67.239L0 62.8132L5.99047 74.4822C7.76992 78.4099 9.78095 82.2285 12.0129 85.9178C15.8007 91.9684 20.6252 97.3041 26.2651 101.68L31.7154 111.773C34.4277 117 37.7617 121.881 41.6451 126.308C43.3624 128.17 45.2096 129.908 47.1729 131.508C49.2456 133.203 51.4733 134.7 53.8264 135.977L56.6647 142.134C58.753 145.912 61.3516 149.384 64.3872 152.452C67.5381 155.394 71.1353 157.818 75.0451 159.634L75.3818 159.775C80.5722 161.997 86.1733 163.097 91.8184 163.004C93.4482 163.004 95.1617 162.915 96.9113 162.742L97.1334 162.72C98.4533 164.398 99.1412 165.652 99.2362 166.547C99.3064 167.192 99.0617 167.789 98.5856 168.865C98.1317 169.555 97.5858 170.18 96.963 170.722L96.9341 170.751C96.4951 171.185 95.9962 171.676 95.5098 172.222L95.3683 172.381C94.8364 172.972 94.4935 173.709 94.3834 174.497C94.2734 175.285 94.4013 176.088 94.7506 176.802C95.0818 177.477 95.5946 178.045 96.2313 178.443C96.8679 178.841 97.6032 179.054 98.3542 179.057C98.4368 179.057 98.5205 179.055 98.6072 179.051L98.818 179.036C104.35 178.499 109.451 175.814 113.027 171.559C114.119 170.219 115.069 168.77 115.863 167.235C129.472 171.856 144.244 171.736 157.777 166.895C171.309 162.055 182.806 152.777 190.396 140.573C197.987 128.369 201.225 113.955 199.583 99.6769C197.942 85.3987 191.518 72.0958 181.356 61.9322Z" fill="white"/>
<path d="M179.778 63.5119C174.088 57.791 167.32 53.2555 159.866 50.1678C152.412 47.0802 144.419 45.5018 136.35 45.5239C135.629 45.5239 134.887 45.5405 134.139 45.5663C135.528 38.4569 137.633 31.5065 140.424 24.8217L140.469 24.7061C140.577 24.4406 140.619 24.153 140.591 23.8679C140.563 23.5827 140.467 23.3085 140.31 23.0688C140.153 22.8291 139.941 22.631 139.69 22.4914C139.44 22.3519 139.16 22.275 138.874 22.2675L138.752 22.2654C138.022 22.2448 137.277 22.2334 136.532 22.2334C125.795 22.2621 115.146 24.1725 105.069 27.8779C91.3567 33.0369 80.3973 41.3461 72.495 52.5751C67.8549 59.1529 64.4484 66.5189 62.4414 74.3144C61.9415 76.3047 61.5283 78.2361 61.1844 80.1024L60.9706 80.1096C59.9801 80.153 58.9576 80.1757 57.933 80.1757C51.114 80.0773 44.3126 79.454 37.5892 78.3115C30.6021 77.2011 19.0188 73.328 16.5307 72.3871C14.5683 71.6444 12.5222 70.8068 10.44 69.8897L9.49497 69.4714L4.97217 67.4625L7.59147 72.8725C9.43303 76.9516 11.5383 80.9064 13.8938 84.7119C19.9927 94.2357 27.5541 101.089 37.0067 105.661C42.5912 108.362 49.064 109.552 52.4239 110.019C55.351 110.401 58.2963 110.629 61.2474 110.7H61.2495L61.6389 110.696C61.8145 111.378 62.0059 112.069 62.2131 112.77C62.0933 112.77 61.9725 112.771 61.8537 112.771C57.9692 112.768 54.0909 112.46 50.2549 111.848C46.8313 111.339 43.4506 110.574 40.1414 109.559C38.7567 109.155 37.3951 108.676 36.0627 108.123L31.1113 105.954L33.6779 110.711C36.3063 115.779 39.5366 120.511 43.2988 124.806C44.9433 126.587 46.7115 128.25 48.59 129.782C50.599 131.424 52.7606 132.869 55.0452 134.099C60.9477 137.419 67.6187 139.13 74.3903 139.06C74.4812 139.06 74.571 139.059 74.664 139.058L75.8518 139.046C76.3795 139.724 76.9166 140.397 77.463 141.061C76.8123 141.103 76.1988 141.121 75.5347 141.121C74.6185 141.121 73.5723 141.084 72.244 141.006C68.6745 140.795 62.7977 139.507 61.1823 138.737L56.5315 136.511L58.6922 141.195C60.671 144.729 63.1159 147.982 65.9613 150.865C68.9092 153.605 72.2659 155.868 75.9106 157.574L76.2566 157.718C81.172 159.819 86.4756 160.859 91.8205 160.769H91.8215C93.378 160.769 95.0161 160.684 96.6913 160.517L98.0289 160.383C98.3137 160.658 98.5814 160.95 98.8304 161.258C102.388 165.758 101.689 167.373 100.615 169.8C100.065 170.747 99.3617 171.594 98.5329 172.309L98.5071 172.335C98.0691 172.768 97.6168 173.214 97.1758 173.706L97.0342 173.863C96.8063 174.118 96.657 174.434 96.6044 174.772C96.5517 175.11 96.598 175.456 96.7377 175.768C96.8773 176.081 97.1044 176.346 97.3914 176.532C97.6784 176.718 98.0132 176.817 98.3553 176.817C98.3924 176.817 98.4296 176.817 98.4679 176.815L98.6786 176.801C103.592 176.319 108.121 173.93 111.293 170.146C112.701 168.42 113.849 166.497 114.699 164.438C127.838 169.383 142.275 169.678 155.606 165.275C168.936 160.871 180.356 152.035 187.964 140.236C195.573 128.437 198.91 114.388 197.42 100.428C195.931 86.4683 189.704 73.4398 179.778 63.5119Z" fill="black"/>
<path d="M195.994 106.939C195.983 116.585 193.635 126.085 189.152 134.626C184.668 143.166 178.182 150.494 170.249 155.981C162.316 161.468 153.171 164.951 143.598 166.133C134.025 167.315 124.308 166.16 115.278 162.766C115.565 161.915 115.797 161.093 115.995 160.314C116.317 158.952 116.538 157.567 116.656 156.172C117.719 155.827 118.757 155.413 119.766 154.932C121.735 154.046 123.025 153.434 123.231 153.336C133.706 156.296 144.875 155.625 154.921 151.431C164.966 147.237 173.296 139.767 178.556 130.236C183.815 120.706 185.695 109.676 183.889 98.9408C182.082 88.2061 176.696 78.3986 168.607 71.1143C168.602 70.4651 168.701 69.8194 168.9 69.2015C168.975 68.9577 169.05 68.6933 169.123 68.4331C169.198 68.1707 169.268 67.9208 169.339 67.6904C172.98 71.3312 175.099 70.6578 175.174 70.6227C175.311 70.5413 175.468 70.4988 175.628 70.4998C176.256 70.6153 176.823 70.9462 177.233 71.4355L177.245 71.4489L177.258 71.4345L177.245 71.4469L177.305 71.3839L177.367 71.3198V71.3188C177.262 71.199 176.399 70.1651 176.801 69.3543C176.84 69.2634 177.699 67.0976 173.851 63.0117L173.756 62.9105L173.702 63.0406C173.474 63.831 173.468 64.6688 173.683 65.4626L173.697 65.5628C173.752 66.0655 173.619 66.5709 173.323 66.9809C173.175 67.1348 172.995 67.2545 172.796 67.3314C172.597 67.4083 172.383 67.4406 172.17 67.426L171.755 67.3971C171.16 67.1998 170.539 67.0949 169.912 67.0862L169.542 67.1027C169.61 66.9282 169.688 66.7485 169.778 66.5553C169.947 66.2169 170.081 65.8618 170.177 65.4956L170.419 65.4574C171 65.5355 171.546 65.7838 171.987 66.1711L172.001 66.1835L172.012 66.167L172 66.1814L172.054 66.1081L172.105 66.0348C171.989 65.9346 170.985 65.0267 171.275 64.1684C171.3 64.0734 171.851 61.8084 167.476 58.2926L167.365 58.2038L167.332 58.3401C167.216 59.1548 167.326 59.9856 167.648 60.7425L167.673 60.8396C167.74 61.0955 167.755 61.3622 167.717 61.6239C167.678 61.8855 167.588 62.1369 167.451 62.3631C167.271 62.5629 167.046 62.7179 166.795 62.8157C166.545 62.9134 166.274 62.9512 166.006 62.926C165.628 62.8591 165.246 62.8246 164.862 62.8227C164.318 62.7998 163.775 62.8946 163.271 63.1005L163.147 63.1625L163.258 63.2492C164.012 63.8569 164.818 64.3964 165.667 64.8615L165.436 64.9483C165.231 65.0268 165.019 65.1083 164.792 65.1889C164.235 65.3893 163.687 65.6206 163.323 65.7787C162.971 65.9361 162.627 66.1115 162.293 66.3044C154.549 61.351 145.546 58.7238 136.352 58.7347C135.291 58.7347 134.219 58.7709 133.153 58.84C132.984 54.9965 133.211 51.1459 133.829 47.3487C134.67 47.3125 135.514 47.2939 136.351 47.2939C144.184 47.2937 151.94 48.8364 159.176 51.8338C166.413 54.8313 172.988 59.2248 178.526 64.7634C184.065 70.3021 188.458 76.8775 191.455 84.114C194.452 91.3506 195.994 99.1067 195.994 106.939Z" fill="#B79257"/>
<path d="M123.254 123.887C126.056 126.872 128.527 129.504 129.477 131.601C129.527 131.713 129.574 131.822 129.615 131.93C129.663 132.055 129.704 132.178 129.739 132.299C129.766 132.393 129.793 132.485 129.812 132.577C129.892 132.929 129.953 133.269 130 133.596C130.048 133.922 130.081 134.236 130.102 134.536C130.121 134.838 130.131 135.128 130.13 135.405C130.129 135.696 130.117 135.974 130.097 136.24C130.083 136.454 130.06 136.657 130.036 136.855C130.029 136.917 130.02 136.977 130.013 137.037C129.92 137.699 129.79 138.28 129.671 138.793C130.607 138.026 131.913 136.858 132.937 135.926C133.03 135.841 133.118 135.759 133.208 135.678C133.559 135.356 133.864 135.076 134.092 134.866C134.216 134.75 134.342 134.636 134.47 134.52C134.601 134.404 134.731 134.286 134.865 134.169C135.132 133.932 135.41 133.692 135.694 133.444C136.738 132.568 137.736 131.64 138.685 130.663C139.145 130.188 139.544 129.657 139.873 129.083L139.954 128.934C140.274 128.457 140.446 127.896 140.448 127.322C140.444 127.149 140.43 126.977 140.404 126.807C140.358 126.474 140.269 126.15 140.14 125.84C139.885 125.285 139.561 124.765 139.175 124.293C138.717 123.692 138.266 123.128 137.823 122.594C137.489 122.193 137.161 121.807 136.839 121.437C136.635 121.203 136.432 120.977 136.233 120.754C136.002 120.498 135.774 120.248 135.55 120.003C135.409 119.85 135.271 119.702 135.133 119.555C135.023 119.436 134.912 119.319 134.804 119.201C134.672 119.06 134.542 118.922 134.411 118.785L134.344 118.711C134.259 118.619 134.172 118.531 134.088 118.44C133.995 118.341 133.904 118.243 133.813 118.148C132 116.221 130.728 114.803 130.187 113.231C130.091 112.968 130.02 112.696 129.975 112.419C129.964 112.363 129.959 112.307 129.952 112.25C129.95 112.231 129.947 112.214 129.945 112.196C129.888 111.773 129.879 111.345 129.917 110.92C130.493 106.925 135.488 104.248 139.019 108.691L140.399 110.406C140.399 110.406 146.898 118.61 150.373 122.819L152.162 124.928C152.226 124.996 152.282 125.058 152.33 125.106C155.26 128.548 160.603 131.272 161.885 131.86C161.792 131.75 161.686 131.624 161.569 131.482C160.693 130.42 159.906 129.286 159.218 128.093C159.007 127.719 158.809 127.335 158.635 126.947C158.599 126.872 158.566 126.794 158.531 126.718C158.413 126.453 158.294 126.186 158.176 125.908C158.1 125.729 158.023 125.549 157.948 125.363C157.534 124.349 157.197 123.306 156.94 122.242C156.842 121.828 156.759 121.423 156.688 121.027C156.651 120.817 156.617 120.612 156.588 120.408C156.582 120.372 156.576 120.338 156.571 120.303C156.542 120.091 156.516 119.883 156.491 119.679C156.475 119.538 156.46 119.398 156.448 119.26C156.428 119.049 156.411 118.843 156.4 118.641C156.399 118.627 156.397 118.614 156.397 118.599C156.383 118.39 156.374 118.189 156.366 117.99C156.354 117.674 156.35 117.372 156.352 117.083C156.353 116.794 156.36 116.521 156.373 116.264C156.4 115.607 156.455 115.058 156.51 114.648C156.511 114.63 156.514 114.616 156.516 114.601C156.554 114.301 156.595 114.078 156.62 113.945C156.363 113.885 156.111 113.808 155.865 113.716C154.951 113.385 154.115 112.87 153.408 112.203C152.946 111.764 152.552 111.257 152.241 110.7C151.108 108.743 150.482 106.534 150.419 104.274C150.223 104.418 150.029 104.567 149.832 104.715C148.917 105.458 147.926 106.1 146.875 106.632C145.885 107.101 144.827 107.408 143.741 107.542C143.431 107.579 143.119 107.597 142.807 107.598C142.545 107.598 142.282 107.584 142.021 107.556C141.769 107.527 141.519 107.484 141.272 107.426C138.022 106.672 136.017 105.165 134.96 102.683C134.719 102.12 134.55 101.529 134.456 100.925C134.433 100.775 134.414 100.625 134.401 100.473C134.387 100.321 134.378 100.17 134.374 100.017C134.366 99.7084 134.377 99.3996 134.407 99.0925C134.472 98.3681 134.602 97.6509 134.793 96.9494C134.838 96.7872 134.887 96.6219 134.942 96.4608C134.997 96.2997 135.055 96.1386 135.118 95.9774C135.309 95.4942 135.547 95.0312 135.83 94.5955C135.927 94.4509 136.029 94.3063 136.138 94.1689C136.413 93.8163 136.727 93.4965 137.075 93.2156C137.292 93.0398 137.522 92.881 137.763 92.7405C137.844 92.692 137.929 92.6455 138.016 92.6001C138.188 92.5112 138.368 92.4276 138.555 92.3522C138.687 92.2985 138.822 92.2541 138.958 92.2138C139.906 91.9507 140.912 91.9786 141.845 92.2939C142.777 92.6092 143.594 93.1973 144.188 93.982C144.213 93.9138 144.239 93.8384 144.267 93.7589C144.457 93.196 144.692 92.3563 144.968 91.3617C145.709 88.5414 146.605 85.764 147.651 83.0422C147.826 82.6084 148.001 82.1677 148.177 81.7201C148.311 81.3783 148.446 81.0333 148.584 80.6904C149.431 78.2769 150.638 76.0054 152.165 73.9532C150.321 72.6123 148.29 71.5495 146.137 70.7989C145.988 70.7473 145.841 70.6997 145.693 70.6543C143.812 70.0529 141.846 69.7582 139.871 69.7816L139.53 69.7826C136.244 69.7786 132.978 70.3052 129.86 71.3422C129.662 71.4093 129.465 71.4795 129.269 71.5529C128.4 71.8731 127.539 72.2401 126.686 72.6539C126.413 72.7861 126.14 72.9228 125.868 73.0639C125.738 73.1321 125.607 73.1982 125.476 73.2674C123.078 74.5679 120.883 76.2127 118.962 78.1496C118.957 78.1548 118.954 78.161 118.948 78.1641C116.287 80.8412 114.148 83.9912 112.642 87.4524C112.037 88.8446 111.541 90.2818 111.159 91.7511C110.701 93.4217 110.377 95.1261 110.19 96.8481C110.115 97.608 110.077 98.3712 110.079 99.1348C110.082 100.173 110.158 101.209 110.308 102.236C110.37 102.669 110.447 103.11 110.539 103.558C110.665 104.184 110.828 104.827 111.017 105.487C111.054 105.612 111.092 105.74 111.131 105.866C111.777 107.932 112.628 109.929 113.672 111.825C114.216 112.82 114.815 113.784 115.464 114.714C117.831 117.959 120.435 121.025 123.254 123.887Z" fill="#B79257"/>
<path d="M172.575 119.73L171.926 122.523L173.732 130.13C173.732 130.13 168.448 130.958 166.096 131.312C165.372 133.739 161.749 143.264 161.749 143.264L161.024 142.906C160.497 137.702 157.789 135.041 154.693 133.048C152.938 131.98 151.051 131.145 149.08 130.564C146.499 129.787 143.859 129.219 141.186 128.868C141.587 127.83 141.586 126.68 141.185 125.642C140.638 124.467 139.92 123.38 139.054 122.416C142.357 121.854 142.739 119.518 142.606 118.093C142.19 118.82 140.424 121.809 137.817 121.22C132.458 114.907 131.545 114.565 131.027 112.527C130.867 111.7 130.957 110.844 131.285 110.068C131.613 109.292 132.165 108.631 132.869 108.169C135.665 106.432 137.411 108.195 140.239 111.752C141.742 113.642 147.174 120.85 150.747 124.901C153.225 127.742 156.23 130.075 159.597 131.771C160.894 132.429 162.234 133.001 163.607 133.482L164.052 132.772C162.33 130.988 160.87 128.969 159.715 126.776C158.899 125.156 158.277 123.444 157.863 121.678C157.291 118.826 157.278 115.891 157.825 113.034C157.825 113.034 155.316 113.448 152.98 110.006C152.269 108.651 151.805 107.179 151.612 105.661C151.485 104.835 151.407 104.002 151.379 103.167C155.672 99.2509 161.517 92.2441 163.754 91.7246C164.43 93.1272 174.201 113.849 174.201 113.849L172.012 114.9L172.02 117.284L166.3 121.479L172.575 119.73Z" fill="white"/>
<path d="M106.313 168.207C106.339 168.016 106.354 167.88 106.357 167.84C106.571 165.664 106.126 163.473 105.08 161.553C104.389 160.211 103.517 158.97 102.487 157.866C101.014 156.255 99.369 154.809 97.5823 153.554C97.3881 153.415 78.0772 139.444 69.7525 119.19C64.7127 107.099 63.3762 93.7836 65.9124 80.9319C66.4976 78.002 67.2609 75.1105 68.198 72.2736L68.229 72.1754C70.8322 64.0056 75.0698 56.4504 80.684 49.9694C92.8829 36.1438 112.471 27.8243 134.541 27.0693C132.713 31.8105 131.248 36.6837 130.159 41.6468C129.915 42.7127 127.817 52.1074 128.347 59.7577C121.691 61.7037 115.526 65.047 110.264 69.5645C106.554 72.7877 103.478 76.6742 101.193 81.0248C99.1103 85.0867 97.835 89.5139 97.4377 94.0613C97.3902 94.4497 97.343 94.8218 97.2962 95.1778C96.6754 99.7977 98.1886 111.524 104.626 118.991C106.391 121.04 108.84 124.078 111.943 127.924L111.982 127.975C114.045 130.532 116.371 133.416 118.989 136.62C116.877 138.786 115.219 141.351 114.111 144.165C113.241 146.163 112.657 148.273 112.377 150.434C112.285 151.212 112.222 152.027 112.154 152.889C112.041 155.467 111.632 158.025 110.935 160.51C110.464 162.084 109.794 163.591 108.939 164.994C108.21 166.176 107.326 167.256 106.313 168.207Z" fill="#DA1A32"/>
<path d="M138.827 24.0399L138.702 24.0378C137.994 24.0172 137.264 24.0068 136.533 24.0068C126.009 24.0342 115.571 25.9061 105.693 29.5377C92.3222 34.5686 81.6395 42.663 73.9449 53.5956C69.4307 59.996 66.116 67.1627 64.1618 74.7471C60.2907 90.1581 61.589 101.847 62.7066 107.44C64.032 113.551 66.1377 119.467 68.9717 125.041C69.5295 126.132 72.3801 131.149 74.2733 133.896C76.2125 136.706 78.3109 139.404 80.5581 141.975C82.5879 144.32 84.7391 146.557 87.003 148.677C87.5288 149.173 87.9822 149.604 88.4149 150.038C90.5174 152.071 92.7533 153.961 95.1077 155.696C97.2664 157.355 99.1296 158.787 100.219 160.163C104.452 165.515 103.42 167.845 102.225 170.543C101.593 171.689 100.764 172.715 99.7772 173.574C99.3496 173.996 98.9086 174.432 98.4954 174.892L98.355 175.051L98.5667 175.037C102.989 174.598 107.064 172.443 109.916 169.035C112.034 166.392 113.526 163.303 114.278 160C114.68 158.15 114.94 156.273 115.057 154.384C115.163 153.184 115.276 151.947 115.442 150.729C115.712 148.764 116.265 146.848 117.082 145.041C118.067 142.757 119.452 140.668 121.171 138.872C120.712 138.401 120.265 137.913 119.819 137.424C117.999 139.419 116.503 141.688 115.385 144.147C114.251 146.621 113.569 149.28 113.372 151.995C113.334 152.441 113.299 152.826 113.242 153.195C113.181 153.592 113.145 154.105 113.102 154.699C112.989 158.26 112.07 161.749 110.412 164.902C108.931 167.664 106.683 169.938 103.937 171.45C104.917 169.856 105.335 167.981 105.126 166.122C104.707 161.473 101.103 157.873 98.1536 155.671C89.5494 149.349 82.0408 141.659 75.9269 132.906C70.2514 124.651 66.4836 116.074 64.7288 107.418C62.5958 96.8439 62.9544 85.9186 65.7761 75.5073C68.4287 65.6519 73.3401 56.5497 80.1212 48.922C93.2342 34.3445 112.622 26.4061 136.193 25.9558L135.92 26.7253C134.652 30.3134 133.341 34.0254 132.259 38.1144C131.42 41.2852 130.737 44.486 130.168 47.9026C129.503 51.7348 129.291 55.632 129.537 59.5138L131.377 59.0934C130.685 46.7768 135.03 33.3303 138.782 24.1546L138.827 24.0399Z" fill="#B79257"/>
<path d="M160.3 154.979L160.271 154.93L160.307 155.008L160.3 154.979Z" fill="#B79257"/>
<path d="M170.431 113.027L166.051 115.679L166.16 115.944L173.462 114.185L170.431 113.027Z" fill="black"/>
<path d="M165.592 103.108C165.567 102.57 165.444 102.041 165.228 101.547C164.935 101.107 166.543 100.42 166.543 100.42L165.712 99.9658L165.511 100.326L161.756 101.641L158.626 104.207L161.31 103.343L166.824 104.048L165.592 103.108Z" fill="black"/>
<path d="M150.479 55.7319C150.603 55.5398 150.778 55.3869 150.986 55.2912C151.193 55.1956 151.423 55.161 151.649 55.1917C151.991 55.1965 152.33 55.2468 152.657 55.3415L152.675 55.3456L152.699 55.2609L152.71 55.17C152.563 55.1246 151.279 54.7001 151.196 53.7963C151.179 53.6982 150.77 51.4053 145.349 49.9531L145.214 49.917L145.237 50.0544C145.459 50.85 145.897 51.5687 146.502 52.1314L146.56 52.2037C146.723 52.4114 146.844 52.6498 146.914 52.9049C146.985 53.1599 147.004 53.4265 146.97 53.6889C146.885 53.9445 146.741 54.1768 146.551 54.3672C146.361 54.5576 146.128 54.7009 145.873 54.7858C144.954 54.9544 144.107 55.3944 143.441 56.0489L143.353 56.1584L143.488 56.1935C144.693 56.5298 145.936 56.7127 147.186 56.7378C149.66 56.7347 150.438 55.7866 150.479 55.7319Z" fill="black"/>
<path d="M158.285 57.733C158.733 57.7527 159.173 57.8579 159.582 58.0429L159.599 58.0501L159.636 57.9685L159.659 57.8817C159.52 57.8156 158.306 57.2187 158.346 56.3129C158.345 56.2147 158.257 53.8857 153.088 51.7012L152.957 51.6465L152.963 51.7849C153.072 52.6023 153.405 53.3736 153.925 54.0137L153.974 54.0953C154.108 54.3236 154.195 54.5765 154.23 54.8391C154.265 55.1017 154.247 55.3686 154.176 55.624C154.057 55.8652 153.882 56.0752 153.667 56.2373C153.452 56.3994 153.203 56.5091 152.938 56.5577C152.005 56.5987 151.106 56.9182 150.356 57.4748L150.252 57.5688L150.383 57.6235C151.861 58.2981 153.456 58.6814 155.08 58.7525C156.706 58.7525 157.332 58.1689 157.369 58.1317C157.477 57.9949 157.617 57.8869 157.777 57.8173C157.937 57.7478 158.111 57.7188 158.285 57.733Z" fill="black"/>
<path d="M165.082 59.7895C165.094 59.6924 165.329 57.3737 160.51 54.4962L160.39 54.4229L160.375 54.5633C160.372 55.3865 160.595 56.1948 161.021 56.8996L161.059 56.9915C161.161 57.2359 161.212 57.4984 161.21 57.7632C161.208 58.028 161.153 58.2896 161.048 58.5325C160.896 58.7551 160.695 58.9393 160.459 59.0702C160.224 59.2011 159.962 59.2752 159.693 59.2865L159.455 59.2824C158.604 59.2328 157.756 59.4255 157.009 59.838L156.894 59.9165L157.013 59.9888C159.571 61.4988 161.305 61.8159 162.309 61.8159C162.851 61.8547 163.393 61.7302 163.864 61.4585C163.958 61.3623 164.071 61.2871 164.197 61.2378C164.322 61.1885 164.456 61.1662 164.59 61.1724C165.115 61.2189 165.621 61.3919 166.065 61.6765L166.082 61.6847L166.129 61.6093L166.164 61.5267C166.035 61.442 164.915 60.6829 165.082 59.7895Z" fill="black"/>
<path d="M179.77 76.2884L180.106 76.2202C180.898 76.2202 181.617 77.2603 181.697 77.379L181.705 77.3925L181.78 77.3419L181.844 77.2799C181.761 77.1508 181.04 76.0043 181.553 75.2555C181.604 75.1708 182.754 73.1444 179.508 68.5648L179.427 68.4512L179.357 68.573C179.02 69.3272 178.898 70.1596 179.004 70.9785L179.002 71.0694C179.002 71.1365 178.966 72.7261 177.541 72.7261C177.299 72.722 177.059 72.6862 176.827 72.6197C176.106 72.2483 175.31 72.0422 174.499 72.0166C174.382 72.0146 174.266 72.0225 174.15 72.0403L174.013 72.0661L174.094 72.1797C176.769 75.9073 178.784 76.3111 179.528 76.3111L179.77 76.2884Z" fill="black"/>
<path d="M183.542 82.5339L183.766 82.505C184.609 82.505 185.23 83.7392 185.3 83.8797L185.308 83.8942L185.387 83.8559L185.461 83.8012C185.395 83.6638 184.843 82.4265 185.454 81.7572C185.516 81.6808 186.934 79.831 184.351 74.8486L184.287 74.7246L184.202 74.8362C183.766 75.5334 183.53 76.3375 183.521 77.16L183.506 77.2602C183.495 77.3201 183.27 78.7165 182.068 78.7165C181.746 78.7058 181.43 78.6303 181.138 78.4945C180.397 77.9464 179.517 77.6191 178.598 77.5505L178.426 77.5577L178.49 77.6806C180.97 82.4017 183.241 82.537 183.492 82.537L183.542 82.5339Z" fill="black"/>
<path d="M186.417 89.24L186.526 89.2338C187.433 89.2338 187.919 90.6457 187.974 90.8131L187.98 90.8316L188.064 90.8027L188.145 90.7614C188.1 90.6147 187.721 89.3134 188.42 88.735C188.492 88.6678 190.151 87.0308 188.281 81.7406L188.236 81.6084L188.135 81.7065C187.606 82.3381 187.26 83.1036 187.138 83.9189L187.112 84.0118C187.108 84.0242 186.727 85.2688 185.685 85.2688C185.295 85.2503 184.919 85.1253 184.596 84.9073C183.937 84.2457 183.095 83.7971 182.178 83.6194L182.038 83.6059L182.086 83.7381C183.981 89.018 186.303 89.2328 186.417 89.24Z" fill="black"/>
<path d="M187.129 91.7347C186.566 90.9894 185.794 90.4285 184.911 90.1234L184.776 90.0925L184.803 90.2288C185.955 95.7225 188.223 96.2564 188.335 96.2781C189.318 96.2967 189.625 97.8656 189.657 98.0505L189.661 98.0691L189.748 98.0526L189.833 98.0205C189.809 97.8698 189.614 96.5291 190.385 96.052C190.465 95.9962 192.335 94.6039 191.214 89.1051L191.185 88.9688L191.072 89.0514C190.461 89.604 190.013 90.3144 189.779 91.1047L189.741 91.1904C189.736 91.2028 189.246 92.2521 188.328 92.2521C187.88 92.2252 187.456 92.0421 187.129 91.7347Z" fill="black"/>
<path d="M144.062 53.4459C144.26 50.5095 135.251 52.852 135.251 52.852C135.251 52.852 143.871 56.2841 144.062 53.4459Z" fill="black"/>
<path d="M138.788 160.432L138.805 160.518V160.506L138.807 160.518L138.802 160.339L138.723 160.34C138.433 160.34 136.984 160.295 136.778 159.378C136.74 159.287 135.768 157.17 130.156 157.126H130.016L130.073 157.252C130.542 158.054 131.239 158.696 132.076 159.098C132.304 159.246 132.494 159.445 132.631 159.68C132.767 159.915 132.846 160.179 132.862 160.451C132.827 160.713 132.739 160.966 132.605 161.194C132.47 161.421 132.29 161.62 132.077 161.777L132.029 161.815C131.288 162.201 130.669 162.787 130.242 163.505L130.182 163.631L130.374 163.632C135.942 163.632 136.929 161.537 136.971 161.443C137.286 160.596 138.637 160.522 138.789 160.518L138.788 160.432Z" fill="black"/>
<path d="M146.205 159.714L146.19 159.629L146.219 159.711L146.218 159.703L146.222 159.711L146.191 159.535L146.174 159.537L146.188 159.594V159.621L146.174 159.536C145.973 159.567 145.77 159.582 145.566 159.582C144.998 159.582 144.279 159.46 144.054 158.859C144.017 158.798 143.119 157.382 139.475 157.382C138.708 157.386 137.942 157.44 137.183 157.543L137.045 157.562L137.12 157.679C137.695 158.407 138.475 158.947 139.359 159.23C139.605 159.345 139.821 159.517 139.988 159.731C140.156 159.945 140.271 160.195 140.324 160.462C140.325 160.726 140.274 160.988 140.172 161.233C140.07 161.477 139.92 161.698 139.731 161.883L139.655 161.955C138.988 162.436 138.468 163.092 138.152 163.851L138.109 163.985L138.248 163.966C143.809 163.204 144.501 160.979 144.529 160.879C144.724 160 146.046 159.74 146.203 159.713L146.205 159.714Z" fill="black"/>
<path d="M153.398 157.717L153.38 157.723C153.042 157.824 152.693 157.878 152.341 157.885C152.117 157.913 151.89 157.877 151.686 157.781C151.482 157.686 151.309 157.534 151.188 157.345C151.157 157.306 150.393 156.397 148.015 156.397C146.723 156.426 145.44 156.625 144.201 156.99L144.065 157.027L144.156 157.134C144.827 157.776 145.675 158.203 146.591 158.36C146.85 158.44 147.087 158.58 147.282 158.769C147.477 158.958 147.625 159.19 147.714 159.446C147.752 159.709 147.737 159.976 147.67 160.232C147.603 160.488 147.485 160.728 147.323 160.938L147.268 161.008C146.67 161.578 146.241 162.303 146.029 163.102L146.006 163.24L146.141 163.202C151.543 161.681 151.923 159.38 151.937 159.279C152.007 158.379 153.288 157.939 153.432 157.892L153.406 157.81L153.448 157.889L153.446 157.881L153.451 157.888L153.398 157.717Z" fill="black"/>
<path d="M160.286 154.922L160.27 154.929L160.301 154.98L160.308 155.005L160.27 154.929C159.856 155.124 159.408 155.235 158.951 155.256C158.779 155.269 158.607 155.239 158.449 155.17C158.291 155.101 158.153 154.994 158.046 154.859C157.404 154.412 156.625 154.207 155.846 154.281C154.193 154.358 152.572 154.763 151.077 155.473L150.948 155.529L151.053 155.622C151.805 156.166 152.703 156.472 153.631 156.502C153.899 156.546 154.153 156.652 154.372 156.812C154.592 156.972 154.771 157.181 154.895 157.423C154.968 157.678 154.99 157.944 154.959 158.207C154.928 158.469 154.844 158.723 154.713 158.953L154.684 159.011C154.162 159.663 153.833 160.448 153.732 161.277L153.728 161.417L153.857 161.361C158.997 159.109 159.056 156.777 159.055 156.675C159.001 155.775 160.209 155.161 160.348 155.094L160.311 155.016L160.362 155.088L160.357 155.081L160.363 155.088L160.286 154.922Z" fill="black"/>
<path d="M166.721 151.203L166.707 151.211L166.744 151.257L166.755 151.283L166.709 151.209C166.264 151.505 165.752 151.686 165.22 151.734C165.086 151.739 164.953 151.716 164.828 151.667C164.703 151.617 164.59 151.543 164.495 151.448C164.043 151.199 163.528 151.085 163.013 151.121C162.003 151.121 160.255 151.449 157.678 153.016L157.56 153.089L157.676 153.166C158.399 153.554 159.214 153.736 160.033 153.69L160.35 153.683C160.622 153.689 160.888 153.759 161.128 153.887C161.368 154.015 161.575 154.197 161.731 154.419C161.839 154.661 161.898 154.922 161.903 155.187C161.909 155.452 161.861 155.715 161.762 155.96L161.742 156.018C161.315 156.737 161.096 157.561 161.11 158.397L161.127 158.535L161.246 158.462C166.027 155.52 165.762 153.206 165.749 153.103C165.571 152.218 166.683 151.444 166.81 151.359L166.762 151.286L166.822 151.35L166.817 151.342L166.824 151.349L166.721 151.203Z" fill="black"/>
<path d="M172.581 146.633L172.567 146.644V146.645C172.128 147.043 171.579 147.299 170.992 147.381C170.781 147.384 170.575 147.314 170.409 147.183C170.113 147.064 169.796 147.009 169.477 147.023C168.406 147.023 166.563 147.484 163.874 149.68L163.768 149.769L163.893 149.829C164.375 150.02 164.892 150.108 165.411 150.086C165.814 150.085 166.217 150.046 166.613 149.969H166.664C166.927 149.943 167.192 149.979 167.439 150.074C167.686 150.169 167.907 150.321 168.085 150.516C168.223 150.74 168.316 150.989 168.357 151.249C168.398 151.509 168.387 151.775 168.324 152.03L168.311 152.091C167.988 152.862 167.885 153.708 168.015 154.534L168.05 154.669L168.159 154.581C172.488 151.007 171.906 148.75 171.878 148.651C171.58 147.8 172.573 146.88 172.686 146.777L172.629 146.714L172.697 146.769L172.691 146.762L172.699 146.768L172.581 146.633Z" fill="black"/>
<path d="M177.754 141.296L177.742 141.309C177.338 141.809 176.769 142.148 176.137 142.266C175.977 142.266 175.819 142.223 175.68 142.142C175.514 142.095 175.342 142.075 175.17 142.08C174.261 142.08 172.323 142.527 169.551 145.516L169.457 145.619L169.588 145.663C169.86 145.732 170.139 145.764 170.42 145.758C171.061 145.749 171.696 145.637 172.302 145.427C172.58 145.352 172.872 145.349 173.15 145.418C173.429 145.488 173.686 145.627 173.895 145.824C174.193 146.229 174.332 146.73 174.283 147.231L174.271 147.332C174.066 148.128 174.083 148.966 174.322 149.753L174.376 149.883L174.47 149.78C178.266 145.643 177.379 143.487 177.338 143.392C176.924 142.59 177.783 141.543 177.881 141.426L177.817 141.369L177.892 141.414L177.885 141.407L177.893 141.413L177.754 141.296Z" fill="black"/>
<path d="M182.141 135.293L182.133 135.307C182.051 135.431 181.342 136.486 180.548 136.486L180.205 136.418L180.005 136.403C179.425 136.403 177.321 136.706 174.601 140.606L174.521 140.722L174.658 140.745C174.761 140.76 174.864 140.767 174.967 140.765C175.787 140.737 176.59 140.523 177.315 140.137C177.558 140.06 177.81 140.019 178.065 140.014C179.465 140.014 179.522 141.584 179.523 141.651L179.525 141.731C179.428 142.555 179.562 143.39 179.91 144.143L179.983 144.265L180.061 144.149C183.247 139.528 182.071 137.517 182.017 137.43C181.499 136.694 182.198 135.542 182.284 135.406H182.285L182.212 135.36L182.292 135.393L182.284 135.388L182.295 135.392L182.141 135.293Z" fill="black"/>
<path d="M185.813 128.836L185.734 128.8L185.819 128.823L185.811 128.817L185.819 128.82L185.658 128.745L185.651 128.762C185.584 128.905 184.973 130.155 184.124 130.155L183.894 130.126H183.87C183.62 130.126 181.355 130.263 178.922 135.046L178.871 135.178H179.016C179.934 135.106 180.811 134.77 181.542 134.21C181.842 134.061 182.169 133.979 182.504 133.967C183.688 133.967 183.931 135.345 183.94 135.404L183.958 135.505C183.978 136.327 184.224 137.128 184.668 137.821L184.755 137.931L184.817 137.806C187.335 132.789 185.894 130.96 185.827 130.879C185.212 130.219 185.749 128.974 185.813 128.836Z" fill="black"/>
<path d="M188.339 122.149V122.148L188.258 122.122L188.344 122.135L188.336 122.133H188.344L188.175 122.081L188.17 122.098C188.116 122.264 187.639 123.689 186.726 123.689L186.609 123.683C186.511 123.69 184.192 123.923 182.329 129.217L182.284 129.349L182.422 129.336C183.332 129.152 184.167 128.701 184.819 128.04C185.145 127.812 185.529 127.68 185.927 127.66C186.961 127.66 187.35 128.896 187.354 128.907L187.375 128.964C187.5 129.791 187.853 130.567 188.393 131.205L188.493 131.303L188.539 131.171C190.372 125.865 188.701 124.243 188.625 124.17C187.93 123.599 188.293 122.305 188.339 122.149Z" fill="black"/>
<path d="M190.512 117.151C189.745 116.678 189.94 115.336 189.963 115.185L189.878 115.171L189.946 115.169L189.965 115.171L189.957 115.169H189.965L189.79 115.14L189.788 115.157H189.787C189.755 115.338 189.451 116.911 188.449 116.934C188.354 116.953 186.087 117.49 184.938 122.985L184.909 123.121L185.046 123.089C185.924 122.788 186.691 122.23 187.25 121.488C187.58 121.174 188.01 120.986 188.465 120.956C189.382 120.956 189.872 122.004 189.878 122.015L189.905 122.071C190.137 122.874 190.589 123.596 191.211 124.155L191.323 124.238L191.35 124.101C192.469 118.599 190.597 117.209 190.512 117.151Z" fill="black"/>
<path d="M121.334 158.202C121.334 158.202 129.419 162.813 129.994 159.926C130.549 157.137 121.334 158.202 121.334 158.202Z" fill="black"/>
<path d="M190.485 103.813C189.945 103.813 189.416 103.974 188.967 104.274C188.518 104.574 188.167 105.001 187.96 105.501C187.754 106 187.7 106.549 187.805 107.08C187.91 107.61 188.171 108.097 188.553 108.479C188.935 108.861 189.422 109.121 189.952 109.227C190.482 109.332 191.032 109.278 191.531 109.071C192.031 108.864 192.457 108.514 192.758 108.065C193.058 107.615 193.218 107.087 193.218 106.546C193.218 106.187 193.148 105.832 193.01 105.5C192.873 105.169 192.672 104.867 192.418 104.614C192.164 104.36 191.863 104.159 191.531 104.021C191.2 103.884 190.844 103.813 190.485 103.813Z" fill="black"/>
<path d="M167.805 68.8891C168.074 67.9356 168.433 67.01 168.879 66.1252C169.056 65.8392 169.175 65.5214 169.231 65.1895L169.226 65.1471L169.19 65.1244L168.956 65.082C167.558 65.082 161.633 66.7325 155.897 71.7872C153.112 74.2945 151.012 77.4697 149.794 81.0136L149.64 81.3988C147.489 86.9022 145.804 92.5762 144.602 98.3611C144.343 97.1061 143.873 95.9041 143.212 94.8061C142.881 94.3531 142.449 93.9832 141.95 93.7255C141.451 93.4678 140.899 93.3293 140.338 93.3209C140.1 93.3212 139.862 93.3416 139.626 93.3818C138.879 93.5454 138.187 93.8997 137.617 94.4103C137.048 94.9209 136.62 95.5704 136.376 96.2954L136.36 96.3398C135.86 97.512 135.626 98.7797 135.672 100.053C135.69 100.969 135.926 101.869 136.36 102.676C137 103.818 137.945 104.76 139.089 105.395C140.234 106.031 141.533 106.335 142.841 106.275C143.227 106.274 143.614 106.254 143.998 106.215C145.242 106.057 146.429 105.599 147.456 104.88C150.083 103.126 152.207 100.871 154.458 98.4851C155.734 97.1341 157.052 95.7357 158.473 94.4384C160.011 92.9805 161.691 91.6792 163.487 90.5539C164.933 89.6921 166.499 89.0506 168.134 88.6504L168.374 88.5182L168.324 88.2094L168.268 88.0689C167.657 86.3488 167.218 84.5722 166.958 82.7653C166.602 80.6065 166.478 78.4157 166.589 76.2305C166.764 73.7507 167.171 71.2929 167.805 68.8891Z" fill="#B79257"/>
<path d="M124.307 148.627C126.006 147.853 127.765 147.053 129.611 146.267C133.09 144.748 136.68 143.495 140.349 142.521C144.338 141.333 148.468 140.691 152.629 140.613H152.71C154.179 140.624 155.642 140.795 157.073 141.123C155.393 136.13 149.519 134.411 147.294 133.76C144.461 133.052 141.585 132.524 138.685 132.179L138.456 132.158L138.642 132.023C139.098 131.679 139.5 131.269 139.834 130.806L140.129 130.44L140.16 130.404L140.208 130.41C143.047 130.743 145.85 131.326 148.586 132.153C150.992 132.859 153.26 133.973 155.29 135.445C156.354 136.266 157.262 137.271 157.973 138.412C159.019 140.011 159.381 142.508 159.372 144.161V144.321L159.238 144.232C158.094 143.45 156.79 142.934 155.421 142.721C154.449 142.591 153.47 142.527 152.49 142.53C149.542 142.58 146.609 142.976 143.753 143.707C140.601 144.462 137.497 145.402 134.457 146.522C130.909 147.817 128.117 149.045 124.264 150.773C123.661 151.043 123.078 151.31 122.505 151.573C120.623 152.435 118.836 153.253 116.867 153.933C116.931 153.219 117.001 152.494 117.084 151.773C119.653 150.745 122.016 149.67 124.307 148.627Z" fill="#B79257"/>
<path d="M91.8216 158.999C86.7135 159.086 81.6447 158.093 76.9466 156.086L76.5944 155.94C73.1606 154.32 69.995 152.184 67.208 149.606C64.5146 146.87 62.1922 143.792 60.3004 140.451L60.2002 140.233L60.4171 140.338C62.4084 141.288 68.5445 142.567 72.1398 142.778C73.5073 142.859 74.5856 142.896 75.5358 142.896C76.7417 142.895 77.9467 142.83 79.1456 142.699C79.2261 142.792 79.3056 142.885 79.3872 142.979C79.8871 143.55 80.354 144.075 80.7991 144.564C79.5608 144.683 78.121 144.757 76.2381 144.802L75.9159 144.806C73.5713 144.806 66.9209 144.312 64.9595 143.82C68.716 148.689 72.0902 152.002 78.0012 154.459C80.1682 155.359 82.4285 156.015 84.7404 156.416C87.4225 156.842 90.1359 157.038 92.8513 157.004C93.3016 157.004 93.7705 156.998 94.2632 156.991C95.0698 157.612 95.8321 158.198 96.5179 158.755C94.9273 158.913 93.3522 158.999 91.8216 158.999Z" fill="#B79257"/>
<path d="M63.6466 116.513C63.2242 116.529 62.7611 116.538 62.2574 116.538C57.5832 116.473 52.9209 116.048 48.312 115.266C44.0051 114.548 40.9035 113.786 39.2974 113.056C39.4017 113.222 39.5277 113.426 39.6703 113.658C41.1328 116.034 44.5608 121.593 48.9968 125.259C52.8875 128.474 57.7171 132.006 64.0597 133.821C67.1197 134.694 70.267 135.226 73.4441 135.406C73.8882 136.036 74.3375 136.662 74.8002 137.283C74.6639 137.284 74.5265 137.288 74.3912 137.288C67.9147 137.354 61.5346 135.718 55.89 132.541C53.7055 131.365 51.6383 129.983 49.7167 128.414C47.9048 126.937 46.1995 125.334 44.6135 123.617C40.9486 119.427 37.8013 114.811 35.2394 109.87L35.1206 109.647L35.3509 109.749C36.7452 110.329 38.1706 110.832 39.6207 111.254C43.0142 112.294 46.4808 113.079 49.9914 113.601C53.9155 114.228 57.8829 114.543 61.8567 114.545C62.2244 114.545 62.6013 114.541 62.9794 114.537C63.1901 115.194 63.4142 115.853 63.6466 116.513Z" fill="#B79257"/>
<path d="M46.4665 83.3354L46.326 83.321C38.6827 82.4206 31.1301 80.8702 23.7502 78.6866C19.8698 77.5216 16.1857 76.2429 12.8031 74.8889L12.673 74.8321C13.8706 77.416 15.238 79.9179 16.7662 82.3212C20.564 88.494 25.5423 93.857 31.4159 98.103C36.7878 101.765 42.806 104.374 49.1508 105.791L49.1529 105.758H49.2324L49.2717 105.764L49.5681 105.824C53.0006 106.508 56.4847 106.901 59.9832 107C60.3427 107 60.6856 106.993 61.014 106.977C61.0584 107.215 61.1028 107.449 61.1462 107.669C61.2288 108.082 61.3208 108.505 61.4178 108.931C61.3631 108.932 61.3073 108.932 61.2485 108.932C58.3781 108.862 55.5135 108.641 52.6666 108.268C49.408 107.814 43.1428 106.665 37.7782 104.07C28.6262 99.644 21.3024 92.9997 15.3821 83.7589C12.9426 79.911 10.8521 75.8526 9.13552 71.6323L9.04256 71.4041L9.02913 71.3989L9.02088 71.3597L8.91553 71.1572L9.1159 71.2481H9.15719L9.17062 71.2719C11.4749 72.2985 13.7389 73.2322 15.9016 74.0492C18.4238 75.0025 30.1879 78.9324 37.3093 80.0655C44.1241 81.2236 51.0181 81.8548 57.9299 81.9535C59.0082 81.9535 60.0534 81.9297 61.047 81.8853C60.9468 82.504 60.8539 83.1164 60.7692 83.7186C59.1767 83.8976 57.5752 83.9845 55.9727 83.9789C52.7949 83.9298 49.6219 83.7151 46.4665 83.3354Z" fill="#B79257"/>
</svg>
