<svg width="200" height="200" viewBox="0 0 200 200" fill="none" xmlns="http://www.w3.org/2000/svg">
<path d="M137.099 31H0V35.3356C0 47.379 5.76698 58.0033 14.5029 64.2496H0V68.5878C0 80.6274 5.76698 91.2499 14.5029 97.498H0V101.837C0 113.876 5.76698 124.498 14.5029 130.746H0V135.087C0 154.265 14.6241 169.87 32.5997 169.87H63.6357L86.5319 131.162C92.9037 139.807 101.384 146.675 111.164 151.112C120.944 155.549 131.698 157.407 142.399 156.508C153.101 155.608 163.394 151.983 172.296 145.976C181.199 139.969 188.414 131.782 193.254 122.195C198.094 112.608 200.397 101.941 199.944 91.2115C199.491 80.4817 196.296 70.0469 190.665 60.9022C185.034 51.7575 177.154 44.2079 167.777 38.9733C158.4 33.7387 147.838 30.9937 137.099 31Z" fill="white"/>
<path d="M137.099 35.3359H5.58984C5.58984 52.154 18.2435 65.786 33.8528 65.786H83.3919C83.7635 65.786 84.1199 65.9336 84.3826 66.1963C84.6454 66.4591 84.793 66.8155 84.793 67.1871C84.793 67.5587 84.6454 67.9151 84.3826 68.1778C84.1199 68.4406 83.7635 68.5882 83.3919 68.5882H5.58984C5.58984 85.4036 18.2435 99.0356 33.8528 99.0356H63.7244C64.0959 99.0356 64.4521 99.1831 64.7148 99.4458C64.9775 99.7085 65.1251 100.065 65.1251 100.436C65.1251 100.808 64.9775 101.164 64.7148 101.427C64.4521 101.689 64.0959 101.837 63.7244 101.837H5.59014C5.59014 118.652 18.2435 132.284 33.8528 132.284H44.0572C44.4289 132.284 44.7854 132.432 45.0483 132.694C45.3111 132.957 45.4588 133.314 45.4588 133.686C45.4588 134.057 45.3111 134.414 45.0483 134.677C44.7854 134.939 44.4289 135.087 44.0572 135.087H5.59014C5.59014 151.9 18.2435 165.533 33.8528 165.533H61.1643L112.218 79.2161C115.76 73.2105 121.355 68.6885 127.971 66.4843C134.586 64.28 141.775 64.5422 148.212 67.2223C154.649 69.9025 159.9 74.8199 162.996 81.0676C166.092 87.3153 166.824 94.4718 165.058 101.217C163.292 107.962 159.146 113.842 153.386 117.77C147.625 121.699 140.638 123.412 133.714 122.594C126.789 121.775 120.394 118.481 115.708 113.317C111.022 108.154 108.361 101.47 108.216 94.499L88.8969 127.165C94.6226 135.461 102.393 142.14 111.456 146.553C120.519 150.967 130.567 152.967 140.63 152.359C150.692 151.751 160.427 148.556 168.892 143.083C177.358 137.611 184.268 130.045 188.953 121.12C193.638 112.194 195.94 102.21 195.636 92.1343C195.332 82.0584 192.432 72.2315 187.217 63.6045C182.003 54.9776 174.649 47.8428 165.869 42.8905C157.089 37.9382 147.179 35.3361 137.099 35.3359Z" fill="black"/>
<path d="M137.099 77.2832C133.812 77.2834 130.599 78.2583 127.866 80.0845C125.133 81.9107 123.003 84.5063 121.745 87.5431C120.487 90.5798 120.158 93.9214 120.799 97.1451C121.441 100.369 123.023 103.33 125.348 105.654C127.672 107.979 130.633 109.562 133.857 110.203C137.08 110.844 140.422 110.515 143.459 109.258C146.495 108 149.091 105.87 150.918 103.137C152.744 100.404 153.719 97.1914 153.719 93.9044C153.72 91.7216 153.29 89.5602 152.455 87.5435C151.62 85.5268 150.395 83.6943 148.852 82.1509C147.308 80.6074 145.476 79.3831 143.459 78.5479C141.443 77.7127 139.281 77.2829 137.099 77.2832Z" fill="#D24303"/>
</svg>
