<svg width="200" height="200" viewBox="0 0 200 200" fill="none" xmlns="http://www.w3.org/2000/svg">
<path d="M186.285 33.3582H173.417C172.834 31.7553 171.912 30.2968 170.714 29.0823C166.963 25.3308 161.92 24.7257 158.975 27.6704C158.368 28.2902 157.9 29.033 157.604 29.8488C156.608 29.1329 155.523 28.5497 154.377 28.1141C152.562 24.3223 150.02 18.9572 144.252 18.9572C142.397 18.9755 140.572 19.4316 138.927 20.2884C134.651 16.9403 125.494 10.6474 116.136 10.6474C105.849 10.6474 91.5693 20.0868 87.4143 20.0868C84.3486 20.0868 77.5313 5 66.9222 5C61.2344 5 55.4659 8.87254 48.568 13.0274C42.0331 16.9806 40.2985 21.7003 38.4026 26.7426C36.8646 29.185 35.0059 31.4101 32.8762 33.3582H0L56.0307 130.817H17.6684L5.44574 152.802H61.7185C63.8236 152.727 65.8821 152.161 67.729 151.148L93.1425 195.359L117.87 152.318H138.483V140.256H137.071C137.071 136.061 133.885 131.503 132.311 129.486L132.029 127.751L136.749 119.522L164.3 109.357C166.147 108.573 167.786 107.37 169.088 105.844C170.39 104.318 171.32 102.51 171.803 100.563C172.938 100.441 174.037 100.093 175.035 99.5389C176.033 98.9845 176.909 98.2353 177.612 97.3356C179.675 97.9232 181.801 98.2618 183.945 98.3441C188.1 98.3441 192.497 96.0045 193.626 91.5268C193.626 91.5268 198.023 88.8241 200 80.474L165.712 69.1388L186.285 33.3582Z" fill="white"/>
<path d="M159.581 75.5507L163.897 77.0029L163.857 79.7459C161.557 79.6653 159.702 79.2215 159.702 85.9581C159.702 90.9601 160.67 92.5737 160.67 93.9856C160.67 96.3655 160.468 96.9303 152.925 96.9303C151.41 95.5421 149.605 94.5086 147.64 93.9048C147.64 93.9048 147.56 93.5418 147.398 92.8561L179.266 37.4305H169.585C170.311 36.0589 169.625 33.7596 167.85 31.9847C165.793 29.9274 163.13 29.282 161.88 30.5325C161.592 30.8489 161.389 31.2333 161.29 31.6496C161.191 32.0659 161.2 32.5005 161.315 32.9125L157.362 37.0674C157.443 36.4624 157.644 33.1546 151.432 31.3797C149.577 27.6685 148.003 23.0295 144.252 23.0295C142.162 23.1832 140.173 23.9872 138.564 25.3288C138.564 25.3288 127.189 14.7197 116.136 14.7197C106.495 14.7197 93.2635 24.159 87.4144 24.159C81.2022 24.159 75.6758 9.07227 66.9626 9.07227C62.2429 9.07227 56.6762 12.8641 50.706 16.535C44.7359 20.1251 43.6064 24.6027 42.1542 28.2332C41.1861 30.6536 38.1203 33.8807 34.5705 37.3901H7.01904L63.0094 134.728C62.5957 134.804 62.1783 134.858 61.7589 134.889H20.0485L12.3438 148.725H61.7589C64.1498 148.597 66.4136 147.609 68.1324 145.942L68.9393 145.095L93.1425 187.209L115.531 148.282H134.409V144.328H129.891L129.084 141.827H129.77L133.038 140.295C133.038 136.543 128.479 131.218 128.479 131.218L127.753 126.983L133.965 116.212L162.888 105.522C168.011 103.667 168.576 96.1638 168.576 96.1638C168.576 96.1638 173.296 98.3825 175.877 92.6544C178.498 93.5005 181.203 94.0551 183.945 94.3082C186.406 94.3082 189.875 92.9771 189.875 89.3062C192.152 87.8287 193.903 85.6682 194.877 83.1344L160.831 71.8395L159.581 75.5507Z" fill="black"/>
<path d="M74.7884 115.326C73.0135 111.01 73.7799 110.042 73.7799 110.042C73.7799 110.042 68.0518 105.322 69.746 99.4733C69.746 99.4733 54.982 78.0534 54.982 65.3467C54.982 58.7715 58.1284 59.4169 58.1284 54.0115C58.1284 49.6145 55.1434 46.3068 52.9651 46.3068C50.4641 46.3068 42.719 51.4298 31.4241 58.126L35.7 48.2833L25.3732 58.8521C25.3732 58.8521 23.3563 48.5253 28.9231 42.9586C29.8105 42.0712 30.7383 41.1434 31.6661 40.2559H11.9404L65.7525 133.842C66.6832 133.436 67.5311 132.861 68.2535 132.148L76.765 123.596C75.6033 120.984 74.9332 118.181 74.7884 115.326ZM162.485 40.2559L161.719 41.1433C162.627 42.1498 163.271 43.3654 163.595 44.6817C163.919 45.9979 163.912 47.3738 163.574 48.6867C163.574 51.591 162.041 51.5507 162.041 51.5507C162.041 58.2873 158.492 57.0772 158.492 57.0772C158.492 65.9517 148.73 62.3616 148.73 62.3616C147.343 62.195 145.993 61.7997 144.736 61.1917L138.12 68.5738C141.47 75.1032 144.224 81.9211 146.35 88.9449L174.345 40.2559H162.485ZM114.764 143.846L115.934 141.829H114.038L114.764 143.846ZM139.573 49.7758L138.564 47.5168C133.36 48.4043 128.681 45.7419 127.35 45.0562C126.019 44.3704 127.471 41.466 127.471 41.466C127.168 40.987 126.77 40.5751 126.301 40.2559H120.855C120.607 40.4284 120.398 40.6504 120.239 40.9079C120.081 41.1654 119.978 41.4529 119.936 41.7522C119.895 42.0515 119.916 42.3562 119.997 42.6471C120.079 42.938 120.22 43.2089 120.412 43.4426C125.819 49.1057 130.556 55.3726 134.53 62.1195L140.581 55.7863L139.573 49.7758ZM125.172 125.774L129.488 118.271L124.688 120.611L125.172 125.774ZM116.378 111.817C116.378 111.212 107.503 108.872 104.034 107.541C100.847 108.792 104.962 109.397 104.962 113.552C104.864 115.378 104.469 117.177 103.792 118.876L102.017 119.36C102.017 119.36 98.4673 125.895 96.2084 124.927C92.9813 130.615 91.6501 131.906 86.5271 131.906C84.9719 131.919 83.4458 131.485 82.1302 130.655L70.9158 142.878L93.1425 181.482L112.223 148.283H98.5076C98.6015 145.962 99.3728 143.718 100.726 141.829C100.726 136.182 104.236 135.012 106.817 134.77C112.263 134.286 114.522 134.73 114.522 132.067C114.522 130.171 114.361 127.912 114.361 127.912H116.378C116.378 120.571 114.32 118.755 114.32 115.004C114.32 113.552 116.378 112.946 116.378 111.817Z" fill="#FCB514"/>
<path d="M106.535 144.332H108.391L109.198 141.83H105.124L106.535 144.332Z" fill="#FCB514"/>
<path d="M169.706 78.9023L168.334 80.9596L178.096 84.2271L178.056 81.6857L169.706 78.9023ZM184.268 83.743L182.775 85.76L186.567 87.0105L186.043 84.3481L184.268 83.743ZM119.242 141.831L117.79 144.332H123.719L124.445 141.831L119.242 141.831Z" fill="white"/>
<path d="M186.164 90.3178C186.326 91.0035 185.478 91.8103 184.268 92.0927C183.018 92.3751 181.929 92.0523 181.767 91.3666C181.606 90.7212 182.453 89.9144 183.663 89.632C184.873 89.3496 186.003 89.632 186.164 90.3178Z" fill="white"/>
<path d="M106.616 136.626C107.019 137.19 106.576 138.239 105.608 139.006C104.599 139.772 103.47 139.974 103.026 139.409C102.582 138.885 103.026 137.796 104.034 137.029C105.002 136.263 106.172 136.061 106.616 136.626Z" fill="white"/>
<path d="M147.923 28.841L146.108 24.9684C145.946 24.6053 144.696 24.6457 144.696 25.4121C144.655 25.9366 145.986 28.841 147.923 28.841ZM147.842 32.9555L142.114 25.1701C141.725 25.1486 141.341 25.2611 141.026 25.4886C140.71 25.7162 140.482 26.0452 140.379 26.4206L146.592 33.0362C147.398 33.8833 147.842 32.9555 147.842 32.9555ZM146.027 35.8599L139.21 28.0745C138.322 27.066 136.749 29.0023 136.749 29.0023L144.413 36.5457C145.139 37.2315 146.39 36.2229 146.027 35.8599ZM143.606 38.0382C143.606 36.344 136.305 30.7369 135.176 30.7369C134.006 30.7369 133.481 32.1487 133.481 32.1487L142.8 38.7643C143.082 38.966 143.606 38.2399 143.606 38.0382ZM141.105 41.9107C141.63 42.1931 142.477 40.5392 141.953 40.1762C138.793 37.9536 135.445 36.01 131.949 34.3673C131.692 34.6789 131.506 35.0417 131.402 35.4314C131.297 35.821 131.277 36.2284 131.343 36.6263L141.105 41.9107ZM139.532 44.8958C139.895 45.0572 140.904 43.968 140.218 43.4839C137.209 41.7004 134.082 40.1236 130.859 38.7643C129.73 39.8938 130.375 40.5796 130.375 40.5796L139.532 44.8958ZM137.394 45.9849C134.729 44.581 131.949 43.407 129.085 42.4755L128.842 43.2419C128.842 43.2419 130.859 46.3076 137.394 45.9849ZM159.016 41.588L162.727 48.1229C162.521 45.512 161.505 43.0304 159.823 41.0233C159.823 41.0233 159.016 40.9022 159.016 41.588ZM162.203 50.3415C162.203 47.7599 158.088 43.2419 158.088 43.2419L157.12 45.2185L161.073 51.1886C161.073 51.1886 162.203 51.7534 162.203 50.3415ZM154.982 48.97C154.982 48.97 156.797 54.2544 158.774 54.2544C158.939 53.059 158.787 51.8413 158.334 50.7229C157.881 49.6045 157.143 48.6245 156.192 47.8809C155.894 47.8905 155.61 48.0051 155.388 48.2044C155.167 48.4037 155.023 48.6749 154.982 48.97ZM152.118 51.4307C152.118 51.4307 153.247 58.5707 156.434 58.5707C156.757 57.4816 155.466 51.4307 152.118 51.4307ZM153.288 62.2818C154.377 57.6832 149.657 52.9232 149.657 52.9232C146.35 52.6812 146.269 53.851 146.269 53.851C146.269 53.851 148.609 62.2818 153.288 62.2818ZM141.751 54.6981C142.45 54.2649 143.27 54.067 144.091 54.1334C143.163 51.229 141.509 51.9148 141.509 51.9148C140.863 52.8829 141.751 54.6981 141.751 54.6981ZM158.814 39.4097C159.984 39.3233 161.108 38.9213 162.067 38.2464C163.026 37.5716 163.784 36.6492 164.26 35.5775C164.26 34.9321 163.615 34.4884 162.404 34.4884C161.235 34.4884 158.048 37.8768 158.048 38.845C158.048 39.0467 158.209 39.4097 158.814 39.4097ZM147.6 49.5348C147.684 49.847 147.876 50.1195 148.142 50.304C148.408 50.4885 148.73 50.5732 149.052 50.5432C151.473 50.5432 156.394 45.3395 156.394 41.0636C156.394 40.2165 155.103 40.1761 155.103 40.1761C150.625 43.0806 147.6 49.5348 147.6 49.5348ZM154.216 38.6029C157.12 37.1507 154.095 33.3992 152.037 34.569C149.577 36.1132 147.469 38.1573 145.85 40.5687C144.231 42.9801 143.136 45.705 142.638 48.5666C142.966 48.9684 143.404 49.2662 143.898 49.4238C144.392 49.5814 144.922 49.5919 145.422 49.4541C145.422 49.4541 149.98 40.6602 154.216 38.6029ZM93.1829 98.7886C92.7097 100.868 92.966 103.047 93.909 104.96C94.4334 104.678 94.7965 104.839 94.7965 101.451C94.7965 98.0624 93.1829 98.7886 93.1829 98.7886ZM88.5439 96.4085C88.3844 98.8229 88.5198 101.248 88.9473 103.629C88.9473 103.629 90.6415 104.315 91.2063 103.468C91.0853 102.54 91.0853 100.483 91.0853 99.2323C91.0853 96.1262 88.5439 96.4085 88.5439 96.4085ZM85.3168 95.3194C84.389 97.3363 85.0344 100.281 85.0344 102.338C85.0344 104.476 86.4463 104.396 87.132 104.033C86.3253 102.419 88.5036 96.8523 85.3168 95.3194ZM82.8965 100.644C82.8965 93.3428 80.3954 94.5933 80.3954 97.2153C80.3955 100.16 82.0494 101.491 82.8965 100.644ZM79.6694 103.024C79.6694 102.419 78.7819 102.459 78.7819 97.9011C78.7819 94.2706 74.7077 95.6421 74.7077 97.5784C74.7077 99.4743 78.0155 101.854 78.0155 103.266C78.0155 103.266 79.6694 103.912 79.6694 103.024ZM72.2067 99.0306C69.1006 103.347 74.1832 107.824 74.1832 107.824C75.2296 107.914 76.2701 107.596 77.0876 106.937C77.0876 106.937 75.5145 101.048 72.2067 99.0306ZM91.529 116.094C92.013 127.106 90.2382 126.905 90.2382 128.599C90.2382 131.342 94.9174 127.832 94.9174 120.894C94.9175 112.705 91.529 116.094 91.529 116.094ZM81.0813 112.06C83.7033 122.79 86.9304 129.083 88.2616 129.446C88.2616 129.446 89.1894 127.873 89.1894 118.595C89.1894 118.595 86.8901 108.833 81.0813 112.06ZM76.9264 116.094C77.8138 126.098 83.8243 130.374 83.8243 130.374L84.9941 129.728C82.4353 124.467 80.317 119.003 78.6609 113.391L76.9264 116.094ZM101.775 112.463L101.533 114.803L103.106 115.045L103.55 113.714C103.106 113.472 102.703 112.221 101.775 112.463ZM98.7497 111.455C96.9748 111.455 97.6202 115.368 97.6202 116.659C97.6566 117.338 97.4879 118.013 97.1361 118.595C97.4992 119.281 97.4588 121.096 98.6287 121.096C99.3144 121.096 100.283 120.087 100.283 117.546C100.283 113.714 100.363 111.455 98.7497 111.455ZM95.0385 109.398C93.9897 109.398 93.4249 110.648 93.4249 112.746C93.4249 113.432 94.272 113.956 94.7964 113.956C95.1191 113.956 95.9259 113.189 95.9259 110.809C95.926 110.083 95.6436 109.398 95.0385 109.398ZM92.4972 108.793C92.4972 107.058 90.9643 106.735 89.3104 106.735C88.7316 106.672 88.1499 106.827 87.6797 107.17C87.2094 107.513 86.8846 108.02 86.7691 108.591C86.8187 109.407 87.0938 110.194 87.5639 110.863C88.0339 111.533 88.6804 112.059 89.4314 112.383C90.2343 112.144 90.951 111.678 91.495 111.041C92.0389 110.404 92.387 109.623 92.4972 108.793ZM84.5504 108.914C84.5504 108.914 85.2362 106.372 83.2596 106.372C79.2257 106.372 75.3532 109.72 75.3532 111.455C75.3642 112.025 75.4876 112.587 75.7162 113.109C75.7162 113.109 81.0006 108.066 84.5504 108.914ZM142.396 56.2714L96.047 105.001C94.3528 106.735 98.79 109.841 100.363 108.026L144.736 58.5304C144.913 58.3836 145.058 58.201 145.16 57.9945C145.262 57.7881 145.319 57.5624 145.328 57.3323C145.337 57.1021 145.297 56.8727 145.211 56.6591C145.125 56.4454 144.995 56.2523 144.83 56.0923C144.664 55.9323 144.466 55.8091 144.25 55.7308C144.033 55.6524 143.803 55.6207 143.573 55.6376C143.343 55.6545 143.12 55.7197 142.917 55.8289C142.714 55.9381 142.537 56.0889 142.396 56.2714ZM51.4725 26.34C51.4725 24.565 53.9735 22.7498 54.2963 21.9027C53.8579 21.3005 53.2282 20.8649 52.5101 20.667C51.792 20.4692 51.028 20.5208 50.3431 20.8135C50.0203 25.8155 48.7295 28.1955 48.1648 31.2613C50.0204 32.8345 49.4153 28.9216 52.118 28.9216C52.7046 29.0038 53.2452 29.2851 53.6491 29.7184C54.053 30.1517 54.2957 30.7107 54.3366 31.3016C54.3539 31.7218 54.288 32.1412 54.1426 32.5358C53.9972 32.9304 53.7753 33.2924 53.4895 33.6009L55.3854 33.4396C55.9464 32.7614 56.2341 31.8983 56.1923 31.0192C56.2326 27.3887 51.4323 27.308 51.4323 26.3399L51.4725 26.34ZM28.8828 45.2589C26.9062 47.5178 26.6238 54.0527 26.6238 54.0527L43.0417 39.9745L36.4665 52.0358C36.4665 52.0358 47.5597 46.9934 48.5681 44.4924C46.7692 40.5488 44.2833 36.9565 41.2265 33.8833C41.2265 33.8833 30.9401 42.9999 28.8828 45.2589ZM106.898 103.468C116.579 107.623 125.575 109.841 130.254 109.841C134.611 109.841 140.541 108.631 140.541 99.2323C140.541 93.0605 137.193 84.3473 131.828 75.5937L106.898 103.468ZM98.8707 99.6357L127.673 69.3412C117.144 54.7386 101.775 41.5477 87.8985 41.5477C75.5548 41.5477 67.2047 50.6643 67.2047 60.3053C67.2047 77.651 82.7755 91.1242 98.8707 99.6357ZM165.147 79.9503L167.003 80.5554L169.181 77.3283L179.347 80.7167L179.468 84.67L181.485 85.3154L183.744 82.169L187.173 83.2985L188.02 87.4937L189.431 87.9777C190.956 86.9129 192.224 85.5209 193.143 83.9035L161.638 73.4961L161.235 74.7063L165.228 76.0375L165.188 79.9503L165.147 79.9503ZM125.817 141.83L124.728 145.662H114.038L112.626 141.83H110.609L109.359 145.662H105.769L103.59 141.83H102.421C101.176 143.305 100.317 145.065 99.9195 146.953H133.078V145.662H128.883L127.673 141.83H125.817ZM15.2886 147.034H21.9848L27.7936 136.626H21.057L15.2886 147.034ZM69.504 133.399C67.367 135.328 64.6336 136.467 61.759 136.626H61.5168L56.7973 147.034H61.7186C63.641 146.916 65.4579 146.115 66.8416 144.775L80.5972 129.809L77.4508 125.372L69.504 133.399Z" fill="white"/>
</svg>
