<svg width="200" height="200" viewBox="0 0 200 200" fill="none" xmlns="http://www.w3.org/2000/svg">
<path d="M187.697 81.2279L184.994 86.0685L185.438 88.8519C178.217 102.93 170.391 116 167.568 120.599C166.478 118.138 165.067 116.686 162.283 115.193C162.283 115.193 175.03 92.0387 178.499 73.6845C168.818 78.4848 158.733 83.2045 158.733 83.2045L175.998 55.2093C175.998 55.2093 142.759 62.5107 116.458 65.1327C88.1404 23.3417 62.3638 16 62.3638 16C62.3638 16 80.2339 45.2053 83.5418 65.6571C61.4661 63.5626 39.5452 60.073 17.9104 55.2093L49.3747 106.157C30.9802 107.246 0 108.215 0 108.215C7.86608 116.121 33.2795 126.125 66.8818 134.435L72.8923 144.156C53.1262 159.041 41.1859 179.574 41.1859 179.574L43.2029 183.245C43.2029 183.245 53.0052 182.64 65.0262 182.196C65.0262 182.196 68.2936 171.627 81.7668 158.557L96.9745 183.124L116.014 152.305L118.072 152.063L119.242 152.749C118.874 153.28 118.537 153.832 118.233 154.403C119.806 155.492 119.887 155.653 119.968 157.589C121.504 158.02 123.135 157.978 124.647 157.468L125.373 156.177L126.261 156.581C126.382 157.468 126.624 158.517 126.624 158.517C127.342 158.838 128.131 158.969 128.915 158.898C129.699 158.828 130.451 158.558 131.101 158.114C137.556 159.445 141.952 158.719 143.405 158.356C149.778 160.09 153.933 158.92 155.627 158.154C158.572 159.364 161.638 160.171 170.069 160.171C173.981 160.171 178.136 159.929 178.136 157.025C178.136 152.91 174.223 137.944 170.27 129.675C171.955 130.829 173.824 131.688 175.797 132.216L179.427 129.594C177.773 127.658 178.096 127.133 178.298 125.601C177.403 124.908 176.349 124.451 175.232 124.269C178.741 120.195 186.123 110.756 194.958 93.8136C196.813 93.5313 199.193 92.4421 199.476 89.4974C199.805 86.9826 199.98 84.4499 200 81.9137C194.393 79.3723 187.697 81.2279 187.697 81.2279Z" fill="white"/>
<path d="M165.833 62.389L149.859 87.8832C151.594 87.0764 153.449 86.2293 155.264 85.4225L172.287 57.8711C172.287 57.8711 143.365 64.2043 116.983 66.8666C117.588 67.8348 118.193 68.8432 118.838 69.8114C136.951 67.9154 155.829 64.4059 165.833 62.389Z" fill="black"/>
<path d="M168.374 129.755C166.156 120.598 165.833 118.944 160.912 116.484L160.145 115.435C169.1 99.3801 175.595 80.1788 175.595 77.9198C175.595 77.3551 175.353 77.1937 174.99 77.355C160.71 84.5757 145.059 91.0299 141.589 93.4502L140.662 94.7411C135.315 89.9472 129.698 85.4623 123.84 81.3083C107.906 50.0053 83.4611 27.9803 67.6886 20.1143C67.6886 23.3817 83.2594 47.4236 85.6797 67.5931C57.4426 65.6568 21.6217 57.8714 21.6217 57.8714L52.4809 107.73C27.1481 109.303 4.92139 109.828 4.92139 109.828C4.92139 111.562 33.1989 125.076 74.9496 134.556C84.0662 136.613 90.8834 136.29 95.3207 136.29C94.4736 135.362 93.6668 134.475 92.8197 133.587C98.8705 137.299 104.397 140.969 109.359 144.277C108.108 144.277 106.737 144.318 105.244 144.318C95.2401 144.318 87.6564 143.793 82.856 143.43L78.4591 136.492C77.3699 136.29 76.2808 136.088 75.1917 135.846C74.7479 135.766 74.3445 135.685 73.9008 135.604C72.0049 135.161 70.1896 134.717 68.9391 134.435L75.2723 144.64C69.3425 148.876 54.2155 161.704 43.2433 179.614L44.2115 181.389C44.2115 181.389 54.8206 180.743 63.7354 180.461C63.7354 180.461 67.7693 169.005 82.13 155.774L96.9343 179.735L114.925 150.651C116.095 150.53 117.265 150.409 118.475 150.247C119.726 151.014 120.896 151.78 122.065 152.426C121.423 152.786 120.892 153.316 120.532 153.958C120.856 154.207 121.122 154.524 121.31 154.886C121.498 155.249 121.604 155.648 121.622 156.056C122.228 156.145 122.847 156.104 123.437 155.935C123.874 155.263 124.265 154.562 124.607 153.837C125.696 154.406 126.813 154.917 127.955 155.37C127.951 155.952 128.005 156.533 128.116 157.105C128.116 157.105 129.246 157.468 130.658 156.258C138.604 158.073 143.364 156.5 143.364 156.5C151.472 158.92 155.587 156.218 155.587 156.218C158.733 157.629 161.396 158.396 170.069 158.396C174.788 158.396 176.321 157.831 176.321 157.024C176.361 153.232 172.368 137.742 168.374 129.755Z" fill="black"/>
<path d="M188.867 82.7608L186.85 86.3913L187.293 89.1344C178.177 107.045 168.052 123.261 168.052 123.261L169.302 126.327L170.754 125.278L171.803 125.359C171.803 125.359 181.485 116.081 193.869 92.1195C193.869 92.1195 197.459 92.2405 197.741 89.3361C198.024 86.3913 198.225 84.3744 198.225 83.1642C193.748 81.5507 188.867 82.7608 188.867 82.7608ZM170.714 126.932L170.996 128.021C172.393 128.961 173.896 129.733 175.474 130.32L176.967 129.231C176.411 128.432 176.194 127.446 176.362 126.488C174.385 125.238 170.714 126.932 170.714 126.932Z" fill="black"/>
<path d="M134.449 153.677C135.762 152.905 137.028 152.056 138.241 151.135C130.98 151.458 128.278 150.571 128.278 150.571C129.568 149.28 131.182 148.15 132.19 147.142C131.424 147.263 130.617 147.343 129.851 147.424C129.851 147.747 129.447 148.15 128.358 148.836C126.18 149.159 124.042 149.481 121.944 149.764C122.539 150.433 123.187 151.053 123.881 151.619C124.365 151.458 124.889 151.297 125.454 151.135C125.427 151.63 125.332 152.119 125.172 152.587C126.084 153.208 127.057 153.735 128.076 154.161C128.173 153.401 128.434 152.671 128.842 152.023C129.205 152.144 129.407 153.192 129.609 153.515C130.133 154.282 130.859 154.403 130.98 155.048C134.046 155.774 137.878 155.936 142.961 155.29L144.373 154.161C136.95 154.322 134.449 153.677 134.449 153.677ZM122.388 142.785C119.161 143.834 117.749 143.108 117.749 143.108C118.217 142.549 118.573 141.905 118.798 141.212C115.934 142.019 115.047 141.212 115.047 141.212C115.444 140.821 115.759 140.355 115.974 139.84C114.02 139.791 112.068 139.994 110.166 140.445C112.796 140.761 115.228 142.006 117.023 143.955C118.7 143.867 120.371 143.679 122.025 143.39L122.388 142.785Z" fill="white"/>
<path d="M51.9966 169.53L48.4468 174.088C48.4468 174.088 58.9349 172.475 65.2681 173.403L67.0027 170.418C63.5738 168.643 51.9966 169.53 51.9966 169.53ZM116.095 140.89C117.247 140.931 118.397 140.753 119.483 140.365C119.521 141.193 119.263 142.008 118.757 142.665C120.351 142.582 121.932 142.339 123.477 141.938C123.477 141.938 123.195 142.584 122.832 143.27C123.308 143.163 123.795 143.109 124.284 143.108C125.292 143.108 125.413 143.31 126.301 143.31C127.995 143.31 128.197 143.673 128.439 145.65C128.759 146.052 129.109 146.43 129.487 146.779C130.738 146.658 132.15 146.537 133.602 146.335C132.462 147.824 131.102 149.129 129.568 150.208C129.568 150.208 136.305 150.853 139.814 150.41C138.812 151.596 137.594 152.582 136.224 153.314C136.224 153.314 140.863 153.596 145.905 153.516C145.282 154.183 144.622 154.816 143.929 155.412C143.929 155.412 150.101 156.783 154.498 155.734C138.604 149.441 129.891 139.841 116.579 139.841C116.459 140.208 116.297 140.56 116.095 140.89Z" fill="white"/>
<path d="M65.5505 154.443L60.5485 159.405C60.5485 159.405 69.7457 158.154 75.8369 158.961L78.2169 156.298C75.9579 154.362 65.5505 154.443 65.5505 154.443ZM59.903 160.131L56.1112 164.447C56.1112 164.447 66.6396 163.358 70.9558 164.568L75.3124 159.526C70.9155 158.799 59.903 160.131 59.903 160.131ZM55.5061 165.173L54.2556 166.706C54.2556 166.706 67.2447 164.689 70.3104 165.415L70.5525 165.092C67.3254 164.044 55.5061 165.173 55.5061 165.173ZM53.6505 167.472L52.521 168.844C52.521 168.844 63.3721 168.037 67.3253 169.852L69.907 165.98C66.3976 165.415 53.6505 167.472 53.6505 167.472Z" fill="white"/>
<path d="M66.4784 153.597L66.2363 153.798C66.2363 153.798 75.2319 153.677 78.6607 155.815L79.1851 155.291C76.4017 153.718 66.4784 153.597 66.4784 153.597Z" fill="white"/>
<path d="M79.9112 155.451L80.0725 156.863L83.34 153.676L83.2996 152.022L79.9112 155.451ZM78.7414 156.702L79.0641 157.912L79.5481 157.428L79.3464 156.016L78.7414 156.702ZM75.9176 159.808L76.079 161.099L78.5397 158.436L78.2573 157.226L75.9176 159.808ZM71.2383 165.253L71.44 166.302L75.5143 161.663L75.3529 160.413L71.198 165.253L71.2383 165.253ZM70.5122 166.181L70.6736 167.23L70.9157 166.907L70.714 165.899L70.5122 166.181ZM67.6482 170.538L67.7692 171.385L70.1895 167.875L70.0282 166.907L67.6482 170.538ZM65.7119 173.805L65.8329 174.733L67.2851 172.192L67.1238 171.345L65.7119 173.805ZM71.4804 149.279L67.1641 152.99C67.1641 152.99 77.1681 153.152 79.6288 154.806L83.2996 151.175C80.0725 149.32 71.4804 149.279 71.4804 149.279Z" fill="white"/>
<path d="M189.472 84.2942L188.221 86.3112C190.554 85.9249 192.927 85.8435 195.281 86.0691L196.733 84.0118C194.33 83.4652 191.825 83.5626 189.472 84.2942ZM188.826 88.4895C182.816 99.3406 176.241 113.661 169.101 122.535L171.158 121.245L171.602 120.761L171.239 122.011L172.086 121.567L170.795 123.907L172.005 122.898C172.005 122.898 178.137 116.041 193.667 88.0054C190.198 87.481 188.826 88.4895 188.826 88.4895ZM64.9458 173.967C59.3387 172.919 47.8421 174.815 47.8421 174.815L44.7764 179.292L62.7675 178.445L64.9458 173.967ZM83.8243 150.732L85.3169 149.885C85.3169 149.885 91.5291 150.894 128.6 147.061C127.713 146.416 127.269 146.537 127.269 145.085C127.269 144.601 127.35 144.52 126.543 144.52C125.736 144.52 125.414 144.278 124.446 144.278C123.235 144.278 121.501 145.488 103.308 145.488C88.8667 145.488 78.7417 144.278 78.0559 144.278C77.4105 144.278 76.0793 145.529 72.2068 148.635C72.2068 148.635 79.8308 148.554 83.8243 150.732ZM124.809 127.457C125.454 132.66 126.705 134.879 126.705 134.879C128.469 136.151 130.395 137.182 132.433 137.945C128.641 130.966 124.809 127.457 124.809 127.457ZM128.6 156.46C129.184 156.362 129.722 156.079 130.133 155.654C129.669 154.935 129.264 154.179 128.923 153.395C128.581 154.378 128.471 155.427 128.6 156.46ZM122.267 155.331C123.518 153.677 124.325 152.628 124.526 151.983C123.437 152.427 122.066 152.709 121.299 153.838C121.716 154.268 122.045 154.775 122.267 155.331Z" fill="#EA7200"/>
<path d="M78.4593 136.492C77.3702 136.29 76.281 136.089 75.1919 135.847C74.7885 135.766 74.3448 135.645 73.9414 135.564L78.6611 143.108C78.9838 143.148 79.3468 143.148 79.7502 143.188C80.5973 143.229 81.6461 143.35 82.816 143.43L78.4593 136.492ZM148.286 88.6099C148.81 88.4082 149.335 88.1258 149.859 87.8838L165.833 62.3896C155.829 64.4066 136.951 67.9161 118.839 69.812C118.989 70.1214 119.165 70.4182 119.363 70.6995L120.573 72.7567C134.571 71.1835 148.931 68.7632 159.419 66.7866L144.494 90.4655C145.624 89.9007 146.914 89.2553 148.286 88.6099ZM109.117 151.216C108.028 151.337 107.019 151.417 106.011 151.498C100.162 151.982 94.3125 152.265 88.5037 152.386C86.8498 152.426 85.9624 152.426 85.9624 152.426C85.8414 152.466 85.801 152.547 85.68 152.628C85.438 152.829 85.2363 153.031 84.9943 153.273L96.9749 172.394L110.287 151.135C109.896 151.142 109.505 151.169 109.117 151.216ZM175.716 126.891C174.466 126.206 172.005 127.174 172.005 127.174C173.324 127.497 174.619 127.915 175.878 128.424C175.71 127.932 175.655 127.408 175.716 126.891ZM170.351 122.737C169.895 123.046 169.391 123.278 168.859 123.422L169.625 125.036L170.109 124.673L169.907 124.108L170.674 122.616L170.351 122.737Z" fill="#EA7200"/>
<path d="M91.2061 99.985C91.2061 99.985 76.0386 87.3993 57.2004 84.2529C56.5147 84.2529 55.1432 87.1169 55.1432 87.1169C55.1432 87.1169 57.1601 85.3017 57.7652 85.3017C73.8604 88.4078 91.2061 99.985 91.2061 99.985ZM100.081 113.579C99.3291 118.526 99.576 123.574 100.807 128.424C100.403 124.672 101.694 115.919 101.694 115.919L100.081 113.579ZM103.993 117.048C103.238 121.676 103.417 126.408 104.518 130.965C104.155 128.101 105.607 119.751 105.607 119.751L103.993 117.048ZM107.947 120.921C107.192 124.934 107.205 129.055 107.987 133.063C107.785 130.804 109.56 123.261 109.56 123.261L107.947 120.921ZM61.6377 107.125C61.6377 107.125 64.7438 108.981 69.7862 112.772C68.5357 110.594 65.2682 108.254 61.6781 106.117L53.812 106.681L54.4171 107.609C56.797 107.448 59.2174 107.327 61.6377 107.125ZM159.701 117.25C159.701 117.25 147.882 100.711 125.212 84.0108C127.148 87.964 128.923 92.1189 130.536 96.3545C130.778 96.9596 130.738 97.484 130.254 97.484C125.252 97.484 107.705 87.8027 90.4799 89.5373C99.4352 98.0891 108.35 110.029 99.7175 105.673C99.7175 105.673 108.713 111.199 119.282 122.373C127.188 122.373 128.761 123.704 129.205 124.793C130.093 126.931 131.424 130.723 136.587 136.814C138.967 136.814 139.371 136.653 140.258 134.515C140.258 134.515 140.903 137.218 139.693 139.235C150.464 147.746 171.359 156.258 174.546 156.258C175.837 156.258 173.175 144.6 167.124 130.522C165.147 121.647 164.058 119.146 159.701 117.25ZM86.0024 72.5546C86.009 71.4365 85.9551 70.3188 85.841 69.2065C76.1193 70.2149 70.3509 72.5143 68.1323 73.5631C71.5207 72.5949 77.5715 72.3126 86.0024 72.5546ZM159.419 66.7862L144.494 90.4651C145.623 89.9003 146.914 89.2549 148.286 88.6095L163.856 63.7607C154.014 65.697 136.386 68.8838 119.363 70.699L120.573 72.7563C134.57 71.2234 148.931 68.7628 159.419 66.7862ZM79.7902 143.188C80.6373 143.228 81.6458 143.349 82.8559 143.43L78.459 136.492C77.3698 136.33 76.2807 136.088 75.1915 135.846L79.7902 143.188ZM106.01 151.498C98.0636 152.143 91.7708 152.304 88.5033 152.385C86.8494 152.425 85.9217 152.425 85.9217 152.425C85.841 152.466 85.8006 152.547 85.6796 152.627L96.9745 170.659L109.116 151.215C108.068 151.336 107.019 151.417 106.01 151.498Z" fill="#006D75"/>
<path d="M96.9746 165.818L106.01 151.498C98.0637 152.143 91.7708 152.305 88.5034 152.386L96.9746 165.818Z" fill="white"/>
</svg>
