<svg width="200" height="200" viewBox="0 0 200 200" fill="none" xmlns="http://www.w3.org/2000/svg">
<path d="M20 162.833C58.9363 166.24 83.714 177.222 95.7135 200C136.906 193.328 175.002 166.913 175.002 132.853C175.002 87.4917 120.031 80.3593 118.571 67.1386C141.685 75.5188 167.135 66.705 179.285 37.8567C143.375 35.202 117.084 22.1052 105.713 0C61.6707 7.81381 26.4333 36.3701 26.4333 67.1209C26.4333 112.101 84.2449 124.012 90.7137 133.552C59.1664 121.588 31.9552 135.215 20 162.833Z" fill="#001425"/>
<path d="M88.3596 64.7951C83.4306 59.7865 81.3776 55.8397 81.3776 50.6895C81.3776 44.7606 84.2271 41.8403 84.2271 38.5485C84.2271 35.699 82.4572 33.4602 79.0061 32.7788C79.9377 31.7347 81.0693 30.8882 82.3339 30.2893C83.5986 29.6904 84.9705 29.3514 86.3686 29.2922C101.067 29.2922 105.412 61.7864 136.083 60.6183C147.012 59.5741 157.321 54.2646 163.843 44.9376C137.057 41.4333 112.606 30.0533 100.651 10.709C88.2623 12.9655 36.2823 30.9028 37.6008 68.3878C38.9636 107.475 96.7752 118.341 112.951 135.128C125.703 148.402 116.721 161.676 108.527 166.552C95.8283 133.535 54.1045 131.155 37.4946 155.048C64.2457 158.49 88.7047 169.879 100.651 189.223C130.198 183.029 144.454 157.118 139.03 138.429C130.048 107.457 71.7763 102.059 56.2814 73.0868C48.0163 56.7866 54.8124 39.3891 69.9268 29.2922C64.3346 36.3067 61.2867 45.0105 61.2812 53.9814C62.6263 55.4415 63.1926 58.875 63.2103 58.9369C63.405 60.1316 63.759 62.6624 63.1307 64.2464C63.7961 65.9874 64.6413 67.6541 65.6527 69.2197C67.6703 69.7241 69.9534 72.3611 69.9888 72.4231C72.2188 74.9805 72.5639 76.591 72.6435 77.2016C74.0151 78.4316 75.4929 79.6174 77.0681 80.7413C78.3689 80.5908 80.36 81.2191 82.3776 82.5111C84.6961 84.0243 85.8553 85.5375 86.1827 86.6614C87.8021 87.6082 89.4569 88.5285 91.156 89.44C92.4568 89.086 94.5983 89.4931 96.7398 90.5993C98.8813 91.7054 100.474 93.254 100.943 94.4752L106.085 97.0326C107.376 96.6521 109.536 97.0326 111.704 98.1299C113.872 99.2272 115.376 100.705 115.872 101.962C117.642 102.846 119.411 103.793 121.084 104.731C122.677 104.404 125.216 105.377 126.606 106.2C128.316 107.096 129.677 108.538 130.473 110.297C132.243 111.421 133.88 112.581 135.49 113.775C136.844 113.713 138.844 114.492 140.702 116.076C142.711 117.846 143.747 119.748 143.791 121.085C145.165 122.544 146.436 124.096 147.596 125.73C149.242 126.137 150.897 128.04 151.817 129.951C153.091 132.739 152.932 134.695 152.551 135.712C154.773 142.623 155.366 151.34 151.799 161.375C151.799 161.472 151.72 161.596 151.667 161.729C159.126 153.596 164.17 143.597 163.746 131.589C162.339 92.4487 104.536 81.582 88.3596 64.7951Z" fill="#96D8D8"/>
<path d="M110.545 68.8927C103.944 61.3001 99.7225 47.8228 92.4396 42.5664C89.1743 54.1677 95.9704 66.8485 110.545 68.8927Z" fill="#C8102E"/>
<path d="M105.315 177.905C104.023 181.781 102.465 185.562 100.651 189.223C88.7049 169.87 64.2458 158.49 37.4683 155.012C65.1308 141.137 93.8021 155.738 105.315 177.905ZM163.843 44.9022C136.163 58.7776 107.509 44.1765 95.9966 22.0005C97.283 18.1328 98.8384 14.3597 100.651 10.709C88.9527 12.8151 36.2736 30.5577 37.601 68.3702C38.9638 107.457 96.7754 118.324 112.952 135.111C125.703 148.384 116.721 161.658 108.527 166.534C107.674 170.377 106.61 174.17 105.341 177.896C111.359 176.843 129.615 167.18 129.739 148.579C129.898 122.916 96.7665 116.156 71.6614 100.599C50.9721 87.7941 46.9546 75.0955 45.9104 67.0516C43.4414 48.141 56.7948 30.8585 76.2011 22.7173C73.8636 24.6601 71.7583 26.8664 69.927 29.2922C64.336 36.3108 61.2883 45.0169 61.2814 53.9903C62.6264 55.4504 63.1928 58.875 63.2105 58.9458C63.4052 60.1404 63.7591 62.6713 63.1308 64.2553C63.8048 65.9559 64.6498 67.5837 65.6529 69.1135C67.6705 69.6267 69.9535 72.2638 69.9889 72.3169C72.2189 74.8743 72.5641 76.4937 72.6437 77.1043C74.0153 78.3343 75.4931 79.5112 77.0683 80.6439C78.3691 80.4935 80.3602 81.1306 82.3778 82.4138C84.6963 83.9358 85.8555 85.4402 86.1829 86.564C87.7994 87.5079 89.4571 88.4342 91.1562 89.3427C92.457 88.9887 94.5985 89.3958 96.74 90.5019C98.8815 91.6081 100.474 93.1567 100.943 94.3867L106.085 96.9353C107.377 96.5636 109.536 96.9353 111.704 98.0414C113.872 99.1475 115.376 100.608 115.872 101.864C117.642 102.779 119.379 103.702 121.084 104.634C122.677 104.307 125.217 105.28 126.606 106.112C128.318 107.005 129.68 108.448 130.473 110.209C132.243 111.333 133.88 112.492 135.49 113.687C136.844 113.625 138.844 114.404 140.703 115.988C142.711 117.757 143.747 119.66 143.791 120.987C145.163 122.448 146.434 124 147.596 125.633C149.242 126.049 150.897 127.952 151.817 129.854C153.091 132.642 152.932 134.597 152.552 135.615C154.773 142.535 155.366 151.251 151.799 161.278C161.339 145.119 160.419 129.067 149.764 115.51C127.482 87.1923 71.4314 83.7765 71.6437 51.2824C71.7358 44.3996 74.3745 37.7949 79.0505 32.7434C79.9787 31.7094 81.1043 30.8715 82.3611 30.2788C83.6179 29.6861 84.9805 29.3507 86.3688 29.2922C101.067 29.2922 105.412 61.7864 136.083 60.6183C147.03 59.5652 157.366 54.2557 163.852 44.9376L163.843 44.9022Z" fill="#639FB6"/>
</svg>
