<svg width="200" height="200" viewBox="0 0 200 200" fill="none" xmlns="http://www.w3.org/2000/svg">
<path d="M200 91.4299C200 71.1395 187.374 51.1315 165.026 38.8281L156.434 45.6454C171.722 55.2864 180.718 69.647 180.718 85.9842C180.718 124.064 133.642 158.594 81.2826 158.594C76.0034 158.596 70.7313 158.205 65.5102 157.424L47.8418 170.534C59.6564 174.435 72.0279 176.383 84.4694 176.303C146.672 176.303 200 134.31 200 91.4299Z" fill="#002868"/>
<path d="M8.51149 105.749C8.51149 66.3384 57.8055 33.1396 107.987 33.1396H109.036L60.5082 87.3953L88.3823 82.9983L33.4409 136.165L55.7482 132.131L40.1775 149.92C21.2586 140.965 8.51149 125.515 8.51149 105.749ZM120.895 105.588L88.9067 111.841L159.863 53.5107L126.825 57.9479L191.045 7L116.297 26.6853C115.329 26.6853 114.32 26.645 113.312 26.645C52.0371 26.645 0 68.2747 0 112.244C0 133.785 11.5772 150.929 29.6087 162.022L1.97656 193.648L120.895 105.588Z" fill="#002868"/>
</svg>
