<svg width="200" height="200" viewBox="0 0 200 200" fill="none" xmlns="http://www.w3.org/2000/svg">
<path d="M148.9 107.894C148.299 107.594 147.699 107.234 147.038 106.933C146.859 106.819 146.651 106.757 146.438 106.753C146.176 106.752 145.919 106.825 145.696 106.963C145.473 107.101 145.293 107.299 145.177 107.534L140.734 116.06C140.65 116.226 140.602 116.408 140.592 116.594C140.581 116.78 140.609 116.966 140.674 117.141C140.72 117.319 140.802 117.486 140.916 117.63C141.029 117.775 141.172 117.895 141.334 117.981C141.935 118.281 142.595 118.642 143.196 118.942C143.397 119.057 143.624 119.119 143.856 119.122C144.118 119.123 144.375 119.05 144.598 118.912C144.821 118.774 145.001 118.576 145.117 118.341L149.5 109.815C149.59 109.651 149.646 109.469 149.664 109.282C149.683 109.095 149.664 108.907 149.608 108.727C149.552 108.548 149.46 108.382 149.338 108.239C149.217 108.096 149.067 107.978 148.9 107.894ZM85.7956 131.13H88.7977L87.2966 124.406L85.7956 131.13ZM99.245 145.66L97.5038 152.385H100.986L99.245 145.66ZM98.9447 108.194H101.106C101.477 108.176 101.827 108.017 102.084 107.749C102.341 107.481 102.485 107.125 102.487 106.753V97.1466C102.483 96.7816 102.336 96.4327 102.078 96.1746C101.82 95.9165 101.471 95.7697 101.106 95.7656H98.9447C98.5798 95.7697 98.2309 95.9165 97.9728 96.1746C97.7146 96.4327 97.5678 96.7816 97.5638 97.1466V106.753C97.5597 106.939 97.5921 107.123 97.6594 107.296C97.7266 107.469 97.8272 107.626 97.9554 107.76C98.0837 107.894 98.2371 108.001 98.4069 108.076C98.5766 108.15 98.7594 108.191 98.9447 108.194ZM82.4332 104.172C83.3939 103.991 84.3546 103.811 85.3753 103.691C85.7334 103.632 86.0556 103.439 86.2759 103.151C86.3907 102.998 86.4715 102.823 86.513 102.636C86.5544 102.45 86.5555 102.257 86.5161 102.07L85.8556 98.1073C85.7859 97.7441 85.578 97.4222 85.2755 97.2094C84.9731 96.9965 84.5999 96.9095 84.2345 96.9665C83.2738 97.0866 82.3132 97.2667 81.3525 97.4468H81.1123L82.193 104.232L82.4332 104.172ZM103.628 124.045H100.746V129.449H103.628C103.755 129.451 103.88 129.427 103.998 129.379C104.115 129.332 104.221 129.261 104.311 129.171C104.401 129.082 104.471 128.975 104.519 128.858C104.567 128.741 104.59 128.615 104.589 128.488V125.066C104.594 124.804 104.497 124.55 104.317 124.359C104.137 124.168 103.89 124.056 103.628 124.045Z" fill="#00205B"/>
<path d="M102.487 199.458C102.2 199.45 101.925 199.344 101.707 199.158C99.422 196.741 97.5553 193.962 96.1827 190.932C95.4418 189.311 94.8587 187.622 94.4415 185.889C93.9524 184.043 93.6506 182.152 93.5409 180.245C88.7544 182.5 83.8195 184.426 78.7706 186.009C73.281 187.762 67.6859 189.166 62.0189 190.212H61.8388C61.6995 190.209 61.5625 190.175 61.4379 190.113C61.3133 190.051 61.2041 189.961 61.1183 189.852C60.9913 189.612 60.949 189.337 60.9982 189.071C62.0107 185.645 63.4853 182.372 65.3812 179.344C59.8059 180.483 54.1741 181.325 48.5094 181.866H48.3893C48.2479 181.877 48.1063 181.849 47.9795 181.785C47.8526 181.722 47.7453 181.625 47.6688 181.506C47.5763 181.389 47.5164 181.249 47.4953 181.102C47.4742 180.954 47.4926 180.803 47.5487 180.665C48.4565 178.101 49.5192 175.595 50.731 173.16C44.2917 174.771 37.7529 175.955 31.1574 176.702H31.0373C30.8769 176.696 30.7209 176.648 30.5842 176.564C30.4476 176.48 30.3348 176.362 30.2567 176.222C30.1913 176.079 30.1626 175.921 30.173 175.764C30.1835 175.607 30.2329 175.455 30.3168 175.322C35.4001 167.917 41.4589 161.232 48.3293 155.448C43.3498 153.37 38.6661 150.645 34.3996 147.342C34.2778 147.254 34.1808 147.135 34.1177 146.999C34.0547 146.862 34.0277 146.711 34.0393 146.561C34.032 146.414 34.0679 146.267 34.1425 146.139C34.2171 146.011 34.3273 145.907 34.4596 145.841C40.2236 142.599 46.2982 139.944 52.5923 137.915C47.8319 137.052 43.2079 135.558 38.8427 133.472C38.7158 133.433 38.6056 133.353 38.5295 133.244C38.4533 133.136 38.4157 133.004 38.4224 132.872C38.391 132.746 38.391 132.615 38.4224 132.489C38.4538 132.363 38.5157 132.247 38.6026 132.151C40.107 130.244 41.8413 128.53 43.7662 127.048C40.9834 125.872 38.2938 124.487 35.7205 122.905C33.1085 121.274 30.6381 119.426 28.3354 117.381C28.1609 117.237 28.0504 117.03 28.0279 116.805C28.0054 116.58 28.0728 116.356 28.2153 116.18C29.9857 114.128 31.9569 112.257 34.0994 110.596C31.0861 108.631 28.1799 106.507 25.3933 104.232C22.486 101.916 19.7004 99.4506 17.0476 96.8467C16.8969 96.659 16.8125 96.4268 16.8074 96.1862C16.8234 95.9661 16.9073 95.7563 17.0476 95.5858C18.3829 94.2926 19.8522 93.1454 21.4306 92.1634C19.3915 90.4227 17.5218 88.4928 15.8467 86.3995C13.9542 84.041 12.2288 81.5532 10.6831 78.9542C10.5743 78.7298 10.5529 78.473 10.6231 78.2337C10.6711 78.1113 10.7439 78.0001 10.8369 77.9072C10.9299 77.8142 11.041 77.7414 11.1634 77.6934C13.5665 76.7529 16.062 76.0686 18.6086 75.6519C16.5833 71.1947 15.1502 66.4915 14.3457 61.6622C14.3142 61.5365 14.3143 61.4051 14.3457 61.2794C14.3771 61.1537 14.439 61.0378 14.5258 60.9417C14.5997 60.8338 14.6981 60.745 14.8129 60.6824C14.9276 60.6198 15.0556 60.5852 15.1863 60.5814C15.2709 60.5725 15.356 60.5938 15.4265 60.6415C20.3373 62.0253 25.1186 63.8334 29.7164 66.0452C30.3077 62.9986 31.318 60.0486 32.7185 57.2791C32.7966 57.1389 32.9093 57.0211 33.046 56.937C33.1827 56.8529 33.3387 56.8053 33.499 56.7988C33.6931 56.8033 33.8814 56.8661 34.0394 56.9789C36.3714 58.686 38.6158 60.5096 40.7641 62.4427C42.7682 64.2172 44.6725 66.1014 46.468 68.0866C47.4724 66.5427 48.7551 65.1989 50.2507 64.1239C50.4043 64.0026 50.5954 63.9389 50.7911 63.9437C51.0419 63.954 51.2789 64.0617 51.4515 64.2439C56.8553 70.9686 65.081 80.155 74.0873 86.6996C71.7826 79.9153 68.9313 73.3291 65.5614 67.0059C65.4931 66.8888 65.4522 66.7577 65.4418 66.6225C65.4314 66.4873 65.4517 66.3515 65.5013 66.2253C65.5626 66.108 65.6476 66.0047 65.751 65.922C65.8544 65.8393 65.9738 65.779 66.1017 65.745C67.6089 65.4625 69.1334 65.2819 70.6649 65.2046C66.7001 58.9581 63.6283 52.1879 61.5386 45.0906C61.5071 44.9553 61.507 44.8147 61.5382 44.6794C61.5694 44.5441 61.6311 44.4178 61.7187 44.31C61.7876 44.1974 61.8848 44.1048 62.0007 44.0415C62.1167 43.9783 62.2472 43.9466 62.3792 43.9497H62.4392C66.1126 44.1374 69.7457 44.8035 73.2467 45.9312C72.8254 43.0496 72.6847 40.1339 72.8265 37.2251C72.9662 34.0814 73.3273 30.9515 73.9072 27.8586C73.9365 27.6572 74.0379 27.4732 74.1924 27.3407C74.3469 27.2083 74.5443 27.1363 74.7478 27.1381C74.8518 27.1224 74.958 27.1436 75.048 27.1981C77.6209 28.2005 80.1105 29.4052 82.4932 30.8007C82.3758 28.1578 82.436 25.51 82.6733 22.8751C82.8942 20.1658 83.3156 17.4765 83.9342 14.8295C83.983 14.6427 84.0915 14.477 84.2433 14.3578C84.3951 14.2385 84.5818 14.1722 84.7748 14.1691C84.8788 14.1534 84.9851 14.1746 85.0751 14.2291C87.0632 14.9585 88.9739 15.8837 90.779 16.991C92.7004 11.3471 95.8226 6.00337 98.8246 1.01988C98.9098 0.890717 99.0257 0.784706 99.1619 0.711356C99.2982 0.638006 99.4505 0.599609 99.6052 0.599609C99.7599 0.599609 99.9122 0.638006 100.048 0.711356C100.185 0.784706 100.301 0.890717 100.386 1.01988C102.367 4.2021 103.748 6.72388 105.009 9.06551C106.329 11.6344 107.492 14.2811 108.491 16.991C110.263 15.8618 112.156 14.9353 114.135 14.2291C114.229 14.1856 114.332 14.165 114.436 14.1691C114.633 14.1543 114.828 14.214 114.984 14.3362C115.14 14.4584 115.244 14.6344 115.276 14.8295C115.915 17.4749 116.357 20.1642 116.597 22.8751C116.845 25.5097 116.886 28.1598 116.717 30.8007C119.087 29.3812 121.579 28.1756 124.162 27.1981C124.256 27.1546 124.359 27.134 124.463 27.1381C124.671 27.1438 124.871 27.2172 125.034 27.3473C125.196 27.4773 125.312 27.6568 125.363 27.8586C125.943 30.9515 126.304 34.0814 126.444 37.2251C126.586 40.1339 126.445 43.0496 126.024 45.9312C129.523 44.7983 133.157 44.132 136.831 43.9498C136.972 43.9461 137.111 43.9771 137.236 44.0399C137.362 44.1027 137.47 44.1955 137.552 44.3101C137.643 44.4035 137.703 44.5226 137.725 44.6515C137.746 44.7803 137.728 44.9126 137.672 45.0306C135.606 52.1367 132.532 58.9101 128.545 65.1447C130.082 65.2032 131.609 65.4043 133.109 65.7451C133.24 65.7704 133.363 65.8274 133.468 65.911C133.573 65.9947 133.655 66.1026 133.709 66.2254C133.768 66.347 133.799 66.4804 133.799 66.6157C133.799 66.7509 133.768 66.8844 133.709 67.006C130.587 73.1302 127.345 79.7348 125.123 86.6396C134.97 79.4346 142.415 70.9086 147.759 64.244C147.852 64.1479 147.964 64.0718 148.088 64.0202C148.212 63.9686 148.345 63.9426 148.479 63.9438C148.657 63.939 148.829 64.0037 148.96 64.1239C150.469 65.1825 151.755 66.5293 152.742 68.0867C154.522 66.0672 156.427 64.1621 158.446 62.3827C160.548 60.5214 162.829 58.7202 165.171 56.9789C165.329 56.8661 165.517 56.8033 165.711 56.7988C165.865 56.8061 166.014 56.8476 166.149 56.9203C166.284 56.9931 166.401 57.0952 166.492 57.2191C167.954 59.9835 168.967 62.9627 169.494 66.0452C174.089 63.8106 178.87 61.9824 183.784 60.5814H184.024C184.149 60.5803 184.273 60.6066 184.387 60.6585C184.501 60.7103 184.603 60.7865 184.684 60.8816C184.844 61.0878 184.928 61.3417 184.925 61.6021C184.084 66.43 182.631 71.1312 180.602 75.5919C183.15 76.001 185.646 76.6854 188.047 77.6333C188.172 77.6803 188.285 77.7538 188.379 77.8488C188.473 77.9437 188.545 78.0578 188.591 78.1833C188.636 78.3088 188.654 78.4427 188.643 78.5757C188.632 78.7088 188.593 78.8379 188.527 78.9542C187.022 81.565 185.316 84.0543 183.424 86.3994C181.728 88.4941 179.838 90.424 177.78 92.1634C179.369 93.1302 180.839 94.2787 182.163 95.5858C182.244 95.6625 182.307 95.756 182.349 95.8596C182.39 95.9633 182.409 96.0747 182.403 96.1862C182.409 96.3068 182.391 96.4274 182.35 96.5408C182.308 96.6543 182.245 96.7583 182.163 96.8467C179.532 99.4519 176.766 101.917 173.877 104.232C171.055 106.513 168.113 108.615 165.111 110.596C167.28 112.225 169.255 114.099 170.995 116.18C171.137 116.356 171.205 116.58 171.182 116.805C171.16 117.03 171.049 117.237 170.875 117.381C168.593 119.425 166.142 121.273 163.55 122.905C160.962 124.499 158.252 125.885 155.444 127.048C157.388 128.528 159.143 130.242 160.668 132.151C160.755 132.247 160.816 132.363 160.848 132.489C160.879 132.615 160.879 132.746 160.848 132.872C160.832 133.007 160.778 133.134 160.693 133.24C160.608 133.347 160.496 133.427 160.368 133.472C156.038 135.594 151.429 137.09 146.678 137.915C152.948 139.956 159.002 142.61 164.751 145.841C164.885 145.91 165 146.013 165.084 146.139C165.168 146.265 165.219 146.41 165.231 146.561C165.235 146.71 165.205 146.858 165.142 146.994C165.08 147.129 164.987 147.248 164.871 147.342C159.707 151.125 155.384 153.706 150.881 155.508C157.78 161.24 163.843 167.909 168.893 175.321C169.004 175.454 169.07 175.619 169.081 175.792C169.091 175.965 169.047 176.136 168.953 176.282C168.888 176.432 168.778 176.558 168.638 176.644C168.499 176.73 168.336 176.771 168.173 176.762C168.127 176.758 168.084 176.737 168.053 176.702C161.477 175.955 154.958 174.772 148.539 173.16C149.62 175.441 150.701 178.023 151.721 180.665C151.763 180.806 151.774 180.953 151.753 181.098C151.732 181.243 151.68 181.382 151.601 181.506C151.516 181.615 151.406 181.705 151.282 181.767C151.157 181.829 151.02 181.863 150.881 181.866H150.761C145.092 181.355 139.459 180.513 133.889 179.344C135.729 182.394 137.181 185.661 138.212 189.071C138.268 189.209 138.287 189.36 138.265 189.507C138.244 189.655 138.184 189.795 138.092 189.912C138.002 190.016 137.891 190.102 137.768 190.164C137.644 190.226 137.509 190.262 137.371 190.272C137.339 190.276 137.306 190.273 137.274 190.262C137.243 190.252 137.215 190.235 137.191 190.212C131.062 188.976 125.008 187.392 119.059 185.468C113.234 183.607 107.831 181.626 104.168 180.005C104.108 179.945 104.108 179.945 104.048 179.945C103.971 179.946 103.897 179.97 103.833 180.013C103.769 180.055 103.719 180.115 103.688 180.185C103.328 182.046 103.988 184.448 105.669 187.21C106.72 188.952 107.947 190.582 109.332 192.073V192.133C109.498 192.34 109.584 192.6 109.572 192.865C109.561 193.13 109.455 193.382 109.272 193.574L103.147 199.158C102.975 199.34 102.738 199.448 102.487 199.458Z" fill="#00205B"/>
<path d="M99.6053 0.000252639C99.3724 -0.00450589 99.1431 0.0580456 98.9449 0.1804C98.7043 0.309767 98.4984 0.49511 98.3444 0.720786C96.3631 3.96304 94.9821 6.42475 93.7212 8.82645C92.485 11.1963 91.402 13.6431 90.479 16.1516C88.8151 15.1983 87.0902 14.3559 85.3154 13.6298C85.1397 13.5803 84.9572 13.56 84.775 13.5697C84.47 13.5779 84.1755 13.683 83.9344 13.8699C83.7932 13.9673 83.6727 14.0918 83.58 14.2361C83.4872 14.3804 83.424 14.5416 83.394 14.7105C82.7549 17.3762 82.3134 20.0855 82.0731 22.8162C81.8654 25.1316 81.8052 27.458 81.893 29.781C79.7775 28.5672 77.569 27.5232 75.2883 26.6589C75.1391 26.5839 74.975 26.5429 74.808 26.5388C74.4633 26.5309 74.1273 26.6483 73.8624 26.869C73.5975 27.0898 73.4215 27.3991 73.3671 27.7396H73.307C72.7303 30.8532 72.3692 34.0029 72.2263 37.1662C72.1068 39.8118 72.2072 42.4627 72.5265 45.0917C69.2414 44.1292 65.8571 43.545 62.4394 43.3505H62.3794C62.1516 43.3599 61.9289 43.4209 61.7282 43.5291C61.5275 43.6373 61.3541 43.7897 61.221 43.9748C61.0879 44.16 60.9987 44.373 60.9602 44.5977C60.9216 44.8224 60.9347 45.0529 60.9984 45.2718C62.084 48.8505 63.3874 52.3595 64.9011 55.7791C66.2745 58.8475 67.8594 61.8167 69.6444 64.6654C68.4115 64.751 67.187 64.9316 65.9819 65.2057C65.7683 65.2426 65.5678 65.3338 65.3996 65.4705C65.2313 65.6072 65.1011 65.7848 65.0212 65.9863C64.9034 66.1754 64.8409 66.3938 64.8409 66.6167C64.8409 66.8396 64.9034 67.058 65.0212 67.2471C68.0723 73.0215 70.7204 78.9999 72.9467 85.1396C64.5408 78.7152 56.9756 70.1892 51.9321 63.8848C51.6349 63.5655 51.2266 63.3721 50.7913 63.3444C50.4844 63.3423 50.1867 63.4486 49.9507 63.6447H49.8906C49.0406 64.2636 48.2559 64.9677 47.549 65.7461C47.122 66.1875 46.7398 66.6702 46.4082 67.1871C44.7871 65.3859 42.9858 63.6447 41.1846 61.9635C39.0231 60.1022 36.7415 58.2409 34.3398 56.5597C34.2276 56.4549 34.0951 56.3742 33.9506 56.3226C33.806 56.2709 33.6524 56.2494 33.4992 56.2595C33.2376 56.2663 32.9815 56.3351 32.7518 56.4604C32.5221 56.5857 32.3255 56.7638 32.1783 56.98C31.3776 58.4704 30.7337 60.0399 30.2569 61.6632C29.8607 62.8221 29.5398 64.0054 29.2962 65.2057C27.1948 64.245 25.0933 63.3444 23.0519 62.5038C20.29 61.4831 17.7682 60.6425 15.5467 60.0421H15.1865C14.7581 60.0471 14.3486 60.2195 14.0457 60.5224C13.9107 60.7002 13.8143 60.9041 13.7626 61.1212C13.7109 61.3383 13.705 61.5638 13.7454 61.7833C14.2103 64.3408 14.8319 66.8673 15.6067 69.3486C16.1514 71.3507 16.8748 73.2999 17.7682 75.1727C15.4634 75.649 13.1959 76.2911 10.9835 77.094C10.5874 77.2799 10.2688 77.5985 10.0829 77.9946C10.0121 78.2013 9.98621 78.4206 10.0069 78.638C10.0276 78.8555 10.0945 79.066 10.203 79.2555C11.7343 81.8827 13.4604 84.3915 15.3666 86.7608C16.9126 88.684 18.62 90.4718 20.4702 92.1045C19.1064 92.9911 17.8387 94.0174 16.6875 95.1666C16.5398 95.2931 16.4206 95.4495 16.3378 95.6254C16.255 95.8014 16.2105 95.9929 16.2072 96.1873C16.21 96.3906 16.2541 96.5912 16.3366 96.7769C16.4192 96.9627 16.5386 97.1298 16.6875 97.2681C19.3398 99.8914 22.1255 102.376 25.0333 104.713C27.6151 106.815 30.317 108.796 33.079 110.657C32.2384 111.318 31.4578 112.038 30.7373 112.699C29.6566 113.72 28.6959 114.74 27.7953 115.761C27.5613 116.073 27.4348 116.452 27.435 116.842C27.491 117.234 27.6821 117.595 27.9754 117.862C29.1226 118.888 30.3253 119.85 31.5779 120.744C32.8106 121.693 34.0933 122.575 35.4206 123.386C36.7604 124.238 38.1432 125.019 39.5635 125.728C40.5842 126.208 41.6049 126.749 42.6256 127.169C40.9919 128.575 39.485 130.122 38.1225 131.792C37.8707 132.138 37.7631 132.569 37.8223 132.993C37.8689 133.21 37.9631 133.414 38.098 133.591C38.233 133.767 38.4054 133.912 38.6028 134.014C40.9333 135.19 43.3648 136.154 45.8679 136.896C47.2489 137.316 48.7499 137.676 50.371 138.037C48.0894 138.817 45.8679 139.718 43.6463 140.678C40.4124 142.025 37.2643 143.569 34.2198 145.302H34.1597C33.9474 145.424 33.7699 145.599 33.6438 145.809C33.5178 146.019 33.4473 146.258 33.4392 146.502C33.4103 146.748 33.4514 146.996 33.5576 147.219C33.6639 147.443 33.8309 147.631 34.0396 147.763C36.2468 149.459 38.5525 151.023 40.9445 152.447C42.9442 153.661 45.0314 154.724 47.1888 155.629C40.5951 161.298 34.7627 167.796 29.8367 174.962C29.6862 175.191 29.5962 175.454 29.5752 175.727C29.5541 176 29.6028 176.274 29.7166 176.523C29.8512 176.756 30.0435 176.95 30.2748 177.087C30.5062 177.223 30.7689 177.298 31.0375 177.304H31.2777C35.2405 176.764 38.7229 176.283 41.9051 175.683C44.7872 175.202 47.3089 174.662 49.6505 174.062C48.7499 176.043 47.8493 178.205 47.0087 180.486C46.9183 180.702 46.8873 180.939 46.9189 181.171C46.9506 181.403 47.0438 181.623 47.1889 181.807C47.3145 182.012 47.4913 182.181 47.7018 182.296C47.9124 182.412 48.1494 182.471 48.3897 182.468H48.5698C52.1123 182.047 55.2345 181.687 57.9964 181.267C60.278 180.906 62.3194 180.546 64.1807 180.186C63.5803 181.267 63.0399 182.347 62.4996 183.488C61.7791 185.169 61.1186 186.911 60.4581 188.892C60.3898 189.115 60.3759 189.352 60.4177 189.582C60.4595 189.811 60.5557 190.028 60.6983 190.213C60.8415 190.396 61.0235 190.544 61.2312 190.648C61.4389 190.752 61.667 190.808 61.8992 190.813H62.1394C65.0814 190.213 67.9635 189.613 70.7254 188.892C73.5473 188.232 76.3093 187.451 78.9511 186.61C81.5929 185.77 84.2348 184.809 86.6965 183.849C88.858 183.008 90.9595 182.047 93.0009 181.147C93.1833 182.783 93.464 184.407 93.8415 186.01C94.3059 187.776 94.9082 189.502 95.6427 191.174C97.0787 194.232 98.9828 197.048 101.287 199.519C101.445 199.675 101.633 199.798 101.839 199.88C102.045 199.963 102.266 200.003 102.488 200C102.889 200.006 103.276 199.855 103.568 199.579L109.632 193.996C109.929 193.682 110.119 193.283 110.173 192.855C110.181 192.646 110.149 192.438 110.076 192.242C110.004 192.047 109.894 191.867 109.753 191.714C104.589 185.83 103.989 182.347 104.229 180.666C109.017 182.698 113.907 184.481 118.879 186.01C122.001 187.031 125.063 187.931 128.065 188.712C131.308 189.552 134.37 190.273 137.072 190.813H137.372C137.604 190.808 137.832 190.752 138.04 190.648C138.248 190.544 138.43 190.396 138.573 190.213C138.702 190.021 138.79 189.805 138.832 189.578C138.873 189.35 138.867 189.117 138.813 188.892C138.152 186.911 137.492 185.169 136.771 183.488C136.231 182.347 135.691 181.267 135.09 180.186C136.892 180.606 138.933 180.906 141.215 181.267C144.037 181.687 147.099 182.047 150.701 182.468H150.881C151.113 182.463 151.342 182.406 151.549 182.302C151.757 182.199 151.939 182.05 152.082 181.867C152.212 181.665 152.296 181.436 152.327 181.197C152.359 180.958 152.336 180.715 152.262 180.486C151.422 178.205 150.521 176.043 149.56 174.062C151.962 174.662 154.484 175.202 157.366 175.683C160.548 176.283 164.031 176.764 167.993 177.304H168.173C168.445 177.313 168.714 177.245 168.948 177.107C169.182 176.968 169.372 176.766 169.494 176.523C169.624 176.289 169.681 176.022 169.66 175.755C169.639 175.488 169.539 175.233 169.374 175.022C164.465 167.826 158.631 161.305 152.022 155.629C154.199 154.725 156.306 153.661 158.327 152.447C160.71 151.031 163.015 149.488 165.231 147.823C165.432 147.669 165.592 147.468 165.696 147.238C165.801 147.007 165.847 146.755 165.832 146.502C165.812 146.253 165.73 146.013 165.594 145.803C165.457 145.594 165.271 145.421 165.051 145.302C161.994 143.593 158.847 142.049 155.625 140.678C153.403 139.718 151.182 138.817 148.9 138.037C150.461 137.676 151.962 137.316 153.403 136.896C155.903 136.144 158.333 135.18 160.668 134.014C160.864 133.91 161.035 133.765 161.17 133.589C161.305 133.412 161.4 133.209 161.449 132.993C161.482 132.779 161.467 132.56 161.405 132.352C161.343 132.144 161.234 131.953 161.088 131.792C159.726 130.122 158.219 128.575 156.585 127.169C157.666 126.749 158.687 126.208 159.707 125.728C161.088 125.007 162.529 124.227 163.85 123.386C165.178 122.575 166.46 121.693 167.693 120.744C168.946 119.85 170.148 118.888 171.296 117.862C171.443 117.736 171.562 117.58 171.645 117.404C171.728 117.228 171.773 117.036 171.776 116.842C171.801 116.651 171.788 116.456 171.736 116.271C171.685 116.085 171.596 115.912 171.476 115.761C170.575 114.74 169.614 113.72 168.534 112.699C167.771 111.974 166.97 111.293 166.132 110.657C168.931 108.813 171.636 106.829 174.237 104.713C177.145 102.376 179.931 99.8914 182.583 97.2681C182.734 97.1473 182.851 96.9903 182.925 96.8118C182.998 96.6333 183.025 96.4391 183.004 96.2474C183.012 96.048 182.979 95.849 182.906 95.663C182.834 95.477 182.724 95.308 182.583 95.1666C181.399 94.0307 180.112 93.0057 178.741 92.1045C180.606 90.4874 182.314 88.6983 183.844 86.7608C185.79 84.4079 187.537 81.8975 189.068 79.2555C189.166 79.0722 189.222 78.8695 189.233 78.6618C189.243 78.4542 189.207 78.2468 189.128 78.0547C189.075 77.8456 188.971 77.6533 188.824 77.4958C188.677 77.3382 188.492 77.2207 188.287 77.154C186.093 76.2961 183.821 75.6526 181.502 75.2327C182.324 73.3305 183.046 71.3864 183.664 69.4086C184.431 66.905 185.053 64.359 185.525 61.7833C185.555 61.5597 185.538 61.3324 185.476 61.1155C185.414 60.8986 185.308 60.6967 185.165 60.5224C185.022 60.3629 184.846 60.237 184.649 60.1539C184.451 60.0709 184.238 60.0327 184.024 60.0421H183.664C181.442 60.6425 178.921 61.4831 176.219 62.5038C174.177 63.3444 172.076 64.245 169.974 65.2057C169.674 64.0649 169.374 62.8641 169.014 61.6632C168.507 60.0415 167.843 58.473 167.032 56.98C166.897 56.7656 166.712 56.5878 166.492 56.4621C166.272 56.3365 166.025 56.2669 165.771 56.2595C165.446 56.2576 165.13 56.3631 164.871 56.5597C162.508 58.2516 160.243 60.0758 158.086 62.0235C156.242 63.6376 154.498 65.3619 152.862 67.1871C152.51 66.6686 152.108 66.1859 151.662 65.7461C150.99 64.9547 150.224 64.2489 149.38 63.6447C149.112 63.4652 148.801 63.3615 148.479 63.3444C148.044 63.3721 147.636 63.5655 147.339 63.8848C144.133 67.9532 140.705 71.8418 137.071 75.5329C135.03 77.5743 132.989 79.4957 130.947 81.2969C129.386 82.6179 127.885 83.8787 126.324 85.0796C128.525 78.9491 131.174 72.9889 134.249 67.2471C134.339 67.0489 134.385 66.834 134.385 66.6167C134.385 66.3994 134.339 66.1845 134.249 65.9863C134.165 65.7767 134.025 65.5937 133.846 65.4564C133.666 65.3191 133.453 65.2325 133.229 65.2057C132.024 64.927 130.8 64.7463 129.566 64.6654C131.386 61.8373 132.973 58.8653 134.31 55.7791C135.885 52.3849 137.19 48.8715 138.212 45.2718C138.29 45.0533 138.314 44.8193 138.283 44.5894C138.252 44.3595 138.166 44.1406 138.032 43.9509C137.889 43.7681 137.707 43.6194 137.499 43.5156C137.292 43.4118 137.063 43.3554 136.831 43.3505H136.771C133.349 43.5466 129.963 44.1513 126.684 45.1517C127.052 42.527 127.173 39.8735 127.044 37.2262C126.857 34.0636 126.476 30.9155 125.904 27.7996C125.849 27.4591 125.673 27.1498 125.408 26.929C125.143 26.7082 124.807 26.5909 124.463 26.5988C124.3 26.5851 124.136 26.6056 123.982 26.6588C121.701 27.5452 119.493 28.6092 117.378 29.8411C117.435 27.5179 117.375 25.1932 117.198 22.8762C116.957 20.1257 116.516 17.3965 115.877 14.7105C115.797 14.3922 115.61 14.1111 115.348 13.9143C115.086 13.7174 114.763 13.617 114.436 13.6297C114.293 13.6201 114.15 13.6405 114.015 13.6898C112.205 14.3545 110.457 15.1783 108.792 16.1515C107.857 13.6674 106.774 11.2414 105.549 8.88643C104.289 6.48476 102.908 4.02302 100.926 0.780763C100.794 0.558389 100.608 0.372639 100.386 0.240449C100.154 0.0874418 99.8831 0.00408653 99.6053 0.000252639ZM99.6053 1.20107C99.7254 1.20107 99.8455 1.20107 99.9056 1.32117C103.148 6.6649 106.15 12.0086 108.011 17.5325C108.039 17.5876 108.082 17.6338 108.135 17.6656C108.189 17.6975 108.25 17.7138 108.311 17.7126C108.344 17.7166 108.377 17.7133 108.408 17.703C108.439 17.6926 108.468 17.6754 108.492 17.6526C110.346 16.4876 112.318 15.5215 114.376 14.7706H114.436C114.498 14.7694 114.559 14.7857 114.612 14.8176C114.665 14.8494 114.708 14.8955 114.736 14.9507C115.965 20.3224 116.43 25.8406 116.117 31.3421C116.115 31.3822 116.121 31.4223 116.135 31.4598C116.149 31.4974 116.171 31.5314 116.2 31.5598C116.228 31.5882 116.262 31.6102 116.299 31.6244C116.337 31.6387 116.377 31.6448 116.417 31.6423H116.597C119.067 30.0921 121.681 28.7851 124.403 27.7396H124.463C124.583 27.7396 124.763 27.7997 124.763 27.9798C125.904 34.044 126.324 40.5286 125.363 46.3527C125.303 46.5328 125.424 46.6529 125.604 46.6529H125.724C129.311 45.4394 133.049 44.7321 136.832 44.5514H136.892C136.934 44.5524 136.976 44.5636 137.013 44.5841C137.05 44.6046 137.082 44.6338 137.105 44.6691C137.129 44.7045 137.144 44.7449 137.148 44.7872C137.153 44.8294 137.147 44.8721 137.132 44.9117C135.043 52.1153 131.907 58.9732 127.825 65.2659C127.801 65.3083 127.786 65.3557 127.782 65.4046C127.778 65.4535 127.785 65.5027 127.802 65.5486C127.819 65.5945 127.846 65.6361 127.881 65.6702C127.917 65.7044 127.959 65.7303 128.005 65.7462C129.679 65.7843 131.346 65.965 132.989 66.2865C133.035 66.3023 133.077 66.3283 133.113 66.3624C133.148 66.3966 133.175 66.4381 133.192 66.4841C133.209 66.53 133.216 66.5792 133.212 66.6281C133.208 66.677 133.193 66.7243 133.169 66.7668C129.927 73.1312 126.564 80.0961 124.283 87.4212C124.274 87.4653 124.275 87.5109 124.286 87.5546C124.297 87.5982 124.317 87.6388 124.346 87.6734C124.375 87.708 124.411 87.7356 124.452 87.7543C124.493 87.773 124.538 87.7823 124.583 87.7815C124.643 87.7815 124.643 87.7214 124.703 87.7214C134.55 80.6365 142.175 72.1706 148.239 64.6653C148.263 64.6236 148.298 64.5899 148.341 64.5685C148.384 64.5471 148.432 64.539 148.48 64.5452C148.512 64.5412 148.545 64.5445 148.576 64.5549C148.608 64.5653 148.636 64.5825 148.66 64.6053C150.207 65.6947 151.498 67.1086 152.442 68.7482C152.525 68.8233 152.631 68.866 152.743 68.8683C152.803 68.8683 152.863 68.8082 152.983 68.7482C156.769 64.5445 160.996 60.7601 165.592 57.4603C165.648 57.4309 165.709 57.4107 165.772 57.4002C165.892 57.4002 165.952 57.4603 166.012 57.5804C167.633 60.4024 168.413 63.6446 169.074 66.5266C169.071 66.559 169.075 66.5916 169.086 66.6221C169.097 66.6527 169.114 66.6805 169.137 66.7034C169.16 66.7264 169.188 66.744 169.219 66.755C169.249 66.7659 169.282 66.77 169.314 66.7668H169.434C174.106 64.4865 178.968 62.6182 183.964 61.183H184.024C184.069 61.1821 184.114 61.1914 184.155 61.2101C184.196 61.2288 184.232 61.2565 184.261 61.291C184.29 61.3256 184.311 61.3662 184.322 61.4099C184.333 61.4535 184.334 61.4991 184.325 61.5432C183.517 66.471 182.021 71.261 179.882 75.7731C179.87 75.8165 179.866 75.8618 179.872 75.9064C179.878 75.9511 179.892 75.9941 179.914 76.0332C179.937 76.0723 179.966 76.1065 180.002 76.134C180.038 76.1615 180.078 76.1817 180.122 76.1935C182.773 76.5775 185.371 77.2624 187.867 78.2349C187.908 78.2486 187.945 78.2721 187.974 78.3032C188.004 78.3344 188.026 78.3722 188.037 78.4135C188.049 78.4549 188.051 78.4985 188.042 78.5406C188.033 78.5826 188.015 78.622 187.987 78.6552C185.171 83.6986 181.493 88.2099 177.12 91.9845C177.078 92.0096 177.044 92.0448 177.021 92.0869C176.997 92.129 176.985 92.1764 176.985 92.2247C176.985 92.2729 176.997 92.3204 177.021 92.3625C177.044 92.4045 177.078 92.4398 177.12 92.4649C178.795 93.46 180.346 94.649 181.743 96.0073C181.801 96.0736 181.834 96.159 181.834 96.2475C181.834 96.3359 181.801 96.4213 181.743 96.4876C176.465 101.662 170.694 106.308 164.511 110.357C164.472 110.383 164.44 110.416 164.415 110.455C164.391 110.494 164.375 110.538 164.37 110.584C164.364 110.629 164.368 110.676 164.382 110.72C164.396 110.763 164.42 110.804 164.451 110.838C166.654 112.536 168.685 114.446 170.515 116.542C170.635 116.662 170.635 116.902 170.515 116.962C165.858 121.068 160.539 124.357 154.784 126.689C154.544 126.749 154.544 127.049 154.724 127.229C156.731 128.788 158.563 130.559 160.188 132.513C160.217 132.55 160.238 132.594 160.247 132.641C160.257 132.688 160.256 132.736 160.245 132.782C160.233 132.828 160.211 132.872 160.181 132.908C160.15 132.945 160.111 132.974 160.068 132.993C155.805 135.215 150.581 136.656 145.177 137.616C145.124 137.625 145.074 137.651 145.036 137.69C144.998 137.729 144.974 137.78 144.967 137.834C144.96 137.888 144.971 137.943 144.999 137.99C145.026 138.038 145.067 138.075 145.117 138.097C151.847 140.14 158.33 142.919 164.451 146.382C164.5 146.397 164.543 146.426 164.576 146.465C164.609 146.504 164.63 146.552 164.637 146.603C164.643 146.654 164.635 146.706 164.612 146.752C164.59 146.798 164.555 146.836 164.511 146.863C160.149 150.266 155.341 153.054 150.221 155.149C150.172 155.163 150.127 155.191 150.094 155.231C150.061 155.27 150.039 155.318 150.033 155.369C150.027 155.42 150.035 155.472 150.058 155.518C150.081 155.564 150.117 155.603 150.161 155.629C157.147 161.433 163.291 168.183 168.414 175.683C168.442 175.729 168.459 175.781 168.461 175.835C168.464 175.889 168.453 175.942 168.429 175.991C168.405 176.039 168.368 176.08 168.324 176.11C168.279 176.141 168.227 176.159 168.173 176.163H168.113C161.334 175.397 154.614 174.173 147.999 172.501C148 172.493 147.998 172.485 147.995 172.478C147.992 172.47 147.988 172.463 147.982 172.458C147.977 172.452 147.97 172.448 147.962 172.445C147.955 172.442 147.947 172.44 147.939 172.441C147.699 172.441 147.579 172.681 147.639 172.921C148.9 175.443 150.041 178.085 151.121 180.907C151.136 180.954 151.139 181.005 151.131 181.054C151.122 181.103 151.103 181.15 151.074 181.19C151.045 181.231 151.007 181.264 150.964 181.288C150.92 181.311 150.871 181.325 150.821 181.327H150.761C144.894 180.758 139.062 179.876 133.289 178.685H133.229C133.171 178.68 133.114 178.693 133.063 178.721C133.013 178.75 132.972 178.792 132.947 178.844C132.921 178.896 132.911 178.954 132.918 179.011C132.926 179.068 132.95 179.122 132.989 179.165C135.019 182.303 136.577 185.722 137.612 189.312C137.627 189.357 137.63 189.405 137.621 189.451C137.613 189.497 137.592 189.54 137.562 189.576C137.532 189.612 137.493 189.64 137.449 189.657C137.406 189.674 137.358 189.679 137.312 189.673H137.252C125.972 187.372 114.95 183.953 104.349 179.466C104.216 179.412 104.071 179.391 103.928 179.406C103.725 179.404 103.528 179.476 103.373 179.608C103.219 179.741 103.117 179.925 103.088 180.126C102.067 184.869 107.591 191.174 108.792 192.555C108.834 192.592 108.868 192.639 108.892 192.69C108.915 192.742 108.927 192.798 108.927 192.855C108.927 192.912 108.915 192.968 108.892 193.02C108.868 193.071 108.834 193.117 108.792 193.155L102.728 198.799C102.635 198.855 102.533 198.895 102.427 198.919C102.358 198.915 102.291 198.896 102.229 198.865C102.167 198.835 102.112 198.792 102.067 198.739C97.2146 193.645 94.3586 186.973 94.0215 179.946C94.0152 179.853 93.9752 179.765 93.9089 179.698C93.8427 179.632 93.7547 179.592 93.6613 179.586C93.6287 179.582 93.5956 179.585 93.5644 179.595C93.5332 179.606 93.5048 179.623 93.4811 179.646C83.4078 184.332 72.773 187.702 61.839 189.673H61.779C61.7292 189.671 61.6805 189.657 61.6367 189.634C61.5929 189.61 61.555 189.577 61.5261 189.536C61.4971 189.495 61.4778 189.449 61.4696 189.4C61.4614 189.351 61.4645 189.3 61.4787 189.252C62.5836 185.678 64.1585 182.265 66.162 179.105C66.1907 179.059 66.2072 179.007 66.2098 178.953C66.2124 178.899 66.2011 178.846 66.177 178.797C66.1529 178.749 66.1167 178.708 66.072 178.678C66.0273 178.648 65.9756 178.629 65.9218 178.625C65.8618 178.625 65.8618 178.625 65.8017 178.685C60.0296 179.88 54.197 180.762 48.3295 181.327C48.0893 181.327 47.9092 181.087 48.0293 180.906C49.0133 178.161 50.1561 175.474 51.4517 172.861C51.4737 172.818 51.4846 172.77 51.4835 172.722C51.4825 172.674 51.4694 172.627 51.4456 172.586C51.4217 172.544 51.3878 172.509 51.3469 172.483C51.306 172.458 51.2595 172.443 51.2115 172.441H51.0914C44.4786 174.135 37.7585 175.378 30.9773 176.163C30.9168 176.157 30.8587 176.137 30.8079 176.103C30.757 176.07 30.7151 176.025 30.6855 175.972C30.656 175.919 30.6398 175.859 30.6384 175.798C30.6369 175.737 30.6502 175.677 30.6771 175.623C35.8386 168.152 42.0003 161.425 48.9899 155.629C49.17 155.509 49.11 155.208 48.8698 155.088C43.7706 153.014 38.9821 150.246 34.6398 146.863C34.592 146.836 34.5522 146.796 34.5245 146.749C34.4968 146.701 34.4822 146.647 34.4822 146.592C34.4822 146.538 34.4968 146.484 34.5245 146.436C34.5522 146.389 34.592 146.349 34.6398 146.322C40.7849 142.908 47.2632 140.132 53.9735 138.037C54.2137 137.976 54.2137 137.616 53.9735 137.616C48.5697 136.596 43.3461 135.215 39.0231 132.993C38.9818 132.971 38.9456 132.941 38.9168 132.904C38.8881 132.867 38.8673 132.825 38.856 132.78C38.8447 132.734 38.843 132.687 38.8511 132.641C38.8592 132.595 38.8769 132.551 38.903 132.513C40.5325 130.525 42.386 128.732 44.4268 127.169C44.4652 127.139 44.495 127.099 44.5136 127.054C44.5321 127.009 44.5387 126.96 44.5327 126.912C44.5266 126.863 44.5082 126.817 44.4791 126.778C44.45 126.739 44.4113 126.708 44.3668 126.689C38.6489 124.356 33.3699 121.066 28.7559 116.962C28.7184 116.943 28.686 116.916 28.6615 116.882C28.6369 116.848 28.621 116.809 28.6151 116.768C28.6092 116.726 28.6134 116.684 28.6275 116.645C28.6416 116.605 28.6651 116.57 28.6959 116.542C30.5098 114.431 32.5426 112.519 34.7601 110.838C34.802 110.806 34.8361 110.765 34.8595 110.718C34.883 110.672 34.8952 110.62 34.8952 110.567C34.8952 110.515 34.883 110.463 34.8595 110.416C34.8361 110.369 34.802 110.329 34.7601 110.297C28.5443 106.267 22.751 101.621 17.4681 96.4275C17.4396 96.4004 17.4169 96.3678 17.4014 96.3317C17.386 96.2955 17.378 96.2567 17.378 96.2173C17.378 96.178 17.386 96.1391 17.4014 96.103C17.4169 96.0669 17.4396 96.0343 17.4681 96.0072C18.8766 94.6628 20.4267 93.475 22.0913 92.4647C22.1298 92.4395 22.1624 92.4062 22.1868 92.3671C22.2112 92.328 22.2267 92.2841 22.2325 92.2384C22.2382 92.1927 22.2339 92.1463 22.2199 92.1025C22.2058 92.0586 22.1825 92.0183 22.1513 91.9844C17.7428 88.2287 14.0419 83.7145 11.2237 78.6551C11.1993 78.6171 11.1847 78.5737 11.1809 78.5288C11.1772 78.4838 11.1846 78.4386 11.2023 78.3971C11.2201 78.3557 11.2478 78.3192 11.2829 78.2909C11.318 78.2626 11.3595 78.2433 11.4038 78.2347C13.8792 77.2627 16.4578 76.5778 19.0892 76.1933C19.1383 76.1802 19.184 76.1569 19.2234 76.1248C19.2627 76.0927 19.2948 76.0527 19.3175 76.0073C19.3402 75.9618 19.353 75.9121 19.3551 75.8614C19.3571 75.8107 19.3484 75.7601 19.3294 75.713C17.2082 71.2148 15.7133 66.4472 14.8863 61.5432C14.8773 61.499 14.8784 61.4535 14.8894 61.4098C14.9004 61.3662 14.9211 61.3256 14.95 61.291C14.9788 61.2564 15.015 61.2288 15.0559 61.2101C15.0969 61.1914 15.1415 61.1821 15.1865 61.1829H15.2465C20.2587 62.5711 25.1248 64.4411 29.7767 66.7668H29.8968C30.0769 66.7668 30.137 66.7067 30.197 66.5266C30.7789 63.42 31.7892 60.4092 33.199 57.5804C33.2271 57.5253 33.2702 57.4791 33.3233 57.4473C33.3763 57.4154 33.4373 57.3991 33.4992 57.4003C33.5593 57.4003 33.6193 57.4603 33.6794 57.4603C38.2748 60.7601 42.502 64.5445 46.2882 68.7482C46.3543 68.8115 46.438 68.8533 46.5284 68.8683C46.6485 68.8683 46.7085 68.8082 46.7686 68.6881C47.7558 67.078 49.0638 65.6882 50.6112 64.6053C50.6349 64.5825 50.6633 64.5653 50.6945 64.5549C50.7257 64.5445 50.7588 64.5412 50.7914 64.5452C50.8514 64.5452 50.9115 64.5452 50.9715 64.6653C57.456 72.7109 65.8619 81.6572 74.568 87.7214C74.628 87.7815 74.628 87.7815 74.6881 87.7815C74.7305 87.7804 74.7721 87.7692 74.8093 87.7487C74.8465 87.7282 74.8782 87.6991 74.9018 87.6637C74.9253 87.6284 74.94 87.5879 74.9447 87.5457C74.9493 87.5035 74.9436 87.4608 74.9283 87.4212C72.7067 80.0961 69.3444 73.1312 66.0421 66.7668C66.0173 66.6712 66.0279 66.5699 66.0721 66.4816C66.1163 66.3933 66.1909 66.324 66.2823 66.2865C67.9053 65.9681 69.5523 65.7873 71.2057 65.7461C71.2581 65.7389 71.308 65.719 71.351 65.6882C71.394 65.6574 71.4288 65.6166 71.4525 65.5692C71.4761 65.5219 71.4879 65.4696 71.4867 65.4167C71.4856 65.3638 71.4716 65.312 71.4459 65.2657C67.3642 58.9731 64.2286 52.1152 62.1394 44.9116C62.124 44.872 62.1184 44.8293 62.123 44.7871C62.1276 44.7448 62.1423 44.7043 62.1659 44.669C62.1894 44.6337 62.2212 44.6045 62.2584 44.584C62.2956 44.5635 62.3371 44.5523 62.3796 44.5513H62.4397C66.2218 44.732 69.9604 45.4394 73.5472 46.6528H73.6673C73.7045 46.6537 73.7414 46.646 73.7751 46.6302C73.8088 46.6145 73.8384 46.5912 73.8617 46.5622C73.8849 46.5331 73.9011 46.4991 73.9091 46.4628C73.917 46.4264 73.9165 46.3887 73.9075 46.3526C72.8867 40.5286 73.3671 33.984 74.5079 27.9798C74.5079 27.7996 74.628 27.7396 74.8081 27.7396H74.8682C77.5781 28.7881 80.1901 30.074 82.6736 31.5823C82.6973 31.6051 82.7257 31.6223 82.7569 31.6327C82.788 31.6431 82.8211 31.6464 82.8537 31.6423C82.8938 31.6447 82.9339 31.6386 82.9714 31.6244C83.009 31.6102 83.043 31.5882 83.0714 31.5598C83.0998 31.5314 83.1218 31.4973 83.1361 31.4598C83.1503 31.4223 83.1564 31.3822 83.154 31.3421C82.8413 25.8406 83.3062 20.3224 84.5349 14.9507C84.5607 14.8886 84.6017 14.834 84.6542 14.792C84.7067 14.75 84.769 14.722 84.8352 14.7105C84.8431 14.7103 84.851 14.7118 84.8584 14.7147C84.8657 14.7177 84.8724 14.7221 84.878 14.7277C84.8836 14.7333 84.8881 14.74 84.891 14.7474C84.894 14.7547 84.8954 14.7626 84.8952 14.7705C86.9525 15.5215 88.9248 16.4875 90.7793 17.6526C90.8394 17.6526 90.8994 17.7126 90.9595 17.7126C90.9918 17.7157 91.0244 17.7117 91.055 17.7007C91.0856 17.6898 91.1133 17.6722 91.1363 17.6492C91.1593 17.6263 91.1769 17.5985 91.1878 17.5679C91.1988 17.5373 91.2028 17.5047 91.1997 17.4724C93.1208 12.0086 96.1229 6.66491 99.3652 1.32118C99.4252 1.20107 99.4852 1.20107 99.6053 1.20107Z" fill="white"/>
<path d="M155.564 91.6843C156.045 91.6843 156.525 91.7443 157.005 91.7443C160.476 91.6876 163.895 90.8892 167.032 89.4027L167.092 89.4628C163.304 91.7877 158.928 92.9756 154.484 92.8851C154.413 92.8833 154.344 92.8988 154.281 92.9302C154.218 92.9616 154.164 93.008 154.123 93.0653C152.742 94.5063 151.542 95.7672 150.461 96.968C150.401 97.0281 150.401 97.0281 150.341 97.0281H150.281L149.08 96.4277C149.047 96.3953 149.026 96.3531 149.02 96.3076C149.024 96.2615 149.046 96.2186 149.08 96.1875C152.022 93.1854 155.204 90.1232 158.566 87.1211C158.624 87.0805 158.67 87.0264 158.702 86.9635C158.733 86.9007 158.748 86.8311 158.747 86.7609C158.402 83.4742 158.792 80.1519 159.887 77.0341H160.008C159.401 79.9979 159.3 83.0428 159.707 86.0403H159.767C164.271 81.8374 168.413 77.7546 172.436 73.6717L172.556 73.7318C169.134 77.7546 165.351 81.8374 161.389 85.8002C159.467 87.6615 157.486 89.5828 155.564 91.6243H155.504L155.564 91.6843ZM152.923 110.537L147.579 120.805C147.306 121.38 146.871 121.863 146.327 122.194C145.782 122.525 145.153 122.689 144.517 122.666C143.948 122.676 143.387 122.531 142.896 122.246C141.515 121.525 140.194 120.865 138.813 120.204C137.994 119.764 137.375 119.027 137.085 118.144C136.794 117.262 136.854 116.301 137.252 115.461L142.595 105.194C143.042 104.366 143.79 103.742 144.685 103.451C145.579 103.161 146.551 103.226 147.399 103.633C148.72 104.293 150.101 105.014 151.422 105.734C152.256 106.173 152.883 106.925 153.164 107.826C153.446 108.726 153.359 109.701 152.923 110.537ZM123.082 171.36C121.273 171.351 119.467 171.211 117.678 170.94H117.618C119.299 172.561 122.541 174.182 124.403 174.902L125.303 175.263L124.403 175.143C122.181 174.782 117.678 172.621 115.216 170.459C115.156 170.399 115.156 170.399 115.096 170.399C111.073 169.499 107.591 168.238 104.109 168.238C99.6054 168.238 96.3631 169.258 94.742 173.762C94.6312 172.854 94.7131 171.933 94.9822 171.06C94.9824 171.052 94.9809 171.044 94.978 171.036C94.975 171.029 94.9706 171.022 94.965 171.017C94.9594 171.011 94.9527 171.007 94.9453 171.004C94.938 171.001 94.9301 170.999 94.9221 171C94.0816 170.399 90.7192 168.358 87.4169 168.358C82.4334 168.358 76.069 173.942 71.1456 174.482C73.4872 173.701 76.1891 171.9 78.891 170.279V170.219C74.3278 169.318 68.6238 170.279 62.5596 171.84C68.3836 169.559 74.2677 168.358 80.4521 169.318C80.5121 169.318 80.5121 169.318 80.5722 169.258C82.8537 167.938 85.1954 166.917 87.2969 166.917C90.2541 167.042 93.1202 167.976 95.5826 169.619C95.6427 169.679 95.6427 169.679 95.6427 169.619C97.2038 167.337 100.446 166.436 103.868 166.436C109.212 166.436 117.498 170.399 124.103 170.399C131.308 170.399 133.409 169.739 135.511 169.258C133.529 170.099 130.287 171.36 123.082 171.36ZM63.28 99.0694C64.721 98.5891 66.1621 98.1087 67.6031 97.6284C67.9512 97.5103 68.3162 97.4495 68.6838 97.4482C69.4396 97.4508 70.1758 97.6895 70.7894 98.1308C71.403 98.5722 71.8633 99.1942 72.1062 99.91L75.8288 110.898C75.9778 111.327 76.0387 111.783 76.0077 112.237C75.9768 112.691 75.8546 113.134 75.6486 113.539C75.4417 113.951 75.1544 114.317 74.8038 114.616C74.4533 114.915 74.0464 115.141 73.6072 115.281C72.1662 115.761 70.7252 116.241 69.2842 116.722C68.9077 116.893 68.4968 116.975 68.0834 116.962C67.3679 116.952 66.673 116.721 66.0929 116.302C65.5129 115.883 65.0758 115.296 64.8411 114.62L61.1185 103.633C60.8261 102.74 60.8873 101.769 61.2894 100.92C61.6916 100.071 62.404 99.4087 63.28 99.0694ZM57.6361 122.005L50.5512 108.196L50.311 108.316C49.1101 108.976 47.9093 109.637 46.7085 110.237L45.2674 107.535C48.7499 105.614 52.2923 103.753 55.8949 102.011L57.2758 104.773C56.075 105.374 54.8741 105.974 53.6133 106.575L53.4331 106.695L60.5781 120.504C59.6174 120.985 58.5968 121.465 57.6361 122.005ZM42.3855 90.9037C42.3254 90.8437 42.2654 90.7836 42.2053 90.7836H41.725C37.0755 90.8302 32.5109 89.5379 28.5758 87.061V87.001C32.0207 88.753 35.8193 89.6975 39.6836 89.7629C40.1639 89.7629 40.7043 89.7029 41.1846 89.7029C40.344 88.8023 39.5034 87.9617 38.7229 87.2412C34.0925 82.8168 29.7031 78.1468 25.5737 73.2514L25.6338 73.1914C29.9568 77.7545 33.7394 81.4771 37.1618 84.5993H37.2219C37.6485 81.8195 37.4014 78.9779 36.5014 76.3135L36.5614 76.2535C37.9473 79.0618 38.5094 82.2052 38.1826 85.3198C38.1814 85.3817 38.1977 85.4427 38.2295 85.4958C38.2614 85.5488 38.3075 85.5919 38.3627 85.62C41.4248 88.382 44.3669 91.0838 47.0087 93.7857C47.0469 90.0866 45.9578 86.4635 43.8866 83.3985L43.9466 83.3384C46.7217 86.5438 48.2742 90.6271 48.3297 94.8665C48.3297 94.9866 48.3297 95.1067 48.4498 95.1666C48.8701 95.647 49.2903 96.0673 49.7106 96.4876V96.6077C49.7106 96.6677 49.7106 96.6677 49.6506 96.7278L48.5698 97.2682H48.5098C48.4497 97.2682 48.3897 97.2682 48.3897 97.2081C46.1081 94.6864 44.1267 92.6449 42.3855 90.9037ZM73.8474 137.256V129.751L70.9654 136.235L68.1434 129.751V137.256H64.9612V121.045H67.483L70.9654 129.15L74.5079 121.045H77.0296V137.256L73.8474 137.256ZM74.4478 155.449V158.511H64.9612V142.3H68.1434V155.449L74.4478 155.449ZM84.8951 93.7257C85.0493 93.6724 85.2129 93.652 85.3755 93.6656C86.2335 93.6718 87.0613 93.9834 87.7105 94.5445C88.3596 95.1057 88.7877 95.8797 88.9179 96.7278L89.8786 102.612C89.9991 103.371 89.864 104.148 89.4945 104.822C89.1249 105.496 88.542 106.028 87.8372 106.334L87.5369 106.455L87.7171 106.695C88.8579 108.376 90.0587 109.997 91.1995 111.678C90.1788 111.798 89.098 111.918 88.0173 112.099C86.8765 110.417 85.6756 108.796 84.5348 107.115L84.4147 106.995L84.2946 107.055C83.8143 107.115 83.394 107.175 82.9137 107.235L82.6735 107.295L83.5741 112.819C82.4934 112.999 81.4126 113.179 80.3919 113.419L77.3898 94.9866C79.8516 94.5062 82.3734 94.0859 84.8951 93.7257ZM104.589 132.513H100.746V137.256H97.5639V121.045H104.589C105.007 121.042 105.422 121.123 105.809 121.282C106.197 121.441 106.548 121.676 106.844 121.972C107.14 122.268 107.374 122.619 107.534 123.006C107.693 123.394 107.773 123.808 107.771 124.227V129.27C107.778 130.122 107.447 130.942 106.85 131.55C106.254 132.157 105.44 132.504 104.589 132.513ZM94.2016 107.836V96.2475C94.2213 95.3085 94.5991 94.4125 95.2576 93.7429C95.9161 93.0732 96.8055 92.6805 97.7441 92.645H102.307C103.246 92.6805 104.135 93.0732 104.794 93.7429C105.452 94.4125 105.83 95.3085 105.85 96.2475V107.836C105.848 108.297 105.754 108.754 105.575 109.18C105.395 109.605 105.133 109.991 104.804 110.315C104.475 110.638 104.084 110.894 103.656 111.066C103.227 111.238 102.769 111.324 102.307 111.318C99.7855 111.258 98.1043 111.318 97.684 111.318C97.2254 111.323 96.7704 111.236 96.3458 111.063C95.9211 110.889 95.5353 110.633 95.211 110.309C94.8867 109.984 94.6304 109.598 94.457 109.174C94.2837 108.749 94.1969 108.294 94.2016 107.836ZM97.0836 142.3H101.467L105.79 158.511H102.487L101.767 155.449H96.7234L95.9428 158.511H92.6405L97.0836 142.3ZM85.0752 134.194L84.4147 137.256H81.1725L85.1353 121.045H89.4583L93.4211 137.256H90.1788L89.5183 134.194H85.0752ZM86.8165 148.844V151.906H81.833V155.449H88.7979V158.511H78.6508V142.3H88.7978V145.362H81.8329V148.844H86.8165ZM81.4127 60.9429C85.8248 67.5758 91.6474 73.1524 98.4646 77.2742H98.5246V77.2142C98.4646 72.1707 98.5246 67.0671 98.6447 62.0836C98.6495 61.9062 98.5849 61.7339 98.4646 61.6033C94.5747 58.6882 91.3934 54.9322 89.1581 50.6156H89.2181C91.7006 54.4689 94.8765 57.8281 98.5847 60.5226C98.6447 60.5226 98.7048 60.5226 98.7048 60.4625C98.7648 58.6012 98.8249 57.1002 98.8849 55.6592C99.1851 51.4562 99.3653 47.0732 99.5454 42.6902C99.5476 42.6112 99.5326 42.5328 99.5015 42.4602C99.4704 42.3876 99.4239 42.3227 99.3652 42.2698C96.5003 38.8475 93.986 35.1464 91.86 31.2221L91.9801 31.1621C94.1769 34.6099 96.6895 37.846 99.4853 40.8288H99.5453C99.5532 40.829 99.5611 40.8275 99.5685 40.8246C99.5759 40.8216 99.5825 40.8172 99.5882 40.8116C99.5938 40.806 99.5982 40.7993 99.6011 40.7919C99.6041 40.7846 99.6055 40.7767 99.6054 40.7688C99.7855 33.924 99.8456 27.1393 99.8456 20.4746H99.9056C100.506 26.7189 100.746 40.1083 100.566 51.5763V51.6364C100.574 51.6445 100.583 51.6509 100.593 51.6553C100.604 51.6597 100.615 51.662 100.626 51.662C100.637 51.662 100.648 51.6597 100.659 51.6553C100.669 51.6509 100.678 51.6445 100.686 51.6364C104.031 49.9241 107.139 47.7847 109.933 45.2719L109.993 45.332C107.287 48.272 104.148 50.7826 100.686 52.7771C100.639 52.7995 100.598 52.8331 100.566 52.8749C100.535 52.9168 100.514 52.9657 100.506 53.0173C100.506 54.038 100.506 54.9386 100.446 55.8393C100.146 62.3238 100.146 69.9491 100.446 79.2556C100.446 79.3156 100.506 79.3156 100.566 79.3156C108.131 73.9119 113.835 68.0878 117.438 62.0236H117.558C114.616 68.1479 108.432 75.1127 100.566 80.9968C100.506 81.0569 100.506 81.1169 100.506 81.237C100.566 82.678 100.626 84.119 100.686 85.6201C100.686 85.628 100.685 85.6359 100.682 85.6433C100.679 85.6506 100.675 85.6573 100.669 85.6629C100.663 85.6685 100.657 85.673 100.649 85.6759C100.642 85.6789 100.634 85.6803 100.626 85.6801C100.626 85.7402 100.566 85.7402 100.506 85.7402H98.8849C98.8248 85.7402 98.7047 85.6801 98.7047 85.6201C98.6447 83.5186 98.5846 81.4172 98.5246 79.1356C98.5246 79.0155 98.5246 78.9554 98.4645 78.9554C91.3934 74.4232 85.5062 68.2684 81.2925 61.0029L81.4127 60.9429ZM112.574 137.256V121.045H115.757V134.194H121.641V137.256L112.574 137.256ZM117.858 148.844V151.906H112.875V158.511H109.692V142.3H119.84V145.362H112.875V148.844H117.858ZM118.699 105.134L120.5 94.6263C121.581 94.8065 122.661 94.9866 123.682 95.2268L120.56 113.6C119.719 113.419 118.879 113.239 118.038 113.119C116.837 109.577 115.637 105.974 114.436 102.492L114.135 101.591L112.334 112.099C111.253 111.978 110.173 111.798 109.092 111.678L112.214 93.3054C113.055 93.4255 113.955 93.5456 114.796 93.6657C115.997 97.1481 117.198 100.751 118.398 104.233L118.699 105.134ZM124.042 153.768H127.285V154.428C127.279 154.69 127.377 154.944 127.556 155.135C127.736 155.326 127.983 155.438 128.245 155.449H130.887C131.155 155.441 131.41 155.331 131.6 155.141C131.79 154.951 131.9 154.696 131.908 154.428V153.467C131.902 153.284 131.849 153.105 131.755 152.947C131.66 152.789 131.527 152.659 131.368 152.567C131.307 152.567 125.604 149.985 125.604 149.985C125.1 149.714 124.685 149.304 124.408 148.804C124.131 148.303 124.004 147.734 124.042 147.163V145.482C124.042 145.059 124.126 144.64 124.289 144.249C124.453 143.859 124.692 143.505 124.994 143.209C125.296 142.913 125.655 142.679 126.048 142.523C126.441 142.367 126.862 142.291 127.285 142.3H131.848C132.7 142.293 133.519 142.624 134.127 143.22C134.735 143.817 135.081 144.63 135.09 145.482V146.983H131.908V146.322C131.9 146.054 131.79 145.799 131.6 145.609C131.41 145.42 131.155 145.31 130.887 145.302H128.245C127.983 145.312 127.736 145.425 127.556 145.616C127.377 145.807 127.279 146.06 127.285 146.322V146.683C127.287 146.859 127.339 147.032 127.434 147.181C127.53 147.329 127.665 147.448 127.825 147.523C127.885 147.583 133.529 150.105 133.529 150.105C134.035 150.389 134.45 150.81 134.727 151.32C135.003 151.83 135.129 152.408 135.09 152.987V155.269C135.092 155.695 135.009 156.117 134.847 156.512C134.685 156.906 134.446 157.264 134.144 157.565C133.843 157.867 133.485 158.105 133.091 158.268C132.697 158.43 132.274 158.513 131.848 158.511H127.285C126.427 158.504 125.606 158.161 124.999 157.554C124.393 156.947 124.049 156.127 124.042 155.269L124.042 153.768ZM125.724 121.045H135.09V124.047H128.906V127.589H133.109V130.651H128.906V134.194H135.09V137.256H125.724V121.045ZM131.548 100.631C130.227 100.21 128.906 99.79 127.645 99.3697L128.606 96.4276C132.448 97.5684 136.231 98.8893 139.954 100.21L138.933 103.152C137.672 102.672 136.411 102.252 135.09 101.771L134.85 101.711L129.926 116.422C128.906 116.061 127.825 115.761 126.804 115.401L131.788 100.691L131.548 100.631Z" fill="#00205B"/>
<path d="M68.9838 113.478C69.1462 113.488 69.3091 113.468 69.4641 113.418C70.1246 113.178 70.7851 112.938 71.4455 112.698C71.795 112.584 72.0929 112.35 72.2861 112.037C72.4253 111.694 72.4464 111.313 72.3462 110.956L69.224 101.83C69.1389 101.548 68.9637 101.301 68.7252 101.128C68.4866 100.954 68.1979 100.863 67.9031 100.869C67.783 100.869 67.6028 100.929 67.4828 100.929C66.7623 101.17 66.1018 101.41 65.4414 101.65C65.2714 101.708 65.1147 101.8 64.9803 101.919C64.8459 102.039 64.7365 102.184 64.6584 102.345C64.5802 102.507 64.5349 102.683 64.525 102.863C64.5151 103.042 64.5409 103.222 64.6008 103.391L67.6629 112.518C67.748 112.8 67.9232 113.047 68.1617 113.22C68.4002 113.394 68.6889 113.484 68.9838 113.478Z" fill="#00205B"/>
<path d="M149.5 109.817L145.117 118.343C145.001 118.578 144.821 118.776 144.599 118.914C144.376 119.052 144.118 119.125 143.856 119.124C143.626 119.113 143.4 119.051 143.196 118.943C142.595 118.643 141.935 118.283 141.335 117.983C141.172 117.896 141.03 117.777 140.916 117.632C140.802 117.487 140.72 117.32 140.674 117.142C140.61 116.967 140.582 116.781 140.592 116.595C140.602 116.41 140.651 116.228 140.734 116.061L145.177 107.535C145.293 107.3 145.473 107.103 145.696 106.965C145.919 106.827 146.176 106.754 146.438 106.755C146.651 106.759 146.859 106.821 147.039 106.935C147.699 107.235 148.299 107.595 148.9 107.896C149.068 107.98 149.217 108.097 149.339 108.24C149.46 108.383 149.552 108.55 149.608 108.729C149.664 108.908 149.683 109.097 149.665 109.284C149.646 109.471 149.59 109.652 149.5 109.817ZM151.422 105.734C150.101 105.014 148.72 104.293 147.399 103.633C146.911 103.4 146.378 103.277 145.838 103.272C145.172 103.259 144.516 103.432 143.943 103.771C143.37 104.111 142.903 104.604 142.595 105.194L137.252 115.461C137.046 115.867 136.924 116.31 136.893 116.764C136.862 117.217 136.923 117.673 137.072 118.103C137.201 118.547 137.423 118.959 137.723 119.311C138.023 119.662 138.395 119.947 138.813 120.144C140.194 120.865 141.515 121.525 142.896 122.246C143.388 122.531 143.948 122.676 144.517 122.666C145.151 122.676 145.775 122.507 146.317 122.178C146.859 121.848 147.296 121.372 147.579 120.805L152.923 110.538C153.359 109.701 153.446 108.726 153.164 107.826C152.883 106.925 152.256 106.173 151.422 105.734ZM88.7979 145.362V142.3H78.6508V158.511H88.7979V155.449H81.833V151.906H86.8166V148.844H81.833V145.362H88.7979ZM129.927 116.422L134.85 101.711L135.09 101.771C136.351 102.252 137.672 102.672 138.933 103.152L139.954 100.21C136.231 98.8894 132.388 97.5685 128.606 96.4277L127.645 99.3697C128.906 99.79 130.227 100.21 131.548 100.631L131.728 100.691L126.804 115.401C127.825 115.761 128.906 116.061 129.927 116.422ZM121.641 134.194H115.757V121.045H112.574V137.256H121.641V134.194ZM135.09 134.194H128.906V130.652H133.109V127.589H128.906V124.047H135.09V121.045H125.724V137.256H135.09L135.09 134.194ZM127.285 158.511H131.848C132.274 158.513 132.697 158.43 133.091 158.268C133.485 158.106 133.843 157.867 134.145 157.565C134.446 157.264 134.685 156.906 134.847 156.512C135.009 156.117 135.092 155.695 135.09 155.269V152.987C135.129 152.408 135.003 151.83 134.727 151.32C134.451 150.81 134.035 150.389 133.529 150.105C133.529 150.105 127.885 147.583 127.825 147.583C127.668 147.489 127.537 147.358 127.442 147.201C127.348 147.044 127.294 146.866 127.285 146.683V146.322C127.283 146.196 127.307 146.07 127.355 145.953C127.402 145.836 127.473 145.729 127.562 145.64C127.652 145.55 127.759 145.479 127.876 145.432C127.993 145.384 128.119 145.36 128.245 145.362H130.887C131.149 145.356 131.403 145.454 131.594 145.634C131.785 145.813 131.898 146.061 131.908 146.322V146.983H135.09V145.482C135.081 144.63 134.735 143.817 134.127 143.22C133.519 142.624 132.7 142.293 131.848 142.3H127.285C126.433 142.293 125.614 142.624 125.006 143.22C124.398 143.817 124.052 144.63 124.042 145.482V147.163C124.004 147.742 124.13 148.32 124.406 148.83C124.682 149.34 125.098 149.761 125.604 150.045C125.604 150.045 131.308 152.567 131.368 152.567C131.516 152.671 131.641 152.804 131.734 152.96C131.827 153.115 131.886 153.288 131.908 153.467V154.488C131.898 154.75 131.785 154.997 131.594 155.177C131.403 155.357 131.149 155.454 130.887 155.449H128.245C128.119 155.451 127.993 155.427 127.876 155.379C127.759 155.331 127.652 155.261 127.562 155.171C127.473 155.082 127.402 154.975 127.355 154.858C127.307 154.74 127.283 154.615 127.285 154.488V153.768H124.042V155.269C124.049 156.127 124.393 156.947 124.999 157.554C125.606 158.161 126.427 158.504 127.285 158.511ZM112.214 93.2455L109.092 111.618C110.173 111.798 111.254 111.979 112.334 112.099L114.136 101.531L114.436 102.492C115.637 105.974 116.838 109.577 118.038 113.059C118.879 113.239 119.72 113.42 120.62 113.6L123.682 95.2268C122.662 94.9866 121.581 94.8065 120.5 94.5664L118.699 105.134L118.399 104.233C117.198 100.691 115.997 97.1482 114.796 93.6057C113.955 93.4856 113.115 93.3655 112.214 93.2455ZM119.84 145.362V142.3H109.692V158.511H112.875V151.906H117.858V148.844H112.875V145.362H119.84ZM85.7958 131.132L87.2969 124.407L88.7979 131.132H85.7958ZM90.1789 137.256H93.4211L89.4584 121.045H85.1354L81.1125 137.256H84.4149L85.0753 134.194H89.4584L90.1789 137.256ZM81.2927 97.4484C82.3134 97.2683 83.2741 97.0881 84.2347 96.9681C84.6001 96.9111 84.9733 96.9982 85.2758 97.211C85.5782 97.4238 85.7862 97.7457 85.8559 98.1089L86.5163 102.072C86.5662 102.449 86.4811 102.832 86.2761 103.152C86.1603 103.302 86.0155 103.427 85.8505 103.52C85.6855 103.613 85.5036 103.672 85.3155 103.693C84.3548 103.813 83.3941 103.993 82.4334 104.173L82.1332 104.233L81.0524 97.4484L81.2927 97.4484ZM83.5743 112.819L82.6736 107.295L82.9138 107.235C83.3341 107.175 83.8145 107.115 84.2348 107.055L84.4149 106.995L84.475 107.115C85.6758 108.796 86.8166 110.417 88.0174 112.099C89.0982 111.918 90.1189 111.798 91.1996 111.618C89.9988 109.997 88.858 108.316 87.7172 106.695L87.5371 106.455L87.7773 106.335C88.4965 106.043 89.0958 105.516 89.4774 104.84C89.859 104.164 90.0004 103.379 89.8787 102.612L88.9181 96.7279C88.7789 95.8838 88.3482 95.1152 87.701 94.5557C87.0538 93.9962 86.2309 93.6813 85.3756 93.6657C85.1934 93.6559 85.0108 93.6762 84.8352 93.7258C82.3735 94.086 79.8517 94.5063 77.33 94.9866L80.3321 113.359C81.4128 113.179 82.4935 112.999 83.5743 112.819ZM77.0297 121.045H74.5079L70.9655 129.151L67.4831 121.045H64.9613V137.256H68.1435V129.751L70.9655 136.235L73.8475 129.751V137.256H77.0297L77.0297 121.045ZM64.9613 142.3V158.511H74.4479V155.449H68.1435V142.3H64.9613ZM104.589 128.49C104.591 128.617 104.567 128.742 104.519 128.86C104.471 128.977 104.401 129.084 104.311 129.173C104.222 129.263 104.115 129.333 103.998 129.381C103.881 129.429 103.755 129.452 103.628 129.451H100.746V124.047H103.628C103.89 124.057 104.138 124.17 104.317 124.361C104.497 124.552 104.594 124.806 104.589 125.068V128.49ZM107.771 129.271V124.227C107.773 123.809 107.693 123.394 107.534 123.007C107.375 122.619 107.14 122.268 106.844 121.972C106.548 121.676 106.197 121.441 105.809 121.282C105.422 121.123 105.007 121.043 104.589 121.045H97.564V137.256H100.746V132.513H104.589C105.441 132.504 106.254 132.157 106.85 131.55C107.447 130.942 107.778 130.122 107.771 129.271ZM99.2452 145.662L100.986 152.387H97.504L99.2452 145.662ZM96.7234 155.449H101.767L102.487 158.511H105.79L101.407 142.3H97.0837L92.6406 158.511H95.9429L96.7234 155.449ZM97.564 97.1482C97.561 96.966 97.5947 96.7851 97.663 96.6161C97.7314 96.4473 97.833 96.2938 97.9618 96.165C98.0906 96.0361 98.2441 95.9345 98.413 95.8662C98.5819 95.7979 98.7628 95.7642 98.945 95.7672H101.046C101.418 95.7692 101.774 95.9136 102.042 96.1705C102.31 96.4274 102.47 96.7773 102.487 97.1482V106.755C102.482 107.135 102.329 107.499 102.06 107.768C101.791 108.037 101.427 108.191 101.046 108.196H98.945C98.7597 108.192 98.5769 108.152 98.4071 108.077C98.2374 108.003 98.084 107.896 97.9557 107.762C97.8274 107.628 97.7268 107.47 97.6596 107.297C97.5924 107.125 97.5599 106.94 97.564 106.755V97.1482ZM102.307 111.318C102.769 111.324 103.227 111.238 103.656 111.066C104.084 110.894 104.475 110.639 104.804 110.315C105.133 109.991 105.395 109.605 105.575 109.18C105.754 108.754 105.848 108.297 105.85 107.836V96.2476C105.83 95.3086 105.452 94.4126 104.794 93.743C104.135 93.0733 103.246 92.6806 102.307 92.6451H97.7441C96.8056 92.6806 95.9162 93.0733 95.2577 93.743C94.5992 94.4126 94.2214 95.3086 94.2017 96.2476V107.836C94.2023 108.759 94.5694 109.644 95.2224 110.297C95.8753 110.95 96.7607 111.317 97.6841 111.318C98.0443 111.318 99.7856 111.258 102.307 111.318ZM65.4416 101.651C66.1021 101.411 66.7626 101.171 67.423 100.931C67.6032 100.931 67.7232 100.871 67.9034 100.871C68.1982 100.865 68.4869 100.955 68.7254 101.129C68.9639 101.302 69.1391 101.549 69.2243 101.831L72.3465 110.958C72.4009 111.137 72.4183 111.325 72.3977 111.511C72.377 111.696 72.3187 111.876 72.2264 112.039C72.1505 112.198 72.0417 112.339 71.9071 112.453C71.7726 112.567 71.6153 112.651 71.4458 112.699C70.7853 112.939 70.1249 113.179 69.4644 113.42C69.2843 113.42 69.1642 113.48 68.9841 113.48C68.6921 113.474 68.4089 113.379 68.1727 113.207C67.9365 113.035 67.7587 112.795 67.6632 112.519L64.601 103.393C64.5411 103.223 64.5154 103.043 64.5253 102.864C64.5352 102.684 64.5805 102.509 64.6586 102.347C64.7368 102.185 64.8462 102.04 64.9806 101.921C65.115 101.801 65.2717 101.71 65.4416 101.651ZM68.0835 116.962C68.4969 116.975 68.9078 116.893 69.2843 116.722C70.7253 116.242 72.1663 115.761 73.6073 115.281C74.0465 115.141 74.4534 114.915 74.8039 114.616C75.1545 114.317 75.4418 113.951 75.6487 113.54C75.8547 113.134 75.9768 112.691 76.0078 112.237C76.0388 111.783 75.9779 111.328 75.8289 110.898L72.1663 99.9101C71.9029 99.1957 71.4291 98.578 70.8074 98.1385C70.1856 97.699 69.4452 97.4584 68.6839 97.4484C68.3163 97.4496 67.9513 97.5104 67.6032 97.6285C66.1621 98.1089 64.7211 98.5892 63.2801 99.0695C62.3959 99.398 61.675 100.059 61.2712 100.911C60.8674 101.764 60.8126 102.74 61.1186 103.633L64.8412 114.62C65.0759 115.296 65.513 115.884 66.093 116.303C66.6731 116.721 67.368 116.952 68.0835 116.962ZM53.6134 106.575C54.8743 105.974 56.0751 105.374 57.336 104.774L55.895 102.012C52.2924 103.753 48.75 105.614 45.2676 107.535L46.7086 110.237C47.9094 109.637 49.1102 108.976 50.3111 108.316L50.5513 108.196L57.6963 122.006C58.6569 121.465 59.6176 120.985 60.5783 120.504L53.4333 106.695L53.6134 106.575ZM103.868 166.376C100.446 166.376 97.2038 167.337 95.6427 169.619C95.6427 169.619 95.6427 169.679 95.5826 169.619C93.1202 167.976 90.2541 167.042 87.2969 166.917C85.1954 166.917 82.8538 167.938 80.5722 169.259H80.4521C74.2677 168.358 68.3836 169.559 62.5596 171.84C68.6238 170.279 74.3278 169.319 78.891 170.219V170.279C76.1891 171.9 73.4872 173.702 71.1456 174.482C76.069 173.942 82.4334 168.358 87.4169 168.358C90.7192 168.358 94.0816 170.399 94.9221 171C94.9301 171 94.938 171.001 94.9453 171.004C94.9527 171.007 94.9594 171.011 94.965 171.017C94.9706 171.023 94.975 171.029 94.978 171.037C94.9809 171.044 94.9824 171.052 94.9822 171.06C94.7131 171.933 94.6312 172.854 94.742 173.762C96.3631 169.258 99.6054 168.238 104.109 168.238C107.591 168.238 111.073 169.499 115.096 170.399C115.156 170.399 115.156 170.399 115.216 170.459C117.678 172.561 122.181 174.722 124.403 175.083L125.303 175.263L124.403 174.902C122.601 174.182 119.299 172.561 117.618 170.94C117.618 170.932 117.619 170.924 117.622 170.917C117.625 170.909 117.63 170.903 117.635 170.897C117.641 170.891 117.647 170.887 117.655 170.884C117.662 170.881 117.67 170.88 117.678 170.88C119.461 171.202 121.27 171.363 123.082 171.36C130.227 171.36 133.529 170.099 135.51 169.259C133.349 169.679 131.308 170.339 124.102 170.339C117.498 170.399 109.212 166.376 103.868 166.376ZM161.389 85.8003C165.351 81.8375 169.074 77.7547 172.556 73.7319L172.436 73.6718C168.413 77.7546 164.211 81.8375 159.767 86.0404H159.707C159.3 83.0428 159.401 79.9979 160.008 77.0342H159.887C158.8 80.1541 158.391 83.4702 158.687 86.7609C158.703 86.7924 158.712 86.8268 158.715 86.862C158.717 86.8972 158.713 86.9326 158.702 86.9661C158.691 86.9996 158.673 87.0306 158.65 87.0572C158.626 87.0838 158.598 87.1055 158.567 87.1212C155.144 90.1833 151.962 93.2455 149.08 96.2476C149.072 96.2474 149.064 96.2488 149.057 96.2518C149.049 96.2547 149.043 96.2591 149.037 96.2648C149.031 96.2704 149.027 96.2771 149.024 96.2844C149.021 96.2918 149.02 96.2997 149.02 96.3076C149.026 96.3531 149.047 96.3953 149.08 96.4277L150.221 97.0281H150.341C150.401 97.0281 150.401 97.0281 150.461 96.9681C151.542 95.8272 152.743 94.5664 154.123 93.1254C154.164 93.0681 154.218 93.0217 154.281 92.9903C154.344 92.9588 154.414 92.9434 154.484 92.9452C158.92 92.9777 163.281 91.7941 167.093 89.5228L167.032 89.4027C163.874 90.8899 160.436 91.6881 156.945 91.7444C156.484 91.753 156.023 91.733 155.564 91.6843H155.504V91.6243C157.486 89.643 159.467 87.6616 161.389 85.8003ZM48.5098 97.2683H48.5698L49.6506 96.7279L49.7707 96.6078C49.7707 96.5478 49.7707 96.5478 49.7107 96.4877L48.4498 95.2268C48.3832 95.1173 48.3421 94.9942 48.3297 94.8666C48.296 90.6338 46.7645 86.5498 44.0067 83.3386L43.8866 83.3986C45.994 86.4496 47.1056 90.078 47.0688 93.7859H47.0087C44.3669 91.084 41.4248 88.3821 38.3627 85.6202C38.3075 85.592 38.2614 85.549 38.2295 85.4959C38.1977 85.4428 38.1814 85.3818 38.1825 85.3199C38.5093 82.2053 37.9473 79.0619 36.5614 76.2536L36.5014 76.3136C37.4014 78.9781 37.6485 81.8196 37.2219 84.5994H37.1618C33.7394 81.4772 29.9568 77.7546 25.6338 73.1915L25.5737 73.2515C29.7167 78.1539 34.1054 82.8431 38.7229 87.3013C39.5034 88.0218 40.284 88.8024 41.1846 89.703C40.7043 89.703 40.1639 89.7631 39.6836 89.7631C35.8193 89.6976 32.0207 88.7531 28.5758 87.0011V87.1212C32.5227 89.5714 37.0794 90.8615 41.725 90.8438H42.2053C42.2379 90.8398 42.271 90.8431 42.3022 90.8535C42.3333 90.8639 42.3618 90.8811 42.3855 90.9039C44.1267 92.6451 46.1081 94.6865 48.3896 97.2083C48.422 97.2409 48.4642 97.262 48.5098 97.2683ZM98.4647 78.9555C98.5247 78.9555 98.5247 79.0156 98.5247 79.0756C98.5848 81.4172 98.6448 83.5187 98.7049 85.6202C98.7049 85.6802 98.7649 85.7403 98.885 85.7403H100.506C100.566 85.7403 100.566 85.7403 100.626 85.6802C100.686 85.6802 100.686 85.6202 100.686 85.5601C100.626 84.1191 100.566 82.6181 100.506 81.1771C100.502 81.1445 100.505 81.1114 100.516 81.0802C100.526 81.049 100.543 81.0206 100.566 80.9969C108.432 75.0528 114.616 68.148 117.558 62.0237L117.438 61.9636C113.835 68.0279 108.131 73.8519 100.566 79.2557C100.506 79.3158 100.446 79.2557 100.446 79.1957C100.146 69.9492 100.146 62.2638 100.446 55.8394C100.446 54.9387 100.506 54.0381 100.506 53.0174C100.506 52.8973 100.566 52.8373 100.686 52.7772C104.149 50.7826 107.287 48.2721 109.993 45.332L109.933 45.272C107.124 47.7822 104.019 49.9397 100.686 51.6964C100.626 51.6964 100.566 51.6964 100.566 51.6364V51.5763C100.746 40.1083 100.506 26.779 99.9057 20.4746H99.8457C99.9057 27.1393 99.7856 33.9841 99.6055 40.7688C99.6056 40.7767 99.6042 40.7846 99.6012 40.7919C99.5983 40.7993 99.5939 40.806 99.5883 40.8116C99.5826 40.8172 99.576 40.8216 99.5686 40.8246C99.5612 40.8275 99.5533 40.829 99.5454 40.8288H99.4854C96.6762 37.8791 94.1624 34.6616 91.9801 31.2221H91.86C93.9573 35.1638 96.4736 38.8678 99.3653 42.2698C99.424 42.3227 99.4705 42.3876 99.5016 42.4602C99.5327 42.5328 99.5476 42.6112 99.5454 42.6902C99.3653 47.1333 99.1852 51.4563 98.885 55.6592C98.8249 57.1002 98.7649 58.6613 98.7048 60.4625C98.7048 60.5226 98.6448 60.5826 98.5847 60.5226C94.891 57.8118 91.7178 54.4555 89.2182 50.6157L89.1582 50.6758C91.4097 54.9815 94.5882 58.7341 98.4647 61.6635C98.5282 61.7122 98.5781 61.7765 98.6096 61.8501C98.6412 61.9237 98.6533 62.0041 98.6448 62.0837C98.5247 67.1272 98.4647 72.1708 98.5247 77.2143V77.2743H98.4647C91.6475 73.1525 85.8249 67.5759 81.4128 60.9429L81.2927 61.003C85.523 68.256 91.4068 74.4071 98.4647 78.9555Z" fill="white"/>
</svg>
