<svg width="200" height="200" viewBox="0 0 200 200" fill="none" xmlns="http://www.w3.org/2000/svg">
<path d="M99.3507 123.432L141.899 102.203C171.04 110.387 179.677 121.439 179.677 121.439L196.346 102.596C197.252 101.63 200 98.2172 200 92.0266C200 85.3529 193.024 80.1589 188.132 76.6559C179.828 54.8833 133.927 48.572 130.545 40.9923C129.367 38.3651 122.694 15.7168 122.694 15.7168C118.708 4 106.9 4 102.461 4C97.9919 4 88.4192 5.50989 88.4192 5.50989C88.4192 21.8469 86.2147 41.7473 83.8895 45.4012C78.0441 48.3798 72.0237 51.0017 65.8614 53.2526L42.6091 37.58L48.709 58.658C9.54251 80.1891 0 117.725 0 117.725C0 117.725 10.0559 196.783 109.165 196.783C161.558 196.783 191.816 171.447 191.816 171.447L174.936 133.7C174.936 133.7 149.147 147.107 116.201 147.107C85.8221 147.107 73.9544 132.945 69.6059 124.701C95.3345 125.456 99.3507 123.432 99.3507 123.432Z" fill="#A7A9AC"/>
<path d="M184.327 79.4346C176.234 57.5714 131.572 53.5853 126.65 43.2577C124.657 39.1206 122.12 29.2459 118.436 17.197C115.476 8.5 106.749 8.5 102.401 8.5C99.1952 8.57755 95.9978 8.85997 92.8282 9.34554C92.8282 18.2539 91.1371 44.1334 87 48.6027C85.9733 49.871 78.3634 52.9512 70.0892 56.1521L72.5655 57.813L70.0289 60.3496L65.2576 65.1209L60.0333 81.4881L53.2086 77.9248L55.6245 83.9945L43.4547 86.0178L50.3398 88.4034L30.5301 103.623L35.8751 104.046L28.8088 116.82C38.9855 112.199 42.0958 111.324 42.0958 111.324L39.1667 108.304L59.7011 100.03C59.7011 100.03 58.1611 104.136 58.1611 112.109C58.2038 113.723 58.3959 115.331 58.7348 116.91C61.2714 129.321 73.3808 154.929 116.171 154.929C147.124 154.929 171.01 144.118 171.01 144.118L182.093 168.941C182.093 168.941 153.043 189.053 109.105 189.053C19.2965 189.053 7.91196 118.45 7.91196 118.45C20.2931 85.3232 41.1295 70.8283 54.3864 64.6679L50.2493 64.2149L49.8869 62.9768C14.8876 82.2732 4.52979 118.058 4.52979 118.058C4.52979 118.058 15.1896 192.344 109.165 192.344C157.24 192.344 186.321 170.058 186.321 170.058L172.732 139.649C172.732 139.649 147.335 151.547 116.201 151.547C69.8476 151.547 62.9927 119.93 62.9927 119.93C62.9927 119.93 89.3856 121.5 97.841 119.235L141.477 97.4325C171.04 105.767 179.556 114.796 179.556 114.796L193.085 99.5766C193.085 99.5766 195.561 97.2513 195.561 92.0271C195.531 87.1351 188.223 82.2128 184.327 79.4346ZM89.295 87.5276L67.16 84.5381L78.303 78.3174L89.295 87.5276ZM85.6109 57.6922L71.8709 79.646L67.0392 68.1105L85.6109 57.6922ZM40.1632 99.3048L65.8615 82.0014L63.9289 95.7415L40.1632 99.3048Z" fill="#003D7D"/>
<path d="M62.1773 94.4122L63.808 85.081L46.4141 96.8884L62.1773 94.4122ZM70.9347 83.9335L85.3692 85.685L76.8836 80.7325L70.9347 83.9335ZM69.8174 68.7138L71.4179 75.8405L81.5945 62.0703L69.8174 68.7138Z" fill="#003D7D"/>
<path d="M31.2547 105.164L26.1211 105.285L47.5615 89.3102L38.2606 85.6261L53.4803 82.6969L48.1957 72.0069L57.5872 77.3519L61.3318 65.6955C50.0378 69.6212 25.7889 82.0627 11.7168 118.753C13.4079 127.178 28.1142 185.4 109.165 185.4C144.164 185.4 169.712 172.143 177.563 167.492L169.198 148.739C152.26 155.103 134.325 158.405 116.231 158.493C66.9486 158.524 54.5675 124.762 54.5675 112.079C54.5608 109.697 54.702 107.317 54.9902 104.953L43.666 108.697L45.1457 111.898L36.2978 115.099L28.688 120.112L44.1492 122.981L40.9483 134.033L47.5918 132.07L53.9635 148.286L61.5734 147.32L64.11 158.705C64.11 158.705 78.4539 168.64 102.763 170.814C134.863 173.683 163.582 162.721 163.582 162.721C163.582 162.721 129.337 176.159 98.1731 172.867C74.3772 170.361 58.8857 160.668 58.8857 160.668L58.7046 150.4L49.313 150.521L44.9042 134.788L36.5394 138.714L40.2235 124.642L24.1885 122.679L27.4499 112.865L31.2547 105.164ZM64.2307 65.0312L68.8812 58.7802L46.263 43.168L52.7253 62.2228L64.2307 65.0312Z" fill="#003D7D"/>
<path d="M173.335 80.9129C154.824 79.403 147.637 73.3332 147.637 68.5619C147.637 66.2669 149.751 65.8441 151.17 65.8441C158.72 65.8441 170.406 71.8233 172.309 76.9268C168.987 73.3634 163.189 70.253 158.78 70.253C157.844 70.253 156.847 70.5248 156.847 71.7025C156.847 74.6921 162.162 79.3728 181.579 81.547C174.151 60.1066 133.142 58.5967 123.932 45.1285C121.365 41.3839 117.137 17.4673 112.879 14.1757C108.199 10.5822 96.18 12.2129 96.18 12.2129C96.18 15.5346 95.3646 44.8869 89.2949 51.017C85.188 54.4596 78.3029 55.9695 70.0589 60.318L65.2876 65.0892L60.0634 81.4564L53.2387 77.8931L55.6545 83.9628L43.4848 85.9861L50.3699 88.3717L30.5601 103.591L35.9052 104.014L28.8389 116.788C39.0155 112.168 42.1259 111.292 42.1259 111.292L39.1967 108.272L59.7312 99.9979C59.7312 99.9979 58.1911 104.105 58.1911 112.077C58.2339 113.692 58.4259 115.299 58.7649 116.878C59.6406 115.187 75.7964 85.3822 110.403 83.3589L95.9082 94.5623L67.1598 116.758C67.1598 116.758 90.8349 117.754 96.6329 116.093C114.933 107.578 129.579 99.6355 141.054 93.8677C152.076 88.3415 160.199 84.8688 165.816 84.8688C172.762 84.8688 182.395 91.5727 190.639 97.2499C191.038 96.8754 191.356 96.4232 191.575 95.9212C193.568 88.8247 183.27 83.2683 173.335 80.9129ZM63.9287 95.74L40.163 99.3034L65.8613 82L63.9287 95.74ZM85.6107 57.6908L71.8707 79.6446L67.039 68.109L85.6107 57.6908ZM67.1598 84.5366L78.3028 78.3159L89.2948 87.5262L67.1598 84.5366ZM107.323 47.8463C103.911 48.0577 96.9953 50.2923 96.9953 50.2923C96.9953 50.2923 103.216 46.6988 104.484 44.7661C105.753 42.8335 106.085 21.0609 106.085 21.0609C106.085 21.0609 108.078 42.3805 109.769 44.5245C111.46 46.6686 117.741 49.326 117.741 49.326C117.741 49.326 109.829 47.6953 107.323 47.8463Z" fill="#002D56"/>
<path d="M109.799 44.5262C108.108 42.3821 106.115 21.0625 106.115 21.0625C106.115 21.0625 105.783 42.8351 104.515 44.7678C103.246 46.7004 97.0257 50.294 97.0257 50.294C97.0257 50.294 103.941 48.0291 107.353 47.8479C109.86 47.697 117.802 49.3276 117.802 49.3276C117.802 49.3276 111.49 46.6702 109.799 44.5262ZM58.7349 116.88C59.6106 116.004 77.3065 98.3689 95.9084 94.5639L110.403 83.3606C75.7966 85.414 59.6408 115.219 58.7349 116.88ZM192.3 92.8729C192.3 88.464 186.502 85.4744 181.58 81.5487C162.162 79.3744 156.847 74.6938 156.847 71.7042C156.847 70.5265 157.844 70.2547 158.78 70.2547C163.189 70.2547 168.987 73.3651 172.309 76.9284C170.376 71.8552 158.72 65.8458 151.17 65.8458C149.751 65.8458 147.637 66.2988 147.637 68.5636C147.637 73.3349 154.824 79.4046 173.336 80.9145C183.271 83.27 193.568 88.7962 191.575 95.953C192.073 95.0042 192.323 93.9444 192.3 92.8729ZM155.881 92.8427L163.098 95.4095C164.109 95.0198 165.08 94.5344 165.997 93.96C166.088 93.7486 166.088 93.5976 165.786 93.3258C165.575 93.1144 162.344 91.9367 160.35 91.1818L155.881 92.8427ZM161.951 90.5476C163.884 91.3026 166.541 92.3897 166.752 92.4199C167.121 92.4954 167.501 92.4954 167.87 92.4199C168.111 92.3595 169.682 91.5744 170.829 90.9704C169.712 90.4269 167.447 89.3699 165.937 89.3699C164.558 89.5649 163.215 89.9618 161.951 90.5476ZM169.078 93.0541C169.017 93.2051 169.078 93.3258 169.319 93.507C170.718 94.3096 172.16 95.0354 173.637 95.6813C173.919 95.7165 174.205 95.7063 174.483 95.6511C175.308 95.2084 176.105 94.7142 176.869 94.1714L171.886 91.4838C170.904 91.9206 169.964 92.4462 169.078 93.0541ZM172.611 97.01C172.657 96.9393 172.686 96.8591 172.697 96.7754C172.707 96.6916 172.698 96.6066 172.671 96.5268C171.283 95.659 169.829 94.9017 168.323 94.262C167.977 94.1782 167.613 94.2211 167.296 94.3828C166.964 94.5337 165.091 95.5907 164.397 95.953L170.195 98.5803C171.038 98.1169 171.845 97.592 172.611 97.01ZM179.737 99.0634C180.051 99.056 180.359 98.984 180.643 98.852C181.214 98.4655 181.759 98.0418 182.274 97.5837L177.805 94.7451C176.999 95.2331 176.223 95.7674 175.48 96.3456C175.527 96.5212 175.609 96.6856 175.721 96.8288L179.737 99.0634ZM181.579 99.5164C181.459 99.7882 181.428 99.8788 181.489 99.9392C181.64 100.09 183.965 101.63 185.535 102.687L187.347 100.875L183.21 98.2178C182.618 98.5861 182.071 99.0218 181.579 99.5164ZM179.013 100.271C179.103 100.12 179.043 99.9392 178.892 99.758C178.65 99.5466 175.087 97.6139 174.815 97.5535C174.438 97.5171 174.058 97.5583 173.698 97.6744C173.547 97.7348 172.49 98.4595 171.524 99.154L176.989 101.691C177.691 101.258 178.367 100.784 179.013 100.271ZM179.979 100.996C179.828 101.056 178.801 101.842 178.016 102.446L182.969 105.496L184.811 103.472C183.301 102.446 181.126 100.936 180.945 100.875C180.618 100.844 180.288 100.885 179.979 100.996Z" fill="white"/>
<path d="M141.084 93.8993C167.779 100.996 179.163 110.236 179.163 110.236L182.002 107.035C180.673 106.039 170.829 99.2745 151.563 92.9632C157.3 90.6984 164.246 88.0108 166.118 88.0108C170.376 88.0108 179.133 93.537 188.525 99.6973L190.669 97.2815C182.455 91.6043 172.822 84.9004 165.846 84.9004C160.199 84.9004 152.076 88.3731 141.084 93.8993Z" fill="white"/>
</svg>
