<svg width="200" height="200" viewBox="0 0 200 200" fill="none" xmlns="http://www.w3.org/2000/svg">
<path d="M111.551 10.9457C109.536 9.06801 99.918 0 99.918 0C99.918 0 90.2546 9.06801 88.2395 10.9457H26V147.607C49.2654 173.346 68.7296 185.665 99.918 200C130.969 185.665 150.525 173.391 173.79 147.607V10.9457H111.551Z" fill="white"/>
<path d="M110.543 13.5113C110.451 13.4197 99.9178 3.52734 99.9178 3.52734C99.9178 3.52734 89.3842 13.3739 89.2468 13.5113H28.5645V146.6C50.3643 170.736 69.7369 183.285 99.9178 197.161C129.961 183.285 149.38 170.828 171.225 146.6V13.5113H110.543Z" fill="#B4975A"/>
<path d="M166.051 18.6387V144.629C146.174 166.658 125.382 179.756 99.9184 191.48C74.4547 179.756 53.6166 166.658 33.7402 144.629V18.6387H78.2559C60.7153 28.8517 49.1742 46.6213 49.1742 70.6195V138.401C61.1275 150.812 77.2942 163.269 92.6365 170.505L58.9291 73.3673L90.6672 88.6181L86.8202 92.4193L98.2238 129.241H101.613L112.971 92.4193L109.124 88.6181L140.862 73.3673L107.2 170.505C122.405 163.315 138.572 150.903 150.617 138.401V70.5737C150.617 46.6213 139.121 28.8517 121.581 18.6387L166.051 18.6387Z" fill="black"/>
<path d="M108.711 18.3201C109.627 14.4273 110.543 13.5113 110.543 13.5113C110.543 13.5113 101.155 4.71809 100.01 3.61896L99.918 3.52734V100.665L106.971 77.9492L144.571 59.8589C141.228 40.3948 128.542 25.5562 108.711 18.3201Z" fill="#333F42"/>
<path d="M148.052 80.3301L120.069 161.347L124.924 155.072C124.924 155.072 137.656 145.272 145.487 136.295V94.8939L148.052 80.3301Z" fill="#333F42"/>
<path d="M89.7505 93.1531L90.667 88.6191L86.8193 92.4201L98.223 129.242L99.9175 125.99L89.7505 93.1531Z" fill="white"/>
<path d="M90.3002 73.6902L60.3025 62.3323L92.8649 77.9494V30.3652L90.3002 73.6902ZM51.7383 80.3309L75.0494 147.746L62.0886 117.198L54.303 94.8947L51.7383 80.3309Z" fill="#333F42"/>
<path d="M140.862 73.3675L107.2 170.505L111.688 165.284L144.159 71.8105L140.862 73.3675Z" fill="white"/>
<path d="M91.079 18.3185C90.8433 17.2912 90.5373 16.2813 90.1631 15.2959C89.9793 14.6456 89.6679 14.0384 89.2471 13.5098C65.6611 22.1198 49.1738 41.9045 49.1738 70.6199V138.401C49.9982 139.271 50.8683 140.141 51.7385 141.011V70.5741C51.7385 46.5301 63.3254 27.1576 88.5143 16.624C89.4212 17.106 90.28 17.6734 91.079 18.3185Z" fill="white"/>
</svg>
