<svg width="200" height="200" viewBox="0 0 200 200" fill="none" xmlns="http://www.w3.org/2000/svg">
<path d="M104.107 123.917C101.639 129.822 101.991 137.49 104.503 141.544L118.87 164.548L130.019 148.419H148.219L158.179 136.168H135.087L128.124 144.717L114.286 133.215C113.978 132.951 113.625 131.409 114.198 130.043L120.5 114.795C120.5 114.795 121.822 121.273 130.239 121.273H180.301C182.681 121.273 189.908 121.273 192.685 114.574C195.241 108.405 191.451 105.056 191.451 105.056H195.417L200 94.0825H175.498C172.62 94.0459 169.787 94.7923 167.301 96.2418L178.847 68.3464H166.243L153.552 98.9741C153.552 98.9741 151.26 94.0825 143.857 94.0825H129.049L153.111 36H140.507L116.446 94.0825H85.5977C81.6981 94.0769 77.8398 94.8809 74.267 96.4436C70.6941 98.0062 67.4846 100.293 64.8414 103.161C64.8414 103.161 64.7973 94.0825 54.0005 94.0825H26.5457C15.5285 94.0825 4.24696 100.649 0.765534 109.022C-1.65824 114.927 1.77912 121.317 9.57927 121.317H20.288C24.7389 121.317 29.4983 118.32 31.5255 116.91C31.5255 116.91 33.8171 121.317 40.3833 121.317H55.4548L50.2987 133.7H62.9464L68.0584 121.317H105.164L104.107 123.917Z" fill="white"/>
<path d="M113.185 88.7063L111.599 83.8147H109.572L106.971 90.2047H108.249L110.321 85.2249L111.951 90.2047H113.89L116.534 83.8147H115.256L113.185 88.7063ZM100.714 86.9877C100.945 86.3187 101.379 85.7384 101.956 85.3277C102.533 84.917 103.223 84.6962 103.931 84.6961C105.297 84.6961 105.826 85.4893 105.209 86.9877C104.987 87.6662 104.556 88.2574 103.979 88.6769C103.401 89.0963 102.706 89.3225 101.992 89.3233C100.626 89.3233 100.097 88.5301 100.714 86.9877ZM101.551 90.381C102.653 90.4322 103.743 90.1308 104.662 89.5206C105.581 88.9105 106.282 88.0232 106.663 86.9877C107.632 84.7842 106.707 83.6385 104.327 83.6385C103.232 83.5933 102.151 83.8919 101.234 84.4925C100.317 85.0932 99.6112 85.9657 99.2154 86.9877C98.2899 89.2352 99.2154 90.381 101.551 90.381ZM93.222 90.2047H94.6322L96.8357 84.8724H99.3035L99.7442 83.8147H93.4424L93.0017 84.8724H95.4255L93.222 90.2047ZM91.4593 85.886C92.0762 84.3876 90.9304 83.6385 88.9914 83.6385C87.8835 83.6127 86.793 83.9175 85.859 84.514C84.925 85.1105 84.1899 85.9717 83.7473 86.9877C82.7777 89.3233 83.9676 90.3809 86.3473 90.3809C87.5307 90.374 88.7055 90.1806 89.8287 89.8081L91.0627 86.8555H87.6253L87.2287 87.825H89.2558L88.7711 89.0589C88.151 89.216 87.5155 89.3047 86.8761 89.3233C84.893 89.3233 84.7608 88.1775 85.2456 86.9876C85.5291 86.2792 86.0237 85.6751 86.6623 85.2573C87.3008 84.8394 88.0524 84.6281 88.8152 84.652C89.5203 84.652 90.3135 85.0045 89.9609 85.8859L91.4593 85.886ZM75.1539 90.2047L77.2251 85.2249H77.2692L78.8997 90.2047H80.8387L83.4828 83.8147H82.1608L80.1336 88.7063L78.5471 83.8147H76.52L73.8759 90.2047L75.1539 90.2047ZM71.9368 90.2047L74.581 83.8147H73.1267L70.4826 90.2047H71.9368ZM63.6519 90.2047L64.7536 87.4724H68.2351L67.0893 90.2047H68.5436L71.1877 83.8147H69.7775L68.6758 86.4148H65.1944L66.252 83.8147H64.8418L62.1977 90.2047H63.6519ZM62.2858 85.7097C62.7706 84.4317 62.0655 83.6384 60.2146 83.6384C58.7162 83.6384 57.1298 84.2554 56.5128 85.7097C55.4111 88.3097 60.5671 87.0317 59.9501 88.4419C59.7739 88.9267 59.1128 89.4114 57.923 89.4114C56.8213 89.4114 56.4246 88.9708 56.6891 88.2216H55.2348C54.6619 89.5877 55.4993 90.381 57.3501 90.381C59.5095 90.381 60.9638 89.5877 61.5367 88.2657C62.6824 85.4893 57.3942 87.1199 58.0993 85.4893C58.2587 85.2121 58.4906 84.9836 58.7701 84.8283C59.0497 84.673 59.3662 84.5969 59.6858 84.608C60.6993 84.608 61.14 84.9164 60.8316 85.7097H62.2858ZM51.6653 87.7368H49.0212L51.489 84.9605L51.6653 87.7368ZM45.2753 90.2047H46.8177L48.0957 88.7945H51.7534L51.8856 90.2047H53.6043L52.9873 83.8147H51.1805L45.2753 90.2047ZM41.6176 85.0927H41.6617L41.3091 90.2047H43.0719L47.9635 83.8147H46.5533L42.8075 88.7945L43.16 83.8147H41.3532L37.6074 88.7945L37.9599 83.8147H36.4175L36.0649 90.2047H37.7836L41.6176 85.0927ZM108.999 78.3061L113.361 75.1332L117.724 78.3061L116.05 73.1942L120.412 70.0212H115.036L113.361 64.8652L111.687 70.0212H106.266L110.673 73.1942L108.999 78.3061ZM80.6625 78.3061L85.0253 75.1332L89.4322 78.3061L87.7575 73.1942L92.1204 70.0212H86.6999L85.0253 64.8652L83.3948 70.0212H77.9743L82.3371 73.1942L80.6625 78.3061ZM52.3704 78.3061L56.7332 75.1332L61.096 78.3061L59.4214 73.1942L63.8282 70.0213H58.4078L56.7332 64.8652L55.0586 70.0213H49.6822L54.045 73.1942L52.3704 78.3061Z" fill="#CF0A2C"/>
<path d="M151.789 139.209H136.541L131.562 145.379H146.765L151.789 139.209Z" fill="#CF0A2C"/>
<path d="M93.3539 112.767L99.832 97.1228H85.5978C80.5999 97.1041 75.7103 98.5792 71.5566 101.359C67.4029 104.138 64.1744 108.096 62.2855 112.723L54.882 130.615H60.9194L67.9263 113.737C70.6145 107.259 76.4756 102.014 85.8182 102.014H91.8115L88.0216 111.181C87.7418 111.792 87.3047 112.318 86.755 112.705C86.2053 113.093 85.5626 113.327 84.8927 113.384H70.967L68.9399 118.232H85.6419C88.6386 118.232 91.6793 116.866 93.3539 112.767ZM165.935 102.014C164.084 106.509 166.508 110.123 171.355 110.123H183.607C184.488 110.123 184.929 110.872 184.532 111.754C184.336 112.209 184.019 112.602 183.615 112.89C183.21 113.177 182.735 113.348 182.24 113.384H159.854L157.826 118.232H180.301C184.488 118.232 188.278 117.306 189.908 113.384C191.759 108.933 189.335 105.276 184.488 105.276H172.237C171.355 105.276 170.915 104.526 171.267 103.645C171.474 103.197 171.794 102.81 172.196 102.524C172.598 102.238 173.068 102.062 173.559 102.014H193.39L195.417 97.1228H175.498C171.355 97.1228 167.213 98.9296 165.935 102.014ZM100.317 118.232L105.913 104.703H99.9201L94.2794 118.232L100.317 118.232ZM109.042 97.1228H103.049L101.022 102.014H107.015L109.042 97.1228ZM154.874 118.232L174.308 71.3867H168.271L148.88 118.232L154.874 118.232ZM126.141 97.1228L124.114 102.014H143.152C146.765 102.014 145.663 104.703 145.663 104.703H133.412C128.565 104.703 124.995 106.906 123.849 109.682C121.866 114.442 124.731 118.232 130.239 118.232H136.453C137.921 118.17 139.348 117.73 140.596 116.954L140.067 118.232H146.06L151.04 106.333C153.111 101.265 149.938 97.1228 143.857 97.1228H126.141ZM56.204 118.232L61.1397 106.333C63.255 101.265 60.038 97.1228 54.0006 97.1228H38.3121L36.285 102.014H53.2955C56.9091 102.014 55.8074 104.703 55.8074 104.703H43.5563C38.7088 104.703 35.1392 106.906 33.9934 109.682C32.0103 114.442 34.8748 118.232 40.3834 118.232H46.597C48.0649 118.17 49.4919 117.73 50.7395 116.954L50.1666 118.232L56.204 118.232ZM24.739 102.014H32.7595L34.7426 97.1228H26.5458C16.8507 97.1228 6.58271 102.984 3.58604 110.167C1.77923 114.53 4.42335 118.232 9.57938 118.232H20.2881C24.9593 118.232 30.6001 113.781 30.6001 113.781L25.6204 111.665C24.2263 112.673 22.5772 113.269 20.861 113.384H10.637C9.35904 113.384 8.78614 112.106 9.49124 110.476C11.4303 105.804 18.2609 102.014 24.739 102.014Z" fill="#041E41"/>
<path d="M106.927 125.062C104.944 129.91 104.988 136.564 107.103 139.913L119.002 158.995L126.846 147.625L112.347 135.55C110.805 134.316 110.364 131.276 111.378 128.896L148.572 39.084H142.534L118.473 97.1665H111.334L109.307 102.058H116.49L106.927 125.062Z" fill="#041E41"/>
<path d="M41.9698 109.595C41.3974 109.636 40.8464 109.829 40.3737 110.154C39.9011 110.48 39.524 110.926 39.2816 111.446C38.841 112.503 39.3257 113.385 40.3834 113.385H49.5937C50.3119 113.359 51.0109 113.147 51.6216 112.768C52.2322 112.389 52.7333 111.858 53.0751 111.225L54.0887 108.846C52.9253 109.316 51.6857 109.57 50.431 109.595H41.9698ZM131.826 109.595C131.253 109.636 130.702 109.829 130.23 110.154C129.757 110.48 129.38 110.926 129.138 111.446C128.697 112.503 129.226 113.385 130.239 113.385H139.45C140.174 113.36 140.879 113.148 141.497 112.77C142.115 112.391 142.624 111.859 142.975 111.225L143.945 108.846C142.781 109.316 141.542 109.57 140.287 109.595H131.826Z" fill="white"/>
</svg>
