<svg width="200" height="200" viewBox="0 0 200 200" fill="none" xmlns="http://www.w3.org/2000/svg">
<g clip-path="url(#clip0_18_2146)">
<path d="M200 100C200 119.778 194.135 139.112 183.147 155.557C172.159 172.002 156.541 184.819 138.268 192.388C119.996 199.957 99.8891 201.937 80.491 198.078C61.0929 194.22 43.2746 184.696 29.2894 170.711C15.3041 156.725 5.78004 138.907 1.92152 119.509C-1.937 100.111 0.0433284 80.0042 7.61209 61.7316C15.1809 43.459 27.9981 27.8412 44.443 16.853C60.8879 5.8649 80.2219 0 100 0C126.521 0.00157081 151.956 10.5378 170.709 29.291C189.462 48.0443 199.998 73.4788 200 100Z" fill="#8E9090"/>
<path d="M193.263 100.001C193.259 118.451 187.784 136.485 177.531 151.823C167.277 167.161 152.706 179.115 135.659 186.171C118.612 193.228 99.8554 195.071 81.7609 191.468C63.6664 187.865 47.0468 178.977 34.0037 165.928C20.9606 152.879 12.0798 136.256 8.48432 118.16C4.88887 100.064 6.74026 81.3079 13.8044 64.2641C20.8685 47.2203 32.828 32.654 48.1706 22.4072C63.5132 12.1604 81.5499 6.69327 99.9996 6.69727C112.251 6.69647 124.382 9.1096 135.7 13.7988C147.018 18.4879 157.302 25.3612 165.963 34.026C174.624 42.6907 181.493 52.9771 186.177 64.2973C190.861 75.6176 193.269 87.7499 193.263 100.001Z" fill="#041E41"/>
<path d="M109.036 31.7869L100 9.07617L90.4399 31.7869C73.9213 34.0383 58.7771 42.1962 47.8089 54.7513C36.8408 67.3065 30.791 83.4093 30.7788 100.081C30.7788 138.16 61.9204 169.02 100 169.02C117.451 168.95 134.225 162.264 146.939 150.312C159.654 138.359 167.362 122.029 168.508 104.617C169.655 87.2038 164.155 70.0043 153.117 56.4878C142.08 42.9714 126.327 34.1441 109.036 31.7869Z" fill="white"/>
<path d="M76.4425 138.685V149.092L92.8604 140.984L94.1109 137.878L100 166.357L105.93 137.636L107.261 140.984L123.72 149.092V138.685L117.588 129.891L117.709 130.012L127.35 128.439L122.953 122.953L130.456 116.418L138.08 115.893L142.195 117.951V106.131L153.449 96.3291L142.437 96.2484L149.9 75.5546L129.448 83.2996L129.085 72.2871L115.087 86.2443C115.45 84.066 120.412 54.9414 120.412 54.9414L107.14 63.6143L76.4425 138.685ZM107.14 63.6143L100 66.801L92.9814 63.5336L79.8713 54.9414C79.8713 54.9414 85.1557 86.204 85.1557 86.2443L71.1985 72.2871L70.7951 83.2996L50.3433 75.5545L57.806 96.2484L46.7935 96.329L57.9673 106.051V117.951L62.0819 115.893L69.8269 116.377L77.33 122.912L72.8927 128.398L80.2747 129.609L107.14 63.6143Z" fill="#7B303E"/>
<path d="M148.326 77.2097L128.802 84.5917L123.074 94.4747L126.987 96.3303L148.326 77.2097ZM119.04 56.9192L107.342 64.624L108.633 70.6748L119.04 56.9192ZM49.2539 97.2177L57.9268 104.801V97.1774L49.2539 97.2177ZM95.7646 141.026L100 162.486V150.707L95.7646 141.026ZM85.1555 87.5364L85.1151 87.4961L72.0454 74.4666L71.642 84.5917L52.0776 77.2097L71.1982 97.2581L87.2531 89.5937L85.1555 87.5364ZM92.7795 64.5029L81.162 56.8789V56.9999L90.4399 79.63L91.045 72.49L92.7795 64.5029ZM88.3422 117.629L71.3193 116.5L78.5399 122.793C78.4189 123.075 74.6271 127.754 74.6271 127.754L83.0176 129.126L88.3423 121.502L88.3422 117.629Z" fill="#AC162C"/>
<path d="M142.113 86.9302L136.546 100.888L110.488 88.4632L109.076 72.4895L100 30.9805L91.085 72.4895L89.6733 88.4632L63.6144 100.888L57.8857 87.1323L57.9261 93.909V117.951L62.0814 115.893L88.3415 117.628V121.541L76.4422 138.685V149.093L92.9 140.984L94.231 137.555L100 150.706L105.93 137.555L107.261 140.984L123.719 149.093V138.685L111.819 121.541V117.628L138.079 115.893L142.235 117.951V93.909L142.113 86.9302Z" fill="#55565A"/>
<path d="M92.8598 72.7307L91.3673 89.6329L90.5608 99.1928L88.8662 90.8427L62.6869 103.348L59.7422 96.2885V115.046L61.7188 114.038L90.1575 115.933V122.106L78.217 139.25V146.188L91.4481 139.693L93.5055 134.529L92.3758 128.802L94.312 133.279L100 146.228V38.2812L92.8598 72.7307Z" fill="#8E9090"/>
</g>
<defs>
<clipPath id="clip0_18_2146">
<rect width="200" height="200" fill="white"/>
</clipPath>
</defs>
</svg>
