<svg width="200" height="200" viewBox="0 0 200 200" fill="none" xmlns="http://www.w3.org/2000/svg">
<g clip-path="url(#clip0_48_82)">
<path d="M200 100C200 155.228 155.228 200 100 200C44.772 200 0 155.228 0 100C0 44.772 44.772 0 100 0C155.228 0 200 44.772 200 100Z" fill="#231F20"/>
<path d="M100.001 197.766C73.9105 197.766 49.3821 187.606 30.9329 169.157C12.4841 150.709 2.32373 126.18 2.32373 100.09C2.32373 73.9997 12.4841 49.4713 30.9325 31.0225C49.3817 12.5745 73.9105 2.41406 100.001 2.41406C126.091 2.41406 150.62 12.5741 169.069 31.0225C187.516 49.4709 197.677 73.9993 197.677 100.09C197.677 126.18 187.516 150.708 169.069 169.157C150.621 187.606 126.092 197.766 100.001 197.766ZM100.001 4.81446C47.4653 4.81446 4.72413 47.5553 4.72413 100.09C4.72413 152.625 47.4653 195.366 100.001 195.366C152.536 195.366 195.277 152.625 195.277 100.09C195.277 47.5549 152.536 4.81446 100.001 4.81446Z" fill="#A29061"/>
<mask id="mask0_48_82" style="mask-type:luminance" maskUnits="userSpaceOnUse" x="34" y="34" width="132" height="132">
<path d="M34.4722 100C34.4722 136.19 63.8102 165.528 99.9998 165.528C136.191 165.528 165.528 136.19 165.528 100C165.528 63.8107 136.191 34.4727 99.9998 34.4727C63.8098 34.4727 34.4722 63.8107 34.4722 100Z" fill="white"/>
</mask>
<g mask="url(#mask0_48_82)">
<path d="M84.5207 33.7695H115.218V166.228H84.5207V33.7695ZM33.0127 46.7559H58.6567V153.242H33.0127V46.7559ZM141.083 46.7559H166.726V153.242H141.083V46.7559Z" fill="#80000B"/>
</g>
<path d="M119.313 63.2413L125.681 50.4629H74.2174L80.5874 63.2445L53.1094 144.732L78.0502 161.084L83.2414 146.275H116.939L121.717 160.976L146.993 144.684L119.313 63.2413ZM93.0886 117.223L99.9834 96.5181L107.091 117.223H93.0886Z" fill="#231F20"/>
<path d="M116.73 63.0651L121.843 52.8359H78.0595L83.1691 63.0647L55.2539 145.85L64.8831 154.848L69.8815 157.203L75.9331 159.9L81.5463 143.885H118.675L124.079 160.512L134.282 155.051L144.989 146.212L116.73 63.0651ZM89.7755 119.614L99.9487 89.0571L110.438 119.616L89.7755 119.614Z" fill="#A29061"/>
<path d="M89.7755 119.614L72.8399 131.766L99.9999 52.7812L127.16 131.766L110.438 119.616L99.9487 89.0573L89.7755 119.614ZM65.6743 152.604L72.8399 131.766H127.16L134.158 152.117L123.384 158.374L118.674 143.885H81.5467L76.4907 158.31L65.6743 152.604Z" fill="#817244"/>
<path d="M100.002 166.334C63.4246 166.334 33.667 136.576 33.667 100C33.667 63.4244 63.425 33.668 100.002 33.668C136.577 33.668 166.334 63.4244 166.334 100C166.334 136.576 136.577 166.334 100.002 166.334ZM100.002 36.3652C64.9122 36.3652 36.3642 64.912 36.3642 100C36.3642 135.089 64.9122 163.637 100.002 163.637C135.09 163.637 163.636 135.089 163.636 100C163.636 64.912 135.09 36.3652 100.002 36.3652Z" fill="#A29061"/>
<path d="M100.001 163.939C64.7441 163.939 36.0605 135.256 36.0605 99.9993C36.0605 64.7433 64.7437 36.0605 100.001 36.0605C135.257 36.0605 163.94 64.7433 163.94 99.9993C163.94 135.256 135.257 163.939 100.001 163.939ZM100.001 38.4485C66.0609 38.4485 38.4485 66.0601 38.4485 99.9993C38.4485 133.939 66.0609 161.551 100.001 161.551C133.941 161.551 161.553 133.939 161.553 99.9993C161.553 66.0601 133.941 38.4485 100.001 38.4485Z" fill="#817244"/>
<path d="M102.944 12.2484C103.126 11.6704 103.306 11.0956 103.486 10.5204C101.173 10.3995 98.8546 10.3921 96.5403 10.4984C96.7171 11.0744 96.8947 11.6504 97.0715 12.2296C95.4076 17.6697 93.7625 23.1156 92.1363 28.5672C93.5087 28.4204 94.8835 28.312 96.2611 28.2456C96.5155 27.3396 96.7679 26.4352 97.0223 25.5304C98.9799 25.4576 100.939 25.4628 102.897 25.5496C103.149 26.4544 103.401 27.362 103.653 28.2692C105.03 28.344 106.404 28.462 107.775 28.6172C106.184 23.1555 104.573 17.6992 102.944 12.2484ZM99.9995 14.988C100.626 17.2596 101.251 19.5392 101.878 21.828C100.608 21.7901 99.3377 21.7858 98.0675 21.8152C98.7086 19.5386 99.3526 17.2629 99.9995 14.988ZM145.862 44.5836C146.927 45.4602 147.967 46.3674 148.98 47.304L151.458 45.9548C152.883 47.2992 154.25 48.7028 155.558 50.1612C155.085 50.972 154.613 51.7848 154.139 52.5964C155.049 53.6332 155.929 54.6954 156.778 55.782C159.561 50.8211 162.328 45.851 165.078 40.8716C165.616 40.596 166.156 40.3216 166.693 40.0476C165.395 38.5805 164.038 37.167 162.626 35.8104C157.027 38.7145 151.439 41.6389 145.862 44.5836ZM154.841 44.0964C156.921 42.9544 158.994 41.8184 161.06 40.688C159.881 42.728 158.693 44.7728 157.502 46.8252C156.64 45.8919 155.753 44.982 154.841 44.0964ZM140.719 20.1172C140.084 21.1688 139.45 22.2204 138.815 23.272C140.122 23.9477 141.413 24.6532 142.687 25.388C140.267 29.4008 137.846 33.4112 135.426 37.4224C136.53 38.0583 137.622 38.7167 138.7 39.3972C141.12 35.3864 143.54 31.3751 145.959 27.3632C147.045 28.048 148.117 28.7536 149.175 29.4796C150.119 28.6424 151.062 27.8052 152.004 26.9692C148.401 24.4332 144.631 22.144 140.719 20.1172ZM128.054 14.8332C127.063 18.1708 126.076 21.5092 125.086 24.8452C124.404 20.9934 123.692 17.1468 122.951 13.306C121.587 12.9521 120.213 12.6388 118.83 12.3664C118.839 12.9636 118.848 13.5584 118.858 14.1552C117.343 19.2628 115.83 24.3704 114.315 29.4796C115.565 29.7348 116.807 30.0244 118.042 30.3464C119.03 27.0096 120.021 23.67 121.011 20.3332C121.75 24.178 122.461 28.0284 123.142 31.884C124.305 32.2833 125.458 32.7129 126.598 33.1724L131.64 16.1652C130.457 15.6884 129.261 15.2442 128.054 14.8332ZM37.7143 35.812C36.3005 37.1671 34.9435 38.5802 33.6467 40.0476C34.1831 40.322 34.7215 40.5964 35.2595 40.8704C38.0103 45.8502 40.7777 50.8209 43.5615 55.7824C44.4105 54.6955 45.2904 53.6332 46.2003 52.5968C45.7259 51.7828 45.2523 50.9716 44.7795 50.1616C46.088 48.7037 47.4558 47.3003 48.8795 45.9548C49.7067 46.404 50.5323 46.8532 51.3607 47.304C52.373 46.3674 53.4124 45.4605 54.4775 44.5844C48.9007 41.6394 43.3129 38.7152 37.7143 35.812ZM42.8379 46.8256C41.6447 44.7732 40.4591 42.7268 39.2775 40.6884C41.3455 41.8168 43.4183 42.9548 45.4983 44.0968C44.5871 44.9823 43.7 45.8923 42.8379 46.8256ZM59.6199 20.1172L61.5235 23.272C60.2172 23.9478 58.9264 24.6533 57.6523 25.388C60.0723 29.4008 62.4931 33.4112 64.9131 37.4224C63.8087 38.0583 62.7174 38.7167 61.6399 39.3972C59.2189 35.3864 56.7988 31.375 54.3795 27.3632C53.2943 28.048 52.2224 28.7536 51.1643 29.4796C50.2195 28.6424 49.2771 27.8052 48.3351 26.9692C51.9378 24.4333 55.7081 22.1441 59.6199 20.1172ZM77.5811 27.9104C76.2935 23.4064 75.0039 18.9024 73.7163 14.3988C72.499 14.7778 71.2909 15.1858 70.0931 15.6224L74.9719 32.6756C78.2019 31.4999 81.5034 30.5305 84.8563 29.7732C84.8855 28.51 84.9159 27.2496 84.9455 25.9908C82.4618 26.5141 80.0042 27.1547 77.5811 27.9104ZM72.5243 166.23C71.3562 165.723 70.196 165.197 69.0443 164.653C66.6055 170.042 64.1655 175.426 61.7267 180.813C62.8787 181.356 64.039 181.881 65.2071 182.388L72.5243 166.23ZM90.1211 171.058L89.2899 174.648C87.8331 174.44 86.3827 174.188 84.9407 173.894C83.8835 178.458 82.8247 183.021 81.7671 187.585C80.5181 187.329 79.2758 187.041 78.0415 186.722C79.0991 182.159 80.1567 177.595 81.2155 173.03C79.7908 172.661 78.3778 172.249 76.9783 171.794C77.2539 170.598 77.5323 169.402 77.8099 168.204C81.8234 169.51 85.9426 170.465 90.1211 171.058ZM99.8203 182.264C101.815 182.276 103.812 182.206 105.803 182.055C105.779 180.826 105.753 179.598 105.729 178.37C103.738 178.524 101.743 178.593 99.7459 178.58L99.6835 175.46C102.221 175.474 104.758 175.358 107.285 175.107L106.087 171.526C102.661 171.812 99.2195 171.854 95.7859 171.654C95.9055 177.566 96.0251 183.476 96.1435 189.389C99.5783 189.589 103.019 189.547 106.446 189.261C106.797 188.002 107.145 186.74 107.495 185.476C104.968 185.725 102.429 185.844 99.8923 185.826C99.8683 184.64 99.8439 183.452 99.8203 182.264ZM126.826 171.489C126.15 169.067 123.686 167.837 121.281 168.574C118.613 169.393 115.901 170.063 113.158 170.581C113.491 171.112 113.824 171.641 114.158 172.169C115.593 177.3 117.027 182.432 118.464 187.563C121.027 187.06 123.562 186.424 126.058 185.657C128.463 184.92 129.826 182.213 129.148 179.796C128.376 177.027 127.602 174.258 126.826 171.489ZM125.534 181.048C125.665 181.512 125.397 182.008 124.935 182.148C123.701 182.526 122.457 182.871 121.204 183.182C120.272 179.854 119.343 176.526 118.412 173.197C119.664 172.883 120.908 172.538 122.142 172.161C122.605 172.021 123.083 172.278 123.212 172.742C123.987 175.51 124.76 178.28 125.534 181.048ZM59.3831 159.028C57.3047 161.821 55.2263 164.612 53.1479 167.407C53.7747 163.548 54.4296 159.694 55.1123 155.845C54.1542 155.075 53.2151 154.281 52.2959 153.465C48.7651 158.208 45.2353 162.951 41.7067 167.696C42.6602 168.543 43.6355 169.365 44.6315 170.162C46.7091 167.368 48.7873 164.575 50.8663 161.783C50.1851 165.629 49.5321 169.48 48.9075 173.336C49.9204 174.034 50.9506 174.707 51.9971 175.353L62.5843 161.121C61.4993 160.451 60.4319 159.753 59.3831 159.028ZM44.9943 145.842C41.4395 148.596 37.8843 151.35 34.3299 154.104C33.9491 154.398 33.3875 154.339 33.0823 153.965C32.4493 153.191 31.8337 152.402 31.2359 151.601C30.9471 151.214 31.0275 150.659 31.4083 150.364C34.9627 147.609 38.5183 144.856 42.0731 142.101C41.2181 140.924 40.4004 139.72 39.6211 138.492C39.2551 139.001 38.8883 139.51 38.5243 140.019C35.4327 142.413 32.3391 144.81 29.2451 147.206C27.2599 148.746 26.7391 151.731 28.2419 153.748C28.8923 154.624 29.564 155.484 30.2563 156.327C31.8503 158.275 34.8839 158.504 36.8675 156.968C40.4235 154.212 43.9779 151.458 47.5339 148.704C46.6611 147.774 45.8142 146.819 44.9943 145.842ZM145.81 160.061C147.835 158.529 149.782 156.897 151.643 155.172C150.605 154.464 149.568 153.755 148.527 153.042C145.837 155.461 142.979 157.686 139.974 159.7C140.484 160.059 140.995 160.418 141.505 160.775L151.417 173.316C152.471 172.599 153.507 171.856 154.525 171.088C153.027 169.191 151.529 167.296 150.03 165.399C151.622 164.195 153.166 162.929 154.659 161.604L152.375 158.713C150.882 160.039 149.337 161.305 147.745 162.509C147.101 161.693 146.455 160.876 145.81 160.061ZM164.395 140.806C162.391 139.287 159.643 139.766 158.158 141.794C157.514 142.674 156.855 143.543 156.182 144.401C154.631 146.382 154.914 149.156 156.918 150.676C159.374 152.535 161.831 154.396 164.287 156.258C166.289 157.775 169.265 157.466 170.814 155.487C171.486 154.629 172.145 153.76 172.789 152.881C174.275 150.852 173.765 147.904 171.765 146.389L170.614 145.518C169.91 146.581 169.186 147.629 168.441 148.663C168.823 148.953 169.206 149.242 169.591 149.533C169.973 149.824 170.059 150.378 169.77 150.766C169.179 151.571 168.576 152.368 167.961 153.155C167.817 153.337 167.606 153.456 167.376 153.486C167.145 153.515 166.912 153.453 166.726 153.314C164.269 151.453 161.813 149.591 159.357 147.731C159.266 147.662 159.19 147.576 159.133 147.478C159.075 147.379 159.038 147.27 159.024 147.157C159.01 147.044 159.018 146.929 159.048 146.82C159.079 146.71 159.131 146.608 159.202 146.518C159.818 145.731 160.421 144.935 161.012 144.13C161.079 144.038 161.163 143.959 161.26 143.9C161.358 143.841 161.466 143.802 161.578 143.785C161.691 143.768 161.806 143.774 161.916 143.802C162.026 143.831 162.13 143.881 162.22 143.95C162.485 144.15 162.751 144.353 163.016 144.553C163.761 143.519 164.486 142.471 165.191 141.409C164.926 141.206 164.661 141.007 164.395 140.806ZM166.718 56.6136C175.13 69.5308 179.569 84.5036 179.569 100.001C179.569 112.421 176.787 124.321 171.3 135.368L173.48 136.453C179.135 125.065 182.002 112.8 182.002 100.001C182.002 83.5792 177.165 67.7276 168.013 54.1604L166.718 56.6136ZM33.2351 56.6136C24.8227 69.5308 20.3839 84.5036 20.3839 100.001C20.3839 112.421 23.1659 124.321 28.6523 135.368L26.4731 136.453C20.8179 125.065 17.9507 112.8 17.9507 100.001C17.9507 83.5792 22.7875 67.7276 31.9395 54.1604L33.2351 56.6136Z" fill="#A39161"/>
</g>
<defs>
<clipPath id="clip0_48_82">
<rect width="200" height="200" fill="white"/>
</clipPath>
</defs>
</svg>
