<svg width="200" height="200" viewBox="0 0 200 200" fill="none" xmlns="http://www.w3.org/2000/svg">
<g clip-path="url(#clip0_48_341)">
<path fill-rule="evenodd" clip-rule="evenodd" d="M166.677 3.36719H26.3677V122.967C26.3677 142.644 34.0342 161.143 47.9532 175.057C61.8723 188.971 80.3789 196.633 100.065 196.633C119.75 196.633 138.256 188.971 152.175 175.057C166.094 161.143 173.761 142.644 173.761 122.967V3.36719H166.677Z" fill="black"/>
<path fill-rule="evenodd" clip-rule="evenodd" d="M151.343 19.7441V30.8551L142.82 19.7452H138.932V42.6573H142.812V27.2991L151.343 38.3782V42.6573H155.222V19.7452H151.343V19.7441ZM99.2124 29.8233C97.9163 29.4496 96.7656 29.1562 95.6523 28.8716C94.6856 28.63 93.7227 28.3736 92.7639 28.1024C92.3234 27.9848 91.8466 27.6628 91.8466 27.1101V24.3123C91.8466 23.8112 92.254 23.4189 92.7738 23.4189H97.6983C98.2181 23.4189 98.6255 23.8112 98.6255 24.3123V26.231H102.639V23.4354C102.639 22.4576 102.25 21.5199 101.558 20.8279C100.866 20.1359 99.9268 19.7462 98.9471 19.7441H91.492C89.4394 19.7441 87.8327 21.365 87.8327 23.4364V28.054C87.8327 30.3211 89.8865 31.2079 91.4303 31.6793C92.9004 32.1156 93.9642 32.3936 95.0896 32.6859C95.9144 32.8991 96.7392 33.1134 97.7765 33.4002C98.5737 33.598 98.6938 34.0859 98.6938 34.3584V38.0892C98.6938 38.5903 98.2863 38.9826 97.7666 38.9826H92.7055C92.1857 38.9826 91.7772 38.5903 91.7772 38.0892V36.2145H87.7634V38.965C87.7637 39.9431 88.1527 40.881 88.8451 41.5732C89.5374 42.2654 90.4767 42.6553 91.4568 42.6573H99.0473C101.099 42.6573 102.705 41.0354 102.705 38.965V33.4485C102.705 31.6936 101.532 30.4738 99.2124 29.8233ZM128.43 42.6573H132.444V19.7441H128.43V42.6573ZM107.655 23.42H113.448V42.6573H117.461V23.42H123.254V19.7441H107.655V23.42ZM55.8332 24.3123C55.8332 23.8123 55.4258 23.42 54.9071 23.42H49.8472C49.3274 23.42 48.92 23.8123 48.92 24.3123V31.131H55.8332V24.3123ZM59.8471 23.4364V42.6573H55.8343V35.143H48.9211V42.6573H44.9072V23.4364C44.9072 22.4583 45.2961 21.5202 45.9886 20.8279C46.6811 20.1357 47.6205 19.7459 48.6006 19.7441H56.1878C58.2404 19.7441 59.8471 21.3661 59.8471 23.4364ZM77.2624 19.7441H81.2763V38.965C81.2763 39.9431 80.8873 40.8813 80.1949 41.5735C79.5024 42.2658 78.563 42.6556 77.5829 42.6573H69.9956C67.943 42.6573 66.3364 41.0365 66.3364 38.965V19.7452H70.3513V38.0881C70.3513 38.5892 70.7588 38.9804 71.2785 38.9804H76.3374C76.8561 38.9804 77.2624 38.5892 77.2624 38.0881V19.7441Z" fill="white"/>
<path fill-rule="evenodd" clip-rule="evenodd" d="M173.761 3.36703H26.3674V122.967C26.3674 142.644 34.0339 161.143 47.953 175.057C61.872 188.97 80.3797 196.633 100.065 196.633C119.75 196.633 138.256 188.97 152.175 175.057C166.095 161.143 173.761 142.644 173.761 122.967V3.36703ZM177.129 0V122.967C177.129 133.362 175.09 143.451 171.068 152.955C167.203 162.105 161.596 170.419 154.557 177.437C147.541 184.47 139.223 190.075 130.064 193.942C120.557 197.962 110.463 200 100.065 200C89.665 200 79.5715 197.962 70.0638 193.942C60.9054 190.075 52.587 184.469 45.5711 177.436C38.5326 170.419 32.9252 162.105 29.0599 152.956C25.0394 143.451 23 133.362 23 122.966V0H177.129ZM35.1351 122.967C35.1196 136.523 39.3764 149.741 47.3033 160.749C75.2284 160.74 92.7131 151.727 92.7131 128.079C92.7131 119.506 88.2863 118.003 83.0402 118.003C72.0228 118.003 62.3665 127.731 53.5569 127.731C47.6678 127.731 43.6077 125.275 41.293 124.209L43.513 119.38C43.513 119.38 48.5718 122.378 52.5978 122.378C56.8726 122.378 61.1816 119.595 61.1816 119.595C61.1816 119.595 57.8648 118.163 55.1856 114.555C53.5448 112.346 52.404 108.948 51.9811 106.108H57.3329C58.052 109.449 60.3348 115.767 67.2987 115.775C69.653 115.77 74.6326 113.22 77.4098 113.22C73.4775 108.389 71.6429 100.391 71.6429 100.391C71.6429 100.391 73.9521 99.5429 76.6456 98.4956C81.3598 115.623 85.0873 107.971 92.9553 115.102C92.9641 93.1121 107.449 91.9791 107.449 77.6297C107.449 70.9824 104.295 67.3044 102.626 65.5066L105.485 60.9824C105.485 60.9824 109.144 64.3494 111.258 69.9363C113.816 66.1967 118.311 64.6747 119.453 64.6747V70.0198C116.86 70.0198 113.12 73.9725 112.565 79.6022C112.103 84.2967 110.408 87.7077 110.408 87.7077C110.408 87.7077 112.498 86.8846 114.841 86.8846C120.089 86.8846 125.424 89.2077 125.424 89.2077C128.277 77.9714 132.93 73.5484 140.994 71.6077V76.9473C136.391 78.2802 132.997 81.3681 130.511 90.9506C130.511 90.9506 135.557 93.0077 140.302 93.0077C143.642 93.0077 146.661 92.2956 149.22 88.7945L154.186 90.733C154.186 90.733 151.848 98.333 142.315 98.333C128.486 98.333 124.223 92.233 114.224 92.233C107.708 92.233 98.3225 97.7659 98.3225 116.929V123.999C98.3225 123.999 98.2124 143.49 98.2124 144.12C98.2124 165.766 93.8814 180.936 91.5106 187.304C97.1878 188.055 102.939 188.055 108.616 187.304C106.246 180.936 101.915 165.766 101.915 144.12C101.915 143.49 101.805 123.999 101.805 123.999C101.805 121.004 101.816 119.008 101.816 116.929C101.816 106.879 105.15 102.789 105.15 102.789C107.222 107.774 107.152 114.079 107.152 115.12C115.033 107.957 118.752 115.637 123.47 98.4956C124.779 99.0066 128.473 100.391 128.473 100.391C128.473 100.391 126.65 108.389 122.717 113.22C125.494 113.22 130.473 115.77 132.827 115.775C139.792 115.767 142.075 109.449 142.794 106.108H148.146C147.723 108.948 146.582 112.346 144.941 114.555C142.262 118.163 138.944 119.595 138.944 119.595C138.944 119.595 143.254 122.378 147.529 122.378C151.554 122.378 156.614 119.38 156.614 119.38L158.834 124.209C156.519 125.275 152.458 127.731 146.57 127.731C137.761 127.731 128.104 118.003 117.086 118.003C111.841 118.003 107.414 119.506 107.414 128.08C107.414 151.729 124.899 160.74 152.823 160.751C160.75 149.741 165.007 136.523 164.991 122.966V53.6648H35.1362L35.1351 122.967ZM35.1351 50.2989H164.992V12.1319H35.1351V50.2989ZM141.796 172.643C124.797 172.548 113.171 159.419 107.38 148.77C108.462 168.887 120.657 179.958 125.063 182.863C131.127 180.32 136.769 176.875 141.796 172.643ZM92.7472 148.77C86.956 159.419 75.3297 172.548 58.3306 172.643C63.3583 176.875 69.0004 180.32 75.0643 182.863C79.4691 179.958 91.6636 168.888 92.7472 148.77ZM31.7688 8.76484H168.36V122.967C168.36 160.611 137.723 191.236 100.065 191.236C62.4061 191.236 31.7688 160.611 31.7688 122.967V8.76484ZM57.8031 98.333C71.6308 98.333 75.8957 92.233 85.8945 92.233C88.9437 92.233 91.7352 93.3429 94.1039 95.2769C94.5223 94.6637 96.1807 92.2978 97.8589 90.5978C95.0377 86.9791 92.669 83.433 92.669 77.6308C92.669 70.9824 95.8217 67.3044 97.4922 65.5066L94.6336 60.9824C94.6336 60.9824 90.9743 64.3495 88.86 69.9374C86.3019 66.1967 81.8069 64.6736 80.6649 64.6736V70.0198C83.2583 70.0198 86.9979 73.9725 87.5529 79.6022C88.0154 84.2967 89.709 87.7077 89.709 87.7077C89.709 87.7077 87.6201 86.8846 85.2756 86.8846C80.0285 86.8846 74.6932 89.2077 74.6932 89.2077C71.8411 77.9714 67.1875 73.5484 59.1235 71.6077V76.9473C63.7286 78.2802 67.1203 81.3681 69.6068 90.9506C69.6068 90.9506 64.56 93.0077 59.8161 93.0077C56.4751 93.0077 53.4567 92.2956 50.8976 88.7945L45.9312 90.733C45.9312 90.733 48.2701 98.333 57.8031 98.333ZM80.5923 83.2187L80.861 83.3484L80.9226 83.0561C81.366 80.9304 81.0871 78.7179 80.1298 76.7681C79.1667 74.8241 77.582 73.2558 75.6259 72.311L75.3561 72.1813L75.2944 72.4725C74.8508 74.5982 75.1297 76.8107 76.0873 78.7604C77.0489 80.7058 78.6351 82.2749 80.5923 83.2187ZM55.1327 85.3681C56.5958 86.9716 58.5539 88.0411 60.696 88.4066L60.9911 88.4561L60.9691 88.1593C60.8076 85.9945 59.9276 83.9451 58.4682 82.3352C57.0041 80.7325 55.0459 79.6632 52.9039 79.2967L52.6088 79.2473L52.6308 79.544C52.7923 81.709 53.6727 83.7585 55.1327 85.3681ZM84.3154 96.2692L84.0533 96.1297L83.9795 96.4187C83.952 96.5264 83.9355 96.6352 83.9113 96.744C83.4737 98.7534 83.6834 100.849 84.5103 102.733C85.3913 104.717 86.9104 106.35 88.827 107.375L89.0913 107.514L89.165 107.225C89.186 107.143 89.1981 107.059 89.2168 106.977C89.676 104.945 89.4714 102.819 88.6332 100.911C87.7509 98.9282 86.231 97.295 84.3154 96.2692ZM67.2734 104.77C66.3734 103.664 65.2431 102.767 63.961 102.141C63.3056 101.817 62.6155 101.569 61.904 101.401L61.6132 101.334L61.6177 101.632C61.6475 103.803 62.4024 105.902 63.7628 107.597C65.1263 109.285 67.0157 110.47 69.1311 110.964L69.4218 111.032L69.4185 110.733C69.388 108.563 68.6332 106.464 67.2734 104.77ZM45.1339 114.489C46.6569 116.035 48.6542 117.03 50.8084 117.313L51.1035 117.352L51.0704 117.055C50.8264 114.899 49.8693 112.886 48.3505 111.333C46.827 109.787 44.83 108.793 42.6761 108.508L42.3788 108.469L42.4129 108.766C42.6562 110.922 43.6145 112.936 45.1339 114.489ZM100.047 83.6703L100.059 83.656L100.071 83.6703L100.255 83.4363C101.593 81.7247 102.321 79.6168 102.323 77.4462C102.318 75.2753 101.589 73.1681 100.25 71.4571L100.065 71.222L100.059 71.2286L100.054 71.222L99.8686 71.4571C98.5297 73.1681 97.8001 75.2753 97.7951 77.4462C97.7976 79.6168 98.5253 81.7247 99.8631 83.4363L100.047 83.6703ZM119.197 83.0571L119.257 83.3495L119.527 83.2198C121.485 82.2762 123.07 80.7071 124.032 78.7615C124.99 76.8118 125.269 74.5993 124.825 72.4736L124.762 72.1824L124.493 72.3121C122.537 73.2567 120.952 74.825 119.988 76.7692C119.031 78.719 118.753 80.9315 119.197 83.0571ZM139.127 88.4572L139.421 88.4077C141.564 88.0424 143.522 86.9729 144.985 85.3692C146.445 83.7595 147.326 81.7101 147.487 79.5451L147.509 79.2484L147.214 79.2978C145.072 79.6643 143.114 80.7336 141.65 82.3363C140.19 83.946 139.31 85.9954 139.148 88.1604L139.127 88.4572ZM116.139 96.4176L116.065 96.1286L115.802 96.2681C113.886 97.2939 112.367 98.9271 111.485 100.91C110.647 102.818 110.442 104.944 110.901 106.976C110.92 107.058 110.932 107.142 110.953 107.224L111.026 107.513L111.29 107.374C113.207 106.349 114.726 104.716 115.608 102.733C116.435 100.849 116.644 98.7534 116.207 96.744C116.183 96.6341 116.166 96.5242 116.139 96.4176ZM136.156 102.138C134.874 102.766 133.744 103.664 132.844 104.769C131.484 106.463 130.729 108.562 130.699 110.732L130.695 111.031L130.986 110.963C133.102 110.469 134.992 109.284 136.355 107.596C137.716 105.901 138.471 103.802 138.501 101.631L138.504 101.333L138.213 101.4C137.502 101.568 136.812 101.816 136.156 102.138ZM149.048 117.055L149.015 117.352L149.311 117.312C151.465 117.028 153.462 116.034 154.985 114.488C156.505 112.935 157.462 110.921 157.705 108.764L157.738 108.467L157.443 108.507C155.289 108.791 153.292 109.785 151.769 111.331C150.249 112.884 149.292 114.898 149.049 117.055H149.048ZM121.483 133.489V143.432C121.483 144.235 121.803 145.005 122.372 145.574C122.94 146.142 123.712 146.463 124.517 146.465H133.15V143.078H125.418C125.246 143.078 125.115 142.957 125.115 142.798V134.122C125.115 133.963 125.246 133.843 125.418 133.843H133.149V130.455H124.517C123.712 130.457 122.94 130.777 122.372 131.346C121.803 131.914 121.483 132.686 121.483 133.489ZM70.6375 146.466H67.0069V133.49C67.0069 132.687 67.3263 131.916 67.8951 131.347C68.4639 130.779 69.2355 130.459 70.0407 130.457H78.6718V133.844H70.9414C70.7685 133.844 70.6375 133.964 70.6375 134.123V138.019H78.6718V141.648H70.6375V146.466Z" fill="#00B140"/>
</g>
<defs>
<clipPath id="clip0_48_341">
<rect width="200" height="200" fill="white"/>
</clipPath>
</defs>
</svg>
