<svg width="200" height="200" viewBox="0 0 200 200" fill="none" xmlns="http://www.w3.org/2000/svg">
<g clip-path="url(#clip0_48_154)">
<path d="M100 200C155.229 200 200 155.229 200 100C200 44.7707 155.229 0 100 0C44.7707 0 0 44.7707 0 100C0 155.229 44.7707 200 100 200Z" fill="#003DA6"/>
<path d="M99.9996 151.482C128.432 151.482 151.482 128.432 151.482 99.9996C151.482 71.5676 128.432 48.5176 99.9996 48.5176C71.5676 48.5176 48.5176 71.5676 48.5176 99.9996C48.5176 128.432 71.5676 151.482 99.9996 151.482Z" fill="black"/>
<path d="M193.982 99.9996C193.982 48.1009 151.906 6.01758 99.9996 6.01758C48.0929 6.01758 6.01758 48.1009 6.01758 99.9996C6.01758 109.213 7.35091 118.112 9.82224 126.518L6.95291 127.51C18.8149 167.684 55.9816 197 99.9996 197C144.018 197 181.184 167.684 193.046 127.51L190.177 126.518C192.706 117.902 193.987 108.968 193.982 99.9889V99.9996ZM10.2782 99.9996C10.2782 50.4449 50.4449 10.2782 99.9996 10.2782C149.554 10.2782 189.721 50.4449 189.721 99.9996C189.726 108.506 188.523 116.97 186.148 125.138L99.9889 95.4269L13.8509 125.13C11.4754 116.965 10.2724 108.503 10.2782 99.9996Z" fill="black"/>
<path d="M100 0C44.768 0 0 44.768 0 100C0 155.232 44.768 200 100 200C155.232 200 200 155.232 200 100C200 44.768 155.232 0 100 0ZM100 193.982C48.0933 193.982 6.018 151.906 6.018 100C6.018 48.0933 48.094 6.018 100 6.018C151.907 6.018 193.982 48.094 193.982 100C193.982 151.907 151.906 193.982 100 193.982Z" fill="#C1C5C8"/>
<path d="M49.4266 118.389L41.1953 121.233V167.779C51.5106 176.733 63.888 183.371 77.518 186.889V148.889C64.5366 142.907 54.3433 131.917 49.4266 118.389ZM158.787 121.222L150.565 118.389C145.649 131.917 135.453 142.907 122.471 148.889V186.881C136.101 183.363 148.482 176.722 158.797 167.769V121.222H158.787Z" fill="#003DA6"/>
<path d="M99.9998 153.796C91.9711 153.796 84.3618 152.036 77.5178 148.887V186.887C84.862 188.779 92.4159 189.734 99.9998 189.731C107.76 189.731 115.296 188.739 122.482 186.887V148.898C115.638 152.046 108.028 153.804 99.9998 153.804V153.796ZM15.4531 130.101C20.6845 144.804 29.6485 157.739 41.2031 167.767V121.221L15.4531 130.101ZM184.546 130.111L158.786 121.231V167.778C170.344 157.749 179.304 144.815 184.546 130.111Z" fill="black"/>
<path d="M79.7968 167.601C80.1488 167.565 80.6381 167.489 80.9535 167.583L82.1121 167.917C82.4821 168.029 82.5548 168.138 82.4715 168.445L79.7395 177.888C79.6488 178.195 79.5181 178.25 79.1561 178.148L77.2395 177.594C76.8701 177.489 76.7968 177.37 76.8801 177.065L78.8621 170.203L76.6848 169.583C76.3155 169.471 76.2395 169.362 76.3228 169.055L76.5288 168.344C76.5728 168.167 76.6301 168.055 76.8988 167.989C76.8988 167.989 79.4455 167.638 79.7968 167.601ZM88.0835 173C88.2868 170.927 90.1954 169.37 92.7394 169.63C96.5001 170.01 97.2321 172.482 96.9348 175.445C96.6301 178.489 95.0548 180.963 91.4061 180.594C89.9274 180.445 88.7968 179.823 87.8228 178.768C87.5941 178.518 87.6774 178.417 87.9348 178.195L89.0001 177.333C89.2601 177.13 89.3988 177.083 89.6381 177.351C90.2135 177.989 90.8154 178.37 91.8514 178.471C93.0548 178.594 94.0181 177.62 94.1848 175.971C93.8154 176.351 93.1381 176.844 91.3621 176.667C89.3801 176.471 87.8801 175.185 88.0941 172.989L88.0835 173ZM90.7788 173.101C90.6954 173.981 91.4061 174.739 92.3701 174.833C93.4534 174.945 94.1848 174.323 94.2788 173.445C94.3701 172.519 93.7681 171.805 92.6855 171.695C91.6381 171.594 90.8701 172.167 90.7788 173.094V173.101ZM102.5 173.917C102.305 171.843 103.88 169.953 106.427 169.713C110.195 169.362 111.38 171.649 111.656 174.62C111.945 177.667 110.869 180.399 107.221 180.74C105.739 180.88 104.511 180.489 103.351 179.638C103.083 179.435 103.138 179.323 103.351 179.055L104.231 178.011C104.445 177.761 104.573 177.685 104.862 177.906C105.547 178.427 106.213 178.685 107.239 178.583C108.445 178.471 109.203 177.333 109.055 175.677C108.761 176.12 108.195 176.732 106.417 176.899C104.435 177.083 102.713 176.112 102.51 173.917H102.5ZM105.167 173.5C105.25 174.38 106.093 174.989 107.065 174.899C108.149 174.797 108.75 174.055 108.667 173.177C108.583 172.25 107.851 171.667 106.768 171.768C105.721 171.87 105.083 172.583 105.167 173.511V173.5ZM119.047 174.093C118.703 174.185 118.583 174.13 118.5 173.815L118.185 172.703C118.101 172.399 118.167 172.279 118.511 172.185L119.851 171.815C120.982 171.5 121.287 170.862 121.138 170.315C120.927 169.555 120.351 169.239 119.221 169.555C118.221 169.833 117.927 170.279 117.481 171.055C117.315 171.344 117.148 171.344 116.862 171.185L115.721 170.537C115.435 170.362 115.333 170.279 115.518 169.99C116.297 168.779 117.073 167.927 118.638 167.49C120.471 166.971 123.065 167.213 123.667 169.37C123.953 170.406 123.518 171.343 122.917 171.963V171.982C123.833 172.138 124.823 172.463 125.185 173.75C125.787 175.906 124.065 177.445 121.612 178.13C120.047 178.565 118.721 178.305 117.435 177.677C117.13 177.529 117.167 177.406 117.323 177.101L117.963 175.971C118.13 175.685 118.279 175.612 118.565 175.761C119.388 176.149 120.037 176.344 121.029 176.065C122.482 175.656 122.732 175.019 122.518 174.261C122.37 173.714 121.721 173.344 120.594 173.656L119.029 174.094L119.047 174.093ZM32.3048 81.12C32.1015 80.7786 32.1955 80.612 32.5181 80.3986L33.9635 79.4633C34.2968 79.25 34.4348 79.2033 34.6381 79.5466C35.4715 81.0106 35.7608 83.1013 35.3621 84.9633C34.5468 88.75 31.0108 91.268 27.5368 90.518C24.0655 89.768 21.8701 86.0286 22.6768 82.2393C23.0728 80.38 24.1955 78.5833 25.5548 77.594C25.8801 77.362 25.9815 77.4633 26.2035 77.7966L27.1381 79.2393C27.3441 79.5653 27.3621 79.75 27.0368 79.982C26.0368 80.6486 25.3988 81.5833 25.1381 82.7686C24.6301 85.1487 26.2788 86.9353 28.2135 87.3513C30.1201 87.7606 32.3801 86.8226 32.8988 84.4346C33.1561 83.2393 32.9535 82.138 32.3155 81.112L32.3048 81.12ZM39.9348 70.0466C40.2681 70.2213 40.3048 70.38 40.1121 70.74L39.1121 72.638C38.9168 73 38.7681 73.0546 38.4348 72.888L28.2135 67.5286C27.8801 67.3513 27.8441 67.1953 28.0368 66.8333L32.1848 58.9266C32.3801 58.5653 32.5288 58.5106 32.8621 58.6773L34.1955 59.37C34.5288 59.5466 34.5655 59.7033 34.3701 60.0653L31.4635 65.6013L33.6955 66.768L36.5108 61.406C36.7035 61.0466 36.8515 60.9893 37.1848 61.1666L38.5181 61.862C38.8515 62.0366 38.8881 62.1846 38.6955 62.5546L35.8801 67.9166L39.9348 70.0466ZM61.6381 45.1846C61.6381 45.5546 61.6381 45.7866 61.4895 45.888L61.2868 46.0366C61.1381 46.138 60.9268 46.0726 60.5735 45.9533L54.1201 43.9453L56.5548 48.5546C56.7395 48.906 56.7395 49.018 56.4061 49.2606L54.6668 50.5106C54.3335 50.75 54.1121 50.75 53.9535 50.4273L48.2681 39.612C48.2135 39.5 48.2035 39.4533 48.3148 39.38L48.4454 39.2866C48.5108 39.24 48.5728 39.232 48.7321 39.2866L58.8701 42.4533L59.1121 31.8333C59.1121 31.6773 59.1488 31.612 59.2135 31.5653L59.3441 31.4713C59.4534 31.388 59.4895 31.406 59.5835 31.5L68.0001 40.3513C68.2401 40.62 68.1848 40.8153 67.8515 41.0546L66.1121 42.3046C65.7788 42.5466 65.6561 42.518 65.3988 42.2213L61.8521 38.3226L61.6561 45.1953L61.6381 45.1846ZM77.2135 23.9166C80.9268 22.8046 84.8334 24.6953 85.8514 28.1013C86.8701 31.5106 84.6488 35.2393 80.9348 36.3513C77.2215 37.4633 73.3148 35.5726 72.2968 32.1666C71.2788 28.76 73.5001 25.0286 77.2135 23.9166ZM80.2135 33.9346C82.6201 33.2133 83.3048 30.8986 82.7501 29.0366C82.1848 27.138 80.3515 25.612 77.9348 26.3333C75.6015 27.0286 74.8335 29.3333 75.3988 31.232C75.9535 33.1013 77.8701 34.63 80.2135 33.9346ZM126.417 25.138C126.815 25.25 126.899 25.38 126.797 25.75L126.362 27.3153C126.261 27.6773 126.12 27.75 125.721 27.638L121.989 26.6013L119.471 35.6953C119.37 36.0546 119.231 36.13 118.833 36.018L116.768 35.4453C116.37 35.3333 116.287 35.2033 116.388 34.844L118.906 25.75L115.177 24.7133C114.779 24.6013 114.695 24.4713 114.797 24.1013L115.232 22.5366C115.333 22.1766 115.471 22.1013 115.87 22.2133L126.417 25.13V25.138ZM97.0655 32.9533C97.0655 33.3333 96.9454 33.4346 96.5368 33.4346H94.3988C93.9821 33.4346 93.8701 33.3226 93.8701 32.9533V20.8513C93.8701 20.7313 93.9061 20.6953 94.0468 20.6953H94.2401C94.3801 20.6953 94.4715 20.75 94.6121 20.8513L102.945 27.6953V21.406C102.945 21.0286 103.065 20.9273 103.471 20.9273H105.612C106.029 20.9273 106.138 21.0366 106.138 21.406V33.5106C106.138 33.6306 106.101 33.6666 105.963 33.6666H105.768C105.63 33.6666 105.537 33.612 105.399 33.5106L97.0655 26.5726V32.9533ZM139.018 39.518L139.482 45.2133C139.511 45.75 139.13 45.732 138.769 45.518L137.065 44.5C136.713 44.2866 136.583 44.0466 136.537 43.62L136.094 38.0833L135.149 37.518L132.823 41.398C132.63 41.7213 132.471 41.75 132.12 41.5366L130.279 40.4346C129.927 40.2213 129.88 40.0726 130.073 39.75L136 29.8433C136.195 29.518 136.351 29.49 136.703 29.7033L140.906 32.2133C142.833 33.362 144.768 35.518 143.279 38.0106C142.25 39.732 140.594 39.9453 139.011 39.518H139.018ZM138.213 36.5366C139.399 37.2393 140.149 37.2133 140.62 36.4166C141.101 35.62 140.768 34.9453 139.583 34.2393L137.761 33.1486L136.381 35.4453L138.203 36.5366H138.213ZM145.138 50.7866C144.851 50.4893 144.851 50.3333 145.12 50.0733L153.463 42.0933C153.732 41.8333 153.888 41.844 154.177 42.138L160.343 48.5833C160.63 48.88 160.63 49.0366 160.362 49.2966L159.279 50.3333C159.011 50.5933 158.852 50.5833 158.565 50.2866L154.239 45.768L152.417 47.5106L156.565 51.844C156.852 52.138 156.852 52.2973 156.583 52.5546L155.5 53.594C155.232 53.8513 155.073 53.844 154.787 53.5473L150.638 49.214L148.768 51L153.094 55.518C153.381 55.8153 153.381 55.9713 153.112 56.2313L152.029 57.268C151.761 57.5286 151.602 57.518 151.315 57.2213L145.149 50.7786L145.138 50.7866ZM159.917 44.156C159.621 44.1128 159.348 43.974 159.138 43.7606L158 42.5653C157.76 42.3046 157.815 42.138 158.399 42.156L161.88 42.232C162.26 42.2213 162.362 42.482 162.279 42.88L162.011 44.1486C161.927 44.4713 161.833 44.5546 161.399 44.4893L159.927 44.1666L159.917 44.156ZM162.844 75.362C162.703 75.594 162.399 75.5466 162.261 75.2866L161.094 73.0546C160.927 72.7393 160.971 72.594 161.203 72.2213L162.351 70.4453L159.787 65.5466L157.677 65.4713C157.239 65.4533 157.094 65.398 156.927 65.0833L155.761 62.8513C155.62 62.594 155.768 62.3333 156.029 62.3333L169.656 62.9713C170.018 63.0106 170.203 62.9713 170.287 63.13L170.315 63.1846C170.399 63.344 170.269 63.4713 170.083 63.7966L162.833 75.3513L162.844 75.362ZM166.399 65.094L162.203 65.0286L164.083 68.62L166.417 65.138L166.399 65.1013V65.094ZM168.463 89.9633C168.547 90.37 168.463 90.5 168.101 90.5833L166.63 90.888C166.261 90.9633 166.13 90.87 166.047 90.4713L164.37 82.5466C164.287 82.138 164.37 82.0106 164.732 81.9266L176.029 79.5466C176.399 79.4713 176.529 79.5653 176.612 79.9633L177.055 82.0546C177.138 82.4633 177.055 82.594 176.695 82.6773L167.333 84.6486L168.453 89.9533L168.463 89.9633Z" fill="white"/>
<path d="M122.482 136.083C124.729 133.087 126.767 129.941 128.584 126.666C136.88 111.739 141.352 93.796 141.529 74.778C141.547 72.296 141.472 69.3873 141.316 66.554C137.573 65.398 130.844 63.5173 122.472 62.1113L122.482 136.101V136.083ZM122.482 144.509C121.659 145.426 120.813 146.321 119.946 147.195L119.928 147.213C118.245 148.907 116.477 150.514 114.63 152.028C114.602 152.046 114.573 152.072 114.547 152.093C113.203 153.182 111.815 154.217 110.388 155.195C110.38 155.195 110.37 155.213 110.352 155.213C109.906 155.517 109.464 155.804 109.018 156.093C108.964 156.129 108.917 156.155 108.862 156.195C108.417 156.471 107.982 156.749 107.537 157.017C107.513 157.03 107.491 157.046 107.472 157.064C106.524 157.634 105.557 158.172 104.573 158.677C104.537 158.695 104.49 158.713 104.453 158.739C104.029 158.963 103.594 159.177 103.156 159.379C103.073 159.416 103 159.453 102.917 159.489C102.495 159.692 102.068 159.886 101.638 160.072C101.584 160.101 101.537 160.119 101.482 160.148C100.99 160.361 100.5 160.565 100.011 160.768C99.8336 160.695 99.6563 160.619 99.4823 160.546C99.2216 160.434 98.9536 160.333 98.6956 160.221C98.4636 160.119 98.2216 160.017 97.9896 159.905C97.7683 159.804 97.5549 159.713 97.3336 159.601C97.0936 159.489 96.8516 159.369 96.6123 159.26C96.4012 159.157 96.1912 159.052 95.9823 158.945C95.7396 158.822 95.4896 158.703 95.2503 158.572C95.0494 158.47 94.8516 158.363 94.6569 158.249C94.2036 157.999 93.7396 157.749 93.2869 157.489C93.1016 157.387 92.9269 157.286 92.7403 157.176C92.4823 157.028 92.2323 156.869 91.9823 156.713C91.8049 156.601 91.6203 156.489 91.4456 156.379C91.1856 156.221 90.9349 156.054 90.6856 155.887C90.5107 155.777 90.3378 155.663 90.1669 155.546C89.9069 155.369 89.6489 155.203 89.3883 155.028C89.2609 154.935 89.1203 154.843 88.9896 154.749C88.4457 154.371 87.9092 153.982 87.3803 153.583C87.2683 153.499 87.1563 153.416 87.0369 153.333C86.7691 153.129 86.5033 152.922 86.2396 152.713C86.0943 152.601 85.9456 152.481 85.8049 152.369C85.5469 152.156 85.2869 151.945 85.0289 151.731C84.8883 151.619 84.7503 151.499 84.6123 151.379C84.3443 151.155 84.0729 150.926 83.8049 150.695C83.7216 150.629 83.6489 150.554 83.5649 150.481C82.9578 149.947 82.3589 149.403 81.7683 148.851C81.7138 148.804 81.6618 148.755 81.6123 148.703C81.3443 148.445 81.0656 148.184 80.7969 147.916C80.6849 147.804 80.5656 147.695 80.4536 147.583C80.1956 147.323 79.9269 147.054 79.6669 146.796C79.5549 146.684 79.4536 146.572 79.3443 146.463C79.0725 146.181 78.8034 145.898 78.5369 145.611C78.5003 145.572 78.4716 145.536 78.4349 145.499C78.1303 145.166 77.8229 144.843 77.5183 144.499C77.0729 143.999 76.6303 143.489 76.1956 142.981C76.0943 142.861 75.9896 142.739 75.8883 142.611C75.0098 141.564 74.158 140.495 73.3336 139.405C73.2323 139.278 73.1383 139.148 73.0369 139.01C72.2045 137.895 71.402 136.758 70.6303 135.601C70.5369 135.463 70.4349 135.314 70.3436 135.177C69.9522 134.589 69.5695 133.997 69.1956 133.398C68.8156 132.796 68.4456 132.185 68.0836 131.572C67.9882 131.422 67.8987 131.268 67.8156 131.111C67.4523 130.49 67.0936 129.866 66.7396 129.239C58.0109 113.536 53.3049 94.7027 53.1196 74.796C53.1016 72.6373 53.1563 70.26 53.2609 67.916C53.3443 66.0827 53.4536 64.26 53.5943 62.5647C53.5943 62.5647 53.6123 62.5647 53.6489 62.546C53.6669 62.546 53.6849 62.528 53.7136 62.5173C53.7323 62.5173 53.7603 62.4993 53.7869 62.4887C53.8218 62.4801 53.8558 62.468 53.8883 62.4527C53.9232 62.4438 53.9571 62.4316 53.9896 62.416C54.0183 62.4053 54.0469 62.398 54.0729 62.3873C54.1196 62.3693 54.1669 62.3507 54.2216 62.3433C54.2503 62.3433 54.2683 62.322 54.2969 62.3147C54.3803 62.286 54.4636 62.26 54.5549 62.2207C54.5836 62.2207 54.6016 62.2027 54.6303 62.1947C54.7036 62.166 54.7869 62.1373 54.8803 62.1113C54.9069 62.1007 54.9456 62.0933 54.9716 62.0827C55.2036 62.0093 55.4636 61.916 55.7503 61.8227L55.8436 61.796C55.9716 61.76 56.1016 61.7127 56.2396 61.666C56.2683 61.666 56.2863 61.648 56.3156 61.6373C56.4823 61.5827 56.6563 61.528 56.8336 61.4707H56.8443L57.3803 61.304C57.4069 61.296 57.4456 61.286 57.4823 61.278C57.6669 61.2207 57.8516 61.166 58.0469 61.1007H58.0736C58.2869 61.036 58.5109 60.9707 58.7323 60.9053C58.7517 60.9041 58.7706 60.8979 58.7869 60.8873C58.9896 60.822 59.2036 60.7673 59.4269 60.7027C59.4536 60.7027 59.4896 60.684 59.5183 60.676C59.9896 60.536 60.5003 60.398 61.0289 60.2493C61.0549 60.2493 61.0943 60.2313 61.1203 60.2207C61.3623 60.1553 61.6016 60.0933 61.8516 60.0173C61.8803 60.0173 61.9063 59.9993 61.9456 59.9887C62.5003 59.8433 63.0729 59.684 63.6776 59.5353C63.7136 59.528 63.7503 59.5173 63.7976 59.51C64.0836 59.434 64.3703 59.3613 64.6669 59.286C64.6849 59.286 64.6956 59.286 64.7136 59.278C65.0369 59.1947 65.3623 59.1193 65.6956 59.036H65.7136C66.0289 58.9627 66.3443 58.8873 66.6669 58.804C66.7136 58.796 66.7503 58.786 66.7969 58.778C67.4904 58.6158 68.1849 58.4578 68.8803 58.304C68.9169 58.304 68.9536 58.286 68.9896 58.278C69.3156 58.2027 69.6489 58.1373 69.9716 58.0647L70.1016 58.036C70.8336 57.8793 71.5729 57.7313 72.3443 57.572C72.4032 57.565 72.4614 57.5529 72.5183 57.536C72.8703 57.4707 73.2216 57.398 73.5836 57.3327C73.6123 57.3327 73.6489 57.322 73.6769 57.3147C74.0729 57.2387 74.4823 57.166 74.8883 57.0933H74.9349C75.3149 57.028 75.6956 56.9627 76.0729 56.8873C76.1383 56.8793 76.2136 56.8613 76.2789 56.8507C76.6776 56.786 77.0836 56.7127 77.4823 56.648C77.4823 56.648 77.5289 56.648 77.5469 56.6373C78.2869 56.5173 79.0369 56.4053 79.8049 56.296C79.9007 56.2789 79.9972 56.2669 80.0943 56.26C80.8443 56.148 81.6016 56.0467 82.3703 55.9447C82.4276 55.9447 82.4823 55.9267 82.5369 55.9267C83.3336 55.822 84.1489 55.7313 84.9636 55.6373L85.2396 55.6113C86.0469 55.528 86.8703 55.4447 87.6956 55.3693C87.7323 55.3693 87.7789 55.3693 87.8156 55.3613C88.6669 55.286 89.5183 55.2207 90.3883 55.1553C90.4716 55.1553 90.5656 55.148 90.6563 55.1373C91.5264 55.0795 92.3971 55.0299 93.2683 54.9887H93.3336C94.2216 54.9447 95.1303 54.916 96.0289 54.898H96.2689C97.1849 54.8793 98.1023 54.8613 99.0289 54.8613H100.917C101.852 54.8613 102.779 54.8693 103.696 54.898H103.888C105.74 54.9447 107.555 55.028 109.352 55.148H109.49C111.305 55.268 113.084 55.4347 114.816 55.6193H114.862C117.5 55.906 120.037 56.2593 122.454 56.648C122.862 56.7127 123.268 56.786 123.678 56.8507C123.74 56.8613 123.805 56.8693 123.87 56.8873C124.254 56.95 124.637 57.0187 125.018 57.0933H125.065C125.472 57.166 125.888 57.2387 126.287 57.3147C126.316 57.3147 126.344 57.322 126.37 57.3327C126.732 57.398 127.094 57.4707 127.446 57.536C127.5 57.546 127.555 57.554 127.62 57.572C128.388 57.7207 129.138 57.8793 129.862 58.036C129.906 58.036 129.946 58.054 129.99 58.0647C130.323 58.1373 130.649 58.2027 130.972 58.278C131.011 58.278 131.047 58.296 131.094 58.304C131.805 58.4627 132.5 58.6193 133.167 58.778C133.214 58.786 133.25 58.796 133.297 58.804C133.62 58.8793 133.935 58.9527 134.24 59.036H134.268C134.602 59.1193 134.935 59.2027 135.261 59.278H135.287C135.584 59.3513 135.88 59.4267 136.167 59.4993C136.204 59.51 136.25 59.5173 136.287 59.528C136.888 59.684 137.472 59.8327 138.029 59.9887C138.055 59.9887 138.084 60.01 138.112 60.01C138.362 60.072 138.612 60.148 138.852 60.2127C138.888 60.2127 138.917 60.2313 138.954 60.2393C139.482 60.3873 139.982 60.528 140.454 60.666L140.555 60.6947C140.779 60.76 140.99 60.822 141.196 60.8793C141.204 60.8793 141.222 60.8793 141.232 60.8873C141.464 60.9527 141.686 61.0173 141.899 61.0827H141.928C142.12 61.1373 142.316 61.2027 142.5 61.26L142.594 61.286C142.779 61.3433 142.964 61.398 143.138 61.4527C143.323 61.51 143.49 61.5647 143.656 61.6193C143.685 61.6193 143.714 61.6373 143.74 61.648C143.87 61.6947 144 61.7313 144.12 61.768C144.156 61.778 144.196 61.786 144.222 61.804C144.511 61.8973 144.768 61.9813 145 62.064C145.029 62.072 145.066 62.0827 145.094 62.0933C145.178 62.1193 145.26 62.148 145.334 62.1767C145.362 62.1767 145.388 62.1947 145.417 62.2027C145.51 62.2313 145.594 62.2673 145.677 62.296C145.704 62.304 145.732 62.3147 145.75 62.3227C145.805 62.3427 145.852 62.3613 145.899 62.3793C145.928 62.3873 145.954 62.398 145.982 62.406C146.018 62.416 146.047 62.434 146.073 62.4447C146.12 62.4627 146.167 62.4813 146.204 62.4887C146.222 62.4887 146.24 62.4993 146.25 62.51C146.334 62.536 146.38 62.554 146.38 62.554C146.574 64.9527 146.722 67.6293 146.805 70.2387C146.852 71.804 146.87 73.3433 146.852 74.7853C146.685 93.036 142.714 110.379 135.334 125.239C134.664 126.584 133.967 127.916 133.24 129.231C132.888 129.861 132.537 130.481 132.178 131.093C132.084 131.249 131.99 131.398 131.906 131.554C131.546 132.168 131.177 132.777 130.797 133.379C130.417 133.981 130.037 134.565 129.649 135.148C129.555 135.296 129.454 135.435 129.362 135.583C128.59 136.737 127.787 137.871 126.954 138.981C126.852 139.119 126.75 139.249 126.649 139.387C125.828 140.474 124.979 141.54 124.102 142.583C124 142.713 123.888 142.833 123.787 142.963C123.352 143.471 122.917 143.981 122.464 144.481L122.482 144.509ZM77.5289 136.083V62.1007H77.5109C69.1563 63.51 62.4276 65.3793 58.6849 66.546C58.5289 69.3793 58.4536 72.286 58.4716 74.7673C58.6489 93.786 63.1203 111.731 71.4169 126.655C73.2357 129.932 75.2742 133.081 77.5183 136.083H77.5289Z" fill="black"/>
<path d="M58.6847 66.5469C58.5287 69.3802 58.4534 72.2869 58.4714 74.7682C58.6487 93.7869 63.12 111.732 71.4167 126.656C73.2355 129.933 75.2739 133.082 77.518 136.084V62.1016C69.156 63.5109 62.4274 65.3802 58.6847 66.5469ZM128.583 126.667C136.88 111.74 141.351 93.7969 141.529 74.7789C141.547 72.2969 141.471 69.3882 141.315 66.5549C137.573 65.3989 130.844 63.5182 122.471 62.1122V136.094C124.724 133.1 126.766 129.954 128.583 126.678V126.667Z" fill="#003DA6"/>
<path d="M140.344 97.196C131.156 95.714 122.434 103.823 115.916 119.279C112.37 127.696 111.01 133.131 109.778 139.899C107.554 139.917 104.112 139.899 104.112 139.899C104.112 139.899 104.75 135.407 106.25 129.019C107.739 122.639 113.75 106.649 115.916 99.0373C116.211 98.0146 116.449 96.9767 116.63 95.928C119.296 80.4173 107.906 70.048 99.9998 64.834C92.0831 70.0473 80.6844 80.4173 83.3618 95.9273C83.5363 96.9766 83.7711 98.015 84.0651 99.0373C86.2318 106.657 92.2391 122.639 93.7391 129.019C95.2318 135.407 95.8798 139.899 95.8798 139.899C95.8798 139.899 92.4264 139.917 90.2131 139.899C88.9711 133.131 87.6118 127.704 84.0651 119.279C77.5544 103.823 68.8331 95.722 59.6378 97.196C58.7864 97.334 57.9531 97.5553 57.1484 97.852C59.0938 107.565 62.2131 116.761 66.4451 125.131C66.4711 125.131 66.4891 125.121 66.5184 125.121C71.0724 124.399 75.5284 125.613 78.6851 128.511C83.5724 133.001 83.5938 139.889 83.5938 139.889H75.8151C78.1558 142.845 80.6558 145.555 83.2784 147.99H94.5938C94.2211 150.167 92.6484 152.149 90.4058 153.714C93.4998 155.834 96.7131 157.602 99.9998 158.972C103.286 157.613 106.5 155.845 109.583 153.722C107.343 152.157 105.76 150.167 105.388 147.99H116.721C119.413 145.485 121.908 142.777 124.184 139.889H116.38C116.38 139.889 116.398 133.001 121.296 128.511C124.453 125.613 128.888 124.399 133.453 125.121C133.489 125.121 133.518 125.131 133.554 125.139C137.786 116.769 140.916 107.573 142.862 97.8627C142.047 97.5577 141.203 97.3344 140.344 97.196Z" fill="white"/>
<path d="M83.351 95.9163C83.5265 96.966 83.7614 98.005 84.0544 99.0283C86.221 106.648 92.2317 122.63 93.7317 129.01C95.221 135.398 95.8697 139.888 95.8697 139.888H99.9897V64.8223C92.0724 70.0356 80.6764 80.4056 83.351 95.9163Z" fill="#C1C5C8"/>
<path d="M186.63 123.463L153.5 112.036C154.388 108.085 154.835 104.048 154.833 99.9993C154.833 90.804 152.565 82.1293 148.565 74.5173C148.583 70.8327 148.406 66.3613 148.083 62.4527L148 61.3873L147 61.0173C146.899 60.9813 142.13 59.2307 134.529 57.3973C125.102 49.7493 113.094 45.166 100.011 45.166C86.9275 45.166 74.9061 49.7493 65.4821 57.398C57.8881 59.2313 53.1121 60.9813 53.0108 61.018L52.0108 61.3873L51.9275 62.4527C51.6015 66.3613 51.4275 70.8327 51.4454 74.5173C47.3136 82.3752 45.1586 91.1214 45.1668 99.9993C45.1668 104.137 45.6381 108.155 46.5001 112.028L13.3701 123.453C13.6668 124.546 13.9821 125.619 14.3155 126.695L47.3335 115.304C52.3701 132.648 65.7401 146.445 82.8155 152.072C87.9715 156.536 93.5548 160.01 99.3801 162.333L100 162.583L100.62 162.333C106.445 160.01 112.029 156.528 117.185 152.073C134.261 146.445 147.63 132.648 152.667 115.315L185.685 126.703C186.018 125.629 186.333 124.546 186.63 123.463ZM100 48.5173C109.333 48.5173 118.287 50.9887 126.12 55.6113C118.805 54.26 110.112 53.1767 100.945 53.1767H99.0655C89.8988 53.1767 81.2035 54.2493 73.8801 55.6113C81.7135 50.9813 90.6668 48.5173 100 48.5173ZM63.5935 136.406C53.8708 126.684 48.5115 113.76 48.5115 99.9993C48.5115 93.786 49.6128 87.7393 51.7041 82.0827C52.8341 99.5827 57.4721 116.054 65.2688 130.083C68.5188 135.927 72.2688 141.203 76.4068 145.786C71.6786 143.338 67.357 140.174 63.5948 136.406H63.5935ZM62.8701 117.232C63.2205 118.111 63.585 118.985 63.9635 119.852C63.588 118.983 63.2235 118.11 62.8701 117.232ZM90.5655 153.833C90.8988 154.065 91.2321 154.287 91.5655 154.511C91.3521 154.37 91.1301 154.232 90.9168 154.083C90.7968 154 90.6848 153.917 90.5655 153.833ZM100 158.981V147.945L94.5935 147.999C94.2215 150.177 92.6381 152.155 90.4068 153.731C88.3501 152.318 86.3811 150.781 84.5108 149.129C78.2975 143.648 72.7395 136.648 68.1954 128.463C67.5892 127.368 67.0025 126.263 66.4355 125.148C66.4635 125.148 66.4895 125.137 66.5181 125.129C71.0728 124.405 75.5288 125.619 78.6848 128.517C82.3228 131.861 83.2681 136.528 83.5108 138.703C81.9821 119.528 69.8881 111.536 61.7788 114.387C57.3621 102.369 54.9821 89.1193 54.8048 75.322V74.822C54.7868 72.9887 54.8228 70.934 54.9061 68.8433C54.9715 67.1553 55.0655 65.4633 55.1848 63.8327C56.1955 63.4887 57.9348 62.926 60.2608 62.2593C62.1488 61.7207 64.4275 61.1113 67.0181 60.4993C75.2788 58.546 86.7314 56.546 99.0728 56.546H100.953C113.297 56.546 124.75 58.546 133.011 60.4993C135.601 61.1113 137.88 61.7207 139.768 62.2593C142.094 62.926 143.833 63.4887 144.844 63.8327C144.964 65.4627 145.055 67.166 145.12 68.8507C145.203 70.9447 145.24 72.9993 145.221 74.8327V75.3433C145.047 89.1373 142.656 102.387 138.25 114.398C130.138 111.565 118.055 119.554 116.537 138.721C116.779 136.546 117.721 131.879 121.362 128.536C124.518 125.637 128.963 124.427 133.529 125.148C133.551 125.147 133.573 125.149 133.594 125.155C133.032 126.277 132.445 127.386 131.833 128.481C127.287 136.666 121.732 143.666 115.518 149.148C113.496 150.941 111.356 152.596 109.112 154.101C106.177 156.072 103.138 157.713 100.029 159.01L100 158.981ZM91.5735 154.51C91.9535 154.76 92.3335 154.999 92.7215 155.231C92.3441 154.989 91.9534 154.749 91.5728 154.51H91.5735ZM92.7601 155.26C93.1301 155.481 93.5001 155.703 93.8621 155.927C93.4899 155.713 93.1226 155.491 92.7608 155.26H92.7601ZM95.1561 156.666L96.1488 157.195C95.8155 157.017 95.4894 156.851 95.1561 156.666ZM96.3695 157.304C96.6848 157.463 97.0001 157.619 97.3048 157.778C96.9895 157.619 96.6768 157.471 96.3695 157.304ZM97.5835 157.905C97.8894 158.054 98.1984 158.197 98.5101 158.333C98.2035 158.195 97.8881 158.054 97.5835 157.906V157.905ZM138.203 114.427C137.881 115.308 137.545 116.184 137.195 117.054C137.541 116.182 137.877 115.306 138.203 114.427ZM137.13 117.221C136.053 119.906 134.864 122.544 133.565 125.129C134.87 122.547 136.059 119.908 137.13 117.221ZM136.399 136.405C132.637 140.175 128.314 143.339 123.583 145.785C127.721 141.203 131.471 135.927 134.721 130.083C142.518 116.054 147.156 99.5827 148.287 82.0933C150.406 87.8287 151.488 93.8955 151.482 100.01C151.482 113.76 146.13 126.684 136.399 136.416V136.405Z" fill="#C1C5C8"/>
</g>
<defs>
<clipPath id="clip0_48_154">
<rect width="200" height="200" fill="white"/>
</clipPath>
</defs>
</svg>
