<svg width="200" height="200" viewBox="0 0 200 200" fill="none" xmlns="http://www.w3.org/2000/svg">
<g clip-path="url(#clip0_48_183)">
<path d="M100 200C155.228 200 200 155.228 200 100C200 44.7715 155.228 0 100 0C44.7715 0 0 44.7715 0 100C0 155.228 44.7715 200 100 200Z" fill="black"/>
<path d="M100 155.994C130.925 155.994 155.994 130.925 155.994 100C155.994 69.0753 130.925 44.0059 100 44.0059C69.0753 44.0059 44.0059 69.0753 44.0059 100C44.0059 130.925 69.0753 155.994 100 155.994Z" fill="#0085CA"/>
<path d="M99.9999 194.006C48.1555 194.006 5.99414 151.844 5.99414 99.9999C5.99414 48.1555 48.1555 5.99414 99.9999 5.99414C151.844 5.99414 194.006 48.1555 194.006 99.9999C194.006 151.844 151.844 194.006 99.9999 194.006ZM191.988 99.9999C191.988 49.2794 150.72 8.01143 99.9999 8.01143C49.2794 8.01143 8.01143 49.2794 8.01143 99.9999C8.01143 150.72 49.2794 191.988 99.9999 191.988C150.72 191.988 191.988 150.72 191.988 99.9999Z" fill="white"/>
<path d="M99.9999 164.006C64.6973 164.006 35.9941 135.302 35.9941 99.9999C35.9941 64.6973 64.6973 35.9941 99.9999 35.9941C135.302 35.9941 164.006 64.6973 164.006 99.9999C164.006 135.302 135.302 164.006 99.9999 164.006ZM161.988 99.9999C161.988 65.8212 134.179 38.0114 99.9999 38.0114C65.8212 38.0114 38.0114 65.8212 38.0114 99.9999C38.0114 134.179 65.8212 161.988 99.9999 161.988C134.179 161.988 161.988 134.179 161.988 99.9999Z" fill="white"/>
<path d="M125.707 128.357L124.496 131.787C124.352 132.219 124.035 132.565 123.603 132.738C121.499 133.602 114.323 136.081 100.721 136.081C86.9458 136.081 78.6461 133.372 76.3118 132.478C75.8795 132.305 75.5337 131.959 75.3896 131.527L74.2369 128.155C74.1504 127.896 74.2945 127.579 74.5539 127.493C74.6403 127.464 74.7556 127.464 74.8709 127.493C83.0553 129.712 91.5279 130.807 100.001 130.778C108.444 130.807 116.888 129.769 125.073 127.694C125.361 127.608 125.62 127.781 125.707 128.069C125.735 128.127 125.735 128.242 125.707 128.357ZM100.001 126.743C113.603 126.743 124.035 123.833 126.859 122.968C127.349 122.824 127.724 122.449 127.897 121.959L142.076 80.8644C141.96 80.4609 141.672 80.1439 141.297 79.971C140.606 79.6252 139.799 79.8845 139.395 80.5474C136.254 85.8788 133.084 87.5214 132.047 88.0402L132.018 88.069C131.355 88.4148 131.009 89.1641 131.182 89.8846V89.971C131.24 90.2304 131.326 90.605 131.384 91.0661C131.441 91.4696 131.47 91.9883 131.528 92.5647C131.614 93.775 131.586 94.9854 131.413 96.167C128.444 98.0114 124.439 99.7693 121.269 98.6165C118.761 97.6944 116.831 93.7462 116.139 85.5041C116.946 83.9479 118.012 82.5358 119.309 81.3255L119.338 81.2966C119.885 80.7779 120.029 79.9998 119.684 79.337C119.684 79.337 119.684 79.3082 119.655 79.3082L119.626 79.2794C119.511 79.0488 119.338 78.703 119.136 78.2707C118.992 77.8961 118.819 77.4062 118.617 76.8586C118.07 75.1295 117.609 72.5647 117.868 68.9335C117.954 68.1843 117.465 67.4638 116.715 67.2621C115.937 67.0892 115.159 67.5214 114.957 68.2995C113.286 74.2938 110.663 76.7145 109.799 77.5214L109.77 77.5502C109.222 78.0402 109.078 78.8471 109.424 79.5099L109.453 79.5387L109.482 79.5675C109.597 79.7981 109.77 80.1439 109.972 80.5762C110.116 80.9508 110.289 81.4407 110.49 81.9883C110.779 82.9681 111.009 83.9768 111.124 84.9854C106.917 92.824 103.833 95.5618 100.001 95.5906C96.1677 95.5618 93.0841 92.824 88.8767 84.9854C88.9919 83.9768 89.2225 82.9681 89.5107 81.9883C89.6836 81.4407 89.8853 80.9796 90.0294 80.5762C90.2311 80.1439 90.404 79.7981 90.5193 79.5675L90.5481 79.5387L90.5769 79.5099C90.9228 78.8471 90.7787 78.0402 90.2311 77.5502L90.2023 77.5214C89.3377 76.7145 86.7153 74.2938 85.0438 68.2995C84.8421 67.5503 84.064 67.0892 83.2859 67.2621C82.5366 67.4638 82.0755 68.1554 82.1331 68.9335C82.3925 72.5358 81.9314 75.1295 81.3839 76.8586C81.2109 77.4062 81.0092 77.8673 80.8651 78.2707C80.6634 78.703 80.4905 79.0488 80.3752 79.2794L80.3464 79.3082C80.3464 79.337 80.3464 79.337 80.3176 79.337C79.9718 79.9998 80.1158 80.8067 80.6634 81.2966L80.6922 81.3255C81.989 82.507 83.0553 83.9191 83.8622 85.5041C83.1706 93.7462 81.2398 97.7232 78.7326 98.6165C75.5625 99.7693 71.5568 97.9825 68.5885 96.167C68.4156 94.9854 68.3579 93.7462 68.4732 92.5647C68.502 91.9883 68.5597 91.4984 68.6173 91.0661C68.6749 90.605 68.7614 90.2304 68.819 89.971V89.8846C68.9631 89.1641 68.6173 88.4148 67.9833 88.069L67.9545 88.0402C66.917 87.4926 63.747 85.85 60.6058 80.5474C60.2311 79.8845 59.3954 79.6252 58.7037 79.971C58.3291 80.1439 58.0409 80.4897 57.9256 80.8644L72.0179 121.7C72.1908 122.161 72.5366 122.536 73.0265 122.68C75.8219 123.602 86.4271 126.743 100.001 126.743ZM79.8565 112.622C81.7585 112.622 83.2859 114.15 83.2859 116.052C83.2859 117.954 81.7585 119.481 79.8565 119.481C77.9545 119.481 76.4271 117.954 76.4271 116.052C76.4271 114.15 77.9545 112.622 79.8565 112.622ZM120.145 112.622C122.047 112.622 123.574 114.179 123.545 116.052C123.545 117.954 121.989 119.481 120.116 119.452C118.243 119.423 116.686 117.896 116.715 116.023C116.715 114.15 118.243 112.622 120.145 112.622ZM93.2859 114.236C95.1879 114.236 96.7153 115.764 96.7153 117.666C96.7153 119.568 95.1879 121.095 93.2859 121.095C91.3839 121.095 89.8565 119.568 89.8565 117.666C89.8565 115.764 91.3839 114.207 93.2859 114.236C93.2859 114.207 93.2859 114.207 93.2859 114.236ZM106.715 114.236C108.617 114.236 110.145 115.764 110.145 117.666C110.145 119.568 108.617 121.095 106.715 121.095C104.813 121.095 103.286 119.568 103.286 117.666C103.286 115.764 104.813 114.207 106.715 114.236C106.715 114.207 106.715 114.207 106.715 114.236ZM44.381 51.7001C44.4963 53.2851 43.8911 55.216 42.479 56.8298C40.404 59.2505 36.8594 59.2505 34.1504 56.9162C31.355 54.5243 30.9516 50.922 33.0553 48.4436C34.0928 47.2332 35.4761 46.3687 36.9746 45.9076L37.0035 45.85L34.6403 43.8039C33.5164 44.4955 32.479 45.3889 31.6144 46.3975C28.1562 50.4321 27.9256 55.9652 32.1908 59.6252C35.8507 62.7664 40.8363 62.6223 44.1792 58.7318C45.4184 57.3485 46.283 55.6482 46.6865 53.8327L44.4098 51.6425L44.381 51.7001ZM57.4645 38.9624L52.6807 33.2563C51.3262 31.6425 50.6634 30.5185 50.087 29.02L46.6576 31.873C48.0121 32.7087 49.0207 33.5733 50.3752 35.1871L51.9026 37.0315L46.6576 41.4119L45.1303 39.5964C43.7758 37.9825 43.0841 36.8586 42.5366 35.36L39.1072 38.2131C40.4617 39.0488 41.4703 39.9134 42.8248 41.5272L47.5222 47.118C48.8767 48.7318 49.5395 49.8557 50.1158 51.3543L53.43 48.386C52.0755 47.5502 51.0669 46.6857 49.7124 45.0719L48.2715 43.3428L53.5164 38.9624L54.9862 40.7203C56.3406 42.3341 57.0035 43.458 57.5798 44.9566L61.1821 42.3053C59.7988 41.4407 58.7902 40.5762 57.4645 38.9624ZM88.3579 23.9191C90.1447 22.5647 90.9804 20.8644 90.6058 18.8471C90.1158 16.1958 87.4934 14.3514 83.0553 15.1583L78.9055 15.9076C79.6836 17.2909 80.1158 18.5589 80.4905 20.605L81.7873 27.7808C82.162 29.8269 82.1908 31.1814 81.9314 32.7376L86.3694 31.7001C85.5913 30.3168 85.1591 29.0488 84.7844 27.0027L84.2945 24.3226C86.1677 26.2822 87.868 27.9249 89.3954 29.2217C90.4905 30.1439 91.4415 30.6915 92.0755 30.8067L94.9285 30.5185V30.4321C92.1908 28.0113 90.2599 26.1958 88.3579 23.9191ZM84.2657 24.0344L82.9977 17.0315C85.1879 16.6281 87.1764 17.6367 87.5798 19.7404C87.868 21.3543 86.8017 22.9393 84.2657 24.0344ZM102.248 28.3572L102.652 18.4436C102.738 16.3687 102.998 15.043 103.574 13.5733L99.0496 13.4004C99.5107 14.9278 99.6547 16.2534 99.5971 18.3572L99.3089 25.5618C99.2225 27.6367 98.9631 28.9624 98.3867 30.4609L107.234 30.7779L108.905 27.118L108.877 27.0892C107.378 27.6943 104.381 28.2707 102.248 28.3572ZM124.237 16.7145C119.309 15.2736 114.381 17.9825 113.027 22.6799C111.758 26.9739 113.891 32.0171 119.251 33.5733C124.237 35.0142 129.165 32.5647 130.635 27.5502C132.104 22.5358 129.05 18.1266 124.237 16.7145ZM127.148 27.3773C126.254 30.4609 123.488 32.3629 120.49 31.4696C116.859 30.4321 115.418 26.4551 116.485 22.8817C117.465 19.4811 120.375 18.0402 123.027 18.8183C126.427 19.7981 128.214 23.7174 127.148 27.3773ZM146.081 30.5762L148.992 28.3572L137.349 21.7001L134.669 24.2649L134.698 24.3226C136.6 24.3802 138.473 24.9278 140.116 25.8788L135.303 34.3226C134.266 36.1381 133.459 37.2044 132.22 38.2419L136.168 40.4897C136.456 38.9335 136.946 37.6655 137.954 35.85L142.767 27.4062C144.41 28.4148 145.39 29.3658 146.081 30.5762ZM159.741 41.9307L163.055 40.3745L153.055 31.4407L149.914 33.4004V33.458C151.758 33.9191 153.459 34.8413 154.871 36.1381L148.416 43.3428C147.032 44.899 145.995 45.7635 144.583 46.5128L147.954 49.5387C148.56 48.069 149.309 46.9451 150.692 45.3889L157.176 38.1843C158.56 39.4523 159.309 40.605 159.741 41.9307ZM75.8795 30.7491L68.5885 23.9768C67.4646 22.9969 66.4271 21.9018 65.4473 20.7491L63.0265 21.8442C63.2571 23.3428 63.3435 24.8413 63.3147 26.3687V36.4551C63.3147 38.5877 63.1706 39.8269 62.8248 41.0373L62.8536 41.0949L67.0323 38.703C66.917 38.5301 66.8305 38.386 66.7441 38.2131C66.4847 37.6079 66.3406 36.8298 66.283 35.6482L73.1706 32.507C74.0928 33.4004 74.5539 33.9479 74.8132 34.5531C74.8997 34.726 74.9573 34.899 74.9862 35.1007L79.4818 33.4292L79.453 33.3716C78.185 32.6799 76.9458 31.8154 75.8795 30.7491ZM71.2974 30.605L66.283 32.8817L66.1677 25.7059L71.2974 30.605ZM166.168 44.1209C165.274 45.4465 164.352 46.3975 162.681 47.6655L156.946 52.0171C155.274 53.2851 154.093 53.9191 152.565 54.409L159.511 63.8327L163.257 62.8528V62.7952C161.297 61.6713 159.511 60.0286 157.58 57.3773L156.629 56.0805L160.836 52.9105L161.787 54.1785C162.882 55.7059 163.718 57.2332 163.949 58.2419L167.349 57.8384L162.623 51.5848L166.744 48.4724L167.724 49.7405C168.877 51.239 169.626 53.0258 169.885 54.899L173.372 54.1209L166.168 44.1209ZM36.0813 143.4L39.3089 141.181C40.0294 142.219 40.5769 143.429 40.6634 144.236L43.0265 143.948L39.0207 138.127C38.3291 139.078 37.4357 139.885 36.4559 140.547L32.1908 143.487C31.2398 144.207 30.1735 144.726 29.0207 145.043L30.8363 147.694C31.528 146.743 32.4213 145.936 33.43 145.274L34.8421 144.294C35.5914 145.389 35.9948 146.253 36.0524 147.032L38.3867 146.715L36.0813 143.4ZM48.6173 150C46.0813 147.406 42.0755 147.349 39.5971 149.769C37.3205 151.988 36.8882 155.85 39.6259 158.674C42.1908 161.325 46.1101 161.498 48.7614 158.934C51.4127 156.369 51.0957 152.536 48.6173 150ZM46.7153 157.579C45.0726 159.164 42.7095 159.366 41.1821 157.781C39.3089 155.879 39.7988 152.91 41.7009 151.066C43.4876 149.308 45.7931 149.423 47.1475 150.836C48.9055 152.651 48.6461 155.706 46.7153 157.579ZM60.1735 159.625C57.1475 157.608 53.2282 158.386 51.2974 161.239C49.5395 163.89 49.8853 167.723 53.1706 169.942C56.2254 171.988 60.087 171.383 62.162 168.3C64.2369 165.216 63.113 161.585 60.1735 159.625ZM59.8565 167.435C58.5885 169.308 56.3118 170.029 54.4963 168.789C52.2772 167.291 52.162 164.323 53.6317 162.132C55.0438 160.057 57.2916 159.683 58.9343 160.778C60.9804 162.161 61.355 165.187 59.8565 167.435ZM67.5222 164.265L65.8219 166.282V166.311C67.1764 166.225 68.5308 166.455 69.77 167.003L66.9746 173.487C66.5424 174.582 65.9084 175.619 65.1014 176.484L68.0697 177.781C68.1562 176.599 68.4732 175.447 68.9919 174.351L71.7873 167.867C72.796 168.271 73.6893 168.934 74.3522 169.827L76.2542 168.04L67.5222 164.265ZM106.427 182.161L105.851 175.158C105.707 173.977 105.793 172.795 106.081 171.642L102.882 171.902C103.372 172.997 103.632 174.15 103.689 175.331L104.122 180.49C104.266 181.671 104.179 182.853 103.891 184.006L110.116 183.487L111.009 180.663L110.98 180.634C110.001 181.239 107.926 181.902 106.427 182.161ZM117.753 180.49L116.197 173.631C115.908 172.478 115.793 171.297 115.937 170.115L112.796 170.836C113.43 171.844 113.862 172.968 114.064 174.121L115.217 179.164C115.505 180.317 115.62 181.498 115.476 182.68L121.586 181.297L122.076 178.357L122.047 178.328C121.153 179.078 119.222 180.029 117.753 180.49ZM140.145 170.547C139.626 171.815 138.646 172.824 137.407 173.4C135.332 174.409 132.998 173.458 131.874 171.153C130.721 168.789 131.47 166.34 133.603 165.302C134.64 164.813 135.793 164.611 136.946 164.726L136.975 164.697L135.995 162.709C135.044 162.853 134.122 163.141 133.257 163.602C129.799 165.302 128.07 168.876 129.828 172.449C131.326 175.533 134.669 176.801 138.012 175.158C139.251 174.582 140.289 173.717 141.096 172.622L140.202 170.547H140.145ZM150.26 163.948C149.712 164.957 148.3 166.599 147.119 167.579L143.055 161.844C142.335 160.893 141.787 159.827 141.47 158.703L138.848 160.547C139.799 161.239 140.635 162.104 141.297 163.083L144.295 167.32C145.015 168.271 145.563 169.337 145.88 170.461L150.98 166.859L150.318 163.977L150.26 163.948ZM155.764 150.864C154.9 150.057 154.208 149.078 153.718 148.011L151.413 150.259C152.479 150.807 153.43 151.527 154.208 152.392L157.205 155.475C158.214 156.484 158.214 158.098 157.234 159.106C157.205 159.135 157.176 159.164 157.148 159.164C156.168 160.115 154.842 160.115 153.459 158.674L150.663 155.792C149.799 154.985 149.107 154.006 148.617 152.939L146.312 155.187C147.378 155.735 148.329 156.455 149.107 157.32L151.874 160.173C154.064 162.449 156.168 162.709 157.868 161.037C158.646 160.259 159.194 159.164 159.482 157.637C159.77 157.925 160.029 158.242 160.26 158.588L162.22 156.686C161.153 156.138 160.202 155.418 159.424 154.553L155.764 150.864ZM82.9977 169.885L78.9055 168.761C78.9919 169.942 78.8478 171.124 78.502 172.276L77.1475 177.291C76.8882 178.444 76.3983 179.539 75.7354 180.519L79.8565 181.642C82.2196 182.276 84.5827 181.47 85.1014 179.481C85.4473 178.213 84.9862 177.147 83.8334 175.965C84.9285 175.619 85.7354 174.928 85.9948 173.977C86.4559 172.219 85.3032 170.519 82.9977 169.885ZM82.9112 178.905C82.5942 180.057 81.2974 180.749 79.5683 180.288L78.6749 180.029L79.9141 175.504C82.4501 176.225 83.2571 177.637 82.9112 178.905ZM83.8046 173.487C83.5452 174.467 82.0755 174.928 80.1735 174.409L81.1821 170.663L82.0755 170.922C83.3435 171.239 84.1216 172.392 83.8046 173.487ZM168.358 143.227C167.292 142.421 166.168 142.478 164.612 143.112C164.698 141.959 164.352 140.951 163.545 140.374C162.104 139.279 160.087 139.74 158.646 141.642L156.11 145.043C157.234 145.418 158.3 145.965 159.222 146.715L163.372 149.827C164.352 150.519 165.188 151.354 165.851 152.334L168.416 148.934C169.885 146.945 170.001 144.467 168.358 143.227ZM158.733 143.573L159.309 142.824C160.058 141.815 161.413 141.527 162.335 142.19C163.142 142.795 163.027 144.323 161.845 145.908L158.733 143.573ZM167.061 148.674L166.485 149.423L162.738 146.599C164.323 144.467 165.966 144.265 167.003 145.043C167.954 145.764 168.127 147.233 167.061 148.674ZM96.3406 174.813C95.966 173.804 95.6778 172.795 95.4761 171.729L93.5741 171.585C93.1994 172.593 92.7095 173.573 92.162 174.495L88.7614 180.547C88.2715 181.527 87.6086 182.421 86.8594 183.227V183.285L90.1735 183.545V183.141C90.2023 182.622 90.4328 182.017 90.9228 181.124L90.9804 181.008L96.1965 181.412L96.2254 181.498C96.5712 182.565 96.6865 183.141 96.6576 183.66C96.6576 183.804 96.6288 183.919 96.5712 184.063L99.9429 184.323V184.265C99.3089 183.4 98.8478 182.421 98.5308 181.383L96.3406 174.813ZM91.9026 179.251L94.1504 175.014H94.2369L95.649 179.51L91.9026 179.251Z" fill="white"/>
<path d="M173.776 75.1872C174.554 74.9278 175.419 75.3889 175.649 76.167C175.909 76.9451 175.476 77.7809 174.698 78.0402H174.669C174.295 78.1555 173.891 78.1267 173.517 77.9538C173.142 77.7809 172.883 77.4639 172.767 77.0604C172.566 76.2823 172.998 75.4466 173.776 75.1872ZM173.488 82.2765L176.888 84.899C177.609 85.4466 177.983 85.5907 178.473 85.4754C179.021 85.3601 179.309 84.899 179.165 84.2362C179.05 83.6598 178.617 83.2852 178.07 83.4005C177.897 83.4293 177.753 83.5157 177.609 83.6022L176.917 81.7866C177.177 81.6137 177.465 81.4984 177.753 81.4408C178.387 81.3255 179.05 81.4984 179.568 81.9307C180.174 82.4494 180.577 83.1699 180.692 83.948C181.067 85.7924 180.375 87.0604 179.05 87.3198C178.099 87.5215 177.321 87.2045 176.197 86.3688L174.381 85.0143L175.015 88.1555L173.459 88.4725L172.277 82.5359L173.488 82.2765ZM178.387 99.0489C177.292 99.1641 176.226 98.8183 175.39 98.0979C173.834 96.5417 173.689 94.0633 175.073 92.363C175.764 91.5849 176.744 91.1814 177.955 91.095C179.165 91.0085 180.174 91.3543 180.952 92.046C182.508 93.6022 182.623 96.0806 181.24 97.7809C180.519 98.5878 179.482 99.0201 178.387 99.0489ZM175.793 95.1872C175.793 95.7348 176.053 96.2535 176.514 96.5993C177.032 96.9451 177.666 97.118 178.272 97.0604C178.906 97.0604 179.511 96.8298 180.001 96.4264C180.404 96.0518 180.606 95.5042 180.548 94.9566C180.548 94.4091 180.289 93.8904 179.828 93.5445C179.309 93.1987 178.704 93.0258 178.07 93.0834C177.436 93.0834 176.831 93.314 176.37 93.7175C175.966 94.0921 175.764 94.6397 175.793 95.1872ZM175.505 102.478L178.099 105.908C178.646 106.628 178.963 106.859 179.453 106.887C180.001 106.916 180.404 106.542 180.462 105.879C180.519 105.302 180.174 104.813 179.626 104.784C179.453 104.784 179.28 104.813 179.136 104.87L178.963 102.911C179.251 102.824 179.54 102.795 179.857 102.795C180.519 102.853 181.096 103.199 181.47 103.717C181.932 104.38 182.104 105.187 182.018 105.965C181.874 107.838 180.894 108.876 179.568 108.79C178.589 108.732 177.926 108.213 177.061 107.118L175.678 105.302L175.447 108.501L173.862 108.386L174.295 102.363L175.505 102.478ZM174.554 112.219L176.687 115.965C177.119 116.743 177.436 117.003 177.897 117.118C178.416 117.233 178.877 116.916 179.021 116.253C179.136 115.677 178.877 115.158 178.358 115.043C178.185 115.014 178.012 115.014 177.839 115.043L177.897 113.083C178.185 113.026 178.502 113.026 178.79 113.083C179.424 113.228 179.972 113.66 180.289 114.236C180.635 114.957 180.75 115.764 180.548 116.542C180.174 118.386 179.05 119.279 177.753 119.02C176.802 118.818 176.197 118.242 175.505 117.06L174.352 115.072L173.718 118.213L172.162 117.896L173.344 111.96L174.554 112.219ZM174.583 122.334C175.361 122.594 175.822 123.429 175.563 124.236C175.332 125.014 174.496 125.475 173.718 125.216H173.689C172.911 124.957 172.479 124.121 172.71 123.314C172.825 122.939 173.084 122.622 173.459 122.449C173.776 122.248 174.208 122.19 174.583 122.334ZM29.4244 123.573L21.9027 125.619L21.384 123.746L26.2831 120.029L20.1736 119.308L19.6549 117.435L27.1765 115.389L27.6376 117.089L23.5166 118.213L24.7558 118.271L28.0987 118.703L28.531 120.288L25.8797 122.363L24.8422 123.026L28.9633 121.902L29.4244 123.573ZM26.8019 112.622L19.1074 113.862L18.8192 112.075L26.5137 110.836L26.8019 112.622ZM26.0814 108.04L18.3004 108.53L18.1852 106.743L22.4215 103.631C22.5944 103.487 22.7961 103.372 22.9978 103.256L17.9834 103.573L17.8682 101.815L25.6491 101.326L25.7644 103.112L21.4993 106.225C21.2976 106.369 21.1246 106.484 20.8941 106.599L25.9661 106.282L26.0814 108.04ZM19.4532 98.8471L17.8682 98.7607L18.214 92.363L19.799 92.4494L19.6837 94.7549L25.8797 95.0719L25.7932 96.8587L19.5973 96.5129L19.4532 98.8471ZM26.2543 90.6339L18.5598 89.3659L19.482 83.7463L21.0382 84.0056L20.4042 87.8385L21.7875 88.069L22.3638 84.5532L23.8912 84.8126L23.3149 88.3284L24.9863 88.6166L25.6203 84.7261L27.1765 84.9855L26.2543 90.6339ZM27.6953 82.68L20.2025 80.5186L20.8941 78.0979C21.2399 76.8587 21.8739 75.9365 22.7097 75.3313C23.5454 74.7261 24.6117 74.6396 25.8221 74.9855C27.0324 75.3313 27.8682 75.9941 28.2716 76.9451C28.6751 77.8961 28.7327 78.9912 28.3581 80.2592L27.6953 82.68ZM26.8595 79.6541C27.263 78.242 26.7154 77.1469 25.3321 76.7434C23.9489 76.3399 22.9114 76.9739 22.4791 78.386L22.2486 79.2218L26.629 80.4898L26.8595 79.6541Z" fill="#0085CA"/>
</g>
<defs>
<clipPath id="clip0_48_183">
<rect width="200" height="200" fill="white"/>
</clipPath>
</defs>
</svg>
