<svg width="200" height="200" viewBox="0 0 200 200" fill="none" xmlns="http://www.w3.org/2000/svg">
<g clip-path="url(#clip0_48_168)">
<path fill-rule="evenodd" clip-rule="evenodd" d="M100 0C44.7679 0 0 44.7679 0 100C0 155.232 44.7679 200 100 200C155.232 200 200 155.232 200 100C200 44.7679 155.232 0 100 0Z" fill="#1E1C50"/>
<path fill-rule="evenodd" clip-rule="evenodd" d="M100 7.5957C124.684 7.5957 147.891 17.216 165.359 34.6421C182.827 52.1105 192.405 75.3172 192.405 100.001C192.405 124.684 182.785 147.891 165.359 165.359C147.891 182.828 124.684 192.406 100 192.406C75.3167 192.406 52.11 182.786 34.6838 165.359C17.2155 147.891 7.59521 124.684 7.59521 100.001C7.59521 75.3172 17.2155 52.1105 34.6838 34.6421C52.11 17.216 75.3167 7.5957 100 7.5957Z" fill="white"/>
<path fill-rule="evenodd" clip-rule="evenodd" d="M163.08 44.7248L147.426 56.3282L143.882 52.7839L155.527 37.1298C140.211 23.5433 120.675 16.1172 100.042 16.1172C79.4935 16.1172 60.0842 23.459 44.8099 36.8767L56.6243 52.7839L53.0378 56.3282L37.1306 44.5138C23.5441 59.8725 16.1602 79.3661 16.1602 99.999C16.1602 120.632 23.5863 140.126 37.1306 155.484L53.0378 143.67L56.5821 147.214L44.7677 163.121C60.042 176.539 79.4513 183.881 99.9998 183.881C120.675 183.881 140.169 176.455 155.485 162.868L143.839 147.172L147.384 143.628L163.038 155.231C176.498 139.915 183.839 120.505 183.839 99.9568C183.882 79.4505 176.54 60.0412 163.08 44.7248ZM99.9998 158.86C67.5526 158.86 41.1391 132.446 41.1391 99.999C41.1391 67.5518 67.5526 41.1383 99.9998 41.1383C132.447 41.1383 158.861 67.5518 158.861 99.999C158.861 132.446 132.489 158.86 99.9998 158.86Z" fill="#7DCDEF"/>
<path fill-rule="evenodd" clip-rule="evenodd" d="M125.106 89.157V79.3258L120.675 74.8954H79.325L74.8947 79.3258V120.676L79.325 125.106H120.675L125.106 120.676V110.845H140.591V125.444L125.485 140.592H74.5571L59.4516 125.444V107.849L51.6035 100.001L59.4516 92.1528V74.5578L74.5571 59.4102H125.485L140.591 74.5578V89.157H125.106Z" fill="#ED1E24"/>
<path fill-rule="evenodd" clip-rule="evenodd" d="M107.258 100.001L118.397 110.634L103.629 106.288L100 121.225L96.3714 106.288L81.6035 110.634L92.7428 100.001L81.6035 89.3681L96.3714 93.7141L100 78.7773L103.629 93.7141L118.397 89.3681L107.258 100.001Z" fill="#ED1E24"/>
</g>
<defs>
<clipPath id="clip0_48_168">
<rect width="200" height="200" fill="white"/>
</clipPath>
</defs>
</svg>
