<svg width="200" height="200" viewBox="0 0 200 200" fill="none" xmlns="http://www.w3.org/2000/svg">
<g clip-path="url(#clip0_48_101)">
<path d="M131.528 41.7904L99.9457 16.9613L68.3632 41.7904L99.9457 20.3492L131.528 41.7904ZM82.9631 159.745L99.9457 180.133L116.928 159.745L99.9457 175.573L82.9631 159.745ZM115.81 106.677L99.9447 90.3406L84.0792 106.677L81.1863 104.123L67.1016 118.655C67.7687 119.769 68.4515 120.873 69.15 121.968L82.4964 106.193L85.1933 108.924L99.9447 91.4557L114.697 108.924L117.394 106.193L130.738 121.969C131.438 120.875 132.122 119.771 132.789 118.657L118.702 104.123L115.81 106.677Z" fill="white"/>
<path d="M99.9454 116.371L104.078 119.375L102.497 124.233H97.3919L95.8131 119.375L99.9454 116.371ZM99.9454 127.494C105.425 127.494 109.909 123.26 110.325 117.886L109.698 117.535L110.173 115.156C109.86 113.479 109.141 111.904 108.079 110.569C107.016 109.235 105.642 108.181 104.078 107.501L99.9454 110.501L95.8131 107.501C94.2479 108.181 92.8736 109.235 91.8109 110.57C90.7482 111.905 90.0296 113.481 89.7182 115.159L90.19 117.535L89.5647 117.885C89.9808 123.26 94.4626 127.494 99.9454 127.494ZM70.5618 59.6977C70.5618 59.1603 71.0022 58.5927 71.5386 58.4351L73.3184 57.9118C73.8557 57.7563 74.2941 58.0684 74.2941 58.6048V72.2653C74.2941 72.8036 73.8557 73.3723 73.3184 73.5289L71.5386 74.0501C71.0022 74.2077 70.5618 73.8966 70.5618 73.3592V59.6977ZM70.8598 76.7582L73.9971 75.839C75.6759 75.3481 77.0496 73.5713 77.0496 71.8935V57.3644C77.0496 55.6846 75.6759 54.7139 73.9971 55.2068L70.8598 56.124C69.18 56.6159 67.8073 58.3927 67.8073 60.0714V74.5996C67.8073 76.2794 69.18 77.2501 70.8598 76.7582ZM91.5667 70.2087C91.4417 70.22 91.3158 70.205 91.197 70.1646C91.0783 70.1241 90.9693 70.0592 90.8772 69.974C90.7852 69.8887 90.712 69.7851 90.6625 69.6698C90.613 69.5546 90.5883 69.4301 90.5899 69.3047V55.6432C90.5899 55.1068 91.0303 54.6341 91.5667 54.5927L93.3465 54.4573C93.4713 54.4458 93.5971 54.4607 93.7158 54.501C93.8345 54.5413 93.9435 54.606 94.0355 54.691C94.1276 54.7761 94.2008 54.8795 94.2504 54.9946C94.2999 55.1098 94.3247 55.234 94.3232 55.3593V69.0208C94.3232 69.5582 93.8839 70.032 93.3465 70.0724L91.5667 70.2087ZM97.0778 69.2461V54.7169C97.0778 53.0382 95.7051 51.7684 94.0263 51.8967L90.8879 52.1351C89.2091 52.2624 87.8364 53.7401 87.8364 55.4189V69.9471C87.8364 71.6259 89.2091 72.8955 90.8879 72.7683L94.0263 72.5299C95.7051 72.4026 97.0778 70.9249 97.0778 69.2461ZM140.145 77.4915C140.145 78.0289 139.705 78.2804 139.168 78.0511L137.388 77.2915C136.85 77.0602 136.411 76.4329 136.411 75.8976V62.235C136.411 61.6987 136.85 61.4461 137.388 61.6754L139.168 62.4361C139.705 62.6654 140.145 63.2926 140.145 63.83V77.4915ZM139.845 60.2169L136.709 58.8775C135.03 58.1583 133.656 58.9472 133.656 60.625V75.1541C133.656 76.8319 135.03 78.7925 136.709 79.5097L139.845 80.85C141.524 81.5672 142.897 80.7804 142.897 79.1026V64.5724C142.897 62.8946 141.524 60.933 139.845 60.2169ZM65.3669 60.9644C65.3669 59.2866 63.9942 58.5068 62.3154 59.234L60.0427 60.2179C58.3639 60.9431 56.9912 62.9128 56.9912 64.5906V79.1198C56.9912 80.7985 58.3639 81.5773 60.0427 80.85L62.3154 79.8662C63.9942 79.14 65.3669 77.1723 65.3669 75.4955V74.1087L65.78 73.6663V73.3824L62.1993 74.9329V75.2148L62.6124 75.2986V76.2541C62.6124 76.7885 62.174 77.4198 61.6376 77.6521L60.7215 78.0491C60.1841 78.2814 59.7457 78.0309 59.7457 77.4935V63.831C59.7457 63.2956 60.1841 62.6663 60.7215 62.433L61.6376 62.0371C62.174 61.8047 62.6124 62.0542 62.6124 62.5896V64.3673L62.1993 64.8088V65.0916L65.78 63.5431V63.2583L65.3669 63.1734V60.9644ZM85.8082 70.4481L85.5274 70.4986L85.2627 70.9592L82.2435 71.5067V53.9291L82.6557 53.5917V53.3068L79.0749 53.9563V54.2391L79.489 54.429V73.9673L79.0749 74.3047V74.5895L85.8082 73.3693V70.4481ZM127.9 73.9279L125.142 73.1895V57.5745L127.9 58.3118C128.436 58.4563 128.877 59.0118 128.877 59.5512V73.2107C128.877 73.7501 128.436 74.0723 127.9 73.9279ZM131.63 74.3844V59.8543C131.63 58.1775 130.257 56.4371 128.579 55.9846L121.978 54.2149V54.4997L122.39 54.8735V74.4127L121.978 74.5642V74.8481L128.579 76.6177C130.257 77.0672 131.63 76.0622 131.63 74.3844ZM105.139 60.933C105.14 61.0596 105.115 61.185 105.065 61.3016C105.016 61.4182 104.943 61.5235 104.852 61.6112C104.761 61.6988 104.652 61.767 104.534 61.8116C104.415 61.8561 104.289 61.8762 104.163 61.8704L102.271 61.7957V54.3603L104.163 54.4351C104.424 54.4487 104.671 54.5614 104.852 54.7504C105.034 54.9393 105.136 55.1903 105.139 55.4523V60.933ZM108.72 72.4592L108.108 72.0451L105.835 64.2784C106.434 64.0941 106.957 63.722 107.328 63.2171C107.698 62.7123 107.896 62.1017 107.893 61.4754V55.128C107.893 53.4492 106.52 52.021 104.841 51.9543L99.104 51.724V52.0079L99.5171 52.2877V71.8269L99.104 72.0744V72.3572L102.685 72.3915V72.1077L102.271 71.8279V64.3027L103.132 64.3381L105.522 72.5107L108.72 72.743V72.4592ZM113.914 63.3744V56.2987C113.914 55.7613 114.354 55.3927 114.891 55.4775L115.806 55.6209C116.342 55.7068 116.781 56.2169 116.781 56.7533V63.828L113.914 63.3744ZM116.369 73.444V73.7269L119.951 74.4047V74.1208L119.537 73.7915V56.7573C119.537 55.0785 118.163 53.4876 116.485 53.221L114.212 52.8604C112.533 52.5947 111.16 53.7503 111.16 55.429V72.4633L110.745 72.6602V72.9451L114.326 73.4037V73.1198L113.914 72.7915V65.8815L116.781 66.338V73.2461L116.369 73.444ZM105.831 79.4511V79.3066H103.385V79.4511C103.569 79.4511 103.718 79.547 103.718 79.6632V85.1904C103.718 85.3066 103.569 85.4025 103.385 85.4025V85.545H105.831V85.4025C105.646 85.4025 105.498 85.3066 105.498 85.1904V79.6632C105.498 79.547 105.646 79.4511 105.831 79.4511ZM111.174 80.7056H112.691C113.642 80.7056 114.411 81.1692 114.411 82.4268C114.411 83.6823 113.642 84.147 112.691 84.147H111.174V80.7056ZM109.06 85.4015V85.545H113.072C114.794 85.545 116.191 84.4965 116.191 82.4268C116.191 80.3561 114.794 79.3077 113.072 79.3077H109.06V79.4511C109.246 79.4511 109.394 79.547 109.394 79.6632V85.1894C109.394 85.3076 109.246 85.4015 109.06 85.4015ZM96.2849 80.7056H98.2545C98.4208 80.7149 98.5772 80.7874 98.6916 80.9084C98.806 81.0294 98.8698 81.1896 98.8698 81.3561C98.8698 81.5226 98.806 81.6828 98.6916 81.8038C98.5772 81.9248 98.4208 81.9973 98.2545 82.0066H96.2849V80.7056ZM98.6343 83.4076C99.1701 83.3957 99.68 83.1745 100.055 82.7913C100.429 82.4082 100.639 81.8936 100.639 81.3576C100.639 80.8217 100.429 80.307 100.055 79.9239C99.68 79.5407 99.1701 79.3195 98.6343 79.3077H94.1727V79.4511C94.3566 79.4511 94.5051 79.547 94.5051 79.6632V85.1894C94.5051 85.3076 94.3566 85.4015 94.1727 85.4015V85.545H96.6182V85.4015C96.4333 85.4015 96.2849 85.3076 96.2849 85.1894V83.4076H98.6343ZM79.087 82.0066H76.8001V80.7056H79.087C79.2595 80.7056 79.425 80.7741 79.547 80.8961C79.669 81.0181 79.7375 81.1836 79.7375 81.3561C79.7375 81.5286 79.669 81.6941 79.547 81.8161C79.425 81.9381 79.2595 82.0066 79.087 82.0066ZM81.5163 81.3561C81.5163 81.087 81.4632 80.8206 81.3602 80.572C81.2572 80.3234 81.1062 80.0975 80.9159 79.9073C80.7256 79.717 80.4997 79.5662 80.251 79.4633C80.0024 79.3604 79.7359 79.3075 79.4668 79.3077H74.688V79.4521C74.8719 79.4521 75.0204 79.546 75.0204 79.6642V85.1894C75.0204 85.3076 74.8719 85.4015 74.688 85.4015V85.545H77.1325V85.4015C76.9486 85.4015 76.8001 85.3076 76.8001 85.1894V83.4086H77.9961L79.2547 85.1894C79.3365 85.3076 79.2557 85.4015 79.0718 85.4015V85.545H81.5163V85.4015C81.3334 85.4015 81.1173 85.3076 81.0345 85.1894L79.7617 83.3874C80.2493 83.3158 80.6949 83.0713 81.0171 82.6983C81.3392 82.3254 81.5164 81.8489 81.5163 81.3561ZM86.599 83.244L87.7415 80.248L88.8849 83.244H86.599ZM89.3758 85.4025V85.545H91.5354V85.3874C91.4021 85.3541 91.2879 85.2793 91.2536 85.1904L89.1465 79.6632C89.1011 79.547 89.2132 79.4511 89.398 79.4511V79.3077H86.0859V79.4511C86.2698 79.4511 86.3829 79.547 86.3384 79.6632L84.2294 85.1904C84.1971 85.2793 84.0819 85.3541 83.9506 85.3874V85.545H86.1102V85.4025C85.9253 85.4025 85.8132 85.3066 85.8577 85.1904L86.2556 84.147H89.2293L89.6263 85.1904C89.6718 85.3066 89.5586 85.4025 89.3758 85.4025ZM119.221 83.1026L118.345 85.2137L118.489 85.249C118.489 85.249 118.6 85.0965 118.724 85.0965C119.089 85.0965 119.637 85.6056 121.922 85.6056C123.489 85.6056 125.203 85.1975 125.203 83.4955C125.203 80.8511 120.424 82.0177 120.424 81.0803C120.424 80.6511 121.173 80.4632 121.659 80.4632C123.336 80.4632 124.288 80.8864 124.137 81.2066L124.28 81.2753L125.096 79.6187L124.967 79.5692C124.967 79.5692 124.874 79.7531 124.646 79.7531C124.421 79.7531 123.1 79.2491 121.659 79.2491C120.111 79.2491 118.643 79.949 118.643 81.0803C118.643 83.7258 123.423 82.4278 123.423 83.4955C123.423 83.9904 122.92 84.2046 121.922 84.2046C119.641 84.2046 119.209 83.4803 119.343 83.1642L119.221 83.1026Z" fill="white"/>
<path d="M99.9454 193.932C63.771 157.431 37.6863 101.595 36.9994 58.2102L99.9454 5.1449C104.532 9.01254 160.196 55.9384 162.889 58.2102C162.204 101.595 136.12 157.431 99.9454 193.932ZM99.9454 -0.000518799L33.0005 56.4364C33.0005 103.197 62.2144 163.505 99.9454 200C137.673 163.505 166.89 103.197 166.89 56.4364L99.9454 -0.000518799Z" fill="#D3D5D7"/>
<path d="M99.9456 166.849C84.4881 151.322 56.0277 117.374 49.548 74.6569C48.9152 70.5041 48.5045 66.3203 48.3177 62.1237L99.9456 28.2855L151.571 62.1237C151.387 66.3782 150.962 70.558 150.341 74.6589C143.86 117.374 115.4 151.324 99.9456 166.849ZM99.9456 25.4007L45.2046 61.2307C47.4531 112.653 81.9538 153.615 99.9456 171.629C117.935 153.615 152.438 112.653 154.687 61.2307L99.9456 25.4007Z" fill="#D3D5D7"/>
<path d="M96.4062 141.925C95.78 141.925 95.2739 142.266 95.2739 142.686C95.2739 143.108 95.78 143.449 96.4062 143.449C97.0305 143.449 97.5365 143.108 97.5365 142.686C97.5365 142.266 97.0305 141.925 96.4062 141.925Z" fill="#D3D5D7"/>
<path d="M96.1143 145.39C97.8072 145.39 97.882 143.96 97.882 143.96C97.882 143.96 96.9971 144.491 95.9507 144.491C94.8174 144.491 93.9487 143.739 93.9487 142.685C93.9487 141.462 95.1971 140.879 96.4062 140.879C98.3254 140.879 99.2598 141.89 99.2598 143.623C99.2598 145.413 97.7103 146.369 96.1143 146.369C94.9163 146.369 94.3436 146.051 94.2335 146.051C94.0972 146.051 93.9982 146.163 93.9982 146.163L93.8729 146.112L94.686 144.733L94.7901 144.783C94.7396 145.051 95.0173 145.39 96.1143 145.39ZM82.4973 106.191L69.1509 121.967C78.5427 136.632 89.4931 147.469 99.9456 155.055V136.987C91.2335 136.987 84.1699 129.926 84.1699 121.215C84.1699 112.501 91.2335 105.439 99.9456 105.439V91.4552L85.1932 108.924L82.4973 106.191Z" fill="#D3D5D7"/>
<path d="M99.9454 180.132L82.9628 159.744L99.9454 175.572L116.927 159.744L99.9454 180.132ZM99.9454 25.4005L154.686 61.2296C152.438 112.652 117.935 153.615 99.9454 171.629C81.9537 153.615 47.4529 112.652 45.2044 61.2296L99.9454 25.4005ZM99.9454 16.9602L131.528 41.7893L99.9454 20.348L68.3629 41.7893L99.9454 16.9602ZM99.9454 14.0713L40.8257 59.5306C43.2398 110.763 79.5628 163.258 99.9454 183.607C120.326 163.258 156.648 110.763 159.064 59.5306L99.9454 14.0713Z" fill="#9CC2EA"/>
<path d="M103.484 145.326C104.109 145.326 104.616 144.985 104.616 144.564C104.616 144.143 104.109 143.803 103.484 143.803C102.861 143.803 102.354 144.143 102.354 144.564C102.354 144.985 102.861 145.326 103.484 145.326Z" fill="#9CC2EA"/>
<path d="M103.776 141.857C102.083 141.857 102.008 143.288 102.008 143.288C102.008 143.288 102.892 142.756 103.938 142.756C105.072 142.756 105.941 143.51 105.941 144.562C105.941 145.785 104.691 146.368 103.484 146.368C101.565 146.368 100.63 145.357 100.63 143.623C100.63 141.836 102.18 140.878 103.776 140.878C104.972 140.878 105.548 141.198 105.656 141.198C105.792 141.198 105.891 141.084 105.891 141.084L106.015 141.138L105.204 142.514L105.1 142.464C105.151 142.198 104.873 141.857 103.776 141.857ZM115.719 121.213C115.719 129.925 108.657 136.986 99.9458 136.986V155.053C110.397 147.468 121.348 136.632 130.738 121.967L117.394 106.189L114.698 108.923L99.9458 91.4542V105.438C108.657 105.438 115.719 112.501 115.719 121.213Z" fill="#9CC2EA"/>
<path d="M89.5636 117.885L87.5738 119C87.5073 116.734 88.068 114.492 89.194 112.524L89.7172 115.159C90.0286 113.481 90.7473 111.905 91.8102 110.57C92.8731 109.235 94.2477 108.181 95.8131 107.502L95.999 106.927C97.2383 106.511 98.5646 106.282 99.9444 106.282C101.325 106.282 102.652 106.511 103.89 106.927L104.078 107.502C105.642 108.181 107.016 109.235 108.078 110.569C109.141 111.904 109.86 113.479 110.172 115.156L110.695 112.524C111.821 114.492 112.382 116.734 112.316 119L110.325 117.886C109.909 123.26 105.425 127.494 99.9444 127.494C94.4636 127.494 89.9798 123.26 89.5636 117.885ZM113.626 119.599C113.626 112.044 107.5 105.918 99.9444 105.918C92.3889 105.918 86.2637 112.044 86.2637 119.599C86.2637 127.158 92.3889 133.283 99.9444 133.283C107.5 133.283 113.626 127.158 113.626 119.599Z" fill="#9CC2EA"/>
<path d="M99.9456 105.917C107.5 105.917 113.626 112.043 113.626 119.599C113.626 127.157 107.5 133.282 99.9456 133.282C92.3901 133.282 86.2649 127.157 86.2649 119.599C86.2649 112.043 92.3901 105.917 99.9456 105.917ZM99.9456 136.986C108.658 136.986 115.719 129.925 115.719 121.215C115.719 112.501 108.658 105.438 99.9456 105.438C91.2335 105.438 84.1699 112.501 84.1699 121.215C84.1699 129.925 91.2335 136.986 99.9456 136.986Z" fill="#424A52"/>
<path d="M132.789 118.656C132.122 119.77 131.438 120.874 130.738 121.968C121.347 136.633 110.397 147.469 99.9455 155.055C89.493 147.469 78.5426 136.632 69.1507 121.967C68.4512 120.873 67.7677 119.769 67.1003 118.655C59.8205 106.537 53.6216 91.9744 49.5479 74.6574C56.0276 117.374 84.489 151.322 99.9455 166.85C115.4 151.324 143.86 117.374 150.341 74.6594C146.268 91.9764 140.068 106.538 132.789 118.656Z" fill="#424A52"/>
<path d="M40.8248 59.5307L99.9445 14.0714L159.064 59.5307C156.648 110.763 120.326 163.258 99.9445 183.607C79.5639 163.258 43.2409 110.763 40.8248 59.5307ZM99.9445 5.1432L36.9985 58.2085C37.6874 101.594 63.77 157.43 99.9445 193.932C136.12 157.43 162.204 101.594 162.889 58.2085C160.197 55.9368 104.533 9.01085 99.9445 5.1432Z" fill="#960A2C"/>
<path d="M79.0872 80.7048H76.8004V82.0059H79.0872C79.2598 82.0059 79.4252 81.9373 79.5472 81.8153C79.6692 81.6933 79.7377 81.5279 79.7377 81.3553C79.7377 81.1828 79.6692 81.0174 79.5472 80.8954C79.4252 80.7734 79.2598 80.7048 79.0872 80.7048ZM139.169 62.4353L137.387 61.6747C136.85 61.4464 136.412 61.6989 136.412 62.2333V75.8968C136.412 76.4311 136.85 77.0604 137.387 77.2907L139.169 78.0503C139.705 78.2806 140.145 78.0291 140.145 77.4897V63.8282C140.145 63.2929 139.705 62.6656 139.169 62.4353ZM73.3176 57.9121L71.5378 58.4343C71.0014 58.5919 70.561 59.1596 70.561 59.6969V73.3595C70.561 73.8948 71.0014 74.2069 71.5378 74.0493L73.3176 73.5292C73.855 73.3716 74.2953 72.8019 74.2953 72.2655V58.604C74.2953 58.0666 73.855 57.7555 73.3176 57.9121ZM127.9 58.3111L125.142 57.5737V73.1888L127.9 73.9271C128.436 74.0716 128.877 73.7493 128.877 73.21V59.5505C128.877 59.0111 128.436 58.4555 127.9 58.3111ZM98.2548 80.7048H96.2861V82.0059H98.2548C98.4273 82.0059 98.5927 81.9373 98.7147 81.8153C98.8367 81.6933 98.9053 81.5279 98.9053 81.3553C98.9053 81.1828 98.8367 81.0174 98.7147 80.8954C98.5927 80.7734 98.4273 80.7048 98.2548 80.7048Z" fill="#960A2C"/>
<path d="M142.897 79.103C142.897 80.7808 141.524 81.5666 139.846 80.8505L136.709 79.5091C135.029 78.7919 133.657 76.8313 133.657 75.1536V60.6254C133.657 58.9466 135.029 58.1597 136.709 58.8789L139.846 60.2173C141.524 60.9345 142.897 62.8951 142.897 64.5718V79.103ZM131.63 74.3849C131.63 76.0616 130.258 77.0677 128.579 76.6182L121.978 74.8485V74.5647L122.39 74.4132V54.8739L121.978 54.5002V54.2153L128.579 55.985C130.258 56.4375 131.63 58.1779 131.63 59.8547V74.3849ZM121.922 85.606C119.638 85.606 119.089 85.0969 118.724 85.0969C118.6 85.0969 118.489 85.2494 118.489 85.2494L118.346 85.2141L119.222 83.103L119.344 83.1646C119.209 83.4808 119.642 84.205 121.922 84.205C122.92 84.205 123.423 83.9909 123.423 83.4959C123.423 82.4283 118.644 83.7262 118.644 81.0808C118.644 79.9495 120.111 79.2495 121.66 79.2495C123.1 79.2495 124.421 79.7535 124.647 79.7535C124.874 79.7535 124.968 79.5697 124.968 79.5697L125.096 79.6192L124.28 81.2757L124.138 81.207C124.288 80.8868 123.337 80.4636 121.66 80.4636C121.173 80.4636 120.424 80.6515 120.424 81.0808C120.424 82.0181 125.203 80.8515 125.203 83.4959C125.203 85.1979 123.489 85.606 121.922 85.606ZM113.914 65.8829V72.7919L114.326 73.1213V73.4031L110.746 72.9445V72.6616L111.161 72.4637V55.4295C111.161 53.7497 112.534 52.5951 114.212 52.8618L116.485 53.2214C118.164 53.4891 119.538 55.079 119.538 56.7577V73.7929L119.952 74.1202V74.4061L116.369 73.7273V73.4435L116.782 73.2475V66.3375L113.914 65.8829ZM113.072 85.5454H109.061V85.402C109.248 85.402 109.394 85.308 109.394 85.1898V79.6646C109.394 79.5465 109.248 79.4525 109.061 79.4525V79.3081H113.072C114.794 79.3081 116.192 80.3575 116.192 82.4272C116.192 84.4969 114.794 85.5454 113.072 85.5454ZM108.72 72.7445L105.522 72.5121L103.133 64.3385L102.271 64.3041V71.8283L102.685 72.1081V72.3909L99.1043 72.3566V72.0748L99.5175 71.8273V52.2891L99.1043 52.0083V51.7254L104.842 51.9557C106.52 52.0204 107.893 53.4507 107.893 55.1295V61.4759C107.897 62.1021 107.699 62.7129 107.328 63.2177C106.957 63.7226 106.434 64.0947 105.836 64.2789L108.108 72.0465L108.72 72.4596V72.7445ZM105.832 79.4525C105.647 79.4525 105.498 79.5465 105.498 79.6646V85.1898C105.498 85.308 105.647 85.402 105.832 85.402V85.5454H103.385V85.402C103.569 85.402 103.718 85.308 103.718 85.1898V79.6646C103.718 79.5465 103.569 79.4525 103.385 79.4525V79.3081H105.832V79.4525ZM98.6347 83.4091H96.2852V85.1898C96.2852 85.308 96.4337 85.402 96.6185 85.402V85.5454H94.1731V85.402C94.3569 85.402 94.5054 85.308 94.5054 85.1898V79.6646C94.5054 79.5465 94.3569 79.4525 94.1731 79.4525V79.3081H98.6347C99.1673 79.3248 99.6726 79.5481 100.044 79.9308C100.414 80.3136 100.622 80.8256 100.622 81.3586C100.622 81.8915 100.414 82.4035 100.044 82.7863C99.6726 83.169 99.1673 83.3923 98.6347 83.4091ZM90.8882 72.7687C89.2095 72.896 87.8368 71.6273 87.8368 69.9485V55.4193C87.8368 53.7416 89.2095 52.2628 90.8882 52.1356L94.0266 51.8962C95.7044 51.7679 97.0781 53.0376 97.0781 54.7163V69.2465C97.0781 70.9243 95.7044 72.4031 94.0266 72.5303L90.8882 72.7687ZM91.5347 85.5454H89.3762V85.402C89.558 85.402 89.6721 85.308 89.6266 85.1898L89.2297 84.1474H86.255L85.858 85.1898C85.8125 85.308 85.9257 85.402 86.1105 85.402V85.5454H83.9509V85.3888C84.0823 85.3535 84.1974 85.2787 84.2297 85.1898L86.3378 79.6646C86.3822 79.5465 86.2701 79.4525 86.0853 79.4525V79.3081H89.3984V79.4525C89.2135 79.4525 89.1014 79.5465 89.1479 79.6646L91.2549 85.1898C91.2882 85.2787 91.4024 85.3535 91.5347 85.3888V85.5454ZM81.0338 85.1898C81.1166 85.308 81.3328 85.402 81.5166 85.402V85.5454H79.0722V85.402C79.257 85.402 79.3378 85.308 79.256 85.1898L77.9974 83.4091H76.8005V85.1898C76.8005 85.308 76.9479 85.402 77.1338 85.402V85.5454H74.6884V85.402C74.8732 85.402 75.0197 85.308 75.0197 85.1898V79.6646C75.0197 79.5465 74.8732 79.4525 74.6884 79.4525V79.3081H79.4681C79.7372 79.3079 80.0036 79.3608 80.2522 79.4637C80.5008 79.5666 80.7267 79.7175 80.9169 79.9078C81.1072 80.098 81.258 80.3239 81.3609 80.5725C81.4638 80.821 81.5167 81.0875 81.5166 81.3565C81.5168 81.8492 81.3397 82.3255 81.0178 82.6984C80.6959 83.0714 80.2505 83.316 79.7631 83.3878L81.0338 85.1898ZM70.8601 76.7576C69.1803 77.2505 67.8086 76.2798 67.8086 74.6V60.0719C67.8086 58.3931 69.1803 56.6153 70.8601 56.1244L73.9985 55.2062C75.6773 54.7143 77.05 55.685 77.05 57.3648V71.893C77.05 73.5718 75.6773 75.3485 73.9985 75.8404L70.8601 76.7576ZM79.0752 74.3051L79.4893 73.9687V54.4285L79.0752 54.2396V53.9567L82.656 53.3072V53.5921L82.2439 53.9295V71.5071L85.263 70.9596L85.5277 70.498L85.8085 70.4495V73.3697L79.0752 74.5899V74.3051ZM65.7804 63.5435L62.1996 65.092V64.8092L62.6137 64.3678V62.59C62.6137 62.0546 62.1733 61.8051 61.638 62.0365L60.7218 62.4334C60.1855 62.6668 59.7461 63.2961 59.7461 63.8314V77.4939C59.7461 78.0313 60.1855 78.2818 60.7218 78.0495L61.638 77.6515C62.1733 77.4202 62.6137 76.7889 62.6137 76.2546V75.299L62.1996 75.2152V74.9333L65.7804 73.3828V73.6667L65.3683 74.1091V75.4949C65.3683 77.1727 63.9945 79.1404 62.3157 79.8666L60.0441 80.8505C58.3643 81.5777 56.9926 80.798 56.9926 79.1202V64.591C56.9926 62.9132 58.3643 60.9435 60.0441 60.2173L62.3157 59.2345C63.9945 58.5072 65.3683 59.287 65.3683 60.9648V63.1738L65.7804 63.2577V63.5435ZM99.9458 28.2862L48.3179 62.1243C48.5027 66.3768 48.928 70.5566 49.5482 74.6586C53.6219 91.9746 59.8208 106.537 67.1006 118.655L81.1873 104.123L84.0792 106.677L99.9458 90.3403L115.81 106.677L118.702 104.123L132.789 118.656C140.069 106.538 146.269 91.9767 150.341 74.6606C150.963 70.5586 151.387 66.3778 151.572 62.1243L99.9458 28.2862Z" fill="#960A2C"/>
<path d="M86.5991 83.2436H88.885L87.7415 80.2477L86.5991 83.2436ZM104.163 54.4357L102.271 54.36V61.7953L104.163 61.869C104.289 61.8751 104.415 61.8553 104.534 61.811C104.652 61.7666 104.761 61.6986 104.852 61.6111C104.943 61.5236 105.016 61.4184 105.065 61.302C105.115 61.1855 105.14 61.0602 105.139 60.9337V55.4519C105.139 54.9145 104.701 54.458 104.163 54.4357ZM93.3456 54.457L91.5658 54.5923C91.3023 54.6168 91.0571 54.7375 90.877 54.9312C90.6968 55.125 90.5943 55.3783 90.589 55.6428V69.3043C90.589 69.8417 91.0294 70.2487 91.5658 70.2083L93.3456 70.072C93.8839 70.0316 94.3233 69.5578 94.3233 69.0205V55.359C94.3248 55.2336 94.3 55.1092 94.2504 54.994C94.2008 54.8788 94.1275 54.7753 94.0353 54.6903C93.9431 54.6052 93.834 54.5405 93.7152 54.5003C93.5964 54.4601 93.4704 54.4453 93.3456 54.457ZM112.691 80.7052H111.174V84.1466H112.691C113.642 84.1466 114.411 83.682 114.411 82.4264C114.411 81.1689 113.642 80.7052 112.691 80.7052ZM116.781 56.7539C116.781 56.2166 116.342 55.7064 115.806 55.6206L114.891 55.4761C114.354 55.3913 113.914 55.762 113.914 56.2984V63.3751L116.781 63.8276V56.7539ZM104.078 119.375L99.9455 116.371L95.8132 119.375L97.391 124.232H102.497L104.078 119.375ZM104.078 107.501L103.889 106.926C101.329 106.066 98.5586 106.066 95.999 106.926L95.8132 107.501L99.9455 110.501L104.078 107.501ZM89.1941 112.523C88.0686 114.492 87.508 116.733 87.5739 119L89.5637 117.885L90.19 117.534L89.7183 115.159L89.1941 112.523ZM110.172 115.155L109.698 117.534L110.325 117.886L112.316 119C112.382 116.733 111.821 114.492 110.695 112.524L110.172 115.155ZM96.4061 143.448C95.7799 143.448 95.2738 143.107 95.2738 142.685C95.2738 142.265 95.7799 141.924 96.4061 141.924C97.0304 141.924 97.5364 142.265 97.5364 142.685C97.5364 143.107 97.0304 143.448 96.4061 143.448ZM96.4061 140.879C95.1981 140.879 93.9486 141.461 93.9486 142.685C93.9486 143.738 94.8183 144.491 95.9506 144.491C96.997 144.491 97.8819 143.959 97.8819 143.959C97.8819 143.959 97.8081 145.39 96.1142 145.39C95.0173 145.39 94.7395 145.05 94.79 144.783L94.6859 144.731L93.8738 146.112L93.9991 146.162C93.9991 146.162 94.0971 146.05 94.2334 146.05C94.3435 146.05 94.9162 146.368 96.1142 146.368C97.7102 146.368 99.2606 145.413 99.2606 143.623C99.2606 141.89 98.3253 140.879 96.4061 140.879ZM103.484 143.802C104.109 143.802 104.616 144.142 104.616 144.562C104.616 144.984 104.109 145.325 103.484 145.325C102.861 145.325 102.354 144.984 102.354 144.562C102.354 144.142 102.861 143.802 103.484 143.802ZM105.204 142.515L106.015 141.138L105.891 141.085C105.891 141.085 105.792 141.199 105.656 141.199C105.547 141.199 104.972 140.879 103.776 140.879C102.18 140.879 100.629 141.837 100.629 143.623C100.629 145.357 101.565 146.368 103.484 146.368C104.691 146.368 105.94 145.786 105.94 144.562C105.94 143.511 105.072 142.756 103.937 142.756C102.892 142.756 102.008 143.289 102.008 143.289C102.008 143.289 102.083 141.857 103.776 141.857C104.873 141.857 105.151 142.199 105.1 142.464L105.204 142.515ZM113.651 189.572H115.096V193.932H115.621V189.572H117.139V189.049H113.651V189.572ZM119.931 193.023L118.679 189.049H117.838V193.932H118.363V189.784L119.671 193.932H120.196L121.502 189.784V193.932H122.026V189.049H121.184L119.931 193.023Z" fill="#960A2C"/>
</g>
<defs>
<clipPath id="clip0_48_101">
<rect width="200" height="200" fill="white"/>
</clipPath>
</defs>
</svg>
