<svg width="200" height="200" viewBox="0 0 200 200" fill="none" xmlns="http://www.w3.org/2000/svg">
<path d="M194.369 37.5623C194.229 43.605 192.147 49.442 188.432 54.2095C189.565 58.3528 190.137 62.6296 190.131 66.9251C190.105 80.1897 183.9 87.222 182.328 89.608C183.585 97.7434 182.294 106.068 178.631 113.44C174.477 121.616 168.819 127.25 159.921 131.739C159.921 131.739 153.188 148.535 144.395 160.588C125.574 186.389 103.864 198.76 100.079 200C95.9627 198.696 74.9035 186.503 56.0039 160.589C47.2111 148.534 40.4765 131.742 40.4765 131.742C31.579 127.25 25.9216 121.615 21.767 113.444C18.1047 106.072 16.8135 97.7473 18.0705 89.612C16.5 87.2244 10.2943 80.1913 10.2678 66.9267C10.262 62.6312 10.8336 58.3544 11.9671 54.2111C8.25186 49.4438 6.16998 43.6071 6.0295 37.5648C5.77651 31.286 7.15403 25.0488 10.0279 19.4606C10.4751 18.6433 10.9758 17.8564 11.5268 17.1052C12.1252 19.35 12.9858 21.5167 14.0907 23.5604C15.3144 25.7848 16.9186 27.7775 18.8304 29.4481C21.2697 31.6967 24.1602 33.3998 27.3094 34.4438L27.2812 6.76995C39.9734 3.97181 65.6211 0 100.109 0C134.602 0 160.008 3.97181 173.114 6.76995L173.085 34.4438C176.235 33.3998 179.125 31.6968 181.564 29.4481C183.477 27.7778 185.081 25.785 186.305 23.5604C187.41 21.5166 188.27 19.35 188.868 17.1052C189.419 17.8567 189.92 18.6438 190.367 19.4614C193.241 25.0496 194.618 31.2868 194.365 37.5656" fill="#231F20"/>
<path d="M189.287 23.8371C188.051 26.9806 185.324 29.9365 182.614 32.2863C179.374 35.0981 173.777 37.6556 170.414 38.2086V8.75006C166.137 7.85894 141.252 2.60156 100.159 2.60156C59.0678 2.60156 34.2653 7.85974 29.994 8.74925V38.2086C26.6211 37.6556 21.0273 35.0981 17.7864 32.2863C15.0776 29.9365 12.3552 26.9806 11.1163 23.8363C9.50026 28.0092 8.75856 32.4695 8.93717 36.9407C9.1674 44.4529 11.679 48.7137 15.1436 53.7457C15.1436 53.7457 12.6474 59.0956 13.2036 69.5918C13.6753 78.4821 18.816 85.7117 21.1762 89.0001C18.49 104.699 25.7365 115.348 30.1977 120.471C33.8179 124.451 38.1741 127.693 43.026 130.018C45.3709 136.186 51.4172 149.79 59.5991 160.383C69.5165 173.225 83.8711 188.29 100.05 196.704C116.232 188.29 130.885 173.225 140.803 160.383C148.984 149.79 155.03 136.187 157.376 130.018C162.228 127.693 166.584 124.451 170.204 120.471C174.666 115.348 181.911 104.699 179.226 89.0001C181.586 85.7117 186.728 78.4821 187.199 69.5918C187.755 59.0956 185.258 53.7457 185.258 53.7457C188.723 48.7137 191.235 44.4537 191.465 36.9407C191.643 32.4695 190.901 28.0093 189.286 23.8363" fill="white"/>
<path d="M46.5408 12.1579C45.723 12.1314 44.9045 12.1815 44.096 12.3076C42.1198 12.5491 37.438 13.3131 37.438 13.3131L37.4525 41.2204C37.4525 41.2204 40.2836 40.8533 41.2923 40.7108C42.3605 40.5595 45.6593 40.1618 46.4056 40.0056C47.3899 39.853 48.3022 39.3971 49.0153 38.7016C49.5128 38.214 49.901 37.6262 50.1543 36.9773C50.4075 36.3284 50.5201 35.6331 50.4844 34.9374L50.4699 17.8266C50.5221 16.5822 50.3126 15.3408 49.8549 14.1824C49.4396 13.3968 48.7673 12.7774 47.9503 12.4276C47.4993 12.259 47.0222 12.1678 46.5408 12.1579ZM44.4857 14.9319C44.6691 14.8822 44.8622 14.881 45.0462 14.9284C45.2303 14.9758 45.3988 15.0702 45.5354 15.2024C45.7656 15.4479 45.8034 15.9228 45.8058 16.7616L45.8203 36.062C45.8485 36.2714 45.8309 36.4844 45.7688 36.6863C45.7066 36.8882 45.6015 37.0743 45.4605 37.2317C45.1419 37.4687 44.7619 37.6093 44.3657 37.6366L42.1166 37.9368L42.1013 15.2627L44.4857 14.9319ZM53.4331 36.0467C53.2134 36.0661 53 36.1307 52.8065 36.2366C52.6129 36.3424 52.4434 36.4872 52.3085 36.6617C52.1647 36.8303 52.0561 37.026 51.9892 37.2373C51.9223 37.4486 51.8984 37.6711 51.9189 37.8917C51.9311 38.1148 51.9877 38.3331 52.0854 38.534C52.1832 38.7349 52.32 38.9142 52.488 39.0614C52.647 39.2121 52.836 39.3274 53.0428 39.3997C53.2495 39.472 53.4693 39.4996 53.6875 39.4808C53.9066 39.4653 54.12 39.4039 54.3139 39.3006C54.5078 39.1972 54.6778 39.0543 54.8128 38.8811C55.0993 38.5318 55.239 38.085 55.2027 37.6347C55.1664 37.1844 54.9568 36.7658 54.618 36.4669C54.4616 36.3168 54.2751 36.2017 54.0708 36.1293C53.8665 36.0568 53.6491 36.0287 53.4331 36.0467ZM63.9366 9.97074C63.1147 10.0271 60.5057 10.1945 58.9134 11.8303C58.4102 12.3906 58.0271 13.0481 57.7878 13.7622C57.5486 14.4764 57.4583 15.232 57.5224 15.9824V33.8435C57.5023 34.5574 57.6459 35.2665 57.9423 35.9163C58.2386 36.5661 58.6799 37.1395 59.2322 37.5923C59.7386 37.99 60.8591 38.8762 63.881 38.5969C65.6072 38.5451 67.27 37.935 68.62 36.8581C69.0988 36.4283 69.4754 35.8967 69.7219 35.3023C69.9685 34.7079 70.0788 34.0658 70.0448 33.4233V26.8103L65.4403 28.7447L65.4556 33.4981C65.4556 34.9439 64.9251 35.5838 63.8215 35.7183C63.097 35.8052 62.1262 35.707 62.1262 33.903V14.5729C62.0984 14.3512 62.116 14.1263 62.1781 13.9117C62.2401 13.6972 62.3452 13.4975 62.487 13.3249C62.6288 13.1523 62.8042 13.0104 63.0027 12.9079C63.2011 12.8054 63.4183 12.7444 63.6411 12.7286C63.8694 12.6733 64.1078 12.6749 64.3352 12.7333C64.5627 12.7917 64.7724 12.9051 64.9457 13.0636C65.1191 13.2221 65.2508 13.4207 65.3293 13.6421C65.4078 13.8634 65.4307 14.1007 65.396 14.333L65.4105 19.8665L69.9989 17.9168L69.9844 15.1879C70.0865 14.0299 69.8632 12.8665 69.3397 11.8287C68.3077 10.2477 65.85 9.83631 63.9261 9.96913L63.9366 9.97074ZM73.1682 34.382C72.9515 34.3984 72.7407 34.4602 72.5496 34.5636C72.3585 34.6669 72.1913 34.8094 72.0589 34.9817C71.9126 35.1523 71.8014 35.3502 71.7319 35.5639C71.6624 35.7776 71.6359 36.003 71.654 36.227C71.6691 36.4488 71.7286 36.6652 71.829 36.8635C71.9294 37.0618 72.0686 37.2379 72.2384 37.3814C72.3973 37.5307 72.5856 37.6453 72.7912 37.7177C72.9969 37.7901 73.2154 37.8188 73.4328 37.8019C73.6502 37.785 73.8617 37.7229 74.0537 37.6196C74.2457 37.5163 74.4141 37.374 74.5479 37.2019C74.841 36.8563 74.9864 36.4094 74.9528 35.9576C74.9192 35.5058 74.7093 35.0853 74.3684 34.7869C74.2082 34.6389 74.0185 34.5264 73.8119 34.4566C73.6052 34.3868 73.3853 34.3614 73.1682 34.382ZM90.7507 8.81559L86.0262 8.93633V32.5998C86.0262 34.2661 85.0739 34.5502 84.1216 34.5639C82.9488 34.5816 82.2782 34.0745 82.2782 32.7946V9.05547L77.6133 9.28087V32.5547C77.6133 34.9849 78.5986 35.7046 79.0679 36.1232C79.9574 36.9153 81.9691 37.4522 84.0621 37.3685C86.5342 37.2687 87.9139 36.7495 89.1158 35.8535C89.6606 35.4184 90.0933 34.8591 90.3776 34.2224C90.6619 33.5857 90.7896 32.8902 90.7499 32.194L90.7507 8.81559ZM99.5677 8.71094L95.2337 8.72543V36.7841H99.868V17.3935L104.382 26.316V36.7841L108.941 36.8589V8.8011L104.262 8.75602L104.246 19.1033L99.5677 8.71094ZM113.845 8.92104V36.9789L118.494 37.2341V9.08606L113.845 8.92104ZM121.642 9.25028L120.248 12.0549L125.287 12.3398V37.5335C125.287 37.5335 130.018 37.8668 129.921 37.8636V12.6248L134.569 12.9387L134.54 10.0754C134.54 10.0754 129.841 9.73971 127.941 9.6246C125.317 9.46763 121.643 9.25028 121.643 9.25028H121.642ZM136.804 10.2404V38.3739C136.804 38.3739 140.346 38.7281 141.677 38.869C143.167 39.0268 147.151 39.4534 147.151 39.4534L147.122 36.2737L141.422 35.6144L141.438 25.4772L144.482 25.792L146.162 22.568L141.423 22.0576V13.6294L146.387 14.1543L146.417 11.2161C146.417 11.2161 143.229 10.8925 141.813 10.7355C140.65 10.6067 136.804 10.2404 136.804 10.2404ZM149.881 11.6652V39.843C149.881 39.843 152.782 40.2101 153.735 40.3679C154.68 40.5265 158.203 41.0038 158.938 41.0127C159.794 41.1179 160.659 40.9044 161.367 40.413C162.304 39.8229 162.837 38.6903 162.837 37.069L162.822 19.8383C162.894 18.518 162.808 17.1939 162.567 15.8938C162.425 15.4077 162.187 14.9551 161.867 14.5631C161.546 14.1711 161.15 13.8478 160.702 13.6125C159.887 13.1166 158.437 12.859 156.432 12.533C154.452 12.2215 149.86 11.6628 149.86 11.6628L149.881 11.6652ZM154.544 15.0373L156.868 15.3674C157.563 15.4632 157.772 15.6379 157.949 16.0275C158.116 16.519 158.182 17.0392 158.143 17.5569V36.8123C158.143 37.3556 158.051 37.6205 157.873 37.7565C157.511 37.9419 157.092 37.9794 156.703 37.8612L154.544 37.5617V15.0373Z" fill="#231F20"/>
<path d="M12.9139 32.0716C11.7805 38.6733 14.1045 44.8789 17.6529 50.0679C23.3006 58.3246 31.2539 62.3158 34.7637 64.2542C40.0573 67.1763 42.0231 68.3886 44.4074 70.1773C52.7374 76.4337 50.63 84.1398 50.63 84.1398C47.8971 77.9124 41.6817 73.6162 32.5741 69.0825C20.0163 62.8326 18.2977 57.0254 18.2977 57.0254C16.8193 62.7547 16.8915 68.7741 18.5069 74.4663C22.1841 87.008 32.7126 91.6511 40.7616 96.1808C43.945 97.8647 46.9541 99.8589 49.7453 102.134C57.2446 108.701 55.8777 113.396 55.8777 113.396C53.1737 107.999 45.0554 104.467 37.9587 100.889C28.2747 95.9981 25.1666 91.5449 25.1666 91.5449C23.7482 99.9667 26.3419 107.796 29.7253 113.259C34.2115 120.356 41.0728 125.628 49.0852 128.136H151.289C159.302 125.628 166.163 120.356 170.65 113.259C174.032 107.795 176.627 99.9659 175.208 91.5449C175.208 91.5449 172.101 95.9965 162.417 100.888C155.318 104.472 147.201 108.001 144.496 113.395C144.496 113.395 143.115 108.698 150.614 102.133C153.411 99.8576 156.425 97.8631 159.612 96.1784C167.661 91.6487 178.175 87.0047 181.853 74.4638C183.475 68.7733 183.552 62.7534 182.077 57.023C182.077 57.023 180.359 62.8302 167.801 69.0801C158.694 73.613 152.477 77.9084 149.745 84.1366C149.745 84.1366 147.637 76.4304 155.967 70.1741C158.35 68.3846 160.317 67.1731 165.611 64.251C169.12 62.3134 177.075 58.3214 182.722 50.0639C186.27 44.8757 188.594 38.6701 187.461 32.0684C187.461 32.0684 186.322 34.5526 182.017 37.2122C176.804 40.4322 171.117 42.0663 163.122 44.2301C155.564 46.2756 142.649 48.8 135.018 53.0769C131.481 55.0604 129.372 57.7459 129.305 60.8306C129.124 69.0439 136.517 76.7395 136.517 87.3444C136.517 94.0065 131.386 98.4718 122.496 98.4718C115.877 98.4718 112.608 96.7652 110.994 95.367C110.135 94.5602 109.449 93.5873 108.977 92.5072C108.505 91.4272 108.258 90.2626 108.249 89.084C108.199 88.2441 108.325 87.4029 108.619 86.6143C108.912 85.8257 109.367 85.107 109.954 84.5043C110.542 83.9016 111.248 83.428 112.029 83.114C112.809 82.7999 113.647 82.6522 114.488 82.6804C116.456 82.6804 118.995 83.7647 119.468 85.8898C120.278 85.6483 123.396 83.3871 123.396 78.6611C123.396 75.495 121.301 71.9732 115.465 71.9732C113.941 71.9598 112.422 72.1567 110.951 72.5584C111.112 68.7565 107.527 66.8897 103.678 66.8897C99.6763 66.8897 96.8733 68.1544 88.8766 67.3244C87.0266 67.1407 85.2017 66.7588 83.4332 66.1854C84.027 66.9492 84.5302 67.7794 84.9329 68.6591C85.5153 70.0299 85.7223 71.5311 85.5326 73.0084C85.2791 75.5924 83.4944 77.2845 80.8983 78.3471C81.9996 78.8977 86.8222 80.3982 86.8222 87.1649C86.7682 88.7101 86.4015 90.2283 85.7443 91.6278C85.0871 93.0272 84.153 94.279 82.9985 95.3074C80.7441 97.3522 77.7929 98.4572 74.7498 98.3961C67.3117 98.3961 63.8624 94.0065 63.8624 87.3437C63.8624 76.7387 71.1998 68.9843 71.0751 60.8306C71.0292 57.7459 68.8299 55.0025 65.3774 53.0785C57.738 48.8202 44.8148 46.2764 37.2591 44.2301C29.2648 42.0655 23.5776 40.4322 18.3637 37.2122C14.0586 34.5526 12.9203 32.0684 12.9203 32.0684L12.9139 32.0716ZM87.5813 69.4278C90.307 70.7907 95.5427 70.7842 98.9494 70.2232C101.67 69.7603 104.797 69.2846 106.613 70.7327C108.971 72.6124 108.307 75.8315 108.307 75.8315L108.757 75.6665C110.624 74.9572 112.61 74.616 114.606 74.6619C118.059 74.6651 120.239 75.743 120.678 78.3358C120.841 79.6632 120.534 81.0057 119.809 82.1297C119.809 82.1297 118.585 79.7454 114.515 79.7454C109.011 79.7454 104.79 83.4105 104.947 89.538C105.078 92.094 106.06 94.5327 107.737 96.4666C107.657 96.4207 107.662 96.7218 107.662 96.7218C105.665 95.6576 102.557 94.6449 100.898 95.5368C98.8013 96.6646 98.926 100.294 99.3084 102.33L98.9035 102.495C98.3464 100.991 97.6123 97.9019 93.2951 96.3313C91.4598 95.6648 88.6294 95.8145 86.0664 96.2863C88.6018 93.7219 90.0931 90.3064 90.2507 86.7037C90.2507 81.3264 87.5403 79.454 86.1114 78.3962C86.7975 77.9223 87.3818 77.3159 87.8299 76.6128C88.2781 75.9097 88.5812 75.124 88.7212 74.302C88.8818 72.5985 88.4827 70.8891 87.5846 69.4327L87.5813 69.4278Z" fill="#231F20"/>
<path d="M98.1688 74.6457C98.9244 75.6901 99.7673 76.6685 100.688 77.5703C101.947 78.5137 104.023 77.6644 105.727 76.9408C106.546 76.5519 108.171 75.9055 108.171 75.9055C107.588 75.5236 106.951 75.2306 106.281 75.0362C104.801 74.6416 103.263 74.5095 101.737 74.6457C100.189 74.7021 98.1688 74.6457 98.1688 74.6457ZM83.5172 144.229C84.1953 145.654 84.5583 147.209 84.5814 148.788C84.6478 150.825 84.3638 152.859 83.7418 154.801H116.569C115.94 152.86 115.651 150.826 115.714 148.788C115.751 147.206 116.129 145.651 116.824 144.229H83.5172ZM74.7114 170.818C80.7537 177.662 93.0796 188.139 100.026 191.813C107.665 187.769 119.738 176.498 125.969 170.818L74.7114 170.818Z" fill="#231F20"/>
<path d="M134.289 133.766C142.012 131.277 151.203 128.125 151.203 128.125H49.0913C49.0913 128.125 58.5306 131.445 66.3116 133.8C72.997 135.826 81.0582 138.706 83.5335 144.236H116.854C119.564 138.706 127.639 135.913 134.286 133.77M80.1711 162.818C78.5451 165.606 76.7366 168.283 74.7575 170.833H125.948C124.85 169.259 122.524 166.265 120.428 162.825C118.807 160.328 117.511 157.634 116.573 154.809H83.7436C82.8232 157.592 81.6256 160.276 80.1687 162.82M125.908 114.257H120.288L124.834 117.56L123.098 122.906L127.644 119.602L132.193 122.906L130.454 117.56L135.002 114.257H129.381L127.644 108.914L125.907 114.257H125.908ZM98.2044 114.257H92.584L97.1314 117.56L95.3942 122.906L99.9408 119.602L104.487 122.906L102.751 117.56L107.295 114.257H101.678L99.9408 108.914L98.2044 114.257ZM71.8684 108.914L73.6056 114.257H79.2252L74.677 117.56L76.415 122.906L71.8684 119.602L67.3211 122.906L69.0582 117.56L64.5117 114.257H70.1321L71.8684 108.914Z" fill="#EF3E42"/>
<path d="M100.013 42.6445C84.0639 42.6821 68.1273 43.523 52.2632 45.1641C52.2632 45.1641 61.1269 47.2402 67.7849 50.7878C71.7125 52.8791 74.3633 56.1836 74.608 59.7256C74.963 64.8694 72.4941 70.4045 71.0097 73.8523C68.598 79.4462 67.3253 83.9726 67.3503 87.4083C67.3316 89.1852 67.8264 90.9297 68.7751 92.4322C69.8328 93.8957 71.4348 95.3865 75.0282 95.3865C81.0495 95.3865 83.3518 90.0108 83.3518 86.8086C83.3699 85.7049 83.1233 84.613 82.6327 83.6242C82.142 82.6354 81.4217 81.7786 80.5319 81.1254C79.0255 79.9029 77.3073 78.9675 75.4629 78.3659C75.4629 78.3659 82.4067 76.136 82.4067 72.0966C82.4067 68.7865 80.3838 64.9982 77.7877 62.2444L77.9527 62.0794C79.7031 62.8912 81.5463 63.4854 83.4412 63.8487C86.6768 64.3919 89.9529 64.658 93.2338 64.644C98.5612 64.644 100.989 64.0137 104.93 64.0137C109.038 64.0137 112.677 65.9618 113.569 69.6825C115.011 69.4934 116.469 69.4583 117.918 69.5778C122.802 70.0688 126.139 73.507 126.225 77.9762C126.343 80.6636 125.533 83.3097 123.929 85.4697C122.326 87.6298 120.028 89.1722 117.422 89.8377C117.619 89.2695 117.666 88.66 117.557 88.0684C117.461 87.403 117.136 86.7919 116.638 86.3403C116.14 85.8887 115.5 85.6247 114.828 85.5938C112.542 85.5938 111.393 87.4719 111.468 89.3435C111.634 93.4368 116.237 95.1925 120.857 95.4469C121.557 95.4847 122.058 95.5097 122.716 95.492C127.007 95.3785 129.696 94.303 131.249 92.3879C132.268 90.9296 132.803 89.188 132.779 87.4091C132.803 83.9726 131.531 79.447 129.119 73.8523C127.638 70.4037 125.165 64.8686 125.519 59.7248C125.764 56.1828 128.436 52.9089 132.345 50.787C138.886 47.2402 147.87 45.1633 147.87 45.1633C133.711 43.7466 117.135 42.6445 100.013 42.6445ZM151.87 132.503C145.589 134.919 140.012 136.664 134.684 138.352C128.107 140.437 119.326 143.168 118.849 148.489C118.246 155.202 127.158 164.994 129.406 167.235C134.333 162 138.761 156.317 142.633 150.259C146.213 144.615 149.304 138.675 151.871 132.504L151.87 132.503ZM48.561 132.533C53.875 145.421 61.5155 157.22 71.1007 167.341C73.6332 164.723 81.5824 155.274 81.5824 148.535C81.5824 143.343 72.3331 140.513 65.7467 138.457C60.6165 136.853 54.8432 134.941 48.561 132.53V132.533Z" fill="#231F20"/>
</svg>
