<svg width="200" height="200" viewBox="0 0 200 200" fill="none" xmlns="http://www.w3.org/2000/svg">
<g clip-path="url(#clip0_48_175)">
<path fill-rule="evenodd" clip-rule="evenodd" d="M175.466 14.1625C181.071 30.0201 193.29 72.9987 192.634 111.14C171.746 145.739 136.048 176.198 99.7769 195.623C63.506 176.198 27.8054 145.74 6.91697 111.14C6.26145 72.9981 18.477 30.0201 24.0819 14.1625C72.1858 0.57866 127.754 0.57866 175.466 14.1625Z" fill="white"/>
<path fill-rule="evenodd" clip-rule="evenodd" d="M175.466 14.1629C181.071 30.0206 193.291 72.9991 192.635 111.141C171.747 145.74 136.049 176.198 99.7773 195.623C63.5064 176.198 27.8059 145.74 6.9174 111.14C6.26188 72.9986 18.4774 30.0206 24.0823 14.1629C72.1862 0.579087 127.755 0.579087 175.466 14.1629ZM21.1032 10.9652C73.1514 -3.65649 124.093 -3.65224 178.441 10.961C184.729 27.9134 197.403 73.3522 196.503 112.223C174.249 150.746 131.44 183.731 99.7746 200C68.1083 183.731 25.2997 150.746 3.04545 112.223C2.14623 73.3522 14.8156 27.9176 21.1032 10.9652Z" fill="#0B1F41"/>
<path d="M60.1457 95.6508L56.3653 84.5256L51.7968 87.1366V111.923L56.3184 109.339V97.1511L59.952 107.261L64.6061 104.601V79.8159L60.1457 82.3648V95.6508ZM163.869 23.0858V47.8702L168.9 44.9953V20.2109L163.869 23.0858ZM75.7304 72.8462C72.0558 74.9464 69.5918 78.9734 69.6035 81.4336V95.2993C69.6035 97.8264 72.0351 100.3 75.8538 98.4747C81.9621 95.5557 81.8291 92.4409 81.8174 89.9801V86.5271L76.8126 89.3871V92.8773L74.6119 94.1345V78.8231L76.8126 77.5654V82.42L81.8174 79.5818V74.4957C81.8051 72.0355 79.3501 70.7772 75.7304 72.8462ZM30.5737 98.6552C26.8997 100.755 24.4351 104.782 24.4473 107.243V121.108C24.4473 123.635 26.8789 126.109 30.6977 124.284C36.806 121.365 36.6729 118.249 36.6607 115.789V112.336L31.6559 115.196V118.686L29.4558 119.943V104.632L31.6559 103.374V108.229L36.6612 105.39V100.304C36.649 97.8439 34.194 96.5862 30.5742 98.6552H30.5737ZM86.5071 92.0979L91.5385 89.2231V64.4387L86.5071 67.3136V92.0979ZM41.3505 117.893L46.3818 115.018V90.2328L41.3505 93.1082V117.893ZM147.154 37.3815L150.601 35.4124V55.4595L155.632 52.5846V32.537L159.078 30.5679V25.8242L147.154 32.6384V37.3815ZM105.302 69.8614L101.522 58.7362L96.9535 61.3472V86.1236L101.475 83.5397V71.3617L105.108 81.4633L109.763 78.8035V54.026L105.302 56.5754V69.8614ZM123.429 59.4864L119.649 48.3607L115.08 50.9717V75.7481L119.602 73.1642V60.9862L123.235 71.0883L127.89 68.4285V43.651L123.429 46.2004V59.4864ZM135.789 39.1866L132.546 65.7548L137.471 62.94L137.822 58.535L140.697 56.8308L141.186 60.8169L146.026 58.0508L142.21 35.4554L135.789 39.1866ZM137.902 54.0356L139.253 44.4092L140.181 52.6335L137.902 54.0356Z" fill="#0B1F41"/>
<path fill-rule="evenodd" clip-rule="evenodd" d="M152.276 17.1789L15.6797 95.2387C17.6271 66.6918 25.312 37.0327 30.554 21.021C72.5719 9.94896 115.669 10.3349 152.276 17.1789H152.276ZM46.9538 32.9372V38.4661H50.3166V42.9624H46.9538V53.8757L41.351 57.0951V28.6231H52.3731V32.9372H46.9538ZM68.8405 42.6061V48.8023C68.8405 51.2631 66.1912 53.8757 62.1421 53.8757C58.0323 53.8757 55.2617 51.2636 55.2617 48.8023V33.2409C55.2617 30.7802 58.0323 28.1681 62.1421 28.1681C66.1912 28.1681 68.8405 30.7802 68.8405 33.2409V35.244L63.2994 38.4104L63.2978 32.2041L60.9247 33.5605V49.8509L63.2978 48.4944L63.2994 45.7725L68.8405 42.6061Z" fill="#263B80"/>
<path fill-rule="evenodd" clip-rule="evenodd" d="M33.749 133.268L177.177 51.3047C181.125 68.9202 184.395 89.4971 184.323 108.758C163.128 142.789 130.456 168.458 99.7771 186.138C69.3559 168.458 50.5756 152.286 33.749 133.269V133.268ZM133.398 111.522C134.786 111.145 136.08 110.482 137.196 109.576C137.271 111.24 136.893 112.893 136.103 114.359C135.35 113.283 134.438 112.327 133.398 111.522ZM104.907 113.788L109.265 111.299C107.888 110.928 106.623 110.224 105.583 109.248L117.242 102.557L115.887 100.692H133.855L134.967 102.572C134.967 102.572 137.945 103.268 139.644 104.945L136.887 105.372L138.249 106.907C137.218 108.183 134.527 109.864 131.959 110.384C130.733 109.557 129.439 108.834 128.091 108.223L132.403 105.76C132.403 105.76 129.905 104.217 124.082 102.59C125.663 103.578 127.164 104.687 128.571 105.909L124.823 108.051C124.823 108.051 131.415 111.067 135.03 117.548L130.664 117.645C130.664 117.645 125.608 126.98 117.578 132.268V126.972C117.578 126.972 112.326 126.409 109.338 124.117L112.266 122.374C109.829 121.825 107.616 120.554 105.916 118.728L109.752 116.559C109.752 116.559 107.44 116.253 104.907 113.788ZM129.708 101.971C130.227 102.585 130.88 103.071 131.616 103.395C132.352 103.718 133.153 103.87 133.956 103.838L132.775 102.091L129.708 101.971ZM85.2795 147.033L85.7121 150.841C83.1331 152.542 76.3964 156.382 71.0197 153.759C66.9865 151.79 66.0996 146.114 69.1255 141.302C72.6388 135.715 78.2986 135.601 81.4208 137.652C81.1257 138.917 80.5748 140.108 79.8018 141.153C79.0289 142.198 78.0502 143.074 76.9258 143.728L77.7564 140.413C75.8531 139.454 73.388 140.32 71.9801 142.624C70.0859 145.723 70.6286 149.293 73.1901 150.582C77.4329 152.72 85.2795 147.033 85.2795 147.033ZM153.116 131.434C153.116 131.434 155.835 131.427 156.037 133.801C155.674 133.612 155.277 133.497 154.868 133.462C154.46 133.428 154.049 133.474 153.659 133.598C151.443 134.377 149.078 134.64 146.746 134.364L140.975 140.523C141.06 141.462 141.202 142.395 141.398 143.318C137.915 142.044 134.615 140.32 131.582 138.188L133.631 141.834C133.631 141.834 132.061 145.84 123.624 151.212L123.286 147.595C123.286 147.595 114.852 142.316 109.733 143.358C104.899 152.159 96.325 151.054 96.325 151.054L93.953 159.511C93.953 159.511 101.95 160.593 100.366 167.001L98.1724 165.696C98.2213 166.187 98.1292 166.682 97.9066 167.123C97.6841 167.564 97.3403 167.933 96.9156 168.186L95.1347 165.732C95.8136 167.761 92.4998 168.59 92.4998 168.59C92.4998 168.59 92.3354 166.383 91.6591 165.503L89.0892 162.334L86.6735 142.353L89.7133 143.63C94.1212 139.935 97.5808 135.243 99.8042 129.945C99.8042 129.945 110.154 135.186 117.525 134.364C119.075 134.144 127.168 128.5 131.871 119.458L135.574 119.376C137.388 122.265 138.64 125.47 139.264 128.822L136.618 128.327C137.272 129.723 137.776 131.185 138.12 132.687L144.969 128.723C149.056 126.329 154.898 125.872 155.759 128.296C155.759 128.296 153.847 128.146 153.386 129.016C153.386 129.016 155.987 128.826 156.24 130.995C156.24 130.995 154.038 130.366 153.116 131.434ZM116.03 163.509L114.371 162.294C114.457 162.678 114.435 163.078 114.307 163.45C114.179 163.823 113.951 164.152 113.646 164.403C113.21 163.703 112.665 163.077 112.033 162.547C112.083 163.781 110.27 164.803 110.27 164.803C110.101 164.03 109.721 163.318 109.172 162.745L106.886 160.566L100.591 152.153C107.449 151.759 111.066 145.039 111.066 145.039C120.003 153.518 108.906 155.442 108.906 155.442L109.591 158.46C109.591 158.46 117.107 157.897 116.03 163.509V163.509ZM137.697 118.784C138.917 120.424 140.44 124.158 141.295 128.195L144.57 123.076L145.658 125.559C147.811 121.633 149.846 117.986 150.92 116.068C151.371 116.295 151.865 116.425 152.37 116.448V117.865C152.216 118.225 152.137 118.612 152.138 119.003C152.465 119.501 152.913 119.91 153.44 120.192C153.966 119.91 154.413 119.501 154.741 119.003C154.739 118.611 154.658 118.224 154.502 117.865V116.448C154.919 116.382 155.375 116.243 155.876 116.108C156.543 114.459 156.248 112.021 156.248 112.021C156.673 111.525 156.997 110.951 157.203 110.331C156.458 109.647 155.506 109.229 154.497 109.144V109.004L157.564 107.14V105.095L155.63 106.269L155.615 80.9336L153.414 78.5933L151.214 80.8014L151.23 106.28L149.112 104.994V107.14L152.238 108.871L152.226 109.042C151.279 108.972 150.334 109.208 149.531 109.714C149.606 110.398 149.84 111.055 150.214 111.633L137.697 118.784ZM94.9527 124.073L85.9334 129.151C87.934 130.54 94.1131 129.586 98.5959 127.153C98.5959 127.153 108.36 132.452 115.656 132.494C115.654 132.493 115.635 128.474 115.633 128.474C102.161 125.279 98.2176 115.813 95.6444 109.14L68.7312 124.49C72.2073 127.305 82.5228 122.171 90.6971 117.724C90.8984 118.125 91.1077 118.522 91.325 118.915L77.0775 127.063C80.6243 129.803 87.8228 125.883 94.0423 123.032C94.3353 123.388 94.6387 123.735 94.9522 124.073H94.9527ZM132.809 95.4613C132.394 94.8306 131.827 94.3137 131.16 93.9578C130.493 94.3151 129.927 94.8333 129.513 95.465C129.532 96.0472 129.634 96.6238 129.814 97.1777L127.928 97.1788C128.181 96.3486 128.319 95.4882 128.341 94.6209C127.663 93.5922 126.738 92.7494 125.65 92.1697C124.563 92.7519 123.639 93.5967 122.964 94.6267C122.988 95.4945 123.129 96.3551 123.383 97.1852L121.503 97.1857C121.682 96.6318 121.782 96.0554 121.8 95.4735C121.385 94.843 120.818 94.3265 120.151 93.9711C119.484 94.3278 118.918 94.8454 118.504 95.4767C118.523 96.0589 118.625 96.6355 118.805 97.1894L118.807 99.2908L132.514 99.2748L132.512 97.1746C132.691 96.6203 132.791 96.0435 132.809 95.4613Z" fill="#F05323"/>
</g>
<defs>
<clipPath id="clip0_48_175">
<rect width="200" height="200" fill="white"/>
</clipPath>
</defs>
</svg>
