<svg width="200" height="200" viewBox="0 0 200 200" fill="none" xmlns="http://www.w3.org/2000/svg">
<g clip-path="url(#clip0_48_283)">
<path d="M198.631 14.2606C198.631 14.2606 163.99 -0.000137329 99.7554 -0.000137329C35.5206 -0.000137329 0.88288 14.2606 0.88288 14.2606C-7.31395 116.893 42.804 174.136 99.7554 200C156.708 174.136 206.809 116.894 198.631 14.2606Z" fill="#E81F3E"/>
<path d="M99.7555 2.33463C155.877 2.33463 189.528 13.4149 196.406 15.9163C196.913 22.7148 197.176 29.3811 197.176 35.901C197.176 73.8335 188.613 106.991 171.626 134.698C155.071 161.699 130.229 183.358 99.7555 197.414C69.2791 183.357 44.4349 161.697 27.8794 134.698C10.8953 106.999 2.33398 73.8532 2.33398 35.9372C2.33398 29.4061 2.59858 22.7272 3.10736 15.9163C9.98474 13.4153 43.6334 2.33463 99.7555 2.33463Z" fill="white"/>
<path d="M141.108 118.529C141.108 118.529 139.068 118.833 137.969 121.805L132.044 121.704C132.044 121.704 129.929 118.75 125.859 118.722C125.859 118.722 122.056 120.818 122.388 123.809C122.388 123.809 123.357 122.156 125.638 122.137C127.142 122.691 127.816 124.353 127.816 124.353C127.816 124.353 126.985 127.999 122.518 129.439C122.518 129.439 117.127 126.328 112.992 126.144C108.857 125.95 103.079 131.109 97.6508 126.531C92.2231 121.944 92.7403 114.874 95.02 110.092C95.02 110.092 82.1709 119.073 92.7582 131.359C92.7582 131.359 75.036 143.174 67.3564 170.076C77.0947 177.294 87.9125 183.773 99.7552 189.811C109.678 184.752 118.881 179.398 127.327 173.546C116.629 166.015 110.176 152.63 119.121 135.134L121.511 136.251L132.782 135.374L134.554 132.522L138.68 132.272C138.68 132.272 142.538 128.229 143.055 125.267C143.055 125.267 139.151 122.71 141.108 118.529ZM193.061 19.0891C193.061 19.0891 158.101 5.66821 99.7552 5.66821C41.4098 5.66821 6.45434 19.0891 6.45434 19.0891C5.90051 40.1342 7.11899 58.6693 10.0264 75.1179C35.9363 66.4411 42.1114 87.228 63.1566 88.0035L86.593 88.2252C90.4976 84.265 96.1188 82.2067 96.1188 82.2067L116.176 82.3545C120.349 84.4403 124.576 87.6527 124.576 87.6527C124.576 87.6527 130.927 87.7358 138.395 87.1267C152.914 85.9543 158.655 70.6225 189.424 75.4317C192.378 58.8998 193.615 40.2637 193.061 19.0891H193.061Z" fill="#2A4076"/>
<path d="M20.2158 62.5357L26.6956 61.2806V43.641L32.3816 42.552V36.3031L26.6956 37.4107V29.4081L32.3816 28.2266V21.8017L20.2158 24.5894V62.5357ZM44.4087 19.5681C37.5416 20.6853 37.0708 21.8112 37.0152 28.4479V52.6316C37.0708 58.8528 37.5229 59.5453 44.4087 58.8623C51.3684 58.0129 52.3652 57.2839 52.4212 51.0902V43.4841L45.9414 44.084V51.4593C45.9414 52.4839 45.295 52.8069 44.7321 52.9089C44.2057 52.9269 43.5041 52.8438 43.5041 51.6345V27.7094C43.5041 26.7495 44.0396 26.2787 44.6395 26.2052C45.3228 26.1035 45.9414 26.5095 45.9414 27.4511V32.1769L52.4212 31.5031V26.6112C52.3652 19.6698 51.3871 18.673 44.4087 19.5681ZM79.355 16.3099L70.4756 16.9559V56.4898L79.5584 55.9637C85.2071 55.6407 86.1121 54.8378 86.2043 49.3179V24.5251C86.0934 16.9559 85.0044 16.0886 79.355 16.3099ZM79.7245 48.9857C79.7062 49.8717 79.6042 50.1947 78.7368 50.2499L76.9554 50.4072V23.7035L78.7368 23.5465C79.3459 23.5374 79.6967 23.8326 79.7245 25.245V48.9857ZM94.5116 15.8669L90.6257 55.7238L96.616 55.6499L97.1146 48.7088L100.659 48.6627L101.213 55.5204L107.203 55.576L103.281 15.7378L94.5116 15.8669ZM97.4376 42.6537L98.9144 26.9986L100.336 42.6168L97.4376 42.6537ZM118.501 16.236L112.013 15.9591V55.696L122.987 56.0559V50.315L118.501 50.1764V16.236ZM134.24 50.9793V17.3806L127.75 16.8268V56.3606L138.597 57.2192L138.587 51.3945L134.24 50.9793ZM146.775 18.8482L142.888 57.5421L148.879 58.1051L149.368 51.0163L152.876 51.3301L153.365 58.5573L159.355 59.2223L155.433 19.9654L146.775 18.8482ZM149.7 44.952L151.132 29.8694L152.543 45.2012L149.7 44.952ZM179.289 35.2598V31.4387C179.233 25.1158 178.144 23.6109 171.24 22.2542C164.303 21.0913 163.906 22.0051 163.842 28.6692V34.0139C163.897 37.3368 164.516 39.2013 166.643 41.0844L171.332 44.8412C172.237 45.635 172.79 46.5301 172.809 47.73V53.9237C172.809 54.8561 172.052 54.9852 171.498 54.9483C170.963 54.8378 170.317 54.3762 170.317 53.5085L170.335 47.9703L163.842 47.1856V52.816C163.906 59.0376 164.626 59.9696 171.498 61.022C178.476 61.9266 179.233 61.5945 179.289 55.2255V47.3148C179.233 44.7582 178.439 42.6351 176.446 40.8997L171.517 36.9216C170.705 36.1827 170.353 35.5367 170.335 34.1983V29.7311C170.335 28.7987 170.963 28.5679 171.498 28.6235C172.052 28.7526 172.809 29.5095 172.809 30.4971V34.3091L179.289 35.2598ZM111.32 157.448H101.102L100.576 148.642L94.456 157.448H84.2842L90.9765 163.3L85.7518 172.42L95.5088 166.771L102.136 172.327L101.48 163.226L111.32 157.448Z" fill="white"/>
<path d="M144.587 99.1246L134.045 101.487C132.218 102.743 129.071 105.447 130.843 107.681L141.107 118.527C139.151 122.708 143.055 125.265 143.055 125.265C142.537 128.228 138.679 132.271 138.679 132.271L134.554 132.521L132.781 135.372L121.511 136.25L119.12 135.133C110.176 152.629 116.628 166.013 127.326 173.545C159.854 151.004 181.227 121.361 189.424 75.4299C159.402 77.11 159.152 95.6447 144.587 99.1246ZM59.0854 101.903C34.6708 98.8199 33.5818 75.4947 10.0254 75.1161C14.2716 99.1429 22.1176 118.721 33.2679 135.16C46.3841 119.173 60.4604 108.604 68.9989 103.02C65.4174 102.651 61.9466 102.272 59.0854 101.903ZM122.323 90.8912C120.163 87.5774 114.883 87.1158 115.769 84.5683C113.351 85.7868 113.683 87.9373 115.197 89.2941C117.071 90.9834 113.776 92.3679 113.102 90.3926C112.271 91.3524 112.271 92.9312 114.089 94.491C115.898 96.0603 119.868 96.0877 121.391 100.463C121.16 97.4448 125.065 95.1096 122.323 90.8912Z" fill="#E81F3E"/>
<path d="M142.676 92.4785C137.101 93.0232 129.514 93.3923 129.514 93.3923C130.843 94.9798 131.342 96.7891 131.342 96.7891C131.342 96.7891 125.295 101.534 130.843 107.681C129.071 105.447 132.218 102.743 134.045 101.487L144.587 99.1244C159.152 95.6445 159.402 77.1098 189.424 75.43C157.417 73.9346 156.236 91.1404 142.676 92.4785ZM92.841 90.6232C94.1791 94.5463 91.7608 95.8292 91.7608 95.8292L62.7221 94.2969C36.1845 91.8508 37.0155 71.0086 10.0254 75.1162C33.5818 75.4944 34.6708 98.8196 59.0854 101.903C61.9466 102.272 65.4174 102.651 68.9989 103.02C71.1769 103.241 73.4017 103.463 75.5526 103.675C70.1248 107.755 68.196 113.543 68.196 113.543C85.1427 110.275 91.3734 105.291 93.3114 103.223C99.0161 97.6659 94.2716 91.0665 92.841 90.6232ZM106.899 98.2384C106.899 98.2384 103.318 100.232 101.121 104.469C101.121 104.469 111.69 103.564 119.609 107.857C116.046 101.155 112.604 99.7612 106.899 98.2384ZM157.689 163.65H159.554V169.299H160.237V163.65H162.212V162.967H157.689V163.65ZM167.451 162.967L165.822 168.117L164.197 162.967H163.108V169.299H163.791V163.927L165.489 169.299H166.158L167.857 163.927V169.299H168.54V162.967H167.451Z" fill="#2A4076"/>
<path d="M93.8479 67.0126H88.3927C85.4301 67.0126 83.9255 67.2709 83.9255 69.2926V70.0122C83.9255 71.4893 84.5807 72.3014 88.2727 72.3014H91.8451C93.3497 72.3014 94.0695 72.0892 94.6973 71.674V72.6522C94.6973 73.2985 94.1434 73.6402 92.8236 73.6402H83.833V75.4121H92.8419C96.9403 75.4121 98.3154 74.6831 98.3154 72.1909V69.8926C98.3154 67.7603 96.8387 67.0126 93.8479 67.0126ZM92.7311 70.6033H89.3895C87.8484 70.6033 87.4511 70.3908 87.4511 69.6987C87.4511 68.9971 87.8663 68.7849 89.3248 68.7849H92.8141C94.2817 68.7849 94.6973 68.9971 94.6973 69.6987C94.6973 70.3908 94.3004 70.6029 92.7311 70.6029V70.6033ZM111.331 70.123H107.758C106.254 70.123 105.534 70.3355 104.907 70.7416V69.7722C104.907 69.1262 105.461 68.7849 106.771 68.7849H115.346V67.0126H106.753C102.663 67.0126 101.278 67.7417 101.278 70.2339V72.523C101.278 74.6644 102.774 75.4121 105.756 75.4121H111.201C114.174 75.4121 115.678 75.1447 115.678 73.1229V72.4122C115.678 70.9263 115.023 70.123 111.331 70.123ZM110.269 73.6398H106.789C105.321 73.6398 104.907 73.4181 104.907 72.7169C104.907 72.0248 105.313 71.8218 106.854 71.8218H110.205C111.755 71.8218 112.152 72.0248 112.152 72.7169C112.152 73.4185 111.737 73.6398 110.269 73.6398Z" fill="#CCCBCC"/>
</g>
<defs>
<clipPath id="clip0_48_283">
<rect width="200" height="200" fill="white"/>
</clipPath>
</defs>
</svg>
