<svg width="200" height="200" viewBox="0 0 200 200" fill="none" xmlns="http://www.w3.org/2000/svg">
<g clip-path="url(#clip0_48_143)">
<path d="M181.133 49.7906L100.153 0.189867C100.033 0.114307 99.8938 0.0742188 99.7518 0.0742188C99.6097 0.0742187 99.4705 0.114307 99.3502 0.189867L18.3706 49.7908C18.1546 49.914 18 50.161 18 50.4387V149.671C18 149.949 18.1236 150.196 18.3708 150.319L99.3502 199.951C99.4738 200.013 99.5974 200.074 99.7519 200.074C99.9063 200.074 100.03 200.044 100.154 199.951L181.133 150.35C181.349 150.196 181.504 149.98 181.504 149.702V50.4387C181.504 50.1918 181.349 49.9449 181.133 49.7906Z" fill="#101820"/>
<path d="M99.7517 194.889L22.418 147.511V52.6304L99.7517 5.25195L177.085 52.6304V147.48L99.7517 194.889ZM25.3532 145.751L99.7517 191.339L174.15 145.751V54.3896L99.7517 8.83259L25.3532 54.4206V145.751Z" fill="#FF6B00"/>
<path d="M131.483 39.8824L129.444 37.8145L124.964 42.2592V48.9878H127.899V43.4629L131.483 39.8824ZM122.461 48.9878V42.2592L118.012 37.8145L115.942 39.8824L119.557 43.4629V48.9878H122.461ZM75.9312 51.4878H59.9269L54.3036 45.8088L52.2646 47.8459L58.7837 54.3894H75.9312V51.4878ZM130.371 96.5205V99.4218H137.446L149.032 87.8782V62.9699L137.508 51.4878H89.2785V54.3892H136.303L146.097 64.1736V86.6435L136.241 96.5205H130.371ZM58.7837 96.5205L52.2646 102.971L54.3036 105.101L60.0196 99.4218H117.054V96.5205H58.7837ZM58.7837 56.8893H61.688V94.0203H58.7837V56.8893ZM67.1256 59.7905H75.9312V56.8893H64.2214V94.0203H117.054V91.1193H67.1256V59.7905Z" fill="#FF6B00"/>
<path d="M89.2783 56.8887V59.7901H134.078L140.69 66.3953V84.3898L133.985 91.1185H130.37V94.0197H135.19L143.594 85.5935V65.1914L135.283 56.8887H89.2783ZM74.8188 111.058L76.8889 113.095L81.3379 108.65V101.921H78.4335V107.446L74.8188 111.058ZM83.8404 101.921V108.65L88.3204 113.095L90.3596 111.057L86.7756 107.446V101.921H83.8404Z" fill="#FF6B00"/>
<path d="M83.8406 48.9878V74.2047H122.461V62.2907H119.557V71.3034H86.7761V43.4629L90.3601 39.8824L88.3209 37.8145L83.8409 42.2592L83.8406 48.9878ZM122.461 108.651V76.7049H83.8409V88.6188H86.7761V79.6061H119.557V107.447L115.942 111.058L118.012 113.095L122.461 108.651ZM124.964 79.6371V108.62L129.413 113.064L131.483 110.996L127.868 107.416V80.8408L133.275 75.4702L127.899 70.0997V62.2905H124.964V71.3032L129.135 75.47L124.964 79.6371ZM81.3381 71.3651V42.2592L76.8891 37.8145L74.8189 39.8824L78.4338 43.4629V70.1614L73.1196 75.4702L78.4338 80.7482V88.6188H81.3381V79.5445L77.2597 75.4702L81.3381 71.3651Z" fill="#FF6B00"/>
<path d="M101.698 169.981L106.703 159.857L94.6846 172.944H101.884L96.9093 183.068L108.897 169.981H101.698Z" fill="#FF6B00"/>
<path d="M48.3706 131.275V139.917H51.893V120.102H48.3706V127.972H41.2028V120.102H37.6807V139.917H41.2026V131.275H48.3706ZM59.9568 120.102L56.62 123.435V136.584L59.9568 139.917H67.99L71.3267 136.584V123.435L67.99 120.102H59.9568ZM61.6561 136.645L60.1423 135.133V124.916L61.6561 123.404H66.2906L67.8045 124.916V135.133L66.2908 136.645H61.6561ZM79.3599 139.917H87.0221L90.3589 136.584V120.102H87.0221V135.133L85.5083 136.645H81.0589L79.5452 135.133V120.102H76.023V136.584L79.3599 139.917ZM105.591 120.102H98.0211L94.6843 123.435V128.281L98.0211 131.614H104.015L105.529 133.127V135.133L104.015 136.645H99.1026L96.5691 134.207L94.0972 136.676L97.4034 139.917H105.714L109.051 136.584V131.645L105.714 128.312H99.7206L98.2066 126.799V124.886L99.7204 123.404H103.923L106.178 125.595L108.65 123.126L105.591 120.102ZM111.029 120.102V123.404H116.59V139.917H120.112V123.404H125.704V120.102H111.029ZM131.482 120.102L128.145 123.435V136.584L131.482 139.917H139.484L142.821 136.584V123.435L139.484 120.102H131.482ZM133.15 136.645L131.636 135.133V124.916L133.15 123.404H137.785L139.299 124.916V135.133L137.785 136.645H133.15ZM151.07 126.738L157.867 139.917H161.822V120.102H158.485V133.59L151.688 120.102H147.61V139.917H150.947V126.429L151.07 126.738ZM63.2936 144.825L64.8693 146.399V153.22L63.2936 154.794H56.6819V144.825L63.2936 144.825ZM62.1505 147.325L61.718 146.893H59.4005V152.695H61.7178L62.1503 152.263L62.1505 147.325ZM71.0178 148.467L71.2341 149.578H71.2958L71.543 148.467L73.0261 144.825H75.5286L72.5007 151.523V154.794H69.5038V151.523L66.5069 144.825H69.5965L71.0178 148.467ZM81.6771 154.763L79.8851 149.701L79.6379 148.498H79.5143V154.763H77.1971V144.825H80.75L82.542 149.887L82.7892 151.09H82.9128V144.825H85.2301V154.763H81.6771ZM92.8614 152.881H90.4206L89.9573 154.763H87.362L90.1117 144.825H93.325L96.291 154.763H93.2941L92.8614 152.881ZM90.7914 150.874H92.5524L91.9654 148.528L91.7801 147.294H91.6257L91.4094 148.528L90.7914 150.874ZM102.161 144.825L103.582 150.041L103.861 151.306H103.953L104.2 150.041L105.622 144.825H109.237V154.763H106.518V148.776H106.394L106.147 150.072L104.726 154.763H102.656L101.172 150.072L100.925 148.775H100.802V154.763H98.4847V144.825H102.161ZM112.048 146.306L113.624 144.732H118.691L120.267 146.306V153.251L118.691 154.825H113.624L112.048 153.251V146.306ZM117.115 146.831H115.2L114.767 147.263V152.356L115.2 152.788H117.115L117.548 152.356V147.263L117.115 146.831ZM126.199 144.825H132.934V146.985H128.918V149.269H132.44V151.306H128.918V154.763H126.199V144.825ZM135.035 153.282V146.337L136.611 144.763H141.585L143.037 146.245L141.091 147.911L140.04 146.831H138.187L137.754 147.263V152.356L138.187 152.788H140.102L141.338 151.615L143.161 153.374L141.647 154.856H136.58L135.035 153.282Z" fill="white"/>
</g>
<defs>
<clipPath id="clip0_48_143">
<rect width="200" height="200" fill="white"/>
</clipPath>
</defs>
</svg>
