<svg width="200" height="200" viewBox="0 0 200 200" fill="none" xmlns="http://www.w3.org/2000/svg">
<g clip-path="url(#clip0_48_203)">
<path d="M97.272 0.0648976C96.68 0.0809039 95.168 0.160935 93.912 0.232963C92.656 0.304991 90.8 0.449048 89.792 0.553088C88.776 0.657129 86.928 0.881216 85.672 1.06529C84.416 1.24136 82.104 1.64151 80.536 1.95363C78.96 2.26576 76.48 2.82598 75.016 3.20212C73.552 3.57827 71.24 4.24253 69.88 4.6747C68.52 5.09886 66.52 5.77913 65.44 6.18729C64.36 6.58744 62.648 7.25971 61.64 7.68387C60.624 8.10003 58.856 8.88434 57.704 9.42055C56.552 9.95676 54.896 10.7651 54.024 11.2213C53.152 11.6854 51.584 12.5418 50.536 13.142C49.496 13.7342 47.896 14.6946 46.984 15.2628C46.08 15.8311 44.68 16.7434 43.88 17.2876C43.08 17.8238 41.336 19.0883 40.016 20.0807C38.688 21.0731 36.976 22.4096 36.208 23.0499C35.44 23.6901 34.384 24.5945 33.864 25.0587C33.344 25.5228 32.112 26.6513 31.136 27.5716C30.16 28.484 28.616 30.0206 27.704 30.989C26.792 31.9573 25.792 33.0378 25.48 33.3899C25.176 33.734 24.888 34.0462 24.856 34.0862C24.816 34.1182 24.184 34.8625 23.448 35.7348C22.712 36.6072 21.544 38.0557 20.84 38.9681C20.144 39.8724 19.176 41.1529 18.704 41.8172C18.224 42.4815 17.136 44.0821 16.288 45.3706C15.44 46.6591 14.168 48.7159 13.456 49.9324C12.744 51.1568 11.544 53.3817 10.784 54.8783C10.024 56.3749 9.024 58.4637 8.56 59.5041C8.096 60.5525 7.36 62.3212 6.912 63.4336C6.472 64.5541 5.76 66.4908 5.336 67.7473C4.904 69.0038 4.272 70.9966 3.928 72.1811C3.592 73.3735 3.112 75.1422 2.864 76.1186C2.624 77.095 2.192 79.0317 1.912 80.4243C1.632 81.8248 1.232 84.1617 1.024 85.6263C0.816 87.0909 0.552 89.1717 0.448 90.2521C0.344 91.3325 0.2 93.1893 0.128 94.3737C0.056 95.5582 0 98.0952 0 100.016C0 101.937 0.056 104.474 0.128 105.658C0.2 106.843 0.344 108.699 0.448 109.78C0.552 110.86 0.816 112.941 1.024 114.406C1.232 115.87 1.632 118.207 1.912 119.608C2.192 121 2.624 122.937 2.864 123.913C3.112 124.89 3.592 126.658 3.928 127.851C4.272 129.035 4.904 131.028 5.336 132.285C5.76 133.541 6.472 135.478 6.912 136.598C7.36 137.711 8.096 139.479 8.56 140.528C9.024 141.568 10.024 143.657 10.784 145.154C11.544 146.65 12.744 148.875 13.456 150.099C14.168 151.316 15.44 153.373 16.288 154.661C17.136 155.95 18.224 157.55 18.704 158.215C19.176 158.879 20.144 160.159 20.84 161.064C21.544 161.976 22.72 163.425 23.448 164.297C24.184 165.169 25.016 166.138 25.296 166.45C25.576 166.762 26.208 167.442 26.688 167.97C27.176 168.499 27.92 169.291 28.344 169.731C28.76 170.179 29.96 171.348 31.008 172.332C31.9519 173.221 32.9039 174.102 33.864 174.973C34.384 175.437 35.44 176.342 36.208 176.982C36.976 177.622 38.688 178.959 40.016 179.951C41.336 180.952 43.08 182.208 43.88 182.752C44.68 183.288 46.08 184.201 46.984 184.769C47.896 185.337 49.496 186.298 50.536 186.89C51.584 187.49 53.208 188.378 54.152 188.875C55.096 189.363 56.976 190.275 58.336 190.899C59.696 191.524 61.752 192.404 62.904 192.868C64.056 193.324 65.656 193.933 66.456 194.221C67.256 194.509 68.912 195.061 70.136 195.445C71.352 195.829 73.552 196.454 75.016 196.83C76.48 197.206 78.824 197.742 80.216 198.022C81.608 198.302 83.664 198.67 84.784 198.839C85.896 199.007 87.608 199.239 88.584 199.343C89.56 199.455 91.016 199.599 91.816 199.671C92.624 199.743 94.76 199.855 96.576 199.927C98.864 200.023 100.92 200.023 103.296 199.935C105.184 199.863 107.664 199.711 108.816 199.607C109.968 199.503 111.624 199.327 112.496 199.223C113.36 199.111 115.216 198.83 116.616 198.598C118.008 198.366 120.32 197.918 121.752 197.598C123.184 197.278 125.464 196.71 126.824 196.334C128.184 195.949 130.352 195.285 131.64 194.861C132.936 194.429 135.048 193.652 136.336 193.148C137.624 192.636 139.448 191.876 140.392 191.46C141.336 191.043 143.216 190.147 144.576 189.467C145.936 188.787 147.568 187.946 148.192 187.594C148.824 187.242 150.104 186.498 151.048 185.945C151.984 185.385 153.816 184.233 155.104 183.376C156.392 182.528 158.28 181.216 159.288 180.463C160.304 179.711 161.84 178.519 162.712 177.814C163.584 177.11 164.984 175.942 165.824 175.205C166.656 174.469 167.912 173.333 168.6 172.668C169.296 172.004 170.184 171.148 170.568 170.764C170.96 170.379 171.792 169.523 172.416 168.859C173.048 168.203 174.048 167.114 174.648 166.458C175.24 165.794 176.272 164.593 176.928 163.793C177.592 162.993 178.536 161.824 179.032 161.192C179.52 160.568 180.384 159.423 180.936 158.655C181.496 157.887 182.52 156.406 183.216 155.358C183.92 154.317 185.088 152.46 185.824 151.244C186.552 150.019 187.632 148.139 188.208 147.058C188.792 145.978 189.656 144.265 190.144 143.249C190.624 142.24 191.376 140.584 191.816 139.575C192.248 138.567 192.928 136.91 193.312 135.902C193.704 134.886 194.288 133.293 194.608 132.349C194.928 131.404 195.44 129.812 195.752 128.795C196.056 127.787 196.568 125.962 196.88 124.738C197.192 123.521 197.672 121.408 197.952 120.048C198.232 118.687 198.632 116.438 198.84 115.038C199.056 113.645 199.344 111.332 199.488 109.908C199.624 108.475 199.8 106.194 199.872 104.834C199.944 103.473 200 101.304 200 100.016C200 98.7274 199.944 96.5586 199.872 95.198C199.8 93.8375 199.624 91.5566 199.48 90.1241C199.344 88.6995 199.08 86.5547 198.912 85.3702C198.736 84.1857 198.392 82.185 198.144 80.9365C197.904 79.68 197.448 77.6232 197.144 76.3667C196.84 75.1102 196.384 73.3735 196.128 72.5012C195.872 71.6288 195.408 70.1162 195.096 69.1399C194.776 68.1635 194.144 66.3708 193.696 65.1463C193.24 63.9298 192.456 61.9611 191.944 60.7766C191.44 59.5921 190.624 57.7914 190.144 56.783C189.664 55.7666 188.792 54.054 188.208 52.9736C187.632 51.8931 186.552 50.0124 185.824 48.7879C185.088 47.5714 183.92 45.7147 183.216 44.6743C182.52 43.6259 181.496 42.1453 180.936 41.377C180.384 40.6087 179.52 39.4643 179.032 38.84C178.536 38.2078 177.592 37.0393 176.928 36.239C176.272 35.4387 175.24 34.2382 174.648 33.574C174.048 32.9177 173.048 31.8293 172.416 31.165C171.792 30.5088 170.936 29.6284 170.512 29.2203C170.096 28.8121 169.208 27.9558 168.544 27.3155C167.88 26.6833 166.656 25.5629 165.824 24.8266C164.984 24.0903 163.584 22.9218 162.712 22.2175C161.84 21.5133 160.304 20.3208 159.288 19.5685C158.28 18.8162 156.392 17.5037 155.104 16.6554C153.816 15.799 151.984 14.6466 151.048 14.0864C150.104 13.5342 148.824 12.7899 148.192 12.4377C147.568 12.0856 145.992 11.2773 144.704 10.629C143.416 9.98077 141.56 9.10043 140.584 8.66025C139.608 8.22008 137.72 7.43578 136.4 6.91557C135.072 6.38737 132.936 5.60306 131.64 5.17089C130.043 4.6517 128.438 4.16077 126.824 3.69832C125.464 3.32217 123.208 2.76195 121.816 2.44983C120.416 2.13771 118.28 1.71354 117.056 1.50546C115.84 1.29738 113.952 1.00927 112.872 0.86521C111.792 0.729157 109.968 0.529079 108.816 0.425038C107.664 0.320998 105.264 0.176941 103.488 0.104913C101.712 0.0408883 99.824 -0.00713048 99.304 0.000872649C98.776 0.0168789 97.864 0.0408883 97.272 0.0648976Z" fill="#F6B4CD"/>
<path d="M95.624 3.78694C94.3999 3.84296 92.408 3.98701 91.184 4.09906C89.968 4.2111 87.784 4.4672 86.336 4.67528C84.888 4.88336 82.544 5.27552 81.1359 5.56363C79.7199 5.84374 77.5359 6.33193 76.288 6.65206C75.032 6.97218 72.92 7.56441 71.5919 7.97257C70.264 8.38073 68.184 9.077 66.9599 9.52518C65.7439 9.97335 63.688 10.7897 62.4 11.3339C61.104 11.8781 58.968 12.8625 57.64 13.5187C56.312 14.175 54.6 15.0553 53.84 15.4715C53.072 15.8957 51.672 16.696 50.728 17.2642C49.784 17.8244 47.904 19.0249 46.544 19.9292C45.184 20.8416 43.184 22.2501 42.104 23.0665C41.024 23.8828 39.368 25.1953 38.424 25.9796C37.488 26.7639 35.92 28.1324 34.936 29.0208C33.96 29.9091 32.336 31.4858 31.32 32.5182C30.312 33.5506 28.992 34.9431 28.392 35.6074C27.792 36.2716 26.664 37.5841 25.88 38.5205C25.088 39.4649 23.808 41.0895 23.024 42.1379C22.24 43.1783 20.936 45.011 20.136 46.1955C19.328 47.38 18.104 49.2927 17.416 50.4372C16.72 51.5896 15.752 53.2783 15.256 54.1826C14.768 55.087 14.08 56.3995 13.728 57.0958C13.376 57.792 12.68 59.2806 12.176 60.393C11.664 61.5135 10.864 63.3942 10.4 64.5787C9.92795 65.7631 9.21595 67.6759 8.82395 68.8283C8.42395 69.9728 7.85595 71.7735 7.54395 72.8219C7.23995 73.8623 6.75995 75.631 6.47995 76.7514C6.20795 77.8639 5.83195 79.4645 5.65595 80.2968C5.48795 81.1371 5.19195 82.7057 5.00795 83.7862C4.82395 84.8666 4.56795 86.5793 4.43995 87.5877C4.30395 88.6041 4.09595 90.4528 3.97595 91.7093C3.79195 93.542 3.75195 95.1986 3.75195 100.017C3.75195 104.834 3.79195 106.491 3.97595 108.324C4.09595 109.58 4.30395 111.429 4.43995 112.445C4.56795 113.454 4.82395 115.166 5.00795 116.247C5.19195 117.327 5.48795 118.896 5.65595 119.736C5.83195 120.569 6.20795 122.169 6.47995 123.282C6.75995 124.402 7.23995 126.171 7.54395 127.211C7.85595 128.26 8.42395 130.06 8.82395 131.205C9.21595 132.357 9.91195 134.238 10.368 135.39C10.824 136.543 11.624 138.424 12.144 139.576C12.664 140.728 13.376 142.241 13.728 142.937C14.08 143.634 14.768 144.946 15.256 145.85C15.752 146.755 16.72 148.443 17.416 149.596C18.104 150.74 19.328 152.653 20.136 153.838C20.936 155.022 22.24 156.855 23.024 157.895C23.808 158.944 25.088 160.568 25.88 161.513C26.664 162.449 27.792 163.761 28.392 164.426C28.992 165.09 30.312 166.482 31.32 167.515C32.336 168.547 33.96 170.124 34.936 171.012C35.92 171.901 37.488 173.269 38.424 174.061C39.368 174.846 41.024 176.15 42.104 176.967C43.184 177.783 45.184 179.191 46.544 180.096C47.904 181.008 49.784 182.209 50.728 182.769C51.672 183.337 53.072 184.137 53.84 184.562C54.6 184.978 56.312 185.858 57.64 186.514C58.968 187.171 61.104 188.155 62.4 188.699C63.688 189.243 65.7439 190.06 66.9599 190.508C68.184 190.956 70.264 191.652 71.5919 192.06C72.92 192.469 75.144 193.093 76.5359 193.437C77.936 193.789 80.104 194.277 81.3599 194.525C82.616 194.774 84.84 195.142 86.3039 195.358C87.768 195.566 89.9119 195.822 91.056 195.926C92.208 196.03 94.5519 196.182 96.256 196.262C97.9679 196.342 100.536 196.366 101.968 196.318C103.392 196.278 105.424 196.182 106.464 196.118C107.512 196.046 109.168 195.902 110.144 195.798C111.12 195.694 112.752 195.494 113.76 195.35C114.768 195.206 116.512 194.918 117.632 194.709C118.744 194.501 120.512 194.133 121.56 193.893C122.608 193.653 124.32 193.229 125.368 192.941C126.408 192.661 128.408 192.052 129.8 191.596C131.2 191.14 133.312 190.396 134.496 189.94C135.68 189.491 137.704 188.643 139 188.075C140.288 187.499 142 186.698 142.8 186.298C143.608 185.898 144.944 185.194 145.784 184.746C146.624 184.289 148.192 183.385 149.272 182.745C150.352 182.105 152.232 180.904 153.456 180.088C154.68 179.271 156.648 177.871 157.832 176.983C159.016 176.086 160.728 174.734 161.632 173.981C162.536 173.221 163.936 172.013 164.744 171.284C165.544 170.556 167.168 168.987 168.36 167.795C169.544 166.595 171.168 164.882 171.96 163.977C172.752 163.073 173.92 161.705 174.552 160.936C175.176 160.176 176.416 158.575 177.296 157.391C178.184 156.206 179.36 154.55 179.92 153.709C180.48 152.877 181.456 151.365 182.08 150.356C182.704 149.34 183.648 147.747 184.176 146.803C184.696 145.858 185.6 144.146 186.176 143.001C186.752 141.849 187.584 140.112 188.016 139.136C188.456 138.159 189.192 136.391 189.664 135.198C190.136 134.014 190.936 131.789 191.448 130.26C191.96 128.724 192.664 126.387 193.024 125.058C193.376 123.73 193.864 121.705 194.112 120.561C194.36 119.408 194.76 117.327 194.992 115.927C195.224 114.534 195.536 112.397 195.672 111.173C195.808 109.956 196 108.1 196.088 107.051C196.184 105.907 196.248 103.122 196.248 100.017C196.248 96.9113 196.184 94.1262 196.088 92.9818C196 91.9334 195.808 90.0766 195.672 88.8602C195.528 87.6357 195.248 85.6429 195.048 84.4184C194.848 83.202 194.512 81.3452 194.296 80.2968C194.08 79.2564 193.616 77.3036 193.272 75.9591C192.928 74.6146 192.328 72.5018 191.936 71.2693C191.544 70.0288 190.88 68.076 190.464 66.9236C190.04 65.7711 189.232 63.7463 188.672 62.4258C188.104 61.0973 187.096 58.9045 186.424 57.5439C185.752 56.1834 184.752 54.2707 184.208 53.2943C183.664 52.3179 182.704 50.6933 182.08 49.6769C181.456 48.6685 180.48 47.1559 179.92 46.3235C179.36 45.4832 178.184 43.8266 177.296 42.6421C176.416 41.4576 175.176 39.857 174.552 39.0967C173.92 38.3284 172.752 36.9599 171.96 36.0555C171.168 35.1512 169.544 33.4385 168.36 32.238C167.168 31.0456 165.544 29.477 164.744 28.7487C163.936 28.0204 162.536 26.8119 161.632 26.0516C160.728 25.2993 159.104 24.0108 158.024 23.1945C156.944 22.3782 155.344 21.2257 154.472 20.6255C153.6 20.0253 152.256 19.1369 151.488 18.6487C150.72 18.1605 149.24 17.2642 148.192 16.656C147.144 16.0397 145.32 15.0393 144.136 14.4231C142.952 13.8068 140.976 12.8545 139.76 12.3023C138.536 11.742 136.6 10.9177 135.448 10.4615C134.296 10.0054 132.328 9.27708 131.072 8.85292C129.816 8.42875 127.904 7.82051 126.824 7.50839C125.744 7.19627 124.088 6.74009 123.144 6.508C122.2 6.26791 120.288 5.85174 118.896 5.57163C117.504 5.29152 115.592 4.94739 114.648 4.81134C113.704 4.66728 112.168 4.4592 111.224 4.34716C110.28 4.23511 108.456 4.06705 107.168 3.97101C105.872 3.87497 103.248 3.76293 101.328 3.73091C99.416 3.6989 96.848 3.72291 95.624 3.78694Z" fill="#000100"/>
<path d="M98.8638 10.8355C98.7998 10.8835 98.7598 13.3085 98.7758 16.2296L98.7918 21.5277C100.744 21.5837 101.256 21.5437 101.288 21.4637C101.312 21.3996 101.32 18.9747 101.304 16.0776L101.272 10.8195C99.4878 10.7635 98.9198 10.7875 98.8638 10.8355ZM86.2718 11.7159C85.9038 11.8119 85.3598 12.02 85.0638 12.164C84.7678 12.3161 84.2158 12.7403 83.8318 13.1004C83.4078 13.5006 82.9678 14.0848 82.7278 14.573C82.5038 15.0132 82.2558 15.7494 82.1758 16.2056C82.0638 16.8379 82.0638 17.238 82.1758 17.9183C82.2558 18.4065 82.5038 19.1668 82.7278 19.615C82.9678 20.0871 83.4158 20.6954 83.8318 21.0875C84.2158 21.4557 84.8718 21.9118 85.2878 22.1039C85.7038 22.304 86.3918 22.5201 86.8078 22.5921C87.3358 22.6801 87.8478 22.6801 88.4558 22.5921C88.9438 22.5201 89.6878 22.304 90.1038 22.1119C90.5278 21.9199 91.1198 21.5597 91.4318 21.2956C91.7358 21.0395 92.1598 20.5753 92.3678 20.2632C92.5838 19.9511 92.8318 19.5029 92.9198 19.2788L93.0878 18.8707C90.9998 18.1664 90.7278 18.1184 90.6878 18.2544C90.6558 18.3505 90.4558 18.6786 90.2398 18.9907C89.9918 19.3589 89.6318 19.663 89.2238 19.8711C88.8478 20.0631 88.2958 20.2072 87.8878 20.2392C87.4158 20.2712 87.0078 20.2152 86.6238 20.0551C86.3038 19.9271 85.8878 19.679 85.6798 19.5029C85.4798 19.3268 85.1838 18.9587 85.0158 18.6786C84.8398 18.3745 84.6798 17.8623 84.6318 17.4061C84.5678 16.8219 84.5998 16.5017 84.7838 16.0135C84.9118 15.6694 85.2238 15.1572 85.4718 14.8851C85.7198 14.613 86.1518 14.2849 86.4318 14.1568C86.7438 14.0208 87.2318 13.9247 87.6958 13.9247C88.1678 13.9247 88.6558 14.0208 88.9678 14.1568C89.2478 14.2849 89.6718 14.573 89.9198 14.7971L90.3598 15.2052C90.9518 14.7651 91.3598 14.4609 91.6558 14.2449C91.9518 14.0368 92.1918 13.8047 92.1998 13.7327C92.2078 13.6606 91.9358 13.3405 91.5998 13.0204C91.2718 12.7083 90.7518 12.3161 90.4558 12.172C90.1598 12.02 89.5918 11.8039 89.1918 11.6999C88.7838 11.5958 88.1198 11.5158 87.6958 11.5238C87.2798 11.5238 86.6398 11.6118 86.2718 11.7159ZM111.416 11.6919C110.992 11.7799 110.344 12.02 109.96 12.2201C109.584 12.4281 109.016 12.8523 108.696 13.1644C108.376 13.4846 107.968 13.9968 107.784 14.3089C107.6 14.621 107.344 15.2132 107.224 15.6374C107.072 16.1736 107.024 16.7018 107.056 17.4701C107.096 18.3985 107.168 18.6866 107.568 19.5029C107.888 20.1592 108.256 20.6634 108.744 21.1195C109.128 21.4877 109.832 21.9679 110.304 22.192C111.008 22.5201 111.36 22.6081 112.24 22.6481C113.016 22.6882 113.528 22.6401 114.08 22.4801C114.496 22.36 115.096 22.1119 115.408 21.9279C115.72 21.7438 116.232 21.3356 116.552 21.0235C116.864 20.7114 117.312 20.0791 117.528 19.631C117.752 19.1748 118 18.4305 118.072 17.9823C118.176 17.3901 118.176 16.9179 118.08 16.3337C118.008 15.8775 117.776 15.1492 117.568 14.717C117.352 14.2769 116.888 13.6206 116.52 13.2445C116.152 12.8763 115.536 12.4121 115.152 12.2121C114.768 12.02 114.088 11.7879 113.632 11.6919C113.184 11.5958 112.664 11.5238 112.496 11.5238C112.32 11.5318 111.832 11.6038 111.416 11.6919Z" fill="white"/>
<path d="M111.832 14.0384C111.648 14.0944 111.328 14.2305 111.136 14.3345C110.944 14.4386 110.568 14.7667 110.304 15.0468C109.992 15.3909 109.76 15.8231 109.624 16.3033C109.488 16.7915 109.448 17.2156 109.512 17.5998C109.56 17.9119 109.704 18.3681 109.832 18.6162C109.96 18.8563 110.248 19.2404 110.48 19.4645C110.72 19.6886 111.12 19.9607 111.384 20.0648C111.64 20.1768 112.168 20.2648 112.552 20.2648C112.936 20.2648 113.44 20.1848 113.664 20.0968C113.888 20.0007 114.296 19.7286 114.568 19.4965C114.84 19.2564 115.176 18.8323 115.312 18.5522C115.456 18.2721 115.6 17.7599 115.632 17.4077C115.676 16.9808 115.626 16.5495 115.488 16.1432C115.368 15.7911 115.128 15.3269 114.96 15.0948C114.792 14.8707 114.408 14.5426 114.112 14.3745C113.792 14.1905 113.28 14.0384 112.872 13.9984C112.488 13.9584 112.024 13.9824 111.832 14.0384Z" fill="#000100"/>
<path d="M123.496 19.3921C122.496 22.1692 121.712 24.4661 121.752 24.4901C121.784 24.5141 122.312 24.7062 122.92 24.9303L124.032 25.3385C124.4 24.3061 124.872 22.9615 125.32 21.689C125.76 20.4165 126.176 19.3922 126.232 19.4082C126.296 19.4242 126.928 21.1528 127.632 23.2417L128.912 27.0431C130.44 27.5873 130.904 27.6994 130.936 27.6514C130.96 27.5954 131.768 25.3545 132.72 22.6734C133.672 19.9844 134.464 17.7435 134.472 17.6795C134.488 17.6235 133.992 17.3994 133.376 17.1753C132.6 16.8952 132.232 16.8231 132.176 16.9192C132.128 16.9992 131.632 18.3517 131.072 19.9284C130.512 21.505 130.032 22.8015 129.992 22.8015C129.96 22.8015 129.368 21.1048 128.68 19.024C127.992 16.9512 127.36 15.1825 127.28 15.0945C127.208 14.9984 126.728 14.7904 126.216 14.6303L125.296 14.3262M69.7204 16.0308C69.0164 16.2789 68.8644 16.383 68.8564 16.6151C68.8564 16.7751 68.6964 19.4002 68.5124 22.4493C68.3204 25.4985 68.2084 27.9955 68.2644 27.9955C68.3124 27.9955 68.8724 27.8114 69.5044 27.5873L70.6484 27.1712C70.6484 25.5065 70.6884 24.9543 70.7364 24.8663C70.7924 24.7863 71.7444 24.3941 72.8564 23.9939L74.8884 23.2657L76.5364 25.0824C78.3524 24.4421 78.8724 24.218 78.8484 24.17C78.8324 24.13 77.0644 22.2012 74.9204 19.8963C72.4804 17.2713 70.9364 15.7027 70.8004 15.7107C70.6804 15.7187 70.1924 15.8628 69.7204 16.0308Z" fill="white"/>
<path d="M70.9765 19.881C70.9285 20.3371 70.8965 21.0894 70.8965 21.5616V22.418C72.6165 21.8017 73.1445 21.6016 73.1765 21.5776C73.2085 21.5536 73.0885 21.3535 72.8965 21.1214C72.7045 20.8974 72.2085 20.3371 71.8005 19.881L71.0565 19.0566" fill="#000100"/>
<path d="M57.0956 21.6654L56.0556 22.2896C58.6156 26.5633 59.3436 27.8198 59.3276 27.8278C59.3036 27.8358 57.5596 27.1955 55.4556 26.4032L51.6156 24.9547C50.2396 25.787 49.8556 26.0671 49.8716 26.1151C49.8876 26.1631 51.1276 28.2279 52.6316 30.7089C54.1276 33.1899 55.3996 35.2227 55.4556 35.2227C55.5036 35.2227 55.9756 34.9666 56.4956 34.6544C57.0236 34.3423 57.4476 34.0542 57.4476 34.0222C57.4476 33.9822 56.7356 32.7577 55.8636 31.2931C54.9916 29.8286 54.2956 28.6041 54.3116 28.5641C54.3276 28.524 56.0236 29.1243 58.0876 29.8926C60.1436 30.6689 61.8716 31.2931 61.9196 31.2931C61.9756 31.2931 62.4156 31.069 62.9036 30.7889L63.7916 30.2767C59.5516 23.258 58.2796 21.1772 58.2236 21.1292C58.1756 21.0811 57.6716 21.3212 57.0956 21.6654ZM139.824 26.1711C137.312 28.0118 135.24 29.5564 135.224 29.6125C135.208 29.6685 135.632 29.9646 136.168 30.2767C136.704 30.5969 137.192 30.869 137.248 30.885C137.304 30.901 137.776 30.5969 138.304 30.2207C139.208 29.5484 139.264 29.5244 139.6 29.6925C139.792 29.7885 140.632 30.2847 141.472 30.7889C142.312 31.2931 143.008 31.7093 143.032 31.7173C143.048 31.7333 142.992 32.2935 142.904 32.9658L142.736 34.1903C144.408 35.1746 144.904 35.4468 144.92 35.4387C144.936 35.4227 145.288 32.8297 145.712 29.6765C146.136 26.5233 146.48 23.9142 146.48 23.8742C146.48 23.8422 146.08 23.5861 145.592 23.306C145.104 23.0259 144.632 22.8018 144.544 22.8098C144.456 22.8178 142.336 24.3304 139.824 26.1711Z" fill="white"/>
<path d="M142.488 27.1149C141.856 27.5951 141.328 28.0353 141.312 28.0833C141.296 28.1393 141.72 28.4434 142.256 28.7555C142.792 29.0757 143.264 29.3478 143.304 29.3638C143.344 29.3798 143.448 28.8996 143.536 28.2834C143.632 27.6751 143.728 26.9629 143.76 26.6987C143.784 26.4346 143.768 26.2266 143.72 26.2266C143.672 26.2346 143.112 26.6347 142.488 27.1149Z" fill="#000100"/>
<path d="M95.5601 28.6444C94.6561 28.7004 93.1121 28.8364 92.1361 28.9485C91.1601 29.0605 89.4801 29.2926 88.3921 29.4607C87.3121 29.6367 85.5441 29.9809 84.4641 30.221C83.3841 30.4611 81.6961 30.8772 80.7201 31.1573C79.7441 31.4374 78.1201 31.9416 77.1121 32.2778C76.0961 32.6219 74.3601 33.2702 73.2401 33.7103C72.1281 34.1585 70.0401 35.1029 68.6081 35.8072C67.1841 36.5114 65.2401 37.5358 64.2961 38.072C63.3601 38.6162 61.8481 39.5526 60.9361 40.1529L59.2881 41.2493L62.4641 41.3213C65.3121 39.6006 67.2241 38.5602 68.5441 37.888C69.8721 37.2157 71.7841 36.3113 72.8001 35.8872C73.8081 35.455 75.2881 34.8708 76.0961 34.5827C76.8961 34.2946 78.2641 33.8304 79.1361 33.5583C80.0081 33.2782 81.5761 32.83 82.6241 32.5579C83.6721 32.2858 85.3841 31.8936 86.4321 31.6855C87.4801 31.4775 89.1601 31.1974 90.1681 31.0533C91.1841 30.9172 92.7201 30.7252 93.5921 30.6371C94.6081 30.5331 96.9201 30.4691 100 30.4691C103.056 30.4691 105.376 30.5331 106.344 30.6371C107.176 30.7252 108.688 30.9092 109.704 31.0533C110.712 31.1894 112.4 31.4775 113.44 31.6775C114.488 31.8856 116.232 32.2778 117.312 32.5499C118.392 32.83 120.192 33.3502 121.304 33.7103C122.424 34.0705 124.28 34.7347 125.432 35.1909C126.576 35.6471 128.352 36.3994 129.36 36.8716C130.368 37.3357 131.912 38.1121 132.784 38.5842C133.656 39.0564 135.072 39.8647 135.92 40.3769L137.48 41.3133L140.704 41.2493C137.96 39.4566 136.448 38.5202 135.576 38.016C134.704 37.5118 132.792 36.5114 131.328 35.7991C129.864 35.0789 127.808 34.1505 126.76 33.7263C125.712 33.3102 124 32.6699 122.952 32.3178C121.912 31.9576 120.136 31.4134 119.024 31.1013C117.904 30.7972 116.192 30.373 115.216 30.165C114.24 29.9569 112.784 29.6688 111.984 29.5247C111.184 29.3886 109.56 29.1566 108.368 29.0205C107.184 28.8764 105.248 28.7084 104.056 28.6364C102.872 28.5643 100.848 28.5163 99.5601 28.5243C98.2641 28.5323 96.4641 28.5883 95.5601 28.6444Z" fill="#F6B4CD"/>
<path d="M152.088 34.333C150.192 36.5658 148.648 38.4146 148.672 38.4306C148.688 38.4546 149.728 39.3509 150.984 40.4234C152.24 41.4878 153.4 42.4882 153.56 42.6322L153.856 42.8963C154.632 42.008 154.968 41.5998 155.104 41.4077L155.36 41.0556C152.8 38.8948 152.064 38.2385 152.064 38.2065C152.064 38.1665 153.256 36.7419 154.728 35.0373C156.192 33.3246 157.392 31.884 157.392 31.836C157.4 31.78 157.024 31.4118 156.568 31.0117C156.112 30.6035 155.696 30.2754 155.64 30.2754C155.592 30.2754 153.992 32.1081 152.088 34.333ZM41.6241 32.7243C41.3201 32.8764 40.2801 33.7007 39.3041 34.5571L37.5361 36.1097C40.9201 39.8951 42.5281 41.6958 43.3041 42.5522C44.0721 43.4085 44.7361 44.1048 44.7681 44.1048C44.8001 44.1128 45.2241 43.7527 45.6961 43.3125L46.5601 42.5122C44.2881 39.9592 43.6721 39.1749 43.7201 39.1108C43.7761 39.0548 45.0881 39.2149 46.6401 39.463L49.4641 39.9112C50.2001 39.2949 50.6801 38.8627 51.0161 38.5666C51.3441 38.2625 51.5761 37.9904 51.5201 37.9584C51.4721 37.9344 50.1681 37.6943 48.6401 37.4382C47.1041 37.1821 45.8321 36.966 45.8241 36.95C45.8081 36.942 45.8801 36.6539 45.9841 36.3017C46.0801 35.9496 46.1681 35.4694 46.1601 35.2213C46.1601 34.9812 46.0561 34.5491 45.9281 34.2689C45.8001 33.9968 45.4481 33.5407 45.1361 33.2686C44.8321 32.9965 44.3921 32.6923 44.1681 32.6043C43.9361 32.5083 43.4001 32.4362 42.9601 32.4362C42.4001 32.4442 42.0081 32.5243 41.6241 32.7243Z" fill="white"/>
<path d="M42.0323 35.2058C41.7603 35.4059 41.3923 35.718 41.2163 35.9021L40.9043 36.2302C41.7683 37.1746 42.0643 37.5027 42.1203 37.5668C42.1763 37.6468 42.4963 37.4467 42.9283 37.0626C43.3203 36.7104 43.6963 36.2703 43.7603 36.0782C43.8403 35.8541 43.8403 35.622 43.7523 35.4139C43.6883 35.2379 43.5123 35.0378 43.3763 34.9738C43.2323 34.9017 42.9843 34.8457 42.8243 34.8457C42.6643 34.8457 42.3043 35.0058 42.0323 35.2058Z" fill="#000100"/>
<path d="M29.8636 44.8084C28.7516 46.241 27.8236 47.4494 27.8076 47.4974C27.7996 47.5455 29.6476 49.042 31.9196 50.8187C34.1996 52.5954 36.1196 54.06 36.1996 54.076C36.2716 54.092 37.0316 53.2117 37.8716 52.1153C38.7196 51.0188 39.6476 49.8184 39.9356 49.4582L40.4556 48.786C39.1276 47.7135 38.7036 47.4014 38.6476 47.4014C38.5996 47.3934 37.9676 48.1377 37.2556 49.0501C36.5356 49.9544 35.9116 50.6987 35.8556 50.6987C35.8076 50.6907 35.4796 50.4746 35.1356 50.2185C34.7916 49.9544 34.5036 49.7143 34.4956 49.6743C34.4876 49.6423 34.9436 49.018 35.5116 48.2818C36.0716 47.5535 36.5276 46.9212 36.5196 46.8892C36.5196 46.8492 36.1436 46.5371 35.6956 46.1929C35.2396 45.8408 34.8236 45.5607 34.7596 45.5607C34.6956 45.5607 34.2636 46.0409 33.7916 46.6331C33.3276 47.2253 32.8716 47.8256 32.7756 47.9696C32.6076 48.2097 32.5836 48.2017 31.8956 47.6495C31.5036 47.3374 31.1916 47.0493 31.1916 47.0173C31.1916 46.9772 31.7676 46.225 32.4636 45.3366C33.1596 44.4483 33.7356 43.672 33.7436 43.6239C33.7436 43.5679 33.3596 43.2238 32.8876 42.8556C32.4076 42.4875 31.9916 42.1914 31.9596 42.1994C31.9276 42.1994 30.9836 43.3758 29.8636 44.8084Z" fill="white"/>
<path d="M52.5675 44.4428C52.5115 44.4828 52.4715 57.2958 52.4795 72.9019C52.4955 90.8049 52.5515 102.089 52.6395 103.474C52.7115 104.674 52.8795 106.683 53.0235 107.94C53.1595 109.196 53.4475 111.221 53.6555 112.445C53.8635 113.662 54.2315 115.535 54.4715 116.591C54.7195 117.655 55.0875 119.168 55.3035 119.952C55.5115 120.737 55.9755 122.297 56.3275 123.41C56.6795 124.522 57.3435 126.411 57.7995 127.595C58.2555 128.78 58.9835 130.548 59.4155 131.525C59.8555 132.501 60.5675 134.014 60.9995 134.886C61.4395 135.758 62.2235 137.239 62.7515 138.183C63.2795 139.12 64.1355 140.576 64.6555 141.417C65.1755 142.249 66.0315 143.561 66.5595 144.33C67.0795 145.098 68.0955 146.499 68.8075 147.435C69.5275 148.379 70.7035 149.86 71.4395 150.732C72.1675 151.605 73.5275 153.125 74.4635 154.11C75.3915 155.094 76.8155 156.519 77.6155 157.279C78.4235 158.039 79.6795 159.176 80.4075 159.808C81.1355 160.432 82.1675 161.296 82.6875 161.721C83.2075 162.137 84.2955 162.969 85.0955 163.561C87.1852 165.098 89.3448 166.538 91.5675 167.875C92.4395 168.403 94.0635 169.316 95.1835 169.908C96.2955 170.5 97.8475 171.292 98.6395 171.668L100.064 172.349C102.272 171.292 103.776 170.524 104.816 169.972C105.864 169.412 107.56 168.451 108.592 167.835C109.624 167.211 111.192 166.218 112.08 165.618C112.968 165.018 114.44 163.969 115.344 163.281C116.256 162.601 117.704 161.448 118.576 160.72C119.448 159.992 121.048 158.575 122.12 157.567C123.2 156.567 124.824 154.942 125.728 153.966C126.632 152.989 127.968 151.477 128.696 150.604C129.424 149.732 130.664 148.163 131.448 147.123C132.232 146.074 133.272 144.618 133.76 143.89C134.248 143.153 135.024 141.953 135.472 141.225C135.928 140.488 136.712 139.152 137.224 138.247C137.736 137.335 138.624 135.622 139.208 134.438C139.792 133.253 140.608 131.485 141.024 130.508C141.44 129.532 142.144 127.739 142.584 126.515C143.032 125.298 143.64 123.498 143.936 122.521C144.232 121.545 144.696 119.888 144.96 118.848C145.232 117.799 145.616 116.087 145.832 115.038C146.04 113.998 146.36 112.197 146.536 111.045C146.712 109.9 146.944 108.068 147.048 106.987C147.152 105.907 147.304 103.658 147.376 101.985C147.464 100.032 147.496 89.1722 147.472 71.6774L147.432 44.4188C73.9915 44.3707 52.6235 44.3947 52.5675 44.4428Z" fill="#F6B4CD"/>
<path d="M165.952 48.0435C163.576 49.7242 161.616 51.1327 161.6 51.1807C161.576 51.2288 162.112 52.0371 162.776 52.9734C163.448 53.9178 164.176 54.8462 164.4 55.0463C164.624 55.2463 165.024 55.5424 165.28 55.7105C165.544 55.8786 166.104 56.1347 166.52 56.2707C166.952 56.4148 167.624 56.5268 168.072 56.5268C168.512 56.5268 169.232 56.4148 169.688 56.2787C170.144 56.1427 170.792 55.8386 171.136 55.6145C171.48 55.3824 171.952 54.9662 172.192 54.6861C172.424 54.406 172.76 53.8938 172.936 53.5497C173.104 53.1975 173.312 52.5093 173.392 52.0211C173.504 51.3808 173.512 50.9246 173.416 50.3804C173.344 49.9563 173.136 49.3 172.96 48.9159C172.784 48.5317 172.16 47.4913 171.568 46.603C170.968 45.7146 170.432 44.9863 170.376 44.9863C170.312 44.9863 168.32 46.3629 165.952 48.0435Z" fill="white"/>
<path d="M54.4082 74.3408C54.4082 92.5719 54.4562 103.08 54.5362 104.296C54.6162 105.321 54.7842 107.106 54.9202 108.258C55.0642 109.41 55.3202 111.203 55.4962 112.252C55.6802 113.3 56.0162 115.005 56.2482 116.053C56.4802 117.101 56.8802 118.726 57.1362 119.67C57.3922 120.607 57.9282 122.376 58.3362 123.6C58.7362 124.816 59.4402 126.761 59.8962 127.906C60.3522 129.058 61.1362 130.883 61.6402 131.963C62.1442 133.044 63.0082 134.788 63.5762 135.837C64.1362 136.877 65.0242 138.446 65.5442 139.318C66.0642 140.19 66.9522 141.591 67.5122 142.423C68.0722 143.264 68.9042 144.464 69.3522 145.088C69.8082 145.721 70.8162 147.033 71.6002 148.01C72.3762 148.986 73.5442 150.378 74.1922 151.115C74.8402 151.843 75.9442 153.035 76.6482 153.756C77.3522 154.476 78.6482 155.733 79.5202 156.541C80.3922 157.349 81.7922 158.582 82.6242 159.278C83.4642 159.974 84.9442 161.143 85.9202 161.871C86.8962 162.599 88.5282 163.744 89.5362 164.408C90.5522 165.08 92.2322 166.129 93.2802 166.745C94.3282 167.353 96.2802 168.41 97.6242 169.09L100.064 170.322C103.648 168.514 105.488 167.521 106.464 166.953C107.448 166.385 109.216 165.272 110.4 164.488C111.584 163.704 113.24 162.551 114.08 161.927C114.912 161.311 116.48 160.062 117.568 159.158C118.648 158.254 120.552 156.517 121.8 155.3C123.048 154.076 124.736 152.339 125.544 151.427C126.352 150.523 127.48 149.21 128.04 148.514C128.6 147.817 129.552 146.585 130.144 145.785C130.736 144.984 131.792 143.472 132.488 142.423C133.184 141.383 134.128 139.894 134.584 139.134C135.032 138.366 135.864 136.877 136.424 135.837C136.984 134.788 137.784 133.188 138.208 132.283C138.632 131.379 139.32 129.81 139.736 128.794C140.152 127.786 140.72 126.305 141.008 125.497C141.288 124.696 141.752 123.304 142.04 122.392C142.32 121.487 142.784 119.887 143.056 118.846C143.336 117.798 143.784 115.797 144.064 114.404C144.336 113.012 144.656 111.267 144.76 110.539C144.864 109.803 145.032 108.41 145.144 107.434C145.248 106.457 145.392 104.745 145.464 103.632C145.544 102.368 145.592 91.1633 145.592 73.9246V46.2578H54.4082M167.352 50.0593C165.968 51.0437 164.848 51.868 164.856 51.9C164.864 51.932 165.032 52.2041 165.24 52.5002C165.44 52.7964 165.768 53.1885 165.968 53.3806C166.168 53.5647 166.544 53.8128 166.808 53.9168C167.064 54.0288 167.576 54.1169 167.944 54.1169C168.392 54.1169 168.816 54.0208 169.248 53.8128C169.592 53.6367 170.096 53.2685 170.352 52.9884C170.64 52.6683 170.912 52.2041 171.024 51.804C171.152 51.3798 171.192 50.9556 171.136 50.6275C171.088 50.3474 170.912 49.8672 170.744 49.5551C170.576 49.235 170.312 48.8268 170.152 48.6347L169.872 48.2826" fill="#000100"/>
<path d="M48.0797 50.8922C47.3517 51.6525 46.1757 52.965 45.4637 53.7973C44.7517 54.6376 43.5437 56.1502 42.7837 57.1586C42.0157 58.167 40.9037 59.7436 40.3037 60.648C39.7117 61.5523 38.7517 63.0969 38.1757 64.0733C37.5997 65.0497 36.5197 67.0985 35.7677 68.6351C35.0077 70.1717 34.1117 72.1405 33.7597 73.0048C33.4077 73.8771 32.8637 75.3177 32.5437 76.2141C32.2237 77.1024 31.6477 78.8951 31.2717 80.2076C30.8957 81.5121 30.4077 83.3768 30.1997 84.3532C29.9837 85.3296 29.6637 86.9622 29.4877 87.9706C29.3117 88.979 29.0557 90.8037 28.9197 92.0282C28.7757 93.2447 28.6077 95.5336 28.5357 97.1022C28.4477 99.087 28.4477 100.856 28.5357 102.928C28.6157 104.569 28.7837 106.85 28.9117 108.002C29.0477 109.155 29.2717 110.836 29.4237 111.74C29.5757 112.652 29.8957 114.301 30.1437 115.421C30.3837 116.534 30.8957 118.519 31.2717 119.823C31.6477 121.136 32.2237 122.928 32.5437 123.817C32.8637 124.713 33.4077 126.154 33.7597 127.026C34.1117 127.89 35.0077 129.859 35.7677 131.396C36.5197 132.932 37.5997 134.981 38.1757 135.957C38.7517 136.934 39.7117 138.478 40.3037 139.383C40.9037 140.287 42.0157 141.864 42.7837 142.872C43.5437 143.88 44.7757 145.425 45.5197 146.297C46.2557 147.17 47.7437 148.786 48.8237 149.891C49.9117 150.995 51.4237 152.46 52.1837 153.148C52.9517 153.828 54.0397 154.765 54.5997 155.237C55.1517 155.701 56.2957 156.597 57.1357 157.222C57.9677 157.854 59.5437 158.958 60.6237 159.671C61.7037 160.391 63.4157 161.447 64.4237 162.024C65.4397 162.608 67.4637 163.664 68.9277 164.376C70.3917 165.089 72.5357 166.041 73.6877 166.497C74.8317 166.945 76.4877 167.554 77.3597 167.842C78.2317 168.138 79.7437 168.602 80.7197 168.874C81.6957 169.154 83.3837 169.571 84.4637 169.811C85.5437 170.051 87.1437 170.363 88.0157 170.507L89.9517 170.827C90.1437 170.867 90.2877 170.835 90.2637 170.763C90.2477 170.699 89.4637 170.147 88.5197 169.547L86.8077 168.458C83.8637 167.786 82.2957 167.394 81.4237 167.154C80.5517 166.913 79.0397 166.449 78.0557 166.129C77.0797 165.801 75.6557 165.297 74.8877 165.001C74.1197 164.705 72.6957 164.104 71.7197 163.672C70.7437 163.24 69.0877 162.44 68.0397 161.904C66.9917 161.359 65.4797 160.519 64.6797 160.047C63.8797 159.575 62.4477 158.67 61.5117 158.046C60.5677 157.414 59.1437 156.413 58.3357 155.813C57.5357 155.213 56.3357 154.277 55.6717 153.732C55.0157 153.188 53.7037 152.044 52.7677 151.195C51.6101 150.127 50.4895 149.019 49.4077 147.874C48.4957 146.898 47.1997 145.441 46.5357 144.641C45.8637 143.84 44.7837 142.472 44.1357 141.6C43.4222 140.645 42.7314 139.674 42.0637 138.686C41.5757 137.958 40.7917 136.726 40.3277 135.957C39.8637 135.197 39.0557 133.765 38.5197 132.788C37.9917 131.812 37.1037 130.019 36.5517 128.795C35.9917 127.578 35.1677 125.577 34.7117 124.361C34.2557 123.136 33.6717 121.456 33.4157 120.615C33.1677 119.783 32.7357 118.238 32.4637 117.198C32.1384 115.915 31.8476 114.623 31.5917 113.325C31.3837 112.244 31.1277 110.74 31.0237 109.971C30.9117 109.203 30.7677 108.034 30.6957 107.37C30.6237 106.706 30.5117 105.305 30.4397 104.265C30.3677 103.217 30.3117 101.336 30.3117 100.079C30.3117 98.8229 30.3677 96.8861 30.4397 95.7657C30.5117 94.6533 30.6557 92.9966 30.7597 92.0922C30.8637 91.1879 31.0637 89.7553 31.1917 88.923C31.3277 88.0827 31.6157 86.5701 31.8237 85.5617C32.0317 84.5533 32.4397 82.8646 32.7197 81.8242C33.0077 80.7758 33.5597 78.9751 33.9437 77.8307C34.3277 76.6782 34.9437 74.9896 35.3197 74.0852C35.6877 73.1809 36.3437 71.6683 36.7757 70.7239C37.2077 69.7875 37.9917 68.2189 38.5277 67.2425C39.0557 66.2662 39.8637 64.8336 40.3277 64.0733C40.7917 63.305 41.5757 62.0725 42.0637 61.3442C42.5517 60.608 43.4877 59.2954 44.1357 58.4311C44.7837 57.5588 45.8637 56.1902 46.5357 55.3899C47.1997 54.5896 48.1357 53.5332 48.5997 53.037L49.4557 52.1487L49.3997 49.5156M150.544 50.8521L150.552 52.1487C152.08 53.8213 152.992 54.8617 153.56 55.542C154.128 56.2222 155.12 57.4787 155.76 58.3351C156.392 59.1834 157.352 60.5439 157.888 61.3442C158.424 62.1446 159.208 63.369 159.632 64.0733C160.056 64.7696 160.864 66.1941 161.424 67.2425C161.992 68.283 162.832 69.9716 163.296 70.98C163.76 71.9884 164.424 73.533 164.768 74.4053C165.112 75.2777 165.704 76.9023 166.08 78.0148C166.456 79.1352 166.944 80.7038 167.16 81.5041C167.376 82.3044 167.712 83.673 167.912 84.5453C168.112 85.4176 168.424 86.9622 168.6 87.9706C168.784 88.979 169.04 90.8037 169.184 92.0282C169.32 93.2447 169.496 95.5336 169.576 97.1022C169.688 99.231 169.688 100.688 169.576 102.864C169.496 104.473 169.32 106.786 169.184 108.002C169.04 109.227 168.784 111.052 168.6 112.06C168.424 113.068 168.112 114.613 167.912 115.485C167.712 116.358 167.376 117.726 167.16 118.527C166.944 119.327 166.456 120.896 166.08 122.016C165.704 123.128 165.112 124.753 164.768 125.625C164.424 126.498 163.76 128.042 163.296 129.051C162.832 130.059 161.96 131.804 161.36 132.916C160.76 134.037 159.896 135.549 159.44 136.278C158.984 137.014 158.232 138.182 157.768 138.879C157.296 139.575 156.408 140.831 155.784 141.664C155.16 142.504 154.056 143.904 153.328 144.777C152.608 145.641 150.728 147.642 149.152 149.219C147.576 150.787 145.632 152.62 144.832 153.284C144.032 153.956 142.664 155.037 141.792 155.693C140.92 156.349 139.376 157.43 138.36 158.102C137.352 158.774 135.608 159.847 134.496 160.487C133.376 161.127 131.608 162.072 130.568 162.584C129.52 163.096 127.752 163.896 126.632 164.36C125.52 164.833 123.432 165.601 122 166.081C120.576 166.561 118.376 167.202 117.12 167.514C115.864 167.826 114.528 168.146 114.144 168.226C113.632 168.322 113.016 168.626 111.856 169.362C110.984 169.915 110.16 170.451 110.016 170.555C109.88 170.659 109.792 170.763 109.832 170.803C109.864 170.835 110.808 170.699 111.92 170.507C113.04 170.315 114.632 170.003 115.472 169.819C116.312 169.643 117.904 169.234 119.024 168.93C120.136 168.618 121.912 168.074 122.952 167.714C124 167.362 125.712 166.721 126.76 166.305C127.808 165.881 129.864 164.953 131.328 164.232C132.792 163.52 134.704 162.52 135.576 162.016C136.448 161.511 138.072 160.503 139.192 159.767C140.304 159.03 141.904 157.918 142.736 157.286C143.576 156.661 144.912 155.597 145.712 154.925C146.512 154.261 147.936 152.996 148.88 152.124C149.816 151.251 151.304 149.771 152.176 148.826C153.048 147.89 154.328 146.433 155.024 145.601C155.728 144.761 156.8 143.392 157.424 142.552C158.902 140.55 160.282 138.477 161.56 136.342C162.056 135.501 163.064 133.652 163.784 132.22C164.512 130.787 165.48 128.707 165.944 127.594C166.408 126.474 167.072 124.777 167.416 123.817C167.76 122.864 168.296 121.208 168.6 120.143C168.904 119.079 169.328 117.494 169.544 116.622C169.752 115.749 170.072 114.269 170.248 113.325C170.424 112.388 170.68 110.788 170.816 109.779C170.96 108.771 171.144 107.194 171.232 106.29C171.336 105.273 171.4 102.872 171.4 100.015C171.4 97.1582 171.336 94.7573 171.232 93.7409C171.144 92.8365 170.96 91.2599 170.816 90.2515C170.672 89.2431 170.416 87.6425 170.248 86.7062C170.072 85.7618 169.68 83.9931 169.376 82.7686C169.072 81.5521 168.584 79.7834 168.288 78.8391C167.929 77.6881 167.542 76.546 167.128 75.4137C166.776 74.4774 166.144 72.9088 165.728 71.9324C165.312 70.956 164.408 69.0432 163.72 67.6827C163.032 66.3222 162.056 64.5295 161.56 63.6892C160.282 61.5533 158.902 59.4808 157.424 57.4787C156.8 56.6384 155.728 55.2699 155.024 54.4295C154.328 53.5972 153.064 52.1567 152.208 51.2283C151.36 50.3079 150.64 49.5556 150.6 49.5556C150.568 49.5556 150.544 50.1399 150.544 50.8521Z" fill="#F6B4CD"/>
<path d="M22.1764 56.2951L20.2324 59.7364C20.7044 60.0485 21.1604 60.3206 21.5524 60.5447L22.2564 60.9449L23.5924 58.5519C24.4244 59.0241 26.0484 59.9365 27.7444 60.8808C29.4324 61.8332 30.8644 62.6095 30.9124 62.6095C30.9684 62.6095 31.2484 62.1854 31.5444 61.6571C31.8404 61.1369 32.0884 60.6568 32.0884 60.5847C32.0884 60.5127 30.5284 59.5923 28.6324 58.5359C26.7284 57.4795 25.1044 56.5511 25.0244 56.4711C24.9044 56.3671 25.0164 56.071 25.5044 55.1986C25.8484 54.5664 26.1284 54.0222 26.1284 53.9902C26.1284 53.9581 25.6724 53.686 25.1284 53.3899L24.1284 52.8457" fill="white"/>
<path d="M64.5518 62.544V68.8264H68.2318C68.2318 63.0242 68.2718 61.3435 68.3278 61.3435C68.3758 61.3435 69.5038 62.4239 70.8318 63.7525L73.2398 66.1614L78.2478 61.1514V68.8264H81.9278V56.2695H78.1918L73.2398 61.2155L68.2958 56.2695H64.5518M85.1278 62.512L85.1598 68.7624L88.7758 68.8264V56.2695H85.0958M94.3278 62.4239C92.6718 65.8013 91.3118 68.6264 91.3118 68.6984C91.3118 68.7784 92.0318 68.8264 93.2158 68.8264H95.1198C96.3118 66.3215 96.6798 65.5612 96.7118 65.5292C96.7438 65.4891 97.4878 66.1774 98.3518 67.0497L99.9358 68.6344C102.376 66.2254 103.12 65.5292 103.16 65.5292C103.2 65.5292 103.608 66.2654 104.056 67.1778L104.88 68.8264C107.832 68.8264 108.688 68.7784 108.688 68.7304C108.688 68.6744 107.32 65.8493 105.648 62.4559L102.6 56.2695L97.3358 56.2775M111.128 62.512L111.16 68.7624L114.776 68.8264C114.776 63.1282 114.816 61.4476 114.872 61.4155C114.92 61.3835 116.048 62.4399 117.376 63.7605L119.784 66.1614L124.792 61.1514V68.8264H128.472V56.2695H124.736L119.784 61.2155L114.84 56.2695H111.096M131.672 62.512L131.704 68.7624H135.384L135.448 56.2695H131.64" fill="#F6B4CD"/>
<path d="M173.856 60.4336L169.08 62.8025L172.16 68.9409C173.688 68.1646 174.128 67.8845 174.128 67.8125C174.128 67.7404 173.712 66.8521 173.208 65.8437C172.616 64.6512 172.336 63.9549 172.416 63.8829C172.488 63.8189 172.856 63.6268 173.24 63.4588L173.936 63.1386C175.12 65.4835 175.504 66.1638 175.552 66.1638C175.608 66.1638 176.08 65.9637 176.6 65.7236C177.128 65.4755 177.552 65.2194 177.552 65.1474C177.552 65.0834 177.24 64.3951 176.856 63.6268C176.472 62.8585 176.16 62.1863 176.152 62.1382C176.152 62.0822 176.472 61.8821 176.856 61.6981C177.24 61.506 177.608 61.3459 177.68 61.3459C177.752 61.3459 178.208 62.1863 178.704 63.2187C179.2 64.2431 179.632 65.1154 179.656 65.1474C179.688 65.1874 180.176 64.9873 180.728 64.7072C181.288 64.4271 181.744 64.171 181.744 64.131C181.744 64.099 181.088 62.7145 180.28 61.0578C179.48 59.4012 178.776 58.0566 178.728 58.0566C178.672 58.0646 176.48 59.1291 173.856 60.4336Z" fill="white"/>
<path d="M99.0163 60.8732L98.1523 62.6739L99.9363 64.4506L101.824 62.5458C100.456 59.8488 100.024 59.0645 99.9683 59.0645C99.9123 59.0645 99.4883 59.8808 99.0163 60.8732Z" fill="#000100"/>
<path d="M16.9036 67.2112C16.6716 67.8515 16.5036 68.3877 16.5196 68.3957C16.5356 68.4037 17.8556 68.8598 19.4476 69.4121C21.0396 69.9563 22.3276 70.4685 22.3196 70.5405C22.3036 70.6045 21.7116 70.8686 21.0076 71.1167C20.3036 71.3648 18.6076 71.957 17.2476 72.4212L14.7756 73.2696L14.1436 75.2703C21.8076 77.9434 24.1036 78.7197 24.1916 78.7197C24.2796 78.7197 24.5036 78.2315 24.6956 77.6473C24.8876 77.055 25.0156 76.5428 24.9836 76.5028C24.9516 76.4708 23.6396 75.9906 22.0636 75.4384C20.4956 74.8862 19.1996 74.382 19.1836 74.326C19.1676 74.262 20.8156 73.6457 22.8476 72.9494C24.8876 72.2452 26.6156 71.6209 26.7036 71.5489C26.7836 71.4849 26.9996 71.0127 27.1836 70.5085L27.5196 69.5881C26.8796 69.38 24.6716 68.6117 22.1916 67.7474C19.7196 66.8831 17.6076 66.1468 17.5036 66.1068C17.3596 66.0507 17.2156 66.3149 16.9036 67.2112Z" fill="white"/>
<path d="M99.9117 75.7342C99.8717 75.8062 99.5197 77.0307 99.1197 78.4632C98.7197 79.8878 98.3517 81.0963 98.3037 81.1523C98.2637 81.2003 97.2557 80.336 96.0717 79.2315C94.8797 78.1271 93.8957 77.2868 93.8717 77.3668C93.8557 77.4468 94.1517 78.7113 94.5357 80.1759C94.9277 81.6405 95.2077 82.8649 95.1757 82.897C95.1357 82.937 93.8797 82.6328 92.3837 82.2327C90.8877 81.8325 89.6397 81.5444 89.6077 81.6004C89.5757 81.6485 90.4637 82.4968 91.5677 83.4732C92.6797 84.4416 93.5917 85.2739 93.5917 85.3059C93.5997 85.3459 92.3757 85.8821 90.8717 86.5144C89.3677 87.1386 88.1117 87.7228 88.0797 87.8109C88.0317 87.9389 88.6477 87.9709 90.9357 87.9709H93.8477C93.8477 87.2346 93.9357 86.7064 94.0477 86.3223C94.1597 85.9381 94.4317 85.2899 94.6557 84.8737C94.8877 84.4496 95.3757 83.8333 95.8157 83.4332C96.2317 83.049 96.8477 82.6008 97.1757 82.4408C97.6059 82.2371 98.0529 82.0711 98.5117 81.9446C98.9117 81.8405 99.5277 81.7525 99.8717 81.7525C100.224 81.7525 100.824 81.8165 101.208 81.8806C101.592 81.9526 102.272 82.1927 102.728 82.4168C103.224 82.6649 103.856 83.129 104.32 83.5932C104.8 84.0734 105.232 84.6656 105.48 85.1778C105.696 85.634 105.944 86.3783 106.024 86.8265C106.104 87.2827 106.144 87.7709 106.104 87.9069C106.072 88.043 105.696 88.4911 105.272 88.8913C104.84 89.2995 104.16 89.7796 103.712 89.9877C103.272 90.1958 102.544 90.4599 102.096 90.5719C101.616 90.7 100.76 90.796 100.064 90.796C99.3997 90.804 98.5197 90.732 98.0957 90.644C97.6797 90.5559 96.8797 90.2678 96.3197 90.0037C95.6477 89.6836 95.0637 89.2834 94.5757 88.8113C94.1757 88.4191 93.8237 88.139 93.7917 88.195C93.7597 88.243 93.8157 88.6592 93.9037 89.1154C93.9997 89.5636 94.2557 90.3078 94.4877 90.756C94.7197 91.2122 95.2237 91.9085 95.6157 92.3006C96.0797 92.7728 96.6397 93.165 97.2717 93.4691C97.8637 93.7492 98.5677 93.9733 99.1117 94.0453C99.6477 94.1253 100.304 94.1253 100.76 94.0613C101.176 94.0053 101.832 93.8372 102.216 93.6932C102.6 93.5571 103.256 93.181 103.68 92.8769C104.096 92.5647 104.688 91.9725 104.984 91.5643C105.288 91.1562 105.648 90.5079 105.792 90.1238C105.936 89.7396 106.088 89.0994 106.128 88.6992L106.216 87.9709C111.36 87.9709 111.968 87.9389 111.92 87.8109C111.88 87.7228 110.624 87.1546 109.128 86.5464C107.632 85.9301 106.4 85.3939 106.4 85.3379C106.4 85.2899 107.312 84.4336 108.432 83.4412C109.552 82.4408 110.424 81.6084 110.368 81.5764C110.312 81.5444 109.064 81.8485 107.584 82.2407C106.104 82.6409 104.856 82.937 104.816 82.897C104.768 82.8649 105.056 81.6084 105.448 80.1119C105.84 78.6073 106.144 77.3428 106.128 77.2868C106.104 77.2307 105.104 78.1031 103.896 79.2235C102.696 80.336 101.688 81.2323 101.664 81.2163C101.632 81.2003 101.288 80.0158 100.888 78.5913C100.488 77.1587 100.12 75.9022 100.064 75.7982C100.016 75.6941 99.9437 75.6621 99.9117 75.7342Z" fill="#F6B4CD"/>
<path d="M77.7995 77.3106C77.5195 77.4466 77.1755 77.7108 77.0475 77.9108C76.9115 78.1109 76.7995 78.287 76.7995 78.295C76.7915 78.311 74.2475 78.7832 71.1435 79.3434C68.0395 79.9036 65.3755 80.3918 65.2155 80.4238C65.0635 80.4638 64.9355 80.5439 64.9355 80.6159C64.9355 80.6959 67.6475 80.7439 72.8315 80.7439C80.0875 80.7439 80.7595 80.7599 81.1595 80.968C81.4075 81.0881 81.7115 81.3842 81.8475 81.6323C81.9915 81.8724 82.1035 82.2725 82.1035 82.5206C82.1035 82.7607 81.9915 83.1529 81.8555 83.393C81.7195 83.6251 81.4075 83.9292 81.1675 84.0572C80.7915 84.2573 80.4315 84.2973 78.7595 84.2893C77.4075 84.2893 76.5596 84.3533 76.0635 84.4814C75.6636 84.5854 75.0316 84.8255 74.6636 85.0096C74.3035 85.1937 73.6556 85.6739 73.2396 86.074C72.8236 86.4742 72.2955 87.1304 72.0715 87.5466C71.8475 87.9548 71.5755 88.683 71.4555 89.1712C71.3195 89.7635 71.2715 90.3557 71.3115 90.9479C71.3515 91.4361 71.4955 92.1804 71.6475 92.5966C71.7915 93.0127 72.0955 93.645 72.3195 93.9891C72.5515 94.3573 78.3195 100.232 85.7915 107.714C92.9755 114.909 98.9035 120.776 98.9515 120.744C99.0075 120.712 99.0475 119.639 99.0475 118.367V116.054L79.8315 96.8462H82.6235C95.2075 109.427 98.9035 113.077 98.9515 113.077C99.0075 113.077 99.0475 112.148 99.0475 111.012V108.955L86.9355 96.8462H89.7276C96.8076 103.921 98.9035 105.978 98.9515 105.978C99.0075 105.978 99.0155 105.562 98.9756 105.057C98.9356 104.553 98.7995 103.681 98.6636 103.121C98.5355 102.56 98.2476 101.68 98.0316 101.16C97.8155 100.632 97.3196 99.7193 96.9276 99.1271C96.5356 98.5349 95.7835 97.6145 95.2555 97.0863C94.7275 96.5581 93.8395 95.8298 93.2795 95.4617C92.7195 95.1015 91.9515 94.6534 91.5675 94.4773C91.1835 94.2932 90.5515 94.0371 90.1675 93.9011C89.7835 93.773 89.1035 93.5729 88.6475 93.4609C87.9915 93.3008 86.6955 93.2448 82.2235 93.1808L76.6235 93.1088C75.7835 92.5165 75.4075 92.0924 75.2475 91.7722C75.0555 91.4041 74.9436 90.9879 74.9516 90.6038C74.9516 90.2677 75.0396 89.7875 75.1516 89.5234C75.2556 89.2593 75.4715 88.9151 75.6235 88.7471C75.7755 88.587 76.1195 88.3469 76.3755 88.2109C76.7755 88.0108 77.1355 87.9708 78.5995 87.9708C79.5595 87.9708 80.6875 87.9147 81.1035 87.8427C81.5195 87.7787 82.2635 87.5226 82.7516 87.2825C83.3116 87.0104 83.8636 86.6182 84.2396 86.2101C84.5756 85.8499 85.0315 85.1777 85.2555 84.7055C85.6395 83.9052 85.6715 83.7611 85.6715 82.5206C85.6715 81.2721 85.6395 81.1281 85.2475 80.2958C85.0155 79.8076 84.6715 79.2554 84.4875 79.0633C84.3035 78.8712 84.1756 78.6951 84.2076 78.6631C84.2476 78.6311 85.2716 78.319 86.4956 77.9749C87.7116 77.6307 88.7275 77.2786 88.7435 77.2066C88.7675 77.1025 87.2715 77.0705 83.5435 77.0705C78.6795 77.0705 78.2795 77.0865 77.7995 77.3106ZM111.224 77.2386C111.328 77.3346 112.4 77.6947 113.6 78.0309L115.784 78.6471C115.288 79.2394 114.976 79.7515 114.776 80.1757C114.568 80.5919 114.352 81.2721 114.28 81.6963C114.2 82.2005 114.2 82.7367 114.28 83.2809C114.352 83.7291 114.544 84.4014 114.72 84.7695C114.888 85.1377 115.296 85.7299 115.632 86.082C115.96 86.4422 116.464 86.8823 116.744 87.0584C117.016 87.2345 117.56 87.4906 117.944 87.6266C118.504 87.8267 119.12 87.8907 121 87.9548C123.248 88.0268 123.376 88.0508 123.856 88.3549C124.176 88.571 124.472 88.9231 124.704 89.3713C124.896 89.7635 125.048 90.2677 125.048 90.5398C125.048 90.7959 124.96 91.228 124.848 91.4921C124.744 91.7482 124.496 92.1244 124.312 92.3245C124.12 92.5245 123.8 92.7806 123.592 92.8927C123.256 93.0768 122.504 93.1168 117.632 93.1808C112.336 93.2448 111.992 93.2688 110.968 93.5409C110.376 93.701 109.408 94.0451 108.816 94.3012C108.224 94.5573 107.336 95.0215 106.848 95.3336C106.36 95.6538 105.592 96.254 105.144 96.6622C104.696 97.0783 103.992 97.8466 103.576 98.3668C103.16 98.887 102.544 99.8874 102.208 100.584C101.872 101.28 101.48 102.336 101.328 102.929C101.184 103.521 101.032 104.497 100.992 105.089L100.92 106.162L110.28 96.8462H113.056L100.952 108.955V113.269L117.376 96.8462H120.16L100.944 116.054L101.016 120.816C127.184 94.6214 127.568 94.2212 128.008 93.2928C128.28 92.7326 128.52 91.9883 128.6 91.4601C128.696 90.8279 128.696 90.3077 128.6 89.6834C128.52 89.1232 128.288 88.4189 127.968 87.7787C127.664 87.1464 127.24 86.5382 126.864 86.1701C126.528 85.8419 125.912 85.3697 125.488 85.1216C125.072 84.8735 124.344 84.5854 123.872 84.4814C123.328 84.3613 122.344 84.2893 121.144 84.2893C119.616 84.2893 119.2 84.2493 118.832 84.0732C118.592 83.9532 118.264 83.6491 118.104 83.409C117.944 83.1609 117.816 82.7927 117.816 82.5847C117.816 82.3686 117.92 82.0004 118.04 81.7603C118.16 81.5202 118.464 81.1841 118.704 81.024L119.152 80.7359C133.592 80.7439 135.096 80.7199 134.96 80.5839C134.872 80.4958 132.192 79.9516 129 79.3754C125.816 78.7992 123.208 78.319 123.2 78.303C123.192 78.287 123.072 78.1029 122.936 77.8868C122.792 77.6787 122.44 77.4066 122.152 77.2866C121.68 77.0865 121.08 77.0625 116.328 77.0625C111.824 77.0625 111.064 77.0865 111.224 77.2386ZM181.104 78.8712C178.28 79.5035 175.96 80.0237 175.944 80.0317C175.928 80.0397 176.032 80.5599 176.176 81.1841C176.312 81.8164 176.44 82.3446 176.448 82.3686C176.464 82.3926 177.328 82.2245 178.376 82.0004C179.424 81.7763 180.336 81.5763 180.408 81.5442C180.472 81.5202 180.688 82.2005 180.888 83.0568C181.08 83.9132 181.264 84.6415 181.304 84.6735C181.336 84.7055 181.848 84.6255 182.44 84.4814C183.032 84.3453 183.52 84.1693 183.52 84.1053C183.52 84.0332 183.368 83.3209 183.192 82.5206C183.016 81.7123 182.888 81.0481 182.912 81.032C182.928 81.024 183.312 80.928 183.768 80.816C184.224 80.7119 184.624 80.6639 184.664 80.7199C184.704 80.7679 184.936 81.6803 185.176 82.7447C185.408 83.8091 185.632 84.6815 185.672 84.6735C185.704 84.6735 186.2 84.5774 186.776 84.4494C187.536 84.2893 187.824 84.1773 187.824 84.0412C187.816 83.9372 187.52 82.4886 187.152 80.816C186.792 79.1513 186.44 77.7748 186.368 77.7508C186.296 77.7348 183.928 78.239 181.104 78.8712Z" fill="white"/>
<path d="M78.6318 78.9039V79.4719H80.7838V78.3359H78.6318M119.216 78.9039V79.4719H121.368V78.3359H119.216" fill="#000100"/>
<path d="M12.1439 84.1378C12.0399 84.7461 11.9839 85.2823 12.0319 85.3303C12.0719 85.3703 14.4319 85.8265 17.2719 86.3387C20.1119 86.8509 22.4639 87.243 22.4959 87.211C22.5359 87.179 22.6559 86.6348 22.7679 86.0026C22.8799 85.3783 22.9519 84.8581 22.9359 84.8501C22.9119 84.8341 20.6239 84.4259 17.8479 83.9297C15.0799 83.4336 12.7039 83.0254 12.5759 83.0254C12.3759 83.0254 12.3039 83.2095 12.1439 84.1378ZM184.784 90.2522C182.296 90.4203 181.272 90.5403 180.848 90.7004C180.536 90.8284 180.072 91.0765 179.824 91.2526C179.568 91.4367 179.224 91.7568 179.048 91.9649C178.872 92.173 178.64 92.5171 178.536 92.7252C178.424 92.9333 178.264 93.4775 178.176 93.9337C178.048 94.5899 178.048 94.934 178.176 95.6383C178.264 96.1265 178.488 96.8068 178.672 97.1509C178.856 97.495 179.264 97.9912 179.584 98.2633C179.896 98.5354 180.448 98.8716 180.816 99.0076C181.28 99.1757 181.808 99.2557 182.528 99.2557C183.104 99.2557 184.864 99.1677 186.432 99.0637C188 98.9596 189.288 98.8556 189.304 98.8396C189.312 98.8236 189.288 98.2874 189.24 97.6391L189.16 96.4626C188.472 96.4626 186.96 96.5507 185.352 96.6627C183.744 96.7668 182.232 96.8228 181.992 96.7748C181.744 96.7347 181.392 96.5827 181.2 96.4546C181.008 96.3186 180.76 95.9664 180.648 95.6703C180.512 95.3182 180.464 94.942 180.512 94.5659C180.552 94.2538 180.688 93.8536 180.824 93.6776C180.952 93.5015 181.256 93.2614 181.496 93.1413C181.832 92.9653 182.664 92.8772 185.352 92.7092C187.232 92.5971 188.808 92.4611 188.848 92.4211C188.896 92.381 188.896 91.8288 188.848 91.2046C188.776 90.1002 188.768 90.0601 188.456 90.0441C188.288 90.0361 186.632 90.1242 184.784 90.2522ZM189.88 94.2058C189.88 94.5099 189.92 94.91 189.968 95.0941C190.024 95.3422 190.352 95.6543 191.152 96.2065C191.768 96.6307 192.336 96.9748 192.424 96.9748C192.536 96.9748 192.552 96.8468 192.488 96.5027C192.432 96.2386 192.392 95.6943 192.392 95.2942V94.5659C190.864 93.9977 190.304 93.7976 190.152 93.7496C189.896 93.6695 189.88 93.7016 189.88 94.2058ZM17.6879 100.536C17.4159 100.6 16.9679 100.816 16.7039 101C16.4399 101.192 16.2239 101.377 16.2239 101.409C16.2239 101.449 16.1119 101.601 15.9759 101.761L15.7279 102.041C14.8879 101.545 14.5919 101.473 13.9839 101.481C13.4479 101.489 13.0479 101.577 12.7199 101.753C12.4559 101.897 12.0399 102.201 11.8079 102.441C11.5679 102.673 11.2559 103.129 11.1199 103.441C10.8879 103.97 10.8799 104.186 10.9599 106.355C11.0079 107.643 11.0879 108.747 11.1359 108.795C11.1839 108.851 13.5759 108.763 16.4399 108.611C19.3119 108.451 21.7119 108.275 21.7679 108.219C21.8319 108.155 21.8079 106.963 21.7279 105.554C21.6399 104.002 21.5119 102.825 21.4079 102.553C21.3039 102.305 21.0799 101.905 20.8959 101.665C20.7199 101.417 20.2959 101.072 19.9519 100.88C19.6159 100.696 19.0799 100.512 18.7679 100.48C18.4559 100.44 17.9679 100.464 17.6879 100.536Z" fill="white"/>
<path d="M17.9196 102.971C17.7676 103.059 17.5516 103.275 17.4476 103.443C17.2876 103.699 17.2716 103.987 17.3436 104.947L17.4396 106.132C18.3196 106.012 18.7756 105.972 19.0236 105.98H19.4636C19.3596 104.155 19.2716 103.523 19.2076 103.395C19.1436 103.259 18.9276 103.075 18.7356 102.979C18.5436 102.883 18.3436 102.811 18.2956 102.811C18.2396 102.811 18.0716 102.883 17.9196 102.971ZM13.7596 103.971C13.6236 104.043 13.4316 104.203 13.3436 104.315C13.2476 104.435 13.1836 104.899 13.1836 105.468V106.42C13.8236 106.268 14.2956 106.228 14.6476 106.228H15.2796C15.2156 105.099 15.1516 104.627 15.0876 104.451C15.0236 104.283 14.8236 104.067 14.6476 103.979C14.4716 103.891 14.2556 103.827 14.1756 103.827C14.0876 103.827 13.8956 103.891 13.7596 103.971Z" fill="#000100"/>
<path d="M186.76 105.275C186.712 105.763 186.648 106.379 186.616 106.643C186.56 107.108 186.552 107.116 186.08 107.06C185.816 107.028 183.968 106.835 181.968 106.643C179.968 106.451 178.296 106.323 178.256 106.355C178.216 106.387 178.136 106.932 178.064 107.564C178 108.188 177.96 108.716 177.968 108.732C177.984 108.748 179.848 108.94 182.12 109.164C184.384 109.38 186.272 109.581 186.304 109.613C186.336 109.645 186.304 110.253 186.224 110.957C186.144 111.669 186.088 112.262 186.096 112.278C186.104 112.294 186.624 112.358 187.256 112.43C187.88 112.502 188.408 112.55 188.416 112.534C188.424 112.518 188.6 110.765 188.808 108.636C189.008 106.515 189.144 104.731 189.104 104.683C189.064 104.635 188.536 104.547 187.936 104.491L186.848 104.395" fill="white"/>
<path d="M117 107.433L116.112 108.33L116.168 113.9C113.464 116.605 112.64 117.349 112.584 117.293C112.528 117.237 112.488 116.029 112.488 114.596L112.496 111.995L110.712 113.772L110.72 119.35L100 130.066L89.2802 119.35L89.2882 113.9L87.5042 112.123C87.5122 116.053 87.4722 117.237 87.4162 117.293C87.3602 117.349 86.5362 116.605 85.5762 115.644L83.8322 113.9V108.45L82.0562 106.673V114.66L87.5042 120.11V148.449L81.9922 148.513V150.29L89.2802 150.354V121.887L98.7282 131.331L93.9762 136.084C98.5442 140.654 99.9282 141.983 100 141.983C100.072 141.983 101.456 140.654 103.072 139.038L106.024 136.084L101.272 131.331C108.336 124.256 110.464 122.199 110.552 122.199C110.688 122.199 110.72 124.936 110.72 136.277V150.354H117.944V148.449H112.496V120.11L117.944 114.66L117.88 106.545" fill="#F6B4CD"/>
<path d="M18.8957 114.805C18.7197 114.845 17.1517 115.214 15.4077 115.63C13.6637 116.046 12.2237 116.398 12.1997 116.414C12.1757 116.422 12.2797 116.95 12.4237 117.574C12.5677 118.207 12.6957 118.735 12.7117 118.751C12.7357 118.775 14.1997 118.439 15.9757 118.023C17.7597 117.598 19.4397 117.254 19.7197 117.254C20.0397 117.254 20.3917 117.358 20.6717 117.542C20.9197 117.702 21.2157 118.031 21.3357 118.279C21.4557 118.519 21.5597 118.975 21.5597 119.287C21.5597 119.639 21.4637 120.023 21.3037 120.271C21.1597 120.512 20.8237 120.784 20.5117 120.92C20.2157 121.056 18.5757 121.488 16.8637 121.888C15.1597 122.288 13.7277 122.64 13.6957 122.672C13.6637 122.696 13.7437 123.217 13.8877 123.817C14.0237 124.417 14.1997 124.929 14.2637 124.953C14.3357 124.985 15.8797 124.657 17.6877 124.225C19.5037 123.793 21.2717 123.313 21.6237 123.153C21.9757 122.993 22.5197 122.584 22.8397 122.248C23.1837 121.88 23.5277 121.344 23.6957 120.904C23.8637 120.464 23.9677 119.887 23.9677 119.447C23.9677 119.047 23.8797 118.407 23.7757 118.023C23.6557 117.604 23.4922 117.199 23.2877 116.814C23.1197 116.534 22.7517 116.094 22.4637 115.83C22.1757 115.574 21.6717 115.238 21.3357 115.093C21.0077 114.949 20.3917 114.813 19.9757 114.789C19.5597 114.765 19.0717 114.773 18.8957 114.805ZM176.872 116.086C176.848 116.142 176.56 117.206 176.24 118.463C175.92 119.719 175.656 121.032 175.656 121.384C175.656 121.728 175.728 122.232 175.808 122.504C175.896 122.776 176.168 123.233 176.408 123.505C176.656 123.785 177.08 124.129 177.36 124.265C177.64 124.401 178.128 124.545 178.44 124.577C178.752 124.617 179.24 124.577 179.52 124.489C179.8 124.401 180.2 124.193 180.408 124.033L180.784 123.737C181.52 124.473 181.92 124.697 182.368 124.825C182.808 124.953 183.272 124.993 183.608 124.945C183.904 124.905 184.36 124.761 184.624 124.625C184.888 124.497 185.312 124.153 185.576 123.865C185.832 123.577 186.112 123.185 186.184 123.001C186.256 122.808 186.544 121.736 186.824 120.616C187.096 119.503 187.304 118.583 187.288 118.583C187.272 118.575 184.96 117.991 182.152 117.278C179.344 116.574 177.016 115.99 176.984 115.99C176.96 115.99 176.904 116.038 176.872 116.086Z" fill="white"/>
<path d="M178.2 119.985C178.056 120.577 177.928 121.161 177.928 121.289C177.928 121.409 178.04 121.665 178.184 121.857C178.384 122.129 178.544 122.209 178.912 122.209C179.248 122.209 179.472 122.129 179.656 121.921C179.808 121.761 180.048 121.161 180.208 120.561C180.36 119.961 180.44 119.448 180.384 119.4C180.328 119.36 179.896 119.232 179.424 119.12C178.952 119 178.544 118.912 178.52 118.912C178.488 118.912 178.344 119.392 178.2 119.985ZM182.32 120.745C182.176 121.345 182.152 121.657 182.248 121.889C182.312 122.065 182.504 122.297 182.656 122.401C182.832 122.53 183.088 122.578 183.32 122.53C183.536 122.498 183.8 122.361 183.928 122.241C184.048 122.113 184.232 121.673 184.344 121.257C184.448 120.833 184.52 120.481 184.504 120.465C184.48 120.449 184.04 120.321 183.512 120.177C182.992 120.041 182.552 119.929 182.544 119.929C182.536 119.921 182.432 120.297 182.32 120.745Z" fill="#000100"/>
<path d="M24.5997 126.289C24.0797 126.505 23.6397 126.689 23.6237 126.697C23.6077 126.697 23.9597 127.617 24.4157 128.73C24.8717 129.85 25.1997 130.803 25.1437 130.843C25.0877 130.891 23.3917 131.595 21.3677 132.411C19.3437 133.228 17.6477 133.932 17.5917 133.98C17.5357 134.02 17.6877 134.54 17.9197 135.132C18.2077 135.845 18.4157 136.205 18.5277 136.173C18.6237 136.157 20.8557 135.268 23.4877 134.212C26.1197 133.148 28.2797 132.227 28.2797 132.155C28.2797 132.083 27.7277 130.643 27.0477 128.954C26.3677 127.265 25.7517 125.889 25.6797 125.889C25.6077 125.897 25.1277 126.081 24.5997 126.289ZM174.568 129.738C174.296 129.826 173.808 130.026 173.496 130.194C173.184 130.354 172.648 130.747 172.304 131.067C171.968 131.387 171.544 131.907 171.36 132.219C171.176 132.531 170.928 133.115 170.808 133.516C170.68 133.924 170.576 134.604 170.576 135.044C170.576 135.476 170.664 136.149 170.784 136.533C170.896 136.917 171.096 137.445 171.224 137.701C171.36 137.965 171.704 138.446 172 138.766C172.304 139.086 172.768 139.51 173.048 139.694C173.328 139.886 173.816 140.142 174.128 140.262C174.44 140.382 175.04 140.534 175.456 140.59C175.896 140.654 176.544 140.646 176.984 140.574C177.4 140.51 178.144 140.262 178.632 140.03C179.256 139.726 179.72 139.382 180.192 138.862C180.568 138.454 181.016 137.805 181.192 137.421C181.376 137.037 181.576 136.349 181.656 135.901C181.752 135.284 181.752 134.852 181.64 134.22C181.552 133.748 181.328 133.035 181.136 132.635C180.944 132.227 180.472 131.587 180.088 131.195C179.704 130.803 179.136 130.354 178.824 130.194C178.504 130.034 177.992 129.826 177.68 129.73C177.368 129.634 176.648 129.562 176.096 129.57C175.536 129.57 174.848 129.65 174.568 129.738Z" fill="white"/>
<path d="M175.064 132.124C174.848 132.212 174.48 132.42 174.24 132.58C174.008 132.74 173.68 133.052 173.528 133.276C173.376 133.5 173.184 133.876 173.112 134.124C173.048 134.364 172.984 134.765 172.984 135.013C172.984 135.253 173.064 135.709 173.168 136.021C173.272 136.341 173.576 136.821 173.84 137.101C174.104 137.382 174.544 137.718 174.824 137.854C175.104 137.982 175.56 138.118 175.84 138.15C176.12 138.182 176.664 138.142 177.048 138.046C177.608 137.918 177.864 137.758 178.384 137.238C178.856 136.765 179.072 136.429 179.192 135.957C179.296 135.581 179.336 135.109 179.28 134.789C179.24 134.492 179.096 134.036 178.96 133.772C178.832 133.508 178.56 133.132 178.36 132.932C178.095 132.692 177.802 132.485 177.488 132.316C177.2 132.172 176.656 132.035 176.224 132.011C175.8 131.987 175.28 132.043 175.064 132.124ZM98.2242 134.372L96.5762 136.029L100 139.446L103.424 136.021C100.872 133.468 100.072 132.724 100 132.724C99.9282 132.724 99.1282 133.468 98.2242 134.372Z" fill="#000100"/>
<path d="M28.1199 138.28C28.0879 138.328 28.1039 138.888 28.1439 139.512L28.2159 140.657C29.5199 140.801 29.8879 140.937 30.2479 141.185C30.5279 141.385 30.9439 141.833 31.1679 142.177C31.3999 142.529 31.6159 143.033 31.6639 143.314C31.7039 143.594 31.6639 144.138 31.5679 144.522C31.4799 144.906 31.2319 145.442 31.0159 145.715C30.7999 145.995 30.3119 146.379 29.9279 146.579C29.3759 146.859 29.0639 146.939 28.4399 146.931C28.0079 146.931 27.4639 146.851 27.2319 146.755C27.0079 146.667 26.6239 146.419 26.3919 146.219C26.1519 146.019 25.8239 145.57 25.6639 145.218C25.4639 144.786 25.3679 144.346 25.3679 143.858C25.3679 143.458 25.4479 142.913 25.5599 142.649C25.6639 142.385 25.7519 142.161 25.7519 142.145C25.7439 142.129 25.3039 141.873 24.7679 141.569C24.2239 141.273 23.7439 141.017 23.6879 141.001C23.6319 140.985 23.4719 141.241 23.3279 141.569C23.1839 141.905 23.0159 142.521 22.9439 142.937C22.8559 143.458 22.8559 143.954 22.9439 144.522C23.0239 144.97 23.2719 145.747 23.5039 146.235C23.7679 146.787 24.1839 147.379 24.6159 147.811C25.0079 148.204 25.6319 148.652 26.0639 148.86C26.4799 149.052 27.2239 149.284 27.7119 149.364C28.3919 149.476 28.7919 149.476 29.4239 149.364C29.8799 149.276 30.5599 149.06 30.9439 148.884C31.3279 148.7 31.9759 148.228 32.3839 147.835C32.8159 147.419 33.2719 146.803 33.4959 146.363C33.7039 145.939 33.9359 145.202 34.0159 144.714C34.1359 144.026 34.1279 143.634 34.0159 143.001C33.9359 142.545 33.6879 141.801 33.4719 141.353C33.2239 140.833 32.8079 140.264 32.3599 139.824C31.9679 139.44 31.3279 138.976 30.9439 138.792C30.5599 138.608 29.9919 138.392 29.6799 138.32C29.3599 138.248 28.8959 138.184 28.6399 138.184C28.3759 138.184 28.1439 138.224 28.1199 138.28ZM165.6 143.033C165.152 143.674 164.28 144.922 163.664 145.811C163.048 146.691 162.552 147.443 162.568 147.491C162.576 147.531 163.016 147.851 163.536 148.195L164.488 148.828C166.36 146.083 166.96 145.282 167.024 145.282C167.096 145.282 168.624 146.291 170.416 147.523C172.216 148.756 173.768 149.764 173.872 149.772C173.968 149.78 174.328 149.38 174.664 148.892C175 148.404 175.272 147.979 175.28 147.947C175.28 147.907 173.312 146.523 170.896 144.866C168.488 143.21 166.496 141.857 166.464 141.857C166.432 141.857 166.04 142.385 165.6 143.033Z" fill="white"/>
<path d="M48.3922 162.743C48.1282 163.984 47.8802 165.064 47.8322 165.144C47.7842 165.232 46.8082 165.504 45.6562 165.752C44.5042 166 43.4642 166.232 43.3442 166.264C43.2162 166.296 43.1202 166.368 43.1202 166.424C43.1122 166.472 44.1282 166.745 45.3682 167.017C46.6082 167.289 47.6882 167.577 47.7602 167.649C47.8402 167.721 48.1282 168.801 48.4002 170.034C48.6722 171.29 48.9442 172.267 49.0162 172.243C49.0882 172.219 49.3602 171.178 49.6322 169.93C49.9042 168.681 50.1682 167.633 50.2162 167.593C50.2722 167.561 51.3522 167.305 52.6162 167.025C53.8802 166.745 54.9202 166.472 54.9202 166.424C54.9122 166.368 54.8162 166.304 54.6962 166.272C54.5682 166.24 53.4962 166 52.2962 165.736L50.1282 165.248C49.4002 161.911 49.1682 160.838 49.1362 160.718C49.1042 160.598 49.0322 160.494 48.9682 160.494C48.9122 160.494 48.6482 161.511 48.3922 162.743ZM150.36 162.807C150.088 164.08 149.832 165.16 149.792 165.208C149.752 165.264 148.776 165.504 147.624 165.752C146.472 166 145.432 166.232 145.304 166.264C145.184 166.296 145.088 166.368 145.08 166.424C145.08 166.472 146.096 166.737 147.336 167.009C148.576 167.281 149.648 167.553 149.712 167.601C149.784 167.657 150.072 168.729 150.352 169.994C150.632 171.258 150.912 172.267 150.984 172.243C151.056 172.219 151.328 171.178 151.6 169.93C151.872 168.681 152.136 167.633 152.192 167.593C152.248 167.561 153.328 167.305 154.584 167.025C155.848 166.745 156.88 166.472 156.88 166.424C156.88 166.368 156.752 166.296 156.592 166.264C156.44 166.224 155.4 165.992 154.28 165.744C153.168 165.496 152.216 165.256 152.168 165.208C152.12 165.16 151.904 164.296 151.68 163.287C151.464 162.271 151.224 161.23 151.16 160.966C151.096 160.71 151 160.494 150.944 160.494C150.888 160.494 150.624 161.535 150.36 162.807Z" fill="#F6B4CD"/>
<path d="M125.216 174.102C124.576 174.326 124 174.566 123.936 174.638C123.864 174.702 123.544 175.574 123.224 176.567C122.904 177.559 122.592 178.375 122.544 178.375C122.488 178.375 121.76 177.831 120.928 177.175C120.088 176.511 119.32 175.966 119.216 175.966C119.112 175.966 118.48 176.11 117.816 176.286C117.152 176.454 116.6 176.615 116.584 176.631C116.56 176.647 117.688 177.559 119.088 178.663C120.48 179.76 121.624 180.728 121.624 180.816C121.616 180.904 121.112 182.345 120.488 184.017C119.872 185.69 119.4 187.075 119.448 187.099C119.496 187.115 120.104 186.987 120.8 186.811C121.496 186.634 122.072 186.474 122.08 186.458C122.088 186.442 122.424 185.514 122.832 184.394C123.24 183.281 123.6 182.329 123.64 182.281C123.68 182.233 124.544 182.809 125.552 183.561L127.392 184.938C129.456 184.258 130 184.017 129.928 183.961C129.864 183.905 128.616 182.977 127.168 181.881C125.112 180.328 124.56 179.848 124.616 179.672C124.656 179.552 125.144 178.151 125.696 176.567C126.328 174.742 126.64 173.685 126.536 173.693C126.448 173.693 125.856 173.877 125.216 174.102ZM72.8722 174.086C72.8322 174.174 72.1682 176.494 71.4002 179.232C70.6322 181.969 70.0322 184.266 70.0722 184.33C70.1042 184.402 70.6002 184.61 71.1762 184.786C71.7522 184.97 72.2642 185.066 72.3042 185.01C72.3522 184.954 72.7442 183.617 73.1762 182.049C73.6082 180.48 74.0082 179.112 74.0642 179.007C74.1202 178.887 74.4562 179.64 75.0322 181.2C75.5122 182.505 75.9442 183.577 76.0002 183.577C76.0482 183.569 76.9202 182.913 77.9362 182.113C78.9442 181.312 79.8242 180.672 79.8882 180.688C79.9442 180.704 79.6402 182.001 79.1922 183.569C78.7522 185.138 78.3842 186.522 78.3842 186.65C78.3762 186.787 78.5042 186.899 78.7282 186.947C78.9202 186.987 79.4162 187.107 79.8322 187.203C80.2562 187.307 80.6322 187.339 80.6802 187.291C80.7282 187.235 81.3922 184.93 82.1682 182.177C82.9442 179.424 83.5762 177.111 83.5762 177.047C83.5762 176.975 83.1362 176.815 82.5922 176.695C82.0562 176.575 81.5522 176.47 81.4802 176.47C81.4162 176.462 80.3842 177.231 79.2002 178.175C77.1282 179.824 77.0402 179.88 76.9042 179.608C76.8322 179.456 76.3842 178.271 75.9202 176.983L75.0722 174.638C73.6562 174.166 73.1762 174.006 73.0962 173.974C73.0162 173.934 72.9202 173.99 72.8722 174.086ZM111.936 177.471L110.808 177.679C109.368 180.328 108.888 181.096 108.824 181.096C108.752 181.096 108.112 180.448 107.4 179.64L106.104 178.183C104.912 178.247 104.264 178.303 103.888 178.351L103.216 178.439C106.576 182.169 107.544 183.297 107.544 183.353C107.544 183.401 106.808 184.73 105.896 186.298C104.992 187.867 104.264 189.179 104.28 189.203C104.296 189.235 104.912 189.219 105.64 189.171L106.96 189.091C108.744 186.002 109.288 185.114 109.328 185.13C109.368 185.146 110.096 185.898 110.944 186.803L112.496 188.451C114.512 188.107 115.104 187.995 115.12 187.979C115.136 187.963 114.12 186.835 112.864 185.474C111.608 184.113 110.584 182.977 110.592 182.937C110.592 182.905 111.28 181.649 112.112 180.152C112.944 178.647 113.624 177.383 113.632 177.327C113.632 177.279 113.504 177.239 113.352 177.247C113.192 177.255 112.552 177.351 111.936 177.471ZM87.9522 183.041C87.7442 185.986 87.6162 188.419 87.6802 188.475C87.7362 188.531 88.2802 188.651 88.8882 188.731C89.4882 188.819 89.9922 188.875 90.0002 188.859C90.0082 188.843 90.1042 187.555 90.2162 185.978C90.3362 184.41 90.4242 182.969 90.4242 182.777C90.4242 182.585 90.4642 182.433 90.5202 182.425C90.5762 182.425 91.2002 183.369 91.9122 184.522C92.6322 185.674 93.2402 186.618 93.2802 186.618C93.3122 186.618 94.0802 185.73 94.9922 184.65C96.5282 182.817 96.6402 182.713 96.6322 183.097C96.6322 183.321 96.5522 184.562 96.4482 185.858C96.3522 187.147 96.2642 188.443 96.2642 188.739L96.2562 189.275H98.6722C98.7682 188.443 98.9362 186.034 99.1122 183.385C99.2962 180.736 99.4242 178.559 99.4002 178.551C99.3842 178.543 98.8802 178.503 98.2882 178.471L97.2082 178.399C94.4562 181.713 93.6322 182.681 93.5922 182.689C93.5602 182.689 92.8722 181.641 92.0722 180.352C90.6242 178.031 90.6082 178.015 90.1042 177.943C89.8322 177.903 89.3122 177.839 88.9682 177.791L88.3362 177.719" fill="white"/>
</g>
<defs>
<clipPath id="clip0_48_203">
<rect width="200" height="200" fill="white"/>
</clipPath>
</defs>
</svg>
