<svg width="200" height="200" viewBox="0 0 200 200" fill="none" xmlns="http://www.w3.org/2000/svg">
<path d="M99.5869 198.417L92.9234 192.446C86.2377 186.46 78.4081 185.215 69.3409 183.771C68.0003 183.563 66.5946 183.337 65.1326 183.089C48.1368 180.221 42.3974 177.219 35.964 171.575C29.9494 166.295 27.0182 156.427 27 141.406L27.0198 0H172.14L172.185 141.413C172.128 151.797 171.053 164.61 163.153 171.593C157.422 176.66 152.603 179.962 134.043 183.093C132.833 183.299 131.641 183.49 130.471 183.678L129.864 183.775C120.783 185.217 112.942 186.459 106.256 192.446L99.5869 198.417Z" fill="#C6A566"/>
<path d="M93.5863 191.707L99.5874 197.08L105.59 191.705C112.494 185.522 120.468 184.258 129.702 182.793L130.259 182.702C131.481 182.507 132.667 182.317 133.874 182.111C152.175 179.025 156.895 175.796 162.496 170.846C170.185 164.049 171.141 150.79 171.192 141.408L171.149 0.992188H28.0159L27.9961 141.406C28.012 156.125 30.8344 165.747 36.6229 170.828C42.1148 175.647 47.0783 179.037 65.2998 182.111C66.7594 182.361 68.1595 182.584 69.4906 182.793C78.7204 184.26 86.6848 185.526 93.5863 191.707Z" fill="#17191D"/>
<path d="M95.787 189.247C88.1597 182.417 79.3425 181.014 70.0073 179.531C68.6825 179.325 67.2943 179.101 65.8529 178.855C34.6931 173.6 31.3193 163.509 31.2939 141.401L31.3138 4.29297H167.844L167.888 141.413C167.844 149.798 167.223 162.26 160.308 168.374C154.918 173.14 150.372 175.981 133.326 178.857C132.105 179.065 130.913 179.257 129.739 179.444L129.181 179.533C119.837 181.014 111.019 182.413 103.391 189.247L99.5908 192.65L95.787 189.247Z" fill="#C6A566"/>
<path d="M162.15 9.99023H37.0095L36.9912 141.396C37.0134 159.46 36.9857 168.209 66.8088 173.24C68.2247 173.481 69.5868 173.698 70.8997 173.904C80.649 175.453 90.714 177.058 99.5868 185.002C108.464 177.054 118.534 175.453 128.277 173.908C129.61 173.694 130.966 173.48 132.374 173.24C162.201 168.209 162.094 159.46 162.19 141.413L162.15 9.99023Z" fill="#17191D"/>
<path d="M87.3564 26.6328C87.3247 26.6328 87.2953 26.6542 87.2755 26.7018L82.6959 36.2727H85.159L85.5041 35.4715H89.0445L89.4054 36.2727H92.005L87.4421 26.7018C87.4222 26.6542 87.3881 26.6328 87.3564 26.6328ZM92.9156 26.6566C92.8855 26.6685 92.8736 26.7042 92.8736 26.7455V36.275H95.2399V31.5844L101.143 36.4377C101.297 36.5622 101.338 36.521 101.338 36.4099V26.8684H98.9699V31.5828L93.0664 26.7177C92.991 26.6566 92.945 26.6447 92.9156 26.6566ZM67.9315 26.7597C65.2225 26.7597 62.8839 28.7366 62.8839 31.5709C62.8839 34.4053 65.2225 36.398 67.9315 36.398C70.6421 36.398 72.9783 34.4069 72.9783 31.5709C72.9783 28.735 70.6421 26.7597 67.9315 26.7597ZM76.9764 26.7597C75.3026 26.7597 73.77 27.7117 73.77 29.564C73.77 31.1124 74.7354 31.9438 76.1062 32.3999L77.2104 32.7727C77.8331 32.9806 78.137 33.1733 78.137 33.574C78.137 34.0991 77.6943 34.3212 76.9471 34.3212C76.007 34.3212 75.4438 33.8651 74.9877 33.2979L73.1592 34.6647C73.7399 35.4381 74.944 36.4075 77.0597 36.4075C79.549 36.4075 80.6278 35.1645 80.6278 33.4367C80.6278 32.1104 79.9908 31.2076 78.1092 30.5849L76.8654 30.1708C76.4092 30.0177 76.203 29.8392 76.203 29.4807C76.203 29.1078 76.5044 28.8302 77.1136 28.8302C77.8593 28.8302 78.2758 29.1078 78.6621 29.5084L80.1003 28.0012C79.545 27.3547 78.6343 26.7613 76.9764 26.7597ZM107.513 26.7597C104.803 26.7597 102.51 28.7366 102.51 31.5709C102.51 34.4053 104.808 36.398 107.573 36.398C109.662 36.398 110.792 35.8149 111.662 35.097V31.168H107.557V33.1059H109.424V33.9071C109.023 34.1015 108.511 34.28 107.599 34.28C105.939 34.28 105.08 33.0504 105.08 31.5725C105.08 30.0931 105.923 28.9468 107.458 28.9468C108.398 28.9468 109.06 29.3458 109.531 29.9542L111.289 28.4351C110.472 27.3825 109.171 26.7613 107.513 26.7597ZM139.659 26.7597C137.985 26.7597 136.452 27.7117 136.452 29.564C136.452 31.1124 137.418 31.9438 138.788 32.3999L139.893 32.7727C140.516 32.9806 140.823 33.1733 140.823 33.574C140.823 34.0991 140.381 34.3212 139.633 34.3212C138.693 34.3212 138.126 33.8651 137.67 33.2979L135.845 34.6647C136.427 35.4381 137.628 36.4075 139.743 36.4075C142.231 36.4075 143.31 35.1645 143.31 33.4367C143.31 32.1104 142.675 31.2076 140.795 30.5849L139.546 30.1708C139.09 30.0177 138.883 29.8392 138.883 29.4807C138.883 29.1078 139.189 28.8302 139.798 28.8302C140.544 28.8302 140.956 29.1078 141.343 29.5084L142.785 28.0012C142.231 27.3523 141.317 26.7574 139.659 26.7574V26.7597ZM55.8777 26.8684V36.2727H62.3881V34.1546H58.394V26.8684H55.8777ZM112.922 26.8684V36.2727H119.708V34.1546H115.437V33.1749H118.837V31.168H115.437V28.9825H119.516V26.8684H112.922ZM120.924 26.8684V36.2727H127.439V34.1546H123.441V26.8684H120.924ZM128.597 26.8684V36.2727H135.387V34.1546H131.116V33.1749H134.516V31.168H131.116V28.9825H135.195V26.8684H128.597ZM67.9315 28.9452C69.5077 28.9452 70.4065 30.0915 70.4065 31.5709C70.4065 33.0504 69.5077 34.2125 67.9315 34.2125C66.3545 34.2125 65.4565 33.0504 65.4565 31.5709C65.4565 30.0915 66.3545 28.9452 67.9315 28.9452ZM87.2477 31.4043L88.2115 33.5898H86.3053L87.2477 31.4043ZM79.7291 47.0874V60.1938C91.3529 70.5762 110.667 89.295 122.522 99.9273V100.625L83.6304 66.3377V74.6695H83.6343C95.466 83.6295 110.528 95.7245 122.522 104.808V105.474L87.6087 79.3537V87.173C99.2222 94.1578 111.321 102.273 122.522 108.964V109.72L91.571 91.1894V97.484C105.235 104.375 116.635 110.609 130.138 117.393V133.929H143.397V47.5713C128.63 49.0904 117.444 56.4773 109.866 66.6352C108.64 68.2122 107.509 69.8612 106.481 71.5733L116.051 82.1833C119.226 75.8237 123.925 70.8157 130.14 67.2048V102.958L79.7291 47.0874ZM55.7881 47.1389V133.887H97.8458C96.0411 129.532 94.71 123.18 94.1532 120.245H69.0461V56.8962L55.7881 47.1389ZM97.8895 105.732C97.8855 111.283 98.3987 116.294 98.9977 120.231C99.553 123.164 100.882 129.528 102.689 133.889H115.986C115.986 133.889 112.426 123.989 111.353 112.179C111.173 112.094 110.99 112.009 110.812 111.923C106.704 109.982 102.492 107.989 97.8895 105.732ZM96.5409 146.318C96.5147 146.318 96.487 146.339 96.4711 146.379L92.6991 154.266H94.7283L95.0115 153.604H97.9331L98.2266 154.266H100.368L96.6083 146.379C96.5901 146.339 96.5663 146.318 96.5409 146.318ZM65.8254 146.427C63.5899 146.427 61.6647 148.057 61.6647 150.393C61.6647 152.729 63.5899 154.371 65.8254 154.371C68.0584 154.371 69.9861 152.729 69.9861 150.393C69.9861 148.057 68.06 146.427 65.8254 146.427ZM74.7378 146.427C72.5047 146.427 70.5771 148.057 70.5771 150.393C70.5771 152.729 72.5023 154.371 74.7378 154.371C76.9709 154.371 78.8985 152.729 78.8985 150.393C78.8985 148.057 76.9724 146.427 74.7378 146.427ZM118.673 146.427C116.599 146.427 114.748 148.057 114.748 150.393C114.748 152.729 116.607 154.367 118.784 154.367C120.357 154.367 121.43 153.812 122.193 152.523L120.597 151.496C120.265 152.11 119.776 152.569 118.772 152.569C117.586 152.569 116.87 151.613 116.87 150.391C116.87 149.171 117.563 148.226 118.703 148.226C119.682 148.226 120.165 148.691 120.462 149.147L122.022 148.087C121.374 147.131 120.349 146.425 118.673 146.427ZM55.8619 146.514V154.264H57.9379V151.801H60.75V150.058H57.9379V148.257H61.1292V146.514H55.8619ZM79.0548 146.514V148.257H81.1078V154.264H83.1798V148.257H85.2328V146.514H79.0548ZM86.1665 146.514V154.264H89.4705C91.3965 154.264 92.5507 153.422 92.5507 151.94C92.5507 150.754 91.8328 150.149 90.9896 149.911C91.4917 149.673 91.8765 149.274 91.8765 148.408C91.8765 147.222 90.8745 146.514 89.3356 146.514H86.1665ZM101.088 146.514V154.264H106.453V152.521H103.161V146.514H101.088ZM107.409 146.514V154.264H112.777V152.521H109.485V146.514H107.409ZM122.993 146.514V154.264H128.361V152.521H125.065V146.514H122.993ZM128.954 146.514V151.266C128.954 153.352 130.378 154.379 132.315 154.379C134.253 154.379 135.677 153.35 135.677 151.266V146.514H133.6V151.244C133.6 152.121 133.192 152.622 132.315 152.622C131.439 152.622 131.026 152.121 131.026 151.244V146.514H128.954ZM136.94 146.514V154.264H140.244C142.172 154.264 143.324 153.422 143.324 151.94C143.324 150.754 142.606 150.149 141.763 149.911C142.265 149.673 142.65 149.274 142.65 148.408C142.65 147.222 141.648 146.514 140.109 146.514H136.94ZM88.1735 148.158H89.2007C89.6569 148.158 89.8354 148.42 89.8354 148.785C89.8354 149.15 89.6331 149.378 89.1769 149.378H88.1735V148.158ZM138.947 148.158H139.974C140.43 148.158 140.613 148.42 140.613 148.785C140.613 149.15 140.407 149.378 139.95 149.378H138.947V148.158ZM65.8254 148.227C67.124 148.227 67.8657 149.174 67.8657 150.393C67.8657 151.613 67.124 152.57 65.8254 152.57C64.526 152.57 63.7843 151.613 63.7843 150.393C63.7843 149.171 64.526 148.227 65.8254 148.227ZM74.7378 148.227C76.0364 148.227 76.7741 149.174 76.7741 150.393C76.7741 151.613 76.0364 152.57 74.7378 152.57C73.4384 152.57 72.6967 151.613 72.6967 150.393C72.6967 149.171 73.4384 148.227 74.7378 148.227ZM96.4473 150.253L97.2445 152.053H95.6723L96.4473 150.253ZM88.1735 150.881H89.4252C90.2122 150.881 90.4739 151.214 90.4739 151.749C90.4739 152.285 90.2225 152.624 89.4252 152.624H88.1735V150.881ZM138.947 150.881H140.203C140.99 150.881 141.247 151.214 141.247 151.749C141.247 152.285 141 152.624 140.203 152.624H138.947V150.881Z" fill="#C6A566"/>
</svg>
