<svg width="200" height="200" viewBox="0 0 200 200" fill="none" xmlns="http://www.w3.org/2000/svg">
<path d="M99.6112 200C51.4366 174.785 21.4747 106.2 21 49.276C37.4026 45.4462 70.0336 38.7743 99.6112 0C129.276 38.7743 161.875 45.4462 178.342 49.276C177.808 106.2 147.847 174.785 99.6112 200Z" fill="#FFD900"/>
<path d="M31.2646 56.8699C32.4188 81.7288 39.4792 108.751 51.0217 132.04C63.5401 157.433 80.7131 177.039 99.6118 188.166C118.566 177.039 135.771 157.433 148.29 132.04C159.831 108.751 166.859 81.7288 168.138 56.8699C151.79 52.8624 124.946 44.2324 99.6118 15.1284C74.3375 44.2324 47.4889 52.8624 31.2646 56.8699Z" fill="#3365B1"/>
<path d="M36.1895 60.2802C37.7578 83.8066 44.377 108.396 55.023 129.906C66.5069 153.098 82.2876 171.582 99.6114 182.439C116.995 171.582 132.777 153.098 144.254 129.906C154.907 108.396 161.519 83.8066 163.095 60.2802C146.153 55.8895 122.395 46.7849 99.6114 21.9524C76.8889 46.7849 53.0656 55.8895 36.1895 60.2802Z" fill="#00245D"/>
<path d="M97.4167 10.8303L99.6112 8.27966V0C70.0336 38.7743 37.4026 45.4462 21 49.276L26.4585 53.2776L28.3567 52.8628C45.5309 48.6822 74.5152 39.0125 97.4167 10.8303ZM178.283 49.276L172.646 53.2776L172.528 55.2356C172.468 80.9253 163.656 111.243 151.908 134.942C139.212 160.519 120.641 180.928 101.122 192.405L99.6112 193.268V200C147.847 174.785 177.808 106.2 178.342 49.276H178.283Z" fill="#F5BF0B"/>
<path d="M150.517 167.758H149.18V166.776H153.068V167.758H151.611V171.76H150.517V167.758ZM157.874 169.802V167.812H157.815C157.637 168.438 157.458 169.149 157.28 169.743L156.654 171.7H155.797L155.263 169.743C155.085 169.149 154.908 168.438 154.729 167.812C154.729 168.438 154.729 169.208 154.669 169.802L154.551 171.76H153.51L153.867 166.776H155.322L155.883 168.438C156.061 169.03 156.12 169.683 156.299 170.185C156.418 169.683 156.654 168.971 156.773 168.438L157.28 166.776H158.791L159.147 171.76H157.992L157.874 169.802Z" fill="#FCCE19" stroke="black" stroke-width="0.88013"/>
<path d="M92.4934 121.328H66.863C65.169 121.328 63.6587 120.735 62.3802 119.516C61.1075 118.302 60.4814 116.787 60.4814 115.007V76.9228H70.0343V112.461H92.4934V121.328Z" fill="#C7BFCD"/>
<path d="M62.2607 78.0182V113.971C62.2607 115.072 62.6175 115.989 63.5393 116.852C64.3103 117.683 65.2866 118.125 66.4466 118.125H89.8222V113.615H67.3631V78.0182H62.2607Z" fill="white"/>
<path d="M96.8223 121.328H106.552L110.318 111.684H125.005L121.86 103.53H113.58L119.486 88.4595L132.183 121.328H142.328C142.328 121.328 127.259 84.2795 126.724 82.7639C125.506 79.4746 123.607 76.9228 119.486 76.9228H119.368C115.334 76.9228 113.58 79.4746 112.426 82.7639L96.8223 121.328Z" fill="#C7BFCD"/>
<path d="M99.4922 118.125H104.417C105.188 116.048 108.181 108.395 108.181 108.395H122.216C121.471 106.648 121.116 105.665 120.7 104.63H109.698L119.039 80.807L129.988 108.81C129.988 108.929 132.243 115.277 133.337 118.125H138.677C136.541 113.023 125.566 85.494 124.411 82.7052C123.251 79.7708 121.86 78.2558 119.665 78.2558H119.486C116.191 78.2558 114.978 79.7708 113.818 82.5867C113.818 82.5867 101.122 114.031 99.4922 118.125Z" fill="white"/>
<path d="M146.866 136.96C132.659 134.204 116.58 132.753 99.5529 132.753C81.8137 132.753 65.1095 134.414 50.3368 137.435C44.0205 138.654 38.5027 139.872 34.6143 141.086C38.2058 146.841 42.3271 153.367 45.8599 158.766C49.3599 157.843 53.0658 157.045 56.8955 156.274C69.6509 153.724 84.2458 152.331 99.5529 152.331C114.385 152.331 128.176 153.604 140.61 156.037C145.118 156.867 149.417 157.671 153.392 158.647C157.011 153.097 161.105 146.722 164.696 141.205C160.425 139.991 154.282 138.357 146.866 136.96Z" fill="#FCCE19"/>
<path d="M91.7803 143.222C91.5426 142.957 91.4834 142.417 91.4834 141.738V136.161L88.366 136.339V142.008C88.366 143.222 88.5443 143.993 89.5254 144.791C90.6203 145.713 91.8988 145.713 93.5276 145.654L96.8821 145.503V143.399L93.706 143.578C92.6974 143.696 92.1358 143.518 91.7803 143.222ZM129.454 137.855L125.803 137.498C125.803 137.498 124.174 139.424 123.667 139.991C123.252 139.306 121.623 137.143 121.623 137.143L117.912 136.754C117.912 136.754 121.801 141.619 122.038 141.857C121.801 142.18 117.707 146.306 117.707 146.306L121.472 146.662C121.472 146.662 123.371 144.554 123.786 143.933C124.233 144.618 125.981 147.018 125.981 147.018L129.811 147.347C129.811 147.347 125.803 142.417 125.566 142.062C125.803 141.797 129.454 137.855 129.454 137.855ZM75.5513 142.957C75.9069 142.364 76.7107 140.465 77.1854 139.634C77.6278 140.465 78.3982 142.062 78.7867 142.72L75.5513 142.957ZM75.7285 137.262L70.6267 147.111L73.9225 146.841C73.9225 146.841 74.3966 145.773 74.575 145.384L79.7953 144.974C79.8551 145.265 80.4161 146.306 80.4161 146.306L83.8896 146.069L78.7867 136.959L75.7285 137.262ZM54.0469 144.737C54.0469 146.365 54.7263 147.519 55.9456 148.205C57.159 148.798 58.2867 148.68 59.7102 148.501L65.5243 147.822V142.062L60.3034 142.72V144.617C61.7597 144.554 61.9968 144.554 62.6176 144.467V145.951C62.0566 146.069 59.7102 146.306 59.7102 146.306C58.2867 146.543 57.4559 146.247 57.4559 144.171C57.4559 141.738 58.5561 141.263 59.7102 141.085L65.5243 140.281V138.297L59.7102 139.009C55.9456 139.516 54.0469 141.382 54.0469 144.737ZM105.869 142.008C106.224 141.382 107.028 139.634 107.503 138.831C107.945 139.688 108.776 141.442 109.105 142.062L105.869 142.008ZM106.047 136.28L100.944 145.654L104.239 145.713C104.239 145.713 104.773 144.554 104.891 144.289L110.054 144.348C110.231 144.737 110.734 145.891 110.734 145.891L114.207 146.069L109.105 136.339L106.047 136.28ZM142.744 139.688C142.744 139.688 140.609 142.008 140.074 142.536C139.659 141.797 137.523 138.89 137.523 138.89L133.931 138.475C133.931 138.475 138.5 144.289 138.618 144.467V148.62L141.644 149.035V144.91C141.822 144.791 146.45 140.228 146.45 140.228L142.744 139.688Z" fill="#14162E"/>
<path d="M158.229 143.163C155.144 147.995 150.959 153.901 150.959 153.901C147.134 153.162 142.981 152.385 138.678 151.706C126.903 149.775 113.64 148.621 99.5524 148.621C84.8983 148.621 71.0744 149.84 58.8524 151.943C55.201 152.623 51.6729 153.308 48.3507 154.079L45.8594 158.766C48.5291 158.081 52.6498 157.105 54.0469 156.867C54.1654 156.867 57.159 161.495 57.2775 161.377C57.3374 161.199 59.4456 159.181 60.6596 158.027C62.0566 156.808 64.548 154.942 64.6072 154.942C75.4921 153.485 87.2118 152.331 99.5524 152.331C114.266 152.331 128.176 153.604 140.609 156.037C146.687 157.105 151.137 158.081 153.51 158.647C157.221 153.097 160.78 147.111 164.696 141.205L158.229 143.163Z" fill="#F5BF0B"/>
<path d="M99.3735 30.1993C99.3735 38.2407 96.2573 45.9541 90.5611 51.6497C84.8978 57.313 77.4489 60.5161 69.2937 60.5161C69.1159 60.5161 69.0566 60.6945 69.0566 60.8722C69.0566 61.0829 69.1159 61.2014 69.2937 61.2014C77.4489 61.2613 84.8978 64.4051 90.5611 70.1869C96.2573 75.8825 99.3735 83.4774 99.3735 91.5189C99.3735 91.5781 99.492 91.6374 99.492 91.7559C99.6105 91.8157 99.7302 91.8157 99.7889 91.7559H99.9074C99.9673 91.6374 100.086 91.5781 100.086 91.5189C100.086 83.3583 103.138 75.7634 108.775 70.069C114.563 64.4051 122.037 61.2613 130.106 61.2014C130.285 61.2014 130.403 61.023 130.403 60.813C130.403 60.6346 130.285 60.5161 130.106 60.5161C122.037 60.4574 114.563 57.313 108.775 51.5312C103.138 45.8356 99.9673 38.2407 99.9673 30.1993C99.9673 30.0209 99.9074 29.9023 99.7302 29.9023C99.5519 29.9023 99.3735 30.0209 99.3735 30.1993Z" fill="#3365B1"/>
<path d="M99.6114 40.523L99.7311 40.6421C100.588 51.4125 108.986 59.9233 119.665 60.8727C119.725 60.8727 119.844 60.8727 119.844 61.0235C119.844 61.0235 119.725 61.0834 119.665 61.0834C118.091 61.2019 116.489 61.4988 114.978 62.0327C106.613 64.7294 100.47 72.0597 99.7311 81.1637C99.7311 81.1637 99.7311 81.2559 99.6114 81.2559C99.5527 81.2559 99.5527 81.1637 99.5527 81.1637C98.841 72.0597 92.6977 64.7294 84.3641 62.0327C82.7898 61.4988 81.3382 61.2019 79.6179 61.0834L79.5586 61.0235C79.5586 60.8727 79.5586 60.8727 79.6179 60.8727C84.803 60.4203 89.6574 58.1356 93.3106 54.4282C96.9637 50.7209 99.1767 45.8333 99.5527 40.6421L99.6114 40.523Z" fill="#FCCE19"/>
<path d="M99.6114 40.523L99.5527 40.6421C99.1767 45.8333 96.9637 50.7209 93.3106 54.4282C89.6574 58.1356 84.803 60.4203 79.6179 60.8727C79.5586 60.8727 79.5586 60.8727 79.5586 61.0235H99.6114V40.523ZM99.6114 81.2559C99.7311 81.2559 99.7311 81.1637 99.7311 81.1637C100.47 72.0597 106.613 64.7294 114.978 62.0327C116.489 61.4988 118.091 61.2019 119.665 61.0834C119.725 61.0834 119.844 61.0235 119.844 61.0235H99.6114V81.2559Z" fill="#EAA91C"/>
<path d="M113.048 60.8717C105.75 60.8125 99.7313 54.9391 99.7313 47.7009H99.5529C99.5529 51.2338 98.2157 54.583 95.7825 56.9886C93.2911 59.4806 89.9413 60.8718 86.4408 61.0226H86.3223C86.3223 61.0824 86.4408 61.0824 86.4408 61.0824C93.6467 61.2009 99.5529 67.1605 99.5529 74.3717C99.5529 74.4902 99.6116 74.4902 99.6116 74.4902C99.7313 74.4902 99.7313 74.4902 99.7313 74.3717C99.7313 67.0743 105.75 61.0824 113.048 61.0824L113.107 61.0226C113.107 60.8718 113.048 60.8717 113.048 60.8717Z" fill="white"/>
</svg>
