<svg width="200" height="200" viewBox="0 0 200 200" fill="none" xmlns="http://www.w3.org/2000/svg">
<path d="M120.656 17.5031L118.333 28.6452C117.646 31.907 116.79 35.9459 115.842 40.4301L115.283 40.6908C116.353 28.6852 116.323 19.1205 114.195 14.5407C112.428 10.7419 109.67 7.22455 106.185 4.41966C101.292 0.480179 98.1399 0 98.1399 0L98.2031 48.6369L43.4711 74.1003C36.0116 77.5906 36 86.3744 36 86.3744V170.107L99.9508 200L163.897 170.107V18.0723L131.56 33.1178C130.326 30.0328 128.775 27.1363 126.935 24.5482C126.225 23.4994 125.473 22.4793 124.682 21.4904C123.366 19.8252 120.656 17.5031 120.656 17.5031Z" fill="#E4E5E6"/>
<path d="M62.1776 37.4442L65.118 45.9453L68.0585 37.4455L76.8888 39.1493L70.9976 32.3546L76.8888 25.5586L68.0585 27.2624L65.118 18.7613L62.1776 27.2624L53.3486 25.5586L59.2385 32.3546L53.3486 39.1493L62.1776 37.4442Z" fill="#E4E5E6"/>
<path d="M43.4711 114.798C36.0116 118.287 36 127.071 36 127.071V167.732C36 167.732 36.0116 158.949 43.4711 155.457L163.897 99.4303V58.7705L43.4711 114.798Z" fill="#8CD2F4"/>
<path d="M150.799 119.488C154.52 115.07 155.3 110.94 155.3 110.94C155.3 110.94 123.484 121.303 113.014 124.745C115.635 123.591 117.536 122.937 118.683 122.444C122.95 120.61 150.637 111.298 153.737 105.487C156.757 99.8254 156.651 95.1579 156.651 95.1579C156.651 95.1579 125.616 113.109 114.475 119.585C117.08 117.708 119.008 116.549 120.148 115.746C124.361 112.767 152.301 96.2499 154.329 89.219C156.301 82.3649 155.111 77.3153 155.111 77.3153C155.111 77.3153 125.618 103.915 114.965 113.565C117.174 111.157 118.866 109.575 119.861 108.497C123.752 104.289 150.303 79.8814 150.881 71.7727C151.443 63.8679 148.983 58.6557 148.983 58.6557C148.983 58.6557 122.341 95.3877 113.34 107.855C115.23 104.647 116.739 102.484 117.584 101.059C120.843 95.5865 144.061 62.9269 142.814 53.9805C141.602 45.2586 137.722 40.1651 137.722 40.1651C137.722 40.1651 117.538 85.597 110.495 101.538C111.853 97.4375 113.037 94.6442 113.647 92.8526C115.919 86.1521 133.611 45.2935 130.19 35.8591C128.734 31.8434 127.188 29.3096 125.267 26.4286C123.345 23.5475 121.641 21.8682 121.641 21.8682C120.699 26.3034 113.694 59.4108 109.109 81.1709L106.425 96.5158C105.459 102.064 106.37 105.763 106.804 107.096L107.147 108.076C112.249 123.204 108.318 130.536 106.37 133L106.29 133.099C105.899 133.586 104.977 134.724 103.478 135.574C102.294 136.191 101.061 136.503 99.8127 136.503C99.0679 136.503 98.327 136.391 97.608 136.173C90.8791 133.949 93.3226 126.373 93.3458 126.297C92.7843 129.452 93.5859 131.507 94.3552 132.672C95.5092 134.424 97.426 135.468 99.4848 135.468C102.905 135.468 104.78 133.146 105.395 132.379L105.474 132.284C107.328 129.938 111.079 122.863 105.872 107.893L105.874 107.89C105.734 107.471 104.197 102.63 105.138 97.2258L108.745 76.4557C111.348 59.9065 116.762 25.4695 112.475 16.243C110.495 11.9821 107.686 9.01196 105.008 6.81763C102.331 4.62329 99.9237 3.54677 99.9237 3.54677L100.032 85.6074C100.041 89.9909 100.183 93.6038 100.39 96.5688C100.39 96.5688 100.545 98.6469 100.774 100.804C101.004 102.959 102.013 107.413 102.602 109.43L103.308 111.797C105.975 121.131 104.738 127.04 102.593 129.754C102.078 130.39 101.222 131.517 99.5313 131.517C97.6364 131.517 95.6137 129.264 98.0378 123.612C100.462 117.961 101.671 112 96.5263 106.89C96.0384 106.39 95.5208 105.91 94.9425 105.476C91.2844 102.728 89.1946 101.532 86.959 100.308C85.7869 99.6679 79.3808 100.981 79.3808 100.981L64.0333 94.1163L64.0049 94.3951C64.0049 94.3951 86.0309 110.259 90.0362 113.614C93.7214 116.7 91.7891 121.58 88.2433 124.366C84.1928 127.546 72.2169 134.277 72.2169 134.277V134.988C72.2169 142.997 73.3992 146.294 78.8515 152.979C89.3624 165.863 94.1138 171.051 94.1138 184.49C94.7115 184.904 96.8284 185.824 96.8284 185.824V163.101C96.8284 152.79 99.5145 145.867 112.025 145.867L103.281 137.679C104.554 138.623 105.363 139.36 105.93 139.784C108.127 141.425 121.04 152.833 124.924 152.701C128.715 152.575 131.055 151.146 131.055 151.146C131.055 151.146 110.851 139.503 105.22 136.28C107.088 137.106 108.322 137.798 109.104 138.157C111.871 139.432 128.565 148.844 132.761 147.805C136.848 146.789 139.076 144.689 139.076 144.689C139.076 144.689 114.166 136.618 107.455 134.468C109.757 134.945 111.308 135.427 112.267 135.642C115.569 136.388 135.889 142.762 140.204 140.662C144.413 138.616 146.352 135.818 146.352 135.818C146.352 135.818 117.947 132.91 109.554 132.058C111.583 132.085 113.551 132.206 114.481 132.218C118.241 132.269 141.798 134.499 146.005 131.221C150.107 128.024 151.564 124.538 151.564 124.538C151.564 124.538 120.754 127.799 111.347 128.822C113.869 128.295 115.666 128.077 116.77 127.855C120.867 127.04 146.983 124.023 150.799 119.488Z" fill="#231F20"/>
<path d="M88.9036 106.265C88.9036 106.265 87.6179 106.609 86.6395 106.023C85.6598 105.433 85.3604 104.135 85.3604 104.135C85.3604 104.135 86.6473 103.793 87.6231 104.382C88.6041 104.969 88.9036 106.265 88.9036 106.265Z" fill="#E31B23"/>
<path d="M146.176 161.049C146.176 161.049 146.889 160.74 146.889 159.685V158.148L139.065 161.812V175.02L141.446 173.897V169.07L144.163 167.785C144.353 167.657 144.785 167.276 144.785 166.456V165.106L141.446 166.685V163.276L146.176 161.049Z" fill="#231F20"/>
<path d="M154.168 157.217C154.465 157.076 154.704 157.183 154.704 157.48V158.509H154.706C154.706 158.597 154.728 158.685 154.769 158.763C154.81 158.841 154.87 158.908 154.943 158.958C155.016 159.008 155.1 159.04 155.188 159.05C155.276 159.06 155.365 159.048 155.447 159.016L156.994 158.288L156.992 156.614C156.987 156.282 156.901 155.956 156.741 155.665C156.582 155.374 156.354 155.126 156.077 154.942C155.8 154.759 155.483 154.646 155.153 154.612C154.822 154.579 154.489 154.627 154.181 154.751L149.759 156.809C149.289 157.044 148.893 157.405 148.616 157.851C148.339 158.298 148.192 158.812 148.19 159.338V167.856C148.19 168.878 149.018 169.695 150.041 169.679C150.316 169.676 150.577 169.614 150.811 169.501L155.441 167.332C155.907 167.095 156.299 166.735 156.573 166.29C156.847 165.845 156.993 165.333 156.994 164.811V162.394L155.206 163.209C155.056 163.294 154.931 163.419 154.845 163.569C154.758 163.719 154.714 163.889 154.715 164.062V164.678C154.715 164.973 154.478 165.308 154.181 165.447L151.106 166.929C150.806 167.071 150.569 166.965 150.569 166.667V159.533C150.569 159.236 150.806 158.907 151.106 158.767L154.168 157.217Z" fill="#231F20"/>
<path d="M123.418 178.055L118.901 171.232L116.498 172.357V185.57C116.498 185.57 117.492 185.093 118.201 184.767C118.336 184.687 118.882 184.325 118.882 183.398V175.487L123.511 182.285L125.824 181.204V167.998L124.17 168.771C124.003 168.877 123.44 169.114 123.44 170.117L123.418 178.055Z" fill="#231F20"/>
<path d="M112.181 186.45V179.822L109.851 186.256L107.826 187.205L105.118 182.802L105.114 189.833C105.114 190.617 104.723 191.058 104.316 191.253L102.817 191.963V178.754L104.976 177.745L108.484 183.925L111.797 174.557L114.48 173.302V186.504L113.198 187.104C112.744 187.307 112.181 186.947 112.181 186.45Z" fill="#231F20"/>
<path d="M127.846 167.057V177.434C127.846 178.427 128.651 179.226 129.648 179.219C129.916 179.216 130.172 179.153 130.403 179.046H130.404L135.375 176.734L135.371 176.731C135.864 176.51 136.283 176.151 136.577 175.697C136.871 175.244 137.028 174.715 137.028 174.174H137.032L137.046 162.756C137.046 162.756 135.892 163.292 135.383 163.53C134.755 163.825 134.656 164.515 134.656 164.918V174.076C134.656 174.373 134.42 174.704 134.122 174.84L130.758 176.406C130.462 176.545 130.223 176.437 130.223 176.14V167.13C130.225 167.005 130.196 166.882 130.137 166.771C130.079 166.66 129.994 166.566 129.89 166.497C129.786 166.428 129.666 166.386 129.541 166.375C129.416 166.365 129.291 166.386 129.177 166.436L127.846 167.057Z" fill="#231F20"/>
</svg>
