<svg width="200" height="200" viewBox="0 0 200 200" fill="none" xmlns="http://www.w3.org/2000/svg">
<g clip-path="url(#clip0_48_435)">
<mask id="mask0_48_435" style="mask-type:luminance" maskUnits="userSpaceOnUse" x="30" y="0" width="141" height="200">
<path d="M30 0H170.351V200H30V0Z" fill="white"/>
</mask>
<g mask="url(#mask0_48_435)">
<path d="M73.8882 0L30 36.1775V163.595L73.8882 200H126.691L170.351 163.595V36.1775L126.691 0H73.8882Z" fill="#ECE83A"/>
</g>
<mask id="mask1_48_435" style="mask-type:luminance" maskUnits="userSpaceOnUse" x="30" y="0" width="141" height="200">
<path d="M30 0H170.351V200H30V0Z" fill="white"/>
</mask>
<g mask="url(#mask1_48_435)">
<path d="M124.863 4.77824L165.551 38.4529V161.32L124.863 195.222H75.4885L34.8005 161.32V38.4529L75.4885 4.77824H124.863ZM125.777 2.27539H74.5742L32.5146 37.3152V162.457L74.8028 197.497H125.777L167.837 162.457V37.3152L166.922 36.6326L125.777 2.27539Z" fill="#1F1646"/>
</g>
<mask id="mask2_48_435" style="mask-type:luminance" maskUnits="userSpaceOnUse" x="30" y="0" width="141" height="200">
<path d="M30 0H170.351V200H30V0Z" fill="white"/>
</mask>
<g mask="url(#mask2_48_435)">
<path d="M90.5749 123.55V84.6423L108.862 123.55H119.605L80.7458 41.6389V123.55H90.5749ZM109.776 19.1133V57.7936L91.4893 19.1133H80.7458L119.605 100.797V19.1133H109.776ZM63.8305 32.0826H71.1452V110.353H63.8305V32.0826ZM49.4297 45.2794H54.23V97.3841H49.4297V45.2794ZM129.206 32.0826H136.52V110.353H129.206V32.0826ZM146.121 45.2794H150.921V97.3841H146.121V45.2794ZM98.804 171.559L93.3179 166.099V162.231H95.3752V166.099H98.5754V161.093L96.9753 159.273H91.7178L90.1177 161.093V167.919L95.3752 173.152V177.703H93.3179V173.152H90.1177V179.068L91.7178 180.888H96.9753L98.804 179.068V171.559ZM101.776 161.093V179.068L103.604 180.888H108.633L110.233 179.068V173.152H107.033V177.703H105.204V162.231H107.033V166.099H110.233V161.093L108.633 159.273H103.604L101.776 161.093ZM87.8319 145.393L82.3459 139.932V136.064H84.4031V139.932H87.6033V134.699L86.0032 133.106H80.9744L79.1457 134.699V141.525L84.4031 146.758V151.537H82.5744V146.758H79.1457V152.902L80.9744 154.494H86.2318L87.8319 152.902V145.393ZM57.2016 133.106L61.0875 144.711V133.106H64.5163V154.494H61.5447L57.4301 142.89V154.494H54.23V133.106H57.2016ZM94.2323 133.106V141.98H96.2895V133.106H99.4897V154.494H96.2895V144.938H94.2323V154.494H90.8035V133.106H94.2323ZM105.433 133.106L107.262 149.944L109.319 133.106H112.519L109.547 154.494H105.204L102.233 133.106H105.433ZM115.262 133.106H118.462V154.494H115.262V133.106ZM124.863 133.106V151.309H127.834V154.494H121.662V133.106H124.863ZM133.549 133.106V151.309H136.749V154.494H130.349V133.106H133.549ZM146.121 136.292H142.464V141.98H145.892V144.938H142.464V151.309H146.121V154.494H139.035V133.106H146.121V136.292ZM73.8882 154.494H77.0884L74.1168 133.106H69.7737L66.8021 154.494H70.0023L70.4595 150.854H73.6597L73.8882 154.494ZM70.6881 147.896L71.831 137.657L72.9739 147.896H70.6881Z" fill="#1F1646"/>
</g>
</g>
<defs>
<clipPath id="clip0_48_435">
<rect width="200" height="200" fill="white"/>
</clipPath>
</defs>
</svg>
