<svg width="200" height="200" viewBox="0 0 200 200" fill="none" xmlns="http://www.w3.org/2000/svg">
<g clip-path="url(#clip0_48_356)">
<path fill-rule="evenodd" clip-rule="evenodd" d="M200 100C200 155.229 155.229 200 100 200C44.7714 200 0 155.229 0 100C0 44.7714 44.7714 0 100 0C155.229 0 200 44.7714 200 100Z" fill="#28295C"/>
<path d="M99.999 34.5254C63.854 34.5254 34.5244 63.855 34.5244 99.9997C34.5244 136.145 63.854 165.469 99.9988 165.469C136.144 165.469 165.473 136.145 165.473 99.9997C165.473 63.855 136.144 34.5254 99.999 34.5254ZM99.999 36.9296C134.844 36.9296 163.063 65.1546 163.063 99.9997C163.063 134.845 134.844 163.064 99.999 163.064C65.1536 163.064 36.9344 134.845 36.9344 99.9997C36.9344 65.1546 65.1536 36.9296 99.999 36.9296Z" fill="white"/>
<path d="M99.9989 4.18945C47.0964 4.18945 4.18652 47.0995 4.18652 100.002C4.18652 152.904 47.0964 195.806 99.9989 195.806C152.901 195.806 195.811 152.904 195.811 100.002C195.811 47.0993 152.901 4.18945 99.9989 4.18945ZM99.9989 6.22911C151.797 6.22911 193.763 48.2041 193.763 100.002C193.763 151.8 151.797 193.766 99.9989 193.766C48.201 193.766 6.2346 151.8 6.2346 100.002C6.2346 48.2041 48.201 6.22911 99.9989 6.22911Z" fill="#E76B31"/>
<path d="M99.9995 10.3342C50.5943 10.3342 10.3271 50.5949 10.3271 100C10.3271 149.405 50.5943 189.66 99.9995 189.66C149.405 189.66 189.672 149.405 189.672 100C189.672 50.5947 149.405 10.3342 99.9995 10.3342ZM99.9995 30.0795C138.768 30.0795 169.839 61.2313 169.839 100C169.839 138.769 138.768 169.745 99.9995 169.745C61.2307 169.745 30.1604 138.769 30.1604 100C30.1604 61.2313 61.2307 30.0795 99.9995 30.0795ZM20.5287 94.9338L25.6515 98.6663L23.6663 104.803H17.266L15.262 98.6412L20.5287 94.9338ZM179.552 94.9338L184.674 98.6663L182.695 104.803H176.295L174.291 98.6412L179.552 94.9338Z" fill="#78A5DB"/>
<path d="M65.7703 58.5159H61.3223V52.7043H76.753V58.5159H74.1478L99.6949 83.1064L116.529 66.8675C118.278 67.7072 120 68.7953 121.716 69.9356L102.7 88.0533V97.4227L96.9933 91.7807V88.3753L65.7703 58.5159ZM125.25 58.5159H122.444V52.5039H137.875V58.5159H133.466L128.026 63.8301C126.38 62.4299 124.734 61.5728 123.088 60.5736L125.25 58.5159Z" fill="white"/>
<path d="M78.8584 61.1105L83.4032 65.369C83.4032 65.369 90.3158 61.5041 100.079 61.5041C117.31 61.5041 131.041 72.8072 136.688 87.8245H142.807V70.5221H137.082V75.514C130.08 64.7396 116.509 55.7246 100.115 55.7246C87.5539 55.7246 78.8584 61.1105 78.8584 61.1105Z" fill="white"/>
<path d="M86.3719 117.434V122.844H72.1436V117.434H76.4321V86.3717H72.344V80.9609H83.3659L118.636 114.428V86.3717H114.428V80.9609H128.656V86.3717H124.247V122.844H119.581L82.1635 87.4769V117.434H86.3719Z" fill="white"/>
<path d="M95.2856 138.675V144.482C72.7618 142.366 55.5156 122.865 55.5156 100.287C55.5156 85.3758 62.2256 74.1731 71.4313 66.0312L75.695 70.1496C66.9157 77.4131 61.3039 88.1499 61.3039 100.314C61.3039 119.843 76.2711 136.324 95.2852 138.675H95.2856ZM104.306 144.495V138.675C119.531 137.022 132.948 126.078 137.012 111.625H143.072C138.652 128.892 123.18 142.551 104.306 144.495V144.495Z" fill="white"/>
<path d="M107.214 155.508H92.585V149.696H96.7933V103.404L102.7 108.815V149.696H107.214V155.508Z" fill="white"/>
<path d="M50.3545 44.7384L42.5976 37.1539L40.9505 38.8382L45.7264 43.5081L37.3971 42.4725L35.8584 44.046L43.6152 51.6305L45.2619 49.9465L40.3309 45.1249L48.9352 46.1899L50.3545 44.7384ZM58.6456 38.2483L57.338 36.5759L52.6987 40.2037L51.2953 38.4092L55.3238 35.2589L54.016 33.5864L49.9873 36.7366L48.6318 35.0032L53.2097 31.4231L51.9015 29.7503L45.4559 34.791L52.139 43.3368L58.6456 38.2483ZM68.7022 20.5328L66.4842 21.6761L67.8521 29.2351L62.3097 23.7929L60.4914 24.7299L61.7079 32.4018L56.3452 26.9013L54.0721 28.0728L62.37 36.0882L64.2161 35.1369L63.1409 27.7057L68.5689 32.8936L70.415 31.9421L68.7022 20.5328ZM86.2602 15.9925L83.6137 16.5871L81.9985 21.4139L78.5179 17.7326L75.7965 18.3442L81.3049 23.8412L82.2427 28.0147L84.5714 27.4912L83.6233 23.2728L86.2602 15.9925ZM97.631 16.5719L97.6089 16.5503C97.0548 16.0086 96.4366 15.6026 95.7541 15.3324C95.0715 15.0625 94.3723 14.935 93.6565 14.9505C92.9408 14.9659 92.232 15.1218 91.5302 15.4184C90.8284 15.715 90.185 16.1623 89.5998 16.7607C89.0148 17.3589 88.5802 18.014 88.296 18.726C88.0118 19.4378 87.8738 20.1554 87.8818 20.8787C87.8898 21.6017 88.0349 22.3035 88.3166 22.9835C88.5982 23.6634 89.016 24.2742 89.5699 24.8159L89.592 24.8378C90.1461 25.3792 90.7643 25.7852 91.4469 26.0552C92.1294 26.3253 92.8284 26.4526 93.5442 26.4371C94.2601 26.4217 94.9687 26.266 95.6705 25.9694C96.3721 25.6732 97.0156 25.2257 97.6009 24.6271C98.1861 24.0287 98.6206 23.3736 98.9047 22.6618C99.1891 21.9498 99.3272 21.2324 99.319 20.5091C99.3109 19.7859 99.166 19.0843 98.8845 18.4043C98.6029 17.7246 98.1851 17.1138 97.631 16.5719ZM95.9088 18.3777C96.241 18.7027 96.4971 19.0651 96.6771 19.4649C96.857 19.8647 96.9584 20.2745 96.9813 20.6943C97.0043 21.1143 96.9376 21.5298 96.7815 21.9408C96.6252 22.3516 96.3811 22.7268 96.049 23.0666C95.7096 23.4137 95.336 23.6664 94.9288 23.8241C94.53 23.9806 94.1046 24.058 93.6763 24.052C93.2489 24.046 92.8314 23.9558 92.4238 23.7815C92.0166 23.6071 91.6467 23.3572 91.314 23.032L91.292 23.0105C90.9595 22.6855 90.7034 22.3229 90.5234 21.923C90.3437 21.5232 90.2423 21.1133 90.2192 20.6935C90.1962 20.2737 90.2611 19.86 90.4136 19.4528C90.5663 19.0456 90.8124 18.6683 91.1519 18.3212C91.4839 17.9813 91.8557 17.7306 92.2667 17.5689C92.6775 17.4074 93.097 17.3296 93.5244 17.3356C93.9519 17.3416 94.3693 17.4322 94.7769 17.6068C95.1843 17.7811 95.5541 18.031 95.8863 18.356L95.9088 18.3777ZM110.88 26.3925L108.485 22.3552C109.193 22.1422 109.778 21.7737 110.242 21.2498C110.705 20.726 110.965 20.0258 111.022 19.149L111.024 19.1184C111.097 17.9945 110.795 17.0949 110.119 16.4196C109.443 15.7442 108.461 15.3649 107.172 15.2813L102.224 14.9613L101.523 25.7874L103.905 25.9414L104.129 22.4773L106 22.5983L108.096 26.2125L110.88 26.3925ZM108.601 19.1166C108.571 19.5807 108.39 19.9418 108.058 20.1999C107.725 20.458 107.265 20.5683 106.678 20.5302L104.265 20.3741L104.466 17.2653L106.832 17.4182C107.42 17.4563 107.87 17.615 108.184 17.8941C108.497 18.1733 108.637 18.5707 108.603 19.0859L108.601 19.1166ZM121.863 28.9205L118.709 21.8215L124.019 18.2863L121.205 17.6611L115.88 21.336L116.908 16.7066L114.579 16.1889L112.226 26.7792L114.555 27.2966L115.275 24.0594L116.783 23.0604L119.064 28.2984L121.863 28.9205ZM136.662 33.2738L135.906 31.2517C135.358 31.4361 134.842 31.5443 134.358 31.576C133.874 31.6074 133.349 31.4964 132.784 31.2423C132.36 31.0519 132.008 30.7948 131.728 30.471C131.449 30.1473 131.248 29.7878 131.125 29.3928C131.003 28.998 130.955 28.5804 130.983 28.1399C131.011 27.6994 131.12 27.2672 131.311 26.8429L131.324 26.8149C131.514 26.3906 131.764 26.0241 132.072 25.7153C132.381 25.4067 132.726 25.168 133.108 24.9995C133.489 24.8312 133.901 24.7445 134.318 24.745C134.743 24.7434 135.163 24.8357 135.578 25.0221C136.078 25.2466 136.483 25.5478 136.795 25.9255C137.106 26.3033 137.377 26.7536 137.607 27.2762L139.71 26.3009C139.585 25.9715 139.432 25.653 139.254 25.3488C139.071 25.0365 138.855 24.7453 138.608 24.4804C138.356 24.2087 138.056 23.9494 137.709 23.7027C137.361 23.4558 136.956 23.2288 136.494 23.0211C135.731 22.6783 134.973 22.4993 134.221 22.4841C133.469 22.469 132.762 22.5931 132.1 22.8564C131.438 23.1197 130.841 23.5029 130.309 24.0059C129.777 24.5089 129.353 25.1139 129.035 25.8205L129.022 25.849C128.705 26.5556 128.534 27.2772 128.509 28.0135C128.483 28.7499 128.594 29.4483 128.842 30.1086C129.089 30.7688 129.464 31.3706 129.967 31.9138C130.471 32.4573 131.085 32.8918 131.811 33.2178C132.292 33.4339 132.743 33.5886 133.166 33.6822C133.588 33.7757 133.997 33.8178 134.392 33.8084C134.779 33.8 135.164 33.7479 135.54 33.6531C135.911 33.5589 136.285 33.4327 136.662 33.2738ZM139.293 37.2042L144.93 27.9347L142.891 26.6948L137.254 35.9643L139.293 37.2042ZM153.215 36.522L154.537 34.7625L147.351 29.3626L146.029 31.1219L148.668 33.105L143.473 40.0188L145.381 41.4522L150.576 34.5387L153.215 36.522ZM163.628 43.521L161.707 41.6065L156.767 42.8326L158.007 37.9204L156.03 35.9517L154.346 43.5494L151.327 46.5798L153.018 48.2642L156.07 45.2009L163.628 43.521Z" fill="#28295C"/>
<path d="M48.7331 154.054L43.8934 148.686L36.6416 155.665L37.335 156.445L40.4947 153.404L44.1752 157.501L44.9213 156.783L41.2408 152.686L43.8307 150.194L47.977 154.782L48.7331 154.054ZM74.6847 171.039L78.0272 172.281L78.3679 171.288L70.8627 168.493L70.5221 169.485L73.6992 170.656L70.7718 179.183L71.7571 179.566L74.6847 171.039ZM85.236 172.891L80.7791 171.864L78.7248 181.718L83.348 182.786C83.8374 182.899 84.2923 182.958 84.7191 182.937C85.1462 182.915 85.5267 182.825 85.8608 182.667C86.1924 182.511 86.4801 182.275 86.6985 181.98C86.9229 181.681 87.0788 181.321 87.167 180.898C87.2373 180.561 87.2488 180.247 87.2011 179.959C87.1534 179.67 87.0636 179.411 86.9319 179.181C86.7953 178.944 86.6242 178.729 86.4243 178.543C86.2161 178.347 85.9879 178.173 85.7436 178.024C85.9448 177.983 86.141 177.921 86.3287 177.837C86.5215 177.752 86.7061 177.633 86.8818 177.48C87.0576 177.326 87.2115 177.138 87.3435 176.914C87.4756 176.691 87.576 176.415 87.6443 176.086C87.7225 175.711 87.7253 175.353 87.652 175.014C87.5805 174.679 87.4342 174.364 87.2239 174.093C87.0115 173.817 86.7381 173.576 86.4039 173.369C86.0696 173.162 85.6802 173.002 85.236 172.891ZM84.1536 177.241L80.863 176.506L81.5705 173.114L84.938 173.868C85.5786 174.029 86.0396 174.297 86.3207 174.674C86.6019 175.05 86.6907 175.487 86.587 175.984C86.4656 176.566 86.1814 176.959 85.7341 177.163C85.2868 177.367 84.7638 177.377 84.1536 177.241ZM83.5819 181.793L79.933 180.968L80.6578 177.492L84.1275 178.271C84.9181 178.449 85.4766 178.765 85.8165 179.161C86.1566 179.557 86.27 180.027 86.1564 180.571C86.0389 181.135 85.7516 181.521 85.2939 181.733C84.8364 181.944 84.2694 181.948 83.5819 181.793ZM96.1198 174.054L95.1447 173.982L90.0107 184.018L91.0778 184.097L92.5297 181.47L98.0006 181.758L98.9895 184.496L100.11 184.579L96.1198 174.054ZM97.6268 180.707L92.9732 180.479L95.5739 175.339L97.6268 180.707ZM114.56 183.137L121.24 181.901L121.023 180.874L115.373 181.935L113.511 173.114L112.482 173.289L114.56 183.137ZM150.044 155.195L149.235 155.853L153.054 160.46C153.757 161.309 153.93 161.934 153.93 162.768C153.93 163.619 153.35 164.32 152.702 164.878C152.012 165.472 151.515 165.766 150.475 165.766C149.692 165.766 148.787 165.186 148.065 164.366L144.31 159.795L143.501 160.454L147.303 165.078C147.711 165.575 148.206 165.995 148.763 166.316C149.268 166.61 149.837 166.851 150.448 166.851C151.599 166.851 152.337 166.55 153.326 165.765C154.256 165.06 155.086 163.906 155.086 162.661C155.097 161.451 154.419 160.336 153.74 159.554L150.044 155.195ZM103.993 184.23L110.78 183.939L110.709 182.892L104.965 183.154L104.353 174.159L103.31 174.188L103.993 184.23ZM141.344 173.726L147.173 170.237L146.611 169.35L141.686 172.317L136.862 164.7L135.959 165.223L141.344 173.726Z" fill="#28295C" stroke="#28295C" stroke-width="0.796801"/>
<path d="M55.9563 162.611C55.9563 165.219 53.8427 167.332 51.2356 167.332C48.6282 167.332 46.5146 165.219 46.5146 162.611C46.5146 160.004 48.6282 157.891 51.2356 157.891C53.8429 157.891 55.9563 160.004 55.9563 162.611Z" stroke="#28295C" stroke-width="1.91234" stroke-linecap="square" stroke-linejoin="round"/>
<path d="M67.2854 170.023C67.2854 172.631 65.1718 174.744 62.5647 174.744C59.9573 174.744 57.8438 172.631 57.8438 170.023C57.8438 167.416 59.9573 165.303 62.5647 165.303C65.172 165.303 67.2854 167.416 67.2854 170.023Z" stroke="#28295C" stroke-width="1.91234" stroke-linecap="square" stroke-linejoin="round"/>
<path d="M155.346 149.689L152.217 153.024L159.699 159.756L162.948 156.298C163.292 155.932 163.572 155.568 163.768 155.189C163.965 154.809 164.078 154.434 164.109 154.066C164.141 153.701 164.082 153.334 163.938 152.997C163.792 152.652 163.559 152.336 163.238 152.048C162.981 151.817 162.716 151.649 162.443 151.546C162.17 151.442 161.901 151.389 161.635 151.387C161.362 151.386 161.09 151.425 160.828 151.504C160.554 151.586 160.289 151.696 160.038 151.832C160.103 151.642 160.147 151.442 160.171 151.232C160.194 151.023 160.184 150.804 160.14 150.575C160.096 150.345 160.01 150.118 159.883 149.891C159.757 149.664 159.568 149.439 159.319 149.214C159.034 148.958 158.726 148.776 158.396 148.668C158.07 148.561 157.724 148.529 157.384 148.575C157.04 148.62 156.694 148.735 156.347 148.919C155.999 149.104 155.666 149.361 155.346 149.689H155.346ZM158.561 152.812L156.271 155.286L153.695 152.969L156.041 150.438C156.502 149.965 156.966 149.701 157.432 149.648C157.899 149.594 158.322 149.737 158.699 150.077C159.141 150.474 159.337 150.918 159.289 151.407C159.24 151.896 158.986 152.353 158.561 152.812ZM162.207 155.596L159.659 158.335L157.019 155.96L159.439 153.353C159.99 152.759 160.544 152.435 161.057 152.341C161.57 152.246 162.034 152.385 162.447 152.756C162.875 153.141 163.064 153.584 163.017 154.086C162.969 154.588 162.688 155.08 162.207 155.596Z" fill="#28295C" stroke="#28295C" stroke-width="0.796801"/>
<path d="M136.086 173.544C135.419 175.097 134.5 176.267 132.412 176.267C131.918 176.269 131.429 176.173 130.972 175.985C130.515 175.797 130.1 175.52 129.751 175.171C129.402 174.821 129.125 174.406 128.937 173.949C128.749 173.493 128.653 173.003 128.655 172.509C128.653 172.015 128.749 171.526 128.937 171.069C129.125 170.612 129.402 170.197 129.751 169.848C130.1 169.498 130.515 169.222 130.972 169.033C131.429 168.845 131.918 168.75 132.412 168.752C132.994 168.752 133.542 168.881 134.032 169.113L134.65 167.288C133.944 166.983 133.182 166.826 132.412 166.826C129.285 166.826 126.729 169.382 126.729 172.509C126.729 175.636 129.285 178.192 132.412 178.192C134.982 178.192 137.166 176.466 137.863 174.115" fill="#28295C"/>
</g>
<defs>
<clipPath id="clip0_48_356">
<rect width="200" height="200" fill="white"/>
</clipPath>
</defs>
</svg>
