<svg width="200" height="200" viewBox="0 0 200 200" fill="none" xmlns="http://www.w3.org/2000/svg">
<g clip-path="url(#clip0_48_419)">
<path d="M199.913 119.03C199.836 118.741 199.744 118.457 199.637 118.178L199.55 117.95C199.479 117.764 199.412 117.584 199.343 117.384C199.315 117.294 199.286 117.206 199.271 117.132C199.26 117.078 199.256 117.022 199.26 116.968C199.355 115.901 199.088 115.347 198.671 114.622C198.348 114.056 197.893 113.835 197.59 113.82C197.552 113.928 197.481 114.02 197.388 114.085C197.294 114.15 197.183 114.184 197.069 114.181C197.037 114.181 197.006 114.179 196.973 114.174C196.673 114.128 196.466 113.831 196.501 113.53C196.509 113.458 196.517 113.382 196.522 113.296C196.529 113.012 196.467 112.758 196.326 112.494C195.969 111.824 193.392 109.698 192.412 109.698C191.619 109.698 190.787 110.133 190.183 110.864C190.125 110.937 190.049 110.993 189.964 111.029C189.878 111.064 189.785 111.078 189.693 111.068C189.6 111.06 189.512 111.028 189.434 110.977C189.357 110.926 189.294 110.856 189.25 110.775C189.162 110.61 189.086 110.439 189.022 110.264C188.846 109.796 188.743 109.322 188.643 108.862L188.567 108.509C188.292 107.314 187.892 106.11 186.298 105.645C186.134 105.601 185.966 105.573 185.797 105.561C185.624 105.543 185.436 105.536 185.244 105.531L185.099 105.527C184.778 105.52 184.447 105.511 184.12 105.465C183.466 105.369 183.029 105.156 183.029 104.422C183.029 104.358 183.04 104.296 183.06 104.235L183.237 103.731C183.366 103.363 183.552 102.796 183.698 102.119C183.973 100.865 183.994 99.7152 183.762 98.7022C183.741 98.6123 183.743 98.5186 183.767 98.4296C183.791 98.3405 183.837 98.2588 183.9 98.1919C183.962 98.1245 184.04 98.0733 184.126 98.0428C184.212 98.0123 184.305 98.0035 184.395 98.017C185.051 98.1161 185.584 98.1246 185.732 98.1246C189.131 98.1246 194.527 95.9027 194.527 89.9348C194.527 86.5081 191.753 83.2485 189.429 81.1172C189.354 81.0482 189.3 80.9604 189.27 80.863C189.241 80.7655 189.239 80.662 189.263 80.5632C189.287 80.4644 189.338 80.374 189.409 80.3014C189.48 80.2287 189.569 80.1765 189.667 80.1502C192.975 79.2867 194.796 77.0824 194.796 73.946V73.7364C194.797 73.2466 194.799 72.6917 194.701 72.0949C194.565 71.2618 194.256 70.4917 193.766 69.7406C193.733 69.6864 193.686 69.6423 193.63 69.6129C193.573 69.5834 193.51 69.5699 193.447 69.5736C193.376 69.5736 193.327 69.5877 193.309 69.592C193.178 69.6274 193.036 69.7152 192.94 69.7789C192.633 69.982 192.187 70.3614 191.832 70.6693C191.429 71.0155 190.944 71.2717 190.263 71.5004C189.848 71.6384 189.419 71.7531 188.96 71.8741C188.72 71.9357 188.475 72.0008 188.218 72.0737C186.643 72.5161 184.922 73.1567 183.006 74.8442C182.132 75.6172 181.525 76.9019 181.466 78.1194C181.413 79.1423 181.792 80.1977 182.631 81.3501C183.354 82.3531 184.315 83.2966 185.32 84.2558L185.677 84.5969C186.043 84.9466 186.405 85.2942 186.75 85.6389C187.186 86.0654 187.6 86.5143 187.99 86.9838C188.787 87.9656 189.161 88.7725 189.161 89.5229C189.161 91.124 188.016 92.2014 186.281 92.2014C184.364 92.1872 182.889 91.4496 180.839 90.092C180.526 89.8832 180.206 89.6673 179.876 89.4443C179.194 88.9842 178.491 88.5085 177.708 88.0187C176.286 87.131 174.975 86.4246 173.576 85.7996C173.192 85.6277 172.8 85.4723 172.403 85.3338V19H28.8631V85.4669C28.1277 85.6514 27.412 85.9069 26.726 86.2299C25.7613 86.6844 24.7889 87.2662 23.5669 88.1157C23.0435 88.4804 22.5255 88.8528 22.0129 89.2326C21.5578 89.5632 21.109 89.8909 20.6624 90.2038C18.6482 91.6174 16.9224 92.5567 15.0496 92.5567C13.2009 92.5567 11.8878 91.4737 11.7069 89.7968C11.5507 88.3174 12.3048 86.8238 13.8327 85.5858L14.6758 84.9098C15.3005 84.4072 15.8892 83.9351 16.4214 83.4793C17.309 82.7162 17.9132 82.1004 18.379 81.4888C19.5281 79.9754 19.8192 78.4181 19.326 76.4404C18.8807 74.6616 17.5161 73.4512 15.1507 72.7405C14.3062 72.4843 13.4475 72.3299 12.644 72.1997L12.3648 72.1551C12.1175 72.1162 11.8927 72.0787 11.7005 72.0433C11.4412 71.9958 11.2609 71.9498 11.1549 71.9059C9.87225 71.334 7.08355 69.4653 6.52454 69.0887L6.29698 68.9351L6.14151 69.1616C5.63196 69.8942 5.22984 70.4747 4.92525 73.0208C4.58956 75.8317 6.90193 79.2619 10.8836 79.8905C10.9924 79.9075 11.0939 79.956 11.1756 80.0301C11.2572 80.1041 11.3156 80.2004 11.3433 80.3072C11.3711 80.4139 11.3671 80.5265 11.3319 80.631C11.2967 80.7356 11.2317 80.8275 11.145 80.8956C6.93302 84.2133 6.0355 85.6368 5.81359 89.365C5.67719 91.6761 6.48285 93.942 8.03055 95.5856C9.7196 97.38 12.1662 98.3278 15.1111 98.3278C15.8956 98.3278 16.7224 98.2605 17.5719 98.1282C17.6488 98.1155 17.7275 98.1193 17.8029 98.1392C17.8783 98.159 17.9486 98.1946 18.0093 98.2435C18.0709 98.2915 18.1217 98.3519 18.1585 98.4208C18.1952 98.4897 18.2171 98.5656 18.2228 98.6435C18.4192 101.237 18.8885 103.346 19.4751 104.288C19.5447 104.4 19.5733 104.532 19.556 104.663C19.5387 104.794 19.4766 104.914 19.3804 105.004C19.198 105.171 18.9118 105.335 18.55 105.474C17.651 105.827 16.2885 106.045 14.9309 106.045C14.0828 106.045 13.4525 106.627 12.945 107.879C12.7804 108.286 12.6468 108.719 12.5139 109.139L12.4765 109.257C12.4093 109.471 12.3465 109.667 12.2828 109.841C12.2242 110.003 12.1627 110.152 12.097 110.274C11.9274 110.576 11.6765 110.874 11.3288 111.182C11.2253 111.273 11.0921 111.323 10.9542 111.323C10.9224 111.323 10.8885 111.323 10.8588 111.316C10.7755 111.301 10.6965 111.268 10.6275 111.219C10.5584 111.17 10.5011 111.107 10.4595 111.033C10.0447 110.283 9.38885 109.805 8.51465 109.613L8.49557 109.612H8.40723C7.11394 109.612 4.87931 110.705 4.05599 112.761C4.01784 112.855 3.95486 112.938 3.87374 112.999C3.79262 113.061 3.69637 113.099 3.59522 113.11L3.49274 113.124C2.46094 113.231 1.81218 113.711 1.44469 114.631C1.29133 115.021 1.20016 115.457 1.12737 115.836L1.07225 116.117C1.0143 116.435 0.952107 116.754 0.871542 117.067C0.806458 117.316 0.709549 117.557 0.583202 117.782C0.517478 117.903 0.45034 118.012 0.388856 118.117C0.3408 118.197 0.29345 118.273 0.253167 118.346C0.0234852 118.767 -0.0931226 119.199 0.090623 119.935C0.174015 120.272 0.43974 120.562 0.880022 120.801C1.20511 120.979 1.62702 121.13 2.13232 121.254C3.02984 121.473 3.91889 121.542 4.08992 121.542C4.21359 121.542 4.33514 121.507 4.45529 121.438C4.54221 121.392 4.62348 121.326 4.71818 121.254C4.82066 121.177 4.95847 121.127 5.09274 121.127C5.12101 121.127 5.1514 121.13 5.17967 121.134L5.59804 121.213C5.94292 121.279 6.37189 121.365 6.79804 121.452L6.86659 121.467C7.27507 121.549 7.6779 121.628 8.0044 121.69C8.15384 121.72 8.30394 121.746 8.45458 121.768C8.58673 121.787 8.68921 121.798 8.7514 121.798H8.75493C10.533 121.711 11.285 121.02 11.7825 120.355C11.9224 120.166 12.0475 119.97 12.1712 119.762L12.3719 119.418L12.5238 119.163C12.6687 118.912 12.8136 118.684 12.9733 118.466C13.026 118.394 13.0949 118.336 13.1743 118.296C13.2538 118.255 13.3415 118.234 13.4305 118.235C13.4779 118.235 13.5281 118.242 13.5775 118.252C13.7811 118.307 13.9853 118.346 14.1585 118.377C14.5719 118.448 14.9479 118.483 15.109 118.494C15.227 118.503 15.3401 118.506 15.4532 118.506C17.1366 118.506 18.391 117.566 19.432 116.685L19.7712 116.395C19.9337 116.258 20.0885 116.12 20.244 115.991C20.4525 115.819 20.726 115.594 21.0108 115.407C21.5161 115.07 21.9429 114.914 22.3585 114.914L22.4602 114.918C22.8652 114.942 24.386 115.052 26.9669 115.463C27.0765 115.479 27.1896 115.487 27.304 115.487C27.7366 115.487 28.2595 115.376 28.8638 115.155V127.358C28.8638 135.921 29.9627 139.216 32.5917 143.796L32.7401 144.052L32.904 144.299C48.1479 167.092 73.4687 180.702 100.635 180.702C127.801 180.702 153.119 167.094 168.367 144.301L168.531 144.055L168.679 143.796C171.305 139.219 172.404 135.924 172.404 127.358V115.597C172.594 115.62 172.789 115.633 172.989 115.633C173.416 115.633 173.858 115.576 174.301 115.463C174.778 115.34 175.268 115.279 175.761 115.281C176.011 115.281 176.257 115.298 176.494 115.322C177.127 115.391 177.689 115.532 178.145 115.647L178.264 115.678C179.004 115.862 179.704 116.154 180.404 116.573C180.98 116.918 181.467 117.287 181.937 117.646L182.062 117.741C182.994 118.449 183.96 119.182 185.309 119.182C185.358 119.182 185.414 119.18 185.472 119.178C185.552 119.172 185.632 119.157 185.709 119.134C185.783 119.112 185.872 119.085 185.969 119.051C186.153 118.985 186.372 118.896 186.589 118.809C186.801 118.727 187.039 118.632 187.312 118.579C187.421 118.557 187.534 118.568 187.636 118.611C187.739 118.653 187.827 118.725 187.889 118.817C187.958 118.919 188.029 119.033 188.105 119.154C188.239 119.375 188.378 119.601 188.556 119.829C189.074 120.5 190.021 121.399 192.233 121.454C192.435 121.46 192.628 121.461 192.814 121.461C193.965 121.461 194.674 121.372 194.991 121.319C195.024 121.312 195.053 121.312 195.086 121.312C195.199 121.312 195.312 121.345 195.409 121.414C195.643 121.576 195.893 121.656 196.17 121.656C196.765 121.656 197.648 121.476 198.368 121.21C198.792 121.055 199.142 120.873 199.402 120.682C199.741 120.429 199.937 120.149 199.984 119.852C200.02 119.628 199.996 119.361 199.913 119.031" fill="white"/>
<path d="M166.991 112.571C166.021 111.254 165.373 109.513 165.121 107.539C165.11 107.457 165.081 107.378 165.037 107.309C164.993 107.239 164.934 107.18 164.864 107.135C164.794 107.09 164.716 107.062 164.634 107.051C164.552 107.04 164.468 107.047 164.39 107.071C164.183 107.136 163.973 107.189 163.761 107.231V127.358C163.761 134.744 162.904 136.484 161.185 139.483C148.041 159.132 125.826 172.044 100.633 172.044C75.4404 172.044 53.2235 159.132 40.0814 139.483C38.3634 136.484 37.504 134.744 37.504 127.358V107.308C37.4546 107.309 37.4009 107.313 37.3521 107.313H37.1938C37.0888 107.312 36.9857 107.341 36.8959 107.396C36.8061 107.45 36.7331 107.529 36.685 107.622C36.4355 108.127 36.1889 108.631 35.9571 109.111L35.5366 109.973C35.1493 110.759 34.7521 111.537 34.4581 111.907C34.2176 112.205 33.9361 112.468 33.6221 112.688V127.358C33.6221 135.208 34.5648 137.672 36.7146 141.418L36.7818 141.536L36.856 141.646C51.2157 163.117 75.0574 175.934 100.634 175.934C126.21 175.934 150.052 163.117 164.411 141.646L164.486 141.536L164.551 141.422C166.703 137.674 167.645 135.212 167.645 127.357V113.247C167.399 113.05 167.179 112.823 166.991 112.571ZM36.697 82.8771L36.9055 82.6846C37.1005 82.5055 37.3012 82.3236 37.504 82.1424V27.6558H163.761V81.8493C164.15 82.1063 164.535 82.3653 164.909 82.6195C165.243 82.8488 165.575 83.0718 165.891 83.2841C166.481 83.6734 167.052 83.9276 167.644 84.1215V23.7676H33.6228V84.7274C34.2427 84.5693 34.8329 84.3116 35.3705 83.9644C35.7479 83.7194 36.1422 83.3818 36.697 82.8771Z" fill="#23326A"/>
<path d="M32.7002 84.9133V22.8429H168.566V84.3775C168.808 84.4356 169.054 84.4901 169.31 84.5431L169.575 84.5991C169.945 84.6755 170.329 84.7597 170.721 84.8518V20.6875H30.5469V85.1583C30.8755 85.1172 31.1985 85.0854 31.5158 85.0542C31.9117 85.0172 32.3066 84.9697 32.7002 84.9133ZM168.68 113.939C168.642 113.915 168.605 113.891 168.567 113.868V127.357C168.567 135.437 167.586 137.987 165.351 141.881L165.27 142.025L165.177 142.161C150.646 163.886 126.518 176.856 100.634 176.856C74.7504 176.856 50.6204 163.886 36.0903 142.161L35.9978 142.022L35.9165 141.881C33.6797 137.983 32.7002 135.433 32.7002 127.357V113.217C32.5448 113.291 32.3921 113.361 32.2493 113.428L32.1829 113.459C31.985 113.543 31.793 113.642 31.6084 113.752C31.2479 113.976 30.8918 114.184 30.5469 114.373V127.357C30.5469 135.915 31.6684 138.806 34.0493 142.956L34.1681 143.164L34.3002 143.362C49.2324 165.687 74.0296 179.016 100.634 179.016C127.239 179.016 152.035 165.687 166.967 143.362L167.098 143.164L167.218 142.956C169.598 138.809 170.721 135.917 170.721 127.357V115.104C170.116 114.831 169.573 114.494 169.089 114.191C168.955 114.103 168.816 114.022 168.68 113.939Z" fill="#23326A"/>
<path d="M131.529 104.514C131.36 105.535 132.671 107.142 133.047 107.866C133.23 107.497 134.329 104.982 134.495 104.676C133.958 104.644 132.498 104.634 131.529 104.514ZM68.3364 107.117C68.8573 106.187 69.4354 106.041 69.8205 105.565C70.041 104.929 70.3506 104.561 70.7838 104.016C69.7357 104.175 67.7428 104.554 66.9004 104.709C67.0926 105.311 67.2764 106.704 68.3364 107.117Z" fill="#FABB23"/>
<path d="M133.155 113.986C133.094 113.778 133.038 113.568 132.988 113.356C132.96 113.235 132.892 113.127 132.796 113.048C132.7 112.969 132.581 112.924 132.457 112.92H132.436C132.315 112.92 132.198 112.959 132.101 113.03C132.004 113.102 131.933 113.204 131.898 113.32C131.622 114.22 130.856 115.749 128.806 115.874C128.757 115.877 128.708 115.879 128.657 115.879C127.742 115.879 126.543 115.421 125.75 115.118L125.386 114.977C124.994 114.824 124.6 114.677 124.204 114.536C123.66 114.353 123.266 114.257 122.96 114.231C122.88 114.224 122.8 114.221 122.72 114.222C122.604 114.222 122.479 114.229 122.35 114.238C122.117 114.255 121.873 114.281 121.616 114.308C121.114 114.364 120.561 114.426 120.007 114.426H119.881C118.694 114.402 117.765 114.066 117.044 113.403C116.94 113.306 116.803 113.251 116.661 113.251C116.585 113.252 116.51 113.268 116.44 113.298C116.37 113.329 116.307 113.373 116.255 113.428C114.44 115.311 112.206 116.268 109.604 116.268H109.369C108.829 116.254 107.868 115.957 107.466 115.439C107.388 115.346 107.335 115.236 107.309 115.117C107.283 114.999 107.286 114.876 107.317 114.759C107.336 114.677 107.337 114.592 107.319 114.509C107.301 114.427 107.265 114.35 107.213 114.283C107.162 114.216 107.096 114.162 107.021 114.124C106.946 114.086 106.863 114.065 106.779 114.063C105.306 114.039 104.432 113.334 104.22 112.65C104.056 112.114 104.28 111.594 104.854 111.181L104.996 111.083C105.201 110.939 105.442 110.773 105.763 110.507C106.243 110.112 106.796 109.58 107.457 108.886C108.821 107.459 109.846 105.718 110.68 103.418C111.392 101.455 111.876 99.3099 112.341 97.2387L112.411 96.928C113.379 92.6618 114.471 87.8215 117.956 84.0112C120.531 81.1933 122.502 79.6409 127.941 75.7662C128.867 75.1065 129.804 74.3186 130.721 73.5372C126.607 67.8995 121.009 63.5178 114.553 60.8809C117.501 64.2922 119.121 68.6542 119.115 73.1656C119.115 83.5568 110.705 91.9816 100.329 91.9816C89.9548 91.9816 81.5449 83.5568 81.5449 73.1656C81.5391 68.7153 83.1148 64.4082 85.9901 61.0153C80.0283 63.5147 74.8099 67.5103 70.8382 72.617C71.8113 73.3064 72.7491 74.0305 73.8933 74.972C74.6664 75.609 75.5095 76.3261 76.5011 77.1691C77.1979 77.7616 77.9703 78.4185 78.8445 79.1561C79.3604 79.6608 80.0155 80.409 80.812 81.4212C81.0756 81.7539 81.3336 82.0866 81.5823 82.4079C81.9449 82.8751 82.282 83.3161 82.5859 83.6856C85.0233 86.6755 86.5265 88.666 86.8756 91.1251C87.547 95.9101 87.9873 98.6325 89.8615 103.435C89.8968 103.524 89.9696 103.641 90.0756 103.774C90.176 103.907 90.3032 104.047 90.4396 104.186L90.865 104.634C91.0113 104.788 91.1533 104.946 91.2714 105.092C91.5731 105.489 91.8318 105.942 92.0431 106.338L92.2396 106.71C92.4092 107.029 92.5837 107.356 92.771 107.679C93.2042 108.42 93.836 109.35 94.8996 109.952C96.0198 110.58 96.2438 110.711 96.6275 111.071C96.8063 111.24 96.8926 111.437 96.8904 111.672C96.8848 112.021 96.682 112.425 96.3696 112.7C96.0276 113.006 95.5569 113.213 94.9774 113.317C94.9005 113.33 94.8273 113.36 94.7624 113.403C94.6975 113.447 94.6423 113.503 94.6003 113.569C94.5583 113.635 94.5304 113.709 94.5184 113.786C94.5065 113.863 94.5106 113.942 94.5307 114.018C94.6297 114.397 94.5555 114.782 94.3166 115.101C93.9597 115.581 93.2989 115.86 92.4608 115.888C92.3385 115.891 92.2184 115.891 92.1003 115.891C88.5689 115.891 86.1738 114.228 85.0586 113.238C84.9558 113.145 84.8225 113.093 84.6841 113.092C84.565 113.092 84.4489 113.13 84.3533 113.201L84.2035 113.31C83.7936 113.604 83.1809 114.049 82.3866 114.376C81.8403 114.637 81.2346 114.753 80.4516 114.753C80.171 114.753 79.8968 114.737 79.6389 114.72C79.4551 114.71 79.2714 114.694 79.0897 114.68C78.8203 114.657 78.5505 114.638 78.2806 114.621C78.1379 114.615 77.9951 114.612 77.8523 114.611C77.5512 114.611 77.2947 114.631 77.0707 114.672C76.4346 114.786 75.7555 115.014 75.0339 115.253L74.5555 115.413C73.7159 115.684 72.7449 115.981 71.8685 116.018C71.7965 116.019 71.7272 116.021 71.6579 116.021C70.3774 116.021 69.4714 115.536 68.9647 114.579C68.8561 114.369 68.768 114.15 68.7018 113.923C68.6698 113.815 68.606 113.72 68.5188 113.648C68.4315 113.577 68.3248 113.534 68.2127 113.525C68.1943 113.521 68.1756 113.519 68.1569 113.519C68.0539 113.519 67.9529 113.547 67.865 113.601C67.7772 113.655 67.706 113.732 67.6594 113.824C67.648 113.847 67.636 113.867 67.624 113.889C74.0219 125.436 86.3152 133.251 100.434 133.251C114.498 133.251 126.748 125.495 133.167 114.023L133.155 113.986Z" fill="#FABB23"/>
<path d="M59.3076 40.3406C59.3076 35.85 55.7783 32.2109 51.4242 32.2109C51.2914 32.2109 50.6822 32.2124 50.5514 32.2201H41.3818V59.7434H46.9479V36.9684L50.2666 36.9379C52.3232 36.9379 53.8843 38.5511 53.8843 40.5409C53.8843 42.5299 52.2165 44.141 50.1628 44.141L48.8695 44.1707V50.7261L54.4306 59.7434H60.991L53.3013 48.2409C56.75 47.3716 59.3076 44.1637 59.3076 40.3406Z" fill="#ED1E36"/>
<path d="M65.4127 49.1492C65.4127 47.2954 66.8813 45.7912 68.6933 45.7912C70.5039 45.7912 71.9725 47.2954 71.9725 49.1492H65.4127ZM68.6453 41.9433C63.7456 41.9433 59.7725 46.0602 59.7725 51.1397C59.7725 56.2199 63.747 60.3438 68.6481 60.3438C72.3866 60.3438 75.3053 58.6096 76.8099 55.8957L72.4509 53.8359C71.8961 55.0647 70.5993 55.9276 69.0869 55.9276C67.0686 55.9276 65.4339 54.3916 65.4339 52.4988C65.4339 52.377 65.3845 52.4266 65.3986 52.3077L77.2594 52.3133C77.2958 51.9293 77.3127 51.5438 77.3103 51.1581C77.3915 45.2072 73.5463 41.9433 68.6453 41.9433ZM84.4417 51.3188C84.4417 48.939 86.2255 47.0101 88.4233 47.0101C90.6226 47.0101 92.4043 48.9383 92.4043 51.3188C92.4043 53.6986 90.6226 55.6275 88.4233 55.6275C86.2255 55.6275 84.4417 53.6986 84.4417 51.3188ZM97.7463 54.5289L97.7407 31.3242H92.3124L92.3336 44.6466C90.8961 43.2366 88.9774 42.3843 86.8848 42.3843C82.4057 42.3843 78.7746 46.3115 78.7746 51.1581C78.7746 56.0019 82.4057 59.9305 86.8841 59.9305C86.9173 59.9305 86.9491 59.9276 86.9816 59.9269C89.8791 56.9902 93.6628 55.0928 97.7463 54.5289ZM154.647 59.7832H159.879V31.5359H154.647V59.7832ZM137.011 52.7961C137.011 54.4482 135.639 55.7874 133.944 55.7874C132.251 55.7874 130.877 54.4489 130.877 52.7961V42.8735H125.548V53.8508C125.548 57.5684 129.299 60.581 133.926 60.581C138.552 60.581 142.302 57.5684 142.302 53.8508V42.8742H137.011V52.7961ZM114.772 54.9401H109.766V37.0104H113.259C114.793 37.0104 116.037 38.3213 116.037 39.9401C116.037 41.5569 114.793 42.8692 113.259 42.8692H111.443V47.8404H114.772C116.632 47.8404 118.037 49.4225 118.037 51.3825C117.97 53.4098 116.794 54.8085 114.772 54.9401ZM119.154 44.6905C120.584 43.2826 121.458 41.3948 121.458 39.3194C121.458 37.4379 120.774 35.7122 119.577 34.3545C118.329 32.9041 116.119 32.2614 113.134 32.2614H104.19V54.7469C107.714 55.4869 110.95 57.2278 113.512 59.7613H115.741C120.167 59.6855 123.729 56.1378 123.729 51.8122C123.729 48.6629 122.681 46.4191 119.153 44.6912M145.804 59.7832H151.034V31.5359H145.804V59.7832Z" fill="#ED1E36"/>
<path d="M86.2129 83.3141C91.6885 87.2781 99.4108 87.9059 105.446 84.6569C108.684 82.9813 111.354 80.383 113.119 77.1897C114.885 73.9963 115.667 70.3509 115.367 66.713C115.253 65.6172 115.079 64.5519 114.792 63.5156C116.697 66.3721 117.712 69.7308 117.708 73.1657C117.708 82.7755 109.928 90.5696 100.329 90.5696C94.5147 90.5696 89.367 87.7084 86.2129 83.3141Z" fill="#C6CCD2"/>
<path d="M95.2072 77.5126C91.1465 76.5301 88.3705 75.5462 88.3705 75.5462C87.933 71.3445 88.3041 67.6856 88.3041 67.6856C90.061 66.7689 94.8327 64.6334 94.8327 64.6334C97.1012 67.2113 99.2673 70.6656 99.2673 70.6656C98.2171 72.7 95.2072 77.5126 95.2072 77.5126ZM88.5104 60.4075C87.5154 62.0424 86.6209 63.7366 85.832 65.4806C85.0315 66.4951 84.2707 67.5405 83.5514 68.6143C84.4043 65.4675 86.1226 62.6239 88.5104 60.4075ZM106.744 70.5311C106.744 70.5311 108.265 67.3479 110.093 64.77C110.093 64.77 113.613 66.4299 115.27 67.7875C115.27 67.7875 115.878 69.6831 115.472 75.2412C115.472 75.2412 113.373 76.4615 110.33 77.2076C110.33 77.2076 108.265 73.7179 106.743 70.5311M98.861 83.5775L106.372 83.3743L107.826 87.4749C104.985 89.1688 101.567 90.0515 101.567 90.0515C97.9818 89.2693 95.9175 87.712 95.9175 87.712L98.861 83.5775ZM100.331 55.7598C102.623 55.7598 104.811 56.2057 106.813 57.0127C106.744 57.3333 106.501 58.2521 105.797 59.4165C102.176 58.9423 98.1507 59.3153 98.1507 59.3153L94.8044 56.658C96.5855 56.0614 98.4514 55.7581 100.33 55.7598M89.1959 86.5285C86.2637 84.0797 84.2188 80.7314 83.3776 77.0016C84.3062 77.9657 86.1048 79.816 86.1048 79.816C87.1875 82.0549 89.8942 85.9502 89.8942 85.9502C89.6998 86.1661 89.3938 86.3933 89.1959 86.5285ZM44.8242 138.242L46.5013 140.274L52.1677 135.578C53.8935 134.147 57.2348 131.103 58.7889 129.631L58.8341 129.687C54.9783 133.896 51.7839 138.298 48.2673 142.414L49.8539 144.335L69.4065 128.135L67.7302 126.103L62.061 130.802C60.3366 132.229 56.9938 135.277 55.4412 136.746L55.3945 136.691C59.2511 132.482 62.4433 128.081 65.9613 123.964L64.3769 122.044L44.8242 138.242ZM78.338 135.498L74.1599 132.299C73.8856 132.088 73.5726 131.934 73.2387 131.845C72.9048 131.756 72.5566 131.733 72.214 131.779C71.8715 131.825 71.5414 131.938 71.2427 132.112C70.9439 132.286 70.6823 132.517 70.473 132.793L58.2546 148.799C58.0441 149.074 57.8898 149.387 57.8005 149.721C57.7113 150.056 57.6888 150.404 57.7345 150.748C57.7801 151.091 57.8929 151.421 58.0665 151.72C58.24 152.02 58.4709 152.282 58.7458 152.491L62.9253 155.69L64.5224 153.599L60.3444 150.4L65.6546 143.439L68.7882 145.841L70.3853 143.75L67.2518 141.348L72.5613 134.392L76.7408 137.593L78.338 135.498ZM72.3846 161.202L74.6673 162.098C76.75 158.826 79.0511 155.675 81.3988 150.747L81.4659 150.773C79.8461 155.987 79.3981 159.864 78.7055 163.682L80.9882 164.579L91.0419 141.227L88.5606 140.252C86.8666 144.481 85.0942 148.716 83.4334 152.96C82.8383 154.484 82.3069 156.036 81.709 157.56L81.6447 157.535C82.7451 153.454 83.1401 150.589 83.7938 147.749L81.7429 146.943C80.2949 149.473 78.6412 151.844 76.6807 155.586L76.6157 155.559C77.2108 154.037 77.8744 152.538 78.4716 151.013C80.1309 146.771 81.7041 142.457 83.3309 138.201L80.8497 137.226L72.3846 161.202ZM105.775 167.052L108.392 166.762L107.152 155.476C107.929 155.066 108.51 154.501 108.901 153.814C109.287 153.098 109.446 152.281 109.358 151.472L108.232 141.211L105.617 141.497L106.864 152.856L104.249 153.145L103.002 141.784L100.388 142.075L101.515 152.336C101.606 153.145 101.938 153.907 102.47 154.522C102.999 155.109 103.69 155.534 104.537 155.762L105.775 167.053V167.052ZM125.067 159.536L122.615 160.494L115.317 141.719L117.766 140.762L125.067 159.536H125.067ZM119.764 160.421C120.552 162.442 122.852 163.455 124.874 162.667C126.892 161.879 127.905 159.576 127.116 157.553L120.618 140.834C119.829 138.809 117.53 137.796 115.51 138.588C113.49 139.373 112.477 141.677 113.266 143.702L119.764 160.421ZM126.24 136.017L128.36 134.457L133.533 141.516L131.413 143.076L126.24 136.016V136.017ZM137.579 155.942L139.699 154.383L132.969 145.198L135.088 143.64L140.705 151.303C141.084 151.818 141.732 152.224 142.278 152.486L144.455 150.887C143.789 150.579 143.244 150.316 142.826 149.743L137.82 142.914C136.894 141.651 136.149 141.535 135.486 141.715C135.792 141.048 135.949 140.36 135.232 139.383L130.48 132.896C130.276 132.617 130.019 132.381 129.724 132.201C129.428 132.022 129.1 131.903 128.759 131.85C128.418 131.798 128.069 131.814 127.734 131.896C127.398 131.979 127.083 132.127 126.804 132.333L122.564 135.45L137.579 155.942ZM137.156 121.827L135.395 123.879C135.395 123.879 135.78 124.995 136.63 125.73L141.464 129.89C141.464 129.89 143.373 131.362 141.586 133.446L133.299 126.312L131.591 128.302L150.833 144.87L152.532 142.887L143.63 135.222C143.63 135.222 145.337 133.224 146.996 134.654C148.416 135.875 152.71 139.576 152.71 139.576C152.71 139.576 153.62 140.447 154.622 140.461L156.382 138.409C156.382 138.409 155.274 138.315 154.077 137.288L149.319 133.19C149.319 133.19 146.161 130.168 143.333 133.462C143.333 133.462 145.785 130.147 142.219 127.077C140.813 125.866 139.407 124.655 137.999 123.446C137.999 123.446 137.328 122.765 137.156 121.826" fill="#23326A"/>
<path d="M53.3548 111.159C54.012 111.881 53.9781 112.996 54.7322 113.554C55.7145 113.72 56.5979 113.326 57.3527 112.735C57.7795 112.376 57.1555 111.916 57.0905 111.488C56.665 110.864 56.9583 109.618 55.9103 109.586C54.8629 109.749 53.8149 109.784 52.7661 109.784L52.4714 109.98C52.2756 110.603 53.1922 110.603 53.3548 111.159ZM3.66645 114.639C3.14207 114.9 2.58518 115.393 2.45444 115.984C2.28766 117.034 2.52016 118.019 1.69967 118.773C1.66787 118.969 1.46999 119.198 1.66787 119.396C2.38872 119.625 3.07635 119.92 3.96115 120.02C4.35267 118.738 4.64808 117.33 5.10744 116.214V115.884C4.7131 115.393 4.32087 114.769 3.66645 114.639Z" fill="#ED1E36"/>
<path d="M84.8577 100.485L84.7588 100.765C84.7538 100.784 84.6726 101.05 84.6726 101.05C84.5765 101.308 84.4266 101.452 84.2026 101.505C84.1429 101.525 84.0793 101.531 84.0171 101.521C83.9549 101.512 83.8959 101.487 83.845 101.45C83.7946 101.411 83.754 101.36 83.7265 101.303C83.699 101.245 83.6854 101.182 83.6867 101.118L83.6676 100.824L83.5666 99.8137C83.4853 99.343 83.3475 98.982 83.1305 98.6776L82.6888 98.1623C82.6733 98.1425 82.1885 97.5939 82.1885 97.5939C81.804 97.2088 81.4577 97.0248 81.0973 97.0128C80.816 97.1005 80.5616 97.2867 80.2902 97.5854L79.9397 98.0137L79.6344 98.4256C79.5235 98.6189 79.2726 98.5106 79.2705 98.5091L79.2266 98.4865L79.2083 98.4405C79.1358 98.2605 79.0988 98.0682 79.0994 97.8742C79.0994 97.5592 79.1948 97.2782 79.2902 97.0481L79.5567 96.5017L79.862 95.8554L79.903 95.796C79.9948 95.7068 80.0832 95.5496 80.1842 95.2842L80.2648 95.0612L80.4436 94.6025C80.715 94.0193 81.1178 93.8628 81.71 94.1141C82.1694 94.3612 82.4521 94.7498 82.6655 95.098L82.8104 95.3408L82.9977 95.6487L83.3849 96.1421C84.4415 97.3292 84.9538 98.4497 84.9538 99.6084C84.9538 99.8965 84.922 100.19 84.8577 100.486M80.8443 109.425C80.8443 109.425 80.8302 109.435 80.8372 109.442C80.828 109.437 80.8054 109.443 80.8054 109.443C80.1977 109.635 79.5107 109.715 78.763 109.678L78.7206 109.67C78.722 109.671 78.5856 109.61 78.5856 109.61L78.4408 109.52C78.368 109.461 78.2584 109.335 78.3213 109.15C78.604 108.294 79.4485 107.316 80.5122 107.097C80.539 107.094 80.604 107.094 80.604 107.094H80.7524L80.9906 107.126C81.0845 107.151 81.1691 107.203 81.2336 107.276C81.2981 107.348 81.3397 107.439 81.3531 107.535C81.3687 107.692 81.3835 107.866 81.3835 108.046C81.3835 108.551 81.2775 109.1 80.8443 109.425ZM68.2796 87.7661L68.2705 87.7987L68.2478 87.8228C68.1538 87.9134 67.9885 87.9827 67.8238 87.8709L67.7793 87.8412C67.7736 87.8157 67.7694 87.7874 67.7694 87.7874C67.515 86.48 67.2231 85.0947 66.6945 83.8079C66.6945 83.8093 66.3906 83.2883 66.3906 83.2883L66.2726 83.1241L66.0132 82.7475C65.8061 82.4162 65.6054 81.9689 65.8818 81.4373L65.9122 81.3969C66.151 81.1584 66.5715 81.1386 66.8591 81.2469L66.8966 81.2667C67.4549 81.6518 67.8153 82.2902 68.0782 82.756C68.4083 83.5276 68.5779 84.4952 68.5779 85.4947C68.5779 86.2577 68.4811 87.0385 68.2796 87.7661ZM94.0697 110.897C92.1051 109.748 91.3213 107.584 90.1079 105.876C89.6839 105.252 88.9298 104.858 88.5355 104.235C87.1277 100.395 85.9157 96.5576 85.5553 92.1612C85.2606 91.0789 85.0323 89.9647 84.4408 88.9468C82.6726 86.0588 80.3814 83.4327 78.1524 80.7761C77.9553 80.5801 77.9546 80.5617 77.5305 80.1525L69.7666 73.6899C68.816 72.9679 67.7355 72.5078 66.6542 72.0165C65.0167 71.3922 62.7885 71.5246 61.1857 72.2147C59.5143 73.0988 58.0069 74.38 56.2372 74.9697C53.6853 76.1178 50.8026 76.3471 48.6062 78.3171C47.3291 79.4334 46.2486 81.1704 44.3475 80.8752C42.2189 80.7761 40.3199 81.564 38.7143 82.8756C37.2712 84.1894 35.8987 85.7304 34.0295 86.0921C32.392 86.7808 30.3941 86.4517 28.7235 87.076C26.0698 87.7315 23.9736 89.8316 21.7157 91.4399C19.4542 92.7508 17.2924 94.1623 14.4726 94.0971C12.6422 93.9662 10.8719 92.6864 10.2818 90.9154C9.72489 88.8796 10.3468 86.7808 11.9524 85.4026C13.6231 83.4023 16.2747 82.2194 17.5878 79.9232C18.2747 78.7092 18.1758 76.7421 17.2585 75.594C15.5228 73.789 13.033 73.7217 10.7744 73.1647C9.33266 72.7697 8.21818 71.6555 6.94114 70.9668C6.44998 71.7199 6.28602 72.5418 6.35316 73.4605C6.61464 75.5282 8.18496 77.3962 10.151 78.1182C11.2973 78.6123 12.6083 78.2513 13.7864 78.5132C14.115 78.6434 14.4436 78.9711 14.4726 79.3321C14.4118 79.6613 14.3779 79.989 14.0832 80.2184C12.2479 81.7615 10.3164 83.2373 8.77507 85.1393C7.1369 86.9125 6.94114 90.0277 7.79415 92.2603C8.74326 94.8184 11.3963 96.4932 13.9496 96.8202C15.8175 97.1161 17.4903 96.6234 19.192 96.2624C19.421 96.2624 19.5206 96.4932 19.6168 96.6234C19.7814 98.1326 19.5517 99.4775 19.8797 100.856C20.1751 102.135 20.6005 103.022 21.0585 104.267C21.1256 104.693 21.0585 105.154 20.763 105.482C19.8153 106.206 18.8309 106.698 17.7835 107.158L15.2295 107.32L14.7369 107.552C13.7864 108.668 13.7546 109.816 13.1659 111.061C12.3779 112.376 10.9383 112.996 9.72418 113.751C9.33337 114.375 8.9051 115.032 8.35104 115.524C7.92277 115.918 7.40051 116.016 6.84362 116.082C5.95881 117.1 5.76305 118.509 5.53125 119.888C6.97295 120.02 8.48178 120.806 9.88955 120.02C11.1016 119.46 11.3645 117.984 12.2811 117.1C13.0019 116.312 14.0832 116.903 14.9341 117.065C16.2097 117.131 17.1284 116.213 18.2111 115.786C18.9616 115.296 19.585 114.442 20.3701 113.948C21.8782 113.23 23.9736 113.62 25.5468 113.917C26.7906 114.244 28.1016 114.049 29.1821 113.554C30.1984 112.932 31.1482 112.144 32.2938 111.882C33.3086 111.358 33.8019 110.209 34.2274 109.259C34.5524 108.371 35.4054 107.684 35.3397 106.667C35.0768 106.436 34.7835 105.942 34.3906 105.974C33.8987 106.667 33.539 107.386 32.9821 108.045C30.6132 111.281 28.751 111.587 23.9418 111.587C20.3701 111.455 17.1595 112.54 14.7051 115.327C14.5404 115.426 14.3108 115.358 14.18 115.231C14.0832 114.834 14.4118 114.182 14.5737 113.886C16.7701 110.77 20.1751 110.048 23.7772 109.985C25.7418 109.85 27.6097 109.523 29.2818 108.672C31.1475 107.721 32.4238 106.239 33.2118 104.399C33.6358 102.332 33.8019 100.102 34.3263 98.1326C34.3899 97.9365 34.8811 97.7893 35.0436 97.8551C35.2401 97.8884 35.6302 98.0667 35.6302 98.2975C35.2719 100.33 34.6196 102.724 35.4054 104.693C36.9779 106.764 39.8945 105.648 42.0245 105.547C44.2507 105.35 46.0415 105.525 48.1701 105.655C49.2182 105.624 49.9934 105.879 50.8111 105.224C51.0376 104.852 51.128 104.413 51.0669 103.981C50.9998 103.39 50.5086 103.034 51.0669 102.54C51.2295 102.409 51.7192 102.496 51.85 102.66C52.1447 103.481 52.2754 104.366 52.8005 105.088C53.8485 106.436 55.3871 107.486 56.8274 108.239C58.2019 109.193 59.3503 110.538 59.4493 112.21C59.4493 113.064 58.6627 113.653 58.0076 114.049C56.8945 114.605 55.6811 115.064 54.3722 114.933C52.6337 114.081 52.1765 112.243 51.0295 110.897C50.4422 110.242 49.5567 110.111 48.6719 110.177C47.7213 110.273 46.7729 110.306 45.9213 110.603C45.6917 110.8 45.6266 111.094 45.6585 111.391C46.2486 112.473 46.9037 113.523 47.5567 114.605C48.3129 115.064 49.3602 114.342 50.0139 115.161C50.5701 116.016 50.9312 117.034 51.7842 117.69C52.604 118.41 53.8485 118.738 54.9291 118.28C57.3531 117.525 59.7772 116.739 62.0372 115.524H62.7892C63.7058 115.426 64.7235 115.491 65.3772 114.802C66.0736 113.798 66.6976 112.745 67.2443 111.652C67.8005 110.897 67.539 109.748 67.3114 108.929C66.197 107.552 65.5729 106.007 64.9835 104.431C64.4288 104.267 63.9355 103.94 63.3143 103.972C63.021 104.102 62.5934 104.037 62.4288 104.366L65.0167 109.487C65.1793 109.881 65.3772 110.437 65.2782 110.962C64.9178 112.047 64.3616 113.095 63.4782 113.882C63.3143 113.983 63.1178 114.081 62.9871 113.851C63.2803 112.735 63.8054 111.522 63.7397 110.242L61.2189 105.679C60.922 105.055 60.3991 104.497 60.4309 103.775C60.4309 103.446 60.7242 103.218 60.9892 103.087C62.1023 102.724 63.4443 102.792 64.2959 101.907C65.4111 100.166 65.6422 98.4596 65.9369 96.3934C66.0026 96.2624 66.2676 96.0097 66.4634 96.0097C66.6599 95.9446 66.8839 96.2313 66.9807 96.3283C67.3114 98.5913 66.8507 100.888 65.5411 102.66C65.4761 102.89 65.3772 103.186 65.6387 103.349C66.8839 103.743 68.1941 103.349 69.2429 102.792C70.5857 102.824 71.8295 102.496 73.0436 102.3C73.1736 102.363 73.3051 102.496 73.3051 102.627C72.4874 103.545 72.0273 104.563 71.7984 105.746C70.8139 106.764 69.4061 107.649 69.3072 109.128C69.4719 109.847 70.0952 109.159 70.5206 109.225C70.6133 109.24 70.6975 109.288 70.7576 109.36C70.8177 109.432 70.8497 109.524 70.8478 109.618L69.8655 111.061C69.3411 111.916 69.9623 112.9 69.9623 113.72C70.1927 114.375 70.9786 114.705 71.6655 114.705C73.1411 114.64 74.4514 114.081 75.7623 113.62C77.204 112.996 79.0033 113.029 80.5779 113.292C82.1164 113.195 83.2634 112.177 84.409 111.16C85.033 111.16 85.5892 111.587 86.0139 112.047C87.7807 113.948 90.0761 114.769 92.6641 114.705L92.8931 114.574C93.0577 114.408 92.9906 114.114 92.7927 113.983L91.2556 113.195C90.1743 112.504 88.8302 111.587 88.4712 110.371C88.1432 109.29 87.5524 108.108 86.8973 107.058C86.6697 106.533 86.1454 106.107 85.9157 105.581C85.9793 105.514 86.0457 105.415 86.1454 105.449C87.8485 106.042 88.8641 107.714 89.6478 109.225C90.8952 110.962 92.6952 112.438 95.0542 112.047L95.2507 111.882C95.3496 111.751 95.3164 111.587 95.2507 111.488L94.0697 110.897Z" fill="#ED1E36"/>
<path d="M7.10371 114.54C8.11997 113.949 8.77509 112.835 9.30018 111.882C9.20265 111.524 8.84011 111.261 8.54541 110.996C8.35106 110.834 8.05636 110.964 7.82456 111.03C7.10371 111.653 6.35318 112.146 5.56519 112.64C5.23799 112.868 5.36944 113.36 5.30371 113.721C5.30371 114.05 5.69594 114.278 5.89382 114.475C6.25424 114.641 6.71148 114.672 7.10371 114.54ZM146.149 110.178C145.264 110.342 144.248 110.145 143.363 110.274C142.972 110.865 142.611 111.588 142.708 112.377C142.806 113.196 143.723 113.261 144.314 113.492C144.871 113.556 145.688 113.752 145.987 113.165C146.313 112.309 146.608 111.392 146.739 110.473C146.673 110.211 146.41 110.112 146.149 110.178Z" fill="#ED1E36"/>
<path d="M137.872 80.022L137.733 80.2995L137.579 80.5451C137.234 80.8648 136.889 81.1852 136.545 81.5064L135.44 82.5413C134.61 83.3482 134.027 84.0306 133.608 84.6889C133.256 85.1723 132.991 85.7351 132.733 86.2787C132.654 86.4408 132.458 86.4443 132.35 86.4089L132.288 86.3891L132.27 86.3297C132.198 86.114 132.163 85.888 132.166 85.6608C132.166 85.4781 132.185 85.2821 132.225 85.0711L132.428 84.2521L132.531 83.8819C133.16 82.2086 134.564 80.4609 136.381 79.0948C136.616 78.9461 137.049 78.8399 137.382 78.944C137.478 78.9724 137.566 79.0224 137.64 79.0901C137.714 79.1578 137.772 79.2415 137.808 79.3347C137.89 79.4699 137.928 79.6023 137.928 79.7389C137.928 79.8309 137.91 79.9244 137.874 80.022L137.952 80.0496L137.873 80.022M124.51 98.6774L124.42 98.9938C124.345 99.0985 124.248 99.2245 124.127 99.3003C124.024 99.3611 123.865 99.4114 123.692 99.3017C123.521 99.2344 123.373 99.1182 123.266 98.9676C123.264 98.9676 123.126 98.7552 123.126 98.7552L123.006 98.5457C122.859 98.2937 122.719 98.1019 122.377 98.1281C122.073 98.1132 121.85 98.2364 121.655 98.373L121.441 98.5323L121.321 98.6236C121.319 98.6236 120.976 98.8557 120.976 98.8557C120.96 98.8664 120.506 99.2564 120.506 99.2564L120.302 99.4284L119.644 100.041C119.166 100.54 118.907 100.993 118.824 101.468L118.735 101.812L118.709 101.961L118.667 102.169C118.621 102.4 118.54 102.654 118.307 102.799C118.222 102.822 118.133 102.825 118.047 102.809C117.961 102.793 117.879 102.757 117.808 102.706C117.752 102.667 117.706 102.616 117.673 102.557C117.641 102.497 117.622 102.43 117.62 102.362C117.487 100.779 118.043 99.3003 119.142 98.2972C119.699 97.8386 120.169 97.2864 120.556 96.8051L120.986 96.2579L121.846 95.1933L121.943 95.1417C122.567 95.0213 122.957 95.5791 123.095 95.8247C123.637 96.5241 124.078 97.3133 124.484 98.3164C124.509 98.3871 124.521 98.4615 124.521 98.5386C124.521 98.5846 124.517 98.6306 124.51 98.6774ZM123.758 110.035L123.737 110.077C123.524 110.229 123.259 110.292 122.89 110.274L122.264 110.202L122.055 110.171L122.01 110.157C121.383 109.806 121.229 109.092 121.158 108.373C121.158 108.13 121.238 107.942 121.405 107.812L121.437 107.783H121.484C122.345 107.783 122.996 108.042 123.416 108.551L123.437 108.587L123.567 108.842L123.761 109.248C123.818 109.4 123.848 109.538 123.848 109.667C123.848 109.797 123.818 109.918 123.758 110.035ZM193.546 116.311C191.875 116.408 191.056 114.604 190.076 113.553C189.255 112.603 187.651 112.046 187.683 110.633C187.389 110.077 187.321 109.192 187.061 108.468C186.831 107.879 186.601 107.024 185.815 106.894C184.407 106.666 182.703 107.057 181.818 105.745C180.904 104.76 181.918 103.612 182.082 102.659C182.473 101.446 182.508 99.8375 182.311 98.5903C182.278 97.8683 181.787 97.2794 181.918 96.5567C182.246 95.933 183.032 96.3924 183.521 96.4583C185.356 96.9835 187.519 96.7216 189.188 95.9996C191.482 94.8833 193.317 92.5538 193.219 89.8958C192.89 86.4507 190.433 83.6314 187.781 81.3995C187.29 80.972 186.667 80.5133 186.503 79.8904C186.437 78.5441 187.943 79.2009 188.699 78.8732C189.615 78.6424 190.533 78.4131 191.287 77.8893C193.284 76.5423 193.711 74.1809 193.317 71.8846C193.252 71.6878 193.252 71.3912 192.957 71.3912C192.596 71.6885 192.236 72.114 191.779 72.3759C190.499 73.1318 188.794 73.0002 187.454 73.6571C185.782 74.3791 183.719 75.3941 182.998 77.2968C182.801 78.2503 183.033 79.2335 183.458 80.022C185.487 83.2364 189.779 85.3366 190.468 89.2071C190.728 90.7827 189.943 91.9309 188.731 92.8171C186.895 93.9312 184.145 93.5384 182.311 92.5538C178.773 90.7827 175.694 87.8296 171.894 86.6156C169.503 85.534 166.555 85.7945 164.426 84.1205C162.822 83.0714 161.347 81.6933 159.546 81.2353C158.3 80.8085 156.892 80.8743 155.748 80.2514C154.565 79.2009 153.322 78.217 151.945 77.5283C150.048 76.5762 147.95 76.085 145.854 75.6242C144.608 75.329 144.151 73.9522 143.136 73.2621C141.398 71.8846 139.466 70.9 137.108 71.0975C136.127 71.1633 135.371 71.8188 134.617 72.4757C129.608 76.8714 123.873 79.8904 119.29 84.9097C116.209 88.0929 115.389 92.1284 114.244 96.0314C112.607 101.937 111.919 108.436 105.99 112.078C105.891 112.242 105.891 112.539 106.087 112.669C107.66 113.063 109.198 112.437 110.247 111.357C111.263 109.747 112.343 108.206 113.72 106.73L114.049 106.566C114.212 106.601 114.406 106.697 114.343 106.927C113.95 108.238 112.769 109.192 112.378 110.502C111.854 112.078 110.346 113.291 109.067 114.407L109.034 114.604C109.034 114.768 109.198 114.932 109.364 114.965C112.247 115.094 114.309 113.028 116.242 111.093C116.44 110.896 116.701 110.93 116.962 110.995C117.815 111.651 118.6 112.638 119.716 112.865C120.895 112.7 122.136 112.539 123.384 112.638C125.119 113.163 126.791 113.881 128.526 114.472C129.41 114.441 130.065 113.586 130.524 112.865C130.884 112.014 130.36 111.159 130.425 110.339C130.853 110.077 131.343 110.404 131.802 110.272C131.995 110.142 132.162 109.911 132.162 109.683C131.834 108.175 130.491 107.057 130.065 105.647C129.409 103.84 127.28 102.759 126.887 100.821C126.985 100.69 127.149 100.494 127.315 100.625C128.723 101.642 129.968 102.987 131.704 103.249C133.013 103.382 134.357 103.512 135.666 103.413C135.863 103.348 136.027 103.117 135.961 102.889C135.405 101.708 134.881 100.528 134.552 99.2465C134.095 97.6404 133.765 95.4085 134.29 93.6361C134.388 93.5051 134.813 93.2538 135.01 93.319C135.273 93.3848 135.596 93.7019 135.63 93.9312C135.827 96.7216 135.537 99.2797 137.206 101.478C137.926 102.626 139.171 102.856 140.056 103.742C140.381 104.203 140.449 104.955 140.22 105.481L138.222 108.436C137.762 109.092 137.305 109.815 137.139 110.537C136.977 111.358 137.073 112.143 137.139 112.931C137.01 112.995 136.946 112.8 136.813 112.735C136.289 111.652 135.7 110.272 136.256 108.994L138.778 105.087L138.877 104.792C138.319 104.496 137.697 104.203 137.108 104.07C136.813 104.203 136.616 104.496 136.42 104.76L133.963 109.224C133.798 109.747 133.636 110.142 133.765 110.701C133.898 111.357 134.06 112.014 134.357 112.568C134.552 113.49 134.715 114.113 135.141 114.932C135.764 115.621 136.616 114.998 137.403 115.195C138.189 115.392 138.484 116.342 139.268 116.574C141.038 117.161 142.939 117.491 144.705 118.181C145.624 118.474 146.934 118.837 147.753 118.08C148.899 117.46 149.195 116.245 149.393 115.094C149.751 114.604 150.47 114.801 150.997 114.639C151.979 113.982 152.306 112.8 153.027 111.916L153.158 111.454C153.059 111.159 152.798 110.995 152.536 110.896H149.196C147.654 111.093 147.522 112.8 146.87 113.85C146.508 114.507 145.789 114.768 145.034 114.704C143.461 114.275 141.529 114.048 140.808 112.34C140.709 111.916 140.709 111.39 141.038 111.093C141.855 110.142 142.84 109.061 143.855 108.273C145.297 107.976 146.707 106.894 147.456 105.612C147.852 105.054 147.786 104.234 148.442 103.807C148.639 103.774 149.075 103.762 149.208 103.958C149.502 104.909 148.969 105.592 148.675 106.412C152.246 106.773 155.014 105.74 158.485 105.871C159.96 105.871 161.281 106.041 162.721 105.941C164.165 105.875 165.736 105.283 166.194 103.775C166.85 101.839 165.939 99.6407 165.608 97.8025L166.004 97.4917C166.236 97.3601 166.62 97.5413 166.784 97.6722C167.407 99.4107 167.831 101.512 168.095 103.413C168.356 105.087 169.078 106.176 169.994 107.589C171.664 110.081 174.613 111.063 177.529 110.44C181.066 110.178 184.11 112.046 186.275 114.801V114.965C186.208 115.094 186.078 115.261 185.914 115.23C184.046 113.783 182.179 112.242 179.788 111.948C177.371 111.506 175.201 112.767 172.68 111.75C169.641 110.748 168.366 108.872 167.079 105.875H166.815C166.62 105.908 166.49 106.106 166.456 106.303L166.784 108.339C167.178 109.978 167.703 111.916 169.472 112.669C170.846 113.49 172.187 114.67 173.893 114.21C176.874 113.553 179.886 114.407 182.179 116.081C182.934 116.508 183.521 117.296 184.341 117.59C185.225 117.949 186.306 117.752 187.027 117.161C188.699 116.606 189.091 118.706 190.238 119.459C191.254 120.444 193.281 120.036 194.625 120.036L194.593 119.887C194.431 118.54 194.069 117.491 193.547 116.311M198.001 118.019C197.837 117.262 198.034 116.213 197.541 115.523C197.116 115.195 196.723 114.704 196.167 114.834C195.707 115.23 195.02 115.686 195.118 116.377C195.509 117.557 195.774 118.409 196.003 119.624C196.134 119.853 196.003 120.313 196.364 120.313L198.46 119.623C198.82 119.034 198.132 118.575 198.001 118.019Z" fill="#ED1E36"/>
<path d="M192.695 111.194C192.039 110.634 191.353 111.455 191.023 111.949C191.255 112.735 191.907 113.392 192.399 114.115C192.662 114.508 193.086 114.769 193.547 114.802C194.004 114.802 194.367 114.573 194.692 114.311C194.922 114.013 195.184 113.652 195.088 113.229C194.463 112.375 193.481 111.847 192.695 111.194Z" fill="#ED1E36"/>
</g>
<defs>
<clipPath id="clip0_48_419">
<rect width="200" height="200" fill="white"/>
</clipPath>
</defs>
</svg>
