<svg width="200" height="200" viewBox="0 0 200 200" fill="none" xmlns="http://www.w3.org/2000/svg">
<g clip-path="url(#clip0_48_347)">
<path d="M99.6447 200C70.221 187.934 47.8443 170.761 33.1313 148.953C21.3158 131.441 14.3776 110.905 12.5084 87.9122C9.49261 50.8221 20.8208 19.1073 22.1815 15.4628C25.6367 13.8061 55.7676 0 99.6447 0C143.521 0 173.652 13.8055 177.107 15.4628C178.468 19.1073 189.797 50.8221 186.781 87.9116C184.911 110.904 177.973 131.441 166.159 148.952C151.444 170.761 129.068 187.934 99.6447 200Z" fill="#633492"/>
<path fill-rule="evenodd" clip-rule="evenodd" d="M99.6449 195.368C71.8131 183.669 50.6303 167.253 36.6677 146.556C25.2691 129.662 18.5728 109.814 16.7633 87.5638C14.0905 54.696 22.9735 26.1535 25.5931 18.5995C32.8293 15.3822 60.6398 4.27734 99.6449 4.27734C138.649 4.27734 166.46 15.3828 173.697 18.5995C176.316 26.1529 185.198 54.6954 182.526 87.5638C180.716 109.814 174.02 129.662 162.622 146.556C148.659 167.253 127.476 183.669 99.6443 195.369M99.6443 190.721C73.4068 179.4 53.4155 163.742 40.2045 144.161C29.2234 127.884 22.7677 108.724 21.0186 87.2166C18.5976 57.4399 25.8817 31.3569 29.0294 21.7736C38.2826 17.8779 64.1624 8.55469 99.6449 8.55469C135.127 8.55469 161.006 17.8773 170.26 21.7736C173.408 31.3563 180.692 57.4399 178.271 87.2166C176.521 108.725 170.067 127.884 159.085 144.161C145.874 163.742 125.881 179.401 99.6443 190.721Z" fill="white"/>
<path d="M62.4159 140.434C61.77 139.804 61.0104 139.304 60.1777 138.959C59.3268 138.603 58.4031 138.423 57.4321 138.423C56.4612 138.423 55.5375 138.603 54.686 138.959C53.8534 139.304 53.094 139.804 52.4484 140.434C51.8096 141.059 51.2983 141.804 50.9428 142.625C50.5759 143.473 50.3892 144.389 50.3946 145.314C50.3946 146.265 50.5791 147.169 50.9428 148.002C51.2987 148.823 51.81 149.567 52.4484 150.193C53.0939 150.822 53.8534 151.323 54.686 151.668C55.5363 152.023 56.4606 152.204 57.4321 152.204C58.4037 152.204 59.328 152.024 60.1777 151.668C61.0104 151.323 61.77 150.822 62.4159 150.193C63.0544 149.567 63.5659 148.823 63.922 148.002C64.2857 147.169 64.4702 146.264 64.4702 145.314C64.4702 144.363 64.2863 143.458 63.922 142.625C63.5657 141.804 63.0543 141.06 62.4159 140.434ZM62.1581 145.314C62.1627 145.951 62.0388 146.584 61.7938 147.172C61.561 147.731 61.2186 148.237 60.7868 148.66C60.35 149.084 59.8369 149.422 59.2747 149.654C58.1335 150.136 56.7302 150.136 55.5889 149.654C55.0268 149.421 54.5138 149.084 54.0769 148.659C53.6453 148.236 53.303 147.731 53.0704 147.172C52.8255 146.584 52.7018 145.951 52.7068 145.314C52.7068 144.65 52.8292 144.024 53.0704 143.454C53.3034 142.896 53.6458 142.39 54.0775 141.966C54.5146 141.543 55.0276 141.205 55.5895 140.972C56.1736 140.729 56.8003 140.606 57.4327 140.61C58.0832 140.61 58.7041 140.732 59.2753 140.972C59.8489 141.213 60.3575 141.547 60.7874 141.966C61.2187 142.39 61.5611 142.896 61.7944 143.454C62.039 144.043 62.1627 144.675 62.1581 145.314ZM75.2757 146.905C76.7103 146.093 77.4128 144.705 77.4128 143.134C77.4128 140.616 75.7754 138.576 72.7294 138.576H67.8491V152.051H70.1606V140.819H72.5993C73.212 140.819 73.7997 141.063 74.233 141.497C74.6662 141.931 74.9096 142.52 74.9096 143.134C74.9096 143.748 74.6662 144.336 74.233 144.771C73.7997 145.205 73.212 145.449 72.5993 145.449H70.8271L76.278 152.051H79.3884L75.2757 146.905ZM91.3813 149.959H84.5348V138.576H82.2227V152.051H90.2566L91.3807 149.959M100.299 137.652L93.4592 152.05H96.0067L100.3 142.897L101.688 145.846H100.299L99.3318 147.938H102.677L104.592 152.051H107.14L100.299 137.652ZM109.693 143.816L118.584 152.441V139.063H116.038V146.764L107.52 138.138V147.406L109.693 151.518V143.817M130.687 140.509C130.051 139.899 129.304 139.418 128.486 139.092C127.644 138.75 126.724 138.576 125.754 138.576H121.198V152.052H125.754C126.724 152.052 127.644 151.877 128.486 151.536C129.329 151.193 130.069 150.717 130.688 150.118C131.312 149.51 131.811 148.784 132.156 147.983C132.513 147.163 132.694 146.265 132.694 145.314C132.694 144.362 132.513 143.465 132.156 142.644C131.811 141.843 131.312 141.117 130.687 140.509ZM123.511 140.667H125.526C126.191 140.667 126.825 140.787 127.41 141.023C127.997 141.26 128.519 141.591 128.959 142.006C129.402 142.423 129.756 142.925 130.003 143.482C130.254 144.046 130.382 144.662 130.382 145.313C130.382 145.976 130.255 146.595 130.003 147.153C129.755 147.706 129.401 148.205 128.959 148.621C128.027 149.49 126.799 149.968 125.526 149.959H123.511V140.667ZM148.346 142.624C147.99 141.804 147.479 141.06 146.841 140.434C146.195 139.804 145.436 139.304 144.603 138.959C143.751 138.603 142.828 138.423 141.857 138.423C140.886 138.423 139.962 138.603 139.111 138.959C138.278 139.304 137.519 139.804 136.873 140.434C136.235 141.06 135.723 141.804 135.367 142.625C135 143.473 134.814 144.389 134.819 145.314C134.819 146.265 135.004 147.169 135.367 148.002C135.723 148.823 136.235 149.567 136.873 150.193C137.519 150.822 138.278 151.323 139.111 151.668C139.961 152.023 140.885 152.204 141.857 152.204C142.828 152.204 143.753 152.024 144.603 151.668C145.435 151.323 146.195 150.822 146.841 150.193C147.479 149.567 147.99 148.822 148.347 148.002C148.71 147.169 148.895 146.264 148.895 145.314C148.895 144.363 148.711 143.458 148.346 142.624ZM146.582 145.314C146.587 145.951 146.464 146.584 146.219 147.172C145.986 147.731 145.644 148.237 145.212 148.66C144.775 149.084 144.262 149.421 143.7 149.654C142.557 150.136 141.155 150.136 140.013 149.654C139.451 149.421 138.938 149.084 138.501 148.659C138.07 148.236 137.728 147.73 137.495 147.172C137.25 146.584 137.126 145.951 137.131 145.314C137.131 144.65 137.254 144.024 137.495 143.454C137.728 142.896 138.07 142.39 138.502 141.966C138.939 141.543 139.451 141.205 140.013 140.972C140.597 140.729 141.224 140.606 141.857 140.61C142.508 140.61 143.128 140.732 143.7 140.972C144.274 141.213 144.782 141.547 145.212 141.966C145.643 142.39 145.986 142.896 146.219 143.454C146.461 144.025 146.582 144.65 146.582 145.314ZM89.9284 165.57C89.7541 165.837 89.5513 166.084 89.3234 166.307C88.8863 166.731 88.3733 167.068 87.8114 167.302C86.6695 167.783 85.2669 167.783 84.1256 167.302C83.5637 167.068 83.0507 166.731 82.6136 166.307C82.1816 165.884 81.8391 165.378 81.6065 164.82C81.3616 164.231 81.2379 163.598 81.2428 162.96C81.238 162.323 81.3617 161.69 81.6065 161.102C81.8399 160.543 82.1823 160.038 82.6136 159.614C83.0509 159.19 83.5638 158.853 84.1256 158.62C84.7097 158.377 85.3364 158.254 85.9688 158.258C86.6193 158.258 87.2402 158.379 87.812 158.619C88.3856 158.861 88.8941 159.195 89.3234 159.614C89.5511 159.835 89.7522 160.084 89.9284 160.352V157.254C89.5499 157.004 89.1443 156.786 88.7144 156.607C87.8634 156.251 86.9398 156.07 85.9688 156.07C84.9984 156.07 84.0742 156.251 83.2232 156.607C82.3905 156.952 81.631 157.452 80.985 158.082C80.3465 158.707 79.835 159.451 79.4789 160.271C79.112 161.12 78.9253 162.036 78.9307 162.96C78.9307 163.912 79.1158 164.817 79.4789 165.65C79.8351 166.47 80.3466 167.214 80.985 167.84C81.6306 168.47 82.39 168.97 83.2226 169.315C84.0724 169.671 84.9966 169.851 85.9688 169.851C86.9398 169.851 87.864 169.671 88.7144 169.315C89.1443 169.135 89.5493 168.918 89.9278 168.667V165.57M93.27 156.069H95.5821V169.545H93.27V156.069ZM107.473 156.069H98.4844V158.161H102.217V169.545H104.529V158.161H108.853L107.473 156.069ZM119.626 156.069L116.033 161.203L112.439 156.069H109.707C109.782 156.223 114.877 163.627 114.877 163.627V169.545H117.189V163.627L122.405 156.069H119.626Z" fill="white"/>
<path d="M143.239 77.756C158.102 76.9519 157.612 68.1958 157.612 68.1958C148.905 72.0175 145.971 65.5052 142.407 64.7794C154.689 60.5506 152.866 51.2778 152.866 51.2778C148.088 57.466 140.873 51.9841 137.361 52.5173C147.242 45.9363 143.443 36.6457 143.443 36.6457C141.59 43.6166 129.433 41.5505 129.433 41.5505C136.159 31.6028 130.168 24.8417 130.168 24.8417C130.67 32.1811 117.901 34.076 117.901 34.076C121.214 21.0745 113.785 17.7944 113.785 17.7944C115.256 23.9778 106.666 28.8714 106.666 28.8714L99.6447 15.1523L92.6232 28.8714C92.6232 28.8714 84.0329 23.9772 85.5029 17.7944C85.5029 17.7944 78.0752 21.0745 81.3884 34.0766C81.3884 34.0766 68.6179 32.1811 69.1211 24.8423C69.1211 24.8423 63.1291 31.6034 69.8562 41.5505C69.8562 41.5505 57.6983 43.6166 55.8457 36.6457C55.8457 36.6457 52.0457 45.9363 61.9281 52.5173C58.4162 51.9841 51.2001 57.466 46.4227 51.2778C46.4227 51.2778 44.5996 60.5506 56.8817 64.7794C53.3183 65.5052 50.3847 72.0169 41.6767 68.1958C41.6767 68.1958 41.187 76.9519 56.0503 77.756C50.7253 80.8915 51.8683 87.0513 42.103 86.0097C42.103 86.0097 45.3045 94.0382 58.4694 90.5779C54.43 94.8339 56.5233 100.354 47.4221 102.077C47.4221 102.077 53.3573 109.324 64.763 101.914C62.6342 105.9 65.624 111.917 57.6291 115.895C57.6291 115.895 65.9007 120.729 74.5993 110.385C74.2131 116.621 78.0202 121.307 71.9513 126.653C71.9513 126.653 81.0927 129.148 86.452 116.317C87.397 121.723 92.583 123.941 88.4566 132.479C88.4566 132.479 95.2895 133.007 99.6447 121.821C104 133.007 110.832 132.479 110.832 132.479C106.706 123.941 111.892 121.723 112.837 116.317C118.197 129.148 127.338 126.653 127.338 126.653C121.269 121.307 125.075 116.621 124.69 110.384C133.389 120.729 141.66 115.895 141.66 115.895C133.665 111.916 136.656 105.9 134.526 101.914C145.931 109.324 151.866 102.077 151.866 102.077C142.765 100.355 144.859 94.834 140.82 90.5773C153.984 94.0382 157.186 86.0091 157.186 86.0091C147.42 87.0513 148.564 80.8915 143.239 77.756ZM79.625 41.5867C85.555 41.5867 85.044 36.9912 84.4066 35.9205C84.4066 35.9205 89.3478 36.1409 93.4919 39.1947C93.4919 39.1947 98.4336 33.5285 99.6447 28.9958C100.856 33.5285 105.797 39.1947 105.797 39.1947C109.94 36.1415 114.882 35.9205 114.882 35.9205C114.244 36.9912 113.734 41.5867 119.664 41.5867C125.593 41.5867 126.836 43.5384 126.836 43.5384C125.115 43.193 122.693 42.8458 116.285 45.0185C109.877 47.1901 111.28 41.5867 111.28 41.5867C102.194 42.2479 99.6447 47.3299 99.6447 47.3299C99.6447 47.3299 97.0949 42.2479 88.009 41.5867C88.009 41.5867 89.4116 47.1901 83.0045 45.0185C76.5968 42.8458 74.1741 43.193 72.4527 43.5384C72.4527 43.5384 73.6957 41.5867 79.625 41.5867ZM103.438 84.2001C100.951 85.7116 99.6447 87.8601 99.6447 87.8601C99.6447 87.8601 98.3373 85.7122 95.8513 84.2001C95.8513 84.2001 96.1381 82.4297 95.516 82.3124C94.8951 82.1945 93.0773 82.265 93.0773 82.265C93.0773 82.265 90.1845 81.0847 89.6825 78.7236C89.6825 78.7236 91.2602 79.1721 93.3641 78.5114C95.4681 77.8502 96.3285 78.6062 96.9979 78.8889C97.6673 79.1727 98.3692 79.2669 99.6441 79.2669C100.919 79.2669 101.621 79.1721 102.29 78.8889C102.959 78.6062 103.82 77.8502 105.924 78.5114C108.029 79.1721 109.606 78.7236 109.606 78.7236C109.103 81.0847 106.21 82.265 106.21 82.265C106.21 82.265 104.393 82.1945 103.773 82.3124C103.151 82.4297 103.438 84.2001 103.438 84.2001H103.438ZM89.8894 65.6367C86.7974 65.5733 78.9237 65.0069 78.6363 58.9627V58.8057C78.6363 58.8057 82.9986 58.1142 84.662 58.8057C87.6897 60.0648 90.3034 65.8258 95.2132 61.5123C95.2132 61.5123 91.9301 68.7848 89.8894 72.4044C89.8894 72.4044 92.9821 65.6995 89.8894 65.6367ZM109.399 65.6367C106.307 65.6995 109.399 72.4044 109.399 72.4044C107.359 68.7842 104.075 61.5123 104.075 61.5123C108.984 65.8258 111.599 60.0653 114.627 58.8057C116.29 58.1142 120.652 58.8057 120.652 58.8057V58.9627C120.365 65.0069 112.491 65.5727 109.399 65.6367ZM132.797 84.7441C123.904 82.9967 120.365 87.0578 120.365 87.0578C126.151 87.8601 128.629 94.6834 128.629 94.6834C124.389 92.0865 119.695 92.6772 119.695 92.6772C125.433 107.149 106.33 110.501 99.6441 118.457C92.9573 110.501 73.8554 107.149 79.5931 92.6772C79.5931 92.6772 74.8991 92.0865 70.6592 94.6834C70.6592 94.6834 73.1381 87.8607 78.9237 87.0578C78.9237 87.0578 75.3852 82.9967 66.4915 84.7441C66.4915 84.7441 71.1299 79.2669 76.9155 80.305C76.9155 80.305 73.9506 75.159 65.3916 74.6394C65.3916 74.6394 66.7783 72.7978 71.8472 72.4204C71.8472 72.4204 67.9899 68.0287 69.7426 59.97C69.7426 59.97 66.7463 57.61 67.8303 50.5585C67.8303 50.5585 68.9609 56.2762 71.3688 55.564C73.0423 55.0681 72.2771 52.9748 70.9626 53.1324C70.9626 53.1324 71.3446 51.5741 73.8069 50.5591C76.2698 49.5441 76.9155 49.4499 76.8192 47.4899C76.8192 47.4899 78.5648 46.7581 79.1863 48.4343C79.8084 50.1106 78.1106 50.9134 77.2496 51.0781C76.3893 51.244 75.1936 51.5978 74.6679 52.5896C74.6679 52.5896 76.4851 53.2035 75.0499 54.8086C73.6159 56.4143 68.4033 68.4541 80.6451 76.8121C80.6451 76.8121 80.3583 80.6836 84.7093 84.3198C84.7093 84.3198 82.8443 84.1462 82.5179 84.225C82.1914 84.3038 82.0797 87.8293 82.5179 87.9555C82.9554 88.0811 89.7777 87.9555 89.7777 87.9555C89.7777 87.9555 82.9075 90.0334 82.6391 90.2769C82.3706 90.5199 82.7171 92.3626 82.9401 92.3934C83.163 92.4248 88.7257 90.7415 91.5954 90.5525C91.5954 90.5525 85.0919 93.5269 83.9921 94.4239C83.9921 94.4239 85.0434 96.7377 86.478 97.5405C86.478 97.5405 95.8826 94.1407 99.6435 91.0715C103.405 94.1407 112.81 97.5405 112.81 97.5405C114.244 96.7377 115.296 94.4239 115.296 94.4239C114.196 93.5269 107.693 90.5525 107.693 90.5525C110.562 90.7415 116.125 92.4248 116.348 92.3934C116.571 92.3626 116.917 90.5205 116.648 90.2769C116.38 90.0334 109.511 87.9555 109.511 87.9555C109.511 87.9555 116.332 88.0811 116.77 87.9555C117.208 87.8293 117.097 84.3038 116.77 84.225C116.443 84.1462 114.578 84.3198 114.578 84.3198C118.929 80.6836 118.643 76.8121 118.643 76.8121C130.884 68.4547 125.672 56.4137 124.237 54.8086C122.803 53.2029 124.62 52.5896 124.62 52.5896C124.093 51.5978 122.898 51.244 122.038 51.0787C121.176 50.9134 119.479 50.1106 120.101 48.4343C120.723 46.7575 122.468 47.4899 122.468 47.4899C122.373 49.4499 123.018 49.5441 125.48 50.5591C127.943 51.5747 128.326 53.1324 128.326 53.1324C127.011 52.9748 126.246 55.0681 127.919 55.564C130.326 56.2768 131.457 50.5585 131.457 50.5585C132.541 57.6106 129.545 59.97 129.545 59.97C131.298 68.0287 127.441 72.4204 127.441 72.4204C132.509 72.7978 133.897 74.6394 133.897 74.6394C125.337 75.159 122.373 80.305 122.373 80.305C128.159 79.2663 132.797 84.7441 132.797 84.7441Z" fill="#FDE192"/>
<path d="M99.6445 96.1191C99.6445 96.1191 89.049 96.5469 87.531 99.9948C87.2525 100.627 87.531 105.142 87.531 105.142C87.531 105.142 88.4233 105.331 89.1247 104.843C89.1247 104.843 89.0129 106.841 90.4634 107.849C91.9134 108.856 94.193 110.272 94.2409 110.272C94.2888 110.272 95.6276 109.265 96.3928 109.202C97.1574 109.14 98.8155 112.035 99.6445 112.853C100.472 112.035 102.13 109.14 102.895 109.202C103.661 109.265 105 110.272 105.048 110.272C105.095 110.272 107.374 108.856 108.824 107.849C110.276 106.842 110.164 104.843 110.164 104.843C110.865 105.331 111.757 105.142 111.757 105.142C111.757 105.142 112.036 100.627 111.757 99.9948C110.24 96.5469 99.6445 96.1197 99.6445 96.1197" fill="#FDE192"/>
</g>
<defs>
<clipPath id="clip0_48_347">
<rect width="200" height="200" fill="white"/>
</clipPath>
</defs>
</svg>
