<svg width="200" height="200" viewBox="0 0 200 200" fill="none" xmlns="http://www.w3.org/2000/svg">
<g clip-path="url(#clip0_48_40)">
<path d="M200 100.4V99.5C199.8 44.6 155 0 100 0C44.9 0 0 44.9 0 100C0 155.1 44.9 200 100 200C155 200 199.8 155.4 200 100.4Z" fill="url(#paint0_linear_48_40)"/>
<path d="M99.9999 3.90039C46.9999 3.90039 3.8999 47.0004 3.8999 100C3.8999 153 46.9999 196.1 99.9999 196.1C153 196.1 196.1 153 196.1 100C196.1 47.0004 153 3.90039 99.9999 3.90039Z" fill="#071B2C"/>
<path d="M165.8 99.9992C165.8 63.6992 136.3 34.1992 100 34.1992C63.7002 34.1992 34.2002 63.6992 34.2002 99.9992C34.2002 136.299 63.7002 165.799 100 165.799C136.3 165.799 165.8 136.299 165.8 99.9992Z" fill="url(#paint1_linear_48_40)"/>
<path d="M100 165.9C107.7 165.9 115.1 164.5 122 162.1V142.1C113.7 143.5 106.2 147.3 99.9 152.7C93.6 147.3 86.2 143.6 78 142.1V162.1C84.9 164.5 92.3 165.9 100 165.9Z" fill="#3E8EDE"/>
<path d="M156.2 95.4004C154.8 94.9004 153.5 94.5004 153.5 94.5004C136.8 89.5004 118.8 86.9004 99.9002 86.9004C81.3002 86.9004 62.8002 89.5004 46.3002 94.5004C46.3002 94.5004 45.1002 94.9004 43.7002 95.4004L46.8002 98.2004C49.4002 97.4004 52.1002 96.7004 54.8002 96.0004C59.8002 125 76.8002 149.3 100.1 162.1C123.3 149.3 140.4 125 145.4 96.0004C148 96.7004 150.6 97.3004 153.1 98.1004L156.2 95.4004Z" fill="#071B2C"/>
<path d="M100 83.6004C116.1 83.6004 131.6 85.5004 146.3 89.1004C146.7 85.7004 146.8 82.2004 146.8 78.7004C146.8 70.9004 145.9 63.4004 144.3 56.2004C139.7 57.8004 134.8 58.7004 129.7 58.7004C118.5 58.7004 108.2 54.5004 100 47.4004C91.8002 54.5004 81.5002 58.7004 70.3002 58.7004C65.2002 58.7004 60.3002 57.8004 55.7002 56.2004C54.1002 63.4004 53.2002 70.9004 53.2002 78.7004C53.2002 82.2004 53.4002 85.7004 53.7002 89.1004C68.4002 85.5004 84.2002 83.6004 100 83.6004Z" fill="#071B2C"/>
<path d="M100.1 34.1992C92.4001 34.1992 85.0001 35.5992 78.1001 37.9992V57.9992C86.4001 56.5992 93.9001 52.7992 100.2 47.3992C106.5 52.7992 113.9 56.4992 122.1 57.9992V37.9992C115.2 35.4992 107.8 34.1992 100.1 34.1992Z" fill="#3E8EDE"/>
<path d="M22.7001 89.3008C22.9001 89.3008 23.0001 89.4008 23.2001 89.4008C23.3001 89.4008 23.4001 89.5008 23.5001 89.5008L23.7001 89.7008C23.9001 89.9008 24.1001 90.1008 24.2001 90.4008C24.3001 90.7008 24.2001 91.1008 24.2001 91.6008L25.7001 91.9008L27.4001 83.8008L25.9001 83.5008C25.8001 84.0008 25.6001 84.4008 25.5001 84.7008C25.4001 84.9008 25.2001 85.1008 25.0001 85.2008C24.9001 85.3008 24.8001 85.3008 24.7001 85.3008H24.3001C24.2001 85.3008 24.0001 85.3008 23.8001 85.2008C23.6001 85.2008 23.3001 85.1008 23.0001 85.0008L16.1001 83.6008C15.7001 83.5008 15.4001 83.4008 15.2001 83.3008C15.0001 83.2008 14.9001 83.1008 14.8001 82.9008C14.6001 82.6008 14.6001 82.1008 14.7001 81.5008C14.8001 80.7008 15.1001 80.3008 15.6001 80.2008C16.2001 80.0008 17.1001 80.0008 18.5001 80.3008C19.5001 80.5008 20.2001 80.8008 20.5001 81.1008C20.8001 81.4008 20.9001 81.9008 20.8001 82.5008C20.7001 82.8008 20.6001 83.2008 20.4001 83.6008L21.9001 84.5008C22.6001 83.8008 23.0001 82.9008 23.3001 81.7008C23.6001 80.1008 23.4001 78.9008 22.8001 78.0008C22.1001 77.1008 20.9001 76.5008 19.1001 76.1008C18.3001 75.9008 17.6001 75.8008 16.9001 75.8008C16.1001 75.8008 15.4001 75.9008 14.8001 76.2008C13.8001 76.7008 13.2001 77.7008 12.9001 79.2008C12.9001 79.4008 12.8001 79.6008 12.8001 79.9008C12.8001 80.2008 12.7001 80.5008 12.7001 80.8008L12.4001 82.3008C12.3001 82.8008 12.2001 83.3008 12.1001 84.0008L11.1001 88.8008L12.6001 89.1008C12.7001 88.6008 12.8001 88.3008 13.0001 88.1008C13.1001 87.9008 13.3001 87.7008 13.5001 87.6008C13.6001 87.6008 13.7001 87.5008 13.8001 87.5008H14.2001C14.4001 87.5008 14.5001 87.5008 14.7001 87.6008C14.9001 87.6008 15.2001 87.7008 15.5001 87.8008L22.3001 89.2008C22.3001 89.2008 22.5001 89.2008 22.7001 89.3008Z" fill="url(#paint2_linear_48_40)"/>
<path d="M28.0001 69.8004C28.2001 69.9004 28.3001 70.0004 28.4001 70.0004C28.5001 70.1004 28.6001 70.1004 28.6001 70.2004L28.8001 70.4004C29.0001 70.7004 29.1001 70.9004 29.1001 71.2004C29.1001 71.5004 29.0001 71.9004 28.7001 72.3004L30.0001 73.0004L32.8001 67.6004L26.7001 64.5004L28.7001 60.5004L34.8001 63.6004L37.6001 58.2004L36.3001 57.5004C36.0001 57.9004 35.8001 58.2004 35.6001 58.4004C35.4001 58.6004 35.2001 58.7004 35.0001 58.7004H34.7001C34.6001 58.7004 34.5001 58.7004 34.4001 58.6004C34.3001 58.6004 34.1001 58.5004 33.9001 58.4004C33.7001 58.3004 33.5001 58.2004 33.2001 58.0004L27.1001 55.0004C26.8001 54.9004 26.6001 54.7004 26.5001 54.7004C26.3001 54.6004 26.2001 54.5004 26.1001 54.5004C26.0001 54.4004 25.9001 54.4004 25.8001 54.3004C25.8001 54.2004 25.7001 54.2004 25.6001 54.1004C25.4001 53.8004 25.3001 53.6004 25.3001 53.3004C25.3001 53.0004 25.5001 52.6004 25.7001 52.1004L24.4001 51.4004L21.5001 56.9004L26.5001 59.4004L24.4001 63.4004L19.4001 60.8004L16.6001 66.2004L17.9001 66.9004C18.2001 66.5004 18.4001 66.2004 18.5001 66.0004C18.7001 65.8004 18.9001 65.7004 19.1001 65.7004H19.4001C19.5001 65.7004 19.6001 65.7004 19.8001 65.8004C19.9001 65.8004 20.1001 65.9004 20.3001 66.0004C20.5001 66.1004 20.7001 66.2004 21.0001 66.4004L27.1001 69.6004C27.6001 69.6004 27.8001 69.7004 28.0001 69.8004Z" fill="url(#paint3_linear_48_40)"/>
<path d="M39.7998 50.6004C39.8998 50.7004 40.0998 50.8004 40.0998 50.9004C40.0998 51.0004 40.2998 51.1004 40.2998 51.1004C40.2998 51.2004 40.3998 51.3004 40.3998 51.4004C40.4998 51.7004 40.5998 52.0004 40.4998 52.2004C40.3998 52.5004 40.1998 52.8004 39.8998 53.2004L40.9998 54.2004L46.2998 48.1004L45.1998 47.1004C44.8998 47.4004 44.5998 47.7004 44.3998 47.8004C44.1998 48.0004 43.9998 48.1004 43.6998 48.0004H43.3998C43.2998 48.0004 43.1998 47.9004 43.0998 47.8004C42.9998 47.7004 42.7998 47.6004 42.6998 47.5004C42.4998 47.4004 42.2998 47.2004 42.0998 47.0004L36.8998 42.5004L36.3998 42.0004C36.2998 41.9004 36.0998 41.8004 36.0998 41.7004L35.8998 41.5004C35.8998 41.4004 35.7998 41.3004 35.7998 41.2004C35.6998 40.9004 35.5998 40.6004 35.6998 40.4004C35.7998 40.1004 35.9998 39.8004 36.2998 39.4004L35.0998 38.4004L29.7998 44.5004L30.8998 45.5004C31.1998 45.2004 31.4998 44.9004 31.6998 44.8004C31.8998 44.7004 32.0998 44.6004 32.3998 44.6004C32.4998 44.6004 32.5998 44.6004 32.6998 44.7004C32.7998 44.7004 32.8998 44.8004 32.9998 44.8004C33.0998 44.9004 33.2998 45.0004 33.3998 45.1004C33.5998 45.2004 33.7998 45.4004 33.9998 45.6004L39.1998 50.1004C39.4998 50.3004 39.5998 50.5004 39.7998 50.6004Z" fill="url(#paint4_linear_48_40)"/>
<path d="M57.3 32.8L55.8 33.9C56.1 34.4 56.3 34.8 56.5 35.1C56.7 35.4 56.6 35.7 56.6 36.1C56.6 36.2 56.6 36.3 56.5 36.4C56.4 36.5 56.4 36.6 56.3 36.7L55.9 37.1C55.7 37.3 55.5 37.4 55.3 37.6L55 37.8C54.8 38 54.6 38.1 54.5 38.2C54.4 38.3 54.2 38.4 54.1 38.4C54 38.4 53.9 38.5 53.8 38.5H53.3C53.2 38.5 53.2 38.4 53.1 38.4C53 38.4 52.9 38.2 52.8 38.1C52.7 38 52.6 37.8 52.4 37.6L48.3 32C48.1 31.8 48 31.6 47.9 31.4C47.8 31.3 47.7 31.1 47.6 31C47.5 30.9 47.5 30.8 47.5 30.7C47.5 30.6 47.5 30.5 47.4 30.4C47.3 30.1 47.4 29.8 47.5 29.6C47.6 29.4 47.9 29.1 48.3 28.7L47.4 27.5L41 32.5L41.9 33.7C42.3 33.4 42.6 33.3 42.8 33.2C43 33.1 43.3 33.1 43.5 33.2C43.6 33.2 43.7 33.3 43.8 33.3C43.9 33.3 44 33.4 44.1 33.5L44.5 33.9C44.6 34.1 44.8 34.3 45 34.6L49.2 40.1C49.4 40.3 49.5 40.5 49.6 40.7C49.7 40.9 49.8 41 49.9 41.1C50 41.2 50 41.3 50 41.4C50 41.5 50 41.6 50.1 41.7C50.2 42 50.1 42.3 50 42.5C49.9 42.7 49.6 43 49.2 43.4L50.1 44.6L60.3 36.9L57.3 32.8Z" fill="url(#paint5_linear_48_40)"/>
<path d="M71.3 29.6008L71.9 31.0008L79 28.1008L78.4 26.7008C78.1 26.8008 77.8 26.8008 77.6 26.8008C77.4 26.8008 77.1 26.7008 76.9 26.6008C76.7 26.5008 76.4 26.3008 76.2 26.1008C75.9 25.9008 75.6 25.5008 75.3 25.1008L68.8 17.8008L68.4 17.4008L68.1 17.1008C68 17.0008 67.9 16.9008 67.8 16.7008C67.7 16.6008 67.6 16.4008 67.5 16.3008L64.3 17.6008C64.3 17.8008 64.4 18.0008 64.4 18.4008C64.4 18.7008 64.5 19.2008 64.5 19.7008L65 29.4008V30.7008C65 31.0008 64.9 31.3008 64.9 31.5008L64.6 32.1008C64.4 32.3008 64.3 32.4008 64 32.6008L64.6 34.0008L70.3 31.6008L69.7 30.2008C69.1 30.4008 68.7 30.4008 68.5 30.4008C68.3 30.4008 68.1 30.2008 67.9 29.9008C67.8 29.8008 67.8 29.6008 67.7 29.4008C67.7 29.2008 67.6 28.9008 67.6 28.7008V28.3008L71.2 26.8008L71.5 27.1008C72 27.7008 72.2 28.1008 72.3 28.2008C72.4 28.5008 72.4 28.7008 72.2 28.9008C72.1 29.1008 71.8 29.4008 71.3 29.6008ZM67.3 25.9008L67.2 23.3008L67.1 21.4008L67.3 21.6008L67.5 21.8008L67.8 22.2008C67.9 22.3008 68 22.5008 68.1 22.6008L68.4 22.9008L68.6 23.1008C68.6 23.2008 68.7 23.2008 68.8 23.3008L70 24.8008L67.3 25.9008Z" fill="url(#paint6_linear_48_40)"/>
<path d="M92.1999 25.9992C92.3999 25.9992 92.5999 25.9992 92.7999 25.8992C94.8999 25.6992 96.3999 24.8992 97.1999 23.4992C98.0999 22.0992 98.3999 20.1992 98.0999 17.7992C97.9999 16.6992 97.7999 15.6992 97.4999 14.7992C97.1999 13.8992 96.7999 13.0992 96.3999 12.4992C95.8999 11.7992 95.1999 11.2992 94.3999 10.9992C93.8999 10.7992 93.1999 10.6992 92.4999 10.6992C92.0999 10.6992 91.6999 10.6992 91.2999 10.7992C91.0999 10.7992 90.8999 10.8992 90.4999 10.8992C90.0999 10.8992 89.7999 10.9992 89.4999 11.0992C89.0999 11.1992 88.5999 11.1992 87.9999 11.2992C87.3999 11.3992 86.5999 11.4992 85.6999 11.5992L81.3999 11.9992L81.5999 13.4992H82.6999C82.8999 13.5992 83.0999 13.6992 83.2999 13.8992C83.3999 13.9992 83.3999 14.0992 83.4999 14.1992C83.5999 14.2992 83.5999 14.3992 83.5999 14.4992C83.5999 14.5992 83.6999 14.7992 83.6999 14.9992C83.6999 15.1992 83.7999 15.4992 83.7999 15.7992L84.5999 22.6992C84.5999 22.9992 84.6999 23.1992 84.6999 23.3992V24.1992C84.6999 24.2992 84.5999 24.3992 84.5999 24.4992C84.4999 24.7992 84.2999 24.9992 84.0999 25.0992C83.8999 25.1992 83.4999 25.3992 82.8999 25.3992L83.0999 26.8992L88.3999 26.2992C88.8999 26.1992 89.2999 26.1992 89.7999 26.0992C90.2999 25.9992 90.7999 25.9992 91.2999 25.9992H92.1999ZM90.0999 23.8992H89.7999C89.5999 23.8992 89.3999 23.7992 89.1999 23.5992C89.0999 23.4992 88.9999 23.4992 88.9999 23.3992C88.8999 23.2992 88.8999 23.2992 88.8999 23.1992C88.8999 23.0992 88.7999 22.9992 88.7999 22.7992C88.7999 22.6992 88.6999 22.3992 88.6999 22.1992L87.8999 15.0992C87.8999 14.7992 87.7999 14.4992 87.8999 14.2992C87.8999 14.0992 87.9999 13.8992 88.0999 13.7992C88.1999 13.6992 88.3999 13.5992 88.6999 13.4992C88.8999 13.3992 89.2999 13.3992 89.6999 13.2992C90.3999 13.1992 90.8999 13.1992 91.3999 13.3992C91.8999 13.4992 92.1999 13.7992 92.5999 14.0992C92.8999 14.4992 93.1999 14.9992 93.3999 15.5992C93.5999 16.1992 93.6999 17.0992 93.8999 17.9992C93.9999 18.9992 94.0999 19.8992 93.9999 20.5992C93.9999 21.2992 93.7999 21.8992 93.5999 22.2992C93.3999 22.7992 93.0999 23.0992 92.5999 23.2992C92.1999 23.4992 91.5999 23.6992 90.9999 23.7992C90.4999 23.7992 90.2999 23.8992 90.0999 23.8992Z" fill="url(#paint7_linear_48_40)"/>
<path d="M118.2 22.4996L116.4 22.1996C116.3 22.6996 116.1 23.1996 116 23.4996C115.9 23.7996 115.7 23.9996 115.5 24.1996C115.3 24.3996 115 24.3996 114.7 24.4996C114.4 24.4996 114 24.4996 113.5 24.3996L112.9 24.2996C112.5 24.1996 112.1 24.1996 111.9 24.0996C111.6 23.9996 111.5 23.9996 111.4 23.7996C111.3 23.6996 111.2 23.4996 111.2 23.2996C111.2 23.0996 111.2 22.7996 111.3 22.4996L111.7 19.7996L114.7 20.2996C115.1 20.3996 115.5 20.3996 115.6 20.4996C115.8 20.4996 116 20.5996 116.2 20.5996L116.6 17.9996H115.9C115.7 17.9996 115.4 17.9996 115.1 17.8996L111.9 17.3996L112.3 14.8996C112.3 14.5996 112.4 14.3996 112.5 14.1996C112.6 13.9996 112.7 13.8996 112.8 13.7996C112.9 13.6996 113.1 13.6996 113.3 13.6996C113.5 13.6996 113.8 13.6996 114.2 13.7996L114.5 13.8996C115 13.9996 115.4 14.0996 115.7 14.1996C116 14.2996 116.2 14.4996 116.4 14.6996C116.6 14.8996 116.7 15.1996 116.7 15.4996C116.7 15.7996 116.8 16.1996 116.8 16.6996L118.6 16.9996L119.3 12.0996C119 12.0996 118.8 12.1996 118.7 12.1996H118.1C117.9 12.1996 117.7 12.1996 117.4 12.0996C117.1 12.0996 116.8 11.9996 116.5 11.9996L106.8 10.5996L106.6 12.0996C107.1 12.1996 107.4 12.2996 107.6 12.3996C107.8 12.4996 108 12.6996 108.1 12.8996C108.1 12.9996 108.2 13.0996 108.2 13.1996C108.2 13.2996 108.3 13.3996 108.3 13.5996V14.0996C108.3 14.2996 108.2 14.5996 108.2 14.8996L107.2 21.6996C107.1 21.9996 107.1 22.1996 107.1 22.3996C107.1 22.5996 107 22.6996 107 22.8996C107 22.9996 106.9 23.0996 106.9 23.1996C106.9 23.2996 106.8 23.2996 106.7 23.3996C106.5 23.6996 106.3 23.7996 106 23.8996C105.7 23.9996 105.3 23.9996 104.8 23.8996L104.6 25.3996L117.5 27.2996L118.2 22.4996Z" fill="url(#paint8_linear_48_40)"/>
<path d="M136.4 29.2004L134.7 28.5004C134.4 29.0004 134.2 29.4004 134 29.7004C133.8 30.0004 133.5 30.2004 133.2 30.2004C133.1 30.2004 133 30.3004 132.9 30.3004H132.5C132.4 30.3004 132.2 30.2004 132 30.2004C131.8 30.1004 131.6 30.0004 131.3 29.9004L131 29.8004C130.7 29.7004 130.6 29.6004 130.4 29.5004C130.2 29.4004 130.1 29.4004 130 29.3004C129.9 29.2004 129.8 29.2004 129.8 29.1004C129.7 29.1004 129.7 29.0004 129.7 28.9004C129.7 28.8004 129.6 28.8004 129.6 28.7004V28.5004C129.6 28.4004 129.7 28.3004 129.7 28.1004C129.8 28.0004 129.8 27.8004 129.9 27.5004L132.6 21.0004C132.7 20.7004 132.8 20.5004 132.9 20.3004C133 20.1004 133 20.0004 133.1 19.9004C133.2 19.8004 133.2 19.7004 133.3 19.6004L133.5 19.4004C133.7 19.2004 134 19.1004 134.3 19.1004C134.6 19.1004 135 19.2004 135.5 19.4004L136 18.0004L128.5 14.9004L127.9 16.3004C128.3 16.5004 128.6 16.7004 128.8 16.8004C129 17.0004 129.1 17.2004 129.2 17.4004V18.1004C129.2 18.2004 129.1 18.4004 129 18.6004C128.9 18.8004 128.8 19.1004 128.7 19.4004L126.1 25.8004C126 26.1004 125.9 26.3004 125.8 26.5004C125.7 26.7004 125.6 26.8004 125.6 26.9004C125.5 27.0004 125.5 27.1004 125.4 27.2004C125.3 27.2004 125.3 27.3004 125.2 27.4004C125 27.6004 124.7 27.7004 124.4 27.7004C124.1 27.7004 123.7 27.6004 123.2 27.4004L122.6 28.8004L134.4 33.7004L136.4 29.2004Z" fill="url(#paint9_linear_48_40)"/>
<path d="M152.8 39.2C153.9 39 155 38.1 156.1 36.7C157.2 35.2 157.8 33.9 157.7 32.8C157.6 31.7 157 30.7 155.8 29.8C155.7 29.7 155.4 29.5 155.2 29.4C155 29.2 154.7 29.1 154.5 28.9C154.1 28.6 153.6 28.3 153.2 28C152.8 27.7 152.3 27.4 151.8 27L147.9 24L147 25.2C147.4 25.5 147.6 25.8 147.8 26C147.9 26.2 148 26.4 148 26.7V27C148 27.1 147.9 27.2 147.9 27.3C147.9 27.4 147.7 27.6 147.6 27.8C147.5 28 147.3 28.2 147.1 28.5L143 34C142.8 34.2 142.7 34.4 142.6 34.6C142.5 34.7 142.4 34.9 142.3 35L142.1 35.2C142 35.2 142 35.3 141.9 35.3C141.6 35.4 141.4 35.5 141.1 35.4C140.8 35.3 140.5 35.2 140 34.9L139.1 36.1L145.7 41L146.6 39.8C146.2 39.5 145.9 39.2 145.7 39C145.6 38.8 145.5 38.5 145.5 38.3V38C145.5 37.9 145.6 37.8 145.6 37.7C145.6 37.6 145.8 37.4 145.9 37.3C146 37.1 146.2 36.9 146.4 36.6L147 35.8C147.5 36.6 148.6 37.6 149.4 38.2C150.5 39.1 151.7 39.5 152.8 39.2ZM147.8 34.4L150.5 30.8C150.8 30.5 150.9 30.2 151.1 30.1C151.2 30 151.4 29.9 151.6 29.9C152 29.9 152.4 30.1 152.9 30.5C153.5 31 153.8 31.4 153.7 31.9C153.6 32.5 153.2 33.4 152.4 34.5C151.8 35.3 151.3 35.8 150.8 36C150.4 36.2 149.9 36.1 149.4 35.7C149.4 35.5 148.4 34.9 147.8 34.4Z" fill="url(#paint10_linear_48_40)"/>
<path d="M164.8 59.3C164.7 59.1 164.7 58.8 164.8 58.6C164.8 58.5 164.9 58.4 164.9 58.3C164.9 58.2 165 58.1 165.1 58C165.2 57.9 165.3 57.8 165.5 57.7C165.7 57.6 165.9 57.4 166.1 57.2L171.6 53C171.8 52.8 172 52.7 172.2 52.6C172.4 52.5 172.5 52.4 172.6 52.3C172.7 52.2 172.8 52.2 172.9 52.2C173 52.2 173.1 52.2 173.2 52.1C173.5 52 173.8 52.1 174 52.2C174.2 52.3 174.5 52.6 174.9 53L176.1 52.1L172.4 47.3L167.9 50.7L165.2 47.2L169.7 43.8L166 39L164.8 39.9C165.1 40.3 165.2 40.6 165.3 40.8C165.4 41 165.4 41.3 165.3 41.5C165.3 41.6 165.2 41.7 165.2 41.8C165.2 41.9 165.1 42 165 42.1C164.9 42.2 164.8 42.3 164.6 42.4C164.4 42.5 164.2 42.7 164 42.9L158.5 47.1C158.3 47.3 158.1 47.4 157.9 47.5C157.8 47.6 157.6 47.7 157.5 47.8C157.4 47.9 157.3 47.9 157.2 47.9C157.1 47.9 157 47.9 156.9 48C156.6 48.1 156.3 48 156.1 47.9C155.9 47.8 155.6 47.5 155.2 47.1L154 48L157.7 52.8L163.1 48.6L165.8 52.1L160.4 56.3L164.1 61.2L165.3 60.3C165.1 59.9 164.9 59.6 164.8 59.3Z" fill="url(#paint11_linear_48_40)"/>
<path d="M179.6 66.8008C179.8 66.7008 179.9 66.7008 180 66.6008C180.1 66.5008 180.2 66.5008 180.3 66.5008H180.6C180.9 66.5008 181.2 66.6008 181.4 66.8008C181.6 67.0008 181.8 67.3008 182.1 67.8008L183.5 67.2008L180.2 59.8008L178.8 60.4008C179 60.9008 179.1 61.2008 179.1 61.4008C179.1 61.6008 179.1 61.9008 179 62.1008C178.9 62.2008 178.9 62.3008 178.8 62.4008C178.7 62.5008 178.7 62.6008 178.5 62.6008C178.4 62.7008 178.2 62.8008 178 62.9008C177.8 63.0008 177.6 63.1008 177.2 63.2008L170.9 66.0008C170.6 66.1008 170.4 66.2008 170.2 66.3008C170 66.4008 169.9 66.4008 169.8 66.5008C169.7 66.6008 169.6 66.6008 169.5 66.6008H169.2C168.9 66.6008 168.6 66.5008 168.4 66.3008C168.2 66.1008 168 65.8008 167.7 65.3008L166.3 65.9008L169.6 73.3008L171 72.7008C170.8 72.3008 170.7 71.9008 170.7 71.7008C170.7 71.5008 170.7 71.2008 170.8 71.0008C170.9 70.9008 170.9 70.8008 171 70.7008C171.1 70.6008 171.1 70.6008 171.3 70.5008C171.4 70.4008 171.6 70.3008 171.7 70.2008C171.8 70.1008 172.1 70.0008 172.5 69.9008L178.8 67.1008C179.2 66.9008 179.4 66.8008 179.6 66.8008Z" fill="url(#paint12_linear_48_40)"/>
<path d="M187 84.2C187.1 84.1 187.3 84.1 187.4 84C187.5 83.9 187.7 83.9 187.8 83.8C187.9 83.7 188.1 83.7 188.2 83.6L187.5 80.2H186.7C186.4 80.2 185.9 80.1 185.4 80L175.8 78.6C175.3 78.5 174.9 78.4 174.6 78.4C174.3 78.4 174 78.2 173.8 78.1C173.6 78 173.4 77.8 173.3 77.7C173.2 77.5 173 77.3 172.9 77L171.4 77.3L172.6 83.4L174.1 83.1C174 82.5 174 82.1 174.1 81.9C174.2 81.7 174.4 81.5 174.7 81.5C174.9 81.5 175.1 81.4 175.3 81.4C175.5 81.4 175.8 81.4 176 81.5L176.4 81.6L177.2 85.4L176.8 85.6C176.2 85.9 175.7 86.1 175.5 86.2C175.2 86.3 175 86.2 174.8 86C174.6 85.8 174.5 85.5 174.3 84.9L172.8 85.2L174.3 92.7L175.8 92.4C175.8 92.1 175.8 91.8 175.9 91.6C176 91.4 176.1 91.2 176.2 90.9C176.3 90.7 176.6 90.5 176.9 90.3C177.2 90.1 177.5 89.8 178 89.6L186.4 84.6C186.7 84.4 186.9 84.3 187 84.2ZM183.1 82.3C183 82.3 182.9 82.4 182.8 82.4L182.4 82.6C182.3 82.7 182.1 82.8 181.9 82.9L181.5 83.1C181.4 83.2 181.4 83.2 181.3 83.2C181.2 83.2 181.2 83.3 181.1 83.3L179.4 84.2L178.8 81.5L181.4 81.9L183.3 82.2C183.3 82.3 183.2 82.3 183.1 82.3Z" fill="url(#paint13_linear_48_40)"/>
<path d="M20.4002 110.701L24.9002 108.701L20.1002 107.701L19.5002 102.801L17.1002 107.101L12.2002 106.101L15.6002 109.801L13.1002 114.101L17.6002 112.001L21.0002 115.701L20.4002 110.701Z" fill="url(#paint14_linear_48_40)"/>
<path d="M22.9002 131.5L27.1002 134.2L25.3002 129.6L29.2002 126.5L24.2002 126.7L22.5002 122.1L21.1002 126.8L16.2002 127.1L20.4002 129.8L19.0002 134.6L22.9002 131.5Z" fill="url(#paint15_linear_48_40)"/>
<path d="M32.7001 149.1L37.4001 150.8L34.5001 146.7L37.6001 142.7L32.8001 144.1L30.0001 140.1L29.9001 145L25.1001 146.4L29.8001 148.1L29.7001 153.1L32.7001 149.1Z" fill="url(#paint16_linear_48_40)"/>
<path d="M51.3999 164.299L47.5999 160.999L49.5999 156.499L45.2999 158.999L41.5999 155.699L42.6999 160.599L38.3999 163.099L43.3999 163.599L44.4999 168.399L46.3999 163.899L51.3999 164.299Z" fill="url(#paint17_linear_48_40)"/>
<path d="M63.2999 174.9L68.1999 174.1L63.7999 171.8L64.5999 166.9L61.0999 170.4L56.6999 168.1L58.8999 172.6L55.3999 176.1L60.2999 175.3L62.4999 179.8L63.2999 174.9Z" fill="url(#paint18_linear_48_40)"/>
<path d="M82.2998 181.5L86.8998 179.6L82.0998 178.4L81.6998 173.5L79.0998 177.7L74.2998 176.6L77.4998 180.3L74.8998 184.6L79.4998 182.7L82.6998 186.4L82.2998 181.5Z" fill="url(#paint19_linear_48_40)"/>
<path d="M99.8999 185.201L104 188.101L102.4 183.401L106.4 180.401H101.4L99.8999 175.801L98.3999 180.501H93.3999L97.3999 183.401L95.8999 188.101L99.8999 185.201Z" fill="url(#paint20_linear_48_40)"/>
<path d="M120.4 182.7L125 184.6L122.3 180.4L125.5 176.5L120.7 177.8L118 173.6L117.7 178.5L112.9 179.7L117.5 181.6L117.2 186.5L120.4 182.7Z" fill="url(#paint21_linear_48_40)"/>
<path d="M144.5 176.1L140.9 172.6L143.1 168.2L138.7 170.5L135.2 167.1L136 171.9L131.6 174.3L136.6 175L137.4 179.9L139.6 175.4L144.5 176.1Z" fill="url(#paint22_linear_48_40)"/>
<path d="M156.5 163.701L161.5 163.101L157.2 160.701L158.2 155.801L154.5 159.101L150.2 156.701L152.2 161.201L148.5 164.501L153.5 164.001L155.5 168.501L156.5 163.701Z" fill="url(#paint23_linear_48_40)"/>
<path d="M170.1 148.199L174.8 146.499L170 145.099L169.9 140.199L167.1 144.299L162.3 142.899L165.4 146.799L162.6 150.999L167.2 149.299L170.3 153.199L170.1 148.199Z" fill="url(#paint24_linear_48_40)"/>
<path d="M179.6 129.899L183.7 127.199L178.8 126.999L177.4 122.199L175.7 126.899L170.8 126.699L174.6 129.799L172.9 134.399L177.1 131.599L181 134.699L179.6 129.899Z" fill="url(#paint25_linear_48_40)"/>
<path d="M182.4 112.2L186.9 114.2L184.4 109.9L187.8 106.2L182.9 107.3L180.4 102.9L179.9 107.9L175 108.9L179.6 110.9L179 115.9L182.4 112.2Z" fill="url(#paint26_linear_48_40)"/>
<path d="M75.0998 79.0992V62.6992L72.0998 63.0992V78.7992L69.2998 79.1992V63.4992L66.2998 63.8992V80.2992C66.2998 81.1992 66.8998 81.7992 67.7998 81.7992H68.0998L73.2998 80.9992C74.3998 80.8992 75.0998 80.0992 75.0998 79.0992Z" fill="url(#paint27_linear_48_40)"/>
<path d="M90.9998 79.5008V61.3008L88.1998 61.5008V70.3008L83.9998 61.8008L82.2998 61.9008V80.0008L85.1998 79.9008V71.3008L89.2998 79.6008L90.9998 79.5008Z" fill="url(#paint28_linear_48_40)"/>
<path d="M101.4 61.1992H98.3999V79.2992H101.4V61.1992Z" fill="url(#paint29_linear_48_40)"/>
<path d="M116.3 79.8004C117.1 79.8004 118 79.2004 118 78.2004V63.5004C118 62.4004 117 61.8004 116.2 61.7004L110.6 61.4004C109.8 61.4004 108.9 62.0004 108.9 63.0004V77.8004C108.9 78.9004 109.9 79.5004 110.7 79.6004L116.3 79.8004ZM115.1 77.3004L112 77.1004V63.8004L115.1 64.0004V77.3004Z" fill="url(#paint30_linear_48_40)"/>
<path d="M131.1 63.3V72.1L127 62.7L125.3 62.5V80.7L128.1 81V72.6L132.2 81.6L133.9 81.8V63.7L131.1 63.3Z" fill="url(#paint31_linear_48_40)"/>
<path d="M72.5998 105.701C75.0998 105.401 79.5998 103.401 82.2998 101.801C81.9998 101.701 81.7998 101.501 81.4998 101.301C77.5998 102.801 73.3998 103.101 70.2998 102.701C70.5998 102.801 70.9998 103.001 71.3998 103.101C72.5998 103.401 73.9998 103.701 75.7998 103.401L76.4998 103.301L75.8998 103.801C75.3998 104.301 73.9998 105.201 72.5998 105.701Z" fill="url(#paint32_linear_48_40)"/>
<path d="M118 132.201C118 131.101 117.7 129.901 117 128.801C114.4 133.201 107 136.301 98.8002 136.301C90.6002 136.301 83.2002 133.201 80.7002 128.801C80.0002 129.901 79.7002 131.101 79.7002 132.201C79.7002 134.101 80.5002 136.001 82.2002 137.601C85.6002 141.001 92.0002 143.101 98.8002 143.101C109.4 143.101 118 138.201 118 132.201Z" fill="url(#paint33_linear_48_40)"/>
<path d="M119.2 125.1C119.8 126.1 120.4 127.5 120.8 129.1C121.1 129.1 121.6 129.2 122.3 129.2C124.1 129.2 126.8 128.8 129.5 127.3C127.5 127.3 123.5 127 119.2 125.1Z" fill="url(#paint34_linear_48_40)"/>
<path d="M116.3 123.201C116.3 119.801 113 117.201 107.9 115.801C106.7 116.301 105.3 116.701 103.8 117.201C102.4 117.601 100.8 118.201 99.1001 118.801C95.3001 120.201 94.5001 121.401 94.4001 122.001C94.3001 122.401 94.5001 122.701 94.6001 122.801C96.1001 122.001 98.2001 121.301 100.5 121.101C101.2 121.001 101.8 121.001 102.5 121.001C106.1 121.001 108.4 122.001 108.4 123.601C108.4 124.001 108.2 124.501 107.8 124.901C106.6 126.101 103.5 126.901 100 126.901C97.0001 126.901 94.2001 126.001 92.7001 124.501C91.9001 123.701 91.5001 122.801 91.5001 121.901C91.5001 118.601 96.3001 117.001 99.4001 115.901C99.8001 115.801 100.2 115.601 100.5 115.501C103.3 114.501 106.6 113.301 106.6 113.301C112 111.601 114.8 106.901 114.1 102.501C113.3 97.2008 108.1 93.5008 101.5 93.5008C100.9 93.5008 100.2 93.5008 99.6001 93.6008C99.6001 93.6008 99.0001 93.7008 98.3001 93.7008C97.5001 93.7008 97.0001 93.6008 96.5001 93.4008C95.5001 92.9008 94.6001 92.8008 94.6001 92.8008C86.9001 94.5008 82.4001 97.8008 81.6001 98.4008C81.9001 99.1008 83.1001 101.501 86.9001 101.001C88.3001 100.801 89.5001 100.801 90.5001 100.701C92.8001 100.601 94.0001 100.601 95.8001 98.6008C97.0001 97.2008 98.6001 97.1008 99.0001 97.1008H99.1001C104.1 97.1008 108.5 99.9008 108.6 103.301C108.6 104.801 107.9 106.301 106.5 107.401C105.4 108.301 103.7 108.901 102.3 109.501C102.3 109.501 98.8001 110.701 96.0001 111.801C95.8001 111.801 82.4001 116.101 82.4001 124.201C82.4001 125.801 83.1001 127.401 84.5001 128.701C87.5001 131.701 93.2001 133.501 99.4001 133.301C108.7 132.901 116.3 128.401 116.3 123.201ZM91.4001 96.7008C91.1001 96.9008 90.3001 96.9008 89.4001 96.9008C88.2001 96.9008 87.0001 96.8008 87.0001 96.8008C87.0001 96.8008 89.8001 95.4008 92.4001 94.7008C92.4001 94.7008 92.0001 96.3008 91.4001 96.7008Z" fill="url(#paint35_linear_48_40)"/>
</g>
<defs>
<linearGradient id="paint0_linear_48_40" x1="0.415896" y1="0.472104" x2="192.36" y2="192.416" gradientUnits="userSpaceOnUse">
<stop stop-color="#BDA267"/>
<stop offset="0.0739" stop-color="#BDA267"/>
<stop offset="0.1379" stop-color="#CBB580"/>
<stop offset="0.2729" stop-color="#F0E4BE"/>
<stop offset="0.2746" stop-color="#F0E5BF"/>
<stop offset="0.3925" stop-color="#CDB782"/>
<stop offset="0.4557" stop-color="#BDA267"/>
<stop offset="0.6613" stop-color="#F0E5BF"/>
<stop offset="0.853" stop-color="#CDB782"/>
<stop offset="0.9557" stop-color="#BDA267"/>
<stop offset="1" stop-color="#BDA267"/>
</linearGradient>
<linearGradient id="paint1_linear_48_40" x1="0.416089" y1="0.471321" x2="192.36" y2="192.415" gradientUnits="userSpaceOnUse">
<stop stop-color="#BDA267"/>
<stop offset="0.0739" stop-color="#BDA267"/>
<stop offset="0.1379" stop-color="#CBB580"/>
<stop offset="0.2729" stop-color="#F0E4BE"/>
<stop offset="0.2746" stop-color="#F0E5BF"/>
<stop offset="0.3925" stop-color="#CDB782"/>
<stop offset="0.4557" stop-color="#BDA267"/>
<stop offset="0.6613" stop-color="#F0E5BF"/>
<stop offset="0.853" stop-color="#CDB782"/>
<stop offset="0.9557" stop-color="#BDA267"/>
<stop offset="1" stop-color="#BDA267"/>
</linearGradient>
<linearGradient id="paint2_linear_48_40" x1="-32.7331" y1="33.7472" x2="159.211" y2="225.691" gradientUnits="userSpaceOnUse">
<stop stop-color="#BDA267"/>
<stop offset="0.0739" stop-color="#BDA267"/>
<stop offset="0.1379" stop-color="#CBB580"/>
<stop offset="0.2729" stop-color="#F0E4BE"/>
<stop offset="0.2746" stop-color="#F0E5BF"/>
<stop offset="0.3925" stop-color="#CDB782"/>
<stop offset="0.4557" stop-color="#BDA267"/>
<stop offset="0.6613" stop-color="#F0E5BF"/>
<stop offset="0.853" stop-color="#CDB782"/>
<stop offset="0.9557" stop-color="#BDA267"/>
<stop offset="1" stop-color="#BDA267"/>
</linearGradient>
<linearGradient id="paint3_linear_48_40" x1="-16.9771" y1="17.9891" x2="174.967" y2="209.933" gradientUnits="userSpaceOnUse">
<stop stop-color="#BDA267"/>
<stop offset="0.0739" stop-color="#BDA267"/>
<stop offset="0.1379" stop-color="#CBB580"/>
<stop offset="0.2729" stop-color="#F0E4BE"/>
<stop offset="0.2746" stop-color="#F0E5BF"/>
<stop offset="0.3925" stop-color="#CDB782"/>
<stop offset="0.4557" stop-color="#BDA267"/>
<stop offset="0.6613" stop-color="#F0E5BF"/>
<stop offset="0.853" stop-color="#CDB782"/>
<stop offset="0.9557" stop-color="#BDA267"/>
<stop offset="1" stop-color="#BDA267"/>
</linearGradient>
<linearGradient id="paint4_linear_48_40" x1="-3.59586" y1="4.65282" x2="188.348" y2="196.597" gradientUnits="userSpaceOnUse">
<stop stop-color="#BDA267"/>
<stop offset="0.0739" stop-color="#BDA267"/>
<stop offset="0.1379" stop-color="#CBB580"/>
<stop offset="0.2729" stop-color="#F0E4BE"/>
<stop offset="0.2746" stop-color="#F0E5BF"/>
<stop offset="0.3925" stop-color="#CDB782"/>
<stop offset="0.4557" stop-color="#BDA267"/>
<stop offset="0.6613" stop-color="#F0E5BF"/>
<stop offset="0.853" stop-color="#CDB782"/>
<stop offset="0.9557" stop-color="#BDA267"/>
<stop offset="1" stop-color="#BDA267"/>
</linearGradient>
<linearGradient id="paint5_linear_48_40" x1="7.96279" y1="-6.95813" x2="199.907" y2="184.986" gradientUnits="userSpaceOnUse">
<stop stop-color="#BDA267"/>
<stop offset="0.0739" stop-color="#BDA267"/>
<stop offset="0.1379" stop-color="#CBB580"/>
<stop offset="0.2729" stop-color="#F0E4BE"/>
<stop offset="0.2746" stop-color="#F0E5BF"/>
<stop offset="0.3925" stop-color="#CDB782"/>
<stop offset="0.4557" stop-color="#BDA267"/>
<stop offset="0.6613" stop-color="#F0E5BF"/>
<stop offset="0.853" stop-color="#CDB782"/>
<stop offset="0.9557" stop-color="#BDA267"/>
<stop offset="1" stop-color="#BDA267"/>
</linearGradient>
<linearGradient id="paint6_linear_48_40" x1="21.0142" y1="-20.0012" x2="212.958" y2="171.943" gradientUnits="userSpaceOnUse">
<stop stop-color="#BDA267"/>
<stop offset="0.0739" stop-color="#BDA267"/>
<stop offset="0.1379" stop-color="#CBB580"/>
<stop offset="0.2729" stop-color="#F0E4BE"/>
<stop offset="0.2746" stop-color="#F0E5BF"/>
<stop offset="0.3925" stop-color="#CDB782"/>
<stop offset="0.4557" stop-color="#BDA267"/>
<stop offset="0.6613" stop-color="#F0E5BF"/>
<stop offset="0.853" stop-color="#CDB782"/>
<stop offset="0.9557" stop-color="#BDA267"/>
<stop offset="1" stop-color="#BDA267"/>
</linearGradient>
<linearGradient id="paint7_linear_48_40" x1="35.4537" y1="-34.528" x2="227.39" y2="157.409" gradientUnits="userSpaceOnUse">
<stop stop-color="#BDA267"/>
<stop offset="0.0739" stop-color="#BDA267"/>
<stop offset="0.1379" stop-color="#CBB580"/>
<stop offset="0.2729" stop-color="#F0E4BE"/>
<stop offset="0.2746" stop-color="#F0E5BF"/>
<stop offset="0.3925" stop-color="#CDB782"/>
<stop offset="0.4557" stop-color="#BDA267"/>
<stop offset="0.6613" stop-color="#F0E5BF"/>
<stop offset="0.853" stop-color="#CDB782"/>
<stop offset="0.9557" stop-color="#BDA267"/>
<stop offset="1" stop-color="#BDA267"/>
</linearGradient>
<linearGradient id="paint8_linear_48_40" x1="47.1659" y1="-46.2297" x2="239.11" y2="145.714" gradientUnits="userSpaceOnUse">
<stop stop-color="#BDA267"/>
<stop offset="0.0739" stop-color="#BDA267"/>
<stop offset="0.1379" stop-color="#CBB580"/>
<stop offset="0.2729" stop-color="#F0E4BE"/>
<stop offset="0.2746" stop-color="#F0E5BF"/>
<stop offset="0.3925" stop-color="#CDB782"/>
<stop offset="0.4557" stop-color="#BDA267"/>
<stop offset="0.6613" stop-color="#F0E5BF"/>
<stop offset="0.853" stop-color="#CDB782"/>
<stop offset="0.9557" stop-color="#BDA267"/>
<stop offset="1" stop-color="#BDA267"/>
</linearGradient>
<linearGradient id="paint9_linear_48_40" x1="53.5477" y1="-52.4252" x2="245.492" y2="139.519" gradientUnits="userSpaceOnUse">
<stop stop-color="#BDA267"/>
<stop offset="0.0739" stop-color="#BDA267"/>
<stop offset="0.1379" stop-color="#CBB580"/>
<stop offset="0.2729" stop-color="#F0E4BE"/>
<stop offset="0.2746" stop-color="#F0E5BF"/>
<stop offset="0.3925" stop-color="#CDB782"/>
<stop offset="0.4557" stop-color="#BDA267"/>
<stop offset="0.6613" stop-color="#F0E5BF"/>
<stop offset="0.853" stop-color="#CDB782"/>
<stop offset="0.9557" stop-color="#BDA267"/>
<stop offset="1" stop-color="#BDA267"/>
</linearGradient>
<linearGradient id="paint10_linear_48_40" x1="57.8096" y1="-56.7278" x2="249.754" y2="135.216" gradientUnits="userSpaceOnUse">
<stop stop-color="#BDA267"/>
<stop offset="0.0739" stop-color="#BDA267"/>
<stop offset="0.1379" stop-color="#CBB580"/>
<stop offset="0.2729" stop-color="#F0E4BE"/>
<stop offset="0.2746" stop-color="#F0E5BF"/>
<stop offset="0.3925" stop-color="#CDB782"/>
<stop offset="0.4557" stop-color="#BDA267"/>
<stop offset="0.6613" stop-color="#F0E5BF"/>
<stop offset="0.853" stop-color="#CDB782"/>
<stop offset="0.9557" stop-color="#BDA267"/>
<stop offset="1" stop-color="#BDA267"/>
</linearGradient>
<linearGradient id="paint11_linear_48_40" x1="57.9844" y1="-57.0845" x2="249.928" y2="134.86" gradientUnits="userSpaceOnUse">
<stop stop-color="#BDA267"/>
<stop offset="0.0739" stop-color="#BDA267"/>
<stop offset="0.1379" stop-color="#CBB580"/>
<stop offset="0.2729" stop-color="#F0E4BE"/>
<stop offset="0.2746" stop-color="#F0E5BF"/>
<stop offset="0.3925" stop-color="#CDB782"/>
<stop offset="0.4557" stop-color="#BDA267"/>
<stop offset="0.6613" stop-color="#F0E5BF"/>
<stop offset="0.853" stop-color="#CDB782"/>
<stop offset="0.9557" stop-color="#BDA267"/>
<stop offset="1" stop-color="#BDA267"/>
</linearGradient>
<linearGradient id="paint12_linear_48_40" x1="54.7435" y1="-53.6898" x2="246.688" y2="138.254" gradientUnits="userSpaceOnUse">
<stop stop-color="#BDA267"/>
<stop offset="0.0739" stop-color="#BDA267"/>
<stop offset="0.1379" stop-color="#CBB580"/>
<stop offset="0.2729" stop-color="#F0E4BE"/>
<stop offset="0.2746" stop-color="#F0E5BF"/>
<stop offset="0.3925" stop-color="#CDB782"/>
<stop offset="0.4557" stop-color="#BDA267"/>
<stop offset="0.6613" stop-color="#F0E5BF"/>
<stop offset="0.853" stop-color="#CDB782"/>
<stop offset="0.9557" stop-color="#BDA267"/>
<stop offset="1" stop-color="#BDA267"/>
</linearGradient>
<linearGradient id="paint13_linear_48_40" x1="47.8081" y1="-46.7056" x2="239.752" y2="145.239" gradientUnits="userSpaceOnUse">
<stop stop-color="#BDA267"/>
<stop offset="0.0739" stop-color="#BDA267"/>
<stop offset="0.1379" stop-color="#CBB580"/>
<stop offset="0.2729" stop-color="#F0E4BE"/>
<stop offset="0.2746" stop-color="#F0E5BF"/>
<stop offset="0.3925" stop-color="#CDB782"/>
<stop offset="0.4557" stop-color="#BDA267"/>
<stop offset="0.6613" stop-color="#F0E5BF"/>
<stop offset="0.853" stop-color="#CDB782"/>
<stop offset="0.9557" stop-color="#BDA267"/>
<stop offset="1" stop-color="#BDA267"/>
</linearGradient>
<linearGradient id="paint14_linear_48_40" x1="-45.5187" y1="46.6537" x2="146.425" y2="238.598" gradientUnits="userSpaceOnUse">
<stop stop-color="#BDA267"/>
<stop offset="0.0739" stop-color="#BDA267"/>
<stop offset="0.1379" stop-color="#CBB580"/>
<stop offset="0.2729" stop-color="#F0E4BE"/>
<stop offset="0.2746" stop-color="#F0E5BF"/>
<stop offset="0.3925" stop-color="#CDB782"/>
<stop offset="0.4557" stop-color="#BDA267"/>
<stop offset="0.6613" stop-color="#F0E5BF"/>
<stop offset="0.853" stop-color="#CDB782"/>
<stop offset="0.9557" stop-color="#BDA267"/>
<stop offset="1" stop-color="#BDA267"/>
</linearGradient>
<linearGradient id="paint15_linear_48_40" x1="-52.6713" y1="53.6352" x2="139.273" y2="245.579" gradientUnits="userSpaceOnUse">
<stop stop-color="#BDA267"/>
<stop offset="0.0739" stop-color="#BDA267"/>
<stop offset="0.1379" stop-color="#CBB580"/>
<stop offset="0.2729" stop-color="#F0E4BE"/>
<stop offset="0.2746" stop-color="#F0E5BF"/>
<stop offset="0.3925" stop-color="#CDB782"/>
<stop offset="0.4557" stop-color="#BDA267"/>
<stop offset="0.6613" stop-color="#F0E5BF"/>
<stop offset="0.853" stop-color="#CDB782"/>
<stop offset="0.9557" stop-color="#BDA267"/>
<stop offset="1" stop-color="#BDA267"/>
</linearGradient>
<linearGradient id="paint16_linear_48_40" x1="-56.5877" y1="57.6295" x2="135.356" y2="249.574" gradientUnits="userSpaceOnUse">
<stop stop-color="#BDA267"/>
<stop offset="0.0739" stop-color="#BDA267"/>
<stop offset="0.1379" stop-color="#CBB580"/>
<stop offset="0.2729" stop-color="#F0E4BE"/>
<stop offset="0.2746" stop-color="#F0E5BF"/>
<stop offset="0.3925" stop-color="#CDB782"/>
<stop offset="0.4557" stop-color="#BDA267"/>
<stop offset="0.6613" stop-color="#F0E5BF"/>
<stop offset="0.853" stop-color="#CDB782"/>
<stop offset="0.9557" stop-color="#BDA267"/>
<stop offset="1" stop-color="#BDA267"/>
</linearGradient>
<linearGradient id="paint17_linear_48_40" x1="-57.2945" y1="58.2605" x2="134.65" y2="250.205" gradientUnits="userSpaceOnUse">
<stop stop-color="#BDA267"/>
<stop offset="0.0739" stop-color="#BDA267"/>
<stop offset="0.1379" stop-color="#CBB580"/>
<stop offset="0.2729" stop-color="#F0E4BE"/>
<stop offset="0.2746" stop-color="#F0E5BF"/>
<stop offset="0.3925" stop-color="#CDB782"/>
<stop offset="0.4557" stop-color="#BDA267"/>
<stop offset="0.6613" stop-color="#F0E5BF"/>
<stop offset="0.853" stop-color="#CDB782"/>
<stop offset="0.9557" stop-color="#BDA267"/>
<stop offset="1" stop-color="#BDA267"/>
</linearGradient>
<linearGradient id="paint18_linear_48_40" x1="-55.1746" y1="56.3674" x2="136.77" y2="248.311" gradientUnits="userSpaceOnUse">
<stop stop-color="#BDA267"/>
<stop offset="0.0739" stop-color="#BDA267"/>
<stop offset="0.1379" stop-color="#CBB580"/>
<stop offset="0.2729" stop-color="#F0E4BE"/>
<stop offset="0.2746" stop-color="#F0E5BF"/>
<stop offset="0.3925" stop-color="#CDB782"/>
<stop offset="0.4557" stop-color="#BDA267"/>
<stop offset="0.6613" stop-color="#F0E5BF"/>
<stop offset="0.853" stop-color="#CDB782"/>
<stop offset="0.9557" stop-color="#BDA267"/>
<stop offset="1" stop-color="#BDA267"/>
</linearGradient>
<linearGradient id="paint19_linear_48_40" x1="-49.9515" y1="50.9064" x2="141.992" y2="242.85" gradientUnits="userSpaceOnUse">
<stop stop-color="#BDA267"/>
<stop offset="0.0739" stop-color="#BDA267"/>
<stop offset="0.1379" stop-color="#CBB580"/>
<stop offset="0.2729" stop-color="#F0E4BE"/>
<stop offset="0.2746" stop-color="#F0E5BF"/>
<stop offset="0.3925" stop-color="#CDB782"/>
<stop offset="0.4557" stop-color="#BDA267"/>
<stop offset="0.6613" stop-color="#F0E5BF"/>
<stop offset="0.853" stop-color="#CDB782"/>
<stop offset="0.9557" stop-color="#BDA267"/>
<stop offset="1" stop-color="#BDA267"/>
</linearGradient>
<linearGradient id="paint20_linear_48_40" x1="-41.0821" y1="41.9948" x2="150.862" y2="233.939" gradientUnits="userSpaceOnUse">
<stop stop-color="#BDA267"/>
<stop offset="0.0739" stop-color="#BDA267"/>
<stop offset="0.1379" stop-color="#CBB580"/>
<stop offset="0.2729" stop-color="#F0E4BE"/>
<stop offset="0.2746" stop-color="#F0E5BF"/>
<stop offset="0.3925" stop-color="#CDB782"/>
<stop offset="0.4557" stop-color="#BDA267"/>
<stop offset="0.6613" stop-color="#F0E5BF"/>
<stop offset="0.853" stop-color="#CDB782"/>
<stop offset="0.9557" stop-color="#BDA267"/>
<stop offset="1" stop-color="#BDA267"/>
</linearGradient>
<linearGradient id="paint21_linear_48_40" x1="-29.6034" y1="30.5538" x2="162.341" y2="222.498" gradientUnits="userSpaceOnUse">
<stop stop-color="#BDA267"/>
<stop offset="0.0739" stop-color="#BDA267"/>
<stop offset="0.1379" stop-color="#CBB580"/>
<stop offset="0.2729" stop-color="#F0E4BE"/>
<stop offset="0.2746" stop-color="#F0E5BF"/>
<stop offset="0.3925" stop-color="#CDB782"/>
<stop offset="0.4557" stop-color="#BDA267"/>
<stop offset="0.6613" stop-color="#F0E5BF"/>
<stop offset="0.853" stop-color="#CDB782"/>
<stop offset="0.9557" stop-color="#BDA267"/>
<stop offset="1" stop-color="#BDA267"/>
</linearGradient>
<linearGradient id="paint22_linear_48_40" x1="-16.4875" y1="17.3549" x2="175.456" y2="209.299" gradientUnits="userSpaceOnUse">
<stop stop-color="#BDA267"/>
<stop offset="0.0739" stop-color="#BDA267"/>
<stop offset="0.1379" stop-color="#CBB580"/>
<stop offset="0.2729" stop-color="#F0E4BE"/>
<stop offset="0.2746" stop-color="#F0E5BF"/>
<stop offset="0.3925" stop-color="#CDB782"/>
<stop offset="0.4557" stop-color="#BDA267"/>
<stop offset="0.6613" stop-color="#F0E5BF"/>
<stop offset="0.853" stop-color="#CDB782"/>
<stop offset="0.9557" stop-color="#BDA267"/>
<stop offset="1" stop-color="#BDA267"/>
</linearGradient>
<linearGradient id="paint23_linear_48_40" x1="-2.84032" y1="3.88229" x2="189.104" y2="195.826" gradientUnits="userSpaceOnUse">
<stop stop-color="#BDA267"/>
<stop offset="0.0739" stop-color="#BDA267"/>
<stop offset="0.1379" stop-color="#CBB580"/>
<stop offset="0.2729" stop-color="#F0E4BE"/>
<stop offset="0.2746" stop-color="#F0E5BF"/>
<stop offset="0.3925" stop-color="#CDB782"/>
<stop offset="0.4557" stop-color="#BDA267"/>
<stop offset="0.6613" stop-color="#F0E5BF"/>
<stop offset="0.853" stop-color="#CDB782"/>
<stop offset="0.9557" stop-color="#BDA267"/>
<stop offset="1" stop-color="#BDA267"/>
</linearGradient>
<linearGradient id="paint24_linear_48_40" x1="10.747" y1="-9.84326" x2="202.691" y2="182.101" gradientUnits="userSpaceOnUse">
<stop stop-color="#BDA267"/>
<stop offset="0.0739" stop-color="#BDA267"/>
<stop offset="0.1379" stop-color="#CBB580"/>
<stop offset="0.2729" stop-color="#F0E4BE"/>
<stop offset="0.2746" stop-color="#F0E5BF"/>
<stop offset="0.3925" stop-color="#CDB782"/>
<stop offset="0.4557" stop-color="#BDA267"/>
<stop offset="0.6613" stop-color="#F0E5BF"/>
<stop offset="0.853" stop-color="#CDB782"/>
<stop offset="0.9557" stop-color="#BDA267"/>
<stop offset="1" stop-color="#BDA267"/>
</linearGradient>
<linearGradient id="paint25_linear_48_40" x1="24.3789" y1="-23.3014" x2="216.323" y2="168.643" gradientUnits="userSpaceOnUse">
<stop stop-color="#BDA267"/>
<stop offset="0.0739" stop-color="#BDA267"/>
<stop offset="0.1379" stop-color="#CBB580"/>
<stop offset="0.2729" stop-color="#F0E4BE"/>
<stop offset="0.2746" stop-color="#F0E5BF"/>
<stop offset="0.3925" stop-color="#CDB782"/>
<stop offset="0.4557" stop-color="#BDA267"/>
<stop offset="0.6613" stop-color="#F0E5BF"/>
<stop offset="0.853" stop-color="#CDB782"/>
<stop offset="0.9557" stop-color="#BDA267"/>
<stop offset="1" stop-color="#BDA267"/>
</linearGradient>
<linearGradient id="paint26_linear_48_40" x1="36.675" y1="-35.5732" x2="228.619" y2="156.371" gradientUnits="userSpaceOnUse">
<stop stop-color="#BDA267"/>
<stop offset="0.0739" stop-color="#BDA267"/>
<stop offset="0.1379" stop-color="#CBB580"/>
<stop offset="0.2729" stop-color="#F0E4BE"/>
<stop offset="0.2746" stop-color="#F0E5BF"/>
<stop offset="0.3925" stop-color="#CDB782"/>
<stop offset="0.4557" stop-color="#BDA267"/>
<stop offset="0.6613" stop-color="#F0E5BF"/>
<stop offset="0.853" stop-color="#CDB782"/>
<stop offset="0.9557" stop-color="#BDA267"/>
<stop offset="1" stop-color="#BDA267"/>
</linearGradient>
<linearGradient id="paint27_linear_48_40" x1="-0.0560889" y1="0.996341" x2="191.888" y2="192.94" gradientUnits="userSpaceOnUse">
<stop stop-color="#BDA267"/>
<stop offset="0.0739" stop-color="#BDA267"/>
<stop offset="0.1379" stop-color="#CBB580"/>
<stop offset="0.2729" stop-color="#F0E4BE"/>
<stop offset="0.2746" stop-color="#F0E5BF"/>
<stop offset="0.3925" stop-color="#CDB782"/>
<stop offset="0.4557" stop-color="#BDA267"/>
<stop offset="0.6613" stop-color="#F0E5BF"/>
<stop offset="0.853" stop-color="#CDB782"/>
<stop offset="0.9557" stop-color="#BDA267"/>
<stop offset="1" stop-color="#BDA267"/>
</linearGradient>
<linearGradient id="paint28_linear_48_40" x1="8.41893" y1="-7.46687" x2="200.363" y2="184.477" gradientUnits="userSpaceOnUse">
<stop stop-color="#BDA267"/>
<stop offset="0.0739" stop-color="#BDA267"/>
<stop offset="0.1379" stop-color="#CBB580"/>
<stop offset="0.2729" stop-color="#F0E4BE"/>
<stop offset="0.2746" stop-color="#F0E5BF"/>
<stop offset="0.3925" stop-color="#CDB782"/>
<stop offset="0.4557" stop-color="#BDA267"/>
<stop offset="0.6613" stop-color="#F0E5BF"/>
<stop offset="0.853" stop-color="#CDB782"/>
<stop offset="0.9557" stop-color="#BDA267"/>
<stop offset="1" stop-color="#BDA267"/>
</linearGradient>
<linearGradient id="paint29_linear_48_40" x1="15.2903" y1="-14.2983" x2="207.234" y2="177.646" gradientUnits="userSpaceOnUse">
<stop stop-color="#BDA267"/>
<stop offset="0.0739" stop-color="#BDA267"/>
<stop offset="0.1379" stop-color="#CBB580"/>
<stop offset="0.2729" stop-color="#F0E4BE"/>
<stop offset="0.2746" stop-color="#F0E5BF"/>
<stop offset="0.3925" stop-color="#CDB782"/>
<stop offset="0.4557" stop-color="#BDA267"/>
<stop offset="0.6613" stop-color="#F0E5BF"/>
<stop offset="0.853" stop-color="#CDB782"/>
<stop offset="0.9557" stop-color="#BDA267"/>
<stop offset="1" stop-color="#BDA267"/>
</linearGradient>
<linearGradient id="paint30_linear_48_40" x1="21.8802" y1="-20.9741" x2="213.824" y2="170.97" gradientUnits="userSpaceOnUse">
<stop stop-color="#BDA267"/>
<stop offset="0.0739" stop-color="#BDA267"/>
<stop offset="0.1379" stop-color="#CBB580"/>
<stop offset="0.2729" stop-color="#F0E4BE"/>
<stop offset="0.2746" stop-color="#F0E5BF"/>
<stop offset="0.3925" stop-color="#CDB782"/>
<stop offset="0.4557" stop-color="#BDA267"/>
<stop offset="0.6613" stop-color="#F0E5BF"/>
<stop offset="0.853" stop-color="#CDB782"/>
<stop offset="0.9557" stop-color="#BDA267"/>
<stop offset="1" stop-color="#BDA267"/>
</linearGradient>
<linearGradient id="paint31_linear_48_40" x1="29.3474" y1="-28.2342" x2="221.291" y2="163.71" gradientUnits="userSpaceOnUse">
<stop stop-color="#BDA267"/>
<stop offset="0.0739" stop-color="#BDA267"/>
<stop offset="0.1379" stop-color="#CBB580"/>
<stop offset="0.2729" stop-color="#F0E4BE"/>
<stop offset="0.2746" stop-color="#F0E5BF"/>
<stop offset="0.3925" stop-color="#CDB782"/>
<stop offset="0.4557" stop-color="#BDA267"/>
<stop offset="0.6613" stop-color="#F0E5BF"/>
<stop offset="0.853" stop-color="#CDB782"/>
<stop offset="0.9557" stop-color="#BDA267"/>
<stop offset="1" stop-color="#BDA267"/>
</linearGradient>
<linearGradient id="paint32_linear_48_40" x1="-12.731" y1="13.703" x2="179.213" y2="205.647" gradientUnits="userSpaceOnUse">
<stop stop-color="#BDA267"/>
<stop offset="0.0739" stop-color="#BDA267"/>
<stop offset="0.1379" stop-color="#CBB580"/>
<stop offset="0.2729" stop-color="#F0E4BE"/>
<stop offset="0.2746" stop-color="#F0E5BF"/>
<stop offset="0.3925" stop-color="#CDB782"/>
<stop offset="0.4557" stop-color="#BDA267"/>
<stop offset="0.6613" stop-color="#F0E5BF"/>
<stop offset="0.853" stop-color="#CDB782"/>
<stop offset="0.9557" stop-color="#BDA267"/>
<stop offset="1" stop-color="#BDA267"/>
</linearGradient>
<linearGradient id="paint33_linear_48_40" x1="-16.3767" y1="17.1543" x2="175.567" y2="209.098" gradientUnits="userSpaceOnUse">
<stop stop-color="#BDA267"/>
<stop offset="0.0739" stop-color="#BDA267"/>
<stop offset="0.1379" stop-color="#CBB580"/>
<stop offset="0.2729" stop-color="#F0E4BE"/>
<stop offset="0.2746" stop-color="#F0E5BF"/>
<stop offset="0.3925" stop-color="#CDB782"/>
<stop offset="0.4557" stop-color="#BDA267"/>
<stop offset="0.6613" stop-color="#F0E5BF"/>
<stop offset="0.853" stop-color="#CDB782"/>
<stop offset="0.9557" stop-color="#BDA267"/>
<stop offset="1" stop-color="#BDA267"/>
</linearGradient>
<linearGradient id="paint34_linear_48_40" x1="-1.15668" y1="2.07566" x2="190.787" y2="194.02" gradientUnits="userSpaceOnUse">
<stop stop-color="#BDA267"/>
<stop offset="0.0739" stop-color="#BDA267"/>
<stop offset="0.1379" stop-color="#CBB580"/>
<stop offset="0.2729" stop-color="#F0E4BE"/>
<stop offset="0.2746" stop-color="#F0E5BF"/>
<stop offset="0.3925" stop-color="#CDB782"/>
<stop offset="0.4557" stop-color="#BDA267"/>
<stop offset="0.6613" stop-color="#F0E5BF"/>
<stop offset="0.853" stop-color="#CDB782"/>
<stop offset="0.9557" stop-color="#BDA267"/>
<stop offset="1" stop-color="#BDA267"/>
</linearGradient>
<linearGradient id="paint35_linear_48_40" x1="-7.00685" y1="7.99836" x2="184.937" y2="199.942" gradientUnits="userSpaceOnUse">
<stop stop-color="#BDA267"/>
<stop offset="0.0739" stop-color="#BDA267"/>
<stop offset="0.1379" stop-color="#CBB580"/>
<stop offset="0.2729" stop-color="#F0E4BE"/>
<stop offset="0.2746" stop-color="#F0E5BF"/>
<stop offset="0.3925" stop-color="#CDB782"/>
<stop offset="0.4557" stop-color="#BDA267"/>
<stop offset="0.6613" stop-color="#F0E5BF"/>
<stop offset="0.853" stop-color="#CDB782"/>
<stop offset="0.9557" stop-color="#BDA267"/>
<stop offset="1" stop-color="#BDA267"/>
</linearGradient>
<clipPath id="clip0_48_40">
<rect width="200" height="200" fill="white"/>
</clipPath>
</defs>
</svg>
