<svg width="200" height="200" viewBox="0 0 200 200" fill="none" xmlns="http://www.w3.org/2000/svg">
<g clip-path="url(#clip0_48_95)">
<path d="M169.484 171.381H167.961V170.277H172.284V171.386H170.758V175.086H169.484V171.381ZM174.805 175.086L173.903 172.222V175.086H172.786V170.282H174.381L175.347 173.354L176.313 170.277H177.904V175.086H176.69V172.222L175.789 175.086H174.805Z" fill="#CB9700"/>
<path d="M195.909 95.8957C195.924 82.7527 193.241 69.7479 188.028 57.6931C182.815 45.6382 175.184 34.7922 165.612 25.8322C164.693 22.0137 163.356 18.3093 161.625 14.787L159.275 10.3523L154.528 11.946C152.831 12.5142 151.116 13.0455 149.396 13.5629C134.574 4.67338 117.631 -0.0137979 100.368 3.05097e-05C83.1053 0.0138589 66.1692 4.72817 51.3616 13.6414C49.7141 13.1575 48.0822 12.6213 46.4684 12.0338L41.336 10.0613L38.9952 15.0411C37.3413 18.568 36.0291 22.2467 35.0769 26.0262C22.3089 38.0853 13.0918 53.442 8.43554 70.4136C3.77931 87.3851 3.86364 105.317 8.67928 122.243C13.4949 139.17 22.8561 154.438 35.7369 166.376C48.6178 178.313 64.5214 186.459 81.7051 189.92C81.4797 192.092 81.3417 193.621 81.3187 194.337C82.4728 195.238 83.6935 196.051 84.9703 196.766C89.7437 199.051 94.9904 200.159 100.275 200H100.772C107.566 200.489 114.304 198.474 119.724 194.332C119.62 192.852 119.463 191.376 119.255 189.907C140.875 185.539 160.322 173.788 174.296 156.651C188.269 139.514 195.906 118.047 195.909 95.8957Z" fill="#0D421D"/>
<path d="M135.549 17.0542H135.567C137.039 16.7447 138.501 16.4167 139.964 16.0748L140.428 15.9686L141.302 15.7653L141.279 15.7515C145.593 14.6982 149.865 13.4879 154.068 12.0929L137.223 13.8021C125.652 8.58204 113.112 5.88433 100.428 5.88672C87.7437 5.88911 75.2043 8.59154 63.6357 13.8159L46.6245 12.0929C50.8443 13.5729 55.1433 14.8144 59.5013 15.8115L59.5151 15.8162C59.6025 15.8392 59.6899 15.8623 59.7773 15.8762L61.1569 16.1996L61.603 16.2966L62.9689 16.5968L63.3506 16.68L65.158 17.0542L65.3327 17.0911C76.373 12.1409 88.3268 9.58021 100.417 9.57543C112.507 9.57066 124.463 12.1219 135.507 17.0634L135.549 17.0542ZM85.6966 76.3728L24.9867 137.211C22.1087 131.916 19.7935 126.331 18.0792 120.549L77.2669 61.5905C75.0778 61.9662 73.0113 62.3743 71.0676 62.8146L17.0214 116.645C14.0735 104.634 13.7264 92.128 16.0034 79.9708C18.2804 67.8136 23.1285 56.2889 30.2202 46.1753C31.1768 44.8264 32.161 43.496 33.1865 42.2026V42.1102C33.1681 40.2023 33.2325 38.2298 33.3981 36.2019C33.9696 28.9461 35.8326 21.8521 38.8983 15.2572C33.9971 23.0112 30.8175 31.7353 29.5764 40.8352C20.4926 52.6357 14.4705 66.5187 12.0515 81.2361C9.63248 95.9536 10.8924 111.044 15.7179 125.151C20.5435 139.259 28.7834 151.94 39.697 162.056C50.6106 172.172 63.8558 179.405 78.2418 183.106C79.1171 186.281 80.1908 189.398 81.4564 192.437C81.6772 190.007 82.1463 185.813 82.7809 180.385C81.9459 180.207 81.1134 180.018 80.2837 179.817C80.0814 179.77 79.879 179.724 79.6813 179.669C78.8749 179.47 78.0716 179.259 77.2715 179.036C63.7097 175.213 51.2915 168.1 41.1104 158.322L85.8852 112.959L85.9588 107.887L38.627 155.837C34.7418 151.798 31.2578 147.389 28.2243 142.671L86.0553 84.7109C85.9938 81.9309 85.8742 79.1478 85.6966 76.3728ZM171.277 40.7705C169.979 31.3777 166.622 22.3911 161.45 14.458L161.624 14.786C164.826 21.486 166.775 28.7202 167.373 36.128C167.456 37.0241 167.525 37.9527 167.571 38.8996L167.58 39.0567C167.626 40.0407 167.653 41.0477 167.653 42.0732V42.1194C168.688 43.4221 169.682 44.7618 170.643 46.1199C177.766 56.256 182.633 67.8143 184.912 80.0087C187.191 92.203 186.829 104.747 183.851 116.789L129.06 62.616C127.116 62.191 125.054 61.7999 122.874 61.4427L182.788 120.674C181.11 126.311 178.859 131.76 176.069 136.934L115.686 76.2665C115.52 78.8073 115.387 81.6067 115.318 84.6047L172.85 142.399C169.92 146.989 166.565 151.29 162.829 155.246L115.41 107.619L115.484 112.668L160.369 157.754C150.083 167.825 137.443 175.14 123.61 179.027C122.81 179.258 122.009 179.461 121.205 179.664L120.602 179.807C119.784 180.006 118.956 180.2 118.123 180.371L118.137 180.542C118.229 181.664 118.326 182.764 118.422 183.822L118.459 184.067C118.947 187.531 119.314 190.284 119.526 192.123C120.733 189.182 121.763 186.171 122.612 183.106C137.012 179.414 150.273 172.183 161.198 162.063C172.124 151.942 180.372 139.251 185.199 125.132C190.026 111.013 191.281 95.9096 188.851 81.1821C186.421 66.4545 180.382 52.5655 171.277 40.7659" fill="#CB9700"/>
<path d="M113.019 190.373C109.841 163.875 109.215 105.467 109.215 88.9384C109.23 79.1906 109.974 69.4577 111.441 59.8219C104.186 59.2295 96.8943 59.2233 89.6377 59.8034C91.096 69.4463 91.8384 79.1848 91.859 88.9384C91.859 105.467 91.2336 163.875 88.0557 190.373V190.387C88.0557 190.387 91.0772 193.542 100.51 193.542H100.569C109.997 193.542 113.023 190.387 113.023 190.387L113.019 190.377V190.373ZM156.345 17.4336C119.883 29.4248 80.5654 29.4248 44.1042 17.4336C40.7113 25.1745 38.9569 33.5391 38.9522 41.997C38.9474 50.4549 40.6924 58.8215 44.0766 66.5663C44.0766 66.5663 62.8032 53.6687 100.395 53.6687C137.99 53.6687 156.345 66.557 156.345 66.557C159.863 58.8509 161.684 50.473 161.684 41.9953C161.684 33.5176 159.863 25.1397 156.345 17.4336Z" fill="white"/>
</g>
<defs>
<clipPath id="clip0_48_95">
<rect width="200" height="200" fill="white"/>
</clipPath>
</defs>
</svg>
