<svg width="200" height="200" viewBox="0 0 200 200" fill="none" xmlns="http://www.w3.org/2000/svg">
<path d="M26 0V76.3103C26 161.956 100.297 200 100.297 200C100.297 200 174.602 161.955 174.602 76.3101V0H26Z" fill="#F1CB00"/>
<path d="M28.8101 2.80664V76.3102C28.8101 153.028 90.5665 191.145 100.297 196.689C110.036 191.145 171.793 153.028 171.793 76.3102V2.80664H28.8101ZM166.169 76.3099C166.169 145.597 115.066 181.159 100.298 190.064C85.5313 181.159 34.4293 145.597 34.4293 76.3099V8.41924H166.169V76.3096V76.3099Z" fill="#B30838"/>
<path d="M37.5361 11.2246V76.3115C37.5361 142.028 84.6065 176.756 100.594 186.753C116.586 176.756 163.659 142.028 163.659 76.3115V11.2246H37.5361Z" fill="#013A81"/>
<path d="M116.837 139.14C116.791 135.827 115.744 132.604 113.833 129.894L107.152 129.977L105.167 123.605C103.589 123.121 101.948 122.876 100.298 122.877C98.6041 122.877 96.9695 123.132 95.4356 123.605L93.4443 129.977L86.7647 129.894C84.8553 132.605 83.8087 135.827 83.7617 139.14L89.2125 142.992L87.0657 149.309C89.0389 151.929 91.7723 153.944 94.9405 155.027L100.298 151.04L105.659 155.027C108.824 153.944 111.555 151.929 113.532 149.309L111.392 142.992L116.837 139.14" fill="white"/>
<path d="M130.893 50.2804C138.535 57.448 143.845 67.0793 145.562 77.9104C144.175 66.6905 139.048 56.6417 131.481 49.0307L130.893 50.2801M81.6808 131.025C63.1037 124.32 49.8148 106.501 49.8148 85.567C49.8148 70.086 57.0853 56.3206 68.3767 47.4775L66.847 44.1953C54.6949 53.2533 46.8184 67.7535 46.8184 84.1014C46.8184 106.332 61.3888 125.143 81.4718 131.488C81.5354 131.333 81.6086 131.178 81.6808 131.025ZM114.954 85.1762C111.648 82.2137 108.004 80.4806 104.019 79.9693C104.019 79.9693 121.854 78.6089 121.854 68.263C121.854 63.2879 115.618 56.5577 96.2052 56.5577H73.3929C73.3929 56.5577 76.4283 58.2507 76.4283 59.6953V81.7584C79.2517 83.1413 83.1035 84.4132 86.9371 85.9644V81.6857H93.1975C96.5217 81.678 98.4217 82.4348 100.151 83.8853L118.348 100.801C120.896 102.976 125.946 105.627 130.344 105.627C135.988 105.627 138.245 103.743 138.245 103.743C138.245 103.743 134.601 103.516 131.836 101.148L114.954 85.1762ZM94.5197 78.9372H86.9377V59.4193H94.5197C104.061 59.4193 110.426 62.6837 110.426 69.1782C110.426 74.4493 103.816 78.9372 94.5197 78.9372Z" fill="#F1CB00"/>
<path d="M76.429 93.4335V100.774C76.429 102.46 73.7102 103.892 73.7102 103.892H89.81C89.81 103.892 86.9379 102.46 86.9379 100.774V98.2858C84.455 96.5245 80.5001 95.0778 76.429 93.4338M65.2591 32.9912C66.4581 35.8311 66.974 36.8235 66.974 36.8235L66.0028 40.3653L69.7657 42.018L72.0999 47.0391C72.0999 47.0391 83.0745 42.0922 100.298 42.0922C117.518 42.0922 128.499 47.0391 128.499 47.0391L130.833 42.018L134.594 40.365L133.627 36.8235C133.627 36.8235 134.135 35.8311 135.336 32.9912C136.537 30.15 142.368 27.0868 142.368 27.0868C137.444 22.0292 133.366 32.1442 128.16 27.2317C126.371 29.9063 130.129 33.13 130.129 33.13C130.129 33.13 129.007 35.9374 125.728 36.4873C121.773 37.1535 117.645 36.9057 116.849 29.6366C116.849 29.6366 114.167 36.984 107.975 35.378C103.942 34.3295 102.329 31.1171 101.761 29.4939C105.774 29.0063 108.831 26.5595 108.831 23.6174H102.987C102.76 20.6101 100.298 18.1387 100.298 18.1387C100.298 18.1387 97.8346 20.6101 97.609 23.6174H91.7674C91.7674 26.5595 94.823 29.0063 98.8382 29.4939C98.27 31.1171 96.6573 34.3295 92.6222 35.378C86.4261 36.984 83.7462 29.6366 83.7462 29.6366C82.952 36.9057 78.8239 37.1535 74.8693 36.4873C71.5958 35.9374 70.4671 33.13 70.4671 33.13C70.4671 33.13 74.2285 29.9063 72.4349 27.2317C67.2347 32.1442 63.1508 22.0289 58.2246 27.0868C58.2243 27.0868 64.062 30.15 65.2591 32.9912Z" fill="#F1CB00"/>
<path d="M128.252 53.4428C128.386 53.1609 128.458 52.8754 128.458 52.5834C128.458 48.641 115.844 45.4473 100.297 45.4473C84.7506 45.4473 72.1396 48.641 72.1396 52.5834C72.1396 52.8754 72.2077 53.1612 72.3388 53.4428C78.3355 50.2752 88.6107 48.1825 100.297 48.1825C111.983 48.1825 122.262 50.2752 128.252 53.4428ZM86.9699 135.068L92.3511 130.851L87.4894 130.785C85.8785 133.172 84.9721 135.962 84.8737 138.838L88.8405 141.642L86.9699 135.068ZM104.537 124.569C101.768 123.783 98.8338 123.783 96.0643 124.569L94.6125 129.206L100.297 125.401L105.98 129.206L104.537 124.569ZM108.246 130.851L113.627 135.068L111.755 141.641L115.723 138.838C115.625 135.963 114.72 133.173 113.111 130.786L108.246 130.851ZM89.7068 144.296L88.1471 148.895C89.9214 151.161 92.2952 152.886 95 153.876L98.9017 150.969L92.0574 150.716L89.7068 144.296ZM108.532 150.717L101.695 150.97L105.597 153.876C108.303 152.886 110.677 151.161 112.454 148.895L110.89 144.296L108.532 150.717Z" fill="#F1CB00"/>
<path d="M151.093 85.1411C151.093 106.768 138.338 125.402 119.969 133.916C120.249 134.937 120.46 135.983 120.582 137.06C140.092 128.76 153.778 109.375 153.778 86.7851C153.778 69.7734 146.013 54.5809 133.846 44.5703L133.03 44.9264C144.113 54.7658 151.093 69.133 151.093 85.1411ZM79.9483 137.805C79.9965 137.189 80.0693 136.582 80.1697 135.981C67.5079 131.642 56.9789 122.683 50.5898 111.103C56.6546 123.307 67.1474 132.907 79.9483 137.805ZM101.982 71.1599V76.0184C106.243 74.5032 108.694 71.7739 108.694 69.1799C108.694 68.8297 108.66 68.4974 108.622 68.1795H99.4631C99.4631 68.1793 101.982 68.8155 101.982 71.1602M101.982 87.9529V110.322C101.982 112.665 99.4631 113.307 99.4631 113.307H129.225C141.156 113.307 137.057 106.317 137.057 106.317C137.057 106.317 134.727 110.384 127.664 110.384H110.847V96.1945L101.982 87.9529ZM93.0007 77.4349C93.0007 77.4349 96.0723 75.9155 96.0723 73.1304C96.0723 70.4293 92.6942 68.9627 88.6716 68.2315V71.6166C91.4671 72.8912 92.8232 74.9655 93.0007 77.4349ZM62.1853 106.305C62.1853 110.292 69.7919 113.894 80.5002 113.894C93.938 113.894 99.5392 106.937 99.5392 100.362C99.5392 86.2714 70.304 86.5593 70.304 77.2865C70.304 74.8691 72.1434 72.8909 74.6917 71.657V68.3285C68.681 69.7292 62.9328 73.2108 62.9328 79.3448C62.9328 92.4022 91.2611 91.9719 91.2611 102.247C91.2611 107.537 87.5633 111.143 80.5002 111.143C72.4906 111.143 65.7 106.981 67.3804 100.756C67.3807 100.756 62.1853 101.966 62.1853 106.305ZM83.9023 140.945C83.9023 140.945 83.381 144.37 85.8743 147.476L86.4907 145.581C86.4907 145.581 84.2536 143.556 83.9023 140.945ZM96.7092 155.444C96.7092 155.444 99.8099 156.996 103.54 155.59L101.92 154.419C101.92 154.419 99.305 155.917 96.7092 155.444ZM115.111 142.494C115.111 142.494 115.728 145.448 114.477 147.762C114.477 147.762 116.913 145.295 116.728 141.319L115.111 142.494ZM107.21 124.39L107.827 126.287C107.827 126.287 110.832 126.611 112.648 128.515C112.648 128.515 111.056 125.44 107.21 124.39M93.755 124.305C93.755 124.305 90.3309 124.868 88.1396 128.192H90.1392C90.1389 128.192 91.38 125.44 93.755 124.305M104.84 134.625L106.542 130.813L103.441 133.607H97.1585L94.0572 130.813L95.7581 134.625L93.8156 140.586L90.1933 142.672L94.3494 142.232L99.4342 145.923L100.297 150.001L101.162 145.923L106.247 142.232L110.403 142.673L106.783 140.586L104.84 134.625M98.9329 137.179L95.4678 141.789L97.4959 135.299H103.994L98.9329 137.179Z" fill="#B30838"/>
<path d="M110.427 69.1785C110.427 62.6843 104.061 59.4199 94.52 59.4199H86.938V78.9375H94.52C103.816 78.9372 110.427 74.4493 110.427 69.1785ZM93.0004 77.4335C92.8232 74.9639 91.4671 72.8895 88.6713 71.6152V68.2304C92.6943 68.9613 96.072 70.4282 96.072 73.1293C96.072 75.9147 93.0004 77.4335 93.0004 77.4335ZM101.982 76.0168V71.1585C101.982 68.8138 99.4628 68.1779 99.4628 68.1779H108.622C108.66 68.4954 108.694 68.8284 108.694 69.1779C108.694 71.7722 106.243 74.5015 101.982 76.0168ZM141.344 172.207H143.298V178.092H144.006V172.207H146.062V171.505H141.344V172.207ZM149.831 176.865L148.138 171.505H147.005V178.092H147.709V172.497L149.476 178.092H150.183L151.956 172.497V178.092H152.659V171.505H151.524L149.831 176.865Z" fill="#013A81"/>
</svg>
