<svg width="200" height="200" viewBox="0 0 200 200" fill="none" xmlns="http://www.w3.org/2000/svg">
<path d="M175.387 10.5474C171.807 9.46799 139.266 0 99.9007 0C60.5308 0 27.9927 9.46799 24.4139 10.5474L20 11.8782V102.374C20 118.507 24.4245 134.248 33.1502 149.161C41.9921 164.271 52.895 174.315 58.6071 178.959C77.2839 194.138 96.0931 199.456 99.0239 199.875L99.9014 200L100.778 199.875C103.708 199.457 122.518 194.138 141.195 178.959C146.908 174.315 157.811 164.271 166.653 149.161C175.378 134.252 179.801 118.511 179.801 102.377V11.8817L175.387 10.5502V10.5474Z" fill="black"/>
<path d="M99.8995 6.20508C61.0742 6.20508 28.7975 15.7064 26.2031 16.4883V102.374C26.2031 135.786 46.9005 161.45 62.5191 174.144C80.1016 188.434 97.9815 193.459 99.8995 193.733C101.815 193.46 119.697 188.434 137.281 174.144C152.898 161.45 173.597 135.785 173.597 102.374V16.4869C171.004 15.7071 138.725 6.20579 99.8995 6.20579V6.20508Z" fill="white"/>
<path d="M169.075 102.375C169.075 116.578 165.144 130.497 157.392 143.744C149.406 157.392 139.576 166.451 134.427 170.635C131.214 173.24 127.848 175.649 124.346 177.851L103.888 140.818C102.566 141.048 101.227 141.165 99.8856 141.166C87.0711 141.166 76.6831 130.778 76.6831 117.962C76.6831 112.213 78.7789 106.958 82.2401 102.904L82.238 102.9C82.3796 102.733 82.5192 102.564 82.6658 102.402L60.9456 63.0812H55.9354L77.4218 101.977C74.0825 106.637 72.2895 112.227 72.2955 117.961C72.2955 133.175 84.6737 145.552 99.8849 145.552C100.417 145.552 100.942 145.534 101.466 145.505L120.586 180.114C117.538 181.869 114.406 183.472 111.2 184.918C105.631 187.422 101.518 188.678 99.9012 189.102C98.2836 188.678 94.1714 187.423 88.6017 184.918C82.8294 182.323 74.1143 177.739 65.3737 170.635C60.2282 166.454 50.3975 157.393 42.4119 143.747C34.6593 130.496 30.7285 116.578 30.7285 102.375V19.9072C34.5248 18.8809 41.3942 17.1591 50.2984 15.4961C67.259 12.3302 83.9491 10.7246 99.9041 10.7246C115.859 10.7246 132.548 12.3302 149.509 15.4961C158.413 17.1584 165.283 18.8816 169.078 19.9072V102.374L169.075 102.375Z" fill="black"/>
<path d="M99.9002 10.7266C83.9452 10.7266 67.2565 12.3322 50.2952 15.4981C41.391 17.1597 34.5209 18.8829 30.7246 19.9077V102.374C30.7246 116.578 34.6554 130.497 42.4066 143.744C50.3936 157.392 60.2228 166.451 65.3719 170.636C74.1125 177.739 82.8283 182.325 88.5999 184.919C94.1696 187.423 98.2818 188.678 99.8994 189.102C101.516 188.678 105.629 187.423 111.198 184.919C114.404 183.473 117.536 181.87 120.584 180.115L119.852 178.791C118.39 179.632 116.907 180.439 115.407 181.211L98.7556 151.05C98.1532 151.03 97.5515 150.994 96.951 150.943L96.9538 150.948C80.0385 149.463 66.7693 135.264 66.7693 117.962C66.7632 112.102 68.3206 106.346 71.2809 101.289L50.189 63.0831H48.4466L69.5364 101.285C66.7163 106.391 65.2401 112.129 65.2465 117.962C65.2465 136.373 79.6836 151.46 97.8299 152.53L114.045 181.9C112.802 182.517 111.642 183.061 110.581 183.538C105.168 185.972 101.254 187.157 99.903 187.533C98.553 187.157 94.6385 185.972 89.2246 183.538C83.5351 180.981 74.9447 176.462 66.3309 169.461C61.2619 165.34 51.5835 156.422 43.7176 142.979C36.1038 129.967 32.2424 116.306 32.2424 102.374V21.0678C36.3999 19.97 42.6821 18.4565 50.5764 16.9826C67.44 13.8358 84.038 12.2401 99.8994 12.2401C115.762 12.2401 132.359 13.8365 149.227 16.9854C157.12 18.4586 163.403 19.9743 167.561 21.0707V102.374C167.561 116.306 163.701 129.967 156.086 142.979C148.22 156.423 138.542 165.341 133.473 169.461C130.33 172.009 127.037 174.368 123.613 176.524L124.346 177.851C127.586 175.809 131.004 173.418 134.428 170.636C139.576 166.451 149.406 157.393 157.392 143.744C165.144 130.496 169.074 116.578 169.074 102.374V19.9091C165.281 18.8836 158.413 17.1611 149.509 15.4981C132.547 12.3322 115.858 10.7273 99.903 10.7273L99.9002 10.7266ZM62.6826 63.0831L83.7243 101.216C87.2992 97.7647 91.8867 95.5511 96.8129 94.9002L79.6348 63.0831H62.6826ZM96.9411 63.0831L119.1 104.814L121.575 109.476L121.602 109.524L130.117 94.0035L114.026 63.0817H96.9411V63.0831ZM130.818 63.0831L138.631 78.4842L147.081 63.0831H130.818ZM138.631 78.4898L130.116 94.0113H159.434V78.4898H138.63H138.631ZM121.598 109.531V109.532C122.653 112.23 123.194 115.101 123.192 117.998C123.192 120.458 122.809 122.827 122.103 125.054H155.51C157.302 119.942 158.485 114.76 159.049 109.531H121.598ZM105.32 140.571L113.883 156.092H135.994C139.81 152.131 144.125 146.947 148.051 140.571H105.32Z" fill="#0067B1"/>
<path d="M109.463 121.041C108.439 124.065 105.768 128.688 105.147 129.746C104.567 129.868 102.417 130.273 99.7213 130.273C97.9351 130.273 96.2558 130.096 94.7267 129.749C94.1077 128.693 91.4375 124.066 90.412 121.041C91.3929 119.57 93.8626 116.044 96.5667 113.466H103.307C106.011 116.044 108.48 119.57 109.462 121.041M92.1401 105.726C89.4063 105.203 86.5513 105.076 85.0377 105.049C82.4689 108.257 80.7039 112.165 80.2754 113.16C80.8562 116.854 82.5978 120.164 82.9427 120.769C84.134 120.876 85.3734 120.929 86.6327 120.929C88.3325 120.929 89.5734 120.832 90.0309 120.792C91.6932 116.435 93.8314 112.605 94.3322 111.726L92.1401 105.726ZM114.852 105.049C113.333 105.076 110.47 105.203 107.729 105.728L105.54 111.721C106.041 112.6 108.181 116.434 109.843 120.792C110.299 120.832 111.54 120.929 113.241 120.929C114.501 120.929 115.744 120.875 116.938 120.769C117.285 120.16 119.028 116.845 119.608 113.147C119.172 112.128 117.433 108.253 114.852 105.049Z" fill="#D8D9DA"/>
<path d="M82.4243 129.675L81.6197 130.036C79.253 126.456 77.9941 122.257 78.0005 117.965C78.0005 116.531 78.1386 115.098 78.4127 113.701C78.8888 113.688 79.363 113.635 79.8299 113.541C79.9801 114.646 80.5694 118.233 82.2862 121.552C81.9115 122.804 81.3754 125.649 82.4243 129.675ZM117.446 129.676L118.249 130.036C120.616 126.456 121.876 122.257 121.869 117.965C121.869 116.531 121.731 115.098 121.456 113.701C120.98 113.688 120.506 113.635 120.039 113.541C119.89 114.646 119.3 118.233 117.583 121.552C117.958 122.804 118.493 125.65 117.446 129.676Z" fill="#ADAFB2"/>
<path d="M89.7757 135.264C90.3211 136.924 90.7035 137.669 90.8579 137.932C87.2944 136.31 84.2305 133.763 81.9849 130.555L82.7484 130.389C84.6026 132.856 88.5348 134.718 89.7757 135.264ZM110.108 135.264C109.563 136.924 109.183 137.669 109.027 137.932C112.591 136.31 115.655 133.763 117.901 130.555L117.138 130.389C115.283 132.856 111.351 134.718 110.108 135.264Z" fill="#717073"/>
<path d="M108.993 134.852C108.549 134.412 108.113 133.963 107.685 133.508C106.597 132.346 105.796 131.292 105.298 130.523C99.9975 131.796 95.6352 130.796 94.575 130.506C93.5515 132.095 91.477 134.271 90.6582 135.07C90.7283 135.584 90.9493 137.023 91.3757 138.065L91.4338 138.189C94.1252 139.322 97.0166 139.902 99.9366 139.896C102.836 139.896 105.65 139.34 108.311 138.242C108.817 137.123 109.062 135.4 109.117 134.975L108.993 134.852Z" fill="#919195"/>
<path d="M53.2004 23.998C51.3263 23.998 49.5727 24.3508 47.9422 25.0569C46.3407 25.7406 44.8844 26.7238 43.6516 27.9537C42.4228 29.1825 41.5006 30.616 40.7945 32.2585C40.0884 33.8995 39.7661 35.6418 39.7661 37.4918C39.7661 39.3623 40.0877 41.1131 40.7945 42.7414C41.5006 44.3704 42.4228 45.7926 43.6516 47.0072C44.8819 48.224 46.3118 49.183 47.9422 49.8898C49.5727 50.5945 51.3256 50.9465 53.2004 50.9465C54.2134 50.9478 55.2236 50.8376 56.2126 50.6179C57.1999 50.3991 58.2028 50.0471 59.2269 49.5605L59.2722 49.5251L59.3034 49.5789L59.8771 50.4869H66.4972L63.7435 46.146L63.6918 46.0631C64.6792 44.8017 65.4336 43.3741 65.9192 41.8476C66.3688 40.4393 66.5981 38.9701 66.5992 37.4918C66.5992 35.6425 66.2762 33.8995 65.5708 32.2592C64.8647 30.616 63.9489 29.1896 62.7328 27.9735C61.5139 26.7588 60.091 25.7935 58.4578 25.0746C56.828 24.3593 55.0751 23.998 53.2004 23.998ZM151.433 29.3737C147.562 29.3737 144.717 30.8873 143.631 33.5269C143.285 34.3493 143.106 35.2321 143.105 36.1241C143.105 40.1116 146.018 41.4318 148.21 42.0452C148.48 42.1153 149.099 42.2435 149.815 42.3936C151.137 42.6698 152.781 43.0148 153.232 43.1933C154.257 43.5538 154.408 44.2613 154.408 44.6508C154.408 46.2536 152.065 46.3769 151.348 46.3769C150.415 46.3769 149.411 46.2019 148.593 45.8974C147.709 45.5857 147.144 45.2019 146.735 44.7975C146.488 44.5513 146.259 44.2874 146.051 44.0077C146.011 43.9488 145.971 43.8893 145.933 43.8293C145.854 43.7074 145.789 43.5941 145.789 43.5941L141.91 46.158H132.357V41.8695H139.776V37.5236H132.357V34.039H141.262V29.6917H126.927V50.5025H142.108V47.4145C142.997 48.4634 144.367 49.7404 146.709 50.4621C148.019 50.875 149.465 51.0747 151.13 51.0747C154.35 51.0747 156.783 50.1944 158.358 48.4542C159.122 47.6156 160.031 46.1474 160.031 43.9114C160.031 38.8821 155.766 38.0973 151.645 37.3367C149.963 37.0144 148.861 36.6723 148.861 35.5327C148.861 34.5674 149.72 34.0135 151.215 34.0135C151.723 34.0135 153.492 34.0702 154.861 34.799C155.631 35.2268 155.991 35.6978 156.28 36.0852L159.817 32.8534C159.17 32.1274 158.486 31.3823 157.158 30.6762C155.573 29.8235 153.594 29.373 151.431 29.373L151.433 29.3737ZM53.1841 29.487C54.8386 29.487 56.3641 29.9899 57.6248 30.8497C57.673 30.8837 57.7183 30.9184 57.7644 30.951C57.821 30.9914 57.8777 31.031 57.9329 31.0714C59.8587 32.5283 61.0932 34.8521 61.0932 37.4705C61.0932 38.8552 60.749 40.1555 60.1399 41.2895H53.9667L56.1878 44.7316L56.2444 44.818L56.1949 44.8619C56.1219 44.8924 56.0483 44.9221 55.9739 44.9504C55.947 44.9596 55.9208 44.9703 55.8946 44.9802C55.8145 45.0085 55.7352 45.0361 55.6545 45.0623C55.6084 45.0772 55.5624 45.0928 55.5164 45.1063C55.4484 45.1275 55.3797 45.1459 55.311 45.165C55.2536 45.1813 55.1976 45.1983 55.1396 45.2125C55.073 45.2288 55.005 45.2444 54.9391 45.2585C54.8796 45.2727 54.8216 45.2869 54.7606 45.2989C54.6849 45.3145 54.6091 45.3272 54.5312 45.34C54.4809 45.3492 54.4299 45.3591 54.3789 45.3669C54.2783 45.3818 54.177 45.3938 54.0758 45.4051C54.0467 45.4094 54.0191 45.4136 53.9893 45.4165C53.5846 45.4572 53.1774 45.4676 52.7711 45.4476C48.557 45.2323 45.2721 41.7463 45.2721 37.4727C45.2721 33.0623 48.773 29.487 53.1841 29.487ZM107.357 29.6783V46.8748L108.537 50.506H112.791V29.6783H107.357ZM118.908 29.6783L112.851 39.6902L119.396 50.5074H125.749L119.204 39.6902L125.261 29.6783H118.908ZM68.4045 29.6924V41.5756C68.4669 43.91 68.5292 46.3266 70.6426 48.3841C72.528 50.1923 74.6747 50.9997 77.5963 50.9997C80.9159 50.9997 82.7297 49.9522 84.3984 48.3784C86.9623 45.9377 86.9623 42.604 86.9623 39.9714V29.6924H81.4676V42.1797C81.4676 43.1097 81.4676 44.3845 80.4081 45.4073C80.0178 45.7713 79.112 46.3818 77.6622 46.3818C76.5275 46.3818 75.5572 46.022 74.9325 45.3697C73.9197 44.381 73.919 43.1097 73.919 42.1797V29.6917H68.4038L68.4045 29.6924ZM93.3118 29.6924L86.4644 50.5025H91.986L96.6923 36.1163L99.0933 43.5021H95.8623L94.4344 47.8465H100.523L101.397 50.5025H106.95L100.1 29.6917H93.3118V29.6924ZM69.3387 54.1606C68.782 54.1606 67.7671 54.2166 67.2047 54.803C66.9447 55.0653 66.7978 55.4189 66.7954 55.7882C66.7954 56.7089 67.6042 56.9965 67.794 57.0666C67.9881 57.1325 68.1743 57.1813 68.3734 57.2231C68.6241 57.2812 69.7601 57.4816 69.9818 57.5518C70.1242 57.6028 70.3168 57.7026 70.3168 57.9385C70.3168 58.1106 70.1879 58.2529 70.0661 58.3245C69.8869 58.4236 69.6249 58.4456 69.4386 58.4456C68.7247 58.4456 68.3889 58.1963 68.3238 57.8662L66.5468 57.9172C66.5751 58.1446 66.6388 58.6092 67.0737 58.9952C67.6672 59.5236 68.6744 59.5661 69.1808 59.5661C70.5378 59.5661 71.3863 59.2877 71.8084 58.6517C71.9586 58.4314 72.074 58.1233 72.074 57.7876C72.074 57.3322 71.8587 56.83 71.1859 56.5822C70.9764 56.5005 70.7593 56.4403 70.5378 56.4023C70.195 56.3244 69.8458 56.2578 69.5023 56.1813C69.2247 56.1246 68.7162 56.0099 68.595 55.8527C68.556 55.8013 68.5357 55.738 68.5377 55.6735C68.5377 55.303 69.0944 55.2669 69.3309 55.2669C70.0873 55.2669 70.1745 55.5665 70.2163 55.7315L71.9876 55.631C71.938 55.3597 71.8169 54.6522 70.8742 54.3533C70.5598 54.247 69.9514 54.1606 69.3387 54.1606ZM100.674 54.1606C100.119 54.1606 99.1047 54.2166 98.5416 54.803C98.2827 55.0658 98.1366 55.4193 98.1344 55.7882C98.1344 56.7089 98.9418 56.9965 99.1351 57.0666C99.3264 57.1325 99.5133 57.1813 99.7117 57.2231C99.9624 57.2812 101.099 57.4816 101.319 57.5518C101.462 57.6028 101.656 57.7026 101.656 57.9385C101.656 58.1106 101.526 58.2529 101.404 58.3245C101.226 58.4236 100.962 58.4456 100.777 58.4456C100.062 58.4456 99.7251 58.1963 99.6614 57.8662L97.8836 57.9172C97.912 58.1446 97.9778 58.6092 98.412 58.9952C99.0048 59.5236 100.012 59.5661 100.519 59.5661C101.876 59.5661 102.727 59.2877 103.147 58.6517C103.297 58.4314 103.412 58.1233 103.412 57.7876C103.412 57.3322 103.198 56.83 102.526 56.5822C102.316 56.5006 102.099 56.4403 101.877 56.4023C101.535 56.3244 101.183 56.2578 100.841 56.1813C100.562 56.1246 100.055 56.0099 99.9319 55.8527C99.8935 55.801 99.874 55.7378 99.8767 55.6735C99.8767 55.303 100.433 55.2669 100.671 55.2669C101.426 55.2669 101.511 55.5665 101.556 55.7315L103.327 55.631C103.277 55.3597 103.155 54.6522 102.212 54.3533C101.898 54.247 101.29 54.1606 100.674 54.1606ZM94.1164 54.189C93.2226 54.2031 92.0228 54.3674 91.3167 55.3668C90.9944 55.8222 90.8513 56.381 90.8513 56.9448C90.8513 57.5227 90.988 58.0086 91.3315 58.4675C91.7013 58.9725 92.4223 59.5951 94.1809 59.5951C95.0945 59.5951 95.909 59.4662 96.5939 58.9237C96.8358 58.738 97.0395 58.5074 97.1938 58.2444C97.4452 57.8308 97.5578 57.345 97.5578 56.8747C97.5578 56.0099 97.1513 54.9525 95.994 54.4822C95.4154 54.2463 94.7453 54.1819 94.1171 54.1882L94.1164 54.189ZM74.186 54.3731L72.0159 59.4152H73.9941L75.2208 55.7733L75.8157 57.4809H75.1039L74.7286 58.5943H76.1947L76.4638 59.4152H78.4285L76.2428 54.3731H74.186ZM78.5687 54.3731V58.5561L78.942 59.4152H80.3535L80.3252 56.6381L82.7446 59.4145H84.2454V54.3731H82.4677L82.5031 57.1325L80.0617 54.3731H78.5687ZM88.4681 54.3731V57.7019C88.4482 58.1956 88.2244 58.2097 87.8398 58.2232H87.4326V59.4145H88.4688C88.9752 59.4003 89.5099 59.3812 89.898 58.9867C90.2621 58.6156 90.2692 58.158 90.2741 57.8308V54.3731H88.4681ZM103.943 54.3731V59.4152H109.328V58.2742H105.743V57.4739H108.992V56.3314H105.75V55.5113H109.258V54.3738L103.943 54.3731ZM94.2227 55.3094C95.4579 55.3236 95.7015 56.3392 95.7015 56.8888C95.7015 57.3967 95.5089 58.0518 94.9515 58.3316C94.7298 58.4456 94.4734 58.4732 94.2219 58.4732C93.1298 58.4732 92.7091 57.6679 92.7091 56.8888C92.7091 56.1955 93.0873 55.2953 94.2227 55.3094ZM40.3695 56.1239V57.6424H63.0147V56.1239H40.3695ZM99.672 96.0257C94.0846 96.0811 88.7317 98.2792 84.7178 102.166C84.7306 102.537 84.7957 103.523 85.1088 104.509C88.1231 104.037 91.0723 103.858 93.0384 103.789C93.0384 103.789 95.4614 101.304 98.8752 99.7073L99.672 96.0257ZM100.211 96.0257L101.006 99.7073C104.422 101.304 106.843 103.789 106.843 103.789C108.811 103.857 111.761 104.037 114.773 104.509C115.087 103.523 115.152 102.537 115.166 102.167C111.151 98.2803 105.798 96.0823 100.211 96.0265V96.0257Z" fill="white"/>
<path d="M122.87 54.377V55.5137H126.543C123.458 56.8856 123.329 59.419 123.329 59.419H125.242C125.242 59.419 125.139 57.5471 128.204 55.5137V54.377H122.87ZM119.542 54.377C119.355 54.377 118.358 54.3925 117.691 54.6935C116.939 55.037 116.716 55.6391 116.716 56.1136C116.716 57.2171 117.706 57.6838 118.889 57.6838C119.93 57.6838 120.316 57.3396 120.567 57.1243C120.56 57.3318 120.525 57.8056 120.137 58.1215C119.909 58.3085 119.608 58.3722 119.314 58.3722C118.853 58.3722 118.702 58.193 118.589 58.0556L116.71 58.1003C116.839 58.5805 117.095 59.0026 117.872 59.2476C118.372 59.4056 118.867 59.4339 119.264 59.4339C119.973 59.4339 120.755 59.3688 121.385 58.8963C122.217 58.266 122.319 57.312 122.319 56.7737C122.319 55.0732 121.228 54.3777 119.542 54.3777L119.542 54.377ZM114.32 54.4634C113.963 54.736 113.573 55.0229 112.726 55.1164V56.1504H113.903V59.3248H115.582V54.4634H114.32ZM130.598 54.5845L127.74 57.4841V58.5422H130.912V59.419H132.518V58.5422H133.375V57.4055H132.535V54.5845H130.598ZM119.385 55.4393C120.109 55.4181 120.511 55.5746 120.511 56.0484C120.511 56.4429 120.144 56.6363 119.434 56.6363C119.226 56.6363 118.437 56.6292 118.437 56.0414C118.437 55.5243 119.004 55.4535 119.385 55.4393ZM130.918 55.8629V57.4055H129.391L130.918 55.8629ZM136.407 56.1271V57.6463H159.436V56.1271H136.407Z" fill="#E31837"/>
</svg>
