<svg width="200" height="200" viewBox="0 0 200 200" fill="none" xmlns="http://www.w3.org/2000/svg">
<g clip-path="url(#clip0_48_390)">
<path d="M63.3659 141.566C56.0012 134.512 47.9157 128.256 39.2434 122.903C39.2434 122.903 41.5002 117.312 42.2565 114.509C48.3192 91.9444 42.9379 73.8441 32.9912 53.1904C32.9912 53.1904 48.809 54.9493 59.0352 53.9559C73.6943 52.5236 86.784 48.4666 100.032 41.8496C123.067 53.3493 141.952 55.9822 167.066 53.1882C155.296 77.6228 150.697 97.8502 160.814 122.902C160.814 122.902 154.884 126.561 151.237 129.269C124.963 148.785 111.798 169.326 100.032 200.001C91.0038 176.468 81.8871 159.219 63.3659 141.566Z" fill="#142530"/>
<path d="M66.2773 138.489C59.65 132.173 52.3183 125.985 44.4968 121.184C45.2144 119.363 45.8275 117.503 46.3331 115.613C51.5429 96.2035 48.8613 76.4051 40.1143 58.2446C46.5447 58.8285 53.0158 58.8026 59.4414 58.1673C73.5637 56.8313 87.3218 52.9058 100.032 46.5859C117.375 55.2457 140.397 60.4654 159.944 58.2446C151.193 76.4051 148.51 96.2035 153.724 115.613C154.23 117.504 154.844 119.364 155.564 121.184C155.564 121.184 152.561 123.022 148.731 125.869C127.166 141.883 109.774 162.813 100.034 188.207C92.4901 168.56 81.3213 152.842 66.2773 138.489Z" fill="white"/>
<path d="M67.4316 137.267C78.75 148.058 91.9647 163.734 100.032 183.57C109.508 160.256 127.633 139.435 147.725 124.516C150.5 122.455 152.537 121.101 153.485 120.484C151.457 114.656 150.198 108.587 149.74 102.43C148.478 87.9522 151.031 73.3954 157.144 60.22C138.255 61.512 116.819 56.7712 100.034 48.4688C83.2428 56.769 61.809 61.512 42.9258 60.22C50.9073 77.5296 52.8976 97.6578 47.9625 116.048C47.3891 118.169 46.8726 119.679 46.581 120.484C54.0343 125.418 61.0145 131.037 67.4316 137.267Z" fill="#005595"/>
<path d="M54.7795 75.5836C49.5075 46.7342 50.1551 17.6351 50.1551 17.6351L100.033 0L149.903 17.6356C149.903 17.6356 150.556 46.7337 145.279 75.583C139.185 108.964 128.029 139.382 100.033 160.981C72.0295 139.384 60.8859 108.967 54.7795 75.5836Z" fill="#142530"/>
<path d="M60.2399 74.6442C57.1173 57.1939 55.5799 39.4951 55.6466 21.7658L100.032 6.06445L144.407 21.7658C144.475 39.4951 142.939 57.1939 139.816 74.6442C134.662 102.839 124.101 135.266 100.032 153.831C75.9577 135.266 65.4017 102.839 60.2399 74.6442Z" fill="white"/>
<path d="M63.1071 74.1192C68.1356 101.647 78.5808 132.972 100.032 150.139C132.244 124.358 141.785 63.1291 141.537 23.8403L100.032 9.16797L58.5176 23.8403C58.576 40.7025 60.1117 57.5269 63.1071 74.1192Z" fill="#5D9741"/>
<path d="M89.6656 73.6859L86.4936 50.6859C83.6116 49.8848 78.2429 48.0426 78.2429 44.2864C75.5072 42.9374 72.5723 40.8881 72.5723 37.9626C72.5723 34.5955 76.3132 32.4119 79.5725 31.0673C81.665 28.6125 85.7728 26.9352 90.4262 26.0042C90.6767 24.6724 91.3475 23.4567 92.3395 22.5368C93.5245 21.5136 94.8777 20.7048 96.3387 20.1467L96.7658 19.5593L97.5204 9.60041C97.9769 6.79164 100.89 7.10726 101.767 8.10945C102.164 8.52072 102.414 9.05274 102.476 9.62178L103.287 19.5505L103.735 20.1593C108.57 22.0793 109.508 24.499 109.747 25.9708C114.307 26.5648 118.392 28.5999 120.48 31.0694C123.748 32.4141 127.484 34.5977 127.484 37.9648C127.484 40.8903 124.55 42.921 121.814 44.2634C121.814 48.1757 116.51 49.9686 113.507 50.7423L110.36 73.6881H89.6656M85.4103 137.388C87.8691 120.924 89.6093 113.98 90.5179 97.0957H109.535C110.54 114.516 112.336 120.924 115.047 137.508L100.032 152.793L85.4103 137.388Z" fill="white"/>
<path d="M91.8578 73.6868L88.4025 48.9525C84.0472 47.9262 80.3833 46.2199 80.3833 44.2873C80.3914 43.8371 80.5484 43.4023 80.8294 43.0512C77.2741 41.6709 75.1396 39.8934 75.1396 37.9635C75.1396 36.0227 77.3074 34.2408 80.9124 32.8457C82.526 30.5224 87.0144 28.643 92.8418 27.7723C91.7519 26.0764 93.7733 24.1356 93.7733 24.1356C94.9077 23.1478 96.2359 22.4098 97.6721 21.969L98.8685 20.3153L99.6187 9.84187C100.019 8.36954 100.444 9.84187 100.444 9.84187L101.192 20.3153L102.11 21.5756C105.477 22.5673 106.817 24.226 106.817 24.226L106.125 24.1756C103.036 24.552 102.197 26.2019 102.319 27.306C110.464 27.6698 117.104 29.9054 119.15 32.8441C122.754 34.2386 124.919 36.0221 124.919 37.9613C124.919 39.8917 122.791 41.6693 119.236 43.0495C119.51 43.4036 119.664 43.8367 119.675 44.2852C119.675 46.2178 116.489 47.9284 111.579 48.9821L108.201 73.6846H106.45L108.318 50.4649C108.359 50.1887 108.403 49.4298 107.417 49.6035C106.688 49.7246 104.914 49.9986 104.914 49.9986C104.788 50.002 104.664 50.0318 104.55 50.0863C104.435 50.1407 104.334 50.2184 104.251 50.3146C104.169 50.4107 104.108 50.5231 104.071 50.6444C104.034 50.7658 104.023 50.8935 104.039 51.0194C104.039 51.0194 104.06 63.1695 104.051 73.6824H96.0241V51.1427C96.0488 51.0109 96.0457 50.8754 96.0149 50.7449C95.9841 50.6145 95.9263 50.492 95.8454 50.3853C95.7644 50.2786 95.662 50.1902 95.5449 50.1258C95.4277 50.0613 95.2983 50.0223 95.1652 50.0112L92.7397 49.6199C91.4892 49.3778 91.7306 50.4172 91.7306 50.4172L93.6314 73.683H91.8578M87.2208 138.567C88.5024 131.509 91.9829 115.583 92.8314 97.1071H107.213C108.059 115.584 111.523 131.443 112.815 138.514L109.437 142.745C107.866 134.976 106.955 130.352 105.533 122.664C105.31 121.439 104.991 120.732 104.462 120.801C104.035 120.862 103.827 121.431 103.783 122.811L102.088 148.91L100.026 152.013L97.9538 148.91L96.2611 122.811C96.2136 121.431 96.0094 120.862 95.584 120.801C95.0571 120.732 94.736 121.439 94.511 122.664C93.0897 130.352 92.21 134.874 90.6451 142.642L87.2208 138.567Z" fill="#142530"/>
<path d="M107.77 33.3086C106.045 32.8562 104.264 32.6569 102.482 32.7168L103.081 32.3799C105.058 31.2823 108.149 30.9853 110.521 31.5875C112.642 32.1377 118.063 35.1404 116.735 38.7021C116.052 37.9465 115.307 37.2491 114.51 36.6171C114.286 36.7085 114.107 36.8827 114.008 37.1035C113.909 37.3243 113.899 37.5748 113.98 37.8029C115.483 39.2494 116.308 41.1344 115.666 42.8549C113.663 40.0511 109.218 37.6314 105.811 36.5415L105.509 36.4456C107.353 35.0341 109.856 35.2681 111.948 36.3536C112.15 36.2541 112.311 36.0892 112.408 35.8857C112.504 35.6821 112.529 35.4519 112.478 35.2325C111.004 34.3769 109.42 33.7295 107.77 33.3086Z" fill="white"/>
<path d="M32.0005 74.2854C54.3036 64.7319 75.7336 59.8574 100.031 59.8574C124.318 59.8574 145.753 64.7319 168.06 74.2848V117.252C144.923 107.344 125.29 102.139 100.031 102.139C74.7791 102.139 55.1374 107.342 32 117.252V74.2848" fill="#142530"/>
<path d="M36.3193 77.0704V111.572C56.6072 102.928 78.4224 98.4725 100.463 98.4725C122.504 98.4725 144.32 102.928 164.608 111.572V77.0704C144.319 68.4271 122.504 63.9727 100.463 63.9727C78.4226 63.9727 56.6075 68.4271 36.3193 77.0704Z" fill="white"/>
<path d="M65.8264 77.8304C65.8264 79.129 66.4308 79.3279 67.9335 79.0304L69.9321 78.6441C72.1266 78.2156 72.6186 77.86 72.6186 76.237C72.6186 74.489 72.0245 74.4342 69.457 74.9405C67.6878 75.294 67.4874 75.3148 67.4874 74.7942C67.4874 74.472 67.7419 74.2835 68.1126 74.2063L69.9446 73.8507C70.7009 73.6983 70.7429 73.8759 70.7429 74.3148L72.3974 73.991V73.8047C72.3974 72.7444 72.22 72.0567 70.3116 72.4288L68.0084 72.8803C65.9247 73.2841 65.8351 74.1438 65.8351 75.2288C65.8351 76.7077 66.1201 76.9816 68.6024 76.4923C70.732 76.0841 70.9259 76.0737 70.9259 76.5986C70.9259 77.0611 70.5633 77.174 70.2133 77.2408L68.194 77.6381C67.7168 77.7301 67.4874 77.7301 67.4771 77.0945L65.8264 77.4145V77.8304ZM77.5302 77.2386L83.5138 76.494V75.0534L79.1809 75.5948V74.6244L82.6259 74.1981L83.2009 72.8951L79.1809 73.3844V72.4162L83.4237 71.906V70.5027L77.5302 71.2282V77.2386ZM91.854 71.2594L92.9248 73.4326L90.8138 73.5871L91.854 71.2594ZM87.869 76.1553L89.7053 76.0194L90.193 74.9279L93.5418 74.6934L94.0546 75.7225L95.8925 75.5844L92.9275 69.7937L90.7805 69.94L87.869 76.1553ZM99.0186 71.1531L101.338 71.1992V75.712L102.987 75.7411V71.2282L105.31 71.2704V69.7729L99.0186 69.666V71.1531ZM108.535 71.3975L110.858 71.5608V76.0715L112.502 76.1849V71.6737L114.824 71.8348V70.3416L108.535 69.9044V71.3975ZM119.154 76.8057L124.511 77.5608V76.0173L120.811 75.4923V71.0359L119.154 70.8057V76.8057ZM128.238 78.1964L134.226 79.3614V77.9203L129.896 77.0693V76.1071L133.217 76.7433L133.909 75.649L129.896 74.8671V73.9049L134.132 74.7334V73.3427L128.238 72.186V78.1964ZM44.2839 103.664C42.773 104.214 41.13 104.284 39.5781 103.865L40.4785 100.383C41.7321 100.864 43.1183 100.867 44.3735 100.389C45.5218 99.9707 45.9597 99.237 45.9597 98.4989C45.9597 97.7208 45.5966 97.3208 43.467 97.1855C41.006 97.0392 40.1537 95.82 40.1537 94.0172C40.1537 91.8337 41.806 89.094 45.0593 87.8896C46.2998 87.3929 47.6627 87.2921 48.9624 87.6008L48.1455 91.0222C47.1542 90.6581 46.0718 90.6274 45.0615 90.9345C43.8837 91.3674 43.407 92.1345 43.407 92.7477C43.407 93.7307 44.107 93.7975 45.8576 93.952C48.471 94.1696 49.254 95.2403 49.254 97.1603C49.2524 99.5504 47.6306 102.422 44.2839 103.664ZM56.7004 87.0178C54.6352 87.557 53.2434 89.8156 53.2434 92.4425C53.2434 95.0562 54.6358 96.6145 56.7004 96.0726C58.7677 95.5334 60.1535 93.254 60.1535 90.6397C60.1535 88.0173 58.7677 86.4781 56.7004 87.0178ZM56.6463 99.0929C52.6056 100.153 50.0277 97.5701 50.0277 93.2808C50.0277 88.9794 52.7328 85.0205 56.7735 83.9641C60.7935 82.9186 63.3905 85.4929 63.3905 89.7904C63.3905 94.0819 60.6706 98.0386 56.6469 99.0929M69.878 95.7636C66.5471 96.357 64.6972 94.6025 64.6972 90.5981V82.2309L67.5622 81.6282V89.8156C67.5622 91.8775 68.3021 92.9816 69.9446 92.689C71.5636 92.3838 72.3057 91.0035 72.3057 88.929V80.7246L76.282 80.1142L75.1735 81.4359V88.6299C75.1713 92.712 73.1958 95.18 69.878 95.763M88.6837 78.6923L88.753 92.8375L79.7832 85.74L81.1396 87.7351L81.0833 93.2666L77.7678 93.6594L77.7618 79.4452L85.408 85.8211L85.4538 78.9553L88.6837 78.6923ZM95.9859 89.2781C97.7769 89.3449 98.2083 88.2452 98.2083 87.2057V83.4205C98.2083 80.5805 96.3638 81.2414 94.6503 81.1301V89.3449L95.9859 89.2781ZM100.973 82.7137V87.2622C100.973 90.9679 98.1122 92.2518 96.6035 92.2162C93.8356 92.3082 91.6869 92.3274 91.6869 92.3274L91.706 79.9367L90.4949 78.5685C90.4949 78.5685 93.9606 78.3427 97.0245 78.3071C98.9373 78.3992 100.973 79.1252 100.973 82.7137ZM112.262 78.7964L112.279 81.6699L106.919 81.3504L106.886 84.0271L111.456 84.4304L109.922 86.7625L106.902 86.4929L106.911 89.4205L112.308 89.8594L112.336 92.66L103.781 92.1581L103.718 85.0726L102.128 83.6046L103.716 83.7614L103.743 78.3427L112.262 78.7964ZM121.957 93.6994L119.532 88.2096L118.083 87.992V93.2222L115.064 92.8731V80.5389L113.569 78.9098L120.705 79.6835C121.907 79.8514 123.003 80.462 123.78 81.3963C124.557 82.3306 124.96 83.5217 124.91 84.7378C124.961 85.4757 124.763 86.2093 124.347 86.8199C123.931 87.4306 123.322 87.8825 122.618 88.1027L125.501 94.312L121.957 93.6994ZM120.221 82.5235L118.085 82.214V85.3088L120.311 85.6435L120.705 85.6644C120.87 85.6686 121.035 85.6373 121.187 85.5727C121.339 85.5081 121.476 85.4116 121.588 85.2897C121.7 85.1678 121.785 85.0233 121.836 84.8658C121.888 84.7084 121.906 84.5416 121.889 84.3767C121.888 83.9154 121.717 83.4707 121.409 83.1284C121.1 82.7862 120.677 82.5707 120.219 82.5235L120.263 82.306M130.856 95.5833C129.179 95.1789 127.62 94.3854 126.305 93.2666L127.108 90.506C128.164 91.5266 129.471 92.2487 130.896 92.5992C131.994 92.8167 132.403 92.3712 132.39 91.677C132.377 90.9537 132.032 90.3931 129.96 89.1296C127.574 87.6677 126.719 86.083 126.693 84.4057C126.659 82.3603 128.218 80.7016 131.356 81.3252C132.74 81.6257 134.034 82.2506 135.131 83.1488L134.391 85.8901C133.542 85.0904 132.521 84.4985 131.407 84.1608C130.262 83.9373 129.814 84.4014 129.831 84.9718C129.847 85.8819 130.531 86.323 132.228 87.4025C134.76 89.0063 135.533 90.4014 135.566 92.1997C135.61 94.4189 134.084 96.2255 130.856 95.5833ZM141.837 89.8846V83.7614L150.344 86.0452V89.1318L144.951 87.6868V90.717L149.614 91.9657L148.068 94.0699L144.95 93.2392V99.0989L141.837 98.2666V91.2129L140.274 89.4562L141.837 89.8846ZM141.837 91.1625L140.393 89.5296L141.837 91.1625ZM157.453 104.072C153.151 102.491 150.231 98.2644 150.231 94.0008C150.231 89.7175 153.149 87.6238 157.453 89.203C159.012 89.8106 160.419 90.7528 161.577 91.9636L160.641 94.4479C159.744 93.5362 158.67 92.8188 157.486 92.34C155.018 91.4342 153.489 92.5279 153.489 95.1964C153.464 96.4591 153.837 97.6974 154.555 98.7348C155.272 99.7721 156.298 100.555 157.486 100.973C158.543 101.37 159.698 101.424 160.787 101.127L161.702 104.293C160.299 104.681 158.809 104.603 157.453 104.072Z" fill="#142530"/>
</g>
<defs>
<clipPath id="clip0_48_390">
<rect width="200" height="200" fill="white"/>
</clipPath>
</defs>
</svg>
