<svg width="200" height="200" viewBox="0 0 200 200" fill="none" xmlns="http://www.w3.org/2000/svg">
<path d="M178.019 20.7962C177.999 20.7714 177.975 20.7492 177.949 20.7303C154.958 7.53204 128.093 0.00659308 99.6733 0.00131854L99.6202 0L99.6162 0.00131854C71.2098 0.00659308 44.4617 7.31974 21.4774 20.5074C21.4306 20.5474 21.3911 20.5952 21.3606 20.6485C11.9215 43.689 4.10613 81.5892 16.1018 115.054C26.6394 144.458 44.3145 163.883 64.1971 178.37C84.0784 192.856 98.8667 199.702 99.0298 199.78L99.6454 200L100.26 199.78C100.422 199.702 115.211 192.856 135.091 178.37C154.974 163.883 172.649 144.458 183.186 115.054C195.193 81.5628 187.465 43.8301 178.019 20.7962Z" fill="#999999"/>
<path d="M97.9054 194.938C96.7194 194.419 68.5823 181.944 45.1376 156.381C23.2438 132.511 1.76252 92.483 23.7333 37.3482L24.2096 36.1548L25.2842 35.4428C26.5405 34.6147 56.5296 15.1582 99.5638 15.1582C142.601 15.1582 172.586 34.6147 173.841 35.4441L174.915 36.1548L175.393 37.3482C197.365 92.483 175.881 132.511 153.99 156.381C130.544 181.944 102.405 194.419 101.222 194.938L99.5638 195.661" fill="white"/>
<path d="M171.634 38.9926C171.593 38.9037 171.53 38.8266 171.451 38.7684C169.297 37.3878 140.256 19.25 99.5793 19.25C58.7673 19.25 29.6684 37.5065 27.6851 38.7816C27.6167 38.8338 27.5621 38.9017 27.5259 38.9794C-13.3485 141.826 99.5807 191.188 99.5807 191.188C99.5807 191.188 212.494 141.832 171.634 38.9926Z" fill="#002F65"/>
<path d="M104.658 5.22697C104.276 5.21643 104.037 5.40895 104.044 5.73201C104.057 6.21463 104.07 6.69857 104.08 7.18515C104.089 7.44228 104.183 7.59129 104.517 7.68227C106.225 8.18599 107.936 8.72268 109.652 9.28705C109.665 9.55473 109.679 9.81978 109.695 10.0875C108.413 10.0044 107.127 9.93714 105.837 9.88703L105.806 8.9508C105.248 8.92838 104.687 8.9086 104.126 8.89278C104.137 9.3609 104.15 9.82901 104.163 10.2984C104.17 10.6228 104.431 10.8391 104.824 10.8523C106.819 10.9116 108.808 11.0131 110.786 11.1556C111.177 11.1846 111.412 10.9973 111.392 10.6716L111.294 9.09849C111.277 8.84795 111.157 8.67652 110.843 8.57367C109.148 8.00533 107.444 7.46156 105.733 6.94252C105.725 6.71308 105.719 6.48627 105.71 6.25551C106.976 6.30826 108.239 6.37682 109.495 6.46385C109.512 6.72758 109.524 6.99658 109.54 7.26163C110.088 7.30119 110.636 7.33811 111.185 7.38294L111.106 6.1131C111.086 5.80058 110.842 5.58301 110.47 5.554C108.536 5.40596 106.597 5.29694 104.658 5.22697ZM92.1583 5.32587C91.5812 5.35488 91.0054 5.3918 90.4297 5.43136C89.2463 7.36976 88.0377 9.32134 86.8052 11.2901V11.3059C87.381 11.2545 87.9541 11.2057 88.5299 11.1608L89.1547 10.1191C90.4708 10.0215 91.7842 9.94373 93.1016 9.88439L93.6375 10.8549C94.2213 10.8299 94.805 10.8114 95.3847 10.7929V10.7771C94.2956 8.96804 93.2201 7.15091 92.1583 5.32587ZM91.2456 6.54297C91.6794 7.33415 92.1185 8.12402 92.5603 8.91783C91.6284 8.96384 90.697 9.01967 89.7663 9.0853C90.2638 8.23478 90.7587 7.38954 91.2456 6.54297ZM78.446 6.57989C76.5305 6.82873 74.6206 7.11801 72.7174 7.44756C72.3407 7.51481 72.0727 7.7693 72.0329 8.09896L71.8565 9.59034C71.8246 9.85275 71.8963 9.98857 72.2173 10.0097C73.8265 10.1771 75.4424 10.3697 77.0623 10.5925L76.984 11.4087C75.7237 11.5881 74.4607 11.7872 73.1937 12.0048L73.2999 11.0474C72.7506 11.1424 72.2014 11.2386 71.6495 11.3388C71.5964 11.8175 71.5354 12.2975 71.481 12.7748C71.4412 13.1085 71.6641 13.2746 72.0515 13.2047C74.0096 12.8487 75.9625 12.5414 77.91 12.2751C78.2947 12.2223 78.5601 11.9823 78.5879 11.654L78.7285 10.0571C78.7498 9.80396 78.6582 9.65363 78.3584 9.61407C76.7425 9.37672 75.1346 9.17365 73.5307 8.99432L73.6103 8.29016C74.852 8.08314 76.0951 7.89194 77.3382 7.72051L77.2586 8.53147C77.8025 8.45631 78.3412 8.38511 78.8811 8.31522C78.9156 7.88402 78.9607 7.45283 78.9952 7.02296C79.0231 6.70253 78.8108 6.53242 78.446 6.57989ZM126.387 7.4858C126.176 7.52536 126.073 7.68755 126.102 7.93941C126.284 9.50726 126.467 11.0698 126.646 12.6245C126.686 12.9542 126.931 13.2047 127.309 13.2733C129.376 13.6491 131.457 14.0737 133.545 14.5524C133.927 14.6407 134.147 14.4851 134.102 14.1489C134.029 13.595 133.952 13.0399 133.878 12.4861C133.331 12.3595 132.782 12.2355 132.233 12.1168L132.379 13.2324C130.992 12.9286 129.601 12.6464 128.206 12.3858C128.062 11.178 127.914 9.9701 127.771 8.75564C129.144 9.00355 130.52 9.27255 131.904 9.5666C131.949 9.92263 131.998 10.276 132.04 10.6307C132.587 10.7481 133.132 10.8681 133.681 10.9934C133.61 10.4527 133.542 9.91604 133.469 9.37672C133.423 9.03519 133.151 8.76355 132.771 8.6818C130.734 8.23778 128.686 7.83988 126.63 7.48843C126.55 7.47324 126.468 7.47235 126.387 7.4858ZM63.8686 9.1631C63.3406 9.2831 62.8126 9.40705 62.2846 9.53627L61.6345 13.5027C60.4671 12.5124 59.3275 11.538 58.2091 10.5846C57.6798 10.7296 57.1518 10.88 56.6211 11.0329L55.39 17.1712C55.9538 16.9997 56.5176 16.831 57.0775 16.6688L57.8775 12.4597C59.0051 13.4566 60.1553 14.4732 61.3321 15.5057C61.876 15.3686 62.4199 15.2315 62.9586 15.1022L63.8686 9.1631ZM141.013 10.6848C141.401 12.6746 141.799 14.6869 142.197 16.7228C142.741 16.885 143.298 17.0525 143.842 17.2239C143.431 15.1787 143.02 13.1546 142.608 11.1542C142.078 10.992 141.547 10.8351 141.013 10.6848ZM149.6 13.2693C149.68 13.6465 149.746 14.021 149.839 14.402C150.701 14.6921 151.603 15.0047 152.505 15.3343C152.903 17.009 153.288 18.7166 153.699 20.4625L155.371 21.1732C154.933 19.3799 154.495 17.6248 154.071 15.9066C155.039 16.2692 156.034 16.649 157.042 17.0538C156.936 16.6292 156.817 16.2099 156.711 15.7906C154.365 14.883 151.994 14.0414 149.6 13.2693ZM46.5889 14.2267L44.9332 14.8464C43.2885 17.4501 41.639 20.0509 39.9848 22.6488L39.9822 22.6686C40.5553 22.4207 41.131 22.1807 41.7028 21.9459C41.996 21.4712 42.2866 21.0044 42.5731 20.535C43.8706 20.0141 45.1601 19.5144 46.447 19.0397C46.5412 19.3535 46.6393 19.6687 46.7388 19.9825C47.231 19.8018 47.7272 19.6265 48.2194 19.4498L48.2247 19.4313C47.6595 17.7027 47.1142 15.9677 46.5889 14.2267ZM45.4493 15.842C45.6762 16.5936 45.911 17.3531 46.1524 18.1127C45.245 18.4516 44.3349 18.801 43.4235 19.1584L45.4493 15.842ZM162.376 18.1417C162.376 18.1575 162.376 18.1733 162.389 18.1905C163.769 19.9799 165.321 22.1424 166.793 24.0755C167.019 24.8272 167.218 25.7106 167.443 26.4649C168.001 26.7603 168.558 27.0609 169.128 27.3695C168.89 26.5968 168.571 25.3995 168.346 24.6294C169.035 23.7643 169.739 22.8848 170.415 21.9947C170.415 21.975 170.402 21.9552 170.402 21.938C169.778 21.6216 168.836 21.1244 168.836 21.1244C168.836 21.1244 168.04 22.153 167.404 22.836C166.714 22.0026 165.692 20.5284 164.658 19.1531C164.114 18.9118 162.906 18.3724 162.376 18.1417ZM36.7066 18.1667C36.7106 18.1509 36.4413 18.2749 36.4453 18.259C35.8218 18.5307 34.377 19.1333 34.377 19.1333L30.5576 23.2052C30.5576 23.2052 31.0882 21.4581 31.3403 20.6141C30.815 20.8647 30.283 21.1218 29.7483 21.3868L27.3789 28.696C27.9905 28.3611 28.5994 28.0328 29.2031 27.715C29.5215 26.6574 29.8292 25.6289 30.1277 24.6294C30.9688 25.0434 31.8285 25.4733 32.7068 25.9164C33.4643 25.5445 33.8888 25.3559 34.6304 25.0052L34.6397 24.9511C33.5293 24.392 32.8116 24.0202 31.7635 23.5112C33.2388 21.8761 35.3773 19.608 36.7066 18.1667ZM99.1524 25.2597C95.7565 25.2679 92.3623 25.4139 88.9783 25.6975C88.8297 29.4252 88.6864 33.1807 88.5418 36.832C89.7293 36.7376 90.9181 36.6611 92.1079 36.6026C92.1835 33.6343 92.2605 30.4762 92.3387 27.4592C95.0359 27.3142 97.737 27.2544 100.438 27.2798L100.462 30.5804C97.8749 30.5632 95.2879 30.5962 92.7168 30.7281C93.3205 31.1368 99.1604 34.9661 101.501 36.4813C102.968 36.5063 104.438 36.5551 105.905 36.6263C105.904 36.5934 105.903 36.5604 105.902 36.5274C103.782 35.156 101.985 33.8242 99.9378 32.5491C100.978 32.5517 101.639 32.5623 102.68 32.5887C103.489 32.6111 104.012 32.2379 103.999 31.6129C103.962 29.9079 103.928 28.1132 103.893 26.3911C103.879 25.7397 103.35 25.3098 102.566 25.294C101.428 25.268 100.29 25.2566 99.1524 25.2597ZM106.761 25.4575L106.87 27.4776C108.929 27.5858 110.988 27.7532 113.049 27.9642C113.272 31.0076 113.494 34.258 113.713 37.221C114.888 37.3437 116.065 37.4821 117.239 37.6377C116.991 34.6695 116.741 31.4164 116.483 28.3664C118.544 28.6327 120.603 28.9598 122.654 29.3263C122.58 28.5919 122.535 28.0183 122.461 27.2772C117.271 26.3436 112.027 25.7358 106.761 25.4575ZM83.1596 26.2078C78.6596 26.7563 74.2086 27.4723 69.7908 28.4851C68.9988 28.667 68.4668 29.2024 68.3753 29.8604L67.1017 39.1423C67.0128 39.7778 67.4493 40.0653 68.2745 39.8807C72.8785 38.8383 77.5332 38.0311 82.2203 37.4623C83.0455 37.3634 83.5974 36.9059 83.6478 36.2729C83.8866 33.2796 84.1227 30.1782 84.3655 27.1269C84.4186 26.4741 83.9489 26.1102 83.1596 26.2078ZM125.516 27.7268C125.928 31.4612 126.357 35.338 126.772 39.0697C127.969 39.3058 129.164 39.555 130.355 39.8187C129.874 36.0738 129.379 32.1812 128.896 28.4336C127.773 28.1829 126.646 27.9472 125.516 27.7268ZM80.7809 28.5075C80.5633 30.8586 80.3166 33.4866 80.1003 35.7995C76.9747 36.2347 73.8796 36.7608 70.7911 37.4083L71.7026 30.0556C74.5734 29.4582 77.7282 28.9308 80.7796 28.5075H80.7809ZM133.167 29.4608C133.765 33.2941 134.371 37.2408 134.95 40.9501C136.137 41.2363 137.312 41.5659 138.487 41.885C138.063 39.344 137.612 36.5261 137.181 33.9271C140.522 37.3265 143.988 41.1703 147.384 44.7175C148.499 45.1038 149.52 45.506 150.701 45.9609C149.958 42.2688 149.136 38.1388 148.366 34.3134C147.278 33.8915 146.19 33.4814 145.103 33.0897C145.58 35.6505 146.151 38.512 146.628 41.0147C143.272 37.4966 139.897 33.7425 136.589 30.3733C135.472 30.0621 134.298 29.7457 133.167 29.4608ZM64.004 29.8854C63.8333 29.8821 63.6631 29.9057 63.4998 29.9553C59.1763 31.1751 54.927 32.5438 50.7321 34.2277C49.9029 38.1098 49.0154 42.2226 48.1875 46.106C49.3245 45.6471 50.4694 45.2093 51.6183 44.7821L53.5393 35.1033C56.0316 34.1914 58.5522 33.3576 61.0973 32.6032C60.9049 33.7939 60.6648 35.2233 60.4737 36.414C58.0722 37.1367 55.6921 37.9278 53.3363 38.7862C54.1111 39.1555 54.8951 39.5326 55.6951 39.915C57.8696 39.1746 60.0638 38.4926 62.2753 37.8698C63.074 37.6417 63.6338 37.0944 63.7267 36.4404C63.9973 34.5679 64.3064 32.557 64.5758 30.6872C64.6461 30.1953 64.4365 29.9065 64.004 29.8854ZM45.7027 36.2413C45.5388 36.2659 45.3793 36.3138 45.2291 36.3837C41.4282 38.0531 37.7534 39.7989 34.1051 41.8455C33.3887 42.2477 32.8063 42.9531 32.6059 43.6441C32.3035 44.6792 31.9227 45.9029 31.6202 46.9407C31.461 47.4879 31.5446 47.7002 32.1244 47.5169C35.127 46.6435 38.1682 45.907 41.2385 45.3095C41.1058 45.866 40.9002 46.7627 40.7649 47.3165C38.1952 48.498 35.5976 49.8878 33.0942 51.2355C33.2772 50.5762 33.4523 50.0065 33.6341 49.3485C32.5555 49.9287 31.4544 50.5959 30.3891 51.2078C30.1012 52.2034 29.8465 53.1264 29.5573 54.1206C29.3583 54.809 29.7165 54.9698 30.4727 54.5426C34.3279 52.3787 38.3464 50.2504 42.3635 48.4861C43.1555 48.1393 43.7645 47.4971 43.9157 46.8299C44.1651 45.7486 44.4225 44.5263 44.6692 43.441C44.79 42.9268 44.6427 42.6894 44.059 42.7909C40.975 43.323 37.9166 43.9926 34.8931 44.7979C35.0271 44.31 35.3044 43.4357 35.4397 42.9478C37.7613 41.678 40.1506 40.515 42.7005 39.3532C42.5638 39.9071 42.4325 40.4609 42.2959 41.0147C43.3811 40.5189 44.4729 40.035 45.5727 39.5669L46.1723 36.927C46.2851 36.4391 46.106 36.1978 45.7027 36.2413ZM153.487 36.3323C153.063 36.3019 152.864 36.5868 152.983 37.0944C153.739 40.2789 154.509 43.8406 155.265 47.0106C155.411 47.6831 156.008 48.2132 156.79 48.5573C160.73 50.2846 164.582 52.2024 168.332 54.3039C169.288 54.8314 169.752 54.8367 169.473 53.8345C168.969 51.9396 168.306 49.4751 168.001 48.378C165.069 46.7337 163.981 46.1403 160.532 44.4194L162.336 46.9499C163.901 47.745 164.18 47.8954 165.427 48.5758C165.719 49.5054 166.037 50.6922 166.236 51.4188C163.384 49.8179 161.367 48.8527 158.489 47.4813C157.732 44.55 157.122 41.9694 156.512 39.5036C159.457 40.8565 161.367 41.8085 164.007 43.2037C164.153 43.7931 164.339 44.5197 164.339 44.5197L167.417 46.2418C167.417 46.2418 166.979 44.6924 166.714 43.7957C166.502 43.0375 166.077 42.4468 165.334 42.0446C161.46 39.9691 158.754 38.5884 153.978 36.4668C153.824 36.3935 153.657 36.348 153.487 36.3323ZM123.969 52.8482C120.334 52.9444 116.926 54.0217 113.774 56.0577C110.42 58.2335 108.653 61.5155 108.653 65.5427C108.653 69.9258 111.165 75.3757 116.128 81.7526C118.308 84.4291 120.484 87.1085 122.656 89.791L128.944 97.5433C128.949 97.5538 128.985 97.5934 128.992 97.6026L129.066 97.6923C129.358 98.0536 129.65 98.407 129.932 98.7591L130.072 98.9621C134.862 105.827 137.295 112.294 137.295 118.188C137.295 118.685 137.274 119.182 137.242 119.674L137.21 120.06C137.18 120.416 137.144 120.771 137.101 121.123L137.091 121.201C137.071 121.359 137.048 121.511 137.025 121.673C136.993 121.9 136.952 122.129 136.912 122.355C136.733 123.255 136.501 124.145 136.218 125.018C136.14 125.246 136.43 125.392 136.642 125.533C137.011 125.777 139.764 127.385 142.581 128.318C142.819 128.394 142.899 128.394 142.965 128.242C143.549 126.879 144.013 125.551 144.372 124.203C144.385 124.163 144.385 124.13 144.398 124.089C145.194 121.182 145.592 118.187 145.592 115.18C145.592 110.06 144.491 105.11 142.302 100.471C141.188 98.0813 139.601 95.4572 137.586 92.6696C137.28 92.2437 136.969 91.8217 136.653 91.4037C136.568 91.2956 136.485 91.1796 136.397 91.0688L136.153 90.7523C135.832 90.337 135.499 89.9084 135.155 89.4943C134.98 89.265 134.8 89.0386 134.617 88.8152C134.365 88.5251 134.119 88.2337 133.875 87.9384L133.352 87.3186C133.038 86.9555 132.727 86.5898 132.42 86.2215L131.098 84.655C129.213 82.4285 127.338 80.1939 125.473 77.951C120.214 71.3104 117.46 66.3338 117.292 63.1652C117.19 61.3349 117.812 59.916 119.205 58.8255C120.695 57.6559 122.198 57.1772 124.392 57.1772C125.74 57.1772 127.271 57.9236 128.286 59.0682C129.26 60.2708 129.732 61.3626 129.732 62.3951V62.548C129.739 63.5898 129.754 65.7523 127.413 67.456C127.366 67.4899 127.331 67.5369 127.312 67.591C127.292 67.6451 127.29 67.7037 127.304 67.7593C127.319 67.816 127.35 67.8672 127.394 67.9064C127.438 67.9456 127.493 67.971 127.551 67.9795C128.676 68.1206 129.846 68.1905 131.033 68.1905C135.406 68.1905 137.651 66.3391 137.708 62.6865C137.749 60.8997 137.137 58.2809 133.953 55.947C131.512 54.1589 128.372 53.009 125.542 52.8693C125.013 52.8429 124.489 52.835 123.969 52.8482ZM142.449 83.6647C140.831 83.6647 139.767 83.782 139.743 83.7833C139.686 83.7886 138.321 83.8559 136.227 84.258C135.232 84.4334 134.473 84.6128 133.524 84.8607C133.173 84.9688 133.419 85.3275 133.598 85.5411C133.906 85.905 135.789 88.2034 136.093 88.5054C136.356 88.7638 136.4 88.9801 136.903 88.9207C137.429 88.7651 137.945 88.6306 138.431 88.537C139.237 88.4041 140.05 88.317 140.867 88.2759C141.035 88.2746 141.182 88.2693 141.307 88.2667C143.947 88.1915 145.844 88.599 145.871 88.603C151.363 89.5194 151.88 94.0568 151.894 94.2335L151.907 94.3746C151.934 95.4137 152.026 97.5736 149.718 99.338C149.672 99.375 149.638 99.4242 149.619 99.4797C149.601 99.5352 149.598 99.5949 149.612 99.6518C149.638 99.7639 149.745 99.8483 149.864 99.8588C151.018 99.9788 152.18 100.021 153.34 99.9867C155.516 99.934 157.161 99.4303 158.262 98.4901C159.376 97.5367 159.92 96.1271 159.867 94.3285C159.867 94.2573 159.854 87.7551 150.421 84.7684C147.542 83.8559 144.491 83.666 142.448 83.666L142.449 83.6647ZM119.676 93.4252C118.792 94.6164 118.035 95.8953 117.417 97.2413C117.324 97.4391 117.228 97.6435 117.142 97.8439C117.093 97.9494 117.046 98.051 117.004 98.1538L116.987 98.2066C115.726 101.266 115.135 104.758 115.233 108.587C115.233 108.695 115.679 119.429 123.583 126.758C125.679 128.707 128.029 130.368 130.569 131.697C131.052 131.935 131.526 132.172 132.002 132.383C133.965 133.28 136.027 133.952 138.132 134.4C138.76 134.546 139.34 134.638 139.853 134.717C141.201 134.928 142.528 135.033 143.801 135.033C144.916 135.033 145.552 134.954 145.552 134.941C155.303 134.598 159.628 130.497 160.65 128.132C160.674 128.073 160.679 128.009 160.665 127.948C160.651 127.886 160.618 127.831 160.57 127.789C160.464 127.708 160.331 127.699 160.225 127.776C157.24 129.772 153.711 130.787 149.691 130.787C147.304 130.787 144.862 130.431 142.435 129.723C141.864 129.56 141.4 129.402 140.954 129.231C140.241 128.968 139.544 128.664 138.866 128.32C137.567 127.666 136.332 126.896 135.174 126.019C134.733 125.68 134.303 125.328 133.883 124.964C128.943 120.635 126.984 115.417 126.965 115.357C125.617 112.023 124.794 109.175 124.835 105.261C124.856 103.782 125.047 102.294 125.395 100.837C125.398 100.833 125.395 100.827 125.398 100.824C125.422 100.724 125.485 100.345 125.485 100.345C125.536 100.141 125.439 99.9946 125.314 99.8562C125.006 99.5239 120.663 94.252 120.392 93.9817C120.16 93.7522 119.996 93.3421 119.676 93.4252ZM130.444 136.299C130.321 136.326 130.219 136.418 130.077 136.616C129.603 137.249 129.095 137.882 128.571 138.515C123.55 144.383 117.102 149.393 109.394 153.402C109.262 153.468 109.206 153.613 109.25 153.758C109.291 153.877 109.402 153.956 109.528 153.956H109.573C118.239 152.571 125.809 148.985 132.093 143.275C132.121 143.249 132.146 143.222 132.197 143.183L132.279 143.09C133.139 142.299 133.912 141.547 134.617 140.796C135.068 140.374 135.712 139.583 136.596 138.488C136.694 138.356 136.6 138.238 136.479 138.211C133.514 137.671 131.4 136.629 130.95 136.431C130.715 136.326 130.568 136.273 130.444 136.299Z" fill="white"/>
<path d="M61.7445 49.2259C48.8481 52.6728 36.745 57.8366 25.7536 64.4351C24.1484 71.052 23.3152 76.7735 23.2383 82.5307C37.7612 72.8282 54.6482 65.7642 73.0145 62.1538C69.322 57.7893 65.5649 53.4804 61.7445 49.2259ZM80.6362 71.2801C59.4627 74.5978 40.1253 82.5808 24.0303 93.9844C24.5039 97.2598 25.1805 100.716 26.068 104.49C26.3466 105.67 26.6597 106.844 26.9901 108.016C44.8549 95.3175 67.0976 86.9165 91.5532 84.7157C87.9453 80.2118 84.3062 75.7341 80.6362 71.2801ZM99.5676 94.9944C73.305 96.2142 49.3668 104.707 30.5601 118.114C32.2352 122.049 34.1706 125.869 36.3536 129.549C53.7527 117.932 75.6002 110.48 99.5689 109.108V94.9944H99.5676ZM99.5676 120.451C78.0226 121.993 58.3111 128.534 42.3289 138.606C44.8309 142.007 47.498 145.286 50.3207 148.429C64.4297 140.676 81.2676 135.546 99.5676 134.056V120.451ZM99.5676 145.99C84.6427 147.44 70.7804 151.33 58.7542 157.08C62.2619 160.376 65.8094 163.396 69.2879 166.139C78.5427 162.658 88.7447 160.218 99.5676 159.058V145.99ZM99.5676 171.624C93.5532 172.353 87.6002 173.517 81.7559 175.105C89.8458 180.406 96.4619 183.808 99.5676 185.325V171.624Z" fill="#91B0D5"/>
</svg>
