<svg width="200" height="200" viewBox="0 0 200 200" fill="none" xmlns="http://www.w3.org/2000/svg">
<path d="M165.113 26.7174C164.355 26.6368 163.554 26.5504 162.681 26.4299C149.44 24.5942 142.263 19.1508 134.665 13.3883C126.392 7.11282 117.014 0 99.5224 0C82.0281 0 72.6513 7.11282 64.3783 13.3877C56.7796 19.1508 49.6014 24.5955 36.3604 26.4299C35.5508 26.5392 34.7395 26.6352 33.9268 26.718C30.9378 27.0377 23 27.8873 23 36.2828V118.512C23 139.421 29.5502 157.014 42.4695 170.803C55.1769 184.364 73.906 194.08 98.1361 199.678L99.5218 199.999L100.908 199.678C125.139 194.079 143.867 184.364 156.574 170.803C169.493 157.015 176.043 139.422 176.043 118.512V36.2834C176.043 27.8873 168.104 27.0371 165.113 26.7174Z" fill="white"/>
<path d="M99.5079 8.08008C84.704 8.08008 77.1727 13.7929 69.1989 19.8422C61.1115 25.9746 52.7493 32.3165 37.4343 34.4397C36.4711 34.5725 35.5876 34.6685 34.7503 34.7581C31.001 35.1591 31.001 35.4259 31.001 36.3103V118.556C31.001 137.35 36.8185 153.087 48.2931 165.334C59.8235 177.64 77.0526 186.538 99.5079 191.787C121.964 186.538 139.192 177.639 150.723 165.334C162.197 153.089 168.015 137.351 168.015 118.556V36.3103C168.015 35.4259 168.015 35.1591 164.264 34.7581C163.428 34.6679 162.544 34.5725 161.58 34.4397C146.265 32.3165 137.904 25.9746 129.818 19.8422C121.842 13.7929 114.311 8.08008 99.5079 8.08008Z" fill="#DD004A"/>
<path d="M122.931 14.8796V184.18C115.366 187.417 107.526 189.963 99.5066 191.788C77.0513 186.539 59.8247 177.636 48.2931 165.331C36.8198 153.084 31.001 137.35 31.001 118.553V36.3109C31.001 35.424 31.001 35.1545 34.7516 34.7543C35.5895 34.6685 36.4724 34.5699 37.4356 34.4384C52.75 32.3165 61.1141 25.9701 69.197 19.8402C77.1753 13.789 84.7021 8.08008 99.5066 8.08008C110.096 8.08008 116.962 10.9968 122.931 14.8796Z" fill="#001837"/>
<path d="M117.653 38.0342C112.417 34.1907 106.802 32.1738 101.075 32.1738H100.721C89.2354 32.1738 78.2527 40.2354 69.7775 54.8859C64.2206 64.4783 48.4869 94.8904 33.2766 124.31C32.6876 125.453 32.094 126.601 31.496 127.753C32.1209 133.783 33.5382 139.703 35.7108 145.36C53.6245 111.275 75.733 69.4125 81.4857 59.0975C87.8478 47.6918 94.1828 42.213 100.912 42.3245C107.593 42.1995 113.923 47.6918 120.284 59.0975C121.412 61.1294 122.527 63.1685 123.629 65.2144V43.4022C121.807 41.4307 119.806 39.6337 117.653 38.0342ZM43.8592 86.1526L49.1612 76.5272C43.0165 77.8263 36.9523 79.4827 30.999 81.4878V90.2785C35.1745 88.7805 39.4263 87.4664 43.7546 86.3363L43.8592 86.1526ZM39.3112 95.2713C36.503 96.1716 33.7323 97.1549 30.999 98.2215V107.169C31.7516 106.854 32.5041 106.552 33.2631 106.25L39.3112 95.2713Z" fill="#DD004A"/>
<path d="M79.0904 83.1438C80.4389 83.1047 81.7937 83.0851 83.155 83.0851C96.8192 83.0469 110.428 84.823 123.629 88.3674V79.7804C110.501 76.4432 97.0109 74.7593 83.469 74.7676L79.0904 83.1438ZM101.697 94.4708C95.8064 93.7239 89.8772 93.3289 83.9403 93.288C83.4099 93.2751 82.8866 93.2751 82.3498 93.2751C79.4308 93.2816 76.5269 93.369 73.6383 93.5374L69.1486 102.131L68.9849 102.447L41.0254 155.932C42.7937 158.743 44.7879 161.404 46.988 163.888L79.4635 101.829C80.4254 101.809 81.4008 101.796 82.3697 101.796C84.9221 101.796 87.4488 101.855 89.9678 101.98C90.0583 101.985 90.1482 101.992 90.2388 101.997L89.9877 102.466L53.6962 170.491C56.001 172.464 58.4205 174.298 60.9418 175.983L99.7131 103.386L99.997 102.855C108.002 103.829 115.908 105.492 123.629 107.827V98.9447C117.232 97.1328 110.723 95.7499 104.144 94.8053C103.326 94.6874 102.515 94.5829 101.697 94.4708Z" fill="#DD004A"/>
<path d="M164.659 31.064C163.938 30.9866 163.04 30.8919 162.092 30.7597C147.746 28.7719 139.78 22.731 132.074 16.8854C123.961 10.733 115.572 4.37109 99.5216 4.37109C83.4688 4.37109 75.0809 10.7336 66.9627 16.8918C59.2606 22.7329 51.2952 28.7725 36.9504 30.7597C35.9936 30.8932 35.0998 30.9879 34.3819 31.064C31.2253 31.4024 27.2969 31.8233 27.2969 36.3411V118.57C27.2969 138.345 33.4547 154.943 45.6003 167.905C57.7137 180.834 75.7141 190.13 99.1011 195.533L99.5146 195.629L99.5216 195.631L99.9454 195.533C123.331 190.127 141.331 180.832 153.444 167.905C165.589 154.944 171.746 138.345 171.746 118.57V36.3411C171.746 31.8226 167.817 31.4017 164.659 31.064ZM167.982 36.3411V118.57C167.982 137.352 162.169 153.08 150.702 165.317C139.182 177.611 121.962 186.506 99.5216 191.753C77.0817 186.506 59.8622 177.611 48.3408 165.317C36.8753 153.078 31.0616 137.351 31.0616 118.57V36.3411C31.0616 35.4793 31.0616 35.2195 34.7794 34.8218C35.6957 34.7238 36.5298 34.6323 37.4647 34.5027C52.7836 32.3795 61.1471 26.037 69.239 19.902C77.2057 13.8579 84.7306 8.14891 99.5216 8.14891C114.31 8.14891 121.837 13.8579 129.806 19.902C137.894 26.0363 146.256 32.3795 161.577 34.5027C162.504 34.6317 163.341 34.7232 164.261 34.8218C167.982 35.2195 167.982 35.4793 167.982 36.3411Z" fill="#001837"/>
<path d="M128.339 61.0401C128.339 50.7489 130.64 46.8184 138.501 46.8184H139.696C147.558 46.8184 149.859 50.7489 149.859 61.0401V64.0399C149.859 73.5512 147.856 77.5417 141.58 78.2018V69.0212C143.552 68.4507 143.941 67.2808 143.941 62.6606V62.4201C143.941 56.7795 142.745 55.9996 139.427 55.9996H138.74C135.453 55.9996 134.257 56.7795 134.257 62.4201V62.6606C134.257 67.2808 134.646 68.4507 136.618 69.0212V78.2018C130.341 77.5417 128.339 73.5518 128.339 64.0406V61.0401ZM128.637 80.7613H149.561V89.7621H128.638L128.637 80.7613ZM128.637 100.865H143.194V91.8344H149.56V118.897H143.193V109.866H128.637V100.865ZM128.637 131.832H137.664L149.56 119.95V130.962L143.403 136.782V137.082L149.561 142.873V152.715L137.664 140.833H128.637V131.832ZM157.367 66.169C156.524 66.169 156.137 66.8554 156.137 69.4614C156.137 71.622 156.376 72.273 157.002 72.273C157.663 72.273 157.776 71.8154 157.902 69.221C158.061 65.7345 158.609 64.3519 160.396 64.3519C162.149 64.3519 162.707 66.1458 162.707 69.1411C162.707 72.1589 161.955 73.9869 159.986 73.9869V71.9301C160.862 71.9301 161.078 71.0503 161.078 68.9122C161.078 66.8896 160.885 66.4087 160.293 66.4087C159.678 66.4087 159.564 66.8896 159.428 69.221C159.257 72.3755 159.086 74.3305 157.071 74.3305C154.941 74.3305 154.509 72.3072 154.509 69.3473C154.509 66.0665 155.067 64.1121 157.367 64.1121V66.169ZM160.875 84.6777V80.7916H154.623V78.7348H160.875V74.8481H162.593V84.6777H160.875ZM156.342 99.3159H154.623V91.086H162.593V93.1435H156.342V99.3159ZM158.619 100.151C161.26 100.151 162.707 101.66 162.707 105.18C162.707 108.69 161.25 110.21 158.619 110.21C155.978 110.21 154.509 108.69 154.509 105.18C154.509 101.66 155.966 100.151 158.619 100.151ZM158.619 108.152C160.237 108.152 160.989 107.329 160.989 105.18C160.989 103.031 160.248 102.209 158.619 102.209C156.98 102.209 156.228 103.043 156.228 105.18C156.228 107.318 156.991 108.152 158.619 108.152ZM154.509 116.323C154.509 112.802 155.841 111.294 158.619 111.294H162.593V113.351H158.619C157.503 113.351 156.228 113.66 156.228 116.323C156.228 118.986 157.514 119.294 158.619 119.294H162.593V121.352H158.619C155.852 121.352 154.509 119.833 154.509 116.323ZM154.623 124.551V122.493H162.593V124.551H154.623ZM157.367 127.644C156.524 127.644 156.137 128.33 156.137 130.936C156.137 133.096 156.376 133.748 157.002 133.748C157.663 133.748 157.776 133.29 157.902 130.696C158.061 127.209 158.609 125.826 160.396 125.826C162.149 125.826 162.707 127.621 162.707 130.616C162.707 133.633 161.955 135.462 159.986 135.462V133.405C160.862 133.405 161.078 132.525 161.078 130.387C161.078 128.364 160.885 127.884 160.293 127.884C159.678 127.884 159.564 128.364 159.428 130.696C159.257 133.851 159.086 135.805 157.071 135.805C154.941 135.805 154.509 133.782 154.509 130.822C154.509 127.541 155.067 125.587 157.367 125.587V127.644ZM89.4877 170.573C89.4877 171.526 90.2583 171.963 93.1831 171.963C95.6084 171.963 96.3397 171.693 96.3397 170.985C96.3397 170.238 95.826 170.108 92.9141 169.967C89.0004 169.787 87.4478 169.169 87.4478 167.147C87.4478 165.162 89.4621 164.532 92.8242 164.532C96.2113 164.532 98.2641 165.382 98.2641 167.611H95.9545C95.9545 166.619 94.9669 166.374 92.5673 166.374C90.2968 166.374 89.7574 166.593 89.7574 167.262C89.7574 167.958 90.2968 168.086 92.9141 168.242C96.4553 168.435 98.6488 168.627 98.6488 170.908C98.6488 173.316 96.3783 173.805 93.0547 173.805C89.3722 173.805 87.1787 173.174 87.1787 170.573H89.4877ZM105.846 164.532C109.425 164.532 111.222 165.897 111.452 168.499H109.104C108.886 167.043 107.77 166.477 105.846 166.477C103.497 166.477 102.509 167.315 102.509 169.156C102.509 171.011 103.51 171.861 105.846 171.861C107.757 171.861 108.887 171.281 109.104 169.812H111.452C111.221 172.428 109.425 173.805 105.846 173.805C101.893 173.805 100.2 172.157 100.2 169.156C100.2 166.168 101.893 164.532 105.846 164.532Z" fill="white"/>
</svg>
