<svg width="200" height="200" viewBox="0 0 200 200" fill="none" xmlns="http://www.w3.org/2000/svg">
<path d="M94.4615 4.00117L88.9699 7.99234C82.1779 8.00235 81.3776 8.01235 81.3776 8.08237C81.3776 8.12238 81.6977 9.12267 82.0878 10.293C82.488 11.4734 82.798 12.4336 82.778 12.4336C82.758 12.4336 81.9178 11.8335 80.9075 11.0933C79.8872 10.353 79.0369 9.75286 79.0169 9.75286C78.9869 9.75286 78.8569 10.083 78.7268 10.4831C78.5968 10.8832 78.0767 12.5037 77.5565 14.0741L76.6262 16.935C75.726 17.5952 73.2552 19.3757 70.5645 21.3363L65.663 24.8873C68.0537 32.5595 68.7239 34.8002 68.7039 34.8202C68.6839 34.8402 67.3935 34.9703 65.8531 35.1203C64.3026 35.2603 61.5618 35.5504 59.7613 35.7505C57.9508 35.9505 55.5501 36.2306 54.4097 36.3707C53.2794 36.5107 51.3788 36.7508 50.1985 36.9108C49.0081 37.0609 47.0876 37.3309 45.9172 37.501C44.7469 37.671 43.0764 37.9211 42.1961 38.0612C41.3259 38.2012 40.4056 38.3412 40.1655 38.3913L39.7354 38.4713C39.7054 74.5318 39.6854 84.9949 39.6654 84.9949C39.6554 84.9949 38.9852 85.125 38.185 85.275C37.3847 85.435 35.6942 85.7751 34.4239 86.0352C33.1535 86.2953 31.2529 86.7054 30.2026 86.9455C29.1523 87.1856 27.5819 87.5557 26.7016 87.7757C25.8313 87.9958 24.4409 88.3559 23.6107 88.586C22.7904 88.816 21.9002 89.0661 21.6401 89.1461C21.26 89.2662 21.18 89.3062 21.2 89.4062C21.21 89.4762 21.7802 91.5768 22.4604 94.0876C23.1506 96.5983 23.7207 98.6789 23.7307 98.7189C23.7407 98.749 22.8205 98.959 21.5301 99.2091C20.2997 99.4392 18.5392 99.7893 17.6189 99.9693C16.6887 100.149 15.4483 100.399 14.8681 100.529C14.278 100.65 13.7578 100.76 13.6978 100.78C13.5877 100.81 13.5877 101.01 13.5877 103.96V107.121C12.5474 108.212 10.947 109.902 9.36651 111.593C7.78605 113.273 5.35534 115.864 3.96493 117.344C2.57452 118.825 1.09409 120.395 0.683967 120.835C-0.0362441 121.596 -0.0662529 121.636 0.0537823 121.726C0.123803 121.776 1.05408 122.436 2.11439 123.186C3.1847 123.936 6.19558 126.067 8.80635 127.917L13.5577 131.288C13.5777 138.171 13.5978 138.991 13.6578 138.991C13.7078 138.991 14.0379 138.941 14.398 138.871C14.7581 138.801 16.0385 138.571 17.2388 138.361C18.4392 138.161 20.5198 137.81 21.8602 137.58C23.2006 137.36 25.3712 137.01 26.6716 136.8C27.982 136.6 30.0726 136.27 31.333 136.08C32.5833 135.89 34.984 135.54 36.6545 135.3C38.325 135.07 39.7254 134.88 39.7454 134.89C39.7754 134.91 39.8154 135.2 39.8454 135.53C39.8755 135.87 39.9555 136.54 40.0155 137.03C40.0855 137.51 40.2256 138.351 40.3356 138.901C40.5924 140.206 40.9129 141.498 41.2959 142.772C41.4159 143.192 41.706 144.022 41.9261 144.622C42.1561 145.223 42.5262 146.133 42.7463 146.653C42.9764 147.163 43.3765 148.023 43.6466 148.554C43.9066 149.094 44.4268 150.044 44.7969 150.684C45.157 151.314 45.8472 152.415 46.3173 153.115C46.7875 153.825 47.4277 154.735 47.7378 155.145C48.0479 155.566 48.578 156.236 48.9081 156.646C49.2482 157.066 49.8684 157.796 50.2885 158.276C50.7086 158.757 51.4488 159.557 51.919 160.067C52.3991 160.567 53.2294 161.397 53.7595 161.907C54.2897 162.428 55.0899 163.178 55.5401 163.588C56.9694 164.867 58.4406 166.098 59.9513 167.279C60.4415 167.669 61.2117 168.239 61.6618 168.569C62.112 168.9 63.0322 169.55 63.7225 170.03C64.4127 170.5 65.573 171.28 66.3132 171.76C67.0534 172.241 68.2938 173.021 69.064 173.481C69.8342 173.941 71.2547 174.761 72.2249 175.301C73.1852 175.842 74.5656 176.602 75.2858 176.982C76.0061 177.362 77.2864 178.012 78.1267 178.422C78.9669 178.832 80.1173 179.383 80.6874 179.653C81.2576 179.913 82.2779 180.383 82.9681 180.693C83.6583 181.003 84.9787 181.573 85.909 181.963C86.8292 182.343 88.3397 182.964 89.2499 183.324C90.1602 183.684 91.5806 184.224 92.4009 184.524C93.2311 184.824 94.9416 185.414 96.212 185.834C97.4823 186.265 98.8527 186.705 99.2429 186.825L99.9631 187.035C101.704 186.515 102.814 186.165 103.554 185.924C104.294 185.674 105.475 185.274 106.175 185.024C106.885 184.774 108.025 184.354 108.706 184.104C109.396 183.844 110.606 183.374 111.396 183.054C112.187 182.744 113.437 182.223 114.177 181.913C114.917 181.603 116.138 181.073 116.898 180.743C117.648 180.403 118.849 179.853 119.549 179.523C120.249 179.193 121.579 178.542 122.49 178.082C123.4 177.632 124.68 176.982 125.331 176.632C125.981 176.292 127.081 175.692 127.761 175.301C128.451 174.921 129.562 174.281 130.232 173.881C130.902 173.481 131.982 172.821 132.643 172.411C133.293 172 134.313 171.33 134.923 170.93C135.523 170.53 136.504 169.85 137.104 169.43C138.271 168.607 139.418 167.756 140.545 166.879C140.865 166.619 141.715 165.929 142.416 165.338C143.116 164.758 144.046 163.958 144.476 163.558C144.906 163.168 145.736 162.388 146.317 161.817C146.907 161.257 147.847 160.297 148.407 159.697C148.967 159.087 149.668 158.306 149.968 157.966C150.268 157.616 150.798 156.986 151.138 156.556C151.478 156.126 152.018 155.436 152.328 155.025C152.639 154.615 153.209 153.815 153.589 153.245C153.959 152.675 154.579 151.704 154.949 151.084C155.319 150.464 155.889 149.424 156.23 148.774C156.56 148.123 157.01 147.163 157.24 146.653C157.46 146.133 157.83 145.223 158.06 144.622C158.28 144.022 158.57 143.192 158.69 142.772C159.045 141.598 159.349 140.41 159.601 139.211C159.701 138.701 159.861 137.8 159.941 137.21C160.021 136.63 160.111 135.87 160.141 135.53C160.171 135.2 160.211 134.91 160.241 134.89C160.261 134.88 161.661 135.07 163.332 135.3C165.002 135.54 167.403 135.89 168.653 136.08C169.914 136.27 172.004 136.6 173.315 136.8C174.615 137.01 176.786 137.36 178.126 137.58C179.466 137.81 181.547 138.161 182.747 138.361C183.948 138.571 185.238 138.801 185.618 138.871C185.998 138.941 186.328 138.991 186.358 138.991C186.378 138.991 186.398 137.26 186.398 135.15V131.309C187.349 130.648 188.979 129.488 190.65 128.308C192.32 127.127 195.091 125.167 196.801 123.946C198.522 122.726 199.952 121.706 199.992 121.676C200.032 121.646 199.912 121.476 199.682 121.236C199.472 121.015 198.462 119.935 197.432 118.835C196.401 117.745 195.101 116.354 194.541 115.764C193.981 115.164 193.07 114.193 192.51 113.603C191.95 113.013 190.65 111.623 189.619 110.522C188.589 109.432 187.439 108.212 187.069 107.822L186.398 107.121C186.398 101.01 186.398 100.81 186.288 100.78C186.228 100.77 185.228 100.559 184.058 100.319C182.887 100.079 180.657 99.6292 179.096 99.3391C177.526 99.039 176.245 98.789 176.235 98.779C176.235 98.779 176.496 97.8187 176.816 96.6483C177.146 95.488 177.736 93.3574 178.126 91.937C178.526 90.5065 178.826 89.3262 178.796 89.2962C178.576 89.2112 178.352 89.1345 178.126 89.0661C177.776 88.9661 176.766 88.676 175.875 88.4459C174.985 88.2059 173.495 87.8257 172.564 87.5957C171.634 87.3756 170.314 87.0655 169.623 86.9055C168.943 86.7454 167.503 86.4353 166.443 86.2053C165.372 85.9852 163.572 85.6251 162.421 85.405C161.281 85.175 160.331 84.9949 160.321 84.9949C160.301 84.9949 160.281 74.5319 160.271 61.7381L160.251 38.4713C158.95 38.2512 158.12 38.1112 157.57 38.0211C157.02 37.9411 155.629 37.7311 154.479 37.561C153.329 37.391 151.328 37.1109 150.038 36.9408C148.747 36.7708 146.547 36.4907 145.136 36.3206C143.726 36.1406 141.405 35.8705 139.985 35.7205C138.554 35.5604 136.014 35.2903 134.323 35.1303C131.812 34.8902 131.262 34.8202 131.282 34.7402C131.292 34.6902 131.982 32.4595 132.813 29.7787L134.333 24.9073C129.732 21.5763 127.251 19.7858 125.861 18.7755L123.33 16.945C122.73 15.1244 122.2 13.504 121.769 12.1736C121.339 10.8432 120.969 9.75286 120.939 9.75286C120.909 9.75286 120.069 10.353 119.069 11.0933C118.058 11.8335 117.228 12.4336 117.208 12.4236C117.198 12.4136 117.428 11.6434 117.738 10.7231C118.038 9.79287 118.358 8.82259 118.448 8.56251C118.529 8.30243 118.589 8.07237 118.569 8.04236C118.559 8.02235 116.858 8.00235 114.787 8.00235L111.016 7.99234C107.585 5.50161 105.865 4.25125 104.995 3.62106C104.114 2.98087 102.634 1.91056 101.694 1.23036C101.126 0.811513 100.553 0.401345 99.9731 0C99.9631 0 97.4723 1.80053 94.4615 4.00117Z" fill="white"/>
<path d="M99.1533 4.24157C98.7332 4.54166 96.4925 6.17213 94.1718 7.86263L89.9306 10.9335C85.9794 10.9335 85.4993 10.9535 85.4993 11.0136C85.4993 11.0536 86.1595 13.1142 86.9797 15.5949C87.79 18.0656 88.4702 20.1162 88.4902 20.1562C88.5102 20.1862 88.4902 20.1962 88.4501 20.1862C88.4101 20.1662 86.6396 18.8959 84.509 17.3654C82.3884 15.825 80.6279 14.5646 80.5978 14.5546C80.5778 14.5446 80.2377 15.5049 79.8676 16.6852C79.4875 17.8756 79.1574 18.8559 79.1274 18.8759C79.1074 18.8959 76.8467 20.5163 74.1159 22.4869L69.1645 26.068C70.4749 30.2992 71.2751 32.87 71.7853 34.5104C72.3054 36.1509 72.7055 37.5013 72.6855 37.5213C72.6755 37.5313 71.2551 37.6614 69.5346 37.8014C67.8141 37.9515 65.1433 38.1915 63.6029 38.3416C62.0524 38.5016 59.6317 38.7517 58.2213 38.9117C56.8209 39.0618 54.5402 39.3319 53.1698 39.5019C51.7894 39.672 49.5387 39.972 48.1683 40.1521C46.7879 40.3421 45.0174 40.6022 44.2272 40.7223C43.437 40.8423 42.7568 40.9523 42.7167 40.9723C42.6567 40.9923 42.6367 41.6225 42.6367 43.8432C42.6367 46.3239 42.6467 46.684 42.7267 46.684C42.7868 46.684 43.577 46.574 44.4973 46.4339C45.4175 46.2939 47.148 46.0438 48.3584 45.8738C49.5587 45.7037 51.7794 45.4136 53.2898 45.2236C55.8811 44.8968 58.4753 44.5933 61.0721 44.3133C62.0524 44.2133 63.7329 44.0432 64.8132 43.9432C65.9035 43.8332 67.7941 43.6731 69.0345 43.5631L72.8756 43.253C73.7558 43.183 75.5664 43.0529 76.9068 42.9729C78.2472 42.8829 80.3678 42.7529 81.6282 42.6928C82.8785 42.6228 85.0191 42.5128 86.3695 42.4628L88.8403 42.3527C93.1515 45.4937 95.6423 47.3142 97.1627 48.4245C98.6831 49.5348 99.9635 50.4251 100.014 50.4151C100.054 50.4051 102.594 48.5846 105.645 46.3739L111.207 42.3527C115.038 42.5228 117.159 42.6228 118.389 42.6928C119.629 42.7529 121.54 42.8629 122.64 42.9329C123.74 43.0029 125.571 43.133 126.701 43.223C127.842 43.303 129.762 43.4631 130.983 43.5631C132.203 43.6631 134.244 43.8532 135.514 43.9732C136.784 44.0932 139.075 44.3333 140.605 44.5034C142.136 44.6634 144.747 44.9735 146.417 45.1836C148.078 45.3936 150.358 45.6937 151.479 45.8438C152.589 46.0038 154.329 46.2539 155.33 46.4039C156.34 46.564 157.2 46.684 157.26 46.684C157.34 46.684 157.35 46.3339 157.33 43.8232L157.32 40.9723C155.67 40.7023 153.889 40.4422 152.289 40.2221C150.688 40.002 148.368 39.692 147.137 39.5319C145.897 39.3819 143.636 39.1118 142.106 38.9417C140.575 38.7717 138.045 38.5016 136.484 38.3516C134.914 38.1915 132.223 37.9514 130.482 37.8114C128.752 37.6614 127.322 37.5413 127.312 37.5413C127.302 37.5313 127.752 36.0409 128.322 34.2204C128.882 32.3998 129.672 29.8491 130.072 28.5587C130.472 27.2683 130.813 26.178 130.833 26.138C130.843 26.088 128.872 24.6275 125.851 22.4569C123.1 20.4663 120.82 18.8058 120.8 18.7458C120.77 18.6958 120.45 17.7255 120.079 16.5952C119.719 15.4549 119.409 14.5246 119.409 14.5246C119.399 14.5146 117.639 15.785 115.508 17.3454C113.367 18.9059 111.597 20.1762 111.577 20.1762C111.567 20.1662 112.207 18.1056 113.017 15.5949C113.828 13.0842 114.488 11.0136 114.488 10.9835C114.488 10.9535 113.487 10.9335 112.257 10.9335H110.016C102.274 5.32188 99.9935 3.69141 99.9635 3.69141C99.9235 3.69141 99.5634 3.94148 99.1533 4.24157Z" fill="#B81137"/>
<path d="M96.5526 13.1643C94.682 14.5247 93.1115 15.6751 93.0615 15.7251C92.9715 15.8051 93.1216 16.2852 94.3119 19.9063L95.6523 23.9975H104.335C106.766 16.5253 106.986 15.7651 106.916 15.7051C106.876 15.6651 105.295 14.5247 103.415 13.1643C101.534 11.8039 99.9836 10.6836 99.9736 10.6836C99.9736 10.6836 98.4331 11.8039 96.5526 13.1643ZM79.3275 25.688C77.4169 27.0884 75.8465 28.2788 75.8565 28.3188C75.8565 28.3688 76.4867 30.3494 77.2569 32.7201C78.0171 35.0907 78.6473 37.0413 78.6573 37.0513C78.6573 37.0613 80.5579 36.9613 82.8785 36.8413C85.1892 36.7112 87.0998 36.6112 87.0998 36.6012C87.1098 36.6012 87.72 34.7406 88.4602 32.47C89.2004 30.1993 89.8106 28.3188 89.8106 28.2788C89.8006 28.2487 88.2301 27.0784 86.3096 25.678L82.8085 23.1472L79.3275 25.688ZM113.688 25.678C111.797 27.0784 110.247 28.2487 110.247 28.2788C110.237 28.3188 110.827 30.1993 111.557 32.47C112.277 34.7406 112.877 36.6012 112.887 36.6012C112.887 36.6112 114.798 36.7112 117.109 36.8413C119.429 36.9613 121.33 37.0613 121.34 37.0513C121.34 37.0413 121.98 35.0607 122.76 32.66C124.121 28.4688 124.181 28.2788 124.071 28.1787C124.001 28.1187 122.51 27.0284 120.74 25.748C118.969 24.4676 117.429 23.3573 117.329 23.2773L117.139 23.1372L113.688 25.678ZM95.6223 30.2193C95.6223 30.2393 95.0321 32.0699 94.3019 34.3005C93.5817 36.5212 93.0015 38.3717 93.0115 38.4017C93.0315 38.4417 94.602 39.5921 96.5025 40.9525C98.4031 42.3229 99.9936 43.4332 100.024 43.4132C100.064 43.4032 101.604 42.3029 103.465 40.9725C105.315 39.6421 106.876 38.5218 106.916 38.4817C106.986 38.4217 106.756 37.6515 105.665 34.2905L104.335 30.1893C97.5829 30.1893 95.6223 30.1993 95.6223 30.2193Z" fill="white"/>
<path d="M85.4995 45.3434C84.5192 45.3934 82.6386 45.4834 81.3083 45.5635C79.9879 45.6335 77.6872 45.7735 76.1867 45.8736C74.6963 45.9836 72.7357 46.1236 71.8455 46.1836C70.9552 46.2537 69.3948 46.3837 68.3745 46.4737C67.3642 46.5537 65.5236 46.7238 64.2833 46.8438C63.0529 46.9639 61.3624 47.1339 60.5422 47.2239C59.7119 47.304 58.2915 47.464 57.3812 47.564C56.471 47.6641 54.3904 47.9141 52.7599 48.1242C51.1294 48.3243 48.5086 48.6744 46.9482 48.9044C45.3877 49.1245 43.7873 49.3646 43.3871 49.4246L42.6669 49.5246C42.6369 82.5143 42.6469 84.4949 42.7269 84.4949C42.787 84.4949 43.4972 84.3848 44.3074 84.2448C45.1277 84.1148 46.438 83.9047 47.2283 83.7747C48.0185 83.6546 48.7287 83.5446 48.8087 83.5246L48.9488 83.4946C48.9488 61.3581 48.9588 54.9362 48.9788 54.9362C48.9988 54.9362 49.849 54.8262 50.8693 54.6861C51.8896 54.5561 53.6401 54.326 54.7605 54.186C55.8708 54.0559 58.1014 53.7959 59.6919 53.6258C61.2924 53.4558 63.9232 53.1857 65.5336 53.0357C68.4144 52.7481 71.2989 52.498 74.1862 52.2854C76.8416 52.0887 79.4993 51.922 82.1585 51.7853C83.1888 51.7253 84.9593 51.6452 86.0897 51.5952C87.23 51.5452 89.4006 51.4752 90.9311 51.4352C92.4615 51.3952 94.232 51.3452 94.8622 51.3251L96.0126 51.2751C88.0402 45.4234 87.8302 45.2834 87.5601 45.2734C87.41 45.2634 86.4798 45.3034 85.4995 45.3434ZM112.117 45.3334C112.067 45.3834 111.117 46.0836 110.017 46.8838C108.926 47.6841 107.576 48.6644 107.026 49.0645C106.476 49.4546 105.565 50.1248 105.005 50.5349C104.445 50.945 103.995 51.2851 104.005 51.2951C104.015 51.2951 105.355 51.3352 106.996 51.3752C108.626 51.4052 111.057 51.4752 112.397 51.5252C113.738 51.5852 115.938 51.6853 117.299 51.7453C118.659 51.8153 120.22 51.9053 120.77 51.9353C121.32 51.9753 122.79 52.0754 124.051 52.1554C127.354 52.3931 130.655 52.6632 133.954 52.9656C135.224 53.0957 137.715 53.3457 139.485 53.5358C141.246 53.7259 144.047 54.0459 145.697 54.246C147.348 54.4561 149.208 54.6861 149.838 54.7762C150.469 54.8662 151.009 54.9362 151.039 54.9362C151.079 54.9362 151.099 59.7376 151.099 69.2304V83.5246C152.629 83.7547 153.99 83.9747 155.12 84.1548C156.24 84.3448 157.2 84.4949 157.261 84.4949C157.341 84.4949 157.351 82.5243 157.331 67.0197L157.321 49.5346C155.58 49.2645 154.3 49.0745 153.349 48.9344C152.409 48.8044 150.999 48.6044 150.228 48.5043C147.421 48.1375 144.61 47.7941 141.796 47.474C140.706 47.354 138.715 47.1339 137.355 47.0039C135.994 46.8638 134.224 46.6938 133.424 46.6238C132.613 46.5537 131.823 46.4837 131.673 46.4737C131.513 46.4537 130.153 46.3437 128.642 46.2237C127.132 46.1036 125.471 45.9736 124.951 45.9436C124.441 45.9036 123.361 45.8335 122.55 45.7835C121.74 45.7335 120.59 45.6635 119.99 45.6235C119.389 45.5935 118.079 45.5234 117.079 45.4734C116.088 45.4234 114.848 45.3634 114.328 45.3434C113.818 45.3234 113.128 45.2934 112.797 45.2734C112.327 45.2434 112.187 45.2534 112.117 45.3334Z" fill="#B81137"/>
<path d="M95.8121 54.5964C95.0719 54.6064 93.3814 54.6464 92.061 54.6864C90.7306 54.7264 88.54 54.7965 87.1896 54.8465C85.8292 54.8965 83.8886 54.9765 82.8783 55.0265C81.858 55.0866 80.3376 55.1666 79.4973 55.2166C78.6571 55.2666 76.7765 55.3966 75.3161 55.4967C73.8557 55.6067 71.365 55.7968 69.7845 55.9368C68.204 56.0768 65.6433 56.3169 64.1028 56.467C62.5524 56.617 60.1817 56.8671 58.8213 57.0271C57.4609 57.1872 55.5603 57.4072 54.6 57.5273C53.6398 57.6473 52.7495 57.7573 52.6195 57.7773L52.3794 57.8074C52.3794 74.5723 52.4094 79.4437 52.4294 79.4637C52.4594 79.4737 53.6898 77.7732 55.1602 75.6726C56.6406 73.572 57.881 71.8215 57.921 71.7815C57.961 71.7214 58.7713 71.6114 60.2617 71.4413C61.5121 71.3013 63.0825 71.1313 63.7527 71.0612C64.4229 70.9912 65.7033 70.8612 66.5936 70.7812C67.4938 70.6911 69.2443 70.5411 70.5047 70.4411C71.7551 70.341 73.7357 70.181 74.906 70.091C76.0763 70.0109 78.0269 69.8809 79.2473 69.8109C80.4676 69.7409 82.3382 69.6408 83.4085 69.5908C84.4688 69.5408 86.4294 69.4608 87.7498 69.4008C89.0702 69.3507 90.2205 69.3107 90.2905 69.3107H90.4305V80.0239H109.556V69.3107C109.816 69.3107 110.967 69.3507 112.267 69.4008C113.577 69.4608 115.518 69.5408 116.578 69.5908C117.649 69.6408 119.529 69.7409 120.769 69.8109C122 69.8809 124.14 70.0209 125.521 70.121C126.891 70.231 128.862 70.381 129.892 70.4711C130.922 70.5511 132.653 70.7111 133.733 70.8112C134.814 70.9212 136.864 71.1313 138.295 71.2813C139.715 71.4414 141.135 71.5914 141.446 71.6314L142.006 71.7014C146.077 77.5031 147.317 79.2636 147.397 79.3637L147.537 79.5237V57.8074C147.177 57.7573 146.287 57.6473 145.327 57.5273C144.356 57.4072 142.486 57.1872 141.165 57.0371C139.845 56.8771 137.484 56.627 135.924 56.467C134.353 56.3169 131.783 56.0768 130.202 55.9368C128.622 55.7968 125.921 55.5867 124.2 55.4667C122.49 55.3466 120.339 55.2066 119.429 55.1566C118.509 55.1066 117.188 55.0365 116.488 54.9965C115.788 54.9665 114.488 54.9065 113.617 54.8765C112.737 54.8365 110.696 54.7665 109.086 54.7164C107.466 54.6664 104.125 54.6164 101.654 54.6064C99.1731 54.5864 96.5423 54.5864 95.8121 54.5964Z" fill="#455560"/>
<path d="M66.8834 73.6022C66.4133 73.6422 64.9929 73.7823 63.7225 73.9023C62.4521 74.0223 61.3418 74.1424 61.2418 74.1724C61.1217 74.2024 60.2915 75.2327 57.8308 78.4336C56.0403 80.7543 54.5998 82.6749 54.6198 82.7049C54.6498 82.7349 55.5901 82.6449 56.7305 82.5048C57.8608 82.3648 59.2912 82.1947 59.9114 82.1247C62.1867 81.8808 64.4641 81.6574 66.7434 81.4545L68.0638 81.3445V73.5022C67.8037 73.5122 67.3436 73.5522 66.8834 73.6022ZM131.983 77.4033V81.3145C132.203 81.3545 132.773 81.4145 133.393 81.4645C134.003 81.5245 135.524 81.6646 136.764 81.7846C138.004 81.9047 139.865 82.0947 140.915 82.2147C141.965 82.3348 143.386 82.5048 144.076 82.5949C144.756 82.6749 145.346 82.7249 145.366 82.7049C145.386 82.6749 143.976 80.7843 142.226 78.4937C140.465 76.213 138.995 74.3024 138.945 74.2524C138.875 74.1724 138.134 74.0824 135.774 73.8623C134.083 73.7022 132.543 73.5522 132.343 73.5322L131.993 73.4922L131.983 77.4033Z" fill="#B0B7BB"/>
<path d="M93.6213 82.9743C93.1912 82.9843 91.6308 83.0243 90.1503 83.0543C88.6799 83.0943 86.4392 83.1644 85.1889 83.2144C83.9285 83.2644 82.0479 83.3544 80.9976 83.4044C79.9473 83.4544 78.0067 83.5645 76.6864 83.6545C75.366 83.7445 73.6955 83.8546 72.9753 83.9046C72.2451 83.9546 70.8046 84.0746 69.7543 84.1546C68.704 84.2447 66.8035 84.4147 65.5331 84.5348C64.2627 84.6548 62.3422 84.8449 61.2518 84.9649C60.1715 85.0849 58.461 85.285 57.4407 85.405C56.4304 85.525 54.6499 85.7551 53.4796 85.9052C52.3092 86.0652 50.3987 86.3353 49.2283 86.5053C48.058 86.6754 45.6173 87.0655 43.7967 87.3756C41.9762 87.6757 39.5255 88.1158 38.3551 88.3359C37.1848 88.5559 35.4843 88.896 34.574 89.0861C33.6637 89.2661 32.1533 89.5962 31.203 89.8063C30.2628 90.0264 28.8623 90.3465 28.1121 90.5365C27.3519 90.7266 26.3116 90.9866 25.8014 91.1267C25.2813 91.2667 24.8512 91.3868 24.8512 91.3968C24.8412 91.3968 25.6514 94.4077 26.6517 98.0887L28.4622 104.781C25.6914 117.274 24.8812 120.965 24.8612 121.045C24.8412 121.125 24.8612 121.186 24.9112 121.186C24.9512 121.186 25.2413 121.105 25.5514 121.025C25.8615 120.935 27.0118 120.635 28.1121 120.365C29.2124 120.095 30.6329 119.765 31.263 119.615C31.9032 119.475 33.1636 119.205 34.0739 119.015C34.9841 118.835 36.8347 118.465 38.1651 118.215C39.5055 117.965 42.0262 117.514 43.7667 117.224C45.4972 116.924 47.6779 116.574 48.6081 116.434C49.5284 116.304 51.659 116.004 53.3195 115.784C54.99 115.554 57.2107 115.274 58.261 115.154C59.3013 115.034 61.1018 114.834 62.2521 114.714C63.4025 114.594 65.263 114.414 66.3833 114.313C67.4937 114.203 69.0941 114.063 69.9444 114.003C70.7846 113.933 72.4251 113.803 73.5955 113.713C74.7658 113.633 76.4263 113.513 77.2865 113.463C78.1368 113.413 79.6872 113.333 80.7175 113.273C81.7479 113.223 83.6084 113.143 84.8388 113.093C86.0791 113.043 88.1997 112.963 89.5601 112.923C91.1506 112.863 94.8317 112.843 99.9632 112.843C105.015 112.843 108.806 112.873 110.396 112.923C111.767 112.963 113.587 113.023 114.427 113.063C115.268 113.093 116.858 113.163 117.958 113.213C119.059 113.273 120.929 113.363 122.11 113.433C123.3 113.503 125.221 113.633 126.391 113.713C127.561 113.803 129.202 113.933 130.042 113.993C130.892 114.063 132.493 114.203 133.603 114.313C134.723 114.414 136.584 114.594 137.734 114.714C138.885 114.834 140.685 115.034 141.725 115.154C142.776 115.274 144.996 115.554 146.667 115.784C148.327 116.004 150.458 116.304 151.378 116.434C152.309 116.574 154.489 116.924 156.22 117.224C157.96 117.514 160.121 117.895 161.031 118.065C161.941 118.235 163.552 118.545 164.592 118.755C165.642 118.965 167.263 119.295 168.193 119.505C169.113 119.705 170.634 120.055 171.564 120.285C172.494 120.505 173.665 120.805 174.175 120.945C174.675 121.095 175.115 121.196 175.135 121.165C175.165 121.135 175.065 120.585 174.915 119.945C174.775 119.305 173.945 115.624 173.085 111.773L171.524 104.781C173.465 97.7086 174.295 94.6977 174.615 93.5274L175.195 91.4068C174.805 91.2767 173.745 91.0067 172.594 90.7166C171.444 90.4265 169.814 90.0364 168.973 89.8463C168.133 89.6563 166.623 89.3262 165.632 89.1261C164.632 88.916 162.862 88.5659 161.691 88.3459C160.521 88.1158 158.06 87.6857 156.22 87.3756C154.389 87.0655 151.928 86.6754 150.758 86.5053C149.588 86.3353 147.677 86.0652 146.507 85.9052C145.336 85.7551 143.796 85.5551 143.076 85.465C142.356 85.385 140.905 85.215 139.855 85.0949C138.805 84.9749 137.384 84.8148 136.704 84.7548C136.014 84.6848 134.533 84.5348 133.423 84.4347C132.303 84.3347 130.702 84.1947 129.862 84.1246C129.012 84.0546 127.311 83.9246 126.081 83.8446C124.84 83.7545 122.9 83.6345 121.77 83.5645C120.629 83.4945 118.809 83.3944 117.708 83.3444C116.608 83.2944 114.918 83.2244 113.957 83.1844C112.997 83.1444 111.277 83.0943 110.146 83.0543C109.016 83.0143 105.005 82.9843 101.244 82.9743C97.4825 82.9643 94.0515 82.9643 93.6213 82.9743Z" fill="#B81137"/>
<path d="M93.9918 89.6549C93.8018 89.6949 93.4417 89.845 93.1816 89.975C92.9215 90.105 92.5514 90.3651 92.3514 90.5552C92.1513 90.7452 91.8712 91.0653 91.7412 91.2754C91.6011 91.4854 91.4211 91.8756 91.3211 92.1556L91.151 92.6558V101.528C91.4211 102.299 91.6011 102.699 91.7412 102.899C91.8712 103.109 92.1513 103.429 92.3514 103.619C92.5514 103.809 92.9115 104.069 93.1516 104.189C93.3917 104.319 93.7718 104.479 93.9918 104.539C94.372 104.639 94.7621 104.649 99.0833 104.649C103.445 104.649 103.805 104.639 104.175 104.539C104.405 104.469 104.785 104.319 105.025 104.189C105.305 104.049 105.625 103.809 105.895 103.529C106.175 103.249 106.425 102.929 106.566 102.649C106.696 102.409 106.836 102.049 106.896 101.838C106.976 101.518 106.986 100.858 106.986 97.0871C106.986 93.446 106.976 92.6558 106.896 92.3657C106.846 92.1856 106.706 91.8155 106.576 91.5555C106.415 91.2254 106.215 90.9553 105.905 90.6452C105.585 90.3351 105.325 90.135 104.995 89.975C104.721 89.846 104.436 89.7389 104.145 89.6549C103.825 89.5749 103.085 89.5549 99.0533 89.5649C95.3122 89.5649 94.2719 89.5849 93.9918 89.6549ZM109.786 89.7549C109.796 89.7849 110.057 90.075 110.367 90.4051L110.927 90.9953V103.589C110.027 104.479 109.786 104.749 109.806 104.769C109.816 104.779 110.877 104.819 112.147 104.859C113.418 104.899 114.638 104.929 114.868 104.929H115.268L113.998 103.649C113.988 96.2668 114.008 94.1062 114.038 94.0962C114.058 94.0762 115.998 96.5569 118.349 99.6078C120.69 102.659 122.64 105.199 122.69 105.249C122.75 105.34 123.12 105.38 125.051 105.49C126.301 105.56 127.462 105.63 127.622 105.65C127.792 105.67 127.922 105.66 127.922 105.64C127.922 105.61 127.672 105.309 127.362 104.979L126.801 104.369V91.8055C127.722 90.9153 127.982 90.6452 127.972 90.6452C127.962 90.6352 126.771 90.5552 125.331 90.4651C123.891 90.3751 122.66 90.3051 122.61 90.3151C122.56 90.3351 122.74 90.5552 123.1 90.9353L123.671 91.5255C123.671 98.9576 123.651 101.128 123.631 101.148C123.601 101.168 121.63 98.6375 119.249 95.5266L114.928 89.865C114.568 89.875 113.598 89.845 112.547 89.8049C111.507 89.7749 110.447 89.7349 110.207 89.7249C109.967 89.7149 109.776 89.7349 109.786 89.7549ZM76.4667 90.4051C73.0657 90.6252 70.2749 90.8152 70.2649 90.8352C70.2649 90.8553 70.505 91.1053 70.8151 91.3854L71.3752 91.9056V104.589C70.505 105.53 70.2849 105.81 70.3349 105.81C70.3749 105.81 71.5753 105.72 73.0057 105.61C74.4261 105.5 75.6065 105.4 75.6265 105.39C75.6465 105.37 75.3964 105.119 75.0763 104.819L74.4961 104.279L74.5061 100.928C75.1063 100.888 77.1269 100.768 79.3876 100.648C83.1087 100.448 83.5188 100.438 83.7188 100.528C83.8389 100.578 83.9889 100.708 84.0589 100.818C84.179 101.008 84.189 101.138 84.189 102.399V103.779C82.9886 104.969 82.9286 105.059 83.0586 105.059C83.1487 105.059 84.319 104.999 85.6594 104.929C86.9898 104.869 88.1901 104.809 88.3102 104.809H88.5302L87.2499 103.619C87.2499 101.128 87.2299 100.768 87.1498 100.498C87.0898 100.308 86.9798 100.038 86.8998 99.8979C86.8197 99.7679 86.6097 99.5078 86.4296 99.3377C86.2396 99.1577 85.9695 98.9676 85.8294 98.8976C85.6794 98.8276 85.5594 98.7576 85.5594 98.7476C85.5594 98.7276 85.6894 98.6275 85.8595 98.5175C86.0195 98.4075 86.2696 98.1974 86.3996 98.0374C86.5397 97.8773 86.7397 97.5972 86.8498 97.4172C86.9698 97.2371 87.0998 96.917 87.1498 96.717C87.2299 96.4169 87.2499 95.9768 87.2499 94.6864C87.2499 93.406 87.2199 92.9359 87.1498 92.6158C87.0998 92.3957 86.9598 92.0456 86.8498 91.8355C86.7397 91.6355 86.4596 91.2654 86.2196 91.0153C85.9795 90.7752 85.6394 90.5052 85.4693 90.4151C85.2993 90.3251 84.9592 90.1951 84.7191 90.125C84.359 90.015 84.139 89.995 83.4688 90.005C83.0186 90.005 79.8677 90.1851 76.4667 90.4051ZM130.673 92.8959C130.673 94.4863 130.693 94.9365 130.753 94.9264C130.793 94.9264 131.073 94.7064 131.373 94.4263L131.923 93.9362L137.014 94.4663L137.044 105.279C135.924 106.32 135.894 106.36 136.044 106.39C136.134 106.41 137.265 106.54 138.575 106.68C139.885 106.82 141.026 106.95 141.116 106.97C141.216 106.98 141.296 106.97 141.296 106.93C141.296 106.9 141.036 106.59 140.726 106.24L140.165 105.62C140.165 95.0965 140.175 94.8064 140.275 94.8364C140.335 94.8464 141.486 94.9665 142.826 95.0965L145.257 95.3266C145.697 95.7767 145.987 96.0868 146.177 96.3069L146.537 96.717C146.537 93.496 146.517 92.5558 146.497 92.5558C146.467 92.5558 143.926 92.2857 140.856 91.9656C137.775 91.6355 134.354 91.2754 133.233 91.1553C132.113 91.0353 131.083 90.9153 130.943 90.8953L130.683 90.8653L130.673 92.8959ZM59.6318 91.8355C57.3111 92.0856 55.2005 92.3457 54.9504 92.4057C54.6903 92.4657 54.2902 92.6058 54.0701 92.7258C53.8501 92.8358 53.53 93.0359 53.3599 93.1659C53.1899 93.296 52.8898 93.5861 52.6997 93.8161C52.5097 94.0362 52.2496 94.4263 52.1196 94.6864C51.9995 94.9465 51.8395 95.3366 51.7795 95.5566C51.6794 95.9367 51.6694 96.2968 51.6694 100.278C51.6694 104.289 51.6694 104.619 51.7795 104.959C51.8395 105.169 51.9995 105.53 52.1196 105.77C52.2796 106.06 52.4797 106.32 52.7297 106.54C52.9298 106.73 53.2699 106.96 53.48 107.06C53.68 107.16 53.9801 107.27 54.1302 107.3C54.2902 107.34 54.5903 107.37 54.8104 107.37C55.0204 107.37 57.161 107.16 59.5517 106.9C61.9524 106.64 64.0831 106.39 64.2831 106.34C64.8615 106.16 65.4034 105.879 65.8836 105.51C66.0437 105.38 66.3137 105.109 66.4938 104.899C66.6738 104.699 66.9139 104.329 67.0339 104.089C67.154 103.849 67.314 103.429 67.384 103.149C67.5041 102.679 67.5041 102.449 67.5041 98.4675C67.5041 94.9064 67.4841 94.2162 67.404 93.8661C67.354 93.6461 67.214 93.276 67.094 93.0559C66.9739 92.8258 66.7339 92.5057 66.5238 92.3057C66.3237 92.1056 65.9836 91.8656 65.7736 91.7555C65.5535 91.6455 65.2034 91.5155 64.9933 91.4654C64.7733 91.4154 64.4332 91.3754 64.2231 91.3754C64.0131 91.3854 61.9525 91.5855 59.6318 91.8355Z" fill="white"/>
<path d="M127.731 98.239V104.031L128.551 104.841L128.541 93.7476L129.832 92.5673C129.202 92.5173 128.721 92.4873 128.371 92.4773L127.721 92.4473L127.731 98.239Z" fill="#B0B7BB"/>
<path d="M94.6813 92.6081C94.5613 92.6681 94.4112 92.8081 94.3512 92.9382C94.2512 93.1382 94.2412 93.4383 94.2612 97.1594C94.2712 101.131 94.2812 101.181 94.4112 101.351C94.4812 101.451 94.6013 101.561 94.6913 101.601C94.8013 101.661 95.8416 101.681 99.0826 101.681C102.334 101.681 103.374 101.661 103.494 101.601C103.574 101.561 103.704 101.431 103.784 101.311L103.934 101.091C103.924 93.2083 103.924 93.0882 103.804 92.8882C103.718 92.7605 103.601 92.6571 103.464 92.5881C103.274 92.508 102.644 92.498 99.0726 92.498C95.2214 92.498 94.8813 92.5081 94.6813 92.6081ZM79.2168 93.1282C76.9861 93.2583 75.0055 93.3683 74.8255 93.3683H74.5054V98.0297C74.9655 97.9997 76.8961 97.8996 79.0967 97.7796C81.2974 97.6596 83.2179 97.5495 83.378 97.5295C83.528 97.5095 83.7181 97.4495 83.7981 97.3995C83.8681 97.3495 83.9882 97.2194 84.0582 97.1094C84.1782 96.9193 84.1882 96.7893 84.1882 95.1888C84.1882 93.5784 84.1782 93.4483 84.0582 93.2583C83.9721 93.1335 83.8548 93.0335 83.7181 92.9682C83.598 92.9182 83.448 92.8782 83.388 92.8782C83.328 92.8882 81.4474 92.9982 79.2168 93.1282Z" fill="#B81137"/>
<path d="M108.025 97.1985C108.025 101.14 108.015 101.57 107.915 101.96C107.845 102.21 107.675 102.66 107.525 102.96C107.359 103.28 107.165 103.585 106.945 103.87C106.785 104.06 106.485 104.361 106.285 104.531C106.085 104.701 105.734 104.941 105.504 105.071C105.274 105.201 104.834 105.381 104.524 105.471L103.964 105.651C96.1016 105.651 94.5011 105.671 94.5111 105.711C94.5212 105.751 94.7712 105.901 95.0613 106.041C95.3514 106.191 95.7315 106.341 95.9016 106.371C96.1016 106.411 97.7621 106.431 100.653 106.421L105.084 106.401C105.714 106.171 106.065 106.021 106.275 105.921C106.475 105.811 106.815 105.601 107.015 105.441C107.225 105.281 107.545 104.971 107.725 104.751C107.905 104.521 108.165 104.11 108.305 103.84C108.445 103.56 108.605 103.17 108.655 102.96C108.755 102.63 108.765 102.15 108.785 98.5589L108.805 94.5277C108.565 93.7474 108.405 93.3773 108.305 93.1973C108.195 93.0172 108.095 92.8672 108.065 92.8672C108.045 92.8672 108.025 94.8178 108.025 97.1985ZM88.2393 94.5277C88.2493 95.4179 88.2193 96.3382 88.1793 96.5583C88.1493 96.7783 88.0393 97.1585 87.9492 97.3985C87.8592 97.6386 87.6591 98.0187 87.5191 98.2288L87.249 98.6189C87.5091 98.969 87.6291 99.059 87.6691 99.059C87.7092 99.059 87.9192 98.899 88.1293 98.6989C88.4094 98.4288 88.5794 98.2088 88.7695 97.8086L89.0295 97.2885C89.0596 94.7678 89.0496 94.6077 88.9295 94.2176C88.8595 93.9775 88.7295 93.6474 88.6394 93.4974C88.5494 93.3373 88.4194 93.1473 88.3593 93.0572C88.2393 92.9072 88.2393 92.9272 88.2393 94.5277Z" fill="#B0B7BB"/>
<path d="M40.9856 94.6079L33.1133 96.0183C33.1333 99.1993 33.1533 100.12 33.1733 100.12C33.1933 100.12 33.4634 99.8094 33.7835 99.4393L34.3536 98.7491C35.474 98.5491 36.6343 98.349 37.6546 98.169L39.5152 97.8389V108.622C38.5749 109.722 38.4048 109.972 38.4548 109.982C38.5049 110.002 39.6952 109.802 41.1056 109.552C42.516 109.312 43.6864 109.082 43.7164 109.062C43.7464 109.042 43.5163 108.812 43.2062 108.542L42.6361 108.062V97.2787C43.8264 97.0586 44.9768 96.8486 45.9671 96.6685L47.7676 96.3384C48.6778 97.0886 48.9579 97.3087 48.9779 97.3087C48.9979 97.3087 49.0079 96.3784 49.0079 95.2481C49.0079 93.6376 48.9879 93.1875 48.9279 93.1875C48.8879 93.1975 45.3169 93.8277 40.9856 94.6079Z" fill="white"/>
<path d="M95.8119 93.4775C95.7518 93.4975 95.6518 93.5675 95.5618 93.6476C95.4818 93.7176 95.3817 93.8576 95.3317 93.9476C95.2617 94.0877 95.2417 94.7079 95.2417 97.3987V100.68H96.0519C96.0619 95.018 96.0619 94.8979 96.182 94.6979C96.252 94.5878 96.402 94.4578 96.5221 94.3978C96.7121 94.3278 97.2223 94.3078 99.833 94.3078H102.934V93.4375C97.4824 93.4375 95.8619 93.4575 95.8119 93.4775Z" fill="#B0B7BB"/>
<path d="M151.729 93.4975C151.569 93.5275 151.289 93.6075 151.099 93.6776C150.908 93.7476 150.618 93.9076 150.438 94.0377C150.258 94.1677 150.008 94.4078 149.888 94.5578C149.758 94.7179 149.578 94.9779 149.498 95.138C149.418 95.298 149.308 95.5981 149.258 95.7882C149.178 96.0983 149.168 96.8085 149.168 100.37C149.168 103.881 149.178 104.651 149.258 104.981C149.409 105.558 149.663 106.104 150.008 106.591C150.148 106.791 150.448 107.132 150.668 107.342C150.888 107.552 151.239 107.812 151.449 107.942C151.649 108.062 151.979 108.222 152.159 108.302C152.419 108.412 153.729 108.662 157.01 109.222C159.781 109.702 161.672 109.992 161.942 109.992C162.182 109.992 162.542 109.952 162.742 109.902C162.932 109.852 163.232 109.742 163.392 109.672C163.562 109.592 163.872 109.352 164.102 109.122C164.342 108.882 164.582 108.572 164.683 108.372C164.773 108.182 164.883 107.862 164.943 107.652C165.023 107.332 165.033 106.651 165.033 103.09C165.033 99.6393 165.013 98.8291 164.943 98.469C164.893 98.2289 164.743 97.7988 164.602 97.5287C164.472 97.2486 164.232 96.8485 164.072 96.6384C163.862 96.3677 163.624 96.1196 163.362 95.8982C163.132 95.7082 162.762 95.4581 162.532 95.3381C162.312 95.228 161.902 95.068 161.632 94.998C161.352 94.9279 159.201 94.5478 156.83 94.1577C154.47 93.7576 152.419 93.4375 152.269 93.4375C152.129 93.4475 151.879 93.4675 151.729 93.4975Z" fill="white"/>
<path d="M79.2174 94.1576C77.3268 94.2676 75.7163 94.3676 75.6463 94.3676H75.5063V96.9984C75.7163 96.9484 75.9064 96.9384 76.0464 96.9384H76.3165V95.1178C77.0167 95.0678 78.4171 94.9878 79.8775 94.8978C81.338 94.8178 82.6784 94.7277 82.8584 94.7177L83.1885 94.6877V93.9375C82.7784 93.9475 81.1079 94.0475 79.2174 94.1576ZM68.4842 98.4788L68.4642 102.9C68.2041 103.75 68.0341 104.191 67.914 104.421C67.794 104.651 67.6039 104.981 67.4739 105.151C67.3539 105.321 67.0738 105.641 66.8637 105.861C66.6537 106.081 66.3036 106.371 66.0935 106.511C65.8934 106.661 65.5734 106.851 65.3833 106.941C65.1932 107.031 64.8431 107.161 64.6031 107.231C64.363 107.301 63.9529 107.391 63.6928 107.431C63.4327 107.461 61.4922 107.682 59.3815 107.902C57.2709 108.122 55.4204 108.322 55.2703 108.342C55.1303 108.352 55.0103 108.402 55.0103 108.432C55.0103 108.472 55.1403 108.562 55.3003 108.642C55.7574 108.869 56.2604 108.989 56.7708 108.992C57.0008 108.992 58.8914 108.802 60.962 108.552C63.0326 108.312 64.9132 108.072 65.1432 108.022C65.3733 107.972 65.7334 107.862 65.9235 107.782C66.1235 107.702 66.3936 107.571 66.5336 107.491C66.6737 107.411 66.9438 107.231 67.1338 107.081C67.3139 106.941 67.634 106.651 67.824 106.451C68.0141 106.251 68.2841 105.931 68.4042 105.741C68.5342 105.561 68.7243 105.231 68.8243 105.011C68.9243 104.801 69.0644 104.421 69.1444 104.17C69.2744 103.73 69.2744 103.62 69.3044 99.8692C69.3244 96.5883 69.3144 95.9581 69.2244 95.558C69.1744 95.2979 69.0244 94.8778 68.8943 94.6277C68.7643 94.3776 68.6242 94.1476 68.5842 94.1175C68.5242 94.0675 68.5042 94.9578 68.4842 98.4788Z" fill="#B0B7BB"/>
<path d="M59.6317 94.7769C57.7211 94.987 55.9706 95.187 55.7405 95.207C55.4004 95.2371 55.2804 95.2771 55.1204 95.4271C54.9903 95.5371 54.8903 95.7072 54.8403 95.8872C54.7803 96.1073 54.7603 97.1276 54.7603 99.9484C54.7603 102.059 54.7803 103.81 54.8203 103.93C54.8503 104.05 54.9503 104.2 55.0403 104.26C55.1204 104.32 55.2904 104.37 55.4004 104.37C55.5105 104.37 57.411 104.17 59.6317 103.93C61.8523 103.69 63.7429 103.459 63.8429 103.419C63.9429 103.369 64.103 103.249 64.203 103.139L64.3831 102.929V94.7469C64.013 94.3868 63.973 94.3668 63.5528 94.3768C63.3028 94.3768 61.5422 94.5569 59.6317 94.7769Z" fill="#B81137"/>
<path d="M147.537 96.1885V97.869C148.097 98.4892 148.277 98.6793 148.307 98.6793C148.327 98.6793 148.357 97.759 148.357 96.6387V94.5881C147.897 94.518 147.707 94.498 147.647 94.498C147.547 94.498 147.537 94.6181 147.537 96.1885ZM50.2886 94.7581L49.9785 94.8181L50.0085 98.2191C50.5687 98.6693 50.7487 98.7893 50.7787 98.7593C50.7988 98.7393 50.8288 97.809 50.8188 96.6987C50.8188 94.8181 50.8188 94.6881 50.7087 94.6881C50.6487 94.6981 50.4587 94.7281 50.2886 94.7581ZM132.483 95.9485C132.483 96.4786 132.503 96.9188 132.523 96.9488C132.553 96.9688 132.833 96.7587 133.143 96.4786L133.703 95.9585C135.304 96.1285 135.824 96.1785 135.904 96.1785C136.034 96.1885 136.044 96.1585 136.044 95.7784C136.044 95.4083 136.034 95.3683 135.904 95.3483C135.824 95.3283 135.083 95.2483 134.263 95.1582C133.443 95.0682 132.703 94.9982 132.623 94.9982C132.483 94.9982 132.483 95.0082 132.483 95.9485ZM59.7614 95.7584C57.4207 96.0185 56.4104 96.1585 56.2604 96.2386C56.1503 96.2886 55.9903 96.4286 55.9203 96.5286C55.7902 96.7087 55.7902 96.7787 55.7702 100.06L55.7502 103.401C56.2203 103.331 56.3904 103.311 56.4304 103.311C56.4904 103.311 56.5104 102.67 56.5204 100.38L56.5404 97.4589C56.7905 97.1288 56.9606 96.9788 57.0706 96.9288C57.2206 96.8587 58.1409 96.7387 60.1315 96.5286C61.692 96.3686 63.0824 96.2185 63.2124 96.1985L63.4425 96.1485V95.3683C63.1324 95.3883 61.5619 95.5584 59.7614 95.7584ZM141.105 100.64V105.281L141.975 106.151V96.8087C142.296 96.8587 143.056 96.9488 143.886 97.0288C144.706 97.1188 145.447 97.1888 145.527 97.1688C145.647 97.1588 145.627 97.1088 145.276 96.7287L144.886 96.3186C142.176 96.0685 141.325 95.9985 141.245 95.9985H141.105V100.64Z" fill="#B0B7BB"/>
<path d="M152.508 96.6476L152.298 96.8576C152.288 104.15 152.308 104.9 152.378 105.04C152.418 105.14 152.558 105.3 152.688 105.42C152.808 105.53 152.938 105.62 152.978 105.62C153.008 105.62 154.849 105.93 157.049 106.31C159.26 106.68 161.18 106.991 161.32 107.001C161.501 107.001 161.611 106.961 161.741 106.841C161.837 106.74 161.906 106.616 161.941 106.48C161.961 106.37 161.971 104.51 161.961 102.359C161.941 98.5581 161.941 98.4381 161.821 98.268C161.751 98.178 161.621 98.048 161.531 97.9879C161.411 97.8879 160.45 97.7079 157.259 97.1477C154.989 96.7576 153.038 96.4375 152.918 96.4375C152.768 96.4375 152.658 96.4875 152.508 96.6476Z" fill="#B81137"/>
<path d="M115.048 100.171V103.342L115.798 104.092L115.808 97.9703C115.268 97.2201 115.098 97 115.078 97C115.068 97 115.048 98.4204 115.048 100.171ZM45.4174 97.7702L43.6669 98.1003L43.6369 107.463C44.217 107.923 44.3971 108.043 44.4171 108.013C44.4371 107.983 44.4471 105.893 44.4471 103.352C44.4471 100.821 44.4671 98.7505 44.4771 98.7505C44.4971 98.7505 45.3074 98.6105 46.2776 98.4304C47.2479 98.2604 48.0582 98.1203 48.0882 98.1203C48.1182 98.1203 47.9481 97.9703 47.7281 97.7802C47.508 97.5902 47.2879 97.4401 47.2479 97.4401C47.1979 97.4501 46.3777 97.6002 45.4174 97.7702ZM153.619 97.7102C153.549 97.7602 153.439 97.8603 153.389 97.9403C153.309 98.0703 153.289 98.5104 153.289 101.391V104.682L154.069 104.782C154.129 99.0606 154.139 98.9406 154.259 98.8105C154.329 98.7305 154.429 98.6505 154.489 98.6205C154.559 98.5805 155.64 98.7405 157.72 99.0906C159.441 99.3807 160.881 99.6208 160.911 99.6208C160.941 99.6208 160.971 99.4407 160.971 99.2207C160.971 98.9906 160.961 98.8105 160.961 98.8105C160.951 98.8105 159.391 98.5405 157.51 98.2204C155.62 97.8903 153.999 97.6202 153.909 97.6202C153.829 97.6302 153.699 97.6602 153.619 97.7102ZM36.7048 99.3307L34.9243 99.6408C34.9543 101.611 34.9643 101.651 35.0644 101.521C35.1244 101.441 35.3945 101.111 35.6745 100.791L36.1747 100.201L38.5154 99.7808C38.5154 99.1706 38.5054 99.0006 38.4954 99.0006C38.4854 99.0106 37.6851 99.1506 36.7048 99.3307ZM166.093 99.0606L166.073 103.372C166.063 107.153 166.043 107.703 165.953 108.043C165.893 108.263 165.783 108.583 165.703 108.763C165.623 108.944 165.443 109.244 165.303 109.434C165.173 109.624 164.902 109.914 164.712 110.074C164.532 110.234 164.182 110.474 163.942 110.594C163.702 110.714 163.322 110.854 163.102 110.914C162.842 110.974 162.452 111.014 162.062 111.014C161.551 111.004 160.641 110.864 157.04 110.234C154.609 109.804 152.609 109.464 152.569 109.484C152.539 109.504 152.609 109.594 152.729 109.694C153.13 110.012 153.575 110.271 154.049 110.464C154.349 110.574 155.6 110.814 158.361 111.284C160.501 111.654 162.492 111.964 162.782 111.984C163.192 112.004 163.442 111.984 163.862 111.874C164.162 111.804 164.532 111.684 164.672 111.614C164.822 111.544 165.102 111.374 165.303 111.234C165.493 111.104 165.793 110.834 165.953 110.634C166.113 110.444 166.343 110.054 166.473 109.774C166.603 109.504 166.743 109.124 166.793 108.933C166.863 108.663 166.873 107.773 166.873 104.652V100.721C166.613 99.9409 166.433 99.5607 166.313 99.3707C166.193 99.1806 166.103 99.0406 166.093 99.0606ZM88.2599 102.111L88.25 103.182C88.7901 103.692 88.9802 103.852 89.0102 103.852C89.0302 103.862 89.0602 103.562 89.0602 103.182C89.0602 102.702 89.0302 102.392 88.9502 102.142C88.8801 101.941 88.7501 101.651 88.6401 101.501C88.54 101.341 88.41 101.181 88.36 101.131C88.29 101.061 88.27 101.201 88.2599 102.111ZM78.9672 101.721C77.0767 101.831 75.5262 101.931 75.5162 101.931C75.5062 101.931 75.5062 102.362 75.5062 102.892V103.842L76.3165 104.562V102.652C81.518 102.382 83.0684 102.302 83.1084 102.312C83.1585 102.312 83.1885 102.192 83.1885 101.901V101.501C82.5783 101.511 80.8578 101.601 78.9672 101.721Z" fill="#B0B7BB"/>
<path d="M23.4212 101.88C22.911 101.98 21.2805 102.3 19.8001 102.6C18.3197 102.89 16.9793 103.16 16.8192 103.19L16.5191 103.25L16.5091 108.342C12.618 112.463 9.91719 115.344 7.99663 117.394C6.06607 119.445 4.49561 121.145 4.49561 121.175C4.49561 121.215 4.8157 121.465 5.21582 121.746C5.60593 122.036 6.29613 122.526 6.74627 122.836C7.18639 123.156 8.87689 124.346 10.4874 125.497C12.1078 126.637 13.9484 127.947 14.5886 128.398L16.129 129.498L16.5291 129.778C16.5191 134.829 16.5391 135.43 16.5992 135.43C16.6392 135.43 17.0693 135.36 17.5494 135.27C18.0296 135.19 19.51 134.939 20.8304 134.719C22.1508 134.489 23.8613 134.209 24.6315 134.089C25.3917 133.969 26.6321 133.769 27.3723 133.649C28.1225 133.529 29.693 133.289 30.8633 133.119C32.0237 132.949 33.4341 132.739 33.9842 132.649C34.5344 132.569 35.5347 132.419 36.2149 132.329C36.9451 132.219 37.4253 132.129 37.4153 132.089C37.3953 132.059 35.3547 131.218 32.8739 130.228C30.3932 129.248 26.6821 127.767 24.6215 126.947C22.5609 126.137 20.8704 125.437 20.8504 125.397C20.8404 125.367 21.8607 120.725 23.1311 115.094L25.4417 104.841C24.6615 101.86 24.6015 101.69 24.4915 101.69C24.4214 101.69 23.9413 101.78 23.4212 101.88ZM175.006 103.26L174.585 104.841C177.116 116.274 178.147 120.895 178.497 122.496C178.847 124.096 179.137 125.407 179.137 125.417C179.127 125.427 175.396 126.917 170.844 128.738C166.293 130.558 162.562 132.069 162.552 132.099C162.542 132.129 164.423 132.429 166.733 132.769C169.044 133.109 172.585 133.649 174.595 133.969C176.606 134.289 179.397 134.749 180.797 134.989C182.198 135.23 183.368 135.43 183.408 135.43C183.448 135.43 183.468 134.449 183.468 132.609V129.778C191.62 123.996 194.351 122.076 194.791 121.766L195.582 121.215L183.468 108.282V103.25C182.908 103.14 182.508 103.06 182.218 103C181.928 102.93 180.307 102.61 178.627 102.28C176.936 101.95 175.536 101.68 175.496 101.68C175.456 101.68 175.236 102.39 175.006 103.26Z" fill="#B81137"/>
<path d="M87.3695 105.822L85.5789 105.882C84.9488 106.532 84.7687 106.722 84.7687 106.732C84.7787 106.742 85.909 106.702 87.2794 106.652C88.6498 106.602 89.9002 106.542 90.0403 106.522L90.3103 106.492C89.5901 105.832 89.4601 105.752 89.32 105.752C89.23 105.762 88.3498 105.792 87.3695 105.822ZM111.897 106.302L111.517 106.682C112.007 106.692 113.237 106.732 114.577 106.772C115.918 106.822 117.028 106.852 117.028 106.852C117.038 106.842 116.858 106.652 116.628 106.422L116.208 106.002L112.267 105.922L111.897 106.302ZM74.6557 106.542L72.8452 106.692L71.975 107.572C72.5551 107.522 73.7655 107.422 75.0359 107.332C76.3062 107.242 77.3865 107.162 77.4366 107.142C77.5066 107.122 77.4165 107.002 77.1265 106.742C76.8864 106.512 76.6663 106.372 76.5963 106.382C76.5263 106.382 75.656 106.452 74.6557 106.542ZM123.97 106.412C123.98 106.422 124.12 106.622 124.28 106.842L124.58 107.252C124.58 107.252 125.631 107.312 126.921 107.402C128.211 107.492 129.392 107.562 129.542 107.562H129.832L129.012 106.762C125.091 106.482 123.96 106.402 123.97 106.412ZM138.054 108.013C137.844 108.193 137.694 108.353 137.714 108.383C137.744 108.403 138.975 108.543 140.445 108.703C141.925 108.863 143.146 108.983 143.146 108.983C143.156 108.973 142.986 108.773 142.776 108.543L142.386 108.113C139.435 107.783 138.544 107.683 138.504 107.683C138.464 107.683 138.254 107.833 138.054 108.013ZM43.3166 110.153C42.4763 110.303 41.586 110.453 41.336 110.493L40.8858 110.563C40.3057 111.274 40.1756 111.474 40.2156 111.484C40.2557 111.504 41.496 111.284 42.9665 111.013L45.6472 110.523C45.3772 110.303 45.1871 110.163 45.0671 110.063L44.837 109.893L43.3166 110.153Z" fill="#B0B7BB"/>
<path d="M92.1203 115.803C91.21 115.823 90.4598 115.853 90.4498 115.853C90.4398 115.863 90.4298 126.297 90.4198 139.04L90.3998 162.207C85.6384 166.128 84.2079 167.319 84.1579 167.369C84.0679 167.449 84.1579 167.509 84.9782 167.919C85.4883 168.179 86.5686 168.689 87.3689 169.069C88.1791 169.449 89.3895 169.999 90.0597 170.289C90.7299 170.58 91.7802 171.03 92.4004 171.29C93.0205 171.55 94.0908 171.97 94.771 172.24C95.4612 172.51 96.6016 172.94 97.3018 173.2C98.012 173.45 98.8923 173.78 99.2724 173.91L99.9626 174.161C101.703 173.56 102.743 173.18 103.394 172.94C104.054 172.7 105.044 172.32 105.614 172.1C106.184 171.88 107.155 171.48 107.775 171.22C108.385 170.97 109.375 170.54 109.955 170.289C110.546 170.029 111.656 169.519 112.426 169.159C113.196 168.799 114.307 168.269 114.877 167.989C115.547 167.649 115.907 167.439 115.867 167.399C115.837 167.369 114.407 166.168 112.686 164.738L109.555 162.147C109.555 117.024 109.545 115.863 109.445 115.833C109.385 115.813 105.834 115.783 101.553 115.773C97.2718 115.773 93.0305 115.783 92.1203 115.803Z" fill="#455560"/>
<path d="M65.6333 117.346C64.4429 117.466 62.5224 117.656 61.352 117.786C60.1817 117.906 57.781 118.186 56.0105 118.406C54.2399 118.626 52.6995 118.826 52.5895 118.836L52.3794 118.876C52.3794 124.848 52.3894 124.878 52.5394 125.638C52.6295 126.058 52.8495 126.828 53.0196 127.338C53.1896 127.859 53.5297 128.699 53.7698 129.219C54.2541 130.253 54.8089 131.252 55.4303 132.21C55.6504 132.56 56.0105 133.08 56.2105 133.37C56.4206 133.66 56.8907 134.281 57.2508 134.741C57.6109 135.211 58.2211 135.941 58.6012 136.371C58.9713 136.801 59.6315 137.531 60.0616 137.982C60.5018 138.442 61.422 139.362 62.1323 140.022C62.8325 140.692 63.8328 141.593 64.3529 142.033C64.8631 142.483 65.5633 143.073 65.9134 143.343C66.2535 143.623 66.8536 144.093 67.2337 144.393C67.6239 144.694 67.974 144.924 68.004 144.904C68.044 144.884 68.064 140.182 68.064 131V117.125C67.8439 117.135 66.8136 117.226 65.6333 117.346ZM131.993 131.05L131.983 144.994C132.973 144.253 133.543 143.803 133.893 143.533C134.233 143.253 134.994 142.623 135.574 142.113C136.164 141.613 137.114 140.752 137.704 140.202C138.285 139.652 139.155 138.792 139.635 138.302C140.115 137.802 140.865 136.991 141.295 136.491C141.736 136.001 142.396 135.191 142.766 134.711C143.146 134.23 143.696 133.49 143.986 133.06C144.286 132.63 144.746 131.91 145.017 131.46C145.277 131.02 145.717 130.199 145.987 129.649C146.257 129.099 146.607 128.299 146.767 127.869C146.927 127.439 147.117 126.838 147.197 126.528C147.277 126.218 147.407 125.668 147.477 125.308C147.597 124.708 147.607 124.428 147.607 121.757V118.876C147.237 118.826 146.377 118.716 145.447 118.596C142.983 118.27 140.516 117.977 138.045 117.716C136.894 117.596 135.194 117.436 134.263 117.346C133.333 117.256 132.443 117.165 132.283 117.145L131.993 117.105V131.05Z" fill="#B0B7BB"/>
<path d="M46.1973 119.845L43.0463 120.375L42.6162 120.445C42.6362 129.467 42.6662 132.678 42.6962 133.399C42.7262 134.119 42.8063 135.149 42.8563 135.679C42.9163 136.209 43.0363 137.13 43.1364 137.71C43.2364 138.3 43.4465 139.3 43.6065 139.931C43.9277 141.201 44.3184 142.454 44.7768 143.682C44.9069 144.042 45.177 144.702 45.367 145.152C45.5571 145.592 45.9972 146.522 46.3473 147.213C46.6874 147.903 47.2476 148.913 47.5777 149.463C47.9078 150.014 48.3079 150.674 48.4779 150.934C48.648 151.184 49.0081 151.724 49.2882 152.114C50.0314 153.195 50.8259 154.24 51.6689 155.245C52.089 155.745 52.8192 156.585 53.2993 157.116C53.7895 157.656 54.7098 158.606 55.3599 159.246C56.0101 159.876 56.9604 160.777 57.4806 161.247C57.9907 161.707 58.7109 162.347 59.071 162.647C59.4311 162.957 60.2714 163.648 60.9416 164.188C61.6118 164.718 62.7421 165.578 63.4423 166.098C64.1425 166.618 65.2729 167.409 65.943 167.869C66.6132 168.319 67.8336 169.119 68.6638 169.649C69.4841 170.169 70.5344 170.82 71.0045 171.1C71.4647 171.38 72.3349 171.88 72.9351 172.23C73.5453 172.57 74.7256 173.22 75.5659 173.68C76.4061 174.141 78.1666 175.041 79.467 175.681C80.7774 176.331 82.5079 177.151 83.3081 177.522C84.1184 177.892 85.4688 178.492 86.309 178.852C87.1493 179.212 88.5297 179.792 89.3699 180.132C90.2102 180.472 91.4205 180.953 92.0607 181.193C92.6909 181.433 93.6512 181.783 94.1813 181.973C94.7115 182.163 96.2319 182.683 97.5523 183.123L99.963 183.913C100.643 183.723 101.754 183.353 102.864 182.983C103.984 182.603 105.555 182.053 106.365 181.763C107.175 181.473 108.496 180.973 109.306 180.652C110.106 180.332 111.286 179.852 111.927 179.592C112.567 179.322 113.607 178.882 114.237 178.602C114.877 178.332 116.068 177.792 116.898 177.412C117.718 177.041 119.429 176.211 120.709 175.591C121.979 174.961 123.65 174.111 124.42 173.68C125.2 173.26 126.421 172.57 127.141 172.16C127.861 171.75 128.761 171.23 129.142 171.01C129.522 170.78 130.502 170.169 131.322 169.649C132.152 169.119 133.373 168.319 134.043 167.869C134.713 167.409 135.844 166.618 136.544 166.098C137.244 165.578 138.374 164.718 139.044 164.188C139.715 163.648 140.615 162.917 141.045 162.547C141.475 162.187 142.155 161.587 142.576 161.207C142.986 160.837 143.886 159.976 144.566 159.306C145.246 158.636 146.177 157.676 146.627 157.176C147.087 156.685 147.847 155.815 148.317 155.245C148.797 154.675 149.478 153.815 149.838 153.334C150.198 152.854 150.868 151.904 151.318 151.214C151.778 150.524 152.338 149.643 152.568 149.243C152.809 148.843 153.309 147.903 153.689 147.153C154.069 146.392 154.579 145.312 154.809 144.742C155.049 144.172 155.429 143.131 155.659 142.431C155.927 141.637 156.164 140.833 156.37 140.021C156.53 139.41 156.73 138.51 156.81 138.03C156.9 137.54 157.03 136.71 157.1 136.179C157.16 135.649 157.25 134.619 157.28 133.899C157.32 133.179 157.35 129.858 157.35 126.507C157.35 123.166 157.34 120.435 157.32 120.435C157.3 120.435 155.939 120.205 154.289 119.935C152.638 119.655 151.248 119.435 151.198 119.435C151.108 119.435 151.098 120.175 151.098 125.756C151.098 129.237 151.068 132.668 151.038 133.369C150.998 134.069 150.928 134.999 150.878 135.429C150.828 135.859 150.688 136.71 150.558 137.31C150.438 137.91 150.258 138.7 150.168 139.06C150.068 139.42 149.868 140.061 149.728 140.491C149.588 140.921 149.337 141.601 149.177 141.991C149.027 142.391 148.687 143.161 148.437 143.712C148.177 144.262 147.787 145.052 147.557 145.462C146.986 146.482 146.372 147.476 145.716 148.443C145.466 148.803 144.916 149.553 144.496 150.094C144.086 150.644 143.366 151.524 142.916 152.054C142.455 152.584 141.355 153.755 140.455 154.655C139.555 155.555 138.454 156.605 138.014 156.996C137.564 157.396 136.804 158.036 136.324 158.436C135.844 158.836 134.953 159.536 134.353 159.996C133.753 160.467 132.823 161.157 132.292 161.537C131.762 161.917 130.732 162.617 130.012 163.097C129.292 163.577 128.251 164.258 127.701 164.598C127.151 164.938 126.151 165.548 125.481 165.948C124.81 166.338 123.79 166.928 123.2 167.259C122.62 167.579 121.689 168.089 121.139 168.379C120.589 168.679 119.479 169.249 118.679 169.649C117.868 170.049 116.698 170.62 116.078 170.91C115.468 171.21 114.497 171.65 113.927 171.91C113.357 172.17 112.307 172.63 111.586 172.94C110.866 173.25 109.766 173.72 109.146 173.971C108.526 174.231 107.275 174.721 106.365 175.071C105.455 175.411 104.404 175.811 104.024 175.941C103.644 176.081 102.574 176.451 101.654 176.771L99.963 177.352C98.0225 176.681 96.9321 176.291 96.2719 176.061C95.6217 175.821 94.3614 175.351 93.4611 175.001C92.5709 174.661 91.1604 174.101 90.3402 173.76C89.52 173.41 88.2596 172.88 87.5594 172.57C86.8592 172.26 85.7689 171.78 85.1587 171.49C84.5385 171.21 83.1881 170.57 82.1578 170.059C80.2558 169.127 78.3811 168.139 76.5362 167.099C75.986 166.788 75.0557 166.258 74.4656 165.908C73.8854 165.568 72.8451 164.938 72.1549 164.508C71.4747 164.078 70.4844 163.437 69.9742 163.097C69.4541 162.757 68.5038 162.087 67.8436 161.627C67.1934 161.157 66.2431 160.457 65.723 160.056C65.2028 159.666 64.4726 159.086 64.1025 158.776C63.7224 158.476 63.1322 157.976 62.7821 157.686C62.442 157.396 61.6718 156.695 61.0716 156.135C60.4714 155.585 59.6612 154.815 59.2811 154.425C58.901 154.035 58.2708 153.364 57.8707 152.934C57.4806 152.504 56.9204 151.854 56.6203 151.494C56.3202 151.134 55.8301 150.524 55.54 150.154C55.2399 149.773 54.6697 148.983 54.2696 148.403C53.8695 147.813 53.2793 146.883 52.9592 146.332C52.1774 144.998 51.4889 143.611 50.8986 142.181C50.7186 141.751 50.4585 141.021 50.2985 140.561C50.1484 140.091 49.9384 139.4 49.8283 139.02C49.7283 138.65 49.5783 137.99 49.4882 137.56C49.3982 137.13 49.2682 136.37 49.1981 135.869C49.1281 135.369 49.0581 134.879 49.0381 134.779C49.0081 134.669 48.9781 131.168 48.9581 126.987L48.9081 119.395L46.1973 119.845Z" fill="#B81137"/>
<path d="M37.265 121.445C35.9446 121.706 34.1841 122.076 33.3638 122.246C32.5336 122.426 31.1032 122.746 30.1729 122.966C29.2426 123.186 27.8322 123.516 27.032 123.706C26.2317 123.896 25.5815 124.076 25.5815 124.106C25.5815 124.126 28.7525 125.407 32.6236 126.947C36.4947 128.488 39.6757 129.738 39.6857 129.728C39.6957 129.718 39.6957 127.747 39.6857 125.337L39.6657 120.955L37.265 121.445ZM160.271 125.347C160.281 127.767 160.311 129.748 160.331 129.748C160.361 129.748 163.522 128.488 167.363 126.967C171.204 125.437 174.345 124.156 174.345 124.116C174.345 124.086 174.285 124.046 174.205 124.026C174.125 124.006 173.435 123.836 172.655 123.646C171.884 123.456 170.664 123.156 169.944 122.986C169.214 122.816 167.923 122.526 167.063 122.336C166.203 122.156 164.602 121.816 163.502 121.595C162.402 121.375 161.221 121.135 160.881 121.065L160.261 120.945L160.271 125.347Z" fill="#455560"/>
<path d="M73.4353 124.058C73.4353 124.098 73.6054 124.258 73.8154 124.438L74.1856 124.748V131.9C73.6454 132.34 73.4553 132.501 73.4153 132.551C73.3553 132.611 73.7154 132.631 75.3459 132.621H77.3465L76.5663 131.9V129.31H83.1282V127.309H76.5663V125.999H84.1885C84.8687 126.389 85.0787 126.499 85.0887 126.499C85.1088 126.499 85.1188 125.939 85.1188 125.248V123.998C75.4259 123.998 73.4353 124.018 73.4353 124.058ZM117.678 124.088C117.448 124.138 117.158 124.218 117.018 124.258C116.878 124.308 116.638 124.428 116.488 124.518C116.338 124.608 116.048 124.828 115.868 125.008C115.678 125.188 115.448 125.478 115.348 125.649C115.258 125.829 115.158 126.149 115.118 126.369C115.078 126.599 115.048 127.499 115.048 128.369C115.058 129.38 115.078 130.1 115.128 130.34C115.168 130.55 115.308 130.88 115.428 131.08C115.548 131.28 115.788 131.57 115.958 131.73C116.128 131.88 116.468 132.1 116.708 132.22C116.948 132.33 117.338 132.471 117.578 132.521C117.948 132.601 118.719 132.621 122.22 132.621H126.421V130.62C119.989 130.62 118.238 130.6 118.108 130.56C117.988 130.53 117.808 130.41 117.708 130.31L117.518 130.11C117.488 126.889 117.498 126.689 117.598 126.499C117.658 126.359 117.798 126.229 117.958 126.149C118.198 126.029 118.348 126.029 121.86 126.009L125.521 125.999C126.121 126.389 126.321 126.499 126.361 126.499C126.401 126.499 126.421 126.039 126.421 125.248V123.998C119.049 124.008 117.988 124.028 117.678 124.088Z" fill="#B81137"/>
<path d="M146.957 135.009C146.707 135.399 146.187 136.119 145.817 136.619C145.447 137.119 144.846 137.89 144.486 138.34C144.116 138.78 143.596 139.4 143.326 139.71C143.056 140.02 142.356 140.79 141.765 141.421C141.175 142.051 140.195 143.051 139.575 143.641C138.955 144.222 138.024 145.072 137.514 145.522C136.994 145.982 136.094 146.742 135.514 147.222C134.933 147.693 133.893 148.503 133.213 149.013L131.983 149.933C131.973 156.995 131.993 157.695 132.063 157.645C132.103 157.605 132.503 157.285 132.953 156.925C133.393 156.565 134.063 156.025 134.423 155.715C134.783 155.405 135.474 154.795 135.954 154.364C136.434 153.924 137.374 153.014 138.044 152.324C138.715 151.644 139.475 150.843 139.735 150.553C139.995 150.263 140.465 149.713 140.775 149.333C141.599 148.316 142.38 147.265 143.116 146.182C143.376 145.782 143.786 145.112 144.036 144.682C144.286 144.252 144.726 143.431 145.006 142.871C145.296 142.301 145.677 141.441 145.867 140.961C146.057 140.48 146.337 139.72 146.477 139.27C146.617 138.83 146.817 138.14 146.927 137.74C147.027 137.349 147.177 136.619 147.267 136.119C147.347 135.619 147.437 135.009 147.457 134.759C147.477 134.509 147.477 134.309 147.457 134.309C147.447 134.309 147.217 134.619 146.957 135.009ZM52.5393 134.699C52.5593 134.879 52.6493 135.459 52.7394 135.989C52.8194 136.529 52.9994 137.379 53.1295 137.9C53.2695 138.42 53.4796 139.15 53.6096 139.52C53.7296 139.9 53.9897 140.58 54.1698 141.021C54.3498 141.471 54.77 142.381 55.1 143.051C55.4401 143.721 55.8803 144.552 56.0903 144.902C56.3004 145.242 56.6905 145.862 56.9706 146.272C57.2407 146.682 57.8008 147.462 58.201 147.993C58.6011 148.523 59.1912 149.273 59.5013 149.653C59.8214 150.023 60.5316 150.833 61.0918 151.434C61.652 152.034 62.5322 152.914 63.0424 153.404C63.5525 153.884 64.2427 154.515 64.5628 154.815C64.8929 155.105 65.5131 155.635 65.9432 156.005C66.3734 156.365 66.9935 156.875 67.3136 157.135C67.6437 157.395 67.9438 157.615 67.9838 157.615C68.0538 157.615 68.0639 156.805 68.0639 153.774V149.933C66.7835 148.993 66.0333 148.423 65.5631 148.063C65.103 147.703 64.3128 147.072 63.8226 146.652C62.6936 145.723 61.5992 144.752 60.5416 143.741C60.1615 143.381 59.3213 142.541 58.6711 141.871C58.0209 141.201 56.9906 140.07 56.3904 139.37C55.7802 138.66 54.92 137.59 54.4699 136.989C54.0197 136.389 53.4296 135.559 53.1395 135.139C52.8594 134.709 52.6093 134.369 52.5693 134.369C52.5293 134.369 52.5193 134.489 52.5393 134.699Z" fill="#455560"/>
<path d="M70.7639 155.787L70.7539 159.718C73.0546 161.228 74.2549 162.008 74.9051 162.419C75.5553 162.819 76.7557 163.539 77.5659 164.009C78.3661 164.479 79.5365 165.139 80.1567 165.479C81.0569 165.98 81.297 166.09 81.377 166.03C81.427 165.99 82.8475 164.819 84.5179 163.419C86.1884 162.018 87.5588 160.848 87.5588 160.818C87.5588 160.798 87.1487 160.598 86.6386 160.378C86.1284 160.158 84.9881 159.638 84.0878 159.228C83.1976 158.818 81.5671 158.027 80.4668 157.467C79.3664 156.907 77.946 156.157 77.3158 155.807C76.6756 155.457 75.8154 154.966 75.4053 154.726C74.9952 154.486 74.1949 154.006 73.6248 153.666C73.0546 153.316 72.2844 152.836 71.9042 152.586C71.5341 152.346 71.124 152.086 70.994 152.006L70.7739 151.855L70.7639 155.787ZM128.041 152.596C127.441 152.996 126.28 153.716 125.45 154.206C124.63 154.706 123.339 155.447 122.579 155.867C121.819 156.287 120.318 157.067 119.238 157.617C118.158 158.157 116.667 158.888 115.927 159.228C115.187 159.568 114.097 160.058 113.506 160.308C112.906 160.568 112.426 160.798 112.426 160.818C112.426 160.848 113.837 162.048 115.557 163.479C117.278 164.909 118.708 166.08 118.748 166.07C118.778 166.06 119.368 165.74 120.068 165.359C120.759 164.979 121.909 164.329 122.609 163.909C123.319 163.499 124.45 162.809 125.14 162.389C125.83 161.958 127.03 161.178 127.811 160.658L129.231 159.718C129.241 153.556 129.221 151.925 129.191 151.915C129.161 151.905 128.641 152.206 128.041 152.596Z" fill="#B0B7BB"/>
</svg>
