<svg width="200" height="200" viewBox="0 0 200 200" fill="none" xmlns="http://www.w3.org/2000/svg">
<path d="M99.7428 0.00232004L97.714 3.39726L82.6139 28.6631L76.2612 18.0387L74.2371 14.6463L72.2059 18.0387L23.7246 99.1649L23 100.377L23.7246 101.588L71.517 181.557L73.5434 184.952L75.5723 181.557L82.1435 170.56L97.7116 196.605L99.7405 200L101.767 196.603L117.335 170.558L123.913 181.564L125.94 184.952L127.969 181.564L175.759 101.588L176.488 100.377L175.759 99.1649L127.275 18.0435L125.249 14.6463L123.217 18.0435L116.869 28.6631L101.772 3.39726L99.7428 0.00232004ZM99.7428 4.6089L116.869 33.2647L125.249 19.2552L173.732 100.377L125.938 180.348L117.335 165.956L99.7405 195.391L82.1435 165.956L73.5434 180.346L25.7535 100.377L74.2371 19.2504L82.6139 33.2672L99.7428 4.6089Z" fill="#AEACAD"/>
<path d="M82.1435 165.957L99.7405 195.394L117.335 165.957L125.937 180.351L173.732 100.377L125.244 19.2537L116.869 33.2634L99.7405 4.60742L82.6115 33.2657L74.2371 19.2537L25.7534 100.377L73.5434 180.347L82.1435 165.957Z" fill="#00245E"/>
<path d="M131.556 114.135L99.7456 167.356L67.9323 114.137H57.1798L99.7456 185.349L142.304 114.137L131.556 114.135ZM73.5485 152.32L50.7321 114.139H39.9819L73.5485 170.304L81.0249 157.798L75.6463 148.806L73.5485 152.32ZM148.764 114.139L125.94 152.32L123.847 148.806L118.469 157.798L125.94 170.306L159.514 114.139H148.766H148.764Z" fill="#9DC2EA"/>
<path d="M125.249 29.3006L117.97 41.4738L123.206 50.2306L125.249 46.8121L149.035 86.6148H159.502L125.249 29.3006ZM39.9842 86.6148H50.4517L74.2422 46.8121L76.2853 50.2283L81.519 41.4761L74.2422 29.3006L39.9842 86.6148ZM74.8907 73.7527L99.7479 32.1681L124.6 73.7527H135.068L99.7479 14.6543L64.4233 73.7527H74.8907ZM34.8765 92.749H38.5279L40.9607 102.506H40.9987L44.1821 92.749H47.3015L50.4612 102.765H50.5016L53.0578 92.749H56.4552L52.0078 107.968H49.0191L45.6694 97.4316H45.6219L42.2721 107.968H39.3903L34.8765 92.749ZM58.0753 92.749H61.4251V98.4222H67.9417V92.749H71.2962V107.968H67.9417V101.39H61.4275V107.968H58.0753V92.749ZM74.9501 92.7467H78.2998V107.968H74.9501V92.7467ZM85.1419 95.7139H80.7991V92.749H92.8393V95.7139H88.4941V107.965H85.1419V95.7139ZM95.4549 92.749H105.799V95.8445H98.8118V98.6812H103.977V101.777H98.8118V104.875H106.186V107.968H95.4549V92.749Z" fill="white"/>
<path d="M118.372 96.7019C117.707 95.909 116.739 95.4576 115.491 95.4576C112.958 95.4576 111.084 97.5214 111.084 100.357C111.084 103.196 112.955 105.257 115.384 105.257C116.739 105.257 117.834 104.658 118.523 103.627L121.315 105.712C120.047 107.517 117.9 108.355 115.815 108.355C111.061 108.355 107.604 105.24 107.604 100.357C107.604 95.4783 111.061 92.3633 115.815 92.3633C117.514 92.3633 119.661 92.9453 120.953 94.5994L118.372 96.7019ZM129.505 97.177L127.658 101.905H131.376L129.505 97.177ZM128.216 92.7523H130.99L137.612 107.969H133.826L132.519 104.744H126.604L125.336 107.969H121.639L128.216 92.7523ZM142.474 99.1994H144.713C145.892 99.1994 147.077 98.7895 147.077 97.3729C147.077 95.799 145.485 95.5883 144.193 95.5883H142.471V99.1994H142.474ZM139.124 92.7523H144.775C147.938 92.7523 150.557 93.7618 150.557 97.3729C150.557 100.937 148.131 102.035 144.927 102.035H142.474V107.969H139.124V92.7523ZM160.615 96.4672C160.081 95.7842 159 95.4576 158.183 95.4576C157.239 95.4576 155.929 95.8881 155.929 97.0315C155.929 99.7992 162.937 98.0145 162.937 103.348C162.937 106.745 160.205 108.355 157.067 108.355C155.11 108.355 153.39 107.776 151.95 106.442L154.337 103.82C155.023 104.72 156.14 105.26 157.26 105.26C158.358 105.26 159.582 104.744 159.582 103.672C159.582 100.874 152.443 102.38 152.443 97.3077C152.443 94.0619 155.264 92.3633 158.248 92.3633C159.971 92.3633 161.625 92.8146 162.914 93.952L160.615 96.4672ZM87.4281 114.057H97.6349V117.154H90.781V120.248H95.6868V123.343H90.781V129.276H87.4281V114.057ZM108.922 118.009C108.257 117.216 107.292 116.765 106.042 116.765C103.506 116.765 101.635 118.829 101.635 121.665C101.635 124.501 103.506 126.565 105.935 126.565C107.292 126.565 108.385 125.962 109.074 124.931L111.868 127.016C110.6 128.822 108.453 129.662 106.366 129.662C101.614 129.662 98.1545 126.544 98.1545 121.665C98.1545 116.786 101.614 113.667 106.366 113.667C108.064 113.667 110.214 114.25 111.503 115.904L108.922 118.009ZM60.7339 77.9723H62.9196L65.0696 83.6711H65.0934L67.282 77.9723H69.3311L65.7466 86.6674H64.2114L60.737 77.9723H60.7339ZM72.5056 80.5024L71.4485 83.2047H73.5748L72.5056 80.5024ZM71.7691 77.9723H73.3549L77.1353 86.6703H74.9764L74.2251 84.8262H70.8456L70.1239 86.6674H68.0156L71.7691 77.9723ZM78.1837 77.9723H80.7879L84.4851 84.0155H84.5119V77.9723H86.4274V86.6674H83.9211L80.1198 80.4787H80.0961V86.6674H78.1806V77.9723H78.1837ZM93.9821 80.2322C93.7795 79.9968 93.5264 79.8104 93.2415 79.687C92.9565 79.5635 92.6473 79.5063 92.337 79.5195C90.8878 79.5195 89.8187 80.6984 89.8187 82.3199C89.8187 83.9413 90.8878 85.1202 92.2747 85.1202C92.6283 85.1303 92.9785 85.0499 93.2924 84.8868C93.6063 84.7236 93.8734 84.4829 94.0683 84.1877L95.6659 85.3785C94.9413 86.409 93.7059 86.8931 92.5181 86.8931C89.8068 86.8931 87.826 85.1113 87.826 82.3199C87.826 79.5314 89.8068 77.7525 92.5181 77.7525C93.4892 77.7525 94.7157 78.085 95.4551 79.0294L93.9821 80.2322ZM100.97 85.1202C102.603 85.1202 103.672 83.9413 103.672 82.3199C103.672 80.6984 102.603 79.5195 100.97 79.5195C99.3364 79.5195 98.2674 80.6984 98.2674 82.3199C98.2674 83.9413 99.3364 85.1202 100.97 85.1202ZM100.97 77.7496C103.684 77.7496 105.662 79.5313 105.662 82.3228C105.662 85.1113 103.684 86.8902 100.97 86.8902C98.2525 86.8902 96.2776 85.1083 96.2776 82.3228C96.2776 79.5313 98.2525 77.7496 100.97 77.7496ZM114.615 83.3148C114.615 85.3668 113.362 86.8871 110.954 86.8871C108.533 86.8871 107.28 85.3668 107.28 83.3148V77.9723H109.199V83.2404C109.199 84.3095 109.935 85.1202 110.954 85.1202C111.963 85.1202 112.697 84.3095 112.697 83.2404V77.9723H114.615V83.3148ZM115.672 77.9723H117.861L120.011 83.6711H120.035L122.223 77.9723H124.273L120.688 86.6674H119.153L115.672 77.9723ZM125.431 77.9723H131.34V79.7423H127.346V81.3636H131.118V83.1306H127.346V84.9005H131.557V86.6674H125.431V77.9723ZM135.18 81.5715H136.309C137.01 81.5715 137.918 81.5477 137.918 80.6034C137.918 79.7273 137.131 79.5936 136.433 79.5936H135.18V81.5715ZM133.265 77.9723H136.629C138.411 77.9723 139.908 78.5869 139.908 80.6152C139.908 81.8298 139.255 82.7742 138.028 82.9999L140.24 86.6703H137.945L136.127 83.193H135.177V86.6674H133.265V77.9723Z" fill="white"/>
<path d="M133.63 176.935H134.931V180.35H135.599V176.935H136.909V176.341H133.63V176.935ZM139.356 179.545L138.34 176.338H137.36V180.35H137.972V176.935L139.05 180.35H139.659L140.689 176.985V180.35H141.301V176.338H140.336L139.356 179.545Z" fill="#051C36"/>
</svg>
