<svg width="200" height="200" viewBox="0 0 200 200" fill="none" xmlns="http://www.w3.org/2000/svg">
<g clip-path="url(#clip0_17_1026)">
<path d="M183.403 149.281C170.923 146.652 146.164 149.213 132.042 179.098C132.042 179.098 107.894 150.262 74.3421 145.195C75.6589 129.151 54.4093 124.886 50.3437 97.2826C50.3437 97.2826 33.8357 83.761 25.5817 62.467L29.9769 63.8794C29.9769 63.8794 23.5589 56.769 18.6241 44.5138L23.2705 46.0486C23.2705 46.0486 18.5697 39.675 16.0005 21.3926C72.9509 60.5786 102.953 46.9042 137.592 66.5106C161.102 79.8318 166.702 95.299 168.67 110.739C168.67 110.739 186.074 126.512 183.403 149.28" fill="#FFFFFE"/>
<path d="M181.027 145.943C181.4 126.564 166.185 112.798 166.185 112.798C164.543 100.547 160.093 82.8282 136.383 69.7446C100.381 49.8934 80.4614 66.1078 23.7046 31.3262C24.8858 37.829 28.6258 46.8274 33.391 52.4166L27.523 50.4914C31.789 59.4866 38.621 67.6462 42.1982 70.295L35.6206 68.227C42.5882 85.3342 56.2014 95.467 56.2014 95.467C59.3034 121.658 78.5062 126.12 80.0574 142.229C105.074 146.11 131.516 172.912 131.516 172.912C145.36 149.101 164.665 144.487 181.027 145.943Z" fill="black"/>
<path d="M148.988 112.234C143.548 120.995 134.35 118.554 131.071 107.63L137.703 108.034C131.889 104.554 126.608 99.4327 122.525 94.3867C121.324 118.52 144.023 129.352 151.53 112.404C150.68 112.397 149.832 112.34 148.988 112.234Z" fill="#FFFFFE"/>
<path d="M133.373 73.0276C107.29 58.7252 75.4145 68.0124 34.6841 42.7656C38.7193 54.8304 63.9297 68.9596 63.9297 68.9596L41.6213 61.7032C47.3029 71.5676 70.5581 83.9276 70.5581 83.9276L49.7533 77.2008C58.3705 91.5204 77.9197 101.184 77.9197 101.184L65.9053 100.315C67.4597 113.779 86.0517 125.372 87.0393 135.762C95.4493 138.978 106.286 144.584 114.734 151.851C130.882 143.909 126.429 117.036 95.6393 78.916C137.989 81.4764 136.821 112.89 161.129 108.373C159.347 99.9348 158.196 86.6512 133.373 73.0276" fill="#97233F"/>
<path d="M177.986 140.944C172.057 135.039 159.601 129.012 144.454 127.195C150.906 125.402 158.25 121.443 161.261 115.283C167.682 119.348 176.625 130.974 177.986 140.944V140.944ZM145.567 149.179C148.062 140.676 143.524 132.958 143.524 132.958C156.798 131.657 171.446 137.82 177.375 142.839C168.106 140.968 155.416 143.647 145.567 149.179Z" fill="#FFB612"/>
<path d="M148.988 112.234C143.548 120.995 134.35 118.554 131.071 107.63L137.703 108.034C131.889 104.554 126.608 99.4327 122.525 94.3867C121.324 118.52 144.023 129.352 151.53 112.404C150.68 112.397 149.832 112.34 148.988 112.234Z" fill="#FFFFFE"/>
</g>
<defs>
<clipPath id="clip0_17_1026">
<rect width="200" height="200" fill="white"/>
</clipPath>
</defs>
</svg>
