<svg width="200" height="200" viewBox="0 0 200 200" fill="none" xmlns="http://www.w3.org/2000/svg">
<g clip-path="url(#clip0_17_1020)">
<path d="M170 56.8681C148.459 43.2633 99.1188 32.8573 62.3156 24.2969L20 69.8041L56.3224 69.0277C38.2364 98.2625 41.922 167.008 87.6572 176.147C85.3024 171.631 81.2144 163.335 86.514 153.065C90.2884 145.76 111.272 105.6 111.272 105.6H116.294C123.096 105.6 125.335 108.159 122.318 111.766C140.45 111.534 151.583 104.675 156.579 97.3457C152.776 90.3833 140.677 82.1865 135.771 78.8641H161.14C168.414 78.8641 170.055 81.9137 168.342 85.2337C180.214 82.8985 186.284 67.1529 169.999 56.8681" fill="#A5ACAF"/>
<path d="M167.102 58.2568C137.763 41.7924 65.1156 30.8184 65.1156 30.8184L33.9956 64.1704H66.2608C42.438 95.664 47.7168 159.238 82.7496 172.454C80.2648 166.543 79.006 159.682 83.4844 150.952C88.5384 141.107 96.5824 124.558 108.106 102.465H117.51C125.315 102.465 127.81 105.767 126.751 108.315C133.169 108.315 144.903 107.685 153.418 97.3468C146.325 87.432 122.872 75.8712 122.872 75.8712H163.107C169.019 75.8712 171.974 77.9752 171.157 81.5388C181.436 76.5172 178.764 64.8 167.102 58.2568Z" fill="#FFFFFE"/>
<path d="M119.481 76.9528C119.481 76.9528 145.413 89.6468 150.454 97.3464C147.798 100.881 143.737 103.357 138.3 104.6C141.775 101.93 142.433 99.3636 140.297 99.3636H132.61C131.298 100.656 130.598 102.991 132.358 105.345C129.387 104.695 126.524 102.248 126.304 99.3636H110.028C112.201 95.0131 118.472 82.5792 120.222 79.154L119.481 76.9528H119.481ZM165.882 60.468C177.237 66.7016 176.488 75.2887 173.13 78.1236C173.19 75.0576 170.179 72.776 164.747 72.776H111.696L117.398 75.832C117.398 75.832 83.2552 143.853 80.6344 149.221C77.6092 155.424 76.7796 162.388 79.386 168.19C72.6316 163.906 67.328 157.012 63.5948 148.608L60.5632 148.402L92.7688 101.121C92.7008 100.817 92.6408 100.51 92.5872 100.204L60.072 138.555C58.4068 132.369 57.4472 125.702 57.2408 118.863L53.5572 117.94L93.5016 86.4056C93.6008 86.0712 93.706 85.7388 93.8132 85.4064L57.5916 107.402C58.1384 101.336 59.2796 95.2716 61.04 89.418L57.2924 87.2956L99.9236 73.08C100.114 72.7888 100.308 72.5 100.502 72.2147L64.7176 79.5303C66.6492 75.2232 68.9544 71.1084 71.6596 67.2988L68.3452 64.1707H111.14C111.257 63.935 111.375 63.6996 111.494 63.4648L47.7788 58.59L65.8956 39.076L63.062 35.4688C63.062 35.4688 141.209 46.926 165.882 60.4688L165.882 60.468Z" fill="black"/>
<path d="M168.687 65.3611L169.368 68.3755C164.725 69.2487 156.509 69.9447 154.188 70.1327C154.074 70.3639 153.957 70.5951 153.837 70.8327H166.066C170.918 70.8327 172.961 73.1347 173.392 74.4583C174.028 72.6475 173.442 67.7911 168.687 65.3611ZM155.087 59.4023C157.799 60.3067 163.901 63.7135 166.213 66.3791H161.827C160.098 63.5339 155.087 59.4023 155.087 59.4023Z" fill="#FFFFFE"/>
<path d="M63.3614 97.0777L89.4234 82.8393C89.5638 82.4861 89.7102 82.1309 89.863 81.7781L64.7814 90.7949C64.224 92.8694 63.7503 94.9655 63.3614 97.0781V97.0777ZM75.015 68.8381C73.8641 70.4195 72.7931 72.0575 71.8062 73.7461L97.2986 69.1893C97.5214 68.8961 97.7486 68.6029 97.9754 68.3161L75.015 68.8381ZM91.1878 115.743C91.0186 115.439 90.8534 115.132 90.6926 114.826L69.5298 146.753C70.6402 148.857 71.8678 150.825 73.203 152.632L91.1878 115.743ZM62.9198 125.874L86.4454 99.6173C86.427 99.2417 86.4146 98.8677 86.4062 98.4941L62.1582 119.117C62.3203 121.379 62.5743 123.633 62.9198 125.875V125.874ZM136.178 95.8157L117.708 93.0573L115.834 96.6873H135.742L136.178 95.8157ZM148.935 62.7757L64.3746 51.0685L69.5482 45.4629C98.031 49.8669 132.096 56.8293 149.391 61.8693C149.245 62.1645 149.09 62.4681 148.935 62.7757Z" fill="#A71930"/>
</g>
<defs>
<clipPath id="clip0_17_1020">
<rect width="200" height="200" fill="white"/>
</clipPath>
</defs>
</svg>
