<svg width="200" height="200" viewBox="0 0 200 200" fill="none" xmlns="http://www.w3.org/2000/svg">
<path d="M198.607 110.889C197.805 106.002 194.589 98.8243 183.8 92.3664C183.071 91.93 182.305 91.5052 181.517 91.0872C183.535 90.4076 185.622 89.7063 185.622 89.7063L173.664 85.0391C172.641 84.6394 171.568 84.2796 170.481 83.9298C171.272 83.127 172.105 82.2791 172.105 82.2791L162.937 80.9932C158.975 80.4369 155.85 80.3086 153.455 80.3436C153.432 79.9572 153.402 79.6007 153.362 79.2809C153.362 79.2776 151.831 67.7861 151.831 67.7861C151.831 67.7861 148.284 72.6349 147.931 73.1163C147.177 71.8587 146.322 70.6761 145.34 69.5651C145.34 69.5635 135.452 58.3701 135.452 58.3701C135.452 58.3701 135.846 61.6633 136.162 64.2915C132.956 62.0528 129.429 60.0521 125.529 58.3783C109.619 51.5474 89.4963 50.1283 70.3248 54.479C54.2875 58.1203 31.1303 67.613 11.9001 92.1527L0.799805 106.317L17.5076 99.6547C17.6408 99.6014 30.5381 94.5679 40.9395 93.1005C44.8182 92.5525 47.7885 92.5092 45.3774 97.8277C43.4772 102.025 39.1607 108.152 39.116 108.213L30.7495 120.394L44.7053 115.544C51.4176 113.207 57.4428 112.056 60.4898 111.947C61.578 111.967 61.7777 112.687 61.4349 113.47C61.3368 113.741 61.2802 113.883 60.5264 115.042L51.7756 127.545L66.1291 122.398C76.5455 118.657 90.2399 116.193 95.1385 118.067C95.5379 118.219 96.8324 118.907 95.5495 120.791L89.9119 129.769C89.9119 129.769 98.235 128.504 99.4181 128.321C100.072 136.52 104.18 140.99 104.686 141.507L110.733 147.715L112.856 139.308C114.38 133.258 117.252 129.962 119.815 128.166C119.815 128.17 120.307 131.621 120.307 131.621L125.913 129.597C130.626 127.891 134.356 125.843 137.042 123.506C140.594 123.224 149.274 122.706 157.61 123.532C171.978 124.955 181.616 123.042 184.229 122.421C187.723 121.593 190.668 123.087 190.7 123.104L194.971 125.429L197.276 121.099C197.549 120.579 198.852 117.876 198.852 113.868C198.852 112.875 198.772 111.873 198.609 110.888" fill="white"/>
<path d="M196.604 111.722C195.894 107.393 192.967 100.994 183.043 95.0506C180.389 93.4682 177.507 92.114 174.59 90.9632L178.104 89.7805L173.277 87.895C170.886 86.9605 168.373 86.191 165.783 85.5664C166.28 85.0617 166.819 84.5103 166.819 84.5103L163.12 83.989C157.423 83.1911 153.489 83.2827 151.175 83.4993C151.196 82.9996 151.213 82.4715 151.213 81.9385C151.213 81.1923 151.185 80.4577 151.106 79.8631L150.486 75.2207C150.486 75.2207 148.236 78.2973 147.912 78.7419C147.168 76.6731 145.948 74.1096 143.722 71.5844L139.725 67.0586L140.178 70.8364C136.585 67.495 131.613 63.9823 124.798 61.0557C109.336 54.4178 89.7304 53.047 71.0222 57.2929C55.3411 60.8525 32.6955 70.1417 13.8699 94.1631L9.12598 100.221L16.2693 97.3696C16.4024 97.318 29.6893 92.0496 40.4901 90.6037C44.725 90.0407 47.6484 90.5421 48.7185 92.0212C49.7169 93.407 49.3958 96.1488 47.845 99.3619C45.7217 103.771 41.3823 110.101 41.3389 110.167L37.7613 115.373L43.7284 113.301C51.5908 110.564 61.5028 108.54 63.8008 110.044C64.3316 110.392 64.6178 110.802 64.7292 111.375C65.097 113.287 63.453 116.186 62.8473 117.055L59.1017 122.397L65.2418 120.198C75.0507 116.677 92.6372 112.639 98.0741 116.81C100.588 118.741 98.2388 122.555 98.134 122.715L95.7212 126.561L100.201 125.877C100.201 125.877 101.304 125.705 102.392 125.537C102.379 125.888 102.355 126.245 102.355 126.58C102.355 135.26 106.742 139.875 106.953 140.095L109.54 142.75L110.449 139.151C112.995 129.046 119.02 125.548 122.378 124.363C122.471 125.032 122.939 128.305 122.939 128.305L125.335 127.439C131.212 125.315 134.503 122.985 136.31 121.236C139.014 121 148.92 120.25 158.431 121.19C172.438 122.579 181.748 120.735 184.269 120.135C188.913 119.036 192.687 121.046 192.727 121.066L194.571 122.074L195.561 120.217C195.624 120.1 196.817 117.777 196.817 114.264C196.817 113.474 196.755 112.625 196.607 111.722" fill="#9A7611"/>
<path d="M181.811 97.1455C177.668 94.2122 172.087 92.0786 166.672 90.5527C168.927 89.8231 171.185 89.8714 171.185 89.8714C167.715 88.5439 164.093 87.7144 160.723 87.1913L161.985 86.0587C155.813 85.006 151.505 85.0859 148.949 85.3524C149.271 84.0865 149.532 82.1527 149.202 79.5709C149.202 79.5709 148.453 81.7962 146.638 83.1789C146.398 80.2906 145.477 76.1131 142.345 73.2782L142.926 78.3768C140.167 74.2175 134.917 68.8991 124.992 64.2519C98.0105 51.6277 50.4687 56.4131 24.3706 90.1548C24.3706 90.1548 34.5192 85.0778 48.5797 84.7414C55.9461 84.5681 57.7364 88.6972 55.0525 95.6564C52.3535 102.651 47.6227 108.787 47.6227 108.787C47.6227 108.787 79.441 97.5001 69.3959 113.179C69.3959 113.179 93.415 105.979 100.62 114.425C103.97 118.344 100.07 123.826 100.07 123.826L106.883 122.35C104.674 131.014 108.542 136.547 108.542 136.547C111.354 125.222 121.16 122.205 124.631 121.634L125.382 124.702C131.199 122.597 133.934 120.357 135.499 118.511C147.817 116.572 156.182 118.229 165.678 118.747C179.51 119.504 186.661 117.092 188.945 117.107C190.622 117.122 192.611 118.586 192.611 118.586C192.611 118.586 198.36 108.872 181.812 97.1454" fill="black"/>
<path d="M117.501 65.3335C86.8803 56.1874 54.9289 65.0354 37.1963 82.0354C37.1963 82.0354 55.0474 76.4119 60.4021 81.9371C66.6302 88.3617 57.1939 103.468 57.1939 103.468L63.3656 102.5C62.9213 102.553 62.6668 102.585 62.6668 102.585C67.4874 85.6966 71.8385 79.777 74.752 76.8819C76.4842 74.7665 79.5475 73.3324 82.0037 72.4963C65.502 73.2842 49.4598 76.6837 49.4598 76.6837C59.8344 68.6235 83.8908 62.9918 97.7572 64.4077C111.623 65.8252 110.68 71.4551 109.254 74.6666C108.099 77.2617 102.435 80.7796 97.1082 81.9155C102.622 82.6351 105.746 86.8959 103.771 91.1499C103.601 91.5147 103.405 91.8678 103.195 92.2076C97.3093 93.6068 92.0861 95.8254 87.7999 98.2491C87.6502 98.3374 87.5021 98.424 87.3523 98.509C87.1526 98.6256 86.9513 98.7422 86.7533 98.8604C86.6019 98.9504 86.4505 99.0387 86.2974 99.1319C86.111 99.2452 85.928 99.3601 85.7466 99.4734C85.5952 99.57 85.4404 99.6633 85.2907 99.7616C85.116 99.8698 84.9446 99.9831 84.7732 100.096C84.6268 100.19 84.4753 100.288 84.3289 100.386C84.1675 100.501 84.0044 100.611 83.843 100.721C80.3203 103.145 77.763 105.571 76.4367 107.454C76.4367 107.454 112.499 100.141 106.252 118.322L115.567 115.767C114.909 116.916 113.869 118.229 112.455 119.808C108.052 124.704 108.355 129.357 108.355 129.357C108.355 129.357 109.648 124.265 117.979 120.774C125.577 117.596 127.329 112.193 127.329 112.193C127.329 112.193 129.86 115.937 127.789 121.181C127.789 121.181 131.288 120.306 134.42 116.006C135.696 113.72 134.39 111.002 133.849 109.671C129.083 107.134 121.284 102.28 127.908 100.696C123.782 100.08 111.211 98.8375 95.4595 103.34C95.4595 103.34 110.021 93.6038 138.024 98.1795C130.458 93.659 113.88 93.8454 113.88 93.8454C119.649 92.4013 125.871 92.383 131.736 93.0309C129.378 92.3746 126.174 91.6101 122.405 91.0371C116.646 90.3542 111.148 90.659 106.078 91.5968C111.775 85.6771 122.155 86.4547 122.155 86.4547C115.233 81.786 106.208 83.28 106.208 83.28C116.326 78.038 127.576 79.8121 127.576 79.8121C124.039 75.1364 115.686 74.107 115.686 74.107C132.245 73.4357 138.046 82.1473 138.046 82.1473C133.918 80.3467 130.977 80.6182 130.977 80.6182C130.977 80.6182 134.957 81.2645 137.651 86.3047C140.505 91.645 142.925 91.4915 142.925 91.4915C142.925 91.4915 147.462 74.285 117.499 65.3338" fill="#24135F"/>
<path d="M93.6103 64.1915C79.5019 64.0692 58.8628 69.3791 49.4614 76.6836C49.4614 76.6836 65.504 73.2839 82.0066 72.4959C79.5506 73.3321 76.4871 74.7662 74.7549 76.8815C71.8413 79.7764 67.49 85.6964 62.6694 102.584C62.6694 102.584 62.9239 102.553 63.3681 102.499C65.4364 102.236 71.6549 101.489 75.3389 101.3L81.5438 100.942C82.2177 100.942 82.9096 100.919 83.6118 100.88C83.69 100.829 83.7682 100.772 83.8464 100.72C84.0078 100.611 84.1711 100.5 84.3325 100.386C84.4789 100.287 84.6301 100.189 84.7765 100.096C84.9479 99.9823 85.5986 99.5693 85.75 99.4727C85.9314 99.3594 86.1147 99.2444 86.3011 99.1311C86.4542 99.0378 86.6051 98.9498 86.7565 98.8599C86.9546 98.7416 87.1562 98.6248 87.3559 98.5082C87.5056 98.4233 87.6534 98.3367 87.8032 98.2484C92.0896 95.8249 97.3128 93.6061 103.198 92.2069C103.408 91.8671 103.604 91.5144 103.774 91.1496C105.749 86.8955 102.626 82.6346 97.1113 81.9151C102.438 80.7791 108.102 77.2613 109.257 74.666C110.683 71.4547 111.626 65.8247 97.7604 64.4072C96.4604 64.2744 95.0709 64.2036 93.6115 64.1909L93.6103 64.1915ZM94.2135 72.0165C96.8924 72.3014 98.1654 74.3831 96.5047 77.2864C95.7492 78.5973 94.2132 79.6967 92.228 80.2881C92.4643 79.9466 92.6939 79.5484 92.9086 79.082C94.6225 75.3991 93.3063 73.7822 90.0684 73.7538C90.9486 72.4212 91.4295 72.0248 91.4295 72.0248L94.2135 72.0165ZM84.5177 84.8555H88.6208C91.9204 84.8555 93.7559 86.7144 91.6957 91.15C90.4461 93.8418 88.1767 95.1006 86.0767 95.6204C86.8721 94.9474 87.5759 94.0765 88.1017 92.9455C90.1583 88.5114 88.3263 86.6524 85.0233 86.6524H83.634C83.9152 86.0578 84.2115 85.4568 84.5177 84.8555Z" fill="white"/>
<path d="M90.0669 73.7539C89.2133 75.0431 87.9839 77.2082 86.4446 80.7561H88.9303C90.115 80.7561 91.2265 80.5847 92.2266 80.2882C92.4629 79.9467 92.6926 79.5485 92.9072 79.0821C94.6211 75.3993 93.3049 73.7823 90.0669 73.7539ZM83.6325 86.6526C81.3446 91.5014 79.9219 95.9422 79.9219 95.9422H83.4661C84.2299 95.9422 85.1367 95.8589 86.0751 95.6207C86.8705 94.9477 87.5743 94.0768 88.1001 92.9458C90.1568 88.5117 88.3247 86.6527 85.0218 86.6527L83.6325 86.6526Z" fill="#24135F"/>
<path d="M92.2644 66.2522C90.2099 66.2576 87.7227 66.3752 85.0232 66.7368C82.1744 67.1183 68.327 68.5291 56.5352 74.2907C66.8468 71.7772 79.0337 70.8559 86.7483 70.5762C89.9931 70.4613 93.5574 70.5628 93.5574 70.5628C95.8653 70.5628 98.0048 71.2457 98.8251 72.5932C99.6754 73.9874 99.9104 75.6598 98.3113 77.7017C97.4311 78.8277 96.3978 80.0137 93.3977 81.2364L96.8551 80.4987C102.023 79.3926 106.714 76.4858 107.792 74.2323C108.58 72.5866 108.625 71.2674 107.989 70.2231C106.693 68.0927 103.528 66.8315 97.9084 66.5449C97.9084 66.5449 95.6863 66.2431 92.2622 66.2522L92.2644 66.2522ZM87.6095 73.3759C86.0342 73.3974 80.7627 74.1757 76.6552 78.0983C72.8398 81.4747 68.7181 90.2443 65.4401 100.688C71.0792 100.095 76.1912 99.8269 76.1912 99.8269L81.5526 99.5954C82.962 99.5954 84.4445 99.5191 85.9406 99.3509C90.0506 96.8124 95.1935 94.395 101.066 92.7577C101.437 92.263 101.757 91.7401 102.011 91.1871C102.602 89.9195 102.67 88.3439 102.249 87.0981C101.615 85.2076 100.352 83.9485 96.3719 83.0157C91.1339 81.7914 83.4826 82.3311 83.4826 82.3311C85.243 78.052 86.5577 75.5498 87.8737 73.3813C87.803 73.3767 87.7145 73.3744 87.6095 73.3759ZM82.9782 83.415H88.6724C91.611 83.415 92.9623 84.6212 93.5814 85.6373C94.5515 87.228 94.3784 89.3716 93.177 92.0568C90.8591 97.2353 85.2433 97.7017 83.5576 97.7017L77.0965 97.9481C79.8969 89.0534 82.9782 83.415 82.9782 83.415Z" fill="#9A7611"/>
<path d="M129.694 82.5099C129.113 82.4867 128.517 82.5629 127.938 82.7515C125.62 83.5027 124.436 85.7666 125.294 87.8036C126.153 89.8391 128.73 90.8817 131.048 90.1254C133.368 89.3709 134.551 87.1106 133.692 85.0752C133.048 83.5462 131.437 82.5795 129.694 82.5099ZM131.277 84.7939C132.244 84.8268 133.131 85.4005 133.481 86.3162C133.95 87.5355 133.28 88.8995 131.987 89.3642C130.694 89.8256 129.271 89.2146 128.804 87.992C128.336 86.7728 129.01 85.4102 130.299 84.9487C130.622 84.8321 130.954 84.7829 131.277 84.7939Z" fill="#C8102E"/>
<path d="M129.919 83.5669C129.492 83.5604 129.055 83.6228 128.629 83.7621C126.832 84.3451 125.9 86.0604 126.549 87.5995C126.945 88.5423 127.85 89.1972 128.905 89.4237C128.386 89.0956 127.968 88.6359 127.729 88.0712C127.083 86.5421 128.016 84.8231 129.809 84.2387C130.501 84.0138 131.218 83.9885 131.874 84.1334C131.314 83.7795 130.63 83.5777 129.919 83.5669ZM151.367 90.9311L155.65 94.3871L147.681 93.6958L153.989 98.2615C147.221 96.0461 128.988 90.0664 113.881 93.8474C113.881 93.8474 130.459 93.6608 138.025 98.1814C110.021 93.6057 95.459 103.342 95.459 103.342C111.21 98.8393 123.781 100.082 127.909 100.698C121.284 102.282 129.083 107.136 133.849 109.673C134.39 111.004 135.696 113.722 134.418 116.011C134.418 116.011 135.854 114.182 136.901 111.492L140.776 114.607C152.344 113.178 160.877 115.618 170.456 115.571C177.345 115.533 182.499 114.911 186.554 113.964C171.587 107.542 142.283 104.796 137.744 105.167C137.744 105.167 135.263 105.867 138.119 108.612C134.125 107.038 130.138 104.038 129.862 102.519C129.571 100.905 132.488 100.453 139.395 101.266C165.26 104.324 187.645 108.658 190.669 115.001C190.669 115.001 192.249 107.061 179.353 99.4989C168.319 92.1349 151.367 90.9307 151.367 90.9307L151.367 90.9311Z" fill="white"/>
</svg>
