<svg width="200" height="200" viewBox="0 0 200 200" fill="none" xmlns="http://www.w3.org/2000/svg">
<g clip-path="url(#clip0_17_1021)">
<path d="M152.493 99.1889C152.493 99.1889 154.765 94.1893 153.741 88.0573C153.741 88.0573 149.427 86.4669 141.589 88.0573C141.589 88.0573 137.839 96.4589 133.065 100.549C133.065 100.549 136.704 92.0293 134.541 85.6713C134.541 85.6713 141.131 83.0593 149.202 83.6265C157.267 84.1937 159.081 85.9001 159.081 85.9001C159.081 85.9001 157.038 95.5537 152.493 99.1889H152.493ZM147.286 116.789C151.036 114.049 150.637 108.677 150.637 108.677C151.545 110.804 152.054 113.646 151.545 115.676C151.036 117.702 149.721 119.731 144.242 120.235C138.764 120.745 135.62 119.019 135.62 119.019C138.058 116.587 140.423 109.996 140.423 109.996C141.642 114.665 140.606 116.825 140.606 116.825C143.243 117.634 147.286 116.789 147.286 116.789H147.286ZM155.915 115.902C157.235 125.541 148.663 129.586 143.9 129.586C139.135 129.586 132.585 127.563 130.086 119.471C127.587 111.376 127.587 101.377 130.8 96.4965C130.8 96.4965 128.66 106.138 129.849 111.615C131.039 117.09 133.301 121.732 137.705 122.568C142.113 123.399 148.663 123.161 151.041 120.421C153.427 117.683 154.377 113.756 151.997 108.397C149.613 103.045 144.852 96.1373 152.718 89.2385C152.718 89.2385 149.259 93.4005 150.569 99.4745C151.876 105.543 154.59 106.267 155.915 115.902ZM125.143 76.0385C107.202 73.5705 92.4846 77.2349 92.4846 77.2349C106.937 72.5781 120.077 73.1601 126.555 73.9021C125.949 74.6453 125.483 75.3605 125.143 76.0385H125.143ZM124.301 80.5001C106.766 79.2857 92.8602 83.5833 92.8602 83.5833C105.504 78.7213 117.338 78.0805 124.368 78.2761C124.225 79.009 124.203 79.7601 124.301 80.5001ZM94.7658 105.852C88.0714 97.6417 90.8894 86.6697 90.8894 86.6697C90.8894 86.6697 91.1406 96.0809 99.3546 104.395C107.572 112.712 117.769 114.962 117.769 114.962C117.769 114.962 101.461 114.068 94.7654 105.852H94.7658ZM130.795 70.1117C129.872 70.7521 129.078 71.3801 128.386 72.0013C109.185 67.4665 92.393 70.6801 92.393 70.6801C113.186 65.2273 130.795 70.1117 130.795 70.1117ZM115.821 60.0645L115.825 60.0605L115.831 60.0577C116.119 59.9345 121.963 57.4929 127.929 58.8489C134.049 60.2421 137.847 64.3889 137.847 64.3889C137.847 64.3889 132.351 62.7417 122.165 62.9233C122.165 62.9233 121.765 62.1817 122.813 60.6289C122.813 60.6289 121.181 60.1521 115.819 60.0645H115.82H115.821ZM160.889 61.7613C164.021 61.1317 166.879 62.7413 168.222 63.9933C168.222 63.9933 160.981 62.6541 157.587 65.7805C157.587 65.7805 157.766 62.3837 160.889 61.7613ZM195.398 85.6409C188.323 81.7825 180.298 80.5833 174.142 80.3433C174.142 80.3433 171.637 80.3889 171.251 80.3781C171.377 79.3537 171.345 78.4357 171.183 77.6245C172.711 77.5789 174.645 77.5177 174.929 77.5037L175.161 77.4897C187.497 77.0861 194.02 80.3457 194.02 80.3457L193.394 79.8701C187.386 77.0861 181.029 76.0673 175.53 75.9117H175.31C175.31 75.9117 172.654 75.9077 170.633 75.9449C170.08 74.7777 169.271 73.8973 168.456 73.2537C171.054 73.2385 174.063 73.2469 175.797 73.3245L175.923 73.3285C185.415 73.4285 190.592 75.6769 190.592 75.6769L189.969 75.1873C185.261 73.1785 180.45 72.2689 175.94 71.9681C175.94 71.9681 170.059 71.6533 165.526 71.6797C166.839 72.6737 167.844 74.1045 167.941 76.1605C168.249 82.4937 161.707 85.0461 161.707 85.0461C163.243 84.0229 166 80.5541 165.287 76.0565C164.569 71.5645 158.747 69.4293 158.747 69.4293C158.747 69.4293 151.928 72.3837 150.448 77.9461C150.448 77.9461 150.563 72.1565 140.904 68.4061C140.904 68.4061 145.449 67.0445 150.337 67.3829C155.221 67.7269 158.747 69.4293 158.747 69.4293C158.747 69.4293 159.647 67.0489 164.44 66.2349C169.237 65.4209 174.422 66.5941 174.422 66.5941C173.465 64.8473 172.363 62.2989 167.541 60.3301C162.723 58.3613 158.4 60.1429 158.4 60.1429C158.4 60.1429 158.086 57.8165 154.583 55.5509C148.891 51.8701 133.835 49.6765 130.931 49.5185C128.033 49.3661 133.108 51.2337 135.141 52.3941C137.453 53.7097 140.04 55.9461 140.262 58.0689C140.319 58.6401 140.184 59.1365 139.929 59.5509C139.724 58.9577 139.295 58.1993 138.542 57.2313C134.418 51.9365 123.958 49.6461 116.107 50.1689C108.258 50.6929 102.02 53.6613 102.02 53.6613C102.11 54.3865 99.1254 56.9165 90.893 57.8249C83.049 58.6845 77.5126 57.2509 75.5214 56.9557L75.3702 56.9265C74.563 56.8265 73.957 56.8629 73.7034 57.4437L73.677 57.5241L73.6602 57.6321C73.6254 58.0369 73.8738 58.5957 73.8738 58.5957L73.7586 58.3753C74.3174 59.4469 77.6542 65.5973 82.0518 68.7541C82.0518 68.7541 84.6798 68.1969 87.7974 67.8613C87.7974 67.8613 39.613 91.3057 20.0918 127.935C28.5974 126.937 39.789 126.293 51.9378 127.364L51.8558 127.355H51.849C53.6034 124.405 62.407 107.93 83.343 97.8081C83.343 97.8081 67.863 108.567 62.3614 128.698C69.3606 129.885 76.5098 131.726 83.5106 134.45C106.012 143.217 124.98 152.382 146.362 152.193L149.997 152.034L149.99 152.017C144.31 140.181 138.718 134.771 138.718 134.771C142.946 135.53 146.362 134.325 146.425 134.304C146.742 134.189 147.017 134.075 147.247 133.97C154.241 130.201 155.407 123.82 155.981 119.249C156.639 113.964 155.701 110.584 155.701 110.584C155.701 110.584 167.809 94.6957 170.882 82.1985C170.882 82.1985 172.432 81.9865 173.625 82.0113C188.052 82.1737 195.937 86.1817 195.937 86.1817L195.399 85.6397L195.398 85.6409ZM179.785 58.6001C179.829 58.4989 179.864 58.4045 179.892 58.3117L179.955 58.0801L179.954 58.0689C179.675 57.2745 179.123 57.2161 177.956 57.3077C176.436 57.5959 174.904 57.8161 173.364 57.9677H173.367L173.15 57.9913L172.996 58.0053L172.423 58.0581L172.341 58.0609C170.638 58.2009 169.559 58.2077 169.559 58.2077C173.913 61.4989 174.422 66.5957 174.422 66.5957L174.645 66.4057C177.986 63.9809 179.785 58.6001 179.785 58.6001H179.785Z" fill="black"/>
<path d="M134.541 85.671C136.704 92.029 133.065 100.549 133.065 100.549C137.839 96.4586 141.589 88.057 141.589 88.057C149.427 86.4666 153.741 88.057 153.741 88.057C154.765 94.189 152.493 99.1886 152.493 99.1886C157.038 95.5534 159.081 85.8998 159.081 85.8998C159.081 85.8998 157.267 84.193 149.203 83.6262C141.131 83.059 134.541 85.671 134.541 85.671H134.541ZM160.889 61.761C157.766 62.3834 157.587 65.7802 157.587 65.7802C160.981 62.6538 168.222 63.993 168.222 63.993C166.879 62.741 164.021 61.1314 160.889 61.761ZM147.286 116.789C147.286 116.789 143.243 117.634 140.605 116.825C140.605 116.825 141.641 114.665 140.422 109.996C140.422 109.996 138.058 116.587 135.619 119.019C135.619 119.019 138.763 120.745 144.241 120.235C149.721 119.731 151.035 117.702 151.545 115.676C152.053 113.647 151.545 110.804 150.636 108.677C150.636 108.677 151.036 114.048 147.285 116.789H147.286ZM127.93 58.8482C121.964 57.4922 116.119 59.9338 115.831 60.057C116.114 59.9362 121.695 57.607 127.514 58.7606C124.207 58.1338 122.814 60.6282 122.814 60.6282C121.765 62.181 122.166 62.9226 122.166 62.9226C132.351 62.741 137.847 64.3882 137.847 64.3882C137.847 64.3882 134.05 60.2414 127.93 58.8482Z" fill="#BFC0BF"/>
<path d="M170.882 82.1995C167.809 94.6967 155.701 110.585 155.701 110.585L155.707 110.579C164.857 102.775 170.957 88.9723 173.625 82.0123C172.432 81.9875 170.882 82.1995 170.882 82.1995ZM171.251 80.3779C171.637 80.3891 174.142 80.3431 174.142 80.3431C174.374 79.5639 174.657 78.5711 174.929 77.5039C174.646 77.5179 172.711 77.5787 171.183 77.6247C171.345 78.4359 171.377 79.3531 171.251 80.3779ZM150.569 99.4743C149.259 93.4003 152.718 89.2383 152.718 89.2383C144.852 96.1371 149.613 103.044 151.997 108.397C154.377 113.755 153.427 117.682 151.041 120.42C148.663 123.161 142.113 123.398 137.705 122.568C133.301 121.732 131.039 117.09 129.849 111.615C128.661 106.137 130.8 96.4963 130.8 96.4963C127.587 101.376 127.587 111.375 130.086 119.471C132.585 127.563 139.135 129.586 143.9 129.586C148.663 129.586 157.235 125.54 155.915 115.902C154.59 106.266 151.877 105.543 150.569 99.4743ZM180.033 57.4407L180.017 57.2839L180.004 57.2035L179.961 57.0675L179.935 56.9967L179.878 56.8787L179.848 56.8219L179.773 56.7167L179.731 56.6711L179.649 56.5851L179.607 56.5463L179.511 56.4743L179.465 56.4423L179.367 56.3883L179.321 56.3619L179.221 56.3175L179.179 56.2967L179.084 56.2635L179.043 56.2511L178.951 56.2263L178.921 56.2167L178.836 56.2015L178.811 56.1959L178.746 56.1875L178.731 56.1835L178.657 56.1751C172.644 56.2403 167.707 54.2007 167.707 54.2007L167.302 54.0551C153.935 49.1651 140.061 47.7651 127.708 47.9895L127.704 47.9771C122.187 48.0283 118.159 48.4791 118.159 48.4791C100.423 49.9779 87.7086 54.2271 87.7086 54.2271C87.7086 54.2271 82.881 55.5859 76.4542 55.2655C76.4542 55.2655 74.0674 55.2239 73.5958 56.7435C73.1922 57.7111 73.1366 58.8619 74.045 61.3811C75.0934 64.2871 79.2874 69.7495 79.319 69.7899C66.6334 74.9419 33.5974 93.4659 4.00098 130.713C4.00098 130.713 10.2558 129.089 20.0926 127.937C39.6138 91.3075 87.7982 67.8631 87.7982 67.8631C84.6806 68.1987 82.0526 68.7559 82.0526 68.7559C77.655 65.5991 74.3182 59.4487 73.7594 58.3771L73.8746 58.5975C73.8746 58.5975 73.6262 58.0387 73.661 57.6339L73.6778 57.5259L73.7042 57.4455C73.9578 56.8647 74.5642 56.8287 75.371 56.9283L75.5222 56.9575C77.5138 57.2527 83.0498 58.6863 90.8938 57.8267C99.1262 56.9187 102.111 54.3883 102.021 53.6631C102.021 53.6631 108.259 50.6947 116.108 50.1707C123.959 49.6479 134.419 51.9383 138.543 57.2331C139.296 58.2007 139.725 58.9591 139.93 59.5527C140.185 59.1383 140.319 58.6419 140.263 58.0707C140.041 55.9479 137.454 53.7119 135.142 52.3959C133.109 51.2355 128.033 49.3679 130.932 49.5203C133.836 49.6783 148.891 51.8715 154.584 55.5527C158.087 57.8183 158.401 60.1447 158.401 60.1447C158.401 60.1447 162.723 58.3631 167.541 60.3319C172.363 62.3007 173.466 64.8487 174.423 66.5959C174.423 66.5959 173.914 61.4995 169.561 58.2079C169.561 58.2079 170.639 58.2011 172.343 58.0611L172.425 58.0583L172.997 58.0055L173.151 57.9915L173.368 57.9679H173.365C174.688 57.8375 176.258 57.6311 177.957 57.3079C179.125 57.2163 179.677 57.2747 179.955 58.0691L179.957 58.0803L179.893 58.3119C179.863 58.4101 179.828 58.5065 179.786 58.6003C179.786 58.6003 177.987 63.9811 174.647 66.4059L174.423 66.5959C174.423 66.5959 169.238 65.4231 164.441 66.2367C159.648 67.0507 158.748 69.4311 158.748 69.4311C158.748 69.4311 164.57 71.5663 165.289 76.0583C166.001 80.5559 163.244 84.0247 161.708 85.0479C161.708 85.0479 168.249 82.4955 167.942 76.1623C167.845 74.1063 166.841 72.6755 165.527 71.6815C170.061 71.6551 175.941 71.9699 175.941 71.9699C175.969 70.2159 175.677 68.7715 175.009 67.5207C178.489 64.5011 179.774 59.9011 179.957 58.0875L179.96 58.0847V58.0807C179.977 58.0195 180.009 57.8547 180.014 57.8187L180.024 57.7147C180.032 57.6549 180.035 57.5946 180.035 57.5343V57.4415L180.033 57.4407ZM140.904 68.4071C150.563 72.1575 150.448 77.9471 150.448 77.9471C151.928 72.3847 158.747 69.4303 158.747 69.4303C158.747 69.4303 155.222 67.7279 150.337 67.3839C145.448 67.0455 140.904 68.4071 140.904 68.4071ZM168.456 73.2539C169.272 73.8971 170.08 74.7775 170.633 75.9451C172.654 75.9075 175.31 75.9119 175.31 75.9119C175.501 75.0579 175.67 74.1983 175.787 73.3943L175.797 73.3251C174.063 73.2475 171.053 73.2391 168.456 73.2543V73.2539ZM146.425 134.305C146.363 134.325 142.947 135.53 138.718 134.772C138.718 134.772 144.31 140.182 149.991 152.017L149.997 152.034L150.219 152.02C149.67 146.626 147.367 137.592 146.834 135.921L146.425 134.305ZM99.3554 104.394C91.141 96.0795 90.8902 86.6687 90.8902 86.6687C90.8902 86.6687 88.0722 97.6407 94.7666 105.851C101.462 114.067 117.77 114.961 117.77 114.961C117.77 114.961 107.573 112.711 99.3558 104.394H99.3554ZM51.849 127.356H51.8558L51.9378 127.364C52.2442 127.391 53.2246 127.482 53.279 127.49C53.4122 127.501 55.0958 127.677 55.111 127.679C57.537 127.949 59.9548 128.289 62.3614 128.698C67.863 108.567 83.343 97.8083 83.343 97.8083C62.4074 107.931 53.6034 124.405 51.849 127.355V127.356ZM92.3934 70.6791C92.3934 70.6791 109.185 67.4655 128.386 72.0003C129.078 71.3791 129.873 70.7511 130.795 70.1107C130.795 70.1107 113.186 65.2263 92.3934 70.6791ZM92.485 77.2339C92.485 77.2339 107.202 73.5695 125.144 76.0375C125.483 75.3595 125.949 74.6443 126.556 73.9011C120.078 73.1595 106.937 72.5771 92.485 77.2339ZM127.514 58.7599C121.695 57.6063 116.114 59.9355 115.831 60.0563L115.825 60.0591L115.821 60.0631H115.82C121.182 60.1503 122.814 60.6275 122.814 60.6275C122.814 60.6275 124.208 58.1335 127.514 58.7599H127.514ZM92.8606 83.5823C92.8606 83.5823 106.767 79.2843 124.302 80.4991C124.203 79.759 124.225 79.0079 124.368 78.2751C117.338 78.0795 105.504 78.7203 92.8606 83.5823Z" fill="#0085CA"/>
</g>
<defs>
<clipPath id="clip0_17_1021">
<rect width="200" height="200" fill="white"/>
</clipPath>
</defs>
</svg>
