<svg width="200" height="200" viewBox="0 0 200 200" fill="none" xmlns="http://www.w3.org/2000/svg">
<path d="M176.14 56.888C176.14 56.888 176.121 56.9104 176.112 56.92C176.08 56.9584 176.051 57 176.016 57.0352C176.057 56.9872 176.099 56.9392 176.137 56.8848L176.14 56.888Z" fill="white"/>
<path d="M179.712 44.6169C179.717 44.2726 179.66 43.9302 179.545 43.6057C176.038 33.7945 166.521 35.0233 160.835 35.7593C159.491 35.9321 157.526 36.1849 156.71 36.0729C154.855 34.0028 152.825 32.097 150.643 30.3769C150.689 29.9307 150.631 29.4798 150.474 29.0599C150.316 28.64 150.063 28.2625 149.734 27.9573C149.434 27.6795 149.078 27.4685 148.69 27.3383C148.302 27.2081 147.891 27.1617 147.484 27.2021C147.103 27.2277 145.99 27.2565 144.931 27.2565C144.721 26.7786 144.39 26.3638 143.971 26.0533C143.075 25.3749 142.035 25.2789 141.331 25.2661C140.989 24.7527 140.499 24.3554 139.926 24.1269C134.732 22.0341 129.129 20.9845 123.279 21.0133C115.74 21.0517 107.673 22.8821 99.2978 26.4501C94.9682 25.8101 91.3042 24.6933 87.7618 23.6021C83.157 22.1877 78.8082 20.8501 73.707 20.8021C69.6238 20.7637 65.4734 21.5797 61.0222 23.2981C60.3043 23.5761 59.7195 24.1174 59.387 24.8117C58.4238 24.6069 57.6078 24.4149 57.291 24.3221C56.8986 24.1908 56.4825 24.1457 56.071 24.1899C55.6596 24.2341 55.2626 24.3665 54.907 24.5781C54.4168 24.8727 54.0249 25.3058 53.7806 25.8229C53.3614 25.8773 52.9934 25.9797 52.6606 26.1589C52.3096 26.3465 52 26.6027 51.7498 26.9122C51.4997 27.2218 51.3143 27.5784 51.2046 27.9609C51.1472 28.1622 51.1118 28.3691 51.099 28.5781C51.099 28.5977 51.099 28.6169 51.0958 28.6393C49.8126 28.9433 48.8202 29.5221 48.0202 30.0601C47.8314 30.0089 47.649 29.9577 47.4506 29.9097C47.3194 29.8777 47.201 29.8549 47.1018 29.8361L46.9994 29.8169C46.7658 29.7689 46.5674 29.7269 46.3466 29.6889C46.2188 29.6682 46.0908 29.649 45.9626 29.6313L45.857 29.6153C45.633 29.5833 45.4346 29.5541 45.217 29.5317C45.0634 29.5157 44.9162 29.5029 44.7882 29.4933L44.6922 29.4873C44.497 29.4713 44.2826 29.4521 44.049 29.4425C43.8794 29.4325 43.7162 29.4297 43.569 29.4265H43.505C43.2896 29.4197 43.0741 29.4165 42.8586 29.4169C42.6506 29.4169 42.4586 29.4229 42.2922 29.4293C42.0554 29.4393 41.841 29.4489 41.6426 29.4613C41.4602 29.4741 41.2682 29.4873 41.0602 29.5061C40.849 29.5253 40.6282 29.5481 40.4074 29.5765C40.2058 29.6025 40.0042 29.6281 39.8122 29.6565C39.6234 29.6857 39.4122 29.7205 39.1594 29.7657C38.9194 29.8105 38.737 29.8457 38.561 29.8809C38.321 29.9321 38.1002 29.9833 37.8954 30.0313C37.713 30.0761 37.5082 30.1241 37.2938 30.1817C37.057 30.2457 36.8426 30.3129 36.6346 30.3737C36.6282 30.3737 36.545 30.4025 36.545 30.4025C36.3882 30.4505 36.209 30.5049 36.0202 30.5689C35.8058 30.6425 35.601 30.7193 35.4186 30.7865L35.3578 30.8089L35.249 30.8505C35.1018 30.9049 34.9354 30.9657 34.7594 31.0393C34.5514 31.1225 34.3562 31.2121 34.1866 31.2889L34.0906 31.3337L33.9594 31.3913C33.8083 31.4557 33.6589 31.524 33.5114 31.5961C33.3066 31.6953 33.1146 31.7977 32.945 31.8873L32.8202 31.9545L32.6826 32.0281C32.5642 32.0889 32.4266 32.1593 32.2762 32.2457L32.0682 32.3673C32.001 32.3641 31.9338 32.3449 31.8634 32.3449C31.3431 32.3454 30.8325 32.4858 30.385 32.7513C30.024 32.9659 29.6707 33.1933 29.3258 33.4329C29.2138 33.5097 29.089 33.5929 28.9578 33.6889C28.7109 33.8685 28.4676 34.0531 28.2282 34.2425C28.1802 34.2809 28.1226 34.3353 28.0714 34.3769C27.745 34.4985 27.425 34.6297 27.1082 34.7897C26.9514 34.8697 26.8554 34.9209 26.7786 34.9625C26.7338 34.9881 26.6954 35.0073 26.6474 35.0361L26.4394 35.1577C26.433 35.1609 26.385 35.1897 26.3786 35.1929L26.3658 35.2025C26.353 35.2089 26.2858 35.2505 26.273 35.2569C26.1802 35.3145 26.1066 35.3625 26.049 35.4009C26.0298 35.4137 26.0074 35.4297 26.0074 35.4297C25.9754 35.4521 25.9274 35.4809 25.8762 35.5161C25.7866 35.5769 25.713 35.6313 25.6458 35.6761C25.6138 35.6985 25.5082 35.7753 25.5082 35.7753C25.425 35.8361 25.3642 35.8841 25.3098 35.9257C25.233 35.9833 25.185 36.0217 25.1338 36.0633C25.0602 36.1241 24.9866 36.1817 24.929 36.2297C24.8714 36.2777 24.8266 36.3161 24.7754 36.3577C24.7114 36.4121 24.6538 36.4633 24.6058 36.5081L24.4266 36.6713C24.3594 36.7353 24.2954 36.7929 24.241 36.8473C24.1994 36.8889 24.145 36.9401 24.0842 36.9977L23.9178 37.1673C23.889 37.1961 23.7578 37.3337 23.7578 37.3337C23.7482 37.3433 23.5882 37.5193 23.5882 37.5193L23.4378 37.6889C23.3834 37.7497 23.3322 37.8105 23.2746 37.8777C23.1844 37.984 23.0958 38.0918 23.009 38.2009C22.9162 38.3193 22.865 38.3833 22.8202 38.4441C22.7818 38.4953 22.7306 38.5625 22.689 38.6233C22.6346 38.6969 22.5866 38.7641 22.5382 38.8281L22.4074 39.0169C22.3594 39.0873 22.3114 39.1577 22.2634 39.2313L22.1322 39.4329C22.1354 39.4265 22.0006 39.6441 22.0006 39.6441C21.9942 39.6537 21.8854 39.8329 21.8854 39.8329C21.831 39.9225 21.7866 40.0025 21.7446 40.0793C21.7126 40.1337 21.6746 40.2009 21.6358 40.2745C21.5974 40.3449 21.5558 40.4217 21.5078 40.5177L21.4118 40.7065C21.3638 40.7993 21.3258 40.8857 21.287 40.9657L21.1942 41.1673C21.153 41.2601 21.1142 41.3497 21.0794 41.4297C21.0666 41.4617 20.9994 41.6185 20.9994 41.6185C20.9542 41.7273 20.9194 41.8201 20.8874 41.9033C20.8906 41.8969 20.8166 42.0921 20.8166 42.0921L20.7078 42.3961C20.6822 42.4729 20.663 42.5241 20.6438 42.5817C20.6054 42.6937 20.5738 42.8025 20.5446 42.8953C20.526 42.9535 20.509 43.0122 20.4934 43.0713C20.4586 43.1929 20.4294 43.3017 20.4038 43.4041C20.385 43.4745 20.3718 43.5193 20.3594 43.5737C20.3274 43.7017 20.3014 43.8201 20.2794 43.9257C20.2675 43.9777 20.2568 44.03 20.2474 44.0825C20.2186 44.2265 20.1958 44.3577 20.177 44.4665C20.1702 44.5081 20.161 44.5497 20.1546 44.6009C20.1286 44.7705 20.1066 44.9273 20.0934 45.0457C20.0934 45.0457 20.087 45.0809 20.0842 45.1289C19.9985 45.8595 19.9782 46.5963 20.0234 47.3305C20.0234 47.3625 20.0298 47.4265 20.033 47.4585C20.0394 47.5833 20.0554 47.7401 20.0714 47.8937C20.0714 47.9161 20.0842 47.9993 20.0874 48.0217V48.0313C20.1034 48.1529 20.1194 48.2969 20.1446 48.4505C20.1542 48.5049 20.1606 48.5561 20.167 48.5913C20.193 48.7353 20.215 48.8665 20.2442 49.0137C20.257 49.0777 20.2698 49.1289 20.2762 49.1641C20.3082 49.3113 20.3366 49.4361 20.3722 49.5769C20.3882 49.6409 20.401 49.6921 20.4138 49.7273C20.4522 49.8713 20.4874 49.9993 20.529 50.1369C20.5841 50.3243 20.6449 50.51 20.7114 50.6937C20.7402 50.7705 20.7626 50.8345 20.7818 50.8857C20.8298 51.0105 20.8746 51.1321 20.9286 51.2633C20.9542 51.3209 20.9766 51.3785 20.999 51.4265C21.063 51.5737 21.1142 51.6921 21.1722 51.8169C21.2042 51.8873 21.2362 51.9513 21.2618 52.0025C21.3499 52.1856 21.4437 52.3659 21.543 52.5433C21.6362 52.7097 21.6938 52.8121 21.751 52.9081L21.8858 53.1321C21.9526 53.2409 22.0198 53.3465 22.0838 53.4457C22.1318 53.5161 22.1798 53.5865 22.2278 53.6601C22.3498 53.8406 22.4768 54.0177 22.6086 54.1913C22.6858 54.2937 22.7658 54.3993 22.8458 54.4985C22.9002 54.5657 22.9578 54.6393 23.0154 54.7097L23.2682 55.0105L23.4506 55.2185C23.5338 55.3113 23.6202 55.4041 23.7194 55.5097C23.7962 55.5929 23.8602 55.6601 23.921 55.7209C24.017 55.8201 24.113 55.9129 24.1994 55.9993L24.4138 56.2041C24.5066 56.2905 24.6026 56.3801 24.721 56.4857C24.7434 56.5049 24.945 56.6841 24.945 56.6841C25.057 56.7833 25.169 56.8761 25.265 56.9561C25.2586 56.9497 25.4954 57.1485 25.4954 57.1485C25.6106 57.2413 25.7162 57.3213 25.8378 57.4173C25.921 57.4813 26.001 57.5421 26.0874 57.6061C26.209 57.6989 26.3274 57.7821 26.4394 57.8621L26.7018 58.0477C26.8362 58.1405 26.961 58.2237 27.0794 58.3037L27.1402 58.3421L27.3482 58.4797C27.4762 58.5597 27.5946 58.6333 27.7098 58.7037C27.7514 58.7293 27.8218 58.7709 27.8218 58.7709L28.0266 58.8957C28.1706 58.9821 28.3082 59.0589 28.4394 59.1357C28.4522 59.1421 28.5194 59.1805 28.5194 59.1805C28.5834 59.2189 28.6602 59.2605 28.7434 59.3085C28.8682 59.3757 28.9898 59.4429 29.1082 59.5037L29.1882 59.5453L29.2778 59.5933L29.4826 59.7021C29.6458 59.7853 29.8026 59.8621 29.953 59.9357C29.969 59.9453 30.049 59.9837 30.049 59.9837C30.1098 60.0157 30.1802 60.0477 30.257 60.0861C30.4298 60.1693 30.6058 60.2493 30.7722 60.3261C30.8042 60.3389 30.8746 60.3741 30.8746 60.3741C30.897 60.3869 30.9322 60.3997 30.961 60.4125C30.9162 63.2125 30.1898 64.5277 29.0954 66.4861C28.1386 68.2013 26.945 70.3325 26.081 73.7853C25.9876 74.1572 25.9691 74.544 26.0268 74.9231C26.0845 75.3022 26.2172 75.666 26.417 75.9933C26.6171 76.3209 26.8802 76.6056 27.1911 76.8308C27.502 77.056 27.8545 77.2173 28.2282 77.3053C28.3274 77.3277 28.3754 77.3533 28.3914 77.3597C29.0026 78.0445 28.5546 81.8429 28.3114 83.8845C27.7642 88.5057 27.0954 94.1889 30.0522 98.2113L30.2794 100.899C30.2474 100.966 30.2218 101.018 30.2218 101.018C30.2218 101.021 30.1866 101.091 30.1866 101.091C30.1162 101.232 30.0586 101.357 30.0042 101.475C29.9818 101.523 29.9722 101.546 29.9722 101.546C29.9018 101.702 29.8474 101.821 29.7994 101.936C29.8058 101.92 29.761 102.026 29.761 102.026L29.6106 102.384L29.5786 102.47L29.569 102.493C29.5146 102.63 29.4698 102.746 29.4314 102.854C29.4314 102.861 29.4058 102.922 29.4058 102.928L29.3994 102.947C29.3482 103.098 29.3066 103.21 29.2746 103.318C29.2714 103.331 29.249 103.395 29.2458 103.408L29.2394 103.427C29.2042 103.539 29.1658 103.664 29.1306 103.795C29.1178 103.84 29.1082 103.882 29.0986 103.914C29.0602 104.058 29.0346 104.17 29.009 104.275C28.9962 104.33 28.9866 104.374 28.9802 104.406C28.9482 104.56 28.929 104.672 28.9098 104.781C28.9098 104.8 28.8938 104.88 28.8906 104.902V104.915C28.8711 105.037 28.854 105.158 28.8394 105.28C28.833 105.341 28.8266 105.398 28.8266 105.43C28.817 105.546 28.8074 105.667 28.801 105.805C28.801 105.83 28.7978 105.92 28.7978 105.946V105.958C28.7978 106.051 28.7914 106.179 28.7978 106.323C28.7978 106.352 28.801 106.445 28.8042 106.474V106.486C28.8106 106.595 28.817 106.726 28.8298 106.867C28.8362 106.928 28.8426 106.986 28.849 107.021C28.8618 107.13 28.8778 107.254 28.9034 107.398C28.913 107.453 28.9258 107.514 28.9322 107.552C28.9546 107.664 28.977 107.782 29.009 107.917C29.0314 108.006 29.0474 108.058 29.057 108.093C29.0858 108.195 29.1178 108.307 29.1562 108.435C29.185 108.525 29.2042 108.576 29.217 108.611C29.2522 108.707 29.2938 108.826 29.345 108.954C29.377 109.034 29.4058 109.094 29.425 109.136C29.4634 109.219 29.5114 109.331 29.5722 109.456C29.6074 109.526 29.6362 109.581 29.6554 109.619C29.7119 109.729 29.7705 109.838 29.8314 109.946C29.8666 110.006 29.8986 110.054 29.9178 110.086C29.937 110.118 29.9466 110.131 29.9466 110.131C29.9914 110.205 30.049 110.301 30.1194 110.403C30.1642 110.47 30.1994 110.522 30.225 110.557C30.2939 110.66 30.3654 110.761 30.4394 110.861C30.4906 110.928 30.529 110.979 30.5578 111.014C30.6346 111.113 30.7125 111.212 30.7914 111.309C30.8362 111.363 30.8842 111.418 30.9194 111.456C30.9514 111.491 30.9834 111.53 30.9834 111.53L31.1626 111.734C31.217 111.795 31.2714 111.85 31.3162 111.898C31.345 111.93 31.3834 111.968 31.3834 111.968C31.4314 112.019 31.489 112.08 31.5562 112.147C31.6234 112.218 31.6874 112.278 31.7418 112.326L31.8058 112.39C31.8538 112.438 31.9114 112.496 31.9786 112.557C32.065 112.637 32.1354 112.698 32.1962 112.755L32.2794 112.829C32.321 112.867 32.369 112.912 32.4266 112.963C32.5226 113.046 32.6026 113.114 32.6762 113.174L32.7242 113.213C32.7946 113.274 32.849 113.318 32.9066 113.366C33.0058 113.446 33.1018 113.523 33.1914 113.594L33.2458 113.638L33.297 113.68L33.4026 113.763C33.553 113.878 33.7034 113.994 33.8794 114.122L33.9466 114.173C33.9786 114.195 34.017 114.221 34.049 114.246C35.3034 121.927 37.6746 127.863 41.1082 131.892C41.4699 132.316 41.9465 132.627 42.4807 132.787C43.0148 132.947 43.5839 132.95 44.1194 132.794C45.3226 132.442 46.401 132.253 47.3226 132.224C48.6794 132.183 49.5914 132.48 50.0302 133.111C50.5102 133.796 50.4814 134.868 50.2734 135.38C50.0524 135.929 50.0051 136.532 50.1378 137.109C50.2706 137.686 50.577 138.208 51.0158 138.605C60.779 147.454 66.4526 148.75 70.2062 149.607C73.0766 150.263 74.1582 150.51 76.219 154.02C78.3502 157.924 79.685 161.37 80.8626 164.41C83.8354 172.087 86.1842 178.152 98.0114 179.233C100.178 179.432 102.635 179.473 105.522 179.361C105.95 179.351 106.378 179.327 106.805 179.288C107.176 179.256 107.522 179.204 107.819 179.16C107.874 179.153 107.96 179.144 108.063 179.128C108.802 179.005 109.531 178.831 110.245 178.606C110.386 178.577 110.517 178.545 110.636 178.51C110.658 178.504 110.681 178.5 110.7 178.494C110.703 178.494 110.706 178.494 110.713 178.491C110.969 178.417 111.183 178.337 111.385 178.241C111.522 178.177 111.634 178.12 111.724 178.072L111.829 178.02C111.769 178.052 111.727 178.068 111.666 178.097C111.957 177.972 112.249 177.841 112.524 177.7C112.45 177.738 112.374 177.772 112.297 177.803C112.408 177.755 112.517 177.702 112.623 177.643C113.46 177.216 114.253 176.708 114.991 176.126C115.633 175.617 116.233 175.056 116.783 174.449C116.86 174.363 116.956 174.26 117.055 174.145C117.215 173.96 117.356 173.787 117.493 173.617C117.602 173.48 117.698 173.348 117.785 173.233C117.785 173.233 117.826 173.176 117.829 173.172C118.004 172.936 118.173 172.695 118.335 172.449C118.501 172.2 118.633 171.994 118.754 171.796C118.981 171.417 119.197 171.03 119.401 170.638L119.452 170.542C119.5 170.455 119.551 170.356 119.605 170.241C119.781 169.882 119.954 169.508 120.114 169.13C120.153 169.038 120.185 168.964 120.21 168.897L120.245 168.807C120.374 168.49 120.497 168.171 120.617 167.85C120.617 167.844 120.639 167.783 120.639 167.783L120.745 167.486C120.825 167.252 120.901 167.031 120.969 166.817C121.112 166.611 121.226 166.386 121.308 166.148L121.634 165.191C122.879 161.454 123.231 159.092 123.378 156.993C127.109 155.108 130.249 150.689 133.541 146.046C135.983 142.599 139.023 138.308 141.052 137.581C141.148 137.549 141.238 137.511 141.331 137.466C142.87 136.727 144.799 136.314 146.841 135.872C148.732 135.466 150.876 135.002 153.023 134.212C152.917 134.25 152.809 134.283 152.7 134.311C153.145 134.202 153.551 134.032 153.932 133.831C153.951 133.837 153.971 133.85 153.993 133.86C154.125 133.915 154.261 133.961 154.399 133.997C154.419 134.004 154.441 134.004 154.463 134.01C154.579 134.036 154.697 134.058 154.819 134.068C154.863 134.074 154.908 134.074 154.953 134.077C155.007 134.077 155.059 134.087 155.113 134.087C155.145 134.087 155.174 134.077 155.203 134.077C155.323 134.073 155.442 134.062 155.561 134.042C155.615 134.032 155.673 134.029 155.727 134.016C155.878 133.984 156.026 133.939 156.169 133.882C156.188 133.876 156.207 133.872 156.227 133.863C156.377 133.799 156.524 133.725 156.665 133.636C156.678 133.626 156.691 133.616 156.707 133.607C156.711 133.606 156.716 133.604 156.719 133.6C156.715 133.601 156.71 133.604 156.707 133.607L156.735 133.588C158.614 132.372 159.66 130.743 160.268 129.245C160.46 129.149 160.646 129.04 160.812 128.906C161.036 128.751 161.248 128.578 161.446 128.391C161.468 128.368 161.526 128.314 161.593 128.244C161.843 127.978 162.057 127.7 162.239 127.402C162.265 127.36 162.313 127.274 162.339 127.232C162.339 127.232 162.329 127.252 162.316 127.274C162.403 127.124 162.479 126.973 162.553 126.823C163.009 126.591 163.399 126.249 163.689 125.828C164.007 125.359 164.311 124.881 164.601 124.394L164.681 124.314C165.6 123.402 167.305 121.703 167.792 118.442C167.811 118.317 167.83 118.176 167.853 118.013C167.894 117.684 167.936 117.319 167.974 116.906C168.605 115.277 169.328 113.958 170.032 112.685C170.819 111.258 171.561 109.91 172.102 108.288C172.189 108.026 172.259 107.798 172.323 107.568C172.336 107.52 172.349 107.472 172.355 107.44C172.419 107.203 172.467 107.005 172.509 106.816C172.525 106.742 172.537 106.678 172.547 106.627C172.598 106.384 172.63 106.205 172.659 106.032C172.675 105.939 172.685 105.856 172.697 105.786C172.733 105.555 172.755 105.379 172.771 105.206C172.781 105.114 172.79 105.021 172.797 104.941C172.819 104.691 172.829 104.515 172.838 104.352C172.845 104.234 172.848 104.112 172.851 104.003C172.857 103.814 172.861 103.632 172.861 103.459C172.861 103.331 172.861 103.203 172.857 103.075C172.854 102.89 172.845 102.707 172.835 102.525C172.829 102.384 172.819 102.243 172.809 102.112C172.786 101.782 172.754 101.452 172.713 101.123C172.69 100.931 172.664 100.739 172.637 100.547C172.617 100.403 172.595 100.25 172.566 100.083C172.534 99.8785 172.496 99.6769 172.461 99.4849C172.425 99.2993 172.4 99.1585 172.368 99.0017C172.325 98.791 172.279 98.5808 172.23 98.3713L172.214 98.2913L172.118 97.8721C172.055 97.6052 171.987 97.3396 171.913 97.0753L171.808 96.6785C171.747 96.4513 171.68 96.2273 171.619 96.0129L171.561 95.8145L171.446 95.4209C171.446 95.4209 171.427 95.3601 171.398 95.2737C171.703 95.0073 171.948 94.68 172.118 94.3129C172.289 93.9458 172.38 93.5471 172.387 93.1425C172.63 78.6557 171.273 69.1645 167.917 62.5373C168.016 62.4957 168.118 62.4573 168.214 62.4157L168.342 62.3613L168.48 62.3069C168.579 62.2685 168.691 62.2237 168.813 62.1725C169.158 62.0253 169.469 61.8749 169.769 61.7341C169.785 61.7245 169.821 61.7117 169.853 61.6957C169.926 61.6637 170.019 61.6221 170.118 61.5709C170.447 61.4083 170.772 61.2365 171.091 61.0557L171.126 61.0365C171.181 61.0077 171.254 60.9693 171.337 60.9245C171.721 60.7069 172.057 60.4925 172.307 60.3325C172.281 60.3485 172.297 60.3389 172.297 60.3389C172.339 60.3133 172.409 60.2717 172.486 60.2205C172.806 60.0091 173.119 59.7871 173.424 59.5549C173.411 59.5645 173.465 59.5293 173.529 59.4781C173.833 59.2445 174.131 58.9981 174.441 58.7229C174.409 58.7517 174.397 58.7613 174.365 58.7901C174.403 58.7581 174.454 58.7165 174.515 58.6621C174.807 58.3981 175.088 58.1216 175.357 57.8333C175.328 57.8653 175.309 57.8845 175.28 57.9133C175.312 57.8845 175.35 57.8397 175.382 57.8077C175.648 57.5198 175.9 57.2196 176.137 56.9081C176.153 56.8889 176.169 56.8729 176.182 56.8537C177.465 55.1705 178.201 53.2665 178.381 51.1929C178.601 50.877 178.804 50.549 178.989 50.2105C179.001 50.1849 179.014 50.1625 179.027 50.1369C180.016 48.2745 180.249 46.3353 179.734 44.6073L179.712 44.6169ZM110.345 178.587C110.345 178.587 110.325 178.59 110.316 178.593C110.357 178.58 110.402 178.571 110.441 178.558L110.345 178.587ZM155.097 134.096C155.046 134.096 154.998 134.09 154.95 134.087C155.027 134.09 155.107 134.087 155.183 134.087C155.155 134.087 155.126 134.096 155.097 134.096ZM175.513 49.9801C175.641 54.9689 171.657 58.6301 163.561 60.9629C167.453 66.3773 169.769 75.1133 169.469 93.1073L167.27 92.2817C173.357 108.246 167.571 108.138 164.662 117.552C164.662 117.562 164.662 117.572 164.659 117.581C164.463 118.896 164.038 119.658 163.567 120.199C162.844 121.716 162.079 123.04 161.283 124.196C160.892 124.762 161.094 121.872 160.691 122.362C160.31 122.826 160.598 125.738 159.027 126.621C158.559 127.098 158.953 124.324 158.47 124.72C158.089 125.034 158.377 129.114 155.094 131.2C156.479 128.378 155.884 128.183 155.369 128.471C154.892 128.736 153.654 131.108 152.003 131.508C147.753 133.076 143.481 133.226 140.06 134.868C133.909 137.066 127.417 153.55 120.565 154.967C120.45 157.847 120.329 160.158 118.559 165.204C118.498 165.262 118.434 165.316 118.373 165.374C116.239 172.632 111.916 176.334 105.394 176.478C83.269 177.326 87.5538 168.759 78.7218 152.599C72.8718 142.618 70.0782 152.004 52.9422 136.468C54.0558 133.703 52.9422 127.22 43.2906 130.023C40.017 126.18 37.8186 120.368 36.6986 112.589C30.6314 108.525 30.7754 106.01 33.3098 101.306L32.7434 96.9793C27.1946 90.7265 35.4602 76.0381 28.8682 74.4893C30.7818 66.8445 34.3274 66.7549 33.7802 58.4573C16.0294 51.6921 23.8314 37.7849 30.1162 36.7961V36.7993C30.5674 36.5497 31.073 36.3193 31.6362 36.1017C37.1882 31.9097 44.1002 31.5705 48.4842 33.2473C49.9342 32.3033 50.9774 31.2601 53.099 31.3177C53.5502 31.0521 55.3806 31.2857 55.819 31.0393C56.331 30.7513 53.5406 28.9753 54.0366 28.7125C54.4974 28.4665 59.6302 29.6985 60.075 29.4713C60.4526 29.2793 56.3918 27.0713 56.3918 27.0713C56.3918 27.1413 63.6942 28.7957 64.3758 28.4981C65.0606 28.1977 61.419 26.2549 62.0718 26.0021C77.8478 19.9157 84.901 27.6053 100.095 29.4901L100.242 29.1993C116.594 22.1781 129.321 22.9753 138.851 26.8153C139.513 27.0805 136.05 27.1929 137.494 27.9765C138.249 28.7065 141.478 27.7881 142.236 28.3705C142.662 28.5909 141.26 29.7717 142.102 29.9801C142.643 30.2841 147.798 30.1177 147.769 30.0889C147.558 30.5753 144.713 31.3081 145.254 31.6825C145.811 32.0665 147.843 31.8649 148.364 32.2649C150.979 34.2617 153.19 36.4217 155.014 38.5113C158.55 40.8825 172.771 33.2537 176.822 44.5881H176.813C177.869 46.2425 176.992 48.2361 175.517 49.9833L175.513 49.9801Z" fill="white"/>
<path d="M178.992 50.1751C179.005 50.1527 179.018 50.1271 179.03 50.1047C179.024 50.1207 179.014 50.1335 179.008 50.1463C179.002 50.1559 179.002 50.1655 178.995 50.1751H178.992ZM172.105 108.224C172.096 108.253 172.089 108.272 172.08 108.298L172.102 108.224H172.105ZM51.0923 28.5783C51.0923 28.5431 51.0923 28.5079 51.0987 28.4727L51.0891 28.5719C51.0891 28.5975 51.0859 28.6167 51.0859 28.6391C51.0859 28.6199 51.0923 28.6007 51.0923 28.5783ZM178.989 50.1819C178.989 50.1819 178.973 50.2075 178.967 50.2203C178.951 50.2491 178.938 50.2779 178.922 50.3035C178.944 50.2651 178.97 50.2235 178.992 50.1819H178.989ZM112.658 177.629C112.658 177.629 112.626 177.642 112.613 177.652C112.581 177.668 112.552 177.687 112.524 177.703C112.568 177.681 112.616 177.655 112.661 177.629H112.658Z" fill="white"/>
<path d="M147.385 42.2095C145.744 39.0319 143.373 37.7967 140.275 38.5039C140.275 28.2031 115.279 26.9967 109.375 31.0479C114.003 32.2671 118.675 32.6927 123.395 32.3215C118.441 35.7135 111.273 37.0383 105.283 34.7951C101.913 39.9919 106.889 46.5839 116.14 40.8655C118.255 40.2031 129.801 35.6175 137.603 45.7839C120.95 41.5247 116.057 55.7523 110.62 50.4815C109.167 48.4495 111.283 40.6959 99.5482 52.6803C101.228 42.3791 100.518 36.6511 99.0298 31.5631L99.129 31.3679C90.2518 28.6063 81.599 27.2623 73.1734 27.3391L77.2246 31.0447C73.4358 31.3871 70.6102 31.7039 66.639 31.8159C65.5222 31.8703 62.533 31.7199 61.9954 31.8159C61.333 31.9311 63.4194 32.7471 62.7762 32.8815C62.245 32.9935 57.8002 31.7583 55.5026 32.5391C57.9122 33.0511 59.397 33.6751 59.029 33.7775C56.7954 34.3919 55.7778 34.9295 53.909 35.9567L54.7282 41.0415C49.2306 37.8287 41.5154 36.1903 31.5854 36.1295C31.6014 36.1167 31.6174 36.1071 31.6302 36.0975C31.0702 36.3151 30.5614 36.5455 30.1102 36.7951C21.723 48.7695 29.6622 51.7263 34.9074 53.7459C30.7822 49.5311 30.6926 45.2239 35.9794 42.7247C40.661 41.4575 44.6098 43.5407 47.829 48.9743C38.7282 56.8819 38.693 66.9043 40.0306 83.1479L32.747 96.9815L32.7406 96.9751L33.307 101.301C33.6206 103.436 35.035 104.169 37.5538 103.5C36.4686 105.797 37.179 108.991 37.5538 110.835C38.1298 109.519 39.0002 107.996 40.9746 106.885C41.7266 116.121 44.293 125.036 51.0354 123.731C52.2322 125.247 54.0146 127.129 56.0978 129.068C56.709 129.638 57.7714 133.855 58.4242 134.428C59.029 134.956 59.2242 131.839 59.8546 132.358C60.5554 132.934 60.9778 138.061 61.6946 138.608C61.797 138.809 62.501 134.127 64.0818 135.59C70.9686 140.435 77.4966 142.838 76.5782 135.484C39.3234 119.772 48.8402 84.0215 48.8402 84.0215L45.3362 87.4103C44.7442 81.6759 44.581 76.5043 44.7922 71.9379C44.837 70.9619 46.4082 68.2642 46.4882 67.3426C47.6114 65.1186 48.229 63.1315 44.5106 66.6003C44.389 62.6355 48.2898 60.9907 48.6002 59.7843C48.8082 58.9746 46.7602 59.1635 47.0034 58.4275C51.205 56.0659 50.1522 55.3747 50.5842 54.4595C51.029 53.5187 49.1186 53.6371 49.637 52.8755C51.6274 49.9535 54.1426 48.3727 57.0354 48.2543C53.797 52.9555 50.0306 62.1875 51.333 70.6803C64.2354 67.5155 56.1298 55.1539 65.9702 48.6511C70.5526 46.3599 73.2886 45.8671 82.847 50.7503C80.1686 51.1695 75.9382 51.7871 75.9574 54.997C77.6982 59.413 88.4118 53.7811 91.6406 65.8386C88.1366 63.9475 86.6262 63.397 84.0054 64.8307C90.4726 66.9683 94.457 68.8915 91.5734 76.1715C88.687 70.6771 86.0918 69.6627 83.0006 71.8707C82.5622 70.2707 81.9254 69.1123 81.1702 68.2131C80.735 74.3635 77.0806 76.581 71.1606 72.565C71.6822 73.5346 72.5046 74.597 73.6118 75.8195C71.5862 75.1218 70.2198 74.2418 69.5126 73.1763C68.8246 74.437 69.4102 75.7011 71.263 76.9779C68.0822 82.9047 72.751 83.3175 76.047 80.9811C80.1686 75.7619 82.7798 74.2514 85.4582 74.6322C82.367 81.5318 73.7142 87.5767 78.7958 88.6743C75.823 92.1495 75.7974 93.6791 78.7158 93.2567C76.8694 96.1367 76.735 98.0151 78.7958 97.4647C77.0102 108.041 79.2534 111.411 82.9174 113.811C79.759 118.479 81.1254 124.742 85.4774 132.166V132.182C85.5222 131.961 85.5766 131.747 85.6342 131.542C85.1382 122.214 85.8134 121.676 88.0118 116.067C89.6214 117.011 90.3894 120.959 92.495 121.766C93.3334 118.873 94.1562 117.078 94.9626 116.387L97.4298 118.585L99.449 117.731L100.841 118.358L102.185 117.462L104.563 118.268L106.851 116.566C107.443 116.185 107.935 117.859 108.332 121.587L111.337 117.727C112.739 120.121 113.113 125.715 112.46 134.505C115.532 130.671 117.58 127.007 118.249 123.337C119.225 119.983 118.492 117.023 116.051 114.457L120.764 116.991V116.953C123.417 117.612 125.299 116.719 125.917 114.127C133.504 125.027 121.5 137.676 118.684 145.853L120.278 148.688C128.144 140.477 132.637 133.987 133.75 129.225L136.585 132.028C137.67 130.684 138.406 128.38 138.784 125.116C151.907 130.55 153.13 116.771 161.079 116.041L163.597 120.118C163.584 120.143 163.571 120.169 163.559 120.198C164.029 119.66 164.455 118.895 164.65 117.58C164.65 117.571 164.65 117.561 164.653 117.551V117.558L163.69 113.987C165.703 104.338 165.565 97.1959 163.277 92.5559C167.459 83.6631 167.095 73.3619 162.176 61.6467C152.669 59.1667 149.235 53.9475 151.875 45.9855C156.819 51.3423 173.306 47.4959 175.501 49.9695V49.9759C176.976 48.2287 177.853 46.2319 176.797 44.5807C169.693 45.4319 165.981 37.6431 147.373 42.2095H147.385ZM37.6754 103.378C37.9346 98.6423 37.4514 91.4999 38.901 89.3079C42.405 95.0327 42.7378 97.4263 37.6754 103.378ZM85.8134 53.2691C91.7014 47.8863 94.3578 41.2911 93.7814 33.4863C96.2778 36.5167 96.7354 41.3263 95.1546 47.9087C93.3686 65.3555 98.313 54.9139 99.8266 58.0723C100.63 59.3971 99.7562 62.6995 98.5914 66.7283L93.3718 64.6675C92.5846 60.1875 90.0662 56.3858 85.8166 53.2658L85.8134 53.2691ZM112.812 114.038C112.812 114.038 94.2938 112.726 85.4422 114.038L87.8134 112.233L83.9766 111.155C77.8006 100.162 84.527 87.1479 87.999 83.4743C87.5254 85.9863 86.5014 88.2551 90.2902 88.7095C94.3834 87.3815 96.3962 89.0935 96.3258 93.8519C94.1914 92.9975 93.0038 93.6695 92.7702 95.8647L88.1878 93.2023C86.5814 95.4295 87.2822 97.2535 90.2934 98.6775C91.9382 99.4263 95.529 97.0391 97.353 99.0487L95.993 102.271C98.377 102.457 104.505 99.7015 103.385 105.455L106.518 98.9559C111.446 97.1351 113.676 94.2967 113.206 90.4439C118.067 96.1463 111.9 99.5159 110.822 102.645L113.673 101.154C116.572 104.063 115.404 107.666 110.169 111.958L112.815 114.041L112.812 114.038ZM103.257 90.3959C105.113 87.1959 106.739 86.6935 108.62 89.1735C109.756 91.1799 109.724 93.0679 108.527 94.8343C107.359 96.0439 101.99 94.7799 103.257 90.3959ZM147.584 100.652C151.974 100.018 155.011 96.2487 156.695 89.3431L161.776 96.9495C159.36 98.3351 157.987 102.287 157.651 108.805C156.893 111.465 152.615 113.948 150.077 115.315C149.337 115.711 153.834 111.414 150.797 108.949C148.925 110.838 144.592 118.207 144.448 118.063C142.963 118.643 145.424 113.779 143.856 114.451C142.947 114.838 139.129 120.502 138.227 120.959C137.36 121.398 138.928 117.398 138.083 117.919C136.566 118.867 134.614 123.286 133.273 124.63C133.734 118.857 132.547 114.511 129.712 111.593C127.315 110.684 125.789 110.902 121.679 111.817C122.412 106.917 122.211 102.041 121.071 97.1895C128.355 112.486 145.017 87.3271 143.049 82.5623C138.601 88.4151 132.259 87.5319 124.029 79.9091C139.043 77.7619 139.798 75.781 133.321 69.7971C133.417 71.125 130.784 73.0419 125.648 75.653C128.323 73.1698 129.651 71.1091 129.632 69.4707C129.197 65.7843 124.057 62.7027 119.683 66.7667C120.31 66.2195 121.18 65.9155 122.214 66.0371L123.174 68.0979L125.785 66.7251C129.766 69.0611 126.745 75.9283 120.7 72.7699C118.214 71.0195 118.143 68.4146 119.436 67.0066C118.358 68.0819 117.331 69.5987 116.444 71.6723C115.279 69.653 110.703 70.9235 110.857 82.7511C107.833 74.0979 105.823 64.8498 100.236 70.5746L106.556 53.9667C108.342 56.9075 108.588 58.1971 115.071 53.541C118.505 59.5219 124.854 54.4563 126.611 62.1939C120.015 61.2339 116.719 63.4291 116.31 68.2387C119.033 63.6243 122.223 62.8339 126.422 63.6947C127.952 60.8339 130.429 60.0371 135.171 66.2707C140.902 68.1171 141.318 60.6099 133.661 56.9715C133.667 56.9331 133.68 56.8979 133.686 56.8595C130.291 55.1507 128 55.1058 125.472 55.4322C128.035 50.347 131.965 49.7743 137.254 53.685C139.545 53.1218 141.696 53.2883 139.574 50.8687C163.978 57.8707 152.464 92.0182 147.587 100.649L147.584 100.652Z" fill="#E64100"/>
<path d="M93.1642 161.453L93.3242 161.562C99.6986 165.891 105.683 162.624 108.035 161.475C115.686 163.216 116.841 152.41 114.893 142.899C113.193 148.636 111.03 155.36 108.723 156.41C110.563 145.011 110.345 134.364 107.98 126.969C104.211 124.323 101.923 130.112 98.0666 128.899C96.457 129.168 94.5402 124.035 92.0602 125.267C87.1258 134.278 89.8394 145.859 94.4378 156.394C96.8826 156.858 98.7642 156.602 100.086 155.629L102.463 157.021L104.751 156.483L108.163 156.752L103.945 159.13L101.299 157.917C99.0874 159.811 98.6298 159.734 95.8682 157.917L93.2218 159.757L92.6842 157.469C88.0186 155.45 89.1834 152.982 86.985 147.334C86.9498 147.155 86.9178 146.982 86.8826 146.806C84.6682 156.272 86.4794 163.12 93.161 161.45L93.1642 161.453ZM78.6038 66.1392C78.2645 65.9421 77.9198 65.7542 77.5702 65.576C76.991 65.4992 76.431 65.4512 75.8934 65.4512L76.8278 68.04L78.6038 66.1424V66.1392ZM71.5702 93.9988C63.0966 91.3396 58.1138 86.1104 56.6322 78.3152C54.6258 82.3024 54.037 85.6848 54.501 88.6224C54.5714 89.0768 54.0658 92.562 54.1874 92.9972C54.357 93.5988 55.173 91.1412 55.4322 91.7044C55.621 92.1204 54.1874 95.97 55.8386 97.3716C56.1746 97.9444 56.7858 94.05 57.2082 94.5876C57.637 95.1316 58.6354 98.8468 59.1442 99.3588C59.637 99.858 59.637 97.1572 60.1974 97.6276C60.655 98.0148 60.7926 104.559 63.439 106.3C63.855 106.61 62.863 100.101 64.6838 100.68C69.663 105.253 66.335 117.976 74.9302 119.65C71.7846 109.631 70.0662 98.4788 71.5766 93.9988H71.5702ZM112.712 169.034C104.504 172.698 93.9854 172.118 91.2718 168.422C91.3742 172 93.9854 175.408 104.241 174.429C110.565 173.715 113.384 171.917 112.712 169.034Z" fill="#E64100"/>
<path d="M113.666 101.151L110.815 102.643C111.897 99.513 118.063 96.1434 113.199 90.441C113.669 94.2938 111.439 97.1322 106.511 98.953L103.378 105.453C104.498 99.6986 98.3698 102.454 95.9858 102.268L97.3458 99.0458C95.5218 97.0362 91.9314 99.4234 90.2866 98.6746C87.2786 97.2506 86.5746 95.4266 88.181 93.1994L92.7634 95.8618C93.0002 93.6666 94.1842 92.9978 96.3186 93.849C96.389 89.0938 94.3794 87.3786 90.2834 88.7066C86.4946 88.2522 87.5186 85.9834 87.9922 83.4714C84.5202 87.145 77.7902 100.159 83.9698 111.152L87.8066 112.23L85.4354 114.035C94.2866 112.723 112.805 114.035 112.805 114.035L110.159 111.952C115.394 107.661 116.559 104.057 113.663 101.148L113.666 101.151ZM98.587 66.7322C99.7518 62.7066 100.629 59.4042 99.8222 58.0758C98.3118 54.9174 93.3646 65.3562 95.1502 47.9126C96.731 41.3302 96.2702 36.5206 93.7774 33.4902C94.3566 41.295 91.7006 47.887 85.809 53.2726C90.0558 56.3926 92.5742 60.1946 93.3646 64.6746L98.5838 66.7354L98.587 66.7322Z" fill="#0B162A"/>
<path d="M139.571 50.875C141.693 53.2942 139.542 53.1246 137.251 53.691C131.961 49.7802 128.032 50.353 125.469 55.4382C127.997 55.1118 130.288 55.1566 133.683 56.8654C133.677 56.9038 133.664 56.9358 133.657 56.9774C141.315 60.6158 140.899 68.123 135.168 66.2766C130.425 60.043 127.949 60.8398 126.419 63.7006C122.221 62.8366 119.03 63.6302 116.307 68.2446C116.717 63.4382 120.016 61.2398 126.608 62.1998C124.851 54.459 118.502 59.5246 115.069 53.547C108.585 58.203 108.339 56.9166 106.553 53.9726L100.233 70.5806C105.82 64.8558 107.833 74.1038 110.854 82.757C110.7 70.9294 115.277 69.659 116.441 71.6782C117.331 69.6046 118.355 68.0878 119.433 67.0126C118.141 68.4206 118.214 71.0286 120.697 72.7758C126.739 75.9342 129.763 69.067 125.782 66.731L123.171 68.1038L122.211 66.043C121.174 65.9246 120.307 66.2286 119.68 66.7726C124.057 62.7086 129.197 65.7902 129.629 69.4766C129.648 71.115 128.32 73.1758 125.645 75.659C130.784 73.0478 133.414 71.131 133.318 69.803C139.792 75.7902 139.04 77.7678 124.025 79.915C132.256 87.5378 138.598 88.421 143.047 82.5682C145.015 87.3298 128.352 112.489 121.069 97.1954C122.208 102.047 122.409 106.923 121.677 111.823C125.785 110.908 127.312 110.69 129.709 111.599C132.544 114.517 133.731 118.863 133.27 124.636C134.611 123.295 136.563 118.873 138.08 117.925C138.921 117.401 137.357 121.401 138.224 120.965C139.126 120.511 142.944 114.844 143.853 114.457C145.421 113.788 142.96 118.649 144.445 118.069C144.589 118.213 148.922 110.841 150.794 108.956C153.831 111.42 149.338 115.717 150.074 115.321C152.608 113.954 156.887 111.471 157.648 108.811C157.981 102.293 159.357 98.341 161.773 96.9554L156.691 89.349C155.008 96.2514 151.971 100.024 147.581 100.658C152.458 92.0274 163.968 57.8798 139.568 50.8778L139.571 50.875ZM108.527 94.837C109.727 93.0706 109.756 91.1826 108.62 89.1762C106.738 86.693 105.113 87.1954 103.257 90.3986C101.989 94.7858 107.359 96.0466 108.527 94.837Z" fill="#0B162A"/>
<path d="M151.884 45.9883C149.247 53.9499 152.681 59.1691 162.185 61.6491C167.1 73.3615 167.468 83.6655 163.286 92.5583C165.571 97.1983 165.712 104.341 163.698 113.989L164.662 117.56V117.554C167.571 108.139 173.353 108.248 167.27 92.2831L169.468 93.1087C169.769 75.1151 167.452 66.3787 163.561 60.9643C171.657 58.6315 175.641 54.9707 175.513 49.9819V49.9755C173.315 47.5019 156.831 51.3483 151.887 45.9915L151.884 45.9883Z" fill="#0B162A"/>
<path d="M54.7284 41.0452L53.9092 35.96C55.778 34.9296 56.796 34.3952 59.0296 33.7808C59.4008 33.6784 57.9128 33.0544 55.5028 32.5424C57.8008 31.7616 62.2456 32.9968 62.7768 32.8848C63.42 32.7504 61.3336 31.9344 61.996 31.8192C62.5336 31.7232 65.5224 31.8736 66.6392 31.8192C70.6104 31.7072 73.4328 31.3936 77.2248 31.048L73.1736 27.3424C81.6024 27.2656 90.2556 28.6096 99.1292 31.3712L99.03 31.5664C100.518 36.6544 101.228 42.3828 99.5484 52.6836C111.283 40.7028 109.168 48.4532 110.62 50.4852C116.058 55.7556 120.947 41.5284 137.603 45.7876C129.802 35.6176 118.256 40.2068 116.141 40.8692C106.889 46.5876 101.913 39.9956 105.283 34.7984C111.273 37.0416 118.442 35.7168 123.395 32.3248C118.675 32.6928 114.003 32.2704 109.376 31.0512C115.28 27 140.275 28.2064 140.275 38.5072C143.373 37.8004 145.744 39.0352 147.386 42.2132C165.991 37.6468 169.706 45.4356 176.81 44.5844H176.82C172.769 33.2496 158.548 40.8788 155.012 38.5076C153.188 36.4176 150.976 34.2576 148.362 32.2608C147.84 31.8608 145.805 32.0624 145.252 31.6784C144.711 31.304 147.556 30.5744 147.767 30.0848C147.799 30.1136 142.64 30.2832 142.099 29.976C141.254 29.768 142.659 28.5872 142.234 28.3664C141.475 27.784 138.246 28.7024 137.491 27.9728C136.048 27.1888 139.51 27.08 138.848 26.8112C129.318 22.9712 116.592 22.1744 100.24 29.1952L100.092 29.4864C84.8988 27.6016 77.8424 19.912 62.0696 25.9984C61.4168 26.2512 65.0584 28.1936 64.3736 28.4944C63.692 28.792 56.3896 27.1376 56.3896 27.0672C56.3896 27.0672 60.4504 29.2752 60.0728 29.4672C59.628 29.6944 54.4948 28.4624 54.034 28.7088C53.5412 28.9744 56.3288 30.7472 55.8164 31.0352C55.378 31.2848 53.5476 31.048 53.0964 31.3136C50.9748 31.256 49.9316 32.2992 48.482 33.2432C44.098 31.5664 37.186 31.9056 31.634 36.0976C31.618 36.1104 31.602 36.12 31.5892 36.1296C41.5188 36.1904 49.234 37.8292 54.7316 41.042L54.7284 41.0452ZM40.0328 83.1512C38.6952 66.9044 38.7304 56.8852 47.8312 48.978C44.612 43.5444 40.66 41.4608 35.9816 42.728C30.6952 45.2276 30.7848 49.5348 34.9096 53.7492C29.6648 51.73 21.7256 48.7732 30.1128 36.7984V36.7952C23.828 37.784 16.026 51.692 33.78 58.4564C34.3272 66.754 30.7816 66.8436 28.868 74.4888C35.46 76.0376 27.1944 90.7256 32.7432 96.9784L32.7496 96.9848L40.0328 83.1512Z" fill="#0B162A"/>
<path d="M161.087 116.042C153.138 116.775 151.912 130.551 138.792 125.117C138.415 128.381 137.679 130.685 136.594 132.029L133.759 129.226C132.645 133.987 128.152 140.474 120.286 148.689L118.693 145.853C121.509 137.677 133.512 125.027 125.925 114.128C125.307 116.72 123.425 117.613 120.773 116.954V116.992L116.059 114.458C118.501 117.024 119.233 119.984 118.257 123.338C117.589 127.008 115.541 130.672 112.469 134.506C113.121 125.715 112.747 120.122 111.345 117.728L108.341 121.587C107.944 117.859 107.451 116.186 106.859 116.567L104.571 118.269L102.193 117.463L100.849 118.359L99.457 117.731L97.4378 118.586L94.9706 116.387C94.1674 117.082 93.345 118.874 92.5034 121.767C90.3946 120.96 89.6298 117.015 88.0202 116.067C85.8218 121.677 85.1466 122.211 85.6426 131.543C85.5818 131.747 85.5306 131.962 85.4858 132.183V132.167C81.1338 124.739 79.7674 118.48 82.9258 113.811C79.265 111.411 77.0186 108.042 78.8042 97.4653C76.7434 98.0157 76.8778 96.1341 78.7242 93.2573C75.8058 93.6765 75.8314 92.1501 78.8042 88.6749C73.7226 87.5773 82.3754 81.5325 85.4666 74.6329C82.7882 74.2521 80.177 75.7625 76.0554 80.9821C72.7594 83.3181 68.087 82.9053 71.271 76.9785C69.4182 75.7049 68.8326 74.4377 69.5206 73.1769C70.2278 74.2425 71.5942 75.1257 73.6202 75.8201C72.513 74.5945 71.6902 73.5353 71.1686 72.5657C77.089 76.5849 80.7402 74.3673 81.1786 68.2137C81.9338 69.1097 82.5674 70.2681 83.009 71.8713C86.1002 69.6601 88.6986 70.6777 91.5818 76.1721C94.465 68.8921 90.481 66.9689 84.0138 64.8313C86.6346 63.3945 88.145 63.9449 91.649 65.8393C88.4202 53.7817 77.7066 59.4137 75.9658 54.9977C75.9466 51.7881 80.177 51.1705 82.8554 50.7513C73.297 45.8677 70.5606 46.3605 65.9782 48.6517C56.1382 55.1545 64.2438 67.5161 51.3414 70.6809C50.0358 62.1881 53.8022 52.9561 57.0438 48.2549C54.151 48.3733 51.6358 49.9545 49.6454 52.8761C49.127 53.6377 51.0406 53.5193 50.5926 54.4601C50.1606 55.3753 51.2102 56.0665 47.0118 58.4281C46.7686 59.1609 48.8134 58.9753 48.6086 59.7849C48.3014 60.9913 44.3974 62.6361 44.519 66.6009C48.2374 63.1321 47.6198 65.1193 46.4966 67.3433C46.4166 68.2649 44.8454 70.9593 44.8006 71.9385C44.5894 76.5017 44.7526 81.6733 45.3446 87.4109L48.8486 84.0221C48.8486 84.0221 39.3314 119.773 76.5866 135.485C77.505 142.839 70.9766 140.433 64.0902 135.591C62.5094 134.128 61.8022 138.81 61.703 138.609C60.9894 138.061 60.5638 132.935 59.863 132.359C59.2326 131.84 59.0406 134.96 58.4326 134.429C57.7798 133.859 56.7174 129.639 56.1062 129.069C54.0262 127.13 52.2406 125.248 51.0438 123.731C44.3014 125.037 41.7346 116.122 40.9826 106.886C39.0082 108 38.1378 109.52 37.5618 110.835C37.1842 108.992 36.477 105.798 37.5618 103.501C35.0434 104.173 33.629 103.437 33.3154 101.302C30.781 106.006 30.6402 108.522 36.7042 112.586C37.8242 120.365 40.0226 126.176 43.2966 130.019C52.9478 127.216 54.0614 133.699 52.9478 136.465C70.0838 151.997 72.8778 142.612 78.7274 152.596C87.5594 168.756 83.2746 177.323 105.4 176.475C111.921 176.334 116.245 172.628 118.379 165.371C118.443 165.313 118.504 165.259 118.565 165.201C120.334 160.154 120.456 157.841 120.571 154.964C127.422 153.546 133.915 137.063 140.066 134.864C143.487 133.226 147.759 133.072 152.008 131.504C153.659 131.104 154.898 128.733 155.375 128.467C155.89 128.179 156.482 128.375 155.099 131.197C158.383 129.114 158.098 125.034 158.476 124.717C158.956 124.32 158.562 127.095 159.033 126.618C160.604 125.735 160.313 122.823 160.697 122.359C161.1 121.869 160.898 124.759 161.289 124.192C162.085 123.034 162.847 121.712 163.573 120.195C163.586 120.17 163.599 120.144 163.612 120.115L161.093 116.039L161.087 116.042ZM77.569 65.5769C77.9186 65.7552 78.2633 65.943 78.6026 66.1401L76.8266 68.0377L75.8922 65.4489C76.4298 65.4489 76.9898 65.4969 77.569 65.5737V65.5769ZM64.679 100.681C62.8582 100.105 63.8534 106.611 63.4342 106.301C60.791 104.563 60.6534 98.0157 60.1926 97.6285C59.6326 97.1581 59.6326 99.8589 59.1398 99.3597C58.6342 98.8477 57.6326 95.1325 57.2038 94.5885C56.7814 94.0509 56.1702 97.9453 55.8342 97.3725C54.1862 95.9709 55.6166 92.1181 55.4278 91.7053C55.1718 91.1389 54.3526 93.5997 54.183 92.9981C54.0614 92.5629 54.5702 89.0781 54.4966 88.6237C54.0326 85.6861 54.6214 82.3037 56.6278 78.3161C58.1126 86.1117 63.0918 91.3373 71.5654 93.9997C70.055 98.4797 71.7738 109.632 74.9194 119.651C66.3238 117.978 69.6518 105.251 64.6726 100.681H64.679ZM86.8842 146.81C86.9194 146.986 86.9514 147.159 86.9866 147.338C89.185 152.986 88.0202 155.453 92.6858 157.473L93.2234 159.761L95.8698 157.921C98.6314 159.738 99.089 159.815 101.301 157.921L103.947 159.133L108.165 156.756L104.753 156.487L102.465 157.025L100.087 155.633C98.7658 156.605 96.8842 156.861 94.4394 156.397C89.841 145.86 87.1274 134.279 92.0618 125.271C94.5418 124.035 96.4586 129.168 98.0682 128.903C101.928 130.115 104.216 124.327 107.982 126.973C110.347 134.371 110.565 145.018 108.725 156.413C111.032 155.364 113.195 148.637 114.894 142.903C116.843 152.41 115.688 163.217 108.037 161.479C105.685 162.628 99.7034 165.899 93.3258 161.565L93.1658 161.457C86.4842 163.13 84.6762 156.279 86.8874 146.813L86.8842 146.81ZM91.2714 168.423C93.985 172.123 104.504 172.702 112.712 169.035C113.384 171.918 110.565 173.716 104.241 174.43C93.985 175.409 91.3738 172.001 91.2714 168.423Z" fill="#0B162A"/>
<path d="M37.6752 103.379C42.7376 97.427 42.4048 95.0334 38.9004 89.3086C37.4508 91.5006 37.9308 98.643 37.6748 103.379H37.6752Z" fill="#0B162A"/>
</svg>
