<svg width="200" height="200" viewBox="0 0 200 200" fill="none" xmlns="http://www.w3.org/2000/svg">
<g clip-path="url(#clip0_17_1000)">
<path d="M165.174 97.9062C164.308 97.4678 164.416 96.6854 165.04 96.2214C172.414 90.7658 177.391 83.765 177.391 72.9594C177.391 60.1646 168.227 42.207 132.394 42.207H40.0303L19.1111 78.5942H34.4719C36.1879 78.5942 37.5731 79.9774 37.5731 81.685V118.009C37.5731 119.717 36.1879 121.103 34.4719 121.103H17.9995L39.1407 157.359L136.772 157.348C168.281 157.348 181.903 140.936 181.903 123.32C181.903 111.652 173.605 102.198 165.174 97.9066" fill="#FFFFFE"/>
<path d="M110.467 91.7447H95.2939V77.1627C95.3004 76.4279 95.597 75.7254 96.1191 75.2083C96.6413 74.6913 97.3467 74.4015 98.0815 74.4023H110.466C117.735 74.4023 120.434 78.1019 120.434 82.9315C120.434 88.0539 117.735 91.7451 110.466 91.7451L110.467 91.7447ZM110.467 125.292H98.0819C96.5427 125.292 95.2943 124.048 95.2943 122.511V107.952H110.467C117.736 107.952 120.435 111.509 120.435 116.484C120.435 121.598 117.736 125.292 110.467 125.292H110.467ZM153.773 98.7283C152.661 98.4663 152.844 97.1063 153.656 96.8015C163.672 93.0167 169.518 86.2775 169.518 74.4019C169.658 58.4795 155.566 47.5371 132.646 47.5371H45.7827L30.5415 74.4191H41.0311C43.1063 74.4191 44.7823 76.0923 44.7823 78.1615V121.538C44.7823 123.607 43.1063 125.28 41.0311 125.28H30.6587L46.0139 152.029L136.773 152.018C162.686 152.018 173.364 134.82 173.364 122.167C173.364 111.048 165.154 101.449 153.773 98.7287V98.7283Z" fill="#FB4F14"/>
<path d="M75.3327 144.436C59.2279 114.21 54.9951 79.4591 60.9951 47.5371H45.7827L30.5415 74.4191H41.0311C43.1063 74.4191 44.7823 76.0923 44.7823 78.1615V111.444C52.5979 124.108 63.9171 136.237 75.3327 144.436ZM151.287 50.5283C132.854 77.8231 122.866 112.611 127.35 144.297C132.842 117.642 147.171 93.0255 169.49 75.1935C169.495 74.9287 169.518 74.6727 169.518 74.4023C169.612 63.4287 162.948 54.8171 151.287 50.5283ZM120.386 47.5375C117.496 55.0963 114.46 64.2171 111.906 74.4563C111.427 74.4205 110.947 74.4025 110.466 74.4023H98.0815C97.3467 74.4015 96.6413 74.6913 96.1191 75.2083C95.597 75.7254 95.3004 76.4279 95.2939 77.1627V91.7447H108.32C107.46 96.9727 106.764 102.388 106.302 107.952H95.2939V122.512C95.2939 124.048 96.5423 125.292 98.0815 125.292H105.686C105.8 134.02 106.578 142.976 108.215 152.018H96.8931C87.9599 130.48 75.6663 94.0415 87.8943 47.5375H120.386Z" fill="black"/>
</g>
<defs>
<clipPath id="clip0_17_1000">
<rect width="200" height="200" fill="white"/>
</clipPath>
</defs>
</svg>
