<svg width="200" height="200" viewBox="0 0 200 200" fill="none" xmlns="http://www.w3.org/2000/svg">
<mask id="mask0_17_1001" style="mask-type:luminance" maskUnits="userSpaceOnUse" x="18" y="36" width="164" height="128">
<path d="M18 36.4004H182V163.176H18V36.4004Z" fill="white"/>
</mask>
<g mask="url(#mask0_17_1001)">
<path d="M182 147.231V147.094C181.262 137.116 179.032 127.023 175.178 116.235L175.132 116.127L175.089 116.019L174.64 114.946L174.692 115.064C173.085 110.892 169.733 109.091 164.797 109.705L162.576 109.948L161.671 110.026C157.863 110.377 152.395 110.866 147.567 110.416L141.577 96.2404C142.787 95.5113 143.8 94.498 144.529 93.2884C145.037 92.3533 145.398 91.3454 145.599 90.3004C147.43 90.0752 149.128 89.2261 150.407 87.896C152.227 85.9084 153.261 82.32 150.686 78.2528L150.817 78.466L142.794 63.9848L138.048 66.002C119.024 35.334 82.8258 30.6372 56.1102 42.1628C31.8778 52.6228 8.40622 80.2108 21.9982 123.586C23.4577 128.194 25.2863 132.677 27.4662 136.991C27.3285 138.349 27.4161 139.72 27.7254 141.048V141.12L27.7482 141.193C28.4434 143.817 29.0766 145.548 30.7002 149.16C30.6254 151.616 31.5291 154.002 33.2126 155.792C35.8826 158.665 40.1202 159.79 44.8402 158.878L44.6138 158.911C50.8458 158.036 54.913 156.205 57.0386 154.975C66.393 161.535 78.621 164.448 89.4778 162.644C96.5526 161.47 102.27 158.41 106.206 153.755C108.297 153.881 110.394 153.819 112.474 153.572C115.594 153.375 118.661 152.668 121.553 151.479C125.564 156.159 130.989 159.515 137.5 161.237C145.1 163.241 153.72 163.106 161.92 160.909C163.387 161.013 164.856 160.736 166.184 160.105C174.797 158.137 176.719 157.314 177.992 156.225C178.011 156.212 178.027 156.197 178.041 156.179C181.111 154.086 182.111 150.144 182 147.231ZM160.395 155.792C153.123 157.662 145.33 157.76 138.77 156.038C132.81 154.464 125.768 151.013 121.855 142.35C121.614 141.904 121.41 141.439 121.245 140.96C121.245 140.96 123.242 140.999 124.554 140.888C130.625 153.893 146.271 156.304 159.68 152.883C159.68 152.883 160.906 152.673 161.251 152.302C161.529 151.646 161.5 150.006 161.5 150.006C161.484 149.629 161.172 141.622 159.696 136.296C159.638 135.916 159.482 135.558 159.243 135.256C159.023 135.163 158.79 135.103 158.551 135.079C157.994 135.08 157.438 135.138 156.892 135.249C148.623 137.217 135.831 138.857 125.732 139.874C125.712 139.874 124.938 139.992 123.573 140.051L122.481 140.081C119.784 140.09 117.092 139.87 114.432 139.425C114.432 139.425 76.7646 133.298 76.9218 133.291L78.9358 130.533L115.203 136.489C120.733 137.319 123.301 136.922 123.37 136.906C133.141 136.361 151.207 133.685 155.576 132.52C155.576 132.52 157.938 131.96 158.237 131.658C158.43 131.464 157.941 129.69 157.941 129.69C157.921 129.631 156.154 123.842 155.268 121.611V121.657C155.245 121.565 154.861 120.329 154.455 120.142H154.159C154.159 120.142 153.638 120.24 153.001 120.384C144.473 121.932 128.933 124.107 119.791 124.648C120.582 124.599 116.092 124.809 112.602 124.566C107.636 124.288 102.106 123.054 96.6382 117.101C96.579 117.042 90.511 111.26 88.0674 108.573C87.8072 108.218 87.6983 107.774 87.7648 107.339C87.8312 106.903 88.0675 106.512 88.4218 106.251C88.8742 105.89 89.7698 105.726 90.2714 106.313C91.3442 107.746 97.4874 114.087 100.509 116.921C103.874 119.545 106.288 120.912 110.981 121.444C112.872 121.634 114.772 121.721 116.672 121.706C122.855 121.864 145.392 119.108 152.017 117.8C152.476 117.746 152.926 117.643 153.362 117.492V117.364L153.402 117.085C153.592 116.852 153.84 116.672 154.12 116.563C154.459 116.404 154.837 116.344 155.209 116.392C155.581 116.439 155.931 116.592 156.219 116.832C160.946 125.544 165.613 141.724 164.534 153.945C164.533 154.234 164.456 154.518 164.313 154.768C164.169 155.019 163.963 155.228 163.714 155.376C163.367 155.515 162.994 155.581 162.619 155.568C162.245 155.556 161.877 155.465 161.539 155.303C161.539 155.303 161.572 155.392 160.395 155.792ZM150.164 137.618C150.784 137.503 153.329 136.938 153.329 136.938C156.023 140.986 160.349 143.905 160.349 143.905C160.46 144.922 160.552 147.513 160.552 147.513C153.759 144.181 150.164 137.611 150.164 137.611V137.618ZM126.269 142.652C126.032 142.271 125.813 141.878 125.613 141.475L125.285 140.838C125.81 140.78 126.105 140.73 126.105 140.73L127.801 140.553C127.345 141.289 126.833 141.988 126.269 142.646V142.652ZM74.6422 133.393C74.2877 133.372 73.944 133.263 73.6418 133.076C73.3396 132.89 73.0884 132.631 72.9106 132.324C72.8289 132.16 72.7962 131.975 72.8166 131.793C72.837 131.611 72.9095 131.439 73.0254 131.297L77.7418 124.081C78.0406 124.648 80.4086 126.072 80.4086 126.072C78.8967 128.324 77.3814 130.574 75.8626 132.822C75.731 133.02 75.5474 133.177 75.332 133.276C75.1166 133.376 74.8779 133.414 74.6422 133.386V133.393ZM87.2474 109.091C87.9504 110.003 88.7318 110.851 89.5826 111.627L85.9746 117.357C85.4894 117.744 84.4658 117.357 83.8298 116.734C83.6822 116.593 82.9834 115.871 83.4034 115.366L83.4262 115.34L83.4426 115.307C83.4886 115.212 84.2726 113.91 87.2474 109.085V109.091ZM93.0334 122.211C90.919 120.798 88.8034 119.387 86.6866 117.977L87.221 117.459C89.517 118.928 92.4954 120.893 93.781 121.877C96.1002 123.635 94.847 125.754 94.847 125.754C95.0802 124.478 94.5126 123.208 93.0334 122.208V122.211ZM86.0142 118.37L92.6266 122.798C93.6106 123.51 94.5946 124.73 94.0142 126.384C93.9286 124.835 92.0098 123.615 92.0098 123.615C92.0098 123.615 84.9122 119.427 82.7242 118.072C81.4778 117.288 81.6058 116.206 82.2586 115.638C82.1634 117.334 84.7774 118.705 86.0142 118.367V118.37ZM82.3306 118.652C84.5282 120.034 89.153 122.831 90.4882 123.572C91.9182 124.37 92.2066 124.75 92.2066 124.75C93.8666 126.328 93.5482 127.896 92.7414 128.991C91.8198 130.221 90.0582 131.008 88.589 130.034L86.5946 128.801L85.8698 128.368L79.6642 124.553H79.6442C79.6442 124.553 78.611 124.074 78.3522 123.123C78.1782 122.467 78.3814 121.746 78.9554 120.939C80.2674 119.095 80.9038 118.039 81.1826 117.55C81.4646 118.144 82.3306 118.649 82.3306 118.649V118.652ZM81.2186 126.488C84.1346 128.23 88.2742 130.802 88.2742 130.802C91.1242 132.616 93.3218 130.008 94.0174 129.083C94.5554 128.361 96.215 126.131 96.159 124.219C96.1002 122.362 94.6766 121.365 93.4038 120.529L87.4802 116.639L90.255 112.145C92.9186 114.805 95.9786 117.721 96.005 117.75C97.6094 119.517 99.4689 121.034 101.522 122.251C101.951 122.5 102.388 122.735 102.834 122.953C104.015 126.561 105.301 129.746 105.858 132.097C105.409 129.358 104.592 126.426 103.792 123.396C106.947 124.757 110.024 125.176 112.858 125.334L113.255 125.357L113.441 125.77C112.323 128.752 110.237 131.95 107.537 133.898C107.537 134.052 107.557 134.21 107.564 134.367L105.11 133.977L103.205 133.672L102.283 133.527L78.9754 129.814L81.2186 126.488ZM151.099 132.478C150.594 132.701 148.124 133.058 148.124 133.058C147.534 131.936 143.798 122.789 143.798 122.789C144.244 122.733 146.75 122.323 146.75 122.323C148.018 125.782 149.47 129.17 151.099 132.474V132.478ZM151.834 132.252L150.709 129.664C154.471 129.726 157.187 129.686 157.187 129.686C157.636 131.353 156.081 131.412 156.081 131.412L151.834 132.252ZM130.737 126.187L130.757 126.652L145.477 129.178C145.756 129.985 146.809 132.37 146.809 132.37L130.786 129.644V130.142C130.697 131.927 130.421 133.697 129.963 135.423C129.254 135.499 128.543 135.568 127.821 135.636C128.864 132.176 128.992 128.309 128.536 124.589C129.209 124.517 129.891 124.445 130.579 124.366C130.639 124.976 130.694 125.58 130.737 126.184V126.187ZM122.379 136.112C121.256 136.277 120.117 136.302 118.988 136.188C117.978 134.278 116.863 131.678 114.012 125.436C115.145 125.564 116.288 125.564 117.42 125.436L122.379 136.112ZM98.4354 91.832C98.4151 92.3641 98.5278 92.8929 98.7634 93.3704C99.0914 94.0068 99.7246 95.604 99.7246 95.604C99.8326 95.4992 98.2846 97.4244 97.4286 98.7824L92.2198 107.33L90.8194 105.788C90.8194 105.788 90.219 105.073 89.6582 105.073C92.3838 100.649 94.8702 96.716 95.713 95.4532C96.5569 94.2042 97.468 93.0019 98.4422 91.8516L98.4354 91.832ZM130.107 81.2376C130.51 81.1685 130.925 81.255 131.267 81.4797C131.609 81.7043 131.854 82.0504 131.951 82.448C132.039 83.0548 131.727 83.76 130.563 83.9536L130.019 84.0616C122.875 85.4884 114.783 87.1088 108.016 89.8576C105.888 90.6284 104.753 91.2744 103.559 92.1796C103.559 92.1796 102.903 90.7528 102.663 90.3364C102.286 89.6804 102.234 89.6016 101.919 89.4244C103.181 88.6387 104.515 87.9765 105.904 87.4468C110.867 85.364 121.189 82.6972 130.114 81.2572L130.107 81.2376ZM126.87 71.6468C126.453 72.9916 127.244 75.0648 127.244 75.0648L129.192 80.4604L128.182 80.6504C128.182 80.6504 126.932 77.1968 126.142 74.8056C125.545 72.9852 125.974 72.1028 125.974 72.1028L126.87 71.6468ZM127.663 71.2696L128.671 70.748C128.671 70.748 128.756 70.6924 128.753 70.7088C128.715 70.8309 128.7 70.9586 128.707 71.086C128.687 71.4436 128.707 71.6208 129.077 72.6472C129.674 74.2544 132.78 80.7028 133.141 81.6412C134.939 86.3084 130.294 87.1712 129.812 85.108C134.752 84.734 132.744 79.5648 129.943 80.2928C128.874 77.6688 128.031 75.0088 128.031 75.0088C128.031 75.0088 126.942 72.152 127.67 71.2892L127.663 71.2696ZM144.693 81.4212H144.765C145.356 81.5064 145.707 82.2676 145.648 82.8972C145.615 83.2252 145.412 84.006 144.251 84.006C143.198 83.7764 140.446 83.514 139.035 83.3796C139.035 82.202 138.311 80.5128 138.311 80.5128C139.878 80.7028 143.87 81.1656 144.7 81.4408L144.693 81.4212ZM133.102 86.082C133.102 86.082 134.115 85.39 134.171 84.6588C134.171 84.6588 136.533 84.6588 137.73 84.6784C137.737 84.698 136.854 86.3644 133.108 86.102L133.102 86.082ZM101.066 90.3132C101.31 90.3096 101.552 90.3588 101.775 90.4576L115.465 120.775C114.337 120.818 113.207 120.744 112.093 120.552C106.258 107.789 99.4262 92.8356 99.4194 92.8192C99.2796 92.5942 99.2056 92.3347 99.2056 92.0698C99.2056 91.805 99.2796 91.5454 99.4194 91.3204C99.5968 91.0365 99.8393 90.7988 100.127 90.6271C100.414 90.4555 100.738 90.3547 101.073 90.3332L101.066 90.3132ZM101.965 100.481L102.509 101.685C100.056 106.277 100.089 111.417 101.037 116.291L100.797 116.104C100.505 115.832 100.181 115.524 99.849 115.205C97.655 113.096 94.7258 110.118 92.7578 108.019C94.5599 105.105 96.3694 102.196 98.1862 99.2908C98.8146 98.3104 99.4509 97.335 100.095 96.3648L101.965 100.481ZM102.981 102.722L111.077 120.565C107.913 120.282 104.888 119.135 102.332 117.249C101.401 112.384 101.128 107.428 102.988 102.728L102.981 102.722ZM172.124 153.063C170.537 153.512 165.383 154.867 165.383 154.867C165.565 153.808 165.641 152.733 165.61 151.659C175.551 149.524 166.115 148.625 166.115 148.625C168.309 149.301 168.247 150.085 168.247 150.085C167.293 150.14 165.623 149.636 165.623 149.636C165.679 149.016 165.511 146.487 165.511 146.487C168.096 147.612 168.506 147.29 171.186 147.89C173.931 148.51 172.587 149.636 172.587 149.636C171.186 151.38 166.027 152.108 166.027 152.108C174.673 150.984 173.899 148.625 173.899 148.625C177.408 150.931 173.918 152.558 172.124 153.063ZM170.74 132.288C170.74 132.288 169.451 132.944 163.491 134.01C163.491 134.01 163.009 132.153 162.786 131.202C162.786 131.202 167.821 130.152 169.782 129.418C169.782 129.418 169.746 128.762 168.775 128.781C168.775 128.781 163.665 130.093 162.484 130.188L162.205 129.401C162.205 129.401 166.581 128.558 168.044 128.22C168.044 128.22 171.133 127.154 171.806 129.516C171.806 129.516 172.488 131.556 170.74 132.288ZM176.168 149.822C176.168 149.147 175.122 147.89 173.321 147.526C173.342 147.015 173.337 146.502 173.305 145.991C172.855 141.399 171.209 133.101 171.209 133.101C173.754 132.274 173.528 127.069 169.185 127.098C168.54 124.212 167.683 121.377 166.62 118.616C168.982 117.324 167.876 115.15 166.581 114.753C166.581 114.753 168.942 114.248 170.028 118.331C173.981 129.401 177.047 144.574 176.168 149.822ZM166.869 116.508C166.888 116.833 166.786 117.153 166.581 117.406C166.377 117.66 166.086 117.828 165.764 117.878L165.393 117.957C164.472 118.246 162.628 118.679 160.782 119.026C160.087 119.181 159.386 119.3 158.679 119.384C158.437 118.849 158.269 118.298 157.567 116.937C159.735 116.582 161.883 116.114 164.003 115.536C164.535 115.404 165.075 115.303 165.62 115.235C165.945 115.264 166.25 115.409 166.478 115.642C166.707 115.875 166.846 116.182 166.869 116.508ZM156.885 116.104C156.545 115.821 156.128 115.647 155.688 115.606C157.19 115.71 161.661 115.278 161.661 115.278C160.818 115.596 156.885 116.104 156.885 116.104ZM152.506 116.727C150.483 117.232 145.805 117.744 145.805 117.744L144.847 115.55C147.68 115.959 150.549 116.053 153.402 115.832C153.174 115.855 152.961 115.956 152.798 116.117C152.635 116.278 152.532 116.49 152.506 116.717V116.727ZM141.256 86.5216C141.381 87.988 141.279 89.8016 140.528 91.1696C139.649 92.7668 138.442 93.7936 136.139 94.2068C136.083 94.2068 135.959 94.2264 135.811 94.2364L135.585 94.2656C135.414 94.2656 135.257 94.292 135.089 94.3148C137.409 99.8156 145.031 117.869 145.031 117.869C143.565 118.134 141.958 118.242 141.958 118.242L132.328 95.6596C132.147 95.8392 131.984 96.0348 131.839 96.2436C131.747 96.3552 131.652 96.46 131.554 96.5716C130.058 98.4444 129.146 100.855 128.635 103.417C128.575 103.674 128.523 103.932 128.477 104.191C133.026 111.184 139.14 113.808 139.14 113.808L140.672 117.504C134.601 115.74 129.52 110.233 128.11 108.583V109.039C128.084 111.745 128.37 114.445 128.963 117.085C129.25 117.986 129.505 118.898 129.73 119.817L127.654 120.027C127.212 118.293 126.643 116.593 125.951 114.943C122.521 106.822 113.159 110.538 113.815 115.425L105.881 97.9164C107.437 96.2297 109.206 94.7542 111.145 93.5276C109.913 94.0969 108.762 94.8294 107.725 95.7056C107.008 96.2552 106.328 96.8501 105.687 97.4868L105.186 96.424C104.631 95.1972 104.136 94.1116 103.726 93.1996C105.123 92.3012 106.547 91.3792 108.344 90.73C113.55 88.6144 119.562 87.1712 125.315 85.9672L126.276 85.7704C126.45 88.6404 124.997 89.736 122.494 90.2576C120.854 90.5856 119.542 90.648 118.867 90.8744L120.418 90.9268C121.843 90.8708 123.25 90.5944 124.59 90.1068C126.151 89.526 127.329 88.4668 126.827 85.6556L127.631 85.4916C128.054 88.1716 127.66 90.766 122.458 91.268C123.347 91.8812 131.445 90.3788 136.319 91.4976C136.437 91.55 138.481 92.2552 136.146 93.2752C140.669 92.2684 140.918 87.7616 140.059 84.4192L140.242 84.442C140.961 84.4936 141.676 84.5844 142.384 84.7144C142.821 84.7604 143.345 84.8192 143.89 84.8916C147.258 85.2196 146.947 81.244 145.179 80.7324C144.516 80.5182 143.835 80.3634 143.145 80.27L142.673 80.2176L138.471 70.85L140.797 69.7708L146.809 80.6176C149.6 85.0488 144.972 86.876 142.42 85.5376C141.955 85.7571 141.554 86.0926 141.256 86.512V86.5216ZM111.89 149.137C111.89 149.137 107.626 149.711 104.185 149.009C95.5886 162.155 72.3102 161.273 58.075 150.167C57.8091 149.967 57.5402 149.771 57.2682 149.58C56.2842 150.324 52.1022 153.237 44.0726 154.477C37.3258 155.789 34.541 151.397 35.3478 148.425C33.357 144.03 32.8058 142.505 32.1466 140.028C31.8447 138.794 31.8447 137.504 32.1466 136.27C29.8005 131.776 27.8546 127.085 26.3314 122.251C2.07222 44.8068 102.952 12.3772 135.687 70.8924C136.326 70.9484 136.71 71.0992 136.91 71.5124L137.809 71.1516L141.745 80.07C141.256 79.9716 139.908 79.8568 139.577 79.8304C139.578 79.8457 139.578 79.8611 139.577 79.8764L138.904 79.814L138.576 79.7976C137.72 77.154 136.608 73.792 135.831 71.824C135.364 71.7501 134.893 71.7128 134.42 71.7124C134.42 71.7356 134.443 71.7484 134.453 71.7684C135.053 72.89 136.877 78.5316 137.484 80.07C138.323 82.2052 138.265 83.4056 138.265 83.4056L134.345 83.3304C134.283 82.1856 133.197 80.034 133.197 80.034L131.737 77.082L131.341 76.2388L129.848 73.054C129.601 72.4932 129.429 71.902 129.336 71.296C129.074 69.236 131.101 69.236 131.153 69.236C132.206 69.2556 133.066 69.6428 133.915 70.8368H134.457C133.236 68.4028 132.547 67.652 131.737 66.3072C116.492 44.6 91.1638 38.1712 68.8402 43.5964C97.1138 39.4568 118.696 51.6224 129.441 69.8068C128.539 70.2528 127.05 70.9976 126.358 71.3712C126.047 71.3712 124.892 71.342 124.505 71.3712C123.833 71.4272 123.193 71.46 123.662 73.0604C123.869 73.8026 124.113 74.5339 124.393 75.2516C124.721 76.1272 125.738 78.7712 126.486 81.0212L125.695 81.172C125.558 80.772 125.407 80.3552 125.236 79.9156C124.357 77.6788 123.298 74.776 122.989 73.7888C122.829 73.2804 122.593 72.306 122.878 71.4664C122.878 71.4664 121.809 72.306 122.763 74.576L125.177 81.2704L124.193 81.464C116.869 82.9332 109.699 84.8752 105.671 86.5612C105.671 86.5612 102.653 87.6532 100.515 89.3984C100.455 89.4377 100.411 89.4969 100.39 89.5656C99.7537 89.7617 99.1964 90.1557 98.7994 90.6904C98.3364 91.0403 97.898 91.4218 97.4874 91.832C96.6414 92.816 95.9002 93.672 94.9554 94.9708C94.129 96.2044 91.157 100.904 88.507 105.198C88.2699 105.284 88.0483 105.408 87.851 105.565C87.4806 105.855 87.1941 106.238 87.0211 106.675C86.8481 107.112 86.7949 107.587 86.867 108.052C84.7186 111.532 83.4558 113.552 82.931 114.395C82.5566 114.427 82.1949 114.547 81.8753 114.745C81.5557 114.942 81.287 115.213 81.091 115.533C80.5726 116.573 78.3158 120.273 77.9094 120.683C77.656 121.015 77.4763 121.396 77.3824 121.803C77.2884 122.21 77.2824 122.632 77.3646 123.041L77.1614 123.441L72.2054 130.834C71.999 131.105 71.8719 131.428 71.8383 131.767C71.8046 132.106 71.8658 132.447 72.015 132.753C72.2609 133.206 72.6178 133.589 73.0521 133.866C73.4864 134.143 73.984 134.305 74.4982 134.338C75.0291 134.382 75.559 134.241 75.997 133.937L102.362 138.329L103.651 138.542L105.714 138.887L107.383 139.166C107.189 141.941 106.464 144.653 105.248 147.156L105.711 147.218C112.985 147.808 118.175 146.516 121.763 144.082C122.067 144.664 122.396 145.233 122.747 145.788C119.929 147.641 116.347 148.832 111.89 149.127V149.137ZM177.444 156.609L177.375 156.648C177.447 156.609 177.51 156.55 177.582 156.504L177.444 156.609Z" fill="white"/>
<path d="M96.3164 154.677C99.0358 153.291 101.361 151.241 103.076 148.717H103.06C103.815 147.649 104.419 146.483 104.854 145.25C103.217 149.305 100.19 152.647 96.3164 154.677Z" fill="white"/>
<path d="M92.7646 108.025C94.7326 110.124 97.6618 113.102 99.8562 115.212C99.3574 112.056 99.2394 108.809 99.8922 105.808C100.297 103.935 100.997 102.139 101.968 100.488L100.099 96.3712C99.4544 97.3412 98.8181 98.3164 98.1898 99.2968C98.193 99.2936 95.5298 103.554 92.7646 108.025ZM99.8262 123.536C101.353 126.766 102.486 130.168 103.201 133.668L105.107 133.973C104.907 132.989 104.697 132.107 104.53 131.349C104.185 129.758 102.772 126.376 101.522 122.25C99.4687 121.032 97.609 119.513 96.005 117.744C95.979 117.714 92.9186 114.792 90.2554 112.138L87.4802 116.632L93.4042 120.522C94.6766 121.358 96.1002 122.355 96.1594 124.212C96.215 126.124 94.5554 128.354 94.0174 129.076C93.3222 130.001 91.1246 132.608 88.2742 130.795C88.2742 130.795 84.1346 128.223 81.219 126.482L78.9722 129.808L102.296 133.524C101.778 129.837 100.561 126.472 99.8262 123.536ZM109.545 93.1436C112.95 91.3036 115.046 90.3064 120.438 89.6144L121.783 89.4272C122.701 89.2928 124.453 88.9256 124.955 88.0136C125.259 87.3768 125.383 86.6692 125.315 85.9668C119.562 87.1708 113.55 88.614 108.345 90.7296C106.547 91.3856 105.124 92.3008 103.726 93.1992C104.136 94.1112 104.632 95.1968 105.186 96.4236C106.321 95.3288 107.578 94.367 108.932 93.5568C109.125 93.416 109.545 93.1436 109.545 93.1436Z" fill="#FF3C00"/>
<path d="M121.754 71.3984C121.922 71.1535 122.147 70.9532 122.41 70.8148C113.494 55.7268 92.1316 40.1304 64.3928 44.8536C37.5132 53.4732 16.544 79.664 25.8728 116.997C29.766 131.163 34.3152 138.674 39.2548 145.717C39.2548 145.717 39.032 149.134 44.9292 147.357C50.2692 145.74 53.526 145.618 59.102 149.774C68.8208 157.016 85.5456 160.303 96.3236 154.694C100.195 152.661 103.218 149.317 104.852 145.261C105.544 143.218 105.845 141.062 105.737 138.908L103.674 138.563C103.215 147.376 94.49 155.865 78.8476 154.888C72.3336 154.645 65.38 151.476 61.2308 149.216C59.322 147.937 53.9428 144.92 51.3612 144.349C53.6048 144.47 59.2332 147.406 61.5688 148.767C66.3936 151.25 73.124 153.638 78.8512 153.877C89.2848 154.861 101.122 149.508 102.385 138.35L76.0236 133.942C75.5856 134.245 75.0557 134.386 74.5248 134.342C74.0107 134.309 73.5132 134.147 73.0789 133.87C72.6446 133.593 72.2877 133.21 72.0416 132.758C71.8925 132.451 71.8314 132.11 71.865 131.771C71.8986 131.432 72.0257 131.11 72.232 130.839L77.188 123.446L77.3916 123.045C77.3093 122.636 77.3152 122.214 77.4091 121.807C77.503 121.401 77.6826 121.019 77.936 120.687C78.3428 120.277 80.5992 116.577 81.1176 115.538C81.3121 115.218 81.5786 114.949 81.8958 114.751C82.213 114.554 82.5722 114.433 82.9444 114.399C83.4692 113.556 84.732 111.536 86.8804 108.056C86.8084 107.591 86.8616 107.116 87.0346 106.679C87.2076 106.242 87.494 105.859 87.8644 105.57C88.0616 105.412 88.2832 105.288 88.5204 105.202C91.1708 100.909 94.1424 96.2084 94.9688 94.9752C95.9136 93.6632 96.6548 92.8104 97.5012 91.836C97.9117 91.4258 98.3501 91.0445 98.8132 90.6948C99.21 90.1597 99.7674 89.7655 100.404 89.5696C100.425 89.5009 100.469 89.4417 100.528 89.4024C102.667 87.6576 105.685 86.5652 105.685 86.5652C109.712 84.8792 116.883 82.9376 124.207 81.468C123.695 79.9856 122.065 75.2984 122.065 75.2984C121.993 75.1048 120.861 72.786 121.754 71.3984ZM88.7992 136.67C89.5126 136.674 90.2029 136.924 90.7542 137.377C91.3054 137.83 91.684 138.458 91.8263 139.158C91.9687 139.857 91.8661 140.583 91.5359 141.216C91.2057 141.848 90.6679 142.348 90.0128 142.63C89.7872 142.87 89.5059 143.05 89.194 143.155C88.882 143.26 88.549 143.286 88.2244 143.232C87.8998 143.177 87.5936 143.043 87.3334 142.841C87.0731 142.64 86.8668 142.377 86.7328 142.076C86.2644 141.657 85.9344 141.106 85.7867 140.495C85.639 139.884 85.6805 139.243 85.9058 138.657C86.1311 138.07 86.5295 137.566 87.0481 137.211C87.5667 136.856 88.1809 136.668 88.8092 136.67H88.7992ZM64.3764 146.478C63.9007 146.847 63.2979 147.012 62.7004 146.937C62.0048 147.373 60.9224 147.13 60.1484 146.317C59.4336 145.559 59.2204 144.559 59.5712 143.883C59.4204 142.784 59.758 141.692 60.5356 141.144C61.7132 140.318 63.4876 140.816 64.5176 142.276C65.5472 143.736 65.4916 145.55 64.3764 146.478ZM79.6644 138.133C74.4624 143.64 64.1468 143.604 58.2856 136.093C68.204 145.297 77.4536 139.216 79.6644 138.133ZM70.2576 131.573C69.6156 131.785 68.9427 131.89 68.2664 131.882C67.287 131.859 66.3219 131.642 65.4276 131.242C64.5333 130.842 63.7277 130.268 63.058 129.553C60.296 126.663 60.106 122.202 62.6576 119.618C63.228 119.039 63.9098 118.581 64.6619 118.274C65.414 117.966 66.2207 117.814 67.0332 117.827C68.0137 117.85 68.9795 118.07 69.874 118.472C70.7685 118.874 71.5736 119.451 72.242 120.169C73.6008 121.584 74.3821 123.456 74.4328 125.417L70.2576 131.573Z" fill="#FF3C00"/>
<path d="M102.296 133.524L103.218 133.669C102.502 130.168 101.369 126.767 99.8427 123.537C100.561 126.472 101.778 129.837 102.296 133.524ZM78.8539 153.86C73.1271 153.621 66.3899 151.236 61.5719 148.75C59.2199 147.389 53.6079 144.453 51.3643 144.332C53.9459 144.903 59.3283 147.92 61.2339 149.199C65.3831 151.459 72.3367 154.628 78.8507 154.871C94.4767 155.855 103.218 147.359 103.677 138.546L102.388 138.333C101.125 149.491 89.2879 154.841 78.8539 153.86ZM67.0331 117.823C66.2205 117.81 65.4138 117.962 64.6616 118.27C63.9095 118.578 63.2277 119.035 62.6575 119.614C60.1155 122.198 60.2959 126.659 63.0579 129.549C63.7261 130.267 64.531 130.844 65.4254 131.247C66.3198 131.65 67.2857 131.87 68.2663 131.894C68.9427 131.902 69.6155 131.798 70.2575 131.586L74.4327 125.409C74.3819 123.448 73.6006 121.577 72.2419 120.161C71.5729 119.445 70.7677 118.869 69.8732 118.467C68.9788 118.066 68.0132 117.847 67.0331 117.823Z" fill="#311D00"/>
<path d="M58.2852 136.092C64.1464 143.603 74.462 143.636 79.6644 138.132C77.4536 139.214 68.204 145.295 58.2852 136.092ZM86.7228 142.071C86.8568 142.372 87.0632 142.635 87.3236 142.836C87.7161 143.141 88.2084 143.289 88.704 143.25C89.1996 143.211 89.6627 142.988 90.0028 142.625C90.4683 142.431 90.8797 142.126 91.2016 141.737C91.5234 141.349 91.746 140.888 91.8503 140.394C91.9546 139.9 91.9375 139.389 91.8004 138.903C91.6633 138.418 91.4103 137.972 91.0632 137.606C90.7743 137.302 90.4268 137.058 90.0415 136.891C89.6563 136.724 89.2413 136.637 88.8214 136.634C88.4016 136.632 87.9855 136.714 87.5982 136.876C87.211 137.038 86.8605 137.277 86.5678 137.578C86.2751 137.879 86.0463 138.236 85.8951 138.628C85.7439 139.02 85.6734 139.438 85.6879 139.858C85.7024 140.277 85.8015 140.69 85.9793 141.07C86.1572 141.45 86.41 141.791 86.7228 142.071ZM88.5368 142.904C88.1979 142.909 87.8653 142.813 87.5813 142.628C87.2973 142.443 87.0748 142.178 86.942 141.866C86.8086 141.555 86.7711 141.21 86.8342 140.877C86.8972 140.545 87.058 140.238 87.296 139.997C87.5335 139.755 87.8377 139.589 88.1698 139.52C88.5018 139.452 88.8468 139.484 89.1607 139.612C89.4745 139.74 89.7432 139.959 89.9323 140.24C90.1215 140.522 90.2226 140.853 90.2228 141.192C90.2256 141.643 90.05 142.076 89.7344 142.397C89.4178 142.718 88.9872 142.9 88.5368 142.904ZM89.8784 139.477C89.442 138.988 88.3432 138.762 87.7136 139.181C87.428 139.359 87.136 139.129 87.4968 138.762C87.687 138.604 87.9073 138.487 88.1444 138.417C88.3814 138.347 88.6302 138.326 88.8756 138.355C89.121 138.384 89.358 138.463 89.572 138.586C89.7861 138.71 89.9728 138.875 90.1208 139.073C90.436 139.529 90.1144 139.837 89.8784 139.477ZM88.8744 137.223C89.3704 137.236 89.8521 137.393 90.2597 137.676C90.6673 137.959 90.9831 138.355 91.168 138.816C91.3531 139.276 91.3995 139.781 91.3015 140.267C91.2035 140.753 90.9653 141.2 90.6164 141.553C91.3476 139.982 90.7476 137.981 88.8188 137.896C86.8148 137.817 86.1488 139.828 86.4964 140.881C85.8208 140.244 86.0536 137.237 88.8744 137.223Z" fill="#311D00"/>
<path d="M87.4967 138.763C87.1359 139.13 87.4279 139.359 87.7135 139.182C88.3431 138.763 89.4419 138.989 89.8783 139.477C90.1143 139.838 90.4359 139.53 90.1307 139.074C89.9827 138.875 89.7954 138.708 89.5805 138.583C89.3656 138.459 89.1275 138.38 88.8809 138.351C88.6343 138.321 88.3843 138.343 88.1463 138.414C87.9083 138.485 87.6872 138.603 87.4967 138.763Z" fill="white"/>
<path d="M88.8188 137.897C90.7476 137.982 91.3476 139.983 90.6164 141.554C90.9651 141.201 91.203 140.754 91.3009 140.268C91.3987 139.782 91.3522 139.278 91.167 138.817C90.9819 138.357 90.6662 137.961 90.2588 137.678C89.8515 137.395 89.3702 137.238 88.8744 137.225C86.0536 137.225 85.8208 140.245 86.4964 140.882C86.1488 139.829 86.8148 137.818 88.8188 137.897Z" fill="white"/>
<path d="M90.2226 141.192C90.2193 140.943 90.1609 140.697 90.0516 140.473C89.9423 140.249 89.7848 140.052 89.5904 139.897C89.396 139.741 89.1694 139.63 88.9271 139.572C88.6847 139.514 88.4326 139.51 88.1886 139.561C87.8625 139.629 87.5637 139.792 87.3298 140.029C87.096 140.267 86.9376 140.568 86.8747 140.896C86.8117 141.223 86.8469 141.561 86.9759 141.869C87.1049 142.176 87.322 142.438 87.5997 142.622C87.8774 142.807 88.2034 142.905 88.5366 142.904C88.8729 142.902 89.2011 142.8 89.4793 142.612C89.7576 142.423 89.9733 142.155 90.099 141.843C90.183 141.637 90.2246 141.415 90.2226 141.192ZM88.5202 142.53C88.2541 142.529 87.9945 142.448 87.7738 142.3C87.5531 142.151 87.3813 141.94 87.2798 141.694C87.1502 141.385 87.1408 141.038 87.2533 140.722C87.3659 140.406 87.5923 140.143 87.8883 139.985C88.1843 139.827 88.5286 139.786 88.8538 139.868C89.179 139.951 89.4617 140.152 89.6466 140.431C89.783 140.635 89.8614 140.872 89.8735 141.116C89.8855 141.361 89.8306 141.604 89.7148 141.82C89.599 142.036 89.4266 142.216 89.2162 142.341C89.0057 142.466 88.7651 142.532 88.5202 142.53Z" fill="white"/>
<path d="M88.5204 139.834C88.2539 139.835 87.9939 139.916 87.773 140.065C87.5522 140.214 87.3805 140.425 87.2796 140.672C87.1787 140.918 87.1531 141.189 87.2062 141.45C87.2592 141.711 87.3884 141.951 87.5776 142.139C87.7667 142.326 88.0072 142.454 88.2687 142.505C88.5302 142.556 88.801 142.529 89.0468 142.426C89.2927 142.323 89.5026 142.15 89.65 141.928C89.7975 141.706 89.8758 141.445 89.8752 141.179C89.8752 141.001 89.84 140.826 89.7716 140.662C89.7037 140.498 89.6039 140.349 89.478 140.224C89.352 140.099 89.2025 140 89.038 139.934C88.8737 139.867 88.6978 139.833 88.5204 139.834ZM87.5364 141.225C87.5756 141.054 87.6544 141.14 87.694 141.271C88.0612 141.851 89.0844 141.897 89.3928 141.448C89.5536 141.222 89.5504 141.533 89.5504 141.533C88.8944 142.802 87.4248 142.015 87.5364 141.225Z" fill="#311D00"/>
<path d="M89.3797 141.449C89.0713 141.898 88.0481 141.852 87.6805 141.272C87.6413 141.141 87.5625 141.056 87.5233 141.226C87.4249 142 88.8941 142.804 89.5369 141.534C89.5369 141.534 89.5405 141.223 89.3797 141.449Z" fill="white"/>
<path d="M60.5355 141.144C59.7579 141.692 59.4203 142.784 59.5711 143.883C59.2199 144.558 59.4331 145.559 60.1483 146.316C60.9223 147.13 62.0047 147.373 62.7003 146.936C63.2975 147.011 63.9003 146.846 64.3763 146.477C65.4915 145.549 65.5407 143.732 64.5171 142.276C63.4939 140.819 61.7127 140.317 60.5355 141.144ZM60.3483 146.064C59.6235 145.303 59.4987 144.247 60.0695 143.702C60.6403 143.158 61.6867 143.342 62.4115 144.106C63.1363 144.87 63.2611 145.93 62.6903 146.467C62.1195 147.005 61.0731 146.832 60.3483 146.067V146.064ZM63.1299 144.217C62.8578 143.722 62.4183 143.339 61.8899 143.138C61.5127 143.066 61.6571 142.456 62.1063 142.61C62.5878 142.827 63.0097 143.156 63.3363 143.571C63.7499 144.257 63.3103 144.601 63.1299 144.22V144.217ZM63.6415 146.343C65.7143 143.646 61.6735 140.508 60.0927 143C61.4175 138.933 66.7639 144.047 63.6415 146.346V146.343Z" fill="#311D00"/>
<path d="M62.1064 142.613C61.6572 142.459 61.5128 143.069 61.89 143.141C62.4184 143.342 62.8581 143.724 63.13 144.22C63.3104 144.601 63.75 144.256 63.3364 143.564C63.0086 143.153 62.5867 142.827 62.1064 142.613Z" fill="white"/>
<path d="M60.0923 142.999C61.6831 140.507 65.7143 143.655 63.6415 146.342C66.7639 144.046 61.4175 138.932 60.0923 142.999Z" fill="white"/>
<path d="M62.4116 144.109C61.6864 143.344 60.6404 143.167 60.0696 143.705C59.4988 144.243 59.6236 145.306 60.3484 146.067C61.0732 146.828 62.1228 147.015 62.6904 146.47C63.2576 145.926 63.1364 144.873 62.4116 144.109ZM62.3916 146.306C61.916 146.657 61.116 146.368 60.5288 145.831C59.9416 145.293 59.8464 144.355 60.2796 143.932C60.768 143.462 61.634 143.758 62.1524 144.348C62.572 144.834 62.9364 145.896 62.3916 146.306Z" fill="white"/>
<path d="M60.2793 143.932C59.8461 144.354 59.8953 145.244 60.5285 145.83C61.1613 146.418 61.9157 146.657 62.3913 146.306C62.9325 145.896 62.5717 144.834 62.1521 144.338C61.6241 143.758 60.7677 143.462 60.2793 143.932ZM61.9913 146.073C61.0073 146.165 60.1481 144.988 60.5053 144.466C60.5053 144.466 60.7745 144.099 60.8333 144.436C60.9108 144.751 61.0689 145.04 61.2921 145.274C61.5153 145.509 61.7959 145.682 62.1061 145.775C62.2373 145.811 62.2801 146.021 61.9913 146.073Z" fill="#311D00"/>
<path d="M60.824 144.437C60.7748 144.109 60.496 144.466 60.496 144.466C60.1384 144.988 61.0108 146.165 61.9816 146.073C62.2704 146.021 62.2276 145.811 62.0868 145.775C61.7785 145.68 61.5001 145.507 61.2788 145.272C61.0574 145.038 60.9007 144.75 60.824 144.437ZM55.9624 149.452C56.1528 149.321 56.3528 149.173 56.5072 149.061C53.8504 147.366 50.554 146.257 45.1944 148.025L44.9548 148.101C46.2408 147.841 48.0216 147.543 49.1336 147.618C50.5504 147.723 52.6332 147.927 54.6048 149.176L53.6208 149.714C50.2308 151.409 46.55 152.445 42.7736 152.768C40.5828 152.925 41.0056 151.646 42.4456 150.918C43.2396 150.515 43.9084 149.747 44.2036 148.34C43.9644 148.465 43.9644 148.412 43.6132 148.478H43.574C43.0952 151.922 36.358 151.564 37.106 146.88C37.106 146.88 36.122 144.889 35.5808 143.735C35.5808 143.781 35.4428 143.01 35.5184 142.99C35.5184 142.99 37.1584 145.66 37.844 146.507C36.9352 149.705 41.6092 151.039 42.8624 148.632C38.7424 149.399 38.5984 147.29 38.6476 146.585C38.6148 146.483 38.5916 146.369 38.5656 146.257C37.8472 145.526 35.5116 142.426 32.8548 137.559C32.5008 140.396 35.7148 146.959 35.9808 147.605L36.2564 148.284C35.2724 150.974 38.08 154.497 43.1016 153.686C48.0448 153.224 53.5944 151.154 55.9624 149.452Z" fill="white"/>
<path d="M125.276 140.832L125.604 141.468C125.817 141.872 126.043 142.265 126.26 142.646C126.82 141.986 127.329 141.284 127.782 140.547L126.086 140.724C126.086 140.724 125.801 140.773 125.276 140.832ZM127.818 135.633C128.539 135.565 129.251 135.496 129.96 135.42C130.418 133.694 130.694 131.924 130.783 130.139V129.641L146.806 132.367C146.806 132.367 145.753 129.982 145.474 129.175L130.753 126.649L130.734 126.184C130.692 125.577 130.634 124.971 130.56 124.367C129.871 124.445 129.189 124.517 128.517 124.59C128.992 128.309 128.864 132.176 127.818 135.633ZM99.8558 115.212C100.184 115.54 100.512 115.839 100.804 116.111L101.043 116.298C100.095 111.424 100.059 106.291 102.516 101.692L101.968 100.488C100.996 102.14 100.294 103.936 99.8886 105.808C99.2394 108.809 99.3442 112.057 99.8558 115.212ZM105.107 133.974L107.561 134.364C107.561 134.207 107.544 134.036 107.535 133.895C110.234 131.947 112.32 128.749 113.439 125.767L113.251 125.354L112.855 125.331C110.031 125.173 106.951 124.753 103.789 123.392C104.589 126.423 105.406 129.355 105.855 132.094C105.297 129.743 104.012 126.551 102.831 122.949C102.386 122.73 101.948 122.496 101.519 122.248C102.769 126.374 104.182 129.755 104.527 131.346C104.697 132.107 104.92 132.993 105.107 133.974Z" fill="#311D00"/>
<path d="M126.857 111.563C125.873 107.047 126.916 98.6503 130.209 96.2559C125.502 96.8263 124.194 108.621 126.857 111.563Z" fill="white"/>
<path d="M111.083 120.571L102.988 102.728C101.128 107.428 101.401 112.384 102.332 117.255C104.89 119.142 107.917 120.289 111.083 120.571ZM142.427 85.5568C144.979 86.8884 149.607 85.0616 146.815 80.6368L140.803 69.7832L138.478 70.8624L142.679 80.23L143.152 80.2828C143.842 80.376 144.523 80.5308 145.185 80.7452C146.953 81.2568 147.265 85.2388 143.896 84.904C143.352 84.832 142.827 84.7728 142.391 84.7272C141.682 84.5971 140.967 84.5061 140.249 84.4548L140.065 84.432C140.925 87.7808 140.675 92.2876 136.152 93.288C138.487 92.2676 136.444 91.5624 136.326 91.51C131.452 90.3916 123.354 91.894 122.465 91.2804C127.667 90.7788 128.061 88.184 127.637 85.5044L126.834 85.6684C127.335 88.4892 126.158 89.5388 124.597 90.1192C123.257 90.6069 121.849 90.8835 120.425 90.9392L118.873 90.8868C119.545 90.6604 120.874 90.6048 122.501 90.2704C125.003 89.7488 126.457 88.6532 126.283 85.7832L125.322 85.98C125.39 86.6824 125.265 87.3899 124.961 88.0268C124.459 88.9384 122.707 89.306 121.789 89.4404L120.444 89.6272C115.052 90.3196 112.956 91.3164 109.551 93.1568C109.551 93.1568 109.131 93.4224 108.938 93.57C107.583 94.3755 106.324 95.3329 105.186 96.4236L105.665 97.4796C106.305 96.843 106.985 96.2481 107.701 95.6988C108.739 94.8225 109.89 94.0899 111.123 93.5208C109.184 94.7472 107.414 96.2226 105.858 97.9092L113.793 115.418C113.137 110.531 122.507 106.814 125.929 114.936C126.62 116.587 127.189 118.286 127.631 120.02L129.707 119.81C129.486 118.89 129.23 117.978 128.939 117.078C128.347 114.437 128.061 111.738 128.087 109.032V108.576C129.5 110.216 134.578 115.733 140.649 117.498L139.14 113.808C139.14 113.808 133.026 111.184 128.483 104.21C128.546 103.862 128.602 103.604 128.641 103.436C129.153 100.874 130.065 98.4636 131.56 96.5908C131.659 96.466 131.754 96.3612 131.845 96.2628C131.991 96.0539 132.154 95.8585 132.334 95.6788L141.964 118.262C141.964 118.262 143.571 118.154 145.038 117.888C145.038 117.888 137.415 99.848 135.096 94.334C135.253 94.3112 135.424 94.298 135.591 94.2848L135.818 94.2556C135.959 94.2556 136.083 94.2356 136.146 94.226C138.442 93.8128 139.655 92.786 140.534 91.1888C141.285 89.8176 141.387 88.0072 141.263 86.5408C141.559 86.1178 141.961 85.7788 142.427 85.5568ZM126.857 111.564C124.193 108.612 125.502 96.8268 130.209 96.2564C126.916 98.6508 125.886 107.048 126.857 111.564Z" fill="#311D00"/>
<path d="M86.6735 127.34C86.7667 127.576 86.8763 127.805 87.0015 128.026C87.2106 128.384 87.5075 128.683 87.8643 128.895C90.4683 130.443 91.9051 128.472 91.9183 128.455C91.9315 128.439 93.1155 126.891 91.3835 125.175C91.0352 124.878 90.6307 124.654 90.1941 124.516C89.7574 124.378 89.2975 124.329 88.8415 124.372C88.6667 123.706 88.2648 123.123 87.7055 122.722C87.1461 122.321 86.4643 122.129 85.7779 122.177H85.7487C84.0199 122.295 83.6167 123.23 83.4199 123.768C83.2965 124.13 83.2513 124.515 83.2875 124.896C83.3236 125.277 83.4402 125.646 83.6295 125.979C83.6231 126.025 84.4627 127.681 86.6735 127.34ZM88.9531 124.841C90.8983 124.782 92.4167 126.727 91.4395 128.154L91.0851 128.212C89.3895 128.436 88.4347 127.763 88.1495 126.244C88.5814 125.892 88.8676 125.392 88.9531 124.841ZM86.6799 122.761C87.6443 123.07 88.3463 123.916 88.3003 124.785H88.4087C88.3299 125.418 87.6639 126.277 86.3063 126.071C86.2455 125.791 86.2136 125.505 86.2111 125.218C86.4485 125.299 86.6986 125.335 86.9491 125.326C86.95 125.193 86.9587 125.061 86.9751 124.929C86.707 124.899 86.4462 124.823 86.2043 124.703C86.215 124.028 86.3776 123.365 86.6799 122.761ZM84.4299 123.181C84.6179 122.998 84.8437 122.859 85.0914 122.773C85.3391 122.686 85.6027 122.656 85.8635 122.682C85.5864 123.215 85.4423 123.807 85.4435 124.408C85.3091 124.296 85.2039 124.293 85.0695 124.152V124.631C85.1547 124.782 85.2895 124.828 85.4599 124.959C85.4535 125.29 85.4876 125.62 85.5615 125.943C85.4731 125.913 85.4239 125.841 85.3287 125.795C83.9807 125.028 84.4299 123.181 84.4299 123.181ZM83.9283 123.775C83.7019 126.582 86.2635 126.992 87.7035 126.461C88.0151 128.734 89.9995 128.793 90.9507 128.642C90.3855 128.948 89.7296 129.042 89.1013 128.907C88.473 128.772 87.9134 128.417 87.5235 127.906C87.2651 127.567 87.0908 127.172 87.0147 126.753C85.2139 127.304 83.1639 125.848 83.9283 123.775Z" fill="white"/>
<path d="M132.367 73.9953C131.796 73.6281 130.927 72.3749 131.055 71.3549C132.397 71.3745 132.8 73.3229 132.367 73.9953ZM133.754 77.6361C133.08 76.9844 132.688 76.0942 132.662 75.1565C133.728 75.3729 134.371 76.6949 133.754 77.6361ZM128.038 75.0285C128.038 75.0285 128.881 77.6725 129.95 80.3129C132.751 79.5845 134.758 84.7537 129.818 85.1277C130.301 87.1909 134.945 86.3281 133.148 81.6609C132.787 80.7229 129.681 74.2741 129.084 72.6669C128.707 71.6405 128.694 71.4633 128.713 71.1057C128.707 70.9783 128.722 70.8506 128.759 70.7285L128.677 70.7681L127.67 71.2893C126.942 72.1521 128.038 75.0285 128.038 75.0285Z" fill="#311D00"/>
<path d="M126.126 74.8048C126.916 77.196 128.166 80.6496 128.166 80.6496L129.176 80.4596L127.25 75.0836C127.25 75.0836 126.46 73.0108 126.877 71.666L125.958 72.102C125.958 72.102 125.528 72.9844 126.126 74.8048ZM133.109 86.1012C136.854 86.3636 137.737 84.6972 137.737 84.6972C136.54 84.6776 134.178 84.6776 134.178 84.6776C134.112 85.4088 133.109 86.1012 133.109 86.1012ZM89.6616 105.092C90.2228 105.092 90.8228 105.807 90.8228 105.807L92.2236 107.349L97.432 98.8012C98.298 97.4432 99.846 95.5212 99.728 95.6228C99.728 95.6228 99.072 94.0256 98.7672 93.3892C98.5312 92.9118 98.4184 92.383 98.4392 91.8508C97.4659 93.0033 96.5559 94.2077 95.7132 95.4588C94.8736 96.7512 92.3876 100.668 89.6616 105.092ZM155.688 115.595C156.129 115.636 156.546 115.81 156.886 116.093C156.886 116.093 160.822 115.595 161.661 115.254C161.664 115.254 157.19 115.7 155.688 115.595ZM157.187 129.682C157.187 129.682 154.472 129.722 150.709 129.659L151.834 132.247L156.098 131.408C156.098 131.408 157.637 131.348 157.187 129.682ZM146.754 122.335C146.754 122.335 144.244 122.745 143.802 122.801C143.802 122.801 147.538 131.949 148.128 133.07C148.128 133.07 150.598 132.713 151.103 132.49C149.473 129.185 148.021 125.795 146.754 122.335ZM153.33 136.931C153.33 136.931 150.785 137.495 150.165 137.61C150.165 137.61 153.773 144.17 160.553 147.499C160.553 147.499 160.461 144.915 160.349 143.891C160.352 143.898 156.023 140.979 153.33 136.931ZM173.866 148.624C173.866 148.624 174.653 150.983 165.994 152.108C165.994 152.108 171.16 151.38 172.554 149.635C172.554 149.635 173.899 148.51 171.154 147.89C168.474 147.29 168.064 147.611 165.479 146.486C165.479 146.486 165.646 149.015 165.591 149.635C165.591 149.635 167.273 150.14 168.215 150.084C168.215 150.084 168.277 149.3 166.083 148.624C166.083 148.624 175.519 149.523 165.578 151.658C165.608 152.733 165.532 153.807 165.351 154.866C165.351 154.866 170.504 153.512 172.092 153.062C173.918 152.557 177.408 150.93 173.866 148.624ZM114.012 125.445C116.863 131.677 117.978 134.301 118.988 136.196C120.118 136.311 121.257 136.286 122.38 136.121L117.42 125.461C116.288 125.584 115.144 125.579 114.012 125.445ZM99.4332 91.3392C99.2932 91.5641 99.2189 91.8237 99.2189 92.0886C99.2189 92.3535 99.2932 92.6131 99.4332 92.838C99.4332 92.8544 106.272 107.808 112.107 120.57C113.22 120.762 114.35 120.837 115.479 120.794L101.788 90.4764C101.565 90.3776 101.323 90.3284 101.08 90.3324C100.745 90.3567 100.421 90.4608 100.134 90.636C99.8478 90.8111 99.6074 91.0522 99.4332 91.3392Z" fill="#311D00"/>
<path d="M163.704 155.375C163.953 155.227 164.159 155.018 164.302 154.768C164.446 154.517 164.522 154.233 164.524 153.944C165.603 141.723 160.936 125.543 156.209 116.831C155.921 116.591 155.571 116.438 155.199 116.391C154.827 116.343 154.449 116.403 154.11 116.562C153.829 116.679 153.583 116.868 153.398 117.11L153.359 117.389V117.517C152.923 117.668 152.472 117.771 152.014 117.825C145.388 119.137 122.852 121.889 116.669 121.732C114.768 121.747 112.869 121.659 110.978 121.469C106.284 120.938 103.87 119.57 100.505 116.946C97.4777 114.112 91.3409 107.762 90.2681 106.339C89.7665 105.752 88.8709 105.916 88.4181 106.276C88.0636 106.538 87.8273 106.929 87.7609 107.364C87.6946 107.8 87.8036 108.243 88.0641 108.598C90.5077 111.275 96.5757 117.058 96.6345 117.126C102.116 123.08 107.632 124.313 112.598 124.592C116.088 124.834 120.578 124.625 119.788 124.674C128.93 124.123 144.483 121.948 152.998 120.41C153.634 120.266 154.156 120.167 154.156 120.167H154.451C154.858 120.354 155.242 121.591 155.264 121.682V121.636C156.15 123.867 157.918 129.656 157.938 129.715C157.938 129.715 158.426 131.49 158.233 131.683C157.934 131.985 155.573 132.546 155.573 132.546C151.204 133.71 133.138 136.387 123.366 136.931C123.298 136.948 120.742 137.344 115.199 136.515L78.9325 130.535L76.9185 133.294C76.7613 133.294 114.428 139.427 114.428 139.427C117.09 139.867 119.783 140.081 122.481 140.067L123.573 140.037C124.938 139.978 125.712 139.86 125.732 139.86C135.83 138.837 148.622 137.203 156.892 135.235C157.438 135.124 157.994 135.067 158.551 135.065C158.789 135.089 159.023 135.149 159.243 135.242C159.482 135.544 159.638 135.902 159.696 136.282C161.172 141.608 161.484 149.615 161.5 149.992C161.5 149.992 161.529 151.652 161.25 152.288C160.906 152.659 159.68 152.869 159.68 152.869C146.271 156.3 130.625 153.879 124.554 140.874C123.242 140.985 121.244 140.946 121.244 140.946C121.41 141.425 121.614 141.891 121.854 142.337C125.768 150.999 132.81 154.45 138.77 156.024C145.33 157.759 153.123 157.648 160.394 155.778C161.572 155.384 161.529 155.296 161.529 155.296C161.867 155.459 162.234 155.55 162.608 155.564C162.983 155.578 163.356 155.513 163.704 155.375Z" fill="#311D00"/>
<path d="M81.1799 117.524C80.9011 118.013 80.2647 119.069 78.9527 120.912C78.3787 121.719 78.1755 122.454 78.3491 123.097C78.6083 124.048 79.6315 124.523 79.6415 124.527H79.6611L85.8571 128.328L86.5819 128.761L88.5763 129.995C90.0455 130.979 91.8071 130.181 92.7287 128.951C93.5355 127.856 93.8535 126.288 92.1939 124.711C92.1939 124.711 91.9055 124.33 90.4751 123.533C89.1403 122.795 84.5155 119.997 82.3179 118.613C82.3311 118.649 81.4651 118.144 81.1799 117.524ZM83.4035 123.799C83.6003 123.261 84.0039 122.326 85.7323 122.208H85.7619C86.4482 122.16 87.1299 122.352 87.6892 122.753C88.2486 123.154 88.6504 123.737 88.8255 124.402C89.2814 124.36 89.7413 124.409 90.1779 124.547C90.6145 124.685 91.019 124.909 91.3675 125.206C93.0991 126.908 91.9119 128.453 91.9019 128.486C91.8923 128.519 90.4523 130.457 87.8643 128.896C87.5068 128.679 87.211 128.374 87.0051 128.01C86.8799 127.79 86.7703 127.561 86.6771 127.325C84.4663 127.653 83.6267 126.013 83.6167 125.993C83.4296 125.663 83.3139 125.297 83.2772 124.919C83.2405 124.54 83.2835 124.159 83.4035 123.799ZM93.7911 121.873C92.4955 120.889 89.5007 118.921 87.2311 117.455L86.6963 117.973C86.6963 117.973 91.7475 121.339 93.0431 122.208C94.5223 123.208 95.0999 124.477 94.8667 125.75C94.8571 125.75 96.1099 123.648 93.7911 121.873Z" fill="#311D00"/>
<path d="M82.7241 118.072C84.9053 119.437 92.0101 123.622 92.0101 123.622C92.0101 123.622 93.9289 124.842 94.0141 126.39C94.5945 124.75 93.6173 123.517 92.6265 122.805L86.0141 118.377C84.7777 118.705 82.1633 117.344 82.2585 115.639C81.6057 116.196 81.4777 117.279 82.7241 118.072ZM88.1493 126.249C88.4345 127.765 89.3893 128.437 91.0849 128.217L91.4393 128.158C92.4233 126.731 90.8981 124.787 88.9529 124.845C88.8675 125.397 88.5813 125.897 88.1493 126.249Z" fill="#311D00"/>
<path d="M87.0244 126.755C87.1391 127.387 87.4761 127.958 87.9746 128.364C88.4731 128.77 89.1002 128.984 89.7428 128.968C90.1686 128.958 90.5859 128.847 90.9604 128.644C90.0028 128.795 88.0084 128.736 87.7132 126.463C86.2732 126.994 83.7116 126.584 83.938 123.777C83.164 125.849 85.214 127.306 87.0244 126.755ZM164.002 115.544C161.883 116.122 159.735 116.589 157.567 116.944C158.269 118.305 158.436 118.857 158.679 119.391C159.386 119.305 160.087 119.183 160.782 119.027C162.628 118.679 164.472 118.247 165.393 117.958L165.764 117.879C166.085 117.828 166.377 117.66 166.581 117.407C166.785 117.153 166.888 116.833 166.869 116.508C166.844 116.183 166.705 115.878 166.476 115.646C166.247 115.415 165.944 115.271 165.62 115.242C165.075 115.31 164.535 115.411 164.002 115.544ZM168.044 128.221C166.581 128.549 162.205 129.402 162.205 129.402L162.484 130.189C163.665 130.077 168.775 128.782 168.775 128.782C169.759 128.782 169.782 129.418 169.782 129.418C167.814 130.153 162.786 131.202 162.786 131.202C163.009 132.153 163.491 134.01 163.491 134.01C169.451 132.944 170.74 132.288 170.74 132.288C172.478 131.557 171.806 129.517 171.806 129.517C171.133 127.155 168.044 128.221 168.044 128.221Z" fill="#311D00"/>
<path d="M170.028 118.325C168.943 114.242 166.584 114.747 166.584 114.747C167.88 115.144 168.985 117.318 166.624 118.611C167.686 121.371 168.544 124.206 169.189 127.093C173.532 127.063 173.758 132.268 171.212 133.095C171.212 133.095 172.852 141.41 173.308 145.986C173.34 146.497 173.346 147.009 173.325 147.521C175.126 147.891 176.172 149.161 176.172 149.817C177.048 144.575 173.981 129.402 170.028 118.325ZM144.848 115.541L145.806 117.735C145.806 117.735 150.483 117.223 152.506 116.718C152.53 116.488 152.632 116.274 152.795 116.111C152.958 115.948 153.173 115.846 153.402 115.823C150.549 116.044 147.68 115.949 144.848 115.541ZM80.4088 126.079C80.4088 126.079 78.0408 124.656 77.742 124.088L73.0256 131.304C72.9101 131.446 72.8378 131.619 72.8174 131.801C72.7971 131.983 72.8295 132.167 72.9108 132.331C73.0886 132.638 73.3398 132.897 73.642 133.084C73.9441 133.27 74.2879 133.379 74.6424 133.4C74.8774 133.428 75.1156 133.391 75.3308 133.293C75.5461 133.194 75.7301 133.039 75.8628 132.843C75.8628 132.843 79.4148 127.549 80.4088 126.079ZM101.926 89.4447C102.254 89.6219 102.293 89.6907 102.67 90.3567C102.906 90.7731 103.566 92.1999 103.566 92.1999C104.76 91.2947 105.894 90.6487 108.023 89.8779C114.79 87.1291 122.882 85.5087 130.026 84.0819L130.57 83.9739C131.734 83.7867 132.046 83.0751 131.958 82.4683C131.861 82.0707 131.616 81.7247 131.274 81.5001C130.932 81.2755 130.517 81.189 130.114 81.2579C121.189 82.6979 110.867 85.3647 105.891 87.4475C104.508 87.9847 103.18 88.6535 101.926 89.4447ZM83.42 115.334L83.3972 115.36C82.9772 115.865 83.6756 116.587 83.8232 116.728C84.4596 117.344 85.4832 117.738 85.9684 117.351L89.5764 111.621C88.7257 110.846 87.9443 109.997 87.2412 109.086C84.2664 113.91 83.4824 115.213 83.43 115.318L83.42 115.334ZM138.317 80.5527C138.317 80.5527 139.042 82.2419 139.042 83.4195C140.452 83.5539 143.204 83.8163 144.257 84.0459C145.418 84.0459 145.622 83.2751 145.654 82.9375C145.714 82.3075 145.363 81.5467 144.772 81.4615H144.7C143.87 81.1663 139.878 80.7039 138.317 80.5527ZM86.9492 125.341C86.6987 125.35 86.4486 125.314 86.2112 125.233C86.214 125.52 86.2456 125.806 86.3064 126.086C87.6644 126.292 88.33 125.43 88.4088 124.8H88.3008C88.3464 123.931 87.6448 123.085 86.6804 122.776C86.374 123.388 86.2113 124.061 86.2048 124.744C86.4464 124.864 86.7072 124.94 86.9756 124.971C86.96 125.094 86.9512 125.217 86.9492 125.341ZM85.3288 125.788C85.424 125.833 85.4732 125.906 85.5616 125.935C85.4877 125.613 85.4536 125.282 85.46 124.951C85.2896 124.833 85.1548 124.787 85.0696 124.623V124.154C85.204 124.295 85.3092 124.298 85.4436 124.41C85.4423 123.809 85.5864 123.217 85.8636 122.684C85.6027 122.658 85.3391 122.688 85.0914 122.775C84.8438 122.861 84.618 123 84.43 123.183C84.43 123.183 83.9808 125.03 85.3288 125.788Z" fill="#311D00"/>
<path d="M141.755 80.0692L137.819 71.1476L136.923 71.5084C136.717 71.1048 136.333 70.9508 135.696 70.8884C102.952 12.3796 2.0724 44.8092 26.3444 122.243C27.8663 127.078 29.8125 131.77 32.1604 136.262C31.8552 137.495 31.8552 138.784 32.1604 140.018C32.8164 142.497 33.3672 144.019 35.3644 148.411C34.548 151.39 37.3324 155.765 44.086 154.466C52.1124 153.223 56.3076 150.317 57.2816 149.576C57.5504 149.762 57.8196 149.959 58.0884 150.156C72.3204 161.259 95.5984 162.144 104.199 149.002C107.623 149.7 111.9 149.126 111.9 149.126C116.354 148.831 119.943 147.64 122.744 145.79C122.416 145.236 122.072 144.672 121.76 144.082C118.152 146.515 112.982 147.811 105.708 147.22L105.245 147.158C106.468 144.656 107.202 141.945 107.41 139.168C106.872 139.08 106.318 138.981 105.744 138.893C105.849 141.047 105.545 143.202 104.848 145.243C104.417 146.475 103.816 147.641 103.06 148.706H103.077C101.362 151.231 99.0349 153.28 96.3136 154.663C85.542 160.282 68.814 156.998 59.0956 149.762C53.5196 145.6 50.2592 145.725 44.926 147.335C39.022 149.126 39.2548 145.695 39.2548 145.695C34.3052 138.676 29.7624 131.162 25.8724 116.992C16.5472 79.656 37.5196 53.4716 64.3828 44.8552C92.1284 40.132 113.491 55.7248 122.403 70.8096C122.14 70.9507 121.915 71.1533 121.747 71.4C120.861 72.7844 121.99 75.0932 122.075 75.3C122.075 75.3 123.715 79.9872 124.213 81.4632L125.197 81.276L122.783 74.5752C121.826 72.312 122.898 71.4724 122.898 71.4724C122.613 72.312 122.846 73.2796 123.006 73.788C123.318 74.772 124.374 77.6812 125.25 79.9148C125.42 80.3544 125.578 80.7744 125.716 81.1776C125.975 81.1252 126.234 81.0696 126.503 81.0268C125.752 78.7704 124.722 76.1332 124.41 75.254C124.141 74.5228 124.016 74.244 123.675 73.0632C123.22 71.4624 123.846 71.4232 124.525 71.374C124.912 71.3444 126.066 71.374 126.368 71.374C127.067 70.9968 128.562 70.2552 129.455 69.806C118.696 51.6184 97.1304 39.4592 68.8568 43.5924C91.1608 38.1704 116.489 44.596 131.734 66.316C132.538 67.6676 133.227 68.412 134.44 70.8392H133.896C133.046 69.6388 132.187 69.2548 131.141 69.2352C131.085 69.2352 129.054 69.2352 129.314 71.2952C129.407 71.9028 129.581 72.4952 129.832 73.0564L131.344 76.2412L131.748 77.0908L133.204 80.0428C133.204 80.0428 134.286 82.1976 134.348 83.3424L138.268 83.4148C138.268 83.4148 138.33 82.2176 137.491 80.0788C136.881 78.5408 135.057 72.9024 134.457 71.7772C134.449 71.7582 134.44 71.7396 134.43 71.7216C134.901 71.7212 135.37 71.7608 135.834 71.8396C136.605 73.8076 137.724 77.1632 138.583 79.81L138.911 79.8264L139.59 79.882C139.59 79.882 139.59 79.856 139.574 79.8364C139.921 79.8528 141.269 79.9708 141.755 80.0692ZM32.8588 137.558C35.5156 142.435 37.8476 145.531 38.566 146.263C38.592 146.381 38.618 146.496 38.6448 146.591C38.592 147.299 38.7428 149.408 42.8692 148.641C41.6064 151.045 36.9356 149.713 37.8412 146.512C37.1688 145.672 35.522 142.999 35.522 142.999C35.4432 143.016 35.594 143.796 35.5844 143.74L37.1064 146.889C36.3684 151.576 43.0924 151.927 43.5844 148.493C43.604 148.493 43.6104 148.493 43.6204 148.474C43.968 148.411 43.978 148.474 44.2108 148.339C43.9156 149.743 43.2532 150.514 42.456 150.917C41.0096 151.642 40.5864 152.928 42.784 152.767C44.9816 152.606 48.9568 151.98 53.6344 149.707L54.6184 149.172C52.6504 147.926 50.5676 147.722 49.144 147.614C48.0352 147.542 46.2544 147.837 44.9652 148.096L45.208 148.027C50.5676 146.256 53.8672 147.371 56.524 149.064C56.3632 149.172 56.1664 149.313 55.9796 149.448C53.608 151.156 48.0516 153.223 43.1152 153.689C38.0936 154.502 35.2956 150.98 36.27 148.293L35.9912 147.614C35.7124 146.962 32.498 140.405 32.8588 137.558ZM135.044 76.7136C135.401 78.2716 134.273 79.1112 133.154 77.8224C132.739 77.3378 132.438 76.7662 132.272 76.1496L132.236 76.0512C132.122 75.5647 132.088 75.0626 132.138 74.5652C131.624 74.1074 131.21 73.5493 130.921 72.9252C130.265 70.9572 130.921 70.5176 131.216 70.4128C132.298 70.144 133.81 71.7544 133.702 74.1684C134.302 74.7752 134.739 75.336 135.044 76.7136Z" fill="#311D00"/>
<path d="M135.044 76.7136C134.739 75.336 134.302 74.772 133.702 74.1716C133.81 71.7576 132.298 70.1472 131.216 70.416C130.921 70.5212 130.258 70.9704 130.921 72.9288C131.21 73.5529 131.624 74.111 132.138 74.5688C132.088 75.066 132.121 75.568 132.236 76.0544L132.272 76.1528C132.437 76.7694 132.739 77.341 133.154 77.8256C134.273 79.1116 135.401 78.2716 135.044 76.7136ZM132.367 73.9948C131.797 73.6272 130.928 72.3744 131.055 71.3544C132.397 71.374 132.8 73.3224 132.367 73.9948ZM133.755 77.6356C133.08 76.9837 132.688 76.0933 132.662 75.1556C133.728 75.3724 134.372 76.694 133.755 77.6356Z" fill="white"/>
</g>
</svg>
