<svg width="200" height="200" viewBox="0 0 200 200" fill="none" xmlns="http://www.w3.org/2000/svg">
<g clip-path="url(#clip0_17_1012)">
<path d="M195.622 78.6759H122.958L99.8108 9.45508L76.662 78.6759H4L63.5336 121.297L40.6796 190.558L99.8108 148.319L158.946 190.477L136.086 121.299L195.622 78.6759Z" fill="#FFFFFE"/>
<path d="M99.8106 17.6934L78.5202 81.2606H12.0386L66.5798 120.304L45.6038 183.869L99.8218 145.149L154.022 183.869L133.037 120.304L187.581 81.2606H121.099L99.8106 17.6934Z" fill="#002244"/>
<path d="M99.8106 35.2129L82.6907 86.7009H28.8398L73.0194 118.327L56.029 169.813L99.9426 138.452L143.59 169.813L126.599 118.329L170.781 86.7009H116.929L99.8106 35.2129Z" fill="#FFFFFE"/>
<path d="M99.8107 50.3555L86.3547 91.0307H43.8179L78.7163 116.016L65.2911 156.691L99.9867 131.915L134.328 156.691L120.901 116.018L155.801 91.0307H113.265L99.8107 50.3555Z" fill="#002244"/>
</g>
<defs>
<clipPath id="clip0_17_1012">
<rect width="200" height="200" fill="white"/>
</clipPath>
</defs>
</svg>
