<svg width="200" height="200" viewBox="0 0 200 200" fill="none" xmlns="http://www.w3.org/2000/svg">
<g clip-path="url(#clip0_17_1007)">
<path d="M101.262 154.907C101.268 154.98 101.181 155.471 100.987 155.685C100.791 155.901 100.505 155.98 100.228 156.041C99.7756 156.141 99.3288 156.045 98.9688 155.772C98.6732 155.549 98.4888 155.235 98.4668 154.931L98.4648 154.914L98.4628 154.916L95.1008 143.98C93.2176 138.372 90.3708 132.357 84.8484 127.033C78.1776 120.604 68.3444 116.157 54.7856 113.445C42.9676 111.08 35.1892 109.046 29.5636 106.852C24.1632 104.748 20.9784 102.556 17.858 99.9164C9.9044 93.1852 4.36 84.6036 4 73.7936C4 73.7936 11.9132 84.9668 20.6108 79.6304C24.7224 77.1088 27.6784 77.4684 27.6784 77.4684C25.0032 74.5188 23.0296 70.6668 22.5016 66.4776C22.0808 63.1276 22.3556 59.4088 23.3176 55.426C24.9552 48.6468 29.724 43.6788 29.7704 43.6016C29.7704 43.6016 27.8944 59.8868 35.6876 65.6644C40.4936 68.3668 45.4248 67.2768 45.4248 67.2768C45.4248 67.2768 38.9536 64.2828 38.0472 54.672C37.6504 50.4476 38.2744 47.1252 38.4404 46.2768C38.4404 46.2768 46.9832 58.3264 55.5424 53.3772C57.4568 52.2704 67.558 47.0536 71.9132 45.8968C78.3068 44.2016 84.634 44.0816 90.7192 45.5428C95.7708 46.7548 100.702 49.0644 105.379 52.4052C113.715 58.3616 119.113 66.0948 121.046 69.144C121.046 69.144 137.824 68.406 147.005 80.1312L147.018 80.1496L168.254 89.5152L165.846 91.0536L165.741 91.122L165.85 91.1904C172.722 95.5548 184.745 103.29 188.018 106.079L188.026 106.086L188.037 106.092L194.12 108.983L193.011 111.925V111.927C192.937 112.124 191.286 116.842 194.401 119.175L195.967 120.348L196 120.374L195.985 120.411L191.203 133.068L189.992 131.442C183.321 122.256 177.016 120.559 173.848 120.494C170.262 120.418 170.01 122.328 170.454 123.15C171.896 125.812 179.933 127.192 182.911 127.495L184.938 127.758L177.197 134.689L163.161 133.807L163.104 133.804L163.11 133.746L163.346 130.992V130.976C163.274 130.454 162.325 125.751 150.848 121.031L150.815 121.02L150.782 121.034C148.83 121.935 144.826 123.488 139.918 123.752C134.001 124.071 128.51 122.475 123.597 119.012L123.564 118.992L123.523 119.001C121.553 119.673 117.667 121.189 113.782 123.855C106.573 128.808 102.638 135.285 102.09 143.108C102.09 143.108 101.458 149.555 101.263 154.908" fill="#002244"/>
<path d="M55.497 67.9659C71.1266 63.1699 81.7049 63.9171 85.3162 70.0575C72.0462 71.5739 58.7758 75.3367 45.875 81.2467C39.4118 80.8075 33.4742 78.1719 29.989 74.1895C25.595 69.1687 24.1442 61.6851 27.1738 52.2463C27.3898 60.3883 29.7602 65.1675 33.6926 67.8587C38.3062 71.0167 45.4378 71.0499 55.4974 67.9655L55.497 67.9659ZM104.077 55.1883C109.432 59.1927 114.459 64.7083 118.624 71.1495C110.499 69.6499 102.166 69.0579 93.8541 69.3915C91.3969 64.4795 87.2374 60.8787 82.7146 59.7555C77.695 58.5103 71.261 59.4715 63.5902 62.6127C56.7022 65.4331 51.2082 65.7447 47.259 63.5407C45.051 62.3087 43.3302 60.2943 42.1398 57.5567C41.1854 55.3635 40.7922 53.2183 40.5926 52.0339L40.6886 52.1315C42.7822 54.3007 48.3446 60.0631 56.9458 55.6087C60.217 53.9135 68.953 49.6287 72.817 48.5899C78.7818 46.9871 84.697 46.9499 90.385 48.4219C95.0946 49.6411 99.7006 51.9175 104.076 55.1879L104.077 55.1883ZM9.19336 81.7171C9.19336 81.7171 13.9158 86.2123 21.8618 82.1451C30.7954 77.5723 32.3186 82.6211 39.7806 84.9767C12.825 100.453 9.19336 81.7175 9.19336 81.7175V81.7171Z" fill="#FB4F14"/>
<path d="M188.988 114.111C189.009 112.035 189.564 110.346 189.681 110.021L186.06 108.331L186.046 108.328L186.038 108.317C183.803 105.9 159.594 90.6879 159.35 90.5331L159.258 90.4759L159.348 90.4187L161.137 89.2271L144.73 82.2839L144.712 82.2747L144.699 82.2579C138.04 72.3063 124.916 71.9099 122.396 71.9283C127.395 73.4723 128.922 74.9923 129.308 76.0047C129.565 76.6815 129.308 77.1039 129.297 77.1207L129.269 77.1651L129.221 77.1523C72.6125 61.7351 26.3037 97.2067 24.3633 98.7227C26.5861 100.964 31.5817 103.983 49.5393 107.968C53.5473 104.839 72.6493 91.2687 101.481 92.0675L96.8029 85.0063C96.8029 85.0063 114.661 89.6435 124.855 95.3027C124.069 102.843 128.743 110.111 136.283 112.335C141.688 113.929 147.262 112.553 151.253 109.159L164.064 117.327L151.774 112.563C146.547 116.34 139.648 117.655 133.044 115.51C124.873 112.859 119.455 105.655 118.685 97.6195C91.0205 90.6783 70.6225 108.157 66.5461 112.005C69.8413 113.047 72.8821 114.232 75.6401 115.551C79.0001 117.159 82.0261 119.005 84.6789 121.068C86.7281 118.57 94.8973 109.991 110.564 109.862C110.564 109.862 95.1817 113.839 90.2781 126.358C94.6349 131.399 96.8781 136.726 98.6025 141.813C98.9937 136.979 100.541 132.541 103.22 128.621C105.411 125.419 108.352 122.552 111.963 120.103C118.11 115.932 124.151 114.397 124.212 114.383L124.245 114.373L124.271 114.395C136.736 124.434 150.457 116.529 150.594 116.447L150.621 116.432L150.654 116.443C154.491 117.907 157.732 119.549 160.282 121.326C162.326 122.744 163.936 124.255 165.067 125.81C166.823 128.224 166.873 129.96 166.862 130.322L176.157 130.931L178.884 128.605C170.436 127.511 167.875 124.888 167.352 122.641C166.444 117.22 171.982 116.552 174.506 116.88C180.39 117.647 187.544 122.914 190.238 126.577L192.232 121.228C189.518 119.167 188.968 116.22 188.988 114.109" fill="#FFFFFE"/>
<path d="M156.214 92.3431C156.135 92.8698 155.86 93.3472 155.443 93.679C155.027 94.0107 154.5 94.1721 153.969 94.1307C153.693 94.1098 153.424 94.0348 153.177 93.91C152.93 93.7851 152.711 93.6128 152.53 93.403C152.35 93.1931 152.213 92.9498 152.127 92.687C152.041 92.4241 152.007 92.1469 152.029 91.8711C152.071 91.3474 152.306 90.8582 152.689 90.4987C146.475 87.4515 143.224 86.9883 143.224 86.9883C150.751 91.9799 153.963 96.1431 153.963 96.1431L155.998 94.7559L175.03 105.369C167.459 99.1995 161.158 95.0839 156.214 92.3431Z" fill="#002244"/>
<path d="M152.029 91.8708C152.007 92.1467 152.041 92.424 152.127 92.6869C152.213 92.9498 152.35 93.1931 152.53 93.403C152.711 93.6128 152.93 93.7851 153.177 93.9099C153.424 94.0348 153.693 94.1097 153.969 94.1305C154.5 94.1719 155.027 94.0105 155.443 93.6787C155.86 93.347 156.135 92.8696 156.214 92.3428C155.915 92.1768 155.619 92.0144 155.328 91.8596L153.251 93.3832L153.829 91.0701C153.439 90.8689 153.059 90.6788 152.69 90.498C152.307 90.8575 152.071 91.3467 152.029 91.8704" fill="#FB4F14"/>
<path d="M153.25 93.3838L155.327 91.8602C154.831 91.5904 154.331 91.3272 153.828 91.0706L153.25 93.3838M186.311 110.465C181.83 112.256 187.605 117.389 187.605 117.389C175.047 107.485 186.311 110.465 186.311 110.465ZM131.685 78.1218C139.804 78.2858 131.745 74.8438 131.745 74.8438C131.745 74.8438 137.59 75.7402 140.991 81.1578C137.782 79.9218 134.273 78.7578 131.685 78.1218Z" fill="#002244"/>
</g>
<defs>
<clipPath id="clip0_17_1007">
<rect width="200" height="200" fill="white"/>
</clipPath>
</defs>
</svg>
