<svg width="200" height="200" viewBox="0 0 200 200" fill="none" xmlns="http://www.w3.org/2000/svg">
<g clip-path="url(#clip0_17_1016)">
<path d="M173.989 73.3111C173.989 73.3111 176.387 71.2531 178.895 71.2983C181.408 71.3375 183.143 72.1803 184.087 73.1859C184.087 73.1859 186.086 72.9127 188.256 73.5083C190.424 74.1075 193.486 75.8971 194.679 77.9807C195.87 80.0679 196.008 82.4667 194.77 84.7363C194.77 84.7363 195.181 86.2795 194.168 88.1939C193.146 90.1127 191.479 91.1091 191.479 91.1091C191.479 91.1091 190.339 93.9451 187.364 95.2635C184.383 96.5839 180.47 95.0927 180.47 95.0927C180.47 95.0927 178.253 95.5247 176.582 95.5247C174.897 95.5215 172.547 94.7983 171.825 94.4583C171.825 94.4583 169.829 97.3887 169.272 98.0875C169.272 98.0875 171.999 100.46 174.981 101.395C177.958 102.329 180.299 102.757 181.664 103.732C183.017 104.717 183.538 105.673 183.538 105.673C183.538 105.673 185.619 105.349 187.617 105.821C189.618 106.29 191.953 107.863 193.487 109.953C195.02 112.04 195.955 114.718 195.317 117.267C194.679 119.825 193.221 120.755 193.221 120.755C193.221 120.755 192.51 123.104 191.061 124.547C189.619 126.003 187.557 126.097 187.557 126.097C187.557 126.097 186.426 127.616 183.49 128.082C180.556 128.551 178.455 126.927 178.455 126.927C178.455 126.927 176.135 127.19 172.979 126.21C169.833 125.235 167.677 122.007 167.677 122.007C167.677 122.007 165.627 121.021 161.837 120.847C158.049 120.674 149.589 118.972 145.823 116.781C145.823 116.781 143.608 117.851 136.895 118.198C136.895 118.198 135.901 115.166 133.955 113.645C133.955 113.645 128.185 116.848 126.361 117.694C124.529 118.549 121.142 120.024 118.195 120.203C118.195 120.203 117.422 125.016 116.015 127.615C114.614 130.216 111.916 132.147 109.631 132.905C109.631 132.905 112.956 134.085 114.706 136.681C116.445 139.282 117.043 142.132 115.853 144.429C114.659 146.729 113.314 147.353 113.314 147.353C113.314 147.353 112.631 149.675 109.945 150.88C107.255 152.087 103.875 151.448 103.875 151.448C103.875 151.448 102.004 152.435 99.441 152.415C96.8742 152.392 93.6582 150.208 93.6582 150.208C93.6582 150.208 85.2446 150.978 82.7406 150.768C80.2382 150.566 77.2742 149.527 75.8614 145.829C75.8614 145.829 74.3242 147.113 72.0306 148.221C69.7334 149.328 65.3818 151.462 62.2554 153.69L62.3594 155.352C62.3594 155.352 66.9294 157.074 67.2222 161.755C67.5226 166.439 64.9654 168.176 64.2398 168.673C64.2398 168.673 63.2674 170.785 61.1814 171.847C59.0982 172.908 56.795 172.419 56.795 172.419C56.795 172.419 51.6566 174.7 47.7402 170.952C43.8218 167.209 44.9306 163.165 44.9762 162.181C45.0146 161.206 45.2998 152.624 45.2594 152.225C45.2594 152.225 43.3146 149.625 43.7394 146.686C44.165 143.751 46.4194 141.916 47.4806 141.025C48.5482 140.129 49.8246 138.645 50.4574 136.387C51.0942 134.133 51.1386 129.528 51.3522 127.827C51.5678 126.124 51.6566 123.271 51.6566 123.271C51.6566 123.271 43.9558 121.147 39.9534 116.676C35.953 112.204 34.8442 108.968 33.8186 104.546C32.8046 100.119 32.0838 95.6459 28.0186 93.1363C28.0186 93.1363 25.3566 93.8987 22.2982 92.6647C19.2362 91.4319 17.361 88.9623 15.4066 86.5359C13.4482 84.1091 6.47778 83.0023 4.00098 82.8763C4.00098 82.8763 9.23378 77.0835 16.299 74.6147C23.3598 72.1495 26.7202 73.1239 29.0614 74.4455C31.4034 75.7659 33.2426 77.9883 34.109 81.0075C34.109 81.0075 38.7138 82.9999 41.867 86.7071C45.0146 90.4071 46.503 93.6863 47.5282 97.7295C48.5482 101.778 49.8322 106.681 57.9486 108.463C57.9486 108.463 62.7578 103.651 64.5806 102.453C66.4154 101.266 68.7082 100.591 69.3698 100.396C70.027 100.202 73.1194 99.1951 73.1194 99.1951C73.1194 99.1951 77.9782 95.2303 78.7698 94.4387C78.7698 94.4387 80.5814 91.2183 81.7294 89.3455C82.8786 87.4727 84.6766 85.6155 84.6766 85.6155C84.6766 85.6155 82.3178 81.2299 82.4482 76.4303C82.4482 76.4303 83.6094 76.9579 84.649 77.1087C84.649 77.1087 84.5778 73.5543 86.879 70.2755C89.175 66.9915 91.4934 64.9367 91.4934 64.9367C91.4934 64.9367 91.3182 60.6183 93.9338 56.5263C93.9338 56.5263 91.941 53.3311 91.7698 51.2883C91.7698 51.2883 95.0874 50.9903 97.5978 50.2663C100.111 49.5431 101.341 49.0351 102.619 47.4955C103.894 45.9651 106.955 42.2191 110.829 40.3863C114.705 38.5571 118.999 37.8919 122.082 38.1355C122.082 38.1355 120.191 36.5119 118.099 35.8335C118.099 35.8335 121.667 33.2051 128.689 32.4547C128.689 32.4547 128.742 28.8951 129.501 27.0215C129.501 27.0215 138.826 33.4063 143.501 35.2399C148.183 37.0735 151.583 37.6663 154.009 38.8615C156.426 40.0471 158.145 42.2447 158.54 43.5979C158.54 43.5979 161.153 44.6027 163.153 46.0095C165.15 47.4131 166.309 50.8019 166.309 50.8019C166.309 50.8019 170.089 52.3103 174.005 54.6923C177.915 57.0755 182.719 62.1007 182.719 62.1007C182.719 62.1007 179.692 63.4343 177.122 67.1515C177.122 67.1515 175.94 71.2771 173.991 73.3095" fill="#B0B7BC"/>
<path d="M168.52 75.0327C168.52 75.0327 170.282 74.9979 171.825 75.4283C173.374 75.8615 174.352 76.3695 174.352 76.3695C174.352 76.3695 175.491 75.6463 176.071 75.1443C176.645 74.6339 178.375 73.7395 179.917 73.9895C181.466 74.2415 182.56 75.3459 182.846 75.8167C182.846 75.8167 184.166 75.8967 185.389 75.8283C186.613 75.7523 188.88 76.1839 190.676 77.6255C192.484 79.0651 194.13 81.1927 191.937 84.0327C191.937 84.0327 192.407 85.8343 191.758 87.1287C191.111 88.4295 189.437 89.1371 189.437 89.1371C189.437 89.1371 188.406 92.2095 185.999 92.9995C183.588 93.7955 180.563 92.3107 180.563 92.3107C180.563 92.3107 177.726 92.9995 175.672 92.8579C173.622 92.7111 171.38 90.9783 171.38 90.9783C171.38 90.9783 170.887 91.2723 170.424 91.9523C169.951 92.6395 166.42 97.5915 165.598 98.4639C165.598 98.4639 169.052 101.822 172.47 103.222C175.89 104.624 177.615 104.848 178.52 105.094C179.414 105.35 181.394 106.465 182.118 108.629C182.118 108.629 184.315 108.082 185.75 108.194C187.19 108.3 188.593 108.586 191.112 111.178C193.63 113.771 193.056 116.116 192.66 117.192C192.265 118.266 190.767 119.198 190.767 119.198C190.767 119.198 190.642 121.369 189.346 122.522C188.048 123.67 186.292 123.473 186.292 123.473C186.292 123.473 185.604 124.785 183.808 125.332C182.004 125.872 180.063 124.93 179.157 124.212C179.157 124.212 175.454 124.538 173.047 123.348C170.641 122.16 169.508 119.83 169.508 119.83C169.508 119.83 165.424 118.159 161.176 118.124C156.932 118.09 148.71 115.793 146.016 113.826C146.016 113.826 141.928 115.69 138.634 115.739C138.634 115.739 137.617 112.653 134.054 110.511C134.054 110.511 126.418 114.745 123.684 116.005C120.951 117.265 116.139 117.722 115.435 117.798C115.435 117.798 115.734 118.954 115.379 120.828C115.006 122.698 113.862 126.375 112.892 127.599C111.915 128.822 109.217 130.332 107.637 130.909C106.056 131.486 104.078 131.992 102.415 132.815C100.765 133.646 98.7491 135.33 97.8671 136.126C97.8671 136.126 100.415 136.771 101.183 136.737C101.949 136.708 103.318 135.945 104.329 135.555C105.339 135.155 108.177 134.614 110.445 136.309C112.712 138 113.898 140.194 113.82 141.856C113.756 143.51 112.682 144.713 111.098 145.532C111.098 145.532 110.626 147.87 108.65 148.587C106.662 149.305 103.37 148.654 103.37 148.654C103.37 148.654 101.808 149.669 99.9363 149.773C98.0663 149.884 95.5495 148.263 95.1535 148.048C94.7527 147.829 94.3611 147.617 93.6747 147.617C92.9867 147.617 85.5831 148.23 83.2791 148.23C80.9787 148.23 79.3959 147.109 78.4231 145.312C77.4511 143.51 78.8139 140.63 79.6835 139.484C80.5415 138.324 81.9155 136.74 82.0875 136.415C82.2691 136.091 82.3103 135.555 81.8407 135.229C81.3723 134.905 79.8703 134.164 79.8703 134.164C79.8703 134.164 77.5943 138.724 76.7327 140.269C75.8667 141.816 74.7507 143.544 72.5951 144.877C70.4331 146.211 65.8611 148.23 63.4563 149.703C61.0415 151.177 59.6127 152.538 59.6127 152.538C59.6127 152.538 59.6375 156.877 59.7683 157.411C59.7683 157.411 61.9407 157.84 62.8095 158.594C63.6743 159.354 64.5327 160.577 64.4963 162.269C64.4663 163.96 64.2399 165.951 62.1331 166.738C62.1331 166.738 61.5447 168.928 59.8931 169.575C58.2363 170.225 56.5427 169.65 56.5427 169.65C56.5427 169.65 54.2807 170.797 51.9047 170.296C49.5315 169.794 47.5515 167.348 47.5151 164.858C47.4807 162.371 47.9075 153.375 47.9075 152.793C47.9075 152.218 47.9075 151.608 47.4807 150.818C47.0467 150.026 46.0363 148.048 46.2947 146.784C46.5455 145.524 47.8379 144.046 49.0259 143.037C50.2123 142.031 51.6567 141.026 52.3735 139.006C53.0899 136.996 53.7019 134.222 53.7775 132.094C53.8499 129.974 54.1075 123.061 54.5735 121.189C54.5735 121.189 45.6423 119.206 41.6143 114.599C37.5871 109.989 36.9011 106.315 35.7503 101.384C34.5983 96.4495 33.1283 92.6771 28.4375 90.2223C28.4375 90.2223 25.9239 91.4471 22.6927 90.0439C19.4515 88.6387 17.6863 84.9663 15.9635 83.6651C14.2359 82.3727 9.53473 81.6287 8.59473 81.6555C8.59473 81.6555 14.1959 77.7663 18.0495 76.6139C21.8979 75.4631 26.0767 75.1035 28.6995 77.1943C31.3235 79.2743 31.7191 82.8807 31.7191 82.8807C31.7191 82.8807 37.1195 85.1127 40.2515 88.9627C43.3827 92.8179 44.3091 96.4131 44.9235 98.8271C45.5379 101.24 47.4363 106.062 50.4815 108.19C53.5279 110.32 57.0991 111.215 58.9603 111.341C58.9603 111.341 64.2135 105.849 66.0139 104.659C67.8071 103.472 69.8247 103 70.6831 102.751C71.5503 102.502 74.5423 101.51 74.5423 101.51C74.5423 101.51 79.8371 96.9475 80.8543 96.1603C80.8543 96.1603 83.9251 90.8363 84.7879 89.5727C85.6559 88.3151 87.9727 85.3539 87.9727 85.3539C87.9727 85.3539 85.8499 82.9295 85.8767 79.7911C85.8767 79.7911 87.1275 80.0399 87.9191 79.9623C87.9191 79.9623 86.8791 78.1995 87.3843 75.7135C87.8891 73.2295 90.5803 69.1951 94.1815 66.0959C94.1815 66.0959 94.0391 63.4719 94.7915 60.9939C95.5503 58.5047 97.0847 56.5183 97.0847 56.5183C97.0847 56.5183 95.4427 54.4855 95.1835 52.8915C95.1835 52.8915 98.2855 52.6003 100.445 51.8847C102.602 51.1583 104.33 49.6287 104.33 49.6287C104.33 49.6287 108.462 43.9215 113.498 42.1207C118.544 40.3199 123.68 40.8763 123.68 40.8763C123.68 40.8763 126.228 39.2175 127.278 38.8523C127.278 38.8523 125.279 36.5999 123.62 35.9067C123.62 35.9067 127.505 34.7327 131.083 35.0075C131.083 35.0075 131.149 32.5167 131.556 31.0703C131.556 31.0703 137.792 35.5727 140.637 36.8283C143.477 38.0883 148.907 39.8899 150.747 40.4683C152.58 41.0427 155.692 42.2391 156.35 45.5635C156.35 45.5635 159.375 46.8375 160.567 47.4875C161.755 48.1379 162.98 49.6863 163.229 50.3347C163.474 50.9783 163.726 51.7787 164.035 52.2775C164.346 52.7811 164.879 53.1375 165.384 53.3143C165.89 53.4991 170.888 55.7303 173.196 57.4583C175.493 59.1931 178.631 62.1771 178.631 62.1771C178.631 62.1771 175.509 64.6683 174.741 65.8175C174.741 65.8175 173.807 68.9507 172.297 71.1783C170.78 73.4103 168.521 74.2815 168.521 74.2815V75.0327" fill="#FFFFFE"/>
<path d="M161.823 98.5684C161.823 98.5684 153.636 106.822 146.248 110.807C146.248 110.807 142.805 112.434 140.131 112.818C140.131 112.818 138.028 108.801 133.823 107.557C133.823 107.557 124.916 104.145 112.039 106.828C112.039 106.828 124.29 105.932 130.428 109.473C127.631 111.022 123.808 113.074 121.781 113.866C118.34 115.207 113.854 115.114 112.126 115.4C112.126 115.4 112.989 118.458 112.891 119.415C112.798 120.368 111.843 125.156 110.221 126.494C108.593 127.828 104.388 129.167 102.192 129.938C99.9944 130.698 95.1176 133.759 93.588 137.966C93.588 137.966 99.324 139.214 100.852 139.398C102.382 139.588 103.814 138.73 104.869 138.255C105.918 137.772 107.254 137.486 108.69 138.348C110.122 139.215 110.794 140.454 111.079 141.41C111.366 142.365 110.319 143.222 108.593 143.515C108.593 143.515 108.786 145.524 107.737 145.998C106.682 146.476 104.103 146.192 102.665 145.709C102.665 145.709 101.717 147.055 99.7068 147.055C97.702 147.055 96.36 144.947 94.2604 144.852C92.1584 144.757 85.5636 145.617 83.1728 145.428C80.782 145.235 80.594 143.803 81.0716 142.459C81.5512 141.125 84.5108 138.16 84.9896 136.817C85.4032 135.652 85.7696 133.614 80.9968 131.715C81.2024 131.461 84.6416 127.214 90.0452 123.954C95.336 120.767 100.589 117.792 106.742 115.832C104.261 116.072 100.458 116.997 95.4944 119.092C88.034 122.253 83.7404 126.333 83.7404 126.333C83.7404 126.333 84.2924 124.178 90.7412 118.444L90.6744 118.49C81.8592 122.508 78.1756 131.58 78.1096 131.72C76.998 133.987 73.9224 140.165 72.754 141.411C71.324 142.94 67.312 144.375 64.3512 146.093C61.3828 147.816 57.5604 150.018 57.0824 151.449C56.6036 152.886 57.1864 159.383 57.3696 159.772C57.3696 159.772 60.718 160.057 61.3828 160.917C62.0508 161.776 61.9636 163.497 61.5708 163.977C61.194 164.46 59.7584 164.46 59.7584 164.46C59.7584 164.46 59.854 166.364 58.8976 166.939C57.9432 167.519 55.8416 166.658 55.8416 166.658C55.8416 166.658 55.2656 167.519 53.8356 167.704C52.404 167.899 51.3504 167.33 50.6808 166.274C50.0116 165.221 50.302 163.787 50.302 162.636C50.302 161.49 50.7748 153.456 50.584 151.543C50.3988 149.636 48.7692 148.296 49.0564 147.049C49.3436 145.81 52.8768 143.796 54.022 141.693C55.1728 139.588 56.224 136.816 56.506 131.944C56.7932 127.066 56.7932 122.567 57.56 120.083C57.658 119.77 57.752 119.474 57.8372 119.185C54.732 118.6 48.0848 116.77 44.9768 114.049C41.478 110.997 39.9168 107.942 39.17 103.998C38.426 100.046 36.8312 95.5924 35.23 92.7504C33.5588 89.808 28.4544 87.1668 28.4544 87.1668C28.4544 87.1668 26.1764 89.0032 23.1816 87.3396C19.8332 85.4872 19.4884 84.3456 18.316 82.7968C17.2732 81.4304 15.2296 81.022 14.6748 80.9296C21.6908 78.1928 25.164 81.9648 25.164 81.9648C25.164 81.9648 24.9872 80.068 22.2856 79.3708C21.4728 79.1544 20.4648 78.9104 19.3572 78.8084C19.8864 78.6052 20.3708 78.442 20.7276 78.3504C21.9092 78.0548 24.6928 77.764 26.8124 79.1956C28.784 80.5284 29.49 84.56 29.49 84.56C30.4568 85.1552 36.1872 88.0084 38.0508 90.3916C39.9168 92.778 41.2556 95.2104 42.0728 98.412C42.8928 101.617 44.0064 106.31 48.7688 110.258C52.4252 113.28 57.8224 113.987 60.1424 114.151C60.2364 114.024 60.3264 113.9 60.4272 113.772C62.05 111.666 66.9272 107.08 68.3552 106.413C69.7888 105.742 75.5272 104.301 76.1972 103.637C76.8688 102.973 82.5072 98.4696 82.9816 97.802C83.462 97.138 86.0412 92.5428 87.5684 90.244C89.096 87.9508 92.9236 83.7488 92.9236 83.7488C92.9236 83.7488 89.6784 83.6472 88.822 82.2128C88.822 82.2128 92.3628 80.6544 92.6792 78.6468C92.8612 77.4604 92.0444 76.6072 89.6448 77.594C89.6448 77.594 89.9544 75.3292 91.9624 72.4616C93.9764 69.5932 97.7732 66.4084 99.3236 65.2896C101.241 63.9052 101.905 62.1364 101.425 61.1796C100.946 60.2184 98.842 60.1232 97.406 61.754C97.406 61.754 98.7504 57.7356 101.233 56.0188C101.233 56.0188 99.4128 55.6328 98.7504 54.194C98.7504 54.194 101.52 54.292 103.433 53.2364C105.346 52.19 110.318 49.0372 112.224 48.94C112.224 48.94 110.694 48.17 108.308 49.0372C108.308 49.0372 111.968 44.636 117.577 43.7744C123.192 42.9132 128.182 44.4424 130.476 43.3912C130.476 43.3912 129.425 42.0564 126.939 42.0564C126.939 42.0564 130.001 40.2344 131.912 40.2344C131.912 40.2344 130.289 38.3216 127.99 37.4596C127.99 37.4596 132.959 37.6532 134.779 38.5144C134.779 38.5144 133.53 37.0812 133.729 35.4512C133.729 35.4512 137.552 38.8932 143.186 40.8088C148.824 42.7212 152.268 43.3908 153.224 44.918C154.18 46.4492 153.607 47.31 153.607 47.31C153.607 47.31 157.714 49.0372 159.149 49.7924C160.582 50.562 161.154 52.2832 161.344 52.8616C161.536 53.428 162.496 55.0584 163.255 55.3464C164.022 55.6328 168.228 57.45 170.516 58.884C172.813 60.3196 175.009 62.3272 175.009 62.3272C175.009 62.3272 172.814 63.5668 172.341 64.6216C171.859 65.6712 170.9 70.738 166.791 72.0772C166.791 72.0772 168.032 69.9736 167.088 67.8716C167.088 67.8716 162.207 67.5832 158.763 69.6912C158.763 69.6912 158.144 73.804 160.342 74.9556C162.539 76.1004 165.068 72.6496 165.36 71.8852C165.36 71.8852 165.287 73.8232 165.36 75.13L165.946 75.2248C166.085 76.604 165.837 78.5824 165.837 78.5824C165.837 78.5824 167.46 77.338 170.141 77.8164C172.814 78.2912 173.482 79.1544 174.346 79.1544C175.207 79.1544 176.921 78.0088 177.491 77.4336C178.071 76.8612 179.03 76.4744 179.886 76.764C180.746 77.0508 181.224 78.3916 181.224 78.3916C181.224 78.3916 184.479 78.6784 185.528 78.4836C186.575 78.2908 188.677 79.4432 189.251 79.9184C189.824 80.398 190.496 81.1652 190.298 81.7416C190.112 82.3092 188.77 83.1724 188.77 83.1724C188.77 83.1724 189.538 84.7028 189.439 85.656C189.345 86.6144 187.338 86.994 187.338 86.994C187.338 86.994 186.67 89.5776 185.428 90.2428C184.191 90.9148 180.648 89.482 180.648 89.482C180.648 89.482 178.544 90.2428 176.16 90.1536C173.771 90.0576 172.428 88.2384 172.428 88.2384C172.428 88.2384 170.615 87.9496 169.176 89.1952C167.752 90.4416 164.788 95.8908 161.823 98.5672V98.5684ZM141.802 82.4856C145.194 86.1408 142.759 89.4724 142.759 89.4724C146.289 88.7356 156.279 85.0864 161.727 80.6852C161.727 80.6852 157.787 78.5824 154.942 78.422C152.406 78.2776 150.846 81.056 150.671 83.796C148.628 85.0468 145.708 85.6276 145.708 85.6276L145.716 85.5752C145.787 85.1328 146.144 81.8504 142.153 79.802C137.983 77.66 129.856 76.2856 121.08 81.0364C129.856 77.7364 139.073 79.5532 141.802 82.486V82.4856ZM106.91 81.4048C112.579 80.0624 116.146 76.8328 119.162 75.3592C122.622 73.6656 127.228 72.1108 133.284 73.0072C133.284 73.0072 124.665 69.3856 116.51 73.7188C108.357 78.0472 104.459 80.3736 96.2316 80.6636C96.2316 80.6636 100.929 82.8188 106.91 81.4044V81.4048ZM127.491 64.0212C118.989 62.4708 113.347 67.9336 113.347 67.9336C113.347 67.9336 119.746 65.372 126.565 66.0884C133.376 66.8048 139.769 71.9568 139.769 71.9568C139.769 71.9568 135.99 65.5744 127.491 64.0212ZM156.237 54.9792C155.395 54.9792 152.379 55.6708 152.379 55.6708C152.379 55.6708 155.314 56.2908 156.091 56.8324C156.862 57.3724 159.328 59.228 159.328 59.228C159.328 59.228 158.716 58.4548 158.861 58.0688C159.019 57.6852 160.098 56.2088 160.098 56.2088C158.861 56.1324 157.088 54.9788 156.237 54.9788L156.237 54.9792ZM190.298 115.207C190.588 116.449 189.251 117.216 188.104 117.216C188.104 117.216 188.394 119.892 187.432 120.562C186.477 121.229 184.664 120.271 184.664 120.271C184.664 120.271 184.567 122.187 183.134 122.663C181.703 123.141 179.981 121.421 179.981 121.421C179.981 121.421 176.632 121.999 174.346 120.943C172.052 119.892 171.57 117.79 171.57 117.79C171.57 117.79 167.84 116.071 164.212 115.69C161.1 115.356 154.384 115.016 148.7 112.304C151.055 110.908 154.529 108.726 157.253 106.48C159.87 104.319 162.233 102.004 163.765 100.417C165.484 101.979 168.032 104.098 170.141 105.073C173.673 106.697 176.258 107.37 177.4 107.556C178.544 107.745 179.41 108.994 179.69 109.66C179.981 110.33 181.13 111.379 182.468 111.288C183.807 111.19 185.528 110.426 187.054 111.288C188.578 112.148 190.016 113.961 190.298 115.207Z" fill="#0076B6"/>
</g>
<defs>
<clipPath id="clip0_17_1016">
<rect width="200" height="200" fill="white"/>
</clipPath>
</defs>
</svg>
