<svg width="200" height="200" viewBox="0 0 200 200" fill="none" xmlns="http://www.w3.org/2000/svg">
<g clip-path="url(#clip0_17_1015)">
<path d="M99.4756 40.9023C50.976 40.9067 10 68.0791 10 100.243C10 133.724 48.4684 158.971 99.4756 158.971C129.245 158.971 157.47 148.511 174.978 130.994C184.616 121.353 189.916 110.429 189.905 100.243C189.892 84.3839 180.56 69.4895 163.629 58.2975C146.653 47.0783 123.872 40.9023 99.4756 40.9023Z" fill="#FFB612"/>
<path d="M36.9038 139.571C21.343 129.196 12.771 115.225 12.771 100.244C12.771 70.1118 53.2882 43.6778 99.4758 43.6738C147.786 43.6718 187.107 69.049 187.137 100.244C187.145 109.695 182.131 119.919 173.018 129.038C156.019 146.046 128.528 156.202 99.4762 156.202C75.2042 156.202 52.981 150.294 36.9046 139.571" fill="#203731"/>
<path d="M138.291 84.703C131.326 74.3318 116.074 67.1394 98.1152 67.1394C73.4664 67.1394 53.4796 80.693 53.4796 97.4106C53.4796 114.126 67.5876 128.804 98.1152 128.787C116.447 128.779 131.187 120.864 138.072 110.468L86.0012 110.558L85.8412 97.0362L176.229 97.0046C176.351 98.0886 176.477 99.1454 176.477 100.244C176.477 126.272 142.001 147.37 99.4756 147.37C56.952 147.37 22.478 126.272 22.478 100.244C22.478 74.2166 58.9984 52.321 99.4756 52.163C133.166 52.0346 161.805 65.9502 172.249 84.6822L138.291 84.703Z" fill="#FFFFFE"/>
</g>
<defs>
<clipPath id="clip0_17_1015">
<rect width="200" height="200" fill="white"/>
</clipPath>
</defs>
</svg>
