<svg width="200" height="200" viewBox="0 0 200 200" fill="none" xmlns="http://www.w3.org/2000/svg">
<g clip-path="url(#clip0_17_1006)">
<path d="M138.847 50.8587C173.895 77.5495 147.223 81.5451 119.852 85.4431C119.852 85.4431 108.302 82.2547 88.2874 72.3059C42.8958 49.7459 57.1866 39.1155 92.8614 32.6835C35.7646 7.79233 -11.8238 51.1299 40.6742 93.2715L26.2686 103.576C38.1018 110.836 62.6198 126.064 59.0578 149.383L46.889 158.086L84.0518 174.938L113.377 161.64C113.589 148.726 136.655 142.018 146.579 115.749C201.211 103.206 187.296 55.1155 138.846 50.8591" fill="#FFFFFE"/>
<path d="M96.5907 130.585L86.0551 118.594L73.9591 120.399L79.5499 111.182L69.0167 99.1827L83.0091 105.484L88.5875 96.2651L91.6383 109.372L105.628 115.664L93.5267 117.473L96.5903 130.585H96.5907ZM113.874 87.9027C45.2955 61.3975 40.7543 39.6527 83.5603 32.1379C30.0259 17.5819 -1.20011 56.4071 51.7683 93.4323L37.5555 103.599C52.6475 113.688 68.6411 128.633 63.2155 152.15L56.0539 157.266L83.5599 169.744C109.157 141.687 122.546 114.427 113.874 87.9027H113.874Z" fill="#03202F"/>
<path d="M148.688 55.0332C172.224 73.472 155.882 85.2532 127.188 88.454C134.447 119.075 112.189 147.122 88.623 168.839L110.23 159.043C111.828 146.598 133.751 140.125 144.139 112.51C192.932 101.616 184.969 66.576 148.688 55.0332Z" fill="#A71930"/>
</g>
<defs>
<clipPath id="clip0_17_1006">
<rect width="200" height="200" fill="white"/>
</clipPath>
</defs>
</svg>
