<svg width="200" height="200" viewBox="0 0 200 200" fill="none" xmlns="http://www.w3.org/2000/svg">
<g clip-path="url(#clip0_17_1003)">
<path d="M99.8634 175.739C85.2894 175.804 74.1138 171.642 68.765 168.819C58.2854 163.318 49.651 156.036 42.217 145.928C31.5334 131.437 29.4654 119.77 28.6142 113.416C28.1138 110.107 27.519 102.156 28.6354 95.022C29.8986 84.7292 32.2378 79.6024 33.911 74.5852C35.2122 71.0184 39.4094 62.434 41.9002 58.4972C44.0166 55.4116 47.8818 49.726 49.4582 47.7188C49.889 47.0884 49.3298 47.3868 49.0926 47.3932C48.5146 47.534 48.2162 47.5696 47.7706 47.534C47.4366 47.534 46.7682 47.4224 46.3962 47.3112C44.3154 46.8676 41.3414 44.562 41.7134 40.5472C41.6398 39.656 42.6046 32.0032 43.3486 29.6236C44.3154 26.2816 46.3206 24.72 49.8894 24.4216C51.6718 24.4216 59.1774 24.2724 62.5866 24.804C69.4134 25.4828 74.4114 27.4692 77.3834 33.4892C79.7626 38.7648 78.947 47.0148 75.6766 53.3312C74.5606 55.4856 72.3326 59.5004 70.399 62.1004C68.6166 64.7004 67.8726 66.0416 66.311 68.938C64.7514 71.9836 59.5494 83.3548 57.767 90.7852C54.3746 104.654 56.279 112.634 62.8178 123.486C67.6498 130.694 73.2974 135.898 77.6818 138.275C84.891 142.807 94.7358 144.072 99.8646 144.072C104.993 144.072 114.838 142.807 122.049 138.275C126.432 135.898 132.079 130.694 136.909 123.486C143.45 112.634 145.355 104.654 141.964 90.7852C140.182 83.3552 134.978 71.9836 133.418 68.938C131.859 66.0416 131.115 64.7004 129.33 62.1004C127.401 59.5004 125.169 55.4856 124.053 53.3312C120.784 47.0152 119.969 38.7652 122.346 33.4892C125.316 27.4692 130.318 25.4832 137.143 24.804C140.55 24.2724 148.057 24.4216 149.84 24.4216C153.409 24.72 155.416 26.2816 156.381 29.6236C157.123 32.0028 158.091 39.656 158.016 40.5472C158.388 44.562 155.416 46.8676 153.333 47.3112C152.965 47.4228 152.293 47.534 151.959 47.534C151.513 47.5696 151.217 47.534 150.637 47.3932C150.399 47.3868 149.84 47.0884 150.271 47.7188C151.847 49.726 155.711 55.4116 157.831 58.4972C160.32 62.434 164.519 71.018 165.818 74.5852C167.491 79.6024 169.831 84.7288 171.094 95.022C172.21 102.156 171.615 110.107 171.117 113.416C170.264 119.77 168.2 131.437 157.512 145.928C150.078 156.036 141.443 163.319 130.966 168.819C125.617 171.642 114.441 175.671 99.865 175.739" fill="#FFFFFE"/>
<path d="M99.7836 161.416C100.247 161.416 100.692 161.231 101.02 160.903C101.348 160.576 101.532 160.131 101.532 159.667C101.532 159.203 101.348 158.758 101.02 158.43C100.692 158.102 100.247 157.918 99.7836 157.918C99.3263 157.928 98.8909 158.116 98.571 158.443C98.251 158.77 98.0718 159.209 98.0718 159.667C98.0718 160.124 98.251 160.564 98.571 160.89C98.8909 161.217 99.3263 161.406 99.7836 161.416ZM53.2324 139.27C54.1992 139.27 54.9812 138.488 54.9812 137.521C54.9812 136.555 54.1992 135.771 53.2324 135.771C52.2676 135.771 51.4836 136.555 51.4836 137.521C51.4836 138.488 52.2676 139.27 53.2324 139.27ZM42.8304 98.8445C43.2899 98.8376 43.7282 98.6502 44.0507 98.3228C44.3732 97.9954 44.5539 97.5543 44.5539 97.0947C44.5539 96.6352 44.3732 96.1941 44.0507 95.8667C43.7282 95.5393 43.2899 95.3519 42.8304 95.3449C42.6005 95.3448 42.3729 95.39 42.1606 95.478C41.9482 95.566 41.7553 95.695 41.5929 95.8576C41.4304 96.0202 41.3017 96.2133 41.2139 96.4257C41.1262 96.6382 41.0812 96.8659 41.0816 97.0957C41.0816 97.5595 41.2658 98.0043 41.5938 98.3323C41.9218 98.6603 42.3666 98.8445 42.8304 98.8445ZM63.34 51.2809C64.3068 51.2809 65.0888 50.4989 65.0888 49.5321C65.0888 48.5653 64.3068 47.7833 63.34 47.7833C63.1072 47.7783 62.8757 47.8199 62.6592 47.9055C62.4427 47.9912 62.2454 48.1192 62.079 48.2821C61.9126 48.445 61.7804 48.6394 61.6901 48.8541C61.5999 49.0687 61.5534 49.2993 61.5534 49.5321C61.5534 49.765 61.5999 49.9955 61.6901 50.2101C61.7804 50.4248 61.9126 50.6193 62.079 50.7821C62.2454 50.945 62.4427 51.073 62.6592 51.1587C62.8757 51.2443 63.1072 51.2859 63.34 51.2809ZM148.258 137.522C148.258 136.555 147.474 135.771 146.509 135.771C145.544 135.771 144.758 136.555 144.758 137.522C144.758 138.489 145.544 139.271 146.509 139.271C147.474 139.271 148.258 138.489 148.258 137.522ZM158.662 97.0961C158.662 96.8664 158.617 96.6388 158.529 96.4265C158.441 96.2141 158.313 96.0212 158.15 95.8586C157.988 95.696 157.795 95.567 157.583 95.479C157.371 95.3909 157.143 95.3455 156.914 95.3453C156.684 95.3452 156.456 95.3903 156.244 95.478C156.032 95.5658 155.839 95.6946 155.676 95.8569C155.514 96.0193 155.384 96.212 155.296 96.4243C155.208 96.6365 155.163 96.8639 155.163 97.0937C155.162 97.5577 155.347 98.0029 155.674 98.3312C156.002 98.6596 156.447 98.8442 156.911 98.8445C157.375 98.8448 157.82 98.6608 158.149 98.3329C158.477 98.005 158.662 97.5601 158.662 97.0961ZM138.152 49.5325C138.152 48.5657 137.368 47.7837 136.402 47.7837C135.435 47.7837 134.653 48.5657 134.653 49.5325C134.653 50.4993 135.435 51.2813 136.402 51.2813C137.368 51.2813 138.152 50.4993 138.152 49.5325ZM67.2768 163.913C57.766 158.268 49.1444 151.134 40.8212 137.402C37.1052 130.621 28.4856 116.205 32.7356 91.0869C37.6392 68.1217 47.5116 56.5277 53.1592 48.5761C55.8328 44.7129 53.0836 42.4829 50.9272 43.3005C49.1216 43.9857 47.8816 44.0297 47.8816 44.0297C44.6868 43.5969 45.1324 41.5181 45.7272 36.0909L46.4712 31.6329C47.1376 27.6941 48.922 27.7677 53.6028 27.8581C61.0348 28.0053 62.3716 28.0661 66.386 28.8081C71.7372 29.9977 78.7216 35.3493 73.2232 50.0625C69.8036 57.9405 66.2368 60.6141 62.3716 68.7905C58.21 77.8581 48.1044 98.2193 54.9416 115.61C64.3052 138.945 82.4376 147.269 99.6788 147.567C116.92 147.342 136.835 137.161 144.801 115.61C151.638 98.2189 141.532 77.8581 137.369 68.7905C133.506 60.6141 129.939 57.9405 126.519 50.0625C121.021 35.3493 128.007 29.9977 133.356 28.8081C137.369 28.0661 138.708 28.0053 146.14 27.8581C150.82 27.7677 152.607 27.6941 153.275 31.6329L154.017 36.0909C154.61 41.5181 155.058 43.5969 151.863 44.0297C151.863 44.0297 150.623 43.9857 148.815 43.3005C146.659 42.4829 143.908 44.7129 146.583 48.5761C152.233 56.5277 162.101 68.1217 167.007 91.0869C171.257 116.205 162.637 130.621 158.921 137.402C150.6 151.134 141.978 158.268 132.466 163.913C119.445 172.983 95.072 172.46 99.7528 172.165C104.658 172.537 81.8432 173.13 67.2776 163.913H67.2768Z" fill="#002C5F"/>
</g>
<defs>
<clipPath id="clip0_17_1003">
<rect width="200" height="200" fill="white"/>
</clipPath>
</defs>
</svg>
