<svg width="200" height="200" viewBox="0 0 200 200" fill="none" xmlns="http://www.w3.org/2000/svg">
<g clip-path="url(#clip0_17_1010)">
<path d="M17.2433 136.191C16.1597 135.698 14.7357 135.332 13.4777 133.353C12.0645 131.123 12.5633 129.494 13.0169 126.411C13.4973 123.144 13.4433 121.822 12.5257 118.189C11.7733 115.205 11.3485 114.18 10.8821 110.719C10.5941 108.583 10.3833 106.787 10.3637 105.58C10.3349 103.785 10.4717 102.104 10.6677 99.6066C10.7757 98.219 11.1141 96.2498 12.3109 92.6442C12.7053 91.4622 13.7709 88.6674 14.4225 87.3394C15.5153 85.123 16.6869 84.0258 16.1413 80.1158C15.9325 78.613 15.3601 77.8058 15.1245 75.7894C14.8581 73.503 15.0109 72.429 15.4393 71.0146C15.8677 69.6074 16.3789 68.7282 17.2521 67.647C17.7597 67.0198 18.7189 65.8018 20.9257 65.411C20.9257 65.411 22.3745 64.9966 23.5609 65.3226C26.5417 65.5822 26.1025 68.2162 30.5521 65.4558C32.6833 64.2646 36.3393 63.3134 40.0273 65.901C41.6025 66.827 42.9197 69.973 41.2261 64.7858C40.4341 61.703 39.6293 60.1658 38.5513 55.3134C37.2897 50.7242 38.3117 46.041 42.0505 43.5078C44.7489 41.1366 50.2241 42.1926 56.5749 43.3834C62.1477 44.4302 63.4653 42.6734 67.2597 42.8358C69.3929 42.9278 71.2033 42.935 72.9605 43.3474C75.3833 43.9186 76.7493 44.6266 78.0885 45.3566C81.8901 47.4306 81.6705 45.3818 86.9805 46.081C88.6797 46.3046 89.3473 46.0538 91.0681 46.5514C93.0589 47.1242 94.2921 47.7822 96.0505 48.8074C100.974 51.6758 100.979 52.321 109.18 51.9626C110.697 51.8958 113.402 53.067 114.866 54.0238C116.493 55.0886 120.448 57.3898 123.942 57.613C128.391 57.8978 132.204 57.3302 137.69 61.233C141.697 64.799 146.676 64.6314 151.122 67.0458C152.551 67.8206 155.965 70.4334 157.643 73.129C158.001 73.7074 159.464 74.657 163.118 75.2622C166.403 75.8046 169.847 79.7074 171.681 82.4318C174.042 84.6102 172.658 83.131 175.894 85.3886C177.459 86.4806 178.244 87.0266 179.773 88.1706C181.766 89.6606 180.495 88.5742 182.875 90.4534C183.31 90.7958 183.89 91.4498 185.479 92.8806C187.544 94.4698 188.448 95.8842 189.142 97.2698C190.314 99.6014 189.376 101.245 188.294 103.178C187.495 104.6 186.216 106.888 184.176 108.815C181.912 110.953 182.092 111.015 180.025 112.253C175.329 115.058 171.821 114.109 169.834 117.458C166.898 122.406 164.536 124.004 162.32 125.042C157.855 127.136 154.858 127.062 152.024 129.287C149.715 131.1 146.065 133.433 143.597 134.535C138.847 136.652 138.262 135.407 135.011 137.437C133.908 138.127 134.608 137.729 131.832 140.018C130.234 141.335 127.685 142.452 126.418 142.629C124.76 142.861 122.929 143.043 121.383 143.457C117.482 144.503 117.058 145.874 112.759 146.699C107.742 147.663 105.669 147.185 100.881 149.47C99.6317 150.067 98.2673 150.663 96.4385 151.656C94.9337 152.476 90.3077 153.595 86.7345 153.773C85.1777 153.852 83.7161 152.825 79.9485 154.622C75.0849 156.941 75.0165 156.705 71.1609 157.487C69.7589 157.771 68.1821 157.615 66.7149 157.609C63.9121 157.602 60.9925 156.632 57.9973 156.724C54.9265 156.821 55.6393 156.632 53.0833 156.923L51.2725 157.218L48.6029 157.813L47.6329 158.071C45.1849 158.607 43.7217 158.388 42.2885 158.107C39.8821 157.629 37.2145 156.191 36.2461 154.872C34.6549 152.971 34.4369 151.142 34.6225 148.649C35.5205 144.303 37.3621 138.115 38.2169 135.908C38.2169 135.908 39.6281 132.699 36.2137 134.497C32.7541 135.773 30.0505 133.54 27.9517 134.255C25.8817 135.297 24.6017 136.248 22.0133 136.627C19.3257 137.018 17.2413 136.192 17.2413 136.192" fill="#FFFFFE"/>
<path d="M55.7867 153.191C58.8899 152.841 59.6315 153.054 62.4127 153.418C64.9975 153.757 67.4707 154.256 70.0323 153.964C71.3159 153.818 72.5831 153.573 73.8395 153.172C77.4307 152.022 79.0975 150.461 83.4247 149.872C87.0087 149.386 87.0103 149.984 90.1515 149.834C93.4439 149.677 95.2743 148.274 96.6603 147.521C98.3415 146.605 98.7807 146.532 99.9059 145.929C103.974 143.751 108.751 144.022 113.322 142.904C116.535 142.119 117.793 140.603 121.382 139.641C122.808 139.259 124.372 139.286 125.898 139.072C127.067 138.91 129.131 137.87 130.287 136.803C132.269 134.967 132.049 134.894 133.59 134.025C136.159 132.571 139.068 132.616 141.65 131.416C144.054 130.301 146.525 129.351 148.428 127.43C151.2 124.628 155.576 123.845 159.174 122.538C161.292 121.766 164.075 120.403 166.41 116.363C168.701 112.407 170.728 111.839 174.801 110.612C177.51 109.794 178.68 109.216 180.766 107.246C182.646 105.473 183.321 104.332 184.165 103.091C185.132 101.666 187.03 99.3247 185.013 97.5339C184.127 96.7463 183.231 95.2851 181.328 93.8203C179.866 92.5031 178.658 91.7679 178.257 91.4507C176.065 89.7211 177.912 91.0867 175.806 89.7535C174.319 88.8131 173.899 88.0563 172.368 87.1911C169.624 85.6415 169.338 85.1839 167.146 82.5479C165.243 79.0359 162.258 78.5479 159.267 77.8791C156.376 77.2339 154.326 74.9259 153.838 74.1311C152.301 71.6427 149.817 70.4083 148.499 69.6931C144.406 67.4715 139.686 67.8263 135.998 64.5435C130.44 60.5919 128.976 61.3235 123.133 61.1435C119.911 61.0463 115.683 58.9847 114.306 57.8387C113.148 56.8747 111.813 56.2403 110.62 55.8727C106.501 54.6023 103.68 56.7843 97.9223 53.9791C96.2391 53.1575 94.7199 52.0311 93.0659 51.0783C92.0363 50.4855 91.2515 50.1991 89.6387 49.8511C86.5911 49.1915 83.9379 49.6131 80.2463 49.9267C78.5147 50.0763 77.4867 49.1555 75.8955 48.2959C74.4339 47.5047 72.8731 46.9227 70.9399 46.5643C68.4379 46.0995 65.5975 46.4275 62.6887 47.0111C56.9303 48.1679 51.6455 45.2507 46.0927 45.7695C45.1511 45.8579 43.2863 47.0399 42.6619 48.3643C41.8231 50.1391 41.8231 51.1643 41.9471 52.9195C42.1163 55.3015 42.3971 55.4711 42.8635 57.0207C43.8715 60.3847 44.3827 62.2155 45.1875 64.4839C46.1219 67.1199 46.0911 70.3291 43.8715 71.3527C42.8023 71.8463 41.0239 71.8591 40.0195 71.0915C38.4571 69.9003 37.6019 68.2231 35.8399 67.8771C33.4891 67.4123 30.6683 69.8267 28.1699 70.4843C25.6643 71.1455 25.3455 69.7815 23.6051 68.9743C22.4475 68.4375 21.3351 69.2195 20.6855 69.5799C19.5135 70.2339 19.2311 71.5835 18.9575 73.0215C18.7395 74.1727 18.6459 75.2451 18.9303 76.4991C19.3427 78.3227 19.9491 79.4163 19.9959 80.6867C20.1075 83.8795 19.5963 86.2219 18.2787 87.9067C17.4415 88.9787 16.3455 91.9375 15.9999 93.0311C14.8443 96.6887 14.9827 96.0511 14.4247 99.4495C14.1383 101.183 14.1851 103.129 14.0323 104.752C14.0035 105.052 14.2251 108.741 14.4031 109.843C14.8443 112.571 15.3555 114.328 15.9295 116.627C16.7559 119.95 17.1103 122.014 17.0275 124.584C16.9447 127.215 15.2867 129.689 16.8619 131.546C17.8411 132.699 20.3919 133.741 22.4671 132.825C24.5695 131.894 26.1031 130.797 27.7555 130.57C30.7995 130.15 32.7559 131.454 34.0771 131.299C35.2419 131.162 37.2903 129.991 38.2551 129.91C39.0239 129.845 40.6907 129.771 41.2755 130.209C42.2027 130.905 42.7751 131.674 42.6203 134.077C42.6167 134.113 42.0567 136.638 42.0515 136.66C41.0919 139.82 40.0571 142.754 39.5619 144.925C39.0451 147.189 36.5611 152.094 41.6015 154.103C43.7239 154.949 45.9683 154.785 48.7495 154.069C50.1591 153.705 50.7439 153.645 52.0599 153.426C52.0599 153.327 54.0347 153.363 54.0347 153.265L55.7879 153.191" fill="black"/>
<path d="M151.196 77.1004C152.56 77.9924 154.128 80.2932 155.446 82.196C157.053 83.6608 157.199 84.5096 161.186 85.2212C160.416 85.0824 164.774 86.5872 165.43 86.9544C167.144 87.9056 167.581 88.4912 169.1 90.2248C170.672 92.0176 171.296 92.4968 174.466 94.6176C175.698 95.4428 175.917 95.7384 178.262 97.4068C179.229 98.0952 180.453 99.2088 180.888 100.124C181.997 102.448 180.449 103.276 178.039 104.553C174.077 106.656 170.798 106.056 167.23 109.702C164.253 112.742 161 116.45 158.799 117.117C157.839 117.409 155.298 118.206 153.562 119.285C151.843 120.355 151.358 120.321 149.816 121.696C147.986 123.328 146.964 124.499 143.598 125.663C141.522 126.378 139.072 126.712 136.898 127.364C135.289 127.849 134.002 128.519 132.571 129.332C130.386 130.571 127.756 133.472 124.141 134.144C116.984 135.478 118.885 135.332 113.782 137.644C112.515 138.218 109.9 138.844 108.064 138.844C104.995 138.844 102.601 139.352 99.8988 140.79C97.9316 141.838 95.928 143.764 92.0672 144.278C87.2972 144.912 87.0324 144.314 81.1104 145.581C79.314 145.968 77.046 147.278 75.3324 147.898C73.4084 148.595 68.8756 148.682 65.6736 148.388C62.5452 148.102 60.2484 148.096 55.7288 148.916C52.2296 149.55 50.3432 149.622 46.9448 149.536C46.18 149.514 45.604 148.978 45.1088 148.17C44.5184 147.212 44.4484 146.37 44.5776 145.312C44.8496 143.091 44.8028 142.982 45.3264 140.925C45.4868 140.3 46.2716 136.222 46.41 135.598C47.2868 131.676 47.5568 127.721 44.4696 125.935C43.5048 125.378 41.1072 125.02 39.372 125.328C34.1448 126.256 35.2408 127.135 31.9004 125.953C31.3388 125.755 29.9184 125.497 29.0924 125.532C27.4204 125.598 25.0372 126.771 22.9292 127.103C21.4496 127.337 21.0624 125.686 21.102 124.506C21.1632 122.678 21.354 120.921 21.2728 118.876C21.0568 113.522 20.1228 113.234 19.4784 110.007C18.8936 107.079 19.0624 102.109 18.9224 102.25C19.068 98.1508 20.924 93.7344 21.9808 92.2084C23.086 90.6084 23.3236 89.956 24.164 87.9992C25.0532 85.9288 24.9344 84.1 24.4828 81.7756C24.472 81.7196 23.9336 80.0008 24.1284 80.0008C23.9736 78.9052 24.238 77.7052 24.5876 76.9612C25.1528 75.7556 25.592 75.172 26.492 74.7828C27.0484 74.5396 27.6368 74.2476 28.2292 74.2064C30.1712 74.0696 30.564 75.3164 34.1944 73.792C36.0736 73.0008 37.942 74.0604 38.8656 74.3992C41.3836 75.3164 40.9464 75.3164 42.5504 75.3684C44.0748 75.4172 45.542 75.0316 46.9568 74.172C47.7704 73.6748 48.386 73.4028 48.8684 72.7C49.2824 72.0944 49.8312 70.4244 49.9788 69.5612C50.1588 68.5108 50.4524 67.8512 50.1588 65.3628C49.3544 62.2888 49.0628 61.6292 48.512 59.6832C48.0656 58.0976 47.5256 56.5804 47.2988 55.1244C47.2952 55.0972 47.234 53.3584 47.234 53.3584C47.038 51.9044 48.026 50.8612 49.2824 50.8504C53.7824 50.8144 58.0032 52.0972 62.7592 52.0668C66.6832 52.0416 68.3516 51.238 72.9704 52.9208C74.5796 53.5064 75.53 54.8236 78.0484 55.5336C82.8384 56.8848 86.6436 53.6524 90.7404 55.5824C94.146 57.188 93.4296 56.2184 96.6316 58.2616C98.124 59.2148 100.901 60.8256 104.884 61.4112C107.642 61.8184 112.016 60.6796 116.523 63.95C119.058 65.7896 121.374 66.534 124.616 66.8692C128.434 67.264 128.804 66.7252 131.814 68.9072C134.028 70.5144 133.418 70.156 135.652 71.8208C136.663 72.574 137.457 73.3416 138.92 73.9992C139.758 74.3756 142.967 74.8244 142.868 74.8192C145.721 74.9652 146.524 74.7308 148.79 75.538C148.741 75.4856 151.715 77.4388 151.196 77.1004" fill="#FFFFFE"/>
<path d="M52.615 104.242V110.303H75.3834L77.6498 108.179V100.905H74.2874L74.2998 99.0598L86.8478 91.8578L87.9006 92.9406C85.0926 94.9174 82.9146 96.7622 81.2314 99.6902C78.769 103.797 77.869 109.496 79.3306 114.035C80.2826 117.109 81.451 118.939 83.4994 121.076C85.4722 123.111 87.1534 124.282 90.3718 125.819C93.0034 127.136 99.219 129.024 104.045 129.536C108.723 129.901 114.573 129.829 118.448 129.316C122.687 128.878 127.076 127.341 129.709 126.256C131.828 125.233 134.168 124.281 135.966 122.876C140.5 119.613 145.281 114.692 145.355 108.544H136.902C134.239 117.985 108.649 122.305 98.4142 115C90.955 109.129 93.0754 103.933 96.2198 101.518L97.1718 102.543L95.577 104.226L95.6938 110.302H117.249L120.026 107.668V101.079H118.374L110.917 93.0278C125.247 89.9558 132.34 96.2478 136.522 103.127H142.136L144.973 100.347V84.3914L138.993 84.377L135.411 86.6006C122.687 80.9662 113.257 81.6114 103.386 84.889L101.777 83.251L110.888 77.8038L116.385 77.775L119.076 75.2126L119.091 69.7818H97.0966L94.7582 72.155V75.8562L74.141 87.6566V78.5662L77.4726 75.1986V69.7246H55.8598L52.9078 73.1786V77.5102H56.4466V100.904H55.363C55.363 100.904 52.4686 104.183 52.6142 104.241" fill="black"/>
<path d="M56.4473 71.0718H76.1861V74.6142L72.8237 74.645V89.9842L99.7301 74.6142H97.3613V71.0718L117.718 71.043V74.5854L113.184 74.645L99.4029 82.7822L117.95 102.837L118.594 102.851V106.936H98.1229V102.808L100.974 102.837L88.2661 89.2834L72.9697 98.0658V102.837H76.1865V106.907H56.4477V102.837H59.8101V74.6146H56.4477V71.0722L56.4473 71.0718ZM143.805 109.864C143.014 114.035 141.114 115.718 138.76 118.426C135.615 121.354 134.972 121.722 131.828 123.403C126.419 126.111 120.788 127.281 114.354 127.43C105.359 127.796 97.3925 125.891 92.4929 123.843C89.4941 122.745 85.0337 119.963 82.2565 115.206C79.9901 110.595 81.1009 105.691 81.9057 103.276C82.9153 100.348 84.5229 97.3462 89.2173 94.1426L95.1249 100.525C92.1277 103.128 89.9337 107.887 94.6281 113.303C100.244 120.329 113.038 122.305 126.346 118.352C133.218 116.305 136.215 113.449 138.395 109.864H143.806H143.805ZM104.41 86.0038C108.429 84.7586 119.764 80.8794 135.703 87.9066L139.067 85.7102H143.774L143.716 99.8802L138.482 99.9398C133.143 91.9034 121.008 89.0766 109.675 91.7862L104.41 86.0042V86.0038Z" fill="#E31837"/>
</g>
<defs>
<clipPath id="clip0_17_1010">
<rect width="200" height="200" fill="white"/>
</clipPath>
</defs>
</svg>
