<svg width="200" height="200" viewBox="0 0 200 200" fill="none" xmlns="http://www.w3.org/2000/svg">
<g clip-path="url(#clip0_17_1024)">
<path d="M169.541 56.43C144.353 31.234 105.113 26.7444 74.8852 45.6008C66.5518 51.1292 59.3347 58.1783 53.6116 66.3792C53.5916 66.4032 53.5708 66.4268 53.55 66.4512H37.766L8 133.798H46.6168C52.2013 144.208 60.6629 152.791 70.992 158.524C90.6948 169.367 114.772 168.461 133.604 156.168C134.665 155.473 135.475 154.455 135.915 153.265C136.354 152.075 136.4 150.775 136.045 149.557C135.69 148.339 134.953 147.267 133.943 146.5C132.933 145.732 131.703 145.309 130.434 145.293C129.845 145.294 129.26 145.381 128.696 145.552C124.847 146.707 120.849 147.293 116.83 147.289C111.113 147.302 105.457 146.108 100.234 143.783C95.0105 141.458 90.3375 138.055 86.5212 133.798H122.582L128.776 125.169L152.813 125.171C152.813 125.171 152.081 127.031 151.68 127.942L149.099 133.8H188.44L189.278 130.722C196.504 104.21 188.972 75.8592 169.541 56.4296V56.43ZM185.249 129.626H155.499C156.732 126.83 157.75 123.945 158.545 120.994H126.6L120.44 129.626H91.804L134.618 69.6484L134.612 69.6464C128.969 67.3406 122.927 66.1711 116.831 66.2048C116.053 66.2048 115.28 66.2248 114.513 66.264C91.2864 67.4344 72.7636 86.0808 72.7636 108.833C72.7636 110.311 72.842 111.788 72.9988 113.258H98.2904L90.7592 123.854C88.3828 127.05 85.2324 129.622 80.4304 129.622H78.3688C85.9196 142.644 100.332 151.46 116.833 151.46C121.259 151.464 125.663 150.82 129.902 149.546C130.075 149.493 130.254 149.465 130.435 149.464C130.805 149.479 131.16 149.612 131.45 149.842C131.739 150.072 131.948 150.388 132.047 150.745C132.145 151.102 132.128 151.481 131.997 151.827C131.867 152.173 131.63 152.469 131.32 152.672C124.556 157.088 116.925 160.007 108.94 161.233C100.955 162.46 92.8007 161.965 85.0225 159.783C77.2443 157.601 70.0224 153.781 63.841 148.58C57.6595 143.379 52.6613 136.916 49.1812 129.626H14.4088L40.4848 70.6276H55.5512C60.7056 63.9303 67.293 58.4711 74.8309 54.6499C82.3688 50.8288 90.6661 48.7425 99.1148 48.544C99.5244 48.5356 99.9388 48.5312 100.348 48.5312C124.462 48.5312 144.688 62.96 152.876 84.1864L138.05 104.958H160.625C160.579 95.0402 158.1 85.2848 153.405 76.5483C148.71 67.8118 141.942 60.3612 133.695 54.8506C125.449 49.3399 115.976 45.9376 106.108 44.9422C96.2394 43.9468 86.2777 45.3888 77.0968 49.1416C102.375 33.3852 134.724 34.718 158.62 52.5008C182.516 70.2836 193.083 100.887 185.249 129.626ZM101.336 109.083H76.942C76.942 109.001 76.936 108.917 76.936 108.834C76.936 88.368 93.5328 71.5 114.724 70.4328C119.174 70.2109 123.631 70.6781 127.938 71.818L101.336 109.083ZM154.23 89.5376C155.292 93.2054 155.977 96.9722 156.274 100.779H146.208L154.23 89.5376Z" fill="#003594"/>
<path d="M77.0962 49.1409C99.9562 39.7961 126.2 45.2585 143.433 62.9489C160.666 80.6393 165.439 107.017 155.499 129.625H185.249C193.09 100.885 182.525 70.2757 158.626 52.4909C134.728 34.7061 102.374 33.3761 77.0962 49.1409Z" fill="url(#paint0_linear_17_1024)"/>
<path d="M152.87 84.1944L147.144 92.2192C144.426 89.4253 141.176 87.2053 137.584 85.6908C133.993 84.1762 130.135 83.3979 126.237 83.402C125.746 83.402 125.258 83.4144 124.774 83.4392L134.617 69.6484C141.958 72.668 148.288 77.7129 152.87 84.1944ZM158.545 120.995C159.93 115.848 160.629 110.542 160.625 105.212V104.955H154.434C155.861 110.216 155.79 115.771 154.23 120.994L158.546 120.995H158.545Z" fill="#D7D2CB"/>
<path d="M131.318 152.676C113.779 164.122 91.3581 164.966 73.0081 154.87C68.4796 149.162 65.1366 142.607 63.1753 135.59C69.5121 135.295 78.6893 135.842 85.4725 138.758C93.8558 146.94 105.117 151.503 116.832 151.464C121.258 151.468 125.662 150.823 129.901 149.55C130.074 149.496 130.253 149.469 130.434 149.468C130.804 149.483 131.159 149.615 131.449 149.846C131.738 150.076 131.947 150.392 132.046 150.749C132.144 151.106 132.127 151.485 131.996 151.831C131.865 152.177 131.628 152.473 131.318 152.676ZM72.9965 113.261C72.8393 111.792 72.7605 110.314 72.7605 108.836C72.7605 86.0824 91.2853 67.436 114.512 66.2676C87.5841 67.3636 65.5313 87.4336 61.7681 113.264L72.9965 113.261Z" fill="#FFD100"/>
<path d="M78.3658 129.625H61.8726C62.193 131.636 62.6273 133.628 63.1734 135.59C69.5106 135.295 78.6874 135.843 85.471 138.758C82.7023 136.047 80.3123 132.975 78.3658 129.625Z" fill="#FFA300"/>
<path d="M49.1812 129.625C51.2376 133.924 53.8275 137.946 56.8896 141.598C58.4891 139.134 60.6406 137.077 63.1736 135.59C62.6273 133.628 62.1929 131.636 61.8724 129.625H49.1812Z" fill="#FF8200"/>
<path d="M134.613 69.646C128.97 67.3404 122.927 66.171 116.831 66.2048C116.053 66.2048 115.281 66.2248 114.513 66.264C87.5849 67.36 65.5329 87.43 61.7689 113.26H46.4365L65.3225 70.6276H55.5513C60.7057 63.9304 67.2931 58.4712 74.831 54.65C82.3689 50.8288 90.6662 48.7426 99.1149 48.5441C99.5245 48.5357 99.9389 48.5312 100.348 48.5312C124.462 48.5312 144.688 62.96 152.877 84.1864L152.871 84.1956C148.288 77.712 141.956 72.6655 134.613 69.646ZM63.1733 135.59C60.6405 137.077 58.4891 139.134 56.8897 141.598C61.3985 146.977 66.8628 151.477 73.0073 154.87C68.4789 149.162 65.1358 142.607 63.1741 135.59H63.1733Z" fill="url(#paint1_linear_17_1024)"/>
<path d="M155.454 112.616C155.454 115.453 155.042 118.276 154.23 120.994H126.6L120.44 129.625H91.8038L124.774 83.4378C125.259 83.4138 125.746 83.4017 126.237 83.4005C130.134 83.3965 133.993 84.1747 137.584 85.6893C141.175 87.2039 144.426 89.4239 147.143 92.2177L138.05 104.956H154.433C155.111 107.453 155.454 110.029 155.454 112.616ZM40.4842 70.627L14.4082 129.625H80.4278C85.2298 129.625 88.3818 127.054 90.7562 123.856L98.2878 113.26H46.4358L65.3218 70.627H40.4838H40.4842Z" fill="white"/>
</g>
<defs>
<linearGradient id="paint0_linear_17_1024" x1="5612.22" y1="38.0824" x2="5612.22" y2="9183.28" gradientUnits="userSpaceOnUse">
<stop offset="0.217" stop-color="#FFD100"/>
<stop offset="0.296" stop-color="#FFD724"/>
<stop offset="0.474" stop-color="#FFE87F"/>
<stop offset="0.707" stop-color="white"/>
</linearGradient>
<linearGradient id="paint1_linear_17_1024" x1="46.4365" y1="5365.45" x2="10690.5" y2="5365.45" gradientUnits="userSpaceOnUse">
<stop stop-color="#FFA300"/>
<stop offset="0.134" stop-color="#FFA800"/>
<stop offset="0.289" stop-color="#FFB600"/>
<stop offset="0.453" stop-color="#FFCD00"/>
<stop offset="0.478" stop-color="#FFD100"/>
</linearGradient>
<clipPath id="clip0_17_1024">
<rect width="200" height="200" fill="white"/>
</clipPath>
</defs>
</svg>
