<svg width="200" height="200" viewBox="0 0 200 200" fill="none" xmlns="http://www.w3.org/2000/svg">
<path fill-rule="evenodd" clip-rule="evenodd" d="M177.705 97.0716C171.835 97.868 161.576 102.116 163.526 104.398C165.474 106.676 171.157 109.809 171.964 110.204C169.256 110.204 160.353 111.125 159.359 113.649C158.362 116.172 172.241 124.632 177.323 126.621C171.002 124.841 155.925 121.871 154.923 123.904C153.921 125.938 156.526 132.222 158.908 134.092C157.164 133.57 148.058 130.98 146.598 134.348C144.992 138.053 153.892 151.644 154.902 154.184C150.799 150.112 139.559 140.985 137.966 142.03C136.374 143.074 136.766 148.161 137.18 150.748C135.638 148.868 132.988 145.854 130.698 146.755C128.409 147.657 128.692 156.392 128.544 160.112C126.656 155.735 123.573 146.922 120.719 147.243C117.866 147.565 114.664 153.562 114.056 155.854C113.62 153.559 111.753 148.514 108.929 148.514C106.104 148.514 99.5379 161.866 97.5523 166.204C97.5439 162.847 98.3483 146.468 96.5683 145.656C94.7883 144.843 88.7811 148.578 87.4911 150.276C87.9687 148.124 88.3751 140.851 86.7739 139.973C85.1707 139.092 80.6031 138.815 72.3439 146.452C73.7147 143.522 75.9727 140.334 76.5211 137.243C79.9411 137.066 83.3271 136.679 86.7423 136.012C94.1947 141.404 103.356 144.588 113.259 144.588C138.27 144.588 158.544 124.313 158.544 99.3028C158.544 97.3432 158.417 95.4128 158.177 93.522C159.776 92.0147 161.371 90.5027 162.961 88.986C162.618 89.8064 162.428 90.7952 162.46 92.0136C162.558 95.832 172.45 96.6472 177.705 97.0716ZM65.0771 113.348C63.6507 112.575 57.0159 112.269 57.0159 112.269C57.0159 112.269 64.4867 107.248 64.3127 103.617C64.1383 99.988 52.2239 98.1288 47.5139 97.0844C51.6699 96.2088 65.1299 93.1684 65.7079 90.46C66.2879 87.7544 61.5011 85.8316 59.4895 84.8876C61.7439 84.9168 67.4587 85.874 68.2287 83.084C69.1095 79.8852 55.0375 71.5544 51.8307 70.3992C52.5483 70.568 65.9503 73.6956 70.8503 72.6356C74.4975 71.8444 70.2463 66.9368 69.5447 66.3564C70.6207 66.8812 76.7651 68.1472 78.5239 65.2304C80.2831 62.3136 74.3151 50.6972 70.9739 45.7736C73.9407 48.7324 87.4903 58.3712 89.5103 56.7308C91.5331 55.0908 89.9875 49.7928 88.9039 48.0444C91.0875 50.088 93.2367 52.82 96.0111 52.762C97.4007 52.7332 99.1491 48.1392 99.4367 37.7568C101.317 43.5744 105.805 51.4804 109.102 51.0004C112.401 50.5232 113.527 45.626 113.983 43.54C114.363 45.7788 116.095 51.5332 118.295 51.744C120.995 52.166 126.162 40.1488 128.042 34.7188C128.327 37.4008 126.36 51.1744 129.27 52.3192C132.179 53.466 136.99 47.6672 139.719 44.418C138.063 47.5616 134.827 55.1644 136.755 56.984C138.682 58.8036 145.347 56.8972 147.944 54.7556C147.216 56.3484 147.061 57.6224 147.259 58.8196C144.297 59.3996 141.241 60.2516 138.084 61.4276C130.953 56.7468 122.424 54.02 113.258 54.02C88.2499 54.02 67.9755 74.2944 67.9755 99.3024C67.9755 105.323 69.1515 111.066 71.2851 116.32C68.7087 118.229 66.2403 119.743 63.7111 120.911C65.5599 118.709 67.1659 114.476 65.0771 113.348ZM191.994 62.7956C191.964 62.1084 191.832 61.7 191.832 61.7L191.83 61.6964C190.994 58.7756 188.012 56.9716 183.95 56.9716C183.514 56.9718 183.079 56.9937 182.645 57.0372C179.533 57.346 173.999 59.22 172.357 59.7944C167.198 58.4908 162.363 57.856 157.591 57.856C155.124 57.856 152.67 58.0308 150.223 58.3724L150.227 58.3708L149.218 58.5072C149.218 58.5072 148.824 57.2296 149.852 54.2464C150.384 52.6996 151.115 51.2768 151.115 51.2768C151.115 51.2768 139.882 57.1156 138.479 55.2516C137.076 53.388 143.358 38.5716 143.358 38.5716C143.358 38.5716 132.529 50.6036 130.402 50.07C129.568 49.8608 129.488 45.5032 129.447 40.8136C129.391 34.4632 129.612 27.1992 129.612 27.1992C129.612 27.1992 120.695 49.3676 118.519 49.2524C116.633 49.1524 113.888 37.3192 113.888 37.3192C113.888 37.3192 112.166 47.516 109.071 48.7632C105.976 50.0104 98.0155 30.9408 98.0155 30.9408C98.0155 30.9408 97.6479 50.0276 95.4335 50.456C93.2191 50.884 86.1699 43.7508 86.1699 43.7508C86.1699 43.7508 89.4747 53.258 88.3555 54.51C87.6875 55.2576 80.9071 51.0652 73.8527 46.0056C69.7775 43.082 66.3699 40.6324 66.3699 40.6324C66.3699 40.6324 70.3459 47.236 73.5071 54.1384C75.6831 58.8904 77.0035 63.4508 76.4343 64.3384C75.0383 66.5156 64.5683 63.4128 64.5683 63.4128C64.5683 63.4128 70.5195 69.146 70.1355 70.6224C69.9495 71.3392 64.0311 70.8216 58.0167 69.9996C51.6371 69.1272 45.1451 67.924 45.1451 67.924C45.1451 67.924 66.3919 80.2768 65.7251 82.5004C65.1975 84.2592 51.9743 82.8184 51.9743 82.8184C51.9743 82.8184 63.4711 88.0712 63.4243 89.8068C63.3779 91.5428 40.9207 97.2248 40.9207 97.2248C40.9207 97.2248 61.2595 101.48 61.6487 103.748C62.0375 106.016 53.6271 113.294 53.6271 113.294C53.6271 113.294 63.4187 114.179 63.9047 115.461C64.3911 116.743 61.5251 121.808 59.0379 122.61C55.9643 123.603 53.1655 124.234 49.7575 124.234C49.2671 124.234 48.7879 124.22 48.3195 124.195C48.4879 123.977 48.6547 123.752 48.7995 123.538C49.6379 122.31 50.2623 120.998 50.6023 119.747L50.6059 119.734L50.6091 119.72C50.7835 119.033 50.8735 118.348 50.8767 117.686V117.657L50.8759 117.628C50.8523 116.875 50.6075 116.233 50.1631 115.796C49.3303 115.07 48.5535 115.156 47.9967 115.404L46.0647 116.351C45.9211 116.414 45.7587 116.475 45.5623 116.534C45.1923 116.645 44.4127 116.778 42.7971 116.778C41.2651 116.778 39.4419 116.664 37.6787 116.553C37.6787 116.553 36.5959 116.493 36.3867 116.493C34.2831 116.493 32.8791 117.162 32.0331 117.775L31.5731 117.533C27.2715 115.248 22.2651 114.324 19.1383 113.747C18.8951 113.702 18.6631 113.661 18.4447 113.618C14.9915 112.94 13.1015 110.891 12.9479 110.725C12.6551 110.408 12.2743 109.998 11.7771 109.712C11.7771 109.712 10.8783 109.151 9.54673 109.561C8.67793 109.866 8.31073 110.544 8.31073 110.544C7.56593 111.781 8.27673 113.597 9.21353 115.646C10.2795 117.974 13.6211 123.786 21.6191 127.497C24.2375 128.713 27.6823 129.578 31.8575 130.069C35.0003 130.438 37.6539 130.485 38.7115 130.487C39.7299 130.982 42.8635 132.431 47.5231 133.888C52.6387 135.486 60.6327 137.387 69.7919 137.43C69.7919 137.43 73.0419 137.471 74.7967 137.359C74.9735 138.091 73.7039 140.707 72.1783 143.773C70.3707 147.407 68.0511 151.705 68.0511 151.705C68.0511 151.705 72.2415 148.002 76.1471 145.256C80.0779 142.493 84.4811 140.272 85.5219 141.552C87.4891 143.97 85.3903 153.947 85.3903 153.947C85.3903 153.947 93.3315 146.92 95.1727 147.872C96.0159 148.307 96.1003 153.558 96.1035 159.089C96.1079 165.643 95.9387 172.604 95.9387 172.604C95.9387 172.604 106.877 150.471 109.153 151.104C111.428 151.736 113.919 161.828 113.919 161.828C113.919 161.828 118.075 149.533 120.614 149.831C121.63 149.707 123.811 153.694 125.749 157.77C127.874 162.238 129.694 166.605 129.694 166.605C129.694 166.605 129.738 162.04 130.057 157.375C130.344 153.16 130.88 149.046 131.806 148.818C133.758 148.338 139.419 155.924 139.419 155.924C139.419 155.924 137.417 145.35 138.985 144.454C140.554 143.558 159.395 159.847 159.395 159.847C159.395 159.847 147.03 136.937 148.534 135.188C150.038 133.438 163.244 137.007 163.244 137.007C163.244 137.007 161.276 134.684 159.593 132.058C157.833 129.314 156.367 126.246 157.056 125.509C157.681 124.839 164.566 125.536 171.68 126.916C179.881 128.507 185.217 129.641 185.217 129.641C185.217 129.641 180.386 127.027 173.262 122.74C167.094 119.03 161.668 114.852 161.899 114.175C162.398 112.714 177.13 111.313 177.13 111.313C177.13 111.313 174.657 109.858 172.001 108.234C169.117 106.47 166.037 104.275 166.037 103.471C166.037 102.768 169.731 101.027 174.603 99.5284C180.444 97.7324 185.847 96.5284 185.847 96.5284C185.847 96.5284 165.764 94.916 164.51 92.0528C163.653 90.0972 165.226 87.5472 166.379 85.8996C167.533 84.2528 169.183 82.758 169.183 82.758C174.67 77.6916 181.653 73.0268 183.884 71.6552C184.042 71.558 184.192 71.4624 184.346 71.3664C184.346 71.3664 189.498 67.5632 190.027 67.1188C190.489 66.7316 191.667 65.4956 191.932 63.9228C191.932 63.9228 192.024 63.4888 191.994 62.7956Z" fill="white"/>
<path fill-rule="evenodd" clip-rule="evenodd" d="M138.084 61.4275C141.241 60.2515 144.297 59.3995 147.259 58.8195C147.061 57.6223 147.217 56.3484 147.944 54.7556C145.347 56.8972 138.683 58.8035 136.755 56.9839C134.827 55.1644 138.063 47.5615 139.719 44.4179L139.593 44.5683C136.843 47.8423 132.135 53.4487 129.271 52.3187C127.171 51.4931 127.609 44.0935 127.91 39.0283C128.026 37.0731 128.121 35.4655 128.042 34.7188C126.162 40.1483 120.995 52.1659 118.295 51.7439C116.096 51.5331 114.363 45.7787 113.983 43.5399C113.527 45.6259 112.401 50.5231 109.102 51.0003C105.805 51.4803 101.317 43.5743 99.437 37.7563C99.1494 48.1391 97.401 52.7331 96.0114 52.7619C93.7218 52.8099 91.8582 50.9575 90.0498 49.1603C89.6734 48.7826 89.2915 48.4104 88.9042 48.0439C89.9878 49.7927 91.5334 55.0907 89.5106 56.7307C87.4906 58.3711 73.941 48.7323 70.9742 45.7735C74.3154 50.6971 80.2834 62.3135 78.5242 65.2303C76.7654 68.1471 70.621 66.8811 69.545 66.3563C70.2466 66.9367 74.4978 71.8443 70.8506 72.6355C65.9506 73.6955 52.5486 70.5679 51.8314 70.3991C55.0382 71.5543 69.1098 79.8847 68.229 83.0839C67.5898 85.3995 63.5442 85.1339 60.8982 84.9599C60.3562 84.9243 59.873 84.8923 59.4898 84.8875C59.6554 84.9655 59.8402 85.0499 60.039 85.1407C62.2538 86.1539 66.2406 87.9771 65.7082 90.4599C65.1302 93.1683 51.6702 96.2087 47.5142 97.0843C48.1502 97.2255 48.9178 97.3811 49.7698 97.5543C55.2282 98.6631 64.1622 100.478 64.313 103.616C64.487 107.248 57.0162 112.269 57.0162 112.269C57.0162 112.269 63.651 112.575 65.0774 113.348C67.1662 114.476 65.5602 118.709 63.7114 120.911C66.2406 119.743 68.709 118.229 71.2854 116.32C69.1518 111.066 67.9758 105.323 67.9758 99.3023C67.9758 74.2943 88.2502 54.0199 113.258 54.0199C122.425 54.0199 130.953 56.7467 138.084 61.4275ZM158.907 134.091C156.525 132.221 153.92 125.937 154.922 123.904C155.924 121.87 171 124.84 177.322 126.62C172.24 124.632 158.361 116.172 159.358 113.648C160.352 111.124 169.255 110.204 171.963 110.204C171.156 109.808 165.473 106.675 163.524 104.397C161.575 102.116 171.834 97.8671 177.704 97.0707C172.448 96.6463 162.557 95.8315 162.459 92.0127C162.427 90.7943 162.617 89.8055 162.96 88.9855C161.462 90.4119 159.853 91.9415 158.176 93.5211C158.416 95.4119 158.543 97.3424 158.543 99.3019C158.543 124.312 138.268 144.587 113.258 144.587C103.355 144.587 94.1938 141.404 86.7414 136.011C83.3262 136.678 79.9402 137.066 76.5198 137.242C76.1418 139.374 74.9506 141.552 73.7982 143.659C73.2794 144.608 72.7682 145.542 72.3426 146.451C80.6018 138.814 85.1694 139.091 86.773 139.972C88.3738 140.85 87.9678 148.123 87.4902 150.275C88.7798 148.577 94.787 144.843 96.567 145.655C98.0214 146.318 97.7506 157.372 97.6074 163.226C97.5754 164.538 97.5498 165.589 97.551 166.204C99.5366 161.865 106.103 148.514 108.927 148.514C111.752 148.514 113.619 153.558 114.054 155.853C114.663 153.561 117.865 147.564 120.718 147.242C123.142 146.969 125.731 153.286 127.613 157.877C127.916 158.625 128.226 159.37 128.543 160.112C128.566 159.514 128.579 158.788 128.593 157.986C128.666 153.789 128.775 147.512 130.697 146.754C132.986 145.853 135.637 148.867 137.179 150.747C136.765 148.16 136.372 143.073 137.965 142.029C139.558 140.984 150.797 150.112 154.901 154.184C154.646 153.543 153.889 152.199 152.925 150.488C150.069 145.416 145.395 137.118 146.596 134.347C148.057 130.979 157.163 133.569 158.907 134.091Z" fill="#FC4C02"/>
<path fill-rule="evenodd" clip-rule="evenodd" d="M172.43 61.4471C172.43 61.4471 179.349 58.9551 182.801 58.6123C186.206 58.2719 189.695 59.4295 190.37 62.3411H190.367C188.756 59.8147 173.453 64.8963 169.101 66.6475C167.92 67.1247 160.639 70.4079 153.202 74.6539L153.199 74.6567L153.198 74.6555C153.197 74.6551 153.197 74.6555 153.196 74.6559C153.196 74.6563 153.195 74.6567 153.194 74.6567C153.161 74.6709 153.128 74.6867 153.097 74.7039C148.695 76.2387 140.098 80.9647 136.828 84.0235C132.88 87.7135 130.493 91.9415 127.636 97.0039C124.904 101.844 121.742 107.447 116.372 114.071C111.483 120.102 107.258 124.332 103.925 127.112C101.796 128.908 99.9242 130.174 98.5474 130.904C98.4946 130.735 98.4814 130.604 98.4814 130.604C98.4738 130.551 98.4703 130.498 98.471 130.445C98.471 129.452 99.5086 127.319 100.482 125.318L100.482 125.316C100.689 124.89 100.894 124.47 101.085 124.069C101.526 123.143 101.94 122.205 102.326 121.255C104.017 117.059 104.916 113.051 105.167 111.854C105.549 110.34 106.53 106.062 106.53 106.062C106.53 106.062 88.8662 121.93 70.5566 127.244C64.3198 129.053 57.6006 130.524 52.595 130.63C52.595 130.63 48.3046 130.445 48.0198 130.356C43.6714 129.63 38.4946 127.624 33.9398 122.761C33.3463 122.29 32.7635 121.807 32.1918 121.31C32.2238 121.344 32.319 121.473 32.4682 121.676C33.1478 122.599 34.9482 125.047 37.0522 126.896L36.927 126.906L36.855 126.911C36.0094 126.981 34.5186 127.104 30.4882 126.532C15.227 124.361 10.4222 112.415 10.2982 110.983C10.0926 111.041 9.91298 111.104 9.78418 111.223C9.91298 111.102 10.0926 111.038 10.2982 110.98C10.8766 110.817 11.3194 111.296 11.7854 111.8C11.9654 111.995 12.1486 112.193 12.345 112.36L12.401 112.408C13.1418 113.039 14.937 114.57 18.1518 115.174L18.849 115.303C22.265 115.934 27.9102 116.976 32.2366 119.752L32.2394 119.746C32.5702 119.945 32.9438 120.185 33.3614 120.454C37.7678 123.284 47.0674 129.257 62.5374 123.201C70.343 120.147 77.3182 114.034 87.6822 103.781C89.3674 102.117 91.0366 100.369 92.7378 98.5647C92.495 97.3491 91.8306 95.1499 90.367 94.2399C88.0966 92.8211 84.655 92.7659 82.3842 92.9319C81.8902 92.9687 81.4474 93.0119 81.0482 93.0511H81.0478C79.6106 93.1919 78.7454 93.2767 78.1386 92.7895C77.801 92.5203 77.7826 92.0799 77.967 91.5791C79.3966 89.8387 81.9174 87.6235 88.4102 86.7687C92.037 86.2919 94.5786 86.3899 96.8014 86.4755C99.6066 86.5835 101.904 86.6719 105.235 85.5611C106.417 84.3663 107.796 83.1219 108.872 82.1511C111.359 79.8991 114.025 77.6551 116.925 75.4503C119.971 73.1368 123.134 70.9812 126.401 68.9919C144.797 57.7971 159.792 58.1663 172.43 61.4471ZM48.5098 116.83H48.507C48.2178 116.868 47.999 117.019 47.7146 117.215C47.3506 117.466 46.8794 117.792 46.015 118.05C44.333 118.555 40.8598 118.338 37.5758 118.133L36.9274 118.093C34.4034 117.937 33.0722 118.886 32.5314 119.414L32.633 119.472L32.7066 119.514C34.4578 120.512 39.3426 123.296 43.5358 124.103C43.7706 124.148 44.3378 124.243 44.8702 124.296C45.4006 124.348 46.0306 124.322 46.1654 124.314C46.1758 124.303 46.9934 123.38 47.4894 122.65C48.3066 121.453 48.813 120.292 49.0738 119.332C49.2162 118.771 49.2906 118.22 49.293 117.679C49.2622 116.706 48.6626 116.805 48.5234 116.828L48.5098 116.83ZM149.966 98.5811C148.667 102.59 146.67 108.07 144.225 112.706C141.319 118.215 137.49 122.02 135.473 123.481C135.138 123.278 135.011 122.851 135.001 122.41C134.996 122.197 135.121 121.742 135.318 121.022C135.845 119.092 136.894 115.256 137.387 109.048C139.38 107.551 141.335 106.006 143.252 104.414C145.451 102.584 147.717 100.604 149.966 98.5811Z" fill="#008E97"/>
<path fill-rule="evenodd" clip-rule="evenodd" d="M189.466 65.3864C189.466 65.3864 189.466 65.3836 189.468 65.3836C189.611 65.1228 189.996 64.408 189.92 63.928C189.748 62.8256 187.38 63.1344 181.523 65.1148C181.512 65.1192 181.501 65.1228 181.49 65.1264L181.462 65.136C180.964 65.3048 180.444 65.484 179.896 65.6764C168.502 69.6788 157.356 79.324 144.872 90.1268C138.502 95.6392 131.784 101.453 124.508 106.971L124.669 106.721C126.986 103.232 128.753 100.083 130.372 97.198C133.22 92.124 135.608 87.868 139.722 84.0232C143.052 80.8452 148.158 77.5304 153.195 74.656C153.162 74.6702 153.129 74.686 153.097 74.7032C148.696 76.238 140.099 80.964 136.828 84.0232C132.88 87.7128 130.494 91.9408 127.636 97.0032C124.905 101.844 121.742 107.446 116.372 114.07C111.483 120.102 107.258 124.332 103.925 127.111C101.797 128.907 99.9249 130.173 98.5481 130.904L98.5505 130.91C98.5745 130.983 98.7497 131.515 99.2177 131.631C100.017 131.832 103.005 130.328 106.818 127.108H106.82L106.864 127.088C107.474 126.798 114.318 123.544 117.662 121.718C121.781 119.472 128.572 115.239 130.054 114.255C130.054 114.252 130.056 114.252 130.056 114.252C132.704 112.491 137.388 109.055 137.388 109.047C139.38 107.55 141.336 106.005 143.253 104.413C145.452 102.583 147.717 100.603 149.967 98.58C148.667 102.588 146.67 108.068 144.226 112.704C141.32 118.214 137.491 122.019 135.473 123.48C136.073 123.862 136.947 123.362 137.154 123.244L137.174 123.233L137.19 123.224C138.851 122.314 143.535 118.338 146.673 111.974C150.956 103.287 152.858 96.52 153.05 95.8372L153.05 95.8344C153.059 95.8048 153.064 95.7872 153.066 95.782C153.256 95.6056 157.361 91.7324 161.231 88.0812L161.252 88.0612L161.259 88.0552C164.721 84.7888 167.987 81.7076 168.082 81.6204C173.488 76.6232 180.528 71.8604 183.055 70.3072C185.695 68.6828 187.298 67.454 188.24 66.6284C189.184 65.8032 189.466 65.3864 189.466 65.3864ZM160.771 64.4128C162.23 64.412 165.648 64.3072 167.037 63.9716C167.543 63.848 168.041 63.6907 168.526 63.5008C168.878 63.3676 169.055 63.3008 169.095 63.3964C169.174 63.5816 168.411 64.0156 166.02 64.9956C164.271 65.712 162.663 66.1496 160.071 66.7944C159.107 67.0884 158.145 67.3896 157.185 67.698C157.182 67.6944 157.18 67.6906 157.177 67.6868L157.171 67.678L157.162 67.6648V67.6644C157.132 67.6231 157.106 67.579 157.084 67.5328L157.08 67.5252L157.078 67.5212L157.076 67.518C156.926 67.1872 157.059 66.85 157.216 66.61C152.501 66.2632 150.193 68.9252 150.193 68.9252C150.022 69.0544 149.819 69.298 149.602 69.6032C150.286 68.5572 151.814 66.5704 154.084 65.5792C156.892 64.3528 158.83 64.384 160.25 64.4068C160.432 64.41 160.605 64.4128 160.771 64.4128ZM105.167 111.852C105.549 110.339 106.53 106.062 106.53 106.062C106.53 106.062 88.8665 121.929 70.5569 127.243C64.3205 129.052 57.6005 130.524 52.5953 130.629L52.6445 130.63L52.7017 130.632C54.1741 130.67 65.4973 130.963 77.8937 126.312C88.3337 122.499 98.6001 116.272 105.167 111.852ZM49.2941 117.678C49.2887 118.236 49.2151 118.791 49.0749 119.332C48.8141 120.292 48.3077 121.452 47.4905 122.649C46.9945 123.38 46.1773 124.302 46.1665 124.313C46.0317 124.321 45.4017 124.347 44.8713 124.294C44.4241 124.248 43.9789 124.184 43.5369 124.102V124.1C43.5049 124.056 43.8265 123.786 44.3257 123.368C46.0721 121.907 49.9897 118.63 48.5109 116.829L48.5241 116.827C48.6633 116.804 49.2633 116.706 49.2941 117.678ZM88.4109 86.7672C92.0361 86.2908 94.5773 86.3884 96.7997 86.474C99.6057 86.582 101.904 86.6704 105.236 85.5588C106.401 84.3804 107.76 83.154 108.829 82.1884L108.87 82.1508C107.181 82.6936 105.875 83.0164 104.644 83.2344C103.208 83.518 101.975 83.6176 100.329 83.7508C98.7701 83.8772 96.8413 84.0332 94.0201 84.404C84.9081 85.6028 80.6469 88.4584 79.4521 89.562C79.0917 89.8952 78.8157 90.1836 78.4369 90.7112C78.1761 91.0736 77.9929 91.5032 77.9645 91.5812C79.3953 89.8392 81.9149 87.6216 88.4109 86.7672ZM100.482 125.317C100.689 124.891 100.894 124.47 101.085 124.068C101.526 123.142 101.94 122.204 102.327 121.254C96.3437 124.429 86.7785 128.498 78.1261 130.526C61.0873 134.522 50.1749 131.056 48.3053 130.444L48.0601 130.365L48.0417 130.36H48.0393L48.0285 130.357C48.0257 130.357 48.023 130.356 48.0205 130.355C43.6721 129.63 38.4949 127.623 33.9405 122.76C33.3468 122.29 32.7639 121.806 32.1925 121.309C32.2245 121.343 32.3197 121.472 32.4689 121.675C33.1485 122.598 34.9489 125.046 37.0529 126.895C36.9873 126.9 36.9216 126.905 36.8561 126.91C36.0101 126.98 34.5193 127.104 30.4889 126.531C15.2277 124.36 10.4229 112.414 10.2989 110.982C10.1457 111.024 10.0061 111.072 9.89286 111.14C9.89286 111.143 9.89006 111.143 9.89006 111.143C9.85272 111.166 9.81751 111.193 9.78486 111.222C9.40726 111.565 9.46566 112.393 10.6525 114.988C12.2477 118.472 15.9133 123.105 22.2845 126.062C28.1101 128.767 36.9813 128.904 38.7745 128.904C38.8825 128.904 38.9649 128.903 39.0201 128.902L39.0805 128.902C39.0833 128.902 39.0833 128.904 39.0833 128.904C39.0833 128.904 54.1149 136.681 73.2181 135.777H73.2389C73.7837 135.783 84.9093 135.905 98.4821 130.603C98.4745 130.55 98.471 130.497 98.4717 130.444C98.4717 129.451 99.5089 127.318 100.482 125.317Z" fill="#005778"/>
<path fill-rule="evenodd" clip-rule="evenodd" d="M149.602 69.6044C149.819 69.2996 150.023 69.0556 150.193 68.9268C150.193 68.9268 152.501 66.2648 157.215 66.6112C157.059 66.8512 156.926 67.1884 157.076 67.5196L157.08 67.5264L157.084 67.534C157.105 67.5784 157.131 67.6224 157.162 67.666C154.233 68.6636 149.279 70.6288 147.707 72.9576C147.707 72.9576 148.752 70.802 149.602 69.6044ZM102.327 121.255C104.017 117.06 104.916 113.051 105.167 111.854C98.6007 116.274 88.3343 122.5 77.8939 126.313C65.4975 130.964 54.1747 130.671 52.7019 130.633L52.5955 130.63C52.5955 130.63 48.4555 130.451 48.0391 130.361L48.3051 130.446C50.1747 131.058 61.0871 134.523 78.1259 130.527C86.7783 128.499 96.3435 124.43 102.327 121.255Z" fill="white"/>
</svg>
