<svg width="200" height="200" viewBox="0 0 200 200" fill="none" xmlns="http://www.w3.org/2000/svg">
<g clip-path="url(#clip0_17_1017)">
<path d="M100.934 135.554C99.822 139.922 100.011 141.161 100.087 142.404C97.0476 140.283 89.1948 136.292 88.8292 126.184C88.6592 121.506 89.0352 117.311 89.9108 114.318C89.7668 114.493 89.598 114.692 89.4328 114.887C79.3728 126.993 67.8948 126.176 57.3928 127.256C55.8376 127.416 50.0028 128.593 48.466 128.926C52.208 124.924 58.6832 119.043 62.91 116.157C71.0812 110.58 85.2832 104.762 85.2832 104.762C78.8608 108.297 73.668 114.028 73.668 114.028C77.664 111.323 91.618 103.264 91.618 103.264C87.894 106.811 77.2824 116.162 70.9892 120.324C78.9968 116.549 85.7712 111.654 89.422 108.202C93.9888 103.888 100.847 99.726 103.949 98.124C105.47 99.6228 107.672 100.996 109.64 101.806C104.374 105.514 100.86 107.627 99.3592 112.64C99.3592 112.64 103.213 107.695 108.767 104.666C109.811 104.097 110.942 103.395 112.102 102.597C113.351 102.892 116.061 103.14 117.388 103.14L117.716 103.002C117.501 103.166 116.968 103.471 116.746 103.632C106.133 111.417 96.4204 113.462 95.5224 129.298C95.5224 129.298 96.8644 118.978 105.029 113.746C109.655 110.784 117.95 106.842 123.506 101.176C127.762 99.2292 130.44 95.8992 131.825 91.2688L131.856 91.1248C133.231 90.9892 134.6 90.8132 136.037 90.686C135.872 92.3588 135.508 94.63 134.693 96.954C133.698 100.062 132.024 103.522 129.074 107.128C123.766 113.612 117.358 117.674 110.686 126.355C104.015 135.038 102.596 143.885 102.596 143.885C101.11 133.087 106.257 126.22 106.257 126.22C105.474 126.84 102.158 130.743 100.934 135.555L100.934 135.554ZM77.4944 126.478C82.6832 125.179 87.3712 119.57 87.3712 119.57C86.8224 121.466 87.2316 127.258 87.2316 127.258C87.2316 127.258 85.2064 128.057 82.7376 128.057C80.2688 128.057 77.2904 126.498 77.2904 126.498L77.4944 126.478V126.478ZM111.236 152.275C110.066 155.415 109.258 158.325 108.957 159.458C105.477 157.372 100.136 154.588 98.1776 151.537C95.5512 147.444 95.5776 142.083 95.5776 142.083C96.8776 143.232 100.212 145.098 103.266 146.791C105.758 148.175 109.827 151.206 111.236 152.275H111.236ZM104.72 145.542C104.833 143.486 105.573 139.616 107.686 134.81C110.056 129.423 116.102 122.814 116.102 122.814C118.114 124.899 120.752 129.158 119.702 134.71C118.652 140.258 116.001 142.156 113.3 147.482C112.827 148.424 112.389 149.383 111.988 150.357C110.302 149.021 107.247 147.114 104.719 145.542H104.72ZM93.0448 82.9132L93.1792 82.9476L92.9876 82.9796C90.2476 83.4632 87.4036 84.1312 84.9972 84.7556C85.1044 83.8012 85.2328 82.8432 85.386 81.904C85.434 81.6432 85.4872 81.38 85.5444 81.116C86.5968 81.3724 87.6664 81.6176 88.7372 81.8664C89.7028 82.0904 90.6708 82.3164 91.6252 82.5564L93.0448 82.9132ZM146.81 89.7552C148.218 88.8192 153.139 89.1936 154.779 89.3808C156.422 89.5684 161.906 90.4116 164.626 89.8028C167.342 89.194 168.562 88.6316 168.562 88.6316C168.562 88.6316 167.906 93.598 162.656 93.9732C157.405 94.3484 156.703 93.0824 152.765 92.5672C152.765 92.5672 153.936 91.8636 156.047 91.4436C156.047 91.4436 152.388 90.9276 149.623 91.63C146.858 92.3336 145.733 93.5048 145.733 93.5048C145.733 93.5048 145.405 90.6916 146.81 89.7552H146.81ZM94.678 59.2808C94.678 59.2808 95.1008 58.7412 95.176 58.626C97.4344 55.212 99.89 51.8224 101.116 50.1744C101.893 49.1259 102.565 48.0032 103.121 46.8228C104.532 43.8348 104.731 41.498 104.731 41.498C117.764 42.096 133.378 47.814 146.012 59.7788C151.601 65.0724 155.299 71.3236 157.69 76.6524C155.362 76.274 150.524 75.7032 145.069 75.6672C138.953 75.6252 131.619 76.454 130.226 76.6188L130.225 76.6124C130.202 76.3974 130.174 76.1829 130.142 75.9692L130.114 75.7828C130.088 75.6152 130.056 75.4492 130.024 75.2836L130.033 75.2816C129.25 69.2952 124.82 63.5724 119.197 61.196C117.177 60.2556 112.924 58.8428 108.485 58.4436C106.241 58.1872 103.83 58.2124 100.905 58.522C99.6512 58.6544 98.4324 58.8116 97.2364 58.964C96.3676 59.0756 95.5164 59.1836 94.6776 59.2808H94.678ZM111.19 170.373C111.19 170.373 108.231 168.836 106.163 165.853C104.542 163.513 104.397 160.64 104.411 159.503C106.496 160.704 108.886 161.892 110.283 162.759C111.817 163.71 113.062 164.65 113.987 165.437C112.516 168.045 111.19 170.373 111.19 170.373ZM102.652 96.3296C92.832 99.0068 71.9108 107.863 59.6788 116.427C54.4 120.124 48.6392 125.961 45.13 129.563C41.6936 130.624 37.3532 132.443 35.3384 133.324C40.0408 128.155 49.5676 118.894 57.3344 113.675C80.7828 97.9204 100.168 95.3744 101.614 95.0828L102.042 95.4536C102.236 95.7519 102.44 96.0441 102.653 96.33L102.652 96.3296ZM159.576 121.686C153.528 125.67 149.686 135.169 149.686 135.169C151.238 124.628 158.015 117.265 158.015 117.265C152.952 120.218 149.265 125.866 147.308 138.452C145.071 152.848 140.944 158.372 140.944 158.372L141.374 156.913C143.108 149.134 142.826 145.478 144.233 136.104C145.639 126.731 149.764 121.013 149.764 121.013C144.608 124.622 141.832 132.339 140.858 143.556C139.783 155.926 136.821 160.304 136.821 160.304C138.624 154.123 137.858 147.259 138.138 142.666C138.42 138.072 138.623 131.826 141.199 125.921C143.778 120.016 149.764 114.312 156.047 111.454C162.326 108.594 167.339 110.002 167.339 110.002C170.65 113.106 170.854 116.375 170.854 116.375C170.854 116.375 165.624 117.704 159.576 121.685V121.686ZM106.785 173.266C106.164 171.176 107.098 170.381 107.628 169.694C107.628 169.694 109.016 170.917 110.451 171.648C110.451 171.648 109.666 173.777 109.06 175.7C108.119 175.208 107.166 174.547 106.785 173.266L106.785 173.266ZM105.961 185.353C105.961 185.353 106.441 186.222 106.956 186.922C107.595 187.786 107.459 188.606 107 189.125C106.541 189.646 105.804 189.721 105.275 189.098C104.745 188.476 105.125 186.388 105.961 185.353ZM118.386 143.757C118.816 144.566 119.968 146.609 120.294 149.175C120.77 152.912 119.302 157.015 117.388 160.49C116.868 161.434 115.561 162.637 114.895 163.821C114.38 163.248 113.474 162.391 111.944 161.32C111.58 161.071 111.209 160.83 110.833 160.598C112.224 155.036 115.485 147.937 116.806 146.151C117.224 145.587 117.938 144.476 118.386 143.757ZM108.149 182.107C109.26 182.858 110.436 184.536 110.52 185.352C110.648 186.584 108.73 187.556 108.73 187.556C108.73 187.556 108.998 186.205 107.6 185.171C105.558 183.658 104.84 183.066 106.322 180.519C106.322 180.519 107.038 181.356 108.15 182.107H108.149ZM113.13 169.927C114.826 166.874 117.246 163.615 117.246 163.615C117.246 163.615 118.727 168.214 117.489 172.057C116.252 175.9 113.206 179.292 113.206 179.292C113.206 179.292 111.784 177.298 110.673 176.548C110.569 176.479 110.463 176.413 110.354 176.352C110.886 174.856 111.948 172.057 113.13 169.927L113.13 169.927ZM109.172 177.459C110.693 178.184 111.779 179.198 112.344 180.392C112.909 181.586 112.404 182.682 111.383 183.399C111.383 183.399 110.841 181.94 109.404 181.21C107.967 180.48 106.614 179.852 106.278 178.398C105.944 176.946 106.853 175.72 106.853 175.72C106.853 175.72 107.653 176.733 109.172 177.459V177.459Z" fill="#FFC62F"/>
<path d="M101.971 83.102C97.4028 81.7212 90.8376 80.4868 85.006 78.8308C73.2324 75.5332 65.1476 68.4356 60.9784 57.7344C58.2356 50.6992 58.1748 44.3228 58.2056 42.79C58.208 42.5704 58.1952 42.1592 58.1964 42.018C58.2608 37.0864 58.9236 32.5192 59.4828 29.234L59.5484 28.8336L59.5576 29.536C59.5396 32.95 59.7744 35.9548 59.8568 36.8888L59.8632 36.9808C59.876 37.1172 59.9696 36.2796 60.032 35.8596C60.2604 34.338 60.5216 32.83 60.6724 31.298C60.8244 29.7732 61.1692 27.9516 61.2348 26.4212C61.2616 25.8332 61.2872 25.2416 61.2704 24.6528C61.44 24.7536 61.5088 25.3248 61.5436 25.4868C61.6792 26.1228 61.9696 31.126 62.056 32.8388C62.0912 33.5228 62.1036 34.2072 62.112 34.8908C62.116 35.2324 62.1264 35.568 62.1808 35.906C62.1924 35.9956 62.2216 36.0928 62.2424 36.1892C62.2588 36.2684 62.5112 33.96 62.6996 32.7436C62.8588 31.7204 63.1144 30.6824 63.1068 29.6388C63.1068 29.548 63.0788 29.4348 63.0944 29.3452C63.1212 29.1912 63.3436 29.856 63.4572 31.0772C63.5352 32.4572 63.5944 33.8888 63.754 35.238L63.8768 36.3052C64.9924 46.102 70.8636 55.028 78.7976 59.0256C85.2004 62.6152 91.1764 61.8492 97.504 61.0384C98.6844 60.8864 99.8884 60.732 101.125 60.6016C103.895 60.3088 106.161 60.2836 108.274 60.5232C112.936 60.944 117.247 62.5316 118.664 63.2672C123.395 65.392 127.105 70.2092 127.879 75.2748L127.882 75.4104C128.083 76.3308 128.186 77.2844 128.186 78.2652L128.185 78.3008C128.153 78.1144 128.136 77.9328 128.095 77.742C128.072 79.3351 127.755 80.9104 127.16 82.3884C127.632 80.9292 127.788 79.2208 127.358 77.2284C127.334 79.0337 126.926 80.8131 126.163 82.4492C126.606 81.0212 126.787 79.4892 126.642 77.9104C126.352 74.714 124.799 71.9344 122.518 69.9924C124.345 71.9456 125.23 75.0428 125.494 77.9392C126.105 84.7264 120.677 89.1752 114.854 90.1792L114.732 90.2092C115.232 90.298 117.173 90.5648 119.108 89.9488C119.966 89.8884 121.107 89.6956 122.264 89.136C122.692 88.9288 123.233 88.6192 123.814 88.2136C121.397 90.4468 118.174 91.8216 114.624 91.8216C109.936 91.8216 105.813 89.4388 103.382 85.8204C106.763 86.2436 110.075 86.9156 110.075 86.9156C107.026 84.5652 101.974 83.0852 101.974 83.0852L101.969 83.1016L101.971 83.102ZM99.9124 47.9136C98.326 50.3512 95.9832 53.6656 94.1536 56.2432C91.946 54.5852 88.2608 51.2992 86.5648 46.8172C83.944 39.8888 84.8252 33.2796 84.3688 29.5812C84.2364 28.518 84.0688 27.2176 83.8596 25.8336C84.4388 27.7452 85.2004 30.482 85.4036 32.2348C85.4036 32.2348 85.234 27.2564 84.5464 24.166C84.5464 24.166 86.262 28.9736 86.6068 31.7192C86.6068 31.7192 86.8316 29.0596 86.58 26.2184C86.9213 27.3503 87.1982 28.5007 87.4092 29.664C88.7604 37.164 90.9816 42.3992 99.912 47.9132L99.9124 47.9136Z" fill="#FFFFFE"/>
<path d="M154.432 97.1696C154.903 97.7332 155.744 98.95 155.791 99.3728C155.797 99.4252 155.792 99.5396 155.782 99.6948V99.6956L155.772 99.8068L155.77 99.8248C155.711 100.473 155.4 103.488 154.704 104.329C154.602 104.501 154.48 104.661 154.341 104.804C153.543 105.551 152.147 106.26 149.51 108.088C146.604 110.105 144.307 114.228 144.307 114.228C144.307 114.228 145.133 110.332 146.93 108.106C149.156 105.348 152.058 103.525 153.848 102.572L154.652 98.9788C154.036 98.5672 153.261 98.146 152.511 98.0116C150.954 97.7376 148.332 97.7732 146.726 97.2496L146.746 97.2172C148.668 96.9828 149.793 96.4208 152.651 95.9508C155.51 95.4828 157.714 96.3268 157.714 96.3268C155.791 96.4208 154.432 97.1696 154.432 97.1696ZM163.73 95.622C163.73 95.622 164.925 98.3528 164.868 100.344C164.812 102.335 165.436 103.7 166.176 104.269C166.916 104.837 167.656 104.952 168.111 105.295C168.569 105.635 168.569 106.659 168.34 107.512C168.111 108.364 167.486 108.479 166.804 108.308C166.167 108.15 162.838 107.699 159.224 108.363C159.032 107.694 158.701 106.165 159.421 105.408C160.359 104.427 162.187 104.519 162.889 104.66C162.889 104.66 161.392 103.956 160.078 103.956C158.765 103.956 157.686 104.848 157.311 105.831C157.033 106.563 157.273 108.068 157.414 108.796C153.484 109.952 147.858 113.021 143.242 118.948C138.233 125.375 137.1 133.398 137.1 133.398C137.1 133.398 131.817 134.438 129.083 130.378C125.416 124.934 126.795 118.549 126.795 118.549C126.795 118.549 124.624 119.574 122.905 119.126C122.303 118.968 121.875 118.572 121.572 118.102C124.43 115.562 127.472 113.177 130.488 109.725C132.051 110.072 133.455 110.448 134.221 110.683C135.91 111.198 137.669 112.625 138.137 114.171C138.607 115.718 138.839 120.967 138.839 120.967C139.788 117.316 139.94 115.474 140.033 114.441C140.129 113.411 140.02 110.805 138.042 109C136.974 108.027 133.951 107.122 132.752 106.458C137.329 100.156 138.587 90.4992 138.587 90.4992L138.583 90.2248C139.049 90.174 139.354 90.1256 139.366 90.0776C140.21 90.0288 143.206 89.6636 144.038 89.6484C144.038 89.6484 142.785 93.3444 143.867 96.0756C143.867 96.0756 146.656 94.1988 150.64 94.4832C154.623 94.7688 160.998 96.702 163.73 95.6216L163.73 95.622ZM125.974 130.782C127.868 133.561 130.407 135.924 134.486 135.924C135.076 135.924 135.776 135.913 136.539 135.894C136.204 138.006 136.039 140.284 135.957 141.936C135.072 142.231 134.285 142.516 133.659 142.779C129.698 144.433 122.325 148.339 122.325 148.339L122.074 148.49C121.466 144.288 120.096 140.836 120.096 140.836C120.096 140.836 122.741 133.958 121.751 129.729C120.451 124.174 118.323 121.22 118.323 121.22C118.556 120.972 118.79 120.738 119.025 120.499C120.42 122.397 122.782 122.452 122.782 122.452C122.782 122.452 124.084 128.007 125.974 130.782ZM166.445 135.835C167.732 135.868 169.02 135.838 170.304 135.746C169.713 136.219 168.117 136.16 167.23 136.279C166.344 136.397 160.849 136.574 154.168 137.58C152.958 137.76 151.638 137.996 150.27 138.265C150.695 137.118 151.09 136.296 151.58 135.526L151.639 135.526C156.545 135.526 164.434 135.778 166.445 135.835ZM168.798 127.715C170.204 128.278 171.001 128.792 171.516 131.698C172.032 134.604 170.391 134.51 169.594 134.465C168.798 134.418 166.482 134.403 162.918 133.98C159.355 133.56 152.991 133.394 152.991 133.394C156.033 124.978 166.641 120.406 166.641 120.406C166.83 122.842 165 127.295 165 127.295C165 127.295 167.391 127.153 168.798 127.716V127.715Z" fill="#E9BF9B"/>
<path d="M158.749 78.7438C157.069 78.431 151.715 77.6226 145.07 77.5778C139.031 77.537 131.748 78.2918 130.311 78.4514L130.31 78.4766C130.302 87.4582 122.569 93.869 115.367 93.9758C104.491 94.1382 100.487 85.3746 100.405 84.8574C99.5865 84.6213 98.7659 84.3941 97.943 84.1758C96.4982 84.3522 94.9534 84.5738 93.3322 84.8598C90.3354 85.3874 87.2398 86.1262 84.7202 86.7818C84.6002 88.1118 84.4078 90.2514 84.4002 90.4338C84.0418 97.9962 84.5182 97.4686 84.5182 97.4686C86.7118 96.611 94.8022 94.5366 94.8022 94.5366C97.1714 93.9854 99.985 93.3934 103.279 92.7854C105.595 97.4522 110.405 100.661 115.968 100.661C122.915 100.661 128.689 95.6598 129.897 89.0658C145.081 87.4178 152.258 87.371 161.635 88.6178C160.651 83.3934 158.749 78.743 158.749 78.743" fill="#4F2683"/>
<path d="M157.712 96.3272C157.712 96.3272 155.511 95.4832 152.653 95.9508C149.79 96.418 148.667 96.9828 146.745 97.2168L146.725 97.2492C148.329 97.7748 150.953 97.736 152.511 98.0088C153.263 98.1452 154.037 98.5672 154.653 98.976L153.848 102.572C152.056 103.527 149.153 105.345 146.932 108.104C146.758 108.318 146.598 108.543 146.452 108.778C146.38 108.877 146.314 108.981 146.257 109.09C146.172 109.226 146.095 109.362 146.024 109.498C145.933 109.661 145.848 109.83 145.764 110.005C145.68 110.174 145.602 110.342 145.531 110.511C145.238 111.173 144.985 111.852 144.771 112.544L144.706 112.751C144.593 113.125 144.489 113.501 144.395 113.88L144.369 113.984L144.349 114.062L144.323 114.185L144.317 114.218C144.355 114.153 144.557 113.789 144.895 113.264L145.141 112.887C145.79 111.914 146.777 110.563 147.953 109.408C148.115 109.245 148.281 109.087 148.453 108.934C148.789 108.632 149.142 108.35 149.511 108.09C152.148 106.26 153.544 105.552 154.342 104.806C154.485 104.656 154.602 104.494 154.706 104.332C155.401 103.487 155.713 100.469 155.772 99.8268V99.8072L155.784 99.6968C155.791 99.5864 155.791 99.4956 155.791 99.4372V99.3724C155.745 98.9504 154.901 97.73 154.433 97.172C154.433 97.172 155.791 96.4192 157.713 96.328L157.712 96.3272ZM157.712 96.3272C157.712 96.3272 155.511 95.4832 152.653 95.9508C149.79 96.418 148.667 96.9828 146.745 97.2168L146.725 97.2492C148.329 97.7748 150.953 97.736 152.511 98.0088C153.263 98.1452 154.037 98.5672 154.653 98.976L153.848 102.572C152.056 103.527 149.153 105.345 146.932 108.104C146.758 108.318 146.598 108.543 146.452 108.778C146.38 108.877 146.314 108.981 146.257 109.09C146.172 109.226 146.095 109.362 146.024 109.498C145.933 109.661 145.848 109.83 145.764 110.005C145.68 110.174 145.602 110.342 145.531 110.511C145.238 111.173 144.985 111.852 144.771 112.544L144.706 112.751C144.593 113.125 144.489 113.501 144.395 113.88L144.369 113.984L144.349 114.062L144.323 114.185L144.317 114.218C144.355 114.153 144.557 113.789 144.895 113.264L145.141 112.887C145.79 111.914 146.777 110.563 147.953 109.408C148.115 109.245 148.281 109.087 148.453 108.934C148.789 108.632 149.142 108.35 149.511 108.09C152.148 106.26 153.544 105.552 154.342 104.806C154.485 104.656 154.602 104.494 154.706 104.332C155.401 103.487 155.713 100.469 155.772 99.8268V99.8072L155.784 99.6968C155.791 99.5864 155.791 99.4956 155.791 99.4372V99.3724C155.745 98.9504 154.901 97.73 154.433 97.172C154.433 97.172 155.791 96.4192 157.713 96.328L157.712 96.3272ZM157.712 96.3272C157.712 96.3272 155.511 95.4832 152.653 95.9508C149.79 96.418 148.667 96.9828 146.745 97.2168L146.725 97.2492C148.329 97.7748 150.953 97.736 152.511 98.0088C153.263 98.1452 154.037 98.5672 154.653 98.976L153.848 102.572C152.056 103.527 149.153 105.345 146.932 108.104C146.758 108.318 146.598 108.543 146.452 108.778C146.38 108.877 146.314 108.981 146.257 109.09C146.172 109.226 146.095 109.362 146.024 109.498C145.933 109.661 145.848 109.83 145.764 110.005C145.68 110.174 145.602 110.342 145.531 110.511C145.238 111.173 144.985 111.852 144.771 112.544L144.706 112.751C144.593 113.125 144.489 113.501 144.395 113.88L144.369 113.984L144.349 114.062L144.323 114.185L144.317 114.218C144.355 114.153 144.557 113.789 144.895 113.264L145.141 112.887C145.79 111.914 146.777 110.563 147.953 109.408C148.115 109.245 148.281 109.087 148.453 108.934C148.789 108.632 149.142 108.35 149.511 108.09C152.148 106.26 153.544 105.552 154.342 104.806C154.485 104.656 154.602 104.494 154.706 104.332C155.401 103.487 155.713 100.469 155.772 99.8268V99.8072L155.784 99.6968C155.791 99.5864 155.791 99.4956 155.791 99.4372V99.3724C155.745 98.9504 154.901 97.73 154.433 97.172C154.433 97.172 155.791 96.4192 157.713 96.328L157.712 96.3272ZM157.712 96.3272C157.712 96.3272 155.511 95.4832 152.653 95.9508C149.79 96.418 148.667 96.9828 146.745 97.2168L146.725 97.2492C148.329 97.7748 150.953 97.736 152.511 98.0088C153.263 98.1452 154.037 98.5672 154.653 98.976L153.848 102.572C152.056 103.527 149.153 105.345 146.932 108.104C146.758 108.318 146.598 108.543 146.452 108.778C146.38 108.877 146.314 108.981 146.257 109.09C146.172 109.226 146.095 109.362 146.024 109.498C145.933 109.661 145.848 109.83 145.764 110.005C145.68 110.174 145.602 110.342 145.531 110.511C145.238 111.173 144.985 111.852 144.771 112.544L144.706 112.751C144.593 113.125 144.489 113.501 144.395 113.88L144.369 113.984L144.349 114.062L144.323 114.185L144.317 114.218C144.355 114.153 144.557 113.789 144.895 113.264L145.141 112.887C145.79 111.914 146.777 110.563 147.953 109.408C148.115 109.245 148.281 109.087 148.453 108.934C148.789 108.632 149.142 108.35 149.511 108.09C152.148 106.26 153.544 105.552 154.342 104.806C154.485 104.656 154.602 104.494 154.706 104.332C155.401 103.487 155.713 100.469 155.772 99.8268V99.8072L155.784 99.6968C155.791 99.5864 155.791 99.4956 155.791 99.4372V99.3724C155.745 98.9504 154.901 97.73 154.433 97.172C154.433 97.172 155.791 96.4192 157.713 96.328L157.712 96.3272ZM152.653 95.9508C149.79 96.418 148.667 96.9828 146.745 97.2168L146.725 97.2492C148.329 97.7748 150.953 97.736 152.511 98.0088C153.263 98.1452 154.037 98.5672 154.653 98.976L153.848 102.572C152.056 103.527 149.153 105.345 146.932 108.104C146.758 108.318 146.598 108.543 146.452 108.778C146.38 108.877 146.314 108.981 146.257 109.09C146.172 109.226 146.095 109.362 146.024 109.498C145.933 109.661 145.848 109.83 145.764 110.005C145.68 110.174 145.602 110.342 145.531 110.511C145.238 111.173 144.985 111.852 144.771 112.544L144.706 112.751C144.593 113.125 144.489 113.501 144.395 113.88L144.369 113.984L144.349 114.062L144.323 114.185L144.317 114.218C144.355 114.153 144.557 113.789 144.895 113.264L145.141 112.887C145.79 111.914 146.777 110.563 147.953 109.408C148.115 109.245 148.281 109.087 148.453 108.934C148.789 108.632 149.142 108.35 149.511 108.09C152.148 106.26 153.544 105.552 154.342 104.806C154.485 104.656 154.602 104.494 154.706 104.332C155.401 103.487 155.713 100.469 155.772 99.8268V99.8072L155.784 99.6968C155.791 99.5864 155.791 99.4956 155.791 99.4372V99.3724C155.745 98.9504 154.901 97.73 154.433 97.172C154.433 97.172 155.791 96.4192 157.713 96.328C157.713 96.328 155.511 95.484 152.654 95.9516L152.653 95.9508ZM169.594 134.464C168.795 134.418 166.485 134.406 162.919 133.977C159.354 133.561 152.99 133.393 152.99 133.393C156.03 124.981 166.64 120.404 166.64 120.404C166.828 122.838 165.003 127.29 165.003 127.29C165.003 127.29 167.393 127.155 168.796 127.713C170.205 128.278 171.003 128.79 171.517 131.698C172.029 134.606 170.393 134.509 169.594 134.464V134.464ZM167.231 136.275C166.341 136.399 160.848 136.574 154.166 137.58C152.863 137.78 151.564 138.007 150.27 138.262C150.692 137.119 151.088 136.295 151.581 135.529L151.639 135.522C156.543 135.522 164.432 135.775 166.445 135.833C167.731 135.865 169.018 135.835 170.301 135.742C169.71 136.216 168.12 136.157 167.23 136.275L167.231 136.275ZM147.309 138.45C145.069 152.848 140.946 158.372 140.946 158.372L141.375 156.911C143.109 149.134 142.829 145.48 144.231 136.106C145.641 126.733 149.764 121.013 149.764 121.013C144.608 124.623 141.829 132.342 140.855 143.558C139.816 155.535 137.005 160.027 136.83 160.293C138.621 154.119 137.855 147.258 138.141 142.67C138.42 138.074 138.621 131.829 141.199 125.922C143.777 120.014 149.764 114.315 156.049 111.452C162.328 108.596 167.341 110.005 167.341 110.005C170.646 113.108 170.853 116.373 170.853 116.373C170.853 116.373 165.626 117.704 159.575 121.689C153.529 125.668 149.685 135.172 149.685 135.172C151.237 124.63 158.016 117.262 158.016 117.262C152.951 120.216 149.263 125.863 147.308 138.45H147.309ZM135.959 141.936C135.069 142.228 134.284 142.513 133.66 142.78C129.699 144.434 122.323 148.342 122.323 148.342L122.07 148.491C121.466 144.286 120.096 140.838 120.096 140.838C120.096 140.838 122.738 133.958 121.751 129.732C120.453 124.175 118.324 121.222 118.324 121.222C118.552 120.976 118.786 120.736 119.025 120.501C120.421 122.397 122.778 122.455 122.778 122.455C122.778 122.455 124.083 128.005 125.973 130.784C127.869 133.561 130.407 135.925 134.485 135.925C135.075 135.925 135.777 135.912 136.537 135.892C136.206 138.008 136.037 140.28 135.959 141.936ZM117.388 160.488C116.869 161.436 115.557 162.637 114.894 163.818C114.382 163.247 113.473 162.39 111.947 161.319C111.629 161.098 111.246 160.858 110.83 160.598C112.226 155.035 115.486 147.94 116.804 146.149C117.225 145.584 117.94 144.474 118.388 143.76C118.817 144.566 119.966 146.61 120.291 149.174C120.771 152.913 119.304 157.015 117.387 160.488H117.388ZM117.486 172.056C116.251 175.898 113.207 179.294 113.207 179.294C113.207 179.294 111.785 177.3 110.673 176.548C110.569 176.48 110.463 176.415 110.356 176.352C110.882 174.854 111.947 172.056 113.129 169.927C114.823 166.876 117.245 163.617 117.245 163.617C117.245 163.617 118.725 168.213 117.485 172.056L117.486 172.056ZM111.381 183.396C111.381 183.396 110.843 181.942 109.402 181.208C107.966 180.482 106.615 179.852 106.279 178.398C105.941 176.944 106.85 175.717 106.85 175.717C106.85 175.717 107.655 176.736 109.175 177.457C110.695 178.184 111.779 179.196 112.343 180.391C112.908 181.585 112.402 182.682 111.382 183.396L111.381 183.396ZM108.733 187.557C108.733 187.557 108.999 186.206 107.597 185.174C105.558 183.655 104.837 183.065 106.324 180.52C106.324 180.52 107.038 181.358 108.148 182.105C109.259 182.857 110.434 184.539 110.518 185.35C110.648 186.583 108.733 187.557 108.733 187.557H108.733ZM106.999 189.128C106.538 189.647 105.804 189.725 105.272 189.102C104.746 188.478 105.123 186.388 105.961 185.356C105.961 185.356 106.441 186.226 106.954 186.921C107.597 187.784 107.46 188.608 106.999 189.128ZM110.447 171.646C110.447 171.646 109.669 173.776 109.057 175.697C108.116 175.21 107.168 174.548 106.785 173.268C106.161 171.18 107.096 170.38 107.629 169.692C107.629 169.692 109.012 170.919 110.447 171.646H110.447ZM104.408 159.501C106.493 160.702 108.888 161.89 110.285 162.76C111.817 163.707 113.064 164.648 113.986 165.434C112.518 168.044 111.187 170.374 111.187 170.374C111.187 170.374 108.233 168.835 106.162 165.85C104.539 163.513 104.395 160.637 104.409 159.501L104.408 159.501ZM98.1746 151.536C95.5514 147.446 95.5774 142.084 95.5774 142.084C96.8762 143.233 100.213 145.096 103.265 146.791C105.759 148.174 109.823 151.205 111.233 152.276C110.064 155.417 109.259 158.326 108.953 159.456C105.479 157.372 100.135 154.587 98.1746 151.536ZM119.7 134.71C118.654 140.26 115.999 142.156 113.297 147.479C112.827 148.422 112.39 149.382 111.986 150.355C110.304 149.017 107.246 147.115 104.719 145.544C104.83 143.487 105.571 139.618 107.687 134.807C110.057 129.426 116.103 122.812 116.103 122.812C118.115 124.896 120.752 129.16 119.7 134.711V134.71ZM88.831 126.181C88.6558 121.507 89.0322 117.314 89.909 114.315C89.7662 114.491 89.5974 114.691 89.435 114.886C79.3706 126.992 67.897 126.175 57.391 127.258C55.839 127.415 50.0018 128.596 48.463 128.927C52.2094 124.922 58.6834 119.04 62.9106 116.158C70.8258 110.758 84.3966 105.123 85.241 104.779C78.8386 108.324 73.6702 114.029 73.6702 114.029C77.5402 111.407 90.7602 103.766 91.5786 103.293C87.8254 106.869 77.261 116.171 70.9886 120.326C78.9946 116.548 85.7738 111.653 89.423 108.2C93.9878 103.89 100.845 99.7288 103.948 98.1256C105.468 99.6252 107.675 100.995 109.643 101.806C104.377 105.512 100.864 107.629 99.3574 112.64C99.3574 112.64 103.214 107.694 108.766 104.662C109.811 104.097 110.941 103.397 112.104 102.598C113.35 102.889 116.065 103.143 117.388 103.143L117.713 102.999C117.499 103.162 116.967 103.467 116.746 103.63C106.15 111.407 96.4482 113.451 95.5262 129.232C95.6626 128.342 97.247 118.728 105.032 113.743C109.655 110.783 117.948 106.842 123.505 101.176C127.759 99.2284 130.44 95.8984 131.823 91.2704L131.856 91.1276C133.232 90.9912 134.603 90.816 136.037 90.686C135.875 92.3608 135.505 94.6328 134.693 96.95C133.7 100.059 132.025 103.519 129.076 107.129C123.765 113.614 117.357 117.67 110.688 126.356C104.013 135.035 102.598 143.883 102.598 143.883C101.149 133.38 105.981 126.596 106.247 126.233C105.442 126.876 102.15 130.771 100.935 135.554C99.8254 139.923 100.013 141.163 100.085 142.404C97.0462 140.28 89.1958 136.294 88.8322 126.181L88.831 126.181ZM87.2338 127.258C87.2338 127.258 85.2078 128.057 82.7406 128.057C80.2666 128.057 77.2926 126.5 77.2926 126.5L77.4938 126.479C82.6818 125.18 87.3702 119.573 87.3702 119.573C86.8246 121.469 87.2338 127.258 87.2338 127.258ZM45.1318 129.562C41.697 130.621 37.353 132.446 35.3402 133.321C40.0414 128.154 49.567 118.891 57.3326 113.672C80.7798 97.9176 100.169 95.3728 101.617 95.0808L102.039 95.4508C102.233 95.756 102.441 96.0416 102.649 96.3272C92.8314 99.008 71.9102 107.862 59.677 116.424C54.3982 120.124 48.6386 125.96 45.1322 129.562L45.1318 129.562ZM60.9754 57.736C58.2354 50.6992 58.177 44.3248 58.2026 42.7928C58.209 42.572 58.1962 42.1568 58.1962 42.0204C58.261 37.0868 58.9234 32.5172 59.4818 29.2324C59.5078 29.1024 59.5274 28.9664 59.5466 28.8364L59.5594 29.5376C59.5398 32.952 59.7738 35.9576 59.8582 36.8924L59.8646 36.9832C59.8774 37.1196 59.9686 36.282 60.0334 35.86C60.2606 34.3412 60.5202 32.8284 60.6698 31.2964C60.8258 29.7708 61.1698 27.9532 61.2346 26.4212C61.2606 25.8304 61.2866 25.2396 61.267 24.6556C61.4422 24.7528 61.5074 25.3244 61.5462 25.4864C61.6762 26.1224 61.9682 31.1272 62.0526 32.8412C62.0914 33.5228 62.1046 34.2044 62.111 34.8924C62.1174 35.23 62.1238 35.5676 62.1826 35.9052C62.189 35.996 62.2214 36.0936 62.241 36.1908C62.267 36.1908 62.5074 33.9384 62.6954 32.744C62.8578 31.7184 63.111 30.6796 63.1046 29.6412C63.1046 29.5504 63.0786 29.4336 63.0918 29.3492C63.1178 29.1936 63.345 29.8556 63.4554 31.076C63.5334 32.4588 63.5918 33.8868 63.7542 35.2368L63.8774 36.308C64.9942 46.1036 70.8642 55.0292 78.799 59.0276C85.2014 62.6172 91.175 61.8512 97.5058 61.04C98.681 60.8908 99.889 60.7348 101.123 60.6052C103.895 60.3132 106.161 60.2872 108.272 60.5208C112.934 60.9428 117.245 62.5332 118.661 63.2668C123.394 65.3896 127.102 70.2124 127.881 75.2756V75.412C128.083 76.3336 128.187 77.288 128.187 78.268V78.3004C128.153 78.112 128.135 77.9368 128.095 77.742C128.071 79.3356 127.755 80.9112 127.161 82.39C127.628 80.9296 127.784 79.2224 127.355 77.2292C127.336 79.0988 126.901 80.858 126.161 82.4484C126.616 80.9819 126.779 79.4402 126.641 77.9108C126.349 74.7172 124.797 71.9388 122.518 69.9912C124.343 71.9452 125.232 75.0416 125.492 77.9432C126.103 84.7268 120.674 89.1732 114.856 90.1792L114.732 90.2116C115.233 90.296 117.174 90.5688 119.109 89.952C119.967 89.8872 121.109 89.6988 122.265 89.134C122.693 88.9328 123.232 88.6212 123.817 88.2124C121.401 90.4456 118.174 91.8216 114.622 91.8216C109.934 91.8216 105.811 89.4392 103.383 85.8236C106.765 86.2456 110.077 86.914 110.077 86.914C107.025 84.564 101.974 83.084 101.974 83.084V83.1036C97.4026 81.7208 90.8378 80.4876 85.007 78.8324C73.2346 75.5348 65.1506 68.4336 60.9754 57.736ZM86.5654 46.8176C83.9422 39.8912 84.8254 33.2832 84.3706 29.5832C84.2128 28.3308 84.0419 27.08 83.8578 25.8312C84.4422 27.746 85.2018 30.4856 85.403 32.238C85.403 32.238 85.2342 27.272 84.5522 24.1824C84.6494 24.468 86.273 29.0576 86.6042 31.7188C86.6042 31.7188 86.8314 29.0572 86.5782 26.2208C86.903 27.3112 87.195 28.4604 87.4094 29.6676C88.7598 37.1652 90.9806 42.4036 99.9154 47.9148C98.3246 50.3492 95.9806 53.666 94.1558 56.2432C91.9482 54.588 88.2598 51.3032 86.5654 46.8176ZM103.123 46.824C104.532 43.838 104.733 41.4948 104.733 41.4948C117.765 42.0984 133.381 47.8108 146.01 59.7808C151.602 65.0712 155.303 71.3224 157.692 76.652C155.361 76.2756 150.524 75.7044 145.069 75.6652C138.953 75.6264 131.622 76.4508 130.226 76.6196V76.6132C130.2 76.3988 130.175 76.1848 130.141 75.9704L130.115 75.782C130.089 75.6132 130.057 75.4508 130.025 75.282H130.031C129.252 69.2968 124.817 63.5716 119.2 61.1956C117.181 60.2544 112.928 58.8392 108.486 58.4432C106.239 58.1836 103.831 58.2096 100.909 58.5212C99.649 58.6512 98.4346 58.8132 97.2398 58.9628C96.3698 59.0732 95.519 59.1836 94.675 59.2808C94.675 59.2808 95.1034 58.742 95.175 58.6252C97.4346 55.2108 99.889 51.8224 101.117 50.1736C101.893 49.1249 102.564 48.003 103.123 46.824H103.123ZM85.0002 84.7528C85.1042 83.7984 85.2338 82.8444 85.3834 81.9032C85.4354 81.6436 85.4874 81.3776 85.5458 81.1176C86.5978 81.3708 87.669 81.6176 88.7406 81.864C89.7014 82.0912 90.669 82.3184 91.6234 82.5584C92.1038 82.6752 92.5778 82.792 93.0454 82.9156L93.1818 82.948L92.987 82.9804C90.247 83.4608 87.403 84.1292 85.0002 84.7524V84.7528ZM161.633 88.6152C152.257 87.3688 145.082 87.4144 129.895 89.0632C128.687 95.6584 122.914 100.663 115.967 100.663C110.401 100.663 105.597 97.45 103.279 92.7828C99.987 93.3928 97.169 93.9836 94.799 94.5356C94.799 94.5356 86.7086 96.6128 84.5202 97.4696C84.5202 97.4696 84.0398 97.9952 84.397 90.4328C84.4098 90.2512 84.5982 88.1088 84.7218 86.7848C87.241 86.1292 90.3386 85.3892 93.3318 84.8568C94.8621 84.5888 96.3993 84.3615 97.9418 84.1752C98.799 84.4024 99.6302 84.6296 100.403 84.8568C100.487 85.376 104.493 94.1396 115.369 93.9772C122.57 93.8668 130.304 87.46 130.31 78.476V78.45C131.746 78.2944 139.03 77.5348 145.069 77.58C151.719 77.6256 157.069 78.4304 158.751 78.742C158.751 78.742 160.653 83.3964 161.633 88.6152ZM164.626 89.8032C167.341 89.1932 168.562 88.6348 168.562 88.6348C168.562 88.6348 167.906 93.6008 162.653 93.9708C157.407 94.3472 156.705 93.0816 152.764 92.5688C152.764 92.5688 153.939 91.8612 156.049 91.4456C156.049 91.4456 152.387 90.9264 149.621 91.6272C146.861 92.3348 145.731 93.5032 145.731 93.5032C145.731 93.5032 145.407 90.6924 146.809 89.7576C148.219 88.8164 153.14 89.1928 154.776 89.3812C156.42 89.5696 161.906 90.4132 164.626 89.8032ZM166.179 104.266C166.919 104.836 167.659 104.954 168.113 105.292C168.568 105.635 168.568 106.661 168.341 107.512C168.113 108.362 167.483 108.478 166.802 108.31C166.165 108.147 162.84 107.7 159.224 108.362C159.029 107.693 158.698 106.168 159.419 105.408C160.354 104.434 162.153 104.519 162.867 104.655C162.698 104.577 161.309 103.954 160.074 103.954C158.763 103.954 157.685 104.85 157.309 105.831C157.029 106.564 157.27 108.07 157.413 108.797C153.484 109.952 147.855 113.023 143.238 118.949C138.231 125.376 137.102 133.398 137.102 133.398C137.102 133.398 131.816 134.438 129.083 130.38C125.415 124.934 126.796 118.547 126.796 118.547C126.796 118.547 124.622 119.573 122.907 119.124C122.303 118.969 121.874 118.573 121.57 118.099C124.433 115.561 127.472 113.178 130.491 109.726C132.049 110.069 133.452 110.446 134.219 110.686C135.907 111.198 137.667 112.626 138.141 114.172C138.608 115.716 138.842 120.968 138.842 120.968C139.789 117.313 139.939 115.476 140.03 114.438C140.127 113.412 140.017 110.802 138.043 108.998C136.971 108.024 133.953 107.122 132.751 106.459C137.329 100.157 138.589 90.4976 138.589 90.4976C138.582 90.4068 138.582 90.316 138.582 90.2248C139.05 90.1728 139.354 90.1276 139.368 90.0756C140.212 90.03 143.205 89.66 144.037 89.6472C144.037 89.6472 142.784 93.3408 143.868 96.0736C143.868 96.0736 146.653 94.1976 150.64 94.4832C154.621 94.7688 160.996 96.7032 163.731 95.6192C163.731 95.6192 164.925 98.352 164.867 100.345C164.815 102.331 165.438 103.7 166.179 104.266ZM173.171 129.881C172.912 128.29 171.315 126.869 170.516 126.693C169.717 126.518 167.678 125.986 167.678 125.986C169.185 121.735 169.185 119.073 169.185 119.073C170.516 118.364 173.171 117.301 173.171 117.301C172.288 112.601 169.093 108.966 169.093 108.966C169.36 107.992 169.982 106.311 169.982 105.688C169.982 105.064 168.827 104.006 167.587 103.208C166.347 102.41 166.171 100.994 166.171 99.3068C166.171 97.6256 165.464 95.4964 165.197 95.4056C164.931 95.3212 168.359 94.2372 169.425 91.2188C170.489 88.2068 170.515 85.7596 170.515 85.7596C169.1 87.824 163.555 88.6744 163.555 88.6744C163.113 83.9748 159.341 68.8172 144.094 55.0816C128.848 41.346 102.869 38.8596 102.869 38.8596C102.907 39.6256 102.81 40.5344 102.583 41.534C102.369 42.8256 101.992 44.3512 101.336 45.5848C101.297 45.6564 101.245 45.7472 101.193 45.8316C97.609 43.8908 93.843 41.2812 92.1158 38.2304C88.7718 32.3232 89.1874 27.2404 87.4146 23.0732C84.5122 16.2508 80.3238 12.5444 79.0774 11.46C78.363 10.8368 78.123 10.6292 77.7526 10.9276C77.389 11.2196 77.6294 11.6416 77.9278 12.0832C78.207 12.4988 80.8174 17.5296 81.7914 24.3584C82.7654 31.1808 81.4734 41.95 84.6678 48.8632C86.6546 53.1668 89.9402 56.5748 92.1414 58.5352C92.2194 58.6 92.2974 58.6716 92.3686 58.7364L93.083 59.444C88.5246 59.8724 84.2846 59.71 79.7782 57.1784C72.5318 53.5304 66.9734 45.046 65.9542 36.0684L65.831 34.9908C65.5454 32.5304 65.6622 30.0704 65.5518 27.6036C65.4537 25.3634 65.2086 23.1321 64.8182 20.924C64.6494 19.9524 64.448 18.9868 64.2142 18.0288L64.2078 17.9964C64.1106 17.412 63.9414 16.8344 63.7726 16.2632C63.6622 15.8868 63.539 15.5104 63.4154 15.1272C63.1308 14.2843 62.7517 13.4764 62.2854 12.7188C61.7138 11.7972 61.0842 10.9012 60.3506 10.1028C59.9154 9.6288 59.4482 9.1812 58.9222 8.8112C58.9222 8.8112 58.4354 8.506 58.1042 8.6812C58.1042 8.6812 57.669 8.9864 58.1302 9.934C58.1302 9.934 58.247 10.1224 58.3834 10.4468C58.5777 10.9049 58.7172 11.3844 58.799 11.8752C59.1626 13.8228 59.4222 18.016 57.8834 26.02L57.8706 26.046C57.7342 27.208 57.585 28.37 57.3838 29.5252C56.7474 33.2708 56.1306 37.5224 56.0266 41.9368C56.0266 42.1316 56.0526 42.7028 56.0462 42.8196C56.0006 46.7468 56.7538 72.4916 83.3826 80.5992C83.2594 81.1508 83.1422 81.6832 83.0578 82.196C81.259 93.5492 81.9214 98.3336 81.9214 98.3336L81.9342 98.4504C76.4862 100.502 70.3242 103.267 63.831 106.98C56.565 110.959 48.6822 116.373 40.9682 123.76C39.5719 125.103 38.2079 126.48 36.8774 127.888C36.5658 128.213 36.2542 128.544 35.9422 128.876L35.8838 128.94C31.8126 133.322 28.7414 137.359 26.5142 140.644C38.5462 131.959 57.3442 129.356 63.0906 129.017C69.1162 128.667 75.2198 127.636 75.2198 127.636C75.2198 127.636 77.603 128.908 80.447 129.531C83.6742 130.245 87.0506 129.219 87.0506 129.219C88.265 135.464 92.6542 139.476 93.8034 140.377C93.5046 142.254 93.8098 148.446 95.9202 151.887C98.193 155.594 101.946 158.093 101.946 158.093C101.946 158.093 101.686 161.449 102.569 163.851C103.452 166.252 105.504 168.44 105.504 168.44C105.504 168.44 104.569 170.011 104.445 171.984C104.322 173.958 105.504 175.054 105.504 175.054C105.504 175.054 104.433 176.431 104.251 177.502C104.075 178.58 104.737 180.195 104.737 180.195C104.737 180.195 104.088 181.377 103.9 182.286C103.705 183.201 104.251 184.325 104.251 184.325C103.815 185.174 102.524 189.167 104.426 190.77C106.322 192.373 108.685 189.381 108.685 189.381C109.413 189.166 110.782 188.264 111.431 187.252C112.231 186.012 112.231 184.856 112.231 184.856C112.231 184.856 113.25 184.194 114.133 182.506C114.861 181.137 114.757 180.234 114.757 180.234C114.757 180.234 118.88 175.905 119.737 170.497C120.47 165.888 119.386 161.636 119.386 161.636C119.386 161.636 122.484 156.924 122.341 151.536C124.451 150.062 129.542 146.758 135.879 144.292C136.061 147.927 136.633 151.075 135.496 156.918C134.074 164.188 127.601 169.505 127.601 169.505C136.645 168.531 142.678 160.552 145.067 154.789C147.022 150.088 148.801 143.441 149.626 140.429C158.449 138.716 166.508 138.261 169.183 137.859C172.729 137.326 173.618 136.534 173.703 135.204C173.793 133.873 173.436 131.478 173.169 129.881H173.171ZM157.711 96.3272C157.711 96.3272 155.51 95.4832 152.653 95.9508C149.789 96.418 148.666 96.9828 146.744 97.2168L146.725 97.2492C148.329 97.7748 150.952 97.736 152.51 98.0088C153.263 98.1452 154.037 98.5672 154.653 98.976L153.848 102.572C152.056 103.527 149.153 105.345 146.932 108.104C146.758 108.318 146.597 108.543 146.452 108.778C146.379 108.877 146.314 108.981 146.257 109.09C146.172 109.226 146.095 109.362 146.023 109.498C145.933 109.661 145.847 109.83 145.764 110.005C145.679 110.174 145.601 110.342 145.53 110.511C145.238 111.173 144.984 111.852 144.771 112.544L144.706 112.751C144.593 113.125 144.488 113.501 144.394 113.88L144.368 113.984L144.349 114.062L144.323 114.185L144.316 114.218C144.355 114.153 144.557 113.789 144.895 113.264L145.141 112.887C145.79 111.914 146.777 110.563 147.953 109.408C148.114 109.245 148.281 109.087 148.453 108.934C148.788 108.632 149.142 108.35 149.511 108.09C152.148 106.26 153.543 105.552 154.341 104.806C154.485 104.656 154.602 104.494 154.706 104.332C155.401 103.487 155.712 100.469 155.771 99.8268V99.8072L155.784 99.6968C155.79 99.5864 155.791 99.4956 155.791 99.4372V99.3724C155.745 98.9504 154.901 97.73 154.433 97.172C154.433 97.172 155.79 96.4192 157.712 96.328L157.711 96.3272ZM157.711 96.3272C157.711 96.3272 155.51 95.4832 152.653 95.9508C149.789 96.418 148.666 96.9828 146.744 97.2168L146.725 97.2492C148.329 97.7748 150.952 97.736 152.51 98.0088C153.263 98.1452 154.037 98.5672 154.653 98.976L153.848 102.572C152.056 103.527 149.153 105.345 146.932 108.104C146.758 108.318 146.597 108.543 146.452 108.778C146.379 108.877 146.314 108.981 146.257 109.09C146.172 109.226 146.095 109.362 146.023 109.498C145.933 109.661 145.847 109.83 145.764 110.005C145.679 110.174 145.601 110.342 145.53 110.511C145.238 111.173 144.984 111.852 144.771 112.544L144.706 112.751C144.593 113.125 144.488 113.501 144.394 113.88L144.368 113.984L144.349 114.062L144.323 114.185L144.316 114.218C144.355 114.153 144.557 113.789 144.895 113.264L145.141 112.887C145.79 111.914 146.777 110.563 147.953 109.408C148.114 109.245 148.281 109.087 148.453 108.934C148.788 108.632 149.142 108.35 149.511 108.09C152.148 106.26 153.543 105.552 154.341 104.806C154.485 104.656 154.602 104.494 154.706 104.332C155.401 103.487 155.712 100.469 155.771 99.8268V99.8072L155.784 99.6968C155.79 99.5864 155.791 99.4956 155.791 99.4372V99.3724C155.745 98.9504 154.901 97.73 154.433 97.172C154.433 97.172 155.79 96.4192 157.712 96.328L157.711 96.3272ZM157.711 96.3272C157.711 96.3272 155.51 95.4832 152.653 95.9508C149.789 96.418 148.666 96.9828 146.744 97.2168L146.725 97.2492C148.329 97.7748 150.952 97.736 152.51 98.0088C153.263 98.1452 154.037 98.5672 154.653 98.976L153.848 102.572C152.056 103.527 149.153 105.345 146.932 108.104C146.758 108.318 146.597 108.543 146.452 108.778C146.379 108.877 146.314 108.981 146.257 109.09C146.172 109.226 146.095 109.362 146.023 109.498C145.933 109.661 145.847 109.83 145.764 110.005C145.679 110.174 145.601 110.342 145.53 110.511C145.238 111.173 144.984 111.852 144.771 112.544L144.706 112.751C144.593 113.125 144.488 113.501 144.394 113.88L144.368 113.984L144.349 114.062L144.323 114.185L144.316 114.218C144.355 114.153 144.557 113.789 144.895 113.264L145.141 112.887C145.79 111.914 146.777 110.563 147.953 109.408C148.114 109.245 148.281 109.087 148.453 108.934C148.788 108.632 149.142 108.35 149.511 108.09C152.148 106.26 153.543 105.552 154.341 104.806C154.485 104.656 154.602 104.494 154.706 104.332C155.401 103.487 155.712 100.469 155.771 99.8268V99.8072L155.784 99.6968C155.79 99.5864 155.791 99.4956 155.791 99.4372V99.3724C155.745 98.9504 154.901 97.73 154.433 97.172C154.433 97.172 155.79 96.4192 157.712 96.328L157.711 96.3272ZM157.711 96.3272C157.711 96.3272 155.51 95.4832 152.653 95.9508C149.789 96.418 148.666 96.9828 146.744 97.2168L146.725 97.2492C148.329 97.7748 150.952 97.736 152.51 98.0088C153.263 98.1452 154.037 98.5672 154.653 98.976L153.848 102.572C152.056 103.527 149.153 105.345 146.932 108.104C146.758 108.318 146.597 108.543 146.452 108.778C146.379 108.877 146.314 108.981 146.257 109.09C146.172 109.226 146.095 109.362 146.023 109.498C145.933 109.661 145.847 109.83 145.764 110.005C145.679 110.174 145.601 110.342 145.53 110.511C145.238 111.173 144.984 111.852 144.771 112.544L144.706 112.751C144.593 113.125 144.488 113.501 144.394 113.88L144.368 113.984L144.349 114.062L144.323 114.185L144.316 114.218C144.355 114.153 144.557 113.789 144.895 113.264L145.141 112.887C145.79 111.914 146.777 110.563 147.953 109.408C148.114 109.245 148.281 109.087 148.453 108.934C148.788 108.632 149.142 108.35 149.511 108.09C152.148 106.26 153.543 105.552 154.341 104.806C154.485 104.656 154.602 104.494 154.706 104.332C155.401 103.487 155.712 100.469 155.771 99.8268V99.8072L155.784 99.6968C155.79 99.5864 155.791 99.4956 155.791 99.4372V99.3724C155.745 98.9504 154.901 97.73 154.433 97.172C154.433 97.172 155.79 96.4192 157.712 96.328L157.711 96.3272ZM157.711 96.3272C157.711 96.3272 155.51 95.4832 152.653 95.9508C149.789 96.418 148.666 96.9828 146.744 97.2168L146.725 97.2492C148.329 97.7748 150.952 97.736 152.51 98.0088C153.263 98.1452 154.037 98.5672 154.653 98.976L153.848 102.572C152.056 103.527 149.153 105.345 146.932 108.104C146.758 108.318 146.597 108.543 146.452 108.778C146.379 108.877 146.314 108.981 146.257 109.09C146.172 109.226 146.095 109.362 146.023 109.498C145.933 109.661 145.847 109.83 145.764 110.005C145.679 110.174 145.601 110.342 145.53 110.511C145.238 111.173 144.984 111.852 144.771 112.544L144.706 112.751C144.593 113.125 144.488 113.501 144.394 113.88L144.368 113.984L144.349 114.062L144.323 114.185L144.316 114.218C144.355 114.153 144.557 113.789 144.895 113.264L145.141 112.887C145.79 111.914 146.777 110.563 147.953 109.408C148.114 109.245 148.281 109.087 148.453 108.934C148.788 108.632 149.142 108.35 149.511 108.09C152.148 106.26 153.543 105.552 154.341 104.806C154.485 104.656 154.602 104.494 154.706 104.332C155.401 103.487 155.712 100.469 155.771 99.8268V99.8072L155.784 99.6968C155.79 99.5864 155.791 99.4956 155.791 99.4372V99.3724C155.745 98.9504 154.901 97.73 154.433 97.172C154.433 97.172 155.79 96.4192 157.712 96.328L157.711 96.3272ZM157.711 96.3272C157.711 96.3272 155.51 95.4832 152.653 95.9508C149.789 96.418 148.666 96.9828 146.744 97.2168L146.725 97.2492C148.329 97.7748 150.952 97.736 152.51 98.0088C153.263 98.1452 154.037 98.5672 154.653 98.976L153.848 102.572C152.056 103.527 149.153 105.345 146.932 108.104C146.758 108.318 146.597 108.543 146.452 108.778C146.379 108.877 146.314 108.981 146.257 109.09C146.172 109.226 146.095 109.362 146.023 109.498C145.933 109.661 145.847 109.83 145.764 110.005C145.679 110.174 145.601 110.342 145.53 110.511C145.238 111.173 144.984 111.852 144.771 112.544L144.706 112.751C144.593 113.125 144.488 113.501 144.394 113.88L144.368 113.984L144.349 114.062L144.323 114.185L144.316 114.218C144.355 114.153 144.557 113.789 144.895 113.264L145.141 112.887C145.79 111.914 146.777 110.563 147.953 109.408C148.114 109.245 148.281 109.087 148.453 108.934C148.788 108.632 149.142 108.35 149.511 108.09C152.148 106.26 153.543 105.552 154.341 104.806C154.485 104.656 154.602 104.494 154.706 104.332C155.401 103.487 155.712 100.469 155.771 99.8268V99.8072L155.784 99.6968C155.79 99.5864 155.791 99.4956 155.791 99.4372V99.3724C155.745 98.9504 154.901 97.73 154.433 97.172C154.433 97.172 155.79 96.4192 157.712 96.328L157.711 96.3272Z" fill="black"/>
<path d="M173.705 135.204C173.62 136.534 172.731 137.326 169.186 137.859C166.51 138.261 158.452 138.715 149.628 140.429C148.803 143.441 147.024 150.088 145.07 154.788C142.68 160.552 136.647 168.53 127.603 169.504C127.603 169.504 134.076 164.187 135.498 156.917C136.635 151.075 136.063 147.927 135.882 144.292C129.544 146.758 124.454 150.062 122.343 151.536C122.486 156.924 119.388 161.636 119.388 161.636C119.388 161.636 120.472 165.888 119.739 170.497C118.882 175.904 114.759 180.234 114.759 180.234C114.759 180.234 114.863 181.136 114.135 182.506C113.252 184.193 112.233 184.856 112.233 184.856C112.233 184.856 112.233 186.012 111.434 187.251C110.784 188.264 109.415 189.166 108.688 189.38C108.688 189.38 106.324 192.373 104.428 190.77C102.526 189.166 103.818 185.174 104.253 184.324C104.253 184.324 103.707 183.201 103.902 182.286C104.09 181.377 104.74 180.195 104.74 180.195C104.74 180.195 104.077 178.579 104.253 177.502C104.435 176.43 105.506 175.054 105.506 175.054C105.506 175.054 104.324 173.957 104.448 171.984C104.571 170.011 105.506 168.44 105.506 168.44C105.506 168.44 103.454 166.252 102.571 163.85C101.688 161.449 101.948 158.092 101.948 158.092C101.948 158.092 98.1947 155.593 95.9223 151.887C93.8119 148.446 93.5067 142.254 93.8055 140.377C92.6563 139.475 88.2667 135.464 87.0527 129.219C87.0527 129.219 83.6763 130.244 80.4491 129.53C77.6051 128.907 75.2219 127.636 75.2219 127.636C75.2219 127.636 69.1183 128.667 63.0927 129.017C57.3463 129.355 38.5483 131.959 26.5163 140.644C28.7435 137.359 31.8147 133.321 35.8859 128.94L35.9443 128.875C36.2559 128.544 36.5675 128.212 36.8795 127.888C38.21 126.479 39.574 125.103 40.9703 123.76C48.6843 116.372 56.5671 110.959 63.8331 106.98C70.3263 103.266 76.4883 100.501 81.9363 98.4499L81.9235 98.3331C81.9235 98.3331 81.2611 93.5491 83.0599 82.1955C83.1443 81.6827 83.2611 81.1503 83.3847 80.5987C56.7559 72.4911 56.0027 46.7463 56.0483 42.8191C56.0547 42.7023 56.0287 42.1311 56.0287 41.9363C56.1327 37.5223 56.7495 33.2703 57.3859 29.5247C57.5871 28.3691 57.7367 27.2071 57.8727 26.0455L57.8855 26.0195C59.4243 18.0155 59.1647 13.8223 58.8011 11.8747C58.7592 11.618 58.7007 11.3643 58.6259 11.1151C58.5583 10.8879 58.478 10.6646 58.3855 10.4463C58.3134 10.2696 58.2287 10.0983 58.1323 9.93354C57.6711 8.98594 58.1063 8.68074 58.1063 8.68074C58.4375 8.50554 58.9243 8.81074 58.9243 8.81074C59.4503 9.18074 59.9179 9.62874 60.3527 10.1023C61.0863 10.9007 61.7163 11.7967 62.2875 12.7183C62.7538 13.476 63.1329 14.2839 63.4175 15.1267C63.5407 15.5095 63.6643 15.8863 63.7747 16.2627C63.9435 16.8339 64.1123 17.4115 64.2099 17.9959L64.2163 18.0283C64.4499 18.9864 64.6514 19.952 64.8203 20.9235C65.2099 23.1307 65.4567 25.3635 65.5539 27.6031C65.6643 30.0699 65.5475 32.5299 65.8331 34.9903L65.9563 36.0679C66.9759 45.0455 72.5339 53.5295 79.7803 57.1779C84.2867 59.7095 88.5267 59.8719 93.0851 59.4435L92.3707 58.7359C92.2991 58.6711 92.2215 58.5995 92.1435 58.5347C89.9423 56.5743 86.6567 53.1663 84.6699 48.8627C81.4751 41.9495 82.7675 31.1803 81.7935 24.3579C80.8195 17.5291 78.2091 12.4983 77.9299 12.0827C77.6311 11.6411 77.3911 11.2195 77.7547 10.9271C78.1247 10.6283 78.3651 10.8363 79.0795 11.4595C80.3263 12.5435 84.5143 16.2503 87.4167 23.0727C89.1895 27.2403 88.7739 32.3227 92.1179 38.2299C93.8451 41.2807 97.6111 43.8903 101.196 45.8311C101.248 45.7467 101.3 45.6559 101.338 45.5843C101.994 44.3511 102.371 42.8255 102.585 41.5335C102.812 40.5339 102.91 39.6251 102.871 38.8591C102.871 38.8591 128.85 41.3451 144.096 55.0811C159.343 68.8167 163.115 83.9739 163.557 88.6739C163.557 88.6739 169.102 87.8235 170.518 85.7591C170.518 85.7591 170.492 88.2063 169.427 91.2183C168.361 94.2367 164.934 95.3207 165.2 95.4051C165.466 95.4959 166.174 97.6251 166.174 99.3063C166.174 100.994 166.349 102.409 167.589 103.208C168.83 104.006 169.984 105.064 169.984 105.687C169.984 106.31 169.362 107.992 169.096 108.965C169.096 108.965 172.29 112.6 173.173 117.301C173.173 117.301 170.518 118.364 169.187 119.072C169.187 119.072 169.187 121.734 167.68 125.986C167.68 125.986 169.719 126.518 170.518 126.692C171.317 126.868 172.914 128.29 173.173 129.88C173.44 131.477 173.797 133.872 173.706 135.204H173.705ZM175.406 129.569C174.997 127.096 172.757 124.934 171.01 124.544C170.887 124.518 170.724 124.486 170.549 124.441C171.004 122.805 171.224 121.499 171.334 120.585C172.342 120.124 173.518 119.644 174.023 119.442L175.744 118.748L175.4 116.93C174.692 113.178 172.725 110.075 171.601 108.543C172.005 107.264 172.244 106.434 172.244 105.727C172.244 104.285 171.089 102.812 168.816 101.351C168.634 101.235 168.426 100.903 168.426 99.3383C168.426 99.3123 168.4 97.8451 168.017 96.3523C169.251 95.5151 170.796 94.1387 171.556 91.9967C172.143 90.3237 172.531 88.5872 172.712 86.8231C172.77 86.2195 172.685 84.7719 172.685 84.7719L172.452 81.9807C172.452 81.9807 171.049 83.0971 170.27 83.6943C170.062 83.8499 169.906 83.9671 169.821 84.0187C169.709 84.1026 169.592 84.1806 169.471 84.2523C168.899 84.5963 168.264 84.8691 167.991 85.0119C167.38 85.3431 166.452 85.6935 165.432 85.9791C163.965 78.3907 158.589 65.1159 145.589 53.4055C129.954 39.3191 104.129 36.7099 103.039 36.5995L100.617 36.3723C100.617 36.3723 100.565 40.0011 100.337 41.0331L100.312 41.1499C100.234 41.626 100.134 42.0982 100.013 42.5651C97.0719 40.7279 95.0199 38.8651 94.0267 37.1059C92.1891 33.8603 91.5919 30.8807 91.0203 28.0051C90.6179 25.9667 90.2283 24.0323 89.4359 22.1627C87.3451 17.2551 84.3387 13.0683 80.5011 9.72514C79.8063 9.12794 79.0987 8.50474 78.0079 8.50474C77.5727 8.50474 76.9235 8.61514 76.2679 9.14074C75.8003 9.52354 74.3979 10.9387 75.9627 13.2563C75.9887 13.2951 78.5407 17.9627 79.4951 24.6487C79.8131 26.8491 79.8783 29.5627 79.9495 32.4319C80.0923 38.2415 80.2611 44.8175 82.5599 49.8027C83.5727 51.9903 84.8779 53.9571 86.2415 55.6643C86.3779 55.8331 86.8975 56.3783 86.9883 56.4887C87.2219 56.7615 87.4623 57.0339 87.6959 57.2935C85.1831 57.0791 83.0271 56.4171 80.8847 55.2163L80.7939 55.1643C74.1967 51.8407 69.1319 44.0639 68.1971 35.8071L68.0739 34.7295C67.8987 33.2691 67.8855 31.7891 67.8663 30.2247C67.8627 29.3157 67.8432 28.4067 67.8079 27.4983C67.7035 25.1625 67.4475 22.8358 67.0415 20.5331C66.8695 19.5557 66.6681 18.5837 66.4375 17.6183L66.4179 17.5467C66.2947 16.8391 66.0999 16.1707 65.9375 15.6319C65.8196 15.2242 65.6919 14.8194 65.5543 14.4179C65.2197 13.4083 64.7687 12.4412 64.2103 11.5359C63.4699 10.3351 62.7687 9.39394 62.0091 8.56954C61.4119 7.92034 60.8275 7.39474 60.2299 6.97274L60.1391 6.91434C59.8859 6.74554 59.1975 6.36914 58.3403 6.36914C57.8859 6.36914 57.4507 6.47314 57.0547 6.68074L56.8015 6.83634C55.8079 7.53754 55.2107 9.07594 56.1067 10.9195L56.1911 11.0751C56.2107 11.1075 56.2559 11.1983 56.3143 11.3283C56.3663 11.4515 56.4183 11.6011 56.4703 11.7631C56.5159 11.9059 56.5483 12.0683 56.5871 12.2887C56.8859 13.8919 57.1651 17.7155 55.7107 25.3883L55.6327 25.7843C55.4703 27.1475 55.3275 28.1795 55.1651 29.1403C54.5419 32.8143 53.8859 37.1959 53.7755 41.8827C53.7755 42.0255 53.7819 42.3243 53.7883 42.5707L53.7947 42.7915C53.7623 45.8943 54.2363 72.7879 80.7871 82.1159L80.8067 82.1223L80.7223 82.1547C79.5147 89.8859 79.4303 94.6507 79.5079 96.9743C73.7071 99.2514 68.08 101.948 62.6711 105.043C54.2039 109.678 46.3471 115.449 39.3151 122.187C37.8954 123.552 36.5077 124.95 35.1531 126.38C34.8283 126.718 34.5103 127.056 34.2311 127.361L34.1403 127.458C30.6599 131.204 27.5171 135.111 24.7967 139.071C24.7123 139.194 24.4655 139.59 24.3683 139.824C24.0567 140.537 23.7255 141.908 24.3747 142.628C24.7643 143.063 25.5303 143.433 26.9783 142.817C27.1341 142.765 27.286 142.702 27.4327 142.628C27.7119 142.473 28.1275 142.213 28.2639 142.108C37.0559 135.384 57.2495 131.67 63.1455 131.327C68.0867 131.035 72.9891 130.314 74.8075 130.028C75.7943 130.496 77.7231 131.308 79.8983 131.788C80.8203 131.989 81.8139 132.093 82.8591 132.093C83.7683 132.093 84.6187 132.016 85.3459 131.911C86.8523 136.669 89.8523 139.934 91.4107 141.395C91.3135 144.264 91.8003 149.646 93.9495 153.138C95.7027 156.001 98.2091 158.188 99.6051 159.28C99.6051 160.649 99.7219 162.85 100.41 164.712C101.021 166.381 102.053 167.893 102.819 168.886C102.52 169.685 102.222 170.744 102.15 171.931C102.066 173.267 102.378 174.346 102.767 175.15C102.43 175.76 102.111 176.494 101.988 177.228C101.819 178.234 102.027 179.331 102.261 180.135C102.027 180.649 101.78 181.304 101.643 181.928C101.462 182.824 101.611 183.719 101.799 184.388C101.105 186.407 100.345 190.425 102.923 192.6C103.702 193.255 104.638 193.6 105.624 193.6C107.605 193.6 109.214 192.191 109.988 191.373C111.137 190.834 112.513 189.783 113.294 188.575C113.78 187.821 114.125 186.986 114.312 186.109C114.832 185.589 115.494 184.797 116.091 183.661C116.598 182.701 116.825 181.876 116.922 181.253C118.046 179.909 120.533 176.612 121.61 172.502L121.864 171.366C121.89 171.231 121.916 171.087 121.935 170.938C122.526 167.211 122.046 163.733 121.741 162.11C122.617 160.539 124.338 156.962 124.546 152.814C126.448 151.548 129.766 149.504 133.818 147.666C133.974 150.146 134.02 152.697 133.266 156.566C132.338 161.292 128.89 165.2 127.156 166.913C126.553 167.504 125.066 169.192 125.066 169.192C125.066 169.192 124.495 169.672 124.605 170.652C124.611 170.71 124.657 170.879 124.702 171.002C124.722 171.047 124.825 171.197 124.871 171.236C125.696 172.034 127.962 171.742 127.962 171.742C137.721 170.697 144.33 162.499 147.142 155.728C148.896 151.509 150.48 145.881 151.421 142.447C157.077 141.422 162.31 140.909 165.862 140.559C167.447 140.402 168.7 140.279 169.524 140.149C171.687 139.831 175.712 139.228 175.966 135.41C176.05 134.196 175.868 132.341 175.407 129.568L175.406 129.569Z" fill="#FFFFFE"/>
</g>
<defs>
<clipPath id="clip0_17_1017">
<rect width="200" height="200" fill="white"/>
</clipPath>
</defs>
</svg>
