<svg width="200" height="200" viewBox="0 0 200 200" fill="none" xmlns="http://www.w3.org/2000/svg">
<g clip-path="url(#clip0_17_959)">
<path d="M193.388 64.8737C169.296 70.5545 168.244 56.6237 132.012 54.0693C83.2419 50.6305 42.2594 71.8453 9.50825 74.5637C2.39305 75.1545 3.31585 81.0669 8.42905 82.0705C20.7731 84.9469 33.5106 84.5813 45.169 83.0205C44.7775 83.9585 44.3843 85.4037 45.6867 86.5113C50.3039 90.4301 68.8654 90.7657 77.0142 90.2973C79.781 90.1397 85.6874 89.5825 85.6874 89.5825C84.003 89.7421 81.371 94.8673 86.9362 96.3105C121.33 105.925 137.511 121.45 156.088 145.902C163.637 144.939 170.745 135.87 167.715 128.947L169.221 125.231L174.781 122.66L173.187 110.26L181.664 106.274C181.664 106.274 194.865 70.8497 195.638 68.2701C196.411 65.6905 194.811 64.5377 193.387 64.8733" fill="#FFFFFE"/>
<path d="M97.9543 69.7503C74.1079 71.1567 45.4967 84.6127 9.06592 78.6147C41.3551 74.2631 65.9711 63.5995 95.9959 59.3535L97.9539 69.7503H97.9543ZM100.524 83.6627C87.3347 85.2151 72.0323 88.8971 49.9559 84.7435C68.9847 84.2267 83.2267 77.8679 98.9039 74.7431L100.524 83.6631V83.6627Z" fill="#C60C30"/>
<path d="M101.933 83.5151C111.599 82.4779 120.125 82.8067 129.418 88.4643C110.036 86.3647 100.546 91.7703 88.4658 92.9719C131.144 104.154 146.769 128.049 157.352 141.29C164.75 138.151 165.15 131.734 163.265 129.443L165.17 125.367L165.257 122.749L170.357 120.367L168.743 107.681L178.292 103.776L190.944 69.1979C169.508 73.6387 162.563 59.7983 132.065 57.9103C119.642 57.1399 108.455 57.7107 97.951 59.0867L99.6638 69.6715C106.683 69.4299 113.291 70.3211 119.56 73.1691C112.667 72.7427 106.465 73.3135 100.414 74.4343L101.933 83.5151Z" fill="#002244"/>
<path d="M134.857 112.693C146.393 120.759 152.318 129.695 158.331 137.517C161.388 136.249 162.348 132.706 161.341 131.454L158.43 127.876L161.741 128.071L163.261 125.434L159.144 125.191L154.507 126.027L159.21 122.811L162.79 123.021L162.923 120.985L159.265 119.236L160.523 117.863L167.288 118.285L165.343 103.241C162.669 102.915 160.42 104.315 159.449 108.177L147.456 107.472C149.143 103.652 151.772 101.934 156.761 102.568C153.962 98.6546 140.324 98.2922 138.398 104.433L148.985 113.096L150.355 121.014L146.005 114.71C142.094 111.329 137.986 108.959 134.858 112.693" fill="#B0B7BC"/>
<path d="M170.344 73.8965L171.196 81.4521L179.714 84.6441L171.724 86.6429L172.512 96.8297L165.602 88.2221L155.27 90.6521L161.654 83.2277L156.389 76.2629L165.208 79.2853L170.344 73.8965Z" fill="#FFFFFE"/>
</g>
<defs>
<clipPath id="clip0_17_959">
<rect width="200" height="200" fill="white"/>
</clipPath>
</defs>
</svg>
