<svg width="200" height="200" viewBox="0 0 200 200" fill="none" xmlns="http://www.w3.org/2000/svg">
<path d="M190.367 94.8527C187.105 84.0355 172.987 71.1859 152.558 60.4503C134.478 50.9491 113.166 47.5879 100.292 47.5879H99.6755C86.7959 47.5879 65.4787 50.9491 47.3991 60.4503C26.9675 71.1863 12.8499 84.0355 9.58912 94.8531C9.30642 96.4253 9.17263 98.0206 9.18953 99.6179V99.6719C9.17193 101.269 9.30552 102.865 9.58752 104.437C12.8487 115.255 26.9671 128.103 47.3955 138.839C65.5811 148.395 87.0331 151.745 99.8915 151.701H100.278C113.158 151.701 134.477 148.34 152.556 138.839C172.985 128.104 187.103 115.254 190.365 104.437C190.647 102.864 190.78 101.268 190.762 99.6707V99.6183C190.78 98.0208 190.648 96.4252 190.366 94.8527H190.367Z" fill="#115740"/>
<path d="M128.311 81.5168L129.882 78.5384H130.668C131.171 78.5384 131.423 78.7312 131.423 79.1164C131.411 79.3365 131.344 79.5501 131.23 79.7388L130.284 81.5168H135.796L136.552 80.1372C136.755 79.8056 136.872 79.4288 136.894 79.0404C136.894 78.4776 136.459 78.058 135.59 77.7812C136.061 77.7148 136.523 77.5956 136.968 77.4256C137.36 77.2381 137.717 76.9823 138.02 76.67C138.325 76.3743 138.566 76.0193 138.729 75.6269C138.892 75.2344 138.972 74.8128 138.966 74.388C138.982 74.1428 138.947 73.897 138.866 73.6653C138.784 73.4336 138.656 73.2208 138.49 73.0396C138.056 72.6052 137.27 72.3876 136.134 72.3876H127.69L122.828 81.5168H128.311ZM131.868 74.7008H132.683C133.058 74.7008 133.245 74.8488 133.245 75.1452C133.237 75.3228 133.186 75.4956 133.096 75.6492L132.874 76.064C132.781 76.287 132.625 76.4784 132.426 76.6151C132.226 76.7517 131.992 76.8279 131.75 76.8344H130.698L131.868 74.7008H131.868ZM79.8524 81.5168L82.846 77.9752L82.0016 81.5168H87.484L95.6348 72.3896H90.6708L87.3808 76.6716L88.596 72.3896H83.408L80.2664 76.6424L81.3472 72.3896H76.0884L74.3696 81.5168H79.8528H79.8524ZM110.572 76.8484C110.186 77.5508 109.964 78.331 109.921 79.1312C109.919 79.5541 110.048 79.9672 110.289 80.3145C110.53 80.6618 110.873 80.9264 111.27 81.0724C112.218 81.5268 113.73 81.754 115.804 81.7536C118.719 81.7536 120.764 81.166 121.94 79.9904C122.738 79.1215 123.393 78.1313 123.881 77.0568C124.267 76.3551 124.49 75.5751 124.533 74.7752C124.536 74.3541 124.41 73.9423 124.171 73.5952C123.933 73.2481 123.594 72.9825 123.2 72.834C122.241 72.3796 120.725 72.1524 118.65 72.1524C115.736 72.1524 113.691 72.74 112.515 73.9156C111.715 74.7841 111.059 75.7743 110.57 76.8492L110.572 76.8484ZM115.61 77.9688L116.855 75.6416C117.017 75.3034 117.24 74.9985 117.514 74.7428C117.755 74.55 118.058 74.4508 118.366 74.4632C118.861 74.4632 119.108 74.6692 119.108 75.0816C119.088 75.3834 118.996 75.6762 118.841 75.9356L117.596 78.2628C117.439 78.5936 117.223 78.8931 116.959 79.1468C116.712 79.3464 116.402 79.4508 116.084 79.4412C115.591 79.4412 115.344 79.2352 115.343 78.8228C115.363 78.5212 115.454 78.2288 115.61 77.9696V77.9688ZM103.96 81.5168L105.473 78.6868L112.779 72.3896H107.664L104.863 75.2196L104.938 72.3896H99.3804L99.7808 78.524L98.1812 81.5172H103.96V81.5168ZM70.3952 81.5168L71.6252 79.2056H65.8752L66.5128 78.0496H71.6696L72.8552 75.812H67.6832L68.3056 74.7008H73.8628L75.0932 72.3896H64.2304L59.3692 81.5168H70.3948H70.3952ZM143.133 81.5168L145.282 77.4716L145.549 81.5168H150.973L150.395 76.8484L155.448 72.3888H150.336L145.786 76.5236L147.994 72.39H142.363L137.504 81.5172H143.134L143.133 81.5168ZM138.652 89.2452H106.919L103.534 95.5688H111.953L105.346 107.946C108.329 108.469 111.216 109.437 113.91 110.818C115.377 111.582 116.791 112.443 118.142 113.396L127.658 95.5688H135.27L138.652 89.2452ZM51.5484 77.2792L52.4672 81.5152H57.2388L62.1 72.388H57.6536L55.638 76.2996L54.7784 72.388H49.77L44.9092 81.5164H49.3552L51.5484 77.2788V77.2792ZM195.444 93.7728L195.382 93.5136C191.75 81.17 177.022 67.4444 154.972 55.8568C136.053 45.9168 113.756 42.4004 100.294 42.4004H99.6712C86.2036 42.4004 63.8988 45.9188 44.982 55.858C22.9336 67.4456 8.20317 81.1712 4.57237 93.5148L4.51117 93.772C4.15228 95.7086 3.98162 97.6753 4.00157 99.6448C3.98204 101.614 4.1527 103.581 4.51117 105.517L4.57237 105.774C8.20397 118.118 22.932 131.844 44.982 143.431C63.9004 153.373 86.2032 156.889 99.666 156.889H100.28C113.748 156.889 136.054 153.372 154.969 143.431C177.018 131.844 191.748 118.119 195.379 105.774L195.442 105.515C195.801 103.58 195.972 101.614 195.954 99.6452C195.973 97.676 195.802 95.7096 195.444 93.7732L195.444 93.7728ZM190.766 99.6708C190.784 101.269 190.651 102.864 190.369 104.437C187.107 115.254 172.989 128.104 152.56 138.839C134.48 148.34 113.161 151.702 100.282 151.702H99.892C87.0336 151.745 65.5816 148.396 47.396 138.84C26.9664 128.104 12.8488 115.255 9.58797 104.437C9.30572 102.865 9.1726 101.269 9.19037 99.6716V99.6176C9.17273 98.0203 9.30599 96.425 9.58837 94.8528C12.8488 84.0352 26.968 71.1864 47.3964 60.45C65.4788 50.9488 86.7948 47.5876 99.6756 47.5876H100.294C113.168 47.5876 134.48 50.9488 152.562 60.45C172.991 71.1852 187.109 84.0352 190.37 94.8524C190.652 96.425 190.786 98.0208 190.768 99.6184L190.766 99.6708ZM107.506 119.468L107.873 119.776C108.002 120.35 108.09 120.933 108.137 121.52C109.249 121.538 110.36 121.557 111.472 121.594C115.06 121.688 118.651 121.828 122.24 122.078L122.889 121.297L122.846 121.028C122.032 118.273 118.6 114.982 113.205 112.155C109.117 110.108 104.623 109.006 100.052 108.929H99.9088C95.3261 109.009 90.8204 110.121 86.7268 112.182C81.3384 115.021 77.9128 118.32 77.1048 121.076L77.0712 121.292L77.7248 122.078C81.3132 121.828 84.898 121.689 88.4848 121.594C89.726 121.553 90.9676 121.533 92.2092 121.514C92.2568 120.929 92.3447 120.349 92.4724 119.776L92.8392 119.469C93.1944 119.455 93.5492 119.442 93.904 119.431L94.1452 119.724C93.8204 121.588 93.8204 123.494 94.1452 125.358L93.904 125.65C93.5492 125.639 93.1944 125.626 92.8392 125.612L92.4724 125.305C92.3446 124.733 92.2566 124.152 92.2092 123.568C90.9676 123.548 89.726 123.528 88.4848 123.487C84.8964 123.393 81.3112 123.253 77.7248 123.003L77.1196 123.729C77.9512 126.477 81.3664 129.754 86.726 132.578C90.8196 134.639 95.3253 135.751 99.908 135.831H100.051C104.622 135.755 109.117 134.652 113.204 132.605C118.598 129.778 122.03 126.487 122.845 123.732L122.24 123.002C118.651 123.252 115.06 123.392 111.471 123.486C110.359 123.523 109.248 123.542 108.136 123.561C108.089 124.147 108 124.73 107.872 125.304L107.506 125.612C107.15 125.626 106.796 125.638 106.441 125.65L106.2 125.358C106.524 123.493 106.524 121.587 106.2 119.723L106.441 119.43L107.505 119.47L107.506 119.468V119.468ZM97.5796 125.426L97.3068 125.732C96.9516 125.726 96.5968 125.72 96.242 125.712L95.9064 125.4C95.6764 123.5 95.6764 121.58 95.9064 119.681L96.242 119.368C96.5972 119.361 96.952 119.354 97.3068 119.349L97.5796 119.654C97.4388 121.576 97.4383 123.506 97.578 125.428L97.5796 125.426ZM101.01 125.441L100.708 125.752H99.6428L99.34 125.441C99.2952 123.508 99.2952 121.574 99.34 119.64L99.6428 119.328H100.708L101.01 119.64C101.054 121.575 101.054 123.509 101.009 125.443L101.01 125.441ZM104.442 125.4L104.106 125.712C103.751 125.72 103.396 125.726 103.041 125.732L102.768 125.426C102.908 123.505 102.908 121.576 102.768 119.654L103.041 119.349C103.396 119.354 103.751 119.36 104.106 119.368L104.442 119.681C104.671 121.581 104.67 123.502 104.44 125.401L104.442 125.4ZM155.25 88.6008C146.066 88.6008 142.28 90.0512 139.542 92.7892C137.609 94.7204 136.562 97.0568 136.562 98.9496C136.562 101.769 138.051 102.776 143.288 104.104C148.884 105.514 149.972 105.795 149.972 107.004C149.972 108.332 148.724 109.096 146.588 109.096C144.657 109.096 143.731 108.491 143.731 107.526C143.733 106.809 143.912 106.104 144.252 105.473H131.811C131.234 106.58 130.929 107.809 130.924 109.057C130.924 112.883 134.146 114.696 145.26 114.696C154.642 114.696 158.43 113.122 160.967 110.589C162.98 108.575 164.026 106.2 164.026 103.866C164.026 101.004 162.136 99.8372 156.858 98.5888C151.58 97.3404 150.576 97.018 150.576 96.132C150.576 95.126 151.705 94.1988 153.92 94.1988C155.692 94.1988 156.698 94.844 156.698 95.73C156.691 96.3833 156.51 97.0228 156.173 97.5824H168.378C168.882 96.4854 169.129 95.2881 169.102 94.0812C169.102 90.2136 165.397 88.6012 155.249 88.6012L155.25 88.6008ZM72.3084 89.2452H57.004L48.7032 105.07C47.5752 107.162 46.7288 108.29 45.038 108.29C43.9112 108.29 43.4676 107.647 43.4676 106.761C43.5464 105.967 43.793 105.199 44.1912 104.508L47.4336 98.3092H34.382L32.7952 101.326C31.426 103.822 30.8604 105.473 30.8604 107.766C30.8604 112.276 35.0484 114.694 45.1176 114.694C52.3668 114.694 57.24 113.202 60.1784 110.263C62.1516 108.289 63.4008 106.196 65.374 102.493L72.3072 89.2456L72.3084 89.2452ZM77.1072 123.685L77.114 123.704L77.1024 123.652L77.1072 123.685ZM86.0236 110.847C88.797 109.419 91.7738 108.428 94.8492 107.907L94.9228 107.77H79.2956L81.0284 104.629H96.244L99.4656 98.548H84.2092L85.8992 95.5292H101.003L104.347 89.2472H74.8272L61.618 114.052H80.962C82.5548 112.842 84.2476 111.77 86.022 110.846L86.0236 110.847Z" fill="white"/>
</svg>
