<svg width="200" height="200" viewBox="0 0 200 200" fill="none" xmlns="http://www.w3.org/2000/svg">
<g clip-path="url(#clip0_17_1019)">
<path d="M158.863 80.9131C145.382 73.0755 132.113 74.8891 122.05 79.3747C121.606 76.0643 120.742 72.4307 119.301 68.1787C117.167 61.8547 114.828 55.8107 112.766 50.4767C110.056 43.4715 107.993 37.4691 106.862 33.4543L99.5272 8.30273L91.9128 33.4711C90.7496 37.4695 88.7416 43.5031 86.046 50.5151C83.9964 55.8527 81.6736 61.9031 79.5532 68.2271C78.1284 72.4855 77.2668 76.1227 76.8328 79.4379C66.758 74.9723 53.482 73.1851 40.0192 81.0523C29.0132 87.4923 23.12 98.6815 24.636 110.259C26.0196 120.792 33.218 129.067 43.4172 131.872L51.0136 133.958L52.8724 126.302C53.1392 125.262 55.8796 115.676 64.508 115.85C70.494 115.974 75.4628 121.267 77.948 124.69C77.1444 127.11 76.7172 130.012 77.1264 133.136L73.7464 128.627L67.6344 133.186C62.1304 137.287 54.1384 147.423 59.0772 159.387C61.2312 164.604 65.8616 168.158 72.1144 169.404C75.9384 170.165 80.2824 169.988 84.3084 169.102C85.8924 174.19 88.78 180.345 94.032 185.842L99.5724 191.634L105.094 185.828C110.336 180.318 113.206 174.154 114.785 169.064C118.812 169.935 123.153 170.104 126.977 169.333C133.226 168.076 137.847 164.509 139.991 159.287C144.904 147.31 136.882 137.192 131.373 133.104L125.249 128.564L121.881 133.078C122.285 129.953 121.848 127.056 121.039 124.63C123.518 121.206 128.473 115.9 134.458 115.764C143.088 115.57 145.846 125.149 146.135 126.243L148.009 133.897C147.997 133.839 155.587 131.735 155.587 131.735C165.784 128.91 172.958 120.614 174.317 110.074C175.806 98.5003 169.885 87.3227 158.864 80.9127" fill="black"/>
<path d="M96.999 34.5469C96.0694 38.9265 93.6738 45.1593 90.8986 52.3817C88.8658 57.6697 86.5646 63.6621 84.4818 69.8785C82.4838 75.8509 81.6686 80.3017 81.6686 84.4525C81.6686 85.7801 81.821 87.0781 81.9766 88.3829C74.2942 83.1049 59.1562 75.8889 42.6462 85.5433C33.4758 90.9093 28.5502 100.116 29.7894 109.579C30.893 117.997 36.6418 124.621 44.795 126.862L47.2138 127.525L47.8154 125.082C47.9662 124.484 51.5978 110.394 64.6118 110.655C75.0858 110.866 81.9318 121.054 83.781 124.185C82.9014 125.813 82.1706 128.058 82.1706 130.634C82.1706 133.395 83.1098 136.537 85.5074 139.686C84.5514 140.983 82.9858 142.572 81.1582 142.723C78.5522 142.937 75.9146 140.192 74.1614 137.848L72.6986 135.895L70.7418 137.355C66.739 140.341 60.1482 148.371 63.8778 157.403C65.3706 161.013 68.5682 163.398 73.1258 164.305C77.8378 165.24 83.7854 164.39 88.0102 162.464C88.8286 167.233 91.1466 175.304 97.7886 182.248L99.5614 184.103L101.329 182.245C107.955 175.281 110.254 167.203 111.061 162.431C115.293 164.347 121.249 165.186 125.961 164.234C130.51 163.317 133.701 160.922 135.182 157.312C138.885 148.273 132.285 140.256 128.275 137.281L126.317 135.827L124.857 137.786C123.107 140.13 120.475 142.885 117.867 142.674C116.041 142.525 114.472 140.942 113.513 139.651C115.894 136.507 116.827 133.377 116.827 130.622C116.827 128.031 116.089 125.778 115.201 124.145C117.044 121.013 123.87 110.801 134.339 110.567C147.351 110.276 151.019 124.359 151.169 124.959L151.777 127.393L154.195 126.73C162.34 124.471 168.074 117.837 169.158 109.415C170.377 99.9485 165.432 90.7501 156.25 85.4073C139.707 75.7829 124.575 83.0501 116.911 88.3481C117.053 87.0785 117.201 85.8185 117.201 84.5237C117.201 80.3281 116.391 75.8045 114.376 69.8385C112.28 63.6337 109.966 57.6513 107.923 52.3717C105.13 45.1541 102.721 38.9213 101.781 34.5417L99.3758 23.3125L96.9982 34.5465" fill="#FFFFFE"/>
<path d="M99.5718 180.555C108.941 170.708 109.053 158.289 109.053 158.289C113.199 162.423 129.308 165.188 132.919 156.383C136.881 146.715 126.819 139.246 126.819 139.246C117.067 152.325 110.525 139.524 110.525 139.524C117.95 131.495 112.379 124.255 112.379 124.255C112.864 122.802 121.1 108.417 134.286 108.121C149.484 107.778 153.545 124.371 153.545 124.371C169.481 119.952 172.559 97.7227 155.023 87.5231C132.769 74.5767 113.379 94.2995 113.379 94.2995C115.184 86.9179 115.697 81.4011 112.059 70.6215C107.127 56.0059 101.081 42.9467 99.3914 35.0547C97.7162 42.9483 91.6974 56.0291 86.8014 70.6547C83.1914 81.4443 83.7214 86.9611 85.5358 94.3359C85.5358 94.3359 66.1018 74.6611 43.8794 87.6571C26.3638 97.8999 29.495 120.117 45.4418 124.5C45.4418 124.5 49.463 107.899 64.6622 108.209C77.8518 108.471 86.1174 122.836 86.6062 124.286C86.6062 124.286 81.051 131.542 88.4966 139.552C88.4966 139.552 81.9806 152.374 72.2038 139.317C72.2038 139.317 62.1522 146.807 66.1398 156.465C69.7746 165.262 85.8738 162.459 90.009 158.315C90.009 158.315 90.1514 170.734 99.539 180.557" fill="black"/>
<path d="M139.435 86.8275C121.325 86.8459 106.475 107.424 106.475 107.424C107.12 104.057 114.862 88.9079 107.855 70.8011C100.849 52.6959 99.4191 45.4023 99.4191 45.4023L99.3859 45.6095V45.4071C99.3859 45.4071 97.9695 52.7023 91.0059 70.8275C84.0407 88.9507 91.8211 104.084 92.4703 107.444C92.4703 107.444 77.5723 86.9035 59.4623 86.9267C41.3551 86.9467 26.2787 107.566 43.0119 119.744C43.0119 119.744 47.9095 104.53 64.7871 104.498C77.1999 104.472 89.6355 117.794 90.1623 124.397C90.1623 124.397 84.4795 132.425 92.3807 139.143C92.3807 139.143 83.8451 157.109 72.0107 144.168C72.0107 144.168 62.9099 155.559 74.8107 158.318C84.2527 160.502 93.5523 150.92 93.5523 150.92C93.5523 150.92 92.5383 166.057 99.5315 174.331V174.256L99.5663 174.328C106.541 166.039 105.491 150.9 105.491 150.9C105.491 150.9 114.814 160.463 124.256 158.253C136.148 155.468 127.019 144.097 127.019 144.097C115.218 157.065 106.644 139.122 106.644 139.122C114.524 132.384 108.821 124.37 108.821 124.37C109.332 117.773 121.733 104.417 134.15 104.414C151.031 104.414 155.963 119.611 155.963 119.611C172.669 107.396 157.542 86.8043 139.435 86.8275Z" fill="#D3BC8D"/>
</g>
<defs>
<clipPath id="clip0_17_1019">
<rect width="200" height="200" fill="white"/>
</clipPath>
</defs>
</svg>
