<svg width="200" height="200" viewBox="0 0 200 200" fill="none" xmlns="http://www.w3.org/2000/svg">
<path d="M72.8362 34.0829C66.559 34.2121 60.5205 36.1564 55.9606 39.6432V35.2016H15.1645L15.1558 58.5334H24.6478C26.6027 58.5334 28.183 60.121 28.183 62.0704V128.255H55.974V66.4129L55.9758 65.7622H55.9793C55.982 62.0589 59.119 59.0537 62.9923 59.0537C66.8072 59.0537 69.9059 61.9805 69.9897 65.6196V116.061C69.9897 117.536 70.2703 118.937 70.7534 120.238C72.4542 124.813 76.8385 128.076 81.9994 128.076H108.072V105.697L107.526 105.694H101.485H101.483C99.5349 105.693 97.9518 104.115 97.9518 102.164V101.675C97.949 101.625 97.9465 101.58 97.9465 101.527C97.9493 100.706 97.9489 99.8619 97.9518 99.0129V82.0447C97.949 79.9921 97.9465 78.7217 97.9465 78.7217L97.9518 73.3841V53.218C97.9126 52.6319 97.8164 51.7376 97.5812 50.6598C97.1768 48.8221 96.3742 46.45 94.7682 44.1046C91.4171 39.2172 87.1583 36.5532 81.4281 35.0589C78.5919 34.3428 75.6897 34.0262 72.8366 34.085L72.8362 34.0829ZM102.883 35.2033V58.4674H110.135C112.084 58.4674 113.661 60.0504 113.661 62.0027V107.492C114.128 114.982 118.577 121.834 124.232 125.045C129.924 129.547 143.73 131.607 151.187 128.977C151.187 128.977 154.63 127.893 156.568 126.6V132.373C156.568 133.75 156.462 134.609 156.088 135.682C155.141 137.723 153.063 138.795 149.765 138.876L28.1668 138.871V165.922H159.965C163.975 165.716 167.75 165.262 170.925 164.365C175.265 163.039 185.2 158.384 185.2 143.669C185.2 143.454 185.196 138.042 185.191 137.824H185.189L185.12 35.2074H156.662V94.943C156.662 95.6636 156.65 96.3809 156.614 97.0847C156.602 97.364 156.585 97.6374 156.563 97.9111C156.287 100.084 154.971 101.939 153.099 103.014C152.007 103.639 150.742 104.006 149.385 104.006C145.467 104.006 142.146 101.014 142.16 97.3022L142.196 35.206H102.886L102.883 35.2033Z" fill="#A71930"/>
<path d="M72.9986 37.9971C67.5438 38.0864 62.3032 39.7402 58.3482 42.7623L52.0415 47.592V39.1297H19.0867C19.0867 43.4641 19.085 50.2785 19.085 54.6103H24.6505C28.7641 54.6103 32.1072 57.9549 32.1072 62.0687V124.327H52.0505V66.3889C52.0505 66.3889 52.0536 65.7357 52.0592 65.7608C52.0648 59.8989 56.9662 55.1287 62.9952 55.1287C68.8878 55.1287 73.7877 59.795 73.9195 65.6174V116.059C73.9195 117.003 74.0927 117.952 74.4362 118.869C75.6092 122.027 78.6513 124.147 82.0025 124.147H104.148V109.621H101.486C97.3751 109.621 94.0292 106.274 94.0292 102.163H94.031V101.772C94.0282 101.688 94.0258 101.604 94.0258 101.604L94.031 99.0122V82.0529C94.031 82.0529 94.0258 78.7348 94.0258 78.7125L94.031 73.3836V53.4251C94.0031 53.2492 93.7527 51.5009 93.7527 51.5009C93.3322 49.6062 92.5849 47.8648 91.5293 46.3264C88.8517 42.4192 85.5318 40.1855 80.4678 38.8644C78.0012 38.2403 75.4768 37.9573 72.9978 37.998L72.9986 37.9971ZM160.582 39.1279V94.9397L160.532 97.2798L160.466 98.2854L160.448 98.3967C160.035 101.712 158.01 104.708 155.05 106.417C153.327 107.406 151.367 107.929 149.382 107.929C146.349 107.929 143.397 106.72 141.288 104.597C139.316 102.617 138.228 100.035 138.228 97.3321C138.228 97.3209 138.263 46.0204 138.266 39.1312H106.81V54.5441H110.133C114.244 54.5441 117.586 57.8915 117.586 62.0025V91.9073V107.318C117.969 113.183 121.409 118.93 126.168 121.633V121.631L126.428 121.783L126.666 121.964C131.366 125.681 143.732 127.45 149.877 125.274L150.002 125.238C151.133 124.878 153.324 124.048 154.383 123.333L160.491 119.246V132.372C160.491 133.978 160.374 135.317 159.79 136.981L159.731 137.158L159.645 137.334C158.528 139.744 155.924 142.651 149.763 142.802H32.0931V161.997C39.4633 162.011 159.571 161.997 159.829 161.997C163.515 161.805 166.977 161.4 169.77 160.618C174.062 159.3 181.268 155.345 181.268 143.669C181.268 143.669 181.2 46.3887 181.195 39.1289H160.582L160.582 39.1279Z" fill="#0B2265"/>
</svg>
