<svg width="200" height="200" viewBox="0 0 200 200" fill="none" xmlns="http://www.w3.org/2000/svg">
<g clip-path="url(#clip0_17_1014)">
<path fill-rule="evenodd" clip-rule="evenodd" d="M115.678 43.5643L106.334 53.3583C121.641 46.9983 155.019 36.0791 155.019 36.0791L144.324 46.5407C173.515 37.8979 195.698 33.8027 195.698 33.8027C195.698 33.8027 189.27 48.7619 179.667 63.7419C181.524 63.5419 193.649 62.1287 193.649 62.1287C193.649 62.1287 182.73 80.2159 170.122 93.2527L177.179 95.0087C177.179 95.0087 166.184 110.854 151.672 123.787C130.804 142.384 120.066 139.527 120.066 139.527C104.575 150.747 92.1592 145.061 92.1592 145.061C92.1592 145.061 97.5232 131.523 91.9812 130.086C86.9856 128.788 79.3856 132.694 78.4368 134.26C77.4504 137.676 73.2972 146.351 69.0068 151.602C60.7792 161.668 51.6564 165.782 51.6564 165.782C51.6564 165.782 44.4704 159.65 44.4236 149.211C44.4236 149.211 39.4876 154.439 31.4528 156.148C25.8284 157.344 18.1524 156.373 10.2888 149.808C5.0088 145.401 4 130.59 4 130.59C4 130.59 8.9616 121.112 18.5308 112.805C16.4128 110.988 15.1148 108.702 14.7072 107.291C40.1424 96.1887 40.1604 85.5915 60.3816 72.7083C80.304 60.0155 92.8236 54.1795 115.678 43.5643Z" fill="white"/>
<path fill-rule="evenodd" clip-rule="evenodd" d="M103.288 52.5556L95.2974 60.9316C111.079 53.946 144.407 42.6 144.407 42.6L134.735 52.0624C168.907 41.4828 190.579 37.8984 190.579 37.8984C190.579 37.8984 183.497 53.684 174.071 67.0928C178.635 66.6548 188.155 65.5488 188.155 65.5488C188.155 65.5488 178.635 81.4972 164.567 95.0064C166.131 95.236 172.515 96.6924 172.515 96.6924C172.515 96.6924 164.03 109.282 149.285 122.194C130.462 138.674 122.111 136.723 122.111 136.723C122.111 136.723 122.293 136.08 122.275 135.079C122.262 134.526 122.144 134.025 122.139 133.984C107.649 147.621 95.577 143.02 95.577 143.02C95.577 143.02 100.936 130.044 92.7154 127.426C86.3474 125.398 76.5922 130.61 75.8146 133.402C74.9689 136.438 70.9242 144.865 66.9134 149.802C59.955 158.369 52.2534 162.278 52.2534 162.278C52.2534 162.278 45.2514 156.891 47.6798 141.125C48.2098 137.69 47.5294 136.348 47.1542 135.771C46.0046 134.012 37.0466 135.931 34.861 140.928C33.3186 144.457 42.2202 147.44 42.2202 147.44C42.2202 147.44 38.1122 151.972 30.9322 153.44C26.417 154.363 19.425 154.069 12.0834 147.712C7.73936 143.952 6.83936 131.227 6.83936 131.227C6.83936 131.227 12.205 121.397 22.6566 112.908C20.5938 111.558 19.0274 109.271 18.631 108.372C39.6918 99.3008 42.579 86.474 66.3538 72.1404C77.4346 65.4604 89.1054 58.8868 103.289 52.556" fill="#004C54"/>
<path fill-rule="evenodd" clip-rule="evenodd" d="M182.897 43.5117C182.897 43.5117 178.438 56.6197 168.966 69.9265C174.687 69.5241 180.855 69.1877 180.855 69.1877C180.855 69.1877 174.223 82.5269 159.25 96.8133C160.094 96.9881 163.554 97.6137 165.48 98.4125C158.246 110.146 136.623 133.187 124.538 134.135C124.402 132.114 123.618 130.391 122.671 129.202C118.136 137.491 104.289 142.578 98.5401 141.248C105.521 115.675 75.9053 125.419 73.6337 132.439C67.7377 150.667 52.7705 159.243 52.7705 159.243C52.7705 159.243 47.9865 153.793 50.0385 141.519C51.5513 132.471 45.8265 132.752 45.8265 132.752C43.5441 132.647 34.8817 133.692 32.1497 139.736C29.9461 144.604 37.6593 148.022 37.6593 148.022C37.6593 148.022 26.5221 156.914 13.6373 145.893C10.4765 143.19 9.30127 131.776 9.30127 131.776C15.4981 121.504 23.6653 114.971 27.0493 112.542C23.4613 111.166 22.3445 109.304 22.3445 109.304C39.6445 101.371 46.4297 88.1853 61.1577 78.3865C77.3877 67.5889 89.8117 62.2861 89.8117 62.2861L85.1237 68.1869C85.1237 68.1869 89.0489 66.5089 90.7609 65.6697C106.216 58.0841 132.403 49.8181 132.403 49.8181L124.237 57.7285C124.237 57.7285 137.775 53.0921 154.833 49.4481C163.917 47.5065 182.897 43.5117 182.897 43.5117ZM58.5693 103.195C58.3013 103.529 58.0005 103.911 57.6721 104.315C58.6421 104.327 59.4989 104.706 59.9437 105.448C60.7309 106.761 59.9485 108.672 58.1945 109.719C56.4405 110.765 54.3805 110.551 53.5917 109.236C53.4705 109.036 53.3977 108.817 53.3493 108.593C53.0167 108.828 52.6719 109.047 52.3161 109.246C52.3905 109.501 52.4957 109.752 52.6345 109.985C53.7505 111.839 56.5937 112.187 58.9897 110.756C61.3857 109.328 62.4237 106.667 61.3097 104.81C60.7457 103.872 59.7365 103.326 58.5693 103.195Z" fill="black"/>
<path fill-rule="evenodd" clip-rule="evenodd" d="M122.356 55.9902C122.356 55.9902 118.414 58.811 115.69 60.6182C113.339 62.1836 111.016 63.7915 108.722 65.441C108.722 65.441 108.866 65.3766 109.133 65.2634C140.16 55.539 165.789 58.5798 165.789 58.5798C149.016 60.1966 135.452 63.3846 128.255 66.673C128.255 66.673 138.193 64.9658 143.245 64.9658C148.187 64.9658 152.229 65.4458 152.229 65.4458C120.615 70.3786 103.61 79.5158 99.465 81.9766C97.7402 82.7106 96.8362 83.1678 96.8362 83.1678C96.8362 83.1678 101.992 81.553 108.527 79.933C120.026 78.169 136.854 79.1182 153.091 83.9374C153.091 83.9374 141.833 83.341 136.914 83.451C122.223 83.7774 107.083 89.685 107.083 89.685C116.645 87.2742 127.128 89.0494 127.128 89.0494C123.052 89.2838 113.031 91.9614 108.001 94.0322C100.755 97.0162 93.4318 101.267 88.095 105.192C85.9366 106.472 84.7826 107.316 84.7826 107.316L84.7882 107.313C84.9298 107.237 87.6442 105.797 92.1302 104.067C99.9874 101.423 113.294 99.0646 128.075 104.03C105.295 99.4914 87.2978 110.162 87.2978 110.162C100.345 105.899 108.619 109.918 108.619 109.918C92.8042 107.995 81.0122 116.318 76.953 121.509C79.2406 116.89 82.6162 113.912 82.6162 113.912C81.7874 114.324 80.9821 114.782 80.2042 115.283C76.9462 117.159 63.6054 123.934 52.0202 116.737C51.3863 116.345 50.7697 115.927 50.1722 115.482C54.025 117.5 60.3818 117.671 63.0202 115.075C53.7826 117.458 52.1418 113.24 51.9442 110.616C51.3482 110.729 50.389 110.656 49.673 110.49C49.673 110.49 51.1846 109.848 51.9346 109.46C52.0642 109.394 52.1886 109.318 52.3162 109.245C52.3906 109.501 52.4958 109.751 52.6346 109.984C53.7506 111.838 56.5938 112.186 58.9898 110.755C61.3858 109.327 62.4238 106.667 61.3098 104.809C60.7458 103.871 59.737 103.325 58.5698 103.194C59.4006 102.229 60.9994 100.095 63.4682 98.3194C61.651 100.499 61.0706 101.973 61.001 102.159C62.115 102.334 63.0914 102.811 63.5618 103.695C64.4882 105.428 63.8578 106.789 63.5218 107.486C63.5198 107.485 63.5182 107.485 63.5166 107.485C62.899 108.791 61.751 110.079 60.2058 111.054C58.1138 112.375 55.8214 112.789 54.135 112.313C54.135 112.313 54.4374 112.865 54.927 113.189C55.7422 113.735 58.1494 114.528 61.6298 112.955C62.9202 112.371 63.8886 111.709 64.6274 111.036C67.2446 109.072 67.5294 106.56 68.4634 104.355C70.6674 99.1474 75.2182 94.6386 80.521 92.7662C75.4802 93.3806 69.3158 97.925 69.495 95.8962C69.579 94.9522 72.2822 85.955 88.8402 79.0714C89.1426 78.9614 89.4418 78.8514 89.7522 78.7434C89.7522 78.7434 81.7122 79.9878 69.597 87.2114C64.8326 90.0534 60.5518 93.9818 58.385 96.9662C58.481 95.0054 59.5394 93.1042 60.183 91.6054C55.6742 94.509 56.7978 98.5506 53.401 102.491C51.9138 104.077 50.347 105.595 48.685 106.675C39.0838 112.928 29.605 109.037 29.605 109.037C42.4722 102.081 42.0874 100.515 50.5654 91.5246C60.0698 81.4494 65.9094 76.2598 81.9046 68.4158C80.8586 69.7638 76.5358 73.557 75.603 74.635C75.603 74.635 78.8122 72.9182 84.889 70.0342C106.443 59.8006 122.356 55.9902 122.356 55.9902ZM55.2746 106.972C55.2294 107.714 55.3994 108.657 56.3126 109.347C56.3126 109.347 55.2714 109.433 54.5942 108.933C54.2094 108.649 54.0446 108.312 53.9766 108.118C54.4277 107.758 54.8609 107.375 55.2746 106.972Z" fill="white"/>
<path fill-rule="evenodd" clip-rule="evenodd" d="M43.6619 113.746C43.6619 113.746 55.3811 128.552 74.0555 121.193C73.1971 122.709 72.8187 124.384 72.2595 126.36C67.9459 146.423 53.4119 155.116 53.4119 155.116C50.7655 149.108 52.2463 143.302 52.6975 141.128C53.7223 136.175 51.3443 132.487 51.3443 132.487C60.9055 132.941 51.5319 144.851 55.0839 150.038C61.5083 146.297 65.3839 133.137 66.3407 128.437C66.4071 128.261 65.4335 127.569 64.6463 127.28C55.4151 124.312 39.9371 126.853 34.3419 130.238C16.8171 140.844 33.2115 148.119 33.2115 148.119C33.2115 148.119 22.4203 151.726 16.2431 141.969C14.7283 139.382 14.3467 134.665 14.0151 130.979C20.4399 120.103 30.5391 115.78 33.3443 113.847C35.7775 114.506 40.1859 114.81 43.6619 113.747V113.746ZM80.6515 123.587C80.6515 123.587 88.7623 115.675 106.784 118.858C113.695 120.079 117.517 123.726 117.517 123.726C114.435 129.086 108.342 131.706 108.342 131.706C108.342 131.706 108.73 123.178 95.1935 121.002C86.3175 119.575 80.9783 123.349 80.6659 123.576L80.6515 123.587ZM92.1299 104.067C103.959 99.4988 128.109 92.896 149.992 103.865C148.691 106.657 145.398 110.806 140.144 115.977C135.14 120.9 131.816 122.318 130.95 122.788C130.812 122.863 130.74 122.898 130.74 122.898C128.953 116.139 114.086 109.705 92.6927 115.012C83.8579 117.203 79.9187 119.928 76.3235 123.276L76.0843 123.5C76.3421 122.823 76.6317 122.159 76.9523 121.51C81.0123 116.318 92.8043 107.996 108.618 109.918C108.618 109.918 100.344 105.899 87.2975 110.162C87.2975 110.162 105.295 99.492 128.075 104.03C113.294 99.0652 99.9871 101.424 92.1299 104.067ZM39.2547 116.74C36.9283 117.945 35.1887 118.883 35.1887 118.883C33.8147 120.943 36.7071 120.532 38.0455 120.134C39.1303 119.811 44.0159 118.392 44.0159 118.392C41.2951 118.132 40.2559 117.559 39.2547 116.74ZM88.8399 79.0716C72.2819 85.9556 69.5787 94.952 69.4947 95.8964C69.3155 97.9252 75.4799 93.3804 80.5207 92.7664C75.2179 94.6384 70.6667 99.1476 68.4635 104.354C67.5291 106.56 67.2443 109.072 64.6271 111.036C66.8335 109.03 66.9163 106.958 66.9191 106.765V106.751C66.9191 106.751 65.7019 107.485 64.6627 107.598C64.3199 107.635 63.9123 107.577 63.5211 107.486C64.0499 106.452 64.0403 105.716 64.0499 105.514C65.6583 101.844 69.6739 98.444 69.6739 98.444C69.6739 98.444 66.7043 100.211 66.2599 98.5008C65.0799 93.9464 73.0579 84.9512 88.2319 79.2896C88.2643 79.2768 88.6703 79.1312 88.8399 79.0716ZM120.916 77.3708C139.866 74.456 166.036 77.2656 166.036 77.2656C166.036 77.2656 164.826 81.1152 159.136 87.3536C153.772 93.24 151.758 94.7904 151.758 94.7904C120.93 88.222 96.6371 100.127 88.0947 105.192C93.4315 101.267 100.755 97.0164 108.001 94.0324C113.03 91.9612 123.052 89.2844 127.128 89.0496C127.128 89.0496 116.645 87.2744 107.083 89.6852C107.083 89.6852 122.223 83.7776 136.914 83.4512C141.833 83.3412 153.09 83.9376 153.09 83.9376C136.854 79.1184 120.026 78.1696 108.526 79.9332C112.432 78.968 116.83 77.998 120.916 77.3708ZM169.496 52.668C169.496 52.668 166.279 62.6592 158.086 70.5744C152.338 71.1464 138.066 71.7512 125.783 74.1844C112.76 76.7644 103.665 80.1964 99.4647 81.9764C103.61 79.5164 120.614 70.3788 152.229 65.446C152.229 65.446 148.187 64.966 143.245 64.966C138.192 64.966 128.255 66.6732 128.255 66.6732C135.452 63.3852 149.016 60.1968 165.789 58.58C165.789 58.58 140.16 55.5392 109.133 65.2636C111.304 64.3436 122.189 59.9512 139.032 56.8244C155.228 53.8192 169.496 52.668 169.496 52.668H169.496Z" fill="#A5ACAF"/>
</g>
<defs>
<clipPath id="clip0_17_1014">
<rect width="200" height="200" fill="white"/>
</clipPath>
</defs>
</svg>
