<svg width="200" height="200" viewBox="0 0 200 200" fill="none" xmlns="http://www.w3.org/2000/svg">
<g clip-path="url(#clip0_17_1002)">
<path d="M24 100.073C24 141.94 58.06 176 99.9264 176C141.791 176 175.853 141.94 175.853 100.073C175.853 58.2084 141.791 24.1484 99.9264 24.1484C58.0596 24.1484 24 58.2084 24 100.073Z" fill="black"/>
<path d="M99.9262 174.335C140.937 174.335 174.186 141.086 174.186 100.074C174.186 59.0633 140.937 25.8145 99.9262 25.8145C58.9134 25.8145 25.665 59.0633 25.665 100.074C25.665 141.087 58.9138 174.335 99.9262 174.335Z" fill="#A5ACAF"/>
<path d="M99.9262 162.203C134.138 162.203 161.874 134.468 161.874 100.256C161.874 66.0438 134.138 38.3066 99.9262 38.3066C65.7126 38.3066 37.9771 66.0442 37.9771 100.256C37.9771 134.468 65.7126 162.203 99.9262 162.203Z" fill="#FFFFFE"/>
<path d="M100.248 100.34C100.963 74.9664 124.931 69.0092 130.953 69.5556C116.109 68.7496 101.459 62.4764 100.326 39.002C98.5381 60.832 89.7785 67.0384 69.5913 69.6292C84.0109 70.36 98.6061 76.066 100.247 100.34" fill="#FFB612"/>
<path d="M131.039 131.745C131.754 106.371 155.301 100.11 161.324 100.657C146.43 100.107 132.084 93.0275 130.954 69.5547C129.166 91.3863 120.435 97.7483 100.248 100.339C114.668 101.07 129.396 107.471 131.039 131.745" fill="#C60C30"/>
<path d="M100.62 161.946C101.334 136.569 125.015 131.199 131.039 131.746C116.194 130.938 101.38 123.816 100.248 100.34C98.4595 122.171 89.9595 128.73 69.7739 131.319C84.1915 132.053 98.9767 137.673 100.62 161.946" fill="#00539B"/>
<path d="M82.9882 94.9165L85.4066 94.8909L85.417 96.0573C85.7806 95.4169 85.9994 95.0341 86.8226 94.8497H87.4238V97.6797C85.3418 97.5329 85.4802 98.2621 85.453 98.8221V104.207H82.9886V94.9161L82.9882 94.9165ZM93.8842 97.9461L91.7254 97.9357C91.7254 97.7121 91.7306 97.5157 91.6894 97.3449C91.6298 97.1057 91.3102 96.8785 90.9858 96.8753C90.6034 96.8753 90.3078 96.9981 90.1798 97.3689C90.0262 97.8165 90.0978 98.4757 91.2626 98.6073L91.8554 98.7541C92.5162 98.9761 93.155 99.1605 93.6522 100.108C93.7358 100.271 93.7494 100.324 93.8826 100.788C94.1642 101.751 93.9782 102.486 93.6638 103.06C93.4726 103.403 93.003 103.83 92.8354 103.934C91.9218 104.498 90.6886 104.557 89.5682 104.218C89.0182 104.05 88.419 103.63 88.1218 103.053C87.8142 102.457 87.8074 101.968 87.7682 101.162L89.8554 101.148C89.8126 101.475 90.0142 101.852 90.337 101.975C90.6634 102.103 91.4778 102.108 91.6214 101.743C91.7222 101.485 91.787 101.345 91.5634 101.008C91.1554 100.392 90.2826 100.291 89.5158 100.098C88.1442 99.7513 87.8114 98.4225 87.871 97.4149C87.9002 96.9385 87.9854 96.3885 88.2862 96.0177C88.9198 95.2337 89.1966 95.2729 89.5758 95.0905C90.8378 94.4773 92.4074 94.9129 93.2442 95.7617C93.7138 96.2349 93.867 97.1057 93.8842 97.9461ZM53.8518 94.9709H52.1406L51.2098 94.9777C51.1874 94.5697 51.1262 94.0401 50.8562 93.7925C50.4566 93.4289 49.5514 93.6301 49.3122 94.1357C48.8786 95.0441 49.4334 95.8981 50.8306 96.3441L51.215 96.5353C52.535 97.1793 52.9006 97.4953 53.3942 98.1921C53.5426 98.4021 53.833 98.9505 53.951 99.6197C54.2022 101.051 53.8418 101.939 53.519 102.723C53.519 102.723 53.3962 103.094 53.0562 103.409C51.6694 104.704 49.7482 104.76 48.3238 104.084C47.6678 103.77 47.1626 103.466 46.8022 102.656C46.447 101.862 46.3666 101.142 46.469 99.9701L49.1282 99.9549C49.0786 100.327 49.1878 101.268 49.4374 101.53C49.685 101.789 50.6926 102.042 51.0802 101.355C51.217 101.114 51.251 100.068 50.8274 99.6645C50.0298 98.8977 49.3414 98.8209 48.4022 98.2333C47.0614 97.3965 46.3494 95.8953 46.4346 94.4709C46.4754 93.7961 46.6602 93.3265 46.9878 92.7357C47.3158 92.1517 47.7802 91.6189 48.4514 91.3249C50.2378 90.5409 52.4206 90.9885 53.3822 92.6861C53.635 93.1301 53.8878 93.7925 53.8518 94.9709ZM55.2094 94.9229V94.0657L57.6994 92.6993L57.7098 94.9537L58.6578 94.9333L58.6682 97.1313L57.7102 97.1161V100.774C57.7102 101.275 57.6198 101.475 58.6238 101.459L58.6222 104.243C57.437 104.214 55.193 104.617 55.1826 101.999L55.1638 97.0685L54.2346 97.0993L54.2242 94.9541L55.2098 94.9233L55.2094 94.9229ZM72.8038 91.1945L75.3126 91.2013V104.287H72.8038V91.1945ZM78.1066 101.578C78.1102 102.412 79.9306 102.583 79.975 101.532V101.268L82.0246 101.257L82.0282 102.352C82.0486 103.08 81.7466 103.87 80.5166 104.294C79.2118 104.7 78.397 104.456 77.6338 104.294C76.6314 103.927 76.1446 103.129 76.0986 102.006V97.4729C76.0526 96.6225 76.5254 95.8813 77.347 95.3413C78.7474 94.7297 79.5126 94.8937 80.5646 95.2577C81.567 95.8041 82.0198 96.4805 82.0298 97.4249V100.301H78.0982L78.1066 101.578ZM78.1954 98.3593L80.0502 98.3661C80.4326 96.7421 77.8846 96.5317 78.1954 98.3593ZM68.1242 101.578C68.1294 102.412 69.9498 102.583 69.9962 101.532V101.268L72.0438 101.257L72.049 102.352C72.0662 103.08 71.7654 103.87 70.5358 104.294C69.231 104.7 68.4162 104.456 67.653 104.294C66.6506 103.927 66.1638 103.129 66.1178 102.006V97.4729C66.0718 96.6225 66.5466 95.8813 67.3662 95.3413C68.7666 94.7297 69.5334 94.8937 70.5822 95.2577C71.5866 95.8041 72.0374 96.4805 72.0494 97.4249V100.301H68.1282L68.1246 101.578H68.1242ZM68.2146 98.3593L70.0694 98.3661C70.4518 96.7421 67.9038 96.5317 68.2146 98.3593ZM61.3266 101.578C61.3318 102.412 63.1522 102.583 63.1986 101.532V101.268L65.2462 101.257L65.2514 102.352C65.2702 103.08 64.9678 103.87 63.7382 104.294C62.4334 104.7 61.617 104.456 60.8554 104.294C59.853 103.927 59.3662 103.129 59.3202 102.006V97.4729C59.2742 96.6225 59.749 95.8813 60.5686 95.3413C61.9674 94.7297 62.7358 94.8937 63.7846 95.2577C64.789 95.8041 65.2398 96.4805 65.2518 97.4249V100.301H61.3306L61.327 101.578H61.3266ZM61.417 98.3593L63.2718 98.3661C63.6542 96.7421 61.1062 96.5317 61.417 98.3593Z" fill="black"/>
</g>
<defs>
<clipPath id="clip0_17_1002">
<rect width="200" height="200" fill="white"/>
</clipPath>
</defs>
</svg>
