<svg width="200" height="200" viewBox="0 0 200 200" fill="none" xmlns="http://www.w3.org/2000/svg">
<g clip-path="url(#clip0_17_1023)">
<path d="M100.41 156.932C133.105 156.932 165.318 145.848 182.477 128.688C191.191 119.975 195.797 109.913 195.797 99.5836C195.797 89.3304 191.251 79.368 182.656 70.7717C165.63 53.748 133.346 42.748 100.41 42.748C77.3459 42.748 53.8107 48.1761 35.8379 57.6409C15.3059 68.4517 3.99951 83.348 3.99951 99.5832C3.99951 109.764 8.56071 119.706 17.1923 128.335C25.8187 136.958 38.3523 144.216 53.4419 149.318C68.1683 154.3 84.4111 156.931 100.409 156.931" fill="#FFFFFE"/>
<path d="M37.2616 60.3431C17.7832 70.5999 7.05518 84.5359 7.05518 99.5819C7.05518 108.935 11.3084 118.128 19.3548 126.176C27.6492 134.467 39.7748 141.47 54.4204 146.422C68.8368 151.298 84.7404 153.876 100.41 153.876C132.334 153.876 163.701 143.139 180.317 126.525C188.444 118.4 192.741 109.083 192.741 99.5819C192.741 90.1563 188.507 80.9407 180.495 72.9299C164.014 56.4503 132.578 45.8027 100.41 45.8027C77.8288 45.8027 54.8116 51.1015 37.2624 60.3427" fill="black"/>
<path d="M100.353 148.462C128.535 148.462 155.243 139.265 170.048 124.463C177.516 116.995 181.463 108.471 181.463 99.8094C181.463 91.1498 177.516 82.6258 170.048 75.1586C155.241 60.355 128.535 51.1602 100.353 51.1602C79.6591 51.1602 59.0583 56.2678 43.8347 65.1754C27.9759 74.4546 19.2407 86.7542 19.2407 99.809C19.2407 108.471 23.1891 116.994 30.6591 124.463C45.4627 139.265 72.1687 148.461 100.353 148.461" fill="#B3995D"/>
<path d="M100.499 146.733C141.809 146.733 175.3 125.333 175.3 99.5485C175.3 73.7637 141.809 52.8613 100.499 52.8613C59.1875 52.8613 25.6987 73.7637 25.6987 99.5485C25.6987 125.333 59.1875 146.733 100.499 146.733Z" fill="#AA0000"/>
<path d="M159.007 93.6835H158.801V91.9799H129.123C128.486 88.6431 126.567 85.5455 123.825 83.1275C121.125 80.0247 117.204 77.6911 112.737 76.8047L110.889 76.4227C106.605 75.5227 103.221 74.8103 89.6102 74.8807C89.6102 74.8791 86.9922 74.7911 84.4502 74.4539C83.8726 74.31 83.3074 74.1201 82.7602 73.8859C82.9478 72.7535 85.0182 71.1927 87.3574 70.8915C87.5982 70.8467 102.33 68.1363 117.492 77.9559L117.863 78.1951H127.829V62.9475H126.125V61.2439H112.45L110.145 63.0043C106.207 62.0183 86.925 57.7983 70.271 65.0883C63.2726 67.9795 58.9302 73.4367 59.2402 78.9795C59.397 81.7743 60.7342 84.2111 63.0474 86.1007C64.7478 88.2243 67.4226 89.8799 70.9062 90.8847C75.8358 92.3043 80.011 92.8895 84.0594 93.1219V100.073H85.7618V101.776H90.963C93.1162 101.776 93.6706 102.969 93.803 103.413C87.1662 102.98 77.075 101.092 69.6462 94.2183L69.3674 93.9171H69.3142C68.9004 93.5215 68.4981 93.114 68.1078 92.6951L67.6622 92.2151H60.1854V113.918H61.8894V115.618H67.9894C68.8826 115.682 71.7158 115.367 73.6726 109.652C76.8446 110.758 84.6622 113.111 94.2886 113.373V126.875C93.9546 131.41 83.965 132.828 80.4866 132.966L79.0478 133.022V139.736H80.7502V141.436H124.607V135.014L123.49 134.718C123.294 134.667 123.098 134.614 122.903 134.559V133.09L121.535 132.972C119.069 132.754 117.172 132.327 115.702 131.802C112.943 130.257 112.471 129.004 112.411 128.801V121.602H125.265C126.623 121.807 127.786 122.402 128.772 123.175C130.623 125.453 131.467 128.059 131.48 128.102L131.809 129.157L132.912 129.16H132.948C133.101 129.548 133.18 129.792 133.185 129.806L133.513 130.862L134.617 130.864H140.419V104.749H138.715V103.045H131.838L131.592 104.238C129.791 112.917 119.753 112.789 110.829 111.488C112.614 111.005 114.37 110.421 116.089 109.74C120.867 107.842 124.453 105.26 126.688 102.235H145.953C147.296 102.278 148.437 102.616 149.397 103.244C151.416 106.204 151.215 110.568 151.211 110.618L151.127 112.198H152.919L152.917 112.318L152.831 113.898L154.413 113.902H160.507V93.6839H159.008" fill="black"/>
<path d="M128.28 99.0304C129.683 97.3336 129.748 93.4788 129.748 93.4788H157.301V110.698H152.707C152.707 110.698 153.362 99.3232 144.246 99.0304H128.28ZM95.7863 113.736C101.986 113.868 107.244 112.553 107.244 112.553C108.823 112.204 130.169 118.468 133.057 104.544H137.214V127.661H132.911C132.911 127.661 130.358 119.346 123.723 118.398H109.207V127.224C109.207 127.224 109.262 133.413 121.403 134.464V138.237H80.5443V134.464C80.5443 134.464 95.3155 133.89 95.7871 126.96V113.736L95.7863 113.736ZM108.533 90.99C106.557 90.3892 103.698 90.2604 100.409 90.1348C88.6399 89.6856 81.2335 91.088 69.6155 87.7392C56.4295 83.9392 58.7963 71.4524 70.8719 66.4616C88.8375 58.5968 110.474 64.6392 110.474 64.6392L112.956 62.7428H124.626V74.9939H116.602C100.704 64.6959 85.4591 67.7008 85.4591 67.7008C80.4987 68.3428 75.6847 73.812 84.1443 75.9268C86.8447 76.2916 89.6159 76.3796 89.6159 76.3796C104.967 76.2988 107.094 77.2144 112.446 78.2744C126.353 81.0312 134.046 98.6156 113.831 106.644C92.9619 114.93 71.0171 106 71.0171 106C69.1943 112.856 66.3511 112.42 66.3511 112.42H61.6831V93.7148H67.0051C79.4803 107.202 100.848 104.894 100.848 104.894C100.848 104.894 107.194 104.732 111.351 100.81C114.597 96.8488 114.082 92.6152 108.533 90.9908V90.99ZM91.0995 98.576H85.5575V93.6092C89.8535 93.6092 98.6179 93.6472 104.819 93.6092C111.057 93.6092 111.892 97.2164 109.262 99.6564C106.783 101.956 101.592 103.592 95.4455 102.474C95.4455 102.474 94.9379 98.576 91.0995 98.576Z" fill="#FFFFFE"/>
</g>
<defs>
<clipPath id="clip0_17_1023">
<rect width="200" height="200" fill="white"/>
</clipPath>
</defs>
</svg>
