<svg width="200" height="200" viewBox="0 0 200 200" fill="none" xmlns="http://www.w3.org/2000/svg">
<g clip-path="url(#clip0_17_1025)">
<path d="M164.91 126.958C156.16 125.209 144.673 124.745 139.821 124.745L24.3591 124.771C17.1755 124.771 9.74708 124.771 5.93508 118.901C2.06788 112.947 4.16908 107.088 10.6907 95.3659C11.1775 94.4947 30.9523 57.3359 30.9523 57.3359C30.9523 57.3359 32.9727 59.8431 35.0095 61.4403C37.0207 63.0155 39.0871 63.8555 44.5967 63.8555C54.3827 63.8555 117.513 63.7175 118.156 63.7135C130.971 63.7135 143.915 65.0399 152.302 74.2331C156.656 74.6975 170.711 76.5543 182.295 82.0903C189.073 85.3255 193.544 90.1615 195.235 96.0675C195.745 97.8527 195.999 99.7299 195.999 101.676C195.999 107.282 193.9 113.49 189.782 119.942C181.083 133.578 173.061 138.344 172.702 138.601C167.758 142.077 162.971 142.239 162.971 142.239C162.971 142.239 167.283 137.339 168.737 132.438C170.193 127.538 164.91 126.958 164.91 126.958Z" fill="#FFFFFE"/>
<path d="M180.866 85.0793C194.066 91.3893 196.382 103.445 186.992 118.165C178.57 131.357 170.066 136.954 170.066 136.954C170.066 136.954 178.26 126.247 165.558 123.706C155.991 121.798 143.738 121.433 139.821 121.433C135.314 121.433 95.0433 121.525 90.0185 121.525C84.9937 121.525 83.6057 120.84 82.5033 119.324C81.4029 117.813 81.2113 115.746 83.2721 112.649C85.3405 109.554 88.4813 104.705 88.4813 104.705L74.9053 93.7881C86.2969 82.4269 95.3957 78.6169 103.338 78.6169C111.392 78.6169 114.942 79.7997 128.199 85.3597C141.458 90.9233 145.84 85.0077 145.84 85.0077C140.273 87.3733 135.301 85.3597 125.946 81.2217C116.595 77.0785 111.032 75.1881 102.63 75.1881C94.2233 75.1881 87.1225 77.5517 78.2269 84.0917C69.8509 90.2485 69.2169 91.5141 56.5881 91.5141H16.4629L31.9153 62.5977C31.9153 62.5977 33.0709 67.1665 44.5973 67.1665C54.4997 67.1665 118.157 67.0265 118.157 67.0265C130.796 67.0265 143.302 68.3657 150.702 77.4061C150.702 77.4061 167.663 78.7693 180.866 85.0793ZM157.539 87.4505C151.534 86.0137 156.667 82.5389 156.667 82.5389C148.026 84.2837 144.811 91.3285 144.068 93.2997C143.93 93.5669 143.788 93.8413 143.642 94.1305C138.86 103.744 134.554 103.23 126.39 103.23H112.409C101.084 103.23 95.8097 108.839 90.3813 118.394H96.7777C102.623 109.694 107.036 107.349 118.597 106.697C145.017 106.712 166.079 114.287 177.209 120.077C193.039 93.5097 169.546 89.1121 157.539 87.4505H157.539ZM108.365 118.29C111.32 113.826 117.328 112.31 127.014 112.868C150.918 114.252 164.662 118.903 175.34 122.879C162.174 115.176 138.708 109.624 122.398 109.675C114.428 109.699 107.468 111.092 103.379 118.29H108.365V118.29ZM134.02 91.9345C130.905 96.2785 126.802 97.7617 115.165 96.9677C101.624 96.0485 105.119 90.3465 106.695 87.5409L106.649 87.5353C107.08 86.7413 107.818 85.3929 108.566 84.0349C98.1925 83.3957 90.6145 91.3765 90.6145 91.3765C98.3489 99.022 103.507 99.8217 110.504 99.8217H123.584C135.746 99.8217 138.684 94.3521 139.8 91.9201C137.7 92.1817 135.811 92.1597 134.021 91.9349L134.02 91.9345Z" fill="#002244"/>
<path d="M128.116 90.6409C127.869 90.5413 127.613 90.4365 127.356 90.3313C126.164 91.5877 124.107 92.3153 122.114 92.0593C119.491 91.7241 117.98 89.8189 118.724 87.8093C118.831 87.5145 118.988 87.2381 119.174 86.9729C117.846 86.45 116.509 85.9525 115.162 85.4805C112.468 89.8373 110.888 92.7245 120.239 93.5129C126.063 94.0085 127.644 93.0117 128.867 90.9225C128.616 90.8269 128.373 90.7437 128.115 90.6405" fill="#69BE28"/>
<path d="M81.1522 107.193C76.3282 115.561 74.415 117.483 77.803 121.455H24.3598C16.4778 121.455 11.3534 121.158 8.71736 117.096C6.15336 113.151 6.68056 109.389 13.5894 96.9746H59.029C66.8522 96.9746 68.863 97.4206 73.1082 100.713C75.8252 102.828 78.5071 104.989 81.1526 107.194" fill="#A5ACAF"/>
</g>
<defs>
<clipPath id="clip0_17_1025">
<rect width="200" height="200" fill="white"/>
</clipPath>
</defs>
</svg>
