<svg width="200" height="200" viewBox="0 0 200 200" fill="none" xmlns="http://www.w3.org/2000/svg">
<g clip-path="url(#clip0_17_1022)">
<path fill-rule="evenodd" clip-rule="evenodd" d="M146.574 135.554C143.086 140.825 139.544 146.059 135.946 151.257C139.44 154.145 139.231 157.783 139.231 158.473C139.164 162.342 137.104 165.229 135.218 166.917C132.871 168.917 129.665 169.886 126.282 169.911C126.182 169.911 123.762 169.837 122.93 169.646C122.572 170.17 121.882 170.807 120.76 171.263C120.637 171.617 120.466 171.971 120.244 172.307C119.803 172.97 119.206 173.513 118.506 173.89C117.805 174.267 117.022 174.464 116.227 174.466C116.227 174.466 114.645 174.42 113.551 173.666C112.884 173.228 112.337 172.631 111.957 171.928C111.578 171.226 111.379 170.441 111.378 169.642V169.6C111.382 168.836 111.569 168.085 111.923 167.409C111.76 167.023 111.191 164.719 111.191 164.719L112.68 163.406C112.801 163.336 113.169 162.78 113.583 161.361C114.022 159.977 114.546 157.921 115.643 155.525C117.041 152.481 118.98 149.331 120.396 147.151C120.258 146.454 119.525 146.132 118.998 146.005C118.407 145.845 117.678 145.502 117.098 144.826C116.489 144.118 116.022 143.12 116.283 141.832C116.542 140.562 117.338 139.645 118.269 139.217V139.213C119.324 138.665 120.626 138.926 120.626 138.926C123.73 139.213 126.023 142.094 126.023 142.094C129.112 137.783 136.3 127.092 136.453 126.858C127.032 128.66 117.299 128.904 109.216 127.562C94.518 125.124 83.2104 117.299 75.906 113.732C68.6012 110.168 54.6856 106.516 40.3308 110.168C25.98 113.82 16.502 127.042 16.502 127.042C20.788 96.8468 39.492 91.7572 41.2864 91.2476C44.0116 88.696 47.586 80.91 39.1204 75.658C36.2292 73.8636 33.8012 71.5916 33.8012 71.5916C35.5744 71.8004 39.7328 71.2516 42.0404 70.3388C44.8112 69.2452 47.3596 68.8808 47.3596 68.8808C45.1724 66.796 41.8316 65.752 41.8316 65.752C45.1688 65.5432 50.3856 64.3968 53.6168 62.9352C56.848 61.4768 58.6208 58.8684 58.0968 57.722C57.5768 56.5716 54.6568 57.202 54.6568 57.202C55.7008 55.6372 58.2032 55.0108 58.2032 55.0108C51.0084 54.5932 45.7672 58.5108 45.7672 58.5108C46.5668 56.7948 49.1964 53.7084 49.1964 53.7084C48.1984 54.0376 45.4344 54.9012 45.2608 54.9544C56.5256 46.2552 69.1 38.6072 86.7176 38.494C104.332 38.3772 121.493 46.2728 132.928 49.9324C144.37 53.5916 150.44 55.4392 162.794 53.6132C168.708 52.7352 173.886 50.3112 177.68 48.0388C177.68 48.0388 180.334 41.29 180.536 31.6C180.536 31.6 183.717 37.3048 183.732 46.188C183.764 76.6736 168.991 98.9384 164.27 107.043C159.758 115.016 153.826 124.565 146.574 135.554ZM179.06 23.6016C179.06 23.6016 179.46 30.9308 178.076 37.6412C176.738 44.1248 176.002 46.5952 176.002 46.5952C173.171 48.2552 168.588 50.2968 161.888 51.4116C149.384 53.4964 138.038 50.1376 125.651 45.2748C113.261 40.4124 96.684 35.1744 81.3032 36.9404C66.3892 38.6532 55.7192 44.6944 50.0456 48.6336C44.3724 52.5688 43.3284 53.6096 38.4656 55.0004C38.4656 55.0004 42.288 56.5044 44.2556 56.5044C44.2556 56.5044 43.3284 60.3304 43.6756 61.6004C43.6756 61.6004 51.7796 57.8952 52.7072 59.6332C53.6344 61.3708 49.812 62.5316 47.1508 63.2216C44.4892 63.9188 37.5388 63.7984 37.5388 63.7984C37.5388 63.7984 40.798 66.322 41.9484 68.0736C41.9484 68.0736 35.8044 70.7496 28.9704 69.822C28.9704 69.822 28.744 72.3524 34.3604 76.4968C33.1644 76.9248 31.6496 77.6188 30.7116 78.6204C30.7116 78.6204 36.5972 77.4064 40.2956 81.526C41.2688 82.7468 41.5876 83.8404 41.4776 85.2208C41.276 87.7228 40.3168 88.6784 37.9596 90.2356C36.6116 90.784 35.178 91.4708 33.794 92.3164C27.286 96.3156 22.526 102.403 19.1848 109.357C17.7372 112.369 16.58 115.869 15.7624 119.044C14.9448 122.236 14.644 125.071 14.4532 126.84C14.262 128.606 14 134.174 14 134.174C14 134.174 16.92 130.082 18.2892 128.122C19.652 126.168 28.2872 115.31 40.8652 112.164C44.8892 111.141 48.8956 110.713 52.7248 110.713C61.93 110.706 70.1512 113.204 75.0176 115.586C82.0816 119.005 93.6864 127.074 108.901 129.597C112.483 130.188 116.344 130.482 120.346 130.482C124.186 130.482 128.16 130.202 132.132 129.661C130.022 132.812 127.875 135.937 125.69 139.036C123.616 137.061 120.803 136.856 120.803 136.856C117.391 136.534 115.682 138.612 115.682 138.612C114.947 139.409 114.458 140.402 114.273 141.471C114.032 142.529 114.319 143.761 114.518 144.387C115.168 146.454 116.934 147.395 117.621 147.696C112.634 154.339 111.187 161.988 111.187 161.991L108.911 163.997L109.732 167.324C108.466 171.405 110.454 174.466 113.034 175.733C115.654 177.021 118.099 176.274 118.099 176.274C119.011 176.019 119.861 175.578 120.595 174.979C121.329 174.381 121.932 173.637 122.367 172.796C122.861 172.532 123.323 172.211 123.744 171.84C124.462 171.922 126.302 171.978 126.302 171.978C130.075 171.946 133.763 170.877 136.576 168.488C138.792 166.507 141.23 163.127 141.315 158.508C141.315 157.641 141.475 154.144 138.587 151.097C156.81 124.342 168.641 107.117 176.193 89.5916C196.203 43.1372 179.134 23.7676 179.06 23.6016Z" fill="#B1BABF"/>
<path fill-rule="evenodd" clip-rule="evenodd" d="M118.994 159.556C118.991 159.562 118.987 159.573 118.984 159.58C118.98 159.584 118.98 159.587 118.98 159.591L118.991 159.57C118.991 159.562 118.994 159.559 118.994 159.556ZM155.39 117.674C147.371 121.411 128.865 127.608 110.437 124.168C104.024 122.972 95.5832 120.969 84.4208 114.202C77.0984 109.768 69.192 105.528 50.7608 105.609C35.4928 105.683 25.686 112.602 22.5648 115.175C30.8496 88.1432 55.34 92.0968 55.34 92.0968C50.8704 89.952 45.5052 90.7728 45.5052 90.7728C53.1776 78.7012 40.8156 73.0492 40.8156 73.0492C41.8564 73.0492 46.5492 71.694 48.9452 70.8588C51.3444 70.0268 55.7472 69.45 55.7472 69.45C54.2112 68.038 49.4652 66.8984 49.4652 66.8984C53.9492 66.8984 58.0088 64.7252 60.8332 61.7844C61.8168 60.7616 64.51 55.6404 61.4556 53.6552C58.6456 51.8288 53.0716 53.8568 53.068 53.8604C53.0752 53.8532 69.7548 35.8816 104.176 43.5616C120.506 47.2068 138.912 56.7696 155.907 56.872C161.619 56.9076 174.222 55.0532 181.742 47.4828C181.346 61.8656 178.667 82.0104 155.39 117.674ZM133.724 149.32C133.703 149.303 133.671 149.282 133.653 149.267C133.218 148.871 132.656 148.393 132.032 147.873C133.048 146.425 144.684 129.123 148.096 123.758C149.289 123.336 150.45 122.876 151.596 122.395C149.289 126.044 136.7 145.013 133.724 149.32H133.724ZM133.115 164.468C131.537 165.844 128.854 166.722 126.051 166.669C123.553 166.62 121.797 166.216 120.208 165.352C120.202 165.369 120.197 165.387 120.194 165.406C120.07 165.512 119.819 166.088 117.982 166.361C116.75 166.563 116.036 166.315 115.961 166.29C118.127 168.481 120.088 167.101 120.088 167.101C120.18 167.483 120.314 167.756 120.314 167.756C120.314 167.756 119.664 168.712 117.681 168.382C117.441 168.343 117.235 168.276 117.034 168.202C117.072 168.223 117.108 168.237 117.147 168.262C117.908 168.761 118.113 169.784 117.615 170.541C117.373 170.905 116.997 171.159 116.568 171.247C116.139 171.334 115.693 171.249 115.328 171.008C114.964 170.767 114.711 170.391 114.624 169.963C114.537 169.535 114.623 169.09 114.864 168.725C115.057 168.431 115.341 168.207 115.672 168.087C116.003 167.968 116.364 167.958 116.701 168.06C115.214 167.345 114.832 165.852 114.832 165.852C116.733 164.167 116.672 161.116 118.612 156.876C118.7 156.682 118.8 156.484 118.895 156.285C118.895 156.292 118.892 156.3 118.888 156.306C118.467 157.361 118.064 159.173 118.23 160.493C118.265 160.78 118.322 161.042 118.389 161.297V161.3C118.417 161.417 119.069 164.054 120.849 163.625L120.569 164.252C121.348 164.737 123.132 165.582 126.168 165.622C130.433 165.678 132.765 162.872 133.406 160.784C133.908 159.159 133.13 157.354 131.523 155.772C131.994 155.227 132.28 154.466 131.965 153.419C132.11 153.904 131.201 154.767 130.241 154.682C130.153 154.675 130.065 154.66 129.98 154.636C128.532 154.233 126.883 152.47 125.485 151.426C124.094 150.382 123.687 148.765 123.716 147.618C123.737 146.471 123.348 145.112 122.254 144.082C121.16 143.053 120.18 142.954 119.868 142.872C119.554 142.788 119.465 142.592 119.497 142.384C119.561 142.04 120.003 142.104 120.003 142.104C122.658 142.635 124.597 145.265 125.025 146.036C125.421 146.744 129.612 150.018 131.233 151.451C131.99 152.003 135.271 154.519 135.858 157.099C136.555 160.178 134.69 163.094 133.115 164.468ZM128.387 157.468C128.907 157.726 129.654 158.232 130.004 158.964C130.096 159.159 130.139 159.347 130.139 159.556C130.192 160.412 129.191 161.665 128.302 161.994C127.658 162.259 126.805 162.39 125.98 162.387C125.719 162.387 125.46 162.376 125.209 162.351C125.442 161.958 125.726 161.481 126.041 160.967C126.749 159.81 127.626 158.462 128.387 157.468ZM120.998 152.375C121.698 151.186 122.434 150.018 123.181 148.857L123.287 148.698C123.255 148.942 123.17 150.269 123.616 151.586C123.875 152.215 124.285 152.852 124.933 153.447C125.412 153.891 125.902 154.325 126.402 154.746C124.442 157.28 121.663 162.019 121.663 162.019C120.474 162.09 119.879 161.696 119.207 160.263C119.109 160.048 119.033 159.824 118.98 159.594V159.591C118.626 158.115 118.948 156.215 118.956 156.162C119.005 156.062 120.325 153.514 120.998 152.375ZM140.586 125.97C142.214 125.573 143.825 125.142 145.406 124.646C145.452 124.632 145.499 124.618 145.545 124.6C143.927 127.052 131.194 145.272 130.316 146.454C130.245 146.397 128.058 144.525 127.98 144.458C131.226 139.949 140.402 126.249 140.586 125.97ZM180.536 31.5996C180.334 41.2896 177.68 48.0384 177.68 48.0384C173.886 50.3104 168.708 52.7348 162.794 53.6128C150.44 55.4388 144.37 53.5912 132.928 49.932C121.493 46.2724 104.332 38.3768 86.7176 38.4936C69.1 38.6068 56.5256 46.2548 45.2608 54.9536C45.4344 54.9008 48.1984 54.0376 49.1964 53.708C49.1964 53.708 46.5668 56.7944 45.7668 58.5108C45.7668 58.5108 51.0084 54.5928 58.2032 55.0108C58.2032 55.0108 55.7012 55.6368 54.6572 57.2012C54.6572 57.2012 57.5772 56.5712 58.0972 57.7212C58.6212 58.868 56.848 61.4764 53.6168 62.9348C50.3856 64.3964 45.1688 65.5428 41.8316 65.7516C41.8316 65.7516 45.1724 66.7956 47.3596 68.8804C47.3596 68.8804 44.8116 69.2448 42.0404 70.3384C39.7324 71.2516 35.5744 71.8 33.8012 71.5912C33.8012 71.5912 36.2292 73.8632 39.1204 75.6576C47.586 80.9096 44.0116 88.6956 41.2864 91.2472C39.492 91.7568 20.788 96.8464 16.5024 127.042C16.5024 127.042 25.98 113.82 40.3308 110.167C54.6856 106.515 68.6012 110.167 75.906 113.731C83.2104 117.299 94.5181 125.123 109.216 127.562C117.299 128.903 127.032 128.659 136.453 126.858C136.301 127.091 129.113 137.783 126.023 142.094C126.023 142.094 123.73 139.213 120.626 138.926C120.626 138.926 119.324 138.664 118.269 139.213V139.216C117.338 139.644 116.542 140.561 116.283 141.832C116.022 143.12 116.489 144.118 117.098 144.826C117.678 145.502 118.407 145.845 118.998 146.004C119.525 146.132 120.258 146.454 120.396 147.151C118.98 149.331 117.041 152.481 115.643 155.524C114.546 157.92 114.022 159.976 113.583 161.36C113.169 162.78 112.801 163.335 112.68 163.406L111.191 164.719C111.191 164.719 111.76 167.023 111.923 167.409C111.569 168.085 111.382 168.836 111.378 169.599V169.642C111.378 171.206 112.15 172.742 113.551 173.666C114.645 174.42 116.227 174.466 116.227 174.466C117.788 174.466 119.32 173.694 120.244 172.307C120.466 171.971 120.637 171.617 120.76 171.263C121.882 170.806 122.572 170.169 122.93 169.645C123.762 169.836 126.182 169.911 126.282 169.911C129.665 169.886 132.871 168.916 135.218 166.917C137.104 165.229 139.164 162.341 139.231 158.473C139.231 157.782 139.44 154.144 135.947 151.256C139.544 146.059 143.087 140.824 146.575 135.553C153.826 124.564 159.758 115.016 164.27 107.043C168.991 98.938 183.763 76.6732 183.732 46.1876C183.717 37.3044 180.536 31.5996 180.536 31.5996ZM118.984 159.58C118.98 159.584 118.98 159.587 118.98 159.591L118.991 159.57C118.991 159.562 118.994 159.559 118.994 159.556C118.991 159.562 118.987 159.573 118.984 159.58Z" fill="black"/>
<path fill-rule="evenodd" clip-rule="evenodd" d="M143.273 98.067C135.034 103.896 122.134 105.676 122.134 105.676C121.989 106.235 121.136 106.823 121.136 106.823C121.136 106.823 122.456 107.311 125.697 109.749C128.936 112.188 128.058 112.068 129.091 112.765C130.125 113.459 130.713 113.264 130.713 113.264C131.024 113.89 131.063 114.821 131.063 114.821C131.495 115.228 133.607 117.245 131.643 119.333C129.675 121.421 127.403 119.482 127.403 119.482C126.6 119.652 125.818 119.386 125.818 119.386C125.818 119.386 121.614 122.034 117.438 119.149C114.04 116.807 114.245 114.028 114.443 113.069C113.297 113.727 112.065 114.241 110.802 114.637C107.393 115.706 103.044 116.148 98.7225 114.711C95.8841 113.756 93.5345 112.099 91.6797 110.263C89.8217 108.423 88.4485 106.391 87.5533 104.561C87.4215 104.29 87.2964 104.015 87.1781 103.737C86.8805 104.445 85.4581 107.131 81.0517 106.939C75.9801 106.72 74.2213 102.073 74.2213 102.073C74.2213 102.073 73.4393 101.811 72.9013 101.195C72.9013 101.195 69.9213 101.373 69.6097 98.5202C69.3017 95.6674 72.2077 95.335 72.7985 95.271C72.7985 95.271 73.3861 94.549 74.0125 94.2378C74.0125 94.2378 74.3665 94.751 75.6085 94.8178C76.8509 94.8854 76.0793 94.4498 80.1353 94.4606C84.1913 94.4678 85.5357 94.8782 85.5357 94.8782C85.5357 94.8782 85.2101 93.8942 85.4333 93.3602C85.4333 93.3602 76.2213 84.1582 73.1665 74.539C70.1125 64.9198 71.0465 61.3526 74.7557 51.2094C74.7557 51.2094 77.5057 68.4906 85.9465 79.3486C90.7629 85.5458 96.1813 90.3766 99.9505 93.3846C100.035 93.3846 100.124 93.3886 100.209 93.3886C99.4057 92.4926 98.7929 91.4418 98.4889 90.2386C97.7349 87.2658 96.5001 84.5018 95.9337 82.3002C95.3673 80.0954 96.6273 75.6894 96.6273 75.6894C94.9353 72.9782 95.7601 68.5154 95.7601 68.5154C95.7601 68.5154 96.6769 68.0802 97.3741 67.2346C98.0677 66.385 97.8269 63.8794 98.3933 60.1918C98.9597 56.5038 101.359 52.6886 106.675 50.5194C111.962 48.3606 119.904 51.1914 119.975 51.2166C120.046 51.2378 128.09 53.7682 131.006 58.6806C133.937 63.6174 133.547 68.1122 131.774 71.3926C130.001 74.677 128.295 76.5282 128.341 77.625C128.384 78.7186 128.855 79.6178 128.855 79.6178C128.855 79.6178 126.823 83.677 123.833 84.8238C123.833 84.8238 122.18 89.0954 120.396 90.511C118.619 91.927 115.965 93.3846 113.569 95.303C112.624 96.0602 111.538 96.5274 110.38 96.7646C110.458 96.8214 110.532 96.8778 110.611 96.9346C115.427 96.807 122.633 96.223 130.175 94.1954C143.457 90.6206 156.074 78.4958 156.074 78.4958C152.917 88.823 151.508 92.2346 143.273 98.067ZM155.907 56.8718C138.913 56.7694 120.506 47.2066 104.176 43.5614C69.7549 35.8814 53.0753 53.8534 53.0681 53.8602C53.0717 53.8566 58.6457 51.8286 61.4561 53.655C64.5101 55.6402 61.8169 60.7614 60.8329 61.7842C58.0089 64.725 53.9493 66.8982 49.4653 66.8982C49.4653 66.8982 54.2113 68.0378 55.7473 69.4502C55.7473 69.4502 51.3445 70.0266 48.9453 70.8582C46.5493 71.6938 41.8565 73.049 40.8157 73.049C40.8157 73.049 53.1777 78.701 45.5053 90.773C45.5053 90.773 50.8705 89.9518 55.3401 92.0966C55.3401 92.0966 30.8497 88.1434 22.5649 115.175C25.6861 112.602 35.4929 105.683 50.7609 105.609C69.1921 105.527 77.0985 109.767 84.4209 114.202C95.5833 120.969 104.024 122.972 110.437 124.168C128.865 127.608 147.371 121.411 155.391 117.673C178.667 82.0102 181.347 61.8654 181.743 47.4826C174.222 55.053 161.619 56.9074 155.907 56.8718Z" fill="#A71930"/>
<path fill-rule="evenodd" clip-rule="evenodd" d="M118.895 156.285C118.895 156.292 118.891 156.299 118.887 156.306C118.466 157.361 118.063 159.172 118.229 160.493C118.264 160.78 118.321 161.042 118.389 161.296V161.3C117.394 165.869 115.469 165.944 114.959 165.876C114.877 165.865 114.831 165.851 114.831 165.851C116.731 164.167 116.671 161.116 118.611 156.876C118.699 156.681 118.799 156.483 118.895 156.285ZM123.287 148.697C123.257 148.941 123.169 150.268 123.616 151.585C123.612 151.588 121.159 154.795 118.98 159.594C119.014 159.504 118.996 159.548 118.983 159.581C118.981 159.584 118.98 159.587 118.979 159.59C118.626 158.115 118.948 156.214 118.955 156.161C119.004 156.062 120.324 153.514 120.997 152.373C121.698 151.185 122.434 150.017 123.181 148.856L123.287 148.697ZM145.544 124.601C143.927 127.054 131.192 145.27 130.315 146.453C130.244 146.396 128.057 144.524 127.979 144.457C131.225 139.948 140.401 126.25 140.585 125.971C142.213 125.575 143.825 125.143 145.406 124.647C145.452 124.633 145.499 124.619 145.544 124.601ZM124.457 111.334C124.457 111.334 125.169 111.906 125.229 111.951C125.5 112.156 126.081 112.694 126.349 112.957C126.569 113.174 126.79 113.392 127.008 113.612C127.168 113.775 127.831 114.4 128.056 114.568C128.226 114.694 128.399 114.806 128.578 114.894C128.742 114.974 128.912 115.038 129.091 115.081L129.075 115.093C128.706 115.37 128.272 115.552 127.805 115.552C127.645 115.552 127.471 115.528 127.315 115.49C127.098 115.437 126.889 115.358 126.69 115.256C126.484 115.149 126.287 115.025 126.103 114.883C126.101 114.881 126.099 114.875 126.097 114.874C126.118 114.778 126.135 114.676 126.141 114.561C126.167 114.146 126.081 113.668 125.925 113.284C125.666 112.604 124.483 111.356 124.457 111.334H124.457ZM120.175 108.673C120.234 108.706 120.29 108.735 120.351 108.77C120.639 108.932 120.928 109.092 121.214 109.256C121.817 109.604 122.413 109.965 122.998 110.342C123.418 110.609 123.83 110.887 124.235 111.176L124.389 111.29C124.784 111.729 125.186 112.294 125.373 112.818C125.593 113.422 125.608 113.98 125.529 114.389C124.246 113.155 121.549 111.172 120.789 110.779C120.863 109.872 120.489 109.128 120.175 108.673ZM98.631 98.0963C99.0402 98.1487 99.4402 98.2091 99.8318 98.2747C99.6083 98.5812 99.3956 98.8954 99.1942 99.2167C99.6282 99.2955 100.068 99.3855 100.512 99.4855C100.693 99.1539 100.882 98.8287 101.077 98.5119C101.45 98.5924 101.818 98.6787 102.179 98.7711C102.011 99.1036 101.849 99.4387 101.692 99.7763C102.105 99.8867 102.522 100.007 102.941 100.138C103.072 99.7867 103.205 99.4408 103.337 99.1007C103.687 99.2099 104.036 99.3263 104.381 99.4507C104.281 99.8015 104.179 100.157 104.072 100.516C104.485 100.663 104.889 100.818 105.286 100.977C105.364 100.611 105.437 100.247 105.502 99.8871C105.848 100.031 106.192 100.183 106.539 100.345C106.503 100.715 106.458 101.084 106.403 101.452C106.817 101.637 107.222 101.828 107.615 102.023C107.647 101.65 107.666 101.278 107.673 100.907C108.026 101.09 108.381 101.284 108.739 101.488C108.755 101.862 108.757 102.236 108.741 102.609C108.958 102.727 109.169 102.846 109.379 102.966C109.381 103.024 109.381 103.083 109.383 103.142C109.39 103.472 109.386 103.803 109.371 104.134C109.367 104.23 109.362 104.326 109.357 104.422C109.106 104.294 108.853 104.168 108.595 104.043C108.5 104.622 108.357 105.191 108.167 105.746C107.784 105.525 107.397 105.312 107.005 105.109C107.177 104.574 107.313 104.033 107.415 103.488C106.996 103.298 106.567 103.111 106.13 102.928C106.014 103.45 105.875 103.967 105.715 104.477C105.314 104.291 104.909 104.114 104.5 103.946C104.659 103.446 104.804 102.946 104.935 102.448C104.503 102.282 104.068 102.121 103.63 101.968C103.478 102.457 103.322 102.944 103.162 103.43C102.747 103.281 102.329 103.14 101.909 103.01C102.075 102.52 102.245 102.038 102.416 101.562C101.974 101.421 101.531 101.287 101.085 101.16C100.887 101.64 100.702 102.125 100.529 102.614C100.102 102.501 99.6731 102.398 99.2418 102.304C99.4203 101.803 99.62 101.31 99.8402 100.826C99.3802 100.71 98.9246 100.601 98.4746 100.502C98.2284 100.998 98.0133 101.509 97.8306 102.031C97.3947 101.956 96.9572 101.892 96.5182 101.838C96.6995 101.286 96.9264 100.751 97.1966 100.238C96.9167 100.184 96.6362 100.133 96.3554 100.085C96.6004 99.7153 96.8609 99.3563 97.1362 99.0087C97.1602 98.9783 97.1838 98.9471 97.2082 98.9175C97.449 98.9455 97.6922 98.9775 97.9374 99.0127C98.1552 98.6974 98.3867 98.3916 98.631 98.0963ZM151.989 84.7039C151.923 84.8583 149.299 90.8851 138.385 95.6199C137.889 95.8366 137.389 96.0448 136.886 96.2443C134.667 97.0791 129.996 98.6579 123.817 99.7731C121.32 100.224 118.793 100.532 116.265 100.744C116.063 100.761 114.597 100.868 114.597 100.868C114.123 100.262 113.618 99.6809 113.082 99.1279C116.432 98.9799 119.871 98.6475 123.247 98.0411C137.174 95.5379 145.727 89.7131 149.829 86.4747C150.203 86.1783 150.533 85.9095 150.835 85.6611C151.539 85.0911 151.976 84.7299 151.989 84.7039ZM79.8442 96.4879C79.9682 96.4867 80.2162 96.4919 80.1974 96.4939C79.5486 96.5299 78.5214 96.7679 77.8674 97.1607C77.8638 97.1623 77.8602 97.1655 77.8562 97.1683C77.4822 97.3863 77.083 97.7523 76.8798 98.1371C76.8662 98.1623 76.7918 98.3023 76.7718 98.3251C74.6426 98.3251 74.2618 96.7131 74.2538 96.6839C74.4298 96.7591 74.6086 96.8107 74.7926 96.8455L74.939 96.8691C75.087 96.8891 75.2386 96.8975 75.3946 96.8983C76.0486 96.9043 76.7274 96.7807 77.4346 96.6823C78.2326 96.5707 79.0382 96.4919 79.8442 96.4879ZM80.295 96.4931C80.5738 96.4987 80.8522 96.5071 81.131 96.5211C81.5702 96.5423 82.0094 96.5735 82.4482 96.6131C83.3306 96.6919 84.3582 96.8091 85.2338 96.9475C84.7082 97.1223 83.9838 97.4663 83.4954 98.2379C83.4889 98.2443 83.4826 98.251 83.4766 98.2579C82.6302 98.1119 79.283 98.0683 77.5166 98.2771C77.6998 97.9039 78.0486 97.4675 78.5874 97.1175C79.0522 96.8123 79.7162 96.6047 80.295 96.4931ZM74.3154 58.6371C75.0774 61.8439 77.3414 73.7819 89.193 86.6207C91.5378 89.1607 94.1022 91.5163 96.705 93.6687C95.9409 93.7916 95.1839 93.9548 94.437 94.1575C92.6158 92.5523 88.4034 88.4023 88.1834 88.1863L88.1746 88.1775C84.6486 84.6279 82.0162 81.2171 80.0358 78.0459C79.623 77.3707 79.3026 76.8143 79.0466 76.3983L78.6546 75.6931C73.1878 65.6811 74.3154 58.6371 74.3154 58.6371ZM98.0774 80.3795C98.6314 79.9155 99.8794 80.1315 99.8794 80.1315C99.8794 80.1315 100.439 80.7203 100.571 81.1603C100.7 81.6035 100.567 84.0179 101.521 85.6791V85.6399C101.521 85.6399 101.568 85.4643 101.771 85.1627C101.975 84.8611 102.371 84.4335 102.609 84.6023C102.847 84.7707 102.815 85.2455 102.809 85.7539C102.805 86.2619 102.634 86.8055 102.505 86.9591C102.505 86.9591 102.703 87.3647 103.241 87.6211C103.241 87.6211 103.219 87.4275 103.258 87.1515C103.343 86.6643 103.588 86.2619 103.745 85.8191C103.793 85.6639 103.944 85.5043 104.17 85.6255C104.174 85.6255 104.619 85.8575 105.014 86.0547C105.06 86.0879 105.334 86.2971 105.187 86.6907C105.181 86.7051 105.179 86.7135 105.175 86.7243C105.169 86.7423 105.161 86.7575 105.155 86.7755C105.007 87.1467 104.882 87.4863 104.693 87.8779C104.693 87.8779 104.596 88.2399 104.426 88.2551C104.426 88.2551 104.757 88.4727 104.907 88.5355C105.135 88.6323 105.419 88.7547 105.559 88.7895C105.559 88.7895 105.408 88.5551 105.446 88.2203C105.537 87.7431 105.678 87.0867 105.799 86.5371C105.84 86.4079 105.956 86.1895 106.221 86.2731C106.52 86.3963 106.824 86.5131 107.129 86.6243C107.384 86.7315 107.382 86.9839 107.372 87.0683C107.232 87.6755 107.076 88.4027 106.91 88.9835C106.872 89.0723 106.819 89.1963 106.775 89.2419C106.775 89.2419 107.048 89.4339 107.232 89.4827C107.415 89.5307 107.762 89.6007 107.762 89.6007C107.762 89.6007 107.695 89.3659 107.779 89.1155C107.781 89.1107 107.781 89.1063 107.781 89.1003L108.19 87.9319C108.223 87.8319 108.32 87.6103 108.375 87.4667C108.405 87.3943 108.523 87.1715 108.794 87.2291C109.151 87.3363 109.51 87.4351 109.871 87.5251C110.137 87.6039 109.985 88.0131 109.985 88.0131C109.985 88.0131 109.598 88.9635 109.348 89.5759C109.345 89.5747 109.261 89.7903 109.122 89.9035C109.122 89.9035 109.371 90.0135 109.557 90.0507C109.95 90.1283 110.183 90.1207 110.282 90.1275C110.282 90.1275 110.161 89.8343 110.303 89.4839C110.312 89.4695 110.315 89.4519 110.321 89.4359C110.441 89.1583 110.565 88.8815 110.68 88.6031C110.714 88.5247 110.743 88.4459 110.775 88.3659C110.815 88.2459 111.006 88.0491 111.32 88.1051C111.331 88.1055 111.337 88.1043 111.347 88.1055C111.598 88.1527 111.848 88.1947 112.099 88.2335C112.102 88.2363 112.551 88.3283 112.387 88.7487C112.158 89.2623 111.912 89.7683 111.65 90.2659C111.93 90.2879 112.213 90.3039 112.495 90.3115C112.495 90.3115 112.46 90.2863 112.576 89.9723C112.692 89.6583 113.032 88.9891 113.066 88.8895C113.1 88.7915 113.23 88.4027 113.393 88.3835C113.558 88.3659 114.198 88.8795 114.032 89.8691C115.792 89.1171 117.137 87.1163 117.507 86.8439C117.83 86.6055 118.476 86.4759 118.639 86.4463C118.911 86.6031 119.7 87.0975 119.834 87.6807C119.834 87.6807 118.507 88.9011 116.874 89.6207C115.239 90.3407 112.765 91.8999 111.791 92.5495C111.421 92.7951 110.92 93.0071 110.285 93.1239C109.89 92.4183 108.514 91.5475 106.75 90.9551C104.907 90.3355 103.214 90.2159 102.523 90.5995C102.02 90.0839 101.713 89.5691 101.555 89.1151C101.172 88.0095 100.137 85.2723 99.269 83.7131C98.3994 82.1531 98.077 80.3795 98.077 80.3795H98.0774ZM103.419 60.0819C103.454 58.2451 105.397 50.6859 115.473 52.4019C117.331 52.7879 118.821 53.2375 119.21 53.3611C119.249 53.3755 119.284 53.3859 119.323 53.4003C119.514 53.4603 119.776 53.5451 120.091 53.6619C120.183 53.6975 120.279 53.7327 120.378 53.7719C120.509 53.8215 120.647 53.8743 120.792 53.9347C120.983 54.0123 121.185 54.0975 121.397 54.1895C121.606 54.2851 121.825 54.3839 122.052 54.4935C122.579 54.7479 123.094 55.0267 123.595 55.3291C123.648 55.3571 123.701 55.3891 123.751 55.4211C123.768 55.4279 123.783 55.4387 123.797 55.4491C127.899 57.9443 129.024 60.9915 129.024 63.5115C129.024 65.7267 128.153 67.5387 127.676 68.2075C127.003 69.1419 126.398 69.7827 126.087 70.2535C125.715 69.5879 125.428 68.8803 125.319 68.1723V68.1747L125.319 68.1831C125.333 68.3919 125.573 71.6063 127.209 73.2567L127.293 73.3395C127.293 73.3395 126.341 75.4663 126.143 76.7583C125.949 78.0535 126.451 79.4159 126.451 79.4159C126.451 79.4159 126.323 79.6215 126.139 79.9043C125.135 81.0899 123.375 82.1163 122.431 81.9431C121.359 81.7447 118.775 80.8671 117.278 81.1751C116.05 81.4299 115.31 82.1231 114.903 82.8243C114.903 82.8243 114.907 82.8203 114.91 82.8203C114.8 82.9515 114.698 83.0967 114.627 83.2667C114.627 83.2667 114.308 83.8223 114.22 84.5655C114.001 84.4699 113.813 84.3955 113.813 84.3955C113.817 84.4347 113.817 84.4875 113.806 84.5443C113.792 84.6539 113.742 84.8307 113.735 84.8555C113.735 84.8821 113.73 84.9085 113.721 84.9335C113.696 85.0327 113.668 85.1319 113.643 85.2307C113.551 85.5693 113.45 85.9057 113.342 86.2395C113.336 86.2469 113.331 86.2553 113.328 86.2643C113.215 86.6003 112.875 86.4907 112.875 86.4907C112.862 86.4866 112.849 86.482 112.837 86.4767C112.589 86.3527 112.316 86.2219 112.033 86.0871C112.033 86.0871 111.714 85.9211 111.764 85.5919C111.76 85.5847 111.764 85.5775 111.767 85.5672C111.771 85.5527 111.767 85.5423 111.775 85.5315C111.785 85.5035 111.792 85.4679 111.803 85.4435C111.891 85.1247 112.079 84.4415 112.103 84.2823C112.135 84.0947 112.259 83.7515 112.337 83.6171C112.284 83.5639 112.149 83.4187 112.033 83.3623C111.934 83.3127 111.827 83.2915 111.682 83.3023C111.629 83.3479 111.541 83.4863 111.537 83.5603C111.533 83.6027 111.421 83.9567 111.297 84.3459C111.169 84.7387 111.024 85.1707 110.961 85.3651C110.89 85.5775 110.737 85.6235 110.613 85.6235C110.537 85.6235 110.471 85.6059 110.444 85.5967L110.429 85.5919C110.182 85.4927 109.845 85.3723 109.58 85.2731C109.563 85.2699 109.548 85.2591 109.531 85.2555C109.212 85.1355 109.233 84.8627 109.255 84.7531C109.393 84.3423 109.569 83.8223 109.704 83.4151C109.732 83.3195 109.768 83.2243 109.796 83.1251C109.796 83.1215 109.8 83.1179 109.803 83.1107C109.814 83.0683 109.934 82.7639 110.118 82.6719C109.998 82.5799 109.757 82.4843 109.577 82.4207C109.361 82.3499 108.975 82.2827 108.954 82.2791C109.017 82.4171 109.032 82.6579 109 82.7783C108.954 82.9375 108.529 84.4203 108.511 84.4771C108.49 84.5335 108.415 84.7107 108.299 84.7531C108.186 84.7955 107.867 84.6931 107.867 84.6931L107.814 84.6823C107.545 84.6007 107.163 84.5407 106.909 84.4699C106.909 84.4699 106.491 84.3499 106.621 83.9675C106.621 83.9675 106.894 82.9695 107.029 82.4951C107.029 82.4808 107.032 82.4666 107.035 82.4527C107.046 82.4171 107.106 82.2191 107.127 81.9183C107.149 81.6175 106.947 81.5463 106.799 81.5463C106.657 81.5463 106.501 81.8015 106.466 81.9503C106.427 82.1095 106.338 82.3747 106.338 82.3747L106.328 82.3995C106.317 82.4243 106.307 82.4491 106.299 82.4703C106.163 82.8314 106.034 83.1948 105.91 83.5603C105.787 83.8867 105.448 83.8615 105.378 83.8523L105.365 83.8507C105.076 83.7891 104.785 83.7313 104.495 83.6771C104.491 83.6771 104.455 83.6667 104.455 83.6631C104.455 83.6631 104.115 83.5463 104.229 83.2099C104.229 83.1995 104.229 83.1887 104.236 83.1779C104.357 82.8279 104.459 82.5447 104.601 82.1939C104.639 82.1019 104.781 81.7659 104.863 81.6351C104.947 81.5043 105.061 81.4335 105.061 81.4335C105.065 81.3555 104.947 81.2103 104.735 81.1359C104.707 81.128 104.679 81.1209 104.65 81.1147C104.774 80.8067 104.93 80.3823 105.004 80.0247C105.238 79.1579 105.209 77.9367 104.204 76.7867C103.196 75.6363 100.601 74.7799 99.6318 74.2915C98.6586 73.8031 97.7842 71.4567 97.901 69.8355C97.901 69.8355 99.1222 69.0499 99.745 67.8995C100.375 66.7531 100.892 64.4847 100.892 64.4847C103.245 64.2191 105.447 61.7135 105.581 61.5579C104.997 62.1207 104.233 62.5419 103.44 62.8671C103.482 62.3295 103.394 61.4231 103.419 60.0819Z" fill="white"/>
<path fill-rule="evenodd" clip-rule="evenodd" d="M119.496 142.382C119.561 142.038 120.003 142.102 120.003 142.102C122.657 142.633 124.597 145.263 125.025 146.034C125.421 146.742 129.612 150.016 131.233 151.449C131.991 152.001 135.271 154.518 135.858 157.098C136.556 160.177 134.691 163.093 133.115 164.467C131.537 165.844 128.854 166.721 126.051 166.668C123.553 166.618 121.797 166.215 120.209 165.352C120.201 165.369 120.196 165.386 120.194 165.405C120.07 165.51 119.819 166.088 117.982 166.36C116.75 166.562 116.035 166.314 115.961 166.29C118.127 168.48 120.087 167.1 120.087 167.1C120.18 167.482 120.314 167.755 120.314 167.755C120.314 167.755 119.663 168.711 117.681 168.382C117.46 168.343 117.243 168.282 117.033 168.201C117.072 168.222 117.107 168.236 117.147 168.261C117.908 168.76 118.113 169.783 117.614 170.54C117.372 170.905 116.996 171.158 116.567 171.246C116.139 171.334 115.693 171.248 115.328 171.008C114.964 170.766 114.71 170.39 114.623 169.962C114.536 169.534 114.623 169.089 114.864 168.725C115.057 168.431 115.34 168.207 115.672 168.087C116.003 167.967 116.364 167.957 116.701 168.06C115.214 167.344 114.832 165.85 114.832 165.85C114.832 165.85 114.878 165.864 114.959 165.876C115.469 165.943 117.394 165.868 118.389 161.3C118.417 161.416 119.069 164.052 120.849 163.624C120.831 163.664 120.573 164.244 120.569 164.251C121.347 164.736 123.131 165.582 126.168 165.621C130.433 165.677 132.765 162.871 133.406 160.783C133.909 159.158 133.13 157.353 131.523 155.771C131.994 155.226 132.281 154.465 131.965 153.417C132.111 153.902 131.201 154.766 130.241 154.681C130.153 154.674 130.066 154.659 129.98 154.635C128.532 154.231 126.883 152.469 125.485 151.425C124.094 150.381 123.687 148.763 123.716 147.617C123.736 146.47 123.347 145.11 122.254 144.081C121.16 143.051 120.18 142.952 119.868 142.87C119.553 142.785 119.464 142.59 119.496 142.382ZM128.386 157.466C128.906 157.724 129.653 158.231 130.003 158.963C130.095 159.158 130.139 159.346 130.139 159.554C130.192 160.411 129.19 161.664 128.301 161.993C127.657 162.258 126.804 162.389 125.979 162.385C125.717 162.385 125.459 162.375 125.208 162.35C125.442 161.957 125.725 161.48 126.039 160.966C126.747 159.809 127.626 158.461 128.386 157.466V157.466ZM123.616 151.584C123.875 152.214 124.285 152.851 124.933 153.446C125.412 153.89 125.902 154.324 126.402 154.745C124.441 157.279 121.663 162.018 121.663 162.018C120.474 162.089 119.879 161.696 119.207 160.262C119.109 160.047 119.033 159.823 118.98 159.593C121.159 154.794 123.613 151.587 123.616 151.584ZM151.597 122.396C149.289 126.044 136.7 145.012 133.723 149.319C133.703 149.301 133.67 149.28 133.653 149.266C133.217 148.87 132.655 148.391 132.032 147.871C133.047 146.423 144.685 129.12 148.097 123.758C149.276 123.338 150.444 122.883 151.597 122.396ZM120.059 104.444C120.059 104.444 120.266 104.291 120.389 104.447C120.462 104.544 120.47 104.668 120.333 104.794C120.199 104.922 119.73 105.235 119.452 106.05C119.173 106.872 119.346 107.665 119.667 108.24C119.965 108.775 120.092 109.418 119.989 110.023C119.953 110.24 119.889 110.451 119.797 110.65C119.569 111.137 119.391 111.645 119.185 112.141C118.959 112.681 118.709 113.184 118.387 113.49C118.029 113.83 117.453 113.725 117.099 113.44C117.085 113.428 117.067 113.42 117.053 113.408C117.202 114.046 117.602 114.302 118.017 114.394C117.823 115.668 118.275 116.596 119.809 117.349C121.379 118.118 124.103 118.115 126.137 116.174C125.933 115.945 125.689 115.778 125.452 115.587C125.449 115.584 125.445 115.581 125.442 115.58C125.6 115.534 125.804 115.448 125.934 115.286C126.006 115.196 126.058 115.047 126.095 114.876L126.103 114.882C126.287 115.024 126.484 115.148 126.691 115.254C126.89 115.357 127.099 115.437 127.316 115.49C127.471 115.527 127.645 115.551 127.805 115.551C128.272 115.551 128.706 115.369 129.075 115.093C129.079 115.09 129.085 115.087 129.088 115.084C129.092 115.086 129.123 115.31 129.125 115.36C129.14 115.65 129.109 116.112 128.836 116.564C128.978 116.455 129.149 116.389 129.328 116.375C129.506 116.361 129.685 116.4 129.843 116.485C129.95 116.543 130.045 116.622 130.122 116.717C130.199 116.812 130.257 116.921 130.292 117.038C130.326 117.155 130.338 117.278 130.325 117.4C130.312 117.522 130.276 117.639 130.217 117.747C130.159 117.854 130.08 117.95 129.985 118.027C129.89 118.104 129.781 118.161 129.664 118.196C129.547 118.231 129.424 118.242 129.302 118.23C129.18 118.217 129.062 118.18 128.955 118.122C128.747 118.009 128.591 117.819 128.518 117.594C128.446 117.368 128.463 117.123 128.566 116.91C128.493 116.985 128.424 117.061 128.333 117.132C127.797 117.544 127.379 117.607 127.119 117.591C126.933 117.579 126.826 117.528 126.826 117.528C126.826 117.528 126.837 117.411 126.785 117.215C126.778 117.189 126.773 117.166 126.764 117.136C126.828 117.142 126.946 117.143 127.093 117.123C127.546 117.058 128.287 116.771 128.643 115.604C128.643 115.604 128.556 115.717 128.406 115.864C128.08 116.186 127.408 116.668 126.483 116.599C126.039 116.98 123.292 119.163 120 117.998C116.406 116.725 116.378 114.506 116.468 113.781C116.527 113.308 116.78 112.528 116.792 112.49C117.084 111.582 118.567 108.3 118.575 107.792C118.583 107.284 118.855 105.428 120.059 104.444V104.444ZM120.79 110.778C121.549 111.171 124.247 113.154 125.53 114.388C125.489 114.594 125.433 114.772 125.351 114.876C125.224 115.036 125.039 115.124 124.88 115.178C123.751 114.405 122.037 113.392 120.23 112.578C120.341 112.299 120.47 111.952 120.622 111.523C120.719 111.247 120.79 110.778 120.79 110.778ZM87.6114 93.4488C87.805 93.398 87.879 93.6456 87.879 93.6456C88.2438 95.1564 87.3422 96.8 87.0434 97.2108C86.7434 97.6196 85.9446 101.132 85.6294 102.035C85.6294 102.035 85.2574 102.961 85.1094 103.26C84.783 103.913 83.3826 105.645 79.7482 104.49C76.419 103.434 75.5282 100.039 75.4042 99.4712C74.269 98.7404 74.3006 97.368 74.3006 97.368C73.7422 98.8885 74.6606 99.5849 74.8758 99.724C74.851 99.708 74.6602 99.9072 74.6378 99.9332C74.6346 99.9372 74.5918 99.998 74.5886 99.9972C74.5886 99.9972 74.2622 99.9356 73.9622 99.5116C73.837 99.3348 73.7154 99.102 73.6262 98.7744C73.5952 98.6622 73.5733 98.5477 73.5606 98.432C73.5594 98.4448 73.559 98.4568 73.557 98.4692C73.5193 98.7159 73.3853 98.9376 73.1844 99.0856C72.9835 99.2336 72.7321 99.2959 72.4854 99.2588C72.2385 99.221 72.0167 99.0868 71.8686 98.8857C71.7204 98.6846 71.658 98.4331 71.695 98.186C71.7289 97.9668 71.8391 97.7666 72.0061 97.6207C72.1732 97.4748 72.3865 97.3925 72.6083 97.3884C72.8301 97.3844 73.0462 97.4588 73.2185 97.5985C73.3908 97.7382 73.5083 97.9342 73.5502 98.152C73.5786 97.226 74.2542 96.6832 74.2542 96.6832C74.2622 96.7124 74.643 98.3244 76.7722 98.3244C76.6982 98.484 76.6498 98.6332 76.6522 98.7484C76.6594 98.9564 76.7682 99.148 76.8698 99.28H76.765C76.5298 99.28 75.9562 99.2856 75.9554 99.3348C76.4062 102.111 78.5778 103.756 80.2926 104.088C81.9682 104.414 82.889 103.948 83.5006 102.819C83.8886 102.996 84.3654 103.027 84.8706 102.609C84.1314 102.64 83.8106 102.192 83.7546 101.869C83.6078 101.018 84.1378 99.7296 84.3434 98.7516C84.5526 97.7732 85.2954 97.174 85.8994 96.9096C86.5046 96.6448 87.1182 96.1148 87.3922 95.2932C87.665 94.4748 87.4778 93.9416 87.4474 93.7588C87.4154 93.5752 87.4954 93.4812 87.6114 93.4488ZM151.989 84.7032C151.991 84.7024 151.925 84.896 151.925 84.896C151.112 87.24 149.606 89.4204 147.958 91.2516C146.76 92.5828 145.454 93.7956 144.061 94.92C141.923 96.6448 139.493 98.0432 137.015 99.2136C134.553 100.376 131.972 101.299 129.351 102.026C125.249 103.163 120.911 103.759 116.623 104C116.275 103.332 115.888 102.684 115.464 102.061C129.245 101.074 138.316 95.6744 138.316 95.6744L138.385 95.6192C149.299 90.8844 151.923 84.8576 151.989 84.7032ZM77.5166 98.2764C79.2834 98.0676 82.6306 98.1112 83.4766 98.2576C83.4826 98.2506 83.489 98.2439 83.4958 98.2376C83.3531 98.4601 83.24 98.7003 83.1594 98.952C83.0437 99.3089 82.9352 99.6681 82.8338 100.029C80.7978 99.4704 77.5578 99.2976 77.5578 99.2976C77.4654 99.1616 77.3698 98.978 77.3646 98.7744C77.3618 98.6416 77.4246 98.4648 77.5166 98.2764ZM74.3158 58.6364C74.3158 58.6364 73.1882 65.6804 78.655 75.6924L78.6382 75.6624L78.6238 75.6364C78.6238 75.6364 82.5198 85.2732 92.7378 94.3116L93.0494 94.5852C92.3372 94.8303 91.639 95.1141 90.9578 95.4352C90.855 95.484 89.8246 94.4576 89.6982 94.3452C88.6678 93.4343 87.6653 92.4923 86.6922 91.5204C84.4266 89.2544 82.337 86.8068 80.5054 84.1764C79.0178 82.0412 77.6822 79.7924 76.6022 77.424C75.5462 75.1096 74.6858 72.7116 74.1474 70.2224C73.6406 67.8796 73.4158 65.4704 73.5426 63.0752C73.6174 61.6592 73.7898 60.1872 74.2478 58.8388L74.3158 58.6368V58.6364ZM98.9142 76.006C98.9142 76.006 99.875 76.4724 100.174 76.6472C100.174 76.6472 100.172 76.6572 100.169 76.6784C100.133 76.9472 99.8798 78.864 99.8666 79.7864C99.8654 79.928 99.8678 80.0464 99.8798 80.1308C99.8798 80.1308 98.6318 79.9148 98.0778 80.3788C98.0778 80.3788 98.3998 82.1524 99.2694 83.7124C100.137 85.2716 101.172 88.0084 101.556 89.1144C101.713 89.5684 102.021 90.0832 102.524 90.5988C103.215 90.2152 104.907 90.3348 106.751 90.9544C108.514 91.5464 109.89 92.4176 110.286 93.1232C110.92 93.0065 111.422 92.7944 111.791 92.5488C112.766 91.8992 115.239 90.34 116.875 89.62C118.508 88.9004 119.835 87.68 119.835 87.68C119.7 87.0968 118.911 86.6024 118.639 86.4456L118.677 86.4396C119.131 85.9809 120.376 83.7836 120.53 83.5116L120.546 83.4832C120.891 83.5252 121.936 83.7312 121.936 83.7312C121.936 83.7312 120.848 86.2612 120.204 87.3508C119.561 88.4361 119.038 88.8052 118.412 89.2476C117.786 89.6888 115.025 91.5136 114.293 92.0288C113.565 92.5444 111.625 94.284 109.932 94.5848C109.092 94.7332 108.364 94.7512 107.672 94.674C106.981 94.5961 106.326 94.4228 105.635 94.1916C105.63 94.1906 105.626 94.1888 105.622 94.1864C105.616 94.1852 105.611 94.1844 105.608 94.1832C104.225 93.718 103.104 93.1544 101.943 91.9032C100.919 90.8008 100.411 88.7044 100.119 87.6272C100.084 87.4951 100.046 87.3637 100.005 87.2332C99.7342 86.3824 98.6334 83.2612 98.3998 82.532C98.165 81.8016 97.9714 81.192 98.115 79.9376C98.249 78.7596 98.8342 76.3352 98.907 76.0364C98.911 76.0164 98.9142 76.006 98.9142 76.006ZM114.629 83.2672C114.629 83.2672 115.255 82.8248 116.377 82.8784C116.377 82.8784 116.37 82.8853 116.37 82.8888L116.377 82.8848C116.345 82.97 116.091 83.6672 116.023 84.2796C115.984 84.658 115.8 85.614 115.8 85.6212C115.471 86.768 114.367 87.4012 114.267 87.3376C114.151 87.2632 113.999 86.9836 114.494 85.3976C114.494 85.3204 114.749 85.2284 114.806 85.232C114.908 85.214 115.011 85.2 115.113 85.1824C115.113 85.1824 115.085 85.1224 114.979 84.97C114.933 84.8952 114.813 84.8492 114.739 84.8069C114.653 84.7608 114.222 84.5696 114.222 84.566C114.278 84.1166 114.413 83.6807 114.622 83.2788L114.629 83.2672ZM97.9018 69.8356C97.785 71.4568 98.6594 73.8036 99.6326 74.2916C100.602 74.7796 103.197 75.6364 104.206 76.7868C105.211 77.9372 105.239 79.1588 105.006 80.0256C104.931 80.3828 104.775 80.8076 104.652 81.1156C104.583 81.0984 104.513 81.0865 104.443 81.08C104.237 81.0552 103.912 81.0336 103.844 81.2888C103.841 81.2992 103.837 81.3068 103.837 81.3068C103.869 81.416 103.894 81.5508 103.88 81.6252C103.862 81.7064 103.834 81.7812 103.82 81.8168C103.264 83.3772 102.97 83.5116 102.832 83.5008C102.715 83.494 102.216 82.3192 102.645 81.2072C102.648 81.2004 102.651 81.1936 102.651 81.1864C102.871 80.6904 103.079 80.3296 103.275 80.004C103.618 79.4376 103.837 78.67 103.837 78.67L103.844 78.684V78.6732C104.131 78.8684 104.375 79.1052 104.602 79.3632C104.609 79.3708 104.612 79.3744 104.612 79.378C104.715 79.5476 104.874 79.678 104.966 79.8592C104.99 79.9029 105.004 79.951 105.009 80.0004C105.086 79.7032 105.076 79.3424 104.962 79.0524C104.956 79.0416 104.956 79.0308 104.952 79.0204C104.531 77.87 103.441 77.194 102.428 76.6204C101.752 76.2384 101.048 75.9052 100.337 75.5944C98.2526 74.6776 98.2206 74.0688 97.9406 73.1064C97.9051 72.9689 97.878 72.8293 97.8594 72.6884C97.8206 72.3804 97.8098 72.0124 97.8098 71.6476C97.8098 70.7384 97.9018 69.8356 97.9018 69.8356ZM126.138 79.9052C126.131 79.9189 126.123 79.9317 126.113 79.9436C125.696 80.6876 125.133 81.4836 124.446 82.0004C123.646 82.602 123.254 83.0656 121.035 82.5416C120.164 82.3328 119.283 82.1456 118.395 82.0356C117.258 81.8908 115.754 81.8516 114.926 82.8068C114.922 82.8144 114.919 82.8144 114.912 82.8212C114.904 82.8212 114.901 82.8284 114.898 82.832C115.308 82.128 116.048 81.4304 117.279 81.176C118.777 80.8676 121.36 81.7452 122.433 81.944C123.378 82.1172 125.133 81.0905 126.138 79.9052ZM112.435 74.1816C113.235 74.502 113.68 75.3056 113.439 76.0256C113.287 76.486 113.323 76.854 113.357 77.3424L113.361 77.3568V77.364C113.379 77.7564 113.467 77.9656 113.563 78.2344C113.659 78.486 113.776 78.886 113.627 79.296L113.439 79.8552C113.188 80.6096 112.282 80.9812 111.419 80.6944C111.419 80.6904 111.999 80.5424 112.187 79.9864C112.19 79.9796 112.193 79.972 112.193 79.9652C112.551 79.912 112.863 79.7 112.975 79.36L113.174 78.776C113.372 78.178 112.93 77.9088 112.905 76.9428C112.869 76.4436 112.834 75.9584 113.029 75.382C113.185 74.914 112.923 74.396 112.435 74.1816ZM110.317 74.9748C110.562 74.26 111.401 73.8812 112.243 74.1184C111.723 73.9872 111.195 74.246 111.039 74.7128C110.845 75.2932 110.516 75.6544 110.19 76.0296C109.585 76.7868 109.068 76.7336 108.87 77.3324L108.672 77.916C108.559 78.2524 108.679 78.6064 108.927 78.8648C108.923 78.8725 108.92 78.881 108.919 78.8896C108.732 79.4488 109.107 79.9156 109.107 79.9156C108.247 79.6256 107.751 78.7836 108.003 78.0328L108.191 77.4736C108.321 77.0556 108.65 76.8044 108.884 76.6632C109.125 76.5072 109.32 76.394 109.571 76.0932L109.581 76.0788C109.911 75.7108 110.165 75.4348 110.317 74.9748ZM125.459 73.184L125.491 73.1872C125.491 73.1872 125.048 76.1748 124.319 77.346C123.59 78.5212 122.893 79.6045 121.081 79.5052C121.081 79.5052 122.131 79.2012 121.796 78.376C121.771 78.316 121.753 78.256 121.739 78.192C122.224 77.92 122.659 77.7144 123.056 77.3004C123.583 76.7516 124 76.0752 124.301 75.382C124.432 75.0736 124.543 74.7588 124.631 74.4368C124.631 74.4368 124.865 73.3644 125.317 73.2052C125.367 73.1985 125.413 73.1908 125.459 73.184ZM111.255 70.264C111.641 71.1028 114.681 72.122 115.513 71.6936C115.509 71.7116 115.432 72.8052 115.435 73.4564C115.439 74.1112 115.662 76.6416 116.77 77.304C116.774 77.304 116.497 77.6328 116.851 78.6628C116.766 78.6348 115.379 78.1216 114.88 76.9992C114.363 75.8452 114.866 72.7448 113.011 72.0972C111.142 71.4924 109.674 74.2704 108.562 74.8792C107.455 75.4876 105.982 75.0168 105.982 75.0168C106.836 74.448 106.87 74.0364 106.87 73.9856V73.9804C108.151 74.122 109.851 72.2388 110.25 71.7152C110.647 71.1952 111.255 70.264 111.255 70.264ZM102.397 65.436L102.418 65.4504L102.425 65.454C102.457 65.486 102.493 65.5212 102.524 65.5568C102.79 65.9568 102.33 66.9512 102.33 66.9512C102.215 67.2409 102.119 67.5376 102.043 67.8396C101.777 68.8696 101.678 70.1472 102.103 71.1736C102.121 71.2088 102.39 71.676 102.376 71.6904C102.351 71.7124 102.325 71.7324 102.297 71.7504C102.27 71.7707 102.242 71.7897 102.213 71.8072C101.476 72.2388 102.053 73.0672 102.099 73.1308C100.599 72.122 100.691 70.8372 100.822 69.4608C100.949 68.0872 102.397 65.436 102.397 65.436ZM122.053 54.4932L122.463 54.6664C133.013 59.7416 130.688 67.7576 130.083 69.29C129.534 70.6668 128.444 72.026 127.967 72.8008C127.407 72.1888 126.653 71.2756 126.087 70.2528C126.399 69.782 127.003 69.1412 127.676 68.2072C128.154 67.538 129.024 65.726 129.024 63.5108C129.024 60.9908 127.899 57.9436 123.797 55.4488C123.783 55.4373 123.768 55.4278 123.751 55.4204C123.7 55.3877 123.648 55.357 123.595 55.3284C123.094 55.0262 122.579 54.7475 122.053 54.4932ZM105.689 63.5784C107.451 63.1396 110.314 65.808 111.999 67.2132C113.432 68.4804 114.059 68.6008 114.187 68.636C114.317 68.6856 114.887 68.968 116.787 68.82C118.982 68.7172 122.875 68.314 124.018 69.7296C124.018 69.7684 121.251 69.4572 119.385 69.7576C117.53 70.1508 114.898 70.4024 113.729 69.9952C112.555 69.616 110.604 67.8256 109.365 66.3956C108.067 65.0396 105.688 63.6244 105.688 63.5784H105.689ZM111.679 51.998C112.525 51.998 113.431 52.058 114.404 52.196C114.755 52.256 115.095 52.3236 115.423 52.3908L115.473 52.4016C105.397 50.6848 103.454 58.2444 103.419 60.0816C103.394 61.4228 103.483 62.3288 103.44 62.8664C101.975 63.4788 100.407 63.7016 100.407 63.7016C100.492 62.8524 100.489 60.9768 100.853 59.4976C101.197 58.1064 103.518 52.0336 111.679 51.998Z" fill="#B1BABF"/>
<path fill-rule="evenodd" clip-rule="evenodd" d="M106.675 50.5201C111.962 48.3613 119.904 51.1921 119.975 51.2173C120.046 51.2385 128.09 53.7689 131.006 58.6813C133.937 63.6181 133.547 68.1129 131.774 71.3933C130.001 74.6777 128.295 76.5289 128.341 77.6257C128.384 78.7193 128.854 79.6185 128.854 79.6185C128.854 79.6185 126.823 83.6777 123.832 84.8245C123.832 84.8245 122.18 89.0961 120.396 90.5117C118.619 91.9277 115.965 93.3853 113.569 95.3037C112.624 96.0609 111.538 96.5281 110.38 96.7653C110.458 96.8221 110.532 96.8785 110.611 96.9353C115.427 96.8077 122.632 96.2237 130.174 94.1961C143.457 90.6213 156.074 78.4965 156.074 78.4965C152.917 88.8237 151.508 92.2353 143.273 98.0677C135.034 103.897 122.134 105.677 122.134 105.677C121.989 106.236 121.136 106.823 121.136 106.823C121.136 106.823 122.456 107.312 125.697 109.75C128.936 112.188 128.058 112.068 129.091 112.766C130.062 113.417 130.639 113.285 130.706 113.266L130.713 113.264C131.024 113.891 131.063 114.822 131.063 114.822C131.495 115.229 133.607 117.246 131.643 119.334C129.675 121.422 127.403 119.483 127.403 119.483C126.6 119.652 125.818 119.387 125.818 119.387C125.818 119.387 121.614 122.034 117.438 119.15C114.04 116.807 114.245 114.029 114.443 113.07C113.297 113.728 112.065 114.241 110.802 114.638C107.393 115.706 103.044 116.149 98.7225 114.712C95.8841 113.757 93.5345 112.1 91.6797 110.263C89.8217 108.423 88.4485 106.391 87.5533 104.562C87.4214 104.29 87.2964 104.015 87.1781 103.737C86.8805 104.445 85.4581 107.132 81.0517 106.94C75.9801 106.721 74.2213 102.074 74.2213 102.074C74.2213 102.074 73.4393 101.812 72.9013 101.196C72.9013 101.196 69.9213 101.373 69.6097 98.5209C69.3017 95.6681 72.2077 95.3357 72.7985 95.2717C72.7985 95.2717 73.3861 94.5497 74.0125 94.2385C74.0125 94.2385 74.3665 94.7517 75.6085 94.8185C76.8509 94.8861 76.0793 94.4505 80.1353 94.4613C84.1913 94.4685 85.5357 94.8789 85.5357 94.8789C85.5357 94.8789 85.2101 93.8949 85.4333 93.3609C85.4333 93.3609 76.2213 84.1589 73.1665 74.5397C70.1125 64.9205 71.0465 61.3533 74.7557 51.2101C74.7557 51.2101 77.5057 68.4913 85.9465 79.3493C90.7629 85.5465 96.1813 90.3773 99.9505 93.3853C100.035 93.3853 100.124 93.3893 100.209 93.3893C99.4057 92.4933 98.7929 91.4425 98.4889 90.2393C97.7349 87.2665 96.5001 84.5025 95.9337 82.3009C95.3673 80.0961 96.6273 75.6901 96.6273 75.6901C94.9353 72.9789 95.7601 68.5161 95.7601 68.5161C95.7601 68.5161 96.6769 68.0809 97.3741 67.2353C98.0677 66.3857 97.8269 63.8801 98.3933 60.1925C98.9597 56.5045 101.359 52.6893 106.675 50.5201ZM120.389 104.448C120.265 104.293 120.06 104.445 120.06 104.445C118.856 105.429 118.584 107.284 118.573 107.793C118.566 108.303 117.084 111.584 116.793 112.493C116.779 112.529 116.528 113.31 116.468 113.781C116.379 114.507 116.408 116.726 120 118C123.291 119.165 126.041 116.98 126.483 116.602C127.407 116.669 128.079 116.188 128.405 115.866C128.539 115.735 128.621 115.632 128.639 115.607C128.288 116.772 127.545 117.059 127.092 117.122C126.983 117.14 126.873 117.145 126.763 117.136C126.773 117.168 126.777 117.189 126.784 117.218C126.837 117.412 126.827 117.529 126.827 117.529C126.827 117.529 126.932 117.582 127.116 117.593C127.378 117.607 127.796 117.543 128.334 117.133C128.423 117.062 128.493 116.988 128.564 116.913C128.462 117.127 128.445 117.371 128.518 117.596C128.59 117.821 128.746 118.01 128.954 118.124C129.061 118.182 129.179 118.219 129.301 118.231C129.423 118.244 129.546 118.233 129.663 118.198C129.78 118.163 129.89 118.106 129.985 118.029C130.08 117.951 130.159 117.856 130.217 117.749C130.319 117.562 130.354 117.346 130.315 117.136C130.277 116.927 130.168 116.737 130.006 116.598C129.845 116.459 129.641 116.38 129.428 116.374C129.215 116.367 129.006 116.434 128.837 116.563C129.109 116.114 129.141 115.65 129.123 115.36C129.123 115.31 129.091 115.087 129.088 115.087L129.091 115.083C128.914 115.038 128.743 114.975 128.578 114.896C128.395 114.803 128.221 114.693 128.058 114.567C127.832 114.401 127.17 113.774 127.007 113.611C126.791 113.392 126.568 113.176 126.348 112.957C126.083 112.695 125.499 112.157 125.23 111.952L124.477 111.353C124.629 111.509 125.683 112.645 125.924 113.286C126.08 113.668 126.168 114.146 126.143 114.56C126.136 114.666 126.121 114.771 126.097 114.875C126.097 114.875 126.101 114.882 126.104 114.882C126.101 114.882 126.097 114.878 126.094 114.878C126.059 115.048 126.006 115.197 125.934 115.289C125.804 115.449 125.598 115.537 125.442 115.583C125.446 115.583 125.45 115.586 125.453 115.59C125.69 115.778 125.935 115.947 126.137 116.177C124.101 118.117 121.38 118.12 119.808 117.348C118.276 116.599 117.823 115.671 118.018 114.394C117.604 114.305 117.204 114.047 117.051 113.41C117.066 113.42 117.083 113.427 117.098 113.442C117.452 113.728 118.028 113.831 118.386 113.491C118.708 113.187 118.959 112.684 119.186 112.143C119.391 111.647 119.568 111.138 119.798 110.653C119.889 110.453 119.953 110.243 119.989 110.026C120.092 109.421 119.964 108.777 119.667 108.243C119.345 107.666 119.175 106.873 119.451 106.052C119.731 105.235 120.198 104.923 120.332 104.796C120.47 104.672 120.463 104.544 120.389 104.448ZM120.177 108.674C120.488 109.127 120.863 109.874 120.789 110.78C120.789 110.78 120.718 111.247 120.623 111.523C120.497 111.877 120.366 112.229 120.23 112.578C122.039 113.392 123.751 114.408 124.88 115.179C125.039 115.126 125.224 115.038 125.351 114.879C125.432 114.772 125.489 114.595 125.528 114.39C125.609 113.979 125.592 113.42 125.372 112.819C125.188 112.295 124.784 111.728 124.388 111.29C124.339 111.251 124.285 111.215 124.236 111.176C123.831 110.887 123.418 110.608 122.997 110.341C122.412 109.965 121.817 109.604 121.213 109.259C120.927 109.092 120.64 108.933 120.35 108.77C120.29 108.735 120.233 108.706 120.177 108.674ZM104.941 96.1249C97.9261 93.7713 90.3173 97.2501 88.6465 99.3629C88.5758 99.4466 88.5131 99.5367 88.4593 99.6321C88.4521 99.6425 88.4485 99.6641 88.4377 99.6709C88.4377 99.6709 88.3953 99.7349 88.3497 99.8657C87.6841 101.855 91.7149 110.306 99.3241 112.861C106.94 115.416 115.172 111.332 115.915 109.117C115.968 108.957 115.979 108.826 115.979 108.826C116.053 108.302 115.937 107.556 115.646 106.682C114.514 103.32 110.749 98.0749 104.941 96.1249ZM109.383 103.142C112.056 104.709 114.045 106.396 115.059 107.603C113.573 106.507 111.641 105.29 109.371 104.135C109.386 103.804 109.39 103.473 109.383 103.142ZM87.6097 93.4493C87.4965 93.4813 87.4149 93.5765 87.4469 93.7605C87.4789 93.9413 87.6665 94.4757 87.3905 95.2929C87.1177 96.1177 86.5057 96.6449 85.9005 96.9105C85.2953 97.1757 84.5521 97.7741 84.3433 98.7545C84.1377 99.7309 83.6073 101.019 83.7553 101.868C83.8089 102.194 84.1309 102.641 84.8705 102.612C84.3645 103.03 83.8905 102.998 83.5009 102.821C82.8889 103.95 81.9685 104.413 80.2909 104.088C78.5781 103.759 76.4049 102.113 75.9553 99.3345C75.9553 99.2877 76.5305 99.2821 76.7653 99.2817H76.8685C76.7693 99.1505 76.6597 98.9561 76.6525 98.7509C76.6493 98.6341 76.6989 98.4853 76.7729 98.3261C76.7909 98.3013 76.8649 98.1633 76.8793 98.1385C77.0845 97.7529 77.4809 97.3881 77.8561 97.1689C77.8597 97.1649 77.8629 97.1617 77.8665 97.1617C78.5213 96.7689 79.5477 96.5317 80.1985 96.4965C80.2165 96.4925 79.9689 96.4857 79.8449 96.4893C79.0381 96.4929 78.2345 96.5705 77.4349 96.6841C76.7269 96.7829 76.0477 96.9033 75.3965 96.9001C75.1937 96.8988 74.9913 96.881 74.7913 96.8469C74.6069 96.8111 74.4266 96.7565 74.2533 96.6841C74.2533 96.6841 73.5773 97.2253 73.5489 98.1525C73.513 97.9612 73.4184 97.7859 73.2782 97.6508C73.1381 97.5158 72.9594 97.4277 72.7669 97.3989C72.6446 97.3801 72.5199 97.3856 72.3997 97.4151C72.2796 97.4446 72.1665 97.4976 72.0669 97.5709C71.9673 97.6442 71.8831 97.7365 71.8192 97.8424C71.7553 97.9483 71.7129 98.0658 71.6945 98.1881C71.6581 98.4353 71.7211 98.6868 71.8697 98.8877C72.0182 99.0886 72.2403 99.2225 72.4873 99.2601C72.7336 99.2967 72.9843 99.2343 73.1846 99.0864C73.3849 98.9386 73.5185 98.7174 73.5561 98.4713C73.5597 98.4569 73.5597 98.4465 73.5597 98.4321C73.5737 98.5421 73.5949 98.6589 73.6269 98.7757C73.7149 99.1045 73.8357 99.3345 73.9629 99.5117C74.2601 99.9365 74.5893 99.9997 74.5893 99.9997C74.5933 99.9997 74.6353 99.9397 74.6389 99.9329C74.6601 99.9081 74.8373 99.7241 74.8725 99.7241C74.6533 99.5789 73.7469 98.8817 74.2993 97.3705C74.2993 97.3705 74.2673 98.7437 75.4033 99.4729C75.5273 100.039 76.4193 103.437 79.7493 104.491C83.3841 105.649 84.7821 103.914 85.1113 103.259C85.2561 102.962 85.6277 102.035 85.6277 102.035C85.9429 101.132 86.7425 97.6217 87.0437 97.2113C87.3409 96.8009 88.2433 95.1585 87.8789 93.6473C87.8789 93.6473 87.8045 93.3993 87.6097 93.4493ZM151.989 84.7041C151.975 84.7321 151.54 85.0933 150.836 85.6633C150.535 85.9109 150.202 86.1797 149.827 86.4773C145.729 89.7153 137.175 95.5373 123.249 98.0429C119.872 98.6481 116.432 98.9809 113.08 99.1293C113.618 99.6818 114.125 100.263 114.599 100.87C114.599 100.87 116.064 100.761 116.266 100.743C118.793 100.531 121.32 100.227 123.818 99.7737C129.997 98.6589 134.669 97.0801 136.884 96.2449C137.404 96.0397 137.901 95.8309 138.385 95.6185L138.318 95.6753C138.318 95.6753 129.244 101.076 115.466 102.063C115.888 102.687 116.274 103.335 116.623 104.003C120.909 103.762 125.248 103.164 129.35 102.028C131.972 101.299 134.552 100.379 137.015 99.2145C139.493 98.0465 141.924 96.6449 144.062 94.9213C145.452 93.7961 146.758 92.5853 147.958 91.2513C149.608 89.4217 151.112 87.2417 151.926 84.8989L151.986 84.7149L151.989 84.7041ZM80.2945 96.4929C79.7177 96.6061 79.0521 96.8113 78.5885 97.1193C78.0469 97.4697 77.7005 97.9049 77.5165 98.2765C77.4245 98.4677 77.3605 98.6445 77.3641 98.7757C77.3713 98.9809 77.4665 99.1613 77.5589 99.2993C77.5589 99.2993 80.7969 99.4729 82.8353 100.032C82.9133 99.7417 83.0193 99.3841 83.1577 98.9525C83.2457 98.6765 83.3665 98.4465 83.4973 98.2377C83.9857 97.4657 84.7077 97.1229 85.2349 96.9497C84.3573 96.8077 83.3309 96.6909 82.4497 96.6133C82.0104 96.5737 81.5703 96.543 81.1297 96.5213C80.8537 96.5069 80.5737 96.4997 80.2945 96.4929ZM89.7113 99.1457C91.2833 98.7969 93.9705 98.6325 97.1365 99.0097C96.9282 99.271 96.7291 99.5395 96.5393 99.8145C93.9553 99.3533 91.6081 99.1625 89.7113 99.1457ZM74.3169 58.6385L74.2461 58.8405C73.7897 60.1885 73.6161 61.6609 73.5421 63.0765C73.4141 65.4725 73.6409 67.8829 74.1469 70.2221C74.6849 72.7137 75.5449 75.1097 76.6029 77.4241C77.6829 79.7953 79.0169 82.0425 80.5069 84.1769C82.3365 86.8061 84.4281 89.2553 86.6933 91.5205C87.6654 92.4938 88.6673 93.4368 89.6977 94.3481C89.8253 94.4577 90.8549 95.4841 90.9577 95.4381C91.639 95.1164 92.3372 94.8317 93.0493 94.5853C82.7613 85.6133 78.7513 75.9449 78.6277 75.6441L78.6557 75.6937C78.7833 75.9273 78.9105 76.1609 79.0485 76.3977C79.3033 76.8153 79.6221 77.3709 80.0361 78.0469C82.0181 81.2181 84.6477 84.6297 88.1761 88.1793C88.1865 88.1901 92.5681 92.5113 94.4365 94.1569C95.1836 93.9543 95.941 93.7914 96.7053 93.6689C94.1041 91.5169 91.5381 89.1597 89.1917 86.6221C77.3429 73.7821 75.0777 61.8449 74.3169 58.6385ZM98.9137 76.0085C98.9137 76.0085 98.9097 76.0193 98.9065 76.0365C98.8321 76.3377 98.2481 78.7621 98.1137 79.9405C98.0961 80.0965 98.0857 80.2413 98.0785 80.3793C98.0217 81.3453 98.1917 81.8941 98.4005 82.5345C98.6341 83.2637 99.7345 86.3853 100.004 87.2345C100.039 87.3409 100.078 87.4753 100.12 87.6273C100.41 88.7069 100.92 90.8021 101.943 91.9061C103.104 93.1553 104.226 93.7181 105.61 94.1853C105.61 94.1853 105.616 94.1853 105.62 94.1889C105.627 94.1889 105.631 94.1925 105.635 94.1925C106.325 94.4261 106.979 94.5957 107.673 94.6737C108.363 94.7517 109.092 94.7337 109.931 94.5853C111.626 94.2845 113.565 92.5469 114.294 92.0301C115.024 91.5133 117.788 89.6905 118.411 89.2481C119.037 88.8057 119.561 88.4377 120.205 87.3513C120.849 86.2613 121.935 83.7309 121.935 83.7309C121.935 83.7309 120.891 83.5257 120.544 83.4829C120.544 83.4829 120.541 83.4937 120.53 83.5113C120.374 83.7841 119.129 85.9817 118.676 86.4417C118.676 86.4417 118.662 86.4417 118.641 86.4489C118.478 86.4769 117.83 86.6049 117.508 86.8449C117.136 87.1177 115.792 89.1173 114.032 89.8713C114.199 88.8801 113.559 88.3673 113.392 88.3849C113.229 88.4025 113.102 88.7917 113.066 88.8909C113.031 88.9901 112.691 89.6589 112.578 89.9737C112.461 90.2889 112.497 90.3137 112.497 90.3137C112.215 90.3038 111.933 90.2884 111.651 90.2677C111.912 89.7694 112.157 89.263 112.387 88.7493C112.534 88.3681 112.183 88.2565 112.115 88.2389L112.104 88.2361L112.1 88.2325C111.848 88.1953 111.597 88.1529 111.347 88.1053H111.322C111.006 88.0485 110.816 88.2469 110.777 88.3669C110.745 88.4449 110.713 88.5261 110.681 88.6041C110.564 88.8801 110.44 89.1601 110.32 89.4361C110.316 89.4537 110.313 89.4713 110.303 89.4853C110.161 89.8357 110.281 90.1293 110.281 90.1293C110.185 90.1225 109.952 90.1293 109.556 90.0517C109.372 90.0129 109.124 89.9029 109.124 89.9029C109.262 89.7897 109.347 89.5737 109.347 89.5737C109.598 88.9617 109.984 88.0133 109.984 88.0133C109.984 88.0133 110.136 87.6025 109.87 87.5249C109.51 87.4356 109.151 87.3376 108.794 87.2309C108.522 87.1709 108.405 87.3937 108.377 87.4681C108.32 87.6097 108.225 87.8325 108.189 87.9321C108.052 88.3245 107.917 88.7137 107.782 89.0997C107.782 89.1069 107.782 89.1101 107.779 89.1173C107.694 89.3653 107.761 89.6021 107.761 89.6021C107.761 89.6021 107.414 89.5313 107.234 89.4821C107.05 89.4357 106.774 89.2413 106.774 89.2413C106.82 89.1989 106.873 89.0713 106.912 88.9829C107.075 88.4025 107.234 87.6769 107.372 87.0681C107.382 86.9833 107.386 86.7321 107.128 86.6257C106.824 86.5135 106.522 86.3955 106.222 86.2717C105.956 86.1905 105.84 86.4101 105.797 86.5373C105.674 87.0975 105.557 87.6592 105.447 88.2221C105.423 88.418 105.462 88.6165 105.56 88.7881C105.419 88.7561 105.135 88.6321 104.909 88.5369C104.757 88.4729 104.428 88.2537 104.428 88.2537C104.597 88.2397 104.693 87.8785 104.693 87.8785C104.881 87.4857 105.008 87.1461 105.157 86.7745C105.16 86.7569 105.171 86.7425 105.174 86.7249L105.189 86.6897C105.334 86.2965 105.061 86.0877 105.015 86.0561C104.619 85.8577 104.173 85.6241 104.169 85.6241C103.943 85.5041 103.794 85.6633 103.744 85.8189C103.588 86.2613 103.344 86.6649 103.26 87.1533C103.22 87.4293 103.242 87.6201 103.242 87.6201C102.704 87.3653 102.506 86.9585 102.506 86.9585C102.633 86.8065 102.806 86.2613 102.81 85.7553C102.814 85.2457 102.846 84.7713 102.609 84.6013C102.371 84.4353 101.975 84.8597 101.77 85.1641C101.568 85.4649 101.522 85.6421 101.522 85.6421V85.6809C100.567 84.0173 100.701 81.6037 100.57 81.1613C100.439 80.7189 99.8797 80.1317 99.8797 80.1317C99.8685 80.0175 99.8638 79.9028 99.8657 79.7881C99.8797 78.8645 100.135 76.9501 100.17 76.6809C100.172 76.6703 100.173 76.6596 100.174 76.6489C99.8761 76.4721 98.9137 76.0089 98.9137 76.0089V76.0085ZM111.679 51.9993C103.518 52.0345 101.197 58.1077 100.853 59.4985C100.489 60.9781 100.492 62.8537 100.407 63.7029C100.407 63.7029 101.975 63.4801 103.44 62.8677C104.233 62.5421 104.997 62.1213 105.582 61.5585C105.447 61.7141 103.246 64.2197 100.892 64.4853C100.892 64.4853 100.375 66.7537 99.7453 67.9005C99.1225 69.0505 97.9013 69.8365 97.9013 69.8365C97.9013 69.8365 97.8093 70.7389 97.8093 71.6485C97.8093 72.0129 97.8201 72.3809 97.8589 72.6885C97.8801 72.8445 97.9085 72.9861 97.9405 73.1065C98.2201 74.0689 98.2517 74.6777 100.337 75.5945C101.048 75.9057 101.752 76.2385 102.428 76.6209C103.44 77.1941 104.53 77.8701 104.951 79.0201C104.955 79.0309 104.955 79.0417 104.962 79.0521C105.075 79.3425 105.086 79.7033 105.008 80.0005C105.004 79.9509 104.989 79.9027 104.965 79.8589C104.874 79.6789 104.714 79.5477 104.612 79.3777C104.612 79.3741 104.609 79.3705 104.601 79.3637C104.375 79.1053 104.13 78.8681 103.844 78.6733V78.6841L103.837 78.6701C103.837 78.6701 103.617 79.4381 103.274 80.0041C103.079 80.3297 102.871 80.6909 102.651 81.1861C102.651 81.1933 102.647 81.2005 102.644 81.2073C102.216 82.3189 102.715 83.4937 102.832 83.5009C102.969 83.5113 103.263 83.3769 103.819 81.8161C103.833 81.7809 103.861 81.7065 103.879 81.6249C103.893 81.5509 103.869 81.4161 103.837 81.3065C103.837 81.3065 103.84 81.2993 103.844 81.2889C103.911 81.0341 104.237 81.0553 104.442 81.0801C104.513 81.0873 104.583 81.0977 104.651 81.1153C104.683 81.1225 104.711 81.1297 104.735 81.1365C104.948 81.2109 105.065 81.3561 105.061 81.4341C105.061 81.4341 104.948 81.5049 104.863 81.6357C104.781 81.7665 104.64 82.1029 104.601 82.1949C104.459 82.5453 104.357 82.8285 104.237 83.1789C104.229 83.1893 104.229 83.2001 104.229 83.2109C104.129 83.5069 104.382 83.6329 104.443 83.6589L104.456 83.6637C104.456 83.6673 104.491 83.6777 104.495 83.6777C104.786 83.7318 105.076 83.7897 105.365 83.8513C105.365 83.8513 105.773 83.9253 105.911 83.5609C106.041 83.1753 106.154 82.8569 106.3 82.4709C106.307 82.4497 106.317 82.4249 106.328 82.4037V82.4001L106.339 82.3753C106.339 82.3753 106.427 82.1101 106.466 81.9505C106.501 81.8021 106.657 81.5473 106.799 81.5473C106.947 81.5473 107.149 81.6181 107.128 81.9189C107.107 82.2197 107.046 82.4177 107.036 82.4533C107.032 82.4672 107.03 82.4814 107.029 82.4957C106.894 82.9701 106.622 83.9677 106.622 83.9677C106.491 84.3501 106.909 84.4705 106.909 84.4705C107.163 84.5413 107.545 84.6013 107.815 84.6825C107.832 84.6865 107.847 84.6901 107.868 84.6933C107.868 84.6933 108.186 84.7961 108.299 84.7533C108.416 84.7113 108.491 84.5341 108.511 84.4773C108.529 84.4213 108.954 82.9381 109 82.7789C109.032 82.6585 109.018 82.4177 108.954 82.2797C108.975 82.2837 109.361 82.3505 109.577 82.4213C109.757 82.4853 109.998 82.5805 110.118 82.6725C109.934 82.7645 109.814 83.0689 109.803 83.1113C109.8 83.1185 109.797 83.1221 109.797 83.1257C109.768 83.2249 109.732 83.3201 109.704 83.4157C109.57 83.8229 109.392 84.3429 109.255 84.7537C109.234 84.8633 109.213 85.1357 109.531 85.2561L109.58 85.2737C109.846 85.3729 110.183 85.4933 110.43 85.5925C110.43 85.5925 110.511 85.6245 110.614 85.6245C110.738 85.6245 110.89 85.5781 110.961 85.3657C111.025 85.1713 111.17 84.7393 111.297 84.3465C111.421 83.9573 111.534 83.6033 111.538 83.5609C111.541 83.4865 111.63 83.3489 111.682 83.3025C111.828 83.2921 111.934 83.3133 112.033 83.3625C112.15 83.4193 112.284 83.5645 112.337 83.6177C112.26 83.7521 112.136 84.0953 112.104 84.2829C112.079 84.4421 111.892 85.1253 111.803 85.4437C111.792 85.4685 111.785 85.5037 111.775 85.5321C111.768 85.5429 111.771 85.5533 111.768 85.5677C111.764 85.5781 111.761 85.5853 111.764 85.5925C111.715 85.9217 112.033 86.0877 112.033 86.0877C112.316 86.2225 112.589 86.3533 112.837 86.4773C112.837 86.4773 112.872 86.4913 112.875 86.4913C112.875 86.4913 113.215 86.6009 113.329 86.2649C113.332 86.2558 113.336 86.2474 113.342 86.2401C113.456 85.8861 113.545 85.5921 113.643 85.2313C113.668 85.1325 113.696 85.0333 113.722 84.9341C113.73 84.909 113.735 84.8827 113.736 84.8561C113.742 84.8313 113.792 84.6545 113.806 84.5449C113.817 84.4881 113.817 84.4353 113.813 84.3961C113.813 84.3961 114.001 84.4705 114.22 84.5661C114.22 84.5697 114.652 84.7609 114.737 84.8069C114.811 84.8493 114.932 84.8949 114.978 84.9729C115.084 85.1217 115.112 85.1817 115.112 85.1817L114.804 85.2313C114.748 85.2277 114.492 85.3197 114.492 85.3977C113.997 86.9833 114.149 87.2629 114.266 87.3373C114.365 87.4009 115.469 86.7709 115.799 85.6241C115.799 85.6137 115.982 84.6581 116.022 84.2793C116.089 83.6673 116.344 82.9701 116.376 82.8849L116.368 82.8889C116.368 82.8849 116.376 82.8781 116.376 82.8781C115.254 82.8249 114.627 83.2673 114.627 83.2673C114.698 83.0973 114.801 82.9521 114.911 82.8213C114.917 82.8141 114.921 82.8141 114.925 82.8073C115.753 81.8513 117.256 81.8905 118.392 82.0353C119.281 82.1453 120.162 82.3329 121.033 82.5417C123.255 83.0657 123.645 82.6017 124.445 82.0001C125.135 81.4837 125.697 80.6873 126.115 79.9441C126.122 79.9297 126.133 79.9193 126.14 79.9049C126.324 79.6221 126.451 79.4169 126.451 79.4169C126.451 79.4169 125.949 78.0541 126.143 76.7589C126.342 75.4669 127.294 73.3401 127.294 73.3401C125.524 71.6625 125.319 68.1729 125.319 68.1729C125.428 68.8809 125.715 69.5889 126.087 70.2541C126.653 71.2769 127.407 72.1901 127.966 72.8021C128.444 72.0269 129.534 70.6681 130.082 69.2913C130.688 67.7589 133.013 59.7429 122.463 54.6677L122.053 54.4945C121.826 54.3845 121.606 54.2857 121.397 54.1901C121.198 54.1 120.996 54.015 120.792 53.9353C120.647 53.8753 120.509 53.8221 120.378 53.7725C120.276 53.7333 120.181 53.6981 120.092 53.6625C119.838 53.5688 119.582 53.4816 119.324 53.4009C119.284 53.3865 119.249 53.3761 119.211 53.3617C118.821 53.2377 117.331 52.7885 115.473 52.4029L115.423 52.3921C115.085 52.3218 114.745 52.2569 114.404 52.1973C113.502 52.0673 112.591 52.0011 111.679 51.9993ZM111.039 74.7141C111.195 74.2473 111.723 73.9885 112.243 74.1197C112.275 74.1269 112.307 74.1337 112.335 74.1445C112.37 74.1557 112.402 74.1697 112.435 74.1829C112.923 74.3977 113.185 74.9157 113.029 75.3829C112.834 75.9597 112.869 76.4449 112.904 76.9441C112.929 77.9101 113.372 78.1793 113.174 78.7777L112.975 79.3617C112.862 79.7013 112.551 79.9133 112.193 79.9665C112.027 79.9877 111.85 79.9877 111.673 79.9313C111.125 79.7473 110.817 79.1877 110.987 78.6889C111.015 78.6041 110.965 78.5121 110.877 78.4797C110.836 78.4659 110.791 78.4686 110.752 78.4872C110.713 78.5058 110.683 78.5388 110.668 78.5793C110.502 79.0817 109.918 79.3401 109.366 79.1561C109.189 79.0961 109.047 78.9897 108.927 78.8661C108.679 78.6077 108.558 78.2541 108.672 77.9173L108.87 77.3333C109.068 76.7349 109.585 76.7881 110.19 76.0309C110.516 75.6557 110.845 75.2949 111.04 74.7141H111.039ZM115.513 71.6949C115.513 71.6949 115.527 71.7129 115.535 71.7233C115.736 72.006 115.963 72.2691 116.214 72.5089C116.281 72.5765 116.352 72.6401 116.426 72.7041C116.43 72.7073 116.437 72.7109 116.44 72.7177C116.717 72.9481 117.042 73.1601 117.418 73.2845C118.56 73.6701 120.227 73.3973 122.015 73.0717C122.171 73.0477 122.322 73.0261 122.475 73.0077C124.078 72.8245 125.487 73.1785 125.487 73.1785L125.491 73.1885L125.459 73.1853C125.412 73.1921 125.367 73.1997 125.317 73.2065C124.864 73.3657 124.631 74.4385 124.631 74.4385C124.542 74.7605 124.432 75.0761 124.301 75.3833C124 76.0765 123.583 76.7529 123.056 77.3017C122.659 77.7157 122.224 77.9209 121.739 78.1937L121.735 78.1897C121.729 78.1897 121.456 78.2749 121.311 78.2921C120.213 78.4273 117.906 78.0733 116.799 77.3157C116.787 77.3117 116.78 77.3085 116.774 77.3053C115.662 76.6429 115.439 74.1125 115.435 73.4573C115.432 72.8065 115.509 71.7129 115.513 71.6949ZM102.407 65.4377C102.489 65.4697 103.773 66.0321 104.906 67.1117C105.019 67.2181 105.129 67.3277 105.235 67.4409C106.467 68.7789 107.631 70.0033 108.775 70.3857C109.147 70.5097 109.539 70.5377 109.896 70.5205C109.9 70.5205 109.907 70.5205 109.915 70.5165C110.013 70.5129 110.109 70.5061 110.201 70.4953C110.558 70.4496 110.911 70.3726 111.255 70.2653C111.255 70.2653 110.647 71.1965 110.251 71.7165C109.851 72.2401 108.151 74.1233 106.87 73.9817C106.86 73.9817 106.849 73.9745 106.839 73.9745C105.497 73.9073 103.441 72.7993 102.648 72.0313C102.542 71.9253 102.379 71.6953 102.376 71.6953C102.351 71.7161 102.325 71.7349 102.297 71.7517C102.325 71.7341 102.351 71.7129 102.376 71.6917C102.39 71.6773 102.12 71.2101 102.103 71.1749C101.678 70.1485 101.777 68.8709 102.043 67.8409C102.121 67.5401 102.213 67.2429 102.33 66.9529C102.33 66.9529 102.79 65.9577 102.524 65.5581C102.492 65.5225 102.457 65.4873 102.425 65.4553L102.418 65.4517C102.418 65.4485 102.414 65.4449 102.407 65.4377Z" fill="#0A0B09"/>
<path fill-rule="evenodd" clip-rule="evenodd" d="M115.136 109.564C112.317 111.341 106.025 112.985 99.965 110.953C94.0178 108.956 90.0657 103.872 88.8001 100.776C88.6521 100.455 88.6134 99.5875 89.4822 99.1855C89.4822 99.1855 88.9333 99.2635 88.4389 99.6695C88.4389 99.6695 88.3953 99.7335 88.3509 99.8659C87.6853 101.852 91.7154 110.305 99.3254 112.86C106.939 115.415 115.174 111.331 115.917 109.117C115.968 108.956 115.979 108.827 115.979 108.827C115.806 108.285 115.475 107.947 115.475 107.947C115.899 108.746 115.464 109.332 115.136 109.564" fill="#C2242B"/>
<path fill-rule="evenodd" clip-rule="evenodd" d="M109.371 104.134C109.367 104.229 109.362 104.326 109.357 104.422C109.106 104.294 108.853 104.168 108.595 104.043C108.5 104.621 108.357 105.191 108.167 105.746C107.784 105.525 107.397 105.312 107.005 105.109C107.177 104.574 107.313 104.033 107.415 103.488C106.996 103.298 106.567 103.111 106.13 102.928C106.014 103.45 105.875 103.967 105.715 104.477C105.314 104.291 104.909 104.114 104.5 103.946C104.659 103.446 104.804 102.946 104.935 102.448C104.503 102.281 104.068 102.121 103.63 101.968C103.478 102.456 103.322 102.944 103.162 103.43C102.747 103.28 102.329 103.14 101.909 103.009C102.075 102.52 102.245 102.037 102.416 101.561C101.974 101.421 101.531 101.287 101.085 101.16C100.887 101.64 100.702 102.125 100.529 102.614C100.102 102.501 99.6731 102.397 99.2418 102.303C99.4203 101.803 99.6199 101.31 99.8402 100.826C99.3802 100.709 98.9246 100.601 98.4746 100.502C98.2283 100.998 98.0132 101.508 97.8306 102.031C97.3947 101.956 96.9571 101.891 96.5182 101.837C96.6995 101.286 96.9264 100.751 97.1966 100.238C96.9166 100.184 96.6362 100.133 96.3554 100.085C96.4154 99.9938 96.477 99.9034 96.539 99.8138C93.955 99.3526 91.6078 99.1618 89.711 99.145C91.283 98.7962 93.9702 98.6318 97.1362 99.009C97.1602 98.9782 97.1838 98.947 97.2082 98.9174C97.449 98.9454 97.6922 98.9774 97.9374 99.0126C98.1552 98.6972 98.3866 98.3915 98.631 98.0962C99.0402 98.1486 99.4402 98.209 99.8318 98.2746C99.6082 98.581 99.3956 98.8952 99.1942 99.2166C99.6282 99.2954 100.068 99.3854 100.512 99.4854C100.693 99.1538 100.882 98.8286 101.077 98.5118C101.45 98.5922 101.818 98.6786 102.179 98.771C102.011 99.1034 101.849 99.4385 101.692 99.7762C102.105 99.8866 102.522 100.007 102.941 100.137C103.072 99.7866 103.205 99.4406 103.337 99.1006C103.687 99.2098 104.036 99.3262 104.381 99.4506C104.281 99.8014 104.179 100.157 104.072 100.516C104.485 100.663 104.889 100.817 105.286 100.977C105.364 100.611 105.437 100.247 105.502 99.887C105.848 100.031 106.192 100.183 106.539 100.345C106.503 100.715 106.458 101.084 106.403 101.451C106.817 101.637 107.222 101.827 107.615 102.023C107.647 101.65 107.666 101.277 107.673 100.907C108.026 101.09 108.381 101.284 108.739 101.488C108.755 101.862 108.757 102.236 108.741 102.609C108.958 102.727 109.169 102.846 109.379 102.966C109.381 103.024 109.381 103.083 109.383 103.141C112.055 104.708 114.044 106.395 115.059 107.603C113.572 106.507 111.64 105.289 109.371 104.134H109.371ZM104.941 96.1242C97.9278 93.7714 90.3178 97.2482 88.645 99.361C88.577 99.447 88.513 99.537 88.459 99.6322C88.4534 99.6422 88.447 99.6622 88.439 99.6694C88.933 99.2638 89.4818 99.1854 89.4818 99.1854C88.613 99.5878 88.6518 100.455 88.7998 100.777C90.0654 103.872 94.0174 108.956 99.9646 110.953C106.025 112.985 112.317 111.341 115.136 109.565C115.464 109.332 115.898 108.746 115.475 107.947C115.475 107.947 115.805 108.285 115.978 108.827C116.051 108.301 115.937 107.555 115.644 106.683C114.514 103.321 110.748 98.073 104.941 96.1242Z" fill="#DC4405"/>
</g>
<defs>
<clipPath id="clip0_17_1022">
<rect width="200" height="200" fill="white"/>
</clipPath>
</defs>
</svg>
