<svg width="200" height="200" viewBox="0 0 200 200" fill="none" xmlns="http://www.w3.org/2000/svg">
<g clip-path="url(#clip0_17_1005)">
<path d="M65.9811 111.558C66.1691 113.813 66.9703 118.3 69.5631 123.306C72.7671 129.488 79.4791 137.732 93.3227 142.401C95.5331 145.872 98.1184 149.089 101.032 151.995C111.555 162.493 125.534 168.264 140.394 168.241C155.256 168.22 169.217 162.41 179.709 151.878C190.201 141.351 195.971 127.364 195.948 112.495C195.924 97.6228 190.118 83.6532 179.596 73.1548C171.259 64.8356 160.8 59.4836 149.293 57.6268C133.716 43.5132 115.53 48.5704 114.751 48.7972C114.489 48.8708 114.099 48.9836 113.614 49.1308C108.017 50.9936 105.124 48.8592 103.248 47.3884C101.171 45.7584 98.9039 44.1032 96.7163 42.8728C89.2863 38.6908 78.7263 38.5416 69.8323 42.1296C63.9735 44.1264 61.0195 41.5436 59.2723 40.3364C47.6691 32.326 33.4027 30.4144 18.2675 33.7484C8.07591 35.9956 3.99951 38.07 3.99951 38.07C3.99951 38.07 10.9815 39.0828 18.2755 42.1336C24.2643 44.6368 29.0255 47.8504 32.6307 53.6216C32.6307 53.6216 34.8999 56.9556 33.4259 57.9392C31.7755 59.0396 30.0571 56.346 30.0571 56.346C30.0007 58.2844 30.0007 60.2136 30.1287 61.6784C30.9667 77.0728 34.1043 86.3192 41.5247 93.3848C44.9011 96.5984 50.5971 99.7244 59.3983 103.184C63.4127 104.791 65.5851 106.85 65.9807 111.558" fill="#FFFFFE"/>
<path d="M177.087 75.6691C169.016 67.6159 158.77 62.5355 147.68 60.9755C133.222 47.1335 115.738 52.2063 115.738 52.2063C119.443 52.7575 121.903 54.9675 120.955 57.4167C120.325 59.0351 117.635 59.1203 116.405 59.1323C112.499 59.1751 109.127 56.7783 106.435 54.5895C103.636 52.3115 99.0686 48.2691 94.9766 45.9679C87.3586 41.6811 75.2626 42.2151 66.5082 47.8075C71.7426 48.1627 78.0417 49.6703 81.7981 52.7831C83.8945 54.5219 86.5689 58.0167 84.3813 59.6487C82.4594 61.0847 77.7369 60.3435 75.3361 58.9519C71.5193 56.7415 68.0809 53.3903 66.0213 50.9607C52.1645 34.6271 32.5338 33.7151 16.3438 37.7167C26.9698 40.7011 34.0602 46.7575 38.4394 57.1979C42.8205 67.6379 46.2221 72.0819 53.4385 74.9111C57.9573 76.6807 59.1794 77.0087 58.8262 79.0135C58.3066 81.9475 52.9538 80.5387 48.8713 78.9435C43.8969 77.0011 37.3437 71.6355 33.4413 61.5719C34.1513 74.5927 36.6337 83.8259 43.9685 90.8119C47.0853 93.7771 52.8081 96.8451 61.7645 100.294C67.4817 102.496 72.0085 103.829 76.2673 107.646C81.2341 112.098 79.1182 115.038 75.8234 114.481C72.0958 113.852 69.4349 110.043 69.4349 110.043C69.4349 110.043 69.441 131.257 95.6478 139.422C97.8565 143.085 100.506 146.463 103.537 149.48C113.389 159.311 126.477 164.711 140.388 164.69C154.301 164.669 167.373 159.231 177.197 149.372C187.021 139.514 192.422 126.419 192.398 112.498C192.379 98.5779 186.941 85.4987 177.087 75.6699" fill="#002244"/>
<path d="M174.32 78.3078C166.502 70.4874 156.468 65.6926 145.638 64.5066C136.319 55.2134 127.022 55.6502 127.022 55.6502C131.102 58.2098 128.998 63.907 119.922 65.1626C110.933 66.4046 99.5153 63.3558 93.9553 56.8746C88.2245 50.1954 83.8977 49.8906 83.8977 49.8906C88.8685 52.9974 89.2213 56.727 92.2389 62.409C95.2565 68.093 101.469 70.1322 106.879 70.4874C112.579 70.8618 112.719 73.443 108.123 76.1714C103.109 79.1442 98.6717 76.3346 95.4465 73.1558C90.3537 68.1298 85.2821 67.1674 78.2733 67.2566C71.2645 67.3458 61.9997 68.2678 54.1781 65.3394C46.3565 62.409 41.1997 52.1106 41.1997 52.1106C45.0669 65.7834 53.6605 72.265 61.6369 73.831C72.1737 75.8978 79.4581 78.4066 83.9149 82.0182C88.2669 85.5498 90.5845 89.0722 92.2193 93.933C93.4817 97.6802 93.7069 102.656 92.4617 102.955C91.0089 103.3 90.7105 101.297 88.9981 97.8046C87.1073 93.947 84.8497 90.9194 80.2961 88.4902C74.1249 85.197 68.0857 85.3874 61.9281 85.4726C57.0505 85.5406 54.1901 84.9818 54.1901 84.9818C54.1901 84.9818 54.3937 85.6414 62.3413 87.427C71.1965 89.4142 79.7629 94.409 85.4645 106.586C90.3149 116.943 87.7841 124.231 77.0377 120.932C77.0377 120.932 82.0569 132.096 98.4505 136.072C100.567 139.794 103.196 143.254 106.303 146.365C115.387 155.452 127.464 160.457 140.311 160.457C153.157 160.457 165.232 155.452 174.32 146.365C183.402 137.273 188.404 125.189 188.404 112.333C188.404 99.4814 183.402 87.397 174.32 78.3078Z" fill="#4B92DB"/>
<path d="M140.31 66.5664C152.528 66.5664 164.016 71.3264 172.656 79.9716C181.298 88.6168 186.055 100.11 186.055 112.334C186.055 137.572 165.534 158.107 140.31 158.107C128.092 158.107 116.605 153.345 107.963 144.7C99.3231 136.055 94.5659 124.561 94.5659 112.334C94.5659 100.11 99.3231 88.6168 107.963 79.9716C116.605 71.3264 128.092 66.5664 140.31 66.5664Z" fill="#FFFFFE"/>
<path d="M140.368 154.158C117.287 154.193 98.5451 135.496 98.5103 112.4C98.4775 89.302 117.165 70.5504 140.248 70.5176C163.331 70.4828 182.073 89.1816 182.106 112.278C182.141 135.376 163.455 154.128 140.368 154.158Z" fill="#002244"/>
<path d="M130.089 103.876H117.703L113.62 111.158L108.13 95.584H172.372L166.891 111.158L162.842 103.876H150.665L140.351 149.022L130.089 103.876Z" fill="#FFFFFE"/>
<path d="M172.372 95.584H108.13L109.171 98.5356H139.804L130.089 103.876L140.351 149.016V98.5356H171.335L172.372 95.584Z" fill="#A5ACAF"/>
<path d="M108.772 59.4611C99.4573 59.1951 95.6597 55.4987 89.8729 50.8491C82.7921 45.1575 74.9377 46.7431 74.9377 46.7431C79.6409 44.0495 88.8897 43.9391 95.5517 49.7839C101.504 55.0059 104.424 57.8391 108.772 59.4615L108.772 59.4611ZM29.2549 38.9303C39.6405 37.0091 48.3481 40.2575 54.9325 51.9339C61.3753 63.3579 73.1493 63.6623 73.1493 63.6623C64.2105 66.1967 51.9945 63.8951 45.5905 52.3975C37.9725 38.7187 29.2549 38.9303 29.2549 38.9303ZM78.6009 105.159C73.4829 98.0775 65.4461 96.3915 54.4921 93.4535C38.8081 89.2463 38.6861 75.5599 38.6861 75.5599C38.6861 75.5599 41.0349 85.0511 59.2613 88.7615C77.3673 92.4487 78.6009 105.159 78.6009 105.159V105.159ZM146.588 91.5615L140.31 87.0519L134.1 91.6587L136.449 84.2903L130.152 79.8075L137.88 79.7143L140.198 72.3851L142.626 79.7143H150.356L144.125 84.2299L146.588 91.5615ZM119.01 117.483L118.244 125.181L125.336 128.257L117.784 129.904L117.053 137.604L113.149 130.929L105.607 132.611L110.746 126.834L106.817 120.174L113.894 123.281L119.01 117.483L119.01 117.483ZM155.232 128.424L162.278 125.237L161.396 117.553L166.599 123.272L173.625 120.058L169.801 126.776L175.028 132.472L167.46 130.908L163.661 137.643L162.811 129.957L155.232 128.424Z" fill="#C60C30"/>
</g>
<defs>
<clipPath id="clip0_17_1005">
<rect width="200" height="200" fill="white"/>
</clipPath>
</defs>
</svg>
