<svg width="200" height="200" viewBox="0 0 200 200" fill="none" xmlns="http://www.w3.org/2000/svg">
<mask id="mask0_17_1013" style="mask-type:luminance" maskUnits="userSpaceOnUse" x="8" y="49" width="184" height="101">
<path d="M8 49.5996H192V149.888H8V49.5996Z" fill="white"/>
</mask>
<g mask="url(#mask0_17_1013)">
<path d="M133.642 49.5996L139.523 67.6324L135.147 81.0328L124.932 49.5996H79.1384L70.9244 74.7956L62.7432 49.5996H8L25.1972 77.5256L48.7556 149.888H93.0848L101.994 122.533L110.878 149.888H159.376L192 49.5996H133.642ZM31.3184 74.6884L19.986 56.2916H57.8796L67.4004 85.6156L51.138 135.569L31.3184 74.6884ZM88.196 143.345H55.6544L82.232 61.7012L98.478 111.713L88.196 143.345ZM87.5096 56.2916H120.068L131.648 91.8608L115.353 141.93L87.5096 56.2916ZM154.454 143.304H121.92L146.538 67.6736L142.832 56.2916H182.76L154.454 143.304Z" fill="#FFB612"/>
<path d="M131.623 91.8702L115.327 141.94L87.509 56.293H120.067L131.623 91.8702ZM142.831 56.293L146.521 67.675L121.904 143.305H154.437L182.777 56.293H142.831ZM57.879 56.293H19.9858L31.3178 74.6894L51.1706 135.571L67.4002 85.6166L57.879 56.293ZM55.6542 143.305H88.237L98.519 111.715L82.2318 61.7026L55.6542 143.305Z" fill="#5A1414"/>
</g>
</svg>
